solid model
  facet normal 0 1 0
    outer loop
      vertex -0.288836 -4.59092 0
      vertex -0.288836 -4.59092 7.05
      vertex 0.288836 -4.59092 0
    endloop
  endfacet
  facet normal 0 0 -1
    outer loop
      vertex -0.288836 -4.59092 0
      vertex 0.288836 -4.59092 0
      vertex 0.472498 -7.51015 0
    endloop
  endfacet
  facet normal 0 1 -0
    outer loop
      vertex -0.288836 -4.59092 7.05
      vertex 0.288836 -4.59092 7.05
      vertex 0.288836 -4.59092 0
    endloop
  endfacet
  facet normal -0 0 1
    outer loop
      vertex -0.288836 -4.59092 7.05
      vertex 0.378312 -6.01311 7.05
      vertex 0.288836 -4.59092 7.05
    endloop
  endfacet
  facet normal 0 -1 -0
    outer loop
      vertex -0.288836 4.59092 0
      vertex 0.288836 4.59092 0
      vertex 0.288836 4.59092 7.05
    endloop
  endfacet
  facet normal 0 -1 0
    outer loop
      vertex -0.288836 4.59092 0
      vertex 0.288836 4.59092 7.05
      vertex -0.288836 4.59092 7.05
    endloop
  endfacet
  facet normal 0 0 -1
    outer loop
      vertex -0.288836 4.59092 0
      vertex 0.472498 7.51015 0
      vertex 0.288836 4.59092 0
    endloop
  endfacet
  facet normal 0 0 1
    outer loop
      vertex -0.288836 4.59092 7.05
      vertex 0.288836 4.59092 7.05
      vertex 0.378312 6.01311 7.05
    endloop
  endfacet
  facet normal 0 -1 -0
    outer loop
      vertex -0.378312 -6.01311 2
      vertex 0.378312 -6.01311 2
      vertex 0.378312 -6.01311 7.05
    endloop
  endfacet
  facet normal 0 -1 0
    outer loop
      vertex -0.378312 -6.01311 2
      vertex 0.378312 -6.01311 7.05
      vertex -0.378312 -6.01311 7.05
    endloop
  endfacet
  facet normal -0 0 1
    outer loop
      vertex -0.378312 -6.01311 2
      vertex 0.472498 -7.51015 2
      vertex 0.378312 -6.01311 2
    endloop
  endfacet
  facet normal 0 0 1
    outer loop
      vertex -0.378312 -6.01311 7.05
      vertex 0.378312 -6.01311 7.05
      vertex -0.288836 -4.59092 7.05
    endloop
  endfacet
  facet normal 0 1 0
    outer loop
      vertex -0.378312 6.01311 2
      vertex -0.378312 6.01311 7.05
      vertex 0.378312 6.01311 2
    endloop
  endfacet
  facet normal 0 0 1
    outer loop
      vertex -0.378312 6.01311 2
      vertex 0.378312 6.01311 2
      vertex 0.472498 7.51015 2
    endloop
  endfacet
  facet normal -0 0 1
    outer loop
      vertex -0.378312 6.01311 7.05
      vertex -0.288836 4.59092 7.05
      vertex 0.378312 6.01311 7.05
    endloop
  endfacet
  facet normal 0 1 -0
    outer loop
      vertex -0.378312 6.01311 7.05
      vertex 0.378312 6.01311 7.05
      vertex 0.378312 6.01311 2
    endloop
  endfacet
  facet normal 0 0 -1
    outer loop
      vertex -0.472498 -7.51015 0
      vertex -0.288836 -4.59092 0
      vertex 0.472498 -7.51015 0
    endloop
  endfacet
  facet normal 0 -1 -0
    outer loop
      vertex -0.472498 -7.51015 0
      vertex 0.472498 -7.51015 0
      vertex 0.472498 -7.51015 2
    endloop
  endfacet
  facet normal 0 -1 0
    outer loop
      vertex -0.472498 -7.51015 0
      vertex 0.472498 -7.51015 2
      vertex -0.472498 -7.51015 2
    endloop
  endfacet
  facet normal 0 0 1
    outer loop
      vertex -0.472498 -7.51015 2
      vertex 0.472498 -7.51015 2
      vertex -0.378312 -6.01311 2
    endloop
  endfacet
  facet normal 0 1 0
    outer loop
      vertex -0.472498 7.51015 0
      vertex -0.472498 7.51015 2
      vertex 0.472498 7.51015 0
    endloop
  endfacet
  facet normal 0 0 -1
    outer loop
      vertex -0.472498 7.51015 0
      vertex 0.472498 7.51015 0
      vertex -0.288836 4.59092 0
    endloop
  endfacet
  facet normal -0 0 1
    outer loop
      vertex -0.472498 7.51015 2
      vertex -0.378312 6.01311 2
      vertex 0.472498 7.51015 2
    endloop
  endfacet
  facet normal 0 1 -0
    outer loop
      vertex -0.472498 7.51015 2
      vertex 0.472498 7.51015 2
      vertex 0.472498 7.51015 0
    endloop
  endfacet
  facet normal 0 0 -1
    outer loop
      vertex -0.861954 -4.51852 0
      vertex -0.288836 -4.59092 0
      vertex -0.472498 -7.51015 0
    endloop
  endfacet
  facet normal 0.125332 0.992115 0
    outer loop
      vertex -0.861954 -4.51852 0
      vertex -0.861954 -4.51852 7.05
      vertex -0.288836 -4.59092 0
    endloop
  endfacet
  facet normal 0.125332 0.992115 -0
    outer loop
      vertex -0.861954 -4.51852 7.05
      vertex -0.288836 -4.59092 7.05
      vertex -0.288836 -4.59092 0
    endloop
  endfacet
  facet normal 0 0 1
    outer loop
      vertex -0.861954 -4.51852 7.05
      vertex -0.378312 -6.01311 7.05
      vertex -0.288836 -4.59092 7.05
    endloop
  endfacet
  facet normal 0.125332 -0.992115 0
    outer loop
      vertex -0.861954 4.51852 0
      vertex -0.288836 4.59092 0
      vertex -0.288836 4.59092 7.05
    endloop
  endfacet
  facet normal 0.125332 -0.992115 0
    outer loop
      vertex -0.861954 4.51852 0
      vertex -0.288836 4.59092 7.05
      vertex -0.861954 4.51852 7.05
    endloop
  endfacet
  facet normal 0 0 -1
    outer loop
      vertex -0.861954 4.51852 0
      vertex -0.472498 7.51015 0
      vertex -0.288836 4.59092 0
    endloop
  endfacet
  facet normal 0 0 1
    outer loop
      vertex -0.861954 4.51852 7.05
      vertex -0.288836 4.59092 7.05
      vertex -0.378312 6.01311 7.05
    endloop
  endfacet
  facet normal -0.125332 -0.992115 -0
    outer loop
      vertex -1.12897 -5.91828 2
      vertex -0.378312 -6.01311 2
      vertex -0.378312 -6.01311 7.05
    endloop
  endfacet
  facet normal -0.125332 -0.992115 0
    outer loop
      vertex -1.12897 -5.91828 2
      vertex -0.378312 -6.01311 7.05
      vertex -1.12897 -5.91828 7.05
    endloop
  endfacet
  facet normal 0 0 1
    outer loop
      vertex -1.12897 -5.91828 2
      vertex -0.472498 -7.51015 2
      vertex -0.378312 -6.01311 2
    endloop
  endfacet
  facet normal 0 0 1
    outer loop
      vertex -1.12897 -5.91828 7.05
      vertex -0.378312 -6.01311 7.05
      vertex -0.861954 -4.51852 7.05
    endloop
  endfacet
  facet normal 0 0 1
    outer loop
      vertex -1.12897 5.91828 2
      vertex -0.378312 6.01311 2
      vertex -0.472498 7.51015 2
    endloop
  endfacet
  facet normal -0.125332 0.992115 0
    outer loop
      vertex -1.12897 5.91828 2
      vertex -1.12897 5.91828 7.05
      vertex -0.378312 6.01311 2
    endloop
  endfacet
  facet normal -0.125332 0.992115 0
    outer loop
      vertex -1.12897 5.91828 7.05
      vertex -0.378312 6.01311 7.05
      vertex -0.378312 6.01311 2
    endloop
  endfacet
  facet normal -0 0 1
    outer loop
      vertex -1.12897 5.91828 7.05
      vertex -0.861954 4.51852 7.05
      vertex -0.378312 6.01311 7.05
    endloop
  endfacet
  facet normal -0.125333 -0.992115 -0
    outer loop
      vertex -1.41004 -7.39171 0
      vertex -0.472498 -7.51015 0
      vertex -0.472498 -7.51015 2
    endloop
  endfacet
  facet normal -0.125333 -0.992115 0
    outer loop
      vertex -1.41004 -7.39171 0
      vertex -0.472498 -7.51015 2
      vertex -1.41004 -7.39171 2
    endloop
  endfacet
  facet normal 0 0 -1
    outer loop
      vertex -1.41004 -7.39171 0
      vertex -0.861954 -4.51852 0
      vertex -0.472498 -7.51015 0
    endloop
  endfacet
  facet normal 0 0 1
    outer loop
      vertex -1.41004 -7.39171 2
      vertex -0.472498 -7.51015 2
      vertex -1.12897 -5.91828 2
    endloop
  endfacet
  facet normal 0 0 -1
    outer loop
      vertex -1.41004 7.39171 0
      vertex -0.472498 7.51015 0
      vertex -0.861954 4.51852 0
    endloop
  endfacet
  facet normal -0.125333 0.992115 0
    outer loop
      vertex -1.41004 7.39171 0
      vertex -1.41004 7.39171 2
      vertex -0.472498 7.51015 0
    endloop
  endfacet
  facet normal -0.125333 0.992115 0
    outer loop
      vertex -1.41004 7.39171 2
      vertex -0.472498 7.51015 2
      vertex -0.472498 7.51015 0
    endloop
  endfacet
  facet normal -0 0 1
    outer loop
      vertex -1.41004 7.39171 2
      vertex -1.12897 5.91828 2
      vertex -0.472498 7.51015 2
    endloop
  endfacet
  facet normal 0 0 -1
    outer loop
      vertex -1.42148 -4.37486 0
      vertex -0.861954 -4.51852 0
      vertex -1.41004 -7.39171 0
    endloop
  endfacet
  facet normal 0.24869 0.968583 0
    outer loop
      vertex -1.42148 -4.37486 0
      vertex -1.42148 -4.37486 7.05
      vertex -0.861954 -4.51852 0
    endloop
  endfacet
  facet normal 0.24869 0.968583 -0
    outer loop
      vertex -1.42148 -4.37486 7.05
      vertex -0.861954 -4.51852 7.05
      vertex -0.861954 -4.51852 0
    endloop
  endfacet
  facet normal 0 0 1
    outer loop
      vertex -1.42148 -4.37486 7.05
      vertex -1.12897 -5.91828 7.05
      vertex -0.861954 -4.51852 7.05
    endloop
  endfacet
  facet normal 0.24869 -0.968583 0
    outer loop
      vertex -1.42148 4.37486 0
      vertex -0.861954 4.51852 0
      vertex -0.861954 4.51852 7.05
    endloop
  endfacet
  facet normal 0.24869 -0.968583 0
    outer loop
      vertex -1.42148 4.37486 0
      vertex -0.861954 4.51852 7.05
      vertex -1.42148 4.37486 7.05
    endloop
  endfacet
  facet normal 0 0 -1
    outer loop
      vertex -1.42148 4.37486 0
      vertex -1.41004 7.39171 0
      vertex -0.861954 4.51852 0
    endloop
  endfacet
  facet normal 0 0 1
    outer loop
      vertex -1.42148 4.37486 7.05
      vertex -0.861954 4.51852 7.05
      vertex -1.12897 5.91828 7.05
    endloop
  endfacet
  facet normal -0.248691 -0.968583 -0
    outer loop
      vertex -1.86183 -5.73011 2
      vertex -1.12897 -5.91828 2
      vertex -1.12897 -5.91828 7.05
    endloop
  endfacet
  facet normal -0.248691 -0.968583 0
    outer loop
      vertex -1.86183 -5.73011 2
      vertex -1.12897 -5.91828 7.05
      vertex -1.86183 -5.73011 7.05
    endloop
  endfacet
  facet normal 0 0 1
    outer loop
      vertex -1.86183 -5.73011 2
      vertex -1.41004 -7.39171 2
      vertex -1.12897 -5.91828 2
    endloop
  endfacet
  facet normal 0 0 1
    outer loop
      vertex -1.86183 -5.73011 7.05
      vertex -1.12897 -5.91828 7.05
      vertex -1.42148 -4.37486 7.05
    endloop
  endfacet
  facet normal 0 0 1
    outer loop
      vertex -1.86183 5.73011 2
      vertex -1.12897 5.91828 2
      vertex -1.41004 7.39171 2
    endloop
  endfacet
  facet normal -0.248691 0.968583 0
    outer loop
      vertex -1.86183 5.73011 2
      vertex -1.86183 5.73011 7.05
      vertex -1.12897 5.91828 2
    endloop
  endfacet
  facet normal -0.248691 0.968583 0
    outer loop
      vertex -1.86183 5.73011 7.05
      vertex -1.12897 5.91828 7.05
      vertex -1.12897 5.91828 2
    endloop
  endfacet
  facet normal -0 0 1
    outer loop
      vertex -1.86183 5.73011 7.05
      vertex -1.42148 4.37486 7.05
      vertex -1.12897 5.91828 7.05
    endloop
  endfacet
  facet normal 0.368125 0.929776 0
    outer loop
      vertex -1.95858 -4.1622 0
      vertex -1.95858 -4.1622 7.05
      vertex -1.42148 -4.37486 0
    endloop
  endfacet
  facet normal 0.368125 0.929776 -0
    outer loop
      vertex -1.95858 -4.1622 7.05
      vertex -1.42148 -4.37486 7.05
      vertex -1.42148 -4.37486 0
    endloop
  endfacet
  facet normal 0 0 1
    outer loop
      vertex -1.95858 -4.1622 7.05
      vertex -1.86183 -5.73011 7.05
      vertex -1.42148 -4.37486 7.05
    endloop
  endfacet
  facet normal 0.368125 -0.929776 0
    outer loop
      vertex -1.95858 4.1622 0
      vertex -1.42148 4.37486 0
      vertex -1.42148 4.37486 7.05
    endloop
  endfacet
  facet normal 0.368125 -0.929776 0
    outer loop
      vertex -1.95858 4.1622 0
      vertex -1.42148 4.37486 7.05
      vertex -1.95858 4.1622 7.05
    endloop
  endfacet
  facet normal 0 0 1
    outer loop
      vertex -1.95858 4.1622 7.05
      vertex -1.42148 4.37486 7.05
      vertex -1.86183 5.73011 7.05
    endloop
  endfacet
  facet normal -0.24869 -0.968583 -0
    outer loop
      vertex -2.32535 -7.1567 0
      vertex -1.41004 -7.39171 0
      vertex -1.41004 -7.39171 2
    endloop
  endfacet
  facet normal -0.24869 -0.968583 0
    outer loop
      vertex -2.32535 -7.1567 0
      vertex -1.41004 -7.39171 2
      vertex -2.32535 -7.1567 2
    endloop
  endfacet
  facet normal 0 0 -1
    outer loop
      vertex -2.32535 -7.1567 0
      vertex -1.42148 -4.37486 0
      vertex -1.41004 -7.39171 0
    endloop
  endfacet
  facet normal -0 0 -1
    outer loop
      vertex -2.32535 -7.1567 0
      vertex -1.95858 -4.1622 0
      vertex -1.42148 -4.37486 0
    endloop
  endfacet
  facet normal 0 0 1
    outer loop
      vertex -2.32535 -7.1567 2
      vertex -1.41004 -7.39171 2
      vertex -1.86183 -5.73011 2
    endloop
  endfacet
  facet normal 0 0 -1
    outer loop
      vertex -2.32535 7.1567 0
      vertex -1.41004 7.39171 0
      vertex -1.42148 4.37486 0
    endloop
  endfacet
  facet normal 0 0 -1
    outer loop
      vertex -2.32535 7.1567 0
      vertex -1.42148 4.37486 0
      vertex -1.95858 4.1622 0
    endloop
  endfacet
  facet normal -0.24869 0.968583 0
    outer loop
      vertex -2.32535 7.1567 0
      vertex -2.32535 7.1567 2
      vertex -1.41004 7.39171 0
    endloop
  endfacet
  facet normal -0.24869 0.968583 0
    outer loop
      vertex -2.32535 7.1567 2
      vertex -1.41004 7.39171 2
      vertex -1.41004 7.39171 0
    endloop
  endfacet
  facet normal -0 0 1
    outer loop
      vertex -2.32535 7.1567 2
      vertex -1.86183 5.73011 2
      vertex -1.41004 7.39171 2
    endloop
  endfacet
  facet normal 0.481753 0.876307 0
    outer loop
      vertex -2.4648 -3.88391 0
      vertex -2.4648 -3.88391 7.05
      vertex -1.95858 -4.1622 0
    endloop
  endfacet
  facet normal 0.481753 0.876307 -0
    outer loop
      vertex -2.4648 -3.88391 7.05
      vertex -1.95858 -4.1622 7.05
      vertex -1.95858 -4.1622 0
    endloop
  endfacet
  facet normal 0.481753 -0.876307 0
    outer loop
      vertex -2.4648 3.88391 0
      vertex -1.95858 4.1622 0
      vertex -1.95858 4.1622 7.05
    endloop
  endfacet
  facet normal 0.481753 -0.876307 0
    outer loop
      vertex -2.4648 3.88391 0
      vertex -1.95858 4.1622 7.05
      vertex -2.4648 3.88391 7.05
    endloop
  endfacet
  facet normal -0.368124 -0.929777 -0
    outer loop
      vertex -2.56532 -5.45158 2
      vertex -1.86183 -5.73011 2
      vertex -1.86183 -5.73011 7.05
    endloop
  endfacet
  facet normal -0.368124 -0.929777 0
    outer loop
      vertex -2.56532 -5.45158 2
      vertex -1.86183 -5.73011 7.05
      vertex -2.56532 -5.45158 7.05
    endloop
  endfacet
  facet normal 0 0 1
    outer loop
      vertex -2.56532 -5.45158 2
      vertex -2.32535 -7.1567 2
      vertex -1.86183 -5.73011 2
    endloop
  endfacet
  facet normal 0 0 1
    outer loop
      vertex -2.56532 -5.45158 7.05
      vertex -1.86183 -5.73011 7.05
      vertex -1.95858 -4.1622 7.05
    endloop
  endfacet
  facet normal 0 0 1
    outer loop
      vertex -2.56532 -5.45158 7.05
      vertex -1.95858 -4.1622 7.05
      vertex -2.4648 -3.88391 7.05
    endloop
  endfacet
  facet normal 0 0 1
    outer loop
      vertex -2.56532 5.45158 2
      vertex -1.86183 5.73011 2
      vertex -2.32535 7.1567 2
    endloop
  endfacet
  facet normal -0.368124 0.929777 0
    outer loop
      vertex -2.56532 5.45158 2
      vertex -2.56532 5.45158 7.05
      vertex -1.86183 5.73011 2
    endloop
  endfacet
  facet normal -0.368124 0.929777 0
    outer loop
      vertex -2.56532 5.45158 7.05
      vertex -1.86183 5.73011 7.05
      vertex -1.86183 5.73011 2
    endloop
  endfacet
  facet normal -0 0 1
    outer loop
      vertex -2.56532 5.45158 7.05
      vertex -1.95858 4.1622 7.05
      vertex -1.86183 5.73011 7.05
    endloop
  endfacet
  facet normal 0 0 1
    outer loop
      vertex -2.56532 5.45158 7.05
      vertex -2.4648 3.88391 7.05
      vertex -1.95858 4.1622 7.05
    endloop
  endfacet
  facet normal 0.587786 0.809017 0
    outer loop
      vertex -2.93215 -3.54436 0
      vertex -2.93215 -3.54436 7.05
      vertex -2.4648 -3.88391 0
    endloop
  endfacet
  facet normal 0.587786 0.809017 -0
    outer loop
      vertex -2.93215 -3.54436 7.05
      vertex -2.4648 -3.88391 7.05
      vertex -2.4648 -3.88391 0
    endloop
  endfacet
  facet normal 0.587786 -0.809017 0
    outer loop
      vertex -2.93215 3.54436 0
      vertex -2.4648 3.88391 0
      vertex -2.4648 3.88391 7.05
    endloop
  endfacet
  facet normal 0.587786 -0.809017 0
    outer loop
      vertex -2.93215 3.54436 0
      vertex -2.4648 3.88391 7.05
      vertex -2.93215 3.54436 7.05
    endloop
  endfacet
  facet normal 0 0 -1
    outer loop
      vertex -3.20399 -6.80882 0
      vertex -1.95858 -4.1622 0
      vertex -2.32535 -7.1567 0
    endloop
  endfacet
  facet normal -0.368125 -0.929776 -0
    outer loop
      vertex -3.20399 -6.80882 0
      vertex -2.32535 -7.1567 0
      vertex -2.32535 -7.1567 2
    endloop
  endfacet
  facet normal -0.368125 -0.929776 0
    outer loop
      vertex -3.20399 -6.80882 0
      vertex -2.32535 -7.1567 2
      vertex -3.20399 -6.80882 2
    endloop
  endfacet
  facet normal -0 0 -1
    outer loop
      vertex -3.20399 -6.80882 0
      vertex -2.4648 -3.88391 0
      vertex -1.95858 -4.1622 0
    endloop
  endfacet
  facet normal 0 0 1
    outer loop
      vertex -3.20399 -6.80882 2
      vertex -2.32535 -7.1567 2
      vertex -2.56532 -5.45158 2
    endloop
  endfacet
  facet normal 0 0 -1
    outer loop
      vertex -3.20399 6.80882 0
      vertex -1.95858 4.1622 0
      vertex -2.4648 3.88391 0
    endloop
  endfacet
  facet normal 0 0 -1
    outer loop
      vertex -3.20399 6.80882 0
      vertex -2.32535 7.1567 0
      vertex -1.95858 4.1622 0
    endloop
  endfacet
  facet normal -0.368125 0.929776 0
    outer loop
      vertex -3.20399 6.80882 0
      vertex -3.20399 6.80882 2
      vertex -2.32535 7.1567 0
    endloop
  endfacet
  facet normal -0.368125 0.929776 0
    outer loop
      vertex -3.20399 6.80882 2
      vertex -2.32535 7.1567 2
      vertex -2.32535 7.1567 0
    endloop
  endfacet
  facet normal -0 0 1
    outer loop
      vertex -3.20399 6.80882 2
      vertex -2.56532 5.45158 2
      vertex -2.32535 7.1567 2
    endloop
  endfacet
  facet normal -0.481754 -0.876306 -0
    outer loop
      vertex -3.22836 -5.08708 2
      vertex -2.56532 -5.45158 2
      vertex -2.56532 -5.45158 7.05
    endloop
  endfacet
  facet normal -0.481754 -0.876306 0
    outer loop
      vertex -3.22836 -5.08708 2
      vertex -2.56532 -5.45158 7.05
      vertex -3.22836 -5.08708 7.05
    endloop
  endfacet
  facet normal 0 0 1
    outer loop
      vertex -3.22836 -5.08708 2
      vertex -3.20399 -6.80882 2
      vertex -2.56532 -5.45158 2
    endloop
  endfacet
  facet normal 0 0 1
    outer loop
      vertex -3.22836 -5.08708 7.05
      vertex -2.4648 -3.88391 7.05
      vertex -2.93215 -3.54436 7.05
    endloop
  endfacet
  facet normal 0 0 1
    outer loop
      vertex -3.22836 -5.08708 7.05
      vertex -2.56532 -5.45158 7.05
      vertex -2.4648 -3.88391 7.05
    endloop
  endfacet
  facet normal 0 0 1
    outer loop
      vertex -3.22836 5.08708 2
      vertex -2.56532 5.45158 2
      vertex -3.20399 6.80882 2
    endloop
  endfacet
  facet normal -0.481754 0.876306 0
    outer loop
      vertex -3.22836 5.08708 2
      vertex -3.22836 5.08708 7.05
      vertex -2.56532 5.45158 2
    endloop
  endfacet
  facet normal -0 0 1
    outer loop
      vertex -3.22836 5.08708 7.05
      vertex -2.4648 3.88391 7.05
      vertex -2.56532 5.45158 7.05
    endloop
  endfacet
  facet normal -0.481754 0.876306 0
    outer loop
      vertex -3.22836 5.08708 7.05
      vertex -2.56532 5.45158 7.05
      vertex -2.56532 5.45158 2
    endloop
  endfacet
  facet normal 0 0 1
    outer loop
      vertex -3.22836 5.08708 7.05
      vertex -2.93215 3.54436 7.05
      vertex -2.4648 3.88391 7.05
    endloop
  endfacet
  facet normal 0.684547 0.728969 0
    outer loop
      vertex -3.35326 -3.14892 0
      vertex -3.35326 -3.14892 7.05
      vertex -2.93215 -3.54436 0
    endloop
  endfacet
  facet normal 0.684547 0.728969 -0
    outer loop
      vertex -3.35326 -3.14892 7.05
      vertex -2.93215 -3.54436 7.05
      vertex -2.93215 -3.54436 0
    endloop
  endfacet
  facet normal 0.684547 -0.728969 0
    outer loop
      vertex -3.35326 3.14892 0
      vertex -2.93215 3.54436 0
      vertex -2.93215 3.54436 7.05
    endloop
  endfacet
  facet normal 0.684547 -0.728969 0
    outer loop
      vertex -3.35326 3.14892 0
      vertex -2.93215 3.54436 7.05
      vertex -3.35326 3.14892 7.05
    endloop
  endfacet
  facet normal 0.770514 0.637424 0
    outer loop
      vertex -3.72148 -2.70381 0
      vertex -3.35326 -3.14892 7.05
      vertex -3.35326 -3.14892 0
    endloop
  endfacet
  facet normal 0.770514 0.637424 0
    outer loop
      vertex -3.72148 -2.70381 0
      vertex -3.72148 -2.70381 7.05
      vertex -3.35326 -3.14892 7.05
    endloop
  endfacet
  facet normal 0.770514 -0.637424 0
    outer loop
      vertex -3.72148 2.70381 0
      vertex -3.35326 3.14892 0
      vertex -3.72148 2.70381 7.05
    endloop
  endfacet
  facet normal 0.770514 -0.637424 0
    outer loop
      vertex -3.72148 2.70381 7.05
      vertex -3.35326 3.14892 0
      vertex -3.35326 3.14892 7.05
    endloop
  endfacet
  facet normal -0.587786 -0.809017 -0
    outer loop
      vertex -3.84048 -4.64234 2
      vertex -3.22836 -5.08708 2
      vertex -3.22836 -5.08708 7.05
    endloop
  endfacet
  facet normal -0.587786 -0.809017 0
    outer loop
      vertex -3.84048 -4.64234 2
      vertex -3.22836 -5.08708 7.05
      vertex -3.84048 -4.64234 7.05
    endloop
  endfacet
  facet normal 0 0 1
    outer loop
      vertex -3.84048 -4.64234 7.05
      vertex -2.93215 -3.54436 7.05
      vertex -3.35326 -3.14892 7.05
    endloop
  endfacet
  facet normal 0 0 1
    outer loop
      vertex -3.84048 -4.64234 7.05
      vertex -3.22836 -5.08708 7.05
      vertex -2.93215 -3.54436 7.05
    endloop
  endfacet
  facet normal -0.587786 0.809017 0
    outer loop
      vertex -3.84048 4.64234 2
      vertex -3.84048 4.64234 7.05
      vertex -3.22836 5.08708 2
    endloop
  endfacet
  facet normal -0 0 1
    outer loop
      vertex -3.84048 4.64234 7.05
      vertex -2.93215 3.54436 7.05
      vertex -3.22836 5.08708 7.05
    endloop
  endfacet
  facet normal -0.587786 0.809017 0
    outer loop
      vertex -3.84048 4.64234 7.05
      vertex -3.22836 5.08708 7.05
      vertex -3.22836 5.08708 2
    endloop
  endfacet
  facet normal 0 0 1
    outer loop
      vertex -3.84048 4.64234 7.05
      vertex -3.35326 3.14892 7.05
      vertex -2.93215 3.54436 7.05
    endloop
  endfacet
  facet normal 0.844327 0.535827 0
    outer loop
      vertex -4.03101 -2.21607 0
      vertex -3.72148 -2.70381 7.05
      vertex -3.72148 -2.70381 0
    endloop
  endfacet
  facet normal 0.844327 0.535827 0
    outer loop
      vertex -4.03101 -2.21607 0
      vertex -4.03101 -2.21607 7.05
      vertex -3.72148 -2.70381 7.05
    endloop
  endfacet
  facet normal 0.844327 -0.535827 0
    outer loop
      vertex -4.03101 2.21607 0
      vertex -3.72148 2.70381 0
      vertex -4.03101 2.21607 7.05
    endloop
  endfacet
  facet normal 0.844327 -0.535827 0
    outer loop
      vertex -4.03101 2.21607 7.05
      vertex -3.72148 2.70381 0
      vertex -3.72148 2.70381 7.05
    endloop
  endfacet
  facet normal 0 0 -1
    outer loop
      vertex -4.0321 -6.35357 0
      vertex -2.4648 -3.88391 0
      vertex -3.20399 -6.80882 0
    endloop
  endfacet
  facet normal -0 0 -1
    outer loop
      vertex -4.0321 -6.35357 0
      vertex -2.93215 -3.54436 0
      vertex -2.4648 -3.88391 0
    endloop
  endfacet
  facet normal -0.481754 -0.876307 -0
    outer loop
      vertex -4.0321 -6.35357 0
      vertex -3.20399 -6.80882 0
      vertex -3.20399 -6.80882 2
    endloop
  endfacet
  facet normal -0.481754 -0.876307 0
    outer loop
      vertex -4.0321 -6.35357 0
      vertex -3.20399 -6.80882 2
      vertex -4.0321 -6.35357 2
    endloop
  endfacet
  facet normal 0 0 1
    outer loop
      vertex -4.0321 -6.35357 2
      vertex -3.20399 -6.80882 2
      vertex -3.22836 -5.08708 2
    endloop
  endfacet
  facet normal 0 0 1
    outer loop
      vertex -4.0321 -6.35357 2
      vertex -3.22836 -5.08708 2
      vertex -3.84048 -4.64234 2
    endloop
  endfacet
  facet normal 0 0 -1
    outer loop
      vertex -4.0321 6.35357 0
      vertex -2.4648 3.88391 0
      vertex -2.93215 3.54436 0
    endloop
  endfacet
  facet normal 0 0 -1
    outer loop
      vertex -4.0321 6.35357 0
      vertex -3.20399 6.80882 0
      vertex -2.4648 3.88391 0
    endloop
  endfacet
  facet normal -0.481754 0.876307 0
    outer loop
      vertex -4.0321 6.35357 0
      vertex -4.0321 6.35357 2
      vertex -3.20399 6.80882 0
    endloop
  endfacet
  facet normal -0.481754 0.876307 0
    outer loop
      vertex -4.0321 6.35357 2
      vertex -3.20399 6.80882 2
      vertex -3.20399 6.80882 0
    endloop
  endfacet
  facet normal -0 0 1
    outer loop
      vertex -4.0321 6.35357 2
      vertex -3.22836 5.08708 2
      vertex -3.20399 6.80882 2
    endloop
  endfacet
  facet normal 0 0 1
    outer loop
      vertex -4.0321 6.35357 2
      vertex -3.84048 4.64234 2
      vertex -3.22836 5.08708 2
    endloop
  endfacet
  facet normal 0.904827 0.42578 0
    outer loop
      vertex -4.27697 -1.69337 0
      vertex -4.03101 -2.21607 7.05
      vertex -4.03101 -2.21607 0
    endloop
  endfacet
  facet normal 0.904827 0.42578 0
    outer loop
      vertex -4.27697 -1.69337 0
      vertex -4.27697 -1.69337 7.05
      vertex -4.03101 -2.21607 7.05
    endloop
  endfacet
  facet normal 0.904827 -0.42578 0
    outer loop
      vertex -4.27697 1.69337 0
      vertex -4.03101 2.21607 0
      vertex -4.27697 1.69337 7.05
    endloop
  endfacet
  facet normal 0.904827 -0.42578 0
    outer loop
      vertex -4.27697 1.69337 7.05
      vertex -4.03101 2.21607 0
      vertex -4.03101 2.21607 7.05
    endloop
  endfacet
  facet normal -0.684547 -0.728969 -0
    outer loop
      vertex -4.39204 -4.1244 2
      vertex -3.84048 -4.64234 2
      vertex -3.84048 -4.64234 7.05
    endloop
  endfacet
  facet normal -0.684547 -0.728969 0
    outer loop
      vertex -4.39204 -4.1244 2
      vertex -3.84048 -4.64234 7.05
      vertex -4.39204 -4.1244 7.05
    endloop
  endfacet
  facet normal 0 0 1
    outer loop
      vertex -4.39204 -4.1244 7.05
      vertex -3.35326 -3.14892 7.05
      vertex -3.72148 -2.70381 7.05
    endloop
  endfacet
  facet normal 0 0 1
    outer loop
      vertex -4.39204 -4.1244 7.05
      vertex -3.84048 -4.64234 7.05
      vertex -3.35326 -3.14892 7.05
    endloop
  endfacet
  facet normal -0.684547 0.728969 0
    outer loop
      vertex -4.39204 4.1244 2
      vertex -4.39204 4.1244 7.05
      vertex -3.84048 4.64234 2
    endloop
  endfacet
  facet normal -0 0 1
    outer loop
      vertex -4.39204 4.1244 7.05
      vertex -3.35326 3.14892 7.05
      vertex -3.84048 4.64234 7.05
    endloop
  endfacet
  facet normal 0 0 1
    outer loop
      vertex -4.39204 4.1244 7.05
      vertex -3.72148 2.70381 7.05
      vertex -3.35326 3.14892 7.05
    endloop
  endfacet
  facet normal -0.684547 0.728969 0
    outer loop
      vertex -4.39204 4.1244 7.05
      vertex -3.84048 4.64234 7.05
      vertex -3.84048 4.64234 2
    endloop
  endfacet
  facet normal 0.951057 0.309017 0
    outer loop
      vertex -4.45548 -1.14397 0
      vertex -4.27697 -1.69337 7.05
      vertex -4.27697 -1.69337 0
    endloop
  endfacet
  facet normal 0.951057 0.309017 0
    outer loop
      vertex -4.45548 -1.14397 0
      vertex -4.45548 -1.14397 7.05
      vertex -4.27697 -1.69337 7.05
    endloop
  endfacet
  facet normal 0.951057 -0.309017 0
    outer loop
      vertex -4.45548 1.14397 0
      vertex -4.27697 1.69337 0
      vertex -4.45548 1.14397 7.05
    endloop
  endfacet
  facet normal 0.951057 -0.309017 0
    outer loop
      vertex -4.45548 1.14397 7.05
      vertex -4.27697 1.69337 0
      vertex -4.27697 1.69337 7.05
    endloop
  endfacet
  facet normal 0.982287 0.187381 0
    outer loop
      vertex -4.56373 -0.576532 0
      vertex -4.45548 -1.14397 7.05
      vertex -4.45548 -1.14397 0
    endloop
  endfacet
  facet normal 0.982287 0.187381 0
    outer loop
      vertex -4.56373 -0.576532 0
      vertex -4.56373 -0.576532 7.05
      vertex -4.45548 -1.14397 7.05
    endloop
  endfacet
  facet normal 0.982287 -0.187381 0
    outer loop
      vertex -4.56373 0.576532 0
      vertex -4.45548 1.14397 0
      vertex -4.56373 0.576532 7.05
    endloop
  endfacet
  facet normal 0.982287 -0.187381 0
    outer loop
      vertex -4.56373 0.576532 7.05
      vertex -4.45548 1.14397 0
      vertex -4.45548 1.14397 7.05
    endloop
  endfacet
  facet normal 0.998027 0.06279 0
    outer loop
      vertex -4.6 0 0
      vertex -4.56373 -0.576532 7.05
      vertex -4.56373 -0.576532 0
    endloop
  endfacet
  facet normal 0.998027 -0.06279 0
    outer loop
      vertex -4.6 0 0
      vertex -4.56373 0.576532 0
      vertex -4.6 0 7.05
    endloop
  endfacet
  facet normal 0.998027 0.06279 0
    outer loop
      vertex -4.6 0 0
      vertex -4.6 0 7.05
      vertex -4.56373 -0.576532 7.05
    endloop
  endfacet
  facet normal 0.998027 -0.06279 0
    outer loop
      vertex -4.6 0 7.05
      vertex -4.56373 0.576532 0
      vertex -4.56373 0.576532 7.05
    endloop
  endfacet
  facet normal 0 0 -1
    outer loop
      vertex -4.79661 -5.79811 0
      vertex -2.93215 -3.54436 0
      vertex -4.0321 -6.35357 0
    endloop
  endfacet
  facet normal -0 0 -1
    outer loop
      vertex -4.79661 -5.79811 0
      vertex -3.35326 -3.14892 0
      vertex -2.93215 -3.54436 0
    endloop
  endfacet
  facet normal -0.587785 -0.809017 -0
    outer loop
      vertex -4.79661 -5.79811 0
      vertex -4.0321 -6.35357 0
      vertex -4.0321 -6.35357 2
    endloop
  endfacet
  facet normal -0.587785 -0.809017 0
    outer loop
      vertex -4.79661 -5.79811 0
      vertex -4.0321 -6.35357 2
      vertex -4.79661 -5.79811 2
    endloop
  endfacet
  facet normal 0 0 1
    outer loop
      vertex -4.79661 -5.79811 2
      vertex -3.84048 -4.64234 2
      vertex -4.39204 -4.1244 2
    endloop
  endfacet
  facet normal 0 0 1
    outer loop
      vertex -4.79661 -5.79811 2
      vertex -4.0321 -6.35357 2
      vertex -3.84048 -4.64234 2
    endloop
  endfacet
  facet normal 0 0 -1
    outer loop
      vertex -4.79661 5.79811 0
      vertex -2.93215 3.54436 0
      vertex -3.35326 3.14892 0
    endloop
  endfacet
  facet normal 0 0 -1
    outer loop
      vertex -4.79661 5.79811 0
      vertex -4.0321 6.35357 0
      vertex -2.93215 3.54436 0
    endloop
  endfacet
  facet normal -0.587785 0.809017 0
    outer loop
      vertex -4.79661 5.79811 0
      vertex -4.79661 5.79811 2
      vertex -4.0321 6.35357 0
    endloop
  endfacet
  facet normal -0 0 1
    outer loop
      vertex -4.79661 5.79811 2
      vertex -3.84048 4.64234 2
      vertex -4.0321 6.35357 2
    endloop
  endfacet
  facet normal -0.587785 0.809017 0
    outer loop
      vertex -4.79661 5.79811 2
      vertex -4.0321 6.35357 2
      vertex -4.0321 6.35357 0
    endloop
  endfacet
  facet normal 0 0 1
    outer loop
      vertex -4.79661 5.79811 2
      vertex -4.39204 4.1244 2
      vertex -3.84048 4.64234 2
    endloop
  endfacet
  facet normal -0.770513 -0.637424 0
    outer loop
      vertex -4.87433 -3.54141 2
      vertex -4.39204 -4.1244 2
      vertex -4.87433 -3.54141 7.05
    endloop
  endfacet
  facet normal 0 0 1
    outer loop
      vertex -4.87433 -3.54141 7.05
      vertex -3.72148 -2.70381 7.05
      vertex -4.03101 -2.21607 7.05
    endloop
  endfacet
  facet normal -0.770513 -0.637424 0
    outer loop
      vertex -4.87433 -3.54141 7.05
      vertex -4.39204 -4.1244 2
      vertex -4.39204 -4.1244 7.05
    endloop
  endfacet
  facet normal 0 0 1
    outer loop
      vertex -4.87433 -3.54141 7.05
      vertex -4.39204 -4.1244 7.05
      vertex -3.72148 -2.70381 7.05
    endloop
  endfacet
  facet normal -0.770513 0.637424 0
    outer loop
      vertex -4.87433 3.54141 2
      vertex -4.39204 4.1244 7.05
      vertex -4.39204 4.1244 2
    endloop
  endfacet
  facet normal -0.770513 0.637424 0
    outer loop
      vertex -4.87433 3.54141 2
      vertex -4.87433 3.54141 7.05
      vertex -4.39204 4.1244 7.05
    endloop
  endfacet
  facet normal -0 0 1
    outer loop
      vertex -4.87433 3.54141 7.05
      vertex -3.72148 2.70381 7.05
      vertex -4.39204 4.1244 7.05
    endloop
  endfacet
  facet normal 0 0 1
    outer loop
      vertex -4.87433 3.54141 7.05
      vertex -4.03101 2.21607 7.05
      vertex -3.72148 2.70381 7.05
    endloop
  endfacet
  facet normal -0.844328 -0.535826 0
    outer loop
      vertex -5.27975 -2.90257 2
      vertex -4.87433 -3.54141 2
      vertex -5.27975 -2.90257 7.05
    endloop
  endfacet
  facet normal 0 0 1
    outer loop
      vertex -5.27975 -2.90257 7.05
      vertex -4.03101 -2.21607 7.05
      vertex -4.27697 -1.69337 7.05
    endloop
  endfacet
  facet normal -0.844328 -0.535826 0
    outer loop
      vertex -5.27975 -2.90257 7.05
      vertex -4.87433 -3.54141 2
      vertex -4.87433 -3.54141 7.05
    endloop
  endfacet
  facet normal 0 0 1
    outer loop
      vertex -5.27975 -2.90257 7.05
      vertex -4.87433 -3.54141 7.05
      vertex -4.03101 -2.21607 7.05
    endloop
  endfacet
  facet normal -0.844328 0.535826 0
    outer loop
      vertex -5.27975 2.90257 2
      vertex -4.87433 3.54141 7.05
      vertex -4.87433 3.54141 2
    endloop
  endfacet
  facet normal -0.844328 0.535826 0
    outer loop
      vertex -5.27975 2.90257 2
      vertex -5.27975 2.90257 7.05
      vertex -4.87433 3.54141 7.05
    endloop
  endfacet
  facet normal -0 0 1
    outer loop
      vertex -5.27975 2.90257 7.05
      vertex -4.03101 2.21607 7.05
      vertex -4.87433 3.54141 7.05
    endloop
  endfacet
  facet normal 0 0 1
    outer loop
      vertex -5.27975 2.90257 7.05
      vertex -4.27697 1.69337 7.05
      vertex -4.03101 2.21607 7.05
    endloop
  endfacet
  facet normal 0 0 -1
    outer loop
      vertex -5.48549 -5.15122 0
      vertex -3.35326 -3.14892 0
      vertex -4.79661 -5.79811 0
    endloop
  endfacet
  facet normal -0 0 -1
    outer loop
      vertex -5.48549 -5.15122 0
      vertex -3.72148 -2.70381 0
      vertex -3.35326 -3.14892 0
    endloop
  endfacet
  facet normal -0.684547 -0.728969 -0
    outer loop
      vertex -5.48549 -5.15122 0
      vertex -4.79661 -5.79811 0
      vertex -4.79661 -5.79811 2
    endloop
  endfacet
  facet normal -0.684547 -0.728969 0
    outer loop
      vertex -5.48549 -5.15122 0
      vertex -4.79661 -5.79811 2
      vertex -5.48549 -5.15122 2
    endloop
  endfacet
  facet normal 0 0 1
    outer loop
      vertex -5.48549 -5.15122 2
      vertex -4.39204 -4.1244 2
      vertex -4.87433 -3.54141 2
    endloop
  endfacet
  facet normal 0 0 1
    outer loop
      vertex -5.48549 -5.15122 2
      vertex -4.79661 -5.79811 2
      vertex -4.39204 -4.1244 2
    endloop
  endfacet
  facet normal 0 0 -1
    outer loop
      vertex -5.48549 5.15122 0
      vertex -3.35326 3.14892 0
      vertex -3.72148 2.70381 0
    endloop
  endfacet
  facet normal 0 0 -1
    outer loop
      vertex -5.48549 5.15122 0
      vertex -4.79661 5.79811 0
      vertex -3.35326 3.14892 0
    endloop
  endfacet
  facet normal -0.684547 0.728969 0
    outer loop
      vertex -5.48549 5.15122 0
      vertex -5.48549 5.15122 2
      vertex -4.79661 5.79811 0
    endloop
  endfacet
  facet normal -0 0 1
    outer loop
      vertex -5.48549 5.15122 2
      vertex -4.39204 4.1244 2
      vertex -4.79661 5.79811 2
    endloop
  endfacet
  facet normal -0.684547 0.728969 0
    outer loop
      vertex -5.48549 5.15122 2
      vertex -4.79661 5.79811 2
      vertex -4.79661 5.79811 0
    endloop
  endfacet
  facet normal 0 0 1
    outer loop
      vertex -5.48549 5.15122 2
      vertex -4.87433 3.54141 2
      vertex -4.39204 4.1244 2
    endloop
  endfacet
  facet normal -0.904827 -0.42578 0
    outer loop
      vertex -5.6019 -2.21795 2
      vertex -5.27975 -2.90257 2
      vertex -5.6019 -2.21795 7.05
    endloop
  endfacet
  facet normal 0 0 1
    outer loop
      vertex -5.6019 -2.21795 7.05
      vertex -4.27697 -1.69337 7.05
      vertex -4.45548 -1.14397 7.05
    endloop
  endfacet
  facet normal -0.904827 -0.42578 0
    outer loop
      vertex -5.6019 -2.21795 7.05
      vertex -5.27975 -2.90257 2
      vertex -5.27975 -2.90257 7.05
    endloop
  endfacet
  facet normal 0 0 1
    outer loop
      vertex -5.6019 -2.21795 7.05
      vertex -5.27975 -2.90257 7.05
      vertex -4.27697 -1.69337 7.05
    endloop
  endfacet
  facet normal -0.904827 0.42578 0
    outer loop
      vertex -5.6019 2.21795 2
      vertex -5.27975 2.90257 7.05
      vertex -5.27975 2.90257 2
    endloop
  endfacet
  facet normal -0.904827 0.42578 0
    outer loop
      vertex -5.6019 2.21795 2
      vertex -5.6019 2.21795 7.05
      vertex -5.27975 2.90257 7.05
    endloop
  endfacet
  facet normal -0 0 1
    outer loop
      vertex -5.6019 2.21795 7.05
      vertex -4.27697 1.69337 7.05
      vertex -5.27975 2.90257 7.05
    endloop
  endfacet
  facet normal 0 0 1
    outer loop
      vertex -5.6019 2.21795 7.05
      vertex -4.45548 1.14397 7.05
      vertex -4.27697 1.69337 7.05
    endloop
  endfacet
  facet normal -0.951056 -0.309017 0
    outer loop
      vertex -5.83571 -1.49836 2
      vertex -5.6019 -2.21795 2
      vertex -5.83571 -1.49836 7.05
    endloop
  endfacet
  facet normal 0 0 1
    outer loop
      vertex -5.83571 -1.49836 7.05
      vertex -4.45548 -1.14397 7.05
      vertex -4.56373 -0.576532 7.05
    endloop
  endfacet
  facet normal -0.951056 -0.309017 0
    outer loop
      vertex -5.83571 -1.49836 7.05
      vertex -5.6019 -2.21795 2
      vertex -5.6019 -2.21795 7.05
    endloop
  endfacet
  facet normal 0 0 1
    outer loop
      vertex -5.83571 -1.49836 7.05
      vertex -5.6019 -2.21795 7.05
      vertex -4.45548 -1.14397 7.05
    endloop
  endfacet
  facet normal -0.951056 0.309017 0
    outer loop
      vertex -5.83571 1.49836 2
      vertex -5.6019 2.21795 7.05
      vertex -5.6019 2.21795 2
    endloop
  endfacet
  facet normal -0.951056 0.309017 0
    outer loop
      vertex -5.83571 1.49836 2
      vertex -5.83571 1.49836 7.05
      vertex -5.6019 2.21795 7.05
    endloop
  endfacet
  facet normal -0 0 1
    outer loop
      vertex -5.83571 1.49836 7.05
      vertex -4.45548 1.14397 7.05
      vertex -5.6019 2.21795 7.05
    endloop
  endfacet
  facet normal 0 0 1
    outer loop
      vertex -5.83571 1.49836 7.05
      vertex -4.56373 0.576532 7.05
      vertex -4.45548 1.14397 7.05
    endloop
  endfacet
  facet normal -0.982287 -0.187381 0
    outer loop
      vertex -5.97749 -0.755133 2
      vertex -5.83571 -1.49836 2
      vertex -5.97749 -0.755133 7.05
    endloop
  endfacet
  facet normal 0 0 1
    outer loop
      vertex -5.97749 -0.755133 7.05
      vertex -4.56373 -0.576532 7.05
      vertex -4.6 0 7.05
    endloop
  endfacet
  facet normal -0.982287 -0.187381 0
    outer loop
      vertex -5.97749 -0.755133 7.05
      vertex -5.83571 -1.49836 2
      vertex -5.83571 -1.49836 7.05
    endloop
  endfacet
  facet normal 0 0 1
    outer loop
      vertex -5.97749 -0.755133 7.05
      vertex -5.83571 -1.49836 7.05
      vertex -4.56373 -0.576532 7.05
    endloop
  endfacet
  facet normal -0.982287 0.187381 0
    outer loop
      vertex -5.97749 0.755133 2
      vertex -5.83571 1.49836 7.05
      vertex -5.83571 1.49836 2
    endloop
  endfacet
  facet normal -0.982287 0.187381 0
    outer loop
      vertex -5.97749 0.755133 2
      vertex -5.97749 0.755133 7.05
      vertex -5.83571 1.49836 7.05
    endloop
  endfacet
  facet normal -0 0 1
    outer loop
      vertex -5.97749 0.755133 7.05
      vertex -4.56373 0.576532 7.05
      vertex -5.83571 1.49836 7.05
    endloop
  endfacet
  facet normal 0 0 1
    outer loop
      vertex -5.97749 0.755133 7.05
      vertex -4.6 0 7.05
      vertex -4.56373 0.576532 7.05
    endloop
  endfacet
  facet normal -0.998027 -0.0627909 0
    outer loop
      vertex -6.025 0 2
      vertex -5.97749 -0.755133 2
      vertex -6.025 0 7.05
    endloop
  endfacet
  facet normal -0.998027 0.0627909 0
    outer loop
      vertex -6.025 0 2
      vertex -5.97749 0.755133 7.05
      vertex -5.97749 0.755133 2
    endloop
  endfacet
  facet normal -0.998027 0.0627909 0
    outer loop
      vertex -6.025 0 2
      vertex -6.025 0 7.05
      vertex -5.97749 0.755133 7.05
    endloop
  endfacet
  facet normal 0 0 1
    outer loop
      vertex -6.025 0 7.05
      vertex -4.6 0 7.05
      vertex -5.97749 0.755133 7.05
    endloop
  endfacet
  facet normal -0.998027 -0.0627909 0
    outer loop
      vertex -6.025 0 7.05
      vertex -5.97749 -0.755133 2
      vertex -5.97749 -0.755133 7.05
    endloop
  endfacet
  facet normal 0 0 1
    outer loop
      vertex -6.025 0 7.05
      vertex -5.97749 -0.755133 7.05
      vertex -4.6 0 7.05
    endloop
  endfacet
  facet normal 0 0 -1
    outer loop
      vertex -6.08785 -4.42308 0
      vertex -3.72148 -2.70381 0
      vertex -5.48549 -5.15122 0
    endloop
  endfacet
  facet normal -0 0 -1
    outer loop
      vertex -6.08785 -4.42308 0
      vertex -4.03101 -2.21607 0
      vertex -3.72148 -2.70381 0
    endloop
  endfacet
  facet normal -0.770514 -0.637424 0
    outer loop
      vertex -6.08785 -4.42308 0
      vertex -5.48549 -5.15122 0
      vertex -6.08785 -4.42308 2
    endloop
  endfacet
  facet normal 0 0 1
    outer loop
      vertex -6.08785 -4.42308 2
      vertex -4.87433 -3.54141 2
      vertex -5.27975 -2.90257 2
    endloop
  endfacet
  facet normal -0.770514 -0.637424 0
    outer loop
      vertex -6.08785 -4.42308 2
      vertex -5.48549 -5.15122 0
      vertex -5.48549 -5.15122 2
    endloop
  endfacet
  facet normal 0 0 1
    outer loop
      vertex -6.08785 -4.42308 2
      vertex -5.48549 -5.15122 2
      vertex -4.87433 -3.54141 2
    endloop
  endfacet
  facet normal 0 0 -1
    outer loop
      vertex -6.08785 4.42308 0
      vertex -3.72148 2.70381 0
      vertex -4.03101 2.21607 0
    endloop
  endfacet
  facet normal 0 0 -1
    outer loop
      vertex -6.08785 4.42308 0
      vertex -5.48549 5.15122 0
      vertex -3.72148 2.70381 0
    endloop
  endfacet
  facet normal -0.770514 0.637424 0
    outer loop
      vertex -6.08785 4.42308 0
      vertex -5.48549 5.15122 2
      vertex -5.48549 5.15122 0
    endloop
  endfacet
  facet normal -0.770514 0.637424 0
    outer loop
      vertex -6.08785 4.42308 0
      vertex -6.08785 4.42308 2
      vertex -5.48549 5.15122 2
    endloop
  endfacet
  facet normal -0 0 1
    outer loop
      vertex -6.08785 4.42308 2
      vertex -4.87433 3.54141 2
      vertex -5.48549 5.15122 2
    endloop
  endfacet
  facet normal 0 0 1
    outer loop
      vertex -6.08785 4.42308 2
      vertex -5.27975 2.90257 2
      vertex -4.87433 3.54141 2
    endloop
  endfacet
  facet normal 0 0 -1
    outer loop
      vertex -6.59421 -3.6252 0
      vertex -4.03101 -2.21607 0
      vertex -6.08785 -4.42308 0
    endloop
  endfacet
  facet normal -0 0 -1
    outer loop
      vertex -6.59421 -3.6252 0
      vertex -4.27697 -1.69337 0
      vertex -4.03101 -2.21607 0
    endloop
  endfacet
  facet normal -0.844328 -0.535827 0
    outer loop
      vertex -6.59421 -3.6252 0
      vertex -6.08785 -4.42308 0
      vertex -6.59421 -3.6252 2
    endloop
  endfacet
  facet normal 0 0 1
    outer loop
      vertex -6.59421 -3.6252 2
      vertex -5.27975 -2.90257 2
      vertex -5.6019 -2.21795 2
    endloop
  endfacet
  facet normal -0.844328 -0.535827 0
    outer loop
      vertex -6.59421 -3.6252 2
      vertex -6.08785 -4.42308 0
      vertex -6.08785 -4.42308 2
    endloop
  endfacet
  facet normal 0 0 1
    outer loop
      vertex -6.59421 -3.6252 2
      vertex -6.08785 -4.42308 2
      vertex -5.27975 -2.90257 2
    endloop
  endfacet
  facet normal 0 0 -1
    outer loop
      vertex -6.59421 3.6252 0
      vertex -4.03101 2.21607 0
      vertex -4.27697 1.69337 0
    endloop
  endfacet
  facet normal 0 0 -1
    outer loop
      vertex -6.59421 3.6252 0
      vertex -6.08785 4.42308 0
      vertex -4.03101 2.21607 0
    endloop
  endfacet
  facet normal -0.844328 0.535827 0
    outer loop
      vertex -6.59421 3.6252 0
      vertex -6.08785 4.42308 2
      vertex -6.08785 4.42308 0
    endloop
  endfacet
  facet normal -0.844328 0.535827 0
    outer loop
      vertex -6.59421 3.6252 0
      vertex -6.59421 3.6252 2
      vertex -6.08785 4.42308 2
    endloop
  endfacet
  facet normal -0 0 1
    outer loop
      vertex -6.59421 3.6252 2
      vertex -5.27975 2.90257 2
      vertex -6.08785 4.42308 2
    endloop
  endfacet
  facet normal 0 0 1
    outer loop
      vertex -6.59421 3.6252 2
      vertex -5.6019 2.21795 2
      vertex -5.27975 2.90257 2
    endloop
  endfacet
  facet normal 0 0 -1
    outer loop
      vertex -6.99657 -2.77014 0
      vertex -4.27697 -1.69337 0
      vertex -6.59421 -3.6252 0
    endloop
  endfacet
  facet normal -0 0 -1
    outer loop
      vertex -6.99657 -2.77014 0
      vertex -4.45548 -1.14397 0
      vertex -4.27697 -1.69337 0
    endloop
  endfacet
  facet normal -0.904827 -0.425779 0
    outer loop
      vertex -6.99657 -2.77014 0
      vertex -6.59421 -3.6252 0
      vertex -6.99657 -2.77014 2
    endloop
  endfacet
  facet normal 0 0 1
    outer loop
      vertex -6.99657 -2.77014 2
      vertex -5.6019 -2.21795 2
      vertex -5.83571 -1.49836 2
    endloop
  endfacet
  facet normal -0.904827 -0.425779 0
    outer loop
      vertex -6.99657 -2.77014 2
      vertex -6.59421 -3.6252 0
      vertex -6.59421 -3.6252 2
    endloop
  endfacet
  facet normal 0 0 1
    outer loop
      vertex -6.99657 -2.77014 2
      vertex -6.59421 -3.6252 2
      vertex -5.6019 -2.21795 2
    endloop
  endfacet
  facet normal 0 0 -1
    outer loop
      vertex -6.99657 2.77014 0
      vertex -4.27697 1.69337 0
      vertex -4.45548 1.14397 0
    endloop
  endfacet
  facet normal 0 0 -1
    outer loop
      vertex -6.99657 2.77014 0
      vertex -6.59421 3.6252 0
      vertex -4.27697 1.69337 0
    endloop
  endfacet
  facet normal -0.904827 0.425779 0
    outer loop
      vertex -6.99657 2.77014 0
      vertex -6.59421 3.6252 2
      vertex -6.59421 3.6252 0
    endloop
  endfacet
  facet normal -0.904827 0.425779 0
    outer loop
      vertex -6.99657 2.77014 0
      vertex -6.99657 2.77014 2
      vertex -6.59421 3.6252 2
    endloop
  endfacet
  facet normal -0 0 1
    outer loop
      vertex -6.99657 2.77014 2
      vertex -5.6019 2.21795 2
      vertex -6.59421 3.6252 2
    endloop
  endfacet
  facet normal 0 0 1
    outer loop
      vertex -6.99657 2.77014 2
      vertex -5.83571 1.49836 2
      vertex -5.6019 2.21795 2
    endloop
  endfacet
  facet normal 0 0 -1
    outer loop
      vertex -7.28859 -1.87139 0
      vertex -4.45548 -1.14397 0
      vertex -6.99657 -2.77014 0
    endloop
  endfacet
  facet normal -0 0 -1
    outer loop
      vertex -7.28859 -1.87139 0
      vertex -4.56373 -0.576532 0
      vertex -4.45548 -1.14397 0
    endloop
  endfacet
  facet normal -0.951057 -0.309017 0
    outer loop
      vertex -7.28859 -1.87139 0
      vertex -6.99657 -2.77014 0
      vertex -7.28859 -1.87139 2
    endloop
  endfacet
  facet normal 0 0 1
    outer loop
      vertex -7.28859 -1.87139 2
      vertex -5.83571 -1.49836 2
      vertex -5.97749 -0.755133 2
    endloop
  endfacet
  facet normal -0.951057 -0.309017 0
    outer loop
      vertex -7.28859 -1.87139 2
      vertex -6.99657 -2.77014 0
      vertex -6.99657 -2.77014 2
    endloop
  endfacet
  facet normal 0 0 1
    outer loop
      vertex -7.28859 -1.87139 2
      vertex -6.99657 -2.77014 2
      vertex -5.83571 -1.49836 2
    endloop
  endfacet
  facet normal 0 0 -1
    outer loop
      vertex -7.28859 1.87139 0
      vertex -4.45548 1.14397 0
      vertex -4.56373 0.576532 0
    endloop
  endfacet
  facet normal 0 0 -1
    outer loop
      vertex -7.28859 1.87139 0
      vertex -6.99657 2.77014 0
      vertex -4.45548 1.14397 0
    endloop
  endfacet
  facet normal -0.951057 0.309017 0
    outer loop
      vertex -7.28859 1.87139 0
      vertex -6.99657 2.77014 2
      vertex -6.99657 2.77014 0
    endloop
  endfacet
  facet normal -0.951057 0.309017 0
    outer loop
      vertex -7.28859 1.87139 0
      vertex -7.28859 1.87139 2
      vertex -6.99657 2.77014 2
    endloop
  endfacet
  facet normal -0 0 1
    outer loop
      vertex -7.28859 1.87139 2
      vertex -5.83571 1.49836 2
      vertex -6.99657 2.77014 2
    endloop
  endfacet
  facet normal 0 0 1
    outer loop
      vertex -7.28859 1.87139 2
      vertex -5.97749 0.755133 2
      vertex -5.83571 1.49836 2
    endloop
  endfacet
  facet normal 0 0 -1
    outer loop
      vertex -7.46566 -0.943132 0
      vertex -4.56373 -0.576532 0
      vertex -7.28859 -1.87139 0
    endloop
  endfacet
  facet normal -0 0 -1
    outer loop
      vertex -7.46566 -0.943132 0
      vertex -4.6 0 0
      vertex -4.56373 -0.576532 0
    endloop
  endfacet
  facet normal -0.982287 -0.187382 0
    outer loop
      vertex -7.46566 -0.943132 0
      vertex -7.28859 -1.87139 0
      vertex -7.46566 -0.943132 2
    endloop
  endfacet
  facet normal 0 0 1
    outer loop
      vertex -7.46566 -0.943132 2
      vertex -5.97749 -0.755133 2
      vertex -6.025 0 2
    endloop
  endfacet
  facet normal -0.982287 -0.187382 0
    outer loop
      vertex -7.46566 -0.943132 2
      vertex -7.28859 -1.87139 0
      vertex -7.28859 -1.87139 2
    endloop
  endfacet
  facet normal 0 0 1
    outer loop
      vertex -7.46566 -0.943132 2
      vertex -7.28859 -1.87139 2
      vertex -5.97749 -0.755133 2
    endloop
  endfacet
  facet normal 0 0 -1
    outer loop
      vertex -7.46566 0.943132 0
      vertex -4.56373 0.576532 0
      vertex -4.6 0 0
    endloop
  endfacet
  facet normal 0 0 -1
    outer loop
      vertex -7.46566 0.943132 0
      vertex -7.28859 1.87139 0
      vertex -4.56373 0.576532 0
    endloop
  endfacet
  facet normal -0.982287 0.187382 0
    outer loop
      vertex -7.46566 0.943132 0
      vertex -7.28859 1.87139 2
      vertex -7.28859 1.87139 0
    endloop
  endfacet
  facet normal -0.982287 0.187382 0
    outer loop
      vertex -7.46566 0.943132 0
      vertex -7.46566 0.943132 2
      vertex -7.28859 1.87139 2
    endloop
  endfacet
  facet normal -0 0 1
    outer loop
      vertex -7.46566 0.943132 2
      vertex -5.97749 0.755133 2
      vertex -7.28859 1.87139 2
    endloop
  endfacet
  facet normal 0 0 1
    outer loop
      vertex -7.46566 0.943132 2
      vertex -6.025 0 2
      vertex -5.97749 0.755133 2
    endloop
  endfacet
  facet normal 0 0 -1
    outer loop
      vertex -7.525 0 0
      vertex -4.6 0 0
      vertex -7.46566 -0.943132 0
    endloop
  endfacet
  facet normal -0.998027 -0.0627903 0
    outer loop
      vertex -7.525 0 0
      vertex -7.46566 -0.943132 0
      vertex -7.525 0 2
    endloop
  endfacet
  facet normal 0 0 -1
    outer loop
      vertex -7.525 0 0
      vertex -7.46566 0.943132 0
      vertex -4.6 0 0
    endloop
  endfacet
  facet normal -0.998027 0.0627903 0
    outer loop
      vertex -7.525 0 0
      vertex -7.46566 0.943132 2
      vertex -7.46566 0.943132 0
    endloop
  endfacet
  facet normal -0.998027 0.0627903 0
    outer loop
      vertex -7.525 0 0
      vertex -7.525 0 2
      vertex -7.46566 0.943132 2
    endloop
  endfacet
  facet normal 0 0 1
    outer loop
      vertex -7.525 0 2
      vertex -6.025 0 2
      vertex -7.46566 0.943132 2
    endloop
  endfacet
  facet normal -0.998027 -0.0627903 0
    outer loop
      vertex -7.525 0 2
      vertex -7.46566 -0.943132 0
      vertex -7.46566 -0.943132 2
    endloop
  endfacet
  facet normal 0 0 1
    outer loop
      vertex -7.525 0 2
      vertex -7.46566 -0.943132 2
      vertex -6.025 0 2
    endloop
  endfacet
  facet normal -0.125332 0.992115 0
    outer loop
      vertex 0.288836 -4.59092 0
      vertex 0.288836 -4.59092 7.05
      vertex 0.861954 -4.51852 0
    endloop
  endfacet
  facet normal 0 0 -1
    outer loop
      vertex 0.288836 -4.59092 0
      vertex 0.861954 -4.51852 0
      vertex 0.472498 -7.51015 0
    endloop
  endfacet
  facet normal -0 0 1
    outer loop
      vertex 0.288836 -4.59092 7.05
      vertex 0.378312 -6.01311 7.05
      vertex 0.861954 -4.51852 7.05
    endloop
  endfacet
  facet normal -0.125332 0.992115 0
    outer loop
      vertex 0.288836 -4.59092 7.05
      vertex 0.861954 -4.51852 7.05
      vertex 0.861954 -4.51852 0
    endloop
  endfacet
  facet normal 0 0 -1
    outer loop
      vertex 0.288836 4.59092 0
      vertex 0.472498 7.51015 0
      vertex 0.861954 4.51852 0
    endloop
  endfacet
  facet normal -0.125332 -0.992115 -0
    outer loop
      vertex 0.288836 4.59092 0
      vertex 0.861954 4.51852 0
      vertex 0.861954 4.51852 7.05
    endloop
  endfacet
  facet normal -0.125332 -0.992115 0
    outer loop
      vertex 0.288836 4.59092 0
      vertex 0.861954 4.51852 7.05
      vertex 0.288836 4.59092 7.05
    endloop
  endfacet
  facet normal 0 0 1
    outer loop
      vertex 0.288836 4.59092 7.05
      vertex 0.861954 4.51852 7.05
      vertex 0.378312 6.01311 7.05
    endloop
  endfacet
  facet normal -0 0 1
    outer loop
      vertex 0.378312 -6.01311 2
      vertex 0.472498 -7.51015 2
      vertex 1.12897 -5.91828 2
    endloop
  endfacet
  facet normal 0.125332 -0.992115 0
    outer loop
      vertex 0.378312 -6.01311 2
      vertex 1.12897 -5.91828 2
      vertex 1.12897 -5.91828 7.05
    endloop
  endfacet
  facet normal 0.125332 -0.992115 0
    outer loop
      vertex 0.378312 -6.01311 2
      vertex 1.12897 -5.91828 7.05
      vertex 0.378312 -6.01311 7.05
    endloop
  endfacet
  facet normal 0 0 1
    outer loop
      vertex 0.378312 -6.01311 7.05
      vertex 1.12897 -5.91828 7.05
      vertex 0.861954 -4.51852 7.05
    endloop
  endfacet
  facet normal 0.125332 0.992115 0
    outer loop
      vertex 0.378312 6.01311 2
      vertex 0.378312 6.01311 7.05
      vertex 1.12897 5.91828 2
    endloop
  endfacet
  facet normal 0 0 1
    outer loop
      vertex 0.378312 6.01311 2
      vertex 1.12897 5.91828 2
      vertex 0.472498 7.51015 2
    endloop
  endfacet
  facet normal 0 0 1
    outer loop
      vertex 0.378312 6.01311 7.05
      vertex 0.861954 4.51852 7.05
      vertex 1.12897 5.91828 7.05
    endloop
  endfacet
  facet normal 0.125332 0.992115 -0
    outer loop
      vertex 0.378312 6.01311 7.05
      vertex 1.12897 5.91828 7.05
      vertex 1.12897 5.91828 2
    endloop
  endfacet
  facet normal 0 0 -1
    outer loop
      vertex 0.472498 -7.51015 0
      vertex 0.861954 -4.51852 0
      vertex 1.41004 -7.39171 0
    endloop
  endfacet
  facet normal 0.125333 -0.992115 0
    outer loop
      vertex 0.472498 -7.51015 0
      vertex 1.41004 -7.39171 0
      vertex 1.41004 -7.39171 2
    endloop
  endfacet
  facet normal 0.125333 -0.992115 0
    outer loop
      vertex 0.472498 -7.51015 0
      vertex 1.41004 -7.39171 2
      vertex 0.472498 -7.51015 2
    endloop
  endfacet
  facet normal 0 0 1
    outer loop
      vertex 0.472498 -7.51015 2
      vertex 1.41004 -7.39171 2
      vertex 1.12897 -5.91828 2
    endloop
  endfacet
  facet normal 0.125333 0.992115 0
    outer loop
      vertex 0.472498 7.51015 0
      vertex 0.472498 7.51015 2
      vertex 1.41004 7.39171 0
    endloop
  endfacet
  facet normal 0 0 -1
    outer loop
      vertex 0.472498 7.51015 0
      vertex 1.41004 7.39171 0
      vertex 0.861954 4.51852 0
    endloop
  endfacet
  facet normal 0 0 1
    outer loop
      vertex 0.472498 7.51015 2
      vertex 1.12897 5.91828 2
      vertex 1.41004 7.39171 2
    endloop
  endfacet
  facet normal 0.125333 0.992115 -0
    outer loop
      vertex 0.472498 7.51015 2
      vertex 1.41004 7.39171 2
      vertex 1.41004 7.39171 0
    endloop
  endfacet
  facet normal -0.24869 0.968583 0
    outer loop
      vertex 0.861954 -4.51852 0
      vertex 0.861954 -4.51852 7.05
      vertex 1.42148 -4.37486 0
    endloop
  endfacet
  facet normal 0 0 -1
    outer loop
      vertex 0.861954 -4.51852 0
      vertex 1.42148 -4.37486 0
      vertex 1.41004 -7.39171 0
    endloop
  endfacet
  facet normal -0 0 1
    outer loop
      vertex 0.861954 -4.51852 7.05
      vertex 1.12897 -5.91828 7.05
      vertex 1.42148 -4.37486 7.05
    endloop
  endfacet
  facet normal -0.24869 0.968583 0
    outer loop
      vertex 0.861954 -4.51852 7.05
      vertex 1.42148 -4.37486 7.05
      vertex 1.42148 -4.37486 0
    endloop
  endfacet
  facet normal 0 0 -1
    outer loop
      vertex 0.861954 4.51852 0
      vertex 1.41004 7.39171 0
      vertex 1.42148 4.37486 0
    endloop
  endfacet
  facet normal -0.24869 -0.968583 -0
    outer loop
      vertex 0.861954 4.51852 0
      vertex 1.42148 4.37486 0
      vertex 1.42148 4.37486 7.05
    endloop
  endfacet
  facet normal -0.24869 -0.968583 0
    outer loop
      vertex 0.861954 4.51852 0
      vertex 1.42148 4.37486 7.05
      vertex 0.861954 4.51852 7.05
    endloop
  endfacet
  facet normal 0 0 1
    outer loop
      vertex 0.861954 4.51852 7.05
      vertex 1.42148 4.37486 7.05
      vertex 1.12897 5.91828 7.05
    endloop
  endfacet
  facet normal -0 0 1
    outer loop
      vertex 1.12897 -5.91828 2
      vertex 1.41004 -7.39171 2
      vertex 1.86183 -5.73011 2
    endloop
  endfacet
  facet normal 0.248691 -0.968583 0
    outer loop
      vertex 1.12897 -5.91828 2
      vertex 1.86183 -5.73011 2
      vertex 1.86183 -5.73011 7.05
    endloop
  endfacet
  facet normal 0.248691 -0.968583 0
    outer loop
      vertex 1.12897 -5.91828 2
      vertex 1.86183 -5.73011 7.05
      vertex 1.12897 -5.91828 7.05
    endloop
  endfacet
  facet normal 0 0 1
    outer loop
      vertex 1.12897 -5.91828 7.05
      vertex 1.86183 -5.73011 7.05
      vertex 1.42148 -4.37486 7.05
    endloop
  endfacet
  facet normal 0.248691 0.968583 0
    outer loop
      vertex 1.12897 5.91828 2
      vertex 1.12897 5.91828 7.05
      vertex 1.86183 5.73011 2
    endloop
  endfacet
  facet normal 0 0 1
    outer loop
      vertex 1.12897 5.91828 2
      vertex 1.86183 5.73011 2
      vertex 1.41004 7.39171 2
    endloop
  endfacet
  facet normal 0 0 1
    outer loop
      vertex 1.12897 5.91828 7.05
      vertex 1.42148 4.37486 7.05
      vertex 1.86183 5.73011 7.05
    endloop
  endfacet
  facet normal 0.248691 0.968583 -0
    outer loop
      vertex 1.12897 5.91828 7.05
      vertex 1.86183 5.73011 7.05
      vertex 1.86183 5.73011 2
    endloop
  endfacet
  facet normal 0 0 -1
    outer loop
      vertex 1.41004 -7.39171 0
      vertex 1.42148 -4.37486 0
      vertex 2.32535 -7.1567 0
    endloop
  endfacet
  facet normal 0.24869 -0.968583 0
    outer loop
      vertex 1.41004 -7.39171 0
      vertex 2.32535 -7.1567 0
      vertex 2.32535 -7.1567 2
    endloop
  endfacet
  facet normal 0.24869 -0.968583 0
    outer loop
      vertex 1.41004 -7.39171 0
      vertex 2.32535 -7.1567 2
      vertex 1.41004 -7.39171 2
    endloop
  endfacet
  facet normal 0 0 1
    outer loop
      vertex 1.41004 -7.39171 2
      vertex 2.32535 -7.1567 2
      vertex 1.86183 -5.73011 2
    endloop
  endfacet
  facet normal 0.24869 0.968583 0
    outer loop
      vertex 1.41004 7.39171 0
      vertex 1.41004 7.39171 2
      vertex 2.32535 7.1567 0
    endloop
  endfacet
  facet normal 0 0 -1
    outer loop
      vertex 1.41004 7.39171 0
      vertex 2.32535 7.1567 0
      vertex 1.42148 4.37486 0
    endloop
  endfacet
  facet normal 0 0 1
    outer loop
      vertex 1.41004 7.39171 2
      vertex 1.86183 5.73011 2
      vertex 2.32535 7.1567 2
    endloop
  endfacet
  facet normal 0.24869 0.968583 -0
    outer loop
      vertex 1.41004 7.39171 2
      vertex 2.32535 7.1567 2
      vertex 2.32535 7.1567 0
    endloop
  endfacet
  facet normal -0.368125 0.929776 0
    outer loop
      vertex 1.42148 -4.37486 0
      vertex 1.42148 -4.37486 7.05
      vertex 1.95858 -4.1622 0
    endloop
  endfacet
  facet normal 0 0 -1
    outer loop
      vertex 1.42148 -4.37486 0
      vertex 1.95858 -4.1622 0
      vertex 2.32535 -7.1567 0
    endloop
  endfacet
  facet normal -0 0 1
    outer loop
      vertex 1.42148 -4.37486 7.05
      vertex 1.86183 -5.73011 7.05
      vertex 1.95858 -4.1622 7.05
    endloop
  endfacet
  facet normal -0.368125 0.929776 0
    outer loop
      vertex 1.42148 -4.37486 7.05
      vertex 1.95858 -4.1622 7.05
      vertex 1.95858 -4.1622 0
    endloop
  endfacet
  facet normal -0.368125 -0.929776 -0
    outer loop
      vertex 1.42148 4.37486 0
      vertex 1.95858 4.1622 0
      vertex 1.95858 4.1622 7.05
    endloop
  endfacet
  facet normal -0.368125 -0.929776 0
    outer loop
      vertex 1.42148 4.37486 0
      vertex 1.95858 4.1622 7.05
      vertex 1.42148 4.37486 7.05
    endloop
  endfacet
  facet normal 0 0 -1
    outer loop
      vertex 1.42148 4.37486 0
      vertex 2.32535 7.1567 0
      vertex 1.95858 4.1622 0
    endloop
  endfacet
  facet normal 0 0 1
    outer loop
      vertex 1.42148 4.37486 7.05
      vertex 1.95858 4.1622 7.05
      vertex 1.86183 5.73011 7.05
    endloop
  endfacet
  facet normal -0 0 1
    outer loop
      vertex 1.86183 -5.73011 2
      vertex 2.32535 -7.1567 2
      vertex 2.56532 -5.45158 2
    endloop
  endfacet
  facet normal 0.368124 -0.929777 0
    outer loop
      vertex 1.86183 -5.73011 2
      vertex 2.56532 -5.45158 2
      vertex 2.56532 -5.45158 7.05
    endloop
  endfacet
  facet normal 0.368124 -0.929777 0
    outer loop
      vertex 1.86183 -5.73011 2
      vertex 2.56532 -5.45158 7.05
      vertex 1.86183 -5.73011 7.05
    endloop
  endfacet
  facet normal 0 0 1
    outer loop
      vertex 1.86183 -5.73011 7.05
      vertex 2.56532 -5.45158 7.05
      vertex 1.95858 -4.1622 7.05
    endloop
  endfacet
  facet normal 0.368124 0.929777 0
    outer loop
      vertex 1.86183 5.73011 2
      vertex 1.86183 5.73011 7.05
      vertex 2.56532 5.45158 2
    endloop
  endfacet
  facet normal 0 0 1
    outer loop
      vertex 1.86183 5.73011 2
      vertex 2.56532 5.45158 2
      vertex 2.32535 7.1567 2
    endloop
  endfacet
  facet normal 0 0 1
    outer loop
      vertex 1.86183 5.73011 7.05
      vertex 1.95858 4.1622 7.05
      vertex 2.56532 5.45158 7.05
    endloop
  endfacet
  facet normal 0.368124 0.929777 -0
    outer loop
      vertex 1.86183 5.73011 7.05
      vertex 2.56532 5.45158 7.05
      vertex 2.56532 5.45158 2
    endloop
  endfacet
  facet normal -0.481753 0.876307 0
    outer loop
      vertex 1.95858 -4.1622 0
      vertex 1.95858 -4.1622 7.05
      vertex 2.4648 -3.88391 0
    endloop
  endfacet
  facet normal 0 0 -1
    outer loop
      vertex 1.95858 -4.1622 0
      vertex 2.4648 -3.88391 0
      vertex 3.20399 -6.80882 0
    endloop
  endfacet
  facet normal 0 0 -1
    outer loop
      vertex 1.95858 -4.1622 0
      vertex 3.20399 -6.80882 0
      vertex 2.32535 -7.1567 0
    endloop
  endfacet
  facet normal -0.481753 0.876307 0
    outer loop
      vertex 1.95858 -4.1622 7.05
      vertex 2.4648 -3.88391 7.05
      vertex 2.4648 -3.88391 0
    endloop
  endfacet
  facet normal -0 0 1
    outer loop
      vertex 1.95858 -4.1622 7.05
      vertex 2.56532 -5.45158 7.05
      vertex 2.4648 -3.88391 7.05
    endloop
  endfacet
  facet normal -0 0 -1
    outer loop
      vertex 1.95858 4.1622 0
      vertex 2.32535 7.1567 0
      vertex 3.20399 6.80882 0
    endloop
  endfacet
  facet normal -0.481753 -0.876307 -0
    outer loop
      vertex 1.95858 4.1622 0
      vertex 2.4648 3.88391 0
      vertex 2.4648 3.88391 7.05
    endloop
  endfacet
  facet normal -0.481753 -0.876307 0
    outer loop
      vertex 1.95858 4.1622 0
      vertex 2.4648 3.88391 7.05
      vertex 1.95858 4.1622 7.05
    endloop
  endfacet
  facet normal 0 0 -1
    outer loop
      vertex 1.95858 4.1622 0
      vertex 3.20399 6.80882 0
      vertex 2.4648 3.88391 0
    endloop
  endfacet
  facet normal 0 0 1
    outer loop
      vertex 1.95858 4.1622 7.05
      vertex 2.4648 3.88391 7.05
      vertex 2.56532 5.45158 7.05
    endloop
  endfacet
  facet normal 0.368125 -0.929776 0
    outer loop
      vertex 2.32535 -7.1567 0
      vertex 3.20399 -6.80882 0
      vertex 3.20399 -6.80882 2
    endloop
  endfacet
  facet normal 0.368125 -0.929776 0
    outer loop
      vertex 2.32535 -7.1567 0
      vertex 3.20399 -6.80882 2
      vertex 2.32535 -7.1567 2
    endloop
  endfacet
  facet normal 0 0 1
    outer loop
      vertex 2.32535 -7.1567 2
      vertex 3.20399 -6.80882 2
      vertex 2.56532 -5.45158 2
    endloop
  endfacet
  facet normal 0.368125 0.929776 0
    outer loop
      vertex 2.32535 7.1567 0
      vertex 2.32535 7.1567 2
      vertex 3.20399 6.80882 0
    endloop
  endfacet
  facet normal 0 0 1
    outer loop
      vertex 2.32535 7.1567 2
      vertex 2.56532 5.45158 2
      vertex 3.20399 6.80882 2
    endloop
  endfacet
  facet normal 0.368125 0.929776 -0
    outer loop
      vertex 2.32535 7.1567 2
      vertex 3.20399 6.80882 2
      vertex 3.20399 6.80882 0
    endloop
  endfacet
  facet normal -0.587786 0.809017 0
    outer loop
      vertex 2.4648 -3.88391 0
      vertex 2.4648 -3.88391 7.05
      vertex 2.93215 -3.54436 0
    endloop
  endfacet
  facet normal 0 0 -1
    outer loop
      vertex 2.4648 -3.88391 0
      vertex 2.93215 -3.54436 0
      vertex 4.0321 -6.35357 0
    endloop
  endfacet
  facet normal 0 0 -1
    outer loop
      vertex 2.4648 -3.88391 0
      vertex 4.0321 -6.35357 0
      vertex 3.20399 -6.80882 0
    endloop
  endfacet
  facet normal 0 0 1
    outer loop
      vertex 2.4648 -3.88391 7.05
      vertex 2.56532 -5.45158 7.05
      vertex 3.22836 -5.08708 7.05
    endloop
  endfacet
  facet normal -0.587786 0.809017 0
    outer loop
      vertex 2.4648 -3.88391 7.05
      vertex 2.93215 -3.54436 7.05
      vertex 2.93215 -3.54436 0
    endloop
  endfacet
  facet normal -0 0 1
    outer loop
      vertex 2.4648 -3.88391 7.05
      vertex 3.22836 -5.08708 7.05
      vertex 2.93215 -3.54436 7.05
    endloop
  endfacet
  facet normal -0.587786 -0.809017 -0
    outer loop
      vertex 2.4648 3.88391 0
      vertex 2.93215 3.54436 0
      vertex 2.93215 3.54436 7.05
    endloop
  endfacet
  facet normal -0.587786 -0.809017 0
    outer loop
      vertex 2.4648 3.88391 0
      vertex 2.93215 3.54436 7.05
      vertex 2.4648 3.88391 7.05
    endloop
  endfacet
  facet normal -0 0 -1
    outer loop
      vertex 2.4648 3.88391 0
      vertex 3.20399 6.80882 0
      vertex 4.0321 6.35357 0
    endloop
  endfacet
  facet normal 0 0 -1
    outer loop
      vertex 2.4648 3.88391 0
      vertex 4.0321 6.35357 0
      vertex 2.93215 3.54436 0
    endloop
  endfacet
  facet normal 0 0 1
    outer loop
      vertex 2.4648 3.88391 7.05
      vertex 2.93215 3.54436 7.05
      vertex 3.22836 5.08708 7.05
    endloop
  endfacet
  facet normal 0 0 1
    outer loop
      vertex 2.4648 3.88391 7.05
      vertex 3.22836 5.08708 7.05
      vertex 2.56532 5.45158 7.05
    endloop
  endfacet
  facet normal -0 0 1
    outer loop
      vertex 2.56532 -5.45158 2
      vertex 3.20399 -6.80882 2
      vertex 3.22836 -5.08708 2
    endloop
  endfacet
  facet normal 0.481754 -0.876306 0
    outer loop
      vertex 2.56532 -5.45158 2
      vertex 3.22836 -5.08708 2
      vertex 3.22836 -5.08708 7.05
    endloop
  endfacet
  facet normal 0.481754 -0.876306 0
    outer loop
      vertex 2.56532 -5.45158 2
      vertex 3.22836 -5.08708 7.05
      vertex 2.56532 -5.45158 7.05
    endloop
  endfacet
  facet normal 0.481754 0.876306 0
    outer loop
      vertex 2.56532 5.45158 2
      vertex 2.56532 5.45158 7.05
      vertex 3.22836 5.08708 2
    endloop
  endfacet
  facet normal 0 0 1
    outer loop
      vertex 2.56532 5.45158 2
      vertex 3.22836 5.08708 2
      vertex 3.20399 6.80882 2
    endloop
  endfacet
  facet normal 0.481754 0.876306 -0
    outer loop
      vertex 2.56532 5.45158 7.05
      vertex 3.22836 5.08708 7.05
      vertex 3.22836 5.08708 2
    endloop
  endfacet
  facet normal -0.684547 0.728969 0
    outer loop
      vertex 2.93215 -3.54436 0
      vertex 2.93215 -3.54436 7.05
      vertex 3.35326 -3.14892 0
    endloop
  endfacet
  facet normal 0 0 -1
    outer loop
      vertex 2.93215 -3.54436 0
      vertex 3.35326 -3.14892 0
      vertex 4.79661 -5.79811 0
    endloop
  endfacet
  facet normal 0 0 -1
    outer loop
      vertex 2.93215 -3.54436 0
      vertex 4.79661 -5.79811 0
      vertex 4.0321 -6.35357 0
    endloop
  endfacet
  facet normal 0 0 1
    outer loop
      vertex 2.93215 -3.54436 7.05
      vertex 3.22836 -5.08708 7.05
      vertex 3.84048 -4.64234 7.05
    endloop
  endfacet
  facet normal -0.684547 0.728969 0
    outer loop
      vertex 2.93215 -3.54436 7.05
      vertex 3.35326 -3.14892 7.05
      vertex 3.35326 -3.14892 0
    endloop
  endfacet
  facet normal -0 0 1
    outer loop
      vertex 2.93215 -3.54436 7.05
      vertex 3.84048 -4.64234 7.05
      vertex 3.35326 -3.14892 7.05
    endloop
  endfacet
  facet normal -0.684547 -0.728969 -0
    outer loop
      vertex 2.93215 3.54436 0
      vertex 3.35326 3.14892 0
      vertex 3.35326 3.14892 7.05
    endloop
  endfacet
  facet normal -0.684547 -0.728969 0
    outer loop
      vertex 2.93215 3.54436 0
      vertex 3.35326 3.14892 7.05
      vertex 2.93215 3.54436 7.05
    endloop
  endfacet
  facet normal -0 0 -1
    outer loop
      vertex 2.93215 3.54436 0
      vertex 4.0321 6.35357 0
      vertex 4.79661 5.79811 0
    endloop
  endfacet
  facet normal 0 0 -1
    outer loop
      vertex 2.93215 3.54436 0
      vertex 4.79661 5.79811 0
      vertex 3.35326 3.14892 0
    endloop
  endfacet
  facet normal 0 0 1
    outer loop
      vertex 2.93215 3.54436 7.05
      vertex 3.35326 3.14892 7.05
      vertex 3.84048 4.64234 7.05
    endloop
  endfacet
  facet normal 0 0 1
    outer loop
      vertex 2.93215 3.54436 7.05
      vertex 3.84048 4.64234 7.05
      vertex 3.22836 5.08708 7.05
    endloop
  endfacet
  facet normal 0.481754 -0.876307 0
    outer loop
      vertex 3.20399 -6.80882 0
      vertex 4.0321 -6.35357 0
      vertex 4.0321 -6.35357 2
    endloop
  endfacet
  facet normal 0.481754 -0.876307 0
    outer loop
      vertex 3.20399 -6.80882 0
      vertex 4.0321 -6.35357 2
      vertex 3.20399 -6.80882 2
    endloop
  endfacet
  facet normal 0 0 1
    outer loop
      vertex 3.20399 -6.80882 2
      vertex 4.0321 -6.35357 2
      vertex 3.22836 -5.08708 2
    endloop
  endfacet
  facet normal 0.481754 0.876307 0
    outer loop
      vertex 3.20399 6.80882 0
      vertex 3.20399 6.80882 2
      vertex 4.0321 6.35357 0
    endloop
  endfacet
  facet normal 0 0 1
    outer loop
      vertex 3.20399 6.80882 2
      vertex 3.22836 5.08708 2
      vertex 4.0321 6.35357 2
    endloop
  endfacet
  facet normal 0.481754 0.876307 -0
    outer loop
      vertex 3.20399 6.80882 2
      vertex 4.0321 6.35357 2
      vertex 4.0321 6.35357 0
    endloop
  endfacet
  facet normal 0.587786 -0.809017 0
    outer loop
      vertex 3.22836 -5.08708 2
      vertex 3.84048 -4.64234 2
      vertex 3.84048 -4.64234 7.05
    endloop
  endfacet
  facet normal 0.587786 -0.809017 0
    outer loop
      vertex 3.22836 -5.08708 2
      vertex 3.84048 -4.64234 7.05
      vertex 3.22836 -5.08708 7.05
    endloop
  endfacet
  facet normal -0 0 1
    outer loop
      vertex 3.22836 -5.08708 2
      vertex 4.0321 -6.35357 2
      vertex 3.84048 -4.64234 2
    endloop
  endfacet
  facet normal 0.587786 0.809017 0
    outer loop
      vertex 3.22836 5.08708 2
      vertex 3.22836 5.08708 7.05
      vertex 3.84048 4.64234 2
    endloop
  endfacet
  facet normal 0 0 1
    outer loop
      vertex 3.22836 5.08708 2
      vertex 3.84048 4.64234 2
      vertex 4.0321 6.35357 2
    endloop
  endfacet
  facet normal 0.587786 0.809017 -0
    outer loop
      vertex 3.22836 5.08708 7.05
      vertex 3.84048 4.64234 7.05
      vertex 3.84048 4.64234 2
    endloop
  endfacet
  facet normal -0.770514 0.637424 0
    outer loop
      vertex 3.35326 -3.14892 0
      vertex 3.35326 -3.14892 7.05
      vertex 3.72148 -2.70381 7.05
    endloop
  endfacet
  facet normal 0 0 -1
    outer loop
      vertex 3.35326 -3.14892 0
      vertex 3.72148 -2.70381 0
      vertex 5.48549 -5.15122 0
    endloop
  endfacet
  facet normal -0.770514 0.637424 0
    outer loop
      vertex 3.35326 -3.14892 0
      vertex 3.72148 -2.70381 7.05
      vertex 3.72148 -2.70381 0
    endloop
  endfacet
  facet normal 0 0 -1
    outer loop
      vertex 3.35326 -3.14892 0
      vertex 5.48549 -5.15122 0
      vertex 4.79661 -5.79811 0
    endloop
  endfacet
  facet normal 0 0 1
    outer loop
      vertex 3.35326 -3.14892 7.05
      vertex 3.84048 -4.64234 7.05
      vertex 4.39204 -4.1244 7.05
    endloop
  endfacet
  facet normal -0 0 1
    outer loop
      vertex 3.35326 -3.14892 7.05
      vertex 4.39204 -4.1244 7.05
      vertex 3.72148 -2.70381 7.05
    endloop
  endfacet
  facet normal -0.770514 -0.637424 0
    outer loop
      vertex 3.35326 3.14892 0
      vertex 3.72148 2.70381 0
      vertex 3.35326 3.14892 7.05
    endloop
  endfacet
  facet normal -0 0 -1
    outer loop
      vertex 3.35326 3.14892 0
      vertex 4.79661 5.79811 0
      vertex 5.48549 5.15122 0
    endloop
  endfacet
  facet normal 0 0 -1
    outer loop
      vertex 3.35326 3.14892 0
      vertex 5.48549 5.15122 0
      vertex 3.72148 2.70381 0
    endloop
  endfacet
  facet normal -0.770514 -0.637424 0
    outer loop
      vertex 3.35326 3.14892 7.05
      vertex 3.72148 2.70381 0
      vertex 3.72148 2.70381 7.05
    endloop
  endfacet
  facet normal 0 0 1
    outer loop
      vertex 3.35326 3.14892 7.05
      vertex 3.72148 2.70381 7.05
      vertex 4.39204 4.1244 7.05
    endloop
  endfacet
  facet normal 0 0 1
    outer loop
      vertex 3.35326 3.14892 7.05
      vertex 4.39204 4.1244 7.05
      vertex 3.84048 4.64234 7.05
    endloop
  endfacet
  facet normal -0.844327 0.535827 0
    outer loop
      vertex 3.72148 -2.70381 0
      vertex 3.72148 -2.70381 7.05
      vertex 4.03101 -2.21607 7.05
    endloop
  endfacet
  facet normal 0 0 -1
    outer loop
      vertex 3.72148 -2.70381 0
      vertex 4.03101 -2.21607 0
      vertex 6.08785 -4.42308 0
    endloop
  endfacet
  facet normal -0.844327 0.535827 0
    outer loop
      vertex 3.72148 -2.70381 0
      vertex 4.03101 -2.21607 7.05
      vertex 4.03101 -2.21607 0
    endloop
  endfacet
  facet normal 0 0 -1
    outer loop
      vertex 3.72148 -2.70381 0
      vertex 6.08785 -4.42308 0
      vertex 5.48549 -5.15122 0
    endloop
  endfacet
  facet normal 0 0 1
    outer loop
      vertex 3.72148 -2.70381 7.05
      vertex 4.39204 -4.1244 7.05
      vertex 4.87433 -3.54141 7.05
    endloop
  endfacet
  facet normal -0 0 1
    outer loop
      vertex 3.72148 -2.70381 7.05
      vertex 4.87433 -3.54141 7.05
      vertex 4.03101 -2.21607 7.05
    endloop
  endfacet
  facet normal -0.844327 -0.535827 0
    outer loop
      vertex 3.72148 2.70381 0
      vertex 4.03101 2.21607 0
      vertex 3.72148 2.70381 7.05
    endloop
  endfacet
  facet normal -0 0 -1
    outer loop
      vertex 3.72148 2.70381 0
      vertex 5.48549 5.15122 0
      vertex 6.08785 4.42308 0
    endloop
  endfacet
  facet normal 0 0 -1
    outer loop
      vertex 3.72148 2.70381 0
      vertex 6.08785 4.42308 0
      vertex 4.03101 2.21607 0
    endloop
  endfacet
  facet normal -0.844327 -0.535827 0
    outer loop
      vertex 3.72148 2.70381 7.05
      vertex 4.03101 2.21607 0
      vertex 4.03101 2.21607 7.05
    endloop
  endfacet
  facet normal 0 0 1
    outer loop
      vertex 3.72148 2.70381 7.05
      vertex 4.03101 2.21607 7.05
      vertex 4.87433 3.54141 7.05
    endloop
  endfacet
  facet normal 0 0 1
    outer loop
      vertex 3.72148 2.70381 7.05
      vertex 4.87433 3.54141 7.05
      vertex 4.39204 4.1244 7.05
    endloop
  endfacet
  facet normal 0 0 1
    outer loop
      vertex 3.84048 -4.64234 2
      vertex 4.0321 -6.35357 2
      vertex 4.79661 -5.79811 2
    endloop
  endfacet
  facet normal 0.684547 -0.728969 0
    outer loop
      vertex 3.84048 -4.64234 2
      vertex 4.39204 -4.1244 2
      vertex 4.39204 -4.1244 7.05
    endloop
  endfacet
  facet normal 0.684547 -0.728969 0
    outer loop
      vertex 3.84048 -4.64234 2
      vertex 4.39204 -4.1244 7.05
      vertex 3.84048 -4.64234 7.05
    endloop
  endfacet
  facet normal -0 0 1
    outer loop
      vertex 3.84048 -4.64234 2
      vertex 4.79661 -5.79811 2
      vertex 4.39204 -4.1244 2
    endloop
  endfacet
  facet normal 0.684547 0.728969 0
    outer loop
      vertex 3.84048 4.64234 2
      vertex 3.84048 4.64234 7.05
      vertex 4.39204 4.1244 2
    endloop
  endfacet
  facet normal 0 0 1
    outer loop
      vertex 3.84048 4.64234 2
      vertex 4.39204 4.1244 2
      vertex 4.79661 5.79811 2
    endloop
  endfacet
  facet normal 0 0 1
    outer loop
      vertex 3.84048 4.64234 2
      vertex 4.79661 5.79811 2
      vertex 4.0321 6.35357 2
    endloop
  endfacet
  facet normal 0.684547 0.728969 -0
    outer loop
      vertex 3.84048 4.64234 7.05
      vertex 4.39204 4.1244 7.05
      vertex 4.39204 4.1244 2
    endloop
  endfacet
  facet normal -0.904827 0.42578 0
    outer loop
      vertex 4.03101 -2.21607 0
      vertex 4.03101 -2.21607 7.05
      vertex 4.27697 -1.69337 7.05
    endloop
  endfacet
  facet normal 0 0 -1
    outer loop
      vertex 4.03101 -2.21607 0
      vertex 4.27697 -1.69337 0
      vertex 6.59421 -3.6252 0
    endloop
  endfacet
  facet normal -0.904827 0.42578 0
    outer loop
      vertex 4.03101 -2.21607 0
      vertex 4.27697 -1.69337 7.05
      vertex 4.27697 -1.69337 0
    endloop
  endfacet
  facet normal 0 0 -1
    outer loop
      vertex 4.03101 -2.21607 0
      vertex 6.59421 -3.6252 0
      vertex 6.08785 -4.42308 0
    endloop
  endfacet
  facet normal 0 0 1
    outer loop
      vertex 4.03101 -2.21607 7.05
      vertex 4.87433 -3.54141 7.05
      vertex 5.27975 -2.90257 7.05
    endloop
  endfacet
  facet normal -0 0 1
    outer loop
      vertex 4.03101 -2.21607 7.05
      vertex 5.27975 -2.90257 7.05
      vertex 4.27697 -1.69337 7.05
    endloop
  endfacet
  facet normal -0.904827 -0.42578 0
    outer loop
      vertex 4.03101 2.21607 0
      vertex 4.27697 1.69337 0
      vertex 4.03101 2.21607 7.05
    endloop
  endfacet
  facet normal -0 0 -1
    outer loop
      vertex 4.03101 2.21607 0
      vertex 6.08785 4.42308 0
      vertex 6.59421 3.6252 0
    endloop
  endfacet
  facet normal 0 0 -1
    outer loop
      vertex 4.03101 2.21607 0
      vertex 6.59421 3.6252 0
      vertex 4.27697 1.69337 0
    endloop
  endfacet
  facet normal -0.904827 -0.42578 0
    outer loop
      vertex 4.03101 2.21607 7.05
      vertex 4.27697 1.69337 0
      vertex 4.27697 1.69337 7.05
    endloop
  endfacet
  facet normal 0 0 1
    outer loop
      vertex 4.03101 2.21607 7.05
      vertex 4.27697 1.69337 7.05
      vertex 5.27975 2.90257 7.05
    endloop
  endfacet
  facet normal 0 0 1
    outer loop
      vertex 4.03101 2.21607 7.05
      vertex 5.27975 2.90257 7.05
      vertex 4.87433 3.54141 7.05
    endloop
  endfacet
  facet normal 0.587785 -0.809017 0
    outer loop
      vertex 4.0321 -6.35357 0
      vertex 4.79661 -5.79811 0
      vertex 4.79661 -5.79811 2
    endloop
  endfacet
  facet normal 0.587785 -0.809017 0
    outer loop
      vertex 4.0321 -6.35357 0
      vertex 4.79661 -5.79811 2
      vertex 4.0321 -6.35357 2
    endloop
  endfacet
  facet normal 0.587785 0.809017 0
    outer loop
      vertex 4.0321 6.35357 0
      vertex 4.0321 6.35357 2
      vertex 4.79661 5.79811 0
    endloop
  endfacet
  facet normal 0.587785 0.809017 -0
    outer loop
      vertex 4.0321 6.35357 2
      vertex 4.79661 5.79811 2
      vertex 4.79661 5.79811 0
    endloop
  endfacet
  facet normal -0.951057 0.309017 0
    outer loop
      vertex 4.27697 -1.69337 0
      vertex 4.27697 -1.69337 7.05
      vertex 4.45548 -1.14397 7.05
    endloop
  endfacet
  facet normal 0 0 -1
    outer loop
      vertex 4.27697 -1.69337 0
      vertex 4.45548 -1.14397 0
      vertex 6.99657 -2.77014 0
    endloop
  endfacet
  facet normal -0.951057 0.309017 0
    outer loop
      vertex 4.27697 -1.69337 0
      vertex 4.45548 -1.14397 7.05
      vertex 4.45548 -1.14397 0
    endloop
  endfacet
  facet normal 0 0 -1
    outer loop
      vertex 4.27697 -1.69337 0
      vertex 6.99657 -2.77014 0
      vertex 6.59421 -3.6252 0
    endloop
  endfacet
  facet normal 0 0 1
    outer loop
      vertex 4.27697 -1.69337 7.05
      vertex 5.27975 -2.90257 7.05
      vertex 5.6019 -2.21795 7.05
    endloop
  endfacet
  facet normal -0 0 1
    outer loop
      vertex 4.27697 -1.69337 7.05
      vertex 5.6019 -2.21795 7.05
      vertex 4.45548 -1.14397 7.05
    endloop
  endfacet
  facet normal -0.951057 -0.309017 0
    outer loop
      vertex 4.27697 1.69337 0
      vertex 4.45548 1.14397 0
      vertex 4.27697 1.69337 7.05
    endloop
  endfacet
  facet normal -0 0 -1
    outer loop
      vertex 4.27697 1.69337 0
      vertex 6.59421 3.6252 0
      vertex 6.99657 2.77014 0
    endloop
  endfacet
  facet normal 0 0 -1
    outer loop
      vertex 4.27697 1.69337 0
      vertex 6.99657 2.77014 0
      vertex 4.45548 1.14397 0
    endloop
  endfacet
  facet normal -0.951057 -0.309017 0
    outer loop
      vertex 4.27697 1.69337 7.05
      vertex 4.45548 1.14397 0
      vertex 4.45548 1.14397 7.05
    endloop
  endfacet
  facet normal 0 0 1
    outer loop
      vertex 4.27697 1.69337 7.05
      vertex 4.45548 1.14397 7.05
      vertex 5.6019 2.21795 7.05
    endloop
  endfacet
  facet normal 0 0 1
    outer loop
      vertex 4.27697 1.69337 7.05
      vertex 5.6019 2.21795 7.05
      vertex 5.27975 2.90257 7.05
    endloop
  endfacet
  facet normal 0 0 1
    outer loop
      vertex 4.39204 -4.1244 2
      vertex 4.79661 -5.79811 2
      vertex 5.48549 -5.15122 2
    endloop
  endfacet
  facet normal 0.770513 -0.637424 0
    outer loop
      vertex 4.39204 -4.1244 2
      vertex 4.87433 -3.54141 2
      vertex 4.39204 -4.1244 7.05
    endloop
  endfacet
  facet normal -0 0 1
    outer loop
      vertex 4.39204 -4.1244 2
      vertex 5.48549 -5.15122 2
      vertex 4.87433 -3.54141 2
    endloop
  endfacet
  facet normal 0.770513 -0.637424 0
    outer loop
      vertex 4.39204 -4.1244 7.05
      vertex 4.87433 -3.54141 2
      vertex 4.87433 -3.54141 7.05
    endloop
  endfacet
  facet normal 0.770513 0.637424 0
    outer loop
      vertex 4.39204 4.1244 2
      vertex 4.39204 4.1244 7.05
      vertex 4.87433 3.54141 7.05
    endloop
  endfacet
  facet normal 0 0 1
    outer loop
      vertex 4.39204 4.1244 2
      vertex 4.87433 3.54141 2
      vertex 5.48549 5.15122 2
    endloop
  endfacet
  facet normal 0.770513 0.637424 0
    outer loop
      vertex 4.39204 4.1244 2
      vertex 4.87433 3.54141 7.05
      vertex 4.87433 3.54141 2
    endloop
  endfacet
  facet normal 0 0 1
    outer loop
      vertex 4.39204 4.1244 2
      vertex 5.48549 5.15122 2
      vertex 4.79661 5.79811 2
    endloop
  endfacet
  facet normal -0.982287 0.187381 0
    outer loop
      vertex 4.45548 -1.14397 0
      vertex 4.45548 -1.14397 7.05
      vertex 4.56373 -0.576532 7.05
    endloop
  endfacet
  facet normal 0 0 -1
    outer loop
      vertex 4.45548 -1.14397 0
      vertex 4.56373 -0.576532 0
      vertex 7.28859 -1.87139 0
    endloop
  endfacet
  facet normal -0.982287 0.187381 0
    outer loop
      vertex 4.45548 -1.14397 0
      vertex 4.56373 -0.576532 7.05
      vertex 4.56373 -0.576532 0
    endloop
  endfacet
  facet normal 0 0 -1
    outer loop
      vertex 4.45548 -1.14397 0
      vertex 7.28859 -1.87139 0
      vertex 6.99657 -2.77014 0
    endloop
  endfacet
  facet normal 0 0 1
    outer loop
      vertex 4.45548 -1.14397 7.05
      vertex 5.6019 -2.21795 7.05
      vertex 5.83571 -1.49836 7.05
    endloop
  endfacet
  facet normal -0 0 1
    outer loop
      vertex 4.45548 -1.14397 7.05
      vertex 5.83571 -1.49836 7.05
      vertex 4.56373 -0.576532 7.05
    endloop
  endfacet
  facet normal -0.982287 -0.187381 0
    outer loop
      vertex 4.45548 1.14397 0
      vertex 4.56373 0.576532 0
      vertex 4.45548 1.14397 7.05
    endloop
  endfacet
  facet normal -0 0 -1
    outer loop
      vertex 4.45548 1.14397 0
      vertex 6.99657 2.77014 0
      vertex 7.28859 1.87139 0
    endloop
  endfacet
  facet normal 0 0 -1
    outer loop
      vertex 4.45548 1.14397 0
      vertex 7.28859 1.87139 0
      vertex 4.56373 0.576532 0
    endloop
  endfacet
  facet normal -0.982287 -0.187381 0
    outer loop
      vertex 4.45548 1.14397 7.05
      vertex 4.56373 0.576532 0
      vertex 4.56373 0.576532 7.05
    endloop
  endfacet
  facet normal 0 0 1
    outer loop
      vertex 4.45548 1.14397 7.05
      vertex 4.56373 0.576532 7.05
      vertex 5.83571 1.49836 7.05
    endloop
  endfacet
  facet normal 0 0 1
    outer loop
      vertex 4.45548 1.14397 7.05
      vertex 5.83571 1.49836 7.05
      vertex 5.6019 2.21795 7.05
    endloop
  endfacet
  facet normal -0.998027 0.06279 0
    outer loop
      vertex 4.56373 -0.576532 0
      vertex 4.56373 -0.576532 7.05
      vertex 4.6 0 7.05
    endloop
  endfacet
  facet normal 0 0 -1
    outer loop
      vertex 4.56373 -0.576532 0
      vertex 4.6 0 0
      vertex 7.46566 -0.943132 0
    endloop
  endfacet
  facet normal -0.998027 0.06279 0
    outer loop
      vertex 4.56373 -0.576532 0
      vertex 4.6 0 7.05
      vertex 4.6 0 0
    endloop
  endfacet
  facet normal 0 0 -1
    outer loop
      vertex 4.56373 -0.576532 0
      vertex 7.46566 -0.943132 0
      vertex 7.28859 -1.87139 0
    endloop
  endfacet
  facet normal 0 0 1
    outer loop
      vertex 4.56373 -0.576532 7.05
      vertex 5.83571 -1.49836 7.05
      vertex 5.97749 -0.755133 7.05
    endloop
  endfacet
  facet normal -0 0 1
    outer loop
      vertex 4.56373 -0.576532 7.05
      vertex 5.97749 -0.755133 7.05
      vertex 4.6 0 7.05
    endloop
  endfacet
  facet normal -0.998027 -0.06279 0
    outer loop
      vertex 4.56373 0.576532 0
      vertex 4.6 0 0
      vertex 4.56373 0.576532 7.05
    endloop
  endfacet
  facet normal -0 0 -1
    outer loop
      vertex 4.56373 0.576532 0
      vertex 7.28859 1.87139 0
      vertex 7.46566 0.943132 0
    endloop
  endfacet
  facet normal 0 0 -1
    outer loop
      vertex 4.56373 0.576532 0
      vertex 7.46566 0.943132 0
      vertex 4.6 0 0
    endloop
  endfacet
  facet normal -0.998027 -0.06279 0
    outer loop
      vertex 4.56373 0.576532 7.05
      vertex 4.6 0 0
      vertex 4.6 0 7.05
    endloop
  endfacet
  facet normal 0 0 1
    outer loop
      vertex 4.56373 0.576532 7.05
      vertex 4.6 0 7.05
      vertex 5.97749 0.755133 7.05
    endloop
  endfacet
  facet normal 0 0 1
    outer loop
      vertex 4.56373 0.576532 7.05
      vertex 5.97749 0.755133 7.05
      vertex 5.83571 1.49836 7.05
    endloop
  endfacet
  facet normal 0 0 -1
    outer loop
      vertex 4.6 0 0
      vertex 7.46566 0.943132 0
      vertex 7.525 0 0
    endloop
  endfacet
  facet normal 0 0 -1
    outer loop
      vertex 4.6 0 0
      vertex 7.525 0 0
      vertex 7.46566 -0.943132 0
    endloop
  endfacet
  facet normal 0 0 1
    outer loop
      vertex 4.6 0 7.05
      vertex 5.97749 -0.755133 7.05
      vertex 6.025 0 7.05
    endloop
  endfacet
  facet normal 0 0 1
    outer loop
      vertex 4.6 0 7.05
      vertex 6.025 0 7.05
      vertex 5.97749 0.755133 7.05
    endloop
  endfacet
  facet normal 0.684547 -0.728969 0
    outer loop
      vertex 4.79661 -5.79811 0
      vertex 5.48549 -5.15122 0
      vertex 5.48549 -5.15122 2
    endloop
  endfacet
  facet normal 0.684547 -0.728969 0
    outer loop
      vertex 4.79661 -5.79811 0
      vertex 5.48549 -5.15122 2
      vertex 4.79661 -5.79811 2
    endloop
  endfacet
  facet normal 0.684547 0.728969 0
    outer loop
      vertex 4.79661 5.79811 0
      vertex 4.79661 5.79811 2
      vertex 5.48549 5.15122 0
    endloop
  endfacet
  facet normal 0.684547 0.728969 -0
    outer loop
      vertex 4.79661 5.79811 2
      vertex 5.48549 5.15122 2
      vertex 5.48549 5.15122 0
    endloop
  endfacet
  facet normal 0.844328 -0.535826 0
    outer loop
      vertex 4.87433 -3.54141 2
      vertex 5.27975 -2.90257 2
      vertex 4.87433 -3.54141 7.05
    endloop
  endfacet
  facet normal 0 0 1
    outer loop
      vertex 4.87433 -3.54141 2
      vertex 5.48549 -5.15122 2
      vertex 6.08785 -4.42308 2
    endloop
  endfacet
  facet normal -0 0 1
    outer loop
      vertex 4.87433 -3.54141 2
      vertex 6.08785 -4.42308 2
      vertex 5.27975 -2.90257 2
    endloop
  endfacet
  facet normal 0.844328 -0.535826 0
    outer loop
      vertex 4.87433 -3.54141 7.05
      vertex 5.27975 -2.90257 2
      vertex 5.27975 -2.90257 7.05
    endloop
  endfacet
  facet normal 0.844328 0.535826 0
    outer loop
      vertex 4.87433 3.54141 2
      vertex 4.87433 3.54141 7.05
      vertex 5.27975 2.90257 7.05
    endloop
  endfacet
  facet normal 0 0 1
    outer loop
      vertex 4.87433 3.54141 2
      vertex 5.27975 2.90257 2
      vertex 6.08785 4.42308 2
    endloop
  endfacet
  facet normal 0.844328 0.535826 0
    outer loop
      vertex 4.87433 3.54141 2
      vertex 5.27975 2.90257 7.05
      vertex 5.27975 2.90257 2
    endloop
  endfacet
  facet normal 0 0 1
    outer loop
      vertex 4.87433 3.54141 2
      vertex 6.08785 4.42308 2
      vertex 5.48549 5.15122 2
    endloop
  endfacet
  facet normal 0.904827 -0.42578 0
    outer loop
      vertex 5.27975 -2.90257 2
      vertex 5.6019 -2.21795 2
      vertex 5.27975 -2.90257 7.05
    endloop
  endfacet
  facet normal 0 0 1
    outer loop
      vertex 5.27975 -2.90257 2
      vertex 6.08785 -4.42308 2
      vertex 6.59421 -3.6252 2
    endloop
  endfacet
  facet normal -0 0 1
    outer loop
      vertex 5.27975 -2.90257 2
      vertex 6.59421 -3.6252 2
      vertex 5.6019 -2.21795 2
    endloop
  endfacet
  facet normal 0.904827 -0.42578 0
    outer loop
      vertex 5.27975 -2.90257 7.05
      vertex 5.6019 -2.21795 2
      vertex 5.6019 -2.21795 7.05
    endloop
  endfacet
  facet normal 0.904827 0.42578 0
    outer loop
      vertex 5.27975 2.90257 2
      vertex 5.27975 2.90257 7.05
      vertex 5.6019 2.21795 7.05
    endloop
  endfacet
  facet normal 0 0 1
    outer loop
      vertex 5.27975 2.90257 2
      vertex 5.6019 2.21795 2
      vertex 6.59421 3.6252 2
    endloop
  endfacet
  facet normal 0.904827 0.42578 0
    outer loop
      vertex 5.27975 2.90257 2
      vertex 5.6019 2.21795 7.05
      vertex 5.6019 2.21795 2
    endloop
  endfacet
  facet normal 0 0 1
    outer loop
      vertex 5.27975 2.90257 2
      vertex 6.59421 3.6252 2
      vertex 6.08785 4.42308 2
    endloop
  endfacet
  facet normal 0.770514 -0.637424 0
    outer loop
      vertex 5.48549 -5.15122 0
      vertex 6.08785 -4.42308 0
      vertex 5.48549 -5.15122 2
    endloop
  endfacet
  facet normal 0.770514 -0.637424 0
    outer loop
      vertex 5.48549 -5.15122 2
      vertex 6.08785 -4.42308 0
      vertex 6.08785 -4.42308 2
    endloop
  endfacet
  facet normal 0.770514 0.637424 0
    outer loop
      vertex 5.48549 5.15122 0
      vertex 5.48549 5.15122 2
      vertex 6.08785 4.42308 2
    endloop
  endfacet
  facet normal 0.770514 0.637424 0
    outer loop
      vertex 5.48549 5.15122 0
      vertex 6.08785 4.42308 2
      vertex 6.08785 4.42308 0
    endloop
  endfacet
  facet normal 0.951056 -0.309017 0
    outer loop
      vertex 5.6019 -2.21795 2
      vertex 5.83571 -1.49836 2
      vertex 5.6019 -2.21795 7.05
    endloop
  endfacet
  facet normal 0 0 1
    outer loop
      vertex 5.6019 -2.21795 2
      vertex 6.59421 -3.6252 2
      vertex 6.99657 -2.77014 2
    endloop
  endfacet
  facet normal -0 0 1
    outer loop
      vertex 5.6019 -2.21795 2
      vertex 6.99657 -2.77014 2
      vertex 5.83571 -1.49836 2
    endloop
  endfacet
  facet normal 0.951056 -0.309017 0
    outer loop
      vertex 5.6019 -2.21795 7.05
      vertex 5.83571 -1.49836 2
      vertex 5.83571 -1.49836 7.05
    endloop
  endfacet
  facet normal 0.951056 0.309017 0
    outer loop
      vertex 5.6019 2.21795 2
      vertex 5.6019 2.21795 7.05
      vertex 5.83571 1.49836 7.05
    endloop
  endfacet
  facet normal 0 0 1
    outer loop
      vertex 5.6019 2.21795 2
      vertex 5.83571 1.49836 2
      vertex 6.99657 2.77014 2
    endloop
  endfacet
  facet normal 0.951056 0.309017 0
    outer loop
      vertex 5.6019 2.21795 2
      vertex 5.83571 1.49836 7.05
      vertex 5.83571 1.49836 2
    endloop
  endfacet
  facet normal 0 0 1
    outer loop
      vertex 5.6019 2.21795 2
      vertex 6.99657 2.77014 2
      vertex 6.59421 3.6252 2
    endloop
  endfacet
  facet normal 0.982287 -0.187381 0
    outer loop
      vertex 5.83571 -1.49836 2
      vertex 5.97749 -0.755133 2
      vertex 5.83571 -1.49836 7.05
    endloop
  endfacet
  facet normal 0 0 1
    outer loop
      vertex 5.83571 -1.49836 2
      vertex 6.99657 -2.77014 2
      vertex 7.28859 -1.87139 2
    endloop
  endfacet
  facet normal -0 0 1
    outer loop
      vertex 5.83571 -1.49836 2
      vertex 7.28859 -1.87139 2
      vertex 5.97749 -0.755133 2
    endloop
  endfacet
  facet normal 0.982287 -0.187381 0
    outer loop
      vertex 5.83571 -1.49836 7.05
      vertex 5.97749 -0.755133 2
      vertex 5.97749 -0.755133 7.05
    endloop
  endfacet
  facet normal 0.982287 0.187381 0
    outer loop
      vertex 5.83571 1.49836 2
      vertex 5.83571 1.49836 7.05
      vertex 5.97749 0.755133 7.05
    endloop
  endfacet
  facet normal 0 0 1
    outer loop
      vertex 5.83571 1.49836 2
      vertex 5.97749 0.755133 2
      vertex 7.28859 1.87139 2
    endloop
  endfacet
  facet normal 0.982287 0.187381 0
    outer loop
      vertex 5.83571 1.49836 2
      vertex 5.97749 0.755133 7.05
      vertex 5.97749 0.755133 2
    endloop
  endfacet
  facet normal 0 0 1
    outer loop
      vertex 5.83571 1.49836 2
      vertex 7.28859 1.87139 2
      vertex 6.99657 2.77014 2
    endloop
  endfacet
  facet normal 0.998027 -0.0627909 0
    outer loop
      vertex 5.97749 -0.755133 2
      vertex 6.025 0 2
      vertex 5.97749 -0.755133 7.05
    endloop
  endfacet
  facet normal 0 0 1
    outer loop
      vertex 5.97749 -0.755133 2
      vertex 7.28859 -1.87139 2
      vertex 7.46566 -0.943132 2
    endloop
  endfacet
  facet normal -0 0 1
    outer loop
      vertex 5.97749 -0.755133 2
      vertex 7.46566 -0.943132 2
      vertex 6.025 0 2
    endloop
  endfacet
  facet normal 0.998027 -0.0627909 0
    outer loop
      vertex 5.97749 -0.755133 7.05
      vertex 6.025 0 2
      vertex 6.025 0 7.05
    endloop
  endfacet
  facet normal 0.998027 0.0627909 0
    outer loop
      vertex 5.97749 0.755133 2
      vertex 5.97749 0.755133 7.05
      vertex 6.025 0 7.05
    endloop
  endfacet
  facet normal 0 0 1
    outer loop
      vertex 5.97749 0.755133 2
      vertex 6.025 0 2
      vertex 7.46566 0.943132 2
    endloop
  endfacet
  facet normal 0.998027 0.0627909 0
    outer loop
      vertex 5.97749 0.755133 2
      vertex 6.025 0 7.05
      vertex 6.025 0 2
    endloop
  endfacet
  facet normal 0 0 1
    outer loop
      vertex 5.97749 0.755133 2
      vertex 7.46566 0.943132 2
      vertex 7.28859 1.87139 2
    endloop
  endfacet
  facet normal 0 0 1
    outer loop
      vertex 6.025 0 2
      vertex 7.46566 -0.943132 2
      vertex 7.525 0 2
    endloop
  endfacet
  facet normal 0 0 1
    outer loop
      vertex 6.025 0 2
      vertex 7.525 0 2
      vertex 7.46566 0.943132 2
    endloop
  endfacet
  facet normal 0.844328 -0.535827 0
    outer loop
      vertex 6.08785 -4.42308 0
      vertex 6.59421 -3.6252 0
      vertex 6.08785 -4.42308 2
    endloop
  endfacet
  facet normal 0.844328 -0.535827 0
    outer loop
      vertex 6.08785 -4.42308 2
      vertex 6.59421 -3.6252 0
      vertex 6.59421 -3.6252 2
    endloop
  endfacet
  facet normal 0.844328 0.535827 0
    outer loop
      vertex 6.08785 4.42308 0
      vertex 6.08785 4.42308 2
      vertex 6.59421 3.6252 2
    endloop
  endfacet
  facet normal 0.844328 0.535827 0
    outer loop
      vertex 6.08785 4.42308 0
      vertex 6.59421 3.6252 2
      vertex 6.59421 3.6252 0
    endloop
  endfacet
  facet normal 0.904827 -0.425779 0
    outer loop
      vertex 6.59421 -3.6252 0
      vertex 6.99657 -2.77014 0
      vertex 6.59421 -3.6252 2
    endloop
  endfacet
  facet normal 0.904827 -0.425779 0
    outer loop
      vertex 6.59421 -3.6252 2
      vertex 6.99657 -2.77014 0
      vertex 6.99657 -2.77014 2
    endloop
  endfacet
  facet normal 0.904827 0.425779 0
    outer loop
      vertex 6.59421 3.6252 0
      vertex 6.59421 3.6252 2
      vertex 6.99657 2.77014 2
    endloop
  endfacet
  facet normal 0.904827 0.425779 0
    outer loop
      vertex 6.59421 3.6252 0
      vertex 6.99657 2.77014 2
      vertex 6.99657 2.77014 0
    endloop
  endfacet
  facet normal 0.951057 -0.309017 0
    outer loop
      vertex 6.99657 -2.77014 0
      vertex 7.28859 -1.87139 0
      vertex 6.99657 -2.77014 2
    endloop
  endfacet
  facet normal 0.951057 -0.309017 0
    outer loop
      vertex 6.99657 -2.77014 2
      vertex 7.28859 -1.87139 0
      vertex 7.28859 -1.87139 2
    endloop
  endfacet
  facet normal 0.951057 0.309017 0
    outer loop
      vertex 6.99657 2.77014 0
      vertex 6.99657 2.77014 2
      vertex 7.28859 1.87139 2
    endloop
  endfacet
  facet normal 0.951057 0.309017 0
    outer loop
      vertex 6.99657 2.77014 0
      vertex 7.28859 1.87139 2
      vertex 7.28859 1.87139 0
    endloop
  endfacet
  facet normal 0.982287 -0.187382 0
    outer loop
      vertex 7.28859 -1.87139 0
      vertex 7.46566 -0.943132 0
      vertex 7.28859 -1.87139 2
    endloop
  endfacet
  facet normal 0.982287 -0.187382 0
    outer loop
      vertex 7.28859 -1.87139 2
      vertex 7.46566 -0.943132 0
      vertex 7.46566 -0.943132 2
    endloop
  endfacet
  facet normal 0.982287 0.187382 0
    outer loop
      vertex 7.28859 1.87139 0
      vertex 7.28859 1.87139 2
      vertex 7.46566 0.943132 2
    endloop
  endfacet
  facet normal 0.982287 0.187382 0
    outer loop
      vertex 7.28859 1.87139 0
      vertex 7.46566 0.943132 2
      vertex 7.46566 0.943132 0
    endloop
  endfacet
  facet normal 0.998027 -0.0627903 0
    outer loop
      vertex 7.46566 -0.943132 0
      vertex 7.525 0 0
      vertex 7.46566 -0.943132 2
    endloop
  endfacet
  facet normal 0.998027 -0.0627903 0
    outer loop
      vertex 7.46566 -0.943132 2
      vertex 7.525 0 0
      vertex 7.525 0 2
    endloop
  endfacet
  facet normal 0.998027 0.0627903 0
    outer loop
      vertex 7.46566 0.943132 0
      vertex 7.46566 0.943132 2
      vertex 7.525 0 2
    endloop
  endfacet
  facet normal 0.998027 0.0627903 0
    outer loop
      vertex 7.46566 0.943132 0
      vertex 7.525 0 2
      vertex 7.525 0 0
    endloop
  endfacet
endsolid model
