solid model
  facet normal -0.993534 -0.113534 0
    outer loop
      vertex -0.00297546 0.0348053 0
      vertex 0.00891113 -0.0692139 0
      vertex -0.00297546 0.0348053 10
    endloop
  endfacet
  facet normal 0 0 -1
    outer loop
      vertex -0.00297546 0.0348053 0
      vertex 0.0296021 -0.171616 0
      vertex 0.00891113 -0.0692139 0
    endloop
  endfacet
  facet normal 0 0 -1
    outer loop
      vertex -0.00297546 0.0348053 0
      vertex 6.10352e-05 0.243744 0
      vertex 0.0296021 -0.171616 0
    endloop
  endfacet
  facet normal -0.993534 -0.113534 0
    outer loop
      vertex -0.00297546 0.0348053 10
      vertex 0.00891113 -0.0692139 0
      vertex 0.00891113 -0.0692139 10
    endloop
  endfacet
  facet normal 0 0 1
    outer loop
      vertex -0.00297546 0.0348053 10
      vertex 0.00891113 -0.0692139 10
      vertex 0.0296021 -0.171616 10
    endloop
  endfacet
  facet normal 0 0 1
    outer loop
      vertex -0.00297546 0.0348053 10
      vertex 0.0296021 -0.171616 10
      vertex 6.10352e-05 0.243744 10
    endloop
  endfacet
  facet normal -0.999599 -0.0283305 0
    outer loop
      vertex -0.00593567 0.139252 0
      vertex -0.00297546 0.0348053 0
      vertex -0.00593567 0.139252 10
    endloop
  endfacet
  facet normal -0.998357 0.0572947 0
    outer loop
      vertex -0.00593567 0.139252 0
      vertex -0.00593567 0.139252 10
      vertex 6.10352e-05 0.243744 10
    endloop
  endfacet
  facet normal 0 0 -1
    outer loop
      vertex -0.00593567 0.139252 0
      vertex 6.10352e-05 0.243744 0
      vertex -0.00297546 0.0348053 0
    endloop
  endfacet
  facet normal -0.998357 0.0572947 0
    outer loop
      vertex -0.00593567 0.139252 0
      vertex 6.10352e-05 0.243744 10
      vertex 6.10352e-05 0.243744 0
    endloop
  endfacet
  facet normal -0.999599 -0.0283305 0
    outer loop
      vertex -0.00593567 0.139252 10
      vertex -0.00297546 0.0348053 0
      vertex -0.00297546 0.0348053 10
    endloop
  endfacet
  facet normal -0 0 1
    outer loop
      vertex -0.00593567 0.139252 10
      vertex -0.00297546 0.0348053 10
      vertex 6.10352e-05 0.243744 10
    endloop
  endfacet
  facet normal -0.980191 -0.198054 0
    outer loop
      vertex 0.00891113 -0.0692139 0
      vertex 0.0296021 -0.171616 0
      vertex 0.00891113 -0.0692139 10
    endloop
  endfacet
  facet normal -0.980191 -0.198054 0
    outer loop
      vertex 0.00891113 -0.0692139 10
      vertex 0.0296021 -0.171616 0
      vertex 0.0296021 -0.171616 10
    endloop
  endfacet
  facet normal -0.974633 0.22381 0
    outer loop
      vertex 0.0150757 0.348267 0
      vertex 0.0150757 0.348267 10
      vertex 0.0390778 0.452789 10
    endloop
  endfacet
  facet normal 0 -0 -1
    outer loop
      vertex 0.0150757 0.348267 0
      vertex 0.0390778 0.452789 0
      vertex 0.0972748 -0.371185 0
    endloop
  endfacet
  facet normal -0.974633 0.22381 0
    outer loop
      vertex 0.0150757 0.348267 0
      vertex 0.0390778 0.452789 10
      vertex 0.0390778 0.452789 0
    endloop
  endfacet
  facet normal 0 0 -1
    outer loop
      vertex 0.0150757 0.348267 0
      vertex 0.0972748 -0.371185 0
      vertex 0.0590668 -0.272278 0
    endloop
  endfacet
  facet normal -0 -0 1
    outer loop
      vertex 0.0150757 0.348267 10
      vertex 0.0590668 -0.272278 10
      vertex 0.0972748 -0.371185 10
    endloop
  endfacet
  facet normal -0 0 1
    outer loop
      vertex 0.0150757 0.348267 10
      vertex 0.0972748 -0.371185 10
      vertex 0.0390778 0.452789 10
    endloop
  endfacet
  facet normal -0.959731 -0.280922 0
    outer loop
      vertex 0.0296021 -0.171616 0
      vertex 0.0590668 -0.272278 0
      vertex 0.0296021 -0.171616 10
    endloop
  endfacet
  facet normal -0.959731 -0.280922 0
    outer loop
      vertex 0.0296021 -0.171616 10
      vertex 0.0590668 -0.272278 0
      vertex 0.0590668 -0.272278 10
    endloop
  endfacet
  facet normal -0.953564 0.301191 0
    outer loop
      vertex 0.0390778 0.452789 0
      vertex 0.0390778 0.452789 10
      vertex 0.0720825 0.557281 10
    endloop
  endfacet
  facet normal 0 0 -1
    outer loop
      vertex 0.0390778 0.452789 0
      vertex 0.0720825 0.557281 0
      vertex 0.144226 -0.468338 0
    endloop
  endfacet
  facet normal -0.953564 0.301191 0
    outer loop
      vertex 0.0390778 0.452789 0
      vertex 0.0720825 0.557281 10
      vertex 0.0720825 0.557281 0
    endloop
  endfacet
  facet normal 0 0 -1
    outer loop
      vertex 0.0390778 0.452789 0
      vertex 0.144226 -0.468338 0
      vertex 0.0972748 -0.371185 0
    endloop
  endfacet
  facet normal -0 -0 1
    outer loop
      vertex 0.0390778 0.452789 10
      vertex 0.0972748 -0.371185 10
      vertex 0.144226 -0.468338 10
    endloop
  endfacet
  facet normal 0 0 1
    outer loop
      vertex 0.0390778 0.452789 10
      vertex 0.144226 -0.468338 10
      vertex 0.0720825 0.557281 10
    endloop
  endfacet
  facet normal -0.932818 -0.360348 0
    outer loop
      vertex 0.0590668 -0.272278 0
      vertex 0.0972748 -0.371185 0
      vertex 0.0590668 -0.272278 10
    endloop
  endfacet
  facet normal -0.932818 -0.360348 0
    outer loop
      vertex 0.0590668 -0.272278 10
      vertex 0.0972748 -0.371185 0
      vertex 0.0972748 -0.371185 10
    endloop
  endfacet
  facet normal -0.927812 0.373049 0
    outer loop
      vertex 0.0720825 0.557281 0
      vertex 0.0720825 0.557281 10
      vertex 0.11409 0.661758 10
    endloop
  endfacet
  facet normal 0 0 -1
    outer loop
      vertex 0.0720825 0.557281 0
      vertex 0.11409 0.661758 0
      vertex 0.19986 -0.563721 0
    endloop
  endfacet
  facet normal -0.927812 0.373049 0
    outer loop
      vertex 0.0720825 0.557281 0
      vertex 0.11409 0.661758 10
      vertex 0.11409 0.661758 0
    endloop
  endfacet
  facet normal 0 0 -1
    outer loop
      vertex 0.0720825 0.557281 0
      vertex 0.19986 -0.563721 0
      vertex 0.144226 -0.468338 0
    endloop
  endfacet
  facet normal 0 0 1
    outer loop
      vertex 0.0720825 0.557281 10
      vertex 0.144226 -0.468338 10
      vertex 0.19986 -0.563721 10
    endloop
  endfacet
  facet normal 0 0 1
    outer loop
      vertex 0.0720825 0.557281 10
      vertex 0.19986 -0.563721 10
      vertex 0.11409 0.661758 10
    endloop
  endfacet
  facet normal -0.90037 -0.435125 0
    outer loop
      vertex 0.0972748 -0.371185 0
      vertex 0.144226 -0.468338 0
      vertex 0.0972748 -0.371185 10
    endloop
  endfacet
  facet normal -0.90037 -0.435125 0
    outer loop
      vertex 0.0972748 -0.371185 10
      vertex 0.144226 -0.468338 0
      vertex 0.144226 -0.468338 10
    endloop
  endfacet
  facet normal -0.898462 0.439052 0
    outer loop
      vertex 0.11409 0.661758 0
      vertex 0.11409 0.661758 10
      vertex 0.1651 0.766144 10
    endloop
  endfacet
  facet normal 0 0 -1
    outer loop
      vertex 0.11409 0.661758 0
      vertex 0.1651 0.766144 0
      vertex 0.26416 -0.657333 0
    endloop
  endfacet
  facet normal -0.898462 0.439052 0
    outer loop
      vertex 0.11409 0.661758 0
      vertex 0.1651 0.766144 10
      vertex 0.1651 0.766144 0
    endloop
  endfacet
  facet normal 0 0 -1
    outer loop
      vertex 0.11409 0.661758 0
      vertex 0.26416 -0.657333 0
      vertex 0.19986 -0.563721 0
    endloop
  endfacet
  facet normal 0 0 1
    outer loop
      vertex 0.11409 0.661758 10
      vertex 0.19986 -0.563721 10
      vertex 0.26416 -0.657333 10
    endloop
  endfacet
  facet normal 0 0 1
    outer loop
      vertex 0.11409 0.661758 10
      vertex 0.26416 -0.657333 10
      vertex 0.1651 0.766144 10
    endloop
  endfacet
  facet normal -0.863804 -0.503828 0
    outer loop
      vertex 0.144226 -0.468338 0
      vertex 0.19986 -0.563721 0
      vertex 0.144226 -0.468338 10
    endloop
  endfacet
  facet normal -0.863804 -0.503828 0
    outer loop
      vertex 0.144226 -0.468338 10
      vertex 0.19986 -0.563721 0
      vertex 0.19986 -0.563721 10
    endloop
  endfacet
  facet normal -0.866858 0.498555 0
    outer loop
      vertex 0.1651 0.766144 0
      vertex 0.1651 0.766144 10
      vertex 0.225082 0.870438 10
    endloop
  endfacet
  facet normal 0 0 -1
    outer loop
      vertex 0.1651 0.766144 0
      vertex 0.225082 0.870438 0
      vertex 0.337082 -0.749146 0
    endloop
  endfacet
  facet normal -0.866858 0.498555 0
    outer loop
      vertex 0.1651 0.766144 0
      vertex 0.225082 0.870438 10
      vertex 0.225082 0.870438 0
    endloop
  endfacet
  facet normal 0 0 -1
    outer loop
      vertex 0.1651 0.766144 0
      vertex 0.337082 -0.749146 0
      vertex 0.26416 -0.657333 0
    endloop
  endfacet
  facet normal 0 0 1
    outer loop
      vertex 0.1651 0.766144 10
      vertex 0.26416 -0.657333 10
      vertex 0.337082 -0.749146 10
    endloop
  endfacet
  facet normal 0 0 1
    outer loop
      vertex 0.1651 0.766144 10
      vertex 0.337082 -0.749146 10
      vertex 0.225082 0.870438 10
    endloop
  endfacet
  facet normal -0.824281 -0.566181 0
    outer loop
      vertex 0.19986 -0.563721 0
      vertex 0.26416 -0.657333 0
      vertex 0.19986 -0.563721 10
    endloop
  endfacet
  facet normal -0.824281 -0.566181 0
    outer loop
      vertex 0.19986 -0.563721 10
      vertex 0.26416 -0.657333 0
      vertex 0.26416 -0.657333 10
    endloop
  endfacet
  facet normal -0.833738 0.55216 0
    outer loop
      vertex 0.225082 0.870438 0
      vertex 0.225082 0.870438 10
      vertex 0.294052 0.974579 10
    endloop
  endfacet
  facet normal 0 -0 -1
    outer loop
      vertex 0.225082 0.870438 0
      vertex 0.294052 0.974579 0
      vertex 0.41861 -0.839157 0
    endloop
  endfacet
  facet normal -0.833738 0.55216 0
    outer loop
      vertex 0.225082 0.870438 0
      vertex 0.294052 0.974579 10
      vertex 0.294052 0.974579 0
    endloop
  endfacet
  facet normal 0 0 -1
    outer loop
      vertex 0.225082 0.870438 0
      vertex 0.41861 -0.839157 0
      vertex 0.337082 -0.749146 0
    endloop
  endfacet
  facet normal 0 0 1
    outer loop
      vertex 0.225082 0.870438 10
      vertex 0.337082 -0.749146 10
      vertex 0.41861 -0.839157 10
    endloop
  endfacet
  facet normal -0 0 1
    outer loop
      vertex 0.225082 0.870438 10
      vertex 0.41861 -0.839157 10
      vertex 0.294052 0.974579 10
    endloop
  endfacet
  facet normal -0.783061 -0.621946 0
    outer loop
      vertex 0.26416 -0.657333 0
      vertex 0.337082 -0.749146 0
      vertex 0.26416 -0.657333 10
    endloop
  endfacet
  facet normal -0.783061 -0.621946 0
    outer loop
      vertex 0.26416 -0.657333 10
      vertex 0.337082 -0.749146 0
      vertex 0.337082 -0.749146 10
    endloop
  endfacet
  facet normal -0.800197 0.599737 0
    outer loop
      vertex 0.294052 0.974579 0
      vertex 0.294052 0.974579 10
      vertex 0.371979 1.07855 10
    endloop
  endfacet
  facet normal 0 -0 -1
    outer loop
      vertex 0.294052 0.974579 0
      vertex 0.371979 1.07855 0
      vertex 0.508682 -0.927338 0
    endloop
  endfacet
  facet normal -0.800197 0.599737 0
    outer loop
      vertex 0.294052 0.974579 0
      vertex 0.371979 1.07855 10
      vertex 0.371979 1.07855 0
    endloop
  endfacet
  facet normal 0 0 -1
    outer loop
      vertex 0.294052 0.974579 0
      vertex 0.508682 -0.927338 0
      vertex 0.41861 -0.839157 0
    endloop
  endfacet
  facet normal 0 0 1
    outer loop
      vertex 0.294052 0.974579 10
      vertex 0.41861 -0.839157 10
      vertex 0.508682 -0.927338 10
    endloop
  endfacet
  facet normal -0 0 1
    outer loop
      vertex 0.294052 0.974579 10
      vertex 0.508682 -0.927338 10
      vertex 0.371979 1.07855 10
    endloop
  endfacet
  facet normal -0.741173 -0.671315 0
    outer loop
      vertex 0.337082 -0.749146 0
      vertex 0.41861 -0.839157 0
      vertex 0.337082 -0.749146 10
    endloop
  endfacet
  facet normal -0.741173 -0.671315 0
    outer loop
      vertex 0.337082 -0.749146 10
      vertex 0.41861 -0.839157 0
      vertex 0.41861 -0.839157 10
    endloop
  endfacet
  facet normal -0.766657 0.642057 0
    outer loop
      vertex 0.371979 1.07855 0
      vertex 0.371979 1.07855 10
      vertex 0.458862 1.1823 10
    endloop
  endfacet
  facet normal 0 0 -1
    outer loop
      vertex 0.371979 1.07855 0
      vertex 0.458862 1.1823 0
      vertex 0.607285 -1.0137 0
    endloop
  endfacet
  facet normal -0.766657 0.642057 0
    outer loop
      vertex 0.371979 1.07855 0
      vertex 0.458862 1.1823 10
      vertex 0.458862 1.1823 0
    endloop
  endfacet
  facet normal 0 0 -1
    outer loop
      vertex 0.371979 1.07855 0
      vertex 0.607285 -1.0137 0
      vertex 0.508682 -0.927338 0
    endloop
  endfacet
  facet normal -0 -0 1
    outer loop
      vertex 0.371979 1.07855 10
      vertex 0.508682 -0.927338 10
      vertex 0.607285 -1.0137 10
    endloop
  endfacet
  facet normal 0 0 1
    outer loop
      vertex 0.371979 1.07855 10
      vertex 0.607285 -1.0137 10
      vertex 0.458862 1.1823 10
    endloop
  endfacet
  facet normal -0.699562 -0.714572 0
    outer loop
      vertex 0.41861 -0.839157 0
      vertex 0.508682 -0.927338 0
      vertex 0.41861 -0.839157 10
    endloop
  endfacet
  facet normal -0.699562 -0.714572 0
    outer loop
      vertex 0.41861 -0.839157 10
      vertex 0.508682 -0.927338 0
      vertex 0.508682 -0.927338 10
    endloop
  endfacet
  facet normal -0.733849 0.679313 0
    outer loop
      vertex 0.458862 1.1823 0
      vertex 0.458862 1.1823 10
      vertex 0.554657 1.28578 10
    endloop
  endfacet
  facet normal 0 0 -1
    outer loop
      vertex 0.458862 1.1823 0
      vertex 0.554657 1.28578 0
      vertex 0.71434 -1.09822 0
    endloop
  endfacet
  facet normal -0.733849 0.679313 0
    outer loop
      vertex 0.458862 1.1823 0
      vertex 0.554657 1.28578 10
      vertex 0.554657 1.28578 0
    endloop
  endfacet
  facet normal 0 0 -1
    outer loop
      vertex 0.458862 1.1823 0
      vertex 0.71434 -1.09822 0
      vertex 0.607285 -1.0137 0
    endloop
  endfacet
  facet normal -0 -0 1
    outer loop
      vertex 0.458862 1.1823 10
      vertex 0.607285 -1.0137 10
      vertex 0.71434 -1.09822 10
    endloop
  endfacet
  facet normal 0 0 1
    outer loop
      vertex 0.458862 1.1823 10
      vertex 0.71434 -1.09822 10
      vertex 0.554657 1.28578 10
    endloop
  endfacet
  facet normal -0.658884 -0.752245 0
    outer loop
      vertex 0.508682 -0.927338 0
      vertex 0.607285 -1.0137 0
      vertex 0.508682 -0.927338 10
    endloop
  endfacet
  facet normal -0.658884 -0.752245 0
    outer loop
      vertex 0.508682 -0.927338 10
      vertex 0.607285 -1.0137 0
      vertex 0.607285 -1.0137 10
    endloop
  endfacet
  facet normal -0.701845 0.71233 0
    outer loop
      vertex 0.554657 1.28578 0
      vertex 0.554657 1.28578 10
      vertex 0.659363 1.38895 10
    endloop
  endfacet
  facet normal 0 0 -1
    outer loop
      vertex 0.554657 1.28578 0
      vertex 0.659363 1.38895 0
      vertex 0.829819 -1.18088 0
    endloop
  endfacet
  facet normal -0.701845 0.71233 0
    outer loop
      vertex 0.554657 1.28578 0
      vertex 0.659363 1.38895 10
      vertex 0.659363 1.38895 0
    endloop
  endfacet
  facet normal 0 0 -1
    outer loop
      vertex 0.554657 1.28578 0
      vertex 0.829819 -1.18088 0
      vertex 0.71434 -1.09822 0
    endloop
  endfacet
  facet normal 0 0 1
    outer loop
      vertex 0.554657 1.28578 10
      vertex 0.71434 -1.09822 10
      vertex 0.829819 -1.18088 10
    endloop
  endfacet
  facet normal 0 0 1
    outer loop
      vertex 0.554657 1.28578 10
      vertex 0.829819 -1.18088 10
      vertex 0.659363 1.38895 10
    endloop
  endfacet
  facet normal -0.619648 -0.78488 0
    outer loop
      vertex 0.607285 -1.0137 0
      vertex 0.71434 -1.09822 0
      vertex 0.607285 -1.0137 10
    endloop
  endfacet
  facet normal -0.619648 -0.78488 0
    outer loop
      vertex 0.607285 -1.0137 10
      vertex 0.71434 -1.09822 0
      vertex 0.71434 -1.09822 10
    endloop
  endfacet
  facet normal -0.67102 0.741439 0
    outer loop
      vertex 0.659363 1.38895 0
      vertex 0.659363 1.38895 10
      vertex 0.772949 1.49174 10
    endloop
  endfacet
  facet normal 0 0 -1
    outer loop
      vertex 0.659363 1.38895 0
      vertex 0.772949 1.49174 0
      vertex 0.953659 -1.26166 0
    endloop
  endfacet
  facet normal -0.67102 0.741439 0
    outer loop
      vertex 0.659363 1.38895 0
      vertex 0.772949 1.49174 10
      vertex 0.772949 1.49174 0
    endloop
  endfacet
  facet normal 0 0 -1
    outer loop
      vertex 0.659363 1.38895 0
      vertex 0.953659 -1.26166 0
      vertex 0.829819 -1.18088 0
    endloop
  endfacet
  facet normal 0 0 1
    outer loop
      vertex 0.659363 1.38895 10
      vertex 0.829819 -1.18088 10
      vertex 0.953659 -1.26166 10
    endloop
  endfacet
  facet normal 0 0 1
    outer loop
      vertex 0.659363 1.38895 10
      vertex 0.953659 -1.26166 10
      vertex 0.772949 1.49174 10
    endloop
  endfacet
  facet normal -0.582041 -0.81316 0
    outer loop
      vertex 0.71434 -1.09822 0
      vertex 0.829819 -1.18088 0
      vertex 0.71434 -1.09822 10
    endloop
  endfacet
  facet normal -0.582041 -0.81316 0
    outer loop
      vertex 0.71434 -1.09822 10
      vertex 0.829819 -1.18088 0
      vertex 0.829819 -1.18088 10
    endloop
  endfacet
  facet normal -0.641491 0.767131 0
    outer loop
      vertex 0.772949 1.49174 0
      vertex 0.772949 1.49174 10
      vertex 0.89537 1.59412 10
    endloop
  endfacet
  facet normal 0 -0 -1
    outer loop
      vertex 0.772949 1.49174 0
      vertex 0.89537 1.59412 0
      vertex 1.13171 -1.36644 0
    endloop
  endfacet
  facet normal -0.641491 0.767131 0
    outer loop
      vertex 0.772949 1.49174 0
      vertex 0.89537 1.59412 10
      vertex 0.89537 1.59412 0
    endloop
  endfacet
  facet normal 0 0 -1
    outer loop
      vertex 0.772949 1.49174 0
      vertex 1.13171 -1.36644 0
      vertex 0.953659 -1.26166 0
    endloop
  endfacet
  facet normal 0 0 1
    outer loop
      vertex 0.772949 1.49174 10
      vertex 0.953659 -1.26166 10
      vertex 1.13171 -1.36644 10
    endloop
  endfacet
  facet normal -0 0 1
    outer loop
      vertex 0.772949 1.49174 10
      vertex 1.13171 -1.36644 10
      vertex 0.89537 1.59412 10
    endloop
  endfacet
  facet normal -0.546337 -0.837565 0
    outer loop
      vertex 0.829819 -1.18088 0
      vertex 0.953659 -1.26166 0
      vertex 0.829819 -1.18088 10
    endloop
  endfacet
  facet normal -0.546337 -0.837565 0
    outer loop
      vertex 0.829819 -1.18088 10
      vertex 0.953659 -1.26166 0
      vertex 0.953659 -1.26166 10
    endloop
  endfacet
  facet normal -0.608679 0.793417 0
    outer loop
      vertex 0.89537 1.59412 0
      vertex 0.89537 1.59412 10
      vertex 1.07231 1.72986 10
    endloop
  endfacet
  facet normal 0 0 -1
    outer loop
      vertex 0.89537 1.59412 0
      vertex 1.07231 1.72986 0
      vertex 1.3244 -1.46782 0
    endloop
  endfacet
  facet normal -0.608679 0.793417 0
    outer loop
      vertex 0.89537 1.59412 0
      vertex 1.07231 1.72986 10
      vertex 1.07231 1.72986 0
    endloop
  endfacet
  facet normal 0 0 -1
    outer loop
      vertex 0.89537 1.59412 0
      vertex 1.3244 -1.46782 0
      vertex 1.13171 -1.36644 0
    endloop
  endfacet
  facet normal -0 -0 1
    outer loop
      vertex 0.89537 1.59412 10
      vertex 1.13171 -1.36644 10
      vertex 1.3244 -1.46782 10
    endloop
  endfacet
  facet normal 0 0 1
    outer loop
      vertex 0.89537 1.59412 10
      vertex 1.3244 -1.46782 10
      vertex 1.07231 1.72986 10
    endloop
  endfacet
  facet normal -0.507178 -0.861841 0
    outer loop
      vertex 0.953659 -1.26166 0
      vertex 1.13171 -1.36644 0
      vertex 0.953659 -1.26166 10
    endloop
  endfacet
  facet normal -0.507178 -0.861841 0
    outer loop
      vertex 0.953659 -1.26166 10
      vertex 1.13171 -1.36644 0
      vertex 1.13171 -1.36644 10
    endloop
  endfacet
  facet normal -0.57341 0.819269 0
    outer loop
      vertex 1.07231 1.72986 0
      vertex 1.07231 1.72986 10
      vertex 1.26482 1.86459 10
    endloop
  endfacet
  facet normal 0 0 -1
    outer loop
      vertex 1.07231 1.72986 0
      vertex 1.26482 1.86459 0
      vertex 1.53159 -1.56577 0
    endloop
  endfacet
  facet normal -0.57341 0.819269 0
    outer loop
      vertex 1.07231 1.72986 0
      vertex 1.26482 1.86459 10
      vertex 1.26482 1.86459 0
    endloop
  endfacet
  facet normal 0 0 -1
    outer loop
      vertex 1.07231 1.72986 0
      vertex 1.53159 -1.56577 0
      vertex 1.3244 -1.46782 0
    endloop
  endfacet
  facet normal -0 -0 1
    outer loop
      vertex 1.07231 1.72986 10
      vertex 1.3244 -1.46782 10
      vertex 1.53159 -1.56577 10
    endloop
  endfacet
  facet normal 0 0 1
    outer loop
      vertex 1.07231 1.72986 10
      vertex 1.53159 -1.56577 10
      vertex 1.26482 1.86459 10
    endloop
  endfacet
  facet normal -0.465619 -0.884985 0
    outer loop
      vertex 1.13171 -1.36644 0
      vertex 1.3244 -1.46782 0
      vertex 1.13171 -1.36644 10
    endloop
  endfacet
  facet normal -0.465619 -0.884985 0
    outer loop
      vertex 1.13171 -1.36644 10
      vertex 1.3244 -1.46782 0
      vertex 1.3244 -1.46782 10
    endloop
  endfacet
  facet normal -0.540461 0.841369 0
    outer loop
      vertex 1.26482 1.86459 0
      vertex 1.26482 1.86459 10
      vertex 1.47281 1.9982 10
    endloop
  endfacet
  facet normal 0 0 -1
    outer loop
      vertex 1.26482 1.86459 0
      vertex 1.47281 1.9982 0
      vertex 1.75313 -1.66025 0
    endloop
  endfacet
  facet normal -0.540461 0.841369 0
    outer loop
      vertex 1.26482 1.86459 0
      vertex 1.47281 1.9982 10
      vertex 1.47281 1.9982 0
    endloop
  endfacet
  facet normal 0 0 -1
    outer loop
      vertex 1.26482 1.86459 0
      vertex 1.75313 -1.66025 0
      vertex 1.53159 -1.56577 0
    endloop
  endfacet
  facet normal 0 0 1
    outer loop
      vertex 1.26482 1.86459 10
      vertex 1.53159 -1.56577 10
      vertex 1.75313 -1.66025 10
    endloop
  endfacet
  facet normal 0 0 1
    outer loop
      vertex 1.26482 1.86459 10
      vertex 1.75313 -1.66025 10
      vertex 1.47281 1.9982 10
    endloop
  endfacet
  facet normal -0.427396 -0.904064 0
    outer loop
      vertex 1.3244 -1.46782 0
      vertex 1.53159 -1.56577 0
      vertex 1.3244 -1.46782 10
    endloop
  endfacet
  facet normal -0.427396 -0.904064 0
    outer loop
      vertex 1.3244 -1.46782 10
      vertex 1.53159 -1.56577 0
      vertex 1.53159 -1.56577 10
    endloop
  endfacet
  facet normal -0.509682 0.860363 0
    outer loop
      vertex 1.47281 1.9982 0
      vertex 1.47281 1.9982 10
      vertex 1.69615 2.13051 10
    endloop
  endfacet
  facet normal 0 0 -1
    outer loop
      vertex 1.47281 1.9982 0
      vertex 1.69615 2.13051 0
      vertex 1.98885 -1.75124 0
    endloop
  endfacet
  facet normal -0.509682 0.860363 0
    outer loop
      vertex 1.47281 1.9982 0
      vertex 1.69615 2.13051 10
      vertex 1.69615 2.13051 0
    endloop
  endfacet
  facet normal 0 0 -1
    outer loop
      vertex 1.47281 1.9982 0
      vertex 1.98885 -1.75124 0
      vertex 1.75313 -1.66025 0
    endloop
  endfacet
  facet normal 0 0 1
    outer loop
      vertex 1.47281 1.9982 10
      vertex 1.75313 -1.66025 10
      vertex 1.98885 -1.75124 10
    endloop
  endfacet
  facet normal 0 0 1
    outer loop
      vertex 1.47281 1.9982 10
      vertex 1.98885 -1.75124 10
      vertex 1.69615 2.13051 10
    endloop
  endfacet
  facet normal -0.39229 -0.919842 0
    outer loop
      vertex 1.53159 -1.56577 0
      vertex 1.75313 -1.66025 0
      vertex 1.53159 -1.56577 10
    endloop
  endfacet
  facet normal -0.39229 -0.919842 0
    outer loop
      vertex 1.53159 -1.56577 10
      vertex 1.75313 -1.66025 0
      vertex 1.75313 -1.66025 10
    endloop
  endfacet
  facet normal -0.480831 0.876813 0
    outer loop
      vertex 1.69615 2.13051 0
      vertex 1.69615 2.13051 10
      vertex 1.93472 2.26134 10
    endloop
  endfacet
  facet normal 0 -0 -1
    outer loop
      vertex 1.69615 2.13051 0
      vertex 1.93472 2.26134 0
      vertex 2.30319 -1.86 0
    endloop
  endfacet
  facet normal -0.480831 0.876813 0
    outer loop
      vertex 1.69615 2.13051 0
      vertex 1.93472 2.26134 10
      vertex 1.93472 2.26134 0
    endloop
  endfacet
  facet normal 0 0 -1
    outer loop
      vertex 1.69615 2.13051 0
      vertex 2.30319 -1.86 0
      vertex 1.98885 -1.75124 0
    endloop
  endfacet
  facet normal 0 0 1
    outer loop
      vertex 1.69615 2.13051 10
      vertex 1.98885 -1.75124 10
      vertex 2.30319 -1.86 10
    endloop
  endfacet
  facet normal -0 0 1
    outer loop
      vertex 1.69615 2.13051 10
      vertex 2.30319 -1.86 10
      vertex 1.93472 2.26134 10
    endloop
  endfacet
  facet normal -0.360108 -0.932911 0
    outer loop
      vertex 1.75313 -1.66025 0
      vertex 1.98885 -1.75124 0
      vertex 1.75313 -1.66025 10
    endloop
  endfacet
  facet normal -0.360108 -0.932911 0
    outer loop
      vertex 1.75313 -1.66025 10
      vertex 1.98885 -1.75124 0
      vertex 1.98885 -1.75124 10
    endloop
  endfacet
  facet normal -0.45389 0.891058 0
    outer loop
      vertex 1.93472 2.26134 0
      vertex 1.93472 2.26134 10
      vertex 2.18842 2.39056 10
    endloop
  endfacet
  facet normal 0 0 -1
    outer loop
      vertex 1.93472 2.26134 0
      vertex 2.18842 2.39056 0
      vertex 2.30319 -1.86 0
    endloop
  endfacet
  facet normal -0.45389 0.891058 0
    outer loop
      vertex 1.93472 2.26134 0
      vertex 2.18842 2.39056 10
      vertex 2.18842 2.39056 0
    endloop
  endfacet
  facet normal 0 0 1
    outer loop
      vertex 1.93472 2.26134 10
      vertex 2.30319 -1.86 10
      vertex 2.18842 2.39056 10
    endloop
  endfacet
  facet normal -0.326983 -0.94503 0
    outer loop
      vertex 1.98885 -1.75124 0
      vertex 2.30319 -1.86 0
      vertex 1.98885 -1.75124 10
    endloop
  endfacet
  facet normal -0.326983 -0.94503 0
    outer loop
      vertex 1.98885 -1.75124 10
      vertex 2.30319 -1.86 0
      vertex 2.30319 -1.86 10
    endloop
  endfacet
  facet normal -0.107728 0.99418 0
    outer loop
      vertex 10.0021 4.35306 0
      vertex 10.0021 4.35306 10
      vertex 10.7831 4.43768 10
    endloop
  endfacet
  facet normal 0 0 -1
    outer loop
      vertex 10.0021 4.35306 0
      vertex 10.7831 4.43768 0
      vertex 10.9852 -2.84587 0
    endloop
  endfacet
  facet normal -0.107728 0.99418 0
    outer loop
      vertex 10.0021 4.35306 0
      vertex 10.7831 4.43768 10
      vertex 10.7831 4.43768 0
    endloop
  endfacet
  facet normal 0 0 1
    outer loop
      vertex 10.0021 4.35306 10
      vertex 10.9852 -2.84587 10
      vertex 10.7831 4.43768 10
    endloop
  endfacet
  facet normal -0.0912036 0.995832 0
    outer loop
      vertex 10.7831 4.43768 0
      vertex 10.7831 4.43768 10
      vertex 11.5851 4.51114 10
    endloop
  endfacet
  facet normal 0 0 -1
    outer loop
      vertex 10.7831 4.43768 0
      vertex 11.5851 4.51114 0
      vertex 10.9852 -2.84587 0
    endloop
  endfacet
  facet normal -0.0912036 0.995832 0
    outer loop
      vertex 10.7831 4.43768 0
      vertex 11.5851 4.51114 10
      vertex 11.5851 4.51114 0
    endloop
  endfacet
  facet normal 0 0 1
    outer loop
      vertex 10.7831 4.43768 10
      vertex 10.9852 -2.84587 10
      vertex 11.5851 4.51114 10
    endloop
  endfacet
  facet normal 0 0 -1
    outer loop
      vertex 10.9852 -2.84587 0
      vertex 11.5851 4.51114 0
      vertex 12.417 -2.85223 0
    endloop
  endfacet
  facet normal -0.00444378 -0.99999 0
    outer loop
      vertex 10.9852 -2.84587 0
      vertex 12.417 -2.85223 0
      vertex 10.9852 -2.84587 10
    endloop
  endfacet
  facet normal -0.00444378 -0.99999 0
    outer loop
      vertex 10.9852 -2.84587 10
      vertex 12.417 -2.85223 0
      vertex 12.417 -2.85223 10
    endloop
  endfacet
  facet normal 0 0 1
    outer loop
      vertex 10.9852 -2.84587 10
      vertex 12.417 -2.85223 10
      vertex 11.5851 4.51114 10
    endloop
  endfacet
  facet normal -0.0752723 0.997163 0
    outer loop
      vertex 11.5851 4.51114 0
      vertex 11.5851 4.51114 10
      vertex 12.407 4.57318 10
    endloop
  endfacet
  facet normal 0 0 -1
    outer loop
      vertex 11.5851 4.51114 0
      vertex 12.407 4.57318 0
      vertex 12.417 -2.85223 0
    endloop
  endfacet
  facet normal -0.0752723 0.997163 0
    outer loop
      vertex 11.5851 4.51114 0
      vertex 12.407 4.57318 10
      vertex 12.407 4.57318 0
    endloop
  endfacet
  facet normal 0 0 1
    outer loop
      vertex 11.5851 4.51114 10
      vertex 12.417 -2.85223 10
      vertex 12.407 4.57318 10
    endloop
  endfacet
  facet normal -0.0598948 0.998205 0
    outer loop
      vertex 12.407 4.57318 0
      vertex 12.407 4.57318 10
      vertex 13.2475 4.62361 10
    endloop
  endfacet
  facet normal 0 0 -1
    outer loop
      vertex 12.407 4.57318 0
      vertex 13.2475 4.62361 0
      vertex 12.417 -2.85223 0
    endloop
  endfacet
  facet normal -0.0598948 0.998205 0
    outer loop
      vertex 12.407 4.57318 0
      vertex 13.2475 4.62361 10
      vertex 13.2475 4.62361 0
    endloop
  endfacet
  facet normal 0 -0 1
    outer loop
      vertex 12.407 4.57318 10
      vertex 12.417 -2.85223 10
      vertex 13.2475 4.62361 10
    endloop
  endfacet
  facet normal 0 -0 -1
    outer loop
      vertex 12.417 -2.85223 0
      vertex 13.2475 4.62361 0
      vertex 14.1831 -2.83237 0
    endloop
  endfacet
  facet normal 0.0112484 -0.999937 0
    outer loop
      vertex 12.417 -2.85223 0
      vertex 14.1831 -2.83237 0
      vertex 12.417 -2.85223 10
    endloop
  endfacet
  facet normal 0.0112484 -0.999937 0
    outer loop
      vertex 12.417 -2.85223 10
      vertex 14.1831 -2.83237 0
      vertex 14.1831 -2.83237 10
    endloop
  endfacet
  facet normal 0 0 1
    outer loop
      vertex 12.417 -2.85223 10
      vertex 14.1831 -2.83237 10
      vertex 13.2475 4.62361 10
    endloop
  endfacet
  facet normal -0.0450683 0.998984 0
    outer loop
      vertex 13.2475 4.62361 0
      vertex 13.2475 4.62361 10
      vertex 14.1052 4.66231 10
    endloop
  endfacet
  facet normal 0 -0 -1
    outer loop
      vertex 13.2475 4.62361 0
      vertex 14.1052 4.66231 0
      vertex 14.1831 -2.83237 0
    endloop
  endfacet
  facet normal -0.0450683 0.998984 0
    outer loop
      vertex 13.2475 4.62361 0
      vertex 14.1052 4.66231 10
      vertex 14.1052 4.66231 0
    endloop
  endfacet
  facet normal -0 0 1
    outer loop
      vertex 13.2475 4.62361 10
      vertex 14.1831 -2.83237 10
      vertex 14.1052 4.66231 10
    endloop
  endfacet
  facet normal -0.0307241 0.999528 0
    outer loop
      vertex 14.1052 4.66231 0
      vertex 14.1052 4.66231 10
      vertex 14.9789 4.68916 10
    endloop
  endfacet
  facet normal 0 0 -1
    outer loop
      vertex 14.1052 4.66231 0
      vertex 14.9789 4.68916 0
      vertex 14.1831 -2.83237 0
    endloop
  endfacet
  facet normal -0.0307241 0.999528 0
    outer loop
      vertex 14.1052 4.66231 0
      vertex 14.9789 4.68916 10
      vertex 14.9789 4.68916 0
    endloop
  endfacet
  facet normal -0 0 1
    outer loop
      vertex 14.1052 4.66231 10
      vertex 14.1831 -2.83237 10
      vertex 14.9789 4.68916 10
    endloop
  endfacet
  facet normal -0 0 -1
    outer loop
      vertex 14.1831 -2.83237 0
      vertex 14.9789 4.68916 0
      vertex 16.5964 -2.76775 0
    endloop
  endfacet
  facet normal 0.0267678 -0.999642 0
    outer loop
      vertex 14.1831 -2.83237 0
      vertex 16.5964 -2.76775 0
      vertex 14.1831 -2.83237 10
    endloop
  endfacet
  facet normal 0.0267678 -0.999642 0
    outer loop
      vertex 14.1831 -2.83237 10
      vertex 16.5964 -2.76775 0
      vertex 16.5964 -2.76775 10
    endloop
  endfacet
  facet normal 0 0 1
    outer loop
      vertex 14.1831 -2.83237 10
      vertex 16.5964 -2.76775 10
      vertex 14.9789 4.68916 10
    endloop
  endfacet
  facet normal -0.016901 0.999857 0
    outer loop
      vertex 14.9789 4.68916 0
      vertex 14.9789 4.68916 10
      vertex 15.8671 4.70418 10
    endloop
  endfacet
  facet normal 0 0 -1
    outer loop
      vertex 14.9789 4.68916 0
      vertex 15.8671 4.70418 0
      vertex 16.5964 -2.76775 0
    endloop
  endfacet
  facet normal -0.016901 0.999857 0
    outer loop
      vertex 14.9789 4.68916 0
      vertex 15.8671 4.70418 10
      vertex 15.8671 4.70418 0
    endloop
  endfacet
  facet normal 0 0 1
    outer loop
      vertex 14.9789 4.68916 10
      vertex 16.5964 -2.76775 10
      vertex 15.8671 4.70418 10
    endloop
  endfacet
  facet normal -0.00240576 0.999997 0
    outer loop
      vertex 15.8671 4.70418 0
      vertex 15.8671 4.70418 10
      vertex 16.92 4.70671 10
    endloop
  endfacet
  facet normal 0 0 -1
    outer loop
      vertex 15.8671 4.70418 0
      vertex 16.92 4.70671 0
      vertex 16.5964 -2.76775 0
    endloop
  endfacet
  facet normal -0.00240576 0.999997 0
    outer loop
      vertex 15.8671 4.70418 0
      vertex 16.92 4.70671 10
      vertex 16.92 4.70671 0
    endloop
  endfacet
  facet normal 0 0 1
    outer loop
      vertex 15.8671 4.70418 10
      vertex 16.5964 -2.76775 10
      vertex 16.92 4.70671 10
    endloop
  endfacet
  facet normal 0 0 -1
    outer loop
      vertex 16.5964 -2.76775 0
      vertex 16.92 4.70671 0
      vertex 17.9886 4.69325 0
    endloop
  endfacet
  facet normal 0 0 -1
    outer loop
      vertex 16.5964 -2.76775 0
      vertex 17.9886 4.69325 0
      vertex 20.3129 -2.61192 0
    endloop
  endfacet
  facet normal 0.0418897 -0.999122 0
    outer loop
      vertex 16.5964 -2.76775 0
      vertex 20.3129 -2.61192 0
      vertex 16.5964 -2.76775 10
    endloop
  endfacet
  facet normal 0 0 1
    outer loop
      vertex 16.5964 -2.76775 10
      vertex 17.9886 4.69325 10
      vertex 16.92 4.70671 10
    endloop
  endfacet
  facet normal 0.0418897 -0.999122 0
    outer loop
      vertex 16.5964 -2.76775 10
      vertex 20.3129 -2.61192 0
      vertex 20.3129 -2.61192 10
    endloop
  endfacet
  facet normal 0 0 1
    outer loop
      vertex 16.5964 -2.76775 10
      vertex 20.3129 -2.61192 10
      vertex 17.9886 4.69325 10
    endloop
  endfacet
  facet normal 0.0125929 0.999921 -0
    outer loop
      vertex 16.92 4.70671 0
      vertex 16.92 4.70671 10
      vertex 17.9886 4.69325 10
    endloop
  endfacet
  facet normal 0.0125929 0.999921 0
    outer loop
      vertex 16.92 4.70671 0
      vertex 17.9886 4.69325 10
      vertex 17.9886 4.69325 0
    endloop
  endfacet
  facet normal 0.0270351 0.999634 -0
    outer loop
      vertex 17.9886 4.69325 0
      vertex 17.9886 4.69325 10
      vertex 19.0708 4.66399 10
    endloop
  endfacet
  facet normal 0 0 -1
    outer loop
      vertex 17.9886 4.69325 0
      vertex 19.0708 4.66399 0
      vertex 20.3129 -2.61192 0
    endloop
  endfacet
  facet normal 0.0270351 0.999634 0
    outer loop
      vertex 17.9886 4.69325 0
      vertex 19.0708 4.66399 10
      vertex 19.0708 4.66399 0
    endloop
  endfacet
  facet normal 0 0 1
    outer loop
      vertex 17.9886 4.69325 10
      vertex 20.3129 -2.61192 10
      vertex 19.0708 4.66399 10
    endloop
  endfacet
  facet normal 0.0409579 0.999161 -0
    outer loop
      vertex 19.0708 4.66399 0
      vertex 19.0708 4.66399 10
      vertex 20.1626 4.61923 10
    endloop
  endfacet
  facet normal 0 0 -1
    outer loop
      vertex 19.0708 4.66399 0
      vertex 20.1626 4.61923 0
      vertex 20.3129 -2.61192 0
    endloop
  endfacet
  facet normal 0.0409579 0.999161 0
    outer loop
      vertex 19.0708 4.66399 0
      vertex 20.1626 4.61923 10
      vertex 20.1626 4.61923 0
    endloop
  endfacet
  facet normal 0 0 1
    outer loop
      vertex 19.0708 4.66399 10
      vertex 20.3129 -2.61192 10
      vertex 20.1626 4.61923 10
    endloop
  endfacet
  facet normal -0.428519 0.903533 0
    outer loop
      vertex 2.18842 2.39056 0
      vertex 2.18842 2.39056 10
      vertex 2.45706 2.51797 10
    endloop
  endfacet
  facet normal 0 0 -1
    outer loop
      vertex 2.18842 2.39056 0
      vertex 2.45706 2.51797 0
      vertex 2.6391 -1.96318 0
    endloop
  endfacet
  facet normal -0.428519 0.903533 0
    outer loop
      vertex 2.18842 2.39056 0
      vertex 2.45706 2.51797 10
      vertex 2.45706 2.51797 0
    endloop
  endfacet
  facet normal 0 0 -1
    outer loop
      vertex 2.18842 2.39056 0
      vertex 2.6391 -1.96318 0
      vertex 2.30319 -1.86 0
    endloop
  endfacet
  facet normal -0 -0 1
    outer loop
      vertex 2.18842 2.39056 10
      vertex 2.30319 -1.86 10
      vertex 2.6391 -1.96318 10
    endloop
  endfacet
  facet normal 0 0 1
    outer loop
      vertex 2.18842 2.39056 10
      vertex 2.6391 -1.96318 10
      vertex 2.45706 2.51797 10
    endloop
  endfacet
  facet normal -0.293628 -0.95592 0
    outer loop
      vertex 2.30319 -1.86 0
      vertex 2.6391 -1.96318 0
      vertex 2.30319 -1.86 10
    endloop
  endfacet
  facet normal -0.293628 -0.95592 0
    outer loop
      vertex 2.30319 -1.86 10
      vertex 2.6391 -1.96318 0
      vertex 2.6391 -1.96318 10
    endloop
  endfacet
  facet normal -0.401811 0.915722 0
    outer loop
      vertex 2.45706 2.51797 0
      vertex 2.45706 2.51797 10
      vertex 2.81367 2.67445 10
    endloop
  endfacet
  facet normal 0 0 -1
    outer loop
      vertex 2.45706 2.51797 0
      vertex 2.81367 2.67445 0
      vertex 2.99622 -2.06075 0
    endloop
  endfacet
  facet normal -0.401811 0.915722 0
    outer loop
      vertex 2.45706 2.51797 0
      vertex 2.81367 2.67445 10
      vertex 2.81367 2.67445 0
    endloop
  endfacet
  facet normal 0 0 -1
    outer loop
      vertex 2.45706 2.51797 0
      vertex 2.99622 -2.06075 0
      vertex 2.6391 -1.96318 0
    endloop
  endfacet
  facet normal 0 0 1
    outer loop
      vertex 2.45706 2.51797 10
      vertex 2.6391 -1.96318 10
      vertex 2.99622 -2.06075 10
    endloop
  endfacet
  facet normal 0 0 1
    outer loop
      vertex 2.45706 2.51797 10
      vertex 2.99622 -2.06075 10
      vertex 2.81367 2.67445 10
    endloop
  endfacet
  facet normal -0.263543 -0.964648 0
    outer loop
      vertex 2.6391 -1.96318 0
      vertex 2.99622 -2.06075 0
      vertex 2.6391 -1.96318 10
    endloop
  endfacet
  facet normal -0.263543 -0.964648 0
    outer loop
      vertex 2.6391 -1.96318 10
      vertex 2.99622 -2.06075 0
      vertex 2.99622 -2.06075 10
    endloop
  endfacet
  facet normal -0.37409 0.927392 0
    outer loop
      vertex 2.81367 2.67445 0
      vertex 2.81367 2.67445 10
      vertex 3.19308 2.8275 10
    endloop
  endfacet
  facet normal 0 0 -1
    outer loop
      vertex 2.81367 2.67445 0
      vertex 3.19308 2.8275 0
      vertex 3.37415 -2.1526 0
    endloop
  endfacet
  facet normal -0.37409 0.927392 0
    outer loop
      vertex 2.81367 2.67445 0
      vertex 3.19308 2.8275 10
      vertex 3.19308 2.8275 0
    endloop
  endfacet
  facet normal 0 0 -1
    outer loop
      vertex 2.81367 2.67445 0
      vertex 3.37415 -2.1526 0
      vertex 2.99622 -2.06075 0
    endloop
  endfacet
  facet normal 0 0 1
    outer loop
      vertex 2.81367 2.67445 10
      vertex 2.99622 -2.06075 10
      vertex 3.37415 -2.1526 10
    endloop
  endfacet
  facet normal 0 0 1
    outer loop
      vertex 2.81367 2.67445 10
      vertex 3.37415 -2.1526 10
      vertex 3.19308 2.8275 10
    endloop
  endfacet
  facet normal -0.236179 -0.971709 0
    outer loop
      vertex 2.99622 -2.06075 0
      vertex 3.37415 -2.1526 0
      vertex 2.99622 -2.06075 10
    endloop
  endfacet
  facet normal -0.236179 -0.971709 0
    outer loop
      vertex 2.99622 -2.06075 10
      vertex 3.37415 -2.1526 0
      vertex 3.37415 -2.1526 10
    endloop
  endfacet
  facet normal 0.0542891 0.998525 -0
    outer loop
      vertex 20.1626 4.61923 0
      vertex 20.1626 4.61923 10
      vertex 21.5675 4.54285 10
    endloop
  endfacet
  facet normal 0 0 -1
    outer loop
      vertex 20.1626 4.61923 0
      vertex 21.5675 4.54285 0
      vertex 20.3129 -2.61192 0
    endloop
  endfacet
  facet normal 0.0542891 0.998525 0
    outer loop
      vertex 20.1626 4.61923 0
      vertex 21.5675 4.54285 10
      vertex 21.5675 4.54285 0
    endloop
  endfacet
  facet normal 0 -0 1
    outer loop
      vertex 20.1626 4.61923 10
      vertex 20.3129 -2.61192 10
      vertex 21.5675 4.54285 10
    endloop
  endfacet
  facet normal 0 -0 -1
    outer loop
      vertex 20.3129 -2.61192 0
      vertex 21.5675 4.54285 0
      vertex 23.4041 -2.4386 0
    endloop
  endfacet
  facet normal 0.0559826 -0.998432 0
    outer loop
      vertex 20.3129 -2.61192 0
      vertex 23.4041 -2.4386 0
      vertex 20.3129 -2.61192 10
    endloop
  endfacet
  facet normal 0.0559826 -0.998432 0
    outer loop
      vertex 20.3129 -2.61192 10
      vertex 23.4041 -2.4386 0
      vertex 23.4041 -2.4386 10
    endloop
  endfacet
  facet normal 0 0 1
    outer loop
      vertex 20.3129 -2.61192 10
      vertex 23.4041 -2.4386 10
      vertex 21.5675 4.54285 10
    endloop
  endfacet
  facet normal 0.0675357 0.997717 -0
    outer loop
      vertex 21.5675 4.54285 0
      vertex 21.5675 4.54285 10
      vertex 23.1407 4.43636 10
    endloop
  endfacet
  facet normal -0 -0 -1
    outer loop
      vertex 21.5675 4.54285 0
      vertex 23.1407 4.43636 0
      vertex 23.4041 -2.4386 0
    endloop
  endfacet
  facet normal 0.0675357 0.997717 0
    outer loop
      vertex 21.5675 4.54285 0
      vertex 23.1407 4.43636 10
      vertex 23.1407 4.43636 0
    endloop
  endfacet
  facet normal 0 0 1
    outer loop
      vertex 21.5675 4.54285 10
      vertex 23.4041 -2.4386 10
      vertex 23.1407 4.43636 10
    endloop
  endfacet
  facet normal 0.0805491 0.996751 -0
    outer loop
      vertex 23.1407 4.43636 0
      vertex 23.1407 4.43636 10
      vertex 24.7206 4.30869 10
    endloop
  endfacet
  facet normal -0 0 -1
    outer loop
      vertex 23.1407 4.43636 0
      vertex 24.7206 4.30869 0
      vertex 23.4041 -2.4386 0
    endloop
  endfacet
  facet normal 0.0805491 0.996751 0
    outer loop
      vertex 23.1407 4.43636 0
      vertex 24.7206 4.30869 10
      vertex 24.7206 4.30869 0
    endloop
  endfacet
  facet normal 0 0 1
    outer loop
      vertex 23.1407 4.43636 10
      vertex 23.4041 -2.4386 10
      vertex 24.7206 4.30869 10
    endloop
  endfacet
  facet normal -0 0 -1
    outer loop
      vertex 23.4041 -2.4386 0
      vertex 24.7206 4.30869 0
      vertex 26.4584 4.14597 0
    endloop
  endfacet
  facet normal -0 0 -1
    outer loop
      vertex 23.4041 -2.4386 0
      vertex 26.4584 4.14597 0
      vertex 28.0785 -2.10931 0
    endloop
  endfacet
  facet normal 0.0702709 -0.997528 0
    outer loop
      vertex 23.4041 -2.4386 0
      vertex 28.0785 -2.10931 0
      vertex 23.4041 -2.4386 10
    endloop
  endfacet
  facet normal 0 0 1
    outer loop
      vertex 23.4041 -2.4386 10
      vertex 26.4584 4.14597 10
      vertex 24.7206 4.30869 10
    endloop
  endfacet
  facet normal 0.0702709 -0.997528 0
    outer loop
      vertex 23.4041 -2.4386 10
      vertex 28.0785 -2.10931 0
      vertex 28.0785 -2.10931 10
    endloop
  endfacet
  facet normal 0 0 1
    outer loop
      vertex 23.4041 -2.4386 10
      vertex 28.0785 -2.10931 10
      vertex 26.4584 4.14597 10
    endloop
  endfacet
  facet normal 0.0932232 0.995645 -0
    outer loop
      vertex 24.7206 4.30869 0
      vertex 24.7206 4.30869 10
      vertex 26.4584 4.14597 10
    endloop
  endfacet
  facet normal 0.0932232 0.995645 0
    outer loop
      vertex 24.7206 4.30869 0
      vertex 26.4584 4.14597 10
      vertex 26.4584 4.14597 0
    endloop
  endfacet
  facet normal 0.106111 0.994354 -0
    outer loop
      vertex 26.4584 4.14597 0
      vertex 26.4584 4.14597 10
      vertex 28.3447 3.94467 10
    endloop
  endfacet
  facet normal -0 0 -1
    outer loop
      vertex 26.4584 4.14597 0
      vertex 28.3447 3.94467 0
      vertex 28.0785 -2.10931 0
    endloop
  endfacet
  facet normal 0.106111 0.994354 0
    outer loop
      vertex 26.4584 4.14597 0
      vertex 28.3447 3.94467 10
      vertex 28.3447 3.94467 0
    endloop
  endfacet
  facet normal 0 0 1
    outer loop
      vertex 26.4584 4.14597 10
      vertex 28.0785 -2.10931 10
      vertex 28.3447 3.94467 10
    endloop
  endfacet
  facet normal -0 0 -1
    outer loop
      vertex 28.0785 -2.10931 0
      vertex 28.3447 3.94467 0
      vertex 30.3647 3.70247 0
    endloop
  endfacet
  facet normal 0 -0 -1
    outer loop
      vertex 28.0785 -2.10931 0
      vertex 30.3647 3.70247 0
      vertex 32.4976 3.41856 0
    endloop
  endfacet
  facet normal 0 -0 -1
    outer loop
      vertex 28.0785 -2.10931 0
      vertex 32.4976 3.41856 0
      vertex 34.8604 3.07196 0
    endloop
  endfacet
  facet normal 0 0 -1
    outer loop
      vertex 28.0785 -2.10931 0
      vertex 34.8604 3.07196 0
      vertex 37.395 2.66406 0
    endloop
  endfacet
  facet normal 0 0 -1
    outer loop
      vertex 28.0785 -2.10931 0
      vertex 37.395 2.66406 0
      vertex 40.0205 2.20296 0
    endloop
  endfacet
  facet normal -0 0 -1
    outer loop
      vertex 28.0785 -2.10931 0
      vertex 40.0205 2.20296 0
      vertex 42.9606 1.63988 0
    endloop
  endfacet
  facet normal 0 -0 -1
    outer loop
      vertex 28.0785 -2.10931 0
      vertex 42.9606 1.63988 0
      vertex 46.1505 0.971481 0
    endloop
  endfacet
  facet normal 0 0 -1
    outer loop
      vertex 28.0785 -2.10931 0
      vertex 46.1505 0.971481 0
      vertex 49.9948 -0.0785675 0
    endloop
  endfacet
  facet normal 0.092264 -0.995735 0
    outer loop
      vertex 28.0785 -2.10931 0
      vertex 49.9948 -0.0785675 0
      vertex 28.0785 -2.10931 10
    endloop
  endfacet
  facet normal 0 0 1
    outer loop
      vertex 28.0785 -2.10931 10
      vertex 30.3647 3.70247 10
      vertex 28.3447 3.94467 10
    endloop
  endfacet
  facet normal 0 0 1
    outer loop
      vertex 28.0785 -2.10931 10
      vertex 32.4976 3.41856 10
      vertex 30.3647 3.70247 10
    endloop
  endfacet
  facet normal 0 0 1
    outer loop
      vertex 28.0785 -2.10931 10
      vertex 34.8604 3.07196 10
      vertex 32.4976 3.41856 10
    endloop
  endfacet
  facet normal 0 0 1
    outer loop
      vertex 28.0785 -2.10931 10
      vertex 37.395 2.66406 10
      vertex 34.8604 3.07196 10
    endloop
  endfacet
  facet normal 0 0 1
    outer loop
      vertex 28.0785 -2.10931 10
      vertex 40.0205 2.20296 10
      vertex 37.395 2.66406 10
    endloop
  endfacet
  facet normal 0 0 1
    outer loop
      vertex 28.0785 -2.10931 10
      vertex 42.9606 1.63988 10
      vertex 40.0205 2.20296 10
    endloop
  endfacet
  facet normal 0 0 1
    outer loop
      vertex 28.0785 -2.10931 10
      vertex 46.1505 0.971481 10
      vertex 42.9606 1.63988 10
    endloop
  endfacet
  facet normal 0.092264 -0.995735 0
    outer loop
      vertex 28.0785 -2.10931 10
      vertex 49.9948 -0.0785675 0
      vertex 49.9948 -0.0785675 10
    endloop
  endfacet
  facet normal 0 0 1
    outer loop
      vertex 28.0785 -2.10931 10
      vertex 49.9948 -0.0785675 10
      vertex 46.1505 0.971481 10
    endloop
  endfacet
  facet normal 0.11905 0.992888 -0
    outer loop
      vertex 28.3447 3.94467 0
      vertex 28.3447 3.94467 10
      vertex 30.3647 3.70247 10
    endloop
  endfacet
  facet normal 0.11905 0.992888 0
    outer loop
      vertex 28.3447 3.94467 0
      vertex 30.3647 3.70247 10
      vertex 30.3647 3.70247 0
    endloop
  endfacet
  facet normal -0.348251 0.937401 0
    outer loop
      vertex 3.19308 2.8275 0
      vertex 3.19308 2.8275 10
      vertex 3.59494 2.97679 10
    endloop
  endfacet
  facet normal 0 0 -1
    outer loop
      vertex 3.19308 2.8275 0
      vertex 3.59494 2.97679 0
      vertex 3.85458 -2.25529 0
    endloop
  endfacet
  facet normal -0.348251 0.937401 0
    outer loop
      vertex 3.19308 2.8275 0
      vertex 3.59494 2.97679 10
      vertex 3.59494 2.97679 0
    endloop
  endfacet
  facet normal 0 0 -1
    outer loop
      vertex 3.19308 2.8275 0
      vertex 3.85458 -2.25529 0
      vertex 3.37415 -2.1526 0
    endloop
  endfacet
  facet normal 0 0 1
    outer loop
      vertex 3.19308 2.8275 10
      vertex 3.37415 -2.1526 10
      vertex 3.85458 -2.25529 10
    endloop
  endfacet
  facet normal 0 0 1
    outer loop
      vertex 3.19308 2.8275 10
      vertex 3.85458 -2.25529 10
      vertex 3.59494 2.97679 10
    endloop
  endfacet
  facet normal -0.209024 -0.97791 0
    outer loop
      vertex 3.37415 -2.1526 0
      vertex 3.85458 -2.25529 0
      vertex 3.37415 -2.1526 10
    endloop
  endfacet
  facet normal -0.209024 -0.97791 0
    outer loop
      vertex 3.37415 -2.1526 10
      vertex 3.85458 -2.25529 0
      vertex 3.85458 -2.25529 10
    endloop
  endfacet
  facet normal -0.323951 0.946074 0
    outer loop
      vertex 3.59494 2.97679 0
      vertex 3.59494 2.97679 10
      vertex 4.01886 3.12195 10
    endloop
  endfacet
  facet normal 0 -0 -1
    outer loop
      vertex 3.59494 2.97679 0
      vertex 4.01886 3.12195 0
      vertex 4.36374 -2.34969 0
    endloop
  endfacet
  facet normal -0.323951 0.946074 0
    outer loop
      vertex 3.59494 2.97679 0
      vertex 4.01886 3.12195 10
      vertex 4.01886 3.12195 0
    endloop
  endfacet
  facet normal 0 0 -1
    outer loop
      vertex 3.59494 2.97679 0
      vertex 4.36374 -2.34969 0
      vertex 3.85458 -2.25529 0
    endloop
  endfacet
  facet normal 0 0 1
    outer loop
      vertex 3.59494 2.97679 10
      vertex 3.85458 -2.25529 10
      vertex 4.36374 -2.34969 10
    endloop
  endfacet
  facet normal -0 0 1
    outer loop
      vertex 3.59494 2.97679 10
      vertex 4.36374 -2.34969 10
      vertex 4.01886 3.12195 10
    endloop
  endfacet
  facet normal -0.182281 -0.983246 0
    outer loop
      vertex 3.85458 -2.25529 0
      vertex 4.36374 -2.34969 0
      vertex 3.85458 -2.25529 10
    endloop
  endfacet
  facet normal -0.182281 -0.983246 0
    outer loop
      vertex 3.85458 -2.25529 10
      vertex 4.36374 -2.34969 0
      vertex 4.36374 -2.34969 10
    endloop
  endfacet
  facet normal 0.131948 0.991257 -0
    outer loop
      vertex 30.3647 3.70247 0
      vertex 30.3647 3.70247 10
      vertex 32.4976 3.41856 10
    endloop
  endfacet
  facet normal 0.131948 0.991257 0
    outer loop
      vertex 30.3647 3.70247 0
      vertex 32.4976 3.41856 10
      vertex 32.4976 3.41856 0
    endloop
  endfacet
  facet normal 0.145137 0.989412 -0
    outer loop
      vertex 32.4976 3.41856 0
      vertex 32.4976 3.41856 10
      vertex 34.8604 3.07196 10
    endloop
  endfacet
  facet normal 0.145137 0.989412 0
    outer loop
      vertex 32.4976 3.41856 0
      vertex 34.8604 3.07196 10
      vertex 34.8604 3.07196 0
    endloop
  endfacet
  facet normal 0.158884 0.987297 -0
    outer loop
      vertex 34.8604 3.07196 0
      vertex 34.8604 3.07196 10
      vertex 37.395 2.66406 10
    endloop
  endfacet
  facet normal 0.158884 0.987297 0
    outer loop
      vertex 34.8604 3.07196 0
      vertex 37.395 2.66406 10
      vertex 37.395 2.66406 0
    endloop
  endfacet
  facet normal 0.172978 0.984926 -0
    outer loop
      vertex 37.395 2.66406 0
      vertex 37.395 2.66406 10
      vertex 40.0205 2.20296 10
    endloop
  endfacet
  facet normal 0.172978 0.984926 0
    outer loop
      vertex 37.395 2.66406 0
      vertex 40.0205 2.20296 10
      vertex 40.0205 2.20296 0
    endloop
  endfacet
  facet normal -0.301091 0.953595 0
    outer loop
      vertex 4.01886 3.12195 0
      vertex 4.01886 3.12195 10
      vertex 4.46443 3.26263 10
    endloop
  endfacet
  facet normal 0 -0 -1
    outer loop
      vertex 4.01886 3.12195 0
      vertex 4.46443 3.26263 0
      vertex 4.90085 -2.43575 0
    endloop
  endfacet
  facet normal -0.301091 0.953595 0
    outer loop
      vertex 4.01886 3.12195 0
      vertex 4.46443 3.26263 10
      vertex 4.46443 3.26263 0
    endloop
  endfacet
  facet normal 0 0 -1
    outer loop
      vertex 4.01886 3.12195 0
      vertex 4.90085 -2.43575 0
      vertex 4.36374 -2.34969 0
    endloop
  endfacet
  facet normal 0 0 1
    outer loop
      vertex 4.01886 3.12195 10
      vertex 4.36374 -2.34969 10
      vertex 4.90085 -2.43575 10
    endloop
  endfacet
  facet normal -0 0 1
    outer loop
      vertex 4.01886 3.12195 10
      vertex 4.90085 -2.43575 10
      vertex 4.46443 3.26263 10
    endloop
  endfacet
  facet normal -0.158209 -0.987406 0
    outer loop
      vertex 4.36374 -2.34969 0
      vertex 4.90085 -2.43575 0
      vertex 4.36374 -2.34969 10
    endloop
  endfacet
  facet normal -0.158209 -0.987406 0
    outer loop
      vertex 4.36374 -2.34969 10
      vertex 4.90085 -2.43575 0
      vertex 4.90085 -2.43575 10
    endloop
  endfacet
  facet normal -0.279526 0.960138 0
    outer loop
      vertex 4.46443 3.26263 0
      vertex 4.46443 3.26263 10
      vertex 4.93121 3.39853 10
    endloop
  endfacet
  facet normal 0 0 -1
    outer loop
      vertex 4.46443 3.26263 0
      vertex 4.93121 3.39853 0
      vertex 4.90085 -2.43575 0
    endloop
  endfacet
  facet normal -0.279526 0.960138 0
    outer loop
      vertex 4.46443 3.26263 0
      vertex 4.93121 3.39853 10
      vertex 4.93121 3.39853 0
    endloop
  endfacet
  facet normal 0 -0 1
    outer loop
      vertex 4.46443 3.26263 10
      vertex 4.90085 -2.43575 10
      vertex 4.93121 3.39853 10
    endloop
  endfacet
  facet normal 0 -0 -1
    outer loop
      vertex 4.90085 -2.43575 0
      vertex 4.93121 3.39853 0
      vertex 5.5618 -2.52562 0
    endloop
  endfacet
  facet normal -0.134738 -0.990881 0
    outer loop
      vertex 4.90085 -2.43575 0
      vertex 5.5618 -2.52562 0
      vertex 4.90085 -2.43575 10
    endloop
  endfacet
  facet normal -0.134738 -0.990881 0
    outer loop
      vertex 4.90085 -2.43575 10
      vertex 5.5618 -2.52562 0
      vertex 5.5618 -2.52562 10
    endloop
  endfacet
  facet normal -0 0 1
    outer loop
      vertex 4.90085 -2.43575 10
      vertex 5.5618 -2.52562 10
      vertex 4.93121 3.39853 10
    endloop
  endfacet
  facet normal -0.258981 0.965882 0
    outer loop
      vertex 4.93121 3.39853 0
      vertex 4.93121 3.39853 10
      vertex 5.41875 3.52925 10
    endloop
  endfacet
  facet normal 0 0 -1
    outer loop
      vertex 4.93121 3.39853 0
      vertex 5.41875 3.52925 0
      vertex 5.5618 -2.52562 0
    endloop
  endfacet
  facet normal -0.258981 0.965882 0
    outer loop
      vertex 4.93121 3.39853 0
      vertex 5.41875 3.52925 10
      vertex 5.41875 3.52925 0
    endloop
  endfacet
  facet normal 0 0 1
    outer loop
      vertex 4.93121 3.39853 10
      vertex 5.5618 -2.52562 10
      vertex 5.41875 3.52925 10
    endloop
  endfacet
  facet normal 0.1881 0.98215 -0
    outer loop
      vertex 40.0205 2.20296 0
      vertex 40.0205 2.20296 10
      vertex 42.9606 1.63988 10
    endloop
  endfacet
  facet normal 0.1881 0.98215 0
    outer loop
      vertex 40.0205 2.20296 0
      vertex 42.9606 1.63988 10
      vertex 42.9606 1.63988 0
    endloop
  endfacet
  facet normal 0.205084 0.978744 -0
    outer loop
      vertex 42.9606 1.63988 0
      vertex 42.9606 1.63988 10
      vertex 46.1505 0.971481 10
    endloop
  endfacet
  facet normal 0.205084 0.978744 0
    outer loop
      vertex 42.9606 1.63988 0
      vertex 46.1505 0.971481 10
      vertex 46.1505 0.971481 0
    endloop
  endfacet
  facet normal 0.225662 0.974206 -0
    outer loop
      vertex 46.1505 0.971481 0
      vertex 46.1505 0.971481 10
      vertex 50.0047 0.0786896 10
    endloop
  endfacet
  facet normal 0 0 -1
    outer loop
      vertex 46.1505 0.971481 0
      vertex 50.0047 0.0786896 0
      vertex 49.9948 -0.0785675 0
    endloop
  endfacet
  facet normal 0.225662 0.974206 0
    outer loop
      vertex 46.1505 0.971481 0
      vertex 50.0047 0.0786896 10
      vertex 50.0047 0.0786896 0
    endloop
  endfacet
  facet normal 0 -0 1
    outer loop
      vertex 46.1505 0.971481 10
      vertex 49.9948 -0.0785675 10
      vertex 50.0047 0.0786896 10
    endloop
  endfacet
  facet normal 0.997986 -0.0634272 0
    outer loop
      vertex 49.9948 -0.0785675 0
      vertex 50.0047 0.0786896 0
      vertex 49.9948 -0.0785675 10
    endloop
  endfacet
  facet normal 0.997986 -0.0634272 0
    outer loop
      vertex 49.9948 -0.0785675 10
      vertex 50.0047 0.0786896 0
      vertex 50.0047 0.0786896 10
    endloop
  endfacet
  facet normal -0.239493 0.970898 0
    outer loop
      vertex 5.41875 3.52925 0
      vertex 5.41875 3.52925 10
      vertex 5.92654 3.65451 10
    endloop
  endfacet
  facet normal 0 0 -1
    outer loop
      vertex 5.41875 3.52925 0
      vertex 5.92654 3.65451 0
      vertex 6.2585 -2.60419 0
    endloop
  endfacet
  facet normal -0.239493 0.970898 0
    outer loop
      vertex 5.41875 3.52925 0
      vertex 5.92654 3.65451 10
      vertex 5.92654 3.65451 0
    endloop
  endfacet
  facet normal 0 0 -1
    outer loop
      vertex 5.41875 3.52925 0
      vertex 6.2585 -2.60419 0
      vertex 5.5618 -2.52562 0
    endloop
  endfacet
  facet normal 0 0 1
    outer loop
      vertex 5.41875 3.52925 10
      vertex 5.5618 -2.52562 10
      vertex 6.2585 -2.60419 10
    endloop
  endfacet
  facet normal 0 0 1
    outer loop
      vertex 5.41875 3.52925 10
      vertex 6.2585 -2.60419 10
      vertex 5.92654 3.65451 10
    endloop
  endfacet
  facet normal -0.11206 -0.993701 0
    outer loop
      vertex 5.5618 -2.52562 0
      vertex 6.2585 -2.60419 0
      vertex 5.5618 -2.52562 10
    endloop
  endfacet
  facet normal -0.11206 -0.993701 0
    outer loop
      vertex 5.5618 -2.52562 10
      vertex 6.2585 -2.60419 0
      vertex 6.2585 -2.60419 10
    endloop
  endfacet
  facet normal -0.220857 0.975306 0
    outer loop
      vertex 5.92654 3.65451 0
      vertex 5.92654 3.65451 10
      vertex 6.45409 3.77397 10
    endloop
  endfacet
  facet normal 0 0 -1
    outer loop
      vertex 5.92654 3.65451 0
      vertex 6.45409 3.77397 0
      vertex 6.2585 -2.60419 0
    endloop
  endfacet
  facet normal -0.220857 0.975306 0
    outer loop
      vertex 5.92654 3.65451 0
      vertex 6.45409 3.77397 10
      vertex 6.45409 3.77397 0
    endloop
  endfacet
  facet normal 0 0 1
    outer loop
      vertex 5.92654 3.65451 10
      vertex 6.2585 -2.60419 10
      vertex 6.45409 3.77397 10
    endloop
  endfacet
  facet normal 0 -0 -1
    outer loop
      vertex 6.10352e-05 0.243744 0
      vertex 0.0150757 0.348267 0
      vertex 0.0590668 -0.272278 0
    endloop
  endfacet
  facet normal -0.989839 0.14219 0
    outer loop
      vertex 6.10352e-05 0.243744 0
      vertex 0.0150757 0.348267 10
      vertex 0.0150757 0.348267 0
    endloop
  endfacet
  facet normal 0 0 -1
    outer loop
      vertex 6.10352e-05 0.243744 0
      vertex 0.0590668 -0.272278 0
      vertex 0.0296021 -0.171616 0
    endloop
  endfacet
  facet normal -0.989839 0.14219 0
    outer loop
      vertex 6.10352e-05 0.243744 0
      vertex 6.10352e-05 0.243744 10
      vertex 0.0150757 0.348267 10
    endloop
  endfacet
  facet normal 0 0 1
    outer loop
      vertex 6.10352e-05 0.243744 10
      vertex 0.0296021 -0.171616 10
      vertex 0.0590668 -0.272278 10
    endloop
  endfacet
  facet normal -0 0 1
    outer loop
      vertex 6.10352e-05 0.243744 10
      vertex 0.0590668 -0.272278 10
      vertex 0.0150757 0.348267 10
    endloop
  endfacet
  facet normal 0 0 -1
    outer loop
      vertex 6.2585 -2.60419 0
      vertex 6.45409 3.77397 0
      vertex 6.98964 -2.67154 0
    endloop
  endfacet
  facet normal -0.0917311 -0.995784 0
    outer loop
      vertex 6.2585 -2.60419 0
      vertex 6.98964 -2.67154 0
      vertex 6.2585 -2.60419 10
    endloop
  endfacet
  facet normal -0.0917311 -0.995784 0
    outer loop
      vertex 6.2585 -2.60419 10
      vertex 6.98964 -2.67154 0
      vertex 6.98964 -2.67154 10
    endloop
  endfacet
  facet normal 0 0 1
    outer loop
      vertex 6.2585 -2.60419 10
      vertex 6.98964 -2.67154 10
      vertex 6.45409 3.77397 10
    endloop
  endfacet
  facet normal -0.201261 0.979538 0
    outer loop
      vertex 6.45409 3.77397 0
      vertex 6.45409 3.77397 10
      vertex 7.11244 3.90924 10
    endloop
  endfacet
  facet normal 0 0 -1
    outer loop
      vertex 6.45409 3.77397 0
      vertex 7.11244 3.90924 0
      vertex 6.98964 -2.67154 0
    endloop
  endfacet
  facet normal -0.201261 0.979538 0
    outer loop
      vertex 6.45409 3.77397 0
      vertex 7.11244 3.90924 10
      vertex 7.11244 3.90924 0
    endloop
  endfacet
  facet normal 0 0 1
    outer loop
      vertex 6.45409 3.77397 10
      vertex 6.98964 -2.67154 10
      vertex 7.11244 3.90924 10
    endloop
  endfacet
  facet normal 0 0 -1
    outer loop
      vertex 6.98964 -2.67154 0
      vertex 7.11244 3.90924 0
      vertex 7.86563 -2.73497 0
    endloop
  endfacet
  facet normal -0.0722212 -0.997389 0
    outer loop
      vertex 6.98964 -2.67154 0
      vertex 7.86563 -2.73497 0
      vertex 6.98964 -2.67154 10
    endloop
  endfacet
  facet normal -0.0722212 -0.997389 0
    outer loop
      vertex 6.98964 -2.67154 10
      vertex 7.86563 -2.73497 0
      vertex 7.86563 -2.73497 10
    endloop
  endfacet
  facet normal 0 0 1
    outer loop
      vertex 6.98964 -2.67154 10
      vertex 7.86563 -2.73497 10
      vertex 7.11244 3.90924 10
    endloop
  endfacet
  facet normal -0.180888 0.983504 0
    outer loop
      vertex 7.11244 3.90924 0
      vertex 7.11244 3.90924 10
      vertex 7.79747 4.03523 10
    endloop
  endfacet
  facet normal 0 -0 -1
    outer loop
      vertex 7.11244 3.90924 0
      vertex 7.79747 4.03523 0
      vertex 7.86563 -2.73497 0
    endloop
  endfacet
  facet normal -0.180888 0.983504 0
    outer loop
      vertex 7.11244 3.90924 0
      vertex 7.79747 4.03523 10
      vertex 7.79747 4.03523 0
    endloop
  endfacet
  facet normal -0 0 1
    outer loop
      vertex 7.11244 3.90924 10
      vertex 7.86563 -2.73497 10
      vertex 7.79747 4.03523 10
    endloop
  endfacet
  facet normal -0.161423 0.986885 0
    outer loop
      vertex 7.79747 4.03523 0
      vertex 7.79747 4.03523 10
      vertex 8.50813 4.15147 10
    endloop
  endfacet
  facet normal 0 -0 -1
    outer loop
      vertex 7.79747 4.03523 0
      vertex 8.50813 4.15147 0
      vertex 8.90016 -2.78946 0
    endloop
  endfacet
  facet normal -0.161423 0.986885 0
    outer loop
      vertex 7.79747 4.03523 0
      vertex 8.50813 4.15147 10
      vertex 8.50813 4.15147 0
    endloop
  endfacet
  facet normal 0 0 -1
    outer loop
      vertex 7.79747 4.03523 0
      vertex 8.90016 -2.78946 0
      vertex 7.86563 -2.73497 0
    endloop
  endfacet
  facet normal 0 0 1
    outer loop
      vertex 7.79747 4.03523 10
      vertex 7.86563 -2.73497 10
      vertex 8.90016 -2.78946 10
    endloop
  endfacet
  facet normal -0 0 1
    outer loop
      vertex 7.79747 4.03523 10
      vertex 8.90016 -2.78946 10
      vertex 8.50813 4.15147 10
    endloop
  endfacet
  facet normal -0.0525975 -0.998616 0
    outer loop
      vertex 7.86563 -2.73497 0
      vertex 8.90016 -2.78946 0
      vertex 7.86563 -2.73497 10
    endloop
  endfacet
  facet normal -0.0525975 -0.998616 0
    outer loop
      vertex 7.86563 -2.73497 10
      vertex 8.90016 -2.78946 0
      vertex 8.90016 -2.78946 10
    endloop
  endfacet
  facet normal -0.142779 0.989755 0
    outer loop
      vertex 8.50813 4.15147 0
      vertex 8.50813 4.15147 10
      vertex 9.24338 4.25754 10
    endloop
  endfacet
  facet normal 0 0 -1
    outer loop
      vertex 8.50813 4.15147 0
      vertex 9.24338 4.25754 0
      vertex 8.90016 -2.78946 0
    endloop
  endfacet
  facet normal -0.142779 0.989755 0
    outer loop
      vertex 8.50813 4.15147 0
      vertex 9.24338 4.25754 10
      vertex 9.24338 4.25754 0
    endloop
  endfacet
  facet normal -0 0 1
    outer loop
      vertex 8.50813 4.15147 10
      vertex 8.90016 -2.78946 10
      vertex 9.24338 4.25754 10
    endloop
  endfacet
  facet normal 0 -0 -1
    outer loop
      vertex 8.90016 -2.78946 0
      vertex 9.24338 4.25754 0
      vertex 9.9836 -2.82666 0
    endloop
  endfacet
  facet normal -0.0343159 -0.999411 0
    outer loop
      vertex 8.90016 -2.78946 0
      vertex 9.9836 -2.82666 0
      vertex 8.90016 -2.78946 10
    endloop
  endfacet
  facet normal -0.0343159 -0.999411 0
    outer loop
      vertex 8.90016 -2.78946 10
      vertex 9.9836 -2.82666 0
      vertex 9.9836 -2.82666 10
    endloop
  endfacet
  facet normal -0 0 1
    outer loop
      vertex 8.90016 -2.78946 10
      vertex 9.9836 -2.82666 10
      vertex 9.24338 4.25754 10
    endloop
  endfacet
  facet normal 0 0 -1
    outer loop
      vertex 9.24338 4.25754 0
      vertex 10.0021 4.35306 0
      vertex 9.9836 -2.82666 0
    endloop
  endfacet
  facet normal -0.124914 0.992168 0
    outer loop
      vertex 9.24338 4.25754 0
      vertex 10.0021 4.35306 10
      vertex 10.0021 4.35306 0
    endloop
  endfacet
  facet normal -0.124914 0.992168 0
    outer loop
      vertex 9.24338 4.25754 0
      vertex 9.24338 4.25754 10
      vertex 10.0021 4.35306 10
    endloop
  endfacet
  facet normal -0 0 1
    outer loop
      vertex 9.24338 4.25754 10
      vertex 9.9836 -2.82666 10
      vertex 10.0021 4.35306 10
    endloop
  endfacet
  facet normal 0 0 -1
    outer loop
      vertex 9.9836 -2.82666 0
      vertex 10.0021 4.35306 0
      vertex 10.9852 -2.84587 0
    endloop
  endfacet
  facet normal -0.0191774 -0.999816 0
    outer loop
      vertex 9.9836 -2.82666 0
      vertex 10.9852 -2.84587 0
      vertex 9.9836 -2.82666 10
    endloop
  endfacet
  facet normal -0.0191774 -0.999816 0
    outer loop
      vertex 9.9836 -2.82666 10
      vertex 10.9852 -2.84587 0
      vertex 10.9852 -2.84587 10
    endloop
  endfacet
  facet normal 0 0 1
    outer loop
      vertex 9.9836 -2.82666 10
      vertex 10.9852 -2.84587 10
      vertex 10.0021 4.35306 10
    endloop
  endfacet
endsolid model
