solid model
  facet normal -0.156444 3.73274e-05 -0.987687
    outer loop
      vertex -0.201766 -6.92875 22.0943
      vertex 0.292797 -5.97951 22.016
      vertex 1.76611 -6.92875 21.7826
    endloop
  endfacet
  facet normal 0 -1 0
    outer loop
      vertex -0.201766 -6.92875 22.0943
      vertex 1.76611 -6.92875 21.7826
      vertex 2.39185 -6.92875 25.7334
    endloop
  endfacet
  facet normal 0 -1 0
    outer loop
      vertex -0.201766 -6.92875 22.0943
      vertex 2.39185 -6.92875 25.7334
      vertex 0.423972 -6.92875 26.045
    endloop
  endfacet
  facet normal 0 1 0
    outer loop
      vertex -0.201766 6.92875 22.0943
      vertex 0.423972 6.92875 26.045
      vertex 2.39185 6.92875 25.7334
    endloop
  endfacet
  facet normal -0.156444 -3.73274e-05 -0.987687
    outer loop
      vertex -0.201766 6.92875 22.0943
      vertex 1.76611 6.92875 21.7826
      vertex 0.292797 5.97951 22.016
    endloop
  endfacet
  facet normal -0 1 0
    outer loop
      vertex -0.201766 6.92875 22.0943
      vertex 2.39185 6.92875 25.7334
      vertex 1.76611 6.92875 21.7826
    endloop
  endfacet
  facet normal 0.156442 3.96029e-06 0.987687
    outer loop
      vertex -0.24081 -18.8959 28.1753
      vertex 3.68237 -18.8959 27.5539
      vertex 0.736841 -6.92875 28.0204
    endloop
  endfacet
  facet normal 0.156442 -3.96029e-06 0.987687
    outer loop
      vertex -0.24081 18.8959 28.1753
      vertex 0.736841 6.92875 28.0204
      vertex 3.68237 18.8959 27.5539
    endloop
  endfacet
  facet normal -0.15642 1.31073e-05 -0.987691
    outer loop
      vertex -0.305962 -3.97083 11.9861
      vertex 1.46211 -3.29193 11.7061
      vertex 0.672606 -5.8164 11.8311
    endloop
  endfacet
  facet normal -0.350241 0.935016 0.0554726
    outer loop
      vertex -0.305962 -3.97083 11.9861
      vertex 2.82273 -3.97083 31.7399
      vertex 4.5908 -3.29193 31.4599
    endloop
  endfacet
  facet normal -0.35024 0.935016 0.0554725
    outer loop
      vertex -0.305962 -3.97083 11.9861
      vertex 4.5908 -3.29193 31.4599
      vertex 1.46211 -3.29193 11.7061
    endloop
  endfacet
  facet normal -0.15642 -1.31073e-05 -0.987691
    outer loop
      vertex -0.305962 3.97083 11.9861
      vertex 0.672606 5.8164 11.8311
      vertex 1.46211 3.29193 11.7061
    endloop
  endfacet
  facet normal -0.35024 -0.935016 0.0554725
    outer loop
      vertex -0.305962 3.97083 11.9861
      vertex 1.46211 3.29193 11.7061
      vertex 4.5908 3.29193 31.4599
    endloop
  endfacet
  facet normal -0.350241 -0.935016 0.0554726
    outer loop
      vertex -0.305962 3.97083 11.9861
      vertex 4.5908 3.29193 31.4599
      vertex 2.82273 3.97083 31.7399
    endloop
  endfacet
  facet normal 0.156409 1.18896e-05 0.987692
    outer loop
      vertex -0.525587 -6.36742 32.2702
      vertex 1.36258 -6.92875 31.9712
      vertex 0.945561 -3.74006 32.0372
    endloop
  endfacet
  facet normal 0.156409 -1.18896e-05 0.987692
    outer loop
      vertex -0.525587 6.36742 32.2702
      vertex 0.945561 3.74006 32.0372
      vertex 1.36258 6.92875 31.9712
    endloop
  endfacet
  facet normal -0.156442 -3.96685e-06 -0.987687
    outer loop
      vertex -0.553678 -18.8959 26.1999
      vertex 0.423972 -6.92875 26.045
      vertex 3.3695 -18.8959 25.5785
    endloop
  endfacet
  facet normal 0 -1 0
    outer loop
      vertex -0.553678 -18.8959 26.1999
      vertex 3.3695 -18.8959 25.5785
      vertex 3.68237 -18.8959 27.5539
    endloop
  endfacet
  facet normal 0 -1 0
    outer loop
      vertex -0.553678 -18.8959 26.1999
      vertex 3.68237 -18.8959 27.5539
      vertex -0.24081 -18.8959 28.1753
    endloop
  endfacet
  facet normal 0 1 0
    outer loop
      vertex -0.553678 18.8959 26.1999
      vertex -0.24081 18.8959 28.1753
      vertex 3.68237 18.8959 27.5539
    endloop
  endfacet
  facet normal -0.156442 3.96685e-06 -0.987687
    outer loop
      vertex -0.553678 18.8959 26.1999
      vertex 3.3695 18.8959 25.5785
      vertex 0.423972 6.92875 26.045
    endloop
  endfacet
  facet normal -0 1 0
    outer loop
      vertex -0.553678 18.8959 26.1999
      vertex 3.68237 18.8959 27.5539
      vertex 3.3695 18.8959 25.5785
    endloop
  endfacet
  facet normal -0.278265 -0.959493 0.0440725
    outer loop
      vertex -1.15132 -6.36742 28.3195
      vertex 0.736841 -6.92875 28.0204
      vertex 1.36258 -6.92875 31.9712
    endloop
  endfacet
  facet normal -0.278267 -0.959492 0.0440734
    outer loop
      vertex -1.15132 -6.36742 28.3195
      vertex 1.36258 -6.92875 31.9712
      vertex -0.525587 -6.36742 32.2702
    endloop
  endfacet
  facet normal -0.278267 0.959492 0.0440734
    outer loop
      vertex -1.15132 6.36742 28.3195
      vertex -0.525587 6.36742 32.2702
      vertex 1.36258 6.92875 31.9712
    endloop
  endfacet
  facet normal -0.278265 0.959493 0.0440725
    outer loop
      vertex -1.15132 6.36742 28.3195
      vertex 1.36258 6.92875 31.9712
      vertex 0.736841 6.92875 28.0204
    endloop
  endfacet
  facet normal -0.156471 -1.44327e-05 -0.987683
    outer loop
      vertex -1.27155 -5.97951 12.1391
      vertex -0.305962 -3.97083 11.9861
      vertex 0.672606 -5.8164 11.8311
    endloop
  endfacet
  facet normal 0.0815644 -0.996584 -0.0129185
    outer loop
      vertex -1.27155 -5.97951 12.1391
      vertex 0.672606 -5.8164 11.8311
      vertex 2.23695 -5.8164 21.708
    endloop
  endfacet
  facet normal 0.0815645 -0.996584 -0.0129186
    outer loop
      vertex -1.27155 -5.97951 12.1391
      vertex 2.23695 -5.8164 21.708
      vertex 0.292797 -5.97951 22.016
    endloop
  endfacet
  facet normal 0.0815645 0.996584 -0.0129186
    outer loop
      vertex -1.27155 5.97951 12.1391
      vertex 0.292797 5.97951 22.016
      vertex 2.23695 5.8164 21.708
    endloop
  endfacet
  facet normal -0.156471 1.44327e-05 -0.987683
    outer loop
      vertex -1.27155 5.97951 12.1391
      vertex 0.672606 5.8164 11.8311
      vertex -0.305962 3.97083 11.9861
    endloop
  endfacet
  facet normal 0.0815644 0.996584 -0.0129185
    outer loop
      vertex -1.27155 5.97951 12.1391
      vertex 2.23695 5.8164 21.708
      vertex 0.672606 5.8164 11.8311
    endloop
  endfacet
  facet normal -0.156416 2.25087e-05 -0.987691
    outer loop
      vertex -1.59833 -5.49464 22.3155
      vertex 0.292797 -5.97951 22.016
      vertex -0.201766 -6.92875 22.0943
    endloop
  endfacet
  facet normal -0.156416 -2.25087e-05 -0.987691
    outer loop
      vertex -1.59833 5.49464 22.3155
      vertex -0.201766 6.92875 22.0943
      vertex 0.292797 5.97951 22.016
    endloop
  endfacet
  facet normal 0.156433 -1.58076e-06 0.987689
    outer loop
      vertex -10.8362 -14.1198 29.8534
      vertex -7.66226 -16.4545 29.3507
      vertex -2.80681 -5.29025 28.5817
    endloop
  endfacet
  facet normal 0.156433 1.58076e-06 0.987689
    outer loop
      vertex -10.8362 14.1198 29.8534
      vertex -2.80681 5.29025 28.5817
      vertex -7.66226 16.4545 29.3507
    endloop
  endfacet
  facet normal -0.156435 2.71757e-06 -0.987688
    outer loop
      vertex -11.149 -14.1198 27.878
      vertex -3.11968 -5.29025 26.6063
      vertex -7.97513 -16.4545 27.3753
    endloop
  endfacet
  facet normal -0.580544 -0.809023 0.0919278
    outer loop
      vertex -11.149 -14.1198 27.878
      vertex -7.66226 -16.4545 29.3507
      vertex -10.8362 -14.1198 29.8534
    endloop
  endfacet
  facet normal -0.580549 -0.809017 0.0919492
    outer loop
      vertex -11.149 -14.1198 27.878
      vertex -7.97513 -16.4545 27.3753
      vertex -7.66226 -16.4545 29.3507
    endloop
  endfacet
  facet normal -0.580544 0.809023 0.0919278
    outer loop
      vertex -11.149 14.1198 27.878
      vertex -10.8362 14.1198 29.8534
      vertex -7.66226 16.4545 29.3507
    endloop
  endfacet
  facet normal -0.580549 0.809017 0.0919492
    outer loop
      vertex -11.149 14.1198 27.878
      vertex -7.66226 16.4545 29.3507
      vertex -7.97513 16.4545 27.3753
    endloop
  endfacet
  facet normal -0.156435 -2.71757e-06 -0.987688
    outer loop
      vertex -11.149 14.1198 27.878
      vertex -7.97513 16.4545 27.3753
      vertex -3.11968 5.29025 26.6063
    endloop
  endfacet
  facet normal 0.156437 -5.91369e-06 0.987688
    outer loop
      vertex -13.4613 -11.1679 30.2692
      vertex -10.8362 -14.1198 29.8534
      vertex -2.80681 -5.29025 28.5817
    endloop
  endfacet
  facet normal 0.156432 2.76392e-06 0.987689
    outer loop
      vertex -13.4613 -11.1679 30.2692
      vertex -2.80681 -5.29025 28.5817
      vertex -4.09549 -3.78448 28.7858
    endloop
  endfacet
  facet normal 0.156437 5.91369e-06 0.987688
    outer loop
      vertex -13.4613 11.1679 30.2692
      vertex -2.80681 5.29025 28.5817
      vertex -10.8362 14.1198 29.8534
    endloop
  endfacet
  facet normal 0.156432 -2.76392e-06 0.987689
    outer loop
      vertex -13.4613 11.1679 30.2692
      vertex -4.09549 3.78448 28.7858
      vertex -2.80681 5.29025 28.5817
    endloop
  endfacet
  facet normal -0.734003 -0.66912 0.116265
    outer loop
      vertex -13.7742 -11.1679 28.2938
      vertex -10.8362 -14.1198 29.8534
      vertex -13.4613 -11.1679 30.2692
    endloop
  endfacet
  facet normal -0.733997 -0.669134 0.116227
    outer loop
      vertex -13.7742 -11.1679 28.2938
      vertex -11.149 -14.1198 27.878
      vertex -10.8362 -14.1198 29.8534
    endloop
  endfacet
  facet normal -0.156435 2.62119e-06 -0.987688
    outer loop
      vertex -13.7742 -11.1679 28.2938
      vertex -3.11968 -5.29025 26.6063
      vertex -11.149 -14.1198 27.878
    endloop
  endfacet
  facet normal -0.156432 -2.50786e-06 -0.987689
    outer loop
      vertex -13.7742 -11.1679 28.2938
      vertex -4.40836 -3.78448 26.8104
      vertex -3.11968 -5.29025 26.6063
    endloop
  endfacet
  facet normal -0.733997 0.669134 0.116227
    outer loop
      vertex -13.7742 11.1679 28.2938
      vertex -10.8362 14.1198 29.8534
      vertex -11.149 14.1198 27.878
    endloop
  endfacet
  facet normal -0.156435 -2.62119e-06 -0.987688
    outer loop
      vertex -13.7742 11.1679 28.2938
      vertex -11.149 14.1198 27.878
      vertex -3.11968 5.29025 26.6063
    endloop
  endfacet
  facet normal -0.734003 0.66912 0.116265
    outer loop
      vertex -13.7742 11.1679 28.2938
      vertex -13.4613 11.1679 30.2692
      vertex -10.8362 14.1198 29.8534
    endloop
  endfacet
  facet normal -0.156432 2.50786e-06 -0.987689
    outer loop
      vertex -13.7742 11.1679 28.2938
      vertex -3.11968 5.29025 26.6063
      vertex -4.40836 3.78448 26.8104
    endloop
  endfacet
  facet normal 0.156437 -2.53214e-06 0.987688
    outer loop
      vertex -15.4229 -7.728 30.5799
      vertex -13.4613 -11.1679 30.2692
      vertex -4.09549 -3.78448 28.7858
    endloop
  endfacet
  facet normal 0.156439 -1.00123e-05 0.987688
    outer loop
      vertex -15.4229 -7.728 30.5799
      vertex -4.09549 -3.78448 28.7858
      vertex -4.91298 -1.97213 28.9153
    endloop
  endfacet
  facet normal 0.156437 2.53214e-06 0.987688
    outer loop
      vertex -15.4229 7.728 30.5799
      vertex -4.09549 3.78448 28.7858
      vertex -13.4613 11.1679 30.2692
    endloop
  endfacet
  facet normal 0.156439 1.00123e-05 0.987688
    outer loop
      vertex -15.4229 7.728 30.5799
      vertex -4.91298 1.97213 28.9153
      vertex -4.09549 3.78448 28.7858
    endloop
  endfacet
  facet normal -0.855359 -0.500005 0.135487
    outer loop
      vertex -15.7358 -7.728 28.6045
      vertex -13.4613 -11.1679 30.2692
      vertex -15.4229 -7.728 30.5799
    endloop
  endfacet
  facet normal -0.855359 -0.500005 0.135487
    outer loop
      vertex -15.7358 -7.728 28.6045
      vertex -13.7742 -11.1679 28.2938
      vertex -13.4613 -11.1679 30.2692
    endloop
  endfacet
  facet normal -0.156436 2.72927e-06 -0.987688
    outer loop
      vertex -15.7358 -7.728 28.6045
      vertex -4.40836 -3.78448 26.8104
      vertex -13.7742 -11.1679 28.2938
    endloop
  endfacet
  facet normal -0.156439 1.01738e-05 -0.987688
    outer loop
      vertex -15.7358 -7.728 28.6045
      vertex -5.22585 -1.97213 26.9399
      vertex -4.40836 -3.78448 26.8104
    endloop
  endfacet
  facet normal -0.855359 0.500005 0.135487
    outer loop
      vertex -15.7358 7.728 28.6045
      vertex -13.4613 11.1679 30.2692
      vertex -13.7742 11.1679 28.2938
    endloop
  endfacet
  facet normal -0.156436 -2.72927e-06 -0.987688
    outer loop
      vertex -15.7358 7.728 28.6045
      vertex -13.7742 11.1679 28.2938
      vertex -4.40836 3.78448 26.8104
    endloop
  endfacet
  facet normal -0.855359 0.500005 0.135487
    outer loop
      vertex -15.7358 7.728 28.6045
      vertex -15.4229 7.728 30.5799
      vertex -13.4613 11.1679 30.2692
    endloop
  endfacet
  facet normal -0.156439 -1.01738e-05 -0.987688
    outer loop
      vertex -15.7358 7.728 28.6045
      vertex -4.40836 3.78448 26.8104
      vertex -5.22585 1.97213 26.9399
    endloop
  endfacet
  facet normal 0.156433 1.90298e-06 0.987689
    outer loop
      vertex -16.6352 -3.95032 30.7719
      vertex -15.4229 -7.728 30.5799
      vertex -4.91298 -1.97213 28.9153
    endloop
  endfacet
  facet normal 0.156428 2.77488e-05 0.987689
    outer loop
      vertex -16.6352 -3.95032 30.7719
      vertex -4.91298 -1.97213 28.9153
      vertex -5.19304 0 28.9596
    endloop
  endfacet
  facet normal 0.156433 -1.90298e-06 0.987689
    outer loop
      vertex -16.6352 3.95032 30.7719
      vertex -4.91298 1.97213 28.9153
      vertex -15.4229 7.728 30.5799
    endloop
  endfacet
  facet normal 0.156428 -2.77488e-05 0.987689
    outer loop
      vertex -16.6352 3.95032 30.7719
      vertex -5.19304 0 28.9596
      vertex -4.91298 1.97213 28.9153
    endloop
  endfacet
  facet normal -0.939348 -0.30901 0.148791
    outer loop
      vertex -16.9481 -3.95032 28.7965
      vertex -15.4229 -7.728 30.5799
      vertex -16.6352 -3.95032 30.7719
    endloop
  endfacet
  facet normal -0.939348 -0.30901 0.148791
    outer loop
      vertex -16.9481 -3.95032 28.7965
      vertex -15.7358 -7.728 28.6045
      vertex -15.4229 -7.728 30.5799
    endloop
  endfacet
  facet normal -0.156432 -1.7811e-06 -0.987689
    outer loop
      vertex -16.9481 -3.95032 28.7965
      vertex -5.22585 -1.97213 26.9399
      vertex -15.7358 -7.728 28.6045
    endloop
  endfacet
  facet normal -0.156428 -2.76933e-05 -0.987689
    outer loop
      vertex -16.9481 -3.95032 28.7965
      vertex -5.50591 0 26.9842
      vertex -5.22585 -1.97213 26.9399
    endloop
  endfacet
  facet normal -0.939348 0.30901 0.148791
    outer loop
      vertex -16.9481 3.95032 28.7965
      vertex -15.4229 7.728 30.5799
      vertex -15.7358 7.728 28.6045
    endloop
  endfacet
  facet normal -0.156432 1.7811e-06 -0.987689
    outer loop
      vertex -16.9481 3.95032 28.7965
      vertex -15.7358 7.728 28.6045
      vertex -5.22585 1.97213 26.9399
    endloop
  endfacet
  facet normal -0.939348 0.30901 0.148791
    outer loop
      vertex -16.9481 3.95032 28.7965
      vertex -16.6352 3.95032 30.7719
      vertex -15.4229 7.728 30.5799
    endloop
  endfacet
  facet normal -0.156428 2.76933e-05 -0.987689
    outer loop
      vertex -16.9481 3.95032 28.7965
      vertex -5.22585 1.97213 26.9399
      vertex -5.50591 0 26.9842
    endloop
  endfacet
  facet normal 0.156433 1.32488e-05 0.987689
    outer loop
      vertex -17.0453 0 30.8368
      vertex -16.6352 -3.95032 30.7719
      vertex -5.19304 0 28.9596
    endloop
  endfacet
  facet normal 0.156433 -1.32488e-05 0.987689
    outer loop
      vertex -17.0453 0 30.8368
      vertex -5.19304 0 28.9596
      vertex -16.6352 3.95032 30.7719
    endloop
  endfacet
  facet normal -0.982274 -0.104531 0.155598
    outer loop
      vertex -17.3582 0 28.8615
      vertex -16.6352 -3.95032 30.7719
      vertex -17.0453 0 30.8368
    endloop
  endfacet
  facet normal -0.982275 0.104534 0.155591
    outer loop
      vertex -17.3582 0 28.8615
      vertex -16.6352 3.95032 30.7719
      vertex -16.9481 3.95032 28.7965
    endloop
  endfacet
  facet normal -0.982275 -0.104534 0.155591
    outer loop
      vertex -17.3582 0 28.8615
      vertex -16.9481 -3.95032 28.7965
      vertex -16.6352 -3.95032 30.7719
    endloop
  endfacet
  facet normal -0.156441 -1.09299e-05 -0.987687
    outer loop
      vertex -17.3582 0 28.8615
      vertex -16.9481 3.95032 28.7965
      vertex -5.50591 0 26.9842
    endloop
  endfacet
  facet normal -0.982274 0.104531 0.155598
    outer loop
      vertex -17.3582 0 28.8615
      vertex -17.0453 0 30.8368
      vertex -16.6352 3.95032 30.7719
    endloop
  endfacet
  facet normal -0.156441 1.09299e-05 -0.987687
    outer loop
      vertex -17.3582 0 28.8615
      vertex -5.50591 0 26.9842
      vertex -16.9481 -3.95032 28.7965
    endloop
  endfacet
  facet normal -0.278267 -0.959492 0.0440738
    outer loop
      vertex -2.08993 -6.36742 22.3933
      vertex -0.201766 -6.92875 22.0943
      vertex 0.423972 -6.92875 26.045
    endloop
  endfacet
  facet normal -0.156393 4.58146e-05 -0.987695
    outer loop
      vertex -2.08993 -6.36742 22.3933
      vertex -1.59833 -5.49464 22.3155
      vertex -0.201766 -6.92875 22.0943
    endloop
  endfacet
  facet normal -0.278265 -0.959493 0.0440725
    outer loop
      vertex -2.08993 -6.36742 22.3933
      vertex 0.423972 -6.92875 26.045
      vertex -1.46419 -6.36742 26.3441
    endloop
  endfacet
  facet normal -0.156393 -4.58146e-05 -0.987695
    outer loop
      vertex -2.08993 6.36742 22.3933
      vertex -0.201766 6.92875 22.0943
      vertex -1.59833 5.49464 22.3155
    endloop
  endfacet
  facet normal -0.278265 0.959493 0.0440725
    outer loop
      vertex -2.08993 6.36742 22.3933
      vertex -1.46419 6.36742 26.3441
      vertex 0.423972 6.92875 26.045
    endloop
  endfacet
  facet normal -0.278267 0.959492 0.0440738
    outer loop
      vertex -2.08993 6.36742 22.3933
      vertex 0.423972 6.92875 26.045
      vertex -0.201766 6.92875 22.0943
    endloop
  endfacet
  facet normal 0.156432 -1.24274e-06 0.987689
    outer loop
      vertex -2.18107 -5.29025 32.5324
      vertex -0.525587 -6.36742 32.2702
      vertex 0.945561 -3.74006 32.0372
    endloop
  endfacet
  facet normal 0.156437 -1.22205e-05 0.987688
    outer loop
      vertex -2.18107 -5.29025 32.5324
      vertex 0.945561 -3.74006 32.0372
      vertex -0.610664 -2.65249 32.2837
    endloop
  endfacet
  facet normal 0.156437 1.22205e-05 0.987688
    outer loop
      vertex -2.18107 5.29025 32.5324
      vertex -0.610664 2.65249 32.2837
      vertex 0.945561 3.74006 32.0372
    endloop
  endfacet
  facet normal 0.156432 1.24274e-06 0.987689
    outer loop
      vertex -2.18107 5.29025 32.5324
      vertex 0.945561 3.74006 32.0372
      vertex -0.525587 6.36742 32.2702
    endloop
  endfacet
  facet normal -0.156431 -3.39806e-05 -0.987689
    outer loop
      vertex -2.18313 -3.74006 12.2834
      vertex -0.305962 -3.97083 11.9861
      vertex -1.27155 -5.97951 12.1391
    endloop
  endfacet
  facet normal 0.119052 0.992709 -0.018856
    outer loop
      vertex -2.18313 -3.74006 12.2834
      vertex 0.945561 -3.74006 32.0372
      vertex 2.82273 -3.97083 31.7399
    endloop
  endfacet
  facet normal 0.119052 0.992709 -0.018856
    outer loop
      vertex -2.18313 -3.74006 12.2834
      vertex 2.82273 -3.97083 31.7399
      vertex -0.305962 -3.97083 11.9861
    endloop
  endfacet
  facet normal 0.119052 -0.992709 -0.018856
    outer loop
      vertex -2.18313 3.74006 12.2834
      vertex -0.305962 3.97083 11.9861
      vertex 2.82273 3.97083 31.7399
    endloop
  endfacet
  facet normal -0.156431 3.39806e-05 -0.987689
    outer loop
      vertex -2.18313 3.74006 12.2834
      vertex -1.27155 5.97951 12.1391
      vertex -0.305962 3.97083 11.9861
    endloop
  endfacet
  facet normal 0.119052 -0.992709 -0.018856
    outer loop
      vertex -2.18313 3.74006 12.2834
      vertex 2.82273 3.97083 31.7399
      vertex 0.945561 3.74006 32.0372
    endloop
  endfacet
  facet normal -0.533982 -0.841255 0.0845759
    outer loop
      vertex -2.80681 -5.29025 28.5817
      vertex -0.525587 -6.36742 32.2702
      vertex -2.18107 -5.29025 32.5324
    endloop
  endfacet
  facet normal -0.533981 -0.841256 0.0845748
    outer loop
      vertex -2.80681 -5.29025 28.5817
      vertex -1.15132 -6.36742 28.3195
      vertex -0.525587 -6.36742 32.2702
    endloop
  endfacet
  facet normal -0.533981 0.841256 0.0845748
    outer loop
      vertex -2.80681 5.29025 28.5817
      vertex -0.525587 6.36742 32.2702
      vertex -1.15132 6.36742 28.3195
    endloop
  endfacet
  facet normal -0.533982 0.841255 0.0845759
    outer loop
      vertex -2.80681 5.29025 28.5817
      vertex -2.18107 5.29025 32.5324
      vertex -0.525587 6.36742 32.2702
    endloop
  endfacet
  facet normal -0.242465 -0.9694 0.0384027
    outer loop
      vertex -3.16267 -5.49464 12.4386
      vertex -1.27155 -5.97951 12.1391
      vertex 0.292797 -5.97951 22.016
    endloop
  endfacet
  facet normal -0.156431 -3.37454e-05 -0.987689
    outer loop
      vertex -3.16267 -5.49464 12.4386
      vertex -2.18313 -3.74006 12.2834
      vertex -1.27155 -5.97951 12.1391
    endloop
  endfacet
  facet normal -0.242465 -0.9694 0.0384024
    outer loop
      vertex -3.16267 -5.49464 12.4386
      vertex 0.292797 -5.97951 22.016
      vertex -1.59833 -5.49464 22.3155
    endloop
  endfacet
  facet normal -0.156431 3.37454e-05 -0.987689
    outer loop
      vertex -3.16267 5.49464 12.4386
      vertex -1.27155 5.97951 12.1391
      vertex -2.18313 3.74006 12.2834
    endloop
  endfacet
  facet normal -0.242465 0.9694 0.0384024
    outer loop
      vertex -3.16267 5.49464 12.4386
      vertex -1.59833 5.49464 22.3155
      vertex 0.292797 5.97951 22.016
    endloop
  endfacet
  facet normal -0.242465 0.9694 0.0384027
    outer loop
      vertex -3.16267 5.49464 12.4386
      vertex 0.292797 5.97951 22.016
      vertex -1.27155 5.97951 12.1391
    endloop
  endfacet
  facet normal 0.156428 -1.36816e-05 0.987689
    outer loop
      vertex -3.46976 -3.78448 32.7365
      vertex -0.610664 -2.65249 32.2837
      vertex -1.48943 -0.957262 32.4229
    endloop
  endfacet
  facet normal 0.156424 -3.88323e-06 0.98769
    outer loop
      vertex -3.46976 -3.78448 32.7365
      vertex -2.18107 -5.29025 32.5324
      vertex -0.610664 -2.65249 32.2837
    endloop
  endfacet
  facet normal 0.156424 3.88323e-06 0.98769
    outer loop
      vertex -3.46976 3.78448 32.7365
      vertex -0.610664 2.65249 32.2837
      vertex -2.18107 5.29025 32.5324
    endloop
  endfacet
  facet normal 0.156428 1.36816e-05 0.987689
    outer loop
      vertex -3.46976 3.78448 32.7365
      vertex -1.48943 0.957262 32.4229
      vertex -0.610664 2.65249 32.2837
    endloop
  endfacet
  facet normal 0.561069 0.822985 -0.0888643
    outer loop
      vertex -3.73935 -2.65249 12.5299
      vertex -0.610664 -2.65249 32.2837
      vertex 0.945561 -3.74006 32.0372
    endloop
  endfacet
  facet normal 0.56107 0.822985 -0.0888646
    outer loop
      vertex -3.73935 -2.65249 12.5299
      vertex 0.945561 -3.74006 32.0372
      vertex -2.18313 -3.74006 12.2834
    endloop
  endfacet
  facet normal 0.56107 -0.822985 -0.0888646
    outer loop
      vertex -3.73935 2.65249 12.5299
      vertex -2.18313 3.74006 12.2834
      vertex 0.945561 3.74006 32.0372
    endloop
  endfacet
  facet normal 0.561069 -0.822985 -0.0888643
    outer loop
      vertex -3.73935 2.65249 12.5299
      vertex 0.945561 3.74006 32.0372
      vertex -0.610664 2.65249 32.2837
    endloop
  endfacet
  facet normal -0.533981 -0.841256 0.0845736
    outer loop
      vertex -3.74542 -5.29025 22.6555
      vertex -1.46419 -6.36742 26.3441
      vertex -3.11968 -5.29025 26.6063
    endloop
  endfacet
  facet normal -0.1564 5.02237e-05 -0.987694
    outer loop
      vertex -3.74542 -5.29025 22.6555
      vertex -1.59833 -5.49464 22.3155
      vertex -2.08993 -6.36742 22.3933
    endloop
  endfacet
  facet normal -0.533981 -0.841256 0.0845736
    outer loop
      vertex -3.74542 -5.29025 22.6555
      vertex -2.08993 -6.36742 22.3933
      vertex -1.46419 -6.36742 26.3441
    endloop
  endfacet
  facet normal -0.156407 -1.83671e-05 -0.987693
    outer loop
      vertex -3.74542 -5.29025 22.6555
      vertex -3.23149 -4.41434 22.5741
      vertex -1.59833 -5.49464 22.3155
    endloop
  endfacet
  facet normal -0.533981 0.841256 0.0845736
    outer loop
      vertex -3.74542 5.29025 22.6555
      vertex -1.46419 6.36742 26.3441
      vertex -2.08993 6.36742 22.3933
    endloop
  endfacet
  facet normal -0.156407 1.83671e-05 -0.987693
    outer loop
      vertex -3.74542 5.29025 22.6555
      vertex -1.59833 5.49464 22.3155
      vertex -3.23149 4.41434 22.5741
    endloop
  endfacet
  facet normal -0.1564 -5.02237e-05 -0.987694
    outer loop
      vertex -3.74542 5.29025 22.6555
      vertex -2.08993 6.36742 22.3933
      vertex -1.59833 5.49464 22.3155
    endloop
  endfacet
  facet normal -0.533981 0.841256 0.0845736
    outer loop
      vertex -3.74542 5.29025 22.6555
      vertex -3.11968 5.29025 26.6063
      vertex -1.46419 6.36742 26.3441
    endloop
  endfacet
  facet normal 0.156413 6.39343e-06 0.987692
    outer loop
      vertex -4.07826 -18.0701 28.783
      vertex -0.24081 -18.8959 28.1753
      vertex 0.736841 -6.92875 28.0204
    endloop
  endfacet
  facet normal 0.156454 -1.18629e-05 0.987685
    outer loop
      vertex -4.07826 -18.0701 28.783
      vertex 0.736841 -6.92875 28.0204
      vertex -1.15132 -6.36742 28.3195
    endloop
  endfacet
  facet normal 0.156454 1.18629e-05 0.987685
    outer loop
      vertex -4.07826 18.0701 28.783
      vertex -1.15132 6.36742 28.3195
      vertex 0.736841 6.92875 28.0204
    endloop
  endfacet
  facet normal 0.156413 -6.39343e-06 0.987692
    outer loop
      vertex -4.07826 18.0701 28.783
      vertex 0.736841 6.92875 28.0204
      vertex -0.24081 18.8959 28.1753
    endloop
  endfacet
  facet normal -0.746446 -0.654859 0.118226
    outer loop
      vertex -4.09549 -3.78448 28.7858
      vertex -2.18107 -5.29025 32.5324
      vertex -3.46976 -3.78448 32.7365
    endloop
  endfacet
  facet normal -0.746448 -0.654857 0.118228
    outer loop
      vertex -4.09549 -3.78448 28.7858
      vertex -2.80681 -5.29025 28.5817
      vertex -2.18107 -5.29025 32.5324
    endloop
  endfacet
  facet normal -0.746448 0.654857 0.118228
    outer loop
      vertex -4.09549 3.78448 28.7858
      vertex -2.18107 5.29025 32.5324
      vertex -2.80681 5.29025 28.5817
    endloop
  endfacet
  facet normal -0.746446 0.654859 0.118226
    outer loop
      vertex -4.09549 3.78448 28.7858
      vertex -3.46976 3.78448 32.7365
      vertex -2.18107 5.29025 32.5324
    endloop
  endfacet
  facet normal 0.15643 -1.52344e-05 0.987689
    outer loop
      vertex -4.28724 -1.97213 32.866
      vertex -3.46976 -3.78448 32.7365
      vertex -1.48943 -0.957262 32.4229
    endloop
  endfacet
  facet normal 0.15643 1.52344e-05 0.987689
    outer loop
      vertex -4.28724 1.97213 32.866
      vertex -1.48943 0.957262 32.4229
      vertex -3.46976 3.78448 32.7365
    endloop
  endfacet
  facet normal -0.205342 -0.97815 0.0325244
    outer loop
      vertex -4.39113 -18.0701 26.8077
      vertex -0.24081 -18.8959 28.1753
      vertex -4.07826 -18.0701 28.783
    endloop
  endfacet
  facet normal -0.205342 -0.97815 0.0325225
    outer loop
      vertex -4.39113 -18.0701 26.8077
      vertex -0.553678 -18.8959 26.1999
      vertex -0.24081 -18.8959 28.1753
    endloop
  endfacet
  facet normal -0.156456 3.98788e-06 -0.987685
    outer loop
      vertex -4.39113 -18.0701 26.8077
      vertex -1.46419 -6.36742 26.3441
      vertex 0.423972 -6.92875 26.045
    endloop
  endfacet
  facet normal -0.156437 -4.34645e-06 -0.987688
    outer loop
      vertex -4.39113 -18.0701 26.8077
      vertex 0.423972 -6.92875 26.045
      vertex -0.553678 -18.8959 26.1999
    endloop
  endfacet
  facet normal -0.205342 0.97815 0.0325225
    outer loop
      vertex -4.39113 18.0701 26.8077
      vertex -0.24081 18.8959 28.1753
      vertex -0.553678 18.8959 26.1999
    endloop
  endfacet
  facet normal -0.156437 4.34645e-06 -0.987688
    outer loop
      vertex -4.39113 18.0701 26.8077
      vertex -0.553678 18.8959 26.1999
      vertex 0.423972 6.92875 26.045
    endloop
  endfacet
  facet normal -0.205342 0.97815 0.0325244
    outer loop
      vertex -4.39113 18.0701 26.8077
      vertex -4.07826 18.0701 28.783
      vertex -0.24081 18.8959 28.1753
    endloop
  endfacet
  facet normal -0.156456 -3.98788e-06 -0.987685
    outer loop
      vertex -4.39113 18.0701 26.8077
      vertex 0.423972 6.92875 26.045
      vertex -1.46419 6.36742 26.3441
    endloop
  endfacet
  facet normal 0.156439 0 0.987688
    outer loop
      vertex -4.5673 0 32.9104
      vertex -1.48943 -0.957262 32.4229
      vertex -1.48943 0.957262 32.4229
    endloop
  endfacet
  facet normal 0.156432 2.18205e-05 0.987689
    outer loop
      vertex -4.5673 0 32.9104
      vertex -1.48943 0.957262 32.4229
      vertex -4.28724 1.97213 32.866
    endloop
  endfacet
  facet normal 0.156432 -2.18205e-05 0.987689
    outer loop
      vertex -4.5673 0 32.9104
      vertex -4.28724 -1.97213 32.866
      vertex -1.48943 -0.957262 32.4229
    endloop
  endfacet
  facet normal 0.874554 0.464724 -0.138515
    outer loop
      vertex -4.61812 -0.957262 12.6691
      vertex -0.610664 -2.65249 32.2837
      vertex -3.73935 -2.65249 12.5299
    endloop
  endfacet
  facet normal 0.874555 0.464722 -0.138516
    outer loop
      vertex -4.61812 -0.957262 12.6691
      vertex -1.48943 -0.957262 32.4229
      vertex -0.610664 -2.65249 32.2837
    endloop
  endfacet
  facet normal 0.987688 0 -0.156434
    outer loop
      vertex -4.61812 -0.957262 12.6691
      vertex -4.61812 0.957262 12.6691
      vertex -1.48943 -0.957262 32.4229
    endloop
  endfacet
  facet normal 0.874555 -0.464722 -0.138516
    outer loop
      vertex -4.61812 0.957262 12.6691
      vertex -0.610664 2.65249 32.2837
      vertex -1.48943 0.957262 32.4229
    endloop
  endfacet
  facet normal 0.987688 0 -0.156434
    outer loop
      vertex -4.61812 0.957262 12.6691
      vertex -1.48943 0.957262 32.4229
      vertex -1.48943 -0.957262 32.4229
    endloop
  endfacet
  facet normal 0.874554 -0.464724 -0.138515
    outer loop
      vertex -4.61812 0.957262 12.6691
      vertex -3.73935 2.65249 12.5299
      vertex -0.610664 2.65249 32.2837
    endloop
  endfacet
  facet normal -0.540218 -0.837164 0.0855626
    outer loop
      vertex -4.79583 -4.41434 12.6973
      vertex -1.59833 -5.49464 22.3155
      vertex -3.23149 -4.41434 22.5741
    endloop
  endfacet
  facet normal -0.156464 -1.49609e-05 -0.987684
    outer loop
      vertex -4.79583 -4.41434 12.6973
      vertex -2.18313 -3.74006 12.2834
      vertex -3.16267 -5.49464 12.4386
    endloop
  endfacet
  facet normal -0.540214 -0.837167 0.0855611
    outer loop
      vertex -4.79583 -4.41434 12.6973
      vertex -3.16267 -5.49464 12.4386
      vertex -1.59833 -5.49464 22.3155
    endloop
  endfacet
  facet normal -0.156462 -2.25693e-05 -0.987684
    outer loop
      vertex -4.79583 -4.41434 12.6973
      vertex -3.73935 -2.65249 12.5299
      vertex -2.18313 -3.74006 12.2834
    endloop
  endfacet
  facet normal -0.540214 0.837167 0.0855611
    outer loop
      vertex -4.79583 4.41434 12.6973
      vertex -1.59833 5.49464 22.3155
      vertex -3.16267 5.49464 12.4386
    endloop
  endfacet
  facet normal -0.156462 2.25693e-05 -0.987684
    outer loop
      vertex -4.79583 4.41434 12.6973
      vertex -2.18313 3.74006 12.2834
      vertex -3.73935 2.65249 12.5299
    endloop
  endfacet
  facet normal -0.156464 1.49609e-05 -0.987684
    outer loop
      vertex -4.79583 4.41434 12.6973
      vertex -3.16267 5.49464 12.4386
      vertex -2.18313 3.74006 12.2834
    endloop
  endfacet
  facet normal -0.540218 0.837164 0.0855626
    outer loop
      vertex -4.79583 4.41434 12.6973
      vertex -3.23149 4.41434 22.5741
      vertex -1.59833 5.49464 22.3155
    endloop
  endfacet
  facet normal -0.898432 -0.415416 0.1423
    outer loop
      vertex -4.91298 -1.97213 28.9153
      vertex -3.46976 -3.78448 32.7365
      vertex -4.28724 -1.97213 32.866
    endloop
  endfacet
  facet normal -0.898431 -0.41542 0.142298
    outer loop
      vertex -4.91298 -1.97213 28.9153
      vertex -4.09549 -3.78448 28.7858
      vertex -3.46976 -3.78448 32.7365
    endloop
  endfacet
  facet normal -0.898431 0.41542 0.142298
    outer loop
      vertex -4.91298 1.97213 28.9153
      vertex -3.46976 3.78448 32.7365
      vertex -4.09549 3.78448 28.7858
    endloop
  endfacet
  facet normal -0.898432 0.415416 0.1423
    outer loop
      vertex -4.91298 1.97213 28.9153
      vertex -4.28724 1.97213 32.866
      vertex -3.46976 3.78448 32.7365
    endloop
  endfacet
  facet normal -0.746449 -0.654857 0.118225
    outer loop
      vertex -5.0341 -3.78448 22.8596
      vertex -3.11968 -5.29025 26.6063
      vertex -4.40836 -3.78448 26.8104
    endloop
  endfacet
  facet normal -0.156433 -2.82348e-06 -0.987689
    outer loop
      vertex -5.0341 -3.78448 22.8596
      vertex -3.23149 -4.41434 22.5741
      vertex -3.74542 -5.29025 22.6555
    endloop
  endfacet
  facet normal -0.746449 -0.654857 0.118225
    outer loop
      vertex -5.0341 -3.78448 22.8596
      vertex -3.74542 -5.29025 22.6555
      vertex -3.11968 -5.29025 26.6063
    endloop
  endfacet
  facet normal -0.156424 2.23127e-05 -0.98769
    outer loop
      vertex -5.0341 -3.78448 22.8596
      vertex -4.4297 -2.85568 22.7639
      vertex -3.23149 -4.41434 22.5741
    endloop
  endfacet
  facet normal -0.746449 0.654857 0.118225
    outer loop
      vertex -5.0341 3.78448 22.8596
      vertex -3.11968 5.29025 26.6063
      vertex -3.74542 5.29025 22.6555
    endloop
  endfacet
  facet normal -0.156424 -2.23127e-05 -0.98769
    outer loop
      vertex -5.0341 3.78448 22.8596
      vertex -3.23149 4.41434 22.5741
      vertex -4.4297 2.85568 22.7639
    endloop
  endfacet
  facet normal -0.156433 2.82348e-06 -0.987689
    outer loop
      vertex -5.0341 3.78448 22.8596
      vertex -3.74542 5.29025 22.6555
      vertex -3.23149 4.41434 22.5741
    endloop
  endfacet
  facet normal -0.746449 0.654857 0.118225
    outer loop
      vertex -5.0341 3.78448 22.8596
      vertex -4.40836 3.78448 26.8104
      vertex -3.11968 5.29025 26.6063
    endloop
  endfacet
  facet normal -0.977635 -0.142319 0.154841
    outer loop
      vertex -5.19304 0 28.9596
      vertex -4.28724 -1.97213 32.866
      vertex -4.5673 0 32.9104
    endloop
  endfacet
  facet normal -0.977635 0.142311 0.154845
    outer loop
      vertex -5.19304 0 28.9596
      vertex -4.28724 1.97213 32.866
      vertex -4.91298 1.97213 28.9153
    endloop
  endfacet
  facet normal -0.977635 0.142319 0.154841
    outer loop
      vertex -5.19304 0 28.9596
      vertex -4.5673 0 32.9104
      vertex -4.28724 1.97213 32.866
    endloop
  endfacet
  facet normal -0.977635 -0.142311 0.154845
    outer loop
      vertex -5.19304 0 28.9596
      vertex -4.91298 -1.97213 28.9153
      vertex -4.28724 -1.97213 32.866
    endloop
  endfacet
  facet normal -0.898431 -0.41542 0.142296
    outer loop
      vertex -5.85159 -1.97213 22.9891
      vertex -4.40836 -3.78448 26.8104
      vertex -5.22585 -1.97213 26.9399
    endloop
  endfacet
  facet normal -0.156419 1.91753e-05 -0.987691
    outer loop
      vertex -5.85159 -1.97213 22.9891
      vertex -4.4297 -2.85568 22.7639
      vertex -5.0341 -3.78448 22.8596
    endloop
  endfacet
  facet normal -0.898431 -0.41542 0.142296
    outer loop
      vertex -5.85159 -1.97213 22.9891
      vertex -5.0341 -3.78448 22.8596
      vertex -4.40836 -3.78448 26.8104
    endloop
  endfacet
  facet normal -0.15644 -1.54844e-05 -0.987687
    outer loop
      vertex -5.85159 -1.97213 22.9891
      vertex -5.06313 -0.987567 22.8642
      vertex -4.4297 -2.85568 22.7639
    endloop
  endfacet
  facet normal -0.898431 0.41542 0.142296
    outer loop
      vertex -5.85159 1.97213 22.9891
      vertex -4.40836 3.78448 26.8104
      vertex -5.0341 3.78448 22.8596
    endloop
  endfacet
  facet normal -0.15644 1.54844e-05 -0.987687
    outer loop
      vertex -5.85159 1.97213 22.9891
      vertex -4.4297 2.85568 22.7639
      vertex -5.06313 0.987567 22.8642
    endloop
  endfacet
  facet normal -0.156419 -1.91753e-05 -0.987691
    outer loop
      vertex -5.85159 1.97213 22.9891
      vertex -5.0341 3.78448 22.8596
      vertex -4.4297 2.85568 22.7639
    endloop
  endfacet
  facet normal -0.898431 0.41542 0.142296
    outer loop
      vertex -5.85159 1.97213 22.9891
      vertex -5.22585 1.97213 26.9399
      vertex -4.40836 3.78448 26.8104
    endloop
  endfacet
  facet normal -0.779426 -0.614211 0.123449
    outer loop
      vertex -5.99405 -2.85568 12.887
      vertex -3.23149 -4.41434 22.5741
      vertex -4.4297 -2.85568 22.7639
    endloop
  endfacet
  facet normal -0.156427 -4.4097e-05 -0.98769
    outer loop
      vertex -5.99405 -2.85568 12.887
      vertex -3.73935 -2.65249 12.5299
      vertex -4.79583 -4.41434 12.6973
    endloop
  endfacet
  facet normal -0.156431 1.12261e-05 -0.987689
    outer loop
      vertex -5.99405 -2.85568 12.887
      vertex -4.61812 -0.957262 12.6691
      vertex -3.73935 -2.65249 12.5299
    endloop
  endfacet
  facet normal -0.779427 -0.614209 0.12345
    outer loop
      vertex -5.99405 -2.85568 12.887
      vertex -4.79583 -4.41434 12.6973
      vertex -3.23149 -4.41434 22.5741
    endloop
  endfacet
  facet normal -0.779427 0.614209 0.12345
    outer loop
      vertex -5.99405 2.85568 12.887
      vertex -3.23149 4.41434 22.5741
      vertex -4.79583 4.41434 12.6973
    endloop
  endfacet
  facet normal -0.156431 -1.12261e-05 -0.987689
    outer loop
      vertex -5.99405 2.85568 12.887
      vertex -3.73935 2.65249 12.5299
      vertex -4.61812 0.957262 12.6691
    endloop
  endfacet
  facet normal -0.779426 0.614211 0.123449
    outer loop
      vertex -5.99405 2.85568 12.887
      vertex -4.4297 2.85568 22.7639
      vertex -3.23149 4.41434 22.5741
    endloop
  endfacet
  facet normal -0.156427 4.4097e-05 -0.98769
    outer loop
      vertex -5.99405 2.85568 12.887
      vertex -4.79583 4.41434 12.6973
      vertex -3.73935 2.65249 12.5299
    endloop
  endfacet
  facet normal -0.156478 1.51766e-05 -0.987682
    outer loop
      vertex -6.13165 0 23.0335
      vertex -5.06313 -0.987567 22.8642
      vertex -5.85159 -1.97213 22.9891
    endloop
  endfacet
  facet normal -0.156491 0 -0.987679
    outer loop
      vertex -6.13165 0 23.0335
      vertex -5.06313 0.987567 22.8642
      vertex -5.06313 -0.987567 22.8642
    endloop
  endfacet
  facet normal -0.977635 -0.142311 0.154845
    outer loop
      vertex -6.13165 0 23.0335
      vertex -5.22585 -1.97213 26.9399
      vertex -5.50591 0 26.9842
    endloop
  endfacet
  facet normal -0.977635 0.142319 0.154841
    outer loop
      vertex -6.13165 0 23.0335
      vertex -5.22585 1.97213 26.9399
      vertex -5.85159 1.97213 22.9891
    endloop
  endfacet
  facet normal -0.977635 0.142311 0.154845
    outer loop
      vertex -6.13165 0 23.0335
      vertex -5.50591 0 26.9842
      vertex -5.22585 1.97213 26.9399
    endloop
  endfacet
  facet normal -0.977635 -0.142319 0.154841
    outer loop
      vertex -6.13165 0 23.0335
      vertex -5.85159 -1.97213 22.9891
      vertex -5.22585 -1.97213 26.9399
    endloop
  endfacet
  facet normal -0.156478 -1.51766e-05 -0.987682
    outer loop
      vertex -6.13165 0 23.0335
      vertex -5.85159 1.97213 22.9891
      vertex -5.06313 0.987567 22.8642
    endloop
  endfacet
  facet normal -0.934173 -0.324698 0.14796
    outer loop
      vertex -6.62748 -0.987567 12.9874
      vertex -4.4297 -2.85568 22.7639
      vertex -5.06313 -0.987567 22.8642
    endloop
  endfacet
  facet normal -0.156458 3.11457e-05 -0.987685
    outer loop
      vertex -6.62748 -0.987567 12.9874
      vertex -4.61812 -0.957262 12.6691
      vertex -5.99405 -2.85568 12.887
    endloop
  endfacet
  facet normal -0.156458 0 -0.987685
    outer loop
      vertex -6.62748 -0.987567 12.9874
      vertex -4.61812 0.957262 12.6691
      vertex -4.61812 -0.957262 12.6691
    endloop
  endfacet
  facet normal -0.987688 0 0.156436
    outer loop
      vertex -6.62748 -0.987567 12.9874
      vertex -5.06313 -0.987567 22.8642
      vertex -5.06313 0.987567 22.8642
    endloop
  endfacet
  facet normal -0.987688 0 0.156436
    outer loop
      vertex -6.62748 -0.987567 12.9874
      vertex -5.06313 0.987567 22.8642
      vertex -6.62748 0.987567 12.9874
    endloop
  endfacet
  facet normal -0.934171 -0.324706 0.147958
    outer loop
      vertex -6.62748 -0.987567 12.9874
      vertex -5.99405 -2.85568 12.887
      vertex -4.4297 -2.85568 22.7639
    endloop
  endfacet
  facet normal -0.156458 -0 -0.987685
    outer loop
      vertex -6.62748 -0.987567 12.9874
      vertex -6.62748 0.987567 12.9874
      vertex -4.61812 0.957262 12.6691
    endloop
  endfacet
  facet normal -0.934171 0.324706 0.147958
    outer loop
      vertex -6.62748 0.987567 12.9874
      vertex -4.4297 2.85568 22.7639
      vertex -5.99405 2.85568 12.887
    endloop
  endfacet
  facet normal -0.934173 0.324698 0.14796
    outer loop
      vertex -6.62748 0.987567 12.9874
      vertex -5.06313 0.987567 22.8642
      vertex -4.4297 2.85568 22.7639
    endloop
  endfacet
  facet normal -0.156458 -3.11457e-05 -0.987685
    outer loop
      vertex -6.62748 0.987567 12.9874
      vertex -5.99405 2.85568 12.887
      vertex -4.61812 0.957262 12.6691
    endloop
  endfacet
  facet normal 0.156432 -1.13212e-06 0.987689
    outer loop
      vertex -7.66226 -16.4545 29.3507
      vertex -1.15132 -6.36742 28.3195
      vertex -2.80681 -5.29025 28.5817
    endloop
  endfacet
  facet normal 0.156444 -9.30815e-06 0.987687
    outer loop
      vertex -7.66226 -16.4545 29.3507
      vertex -4.07826 -18.0701 28.783
      vertex -1.15132 -6.36742 28.3195
    endloop
  endfacet
  facet normal 0.156444 9.30815e-06 0.987687
    outer loop
      vertex -7.66226 16.4545 29.3507
      vertex -1.15132 6.36742 28.3195
      vertex -4.07826 18.0701 28.783
    endloop
  endfacet
  facet normal 0.156432 1.13212e-06 0.987689
    outer loop
      vertex -7.66226 16.4545 29.3507
      vertex -2.80681 5.29025 28.5817
      vertex -1.15132 6.36742 28.3195
    endloop
  endfacet
  facet normal -0.156423 -4.47076e-06 -0.98769
    outer loop
      vertex -7.97513 -16.4545 27.3753
      vertex -1.46419 -6.36742 26.3441
      vertex -4.39113 -18.0701 26.8077
    endloop
  endfacet
  facet normal -0.156432 1.13212e-06 -0.987689
    outer loop
      vertex -7.97513 -16.4545 27.3753
      vertex -3.11968 -5.29025 26.6063
      vertex -1.46419 -6.36742 26.3441
    endloop
  endfacet
  facet normal -0.40173 -0.913545 0.0636273
    outer loop
      vertex -7.97513 -16.4545 27.3753
      vertex -4.07826 -18.0701 28.783
      vertex -7.66226 -16.4545 29.3507
    endloop
  endfacet
  facet normal -0.401731 -0.913544 0.0636307
    outer loop
      vertex -7.97513 -16.4545 27.3753
      vertex -4.39113 -18.0701 26.8077
      vertex -4.07826 -18.0701 28.783
    endloop
  endfacet
  facet normal -0.156432 -1.13212e-06 -0.987689
    outer loop
      vertex -7.97513 16.4545 27.3753
      vertex -1.46419 6.36742 26.3441
      vertex -3.11968 5.29025 26.6063
    endloop
  endfacet
  facet normal -0.401731 0.913544 0.0636307
    outer loop
      vertex -7.97513 16.4545 27.3753
      vertex -4.07826 18.0701 28.783
      vertex -4.39113 18.0701 26.8077
    endloop
  endfacet
  facet normal -0.156423 4.47076e-06 -0.98769
    outer loop
      vertex -7.97513 16.4545 27.3753
      vertex -4.39113 18.0701 26.8077
      vertex -1.46419 6.36742 26.3441
    endloop
  endfacet
  facet normal -0.40173 0.913545 0.0636273
    outer loop
      vertex -7.97513 16.4545 27.3753
      vertex -7.66226 16.4545 29.3507
      vertex -4.07826 18.0701 28.783
    endloop
  endfacet
  facet normal -0.156472 -7.14739e-06 -0.987682
    outer loop
      vertex 0.292797 -5.97951 22.016
      vertex 2.23695 -5.8164 21.708
      vertex 1.76611 -6.92875 21.7826
    endloop
  endfacet
  facet normal -0.156472 7.14739e-06 -0.987682
    outer loop
      vertex 0.292797 5.97951 22.016
      vertex 1.76611 6.92875 21.7826
      vertex 2.23695 5.8164 21.708
    endloop
  endfacet
  facet normal -0.156395 7.9084e-06 -0.987695
    outer loop
      vertex 0.423972 -6.92875 26.045
      vertex 2.39185 -6.92875 25.7334
      vertex 3.3695 -18.8959 25.5785
    endloop
  endfacet
  facet normal -0.156395 -7.9084e-06 -0.987695
    outer loop
      vertex 0.423972 6.92875 26.045
      vertex 3.3695 18.8959 25.5785
      vertex 2.39185 6.92875 25.7334
    endloop
  endfacet
  facet normal -0.156409 9.58337e-06 -0.987692
    outer loop
      vertex 0.672606 -5.8164 11.8311
      vertex 1.46211 -3.29193 11.7061
      vertex 2.45911 -5.023 11.5482
    endloop
  endfacet
  facet normal 0.396751 -0.915773 -0.0628393
    outer loop
      vertex 0.672606 -5.8164 11.8311
      vertex 2.45911 -5.023 11.5482
      vertex 4.02346 -5.023 21.4251
    endloop
  endfacet
  facet normal 0.39675 -0.915773 -0.0628389
    outer loop
      vertex 0.672606 -5.8164 11.8311
      vertex 4.02346 -5.023 21.4251
      vertex 2.23695 -5.8164 21.708
    endloop
  endfacet
  facet normal 0.39675 0.915773 -0.0628389
    outer loop
      vertex 0.672606 5.8164 11.8311
      vertex 2.23695 5.8164 21.708
      vertex 4.02346 5.023 21.4251
    endloop
  endfacet
  facet normal -0.156409 -9.58337e-06 -0.987692
    outer loop
      vertex 0.672606 5.8164 11.8311
      vertex 2.45911 5.023 11.5482
      vertex 1.46211 3.29193 11.7061
    endloop
  endfacet
  facet normal 0.396751 0.915773 -0.0628393
    outer loop
      vertex 0.672606 5.8164 11.8311
      vertex 4.02346 5.023 21.4251
      vertex 2.45911 5.023 11.5482
    endloop
  endfacet
  facet normal 0 -1 0
    outer loop
      vertex 0.736841 -6.92875 28.0204
      vertex 2.70472 -6.92875 27.7087
      vertex 3.33046 -6.92875 31.6595
    endloop
  endfacet
  facet normal 0 -1 0
    outer loop
      vertex 0.736841 -6.92875 28.0204
      vertex 3.33046 -6.92875 31.6595
      vertex 1.36258 -6.92875 31.9712
    endloop
  endfacet
  facet normal 0.156444 4.43877e-06 0.987687
    outer loop
      vertex 0.736841 -6.92875 28.0204
      vertex 3.68237 -18.8959 27.5539
      vertex 2.70472 -6.92875 27.7087
    endloop
  endfacet
  facet normal 0 1 0
    outer loop
      vertex 0.736841 6.92875 28.0204
      vertex 1.36258 6.92875 31.9712
      vertex 3.33046 6.92875 31.6595
    endloop
  endfacet
  facet normal 0.156444 -4.43877e-06 0.987687
    outer loop
      vertex 0.736841 6.92875 28.0204
      vertex 2.70472 6.92875 27.7087
      vertex 3.68237 18.8959 27.5539
    endloop
  endfacet
  facet normal -0 1 0
    outer loop
      vertex 0.736841 6.92875 28.0204
      vertex 3.33046 6.92875 31.6595
      vertex 2.70472 6.92875 27.7087
    endloop
  endfacet
  facet normal 0.156429 1.45223e-05 0.987689
    outer loop
      vertex 0.945561 -3.74006 32.0372
      vertex 1.36258 -6.92875 31.9712
      vertex 2.82273 -3.97083 31.7399
    endloop
  endfacet
  facet normal 0.156429 -1.45223e-05 0.987689
    outer loop
      vertex 0.945561 3.74006 32.0372
      vertex 2.82273 3.97083 31.7399
      vertex 1.36258 6.92875 31.9712
    endloop
  endfacet
  facet normal 0.156443 7.10778e-06 0.987687
    outer loop
      vertex 1.36258 -6.92875 31.9712
      vertex 3.33046 -6.92875 31.6595
      vertex 2.82273 -3.97083 31.7399
    endloop
  endfacet
  facet normal 0.156443 -7.10778e-06 0.987687
    outer loop
      vertex 1.36258 6.92875 31.9712
      vertex 2.82273 3.97083 31.7399
      vertex 3.33046 6.92875 31.6595
    endloop
  endfacet
  facet normal -0.156422 -7.72869e-06 -0.98769
    outer loop
      vertex 1.46211 -3.29193 11.7061
      vertex 2.71605 -1.85889 11.5075
      vertex 3.89438 -3.68528 11.3209
    endloop
  endfacet
  facet normal -0.156421 2.85397e-06 -0.987691
    outer loop
      vertex 1.46211 -3.29193 11.7061
      vertex 3.89438 -3.68528 11.3209
      vertex 2.45911 -5.023 11.5482
    endloop
  endfacet
  facet normal -0.739296 0.663122 0.117093
    outer loop
      vertex 1.46211 -3.29193 11.7061
      vertex 4.5908 -3.29193 31.4599
      vertex 5.84473 -1.85889 31.2613
    endloop
  endfacet
  facet normal -0.739294 0.663125 0.117092
    outer loop
      vertex 1.46211 -3.29193 11.7061
      vertex 5.84473 -1.85889 31.2613
      vertex 2.71605 -1.85889 11.5075
    endloop
  endfacet
  facet normal -0.156421 -2.85397e-06 -0.987691
    outer loop
      vertex 1.46211 3.29193 11.7061
      vertex 2.45911 5.023 11.5482
      vertex 3.89438 3.68528 11.3209
    endloop
  endfacet
  facet normal -0.739294 -0.663125 0.117092
    outer loop
      vertex 1.46211 3.29193 11.7061
      vertex 2.71605 1.85889 11.5075
      vertex 5.84473 1.85889 31.2613
    endloop
  endfacet
  facet normal -0.156422 7.72869e-06 -0.98769
    outer loop
      vertex 1.46211 3.29193 11.7061
      vertex 3.89438 3.68528 11.3209
      vertex 2.71605 1.85889 11.5075
    endloop
  endfacet
  facet normal -0.739296 -0.663122 0.117093
    outer loop
      vertex 1.46211 3.29193 11.7061
      vertex 5.84473 1.85889 31.2613
      vertex 4.5908 3.29193 31.4599
    endloop
  endfacet
  facet normal -0.156452 -1.57287e-05 -0.987686
    outer loop
      vertex 1.76611 -6.92875 21.7826
      vertex 2.23695 -5.8164 21.708
      vertex 3.65428 -6.36742 21.4835
    endloop
  endfacet
  facet normal 0.278264 -0.959493 -0.0440717
    outer loop
      vertex 1.76611 -6.92875 21.7826
      vertex 3.65428 -6.36742 21.4835
      vertex 4.28001 -6.36742 25.4343
    endloop
  endfacet
  facet normal 0.278266 -0.959493 -0.0440726
    outer loop
      vertex 1.76611 -6.92875 21.7826
      vertex 4.28001 -6.36742 25.4343
      vertex 2.39185 -6.92875 25.7334
    endloop
  endfacet
  facet normal 0.278266 0.959493 -0.0440726
    outer loop
      vertex 1.76611 6.92875 21.7826
      vertex 2.39185 6.92875 25.7334
      vertex 4.28001 6.36742 25.4343
    endloop
  endfacet
  facet normal -0.156452 1.57287e-05 -0.987686
    outer loop
      vertex 1.76611 6.92875 21.7826
      vertex 3.65428 6.36742 21.4835
      vertex 2.23695 5.8164 21.708
    endloop
  endfacet
  facet normal 0.278264 0.959493 -0.0440717
    outer loop
      vertex 1.76611 6.92875 21.7826
      vertex 4.28001 6.36742 25.4343
      vertex 3.65428 6.36742 21.4835
    endloop
  endfacet
  facet normal 0.580537 -0.809028 -0.0919313
    outer loop
      vertex 10.7909 -16.4545 24.4031
      vertex 13.9649 -14.1198 23.9004
      vertex 14.2777 -14.1198 25.8757
    endloop
  endfacet
  facet normal 0.580544 -0.809019 -0.0919618
    outer loop
      vertex 10.7909 -16.4545 24.4031
      vertex 14.2777 -14.1198 25.8757
      vertex 11.1038 -16.4545 26.3784
    endloop
  endfacet
  facet normal 0.580544 0.809019 -0.0919618
    outer loop
      vertex 10.7909 16.4545 24.4031
      vertex 11.1038 16.4545 26.3784
      vertex 14.2777 14.1198 25.8757
    endloop
  endfacet
  facet normal 0.580537 0.809028 -0.0919313
    outer loop
      vertex 10.7909 16.4545 24.4031
      vertex 14.2777 14.1198 25.8757
      vertex 13.9649 14.1198 23.9004
    endloop
  endfacet
  facet normal 0.734003 -0.66912 -0.116265
    outer loop
      vertex 13.9649 -14.1198 23.9004
      vertex 16.59 -11.1679 23.4846
      vertex 16.9029 -11.1679 25.46
    endloop
  endfacet
  facet normal 0.733998 -0.669132 -0.116233
    outer loop
      vertex 13.9649 -14.1198 23.9004
      vertex 16.9029 -11.1679 25.46
      vertex 14.2777 -14.1198 25.8757
    endloop
  endfacet
  facet normal 0.733998 0.669132 -0.116233
    outer loop
      vertex 13.9649 14.1198 23.9004
      vertex 14.2777 14.1198 25.8757
      vertex 16.9029 11.1679 25.46
    endloop
  endfacet
  facet normal 0.734003 0.66912 -0.116265
    outer loop
      vertex 13.9649 14.1198 23.9004
      vertex 16.9029 11.1679 25.46
      vertex 16.59 11.1679 23.4846
    endloop
  endfacet
  facet normal 0.855365 -0.500005 -0.135445
    outer loop
      vertex 16.59 -11.1679 23.4846
      vertex 18.5516 -7.728 23.1739
      vertex 18.8644 -7.728 25.1493
    endloop
  endfacet
  facet normal 0.855369 -0.499986 -0.135489
    outer loop
      vertex 16.59 -11.1679 23.4846
      vertex 18.8644 -7.728 25.1493
      vertex 16.9029 -11.1679 25.46
    endloop
  endfacet
  facet normal 0.855369 0.499986 -0.135489
    outer loop
      vertex 16.59 11.1679 23.4846
      vertex 16.9029 11.1679 25.46
      vertex 18.8644 7.728 25.1493
    endloop
  endfacet
  facet normal 0.855365 0.500005 -0.135445
    outer loop
      vertex 16.59 11.1679 23.4846
      vertex 18.8644 7.728 25.1493
      vertex 18.5516 7.728 23.1739
    endloop
  endfacet
  facet normal 0.939348 -0.30901 -0.148791
    outer loop
      vertex 18.5516 -7.728 23.1739
      vertex 19.7639 -3.95032 22.9819
      vertex 20.0768 -3.95032 24.9573
    endloop
  endfacet
  facet normal 0.939348 -0.309032 -0.148744
    outer loop
      vertex 18.5516 -7.728 23.1739
      vertex 20.0768 -3.95032 24.9573
      vertex 18.8644 -7.728 25.1493
    endloop
  endfacet
  facet normal 0.939348 0.309032 -0.148744
    outer loop
      vertex 18.5516 7.728 23.1739
      vertex 18.8644 7.728 25.1493
      vertex 20.0768 3.95032 24.9573
    endloop
  endfacet
  facet normal 0.939348 0.30901 -0.148791
    outer loop
      vertex 18.5516 7.728 23.1739
      vertex 20.0768 3.95032 24.9573
      vertex 19.7639 3.95032 22.9819
    endloop
  endfacet
  facet normal 0.982275 -0.104534 -0.155591
    outer loop
      vertex 19.7639 -3.95032 22.9819
      vertex 20.174 0 22.9169
      vertex 20.4869 0 24.8923
    endloop
  endfacet
  facet normal 0.982275 -0.104534 -0.155591
    outer loop
      vertex 19.7639 -3.95032 22.9819
      vertex 20.4869 0 24.8923
      vertex 20.0768 -3.95032 24.9573
    endloop
  endfacet
  facet normal 0.982275 0.104534 -0.155591
    outer loop
      vertex 19.7639 3.95032 22.9819
      vertex 20.0768 3.95032 24.9573
      vertex 20.4869 0 24.8923
    endloop
  endfacet
  facet normal 0.982275 0.104534 -0.155591
    outer loop
      vertex 19.7639 3.95032 22.9819
      vertex 20.4869 0 24.8923
      vertex 20.174 0 22.9169
    endloop
  endfacet
  facet normal -0.156427 5.09733e-05 -0.98769
    outer loop
      vertex 2.23695 -5.8164 21.708
      vertex 4.02346 -5.023 21.4251
      vertex 3.65428 -6.36742 21.4835
    endloop
  endfacet
  facet normal -0.156427 -5.09733e-05 -0.98769
    outer loop
      vertex 2.23695 5.8164 21.708
      vertex 3.65428 6.36742 21.4835
      vertex 4.02346 5.023 21.4251
    endloop
  endfacet
  facet normal -0.156456 -4.02646e-06 -0.987685
    outer loop
      vertex 2.39185 -6.92875 25.7334
      vertex 4.28001 -6.36742 25.4343
      vertex 7.20695 -18.0701 24.9707
    endloop
  endfacet
  facet normal -0.156437 4.33991e-06 -0.987688
    outer loop
      vertex 2.39185 -6.92875 25.7334
      vertex 7.20695 -18.0701 24.9707
      vertex 3.3695 -18.8959 25.5785
    endloop
  endfacet
  facet normal -0.156437 -4.33991e-06 -0.987688
    outer loop
      vertex 2.39185 6.92875 25.7334
      vertex 3.3695 18.8959 25.5785
      vertex 7.20695 18.0701 24.9707
    endloop
  endfacet
  facet normal -0.156456 4.02646e-06 -0.987685
    outer loop
      vertex 2.39185 6.92875 25.7334
      vertex 7.20695 18.0701 24.9707
      vertex 4.28001 6.36742 25.4343
    endloop
  endfacet
  facet normal 0.668942 -0.735725 -0.105949
    outer loop
      vertex 2.45911 -5.023 11.5482
      vertex 3.89438 -3.68528 11.3209
      vertex 5.45872 -3.68528 21.1978
    endloop
  endfacet
  facet normal 0.668944 -0.735723 -0.105951
    outer loop
      vertex 2.45911 -5.023 11.5482
      vertex 5.45872 -3.68528 21.1978
      vertex 4.02346 -5.023 21.4251
    endloop
  endfacet
  facet normal 0.668944 0.735723 -0.105951
    outer loop
      vertex 2.45911 5.023 11.5482
      vertex 4.02346 5.023 21.4251
      vertex 5.45872 3.68528 21.1978
    endloop
  endfacet
  facet normal 0.668942 0.735725 -0.105949
    outer loop
      vertex 2.45911 5.023 11.5482
      vertex 5.45872 3.68528 21.1978
      vertex 3.89438 3.68528 11.3209
    endloop
  endfacet
  facet normal 0.156436 3.77083e-06 0.987688
    outer loop
      vertex 2.70472 -6.92875 27.7087
      vertex 3.68237 -18.8959 27.5539
      vertex 7.51982 -18.0701 26.9461
    endloop
  endfacet
  facet normal 0.278267 -0.959492 -0.044074
    outer loop
      vertex 2.70472 -6.92875 27.7087
      vertex 4.59288 -6.36742 27.4097
      vertex 5.21862 -6.36742 31.3604
    endloop
  endfacet
  facet normal 0.278266 -0.959493 -0.0440726
    outer loop
      vertex 2.70472 -6.92875 27.7087
      vertex 5.21862 -6.36742 31.3604
      vertex 3.33046 -6.92875 31.6595
    endloop
  endfacet
  facet normal 0.156409 -8.15117e-06 0.987692
    outer loop
      vertex 2.70472 -6.92875 27.7087
      vertex 7.51982 -18.0701 26.9461
      vertex 4.59288 -6.36742 27.4097
    endloop
  endfacet
  facet normal 0.278266 0.959493 -0.0440726
    outer loop
      vertex 2.70472 6.92875 27.7087
      vertex 3.33046 6.92875 31.6595
      vertex 5.21862 6.36742 31.3604
    endloop
  endfacet
  facet normal 0.156409 8.15117e-06 0.987692
    outer loop
      vertex 2.70472 6.92875 27.7087
      vertex 4.59288 6.36742 27.4097
      vertex 7.51982 18.0701 26.9461
    endloop
  endfacet
  facet normal 0.278267 0.959492 -0.044074
    outer loop
      vertex 2.70472 6.92875 27.7087
      vertex 5.21862 6.36742 31.3604
      vertex 4.59288 6.36742 27.4097
    endloop
  endfacet
  facet normal 0.156436 -3.77083e-06 0.987688
    outer loop
      vertex 2.70472 6.92875 27.7087
      vertex 7.51982 18.0701 26.9461
      vertex 3.68237 18.8959 27.5539
    endloop
  endfacet
  facet normal -0.156441 -1.22354e-05 -0.987687
    outer loop
      vertex 2.71605 -1.85889 11.5075
      vertex 3.16858 0 11.4358
      vertex 4.82286 -1.9482 11.1738
    endloop
  endfacet
  facet normal -0.156442 -2.05778e-05 -0.987687
    outer loop
      vertex 2.71605 -1.85889 11.5075
      vertex 4.82286 -1.9482 11.1738
      vertex 3.89438 -3.68528 11.3209
    endloop
  endfacet
  facet normal -0.958987 0.23932 0.151888
    outer loop
      vertex 2.71605 -1.85889 11.5075
      vertex 5.84473 -1.85889 31.2613
      vertex 6.29727 0 31.1896
    endloop
  endfacet
  facet normal -0.958988 0.239316 0.151889
    outer loop
      vertex 2.71605 -1.85889 11.5075
      vertex 6.29727 0 31.1896
      vertex 3.16858 0 11.4358
    endloop
  endfacet
  facet normal -0.958988 -0.239316 0.151889
    outer loop
      vertex 2.71605 1.85889 11.5075
      vertex 3.16858 0 11.4358
      vertex 6.29727 0 31.1896
    endloop
  endfacet
  facet normal -0.156442 2.05778e-05 -0.987687
    outer loop
      vertex 2.71605 1.85889 11.5075
      vertex 3.89438 3.68528 11.3209
      vertex 4.82286 1.9482 11.1738
    endloop
  endfacet
  facet normal -0.156441 1.22354e-05 -0.987687
    outer loop
      vertex 2.71605 1.85889 11.5075
      vertex 4.82286 1.9482 11.1738
      vertex 3.16858 0 11.4358
    endloop
  endfacet
  facet normal -0.958987 -0.23932 0.151888
    outer loop
      vertex 2.71605 1.85889 11.5075
      vertex 6.29727 0 31.1896
      vertex 5.84473 1.85889 31.2613
    endloop
  endfacet
  facet normal 0.156455 9.08245e-06 0.987685
    outer loop
      vertex 2.82273 -3.97083 31.7399
      vertex 3.33046 -6.92875 31.6595
      vertex 5.21862 -6.36742 31.3604
    endloop
  endfacet
  facet normal 0.156424 -2.24634e-05 0.98769
    outer loop
      vertex 2.82273 -3.97083 31.7399
      vertex 5.21862 -6.36742 31.3604
      vertex 4.5908 -3.29193 31.4599
    endloop
  endfacet
  facet normal 0.156424 2.24634e-05 0.98769
    outer loop
      vertex 2.82273 3.97083 31.7399
      vertex 4.5908 3.29193 31.4599
      vertex 5.21862 6.36742 31.3604
    endloop
  endfacet
  facet normal 0.156455 -9.08245e-06 0.987685
    outer loop
      vertex 2.82273 3.97083 31.7399
      vertex 5.21862 6.36742 31.3604
      vertex 3.33046 6.92875 31.6595
    endloop
  endfacet
  facet normal -0.156401 -2.32975e-05 -0.987694
    outer loop
      vertex 3.16858 0 11.4358
      vertex 4.82286 1.9482 11.1738
      vertex 5.14396 0 11.123
    endloop
  endfacet
  facet normal -0.156401 2.32975e-05 -0.987694
    outer loop
      vertex 3.16858 0 11.4358
      vertex 5.14396 0 11.123
      vertex 4.82286 -1.9482 11.1738
    endloop
  endfacet
  facet normal 0.205342 -0.97815 -0.0325227
    outer loop
      vertex 3.3695 -18.8959 25.5785
      vertex 7.20695 -18.0701 24.9707
      vertex 7.51982 -18.0701 26.9461
    endloop
  endfacet
  facet normal 0.205342 -0.97815 -0.0325227
    outer loop
      vertex 3.3695 -18.8959 25.5785
      vertex 7.51982 -18.0701 26.9461
      vertex 3.68237 -18.8959 27.5539
    endloop
  endfacet
  facet normal 0.205342 0.97815 -0.0325227
    outer loop
      vertex 3.3695 18.8959 25.5785
      vertex 3.68237 18.8959 27.5539
      vertex 7.51982 18.0701 26.9461
    endloop
  endfacet
  facet normal 0.205342 0.97815 -0.0325227
    outer loop
      vertex 3.3695 18.8959 25.5785
      vertex 7.51982 18.0701 26.9461
      vertex 7.20695 18.0701 24.9707
    endloop
  endfacet
  facet normal -0.156474 6.42775e-05 -0.987682
    outer loop
      vertex 3.65428 -6.36742 21.4835
      vertex 4.02346 -5.023 21.4251
      vertex 5.30976 -5.29025 21.2213
    endloop
  endfacet
  facet normal 0.533983 -0.841254 -0.0845739
    outer loop
      vertex 3.65428 -6.36742 21.4835
      vertex 5.30976 -5.29025 21.2213
      vertex 5.9355 -5.29025 25.1721
    endloop
  endfacet
  facet normal 0.533981 -0.841256 -0.0845723
    outer loop
      vertex 3.65428 -6.36742 21.4835
      vertex 5.9355 -5.29025 25.1721
      vertex 4.28001 -6.36742 25.4343
    endloop
  endfacet
  facet normal 0.533981 0.841256 -0.0845723
    outer loop
      vertex 3.65428 6.36742 21.4835
      vertex 4.28001 6.36742 25.4343
      vertex 5.9355 5.29025 25.1721
    endloop
  endfacet
  facet normal -0.156474 -6.42775e-05 -0.987682
    outer loop
      vertex 3.65428 6.36742 21.4835
      vertex 5.30976 5.29025 21.2213
      vertex 4.02346 5.023 21.4251
    endloop
  endfacet
  facet normal 0.533983 0.841254 -0.0845739
    outer loop
      vertex 3.65428 6.36742 21.4835
      vertex 5.9355 5.29025 25.1721
      vertex 5.30976 5.29025 21.2213
    endloop
  endfacet
  facet normal 0.868646 -0.475947 -0.13758
    outer loop
      vertex 3.89438 -3.68528 11.3209
      vertex 4.82286 -1.9482 11.1738
      vertex 6.38721 -1.9482 21.0507
    endloop
  endfacet
  facet normal 0.868644 -0.475951 -0.137579
    outer loop
      vertex 3.89438 -3.68528 11.3209
      vertex 6.38721 -1.9482 21.0507
      vertex 5.45872 -3.68528 21.1978
    endloop
  endfacet
  facet normal 0.868644 0.475951 -0.137579
    outer loop
      vertex 3.89438 3.68528 11.3209
      vertex 5.45872 3.68528 21.1978
      vertex 6.38721 1.9482 21.0507
    endloop
  endfacet
  facet normal 0.868646 0.475947 -0.13758
    outer loop
      vertex 3.89438 3.68528 11.3209
      vertex 6.38721 1.9482 21.0507
      vertex 4.82286 1.9482 11.1738
    endloop
  endfacet
  facet normal -0.156475 6.10168e-05 -0.987682
    outer loop
      vertex 4.02346 -5.023 21.4251
      vertex 5.45872 -3.68528 21.1978
      vertex 5.30976 -5.29025 21.2213
    endloop
  endfacet
  facet normal -0.156475 -6.10168e-05 -0.987682
    outer loop
      vertex 4.02346 5.023 21.4251
      vertex 5.30976 5.29025 21.2213
      vertex 5.45872 3.68528 21.1978
    endloop
  endfacet
  facet normal -0.156425 3.98025e-06 -0.98769
    outer loop
      vertex 4.28001 -6.36742 25.4343
      vertex 10.7909 -16.4545 24.4031
      vertex 7.20695 -18.0701 24.9707
    endloop
  endfacet
  facet normal -0.156432 -5.86056e-07 -0.987689
    outer loop
      vertex 4.28001 -6.36742 25.4343
      vertex 5.9355 -5.29025 25.1721
      vertex 10.7909 -16.4545 24.4031
    endloop
  endfacet
  facet normal -0.156432 5.86056e-07 -0.987689
    outer loop
      vertex 4.28001 6.36742 25.4343
      vertex 10.7909 16.4545 24.4031
      vertex 5.9355 5.29025 25.1721
    endloop
  endfacet
  facet normal -0.156425 -3.98025e-06 -0.98769
    outer loop
      vertex 4.28001 6.36742 25.4343
      vertex 7.20695 18.0701 24.9707
      vertex 10.7909 16.4545 24.4031
    endloop
  endfacet
  facet normal 0.156445 -1.81273e-05 0.987687
    outer loop
      vertex 4.5908 -3.29193 31.4599
      vertex 5.21862 -6.36742 31.3604
      vertex 6.8741 -5.29025 31.0982
    endloop
  endfacet
  facet normal 0.156448 -1.42057e-05 0.987686
    outer loop
      vertex 4.5908 -3.29193 31.4599
      vertex 6.8741 -5.29025 31.0982
      vertex 5.84473 -1.85889 31.2613
    endloop
  endfacet
  facet normal 0.156448 1.42057e-05 0.987686
    outer loop
      vertex 4.5908 3.29193 31.4599
      vertex 5.84473 1.85889 31.2613
      vertex 6.8741 5.29025 31.0982
    endloop
  endfacet
  facet normal 0.156445 1.81273e-05 0.987687
    outer loop
      vertex 4.5908 3.29193 31.4599
      vertex 6.8741 5.29025 31.0982
      vertex 5.21862 6.36742 31.3604
    endloop
  endfacet
  facet normal 0.156436 -5.98188e-06 0.987688
    outer loop
      vertex 4.59288 -6.36742 27.4097
      vertex 11.1038 -16.4545 26.3784
      vertex 6.24837 -5.29025 27.1475
    endloop
  endfacet
  facet normal 0.533981 -0.841256 -0.0845744
    outer loop
      vertex 4.59288 -6.36742 27.4097
      vertex 6.24837 -5.29025 27.1475
      vertex 6.8741 -5.29025 31.0982
    endloop
  endfacet
  facet normal 0.533983 -0.841254 -0.084576
    outer loop
      vertex 4.59288 -6.36742 27.4097
      vertex 6.8741 -5.29025 31.0982
      vertex 5.21862 -6.36742 31.3604
    endloop
  endfacet
  facet normal 0.156448 1.91967e-06 0.987686
    outer loop
      vertex 4.59288 -6.36742 27.4097
      vertex 7.51982 -18.0701 26.9461
      vertex 11.1038 -16.4545 26.3784
    endloop
  endfacet
  facet normal 0.156448 -1.91967e-06 0.987686
    outer loop
      vertex 4.59288 6.36742 27.4097
      vertex 11.1038 16.4545 26.3784
      vertex 7.51982 18.0701 26.9461
    endloop
  endfacet
  facet normal 0.533983 0.841254 -0.084576
    outer loop
      vertex 4.59288 6.36742 27.4097
      vertex 5.21862 6.36742 31.3604
      vertex 6.8741 5.29025 31.0982
    endloop
  endfacet
  facet normal 0.156436 5.98188e-06 0.987688
    outer loop
      vertex 4.59288 6.36742 27.4097
      vertex 6.24837 5.29025 27.1475
      vertex 11.1038 16.4545 26.3784
    endloop
  endfacet
  facet normal 0.533981 0.841256 -0.0845744
    outer loop
      vertex 4.59288 6.36742 27.4097
      vertex 6.8741 5.29025 31.0982
      vertex 6.24837 5.29025 27.1475
    endloop
  endfacet
  facet normal 0.974218 -0.164593 -0.154302
    outer loop
      vertex 4.82286 -1.9482 11.1738
      vertex 5.14396 0 11.123
      vertex 6.7083 0 20.9998
    endloop
  endfacet
  facet normal 0.974217 -0.164596 -0.154301
    outer loop
      vertex 4.82286 -1.9482 11.1738
      vertex 6.7083 0 20.9998
      vertex 6.38721 -1.9482 21.0507
    endloop
  endfacet
  facet normal 0.974217 0.164596 -0.154301
    outer loop
      vertex 4.82286 1.9482 11.1738
      vertex 6.38721 1.9482 21.0507
      vertex 6.7083 0 20.9998
    endloop
  endfacet
  facet normal 0.974218 0.164593 -0.154302
    outer loop
      vertex 4.82286 1.9482 11.1738
      vertex 6.7083 0 20.9998
      vertex 5.14396 0 11.123
    endloop
  endfacet
  facet normal -0.156501 6.34816e-05 -0.987678
    outer loop
      vertex 5.30976 -5.29025 21.2213
      vertex 5.45872 -3.68528 21.1978
      vertex 6.59845 -3.78448 21.0172
    endloop
  endfacet
  facet normal 0.746447 -0.654859 -0.118223
    outer loop
      vertex 5.30976 -5.29025 21.2213
      vertex 6.59845 -3.78448 21.0172
      vertex 7.22418 -3.78448 24.968
    endloop
  endfacet
  facet normal 0.746449 -0.654857 -0.118225
    outer loop
      vertex 5.30976 -5.29025 21.2213
      vertex 7.22418 -3.78448 24.968
      vertex 5.9355 -5.29025 25.1721
    endloop
  endfacet
  facet normal 0.746449 0.654857 -0.118225
    outer loop
      vertex 5.30976 5.29025 21.2213
      vertex 5.9355 5.29025 25.1721
      vertex 7.22418 3.78448 24.968
    endloop
  endfacet
  facet normal -0.156501 -6.34816e-05 -0.987678
    outer loop
      vertex 5.30976 5.29025 21.2213
      vertex 6.59845 3.78448 21.0172
      vertex 5.45872 3.68528 21.1978
    endloop
  endfacet
  facet normal 0.746447 0.654859 -0.118223
    outer loop
      vertex 5.30976 5.29025 21.2213
      vertex 7.22418 3.78448 24.968
      vertex 6.59845 3.78448 21.0172
    endloop
  endfacet
  facet normal -0.156505 1.47829e-05 -0.987677
    outer loop
      vertex 5.45872 -3.68528 21.1978
      vertex 6.38721 -1.9482 21.0507
      vertex 6.59845 -3.78448 21.0172
    endloop
  endfacet
  facet normal -0.156505 -1.47829e-05 -0.987677
    outer loop
      vertex 5.45872 3.68528 21.1978
      vertex 6.59845 3.78448 21.0172
      vertex 6.38721 1.9482 21.0507
    endloop
  endfacet
  facet normal 0.156445 -1.50374e-05 0.987687
    outer loop
      vertex 5.84473 -1.85889 31.2613
      vertex 6.8741 -5.29025 31.0982
      vertex 8.16279 -3.78448 30.8941
    endloop
  endfacet
  facet normal 0.156458 1.10171e-06 0.987685
    outer loop
      vertex 5.84473 -1.85889 31.2613
      vertex 8.16279 -3.78448 30.8941
      vertex 8.98028 -1.97213 30.7646
    endloop
  endfacet
  facet normal 0.156459 7.10827e-06 0.987685
    outer loop
      vertex 5.84473 -1.85889 31.2613
      vertex 8.98028 -1.97213 30.7646
      vertex 6.29727 0 31.1896
    endloop
  endfacet
  facet normal 0.156459 -7.10827e-06 0.987685
    outer loop
      vertex 5.84473 1.85889 31.2613
      vertex 6.29727 0 31.1896
      vertex 8.98028 1.97213 30.7646
    endloop
  endfacet
  facet normal 0.156445 1.50374e-05 0.987687
    outer loop
      vertex 5.84473 1.85889 31.2613
      vertex 8.16279 3.78448 30.8941
      vertex 6.8741 5.29025 31.0982
    endloop
  endfacet
  facet normal 0.156458 -1.10171e-06 0.987685
    outer loop
      vertex 5.84473 1.85889 31.2613
      vertex 8.98028 1.97213 30.7646
      vertex 8.16279 3.78448 30.8941
    endloop
  endfacet
  facet normal -0.156431 -7.56005e-08 -0.987689
    outer loop
      vertex 5.9355 -5.29025 25.1721
      vertex 13.9649 -14.1198 23.9004
      vertex 10.7909 -16.4545 24.4031
    endloop
  endfacet
  facet normal -0.156437 -6.00129e-06 -0.987688
    outer loop
      vertex 5.9355 -5.29025 25.1721
      vertex 16.59 -11.1679 23.4846
      vertex 13.9649 -14.1198 23.9004
    endloop
  endfacet
  facet normal -0.156432 2.67857e-06 -0.987689
    outer loop
      vertex 5.9355 -5.29025 25.1721
      vertex 7.22418 -3.78448 24.968
      vertex 16.59 -11.1679 23.4846
    endloop
  endfacet
  facet normal -0.156431 7.56005e-08 -0.987689
    outer loop
      vertex 5.9355 5.29025 25.1721
      vertex 10.7909 16.4545 24.4031
      vertex 13.9649 14.1198 23.9004
    endloop
  endfacet
  facet normal -0.156437 6.00129e-06 -0.987688
    outer loop
      vertex 5.9355 5.29025 25.1721
      vertex 13.9649 14.1198 23.9004
      vertex 16.59 11.1679 23.4846
    endloop
  endfacet
  facet normal -0.156432 -2.67857e-06 -0.987689
    outer loop
      vertex 5.9355 5.29025 25.1721
      vertex 16.59 11.1679 23.4846
      vertex 7.22418 3.78448 24.968
    endloop
  endfacet
  facet normal 0.156439 -4.68456e-06 0.987688
    outer loop
      vertex 6.24837 -5.29025 27.1475
      vertex 11.1038 -16.4545 26.3784
      vertex 14.2777 -14.1198 25.8757
    endloop
  endfacet
  facet normal 0.156423 -1.97381e-05 0.98769
    outer loop
      vertex 6.24837 -5.29025 27.1475
      vertex 14.2777 -14.1198 25.8757
      vertex 16.9029 -11.1679 25.46
    endloop
  endfacet
  facet normal 0.156432 -2.4225e-06 0.987689
    outer loop
      vertex 6.24837 -5.29025 27.1475
      vertex 16.9029 -11.1679 25.46
      vertex 7.53705 -3.78448 26.9434
    endloop
  endfacet
  facet normal 0.746448 -0.654857 -0.118228
    outer loop
      vertex 6.24837 -5.29025 27.1475
      vertex 7.53705 -3.78448 26.9434
      vertex 8.16279 -3.78448 30.8941
    endloop
  endfacet
  facet normal 0.746446 -0.654859 -0.118226
    outer loop
      vertex 6.24837 -5.29025 27.1475
      vertex 8.16279 -3.78448 30.8941
      vertex 6.8741 -5.29025 31.0982
    endloop
  endfacet
  facet normal 0.156439 4.68456e-06 0.987688
    outer loop
      vertex 6.24837 5.29025 27.1475
      vertex 14.2777 14.1198 25.8757
      vertex 11.1038 16.4545 26.3784
    endloop
  endfacet
  facet normal 0.156423 1.97381e-05 0.98769
    outer loop
      vertex 6.24837 5.29025 27.1475
      vertex 16.9029 11.1679 25.46
      vertex 14.2777 14.1198 25.8757
    endloop
  endfacet
  facet normal 0.746446 0.654859 -0.118226
    outer loop
      vertex 6.24837 5.29025 27.1475
      vertex 6.8741 5.29025 31.0982
      vertex 8.16279 3.78448 30.8941
    endloop
  endfacet
  facet normal 0.156432 2.4225e-06 0.987689
    outer loop
      vertex 6.24837 5.29025 27.1475
      vertex 7.53705 3.78448 26.9434
      vertex 16.9029 11.1679 25.46
    endloop
  endfacet
  facet normal 0.746448 0.654857 -0.118228
    outer loop
      vertex 6.24837 5.29025 27.1475
      vertex 8.16279 3.78448 30.8941
      vertex 7.53705 3.78448 26.9434
    endloop
  endfacet
  facet normal 0.156434 -2.77039e-05 0.987688
    outer loop
      vertex 6.29727 0 31.1896
      vertex 8.98028 -1.97213 30.7646
      vertex 9.26033 0 30.7203
    endloop
  endfacet
  facet normal 0.156434 2.77039e-05 0.987688
    outer loop
      vertex 6.29727 0 31.1896
      vertex 9.26033 0 30.7203
      vertex 8.98028 1.97213 30.7646
    endloop
  endfacet
  facet normal -0.156404 -2.76336e-05 -0.987693
    outer loop
      vertex 6.38721 -1.9482 21.0507
      vertex 6.7083 0 20.9998
      vertex 7.41593 -1.97213 20.8878
    endloop
  endfacet
  facet normal -0.156403 2.68025e-05 -0.987693
    outer loop
      vertex 6.38721 -1.9482 21.0507
      vertex 7.41593 -1.97213 20.8878
      vertex 6.59845 -3.78448 21.0172
    endloop
  endfacet
  facet normal -0.156403 -2.68025e-05 -0.987693
    outer loop
      vertex 6.38721 1.9482 21.0507
      vertex 6.59845 3.78448 21.0172
      vertex 7.41593 1.97213 20.8878
    endloop
  endfacet
  facet normal -0.156404 2.76336e-05 -0.987693
    outer loop
      vertex 6.38721 1.9482 21.0507
      vertex 7.41593 1.97213 20.8878
      vertex 6.7083 0 20.9998
    endloop
  endfacet
  facet normal 0.898435 -0.415409 -0.142301
    outer loop
      vertex 6.59845 -3.78448 21.0172
      vertex 7.41593 -1.97213 20.8878
      vertex 8.04167 -1.97213 24.8385
    endloop
  endfacet
  facet normal 0.898431 -0.41542 -0.142294
    outer loop
      vertex 6.59845 -3.78448 21.0172
      vertex 8.04167 -1.97213 24.8385
      vertex 7.22418 -3.78448 24.968
    endloop
  endfacet
  facet normal 0.898431 0.41542 -0.142294
    outer loop
      vertex 6.59845 3.78448 21.0172
      vertex 7.22418 3.78448 24.968
      vertex 8.04167 1.97213 24.8385
    endloop
  endfacet
  facet normal 0.898435 0.415409 -0.142301
    outer loop
      vertex 6.59845 3.78448 21.0172
      vertex 8.04167 1.97213 24.8385
      vertex 7.41593 1.97213 20.8878
    endloop
  endfacet
  facet normal -0.156401 2.63939e-05 -0.987694
    outer loop
      vertex 6.7083 0 20.9998
      vertex 7.41593 1.97213 20.8878
      vertex 7.69599 0 20.8434
    endloop
  endfacet
  facet normal -0.156401 -2.63939e-05 -0.987694
    outer loop
      vertex 6.7083 0 20.9998
      vertex 7.69599 0 20.8434
      vertex 7.41593 -1.97213 20.8878
    endloop
  endfacet
  facet normal 0.401735 -0.913542 -0.0636374
    outer loop
      vertex 7.20695 -18.0701 24.9707
      vertex 10.7909 -16.4545 24.4031
      vertex 11.1038 -16.4545 26.3784
    endloop
  endfacet
  facet normal 0.401732 -0.913544 -0.0636276
    outer loop
      vertex 7.20695 -18.0701 24.9707
      vertex 11.1038 -16.4545 26.3784
      vertex 7.51982 -18.0701 26.9461
    endloop
  endfacet
  facet normal 0.401735 0.913542 -0.0636374
    outer loop
      vertex 7.20695 18.0701 24.9707
      vertex 11.1038 16.4545 26.3784
      vertex 10.7909 16.4545 24.4031
    endloop
  endfacet
  facet normal 0.401732 0.913544 -0.0636276
    outer loop
      vertex 7.20695 18.0701 24.9707
      vertex 7.51982 18.0701 26.9461
      vertex 11.1038 16.4545 26.3784
    endloop
  endfacet
  facet normal -0.156436 -2.59785e-06 -0.987688
    outer loop
      vertex 7.22418 -3.78448 24.968
      vertex 18.5516 -7.728 23.1739
      vertex 16.59 -11.1679 23.4846
    endloop
  endfacet
  facet normal -0.156439 -1.00661e-05 -0.987688
    outer loop
      vertex 7.22418 -3.78448 24.968
      vertex 8.04167 -1.97213 24.8385
      vertex 18.5516 -7.728 23.1739
    endloop
  endfacet
  facet normal -0.156436 2.59785e-06 -0.987688
    outer loop
      vertex 7.22418 3.78448 24.968
      vertex 16.59 11.1679 23.4846
      vertex 18.5516 7.728 23.1739
    endloop
  endfacet
  facet normal -0.156439 1.00661e-05 -0.987688
    outer loop
      vertex 7.22418 3.78448 24.968
      vertex 18.5516 7.728 23.1739
      vertex 8.04167 1.97213 24.8385
    endloop
  endfacet
  facet normal 0.977635 -0.142319 -0.154841
    outer loop
      vertex 7.41593 -1.97213 20.8878
      vertex 7.69599 0 20.8434
      vertex 8.32173 0 24.7942
    endloop
  endfacet
  facet normal 0.977635 -0.142311 -0.154845
    outer loop
      vertex 7.41593 -1.97213 20.8878
      vertex 8.32173 0 24.7942
      vertex 8.04167 -1.97213 24.8385
    endloop
  endfacet
  facet normal 0.977635 0.142311 -0.154845
    outer loop
      vertex 7.41593 1.97213 20.8878
      vertex 8.04167 1.97213 24.8385
      vertex 8.32173 0 24.7942
    endloop
  endfacet
  facet normal 0.977635 0.142319 -0.154841
    outer loop
      vertex 7.41593 1.97213 20.8878
      vertex 8.32173 0 24.7942
      vertex 7.69599 0 20.8434
    endloop
  endfacet
  facet normal 0.156439 5.93234e-06 0.987688
    outer loop
      vertex 7.53705 -3.78448 26.9434
      vertex 16.9029 -11.1679 25.46
      vertex 18.8644 -7.728 25.1493
    endloop
  endfacet
  facet normal 0.15644 9.68921e-06 0.987687
    outer loop
      vertex 7.53705 -3.78448 26.9434
      vertex 18.8644 -7.728 25.1493
      vertex 8.35454 -1.97213 26.8139
    endloop
  endfacet
  facet normal 0.89843 -0.41542 -0.1423
    outer loop
      vertex 7.53705 -3.78448 26.9434
      vertex 8.35454 -1.97213 26.8139
      vertex 8.98028 -1.97213 30.7646
    endloop
  endfacet
  facet normal 0.89843 -0.41542 -0.1423
    outer loop
      vertex 7.53705 -3.78448 26.9434
      vertex 8.98028 -1.97213 30.7646
      vertex 8.16279 -3.78448 30.8941
    endloop
  endfacet
  facet normal 0.156439 -5.93234e-06 0.987688
    outer loop
      vertex 7.53705 3.78448 26.9434
      vertex 18.8644 7.728 25.1493
      vertex 16.9029 11.1679 25.46
    endloop
  endfacet
  facet normal 0.89843 0.41542 -0.1423
    outer loop
      vertex 7.53705 3.78448 26.9434
      vertex 8.16279 3.78448 30.8941
      vertex 8.98028 1.97213 30.7646
    endloop
  endfacet
  facet normal 0.15644 -9.68921e-06 0.987687
    outer loop
      vertex 7.53705 3.78448 26.9434
      vertex 8.35454 1.97213 26.8139
      vertex 18.8644 7.728 25.1493
    endloop
  endfacet
  facet normal 0.89843 0.41542 -0.1423
    outer loop
      vertex 7.53705 3.78448 26.9434
      vertex 8.98028 1.97213 30.7646
      vertex 8.35454 1.97213 26.8139
    endloop
  endfacet
  facet normal -0.156433 1.86235e-06 -0.987689
    outer loop
      vertex 8.04167 -1.97213 24.8385
      vertex 19.7639 -3.95032 22.9819
      vertex 18.5516 -7.728 23.1739
    endloop
  endfacet
  facet normal -0.156428 2.77303e-05 -0.987689
    outer loop
      vertex 8.04167 -1.97213 24.8385
      vertex 8.32173 0 24.7942
      vertex 19.7639 -3.95032 22.9819
    endloop
  endfacet
  facet normal -0.156433 -1.86235e-06 -0.987689
    outer loop
      vertex 8.04167 1.97213 24.8385
      vertex 18.5516 7.728 23.1739
      vertex 19.7639 3.95032 22.9819
    endloop
  endfacet
  facet normal -0.156428 -2.77303e-05 -0.987689
    outer loop
      vertex 8.04167 1.97213 24.8385
      vertex 19.7639 3.95032 22.9819
      vertex 8.32173 0 24.7942
    endloop
  endfacet
  facet normal -0.156441 1.09025e-05 -0.987687
    outer loop
      vertex 8.32173 0 24.7942
      vertex 19.7639 3.95032 22.9819
      vertex 20.174 0 22.9169
    endloop
  endfacet
  facet normal -0.156441 -1.09025e-05 -0.987687
    outer loop
      vertex 8.32173 0 24.7942
      vertex 20.174 0 22.9169
      vertex 19.7639 -3.95032 22.9819
    endloop
  endfacet
  facet normal 0.156432 -5.66868e-06 0.987689
    outer loop
      vertex 8.35454 -1.97213 26.8139
      vertex 18.8644 -7.728 25.1493
      vertex 20.0768 -3.95032 24.9573
    endloop
  endfacet
  facet normal 0.156436 2.12354e-05 0.987688
    outer loop
      vertex 8.35454 -1.97213 26.8139
      vertex 20.0768 -3.95032 24.9573
      vertex 8.6346 0 26.7695
    endloop
  endfacet
  facet normal 0.977635 -0.142319 -0.154838
    outer loop
      vertex 8.35454 -1.97213 26.8139
      vertex 8.6346 0 26.7695
      vertex 9.26033 0 30.7203
    endloop
  endfacet
  facet normal 0.977636 -0.142306 -0.154845
    outer loop
      vertex 8.35454 -1.97213 26.8139
      vertex 9.26033 0 30.7203
      vertex 8.98028 -1.97213 30.7646
    endloop
  endfacet
  facet normal 0.156432 5.66868e-06 0.987689
    outer loop
      vertex 8.35454 1.97213 26.8139
      vertex 20.0768 3.95032 24.9573
      vertex 18.8644 7.728 25.1493
    endloop
  endfacet
  facet normal 0.156436 -2.12354e-05 0.987688
    outer loop
      vertex 8.35454 1.97213 26.8139
      vertex 8.6346 0 26.7695
      vertex 20.0768 3.95032 24.9573
    endloop
  endfacet
  facet normal 0.977636 0.142306 -0.154845
    outer loop
      vertex 8.35454 1.97213 26.8139
      vertex 8.98028 1.97213 30.7646
      vertex 9.26033 0 30.7203
    endloop
  endfacet
  facet normal 0.977635 0.142319 -0.154838
    outer loop
      vertex 8.35454 1.97213 26.8139
      vertex 9.26033 0 30.7203
      vertex 8.6346 0 26.7695
    endloop
  endfacet
  facet normal 0.156433 1.18087e-05 0.987689
    outer loop
      vertex 8.6346 0 26.7695
      vertex 20.0768 -3.95032 24.9573
      vertex 20.4869 0 24.8923
    endloop
  endfacet
  facet normal 0.156433 -1.18087e-05 0.987689
    outer loop
      vertex 8.6346 0 26.7695
      vertex 20.4869 0 24.8923
      vertex 20.0768 3.95032 24.9573
    endloop
  endfacet
endsolid model
