solid OpenSCAD_Model
  facet normal 0.999507 0.0313816 0
    outer loop
      vertex 17.5 0 48
      vertex 17.4655 1.09883 0
      vertex 17.4655 1.09883 48
    endloop
  endfacet
  facet normal 0.999507 0.0313816 0
    outer loop
      vertex 17.4655 1.09883 0
      vertex 17.5 0 48
      vertex 17.5 0 0
    endloop
  endfacet
  facet normal 0.995559 0.0941437 0
    outer loop
      vertex 17.4655 1.09883 48
      vertex 17.362 2.19333 0
      vertex 17.362 2.19333 48
    endloop
  endfacet
  facet normal 0.995559 0.0941437 0
    outer loop
      vertex 17.362 2.19333 0
      vertex 17.4655 1.09883 48
      vertex 17.4655 1.09883 0
    endloop
  endfacet
  facet normal 0.987686 0.156452 0
    outer loop
      vertex 17.362 2.19333 48
      vertex 17.19 3.27917 0
      vertex 17.19 3.27917 48
    endloop
  endfacet
  facet normal 0.987686 0.156452 0
    outer loop
      vertex 17.19 3.27917 0
      vertex 17.362 2.19333 48
      vertex 17.362 2.19333 0
    endloop
  endfacet
  facet normal 0.975921 0.218125 0
    outer loop
      vertex 17.19 3.27917 48
      vertex 16.9502 4.35207 0
      vertex 16.9502 4.35207 48
    endloop
  endfacet
  facet normal 0.975921 0.218125 0
    outer loop
      vertex 16.9502 4.35207 0
      vertex 17.19 3.27917 48
      vertex 17.19 3.27917 0
    endloop
  endfacet
  facet normal 0.960298 0.278976 0
    outer loop
      vertex 16.9502 4.35207 48
      vertex 16.6435 5.4078 0
      vertex 16.6435 5.4078 48
    endloop
  endfacet
  facet normal 0.960298 0.278976 0
    outer loop
      vertex 16.6435 5.4078 0
      vertex 16.9502 4.35207 48
      vertex 16.9502 4.35207 0
    endloop
  endfacet
  facet normal 0.940881 0.338738 0
    outer loop
      vertex 16.6435 5.4078 48
      vertex 16.2711 6.44218 0
      vertex 16.2711 6.44218 48
    endloop
  endfacet
  facet normal 0.940881 0.338738 0
    outer loop
      vertex 16.2711 6.44218 0
      vertex 16.6435 5.4078 48
      vertex 16.6435 5.4078 0
    endloop
  endfacet
  facet normal 0.91776 0.397136 0
    outer loop
      vertex 16.2711 6.44218 48
      vertex 15.8345 7.45114 0
      vertex 15.8345 7.45114 48
    endloop
  endfacet
  facet normal 0.91776 0.397136 0
    outer loop
      vertex 15.8345 7.45114 0
      vertex 16.2711 6.44218 48
      vertex 16.2711 6.44218 0
    endloop
  endfacet
  facet normal 0.891009 0.453986 0
    outer loop
      vertex 15.8345 7.45114 48
      vertex 15.3354 8.43069 0
      vertex 15.3354 8.43069 48
    endloop
  endfacet
  facet normal 0.891009 0.453986 0
    outer loop
      vertex 15.3354 8.43069 0
      vertex 15.8345 7.45114 48
      vertex 15.8345 7.45114 0
    endloop
  endfacet
  facet normal 0.860714 0.50909 0
    outer loop
      vertex 15.3354 8.43069 48
      vertex 14.7757 9.37697 0
      vertex 14.7757 9.37697 48
    endloop
  endfacet
  facet normal 0.860714 0.50909 0
    outer loop
      vertex 14.7757 9.37697 0
      vertex 15.3354 8.43069 48
      vertex 15.3354 8.43069 0
    endloop
  endfacet
  facet normal 0.827086 0.562076 0
    outer loop
      vertex 14.7757 9.37697 48
      vertex 14.1578 10.2862 0
      vertex 14.1578 10.2862 48
    endloop
  endfacet
  facet normal 0.827086 0.562076 0
    outer loop
      vertex 14.1578 10.2862 0
      vertex 14.7757 9.37697 48
      vertex 14.7757 9.37697 0
    endloop
  endfacet
  facet normal 0.790169 0.612888 0
    outer loop
      vertex 14.1578 10.2862 48
      vertex 13.484 11.1549 0
      vertex 13.484 11.1549 48
    endloop
  endfacet
  facet normal 0.790169 0.612888 0
    outer loop
      vertex 13.484 11.1549 0
      vertex 14.1578 10.2862 48
      vertex 14.1578 10.2862 0
    endloop
  endfacet
  facet normal 0.750143 0.661276 0
    outer loop
      vertex 13.484 11.1549 48
      vertex 12.757 11.9796 0
      vertex 12.757 11.9796 48
    endloop
  endfacet
  facet normal 0.750143 0.661276 0
    outer loop
      vertex 12.757 11.9796 0
      vertex 13.484 11.1549 48
      vertex 13.484 11.1549 0
    endloop
  endfacet
  facet normal 0.707107 0.707107 0
    outer loop
      vertex 12.757 11.9796 48
      vertex 11.9796 12.757 0
      vertex 11.9796 12.757 48
    endloop
  endfacet
  facet normal 0.707107 0.707107 0
    outer loop
      vertex 11.9796 12.757 0
      vertex 12.757 11.9796 48
      vertex 12.757 11.9796 0
    endloop
  endfacet
  facet normal 0.661276 0.750143 -0
    outer loop
      vertex 11.9796 12.757 0
      vertex 11.1549 13.484 48
      vertex 11.9796 12.757 48
    endloop
  endfacet
  facet normal 0.661276 0.750143 0
    outer loop
      vertex 11.1549 13.484 48
      vertex 11.9796 12.757 0
      vertex 11.1549 13.484 0
    endloop
  endfacet
  facet normal 0.612888 0.790169 -0
    outer loop
      vertex 11.1549 13.484 0
      vertex 10.2862 14.1578 48
      vertex 11.1549 13.484 48
    endloop
  endfacet
  facet normal 0.612888 0.790169 0
    outer loop
      vertex 10.2862 14.1578 48
      vertex 11.1549 13.484 0
      vertex 10.2862 14.1578 0
    endloop
  endfacet
  facet normal 0.562076 0.827086 -0
    outer loop
      vertex 10.2862 14.1578 0
      vertex 9.37697 14.7757 48
      vertex 10.2862 14.1578 48
    endloop
  endfacet
  facet normal 0.562076 0.827086 0
    outer loop
      vertex 9.37697 14.7757 48
      vertex 10.2862 14.1578 0
      vertex 9.37697 14.7757 0
    endloop
  endfacet
  facet normal 0.50909 0.860714 -0
    outer loop
      vertex 9.37697 14.7757 0
      vertex 8.43069 15.3354 48
      vertex 9.37697 14.7757 48
    endloop
  endfacet
  facet normal 0.50909 0.860714 0
    outer loop
      vertex 8.43069 15.3354 48
      vertex 9.37697 14.7757 0
      vertex 8.43069 15.3354 0
    endloop
  endfacet
  facet normal 0.453986 0.891009 -0
    outer loop
      vertex 8.43069 15.3354 0
      vertex 7.45114 15.8345 48
      vertex 8.43069 15.3354 48
    endloop
  endfacet
  facet normal 0.453986 0.891009 0
    outer loop
      vertex 7.45114 15.8345 48
      vertex 8.43069 15.3354 0
      vertex 7.45114 15.8345 0
    endloop
  endfacet
  facet normal 0.397136 0.91776 -0
    outer loop
      vertex 7.45114 15.8345 0
      vertex 6.44218 16.2711 48
      vertex 7.45114 15.8345 48
    endloop
  endfacet
  facet normal 0.397136 0.91776 0
    outer loop
      vertex 6.44218 16.2711 48
      vertex 7.45114 15.8345 0
      vertex 6.44218 16.2711 0
    endloop
  endfacet
  facet normal 0.338738 0.940881 -0
    outer loop
      vertex 6.44218 16.2711 0
      vertex 5.4078 16.6435 48
      vertex 6.44218 16.2711 48
    endloop
  endfacet
  facet normal 0.338738 0.940881 0
    outer loop
      vertex 5.4078 16.6435 48
      vertex 6.44218 16.2711 0
      vertex 5.4078 16.6435 0
    endloop
  endfacet
  facet normal 0.278976 0.960298 -0
    outer loop
      vertex 5.4078 16.6435 0
      vertex 4.35207 16.9502 48
      vertex 5.4078 16.6435 48
    endloop
  endfacet
  facet normal 0.278976 0.960298 0
    outer loop
      vertex 4.35207 16.9502 48
      vertex 5.4078 16.6435 0
      vertex 4.35207 16.9502 0
    endloop
  endfacet
  facet normal 0.218125 0.975921 -0
    outer loop
      vertex 4.35207 16.9502 0
      vertex 3.27917 17.19 48
      vertex 4.35207 16.9502 48
    endloop
  endfacet
  facet normal 0.218125 0.975921 0
    outer loop
      vertex 3.27917 17.19 48
      vertex 4.35207 16.9502 0
      vertex 3.27917 17.19 0
    endloop
  endfacet
  facet normal 0.156452 0.987686 -0
    outer loop
      vertex 3.27917 17.19 0
      vertex 2.19333 17.362 48
      vertex 3.27917 17.19 48
    endloop
  endfacet
  facet normal 0.156452 0.987686 0
    outer loop
      vertex 2.19333 17.362 48
      vertex 3.27917 17.19 0
      vertex 2.19333 17.362 0
    endloop
  endfacet
  facet normal 0.0941437 0.995559 -0
    outer loop
      vertex 2.19333 17.362 0
      vertex 1.09883 17.4655 48
      vertex 2.19333 17.362 48
    endloop
  endfacet
  facet normal 0.0941437 0.995559 0
    outer loop
      vertex 1.09883 17.4655 48
      vertex 2.19333 17.362 0
      vertex 1.09883 17.4655 0
    endloop
  endfacet
  facet normal 0.0313816 0.999507 -0
    outer loop
      vertex 1.09883 17.4655 0
      vertex 1.07153e-015 17.5 48
      vertex 1.09883 17.4655 48
    endloop
  endfacet
  facet normal 0.0313816 0.999507 0
    outer loop
      vertex 1.07153e-015 17.5 48
      vertex 1.09883 17.4655 0
      vertex 1.07153e-015 17.5 0
    endloop
  endfacet
  facet normal -0.0313816 0.999507 0
    outer loop
      vertex 1.07153e-015 17.5 0
      vertex -1.09883 17.4655 48
      vertex 1.07153e-015 17.5 48
    endloop
  endfacet
  facet normal -0.0313816 0.999507 0
    outer loop
      vertex -1.09883 17.4655 48
      vertex 1.07153e-015 17.5 0
      vertex -1.09883 17.4655 0
    endloop
  endfacet
  facet normal -0.0941437 0.995559 0
    outer loop
      vertex -1.09883 17.4655 0
      vertex -2.19333 17.362 48
      vertex -1.09883 17.4655 48
    endloop
  endfacet
  facet normal -0.0941437 0.995559 0
    outer loop
      vertex -2.19333 17.362 48
      vertex -1.09883 17.4655 0
      vertex -2.19333 17.362 0
    endloop
  endfacet
  facet normal -0.156452 0.987686 0
    outer loop
      vertex -2.19333 17.362 0
      vertex -3.27917 17.19 48
      vertex -2.19333 17.362 48
    endloop
  endfacet
  facet normal -0.156452 0.987686 0
    outer loop
      vertex -3.27917 17.19 48
      vertex -2.19333 17.362 0
      vertex -3.27917 17.19 0
    endloop
  endfacet
  facet normal -0.218125 0.975921 0
    outer loop
      vertex -3.27917 17.19 0
      vertex -4.35207 16.9502 48
      vertex -3.27917 17.19 48
    endloop
  endfacet
  facet normal -0.218125 0.975921 0
    outer loop
      vertex -4.35207 16.9502 48
      vertex -3.27917 17.19 0
      vertex -4.35207 16.9502 0
    endloop
  endfacet
  facet normal -0.278976 0.960298 0
    outer loop
      vertex -4.35207 16.9502 0
      vertex -5.4078 16.6435 48
      vertex -4.35207 16.9502 48
    endloop
  endfacet
  facet normal -0.278976 0.960298 0
    outer loop
      vertex -5.4078 16.6435 48
      vertex -4.35207 16.9502 0
      vertex -5.4078 16.6435 0
    endloop
  endfacet
  facet normal -0.338738 0.940881 0
    outer loop
      vertex -5.4078 16.6435 0
      vertex -6.44218 16.2711 48
      vertex -5.4078 16.6435 48
    endloop
  endfacet
  facet normal -0.338738 0.940881 0
    outer loop
      vertex -6.44218 16.2711 48
      vertex -5.4078 16.6435 0
      vertex -6.44218 16.2711 0
    endloop
  endfacet
  facet normal -0.397136 0.91776 0
    outer loop
      vertex -6.44218 16.2711 0
      vertex -7.45114 15.8345 48
      vertex -6.44218 16.2711 48
    endloop
  endfacet
  facet normal -0.397136 0.91776 0
    outer loop
      vertex -7.45114 15.8345 48
      vertex -6.44218 16.2711 0
      vertex -7.45114 15.8345 0
    endloop
  endfacet
  facet normal -0.453986 0.891009 0
    outer loop
      vertex -7.45114 15.8345 0
      vertex -8.43069 15.3354 48
      vertex -7.45114 15.8345 48
    endloop
  endfacet
  facet normal -0.453986 0.891009 0
    outer loop
      vertex -8.43069 15.3354 48
      vertex -7.45114 15.8345 0
      vertex -8.43069 15.3354 0
    endloop
  endfacet
  facet normal -0.50909 0.860714 0
    outer loop
      vertex -8.43069 15.3354 0
      vertex -9.37697 14.7757 48
      vertex -8.43069 15.3354 48
    endloop
  endfacet
  facet normal -0.50909 0.860714 0
    outer loop
      vertex -9.37697 14.7757 48
      vertex -8.43069 15.3354 0
      vertex -9.37697 14.7757 0
    endloop
  endfacet
  facet normal -0.562076 0.827086 0
    outer loop
      vertex -9.37697 14.7757 0
      vertex -10.2862 14.1578 48
      vertex -9.37697 14.7757 48
    endloop
  endfacet
  facet normal -0.562076 0.827086 0
    outer loop
      vertex -10.2862 14.1578 48
      vertex -9.37697 14.7757 0
      vertex -10.2862 14.1578 0
    endloop
  endfacet
  facet normal -0.612888 0.790169 0
    outer loop
      vertex -10.2862 14.1578 0
      vertex -11.1549 13.484 48
      vertex -10.2862 14.1578 48
    endloop
  endfacet
  facet normal -0.612888 0.790169 0
    outer loop
      vertex -11.1549 13.484 48
      vertex -10.2862 14.1578 0
      vertex -11.1549 13.484 0
    endloop
  endfacet
  facet normal -0.661276 0.750143 0
    outer loop
      vertex -11.1549 13.484 0
      vertex -11.9796 12.757 48
      vertex -11.1549 13.484 48
    endloop
  endfacet
  facet normal -0.661276 0.750143 0
    outer loop
      vertex -11.9796 12.757 48
      vertex -11.1549 13.484 0
      vertex -11.9796 12.757 0
    endloop
  endfacet
  facet normal -0.707107 0.707107 0
    outer loop
      vertex -12.757 11.9796 0
      vertex -11.9796 12.757 48
      vertex -11.9796 12.757 0
    endloop
  endfacet
  facet normal -0.707107 0.707107 0
    outer loop
      vertex -11.9796 12.757 48
      vertex -12.757 11.9796 0
      vertex -12.757 11.9796 48
    endloop
  endfacet
  facet normal -0.750143 0.661276 0
    outer loop
      vertex -13.484 11.1549 0
      vertex -12.757 11.9796 48
      vertex -12.757 11.9796 0
    endloop
  endfacet
  facet normal -0.750143 0.661276 0
    outer loop
      vertex -12.757 11.9796 48
      vertex -13.484 11.1549 0
      vertex -13.484 11.1549 48
    endloop
  endfacet
  facet normal -0.790169 0.612888 0
    outer loop
      vertex -14.1578 10.2862 0
      vertex -13.484 11.1549 48
      vertex -13.484 11.1549 0
    endloop
  endfacet
  facet normal -0.790169 0.612888 0
    outer loop
      vertex -13.484 11.1549 48
      vertex -14.1578 10.2862 0
      vertex -14.1578 10.2862 48
    endloop
  endfacet
  facet normal -0.827086 0.562076 0
    outer loop
      vertex -14.7757 9.37697 0
      vertex -14.1578 10.2862 48
      vertex -14.1578 10.2862 0
    endloop
  endfacet
  facet normal -0.827086 0.562076 0
    outer loop
      vertex -14.1578 10.2862 48
      vertex -14.7757 9.37697 0
      vertex -14.7757 9.37697 48
    endloop
  endfacet
  facet normal -0.860714 0.50909 0
    outer loop
      vertex -15.3354 8.43069 0
      vertex -14.7757 9.37697 48
      vertex -14.7757 9.37697 0
    endloop
  endfacet
  facet normal -0.860714 0.50909 0
    outer loop
      vertex -14.7757 9.37697 48
      vertex -15.3354 8.43069 0
      vertex -15.3354 8.43069 48
    endloop
  endfacet
  facet normal -0.891009 0.453986 0
    outer loop
      vertex -15.8345 7.45114 0
      vertex -15.3354 8.43069 48
      vertex -15.3354 8.43069 0
    endloop
  endfacet
  facet normal -0.891009 0.453986 0
    outer loop
      vertex -15.3354 8.43069 48
      vertex -15.8345 7.45114 0
      vertex -15.8345 7.45114 48
    endloop
  endfacet
  facet normal -0.91776 0.397136 0
    outer loop
      vertex -16.2711 6.44218 0
      vertex -15.8345 7.45114 48
      vertex -15.8345 7.45114 0
    endloop
  endfacet
  facet normal -0.91776 0.397136 0
    outer loop
      vertex -15.8345 7.45114 48
      vertex -16.2711 6.44218 0
      vertex -16.2711 6.44218 48
    endloop
  endfacet
  facet normal -0.940881 0.338738 0
    outer loop
      vertex -16.6435 5.4078 0
      vertex -16.2711 6.44218 48
      vertex -16.2711 6.44218 0
    endloop
  endfacet
  facet normal -0.940881 0.338738 0
    outer loop
      vertex -16.2711 6.44218 48
      vertex -16.6435 5.4078 0
      vertex -16.6435 5.4078 48
    endloop
  endfacet
  facet normal -0.960298 0.278976 0
    outer loop
      vertex -16.9502 4.35207 0
      vertex -16.6435 5.4078 48
      vertex -16.6435 5.4078 0
    endloop
  endfacet
  facet normal -0.960298 0.278976 0
    outer loop
      vertex -16.6435 5.4078 48
      vertex -16.9502 4.35207 0
      vertex -16.9502 4.35207 48
    endloop
  endfacet
  facet normal -0.975921 0.218125 0
    outer loop
      vertex -17.19 3.27917 0
      vertex -16.9502 4.35207 48
      vertex -16.9502 4.35207 0
    endloop
  endfacet
  facet normal -0.975921 0.218125 0
    outer loop
      vertex -16.9502 4.35207 48
      vertex -17.19 3.27917 0
      vertex -17.19 3.27917 48
    endloop
  endfacet
  facet normal -0.987686 0.156452 0
    outer loop
      vertex -17.362 2.19333 0
      vertex -17.19 3.27917 48
      vertex -17.19 3.27917 0
    endloop
  endfacet
  facet normal -0.987686 0.156452 0
    outer loop
      vertex -17.19 3.27917 48
      vertex -17.362 2.19333 0
      vertex -17.362 2.19333 48
    endloop
  endfacet
  facet normal -0.995559 0.0941437 0
    outer loop
      vertex -17.4655 1.09883 0
      vertex -17.362 2.19333 48
      vertex -17.362 2.19333 0
    endloop
  endfacet
  facet normal -0.995559 0.0941437 0
    outer loop
      vertex -17.362 2.19333 48
      vertex -17.4655 1.09883 0
      vertex -17.4655 1.09883 48
    endloop
  endfacet
  facet normal -0.999507 0.0313816 0
    outer loop
      vertex -17.5 2.14306e-015 0
      vertex -17.4655 1.09883 48
      vertex -17.4655 1.09883 0
    endloop
  endfacet
  facet normal -0.999507 0.0313816 0
    outer loop
      vertex -17.4655 1.09883 48
      vertex -17.5 2.14306e-015 0
      vertex -17.5 2.14306e-015 48
    endloop
  endfacet
  facet normal -0.999507 -0.0313816 0
    outer loop
      vertex -17.4655 -1.09883 0
      vertex -17.5 2.14306e-015 48
      vertex -17.5 2.14306e-015 0
    endloop
  endfacet
  facet normal -0.999507 -0.0313816 0
    outer loop
      vertex -17.5 2.14306e-015 48
      vertex -17.4655 -1.09883 0
      vertex -17.4655 -1.09883 48
    endloop
  endfacet
  facet normal -0.995559 -0.0941437 0
    outer loop
      vertex -17.362 -2.19333 0
      vertex -17.4655 -1.09883 48
      vertex -17.4655 -1.09883 0
    endloop
  endfacet
  facet normal -0.995559 -0.0941437 0
    outer loop
      vertex -17.4655 -1.09883 48
      vertex -17.362 -2.19333 0
      vertex -17.362 -2.19333 48
    endloop
  endfacet
  facet normal -0.987686 -0.156452 0
    outer loop
      vertex -17.19 -3.27917 0
      vertex -17.362 -2.19333 48
      vertex -17.362 -2.19333 0
    endloop
  endfacet
  facet normal -0.987686 -0.156452 0
    outer loop
      vertex -17.362 -2.19333 48
      vertex -17.19 -3.27917 0
      vertex -17.19 -3.27917 48
    endloop
  endfacet
  facet normal -0.975921 -0.218125 0
    outer loop
      vertex -16.9502 -4.35207 0
      vertex -17.19 -3.27917 48
      vertex -17.19 -3.27917 0
    endloop
  endfacet
  facet normal -0.975921 -0.218125 0
    outer loop
      vertex -17.19 -3.27917 48
      vertex -16.9502 -4.35207 0
      vertex -16.9502 -4.35207 48
    endloop
  endfacet
  facet normal -0.960298 -0.278976 0
    outer loop
      vertex -16.6435 -5.4078 0
      vertex -16.9502 -4.35207 48
      vertex -16.9502 -4.35207 0
    endloop
  endfacet
  facet normal -0.960298 -0.278976 0
    outer loop
      vertex -16.9502 -4.35207 48
      vertex -16.6435 -5.4078 0
      vertex -16.6435 -5.4078 48
    endloop
  endfacet
  facet normal -0.940881 -0.338738 0
    outer loop
      vertex -16.2711 -6.44218 0
      vertex -16.6435 -5.4078 48
      vertex -16.6435 -5.4078 0
    endloop
  endfacet
  facet normal -0.940881 -0.338738 0
    outer loop
      vertex -16.6435 -5.4078 48
      vertex -16.2711 -6.44218 0
      vertex -16.2711 -6.44218 48
    endloop
  endfacet
  facet normal -0.91776 -0.397136 0
    outer loop
      vertex -15.8345 -7.45114 0
      vertex -16.2711 -6.44218 48
      vertex -16.2711 -6.44218 0
    endloop
  endfacet
  facet normal -0.91776 -0.397136 0
    outer loop
      vertex -16.2711 -6.44218 48
      vertex -15.8345 -7.45114 0
      vertex -15.8345 -7.45114 48
    endloop
  endfacet
  facet normal -0.891009 -0.453986 0
    outer loop
      vertex -15.3354 -8.43069 0
      vertex -15.8345 -7.45114 48
      vertex -15.8345 -7.45114 0
    endloop
  endfacet
  facet normal -0.891009 -0.453986 0
    outer loop
      vertex -15.8345 -7.45114 48
      vertex -15.3354 -8.43069 0
      vertex -15.3354 -8.43069 48
    endloop
  endfacet
  facet normal -0.860714 -0.50909 0
    outer loop
      vertex -14.7757 -9.37697 0
      vertex -15.3354 -8.43069 48
      vertex -15.3354 -8.43069 0
    endloop
  endfacet
  facet normal -0.860714 -0.50909 0
    outer loop
      vertex -15.3354 -8.43069 48
      vertex -14.7757 -9.37697 0
      vertex -14.7757 -9.37697 48
    endloop
  endfacet
  facet normal -0.827086 -0.562076 0
    outer loop
      vertex -14.1578 -10.2862 0
      vertex -14.7757 -9.37697 48
      vertex -14.7757 -9.37697 0
    endloop
  endfacet
  facet normal -0.827086 -0.562076 0
    outer loop
      vertex -14.7757 -9.37697 48
      vertex -14.1578 -10.2862 0
      vertex -14.1578 -10.2862 48
    endloop
  endfacet
  facet normal -0.790169 -0.612888 0
    outer loop
      vertex -13.484 -11.1549 0
      vertex -14.1578 -10.2862 48
      vertex -14.1578 -10.2862 0
    endloop
  endfacet
  facet normal -0.790169 -0.612888 0
    outer loop
      vertex -14.1578 -10.2862 48
      vertex -13.484 -11.1549 0
      vertex -13.484 -11.1549 48
    endloop
  endfacet
  facet normal -0.750143 -0.661276 0
    outer loop
      vertex -12.757 -11.9796 0
      vertex -13.484 -11.1549 48
      vertex -13.484 -11.1549 0
    endloop
  endfacet
  facet normal -0.750143 -0.661276 0
    outer loop
      vertex -13.484 -11.1549 48
      vertex -12.757 -11.9796 0
      vertex -12.757 -11.9796 48
    endloop
  endfacet
  facet normal -0.707107 -0.707107 0
    outer loop
      vertex -11.9796 -12.757 0
      vertex -12.757 -11.9796 48
      vertex -12.757 -11.9796 0
    endloop
  endfacet
  facet normal -0.707107 -0.707107 0
    outer loop
      vertex -12.757 -11.9796 48
      vertex -11.9796 -12.757 0
      vertex -11.9796 -12.757 48
    endloop
  endfacet
  facet normal -0.661276 -0.750143 0
    outer loop
      vertex -11.9796 -12.757 0
      vertex -11.1549 -13.484 48
      vertex -11.9796 -12.757 48
    endloop
  endfacet
  facet normal -0.661276 -0.750143 -0
    outer loop
      vertex -11.1549 -13.484 48
      vertex -11.9796 -12.757 0
      vertex -11.1549 -13.484 0
    endloop
  endfacet
  facet normal -0.612888 -0.790169 0
    outer loop
      vertex -11.1549 -13.484 0
      vertex -10.2862 -14.1578 48
      vertex -11.1549 -13.484 48
    endloop
  endfacet
  facet normal -0.612888 -0.790169 -0
    outer loop
      vertex -10.2862 -14.1578 48
      vertex -11.1549 -13.484 0
      vertex -10.2862 -14.1578 0
    endloop
  endfacet
  facet normal -0.562076 -0.827086 0
    outer loop
      vertex -10.2862 -14.1578 0
      vertex -9.37697 -14.7757 48
      vertex -10.2862 -14.1578 48
    endloop
  endfacet
  facet normal -0.562076 -0.827086 -0
    outer loop
      vertex -9.37697 -14.7757 48
      vertex -10.2862 -14.1578 0
      vertex -9.37697 -14.7757 0
    endloop
  endfacet
  facet normal -0.50909 -0.860714 0
    outer loop
      vertex -9.37697 -14.7757 0
      vertex -8.43069 -15.3354 48
      vertex -9.37697 -14.7757 48
    endloop
  endfacet
  facet normal -0.50909 -0.860714 -0
    outer loop
      vertex -8.43069 -15.3354 48
      vertex -9.37697 -14.7757 0
      vertex -8.43069 -15.3354 0
    endloop
  endfacet
  facet normal -0.453986 -0.891009 0
    outer loop
      vertex -8.43069 -15.3354 0
      vertex -7.45114 -15.8345 48
      vertex -8.43069 -15.3354 48
    endloop
  endfacet
  facet normal -0.453986 -0.891009 -0
    outer loop
      vertex -7.45114 -15.8345 48
      vertex -8.43069 -15.3354 0
      vertex -7.45114 -15.8345 0
    endloop
  endfacet
  facet normal -0.397136 -0.91776 0
    outer loop
      vertex -7.45114 -15.8345 0
      vertex -6.44218 -16.2711 48
      vertex -7.45114 -15.8345 48
    endloop
  endfacet
  facet normal -0.397136 -0.91776 -0
    outer loop
      vertex -6.44218 -16.2711 48
      vertex -7.45114 -15.8345 0
      vertex -6.44218 -16.2711 0
    endloop
  endfacet
  facet normal -0.338738 -0.940881 0
    outer loop
      vertex -6.44218 -16.2711 0
      vertex -5.4078 -16.6435 48
      vertex -6.44218 -16.2711 48
    endloop
  endfacet
  facet normal -0.338738 -0.940881 -0
    outer loop
      vertex -5.4078 -16.6435 48
      vertex -6.44218 -16.2711 0
      vertex -5.4078 -16.6435 0
    endloop
  endfacet
  facet normal -0.278976 -0.960298 0
    outer loop
      vertex -5.4078 -16.6435 0
      vertex -4.35207 -16.9502 48
      vertex -5.4078 -16.6435 48
    endloop
  endfacet
  facet normal -0.278976 -0.960298 -0
    outer loop
      vertex -4.35207 -16.9502 48
      vertex -5.4078 -16.6435 0
      vertex -4.35207 -16.9502 0
    endloop
  endfacet
  facet normal -0.218125 -0.975921 0
    outer loop
      vertex -4.35207 -16.9502 0
      vertex -3.27917 -17.19 48
      vertex -4.35207 -16.9502 48
    endloop
  endfacet
  facet normal -0.218125 -0.975921 -0
    outer loop
      vertex -3.27917 -17.19 48
      vertex -4.35207 -16.9502 0
      vertex -3.27917 -17.19 0
    endloop
  endfacet
  facet normal -0.156452 -0.987686 0
    outer loop
      vertex -3.27917 -17.19 0
      vertex -2.19333 -17.362 48
      vertex -3.27917 -17.19 48
    endloop
  endfacet
  facet normal -0.156452 -0.987686 -0
    outer loop
      vertex -2.19333 -17.362 48
      vertex -3.27917 -17.19 0
      vertex -2.19333 -17.362 0
    endloop
  endfacet
  facet normal -0.0941437 -0.995559 0
    outer loop
      vertex -2.19333 -17.362 0
      vertex -1.09883 -17.4655 48
      vertex -2.19333 -17.362 48
    endloop
  endfacet
  facet normal -0.0941437 -0.995559 -0
    outer loop
      vertex -1.09883 -17.4655 48
      vertex -2.19333 -17.362 0
      vertex -1.09883 -17.4655 0
    endloop
  endfacet
  facet normal -0.0313816 -0.999507 0
    outer loop
      vertex -1.09883 -17.4655 0
      vertex -3.21459e-015 -17.5 48
      vertex -1.09883 -17.4655 48
    endloop
  endfacet
  facet normal -0.0313816 -0.999507 -0
    outer loop
      vertex -3.21459e-015 -17.5 48
      vertex -1.09883 -17.4655 0
      vertex -3.21459e-015 -17.5 0
    endloop
  endfacet
  facet normal 0.0313816 -0.999507 0
    outer loop
      vertex -3.21459e-015 -17.5 0
      vertex 1.09883 -17.4655 48
      vertex -3.21459e-015 -17.5 48
    endloop
  endfacet
  facet normal 0.0313816 -0.999507 0
    outer loop
      vertex 1.09883 -17.4655 48
      vertex -3.21459e-015 -17.5 0
      vertex 1.09883 -17.4655 0
    endloop
  endfacet
  facet normal 0.0941437 -0.995559 0
    outer loop
      vertex 1.09883 -17.4655 0
      vertex 2.19333 -17.362 48
      vertex 1.09883 -17.4655 48
    endloop
  endfacet
  facet normal 0.0941437 -0.995559 0
    outer loop
      vertex 2.19333 -17.362 48
      vertex 1.09883 -17.4655 0
      vertex 2.19333 -17.362 0
    endloop
  endfacet
  facet normal 0.156452 -0.987686 0
    outer loop
      vertex 2.19333 -17.362 0
      vertex 3.27917 -17.19 48
      vertex 2.19333 -17.362 48
    endloop
  endfacet
  facet normal 0.156452 -0.987686 0
    outer loop
      vertex 3.27917 -17.19 48
      vertex 2.19333 -17.362 0
      vertex 3.27917 -17.19 0
    endloop
  endfacet
  facet normal 0.218125 -0.975921 0
    outer loop
      vertex 3.27917 -17.19 0
      vertex 4.35207 -16.9502 48
      vertex 3.27917 -17.19 48
    endloop
  endfacet
  facet normal 0.218125 -0.975921 0
    outer loop
      vertex 4.35207 -16.9502 48
      vertex 3.27917 -17.19 0
      vertex 4.35207 -16.9502 0
    endloop
  endfacet
  facet normal 0.278976 -0.960298 0
    outer loop
      vertex 4.35207 -16.9502 0
      vertex 5.4078 -16.6435 48
      vertex 4.35207 -16.9502 48
    endloop
  endfacet
  facet normal 0.278976 -0.960298 0
    outer loop
      vertex 5.4078 -16.6435 48
      vertex 4.35207 -16.9502 0
      vertex 5.4078 -16.6435 0
    endloop
  endfacet
  facet normal 0.338738 -0.940881 0
    outer loop
      vertex 5.4078 -16.6435 0
      vertex 6.44218 -16.2711 48
      vertex 5.4078 -16.6435 48
    endloop
  endfacet
  facet normal 0.338738 -0.940881 0
    outer loop
      vertex 6.44218 -16.2711 48
      vertex 5.4078 -16.6435 0
      vertex 6.44218 -16.2711 0
    endloop
  endfacet
  facet normal 0.397136 -0.91776 0
    outer loop
      vertex 6.44218 -16.2711 0
      vertex 7.45114 -15.8345 48
      vertex 6.44218 -16.2711 48
    endloop
  endfacet
  facet normal 0.397136 -0.91776 0
    outer loop
      vertex 7.45114 -15.8345 48
      vertex 6.44218 -16.2711 0
      vertex 7.45114 -15.8345 0
    endloop
  endfacet
  facet normal 0.453986 -0.891009 0
    outer loop
      vertex 7.45114 -15.8345 0
      vertex 8.43069 -15.3354 48
      vertex 7.45114 -15.8345 48
    endloop
  endfacet
  facet normal 0.453986 -0.891009 0
    outer loop
      vertex 8.43069 -15.3354 48
      vertex 7.45114 -15.8345 0
      vertex 8.43069 -15.3354 0
    endloop
  endfacet
  facet normal 0.50909 -0.860714 0
    outer loop
      vertex 8.43069 -15.3354 0
      vertex 9.37697 -14.7757 48
      vertex 8.43069 -15.3354 48
    endloop
  endfacet
  facet normal 0.50909 -0.860714 0
    outer loop
      vertex 9.37697 -14.7757 48
      vertex 8.43069 -15.3354 0
      vertex 9.37697 -14.7757 0
    endloop
  endfacet
  facet normal 0.562076 -0.827086 0
    outer loop
      vertex 9.37697 -14.7757 0
      vertex 10.2862 -14.1578 48
      vertex 9.37697 -14.7757 48
    endloop
  endfacet
  facet normal 0.562076 -0.827086 0
    outer loop
      vertex 10.2862 -14.1578 48
      vertex 9.37697 -14.7757 0
      vertex 10.2862 -14.1578 0
    endloop
  endfacet
  facet normal 0.612888 -0.790169 0
    outer loop
      vertex 10.2862 -14.1578 0
      vertex 11.1549 -13.484 48
      vertex 10.2862 -14.1578 48
    endloop
  endfacet
  facet normal 0.612888 -0.790169 0
    outer loop
      vertex 11.1549 -13.484 48
      vertex 10.2862 -14.1578 0
      vertex 11.1549 -13.484 0
    endloop
  endfacet
  facet normal 0.661276 -0.750143 0
    outer loop
      vertex 11.1549 -13.484 0
      vertex 11.9796 -12.757 48
      vertex 11.1549 -13.484 48
    endloop
  endfacet
  facet normal 0.661276 -0.750143 0
    outer loop
      vertex 11.9796 -12.757 48
      vertex 11.1549 -13.484 0
      vertex 11.9796 -12.757 0
    endloop
  endfacet
  facet normal 0.707107 -0.707107 0
    outer loop
      vertex 11.9796 -12.757 48
      vertex 12.757 -11.9796 0
      vertex 12.757 -11.9796 48
    endloop
  endfacet
  facet normal 0.707107 -0.707107 0
    outer loop
      vertex 12.757 -11.9796 0
      vertex 11.9796 -12.757 48
      vertex 11.9796 -12.757 0
    endloop
  endfacet
  facet normal 0.750143 -0.661276 0
    outer loop
      vertex 12.757 -11.9796 48
      vertex 13.484 -11.1549 0
      vertex 13.484 -11.1549 48
    endloop
  endfacet
  facet normal 0.750143 -0.661276 0
    outer loop
      vertex 13.484 -11.1549 0
      vertex 12.757 -11.9796 48
      vertex 12.757 -11.9796 0
    endloop
  endfacet
  facet normal 0.790169 -0.612888 0
    outer loop
      vertex 13.484 -11.1549 48
      vertex 14.1578 -10.2862 0
      vertex 14.1578 -10.2862 48
    endloop
  endfacet
  facet normal 0.790169 -0.612888 0
    outer loop
      vertex 14.1578 -10.2862 0
      vertex 13.484 -11.1549 48
      vertex 13.484 -11.1549 0
    endloop
  endfacet
  facet normal 0.827086 -0.562076 0
    outer loop
      vertex 14.1578 -10.2862 48
      vertex 14.7757 -9.37697 0
      vertex 14.7757 -9.37697 48
    endloop
  endfacet
  facet normal 0.827086 -0.562076 0
    outer loop
      vertex 14.7757 -9.37697 0
      vertex 14.1578 -10.2862 48
      vertex 14.1578 -10.2862 0
    endloop
  endfacet
  facet normal 0.860714 -0.50909 0
    outer loop
      vertex 14.7757 -9.37697 48
      vertex 15.3354 -8.43069 0
      vertex 15.3354 -8.43069 48
    endloop
  endfacet
  facet normal 0.860714 -0.50909 0
    outer loop
      vertex 15.3354 -8.43069 0
      vertex 14.7757 -9.37697 48
      vertex 14.7757 -9.37697 0
    endloop
  endfacet
  facet normal 0.891009 -0.453986 0
    outer loop
      vertex 15.3354 -8.43069 48
      vertex 15.8345 -7.45114 0
      vertex 15.8345 -7.45114 48
    endloop
  endfacet
  facet normal 0.891009 -0.453986 0
    outer loop
      vertex 15.8345 -7.45114 0
      vertex 15.3354 -8.43069 48
      vertex 15.3354 -8.43069 0
    endloop
  endfacet
  facet normal 0.91776 -0.397136 0
    outer loop
      vertex 15.8345 -7.45114 48
      vertex 16.2711 -6.44218 0
      vertex 16.2711 -6.44218 48
    endloop
  endfacet
  facet normal 0.91776 -0.397136 0
    outer loop
      vertex 16.2711 -6.44218 0
      vertex 15.8345 -7.45114 48
      vertex 15.8345 -7.45114 0
    endloop
  endfacet
  facet normal 0.940881 -0.338738 0
    outer loop
      vertex 16.2711 -6.44218 48
      vertex 16.6435 -5.4078 0
      vertex 16.6435 -5.4078 48
    endloop
  endfacet
  facet normal 0.940881 -0.338738 0
    outer loop
      vertex 16.6435 -5.4078 0
      vertex 16.2711 -6.44218 48
      vertex 16.2711 -6.44218 0
    endloop
  endfacet
  facet normal 0.960298 -0.278976 0
    outer loop
      vertex 16.6435 -5.4078 48
      vertex 16.9502 -4.35207 0
      vertex 16.9502 -4.35207 48
    endloop
  endfacet
  facet normal 0.960298 -0.278976 0
    outer loop
      vertex 16.9502 -4.35207 0
      vertex 16.6435 -5.4078 48
      vertex 16.6435 -5.4078 0
    endloop
  endfacet
  facet normal 0.975921 -0.218125 0
    outer loop
      vertex 16.9502 -4.35207 48
      vertex 17.19 -3.27917 0
      vertex 17.19 -3.27917 48
    endloop
  endfacet
  facet normal 0.975921 -0.218125 0
    outer loop
      vertex 17.19 -3.27917 0
      vertex 16.9502 -4.35207 48
      vertex 16.9502 -4.35207 0
    endloop
  endfacet
  facet normal 0.987686 -0.156452 0
    outer loop
      vertex 17.19 -3.27917 48
      vertex 17.362 -2.19333 0
      vertex 17.362 -2.19333 48
    endloop
  endfacet
  facet normal 0.987686 -0.156452 0
    outer loop
      vertex 17.362 -2.19333 0
      vertex 17.19 -3.27917 48
      vertex 17.19 -3.27917 0
    endloop
  endfacet
  facet normal 0.995559 -0.0941437 0
    outer loop
      vertex 17.362 -2.19333 48
      vertex 17.4655 -1.09883 0
      vertex 17.4655 -1.09883 48
    endloop
  endfacet
  facet normal 0.995559 -0.0941437 0
    outer loop
      vertex 17.4655 -1.09883 0
      vertex 17.362 -2.19333 48
      vertex 17.362 -2.19333 0
    endloop
  endfacet
  facet normal 0.999507 -0.0313816 0
    outer loop
      vertex 17.4655 -1.09883 48
      vertex 17.5 0 0
      vertex 17.5 0 48
    endloop
  endfacet
  facet normal 0.999507 -0.0313816 0
    outer loop
      vertex 17.5 0 0
      vertex 17.4655 -1.09883 48
      vertex 17.4655 -1.09883 0
    endloop
  endfacet
  facet normal 0 0 -1
    outer loop
      vertex 17.4655 -1.09883 0
      vertex 17.4655 1.09883 0
      vertex 17.5 0 0
    endloop
  endfacet
  facet normal 0 0 -1
    outer loop
      vertex 17.362 -2.19333 0
      vertex 17.4655 1.09883 0
      vertex 17.4655 -1.09883 0
    endloop
  endfacet
  facet normal 0 0 -1
    outer loop
      vertex 17.362 -2.19333 0
      vertex 17.362 2.19333 0
      vertex 17.4655 1.09883 0
    endloop
  endfacet
  facet normal 0 0 -1
    outer loop
      vertex 17.19 -3.27917 0
      vertex 17.362 2.19333 0
      vertex 17.362 -2.19333 0
    endloop
  endfacet
  facet normal 0 0 -1
    outer loop
      vertex 17.19 -3.27917 0
      vertex 17.19 3.27917 0
      vertex 17.362 2.19333 0
    endloop
  endfacet
  facet normal 0 0 -1
    outer loop
      vertex 16.9502 -4.35207 0
      vertex 17.19 3.27917 0
      vertex 17.19 -3.27917 0
    endloop
  endfacet
  facet normal 0 0 -1
    outer loop
      vertex 16.9502 -4.35207 0
      vertex 16.9502 4.35207 0
      vertex 17.19 3.27917 0
    endloop
  endfacet
  facet normal 0 0 -1
    outer loop
      vertex 16.6435 -5.4078 0
      vertex 16.9502 4.35207 0
      vertex 16.9502 -4.35207 0
    endloop
  endfacet
  facet normal 0 0 -1
    outer loop
      vertex 16.6435 -5.4078 0
      vertex 16.6435 5.4078 0
      vertex 16.9502 4.35207 0
    endloop
  endfacet
  facet normal 0 0 -1
    outer loop
      vertex 16.2711 -6.44218 0
      vertex 16.6435 5.4078 0
      vertex 16.6435 -5.4078 0
    endloop
  endfacet
  facet normal 0 0 -1
    outer loop
      vertex 16.2711 -6.44218 0
      vertex 16.2711 6.44218 0
      vertex 16.6435 5.4078 0
    endloop
  endfacet
  facet normal 0 0 -1
    outer loop
      vertex 15.8345 -7.45114 0
      vertex 16.2711 6.44218 0
      vertex 16.2711 -6.44218 0
    endloop
  endfacet
  facet normal 0 0 -1
    outer loop
      vertex 15.8345 -7.45114 0
      vertex 15.8345 7.45114 0
      vertex 16.2711 6.44218 0
    endloop
  endfacet
  facet normal 0 0 -1
    outer loop
      vertex 15.3354 -8.43069 0
      vertex 15.8345 7.45114 0
      vertex 15.8345 -7.45114 0
    endloop
  endfacet
  facet normal 0 0 -1
    outer loop
      vertex 15.3354 -8.43069 0
      vertex 15.3354 8.43069 0
      vertex 15.8345 7.45114 0
    endloop
  endfacet
  facet normal 0 0 -1
    outer loop
      vertex 14.7757 -9.37697 0
      vertex 15.3354 8.43069 0
      vertex 15.3354 -8.43069 0
    endloop
  endfacet
  facet normal 0 0 -1
    outer loop
      vertex 14.7757 -9.37697 0
      vertex 14.7757 9.37697 0
      vertex 15.3354 8.43069 0
    endloop
  endfacet
  facet normal 0 0 -1
    outer loop
      vertex 14.1578 -10.2862 0
      vertex 14.7757 9.37697 0
      vertex 14.7757 -9.37697 0
    endloop
  endfacet
  facet normal 0 0 -1
    outer loop
      vertex 14.1578 -10.2862 0
      vertex 14.1578 10.2862 0
      vertex 14.7757 9.37697 0
    endloop
  endfacet
  facet normal 0 0 -1
    outer loop
      vertex 13.484 -11.1549 0
      vertex 14.1578 10.2862 0
      vertex 14.1578 -10.2862 0
    endloop
  endfacet
  facet normal 0 0 -1
    outer loop
      vertex 13.484 -11.1549 0
      vertex 13.484 11.1549 0
      vertex 14.1578 10.2862 0
    endloop
  endfacet
  facet normal 0 0 -1
    outer loop
      vertex 12.757 -11.9796 0
      vertex 13.484 11.1549 0
      vertex 13.484 -11.1549 0
    endloop
  endfacet
  facet normal 0 0 -1
    outer loop
      vertex 12.757 -11.9796 0
      vertex 12.757 11.9796 0
      vertex 13.484 11.1549 0
    endloop
  endfacet
  facet normal 0 0 -1
    outer loop
      vertex 11.9796 -12.757 0
      vertex 12.757 11.9796 0
      vertex 12.757 -11.9796 0
    endloop
  endfacet
  facet normal 0 0 -1
    outer loop
      vertex 11.9796 -12.757 0
      vertex 11.9796 12.757 0
      vertex 12.757 11.9796 0
    endloop
  endfacet
  facet normal 0 0 -1
    outer loop
      vertex 11.1549 -13.484 0
      vertex 11.9796 12.757 0
      vertex 11.9796 -12.757 0
    endloop
  endfacet
  facet normal 0 0 -1
    outer loop
      vertex 11.1549 -13.484 0
      vertex 11.1549 13.484 0
      vertex 11.9796 12.757 0
    endloop
  endfacet
  facet normal 0 0 -1
    outer loop
      vertex 10.2862 -14.1578 0
      vertex 11.1549 13.484 0
      vertex 11.1549 -13.484 0
    endloop
  endfacet
  facet normal 0 0 -1
    outer loop
      vertex 10.2862 -14.1578 0
      vertex 10.2862 14.1578 0
      vertex 11.1549 13.484 0
    endloop
  endfacet
  facet normal 0 0 -1
    outer loop
      vertex 9.37697 -14.7757 0
      vertex 10.2862 14.1578 0
      vertex 10.2862 -14.1578 0
    endloop
  endfacet
  facet normal 0 0 -1
    outer loop
      vertex 9.37697 -14.7757 0
      vertex 9.37697 14.7757 0
      vertex 10.2862 14.1578 0
    endloop
  endfacet
  facet normal 0 0 -1
    outer loop
      vertex 8.43069 -15.3354 0
      vertex 9.37697 14.7757 0
      vertex 9.37697 -14.7757 0
    endloop
  endfacet
  facet normal 0 0 -1
    outer loop
      vertex 8.43069 -15.3354 0
      vertex 8.43069 15.3354 0
      vertex 9.37697 14.7757 0
    endloop
  endfacet
  facet normal 0 0 -1
    outer loop
      vertex 7.45114 -15.8345 0
      vertex 8.43069 15.3354 0
      vertex 8.43069 -15.3354 0
    endloop
  endfacet
  facet normal 0 0 -1
    outer loop
      vertex 7.45114 -15.8345 0
      vertex 7.45114 15.8345 0
      vertex 8.43069 15.3354 0
    endloop
  endfacet
  facet normal 0 0 -1
    outer loop
      vertex 6.44218 -16.2711 0
      vertex 7.45114 15.8345 0
      vertex 7.45114 -15.8345 0
    endloop
  endfacet
  facet normal 0 0 -1
    outer loop
      vertex 6.44218 -16.2711 0
      vertex 6.44218 16.2711 0
      vertex 7.45114 15.8345 0
    endloop
  endfacet
  facet normal 0 0 -1
    outer loop
      vertex 5.4078 -16.6435 0
      vertex 6.44218 16.2711 0
      vertex 6.44218 -16.2711 0
    endloop
  endfacet
  facet normal 0 0 -1
    outer loop
      vertex 5.4078 -16.6435 0
      vertex 5.4078 16.6435 0
      vertex 6.44218 16.2711 0
    endloop
  endfacet
  facet normal 0 0 -1
    outer loop
      vertex 4.35207 -16.9502 0
      vertex 5.4078 16.6435 0
      vertex 5.4078 -16.6435 0
    endloop
  endfacet
  facet normal 0 0 -1
    outer loop
      vertex 4.35207 -16.9502 0
      vertex 4.35207 16.9502 0
      vertex 5.4078 16.6435 0
    endloop
  endfacet
  facet normal 0 0 -1
    outer loop
      vertex 3.27917 -17.19 0
      vertex 4.35207 16.9502 0
      vertex 4.35207 -16.9502 0
    endloop
  endfacet
  facet normal 0 0 -1
    outer loop
      vertex 3.27917 -17.19 0
      vertex 3.27917 17.19 0
      vertex 4.35207 16.9502 0
    endloop
  endfacet
  facet normal 0 0 -1
    outer loop
      vertex 2.19333 -17.362 0
      vertex 3.27917 17.19 0
      vertex 3.27917 -17.19 0
    endloop
  endfacet
  facet normal 0 0 -1
    outer loop
      vertex 2.19333 -17.362 0
      vertex 2.19333 17.362 0
      vertex 3.27917 17.19 0
    endloop
  endfacet
  facet normal 0 0 -1
    outer loop
      vertex 1.09883 -17.4655 0
      vertex 2.19333 17.362 0
      vertex 2.19333 -17.362 0
    endloop
  endfacet
  facet normal 0 0 -1
    outer loop
      vertex 1.09883 -17.4655 0
      vertex 1.09883 17.4655 0
      vertex 2.19333 17.362 0
    endloop
  endfacet
  facet normal 0 0 -1
    outer loop
      vertex 1.09883 -17.4655 0
      vertex 1.07153e-015 17.5 0
      vertex 1.09883 17.4655 0
    endloop
  endfacet
  facet normal 0 0 -1
    outer loop
      vertex -3.21459e-015 -17.5 0
      vertex 1.07153e-015 17.5 0
      vertex 1.09883 -17.4655 0
    endloop
  endfacet
  facet normal 0 0 -1
    outer loop
      vertex -1.09883 -17.4655 0
      vertex 1.07153e-015 17.5 0
      vertex -3.21459e-015 -17.5 0
    endloop
  endfacet
  facet normal 0 0 -1
    outer loop
      vertex -1.09883 -17.4655 0
      vertex -1.09883 17.4655 0
      vertex 1.07153e-015 17.5 0
    endloop
  endfacet
  facet normal 0 0 -1
    outer loop
      vertex -2.19333 -17.362 0
      vertex -1.09883 17.4655 0
      vertex -1.09883 -17.4655 0
    endloop
  endfacet
  facet normal 0 0 -1
    outer loop
      vertex -2.19333 -17.362 0
      vertex -2.19333 17.362 0
      vertex -1.09883 17.4655 0
    endloop
  endfacet
  facet normal 0 0 -1
    outer loop
      vertex -3.27917 -17.19 0
      vertex -2.19333 17.362 0
      vertex -2.19333 -17.362 0
    endloop
  endfacet
  facet normal 0 0 -1
    outer loop
      vertex -3.27917 -17.19 0
      vertex -3.27917 17.19 0
      vertex -2.19333 17.362 0
    endloop
  endfacet
  facet normal 0 0 -1
    outer loop
      vertex -4.35207 -16.9502 0
      vertex -3.27917 17.19 0
      vertex -3.27917 -17.19 0
    endloop
  endfacet
  facet normal 0 0 -1
    outer loop
      vertex -4.35207 -16.9502 0
      vertex -4.35207 16.9502 0
      vertex -3.27917 17.19 0
    endloop
  endfacet
  facet normal 0 0 -1
    outer loop
      vertex -5.4078 -16.6435 0
      vertex -4.35207 16.9502 0
      vertex -4.35207 -16.9502 0
    endloop
  endfacet
  facet normal 0 0 -1
    outer loop
      vertex -5.4078 -16.6435 0
      vertex -5.4078 16.6435 0
      vertex -4.35207 16.9502 0
    endloop
  endfacet
  facet normal 0 0 -1
    outer loop
      vertex -6.44218 -16.2711 0
      vertex -5.4078 16.6435 0
      vertex -5.4078 -16.6435 0
    endloop
  endfacet
  facet normal 0 0 -1
    outer loop
      vertex -6.44218 -16.2711 0
      vertex -6.44218 16.2711 0
      vertex -5.4078 16.6435 0
    endloop
  endfacet
  facet normal 0 0 -1
    outer loop
      vertex -7.45114 -15.8345 0
      vertex -6.44218 16.2711 0
      vertex -6.44218 -16.2711 0
    endloop
  endfacet
  facet normal 0 0 -1
    outer loop
      vertex -7.45114 -15.8345 0
      vertex -7.45114 15.8345 0
      vertex -6.44218 16.2711 0
    endloop
  endfacet
  facet normal 0 0 -1
    outer loop
      vertex -8.43069 -15.3354 0
      vertex -7.45114 15.8345 0
      vertex -7.45114 -15.8345 0
    endloop
  endfacet
  facet normal 0 0 -1
    outer loop
      vertex -8.43069 -15.3354 0
      vertex -8.43069 15.3354 0
      vertex -7.45114 15.8345 0
    endloop
  endfacet
  facet normal 0 0 -1
    outer loop
      vertex -9.37697 -14.7757 0
      vertex -8.43069 15.3354 0
      vertex -8.43069 -15.3354 0
    endloop
  endfacet
  facet normal 0 0 -1
    outer loop
      vertex -9.37697 -14.7757 0
      vertex -9.37697 14.7757 0
      vertex -8.43069 15.3354 0
    endloop
  endfacet
  facet normal 0 0 -1
    outer loop
      vertex -10.2862 -14.1578 0
      vertex -9.37697 14.7757 0
      vertex -9.37697 -14.7757 0
    endloop
  endfacet
  facet normal 0 0 -1
    outer loop
      vertex -10.2862 -14.1578 0
      vertex -10.2862 14.1578 0
      vertex -9.37697 14.7757 0
    endloop
  endfacet
  facet normal 0 0 -1
    outer loop
      vertex -11.1549 -13.484 0
      vertex -10.2862 14.1578 0
      vertex -10.2862 -14.1578 0
    endloop
  endfacet
  facet normal 0 0 -1
    outer loop
      vertex -11.1549 -13.484 0
      vertex -11.1549 13.484 0
      vertex -10.2862 14.1578 0
    endloop
  endfacet
  facet normal 0 0 -1
    outer loop
      vertex -11.9796 -12.757 0
      vertex -11.1549 13.484 0
      vertex -11.1549 -13.484 0
    endloop
  endfacet
  facet normal 0 0 -1
    outer loop
      vertex -11.9796 -12.757 0
      vertex -11.9796 12.757 0
      vertex -11.1549 13.484 0
    endloop
  endfacet
  facet normal 0 0 -1
    outer loop
      vertex -12.757 -11.9796 0
      vertex -11.9796 12.757 0
      vertex -11.9796 -12.757 0
    endloop
  endfacet
  facet normal 0 0 -1
    outer loop
      vertex -12.757 -11.9796 0
      vertex -12.757 11.9796 0
      vertex -11.9796 12.757 0
    endloop
  endfacet
  facet normal 0 0 -1
    outer loop
      vertex -13.484 -11.1549 0
      vertex -12.757 11.9796 0
      vertex -12.757 -11.9796 0
    endloop
  endfacet
  facet normal 0 0 -1
    outer loop
      vertex -13.484 -11.1549 0
      vertex -13.484 11.1549 0
      vertex -12.757 11.9796 0
    endloop
  endfacet
  facet normal 0 0 -1
    outer loop
      vertex -14.1578 -10.2862 0
      vertex -13.484 11.1549 0
      vertex -13.484 -11.1549 0
    endloop
  endfacet
  facet normal 0 0 -1
    outer loop
      vertex -14.1578 -10.2862 0
      vertex -14.1578 10.2862 0
      vertex -13.484 11.1549 0
    endloop
  endfacet
  facet normal 0 0 -1
    outer loop
      vertex -14.7757 -9.37697 0
      vertex -14.1578 10.2862 0
      vertex -14.1578 -10.2862 0
    endloop
  endfacet
  facet normal 0 0 -1
    outer loop
      vertex -14.7757 -9.37697 0
      vertex -14.7757 9.37697 0
      vertex -14.1578 10.2862 0
    endloop
  endfacet
  facet normal 0 0 -1
    outer loop
      vertex -15.3354 -8.43069 0
      vertex -14.7757 9.37697 0
      vertex -14.7757 -9.37697 0
    endloop
  endfacet
  facet normal 0 0 -1
    outer loop
      vertex -15.3354 -8.43069 0
      vertex -15.3354 8.43069 0
      vertex -14.7757 9.37697 0
    endloop
  endfacet
  facet normal 0 0 -1
    outer loop
      vertex -15.8345 -7.45114 0
      vertex -15.3354 8.43069 0
      vertex -15.3354 -8.43069 0
    endloop
  endfacet
  facet normal 0 0 -1
    outer loop
      vertex -15.8345 -7.45114 0
      vertex -15.8345 7.45114 0
      vertex -15.3354 8.43069 0
    endloop
  endfacet
  facet normal 0 0 -1
    outer loop
      vertex -16.2711 -6.44218 0
      vertex -15.8345 7.45114 0
      vertex -15.8345 -7.45114 0
    endloop
  endfacet
  facet normal 0 0 -1
    outer loop
      vertex -16.2711 -6.44218 0
      vertex -16.2711 6.44218 0
      vertex -15.8345 7.45114 0
    endloop
  endfacet
  facet normal 0 0 -1
    outer loop
      vertex -16.6435 -5.4078 0
      vertex -16.2711 6.44218 0
      vertex -16.2711 -6.44218 0
    endloop
  endfacet
  facet normal 0 0 -1
    outer loop
      vertex -16.6435 -5.4078 0
      vertex -16.6435 5.4078 0
      vertex -16.2711 6.44218 0
    endloop
  endfacet
  facet normal 0 0 -1
    outer loop
      vertex -16.9502 -4.35207 0
      vertex -16.6435 5.4078 0
      vertex -16.6435 -5.4078 0
    endloop
  endfacet
  facet normal 0 0 -1
    outer loop
      vertex -16.9502 -4.35207 0
      vertex -16.9502 4.35207 0
      vertex -16.6435 5.4078 0
    endloop
  endfacet
  facet normal 0 0 -1
    outer loop
      vertex -17.19 -3.27917 0
      vertex -16.9502 4.35207 0
      vertex -16.9502 -4.35207 0
    endloop
  endfacet
  facet normal 0 0 -1
    outer loop
      vertex -17.19 -3.27917 0
      vertex -17.19 3.27917 0
      vertex -16.9502 4.35207 0
    endloop
  endfacet
  facet normal 0 0 -1
    outer loop
      vertex -17.362 -2.19333 0
      vertex -17.19 3.27917 0
      vertex -17.19 -3.27917 0
    endloop
  endfacet
  facet normal 0 0 -1
    outer loop
      vertex -17.362 -2.19333 0
      vertex -17.362 2.19333 0
      vertex -17.19 3.27917 0
    endloop
  endfacet
  facet normal 0 0 -1
    outer loop
      vertex -17.4655 -1.09883 0
      vertex -17.362 2.19333 0
      vertex -17.362 -2.19333 0
    endloop
  endfacet
  facet normal 0 0 -1
    outer loop
      vertex -17.4655 -1.09883 0
      vertex -17.4655 1.09883 0
      vertex -17.362 2.19333 0
    endloop
  endfacet
  facet normal 0 -0 -1
    outer loop
      vertex -17.4655 1.09883 0
      vertex -17.4655 -1.09883 0
      vertex -17.5 2.14306e-015 0
    endloop
  endfacet
  facet normal 0 0 1
    outer loop
      vertex 17.4655 1.09883 48
      vertex 17.4655 -1.09883 48
      vertex 17.5 0 48
    endloop
  endfacet
  facet normal 0 0 1
    outer loop
      vertex 17.362 2.19333 48
      vertex 17.4655 -1.09883 48
      vertex 17.4655 1.09883 48
    endloop
  endfacet
  facet normal 0 0 1
    outer loop
      vertex 17.362 2.19333 48
      vertex 17.362 -2.19333 48
      vertex 17.4655 -1.09883 48
    endloop
  endfacet
  facet normal 0 0 1
    outer loop
      vertex 17.19 3.27917 48
      vertex 17.362 -2.19333 48
      vertex 17.362 2.19333 48
    endloop
  endfacet
  facet normal 0 0 1
    outer loop
      vertex 17.19 3.27917 48
      vertex 17.19 -3.27917 48
      vertex 17.362 -2.19333 48
    endloop
  endfacet
  facet normal 0 0 1
    outer loop
      vertex 16.9502 4.35207 48
      vertex 17.19 -3.27917 48
      vertex 17.19 3.27917 48
    endloop
  endfacet
  facet normal 0 0 1
    outer loop
      vertex 16.9502 4.35207 48
      vertex 16.9502 -4.35207 48
      vertex 17.19 -3.27917 48
    endloop
  endfacet
  facet normal 0 0 1
    outer loop
      vertex 16.6435 5.4078 48
      vertex 16.9502 -4.35207 48
      vertex 16.9502 4.35207 48
    endloop
  endfacet
  facet normal 0 0 1
    outer loop
      vertex 16.6435 5.4078 48
      vertex 16.6435 -5.4078 48
      vertex 16.9502 -4.35207 48
    endloop
  endfacet
  facet normal 0 0 1
    outer loop
      vertex 16.2711 6.44218 48
      vertex 16.6435 -5.4078 48
      vertex 16.6435 5.4078 48
    endloop
  endfacet
  facet normal 0 0 1
    outer loop
      vertex 16.2711 6.44218 48
      vertex 16.2711 -6.44218 48
      vertex 16.6435 -5.4078 48
    endloop
  endfacet
  facet normal 0 0 1
    outer loop
      vertex 15.8345 7.45114 48
      vertex 16.2711 -6.44218 48
      vertex 16.2711 6.44218 48
    endloop
  endfacet
  facet normal 0 0 1
    outer loop
      vertex 15.8345 7.45114 48
      vertex 15.8345 -7.45114 48
      vertex 16.2711 -6.44218 48
    endloop
  endfacet
  facet normal 0 0 1
    outer loop
      vertex 15.3354 8.43069 48
      vertex 15.8345 -7.45114 48
      vertex 15.8345 7.45114 48
    endloop
  endfacet
  facet normal 0 0 1
    outer loop
      vertex 15.3354 8.43069 48
      vertex 15.3354 -8.43069 48
      vertex 15.8345 -7.45114 48
    endloop
  endfacet
  facet normal 0 0 1
    outer loop
      vertex 14.7757 9.37697 48
      vertex 15.3354 -8.43069 48
      vertex 15.3354 8.43069 48
    endloop
  endfacet
  facet normal 0 0 1
    outer loop
      vertex 14.7757 9.37697 48
      vertex 14.7757 -9.37697 48
      vertex 15.3354 -8.43069 48
    endloop
  endfacet
  facet normal 0 0 1
    outer loop
      vertex 14.1578 10.2862 48
      vertex 14.7757 -9.37697 48
      vertex 14.7757 9.37697 48
    endloop
  endfacet
  facet normal 0 0 1
    outer loop
      vertex 14.1578 10.2862 48
      vertex 14.1578 -10.2862 48
      vertex 14.7757 -9.37697 48
    endloop
  endfacet
  facet normal 0 0 1
    outer loop
      vertex 13.484 11.1549 48
      vertex 14.1578 -10.2862 48
      vertex 14.1578 10.2862 48
    endloop
  endfacet
  facet normal 0 0 1
    outer loop
      vertex 13.484 11.1549 48
      vertex 13.484 -11.1549 48
      vertex 14.1578 -10.2862 48
    endloop
  endfacet
  facet normal 0 0 1
    outer loop
      vertex 12.757 11.9796 48
      vertex 13.484 -11.1549 48
      vertex 13.484 11.1549 48
    endloop
  endfacet
  facet normal 0 0 1
    outer loop
      vertex 12.757 11.9796 48
      vertex 12.757 -11.9796 48
      vertex 13.484 -11.1549 48
    endloop
  endfacet
  facet normal 0 0 1
    outer loop
      vertex 11.9796 12.757 48
      vertex 12.757 -11.9796 48
      vertex 12.757 11.9796 48
    endloop
  endfacet
  facet normal 0 0 1
    outer loop
      vertex 11.9796 12.757 48
      vertex 11.9796 -12.757 48
      vertex 12.757 -11.9796 48
    endloop
  endfacet
  facet normal 0 0 1
    outer loop
      vertex 11.1549 13.484 48
      vertex 11.9796 -12.757 48
      vertex 11.9796 12.757 48
    endloop
  endfacet
  facet normal 0 0 1
    outer loop
      vertex 11.1549 13.484 48
      vertex 11.1549 -13.484 48
      vertex 11.9796 -12.757 48
    endloop
  endfacet
  facet normal 0 0 1
    outer loop
      vertex 10.2862 14.1578 48
      vertex 11.1549 -13.484 48
      vertex 11.1549 13.484 48
    endloop
  endfacet
  facet normal 0 0 1
    outer loop
      vertex 10.2862 14.1578 48
      vertex 10.2862 -14.1578 48
      vertex 11.1549 -13.484 48
    endloop
  endfacet
  facet normal 0 0 1
    outer loop
      vertex 9.37697 14.7757 48
      vertex 10.2862 -14.1578 48
      vertex 10.2862 14.1578 48
    endloop
  endfacet
  facet normal 0 0 1
    outer loop
      vertex 9.37697 14.7757 48
      vertex 9.37697 -14.7757 48
      vertex 10.2862 -14.1578 48
    endloop
  endfacet
  facet normal 0 0 1
    outer loop
      vertex 8.43069 15.3354 48
      vertex 9.37697 -14.7757 48
      vertex 9.37697 14.7757 48
    endloop
  endfacet
  facet normal 0 0 1
    outer loop
      vertex 8.43069 15.3354 48
      vertex 8.43069 -15.3354 48
      vertex 9.37697 -14.7757 48
    endloop
  endfacet
  facet normal 0 0 1
    outer loop
      vertex 7.45114 15.8345 48
      vertex 8.43069 -15.3354 48
      vertex 8.43069 15.3354 48
    endloop
  endfacet
  facet normal 0 0 1
    outer loop
      vertex 7.45114 15.8345 48
      vertex 7.45114 -15.8345 48
      vertex 8.43069 -15.3354 48
    endloop
  endfacet
  facet normal 0 0 1
    outer loop
      vertex 6.44218 16.2711 48
      vertex 7.45114 -15.8345 48
      vertex 7.45114 15.8345 48
    endloop
  endfacet
  facet normal 0 0 1
    outer loop
      vertex 6.44218 16.2711 48
      vertex 6.44218 -16.2711 48
      vertex 7.45114 -15.8345 48
    endloop
  endfacet
  facet normal 0 0 1
    outer loop
      vertex 5.4078 16.6435 48
      vertex 6.44218 -16.2711 48
      vertex 6.44218 16.2711 48
    endloop
  endfacet
  facet normal 0 0 1
    outer loop
      vertex 5.4078 16.6435 48
      vertex 5.4078 -16.6435 48
      vertex 6.44218 -16.2711 48
    endloop
  endfacet
  facet normal 0 0 1
    outer loop
      vertex 4.35207 16.9502 48
      vertex 5.4078 -16.6435 48
      vertex 5.4078 16.6435 48
    endloop
  endfacet
  facet normal 0 0 1
    outer loop
      vertex 4.35207 16.9502 48
      vertex 4.35207 -16.9502 48
      vertex 5.4078 -16.6435 48
    endloop
  endfacet
  facet normal 0 0 1
    outer loop
      vertex 3.27917 17.19 48
      vertex 4.35207 -16.9502 48
      vertex 4.35207 16.9502 48
    endloop
  endfacet
  facet normal 0 0 1
    outer loop
      vertex 3.27917 17.19 48
      vertex 3.27917 -17.19 48
      vertex 4.35207 -16.9502 48
    endloop
  endfacet
  facet normal 0 0 1
    outer loop
      vertex 2.19333 17.362 48
      vertex 3.27917 -17.19 48
      vertex 3.27917 17.19 48
    endloop
  endfacet
  facet normal 0 0 1
    outer loop
      vertex 2.19333 17.362 48
      vertex 2.19333 -17.362 48
      vertex 3.27917 -17.19 48
    endloop
  endfacet
  facet normal 0 0 1
    outer loop
      vertex 1.09883 17.4655 48
      vertex 2.19333 -17.362 48
      vertex 2.19333 17.362 48
    endloop
  endfacet
  facet normal 0 0 1
    outer loop
      vertex 1.09883 17.4655 48
      vertex 1.09883 -17.4655 48
      vertex 2.19333 -17.362 48
    endloop
  endfacet
  facet normal 0 0 1
    outer loop
      vertex 1.07153e-015 17.5 48
      vertex 1.09883 -17.4655 48
      vertex 1.09883 17.4655 48
    endloop
  endfacet
  facet normal 0 0 1
    outer loop
      vertex 1.07153e-015 17.5 48
      vertex -3.21459e-015 -17.5 48
      vertex 1.09883 -17.4655 48
    endloop
  endfacet
  facet normal -0 0 1
    outer loop
      vertex -1.09883 17.4655 48
      vertex -3.21459e-015 -17.5 48
      vertex 1.07153e-015 17.5 48
    endloop
  endfacet
  facet normal 0 0 1
    outer loop
      vertex -1.09883 17.4655 48
      vertex -1.09883 -17.4655 48
      vertex -3.21459e-015 -17.5 48
    endloop
  endfacet
  facet normal -0 0 1
    outer loop
      vertex -2.19333 17.362 48
      vertex -1.09883 -17.4655 48
      vertex -1.09883 17.4655 48
    endloop
  endfacet
  facet normal 0 0 1
    outer loop
      vertex -2.19333 17.362 48
      vertex -2.19333 -17.362 48
      vertex -1.09883 -17.4655 48
    endloop
  endfacet
  facet normal -0 0 1
    outer loop
      vertex -3.27917 17.19 48
      vertex -2.19333 -17.362 48
      vertex -2.19333 17.362 48
    endloop
  endfacet
  facet normal 0 0 1
    outer loop
      vertex -3.27917 17.19 48
      vertex -3.27917 -17.19 48
      vertex -2.19333 -17.362 48
    endloop
  endfacet
  facet normal -0 0 1
    outer loop
      vertex -4.35207 16.9502 48
      vertex -3.27917 -17.19 48
      vertex -3.27917 17.19 48
    endloop
  endfacet
  facet normal 0 0 1
    outer loop
      vertex -4.35207 16.9502 48
      vertex -4.35207 -16.9502 48
      vertex -3.27917 -17.19 48
    endloop
  endfacet
  facet normal -0 0 1
    outer loop
      vertex -5.4078 16.6435 48
      vertex -4.35207 -16.9502 48
      vertex -4.35207 16.9502 48
    endloop
  endfacet
  facet normal 0 0 1
    outer loop
      vertex -5.4078 16.6435 48
      vertex -5.4078 -16.6435 48
      vertex -4.35207 -16.9502 48
    endloop
  endfacet
  facet normal -0 0 1
    outer loop
      vertex -6.44218 16.2711 48
      vertex -5.4078 -16.6435 48
      vertex -5.4078 16.6435 48
    endloop
  endfacet
  facet normal 0 0 1
    outer loop
      vertex -6.44218 16.2711 48
      vertex -6.44218 -16.2711 48
      vertex -5.4078 -16.6435 48
    endloop
  endfacet
  facet normal -0 0 1
    outer loop
      vertex -7.45114 15.8345 48
      vertex -6.44218 -16.2711 48
      vertex -6.44218 16.2711 48
    endloop
  endfacet
  facet normal 0 0 1
    outer loop
      vertex -7.45114 15.8345 48
      vertex -7.45114 -15.8345 48
      vertex -6.44218 -16.2711 48
    endloop
  endfacet
  facet normal -0 0 1
    outer loop
      vertex -8.43069 15.3354 48
      vertex -7.45114 -15.8345 48
      vertex -7.45114 15.8345 48
    endloop
  endfacet
  facet normal 0 0 1
    outer loop
      vertex -8.43069 15.3354 48
      vertex -8.43069 -15.3354 48
      vertex -7.45114 -15.8345 48
    endloop
  endfacet
  facet normal -0 0 1
    outer loop
      vertex -9.37697 14.7757 48
      vertex -8.43069 -15.3354 48
      vertex -8.43069 15.3354 48
    endloop
  endfacet
  facet normal 0 0 1
    outer loop
      vertex -9.37697 14.7757 48
      vertex -9.37697 -14.7757 48
      vertex -8.43069 -15.3354 48
    endloop
  endfacet
  facet normal -0 0 1
    outer loop
      vertex -10.2862 14.1578 48
      vertex -9.37697 -14.7757 48
      vertex -9.37697 14.7757 48
    endloop
  endfacet
  facet normal 0 0 1
    outer loop
      vertex -10.2862 14.1578 48
      vertex -10.2862 -14.1578 48
      vertex -9.37697 -14.7757 48
    endloop
  endfacet
  facet normal -0 0 1
    outer loop
      vertex -11.1549 13.484 48
      vertex -10.2862 -14.1578 48
      vertex -10.2862 14.1578 48
    endloop
  endfacet
  facet normal 0 0 1
    outer loop
      vertex -11.1549 13.484 48
      vertex -11.1549 -13.484 48
      vertex -10.2862 -14.1578 48
    endloop
  endfacet
  facet normal -0 0 1
    outer loop
      vertex -11.9796 12.757 48
      vertex -11.1549 -13.484 48
      vertex -11.1549 13.484 48
    endloop
  endfacet
  facet normal 0 0 1
    outer loop
      vertex -11.9796 12.757 48
      vertex -11.9796 -12.757 48
      vertex -11.1549 -13.484 48
    endloop
  endfacet
  facet normal -0 0 1
    outer loop
      vertex -12.757 11.9796 48
      vertex -11.9796 -12.757 48
      vertex -11.9796 12.757 48
    endloop
  endfacet
  facet normal 0 0 1
    outer loop
      vertex -12.757 11.9796 48
      vertex -12.757 -11.9796 48
      vertex -11.9796 -12.757 48
    endloop
  endfacet
  facet normal -0 0 1
    outer loop
      vertex -13.484 11.1549 48
      vertex -12.757 -11.9796 48
      vertex -12.757 11.9796 48
    endloop
  endfacet
  facet normal 0 0 1
    outer loop
      vertex -13.484 11.1549 48
      vertex -13.484 -11.1549 48
      vertex -12.757 -11.9796 48
    endloop
  endfacet
  facet normal -0 0 1
    outer loop
      vertex -14.1578 10.2862 48
      vertex -13.484 -11.1549 48
      vertex -13.484 11.1549 48
    endloop
  endfacet
  facet normal 0 0 1
    outer loop
      vertex -14.1578 10.2862 48
      vertex -14.1578 -10.2862 48
      vertex -13.484 -11.1549 48
    endloop
  endfacet
  facet normal -0 0 1
    outer loop
      vertex -14.7757 9.37697 48
      vertex -14.1578 -10.2862 48
      vertex -14.1578 10.2862 48
    endloop
  endfacet
  facet normal 0 0 1
    outer loop
      vertex -14.7757 9.37697 48
      vertex -14.7757 -9.37697 48
      vertex -14.1578 -10.2862 48
    endloop
  endfacet
  facet normal -0 0 1
    outer loop
      vertex -15.3354 8.43069 48
      vertex -14.7757 -9.37697 48
      vertex -14.7757 9.37697 48
    endloop
  endfacet
  facet normal 0 0 1
    outer loop
      vertex -15.3354 8.43069 48
      vertex -15.3354 -8.43069 48
      vertex -14.7757 -9.37697 48
    endloop
  endfacet
  facet normal -0 0 1
    outer loop
      vertex -15.8345 7.45114 48
      vertex -15.3354 -8.43069 48
      vertex -15.3354 8.43069 48
    endloop
  endfacet
  facet normal 0 0 1
    outer loop
      vertex -15.8345 7.45114 48
      vertex -15.8345 -7.45114 48
      vertex -15.3354 -8.43069 48
    endloop
  endfacet
  facet normal -0 0 1
    outer loop
      vertex -16.2711 6.44218 48
      vertex -15.8345 -7.45114 48
      vertex -15.8345 7.45114 48
    endloop
  endfacet
  facet normal 0 0 1
    outer loop
      vertex -16.2711 6.44218 48
      vertex -16.2711 -6.44218 48
      vertex -15.8345 -7.45114 48
    endloop
  endfacet
  facet normal -0 0 1
    outer loop
      vertex -16.6435 5.4078 48
      vertex -16.2711 -6.44218 48
      vertex -16.2711 6.44218 48
    endloop
  endfacet
  facet normal 0 0 1
    outer loop
      vertex -16.6435 5.4078 48
      vertex -16.6435 -5.4078 48
      vertex -16.2711 -6.44218 48
    endloop
  endfacet
  facet normal -0 0 1
    outer loop
      vertex -16.9502 4.35207 48
      vertex -16.6435 -5.4078 48
      vertex -16.6435 5.4078 48
    endloop
  endfacet
  facet normal 0 0 1
    outer loop
      vertex -16.9502 4.35207 48
      vertex -16.9502 -4.35207 48
      vertex -16.6435 -5.4078 48
    endloop
  endfacet
  facet normal -0 0 1
    outer loop
      vertex -17.19 3.27917 48
      vertex -16.9502 -4.35207 48
      vertex -16.9502 4.35207 48
    endloop
  endfacet
  facet normal 0 0 1
    outer loop
      vertex -17.19 3.27917 48
      vertex -17.19 -3.27917 48
      vertex -16.9502 -4.35207 48
    endloop
  endfacet
  facet normal -0 0 1
    outer loop
      vertex -17.362 2.19333 48
      vertex -17.19 -3.27917 48
      vertex -17.19 3.27917 48
    endloop
  endfacet
  facet normal 0 0 1
    outer loop
      vertex -17.362 2.19333 48
      vertex -17.362 -2.19333 48
      vertex -17.19 -3.27917 48
    endloop
  endfacet
  facet normal -0 0 1
    outer loop
      vertex -17.4655 1.09883 48
      vertex -17.362 -2.19333 48
      vertex -17.362 2.19333 48
    endloop
  endfacet
  facet normal 0 0 1
    outer loop
      vertex -17.4655 1.09883 48
      vertex -17.4655 -1.09883 48
      vertex -17.362 -2.19333 48
    endloop
  endfacet
  facet normal 0 -0 1
    outer loop
      vertex -17.4655 -1.09883 48
      vertex -17.4655 1.09883 48
      vertex -17.5 2.14306e-015 48
    endloop
  endfacet
endsolid OpenSCAD_Model
