999
FreeCAD v0.19 
  0
SECTION
  2
HEADER
  9
$ACADVER
  1
AC1014
  9
$ACADMAINTVER
 70
     9
  9
$DWGCODEPAGE
  3
ANSI_1252
  9
$TEXTSTYLE
  7
STANDARD
  9
$DIMSTYLE
  2
STANDARD
  9
$DIMTXSTY
  7
STANDARD
  9
$CMLSTYLE
  2
STANDARD
  9
$HANDSEED
  5
FFF
  0
ENDSEC
  0
SECTION
  2
CLASSES
  0
CLASS
  1
ACDBDICTIONARYWDFLT
  2
AcDbDictionaryWithDefault
  3
ObjectDBX Classes
 90
        0
280
     0
281
     0
  0
CLASS
  1
XRECORD
  2
AcDbXrecord
  3
ObjectDBX Classes
 90
        0
280
     0
281
     0
  0
CLASS
  1
LWPOLYLINE
  2
AcDbPolyline
  3
ObjectDBX Classes
 90
        0
280
     0
281
     1
  0
ENDSEC
  0
SECTION
  2
TABLES
  0
TABLE
  2
VPORT
  5
20
330
0
100
AcDbSymbolTable
 70
     1
  0
VPORT
  5
21
330
20
100
AcDbSymbolTableRecord
100
AcDbViewportTableRecord
  2
*ACTIVE
 70
     0
  0
ENDTAB
  0
TABLE
  2
LTYPE
  5
22
330
0
100
AcDbSymbolTable
 70
     1
  0
LTYPE
  5
23
330
21
100
AcDbSymbolTableRecord
100
AcDbLinetypeTableRecord
  2
BYBLOCK
 70
     0
  3

 72
    65
 73
     0
 40
0.0
  0
LTYPE
  5
24
330
21
100
AcDbSymbolTableRecord
100
AcDbLinetypeTableRecord
  2
BYLAYER
 70
     0
  3

 72
    65
 73
     0
 40
0.0
  0
LTYPE
  5
25
330
21
100
AcDbSymbolTableRecord
100
AcDbLinetypeTableRecord
  2
CONTINUOUS
 70
     0
  3
Solid line
 72
    65
 73
     0
 40
0.0
  0
ENDTAB
  0
TABLE
  2
LAYER
  5
31
330
0
100
AcDbSymbolTable
 70
12
  0
LAYER
  5
32
330
31
100
AcDbSymbolTableRecord
100
AcDbLayerTableRecord
  2
0
 70
   0
 62
   7
  6
CONTINUOUS
  0
LAYER
  5
33
330
31
100
AcDbSymbolTableRecord
100
AcDbLayerTableRecord
  2
View002
 70
    0
 62
    7
  6
CONTINUOUS
  0
LAYER
  5
34
330
31
100
AcDbSymbolTableRecord
100
AcDbLayerTableRecord
  2
Section
 70
    0
 62
    7
  6
CONTINUOUS
  0
LAYER
  5
35
330
31
100
AcDbSymbolTableRecord
100
AcDbLayerTableRecord
  2
Dimension003
 70
    0
 62
    7
  6
CONTINUOUS
  0
LAYER
  5
36
330
31
100
AcDbSymbolTableRecord
100
AcDbLayerTableRecord
  2
Dimension004
 70
    0
 62
    7
  6
CONTINUOUS
  0
LAYER
  5
37
330
31
100
AcDbSymbolTableRecord
100
AcDbLayerTableRecord
  2
Dimension005
 70
    0
 62
    7
  6
CONTINUOUS
  0
LAYER
  5
38
330
31
100
AcDbSymbolTableRecord
100
AcDbLayerTableRecord
  2
Dimension006
 70
    0
 62
    7
  6
CONTINUOUS
  0
LAYER
  5
39
330
31
100
AcDbSymbolTableRecord
100
AcDbLayerTableRecord
  2
Dimension
 70
    0
 62
    7
  6
CONTINUOUS
  0
LAYER
  5
3A
330
31
100
AcDbSymbolTableRecord
100
AcDbLayerTableRecord
  2
Dimension008
 70
    0
 62
    7
  6
CONTINUOUS
  0
LAYER
  5
3B
330
31
100
AcDbSymbolTableRecord
100
AcDbLayerTableRecord
  2
View
 70
    0
 62
    7
  6
CONTINUOUS
  0
LAYER
  5
3C
330
31
100
AcDbSymbolTableRecord
100
AcDbLayerTableRecord
  2
Dimension009
 70
    0
 62
    7
  6
CONTINUOUS
  0
LAYER
  5
3D
330
31
100
AcDbSymbolTableRecord
100
AcDbLayerTableRecord
  2
Dimension010
 70
    0
 62
    7
  6
CONTINUOUS
  0
ENDTAB
  0
TABLE
  2
STYLE
  5
60
330
0
100
AcDbSymbolTable
 70
     2
  0
STYLE
  5
61
330
60
100
AcDbSymbolTableRecord
100
AcDbTextStyleTableRecord
  2
STANDARD
 70
     0
 40
0.0
 41
1.0
 50
0.0
 71
     0
 42
2.5
  3
arial.ttf
  4

  0
STYLE
  5
62
330
60
100
AcDbSymbolTableRecord
100
AcDbTextStyleTableRecord
  2
ANNOTATIVE
 70
     0
 40
0.0
 41
1.0
 50
0.0
 71
     0
 42
2.5
  3
arial.ttf
  4

  0
ENDTAB
  0
TABLE
  2
VIEW
  5
63
330
0
100
AcDbSymbolTable
 70
     0
  0
ENDTAB
  0
TABLE
  2
UCS
  5
64
330
0
100
AcDbSymbolTable
 70
     0
  0
ENDTAB
  0
TABLE
  2
APPID
  5
65
330
0
100
AcDbSymbolTable
 70
     2
  0
APPID
  5
66
330
65
100
AcDbSymbolTableRecord
100
AcDbRegAppTableRecord
  2
ACAD
 70
     0
  0
APPID
  5
67
330
65
100
AcDbSymbolTableRecord
100
AcDbRegAppTableRecord
  2
ACADANNOTATIVE
 70
     0
  0
ENDTAB
  0
TABLE
  2
DIMSTYLE
  5
68
330
0
100
AcDbSymbolTable
 70
     2
  0
DIMSTYLE
105
69
330
68
100
AcDbSymbolTableRecord
100
AcDbDimStyleTableRecord
  2
STANDARD
 70
     0
  3

  4

  5

  6

  7

 40
0.0
 41
2.5
 42
0.625
 43
3.75
 44
1.25
 45
0.0
 46
0.0
 47
0.0
 48
0.0
140
2.5
141
2.5
142
0.0
143
0.03937007874016
144
1.0
145
0.0
146
1.0
147
0.625
 71
     0
 72
     0
 73
     0
 74
     0
 75
     0
 76
     0
 77
     1
 78
     8
170
     0
171
     3
172
     1
173
     0
174
     0
175
     0
176
     0
177
     0
178
     0
270
     2
271
     2
272
     2
273
     2
274
     3
340
61
275
     0
280
     0
281
     0
282
     0
283
     0
284
     8
285
     0
286
     0
287
     3
288
     0
  0
ENDTAB
  0
TABLE
  2
BLOCK_RECORD
  5
111
330
0
100
AcDbSymbolTable
  70
5
  0
BLOCK_RECORD
  5
112
330
111
100
AcDbSymbolTableRecord
100
AcDbBlockTableRecord
  2
*MODEL_SPACE
  0
BLOCK_RECORD
  5
113
330
111
100
AcDbSymbolTableRecord
100
AcDbBlockTableRecord
  2
*PAPER_SPACE
  0
BLOCK_RECORD
  5
114
330
111
100
AcDbSymbolTableRecord
100
AcDbBlockTableRecord
  2
*Dimension003
  0
BLOCK_RECORD
  5
115
330
111
100
AcDbSymbolTableRecord
100
AcDbBlockTableRecord
  2
*Dimension004
  0
BLOCK_RECORD
  5
116
330
111
100
AcDbSymbolTableRecord
100
AcDbBlockTableRecord
  2
*Dimension005
  0
BLOCK_RECORD
  5
117
330
111
100
AcDbSymbolTableRecord
100
AcDbBlockTableRecord
  2
*Dimension006
  0
BLOCK_RECORD
  5
118
330
111
100
AcDbSymbolTableRecord
100
AcDbBlockTableRecord
  2
*Dimension
  0
BLOCK_RECORD
  5
119
330
111
100
AcDbSymbolTableRecord
100
AcDbBlockTableRecord
  2
*Dimension008
  0
BLOCK_RECORD
  5
11A
330
111
100
AcDbSymbolTableRecord
100
AcDbBlockTableRecord
  2
*Dimension009
  0
BLOCK_RECORD
  5
11B
330
111
100
AcDbSymbolTableRecord
100
AcDbBlockTableRecord
  2
*Dimension010
  0
ENDTAB
  0
ENDSEC
  0
SECTION
  2
BLOCKS
  0
BLOCK
  5
211
330
112
100
AcDbEntity
  8
0
100
AcDbBlockBegin
  2
*MODEL_SPACE
 70
   0
 10
0
 20
0
 30
0
  3
*MODEL_SPACE
  1
 
  0
ENDBLK
  5
212
330
112
100
AcDbEntity
  8
0
100
AcDbBlockEnd
  0
BLOCK
  5
213
330
113
100
AcDbEntity
 67
1
  8
0
100
AcDbBlockBegin
  2
*PAPER_SPACE
 70
   0
 10
0
 20
0
 30
0
  3
*PAPER_SPACE
  1
 
  0
ENDBLK
  5
214
330
113
100
AcDbEntity
 67
    1
  8
0
100
AcDbBlockEnd
  0
BLOCK
  5
215
330
114
100
AcDbEntity
  8
Dimension003
100
AcDbBlockBegin
  2
*Dimension003
 70
   1
 10
0
 20
0
 30
0
  3
*Dimension003
  1
 
  0
LINE
  5
216
330
114
100
AcDbEntity
  8
Dimension003
100
AcDbLine
 10
121.008
 20
136.167
 30
0
 11
66.0084
 21
136.167
 31
0
  0
TEXT
  5
217
330
114
100
AcDbEntity
  8
Dimension003
100
AcDbText
 10
133.547
 20
156.982
 30
0
 40
3.5
  1
⌀55
  7
STANDARD
 72
1
 11
133.547
 21
156.982
 31
0
100
AcDbText
  0
SOLID
  5
218
330
114
100
AcDbEntity
  8
0
 62
     0
100
AcDbTrace
 10
116.008
 20
135.75
 30
0
 11
116.008
 21
136.584
 31
0
 12
121.008
 22
136.167
 32
0
 13
121.008
 23
136.167
 33
0
  0
SOLID
  5
219
330
114
100
AcDbEntity
  8
0
 62
     0
100
AcDbTrace
 10
71.0084
 20
135.75
 30
0
 11
71.0084
 21
136.584
 31
0
 12
66.0084
 22
136.167
 32
0
 13
66.0084
 23
136.167
 33
0
  0
ENDBLK
  5
21A
330
114
100
AcDbEntity
  8
Dimension003
100
AcDbBlockEnd
  0
BLOCK
  5
21B
330
115
100
AcDbEntity
  8
Dimension004
100
AcDbBlockBegin
  2
*Dimension004
 70
   1
 10
0
 20
0
 30
0
  3
*Dimension004
  1
 
  0
LINE
  5
21C
330
115
100
AcDbEntity
  8
Dimension004
100
AcDbLine
 10
107.008
 20
136.167
 30
0
 11
80.0084
 21
136.167
 31
0
  0
TEXT
  5
21D
330
115
100
AcDbEntity
  8
Dimension004
100
AcDbText
 10
131.823
 20
161.622
 30
0
 40
3.5
  1
⌀27
  7
STANDARD
 72
1
 11
131.823
 21
161.622
 31
0
100
AcDbText
  0
SOLID
  5
21E
330
115
100
AcDbEntity
  8
0
 62
     0
100
AcDbTrace
 10
102.008
 20
135.75
 30
0
 11
102.008
 21
136.584
 31
0
 12
107.008
 22
136.167
 32
0
 13
107.008
 23
136.167
 33
0
  0
SOLID
  5
21F
330
115
100
AcDbEntity
  8
0
 62
     0
100
AcDbTrace
 10
85.0084
 20
135.75
 30
0
 11
85.0084
 21
136.584
 31
0
 12
80.0084
 22
136.167
 32
0
 13
80.0084
 23
136.167
 33
0
  0
ENDBLK
  5
220
330
115
100
AcDbEntity
  8
Dimension004
100
AcDbBlockEnd
  0
BLOCK
  5
221
330
116
100
AcDbEntity
  8
Dimension005
100
AcDbBlockBegin
  2
*Dimension005
 70
   1
 10
0
 20
0
 30
0
  3
*Dimension005
  1
 
  0
LINE
  5
222
330
116
100
AcDbEntity
  8
Dimension005
100
AcDbLine
 10
101.508
 20
136.167
 30
0
 11
85.5084
 21
136.167
 31
0
  0
TEXT
  5
223
330
116
100
AcDbEntity
  8
Dimension005
100
AcDbText
 10
125.194
 20
165.732
 30
0
 40
3.5
  1
⌀16
  7
STANDARD
 72
1
 11
125.194
 21
165.732
 31
0
100
AcDbText
  0
SOLID
  5
224
330
116
100
AcDbEntity
  8
0
 62
     0
100
AcDbTrace
 10
96.5084
 20
135.75
 30
0
 11
96.5084
 21
136.584
 31
0
 12
101.508
 22
136.167
 32
0
 13
101.508
 23
136.167
 33
0
  0
SOLID
  5
225
330
116
100
AcDbEntity
  8
0
 62
     0
100
AcDbTrace
 10
90.5084
 20
135.75
 30
0
 11
90.5084
 21
136.584
 31
0
 12
85.5084
 22
136.167
 32
0
 13
85.5084
 23
136.167
 33
0
  0
ENDBLK
  5
226
330
116
100
AcDbEntity
  8
Dimension005
100
AcDbBlockEnd
  0
BLOCK
  5
227
330
117
100
AcDbEntity
  8
Dimension006
100
AcDbBlockBegin
  2
*Dimension006
 70
   1
 10
0
 20
0
 30
0
  3
*Dimension006
  1
 
  0
LINE
  5
228
330
117
100
AcDbEntity
  8
Dimension006
100
AcDbLine
 10
97.5084
 20
136.167
 30
0
 11
89.5084
 21
136.167
 31
0
  0
TEXT
  5
229
330
117
100
AcDbEntity
  8
Dimension006
100
AcDbText
 10
118.721
 20
170.3
 30
0
 40
3.5
  1
⌀8H7
  7
STANDARD
 72
1
 11
118.721
 21
170.3
 31
0
100
AcDbText
  0
SOLID
  5
22A
330
117
100
AcDbEntity
  8
0
 62
     0
100
AcDbTrace
 10
92.5084
 20
135.75
 30
0
 11
92.5084
 21
136.584
 31
0
 12
97.5084
 22
136.167
 32
0
 13
97.5084
 23
136.167
 33
0
  0
SOLID
  5
22B
330
117
100
AcDbEntity
  8
0
 62
     0
100
AcDbTrace
 10
94.5084
 20
135.75
 30
0
 11
94.5084
 21
136.584
 31
0
 12
89.5084
 22
136.167
 32
0
 13
89.5084
 23
136.167
 33
0
  0
ENDBLK
  5
22C
330
117
100
AcDbEntity
  8
Dimension006
100
AcDbBlockEnd
  0
BLOCK
  5
22D
330
118
100
AcDbEntity
  8
Dimension
100
AcDbBlockBegin
  2
*Dimension
 70
   1
 10
0
 20
0
 30
0
  3
*Dimension
  1
 
  0
LINE
  5
22E
330
118
100
AcDbEntity
  8
Dimension
100
AcDbLine
 10
96.2559
 20
80.3658
 30
0
 11
129.102
 21
75.4463
 31
0
  0
LINE
  5
22F
330
118
100
AcDbEntity
  8
Dimension
100
AcDbLine
 10
96.2559
 20
86.3658
 30
0
 11
129.102
 21
81.4463
 31
0
  0
LINE
  5
230
330
118
100
AcDbEntity
  8
Dimension
100
AcDbLine
 10
129.102
 20
81.4463
 30
0
 11
129.102
 21
75.4463
 31
0
  0
TEXT
  5
231
330
118
100
AcDbEntity
  8
Dimension
100
AcDbText
 10
124.102
 20
75.4463
 30
0
 40
3.5
  1
6,00
  7
STANDARD
 72
1
 11
129.102
 21
75.4463
 31
0
100
AcDbText
  0
SOLID
  5
232
330
118
100
AcDbEntity
  8
0
 62
     0
100
AcDbTrace
 10
128.69
 20
76.508
 30
0
 11
129.514
 21
76.3846
 31
0
 12
129.102
 22
81.4463
 32
0
 13
129.102
 23
81.4463
 33
0
  0
SOLID
  5
233
330
118
100
AcDbEntity
  8
0
 62
     0
100
AcDbTrace
 10
128.69
 20
80.508
 30
0
 11
129.514
 21
80.3846
 31
0
 12
129.102
 22
75.4463
 32
0
 13
129.102
 23
75.4463
 33
0
  0
ENDBLK
  5
234
330
118
100
AcDbEntity
  8
Dimension
100
AcDbBlockEnd
  0
BLOCK
  5
235
330
119
100
AcDbEntity
  8
Dimension008
100
AcDbBlockBegin
  2
*Dimension008
 70
   1
 10
0
 20
0
 30
0
  3
*Dimension008
  1
 
  0
LINE
  5
236
330
119
100
AcDbEntity
  8
Dimension008
100
AcDbLine
 10
83.2559
 20
84.3658
 30
0
 11
83.963
 21
83.6587
 31
0
  0
TEXT
  5
237
330
119
100
AcDbEntity
  8
Dimension008
100
AcDbText
 10
77.4554
 20
91.9234
 30
0
 40
3.5
  1
2x Min R2
  7
STANDARD
 72
1
 11
77.4554
 21
91.9234
 31
0
100
AcDbText
  0
SOLID
  5
238
330
119
100
AcDbEntity
  8
0
 62
     0
100
AcDbTrace
 10
80.7221
 20
87.4888
 30
0
 11
80.1329
 21
86.8996
 31
0
 12
83.963
 22
83.6587
 32
0
 13
83.963
 23
83.6587
 33
0
  0
ENDBLK
  5
239
330
119
100
AcDbEntity
  8
Dimension008
100
AcDbBlockEnd
  0
BLOCK
  5
23A
330
11A
100
AcDbEntity
  8
Dimension009
100
AcDbBlockBegin
  2
*Dimension009
 70
   1
 10
0
 20
0
 30
0
  3
*Dimension009
  1
 
  0
LINE
  5
23B
330
11A
100
AcDbEntity
  8
Dimension009
100
AcDbLine
 10
101.256
 20
83.3658
 30
0
 11
126.232
 21
78.6308
 31
0
  0
LINE
  5
23C
330
11A
100
AcDbEntity
  8
Dimension009
100
AcDbLine
 10
101.256
 20
80.3658
 30
0
 11
126.232
 21
75.6308
 31
0
  0
LINE
  5
23D
330
11A
100
AcDbEntity
  8
Dimension009
100
AcDbLine
 10
126.232
 20
75.6308
 30
0
 11
126.232
 21
78.6308
 31
0
  0
TEXT
  5
23E
330
11A
100
AcDbEntity
  8
Dimension009
100
AcDbText
 10
131.232
 20
75.6308
 30
0
 40
3.5
  1
3,00
  7
STANDARD
 72
1
 11
126.232
 21
75.6308
 31
0
100
AcDbText
  0
SOLID
  5
23F
330
11A
100
AcDbEntity
  8
0
 62
     0
100
AcDbTrace
 10
125.823
 20
80.7084
 30
0
 11
126.641
 21
80.5532
 31
0
 12
126.232
 22
75.6308
 32
0
 13
126.232
 23
75.6308
 33
0
  0
SOLID
  5
240
330
11A
100
AcDbEntity
  8
0
 62
     0
100
AcDbTrace
 10
125.823
 20
73.7084
 30
0
 11
126.641
 21
73.5532
 31
0
 12
126.232
 22
78.6308
 32
0
 13
126.232
 23
78.6308
 33
0
  0
ENDBLK
  5
241
330
11A
100
AcDbEntity
  8
Dimension009
100
AcDbBlockEnd
  0
BLOCK
  5
242
330
11B
100
AcDbEntity
  8
Dimension010
100
AcDbBlockBegin
  2
*Dimension010
 70
   1
 10
0
 20
0
 30
0
  3
*Dimension010
  1
 
  0
LINE
  5
243
330
11B
100
AcDbEntity
  8
Dimension010
100
AcDbLine
 10
119.756
 20
82.3658
 30
0
 11
132.502
 21
77.7703
 31
0
  0
LINE
  5
244
330
11B
100
AcDbEntity
  8
Dimension010
100
AcDbLine
 10
119.756
 20
80.3658
 30
0
 11
132.502
 21
75.7703
 31
0
  0
LINE
  5
245
330
11B
100
AcDbEntity
  8
Dimension010
100
AcDbLine
 10
132.502
 20
75.7703
 30
0
 11
132.502
 21
77.7703
 31
0
  0
TEXT
  5
246
330
11B
100
AcDbEntity
  8
Dimension010
100
AcDbText
 10
137.502
 20
75.7703
 30
0
 40
3.5
  1
2,00
  7
STANDARD
 72
1
 11
132.502
 21
75.7703
 31
0
100
AcDbText
  0
SOLID
  5
247
330
11B
100
AcDbEntity
  8
0
 62
     0
100
AcDbTrace
 10
132.11
 20
80.9116
 30
0
 11
132.894
 21
80.6289
 31
0
 12
132.502
 22
75.7703
 32
0
 13
132.502
 23
75.7703
 33
0
  0
SOLID
  5
248
330
11B
100
AcDbEntity
  8
0
 62
     0
100
AcDbTrace
 10
132.11
 20
72.9116
 30
0
 11
132.894
 21
72.6289
 31
0
 12
132.502
 22
77.7703
 32
0
 13
132.502
 23
77.7703
 33
0
  0
ENDBLK
  5
249
330
11B
100
AcDbEntity
  8
Dimension010
100
AcDbBlockEnd
  0
ENDSEC
  0
SECTION
  2
ENTITIES
  0
CIRCLE
  5
301
330
112
100
AcDbEntity
  8
View002
100
AcDbCircle
 10
93.5084
 20
136.167
 40
13.5
  0
CIRCLE
  5
302
330
112
100
AcDbEntity
  8
View002
100
AcDbCircle
 10
93.5084
 20
136.167
 40
8
  0
CIRCLE
  5
303
330
112
100
AcDbEntity
  8
View002
100
AcDbCircle
 10
93.5084
 20
136.167
 40
4
  0
CIRCLE
  5
304
330
112
100
AcDbEntity
  8
View002
100
AcDbCircle
 10
93.5084
 20
136.167
 40
27.5
  0
LINE
  5
305
330
112
100
AcDbEntity
  8
Section
100
AcDbLine
 10
105.756
 20
83.3658
 30
0
 11
101.256
 21
83.3658
 31
0
  0
LINE
  5
306
330
112
100
AcDbEntity
  8
Section
100
AcDbLine
 10
83.2559
 20
83.3658
 30
0
 11
78.7559
 21
83.3658
 31
0
  0
ARC
  5
307
330
112
100
AcDbEntity
  8
Section
100
AcDbCircle
 10
83.2559
 20
84.3658
 30
0
 40
1
100
AcDbArc
 50
-90
 51
0
  0
ARC
  5
308
330
112
100
AcDbEntity
  8
Section
100
AcDbCircle
 10
101.256
 20
84.3658
 30
0
 40
1
100
AcDbArc
 50
180
 51
-90
  0
LINE
  5
309
330
112
100
AcDbEntity
  8
Section
100
AcDbLine
 10
105.756
 20
83.2658
 30
0
 11
105.756
 21
83.3658
 31
0
  0
ARC
  5
30A
330
112
100
AcDbEntity
  8
Section
100
AcDbCircle
 10
106.656
 20
83.2658
 30
0
 40
0.9
100
AcDbArc
 50
180
 51
-90
  0
LINE
  5
30B
330
112
100
AcDbEntity
  8
Section
100
AcDbLine
 10
119.756
 20
82.3658
 30
0
 11
106.656
 21
82.3658
 31
0
  0
LINE
  5
30C
330
112
100
AcDbEntity
  8
Section
100
AcDbLine
 10
119.756
 20
80.3658
 30
0
 11
119.756
 21
82.3658
 31
0
  0
LINE
  5
30D
330
112
100
AcDbEntity
  8
Section
100
AcDbLine
 10
96.2559
 20
80.3658
 30
0
 11
119.756
 21
80.3658
 31
0
  0
LINE
  5
30E
330
112
100
AcDbEntity
  8
Section
100
AcDbLine
 10
96.2559
 20
86.3658
 30
0
 11
96.2559
 21
80.3658
 31
0
  0
LINE
  5
30F
330
112
100
AcDbEntity
  8
Section
100
AcDbLine
 10
96.2559
 20
86.3658
 30
0
 11
100.256
 21
86.3658
 31
0
  0
LINE
  5
310
330
112
100
AcDbEntity
  8
Section
100
AcDbLine
 10
100.256
 20
84.3658
 30
0
 11
100.256
 21
86.3658
 31
0
  0
LINE
  5
311
330
112
100
AcDbEntity
  8
Section
100
AcDbLine
 10
78.7559
 20
83.2658
 30
0
 11
78.7559
 21
83.3658
 31
0
  0
LINE
  5
312
330
112
100
AcDbEntity
  8
Section
100
AcDbLine
 10
84.2559
 20
84.3658
 30
0
 11
84.2559
 21
86.3658
 31
0
  0
LINE
  5
313
330
112
100
AcDbEntity
  8
Section
100
AcDbLine
 10
84.2559
 20
86.3658
 30
0
 11
88.2559
 21
86.3658
 31
0
  0
LINE
  5
314
330
112
100
AcDbEntity
  8
Section
100
AcDbLine
 10
88.2559
 20
86.3658
 30
0
 11
88.2559
 21
80.3658
 31
0
  0
LINE
  5
315
330
112
100
AcDbEntity
  8
Section
100
AcDbLine
 10
64.7559
 20
80.3658
 30
0
 11
88.2559
 21
80.3658
 31
0
  0
LINE
  5
316
330
112
100
AcDbEntity
  8
Section
100
AcDbLine
 10
64.7559
 20
80.3658
 30
0
 11
64.7559
 21
82.3658
 31
0
  0
LINE
  5
317
330
112
100
AcDbEntity
  8
Section
100
AcDbLine
 10
77.8559
 20
82.3658
 30
0
 11
64.7559
 21
82.3658
 31
0
  0
ARC
  5
318
330
112
100
AcDbEntity
  8
Section
100
AcDbCircle
 10
77.8559
 20
83.2658
 30
0
 40
0.9
100
AcDbArc
 50
-90
 51
0
  0
SPLINE
  5
319
330
112
100
AcDbEntity
  8
Section
100
AcDbSpline
210
0
220
0
230
1
 70
8
 71
1
 72
17
 73
15
 74
0
 40
0
 40
0
 40
0.224399
 40
0.448799
 40
0.673198
 40
0.897598
 40
1.122
 40
1.3464
 40
1.5708
 40
1.7952
 40
2.0196
 40
2.24399
 40
2.46839
 40
2.69279
 40
2.91719
 40
3.14159
 40
3.14159
 10
88.2559
 20
80.3658
 30
0
 10
88.3562
 20
80.3658
 30
0
 10
88.6521
 20
80.3658
 30
0
 10
89.1286
 20
80.3658
 30
0
 10
89.762
 20
80.3658
 30
0
 10
90.5204
 20
80.3658
 30
0
 10
91.3658
 20
80.3658
 30
0
 10
92.2559
 20
80.3658
 30
0
 10
93.146
 20
80.3658
 30
0
 10
93.9915
 20
80.3658
 30
0
 10
94.7499
 20
80.3658
 30
0
 10
95.3833
 20
80.3658
 30
0
 10
95.8598
 20
80.3658
 30
0
 10
96.1556
 20
80.3658
 30
0
 10
96.2559
 20
80.3658
 30
0
  0
SPLINE
  5
31A
330
112
100
AcDbEntity
  8
Section
100
AcDbSpline
210
0
220
0
230
1
 70
8
 71
1
 72
17
 73
15
 74
0
 40
0
 40
0
 40
0.224399
 40
0.448799
 40
0.673198
 40
0.897598
 40
1.122
 40
1.3464
 40
1.5708
 40
1.7952
 40
2.0196
 40
2.24399
 40
2.46839
 40
2.69279
 40
2.91719
 40
3.14159
 40
3.14159
 10
88.2559
 20
86.3658
 30
0
 10
88.3562
 20
86.3658
 30
0
 10
88.6521
 20
86.3658
 30
0
 10
89.1286
 20
86.3658
 30
0
 10
89.762
 20
86.3658
 30
0
 10
90.5204
 20
86.3658
 30
0
 10
91.3658
 20
86.3658
 30
0
 10
92.2559
 20
86.3658
 30
0
 10
93.146
 20
86.3658
 30
0
 10
93.9915
 20
86.3658
 30
0
 10
94.7499
 20
86.3658
 30
0
 10
95.3833
 20
86.3658
 30
0
 10
95.8598
 20
86.3658
 30
0
 10
96.1556
 20
86.3658
 30
0
 10
96.2559
 20
86.3658
 30
0
  0
SPLINE
  5
31B
330
112
100
AcDbEntity
  8
Section
100
AcDbSpline
210
0
220
0
230
1
 70
8
 71
1
 72
17
 73
15
 74
0
 40
0
 40
0
 40
0.224399
 40
0.448799
 40
0.673198
 40
0.897598
 40
1.122
 40
1.3464
 40
1.5708
 40
1.7952
 40
2.0196
 40
2.24399
 40
2.46839
 40
2.69279
 40
2.91719
 40
3.14159
 40
3.14159
 10
83.2559
 20
83.3658
 30
0
 10
83.4816
 20
83.3658
 30
0
 10
84.1472
 20
83.3658
 30
0
 10
85.2194
 20
83.3658
 30
0
 10
86.6445
 20
83.3658
 30
0
 10
88.351
 20
83.3658
 30
0
 10
90.2532
 20
83.3658
 30
0
 10
92.2559
 20
83.3658
 30
0
 10
94.2586
 20
83.3658
 30
0
 10
96.1609
 20
83.3658
 30
0
 10
97.8673
 20
83.3658
 30
0
 10
99.2924
 20
83.3658
 30
0
 10
100.365
 20
83.3658
 30
0
 10
101.03
 20
83.3658
 30
0
 10
101.256
 20
83.3658
 30
0
  0
SPLINE
  5
31C
330
112
100
AcDbEntity
  8
Section
100
AcDbSpline
210
0
220
0
230
1
 70
8
 71
1
 72
17
 73
15
 74
0
 40
0
 40
0
 40
0.224399
 40
0.448799
 40
0.673198
 40
0.897598
 40
1.122
 40
1.3464
 40
1.5708
 40
1.7952
 40
2.0196
 40
2.24399
 40
2.46839
 40
2.69279
 40
2.91719
 40
3.14159
 40
3.14159
 10
78.7559
 20
83.3658
 30
0
 10
79.0944
 20
83.3658
 30
0
 10
80.0929
 20
83.3658
 30
0
 10
81.7012
 20
83.3658
 30
0
 10
83.8388
 20
83.3658
 30
0
 10
86.3985
 20
83.3658
 30
0
 10
89.2519
 20
83.3658
 30
0
 10
92.2559
 20
83.3658
 30
0
 10
95.26
 20
83.3658
 30
0
 10
98.1134
 20
83.3658
 30
0
 10
100.673
 20
83.3658
 30
0
 10
102.811
 20
83.3658
 30
0
 10
104.419
 20
83.3658
 30
0
 10
105.417
 20
83.3658
 30
0
 10
105.756
 20
83.3658
 30
0
  0
SPLINE
  5
31D
330
112
100
AcDbEntity
  8
Section
100
AcDbSpline
210
0
220
0
230
1
 70
8
 71
1
 72
17
 73
15
 74
0
 40
0
 40
0
 40
0.224399
 40
0.448799
 40
0.673198
 40
0.897598
 40
1.122
 40
1.3464
 40
1.5708
 40
1.7952
 40
2.0196
 40
2.24399
 40
2.46839
 40
2.69279
 40
2.91719
 40
3.14159
 40
3.14159
 10
84.2559
 20
86.3658
 30
0
 10
84.4565
 20
86.3658
 30
0
 10
85.0482
 20
86.3658
 30
0
 10
86.0013
 20
86.3658
 30
0
 10
87.268
 20
86.3658
 30
0
 10
88.7849
 20
86.3658
 30
0
 10
90.4758
 20
86.3658
 30
0
 10
92.2559
 20
86.3658
 30
0
 10
94.0361
 20
86.3658
 30
0
 10
95.727
 20
86.3658
 30
0
 10
97.2439
 20
86.3658
 30
0
 10
98.5106
 20
86.3658
 30
0
 10
99.4637
 20
86.3658
 30
0
 10
100.055
 20
86.3658
 30
0
 10
100.256
 20
86.3658
 30
0
  0
SPLINE
  5
31E
330
112
100
AcDbEntity
  8
Section
100
AcDbSpline
210
0
220
0
230
1
 70
8
 71
1
 72
17
 73
15
 74
0
 40
0
 40
0
 40
0.224399
 40
0.448799
 40
0.673198
 40
0.897598
 40
1.122
 40
1.3464
 40
1.5708
 40
1.7952
 40
2.0196
 40
2.24399
 40
2.46839
 40
2.69279
 40
2.91719
 40
3.14159
 40
3.14159
 10
77.8559
 20
82.3658
 30
0
 10
78.217
 20
82.3658
 30
0
 10
79.282
 20
82.3658
 30
0
 10
80.9976
 20
82.3658
 30
0
 10
83.2777
 20
82.3658
 30
0
 10
86.008
 20
82.3658
 30
0
 10
89.0516
 20
82.3658
 30
0
 10
92.2559
 20
82.3658
 30
0
 10
95.4602
 20
82.3658
 30
0
 10
98.5039
 20
82.3658
 30
0
 10
101.234
 20
82.3658
 30
0
 10
103.514
 20
82.3658
 30
0
 10
105.23
 20
82.3658
 30
0
 10
106.295
 20
82.3658
 30
0
 10
106.656
 20
82.3658
 30
0
  0
SPLINE
  5
31F
330
112
100
AcDbEntity
  8
Section
100
AcDbSpline
210
0
220
0
230
1
 70
8
 71
1
 72
17
 73
15
 74
0
 40
0
 40
0
 40
0.224399
 40
0.448799
 40
0.673198
 40
0.897598
 40
1.122
 40
1.3464
 40
1.5708
 40
1.7952
 40
2.0196
 40
2.24399
 40
2.46839
 40
2.69279
 40
2.91719
 40
3.14159
 40
3.14159
 10
64.7559
 20
82.3658
 30
0
 10
65.4454
 20
82.3658
 30
0
 10
67.4793
 20
82.3658
 30
0
 10
70.7556
 20
82.3658
 30
0
 10
75.11
 20
82.3658
 30
0
 10
80.3241
 20
82.3658
 30
0
 10
86.1366
 20
82.3658
 30
0
 10
92.2559
 20
82.3658
 30
0
 10
98.3753
 20
82.3658
 30
0
 10
104.188
 20
82.3658
 30
0
 10
109.402
 20
82.3658
 30
0
 10
113.756
 20
82.3658
 30
0
 10
117.033
 20
82.3658
 30
0
 10
119.066
 20
82.3658
 30
0
 10
119.756
 20
82.3658
 30
0
  0
SPLINE
  5
320
330
112
100
AcDbEntity
  8
Section
100
AcDbSpline
210
0
220
0
230
1
 70
8
 71
1
 72
17
 73
15
 74
0
 40
0
 40
0
 40
0.224399
 40
0.448799
 40
0.673198
 40
0.897598
 40
1.122
 40
1.3464
 40
1.5708
 40
1.7952
 40
2.0196
 40
2.24399
 40
2.46839
 40
2.69279
 40
2.91719
 40
3.14159
 40
3.14159
 10
64.7559
 20
80.3658
 30
0
 10
65.4454
 20
80.3658
 30
0
 10
67.4793
 20
80.3658
 30
0
 10
70.7556
 20
80.3658
 30
0
 10
75.11
 20
80.3658
 30
0
 10
80.3241
 20
80.3658
 30
0
 10
86.1366
 20
80.3658
 30
0
 10
92.2559
 20
80.3658
 30
0
 10
98.3753
 20
80.3658
 30
0
 10
104.188
 20
80.3658
 30
0
 10
109.402
 20
80.3658
 30
0
 10
113.756
 20
80.3658
 30
0
 10
117.033
 20
80.3658
 30
0
 10
119.066
 20
80.3658
 30
0
 10
119.756
 20
80.3658
 30
0
  0
DIMENSION
  5
321
330
112
100
AcDbEntity
  8
Dimension003
100
AcDbDimension
  2
*Dimension003
 10
121.008
 20
136.167
 30
0
 11
133.547
 21
156.982
 31
0
 70
3
  1
⌀55
  3
STANDARD
100
AcDbDiametricDimension
 15
66.0084
 25
136.167
 35
0
 40
0
  0
DIMENSION
  5
322
330
112
100
AcDbEntity
  8
Dimension004
100
AcDbDimension
  2
*Dimension004
 10
107.008
 20
136.167
 30
0
 11
131.823
 21
161.622
 31
0
 70
3
  1
⌀27
  3
STANDARD
100
AcDbDiametricDimension
 15
80.0084
 25
136.167
 35
0
 40
0
  0
DIMENSION
  5
323
330
112
100
AcDbEntity
  8
Dimension005
100
AcDbDimension
  2
*Dimension005
 10
101.508
 20
136.167
 30
0
 11
125.194
 21
165.732
 31
0
 70
3
  1
⌀16
  3
STANDARD
100
AcDbDiametricDimension
 15
85.5084
 25
136.167
 35
0
 40
0
  0
DIMENSION
  5
324
330
112
100
AcDbEntity
  8
Dimension006
100
AcDbDimension
  2
*Dimension006
 10
97.5084
 20
136.167
 30
0
 11
118.721
 21
170.3
 31
0
 70
3
  1
⌀8H7
  3
STANDARD
100
AcDbDiametricDimension
 15
89.5084
 25
136.167
 35
0
 40
0
  0
DIMENSION
  5
325
330
112
100
AcDbEntity
  8
Dimension
100
AcDbDimension
  2
*Dimension
 10
129.102
 20
75.4463
 30
0
 11
124.102
 21
75.4463
 31
0
 70
1
  1
6,00
  3
STANDARD
100
AcDbAlignedDimension
 13
96.2559
 23
86.3658
 33
0
 14
96.2559
 24
80.3658
 34
0
  0
DIMENSION
  5
326
330
112
100
AcDbEntity
  8
Dimension008
100
AcDbDimension
  2
*Dimension008
 10
83.2559
 20
84.3658
 30
0
 11
77.4554
 21
91.9234
 31
0
 70
4
  1
2x Min R2
  3
STANDARD
100
AcDbRadialDimension
 15
83.963
 25
83.6587
 35
0
 40
0
  0
SPLINE
  5
327
330
112
100
AcDbEntity
  8
View
100
AcDbSpline
210
0
220
0
230
1
 70
8
 71
1
 72
17
 73
15
 74
0
 40
0
 40
0
 40
0.154584
 40
0.309168
 40
0.463751
 40
0.618335
 40
0.772919
 40
0.927503
 40
1.08209
 40
1.23667
 40
1.39125
 40
1.54584
 40
1.70042
 40
1.85501
 40
2.00959
 40
2.16417
 40
2.16417
 10
223.298
 20
129.64
 30
0
 10
221.624
 20
128.701
 30
0
 10
219.689
 20
127.934
 30
0
 10
217.544
 20
127.368
 30
0
 10
215.255
 20
127.025
 30
0
 10
212.895
 20
126.919
 30
0
 10
210.539
 20
127.055
 30
0
 10
208.265
 20
127.427
 30
0
 10
206.143
 20
128.019
 30
0
 10
204.237
 20
128.81
 30
0
 10
202.6
 20
129.768
 30
0
 10
201.27
 20
130.859
 30
0
 10
200.274
 20
132.047
 30
0
 10
199.625
 20
133.296
 30
0
 10
199.322
 20
134.568
 30
0
  0
SPLINE
  5
328
330
112
100
AcDbEntity
  8
View
100
AcDbSpline
210
0
220
0
230
1
 70
8
 71
1
 72
17
 73
15
 74
0
 40
2.16417
 40
2.16417
 40
2.41284
 40
2.66151
 40
2.91018
 40
3.15885
 40
3.40751
 40
3.65618
 40
3.90485
 40
4.15352
 40
4.40219
 40
4.65086
 40
4.89952
 40
5.14819
 40
5.39686
 40
5.64553
 40
5.64553
 10
199.322
 20
134.568
 30
0
 10
199.537
 20
136.582
 30
0
 10
200.543
 20
138.455
 30
0
 10
202.227
 20
140.093
 30
0
 10
204.457
 20
141.427
 30
0
 10
207.094
 20
142.41
 30
0
 10
210.002
 20
143.01
 30
0
 10
213.043
 20
143.212
 30
0
 10
216.084
 20
143.01
 30
0
 10
218.992
 20
142.41
 30
0
 10
221.629
 20
141.427
 30
0
 10
223.859
 20
140.093
 30
0
 10
225.543
 20
138.455
 30
0
 10
226.549
 20
136.582
 30
0
 10
226.764
 20
134.568
 30
0
  0
SPLINE
  5
329
330
112
100
AcDbEntity
  8
View
100
AcDbSpline
210
0
220
0
230
1
 70
8
 71
1
 72
17
 73
15
 74
0
 40
5.64553
 40
5.64553
 40
5.69108
 40
5.73662
 40
5.78217
 40
5.82772
 40
5.87326
 40
5.91881
 40
5.96436
 40
6.0099
 40
6.05545
 40
6.101
 40
6.14654
 40
6.19209
 40
6.23764
 40
6.28319
 40
6.28319
 10
226.764
 20
134.568
 30
0
 10
226.71
 20
134.192
 30
0
 10
226.627
 20
133.817
 30
0
 10
226.514
 20
133.443
 30
0
 10
226.371
 20
133.07
 30
0
 10
226.197
 20
132.7
 30
0
 10
225.993
 20
132.333
 30
0
 10
225.759
 20
131.971
 30
0
 10
225.495
 20
131.614
 30
0
 10
225.201
 20
131.264
 30
0
 10
224.878
 20
130.921
 30
0
 10
224.525
 20
130.586
 30
0
 10
224.143
 20
130.26
 30
0
 10
223.734
 20
129.944
 30
0
 10
223.298
 20
129.64
 30
0
  0
SPLINE
  5
32A
330
112
100
AcDbEntity
  8
View
100
AcDbSpline
210
0
220
0
230
1
 70
8
 71
1
 72
17
 73
15
 74
0
 40
0
 40
0
 40
0.15955
 40
0.3191
 40
0.47865
 40
0.6382
 40
0.79775
 40
0.9573
 40
1.11685
 40
1.2764
 40
1.43595
 40
1.5955
 40
1.75505
 40
1.9146
 40
2.07415
 40
2.2337
 40
2.2337
 10
219.03
 20
134.893
 30
0
 10
217.994
 20
134.368
 30
0
 10
216.811
 20
133.947
 30
0
 10
215.515
 20
133.645
 30
0
 10
214.144
 20
133.471
 30
0
 10
212.739
 20
133.432
 30
0
 10
211.343
 20
133.53
 30
0
 10
209.999
 20
133.76
 30
0
 10
208.747
 20
134.116
 30
0
 10
207.624
 20
134.583
 30
0
 10
206.661
 20
135.147
 30
0
 10
205.881
 20
135.789
 30
0
 10
205.302
 20
136.49
 30
0
 10
204.935
 20
137.227
 30
0
 10
204.782
 20
137.981
 30
0
  0
SPLINE
  5
32B
330
112
100
AcDbEntity
  8
View
100
AcDbSpline
210
0
220
0
230
1
 70
8
 71
1
 72
17
 73
15
 74
0
 40
2.2337
 40
2.2337
 40
2.47243
 40
2.71117
 40
2.94991
 40
3.18864
 40
3.42738
 40
3.66611
 40
3.90485
 40
4.14359
 40
4.38232
 40
4.62106
 40
4.85979
 40
5.09853
 40
5.33727
 40
5.576
 40
5.576
 10
204.782
 20
137.981
 30
0
 10
204.947
 20
139.096
 30
0
 10
205.556
 20
140.142
 30
0
 10
206.557
 20
141.066
 30
0
 10
207.884
 20
141.827
 30
0
 10
209.462
 20
142.393
 30
0
 10
211.21
 20
142.741
 30
0
 10
213.043
 20
142.858
 30
0
 10
214.876
 20
142.741
 30
0
 10
216.624
 20
142.393
 30
0
 10
218.202
 20
141.827
 30
0
 10
219.529
 20
141.066
 30
0
 10
220.53
 20
140.142
 30
0
 10
221.139
 20
139.096
 30
0
 10
221.304
 20
137.981
 30
0
  0
SPLINE
  5
32C
330
112
100
AcDbEntity
  8
View
100
AcDbSpline
210
0
220
0
230
1
 70
8
 71
1
 72
17
 73
15
 74
0
 40
5.576
 40
5.576
 40
5.62652
 40
5.67703
 40
5.72754
 40
5.77806
 40
5.82857
 40
5.87908
 40
5.92959
 40
5.98011
 40
6.03062
 40
6.08113
 40
6.13165
 40
6.18216
 40
6.23267
 40
6.28319
 40
6.28319
 10
221.304
 20
137.981
 30
0
 10
221.279
 20
137.742
 30
0
 10
221.232
 20
137.503
 30
0
 10
221.164
 20
137.265
 30
0
 10
221.075
 20
137.028
 30
0
 10
220.963
 20
136.794
 30
0
 10
220.83
 20
136.562
 30
0
 10
220.676
 20
136.334
 30
0
 10
220.501
 20
136.111
 30
0
 10
220.305
 20
135.892
 30
0
 10
220.089
 20
135.678
 30
0
 10
219.853
 20
135.471
 30
0
 10
219.597
 20
135.271
 30
0
 10
219.323
 20
135.078
 30
0
 10
219.03
 20
134.893
 30
0
  0
SPLINE
  5
32D
330
112
100
AcDbEntity
  8
View
100
AcDbSpline
210
0
220
0
230
1
 70
8
 71
1
 72
17
 73
15
 74
0
 40
0
 40
0
 40
0.163139
 40
0.326277
 40
0.489416
 40
0.652554
 40
0.815693
 40
0.978831
 40
1.14197
 40
1.30511
 40
1.46825
 40
1.63139
 40
1.79452
 40
1.95766
 40
2.1208
 40
2.28394
 40
2.28394
 10
215.963
 20
136.717
 30
0
 10
215.437
 20
136.463
 30
0
 10
214.842
 20
136.262
 30
0
 10
214.195
 20
136.121
 30
0
 10
213.514
 20
136.042
 30
0
 10
212.82
 20
136.031
 30
0
 10
212.132
 20
136.085
 30
0
 10
211.47
 20
136.205
 30
0
 10
210.854
 20
136.385
 30
0
 10
210.302
 20
136.621
 30
0
 10
209.827
 20
136.904
 30
0
 10
209.444
 20
137.228
 30
0
 10
209.161
 20
137.581
 30
0
 10
208.984
 20
137.954
 30
0
 10
208.917
 20
138.336
 30
0
  0
SPLINE
  5
32E
330
112
100
AcDbEntity
  8
View
100
AcDbSpline
210
0
220
0
230
1
 70
8
 71
1
 72
17
 73
15
 74
0
 40
2.28394
 40
2.28394
 40
2.5155
 40
2.74706
 40
2.97862
 40
3.21017
 40
3.44173
 40
3.67329
 40
3.90485
 40
4.13641
 40
4.36797
 40
4.59953
 40
4.83109
 40
5.06264
 40
5.2942
 40
5.52576
 40
5.52576
 10
208.917
 20
138.336
 30
0
 10
209.011
 20
138.875
 30
0
 10
209.315
 20
139.384
 30
0
 10
209.81
 20
139.837
 30
0
 10
210.468
 20
140.213
 30
0
 10
211.253
 20
140.494
 30
0
 10
212.126
 20
140.668
 30
0
 10
213.043
 20
140.726
 30
0
 10
213.96
 20
140.668
 30
0
 10
214.833
 20
140.494
 30
0
 10
215.618
 20
140.213
 30
0
 10
216.276
 20
139.837
 30
0
 10
216.771
 20
139.384
 30
0
 10
217.075
 20
138.875
 30
0
 10
217.169
 20
138.336
 30
0
  0
SPLINE
  5
32F
330
112
100
AcDbEntity
  8
View
100
AcDbSpline
210
0
220
0
230
1
 70
8
 71
1
 72
17
 73
15
 74
0
 40
5.52576
 40
5.52576
 40
5.57986
 40
5.63397
 40
5.68807
 40
5.74217
 40
5.79627
 40
5.85037
 40
5.90447
 40
5.95858
 40
6.01268
 40
6.06678
 40
6.12088
 40
6.17498
 40
6.22908
 40
6.28319
 40
6.28319
 10
217.169
 20
138.336
 30
0
 10
217.159
 20
138.209
 30
0
 10
217.137
 20
138.082
 30
0
 10
217.103
 20
137.956
 30
0
 10
217.056
 20
137.831
 30
0
 10
216.998
 20
137.707
 30
0
 10
216.928
 20
137.585
 30
0
 10
216.846
 20
137.465
 30
0
 10
216.752
 20
137.347
 30
0
 10
216.647
 20
137.233
 30
0
 10
216.531
 20
137.122
 30
0
 10
216.405
 20
137.014
 30
0
 10
216.267
 20
136.911
 30
0
 10
216.12
 20
136.811
 30
0
 10
215.963
 20
136.717
 30
0
  0
SPLINE
  5
330
330
112
100
AcDbEntity
  8
View
100
AcDbSpline
210
0
220
0
230
1
 70
8
 71
1
 72
17
 73
15
 74
0
 40
0
 40
0
 40
0.141604
 40
0.283209
 40
0.424813
 40
0.566418
 40
0.708022
 40
0.849626
 40
0.991231
 40
1.13284
 40
1.27444
 40
1.41604
 40
1.55765
 40
1.69925
 40
1.84086
 40
1.98246
 40
1.98246
 10
235.801
 20
120.973
 30
0
 10
232.682
 20
118.814
 30
0
 10
228.934
 20
116.964
 30
0
 10
224.647
 20
115.507
 30
0
 10
219.95
 20
114.513
 30
0
 10
215.003
 20
114.033
 30
0
 10
209.983
 20
114.092
 30
0
 10
205.076
 20
114.688
 30
0
 10
200.456
 20
115.79
 30
0
 10
196.278
 20
117.34
 30
0
 10
192.661
 20
119.265
 30
0
 10
189.69
 20
121.48
 30
0
 10
187.408
 20
123.896
 30
0
 10
185.827
 20
126.429
 30
0
 10
184.93
 20
128.999
 30
0
  0
SPLINE
  5
331
330
112
100
AcDbEntity
  8
View
100
AcDbSpline
210
0
220
0
230
1
 70
8
 71
1
 72
17
 73
15
 74
0
 40
1.98246
 40
1.98246
 40
2.25709
 40
2.53172
 40
2.80634
 40
3.08097
 40
3.3556
 40
3.63022
 40
3.90485
 40
4.17948
 40
4.45411
 40
4.72873
 40
5.00336
 40
5.27799
 40
5.55261
 40
5.82724
 40
5.82724
 10
184.93
 20
128.999
 30
0
 10
184.982
 20
133.852
 30
0
 10
187.043
 20
138.242
 30
0
 10
190.655
 20
141.953
 30
0
 10
195.391
 20
144.875
 30
0
 10
200.89
 20
146.967
 30
0
 10
206.856
 20
148.22
 30
0
 10
213.043
 20
148.637
 30
0
 10
219.23
 20
148.22
 30
0
 10
225.196
 20
146.967
 30
0
 10
230.695
 20
144.875
 30
0
 10
235.431
 20
141.953
 30
0
 10
239.043
 20
138.242
 30
0
 10
241.104
 20
133.852
 30
0
 10
241.156
 20
128.999
 30
0
  0
SPLINE
  5
332
330
112
100
AcDbEntity
  8
View
100
AcDbSpline
210
0
220
0
230
1
 70
8
 71
1
 72
17
 73
15
 74
0
 40
5.82724
 40
5.82724
 40
5.85981
 40
5.89238
 40
5.92494
 40
5.95751
 40
5.99008
 40
6.02265
 40
6.05521
 40
6.08778
 40
6.12035
 40
6.15292
 40
6.18548
 40
6.21805
 40
6.25062
 40
6.28319
 40
6.28319
 10
241.156
 20
128.999
 30
0
 10
241.008
 20
128.408
 30
0
 10
240.826
 20
127.816
 30
0
 10
240.609
 20
127.225
 30
0
 10
240.356
 20
126.634
 30
0
 10
240.066
 20
126.045
 30
0
 10
239.74
 20
125.458
 30
0
 10
239.378
 20
124.875
 30
0
 10
238.978
 20
124.296
 30
0
 10
238.542
 20
123.723
 30
0
 10
238.068
 20
123.156
 30
0
 10
237.557
 20
122.596
 30
0
 10
237.008
 20
122.045
 30
0
 10
236.423
 20
121.504
 30
0
 10
235.801
 20
120.973
 30
0
  0
SPLINE
  5
333
330
112
100
AcDbEntity
  8
View
100
AcDbSpline
210
0
220
0
230
1
 70
8
 71
1
 72
17
 73
15
 74
0
 40
0
 40
0
 40
0.141604
 40
0.283209
 40
0.424813
 40
0.566418
 40
0.708022
 40
0.849626
 40
0.991231
 40
1.13284
 40
1.27444
 40
1.41604
 40
1.55765
 40
1.69925
 40
1.84086
 40
1.98246
 40
1.98246
 10
235.478
 20
119.278
 30
0
 10
232.397
 20
117.11
 30
0
 10
228.698
 20
115.254
 30
0
 10
224.472
 20
113.792
 30
0
 10
219.845
 20
112.795
 30
0
 10
214.973
 20
112.313
 30
0
 10
210.03
 20
112.373
 30
0
 10
205.197
 20
112.971
 30
0
 10
200.646
 20
114.075
 30
0
 10
196.526
 20
115.631
 30
0
 10
192.956
 20
117.563
 30
0
 10
190.019
 20
119.788
 30
0
 10
187.76
 20
122.217
 30
0
 10
186.19
 20
124.764
 30
0
 10
185.294
 20
127.352
 30
0
  0
SPLINE
  5
334
330
112
100
AcDbEntity
  8
View
100
AcDbSpline
210
0
220
0
230
1
 70
8
 71
1
 72
17
 73
15
 74
0
 40
5.82724
 40
5.82724
 40
5.85981
 40
5.89238
 40
5.92494
 40
5.95751
 40
5.99008
 40
6.02265
 40
6.05521
 40
6.08778
 40
6.12035
 40
6.15292
 40
6.18548
 40
6.21805
 40
6.25062
 40
6.28319
 40
6.28319
 10
240.792
 20
127.352
 30
0
 10
240.644
 20
126.757
 30
0
 10
240.461
 20
126.161
 30
0
 10
240.244
 20
125.565
 30
0
 10
239.992
 20
124.97
 30
0
 10
239.704
 20
124.377
 30
0
 10
239.38
 20
123.787
 30
0
 10
239.02
 20
123.201
 30
0
 10
238.623
 20
122.618
 30
0
 10
238.19
 20
122.042
 30
0
 10
237.721
 20
121.472
 30
0
 10
237.215
 20
120.91
 30
0
 10
236.672
 20
120.356
 30
0
 10
236.093
 20
119.812
 30
0
 10
235.478
 20
119.278
 30
0
  0
LINE
  5
335
330
112
100
AcDbEntity
  8
View
100
AcDbLine
 10
199.331
 20
134.485
 30
0
 11
199.322
 21
134.568
 31
0
  0
LINE
  5
336
330
112
100
AcDbEntity
  8
View
100
AcDbLine
 10
226.755
 20
134.485
 30
0
 11
226.764
 21
134.568
 31
0
  0
LINE
  5
337
330
112
100
AcDbEntity
  8
View
100
AcDbLine
 10
204.884
 20
136.299
 30
0
 11
204.782
 21
137.981
 31
0
  0
LINE
  5
338
330
112
100
AcDbEntity
  8
View
100
AcDbLine
 10
221.202
 20
136.299
 30
0
 11
221.304
 21
137.981
 31
0
  0
LINE
  5
339
330
112
100
AcDbEntity
  8
View
100
AcDbLine
 10
185.294
 20
127.352
 30
0
 11
184.93
 21
128.999
 31
0
  0
LINE
  5
33A
330
112
100
AcDbEntity
  8
View
100
AcDbLine
 10
240.792
 20
127.352
 30
0
 11
241.156
 21
128.999
 31
0
  0
SPLINE
  5
33B
330
112
100
AcDbEntity
  8
View
100
AcDbSpline
210
0
220
0
230
1
 70
8
 71
1
 72
17
 73
15
 74
0
 40
0
 40
0
 40
0.193542
 40
0.387083
 40
0.580625
 40
0.774166
 40
0.967708
 40
1.16125
 40
1.35479
 40
1.54833
 40
1.74187
 40
1.93542
 40
2.12896
 40
2.3225
 40
2.51604
 40
2.70958
 40
2.70958
 10
219.69
 20
131.861
 30
0
 10
218.277
 20
131.141
 30
0
 10
216.632
 20
130.601
 30
0
 10
214.825
 20
130.271
 30
0
 10
212.936
 20
130.167
 30
0
 10
211.052
 20
130.297
 30
0
 10
209.259
 20
130.652
 30
0
 10
207.637
 20
131.213
 30
0
 10
206.254
 20
131.953
 30
0
 10
205.165
 20
132.832
 30
0
 10
204.404
 20
133.811
 30
0
 10
203.99
 20
134.845
 30
0
 10
203.926
 20
135.892
 30
0
 10
204.2
 20
136.913
 30
0
 10
204.788
 20
137.871
 30
0
  0
SPLINE
  5
33C
330
112
100
AcDbEntity
  8
View
100
AcDbSpline
210
0
220
0
230
1
 70
8
 71
1
 72
17
 73
15
 74
0
 40
5.10012
 40
5.10012
 40
5.18463
 40
5.26913
 40
5.35363
 40
5.43814
 40
5.52264
 40
5.60715
 40
5.69165
 40
5.77616
 40
5.86066
 40
5.94517
 40
6.02967
 40
6.11418
 40
6.19868
 40
6.28319
 40
6.28319
 10
221.298
 20
137.871
 30
0
 10
221.591
 20
137.462
 30
0
 10
221.828
 20
137.038
 30
0
 10
222.006
 20
136.602
 30
0
 10
222.122
 20
136.155
 30
0
 10
222.174
 20
135.701
 30
0
 10
222.161
 20
135.244
 30
0
 10
222.082
 20
134.786
 30
0
 10
221.936
 20
134.331
 30
0
 10
221.723
 20
133.882
 30
0
 10
221.443
 20
133.444
 30
0
 10
221.098
 20
133.019
 30
0
 10
220.689
 20
132.611
 30
0
 10
220.219
 20
132.224
 30
0
 10
219.69
 20
131.861
 30
0
  0
SPLINE
  5
33D
330
112
100
AcDbEntity
  8
View
100
AcDbSpline
210
0
220
0
230
1
 70
8
 71
1
 72
17
 73
15
 74
0
 40
0
 40
0
 40
0.15955
 40
0.3191
 40
0.47865
 40
0.6382
 40
0.79775
 40
0.9573
 40
1.11685
 40
1.2764
 40
1.43595
 40
1.5955
 40
1.75505
 40
1.9146
 40
2.07415
 40
2.2337
 40
2.2337
 10
218.953
 20
133.179
 30
0
 10
217.93
 20
132.649
 30
0
 10
216.762
 20
132.225
 30
0
 10
215.483
 20
131.919
 30
0
 10
214.129
 20
131.744
 30
0
 10
212.743
 20
131.705
 30
0
 10
211.365
 20
131.803
 30
0
 10
210.039
 20
132.036
 30
0
 10
208.803
 20
132.394
 30
0
 10
207.694
 20
132.866
 30
0
 10
206.743
 20
133.436
 30
0
 10
205.972
 20
134.085
 30
0
 10
205.4
 20
134.792
 30
0
 10
205.036
 20
135.537
 30
0
 10
204.884
 20
136.299
 30
0
  0
SPLINE
  5
33E
330
112
100
AcDbEntity
  8
View
100
AcDbSpline
210
0
220
0
230
1
 70
8
 71
1
 72
17
 73
15
 74
0
 40
5.576
 40
5.576
 40
5.62652
 40
5.67703
 40
5.72754
 40
5.77806
 40
5.82857
 40
5.87908
 40
5.92959
 40
5.98011
 40
6.03062
 40
6.08113
 40
6.13165
 40
6.18216
 40
6.23267
 40
6.28319
 40
6.28319
 10
221.202
 20
136.299
 30
0
 10
221.177
 20
136.057
 30
0
 10
221.131
 20
135.816
 30
0
 10
221.063
 20
135.575
 30
0
 10
220.974
 20
135.336
 30
0
 10
220.864
 20
135.099
 30
0
 10
220.732
 20
134.865
 30
0
 10
220.58
 20
134.635
 30
0
 10
220.407
 20
134.409
 30
0
 10
220.213
 20
134.188
 30
0
 10
219.999
 20
133.972
 30
0
 10
219.766
 20
133.763
 30
0
 10
219.513
 20
133.561
 30
0
 10
219.242
 20
133.366
 30
0
 10
218.953
 20
133.179
 30
0
  0
SPLINE
  5
33F
330
112
100
AcDbEntity
  8
View
100
AcDbSpline
210
0
220
0
230
1
 70
8
 71
1
 72
17
 73
15
 74
0
 40
0
 40
0
 40
0.154584
 40
0.309168
 40
0.463751
 40
0.618335
 40
0.772919
 40
0.927503
 40
1.08209
 40
1.23667
 40
1.39125
 40
1.54584
 40
1.70042
 40
1.85501
 40
2.00959
 40
2.16417
 40
2.16417
 10
223.291
 20
129.555
 30
0
 10
221.619
 20
128.616
 30
0
 10
219.684
 20
127.849
 30
0
 10
217.541
 20
127.282
 30
0
 10
215.254
 20
126.939
 30
0
 10
212.895
 20
126.834
 30
0
 10
210.541
 20
126.97
 30
0
 10
208.268
 20
127.341
 30
0
 10
206.148
 20
127.934
 30
0
 10
204.243
 20
128.725
 30
0
 10
202.607
 20
129.683
 30
0
 10
201.278
 20
130.775
 30
0
 10
200.283
 20
131.964
 30
0
 10
199.633
 20
133.212
 30
0
 10
199.331
 20
134.485
 30
0
  0
SPLINE
  5
340
330
112
100
AcDbEntity
  8
View
100
AcDbSpline
210
0
220
0
230
1
 70
8
 71
1
 72
17
 73
15
 74
0
 40
5.64553
 40
5.64553
 40
5.69108
 40
5.73662
 40
5.78217
 40
5.82772
 40
5.87326
 40
5.91881
 40
5.96436
 40
6.0099
 40
6.05545
 40
6.101
 40
6.14654
 40
6.19209
 40
6.23764
 40
6.28319
 40
6.28319
 10
226.755
 20
134.485
 30
0
 10
226.702
 20
134.11
 30
0
 10
226.619
 20
133.734
 30
0
 10
226.506
 20
133.36
 30
0
 10
226.362
 20
132.987
 30
0
 10
226.189
 20
132.616
 30
0
 10
225.985
 20
132.25
 30
0
 10
225.751
 20
131.887
 30
0
 10
225.487
 20
131.53
 30
0
 10
225.193
 20
131.18
 30
0
 10
224.87
 20
130.837
 30
0
 10
224.517
 20
130.502
 30
0
 10
224.136
 20
130.176
 30
0
 10
223.727
 20
129.86
 30
0
 10
223.291
 20
129.555
 30
0
  0
SPLINE
  5
341
330
112
100
AcDbEntity
  8
View
100
AcDbSpline
210
0
220
0
230
1
 70
8
 71
1
 72
17
 73
15
 74
0
 40
0
 40
0
 40
0.206051
 40
0.412101
 40
0.618152
 40
0.824202
 40
1.03025
 40
1.2363
 40
1.44235
 40
1.6484
 40
1.85445
 40
2.06051
 40
2.26656
 40
2.47261
 40
2.67866
 40
2.88471
 40
2.88471
 10
223.971
 20
128.338
 30
0
 10
221.538
 20
127.021
 30
0
 10
218.634
 20
126.052
 30
0
 10
215.409
 20
125.5
 30
0
 10
212.045
 20
125.405
 30
0
 10
208.741
 20
125.773
 30
0
 10
205.685
 20
126.579
 30
0
 10
203.044
 20
127.763
 30
0
 10
200.944
 20
129.246
 30
0
 10
199.466
 20
130.935
 30
0
 10
198.644
 20
132.735
 30
0
 10
198.475
 20
134.555
 30
0
 10
198.92
 20
136.314
 30
0
 10
199.92
 20
137.946
 30
0
 10
201.402
 20
139.398
 30
0
  0
SPLINE
  5
342
330
112
100
AcDbEntity
  8
View
100
AcDbSpline
210
0
220
0
230
1
 70
8
 71
1
 72
17
 73
15
 74
0
 40
4.92499
 40
4.92499
 40
5.02201
 40
5.11902
 40
5.21604
 40
5.31305
 40
5.41006
 40
5.50708
 40
5.60409
 40
5.7011
 40
5.79812
 40
5.89513
 40
5.99214
 40
6.08916
 40
6.18617
 40
6.28319
 40
6.28319
 10
224.684
 20
139.398
 30
0
 10
225.437
 20
138.74
 30
0
 10
226.092
 20
138.036
 30
0
 10
226.641
 20
137.292
 30
0
 10
227.076
 20
136.512
 30
0
 10
227.39
 20
135.702
 30
0
 10
227.576
 20
134.869
 30
0
 10
227.627
 20
134.019
 30
0
 10
227.538
 20
133.161
 30
0
 10
227.306
 20
132.303
 30
0
 10
226.928
 20
131.453
 30
0
 10
226.404
 20
130.622
 30
0
 10
225.733
 20
129.819
 30
0
 10
224.921
 20
129.054
 30
0
 10
223.971
 20
128.338
 30
0
  0
SPLINE
  5
343
330
112
100
AcDbEntity
  8
View
100
AcDbSpline
210
0
220
0
230
1
 70
8
 71
1
 72
17
 73
15
 74
0
 40
0
 40
0
 40
0.163139
 40
0.326277
 40
0.489416
 40
0.652554
 40
0.815693
 40
0.978831
 40
1.14197
 40
1.30511
 40
1.46825
 40
1.63139
 40
1.79452
 40
1.95766
 40
2.1208
 40
2.28394
 40
2.28394
 10
215.856
 20
131.755
 30
0
 10
215.349
 20
131.494
 30
0
 10
214.776
 20
131.288
 30
0
 10
214.152
 20
131.142
 30
0
 10
213.497
 20
131.062
 30
0
 10
212.828
 20
131.049
 30
0
 10
212.165
 20
131.106
 30
0
 10
211.528
 20
131.228
 30
0
 10
210.935
 20
131.414
 30
0
 10
210.403
 20
131.656
 30
0
 10
209.945
 20
131.948
 30
0
 10
209.575
 20
132.281
 30
0
 10
209.302
 20
132.644
 30
0
 10
209.131
 20
133.029
 30
0
 10
209.066
 20
133.423
 30
0
  0
SPLINE
  5
344
330
112
100
AcDbEntity
  8
View
100
AcDbSpline
210
0
220
0
230
1
 70
8
 71
1
 72
17
 73
15
 74
0
 40
2.28394
 40
2.28394
 40
2.5155
 40
2.74706
 40
2.97862
 40
3.21017
 40
3.44173
 40
3.67329
 40
3.90485
 40
4.13641
 40
4.36797
 40
4.59953
 40
4.83109
 40
5.06264
 40
5.2942
 40
5.52576
 40
5.52576
 10
209.066
 20
133.423
 30
0
 10
209.154
 20
133.978
 30
0
 10
209.447
 20
134.503
 30
0
 10
209.924
 20
134.97
 30
0
 10
210.558
 20
135.358
 30
0
 10
211.316
 20
135.648
 30
0
 10
212.158
 20
135.828
 30
0
 10
213.043
 20
135.888
 30
0
 10
213.928
 20
135.828
 30
0
 10
214.77
 20
135.648
 30
0
 10
215.528
 20
135.358
 30
0
 10
216.162
 20
134.97
 30
0
 10
216.639
 20
134.503
 30
0
 10
216.932
 20
133.978
 30
0
 10
217.02
 20
133.423
 30
0
  0
SPLINE
  5
345
330
112
100
AcDbEntity
  8
View
100
AcDbSpline
210
0
220
0
230
1
 70
8
 71
1
 72
17
 73
15
 74
0
 40
5.52576
 40
5.52576
 40
5.57986
 40
5.63397
 40
5.68807
 40
5.74217
 40
5.79627
 40
5.85037
 40
5.90447
 40
5.95858
 40
6.01268
 40
6.06678
 40
6.12088
 40
6.17498
 40
6.22908
 40
6.28319
 40
6.28319
 10
217.02
 20
133.423
 30
0
 10
217.011
 20
133.292
 30
0
 10
216.989
 20
133.161
 30
0
 10
216.956
 20
133.031
 30
0
 10
216.911
 20
132.902
 30
0
 10
216.855
 20
132.774
 30
0
 10
216.787
 20
132.648
 30
0
 10
216.707
 20
132.525
 30
0
 10
216.617
 20
132.404
 30
0
 10
216.516
 20
132.286
 30
0
 10
216.404
 20
132.172
 30
0
 10
216.282
 20
132.061
 30
0
 10
216.149
 20
131.955
 30
0
 10
216.007
 20
131.852
 30
0
 10
215.856
 20
131.755
 30
0
  0
SPLINE
  5
346
330
112
100
AcDbEntity
  8
View
100
AcDbSpline
210
0
220
0
230
1
 70
8
 71
1
 72
17
 73
15
 74
0
 40
1.98246
 40
1.98246
 40
2.25709
 40
2.53172
 40
2.80634
 40
3.08097
 40
3.3556
 40
3.63022
 40
3.90485
 40
4.17948
 40
4.45411
 40
4.72873
 40
5.00336
 40
5.27799
 40
5.55261
 40
5.82724
 40
5.82724
 10
185.294
 20
127.352
 30
0
 10
185.323
 20
132.244
 30
0
 10
187.342
 20
136.675
 30
0
 10
190.899
 20
140.426
 30
0
 10
195.575
 20
143.382
 30
0
 10
201.012
 20
145.501
 30
0
 10
206.917
 20
146.771
 30
0
 10
213.043
 20
147.194
 30
0
 10
219.169
 20
146.771
 30
0
 10
225.074
 20
145.501
 30
0
 10
230.511
 20
143.382
 30
0
 10
235.187
 20
140.426
 30
0
 10
238.745
 20
136.675
 30
0
 10
240.763
 20
132.244
 30
0
 10
240.792
 20
127.352
 30
0
  0
SPLINE
  5
347
330
112
100
AcDbEntity
  8
View
100
AcDbSpline
210
0
220
0
230
1
 70
8
 71
1
 72
17
 73
15
 74
0
 40
0
 40
0
 40
0.0714286
 40
0.142857
 40
0.214286
 40
0.285714
 40
0.357143
 40
0.428571
 40
0.5
 40
0.571429
 40
0.642857
 40
0.714286
 40
0.785714
 40
0.857143
 40
0.928571
 40
1
 40
1
 10
204.884
 20
136.299
 30
0
 10
204.935
 20
136.909
 30
0
 10
205.126
 20
137.448
 30
0
 10
205.407
 20
137.918
 30
0
 10
205.801
 20
138.386
 30
0
 10
206.408
 20
138.919
 30
0
 10
208.519
 20
140.038
 30
0
 10
211.191
 20
140.682
 30
0
 10
214.081
 20
140.764
 30
0
 10
217.186
 20
140.171
 30
0
 10
219.858
 20
138.777
 30
0
 10
220.485
 20
138.166
 30
0
 10
220.914
 20
137.539
 30
0
 10
221.15
 20
136.914
 30
0
 10
221.202
 20
136.299
 30
0
  0
SPLINE
  5
348
330
112
100
AcDbEntity
  8
View
100
AcDbSpline
210
0
220
0
230
1
 70
8
 71
1
 72
17
 73
15
 74
0
 40
0
 40
0
 40
0.0714286
 40
0.142857
 40
0.214286
 40
0.285714
 40
0.357143
 40
0.428571
 40
0.5
 40
0.571429
 40
0.642857
 40
0.714286
 40
0.785714
 40
0.857143
 40
0.928571
 40
1
 40
1
 10
199.331
 20
134.485
 30
0
 10
199.541
 20
136.329
 30
0
 10
200.54
 20
138.114
 30
0
 10
202.27
 20
139.731
 30
0
 10
204.598
 20
141.064
 30
0
 10
207.365
 20
142.034
 30
0
 10
210.409
 20
142.601
 30
0
 10
213.578
 20
142.743
 30
0
 10
216.723
 20
142.457
 30
0
 10
219.691
 20
141.751
 30
0
 10
222.329
 20
140.653
 30
0
 10
224.447
 20
139.236
 30
0
 10
225.825
 20
137.74
 30
0
 10
226.606
 20
136.133
 30
0
 10
226.755
 20
134.485
 30
0
  0
LINE
  5
349
330
112
100
AcDbEntity
  8
View
100
AcDbLine
 10
217.169
 20
138.336
 30
0
 11
217.02
 21
133.423
 31
0
  0
LINE
  5
34A
330
112
100
AcDbEntity
  8
View
100
AcDbLine
 10
208.917
 20
138.336
 30
0
 11
209.066
 21
133.423
 31
0
  0
SPLINE
  5
34B
330
112
100
AcDbEntity
  8
View
100
AcDbSpline
210
0
220
0
230
1
 70
8
 71
1
 72
17
 73
15
 74
0
 40
2.70958
 40
2.70958
 40
2.88033
 40
3.05109
 40
3.22184
 40
3.39259
 40
3.56335
 40
3.7341
 40
3.90485
 40
4.0756
 40
4.24636
 40
4.41711
 40
4.58786
 40
4.75862
 40
4.92937
 40
5.10012
 40
5.10012
 10
204.788
 20
137.871
 30
0
 10
205.543
 20
138.641
 30
0
 10
206.49
 20
139.32
 30
0
 10
207.601
 20
139.894
 30
0
 10
208.844
 20
140.353
 30
0
 10
210.188
 20
140.686
 30
0
 10
211.599
 20
140.889
 30
0
 10
213.043
 20
140.957
 30
0
 10
214.487
 20
140.889
 30
0
 10
215.898
 20
140.686
 30
0
 10
217.242
 20
140.353
 30
0
 10
218.485
 20
139.894
 30
0
 10
219.596
 20
139.32
 30
0
 10
220.543
 20
138.641
 30
0
 10
221.298
 20
137.871
 30
0
  0
SPLINE
  5
34C
330
112
100
AcDbEntity
  8
View
100
AcDbSpline
210
0
220
0
230
1
 70
8
 71
1
 72
17
 73
15
 74
0
 40
2.2337
 40
2.2337
 40
2.47243
 40
2.71117
 40
2.94991
 40
3.18864
 40
3.42738
 40
3.66611
 40
3.90485
 40
4.14359
 40
4.38232
 40
4.62106
 40
4.85979
 40
5.09853
 40
5.33727
 40
5.576
 40
5.576
 10
204.884
 20
136.299
 30
0
 10
205.046
 20
137.426
 30
0
 10
205.646
 20
138.484
 30
0
 10
206.634
 20
139.419
 30
0
 10
207.944
 20
140.19
 30
0
 10
209.504
 20
140.762
 30
0
 10
211.231
 20
141.114
 30
0
 10
213.043
 20
141.233
 30
0
 10
214.855
 20
141.114
 30
0
 10
216.582
 20
140.762
 30
0
 10
218.142
 20
140.19
 30
0
 10
219.453
 20
139.419
 30
0
 10
220.44
 20
138.484
 30
0
 10
221.041
 20
137.426
 30
0
 10
221.202
 20
136.299
 30
0
  0
SPLINE
  5
34D
330
112
100
AcDbEntity
  8
View
100
AcDbSpline
210
0
220
0
230
1
 70
8
 71
1
 72
17
 73
15
 74
0
 40
2.16417
 40
2.16417
 40
2.41284
 40
2.66151
 40
2.91018
 40
3.15885
 40
3.40751
 40
3.65618
 40
3.90485
 40
4.15352
 40
4.40219
 40
4.65086
 40
4.89952
 40
5.14819
 40
5.39686
 40
5.64553
 40
5.64553
 10
199.331
 20
134.485
 30
0
 10
199.545
 20
136.501
 30
0
 10
200.551
 20
138.375
 30
0
 10
202.233
 20
140.014
 30
0
 10
204.462
 20
141.348
 30
0
 10
207.098
 20
142.331
 30
0
 10
210.003
 20
142.932
 30
0
 10
213.043
 20
143.134
 30
0
 10
216.083
 20
142.932
 30
0
 10
218.988
 20
142.331
 30
0
 10
221.624
 20
141.348
 30
0
 10
223.853
 20
140.014
 30
0
 10
225.535
 20
138.375
 30
0
 10
226.541
 20
136.501
 30
0
 10
226.755
 20
134.485
 30
0
  0
SPLINE
  5
34E
330
112
100
AcDbEntity
  8
View
100
AcDbSpline
210
0
220
0
230
1
 70
8
 71
1
 72
17
 73
15
 74
0
 40
2.88471
 40
2.88471
 40
3.03044
 40
3.17618
 40
3.32191
 40
3.46765
 40
3.61338
 40
3.75912
 40
3.90485
 40
4.05059
 40
4.19632
 40
4.34206
 40
4.48779
 40
4.63352
 40
4.77926
 40
4.92499
 40
4.92499
 10
201.402
 20
139.398
 30
0
 10
202.697
 20
140.293
 30
0
 10
204.163
 20
141.067
 30
0
 10
205.77
 20
141.71
 30
0
 10
207.491
 20
142.216
 30
0
 10
209.295
 20
142.581
 30
0
 10
211.155
 20
142.801
 30
0
 10
213.043
 20
142.875
 30
0
 10
214.931
 20
142.801
 30
0
 10
216.791
 20
142.581
 30
0
 10
218.595
 20
142.216
 30
0
 10
220.316
 20
141.71
 30
0
 10
221.923
 20
141.067
 30
0
 10
223.389
 20
140.293
 30
0
 10
224.684
 20
139.398
 30
0
  0
DIMENSION
  5
34F
330
112
100
AcDbEntity
  8
Dimension009
100
AcDbDimension
  2
*Dimension009
 10
126.232
 20
75.6308
 30
0
 11
131.232
 21
75.6308
 31
0
 70
1
  1
3,00
  3
STANDARD
100
AcDbAlignedDimension
 13
101.256
 23
80.3658
 33
0
 14
101.256
 24
83.3658
 34
0
  0
DIMENSION
  5
350
330
112
100
AcDbEntity
  8
Dimension010
100
AcDbDimension
  2
*Dimension010
 10
132.502
 20
75.7703
 30
0
 11
137.502
 21
75.7703
 31
0
 70
1
  1
2,00
  3
STANDARD
100
AcDbAlignedDimension
 13
119.756
 23
80.3658
 33
0
 14
119.756
 24
82.3658
 34
0
  0
ENDSEC
  0
SECTION
  2
OBJECTS
  0
DICTIONARY
  5
500
330
0
100
AcDbDictionary
  3
ACAD_GROUP
350
501
  0
DICTIONARY
  5
501
330
500
100
AcDbDictionary
  0
ENDSEC
  0
EOF