solid model
  facet normal -1 -0 0
    outer loop
      vertex -13 -26 0
      vertex -13 -26 110
      vertex -13 26 110
    endloop
  endfacet
  facet normal -0 0 -1
    outer loop
      vertex -13 -26 0
      vertex -13 26 0
      vertex 65 26 0
    endloop
  endfacet
  facet normal -1 0 0
    outer loop
      vertex -13 -26 0
      vertex -13 26 110
      vertex -13 26 0
    endloop
  endfacet
  facet normal 0 -1 -0
    outer loop
      vertex -13 -26 0
      vertex 65 -26 0
      vertex 65 -26 110
    endloop
  endfacet
  facet normal 0 -1 0
    outer loop
      vertex -13 -26 0
      vertex 65 -26 110
      vertex -13 -26 110
    endloop
  endfacet
  facet normal 0 0 -1
    outer loop
      vertex -13 -26 0
      vertex 65 26 0
      vertex 65 -26 0
    endloop
  endfacet
  facet normal 0 0 1
    outer loop
      vertex -13 -26 110
      vertex 0 0 110
      vertex -13 26 110
    endloop
  endfacet
  facet normal 0 0 1
    outer loop
      vertex -13 -26 110
      vertex 0.207382 -0.763336 110
      vertex 0 0 110
    endloop
  endfacet
  facet normal 0 0 1
    outer loop
      vertex -13 -26 110
      vertex 0.826248 -1.47896 110
      vertex 0.207382 -0.763336 110
    endloop
  endfacet
  facet normal 0 0 1
    outer loop
      vertex -13 -26 110
      vertex 1.84688 -2.13716 110
      vertex 0.826248 -1.47896 110
    endloop
  endfacet
  facet normal 0 0 1
    outer loop
      vertex -13 -26 110
      vertex 12.2077 -4.12823 110
      vertex 9.53574 -3.9386 110
    endloop
  endfacet
  facet normal 0 0 1
    outer loop
      vertex -13 -26 110
      vertex 15.102 -4.20599 110
      vertex 12.2077 -4.12823 110
    endloop
  endfacet
  facet normal 0 0 1
    outer loop
      vertex -13 -26 110
      vertex 18.1729 -4.17691 110
      vertex 15.102 -4.20599 110
    endloop
  endfacet
  facet normal 0 0 1
    outer loop
      vertex -13 -26 110
      vertex 21.3719 -4.05052 110
      vertex 18.1729 -4.17691 110
    endloop
  endfacet
  facet normal 0 0 1
    outer loop
      vertex -13 -26 110
      vertex 3.25313 -2.72527 110
      vertex 1.84688 -2.13716 110
    endloop
  endfacet
  facet normal 0 0 1
    outer loop
      vertex -13 -26 110
      vertex 5.02284 -3.22955 110
      vertex 3.25313 -2.72527 110
    endloop
  endfacet
  facet normal 0 0 1
    outer loop
      vertex -13 -26 110
      vertex 65 -26 110
      vertex 21.3719 -4.05052 110
    endloop
  endfacet
  facet normal 0 0 1
    outer loop
      vertex -13 -26 110
      vertex 7.12811 -3.63725 110
      vertex 5.02284 -3.22955 110
    endloop
  endfacet
  facet normal 0 0 1
    outer loop
      vertex -13 -26 110
      vertex 9.53574 -3.9386 110
      vertex 7.12811 -3.63725 110
    endloop
  endfacet
  facet normal 0 1 0
    outer loop
      vertex -13 26 0
      vertex -13 26 110
      vertex 65 26 0
    endloop
  endfacet
  facet normal 0 0 1
    outer loop
      vertex -13 26 110
      vertex 0 0 110
      vertex 0.207382 0.763336 110
    endloop
  endfacet
  facet normal 0 0 1
    outer loop
      vertex -13 26 110
      vertex 0.207382 0.763336 110
      vertex 0.826248 1.47896 110
    endloop
  endfacet
  facet normal 0 0 1
    outer loop
      vertex -13 26 110
      vertex 0.826248 1.47896 110
      vertex 1.84688 2.13716 110
    endloop
  endfacet
  facet normal 0 0 1
    outer loop
      vertex -13 26 110
      vertex 1.84688 2.13716 110
      vertex 3.25313 2.72527 110
    endloop
  endfacet
  facet normal 0 0 1
    outer loop
      vertex -13 26 110
      vertex 12.2077 4.12823 110
      vertex 15.102 4.20599 110
    endloop
  endfacet
  facet normal 0 0 1
    outer loop
      vertex -13 26 110
      vertex 15.102 4.20599 110
      vertex 18.1729 4.17691 110
    endloop
  endfacet
  facet normal 0 0 1
    outer loop
      vertex -13 26 110
      vertex 18.1729 4.17691 110
      vertex 21.3719 4.05052 110
    endloop
  endfacet
  facet normal -0 0 1
    outer loop
      vertex -13 26 110
      vertex 21.3719 4.05052 110
      vertex 65 26 110
    endloop
  endfacet
  facet normal 0 0 1
    outer loop
      vertex -13 26 110
      vertex 3.25313 2.72527 110
      vertex 5.02284 3.22955 110
    endloop
  endfacet
  facet normal 0 0 1
    outer loop
      vertex -13 26 110
      vertex 5.02284 3.22955 110
      vertex 7.12811 3.63725 110
    endloop
  endfacet
  facet normal 0 1 -0
    outer loop
      vertex -13 26 110
      vertex 65 26 110
      vertex 65 26 0
    endloop
  endfacet
  facet normal 0 0 1
    outer loop
      vertex -13 26 110
      vertex 7.12811 3.63725 110
      vertex 9.53574 3.9386 110
    endloop
  endfacet
  facet normal 0 0 1
    outer loop
      vertex -13 26 110
      vertex 9.53574 3.9386 110
      vertex 12.2077 4.12823 110
    endloop
  endfacet
  facet normal 0.96502 0.262175 0
    outer loop
      vertex 0 0 10
      vertex 0 0 110
      vertex 0.207382 -0.763336 110
    endloop
  endfacet
  facet normal 0 -0 1
    outer loop
      vertex 0 0 10
      vertex 0.207382 -0.763336 10
      vertex 0.207382 0.763336 10
    endloop
  endfacet
  facet normal 0.96502 0.262175 0
    outer loop
      vertex 0 0 10
      vertex 0.207382 -0.763336 110
      vertex 0.207382 -0.763336 10
    endloop
  endfacet
  facet normal 0.96502 -0.262175 0
    outer loop
      vertex 0 0 10
      vertex 0.207382 0.763336 10
      vertex 0 0 110
    endloop
  endfacet
  facet normal 0.96502 -0.262175 0
    outer loop
      vertex 0 0 110
      vertex 0.207382 0.763336 10
      vertex 0.207382 0.763336 110
    endloop
  endfacet
  facet normal 0.756389 0.654122 0
    outer loop
      vertex 0.207382 -0.763336 10
      vertex 0.207382 -0.763336 110
      vertex 0.826248 -1.47896 110
    endloop
  endfacet
  facet normal 0 0 1
    outer loop
      vertex 0.207382 -0.763336 10
      vertex 0.826248 -1.47896 10
      vertex 0.207382 0.763336 10
    endloop
  endfacet
  facet normal 0.756389 0.654122 0
    outer loop
      vertex 0.207382 -0.763336 10
      vertex 0.826248 -1.47896 110
      vertex 0.826248 -1.47896 10
    endloop
  endfacet
  facet normal -0 0 1
    outer loop
      vertex 0.207382 0.763336 10
      vertex 0.826248 -1.47896 10
      vertex 0.826248 1.47896 10
    endloop
  endfacet
  facet normal 0.756389 -0.654122 0
    outer loop
      vertex 0.207382 0.763336 10
      vertex 0.826248 1.47896 10
      vertex 0.207382 0.763336 110
    endloop
  endfacet
  facet normal 0.756389 -0.654122 0
    outer loop
      vertex 0.207382 0.763336 110
      vertex 0.826248 1.47896 10
      vertex 0.826248 1.47896 110
    endloop
  endfacet
  facet normal 0.541971 0.840397 0
    outer loop
      vertex 0.826248 -1.47896 10
      vertex 0.826248 -1.47896 110
      vertex 1.84688 -2.13716 10
    endloop
  endfacet
  facet normal 0 0 1
    outer loop
      vertex 0.826248 -1.47896 10
      vertex 1.84688 -2.13716 10
      vertex 0.826248 1.47896 10
    endloop
  endfacet
  facet normal 0.541971 0.840397 -0
    outer loop
      vertex 0.826248 -1.47896 110
      vertex 1.84688 -2.13716 110
      vertex 1.84688 -2.13716 10
    endloop
  endfacet
  facet normal -0 0 1
    outer loop
      vertex 0.826248 1.47896 10
      vertex 1.84688 -2.13716 10
      vertex 1.84688 2.13716 10
    endloop
  endfacet
  facet normal 0.541971 -0.840397 0
    outer loop
      vertex 0.826248 1.47896 10
      vertex 1.84688 2.13716 10
      vertex 1.84688 2.13716 110
    endloop
  endfacet
  facet normal 0.541971 -0.840397 0
    outer loop
      vertex 0.826248 1.47896 10
      vertex 1.84688 2.13716 110
      vertex 0.826248 1.47896 110
    endloop
  endfacet
  facet normal 0.385826 0.922571 0
    outer loop
      vertex 1.84688 -2.13716 10
      vertex 1.84688 -2.13716 110
      vertex 3.25313 -2.72527 10
    endloop
  endfacet
  facet normal 0 0 1
    outer loop
      vertex 1.84688 -2.13716 10
      vertex 3.25313 -2.72527 10
      vertex 1.84688 2.13716 10
    endloop
  endfacet
  facet normal 0.385826 0.922571 -0
    outer loop
      vertex 1.84688 -2.13716 110
      vertex 3.25313 -2.72527 110
      vertex 3.25313 -2.72527 10
    endloop
  endfacet
  facet normal -0 0 1
    outer loop
      vertex 1.84688 2.13716 10
      vertex 3.25313 -2.72527 10
      vertex 3.25313 2.72527 10
    endloop
  endfacet
  facet normal 0.385826 -0.922571 0
    outer loop
      vertex 1.84688 2.13716 10
      vertex 3.25313 2.72527 10
      vertex 3.25313 2.72527 110
    endloop
  endfacet
  facet normal 0.385826 -0.922571 0
    outer loop
      vertex 1.84688 2.13716 10
      vertex 3.25313 2.72527 110
      vertex 1.84688 2.13716 110
    endloop
  endfacet
  facet normal 0.026857 0.999639 0
    outer loop
      vertex 12.2077 -4.12823 10
      vertex 12.2077 -4.12823 110
      vertex 15.102 -4.20599 10
    endloop
  endfacet
  facet normal 0 0 1
    outer loop
      vertex 12.2077 -4.12823 10
      vertex 15.102 -4.20599 10
      vertex 12.2077 4.12823 10
    endloop
  endfacet
  facet normal 0.026857 0.999639 -0
    outer loop
      vertex 12.2077 -4.12823 110
      vertex 15.102 -4.20599 110
      vertex 15.102 -4.20599 10
    endloop
  endfacet
  facet normal -0 0 1
    outer loop
      vertex 12.2077 4.12823 10
      vertex 15.102 -4.20599 10
      vertex 15.102 4.20599 10
    endloop
  endfacet
  facet normal 0.026857 -0.999639 0
    outer loop
      vertex 12.2077 4.12823 10
      vertex 15.102 4.20599 10
      vertex 15.102 4.20599 110
    endloop
  endfacet
  facet normal 0.026857 -0.999639 0
    outer loop
      vertex 12.2077 4.12823 10
      vertex 15.102 4.20599 110
      vertex 12.2077 4.12823 110
    endloop
  endfacet
  facet normal -0.00947029 0.999955 0
    outer loop
      vertex 15.102 -4.20599 10
      vertex 15.102 -4.20599 110
      vertex 18.1729 -4.17691 10
    endloop
  endfacet
  facet normal 0 0 1
    outer loop
      vertex 15.102 -4.20599 10
      vertex 18.1729 -4.17691 10
      vertex 15.102 4.20599 10
    endloop
  endfacet
  facet normal -0.00947029 0.999955 0
    outer loop
      vertex 15.102 -4.20599 110
      vertex 18.1729 -4.17691 110
      vertex 18.1729 -4.17691 10
    endloop
  endfacet
  facet normal 0 0 1
    outer loop
      vertex 15.102 4.20599 10
      vertex 18.1729 -4.17691 10
      vertex 18.1729 4.17691 10
    endloop
  endfacet
  facet normal -0.00947029 -0.999955 -0
    outer loop
      vertex 15.102 4.20599 10
      vertex 18.1729 4.17691 10
      vertex 18.1729 4.17691 110
    endloop
  endfacet
  facet normal -0.00947029 -0.999955 0
    outer loop
      vertex 15.102 4.20599 10
      vertex 18.1729 4.17691 110
      vertex 15.102 4.20599 110
    endloop
  endfacet
  facet normal -0.0394779 0.99922 0
    outer loop
      vertex 18.1729 -4.17691 10
      vertex 18.1729 -4.17691 110
      vertex 21.3719 -4.05052 10
    endloop
  endfacet
  facet normal 0 0 1
    outer loop
      vertex 18.1729 -4.17691 10
      vertex 21.3719 -4.05052 10
      vertex 18.1729 4.17691 10
    endloop
  endfacet
  facet normal -0.0394779 0.99922 0
    outer loop
      vertex 18.1729 -4.17691 110
      vertex 21.3719 -4.05052 110
      vertex 21.3719 -4.05052 10
    endloop
  endfacet
  facet normal 0 0 1
    outer loop
      vertex 18.1729 4.17691 10
      vertex 21.3719 -4.05052 10
      vertex 21.3719 4.05052 10
    endloop
  endfacet
  facet normal -0.0394779 -0.99922 -0
    outer loop
      vertex 18.1729 4.17691 10
      vertex 21.3719 4.05052 10
      vertex 21.3719 4.05052 110
    endloop
  endfacet
  facet normal -0.0394779 -0.99922 0
    outer loop
      vertex 18.1729 4.17691 10
      vertex 21.3719 4.05052 110
      vertex 18.1729 4.17691 110
    endloop
  endfacet
  facet normal -0.0641901 0.997938 0
    outer loop
      vertex 21.3719 -4.05052 10
      vertex 21.3719 -4.05052 110
      vertex 24.6486 -3.83975 10
    endloop
  endfacet
  facet normal 0 0 1
    outer loop
      vertex 21.3719 -4.05052 10
      vertex 24.6486 -3.83975 10
      vertex 21.3719 4.05052 10
    endloop
  endfacet
  facet normal -0.0641901 0.997938 0
    outer loop
      vertex 21.3719 -4.05052 110
      vertex 24.6486 -3.83975 110
      vertex 24.6486 -3.83975 10
    endloop
  endfacet
  facet normal -0 0 1
    outer loop
      vertex 21.3719 -4.05052 110
      vertex 65 -26 110
      vertex 24.6486 -3.83975 110
    endloop
  endfacet
  facet normal 0 0 1
    outer loop
      vertex 21.3719 4.05052 10
      vertex 24.6486 -3.83975 10
      vertex 24.6486 3.83975 10
    endloop
  endfacet
  facet normal -0.0641901 -0.997938 -0
    outer loop
      vertex 21.3719 4.05052 10
      vertex 24.6486 3.83975 10
      vertex 24.6486 3.83975 110
    endloop
  endfacet
  facet normal -0.0641901 -0.997938 0
    outer loop
      vertex 21.3719 4.05052 10
      vertex 24.6486 3.83975 110
      vertex 21.3719 4.05052 110
    endloop
  endfacet
  facet normal 0 0 1
    outer loop
      vertex 21.3719 4.05052 110
      vertex 24.6486 3.83975 110
      vertex 65 26 110
    endloop
  endfacet
  facet normal -0.0845422 0.99642 0
    outer loop
      vertex 24.6486 -3.83975 10
      vertex 24.6486 -3.83975 110
      vertex 27.9514 -3.55952 10
    endloop
  endfacet
  facet normal 0 0 1
    outer loop
      vertex 24.6486 -3.83975 10
      vertex 27.9514 -3.55952 10
      vertex 24.6486 3.83975 10
    endloop
  endfacet
  facet normal -0.0845422 0.99642 0
    outer loop
      vertex 24.6486 -3.83975 110
      vertex 27.9514 -3.55952 110
      vertex 27.9514 -3.55952 10
    endloop
  endfacet
  facet normal -0 0 1
    outer loop
      vertex 24.6486 -3.83975 110
      vertex 65 -26 110
      vertex 27.9514 -3.55952 110
    endloop
  endfacet
  facet normal 0 0 1
    outer loop
      vertex 24.6486 3.83975 10
      vertex 27.9514 -3.55952 10
      vertex 27.9514 3.55952 10
    endloop
  endfacet
  facet normal -0.0845422 -0.99642 -0
    outer loop
      vertex 24.6486 3.83975 10
      vertex 27.9514 3.55952 10
      vertex 27.9514 3.55952 110
    endloop
  endfacet
  facet normal -0.0845422 -0.99642 0
    outer loop
      vertex 24.6486 3.83975 10
      vertex 27.9514 3.55952 110
      vertex 24.6486 3.83975 110
    endloop
  endfacet
  facet normal 0 0 1
    outer loop
      vertex 24.6486 3.83975 110
      vertex 27.9514 3.55952 110
      vertex 65 26 110
    endloop
  endfacet
  facet normal -0.101391 0.994847 0
    outer loop
      vertex 27.9514 -3.55952 10
      vertex 27.9514 -3.55952 110
      vertex 31.2281 -3.22557 10
    endloop
  endfacet
  facet normal 0 0 1
    outer loop
      vertex 27.9514 -3.55952 10
      vertex 31.2281 -3.22557 10
      vertex 27.9514 3.55952 10
    endloop
  endfacet
  facet normal -0.101391 0.994847 0
    outer loop
      vertex 27.9514 -3.55952 110
      vertex 31.2281 -3.22557 110
      vertex 31.2281 -3.22557 10
    endloop
  endfacet
  facet normal -0 0 1
    outer loop
      vertex 27.9514 -3.55952 110
      vertex 65 -26 110
      vertex 31.2281 -3.22557 110
    endloop
  endfacet
  facet normal 0 0 1
    outer loop
      vertex 27.9514 3.55952 10
      vertex 31.2281 -3.22557 10
      vertex 31.2281 3.22557 10
    endloop
  endfacet
  facet normal -0.101391 -0.994847 -0
    outer loop
      vertex 27.9514 3.55952 10
      vertex 31.2281 3.22557 10
      vertex 31.2281 3.22557 110
    endloop
  endfacet
  facet normal -0.101391 -0.994847 0
    outer loop
      vertex 27.9514 3.55952 10
      vertex 31.2281 3.22557 110
      vertex 27.9514 3.55952 110
    endloop
  endfacet
  facet normal 0 0 1
    outer loop
      vertex 27.9514 3.55952 110
      vertex 31.2281 3.22557 110
      vertex 65 26 110
    endloop
  endfacet
  facet normal 0.274045 0.961717 0
    outer loop
      vertex 3.25313 -2.72527 10
      vertex 3.25313 -2.72527 110
      vertex 5.02284 -3.22955 10
    endloop
  endfacet
  facet normal 0 0 1
    outer loop
      vertex 3.25313 -2.72527 10
      vertex 5.02284 -3.22955 10
      vertex 3.25313 2.72527 10
    endloop
  endfacet
  facet normal 0.274045 0.961717 -0
    outer loop
      vertex 3.25313 -2.72527 110
      vertex 5.02284 -3.22955 110
      vertex 5.02284 -3.22955 10
    endloop
  endfacet
  facet normal -0 0 1
    outer loop
      vertex 3.25313 2.72527 10
      vertex 5.02284 -3.22955 10
      vertex 5.02284 3.22955 10
    endloop
  endfacet
  facet normal 0.274045 -0.961717 0
    outer loop
      vertex 3.25313 2.72527 10
      vertex 5.02284 3.22955 10
      vertex 5.02284 3.22955 110
    endloop
  endfacet
  facet normal 0.274045 -0.961717 0
    outer loop
      vertex 3.25313 2.72527 10
      vertex 5.02284 3.22955 110
      vertex 3.25313 2.72527 110
    endloop
  endfacet
  facet normal -0.115543 0.993302 0
    outer loop
      vertex 31.2281 -3.22557 10
      vertex 31.2281 -3.22557 110
      vertex 34.4271 -2.85345 10
    endloop
  endfacet
  facet normal 0 0 1
    outer loop
      vertex 31.2281 -3.22557 10
      vertex 34.4271 -2.85345 10
      vertex 31.2281 3.22557 10
    endloop
  endfacet
  facet normal -0.115543 0.993302 0
    outer loop
      vertex 31.2281 -3.22557 110
      vertex 34.4271 -2.85345 110
      vertex 34.4271 -2.85345 10
    endloop
  endfacet
  facet normal -0 0 1
    outer loop
      vertex 31.2281 -3.22557 110
      vertex 65 -26 110
      vertex 34.4271 -2.85345 110
    endloop
  endfacet
  facet normal 0 0 1
    outer loop
      vertex 31.2281 3.22557 10
      vertex 34.4271 -2.85345 10
      vertex 34.4271 2.85345 10
    endloop
  endfacet
  facet normal -0.115543 -0.993302 -0
    outer loop
      vertex 31.2281 3.22557 10
      vertex 34.4271 2.85345 10
      vertex 34.4271 2.85345 110
    endloop
  endfacet
  facet normal -0.115543 -0.993302 0
    outer loop
      vertex 31.2281 3.22557 10
      vertex 34.4271 2.85345 110
      vertex 31.2281 3.22557 110
    endloop
  endfacet
  facet normal 0 0 1
    outer loop
      vertex 31.2281 3.22557 110
      vertex 34.4271 2.85345 110
      vertex 65 26 110
    endloop
  endfacet
  facet normal -0.12771 0.991812 0
    outer loop
      vertex 34.4271 -2.85345 10
      vertex 34.4271 -2.85345 110
      vertex 37.498 -2.45804 10
    endloop
  endfacet
  facet normal 0 0 1
    outer loop
      vertex 34.4271 -2.85345 10
      vertex 37.498 -2.45804 10
      vertex 34.4271 2.85345 10
    endloop
  endfacet
  facet normal -0.12771 0.991812 0
    outer loop
      vertex 34.4271 -2.85345 110
      vertex 37.498 -2.45804 110
      vertex 37.498 -2.45804 10
    endloop
  endfacet
  facet normal -0 0 1
    outer loop
      vertex 34.4271 -2.85345 110
      vertex 65 -26 110
      vertex 37.498 -2.45804 110
    endloop
  endfacet
  facet normal 0 0 1
    outer loop
      vertex 34.4271 2.85345 10
      vertex 37.498 -2.45804 10
      vertex 37.498 2.45804 10
    endloop
  endfacet
  facet normal -0.12771 -0.991812 -0
    outer loop
      vertex 34.4271 2.85345 10
      vertex 37.498 2.45804 10
      vertex 37.498 2.45804 110
    endloop
  endfacet
  facet normal -0.12771 -0.991812 0
    outer loop
      vertex 34.4271 2.85345 10
      vertex 37.498 2.45804 110
      vertex 34.4271 2.85345 110
    endloop
  endfacet
  facet normal 0 0 1
    outer loop
      vertex 34.4271 2.85345 110
      vertex 37.498 2.45804 110
      vertex 65 26 110
    endloop
  endfacet
  facet normal -0.138464 0.990367 0
    outer loop
      vertex 37.498 -2.45804 10
      vertex 37.498 -2.45804 110
      vertex 40.3922 -2.05339 10
    endloop
  endfacet
  facet normal 0 0 1
    outer loop
      vertex 37.498 -2.45804 10
      vertex 40.3922 -2.05339 10
      vertex 37.498 2.45804 10
    endloop
  endfacet
  facet normal -0.138464 0.990367 0
    outer loop
      vertex 37.498 -2.45804 110
      vertex 40.3922 -2.05339 110
      vertex 40.3922 -2.05339 10
    endloop
  endfacet
  facet normal -0 0 1
    outer loop
      vertex 37.498 -2.45804 110
      vertex 65 -26 110
      vertex 40.3922 -2.05339 110
    endloop
  endfacet
  facet normal 0 0 1
    outer loop
      vertex 37.498 2.45804 10
      vertex 40.3922 -2.05339 10
      vertex 40.3922 2.05339 10
    endloop
  endfacet
  facet normal -0.138464 -0.990367 -0
    outer loop
      vertex 37.498 2.45804 10
      vertex 40.3922 2.05339 10
      vertex 40.3922 2.05339 110
    endloop
  endfacet
  facet normal -0.138464 -0.990367 0
    outer loop
      vertex 37.498 2.45804 10
      vertex 40.3922 2.05339 110
      vertex 37.498 2.45804 110
    endloop
  endfacet
  facet normal 0 0 1
    outer loop
      vertex 37.498 2.45804 110
      vertex 40.3922 2.05339 110
      vertex 65 26 110
    endloop
  endfacet
  facet normal -0.148203 0.988957 0
    outer loop
      vertex 40.3922 -2.05339 10
      vertex 40.3922 -2.05339 110
      vertex 43.0642 -1.65297 10
    endloop
  endfacet
  facet normal 0 0 1
    outer loop
      vertex 40.3922 -2.05339 10
      vertex 43.0642 -1.65297 10
      vertex 40.3922 2.05339 10
    endloop
  endfacet
  facet normal -0.148203 0.988957 0
    outer loop
      vertex 40.3922 -2.05339 110
      vertex 43.0642 -1.65297 110
      vertex 43.0642 -1.65297 10
    endloop
  endfacet
  facet normal -0 0 1
    outer loop
      vertex 40.3922 -2.05339 110
      vertex 65 -26 110
      vertex 43.0642 -1.65297 110
    endloop
  endfacet
  facet normal 0 0 1
    outer loop
      vertex 40.3922 2.05339 10
      vertex 43.0642 -1.65297 10
      vertex 43.0642 1.65297 10
    endloop
  endfacet
  facet normal -0.148203 -0.988957 -0
    outer loop
      vertex 40.3922 2.05339 10
      vertex 43.0642 1.65297 10
      vertex 43.0642 1.65297 110
    endloop
  endfacet
  facet normal -0.148203 -0.988957 0
    outer loop
      vertex 40.3922 2.05339 10
      vertex 43.0642 1.65297 110
      vertex 40.3922 2.05339 110
    endloop
  endfacet
  facet normal 0 0 1
    outer loop
      vertex 40.3922 2.05339 110
      vertex 43.0642 1.65297 110
      vertex 65 26 110
    endloop
  endfacet
  facet normal -0.157168 0.987572 0
    outer loop
      vertex 43.0642 -1.65297 10
      vertex 43.0642 -1.65297 110
      vertex 45.4719 -1.26981 10
    endloop
  endfacet
  facet normal 0 0 1
    outer loop
      vertex 43.0642 -1.65297 10
      vertex 45.4719 -1.26981 10
      vertex 43.0642 1.65297 10
    endloop
  endfacet
  facet normal -0.157168 0.987572 0
    outer loop
      vertex 43.0642 -1.65297 110
      vertex 45.4719 -1.26981 110
      vertex 45.4719 -1.26981 10
    endloop
  endfacet
  facet normal -0 0 1
    outer loop
      vertex 43.0642 -1.65297 110
      vertex 65 -26 110
      vertex 45.4719 -1.26981 110
    endloop
  endfacet
  facet normal 0 0 1
    outer loop
      vertex 43.0642 1.65297 10
      vertex 45.4719 -1.26981 10
      vertex 45.4719 1.26981 10
    endloop
  endfacet
  facet normal -0.157168 -0.987572 -0
    outer loop
      vertex 43.0642 1.65297 10
      vertex 45.4719 1.26981 10
      vertex 45.4719 1.26981 110
    endloop
  endfacet
  facet normal -0.157168 -0.987572 0
    outer loop
      vertex 43.0642 1.65297 10
      vertex 45.4719 1.26981 110
      vertex 43.0642 1.65297 110
    endloop
  endfacet
  facet normal 0 0 1
    outer loop
      vertex 43.0642 1.65297 110
      vertex 45.4719 1.26981 110
      vertex 65 26 110
    endloop
  endfacet
  facet normal -0.165413 0.986224 0
    outer loop
      vertex 45.4719 -1.26981 10
      vertex 45.4719 -1.26981 110
      vertex 47.5771 -0.916702 10
    endloop
  endfacet
  facet normal 0 0 1
    outer loop
      vertex 45.4719 -1.26981 10
      vertex 47.5771 -0.916702 10
      vertex 45.4719 1.26981 10
    endloop
  endfacet
  facet normal -0.165413 0.986224 0
    outer loop
      vertex 45.4719 -1.26981 110
      vertex 47.5771 -0.916702 110
      vertex 47.5771 -0.916702 10
    endloop
  endfacet
  facet normal -0 0 1
    outer loop
      vertex 45.4719 -1.26981 110
      vertex 65 -26 110
      vertex 47.5771 -0.916702 110
    endloop
  endfacet
  facet normal 0 0 1
    outer loop
      vertex 45.4719 1.26981 10
      vertex 47.5771 -0.916702 10
      vertex 47.5771 0.916702 10
    endloop
  endfacet
  facet normal -0.165413 -0.986224 -0
    outer loop
      vertex 45.4719 1.26981 10
      vertex 47.5771 0.916702 10
      vertex 47.5771 0.916702 110
    endloop
  endfacet
  facet normal -0.165413 -0.986224 0
    outer loop
      vertex 45.4719 1.26981 10
      vertex 47.5771 0.916702 110
      vertex 45.4719 1.26981 110
    endloop
  endfacet
  facet normal 0 0 1
    outer loop
      vertex 45.4719 1.26981 110
      vertex 47.5771 0.916702 110
      vertex 65 26 110
    endloop
  endfacet
  facet normal -0.172836 0.984951 0
    outer loop
      vertex 47.5771 -0.916702 10
      vertex 47.5771 -0.916702 110
      vertex 49.3469 -0.606155 10
    endloop
  endfacet
  facet normal 0 0 1
    outer loop
      vertex 47.5771 -0.916702 10
      vertex 49.3469 -0.606155 10
      vertex 47.5771 0.916702 10
    endloop
  endfacet
  facet normal -0.172836 0.984951 0
    outer loop
      vertex 47.5771 -0.916702 110
      vertex 49.3469 -0.606155 110
      vertex 49.3469 -0.606155 10
    endloop
  endfacet
  facet normal -0 0 1
    outer loop
      vertex 47.5771 -0.916702 110
      vertex 65 -26 110
      vertex 49.3469 -0.606155 110
    endloop
  endfacet
  facet normal 0 0 1
    outer loop
      vertex 47.5771 0.916702 10
      vertex 49.3469 -0.606155 10
      vertex 49.3469 0.606155 10
    endloop
  endfacet
  facet normal -0.172836 -0.984951 -0
    outer loop
      vertex 47.5771 0.916702 10
      vertex 49.3469 0.606155 10
      vertex 49.3469 0.606155 110
    endloop
  endfacet
  facet normal -0.172836 -0.984951 0
    outer loop
      vertex 47.5771 0.916702 10
      vertex 49.3469 0.606155 110
      vertex 47.5771 0.916702 110
    endloop
  endfacet
  facet normal 0 0 1
    outer loop
      vertex 47.5771 0.916702 110
      vertex 49.3469 0.606155 110
      vertex 65 26 110
    endloop
  endfacet
  facet normal -0.179243 0.983805 0
    outer loop
      vertex 49.3469 -0.606155 10
      vertex 49.3469 -0.606155 110
      vertex 50.7531 -0.349945 10
    endloop
  endfacet
  facet normal 0 0 1
    outer loop
      vertex 49.3469 -0.606155 10
      vertex 50.7531 -0.349945 10
      vertex 49.3469 0.606155 10
    endloop
  endfacet
  facet normal -0.179243 0.983805 0
    outer loop
      vertex 49.3469 -0.606155 110
      vertex 50.7531 -0.349945 110
      vertex 50.7531 -0.349945 10
    endloop
  endfacet
  facet normal -0 0 1
    outer loop
      vertex 49.3469 -0.606155 110
      vertex 65 -26 110
      vertex 50.7531 -0.349945 110
    endloop
  endfacet
  facet normal 0 0 1
    outer loop
      vertex 49.3469 0.606155 10
      vertex 50.7531 -0.349945 10
      vertex 50.7531 0.349945 10
    endloop
  endfacet
  facet normal -0.179243 -0.983805 -0
    outer loop
      vertex 49.3469 0.606155 10
      vertex 50.7531 0.349945 10
      vertex 50.7531 0.349945 110
    endloop
  endfacet
  facet normal -0.179243 -0.983805 0
    outer loop
      vertex 49.3469 0.606155 10
      vertex 50.7531 0.349945 110
      vertex 49.3469 0.606155 110
    endloop
  endfacet
  facet normal 0 0 1
    outer loop
      vertex 49.3469 0.606155 110
      vertex 50.7531 0.349945 110
      vertex 65 26 110
    endloop
  endfacet
  facet normal 0.190124 0.98176 0
    outer loop
      vertex 5.02284 -3.22955 10
      vertex 5.02284 -3.22955 110
      vertex 7.12811 -3.63725 10
    endloop
  endfacet
  facet normal 0 0 1
    outer loop
      vertex 5.02284 -3.22955 10
      vertex 7.12811 -3.63725 10
      vertex 5.02284 3.22955 10
    endloop
  endfacet
  facet normal 0.190124 0.98176 -0
    outer loop
      vertex 5.02284 -3.22955 110
      vertex 7.12811 -3.63725 110
      vertex 7.12811 -3.63725 10
    endloop
  endfacet
  facet normal -0 0 1
    outer loop
      vertex 5.02284 3.22955 10
      vertex 7.12811 -3.63725 10
      vertex 7.12811 3.63725 10
    endloop
  endfacet
  facet normal 0.190124 -0.98176 0
    outer loop
      vertex 5.02284 3.22955 10
      vertex 7.12811 3.63725 10
      vertex 7.12811 3.63725 110
    endloop
  endfacet
  facet normal 0.190124 -0.98176 0
    outer loop
      vertex 5.02284 3.22955 10
      vertex 7.12811 3.63725 110
      vertex 5.02284 3.22955 110
    endloop
  endfacet
  facet normal -0.184355 0.98286 0
    outer loop
      vertex 50.7531 -0.349945 10
      vertex 50.7531 -0.349945 110
      vertex 51.7737 -0.158508 10
    endloop
  endfacet
  facet normal 0 0 1
    outer loop
      vertex 50.7531 -0.349945 10
      vertex 51.7737 -0.158508 10
      vertex 50.7531 0.349945 10
    endloop
  endfacet
  facet normal -0.184355 0.98286 0
    outer loop
      vertex 50.7531 -0.349945 110
      vertex 51.7737 -0.158508 110
      vertex 51.7737 -0.158508 10
    endloop
  endfacet
  facet normal -0 0 1
    outer loop
      vertex 50.7531 -0.349945 110
      vertex 65 -26 110
      vertex 51.7737 -0.158508 110
    endloop
  endfacet
  facet normal 0 0 1
    outer loop
      vertex 50.7531 0.349945 10
      vertex 51.7737 -0.158508 10
      vertex 51.7737 0.158508 10
    endloop
  endfacet
  facet normal -0.184355 -0.98286 -0
    outer loop
      vertex 50.7531 0.349945 10
      vertex 51.7737 0.158508 10
      vertex 51.7737 0.158508 110
    endloop
  endfacet
  facet normal -0.184355 -0.98286 0
    outer loop
      vertex 50.7531 0.349945 10
      vertex 51.7737 0.158508 110
      vertex 50.7531 0.349945 110
    endloop
  endfacet
  facet normal 0 0 1
    outer loop
      vertex 50.7531 0.349945 110
      vertex 51.7737 0.158508 110
      vertex 65 26 110
    endloop
  endfacet
  facet normal -0.188402 0.982092 0
    outer loop
      vertex 51.7737 -0.158508 10
      vertex 51.7737 -0.158508 110
      vertex 52.6 0 10
    endloop
  endfacet
  facet normal 0 0 1
    outer loop
      vertex 51.7737 -0.158508 10
      vertex 52.6 0 10
      vertex 51.7737 0.158508 10
    endloop
  endfacet
  facet normal -0.188402 0.982092 0
    outer loop
      vertex 51.7737 -0.158508 110
      vertex 52.6 0 110
      vertex 52.6 0 10
    endloop
  endfacet
  facet normal -0 0 1
    outer loop
      vertex 51.7737 -0.158508 110
      vertex 65 -26 110
      vertex 52.6 0 110
    endloop
  endfacet
  facet normal -0.188402 -0.982092 -0
    outer loop
      vertex 51.7737 0.158508 10
      vertex 52.6 0 10
      vertex 52.6 0 110
    endloop
  endfacet
  facet normal -0.188402 -0.982092 0
    outer loop
      vertex 51.7737 0.158508 10
      vertex 52.6 0 110
      vertex 51.7737 0.158508 110
    endloop
  endfacet
  facet normal 0 0 1
    outer loop
      vertex 51.7737 0.158508 110
      vertex 52.6 0 110
      vertex 65 26 110
    endloop
  endfacet
  facet normal 0 0 1
    outer loop
      vertex 52.6 0 110
      vertex 65 -26 110
      vertex 65 26 110
    endloop
  endfacet
  facet normal 1 0 0
    outer loop
      vertex 65 -26 0
      vertex 65 26 0
      vertex 65 -26 110
    endloop
  endfacet
  facet normal 1 -0 0
    outer loop
      vertex 65 -26 110
      vertex 65 26 0
      vertex 65 26 110
    endloop
  endfacet
  facet normal 0.124194 0.992258 0
    outer loop
      vertex 7.12811 -3.63725 10
      vertex 7.12811 -3.63725 110
      vertex 9.53574 -3.9386 10
    endloop
  endfacet
  facet normal 0 0 1
    outer loop
      vertex 7.12811 -3.63725 10
      vertex 9.53574 -3.9386 10
      vertex 7.12811 3.63725 10
    endloop
  endfacet
  facet normal 0.124194 0.992258 -0
    outer loop
      vertex 7.12811 -3.63725 110
      vertex 9.53574 -3.9386 110
      vertex 9.53574 -3.9386 10
    endloop
  endfacet
  facet normal -0 0 1
    outer loop
      vertex 7.12811 3.63725 10
      vertex 9.53574 -3.9386 10
      vertex 9.53574 3.9386 10
    endloop
  endfacet
  facet normal 0.124194 -0.992258 0
    outer loop
      vertex 7.12811 3.63725 10
      vertex 9.53574 3.9386 10
      vertex 9.53574 3.9386 110
    endloop
  endfacet
  facet normal 0.124194 -0.992258 0
    outer loop
      vertex 7.12811 3.63725 10
      vertex 9.53574 3.9386 110
      vertex 7.12811 3.63725 110
    endloop
  endfacet
  facet normal 0 0 1
    outer loop
      vertex 9.53574 -3.9386 10
      vertex 12.2077 -4.12823 10
      vertex 9.53574 3.9386 10
    endloop
  endfacet
  facet normal 0.0707932 0.997491 0
    outer loop
      vertex 9.53574 -3.9386 10
      vertex 9.53574 -3.9386 110
      vertex 12.2077 -4.12823 10
    endloop
  endfacet
  facet normal 0.0707932 0.997491 -0
    outer loop
      vertex 9.53574 -3.9386 110
      vertex 12.2077 -4.12823 110
      vertex 12.2077 -4.12823 10
    endloop
  endfacet
  facet normal -0 0 1
    outer loop
      vertex 9.53574 3.9386 10
      vertex 12.2077 -4.12823 10
      vertex 12.2077 4.12823 10
    endloop
  endfacet
  facet normal 0.0707932 -0.997491 0
    outer loop
      vertex 9.53574 3.9386 10
      vertex 12.2077 4.12823 10
      vertex 12.2077 4.12823 110
    endloop
  endfacet
  facet normal 0.0707932 -0.997491 0
    outer loop
      vertex 9.53574 3.9386 10
      vertex 12.2077 4.12823 110
      vertex 9.53574 3.9386 110
    endloop
  endfacet
endsolid model
