solid model
  facet normal 0 1 0
    outer loop
      vertex -0.141278 -2.24556 0
      vertex -0.141278 -2.24556 21.5
      vertex 0.141278 -2.24556 0
    endloop
  endfacet
  facet normal 0 0 -1
    outer loop
      vertex -0.141278 -2.24556 0
      vertex 0.141278 -2.24556 0
      vertex 15 -10 0
    endloop
  endfacet
  facet normal 0 1 -0
    outer loop
      vertex -0.141278 -2.24556 21.5
      vertex 0.141278 -2.24556 21.5
      vertex 0.141278 -2.24556 0
    endloop
  endfacet
  facet normal 0 1 0
    outer loop
      vertex -0.141278 -2.24556 23
      vertex -0.141278 -2.24556 31.5
      vertex 0.141278 -2.24556 23
    endloop
  endfacet
  facet normal 0 1 -0
    outer loop
      vertex -0.141278 -2.24556 31.5
      vertex 0.141278 -2.24556 31.5
      vertex 0.141278 -2.24556 23
    endloop
  endfacet
  facet normal -0 0 1
    outer loop
      vertex -0.141278 -2.24556 31.5
      vertex 15 -10 31.5
      vertex 0.141278 -2.24556 31.5
    endloop
  endfacet
  facet normal 0 -1 -0
    outer loop
      vertex -0.141278 2.24556 0
      vertex 0.141278 2.24556 0
      vertex 0.141278 2.24556 21.5
    endloop
  endfacet
  facet normal 0 -1 0
    outer loop
      vertex -0.141278 2.24556 0
      vertex 0.141278 2.24556 21.5
      vertex -0.141278 2.24556 21.5
    endloop
  endfacet
  facet normal 0 0 -1
    outer loop
      vertex -0.141278 2.24556 0
      vertex 15 10 0
      vertex 0.141278 2.24556 0
    endloop
  endfacet
  facet normal 0 -1 -0
    outer loop
      vertex -0.141278 2.24556 23
      vertex 0.141278 2.24556 23
      vertex 0.141278 2.24556 31.5
    endloop
  endfacet
  facet normal 0 -1 0
    outer loop
      vertex -0.141278 2.24556 23
      vertex 0.141278 2.24556 31.5
      vertex -0.141278 2.24556 31.5
    endloop
  endfacet
  facet normal 0 0 1
    outer loop
      vertex -0.141278 2.24556 31.5
      vertex 0.141278 2.24556 31.5
      vertex 15 10 31.5
    endloop
  endfacet
  facet normal 0.125333 0.992115 0
    outer loop
      vertex -0.421607 -2.21015 0
      vertex -0.421607 -2.21015 21.5
      vertex -0.141278 -2.24556 0
    endloop
  endfacet
  facet normal 0.125333 0.992115 -0
    outer loop
      vertex -0.421607 -2.21015 21.5
      vertex -0.141278 -2.24556 21.5
      vertex -0.141278 -2.24556 0
    endloop
  endfacet
  facet normal 0.125333 0.992115 0
    outer loop
      vertex -0.421607 -2.21015 23
      vertex -0.421607 -2.21015 31.5
      vertex -0.141278 -2.24556 23
    endloop
  endfacet
  facet normal 0.125333 0.992115 -0
    outer loop
      vertex -0.421607 -2.21015 31.5
      vertex -0.141278 -2.24556 31.5
      vertex -0.141278 -2.24556 23
    endloop
  endfacet
  facet normal 0.125333 -0.992115 0
    outer loop
      vertex -0.421607 2.21015 0
      vertex -0.141278 2.24556 0
      vertex -0.141278 2.24556 21.5
    endloop
  endfacet
  facet normal 0.125333 -0.992115 0
    outer loop
      vertex -0.421607 2.21015 0
      vertex -0.141278 2.24556 21.5
      vertex -0.421607 2.21015 21.5
    endloop
  endfacet
  facet normal 0.125333 -0.992115 0
    outer loop
      vertex -0.421607 2.21015 23
      vertex -0.141278 2.24556 23
      vertex -0.141278 2.24556 31.5
    endloop
  endfacet
  facet normal 0.125333 -0.992115 0
    outer loop
      vertex -0.421607 2.21015 23
      vertex -0.141278 2.24556 31.5
      vertex -0.421607 2.21015 31.5
    endloop
  endfacet
  facet normal 0.248691 0.968583 0
    outer loop
      vertex -0.695288 -2.13988 0
      vertex -0.695288 -2.13988 21.5
      vertex -0.421607 -2.21015 0
    endloop
  endfacet
  facet normal 0.248691 0.968583 -0
    outer loop
      vertex -0.695288 -2.13988 21.5
      vertex -0.421607 -2.21015 21.5
      vertex -0.421607 -2.21015 0
    endloop
  endfacet
  facet normal 0.248691 0.968583 0
    outer loop
      vertex -0.695288 -2.13988 23
      vertex -0.695288 -2.13988 31.5
      vertex -0.421607 -2.21015 23
    endloop
  endfacet
  facet normal 0.248691 0.968583 -0
    outer loop
      vertex -0.695288 -2.13988 31.5
      vertex -0.421607 -2.21015 31.5
      vertex -0.421607 -2.21015 23
    endloop
  endfacet
  facet normal 0.248691 -0.968583 0
    outer loop
      vertex -0.695288 2.13988 0
      vertex -0.421607 2.21015 0
      vertex -0.421607 2.21015 21.5
    endloop
  endfacet
  facet normal 0.248691 -0.968583 0
    outer loop
      vertex -0.695288 2.13988 0
      vertex -0.421607 2.21015 21.5
      vertex -0.695288 2.13988 21.5
    endloop
  endfacet
  facet normal 0.248691 -0.968583 0
    outer loop
      vertex -0.695288 2.13988 23
      vertex -0.421607 2.21015 23
      vertex -0.421607 2.21015 31.5
    endloop
  endfacet
  facet normal 0.248691 -0.968583 0
    outer loop
      vertex -0.695288 2.13988 23
      vertex -0.421607 2.21015 31.5
      vertex -0.695288 2.13988 31.5
    endloop
  endfacet
  facet normal 0.368124 0.929777 0
    outer loop
      vertex -0.958003 -2.03586 0
      vertex -0.958003 -2.03586 21.5
      vertex -0.695288 -2.13988 0
    endloop
  endfacet
  facet normal 0.368124 0.929777 -0
    outer loop
      vertex -0.958003 -2.03586 21.5
      vertex -0.695288 -2.13988 21.5
      vertex -0.695288 -2.13988 0
    endloop
  endfacet
  facet normal 0.368124 0.929777 0
    outer loop
      vertex -0.958003 -2.03586 23
      vertex -0.958003 -2.03586 31.5
      vertex -0.695288 -2.13988 23
    endloop
  endfacet
  facet normal 0.368124 0.929777 -0
    outer loop
      vertex -0.958003 -2.03586 31.5
      vertex -0.695288 -2.13988 31.5
      vertex -0.695288 -2.13988 23
    endloop
  endfacet
  facet normal 0.368124 -0.929777 0
    outer loop
      vertex -0.958003 2.03586 0
      vertex -0.695288 2.13988 0
      vertex -0.695288 2.13988 21.5
    endloop
  endfacet
  facet normal 0.368124 -0.929777 0
    outer loop
      vertex -0.958003 2.03586 0
      vertex -0.695288 2.13988 21.5
      vertex -0.958003 2.03586 21.5
    endloop
  endfacet
  facet normal 0.368124 -0.929777 0
    outer loop
      vertex -0.958003 2.03586 23
      vertex -0.695288 2.13988 23
      vertex -0.695288 2.13988 31.5
    endloop
  endfacet
  facet normal 0.368124 -0.929777 0
    outer loop
      vertex -0.958003 2.03586 23
      vertex -0.695288 2.13988 31.5
      vertex -0.958003 2.03586 31.5
    endloop
  endfacet
  facet normal 0.481752 0.876307 0
    outer loop
      vertex -1.20561 -1.89974 0
      vertex -1.20561 -1.89974 21.5
      vertex -0.958003 -2.03586 0
    endloop
  endfacet
  facet normal 0.481752 0.876307 -0
    outer loop
      vertex -1.20561 -1.89974 21.5
      vertex -0.958003 -2.03586 21.5
      vertex -0.958003 -2.03586 0
    endloop
  endfacet
  facet normal 0.481752 0.876307 0
    outer loop
      vertex -1.20561 -1.89974 23
      vertex -1.20561 -1.89974 31.5
      vertex -0.958003 -2.03586 23
    endloop
  endfacet
  facet normal 0.481752 0.876307 -0
    outer loop
      vertex -1.20561 -1.89974 31.5
      vertex -0.958003 -2.03586 31.5
      vertex -0.958003 -2.03586 23
    endloop
  endfacet
  facet normal 0.481752 -0.876307 0
    outer loop
      vertex -1.20561 1.89974 0
      vertex -0.958003 2.03586 0
      vertex -0.958003 2.03586 21.5
    endloop
  endfacet
  facet normal 0.481752 -0.876307 0
    outer loop
      vertex -1.20561 1.89974 0
      vertex -0.958003 2.03586 21.5
      vertex -1.20561 1.89974 21.5
    endloop
  endfacet
  facet normal 0.481752 -0.876307 0
    outer loop
      vertex -1.20561 1.89974 23
      vertex -0.958003 2.03586 23
      vertex -0.958003 2.03586 31.5
    endloop
  endfacet
  facet normal 0.481752 -0.876307 0
    outer loop
      vertex -1.20561 1.89974 23
      vertex -0.958003 2.03586 31.5
      vertex -1.20561 1.89974 31.5
    endloop
  endfacet
  facet normal 0.587787 0.809015 0
    outer loop
      vertex -1.4342 -1.73365 0
      vertex -1.4342 -1.73365 21.5
      vertex -1.20561 -1.89974 0
    endloop
  endfacet
  facet normal 0.587787 0.809015 -0
    outer loop
      vertex -1.4342 -1.73365 21.5
      vertex -1.20561 -1.89974 21.5
      vertex -1.20561 -1.89974 0
    endloop
  endfacet
  facet normal 0.587787 0.809015 0
    outer loop
      vertex -1.4342 -1.73365 23
      vertex -1.4342 -1.73365 31.5
      vertex -1.20561 -1.89974 23
    endloop
  endfacet
  facet normal 0.587787 0.809015 -0
    outer loop
      vertex -1.4342 -1.73365 31.5
      vertex -1.20561 -1.89974 31.5
      vertex -1.20561 -1.89974 23
    endloop
  endfacet
  facet normal 0.587787 -0.809015 0
    outer loop
      vertex -1.4342 1.73365 0
      vertex -1.20561 1.89974 0
      vertex -1.20561 1.89974 21.5
    endloop
  endfacet
  facet normal 0.587787 -0.809015 0
    outer loop
      vertex -1.4342 1.73365 0
      vertex -1.20561 1.89974 21.5
      vertex -1.4342 1.73365 21.5
    endloop
  endfacet
  facet normal 0.587787 -0.809015 0
    outer loop
      vertex -1.4342 1.73365 23
      vertex -1.20561 1.89974 23
      vertex -1.20561 1.89974 31.5
    endloop
  endfacet
  facet normal 0.587787 -0.809015 0
    outer loop
      vertex -1.4342 1.73365 23
      vertex -1.20561 1.89974 31.5
      vertex -1.4342 1.73365 31.5
    endloop
  endfacet
  facet normal 0.684546 0.72897 0
    outer loop
      vertex -1.64018 -1.54023 0
      vertex -1.64018 -1.54023 21.5
      vertex -1.4342 -1.73365 0
    endloop
  endfacet
  facet normal 0.684546 0.72897 -0
    outer loop
      vertex -1.64018 -1.54023 21.5
      vertex -1.4342 -1.73365 21.5
      vertex -1.4342 -1.73365 0
    endloop
  endfacet
  facet normal 0.684546 0.72897 0
    outer loop
      vertex -1.64018 -1.54023 23
      vertex -1.64018 -1.54023 31.5
      vertex -1.4342 -1.73365 23
    endloop
  endfacet
  facet normal 0.684546 0.72897 -0
    outer loop
      vertex -1.64018 -1.54023 31.5
      vertex -1.4342 -1.73365 31.5
      vertex -1.4342 -1.73365 23
    endloop
  endfacet
  facet normal 0.684546 -0.72897 0
    outer loop
      vertex -1.64018 1.54023 0
      vertex -1.4342 1.73365 0
      vertex -1.4342 1.73365 21.5
    endloop
  endfacet
  facet normal 0.684546 -0.72897 0
    outer loop
      vertex -1.64018 1.54023 0
      vertex -1.4342 1.73365 21.5
      vertex -1.64018 1.54023 21.5
    endloop
  endfacet
  facet normal 0.684546 -0.72897 0
    outer loop
      vertex -1.64018 1.54023 23
      vertex -1.4342 1.73365 23
      vertex -1.4342 1.73365 31.5
    endloop
  endfacet
  facet normal 0.684546 -0.72897 0
    outer loop
      vertex -1.64018 1.54023 23
      vertex -1.4342 1.73365 31.5
      vertex -1.64018 1.54023 31.5
    endloop
  endfacet
  facet normal 0.770513 0.637424 0
    outer loop
      vertex -1.82029 -1.32252 0
      vertex -1.64018 -1.54023 21.5
      vertex -1.64018 -1.54023 0
    endloop
  endfacet
  facet normal 0.770513 0.637424 0
    outer loop
      vertex -1.82029 -1.32252 0
      vertex -1.82029 -1.32252 21.5
      vertex -1.64018 -1.54023 21.5
    endloop
  endfacet
  facet normal 0.770513 0.637424 0
    outer loop
      vertex -1.82029 -1.32252 23
      vertex -1.64018 -1.54023 31.5
      vertex -1.64018 -1.54023 23
    endloop
  endfacet
  facet normal 0.770513 0.637424 0
    outer loop
      vertex -1.82029 -1.32252 23
      vertex -1.82029 -1.32252 31.5
      vertex -1.64018 -1.54023 31.5
    endloop
  endfacet
  facet normal 0.770513 -0.637424 0
    outer loop
      vertex -1.82029 1.32252 0
      vertex -1.64018 1.54023 0
      vertex -1.82029 1.32252 21.5
    endloop
  endfacet
  facet normal 0.770513 -0.637424 0
    outer loop
      vertex -1.82029 1.32252 21.5
      vertex -1.64018 1.54023 0
      vertex -1.64018 1.54023 21.5
    endloop
  endfacet
  facet normal 0.770513 -0.637424 0
    outer loop
      vertex -1.82029 1.32252 23
      vertex -1.64018 1.54023 23
      vertex -1.82029 1.32252 31.5
    endloop
  endfacet
  facet normal 0.770513 -0.637424 0
    outer loop
      vertex -1.82029 1.32252 31.5
      vertex -1.64018 1.54023 23
      vertex -1.64018 1.54023 31.5
    endloop
  endfacet
  facet normal 0.844328 0.535826 0
    outer loop
      vertex -1.97169 -1.08395 0
      vertex -1.82029 -1.32252 21.5
      vertex -1.82029 -1.32252 0
    endloop
  endfacet
  facet normal 0.844328 0.535826 0
    outer loop
      vertex -1.97169 -1.08395 0
      vertex -1.97169 -1.08395 21.5
      vertex -1.82029 -1.32252 21.5
    endloop
  endfacet
  facet normal 0.844328 0.535826 0
    outer loop
      vertex -1.97169 -1.08395 23
      vertex -1.82029 -1.32252 31.5
      vertex -1.82029 -1.32252 23
    endloop
  endfacet
  facet normal 0.844328 0.535826 0
    outer loop
      vertex -1.97169 -1.08395 23
      vertex -1.97169 -1.08395 31.5
      vertex -1.82029 -1.32252 31.5
    endloop
  endfacet
  facet normal 0.844328 -0.535826 0
    outer loop
      vertex -1.97169 1.08395 0
      vertex -1.82029 1.32252 0
      vertex -1.97169 1.08395 21.5
    endloop
  endfacet
  facet normal 0.844328 -0.535826 0
    outer loop
      vertex -1.97169 1.08395 21.5
      vertex -1.82029 1.32252 0
      vertex -1.82029 1.32252 21.5
    endloop
  endfacet
  facet normal 0.844328 -0.535826 0
    outer loop
      vertex -1.97169 1.08395 23
      vertex -1.82029 1.32252 23
      vertex -1.97169 1.08395 31.5
    endloop
  endfacet
  facet normal 0.844328 -0.535826 0
    outer loop
      vertex -1.97169 1.08395 31.5
      vertex -1.82029 1.32252 23
      vertex -1.82029 1.32252 31.5
    endloop
  endfacet
  facet normal 0 0 -1
    outer loop
      vertex -15 -10 0
      vertex -0.141278 -2.24556 0
      vertex 15 -10 0
    endloop
  endfacet
  facet normal -0 0 -1
    outer loop
      vertex -15 -10 0
      vertex -0.421607 -2.21015 0
      vertex -0.141278 -2.24556 0
    endloop
  endfacet
  facet normal -0 0 -1
    outer loop
      vertex -15 -10 0
      vertex -0.695288 -2.13988 0
      vertex -0.421607 -2.21015 0
    endloop
  endfacet
  facet normal -0 0 -1
    outer loop
      vertex -15 -10 0
      vertex -0.958003 -2.03586 0
      vertex -0.695288 -2.13988 0
    endloop
  endfacet
  facet normal -0 0 -1
    outer loop
      vertex -15 -10 0
      vertex -1.20561 -1.89974 0
      vertex -0.958003 -2.03586 0
    endloop
  endfacet
  facet normal -0 0 -1
    outer loop
      vertex -15 -10 0
      vertex -1.4342 -1.73365 0
      vertex -1.20561 -1.89974 0
    endloop
  endfacet
  facet normal -0 0 -1
    outer loop
      vertex -15 -10 0
      vertex -1.64018 -1.54023 0
      vertex -1.4342 -1.73365 0
    endloop
  endfacet
  facet normal -0 0 -1
    outer loop
      vertex -15 -10 0
      vertex -1.82029 -1.32252 0
      vertex -1.64018 -1.54023 0
    endloop
  endfacet
  facet normal -0 0 -1
    outer loop
      vertex -15 -10 0
      vertex -1.97169 -1.08395 0
      vertex -1.82029 -1.32252 0
    endloop
  endfacet
  facet normal -1 -0 0
    outer loop
      vertex -15 -10 0
      vertex -15 -10 31.5
      vertex -15 10 31.5
    endloop
  endfacet
  facet normal 0 0 -1
    outer loop
      vertex -15 -10 0
      vertex -15 10 0
      vertex -2.25 0 0
    endloop
  endfacet
  facet normal -1 0 0
    outer loop
      vertex -15 -10 0
      vertex -15 10 31.5
      vertex -15 10 0
    endloop
  endfacet
  facet normal -0 0 -1
    outer loop
      vertex -15 -10 0
      vertex -2.092 -0.828279 0
      vertex -1.97169 -1.08395 0
    endloop
  endfacet
  facet normal -0 0 -1
    outer loop
      vertex -15 -10 0
      vertex -2.17931 -0.559552 0
      vertex -2.092 -0.828279 0
    endloop
  endfacet
  facet normal -0 0 -1
    outer loop
      vertex -15 -10 0
      vertex -2.23226 -0.282 0
      vertex -2.17931 -0.559552 0
    endloop
  endfacet
  facet normal -0 0 -1
    outer loop
      vertex -15 -10 0
      vertex -2.25 0 0
      vertex -2.23226 -0.282 0
    endloop
  endfacet
  facet normal 0 -1 0
    outer loop
      vertex -15 -10 0
      vertex -4.75 -10 21.5
      vertex -15 -10 31.5
    endloop
  endfacet
  facet normal 0 -1 0
    outer loop
      vertex -15 -10 0
      vertex 15 -10 0
      vertex -4.75 -10 21.5
    endloop
  endfacet
  facet normal 0 0 1
    outer loop
      vertex -15 -10 31.5
      vertex -0.141278 -2.24556 31.5
      vertex -0.421607 -2.21015 31.5
    endloop
  endfacet
  facet normal 0 0 1
    outer loop
      vertex -15 -10 31.5
      vertex -0.421607 -2.21015 31.5
      vertex -0.695288 -2.13988 31.5
    endloop
  endfacet
  facet normal 0 0 1
    outer loop
      vertex -15 -10 31.5
      vertex -0.695288 -2.13988 31.5
      vertex -0.958003 -2.03586 31.5
    endloop
  endfacet
  facet normal 0 0 1
    outer loop
      vertex -15 -10 31.5
      vertex -0.958003 -2.03586 31.5
      vertex -1.20561 -1.89974 31.5
    endloop
  endfacet
  facet normal 0 0 1
    outer loop
      vertex -15 -10 31.5
      vertex -1.20561 -1.89974 31.5
      vertex -1.4342 -1.73365 31.5
    endloop
  endfacet
  facet normal 0 0 1
    outer loop
      vertex -15 -10 31.5
      vertex -1.4342 -1.73365 31.5
      vertex -1.64018 -1.54023 31.5
    endloop
  endfacet
  facet normal 0 0 1
    outer loop
      vertex -15 -10 31.5
      vertex -1.64018 -1.54023 31.5
      vertex -1.82029 -1.32252 31.5
    endloop
  endfacet
  facet normal 0 0 1
    outer loop
      vertex -15 -10 31.5
      vertex -1.82029 -1.32252 31.5
      vertex -1.97169 -1.08395 31.5
    endloop
  endfacet
  facet normal 0 0 1
    outer loop
      vertex -15 -10 31.5
      vertex -1.97169 -1.08395 31.5
      vertex -2.092 -0.828279 31.5
    endloop
  endfacet
  facet normal 0 0 1
    outer loop
      vertex -15 -10 31.5
      vertex -2.092 -0.828279 31.5
      vertex -2.17931 -0.559552 31.5
    endloop
  endfacet
  facet normal 0 0 1
    outer loop
      vertex -15 -10 31.5
      vertex -2.17931 -0.559552 31.5
      vertex -2.23226 -0.282 31.5
    endloop
  endfacet
  facet normal 0 0 1
    outer loop
      vertex -15 -10 31.5
      vertex -2.23226 -0.282 31.5
      vertex -2.25 0 31.5
    endloop
  endfacet
  facet normal 0 0 1
    outer loop
      vertex -15 -10 31.5
      vertex -2.25 0 31.5
      vertex -15 10 31.5
    endloop
  endfacet
  facet normal 0 -1 0
    outer loop
      vertex -15 -10 31.5
      vertex -4.75 -10 21.5
      vertex -4.75 -10 23
    endloop
  endfacet
  facet normal 0 -1 0
    outer loop
      vertex -15 -10 31.5
      vertex -4.75 -10 23
      vertex 15 -10 31.5
    endloop
  endfacet
  facet normal 0 0 1
    outer loop
      vertex -15 -10 31.5
      vertex 15 -10 31.5
      vertex -0.141278 -2.24556 31.5
    endloop
  endfacet
  facet normal 0 0 -1
    outer loop
      vertex -15 10 0
      vertex -0.141278 2.24556 0
      vertex -0.421607 2.21015 0
    endloop
  endfacet
  facet normal 0 0 -1
    outer loop
      vertex -15 10 0
      vertex -0.421607 2.21015 0
      vertex -0.695288 2.13988 0
    endloop
  endfacet
  facet normal 0 0 -1
    outer loop
      vertex -15 10 0
      vertex -0.695288 2.13988 0
      vertex -0.958003 2.03586 0
    endloop
  endfacet
  facet normal 0 0 -1
    outer loop
      vertex -15 10 0
      vertex -0.958003 2.03586 0
      vertex -1.20561 1.89974 0
    endloop
  endfacet
  facet normal 0 0 -1
    outer loop
      vertex -15 10 0
      vertex -1.20561 1.89974 0
      vertex -1.4342 1.73365 0
    endloop
  endfacet
  facet normal 0 0 -1
    outer loop
      vertex -15 10 0
      vertex -1.4342 1.73365 0
      vertex -1.64018 1.54023 0
    endloop
  endfacet
  facet normal 0 0 -1
    outer loop
      vertex -15 10 0
      vertex -1.64018 1.54023 0
      vertex -1.82029 1.32252 0
    endloop
  endfacet
  facet normal 0 0 -1
    outer loop
      vertex -15 10 0
      vertex -1.82029 1.32252 0
      vertex -1.97169 1.08395 0
    endloop
  endfacet
  facet normal 0 0 -1
    outer loop
      vertex -15 10 0
      vertex -1.97169 1.08395 0
      vertex -2.092 0.828279 0
    endloop
  endfacet
  facet normal 0 1 0
    outer loop
      vertex -15 10 0
      vertex -15 10 31.5
      vertex -4.75 10 21.5
    endloop
  endfacet
  facet normal 0 0 -1
    outer loop
      vertex -15 10 0
      vertex -2.092 0.828279 0
      vertex -2.17931 0.559552 0
    endloop
  endfacet
  facet normal 0 0 -1
    outer loop
      vertex -15 10 0
      vertex -2.17931 0.559552 0
      vertex -2.23226 0.282 0
    endloop
  endfacet
  facet normal 0 0 -1
    outer loop
      vertex -15 10 0
      vertex -2.23226 0.282 0
      vertex -2.25 0 0
    endloop
  endfacet
  facet normal 0 1 0
    outer loop
      vertex -15 10 0
      vertex -4.75 10 21.5
      vertex 15 10 0
    endloop
  endfacet
  facet normal 0 0 -1
    outer loop
      vertex -15 10 0
      vertex 15 10 0
      vertex -0.141278 2.24556 0
    endloop
  endfacet
  facet normal -0 0 1
    outer loop
      vertex -15 10 31.5
      vertex -0.141278 2.24556 31.5
      vertex 15 10 31.5
    endloop
  endfacet
  facet normal 0 0 1
    outer loop
      vertex -15 10 31.5
      vertex -0.421607 2.21015 31.5
      vertex -0.141278 2.24556 31.5
    endloop
  endfacet
  facet normal 0 0 1
    outer loop
      vertex -15 10 31.5
      vertex -0.695288 2.13988 31.5
      vertex -0.421607 2.21015 31.5
    endloop
  endfacet
  facet normal 0 0 1
    outer loop
      vertex -15 10 31.5
      vertex -0.958003 2.03586 31.5
      vertex -0.695288 2.13988 31.5
    endloop
  endfacet
  facet normal 0 0 1
    outer loop
      vertex -15 10 31.5
      vertex -1.20561 1.89974 31.5
      vertex -0.958003 2.03586 31.5
    endloop
  endfacet
  facet normal 0 0 1
    outer loop
      vertex -15 10 31.5
      vertex -1.4342 1.73365 31.5
      vertex -1.20561 1.89974 31.5
    endloop
  endfacet
  facet normal 0 0 1
    outer loop
      vertex -15 10 31.5
      vertex -1.64018 1.54023 31.5
      vertex -1.4342 1.73365 31.5
    endloop
  endfacet
  facet normal 0 0 1
    outer loop
      vertex -15 10 31.5
      vertex -1.82029 1.32252 31.5
      vertex -1.64018 1.54023 31.5
    endloop
  endfacet
  facet normal 0 0 1
    outer loop
      vertex -15 10 31.5
      vertex -1.97169 1.08395 31.5
      vertex -1.82029 1.32252 31.5
    endloop
  endfacet
  facet normal 0 0 1
    outer loop
      vertex -15 10 31.5
      vertex -2.092 0.828279 31.5
      vertex -1.97169 1.08395 31.5
    endloop
  endfacet
  facet normal 0 0 1
    outer loop
      vertex -15 10 31.5
      vertex -2.17931 0.559552 31.5
      vertex -2.092 0.828279 31.5
    endloop
  endfacet
  facet normal 0 0 1
    outer loop
      vertex -15 10 31.5
      vertex -2.23226 0.282 31.5
      vertex -2.17931 0.559552 31.5
    endloop
  endfacet
  facet normal 0 0 1
    outer loop
      vertex -15 10 31.5
      vertex -2.25 0 31.5
      vertex -2.23226 0.282 31.5
    endloop
  endfacet
  facet normal 0 1 -0
    outer loop
      vertex -15 10 31.5
      vertex -4.75 10 23
      vertex -4.75 10 21.5
    endloop
  endfacet
  facet normal 0 1 0
    outer loop
      vertex -15 10 31.5
      vertex 15 10 31.5
      vertex -4.75 10 23
    endloop
  endfacet
  facet normal 0.904827 0.425779 0
    outer loop
      vertex -2.092 -0.828279 0
      vertex -1.97169 -1.08395 21.5
      vertex -1.97169 -1.08395 0
    endloop
  endfacet
  facet normal 0.904827 0.425779 0
    outer loop
      vertex -2.092 -0.828279 0
      vertex -2.092 -0.828279 21.5
      vertex -1.97169 -1.08395 21.5
    endloop
  endfacet
  facet normal 0.904827 0.425779 0
    outer loop
      vertex -2.092 -0.828279 23
      vertex -1.97169 -1.08395 31.5
      vertex -1.97169 -1.08395 23
    endloop
  endfacet
  facet normal 0.904827 0.425779 0
    outer loop
      vertex -2.092 -0.828279 23
      vertex -2.092 -0.828279 31.5
      vertex -1.97169 -1.08395 31.5
    endloop
  endfacet
  facet normal 0.904827 -0.425779 0
    outer loop
      vertex -2.092 0.828279 0
      vertex -1.97169 1.08395 0
      vertex -2.092 0.828279 21.5
    endloop
  endfacet
  facet normal 0.904827 -0.425779 0
    outer loop
      vertex -2.092 0.828279 21.5
      vertex -1.97169 1.08395 0
      vertex -1.97169 1.08395 21.5
    endloop
  endfacet
  facet normal 0.904827 -0.425779 0
    outer loop
      vertex -2.092 0.828279 23
      vertex -1.97169 1.08395 23
      vertex -2.092 0.828279 31.5
    endloop
  endfacet
  facet normal 0.904827 -0.425779 0
    outer loop
      vertex -2.092 0.828279 31.5
      vertex -1.97169 1.08395 23
      vertex -1.97169 1.08395 31.5
    endloop
  endfacet
  facet normal 0.951056 0.309019 0
    outer loop
      vertex -2.17931 -0.559552 0
      vertex -2.092 -0.828279 21.5
      vertex -2.092 -0.828279 0
    endloop
  endfacet
  facet normal 0.951056 0.309019 0
    outer loop
      vertex -2.17931 -0.559552 0
      vertex -2.17931 -0.559552 21.5
      vertex -2.092 -0.828279 21.5
    endloop
  endfacet
  facet normal 0.951056 0.309019 0
    outer loop
      vertex -2.17931 -0.559552 23
      vertex -2.092 -0.828279 31.5
      vertex -2.092 -0.828279 23
    endloop
  endfacet
  facet normal 0.951056 0.309019 0
    outer loop
      vertex -2.17931 -0.559552 23
      vertex -2.17931 -0.559552 31.5
      vertex -2.092 -0.828279 31.5
    endloop
  endfacet
  facet normal 0.951056 -0.309019 0
    outer loop
      vertex -2.17931 0.559552 0
      vertex -2.092 0.828279 0
      vertex -2.17931 0.559552 21.5
    endloop
  endfacet
  facet normal 0.951056 -0.309019 0
    outer loop
      vertex -2.17931 0.559552 21.5
      vertex -2.092 0.828279 0
      vertex -2.092 0.828279 21.5
    endloop
  endfacet
  facet normal 0.951056 -0.309019 0
    outer loop
      vertex -2.17931 0.559552 23
      vertex -2.092 0.828279 23
      vertex -2.17931 0.559552 31.5
    endloop
  endfacet
  facet normal 0.951056 -0.309019 0
    outer loop
      vertex -2.17931 0.559552 31.5
      vertex -2.092 0.828279 23
      vertex -2.092 0.828279 31.5
    endloop
  endfacet
  facet normal 0.982287 0.187382 0
    outer loop
      vertex -2.23226 -0.282 0
      vertex -2.17931 -0.559552 21.5
      vertex -2.17931 -0.559552 0
    endloop
  endfacet
  facet normal 0.982287 0.187382 0
    outer loop
      vertex -2.23226 -0.282 0
      vertex -2.23226 -0.282 21.5
      vertex -2.17931 -0.559552 21.5
    endloop
  endfacet
  facet normal 0.982287 0.187382 0
    outer loop
      vertex -2.23226 -0.282 23
      vertex -2.17931 -0.559552 31.5
      vertex -2.17931 -0.559552 23
    endloop
  endfacet
  facet normal 0.982287 0.187382 0
    outer loop
      vertex -2.23226 -0.282 23
      vertex -2.23226 -0.282 31.5
      vertex -2.17931 -0.559552 31.5
    endloop
  endfacet
  facet normal 0.982287 -0.187382 0
    outer loop
      vertex -2.23226 0.282 0
      vertex -2.17931 0.559552 0
      vertex -2.23226 0.282 21.5
    endloop
  endfacet
  facet normal 0.982287 -0.187382 0
    outer loop
      vertex -2.23226 0.282 21.5
      vertex -2.17931 0.559552 0
      vertex -2.17931 0.559552 21.5
    endloop
  endfacet
  facet normal 0.982287 -0.187382 0
    outer loop
      vertex -2.23226 0.282 23
      vertex -2.17931 0.559552 23
      vertex -2.23226 0.282 31.5
    endloop
  endfacet
  facet normal 0.982287 -0.187382 0
    outer loop
      vertex -2.23226 0.282 31.5
      vertex -2.17931 0.559552 23
      vertex -2.17931 0.559552 31.5
    endloop
  endfacet
  facet normal 0.998027 0.0627914 0
    outer loop
      vertex -2.25 0 0
      vertex -2.23226 -0.282 21.5
      vertex -2.23226 -0.282 0
    endloop
  endfacet
  facet normal 0.998027 -0.0627914 0
    outer loop
      vertex -2.25 0 0
      vertex -2.23226 0.282 0
      vertex -2.25 0 21.5
    endloop
  endfacet
  facet normal 0.998027 0.0627914 0
    outer loop
      vertex -2.25 0 0
      vertex -2.25 0 21.5
      vertex -2.23226 -0.282 21.5
    endloop
  endfacet
  facet normal 0.998027 -0.0627914 0
    outer loop
      vertex -2.25 0 21.5
      vertex -2.23226 0.282 0
      vertex -2.23226 0.282 21.5
    endloop
  endfacet
  facet normal 0.998027 0.0627914 0
    outer loop
      vertex -2.25 0 23
      vertex -2.23226 -0.282 31.5
      vertex -2.23226 -0.282 23
    endloop
  endfacet
  facet normal 0.998027 -0.0627914 0
    outer loop
      vertex -2.25 0 23
      vertex -2.23226 0.282 23
      vertex -2.25 0 31.5
    endloop
  endfacet
  facet normal 0.998027 0.0627914 0
    outer loop
      vertex -2.25 0 23
      vertex -2.25 0 31.5
      vertex -2.23226 -0.282 31.5
    endloop
  endfacet
  facet normal 0.998027 -0.0627914 0
    outer loop
      vertex -2.25 0 31.5
      vertex -2.23226 0.282 23
      vertex -2.23226 0.282 31.5
    endloop
  endfacet
  facet normal 0 0 1
    outer loop
      vertex -4.75 -10 21.5
      vertex -0.141278 -2.24556 21.5
      vertex -0.421607 -2.21015 21.5
    endloop
  endfacet
  facet normal 0 0 1
    outer loop
      vertex -4.75 -10 21.5
      vertex -0.421607 -2.21015 21.5
      vertex -0.695288 -2.13988 21.5
    endloop
  endfacet
  facet normal 0 0 1
    outer loop
      vertex -4.75 -10 21.5
      vertex -0.695288 -2.13988 21.5
      vertex -0.958003 -2.03586 21.5
    endloop
  endfacet
  facet normal 0 0 1
    outer loop
      vertex -4.75 -10 21.5
      vertex -0.958003 -2.03586 21.5
      vertex -1.20561 -1.89974 21.5
    endloop
  endfacet
  facet normal 0 0 1
    outer loop
      vertex -4.75 -10 21.5
      vertex -1.20561 -1.89974 21.5
      vertex -1.4342 -1.73365 21.5
    endloop
  endfacet
  facet normal 0 0 1
    outer loop
      vertex -4.75 -10 21.5
      vertex -1.4342 -1.73365 21.5
      vertex -1.64018 -1.54023 21.5
    endloop
  endfacet
  facet normal 0 0 1
    outer loop
      vertex -4.75 -10 21.5
      vertex -1.64018 -1.54023 21.5
      vertex -1.82029 -1.32252 21.5
    endloop
  endfacet
  facet normal 0 0 1
    outer loop
      vertex -4.75 -10 21.5
      vertex -1.82029 -1.32252 21.5
      vertex -1.97169 -1.08395 21.5
    endloop
  endfacet
  facet normal 0 0 1
    outer loop
      vertex -4.75 -10 21.5
      vertex -1.97169 -1.08395 21.5
      vertex -2.092 -0.828279 21.5
    endloop
  endfacet
  facet normal 0 0 1
    outer loop
      vertex -4.75 -10 21.5
      vertex -2.092 -0.828279 21.5
      vertex -2.17931 -0.559552 21.5
    endloop
  endfacet
  facet normal 0 0 1
    outer loop
      vertex -4.75 -10 21.5
      vertex -2.17931 -0.559552 21.5
      vertex -2.23226 -0.282 21.5
    endloop
  endfacet
  facet normal 0 0 1
    outer loop
      vertex -4.75 -10 21.5
      vertex -2.23226 -0.282 21.5
      vertex -2.25 0 21.5
    endloop
  endfacet
  facet normal 0 0 1
    outer loop
      vertex -4.75 -10 21.5
      vertex -2.25 0 21.5
      vertex -4.75 10 21.5
    endloop
  endfacet
  facet normal 1 0 0
    outer loop
      vertex -4.75 -10 21.5
      vertex -4.75 10 21.5
      vertex -4.75 -10 23
    endloop
  endfacet
  facet normal 0 0 1
    outer loop
      vertex -4.75 -10 21.5
      vertex 0.141278 -2.24556 21.5
      vertex -0.141278 -2.24556 21.5
    endloop
  endfacet
  facet normal 0 0 1
    outer loop
      vertex -4.75 -10 21.5
      vertex 0.421607 -2.21015 21.5
      vertex 0.141278 -2.24556 21.5
    endloop
  endfacet
  facet normal 0 0 1
    outer loop
      vertex -4.75 -10 21.5
      vertex 0.695288 -2.13988 21.5
      vertex 0.421607 -2.21015 21.5
    endloop
  endfacet
  facet normal 0 0 1
    outer loop
      vertex -4.75 -10 21.5
      vertex 0.958003 -2.03586 21.5
      vertex 0.695288 -2.13988 21.5
    endloop
  endfacet
  facet normal 0 -1 0
    outer loop
      vertex -4.75 -10 21.5
      vertex 15 -10 0
      vertex 15 -10 21.5
    endloop
  endfacet
  facet normal 0 0 1
    outer loop
      vertex -4.75 -10 21.5
      vertex 15 -10 21.5
      vertex 0.958003 -2.03586 21.5
    endloop
  endfacet
  facet normal -0 0 -1
    outer loop
      vertex -4.75 -10 23
      vertex -0.141278 -2.24556 23
      vertex 0.141278 -2.24556 23
    endloop
  endfacet
  facet normal -0 0 -1
    outer loop
      vertex -4.75 -10 23
      vertex -0.421607 -2.21015 23
      vertex -0.141278 -2.24556 23
    endloop
  endfacet
  facet normal -0 0 -1
    outer loop
      vertex -4.75 -10 23
      vertex -0.695288 -2.13988 23
      vertex -0.421607 -2.21015 23
    endloop
  endfacet
  facet normal -0 0 -1
    outer loop
      vertex -4.75 -10 23
      vertex -0.958003 -2.03586 23
      vertex -0.695288 -2.13988 23
    endloop
  endfacet
  facet normal -0 0 -1
    outer loop
      vertex -4.75 -10 23
      vertex -1.20561 -1.89974 23
      vertex -0.958003 -2.03586 23
    endloop
  endfacet
  facet normal -0 0 -1
    outer loop
      vertex -4.75 -10 23
      vertex -1.4342 -1.73365 23
      vertex -1.20561 -1.89974 23
    endloop
  endfacet
  facet normal -0 0 -1
    outer loop
      vertex -4.75 -10 23
      vertex -1.64018 -1.54023 23
      vertex -1.4342 -1.73365 23
    endloop
  endfacet
  facet normal -0 0 -1
    outer loop
      vertex -4.75 -10 23
      vertex -1.82029 -1.32252 23
      vertex -1.64018 -1.54023 23
    endloop
  endfacet
  facet normal -0 0 -1
    outer loop
      vertex -4.75 -10 23
      vertex -1.97169 -1.08395 23
      vertex -1.82029 -1.32252 23
    endloop
  endfacet
  facet normal -0 0 -1
    outer loop
      vertex -4.75 -10 23
      vertex -2.092 -0.828279 23
      vertex -1.97169 -1.08395 23
    endloop
  endfacet
  facet normal -0 0 -1
    outer loop
      vertex -4.75 -10 23
      vertex -2.17931 -0.559552 23
      vertex -2.092 -0.828279 23
    endloop
  endfacet
  facet normal -0 0 -1
    outer loop
      vertex -4.75 -10 23
      vertex -2.23226 -0.282 23
      vertex -2.17931 -0.559552 23
    endloop
  endfacet
  facet normal -0 0 -1
    outer loop
      vertex -4.75 -10 23
      vertex -2.25 0 23
      vertex -2.23226 -0.282 23
    endloop
  endfacet
  facet normal 1 -0 0
    outer loop
      vertex -4.75 -10 23
      vertex -4.75 10 21.5
      vertex -4.75 10 23
    endloop
  endfacet
  facet normal 0 0 -1
    outer loop
      vertex -4.75 -10 23
      vertex -4.75 10 23
      vertex -2.25 0 23
    endloop
  endfacet
  facet normal 0 0 -1
    outer loop
      vertex -4.75 -10 23
      vertex 0.141278 -2.24556 23
      vertex 0.421607 -2.21015 23
    endloop
  endfacet
  facet normal 0 0 -1
    outer loop
      vertex -4.75 -10 23
      vertex 0.421607 -2.21015 23
      vertex 0.695288 -2.13988 23
    endloop
  endfacet
  facet normal 0 0 -1
    outer loop
      vertex -4.75 -10 23
      vertex 0.695288 -2.13988 23
      vertex 0.958003 -2.03586 23
    endloop
  endfacet
  facet normal 0 0 -1
    outer loop
      vertex -4.75 -10 23
      vertex 0.958003 -2.03586 23
      vertex 15 -10 23
    endloop
  endfacet
  facet normal 0 -1 -0
    outer loop
      vertex -4.75 -10 23
      vertex 15 -10 23
      vertex 15 -10 31.5
    endloop
  endfacet
  facet normal 0 0 1
    outer loop
      vertex -4.75 10 21.5
      vertex -0.141278 2.24556 21.5
      vertex 0.141278 2.24556 21.5
    endloop
  endfacet
  facet normal 0 0 1
    outer loop
      vertex -4.75 10 21.5
      vertex -0.421607 2.21015 21.5
      vertex -0.141278 2.24556 21.5
    endloop
  endfacet
  facet normal 0 0 1
    outer loop
      vertex -4.75 10 21.5
      vertex -0.695288 2.13988 21.5
      vertex -0.421607 2.21015 21.5
    endloop
  endfacet
  facet normal 0 0 1
    outer loop
      vertex -4.75 10 21.5
      vertex -0.958003 2.03586 21.5
      vertex -0.695288 2.13988 21.5
    endloop
  endfacet
  facet normal 0 0 1
    outer loop
      vertex -4.75 10 21.5
      vertex -1.20561 1.89974 21.5
      vertex -0.958003 2.03586 21.5
    endloop
  endfacet
  facet normal 0 0 1
    outer loop
      vertex -4.75 10 21.5
      vertex -1.4342 1.73365 21.5
      vertex -1.20561 1.89974 21.5
    endloop
  endfacet
  facet normal 0 0 1
    outer loop
      vertex -4.75 10 21.5
      vertex -1.64018 1.54023 21.5
      vertex -1.4342 1.73365 21.5
    endloop
  endfacet
  facet normal 0 0 1
    outer loop
      vertex -4.75 10 21.5
      vertex -1.82029 1.32252 21.5
      vertex -1.64018 1.54023 21.5
    endloop
  endfacet
  facet normal 0 0 1
    outer loop
      vertex -4.75 10 21.5
      vertex -1.97169 1.08395 21.5
      vertex -1.82029 1.32252 21.5
    endloop
  endfacet
  facet normal 0 0 1
    outer loop
      vertex -4.75 10 21.5
      vertex -2.092 0.828279 21.5
      vertex -1.97169 1.08395 21.5
    endloop
  endfacet
  facet normal 0 0 1
    outer loop
      vertex -4.75 10 21.5
      vertex -2.17931 0.559552 21.5
      vertex -2.092 0.828279 21.5
    endloop
  endfacet
  facet normal 0 0 1
    outer loop
      vertex -4.75 10 21.5
      vertex -2.23226 0.282 21.5
      vertex -2.17931 0.559552 21.5
    endloop
  endfacet
  facet normal 0 0 1
    outer loop
      vertex -4.75 10 21.5
      vertex -2.25 0 21.5
      vertex -2.23226 0.282 21.5
    endloop
  endfacet
  facet normal 0 0 1
    outer loop
      vertex -4.75 10 21.5
      vertex 0.141278 2.24556 21.5
      vertex 0.421607 2.21015 21.5
    endloop
  endfacet
  facet normal 0 0 1
    outer loop
      vertex -4.75 10 21.5
      vertex 0.421607 2.21015 21.5
      vertex 0.695288 2.13988 21.5
    endloop
  endfacet
  facet normal 0 0 1
    outer loop
      vertex -4.75 10 21.5
      vertex 0.695288 2.13988 21.5
      vertex 0.958003 2.03586 21.5
    endloop
  endfacet
  facet normal -0 0 1
    outer loop
      vertex -4.75 10 21.5
      vertex 0.958003 2.03586 21.5
      vertex 15 10 21.5
    endloop
  endfacet
  facet normal 0 1 0
    outer loop
      vertex -4.75 10 21.5
      vertex 15 10 21.5
      vertex 15 10 0
    endloop
  endfacet
  facet normal 0 0 -1
    outer loop
      vertex -4.75 10 23
      vertex -0.141278 2.24556 23
      vertex -0.421607 2.21015 23
    endloop
  endfacet
  facet normal 0 0 -1
    outer loop
      vertex -4.75 10 23
      vertex -0.421607 2.21015 23
      vertex -0.695288 2.13988 23
    endloop
  endfacet
  facet normal 0 0 -1
    outer loop
      vertex -4.75 10 23
      vertex -0.695288 2.13988 23
      vertex -0.958003 2.03586 23
    endloop
  endfacet
  facet normal 0 0 -1
    outer loop
      vertex -4.75 10 23
      vertex -0.958003 2.03586 23
      vertex -1.20561 1.89974 23
    endloop
  endfacet
  facet normal 0 0 -1
    outer loop
      vertex -4.75 10 23
      vertex -1.20561 1.89974 23
      vertex -1.4342 1.73365 23
    endloop
  endfacet
  facet normal 0 0 -1
    outer loop
      vertex -4.75 10 23
      vertex -1.4342 1.73365 23
      vertex -1.64018 1.54023 23
    endloop
  endfacet
  facet normal 0 0 -1
    outer loop
      vertex -4.75 10 23
      vertex -1.64018 1.54023 23
      vertex -1.82029 1.32252 23
    endloop
  endfacet
  facet normal 0 0 -1
    outer loop
      vertex -4.75 10 23
      vertex -1.82029 1.32252 23
      vertex -1.97169 1.08395 23
    endloop
  endfacet
  facet normal 0 0 -1
    outer loop
      vertex -4.75 10 23
      vertex -1.97169 1.08395 23
      vertex -2.092 0.828279 23
    endloop
  endfacet
  facet normal 0 0 -1
    outer loop
      vertex -4.75 10 23
      vertex -2.092 0.828279 23
      vertex -2.17931 0.559552 23
    endloop
  endfacet
  facet normal 0 0 -1
    outer loop
      vertex -4.75 10 23
      vertex -2.17931 0.559552 23
      vertex -2.23226 0.282 23
    endloop
  endfacet
  facet normal 0 0 -1
    outer loop
      vertex -4.75 10 23
      vertex -2.23226 0.282 23
      vertex -2.25 0 23
    endloop
  endfacet
  facet normal 0 0 -1
    outer loop
      vertex -4.75 10 23
      vertex 0.141278 2.24556 23
      vertex -0.141278 2.24556 23
    endloop
  endfacet
  facet normal 0 0 -1
    outer loop
      vertex -4.75 10 23
      vertex 0.421607 2.21015 23
      vertex 0.141278 2.24556 23
    endloop
  endfacet
  facet normal 0 0 -1
    outer loop
      vertex -4.75 10 23
      vertex 0.695288 2.13988 23
      vertex 0.421607 2.21015 23
    endloop
  endfacet
  facet normal 0 0 -1
    outer loop
      vertex -4.75 10 23
      vertex 0.958003 2.03586 23
      vertex 0.695288 2.13988 23
    endloop
  endfacet
  facet normal 0 0 -1
    outer loop
      vertex -4.75 10 23
      vertex 15 10 23
      vertex 0.958003 2.03586 23
    endloop
  endfacet
  facet normal 0 1 0
    outer loop
      vertex -4.75 10 23
      vertex 15 10 31.5
      vertex 15 10 23
    endloop
  endfacet
  facet normal -0.125333 0.992115 0
    outer loop
      vertex 0.141278 -2.24556 0
      vertex 0.141278 -2.24556 21.5
      vertex 0.421607 -2.21015 0
    endloop
  endfacet
  facet normal 0 0 -1
    outer loop
      vertex 0.141278 -2.24556 0
      vertex 0.421607 -2.21015 0
      vertex 15 -10 0
    endloop
  endfacet
  facet normal -0.125333 0.992115 0
    outer loop
      vertex 0.141278 -2.24556 21.5
      vertex 0.421607 -2.21015 21.5
      vertex 0.421607 -2.21015 0
    endloop
  endfacet
  facet normal -0.125333 0.992115 0
    outer loop
      vertex 0.141278 -2.24556 23
      vertex 0.141278 -2.24556 31.5
      vertex 0.421607 -2.21015 23
    endloop
  endfacet
  facet normal -0.125333 0.992115 0
    outer loop
      vertex 0.141278 -2.24556 31.5
      vertex 0.421607 -2.21015 31.5
      vertex 0.421607 -2.21015 23
    endloop
  endfacet
  facet normal -0 0 1
    outer loop
      vertex 0.141278 -2.24556 31.5
      vertex 15 -10 31.5
      vertex 0.421607 -2.21015 31.5
    endloop
  endfacet
  facet normal -0.125333 -0.992115 -0
    outer loop
      vertex 0.141278 2.24556 0
      vertex 0.421607 2.21015 0
      vertex 0.421607 2.21015 21.5
    endloop
  endfacet
  facet normal -0.125333 -0.992115 0
    outer loop
      vertex 0.141278 2.24556 0
      vertex 0.421607 2.21015 21.5
      vertex 0.141278 2.24556 21.5
    endloop
  endfacet
  facet normal 0 0 -1
    outer loop
      vertex 0.141278 2.24556 0
      vertex 15 10 0
      vertex 0.421607 2.21015 0
    endloop
  endfacet
  facet normal -0.125333 -0.992115 -0
    outer loop
      vertex 0.141278 2.24556 23
      vertex 0.421607 2.21015 23
      vertex 0.421607 2.21015 31.5
    endloop
  endfacet
  facet normal -0.125333 -0.992115 0
    outer loop
      vertex 0.141278 2.24556 23
      vertex 0.421607 2.21015 31.5
      vertex 0.141278 2.24556 31.5
    endloop
  endfacet
  facet normal 0 0 1
    outer loop
      vertex 0.141278 2.24556 31.5
      vertex 0.421607 2.21015 31.5
      vertex 15 10 31.5
    endloop
  endfacet
  facet normal -0.248691 0.968583 0
    outer loop
      vertex 0.421607 -2.21015 0
      vertex 0.421607 -2.21015 21.5
      vertex 0.695288 -2.13988 0
    endloop
  endfacet
  facet normal 0 0 -1
    outer loop
      vertex 0.421607 -2.21015 0
      vertex 0.695288 -2.13988 0
      vertex 15 -10 0
    endloop
  endfacet
  facet normal -0.248691 0.968583 0
    outer loop
      vertex 0.421607 -2.21015 21.5
      vertex 0.695288 -2.13988 21.5
      vertex 0.695288 -2.13988 0
    endloop
  endfacet
  facet normal -0.248691 0.968583 0
    outer loop
      vertex 0.421607 -2.21015 23
      vertex 0.421607 -2.21015 31.5
      vertex 0.695288 -2.13988 23
    endloop
  endfacet
  facet normal -0.248691 0.968583 0
    outer loop
      vertex 0.421607 -2.21015 31.5
      vertex 0.695288 -2.13988 31.5
      vertex 0.695288 -2.13988 23
    endloop
  endfacet
  facet normal -0 0 1
    outer loop
      vertex 0.421607 -2.21015 31.5
      vertex 15 -10 31.5
      vertex 0.695288 -2.13988 31.5
    endloop
  endfacet
  facet normal -0.248691 -0.968583 -0
    outer loop
      vertex 0.421607 2.21015 0
      vertex 0.695288 2.13988 0
      vertex 0.695288 2.13988 21.5
    endloop
  endfacet
  facet normal -0.248691 -0.968583 0
    outer loop
      vertex 0.421607 2.21015 0
      vertex 0.695288 2.13988 21.5
      vertex 0.421607 2.21015 21.5
    endloop
  endfacet
  facet normal 0 0 -1
    outer loop
      vertex 0.421607 2.21015 0
      vertex 15 10 0
      vertex 0.695288 2.13988 0
    endloop
  endfacet
  facet normal -0.248691 -0.968583 -0
    outer loop
      vertex 0.421607 2.21015 23
      vertex 0.695288 2.13988 23
      vertex 0.695288 2.13988 31.5
    endloop
  endfacet
  facet normal -0.248691 -0.968583 0
    outer loop
      vertex 0.421607 2.21015 23
      vertex 0.695288 2.13988 31.5
      vertex 0.421607 2.21015 31.5
    endloop
  endfacet
  facet normal 0 0 1
    outer loop
      vertex 0.421607 2.21015 31.5
      vertex 0.695288 2.13988 31.5
      vertex 15 10 31.5
    endloop
  endfacet
  facet normal -0.368124 0.929777 0
    outer loop
      vertex 0.695288 -2.13988 0
      vertex 0.695288 -2.13988 21.5
      vertex 0.958003 -2.03586 0
    endloop
  endfacet
  facet normal 0 0 -1
    outer loop
      vertex 0.695288 -2.13988 0
      vertex 0.958003 -2.03586 0
      vertex 15 -10 0
    endloop
  endfacet
  facet normal -0.368124 0.929777 0
    outer loop
      vertex 0.695288 -2.13988 21.5
      vertex 0.958003 -2.03586 21.5
      vertex 0.958003 -2.03586 0
    endloop
  endfacet
  facet normal -0.368124 0.929777 0
    outer loop
      vertex 0.695288 -2.13988 23
      vertex 0.695288 -2.13988 31.5
      vertex 0.958003 -2.03586 23
    endloop
  endfacet
  facet normal -0.368124 0.929777 0
    outer loop
      vertex 0.695288 -2.13988 31.5
      vertex 0.958003 -2.03586 31.5
      vertex 0.958003 -2.03586 23
    endloop
  endfacet
  facet normal -0 0 1
    outer loop
      vertex 0.695288 -2.13988 31.5
      vertex 15 -10 31.5
      vertex 0.958003 -2.03586 31.5
    endloop
  endfacet
  facet normal -0.368124 -0.929777 -0
    outer loop
      vertex 0.695288 2.13988 0
      vertex 0.958003 2.03586 0
      vertex 0.958003 2.03586 21.5
    endloop
  endfacet
  facet normal -0.368124 -0.929777 0
    outer loop
      vertex 0.695288 2.13988 0
      vertex 0.958003 2.03586 21.5
      vertex 0.695288 2.13988 21.5
    endloop
  endfacet
  facet normal 0 0 -1
    outer loop
      vertex 0.695288 2.13988 0
      vertex 15 10 0
      vertex 0.958003 2.03586 0
    endloop
  endfacet
  facet normal -0.368124 -0.929777 -0
    outer loop
      vertex 0.695288 2.13988 23
      vertex 0.958003 2.03586 23
      vertex 0.958003 2.03586 31.5
    endloop
  endfacet
  facet normal -0.368124 -0.929777 0
    outer loop
      vertex 0.695288 2.13988 23
      vertex 0.958003 2.03586 31.5
      vertex 0.695288 2.13988 31.5
    endloop
  endfacet
  facet normal 0 0 1
    outer loop
      vertex 0.695288 2.13988 31.5
      vertex 0.958003 2.03586 31.5
      vertex 15 10 31.5
    endloop
  endfacet
  facet normal -0.481752 0.876307 0
    outer loop
      vertex 0.958003 -2.03586 0
      vertex 0.958003 -2.03586 21.5
      vertex 1.20561 -1.89974 0
    endloop
  endfacet
  facet normal 0 0 -1
    outer loop
      vertex 0.958003 -2.03586 0
      vertex 1.20561 -1.89974 0
      vertex 15 -10 0
    endloop
  endfacet
  facet normal -0.481752 0.876307 0
    outer loop
      vertex 0.958003 -2.03586 21.5
      vertex 1.20561 -1.89974 21.5
      vertex 1.20561 -1.89974 0
    endloop
  endfacet
  facet normal -0 0 1
    outer loop
      vertex 0.958003 -2.03586 21.5
      vertex 15 -10 21.5
      vertex 1.20561 -1.89974 21.5
    endloop
  endfacet
  facet normal -0.481752 0.876307 0
    outer loop
      vertex 0.958003 -2.03586 23
      vertex 0.958003 -2.03586 31.5
      vertex 1.20561 -1.89974 23
    endloop
  endfacet
  facet normal 0 0 -1
    outer loop
      vertex 0.958003 -2.03586 23
      vertex 1.20561 -1.89974 23
      vertex 15 -10 23
    endloop
  endfacet
  facet normal -0.481752 0.876307 0
    outer loop
      vertex 0.958003 -2.03586 31.5
      vertex 1.20561 -1.89974 31.5
      vertex 1.20561 -1.89974 23
    endloop
  endfacet
  facet normal -0 0 1
    outer loop
      vertex 0.958003 -2.03586 31.5
      vertex 15 -10 31.5
      vertex 1.20561 -1.89974 31.5
    endloop
  endfacet
  facet normal -0.481752 -0.876307 -0
    outer loop
      vertex 0.958003 2.03586 0
      vertex 1.20561 1.89974 0
      vertex 1.20561 1.89974 21.5
    endloop
  endfacet
  facet normal -0.481752 -0.876307 0
    outer loop
      vertex 0.958003 2.03586 0
      vertex 1.20561 1.89974 21.5
      vertex 0.958003 2.03586 21.5
    endloop
  endfacet
  facet normal 0 0 -1
    outer loop
      vertex 0.958003 2.03586 0
      vertex 15 10 0
      vertex 1.20561 1.89974 0
    endloop
  endfacet
  facet normal 0 0 1
    outer loop
      vertex 0.958003 2.03586 21.5
      vertex 1.20561 1.89974 21.5
      vertex 15 10 21.5
    endloop
  endfacet
  facet normal -0.481752 -0.876307 -0
    outer loop
      vertex 0.958003 2.03586 23
      vertex 1.20561 1.89974 23
      vertex 1.20561 1.89974 31.5
    endloop
  endfacet
  facet normal -0.481752 -0.876307 0
    outer loop
      vertex 0.958003 2.03586 23
      vertex 1.20561 1.89974 31.5
      vertex 0.958003 2.03586 31.5
    endloop
  endfacet
  facet normal 0 0 -1
    outer loop
      vertex 0.958003 2.03586 23
      vertex 15 10 23
      vertex 1.20561 1.89974 23
    endloop
  endfacet
  facet normal 0 0 1
    outer loop
      vertex 0.958003 2.03586 31.5
      vertex 1.20561 1.89974 31.5
      vertex 15 10 31.5
    endloop
  endfacet
  facet normal -0.587787 0.809015 0
    outer loop
      vertex 1.20561 -1.89974 0
      vertex 1.20561 -1.89974 21.5
      vertex 1.4342 -1.73365 0
    endloop
  endfacet
  facet normal 0 0 -1
    outer loop
      vertex 1.20561 -1.89974 0
      vertex 1.4342 -1.73365 0
      vertex 15 -10 0
    endloop
  endfacet
  facet normal -0.587787 0.809015 0
    outer loop
      vertex 1.20561 -1.89974 21.5
      vertex 1.4342 -1.73365 21.5
      vertex 1.4342 -1.73365 0
    endloop
  endfacet
  facet normal -0 0 1
    outer loop
      vertex 1.20561 -1.89974 21.5
      vertex 15 -10 21.5
      vertex 1.4342 -1.73365 21.5
    endloop
  endfacet
  facet normal -0.587787 0.809015 0
    outer loop
      vertex 1.20561 -1.89974 23
      vertex 1.20561 -1.89974 31.5
      vertex 1.4342 -1.73365 23
    endloop
  endfacet
  facet normal 0 0 -1
    outer loop
      vertex 1.20561 -1.89974 23
      vertex 1.4342 -1.73365 23
      vertex 15 -10 23
    endloop
  endfacet
  facet normal -0.587787 0.809015 0
    outer loop
      vertex 1.20561 -1.89974 31.5
      vertex 1.4342 -1.73365 31.5
      vertex 1.4342 -1.73365 23
    endloop
  endfacet
  facet normal -0 0 1
    outer loop
      vertex 1.20561 -1.89974 31.5
      vertex 15 -10 31.5
      vertex 1.4342 -1.73365 31.5
    endloop
  endfacet
  facet normal -0.587787 -0.809015 -0
    outer loop
      vertex 1.20561 1.89974 0
      vertex 1.4342 1.73365 0
      vertex 1.4342 1.73365 21.5
    endloop
  endfacet
  facet normal -0.587787 -0.809015 0
    outer loop
      vertex 1.20561 1.89974 0
      vertex 1.4342 1.73365 21.5
      vertex 1.20561 1.89974 21.5
    endloop
  endfacet
  facet normal 0 0 -1
    outer loop
      vertex 1.20561 1.89974 0
      vertex 15 10 0
      vertex 1.4342 1.73365 0
    endloop
  endfacet
  facet normal 0 0 1
    outer loop
      vertex 1.20561 1.89974 21.5
      vertex 1.4342 1.73365 21.5
      vertex 15 10 21.5
    endloop
  endfacet
  facet normal -0.587787 -0.809015 -0
    outer loop
      vertex 1.20561 1.89974 23
      vertex 1.4342 1.73365 23
      vertex 1.4342 1.73365 31.5
    endloop
  endfacet
  facet normal -0.587787 -0.809015 0
    outer loop
      vertex 1.20561 1.89974 23
      vertex 1.4342 1.73365 31.5
      vertex 1.20561 1.89974 31.5
    endloop
  endfacet
  facet normal 0 0 -1
    outer loop
      vertex 1.20561 1.89974 23
      vertex 15 10 23
      vertex 1.4342 1.73365 23
    endloop
  endfacet
  facet normal 0 0 1
    outer loop
      vertex 1.20561 1.89974 31.5
      vertex 1.4342 1.73365 31.5
      vertex 15 10 31.5
    endloop
  endfacet
  facet normal -0.684546 0.72897 0
    outer loop
      vertex 1.4342 -1.73365 0
      vertex 1.4342 -1.73365 21.5
      vertex 1.64018 -1.54023 0
    endloop
  endfacet
  facet normal 0 0 -1
    outer loop
      vertex 1.4342 -1.73365 0
      vertex 1.64018 -1.54023 0
      vertex 15 -10 0
    endloop
  endfacet
  facet normal -0.684546 0.72897 0
    outer loop
      vertex 1.4342 -1.73365 21.5
      vertex 1.64018 -1.54023 21.5
      vertex 1.64018 -1.54023 0
    endloop
  endfacet
  facet normal -0 0 1
    outer loop
      vertex 1.4342 -1.73365 21.5
      vertex 15 -10 21.5
      vertex 1.64018 -1.54023 21.5
    endloop
  endfacet
  facet normal -0.684546 0.72897 0
    outer loop
      vertex 1.4342 -1.73365 23
      vertex 1.4342 -1.73365 31.5
      vertex 1.64018 -1.54023 23
    endloop
  endfacet
  facet normal 0 0 -1
    outer loop
      vertex 1.4342 -1.73365 23
      vertex 1.64018 -1.54023 23
      vertex 15 -10 23
    endloop
  endfacet
  facet normal -0.684546 0.72897 0
    outer loop
      vertex 1.4342 -1.73365 31.5
      vertex 1.64018 -1.54023 31.5
      vertex 1.64018 -1.54023 23
    endloop
  endfacet
  facet normal -0 0 1
    outer loop
      vertex 1.4342 -1.73365 31.5
      vertex 15 -10 31.5
      vertex 1.64018 -1.54023 31.5
    endloop
  endfacet
  facet normal -0.684546 -0.72897 -0
    outer loop
      vertex 1.4342 1.73365 0
      vertex 1.64018 1.54023 0
      vertex 1.64018 1.54023 21.5
    endloop
  endfacet
  facet normal -0.684546 -0.72897 0
    outer loop
      vertex 1.4342 1.73365 0
      vertex 1.64018 1.54023 21.5
      vertex 1.4342 1.73365 21.5
    endloop
  endfacet
  facet normal 0 0 -1
    outer loop
      vertex 1.4342 1.73365 0
      vertex 15 10 0
      vertex 1.64018 1.54023 0
    endloop
  endfacet
  facet normal 0 0 1
    outer loop
      vertex 1.4342 1.73365 21.5
      vertex 1.64018 1.54023 21.5
      vertex 15 10 21.5
    endloop
  endfacet
  facet normal -0.684546 -0.72897 -0
    outer loop
      vertex 1.4342 1.73365 23
      vertex 1.64018 1.54023 23
      vertex 1.64018 1.54023 31.5
    endloop
  endfacet
  facet normal -0.684546 -0.72897 0
    outer loop
      vertex 1.4342 1.73365 23
      vertex 1.64018 1.54023 31.5
      vertex 1.4342 1.73365 31.5
    endloop
  endfacet
  facet normal 0 0 -1
    outer loop
      vertex 1.4342 1.73365 23
      vertex 15 10 23
      vertex 1.64018 1.54023 23
    endloop
  endfacet
  facet normal 0 0 1
    outer loop
      vertex 1.4342 1.73365 31.5
      vertex 1.64018 1.54023 31.5
      vertex 15 10 31.5
    endloop
  endfacet
  facet normal -0.770513 0.637424 0
    outer loop
      vertex 1.64018 -1.54023 0
      vertex 1.64018 -1.54023 21.5
      vertex 1.82029 -1.32252 21.5
    endloop
  endfacet
  facet normal 0 0 -1
    outer loop
      vertex 1.64018 -1.54023 0
      vertex 1.82029 -1.32252 0
      vertex 15 -10 0
    endloop
  endfacet
  facet normal -0.770513 0.637424 0
    outer loop
      vertex 1.64018 -1.54023 0
      vertex 1.82029 -1.32252 21.5
      vertex 1.82029 -1.32252 0
    endloop
  endfacet
  facet normal -0 0 1
    outer loop
      vertex 1.64018 -1.54023 21.5
      vertex 15 -10 21.5
      vertex 1.82029 -1.32252 21.5
    endloop
  endfacet
  facet normal -0.770513 0.637424 0
    outer loop
      vertex 1.64018 -1.54023 23
      vertex 1.64018 -1.54023 31.5
      vertex 1.82029 -1.32252 31.5
    endloop
  endfacet
  facet normal 0 0 -1
    outer loop
      vertex 1.64018 -1.54023 23
      vertex 1.82029 -1.32252 23
      vertex 15 -10 23
    endloop
  endfacet
  facet normal -0.770513 0.637424 0
    outer loop
      vertex 1.64018 -1.54023 23
      vertex 1.82029 -1.32252 31.5
      vertex 1.82029 -1.32252 23
    endloop
  endfacet
  facet normal -0 0 1
    outer loop
      vertex 1.64018 -1.54023 31.5
      vertex 15 -10 31.5
      vertex 1.82029 -1.32252 31.5
    endloop
  endfacet
  facet normal -0.770513 -0.637424 0
    outer loop
      vertex 1.64018 1.54023 0
      vertex 1.82029 1.32252 0
      vertex 1.64018 1.54023 21.5
    endloop
  endfacet
  facet normal 0 0 -1
    outer loop
      vertex 1.64018 1.54023 0
      vertex 15 10 0
      vertex 1.82029 1.32252 0
    endloop
  endfacet
  facet normal -0.770513 -0.637424 0
    outer loop
      vertex 1.64018 1.54023 21.5
      vertex 1.82029 1.32252 0
      vertex 1.82029 1.32252 21.5
    endloop
  endfacet
  facet normal 0 0 1
    outer loop
      vertex 1.64018 1.54023 21.5
      vertex 1.82029 1.32252 21.5
      vertex 15 10 21.5
    endloop
  endfacet
  facet normal -0.770513 -0.637424 0
    outer loop
      vertex 1.64018 1.54023 23
      vertex 1.82029 1.32252 23
      vertex 1.64018 1.54023 31.5
    endloop
  endfacet
  facet normal 0 0 -1
    outer loop
      vertex 1.64018 1.54023 23
      vertex 15 10 23
      vertex 1.82029 1.32252 23
    endloop
  endfacet
  facet normal -0.770513 -0.637424 0
    outer loop
      vertex 1.64018 1.54023 31.5
      vertex 1.82029 1.32252 23
      vertex 1.82029 1.32252 31.5
    endloop
  endfacet
  facet normal 0 0 1
    outer loop
      vertex 1.64018 1.54023 31.5
      vertex 1.82029 1.32252 31.5
      vertex 15 10 31.5
    endloop
  endfacet
  facet normal -0.844328 0.535826 0
    outer loop
      vertex 1.82029 -1.32252 0
      vertex 1.82029 -1.32252 21.5
      vertex 1.97169 -1.08395 21.5
    endloop
  endfacet
  facet normal 0 0 -1
    outer loop
      vertex 1.82029 -1.32252 0
      vertex 1.97169 -1.08395 0
      vertex 15 -10 0
    endloop
  endfacet
  facet normal -0.844328 0.535826 0
    outer loop
      vertex 1.82029 -1.32252 0
      vertex 1.97169 -1.08395 21.5
      vertex 1.97169 -1.08395 0
    endloop
  endfacet
  facet normal -0 0 1
    outer loop
      vertex 1.82029 -1.32252 21.5
      vertex 15 -10 21.5
      vertex 1.97169 -1.08395 21.5
    endloop
  endfacet
  facet normal -0.844328 0.535826 0
    outer loop
      vertex 1.82029 -1.32252 23
      vertex 1.82029 -1.32252 31.5
      vertex 1.97169 -1.08395 31.5
    endloop
  endfacet
  facet normal 0 0 -1
    outer loop
      vertex 1.82029 -1.32252 23
      vertex 1.97169 -1.08395 23
      vertex 15 -10 23
    endloop
  endfacet
  facet normal -0.844328 0.535826 0
    outer loop
      vertex 1.82029 -1.32252 23
      vertex 1.97169 -1.08395 31.5
      vertex 1.97169 -1.08395 23
    endloop
  endfacet
  facet normal -0 0 1
    outer loop
      vertex 1.82029 -1.32252 31.5
      vertex 15 -10 31.5
      vertex 1.97169 -1.08395 31.5
    endloop
  endfacet
  facet normal -0.844328 -0.535826 0
    outer loop
      vertex 1.82029 1.32252 0
      vertex 1.97169 1.08395 0
      vertex 1.82029 1.32252 21.5
    endloop
  endfacet
  facet normal 0 0 -1
    outer loop
      vertex 1.82029 1.32252 0
      vertex 15 10 0
      vertex 1.97169 1.08395 0
    endloop
  endfacet
  facet normal -0.844328 -0.535826 0
    outer loop
      vertex 1.82029 1.32252 21.5
      vertex 1.97169 1.08395 0
      vertex 1.97169 1.08395 21.5
    endloop
  endfacet
  facet normal 0 0 1
    outer loop
      vertex 1.82029 1.32252 21.5
      vertex 1.97169 1.08395 21.5
      vertex 15 10 21.5
    endloop
  endfacet
  facet normal -0.844328 -0.535826 0
    outer loop
      vertex 1.82029 1.32252 23
      vertex 1.97169 1.08395 23
      vertex 1.82029 1.32252 31.5
    endloop
  endfacet
  facet normal 0 0 -1
    outer loop
      vertex 1.82029 1.32252 23
      vertex 15 10 23
      vertex 1.97169 1.08395 23
    endloop
  endfacet
  facet normal -0.844328 -0.535826 0
    outer loop
      vertex 1.82029 1.32252 31.5
      vertex 1.97169 1.08395 23
      vertex 1.97169 1.08395 31.5
    endloop
  endfacet
  facet normal 0 0 1
    outer loop
      vertex 1.82029 1.32252 31.5
      vertex 1.97169 1.08395 31.5
      vertex 15 10 31.5
    endloop
  endfacet
  facet normal -0.904827 0.425779 0
    outer loop
      vertex 1.97169 -1.08395 0
      vertex 1.97169 -1.08395 21.5
      vertex 2.092 -0.828279 21.5
    endloop
  endfacet
  facet normal 0 0 -1
    outer loop
      vertex 1.97169 -1.08395 0
      vertex 2.092 -0.828279 0
      vertex 15 -10 0
    endloop
  endfacet
  facet normal -0.904827 0.425779 0
    outer loop
      vertex 1.97169 -1.08395 0
      vertex 2.092 -0.828279 21.5
      vertex 2.092 -0.828279 0
    endloop
  endfacet
  facet normal -0 0 1
    outer loop
      vertex 1.97169 -1.08395 21.5
      vertex 15 -10 21.5
      vertex 2.092 -0.828279 21.5
    endloop
  endfacet
  facet normal -0.904827 0.425779 0
    outer loop
      vertex 1.97169 -1.08395 23
      vertex 1.97169 -1.08395 31.5
      vertex 2.092 -0.828279 31.5
    endloop
  endfacet
  facet normal 0 0 -1
    outer loop
      vertex 1.97169 -1.08395 23
      vertex 2.092 -0.828279 23
      vertex 15 -10 23
    endloop
  endfacet
  facet normal -0.904827 0.425779 0
    outer loop
      vertex 1.97169 -1.08395 23
      vertex 2.092 -0.828279 31.5
      vertex 2.092 -0.828279 23
    endloop
  endfacet
  facet normal -0 0 1
    outer loop
      vertex 1.97169 -1.08395 31.5
      vertex 15 -10 31.5
      vertex 2.092 -0.828279 31.5
    endloop
  endfacet
  facet normal 0 0 -1
    outer loop
      vertex 1.97169 1.08395 0
      vertex 15 10 0
      vertex 2.092 0.828279 0
    endloop
  endfacet
  facet normal -0.904827 -0.425779 0
    outer loop
      vertex 1.97169 1.08395 0
      vertex 2.092 0.828279 0
      vertex 1.97169 1.08395 21.5
    endloop
  endfacet
  facet normal -0.904827 -0.425779 0
    outer loop
      vertex 1.97169 1.08395 21.5
      vertex 2.092 0.828279 0
      vertex 2.092 0.828279 21.5
    endloop
  endfacet
  facet normal 0 0 1
    outer loop
      vertex 1.97169 1.08395 21.5
      vertex 2.092 0.828279 21.5
      vertex 15 10 21.5
    endloop
  endfacet
  facet normal 0 0 -1
    outer loop
      vertex 1.97169 1.08395 23
      vertex 15 10 23
      vertex 2.092 0.828279 23
    endloop
  endfacet
  facet normal -0.904827 -0.425779 0
    outer loop
      vertex 1.97169 1.08395 23
      vertex 2.092 0.828279 23
      vertex 1.97169 1.08395 31.5
    endloop
  endfacet
  facet normal -0.904827 -0.425779 0
    outer loop
      vertex 1.97169 1.08395 31.5
      vertex 2.092 0.828279 23
      vertex 2.092 0.828279 31.5
    endloop
  endfacet
  facet normal 0 0 1
    outer loop
      vertex 1.97169 1.08395 31.5
      vertex 2.092 0.828279 31.5
      vertex 15 10 31.5
    endloop
  endfacet
  facet normal 1 0 0
    outer loop
      vertex 15 -10 0
      vertex 15 10 0
      vertex 15 -10 21.5
    endloop
  endfacet
  facet normal 1 -0 0
    outer loop
      vertex 15 -10 21.5
      vertex 15 10 0
      vertex 15 10 21.5
    endloop
  endfacet
  facet normal 1 0 0
    outer loop
      vertex 15 -10 23
      vertex 15 10 23
      vertex 15 -10 31.5
    endloop
  endfacet
  facet normal 1 -0 0
    outer loop
      vertex 15 -10 31.5
      vertex 15 10 23
      vertex 15 10 31.5
    endloop
  endfacet
  facet normal -0.951056 0.309019 0
    outer loop
      vertex 2.092 -0.828279 0
      vertex 2.092 -0.828279 21.5
      vertex 2.17931 -0.559552 21.5
    endloop
  endfacet
  facet normal 0 0 -1
    outer loop
      vertex 2.092 -0.828279 0
      vertex 2.17931 -0.559552 0
      vertex 15 -10 0
    endloop
  endfacet
  facet normal -0.951056 0.309019 0
    outer loop
      vertex 2.092 -0.828279 0
      vertex 2.17931 -0.559552 21.5
      vertex 2.17931 -0.559552 0
    endloop
  endfacet
  facet normal -0 0 1
    outer loop
      vertex 2.092 -0.828279 21.5
      vertex 15 -10 21.5
      vertex 2.17931 -0.559552 21.5
    endloop
  endfacet
  facet normal -0.951056 0.309019 0
    outer loop
      vertex 2.092 -0.828279 23
      vertex 2.092 -0.828279 31.5
      vertex 2.17931 -0.559552 31.5
    endloop
  endfacet
  facet normal 0 0 -1
    outer loop
      vertex 2.092 -0.828279 23
      vertex 2.17931 -0.559552 23
      vertex 15 -10 23
    endloop
  endfacet
  facet normal -0.951056 0.309019 0
    outer loop
      vertex 2.092 -0.828279 23
      vertex 2.17931 -0.559552 31.5
      vertex 2.17931 -0.559552 23
    endloop
  endfacet
  facet normal -0 0 1
    outer loop
      vertex 2.092 -0.828279 31.5
      vertex 15 -10 31.5
      vertex 2.17931 -0.559552 31.5
    endloop
  endfacet
  facet normal 0 0 -1
    outer loop
      vertex 2.092 0.828279 0
      vertex 15 10 0
      vertex 2.17931 0.559552 0
    endloop
  endfacet
  facet normal -0.951056 -0.309019 0
    outer loop
      vertex 2.092 0.828279 0
      vertex 2.17931 0.559552 0
      vertex 2.092 0.828279 21.5
    endloop
  endfacet
  facet normal -0.951056 -0.309019 0
    outer loop
      vertex 2.092 0.828279 21.5
      vertex 2.17931 0.559552 0
      vertex 2.17931 0.559552 21.5
    endloop
  endfacet
  facet normal 0 0 1
    outer loop
      vertex 2.092 0.828279 21.5
      vertex 2.17931 0.559552 21.5
      vertex 15 10 21.5
    endloop
  endfacet
  facet normal 0 0 -1
    outer loop
      vertex 2.092 0.828279 23
      vertex 15 10 23
      vertex 2.17931 0.559552 23
    endloop
  endfacet
  facet normal -0.951056 -0.309019 0
    outer loop
      vertex 2.092 0.828279 23
      vertex 2.17931 0.559552 23
      vertex 2.092 0.828279 31.5
    endloop
  endfacet
  facet normal -0.951056 -0.309019 0
    outer loop
      vertex 2.092 0.828279 31.5
      vertex 2.17931 0.559552 23
      vertex 2.17931 0.559552 31.5
    endloop
  endfacet
  facet normal 0 0 1
    outer loop
      vertex 2.092 0.828279 31.5
      vertex 2.17931 0.559552 31.5
      vertex 15 10 31.5
    endloop
  endfacet
  facet normal -0.982287 0.187382 0
    outer loop
      vertex 2.17931 -0.559552 0
      vertex 2.17931 -0.559552 21.5
      vertex 2.23226 -0.282 21.5
    endloop
  endfacet
  facet normal 0 0 -1
    outer loop
      vertex 2.17931 -0.559552 0
      vertex 2.23226 -0.282 0
      vertex 15 -10 0
    endloop
  endfacet
  facet normal -0.982287 0.187382 0
    outer loop
      vertex 2.17931 -0.559552 0
      vertex 2.23226 -0.282 21.5
      vertex 2.23226 -0.282 0
    endloop
  endfacet
  facet normal -0 0 1
    outer loop
      vertex 2.17931 -0.559552 21.5
      vertex 15 -10 21.5
      vertex 2.23226 -0.282 21.5
    endloop
  endfacet
  facet normal -0.982287 0.187382 0
    outer loop
      vertex 2.17931 -0.559552 23
      vertex 2.17931 -0.559552 31.5
      vertex 2.23226 -0.282 31.5
    endloop
  endfacet
  facet normal 0 0 -1
    outer loop
      vertex 2.17931 -0.559552 23
      vertex 2.23226 -0.282 23
      vertex 15 -10 23
    endloop
  endfacet
  facet normal -0.982287 0.187382 0
    outer loop
      vertex 2.17931 -0.559552 23
      vertex 2.23226 -0.282 31.5
      vertex 2.23226 -0.282 23
    endloop
  endfacet
  facet normal -0 0 1
    outer loop
      vertex 2.17931 -0.559552 31.5
      vertex 15 -10 31.5
      vertex 2.23226 -0.282 31.5
    endloop
  endfacet
  facet normal 0 0 -1
    outer loop
      vertex 2.17931 0.559552 0
      vertex 15 10 0
      vertex 2.23226 0.282 0
    endloop
  endfacet
  facet normal -0.982287 -0.187382 0
    outer loop
      vertex 2.17931 0.559552 0
      vertex 2.23226 0.282 0
      vertex 2.17931 0.559552 21.5
    endloop
  endfacet
  facet normal -0.982287 -0.187382 0
    outer loop
      vertex 2.17931 0.559552 21.5
      vertex 2.23226 0.282 0
      vertex 2.23226 0.282 21.5
    endloop
  endfacet
  facet normal 0 0 1
    outer loop
      vertex 2.17931 0.559552 21.5
      vertex 2.23226 0.282 21.5
      vertex 15 10 21.5
    endloop
  endfacet
  facet normal 0 0 -1
    outer loop
      vertex 2.17931 0.559552 23
      vertex 15 10 23
      vertex 2.23226 0.282 23
    endloop
  endfacet
  facet normal -0.982287 -0.187382 0
    outer loop
      vertex 2.17931 0.559552 23
      vertex 2.23226 0.282 23
      vertex 2.17931 0.559552 31.5
    endloop
  endfacet
  facet normal -0.982287 -0.187382 0
    outer loop
      vertex 2.17931 0.559552 31.5
      vertex 2.23226 0.282 23
      vertex 2.23226 0.282 31.5
    endloop
  endfacet
  facet normal 0 0 1
    outer loop
      vertex 2.17931 0.559552 31.5
      vertex 2.23226 0.282 31.5
      vertex 15 10 31.5
    endloop
  endfacet
  facet normal -0.998027 0.0627914 0
    outer loop
      vertex 2.23226 -0.282 0
      vertex 2.23226 -0.282 21.5
      vertex 2.25 0 21.5
    endloop
  endfacet
  facet normal 0 0 -1
    outer loop
      vertex 2.23226 -0.282 0
      vertex 2.25 0 0
      vertex 15 -10 0
    endloop
  endfacet
  facet normal -0.998027 0.0627914 0
    outer loop
      vertex 2.23226 -0.282 0
      vertex 2.25 0 21.5
      vertex 2.25 0 0
    endloop
  endfacet
  facet normal -0 0 1
    outer loop
      vertex 2.23226 -0.282 21.5
      vertex 15 -10 21.5
      vertex 2.25 0 21.5
    endloop
  endfacet
  facet normal -0.998027 0.0627914 0
    outer loop
      vertex 2.23226 -0.282 23
      vertex 2.23226 -0.282 31.5
      vertex 2.25 0 31.5
    endloop
  endfacet
  facet normal 0 0 -1
    outer loop
      vertex 2.23226 -0.282 23
      vertex 2.25 0 23
      vertex 15 -10 23
    endloop
  endfacet
  facet normal -0.998027 0.0627914 0
    outer loop
      vertex 2.23226 -0.282 23
      vertex 2.25 0 31.5
      vertex 2.25 0 23
    endloop
  endfacet
  facet normal -0 0 1
    outer loop
      vertex 2.23226 -0.282 31.5
      vertex 15 -10 31.5
      vertex 2.25 0 31.5
    endloop
  endfacet
  facet normal 0 0 -1
    outer loop
      vertex 2.23226 0.282 0
      vertex 15 10 0
      vertex 2.25 0 0
    endloop
  endfacet
  facet normal -0.998027 -0.0627914 0
    outer loop
      vertex 2.23226 0.282 0
      vertex 2.25 0 0
      vertex 2.23226 0.282 21.5
    endloop
  endfacet
  facet normal -0.998027 -0.0627914 0
    outer loop
      vertex 2.23226 0.282 21.5
      vertex 2.25 0 0
      vertex 2.25 0 21.5
    endloop
  endfacet
  facet normal 0 0 1
    outer loop
      vertex 2.23226 0.282 21.5
      vertex 2.25 0 21.5
      vertex 15 10 21.5
    endloop
  endfacet
  facet normal 0 0 -1
    outer loop
      vertex 2.23226 0.282 23
      vertex 15 10 23
      vertex 2.25 0 23
    endloop
  endfacet
  facet normal -0.998027 -0.0627914 0
    outer loop
      vertex 2.23226 0.282 23
      vertex 2.25 0 23
      vertex 2.23226 0.282 31.5
    endloop
  endfacet
  facet normal -0.998027 -0.0627914 0
    outer loop
      vertex 2.23226 0.282 31.5
      vertex 2.25 0 23
      vertex 2.25 0 31.5
    endloop
  endfacet
  facet normal 0 0 1
    outer loop
      vertex 2.23226 0.282 31.5
      vertex 2.25 0 31.5
      vertex 15 10 31.5
    endloop
  endfacet
  facet normal 0 0 -1
    outer loop
      vertex 2.25 0 0
      vertex 15 10 0
      vertex 15 -10 0
    endloop
  endfacet
  facet normal 0 0 1
    outer loop
      vertex 2.25 0 21.5
      vertex 15 -10 21.5
      vertex 15 10 21.5
    endloop
  endfacet
  facet normal 0 0 -1
    outer loop
      vertex 2.25 0 23
      vertex 15 10 23
      vertex 15 -10 23
    endloop
  endfacet
  facet normal 0 0 1
    outer loop
      vertex 2.25 0 31.5
      vertex 15 -10 31.5
      vertex 15 10 31.5
    endloop
  endfacet
endsolid model
