solid model
  facet normal 0 0.0627636 0.998028
    outer loop
      vertex -38 -1.59173 -12.5999
      vertex 0 -1.59173 -12.5999
      vertex -38 0 -12.7
    endloop
  endfacet
  facet normal -0 0.187411 0.982282
    outer loop
      vertex -38 -1.59173 -12.5999
      vertex 0 -3.15836 -12.301
      vertex 0 -1.59173 -12.5999
    endloop
  endfacet
  facet normal 0 0.0627636 -0.998028
    outer loop
      vertex -38 -1.59173 12.5999
      vertex -38 0 12.7
      vertex 0 0 12.7
    endloop
  endfacet
  facet normal 0 0.0627636 -0.998028
    outer loop
      vertex -38 -1.59173 12.5999
      vertex 0 0 12.7
      vertex 0 -1.59173 12.5999
    endloop
  endfacet
  facet normal 0 0.809006 0.5878
    outer loop
      vertex -38 -10.723 -6.805
      vertex 0 -10.723 -6.805
      vertex 0 -9.78552 -8.09528
    endloop
  endfacet
  facet normal 0 0.809006 0.5878
    outer loop
      vertex -38 -10.723 -6.805
      vertex 0 -9.78552 -8.09528
      vertex -38 -9.78552 -8.09528
    endloop
  endfacet
  facet normal 0 0.809006 -0.5878
    outer loop
      vertex -38 -10.723 6.805
      vertex -38 -9.78552 8.09528
      vertex 0 -10.723 6.805
    endloop
  endfacet
  facet normal 0 0.876317 -0.481736
    outer loop
      vertex -38 -10.723 6.805
      vertex 0 -10.723 6.805
      vertex 0 -11.4913 5.4074
    endloop
  endfacet
  facet normal 0 0.876317 0.481736
    outer loop
      vertex -38 -11.4913 -5.4074
      vertex 0 -10.723 -6.805
      vertex -38 -10.723 -6.805
    endloop
  endfacet
  facet normal 0 0.876317 0.481736
    outer loop
      vertex -38 -11.4913 -5.4074
      vertex 0 -11.4913 -5.4074
      vertex 0 -10.723 -6.805
    endloop
  endfacet
  facet normal 0 0.876317 -0.481736
    outer loop
      vertex -38 -11.4913 5.4074
      vertex -38 -10.723 6.805
      vertex 0 -11.4913 5.4074
    endloop
  endfacet
  facet normal 0 0.929779 -0.368117
    outer loop
      vertex -38 -11.4913 5.4074
      vertex 0 -11.4913 5.4074
      vertex 0 -12.0784 3.92452
    endloop
  endfacet
  facet normal 0 0.929779 0.368117
    outer loop
      vertex -38 -12.0784 -3.92452
      vertex 0 -11.4913 -5.4074
      vertex -38 -11.4913 -5.4074
    endloop
  endfacet
  facet normal 0 0.929779 0.368117
    outer loop
      vertex -38 -12.0784 -3.92452
      vertex 0 -12.0784 -3.92452
      vertex 0 -11.4913 -5.4074
    endloop
  endfacet
  facet normal 0 0.929779 -0.368117
    outer loop
      vertex -38 -12.0784 3.92452
      vertex -38 -11.4913 5.4074
      vertex 0 -12.0784 3.92452
    endloop
  endfacet
  facet normal 0 0.968588 -0.248671
    outer loop
      vertex -38 -12.0784 3.92452
      vertex 0 -12.0784 3.92452
      vertex 0 -12.475 2.37974
    endloop
  endfacet
  facet normal 0 0.968588 0.248671
    outer loop
      vertex -38 -12.475 -2.37974
      vertex 0 -12.0784 -3.92452
      vertex -38 -12.0784 -3.92452
    endloop
  endfacet
  facet normal 0 0.968588 0.248671
    outer loop
      vertex -38 -12.475 -2.37974
      vertex 0 -12.475 -2.37974
      vertex 0 -12.0784 -3.92452
    endloop
  endfacet
  facet normal 0 0.968588 -0.248671
    outer loop
      vertex -38 -12.475 2.37974
      vertex -38 -12.0784 3.92452
      vertex 0 -12.475 2.37974
    endloop
  endfacet
  facet normal 0 0.992114 -0.125339
    outer loop
      vertex -38 -12.475 2.37974
      vertex 0 -12.475 2.37974
      vertex 0 -12.6749 0.79744
    endloop
  endfacet
  facet normal 0 1 0
    outer loop
      vertex -38 -12.6749 -0.79744
      vertex -38 -12.6749 0.79744
      vertex 0 -12.6749 -0.79744
    endloop
  endfacet
  facet normal 0 0.992114 0.125339
    outer loop
      vertex -38 -12.6749 -0.79744
      vertex 0 -12.475 -2.37974
      vertex -38 -12.475 -2.37974
    endloop
  endfacet
  facet normal 0 0.992114 0.125339
    outer loop
      vertex -38 -12.6749 -0.79744
      vertex 0 -12.6749 -0.79744
      vertex 0 -12.475 -2.37974
    endloop
  endfacet
  facet normal 0 0.992114 -0.125339
    outer loop
      vertex -38 -12.6749 0.79744
      vertex -38 -12.475 2.37974
      vertex 0 -12.6749 0.79744
    endloop
  endfacet
  facet normal 0 1 -0
    outer loop
      vertex -38 -12.6749 0.79744
      vertex 0 -12.6749 0.79744
      vertex 0 -12.6749 -0.79744
    endloop
  endfacet
  facet normal -1 -0 0
    outer loop
      vertex -38 -19.05 -19.05
      vertex -38 -1.59173 -12.5999
      vertex -38 0 -12.7
    endloop
  endfacet
  facet normal -1 -0 0
    outer loop
      vertex -38 -19.05 -19.05
      vertex -38 -10.723 -6.805
      vertex -38 -9.78552 -8.09528
    endloop
  endfacet
  facet normal -1 -0 0
    outer loop
      vertex -38 -19.05 -19.05
      vertex -38 -11.4913 -5.4074
      vertex -38 -10.723 -6.805
    endloop
  endfacet
  facet normal -1 -0 0
    outer loop
      vertex -38 -19.05 -19.05
      vertex -38 -12.0784 -3.92452
      vertex -38 -11.4913 -5.4074
    endloop
  endfacet
  facet normal -1 -0 0
    outer loop
      vertex -38 -19.05 -19.05
      vertex -38 -12.475 -2.37974
      vertex -38 -12.0784 -3.92452
    endloop
  endfacet
  facet normal -1 0 0
    outer loop
      vertex -38 -19.05 -19.05
      vertex -38 -12.475 2.37974
      vertex -38 -12.6749 0.79744
    endloop
  endfacet
  facet normal -1 -0 0
    outer loop
      vertex -38 -19.05 -19.05
      vertex -38 -12.6749 -0.79744
      vertex -38 -12.475 -2.37974
    endloop
  endfacet
  facet normal -1 -0 0
    outer loop
      vertex -38 -19.05 -19.05
      vertex -38 -12.6749 0.79744
      vertex -38 -12.6749 -0.79744
    endloop
  endfacet
  facet normal -1 0 0
    outer loop
      vertex -38 -19.05 -19.05
      vertex -38 -19.05 38.1
      vertex -38 -12.475 2.37974
    endloop
  endfacet
  facet normal -1 -0 0
    outer loop
      vertex -38 -19.05 -19.05
      vertex -38 -3.15836 -12.301
      vertex -38 -1.59173 -12.5999
    endloop
  endfacet
  facet normal -1 -0 0
    outer loop
      vertex -38 -19.05 -19.05
      vertex -38 -4.67518 -11.8082
      vertex -38 -3.15836 -12.301
    endloop
  endfacet
  facet normal -1 -0 0
    outer loop
      vertex -38 -19.05 -19.05
      vertex -38 -6.11827 -11.1291
      vertex -38 -4.67518 -11.8082
    endloop
  endfacet
  facet normal -1 -0 0
    outer loop
      vertex -38 -19.05 -19.05
      vertex -38 -7.46487 -10.2745
      vertex -38 -6.11827 -11.1291
    endloop
  endfacet
  facet normal -1 -0 0
    outer loop
      vertex -38 -19.05 -19.05
      vertex -38 -8.69375 -9.2579
      vertex -38 -7.46487 -10.2745
    endloop
  endfacet
  facet normal -1 -0 0
    outer loop
      vertex -38 -19.05 -19.05
      vertex -38 -9.78552 -8.09528
      vertex -38 -8.69375 -9.2579
    endloop
  endfacet
  facet normal -1 0 0
    outer loop
      vertex -38 -19.05 -19.05
      vertex -38 0 -12.7
      vertex -38 19.05 -19.05
    endloop
  endfacet
  facet normal 0 -1 0
    outer loop
      vertex -38 -19.05 -19.05
      vertex 0 -19.05 -38.1
      vertex 0 -19.05 38.1
    endloop
  endfacet
  facet normal 0 -1 0
    outer loop
      vertex -38 -19.05 -19.05
      vertex 0 -19.05 38.1
      vertex -38 -19.05 38.1
    endloop
  endfacet
  facet normal -1 0 0
    outer loop
      vertex -38 -19.05 38.1
      vertex -38 -1.59173 12.5999
      vertex -38 -3.15836 12.301
    endloop
  endfacet
  facet normal -1 0 0
    outer loop
      vertex -38 -19.05 38.1
      vertex -38 -10.723 6.805
      vertex -38 -11.4913 5.4074
    endloop
  endfacet
  facet normal -1 0 0
    outer loop
      vertex -38 -19.05 38.1
      vertex -38 -11.4913 5.4074
      vertex -38 -12.0784 3.92452
    endloop
  endfacet
  facet normal -1 0 0
    outer loop
      vertex -38 -19.05 38.1
      vertex -38 -12.0784 3.92452
      vertex -38 -12.475 2.37974
    endloop
  endfacet
  facet normal -1 0 0
    outer loop
      vertex -38 -19.05 38.1
      vertex -38 -3.15836 12.301
      vertex -38 -4.67518 11.8082
    endloop
  endfacet
  facet normal -1 0 0
    outer loop
      vertex -38 -19.05 38.1
      vertex -38 -4.67518 11.8082
      vertex -38 -6.11827 11.1291
    endloop
  endfacet
  facet normal -1 0 0
    outer loop
      vertex -38 -19.05 38.1
      vertex -38 -6.11827 11.1291
      vertex -38 -7.46487 10.2745
    endloop
  endfacet
  facet normal -1 0 0
    outer loop
      vertex -38 -19.05 38.1
      vertex -38 -7.46487 10.2745
      vertex -38 -8.69375 9.2579
    endloop
  endfacet
  facet normal -1 0 0
    outer loop
      vertex -38 -19.05 38.1
      vertex -38 -8.69375 9.2579
      vertex -38 -9.78552 8.09528
    endloop
  endfacet
  facet normal -1 0 0
    outer loop
      vertex -38 -19.05 38.1
      vertex -38 -9.78552 8.09528
      vertex -38 -10.723 6.805
    endloop
  endfacet
  facet normal -1 0 0
    outer loop
      vertex -38 -19.05 38.1
      vertex -38 0 12.7
      vertex -38 -1.59173 12.5999
    endloop
  endfacet
  facet normal -1 0 0
    outer loop
      vertex -38 -19.05 38.1
      vertex -38 19.05 38.1
      vertex -38 0 12.7
    endloop
  endfacet
  facet normal 0 0 1
    outer loop
      vertex -38 -19.05 38.1
      vertex 0 -19.05 38.1
      vertex -38 19.05 38.1
    endloop
  endfacet
  facet normal 0 0.187411 0.982282
    outer loop
      vertex -38 -3.15836 -12.301
      vertex 0 -3.15836 -12.301
      vertex -38 -1.59173 -12.5999
    endloop
  endfacet
  facet normal -0 0.308992 0.951065
    outer loop
      vertex -38 -3.15836 -12.301
      vertex 0 -4.67518 -11.8082
      vertex 0 -3.15836 -12.301
    endloop
  endfacet
  facet normal 0 0.187411 -0.982282
    outer loop
      vertex -38 -3.15836 12.301
      vertex -38 -1.59173 12.5999
      vertex 0 -1.59173 12.5999
    endloop
  endfacet
  facet normal 0 0.187411 -0.982282
    outer loop
      vertex -38 -3.15836 12.301
      vertex 0 -1.59173 12.5999
      vertex 0 -3.15836 12.301
    endloop
  endfacet
  facet normal 0 0.308992 0.951065
    outer loop
      vertex -38 -4.67518 -11.8082
      vertex 0 -4.67518 -11.8082
      vertex -38 -3.15836 -12.301
    endloop
  endfacet
  facet normal -0 0.425796 0.904819
    outer loop
      vertex -38 -4.67518 -11.8082
      vertex 0 -6.11827 -11.1291
      vertex 0 -4.67518 -11.8082
    endloop
  endfacet
  facet normal 0 0.308992 -0.951065
    outer loop
      vertex -38 -4.67518 11.8082
      vertex -38 -3.15836 12.301
      vertex 0 -3.15836 12.301
    endloop
  endfacet
  facet normal 0 0.308992 -0.951065
    outer loop
      vertex -38 -4.67518 11.8082
      vertex 0 -3.15836 12.301
      vertex 0 -4.67518 11.8082
    endloop
  endfacet
  facet normal 0 0.425796 0.904819
    outer loop
      vertex -38 -6.11827 -11.1291
      vertex 0 -6.11827 -11.1291
      vertex -38 -4.67518 -11.8082
    endloop
  endfacet
  facet normal -0 0.535836 0.844322
    outer loop
      vertex -38 -6.11827 -11.1291
      vertex 0 -7.46487 -10.2745
      vertex 0 -6.11827 -11.1291
    endloop
  endfacet
  facet normal 0 0.425796 -0.904819
    outer loop
      vertex -38 -6.11827 11.1291
      vertex -38 -4.67518 11.8082
      vertex 0 -4.67518 11.8082
    endloop
  endfacet
  facet normal 0 0.425796 -0.904819
    outer loop
      vertex -38 -6.11827 11.1291
      vertex 0 -4.67518 11.8082
      vertex 0 -6.11827 11.1291
    endloop
  endfacet
  facet normal 0 0.535836 0.844322
    outer loop
      vertex -38 -7.46487 -10.2745
      vertex 0 -7.46487 -10.2745
      vertex -38 -6.11827 -11.1291
    endloop
  endfacet
  facet normal -0 0.637417 0.770519
    outer loop
      vertex -38 -7.46487 -10.2745
      vertex 0 -8.69375 -9.2579
      vertex 0 -7.46487 -10.2745
    endloop
  endfacet
  facet normal 0 0.535836 -0.844322
    outer loop
      vertex -38 -7.46487 10.2745
      vertex -38 -6.11827 11.1291
      vertex 0 -6.11827 11.1291
    endloop
  endfacet
  facet normal 0 0.535836 -0.844322
    outer loop
      vertex -38 -7.46487 10.2745
      vertex 0 -6.11827 11.1291
      vertex 0 -7.46487 10.2745
    endloop
  endfacet
  facet normal 0 0.637417 0.770519
    outer loop
      vertex -38 -8.69375 -9.2579
      vertex 0 -8.69375 -9.2579
      vertex -38 -7.46487 -10.2745
    endloop
  endfacet
  facet normal 0 0.637417 -0.770519
    outer loop
      vertex -38 -8.69375 9.2579
      vertex -38 -7.46487 10.2745
      vertex 0 -7.46487 10.2745
    endloop
  endfacet
  facet normal 0 0.637417 -0.770519
    outer loop
      vertex -38 -8.69375 9.2579
      vertex 0 -7.46487 10.2745
      vertex 0 -8.69375 9.2579
    endloop
  endfacet
  facet normal 0 0.72897 -0.684546
    outer loop
      vertex -38 -8.69375 9.2579
      vertex 0 -8.69375 9.2579
      vertex 0 -9.78552 8.09528
    endloop
  endfacet
  facet normal 0 0.72897 0.684546
    outer loop
      vertex -38 -9.78552 -8.09528
      vertex 0 -8.69375 -9.2579
      vertex -38 -8.69375 -9.2579
    endloop
  endfacet
  facet normal 0 0.72897 0.684546
    outer loop
      vertex -38 -9.78552 -8.09528
      vertex 0 -9.78552 -8.09528
      vertex 0 -8.69375 -9.2579
    endloop
  endfacet
  facet normal 0 0.72897 -0.684546
    outer loop
      vertex -38 -9.78552 8.09528
      vertex -38 -8.69375 9.2579
      vertex 0 -9.78552 8.09528
    endloop
  endfacet
  facet normal 0 0.809006 -0.5878
    outer loop
      vertex -38 -9.78552 8.09528
      vertex 0 -9.78552 8.09528
      vertex 0 -10.723 6.805
    endloop
  endfacet
  facet normal -1 0 0
    outer loop
      vertex -38 0 -12.7
      vertex -38 1.59173 -12.5999
      vertex -38 19.05 -19.05
    endloop
  endfacet
  facet normal -0 0.0627636 0.998028
    outer loop
      vertex -38 0 -12.7
      vertex 0 -1.59173 -12.5999
      vertex 0 0 -12.7
    endloop
  endfacet
  facet normal 0 -0.0627636 0.998028
    outer loop
      vertex -38 0 -12.7
      vertex 0 0 -12.7
      vertex -38 1.59173 -12.5999
    endloop
  endfacet
  facet normal -0 -0.0627636 -0.998028
    outer loop
      vertex -38 0 12.7
      vertex -38 1.59173 12.5999
      vertex 0 1.59173 12.5999
    endloop
  endfacet
  facet normal -1 0 0
    outer loop
      vertex -38 0 12.7
      vertex -38 19.05 38.1
      vertex -38 1.59173 12.5999
    endloop
  endfacet
  facet normal 0 -0.0627636 -0.998028
    outer loop
      vertex -38 0 12.7
      vertex 0 1.59173 12.5999
      vertex 0 0 12.7
    endloop
  endfacet
  facet normal -1 0 0
    outer loop
      vertex -38 1.59173 -12.5999
      vertex -38 3.15836 -12.301
      vertex -38 19.05 -19.05
    endloop
  endfacet
  facet normal 0 -0.0627636 0.998028
    outer loop
      vertex -38 1.59173 -12.5999
      vertex 0 0 -12.7
      vertex 0 1.59173 -12.5999
    endloop
  endfacet
  facet normal 0 -0.187411 0.982282
    outer loop
      vertex -38 1.59173 -12.5999
      vertex 0 1.59173 -12.5999
      vertex -38 3.15836 -12.301
    endloop
  endfacet
  facet normal -1 0 0
    outer loop
      vertex -38 1.59173 12.5999
      vertex -38 19.05 38.1
      vertex -38 3.15836 12.301
    endloop
  endfacet
  facet normal -0 -0.187411 -0.982282
    outer loop
      vertex -38 1.59173 12.5999
      vertex -38 3.15836 12.301
      vertex 0 3.15836 12.301
    endloop
  endfacet
  facet normal 0 -0.187411 -0.982282
    outer loop
      vertex -38 1.59173 12.5999
      vertex 0 3.15836 12.301
      vertex 0 1.59173 12.5999
    endloop
  endfacet
  facet normal -1 0 0
    outer loop
      vertex -38 10.723 -6.805
      vertex -38 11.4913 -5.4074
      vertex -38 19.05 -19.05
    endloop
  endfacet
  facet normal 0 -0.876317 0.481736
    outer loop
      vertex -38 10.723 -6.805
      vertex 0 10.723 -6.805
      vertex 0 11.4913 -5.4074
    endloop
  endfacet
  facet normal 0 -0.876317 0.481736
    outer loop
      vertex -38 10.723 -6.805
      vertex 0 11.4913 -5.4074
      vertex -38 11.4913 -5.4074
    endloop
  endfacet
  facet normal 0 -0.876317 -0.481736
    outer loop
      vertex -38 10.723 6.805
      vertex -38 11.4913 5.4074
      vertex 0 10.723 6.805
    endloop
  endfacet
  facet normal -1 0 0
    outer loop
      vertex -38 10.723 6.805
      vertex -38 19.05 38.1
      vertex -38 11.4913 5.4074
    endloop
  endfacet
  facet normal 0 -0.809006 -0.5878
    outer loop
      vertex -38 10.723 6.805
      vertex 0 10.723 6.805
      vertex 0 9.78552 8.09528
    endloop
  endfacet
  facet normal -1 0 0
    outer loop
      vertex -38 11.4913 -5.4074
      vertex -38 12.0784 -3.92452
      vertex -38 19.05 -19.05
    endloop
  endfacet
  facet normal 0 -0.929779 0.368117
    outer loop
      vertex -38 11.4913 -5.4074
      vertex 0 11.4913 -5.4074
      vertex 0 12.0784 -3.92452
    endloop
  endfacet
  facet normal 0 -0.929779 0.368117
    outer loop
      vertex -38 11.4913 -5.4074
      vertex 0 12.0784 -3.92452
      vertex -38 12.0784 -3.92452
    endloop
  endfacet
  facet normal 0 -0.929779 -0.368117
    outer loop
      vertex -38 11.4913 5.4074
      vertex -38 12.0784 3.92452
      vertex 0 11.4913 5.4074
    endloop
  endfacet
  facet normal -1 0 0
    outer loop
      vertex -38 11.4913 5.4074
      vertex -38 19.05 38.1
      vertex -38 12.0784 3.92452
    endloop
  endfacet
  facet normal 0 -0.876317 -0.481736
    outer loop
      vertex -38 11.4913 5.4074
      vertex 0 11.4913 5.4074
      vertex 0 10.723 6.805
    endloop
  endfacet
  facet normal -1 0 0
    outer loop
      vertex -38 12.0784 -3.92452
      vertex -38 12.475 -2.37974
      vertex -38 19.05 -19.05
    endloop
  endfacet
  facet normal 0 -0.968588 0.248671
    outer loop
      vertex -38 12.0784 -3.92452
      vertex 0 12.0784 -3.92452
      vertex 0 12.475 -2.37974
    endloop
  endfacet
  facet normal 0 -0.968588 0.248671
    outer loop
      vertex -38 12.0784 -3.92452
      vertex 0 12.475 -2.37974
      vertex -38 12.475 -2.37974
    endloop
  endfacet
  facet normal 0 -0.968588 -0.248671
    outer loop
      vertex -38 12.0784 3.92452
      vertex -38 12.475 2.37974
      vertex 0 12.0784 3.92452
    endloop
  endfacet
  facet normal -1 0 0
    outer loop
      vertex -38 12.0784 3.92452
      vertex -38 19.05 38.1
      vertex -38 12.475 2.37974
    endloop
  endfacet
  facet normal 0 -0.929779 -0.368117
    outer loop
      vertex -38 12.0784 3.92452
      vertex 0 12.0784 3.92452
      vertex 0 11.4913 5.4074
    endloop
  endfacet
  facet normal -1 0 0
    outer loop
      vertex -38 12.475 -2.37974
      vertex -38 12.6749 -0.79744
      vertex -38 19.05 -19.05
    endloop
  endfacet
  facet normal 0 -0.992114 0.125339
    outer loop
      vertex -38 12.475 -2.37974
      vertex 0 12.475 -2.37974
      vertex 0 12.6749 -0.79744
    endloop
  endfacet
  facet normal 0 -0.992114 0.125339
    outer loop
      vertex -38 12.475 -2.37974
      vertex 0 12.6749 -0.79744
      vertex -38 12.6749 -0.79744
    endloop
  endfacet
  facet normal 0 -0.992114 -0.125339
    outer loop
      vertex -38 12.475 2.37974
      vertex -38 12.6749 0.79744
      vertex 0 12.475 2.37974
    endloop
  endfacet
  facet normal -1 0 0
    outer loop
      vertex -38 12.475 2.37974
      vertex -38 19.05 38.1
      vertex -38 12.6749 0.79744
    endloop
  endfacet
  facet normal 0 -0.968588 -0.248671
    outer loop
      vertex -38 12.475 2.37974
      vertex 0 12.475 2.37974
      vertex 0 12.0784 3.92452
    endloop
  endfacet
  facet normal -1 0 0
    outer loop
      vertex -38 12.6749 -0.79744
      vertex -38 12.6749 0.79744
      vertex -38 19.05 -19.05
    endloop
  endfacet
  facet normal 0 -1 -0
    outer loop
      vertex -38 12.6749 -0.79744
      vertex 0 12.6749 -0.79744
      vertex 0 12.6749 0.79744
    endloop
  endfacet
  facet normal 0 -1 0
    outer loop
      vertex -38 12.6749 -0.79744
      vertex 0 12.6749 0.79744
      vertex -38 12.6749 0.79744
    endloop
  endfacet
  facet normal -1 0 0
    outer loop
      vertex -38 12.6749 0.79744
      vertex -38 19.05 38.1
      vertex -38 19.05 -19.05
    endloop
  endfacet
  facet normal 0 -0.992114 -0.125339
    outer loop
      vertex -38 12.6749 0.79744
      vertex 0 12.6749 0.79744
      vertex 0 12.475 2.37974
    endloop
  endfacet
  facet normal 0 1 0
    outer loop
      vertex -38 19.05 -19.05
      vertex -38 19.05 38.1
      vertex 0 19.05 38.1
    endloop
  endfacet
  facet normal 0 1 -0
    outer loop
      vertex -38 19.05 -19.05
      vertex 0 19.05 38.1
      vertex 0 19.05 -38.1
    endloop
  endfacet
  facet normal -0 0 1
    outer loop
      vertex -38 19.05 38.1
      vertex 0 -19.05 38.1
      vertex 0 19.05 38.1
    endloop
  endfacet
  facet normal -1 0 0
    outer loop
      vertex -38 3.15836 -12.301
      vertex -38 4.67518 -11.8082
      vertex -38 19.05 -19.05
    endloop
  endfacet
  facet normal 0 -0.187411 0.982282
    outer loop
      vertex -38 3.15836 -12.301
      vertex 0 1.59173 -12.5999
      vertex 0 3.15836 -12.301
    endloop
  endfacet
  facet normal 0 -0.308992 0.951065
    outer loop
      vertex -38 3.15836 -12.301
      vertex 0 3.15836 -12.301
      vertex -38 4.67518 -11.8082
    endloop
  endfacet
  facet normal -1 0 0
    outer loop
      vertex -38 3.15836 12.301
      vertex -38 19.05 38.1
      vertex -38 4.67518 11.8082
    endloop
  endfacet
  facet normal -0 -0.308992 -0.951065
    outer loop
      vertex -38 3.15836 12.301
      vertex -38 4.67518 11.8082
      vertex 0 4.67518 11.8082
    endloop
  endfacet
  facet normal 0 -0.308992 -0.951065
    outer loop
      vertex -38 3.15836 12.301
      vertex 0 4.67518 11.8082
      vertex 0 3.15836 12.301
    endloop
  endfacet
  facet normal -1 0 0
    outer loop
      vertex -38 4.67518 -11.8082
      vertex -38 6.11827 -11.1291
      vertex -38 19.05 -19.05
    endloop
  endfacet
  facet normal 0 -0.308992 0.951065
    outer loop
      vertex -38 4.67518 -11.8082
      vertex 0 3.15836 -12.301
      vertex 0 4.67518 -11.8082
    endloop
  endfacet
  facet normal 0 -0.425796 0.904819
    outer loop
      vertex -38 4.67518 -11.8082
      vertex 0 4.67518 -11.8082
      vertex -38 6.11827 -11.1291
    endloop
  endfacet
  facet normal -1 0 0
    outer loop
      vertex -38 4.67518 11.8082
      vertex -38 19.05 38.1
      vertex -38 6.11827 11.1291
    endloop
  endfacet
  facet normal -0 -0.425796 -0.904819
    outer loop
      vertex -38 4.67518 11.8082
      vertex -38 6.11827 11.1291
      vertex 0 6.11827 11.1291
    endloop
  endfacet
  facet normal 0 -0.425796 -0.904819
    outer loop
      vertex -38 4.67518 11.8082
      vertex 0 6.11827 11.1291
      vertex 0 4.67518 11.8082
    endloop
  endfacet
  facet normal -1 0 0
    outer loop
      vertex -38 6.11827 -11.1291
      vertex -38 7.46487 -10.2745
      vertex -38 19.05 -19.05
    endloop
  endfacet
  facet normal 0 -0.425796 0.904819
    outer loop
      vertex -38 6.11827 -11.1291
      vertex 0 4.67518 -11.8082
      vertex 0 6.11827 -11.1291
    endloop
  endfacet
  facet normal 0 -0.535836 0.844322
    outer loop
      vertex -38 6.11827 -11.1291
      vertex 0 6.11827 -11.1291
      vertex -38 7.46487 -10.2745
    endloop
  endfacet
  facet normal -1 0 0
    outer loop
      vertex -38 6.11827 11.1291
      vertex -38 19.05 38.1
      vertex -38 7.46487 10.2745
    endloop
  endfacet
  facet normal -0 -0.535836 -0.844322
    outer loop
      vertex -38 6.11827 11.1291
      vertex -38 7.46487 10.2745
      vertex 0 7.46487 10.2745
    endloop
  endfacet
  facet normal 0 -0.535836 -0.844322
    outer loop
      vertex -38 6.11827 11.1291
      vertex 0 7.46487 10.2745
      vertex 0 6.11827 11.1291
    endloop
  endfacet
  facet normal -1 0 0
    outer loop
      vertex -38 7.46487 -10.2745
      vertex -38 8.69375 -9.2579
      vertex -38 19.05 -19.05
    endloop
  endfacet
  facet normal 0 -0.535836 0.844322
    outer loop
      vertex -38 7.46487 -10.2745
      vertex 0 6.11827 -11.1291
      vertex 0 7.46487 -10.2745
    endloop
  endfacet
  facet normal 0 -0.637417 0.770519
    outer loop
      vertex -38 7.46487 -10.2745
      vertex 0 7.46487 -10.2745
      vertex -38 8.69375 -9.2579
    endloop
  endfacet
  facet normal -1 0 0
    outer loop
      vertex -38 7.46487 10.2745
      vertex -38 19.05 38.1
      vertex -38 8.69375 9.2579
    endloop
  endfacet
  facet normal -0 -0.637417 -0.770519
    outer loop
      vertex -38 7.46487 10.2745
      vertex -38 8.69375 9.2579
      vertex 0 8.69375 9.2579
    endloop
  endfacet
  facet normal 0 -0.637417 -0.770519
    outer loop
      vertex -38 7.46487 10.2745
      vertex 0 8.69375 9.2579
      vertex 0 7.46487 10.2745
    endloop
  endfacet
  facet normal -1 0 0
    outer loop
      vertex -38 8.69375 -9.2579
      vertex -38 9.78552 -8.09528
      vertex -38 19.05 -19.05
    endloop
  endfacet
  facet normal 0 -0.637417 0.770519
    outer loop
      vertex -38 8.69375 -9.2579
      vertex 0 7.46487 -10.2745
      vertex 0 8.69375 -9.2579
    endloop
  endfacet
  facet normal 0 -0.72897 0.684546
    outer loop
      vertex -38 8.69375 -9.2579
      vertex 0 8.69375 -9.2579
      vertex 0 9.78552 -8.09528
    endloop
  endfacet
  facet normal 0 -0.72897 0.684546
    outer loop
      vertex -38 8.69375 -9.2579
      vertex 0 9.78552 -8.09528
      vertex -38 9.78552 -8.09528
    endloop
  endfacet
  facet normal -1 0 0
    outer loop
      vertex -38 8.69375 9.2579
      vertex -38 19.05 38.1
      vertex -38 9.78552 8.09528
    endloop
  endfacet
  facet normal 0 -0.72897 -0.684546
    outer loop
      vertex -38 8.69375 9.2579
      vertex -38 9.78552 8.09528
      vertex 0 8.69375 9.2579
    endloop
  endfacet
  facet normal -1 0 0
    outer loop
      vertex -38 9.78552 -8.09528
      vertex -38 10.723 -6.805
      vertex -38 19.05 -19.05
    endloop
  endfacet
  facet normal 0 -0.809006 0.5878
    outer loop
      vertex -38 9.78552 -8.09528
      vertex 0 10.723 -6.805
      vertex -38 10.723 -6.805
    endloop
  endfacet
  facet normal 0 -0.809006 0.5878
    outer loop
      vertex -38 9.78552 -8.09528
      vertex 0 9.78552 -8.09528
      vertex 0 10.723 -6.805
    endloop
  endfacet
  facet normal 0 -0.809006 -0.5878
    outer loop
      vertex -38 9.78552 8.09528
      vertex -38 10.723 6.805
      vertex 0 9.78552 8.09528
    endloop
  endfacet
  facet normal -1 0 0
    outer loop
      vertex -38 9.78552 8.09528
      vertex -38 19.05 38.1
      vertex -38 10.723 6.805
    endloop
  endfacet
  facet normal 0 -0.72897 -0.684546
    outer loop
      vertex -38 9.78552 8.09528
      vertex 0 9.78552 8.09528
      vertex 0 8.69375 9.2579
    endloop
  endfacet
  facet normal 0 0 1
    outer loop
      vertex -39.5 -19.05 -19.05
      vertex -38 -19.05 -19.05
      vertex -39.5 19.05 -19.05
    endloop
  endfacet
  facet normal 1 0 0
    outer loop
      vertex -39.5 -19.05 -19.05
      vertex -39.5 -1.59173 -12.5999
      vertex -39.5 -3.15836 -12.301
    endloop
  endfacet
  facet normal 1 0 0
    outer loop
      vertex -39.5 -19.05 -19.05
      vertex -39.5 -10.723 -6.805
      vertex -39.5 -11.4913 -5.4074
    endloop
  endfacet
  facet normal 1 0 0
    outer loop
      vertex -39.5 -19.05 -19.05
      vertex -39.5 -11.4913 -5.4074
      vertex -39.5 -12.0784 -3.92452
    endloop
  endfacet
  facet normal 1 0 0
    outer loop
      vertex -39.5 -19.05 -19.05
      vertex -39.5 -12.0784 -3.92452
      vertex -39.5 -12.475 -2.37974
    endloop
  endfacet
  facet normal 1 0 0
    outer loop
      vertex -39.5 -19.05 -19.05
      vertex -39.5 -12.475 -2.37974
      vertex -39.5 -12.6749 -0.79744
    endloop
  endfacet
  facet normal 1 0 0
    outer loop
      vertex -39.5 -19.05 -19.05
      vertex -39.5 -12.6749 -0.79744
      vertex -39.5 -12.6749 0.79744
    endloop
  endfacet
  facet normal 1 0 0
    outer loop
      vertex -39.5 -19.05 -19.05
      vertex -39.5 -12.6749 0.79744
      vertex -39.5 -19.05 38.1
    endloop
  endfacet
  facet normal 1 0 0
    outer loop
      vertex -39.5 -19.05 -19.05
      vertex -39.5 -3.15836 -12.301
      vertex -39.5 -4.67518 -11.8082
    endloop
  endfacet
  facet normal 1 0 0
    outer loop
      vertex -39.5 -19.05 -19.05
      vertex -39.5 -4.67518 -11.8082
      vertex -39.5 -6.11827 -11.1291
    endloop
  endfacet
  facet normal 1 0 0
    outer loop
      vertex -39.5 -19.05 -19.05
      vertex -39.5 -6.11827 -11.1291
      vertex -39.5 -7.46487 -10.2745
    endloop
  endfacet
  facet normal 1 0 0
    outer loop
      vertex -39.5 -19.05 -19.05
      vertex -39.5 -7.46487 -10.2745
      vertex -39.5 -8.69375 -9.2579
    endloop
  endfacet
  facet normal 1 0 0
    outer loop
      vertex -39.5 -19.05 -19.05
      vertex -39.5 -8.69375 -9.2579
      vertex -39.5 -9.78552 -8.09528
    endloop
  endfacet
  facet normal 1 0 0
    outer loop
      vertex -39.5 -19.05 -19.05
      vertex -39.5 -9.78552 -8.09528
      vertex -39.5 -10.723 -6.805
    endloop
  endfacet
  facet normal 1 0 0
    outer loop
      vertex -39.5 -19.05 -19.05
      vertex -39.5 0 -12.7
      vertex -39.5 -1.59173 -12.5999
    endloop
  endfacet
  facet normal 1 0 0
    outer loop
      vertex -39.5 -19.05 -19.05
      vertex -39.5 19.05 -19.05
      vertex -39.5 0 -12.7
    endloop
  endfacet
  facet normal 1 0 0
    outer loop
      vertex -39.5 -19.05 38.1
      vertex -39.5 -1.59173 12.5999
      vertex -39.5 0 12.7
    endloop
  endfacet
  facet normal 1 0 0
    outer loop
      vertex -39.5 -19.05 38.1
      vertex -39.5 -10.723 6.805
      vertex -39.5 -9.78552 8.09528
    endloop
  endfacet
  facet normal 1 0 0
    outer loop
      vertex -39.5 -19.05 38.1
      vertex -39.5 -11.4913 5.4074
      vertex -39.5 -10.723 6.805
    endloop
  endfacet
  facet normal 1 0 0
    outer loop
      vertex -39.5 -19.05 38.1
      vertex -39.5 -12.0784 3.92452
      vertex -39.5 -11.4913 5.4074
    endloop
  endfacet
  facet normal 1 0 0
    outer loop
      vertex -39.5 -19.05 38.1
      vertex -39.5 -12.475 2.37974
      vertex -39.5 -12.0784 3.92452
    endloop
  endfacet
  facet normal 1 0 0
    outer loop
      vertex -39.5 -19.05 38.1
      vertex -39.5 -12.6749 0.79744
      vertex -39.5 -12.475 2.37974
    endloop
  endfacet
  facet normal 1 0 0
    outer loop
      vertex -39.5 -19.05 38.1
      vertex -39.5 -3.15836 12.301
      vertex -39.5 -1.59173 12.5999
    endloop
  endfacet
  facet normal 1 0 0
    outer loop
      vertex -39.5 -19.05 38.1
      vertex -39.5 -4.67518 11.8082
      vertex -39.5 -3.15836 12.301
    endloop
  endfacet
  facet normal 1 0 0
    outer loop
      vertex -39.5 -19.05 38.1
      vertex -39.5 -6.11827 11.1291
      vertex -39.5 -4.67518 11.8082
    endloop
  endfacet
  facet normal 1 0 0
    outer loop
      vertex -39.5 -19.05 38.1
      vertex -39.5 -7.46487 10.2745
      vertex -39.5 -6.11827 11.1291
    endloop
  endfacet
  facet normal 1 0 0
    outer loop
      vertex -39.5 -19.05 38.1
      vertex -39.5 -8.69375 9.2579
      vertex -39.5 -7.46487 10.2745
    endloop
  endfacet
  facet normal 1 0 0
    outer loop
      vertex -39.5 -19.05 38.1
      vertex -39.5 -9.78552 8.09528
      vertex -39.5 -8.69375 9.2579
    endloop
  endfacet
  facet normal 1 -0 0
    outer loop
      vertex -39.5 -19.05 38.1
      vertex -39.5 0 12.7
      vertex -39.5 19.05 38.1
    endloop
  endfacet
  facet normal 1 -0 0
    outer loop
      vertex -39.5 0 -12.7
      vertex -39.5 19.05 -19.05
      vertex -39.5 1.59173 -12.5999
    endloop
  endfacet
  facet normal 1 0 0
    outer loop
      vertex -39.5 0 12.7
      vertex -39.5 1.59173 12.5999
      vertex -39.5 19.05 38.1
    endloop
  endfacet
  facet normal 1 -0 0
    outer loop
      vertex -39.5 1.59173 -12.5999
      vertex -39.5 19.05 -19.05
      vertex -39.5 3.15836 -12.301
    endloop
  endfacet
  facet normal 1 0 0
    outer loop
      vertex -39.5 1.59173 12.5999
      vertex -39.5 3.15836 12.301
      vertex -39.5 19.05 38.1
    endloop
  endfacet
  facet normal 1 -0 0
    outer loop
      vertex -39.5 10.723 -6.805
      vertex -39.5 19.05 -19.05
      vertex -39.5 11.4913 -5.4074
    endloop
  endfacet
  facet normal 1 0 0
    outer loop
      vertex -39.5 10.723 6.805
      vertex -39.5 11.4913 5.4074
      vertex -39.5 19.05 38.1
    endloop
  endfacet
  facet normal 1 -0 0
    outer loop
      vertex -39.5 11.4913 -5.4074
      vertex -39.5 19.05 -19.05
      vertex -39.5 12.0784 -3.92452
    endloop
  endfacet
  facet normal 1 0 0
    outer loop
      vertex -39.5 11.4913 5.4074
      vertex -39.5 12.0784 3.92452
      vertex -39.5 19.05 38.1
    endloop
  endfacet
  facet normal 1 -0 0
    outer loop
      vertex -39.5 12.0784 -3.92452
      vertex -39.5 19.05 -19.05
      vertex -39.5 12.475 -2.37974
    endloop
  endfacet
  facet normal 1 0 0
    outer loop
      vertex -39.5 12.0784 3.92452
      vertex -39.5 12.475 2.37974
      vertex -39.5 19.05 38.1
    endloop
  endfacet
  facet normal 1 -0 0
    outer loop
      vertex -39.5 12.475 -2.37974
      vertex -39.5 19.05 -19.05
      vertex -39.5 12.6749 -0.79744
    endloop
  endfacet
  facet normal 1 0 0
    outer loop
      vertex -39.5 12.475 2.37974
      vertex -39.5 12.6749 0.79744
      vertex -39.5 19.05 38.1
    endloop
  endfacet
  facet normal 1 -0 0
    outer loop
      vertex -39.5 12.6749 -0.79744
      vertex -39.5 19.05 -19.05
      vertex -39.5 12.6749 0.79744
    endloop
  endfacet
  facet normal 1 0 0
    outer loop
      vertex -39.5 12.6749 0.79744
      vertex -39.5 19.05 -19.05
      vertex -39.5 19.05 38.1
    endloop
  endfacet
  facet normal -0 0 1
    outer loop
      vertex -39.5 19.05 -19.05
      vertex -38 -19.05 -19.05
      vertex -38 19.05 -19.05
    endloop
  endfacet
  facet normal 1 -0 0
    outer loop
      vertex -39.5 3.15836 -12.301
      vertex -39.5 19.05 -19.05
      vertex -39.5 4.67518 -11.8082
    endloop
  endfacet
  facet normal 1 0 0
    outer loop
      vertex -39.5 3.15836 12.301
      vertex -39.5 4.67518 11.8082
      vertex -39.5 19.05 38.1
    endloop
  endfacet
  facet normal 1 -0 0
    outer loop
      vertex -39.5 4.67518 -11.8082
      vertex -39.5 19.05 -19.05
      vertex -39.5 6.11827 -11.1291
    endloop
  endfacet
  facet normal 1 0 0
    outer loop
      vertex -39.5 4.67518 11.8082
      vertex -39.5 6.11827 11.1291
      vertex -39.5 19.05 38.1
    endloop
  endfacet
  facet normal 1 -0 0
    outer loop
      vertex -39.5 6.11827 -11.1291
      vertex -39.5 19.05 -19.05
      vertex -39.5 7.46487 -10.2745
    endloop
  endfacet
  facet normal 1 0 0
    outer loop
      vertex -39.5 6.11827 11.1291
      vertex -39.5 7.46487 10.2745
      vertex -39.5 19.05 38.1
    endloop
  endfacet
  facet normal 1 -0 0
    outer loop
      vertex -39.5 7.46487 -10.2745
      vertex -39.5 19.05 -19.05
      vertex -39.5 8.69375 -9.2579
    endloop
  endfacet
  facet normal 1 0 0
    outer loop
      vertex -39.5 7.46487 10.2745
      vertex -39.5 8.69375 9.2579
      vertex -39.5 19.05 38.1
    endloop
  endfacet
  facet normal 1 -0 0
    outer loop
      vertex -39.5 8.69375 -9.2579
      vertex -39.5 19.05 -19.05
      vertex -39.5 9.78552 -8.09528
    endloop
  endfacet
  facet normal 1 0 0
    outer loop
      vertex -39.5 8.69375 9.2579
      vertex -39.5 9.78552 8.09528
      vertex -39.5 19.05 38.1
    endloop
  endfacet
  facet normal 1 -0 0
    outer loop
      vertex -39.5 9.78552 -8.09528
      vertex -39.5 19.05 -19.05
      vertex -39.5 10.723 -6.805
    endloop
  endfacet
  facet normal 1 0 0
    outer loop
      vertex -39.5 9.78552 8.09528
      vertex -39.5 10.723 6.805
      vertex -39.5 19.05 38.1
    endloop
  endfacet
  facet normal 0 0.0627636 0.998028
    outer loop
      vertex -76 -1.59173 -12.5999
      vertex -39.5 -1.59173 -12.5999
      vertex -76 0 -12.7
    endloop
  endfacet
  facet normal -0 0.187411 0.982282
    outer loop
      vertex -76 -1.59173 -12.5999
      vertex -39.5 -3.15836 -12.301
      vertex -39.5 -1.59173 -12.5999
    endloop
  endfacet
  facet normal 0 0.0627636 -0.998028
    outer loop
      vertex -76 -1.59173 12.5999
      vertex -39.5 0 12.7
      vertex -39.5 -1.59173 12.5999
    endloop
  endfacet
  facet normal 0 0.0627636 -0.998028
    outer loop
      vertex -76 -1.59173 12.5999
      vertex -76 0 12.7
      vertex -39.5 0 12.7
    endloop
  endfacet
  facet normal 0 0.809006 0.5878
    outer loop
      vertex -76 -10.723 -6.805
      vertex -39.5 -10.723 -6.805
      vertex -39.5 -9.78552 -8.09528
    endloop
  endfacet
  facet normal 0 0.809006 0.5878
    outer loop
      vertex -76 -10.723 -6.805
      vertex -39.5 -9.78552 -8.09528
      vertex -76 -9.78552 -8.09528
    endloop
  endfacet
  facet normal 0 0.876317 -0.481736
    outer loop
      vertex -76 -10.723 6.805
      vertex -39.5 -10.723 6.805
      vertex -39.5 -11.4913 5.4074
    endloop
  endfacet
  facet normal 0 0.809006 -0.5878
    outer loop
      vertex -76 -10.723 6.805
      vertex -76 -9.78552 8.09528
      vertex -39.5 -10.723 6.805
    endloop
  endfacet
  facet normal 0 0.876317 0.481736
    outer loop
      vertex -76 -11.4913 -5.4074
      vertex -39.5 -10.723 -6.805
      vertex -76 -10.723 -6.805
    endloop
  endfacet
  facet normal 0 0.876317 0.481736
    outer loop
      vertex -76 -11.4913 -5.4074
      vertex -39.5 -11.4913 -5.4074
      vertex -39.5 -10.723 -6.805
    endloop
  endfacet
  facet normal 0 0.929779 -0.368117
    outer loop
      vertex -76 -11.4913 5.4074
      vertex -39.5 -11.4913 5.4074
      vertex -39.5 -12.0784 3.92452
    endloop
  endfacet
  facet normal 0 0.876317 -0.481736
    outer loop
      vertex -76 -11.4913 5.4074
      vertex -76 -10.723 6.805
      vertex -39.5 -11.4913 5.4074
    endloop
  endfacet
  facet normal 0 0.929779 0.368117
    outer loop
      vertex -76 -12.0784 -3.92452
      vertex -39.5 -11.4913 -5.4074
      vertex -76 -11.4913 -5.4074
    endloop
  endfacet
  facet normal 0 0.929779 0.368117
    outer loop
      vertex -76 -12.0784 -3.92452
      vertex -39.5 -12.0784 -3.92452
      vertex -39.5 -11.4913 -5.4074
    endloop
  endfacet
  facet normal 0 0.968588 -0.248671
    outer loop
      vertex -76 -12.0784 3.92452
      vertex -39.5 -12.0784 3.92452
      vertex -39.5 -12.475 2.37974
    endloop
  endfacet
  facet normal 0 0.929779 -0.368117
    outer loop
      vertex -76 -12.0784 3.92452
      vertex -76 -11.4913 5.4074
      vertex -39.5 -12.0784 3.92452
    endloop
  endfacet
  facet normal 0 0.968588 0.248671
    outer loop
      vertex -76 -12.475 -2.37974
      vertex -39.5 -12.0784 -3.92452
      vertex -76 -12.0784 -3.92452
    endloop
  endfacet
  facet normal 0 0.968588 0.248671
    outer loop
      vertex -76 -12.475 -2.37974
      vertex -39.5 -12.475 -2.37974
      vertex -39.5 -12.0784 -3.92452
    endloop
  endfacet
  facet normal 0 0.992114 -0.125339
    outer loop
      vertex -76 -12.475 2.37974
      vertex -39.5 -12.475 2.37974
      vertex -39.5 -12.6749 0.79744
    endloop
  endfacet
  facet normal 0 0.968588 -0.248671
    outer loop
      vertex -76 -12.475 2.37974
      vertex -76 -12.0784 3.92452
      vertex -39.5 -12.475 2.37974
    endloop
  endfacet
  facet normal 0 0.992114 0.125339
    outer loop
      vertex -76 -12.6749 -0.79744
      vertex -39.5 -12.475 -2.37974
      vertex -76 -12.475 -2.37974
    endloop
  endfacet
  facet normal 0 0.992114 0.125339
    outer loop
      vertex -76 -12.6749 -0.79744
      vertex -39.5 -12.6749 -0.79744
      vertex -39.5 -12.475 -2.37974
    endloop
  endfacet
  facet normal 0 1 0
    outer loop
      vertex -76 -12.6749 -0.79744
      vertex -76 -12.6749 0.79744
      vertex -39.5 -12.6749 -0.79744
    endloop
  endfacet
  facet normal 0 1 -0
    outer loop
      vertex -76 -12.6749 0.79744
      vertex -39.5 -12.6749 0.79744
      vertex -39.5 -12.6749 -0.79744
    endloop
  endfacet
  facet normal 0 0.992114 -0.125339
    outer loop
      vertex -76 -12.6749 0.79744
      vertex -76 -12.475 2.37974
      vertex -39.5 -12.6749 0.79744
    endloop
  endfacet
  facet normal 0 -1 -0
    outer loop
      vertex -76 -19.05 -38.1
      vertex -38 -19.05 -19.05
      vertex -39.5 -19.05 -19.05
    endloop
  endfacet
  facet normal 0 -1 0
    outer loop
      vertex -76 -19.05 -38.1
      vertex -39.5 -19.05 -19.05
      vertex -76 -19.05 38.1
    endloop
  endfacet
  facet normal -1 -0 0
    outer loop
      vertex -76 -19.05 -38.1
      vertex -76 -1.59173 -12.5999
      vertex -76 0 -12.7
    endloop
  endfacet
  facet normal -1 -0 0
    outer loop
      vertex -76 -19.05 -38.1
      vertex -76 -10.723 -6.805
      vertex -76 -9.78552 -8.09528
    endloop
  endfacet
  facet normal -1 -0 0
    outer loop
      vertex -76 -19.05 -38.1
      vertex -76 -11.4913 -5.4074
      vertex -76 -10.723 -6.805
    endloop
  endfacet
  facet normal -1 -0 0
    outer loop
      vertex -76 -19.05 -38.1
      vertex -76 -12.0784 -3.92452
      vertex -76 -11.4913 -5.4074
    endloop
  endfacet
  facet normal -1 -0 0
    outer loop
      vertex -76 -19.05 -38.1
      vertex -76 -12.475 -2.37974
      vertex -76 -12.0784 -3.92452
    endloop
  endfacet
  facet normal -1 -0 0
    outer loop
      vertex -76 -19.05 -38.1
      vertex -76 -12.6749 -0.79744
      vertex -76 -12.475 -2.37974
    endloop
  endfacet
  facet normal -1 -0 0
    outer loop
      vertex -76 -19.05 -38.1
      vertex -76 -12.6749 0.79744
      vertex -76 -12.6749 -0.79744
    endloop
  endfacet
  facet normal -1 0 0
    outer loop
      vertex -76 -19.05 -38.1
      vertex -76 -19.05 38.1
      vertex -76 -12.6749 0.79744
    endloop
  endfacet
  facet normal -1 -0 0
    outer loop
      vertex -76 -19.05 -38.1
      vertex -76 -3.15836 -12.301
      vertex -76 -1.59173 -12.5999
    endloop
  endfacet
  facet normal -1 -0 0
    outer loop
      vertex -76 -19.05 -38.1
      vertex -76 -4.67518 -11.8082
      vertex -76 -3.15836 -12.301
    endloop
  endfacet
  facet normal -1 -0 0
    outer loop
      vertex -76 -19.05 -38.1
      vertex -76 -6.11827 -11.1291
      vertex -76 -4.67518 -11.8082
    endloop
  endfacet
  facet normal -1 -0 0
    outer loop
      vertex -76 -19.05 -38.1
      vertex -76 -7.46487 -10.2745
      vertex -76 -6.11827 -11.1291
    endloop
  endfacet
  facet normal -1 -0 0
    outer loop
      vertex -76 -19.05 -38.1
      vertex -76 -8.69375 -9.2579
      vertex -76 -7.46487 -10.2745
    endloop
  endfacet
  facet normal -1 -0 0
    outer loop
      vertex -76 -19.05 -38.1
      vertex -76 -9.78552 -8.09528
      vertex -76 -8.69375 -9.2579
    endloop
  endfacet
  facet normal -1 0 0
    outer loop
      vertex -76 -19.05 -38.1
      vertex -76 0 -12.7
      vertex -76 19.05 -38.1
    endloop
  endfacet
  facet normal -0 0 -1
    outer loop
      vertex -76 -19.05 -38.1
      vertex -76 19.05 -38.1
      vertex 0 19.05 -38.1
    endloop
  endfacet
  facet normal 0 -1 0
    outer loop
      vertex -76 -19.05 -38.1
      vertex 0 -19.05 -38.1
      vertex -38 -19.05 -19.05
    endloop
  endfacet
  facet normal 0 0 -1
    outer loop
      vertex -76 -19.05 -38.1
      vertex 0 19.05 -38.1
      vertex 0 -19.05 -38.1
    endloop
  endfacet
  facet normal 0 -1 0
    outer loop
      vertex -76 -19.05 38.1
      vertex -39.5 -19.05 -19.05
      vertex -39.5 -19.05 38.1
    endloop
  endfacet
  facet normal 0 0 1
    outer loop
      vertex -76 -19.05 38.1
      vertex -39.5 -19.05 38.1
      vertex -76 19.05 38.1
    endloop
  endfacet
  facet normal -1 0 0
    outer loop
      vertex -76 -19.05 38.1
      vertex -76 -1.59173 12.5999
      vertex -76 -3.15836 12.301
    endloop
  endfacet
  facet normal -1 0 0
    outer loop
      vertex -76 -19.05 38.1
      vertex -76 -10.723 6.805
      vertex -76 -11.4913 5.4074
    endloop
  endfacet
  facet normal -1 0 0
    outer loop
      vertex -76 -19.05 38.1
      vertex -76 -11.4913 5.4074
      vertex -76 -12.0784 3.92452
    endloop
  endfacet
  facet normal -1 0 0
    outer loop
      vertex -76 -19.05 38.1
      vertex -76 -12.0784 3.92452
      vertex -76 -12.475 2.37974
    endloop
  endfacet
  facet normal -1 0 0
    outer loop
      vertex -76 -19.05 38.1
      vertex -76 -12.475 2.37974
      vertex -76 -12.6749 0.79744
    endloop
  endfacet
  facet normal -1 0 0
    outer loop
      vertex -76 -19.05 38.1
      vertex -76 -3.15836 12.301
      vertex -76 -4.67518 11.8082
    endloop
  endfacet
  facet normal -1 0 0
    outer loop
      vertex -76 -19.05 38.1
      vertex -76 -4.67518 11.8082
      vertex -76 -6.11827 11.1291
    endloop
  endfacet
  facet normal -1 0 0
    outer loop
      vertex -76 -19.05 38.1
      vertex -76 -6.11827 11.1291
      vertex -76 -7.46487 10.2745
    endloop
  endfacet
  facet normal -1 0 0
    outer loop
      vertex -76 -19.05 38.1
      vertex -76 -7.46487 10.2745
      vertex -76 -8.69375 9.2579
    endloop
  endfacet
  facet normal -1 0 0
    outer loop
      vertex -76 -19.05 38.1
      vertex -76 -8.69375 9.2579
      vertex -76 -9.78552 8.09528
    endloop
  endfacet
  facet normal -1 0 0
    outer loop
      vertex -76 -19.05 38.1
      vertex -76 -9.78552 8.09528
      vertex -76 -10.723 6.805
    endloop
  endfacet
  facet normal -1 0 0
    outer loop
      vertex -76 -19.05 38.1
      vertex -76 0 12.7
      vertex -76 -1.59173 12.5999
    endloop
  endfacet
  facet normal -1 0 0
    outer loop
      vertex -76 -19.05 38.1
      vertex -76 19.05 38.1
      vertex -76 0 12.7
    endloop
  endfacet
  facet normal 0 0.187411 0.982282
    outer loop
      vertex -76 -3.15836 -12.301
      vertex -39.5 -3.15836 -12.301
      vertex -76 -1.59173 -12.5999
    endloop
  endfacet
  facet normal -0 0.308992 0.951065
    outer loop
      vertex -76 -3.15836 -12.301
      vertex -39.5 -4.67518 -11.8082
      vertex -39.5 -3.15836 -12.301
    endloop
  endfacet
  facet normal 0 0.187411 -0.982282
    outer loop
      vertex -76 -3.15836 12.301
      vertex -39.5 -1.59173 12.5999
      vertex -39.5 -3.15836 12.301
    endloop
  endfacet
  facet normal 0 0.187411 -0.982282
    outer loop
      vertex -76 -3.15836 12.301
      vertex -76 -1.59173 12.5999
      vertex -39.5 -1.59173 12.5999
    endloop
  endfacet
  facet normal 0 0.308992 0.951065
    outer loop
      vertex -76 -4.67518 -11.8082
      vertex -39.5 -4.67518 -11.8082
      vertex -76 -3.15836 -12.301
    endloop
  endfacet
  facet normal -0 0.425796 0.904819
    outer loop
      vertex -76 -4.67518 -11.8082
      vertex -39.5 -6.11827 -11.1291
      vertex -39.5 -4.67518 -11.8082
    endloop
  endfacet
  facet normal 0 0.308992 -0.951065
    outer loop
      vertex -76 -4.67518 11.8082
      vertex -39.5 -3.15836 12.301
      vertex -39.5 -4.67518 11.8082
    endloop
  endfacet
  facet normal 0 0.308992 -0.951065
    outer loop
      vertex -76 -4.67518 11.8082
      vertex -76 -3.15836 12.301
      vertex -39.5 -3.15836 12.301
    endloop
  endfacet
  facet normal 0 0.425796 0.904819
    outer loop
      vertex -76 -6.11827 -11.1291
      vertex -39.5 -6.11827 -11.1291
      vertex -76 -4.67518 -11.8082
    endloop
  endfacet
  facet normal -0 0.535836 0.844322
    outer loop
      vertex -76 -6.11827 -11.1291
      vertex -39.5 -7.46487 -10.2745
      vertex -39.5 -6.11827 -11.1291
    endloop
  endfacet
  facet normal 0 0.425796 -0.904819
    outer loop
      vertex -76 -6.11827 11.1291
      vertex -39.5 -4.67518 11.8082
      vertex -39.5 -6.11827 11.1291
    endloop
  endfacet
  facet normal 0 0.425796 -0.904819
    outer loop
      vertex -76 -6.11827 11.1291
      vertex -76 -4.67518 11.8082
      vertex -39.5 -4.67518 11.8082
    endloop
  endfacet
  facet normal 0 0.535836 0.844322
    outer loop
      vertex -76 -7.46487 -10.2745
      vertex -39.5 -7.46487 -10.2745
      vertex -76 -6.11827 -11.1291
    endloop
  endfacet
  facet normal -0 0.637417 0.770519
    outer loop
      vertex -76 -7.46487 -10.2745
      vertex -39.5 -8.69375 -9.2579
      vertex -39.5 -7.46487 -10.2745
    endloop
  endfacet
  facet normal 0 0.535836 -0.844322
    outer loop
      vertex -76 -7.46487 10.2745
      vertex -39.5 -6.11827 11.1291
      vertex -39.5 -7.46487 10.2745
    endloop
  endfacet
  facet normal 0 0.535836 -0.844322
    outer loop
      vertex -76 -7.46487 10.2745
      vertex -76 -6.11827 11.1291
      vertex -39.5 -6.11827 11.1291
    endloop
  endfacet
  facet normal 0 0.637417 0.770519
    outer loop
      vertex -76 -8.69375 -9.2579
      vertex -39.5 -8.69375 -9.2579
      vertex -76 -7.46487 -10.2745
    endloop
  endfacet
  facet normal 0 0.637417 -0.770519
    outer loop
      vertex -76 -8.69375 9.2579
      vertex -39.5 -7.46487 10.2745
      vertex -39.5 -8.69375 9.2579
    endloop
  endfacet
  facet normal 0 0.72897 -0.684546
    outer loop
      vertex -76 -8.69375 9.2579
      vertex -39.5 -8.69375 9.2579
      vertex -39.5 -9.78552 8.09528
    endloop
  endfacet
  facet normal 0 0.637417 -0.770519
    outer loop
      vertex -76 -8.69375 9.2579
      vertex -76 -7.46487 10.2745
      vertex -39.5 -7.46487 10.2745
    endloop
  endfacet
  facet normal 0 0.72897 0.684546
    outer loop
      vertex -76 -9.78552 -8.09528
      vertex -39.5 -8.69375 -9.2579
      vertex -76 -8.69375 -9.2579
    endloop
  endfacet
  facet normal 0 0.72897 0.684546
    outer loop
      vertex -76 -9.78552 -8.09528
      vertex -39.5 -9.78552 -8.09528
      vertex -39.5 -8.69375 -9.2579
    endloop
  endfacet
  facet normal 0 0.809006 -0.5878
    outer loop
      vertex -76 -9.78552 8.09528
      vertex -39.5 -9.78552 8.09528
      vertex -39.5 -10.723 6.805
    endloop
  endfacet
  facet normal 0 0.72897 -0.684546
    outer loop
      vertex -76 -9.78552 8.09528
      vertex -76 -8.69375 9.2579
      vertex -39.5 -9.78552 8.09528
    endloop
  endfacet
  facet normal -0 0.0627636 0.998028
    outer loop
      vertex -76 0 -12.7
      vertex -39.5 -1.59173 -12.5999
      vertex -39.5 0 -12.7
    endloop
  endfacet
  facet normal 0 -0.0627636 0.998028
    outer loop
      vertex -76 0 -12.7
      vertex -39.5 0 -12.7
      vertex -76 1.59173 -12.5999
    endloop
  endfacet
  facet normal -1 0 0
    outer loop
      vertex -76 0 -12.7
      vertex -76 1.59173 -12.5999
      vertex -76 19.05 -38.1
    endloop
  endfacet
  facet normal 0 -0.0627636 -0.998028
    outer loop
      vertex -76 0 12.7
      vertex -39.5 1.59173 12.5999
      vertex -39.5 0 12.7
    endloop
  endfacet
  facet normal -0 -0.0627636 -0.998028
    outer loop
      vertex -76 0 12.7
      vertex -76 1.59173 12.5999
      vertex -39.5 1.59173 12.5999
    endloop
  endfacet
  facet normal -1 0 0
    outer loop
      vertex -76 0 12.7
      vertex -76 19.05 38.1
      vertex -76 1.59173 12.5999
    endloop
  endfacet
  facet normal 0 -0.0627636 0.998028
    outer loop
      vertex -76 1.59173 -12.5999
      vertex -39.5 0 -12.7
      vertex -39.5 1.59173 -12.5999
    endloop
  endfacet
  facet normal 0 -0.187411 0.982282
    outer loop
      vertex -76 1.59173 -12.5999
      vertex -39.5 1.59173 -12.5999
      vertex -76 3.15836 -12.301
    endloop
  endfacet
  facet normal -1 0 0
    outer loop
      vertex -76 1.59173 -12.5999
      vertex -76 3.15836 -12.301
      vertex -76 19.05 -38.1
    endloop
  endfacet
  facet normal 0 -0.187411 -0.982282
    outer loop
      vertex -76 1.59173 12.5999
      vertex -39.5 3.15836 12.301
      vertex -39.5 1.59173 12.5999
    endloop
  endfacet
  facet normal -1 0 0
    outer loop
      vertex -76 1.59173 12.5999
      vertex -76 19.05 38.1
      vertex -76 3.15836 12.301
    endloop
  endfacet
  facet normal -0 -0.187411 -0.982282
    outer loop
      vertex -76 1.59173 12.5999
      vertex -76 3.15836 12.301
      vertex -39.5 3.15836 12.301
    endloop
  endfacet
  facet normal 0 -0.876317 0.481736
    outer loop
      vertex -76 10.723 -6.805
      vertex -39.5 10.723 -6.805
      vertex -39.5 11.4913 -5.4074
    endloop
  endfacet
  facet normal 0 -0.876317 0.481736
    outer loop
      vertex -76 10.723 -6.805
      vertex -39.5 11.4913 -5.4074
      vertex -76 11.4913 -5.4074
    endloop
  endfacet
  facet normal -1 0 0
    outer loop
      vertex -76 10.723 -6.805
      vertex -76 11.4913 -5.4074
      vertex -76 19.05 -38.1
    endloop
  endfacet
  facet normal 0 -0.809006 -0.5878
    outer loop
      vertex -76 10.723 6.805
      vertex -39.5 10.723 6.805
      vertex -39.5 9.78552 8.09528
    endloop
  endfacet
  facet normal 0 -0.876317 -0.481736
    outer loop
      vertex -76 10.723 6.805
      vertex -76 11.4913 5.4074
      vertex -39.5 10.723 6.805
    endloop
  endfacet
  facet normal -1 0 0
    outer loop
      vertex -76 10.723 6.805
      vertex -76 19.05 38.1
      vertex -76 11.4913 5.4074
    endloop
  endfacet
  facet normal 0 -0.929779 0.368117
    outer loop
      vertex -76 11.4913 -5.4074
      vertex -39.5 11.4913 -5.4074
      vertex -39.5 12.0784 -3.92452
    endloop
  endfacet
  facet normal 0 -0.929779 0.368117
    outer loop
      vertex -76 11.4913 -5.4074
      vertex -39.5 12.0784 -3.92452
      vertex -76 12.0784 -3.92452
    endloop
  endfacet
  facet normal -1 0 0
    outer loop
      vertex -76 11.4913 -5.4074
      vertex -76 12.0784 -3.92452
      vertex -76 19.05 -38.1
    endloop
  endfacet
  facet normal 0 -0.876317 -0.481736
    outer loop
      vertex -76 11.4913 5.4074
      vertex -39.5 11.4913 5.4074
      vertex -39.5 10.723 6.805
    endloop
  endfacet
  facet normal 0 -0.929779 -0.368117
    outer loop
      vertex -76 11.4913 5.4074
      vertex -76 12.0784 3.92452
      vertex -39.5 11.4913 5.4074
    endloop
  endfacet
  facet normal -1 0 0
    outer loop
      vertex -76 11.4913 5.4074
      vertex -76 19.05 38.1
      vertex -76 12.0784 3.92452
    endloop
  endfacet
  facet normal 0 -0.968588 0.248671
    outer loop
      vertex -76 12.0784 -3.92452
      vertex -39.5 12.0784 -3.92452
      vertex -39.5 12.475 -2.37974
    endloop
  endfacet
  facet normal 0 -0.968588 0.248671
    outer loop
      vertex -76 12.0784 -3.92452
      vertex -39.5 12.475 -2.37974
      vertex -76 12.475 -2.37974
    endloop
  endfacet
  facet normal -1 0 0
    outer loop
      vertex -76 12.0784 -3.92452
      vertex -76 12.475 -2.37974
      vertex -76 19.05 -38.1
    endloop
  endfacet
  facet normal 0 -0.929779 -0.368117
    outer loop
      vertex -76 12.0784 3.92452
      vertex -39.5 12.0784 3.92452
      vertex -39.5 11.4913 5.4074
    endloop
  endfacet
  facet normal 0 -0.968588 -0.248671
    outer loop
      vertex -76 12.0784 3.92452
      vertex -76 12.475 2.37974
      vertex -39.5 12.0784 3.92452
    endloop
  endfacet
  facet normal -1 0 0
    outer loop
      vertex -76 12.0784 3.92452
      vertex -76 19.05 38.1
      vertex -76 12.475 2.37974
    endloop
  endfacet
  facet normal 0 -0.992114 0.125339
    outer loop
      vertex -76 12.475 -2.37974
      vertex -39.5 12.475 -2.37974
      vertex -39.5 12.6749 -0.79744
    endloop
  endfacet
  facet normal 0 -0.992114 0.125339
    outer loop
      vertex -76 12.475 -2.37974
      vertex -39.5 12.6749 -0.79744
      vertex -76 12.6749 -0.79744
    endloop
  endfacet
  facet normal -1 0 0
    outer loop
      vertex -76 12.475 -2.37974
      vertex -76 12.6749 -0.79744
      vertex -76 19.05 -38.1
    endloop
  endfacet
  facet normal 0 -0.968588 -0.248671
    outer loop
      vertex -76 12.475 2.37974
      vertex -39.5 12.475 2.37974
      vertex -39.5 12.0784 3.92452
    endloop
  endfacet
  facet normal 0 -0.992114 -0.125339
    outer loop
      vertex -76 12.475 2.37974
      vertex -76 12.6749 0.79744
      vertex -39.5 12.475 2.37974
    endloop
  endfacet
  facet normal -1 0 0
    outer loop
      vertex -76 12.475 2.37974
      vertex -76 19.05 38.1
      vertex -76 12.6749 0.79744
    endloop
  endfacet
  facet normal 0 -1 -0
    outer loop
      vertex -76 12.6749 -0.79744
      vertex -39.5 12.6749 -0.79744
      vertex -39.5 12.6749 0.79744
    endloop
  endfacet
  facet normal 0 -1 0
    outer loop
      vertex -76 12.6749 -0.79744
      vertex -39.5 12.6749 0.79744
      vertex -76 12.6749 0.79744
    endloop
  endfacet
  facet normal -1 0 0
    outer loop
      vertex -76 12.6749 -0.79744
      vertex -76 12.6749 0.79744
      vertex -76 19.05 38.1
    endloop
  endfacet
  facet normal -1 0 0
    outer loop
      vertex -76 12.6749 -0.79744
      vertex -76 19.05 38.1
      vertex -76 19.05 -38.1
    endloop
  endfacet
  facet normal 0 -0.992114 -0.125339
    outer loop
      vertex -76 12.6749 0.79744
      vertex -39.5 12.6749 0.79744
      vertex -39.5 12.475 2.37974
    endloop
  endfacet
  facet normal 0 1 0
    outer loop
      vertex -76 19.05 -38.1
      vertex -38 19.05 -19.05
      vertex 0 19.05 -38.1
    endloop
  endfacet
  facet normal 0 1 0
    outer loop
      vertex -76 19.05 -38.1
      vertex -39.5 19.05 -19.05
      vertex -38 19.05 -19.05
    endloop
  endfacet
  facet normal 0 1 0
    outer loop
      vertex -76 19.05 -38.1
      vertex -76 19.05 38.1
      vertex -39.5 19.05 -19.05
    endloop
  endfacet
  facet normal -0 0 1
    outer loop
      vertex -76 19.05 38.1
      vertex -39.5 -19.05 38.1
      vertex -39.5 19.05 38.1
    endloop
  endfacet
  facet normal 0 1 -0
    outer loop
      vertex -76 19.05 38.1
      vertex -39.5 19.05 38.1
      vertex -39.5 19.05 -19.05
    endloop
  endfacet
  facet normal 0 -0.187411 0.982282
    outer loop
      vertex -76 3.15836 -12.301
      vertex -39.5 1.59173 -12.5999
      vertex -39.5 3.15836 -12.301
    endloop
  endfacet
  facet normal 0 -0.308992 0.951065
    outer loop
      vertex -76 3.15836 -12.301
      vertex -39.5 3.15836 -12.301
      vertex -76 4.67518 -11.8082
    endloop
  endfacet
  facet normal -1 0 0
    outer loop
      vertex -76 3.15836 -12.301
      vertex -76 4.67518 -11.8082
      vertex -76 19.05 -38.1
    endloop
  endfacet
  facet normal 0 -0.308992 -0.951065
    outer loop
      vertex -76 3.15836 12.301
      vertex -39.5 4.67518 11.8082
      vertex -39.5 3.15836 12.301
    endloop
  endfacet
  facet normal -1 0 0
    outer loop
      vertex -76 3.15836 12.301
      vertex -76 19.05 38.1
      vertex -76 4.67518 11.8082
    endloop
  endfacet
  facet normal -0 -0.308992 -0.951065
    outer loop
      vertex -76 3.15836 12.301
      vertex -76 4.67518 11.8082
      vertex -39.5 4.67518 11.8082
    endloop
  endfacet
  facet normal 0 -0.308992 0.951065
    outer loop
      vertex -76 4.67518 -11.8082
      vertex -39.5 3.15836 -12.301
      vertex -39.5 4.67518 -11.8082
    endloop
  endfacet
  facet normal 0 -0.425796 0.904819
    outer loop
      vertex -76 4.67518 -11.8082
      vertex -39.5 4.67518 -11.8082
      vertex -76 6.11827 -11.1291
    endloop
  endfacet
  facet normal -1 0 0
    outer loop
      vertex -76 4.67518 -11.8082
      vertex -76 6.11827 -11.1291
      vertex -76 19.05 -38.1
    endloop
  endfacet
  facet normal 0 -0.425796 -0.904819
    outer loop
      vertex -76 4.67518 11.8082
      vertex -39.5 6.11827 11.1291
      vertex -39.5 4.67518 11.8082
    endloop
  endfacet
  facet normal -1 0 0
    outer loop
      vertex -76 4.67518 11.8082
      vertex -76 19.05 38.1
      vertex -76 6.11827 11.1291
    endloop
  endfacet
  facet normal -0 -0.425796 -0.904819
    outer loop
      vertex -76 4.67518 11.8082
      vertex -76 6.11827 11.1291
      vertex -39.5 6.11827 11.1291
    endloop
  endfacet
  facet normal 0 -0.425796 0.904819
    outer loop
      vertex -76 6.11827 -11.1291
      vertex -39.5 4.67518 -11.8082
      vertex -39.5 6.11827 -11.1291
    endloop
  endfacet
  facet normal 0 -0.535836 0.844322
    outer loop
      vertex -76 6.11827 -11.1291
      vertex -39.5 6.11827 -11.1291
      vertex -76 7.46487 -10.2745
    endloop
  endfacet
  facet normal -1 0 0
    outer loop
      vertex -76 6.11827 -11.1291
      vertex -76 7.46487 -10.2745
      vertex -76 19.05 -38.1
    endloop
  endfacet
  facet normal 0 -0.535836 -0.844322
    outer loop
      vertex -76 6.11827 11.1291
      vertex -39.5 7.46487 10.2745
      vertex -39.5 6.11827 11.1291
    endloop
  endfacet
  facet normal -1 0 0
    outer loop
      vertex -76 6.11827 11.1291
      vertex -76 19.05 38.1
      vertex -76 7.46487 10.2745
    endloop
  endfacet
  facet normal -0 -0.535836 -0.844322
    outer loop
      vertex -76 6.11827 11.1291
      vertex -76 7.46487 10.2745
      vertex -39.5 7.46487 10.2745
    endloop
  endfacet
  facet normal 0 -0.535836 0.844322
    outer loop
      vertex -76 7.46487 -10.2745
      vertex -39.5 6.11827 -11.1291
      vertex -39.5 7.46487 -10.2745
    endloop
  endfacet
  facet normal 0 -0.637417 0.770519
    outer loop
      vertex -76 7.46487 -10.2745
      vertex -39.5 7.46487 -10.2745
      vertex -76 8.69375 -9.2579
    endloop
  endfacet
  facet normal -1 0 0
    outer loop
      vertex -76 7.46487 -10.2745
      vertex -76 8.69375 -9.2579
      vertex -76 19.05 -38.1
    endloop
  endfacet
  facet normal 0 -0.637417 -0.770519
    outer loop
      vertex -76 7.46487 10.2745
      vertex -39.5 8.69375 9.2579
      vertex -39.5 7.46487 10.2745
    endloop
  endfacet
  facet normal -1 0 0
    outer loop
      vertex -76 7.46487 10.2745
      vertex -76 19.05 38.1
      vertex -76 8.69375 9.2579
    endloop
  endfacet
  facet normal -0 -0.637417 -0.770519
    outer loop
      vertex -76 7.46487 10.2745
      vertex -76 8.69375 9.2579
      vertex -39.5 8.69375 9.2579
    endloop
  endfacet
  facet normal 0 -0.637417 0.770519
    outer loop
      vertex -76 8.69375 -9.2579
      vertex -39.5 7.46487 -10.2745
      vertex -39.5 8.69375 -9.2579
    endloop
  endfacet
  facet normal 0 -0.72897 0.684546
    outer loop
      vertex -76 8.69375 -9.2579
      vertex -39.5 8.69375 -9.2579
      vertex -39.5 9.78552 -8.09528
    endloop
  endfacet
  facet normal 0 -0.72897 0.684546
    outer loop
      vertex -76 8.69375 -9.2579
      vertex -39.5 9.78552 -8.09528
      vertex -76 9.78552 -8.09528
    endloop
  endfacet
  facet normal -1 0 0
    outer loop
      vertex -76 8.69375 -9.2579
      vertex -76 9.78552 -8.09528
      vertex -76 19.05 -38.1
    endloop
  endfacet
  facet normal -1 0 0
    outer loop
      vertex -76 8.69375 9.2579
      vertex -76 19.05 38.1
      vertex -76 9.78552 8.09528
    endloop
  endfacet
  facet normal 0 -0.72897 -0.684546
    outer loop
      vertex -76 8.69375 9.2579
      vertex -76 9.78552 8.09528
      vertex -39.5 8.69375 9.2579
    endloop
  endfacet
  facet normal 0 -0.809006 0.5878
    outer loop
      vertex -76 9.78552 -8.09528
      vertex -39.5 10.723 -6.805
      vertex -76 10.723 -6.805
    endloop
  endfacet
  facet normal 0 -0.809006 0.5878
    outer loop
      vertex -76 9.78552 -8.09528
      vertex -39.5 9.78552 -8.09528
      vertex -39.5 10.723 -6.805
    endloop
  endfacet
  facet normal -1 0 0
    outer loop
      vertex -76 9.78552 -8.09528
      vertex -76 10.723 -6.805
      vertex -76 19.05 -38.1
    endloop
  endfacet
  facet normal 0 -0.72897 -0.684546
    outer loop
      vertex -76 9.78552 8.09528
      vertex -39.5 9.78552 8.09528
      vertex -39.5 8.69375 9.2579
    endloop
  endfacet
  facet normal 0 -0.809006 -0.5878
    outer loop
      vertex -76 9.78552 8.09528
      vertex -76 10.723 6.805
      vertex -39.5 9.78552 8.09528
    endloop
  endfacet
  facet normal -1 0 0
    outer loop
      vertex -76 9.78552 8.09528
      vertex -76 19.05 38.1
      vertex -76 10.723 6.805
    endloop
  endfacet
  facet normal 1 0 0
    outer loop
      vertex 0 -19.05 -38.1
      vertex 0 -1.59173 -12.5999
      vertex 0 -3.15836 -12.301
    endloop
  endfacet
  facet normal 1 0 0
    outer loop
      vertex 0 -19.05 -38.1
      vertex 0 -10.723 -6.805
      vertex 0 -11.4913 -5.4074
    endloop
  endfacet
  facet normal 1 0 0
    outer loop
      vertex 0 -19.05 -38.1
      vertex 0 -11.4913 -5.4074
      vertex 0 -12.0784 -3.92452
    endloop
  endfacet
  facet normal 1 0 0
    outer loop
      vertex 0 -19.05 -38.1
      vertex 0 -12.0784 -3.92452
      vertex 0 -12.475 -2.37974
    endloop
  endfacet
  facet normal 1 0 0
    outer loop
      vertex 0 -19.05 -38.1
      vertex 0 -12.475 -2.37974
      vertex 0 -12.6749 -0.79744
    endloop
  endfacet
  facet normal 1 0 0
    outer loop
      vertex 0 -19.05 -38.1
      vertex 0 -12.6749 -0.79744
      vertex 0 -19.05 38.1
    endloop
  endfacet
  facet normal 1 0 0
    outer loop
      vertex 0 -19.05 -38.1
      vertex 0 -3.15836 -12.301
      vertex 0 -4.67518 -11.8082
    endloop
  endfacet
  facet normal 1 0 0
    outer loop
      vertex 0 -19.05 -38.1
      vertex 0 -4.67518 -11.8082
      vertex 0 -6.11827 -11.1291
    endloop
  endfacet
  facet normal 1 0 0
    outer loop
      vertex 0 -19.05 -38.1
      vertex 0 -6.11827 -11.1291
      vertex 0 -7.46487 -10.2745
    endloop
  endfacet
  facet normal 1 0 0
    outer loop
      vertex 0 -19.05 -38.1
      vertex 0 -7.46487 -10.2745
      vertex 0 -8.69375 -9.2579
    endloop
  endfacet
  facet normal 1 0 0
    outer loop
      vertex 0 -19.05 -38.1
      vertex 0 -8.69375 -9.2579
      vertex 0 -9.78552 -8.09528
    endloop
  endfacet
  facet normal 1 0 0
    outer loop
      vertex 0 -19.05 -38.1
      vertex 0 -9.78552 -8.09528
      vertex 0 -10.723 -6.805
    endloop
  endfacet
  facet normal 1 0 0
    outer loop
      vertex 0 -19.05 -38.1
      vertex 0 0 -12.7
      vertex 0 -1.59173 -12.5999
    endloop
  endfacet
  facet normal 1 0 0
    outer loop
      vertex 0 -19.05 -38.1
      vertex 0 19.05 -38.1
      vertex 0 0 -12.7
    endloop
  endfacet
  facet normal 1 0 0
    outer loop
      vertex 0 -19.05 38.1
      vertex 0 -1.59173 12.5999
      vertex 0 0 12.7
    endloop
  endfacet
  facet normal 1 0 0
    outer loop
      vertex 0 -19.05 38.1
      vertex 0 -10.723 6.805
      vertex 0 -9.78552 8.09528
    endloop
  endfacet
  facet normal 1 0 0
    outer loop
      vertex 0 -19.05 38.1
      vertex 0 -11.4913 5.4074
      vertex 0 -10.723 6.805
    endloop
  endfacet
  facet normal 1 0 0
    outer loop
      vertex 0 -19.05 38.1
      vertex 0 -12.0784 3.92452
      vertex 0 -11.4913 5.4074
    endloop
  endfacet
  facet normal 1 0 0
    outer loop
      vertex 0 -19.05 38.1
      vertex 0 -12.475 2.37974
      vertex 0 -12.0784 3.92452
    endloop
  endfacet
  facet normal 1 0 0
    outer loop
      vertex 0 -19.05 38.1
      vertex 0 -12.6749 -0.79744
      vertex 0 -12.6749 0.79744
    endloop
  endfacet
  facet normal 1 0 0
    outer loop
      vertex 0 -19.05 38.1
      vertex 0 -12.6749 0.79744
      vertex 0 -12.475 2.37974
    endloop
  endfacet
  facet normal 1 0 0
    outer loop
      vertex 0 -19.05 38.1
      vertex 0 -3.15836 12.301
      vertex 0 -1.59173 12.5999
    endloop
  endfacet
  facet normal 1 0 0
    outer loop
      vertex 0 -19.05 38.1
      vertex 0 -4.67518 11.8082
      vertex 0 -3.15836 12.301
    endloop
  endfacet
  facet normal 1 0 0
    outer loop
      vertex 0 -19.05 38.1
      vertex 0 -6.11827 11.1291
      vertex 0 -4.67518 11.8082
    endloop
  endfacet
  facet normal 1 0 0
    outer loop
      vertex 0 -19.05 38.1
      vertex 0 -7.46487 10.2745
      vertex 0 -6.11827 11.1291
    endloop
  endfacet
  facet normal 1 0 0
    outer loop
      vertex 0 -19.05 38.1
      vertex 0 -8.69375 9.2579
      vertex 0 -7.46487 10.2745
    endloop
  endfacet
  facet normal 1 0 0
    outer loop
      vertex 0 -19.05 38.1
      vertex 0 -9.78552 8.09528
      vertex 0 -8.69375 9.2579
    endloop
  endfacet
  facet normal 1 -0 0
    outer loop
      vertex 0 -19.05 38.1
      vertex 0 0 12.7
      vertex 0 19.05 38.1
    endloop
  endfacet
  facet normal 1 -0 0
    outer loop
      vertex 0 0 -12.7
      vertex 0 19.05 -38.1
      vertex 0 1.59173 -12.5999
    endloop
  endfacet
  facet normal 1 0 0
    outer loop
      vertex 0 0 12.7
      vertex 0 1.59173 12.5999
      vertex 0 19.05 38.1
    endloop
  endfacet
  facet normal 1 -0 0
    outer loop
      vertex 0 1.59173 -12.5999
      vertex 0 19.05 -38.1
      vertex 0 3.15836 -12.301
    endloop
  endfacet
  facet normal 1 0 0
    outer loop
      vertex 0 1.59173 12.5999
      vertex 0 3.15836 12.301
      vertex 0 19.05 38.1
    endloop
  endfacet
  facet normal 1 -0 0
    outer loop
      vertex 0 10.723 -6.805
      vertex 0 19.05 -38.1
      vertex 0 11.4913 -5.4074
    endloop
  endfacet
  facet normal 1 0 0
    outer loop
      vertex 0 10.723 6.805
      vertex 0 11.4913 5.4074
      vertex 0 19.05 38.1
    endloop
  endfacet
  facet normal 1 -0 0
    outer loop
      vertex 0 11.4913 -5.4074
      vertex 0 19.05 -38.1
      vertex 0 12.0784 -3.92452
    endloop
  endfacet
  facet normal 1 0 0
    outer loop
      vertex 0 11.4913 5.4074
      vertex 0 12.0784 3.92452
      vertex 0 19.05 38.1
    endloop
  endfacet
  facet normal 1 -0 0
    outer loop
      vertex 0 12.0784 -3.92452
      vertex 0 19.05 -38.1
      vertex 0 12.475 -2.37974
    endloop
  endfacet
  facet normal 1 0 0
    outer loop
      vertex 0 12.0784 3.92452
      vertex 0 12.475 2.37974
      vertex 0 19.05 38.1
    endloop
  endfacet
  facet normal 1 -0 0
    outer loop
      vertex 0 12.475 -2.37974
      vertex 0 19.05 -38.1
      vertex 0 12.6749 -0.79744
    endloop
  endfacet
  facet normal 1 0 0
    outer loop
      vertex 0 12.475 2.37974
      vertex 0 12.6749 0.79744
      vertex 0 19.05 38.1
    endloop
  endfacet
  facet normal 1 -0 0
    outer loop
      vertex 0 12.6749 -0.79744
      vertex 0 19.05 -38.1
      vertex 0 12.6749 0.79744
    endloop
  endfacet
  facet normal 1 0 0
    outer loop
      vertex 0 12.6749 0.79744
      vertex 0 19.05 -38.1
      vertex 0 19.05 38.1
    endloop
  endfacet
  facet normal 1 -0 0
    outer loop
      vertex 0 3.15836 -12.301
      vertex 0 19.05 -38.1
      vertex 0 4.67518 -11.8082
    endloop
  endfacet
  facet normal 1 0 0
    outer loop
      vertex 0 3.15836 12.301
      vertex 0 4.67518 11.8082
      vertex 0 19.05 38.1
    endloop
  endfacet
  facet normal 1 -0 0
    outer loop
      vertex 0 4.67518 -11.8082
      vertex 0 19.05 -38.1
      vertex 0 6.11827 -11.1291
    endloop
  endfacet
  facet normal 1 0 0
    outer loop
      vertex 0 4.67518 11.8082
      vertex 0 6.11827 11.1291
      vertex 0 19.05 38.1
    endloop
  endfacet
  facet normal 1 -0 0
    outer loop
      vertex 0 6.11827 -11.1291
      vertex 0 19.05 -38.1
      vertex 0 7.46487 -10.2745
    endloop
  endfacet
  facet normal 1 0 0
    outer loop
      vertex 0 6.11827 11.1291
      vertex 0 7.46487 10.2745
      vertex 0 19.05 38.1
    endloop
  endfacet
  facet normal 1 -0 0
    outer loop
      vertex 0 7.46487 -10.2745
      vertex 0 19.05 -38.1
      vertex 0 8.69375 -9.2579
    endloop
  endfacet
  facet normal 1 0 0
    outer loop
      vertex 0 7.46487 10.2745
      vertex 0 8.69375 9.2579
      vertex 0 19.05 38.1
    endloop
  endfacet
  facet normal 1 -0 0
    outer loop
      vertex 0 8.69375 -9.2579
      vertex 0 19.05 -38.1
      vertex 0 9.78552 -8.09528
    endloop
  endfacet
  facet normal 1 0 0
    outer loop
      vertex 0 8.69375 9.2579
      vertex 0 9.78552 8.09528
      vertex 0 19.05 38.1
    endloop
  endfacet
  facet normal 1 -0 0
    outer loop
      vertex 0 9.78552 -8.09528
      vertex 0 19.05 -38.1
      vertex 0 10.723 -6.805
    endloop
  endfacet
  facet normal 1 0 0
    outer loop
      vertex 0 9.78552 8.09528
      vertex 0 10.723 6.805
      vertex 0 19.05 38.1
    endloop
  endfacet
endsolid model
