  0
SECTION
  2
BLOCKS
  0
ENDSEC
  0
SECTION
  2
ENTITIES
  0
LINE
  8
0
 10
105.163
 20
0.34259
 11
107.114
 21
1.33687
  0
LINE
  8
0
 10
107.114
 20
1.33687
 11
108.663
 21
2.8855
  0
LINE
  8
0
 10
108.663
 20
2.8855
 11
109.657
 21
4.83687
  0
LINE
  8
0
 10
109.657
 20
4.83687
 11
110
 21
7
  0
LINE
  8
0
 10
110
 20
7
 11
110
 21
10.9875
  0
LINE
  8
0
 10
110
 20
10.9875
 11
109.657
 21
13.1506
  0
LINE
  8
0
 10
109.657
 20
13.1506
 11
108.663
 21
15.102
  0
LINE
  8
0
 10
108.663
 20
15.102
 11
107.114
 21
16.6506
  0
LINE
  8
0
 10
107.114
 20
16.6506
 11
87.0989
 21
32.6631
  0
LINE
  8
0
 10
87.0989
 20
32.6631
 11
85.1475
 21
33.6574
  0
LINE
  8
0
 10
85.1475
 20
33.6574
 11
82.9844
 21
34
  0
LINE
  8
0
 10
82.9844
 20
34
 11
7
 21
34
  0
LINE
  8
0
 10
7
 20
34
 11
4.83687
 21
33.6574
  0
LINE
  8
0
 10
4.83687
 20
33.6574
 11
2.8855
 21
32.6631
  0
LINE
  8
0
 10
2.8855
 20
32.6631
 11
1.33687
 21
31.1145
  0
LINE
  8
0
 10
1.33687
 20
31.1145
 11
0.34259
 21
29.1631
  0
LINE
  8
0
 10
0.34259
 20
29.1631
 11
0
 21
27
  0
LINE
  8
0
 10
0
 20
27
 11
0
 21
7
  0
LINE
  8
0
 10
0
 20
7
 11
0.34259
 21
4.83687
  0
LINE
  8
0
 10
0.34259
 20
4.83687
 11
1.33687
 21
2.8855
  0
LINE
  8
0
 10
1.33687
 20
2.8855
 11
2.8855
 21
1.33687
  0
LINE
  8
0
 10
2.8855
 20
1.33687
 11
4.83687
 21
0.34259
  0
LINE
  8
0
 10
4.83687
 20
0.34259
 11
7
 21
0
  0
LINE
  8
0
 10
7
 20
0
 11
103
 21
0
  0
LINE
  8
0
 10
103
 20
0
 11
105.163
 21
0.34259
  0
LINE
  8
0
 10
6.85872
 20
24.7544
 11
6.57838
 21
24.7898
  0
LINE
  8
0
 10
6.57838
 20
24.7898
 11
6.3047
 21
24.8601
  0
LINE
  8
0
 10
6.3047
 20
24.8601
 11
6.04199
 21
24.9641
  0
LINE
  8
0
 10
6.04199
 20
24.9641
 11
5.79439
 21
25.1003
  0
LINE
  8
0
 10
5.79439
 20
25.1003
 11
5.5658
 21
25.2663
  0
LINE
  8
0
 10
5.5658
 20
25.2663
 11
5.35982
 21
25.4598
  0
LINE
  8
0
 10
5.35982
 20
25.4598
 11
5.1797
 21
25.6775
  0
LINE
  8
0
 10
5.1797
 20
25.6775
 11
5.02831
 21
25.916
  0
LINE
  8
0
 10
5.02831
 20
25.916
 11
4.90799
 21
26.1717
  0
LINE
  8
0
 10
4.90799
 20
26.1717
 11
4.82068
 21
26.4404
  0
LINE
  8
0
 10
4.82068
 20
26.4404
 11
4.76773
 21
26.718
  0
LINE
  8
0
 10
4.76773
 20
26.718
 11
4.75
 21
27
  0
LINE
  8
0
 10
4.75
 20
27
 11
4.76773
 21
27.282
  0
LINE
  8
0
 10
4.76773
 20
27.282
 11
4.82068
 21
27.5595
  0
LINE
  8
0
 10
4.82068
 20
27.5595
 11
4.90799
 21
27.8283
  0
LINE
  8
0
 10
4.90799
 20
27.8283
 11
5.02831
 21
28.0839
  0
LINE
  8
0
 10
5.02831
 20
28.0839
 11
5.1797
 21
28.3225
  0
LINE
  8
0
 10
5.1797
 20
28.3225
 11
5.35982
 21
28.5402
  0
LINE
  8
0
 10
5.35982
 20
28.5402
 11
5.5658
 21
28.7336
  0
LINE
  8
0
 10
5.5658
 20
28.7336
 11
5.79439
 21
28.8997
  0
LINE
  8
0
 10
5.79439
 20
28.8997
 11
6.04199
 21
29.0359
  0
LINE
  8
0
 10
6.04199
 20
29.0359
 11
6.3047
 21
29.1399
  0
LINE
  8
0
 10
6.3047
 20
29.1399
 11
6.57838
 21
29.2101
  0
LINE
  8
0
 10
6.57838
 20
29.2101
 11
6.85872
 21
29.2456
  0
LINE
  8
0
 10
6.85872
 20
29.2456
 11
7.14127
 21
29.2456
  0
LINE
  8
0
 10
7.14127
 20
29.2456
 11
7.4216
 21
29.2101
  0
LINE
  8
0
 10
7.4216
 20
29.2101
 11
7.69528
 21
29.1399
  0
LINE
  8
0
 10
7.69528
 20
29.1399
 11
7.95799
 21
29.0359
  0
LINE
  8
0
 10
7.95799
 20
29.0359
 11
8.2056
 21
28.8997
  0
LINE
  8
0
 10
8.2056
 20
28.8997
 11
8.43419
 21
28.7336
  0
LINE
  8
0
 10
8.43419
 20
28.7336
 11
8.64017
 21
28.5402
  0
LINE
  8
0
 10
8.64017
 20
28.5402
 11
8.82028
 21
28.3225
  0
LINE
  8
0
 10
8.82028
 20
28.3225
 11
8.97168
 21
28.0839
  0
LINE
  8
0
 10
8.97168
 20
28.0839
 11
9.092
 21
27.8283
  0
LINE
  8
0
 10
9.092
 20
27.8283
 11
9.17931
 21
27.5595
  0
LINE
  8
0
 10
9.17931
 20
27.5595
 11
9.23225
 21
27.282
  0
LINE
  8
0
 10
9.23225
 20
27.282
 11
9.25
 21
27
  0
LINE
  8
0
 10
9.25
 20
27
 11
9.23225
 21
26.718
  0
LINE
  8
0
 10
9.23225
 20
26.718
 11
9.17931
 21
26.4404
  0
LINE
  8
0
 10
9.17931
 20
26.4404
 11
9.092
 21
26.1717
  0
LINE
  8
0
 10
9.092
 20
26.1717
 11
8.97168
 21
25.916
  0
LINE
  8
0
 10
8.97168
 20
25.916
 11
8.82028
 21
25.6775
  0
LINE
  8
0
 10
8.82028
 20
25.6775
 11
8.64017
 21
25.4598
  0
LINE
  8
0
 10
8.64017
 20
25.4598
 11
8.43419
 21
25.2663
  0
LINE
  8
0
 10
8.43419
 20
25.2663
 11
8.2056
 21
25.1003
  0
LINE
  8
0
 10
8.2056
 20
25.1003
 11
7.95799
 21
24.9641
  0
LINE
  8
0
 10
7.95799
 20
24.9641
 11
7.69528
 21
24.8601
  0
LINE
  8
0
 10
7.69528
 20
24.8601
 11
7.4216
 21
24.7898
  0
LINE
  8
0
 10
7.4216
 20
24.7898
 11
7.14127
 21
24.7544
  0
LINE
  8
0
 10
7.14127
 20
24.7544
 11
6.85872
 21
24.7544
  0
LINE
  8
0
 10
42.4438
 20
23.2881
 11
41.5438
 21
23.942
  0
LINE
  8
0
 10
41.5438
 20
23.942
 11
41.2
 21
25
  0
LINE
  8
0
 10
41.2
 20
25
 11
41.5438
 21
26.058
  0
LINE
  8
0
 10
41.5438
 20
26.058
 11
42.4438
 21
26.7119
  0
LINE
  8
0
 10
42.4438
 20
26.7119
 11
43.5562
 21
26.7119
  0
LINE
  8
0
 10
43.5562
 20
26.7119
 11
44.4562
 21
26.058
  0
LINE
  8
0
 10
44.4562
 20
26.058
 11
44.8
 21
25
  0
LINE
  8
0
 10
44.8
 20
25
 11
44.4562
 21
23.942
  0
LINE
  8
0
 10
44.4562
 20
23.942
 11
43.5562
 21
23.2881
  0
LINE
  8
0
 10
43.5562
 20
23.2881
 11
42.4438
 21
23.2881
  0
LINE
  8
0
 10
82.4438
 20
21.2881
 11
81.5438
 21
21.942
  0
LINE
  8
0
 10
81.5438
 20
21.942
 11
81.2
 21
23
  0
LINE
  8
0
 10
81.2
 20
23
 11
81.5438
 21
24.058
  0
LINE
  8
0
 10
81.5438
 20
24.058
 11
82.4438
 21
24.7119
  0
LINE
  8
0
 10
82.4438
 20
24.7119
 11
83.5562
 21
24.7119
  0
LINE
  8
0
 10
83.5562
 20
24.7119
 11
84.4562
 21
24.058
  0
LINE
  8
0
 10
84.4562
 20
24.058
 11
84.8
 21
23
  0
LINE
  8
0
 10
84.8
 20
23
 11
84.4562
 21
21.942
  0
LINE
  8
0
 10
84.4562
 20
21.942
 11
83.5562
 21
21.2881
  0
LINE
  8
0
 10
83.5562
 20
21.2881
 11
82.4438
 21
21.2881
  0
LINE
  8
0
 10
6.85872
 20
4.75443
 11
6.57838
 21
4.78984
  0
LINE
  8
0
 10
6.57838
 20
4.78984
 11
6.3047
 21
4.86012
  0
LINE
  8
0
 10
6.3047
 20
4.86012
 11
6.04199
 21
4.96413
  0
LINE
  8
0
 10
6.04199
 20
4.96413
 11
5.79439
 21
5.10025
  0
LINE
  8
0
 10
5.79439
 20
5.10025
 11
5.5658
 21
5.26634
  0
LINE
  8
0
 10
5.5658
 20
5.26634
 11
5.35982
 21
5.45976
  0
LINE
  8
0
 10
5.35982
 20
5.45976
 11
5.1797
 21
5.67747
  0
LINE
  8
0
 10
5.1797
 20
5.67747
 11
5.02831
 21
5.91605
  0
LINE
  8
0
 10
5.02831
 20
5.91605
 11
4.90799
 21
6.17171
  0
LINE
  8
0
 10
4.90799
 20
6.17171
 11
4.82068
 21
6.44044
  0
LINE
  8
0
 10
4.82068
 20
6.44044
 11
4.76773
 21
6.71799
  0
LINE
  8
0
 10
4.76773
 20
6.71799
 11
4.75
 21
7
  0
LINE
  8
0
 10
4.75
 20
7
 11
4.76773
 21
7.282
  0
LINE
  8
0
 10
4.76773
 20
7.282
 11
4.82068
 21
7.55954
  0
LINE
  8
0
 10
4.82068
 20
7.55954
 11
4.90799
 21
7.82828
  0
LINE
  8
0
 10
4.90799
 20
7.82828
 11
5.02831
 21
8.08394
  0
LINE
  8
0
 10
5.02831
 20
8.08394
 11
5.1797
 21
8.32251
  0
LINE
  8
0
 10
5.1797
 20
8.32251
 11
5.35982
 21
8.54022
  0
LINE
  8
0
 10
5.35982
 20
8.54022
 11
5.5658
 21
8.73364
  0
LINE
  8
0
 10
5.5658
 20
8.73364
 11
5.79439
 21
8.89973
  0
LINE
  8
0
 10
5.79439
 20
8.89973
 11
6.04199
 21
9.03586
  0
LINE
  8
0
 10
6.04199
 20
9.03586
 11
6.3047
 21
9.13986
  0
LINE
  8
0
 10
6.3047
 20
9.13986
 11
6.57838
 21
9.21014
  0
LINE
  8
0
 10
6.57838
 20
9.21014
 11
6.85872
 21
9.24556
  0
LINE
  8
0
 10
6.85872
 20
9.24556
 11
7.14127
 21
9.24556
  0
LINE
  8
0
 10
7.14127
 20
9.24556
 11
7.4216
 21
9.21014
  0
LINE
  8
0
 10
7.4216
 20
9.21014
 11
7.69528
 21
9.13986
  0
LINE
  8
0
 10
7.69528
 20
9.13986
 11
7.95799
 21
9.03586
  0
LINE
  8
0
 10
7.95799
 20
9.03586
 11
8.2056
 21
8.89973
  0
LINE
  8
0
 10
8.2056
 20
8.89973
 11
8.43419
 21
8.73364
  0
LINE
  8
0
 10
8.43419
 20
8.73364
 11
8.64017
 21
8.54022
  0
LINE
  8
0
 10
8.64017
 20
8.54022
 11
8.82028
 21
8.32251
  0
LINE
  8
0
 10
8.82028
 20
8.32251
 11
8.97168
 21
8.08394
  0
LINE
  8
0
 10
8.97168
 20
8.08394
 11
9.092
 21
7.82828
  0
LINE
  8
0
 10
9.092
 20
7.82828
 11
9.17931
 21
7.55954
  0
LINE
  8
0
 10
9.17931
 20
7.55954
 11
9.23225
 21
7.282
  0
LINE
  8
0
 10
9.23225
 20
7.282
 11
9.25
 21
7
  0
LINE
  8
0
 10
9.25
 20
7
 11
9.23225
 21
6.71799
  0
LINE
  8
0
 10
9.23225
 20
6.71799
 11
9.17931
 21
6.44044
  0
LINE
  8
0
 10
9.17931
 20
6.44044
 11
9.092
 21
6.17171
  0
LINE
  8
0
 10
9.092
 20
6.17171
 11
8.97168
 21
5.91605
  0
LINE
  8
0
 10
8.97168
 20
5.91605
 11
8.82028
 21
5.67747
  0
LINE
  8
0
 10
8.82028
 20
5.67747
 11
8.64017
 21
5.45976
  0
LINE
  8
0
 10
8.64017
 20
5.45976
 11
8.43419
 21
5.26634
  0
LINE
  8
0
 10
8.43419
 20
5.26634
 11
8.2056
 21
5.10025
  0
LINE
  8
0
 10
8.2056
 20
5.10025
 11
7.95799
 21
4.96413
  0
LINE
  8
0
 10
7.95799
 20
4.96413
 11
7.69528
 21
4.86012
  0
LINE
  8
0
 10
7.69528
 20
4.86012
 11
7.4216
 21
4.78984
  0
LINE
  8
0
 10
7.4216
 20
4.78984
 11
7.14127
 21
4.75443
  0
LINE
  8
0
 10
7.14127
 20
4.75443
 11
6.85872
 21
4.75443
  0
LINE
  8
0
 10
62.4438
 20
5.28809
 11
61.5438
 21
5.94199
  0
LINE
  8
0
 10
61.5438
 20
5.94199
 11
61.2
 21
7
  0
LINE
  8
0
 10
61.2
 20
7
 11
61.5438
 21
8.058
  0
LINE
  8
0
 10
61.5438
 20
8.058
 11
62.4438
 21
8.7119
  0
LINE
  8
0
 10
62.4438
 20
8.7119
 11
63.5562
 21
8.7119
  0
LINE
  8
0
 10
63.5562
 20
8.7119
 11
64.4562
 21
8.058
  0
LINE
  8
0
 10
64.4562
 20
8.058
 11
64.8
 21
7
  0
LINE
  8
0
 10
64.8
 20
7
 11
64.4562
 21
5.94199
  0
LINE
  8
0
 10
64.4562
 20
5.94199
 11
63.5562
 21
5.28809
  0
LINE
  8
0
 10
63.5562
 20
5.28809
 11
62.4438
 21
5.28809
  0
LINE
  8
0
 10
102.444
 20
5.28809
 11
101.544
 21
5.94199
  0
LINE
  8
0
 10
101.544
 20
5.94199
 11
101.2
 21
7
  0
LINE
  8
0
 10
101.2
 20
7
 11
101.544
 21
8.058
  0
LINE
  8
0
 10
101.544
 20
8.058
 11
102.444
 21
8.7119
  0
LINE
  8
0
 10
102.444
 20
8.7119
 11
103.556
 21
8.7119
  0
LINE
  8
0
 10
103.556
 20
8.7119
 11
104.456
 21
8.058
  0
LINE
  8
0
 10
104.456
 20
8.058
 11
104.8
 21
7
  0
LINE
  8
0
 10
104.8
 20
7
 11
104.456
 21
5.94199
  0
LINE
  8
0
 10
104.456
 20
5.94199
 11
103.556
 21
5.28809
  0
LINE
  8
0
 10
103.556
 20
5.28809
 11
102.444
 21
5.28809
  0
LINE
  8
0
 10
22.4438
 20
5.28809
 11
21.5438
 21
5.94199
  0
LINE
  8
0
 10
21.5438
 20
5.94199
 11
21.2
 21
7
  0
LINE
  8
0
 10
21.2
 20
7
 11
21.5438
 21
8.058
  0
LINE
  8
0
 10
21.5438
 20
8.058
 11
22.4438
 21
8.7119
  0
LINE
  8
0
 10
22.4438
 20
8.7119
 11
23.5562
 21
8.7119
  0
LINE
  8
0
 10
23.5562
 20
8.7119
 11
24.4562
 21
8.058
  0
LINE
  8
0
 10
24.4562
 20
8.058
 11
24.8
 21
7
  0
LINE
  8
0
 10
24.8
 20
7
 11
24.4562
 21
5.94199
  0
LINE
  8
0
 10
24.4562
 20
5.94199
 11
23.5562
 21
5.28809
  0
LINE
  8
0
 10
23.5562
 20
5.28809
 11
22.4438
 21
5.28809
  0
ENDSEC
  0
SECTION
  2
OBJECTS
  0
DICTIONARY
  0
ENDSEC
  0
EOF
