999
dxfrw 0.6.3
  0
SECTION
  2
HEADER
  9
$ACADVER
  1
AC1021
  9
$DWGCODEPAGE
  3
ANSI_1250
  9
$INSBASE
 10
0
 20
0
 30
0
  9
$EXTMIN
 10
0
 20
0
 30
0
  9
$EXTMAX
 10
420
 20
297.0000076293946
 30
0
  9
$LIMMIN
 10
0
 20
0
  9
$LIMMAX
 10
420
 20
297
  9
$ORTHOMODE
 70
    0
  9
$REGENMODE
 70
    1
  9
$FILLMODE
 70
    1
  9
$QTEXTMODE
 70
    0
  9
$MIRRTEXT
 70
    0
  9
$LTSCALE
 40
1
  9
$ATTMODE
 70
    1
  9
$TEXTSIZE
 40
0.2
  9
$TRACEWID
 40
0.05
  9
$TEXTSTYLE
  7
Standard
  9
$CLAYER
  8
Viditelná (ISO)
  9
$CELTYPE
  6
ByLayer
  9
$CECOLOR
 62
  256
  9
$CELTSCALE
 40
1
  9
$DISPSILH
 70
    0
  9
$DIMSCALE
 40
1
  9
$DIMASZ
 40
1.8
  9
$DIMEXO
 40
0.0625
  9
$DIMDLI
 40
0.38
  9
$DIMRND
 40
0
  9
$DIMDLE
 40
0
  9
$DIMEXE
 40
0.18
  9
$DIMTP
 40
0
  9
$DIMTM
 40
0
  9
$DIMTXT
 40
0.35
  9
$DIMCEN
 40
0.09
  9
$DIMTSZ
 40
0
  9
$DIMTOL
 70
    0
  9
$DIMLIM
 70
    0
  9
$DIMTIH
 70
    1
  9
$DIMTOH
 70
    1
  9
$DIMSE1
 70
    0
  9
$DIMSE2
 70
    0
  9
$DIMTAD
 70
    0
  9
$DIMZIN
 70
    0
  9
$DIMBLK
  1

  9
$DIMASO
 70
    1
  9
$DIMSHO
 70
    1
  9
$DIMPOST
  1

  9
$DIMAPOST
  1

  9
$DIMALT
 70
    0
  9
$DIMALTD
 70
    2
  9
$DIMALTF
 40
25.4
  9
$DIMLFAC
 40
1
  9
$DIMTOFL
 70
    0
  9
$DIMTVP
 40
0
  9
$DIMTIX
 70
    0
  9
$DIMSOXD
 70
    0
  9
$DIMSAH
 70
    0
  9
$DIMBLK1
  1

  9
$DIMBLK2
  1

  9
$DIMSTYLE
  2
Standard
  9
$DIMCLRD
 70
    0
  9
$DIMCLRE
 70
    0
  9
$DIMCLRT
 70
    0
  9
$DIMTFAC
 40
1
  9
$DIMGAP
 40
0.09
  9
$DIMJUST
 70
    0
  9
$DIMSD1
 70
    0
  9
$DIMSD2
 70
    0
  9
$DIMTOLJ
 70
    1
  9
$DIMTZIN
 70
    0
  9
$DIMALTZ
 70
    0
  9
$DIMALTTZ
 70
    0
  9
$DIMUPT
 70
    0
  9
$DIMDEC
 70
    4
  9
$DIMTDEC
 70
    4
  9
$DIMALTU
 70
    2
  9
$DIMALTTD
 70
    2
  9
$DIMTXSTY
  7
standard
  9
$DIMAUNIT
 70
    0
  9
$DIMADEC
 70
    0
  9
$DIMALTRND
 40
0
  9
$DIMAZIN
 70
    0
  9
$DIMDSEP
 70
    0
  9
$DIMATFIT
 70
    3
  9
$DIMFRAC
 70
    0
  9
$DIMLDRBLK
  1

  9
$DIMLUNIT
 70
    2
  9
$DIMLWD
 70
   -2
  9
$DIMLWE
 70
   -2
  9
$DIMTMOVE
 70
    0
  9
$DIMFXL
 40
1
  9
$DIMFXLON
 70
    0
  9
$DIMJOGANG
 40
0.7853981633974483
  9
$DIMTFILL
 70
    0
  9
$DIMTFILLCLR
 70
    0
  9
$DIMARCSYM
 70
    0
  9
$DIMLTYPE
  6

  9
$DIMLTEX1
  6

  9
$DIMLTEX2
  6

  9
$LUNITS
 70
    2
  9
$LUPREC
 70
    4
  9
$SKETCHINC
 40
0.1
  9
$FILLETRAD
 40
0
  9
$AUNITS
 70
    0
  9
$AUPREC
 70
    0
  9
$MENU
  1
.
  9
$ELEVATION
 40
0
  9
$PELEVATION
 40
0
  9
$THICKNESS
 40
0
  9
$LIMCHECK
 70
    0
  9
$CHAMFERA
 40
0
  9
$CHAMFERB
 40
0
  9
$CHAMFERC
 40
0
  9
$CHAMFERD
 40
0
  9
$SKPOLY
 70
    0
  9
$USRTIMER
 70
    1
  9
$ANGBASE
 50
0
  9
$ANGDIR
 70
    0
  9
$PDMODE
 70
    0
  9
$PDSIZE
 40
0
  9
$PLINEWID
 40
0
  9
$SPLFRAME
 70
    0
  9
$SPLINETYPE
 70
    6
  9
$SPLINESEGS
 70
    8
  9
$HANDSEED
  5
20000
  9
$SURFTAB1
 70
    6
  9
$SURFTAB2
 70
    6
  9
$SURFTYPE
 70
    6
  9
$SURFU
 70
    6
  9
$SURFV
 70
    6
  9
$UCSBASE
  2

  9
$UCSNAME
  2

  9
$UCSORG
 10
0
 20
0
 30
0
  9
$UCSXDIR
 10
1
 20
0
 30
0
  9
$UCSYDIR
 10
0
 20
1
 30
0
  9
$UCSORTHOREF
  2

  9
$UCSORTHOVIEW
 70
    0
  9
$UCSORGTOP
 10
0
 20
0
 30
0
  9
$UCSORGBOTTOM
 10
0
 20
0
 30
0
  9
$UCSORGLEFT
 10
0
 20
0
 30
0
  9
$UCSORGRIGHT
 10
0
 20
0
 30
0
  9
$UCSORGFRONT
 10
0
 20
0
 30
0
  9
$UCSORGBACK
 10
0
 20
0
 30
0
  9
$PUCSBASE
  2

  9
$PUCSNAME
  2

  9
$PUCSORG
 10
0
 20
0
 30
0
  9
$PUCSXDIR
 10
1
 20
0
 30
0
  9
$PUCSYDIR
 10
0
 20
1
 30
0
  9
$PUCSORTHOREF
  2

  9
$PUCSORTHOVIEW
 70
    0
  9
$PUCSORGTOP
 10
0
 20
0
 30
0
  9
$PUCSORGBOTTOM
 10
0
 20
0
 30
0
  9
$PUCSORGLEFT
 10
0
 20
0
 30
0
  9
$PUCSORGRIGHT
 10
0
 20
0
 30
0
  9
$PUCSORGFRONT
 10
0
 20
0
 30
0
  9
$PUCSORGBACK
 10
0
 20
0
 30
0
  9
$USERI1
 70
    0
  9
$USERI2
 70
    0
  9
$USERI3
 70
    0
  9
$USERI4
 70
    0
  9
$USERI5
 70
    0
  9
$USERR1
 40
0
  9
$USERR2
 40
0
  9
$USERR3
 40
0
  9
$USERR4
 40
0
  9
$USERR5
 40
0
  9
$WORLDVIEW
 70
    1
  9
$SHADEDGE
 70
    3
  9
$SHADEDIF
 70
   70
  9
$TILEMODE
 70
    1
  9
$MAXACTVP
 70
   64
  9
$PINSBASE
 10
12.5
 20
83.08928403400239
 30
0
  9
$PLIMCHECK
 70
    0
  9
$PEXTMIN
 10
0
 20
0
 30
0
  9
$PEXTMAX
 10
420
 20
297
 30
0
  9
$GRIDMODE
 70
    0
  9
$SNAPSTYLE
 70
    0
  9
$GRIDUNIT
 10
0
 20
0
  9
$PLIMMIN
 10
0
 20
0
  9
$PLIMMAX
 10
210
 20
297
  9
$UNITMODE
 70
    0
  9
$VISRETAIN
 70
    1
  9
$PLINEGEN
 70
    0
  9
$PSLTSCALE
 70
    1
  9
$TREEDEPTH
 70
 3020
  9
$CMLSTYLE
  2
Standard
  9
$CMLJUST
 70
    0
  9
$CMLSCALE
 40
1
  9
$PROXYGRAPHICS
 70
    1
  9
$MEASUREMENT
 70
    1
  9
$CELWEIGHT
370
   -1
  9
$ENDCAPS
280
    0
  9
$JOINSTYLE
280
    0
  9
$LWDISPLAY
290
    0
  9
$INSUNITS
 70
    4
  9
$HYPERLINKBASE
  1

  9
$STYLESHEET
  1

  9
$XEDIT
290
    1
  9
$CEPSNTYPE
380
    0
  9
$PSTYLEMODE
290
    1
  9
$EXTNAMES
290
    1
  9
$PSVPSCALE
 40
0.4404762429138385
  9
$OLESTARTUP
290
    0
  9
$SORTENTS
280
  127
  9
$INDEXCTL
280
    0
  9
$HIDETEXT
280
    1
  9
$XCLIPFRAME
290
    2
  9
$HALOGAP
280
    0
  9
$OBSCOLOR
 70
  257
  9
$OBSLTYPE
280
    0
  9
$INTERSECTIONDISPLAY
280
    0
  9
$INTERSECTIONCOLOR
 70
  257
  9
$DIMASSOC
280
    1
  9
$PROJECTNAME
  1

  9
$CAMERADISPLAY
290
    0
  9
$LENSLENGTH
 40
50
  9
$CAMERAHEIGHT
 40
0
  9
$STEPSPERSEC
 40
2
  9
$STEPSIZE
 40
6
  9
$3DDWFPREC
 40
2
  9
$PSOLWIDTH
 40
0.25
  9
$PSOLHEIGHT
 40
4
  9
$LOFTANG1
 40
1.570796326794896
  9
$LOFTANG2
 40
1.570796326794896
  9
$LOFTMAG1
 40
0
  9
$LOFTMAG2
 40
0
  9
$LOFTPARAM
 70
    7
  9
$LOFTNORMALS
280
    1
  9
$LATITUDE
 40
37.795
  9
$LONGITUDE
 40
-122.394
  9
$NORTHDIRECTION
 40
0
  9
$TIMEZONE
 70
-8000
  9
$LIGHTGLYPHDISPLAY
280
    1
  9
$TILEMODELIGHTSYNCH
280
    1
  9
$SOLIDHIST
280
    1
  9
$SHOWHIST
280
    1
  9
$DWFFRAME
280
    2
  9
$DGNFRAME
280
    0
  9
$REALWORLDSCALE
290
    1
  9
$INTERFERECOLOR
 62
    1
  9
$CSHADOW
280
    0
  9
$SHADOWPLANELOCATION
 40
0
  0
ENDSEC
  0
SECTION
  2
CLASSES
  0
ENDSEC
  0
SECTION
  2
TABLES
  0
TABLE
  2
VPORT
  5
8
330
0
100
AcDbSymbolTable
 70
    1
  0
VPORT
  5
31
330
2
100
AcDbSymbolTableRecord
100
AcDbViewportTableRecord
  2
*ACTIVE
 70
    0
 10
0
 20
0
 11
1
 21
1
 12
337.015455498692
 22
180.9560463758743
 13
0
 23
0
 14
10
 24
10
 15
10
 25
10
 16
0
 26
0
 36
1
 17
0
 27
0
 37
0
 40
468.3806390534374
 41
1.842696629213483
 42
50
 43
0
 44
0
 50
0
 51
0
 71
    0
 72
  100
 73
    1
 74
    3
 75
    0
 76
    0
 77
    0
 78
    0
281
    0
 65
    1
110
0
120
0
130
0
111
1
121
0
131
0
112
0
122
1
132
0
 79
    0
146
0
348
10020
 60
    7
 61
    5
292
1
282
    1
141
0
142
0
 63
  250
421
3358443
  0
ENDTAB
  0
TABLE
  2
LTYPE
  5
5
330
0
100
AcDbSymbolTable
 70
    4
  0
LTYPE
  5
14
330
5
100
AcDbSymbolTableRecord
100
AcDbLinetypeTableRecord
  2
ByBlock
 70
    0
  3

 72
   65
 73
    0
 40
0
  0
LTYPE
  5
15
330
5
100
AcDbSymbolTableRecord
100
AcDbLinetypeTableRecord
  2
ByLayer
 70
    0
  3

 72
   65
 73
    0
 40
0
  0
LTYPE
  5
16
330
5
100
AcDbSymbolTableRecord
100
AcDbLinetypeTableRecord
  2
Continuous
 70
    0
  3
Solid line
 72
   65
 73
    0
 40
0
  0
LTYPE
  5
32
330
5
100
AcDbSymbolTableRecord
100
AcDbLinetypeTableRecord
  2
DOT
 70
    0
  3
Dot . . . . . . . . . . . . . . . . . . . . . .
 72
   65
 73
    2
 40
6.35
 49
0
 74
    0
 49
-6.35
 74
    0
  0
LTYPE
  5
33
330
5
100
AcDbSymbolTableRecord
100
AcDbLinetypeTableRecord
  2
DOTTINY
 70
    0
  3
Dot (.15x) .....................................
 72
   65
 73
    2
 40
0.9525
 49
0
 74
    0
 49
-0.9525
 74
    0
  0
LTYPE
  5
34
330
5
100
AcDbSymbolTableRecord
100
AcDbLinetypeTableRecord
  2
DOT2
 70
    0
  3
Dot (.5x) .....................................
 72
   65
 73
    2
 40
3.175
 49
0
 74
    0
 49
-3.175
 74
    0
  0
LTYPE
  5
35
330
5
100
AcDbSymbolTableRecord
100
AcDbLinetypeTableRecord
  2
DOTX2
 70
    0
  3
Dot (2x) .  .  .  .  .  .  .  .  .  .  .  .  .
 72
   65
 73
    2
 40
12.7
 49
0
 74
    0
 49
-12.7
 74
    0
  0
LTYPE
  5
36
330
5
100
AcDbSymbolTableRecord
100
AcDbLinetypeTableRecord
  2
DASHED
 70
    0
  3
Dashed _ _ _ _ _ _ _ _ _ _ _ _ _ _ _ _ _
 72
   65
 73
    2
 40
19.05
 49
12.7
 74
    0
 49
-6.35
 74
    0
  0
LTYPE
  5
37
330
5
100
AcDbSymbolTableRecord
100
AcDbLinetypeTableRecord
  2
DASHEDTINY
 70
    0
  3
Dashed (.15x) _ _ _ _ _ _ _ _ _ _ _ _ _ _ _ _ _
 72
   65
 73
    2
 40
2.8575
 49
1.905
 74
    0
 49
-0.9525
 74
    0
  0
LTYPE
  5
38
330
5
100
AcDbSymbolTableRecord
100
AcDbLinetypeTableRecord
  2
DASHED2
 70
    0
  3
Dashed (.5x) _ _ _ _ _ _ _ _ _ _ _ _ _ _ _ _ _
 72
   65
 73
    2
 40
9.524999999999999
 49
6.35
 74
    0
 49
-3.175
 74
    0
  0
LTYPE
  5
39
330
5
100
AcDbSymbolTableRecord
100
AcDbLinetypeTableRecord
  2
DASHEDX2
 70
    0
  3
Dashed (2x) ____  ____  ____  ____  ____  ___
 72
   65
 73
    2
 40
38.09999999999999
 49
25.4
 74
    0
 49
-12.7
 74
    0
  0
LTYPE
  5
3A
330
5
100
AcDbSymbolTableRecord
100
AcDbLinetypeTableRecord
  2
DASHDOT
 70
    0
  3
Dash dot __ . __ . __ . __ . __ . __ . __ . __
 72
   65
 73
    4
 40
25.4
 49
12.7
 74
    0
 49
-6.35
 74
    0
 49
0
 74
    0
 49
-6.35
 74
    0
  0
LTYPE
  5
3B
330
5
100
AcDbSymbolTableRecord
100
AcDbLinetypeTableRecord
  2
DASHDOTTINY
 70
    0
  3
Dash dot (.15x) _._._._._._._._._._._._._._._.
 72
   65
 73
    4
 40
3.81
 49
1.905
 74
    0
 49
-0.9525
 74
    0
 49
0
 74
    0
 49
-0.9525
 74
    0
  0
LTYPE
  5
3C
330
5
100
AcDbSymbolTableRecord
100
AcDbLinetypeTableRecord
  2
DASHDOT2
 70
    0
  3
Dash dot (.5x) _._._._._._._._._._._._._._._.
 72
   65
 73
    4
 40
12.7
 49
6.35
 74
    0
 49
-3.175
 74
    0
 49
0
 74
    0
 49
-3.175
 74
    0
  0
LTYPE
  5
3D
330
5
100
AcDbSymbolTableRecord
100
AcDbLinetypeTableRecord
  2
DASHDOTX2
 70
    0
  3
Dash dot (2x) ____  .  ____  .  ____  .  ___
 72
   65
 73
    4
 40
50.8
 49
25.4
 74
    0
 49
-12.7
 74
    0
 49
0
 74
    0
 49
-12.7
 74
    0
  0
LTYPE
  5
3E
330
5
100
AcDbSymbolTableRecord
100
AcDbLinetypeTableRecord
  2
DIVIDE
 70
    0
  3
Divide ____ . . ____ . . ____ . . ____ . . ____
 72
   65
 73
    6
 40
31.75
 49
12.7
 74
    0
 49
-6.35
 74
    0
 49
0
 74
    0
 49
-6.35
 74
    0
 49
0
 74
    0
 49
-6.35
 74
    0
  0
LTYPE
  5
3F
330
5
100
AcDbSymbolTableRecord
100
AcDbLinetypeTableRecord
  2
DIVIDETINY
 70
    0
  3
Divide (.15x) __..__..__..__..__..__..__..__.._
 72
   65
 73
    6
 40
4.7625
 49
1.905
 74
    0
 49
-0.9525
 74
    0
 49
0
 74
    0
 49
-0.9525
 74
    0
 49
0
 74
    0
 49
-0.9525
 74
    0
  0
LTYPE
  5
40
330
5
100
AcDbSymbolTableRecord
100
AcDbLinetypeTableRecord
  2
DIVIDE2
 70
    0
  3
Divide (.5x) __..__..__..__..__..__..__..__.._
 72
   65
 73
    6
 40
15.875
 49
6.35
 74
    0
 49
-3.175
 74
    0
 49
0
 74
    0
 49
-3.175
 74
    0
 49
0
 74
    0
 49
-3.175
 74
    0
  0
LTYPE
  5
41
330
5
100
AcDbSymbolTableRecord
100
AcDbLinetypeTableRecord
  2
DIVIDEX2
 70
    0
  3
Divide (2x) ________  .  .  ________  .  .  _
 72
   65
 73
    6
 40
63.5
 49
25.4
 74
    0
 49
-12.7
 74
    0
 49
0
 74
    0
 49
-12.7
 74
    0
 49
0
 74
    0
 49
-12.7
 74
    0
  0
LTYPE
  5
42
330
5
100
AcDbSymbolTableRecord
100
AcDbLinetypeTableRecord
  2
BORDER
 70
    0
  3
Border __ __ . __ __ . __ __ . __ __ . __ __ .
 72
   65
 73
    6
 40
44.45
 49
12.7
 74
    0
 49
-6.35
 74
    0
 49
12.7
 74
    0
 49
-6.35
 74
    0
 49
0
 74
    0
 49
-6.35
 74
    0
  0
LTYPE
  5
43
330
5
100
AcDbSymbolTableRecord
100
AcDbLinetypeTableRecord
  2
BORDERTINY
 70
    0
  3
Border (.15x) __.__.__.__.__.__.__.__.__.__.__.
 72
   65
 73
    6
 40
6.6675
 49
1.905
 74
    0
 49
-0.9525
 74
    0
 49
1.905
 74
    0
 49
-0.9525
 74
    0
 49
0
 74
    0
 49
-0.9525
 74
    0
  0
LTYPE
  5
44
330
5
100
AcDbSymbolTableRecord
100
AcDbLinetypeTableRecord
  2
BORDER2
 70
    0
  3
Border (.5x) __.__.__.__.__.__.__.__.__.__.__.
 72
   65
 73
    6
 40
22.225
 49
6.35
 74
    0
 49
-3.175
 74
    0
 49
6.35
 74
    0
 49
-3.175
 74
    0
 49
0
 74
    0
 49
-3.175
 74
    0
  0
LTYPE
  5
45
330
5
100
AcDbSymbolTableRecord
100
AcDbLinetypeTableRecord
  2
BORDERX2
 70
    0
  3
Border (2x) ____  ____  .  ____  ____  .  ___
 72
   65
 73
    6
 40
88.89999999999999
 49
25.4
 74
    0
 49
-12.7
 74
    0
 49
25.4
 74
    0
 49
-12.7
 74
    0
 49
0
 74
    0
 49
-12.7
 74
    0
  0
LTYPE
  5
46
330
5
100
AcDbSymbolTableRecord
100
AcDbLinetypeTableRecord
  2
CENTER
 70
    0
  3
Center ____ _ ____ _ ____ _ ____ _ ____ _ ____
 72
   65
 73
    4
 40
50.8
 49
31.75
 74
    0
 49
-6.35
 74
    0
 49
6.35
 74
    0
 49
-6.35
 74
    0
  0
LTYPE
  5
47
330
5
100
AcDbSymbolTableRecord
100
AcDbLinetypeTableRecord
  2
CENTERTINY
 70
    0
  3
Center (.15x) ___ _ ___ _ ___ _ ___ _ ___ _ ___
 72
   65
 73
    4
 40
7.62
 49
4.7625
 74
    0
 49
-0.9525
 74
    0
 49
0.9525
 74
    0
 49
-0.9525
 74
    0
  0
LTYPE
  5
48
330
5
100
AcDbSymbolTableRecord
100
AcDbLinetypeTableRecord
  2
CENTER2
 70
    0
  3
Center (.5x) ___ _ ___ _ ___ _ ___ _ ___ _ ___
 72
   65
 73
    4
 40
28.575
 49
19.05
 74
    0
 49
-3.175
 74
    0
 49
3.175
 74
    0
 49
-3.175
 74
    0
  0
LTYPE
  5
49
330
5
100
AcDbSymbolTableRecord
100
AcDbLinetypeTableRecord
  2
CENTERX2
 70
    0
  3
Center (2x) ________  __  ________  __  _____
 72
   65
 73
    4
 40
101.6
 49
63.5
 74
    0
 49
-12.7
 74
    0
 49
12.7
 74
    0
 49
-12.7
 74
    0
  0
ENDTAB
  0
TABLE
  2
LAYER
  5
2
330
0
100
AcDbSymbolTable
 70
    1
  0
LAYER
  5
10
330
2
100
AcDbSymbolTableRecord
100
AcDbLayerTableRecord
  2
0
 70
    0
 62
    7
  6
CONTINUOUS
370
   -3
390
F
  0
LAYER
  5
4A
330
2
100
AcDbSymbolTableRecord
100
AcDbLayerTableRecord
  2
Defpoints
 70
    0
 62
    7
  6
CONTINUOUS
290
0
370
   -3
390
F
1001
LibreCad
1070
    1
  0
LAYER
  5
4B
330
2
100
AcDbSymbolTableRecord
100
AcDbLayerTableRecord
  2
Kóta (ISO)
 70
    0
 62
    7
  6
CONTINUOUS
370
   25
390
F
  0
LAYER
  5
4C
330
2
100
AcDbSymbolTableRecord
100
AcDbLayerTableRecord
  2
Nadpis (ISO)
 70
    0
 62
    7
  6
CONTINUOUS
370
   50
390
F
  0
LAYER
  5
4D
330
2
100
AcDbSymbolTableRecord
100
AcDbLayerTableRecord
  2
Osa (ISO)
 70
    0
 62
    7
  6
CONTINUOUS
370
   25
390
F
  0
LAYER
  5
4E
330
2
100
AcDbSymbolTableRecord
100
AcDbLayerTableRecord
  2
Osa ohybu (ISO)
 70
    0
 62
    7
  6
CONTINUOUS
370
   25
390
F
  0
LAYER
  5
4F
330
2
100
AcDbSymbolTableRecord
100
AcDbLayerTableRecord
  2
Rámeček (ISO)
 70
    0
 62
    7
  6
CONTINUOUS
370
   70
390
F
  0
LAYER
  5
50
330
2
100
AcDbSymbolTableRecord
100
AcDbLayerTableRecord
  2
Skrytá (ISO)
 70
    0
 62
    7
  6
CONTINUOUS
370
   35
390
F
  0
LAYER
  5
51
330
2
100
AcDbSymbolTableRecord
100
AcDbLayerTableRecord
  2
Středová značka (ISO)
 70
    0
 62
    7
  6
CONTINUOUS
370
   25
390
F
  0
LAYER
  5
52
330
2
100
AcDbSymbolTableRecord
100
AcDbLayerTableRecord
  2
Viditelná (ISO)
 70
    0
 62
    7
  6
CONTINUOUS
370
   50
390
F
  0
LAYER
  5
53
330
2
100
AcDbSymbolTableRecord
100
AcDbLayerTableRecord
  2
Viditelná tenká (ISO)
 70
    0
 62
    7
  6
CONTINUOUS
370
   35
390
F
  0
LAYER
  5
54
330
2
100
AcDbSymbolTableRecord
100
AcDbLayerTableRecord
  2
Značka (ISO)
 70
    0
 62
    7
  6
CONTINUOUS
370
   25
390
F
  0
ENDTAB
  0
TABLE
  2
STYLE
  5
3
330
0
100
AcDbSymbolTable
 70
    3
  0
STYLE
  5
55
330
2
100
AcDbSymbolTableRecord
100
AcDbTextStyleTableRecord
  2
iso3098
 70
    0
 40
0
 41
1
 50
0
 71
    0
 42
1
  3
iso3098
  4

  0
STYLE
  5
56
330
2
100
AcDbSymbolTableRecord
100
AcDbTextStyleTableRecord
  2
styl textu13
 70
    0
 40
0
 41
1
 50
0
 71
    0
 42
1
  3
styl textu13
  4

  0
STYLE
  5
57
330
2
100
AcDbSymbolTableRecord
100
AcDbTextStyleTableRecord
  2
styl textu25
 70
    0
 40
0
 41
1
 50
0
 71
    0
 42
1
  3
styl textu25
  4

  0
STYLE
  5
58
330
2
100
AcDbSymbolTableRecord
100
AcDbTextStyleTableRecord
  2
text poznámky (din)
 70
    0
 40
0
 41
1
 50
0
 71
    0
 42
1
  3
text poznámky (din)
  4

  0
STYLE
  5
59
330
2
100
AcDbSymbolTableRecord
100
AcDbTextStyleTableRecord
  2
styl textu14
 70
    0
 40
0
 41
1
 50
0
 71
    0
 42
1
  3
styl textu14
  4

  0
STYLE
  5
5A
330
2
100
AcDbSymbolTableRecord
100
AcDbTextStyleTableRecord
  2
Standard
 70
    0
 40
0
 41
1
 50
0
 71
    0
 42
1
  3
txt
  4

  0
ENDTAB
  0
TABLE
  2
VIEW
  5
6
330
0
100
AcDbSymbolTable
 70
    0
  0
ENDTAB
  0
TABLE
  2
UCS
  5
7
330
0
100
AcDbSymbolTable
 70
    0
  0
ENDTAB
  0
TABLE
  2
APPID
  5
9
330
0
100
AcDbSymbolTable
 70
    1
  0
APPID
  5
12
330
9
100
AcDbSymbolTableRecord
100
AcDbRegAppTableRecord
  2
ACAD
 70
    0
  0
APPID
  5
5B
330
9
100
AcDbSymbolTableRecord
100
AcDbRegAppTableRecord
  2
LibreCad
 70
    0
  0
ENDTAB
  0
TABLE
  2
DIMSTYLE
  5
A
330
0
100
AcDbSymbolTable
 70
    1
100
AcDbDimStyleTable
 71
    1
  0
DIMSTYLE
105
5C
330
A
100
AcDbSymbolTableRecord
100
AcDbDimStyleTableRecord
  2
Standard
 70
    0
 40
1
 41
1.8
 42
0.0625
 43
0.38
 44
0.18
 45
0
 46
0
 47
0
 48
0
 49
1
140
0.35
141
0.09
142
0
143
25.4
144
1
145
0
146
1
147
0.09
148
0
 71
    0
 72
    0
 73
    1
 74
    1
 75
    0
 76
    0
 77
    0
 78
    0
 79
    0
170
    0
171
    2
172
    0
173
    0
174
    0
175
    0
176
    0
177
    0
178
    0
179
    0
271
    4
272
    4
273
    2
274
    2
275
    0
276
    0
277
    2
278
    0
279
    0
280
    0
281
    0
282
    0
283
    1
284
    0
285
    0
286
    0
288
    0
289
    3
340
standard
341

371
   -2
372
   -2
  0
ENDTAB
  0
TABLE
  2
BLOCK_RECORD
  5
1
330
0
100
AcDbSymbolTable
 70
    2
  0
BLOCK_RECORD
  5
1F
330
1
100
AcDbSymbolTableRecord
100
AcDbBlockTableRecord
  2
*Model_Space
 70
    0
280
    1
281
    0
  0
BLOCK_RECORD
  5
1E
330
1
100
AcDbSymbolTableRecord
100
AcDbBlockTableRecord
  2
*Paper_Space
 70
    0
280
    1
281
    0
  0
BLOCK_RECORD
  5
5D
330
1
100
AcDbSymbolTableRecord
100
AcDbBlockTableRecord
  2
_Closed
 70
    0
280
    1
281
    0
  0
BLOCK_RECORD
  5
60
330
1
100
AcDbSymbolTableRecord
100
AcDbBlockTableRecord
  2
Filled-1
 70
    0
280
    1
281
    0
  0
BLOCK_RECORD
  5
63
330
1
100
AcDbSymbolTableRecord
100
AcDbBlockTableRecord
  2
DatumFilled45
 70
    0
280
    1
281
    0
  0
BLOCK_RECORD
  5
66
330
1
100
AcDbSymbolTableRecord
100
AcDbBlockTableRecord
  2
Rámečky Default Border
 70
    0
280
    1
281
    0
  0
BLOCK_RECORD
  5
69
330
1
100
AcDbSymbolTableRecord
100
AcDbBlockTableRecord
  2
Rohová razítka DIN
 70
    0
280
    1
281
    0
  0
ENDTAB
  0
ENDSEC
  0
SECTION
  2
BLOCKS
  0
BLOCK
  5
20
330
1F
100
AcDbEntity
  8
0
100
AcDbBlockBegin
  2
*Model_Space
 70
    0
 10
0
 20
0
 30
0
  3
*Model_Space
  1

  0
ENDBLK
  5
21
330
1F
100
AcDbEntity
  8
0
100
AcDbBlockEnd
  0
BLOCK
  5
1C
330
1B
100
AcDbEntity
  8
0
100
AcDbBlockBegin
  2
*Paper_Space
 70
    0
 10
0
 20
0
 30
0
  3
*Paper_Space
  1

  0
ENDBLK
  5
1D
330
1F
100
AcDbEntity
  8
0
100
AcDbBlockEnd
  0
BLOCK
  5
5E
330
5D
100
AcDbEntity
  8
0
100
AcDbBlockBegin
  2
_Closed
 70
    0
 10
0
 20
0
  3
_Closed
  1

  0
LINE
  5
6C
100
AcDbEntity
  8
0
  6
ByBlock
 62
    0
370
   -2
100
AcDbLine
 10
-1
 20
0.1666666666666666
 11
0
 21
0
  0
LINE
  5
6D
100
AcDbEntity
  8
0
  6
ByBlock
 62
    0
370
   -2
100
AcDbLine
 10
0
 20
0
 11
-1
 21
-0.1666666666666666
  0
LINE
  5
6E
100
AcDbEntity
  8
0
  6
ByBlock
 62
    0
370
   -2
100
AcDbLine
 10
-1
 20
0.1666666666666666
 11
-1
 21
-0.1666666666666666
  0
LINE
  5
6F
100
AcDbEntity
  8
0
  6
ByBlock
 62
    0
370
   -2
100
AcDbLine
 10
0
 20
0
 11
-1
 21
0
  0
ENDBLK
  5
5F
330
5D
100
AcDbEntity
  8
0
100
AcDbBlockEnd
  0
BLOCK
  5
61
330
60
100
AcDbEntity
  8
0
100
AcDbBlockBegin
  2
Filled-1
 70
    0
 10
0
 20
0
  3
Filled-1
  1

  0
LINE
  5
70
100
AcDbEntity
  8
0
  6
ByLayer
 62
    0
370
   -1
100
AcDbLine
 10
-1
 20
0
 11
0
 21
0
  0
LWPOLYLINE
  5
71
100
AcDbEntity
  8
0
  6
ByLayer
 62
    0
370
   -1
100
AcDbPolyline
 90
    4
 70
    0
 43
0
 10
-1
 20
-0.1
 10
0
 20
0
 10
-1
 20
0.1
 10
-1
 20
-0.1
  0
SOLID
  5
72
100
AcDbEntity
  8
0
  6
ByLayer
 62
    0
370
   -1
100
AcDbTrace
 10
-1
 20
-0.1
 30
0
 11
0
 21
0
 31
0
 12
-1
 22
0.1
 32
0
 13
-1
 23
-0.1
 33
0
  0
LINE
  5
73
100
AcDbEntity
  8
0
  6
ByLayer
 62
    0
370
   -1
100
AcDbLine
 10
-1
 20
-0.1
 11
0
 21
0
  0
LINE
  5
74
100
AcDbEntity
  8
0
  6
ByLayer
 62
    0
370
   -1
100
AcDbLine
 10
0
 20
0
 11
-1
 21
0.1
  0
LINE
  5
75
100
AcDbEntity
  8
0
  6
ByLayer
 62
    0
370
   -1
100
AcDbLine
 10
-1
 20
0.1
 11
-1
 21
-0.1
  0
ENDBLK
  5
62
330
60
100
AcDbEntity
  8
0
100
AcDbBlockEnd
  0
BLOCK
  5
64
330
63
100
AcDbEntity
  8
0
100
AcDbBlockBegin
  2
DatumFilled45
 70
    0
 10
0
 20
0
  3
DatumFilled45
  1

  0
LWPOLYLINE
  5
76
100
AcDbEntity
  8
0
  6
ByLayer
 62
    0
370
   -1
100
AcDbPolyline
 90
    4
 70
    0
 43
0
 10
0
 20
1
 10
0
 20
-1
 10
-1
 20
0
 10
0
 20
1
  0
SOLID
  5
77
100
AcDbEntity
  8
0
  6
ByLayer
 62
    0
370
   -1
100
AcDbTrace
 10
0
 20
1
 30
0
 11
0
 21
-1
 31
0
 12
-1
 22
0
 32
0
 13
0
 23
1
 33
0
  0
ENDBLK
  5
65
330
63
100
AcDbEntity
  8
0
100
AcDbBlockEnd
  0
BLOCK
  5
67
330
66
100
AcDbEntity
  8
0
100
AcDbBlockBegin
  2
Rámečky Default Border
 70
    0
 10
0
 20
0
  3
Rámečky Default Border
  1

  0
LWPOLYLINE
  5
78
100
AcDbEntity
  8
Rámeček (ISO)
  6
ByLayer
 62
  256
370
   -1
100
AcDbPolyline
 90
    5
 70
    0
 43
0
 10
10
 20
10
 10
10
 20
287.0000076293946
 10
410
 20
287.0000076293946
 10
410
 20
10
 10
10
 20
10
  0
LWPOLYLINE
  5
79
100
AcDbEntity
  8
Rámeček (ISO)
  6
ByLayer
 62
  256
370
   -1
100
AcDbPolyline
 90
    5
 70
    0
 43
0
 10
210
 20
0
 10
210
 20
10
 10
207.1132469177246
 20
5
 10
212.8867530822754
 20
5
 10
210
 20
10
  0
LWPOLYLINE
  5
7A
100
AcDbEntity
  8
Rámeček (ISO)
  6
ByLayer
 62
  256
370
   -1
100
AcDbPolyline
 90
    5
 70
    0
 43
0
 10
210
 20
297.0000076293946
 10
210
 20
287.0000076293946
 10
207.1132469177246
 20
292.0000076293945
 10
212.8867530822754
 20
292.0000076293945
 10
210
 20
287.0000076293946
  0
LWPOLYLINE
  5
7B
100
AcDbEntity
  8
Rámeček (ISO)
  6
ByLayer
 62
  256
370
   -1
100
AcDbPolyline
 90
    5
 70
    0
 43
0
 10
0
 20
148.5000038146973
 10
10
 20
148.5000038146973
 10
5
 20
151.3867473602295
 10
5
 20
145.6132507324219
 10
10
 20
148.5000038146973
  0
LWPOLYLINE
  5
7C
100
AcDbEntity
  8
Rámeček (ISO)
  6
ByLayer
 62
  256
370
   -1
100
AcDbPolyline
 90
    5
 70
    0
 43
0
 10
420
 20
148.5000038146973
 10
410
 20
148.5000038146973
 10
415
 20
151.3867473602295
 10
415
 20
145.6132507324219
 10
410
 20
148.5000038146973
  0
LINE
  5
7D
100
AcDbEntity
  8
Rámeček (ISO)
  6
ByLayer
 62
  256
370
   -1
100
AcDbLine
 10
70
 20
10
 11
70
 21
6.100000143051147
  0
LINE
  5
7E
100
AcDbEntity
  8
Rámeček (ISO)
  6
ByLayer
 62
  256
370
   -1
100
AcDbLine
 10
70
 20
287.0000076293946
 11
70
 21
290.9000015258789
  0
LINE
  5
7F
100
AcDbEntity
  8
Rámeček (ISO)
  6
ByLayer
 62
  256
370
   -1
100
AcDbLine
 10
140
 20
10
 11
140
 21
6.100000143051147
  0
LINE
  5
80
100
AcDbEntity
  8
Rámeček (ISO)
  6
ByLayer
 62
  256
370
   -1
100
AcDbLine
 10
140
 20
287.0000076293946
 11
140
 21
290.9000015258789
  0
LINE
  5
81
100
AcDbEntity
  8
Rámeček (ISO)
  6
ByLayer
 62
  256
370
   -1
100
AcDbLine
 10
280
 20
10
 11
280
 21
6.100000143051147
  0
LINE
  5
82
100
AcDbEntity
  8
Rámeček (ISO)
  6
ByLayer
 62
  256
370
   -1
100
AcDbLine
 10
280
 20
287.0000076293946
 11
280
 21
290.9000015258789
  0
LINE
  5
83
100
AcDbEntity
  8
Rámeček (ISO)
  6
ByLayer
 62
  256
370
   -1
100
AcDbLine
 10
350
 20
10
 11
350
 21
6.100000143051147
  0
LINE
  5
84
100
AcDbEntity
  8
Rámeček (ISO)
  6
ByLayer
 62
  256
370
   -1
100
AcDbLine
 10
350
 20
287.0000076293946
 11
350
 21
290.9000015258789
  0
MTEXT
  5
85
100
AcDbEntity
  8
Rámeček (ISO)
  6
ByLayer
 62
  256
370
   -1
100
AcDbMText
 10
384.424600776777
 20
287.4
 30
0
 40
3.499999940395355
 41
0.7777777645323011
 71
    7
 72
    1
  1
1
  7
text poznámky (din)
210
0
220
0
230
1
 50
0
 73
    1
 44
1
  0
MTEXT
  5
86
100
AcDbEntity
  8
Rámeček (ISO)
  6
ByLayer
 62
  256
370
   -1
100
AcDbMText
 10
384.424600776777
 20
6.100000059604644
 30
0
 40
3.499999940395355
 41
0.7777777645323011
 71
    7
 72
    1
  1
1
  7
text poznámky (din)
210
0
220
0
230
1
 50
0
 73
    1
 44
1
  0
MTEXT
  5
87
100
AcDbEntity
  8
Rámeček (ISO)
  6
ByLayer
 62
  256
370
   -1
100
AcDbMText
 10
314.0783748340615
 20
287.4
 30
0
 40
3.499999940395355
 41
1.555555529064602
 71
    7
 72
    1
  1
2
  7
text poznámky (din)
210
0
220
0
230
1
 50
0
 73
    1
 44
1
  0
MTEXT
  5
88
100
AcDbEntity
  8
Rámeček (ISO)
  6
ByLayer
 62
  256
370
   -1
100
AcDbMText
 10
314.0783748340615
 20
6.100000059604644
 30
0
 40
3.499999940395355
 41
1.555555529064602
 71
    7
 72
    1
  1
2
  7
text poznámky (din)
210
0
220
0
230
1
 50
0
 73
    1
 44
1
  0
MTEXT
  5
89
100
AcDbEntity
  8
Rámeček (ISO)
  6
ByLayer
 62
  256
370
   -1
100
AcDbMText
 10
244.0783748340615
 20
287.4
 30
0
 40
3.499999940395355
 41
1.555555529064819
 71
    7
 72
    1
  1
3
  7
text poznámky (din)
210
0
220
0
230
1
 50
0
 73
    1
 44
1
  0
MTEXT
  5
8A
100
AcDbEntity
  8
Rámeček (ISO)
  6
ByLayer
 62
  256
370
   -1
100
AcDbMText
 10
244.0783748340615
 20
6.100000059604644
 30
0
 40
3.499999940395355
 41
1.555555529064819
 71
    7
 72
    1
  1
3
  7
text poznámky (din)
210
0
220
0
230
1
 50
0
 73
    1
 44
1
  0
MTEXT
  5
8B
100
AcDbEntity
  8
Rámeček (ISO)
  6
ByLayer
 62
  256
370
   -1
100
AcDbMText
 10
173.9030501556405
 20
287.4
 30
0
 40
3.499999940395355
 41
1.944444411330753
 71
    7
 72
    1
  1
4
  7
text poznámky (din)
210
0
220
0
230
1
 50
0
 73
    1
 44
1
  0
MTEXT
  5
8C
100
AcDbEntity
  8
Rámeček (ISO)
  6
ByLayer
 62
  256
370
   -1
100
AcDbMText
 10
173.9030501556405
 20
6.100000059604644
 30
0
 40
3.499999940395355
 41
1.944444411330753
 71
    7
 72
    1
  1
4
  7
text poznámky (din)
210
0
220
0
230
1
 50
0
 73
    1
 44
1
  0
MTEXT
  5
8D
100
AcDbEntity
  8
Rámeček (ISO)
  6
ByLayer
 62
  256
370
   -1
100
AcDbMText
 10
104.0783748340615
 20
287.4
 30
0
 40
3.499999940395355
 41
1.555555529064819
 71
    7
 72
    1
  1
5
  7
text poznámky (din)
210
0
220
0
230
1
 50
0
 73
    1
 44
1
  0
MTEXT
  5
8E
100
AcDbEntity
  8
Rámeček (ISO)
  6
ByLayer
 62
  256
370
   -1
100
AcDbMText
 10
104.0783748340615
 20
6.100000059604644
 30
0
 40
3.499999940395355
 41
1.555555529064819
 71
    7
 72
    1
  1
5
  7
text poznámky (din)
210
0
220
0
230
1
 50
0
 73
    1
 44
1
  0
MTEXT
  5
8F
100
AcDbEntity
  8
Rámeček (ISO)
  6
ByLayer
 62
  256
370
   -1
100
AcDbMText
 10
34.07837483406151
 20
287.4
 30
0
 40
3.499999940395355
 41
1.555555529064819
 71
    7
 72
    1
  1
6
  7
text poznámky (din)
210
0
220
0
230
1
 50
0
 73
    1
 44
1
  0
MTEXT
  5
90
100
AcDbEntity
  8
Rámeček (ISO)
  6
ByLayer
 62
  256
370
   -1
100
AcDbMText
 10
34.07837483406151
 20
6.100000059604644
 30
0
 40
3.499999940395355
 41
1.555555529064819
 71
    7
 72
    1
  1
6
  7
text poznámky (din)
210
0
220
0
230
1
 50
0
 73
    1
 44
1
  0
LINE
  5
91
100
AcDbEntity
  8
Rámeček (ISO)
  6
ByLayer
 62
  256
370
   -1
100
AcDbLine
 10
10
 20
74.25000190734863
 11
6.100000143051147
 21
74.25000190734863
  0
LINE
  5
92
100
AcDbEntity
  8
Rámeček (ISO)
  6
ByLayer
 62
  256
370
   -1
100
AcDbLine
 10
410
 20
74.25000190734863
 11
413.8999938964843
 21
74.25000190734863
  0
LINE
  5
93
100
AcDbEntity
  8
Rámeček (ISO)
  6
ByLayer
 62
  256
370
   -1
100
AcDbLine
 10
10
 20
222.7499961853027
 11
6.100000143051147
 21
222.7499961853027
  0
LINE
  5
94
100
AcDbEntity
  8
Rámeček (ISO)
  6
ByLayer
 62
  256
370
   -1
100
AcDbLine
 10
410
 20
222.7499961853027
 11
413.8999938964843
 21
222.7499961853027
  0
MTEXT
  5
95
100
AcDbEntity
  8
Rámeček (ISO)
  6
ByLayer
 62
  256
370
   -1
100
AcDbMText
 10
6.577725507021792
 20
35.37500002980233
 30
0
 40
3.499999940395355
 41
2.333333293596903
 71
    7
 72
    1
  1
A
  7
text poznámky (din)
210
0
220
0
230
1
 50
0
 73
    1
 44
1
  0
MTEXT
  5
96
100
AcDbEntity
  8
Rámeček (ISO)
  6
ByLayer
 62
  256
370
   -1
100
AcDbMText
 10
410.8777254474171
 20
35.37500002980233
 30
0
 40
3.499999940395355
 41
2.333333293596903
 71
    7
 72
    1
  1
A
  7
text poznámky (din)
210
0
220
0
230
1
 50
0
 73
    1
 44
1
  0
MTEXT
  5
97
100
AcDbEntity
  8
Rámeček (ISO)
  6
ByLayer
 62
  256
370
   -1
100
AcDbMText
 10
6.753050185442813
 20
109.6250000298023
 30
0
 40
3.499999940395355
 41
1.944444411330753
 71
    7
 72
    1
  1
B
  7
text poznámky (din)
210
0
220
0
230
1
 50
0
 73
    1
 44
1
  0
MTEXT
  5
98
100
AcDbEntity
  8
Rámeček (ISO)
  6
ByLayer
 62
  256
370
   -1
100
AcDbMText
 10
411.0530501258381
 20
109.6250000298023
 30
0
 40
3.499999940395355
 41
1.944444411330753
 71
    7
 72
    1
  1
B
  7
text poznámky (din)
210
0
220
0
230
1
 50
0
 73
    1
 44
1
  0
MTEXT
  5
99
100
AcDbEntity
  8
Rámeček (ISO)
  6
ByLayer
 62
  256
370
   -1
100
AcDbMText
 10
6.928374863863833
 20
183.8750000298023
 30
0
 40
3.499999940395355
 41
1.555555529064819
 71
    7
 72
    1
  1
C
  7
text poznámky (din)
210
0
220
0
230
1
 50
0
 73
    1
 44
1
  0
MTEXT
  5
9A
100
AcDbEntity
  8
Rámeček (ISO)
  6
ByLayer
 62
  256
370
   -1
100
AcDbMText
 10
411.2283748042591
 20
183.8750000298023
 30
0
 40
3.499999940395355
 41
1.555555529064819
 71
    7
 72
    1
  1
C
  7
text poznámky (din)
210
0
220
0
230
1
 50
0
 73
    1
 44
1
  0
MTEXT
  5
9B
100
AcDbEntity
  8
Rámeček (ISO)
  6
ByLayer
 62
  256
370
   -1
100
AcDbMText
 10
6.753050185442813
 20
258.1250000298023
 30
0
 40
3.499999940395355
 41
1.94444441133097
 71
    7
 72
    1
  1
D
  7
text poznámky (din)
210
0
220
0
230
1
 50
0
 73
    1
 44
1
  0
MTEXT
  5
9C
100
AcDbEntity
  8
Rámeček (ISO)
  6
ByLayer
 62
  256
370
   -1
100
AcDbMText
 10
411.0530501258381
 20
258.1250000298023
 30
0
 40
3.499999940395355
 41
1.94444441133097
 71
    7
 72
    1
  1
D
  7
text poznámky (din)
210
0
220
0
230
1
 50
0
 73
    1
 44
1
  0
ENDBLK
  5
68
330
66
100
AcDbEntity
  8
0
100
AcDbBlockEnd
  0
BLOCK
  5
6A
330
69
100
AcDbEntity
  8
0
100
AcDbBlockBegin
  2
Rohová razítka DIN
 70
    0
 10
0
 20
0
  3
Rohová razítka DIN
  1

  0
LINE
  5
9D
100
AcDbEntity
  8
Nadpis (ISO)
  6
ByLayer
 62
  256
370
   -1
100
AcDbLine
 10
100.0239726297587
 20
98.90682335691264
 11
290.0239726297587
 21
98.90682335691264
  0
LINE
  5
9E
100
AcDbEntity
  8
Nadpis (ISO)
  6
ByLayer
 62
  256
370
   -1
100
AcDbLine
 10
290.0239726297587
 20
98.90682335691264
 11
290.0239726297587
 21
154.1568233569126
  0
LINE
  5
9F
100
AcDbEntity
  8
Nadpis (ISO)
  6
ByLayer
 62
  256
370
   -1
100
AcDbLine
 10
290.0239726297587
 20
154.1568233569126
 11
100.0239726297587
 21
154.1568233569126
  0
LINE
  5
A0
100
AcDbEntity
  8
Nadpis (ISO)
  6
ByLayer
 62
  256
370
   -1
100
AcDbLine
 10
100.0239726297587
 20
154.1568233569126
 11
100.0239726297587
 21
98.90682335691264
  0
LINE
  5
A1
100
AcDbEntity
  8
Nadpis (ISO)
  6
ByLayer
 62
  256
370
   -1
100
AcDbLine
 10
154.6239726297587
 20
98.90682335691264
 11
154.6239726297587
 21
154.1568233569126
  0
LINE
  5
A2
100
AcDbEntity
  8
Nadpis (ISO)
  6
ByLayer
 62
  256
370
   -1
100
AcDbLine
 10
198.8239726297587
 20
98.90682335691264
 11
198.8239726297587
 21
154.1568233569126
  0
LINE
  5
A3
100
AcDbEntity
  8
Nadpis (ISO)
  6
ByLayer
 62
  256
370
   -1
100
AcDbLine
 10
100.0239726297587
 20
137.1568233569128
 11
290.0239726297587
 21
137.1568233569127
  0
LINE
  5
A4
100
AcDbEntity
  8
Nadpis (ISO)
  6
ByLayer
 62
  256
370
   -1
100
AcDbLine
 10
154.6239726297587
 20
115.9068233569127
 11
290.0239726297587
 21
115.9068233569128
  0
LINE
  5
A5
100
AcDbEntity
  8
Nadpis (ISO)
  6
ByLayer
 62
  256
370
   -1
100
AcDbLine
 10
198.8239726297587
 20
147.4068233569126
 11
290.0239726297587
 21
147.4068233569127
  0
LINE
  5
A6
100
AcDbEntity
  8
Nadpis (ISO)
  6
ByLayer
 62
  256
370
   -1
100
AcDbLine
 10
250.8
 20
147.4068233569126
 11
250.8
 21
154.1568233569126
  0
LINE
  5
A7
100
AcDbEntity
  8
Nadpis (ISO)
  6
ByLayer
 62
  256
370
   -1
100
AcDbLine
 10
100.0239726297587
 20
103.1568233569127
 11
154.6239726297587
 21
103.1568233569127
  0
LINE
  5
A8
100
AcDbEntity
  8
Nadpis (ISO)
  6
ByLayer
 62
  256
370
   -1
100
AcDbLine
 10
154.6239726297587
 20
103.1568233569127
 11
198.8239726297587
 21
103.1568233569126
  0
LINE
  5
A9
100
AcDbEntity
  8
Nadpis (ISO)
  6
ByLayer
 62
  256
370
   -1
100
AcDbLine
 10
198.8239726297587
 20
103.1568233569126
 11
290.0239726297587
 21
103.1568233569126
  0
LINE
  5
AA
100
AcDbEntity
  8
Nadpis (ISO)
  6
ByLayer
 62
  256
370
   -1
100
AcDbLine
 10
244.4239726297587
 20
98.90682335691264
 11
244.4239726297587
 21
103.1568233569126
  0
LINE
  5
AB
100
AcDbEntity
  8
Nadpis (ISO)
  6
ByLayer
 62
  256
370
   -1
100
AcDbLine
 10
274.2239726297587
 20
103.1568233569126
 11
274.2239726297587
 21
115.9068233569128
  0
LINE
  5
AC
100
AcDbEntity
  8
Nadpis (ISO)
  6
ByLayer
 62
  256
370
   -1
100
AcDbLine
 10
274.2239726297587
 20
107.2978489979384
 11
290.0239726297587
 21
107.2978489979384
  0
LINE
  5
AD
100
AcDbEntity
  8
Nadpis (ISO)
  6
ByLayer
 62
  256
370
   -1
100
AcDbLine
 10
154.6239726297587
 20
107.4068233569127
 11
100.0239726297587
 21
107.4068233569127
  0
LINE
  5
AE
100
AcDbEntity
  8
Nadpis (ISO)
  6
ByLayer
 62
  256
370
   -1
100
AcDbLine
 10
100.0239726297587
 20
111.6568233569127
 11
154.6239726297587
 21
111.6568233569127
  0
LINE
  5
AF
100
AcDbEntity
  8
Nadpis (ISO)
  6
ByLayer
 62
  256
370
   -1
100
AcDbLine
 10
100.0239726297587
 20
115.9068233569127
 11
154.6239726297587
 21
115.9068233569127
  0
LINE
  5
B0
100
AcDbEntity
  8
Nadpis (ISO)
  6
ByLayer
 62
  256
370
   -1
100
AcDbLine
 10
100.0239726297587
 20
120.1568233569127
 11
154.6239726297587
 21
120.1568233569127
  0
LINE
  5
B1
100
AcDbEntity
  8
Nadpis (ISO)
  6
ByLayer
 62
  256
370
   -1
100
AcDbLine
 10
154.6239726297587
 20
120.1568233569127
 11
198.8239726297587
 21
120.1568233569127
  0
LINE
  5
B2
100
AcDbEntity
  8
Nadpis (ISO)
  6
ByLayer
 62
  256
370
   -1
100
AcDbLine
 10
100.0239726297587
 20
124.4068233569127
 11
154.6239726297587
 21
124.4068233569127
  0
LINE
  5
B3
100
AcDbEntity
  8
Nadpis (ISO)
  6
ByLayer
 62
  256
370
   -1
100
AcDbLine
 10
154.6239726297587
 20
124.4068233569127
 11
198.8239726297587
 21
124.4068233569127
  0
LINE
  5
B4
100
AcDbEntity
  8
Nadpis (ISO)
  6
ByLayer
 62
  256
370
   -1
100
AcDbLine
 10
100.0239726297587
 20
128.6568233569127
 11
154.6239726297587
 21
128.6568233569127
  0
LINE
  5
B5
100
AcDbEntity
  8
Nadpis (ISO)
  6
ByLayer
 62
  256
370
   -1
100
AcDbLine
 10
154.6239726297587
 20
128.6568233569127
 11
198.8239726297587
 21
128.6568233569127
  0
LINE
  5
B6
100
AcDbEntity
  8
Nadpis (ISO)
  6
ByLayer
 62
  256
370
   -1
100
AcDbLine
 10
100.0239726297587
 20
132.9068233569127
 11
154.6239726297587
 21
132.9068233569127
  0
LINE
  5
B7
100
AcDbEntity
  8
Nadpis (ISO)
  6
ByLayer
 62
  256
370
   -1
100
AcDbLine
 10
154.6239726297587
 20
132.9068233569127
 11
198.8239726297587
 21
132.9068233569127
  0
LINE
  5
B8
100
AcDbEntity
  8
Nadpis (ISO)
  6
ByLayer
 62
  256
370
   -1
100
AcDbLine
 10
107.8239726297587
 20
98.90682335691264
 11
107.8239726297587
 21
137.1568233569128
  0
LINE
  5
B9
100
AcDbEntity
  8
Nadpis (ISO)
  6
ByLayer
 62
  256
370
   -1
100
AcDbLine
 10
133.8239726297587
 20
98.90682335691264
 11
133.8239726297587
 21
137.1568233569128
  0
LINE
  5
BA
100
AcDbEntity
  8
Nadpis (ISO)
  6
ByLayer
 62
  256
370
   -1
100
AcDbLine
 10
146.8239726297586
 20
98.90682335691265
 11
146.8239726297587
 21
137.1568233569128
  0
LINE
  5
BB
100
AcDbEntity
  8
Nadpis (ISO)
  6
ByLayer
 62
  256
370
   -1
100
AcDbLine
 10
165.0239726297587
 20
120.1568233569127
 11
165.0239726297587
 21
137.1568233569127
  0
LINE
  5
BC
100
AcDbEntity
  8
Nadpis (ISO)
  6
ByLayer
 62
  256
370
   -1
100
AcDbLine
 10
180.6239726297586
 20
115.9068233569127
 11
180.6239726297586
 21
137.1568233569127
  0
LINE
  5
BD
100
AcDbEntity
  8
Nadpis (ISO)
  6
ByLayer
 62
  256
370
   -1
100
AcDbLine
 10
180.6239726297586
 20
137.1568233569127
 11
180.6239726297586
 21
154.1568233569126
  0
TEXT
  5
BE
100
AcDbEntity
  8
Nadpis (ISO)
  6
ByLayer
 62
  256
370
   -1
100
AcDbText
 10
103.9239726297587
 20
101.0318233569126
 30
0
 40
1.500000059604644
  1
Stav
 50
0
 41
1
 51
0
  7
styl textu13
 71
    0
 72
    1
 11
103.9239726297587
 21
101.0318233569126
 31
0
210
0
220
0
230
1
100
AcDbText
 73
    2
  0
TEXT
  5
BF
100
AcDbEntity
  8
Nadpis (ISO)
  6
ByLayer
 62
  256
370
   -1
100
AcDbText
 10
120.8239726297587
 20
101.0318233569126
 30
0
 40
1.500000059604644
  1
Změny
 50
0
 41
1
 51
0
  7
styl textu13
 71
    0
 72
    1
 11
120.8239726297587
 21
101.0318233569126
 31
0
210
0
220
0
230
1
100
AcDbText
 73
    2
  0
TEXT
  5
C0
100
AcDbEntity
  8
Nadpis (ISO)
  6
ByLayer
 62
  256
370
   -1
100
AcDbText
 10
140.3239726297587
 20
101.0318233569126
 30
0
 40
1.500000059604644
  1
Datum
 50
0
 41
1
 51
0
  7
styl textu13
 71
    0
 72
    1
 11
140.3239726297587
 21
101.0318233569126
 31
0
210
0
220
0
230
1
100
AcDbText
 73
    2
  0
TEXT
  5
C1
100
AcDbEntity
  8
Nadpis (ISO)
  6
ByLayer
 62
  256
370
   -1
100
AcDbText
 10
150.7239726297587
 20
101.0318233569127
 30
0
 40
1.500000059604644
  1
Jméno
 50
0
 41
1
 51
0
  7
styl textu13
 71
    0
 72
    1
 11
150.7239726297587
 21
101.0318233569127
 31
0
210
0
220
0
230
1
100
AcDbText
 73
    2
  0
TEXT
  5
C2
100
AcDbEntity
  8
Nadpis (ISO)
  6
ByLayer
 62
  256
370
   -1
100
AcDbText
 10
155.6239726297587
 20
129.6568233569127
 30
0
 40
1.500000059604644
  1
Nakreslen
 50
0
 41
1
 51
0
  7
styl textu13
 71
    0
 11
155.6239726297587
 21
129.6568233569127
 31
0
210
0
220
0
230
1
100
AcDbText
 73
    1
  0
TEXT
  5
C3
100
AcDbEntity
  8
Nadpis (ISO)
  6
ByLayer
 62
  256
370
   -1
100
AcDbText
 10
155.6239726297587
 20
125.4068233569127
 30
0
 40
1.199999973177909
  1
Zkontrolován
 50
0
 41
1
 51
0
  7
styl textu25
 71
    0
 11
155.6239726297587
 21
125.4068233569127
 31
0
210
0
220
0
230
1
100
AcDbText
 73
    1
  0
TEXT
  5
C4
100
AcDbEntity
  8
Nadpis (ISO)
  6
ByLayer
 62
  256
370
   -1
100
AcDbText
 10
155.6239726297587
 20
121.1568233569127
 30
0
 40
1.500000059604644
  1
Norma
 50
0
 41
1
 51
0
  7
styl textu13
 71
    0
 11
155.6239726297587
 21
121.1568233569127
 31
0
210
0
220
0
230
1
100
AcDbText
 73
    1
  0
TEXT
  5
C5
100
AcDbEntity
  8
Nadpis (ISO)
  6
ByLayer
 62
  256
370
   -1
100
AcDbText
 10
172.8239726297587
 20
133.9068233569127
 30
0
 40
2.000000029802322
  1
Datum
 50
0
 41
1
 51
0
  7
styl textu14
 71
    0
 72
    1
 11
172.8239726297587
 21
133.9068233569127
 31
0
210
0
220
0
230
1
100
AcDbText
 73
    1
  0
TEXT
  5
C6
100
AcDbEntity
  8
Nadpis (ISO)
  6
ByLayer
 62
  256
370
   -1
100
AcDbText
 10
189.7239726297587
 20
133.9068233569127
 30
0
 40
2.000000029802322
  1
Jméno
 50
0
 41
1
 51
0
  7
styl textu14
 71
    0
 72
    1
 11
189.7239726297587
 21
133.9068233569127
 31
0
210
0
220
0
230
1
100
AcDbText
 73
    1
  0
ENDBLK
  5
6B
330
69
100
AcDbEntity
  8
0
100
AcDbBlockEnd
  0
ENDSEC
  0
SECTION
  2
ENTITIES
  0
INSERT
  5
C7
100
AcDbEntity
  8
0
  6
ByLayer
 62
  256
370
   -1
100
AcDbBlockReference
  2
Rámečky Default Border
 10
0
 20
0
 30
0
 41
1
 42
1
 43
0
 50
0
 70
    1
 71
    1
 44
0
 45
0
  0
INSERT
  5
C8
100
AcDbEntity
  8
0
  6
ByLayer
 62
  256
370
   -1
100
AcDbBlockReference
  2
Rohová razítka DIN
 10
119.9760273702413
 20
-88.90682335691264
 30
0
 41
1
 42
1
 43
0
 50
0
 70
    1
 71
    1
 44
0
 45
0
  0
CIRCLE
  5
C9
100
AcDbEntity
  8
Viditelná (ISO)
  6
ByLayer
 62
  256
370
   -1
100
AcDbCircle
 10
292.1155111836386
 20
136.9087414662828
 40
12.5
  0
CIRCLE
  5
CA
100
AcDbEntity
  8
Viditelná (ISO)
  6
ByLayer
 62
  256
370
   -1
100
AcDbCircle
 10
277.116
 20
177.909
 40
2
  0
CIRCLE
  5
CB
100
AcDbEntity
  8
Viditelná (ISO)
  6
ByLayer
 62
  256
370
   -1
100
AcDbCircle
 10
307.116
 20
177.909
 40
2
  0
CIRCLE
  5
CC
100
AcDbEntity
  8
Viditelná (ISO)
  6
ByLayer
 62
  256
370
   -1
100
AcDbCircle
 10
292.116
 20
192.909
 40
2
  0
CIRCLE
  5
CD
100
AcDbEntity
  8
Viditelná (ISO)
  6
ByLayer
 62
  256
370
   -1
100
AcDbCircle
 10
292.116
 20
162.909
 40
2
  0
ARC
  5
CE
100
AcDbEntity
  8
Viditelná (ISO)
  6
ByLayer
 62
  256
370
   -1
100
AcDbCircle
 10
313.285
 20
192.909
 40
4
100
AcDbArc
 50
223.363
 51
270
  0
ARC
  5
CF
100
AcDbEntity
  8
Viditelná (ISO)
  6
ByLayer
 62
  256
370
   -1
100
AcDbCircle
 10
270.947
 20
192.909
 40
4
100
AcDbArc
 50
270
 51
316.637
  0
LINE
  5
D0
100
AcDbEntity
  8
Viditelná (ISO)
  6
ByLayer
 62
  256
370
   -1
100
AcDbLine
 10
273.616
 20
189.909
 11
280.930346073571
 21
197.6546483524444
  0
ARC
  5
D1
100
AcDbEntity
  8
Viditelná (ISO)
  6
ByLayer
 62
  256
370
   -1
100
AcDbCircle
 10
283.84
 20
194.909
 40
4
100
AcDbArc
 50
90
 51
136.637
  0
LINE
  5
D2
100
AcDbEntity
  8
Viditelná (ISO)
  6
ByLayer
 62
  256
370
   -1
100
AcDbLine
 10
303.2996180201689
 20
197.6553567315889
 11
310.616
 21
189.909
  0
LINE
  5
D3
100
AcDbEntity
  8
Viditelná (ISO)
  6
ByLayer
 62
  256
370
   -1
100
AcDbLine
 10
283.8400928952701
 20
198.909028015109
 11
300.3910971699836
 21
198.908612513722
  0
ARC
  5
D4
100
AcDbEntity
  8
Viditelná (ISO)
  6
ByLayer
 62
  256
370
   -1
100
AcDbCircle
 10
300.391
 20
194.909
 40
4
100
AcDbArc
 50
43.3634
 51
90.0013
  0
MTEXT
  5
D5
100
AcDbEntity
  8
Značka (ISO)
  6
ByLayer
 62
  256
370
   -1
100
AcDbMText
 10
225.8363839762073
 20
61.34518157544796
 30
0
 40
3.5
 41
36.435
 71
    1
 72
    1
  1
EN AW 2024 T3\Ptl. 1,5 mm
  7
iso3098
210
0
220
0
230
1
 50
0
 73
    1
 44
1
  0
CIRCLE
  5
D6
100
AcDbEntity
  8
Viditelná (ISO)
  6
ByLayer
 62
  256
370
   -1
100
AcDbCircle
 10
334.7584312495155
 20
151.4087414662828
 40
12.5
  0
CIRCLE
  5
D7
100
AcDbEntity
  8
Viditelná (ISO)
  6
ByLayer
 62
  256
370
   -1
100
AcDbCircle
 10
347.2584312495155
 20
130.4087414662828
 40
7.5
  0
CIRCLE
  5
D8
100
AcDbEntity
  8
Viditelná (ISO)
  6
ByLayer
 62
  256
370
   -1
100
AcDbCircle
 10
353.7584312495155
 20
143.9087414662828
 40
5
  0
CIRCLE
  5
D9
100
AcDbEntity
  8
Viditelná (ISO)
  6
ByLayer
 62
  256
370
   -1
100
AcDbCircle
 10
327.2584312495155
 20
169.9087414662828
 40
5
  0
CIRCLE
  5
DA
100
AcDbEntity
  8
Viditelná (ISO)
  6
ByLayer
 62
  256
370
   -1
100
AcDbCircle
 10
332.2584312495155
 20
133.9087414662828
 40
2
  0
ARC
  5
DB
100
AcDbEntity
  8
Viditelná (ISO)
  6
ByLayer
 62
  256
370
   -1
100
AcDbCircle
 10
332.2584312495156
 20
133.9087414662828
 40
36.99999999999992
100
AcDbArc
 50
343.3984504009798
 51
0
  0
ARC
  5
DC
100
AcDbEntity
  8
Viditelná (ISO)
  6
ByLayer
 62
  256
370
   -1
100
AcDbCircle
 10
365.7994509120123
 20
123.9087414662828
 40
2.000000000000004
100
AcDbArc
 50
163.3984504009796
 51
343.3984504009796
  0
ARC
  5
DD
100
AcDbEntity
  8
Viditelná (ISO)
  6
ByLayer
 62
  256
370
   -1
100
AcDbCircle
 10
332.2584312495151
 20
133.9087414662829
 40
33.00000000000043
100
AcDbArc
 50
343.3984504009798
 51
0
  0
ARC
  5
DE
100
AcDbEntity
  8
Viditelná (ISO)
  6
ByLayer
 62
  256
370
   -1
100
AcDbCircle
 10
367.2584312495155
 20
133.9087414662828
 40
2.000000000000001
100
AcDbArc
 50
0
 51
180
  0
LINE
  5
DF
100
AcDbEntity
  8
Viditelná (ISO)
  6
ByLayer
 62
  256
370
   -1
100
AcDbLine
 10
375.21
 20
135.958
 11
323.4293501605724
 21
187.7378131178101
  0
CIRCLE
  5
E0
100
AcDbEntity
  8
Viditelná (ISO)
  6
ByLayer
 62
  256
370
   -1
100
AcDbCircle
 10
256.9725911177615
 20
169.9087414662828
 40
5
  0
CIRCLE
  5
E1
100
AcDbEntity
  8
Viditelná (ISO)
  6
ByLayer
 62
  256
370
   -1
100
AcDbCircle
 10
230.4725911177615
 20
143.9087414662828
 40
5
  0
CIRCLE
  5
E2
100
AcDbEntity
  8
Viditelná (ISO)
  6
ByLayer
 62
  256
370
   -1
100
AcDbCircle
 10
236.9725911177616
 20
130.4087414662828
 40
7.5
  0
CIRCLE
  5
E3
100
AcDbEntity
  8
Viditelná (ISO)
  6
ByLayer
 62
  256
370
   -1
100
AcDbCircle
 10
249.4725911177615
 20
151.4087414662828
 40
12.5
  0
CIRCLE
  5
E4
100
AcDbEntity
  8
Viditelná (ISO)
  6
ByLayer
 62
  256
370
   -1
100
AcDbCircle
 10
251.9725911177615
 20
133.9087414662828
 40
2
  0
ARC
  5
E5
100
AcDbEntity
  8
Viditelná (ISO)
  6
ByLayer
 62
  256
370
   -1
100
AcDbCircle
 10
251.972591117761
 20
133.9087414662827
 40
36.99999999999947
100
AcDbArc
 50
180
 51
196.6015495990203
  0
ARC
  5
E6
100
AcDbEntity
  8
Viditelná (ISO)
  6
ByLayer
 62
  256
370
   -1
100
AcDbCircle
 10
216.9725911177616
 20
133.9087414662828
 40
1.999999999999992
100
AcDbArc
 50
0
 51
180
  0
ARC
  5
E7
100
AcDbEntity
  8
Viditelná (ISO)
  6
ByLayer
 62
  256
370
   -1
100
AcDbCircle
 10
251.9725911177615
 20
133.9087414662828
 40
33.00000000000003
100
AcDbArc
 50
180
 51
196.6015495990202
  0
ARC
  5
E8
100
AcDbEntity
  8
Viditelná (ISO)
  6
ByLayer
 62
  256
370
   -1
100
AcDbCircle
 10
218.4315714552647
 20
123.9087414662828
 40
1.999999999999996
100
AcDbArc
 50
196.6015495990203
 51
16.60154959902033
  0
LINE
  5
E9
100
AcDbEntity
  8
Viditelná (ISO)
  6
ByLayer
 62
  256
370
   -1
100
AcDbLine
 10
260.8001003519084
 20
187.7366518759861
 11
209.021
 21
135.958
  0
ARC
  5
EA
100
AcDbEntity
  8
Viditelná (ISO)
  6
ByLayer
 62
  256
370
   -1
100
AcDbCircle
 10
332.2584312495154
 20
133.9087414662828
 40
43.00000000000013
100
AcDbArc
 50
339.5837898710855
 51
2.731029573263983
  0
LINE
  5
EB
100
AcDbEntity
  8
Viditelná (ISO)
  6
ByLayer
 62
  256
370
   -1
100
AcDbLine
 10
313.3133485577468
 20
188.9060144483892
 11
320.5917824755297
 21
188.9049653839212
  0
ARC
  5
EC
100
AcDbEntity
  8
Viditelná (ISO)
  6
ByLayer
 62
  256
370
   -1
100
AcDbCircle
 10
320.602
 20
184.908
 40
4
100
AcDbArc
 50
45.0005
 51
90.0222
  0
ARC
  5
ED
100
AcDbEntity
  8
Viditelná (ISO)
  6
ByLayer
 62
  256
370
   -1
100
AcDbCircle
 10
251.9725911177618
 20
133.9087414662829
 40
43.00000000000025
100
AcDbArc
 50
177.268970426736
 51
200.4162101289143
  0
LINE
  5
EE
100
AcDbEntity
  8
Viditelná (ISO)
  6
ByLayer
 62
  256
370
   -1
100
AcDbLine
 10
372.5600887316059
 20
118.9024844008767
 11
211.6658559902664
 21
118.9110358712627
  0
LINE
  5
EF
100
AcDbEntity
  8
Viditelná (ISO)
  6
ByLayer
 62
  256
370
   -1
100
AcDbLine
 10
263.6309644119525
 20
188.904237628072
 11
270.9448441038543
 21
188.9038903954652
  0
ARC
  5
F0
100
AcDbEntity
  8
Viditelná (ISO)
  6
ByLayer
 62
  256
370
   -1
100
AcDbCircle
 10
263.6287356145343
 20
184.9079035111017
 40
4
100
AcDbArc
 50
89.96208694087029
 51
134.9994589786927
  0
CIRCLE
  5
F1
100
AcDbEntity
  8
Viditelná (ISO)
  6
ByLayer
 62
  256
370
   -1
100
AcDbCircle
 10
292.116
 20
177.909
 40
6.5
  0
CIRCLE
  5
F2
100
AcDbEntity
  8
Viditelná (ISO)
  6
ByLayer
 62
  256
370
   -1
100
AcDbCircle
 10
300.116
 20
185.909
 40
3
  0
CIRCLE
  5
F3
100
AcDbEntity
  8
Viditelná (ISO)
  6
ByLayer
 62
  256
370
   -1
100
AcDbCircle
 10
284.116
 20
185.909
 40
3
  0
CIRCLE
  5
F4
100
AcDbEntity
  8
Viditelná (ISO)
  6
ByLayer
 62
  256
370
   -1
100
AcDbCircle
 10
284.116
 20
169.909
 40
3
  0
CIRCLE
  5
F5
100
AcDbEntity
  8
Viditelná (ISO)
  6
ByLayer
 62
  256
370
   -1
100
AcDbCircle
 10
300.116
 20
169.909
 40
3
  0
ENDSEC
  0
SECTION
  2
OBJECTS
  0
DICTIONARY
  5
C
330
0
100
AcDbDictionary
281
    1
  3
ACAD_GROUP
350
D
  0
DICTIONARY
  5
D
330
C
100
AcDbDictionary
281
    1
  0
ENDSEC
  0
EOF
