  0
SECTION
  2
BLOCKS
  0
ENDSEC
  0
SECTION
  2
ENTITIES
  0
LINE
  8
0
 10
115
 20
485.115
 11
114.805
 21
485.152
  0
LINE
  8
0
 10
114.805
 20
485.152
 11
114.595
 21
485.192
  0
LINE
  8
0
 10
114.595
 20
485.192
 11
114.362
 21
485.236
  0
LINE
  8
0
 10
114.362
 20
485.236
 11
114.104
 21
485.284
  0
LINE
  8
0
 10
114.104
 20
485.284
 11
113.823
 21
485.337
  0
LINE
  8
0
 10
113.823
 20
485.337
 11
113.519
 21
485.393
  0
LINE
  8
0
 10
113.519
 20
485.393
 11
113.192
 21
485.453
  0
LINE
  8
0
 10
113.192
 20
485.453
 11
112.842
 21
485.516
  0
LINE
  8
0
 10
112.842
 20
485.516
 11
112.471
 21
485.583
  0
LINE
  8
0
 10
112.471
 20
485.583
 11
112.077
 21
485.653
  0
LINE
  8
0
 10
112.077
 20
485.653
 11
111.661
 21
485.727
  0
LINE
  8
0
 10
111.661
 20
485.727
 11
111.225
 21
485.803
  0
LINE
  8
0
 10
111.225
 20
485.803
 11
110.768
 21
485.882
  0
LINE
  8
0
 10
110.768
 20
485.882
 11
110.291
 21
485.963
  0
LINE
  8
0
 10
110.291
 20
485.963
 11
109.794
 21
486.047
  0
LINE
  8
0
 10
109.794
 20
486.047
 11
109.278
 21
486.133
  0
LINE
  8
0
 10
109.278
 20
486.133
 11
108.743
 21
486.222
  0
LINE
  8
0
 10
108.743
 20
486.222
 11
108.19
 21
486.311
  0
LINE
  8
0
 10
108.19
 20
486.311
 11
107.619
 21
486.403
  0
LINE
  8
0
 10
107.619
 20
486.403
 11
107.031
 21
486.496
  0
LINE
  8
0
 10
107.031
 20
486.496
 11
106.427
 21
486.59
  0
LINE
  8
0
 10
106.427
 20
486.59
 11
105.807
 21
486.685
  0
LINE
  8
0
 10
105.807
 20
486.685
 11
105.171
 21
486.781
  0
LINE
  8
0
 10
105.171
 20
486.781
 11
104.521
 21
486.878
  0
LINE
  8
0
 10
104.521
 20
486.878
 11
103.856
 21
486.975
  0
LINE
  8
0
 10
103.856
 20
486.975
 11
103.179
 21
487.073
  0
LINE
  8
0
 10
103.179
 20
487.073
 11
102.488
 21
487.17
  0
LINE
  8
0
 10
102.488
 20
487.17
 11
101.786
 21
487.268
  0
LINE
  8
0
 10
101.786
 20
487.268
 11
101.072
 21
487.365
  0
LINE
  8
0
 10
101.072
 20
487.365
 11
100.348
 21
487.461
  0
LINE
  8
0
 10
100.348
 20
487.461
 11
99.6135
 21
487.557
  0
LINE
  8
0
 10
99.6135
 20
487.557
 11
98.8701
 21
487.651
  0
LINE
  8
0
 10
98.8701
 20
487.651
 11
98.1181
 21
487.745
  0
LINE
  8
0
 10
98.1181
 20
487.745
 11
97.3585
 21
487.837
  0
LINE
  8
0
 10
97.3585
 20
487.837
 11
96.5918
 21
487.928
  0
LINE
  8
0
 10
96.5918
 20
487.928
 11
95.819
 21
488.016
  0
LINE
  8
0
 10
95.819
 20
488.016
 11
95.0407
 21
488.103
  0
LINE
  8
0
 10
95.0407
 20
488.103
 11
94.2578
 21
488.187
  0
LINE
  8
0
 10
94.2578
 20
488.187
 11
93.4709
 21
488.269
  0
LINE
  8
0
 10
93.4709
 20
488.269
 11
92.6809
 21
488.348
  0
LINE
  8
0
 10
92.6809
 20
488.348
 11
91.8886
 21
488.424
  0
LINE
  8
0
 10
91.8886
 20
488.424
 11
91.0947
 21
488.497
  0
LINE
  8
0
 10
91.0947
 20
488.497
 11
90.3
 21
488.566
  0
LINE
  8
0
 10
90.3
 20
488.566
 11
89.5053
 21
488.632
  0
LINE
  8
0
 10
89.5053
 20
488.632
 11
88.7114
 21
488.694
  0
LINE
  8
0
 10
88.7114
 20
488.694
 11
87.9191
 21
488.751
  0
LINE
  8
0
 10
87.9191
 20
488.751
 11
87.1291
 21
488.804
  0
LINE
  8
0
 10
87.1291
 20
488.804
 11
86.3422
 21
488.853
  0
LINE
  8
0
 10
86.3422
 20
488.853
 11
85.5592
 21
488.897
  0
LINE
  8
0
 10
85.5592
 20
488.897
 11
84.781
 21
488.935
  0
LINE
  8
0
 10
84.781
 20
488.935
 11
84.0081
 21
488.968
  0
LINE
  8
0
 10
84.0081
 20
488.968
 11
83.2415
 21
488.996
  0
LINE
  8
0
 10
83.2415
 20
488.996
 11
82.4819
 21
489.018
  0
LINE
  8
0
 10
82.4819
 20
489.018
 11
81.7299
 21
489.034
  0
LINE
  8
0
 10
81.7299
 20
489.034
 11
80.9864
 21
489.044
  0
LINE
  8
0
 10
80.9864
 20
489.044
 11
80.2522
 21
489.048
  0
LINE
  8
0
 10
80.2522
 20
489.048
 11
79.5278
 21
489.046
  0
LINE
  8
0
 10
79.5278
 20
489.046
 11
78.814
 21
489.037
  0
LINE
  8
0
 10
78.814
 20
489.037
 11
78.1116
 21
489.022
  0
LINE
  8
0
 10
78.1116
 20
489.022
 11
77.4212
 21
489
  0
LINE
  8
0
 10
77.4212
 20
489
 11
76.7436
 21
488.971
  0
LINE
  8
0
 10
76.7436
 20
488.971
 11
76.0793
 21
488.936
  0
LINE
  8
0
 10
76.0793
 20
488.936
 11
75.429
 21
488.894
  0
LINE
  8
0
 10
75.429
 20
488.894
 11
74.7934
 21
488.845
  0
LINE
  8
0
 10
74.7934
 20
488.845
 11
74.1732
 21
488.789
  0
LINE
  8
0
 10
74.1732
 20
488.789
 11
73.5688
 21
488.726
  0
LINE
  8
0
 10
73.5688
 20
488.726
 11
72.981
 21
488.657
  0
LINE
  8
0
 10
72.981
 20
488.657
 11
72.4102
 21
488.581
  0
LINE
  8
0
 10
72.4102
 20
488.581
 11
71.8571
 21
488.499
  0
LINE
  8
0
 10
71.8571
 20
488.499
 11
71.3222
 21
488.41
  0
LINE
  8
0
 10
71.3222
 20
488.41
 11
70.806
 21
488.315
  0
LINE
  8
0
 10
70.806
 20
488.315
 11
70.3091
 21
488.214
  0
LINE
  8
0
 10
70.3091
 20
488.214
 11
69.8319
 21
488.107
  0
LINE
  8
0
 10
69.8319
 20
488.107
 11
69.3748
 21
487.994
  0
LINE
  8
0
 10
69.3748
 20
487.994
 11
68.9385
 21
487.875
  0
LINE
  8
0
 10
68.9385
 20
487.875
 11
68.5232
 21
487.751
  0
LINE
  8
0
 10
68.5232
 20
487.751
 11
68.1294
 21
487.622
  0
LINE
  8
0
 10
68.1294
 20
487.622
 11
67.7575
 21
487.487
  0
LINE
  8
0
 10
67.7575
 20
487.487
 11
67.4079
 21
487.348
  0
LINE
  8
0
 10
67.4079
 20
487.348
 11
67.0808
 21
487.204
  0
LINE
  8
0
 10
67.0808
 20
487.204
 11
66.7766
 21
487.056
  0
LINE
  8
0
 10
66.7766
 20
487.056
 11
66.4957
 21
486.903
  0
LINE
  8
0
 10
66.4957
 20
486.903
 11
66.2383
 21
486.747
  0
LINE
  8
0
 10
66.2383
 20
486.747
 11
66.0046
 21
486.587
  0
LINE
  8
0
 10
66.0046
 20
486.587
 11
65.7948
 21
486.423
  0
LINE
  8
0
 10
65.7948
 20
486.423
 11
65.6093
 21
486.255
  0
LINE
  8
0
 10
65.6093
 20
486.255
 11
65.4481
 21
486.085
  0
LINE
  8
0
 10
65.4481
 20
486.085
 11
65.3115
 21
485.911
  0
LINE
  8
0
 10
65.3115
 20
485.911
 11
65.1995
 21
485.734
  0
LINE
  8
0
 10
65.1995
 20
485.734
 11
65.1123
 21
485.555
  0
LINE
  8
0
 10
65.1123
 20
485.555
 11
65.0499
 21
485.372
  0
LINE
  8
0
 10
65.0499
 20
485.372
 11
65.0125
 21
485.187
  0
LINE
  8
0
 10
65.0125
 20
485.187
 11
65
 21
485
  0
LINE
  8
0
 10
65
 20
485
 11
65
 21
-485
  0
LINE
  8
0
 10
65
 20
-485
 11
115
 21
-485
  0
LINE
  8
0
 10
115
 20
-485
 11
115
 21
485.115
  0
LINE
  8
0
 10
77.2744
 20
255.714
 11
77.0524
 21
255.757
  0
LINE
  8
0
 10
77.0524
 20
255.757
 11
76.8374
 21
255.826
  0
LINE
  8
0
 10
76.8374
 20
255.826
 11
76.6328
 21
255.923
  0
LINE
  8
0
 10
76.6328
 20
255.923
 11
76.442
 21
256.044
  0
LINE
  8
0
 10
76.442
 20
256.044
 11
76.2678
 21
256.188
  0
LINE
  8
0
 10
76.2678
 20
256.188
 11
76.1131
 21
256.353
  0
LINE
  8
0
 10
76.1131
 20
256.353
 11
75.9802
 21
256.536
  0
LINE
  8
0
 10
75.9802
 20
256.536
 11
75.8713
 21
256.734
  0
LINE
  8
0
 10
75.8713
 20
256.734
 11
75.7881
 21
256.944
  0
LINE
  8
0
 10
75.7881
 20
256.944
 11
75.7319
 21
257.163
  0
LINE
  8
0
 10
75.7319
 20
257.163
 11
75.7036
 21
257.387
  0
LINE
  8
0
 10
75.7036
 20
257.387
 11
75.7036
 21
257.613
  0
LINE
  8
0
 10
75.7036
 20
257.613
 11
75.7319
 21
257.837
  0
LINE
  8
0
 10
75.7319
 20
257.837
 11
75.7881
 21
258.056
  0
LINE
  8
0
 10
75.7881
 20
258.056
 11
75.8713
 21
258.266
  0
LINE
  8
0
 10
75.8713
 20
258.266
 11
75.9802
 21
258.464
  0
LINE
  8
0
 10
75.9802
 20
258.464
 11
76.1131
 21
258.647
  0
LINE
  8
0
 10
76.1131
 20
258.647
 11
76.2678
 21
258.812
  0
LINE
  8
0
 10
76.2678
 20
258.812
 11
76.442
 21
258.956
  0
LINE
  8
0
 10
76.442
 20
258.956
 11
76.6328
 21
259.077
  0
LINE
  8
0
 10
76.6328
 20
259.077
 11
76.8374
 21
259.174
  0
LINE
  8
0
 10
76.8374
 20
259.174
 11
77.0524
 21
259.243
  0
LINE
  8
0
 10
77.0524
 20
259.243
 11
77.2744
 21
259.286
  0
LINE
  8
0
 10
77.2744
 20
259.286
 11
77.5
 21
259.3
  0
LINE
  8
0
 10
77.5
 20
259.3
 11
77.7256
 21
259.286
  0
LINE
  8
0
 10
77.7256
 20
259.286
 11
77.9476
 21
259.243
  0
LINE
  8
0
 10
77.9476
 20
259.243
 11
78.1626
 21
259.174
  0
LINE
  8
0
 10
78.1626
 20
259.174
 11
78.3672
 21
259.077
  0
LINE
  8
0
 10
78.3672
 20
259.077
 11
78.558
 21
258.956
  0
LINE
  8
0
 10
78.558
 20
258.956
 11
78.7322
 21
258.812
  0
LINE
  8
0
 10
78.7322
 20
258.812
 11
78.8869
 21
258.647
  0
LINE
  8
0
 10
78.8869
 20
258.647
 11
79.0198
 21
258.464
  0
LINE
  8
0
 10
79.0198
 20
258.464
 11
79.1287
 21
258.266
  0
LINE
  8
0
 10
79.1287
 20
258.266
 11
79.2119
 21
258.056
  0
LINE
  8
0
 10
79.2119
 20
258.056
 11
79.2681
 21
257.837
  0
LINE
  8
0
 10
79.2681
 20
257.837
 11
79.2964
 21
257.613
  0
LINE
  8
0
 10
79.2964
 20
257.613
 11
79.2964
 21
257.387
  0
LINE
  8
0
 10
79.2964
 20
257.387
 11
79.2681
 21
257.163
  0
LINE
  8
0
 10
79.2681
 20
257.163
 11
79.2119
 21
256.944
  0
LINE
  8
0
 10
79.2119
 20
256.944
 11
79.1287
 21
256.734
  0
LINE
  8
0
 10
79.1287
 20
256.734
 11
79.0198
 21
256.536
  0
LINE
  8
0
 10
79.0198
 20
256.536
 11
78.8869
 21
256.353
  0
LINE
  8
0
 10
78.8869
 20
256.353
 11
78.7322
 21
256.188
  0
LINE
  8
0
 10
78.7322
 20
256.188
 11
78.558
 21
256.044
  0
LINE
  8
0
 10
78.558
 20
256.044
 11
78.3672
 21
255.923
  0
LINE
  8
0
 10
78.3672
 20
255.923
 11
78.1626
 21
255.826
  0
LINE
  8
0
 10
78.1626
 20
255.826
 11
77.9476
 21
255.757
  0
LINE
  8
0
 10
77.9476
 20
255.757
 11
77.7256
 21
255.714
  0
LINE
  8
0
 10
77.7256
 20
255.714
 11
77.5
 21
255.7
  0
LINE
  8
0
 10
77.5
 20
255.7
 11
77.2744
 21
255.714
  0
LINE
  8
0
 10
77.2744
 20
240.714
 11
77.0524
 21
240.757
  0
LINE
  8
0
 10
77.0524
 20
240.757
 11
76.8374
 21
240.826
  0
LINE
  8
0
 10
76.8374
 20
240.826
 11
76.6328
 21
240.923
  0
LINE
  8
0
 10
76.6328
 20
240.923
 11
76.442
 21
241.044
  0
LINE
  8
0
 10
76.442
 20
241.044
 11
76.2678
 21
241.188
  0
LINE
  8
0
 10
76.2678
 20
241.188
 11
76.1131
 21
241.353
  0
LINE
  8
0
 10
76.1131
 20
241.353
 11
75.9802
 21
241.536
  0
LINE
  8
0
 10
75.9802
 20
241.536
 11
75.8713
 21
241.734
  0
LINE
  8
0
 10
75.8713
 20
241.734
 11
75.7881
 21
241.944
  0
LINE
  8
0
 10
75.7881
 20
241.944
 11
75.7319
 21
242.163
  0
LINE
  8
0
 10
75.7319
 20
242.163
 11
75.7036
 21
242.387
  0
LINE
  8
0
 10
75.7036
 20
242.387
 11
75.7036
 21
242.613
  0
LINE
  8
0
 10
75.7036
 20
242.613
 11
75.7319
 21
242.837
  0
LINE
  8
0
 10
75.7319
 20
242.837
 11
75.7881
 21
243.056
  0
LINE
  8
0
 10
75.7881
 20
243.056
 11
75.8713
 21
243.266
  0
LINE
  8
0
 10
75.8713
 20
243.266
 11
75.9802
 21
243.464
  0
LINE
  8
0
 10
75.9802
 20
243.464
 11
76.1131
 21
243.647
  0
LINE
  8
0
 10
76.1131
 20
243.647
 11
76.2678
 21
243.812
  0
LINE
  8
0
 10
76.2678
 20
243.812
 11
76.442
 21
243.956
  0
LINE
  8
0
 10
76.442
 20
243.956
 11
76.6328
 21
244.077
  0
LINE
  8
0
 10
76.6328
 20
244.077
 11
76.8374
 21
244.174
  0
LINE
  8
0
 10
76.8374
 20
244.174
 11
77.0524
 21
244.243
  0
LINE
  8
0
 10
77.0524
 20
244.243
 11
77.2744
 21
244.286
  0
LINE
  8
0
 10
77.2744
 20
244.286
 11
77.5
 21
244.3
  0
LINE
  8
0
 10
77.5
 20
244.3
 11
77.7256
 21
244.286
  0
LINE
  8
0
 10
77.7256
 20
244.286
 11
77.9476
 21
244.243
  0
LINE
  8
0
 10
77.9476
 20
244.243
 11
78.1626
 21
244.174
  0
LINE
  8
0
 10
78.1626
 20
244.174
 11
78.3672
 21
244.077
  0
LINE
  8
0
 10
78.3672
 20
244.077
 11
78.558
 21
243.956
  0
LINE
  8
0
 10
78.558
 20
243.956
 11
78.7322
 21
243.812
  0
LINE
  8
0
 10
78.7322
 20
243.812
 11
78.8869
 21
243.647
  0
LINE
  8
0
 10
78.8869
 20
243.647
 11
79.0198
 21
243.464
  0
LINE
  8
0
 10
79.0198
 20
243.464
 11
79.1287
 21
243.266
  0
LINE
  8
0
 10
79.1287
 20
243.266
 11
79.2119
 21
243.056
  0
LINE
  8
0
 10
79.2119
 20
243.056
 11
79.2681
 21
242.837
  0
LINE
  8
0
 10
79.2681
 20
242.837
 11
79.2964
 21
242.613
  0
LINE
  8
0
 10
79.2964
 20
242.613
 11
79.2964
 21
242.387
  0
LINE
  8
0
 10
79.2964
 20
242.387
 11
79.2681
 21
242.163
  0
LINE
  8
0
 10
79.2681
 20
242.163
 11
79.2119
 21
241.944
  0
LINE
  8
0
 10
79.2119
 20
241.944
 11
79.1287
 21
241.734
  0
LINE
  8
0
 10
79.1287
 20
241.734
 11
79.0198
 21
241.536
  0
LINE
  8
0
 10
79.0198
 20
241.536
 11
78.8869
 21
241.353
  0
LINE
  8
0
 10
78.8869
 20
241.353
 11
78.7322
 21
241.188
  0
LINE
  8
0
 10
78.7322
 20
241.188
 11
78.558
 21
241.044
  0
LINE
  8
0
 10
78.558
 20
241.044
 11
78.3672
 21
240.923
  0
LINE
  8
0
 10
78.3672
 20
240.923
 11
78.1626
 21
240.826
  0
LINE
  8
0
 10
78.1626
 20
240.826
 11
77.9476
 21
240.757
  0
LINE
  8
0
 10
77.9476
 20
240.757
 11
77.7256
 21
240.714
  0
LINE
  8
0
 10
77.7256
 20
240.714
 11
77.5
 21
240.7
  0
LINE
  8
0
 10
77.5
 20
240.7
 11
77.2744
 21
240.714
  0
LINE
  8
0
 10
77.2744
 20
225.714
 11
77.0524
 21
225.757
  0
LINE
  8
0
 10
77.0524
 20
225.757
 11
76.8374
 21
225.826
  0
LINE
  8
0
 10
76.8374
 20
225.826
 11
76.6328
 21
225.923
  0
LINE
  8
0
 10
76.6328
 20
225.923
 11
76.442
 21
226.044
  0
LINE
  8
0
 10
76.442
 20
226.044
 11
76.2678
 21
226.188
  0
LINE
  8
0
 10
76.2678
 20
226.188
 11
76.1131
 21
226.353
  0
LINE
  8
0
 10
76.1131
 20
226.353
 11
75.9802
 21
226.536
  0
LINE
  8
0
 10
75.9802
 20
226.536
 11
75.8713
 21
226.734
  0
LINE
  8
0
 10
75.8713
 20
226.734
 11
75.7881
 21
226.944
  0
LINE
  8
0
 10
75.7881
 20
226.944
 11
75.7319
 21
227.163
  0
LINE
  8
0
 10
75.7319
 20
227.163
 11
75.7036
 21
227.387
  0
LINE
  8
0
 10
75.7036
 20
227.387
 11
75.7036
 21
227.613
  0
LINE
  8
0
 10
75.7036
 20
227.613
 11
75.7319
 21
227.837
  0
LINE
  8
0
 10
75.7319
 20
227.837
 11
75.7881
 21
228.056
  0
LINE
  8
0
 10
75.7881
 20
228.056
 11
75.8713
 21
228.266
  0
LINE
  8
0
 10
75.8713
 20
228.266
 11
75.9802
 21
228.464
  0
LINE
  8
0
 10
75.9802
 20
228.464
 11
76.1131
 21
228.647
  0
LINE
  8
0
 10
76.1131
 20
228.647
 11
76.2678
 21
228.812
  0
LINE
  8
0
 10
76.2678
 20
228.812
 11
76.442
 21
228.956
  0
LINE
  8
0
 10
76.442
 20
228.956
 11
76.6328
 21
229.077
  0
LINE
  8
0
 10
76.6328
 20
229.077
 11
76.8374
 21
229.174
  0
LINE
  8
0
 10
76.8374
 20
229.174
 11
77.0524
 21
229.243
  0
LINE
  8
0
 10
77.0524
 20
229.243
 11
77.2744
 21
229.286
  0
LINE
  8
0
 10
77.2744
 20
229.286
 11
77.5
 21
229.3
  0
LINE
  8
0
 10
77.5
 20
229.3
 11
77.7256
 21
229.286
  0
LINE
  8
0
 10
77.7256
 20
229.286
 11
77.9476
 21
229.243
  0
LINE
  8
0
 10
77.9476
 20
229.243
 11
78.1626
 21
229.174
  0
LINE
  8
0
 10
78.1626
 20
229.174
 11
78.3672
 21
229.077
  0
LINE
  8
0
 10
78.3672
 20
229.077
 11
78.558
 21
228.956
  0
LINE
  8
0
 10
78.558
 20
228.956
 11
78.7322
 21
228.812
  0
LINE
  8
0
 10
78.7322
 20
228.812
 11
78.8869
 21
228.647
  0
LINE
  8
0
 10
78.8869
 20
228.647
 11
79.0198
 21
228.464
  0
LINE
  8
0
 10
79.0198
 20
228.464
 11
79.1287
 21
228.266
  0
LINE
  8
0
 10
79.1287
 20
228.266
 11
79.2119
 21
228.056
  0
LINE
  8
0
 10
79.2119
 20
228.056
 11
79.2681
 21
227.837
  0
LINE
  8
0
 10
79.2681
 20
227.837
 11
79.2964
 21
227.613
  0
LINE
  8
0
 10
79.2964
 20
227.613
 11
79.2964
 21
227.387
  0
LINE
  8
0
 10
79.2964
 20
227.387
 11
79.2681
 21
227.163
  0
LINE
  8
0
 10
79.2681
 20
227.163
 11
79.2119
 21
226.944
  0
LINE
  8
0
 10
79.2119
 20
226.944
 11
79.1287
 21
226.734
  0
LINE
  8
0
 10
79.1287
 20
226.734
 11
79.0198
 21
226.536
  0
LINE
  8
0
 10
79.0198
 20
226.536
 11
78.8869
 21
226.353
  0
LINE
  8
0
 10
78.8869
 20
226.353
 11
78.7322
 21
226.188
  0
LINE
  8
0
 10
78.7322
 20
226.188
 11
78.558
 21
226.044
  0
LINE
  8
0
 10
78.558
 20
226.044
 11
78.3672
 21
225.923
  0
LINE
  8
0
 10
78.3672
 20
225.923
 11
78.1626
 21
225.826
  0
LINE
  8
0
 10
78.1626
 20
225.826
 11
77.9476
 21
225.757
  0
LINE
  8
0
 10
77.9476
 20
225.757
 11
77.7256
 21
225.714
  0
LINE
  8
0
 10
77.7256
 20
225.714
 11
77.5
 21
225.7
  0
LINE
  8
0
 10
77.5
 20
225.7
 11
77.2744
 21
225.714
  0
LINE
  8
0
 10
77.2744
 20
-397.786
 11
77.0524
 21
-397.743
  0
LINE
  8
0
 10
77.0524
 20
-397.743
 11
76.8374
 21
-397.674
  0
LINE
  8
0
 10
76.8374
 20
-397.674
 11
76.6328
 21
-397.577
  0
LINE
  8
0
 10
76.6328
 20
-397.577
 11
76.442
 21
-397.456
  0
LINE
  8
0
 10
76.442
 20
-397.456
 11
76.2678
 21
-397.312
  0
LINE
  8
0
 10
76.2678
 20
-397.312
 11
76.1131
 21
-397.147
  0
LINE
  8
0
 10
76.1131
 20
-397.147
 11
75.9802
 21
-396.964
  0
LINE
  8
0
 10
75.9802
 20
-396.964
 11
75.8713
 21
-396.766
  0
LINE
  8
0
 10
75.8713
 20
-396.766
 11
75.7881
 21
-396.556
  0
LINE
  8
0
 10
75.7881
 20
-396.556
 11
75.7319
 21
-396.337
  0
LINE
  8
0
 10
75.7319
 20
-396.337
 11
75.7036
 21
-396.113
  0
LINE
  8
0
 10
75.7036
 20
-396.113
 11
75.7036
 21
-395.887
  0
LINE
  8
0
 10
75.7036
 20
-395.887
 11
75.7319
 21
-395.663
  0
LINE
  8
0
 10
75.7319
 20
-395.663
 11
75.7881
 21
-395.444
  0
LINE
  8
0
 10
75.7881
 20
-395.444
 11
75.8713
 21
-395.234
  0
LINE
  8
0
 10
75.8713
 20
-395.234
 11
75.9802
 21
-395.036
  0
LINE
  8
0
 10
75.9802
 20
-395.036
 11
76.1131
 21
-394.853
  0
LINE
  8
0
 10
76.1131
 20
-394.853
 11
76.2678
 21
-394.688
  0
LINE
  8
0
 10
76.2678
 20
-394.688
 11
76.442
 21
-394.544
  0
LINE
  8
0
 10
76.442
 20
-394.544
 11
76.6328
 21
-394.423
  0
LINE
  8
0
 10
76.6328
 20
-394.423
 11
76.8374
 21
-394.326
  0
LINE
  8
0
 10
76.8374
 20
-394.326
 11
77.0524
 21
-394.257
  0
LINE
  8
0
 10
77.0524
 20
-394.257
 11
77.2744
 21
-394.214
  0
LINE
  8
0
 10
77.2744
 20
-394.214
 11
77.5
 21
-394.2
  0
LINE
  8
0
 10
77.5
 20
-394.2
 11
77.7256
 21
-394.214
  0
LINE
  8
0
 10
77.7256
 20
-394.214
 11
77.9476
 21
-394.257
  0
LINE
  8
0
 10
77.9476
 20
-394.257
 11
78.1626
 21
-394.326
  0
LINE
  8
0
 10
78.1626
 20
-394.326
 11
78.3672
 21
-394.423
  0
LINE
  8
0
 10
78.3672
 20
-394.423
 11
78.558
 21
-394.544
  0
LINE
  8
0
 10
78.558
 20
-394.544
 11
78.7322
 21
-394.688
  0
LINE
  8
0
 10
78.7322
 20
-394.688
 11
78.8869
 21
-394.853
  0
LINE
  8
0
 10
78.8869
 20
-394.853
 11
79.0198
 21
-395.036
  0
LINE
  8
0
 10
79.0198
 20
-395.036
 11
79.1287
 21
-395.234
  0
LINE
  8
0
 10
79.1287
 20
-395.234
 11
79.2119
 21
-395.444
  0
LINE
  8
0
 10
79.2119
 20
-395.444
 11
79.2681
 21
-395.663
  0
LINE
  8
0
 10
79.2681
 20
-395.663
 11
79.2964
 21
-395.887
  0
LINE
  8
0
 10
79.2964
 20
-395.887
 11
79.2964
 21
-396.113
  0
LINE
  8
0
 10
79.2964
 20
-396.113
 11
79.2681
 21
-396.337
  0
LINE
  8
0
 10
79.2681
 20
-396.337
 11
79.2119
 21
-396.556
  0
LINE
  8
0
 10
79.2119
 20
-396.556
 11
79.1287
 21
-396.766
  0
LINE
  8
0
 10
79.1287
 20
-396.766
 11
79.0198
 21
-396.964
  0
LINE
  8
0
 10
79.0198
 20
-396.964
 11
78.8869
 21
-397.147
  0
LINE
  8
0
 10
78.8869
 20
-397.147
 11
78.7322
 21
-397.312
  0
LINE
  8
0
 10
78.7322
 20
-397.312
 11
78.558
 21
-397.456
  0
LINE
  8
0
 10
78.558
 20
-397.456
 11
78.3672
 21
-397.577
  0
LINE
  8
0
 10
78.3672
 20
-397.577
 11
78.1626
 21
-397.674
  0
LINE
  8
0
 10
78.1626
 20
-397.674
 11
77.9476
 21
-397.743
  0
LINE
  8
0
 10
77.9476
 20
-397.743
 11
77.7256
 21
-397.786
  0
LINE
  8
0
 10
77.7256
 20
-397.786
 11
77.5
 21
-397.8
  0
LINE
  8
0
 10
77.5
 20
-397.8
 11
77.2744
 21
-397.786
  0
LINE
  8
0
 10
93.2744
 20
-417.786
 11
93.0524
 21
-417.743
  0
LINE
  8
0
 10
93.0524
 20
-417.743
 11
92.8374
 21
-417.674
  0
LINE
  8
0
 10
92.8374
 20
-417.674
 11
92.6328
 21
-417.577
  0
LINE
  8
0
 10
92.6328
 20
-417.577
 11
92.442
 21
-417.456
  0
LINE
  8
0
 10
92.442
 20
-417.456
 11
92.2678
 21
-417.312
  0
LINE
  8
0
 10
92.2678
 20
-417.312
 11
92.1131
 21
-417.147
  0
LINE
  8
0
 10
92.1131
 20
-417.147
 11
91.9802
 21
-416.964
  0
LINE
  8
0
 10
91.9802
 20
-416.964
 11
91.8713
 21
-416.766
  0
LINE
  8
0
 10
91.8713
 20
-416.766
 11
91.7881
 21
-416.556
  0
LINE
  8
0
 10
91.7881
 20
-416.556
 11
91.7319
 21
-416.337
  0
LINE
  8
0
 10
91.7319
 20
-416.337
 11
91.7036
 21
-416.113
  0
LINE
  8
0
 10
91.7036
 20
-416.113
 11
91.7036
 21
-415.887
  0
LINE
  8
0
 10
91.7036
 20
-415.887
 11
91.7319
 21
-415.663
  0
LINE
  8
0
 10
91.7319
 20
-415.663
 11
91.7881
 21
-415.444
  0
LINE
  8
0
 10
91.7881
 20
-415.444
 11
91.8713
 21
-415.234
  0
LINE
  8
0
 10
91.8713
 20
-415.234
 11
91.9802
 21
-415.036
  0
LINE
  8
0
 10
91.9802
 20
-415.036
 11
92.1131
 21
-414.853
  0
LINE
  8
0
 10
92.1131
 20
-414.853
 11
92.2678
 21
-414.688
  0
LINE
  8
0
 10
92.2678
 20
-414.688
 11
92.442
 21
-414.544
  0
LINE
  8
0
 10
92.442
 20
-414.544
 11
92.6328
 21
-414.423
  0
LINE
  8
0
 10
92.6328
 20
-414.423
 11
92.8374
 21
-414.326
  0
LINE
  8
0
 10
92.8374
 20
-414.326
 11
93.0524
 21
-414.257
  0
LINE
  8
0
 10
93.0524
 20
-414.257
 11
93.2744
 21
-414.214
  0
LINE
  8
0
 10
93.2744
 20
-414.214
 11
93.5
 21
-414.2
  0
LINE
  8
0
 10
93.5
 20
-414.2
 11
93.7256
 21
-414.214
  0
LINE
  8
0
 10
93.7256
 20
-414.214
 11
93.9476
 21
-414.257
  0
LINE
  8
0
 10
93.9476
 20
-414.257
 11
94.1626
 21
-414.326
  0
LINE
  8
0
 10
94.1626
 20
-414.326
 11
94.3672
 21
-414.423
  0
LINE
  8
0
 10
94.3672
 20
-414.423
 11
94.558
 21
-414.544
  0
LINE
  8
0
 10
94.558
 20
-414.544
 11
94.7322
 21
-414.688
  0
LINE
  8
0
 10
94.7322
 20
-414.688
 11
94.8869
 21
-414.853
  0
LINE
  8
0
 10
94.8869
 20
-414.853
 11
95.0198
 21
-415.036
  0
LINE
  8
0
 10
95.0198
 20
-415.036
 11
95.1287
 21
-415.234
  0
LINE
  8
0
 10
95.1287
 20
-415.234
 11
95.2119
 21
-415.444
  0
LINE
  8
0
 10
95.2119
 20
-415.444
 11
95.2681
 21
-415.663
  0
LINE
  8
0
 10
95.2681
 20
-415.663
 11
95.2964
 21
-415.887
  0
LINE
  8
0
 10
95.2964
 20
-415.887
 11
95.2964
 21
-416.113
  0
LINE
  8
0
 10
95.2964
 20
-416.113
 11
95.2681
 21
-416.337
  0
LINE
  8
0
 10
95.2681
 20
-416.337
 11
95.2119
 21
-416.556
  0
LINE
  8
0
 10
95.2119
 20
-416.556
 11
95.1287
 21
-416.766
  0
LINE
  8
0
 10
95.1287
 20
-416.766
 11
95.0198
 21
-416.964
  0
LINE
  8
0
 10
95.0198
 20
-416.964
 11
94.8869
 21
-417.147
  0
LINE
  8
0
 10
94.8869
 20
-417.147
 11
94.7322
 21
-417.312
  0
LINE
  8
0
 10
94.7322
 20
-417.312
 11
94.558
 21
-417.456
  0
LINE
  8
0
 10
94.558
 20
-417.456
 11
94.3672
 21
-417.577
  0
LINE
  8
0
 10
94.3672
 20
-417.577
 11
94.1626
 21
-417.674
  0
LINE
  8
0
 10
94.1626
 20
-417.674
 11
93.9476
 21
-417.743
  0
LINE
  8
0
 10
93.9476
 20
-417.743
 11
93.7256
 21
-417.786
  0
LINE
  8
0
 10
93.7256
 20
-417.786
 11
93.5
 21
-417.8
  0
LINE
  8
0
 10
93.5
 20
-417.8
 11
93.2744
 21
-417.786
  0
LINE
  8
0
 10
77.2744
 20
-437.786
 11
77.0524
 21
-437.743
  0
LINE
  8
0
 10
77.0524
 20
-437.743
 11
76.8374
 21
-437.674
  0
LINE
  8
0
 10
76.8374
 20
-437.674
 11
76.6328
 21
-437.577
  0
LINE
  8
0
 10
76.6328
 20
-437.577
 11
76.442
 21
-437.456
  0
LINE
  8
0
 10
76.442
 20
-437.456
 11
76.2678
 21
-437.312
  0
LINE
  8
0
 10
76.2678
 20
-437.312
 11
76.1131
 21
-437.147
  0
LINE
  8
0
 10
76.1131
 20
-437.147
 11
75.9802
 21
-436.964
  0
LINE
  8
0
 10
75.9802
 20
-436.964
 11
75.8713
 21
-436.766
  0
LINE
  8
0
 10
75.8713
 20
-436.766
 11
75.7881
 21
-436.556
  0
LINE
  8
0
 10
75.7881
 20
-436.556
 11
75.7319
 21
-436.337
  0
LINE
  8
0
 10
75.7319
 20
-436.337
 11
75.7036
 21
-436.113
  0
LINE
  8
0
 10
75.7036
 20
-436.113
 11
75.7036
 21
-435.887
  0
LINE
  8
0
 10
75.7036
 20
-435.887
 11
75.7319
 21
-435.663
  0
LINE
  8
0
 10
75.7319
 20
-435.663
 11
75.7881
 21
-435.444
  0
LINE
  8
0
 10
75.7881
 20
-435.444
 11
75.8713
 21
-435.234
  0
LINE
  8
0
 10
75.8713
 20
-435.234
 11
75.9802
 21
-435.036
  0
LINE
  8
0
 10
75.9802
 20
-435.036
 11
76.1131
 21
-434.853
  0
LINE
  8
0
 10
76.1131
 20
-434.853
 11
76.2678
 21
-434.688
  0
LINE
  8
0
 10
76.2678
 20
-434.688
 11
76.442
 21
-434.544
  0
LINE
  8
0
 10
76.442
 20
-434.544
 11
76.6328
 21
-434.423
  0
LINE
  8
0
 10
76.6328
 20
-434.423
 11
76.8374
 21
-434.326
  0
LINE
  8
0
 10
76.8374
 20
-434.326
 11
77.0524
 21
-434.257
  0
LINE
  8
0
 10
77.0524
 20
-434.257
 11
77.2744
 21
-434.214
  0
LINE
  8
0
 10
77.2744
 20
-434.214
 11
77.5
 21
-434.2
  0
LINE
  8
0
 10
77.5
 20
-434.2
 11
77.7256
 21
-434.214
  0
LINE
  8
0
 10
77.7256
 20
-434.214
 11
77.9476
 21
-434.257
  0
LINE
  8
0
 10
77.9476
 20
-434.257
 11
78.1626
 21
-434.326
  0
LINE
  8
0
 10
78.1626
 20
-434.326
 11
78.3672
 21
-434.423
  0
LINE
  8
0
 10
78.3672
 20
-434.423
 11
78.558
 21
-434.544
  0
LINE
  8
0
 10
78.558
 20
-434.544
 11
78.7322
 21
-434.688
  0
LINE
  8
0
 10
78.7322
 20
-434.688
 11
78.8869
 21
-434.853
  0
LINE
  8
0
 10
78.8869
 20
-434.853
 11
79.0198
 21
-435.036
  0
LINE
  8
0
 10
79.0198
 20
-435.036
 11
79.1287
 21
-435.234
  0
LINE
  8
0
 10
79.1287
 20
-435.234
 11
79.2119
 21
-435.444
  0
LINE
  8
0
 10
79.2119
 20
-435.444
 11
79.2681
 21
-435.663
  0
LINE
  8
0
 10
79.2681
 20
-435.663
 11
79.2964
 21
-435.887
  0
LINE
  8
0
 10
79.2964
 20
-435.887
 11
79.2964
 21
-436.113
  0
LINE
  8
0
 10
79.2964
 20
-436.113
 11
79.2681
 21
-436.337
  0
LINE
  8
0
 10
79.2681
 20
-436.337
 11
79.2119
 21
-436.556
  0
LINE
  8
0
 10
79.2119
 20
-436.556
 11
79.1287
 21
-436.766
  0
LINE
  8
0
 10
79.1287
 20
-436.766
 11
79.0198
 21
-436.964
  0
LINE
  8
0
 10
79.0198
 20
-436.964
 11
78.8869
 21
-437.147
  0
LINE
  8
0
 10
78.8869
 20
-437.147
 11
78.7322
 21
-437.312
  0
LINE
  8
0
 10
78.7322
 20
-437.312
 11
78.558
 21
-437.456
  0
LINE
  8
0
 10
78.558
 20
-437.456
 11
78.3672
 21
-437.577
  0
LINE
  8
0
 10
78.3672
 20
-437.577
 11
78.1626
 21
-437.674
  0
LINE
  8
0
 10
78.1626
 20
-437.674
 11
77.9476
 21
-437.743
  0
LINE
  8
0
 10
77.9476
 20
-437.743
 11
77.7256
 21
-437.786
  0
LINE
  8
0
 10
77.7256
 20
-437.786
 11
77.5
 21
-437.8
  0
LINE
  8
0
 10
77.5
 20
-437.8
 11
77.2744
 21
-437.786
  0
LINE
  8
0
 10
95.2744
 20
-457.786
 11
95.0524
 21
-457.743
  0
LINE
  8
0
 10
95.0524
 20
-457.743
 11
94.8374
 21
-457.674
  0
LINE
  8
0
 10
94.8374
 20
-457.674
 11
94.6328
 21
-457.577
  0
LINE
  8
0
 10
94.6328
 20
-457.577
 11
94.442
 21
-457.456
  0
LINE
  8
0
 10
94.442
 20
-457.456
 11
94.2678
 21
-457.312
  0
LINE
  8
0
 10
94.2678
 20
-457.312
 11
94.1131
 21
-457.147
  0
LINE
  8
0
 10
94.1131
 20
-457.147
 11
93.9802
 21
-456.964
  0
LINE
  8
0
 10
93.9802
 20
-456.964
 11
93.8713
 21
-456.766
  0
LINE
  8
0
 10
93.8713
 20
-456.766
 11
93.7881
 21
-456.556
  0
LINE
  8
0
 10
93.7881
 20
-456.556
 11
93.7319
 21
-456.337
  0
LINE
  8
0
 10
93.7319
 20
-456.337
 11
93.7036
 21
-456.113
  0
LINE
  8
0
 10
93.7036
 20
-456.113
 11
93.7036
 21
-455.887
  0
LINE
  8
0
 10
93.7036
 20
-455.887
 11
93.7319
 21
-455.663
  0
LINE
  8
0
 10
93.7319
 20
-455.663
 11
93.7881
 21
-455.444
  0
LINE
  8
0
 10
93.7881
 20
-455.444
 11
93.8713
 21
-455.234
  0
LINE
  8
0
 10
93.8713
 20
-455.234
 11
93.9802
 21
-455.036
  0
LINE
  8
0
 10
93.9802
 20
-455.036
 11
94.1131
 21
-454.853
  0
LINE
  8
0
 10
94.1131
 20
-454.853
 11
94.2678
 21
-454.688
  0
LINE
  8
0
 10
94.2678
 20
-454.688
 11
94.442
 21
-454.544
  0
LINE
  8
0
 10
94.442
 20
-454.544
 11
94.6328
 21
-454.423
  0
LINE
  8
0
 10
94.6328
 20
-454.423
 11
94.8374
 21
-454.326
  0
LINE
  8
0
 10
94.8374
 20
-454.326
 11
95.0524
 21
-454.257
  0
LINE
  8
0
 10
95.0524
 20
-454.257
 11
95.2744
 21
-454.214
  0
LINE
  8
0
 10
95.2744
 20
-454.214
 11
95.5
 21
-454.2
  0
LINE
  8
0
 10
95.5
 20
-454.2
 11
95.7256
 21
-454.214
  0
LINE
  8
0
 10
95.7256
 20
-454.214
 11
95.9476
 21
-454.257
  0
LINE
  8
0
 10
95.9476
 20
-454.257
 11
96.1626
 21
-454.326
  0
LINE
  8
0
 10
96.1626
 20
-454.326
 11
96.3672
 21
-454.423
  0
LINE
  8
0
 10
96.3672
 20
-454.423
 11
96.558
 21
-454.544
  0
LINE
  8
0
 10
96.558
 20
-454.544
 11
96.7322
 21
-454.688
  0
LINE
  8
0
 10
96.7322
 20
-454.688
 11
96.8869
 21
-454.853
  0
LINE
  8
0
 10
96.8869
 20
-454.853
 11
97.0198
 21
-455.036
  0
LINE
  8
0
 10
97.0198
 20
-455.036
 11
97.1287
 21
-455.234
  0
LINE
  8
0
 10
97.1287
 20
-455.234
 11
97.2119
 21
-455.444
  0
LINE
  8
0
 10
97.2119
 20
-455.444
 11
97.2681
 21
-455.663
  0
LINE
  8
0
 10
97.2681
 20
-455.663
 11
97.2964
 21
-455.887
  0
LINE
  8
0
 10
97.2964
 20
-455.887
 11
97.2964
 21
-456.113
  0
LINE
  8
0
 10
97.2964
 20
-456.113
 11
97.2681
 21
-456.337
  0
LINE
  8
0
 10
97.2681
 20
-456.337
 11
97.2119
 21
-456.556
  0
LINE
  8
0
 10
97.2119
 20
-456.556
 11
97.1287
 21
-456.766
  0
LINE
  8
0
 10
97.1287
 20
-456.766
 11
97.0198
 21
-456.964
  0
LINE
  8
0
 10
97.0198
 20
-456.964
 11
96.8869
 21
-457.147
  0
LINE
  8
0
 10
96.8869
 20
-457.147
 11
96.7322
 21
-457.312
  0
LINE
  8
0
 10
96.7322
 20
-457.312
 11
96.558
 21
-457.456
  0
LINE
  8
0
 10
96.558
 20
-457.456
 11
96.3672
 21
-457.577
  0
LINE
  8
0
 10
96.3672
 20
-457.577
 11
96.1626
 21
-457.674
  0
LINE
  8
0
 10
96.1626
 20
-457.674
 11
95.9476
 21
-457.743
  0
LINE
  8
0
 10
95.9476
 20
-457.743
 11
95.7256
 21
-457.786
  0
LINE
  8
0
 10
95.7256
 20
-457.786
 11
95.5
 21
-457.8
  0
LINE
  8
0
 10
95.5
 20
-457.8
 11
95.2744
 21
-457.786
  0
LINE
  8
0
 10
77.2744
 20
-477.786
 11
77.0524
 21
-477.743
  0
LINE
  8
0
 10
77.0524
 20
-477.743
 11
76.8374
 21
-477.674
  0
LINE
  8
0
 10
76.8374
 20
-477.674
 11
76.6328
 21
-477.577
  0
LINE
  8
0
 10
76.6328
 20
-477.577
 11
76.442
 21
-477.456
  0
LINE
  8
0
 10
76.442
 20
-477.456
 11
76.2678
 21
-477.312
  0
LINE
  8
0
 10
76.2678
 20
-477.312
 11
76.1131
 21
-477.147
  0
LINE
  8
0
 10
76.1131
 20
-477.147
 11
75.9802
 21
-476.964
  0
LINE
  8
0
 10
75.9802
 20
-476.964
 11
75.8713
 21
-476.766
  0
LINE
  8
0
 10
75.8713
 20
-476.766
 11
75.7881
 21
-476.556
  0
LINE
  8
0
 10
75.7881
 20
-476.556
 11
75.7319
 21
-476.337
  0
LINE
  8
0
 10
75.7319
 20
-476.337
 11
75.7036
 21
-476.113
  0
LINE
  8
0
 10
75.7036
 20
-476.113
 11
75.7036
 21
-475.887
  0
LINE
  8
0
 10
75.7036
 20
-475.887
 11
75.7319
 21
-475.663
  0
LINE
  8
0
 10
75.7319
 20
-475.663
 11
75.7881
 21
-475.444
  0
LINE
  8
0
 10
75.7881
 20
-475.444
 11
75.8713
 21
-475.234
  0
LINE
  8
0
 10
75.8713
 20
-475.234
 11
75.9802
 21
-475.036
  0
LINE
  8
0
 10
75.9802
 20
-475.036
 11
76.1131
 21
-474.853
  0
LINE
  8
0
 10
76.1131
 20
-474.853
 11
76.2678
 21
-474.688
  0
LINE
  8
0
 10
76.2678
 20
-474.688
 11
76.442
 21
-474.544
  0
LINE
  8
0
 10
76.442
 20
-474.544
 11
76.6328
 21
-474.423
  0
LINE
  8
0
 10
76.6328
 20
-474.423
 11
76.8374
 21
-474.326
  0
LINE
  8
0
 10
76.8374
 20
-474.326
 11
77.0524
 21
-474.257
  0
LINE
  8
0
 10
77.0524
 20
-474.257
 11
77.2744
 21
-474.214
  0
LINE
  8
0
 10
77.2744
 20
-474.214
 11
77.5
 21
-474.2
  0
LINE
  8
0
 10
77.5
 20
-474.2
 11
77.7256
 21
-474.214
  0
LINE
  8
0
 10
77.7256
 20
-474.214
 11
77.9476
 21
-474.257
  0
LINE
  8
0
 10
77.9476
 20
-474.257
 11
78.1626
 21
-474.326
  0
LINE
  8
0
 10
78.1626
 20
-474.326
 11
78.3672
 21
-474.423
  0
LINE
  8
0
 10
78.3672
 20
-474.423
 11
78.558
 21
-474.544
  0
LINE
  8
0
 10
78.558
 20
-474.544
 11
78.7322
 21
-474.688
  0
LINE
  8
0
 10
78.7322
 20
-474.688
 11
78.8869
 21
-474.853
  0
LINE
  8
0
 10
78.8869
 20
-474.853
 11
79.0198
 21
-475.036
  0
LINE
  8
0
 10
79.0198
 20
-475.036
 11
79.1287
 21
-475.234
  0
LINE
  8
0
 10
79.1287
 20
-475.234
 11
79.2119
 21
-475.444
  0
LINE
  8
0
 10
79.2119
 20
-475.444
 11
79.2681
 21
-475.663
  0
LINE
  8
0
 10
79.2681
 20
-475.663
 11
79.2964
 21
-475.887
  0
LINE
  8
0
 10
79.2964
 20
-475.887
 11
79.2964
 21
-476.113
  0
LINE
  8
0
 10
79.2964
 20
-476.113
 11
79.2681
 21
-476.337
  0
LINE
  8
0
 10
79.2681
 20
-476.337
 11
79.2119
 21
-476.556
  0
LINE
  8
0
 10
79.2119
 20
-476.556
 11
79.1287
 21
-476.766
  0
LINE
  8
0
 10
79.1287
 20
-476.766
 11
79.0198
 21
-476.964
  0
LINE
  8
0
 10
79.0198
 20
-476.964
 11
78.8869
 21
-477.147
  0
LINE
  8
0
 10
78.8869
 20
-477.147
 11
78.7322
 21
-477.312
  0
LINE
  8
0
 10
78.7322
 20
-477.312
 11
78.558
 21
-477.456
  0
LINE
  8
0
 10
78.558
 20
-477.456
 11
78.3672
 21
-477.577
  0
LINE
  8
0
 10
78.3672
 20
-477.577
 11
78.1626
 21
-477.674
  0
LINE
  8
0
 10
78.1626
 20
-477.674
 11
77.9476
 21
-477.743
  0
LINE
  8
0
 10
77.9476
 20
-477.743
 11
77.7256
 21
-477.786
  0
LINE
  8
0
 10
77.7256
 20
-477.786
 11
77.5
 21
-477.8
  0
LINE
  8
0
 10
77.5
 20
-477.8
 11
77.2744
 21
-477.786
  0
LINE
  8
0
 10
55
 20
485.115
 11
54.8051
 21
485.152
  0
LINE
  8
0
 10
54.8051
 20
485.152
 11
54.5954
 21
485.192
  0
LINE
  8
0
 10
54.5954
 20
485.192
 11
54.3617
 21
485.236
  0
LINE
  8
0
 10
54.3617
 20
485.236
 11
54.1043
 21
485.284
  0
LINE
  8
0
 10
54.1043
 20
485.284
 11
53.8233
 21
485.337
  0
LINE
  8
0
 10
53.8233
 20
485.337
 11
53.5192
 21
485.393
  0
LINE
  8
0
 10
53.5192
 20
485.393
 11
53.1921
 21
485.453
  0
LINE
  8
0
 10
53.1921
 20
485.453
 11
52.8425
 21
485.516
  0
LINE
  8
0
 10
52.8425
 20
485.516
 11
52.4706
 21
485.583
  0
LINE
  8
0
 10
52.4706
 20
485.583
 11
52.0768
 21
485.653
  0
LINE
  8
0
 10
52.0768
 20
485.653
 11
51.6615
 21
485.727
  0
LINE
  8
0
 10
51.6615
 20
485.727
 11
51.2251
 21
485.803
  0
LINE
  8
0
 10
51.2251
 20
485.803
 11
50.7681
 21
485.882
  0
LINE
  8
0
 10
50.7681
 20
485.882
 11
50.2909
 21
485.963
  0
LINE
  8
0
 10
50.2909
 20
485.963
 11
49.794
 21
486.047
  0
LINE
  8
0
 10
49.794
 20
486.047
 11
49.2778
 21
486.133
  0
LINE
  8
0
 10
49.2778
 20
486.133
 11
48.7429
 21
486.222
  0
LINE
  8
0
 10
48.7429
 20
486.222
 11
48.1898
 21
486.311
  0
LINE
  8
0
 10
48.1898
 20
486.311
 11
47.619
 21
486.403
  0
LINE
  8
0
 10
47.619
 20
486.403
 11
47.0312
 21
486.496
  0
LINE
  8
0
 10
47.0312
 20
486.496
 11
46.4268
 21
486.59
  0
LINE
  8
0
 10
46.4268
 20
486.59
 11
45.8065
 21
486.685
  0
LINE
  8
0
 10
45.8065
 20
486.685
 11
45.171
 21
486.781
  0
LINE
  8
0
 10
45.171
 20
486.781
 11
44.5207
 21
486.878
  0
LINE
  8
0
 10
44.5207
 20
486.878
 11
43.8564
 21
486.975
  0
LINE
  8
0
 10
43.8564
 20
486.975
 11
43.1787
 21
487.073
  0
LINE
  8
0
 10
43.1787
 20
487.073
 11
42.4884
 21
487.17
  0
LINE
  8
0
 10
42.4884
 20
487.17
 11
41.7859
 21
487.268
  0
LINE
  8
0
 10
41.7859
 20
487.268
 11
41.0722
 21
487.365
  0
LINE
  8
0
 10
41.0722
 20
487.365
 11
40.3478
 21
487.461
  0
LINE
  8
0
 10
40.3478
 20
487.461
 11
39.6135
 21
487.557
  0
LINE
  8
0
 10
39.6135
 20
487.557
 11
38.8701
 21
487.651
  0
LINE
  8
0
 10
38.8701
 20
487.651
 11
38.1181
 21
487.745
  0
LINE
  8
0
 10
38.1181
 20
487.745
 11
37.3585
 21
487.837
  0
LINE
  8
0
 10
37.3585
 20
487.837
 11
36.5918
 21
487.928
  0
LINE
  8
0
 10
36.5918
 20
487.928
 11
35.819
 21
488.016
  0
LINE
  8
0
 10
35.819
 20
488.016
 11
35.0407
 21
488.103
  0
LINE
  8
0
 10
35.0407
 20
488.103
 11
34.2578
 21
488.187
  0
LINE
  8
0
 10
34.2578
 20
488.187
 11
33.4709
 21
488.269
  0
LINE
  8
0
 10
33.4709
 20
488.269
 11
32.6809
 21
488.348
  0
LINE
  8
0
 10
32.6809
 20
488.348
 11
31.8886
 21
488.424
  0
LINE
  8
0
 10
31.8886
 20
488.424
 11
31.0947
 21
488.497
  0
LINE
  8
0
 10
31.0947
 20
488.497
 11
30.3
 21
488.566
  0
LINE
  8
0
 10
30.3
 20
488.566
 11
29.5053
 21
488.632
  0
LINE
  8
0
 10
29.5053
 20
488.632
 11
28.7114
 21
488.694
  0
LINE
  8
0
 10
28.7114
 20
488.694
 11
27.9191
 21
488.751
  0
LINE
  8
0
 10
27.9191
 20
488.751
 11
27.1291
 21
488.804
  0
LINE
  8
0
 10
27.1291
 20
488.804
 11
26.3422
 21
488.853
  0
LINE
  8
0
 10
26.3422
 20
488.853
 11
25.5592
 21
488.897
  0
LINE
  8
0
 10
25.5592
 20
488.897
 11
24.781
 21
488.935
  0
LINE
  8
0
 10
24.781
 20
488.935
 11
24.0081
 21
488.968
  0
LINE
  8
0
 10
24.0081
 20
488.968
 11
23.2415
 21
488.996
  0
LINE
  8
0
 10
23.2415
 20
488.996
 11
22.4819
 21
489.018
  0
LINE
  8
0
 10
22.4819
 20
489.018
 11
21.7299
 21
489.034
  0
LINE
  8
0
 10
21.7299
 20
489.034
 11
20.9864
 21
489.044
  0
LINE
  8
0
 10
20.9864
 20
489.044
 11
20.2522
 21
489.048
  0
LINE
  8
0
 10
20.2522
 20
489.048
 11
19.5278
 21
489.046
  0
LINE
  8
0
 10
19.5278
 20
489.046
 11
18.814
 21
489.037
  0
LINE
  8
0
 10
18.814
 20
489.037
 11
18.1116
 21
489.022
  0
LINE
  8
0
 10
18.1116
 20
489.022
 11
17.4212
 21
489
  0
LINE
  8
0
 10
17.4212
 20
489
 11
16.7436
 21
488.971
  0
LINE
  8
0
 10
16.7436
 20
488.971
 11
16.0793
 21
488.936
  0
LINE
  8
0
 10
16.0793
 20
488.936
 11
15.429
 21
488.894
  0
LINE
  8
0
 10
15.429
 20
488.894
 11
14.7934
 21
488.845
  0
LINE
  8
0
 10
14.7934
 20
488.845
 11
14.1732
 21
488.789
  0
LINE
  8
0
 10
14.1732
 20
488.789
 11
13.5688
 21
488.726
  0
LINE
  8
0
 10
13.5688
 20
488.726
 11
12.9809
 21
488.657
  0
LINE
  8
0
 10
12.9809
 20
488.657
 11
12.4102
 21
488.581
  0
LINE
  8
0
 10
12.4102
 20
488.581
 11
11.8571
 21
488.499
  0
LINE
  8
0
 10
11.8571
 20
488.499
 11
11.3222
 21
488.41
  0
LINE
  8
0
 10
11.3222
 20
488.41
 11
10.806
 21
488.315
  0
LINE
  8
0
 10
10.806
 20
488.315
 11
10.3091
 21
488.214
  0
LINE
  8
0
 10
10.3091
 20
488.214
 11
9.83185
 21
488.107
  0
LINE
  8
0
 10
9.83185
 20
488.107
 11
9.37483
 21
487.994
  0
LINE
  8
0
 10
9.37483
 20
487.994
 11
8.93848
 21
487.875
  0
LINE
  8
0
 10
8.93848
 20
487.875
 11
8.52321
 21
487.751
  0
LINE
  8
0
 10
8.52321
 20
487.751
 11
8.12943
 21
487.622
  0
LINE
  8
0
 10
8.12943
 20
487.622
 11
7.75751
 21
487.487
  0
LINE
  8
0
 10
7.75751
 20
487.487
 11
7.40785
 21
487.348
  0
LINE
  8
0
 10
7.40785
 20
487.348
 11
7.08078
 21
487.204
  0
LINE
  8
0
 10
7.08078
 20
487.204
 11
6.77663
 21
487.056
  0
LINE
  8
0
 10
6.77663
 20
487.056
 11
6.4957
 21
486.903
  0
LINE
  8
0
 10
6.4957
 20
486.903
 11
6.23825
 21
486.747
  0
LINE
  8
0
 10
6.23825
 20
486.747
 11
6.00455
 21
486.587
  0
LINE
  8
0
 10
6.00455
 20
486.587
 11
5.79483
 21
486.423
  0
LINE
  8
0
 10
5.79483
 20
486.423
 11
5.60928
 21
486.255
  0
LINE
  8
0
 10
5.60928
 20
486.255
 11
5.4481
 21
486.085
  0
LINE
  8
0
 10
5.4481
 20
486.085
 11
5.31146
 21
485.911
  0
LINE
  8
0
 10
5.31146
 20
485.911
 11
5.19948
 21
485.734
  0
LINE
  8
0
 10
5.19948
 20
485.734
 11
5.11226
 21
485.555
  0
LINE
  8
0
 10
5.11226
 20
485.555
 11
5.0499
 21
485.372
  0
LINE
  8
0
 10
5.0499
 20
485.372
 11
5.01247
 21
485.187
  0
LINE
  8
0
 10
5.01247
 20
485.187
 11
5
 21
485
  0
LINE
  8
0
 10
5
 20
485
 11
5
 21
-485
  0
LINE
  8
0
 10
5
 20
-485
 11
55
 21
-485
  0
LINE
  8
0
 10
55
 20
-485
 11
55
 21
485.115
  0
LINE
  8
0
 10
17.2744
 20
255.714
 11
17.0524
 21
255.757
  0
LINE
  8
0
 10
17.0524
 20
255.757
 11
16.8374
 21
255.826
  0
LINE
  8
0
 10
16.8374
 20
255.826
 11
16.6328
 21
255.923
  0
LINE
  8
0
 10
16.6328
 20
255.923
 11
16.442
 21
256.044
  0
LINE
  8
0
 10
16.442
 20
256.044
 11
16.2678
 21
256.188
  0
LINE
  8
0
 10
16.2678
 20
256.188
 11
16.1131
 21
256.353
  0
LINE
  8
0
 10
16.1131
 20
256.353
 11
15.9802
 21
256.536
  0
LINE
  8
0
 10
15.9802
 20
256.536
 11
15.8713
 21
256.734
  0
LINE
  8
0
 10
15.8713
 20
256.734
 11
15.7881
 21
256.944
  0
LINE
  8
0
 10
15.7881
 20
256.944
 11
15.7319
 21
257.163
  0
LINE
  8
0
 10
15.7319
 20
257.163
 11
15.7036
 21
257.387
  0
LINE
  8
0
 10
15.7036
 20
257.387
 11
15.7036
 21
257.613
  0
LINE
  8
0
 10
15.7036
 20
257.613
 11
15.7319
 21
257.837
  0
LINE
  8
0
 10
15.7319
 20
257.837
 11
15.7881
 21
258.056
  0
LINE
  8
0
 10
15.7881
 20
258.056
 11
15.8713
 21
258.266
  0
LINE
  8
0
 10
15.8713
 20
258.266
 11
15.9802
 21
258.464
  0
LINE
  8
0
 10
15.9802
 20
258.464
 11
16.1131
 21
258.647
  0
LINE
  8
0
 10
16.1131
 20
258.647
 11
16.2678
 21
258.812
  0
LINE
  8
0
 10
16.2678
 20
258.812
 11
16.442
 21
258.956
  0
LINE
  8
0
 10
16.442
 20
258.956
 11
16.6328
 21
259.077
  0
LINE
  8
0
 10
16.6328
 20
259.077
 11
16.8374
 21
259.174
  0
LINE
  8
0
 10
16.8374
 20
259.174
 11
17.0524
 21
259.243
  0
LINE
  8
0
 10
17.0524
 20
259.243
 11
17.2744
 21
259.286
  0
LINE
  8
0
 10
17.2744
 20
259.286
 11
17.5
 21
259.3
  0
LINE
  8
0
 10
17.5
 20
259.3
 11
17.7256
 21
259.286
  0
LINE
  8
0
 10
17.7256
 20
259.286
 11
17.9476
 21
259.243
  0
LINE
  8
0
 10
17.9476
 20
259.243
 11
18.1626
 21
259.174
  0
LINE
  8
0
 10
18.1626
 20
259.174
 11
18.3672
 21
259.077
  0
LINE
  8
0
 10
18.3672
 20
259.077
 11
18.558
 21
258.956
  0
LINE
  8
0
 10
18.558
 20
258.956
 11
18.7322
 21
258.812
  0
LINE
  8
0
 10
18.7322
 20
258.812
 11
18.8869
 21
258.647
  0
LINE
  8
0
 10
18.8869
 20
258.647
 11
19.0198
 21
258.464
  0
LINE
  8
0
 10
19.0198
 20
258.464
 11
19.1287
 21
258.266
  0
LINE
  8
0
 10
19.1287
 20
258.266
 11
19.2119
 21
258.056
  0
LINE
  8
0
 10
19.2119
 20
258.056
 11
19.2681
 21
257.837
  0
LINE
  8
0
 10
19.2681
 20
257.837
 11
19.2964
 21
257.613
  0
LINE
  8
0
 10
19.2964
 20
257.613
 11
19.2964
 21
257.387
  0
LINE
  8
0
 10
19.2964
 20
257.387
 11
19.2681
 21
257.163
  0
LINE
  8
0
 10
19.2681
 20
257.163
 11
19.2119
 21
256.944
  0
LINE
  8
0
 10
19.2119
 20
256.944
 11
19.1287
 21
256.734
  0
LINE
  8
0
 10
19.1287
 20
256.734
 11
19.0198
 21
256.536
  0
LINE
  8
0
 10
19.0198
 20
256.536
 11
18.8869
 21
256.353
  0
LINE
  8
0
 10
18.8869
 20
256.353
 11
18.7322
 21
256.188
  0
LINE
  8
0
 10
18.7322
 20
256.188
 11
18.558
 21
256.044
  0
LINE
  8
0
 10
18.558
 20
256.044
 11
18.3672
 21
255.923
  0
LINE
  8
0
 10
18.3672
 20
255.923
 11
18.1626
 21
255.826
  0
LINE
  8
0
 10
18.1626
 20
255.826
 11
17.9476
 21
255.757
  0
LINE
  8
0
 10
17.9476
 20
255.757
 11
17.7256
 21
255.714
  0
LINE
  8
0
 10
17.7256
 20
255.714
 11
17.5
 21
255.7
  0
LINE
  8
0
 10
17.5
 20
255.7
 11
17.2744
 21
255.714
  0
LINE
  8
0
 10
17.2744
 20
240.714
 11
17.0524
 21
240.757
  0
LINE
  8
0
 10
17.0524
 20
240.757
 11
16.8374
 21
240.826
  0
LINE
  8
0
 10
16.8374
 20
240.826
 11
16.6328
 21
240.923
  0
LINE
  8
0
 10
16.6328
 20
240.923
 11
16.442
 21
241.044
  0
LINE
  8
0
 10
16.442
 20
241.044
 11
16.2678
 21
241.188
  0
LINE
  8
0
 10
16.2678
 20
241.188
 11
16.1131
 21
241.353
  0
LINE
  8
0
 10
16.1131
 20
241.353
 11
15.9802
 21
241.536
  0
LINE
  8
0
 10
15.9802
 20
241.536
 11
15.8713
 21
241.734
  0
LINE
  8
0
 10
15.8713
 20
241.734
 11
15.7881
 21
241.944
  0
LINE
  8
0
 10
15.7881
 20
241.944
 11
15.7319
 21
242.163
  0
LINE
  8
0
 10
15.7319
 20
242.163
 11
15.7036
 21
242.387
  0
LINE
  8
0
 10
15.7036
 20
242.387
 11
15.7036
 21
242.613
  0
LINE
  8
0
 10
15.7036
 20
242.613
 11
15.7319
 21
242.837
  0
LINE
  8
0
 10
15.7319
 20
242.837
 11
15.7881
 21
243.056
  0
LINE
  8
0
 10
15.7881
 20
243.056
 11
15.8713
 21
243.266
  0
LINE
  8
0
 10
15.8713
 20
243.266
 11
15.9802
 21
243.464
  0
LINE
  8
0
 10
15.9802
 20
243.464
 11
16.1131
 21
243.647
  0
LINE
  8
0
 10
16.1131
 20
243.647
 11
16.2678
 21
243.812
  0
LINE
  8
0
 10
16.2678
 20
243.812
 11
16.442
 21
243.956
  0
LINE
  8
0
 10
16.442
 20
243.956
 11
16.6328
 21
244.077
  0
LINE
  8
0
 10
16.6328
 20
244.077
 11
16.8374
 21
244.174
  0
LINE
  8
0
 10
16.8374
 20
244.174
 11
17.0524
 21
244.243
  0
LINE
  8
0
 10
17.0524
 20
244.243
 11
17.2744
 21
244.286
  0
LINE
  8
0
 10
17.2744
 20
244.286
 11
17.5
 21
244.3
  0
LINE
  8
0
 10
17.5
 20
244.3
 11
17.7256
 21
244.286
  0
LINE
  8
0
 10
17.7256
 20
244.286
 11
17.9476
 21
244.243
  0
LINE
  8
0
 10
17.9476
 20
244.243
 11
18.1626
 21
244.174
  0
LINE
  8
0
 10
18.1626
 20
244.174
 11
18.3672
 21
244.077
  0
LINE
  8
0
 10
18.3672
 20
244.077
 11
18.558
 21
243.956
  0
LINE
  8
0
 10
18.558
 20
243.956
 11
18.7322
 21
243.812
  0
LINE
  8
0
 10
18.7322
 20
243.812
 11
18.8869
 21
243.647
  0
LINE
  8
0
 10
18.8869
 20
243.647
 11
19.0198
 21
243.464
  0
LINE
  8
0
 10
19.0198
 20
243.464
 11
19.1287
 21
243.266
  0
LINE
  8
0
 10
19.1287
 20
243.266
 11
19.2119
 21
243.056
  0
LINE
  8
0
 10
19.2119
 20
243.056
 11
19.2681
 21
242.837
  0
LINE
  8
0
 10
19.2681
 20
242.837
 11
19.2964
 21
242.613
  0
LINE
  8
0
 10
19.2964
 20
242.613
 11
19.2964
 21
242.387
  0
LINE
  8
0
 10
19.2964
 20
242.387
 11
19.2681
 21
242.163
  0
LINE
  8
0
 10
19.2681
 20
242.163
 11
19.2119
 21
241.944
  0
LINE
  8
0
 10
19.2119
 20
241.944
 11
19.1287
 21
241.734
  0
LINE
  8
0
 10
19.1287
 20
241.734
 11
19.0198
 21
241.536
  0
LINE
  8
0
 10
19.0198
 20
241.536
 11
18.8869
 21
241.353
  0
LINE
  8
0
 10
18.8869
 20
241.353
 11
18.7322
 21
241.188
  0
LINE
  8
0
 10
18.7322
 20
241.188
 11
18.558
 21
241.044
  0
LINE
  8
0
 10
18.558
 20
241.044
 11
18.3671
 21
240.923
  0
LINE
  8
0
 10
18.3671
 20
240.923
 11
18.1626
 21
240.826
  0
LINE
  8
0
 10
18.1626
 20
240.826
 11
17.9476
 21
240.757
  0
LINE
  8
0
 10
17.9476
 20
240.757
 11
17.7256
 21
240.714
  0
LINE
  8
0
 10
17.7256
 20
240.714
 11
17.5
 21
240.7
  0
LINE
  8
0
 10
17.5
 20
240.7
 11
17.2744
 21
240.714
  0
LINE
  8
0
 10
17.2744
 20
225.714
 11
17.0524
 21
225.757
  0
LINE
  8
0
 10
17.0524
 20
225.757
 11
16.8374
 21
225.826
  0
LINE
  8
0
 10
16.8374
 20
225.826
 11
16.6328
 21
225.923
  0
LINE
  8
0
 10
16.6328
 20
225.923
 11
16.442
 21
226.044
  0
LINE
  8
0
 10
16.442
 20
226.044
 11
16.2678
 21
226.188
  0
LINE
  8
0
 10
16.2678
 20
226.188
 11
16.1131
 21
226.353
  0
LINE
  8
0
 10
16.1131
 20
226.353
 11
15.9802
 21
226.536
  0
LINE
  8
0
 10
15.9802
 20
226.536
 11
15.8713
 21
226.734
  0
LINE
  8
0
 10
15.8713
 20
226.734
 11
15.7881
 21
226.944
  0
LINE
  8
0
 10
15.7881
 20
226.944
 11
15.7319
 21
227.163
  0
LINE
  8
0
 10
15.7319
 20
227.163
 11
15.7036
 21
227.387
  0
LINE
  8
0
 10
15.7036
 20
227.387
 11
15.7036
 21
227.613
  0
LINE
  8
0
 10
15.7036
 20
227.613
 11
15.7319
 21
227.837
  0
LINE
  8
0
 10
15.7319
 20
227.837
 11
15.7881
 21
228.056
  0
LINE
  8
0
 10
15.7881
 20
228.056
 11
15.8713
 21
228.266
  0
LINE
  8
0
 10
15.8713
 20
228.266
 11
15.9802
 21
228.464
  0
LINE
  8
0
 10
15.9802
 20
228.464
 11
16.1131
 21
228.647
  0
LINE
  8
0
 10
16.1131
 20
228.647
 11
16.2678
 21
228.812
  0
LINE
  8
0
 10
16.2678
 20
228.812
 11
16.442
 21
228.956
  0
LINE
  8
0
 10
16.442
 20
228.956
 11
16.6328
 21
229.077
  0
LINE
  8
0
 10
16.6328
 20
229.077
 11
16.8374
 21
229.174
  0
LINE
  8
0
 10
16.8374
 20
229.174
 11
17.0524
 21
229.243
  0
LINE
  8
0
 10
17.0524
 20
229.243
 11
17.2744
 21
229.286
  0
LINE
  8
0
 10
17.2744
 20
229.286
 11
17.5
 21
229.3
  0
LINE
  8
0
 10
17.5
 20
229.3
 11
17.7256
 21
229.286
  0
LINE
  8
0
 10
17.7256
 20
229.286
 11
17.9476
 21
229.243
  0
LINE
  8
0
 10
17.9476
 20
229.243
 11
18.1626
 21
229.174
  0
LINE
  8
0
 10
18.1626
 20
229.174
 11
18.3671
 21
229.077
  0
LINE
  8
0
 10
18.3671
 20
229.077
 11
18.558
 21
228.956
  0
LINE
  8
0
 10
18.558
 20
228.956
 11
18.7322
 21
228.812
  0
LINE
  8
0
 10
18.7322
 20
228.812
 11
18.8869
 21
228.647
  0
LINE
  8
0
 10
18.8869
 20
228.647
 11
19.0198
 21
228.464
  0
LINE
  8
0
 10
19.0198
 20
228.464
 11
19.1287
 21
228.266
  0
LINE
  8
0
 10
19.1287
 20
228.266
 11
19.2119
 21
228.056
  0
LINE
  8
0
 10
19.2119
 20
228.056
 11
19.2681
 21
227.837
  0
LINE
  8
0
 10
19.2681
 20
227.837
 11
19.2964
 21
227.613
  0
LINE
  8
0
 10
19.2964
 20
227.613
 11
19.2964
 21
227.387
  0
LINE
  8
0
 10
19.2964
 20
227.387
 11
19.2681
 21
227.163
  0
LINE
  8
0
 10
19.2681
 20
227.163
 11
19.2119
 21
226.944
  0
LINE
  8
0
 10
19.2119
 20
226.944
 11
19.1287
 21
226.734
  0
LINE
  8
0
 10
19.1287
 20
226.734
 11
19.0198
 21
226.536
  0
LINE
  8
0
 10
19.0198
 20
226.536
 11
18.8869
 21
226.353
  0
LINE
  8
0
 10
18.8869
 20
226.353
 11
18.7322
 21
226.188
  0
LINE
  8
0
 10
18.7322
 20
226.188
 11
18.558
 21
226.044
  0
LINE
  8
0
 10
18.558
 20
226.044
 11
18.3671
 21
225.923
  0
LINE
  8
0
 10
18.3671
 20
225.923
 11
18.1626
 21
225.826
  0
LINE
  8
0
 10
18.1626
 20
225.826
 11
17.9476
 21
225.757
  0
LINE
  8
0
 10
17.9476
 20
225.757
 11
17.7256
 21
225.714
  0
LINE
  8
0
 10
17.7256
 20
225.714
 11
17.5
 21
225.7
  0
LINE
  8
0
 10
17.5
 20
225.7
 11
17.2744
 21
225.714
  0
LINE
  8
0
 10
17.2744
 20
-397.786
 11
17.0524
 21
-397.743
  0
LINE
  8
0
 10
17.0524
 20
-397.743
 11
16.8374
 21
-397.674
  0
LINE
  8
0
 10
16.8374
 20
-397.674
 11
16.6328
 21
-397.577
  0
LINE
  8
0
 10
16.6328
 20
-397.577
 11
16.442
 21
-397.456
  0
LINE
  8
0
 10
16.442
 20
-397.456
 11
16.2678
 21
-397.312
  0
LINE
  8
0
 10
16.2678
 20
-397.312
 11
16.1131
 21
-397.147
  0
LINE
  8
0
 10
16.1131
 20
-397.147
 11
15.9802
 21
-396.964
  0
LINE
  8
0
 10
15.9802
 20
-396.964
 11
15.8713
 21
-396.766
  0
LINE
  8
0
 10
15.8713
 20
-396.766
 11
15.7881
 21
-396.556
  0
LINE
  8
0
 10
15.7881
 20
-396.556
 11
15.7319
 21
-396.337
  0
LINE
  8
0
 10
15.7319
 20
-396.337
 11
15.7036
 21
-396.113
  0
LINE
  8
0
 10
15.7036
 20
-396.113
 11
15.7036
 21
-395.887
  0
LINE
  8
0
 10
15.7036
 20
-395.887
 11
15.7319
 21
-395.663
  0
LINE
  8
0
 10
15.7319
 20
-395.663
 11
15.7881
 21
-395.444
  0
LINE
  8
0
 10
15.7881
 20
-395.444
 11
15.8713
 21
-395.234
  0
LINE
  8
0
 10
15.8713
 20
-395.234
 11
15.9802
 21
-395.036
  0
LINE
  8
0
 10
15.9802
 20
-395.036
 11
16.1131
 21
-394.853
  0
LINE
  8
0
 10
16.1131
 20
-394.853
 11
16.2678
 21
-394.688
  0
LINE
  8
0
 10
16.2678
 20
-394.688
 11
16.442
 21
-394.544
  0
LINE
  8
0
 10
16.442
 20
-394.544
 11
16.6328
 21
-394.423
  0
LINE
  8
0
 10
16.6328
 20
-394.423
 11
16.8374
 21
-394.326
  0
LINE
  8
0
 10
16.8374
 20
-394.326
 11
17.0524
 21
-394.257
  0
LINE
  8
0
 10
17.0524
 20
-394.257
 11
17.2744
 21
-394.214
  0
LINE
  8
0
 10
17.2744
 20
-394.214
 11
17.5
 21
-394.2
  0
LINE
  8
0
 10
17.5
 20
-394.2
 11
17.7256
 21
-394.214
  0
LINE
  8
0
 10
17.7256
 20
-394.214
 11
17.9476
 21
-394.257
  0
LINE
  8
0
 10
17.9476
 20
-394.257
 11
18.1626
 21
-394.326
  0
LINE
  8
0
 10
18.1626
 20
-394.326
 11
18.3672
 21
-394.423
  0
LINE
  8
0
 10
18.3672
 20
-394.423
 11
18.558
 21
-394.544
  0
LINE
  8
0
 10
18.558
 20
-394.544
 11
18.7322
 21
-394.688
  0
LINE
  8
0
 10
18.7322
 20
-394.688
 11
18.8869
 21
-394.853
  0
LINE
  8
0
 10
18.8869
 20
-394.853
 11
19.0198
 21
-395.036
  0
LINE
  8
0
 10
19.0198
 20
-395.036
 11
19.1287
 21
-395.234
  0
LINE
  8
0
 10
19.1287
 20
-395.234
 11
19.2119
 21
-395.444
  0
LINE
  8
0
 10
19.2119
 20
-395.444
 11
19.2681
 21
-395.663
  0
LINE
  8
0
 10
19.2681
 20
-395.663
 11
19.2964
 21
-395.887
  0
LINE
  8
0
 10
19.2964
 20
-395.887
 11
19.2964
 21
-396.113
  0
LINE
  8
0
 10
19.2964
 20
-396.113
 11
19.2681
 21
-396.337
  0
LINE
  8
0
 10
19.2681
 20
-396.337
 11
19.2119
 21
-396.556
  0
LINE
  8
0
 10
19.2119
 20
-396.556
 11
19.1287
 21
-396.766
  0
LINE
  8
0
 10
19.1287
 20
-396.766
 11
19.0198
 21
-396.964
  0
LINE
  8
0
 10
19.0198
 20
-396.964
 11
18.8869
 21
-397.147
  0
LINE
  8
0
 10
18.8869
 20
-397.147
 11
18.7322
 21
-397.312
  0
LINE
  8
0
 10
18.7322
 20
-397.312
 11
18.558
 21
-397.456
  0
LINE
  8
0
 10
18.558
 20
-397.456
 11
18.3672
 21
-397.577
  0
LINE
  8
0
 10
18.3672
 20
-397.577
 11
18.1626
 21
-397.674
  0
LINE
  8
0
 10
18.1626
 20
-397.674
 11
17.9476
 21
-397.743
  0
LINE
  8
0
 10
17.9476
 20
-397.743
 11
17.7256
 21
-397.786
  0
LINE
  8
0
 10
17.7256
 20
-397.786
 11
17.5
 21
-397.8
  0
LINE
  8
0
 10
17.5
 20
-397.8
 11
17.2744
 21
-397.786
  0
LINE
  8
0
 10
33.2744
 20
-417.786
 11
33.0524
 21
-417.743
  0
LINE
  8
0
 10
33.0524
 20
-417.743
 11
32.8374
 21
-417.674
  0
LINE
  8
0
 10
32.8374
 20
-417.674
 11
32.6328
 21
-417.577
  0
LINE
  8
0
 10
32.6328
 20
-417.577
 11
32.442
 21
-417.456
  0
LINE
  8
0
 10
32.442
 20
-417.456
 11
32.2678
 21
-417.312
  0
LINE
  8
0
 10
32.2678
 20
-417.312
 11
32.1131
 21
-417.147
  0
LINE
  8
0
 10
32.1131
 20
-417.147
 11
31.9802
 21
-416.964
  0
LINE
  8
0
 10
31.9802
 20
-416.964
 11
31.8713
 21
-416.766
  0
LINE
  8
0
 10
31.8713
 20
-416.766
 11
31.7881
 21
-416.556
  0
LINE
  8
0
 10
31.7881
 20
-416.556
 11
31.7319
 21
-416.337
  0
LINE
  8
0
 10
31.7319
 20
-416.337
 11
31.7036
 21
-416.113
  0
LINE
  8
0
 10
31.7036
 20
-416.113
 11
31.7036
 21
-415.887
  0
LINE
  8
0
 10
31.7036
 20
-415.887
 11
31.7319
 21
-415.663
  0
LINE
  8
0
 10
31.7319
 20
-415.663
 11
31.7881
 21
-415.444
  0
LINE
  8
0
 10
31.7881
 20
-415.444
 11
31.8713
 21
-415.234
  0
LINE
  8
0
 10
31.8713
 20
-415.234
 11
31.9802
 21
-415.036
  0
LINE
  8
0
 10
31.9802
 20
-415.036
 11
32.1131
 21
-414.853
  0
LINE
  8
0
 10
32.1131
 20
-414.853
 11
32.2678
 21
-414.688
  0
LINE
  8
0
 10
32.2678
 20
-414.688
 11
32.442
 21
-414.544
  0
LINE
  8
0
 10
32.442
 20
-414.544
 11
32.6328
 21
-414.423
  0
LINE
  8
0
 10
32.6328
 20
-414.423
 11
32.8374
 21
-414.326
  0
LINE
  8
0
 10
32.8374
 20
-414.326
 11
33.0524
 21
-414.257
  0
LINE
  8
0
 10
33.0524
 20
-414.257
 11
33.2744
 21
-414.214
  0
LINE
  8
0
 10
33.2744
 20
-414.214
 11
33.5
 21
-414.2
  0
LINE
  8
0
 10
33.5
 20
-414.2
 11
33.7256
 21
-414.214
  0
LINE
  8
0
 10
33.7256
 20
-414.214
 11
33.9476
 21
-414.257
  0
LINE
  8
0
 10
33.9476
 20
-414.257
 11
34.1626
 21
-414.326
  0
LINE
  8
0
 10
34.1626
 20
-414.326
 11
34.3672
 21
-414.423
  0
LINE
  8
0
 10
34.3672
 20
-414.423
 11
34.558
 21
-414.544
  0
LINE
  8
0
 10
34.558
 20
-414.544
 11
34.7322
 21
-414.688
  0
LINE
  8
0
 10
34.7322
 20
-414.688
 11
34.8869
 21
-414.853
  0
LINE
  8
0
 10
34.8869
 20
-414.853
 11
35.0198
 21
-415.036
  0
LINE
  8
0
 10
35.0198
 20
-415.036
 11
35.1287
 21
-415.234
  0
LINE
  8
0
 10
35.1287
 20
-415.234
 11
35.2119
 21
-415.444
  0
LINE
  8
0
 10
35.2119
 20
-415.444
 11
35.2681
 21
-415.663
  0
LINE
  8
0
 10
35.2681
 20
-415.663
 11
35.2964
 21
-415.887
  0
LINE
  8
0
 10
35.2964
 20
-415.887
 11
35.2964
 21
-416.113
  0
LINE
  8
0
 10
35.2964
 20
-416.113
 11
35.2681
 21
-416.337
  0
LINE
  8
0
 10
35.2681
 20
-416.337
 11
35.2119
 21
-416.556
  0
LINE
  8
0
 10
35.2119
 20
-416.556
 11
35.1287
 21
-416.766
  0
LINE
  8
0
 10
35.1287
 20
-416.766
 11
35.0198
 21
-416.964
  0
LINE
  8
0
 10
35.0198
 20
-416.964
 11
34.8869
 21
-417.147
  0
LINE
  8
0
 10
34.8869
 20
-417.147
 11
34.7322
 21
-417.312
  0
LINE
  8
0
 10
34.7322
 20
-417.312
 11
34.558
 21
-417.456
  0
LINE
  8
0
 10
34.558
 20
-417.456
 11
34.3672
 21
-417.577
  0
LINE
  8
0
 10
34.3672
 20
-417.577
 11
34.1626
 21
-417.674
  0
LINE
  8
0
 10
34.1626
 20
-417.674
 11
33.9476
 21
-417.743
  0
LINE
  8
0
 10
33.9476
 20
-417.743
 11
33.7256
 21
-417.786
  0
LINE
  8
0
 10
33.7256
 20
-417.786
 11
33.5
 21
-417.8
  0
LINE
  8
0
 10
33.5
 20
-417.8
 11
33.2744
 21
-417.786
  0
LINE
  8
0
 10
17.2744
 20
-437.786
 11
17.0524
 21
-437.743
  0
LINE
  8
0
 10
17.0524
 20
-437.743
 11
16.8374
 21
-437.674
  0
LINE
  8
0
 10
16.8374
 20
-437.674
 11
16.6328
 21
-437.577
  0
LINE
  8
0
 10
16.6328
 20
-437.577
 11
16.442
 21
-437.456
  0
LINE
  8
0
 10
16.442
 20
-437.456
 11
16.2678
 21
-437.312
  0
LINE
  8
0
 10
16.2678
 20
-437.312
 11
16.1131
 21
-437.147
  0
LINE
  8
0
 10
16.1131
 20
-437.147
 11
15.9802
 21
-436.964
  0
LINE
  8
0
 10
15.9802
 20
-436.964
 11
15.8713
 21
-436.766
  0
LINE
  8
0
 10
15.8713
 20
-436.766
 11
15.7881
 21
-436.556
  0
LINE
  8
0
 10
15.7881
 20
-436.556
 11
15.7319
 21
-436.337
  0
LINE
  8
0
 10
15.7319
 20
-436.337
 11
15.7036
 21
-436.113
  0
LINE
  8
0
 10
15.7036
 20
-436.113
 11
15.7036
 21
-435.887
  0
LINE
  8
0
 10
15.7036
 20
-435.887
 11
15.7319
 21
-435.663
  0
LINE
  8
0
 10
15.7319
 20
-435.663
 11
15.7881
 21
-435.444
  0
LINE
  8
0
 10
15.7881
 20
-435.444
 11
15.8713
 21
-435.234
  0
LINE
  8
0
 10
15.8713
 20
-435.234
 11
15.9802
 21
-435.036
  0
LINE
  8
0
 10
15.9802
 20
-435.036
 11
16.1131
 21
-434.853
  0
LINE
  8
0
 10
16.1131
 20
-434.853
 11
16.2678
 21
-434.688
  0
LINE
  8
0
 10
16.2678
 20
-434.688
 11
16.442
 21
-434.544
  0
LINE
  8
0
 10
16.442
 20
-434.544
 11
16.6328
 21
-434.423
  0
LINE
  8
0
 10
16.6328
 20
-434.423
 11
16.8374
 21
-434.326
  0
LINE
  8
0
 10
16.8374
 20
-434.326
 11
17.0524
 21
-434.257
  0
LINE
  8
0
 10
17.0524
 20
-434.257
 11
17.2744
 21
-434.214
  0
LINE
  8
0
 10
17.2744
 20
-434.214
 11
17.5
 21
-434.2
  0
LINE
  8
0
 10
17.5
 20
-434.2
 11
17.7256
 21
-434.214
  0
LINE
  8
0
 10
17.7256
 20
-434.214
 11
17.9476
 21
-434.257
  0
LINE
  8
0
 10
17.9476
 20
-434.257
 11
18.1626
 21
-434.326
  0
LINE
  8
0
 10
18.1626
 20
-434.326
 11
18.3672
 21
-434.423
  0
LINE
  8
0
 10
18.3672
 20
-434.423
 11
18.558
 21
-434.544
  0
LINE
  8
0
 10
18.558
 20
-434.544
 11
18.7322
 21
-434.688
  0
LINE
  8
0
 10
18.7322
 20
-434.688
 11
18.8869
 21
-434.853
  0
LINE
  8
0
 10
18.8869
 20
-434.853
 11
19.0198
 21
-435.036
  0
LINE
  8
0
 10
19.0198
 20
-435.036
 11
19.1287
 21
-435.234
  0
LINE
  8
0
 10
19.1287
 20
-435.234
 11
19.2119
 21
-435.444
  0
LINE
  8
0
 10
19.2119
 20
-435.444
 11
19.2681
 21
-435.663
  0
LINE
  8
0
 10
19.2681
 20
-435.663
 11
19.2964
 21
-435.887
  0
LINE
  8
0
 10
19.2964
 20
-435.887
 11
19.2964
 21
-436.113
  0
LINE
  8
0
 10
19.2964
 20
-436.113
 11
19.2681
 21
-436.337
  0
LINE
  8
0
 10
19.2681
 20
-436.337
 11
19.2119
 21
-436.556
  0
LINE
  8
0
 10
19.2119
 20
-436.556
 11
19.1287
 21
-436.766
  0
LINE
  8
0
 10
19.1287
 20
-436.766
 11
19.0198
 21
-436.964
  0
LINE
  8
0
 10
19.0198
 20
-436.964
 11
18.8869
 21
-437.147
  0
LINE
  8
0
 10
18.8869
 20
-437.147
 11
18.7322
 21
-437.312
  0
LINE
  8
0
 10
18.7322
 20
-437.312
 11
18.558
 21
-437.456
  0
LINE
  8
0
 10
18.558
 20
-437.456
 11
18.3672
 21
-437.577
  0
LINE
  8
0
 10
18.3672
 20
-437.577
 11
18.1626
 21
-437.674
  0
LINE
  8
0
 10
18.1626
 20
-437.674
 11
17.9476
 21
-437.743
  0
LINE
  8
0
 10
17.9476
 20
-437.743
 11
17.7256
 21
-437.786
  0
LINE
  8
0
 10
17.7256
 20
-437.786
 11
17.5
 21
-437.8
  0
LINE
  8
0
 10
17.5
 20
-437.8
 11
17.2744
 21
-437.786
  0
LINE
  8
0
 10
35.2744
 20
-457.786
 11
35.0524
 21
-457.743
  0
LINE
  8
0
 10
35.0524
 20
-457.743
 11
34.8374
 21
-457.674
  0
LINE
  8
0
 10
34.8374
 20
-457.674
 11
34.6328
 21
-457.577
  0
LINE
  8
0
 10
34.6328
 20
-457.577
 11
34.442
 21
-457.456
  0
LINE
  8
0
 10
34.442
 20
-457.456
 11
34.2678
 21
-457.312
  0
LINE
  8
0
 10
34.2678
 20
-457.312
 11
34.1131
 21
-457.147
  0
LINE
  8
0
 10
34.1131
 20
-457.147
 11
33.9802
 21
-456.964
  0
LINE
  8
0
 10
33.9802
 20
-456.964
 11
33.8713
 21
-456.766
  0
LINE
  8
0
 10
33.8713
 20
-456.766
 11
33.7881
 21
-456.556
  0
LINE
  8
0
 10
33.7881
 20
-456.556
 11
33.7319
 21
-456.337
  0
LINE
  8
0
 10
33.7319
 20
-456.337
 11
33.7036
 21
-456.113
  0
LINE
  8
0
 10
33.7036
 20
-456.113
 11
33.7036
 21
-455.887
  0
LINE
  8
0
 10
33.7036
 20
-455.887
 11
33.7319
 21
-455.663
  0
LINE
  8
0
 10
33.7319
 20
-455.663
 11
33.7881
 21
-455.444
  0
LINE
  8
0
 10
33.7881
 20
-455.444
 11
33.8713
 21
-455.234
  0
LINE
  8
0
 10
33.8713
 20
-455.234
 11
33.9802
 21
-455.036
  0
LINE
  8
0
 10
33.9802
 20
-455.036
 11
34.1131
 21
-454.853
  0
LINE
  8
0
 10
34.1131
 20
-454.853
 11
34.2678
 21
-454.688
  0
LINE
  8
0
 10
34.2678
 20
-454.688
 11
34.442
 21
-454.544
  0
LINE
  8
0
 10
34.442
 20
-454.544
 11
34.6328
 21
-454.423
  0
LINE
  8
0
 10
34.6328
 20
-454.423
 11
34.8374
 21
-454.326
  0
LINE
  8
0
 10
34.8374
 20
-454.326
 11
35.0524
 21
-454.257
  0
LINE
  8
0
 10
35.0524
 20
-454.257
 11
35.2744
 21
-454.214
  0
LINE
  8
0
 10
35.2744
 20
-454.214
 11
35.5
 21
-454.2
  0
LINE
  8
0
 10
35.5
 20
-454.2
 11
35.7256
 21
-454.214
  0
LINE
  8
0
 10
35.7256
 20
-454.214
 11
35.9476
 21
-454.257
  0
LINE
  8
0
 10
35.9476
 20
-454.257
 11
36.1626
 21
-454.326
  0
LINE
  8
0
 10
36.1626
 20
-454.326
 11
36.3672
 21
-454.423
  0
LINE
  8
0
 10
36.3672
 20
-454.423
 11
36.558
 21
-454.544
  0
LINE
  8
0
 10
36.558
 20
-454.544
 11
36.7322
 21
-454.688
  0
LINE
  8
0
 10
36.7322
 20
-454.688
 11
36.8869
 21
-454.853
  0
LINE
  8
0
 10
36.8869
 20
-454.853
 11
37.0198
 21
-455.036
  0
LINE
  8
0
 10
37.0198
 20
-455.036
 11
37.1287
 21
-455.234
  0
LINE
  8
0
 10
37.1287
 20
-455.234
 11
37.2119
 21
-455.444
  0
LINE
  8
0
 10
37.2119
 20
-455.444
 11
37.2681
 21
-455.663
  0
LINE
  8
0
 10
37.2681
 20
-455.663
 11
37.2964
 21
-455.887
  0
LINE
  8
0
 10
37.2964
 20
-455.887
 11
37.2964
 21
-456.113
  0
LINE
  8
0
 10
37.2964
 20
-456.113
 11
37.2681
 21
-456.337
  0
LINE
  8
0
 10
37.2681
 20
-456.337
 11
37.2119
 21
-456.556
  0
LINE
  8
0
 10
37.2119
 20
-456.556
 11
37.1287
 21
-456.766
  0
LINE
  8
0
 10
37.1287
 20
-456.766
 11
37.0198
 21
-456.964
  0
LINE
  8
0
 10
37.0198
 20
-456.964
 11
36.8869
 21
-457.147
  0
LINE
  8
0
 10
36.8869
 20
-457.147
 11
36.7322
 21
-457.312
  0
LINE
  8
0
 10
36.7322
 20
-457.312
 11
36.558
 21
-457.456
  0
LINE
  8
0
 10
36.558
 20
-457.456
 11
36.3672
 21
-457.577
  0
LINE
  8
0
 10
36.3672
 20
-457.577
 11
36.1626
 21
-457.674
  0
LINE
  8
0
 10
36.1626
 20
-457.674
 11
35.9476
 21
-457.743
  0
LINE
  8
0
 10
35.9476
 20
-457.743
 11
35.7256
 21
-457.786
  0
LINE
  8
0
 10
35.7256
 20
-457.786
 11
35.5
 21
-457.8
  0
LINE
  8
0
 10
35.5
 20
-457.8
 11
35.2744
 21
-457.786
  0
LINE
  8
0
 10
17.2744
 20
-477.786
 11
17.0524
 21
-477.743
  0
LINE
  8
0
 10
17.0524
 20
-477.743
 11
16.8374
 21
-477.674
  0
LINE
  8
0
 10
16.8374
 20
-477.674
 11
16.6328
 21
-477.577
  0
LINE
  8
0
 10
16.6328
 20
-477.577
 11
16.442
 21
-477.456
  0
LINE
  8
0
 10
16.442
 20
-477.456
 11
16.2678
 21
-477.312
  0
LINE
  8
0
 10
16.2678
 20
-477.312
 11
16.1131
 21
-477.147
  0
LINE
  8
0
 10
16.1131
 20
-477.147
 11
15.9802
 21
-476.964
  0
LINE
  8
0
 10
15.9802
 20
-476.964
 11
15.8713
 21
-476.766
  0
LINE
  8
0
 10
15.8713
 20
-476.766
 11
15.7881
 21
-476.556
  0
LINE
  8
0
 10
15.7881
 20
-476.556
 11
15.7319
 21
-476.337
  0
LINE
  8
0
 10
15.7319
 20
-476.337
 11
15.7036
 21
-476.113
  0
LINE
  8
0
 10
15.7036
 20
-476.113
 11
15.7036
 21
-475.887
  0
LINE
  8
0
 10
15.7036
 20
-475.887
 11
15.7319
 21
-475.663
  0
LINE
  8
0
 10
15.7319
 20
-475.663
 11
15.7881
 21
-475.444
  0
LINE
  8
0
 10
15.7881
 20
-475.444
 11
15.8713
 21
-475.234
  0
LINE
  8
0
 10
15.8713
 20
-475.234
 11
15.9802
 21
-475.036
  0
LINE
  8
0
 10
15.9802
 20
-475.036
 11
16.1131
 21
-474.853
  0
LINE
  8
0
 10
16.1131
 20
-474.853
 11
16.2678
 21
-474.688
  0
LINE
  8
0
 10
16.2678
 20
-474.688
 11
16.442
 21
-474.544
  0
LINE
  8
0
 10
16.442
 20
-474.544
 11
16.6328
 21
-474.423
  0
LINE
  8
0
 10
16.6328
 20
-474.423
 11
16.8374
 21
-474.326
  0
LINE
  8
0
 10
16.8374
 20
-474.326
 11
17.0524
 21
-474.257
  0
LINE
  8
0
 10
17.0524
 20
-474.257
 11
17.2744
 21
-474.214
  0
LINE
  8
0
 10
17.2744
 20
-474.214
 11
17.5
 21
-474.2
  0
LINE
  8
0
 10
17.5
 20
-474.2
 11
17.7256
 21
-474.214
  0
LINE
  8
0
 10
17.7256
 20
-474.214
 11
17.9476
 21
-474.257
  0
LINE
  8
0
 10
17.9476
 20
-474.257
 11
18.1626
 21
-474.326
  0
LINE
  8
0
 10
18.1626
 20
-474.326
 11
18.3672
 21
-474.423
  0
LINE
  8
0
 10
18.3672
 20
-474.423
 11
18.558
 21
-474.544
  0
LINE
  8
0
 10
18.558
 20
-474.544
 11
18.7322
 21
-474.688
  0
LINE
  8
0
 10
18.7322
 20
-474.688
 11
18.8869
 21
-474.853
  0
LINE
  8
0
 10
18.8869
 20
-474.853
 11
19.0198
 21
-475.036
  0
LINE
  8
0
 10
19.0198
 20
-475.036
 11
19.1287
 21
-475.234
  0
LINE
  8
0
 10
19.1287
 20
-475.234
 11
19.2119
 21
-475.444
  0
LINE
  8
0
 10
19.2119
 20
-475.444
 11
19.2681
 21
-475.663
  0
LINE
  8
0
 10
19.2681
 20
-475.663
 11
19.2964
 21
-475.887
  0
LINE
  8
0
 10
19.2964
 20
-475.887
 11
19.2964
 21
-476.113
  0
LINE
  8
0
 10
19.2964
 20
-476.113
 11
19.2681
 21
-476.337
  0
LINE
  8
0
 10
19.2681
 20
-476.337
 11
19.2119
 21
-476.556
  0
LINE
  8
0
 10
19.2119
 20
-476.556
 11
19.1287
 21
-476.766
  0
LINE
  8
0
 10
19.1287
 20
-476.766
 11
19.0198
 21
-476.964
  0
LINE
  8
0
 10
19.0198
 20
-476.964
 11
18.8869
 21
-477.147
  0
LINE
  8
0
 10
18.8869
 20
-477.147
 11
18.7322
 21
-477.312
  0
LINE
  8
0
 10
18.7322
 20
-477.312
 11
18.558
 21
-477.456
  0
LINE
  8
0
 10
18.558
 20
-477.456
 11
18.3672
 21
-477.577
  0
LINE
  8
0
 10
18.3672
 20
-477.577
 11
18.1626
 21
-477.674
  0
LINE
  8
0
 10
18.1626
 20
-477.674
 11
17.9476
 21
-477.743
  0
LINE
  8
0
 10
17.9476
 20
-477.743
 11
17.7256
 21
-477.786
  0
LINE
  8
0
 10
17.7256
 20
-477.786
 11
17.5
 21
-477.8
  0
LINE
  8
0
 10
17.5
 20
-477.8
 11
17.2744
 21
-477.786
  0
LINE
  8
0
 10
-5
 20
485.115
 11
-5.19485
 21
485.152
  0
LINE
  8
0
 10
-5.19485
 20
485.152
 11
-5.40457
 21
485.192
  0
LINE
  8
0
 10
-5.40457
 20
485.192
 11
-5.63828
 21
485.236
  0
LINE
  8
0
 10
-5.63828
 20
485.236
 11
-5.89572
 21
485.284
  0
LINE
  8
0
 10
-5.89572
 20
485.284
 11
-6.17667
 21
485.337
  0
LINE
  8
0
 10
-6.17667
 20
485.337
 11
-6.48082
 21
485.393
  0
LINE
  8
0
 10
-6.48082
 20
485.393
 11
-6.80788
 21
485.453
  0
LINE
  8
0
 10
-6.80788
 20
485.453
 11
-7.15755
 21
485.516
  0
LINE
  8
0
 10
-7.15755
 20
485.516
 11
-7.52945
 21
485.583
  0
LINE
  8
0
 10
-7.52945
 20
485.583
 11
-7.92323
 21
485.653
  0
LINE
  8
0
 10
-7.92323
 20
485.653
 11
-8.33852
 21
485.727
  0
LINE
  8
0
 10
-8.33852
 20
485.727
 11
-8.77487
 21
485.803
  0
LINE
  8
0
 10
-8.77487
 20
485.803
 11
-9.23187
 21
485.882
  0
LINE
  8
0
 10
-9.23187
 20
485.882
 11
-9.70909
 21
485.963
  0
LINE
  8
0
 10
-9.70909
 20
485.963
 11
-10.206
 21
486.047
  0
LINE
  8
0
 10
-10.206
 20
486.047
 11
-10.7222
 21
486.133
  0
LINE
  8
0
 10
-10.7222
 20
486.133
 11
-11.2571
 21
486.222
  0
LINE
  8
0
 10
-11.2571
 20
486.222
 11
-11.8102
 21
486.311
  0
LINE
  8
0
 10
-11.8102
 20
486.311
 11
-12.381
 21
486.403
  0
LINE
  8
0
 10
-12.381
 20
486.403
 11
-12.9688
 21
486.496
  0
LINE
  8
0
 10
-12.9688
 20
486.496
 11
-13.5732
 21
486.59
  0
LINE
  8
0
 10
-13.5732
 20
486.59
 11
-14.1935
 21
486.685
  0
LINE
  8
0
 10
-14.1935
 20
486.685
 11
-14.829
 21
486.781
  0
LINE
  8
0
 10
-14.829
 20
486.781
 11
-15.4793
 21
486.878
  0
LINE
  8
0
 10
-15.4793
 20
486.878
 11
-16.1436
 21
486.975
  0
LINE
  8
0
 10
-16.1436
 20
486.975
 11
-16.8213
 21
487.073
  0
LINE
  8
0
 10
-16.8213
 20
487.073
 11
-17.5116
 21
487.17
  0
LINE
  8
0
 10
-17.5116
 20
487.17
 11
-18.2141
 21
487.268
  0
LINE
  8
0
 10
-18.2141
 20
487.268
 11
-18.9278
 21
487.365
  0
LINE
  8
0
 10
-18.9278
 20
487.365
 11
-19.6522
 21
487.461
  0
LINE
  8
0
 10
-19.6522
 20
487.461
 11
-20.3865
 21
487.557
  0
LINE
  8
0
 10
-20.3865
 20
487.557
 11
-21.1299
 21
487.651
  0
LINE
  8
0
 10
-21.1299
 20
487.651
 11
-21.8819
 21
487.745
  0
LINE
  8
0
 10
-21.8819
 20
487.745
 11
-22.6415
 21
487.837
  0
LINE
  8
0
 10
-22.6415
 20
487.837
 11
-23.4082
 21
487.928
  0
LINE
  8
0
 10
-23.4082
 20
487.928
 11
-24.181
 21
488.016
  0
LINE
  8
0
 10
-24.181
 20
488.016
 11
-24.9593
 21
488.103
  0
LINE
  8
0
 10
-24.9593
 20
488.103
 11
-25.7422
 21
488.187
  0
LINE
  8
0
 10
-25.7422
 20
488.187
 11
-26.5291
 21
488.269
  0
LINE
  8
0
 10
-26.5291
 20
488.269
 11
-27.3191
 21
488.348
  0
LINE
  8
0
 10
-27.3191
 20
488.348
 11
-28.1114
 21
488.424
  0
LINE
  8
0
 10
-28.1114
 20
488.424
 11
-28.9053
 21
488.497
  0
LINE
  8
0
 10
-28.9053
 20
488.497
 11
-29.7
 21
488.566
  0
LINE
  8
0
 10
-29.7
 20
488.566
 11
-30.4947
 21
488.632
  0
LINE
  8
0
 10
-30.4947
 20
488.632
 11
-31.2886
 21
488.694
  0
LINE
  8
0
 10
-31.2886
 20
488.694
 11
-32.0809
 21
488.751
  0
LINE
  8
0
 10
-32.0809
 20
488.751
 11
-32.8709
 21
488.804
  0
LINE
  8
0
 10
-32.8709
 20
488.804
 11
-33.6578
 21
488.853
  0
LINE
  8
0
 10
-33.6578
 20
488.853
 11
-34.4408
 21
488.897
  0
LINE
  8
0
 10
-34.4408
 20
488.897
 11
-35.219
 21
488.935
  0
LINE
  8
0
 10
-35.219
 20
488.935
 11
-35.9919
 21
488.968
  0
LINE
  8
0
 10
-35.9919
 20
488.968
 11
-36.7585
 21
488.996
  0
LINE
  8
0
 10
-36.7585
 20
488.996
 11
-37.5181
 21
489.018
  0
LINE
  8
0
 10
-37.5181
 20
489.018
 11
-38.2701
 21
489.034
  0
LINE
  8
0
 10
-38.2701
 20
489.034
 11
-39.0136
 21
489.044
  0
LINE
  8
0
 10
-39.0136
 20
489.044
 11
-39.7478
 21
489.048
  0
LINE
  8
0
 10
-39.7478
 20
489.048
 11
-40.4722
 21
489.046
  0
LINE
  8
0
 10
-40.4722
 20
489.046
 11
-41.186
 21
489.037
  0
LINE
  8
0
 10
-41.186
 20
489.037
 11
-41.8884
 21
489.022
  0
LINE
  8
0
 10
-41.8884
 20
489.022
 11
-42.5788
 21
489
  0
LINE
  8
0
 10
-42.5788
 20
489
 11
-43.2564
 21
488.971
  0
LINE
  8
0
 10
-43.2564
 20
488.971
 11
-43.9207
 21
488.936
  0
LINE
  8
0
 10
-43.9207
 20
488.936
 11
-44.571
 21
488.894
  0
LINE
  8
0
 10
-44.571
 20
488.894
 11
-45.2066
 21
488.845
  0
LINE
  8
0
 10
-45.2066
 20
488.845
 11
-45.8268
 21
488.789
  0
LINE
  8
0
 10
-45.8268
 20
488.789
 11
-46.4312
 21
488.726
  0
LINE
  8
0
 10
-46.4312
 20
488.726
 11
-47.019
 21
488.657
  0
LINE
  8
0
 10
-47.019
 20
488.657
 11
-47.5898
 21
488.581
  0
LINE
  8
0
 10
-47.5898
 20
488.581
 11
-48.1429
 21
488.499
  0
LINE
  8
0
 10
-48.1429
 20
488.499
 11
-48.6778
 21
488.41
  0
LINE
  8
0
 10
-48.6778
 20
488.41
 11
-49.194
 21
488.315
  0
LINE
  8
0
 10
-49.194
 20
488.315
 11
-49.6909
 21
488.214
  0
LINE
  8
0
 10
-49.6909
 20
488.214
 11
-50.1681
 21
488.107
  0
LINE
  8
0
 10
-50.1681
 20
488.107
 11
-50.6252
 21
487.994
  0
LINE
  8
0
 10
-50.6252
 20
487.994
 11
-51.0615
 21
487.875
  0
LINE
  8
0
 10
-51.0615
 20
487.875
 11
-51.4768
 21
487.751
  0
LINE
  8
0
 10
-51.4768
 20
487.751
 11
-51.8706
 21
487.622
  0
LINE
  8
0
 10
-51.8706
 20
487.622
 11
-52.2425
 21
487.487
  0
LINE
  8
0
 10
-52.2425
 20
487.487
 11
-52.5921
 21
487.348
  0
LINE
  8
0
 10
-52.5921
 20
487.348
 11
-52.9192
 21
487.204
  0
LINE
  8
0
 10
-52.9192
 20
487.204
 11
-53.2234
 21
487.056
  0
LINE
  8
0
 10
-53.2234
 20
487.056
 11
-53.5043
 21
486.903
  0
LINE
  8
0
 10
-53.5043
 20
486.903
 11
-53.7617
 21
486.747
  0
LINE
  8
0
 10
-53.7617
 20
486.747
 11
-53.9954
 21
486.587
  0
LINE
  8
0
 10
-53.9954
 20
486.587
 11
-54.2052
 21
486.423
  0
LINE
  8
0
 10
-54.2052
 20
486.423
 11
-54.3907
 21
486.255
  0
LINE
  8
0
 10
-54.3907
 20
486.255
 11
-54.5519
 21
486.085
  0
LINE
  8
0
 10
-54.5519
 20
486.085
 11
-54.6885
 21
485.911
  0
LINE
  8
0
 10
-54.6885
 20
485.911
 11
-54.8005
 21
485.734
  0
LINE
  8
0
 10
-54.8005
 20
485.734
 11
-54.8877
 21
485.555
  0
LINE
  8
0
 10
-54.8877
 20
485.555
 11
-54.9501
 21
485.372
  0
LINE
  8
0
 10
-54.9501
 20
485.372
 11
-54.9875
 21
485.187
  0
LINE
  8
0
 10
-54.9875
 20
485.187
 11
-55
 21
485
  0
LINE
  8
0
 10
-55
 20
485
 11
-55
 21
-485
  0
LINE
  8
0
 10
-55
 20
-485
 11
-5
 21
-485
  0
LINE
  8
0
 10
-5
 20
-485
 11
-5
 21
485.115
  0
LINE
  8
0
 10
-42.7256
 20
255.714
 11
-42.9476
 21
255.757
  0
LINE
  8
0
 10
-42.9476
 20
255.757
 11
-43.1626
 21
255.826
  0
LINE
  8
0
 10
-43.1626
 20
255.826
 11
-43.3672
 21
255.923
  0
LINE
  8
0
 10
-43.3672
 20
255.923
 11
-43.558
 21
256.044
  0
LINE
  8
0
 10
-43.558
 20
256.044
 11
-43.7322
 21
256.188
  0
LINE
  8
0
 10
-43.7322
 20
256.188
 11
-43.8869
 21
256.353
  0
LINE
  8
0
 10
-43.8869
 20
256.353
 11
-44.0198
 21
256.536
  0
LINE
  8
0
 10
-44.0198
 20
256.536
 11
-44.1287
 21
256.734
  0
LINE
  8
0
 10
-44.1287
 20
256.734
 11
-44.2119
 21
256.944
  0
LINE
  8
0
 10
-44.2119
 20
256.944
 11
-44.2681
 21
257.163
  0
LINE
  8
0
 10
-44.2681
 20
257.163
 11
-44.2964
 21
257.387
  0
LINE
  8
0
 10
-44.2964
 20
257.387
 11
-44.2964
 21
257.613
  0
LINE
  8
0
 10
-44.2964
 20
257.613
 11
-44.2681
 21
257.837
  0
LINE
  8
0
 10
-44.2681
 20
257.837
 11
-44.2119
 21
258.056
  0
LINE
  8
0
 10
-44.2119
 20
258.056
 11
-44.1287
 21
258.266
  0
LINE
  8
0
 10
-44.1287
 20
258.266
 11
-44.0198
 21
258.464
  0
LINE
  8
0
 10
-44.0198
 20
258.464
 11
-43.8869
 21
258.647
  0
LINE
  8
0
 10
-43.8869
 20
258.647
 11
-43.7322
 21
258.812
  0
LINE
  8
0
 10
-43.7322
 20
258.812
 11
-43.558
 21
258.956
  0
LINE
  8
0
 10
-43.558
 20
258.956
 11
-43.3672
 21
259.077
  0
LINE
  8
0
 10
-43.3672
 20
259.077
 11
-43.1626
 21
259.174
  0
LINE
  8
0
 10
-43.1626
 20
259.174
 11
-42.9476
 21
259.243
  0
LINE
  8
0
 10
-42.9476
 20
259.243
 11
-42.7256
 21
259.286
  0
LINE
  8
0
 10
-42.7256
 20
259.286
 11
-42.5
 21
259.3
  0
LINE
  8
0
 10
-42.5
 20
259.3
 11
-42.2744
 21
259.286
  0
LINE
  8
0
 10
-42.2744
 20
259.286
 11
-42.0524
 21
259.243
  0
LINE
  8
0
 10
-42.0524
 20
259.243
 11
-41.8374
 21
259.174
  0
LINE
  8
0
 10
-41.8374
 20
259.174
 11
-41.6328
 21
259.077
  0
LINE
  8
0
 10
-41.6328
 20
259.077
 11
-41.442
 21
258.956
  0
LINE
  8
0
 10
-41.442
 20
258.956
 11
-41.2678
 21
258.812
  0
LINE
  8
0
 10
-41.2678
 20
258.812
 11
-41.1131
 21
258.647
  0
LINE
  8
0
 10
-41.1131
 20
258.647
 11
-40.9802
 21
258.464
  0
LINE
  8
0
 10
-40.9802
 20
258.464
 11
-40.8713
 21
258.266
  0
LINE
  8
0
 10
-40.8713
 20
258.266
 11
-40.7881
 21
258.056
  0
LINE
  8
0
 10
-40.7881
 20
258.056
 11
-40.7319
 21
257.837
  0
LINE
  8
0
 10
-40.7319
 20
257.837
 11
-40.7036
 21
257.613
  0
LINE
  8
0
 10
-40.7036
 20
257.613
 11
-40.7036
 21
257.387
  0
LINE
  8
0
 10
-40.7036
 20
257.387
 11
-40.7319
 21
257.163
  0
LINE
  8
0
 10
-40.7319
 20
257.163
 11
-40.7881
 21
256.944
  0
LINE
  8
0
 10
-40.7881
 20
256.944
 11
-40.8713
 21
256.734
  0
LINE
  8
0
 10
-40.8713
 20
256.734
 11
-40.9802
 21
256.536
  0
LINE
  8
0
 10
-40.9802
 20
256.536
 11
-41.1131
 21
256.353
  0
LINE
  8
0
 10
-41.1131
 20
256.353
 11
-41.2678
 21
256.188
  0
LINE
  8
0
 10
-41.2678
 20
256.188
 11
-41.442
 21
256.044
  0
LINE
  8
0
 10
-41.442
 20
256.044
 11
-41.6328
 21
255.923
  0
LINE
  8
0
 10
-41.6328
 20
255.923
 11
-41.8374
 21
255.826
  0
LINE
  8
0
 10
-41.8374
 20
255.826
 11
-42.0524
 21
255.757
  0
LINE
  8
0
 10
-42.0524
 20
255.757
 11
-42.2744
 21
255.714
  0
LINE
  8
0
 10
-42.2744
 20
255.714
 11
-42.5
 21
255.7
  0
LINE
  8
0
 10
-42.5
 20
255.7
 11
-42.7256
 21
255.714
  0
LINE
  8
0
 10
-42.7256
 20
240.714
 11
-42.9476
 21
240.757
  0
LINE
  8
0
 10
-42.9476
 20
240.757
 11
-43.1626
 21
240.826
  0
LINE
  8
0
 10
-43.1626
 20
240.826
 11
-43.3672
 21
240.923
  0
LINE
  8
0
 10
-43.3672
 20
240.923
 11
-43.558
 21
241.044
  0
LINE
  8
0
 10
-43.558
 20
241.044
 11
-43.7322
 21
241.188
  0
LINE
  8
0
 10
-43.7322
 20
241.188
 11
-43.8869
 21
241.353
  0
LINE
  8
0
 10
-43.8869
 20
241.353
 11
-44.0198
 21
241.536
  0
LINE
  8
0
 10
-44.0198
 20
241.536
 11
-44.1287
 21
241.734
  0
LINE
  8
0
 10
-44.1287
 20
241.734
 11
-44.2119
 21
241.944
  0
LINE
  8
0
 10
-44.2119
 20
241.944
 11
-44.2681
 21
242.163
  0
LINE
  8
0
 10
-44.2681
 20
242.163
 11
-44.2964
 21
242.387
  0
LINE
  8
0
 10
-44.2964
 20
242.387
 11
-44.2964
 21
242.613
  0
LINE
  8
0
 10
-44.2964
 20
242.613
 11
-44.2681
 21
242.837
  0
LINE
  8
0
 10
-44.2681
 20
242.837
 11
-44.2119
 21
243.056
  0
LINE
  8
0
 10
-44.2119
 20
243.056
 11
-44.1287
 21
243.266
  0
LINE
  8
0
 10
-44.1287
 20
243.266
 11
-44.0198
 21
243.464
  0
LINE
  8
0
 10
-44.0198
 20
243.464
 11
-43.8869
 21
243.647
  0
LINE
  8
0
 10
-43.8869
 20
243.647
 11
-43.7322
 21
243.812
  0
LINE
  8
0
 10
-43.7322
 20
243.812
 11
-43.558
 21
243.956
  0
LINE
  8
0
 10
-43.558
 20
243.956
 11
-43.3672
 21
244.077
  0
LINE
  8
0
 10
-43.3672
 20
244.077
 11
-43.1626
 21
244.174
  0
LINE
  8
0
 10
-43.1626
 20
244.174
 11
-42.9476
 21
244.243
  0
LINE
  8
0
 10
-42.9476
 20
244.243
 11
-42.7256
 21
244.286
  0
LINE
  8
0
 10
-42.7256
 20
244.286
 11
-42.5
 21
244.3
  0
LINE
  8
0
 10
-42.5
 20
244.3
 11
-42.2744
 21
244.286
  0
LINE
  8
0
 10
-42.2744
 20
244.286
 11
-42.0524
 21
244.243
  0
LINE
  8
0
 10
-42.0524
 20
244.243
 11
-41.8374
 21
244.174
  0
LINE
  8
0
 10
-41.8374
 20
244.174
 11
-41.6328
 21
244.077
  0
LINE
  8
0
 10
-41.6328
 20
244.077
 11
-41.442
 21
243.956
  0
LINE
  8
0
 10
-41.442
 20
243.956
 11
-41.2678
 21
243.812
  0
LINE
  8
0
 10
-41.2678
 20
243.812
 11
-41.1131
 21
243.647
  0
LINE
  8
0
 10
-41.1131
 20
243.647
 11
-40.9802
 21
243.464
  0
LINE
  8
0
 10
-40.9802
 20
243.464
 11
-40.8713
 21
243.266
  0
LINE
  8
0
 10
-40.8713
 20
243.266
 11
-40.7881
 21
243.056
  0
LINE
  8
0
 10
-40.7881
 20
243.056
 11
-40.7319
 21
242.837
  0
LINE
  8
0
 10
-40.7319
 20
242.837
 11
-40.7036
 21
242.613
  0
LINE
  8
0
 10
-40.7036
 20
242.613
 11
-40.7036
 21
242.387
  0
LINE
  8
0
 10
-40.7036
 20
242.387
 11
-40.7319
 21
242.163
  0
LINE
  8
0
 10
-40.7319
 20
242.163
 11
-40.7881
 21
241.944
  0
LINE
  8
0
 10
-40.7881
 20
241.944
 11
-40.8713
 21
241.734
  0
LINE
  8
0
 10
-40.8713
 20
241.734
 11
-40.9802
 21
241.536
  0
LINE
  8
0
 10
-40.9802
 20
241.536
 11
-41.1131
 21
241.353
  0
LINE
  8
0
 10
-41.1131
 20
241.353
 11
-41.2678
 21
241.188
  0
LINE
  8
0
 10
-41.2678
 20
241.188
 11
-41.442
 21
241.044
  0
LINE
  8
0
 10
-41.442
 20
241.044
 11
-41.6328
 21
240.923
  0
LINE
  8
0
 10
-41.6328
 20
240.923
 11
-41.8374
 21
240.826
  0
LINE
  8
0
 10
-41.8374
 20
240.826
 11
-42.0524
 21
240.757
  0
LINE
  8
0
 10
-42.0524
 20
240.757
 11
-42.2744
 21
240.714
  0
LINE
  8
0
 10
-42.2744
 20
240.714
 11
-42.5
 21
240.7
  0
LINE
  8
0
 10
-42.5
 20
240.7
 11
-42.7256
 21
240.714
  0
LINE
  8
0
 10
-42.7256
 20
225.714
 11
-42.9476
 21
225.757
  0
LINE
  8
0
 10
-42.9476
 20
225.757
 11
-43.1626
 21
225.826
  0
LINE
  8
0
 10
-43.1626
 20
225.826
 11
-43.3672
 21
225.923
  0
LINE
  8
0
 10
-43.3672
 20
225.923
 11
-43.558
 21
226.044
  0
LINE
  8
0
 10
-43.558
 20
226.044
 11
-43.7322
 21
226.188
  0
LINE
  8
0
 10
-43.7322
 20
226.188
 11
-43.8869
 21
226.353
  0
LINE
  8
0
 10
-43.8869
 20
226.353
 11
-44.0198
 21
226.536
  0
LINE
  8
0
 10
-44.0198
 20
226.536
 11
-44.1287
 21
226.734
  0
LINE
  8
0
 10
-44.1287
 20
226.734
 11
-44.2119
 21
226.944
  0
LINE
  8
0
 10
-44.2119
 20
226.944
 11
-44.2681
 21
227.163
  0
LINE
  8
0
 10
-44.2681
 20
227.163
 11
-44.2964
 21
227.387
  0
LINE
  8
0
 10
-44.2964
 20
227.387
 11
-44.2964
 21
227.613
  0
LINE
  8
0
 10
-44.2964
 20
227.613
 11
-44.2681
 21
227.837
  0
LINE
  8
0
 10
-44.2681
 20
227.837
 11
-44.2119
 21
228.056
  0
LINE
  8
0
 10
-44.2119
 20
228.056
 11
-44.1287
 21
228.266
  0
LINE
  8
0
 10
-44.1287
 20
228.266
 11
-44.0198
 21
228.464
  0
LINE
  8
0
 10
-44.0198
 20
228.464
 11
-43.8869
 21
228.647
  0
LINE
  8
0
 10
-43.8869
 20
228.647
 11
-43.7322
 21
228.812
  0
LINE
  8
0
 10
-43.7322
 20
228.812
 11
-43.558
 21
228.956
  0
LINE
  8
0
 10
-43.558
 20
228.956
 11
-43.3672
 21
229.077
  0
LINE
  8
0
 10
-43.3672
 20
229.077
 11
-43.1626
 21
229.174
  0
LINE
  8
0
 10
-43.1626
 20
229.174
 11
-42.9476
 21
229.243
  0
LINE
  8
0
 10
-42.9476
 20
229.243
 11
-42.7256
 21
229.286
  0
LINE
  8
0
 10
-42.7256
 20
229.286
 11
-42.5
 21
229.3
  0
LINE
  8
0
 10
-42.5
 20
229.3
 11
-42.2744
 21
229.286
  0
LINE
  8
0
 10
-42.2744
 20
229.286
 11
-42.0524
 21
229.243
  0
LINE
  8
0
 10
-42.0524
 20
229.243
 11
-41.8374
 21
229.174
  0
LINE
  8
0
 10
-41.8374
 20
229.174
 11
-41.6328
 21
229.077
  0
LINE
  8
0
 10
-41.6328
 20
229.077
 11
-41.442
 21
228.956
  0
LINE
  8
0
 10
-41.442
 20
228.956
 11
-41.2678
 21
228.812
  0
LINE
  8
0
 10
-41.2678
 20
228.812
 11
-41.1131
 21
228.647
  0
LINE
  8
0
 10
-41.1131
 20
228.647
 11
-40.9802
 21
228.464
  0
LINE
  8
0
 10
-40.9802
 20
228.464
 11
-40.8713
 21
228.266
  0
LINE
  8
0
 10
-40.8713
 20
228.266
 11
-40.7881
 21
228.056
  0
LINE
  8
0
 10
-40.7881
 20
228.056
 11
-40.7319
 21
227.837
  0
LINE
  8
0
 10
-40.7319
 20
227.837
 11
-40.7036
 21
227.613
  0
LINE
  8
0
 10
-40.7036
 20
227.613
 11
-40.7036
 21
227.387
  0
LINE
  8
0
 10
-40.7036
 20
227.387
 11
-40.7319
 21
227.163
  0
LINE
  8
0
 10
-40.7319
 20
227.163
 11
-40.7881
 21
226.944
  0
LINE
  8
0
 10
-40.7881
 20
226.944
 11
-40.8713
 21
226.734
  0
LINE
  8
0
 10
-40.8713
 20
226.734
 11
-40.9802
 21
226.536
  0
LINE
  8
0
 10
-40.9802
 20
226.536
 11
-41.1131
 21
226.353
  0
LINE
  8
0
 10
-41.1131
 20
226.353
 11
-41.2678
 21
226.188
  0
LINE
  8
0
 10
-41.2678
 20
226.188
 11
-41.442
 21
226.044
  0
LINE
  8
0
 10
-41.442
 20
226.044
 11
-41.6328
 21
225.923
  0
LINE
  8
0
 10
-41.6328
 20
225.923
 11
-41.8374
 21
225.826
  0
LINE
  8
0
 10
-41.8374
 20
225.826
 11
-42.0524
 21
225.757
  0
LINE
  8
0
 10
-42.0524
 20
225.757
 11
-42.2744
 21
225.714
  0
LINE
  8
0
 10
-42.2744
 20
225.714
 11
-42.5
 21
225.7
  0
LINE
  8
0
 10
-42.5
 20
225.7
 11
-42.7256
 21
225.714
  0
LINE
  8
0
 10
-42.7256
 20
-397.786
 11
-42.9476
 21
-397.743
  0
LINE
  8
0
 10
-42.9476
 20
-397.743
 11
-43.1626
 21
-397.674
  0
LINE
  8
0
 10
-43.1626
 20
-397.674
 11
-43.3672
 21
-397.577
  0
LINE
  8
0
 10
-43.3672
 20
-397.577
 11
-43.558
 21
-397.456
  0
LINE
  8
0
 10
-43.558
 20
-397.456
 11
-43.7322
 21
-397.312
  0
LINE
  8
0
 10
-43.7322
 20
-397.312
 11
-43.8869
 21
-397.147
  0
LINE
  8
0
 10
-43.8869
 20
-397.147
 11
-44.0198
 21
-396.964
  0
LINE
  8
0
 10
-44.0198
 20
-396.964
 11
-44.1287
 21
-396.766
  0
LINE
  8
0
 10
-44.1287
 20
-396.766
 11
-44.2119
 21
-396.556
  0
LINE
  8
0
 10
-44.2119
 20
-396.556
 11
-44.2681
 21
-396.337
  0
LINE
  8
0
 10
-44.2681
 20
-396.337
 11
-44.2964
 21
-396.113
  0
LINE
  8
0
 10
-44.2964
 20
-396.113
 11
-44.2964
 21
-395.887
  0
LINE
  8
0
 10
-44.2964
 20
-395.887
 11
-44.2681
 21
-395.663
  0
LINE
  8
0
 10
-44.2681
 20
-395.663
 11
-44.2119
 21
-395.444
  0
LINE
  8
0
 10
-44.2119
 20
-395.444
 11
-44.1287
 21
-395.234
  0
LINE
  8
0
 10
-44.1287
 20
-395.234
 11
-44.0198
 21
-395.036
  0
LINE
  8
0
 10
-44.0198
 20
-395.036
 11
-43.8869
 21
-394.853
  0
LINE
  8
0
 10
-43.8869
 20
-394.853
 11
-43.7322
 21
-394.688
  0
LINE
  8
0
 10
-43.7322
 20
-394.688
 11
-43.558
 21
-394.544
  0
LINE
  8
0
 10
-43.558
 20
-394.544
 11
-43.3672
 21
-394.423
  0
LINE
  8
0
 10
-43.3672
 20
-394.423
 11
-43.1626
 21
-394.326
  0
LINE
  8
0
 10
-43.1626
 20
-394.326
 11
-42.9476
 21
-394.257
  0
LINE
  8
0
 10
-42.9476
 20
-394.257
 11
-42.7256
 21
-394.214
  0
LINE
  8
0
 10
-42.7256
 20
-394.214
 11
-42.5
 21
-394.2
  0
LINE
  8
0
 10
-42.5
 20
-394.2
 11
-42.2744
 21
-394.214
  0
LINE
  8
0
 10
-42.2744
 20
-394.214
 11
-42.0524
 21
-394.257
  0
LINE
  8
0
 10
-42.0524
 20
-394.257
 11
-41.8374
 21
-394.326
  0
LINE
  8
0
 10
-41.8374
 20
-394.326
 11
-41.6328
 21
-394.423
  0
LINE
  8
0
 10
-41.6328
 20
-394.423
 11
-41.442
 21
-394.544
  0
LINE
  8
0
 10
-41.442
 20
-394.544
 11
-41.2678
 21
-394.688
  0
LINE
  8
0
 10
-41.2678
 20
-394.688
 11
-41.1131
 21
-394.853
  0
LINE
  8
0
 10
-41.1131
 20
-394.853
 11
-40.9802
 21
-395.036
  0
LINE
  8
0
 10
-40.9802
 20
-395.036
 11
-40.8713
 21
-395.234
  0
LINE
  8
0
 10
-40.8713
 20
-395.234
 11
-40.7881
 21
-395.444
  0
LINE
  8
0
 10
-40.7881
 20
-395.444
 11
-40.7319
 21
-395.663
  0
LINE
  8
0
 10
-40.7319
 20
-395.663
 11
-40.7036
 21
-395.887
  0
LINE
  8
0
 10
-40.7036
 20
-395.887
 11
-40.7036
 21
-396.113
  0
LINE
  8
0
 10
-40.7036
 20
-396.113
 11
-40.7319
 21
-396.337
  0
LINE
  8
0
 10
-40.7319
 20
-396.337
 11
-40.7881
 21
-396.556
  0
LINE
  8
0
 10
-40.7881
 20
-396.556
 11
-40.8713
 21
-396.766
  0
LINE
  8
0
 10
-40.8713
 20
-396.766
 11
-40.9802
 21
-396.964
  0
LINE
  8
0
 10
-40.9802
 20
-396.964
 11
-41.1131
 21
-397.147
  0
LINE
  8
0
 10
-41.1131
 20
-397.147
 11
-41.2678
 21
-397.312
  0
LINE
  8
0
 10
-41.2678
 20
-397.312
 11
-41.442
 21
-397.456
  0
LINE
  8
0
 10
-41.442
 20
-397.456
 11
-41.6328
 21
-397.577
  0
LINE
  8
0
 10
-41.6328
 20
-397.577
 11
-41.8374
 21
-397.674
  0
LINE
  8
0
 10
-41.8374
 20
-397.674
 11
-42.0524
 21
-397.743
  0
LINE
  8
0
 10
-42.0524
 20
-397.743
 11
-42.2744
 21
-397.786
  0
LINE
  8
0
 10
-42.2744
 20
-397.786
 11
-42.5
 21
-397.8
  0
LINE
  8
0
 10
-42.5
 20
-397.8
 11
-42.7256
 21
-397.786
  0
LINE
  8
0
 10
-26.7256
 20
-417.786
 11
-26.9476
 21
-417.743
  0
LINE
  8
0
 10
-26.9476
 20
-417.743
 11
-27.1626
 21
-417.674
  0
LINE
  8
0
 10
-27.1626
 20
-417.674
 11
-27.3672
 21
-417.577
  0
LINE
  8
0
 10
-27.3672
 20
-417.577
 11
-27.558
 21
-417.456
  0
LINE
  8
0
 10
-27.558
 20
-417.456
 11
-27.7322
 21
-417.312
  0
LINE
  8
0
 10
-27.7322
 20
-417.312
 11
-27.8869
 21
-417.147
  0
LINE
  8
0
 10
-27.8869
 20
-417.147
 11
-28.0198
 21
-416.964
  0
LINE
  8
0
 10
-28.0198
 20
-416.964
 11
-28.1287
 21
-416.766
  0
LINE
  8
0
 10
-28.1287
 20
-416.766
 11
-28.2119
 21
-416.556
  0
LINE
  8
0
 10
-28.2119
 20
-416.556
 11
-28.2681
 21
-416.337
  0
LINE
  8
0
 10
-28.2681
 20
-416.337
 11
-28.2964
 21
-416.113
  0
LINE
  8
0
 10
-28.2964
 20
-416.113
 11
-28.2964
 21
-415.887
  0
LINE
  8
0
 10
-28.2964
 20
-415.887
 11
-28.2681
 21
-415.663
  0
LINE
  8
0
 10
-28.2681
 20
-415.663
 11
-28.2119
 21
-415.444
  0
LINE
  8
0
 10
-28.2119
 20
-415.444
 11
-28.1287
 21
-415.234
  0
LINE
  8
0
 10
-28.1287
 20
-415.234
 11
-28.0198
 21
-415.036
  0
LINE
  8
0
 10
-28.0198
 20
-415.036
 11
-27.8869
 21
-414.853
  0
LINE
  8
0
 10
-27.8869
 20
-414.853
 11
-27.7322
 21
-414.688
  0
LINE
  8
0
 10
-27.7322
 20
-414.688
 11
-27.558
 21
-414.544
  0
LINE
  8
0
 10
-27.558
 20
-414.544
 11
-27.3672
 21
-414.423
  0
LINE
  8
0
 10
-27.3672
 20
-414.423
 11
-27.1626
 21
-414.326
  0
LINE
  8
0
 10
-27.1626
 20
-414.326
 11
-26.9476
 21
-414.257
  0
LINE
  8
0
 10
-26.9476
 20
-414.257
 11
-26.7256
 21
-414.214
  0
LINE
  8
0
 10
-26.7256
 20
-414.214
 11
-26.5
 21
-414.2
  0
LINE
  8
0
 10
-26.5
 20
-414.2
 11
-26.2744
 21
-414.214
  0
LINE
  8
0
 10
-26.2744
 20
-414.214
 11
-26.0524
 21
-414.257
  0
LINE
  8
0
 10
-26.0524
 20
-414.257
 11
-25.8374
 21
-414.326
  0
LINE
  8
0
 10
-25.8374
 20
-414.326
 11
-25.6328
 21
-414.423
  0
LINE
  8
0
 10
-25.6328
 20
-414.423
 11
-25.442
 21
-414.544
  0
LINE
  8
0
 10
-25.442
 20
-414.544
 11
-25.2678
 21
-414.688
  0
LINE
  8
0
 10
-25.2678
 20
-414.688
 11
-25.1131
 21
-414.853
  0
LINE
  8
0
 10
-25.1131
 20
-414.853
 11
-24.9802
 21
-415.036
  0
LINE
  8
0
 10
-24.9802
 20
-415.036
 11
-24.8713
 21
-415.234
  0
LINE
  8
0
 10
-24.8713
 20
-415.234
 11
-24.7881
 21
-415.444
  0
LINE
  8
0
 10
-24.7881
 20
-415.444
 11
-24.7319
 21
-415.663
  0
LINE
  8
0
 10
-24.7319
 20
-415.663
 11
-24.7036
 21
-415.887
  0
LINE
  8
0
 10
-24.7036
 20
-415.887
 11
-24.7036
 21
-416.113
  0
LINE
  8
0
 10
-24.7036
 20
-416.113
 11
-24.7319
 21
-416.337
  0
LINE
  8
0
 10
-24.7319
 20
-416.337
 11
-24.7881
 21
-416.556
  0
LINE
  8
0
 10
-24.7881
 20
-416.556
 11
-24.8713
 21
-416.766
  0
LINE
  8
0
 10
-24.8713
 20
-416.766
 11
-24.9802
 21
-416.964
  0
LINE
  8
0
 10
-24.9802
 20
-416.964
 11
-25.1131
 21
-417.147
  0
LINE
  8
0
 10
-25.1131
 20
-417.147
 11
-25.2678
 21
-417.312
  0
LINE
  8
0
 10
-25.2678
 20
-417.312
 11
-25.442
 21
-417.456
  0
LINE
  8
0
 10
-25.442
 20
-417.456
 11
-25.6328
 21
-417.577
  0
LINE
  8
0
 10
-25.6328
 20
-417.577
 11
-25.8374
 21
-417.674
  0
LINE
  8
0
 10
-25.8374
 20
-417.674
 11
-26.0524
 21
-417.743
  0
LINE
  8
0
 10
-26.0524
 20
-417.743
 11
-26.2744
 21
-417.786
  0
LINE
  8
0
 10
-26.2744
 20
-417.786
 11
-26.5
 21
-417.8
  0
LINE
  8
0
 10
-26.5
 20
-417.8
 11
-26.7256
 21
-417.786
  0
LINE
  8
0
 10
-42.7256
 20
-437.786
 11
-42.9476
 21
-437.743
  0
LINE
  8
0
 10
-42.9476
 20
-437.743
 11
-43.1626
 21
-437.674
  0
LINE
  8
0
 10
-43.1626
 20
-437.674
 11
-43.3672
 21
-437.577
  0
LINE
  8
0
 10
-43.3672
 20
-437.577
 11
-43.558
 21
-437.456
  0
LINE
  8
0
 10
-43.558
 20
-437.456
 11
-43.7322
 21
-437.312
  0
LINE
  8
0
 10
-43.7322
 20
-437.312
 11
-43.8869
 21
-437.147
  0
LINE
  8
0
 10
-43.8869
 20
-437.147
 11
-44.0198
 21
-436.964
  0
LINE
  8
0
 10
-44.0198
 20
-436.964
 11
-44.1287
 21
-436.766
  0
LINE
  8
0
 10
-44.1287
 20
-436.766
 11
-44.2119
 21
-436.556
  0
LINE
  8
0
 10
-44.2119
 20
-436.556
 11
-44.2681
 21
-436.337
  0
LINE
  8
0
 10
-44.2681
 20
-436.337
 11
-44.2964
 21
-436.113
  0
LINE
  8
0
 10
-44.2964
 20
-436.113
 11
-44.2964
 21
-435.887
  0
LINE
  8
0
 10
-44.2964
 20
-435.887
 11
-44.2681
 21
-435.663
  0
LINE
  8
0
 10
-44.2681
 20
-435.663
 11
-44.2119
 21
-435.444
  0
LINE
  8
0
 10
-44.2119
 20
-435.444
 11
-44.1287
 21
-435.234
  0
LINE
  8
0
 10
-44.1287
 20
-435.234
 11
-44.0198
 21
-435.036
  0
LINE
  8
0
 10
-44.0198
 20
-435.036
 11
-43.8869
 21
-434.853
  0
LINE
  8
0
 10
-43.8869
 20
-434.853
 11
-43.7322
 21
-434.688
  0
LINE
  8
0
 10
-43.7322
 20
-434.688
 11
-43.558
 21
-434.544
  0
LINE
  8
0
 10
-43.558
 20
-434.544
 11
-43.3672
 21
-434.423
  0
LINE
  8
0
 10
-43.3672
 20
-434.423
 11
-43.1626
 21
-434.326
  0
LINE
  8
0
 10
-43.1626
 20
-434.326
 11
-42.9476
 21
-434.257
  0
LINE
  8
0
 10
-42.9476
 20
-434.257
 11
-42.7256
 21
-434.214
  0
LINE
  8
0
 10
-42.7256
 20
-434.214
 11
-42.5
 21
-434.2
  0
LINE
  8
0
 10
-42.5
 20
-434.2
 11
-42.2744
 21
-434.214
  0
LINE
  8
0
 10
-42.2744
 20
-434.214
 11
-42.0524
 21
-434.257
  0
LINE
  8
0
 10
-42.0524
 20
-434.257
 11
-41.8374
 21
-434.326
  0
LINE
  8
0
 10
-41.8374
 20
-434.326
 11
-41.6328
 21
-434.423
  0
LINE
  8
0
 10
-41.6328
 20
-434.423
 11
-41.442
 21
-434.544
  0
LINE
  8
0
 10
-41.442
 20
-434.544
 11
-41.2678
 21
-434.688
  0
LINE
  8
0
 10
-41.2678
 20
-434.688
 11
-41.1131
 21
-434.853
  0
LINE
  8
0
 10
-41.1131
 20
-434.853
 11
-40.9802
 21
-435.036
  0
LINE
  8
0
 10
-40.9802
 20
-435.036
 11
-40.8713
 21
-435.234
  0
LINE
  8
0
 10
-40.8713
 20
-435.234
 11
-40.7881
 21
-435.444
  0
LINE
  8
0
 10
-40.7881
 20
-435.444
 11
-40.7319
 21
-435.663
  0
LINE
  8
0
 10
-40.7319
 20
-435.663
 11
-40.7036
 21
-435.887
  0
LINE
  8
0
 10
-40.7036
 20
-435.887
 11
-40.7036
 21
-436.113
  0
LINE
  8
0
 10
-40.7036
 20
-436.113
 11
-40.7319
 21
-436.337
  0
LINE
  8
0
 10
-40.7319
 20
-436.337
 11
-40.7881
 21
-436.556
  0
LINE
  8
0
 10
-40.7881
 20
-436.556
 11
-40.8713
 21
-436.766
  0
LINE
  8
0
 10
-40.8713
 20
-436.766
 11
-40.9802
 21
-436.964
  0
LINE
  8
0
 10
-40.9802
 20
-436.964
 11
-41.1131
 21
-437.147
  0
LINE
  8
0
 10
-41.1131
 20
-437.147
 11
-41.2678
 21
-437.312
  0
LINE
  8
0
 10
-41.2678
 20
-437.312
 11
-41.442
 21
-437.456
  0
LINE
  8
0
 10
-41.442
 20
-437.456
 11
-41.6328
 21
-437.577
  0
LINE
  8
0
 10
-41.6328
 20
-437.577
 11
-41.8374
 21
-437.674
  0
LINE
  8
0
 10
-41.8374
 20
-437.674
 11
-42.0524
 21
-437.743
  0
LINE
  8
0
 10
-42.0524
 20
-437.743
 11
-42.2744
 21
-437.786
  0
LINE
  8
0
 10
-42.2744
 20
-437.786
 11
-42.5
 21
-437.8
  0
LINE
  8
0
 10
-42.5
 20
-437.8
 11
-42.7256
 21
-437.786
  0
LINE
  8
0
 10
-24.7256
 20
-457.786
 11
-24.9476
 21
-457.743
  0
LINE
  8
0
 10
-24.9476
 20
-457.743
 11
-25.1626
 21
-457.674
  0
LINE
  8
0
 10
-25.1626
 20
-457.674
 11
-25.3672
 21
-457.577
  0
LINE
  8
0
 10
-25.3672
 20
-457.577
 11
-25.558
 21
-457.456
  0
LINE
  8
0
 10
-25.558
 20
-457.456
 11
-25.7322
 21
-457.312
  0
LINE
  8
0
 10
-25.7322
 20
-457.312
 11
-25.8869
 21
-457.147
  0
LINE
  8
0
 10
-25.8869
 20
-457.147
 11
-26.0198
 21
-456.964
  0
LINE
  8
0
 10
-26.0198
 20
-456.964
 11
-26.1287
 21
-456.766
  0
LINE
  8
0
 10
-26.1287
 20
-456.766
 11
-26.2119
 21
-456.556
  0
LINE
  8
0
 10
-26.2119
 20
-456.556
 11
-26.2681
 21
-456.337
  0
LINE
  8
0
 10
-26.2681
 20
-456.337
 11
-26.2964
 21
-456.113
  0
LINE
  8
0
 10
-26.2964
 20
-456.113
 11
-26.2964
 21
-455.887
  0
LINE
  8
0
 10
-26.2964
 20
-455.887
 11
-26.2681
 21
-455.663
  0
LINE
  8
0
 10
-26.2681
 20
-455.663
 11
-26.2119
 21
-455.444
  0
LINE
  8
0
 10
-26.2119
 20
-455.444
 11
-26.1287
 21
-455.234
  0
LINE
  8
0
 10
-26.1287
 20
-455.234
 11
-26.0198
 21
-455.036
  0
LINE
  8
0
 10
-26.0198
 20
-455.036
 11
-25.8869
 21
-454.853
  0
LINE
  8
0
 10
-25.8869
 20
-454.853
 11
-25.7322
 21
-454.688
  0
LINE
  8
0
 10
-25.7322
 20
-454.688
 11
-25.558
 21
-454.544
  0
LINE
  8
0
 10
-25.558
 20
-454.544
 11
-25.3672
 21
-454.423
  0
LINE
  8
0
 10
-25.3672
 20
-454.423
 11
-25.1626
 21
-454.326
  0
LINE
  8
0
 10
-25.1626
 20
-454.326
 11
-24.9476
 21
-454.257
  0
LINE
  8
0
 10
-24.9476
 20
-454.257
 11
-24.7256
 21
-454.214
  0
LINE
  8
0
 10
-24.7256
 20
-454.214
 11
-24.5
 21
-454.2
  0
LINE
  8
0
 10
-24.5
 20
-454.2
 11
-24.2744
 21
-454.214
  0
LINE
  8
0
 10
-24.2744
 20
-454.214
 11
-24.0524
 21
-454.257
  0
LINE
  8
0
 10
-24.0524
 20
-454.257
 11
-23.8374
 21
-454.326
  0
LINE
  8
0
 10
-23.8374
 20
-454.326
 11
-23.6328
 21
-454.423
  0
LINE
  8
0
 10
-23.6328
 20
-454.423
 11
-23.442
 21
-454.544
  0
LINE
  8
0
 10
-23.442
 20
-454.544
 11
-23.2678
 21
-454.688
  0
LINE
  8
0
 10
-23.2678
 20
-454.688
 11
-23.1131
 21
-454.853
  0
LINE
  8
0
 10
-23.1131
 20
-454.853
 11
-22.9802
 21
-455.036
  0
LINE
  8
0
 10
-22.9802
 20
-455.036
 11
-22.8713
 21
-455.234
  0
LINE
  8
0
 10
-22.8713
 20
-455.234
 11
-22.7881
 21
-455.444
  0
LINE
  8
0
 10
-22.7881
 20
-455.444
 11
-22.7319
 21
-455.663
  0
LINE
  8
0
 10
-22.7319
 20
-455.663
 11
-22.7036
 21
-455.887
  0
LINE
  8
0
 10
-22.7036
 20
-455.887
 11
-22.7036
 21
-456.113
  0
LINE
  8
0
 10
-22.7036
 20
-456.113
 11
-22.7319
 21
-456.337
  0
LINE
  8
0
 10
-22.7319
 20
-456.337
 11
-22.7881
 21
-456.556
  0
LINE
  8
0
 10
-22.7881
 20
-456.556
 11
-22.8713
 21
-456.766
  0
LINE
  8
0
 10
-22.8713
 20
-456.766
 11
-22.9802
 21
-456.964
  0
LINE
  8
0
 10
-22.9802
 20
-456.964
 11
-23.1131
 21
-457.147
  0
LINE
  8
0
 10
-23.1131
 20
-457.147
 11
-23.2678
 21
-457.312
  0
LINE
  8
0
 10
-23.2678
 20
-457.312
 11
-23.442
 21
-457.456
  0
LINE
  8
0
 10
-23.442
 20
-457.456
 11
-23.6328
 21
-457.577
  0
LINE
  8
0
 10
-23.6328
 20
-457.577
 11
-23.8374
 21
-457.674
  0
LINE
  8
0
 10
-23.8374
 20
-457.674
 11
-24.0524
 21
-457.743
  0
LINE
  8
0
 10
-24.0524
 20
-457.743
 11
-24.2744
 21
-457.786
  0
LINE
  8
0
 10
-24.2744
 20
-457.786
 11
-24.5
 21
-457.8
  0
LINE
  8
0
 10
-24.5
 20
-457.8
 11
-24.7256
 21
-457.786
  0
LINE
  8
0
 10
-42.7256
 20
-477.786
 11
-42.9476
 21
-477.743
  0
LINE
  8
0
 10
-42.9476
 20
-477.743
 11
-43.1626
 21
-477.674
  0
LINE
  8
0
 10
-43.1626
 20
-477.674
 11
-43.3672
 21
-477.577
  0
LINE
  8
0
 10
-43.3672
 20
-477.577
 11
-43.558
 21
-477.456
  0
LINE
  8
0
 10
-43.558
 20
-477.456
 11
-43.7322
 21
-477.312
  0
LINE
  8
0
 10
-43.7322
 20
-477.312
 11
-43.8869
 21
-477.147
  0
LINE
  8
0
 10
-43.8869
 20
-477.147
 11
-44.0198
 21
-476.964
  0
LINE
  8
0
 10
-44.0198
 20
-476.964
 11
-44.1287
 21
-476.766
  0
LINE
  8
0
 10
-44.1287
 20
-476.766
 11
-44.2119
 21
-476.556
  0
LINE
  8
0
 10
-44.2119
 20
-476.556
 11
-44.2681
 21
-476.337
  0
LINE
  8
0
 10
-44.2681
 20
-476.337
 11
-44.2964
 21
-476.113
  0
LINE
  8
0
 10
-44.2964
 20
-476.113
 11
-44.2964
 21
-475.887
  0
LINE
  8
0
 10
-44.2964
 20
-475.887
 11
-44.2681
 21
-475.663
  0
LINE
  8
0
 10
-44.2681
 20
-475.663
 11
-44.2119
 21
-475.444
  0
LINE
  8
0
 10
-44.2119
 20
-475.444
 11
-44.1287
 21
-475.234
  0
LINE
  8
0
 10
-44.1287
 20
-475.234
 11
-44.0198
 21
-475.036
  0
LINE
  8
0
 10
-44.0198
 20
-475.036
 11
-43.8869
 21
-474.853
  0
LINE
  8
0
 10
-43.8869
 20
-474.853
 11
-43.7322
 21
-474.688
  0
LINE
  8
0
 10
-43.7322
 20
-474.688
 11
-43.558
 21
-474.544
  0
LINE
  8
0
 10
-43.558
 20
-474.544
 11
-43.3672
 21
-474.423
  0
LINE
  8
0
 10
-43.3672
 20
-474.423
 11
-43.1626
 21
-474.326
  0
LINE
  8
0
 10
-43.1626
 20
-474.326
 11
-42.9476
 21
-474.257
  0
LINE
  8
0
 10
-42.9476
 20
-474.257
 11
-42.7256
 21
-474.214
  0
LINE
  8
0
 10
-42.7256
 20
-474.214
 11
-42.5
 21
-474.2
  0
LINE
  8
0
 10
-42.5
 20
-474.2
 11
-42.2744
 21
-474.214
  0
LINE
  8
0
 10
-42.2744
 20
-474.214
 11
-42.0524
 21
-474.257
  0
LINE
  8
0
 10
-42.0524
 20
-474.257
 11
-41.8374
 21
-474.326
  0
LINE
  8
0
 10
-41.8374
 20
-474.326
 11
-41.6328
 21
-474.423
  0
LINE
  8
0
 10
-41.6328
 20
-474.423
 11
-41.442
 21
-474.544
  0
LINE
  8
0
 10
-41.442
 20
-474.544
 11
-41.2678
 21
-474.688
  0
LINE
  8
0
 10
-41.2678
 20
-474.688
 11
-41.1131
 21
-474.853
  0
LINE
  8
0
 10
-41.1131
 20
-474.853
 11
-40.9802
 21
-475.036
  0
LINE
  8
0
 10
-40.9802
 20
-475.036
 11
-40.8713
 21
-475.234
  0
LINE
  8
0
 10
-40.8713
 20
-475.234
 11
-40.7881
 21
-475.444
  0
LINE
  8
0
 10
-40.7881
 20
-475.444
 11
-40.7319
 21
-475.663
  0
LINE
  8
0
 10
-40.7319
 20
-475.663
 11
-40.7036
 21
-475.887
  0
LINE
  8
0
 10
-40.7036
 20
-475.887
 11
-40.7036
 21
-476.113
  0
LINE
  8
0
 10
-40.7036
 20
-476.113
 11
-40.7319
 21
-476.337
  0
LINE
  8
0
 10
-40.7319
 20
-476.337
 11
-40.7881
 21
-476.556
  0
LINE
  8
0
 10
-40.7881
 20
-476.556
 11
-40.8713
 21
-476.766
  0
LINE
  8
0
 10
-40.8713
 20
-476.766
 11
-40.9802
 21
-476.964
  0
LINE
  8
0
 10
-40.9802
 20
-476.964
 11
-41.1131
 21
-477.147
  0
LINE
  8
0
 10
-41.1131
 20
-477.147
 11
-41.2678
 21
-477.312
  0
LINE
  8
0
 10
-41.2678
 20
-477.312
 11
-41.442
 21
-477.456
  0
LINE
  8
0
 10
-41.442
 20
-477.456
 11
-41.6328
 21
-477.577
  0
LINE
  8
0
 10
-41.6328
 20
-477.577
 11
-41.8374
 21
-477.674
  0
LINE
  8
0
 10
-41.8374
 20
-477.674
 11
-42.0524
 21
-477.743
  0
LINE
  8
0
 10
-42.0524
 20
-477.743
 11
-42.2744
 21
-477.786
  0
LINE
  8
0
 10
-42.2744
 20
-477.786
 11
-42.5
 21
-477.8
  0
LINE
  8
0
 10
-42.5
 20
-477.8
 11
-42.7256
 21
-477.786
  0
LINE
  8
0
 10
-65
 20
485.115
 11
-65.1949
 21
485.152
  0
LINE
  8
0
 10
-65.1949
 20
485.152
 11
-65.4046
 21
485.192
  0
LINE
  8
0
 10
-65.4046
 20
485.192
 11
-65.6383
 21
485.236
  0
LINE
  8
0
 10
-65.6383
 20
485.236
 11
-65.8957
 21
485.284
  0
LINE
  8
0
 10
-65.8957
 20
485.284
 11
-66.1767
 21
485.337
  0
LINE
  8
0
 10
-66.1767
 20
485.337
 11
-66.4808
 21
485.393
  0
LINE
  8
0
 10
-66.4808
 20
485.393
 11
-66.8079
 21
485.453
  0
LINE
  8
0
 10
-66.8079
 20
485.453
 11
-67.1575
 21
485.516
  0
LINE
  8
0
 10
-67.1575
 20
485.516
 11
-67.5294
 21
485.583
  0
LINE
  8
0
 10
-67.5294
 20
485.583
 11
-67.9232
 21
485.653
  0
LINE
  8
0
 10
-67.9232
 20
485.653
 11
-68.3385
 21
485.727
  0
LINE
  8
0
 10
-68.3385
 20
485.727
 11
-68.7749
 21
485.803
  0
LINE
  8
0
 10
-68.7749
 20
485.803
 11
-69.2319
 21
485.882
  0
LINE
  8
0
 10
-69.2319
 20
485.882
 11
-69.7091
 21
485.963
  0
LINE
  8
0
 10
-69.7091
 20
485.963
 11
-70.206
 21
486.047
  0
LINE
  8
0
 10
-70.206
 20
486.047
 11
-70.7222
 21
486.133
  0
LINE
  8
0
 10
-70.7222
 20
486.133
 11
-71.2571
 21
486.222
  0
LINE
  8
0
 10
-71.2571
 20
486.222
 11
-71.8102
 21
486.311
  0
LINE
  8
0
 10
-71.8102
 20
486.311
 11
-72.381
 21
486.403
  0
LINE
  8
0
 10
-72.381
 20
486.403
 11
-72.9688
 21
486.496
  0
LINE
  8
0
 10
-72.9688
 20
486.496
 11
-73.5732
 21
486.59
  0
LINE
  8
0
 10
-73.5732
 20
486.59
 11
-74.1935
 21
486.685
  0
LINE
  8
0
 10
-74.1935
 20
486.685
 11
-74.829
 21
486.781
  0
LINE
  8
0
 10
-74.829
 20
486.781
 11
-75.4793
 21
486.878
  0
LINE
  8
0
 10
-75.4793
 20
486.878
 11
-76.1436
 21
486.975
  0
LINE
  8
0
 10
-76.1436
 20
486.975
 11
-76.8213
 21
487.073
  0
LINE
  8
0
 10
-76.8213
 20
487.073
 11
-77.5116
 21
487.17
  0
LINE
  8
0
 10
-77.5116
 20
487.17
 11
-78.2141
 21
487.268
  0
LINE
  8
0
 10
-78.2141
 20
487.268
 11
-78.9278
 21
487.365
  0
LINE
  8
0
 10
-78.9278
 20
487.365
 11
-79.6522
 21
487.461
  0
LINE
  8
0
 10
-79.6522
 20
487.461
 11
-80.3865
 21
487.557
  0
LINE
  8
0
 10
-80.3865
 20
487.557
 11
-81.1299
 21
487.651
  0
LINE
  8
0
 10
-81.1299
 20
487.651
 11
-81.8819
 21
487.745
  0
LINE
  8
0
 10
-81.8819
 20
487.745
 11
-82.6415
 21
487.837
  0
LINE
  8
0
 10
-82.6415
 20
487.837
 11
-83.4082
 21
487.928
  0
LINE
  8
0
 10
-83.4082
 20
487.928
 11
-84.181
 21
488.016
  0
LINE
  8
0
 10
-84.181
 20
488.016
 11
-84.9593
 21
488.103
  0
LINE
  8
0
 10
-84.9593
 20
488.103
 11
-85.7422
 21
488.187
  0
LINE
  8
0
 10
-85.7422
 20
488.187
 11
-86.5291
 21
488.269
  0
LINE
  8
0
 10
-86.5291
 20
488.269
 11
-87.3191
 21
488.348
  0
LINE
  8
0
 10
-87.3191
 20
488.348
 11
-88.1114
 21
488.424
  0
LINE
  8
0
 10
-88.1114
 20
488.424
 11
-88.9053
 21
488.497
  0
LINE
  8
0
 10
-88.9053
 20
488.497
 11
-89.7
 21
488.566
  0
LINE
  8
0
 10
-89.7
 20
488.566
 11
-90.4947
 21
488.632
  0
LINE
  8
0
 10
-90.4947
 20
488.632
 11
-91.2886
 21
488.694
  0
LINE
  8
0
 10
-91.2886
 20
488.694
 11
-92.0809
 21
488.751
  0
LINE
  8
0
 10
-92.0809
 20
488.751
 11
-92.8709
 21
488.804
  0
LINE
  8
0
 10
-92.8709
 20
488.804
 11
-93.6578
 21
488.853
  0
LINE
  8
0
 10
-93.6578
 20
488.853
 11
-94.4408
 21
488.897
  0
LINE
  8
0
 10
-94.4408
 20
488.897
 11
-95.219
 21
488.935
  0
LINE
  8
0
 10
-95.219
 20
488.935
 11
-95.9919
 21
488.968
  0
LINE
  8
0
 10
-95.9919
 20
488.968
 11
-96.7585
 21
488.996
  0
LINE
  8
0
 10
-96.7585
 20
488.996
 11
-97.5181
 21
489.018
  0
LINE
  8
0
 10
-97.5181
 20
489.018
 11
-98.2701
 21
489.034
  0
LINE
  8
0
 10
-98.2701
 20
489.034
 11
-99.0136
 21
489.044
  0
LINE
  8
0
 10
-99.0136
 20
489.044
 11
-99.7478
 21
489.048
  0
LINE
  8
0
 10
-99.7478
 20
489.048
 11
-100.472
 21
489.046
  0
LINE
  8
0
 10
-100.472
 20
489.046
 11
-101.186
 21
489.037
  0
LINE
  8
0
 10
-101.186
 20
489.037
 11
-101.888
 21
489.022
  0
LINE
  8
0
 10
-101.888
 20
489.022
 11
-102.579
 21
489
  0
LINE
  8
0
 10
-102.579
 20
489
 11
-103.256
 21
488.971
  0
LINE
  8
0
 10
-103.256
 20
488.971
 11
-103.921
 21
488.936
  0
LINE
  8
0
 10
-103.921
 20
488.936
 11
-104.571
 21
488.894
  0
LINE
  8
0
 10
-104.571
 20
488.894
 11
-105.207
 21
488.845
  0
LINE
  8
0
 10
-105.207
 20
488.845
 11
-105.827
 21
488.789
  0
LINE
  8
0
 10
-105.827
 20
488.789
 11
-106.431
 21
488.726
  0
LINE
  8
0
 10
-106.431
 20
488.726
 11
-107.019
 21
488.657
  0
LINE
  8
0
 10
-107.019
 20
488.657
 11
-107.59
 21
488.581
  0
LINE
  8
0
 10
-107.59
 20
488.581
 11
-108.143
 21
488.499
  0
LINE
  8
0
 10
-108.143
 20
488.499
 11
-108.678
 21
488.41
  0
LINE
  8
0
 10
-108.678
 20
488.41
 11
-109.194
 21
488.315
  0
LINE
  8
0
 10
-109.194
 20
488.315
 11
-109.691
 21
488.214
  0
LINE
  8
0
 10
-109.691
 20
488.214
 11
-110.168
 21
488.107
  0
LINE
  8
0
 10
-110.168
 20
488.107
 11
-110.625
 21
487.994
  0
LINE
  8
0
 10
-110.625
 20
487.994
 11
-111.062
 21
487.875
  0
LINE
  8
0
 10
-111.062
 20
487.875
 11
-111.477
 21
487.751
  0
LINE
  8
0
 10
-111.477
 20
487.751
 11
-111.871
 21
487.622
  0
LINE
  8
0
 10
-111.871
 20
487.622
 11
-112.242
 21
487.487
  0
LINE
  8
0
 10
-112.242
 20
487.487
 11
-112.592
 21
487.348
  0
LINE
  8
0
 10
-112.592
 20
487.348
 11
-112.919
 21
487.204
  0
LINE
  8
0
 10
-112.919
 20
487.204
 11
-113.223
 21
487.056
  0
LINE
  8
0
 10
-113.223
 20
487.056
 11
-113.504
 21
486.903
  0
LINE
  8
0
 10
-113.504
 20
486.903
 11
-113.762
 21
486.747
  0
LINE
  8
0
 10
-113.762
 20
486.747
 11
-113.995
 21
486.587
  0
LINE
  8
0
 10
-113.995
 20
486.587
 11
-114.205
 21
486.423
  0
LINE
  8
0
 10
-114.205
 20
486.423
 11
-114.391
 21
486.255
  0
LINE
  8
0
 10
-114.391
 20
486.255
 11
-114.552
 21
486.085
  0
LINE
  8
0
 10
-114.552
 20
486.085
 11
-114.689
 21
485.911
  0
LINE
  8
0
 10
-114.689
 20
485.911
 11
-114.801
 21
485.734
  0
LINE
  8
0
 10
-114.801
 20
485.734
 11
-114.888
 21
485.555
  0
LINE
  8
0
 10
-114.888
 20
485.555
 11
-114.95
 21
485.372
  0
LINE
  8
0
 10
-114.95
 20
485.372
 11
-114.988
 21
485.187
  0
LINE
  8
0
 10
-114.988
 20
485.187
 11
-115
 21
485
  0
LINE
  8
0
 10
-115
 20
485
 11
-115
 21
-485
  0
LINE
  8
0
 10
-115
 20
-485
 11
-65
 21
-485
  0
LINE
  8
0
 10
-65
 20
-485
 11
-65
 21
485.115
  0
LINE
  8
0
 10
-102.726
 20
255.714
 11
-102.948
 21
255.757
  0
LINE
  8
0
 10
-102.948
 20
255.757
 11
-103.163
 21
255.826
  0
LINE
  8
0
 10
-103.163
 20
255.826
 11
-103.367
 21
255.923
  0
LINE
  8
0
 10
-103.367
 20
255.923
 11
-103.558
 21
256.044
  0
LINE
  8
0
 10
-103.558
 20
256.044
 11
-103.732
 21
256.188
  0
LINE
  8
0
 10
-103.732
 20
256.188
 11
-103.887
 21
256.353
  0
LINE
  8
0
 10
-103.887
 20
256.353
 11
-104.02
 21
256.536
  0
LINE
  8
0
 10
-104.02
 20
256.536
 11
-104.129
 21
256.734
  0
LINE
  8
0
 10
-104.129
 20
256.734
 11
-104.212
 21
256.944
  0
LINE
  8
0
 10
-104.212
 20
256.944
 11
-104.268
 21
257.163
  0
LINE
  8
0
 10
-104.268
 20
257.163
 11
-104.296
 21
257.387
  0
LINE
  8
0
 10
-104.296
 20
257.387
 11
-104.296
 21
257.613
  0
LINE
  8
0
 10
-104.296
 20
257.613
 11
-104.268
 21
257.837
  0
LINE
  8
0
 10
-104.268
 20
257.837
 11
-104.212
 21
258.056
  0
LINE
  8
0
 10
-104.212
 20
258.056
 11
-104.129
 21
258.266
  0
LINE
  8
0
 10
-104.129
 20
258.266
 11
-104.02
 21
258.464
  0
LINE
  8
0
 10
-104.02
 20
258.464
 11
-103.887
 21
258.647
  0
LINE
  8
0
 10
-103.887
 20
258.647
 11
-103.732
 21
258.812
  0
LINE
  8
0
 10
-103.732
 20
258.812
 11
-103.558
 21
258.956
  0
LINE
  8
0
 10
-103.558
 20
258.956
 11
-103.367
 21
259.077
  0
LINE
  8
0
 10
-103.367
 20
259.077
 11
-103.163
 21
259.174
  0
LINE
  8
0
 10
-103.163
 20
259.174
 11
-102.948
 21
259.243
  0
LINE
  8
0
 10
-102.948
 20
259.243
 11
-102.726
 21
259.286
  0
LINE
  8
0
 10
-102.726
 20
259.286
 11
-102.5
 21
259.3
  0
LINE
  8
0
 10
-102.5
 20
259.3
 11
-102.274
 21
259.286
  0
LINE
  8
0
 10
-102.274
 20
259.286
 11
-102.052
 21
259.243
  0
LINE
  8
0
 10
-102.052
 20
259.243
 11
-101.837
 21
259.174
  0
LINE
  8
0
 10
-101.837
 20
259.174
 11
-101.633
 21
259.077
  0
LINE
  8
0
 10
-101.633
 20
259.077
 11
-101.442
 21
258.956
  0
LINE
  8
0
 10
-101.442
 20
258.956
 11
-101.268
 21
258.812
  0
LINE
  8
0
 10
-101.268
 20
258.812
 11
-101.113
 21
258.647
  0
LINE
  8
0
 10
-101.113
 20
258.647
 11
-100.98
 21
258.464
  0
LINE
  8
0
 10
-100.98
 20
258.464
 11
-100.871
 21
258.266
  0
LINE
  8
0
 10
-100.871
 20
258.266
 11
-100.788
 21
258.056
  0
LINE
  8
0
 10
-100.788
 20
258.056
 11
-100.732
 21
257.837
  0
LINE
  8
0
 10
-100.732
 20
257.837
 11
-100.704
 21
257.613
  0
LINE
  8
0
 10
-100.704
 20
257.613
 11
-100.704
 21
257.387
  0
LINE
  8
0
 10
-100.704
 20
257.387
 11
-100.732
 21
257.163
  0
LINE
  8
0
 10
-100.732
 20
257.163
 11
-100.788
 21
256.944
  0
LINE
  8
0
 10
-100.788
 20
256.944
 11
-100.871
 21
256.734
  0
LINE
  8
0
 10
-100.871
 20
256.734
 11
-100.98
 21
256.536
  0
LINE
  8
0
 10
-100.98
 20
256.536
 11
-101.113
 21
256.353
  0
LINE
  8
0
 10
-101.113
 20
256.353
 11
-101.268
 21
256.188
  0
LINE
  8
0
 10
-101.268
 20
256.188
 11
-101.442
 21
256.044
  0
LINE
  8
0
 10
-101.442
 20
256.044
 11
-101.633
 21
255.923
  0
LINE
  8
0
 10
-101.633
 20
255.923
 11
-101.837
 21
255.826
  0
LINE
  8
0
 10
-101.837
 20
255.826
 11
-102.052
 21
255.757
  0
LINE
  8
0
 10
-102.052
 20
255.757
 11
-102.274
 21
255.714
  0
LINE
  8
0
 10
-102.274
 20
255.714
 11
-102.5
 21
255.7
  0
LINE
  8
0
 10
-102.5
 20
255.7
 11
-102.726
 21
255.714
  0
LINE
  8
0
 10
-102.726
 20
240.714
 11
-102.948
 21
240.757
  0
LINE
  8
0
 10
-102.948
 20
240.757
 11
-103.163
 21
240.826
  0
LINE
  8
0
 10
-103.163
 20
240.826
 11
-103.367
 21
240.923
  0
LINE
  8
0
 10
-103.367
 20
240.923
 11
-103.558
 21
241.044
  0
LINE
  8
0
 10
-103.558
 20
241.044
 11
-103.732
 21
241.188
  0
LINE
  8
0
 10
-103.732
 20
241.188
 11
-103.887
 21
241.353
  0
LINE
  8
0
 10
-103.887
 20
241.353
 11
-104.02
 21
241.536
  0
LINE
  8
0
 10
-104.02
 20
241.536
 11
-104.129
 21
241.734
  0
LINE
  8
0
 10
-104.129
 20
241.734
 11
-104.212
 21
241.944
  0
LINE
  8
0
 10
-104.212
 20
241.944
 11
-104.268
 21
242.163
  0
LINE
  8
0
 10
-104.268
 20
242.163
 11
-104.296
 21
242.387
  0
LINE
  8
0
 10
-104.296
 20
242.387
 11
-104.296
 21
242.613
  0
LINE
  8
0
 10
-104.296
 20
242.613
 11
-104.268
 21
242.837
  0
LINE
  8
0
 10
-104.268
 20
242.837
 11
-104.212
 21
243.056
  0
LINE
  8
0
 10
-104.212
 20
243.056
 11
-104.129
 21
243.266
  0
LINE
  8
0
 10
-104.129
 20
243.266
 11
-104.02
 21
243.464
  0
LINE
  8
0
 10
-104.02
 20
243.464
 11
-103.887
 21
243.647
  0
LINE
  8
0
 10
-103.887
 20
243.647
 11
-103.732
 21
243.812
  0
LINE
  8
0
 10
-103.732
 20
243.812
 11
-103.558
 21
243.956
  0
LINE
  8
0
 10
-103.558
 20
243.956
 11
-103.367
 21
244.077
  0
LINE
  8
0
 10
-103.367
 20
244.077
 11
-103.163
 21
244.174
  0
LINE
  8
0
 10
-103.163
 20
244.174
 11
-102.948
 21
244.243
  0
LINE
  8
0
 10
-102.948
 20
244.243
 11
-102.726
 21
244.286
  0
LINE
  8
0
 10
-102.726
 20
244.286
 11
-102.5
 21
244.3
  0
LINE
  8
0
 10
-102.5
 20
244.3
 11
-102.274
 21
244.286
  0
LINE
  8
0
 10
-102.274
 20
244.286
 11
-102.052
 21
244.243
  0
LINE
  8
0
 10
-102.052
 20
244.243
 11
-101.837
 21
244.174
  0
LINE
  8
0
 10
-101.837
 20
244.174
 11
-101.633
 21
244.077
  0
LINE
  8
0
 10
-101.633
 20
244.077
 11
-101.442
 21
243.956
  0
LINE
  8
0
 10
-101.442
 20
243.956
 11
-101.268
 21
243.812
  0
LINE
  8
0
 10
-101.268
 20
243.812
 11
-101.113
 21
243.647
  0
LINE
  8
0
 10
-101.113
 20
243.647
 11
-100.98
 21
243.464
  0
LINE
  8
0
 10
-100.98
 20
243.464
 11
-100.871
 21
243.266
  0
LINE
  8
0
 10
-100.871
 20
243.266
 11
-100.788
 21
243.056
  0
LINE
  8
0
 10
-100.788
 20
243.056
 11
-100.732
 21
242.837
  0
LINE
  8
0
 10
-100.732
 20
242.837
 11
-100.704
 21
242.613
  0
LINE
  8
0
 10
-100.704
 20
242.613
 11
-100.704
 21
242.387
  0
LINE
  8
0
 10
-100.704
 20
242.387
 11
-100.732
 21
242.163
  0
LINE
  8
0
 10
-100.732
 20
242.163
 11
-100.788
 21
241.944
  0
LINE
  8
0
 10
-100.788
 20
241.944
 11
-100.871
 21
241.734
  0
LINE
  8
0
 10
-100.871
 20
241.734
 11
-100.98
 21
241.536
  0
LINE
  8
0
 10
-100.98
 20
241.536
 11
-101.113
 21
241.353
  0
LINE
  8
0
 10
-101.113
 20
241.353
 11
-101.268
 21
241.188
  0
LINE
  8
0
 10
-101.268
 20
241.188
 11
-101.442
 21
241.044
  0
LINE
  8
0
 10
-101.442
 20
241.044
 11
-101.633
 21
240.923
  0
LINE
  8
0
 10
-101.633
 20
240.923
 11
-101.837
 21
240.826
  0
LINE
  8
0
 10
-101.837
 20
240.826
 11
-102.052
 21
240.757
  0
LINE
  8
0
 10
-102.052
 20
240.757
 11
-102.274
 21
240.714
  0
LINE
  8
0
 10
-102.274
 20
240.714
 11
-102.5
 21
240.7
  0
LINE
  8
0
 10
-102.5
 20
240.7
 11
-102.726
 21
240.714
  0
LINE
  8
0
 10
-102.726
 20
225.714
 11
-102.948
 21
225.757
  0
LINE
  8
0
 10
-102.948
 20
225.757
 11
-103.163
 21
225.826
  0
LINE
  8
0
 10
-103.163
 20
225.826
 11
-103.367
 21
225.923
  0
LINE
  8
0
 10
-103.367
 20
225.923
 11
-103.558
 21
226.044
  0
LINE
  8
0
 10
-103.558
 20
226.044
 11
-103.732
 21
226.188
  0
LINE
  8
0
 10
-103.732
 20
226.188
 11
-103.887
 21
226.353
  0
LINE
  8
0
 10
-103.887
 20
226.353
 11
-104.02
 21
226.536
  0
LINE
  8
0
 10
-104.02
 20
226.536
 11
-104.129
 21
226.734
  0
LINE
  8
0
 10
-104.129
 20
226.734
 11
-104.212
 21
226.944
  0
LINE
  8
0
 10
-104.212
 20
226.944
 11
-104.268
 21
227.163
  0
LINE
  8
0
 10
-104.268
 20
227.163
 11
-104.296
 21
227.387
  0
LINE
  8
0
 10
-104.296
 20
227.387
 11
-104.296
 21
227.613
  0
LINE
  8
0
 10
-104.296
 20
227.613
 11
-104.268
 21
227.837
  0
LINE
  8
0
 10
-104.268
 20
227.837
 11
-104.212
 21
228.056
  0
LINE
  8
0
 10
-104.212
 20
228.056
 11
-104.129
 21
228.266
  0
LINE
  8
0
 10
-104.129
 20
228.266
 11
-104.02
 21
228.464
  0
LINE
  8
0
 10
-104.02
 20
228.464
 11
-103.887
 21
228.647
  0
LINE
  8
0
 10
-103.887
 20
228.647
 11
-103.732
 21
228.812
  0
LINE
  8
0
 10
-103.732
 20
228.812
 11
-103.558
 21
228.956
  0
LINE
  8
0
 10
-103.558
 20
228.956
 11
-103.367
 21
229.077
  0
LINE
  8
0
 10
-103.367
 20
229.077
 11
-103.163
 21
229.174
  0
LINE
  8
0
 10
-103.163
 20
229.174
 11
-102.948
 21
229.243
  0
LINE
  8
0
 10
-102.948
 20
229.243
 11
-102.726
 21
229.286
  0
LINE
  8
0
 10
-102.726
 20
229.286
 11
-102.5
 21
229.3
  0
LINE
  8
0
 10
-102.5
 20
229.3
 11
-102.274
 21
229.286
  0
LINE
  8
0
 10
-102.274
 20
229.286
 11
-102.052
 21
229.243
  0
LINE
  8
0
 10
-102.052
 20
229.243
 11
-101.837
 21
229.174
  0
LINE
  8
0
 10
-101.837
 20
229.174
 11
-101.633
 21
229.077
  0
LINE
  8
0
 10
-101.633
 20
229.077
 11
-101.442
 21
228.956
  0
LINE
  8
0
 10
-101.442
 20
228.956
 11
-101.268
 21
228.812
  0
LINE
  8
0
 10
-101.268
 20
228.812
 11
-101.113
 21
228.647
  0
LINE
  8
0
 10
-101.113
 20
228.647
 11
-100.98
 21
228.464
  0
LINE
  8
0
 10
-100.98
 20
228.464
 11
-100.871
 21
228.266
  0
LINE
  8
0
 10
-100.871
 20
228.266
 11
-100.788
 21
228.056
  0
LINE
  8
0
 10
-100.788
 20
228.056
 11
-100.732
 21
227.837
  0
LINE
  8
0
 10
-100.732
 20
227.837
 11
-100.704
 21
227.613
  0
LINE
  8
0
 10
-100.704
 20
227.613
 11
-100.704
 21
227.387
  0
LINE
  8
0
 10
-100.704
 20
227.387
 11
-100.732
 21
227.163
  0
LINE
  8
0
 10
-100.732
 20
227.163
 11
-100.788
 21
226.944
  0
LINE
  8
0
 10
-100.788
 20
226.944
 11
-100.871
 21
226.734
  0
LINE
  8
0
 10
-100.871
 20
226.734
 11
-100.98
 21
226.536
  0
LINE
  8
0
 10
-100.98
 20
226.536
 11
-101.113
 21
226.353
  0
LINE
  8
0
 10
-101.113
 20
226.353
 11
-101.268
 21
226.188
  0
LINE
  8
0
 10
-101.268
 20
226.188
 11
-101.442
 21
226.044
  0
LINE
  8
0
 10
-101.442
 20
226.044
 11
-101.633
 21
225.923
  0
LINE
  8
0
 10
-101.633
 20
225.923
 11
-101.837
 21
225.826
  0
LINE
  8
0
 10
-101.837
 20
225.826
 11
-102.052
 21
225.757
  0
LINE
  8
0
 10
-102.052
 20
225.757
 11
-102.274
 21
225.714
  0
LINE
  8
0
 10
-102.274
 20
225.714
 11
-102.5
 21
225.7
  0
LINE
  8
0
 10
-102.5
 20
225.7
 11
-102.726
 21
225.714
  0
LINE
  8
0
 10
-102.726
 20
-397.786
 11
-102.948
 21
-397.743
  0
LINE
  8
0
 10
-102.948
 20
-397.743
 11
-103.163
 21
-397.674
  0
LINE
  8
0
 10
-103.163
 20
-397.674
 11
-103.367
 21
-397.577
  0
LINE
  8
0
 10
-103.367
 20
-397.577
 11
-103.558
 21
-397.456
  0
LINE
  8
0
 10
-103.558
 20
-397.456
 11
-103.732
 21
-397.312
  0
LINE
  8
0
 10
-103.732
 20
-397.312
 11
-103.887
 21
-397.147
  0
LINE
  8
0
 10
-103.887
 20
-397.147
 11
-104.02
 21
-396.964
  0
LINE
  8
0
 10
-104.02
 20
-396.964
 11
-104.129
 21
-396.766
  0
LINE
  8
0
 10
-104.129
 20
-396.766
 11
-104.212
 21
-396.556
  0
LINE
  8
0
 10
-104.212
 20
-396.556
 11
-104.268
 21
-396.337
  0
LINE
  8
0
 10
-104.268
 20
-396.337
 11
-104.296
 21
-396.113
  0
LINE
  8
0
 10
-104.296
 20
-396.113
 11
-104.296
 21
-395.887
  0
LINE
  8
0
 10
-104.296
 20
-395.887
 11
-104.268
 21
-395.663
  0
LINE
  8
0
 10
-104.268
 20
-395.663
 11
-104.212
 21
-395.444
  0
LINE
  8
0
 10
-104.212
 20
-395.444
 11
-104.129
 21
-395.234
  0
LINE
  8
0
 10
-104.129
 20
-395.234
 11
-104.02
 21
-395.036
  0
LINE
  8
0
 10
-104.02
 20
-395.036
 11
-103.887
 21
-394.853
  0
LINE
  8
0
 10
-103.887
 20
-394.853
 11
-103.732
 21
-394.688
  0
LINE
  8
0
 10
-103.732
 20
-394.688
 11
-103.558
 21
-394.544
  0
LINE
  8
0
 10
-103.558
 20
-394.544
 11
-103.367
 21
-394.423
  0
LINE
  8
0
 10
-103.367
 20
-394.423
 11
-103.163
 21
-394.326
  0
LINE
  8
0
 10
-103.163
 20
-394.326
 11
-102.948
 21
-394.257
  0
LINE
  8
0
 10
-102.948
 20
-394.257
 11
-102.726
 21
-394.214
  0
LINE
  8
0
 10
-102.726
 20
-394.214
 11
-102.5
 21
-394.2
  0
LINE
  8
0
 10
-102.5
 20
-394.2
 11
-102.274
 21
-394.214
  0
LINE
  8
0
 10
-102.274
 20
-394.214
 11
-102.052
 21
-394.257
  0
LINE
  8
0
 10
-102.052
 20
-394.257
 11
-101.837
 21
-394.326
  0
LINE
  8
0
 10
-101.837
 20
-394.326
 11
-101.633
 21
-394.423
  0
LINE
  8
0
 10
-101.633
 20
-394.423
 11
-101.442
 21
-394.544
  0
LINE
  8
0
 10
-101.442
 20
-394.544
 11
-101.268
 21
-394.688
  0
LINE
  8
0
 10
-101.268
 20
-394.688
 11
-101.113
 21
-394.853
  0
LINE
  8
0
 10
-101.113
 20
-394.853
 11
-100.98
 21
-395.036
  0
LINE
  8
0
 10
-100.98
 20
-395.036
 11
-100.871
 21
-395.234
  0
LINE
  8
0
 10
-100.871
 20
-395.234
 11
-100.788
 21
-395.444
  0
LINE
  8
0
 10
-100.788
 20
-395.444
 11
-100.732
 21
-395.663
  0
LINE
  8
0
 10
-100.732
 20
-395.663
 11
-100.704
 21
-395.887
  0
LINE
  8
0
 10
-100.704
 20
-395.887
 11
-100.704
 21
-396.113
  0
LINE
  8
0
 10
-100.704
 20
-396.113
 11
-100.732
 21
-396.337
  0
LINE
  8
0
 10
-100.732
 20
-396.337
 11
-100.788
 21
-396.556
  0
LINE
  8
0
 10
-100.788
 20
-396.556
 11
-100.871
 21
-396.766
  0
LINE
  8
0
 10
-100.871
 20
-396.766
 11
-100.98
 21
-396.964
  0
LINE
  8
0
 10
-100.98
 20
-396.964
 11
-101.113
 21
-397.147
  0
LINE
  8
0
 10
-101.113
 20
-397.147
 11
-101.268
 21
-397.312
  0
LINE
  8
0
 10
-101.268
 20
-397.312
 11
-101.442
 21
-397.456
  0
LINE
  8
0
 10
-101.442
 20
-397.456
 11
-101.633
 21
-397.577
  0
LINE
  8
0
 10
-101.633
 20
-397.577
 11
-101.837
 21
-397.674
  0
LINE
  8
0
 10
-101.837
 20
-397.674
 11
-102.052
 21
-397.743
  0
LINE
  8
0
 10
-102.052
 20
-397.743
 11
-102.274
 21
-397.786
  0
LINE
  8
0
 10
-102.274
 20
-397.786
 11
-102.5
 21
-397.8
  0
LINE
  8
0
 10
-102.5
 20
-397.8
 11
-102.726
 21
-397.786
  0
LINE
  8
0
 10
-86.7256
 20
-417.786
 11
-86.9476
 21
-417.743
  0
LINE
  8
0
 10
-86.9476
 20
-417.743
 11
-87.1626
 21
-417.674
  0
LINE
  8
0
 10
-87.1626
 20
-417.674
 11
-87.3672
 21
-417.577
  0
LINE
  8
0
 10
-87.3672
 20
-417.577
 11
-87.558
 21
-417.456
  0
LINE
  8
0
 10
-87.558
 20
-417.456
 11
-87.7322
 21
-417.312
  0
LINE
  8
0
 10
-87.7322
 20
-417.312
 11
-87.8869
 21
-417.147
  0
LINE
  8
0
 10
-87.8869
 20
-417.147
 11
-88.0198
 21
-416.964
  0
LINE
  8
0
 10
-88.0198
 20
-416.964
 11
-88.1287
 21
-416.766
  0
LINE
  8
0
 10
-88.1287
 20
-416.766
 11
-88.2119
 21
-416.556
  0
LINE
  8
0
 10
-88.2119
 20
-416.556
 11
-88.2681
 21
-416.337
  0
LINE
  8
0
 10
-88.2681
 20
-416.337
 11
-88.2964
 21
-416.113
  0
LINE
  8
0
 10
-88.2964
 20
-416.113
 11
-88.2964
 21
-415.887
  0
LINE
  8
0
 10
-88.2964
 20
-415.887
 11
-88.2681
 21
-415.663
  0
LINE
  8
0
 10
-88.2681
 20
-415.663
 11
-88.2119
 21
-415.444
  0
LINE
  8
0
 10
-88.2119
 20
-415.444
 11
-88.1287
 21
-415.234
  0
LINE
  8
0
 10
-88.1287
 20
-415.234
 11
-88.0198
 21
-415.036
  0
LINE
  8
0
 10
-88.0198
 20
-415.036
 11
-87.8869
 21
-414.853
  0
LINE
  8
0
 10
-87.8869
 20
-414.853
 11
-87.7322
 21
-414.688
  0
LINE
  8
0
 10
-87.7322
 20
-414.688
 11
-87.558
 21
-414.544
  0
LINE
  8
0
 10
-87.558
 20
-414.544
 11
-87.3672
 21
-414.423
  0
LINE
  8
0
 10
-87.3672
 20
-414.423
 11
-87.1626
 21
-414.326
  0
LINE
  8
0
 10
-87.1626
 20
-414.326
 11
-86.9476
 21
-414.257
  0
LINE
  8
0
 10
-86.9476
 20
-414.257
 11
-86.7256
 21
-414.214
  0
LINE
  8
0
 10
-86.7256
 20
-414.214
 11
-86.5
 21
-414.2
  0
LINE
  8
0
 10
-86.5
 20
-414.2
 11
-86.2744
 21
-414.214
  0
LINE
  8
0
 10
-86.2744
 20
-414.214
 11
-86.0524
 21
-414.257
  0
LINE
  8
0
 10
-86.0524
 20
-414.257
 11
-85.8374
 21
-414.326
  0
LINE
  8
0
 10
-85.8374
 20
-414.326
 11
-85.6328
 21
-414.423
  0
LINE
  8
0
 10
-85.6328
 20
-414.423
 11
-85.442
 21
-414.544
  0
LINE
  8
0
 10
-85.442
 20
-414.544
 11
-85.2678
 21
-414.688
  0
LINE
  8
0
 10
-85.2678
 20
-414.688
 11
-85.1131
 21
-414.853
  0
LINE
  8
0
 10
-85.1131
 20
-414.853
 11
-84.9802
 21
-415.036
  0
LINE
  8
0
 10
-84.9802
 20
-415.036
 11
-84.8713
 21
-415.234
  0
LINE
  8
0
 10
-84.8713
 20
-415.234
 11
-84.7881
 21
-415.444
  0
LINE
  8
0
 10
-84.7881
 20
-415.444
 11
-84.7319
 21
-415.663
  0
LINE
  8
0
 10
-84.7319
 20
-415.663
 11
-84.7036
 21
-415.887
  0
LINE
  8
0
 10
-84.7036
 20
-415.887
 11
-84.7036
 21
-416.113
  0
LINE
  8
0
 10
-84.7036
 20
-416.113
 11
-84.7319
 21
-416.337
  0
LINE
  8
0
 10
-84.7319
 20
-416.337
 11
-84.7881
 21
-416.556
  0
LINE
  8
0
 10
-84.7881
 20
-416.556
 11
-84.8713
 21
-416.766
  0
LINE
  8
0
 10
-84.8713
 20
-416.766
 11
-84.9802
 21
-416.964
  0
LINE
  8
0
 10
-84.9802
 20
-416.964
 11
-85.1131
 21
-417.147
  0
LINE
  8
0
 10
-85.1131
 20
-417.147
 11
-85.2678
 21
-417.312
  0
LINE
  8
0
 10
-85.2678
 20
-417.312
 11
-85.442
 21
-417.456
  0
LINE
  8
0
 10
-85.442
 20
-417.456
 11
-85.6328
 21
-417.577
  0
LINE
  8
0
 10
-85.6328
 20
-417.577
 11
-85.8374
 21
-417.674
  0
LINE
  8
0
 10
-85.8374
 20
-417.674
 11
-86.0524
 21
-417.743
  0
LINE
  8
0
 10
-86.0524
 20
-417.743
 11
-86.2744
 21
-417.786
  0
LINE
  8
0
 10
-86.2744
 20
-417.786
 11
-86.5
 21
-417.8
  0
LINE
  8
0
 10
-86.5
 20
-417.8
 11
-86.7256
 21
-417.786
  0
LINE
  8
0
 10
-102.726
 20
-437.786
 11
-102.948
 21
-437.743
  0
LINE
  8
0
 10
-102.948
 20
-437.743
 11
-103.163
 21
-437.674
  0
LINE
  8
0
 10
-103.163
 20
-437.674
 11
-103.367
 21
-437.577
  0
LINE
  8
0
 10
-103.367
 20
-437.577
 11
-103.558
 21
-437.456
  0
LINE
  8
0
 10
-103.558
 20
-437.456
 11
-103.732
 21
-437.312
  0
LINE
  8
0
 10
-103.732
 20
-437.312
 11
-103.887
 21
-437.147
  0
LINE
  8
0
 10
-103.887
 20
-437.147
 11
-104.02
 21
-436.964
  0
LINE
  8
0
 10
-104.02
 20
-436.964
 11
-104.129
 21
-436.766
  0
LINE
  8
0
 10
-104.129
 20
-436.766
 11
-104.212
 21
-436.556
  0
LINE
  8
0
 10
-104.212
 20
-436.556
 11
-104.268
 21
-436.337
  0
LINE
  8
0
 10
-104.268
 20
-436.337
 11
-104.296
 21
-436.113
  0
LINE
  8
0
 10
-104.296
 20
-436.113
 11
-104.296
 21
-435.887
  0
LINE
  8
0
 10
-104.296
 20
-435.887
 11
-104.268
 21
-435.663
  0
LINE
  8
0
 10
-104.268
 20
-435.663
 11
-104.212
 21
-435.444
  0
LINE
  8
0
 10
-104.212
 20
-435.444
 11
-104.129
 21
-435.234
  0
LINE
  8
0
 10
-104.129
 20
-435.234
 11
-104.02
 21
-435.036
  0
LINE
  8
0
 10
-104.02
 20
-435.036
 11
-103.887
 21
-434.853
  0
LINE
  8
0
 10
-103.887
 20
-434.853
 11
-103.732
 21
-434.688
  0
LINE
  8
0
 10
-103.732
 20
-434.688
 11
-103.558
 21
-434.544
  0
LINE
  8
0
 10
-103.558
 20
-434.544
 11
-103.367
 21
-434.423
  0
LINE
  8
0
 10
-103.367
 20
-434.423
 11
-103.163
 21
-434.326
  0
LINE
  8
0
 10
-103.163
 20
-434.326
 11
-102.948
 21
-434.257
  0
LINE
  8
0
 10
-102.948
 20
-434.257
 11
-102.726
 21
-434.214
  0
LINE
  8
0
 10
-102.726
 20
-434.214
 11
-102.5
 21
-434.2
  0
LINE
  8
0
 10
-102.5
 20
-434.2
 11
-102.274
 21
-434.214
  0
LINE
  8
0
 10
-102.274
 20
-434.214
 11
-102.052
 21
-434.257
  0
LINE
  8
0
 10
-102.052
 20
-434.257
 11
-101.837
 21
-434.326
  0
LINE
  8
0
 10
-101.837
 20
-434.326
 11
-101.633
 21
-434.423
  0
LINE
  8
0
 10
-101.633
 20
-434.423
 11
-101.442
 21
-434.544
  0
LINE
  8
0
 10
-101.442
 20
-434.544
 11
-101.268
 21
-434.688
  0
LINE
  8
0
 10
-101.268
 20
-434.688
 11
-101.113
 21
-434.853
  0
LINE
  8
0
 10
-101.113
 20
-434.853
 11
-100.98
 21
-435.036
  0
LINE
  8
0
 10
-100.98
 20
-435.036
 11
-100.871
 21
-435.234
  0
LINE
  8
0
 10
-100.871
 20
-435.234
 11
-100.788
 21
-435.444
  0
LINE
  8
0
 10
-100.788
 20
-435.444
 11
-100.732
 21
-435.663
  0
LINE
  8
0
 10
-100.732
 20
-435.663
 11
-100.704
 21
-435.887
  0
LINE
  8
0
 10
-100.704
 20
-435.887
 11
-100.704
 21
-436.113
  0
LINE
  8
0
 10
-100.704
 20
-436.113
 11
-100.732
 21
-436.337
  0
LINE
  8
0
 10
-100.732
 20
-436.337
 11
-100.788
 21
-436.556
  0
LINE
  8
0
 10
-100.788
 20
-436.556
 11
-100.871
 21
-436.766
  0
LINE
  8
0
 10
-100.871
 20
-436.766
 11
-100.98
 21
-436.964
  0
LINE
  8
0
 10
-100.98
 20
-436.964
 11
-101.113
 21
-437.147
  0
LINE
  8
0
 10
-101.113
 20
-437.147
 11
-101.268
 21
-437.312
  0
LINE
  8
0
 10
-101.268
 20
-437.312
 11
-101.442
 21
-437.456
  0
LINE
  8
0
 10
-101.442
 20
-437.456
 11
-101.633
 21
-437.577
  0
LINE
  8
0
 10
-101.633
 20
-437.577
 11
-101.837
 21
-437.674
  0
LINE
  8
0
 10
-101.837
 20
-437.674
 11
-102.052
 21
-437.743
  0
LINE
  8
0
 10
-102.052
 20
-437.743
 11
-102.274
 21
-437.786
  0
LINE
  8
0
 10
-102.274
 20
-437.786
 11
-102.5
 21
-437.8
  0
LINE
  8
0
 10
-102.5
 20
-437.8
 11
-102.726
 21
-437.786
  0
LINE
  8
0
 10
-84.7256
 20
-457.786
 11
-84.9476
 21
-457.743
  0
LINE
  8
0
 10
-84.9476
 20
-457.743
 11
-85.1626
 21
-457.674
  0
LINE
  8
0
 10
-85.1626
 20
-457.674
 11
-85.3672
 21
-457.577
  0
LINE
  8
0
 10
-85.3672
 20
-457.577
 11
-85.558
 21
-457.456
  0
LINE
  8
0
 10
-85.558
 20
-457.456
 11
-85.7322
 21
-457.312
  0
LINE
  8
0
 10
-85.7322
 20
-457.312
 11
-85.8869
 21
-457.147
  0
LINE
  8
0
 10
-85.8869
 20
-457.147
 11
-86.0198
 21
-456.964
  0
LINE
  8
0
 10
-86.0198
 20
-456.964
 11
-86.1287
 21
-456.766
  0
LINE
  8
0
 10
-86.1287
 20
-456.766
 11
-86.2119
 21
-456.556
  0
LINE
  8
0
 10
-86.2119
 20
-456.556
 11
-86.2681
 21
-456.337
  0
LINE
  8
0
 10
-86.2681
 20
-456.337
 11
-86.2964
 21
-456.113
  0
LINE
  8
0
 10
-86.2964
 20
-456.113
 11
-86.2964
 21
-455.887
  0
LINE
  8
0
 10
-86.2964
 20
-455.887
 11
-86.2681
 21
-455.663
  0
LINE
  8
0
 10
-86.2681
 20
-455.663
 11
-86.2119
 21
-455.444
  0
LINE
  8
0
 10
-86.2119
 20
-455.444
 11
-86.1287
 21
-455.234
  0
LINE
  8
0
 10
-86.1287
 20
-455.234
 11
-86.0198
 21
-455.036
  0
LINE
  8
0
 10
-86.0198
 20
-455.036
 11
-85.8869
 21
-454.853
  0
LINE
  8
0
 10
-85.8869
 20
-454.853
 11
-85.7322
 21
-454.688
  0
LINE
  8
0
 10
-85.7322
 20
-454.688
 11
-85.558
 21
-454.544
  0
LINE
  8
0
 10
-85.558
 20
-454.544
 11
-85.3672
 21
-454.423
  0
LINE
  8
0
 10
-85.3672
 20
-454.423
 11
-85.1626
 21
-454.326
  0
LINE
  8
0
 10
-85.1626
 20
-454.326
 11
-84.9476
 21
-454.257
  0
LINE
  8
0
 10
-84.9476
 20
-454.257
 11
-84.7256
 21
-454.214
  0
LINE
  8
0
 10
-84.7256
 20
-454.214
 11
-84.5
 21
-454.2
  0
LINE
  8
0
 10
-84.5
 20
-454.2
 11
-84.2744
 21
-454.214
  0
LINE
  8
0
 10
-84.2744
 20
-454.214
 11
-84.0524
 21
-454.257
  0
LINE
  8
0
 10
-84.0524
 20
-454.257
 11
-83.8374
 21
-454.326
  0
LINE
  8
0
 10
-83.8374
 20
-454.326
 11
-83.6328
 21
-454.423
  0
LINE
  8
0
 10
-83.6328
 20
-454.423
 11
-83.442
 21
-454.544
  0
LINE
  8
0
 10
-83.442
 20
-454.544
 11
-83.2678
 21
-454.688
  0
LINE
  8
0
 10
-83.2678
 20
-454.688
 11
-83.1131
 21
-454.853
  0
LINE
  8
0
 10
-83.1131
 20
-454.853
 11
-82.9802
 21
-455.036
  0
LINE
  8
0
 10
-82.9802
 20
-455.036
 11
-82.8713
 21
-455.234
  0
LINE
  8
0
 10
-82.8713
 20
-455.234
 11
-82.7881
 21
-455.444
  0
LINE
  8
0
 10
-82.7881
 20
-455.444
 11
-82.7319
 21
-455.663
  0
LINE
  8
0
 10
-82.7319
 20
-455.663
 11
-82.7036
 21
-455.887
  0
LINE
  8
0
 10
-82.7036
 20
-455.887
 11
-82.7036
 21
-456.113
  0
LINE
  8
0
 10
-82.7036
 20
-456.113
 11
-82.7319
 21
-456.337
  0
LINE
  8
0
 10
-82.7319
 20
-456.337
 11
-82.7881
 21
-456.556
  0
LINE
  8
0
 10
-82.7881
 20
-456.556
 11
-82.8713
 21
-456.766
  0
LINE
  8
0
 10
-82.8713
 20
-456.766
 11
-82.9802
 21
-456.964
  0
LINE
  8
0
 10
-82.9802
 20
-456.964
 11
-83.1131
 21
-457.147
  0
LINE
  8
0
 10
-83.1131
 20
-457.147
 11
-83.2678
 21
-457.312
  0
LINE
  8
0
 10
-83.2678
 20
-457.312
 11
-83.442
 21
-457.456
  0
LINE
  8
0
 10
-83.442
 20
-457.456
 11
-83.6328
 21
-457.577
  0
LINE
  8
0
 10
-83.6328
 20
-457.577
 11
-83.8374
 21
-457.674
  0
LINE
  8
0
 10
-83.8374
 20
-457.674
 11
-84.0524
 21
-457.743
  0
LINE
  8
0
 10
-84.0524
 20
-457.743
 11
-84.2744
 21
-457.786
  0
LINE
  8
0
 10
-84.2744
 20
-457.786
 11
-84.5
 21
-457.8
  0
LINE
  8
0
 10
-84.5
 20
-457.8
 11
-84.7256
 21
-457.786
  0
LINE
  8
0
 10
-102.726
 20
-477.786
 11
-102.948
 21
-477.743
  0
LINE
  8
0
 10
-102.948
 20
-477.743
 11
-103.163
 21
-477.674
  0
LINE
  8
0
 10
-103.163
 20
-477.674
 11
-103.367
 21
-477.577
  0
LINE
  8
0
 10
-103.367
 20
-477.577
 11
-103.558
 21
-477.456
  0
LINE
  8
0
 10
-103.558
 20
-477.456
 11
-103.732
 21
-477.312
  0
LINE
  8
0
 10
-103.732
 20
-477.312
 11
-103.887
 21
-477.147
  0
LINE
  8
0
 10
-103.887
 20
-477.147
 11
-104.02
 21
-476.964
  0
LINE
  8
0
 10
-104.02
 20
-476.964
 11
-104.129
 21
-476.766
  0
LINE
  8
0
 10
-104.129
 20
-476.766
 11
-104.212
 21
-476.556
  0
LINE
  8
0
 10
-104.212
 20
-476.556
 11
-104.268
 21
-476.337
  0
LINE
  8
0
 10
-104.268
 20
-476.337
 11
-104.296
 21
-476.113
  0
LINE
  8
0
 10
-104.296
 20
-476.113
 11
-104.296
 21
-475.887
  0
LINE
  8
0
 10
-104.296
 20
-475.887
 11
-104.268
 21
-475.663
  0
LINE
  8
0
 10
-104.268
 20
-475.663
 11
-104.212
 21
-475.444
  0
LINE
  8
0
 10
-104.212
 20
-475.444
 11
-104.129
 21
-475.234
  0
LINE
  8
0
 10
-104.129
 20
-475.234
 11
-104.02
 21
-475.036
  0
LINE
  8
0
 10
-104.02
 20
-475.036
 11
-103.887
 21
-474.853
  0
LINE
  8
0
 10
-103.887
 20
-474.853
 11
-103.732
 21
-474.688
  0
LINE
  8
0
 10
-103.732
 20
-474.688
 11
-103.558
 21
-474.544
  0
LINE
  8
0
 10
-103.558
 20
-474.544
 11
-103.367
 21
-474.423
  0
LINE
  8
0
 10
-103.367
 20
-474.423
 11
-103.163
 21
-474.326
  0
LINE
  8
0
 10
-103.163
 20
-474.326
 11
-102.948
 21
-474.257
  0
LINE
  8
0
 10
-102.948
 20
-474.257
 11
-102.726
 21
-474.214
  0
LINE
  8
0
 10
-102.726
 20
-474.214
 11
-102.5
 21
-474.2
  0
LINE
  8
0
 10
-102.5
 20
-474.2
 11
-102.274
 21
-474.214
  0
LINE
  8
0
 10
-102.274
 20
-474.214
 11
-102.052
 21
-474.257
  0
LINE
  8
0
 10
-102.052
 20
-474.257
 11
-101.837
 21
-474.326
  0
LINE
  8
0
 10
-101.837
 20
-474.326
 11
-101.633
 21
-474.423
  0
LINE
  8
0
 10
-101.633
 20
-474.423
 11
-101.442
 21
-474.544
  0
LINE
  8
0
 10
-101.442
 20
-474.544
 11
-101.268
 21
-474.688
  0
LINE
  8
0
 10
-101.268
 20
-474.688
 11
-101.113
 21
-474.853
  0
LINE
  8
0
 10
-101.113
 20
-474.853
 11
-100.98
 21
-475.036
  0
LINE
  8
0
 10
-100.98
 20
-475.036
 11
-100.871
 21
-475.234
  0
LINE
  8
0
 10
-100.871
 20
-475.234
 11
-100.788
 21
-475.444
  0
LINE
  8
0
 10
-100.788
 20
-475.444
 11
-100.732
 21
-475.663
  0
LINE
  8
0
 10
-100.732
 20
-475.663
 11
-100.704
 21
-475.887
  0
LINE
  8
0
 10
-100.704
 20
-475.887
 11
-100.704
 21
-476.113
  0
LINE
  8
0
 10
-100.704
 20
-476.113
 11
-100.732
 21
-476.337
  0
LINE
  8
0
 10
-100.732
 20
-476.337
 11
-100.788
 21
-476.556
  0
LINE
  8
0
 10
-100.788
 20
-476.556
 11
-100.871
 21
-476.766
  0
LINE
  8
0
 10
-100.871
 20
-476.766
 11
-100.98
 21
-476.964
  0
LINE
  8
0
 10
-100.98
 20
-476.964
 11
-101.113
 21
-477.147
  0
LINE
  8
0
 10
-101.113
 20
-477.147
 11
-101.268
 21
-477.312
  0
LINE
  8
0
 10
-101.268
 20
-477.312
 11
-101.442
 21
-477.456
  0
LINE
  8
0
 10
-101.442
 20
-477.456
 11
-101.633
 21
-477.577
  0
LINE
  8
0
 10
-101.633
 20
-477.577
 11
-101.837
 21
-477.674
  0
LINE
  8
0
 10
-101.837
 20
-477.674
 11
-102.052
 21
-477.743
  0
LINE
  8
0
 10
-102.052
 20
-477.743
 11
-102.274
 21
-477.786
  0
LINE
  8
0
 10
-102.274
 20
-477.786
 11
-102.5
 21
-477.8
  0
LINE
  8
0
 10
-102.5
 20
-477.8
 11
-102.726
 21
-477.786
  0
ENDSEC
  0
SECTION
  2
OBJECTS
  0
DICTIONARY
  0
ENDSEC
  0
EOF
