  0
SECTION
  2
BLOCKS
  0
ENDSEC
  0
SECTION
  2
ENTITIES
  0
LINE
  8
0
 10
-115
 20
-485
 11
-65
 21
-485
  0
LINE
  8
0
 10
-65
 20
-485
 11
-65
 21
-372.2
  0
LINE
  8
0
 10
-65
 20
-372.2
 11
-65.1053
 21
-372.121
  0
LINE
  8
0
 10
-65.1053
 20
-372.121
 11
-65.716
 21
-371.671
  0
LINE
  8
0
 10
-65.716
 20
-371.671
 11
-66.7223
 21
-370.943
  0
LINE
  8
0
 10
-66.7223
 20
-370.943
 11
-66.8496
 21
-370.853
  0
LINE
  8
0
 10
-66.8496
 20
-370.853
 11
-67.0733
 21
-370.343
  0
LINE
  8
0
 10
-67.0733
 20
-370.343
 11
-67.0733
 21
485
  0
LINE
  8
0
 10
-67.0733
 20
485
 11
-67.0904
 21
485.049
  0
LINE
  8
0
 10
-67.0904
 20
485.049
 11
-67.0951
 21
485.063
  0
LINE
  8
0
 10
-67.0951
 20
485.063
 11
-67.1088
 21
485.076
  0
LINE
  8
0
 10
-67.1088
 20
485.076
 11
-67.1624
 21
485.128
  0
LINE
  8
0
 10
-67.1624
 20
485.128
 11
-67.2656
 21
485.189
  0
LINE
  8
0
 10
-67.2656
 20
485.189
 11
-67.2806
 21
485.198
  0
LINE
  8
0
 10
-67.2806
 20
485.198
 11
-67.2987
 21
485.206
  0
LINE
  8
0
 10
-67.2987
 20
485.206
 11
-67.4607
 21
485.275
  0
LINE
  8
0
 10
-67.4607
 20
485.275
 11
-67.5294
 21
485.298
  0
LINE
  8
0
 10
-67.5294
 20
485.298
 11
-67.6893
 21
485.35
  0
LINE
  8
0
 10
-67.6893
 20
485.35
 11
-67.7285
 21
485.363
  0
LINE
  8
0
 10
-67.7285
 20
485.363
 11
-67.8107
 21
485.386
  0
LINE
  8
0
 10
-67.8107
 20
485.386
 11
-68.1153
 21
485.47
  0
LINE
  8
0
 10
-68.1153
 20
485.47
 11
-68.3351
 21
485.522
  0
LINE
  8
0
 10
-68.3351
 20
485.522
 11
-68.6766
 21
485.604
  0
LINE
  8
0
 10
-68.6766
 20
485.604
 11
-68.8083
 21
485.633
  0
LINE
  8
0
 10
-68.8083
 20
485.633
 11
-69.2319
 21
485.725
  0
LINE
  8
0
 10
-69.2319
 20
485.725
 11
-69.5377
 21
485.788
  0
LINE
  8
0
 10
-69.5377
 20
485.788
 11
-70.1356
 21
485.902
  0
LINE
  8
0
 10
-70.1356
 20
485.902
 11
-70.9756
 21
486.063
  0
LINE
  8
0
 10
-70.9756
 20
486.063
 11
-71.2571
 21
486.113
  0
LINE
  8
0
 10
-71.2571
 20
486.113
 11
-72.2044
 21
486.275
  0
LINE
  8
0
 10
-72.2044
 20
486.275
 11
-73.5732
 21
486.509
  0
LINE
  8
0
 10
-73.5732
 20
486.509
 11
-73.6366
 21
486.519
  0
LINE
  8
0
 10
-73.6366
 20
486.519
 11
-73.7595
 21
486.539
  0
LINE
  8
0
 10
-73.7595
 20
486.539
 11
-75.2353
 21
486.767
  0
LINE
  8
0
 10
-75.2353
 20
486.767
 11
-76.1436
 21
486.907
  0
LINE
  8
0
 10
-76.1436
 20
486.907
 11
-77.9806
 21
487.172
  0
LINE
  8
0
 10
-77.9806
 20
487.172
 11
-78.9278
 21
487.308
  0
LINE
  8
0
 10
-78.9278
 20
487.308
 11
-81.2871
 21
487.621
  0
LINE
  8
0
 10
-81.2871
 20
487.621
 11
-81.8819
 21
487.698
  0
LINE
  8
0
 10
-81.8819
 20
487.698
 11
-84.3467
 21
487.987
  0
LINE
  8
0
 10
-84.3467
 20
487.987
 11
-84.9593
 21
488.058
  0
LINE
  8
0
 10
-84.9593
 20
488.058
 11
-87.1122
 21
488.279
  0
LINE
  8
0
 10
-87.1122
 20
488.279
 11
-88.1114
 21
488.381
  0
LINE
  8
0
 10
-88.1114
 20
488.381
 11
-89.2097
 21
488.475
  0
LINE
  8
0
 10
-89.2097
 20
488.475
 11
-91.2886
 21
488.653
  0
LINE
  8
0
 10
-91.2886
 20
488.653
 11
-92.9847
 21
488.762
  0
LINE
  8
0
 10
-92.9847
 20
488.762
 11
-94.4408
 21
488.857
  0
LINE
  8
0
 10
-94.4408
 20
488.857
 11
-95.9229
 21
488.915
  0
LINE
  8
0
 10
-95.9229
 20
488.915
 11
-97.5181
 21
488.979
  0
LINE
  8
0
 10
-97.5181
 20
488.979
 11
-99.0158
 21
488.993
  0
LINE
  8
0
 10
-99.0158
 20
488.993
 11
-100.472
 21
489.007
  0
LINE
  8
0
 10
-100.472
 20
489.007
 11
-101.869
 21
488.969
  0
LINE
  8
0
 10
-101.869
 20
488.969
 11
-103.256
 21
488.932
  0
LINE
  8
0
 10
-103.256
 20
488.932
 11
-104.655
 21
488.832
  0
LINE
  8
0
 10
-104.655
 20
488.832
 11
-105.827
 21
488.748
  0
LINE
  8
0
 10
-105.827
 20
488.748
 11
-106.819
 21
488.623
  0
LINE
  8
0
 10
-106.819
 20
488.623
 11
-108.143
 21
488.457
  0
LINE
  8
0
 10
-108.143
 20
488.457
 11
-108.827
 21
488.323
  0
LINE
  8
0
 10
-108.827
 20
488.323
 11
-110.168
 21
488.062
  0
LINE
  8
0
 10
-110.168
 20
488.062
 11
-110.503
 21
487.966
  0
LINE
  8
0
 10
-110.503
 20
487.966
 11
-111.707
 21
487.621
  0
LINE
  8
0
 10
-111.707
 20
487.621
 11
-111.871
 21
487.573
  0
LINE
  8
0
 10
-111.871
 20
487.573
 11
-112.858
 21
487.147
  0
LINE
  8
0
 10
-112.858
 20
487.147
 11
-113.223
 21
486.99
  0
LINE
  8
0
 10
-113.223
 20
486.99
 11
-113.902
 21
486.539
  0
LINE
  8
0
 10
-113.902
 20
486.539
 11
-114.205
 21
486.329
  0
LINE
  8
0
 10
-114.205
 20
486.329
 11
-114.371
 21
486.123
  0
LINE
  8
0
 10
-114.371
 20
486.123
 11
-114.42
 21
486.063
  0
LINE
  8
0
 10
-114.42
 20
486.063
 11
-114.552
 21
485.888
  0
LINE
  8
0
 10
-114.552
 20
485.888
 11
-114.629
 21
485.788
  0
LINE
  8
0
 10
-114.629
 20
485.788
 11
-114.736
 21
485.635
  0
LINE
  8
0
 10
-114.736
 20
485.635
 11
-114.757
 21
485.604
  0
LINE
  8
0
 10
-114.757
 20
485.604
 11
-114.801
 21
485.536
  0
LINE
  8
0
 10
-114.801
 20
485.536
 11
-114.814
 21
485.47
  0
LINE
  8
0
 10
-114.814
 20
485.47
 11
-114.832
 21
485.363
  0
LINE
  8
0
 10
-114.832
 20
485.363
 11
-114.845
 21
485.275
  0
LINE
  8
0
 10
-114.845
 20
485.275
 11
-114.854
 21
485.198
  0
LINE
  8
0
 10
-114.854
 20
485.198
 11
-114.86
 21
485.128
  0
LINE
  8
0
 10
-114.86
 20
485.128
 11
-114.863
 21
485.063
  0
LINE
  8
0
 10
-114.863
 20
485.063
 11
-114.864
 21
485
  0
LINE
  8
0
 10
-114.864
 20
485
 11
-114.864
 21
485
  0
LINE
  8
0
 10
-114.864
 20
485
 11
-114.864
 21
-368.999
  0
LINE
  8
0
 10
-114.864
 20
-368.999
 11
-114.866
 21
-368.999
  0
LINE
  8
0
 10
-114.866
 20
-368.999
 11
-114.966
 21
-370.227
  0
LINE
  8
0
 10
-114.966
 20
-370.227
 11
-115
 21
-370.644
  0
LINE
  8
0
 10
-115
 20
-370.644
 11
-115
 21
-485
  0
LINE
  8
0
 10
-104.296
 20
227.387
 11
-104.296
 21
227.613
  0
LINE
  8
0
 10
-104.296
 20
227.613
 11
-104.268
 21
227.837
  0
LINE
  8
0
 10
-104.268
 20
227.837
 11
-104.212
 21
228.056
  0
LINE
  8
0
 10
-104.212
 20
228.056
 11
-104.129
 21
228.266
  0
LINE
  8
0
 10
-104.129
 20
228.266
 11
-104.02
 21
228.464
  0
LINE
  8
0
 10
-104.02
 20
228.464
 11
-103.887
 21
228.647
  0
LINE
  8
0
 10
-103.887
 20
228.647
 11
-103.732
 21
228.812
  0
LINE
  8
0
 10
-103.732
 20
228.812
 11
-103.558
 21
228.956
  0
LINE
  8
0
 10
-103.558
 20
228.956
 11
-103.367
 21
229.077
  0
LINE
  8
0
 10
-103.367
 20
229.077
 11
-103.163
 21
229.174
  0
LINE
  8
0
 10
-103.163
 20
229.174
 11
-102.948
 21
229.243
  0
LINE
  8
0
 10
-102.948
 20
229.243
 11
-102.726
 21
229.286
  0
LINE
  8
0
 10
-102.726
 20
229.286
 11
-102.5
 21
229.3
  0
LINE
  8
0
 10
-102.5
 20
229.3
 11
-102.274
 21
229.286
  0
LINE
  8
0
 10
-102.274
 20
229.286
 11
-102.052
 21
229.243
  0
LINE
  8
0
 10
-102.052
 20
229.243
 11
-101.837
 21
229.174
  0
LINE
  8
0
 10
-101.837
 20
229.174
 11
-101.633
 21
229.077
  0
LINE
  8
0
 10
-101.633
 20
229.077
 11
-101.442
 21
228.956
  0
LINE
  8
0
 10
-101.442
 20
228.956
 11
-101.268
 21
228.812
  0
LINE
  8
0
 10
-101.268
 20
228.812
 11
-101.113
 21
228.647
  0
LINE
  8
0
 10
-101.113
 20
228.647
 11
-100.98
 21
228.464
  0
LINE
  8
0
 10
-100.98
 20
228.464
 11
-100.871
 21
228.266
  0
LINE
  8
0
 10
-100.871
 20
228.266
 11
-100.788
 21
228.056
  0
LINE
  8
0
 10
-100.788
 20
228.056
 11
-100.732
 21
227.837
  0
LINE
  8
0
 10
-100.732
 20
227.837
 11
-100.704
 21
227.613
  0
LINE
  8
0
 10
-100.704
 20
227.613
 11
-100.704
 21
227.387
  0
LINE
  8
0
 10
-100.704
 20
227.387
 11
-100.732
 21
227.163
  0
LINE
  8
0
 10
-100.732
 20
227.163
 11
-100.788
 21
226.944
  0
LINE
  8
0
 10
-100.788
 20
226.944
 11
-100.871
 21
226.734
  0
LINE
  8
0
 10
-100.871
 20
226.734
 11
-100.98
 21
226.536
  0
LINE
  8
0
 10
-100.98
 20
226.536
 11
-101.113
 21
226.353
  0
LINE
  8
0
 10
-101.113
 20
226.353
 11
-101.268
 21
226.188
  0
LINE
  8
0
 10
-101.268
 20
226.188
 11
-101.442
 21
226.044
  0
LINE
  8
0
 10
-101.442
 20
226.044
 11
-101.633
 21
225.923
  0
LINE
  8
0
 10
-101.633
 20
225.923
 11
-101.837
 21
225.826
  0
LINE
  8
0
 10
-101.837
 20
225.826
 11
-102.052
 21
225.757
  0
LINE
  8
0
 10
-102.052
 20
225.757
 11
-102.274
 21
225.714
  0
LINE
  8
0
 10
-102.274
 20
225.714
 11
-102.5
 21
225.7
  0
LINE
  8
0
 10
-102.5
 20
225.7
 11
-102.726
 21
225.714
  0
LINE
  8
0
 10
-102.726
 20
225.714
 11
-102.948
 21
225.757
  0
LINE
  8
0
 10
-102.948
 20
225.757
 11
-103.163
 21
225.826
  0
LINE
  8
0
 10
-103.163
 20
225.826
 11
-103.367
 21
225.923
  0
LINE
  8
0
 10
-103.367
 20
225.923
 11
-103.558
 21
226.044
  0
LINE
  8
0
 10
-103.558
 20
226.044
 11
-103.732
 21
226.188
  0
LINE
  8
0
 10
-103.732
 20
226.188
 11
-103.887
 21
226.353
  0
LINE
  8
0
 10
-103.887
 20
226.353
 11
-104.02
 21
226.536
  0
LINE
  8
0
 10
-104.02
 20
226.536
 11
-104.129
 21
226.734
  0
LINE
  8
0
 10
-104.129
 20
226.734
 11
-104.212
 21
226.944
  0
LINE
  8
0
 10
-104.212
 20
226.944
 11
-104.268
 21
227.163
  0
LINE
  8
0
 10
-104.268
 20
227.163
 11
-104.296
 21
227.387
  0
LINE
  8
0
 10
-104.296
 20
242.387
 11
-104.296
 21
242.613
  0
LINE
  8
0
 10
-104.296
 20
242.613
 11
-104.268
 21
242.837
  0
LINE
  8
0
 10
-104.268
 20
242.837
 11
-104.212
 21
243.056
  0
LINE
  8
0
 10
-104.212
 20
243.056
 11
-104.129
 21
243.266
  0
LINE
  8
0
 10
-104.129
 20
243.266
 11
-104.02
 21
243.464
  0
LINE
  8
0
 10
-104.02
 20
243.464
 11
-103.887
 21
243.647
  0
LINE
  8
0
 10
-103.887
 20
243.647
 11
-103.732
 21
243.812
  0
LINE
  8
0
 10
-103.732
 20
243.812
 11
-103.558
 21
243.956
  0
LINE
  8
0
 10
-103.558
 20
243.956
 11
-103.367
 21
244.077
  0
LINE
  8
0
 10
-103.367
 20
244.077
 11
-103.163
 21
244.174
  0
LINE
  8
0
 10
-103.163
 20
244.174
 11
-102.948
 21
244.243
  0
LINE
  8
0
 10
-102.948
 20
244.243
 11
-102.726
 21
244.286
  0
LINE
  8
0
 10
-102.726
 20
244.286
 11
-102.5
 21
244.3
  0
LINE
  8
0
 10
-102.5
 20
244.3
 11
-102.274
 21
244.286
  0
LINE
  8
0
 10
-102.274
 20
244.286
 11
-102.052
 21
244.243
  0
LINE
  8
0
 10
-102.052
 20
244.243
 11
-101.837
 21
244.174
  0
LINE
  8
0
 10
-101.837
 20
244.174
 11
-101.633
 21
244.077
  0
LINE
  8
0
 10
-101.633
 20
244.077
 11
-101.442
 21
243.956
  0
LINE
  8
0
 10
-101.442
 20
243.956
 11
-101.268
 21
243.812
  0
LINE
  8
0
 10
-101.268
 20
243.812
 11
-101.113
 21
243.647
  0
LINE
  8
0
 10
-101.113
 20
243.647
 11
-100.98
 21
243.464
  0
LINE
  8
0
 10
-100.98
 20
243.464
 11
-100.871
 21
243.266
  0
LINE
  8
0
 10
-100.871
 20
243.266
 11
-100.788
 21
243.056
  0
LINE
  8
0
 10
-100.788
 20
243.056
 11
-100.732
 21
242.837
  0
LINE
  8
0
 10
-100.732
 20
242.837
 11
-100.704
 21
242.613
  0
LINE
  8
0
 10
-100.704
 20
242.613
 11
-100.704
 21
242.387
  0
LINE
  8
0
 10
-100.704
 20
242.387
 11
-100.732
 21
242.163
  0
LINE
  8
0
 10
-100.732
 20
242.163
 11
-100.788
 21
241.944
  0
LINE
  8
0
 10
-100.788
 20
241.944
 11
-100.871
 21
241.734
  0
LINE
  8
0
 10
-100.871
 20
241.734
 11
-100.98
 21
241.536
  0
LINE
  8
0
 10
-100.98
 20
241.536
 11
-101.113
 21
241.353
  0
LINE
  8
0
 10
-101.113
 20
241.353
 11
-101.268
 21
241.188
  0
LINE
  8
0
 10
-101.268
 20
241.188
 11
-101.442
 21
241.044
  0
LINE
  8
0
 10
-101.442
 20
241.044
 11
-101.633
 21
240.923
  0
LINE
  8
0
 10
-101.633
 20
240.923
 11
-101.837
 21
240.826
  0
LINE
  8
0
 10
-101.837
 20
240.826
 11
-102.052
 21
240.757
  0
LINE
  8
0
 10
-102.052
 20
240.757
 11
-102.274
 21
240.714
  0
LINE
  8
0
 10
-102.274
 20
240.714
 11
-102.5
 21
240.7
  0
LINE
  8
0
 10
-102.5
 20
240.7
 11
-102.726
 21
240.714
  0
LINE
  8
0
 10
-102.726
 20
240.714
 11
-102.948
 21
240.757
  0
LINE
  8
0
 10
-102.948
 20
240.757
 11
-103.163
 21
240.826
  0
LINE
  8
0
 10
-103.163
 20
240.826
 11
-103.367
 21
240.923
  0
LINE
  8
0
 10
-103.367
 20
240.923
 11
-103.558
 21
241.044
  0
LINE
  8
0
 10
-103.558
 20
241.044
 11
-103.732
 21
241.188
  0
LINE
  8
0
 10
-103.732
 20
241.188
 11
-103.887
 21
241.353
  0
LINE
  8
0
 10
-103.887
 20
241.353
 11
-104.02
 21
241.536
  0
LINE
  8
0
 10
-104.02
 20
241.536
 11
-104.129
 21
241.734
  0
LINE
  8
0
 10
-104.129
 20
241.734
 11
-104.212
 21
241.944
  0
LINE
  8
0
 10
-104.212
 20
241.944
 11
-104.268
 21
242.163
  0
LINE
  8
0
 10
-104.268
 20
242.163
 11
-104.296
 21
242.387
  0
LINE
  8
0
 10
-104.296
 20
-476.113
 11
-104.296
 21
-475.887
  0
LINE
  8
0
 10
-104.296
 20
-475.887
 11
-104.268
 21
-475.663
  0
LINE
  8
0
 10
-104.268
 20
-475.663
 11
-104.212
 21
-475.444
  0
LINE
  8
0
 10
-104.212
 20
-475.444
 11
-104.129
 21
-475.234
  0
LINE
  8
0
 10
-104.129
 20
-475.234
 11
-104.02
 21
-475.036
  0
LINE
  8
0
 10
-104.02
 20
-475.036
 11
-103.887
 21
-474.853
  0
LINE
  8
0
 10
-103.887
 20
-474.853
 11
-103.732
 21
-474.688
  0
LINE
  8
0
 10
-103.732
 20
-474.688
 11
-103.558
 21
-474.544
  0
LINE
  8
0
 10
-103.558
 20
-474.544
 11
-103.367
 21
-474.423
  0
LINE
  8
0
 10
-103.367
 20
-474.423
 11
-103.163
 21
-474.326
  0
LINE
  8
0
 10
-103.163
 20
-474.326
 11
-102.948
 21
-474.257
  0
LINE
  8
0
 10
-102.948
 20
-474.257
 11
-102.726
 21
-474.214
  0
LINE
  8
0
 10
-102.726
 20
-474.214
 11
-102.5
 21
-474.2
  0
LINE
  8
0
 10
-102.5
 20
-474.2
 11
-102.274
 21
-474.214
  0
LINE
  8
0
 10
-102.274
 20
-474.214
 11
-102.052
 21
-474.257
  0
LINE
  8
0
 10
-102.052
 20
-474.257
 11
-101.837
 21
-474.326
  0
LINE
  8
0
 10
-101.837
 20
-474.326
 11
-101.633
 21
-474.423
  0
LINE
  8
0
 10
-101.633
 20
-474.423
 11
-101.442
 21
-474.544
  0
LINE
  8
0
 10
-101.442
 20
-474.544
 11
-101.268
 21
-474.688
  0
LINE
  8
0
 10
-101.268
 20
-474.688
 11
-101.113
 21
-474.853
  0
LINE
  8
0
 10
-101.113
 20
-474.853
 11
-100.98
 21
-475.036
  0
LINE
  8
0
 10
-100.98
 20
-475.036
 11
-100.871
 21
-475.234
  0
LINE
  8
0
 10
-100.871
 20
-475.234
 11
-100.788
 21
-475.444
  0
LINE
  8
0
 10
-100.788
 20
-475.444
 11
-100.732
 21
-475.663
  0
LINE
  8
0
 10
-100.732
 20
-475.663
 11
-100.704
 21
-475.887
  0
LINE
  8
0
 10
-100.704
 20
-475.887
 11
-100.704
 21
-476.113
  0
LINE
  8
0
 10
-100.704
 20
-476.113
 11
-100.732
 21
-476.337
  0
LINE
  8
0
 10
-100.732
 20
-476.337
 11
-100.788
 21
-476.556
  0
LINE
  8
0
 10
-100.788
 20
-476.556
 11
-100.871
 21
-476.766
  0
LINE
  8
0
 10
-100.871
 20
-476.766
 11
-100.98
 21
-476.964
  0
LINE
  8
0
 10
-100.98
 20
-476.964
 11
-101.113
 21
-477.147
  0
LINE
  8
0
 10
-101.113
 20
-477.147
 11
-101.268
 21
-477.312
  0
LINE
  8
0
 10
-101.268
 20
-477.312
 11
-101.442
 21
-477.456
  0
LINE
  8
0
 10
-101.442
 20
-477.456
 11
-101.633
 21
-477.577
  0
LINE
  8
0
 10
-101.633
 20
-477.577
 11
-101.837
 21
-477.674
  0
LINE
  8
0
 10
-101.837
 20
-477.674
 11
-102.052
 21
-477.743
  0
LINE
  8
0
 10
-102.052
 20
-477.743
 11
-102.274
 21
-477.786
  0
LINE
  8
0
 10
-102.274
 20
-477.786
 11
-102.5
 21
-477.8
  0
LINE
  8
0
 10
-102.5
 20
-477.8
 11
-102.726
 21
-477.786
  0
LINE
  8
0
 10
-102.726
 20
-477.786
 11
-102.948
 21
-477.743
  0
LINE
  8
0
 10
-102.948
 20
-477.743
 11
-103.163
 21
-477.674
  0
LINE
  8
0
 10
-103.163
 20
-477.674
 11
-103.367
 21
-477.577
  0
LINE
  8
0
 10
-103.367
 20
-477.577
 11
-103.558
 21
-477.456
  0
LINE
  8
0
 10
-103.558
 20
-477.456
 11
-103.732
 21
-477.312
  0
LINE
  8
0
 10
-103.732
 20
-477.312
 11
-103.887
 21
-477.147
  0
LINE
  8
0
 10
-103.887
 20
-477.147
 11
-104.02
 21
-476.964
  0
LINE
  8
0
 10
-104.02
 20
-476.964
 11
-104.129
 21
-476.766
  0
LINE
  8
0
 10
-104.129
 20
-476.766
 11
-104.212
 21
-476.556
  0
LINE
  8
0
 10
-104.212
 20
-476.556
 11
-104.268
 21
-476.337
  0
LINE
  8
0
 10
-104.268
 20
-476.337
 11
-104.296
 21
-476.113
  0
LINE
  8
0
 10
-104.296
 20
-436.113
 11
-104.296
 21
-435.887
  0
LINE
  8
0
 10
-104.296
 20
-435.887
 11
-104.268
 21
-435.663
  0
LINE
  8
0
 10
-104.268
 20
-435.663
 11
-104.212
 21
-435.444
  0
LINE
  8
0
 10
-104.212
 20
-435.444
 11
-104.129
 21
-435.234
  0
LINE
  8
0
 10
-104.129
 20
-435.234
 11
-104.02
 21
-435.036
  0
LINE
  8
0
 10
-104.02
 20
-435.036
 11
-103.887
 21
-434.853
  0
LINE
  8
0
 10
-103.887
 20
-434.853
 11
-103.732
 21
-434.688
  0
LINE
  8
0
 10
-103.732
 20
-434.688
 11
-103.558
 21
-434.544
  0
LINE
  8
0
 10
-103.558
 20
-434.544
 11
-103.367
 21
-434.423
  0
LINE
  8
0
 10
-103.367
 20
-434.423
 11
-103.163
 21
-434.326
  0
LINE
  8
0
 10
-103.163
 20
-434.326
 11
-102.948
 21
-434.257
  0
LINE
  8
0
 10
-102.948
 20
-434.257
 11
-102.726
 21
-434.214
  0
LINE
  8
0
 10
-102.726
 20
-434.214
 11
-102.5
 21
-434.2
  0
LINE
  8
0
 10
-102.5
 20
-434.2
 11
-102.274
 21
-434.214
  0
LINE
  8
0
 10
-102.274
 20
-434.214
 11
-102.052
 21
-434.257
  0
LINE
  8
0
 10
-102.052
 20
-434.257
 11
-101.837
 21
-434.326
  0
LINE
  8
0
 10
-101.837
 20
-434.326
 11
-101.633
 21
-434.423
  0
LINE
  8
0
 10
-101.633
 20
-434.423
 11
-101.442
 21
-434.544
  0
LINE
  8
0
 10
-101.442
 20
-434.544
 11
-101.268
 21
-434.688
  0
LINE
  8
0
 10
-101.268
 20
-434.688
 11
-101.113
 21
-434.853
  0
LINE
  8
0
 10
-101.113
 20
-434.853
 11
-100.98
 21
-435.036
  0
LINE
  8
0
 10
-100.98
 20
-435.036
 11
-100.871
 21
-435.234
  0
LINE
  8
0
 10
-100.871
 20
-435.234
 11
-100.788
 21
-435.444
  0
LINE
  8
0
 10
-100.788
 20
-435.444
 11
-100.732
 21
-435.663
  0
LINE
  8
0
 10
-100.732
 20
-435.663
 11
-100.704
 21
-435.887
  0
LINE
  8
0
 10
-100.704
 20
-435.887
 11
-100.704
 21
-436.113
  0
LINE
  8
0
 10
-100.704
 20
-436.113
 11
-100.732
 21
-436.337
  0
LINE
  8
0
 10
-100.732
 20
-436.337
 11
-100.788
 21
-436.556
  0
LINE
  8
0
 10
-100.788
 20
-436.556
 11
-100.871
 21
-436.766
  0
LINE
  8
0
 10
-100.871
 20
-436.766
 11
-100.98
 21
-436.964
  0
LINE
  8
0
 10
-100.98
 20
-436.964
 11
-101.113
 21
-437.147
  0
LINE
  8
0
 10
-101.113
 20
-437.147
 11
-101.268
 21
-437.312
  0
LINE
  8
0
 10
-101.268
 20
-437.312
 11
-101.442
 21
-437.456
  0
LINE
  8
0
 10
-101.442
 20
-437.456
 11
-101.633
 21
-437.577
  0
LINE
  8
0
 10
-101.633
 20
-437.577
 11
-101.837
 21
-437.674
  0
LINE
  8
0
 10
-101.837
 20
-437.674
 11
-102.052
 21
-437.743
  0
LINE
  8
0
 10
-102.052
 20
-437.743
 11
-102.274
 21
-437.786
  0
LINE
  8
0
 10
-102.274
 20
-437.786
 11
-102.5
 21
-437.8
  0
LINE
  8
0
 10
-102.5
 20
-437.8
 11
-102.726
 21
-437.786
  0
LINE
  8
0
 10
-102.726
 20
-437.786
 11
-102.948
 21
-437.743
  0
LINE
  8
0
 10
-102.948
 20
-437.743
 11
-103.163
 21
-437.674
  0
LINE
  8
0
 10
-103.163
 20
-437.674
 11
-103.367
 21
-437.577
  0
LINE
  8
0
 10
-103.367
 20
-437.577
 11
-103.558
 21
-437.456
  0
LINE
  8
0
 10
-103.558
 20
-437.456
 11
-103.732
 21
-437.312
  0
LINE
  8
0
 10
-103.732
 20
-437.312
 11
-103.887
 21
-437.147
  0
LINE
  8
0
 10
-103.887
 20
-437.147
 11
-104.02
 21
-436.964
  0
LINE
  8
0
 10
-104.02
 20
-436.964
 11
-104.129
 21
-436.766
  0
LINE
  8
0
 10
-104.129
 20
-436.766
 11
-104.212
 21
-436.556
  0
LINE
  8
0
 10
-104.212
 20
-436.556
 11
-104.268
 21
-436.337
  0
LINE
  8
0
 10
-104.268
 20
-436.337
 11
-104.296
 21
-436.113
  0
LINE
  8
0
 10
-104.296
 20
257.387
 11
-104.296
 21
257.613
  0
LINE
  8
0
 10
-104.296
 20
257.613
 11
-104.268
 21
257.837
  0
LINE
  8
0
 10
-104.268
 20
257.837
 11
-104.212
 21
258.056
  0
LINE
  8
0
 10
-104.212
 20
258.056
 11
-104.129
 21
258.266
  0
LINE
  8
0
 10
-104.129
 20
258.266
 11
-104.02
 21
258.464
  0
LINE
  8
0
 10
-104.02
 20
258.464
 11
-103.887
 21
258.647
  0
LINE
  8
0
 10
-103.887
 20
258.647
 11
-103.732
 21
258.812
  0
LINE
  8
0
 10
-103.732
 20
258.812
 11
-103.558
 21
258.956
  0
LINE
  8
0
 10
-103.558
 20
258.956
 11
-103.367
 21
259.077
  0
LINE
  8
0
 10
-103.367
 20
259.077
 11
-103.163
 21
259.174
  0
LINE
  8
0
 10
-103.163
 20
259.174
 11
-102.948
 21
259.243
  0
LINE
  8
0
 10
-102.948
 20
259.243
 11
-102.726
 21
259.286
  0
LINE
  8
0
 10
-102.726
 20
259.286
 11
-102.5
 21
259.3
  0
LINE
  8
0
 10
-102.5
 20
259.3
 11
-102.274
 21
259.286
  0
LINE
  8
0
 10
-102.274
 20
259.286
 11
-102.052
 21
259.243
  0
LINE
  8
0
 10
-102.052
 20
259.243
 11
-101.837
 21
259.174
  0
LINE
  8
0
 10
-101.837
 20
259.174
 11
-101.633
 21
259.077
  0
LINE
  8
0
 10
-101.633
 20
259.077
 11
-101.442
 21
258.956
  0
LINE
  8
0
 10
-101.442
 20
258.956
 11
-101.268
 21
258.812
  0
LINE
  8
0
 10
-101.268
 20
258.812
 11
-101.113
 21
258.647
  0
LINE
  8
0
 10
-101.113
 20
258.647
 11
-100.98
 21
258.464
  0
LINE
  8
0
 10
-100.98
 20
258.464
 11
-100.871
 21
258.266
  0
LINE
  8
0
 10
-100.871
 20
258.266
 11
-100.788
 21
258.056
  0
LINE
  8
0
 10
-100.788
 20
258.056
 11
-100.732
 21
257.837
  0
LINE
  8
0
 10
-100.732
 20
257.837
 11
-100.704
 21
257.613
  0
LINE
  8
0
 10
-100.704
 20
257.613
 11
-100.704
 21
257.387
  0
LINE
  8
0
 10
-100.704
 20
257.387
 11
-100.732
 21
257.163
  0
LINE
  8
0
 10
-100.732
 20
257.163
 11
-100.788
 21
256.944
  0
LINE
  8
0
 10
-100.788
 20
256.944
 11
-100.871
 21
256.734
  0
LINE
  8
0
 10
-100.871
 20
256.734
 11
-100.98
 21
256.536
  0
LINE
  8
0
 10
-100.98
 20
256.536
 11
-101.113
 21
256.353
  0
LINE
  8
0
 10
-101.113
 20
256.353
 11
-101.268
 21
256.188
  0
LINE
  8
0
 10
-101.268
 20
256.188
 11
-101.442
 21
256.044
  0
LINE
  8
0
 10
-101.442
 20
256.044
 11
-101.633
 21
255.923
  0
LINE
  8
0
 10
-101.633
 20
255.923
 11
-101.837
 21
255.826
  0
LINE
  8
0
 10
-101.837
 20
255.826
 11
-102.052
 21
255.757
  0
LINE
  8
0
 10
-102.052
 20
255.757
 11
-102.274
 21
255.714
  0
LINE
  8
0
 10
-102.274
 20
255.714
 11
-102.5
 21
255.7
  0
LINE
  8
0
 10
-102.5
 20
255.7
 11
-102.726
 21
255.714
  0
LINE
  8
0
 10
-102.726
 20
255.714
 11
-102.948
 21
255.757
  0
LINE
  8
0
 10
-102.948
 20
255.757
 11
-103.163
 21
255.826
  0
LINE
  8
0
 10
-103.163
 20
255.826
 11
-103.367
 21
255.923
  0
LINE
  8
0
 10
-103.367
 20
255.923
 11
-103.558
 21
256.044
  0
LINE
  8
0
 10
-103.558
 20
256.044
 11
-103.732
 21
256.188
  0
LINE
  8
0
 10
-103.732
 20
256.188
 11
-103.887
 21
256.353
  0
LINE
  8
0
 10
-103.887
 20
256.353
 11
-104.02
 21
256.536
  0
LINE
  8
0
 10
-104.02
 20
256.536
 11
-104.129
 21
256.734
  0
LINE
  8
0
 10
-104.129
 20
256.734
 11
-104.212
 21
256.944
  0
LINE
  8
0
 10
-104.212
 20
256.944
 11
-104.268
 21
257.163
  0
LINE
  8
0
 10
-104.268
 20
257.163
 11
-104.296
 21
257.387
  0
LINE
  8
0
 10
-104.296
 20
-396.113
 11
-104.296
 21
-395.887
  0
LINE
  8
0
 10
-104.296
 20
-395.887
 11
-104.268
 21
-395.663
  0
LINE
  8
0
 10
-104.268
 20
-395.663
 11
-104.212
 21
-395.444
  0
LINE
  8
0
 10
-104.212
 20
-395.444
 11
-104.129
 21
-395.234
  0
LINE
  8
0
 10
-104.129
 20
-395.234
 11
-104.02
 21
-395.036
  0
LINE
  8
0
 10
-104.02
 20
-395.036
 11
-103.887
 21
-394.853
  0
LINE
  8
0
 10
-103.887
 20
-394.853
 11
-103.732
 21
-394.688
  0
LINE
  8
0
 10
-103.732
 20
-394.688
 11
-103.558
 21
-394.544
  0
LINE
  8
0
 10
-103.558
 20
-394.544
 11
-103.367
 21
-394.423
  0
LINE
  8
0
 10
-103.367
 20
-394.423
 11
-103.163
 21
-394.326
  0
LINE
  8
0
 10
-103.163
 20
-394.326
 11
-102.948
 21
-394.257
  0
LINE
  8
0
 10
-102.948
 20
-394.257
 11
-102.726
 21
-394.214
  0
LINE
  8
0
 10
-102.726
 20
-394.214
 11
-102.5
 21
-394.2
  0
LINE
  8
0
 10
-102.5
 20
-394.2
 11
-102.274
 21
-394.214
  0
LINE
  8
0
 10
-102.274
 20
-394.214
 11
-102.052
 21
-394.257
  0
LINE
  8
0
 10
-102.052
 20
-394.257
 11
-101.837
 21
-394.326
  0
LINE
  8
0
 10
-101.837
 20
-394.326
 11
-101.633
 21
-394.423
  0
LINE
  8
0
 10
-101.633
 20
-394.423
 11
-101.442
 21
-394.544
  0
LINE
  8
0
 10
-101.442
 20
-394.544
 11
-101.268
 21
-394.688
  0
LINE
  8
0
 10
-101.268
 20
-394.688
 11
-101.113
 21
-394.853
  0
LINE
  8
0
 10
-101.113
 20
-394.853
 11
-100.98
 21
-395.036
  0
LINE
  8
0
 10
-100.98
 20
-395.036
 11
-100.871
 21
-395.234
  0
LINE
  8
0
 10
-100.871
 20
-395.234
 11
-100.788
 21
-395.444
  0
LINE
  8
0
 10
-100.788
 20
-395.444
 11
-100.732
 21
-395.663
  0
LINE
  8
0
 10
-100.732
 20
-395.663
 11
-100.704
 21
-395.887
  0
LINE
  8
0
 10
-100.704
 20
-395.887
 11
-100.704
 21
-396.113
  0
LINE
  8
0
 10
-100.704
 20
-396.113
 11
-100.732
 21
-396.337
  0
LINE
  8
0
 10
-100.732
 20
-396.337
 11
-100.788
 21
-396.556
  0
LINE
  8
0
 10
-100.788
 20
-396.556
 11
-100.871
 21
-396.766
  0
LINE
  8
0
 10
-100.871
 20
-396.766
 11
-100.98
 21
-396.964
  0
LINE
  8
0
 10
-100.98
 20
-396.964
 11
-101.113
 21
-397.147
  0
LINE
  8
0
 10
-101.113
 20
-397.147
 11
-101.268
 21
-397.312
  0
LINE
  8
0
 10
-101.268
 20
-397.312
 11
-101.442
 21
-397.456
  0
LINE
  8
0
 10
-101.442
 20
-397.456
 11
-101.633
 21
-397.577
  0
LINE
  8
0
 10
-101.633
 20
-397.577
 11
-101.837
 21
-397.674
  0
LINE
  8
0
 10
-101.837
 20
-397.674
 11
-102.052
 21
-397.743
  0
LINE
  8
0
 10
-102.052
 20
-397.743
 11
-102.274
 21
-397.786
  0
LINE
  8
0
 10
-102.274
 20
-397.786
 11
-102.5
 21
-397.8
  0
LINE
  8
0
 10
-102.5
 20
-397.8
 11
-102.726
 21
-397.786
  0
LINE
  8
0
 10
-102.726
 20
-397.786
 11
-102.948
 21
-397.743
  0
LINE
  8
0
 10
-102.948
 20
-397.743
 11
-103.163
 21
-397.674
  0
LINE
  8
0
 10
-103.163
 20
-397.674
 11
-103.367
 21
-397.577
  0
LINE
  8
0
 10
-103.367
 20
-397.577
 11
-103.558
 21
-397.456
  0
LINE
  8
0
 10
-103.558
 20
-397.456
 11
-103.732
 21
-397.312
  0
LINE
  8
0
 10
-103.732
 20
-397.312
 11
-103.887
 21
-397.147
  0
LINE
  8
0
 10
-103.887
 20
-397.147
 11
-104.02
 21
-396.964
  0
LINE
  8
0
 10
-104.02
 20
-396.964
 11
-104.129
 21
-396.766
  0
LINE
  8
0
 10
-104.129
 20
-396.766
 11
-104.212
 21
-396.556
  0
LINE
  8
0
 10
-104.212
 20
-396.556
 11
-104.268
 21
-396.337
  0
LINE
  8
0
 10
-104.268
 20
-396.337
 11
-104.296
 21
-396.113
  0
LINE
  8
0
 10
-88.2964
 20
-416.113
 11
-88.2964
 21
-415.887
  0
LINE
  8
0
 10
-88.2964
 20
-415.887
 11
-88.2681
 21
-415.663
  0
LINE
  8
0
 10
-88.2681
 20
-415.663
 11
-88.2119
 21
-415.444
  0
LINE
  8
0
 10
-88.2119
 20
-415.444
 11
-88.1287
 21
-415.234
  0
LINE
  8
0
 10
-88.1287
 20
-415.234
 11
-88.0198
 21
-415.036
  0
LINE
  8
0
 10
-88.0198
 20
-415.036
 11
-87.8869
 21
-414.853
  0
LINE
  8
0
 10
-87.8869
 20
-414.853
 11
-87.7322
 21
-414.688
  0
LINE
  8
0
 10
-87.7322
 20
-414.688
 11
-87.558
 21
-414.544
  0
LINE
  8
0
 10
-87.558
 20
-414.544
 11
-87.3672
 21
-414.423
  0
LINE
  8
0
 10
-87.3672
 20
-414.423
 11
-87.1626
 21
-414.326
  0
LINE
  8
0
 10
-87.1626
 20
-414.326
 11
-86.9476
 21
-414.257
  0
LINE
  8
0
 10
-86.9476
 20
-414.257
 11
-86.7256
 21
-414.214
  0
LINE
  8
0
 10
-86.7256
 20
-414.214
 11
-86.5
 21
-414.2
  0
LINE
  8
0
 10
-86.5
 20
-414.2
 11
-86.2744
 21
-414.214
  0
LINE
  8
0
 10
-86.2744
 20
-414.214
 11
-86.0524
 21
-414.257
  0
LINE
  8
0
 10
-86.0524
 20
-414.257
 11
-85.8374
 21
-414.326
  0
LINE
  8
0
 10
-85.8374
 20
-414.326
 11
-85.6328
 21
-414.423
  0
LINE
  8
0
 10
-85.6328
 20
-414.423
 11
-85.442
 21
-414.544
  0
LINE
  8
0
 10
-85.442
 20
-414.544
 11
-85.2678
 21
-414.688
  0
LINE
  8
0
 10
-85.2678
 20
-414.688
 11
-85.1131
 21
-414.853
  0
LINE
  8
0
 10
-85.1131
 20
-414.853
 11
-84.9802
 21
-415.036
  0
LINE
  8
0
 10
-84.9802
 20
-415.036
 11
-84.8713
 21
-415.234
  0
LINE
  8
0
 10
-84.8713
 20
-415.234
 11
-84.7881
 21
-415.444
  0
LINE
  8
0
 10
-84.7881
 20
-415.444
 11
-84.7319
 21
-415.663
  0
LINE
  8
0
 10
-84.7319
 20
-415.663
 11
-84.7036
 21
-415.887
  0
LINE
  8
0
 10
-84.7036
 20
-415.887
 11
-84.7036
 21
-416.113
  0
LINE
  8
0
 10
-84.7036
 20
-416.113
 11
-84.7319
 21
-416.337
  0
LINE
  8
0
 10
-84.7319
 20
-416.337
 11
-84.7881
 21
-416.556
  0
LINE
  8
0
 10
-84.7881
 20
-416.556
 11
-84.8713
 21
-416.766
  0
LINE
  8
0
 10
-84.8713
 20
-416.766
 11
-84.9802
 21
-416.964
  0
LINE
  8
0
 10
-84.9802
 20
-416.964
 11
-85.1131
 21
-417.147
  0
LINE
  8
0
 10
-85.1131
 20
-417.147
 11
-85.2678
 21
-417.312
  0
LINE
  8
0
 10
-85.2678
 20
-417.312
 11
-85.442
 21
-417.456
  0
LINE
  8
0
 10
-85.442
 20
-417.456
 11
-85.6328
 21
-417.577
  0
LINE
  8
0
 10
-85.6328
 20
-417.577
 11
-85.8374
 21
-417.674
  0
LINE
  8
0
 10
-85.8374
 20
-417.674
 11
-86.0524
 21
-417.743
  0
LINE
  8
0
 10
-86.0524
 20
-417.743
 11
-86.2744
 21
-417.786
  0
LINE
  8
0
 10
-86.2744
 20
-417.786
 11
-86.5
 21
-417.8
  0
LINE
  8
0
 10
-86.5
 20
-417.8
 11
-86.7256
 21
-417.786
  0
LINE
  8
0
 10
-86.7256
 20
-417.786
 11
-86.9476
 21
-417.743
  0
LINE
  8
0
 10
-86.9476
 20
-417.743
 11
-87.1626
 21
-417.674
  0
LINE
  8
0
 10
-87.1626
 20
-417.674
 11
-87.3672
 21
-417.577
  0
LINE
  8
0
 10
-87.3672
 20
-417.577
 11
-87.558
 21
-417.456
  0
LINE
  8
0
 10
-87.558
 20
-417.456
 11
-87.7322
 21
-417.312
  0
LINE
  8
0
 10
-87.7322
 20
-417.312
 11
-87.8869
 21
-417.147
  0
LINE
  8
0
 10
-87.8869
 20
-417.147
 11
-88.0198
 21
-416.964
  0
LINE
  8
0
 10
-88.0198
 20
-416.964
 11
-88.1287
 21
-416.766
  0
LINE
  8
0
 10
-88.1287
 20
-416.766
 11
-88.2119
 21
-416.556
  0
LINE
  8
0
 10
-88.2119
 20
-416.556
 11
-88.2681
 21
-416.337
  0
LINE
  8
0
 10
-88.2681
 20
-416.337
 11
-88.2964
 21
-416.113
  0
LINE
  8
0
 10
-86.2964
 20
-456.113
 11
-86.2964
 21
-455.887
  0
LINE
  8
0
 10
-86.2964
 20
-455.887
 11
-86.2681
 21
-455.663
  0
LINE
  8
0
 10
-86.2681
 20
-455.663
 11
-86.2119
 21
-455.444
  0
LINE
  8
0
 10
-86.2119
 20
-455.444
 11
-86.1287
 21
-455.234
  0
LINE
  8
0
 10
-86.1287
 20
-455.234
 11
-86.0198
 21
-455.036
  0
LINE
  8
0
 10
-86.0198
 20
-455.036
 11
-85.8869
 21
-454.853
  0
LINE
  8
0
 10
-85.8869
 20
-454.853
 11
-85.7322
 21
-454.688
  0
LINE
  8
0
 10
-85.7322
 20
-454.688
 11
-85.558
 21
-454.544
  0
LINE
  8
0
 10
-85.558
 20
-454.544
 11
-85.3672
 21
-454.423
  0
LINE
  8
0
 10
-85.3672
 20
-454.423
 11
-85.1626
 21
-454.326
  0
LINE
  8
0
 10
-85.1626
 20
-454.326
 11
-84.9476
 21
-454.257
  0
LINE
  8
0
 10
-84.9476
 20
-454.257
 11
-84.7256
 21
-454.214
  0
LINE
  8
0
 10
-84.7256
 20
-454.214
 11
-84.5
 21
-454.2
  0
LINE
  8
0
 10
-84.5
 20
-454.2
 11
-84.2744
 21
-454.214
  0
LINE
  8
0
 10
-84.2744
 20
-454.214
 11
-84.0524
 21
-454.257
  0
LINE
  8
0
 10
-84.0524
 20
-454.257
 11
-83.8374
 21
-454.326
  0
LINE
  8
0
 10
-83.8374
 20
-454.326
 11
-83.6328
 21
-454.423
  0
LINE
  8
0
 10
-83.6328
 20
-454.423
 11
-83.442
 21
-454.544
  0
LINE
  8
0
 10
-83.442
 20
-454.544
 11
-83.2678
 21
-454.688
  0
LINE
  8
0
 10
-83.2678
 20
-454.688
 11
-83.1131
 21
-454.853
  0
LINE
  8
0
 10
-83.1131
 20
-454.853
 11
-82.9802
 21
-455.036
  0
LINE
  8
0
 10
-82.9802
 20
-455.036
 11
-82.8713
 21
-455.234
  0
LINE
  8
0
 10
-82.8713
 20
-455.234
 11
-82.7881
 21
-455.444
  0
LINE
  8
0
 10
-82.7881
 20
-455.444
 11
-82.7319
 21
-455.663
  0
LINE
  8
0
 10
-82.7319
 20
-455.663
 11
-82.7036
 21
-455.887
  0
LINE
  8
0
 10
-82.7036
 20
-455.887
 11
-82.7036
 21
-456.113
  0
LINE
  8
0
 10
-82.7036
 20
-456.113
 11
-82.7319
 21
-456.337
  0
LINE
  8
0
 10
-82.7319
 20
-456.337
 11
-82.7881
 21
-456.556
  0
LINE
  8
0
 10
-82.7881
 20
-456.556
 11
-82.8713
 21
-456.766
  0
LINE
  8
0
 10
-82.8713
 20
-456.766
 11
-82.9802
 21
-456.964
  0
LINE
  8
0
 10
-82.9802
 20
-456.964
 11
-83.1131
 21
-457.147
  0
LINE
  8
0
 10
-83.1131
 20
-457.147
 11
-83.2678
 21
-457.312
  0
LINE
  8
0
 10
-83.2678
 20
-457.312
 11
-83.442
 21
-457.456
  0
LINE
  8
0
 10
-83.442
 20
-457.456
 11
-83.6328
 21
-457.577
  0
LINE
  8
0
 10
-83.6328
 20
-457.577
 11
-83.8374
 21
-457.674
  0
LINE
  8
0
 10
-83.8374
 20
-457.674
 11
-84.0524
 21
-457.743
  0
LINE
  8
0
 10
-84.0524
 20
-457.743
 11
-84.2744
 21
-457.786
  0
LINE
  8
0
 10
-84.2744
 20
-457.786
 11
-84.5
 21
-457.8
  0
LINE
  8
0
 10
-84.5
 20
-457.8
 11
-84.7256
 21
-457.786
  0
LINE
  8
0
 10
-84.7256
 20
-457.786
 11
-84.9476
 21
-457.743
  0
LINE
  8
0
 10
-84.9476
 20
-457.743
 11
-85.1626
 21
-457.674
  0
LINE
  8
0
 10
-85.1626
 20
-457.674
 11
-85.3672
 21
-457.577
  0
LINE
  8
0
 10
-85.3672
 20
-457.577
 11
-85.558
 21
-457.456
  0
LINE
  8
0
 10
-85.558
 20
-457.456
 11
-85.7322
 21
-457.312
  0
LINE
  8
0
 10
-85.7322
 20
-457.312
 11
-85.8869
 21
-457.147
  0
LINE
  8
0
 10
-85.8869
 20
-457.147
 11
-86.0198
 21
-456.964
  0
LINE
  8
0
 10
-86.0198
 20
-456.964
 11
-86.1287
 21
-456.766
  0
LINE
  8
0
 10
-86.1287
 20
-456.766
 11
-86.2119
 21
-456.556
  0
LINE
  8
0
 10
-86.2119
 20
-456.556
 11
-86.2681
 21
-456.337
  0
LINE
  8
0
 10
-86.2681
 20
-456.337
 11
-86.2964
 21
-456.113
  0
LINE
  8
0
 10
-55
 20
-485
 11
-5
 21
-485
  0
LINE
  8
0
 10
-5
 20
-485
 11
-5
 21
-372.2
  0
LINE
  8
0
 10
-5
 20
-372.2
 11
-5.10528
 21
-372.121
  0
LINE
  8
0
 10
-5.10528
 20
-372.121
 11
-5.71596
 21
-371.671
  0
LINE
  8
0
 10
-5.71596
 20
-371.671
 11
-6.72232
 21
-370.943
  0
LINE
  8
0
 10
-6.72232
 20
-370.943
 11
-6.84964
 21
-370.853
  0
LINE
  8
0
 10
-6.84964
 20
-370.853
 11
-7.07333
 21
-370.343
  0
LINE
  8
0
 10
-7.07333
 20
-370.343
 11
-7.07333
 21
485
  0
LINE
  8
0
 10
-7.07333
 20
485
 11
-7.09038
 21
485.049
  0
LINE
  8
0
 10
-7.09038
 20
485.049
 11
-7.09515
 21
485.063
  0
LINE
  8
0
 10
-7.09515
 20
485.063
 11
-7.10877
 21
485.076
  0
LINE
  8
0
 10
-7.10877
 20
485.076
 11
-7.16235
 21
485.128
  0
LINE
  8
0
 10
-7.16235
 20
485.128
 11
-7.26557
 21
485.189
  0
LINE
  8
0
 10
-7.26557
 20
485.189
 11
-7.28061
 21
485.198
  0
LINE
  8
0
 10
-7.28061
 20
485.198
 11
-7.29873
 21
485.206
  0
LINE
  8
0
 10
-7.29873
 20
485.206
 11
-7.46072
 21
485.275
  0
LINE
  8
0
 10
-7.46072
 20
485.275
 11
-7.52945
 21
485.298
  0
LINE
  8
0
 10
-7.52945
 20
485.298
 11
-7.68928
 21
485.35
  0
LINE
  8
0
 10
-7.68928
 20
485.35
 11
-7.72853
 21
485.363
  0
LINE
  8
0
 10
-7.72853
 20
485.363
 11
-7.81066
 21
485.386
  0
LINE
  8
0
 10
-7.81066
 20
485.386
 11
-8.11526
 21
485.47
  0
LINE
  8
0
 10
-8.11526
 20
485.47
 11
-8.33507
 21
485.522
  0
LINE
  8
0
 10
-8.33507
 20
485.522
 11
-8.6766
 21
485.604
  0
LINE
  8
0
 10
-8.6766
 20
485.604
 11
-8.80835
 21
485.633
  0
LINE
  8
0
 10
-8.80835
 20
485.633
 11
-9.23187
 21
485.725
  0
LINE
  8
0
 10
-9.23187
 20
485.725
 11
-9.53766
 21
485.788
  0
LINE
  8
0
 10
-9.53766
 20
485.788
 11
-10.1356
 21
485.902
  0
LINE
  8
0
 10
-10.1356
 20
485.902
 11
-10.9756
 21
486.063
  0
LINE
  8
0
 10
-10.9756
 20
486.063
 11
-11.2571
 21
486.113
  0
LINE
  8
0
 10
-11.2571
 20
486.113
 11
-12.2044
 21
486.275
  0
LINE
  8
0
 10
-12.2044
 20
486.275
 11
-13.5732
 21
486.509
  0
LINE
  8
0
 10
-13.5732
 20
486.509
 11
-13.6366
 21
486.519
  0
LINE
  8
0
 10
-13.6366
 20
486.519
 11
-13.7595
 21
486.539
  0
LINE
  8
0
 10
-13.7595
 20
486.539
 11
-15.2353
 21
486.767
  0
LINE
  8
0
 10
-15.2353
 20
486.767
 11
-16.1436
 21
486.907
  0
LINE
  8
0
 10
-16.1436
 20
486.907
 11
-17.9806
 21
487.172
  0
LINE
  8
0
 10
-17.9806
 20
487.172
 11
-18.9278
 21
487.308
  0
LINE
  8
0
 10
-18.9278
 20
487.308
 11
-21.2871
 21
487.621
  0
LINE
  8
0
 10
-21.2871
 20
487.621
 11
-21.8819
 21
487.698
  0
LINE
  8
0
 10
-21.8819
 20
487.698
 11
-24.3467
 21
487.987
  0
LINE
  8
0
 10
-24.3467
 20
487.987
 11
-24.9593
 21
488.058
  0
LINE
  8
0
 10
-24.9593
 20
488.058
 11
-27.1122
 21
488.279
  0
LINE
  8
0
 10
-27.1122
 20
488.279
 11
-28.1114
 21
488.381
  0
LINE
  8
0
 10
-28.1114
 20
488.381
 11
-29.2097
 21
488.475
  0
LINE
  8
0
 10
-29.2097
 20
488.475
 11
-31.2886
 21
488.653
  0
LINE
  8
0
 10
-31.2886
 20
488.653
 11
-32.9847
 21
488.762
  0
LINE
  8
0
 10
-32.9847
 20
488.762
 11
-34.4408
 21
488.857
  0
LINE
  8
0
 10
-34.4408
 20
488.857
 11
-35.9229
 21
488.915
  0
LINE
  8
0
 10
-35.9229
 20
488.915
 11
-37.5181
 21
488.979
  0
LINE
  8
0
 10
-37.5181
 20
488.979
 11
-39.0158
 21
488.993
  0
LINE
  8
0
 10
-39.0158
 20
488.993
 11
-40.4722
 21
489.007
  0
LINE
  8
0
 10
-40.4722
 20
489.007
 11
-41.8695
 21
488.969
  0
LINE
  8
0
 10
-41.8695
 20
488.969
 11
-43.2564
 21
488.932
  0
LINE
  8
0
 10
-43.2564
 20
488.932
 11
-44.6551
 21
488.832
  0
LINE
  8
0
 10
-44.6551
 20
488.832
 11
-45.8268
 21
488.748
  0
LINE
  8
0
 10
-45.8268
 20
488.748
 11
-46.8187
 21
488.623
  0
LINE
  8
0
 10
-46.8187
 20
488.623
 11
-48.1429
 21
488.457
  0
LINE
  8
0
 10
-48.1429
 20
488.457
 11
-48.8273
 21
488.323
  0
LINE
  8
0
 10
-48.8273
 20
488.323
 11
-50.1681
 21
488.062
  0
LINE
  8
0
 10
-50.1681
 20
488.062
 11
-50.5031
 21
487.966
  0
LINE
  8
0
 10
-50.5031
 20
487.966
 11
-51.7066
 21
487.621
  0
LINE
  8
0
 10
-51.7066
 20
487.621
 11
-51.8706
 21
487.573
  0
LINE
  8
0
 10
-51.8706
 20
487.573
 11
-52.858
 21
487.147
  0
LINE
  8
0
 10
-52.858
 20
487.147
 11
-53.2234
 21
486.99
  0
LINE
  8
0
 10
-53.2234
 20
486.99
 11
-53.9023
 21
486.539
  0
LINE
  8
0
 10
-53.9023
 20
486.539
 11
-54.2052
 21
486.329
  0
LINE
  8
0
 10
-54.2052
 20
486.329
 11
-54.3714
 21
486.123
  0
LINE
  8
0
 10
-54.3714
 20
486.123
 11
-54.42
 21
486.063
  0
LINE
  8
0
 10
-54.42
 20
486.063
 11
-54.5525
 21
485.888
  0
LINE
  8
0
 10
-54.5525
 20
485.888
 11
-54.6286
 21
485.788
  0
LINE
  8
0
 10
-54.6286
 20
485.788
 11
-54.7359
 21
485.635
  0
LINE
  8
0
 10
-54.7359
 20
485.635
 11
-54.7572
 21
485.604
  0
LINE
  8
0
 10
-54.7572
 20
485.604
 11
-54.8005
 21
485.536
  0
LINE
  8
0
 10
-54.8005
 20
485.536
 11
-54.8137
 21
485.47
  0
LINE
  8
0
 10
-54.8137
 20
485.47
 11
-54.8321
 21
485.363
  0
LINE
  8
0
 10
-54.8321
 20
485.363
 11
-54.845
 21
485.275
  0
LINE
  8
0
 10
-54.845
 20
485.275
 11
-54.8539
 21
485.198
  0
LINE
  8
0
 10
-54.8539
 20
485.198
 11
-54.8598
 21
485.128
  0
LINE
  8
0
 10
-54.8598
 20
485.128
 11
-54.8631
 21
485.063
  0
LINE
  8
0
 10
-54.8631
 20
485.063
 11
-54.8642
 21
485
  0
LINE
  8
0
 10
-54.8642
 20
485
 11
-54.8642
 21
485
  0
LINE
  8
0
 10
-54.8642
 20
485
 11
-54.8642
 21
-368.999
  0
LINE
  8
0
 10
-54.8642
 20
-368.999
 11
-54.8662
 21
-368.999
  0
LINE
  8
0
 10
-54.8662
 20
-368.999
 11
-54.9661
 21
-370.227
  0
LINE
  8
0
 10
-54.9661
 20
-370.227
 11
-55
 21
-370.644
  0
LINE
  8
0
 10
-55
 20
-370.644
 11
-55
 21
-485
  0
LINE
  8
0
 10
-44.2964
 20
227.387
 11
-44.2964
 21
227.613
  0
LINE
  8
0
 10
-44.2964
 20
227.613
 11
-44.2681
 21
227.837
  0
LINE
  8
0
 10
-44.2681
 20
227.837
 11
-44.2119
 21
228.056
  0
LINE
  8
0
 10
-44.2119
 20
228.056
 11
-44.1287
 21
228.266
  0
LINE
  8
0
 10
-44.1287
 20
228.266
 11
-44.0198
 21
228.464
  0
LINE
  8
0
 10
-44.0198
 20
228.464
 11
-43.8869
 21
228.647
  0
LINE
  8
0
 10
-43.8869
 20
228.647
 11
-43.7322
 21
228.812
  0
LINE
  8
0
 10
-43.7322
 20
228.812
 11
-43.558
 21
228.956
  0
LINE
  8
0
 10
-43.558
 20
228.956
 11
-43.3672
 21
229.077
  0
LINE
  8
0
 10
-43.3672
 20
229.077
 11
-43.1626
 21
229.174
  0
LINE
  8
0
 10
-43.1626
 20
229.174
 11
-42.9476
 21
229.243
  0
LINE
  8
0
 10
-42.9476
 20
229.243
 11
-42.7256
 21
229.286
  0
LINE
  8
0
 10
-42.7256
 20
229.286
 11
-42.5
 21
229.3
  0
LINE
  8
0
 10
-42.5
 20
229.3
 11
-42.2744
 21
229.286
  0
LINE
  8
0
 10
-42.2744
 20
229.286
 11
-42.0524
 21
229.243
  0
LINE
  8
0
 10
-42.0524
 20
229.243
 11
-41.8374
 21
229.174
  0
LINE
  8
0
 10
-41.8374
 20
229.174
 11
-41.6328
 21
229.077
  0
LINE
  8
0
 10
-41.6328
 20
229.077
 11
-41.442
 21
228.956
  0
LINE
  8
0
 10
-41.442
 20
228.956
 11
-41.2678
 21
228.812
  0
LINE
  8
0
 10
-41.2678
 20
228.812
 11
-41.1131
 21
228.647
  0
LINE
  8
0
 10
-41.1131
 20
228.647
 11
-40.9802
 21
228.464
  0
LINE
  8
0
 10
-40.9802
 20
228.464
 11
-40.8713
 21
228.266
  0
LINE
  8
0
 10
-40.8713
 20
228.266
 11
-40.7881
 21
228.056
  0
LINE
  8
0
 10
-40.7881
 20
228.056
 11
-40.7319
 21
227.837
  0
LINE
  8
0
 10
-40.7319
 20
227.837
 11
-40.7036
 21
227.613
  0
LINE
  8
0
 10
-40.7036
 20
227.613
 11
-40.7036
 21
227.387
  0
LINE
  8
0
 10
-40.7036
 20
227.387
 11
-40.7319
 21
227.163
  0
LINE
  8
0
 10
-40.7319
 20
227.163
 11
-40.7881
 21
226.944
  0
LINE
  8
0
 10
-40.7881
 20
226.944
 11
-40.8713
 21
226.734
  0
LINE
  8
0
 10
-40.8713
 20
226.734
 11
-40.9802
 21
226.536
  0
LINE
  8
0
 10
-40.9802
 20
226.536
 11
-41.1131
 21
226.353
  0
LINE
  8
0
 10
-41.1131
 20
226.353
 11
-41.2678
 21
226.188
  0
LINE
  8
0
 10
-41.2678
 20
226.188
 11
-41.442
 21
226.044
  0
LINE
  8
0
 10
-41.442
 20
226.044
 11
-41.6328
 21
225.923
  0
LINE
  8
0
 10
-41.6328
 20
225.923
 11
-41.8374
 21
225.826
  0
LINE
  8
0
 10
-41.8374
 20
225.826
 11
-42.0524
 21
225.757
  0
LINE
  8
0
 10
-42.0524
 20
225.757
 11
-42.2744
 21
225.714
  0
LINE
  8
0
 10
-42.2744
 20
225.714
 11
-42.5
 21
225.7
  0
LINE
  8
0
 10
-42.5
 20
225.7
 11
-42.7256
 21
225.714
  0
LINE
  8
0
 10
-42.7256
 20
225.714
 11
-42.9476
 21
225.757
  0
LINE
  8
0
 10
-42.9476
 20
225.757
 11
-43.1626
 21
225.826
  0
LINE
  8
0
 10
-43.1626
 20
225.826
 11
-43.3672
 21
225.923
  0
LINE
  8
0
 10
-43.3672
 20
225.923
 11
-43.558
 21
226.044
  0
LINE
  8
0
 10
-43.558
 20
226.044
 11
-43.7322
 21
226.188
  0
LINE
  8
0
 10
-43.7322
 20
226.188
 11
-43.8869
 21
226.353
  0
LINE
  8
0
 10
-43.8869
 20
226.353
 11
-44.0198
 21
226.536
  0
LINE
  8
0
 10
-44.0198
 20
226.536
 11
-44.1287
 21
226.734
  0
LINE
  8
0
 10
-44.1287
 20
226.734
 11
-44.2119
 21
226.944
  0
LINE
  8
0
 10
-44.2119
 20
226.944
 11
-44.2681
 21
227.163
  0
LINE
  8
0
 10
-44.2681
 20
227.163
 11
-44.2964
 21
227.387
  0
LINE
  8
0
 10
-44.2964
 20
242.387
 11
-44.2964
 21
242.613
  0
LINE
  8
0
 10
-44.2964
 20
242.613
 11
-44.2681
 21
242.837
  0
LINE
  8
0
 10
-44.2681
 20
242.837
 11
-44.2119
 21
243.056
  0
LINE
  8
0
 10
-44.2119
 20
243.056
 11
-44.1287
 21
243.266
  0
LINE
  8
0
 10
-44.1287
 20
243.266
 11
-44.0198
 21
243.464
  0
LINE
  8
0
 10
-44.0198
 20
243.464
 11
-43.8869
 21
243.647
  0
LINE
  8
0
 10
-43.8869
 20
243.647
 11
-43.7322
 21
243.812
  0
LINE
  8
0
 10
-43.7322
 20
243.812
 11
-43.558
 21
243.956
  0
LINE
  8
0
 10
-43.558
 20
243.956
 11
-43.3672
 21
244.077
  0
LINE
  8
0
 10
-43.3672
 20
244.077
 11
-43.1626
 21
244.174
  0
LINE
  8
0
 10
-43.1626
 20
244.174
 11
-42.9476
 21
244.243
  0
LINE
  8
0
 10
-42.9476
 20
244.243
 11
-42.7256
 21
244.286
  0
LINE
  8
0
 10
-42.7256
 20
244.286
 11
-42.5
 21
244.3
  0
LINE
  8
0
 10
-42.5
 20
244.3
 11
-42.2744
 21
244.286
  0
LINE
  8
0
 10
-42.2744
 20
244.286
 11
-42.0524
 21
244.243
  0
LINE
  8
0
 10
-42.0524
 20
244.243
 11
-41.8374
 21
244.174
  0
LINE
  8
0
 10
-41.8374
 20
244.174
 11
-41.6328
 21
244.077
  0
LINE
  8
0
 10
-41.6328
 20
244.077
 11
-41.442
 21
243.956
  0
LINE
  8
0
 10
-41.442
 20
243.956
 11
-41.2678
 21
243.812
  0
LINE
  8
0
 10
-41.2678
 20
243.812
 11
-41.1131
 21
243.647
  0
LINE
  8
0
 10
-41.1131
 20
243.647
 11
-40.9802
 21
243.464
  0
LINE
  8
0
 10
-40.9802
 20
243.464
 11
-40.8713
 21
243.266
  0
LINE
  8
0
 10
-40.8713
 20
243.266
 11
-40.7881
 21
243.056
  0
LINE
  8
0
 10
-40.7881
 20
243.056
 11
-40.7319
 21
242.837
  0
LINE
  8
0
 10
-40.7319
 20
242.837
 11
-40.7036
 21
242.613
  0
LINE
  8
0
 10
-40.7036
 20
242.613
 11
-40.7036
 21
242.387
  0
LINE
  8
0
 10
-40.7036
 20
242.387
 11
-40.7319
 21
242.163
  0
LINE
  8
0
 10
-40.7319
 20
242.163
 11
-40.7881
 21
241.944
  0
LINE
  8
0
 10
-40.7881
 20
241.944
 11
-40.8713
 21
241.734
  0
LINE
  8
0
 10
-40.8713
 20
241.734
 11
-40.9802
 21
241.536
  0
LINE
  8
0
 10
-40.9802
 20
241.536
 11
-41.1131
 21
241.353
  0
LINE
  8
0
 10
-41.1131
 20
241.353
 11
-41.2678
 21
241.188
  0
LINE
  8
0
 10
-41.2678
 20
241.188
 11
-41.442
 21
241.044
  0
LINE
  8
0
 10
-41.442
 20
241.044
 11
-41.6328
 21
240.923
  0
LINE
  8
0
 10
-41.6328
 20
240.923
 11
-41.8374
 21
240.826
  0
LINE
  8
0
 10
-41.8374
 20
240.826
 11
-42.0524
 21
240.757
  0
LINE
  8
0
 10
-42.0524
 20
240.757
 11
-42.2744
 21
240.714
  0
LINE
  8
0
 10
-42.2744
 20
240.714
 11
-42.5
 21
240.7
  0
LINE
  8
0
 10
-42.5
 20
240.7
 11
-42.7256
 21
240.714
  0
LINE
  8
0
 10
-42.7256
 20
240.714
 11
-42.9476
 21
240.757
  0
LINE
  8
0
 10
-42.9476
 20
240.757
 11
-43.1626
 21
240.826
  0
LINE
  8
0
 10
-43.1626
 20
240.826
 11
-43.3672
 21
240.923
  0
LINE
  8
0
 10
-43.3672
 20
240.923
 11
-43.558
 21
241.044
  0
LINE
  8
0
 10
-43.558
 20
241.044
 11
-43.7322
 21
241.188
  0
LINE
  8
0
 10
-43.7322
 20
241.188
 11
-43.8869
 21
241.353
  0
LINE
  8
0
 10
-43.8869
 20
241.353
 11
-44.0198
 21
241.536
  0
LINE
  8
0
 10
-44.0198
 20
241.536
 11
-44.1287
 21
241.734
  0
LINE
  8
0
 10
-44.1287
 20
241.734
 11
-44.2119
 21
241.944
  0
LINE
  8
0
 10
-44.2119
 20
241.944
 11
-44.2681
 21
242.163
  0
LINE
  8
0
 10
-44.2681
 20
242.163
 11
-44.2964
 21
242.387
  0
LINE
  8
0
 10
-44.2964
 20
-476.113
 11
-44.2964
 21
-475.887
  0
LINE
  8
0
 10
-44.2964
 20
-475.887
 11
-44.2681
 21
-475.663
  0
LINE
  8
0
 10
-44.2681
 20
-475.663
 11
-44.2119
 21
-475.444
  0
LINE
  8
0
 10
-44.2119
 20
-475.444
 11
-44.1287
 21
-475.234
  0
LINE
  8
0
 10
-44.1287
 20
-475.234
 11
-44.0198
 21
-475.036
  0
LINE
  8
0
 10
-44.0198
 20
-475.036
 11
-43.8869
 21
-474.853
  0
LINE
  8
0
 10
-43.8869
 20
-474.853
 11
-43.7322
 21
-474.688
  0
LINE
  8
0
 10
-43.7322
 20
-474.688
 11
-43.558
 21
-474.544
  0
LINE
  8
0
 10
-43.558
 20
-474.544
 11
-43.3672
 21
-474.423
  0
LINE
  8
0
 10
-43.3672
 20
-474.423
 11
-43.1626
 21
-474.326
  0
LINE
  8
0
 10
-43.1626
 20
-474.326
 11
-42.9476
 21
-474.257
  0
LINE
  8
0
 10
-42.9476
 20
-474.257
 11
-42.7256
 21
-474.214
  0
LINE
  8
0
 10
-42.7256
 20
-474.214
 11
-42.5
 21
-474.2
  0
LINE
  8
0
 10
-42.5
 20
-474.2
 11
-42.2744
 21
-474.214
  0
LINE
  8
0
 10
-42.2744
 20
-474.214
 11
-42.0524
 21
-474.257
  0
LINE
  8
0
 10
-42.0524
 20
-474.257
 11
-41.8374
 21
-474.326
  0
LINE
  8
0
 10
-41.8374
 20
-474.326
 11
-41.6328
 21
-474.423
  0
LINE
  8
0
 10
-41.6328
 20
-474.423
 11
-41.442
 21
-474.544
  0
LINE
  8
0
 10
-41.442
 20
-474.544
 11
-41.2678
 21
-474.688
  0
LINE
  8
0
 10
-41.2678
 20
-474.688
 11
-41.1131
 21
-474.853
  0
LINE
  8
0
 10
-41.1131
 20
-474.853
 11
-40.9802
 21
-475.036
  0
LINE
  8
0
 10
-40.9802
 20
-475.036
 11
-40.8713
 21
-475.234
  0
LINE
  8
0
 10
-40.8713
 20
-475.234
 11
-40.7881
 21
-475.444
  0
LINE
  8
0
 10
-40.7881
 20
-475.444
 11
-40.7319
 21
-475.663
  0
LINE
  8
0
 10
-40.7319
 20
-475.663
 11
-40.7036
 21
-475.887
  0
LINE
  8
0
 10
-40.7036
 20
-475.887
 11
-40.7036
 21
-476.113
  0
LINE
  8
0
 10
-40.7036
 20
-476.113
 11
-40.7319
 21
-476.337
  0
LINE
  8
0
 10
-40.7319
 20
-476.337
 11
-40.7881
 21
-476.556
  0
LINE
  8
0
 10
-40.7881
 20
-476.556
 11
-40.8713
 21
-476.766
  0
LINE
  8
0
 10
-40.8713
 20
-476.766
 11
-40.9802
 21
-476.964
  0
LINE
  8
0
 10
-40.9802
 20
-476.964
 11
-41.1131
 21
-477.147
  0
LINE
  8
0
 10
-41.1131
 20
-477.147
 11
-41.2678
 21
-477.312
  0
LINE
  8
0
 10
-41.2678
 20
-477.312
 11
-41.442
 21
-477.456
  0
LINE
  8
0
 10
-41.442
 20
-477.456
 11
-41.6328
 21
-477.577
  0
LINE
  8
0
 10
-41.6328
 20
-477.577
 11
-41.8374
 21
-477.674
  0
LINE
  8
0
 10
-41.8374
 20
-477.674
 11
-42.0524
 21
-477.743
  0
LINE
  8
0
 10
-42.0524
 20
-477.743
 11
-42.2744
 21
-477.786
  0
LINE
  8
0
 10
-42.2744
 20
-477.786
 11
-42.5
 21
-477.8
  0
LINE
  8
0
 10
-42.5
 20
-477.8
 11
-42.7256
 21
-477.786
  0
LINE
  8
0
 10
-42.7256
 20
-477.786
 11
-42.9476
 21
-477.743
  0
LINE
  8
0
 10
-42.9476
 20
-477.743
 11
-43.1626
 21
-477.674
  0
LINE
  8
0
 10
-43.1626
 20
-477.674
 11
-43.3672
 21
-477.577
  0
LINE
  8
0
 10
-43.3672
 20
-477.577
 11
-43.558
 21
-477.456
  0
LINE
  8
0
 10
-43.558
 20
-477.456
 11
-43.7322
 21
-477.312
  0
LINE
  8
0
 10
-43.7322
 20
-477.312
 11
-43.8869
 21
-477.147
  0
LINE
  8
0
 10
-43.8869
 20
-477.147
 11
-44.0198
 21
-476.964
  0
LINE
  8
0
 10
-44.0198
 20
-476.964
 11
-44.1287
 21
-476.766
  0
LINE
  8
0
 10
-44.1287
 20
-476.766
 11
-44.2119
 21
-476.556
  0
LINE
  8
0
 10
-44.2119
 20
-476.556
 11
-44.2681
 21
-476.337
  0
LINE
  8
0
 10
-44.2681
 20
-476.337
 11
-44.2964
 21
-476.113
  0
LINE
  8
0
 10
-44.2964
 20
257.387
 11
-44.2964
 21
257.613
  0
LINE
  8
0
 10
-44.2964
 20
257.613
 11
-44.2681
 21
257.837
  0
LINE
  8
0
 10
-44.2681
 20
257.837
 11
-44.2119
 21
258.056
  0
LINE
  8
0
 10
-44.2119
 20
258.056
 11
-44.1287
 21
258.266
  0
LINE
  8
0
 10
-44.1287
 20
258.266
 11
-44.0198
 21
258.464
  0
LINE
  8
0
 10
-44.0198
 20
258.464
 11
-43.8869
 21
258.647
  0
LINE
  8
0
 10
-43.8869
 20
258.647
 11
-43.7322
 21
258.812
  0
LINE
  8
0
 10
-43.7322
 20
258.812
 11
-43.558
 21
258.956
  0
LINE
  8
0
 10
-43.558
 20
258.956
 11
-43.3672
 21
259.077
  0
LINE
  8
0
 10
-43.3672
 20
259.077
 11
-43.1626
 21
259.174
  0
LINE
  8
0
 10
-43.1626
 20
259.174
 11
-42.9476
 21
259.243
  0
LINE
  8
0
 10
-42.9476
 20
259.243
 11
-42.7256
 21
259.286
  0
LINE
  8
0
 10
-42.7256
 20
259.286
 11
-42.5
 21
259.3
  0
LINE
  8
0
 10
-42.5
 20
259.3
 11
-42.2744
 21
259.286
  0
LINE
  8
0
 10
-42.2744
 20
259.286
 11
-42.0524
 21
259.243
  0
LINE
  8
0
 10
-42.0524
 20
259.243
 11
-41.8374
 21
259.174
  0
LINE
  8
0
 10
-41.8374
 20
259.174
 11
-41.6328
 21
259.077
  0
LINE
  8
0
 10
-41.6328
 20
259.077
 11
-41.442
 21
258.956
  0
LINE
  8
0
 10
-41.442
 20
258.956
 11
-41.2678
 21
258.812
  0
LINE
  8
0
 10
-41.2678
 20
258.812
 11
-41.1131
 21
258.647
  0
LINE
  8
0
 10
-41.1131
 20
258.647
 11
-40.9802
 21
258.464
  0
LINE
  8
0
 10
-40.9802
 20
258.464
 11
-40.8713
 21
258.266
  0
LINE
  8
0
 10
-40.8713
 20
258.266
 11
-40.7881
 21
258.056
  0
LINE
  8
0
 10
-40.7881
 20
258.056
 11
-40.7319
 21
257.837
  0
LINE
  8
0
 10
-40.7319
 20
257.837
 11
-40.7036
 21
257.613
  0
LINE
  8
0
 10
-40.7036
 20
257.613
 11
-40.7036
 21
257.387
  0
LINE
  8
0
 10
-40.7036
 20
257.387
 11
-40.7319
 21
257.163
  0
LINE
  8
0
 10
-40.7319
 20
257.163
 11
-40.7881
 21
256.944
  0
LINE
  8
0
 10
-40.7881
 20
256.944
 11
-40.8713
 21
256.734
  0
LINE
  8
0
 10
-40.8713
 20
256.734
 11
-40.9802
 21
256.536
  0
LINE
  8
0
 10
-40.9802
 20
256.536
 11
-41.1131
 21
256.353
  0
LINE
  8
0
 10
-41.1131
 20
256.353
 11
-41.2678
 21
256.188
  0
LINE
  8
0
 10
-41.2678
 20
256.188
 11
-41.442
 21
256.044
  0
LINE
  8
0
 10
-41.442
 20
256.044
 11
-41.6328
 21
255.923
  0
LINE
  8
0
 10
-41.6328
 20
255.923
 11
-41.8374
 21
255.826
  0
LINE
  8
0
 10
-41.8374
 20
255.826
 11
-42.0524
 21
255.757
  0
LINE
  8
0
 10
-42.0524
 20
255.757
 11
-42.2744
 21
255.714
  0
LINE
  8
0
 10
-42.2744
 20
255.714
 11
-42.5
 21
255.7
  0
LINE
  8
0
 10
-42.5
 20
255.7
 11
-42.7256
 21
255.714
  0
LINE
  8
0
 10
-42.7256
 20
255.714
 11
-42.9476
 21
255.757
  0
LINE
  8
0
 10
-42.9476
 20
255.757
 11
-43.1626
 21
255.826
  0
LINE
  8
0
 10
-43.1626
 20
255.826
 11
-43.3672
 21
255.923
  0
LINE
  8
0
 10
-43.3672
 20
255.923
 11
-43.558
 21
256.044
  0
LINE
  8
0
 10
-43.558
 20
256.044
 11
-43.7322
 21
256.188
  0
LINE
  8
0
 10
-43.7322
 20
256.188
 11
-43.8869
 21
256.353
  0
LINE
  8
0
 10
-43.8869
 20
256.353
 11
-44.0198
 21
256.536
  0
LINE
  8
0
 10
-44.0198
 20
256.536
 11
-44.1287
 21
256.734
  0
LINE
  8
0
 10
-44.1287
 20
256.734
 11
-44.2119
 21
256.944
  0
LINE
  8
0
 10
-44.2119
 20
256.944
 11
-44.2681
 21
257.163
  0
LINE
  8
0
 10
-44.2681
 20
257.163
 11
-44.2964
 21
257.387
  0
LINE
  8
0
 10
-44.2964
 20
-436.113
 11
-44.2964
 21
-435.887
  0
LINE
  8
0
 10
-44.2964
 20
-435.887
 11
-44.2681
 21
-435.663
  0
LINE
  8
0
 10
-44.2681
 20
-435.663
 11
-44.2119
 21
-435.444
  0
LINE
  8
0
 10
-44.2119
 20
-435.444
 11
-44.1287
 21
-435.234
  0
LINE
  8
0
 10
-44.1287
 20
-435.234
 11
-44.0198
 21
-435.036
  0
LINE
  8
0
 10
-44.0198
 20
-435.036
 11
-43.8869
 21
-434.853
  0
LINE
  8
0
 10
-43.8869
 20
-434.853
 11
-43.7322
 21
-434.688
  0
LINE
  8
0
 10
-43.7322
 20
-434.688
 11
-43.558
 21
-434.544
  0
LINE
  8
0
 10
-43.558
 20
-434.544
 11
-43.3672
 21
-434.423
  0
LINE
  8
0
 10
-43.3672
 20
-434.423
 11
-43.1626
 21
-434.326
  0
LINE
  8
0
 10
-43.1626
 20
-434.326
 11
-42.9476
 21
-434.257
  0
LINE
  8
0
 10
-42.9476
 20
-434.257
 11
-42.7256
 21
-434.214
  0
LINE
  8
0
 10
-42.7256
 20
-434.214
 11
-42.5
 21
-434.2
  0
LINE
  8
0
 10
-42.5
 20
-434.2
 11
-42.2744
 21
-434.214
  0
LINE
  8
0
 10
-42.2744
 20
-434.214
 11
-42.0524
 21
-434.257
  0
LINE
  8
0
 10
-42.0524
 20
-434.257
 11
-41.8374
 21
-434.326
  0
LINE
  8
0
 10
-41.8374
 20
-434.326
 11
-41.6328
 21
-434.423
  0
LINE
  8
0
 10
-41.6328
 20
-434.423
 11
-41.442
 21
-434.544
  0
LINE
  8
0
 10
-41.442
 20
-434.544
 11
-41.2678
 21
-434.688
  0
LINE
  8
0
 10
-41.2678
 20
-434.688
 11
-41.1131
 21
-434.853
  0
LINE
  8
0
 10
-41.1131
 20
-434.853
 11
-40.9802
 21
-435.036
  0
LINE
  8
0
 10
-40.9802
 20
-435.036
 11
-40.8713
 21
-435.234
  0
LINE
  8
0
 10
-40.8713
 20
-435.234
 11
-40.7881
 21
-435.444
  0
LINE
  8
0
 10
-40.7881
 20
-435.444
 11
-40.7319
 21
-435.663
  0
LINE
  8
0
 10
-40.7319
 20
-435.663
 11
-40.7036
 21
-435.887
  0
LINE
  8
0
 10
-40.7036
 20
-435.887
 11
-40.7036
 21
-436.113
  0
LINE
  8
0
 10
-40.7036
 20
-436.113
 11
-40.7319
 21
-436.337
  0
LINE
  8
0
 10
-40.7319
 20
-436.337
 11
-40.7881
 21
-436.556
  0
LINE
  8
0
 10
-40.7881
 20
-436.556
 11
-40.8713
 21
-436.766
  0
LINE
  8
0
 10
-40.8713
 20
-436.766
 11
-40.9802
 21
-436.964
  0
LINE
  8
0
 10
-40.9802
 20
-436.964
 11
-41.1131
 21
-437.147
  0
LINE
  8
0
 10
-41.1131
 20
-437.147
 11
-41.2678
 21
-437.312
  0
LINE
  8
0
 10
-41.2678
 20
-437.312
 11
-41.442
 21
-437.456
  0
LINE
  8
0
 10
-41.442
 20
-437.456
 11
-41.6328
 21
-437.577
  0
LINE
  8
0
 10
-41.6328
 20
-437.577
 11
-41.8374
 21
-437.674
  0
LINE
  8
0
 10
-41.8374
 20
-437.674
 11
-42.0524
 21
-437.743
  0
LINE
  8
0
 10
-42.0524
 20
-437.743
 11
-42.2744
 21
-437.786
  0
LINE
  8
0
 10
-42.2744
 20
-437.786
 11
-42.5
 21
-437.8
  0
LINE
  8
0
 10
-42.5
 20
-437.8
 11
-42.7256
 21
-437.786
  0
LINE
  8
0
 10
-42.7256
 20
-437.786
 11
-42.9476
 21
-437.743
  0
LINE
  8
0
 10
-42.9476
 20
-437.743
 11
-43.1626
 21
-437.674
  0
LINE
  8
0
 10
-43.1626
 20
-437.674
 11
-43.3672
 21
-437.577
  0
LINE
  8
0
 10
-43.3672
 20
-437.577
 11
-43.558
 21
-437.456
  0
LINE
  8
0
 10
-43.558
 20
-437.456
 11
-43.7322
 21
-437.312
  0
LINE
  8
0
 10
-43.7322
 20
-437.312
 11
-43.8869
 21
-437.147
  0
LINE
  8
0
 10
-43.8869
 20
-437.147
 11
-44.0198
 21
-436.964
  0
LINE
  8
0
 10
-44.0198
 20
-436.964
 11
-44.1287
 21
-436.766
  0
LINE
  8
0
 10
-44.1287
 20
-436.766
 11
-44.2119
 21
-436.556
  0
LINE
  8
0
 10
-44.2119
 20
-436.556
 11
-44.2681
 21
-436.337
  0
LINE
  8
0
 10
-44.2681
 20
-436.337
 11
-44.2964
 21
-436.113
  0
LINE
  8
0
 10
-44.2964
 20
-396.113
 11
-44.2964
 21
-395.887
  0
LINE
  8
0
 10
-44.2964
 20
-395.887
 11
-44.2681
 21
-395.663
  0
LINE
  8
0
 10
-44.2681
 20
-395.663
 11
-44.2119
 21
-395.444
  0
LINE
  8
0
 10
-44.2119
 20
-395.444
 11
-44.1287
 21
-395.234
  0
LINE
  8
0
 10
-44.1287
 20
-395.234
 11
-44.0198
 21
-395.036
  0
LINE
  8
0
 10
-44.0198
 20
-395.036
 11
-43.8869
 21
-394.853
  0
LINE
  8
0
 10
-43.8869
 20
-394.853
 11
-43.7322
 21
-394.688
  0
LINE
  8
0
 10
-43.7322
 20
-394.688
 11
-43.558
 21
-394.544
  0
LINE
  8
0
 10
-43.558
 20
-394.544
 11
-43.3672
 21
-394.423
  0
LINE
  8
0
 10
-43.3672
 20
-394.423
 11
-43.1626
 21
-394.326
  0
LINE
  8
0
 10
-43.1626
 20
-394.326
 11
-42.9476
 21
-394.257
  0
LINE
  8
0
 10
-42.9476
 20
-394.257
 11
-42.7256
 21
-394.214
  0
LINE
  8
0
 10
-42.7256
 20
-394.214
 11
-42.5
 21
-394.2
  0
LINE
  8
0
 10
-42.5
 20
-394.2
 11
-42.2744
 21
-394.214
  0
LINE
  8
0
 10
-42.2744
 20
-394.214
 11
-42.0524
 21
-394.257
  0
LINE
  8
0
 10
-42.0524
 20
-394.257
 11
-41.8374
 21
-394.326
  0
LINE
  8
0
 10
-41.8374
 20
-394.326
 11
-41.6328
 21
-394.423
  0
LINE
  8
0
 10
-41.6328
 20
-394.423
 11
-41.442
 21
-394.544
  0
LINE
  8
0
 10
-41.442
 20
-394.544
 11
-41.2678
 21
-394.688
  0
LINE
  8
0
 10
-41.2678
 20
-394.688
 11
-41.1131
 21
-394.853
  0
LINE
  8
0
 10
-41.1131
 20
-394.853
 11
-40.9802
 21
-395.036
  0
LINE
  8
0
 10
-40.9802
 20
-395.036
 11
-40.8713
 21
-395.234
  0
LINE
  8
0
 10
-40.8713
 20
-395.234
 11
-40.7881
 21
-395.444
  0
LINE
  8
0
 10
-40.7881
 20
-395.444
 11
-40.7319
 21
-395.663
  0
LINE
  8
0
 10
-40.7319
 20
-395.663
 11
-40.7036
 21
-395.887
  0
LINE
  8
0
 10
-40.7036
 20
-395.887
 11
-40.7036
 21
-396.113
  0
LINE
  8
0
 10
-40.7036
 20
-396.113
 11
-40.7319
 21
-396.337
  0
LINE
  8
0
 10
-40.7319
 20
-396.337
 11
-40.7881
 21
-396.556
  0
LINE
  8
0
 10
-40.7881
 20
-396.556
 11
-40.8713
 21
-396.766
  0
LINE
  8
0
 10
-40.8713
 20
-396.766
 11
-40.9802
 21
-396.964
  0
LINE
  8
0
 10
-40.9802
 20
-396.964
 11
-41.1131
 21
-397.147
  0
LINE
  8
0
 10
-41.1131
 20
-397.147
 11
-41.2678
 21
-397.312
  0
LINE
  8
0
 10
-41.2678
 20
-397.312
 11
-41.442
 21
-397.456
  0
LINE
  8
0
 10
-41.442
 20
-397.456
 11
-41.6328
 21
-397.577
  0
LINE
  8
0
 10
-41.6328
 20
-397.577
 11
-41.8374
 21
-397.674
  0
LINE
  8
0
 10
-41.8374
 20
-397.674
 11
-42.0524
 21
-397.743
  0
LINE
  8
0
 10
-42.0524
 20
-397.743
 11
-42.2744
 21
-397.786
  0
LINE
  8
0
 10
-42.2744
 20
-397.786
 11
-42.5
 21
-397.8
  0
LINE
  8
0
 10
-42.5
 20
-397.8
 11
-42.7256
 21
-397.786
  0
LINE
  8
0
 10
-42.7256
 20
-397.786
 11
-42.9476
 21
-397.743
  0
LINE
  8
0
 10
-42.9476
 20
-397.743
 11
-43.1626
 21
-397.674
  0
LINE
  8
0
 10
-43.1626
 20
-397.674
 11
-43.3672
 21
-397.577
  0
LINE
  8
0
 10
-43.3672
 20
-397.577
 11
-43.558
 21
-397.456
  0
LINE
  8
0
 10
-43.558
 20
-397.456
 11
-43.7322
 21
-397.312
  0
LINE
  8
0
 10
-43.7322
 20
-397.312
 11
-43.8869
 21
-397.147
  0
LINE
  8
0
 10
-43.8869
 20
-397.147
 11
-44.0198
 21
-396.964
  0
LINE
  8
0
 10
-44.0198
 20
-396.964
 11
-44.1287
 21
-396.766
  0
LINE
  8
0
 10
-44.1287
 20
-396.766
 11
-44.2119
 21
-396.556
  0
LINE
  8
0
 10
-44.2119
 20
-396.556
 11
-44.2681
 21
-396.337
  0
LINE
  8
0
 10
-44.2681
 20
-396.337
 11
-44.2964
 21
-396.113
  0
LINE
  8
0
 10
-28.2964
 20
-416.113
 11
-28.2964
 21
-415.887
  0
LINE
  8
0
 10
-28.2964
 20
-415.887
 11
-28.2681
 21
-415.663
  0
LINE
  8
0
 10
-28.2681
 20
-415.663
 11
-28.2119
 21
-415.444
  0
LINE
  8
0
 10
-28.2119
 20
-415.444
 11
-28.1287
 21
-415.234
  0
LINE
  8
0
 10
-28.1287
 20
-415.234
 11
-28.0198
 21
-415.036
  0
LINE
  8
0
 10
-28.0198
 20
-415.036
 11
-27.8869
 21
-414.853
  0
LINE
  8
0
 10
-27.8869
 20
-414.853
 11
-27.7322
 21
-414.688
  0
LINE
  8
0
 10
-27.7322
 20
-414.688
 11
-27.558
 21
-414.544
  0
LINE
  8
0
 10
-27.558
 20
-414.544
 11
-27.3672
 21
-414.423
  0
LINE
  8
0
 10
-27.3672
 20
-414.423
 11
-27.1626
 21
-414.326
  0
LINE
  8
0
 10
-27.1626
 20
-414.326
 11
-26.9476
 21
-414.257
  0
LINE
  8
0
 10
-26.9476
 20
-414.257
 11
-26.7256
 21
-414.214
  0
LINE
  8
0
 10
-26.7256
 20
-414.214
 11
-26.5
 21
-414.2
  0
LINE
  8
0
 10
-26.5
 20
-414.2
 11
-26.2744
 21
-414.214
  0
LINE
  8
0
 10
-26.2744
 20
-414.214
 11
-26.0524
 21
-414.257
  0
LINE
  8
0
 10
-26.0524
 20
-414.257
 11
-25.8374
 21
-414.326
  0
LINE
  8
0
 10
-25.8374
 20
-414.326
 11
-25.6328
 21
-414.423
  0
LINE
  8
0
 10
-25.6328
 20
-414.423
 11
-25.442
 21
-414.544
  0
LINE
  8
0
 10
-25.442
 20
-414.544
 11
-25.2678
 21
-414.688
  0
LINE
  8
0
 10
-25.2678
 20
-414.688
 11
-25.1131
 21
-414.853
  0
LINE
  8
0
 10
-25.1131
 20
-414.853
 11
-24.9802
 21
-415.036
  0
LINE
  8
0
 10
-24.9802
 20
-415.036
 11
-24.8713
 21
-415.234
  0
LINE
  8
0
 10
-24.8713
 20
-415.234
 11
-24.7881
 21
-415.444
  0
LINE
  8
0
 10
-24.7881
 20
-415.444
 11
-24.7319
 21
-415.663
  0
LINE
  8
0
 10
-24.7319
 20
-415.663
 11
-24.7036
 21
-415.887
  0
LINE
  8
0
 10
-24.7036
 20
-415.887
 11
-24.7036
 21
-416.113
  0
LINE
  8
0
 10
-24.7036
 20
-416.113
 11
-24.7319
 21
-416.337
  0
LINE
  8
0
 10
-24.7319
 20
-416.337
 11
-24.7881
 21
-416.556
  0
LINE
  8
0
 10
-24.7881
 20
-416.556
 11
-24.8713
 21
-416.766
  0
LINE
  8
0
 10
-24.8713
 20
-416.766
 11
-24.9802
 21
-416.964
  0
LINE
  8
0
 10
-24.9802
 20
-416.964
 11
-25.1131
 21
-417.147
  0
LINE
  8
0
 10
-25.1131
 20
-417.147
 11
-25.2678
 21
-417.312
  0
LINE
  8
0
 10
-25.2678
 20
-417.312
 11
-25.442
 21
-417.456
  0
LINE
  8
0
 10
-25.442
 20
-417.456
 11
-25.6328
 21
-417.577
  0
LINE
  8
0
 10
-25.6328
 20
-417.577
 11
-25.8374
 21
-417.674
  0
LINE
  8
0
 10
-25.8374
 20
-417.674
 11
-26.0524
 21
-417.743
  0
LINE
  8
0
 10
-26.0524
 20
-417.743
 11
-26.2744
 21
-417.786
  0
LINE
  8
0
 10
-26.2744
 20
-417.786
 11
-26.5
 21
-417.8
  0
LINE
  8
0
 10
-26.5
 20
-417.8
 11
-26.7256
 21
-417.786
  0
LINE
  8
0
 10
-26.7256
 20
-417.786
 11
-26.9476
 21
-417.743
  0
LINE
  8
0
 10
-26.9476
 20
-417.743
 11
-27.1626
 21
-417.674
  0
LINE
  8
0
 10
-27.1626
 20
-417.674
 11
-27.3672
 21
-417.577
  0
LINE
  8
0
 10
-27.3672
 20
-417.577
 11
-27.558
 21
-417.456
  0
LINE
  8
0
 10
-27.558
 20
-417.456
 11
-27.7322
 21
-417.312
  0
LINE
  8
0
 10
-27.7322
 20
-417.312
 11
-27.8869
 21
-417.147
  0
LINE
  8
0
 10
-27.8869
 20
-417.147
 11
-28.0198
 21
-416.964
  0
LINE
  8
0
 10
-28.0198
 20
-416.964
 11
-28.1287
 21
-416.766
  0
LINE
  8
0
 10
-28.1287
 20
-416.766
 11
-28.2119
 21
-416.556
  0
LINE
  8
0
 10
-28.2119
 20
-416.556
 11
-28.2681
 21
-416.337
  0
LINE
  8
0
 10
-28.2681
 20
-416.337
 11
-28.2964
 21
-416.113
  0
LINE
  8
0
 10
-26.2964
 20
-456.113
 11
-26.2964
 21
-455.887
  0
LINE
  8
0
 10
-26.2964
 20
-455.887
 11
-26.2681
 21
-455.663
  0
LINE
  8
0
 10
-26.2681
 20
-455.663
 11
-26.2119
 21
-455.444
  0
LINE
  8
0
 10
-26.2119
 20
-455.444
 11
-26.1287
 21
-455.234
  0
LINE
  8
0
 10
-26.1287
 20
-455.234
 11
-26.0198
 21
-455.036
  0
LINE
  8
0
 10
-26.0198
 20
-455.036
 11
-25.8869
 21
-454.853
  0
LINE
  8
0
 10
-25.8869
 20
-454.853
 11
-25.7322
 21
-454.688
  0
LINE
  8
0
 10
-25.7322
 20
-454.688
 11
-25.558
 21
-454.544
  0
LINE
  8
0
 10
-25.558
 20
-454.544
 11
-25.3672
 21
-454.423
  0
LINE
  8
0
 10
-25.3672
 20
-454.423
 11
-25.1626
 21
-454.326
  0
LINE
  8
0
 10
-25.1626
 20
-454.326
 11
-24.9476
 21
-454.257
  0
LINE
  8
0
 10
-24.9476
 20
-454.257
 11
-24.7256
 21
-454.214
  0
LINE
  8
0
 10
-24.7256
 20
-454.214
 11
-24.5
 21
-454.2
  0
LINE
  8
0
 10
-24.5
 20
-454.2
 11
-24.2744
 21
-454.214
  0
LINE
  8
0
 10
-24.2744
 20
-454.214
 11
-24.0524
 21
-454.257
  0
LINE
  8
0
 10
-24.0524
 20
-454.257
 11
-23.8374
 21
-454.326
  0
LINE
  8
0
 10
-23.8374
 20
-454.326
 11
-23.6328
 21
-454.423
  0
LINE
  8
0
 10
-23.6328
 20
-454.423
 11
-23.442
 21
-454.544
  0
LINE
  8
0
 10
-23.442
 20
-454.544
 11
-23.2678
 21
-454.688
  0
LINE
  8
0
 10
-23.2678
 20
-454.688
 11
-23.1131
 21
-454.853
  0
LINE
  8
0
 10
-23.1131
 20
-454.853
 11
-22.9802
 21
-455.036
  0
LINE
  8
0
 10
-22.9802
 20
-455.036
 11
-22.8713
 21
-455.234
  0
LINE
  8
0
 10
-22.8713
 20
-455.234
 11
-22.7881
 21
-455.444
  0
LINE
  8
0
 10
-22.7881
 20
-455.444
 11
-22.7319
 21
-455.663
  0
LINE
  8
0
 10
-22.7319
 20
-455.663
 11
-22.7036
 21
-455.887
  0
LINE
  8
0
 10
-22.7036
 20
-455.887
 11
-22.7036
 21
-456.113
  0
LINE
  8
0
 10
-22.7036
 20
-456.113
 11
-22.7319
 21
-456.337
  0
LINE
  8
0
 10
-22.7319
 20
-456.337
 11
-22.7881
 21
-456.556
  0
LINE
  8
0
 10
-22.7881
 20
-456.556
 11
-22.8713
 21
-456.766
  0
LINE
  8
0
 10
-22.8713
 20
-456.766
 11
-22.9802
 21
-456.964
  0
LINE
  8
0
 10
-22.9802
 20
-456.964
 11
-23.1131
 21
-457.147
  0
LINE
  8
0
 10
-23.1131
 20
-457.147
 11
-23.2678
 21
-457.312
  0
LINE
  8
0
 10
-23.2678
 20
-457.312
 11
-23.442
 21
-457.456
  0
LINE
  8
0
 10
-23.442
 20
-457.456
 11
-23.6328
 21
-457.577
  0
LINE
  8
0
 10
-23.6328
 20
-457.577
 11
-23.8374
 21
-457.674
  0
LINE
  8
0
 10
-23.8374
 20
-457.674
 11
-24.0524
 21
-457.743
  0
LINE
  8
0
 10
-24.0524
 20
-457.743
 11
-24.2744
 21
-457.786
  0
LINE
  8
0
 10
-24.2744
 20
-457.786
 11
-24.5
 21
-457.8
  0
LINE
  8
0
 10
-24.5
 20
-457.8
 11
-24.7256
 21
-457.786
  0
LINE
  8
0
 10
-24.7256
 20
-457.786
 11
-24.9476
 21
-457.743
  0
LINE
  8
0
 10
-24.9476
 20
-457.743
 11
-25.1626
 21
-457.674
  0
LINE
  8
0
 10
-25.1626
 20
-457.674
 11
-25.3672
 21
-457.577
  0
LINE
  8
0
 10
-25.3672
 20
-457.577
 11
-25.558
 21
-457.456
  0
LINE
  8
0
 10
-25.558
 20
-457.456
 11
-25.7322
 21
-457.312
  0
LINE
  8
0
 10
-25.7322
 20
-457.312
 11
-25.8869
 21
-457.147
  0
LINE
  8
0
 10
-25.8869
 20
-457.147
 11
-26.0198
 21
-456.964
  0
LINE
  8
0
 10
-26.0198
 20
-456.964
 11
-26.1287
 21
-456.766
  0
LINE
  8
0
 10
-26.1287
 20
-456.766
 11
-26.2119
 21
-456.556
  0
LINE
  8
0
 10
-26.2119
 20
-456.556
 11
-26.2681
 21
-456.337
  0
LINE
  8
0
 10
-26.2681
 20
-456.337
 11
-26.2964
 21
-456.113
  0
LINE
  8
0
 10
5
 20
-485
 11
55
 21
-485
  0
LINE
  8
0
 10
55
 20
-485
 11
55
 21
-372.2
  0
LINE
  8
0
 10
55
 20
-372.2
 11
54.8947
 21
-372.121
  0
LINE
  8
0
 10
54.8947
 20
-372.121
 11
54.284
 21
-371.671
  0
LINE
  8
0
 10
54.284
 20
-371.671
 11
53.2777
 21
-370.943
  0
LINE
  8
0
 10
53.2777
 20
-370.943
 11
53.1504
 21
-370.853
  0
LINE
  8
0
 10
53.1504
 20
-370.853
 11
52.9267
 21
-370.343
  0
LINE
  8
0
 10
52.9267
 20
-370.343
 11
52.9267
 21
485
  0
LINE
  8
0
 10
52.9267
 20
485
 11
52.9096
 21
485.049
  0
LINE
  8
0
 10
52.9096
 20
485.049
 11
52.9049
 21
485.063
  0
LINE
  8
0
 10
52.9049
 20
485.063
 11
52.8912
 21
485.076
  0
LINE
  8
0
 10
52.8912
 20
485.076
 11
52.8376
 21
485.128
  0
LINE
  8
0
 10
52.8376
 20
485.128
 11
52.7344
 21
485.189
  0
LINE
  8
0
 10
52.7344
 20
485.189
 11
52.7194
 21
485.198
  0
LINE
  8
0
 10
52.7194
 20
485.198
 11
52.7013
 21
485.206
  0
LINE
  8
0
 10
52.7013
 20
485.206
 11
52.5393
 21
485.275
  0
LINE
  8
0
 10
52.5393
 20
485.275
 11
52.4706
 21
485.298
  0
LINE
  8
0
 10
52.4706
 20
485.298
 11
52.3107
 21
485.35
  0
LINE
  8
0
 10
52.3107
 20
485.35
 11
52.2715
 21
485.363
  0
LINE
  8
0
 10
52.2715
 20
485.363
 11
52.1893
 21
485.386
  0
LINE
  8
0
 10
52.1893
 20
485.386
 11
51.8847
 21
485.47
  0
LINE
  8
0
 10
51.8847
 20
485.47
 11
51.6649
 21
485.522
  0
LINE
  8
0
 10
51.6649
 20
485.522
 11
51.3234
 21
485.604
  0
LINE
  8
0
 10
51.3234
 20
485.604
 11
51.1917
 21
485.633
  0
LINE
  8
0
 10
51.1917
 20
485.633
 11
50.7681
 21
485.725
  0
LINE
  8
0
 10
50.7681
 20
485.725
 11
50.4623
 21
485.788
  0
LINE
  8
0
 10
50.4623
 20
485.788
 11
49.8644
 21
485.902
  0
LINE
  8
0
 10
49.8644
 20
485.902
 11
49.0244
 21
486.063
  0
LINE
  8
0
 10
49.0244
 20
486.063
 11
48.7429
 21
486.113
  0
LINE
  8
0
 10
48.7429
 20
486.113
 11
47.7956
 21
486.275
  0
LINE
  8
0
 10
47.7956
 20
486.275
 11
46.4268
 21
486.509
  0
LINE
  8
0
 10
46.4268
 20
486.509
 11
46.3634
 21
486.519
  0
LINE
  8
0
 10
46.3634
 20
486.519
 11
46.2405
 21
486.539
  0
LINE
  8
0
 10
46.2405
 20
486.539
 11
44.7647
 21
486.767
  0
LINE
  8
0
 10
44.7647
 20
486.767
 11
43.8564
 21
486.907
  0
LINE
  8
0
 10
43.8564
 20
486.907
 11
42.0194
 21
487.172
  0
LINE
  8
0
 10
42.0194
 20
487.172
 11
41.0722
 21
487.308
  0
LINE
  8
0
 10
41.0722
 20
487.308
 11
38.7129
 21
487.621
  0
LINE
  8
0
 10
38.7129
 20
487.621
 11
38.1181
 21
487.698
  0
LINE
  8
0
 10
38.1181
 20
487.698
 11
35.6533
 21
487.987
  0
LINE
  8
0
 10
35.6533
 20
487.987
 11
35.0407
 21
488.058
  0
LINE
  8
0
 10
35.0407
 20
488.058
 11
32.8878
 21
488.279
  0
LINE
  8
0
 10
32.8878
 20
488.279
 11
31.8886
 21
488.381
  0
LINE
  8
0
 10
31.8886
 20
488.381
 11
30.7903
 21
488.475
  0
LINE
  8
0
 10
30.7903
 20
488.475
 11
28.7114
 21
488.653
  0
LINE
  8
0
 10
28.7114
 20
488.653
 11
27.0153
 21
488.762
  0
LINE
  8
0
 10
27.0153
 20
488.762
 11
25.5592
 21
488.857
  0
LINE
  8
0
 10
25.5592
 20
488.857
 11
24.0771
 21
488.915
  0
LINE
  8
0
 10
24.0771
 20
488.915
 11
22.4819
 21
488.979
  0
LINE
  8
0
 10
22.4819
 20
488.979
 11
20.9842
 21
488.993
  0
LINE
  8
0
 10
20.9842
 20
488.993
 11
19.5278
 21
489.007
  0
LINE
  8
0
 10
19.5278
 20
489.007
 11
18.1305
 21
488.969
  0
LINE
  8
0
 10
18.1305
 20
488.969
 11
16.7436
 21
488.932
  0
LINE
  8
0
 10
16.7436
 20
488.932
 11
15.3449
 21
488.832
  0
LINE
  8
0
 10
15.3449
 20
488.832
 11
14.1732
 21
488.748
  0
LINE
  8
0
 10
14.1732
 20
488.748
 11
13.1813
 21
488.623
  0
LINE
  8
0
 10
13.1813
 20
488.623
 11
11.8571
 21
488.457
  0
LINE
  8
0
 10
11.8571
 20
488.457
 11
11.1727
 21
488.323
  0
LINE
  8
0
 10
11.1727
 20
488.323
 11
9.83186
 21
488.062
  0
LINE
  8
0
 10
9.83186
 20
488.062
 11
9.49692
 21
487.966
  0
LINE
  8
0
 10
9.49692
 20
487.966
 11
8.29338
 21
487.621
  0
LINE
  8
0
 10
8.29338
 20
487.621
 11
8.12944
 21
487.573
  0
LINE
  8
0
 10
8.12944
 20
487.573
 11
7.14203
 21
487.147
  0
LINE
  8
0
 10
7.14203
 20
487.147
 11
6.77664
 21
486.99
  0
LINE
  8
0
 10
6.77664
 20
486.99
 11
6.09769
 21
486.539
  0
LINE
  8
0
 10
6.09769
 20
486.539
 11
5.79484
 21
486.329
  0
LINE
  8
0
 10
5.79484
 20
486.329
 11
5.62863
 21
486.123
  0
LINE
  8
0
 10
5.62863
 20
486.123
 11
5.58001
 21
486.063
  0
LINE
  8
0
 10
5.58001
 20
486.063
 11
5.44753
 21
485.888
  0
LINE
  8
0
 10
5.44753
 20
485.888
 11
5.37144
 21
485.788
  0
LINE
  8
0
 10
5.37144
 20
485.788
 11
5.26409
 21
485.635
  0
LINE
  8
0
 10
5.26409
 20
485.635
 11
5.24281
 21
485.604
  0
LINE
  8
0
 10
5.24281
 20
485.604
 11
5.19949
 21
485.536
  0
LINE
  8
0
 10
5.19949
 20
485.536
 11
5.18634
 21
485.47
  0
LINE
  8
0
 10
5.18634
 20
485.47
 11
5.1679
 21
485.363
  0
LINE
  8
0
 10
5.1679
 20
485.363
 11
5.15501
 21
485.275
  0
LINE
  8
0
 10
5.15501
 20
485.275
 11
5.1461
 21
485.198
  0
LINE
  8
0
 10
5.1461
 20
485.198
 11
5.14024
 21
485.128
  0
LINE
  8
0
 10
5.14024
 20
485.128
 11
5.13692
 21
485.063
  0
LINE
  8
0
 10
5.13692
 20
485.063
 11
5.13584
 21
485
  0
LINE
  8
0
 10
5.13584
 20
485
 11
5.13584
 21
485
  0
LINE
  8
0
 10
5.13584
 20
485
 11
5.13584
 21
-368.999
  0
LINE
  8
0
 10
5.13584
 20
-368.999
 11
5.1338
 21
-368.999
  0
LINE
  8
0
 10
5.1338
 20
-368.999
 11
5.03393
 21
-370.227
  0
LINE
  8
0
 10
5.03393
 20
-370.227
 11
5
 21
-370.644
  0
LINE
  8
0
 10
5
 20
-370.644
 11
5
 21
-485
  0
LINE
  8
0
 10
15.7036
 20
227.387
 11
15.7036
 21
227.613
  0
LINE
  8
0
 10
15.7036
 20
227.613
 11
15.7319
 21
227.837
  0
LINE
  8
0
 10
15.7319
 20
227.837
 11
15.7881
 21
228.056
  0
LINE
  8
0
 10
15.7881
 20
228.056
 11
15.8713
 21
228.266
  0
LINE
  8
0
 10
15.8713
 20
228.266
 11
15.9802
 21
228.464
  0
LINE
  8
0
 10
15.9802
 20
228.464
 11
16.1131
 21
228.647
  0
LINE
  8
0
 10
16.1131
 20
228.647
 11
16.2678
 21
228.812
  0
LINE
  8
0
 10
16.2678
 20
228.812
 11
16.442
 21
228.956
  0
LINE
  8
0
 10
16.442
 20
228.956
 11
16.6328
 21
229.077
  0
LINE
  8
0
 10
16.6328
 20
229.077
 11
16.8374
 21
229.174
  0
LINE
  8
0
 10
16.8374
 20
229.174
 11
17.0524
 21
229.243
  0
LINE
  8
0
 10
17.0524
 20
229.243
 11
17.2744
 21
229.286
  0
LINE
  8
0
 10
17.2744
 20
229.286
 11
17.5
 21
229.3
  0
LINE
  8
0
 10
17.5
 20
229.3
 11
17.7256
 21
229.286
  0
LINE
  8
0
 10
17.7256
 20
229.286
 11
17.9476
 21
229.243
  0
LINE
  8
0
 10
17.9476
 20
229.243
 11
18.1626
 21
229.174
  0
LINE
  8
0
 10
18.1626
 20
229.174
 11
18.3672
 21
229.077
  0
LINE
  8
0
 10
18.3672
 20
229.077
 11
18.558
 21
228.956
  0
LINE
  8
0
 10
18.558
 20
228.956
 11
18.7322
 21
228.812
  0
LINE
  8
0
 10
18.7322
 20
228.812
 11
18.8869
 21
228.647
  0
LINE
  8
0
 10
18.8869
 20
228.647
 11
19.0198
 21
228.464
  0
LINE
  8
0
 10
19.0198
 20
228.464
 11
19.1287
 21
228.266
  0
LINE
  8
0
 10
19.1287
 20
228.266
 11
19.2119
 21
228.056
  0
LINE
  8
0
 10
19.2119
 20
228.056
 11
19.2681
 21
227.837
  0
LINE
  8
0
 10
19.2681
 20
227.837
 11
19.2964
 21
227.613
  0
LINE
  8
0
 10
19.2964
 20
227.613
 11
19.2964
 21
227.387
  0
LINE
  8
0
 10
19.2964
 20
227.387
 11
19.2681
 21
227.163
  0
LINE
  8
0
 10
19.2681
 20
227.163
 11
19.2119
 21
226.944
  0
LINE
  8
0
 10
19.2119
 20
226.944
 11
19.1287
 21
226.734
  0
LINE
  8
0
 10
19.1287
 20
226.734
 11
19.0198
 21
226.536
  0
LINE
  8
0
 10
19.0198
 20
226.536
 11
18.8869
 21
226.353
  0
LINE
  8
0
 10
18.8869
 20
226.353
 11
18.7322
 21
226.188
  0
LINE
  8
0
 10
18.7322
 20
226.188
 11
18.558
 21
226.044
  0
LINE
  8
0
 10
18.558
 20
226.044
 11
18.3672
 21
225.923
  0
LINE
  8
0
 10
18.3672
 20
225.923
 11
18.1626
 21
225.826
  0
LINE
  8
0
 10
18.1626
 20
225.826
 11
17.9476
 21
225.757
  0
LINE
  8
0
 10
17.9476
 20
225.757
 11
17.7256
 21
225.714
  0
LINE
  8
0
 10
17.7256
 20
225.714
 11
17.5
 21
225.7
  0
LINE
  8
0
 10
17.5
 20
225.7
 11
17.2744
 21
225.714
  0
LINE
  8
0
 10
17.2744
 20
225.714
 11
17.0524
 21
225.757
  0
LINE
  8
0
 10
17.0524
 20
225.757
 11
16.8374
 21
225.826
  0
LINE
  8
0
 10
16.8374
 20
225.826
 11
16.6328
 21
225.923
  0
LINE
  8
0
 10
16.6328
 20
225.923
 11
16.442
 21
226.044
  0
LINE
  8
0
 10
16.442
 20
226.044
 11
16.2678
 21
226.188
  0
LINE
  8
0
 10
16.2678
 20
226.188
 11
16.1131
 21
226.353
  0
LINE
  8
0
 10
16.1131
 20
226.353
 11
15.9802
 21
226.536
  0
LINE
  8
0
 10
15.9802
 20
226.536
 11
15.8713
 21
226.734
  0
LINE
  8
0
 10
15.8713
 20
226.734
 11
15.7881
 21
226.944
  0
LINE
  8
0
 10
15.7881
 20
226.944
 11
15.7319
 21
227.163
  0
LINE
  8
0
 10
15.7319
 20
227.163
 11
15.7036
 21
227.387
  0
LINE
  8
0
 10
15.7036
 20
242.387
 11
15.7036
 21
242.613
  0
LINE
  8
0
 10
15.7036
 20
242.613
 11
15.7319
 21
242.837
  0
LINE
  8
0
 10
15.7319
 20
242.837
 11
15.7881
 21
243.056
  0
LINE
  8
0
 10
15.7881
 20
243.056
 11
15.8713
 21
243.266
  0
LINE
  8
0
 10
15.8713
 20
243.266
 11
15.9802
 21
243.464
  0
LINE
  8
0
 10
15.9802
 20
243.464
 11
16.1131
 21
243.647
  0
LINE
  8
0
 10
16.1131
 20
243.647
 11
16.2678
 21
243.812
  0
LINE
  8
0
 10
16.2678
 20
243.812
 11
16.442
 21
243.956
  0
LINE
  8
0
 10
16.442
 20
243.956
 11
16.6328
 21
244.077
  0
LINE
  8
0
 10
16.6328
 20
244.077
 11
16.8374
 21
244.174
  0
LINE
  8
0
 10
16.8374
 20
244.174
 11
17.0524
 21
244.243
  0
LINE
  8
0
 10
17.0524
 20
244.243
 11
17.2744
 21
244.286
  0
LINE
  8
0
 10
17.2744
 20
244.286
 11
17.5
 21
244.3
  0
LINE
  8
0
 10
17.5
 20
244.3
 11
17.7256
 21
244.286
  0
LINE
  8
0
 10
17.7256
 20
244.286
 11
17.9476
 21
244.243
  0
LINE
  8
0
 10
17.9476
 20
244.243
 11
18.1626
 21
244.174
  0
LINE
  8
0
 10
18.1626
 20
244.174
 11
18.3672
 21
244.077
  0
LINE
  8
0
 10
18.3672
 20
244.077
 11
18.558
 21
243.956
  0
LINE
  8
0
 10
18.558
 20
243.956
 11
18.7322
 21
243.812
  0
LINE
  8
0
 10
18.7322
 20
243.812
 11
18.8869
 21
243.647
  0
LINE
  8
0
 10
18.8869
 20
243.647
 11
19.0198
 21
243.464
  0
LINE
  8
0
 10
19.0198
 20
243.464
 11
19.1287
 21
243.266
  0
LINE
  8
0
 10
19.1287
 20
243.266
 11
19.2119
 21
243.056
  0
LINE
  8
0
 10
19.2119
 20
243.056
 11
19.2681
 21
242.837
  0
LINE
  8
0
 10
19.2681
 20
242.837
 11
19.2964
 21
242.613
  0
LINE
  8
0
 10
19.2964
 20
242.613
 11
19.2964
 21
242.387
  0
LINE
  8
0
 10
19.2964
 20
242.387
 11
19.2681
 21
242.163
  0
LINE
  8
0
 10
19.2681
 20
242.163
 11
19.2119
 21
241.944
  0
LINE
  8
0
 10
19.2119
 20
241.944
 11
19.1287
 21
241.734
  0
LINE
  8
0
 10
19.1287
 20
241.734
 11
19.0198
 21
241.536
  0
LINE
  8
0
 10
19.0198
 20
241.536
 11
18.8869
 21
241.353
  0
LINE
  8
0
 10
18.8869
 20
241.353
 11
18.7322
 21
241.188
  0
LINE
  8
0
 10
18.7322
 20
241.188
 11
18.558
 21
241.044
  0
LINE
  8
0
 10
18.558
 20
241.044
 11
18.3672
 21
240.923
  0
LINE
  8
0
 10
18.3672
 20
240.923
 11
18.1626
 21
240.826
  0
LINE
  8
0
 10
18.1626
 20
240.826
 11
17.9476
 21
240.757
  0
LINE
  8
0
 10
17.9476
 20
240.757
 11
17.7256
 21
240.714
  0
LINE
  8
0
 10
17.7256
 20
240.714
 11
17.5
 21
240.7
  0
LINE
  8
0
 10
17.5
 20
240.7
 11
17.2744
 21
240.714
  0
LINE
  8
0
 10
17.2744
 20
240.714
 11
17.0524
 21
240.757
  0
LINE
  8
0
 10
17.0524
 20
240.757
 11
16.8374
 21
240.826
  0
LINE
  8
0
 10
16.8374
 20
240.826
 11
16.6328
 21
240.923
  0
LINE
  8
0
 10
16.6328
 20
240.923
 11
16.442
 21
241.044
  0
LINE
  8
0
 10
16.442
 20
241.044
 11
16.2678
 21
241.188
  0
LINE
  8
0
 10
16.2678
 20
241.188
 11
16.1131
 21
241.353
  0
LINE
  8
0
 10
16.1131
 20
241.353
 11
15.9802
 21
241.536
  0
LINE
  8
0
 10
15.9802
 20
241.536
 11
15.8713
 21
241.734
  0
LINE
  8
0
 10
15.8713
 20
241.734
 11
15.7881
 21
241.944
  0
LINE
  8
0
 10
15.7881
 20
241.944
 11
15.7319
 21
242.163
  0
LINE
  8
0
 10
15.7319
 20
242.163
 11
15.7036
 21
242.387
  0
LINE
  8
0
 10
15.7036
 20
-476.113
 11
15.7036
 21
-475.887
  0
LINE
  8
0
 10
15.7036
 20
-475.887
 11
15.7319
 21
-475.663
  0
LINE
  8
0
 10
15.7319
 20
-475.663
 11
15.7881
 21
-475.444
  0
LINE
  8
0
 10
15.7881
 20
-475.444
 11
15.8713
 21
-475.234
  0
LINE
  8
0
 10
15.8713
 20
-475.234
 11
15.9802
 21
-475.036
  0
LINE
  8
0
 10
15.9802
 20
-475.036
 11
16.1131
 21
-474.853
  0
LINE
  8
0
 10
16.1131
 20
-474.853
 11
16.2678
 21
-474.688
  0
LINE
  8
0
 10
16.2678
 20
-474.688
 11
16.442
 21
-474.544
  0
LINE
  8
0
 10
16.442
 20
-474.544
 11
16.6328
 21
-474.423
  0
LINE
  8
0
 10
16.6328
 20
-474.423
 11
16.8374
 21
-474.326
  0
LINE
  8
0
 10
16.8374
 20
-474.326
 11
17.0524
 21
-474.257
  0
LINE
  8
0
 10
17.0524
 20
-474.257
 11
17.2744
 21
-474.214
  0
LINE
  8
0
 10
17.2744
 20
-474.214
 11
17.5
 21
-474.2
  0
LINE
  8
0
 10
17.5
 20
-474.2
 11
17.7256
 21
-474.214
  0
LINE
  8
0
 10
17.7256
 20
-474.214
 11
17.9476
 21
-474.257
  0
LINE
  8
0
 10
17.9476
 20
-474.257
 11
18.1626
 21
-474.326
  0
LINE
  8
0
 10
18.1626
 20
-474.326
 11
18.3672
 21
-474.423
  0
LINE
  8
0
 10
18.3672
 20
-474.423
 11
18.558
 21
-474.544
  0
LINE
  8
0
 10
18.558
 20
-474.544
 11
18.7322
 21
-474.688
  0
LINE
  8
0
 10
18.7322
 20
-474.688
 11
18.8869
 21
-474.853
  0
LINE
  8
0
 10
18.8869
 20
-474.853
 11
19.0198
 21
-475.036
  0
LINE
  8
0
 10
19.0198
 20
-475.036
 11
19.1287
 21
-475.234
  0
LINE
  8
0
 10
19.1287
 20
-475.234
 11
19.2119
 21
-475.444
  0
LINE
  8
0
 10
19.2119
 20
-475.444
 11
19.2681
 21
-475.663
  0
LINE
  8
0
 10
19.2681
 20
-475.663
 11
19.2964
 21
-475.887
  0
LINE
  8
0
 10
19.2964
 20
-475.887
 11
19.2964
 21
-476.113
  0
LINE
  8
0
 10
19.2964
 20
-476.113
 11
19.2681
 21
-476.337
  0
LINE
  8
0
 10
19.2681
 20
-476.337
 11
19.2119
 21
-476.556
  0
LINE
  8
0
 10
19.2119
 20
-476.556
 11
19.1287
 21
-476.766
  0
LINE
  8
0
 10
19.1287
 20
-476.766
 11
19.0198
 21
-476.964
  0
LINE
  8
0
 10
19.0198
 20
-476.964
 11
18.8869
 21
-477.147
  0
LINE
  8
0
 10
18.8869
 20
-477.147
 11
18.7322
 21
-477.312
  0
LINE
  8
0
 10
18.7322
 20
-477.312
 11
18.558
 21
-477.456
  0
LINE
  8
0
 10
18.558
 20
-477.456
 11
18.3672
 21
-477.577
  0
LINE
  8
0
 10
18.3672
 20
-477.577
 11
18.1626
 21
-477.674
  0
LINE
  8
0
 10
18.1626
 20
-477.674
 11
17.9476
 21
-477.743
  0
LINE
  8
0
 10
17.9476
 20
-477.743
 11
17.7256
 21
-477.786
  0
LINE
  8
0
 10
17.7256
 20
-477.786
 11
17.5
 21
-477.8
  0
LINE
  8
0
 10
17.5
 20
-477.8
 11
17.2744
 21
-477.786
  0
LINE
  8
0
 10
17.2744
 20
-477.786
 11
17.0524
 21
-477.743
  0
LINE
  8
0
 10
17.0524
 20
-477.743
 11
16.8374
 21
-477.674
  0
LINE
  8
0
 10
16.8374
 20
-477.674
 11
16.6328
 21
-477.577
  0
LINE
  8
0
 10
16.6328
 20
-477.577
 11
16.442
 21
-477.456
  0
LINE
  8
0
 10
16.442
 20
-477.456
 11
16.2678
 21
-477.312
  0
LINE
  8
0
 10
16.2678
 20
-477.312
 11
16.1131
 21
-477.147
  0
LINE
  8
0
 10
16.1131
 20
-477.147
 11
15.9802
 21
-476.964
  0
LINE
  8
0
 10
15.9802
 20
-476.964
 11
15.8713
 21
-476.766
  0
LINE
  8
0
 10
15.8713
 20
-476.766
 11
15.7881
 21
-476.556
  0
LINE
  8
0
 10
15.7881
 20
-476.556
 11
15.7319
 21
-476.337
  0
LINE
  8
0
 10
15.7319
 20
-476.337
 11
15.7036
 21
-476.113
  0
LINE
  8
0
 10
15.7036
 20
257.387
 11
15.7036
 21
257.613
  0
LINE
  8
0
 10
15.7036
 20
257.613
 11
15.7319
 21
257.837
  0
LINE
  8
0
 10
15.7319
 20
257.837
 11
15.7881
 21
258.056
  0
LINE
  8
0
 10
15.7881
 20
258.056
 11
15.8713
 21
258.266
  0
LINE
  8
0
 10
15.8713
 20
258.266
 11
15.9802
 21
258.464
  0
LINE
  8
0
 10
15.9802
 20
258.464
 11
16.1131
 21
258.647
  0
LINE
  8
0
 10
16.1131
 20
258.647
 11
16.2678
 21
258.812
  0
LINE
  8
0
 10
16.2678
 20
258.812
 11
16.442
 21
258.956
  0
LINE
  8
0
 10
16.442
 20
258.956
 11
16.6328
 21
259.077
  0
LINE
  8
0
 10
16.6328
 20
259.077
 11
16.8374
 21
259.174
  0
LINE
  8
0
 10
16.8374
 20
259.174
 11
17.0524
 21
259.243
  0
LINE
  8
0
 10
17.0524
 20
259.243
 11
17.2744
 21
259.286
  0
LINE
  8
0
 10
17.2744
 20
259.286
 11
17.5
 21
259.3
  0
LINE
  8
0
 10
17.5
 20
259.3
 11
17.7256
 21
259.286
  0
LINE
  8
0
 10
17.7256
 20
259.286
 11
17.9476
 21
259.243
  0
LINE
  8
0
 10
17.9476
 20
259.243
 11
18.1626
 21
259.174
  0
LINE
  8
0
 10
18.1626
 20
259.174
 11
18.3672
 21
259.077
  0
LINE
  8
0
 10
18.3672
 20
259.077
 11
18.558
 21
258.956
  0
LINE
  8
0
 10
18.558
 20
258.956
 11
18.7322
 21
258.812
  0
LINE
  8
0
 10
18.7322
 20
258.812
 11
18.8869
 21
258.647
  0
LINE
  8
0
 10
18.8869
 20
258.647
 11
19.0198
 21
258.464
  0
LINE
  8
0
 10
19.0198
 20
258.464
 11
19.1287
 21
258.266
  0
LINE
  8
0
 10
19.1287
 20
258.266
 11
19.2119
 21
258.056
  0
LINE
  8
0
 10
19.2119
 20
258.056
 11
19.2681
 21
257.837
  0
LINE
  8
0
 10
19.2681
 20
257.837
 11
19.2964
 21
257.613
  0
LINE
  8
0
 10
19.2964
 20
257.613
 11
19.2964
 21
257.387
  0
LINE
  8
0
 10
19.2964
 20
257.387
 11
19.2681
 21
257.163
  0
LINE
  8
0
 10
19.2681
 20
257.163
 11
19.2119
 21
256.944
  0
LINE
  8
0
 10
19.2119
 20
256.944
 11
19.1287
 21
256.734
  0
LINE
  8
0
 10
19.1287
 20
256.734
 11
19.0198
 21
256.536
  0
LINE
  8
0
 10
19.0198
 20
256.536
 11
18.8869
 21
256.353
  0
LINE
  8
0
 10
18.8869
 20
256.353
 11
18.7322
 21
256.188
  0
LINE
  8
0
 10
18.7322
 20
256.188
 11
18.558
 21
256.044
  0
LINE
  8
0
 10
18.558
 20
256.044
 11
18.3672
 21
255.923
  0
LINE
  8
0
 10
18.3672
 20
255.923
 11
18.1626
 21
255.826
  0
LINE
  8
0
 10
18.1626
 20
255.826
 11
17.9476
 21
255.757
  0
LINE
  8
0
 10
17.9476
 20
255.757
 11
17.7256
 21
255.714
  0
LINE
  8
0
 10
17.7256
 20
255.714
 11
17.5
 21
255.7
  0
LINE
  8
0
 10
17.5
 20
255.7
 11
17.2744
 21
255.714
  0
LINE
  8
0
 10
17.2744
 20
255.714
 11
17.0524
 21
255.757
  0
LINE
  8
0
 10
17.0524
 20
255.757
 11
16.8374
 21
255.826
  0
LINE
  8
0
 10
16.8374
 20
255.826
 11
16.6328
 21
255.923
  0
LINE
  8
0
 10
16.6328
 20
255.923
 11
16.442
 21
256.044
  0
LINE
  8
0
 10
16.442
 20
256.044
 11
16.2678
 21
256.188
  0
LINE
  8
0
 10
16.2678
 20
256.188
 11
16.1131
 21
256.353
  0
LINE
  8
0
 10
16.1131
 20
256.353
 11
15.9802
 21
256.536
  0
LINE
  8
0
 10
15.9802
 20
256.536
 11
15.8713
 21
256.734
  0
LINE
  8
0
 10
15.8713
 20
256.734
 11
15.7881
 21
256.944
  0
LINE
  8
0
 10
15.7881
 20
256.944
 11
15.7319
 21
257.163
  0
LINE
  8
0
 10
15.7319
 20
257.163
 11
15.7036
 21
257.387
  0
LINE
  8
0
 10
15.7036
 20
-436.113
 11
15.7036
 21
-435.887
  0
LINE
  8
0
 10
15.7036
 20
-435.887
 11
15.7319
 21
-435.663
  0
LINE
  8
0
 10
15.7319
 20
-435.663
 11
15.7881
 21
-435.444
  0
LINE
  8
0
 10
15.7881
 20
-435.444
 11
15.8713
 21
-435.234
  0
LINE
  8
0
 10
15.8713
 20
-435.234
 11
15.9802
 21
-435.036
  0
LINE
  8
0
 10
15.9802
 20
-435.036
 11
16.1131
 21
-434.853
  0
LINE
  8
0
 10
16.1131
 20
-434.853
 11
16.2678
 21
-434.688
  0
LINE
  8
0
 10
16.2678
 20
-434.688
 11
16.442
 21
-434.544
  0
LINE
  8
0
 10
16.442
 20
-434.544
 11
16.6328
 21
-434.423
  0
LINE
  8
0
 10
16.6328
 20
-434.423
 11
16.8374
 21
-434.326
  0
LINE
  8
0
 10
16.8374
 20
-434.326
 11
17.0524
 21
-434.257
  0
LINE
  8
0
 10
17.0524
 20
-434.257
 11
17.2744
 21
-434.214
  0
LINE
  8
0
 10
17.2744
 20
-434.214
 11
17.5
 21
-434.2
  0
LINE
  8
0
 10
17.5
 20
-434.2
 11
17.7256
 21
-434.214
  0
LINE
  8
0
 10
17.7256
 20
-434.214
 11
17.9476
 21
-434.257
  0
LINE
  8
0
 10
17.9476
 20
-434.257
 11
18.1626
 21
-434.326
  0
LINE
  8
0
 10
18.1626
 20
-434.326
 11
18.3672
 21
-434.423
  0
LINE
  8
0
 10
18.3672
 20
-434.423
 11
18.558
 21
-434.544
  0
LINE
  8
0
 10
18.558
 20
-434.544
 11
18.7322
 21
-434.688
  0
LINE
  8
0
 10
18.7322
 20
-434.688
 11
18.8869
 21
-434.853
  0
LINE
  8
0
 10
18.8869
 20
-434.853
 11
19.0198
 21
-435.036
  0
LINE
  8
0
 10
19.0198
 20
-435.036
 11
19.1287
 21
-435.234
  0
LINE
  8
0
 10
19.1287
 20
-435.234
 11
19.2119
 21
-435.444
  0
LINE
  8
0
 10
19.2119
 20
-435.444
 11
19.2681
 21
-435.663
  0
LINE
  8
0
 10
19.2681
 20
-435.663
 11
19.2964
 21
-435.887
  0
LINE
  8
0
 10
19.2964
 20
-435.887
 11
19.2964
 21
-436.113
  0
LINE
  8
0
 10
19.2964
 20
-436.113
 11
19.2681
 21
-436.337
  0
LINE
  8
0
 10
19.2681
 20
-436.337
 11
19.2119
 21
-436.556
  0
LINE
  8
0
 10
19.2119
 20
-436.556
 11
19.1287
 21
-436.766
  0
LINE
  8
0
 10
19.1287
 20
-436.766
 11
19.0198
 21
-436.964
  0
LINE
  8
0
 10
19.0198
 20
-436.964
 11
18.8869
 21
-437.147
  0
LINE
  8
0
 10
18.8869
 20
-437.147
 11
18.7322
 21
-437.312
  0
LINE
  8
0
 10
18.7322
 20
-437.312
 11
18.558
 21
-437.456
  0
LINE
  8
0
 10
18.558
 20
-437.456
 11
18.3672
 21
-437.577
  0
LINE
  8
0
 10
18.3672
 20
-437.577
 11
18.1626
 21
-437.674
  0
LINE
  8
0
 10
18.1626
 20
-437.674
 11
17.9476
 21
-437.743
  0
LINE
  8
0
 10
17.9476
 20
-437.743
 11
17.7256
 21
-437.786
  0
LINE
  8
0
 10
17.7256
 20
-437.786
 11
17.5
 21
-437.8
  0
LINE
  8
0
 10
17.5
 20
-437.8
 11
17.2744
 21
-437.786
  0
LINE
  8
0
 10
17.2744
 20
-437.786
 11
17.0524
 21
-437.743
  0
LINE
  8
0
 10
17.0524
 20
-437.743
 11
16.8374
 21
-437.674
  0
LINE
  8
0
 10
16.8374
 20
-437.674
 11
16.6328
 21
-437.577
  0
LINE
  8
0
 10
16.6328
 20
-437.577
 11
16.442
 21
-437.456
  0
LINE
  8
0
 10
16.442
 20
-437.456
 11
16.2678
 21
-437.312
  0
LINE
  8
0
 10
16.2678
 20
-437.312
 11
16.1131
 21
-437.147
  0
LINE
  8
0
 10
16.1131
 20
-437.147
 11
15.9802
 21
-436.964
  0
LINE
  8
0
 10
15.9802
 20
-436.964
 11
15.8713
 21
-436.766
  0
LINE
  8
0
 10
15.8713
 20
-436.766
 11
15.7881
 21
-436.556
  0
LINE
  8
0
 10
15.7881
 20
-436.556
 11
15.7319
 21
-436.337
  0
LINE
  8
0
 10
15.7319
 20
-436.337
 11
15.7036
 21
-436.113
  0
LINE
  8
0
 10
15.7036
 20
-396.113
 11
15.7036
 21
-395.887
  0
LINE
  8
0
 10
15.7036
 20
-395.887
 11
15.7319
 21
-395.663
  0
LINE
  8
0
 10
15.7319
 20
-395.663
 11
15.7881
 21
-395.444
  0
LINE
  8
0
 10
15.7881
 20
-395.444
 11
15.8713
 21
-395.234
  0
LINE
  8
0
 10
15.8713
 20
-395.234
 11
15.9802
 21
-395.036
  0
LINE
  8
0
 10
15.9802
 20
-395.036
 11
16.1131
 21
-394.853
  0
LINE
  8
0
 10
16.1131
 20
-394.853
 11
16.2678
 21
-394.688
  0
LINE
  8
0
 10
16.2678
 20
-394.688
 11
16.442
 21
-394.544
  0
LINE
  8
0
 10
16.442
 20
-394.544
 11
16.6328
 21
-394.423
  0
LINE
  8
0
 10
16.6328
 20
-394.423
 11
16.8374
 21
-394.326
  0
LINE
  8
0
 10
16.8374
 20
-394.326
 11
17.0524
 21
-394.257
  0
LINE
  8
0
 10
17.0524
 20
-394.257
 11
17.2744
 21
-394.214
  0
LINE
  8
0
 10
17.2744
 20
-394.214
 11
17.5
 21
-394.2
  0
LINE
  8
0
 10
17.5
 20
-394.2
 11
17.7256
 21
-394.214
  0
LINE
  8
0
 10
17.7256
 20
-394.214
 11
17.9476
 21
-394.257
  0
LINE
  8
0
 10
17.9476
 20
-394.257
 11
18.1626
 21
-394.326
  0
LINE
  8
0
 10
18.1626
 20
-394.326
 11
18.3672
 21
-394.423
  0
LINE
  8
0
 10
18.3672
 20
-394.423
 11
18.558
 21
-394.544
  0
LINE
  8
0
 10
18.558
 20
-394.544
 11
18.7322
 21
-394.688
  0
LINE
  8
0
 10
18.7322
 20
-394.688
 11
18.8869
 21
-394.853
  0
LINE
  8
0
 10
18.8869
 20
-394.853
 11
19.0198
 21
-395.036
  0
LINE
  8
0
 10
19.0198
 20
-395.036
 11
19.1287
 21
-395.234
  0
LINE
  8
0
 10
19.1287
 20
-395.234
 11
19.2119
 21
-395.444
  0
LINE
  8
0
 10
19.2119
 20
-395.444
 11
19.2681
 21
-395.663
  0
LINE
  8
0
 10
19.2681
 20
-395.663
 11
19.2964
 21
-395.887
  0
LINE
  8
0
 10
19.2964
 20
-395.887
 11
19.2964
 21
-396.113
  0
LINE
  8
0
 10
19.2964
 20
-396.113
 11
19.2681
 21
-396.337
  0
LINE
  8
0
 10
19.2681
 20
-396.337
 11
19.2119
 21
-396.556
  0
LINE
  8
0
 10
19.2119
 20
-396.556
 11
19.1287
 21
-396.766
  0
LINE
  8
0
 10
19.1287
 20
-396.766
 11
19.0198
 21
-396.964
  0
LINE
  8
0
 10
19.0198
 20
-396.964
 11
18.8869
 21
-397.147
  0
LINE
  8
0
 10
18.8869
 20
-397.147
 11
18.7322
 21
-397.312
  0
LINE
  8
0
 10
18.7322
 20
-397.312
 11
18.558
 21
-397.456
  0
LINE
  8
0
 10
18.558
 20
-397.456
 11
18.3672
 21
-397.577
  0
LINE
  8
0
 10
18.3672
 20
-397.577
 11
18.1626
 21
-397.674
  0
LINE
  8
0
 10
18.1626
 20
-397.674
 11
17.9476
 21
-397.743
  0
LINE
  8
0
 10
17.9476
 20
-397.743
 11
17.7256
 21
-397.786
  0
LINE
  8
0
 10
17.7256
 20
-397.786
 11
17.5
 21
-397.8
  0
LINE
  8
0
 10
17.5
 20
-397.8
 11
17.2744
 21
-397.786
  0
LINE
  8
0
 10
17.2744
 20
-397.786
 11
17.0524
 21
-397.743
  0
LINE
  8
0
 10
17.0524
 20
-397.743
 11
16.8374
 21
-397.674
  0
LINE
  8
0
 10
16.8374
 20
-397.674
 11
16.6328
 21
-397.577
  0
LINE
  8
0
 10
16.6328
 20
-397.577
 11
16.442
 21
-397.456
  0
LINE
  8
0
 10
16.442
 20
-397.456
 11
16.2678
 21
-397.312
  0
LINE
  8
0
 10
16.2678
 20
-397.312
 11
16.1131
 21
-397.147
  0
LINE
  8
0
 10
16.1131
 20
-397.147
 11
15.9802
 21
-396.964
  0
LINE
  8
0
 10
15.9802
 20
-396.964
 11
15.8713
 21
-396.766
  0
LINE
  8
0
 10
15.8713
 20
-396.766
 11
15.7881
 21
-396.556
  0
LINE
  8
0
 10
15.7881
 20
-396.556
 11
15.7319
 21
-396.337
  0
LINE
  8
0
 10
15.7319
 20
-396.337
 11
15.7036
 21
-396.113
  0
LINE
  8
0
 10
31.7036
 20
-416.113
 11
31.7036
 21
-415.887
  0
LINE
  8
0
 10
31.7036
 20
-415.887
 11
31.7319
 21
-415.663
  0
LINE
  8
0
 10
31.7319
 20
-415.663
 11
31.7881
 21
-415.444
  0
LINE
  8
0
 10
31.7881
 20
-415.444
 11
31.8713
 21
-415.234
  0
LINE
  8
0
 10
31.8713
 20
-415.234
 11
31.9802
 21
-415.036
  0
LINE
  8
0
 10
31.9802
 20
-415.036
 11
32.1131
 21
-414.853
  0
LINE
  8
0
 10
32.1131
 20
-414.853
 11
32.2678
 21
-414.688
  0
LINE
  8
0
 10
32.2678
 20
-414.688
 11
32.442
 21
-414.544
  0
LINE
  8
0
 10
32.442
 20
-414.544
 11
32.6328
 21
-414.423
  0
LINE
  8
0
 10
32.6328
 20
-414.423
 11
32.8374
 21
-414.326
  0
LINE
  8
0
 10
32.8374
 20
-414.326
 11
33.0524
 21
-414.257
  0
LINE
  8
0
 10
33.0524
 20
-414.257
 11
33.2744
 21
-414.214
  0
LINE
  8
0
 10
33.2744
 20
-414.214
 11
33.5
 21
-414.2
  0
LINE
  8
0
 10
33.5
 20
-414.2
 11
33.7256
 21
-414.214
  0
LINE
  8
0
 10
33.7256
 20
-414.214
 11
33.9476
 21
-414.257
  0
LINE
  8
0
 10
33.9476
 20
-414.257
 11
34.1626
 21
-414.326
  0
LINE
  8
0
 10
34.1626
 20
-414.326
 11
34.3672
 21
-414.423
  0
LINE
  8
0
 10
34.3672
 20
-414.423
 11
34.558
 21
-414.544
  0
LINE
  8
0
 10
34.558
 20
-414.544
 11
34.7322
 21
-414.688
  0
LINE
  8
0
 10
34.7322
 20
-414.688
 11
34.8869
 21
-414.853
  0
LINE
  8
0
 10
34.8869
 20
-414.853
 11
35.0198
 21
-415.036
  0
LINE
  8
0
 10
35.0198
 20
-415.036
 11
35.1287
 21
-415.234
  0
LINE
  8
0
 10
35.1287
 20
-415.234
 11
35.2119
 21
-415.444
  0
LINE
  8
0
 10
35.2119
 20
-415.444
 11
35.2681
 21
-415.663
  0
LINE
  8
0
 10
35.2681
 20
-415.663
 11
35.2964
 21
-415.887
  0
LINE
  8
0
 10
35.2964
 20
-415.887
 11
35.2964
 21
-416.113
  0
LINE
  8
0
 10
35.2964
 20
-416.113
 11
35.2681
 21
-416.337
  0
LINE
  8
0
 10
35.2681
 20
-416.337
 11
35.2119
 21
-416.556
  0
LINE
  8
0
 10
35.2119
 20
-416.556
 11
35.1287
 21
-416.766
  0
LINE
  8
0
 10
35.1287
 20
-416.766
 11
35.0198
 21
-416.964
  0
LINE
  8
0
 10
35.0198
 20
-416.964
 11
34.8869
 21
-417.147
  0
LINE
  8
0
 10
34.8869
 20
-417.147
 11
34.7322
 21
-417.312
  0
LINE
  8
0
 10
34.7322
 20
-417.312
 11
34.558
 21
-417.456
  0
LINE
  8
0
 10
34.558
 20
-417.456
 11
34.3672
 21
-417.577
  0
LINE
  8
0
 10
34.3672
 20
-417.577
 11
34.1626
 21
-417.674
  0
LINE
  8
0
 10
34.1626
 20
-417.674
 11
33.9476
 21
-417.743
  0
LINE
  8
0
 10
33.9476
 20
-417.743
 11
33.7256
 21
-417.786
  0
LINE
  8
0
 10
33.7256
 20
-417.786
 11
33.5
 21
-417.8
  0
LINE
  8
0
 10
33.5
 20
-417.8
 11
33.2744
 21
-417.786
  0
LINE
  8
0
 10
33.2744
 20
-417.786
 11
33.0524
 21
-417.743
  0
LINE
  8
0
 10
33.0524
 20
-417.743
 11
32.8374
 21
-417.674
  0
LINE
  8
0
 10
32.8374
 20
-417.674
 11
32.6328
 21
-417.577
  0
LINE
  8
0
 10
32.6328
 20
-417.577
 11
32.442
 21
-417.456
  0
LINE
  8
0
 10
32.442
 20
-417.456
 11
32.2678
 21
-417.312
  0
LINE
  8
0
 10
32.2678
 20
-417.312
 11
32.1131
 21
-417.147
  0
LINE
  8
0
 10
32.1131
 20
-417.147
 11
31.9802
 21
-416.964
  0
LINE
  8
0
 10
31.9802
 20
-416.964
 11
31.8713
 21
-416.766
  0
LINE
  8
0
 10
31.8713
 20
-416.766
 11
31.7881
 21
-416.556
  0
LINE
  8
0
 10
31.7881
 20
-416.556
 11
31.7319
 21
-416.337
  0
LINE
  8
0
 10
31.7319
 20
-416.337
 11
31.7036
 21
-416.113
  0
LINE
  8
0
 10
33.7036
 20
-456.113
 11
33.7036
 21
-455.887
  0
LINE
  8
0
 10
33.7036
 20
-455.887
 11
33.7319
 21
-455.663
  0
LINE
  8
0
 10
33.7319
 20
-455.663
 11
33.7881
 21
-455.444
  0
LINE
  8
0
 10
33.7881
 20
-455.444
 11
33.8713
 21
-455.234
  0
LINE
  8
0
 10
33.8713
 20
-455.234
 11
33.9802
 21
-455.036
  0
LINE
  8
0
 10
33.9802
 20
-455.036
 11
34.1131
 21
-454.853
  0
LINE
  8
0
 10
34.1131
 20
-454.853
 11
34.2678
 21
-454.688
  0
LINE
  8
0
 10
34.2678
 20
-454.688
 11
34.442
 21
-454.544
  0
LINE
  8
0
 10
34.442
 20
-454.544
 11
34.6328
 21
-454.423
  0
LINE
  8
0
 10
34.6328
 20
-454.423
 11
34.8374
 21
-454.326
  0
LINE
  8
0
 10
34.8374
 20
-454.326
 11
35.0524
 21
-454.257
  0
LINE
  8
0
 10
35.0524
 20
-454.257
 11
35.2744
 21
-454.214
  0
LINE
  8
0
 10
35.2744
 20
-454.214
 11
35.5
 21
-454.2
  0
LINE
  8
0
 10
35.5
 20
-454.2
 11
35.7256
 21
-454.214
  0
LINE
  8
0
 10
35.7256
 20
-454.214
 11
35.9476
 21
-454.257
  0
LINE
  8
0
 10
35.9476
 20
-454.257
 11
36.1626
 21
-454.326
  0
LINE
  8
0
 10
36.1626
 20
-454.326
 11
36.3672
 21
-454.423
  0
LINE
  8
0
 10
36.3672
 20
-454.423
 11
36.558
 21
-454.544
  0
LINE
  8
0
 10
36.558
 20
-454.544
 11
36.7322
 21
-454.688
  0
LINE
  8
0
 10
36.7322
 20
-454.688
 11
36.8869
 21
-454.853
  0
LINE
  8
0
 10
36.8869
 20
-454.853
 11
37.0198
 21
-455.036
  0
LINE
  8
0
 10
37.0198
 20
-455.036
 11
37.1287
 21
-455.234
  0
LINE
  8
0
 10
37.1287
 20
-455.234
 11
37.2119
 21
-455.444
  0
LINE
  8
0
 10
37.2119
 20
-455.444
 11
37.2681
 21
-455.663
  0
LINE
  8
0
 10
37.2681
 20
-455.663
 11
37.2964
 21
-455.887
  0
LINE
  8
0
 10
37.2964
 20
-455.887
 11
37.2964
 21
-456.113
  0
LINE
  8
0
 10
37.2964
 20
-456.113
 11
37.2681
 21
-456.337
  0
LINE
  8
0
 10
37.2681
 20
-456.337
 11
37.2119
 21
-456.556
  0
LINE
  8
0
 10
37.2119
 20
-456.556
 11
37.1287
 21
-456.766
  0
LINE
  8
0
 10
37.1287
 20
-456.766
 11
37.0198
 21
-456.964
  0
LINE
  8
0
 10
37.0198
 20
-456.964
 11
36.8869
 21
-457.147
  0
LINE
  8
0
 10
36.8869
 20
-457.147
 11
36.7322
 21
-457.312
  0
LINE
  8
0
 10
36.7322
 20
-457.312
 11
36.558
 21
-457.456
  0
LINE
  8
0
 10
36.558
 20
-457.456
 11
36.3672
 21
-457.577
  0
LINE
  8
0
 10
36.3672
 20
-457.577
 11
36.1626
 21
-457.674
  0
LINE
  8
0
 10
36.1626
 20
-457.674
 11
35.9476
 21
-457.743
  0
LINE
  8
0
 10
35.9476
 20
-457.743
 11
35.7256
 21
-457.786
  0
LINE
  8
0
 10
35.7256
 20
-457.786
 11
35.5
 21
-457.8
  0
LINE
  8
0
 10
35.5
 20
-457.8
 11
35.2744
 21
-457.786
  0
LINE
  8
0
 10
35.2744
 20
-457.786
 11
35.0524
 21
-457.743
  0
LINE
  8
0
 10
35.0524
 20
-457.743
 11
34.8374
 21
-457.674
  0
LINE
  8
0
 10
34.8374
 20
-457.674
 11
34.6328
 21
-457.577
  0
LINE
  8
0
 10
34.6328
 20
-457.577
 11
34.442
 21
-457.456
  0
LINE
  8
0
 10
34.442
 20
-457.456
 11
34.2678
 21
-457.312
  0
LINE
  8
0
 10
34.2678
 20
-457.312
 11
34.1131
 21
-457.147
  0
LINE
  8
0
 10
34.1131
 20
-457.147
 11
33.9802
 21
-456.964
  0
LINE
  8
0
 10
33.9802
 20
-456.964
 11
33.8713
 21
-456.766
  0
LINE
  8
0
 10
33.8713
 20
-456.766
 11
33.7881
 21
-456.556
  0
LINE
  8
0
 10
33.7881
 20
-456.556
 11
33.7319
 21
-456.337
  0
LINE
  8
0
 10
33.7319
 20
-456.337
 11
33.7036
 21
-456.113
  0
LINE
  8
0
 10
65
 20
-485
 11
115
 21
-485
  0
LINE
  8
0
 10
115
 20
-485
 11
115
 21
-372.2
  0
LINE
  8
0
 10
115
 20
-372.2
 11
114.895
 21
-372.121
  0
LINE
  8
0
 10
114.895
 20
-372.121
 11
114.284
 21
-371.671
  0
LINE
  8
0
 10
114.284
 20
-371.671
 11
113.278
 21
-370.943
  0
LINE
  8
0
 10
113.278
 20
-370.943
 11
113.15
 21
-370.853
  0
LINE
  8
0
 10
113.15
 20
-370.853
 11
112.927
 21
-370.343
  0
LINE
  8
0
 10
112.927
 20
-370.343
 11
112.927
 21
485
  0
LINE
  8
0
 10
112.927
 20
485
 11
112.91
 21
485.049
  0
LINE
  8
0
 10
112.91
 20
485.049
 11
112.905
 21
485.063
  0
LINE
  8
0
 10
112.905
 20
485.063
 11
112.891
 21
485.076
  0
LINE
  8
0
 10
112.891
 20
485.076
 11
112.838
 21
485.128
  0
LINE
  8
0
 10
112.838
 20
485.128
 11
112.734
 21
485.189
  0
LINE
  8
0
 10
112.734
 20
485.189
 11
112.719
 21
485.198
  0
LINE
  8
0
 10
112.719
 20
485.198
 11
112.701
 21
485.206
  0
LINE
  8
0
 10
112.701
 20
485.206
 11
112.539
 21
485.275
  0
LINE
  8
0
 10
112.539
 20
485.275
 11
112.471
 21
485.298
  0
LINE
  8
0
 10
112.471
 20
485.298
 11
112.311
 21
485.35
  0
LINE
  8
0
 10
112.311
 20
485.35
 11
112.271
 21
485.363
  0
LINE
  8
0
 10
112.271
 20
485.363
 11
112.189
 21
485.386
  0
LINE
  8
0
 10
112.189
 20
485.386
 11
111.885
 21
485.47
  0
LINE
  8
0
 10
111.885
 20
485.47
 11
111.665
 21
485.522
  0
LINE
  8
0
 10
111.665
 20
485.522
 11
111.323
 21
485.604
  0
LINE
  8
0
 10
111.323
 20
485.604
 11
111.192
 21
485.633
  0
LINE
  8
0
 10
111.192
 20
485.633
 11
110.768
 21
485.725
  0
LINE
  8
0
 10
110.768
 20
485.725
 11
110.462
 21
485.788
  0
LINE
  8
0
 10
110.462
 20
485.788
 11
109.864
 21
485.902
  0
LINE
  8
0
 10
109.864
 20
485.902
 11
109.024
 21
486.063
  0
LINE
  8
0
 10
109.024
 20
486.063
 11
108.743
 21
486.113
  0
LINE
  8
0
 10
108.743
 20
486.113
 11
107.796
 21
486.275
  0
LINE
  8
0
 10
107.796
 20
486.275
 11
106.427
 21
486.509
  0
LINE
  8
0
 10
106.427
 20
486.509
 11
106.363
 21
486.519
  0
LINE
  8
0
 10
106.363
 20
486.519
 11
106.241
 21
486.539
  0
LINE
  8
0
 10
106.241
 20
486.539
 11
104.765
 21
486.767
  0
LINE
  8
0
 10
104.765
 20
486.767
 11
103.856
 21
486.907
  0
LINE
  8
0
 10
103.856
 20
486.907
 11
102.019
 21
487.172
  0
LINE
  8
0
 10
102.019
 20
487.172
 11
101.072
 21
487.308
  0
LINE
  8
0
 10
101.072
 20
487.308
 11
98.7129
 21
487.621
  0
LINE
  8
0
 10
98.7129
 20
487.621
 11
98.1181
 21
487.698
  0
LINE
  8
0
 10
98.1181
 20
487.698
 11
95.6533
 21
487.987
  0
LINE
  8
0
 10
95.6533
 20
487.987
 11
95.0407
 21
488.058
  0
LINE
  8
0
 10
95.0407
 20
488.058
 11
92.8878
 21
488.279
  0
LINE
  8
0
 10
92.8878
 20
488.279
 11
91.8886
 21
488.381
  0
LINE
  8
0
 10
91.8886
 20
488.381
 11
90.7903
 21
488.475
  0
LINE
  8
0
 10
90.7903
 20
488.475
 11
88.7114
 21
488.653
  0
LINE
  8
0
 10
88.7114
 20
488.653
 11
87.0153
 21
488.762
  0
LINE
  8
0
 10
87.0153
 20
488.762
 11
85.5592
 21
488.857
  0
LINE
  8
0
 10
85.5592
 20
488.857
 11
84.0771
 21
488.915
  0
LINE
  8
0
 10
84.0771
 20
488.915
 11
82.4819
 21
488.979
  0
LINE
  8
0
 10
82.4819
 20
488.979
 11
80.9842
 21
488.993
  0
LINE
  8
0
 10
80.9842
 20
488.993
 11
79.5278
 21
489.007
  0
LINE
  8
0
 10
79.5278
 20
489.007
 11
78.1305
 21
488.969
  0
LINE
  8
0
 10
78.1305
 20
488.969
 11
76.7436
 21
488.932
  0
LINE
  8
0
 10
76.7436
 20
488.932
 11
75.3449
 21
488.832
  0
LINE
  8
0
 10
75.3449
 20
488.832
 11
74.1732
 21
488.748
  0
LINE
  8
0
 10
74.1732
 20
488.748
 11
73.1813
 21
488.623
  0
LINE
  8
0
 10
73.1813
 20
488.623
 11
71.8571
 21
488.457
  0
LINE
  8
0
 10
71.8571
 20
488.457
 11
71.1727
 21
488.323
  0
LINE
  8
0
 10
71.1727
 20
488.323
 11
69.8319
 21
488.062
  0
LINE
  8
0
 10
69.8319
 20
488.062
 11
69.4969
 21
487.966
  0
LINE
  8
0
 10
69.4969
 20
487.966
 11
68.2934
 21
487.621
  0
LINE
  8
0
 10
68.2934
 20
487.621
 11
68.1294
 21
487.573
  0
LINE
  8
0
 10
68.1294
 20
487.573
 11
67.142
 21
487.147
  0
LINE
  8
0
 10
67.142
 20
487.147
 11
66.7766
 21
486.99
  0
LINE
  8
0
 10
66.7766
 20
486.99
 11
66.0977
 21
486.539
  0
LINE
  8
0
 10
66.0977
 20
486.539
 11
65.7948
 21
486.329
  0
LINE
  8
0
 10
65.7948
 20
486.329
 11
65.6286
 21
486.123
  0
LINE
  8
0
 10
65.6286
 20
486.123
 11
65.58
 21
486.063
  0
LINE
  8
0
 10
65.58
 20
486.063
 11
65.4475
 21
485.888
  0
LINE
  8
0
 10
65.4475
 20
485.888
 11
65.3714
 21
485.788
  0
LINE
  8
0
 10
65.3714
 20
485.788
 11
65.2641
 21
485.635
  0
LINE
  8
0
 10
65.2641
 20
485.635
 11
65.2428
 21
485.604
  0
LINE
  8
0
 10
65.2428
 20
485.604
 11
65.1995
 21
485.536
  0
LINE
  8
0
 10
65.1995
 20
485.536
 11
65.1863
 21
485.47
  0
LINE
  8
0
 10
65.1863
 20
485.47
 11
65.1679
 21
485.363
  0
LINE
  8
0
 10
65.1679
 20
485.363
 11
65.155
 21
485.275
  0
LINE
  8
0
 10
65.155
 20
485.275
 11
65.1461
 21
485.198
  0
LINE
  8
0
 10
65.1461
 20
485.198
 11
65.1402
 21
485.128
  0
LINE
  8
0
 10
65.1402
 20
485.128
 11
65.1369
 21
485.063
  0
LINE
  8
0
 10
65.1369
 20
485.063
 11
65.1358
 21
485
  0
LINE
  8
0
 10
65.1358
 20
485
 11
65.1358
 21
485
  0
LINE
  8
0
 10
65.1358
 20
485
 11
65.1358
 21
-368.999
  0
LINE
  8
0
 10
65.1358
 20
-368.999
 11
65.1338
 21
-368.999
  0
LINE
  8
0
 10
65.1338
 20
-368.999
 11
65.0339
 21
-370.227
  0
LINE
  8
0
 10
65.0339
 20
-370.227
 11
65
 21
-370.644
  0
LINE
  8
0
 10
65
 20
-370.644
 11
65
 21
-485
  0
LINE
  8
0
 10
75.7036
 20
227.387
 11
75.7036
 21
227.613
  0
LINE
  8
0
 10
75.7036
 20
227.613
 11
75.7319
 21
227.837
  0
LINE
  8
0
 10
75.7319
 20
227.837
 11
75.7881
 21
228.056
  0
LINE
  8
0
 10
75.7881
 20
228.056
 11
75.8713
 21
228.266
  0
LINE
  8
0
 10
75.8713
 20
228.266
 11
75.9802
 21
228.464
  0
LINE
  8
0
 10
75.9802
 20
228.464
 11
76.1131
 21
228.647
  0
LINE
  8
0
 10
76.1131
 20
228.647
 11
76.2678
 21
228.812
  0
LINE
  8
0
 10
76.2678
 20
228.812
 11
76.442
 21
228.956
  0
LINE
  8
0
 10
76.442
 20
228.956
 11
76.6328
 21
229.077
  0
LINE
  8
0
 10
76.6328
 20
229.077
 11
76.8374
 21
229.174
  0
LINE
  8
0
 10
76.8374
 20
229.174
 11
77.0524
 21
229.243
  0
LINE
  8
0
 10
77.0524
 20
229.243
 11
77.2744
 21
229.286
  0
LINE
  8
0
 10
77.2744
 20
229.286
 11
77.5
 21
229.3
  0
LINE
  8
0
 10
77.5
 20
229.3
 11
77.7256
 21
229.286
  0
LINE
  8
0
 10
77.7256
 20
229.286
 11
77.9476
 21
229.243
  0
LINE
  8
0
 10
77.9476
 20
229.243
 11
78.1626
 21
229.174
  0
LINE
  8
0
 10
78.1626
 20
229.174
 11
78.3672
 21
229.077
  0
LINE
  8
0
 10
78.3672
 20
229.077
 11
78.558
 21
228.956
  0
LINE
  8
0
 10
78.558
 20
228.956
 11
78.7322
 21
228.812
  0
LINE
  8
0
 10
78.7322
 20
228.812
 11
78.8869
 21
228.647
  0
LINE
  8
0
 10
78.8869
 20
228.647
 11
79.0198
 21
228.464
  0
LINE
  8
0
 10
79.0198
 20
228.464
 11
79.1287
 21
228.266
  0
LINE
  8
0
 10
79.1287
 20
228.266
 11
79.2119
 21
228.056
  0
LINE
  8
0
 10
79.2119
 20
228.056
 11
79.2681
 21
227.837
  0
LINE
  8
0
 10
79.2681
 20
227.837
 11
79.2964
 21
227.613
  0
LINE
  8
0
 10
79.2964
 20
227.613
 11
79.2964
 21
227.387
  0
LINE
  8
0
 10
79.2964
 20
227.387
 11
79.2681
 21
227.163
  0
LINE
  8
0
 10
79.2681
 20
227.163
 11
79.2119
 21
226.944
  0
LINE
  8
0
 10
79.2119
 20
226.944
 11
79.1287
 21
226.734
  0
LINE
  8
0
 10
79.1287
 20
226.734
 11
79.0198
 21
226.536
  0
LINE
  8
0
 10
79.0198
 20
226.536
 11
78.8869
 21
226.353
  0
LINE
  8
0
 10
78.8869
 20
226.353
 11
78.7322
 21
226.188
  0
LINE
  8
0
 10
78.7322
 20
226.188
 11
78.558
 21
226.044
  0
LINE
  8
0
 10
78.558
 20
226.044
 11
78.3672
 21
225.923
  0
LINE
  8
0
 10
78.3672
 20
225.923
 11
78.1626
 21
225.826
  0
LINE
  8
0
 10
78.1626
 20
225.826
 11
77.9476
 21
225.757
  0
LINE
  8
0
 10
77.9476
 20
225.757
 11
77.7256
 21
225.714
  0
LINE
  8
0
 10
77.7256
 20
225.714
 11
77.5
 21
225.7
  0
LINE
  8
0
 10
77.5
 20
225.7
 11
77.2744
 21
225.714
  0
LINE
  8
0
 10
77.2744
 20
225.714
 11
77.0524
 21
225.757
  0
LINE
  8
0
 10
77.0524
 20
225.757
 11
76.8374
 21
225.826
  0
LINE
  8
0
 10
76.8374
 20
225.826
 11
76.6328
 21
225.923
  0
LINE
  8
0
 10
76.6328
 20
225.923
 11
76.442
 21
226.044
  0
LINE
  8
0
 10
76.442
 20
226.044
 11
76.2678
 21
226.188
  0
LINE
  8
0
 10
76.2678
 20
226.188
 11
76.1131
 21
226.353
  0
LINE
  8
0
 10
76.1131
 20
226.353
 11
75.9802
 21
226.536
  0
LINE
  8
0
 10
75.9802
 20
226.536
 11
75.8713
 21
226.734
  0
LINE
  8
0
 10
75.8713
 20
226.734
 11
75.7881
 21
226.944
  0
LINE
  8
0
 10
75.7881
 20
226.944
 11
75.7319
 21
227.163
  0
LINE
  8
0
 10
75.7319
 20
227.163
 11
75.7036
 21
227.387
  0
LINE
  8
0
 10
75.7036
 20
242.387
 11
75.7036
 21
242.613
  0
LINE
  8
0
 10
75.7036
 20
242.613
 11
75.7319
 21
242.837
  0
LINE
  8
0
 10
75.7319
 20
242.837
 11
75.7881
 21
243.056
  0
LINE
  8
0
 10
75.7881
 20
243.056
 11
75.8713
 21
243.266
  0
LINE
  8
0
 10
75.8713
 20
243.266
 11
75.9802
 21
243.464
  0
LINE
  8
0
 10
75.9802
 20
243.464
 11
76.1131
 21
243.647
  0
LINE
  8
0
 10
76.1131
 20
243.647
 11
76.2678
 21
243.812
  0
LINE
  8
0
 10
76.2678
 20
243.812
 11
76.442
 21
243.956
  0
LINE
  8
0
 10
76.442
 20
243.956
 11
76.6328
 21
244.077
  0
LINE
  8
0
 10
76.6328
 20
244.077
 11
76.8374
 21
244.174
  0
LINE
  8
0
 10
76.8374
 20
244.174
 11
77.0524
 21
244.243
  0
LINE
  8
0
 10
77.0524
 20
244.243
 11
77.2744
 21
244.286
  0
LINE
  8
0
 10
77.2744
 20
244.286
 11
77.5
 21
244.3
  0
LINE
  8
0
 10
77.5
 20
244.3
 11
77.7256
 21
244.286
  0
LINE
  8
0
 10
77.7256
 20
244.286
 11
77.9476
 21
244.243
  0
LINE
  8
0
 10
77.9476
 20
244.243
 11
78.1626
 21
244.174
  0
LINE
  8
0
 10
78.1626
 20
244.174
 11
78.3672
 21
244.077
  0
LINE
  8
0
 10
78.3672
 20
244.077
 11
78.558
 21
243.956
  0
LINE
  8
0
 10
78.558
 20
243.956
 11
78.7322
 21
243.812
  0
LINE
  8
0
 10
78.7322
 20
243.812
 11
78.8869
 21
243.647
  0
LINE
  8
0
 10
78.8869
 20
243.647
 11
79.0198
 21
243.464
  0
LINE
  8
0
 10
79.0198
 20
243.464
 11
79.1287
 21
243.266
  0
LINE
  8
0
 10
79.1287
 20
243.266
 11
79.2119
 21
243.056
  0
LINE
  8
0
 10
79.2119
 20
243.056
 11
79.2681
 21
242.837
  0
LINE
  8
0
 10
79.2681
 20
242.837
 11
79.2964
 21
242.613
  0
LINE
  8
0
 10
79.2964
 20
242.613
 11
79.2964
 21
242.387
  0
LINE
  8
0
 10
79.2964
 20
242.387
 11
79.2681
 21
242.163
  0
LINE
  8
0
 10
79.2681
 20
242.163
 11
79.2119
 21
241.944
  0
LINE
  8
0
 10
79.2119
 20
241.944
 11
79.1287
 21
241.734
  0
LINE
  8
0
 10
79.1287
 20
241.734
 11
79.0198
 21
241.536
  0
LINE
  8
0
 10
79.0198
 20
241.536
 11
78.8869
 21
241.353
  0
LINE
  8
0
 10
78.8869
 20
241.353
 11
78.7322
 21
241.188
  0
LINE
  8
0
 10
78.7322
 20
241.188
 11
78.558
 21
241.044
  0
LINE
  8
0
 10
78.558
 20
241.044
 11
78.3672
 21
240.923
  0
LINE
  8
0
 10
78.3672
 20
240.923
 11
78.1626
 21
240.826
  0
LINE
  8
0
 10
78.1626
 20
240.826
 11
77.9476
 21
240.757
  0
LINE
  8
0
 10
77.9476
 20
240.757
 11
77.7256
 21
240.714
  0
LINE
  8
0
 10
77.7256
 20
240.714
 11
77.5
 21
240.7
  0
LINE
  8
0
 10
77.5
 20
240.7
 11
77.2744
 21
240.714
  0
LINE
  8
0
 10
77.2744
 20
240.714
 11
77.0524
 21
240.757
  0
LINE
  8
0
 10
77.0524
 20
240.757
 11
76.8374
 21
240.826
  0
LINE
  8
0
 10
76.8374
 20
240.826
 11
76.6328
 21
240.923
  0
LINE
  8
0
 10
76.6328
 20
240.923
 11
76.442
 21
241.044
  0
LINE
  8
0
 10
76.442
 20
241.044
 11
76.2678
 21
241.188
  0
LINE
  8
0
 10
76.2678
 20
241.188
 11
76.1131
 21
241.353
  0
LINE
  8
0
 10
76.1131
 20
241.353
 11
75.9802
 21
241.536
  0
LINE
  8
0
 10
75.9802
 20
241.536
 11
75.8713
 21
241.734
  0
LINE
  8
0
 10
75.8713
 20
241.734
 11
75.7881
 21
241.944
  0
LINE
  8
0
 10
75.7881
 20
241.944
 11
75.7319
 21
242.163
  0
LINE
  8
0
 10
75.7319
 20
242.163
 11
75.7036
 21
242.387
  0
LINE
  8
0
 10
75.7036
 20
-476.113
 11
75.7036
 21
-475.887
  0
LINE
  8
0
 10
75.7036
 20
-475.887
 11
75.7319
 21
-475.663
  0
LINE
  8
0
 10
75.7319
 20
-475.663
 11
75.7881
 21
-475.444
  0
LINE
  8
0
 10
75.7881
 20
-475.444
 11
75.8713
 21
-475.234
  0
LINE
  8
0
 10
75.8713
 20
-475.234
 11
75.9802
 21
-475.036
  0
LINE
  8
0
 10
75.9802
 20
-475.036
 11
76.1131
 21
-474.853
  0
LINE
  8
0
 10
76.1131
 20
-474.853
 11
76.2678
 21
-474.688
  0
LINE
  8
0
 10
76.2678
 20
-474.688
 11
76.442
 21
-474.544
  0
LINE
  8
0
 10
76.442
 20
-474.544
 11
76.6328
 21
-474.423
  0
LINE
  8
0
 10
76.6328
 20
-474.423
 11
76.8374
 21
-474.326
  0
LINE
  8
0
 10
76.8374
 20
-474.326
 11
77.0524
 21
-474.257
  0
LINE
  8
0
 10
77.0524
 20
-474.257
 11
77.2744
 21
-474.214
  0
LINE
  8
0
 10
77.2744
 20
-474.214
 11
77.5
 21
-474.2
  0
LINE
  8
0
 10
77.5
 20
-474.2
 11
77.7256
 21
-474.214
  0
LINE
  8
0
 10
77.7256
 20
-474.214
 11
77.9476
 21
-474.257
  0
LINE
  8
0
 10
77.9476
 20
-474.257
 11
78.1626
 21
-474.326
  0
LINE
  8
0
 10
78.1626
 20
-474.326
 11
78.3672
 21
-474.423
  0
LINE
  8
0
 10
78.3672
 20
-474.423
 11
78.558
 21
-474.544
  0
LINE
  8
0
 10
78.558
 20
-474.544
 11
78.7322
 21
-474.688
  0
LINE
  8
0
 10
78.7322
 20
-474.688
 11
78.8869
 21
-474.853
  0
LINE
  8
0
 10
78.8869
 20
-474.853
 11
79.0198
 21
-475.036
  0
LINE
  8
0
 10
79.0198
 20
-475.036
 11
79.1287
 21
-475.234
  0
LINE
  8
0
 10
79.1287
 20
-475.234
 11
79.2119
 21
-475.444
  0
LINE
  8
0
 10
79.2119
 20
-475.444
 11
79.2681
 21
-475.663
  0
LINE
  8
0
 10
79.2681
 20
-475.663
 11
79.2964
 21
-475.887
  0
LINE
  8
0
 10
79.2964
 20
-475.887
 11
79.2964
 21
-476.113
  0
LINE
  8
0
 10
79.2964
 20
-476.113
 11
79.2681
 21
-476.337
  0
LINE
  8
0
 10
79.2681
 20
-476.337
 11
79.2119
 21
-476.556
  0
LINE
  8
0
 10
79.2119
 20
-476.556
 11
79.1287
 21
-476.766
  0
LINE
  8
0
 10
79.1287
 20
-476.766
 11
79.0198
 21
-476.964
  0
LINE
  8
0
 10
79.0198
 20
-476.964
 11
78.8869
 21
-477.147
  0
LINE
  8
0
 10
78.8869
 20
-477.147
 11
78.7322
 21
-477.312
  0
LINE
  8
0
 10
78.7322
 20
-477.312
 11
78.558
 21
-477.456
  0
LINE
  8
0
 10
78.558
 20
-477.456
 11
78.3672
 21
-477.577
  0
LINE
  8
0
 10
78.3672
 20
-477.577
 11
78.1626
 21
-477.674
  0
LINE
  8
0
 10
78.1626
 20
-477.674
 11
77.9476
 21
-477.743
  0
LINE
  8
0
 10
77.9476
 20
-477.743
 11
77.7256
 21
-477.786
  0
LINE
  8
0
 10
77.7256
 20
-477.786
 11
77.5
 21
-477.8
  0
LINE
  8
0
 10
77.5
 20
-477.8
 11
77.2744
 21
-477.786
  0
LINE
  8
0
 10
77.2744
 20
-477.786
 11
77.0524
 21
-477.743
  0
LINE
  8
0
 10
77.0524
 20
-477.743
 11
76.8374
 21
-477.674
  0
LINE
  8
0
 10
76.8374
 20
-477.674
 11
76.6328
 21
-477.577
  0
LINE
  8
0
 10
76.6328
 20
-477.577
 11
76.442
 21
-477.456
  0
LINE
  8
0
 10
76.442
 20
-477.456
 11
76.2678
 21
-477.312
  0
LINE
  8
0
 10
76.2678
 20
-477.312
 11
76.1131
 21
-477.147
  0
LINE
  8
0
 10
76.1131
 20
-477.147
 11
75.9802
 21
-476.964
  0
LINE
  8
0
 10
75.9802
 20
-476.964
 11
75.8713
 21
-476.766
  0
LINE
  8
0
 10
75.8713
 20
-476.766
 11
75.7881
 21
-476.556
  0
LINE
  8
0
 10
75.7881
 20
-476.556
 11
75.7319
 21
-476.337
  0
LINE
  8
0
 10
75.7319
 20
-476.337
 11
75.7036
 21
-476.113
  0
LINE
  8
0
 10
75.7036
 20
-436.113
 11
75.7036
 21
-435.887
  0
LINE
  8
0
 10
75.7036
 20
-435.887
 11
75.7319
 21
-435.663
  0
LINE
  8
0
 10
75.7319
 20
-435.663
 11
75.7881
 21
-435.444
  0
LINE
  8
0
 10
75.7881
 20
-435.444
 11
75.8713
 21
-435.234
  0
LINE
  8
0
 10
75.8713
 20
-435.234
 11
75.9802
 21
-435.036
  0
LINE
  8
0
 10
75.9802
 20
-435.036
 11
76.1131
 21
-434.853
  0
LINE
  8
0
 10
76.1131
 20
-434.853
 11
76.2678
 21
-434.688
  0
LINE
  8
0
 10
76.2678
 20
-434.688
 11
76.442
 21
-434.544
  0
LINE
  8
0
 10
76.442
 20
-434.544
 11
76.6328
 21
-434.423
  0
LINE
  8
0
 10
76.6328
 20
-434.423
 11
76.8374
 21
-434.326
  0
LINE
  8
0
 10
76.8374
 20
-434.326
 11
77.0524
 21
-434.257
  0
LINE
  8
0
 10
77.0524
 20
-434.257
 11
77.2744
 21
-434.214
  0
LINE
  8
0
 10
77.2744
 20
-434.214
 11
77.5
 21
-434.2
  0
LINE
  8
0
 10
77.5
 20
-434.2
 11
77.7256
 21
-434.214
  0
LINE
  8
0
 10
77.7256
 20
-434.214
 11
77.9476
 21
-434.257
  0
LINE
  8
0
 10
77.9476
 20
-434.257
 11
78.1626
 21
-434.326
  0
LINE
  8
0
 10
78.1626
 20
-434.326
 11
78.3672
 21
-434.423
  0
LINE
  8
0
 10
78.3672
 20
-434.423
 11
78.558
 21
-434.544
  0
LINE
  8
0
 10
78.558
 20
-434.544
 11
78.7322
 21
-434.688
  0
LINE
  8
0
 10
78.7322
 20
-434.688
 11
78.8869
 21
-434.853
  0
LINE
  8
0
 10
78.8869
 20
-434.853
 11
79.0198
 21
-435.036
  0
LINE
  8
0
 10
79.0198
 20
-435.036
 11
79.1287
 21
-435.234
  0
LINE
  8
0
 10
79.1287
 20
-435.234
 11
79.2119
 21
-435.444
  0
LINE
  8
0
 10
79.2119
 20
-435.444
 11
79.2681
 21
-435.663
  0
LINE
  8
0
 10
79.2681
 20
-435.663
 11
79.2964
 21
-435.887
  0
LINE
  8
0
 10
79.2964
 20
-435.887
 11
79.2964
 21
-436.113
  0
LINE
  8
0
 10
79.2964
 20
-436.113
 11
79.2681
 21
-436.337
  0
LINE
  8
0
 10
79.2681
 20
-436.337
 11
79.2119
 21
-436.556
  0
LINE
  8
0
 10
79.2119
 20
-436.556
 11
79.1287
 21
-436.766
  0
LINE
  8
0
 10
79.1287
 20
-436.766
 11
79.0198
 21
-436.964
  0
LINE
  8
0
 10
79.0198
 20
-436.964
 11
78.8869
 21
-437.147
  0
LINE
  8
0
 10
78.8869
 20
-437.147
 11
78.7322
 21
-437.312
  0
LINE
  8
0
 10
78.7322
 20
-437.312
 11
78.558
 21
-437.456
  0
LINE
  8
0
 10
78.558
 20
-437.456
 11
78.3672
 21
-437.577
  0
LINE
  8
0
 10
78.3672
 20
-437.577
 11
78.1626
 21
-437.674
  0
LINE
  8
0
 10
78.1626
 20
-437.674
 11
77.9476
 21
-437.743
  0
LINE
  8
0
 10
77.9476
 20
-437.743
 11
77.7256
 21
-437.786
  0
LINE
  8
0
 10
77.7256
 20
-437.786
 11
77.5
 21
-437.8
  0
LINE
  8
0
 10
77.5
 20
-437.8
 11
77.2744
 21
-437.786
  0
LINE
  8
0
 10
77.2744
 20
-437.786
 11
77.0524
 21
-437.743
  0
LINE
  8
0
 10
77.0524
 20
-437.743
 11
76.8374
 21
-437.674
  0
LINE
  8
0
 10
76.8374
 20
-437.674
 11
76.6328
 21
-437.577
  0
LINE
  8
0
 10
76.6328
 20
-437.577
 11
76.442
 21
-437.456
  0
LINE
  8
0
 10
76.442
 20
-437.456
 11
76.2678
 21
-437.312
  0
LINE
  8
0
 10
76.2678
 20
-437.312
 11
76.1131
 21
-437.147
  0
LINE
  8
0
 10
76.1131
 20
-437.147
 11
75.9802
 21
-436.964
  0
LINE
  8
0
 10
75.9802
 20
-436.964
 11
75.8713
 21
-436.766
  0
LINE
  8
0
 10
75.8713
 20
-436.766
 11
75.7881
 21
-436.556
  0
LINE
  8
0
 10
75.7881
 20
-436.556
 11
75.7319
 21
-436.337
  0
LINE
  8
0
 10
75.7319
 20
-436.337
 11
75.7036
 21
-436.113
  0
LINE
  8
0
 10
75.7036
 20
257.387
 11
75.7036
 21
257.613
  0
LINE
  8
0
 10
75.7036
 20
257.613
 11
75.7319
 21
257.837
  0
LINE
  8
0
 10
75.7319
 20
257.837
 11
75.7881
 21
258.056
  0
LINE
  8
0
 10
75.7881
 20
258.056
 11
75.8713
 21
258.266
  0
LINE
  8
0
 10
75.8713
 20
258.266
 11
75.9802
 21
258.464
  0
LINE
  8
0
 10
75.9802
 20
258.464
 11
76.1131
 21
258.647
  0
LINE
  8
0
 10
76.1131
 20
258.647
 11
76.2678
 21
258.812
  0
LINE
  8
0
 10
76.2678
 20
258.812
 11
76.442
 21
258.956
  0
LINE
  8
0
 10
76.442
 20
258.956
 11
76.6328
 21
259.077
  0
LINE
  8
0
 10
76.6328
 20
259.077
 11
76.8374
 21
259.174
  0
LINE
  8
0
 10
76.8374
 20
259.174
 11
77.0524
 21
259.243
  0
LINE
  8
0
 10
77.0524
 20
259.243
 11
77.2744
 21
259.286
  0
LINE
  8
0
 10
77.2744
 20
259.286
 11
77.5
 21
259.3
  0
LINE
  8
0
 10
77.5
 20
259.3
 11
77.7256
 21
259.286
  0
LINE
  8
0
 10
77.7256
 20
259.286
 11
77.9476
 21
259.243
  0
LINE
  8
0
 10
77.9476
 20
259.243
 11
78.1626
 21
259.174
  0
LINE
  8
0
 10
78.1626
 20
259.174
 11
78.3672
 21
259.077
  0
LINE
  8
0
 10
78.3672
 20
259.077
 11
78.558
 21
258.956
  0
LINE
  8
0
 10
78.558
 20
258.956
 11
78.7322
 21
258.812
  0
LINE
  8
0
 10
78.7322
 20
258.812
 11
78.8869
 21
258.647
  0
LINE
  8
0
 10
78.8869
 20
258.647
 11
79.0198
 21
258.464
  0
LINE
  8
0
 10
79.0198
 20
258.464
 11
79.1287
 21
258.266
  0
LINE
  8
0
 10
79.1287
 20
258.266
 11
79.2119
 21
258.056
  0
LINE
  8
0
 10
79.2119
 20
258.056
 11
79.2681
 21
257.837
  0
LINE
  8
0
 10
79.2681
 20
257.837
 11
79.2964
 21
257.613
  0
LINE
  8
0
 10
79.2964
 20
257.613
 11
79.2964
 21
257.387
  0
LINE
  8
0
 10
79.2964
 20
257.387
 11
79.2681
 21
257.163
  0
LINE
  8
0
 10
79.2681
 20
257.163
 11
79.2119
 21
256.944
  0
LINE
  8
0
 10
79.2119
 20
256.944
 11
79.1287
 21
256.734
  0
LINE
  8
0
 10
79.1287
 20
256.734
 11
79.0198
 21
256.536
  0
LINE
  8
0
 10
79.0198
 20
256.536
 11
78.8869
 21
256.353
  0
LINE
  8
0
 10
78.8869
 20
256.353
 11
78.7322
 21
256.188
  0
LINE
  8
0
 10
78.7322
 20
256.188
 11
78.558
 21
256.044
  0
LINE
  8
0
 10
78.558
 20
256.044
 11
78.3672
 21
255.923
  0
LINE
  8
0
 10
78.3672
 20
255.923
 11
78.1626
 21
255.826
  0
LINE
  8
0
 10
78.1626
 20
255.826
 11
77.9476
 21
255.757
  0
LINE
  8
0
 10
77.9476
 20
255.757
 11
77.7256
 21
255.714
  0
LINE
  8
0
 10
77.7256
 20
255.714
 11
77.5
 21
255.7
  0
LINE
  8
0
 10
77.5
 20
255.7
 11
77.2744
 21
255.714
  0
LINE
  8
0
 10
77.2744
 20
255.714
 11
77.0524
 21
255.757
  0
LINE
  8
0
 10
77.0524
 20
255.757
 11
76.8374
 21
255.826
  0
LINE
  8
0
 10
76.8374
 20
255.826
 11
76.6328
 21
255.923
  0
LINE
  8
0
 10
76.6328
 20
255.923
 11
76.442
 21
256.044
  0
LINE
  8
0
 10
76.442
 20
256.044
 11
76.2678
 21
256.188
  0
LINE
  8
0
 10
76.2678
 20
256.188
 11
76.1131
 21
256.353
  0
LINE
  8
0
 10
76.1131
 20
256.353
 11
75.9802
 21
256.536
  0
LINE
  8
0
 10
75.9802
 20
256.536
 11
75.8713
 21
256.734
  0
LINE
  8
0
 10
75.8713
 20
256.734
 11
75.7881
 21
256.944
  0
LINE
  8
0
 10
75.7881
 20
256.944
 11
75.7319
 21
257.163
  0
LINE
  8
0
 10
75.7319
 20
257.163
 11
75.7036
 21
257.387
  0
LINE
  8
0
 10
75.7036
 20
-396.113
 11
75.7036
 21
-395.887
  0
LINE
  8
0
 10
75.7036
 20
-395.887
 11
75.7319
 21
-395.663
  0
LINE
  8
0
 10
75.7319
 20
-395.663
 11
75.7881
 21
-395.444
  0
LINE
  8
0
 10
75.7881
 20
-395.444
 11
75.8713
 21
-395.234
  0
LINE
  8
0
 10
75.8713
 20
-395.234
 11
75.9802
 21
-395.036
  0
LINE
  8
0
 10
75.9802
 20
-395.036
 11
76.1131
 21
-394.853
  0
LINE
  8
0
 10
76.1131
 20
-394.853
 11
76.2678
 21
-394.688
  0
LINE
  8
0
 10
76.2678
 20
-394.688
 11
76.442
 21
-394.544
  0
LINE
  8
0
 10
76.442
 20
-394.544
 11
76.6328
 21
-394.423
  0
LINE
  8
0
 10
76.6328
 20
-394.423
 11
76.8374
 21
-394.326
  0
LINE
  8
0
 10
76.8374
 20
-394.326
 11
77.0524
 21
-394.257
  0
LINE
  8
0
 10
77.0524
 20
-394.257
 11
77.2744
 21
-394.214
  0
LINE
  8
0
 10
77.2744
 20
-394.214
 11
77.5
 21
-394.2
  0
LINE
  8
0
 10
77.5
 20
-394.2
 11
77.7256
 21
-394.214
  0
LINE
  8
0
 10
77.7256
 20
-394.214
 11
77.9476
 21
-394.257
  0
LINE
  8
0
 10
77.9476
 20
-394.257
 11
78.1626
 21
-394.326
  0
LINE
  8
0
 10
78.1626
 20
-394.326
 11
78.3672
 21
-394.423
  0
LINE
  8
0
 10
78.3672
 20
-394.423
 11
78.558
 21
-394.544
  0
LINE
  8
0
 10
78.558
 20
-394.544
 11
78.7322
 21
-394.688
  0
LINE
  8
0
 10
78.7322
 20
-394.688
 11
78.8869
 21
-394.853
  0
LINE
  8
0
 10
78.8869
 20
-394.853
 11
79.0198
 21
-395.036
  0
LINE
  8
0
 10
79.0198
 20
-395.036
 11
79.1287
 21
-395.234
  0
LINE
  8
0
 10
79.1287
 20
-395.234
 11
79.2119
 21
-395.444
  0
LINE
  8
0
 10
79.2119
 20
-395.444
 11
79.2681
 21
-395.663
  0
LINE
  8
0
 10
79.2681
 20
-395.663
 11
79.2964
 21
-395.887
  0
LINE
  8
0
 10
79.2964
 20
-395.887
 11
79.2964
 21
-396.113
  0
LINE
  8
0
 10
79.2964
 20
-396.113
 11
79.2681
 21
-396.337
  0
LINE
  8
0
 10
79.2681
 20
-396.337
 11
79.2119
 21
-396.556
  0
LINE
  8
0
 10
79.2119
 20
-396.556
 11
79.1287
 21
-396.766
  0
LINE
  8
0
 10
79.1287
 20
-396.766
 11
79.0198
 21
-396.964
  0
LINE
  8
0
 10
79.0198
 20
-396.964
 11
78.8869
 21
-397.147
  0
LINE
  8
0
 10
78.8869
 20
-397.147
 11
78.7322
 21
-397.312
  0
LINE
  8
0
 10
78.7322
 20
-397.312
 11
78.558
 21
-397.456
  0
LINE
  8
0
 10
78.558
 20
-397.456
 11
78.3672
 21
-397.577
  0
LINE
  8
0
 10
78.3672
 20
-397.577
 11
78.1626
 21
-397.674
  0
LINE
  8
0
 10
78.1626
 20
-397.674
 11
77.9476
 21
-397.743
  0
LINE
  8
0
 10
77.9476
 20
-397.743
 11
77.7256
 21
-397.786
  0
LINE
  8
0
 10
77.7256
 20
-397.786
 11
77.5
 21
-397.8
  0
LINE
  8
0
 10
77.5
 20
-397.8
 11
77.2744
 21
-397.786
  0
LINE
  8
0
 10
77.2744
 20
-397.786
 11
77.0524
 21
-397.743
  0
LINE
  8
0
 10
77.0524
 20
-397.743
 11
76.8374
 21
-397.674
  0
LINE
  8
0
 10
76.8374
 20
-397.674
 11
76.6328
 21
-397.577
  0
LINE
  8
0
 10
76.6328
 20
-397.577
 11
76.442
 21
-397.456
  0
LINE
  8
0
 10
76.442
 20
-397.456
 11
76.2678
 21
-397.312
  0
LINE
  8
0
 10
76.2678
 20
-397.312
 11
76.1131
 21
-397.147
  0
LINE
  8
0
 10
76.1131
 20
-397.147
 11
75.9802
 21
-396.964
  0
LINE
  8
0
 10
75.9802
 20
-396.964
 11
75.8713
 21
-396.766
  0
LINE
  8
0
 10
75.8713
 20
-396.766
 11
75.7881
 21
-396.556
  0
LINE
  8
0
 10
75.7881
 20
-396.556
 11
75.7319
 21
-396.337
  0
LINE
  8
0
 10
75.7319
 20
-396.337
 11
75.7036
 21
-396.113
  0
LINE
  8
0
 10
91.7036
 20
-416.113
 11
91.7036
 21
-415.887
  0
LINE
  8
0
 10
91.7036
 20
-415.887
 11
91.7319
 21
-415.663
  0
LINE
  8
0
 10
91.7319
 20
-415.663
 11
91.7881
 21
-415.444
  0
LINE
  8
0
 10
91.7881
 20
-415.444
 11
91.8713
 21
-415.234
  0
LINE
  8
0
 10
91.8713
 20
-415.234
 11
91.9802
 21
-415.036
  0
LINE
  8
0
 10
91.9802
 20
-415.036
 11
92.1131
 21
-414.853
  0
LINE
  8
0
 10
92.1131
 20
-414.853
 11
92.2678
 21
-414.688
  0
LINE
  8
0
 10
92.2678
 20
-414.688
 11
92.442
 21
-414.544
  0
LINE
  8
0
 10
92.442
 20
-414.544
 11
92.6328
 21
-414.423
  0
LINE
  8
0
 10
92.6328
 20
-414.423
 11
92.8374
 21
-414.326
  0
LINE
  8
0
 10
92.8374
 20
-414.326
 11
93.0524
 21
-414.257
  0
LINE
  8
0
 10
93.0524
 20
-414.257
 11
93.2744
 21
-414.214
  0
LINE
  8
0
 10
93.2744
 20
-414.214
 11
93.5
 21
-414.2
  0
LINE
  8
0
 10
93.5
 20
-414.2
 11
93.7256
 21
-414.214
  0
LINE
  8
0
 10
93.7256
 20
-414.214
 11
93.9476
 21
-414.257
  0
LINE
  8
0
 10
93.9476
 20
-414.257
 11
94.1626
 21
-414.326
  0
LINE
  8
0
 10
94.1626
 20
-414.326
 11
94.3672
 21
-414.423
  0
LINE
  8
0
 10
94.3672
 20
-414.423
 11
94.558
 21
-414.544
  0
LINE
  8
0
 10
94.558
 20
-414.544
 11
94.7322
 21
-414.688
  0
LINE
  8
0
 10
94.7322
 20
-414.688
 11
94.8869
 21
-414.853
  0
LINE
  8
0
 10
94.8869
 20
-414.853
 11
95.0198
 21
-415.036
  0
LINE
  8
0
 10
95.0198
 20
-415.036
 11
95.1287
 21
-415.234
  0
LINE
  8
0
 10
95.1287
 20
-415.234
 11
95.2119
 21
-415.444
  0
LINE
  8
0
 10
95.2119
 20
-415.444
 11
95.2681
 21
-415.663
  0
LINE
  8
0
 10
95.2681
 20
-415.663
 11
95.2964
 21
-415.887
  0
LINE
  8
0
 10
95.2964
 20
-415.887
 11
95.2964
 21
-416.113
  0
LINE
  8
0
 10
95.2964
 20
-416.113
 11
95.2681
 21
-416.337
  0
LINE
  8
0
 10
95.2681
 20
-416.337
 11
95.2119
 21
-416.556
  0
LINE
  8
0
 10
95.2119
 20
-416.556
 11
95.1287
 21
-416.766
  0
LINE
  8
0
 10
95.1287
 20
-416.766
 11
95.0198
 21
-416.964
  0
LINE
  8
0
 10
95.0198
 20
-416.964
 11
94.8869
 21
-417.147
  0
LINE
  8
0
 10
94.8869
 20
-417.147
 11
94.7322
 21
-417.312
  0
LINE
  8
0
 10
94.7322
 20
-417.312
 11
94.558
 21
-417.456
  0
LINE
  8
0
 10
94.558
 20
-417.456
 11
94.3672
 21
-417.577
  0
LINE
  8
0
 10
94.3672
 20
-417.577
 11
94.1626
 21
-417.674
  0
LINE
  8
0
 10
94.1626
 20
-417.674
 11
93.9476
 21
-417.743
  0
LINE
  8
0
 10
93.9476
 20
-417.743
 11
93.7256
 21
-417.786
  0
LINE
  8
0
 10
93.7256
 20
-417.786
 11
93.5
 21
-417.8
  0
LINE
  8
0
 10
93.5
 20
-417.8
 11
93.2744
 21
-417.786
  0
LINE
  8
0
 10
93.2744
 20
-417.786
 11
93.0524
 21
-417.743
  0
LINE
  8
0
 10
93.0524
 20
-417.743
 11
92.8374
 21
-417.674
  0
LINE
  8
0
 10
92.8374
 20
-417.674
 11
92.6328
 21
-417.577
  0
LINE
  8
0
 10
92.6328
 20
-417.577
 11
92.442
 21
-417.456
  0
LINE
  8
0
 10
92.442
 20
-417.456
 11
92.2678
 21
-417.312
  0
LINE
  8
0
 10
92.2678
 20
-417.312
 11
92.1131
 21
-417.147
  0
LINE
  8
0
 10
92.1131
 20
-417.147
 11
91.9802
 21
-416.964
  0
LINE
  8
0
 10
91.9802
 20
-416.964
 11
91.8713
 21
-416.766
  0
LINE
  8
0
 10
91.8713
 20
-416.766
 11
91.7881
 21
-416.556
  0
LINE
  8
0
 10
91.7881
 20
-416.556
 11
91.7319
 21
-416.337
  0
LINE
  8
0
 10
91.7319
 20
-416.337
 11
91.7036
 21
-416.113
  0
LINE
  8
0
 10
93.7036
 20
-456.113
 11
93.7036
 21
-455.887
  0
LINE
  8
0
 10
93.7036
 20
-455.887
 11
93.7319
 21
-455.663
  0
LINE
  8
0
 10
93.7319
 20
-455.663
 11
93.7881
 21
-455.444
  0
LINE
  8
0
 10
93.7881
 20
-455.444
 11
93.8713
 21
-455.234
  0
LINE
  8
0
 10
93.8713
 20
-455.234
 11
93.9802
 21
-455.036
  0
LINE
  8
0
 10
93.9802
 20
-455.036
 11
94.1131
 21
-454.853
  0
LINE
  8
0
 10
94.1131
 20
-454.853
 11
94.2678
 21
-454.688
  0
LINE
  8
0
 10
94.2678
 20
-454.688
 11
94.442
 21
-454.544
  0
LINE
  8
0
 10
94.442
 20
-454.544
 11
94.6328
 21
-454.423
  0
LINE
  8
0
 10
94.6328
 20
-454.423
 11
94.8374
 21
-454.326
  0
LINE
  8
0
 10
94.8374
 20
-454.326
 11
95.0524
 21
-454.257
  0
LINE
  8
0
 10
95.0524
 20
-454.257
 11
95.2744
 21
-454.214
  0
LINE
  8
0
 10
95.2744
 20
-454.214
 11
95.5
 21
-454.2
  0
LINE
  8
0
 10
95.5
 20
-454.2
 11
95.7256
 21
-454.214
  0
LINE
  8
0
 10
95.7256
 20
-454.214
 11
95.9476
 21
-454.257
  0
LINE
  8
0
 10
95.9476
 20
-454.257
 11
96.1626
 21
-454.326
  0
LINE
  8
0
 10
96.1626
 20
-454.326
 11
96.3672
 21
-454.423
  0
LINE
  8
0
 10
96.3672
 20
-454.423
 11
96.558
 21
-454.544
  0
LINE
  8
0
 10
96.558
 20
-454.544
 11
96.7322
 21
-454.688
  0
LINE
  8
0
 10
96.7322
 20
-454.688
 11
96.8869
 21
-454.853
  0
LINE
  8
0
 10
96.8869
 20
-454.853
 11
97.0198
 21
-455.036
  0
LINE
  8
0
 10
97.0198
 20
-455.036
 11
97.1287
 21
-455.234
  0
LINE
  8
0
 10
97.1287
 20
-455.234
 11
97.2119
 21
-455.444
  0
LINE
  8
0
 10
97.2119
 20
-455.444
 11
97.2681
 21
-455.663
  0
LINE
  8
0
 10
97.2681
 20
-455.663
 11
97.2964
 21
-455.887
  0
LINE
  8
0
 10
97.2964
 20
-455.887
 11
97.2964
 21
-456.113
  0
LINE
  8
0
 10
97.2964
 20
-456.113
 11
97.2681
 21
-456.337
  0
LINE
  8
0
 10
97.2681
 20
-456.337
 11
97.2119
 21
-456.556
  0
LINE
  8
0
 10
97.2119
 20
-456.556
 11
97.1287
 21
-456.766
  0
LINE
  8
0
 10
97.1287
 20
-456.766
 11
97.0198
 21
-456.964
  0
LINE
  8
0
 10
97.0198
 20
-456.964
 11
96.8869
 21
-457.147
  0
LINE
  8
0
 10
96.8869
 20
-457.147
 11
96.7322
 21
-457.312
  0
LINE
  8
0
 10
96.7322
 20
-457.312
 11
96.558
 21
-457.456
  0
LINE
  8
0
 10
96.558
 20
-457.456
 11
96.3672
 21
-457.577
  0
LINE
  8
0
 10
96.3672
 20
-457.577
 11
96.1626
 21
-457.674
  0
LINE
  8
0
 10
96.1626
 20
-457.674
 11
95.9476
 21
-457.743
  0
LINE
  8
0
 10
95.9476
 20
-457.743
 11
95.7256
 21
-457.786
  0
LINE
  8
0
 10
95.7256
 20
-457.786
 11
95.5
 21
-457.8
  0
LINE
  8
0
 10
95.5
 20
-457.8
 11
95.2744
 21
-457.786
  0
LINE
  8
0
 10
95.2744
 20
-457.786
 11
95.0524
 21
-457.743
  0
LINE
  8
0
 10
95.0524
 20
-457.743
 11
94.8374
 21
-457.674
  0
LINE
  8
0
 10
94.8374
 20
-457.674
 11
94.6328
 21
-457.577
  0
LINE
  8
0
 10
94.6328
 20
-457.577
 11
94.442
 21
-457.456
  0
LINE
  8
0
 10
94.442
 20
-457.456
 11
94.2678
 21
-457.312
  0
LINE
  8
0
 10
94.2678
 20
-457.312
 11
94.1131
 21
-457.147
  0
LINE
  8
0
 10
94.1131
 20
-457.147
 11
93.9802
 21
-456.964
  0
LINE
  8
0
 10
93.9802
 20
-456.964
 11
93.8713
 21
-456.766
  0
LINE
  8
0
 10
93.8713
 20
-456.766
 11
93.7881
 21
-456.556
  0
LINE
  8
0
 10
93.7881
 20
-456.556
 11
93.7319
 21
-456.337
  0
LINE
  8
0
 10
93.7319
 20
-456.337
 11
93.7036
 21
-456.113
  0
ENDSEC
  0
SECTION
  2
OBJECTS
  0
DICTIONARY
  0
ENDSEC
  0
EOF
