solid model
  facet normal 0 0 -1
    outer loop
      vertex -0.75 27 0
      vertex 11.5562 8.7119 0
      vertex 10.4438 8.7119 0
    endloop
  endfacet
  facet normal 0 0 -1
    outer loop
      vertex -0.75 27 0
      vertex 29.2 23 0
      vertex 11.5562 8.7119 0
    endloop
  endfacet
  facet normal 0 0 -1
    outer loop
      vertex -0.75 27 0
      vertex 29.5438 24.058 0
      vertex 29.2 23 0
    endloop
  endfacet
  facet normal 0 0 1
    outer loop
      vertex -0.75 27 2
      vertex 11.5562 8.7119 2
      vertex 29.2 23 2
    endloop
  endfacet
  facet normal 0 0 1
    outer loop
      vertex -0.75 27 2
      vertex 29.2 23 2
      vertex 29.5438 24.058 2
    endloop
  endfacet
  facet normal 0 0 -1
    outer loop
      vertex -0.75 7 0
      vertex 9.2 7 0
      vertex 9.54377 5.94199 0
    endloop
  endfacet
  facet normal 0 0 -1
    outer loop
      vertex -0.75 7 0
      vertex 9.54377 8.05801 0
      vertex 9.2 7 0
    endloop
  endfacet
  facet normal 0 0 1
    outer loop
      vertex -0.75 7 2
      vertex 9.2 7 2
      vertex 9.54377 8.05801 2
    endloop
  endfacet
  facet normal 0 0 1
    outer loop
      vertex -0.75 7 2
      vertex 9.54377 5.94199 2
      vertex 9.2 7 2
    endloop
  endfacet
  facet normal 0 0 -1
    outer loop
      vertex -1.17971 25.6775 0
      vertex -0.75 27 0
      vertex 10.4438 8.7119 0
    endloop
  endfacet
  facet normal -0.951057 0.309017 0
    outer loop
      vertex -1.17971 25.6775 0
      vertex -0.75 27 2
      vertex -0.75 27 0
    endloop
  endfacet
  facet normal -0.951057 0.309017 0
    outer loop
      vertex -1.17971 25.6775 0
      vertex -1.17971 25.6775 2
      vertex -0.75 27 2
    endloop
  endfacet
  facet normal 0 0 1
    outer loop
      vertex -1.17971 25.6775 2
      vertex 10.4438 8.7119 2
      vertex 11.5562 8.7119 2
    endloop
  endfacet
  facet normal -0 0 1
    outer loop
      vertex -1.17971 25.6775 2
      vertex 11.5562 8.7119 2
      vertex -0.75 27 2
    endloop
  endfacet
  facet normal -0.951057 -0.309017 0
    outer loop
      vertex -1.17971 28.3225 0
      vertex -0.75 27 0
      vertex -1.17971 28.3225 2
    endloop
  endfacet
  facet normal 0 0 -1
    outer loop
      vertex -1.17971 28.3225 0
      vertex 29.5438 24.058 0
      vertex -0.75 27 0
    endloop
  endfacet
  facet normal 0 0 -1
    outer loop
      vertex -1.17971 28.3225 0
      vertex 30.4438 24.7119 0
      vertex 29.5438 24.058 0
    endloop
  endfacet
  facet normal -0.951057 -0.309017 0
    outer loop
      vertex -1.17971 28.3225 2
      vertex -0.75 27 0
      vertex -0.75 27 2
    endloop
  endfacet
  facet normal 0 0 1
    outer loop
      vertex -1.17971 28.3225 2
      vertex -0.75 27 2
      vertex 29.5438 24.058 2
    endloop
  endfacet
  facet normal 0 0 1
    outer loop
      vertex -1.17971 28.3225 2
      vertex 29.5438 24.058 2
      vertex 30.4438 24.7119 2
    endloop
  endfacet
  facet normal -0 0 -1
    outer loop
      vertex -1.17971 5.67748 0
      vertex -0.75 7 0
      vertex 9.54377 5.94199 0
    endloop
  endfacet
  facet normal -0.951057 0.309017 0
    outer loop
      vertex -1.17971 5.67748 0
      vertex -0.75 7 2
      vertex -0.75 7 0
    endloop
  endfacet
  facet normal -0.951057 0.309017 0
    outer loop
      vertex -1.17971 5.67748 0
      vertex -1.17971 5.67748 2
      vertex -0.75 7 2
    endloop
  endfacet
  facet normal 0 0 -1
    outer loop
      vertex -1.17971 5.67748 0
      vertex 9.54377 5.94199 0
      vertex 10.4438 5.2881 0
    endloop
  endfacet
  facet normal 0 0 1
    outer loop
      vertex -1.17971 5.67748 2
      vertex 10.4438 5.2881 2
      vertex 9.54377 5.94199 2
    endloop
  endfacet
  facet normal 0 0 1
    outer loop
      vertex -1.17971 5.67748 2
      vertex 9.54377 5.94199 2
      vertex -0.75 7 2
    endloop
  endfacet
  facet normal -0.951057 -0.309017 0
    outer loop
      vertex -1.17971 8.32252 0
      vertex -0.75 7 0
      vertex -1.17971 8.32252 2
    endloop
  endfacet
  facet normal 0 0 -1
    outer loop
      vertex -1.17971 8.32252 0
      vertex -1.17971 25.6775 0
      vertex 10.4438 8.7119 0
    endloop
  endfacet
  facet normal 0 0 -1
    outer loop
      vertex -1.17971 8.32252 0
      vertex 10.4438 8.7119 0
      vertex 9.54377 8.05801 0
    endloop
  endfacet
  facet normal 0 0 -1
    outer loop
      vertex -1.17971 8.32252 0
      vertex 9.54377 8.05801 0
      vertex -0.75 7 0
    endloop
  endfacet
  facet normal -0.951057 -0.309017 0
    outer loop
      vertex -1.17971 8.32252 2
      vertex -0.75 7 0
      vertex -0.75 7 2
    endloop
  endfacet
  facet normal 0 0 1
    outer loop
      vertex -1.17971 8.32252 2
      vertex -0.75 7 2
      vertex 9.54377 8.05801 2
    endloop
  endfacet
  facet normal 0 0 1
    outer loop
      vertex -1.17971 8.32252 2
      vertex 10.4438 8.7119 2
      vertex -1.17971 25.6775 2
    endloop
  endfacet
  facet normal 0 0 1
    outer loop
      vertex -1.17971 8.32252 2
      vertex 9.54377 8.05801 2
      vertex 10.4438 8.7119 2
    endloop
  endfacet
  facet normal -1 -0 0
    outer loop
      vertex -10 0 0
      vertex -10 0 2
      vertex -10 35 2
    endloop
  endfacet
  facet normal 0 0 -1
    outer loop
      vertex -10 0 0
      vertex -10 35 0
      vertex -4.82029 25.6775 0
    endloop
  endfacet
  facet normal -1 0 0
    outer loop
      vertex -10 0 0
      vertex -10 35 2
      vertex -10 35 0
    endloop
  endfacet
  facet normal 0 0 -1
    outer loop
      vertex -10 0 0
      vertex -2.30471 4.86012 0
      vertex 10.4438 5.2881 0
    endloop
  endfacet
  facet normal -0 0 -1
    outer loop
      vertex -10 0 0
      vertex -3.69529 4.86012 0
      vertex -2.30471 4.86012 0
    endloop
  endfacet
  facet normal -0 0 -1
    outer loop
      vertex -10 0 0
      vertex -4.82029 25.6775 0
      vertex -4.82029 8.32252 0
    endloop
  endfacet
  facet normal -0 0 -1
    outer loop
      vertex -10 0 0
      vertex -4.82029 5.67748 0
      vertex -3.69529 4.86012 0
    endloop
  endfacet
  facet normal 0 0 -1
    outer loop
      vertex -10 0 0
      vertex -4.82029 8.32252 0
      vertex -5.25 7 0
    endloop
  endfacet
  facet normal -0 0 -1
    outer loop
      vertex -10 0 0
      vertex -5.25 7 0
      vertex -4.82029 5.67748 0
    endloop
  endfacet
  facet normal -0 0 -1
    outer loop
      vertex -10 0 0
      vertex 10.4438 5.2881 0
      vertex 11.5562 5.2881 0
    endloop
  endfacet
  facet normal 0 -1 -0
    outer loop
      vertex -10 0 0
      vertex 100 0 0
      vertex 100 0 2
    endloop
  endfacet
  facet normal 0 -1 0
    outer loop
      vertex -10 0 0
      vertex 100 0 2
      vertex -10 0 2
    endloop
  endfacet
  facet normal -0 0 -1
    outer loop
      vertex -10 0 0
      vertex 11.5562 5.2881 0
      vertex 50.4438 5.2881 0
    endloop
  endfacet
  facet normal 0 0 -1
    outer loop
      vertex -10 0 0
      vertex 50.4438 5.2881 0
      vertex 100 0 0
    endloop
  endfacet
  facet normal 0 0 1
    outer loop
      vertex -10 0 2
      vertex -2.30471 4.86012 2
      vertex -3.69529 4.86012 2
    endloop
  endfacet
  facet normal 0 0 1
    outer loop
      vertex -10 0 2
      vertex -3.69529 4.86012 2
      vertex -4.82029 5.67748 2
    endloop
  endfacet
  facet normal 0 0 1
    outer loop
      vertex -10 0 2
      vertex -4.82029 25.6775 2
      vertex -10 35 2
    endloop
  endfacet
  facet normal 0 0 1
    outer loop
      vertex -10 0 2
      vertex -4.82029 5.67748 2
      vertex -5.25 7 2
    endloop
  endfacet
  facet normal 0 0 1
    outer loop
      vertex -10 0 2
      vertex -4.82029 8.32252 2
      vertex -4.82029 25.6775 2
    endloop
  endfacet
  facet normal 0 0 1
    outer loop
      vertex -10 0 2
      vertex -5.25 7 2
      vertex -4.82029 8.32252 2
    endloop
  endfacet
  facet normal 0 0 1
    outer loop
      vertex -10 0 2
      vertex 10.4438 5.2881 2
      vertex -2.30471 4.86012 2
    endloop
  endfacet
  facet normal 0 0 1
    outer loop
      vertex -10 0 2
      vertex 100 0 2
      vertex 50.4438 5.2881 2
    endloop
  endfacet
  facet normal 0 0 1
    outer loop
      vertex -10 0 2
      vertex 11.5562 5.2881 2
      vertex 10.4438 5.2881 2
    endloop
  endfacet
  facet normal 0 0 1
    outer loop
      vertex -10 0 2
      vertex 50.4438 5.2881 2
      vertex 11.5562 5.2881 2
    endloop
  endfacet
  facet normal 0 1 0
    outer loop
      vertex -10 35 0
      vertex -10 35 2
      vertex 100 35 0
    endloop
  endfacet
  facet normal 0 0 -1
    outer loop
      vertex -10 35 0
      vertex -2.30471 29.1399 0
      vertex -3.69529 29.1399 0
    endloop
  endfacet
  facet normal 0 0 -1
    outer loop
      vertex -10 35 0
      vertex -3.69529 29.1399 0
      vertex -4.82029 28.3225 0
    endloop
  endfacet
  facet normal 0 0 -1
    outer loop
      vertex -10 35 0
      vertex -4.82029 28.3225 0
      vertex -5.25 27 0
    endloop
  endfacet
  facet normal 0 0 -1
    outer loop
      vertex -10 35 0
      vertex -5.25 27 0
      vertex -4.82029 25.6775 0
    endloop
  endfacet
  facet normal 0 0 -1
    outer loop
      vertex -10 35 0
      vertex 100 35 0
      vertex 70.4438 26.7119 0
    endloop
  endfacet
  facet normal 0 0 -1
    outer loop
      vertex -10 35 0
      vertex 30.4438 24.7119 0
      vertex -2.30471 29.1399 0
    endloop
  endfacet
  facet normal 0 0 -1
    outer loop
      vertex -10 35 0
      vertex 31.5562 24.7119 0
      vertex 30.4438 24.7119 0
    endloop
  endfacet
  facet normal 0 0 -1
    outer loop
      vertex -10 35 0
      vertex 70.4438 26.7119 0
      vertex 31.5562 24.7119 0
    endloop
  endfacet
  facet normal 0 0 1
    outer loop
      vertex -10 35 2
      vertex -2.30471 29.1399 2
      vertex 30.4438 24.7119 2
    endloop
  endfacet
  facet normal 0 0 1
    outer loop
      vertex -10 35 2
      vertex -3.69529 29.1399 2
      vertex -2.30471 29.1399 2
    endloop
  endfacet
  facet normal 0 0 1
    outer loop
      vertex -10 35 2
      vertex -4.82029 25.6775 2
      vertex -5.25 27 2
    endloop
  endfacet
  facet normal 0 0 1
    outer loop
      vertex -10 35 2
      vertex -4.82029 28.3225 2
      vertex -3.69529 29.1399 2
    endloop
  endfacet
  facet normal 0 0 1
    outer loop
      vertex -10 35 2
      vertex -5.25 27 2
      vertex -4.82029 28.3225 2
    endloop
  endfacet
  facet normal 0 1 -0
    outer loop
      vertex -10 35 2
      vertex 100 35 2
      vertex 100 35 0
    endloop
  endfacet
  facet normal 0 0 1
    outer loop
      vertex -10 35 2
      vertex 30.4438 24.7119 2
      vertex 31.5562 24.7119 2
    endloop
  endfacet
  facet normal 0 0 1
    outer loop
      vertex -10 35 2
      vertex 31.5562 24.7119 2
      vertex 70.4438 26.7119 2
    endloop
  endfacet
  facet normal -0 0 1
    outer loop
      vertex -10 35 2
      vertex 70.4438 26.7119 2
      vertex 100 35 2
    endloop
  endfacet
  facet normal -0.587785 0.809017 0
    outer loop
      vertex -2.30471 24.8601 0
      vertex -2.30471 24.8601 2
      vertex -1.17971 25.6775 0
    endloop
  endfacet
  facet normal -0.587785 0.809017 0
    outer loop
      vertex -2.30471 24.8601 2
      vertex -1.17971 25.6775 2
      vertex -1.17971 25.6775 0
    endloop
  endfacet
  facet normal -0 0 1
    outer loop
      vertex -2.30471 24.8601 2
      vertex -1.17971 8.32252 2
      vertex -1.17971 25.6775 2
    endloop
  endfacet
  facet normal -0.587785 -0.809017 -0
    outer loop
      vertex -2.30471 29.1399 0
      vertex -1.17971 28.3225 0
      vertex -1.17971 28.3225 2
    endloop
  endfacet
  facet normal -0.587785 -0.809017 0
    outer loop
      vertex -2.30471 29.1399 0
      vertex -1.17971 28.3225 2
      vertex -2.30471 29.1399 2
    endloop
  endfacet
  facet normal 0 0 -1
    outer loop
      vertex -2.30471 29.1399 0
      vertex 30.4438 24.7119 0
      vertex -1.17971 28.3225 0
    endloop
  endfacet
  facet normal 0 0 1
    outer loop
      vertex -2.30471 29.1399 2
      vertex -1.17971 28.3225 2
      vertex 30.4438 24.7119 2
    endloop
  endfacet
  facet normal -0 0 -1
    outer loop
      vertex -2.30471 4.86012 0
      vertex -1.17971 5.67748 0
      vertex 10.4438 5.2881 0
    endloop
  endfacet
  facet normal -0.587785 0.809017 0
    outer loop
      vertex -2.30471 4.86012 0
      vertex -2.30471 4.86012 2
      vertex -1.17971 5.67748 0
    endloop
  endfacet
  facet normal -0.587785 0.809017 0
    outer loop
      vertex -2.30471 4.86012 2
      vertex -1.17971 5.67748 2
      vertex -1.17971 5.67748 0
    endloop
  endfacet
  facet normal 0 0 1
    outer loop
      vertex -2.30471 4.86012 2
      vertex 10.4438 5.2881 2
      vertex -1.17971 5.67748 2
    endloop
  endfacet
  facet normal 0 0 -1
    outer loop
      vertex -2.30471 9.13988 0
      vertex -1.17971 25.6775 0
      vertex -1.17971 8.32252 0
    endloop
  endfacet
  facet normal -0.587785 -0.809017 -0
    outer loop
      vertex -2.30471 9.13988 0
      vertex -1.17971 8.32252 0
      vertex -1.17971 8.32252 2
    endloop
  endfacet
  facet normal -0.587785 -0.809017 0
    outer loop
      vertex -2.30471 9.13988 0
      vertex -1.17971 8.32252 2
      vertex -2.30471 9.13988 2
    endloop
  endfacet
  facet normal 0 0 -1
    outer loop
      vertex -2.30471 9.13988 0
      vertex -2.30471 24.8601 0
      vertex -1.17971 25.6775 0
    endloop
  endfacet
  facet normal 0 0 1
    outer loop
      vertex -2.30471 9.13988 2
      vertex -1.17971 8.32252 2
      vertex -2.30471 24.8601 2
    endloop
  endfacet
  facet normal 0 1 0
    outer loop
      vertex -3.69529 24.8601 0
      vertex -3.69529 24.8601 2
      vertex -2.30471 24.8601 0
    endloop
  endfacet
  facet normal 0 1 -0
    outer loop
      vertex -3.69529 24.8601 2
      vertex -2.30471 24.8601 2
      vertex -2.30471 24.8601 0
    endloop
  endfacet
  facet normal -0 0 1
    outer loop
      vertex -3.69529 24.8601 2
      vertex -2.30471 9.13988 2
      vertex -2.30471 24.8601 2
    endloop
  endfacet
  facet normal 0 -1 -0
    outer loop
      vertex -3.69529 29.1399 0
      vertex -2.30471 29.1399 0
      vertex -2.30471 29.1399 2
    endloop
  endfacet
  facet normal 0 -1 0
    outer loop
      vertex -3.69529 29.1399 0
      vertex -2.30471 29.1399 2
      vertex -3.69529 29.1399 2
    endloop
  endfacet
  facet normal 0 1 0
    outer loop
      vertex -3.69529 4.86012 0
      vertex -3.69529 4.86012 2
      vertex -2.30471 4.86012 0
    endloop
  endfacet
  facet normal 0 1 -0
    outer loop
      vertex -3.69529 4.86012 2
      vertex -2.30471 4.86012 2
      vertex -2.30471 4.86012 0
    endloop
  endfacet
  facet normal 0 0 -1
    outer loop
      vertex -3.69529 9.13988 0
      vertex -2.30471 24.8601 0
      vertex -2.30471 9.13988 0
    endloop
  endfacet
  facet normal 0 -1 -0
    outer loop
      vertex -3.69529 9.13988 0
      vertex -2.30471 9.13988 0
      vertex -2.30471 9.13988 2
    endloop
  endfacet
  facet normal 0 -1 0
    outer loop
      vertex -3.69529 9.13988 0
      vertex -2.30471 9.13988 2
      vertex -3.69529 9.13988 2
    endloop
  endfacet
  facet normal 0 0 -1
    outer loop
      vertex -3.69529 9.13988 0
      vertex -3.69529 24.8601 0
      vertex -2.30471 24.8601 0
    endloop
  endfacet
  facet normal 0 0 1
    outer loop
      vertex -3.69529 9.13988 2
      vertex -2.30471 9.13988 2
      vertex -3.69529 24.8601 2
    endloop
  endfacet
  facet normal 0.587785 0.809017 0
    outer loop
      vertex -4.82029 25.6775 0
      vertex -4.82029 25.6775 2
      vertex -3.69529 24.8601 0
    endloop
  endfacet
  facet normal 0.587785 0.809017 -0
    outer loop
      vertex -4.82029 25.6775 2
      vertex -3.69529 24.8601 2
      vertex -3.69529 24.8601 0
    endloop
  endfacet
  facet normal 0 0 1
    outer loop
      vertex -4.82029 25.6775 2
      vertex -3.69529 9.13988 2
      vertex -3.69529 24.8601 2
    endloop
  endfacet
  facet normal 0.587785 -0.809017 0
    outer loop
      vertex -4.82029 28.3225 0
      vertex -3.69529 29.1399 0
      vertex -3.69529 29.1399 2
    endloop
  endfacet
  facet normal 0.587785 -0.809017 0
    outer loop
      vertex -4.82029 28.3225 0
      vertex -3.69529 29.1399 2
      vertex -4.82029 28.3225 2
    endloop
  endfacet
  facet normal 0.587785 0.809017 0
    outer loop
      vertex -4.82029 5.67748 0
      vertex -4.82029 5.67748 2
      vertex -3.69529 4.86012 0
    endloop
  endfacet
  facet normal 0.587785 0.809017 -0
    outer loop
      vertex -4.82029 5.67748 2
      vertex -3.69529 4.86012 2
      vertex -3.69529 4.86012 0
    endloop
  endfacet
  facet normal 0 0 -1
    outer loop
      vertex -4.82029 8.32252 0
      vertex -3.69529 24.8601 0
      vertex -3.69529 9.13988 0
    endloop
  endfacet
  facet normal 0.587785 -0.809017 0
    outer loop
      vertex -4.82029 8.32252 0
      vertex -3.69529 9.13988 0
      vertex -3.69529 9.13988 2
    endloop
  endfacet
  facet normal 0.587785 -0.809017 0
    outer loop
      vertex -4.82029 8.32252 0
      vertex -3.69529 9.13988 2
      vertex -4.82029 8.32252 2
    endloop
  endfacet
  facet normal 0 0 -1
    outer loop
      vertex -4.82029 8.32252 0
      vertex -4.82029 25.6775 0
      vertex -3.69529 24.8601 0
    endloop
  endfacet
  facet normal 0 0 1
    outer loop
      vertex -4.82029 8.32252 2
      vertex -3.69529 9.13988 2
      vertex -4.82029 25.6775 2
    endloop
  endfacet
  facet normal 0.951056 0.309017 0
    outer loop
      vertex -5.25 27 0
      vertex -4.82029 25.6775 2
      vertex -4.82029 25.6775 0
    endloop
  endfacet
  facet normal 0.951056 -0.309017 0
    outer loop
      vertex -5.25 27 0
      vertex -4.82029 28.3225 0
      vertex -5.25 27 2
    endloop
  endfacet
  facet normal 0.951056 0.309017 0
    outer loop
      vertex -5.25 27 0
      vertex -5.25 27 2
      vertex -4.82029 25.6775 2
    endloop
  endfacet
  facet normal 0.951056 -0.309017 0
    outer loop
      vertex -5.25 27 2
      vertex -4.82029 28.3225 0
      vertex -4.82029 28.3225 2
    endloop
  endfacet
  facet normal 0.951056 0.309017 0
    outer loop
      vertex -5.25 7 0
      vertex -4.82029 5.67748 2
      vertex -4.82029 5.67748 0
    endloop
  endfacet
  facet normal 0.951056 -0.309017 0
    outer loop
      vertex -5.25 7 0
      vertex -4.82029 8.32252 0
      vertex -5.25 7 2
    endloop
  endfacet
  facet normal 0.951056 0.309017 0
    outer loop
      vertex -5.25 7 0
      vertex -5.25 7 2
      vertex -4.82029 5.67748 2
    endloop
  endfacet
  facet normal 0.951056 -0.309017 0
    outer loop
      vertex -5.25 7 2
      vertex -4.82029 8.32252 0
      vertex -4.82029 8.32252 2
    endloop
  endfacet
  facet normal 0 1 0
    outer loop
      vertex 10.4438 5.2881 0
      vertex 10.4438 5.2881 2
      vertex 11.5562 5.2881 0
    endloop
  endfacet
  facet normal 0 1 -0
    outer loop
      vertex 10.4438 5.2881 2
      vertex 11.5562 5.2881 2
      vertex 11.5562 5.2881 0
    endloop
  endfacet
  facet normal 0 -1 -0
    outer loop
      vertex 10.4438 8.7119 0
      vertex 11.5562 8.7119 0
      vertex 11.5562 8.7119 2
    endloop
  endfacet
  facet normal 0 -1 0
    outer loop
      vertex 10.4438 8.7119 0
      vertex 11.5562 8.7119 2
      vertex 10.4438 8.7119 2
    endloop
  endfacet
  facet normal 1 0 0
    outer loop
      vertex 100 0 0
      vertex 100 35 0
      vertex 100 0 2
    endloop
  endfacet
  facet normal 1 -0 0
    outer loop
      vertex 100 0 2
      vertex 100 35 0
      vertex 100 35 2
    endloop
  endfacet
  facet normal -0.587786 0.809017 0
    outer loop
      vertex 11.5562 5.2881 0
      vertex 11.5562 5.2881 2
      vertex 12.4562 5.94199 0
    endloop
  endfacet
  facet normal 0 0 -1
    outer loop
      vertex 11.5562 5.2881 0
      vertex 12.4562 5.94199 0
      vertex 50.4438 5.2881 0
    endloop
  endfacet
  facet normal -0.587786 0.809017 0
    outer loop
      vertex 11.5562 5.2881 2
      vertex 12.4562 5.94199 2
      vertex 12.4562 5.94199 0
    endloop
  endfacet
  facet normal 0 0 1
    outer loop
      vertex 11.5562 5.2881 2
      vertex 50.4438 5.2881 2
      vertex 12.4562 5.94199 2
    endloop
  endfacet
  facet normal -0.587786 -0.809017 -0
    outer loop
      vertex 11.5562 8.7119 0
      vertex 12.4562 8.05801 0
      vertex 12.4562 8.05801 2
    endloop
  endfacet
  facet normal -0.587786 -0.809017 0
    outer loop
      vertex 11.5562 8.7119 0
      vertex 12.4562 8.05801 2
      vertex 11.5562 8.7119 2
    endloop
  endfacet
  facet normal -0 0 -1
    outer loop
      vertex 11.5562 8.7119 0
      vertex 29.2 23 0
      vertex 29.5438 21.942 0
    endloop
  endfacet
  facet normal 0 0 -1
    outer loop
      vertex 11.5562 8.7119 0
      vertex 29.5438 21.942 0
      vertex 12.4562 8.05801 0
    endloop
  endfacet
  facet normal 0 0 1
    outer loop
      vertex 11.5562 8.7119 2
      vertex 12.4562 8.05801 2
      vertex 29.2 23 2
    endloop
  endfacet
  facet normal -0.951057 0.309017 0
    outer loop
      vertex 12.4562 5.94199 0
      vertex 12.4562 5.94199 2
      vertex 12.8 7 2
    endloop
  endfacet
  facet normal 0 0 -1
    outer loop
      vertex 12.4562 5.94199 0
      vertex 12.8 7 0
      vertex 49.5438 5.94199 0
    endloop
  endfacet
  facet normal -0.951057 0.309017 0
    outer loop
      vertex 12.4562 5.94199 0
      vertex 12.8 7 2
      vertex 12.8 7 0
    endloop
  endfacet
  facet normal 0 0 -1
    outer loop
      vertex 12.4562 5.94199 0
      vertex 49.5438 5.94199 0
      vertex 50.4438 5.2881 0
    endloop
  endfacet
  facet normal 0 0 1
    outer loop
      vertex 12.4562 5.94199 2
      vertex 49.5438 5.94199 2
      vertex 12.8 7 2
    endloop
  endfacet
  facet normal 0 0 1
    outer loop
      vertex 12.4562 5.94199 2
      vertex 50.4438 5.2881 2
      vertex 49.5438 5.94199 2
    endloop
  endfacet
  facet normal -0.951057 -0.309017 0
    outer loop
      vertex 12.4562 8.05801 0
      vertex 12.8 7 0
      vertex 12.4562 8.05801 2
    endloop
  endfacet
  facet normal -0 0 -1
    outer loop
      vertex 12.4562 8.05801 0
      vertex 29.5438 21.942 0
      vertex 30.4438 21.2881 0
    endloop
  endfacet
  facet normal 0 0 -1
    outer loop
      vertex 12.4562 8.05801 0
      vertex 30.4438 21.2881 0
      vertex 12.8 7 0
    endloop
  endfacet
  facet normal -0.951057 -0.309017 0
    outer loop
      vertex 12.4562 8.05801 2
      vertex 12.8 7 0
      vertex 12.8 7 2
    endloop
  endfacet
  facet normal 0 0 1
    outer loop
      vertex 12.4562 8.05801 2
      vertex 12.8 7 2
      vertex 29.2 23 2
    endloop
  endfacet
  facet normal 0 0 -1
    outer loop
      vertex 12.8 7 0
      vertex 30.4438 21.2881 0
      vertex 49.2 7 0
    endloop
  endfacet
  facet normal 0 0 -1
    outer loop
      vertex 12.8 7 0
      vertex 49.2 7 0
      vertex 49.5438 5.94199 0
    endloop
  endfacet
  facet normal 0 0 1
    outer loop
      vertex 12.8 7 2
      vertex 29.5438 21.942 2
      vertex 29.2 23 2
    endloop
  endfacet
  facet normal 0 0 1
    outer loop
      vertex 12.8 7 2
      vertex 30.4438 21.2881 2
      vertex 29.5438 21.942 2
    endloop
  endfacet
  facet normal 0 0 1
    outer loop
      vertex 12.8 7 2
      vertex 49.2 7 2
      vertex 30.4438 21.2881 2
    endloop
  endfacet
  facet normal 0 0 1
    outer loop
      vertex 12.8 7 2
      vertex 49.5438 5.94199 2
      vertex 49.2 7 2
    endloop
  endfacet
  facet normal 0.951057 0.309017 0
    outer loop
      vertex 29.2 23 0
      vertex 29.2 23 2
      vertex 29.5438 21.942 2
    endloop
  endfacet
  facet normal 0.951057 0.309017 0
    outer loop
      vertex 29.2 23 0
      vertex 29.5438 21.942 2
      vertex 29.5438 21.942 0
    endloop
  endfacet
  facet normal 0.951057 -0.309017 0
    outer loop
      vertex 29.2 23 0
      vertex 29.5438 24.058 0
      vertex 29.2 23 2
    endloop
  endfacet
  facet normal 0.951057 -0.309017 0
    outer loop
      vertex 29.2 23 2
      vertex 29.5438 24.058 0
      vertex 29.5438 24.058 2
    endloop
  endfacet
  facet normal 0.587786 0.809016 0
    outer loop
      vertex 29.5438 21.942 0
      vertex 29.5438 21.942 2
      vertex 30.4438 21.2881 0
    endloop
  endfacet
  facet normal 0.587786 0.809016 -0
    outer loop
      vertex 29.5438 21.942 2
      vertex 30.4438 21.2881 2
      vertex 30.4438 21.2881 0
    endloop
  endfacet
  facet normal 0.587786 -0.809016 0
    outer loop
      vertex 29.5438 24.058 0
      vertex 30.4438 24.7119 0
      vertex 30.4438 24.7119 2
    endloop
  endfacet
  facet normal 0.587786 -0.809016 0
    outer loop
      vertex 29.5438 24.058 0
      vertex 30.4438 24.7119 2
      vertex 29.5438 24.058 2
    endloop
  endfacet
  facet normal 0 1 0
    outer loop
      vertex 30.4438 21.2881 0
      vertex 30.4438 21.2881 2
      vertex 31.5562 21.2881 0
    endloop
  endfacet
  facet normal 0 0 -1
    outer loop
      vertex 30.4438 21.2881 0
      vertex 31.5562 21.2881 0
      vertex 49.2 7 0
    endloop
  endfacet
  facet normal 0 1 -0
    outer loop
      vertex 30.4438 21.2881 2
      vertex 31.5562 21.2881 2
      vertex 31.5562 21.2881 0
    endloop
  endfacet
  facet normal -0 0 1
    outer loop
      vertex 30.4438 21.2881 2
      vertex 49.2 7 2
      vertex 31.5562 21.2881 2
    endloop
  endfacet
  facet normal 0 -1 -0
    outer loop
      vertex 30.4438 24.7119 0
      vertex 31.5562 24.7119 0
      vertex 31.5562 24.7119 2
    endloop
  endfacet
  facet normal 0 -1 0
    outer loop
      vertex 30.4438 24.7119 0
      vertex 31.5562 24.7119 2
      vertex 30.4438 24.7119 2
    endloop
  endfacet
  facet normal -0.587786 0.809017 0
    outer loop
      vertex 31.5562 21.2881 0
      vertex 31.5562 21.2881 2
      vertex 32.4562 21.942 0
    endloop
  endfacet
  facet normal 0 0 -1
    outer loop
      vertex 31.5562 21.2881 0
      vertex 32.4562 21.942 0
      vertex 49.2 7 0
    endloop
  endfacet
  facet normal -0.587786 0.809017 0
    outer loop
      vertex 31.5562 21.2881 2
      vertex 32.4562 21.942 2
      vertex 32.4562 21.942 0
    endloop
  endfacet
  facet normal 0 0 1
    outer loop
      vertex 31.5562 21.2881 2
      vertex 49.2 7 2
      vertex 49.5438 8.05801 2
    endloop
  endfacet
  facet normal -0 0 1
    outer loop
      vertex 31.5562 21.2881 2
      vertex 49.5438 8.05801 2
      vertex 32.4562 21.942 2
    endloop
  endfacet
  facet normal -0.587786 -0.809017 -0
    outer loop
      vertex 31.5562 24.7119 0
      vertex 32.4562 24.058 0
      vertex 32.4562 24.058 2
    endloop
  endfacet
  facet normal -0.587786 -0.809017 0
    outer loop
      vertex 31.5562 24.7119 0
      vertex 32.4562 24.058 2
      vertex 31.5562 24.7119 2
    endloop
  endfacet
  facet normal 0 0 -1
    outer loop
      vertex 31.5562 24.7119 0
      vertex 69.5438 26.058 0
      vertex 32.4562 24.058 0
    endloop
  endfacet
  facet normal -0 0 -1
    outer loop
      vertex 31.5562 24.7119 0
      vertex 70.4438 26.7119 0
      vertex 69.5438 26.058 0
    endloop
  endfacet
  facet normal 0 0 1
    outer loop
      vertex 31.5562 24.7119 2
      vertex 32.4562 24.058 2
      vertex 69.5438 26.058 2
    endloop
  endfacet
  facet normal 0 0 1
    outer loop
      vertex 31.5562 24.7119 2
      vertex 69.5438 26.058 2
      vertex 70.4438 26.7119 2
    endloop
  endfacet
  facet normal -0.951057 0.309017 0
    outer loop
      vertex 32.4562 21.942 0
      vertex 32.4562 21.942 2
      vertex 32.8 23 2
    endloop
  endfacet
  facet normal 0 0 -1
    outer loop
      vertex 32.4562 21.942 0
      vertex 32.8 23 0
      vertex 49.2 7 0
    endloop
  endfacet
  facet normal -0.951057 0.309017 0
    outer loop
      vertex 32.4562 21.942 0
      vertex 32.8 23 2
      vertex 32.8 23 0
    endloop
  endfacet
  facet normal 0 0 1
    outer loop
      vertex 32.4562 21.942 2
      vertex 49.5438 8.05801 2
      vertex 50.4438 8.7119 2
    endloop
  endfacet
  facet normal -0 0 1
    outer loop
      vertex 32.4562 21.942 2
      vertex 50.4438 8.7119 2
      vertex 32.8 23 2
    endloop
  endfacet
  facet normal -0.951057 -0.309017 0
    outer loop
      vertex 32.4562 24.058 0
      vertex 32.8 23 0
      vertex 32.4562 24.058 2
    endloop
  endfacet
  facet normal 0 0 -1
    outer loop
      vertex 32.4562 24.058 0
      vertex 69.2 25 0
      vertex 32.8 23 0
    endloop
  endfacet
  facet normal -0 0 -1
    outer loop
      vertex 32.4562 24.058 0
      vertex 69.5438 26.058 0
      vertex 69.2 25 0
    endloop
  endfacet
  facet normal -0.951057 -0.309017 0
    outer loop
      vertex 32.4562 24.058 2
      vertex 32.8 23 0
      vertex 32.8 23 2
    endloop
  endfacet
  facet normal 0 0 1
    outer loop
      vertex 32.4562 24.058 2
      vertex 32.8 23 2
      vertex 69.2 25 2
    endloop
  endfacet
  facet normal 0 0 1
    outer loop
      vertex 32.4562 24.058 2
      vertex 69.2 25 2
      vertex 69.5438 26.058 2
    endloop
  endfacet
  facet normal 0 0 -1
    outer loop
      vertex 32.8 23 0
      vertex 49.5438 8.05801 0
      vertex 49.2 7 0
    endloop
  endfacet
  facet normal 0 0 -1
    outer loop
      vertex 32.8 23 0
      vertex 50.4438 8.7119 0
      vertex 49.5438 8.05801 0
    endloop
  endfacet
  facet normal 0 0 -1
    outer loop
      vertex 32.8 23 0
      vertex 69.2 25 0
      vertex 50.4438 8.7119 0
    endloop
  endfacet
  facet normal 0 0 1
    outer loop
      vertex 32.8 23 2
      vertex 50.4438 8.7119 2
      vertex 69.2 25 2
    endloop
  endfacet
  facet normal 0.951057 0.309017 0
    outer loop
      vertex 49.2 7 0
      vertex 49.2 7 2
      vertex 49.5438 5.94199 2
    endloop
  endfacet
  facet normal 0.951057 0.309017 0
    outer loop
      vertex 49.2 7 0
      vertex 49.5438 5.94199 2
      vertex 49.5438 5.94199 0
    endloop
  endfacet
  facet normal 0.951057 -0.309017 0
    outer loop
      vertex 49.2 7 0
      vertex 49.5438 8.05801 0
      vertex 49.2 7 2
    endloop
  endfacet
  facet normal 0.951057 -0.309017 0
    outer loop
      vertex 49.2 7 2
      vertex 49.5438 8.05801 0
      vertex 49.5438 8.05801 2
    endloop
  endfacet
  facet normal 0.587786 0.809016 0
    outer loop
      vertex 49.5438 5.94199 0
      vertex 49.5438 5.94199 2
      vertex 50.4438 5.2881 0
    endloop
  endfacet
  facet normal 0.587786 0.809016 -0
    outer loop
      vertex 49.5438 5.94199 2
      vertex 50.4438 5.2881 2
      vertex 50.4438 5.2881 0
    endloop
  endfacet
  facet normal 0.587786 -0.809016 0
    outer loop
      vertex 49.5438 8.05801 0
      vertex 50.4438 8.7119 0
      vertex 50.4438 8.7119 2
    endloop
  endfacet
  facet normal 0.587786 -0.809016 0
    outer loop
      vertex 49.5438 8.05801 0
      vertex 50.4438 8.7119 2
      vertex 49.5438 8.05801 2
    endloop
  endfacet
  facet normal 0 1 0
    outer loop
      vertex 50.4438 5.2881 0
      vertex 50.4438 5.2881 2
      vertex 51.5562 5.2881 0
    endloop
  endfacet
  facet normal 0 0 -1
    outer loop
      vertex 50.4438 5.2881 0
      vertex 51.5562 5.2881 0
      vertex 100 0 0
    endloop
  endfacet
  facet normal -0 0 1
    outer loop
      vertex 50.4438 5.2881 2
      vertex 100 0 2
      vertex 51.5562 5.2881 2
    endloop
  endfacet
  facet normal 0 1 -0
    outer loop
      vertex 50.4438 5.2881 2
      vertex 51.5562 5.2881 2
      vertex 51.5562 5.2881 0
    endloop
  endfacet
  facet normal 0 -1 -0
    outer loop
      vertex 50.4438 8.7119 0
      vertex 51.5562 8.7119 0
      vertex 51.5562 8.7119 2
    endloop
  endfacet
  facet normal 0 -1 0
    outer loop
      vertex 50.4438 8.7119 0
      vertex 51.5562 8.7119 2
      vertex 50.4438 8.7119 2
    endloop
  endfacet
  facet normal 0 0 -1
    outer loop
      vertex 50.4438 8.7119 0
      vertex 69.2 25 0
      vertex 51.5562 8.7119 0
    endloop
  endfacet
  facet normal 0 0 1
    outer loop
      vertex 50.4438 8.7119 2
      vertex 51.5562 8.7119 2
      vertex 69.2 25 2
    endloop
  endfacet
  facet normal -0.587785 0.809017 0
    outer loop
      vertex 51.5562 5.2881 0
      vertex 51.5562 5.2881 2
      vertex 52.4562 5.94199 0
    endloop
  endfacet
  facet normal 0 0 -1
    outer loop
      vertex 51.5562 5.2881 0
      vertex 52.4562 5.94199 0
      vertex 90.4438 5.2881 0
    endloop
  endfacet
  facet normal 0 0 -1
    outer loop
      vertex 51.5562 5.2881 0
      vertex 90.4438 5.2881 0
      vertex 100 0 0
    endloop
  endfacet
  facet normal 0 0 1
    outer loop
      vertex 51.5562 5.2881 2
      vertex 100 0 2
      vertex 90.4438 5.2881 2
    endloop
  endfacet
  facet normal -0.587785 0.809017 0
    outer loop
      vertex 51.5562 5.2881 2
      vertex 52.4562 5.94199 2
      vertex 52.4562 5.94199 0
    endloop
  endfacet
  facet normal 0 0 1
    outer loop
      vertex 51.5562 5.2881 2
      vertex 90.4438 5.2881 2
      vertex 52.4562 5.94199 2
    endloop
  endfacet
  facet normal -0.587785 -0.809017 -0
    outer loop
      vertex 51.5562 8.7119 0
      vertex 52.4562 8.05801 0
      vertex 52.4562 8.05801 2
    endloop
  endfacet
  facet normal -0.587785 -0.809017 0
    outer loop
      vertex 51.5562 8.7119 0
      vertex 52.4562 8.05801 2
      vertex 51.5562 8.7119 2
    endloop
  endfacet
  facet normal -0 0 -1
    outer loop
      vertex 51.5562 8.7119 0
      vertex 69.2 25 0
      vertex 69.5438 23.942 0
    endloop
  endfacet
  facet normal 0 0 -1
    outer loop
      vertex 51.5562 8.7119 0
      vertex 69.5438 23.942 0
      vertex 52.4562 8.05801 0
    endloop
  endfacet
  facet normal 0 0 1
    outer loop
      vertex 51.5562 8.7119 2
      vertex 52.4562 8.05801 2
      vertex 69.2 25 2
    endloop
  endfacet
  facet normal -0.951057 0.309017 0
    outer loop
      vertex 52.4562 5.94199 0
      vertex 52.4562 5.94199 2
      vertex 52.8 7 2
    endloop
  endfacet
  facet normal 0 0 -1
    outer loop
      vertex 52.4562 5.94199 0
      vertex 52.8 7 0
      vertex 89.5438 5.94199 0
    endloop
  endfacet
  facet normal -0.951057 0.309017 0
    outer loop
      vertex 52.4562 5.94199 0
      vertex 52.8 7 2
      vertex 52.8 7 0
    endloop
  endfacet
  facet normal 0 0 -1
    outer loop
      vertex 52.4562 5.94199 0
      vertex 89.5438 5.94199 0
      vertex 90.4438 5.2881 0
    endloop
  endfacet
  facet normal 0 0 1
    outer loop
      vertex 52.4562 5.94199 2
      vertex 89.5438 5.94199 2
      vertex 52.8 7 2
    endloop
  endfacet
  facet normal 0 0 1
    outer loop
      vertex 52.4562 5.94199 2
      vertex 90.4438 5.2881 2
      vertex 89.5438 5.94199 2
    endloop
  endfacet
  facet normal -0.951057 -0.309017 0
    outer loop
      vertex 52.4562 8.05801 0
      vertex 52.8 7 0
      vertex 52.4562 8.05801 2
    endloop
  endfacet
  facet normal -0 0 -1
    outer loop
      vertex 52.4562 8.05801 0
      vertex 69.5438 23.942 0
      vertex 70.4438 23.2881 0
    endloop
  endfacet
  facet normal 0 0 -1
    outer loop
      vertex 52.4562 8.05801 0
      vertex 70.4438 23.2881 0
      vertex 52.8 7 0
    endloop
  endfacet
  facet normal -0.951057 -0.309017 0
    outer loop
      vertex 52.4562 8.05801 2
      vertex 52.8 7 0
      vertex 52.8 7 2
    endloop
  endfacet
  facet normal 0 0 1
    outer loop
      vertex 52.4562 8.05801 2
      vertex 52.8 7 2
      vertex 69.2 25 2
    endloop
  endfacet
  facet normal 0 0 -1
    outer loop
      vertex 52.8 7 0
      vertex 70.4438 23.2881 0
      vertex 89.2 7 0
    endloop
  endfacet
  facet normal 0 0 -1
    outer loop
      vertex 52.8 7 0
      vertex 89.2 7 0
      vertex 89.5438 5.94199 0
    endloop
  endfacet
  facet normal 0 0 1
    outer loop
      vertex 52.8 7 2
      vertex 69.5438 23.942 2
      vertex 69.2 25 2
    endloop
  endfacet
  facet normal 0 0 1
    outer loop
      vertex 52.8 7 2
      vertex 70.4438 23.2881 2
      vertex 69.5438 23.942 2
    endloop
  endfacet
  facet normal 0 0 1
    outer loop
      vertex 52.8 7 2
      vertex 89.2 7 2
      vertex 70.4438 23.2881 2
    endloop
  endfacet
  facet normal 0 0 1
    outer loop
      vertex 52.8 7 2
      vertex 89.5438 5.94199 2
      vertex 89.2 7 2
    endloop
  endfacet
  facet normal 0.951056 0.30902 0
    outer loop
      vertex 69.2 25 0
      vertex 69.2 25 2
      vertex 69.5438 23.942 2
    endloop
  endfacet
  facet normal 0.951056 0.30902 0
    outer loop
      vertex 69.2 25 0
      vertex 69.5438 23.942 2
      vertex 69.5438 23.942 0
    endloop
  endfacet
  facet normal 0.951056 -0.30902 0
    outer loop
      vertex 69.2 25 0
      vertex 69.5438 26.058 0
      vertex 69.2 25 2
    endloop
  endfacet
  facet normal 0.951056 -0.30902 0
    outer loop
      vertex 69.2 25 2
      vertex 69.5438 26.058 0
      vertex 69.5438 26.058 2
    endloop
  endfacet
  facet normal 0.587785 0.809017 0
    outer loop
      vertex 69.5438 23.942 0
      vertex 69.5438 23.942 2
      vertex 70.4438 23.2881 0
    endloop
  endfacet
  facet normal 0.587785 0.809017 -0
    outer loop
      vertex 69.5438 23.942 2
      vertex 70.4438 23.2881 2
      vertex 70.4438 23.2881 0
    endloop
  endfacet
  facet normal 0.587785 -0.809017 0
    outer loop
      vertex 69.5438 26.058 0
      vertex 70.4438 26.7119 0
      vertex 70.4438 26.7119 2
    endloop
  endfacet
  facet normal 0.587785 -0.809017 0
    outer loop
      vertex 69.5438 26.058 0
      vertex 70.4438 26.7119 2
      vertex 69.5438 26.058 2
    endloop
  endfacet
  facet normal 0 1 0
    outer loop
      vertex 70.4438 23.2881 0
      vertex 70.4438 23.2881 2
      vertex 71.5562 23.2881 0
    endloop
  endfacet
  facet normal 0 0 -1
    outer loop
      vertex 70.4438 23.2881 0
      vertex 71.5562 23.2881 0
      vertex 89.2 7 0
    endloop
  endfacet
  facet normal 0 1 -0
    outer loop
      vertex 70.4438 23.2881 2
      vertex 71.5562 23.2881 2
      vertex 71.5562 23.2881 0
    endloop
  endfacet
  facet normal -0 0 1
    outer loop
      vertex 70.4438 23.2881 2
      vertex 89.2 7 2
      vertex 71.5562 23.2881 2
    endloop
  endfacet
  facet normal 0 0 -1
    outer loop
      vertex 70.4438 26.7119 0
      vertex 100 35 0
      vertex 71.5562 26.7119 0
    endloop
  endfacet
  facet normal 0 -1 -0
    outer loop
      vertex 70.4438 26.7119 0
      vertex 71.5562 26.7119 0
      vertex 71.5562 26.7119 2
    endloop
  endfacet
  facet normal 0 -1 0
    outer loop
      vertex 70.4438 26.7119 0
      vertex 71.5562 26.7119 2
      vertex 70.4438 26.7119 2
    endloop
  endfacet
  facet normal 0 0 1
    outer loop
      vertex 70.4438 26.7119 2
      vertex 71.5562 26.7119 2
      vertex 100 35 2
    endloop
  endfacet
  facet normal -0.587785 0.809017 0
    outer loop
      vertex 71.5562 23.2881 0
      vertex 71.5562 23.2881 2
      vertex 72.4562 23.942 0
    endloop
  endfacet
  facet normal 0 0 -1
    outer loop
      vertex 71.5562 23.2881 0
      vertex 72.4562 23.942 0
      vertex 89.2 7 0
    endloop
  endfacet
  facet normal -0.587785 0.809017 0
    outer loop
      vertex 71.5562 23.2881 2
      vertex 72.4562 23.942 2
      vertex 72.4562 23.942 0
    endloop
  endfacet
  facet normal 0 0 1
    outer loop
      vertex 71.5562 23.2881 2
      vertex 89.2 7 2
      vertex 89.5438 8.05801 2
    endloop
  endfacet
  facet normal -0 0 1
    outer loop
      vertex 71.5562 23.2881 2
      vertex 89.5438 8.05801 2
      vertex 72.4562 23.942 2
    endloop
  endfacet
  facet normal 0 0 -1
    outer loop
      vertex 71.5562 26.7119 0
      vertex 100 35 0
      vertex 72.4562 26.058 0
    endloop
  endfacet
  facet normal -0.587785 -0.809017 -0
    outer loop
      vertex 71.5562 26.7119 0
      vertex 72.4562 26.058 0
      vertex 72.4562 26.058 2
    endloop
  endfacet
  facet normal -0.587785 -0.809017 0
    outer loop
      vertex 71.5562 26.7119 0
      vertex 72.4562 26.058 2
      vertex 71.5562 26.7119 2
    endloop
  endfacet
  facet normal 0 0 1
    outer loop
      vertex 71.5562 26.7119 2
      vertex 72.4562 26.058 2
      vertex 100 35 2
    endloop
  endfacet
  facet normal -0.951056 0.30902 0
    outer loop
      vertex 72.4562 23.942 0
      vertex 72.4562 23.942 2
      vertex 72.8 25 2
    endloop
  endfacet
  facet normal 0 0 -1
    outer loop
      vertex 72.4562 23.942 0
      vertex 72.8 25 0
      vertex 89.2 7 0
    endloop
  endfacet
  facet normal -0.951056 0.30902 0
    outer loop
      vertex 72.4562 23.942 0
      vertex 72.8 25 2
      vertex 72.8 25 0
    endloop
  endfacet
  facet normal 0 0 1
    outer loop
      vertex 72.4562 23.942 2
      vertex 89.5438 8.05801 2
      vertex 90.4438 8.7119 2
    endloop
  endfacet
  facet normal -0 0 1
    outer loop
      vertex 72.4562 23.942 2
      vertex 90.4438 8.7119 2
      vertex 72.8 25 2
    endloop
  endfacet
  facet normal 0 0 -1
    outer loop
      vertex 72.4562 26.058 0
      vertex 100 35 0
      vertex 72.8 25 0
    endloop
  endfacet
  facet normal -0.951056 -0.30902 0
    outer loop
      vertex 72.4562 26.058 0
      vertex 72.8 25 0
      vertex 72.4562 26.058 2
    endloop
  endfacet
  facet normal -0.951056 -0.30902 0
    outer loop
      vertex 72.4562 26.058 2
      vertex 72.8 25 0
      vertex 72.8 25 2
    endloop
  endfacet
  facet normal 0 0 1
    outer loop
      vertex 72.4562 26.058 2
      vertex 72.8 25 2
      vertex 100 35 2
    endloop
  endfacet
  facet normal 0 0 -1
    outer loop
      vertex 72.8 25 0
      vertex 100 35 0
      vertex 90.4438 8.7119 0
    endloop
  endfacet
  facet normal 0 0 -1
    outer loop
      vertex 72.8 25 0
      vertex 89.5438 8.05801 0
      vertex 89.2 7 0
    endloop
  endfacet
  facet normal 0 0 -1
    outer loop
      vertex 72.8 25 0
      vertex 90.4438 8.7119 0
      vertex 89.5438 8.05801 0
    endloop
  endfacet
  facet normal -0 0 1
    outer loop
      vertex 72.8 25 2
      vertex 90.4438 8.7119 2
      vertex 100 35 2
    endloop
  endfacet
  facet normal 0.951056 0.30902 0
    outer loop
      vertex 89.2 7 0
      vertex 89.2 7 2
      vertex 89.5438 5.94199 2
    endloop
  endfacet
  facet normal 0.951056 0.30902 0
    outer loop
      vertex 89.2 7 0
      vertex 89.5438 5.94199 2
      vertex 89.5438 5.94199 0
    endloop
  endfacet
  facet normal 0.951056 -0.30902 0
    outer loop
      vertex 89.2 7 0
      vertex 89.5438 8.05801 0
      vertex 89.2 7 2
    endloop
  endfacet
  facet normal 0.951056 -0.30902 0
    outer loop
      vertex 89.2 7 2
      vertex 89.5438 8.05801 0
      vertex 89.5438 8.05801 2
    endloop
  endfacet
  facet normal 0.587785 0.809017 0
    outer loop
      vertex 89.5438 5.94199 0
      vertex 89.5438 5.94199 2
      vertex 90.4438 5.2881 0
    endloop
  endfacet
  facet normal 0.587785 0.809017 -0
    outer loop
      vertex 89.5438 5.94199 2
      vertex 90.4438 5.2881 2
      vertex 90.4438 5.2881 0
    endloop
  endfacet
  facet normal 0.587785 -0.809017 0
    outer loop
      vertex 89.5438 8.05801 0
      vertex 90.4438 8.7119 0
      vertex 90.4438 8.7119 2
    endloop
  endfacet
  facet normal 0.587785 -0.809017 0
    outer loop
      vertex 89.5438 8.05801 0
      vertex 90.4438 8.7119 2
      vertex 89.5438 8.05801 2
    endloop
  endfacet
  facet normal 0.951057 0.309017 0
    outer loop
      vertex 9.2 7 0
      vertex 9.2 7 2
      vertex 9.54377 5.94199 2
    endloop
  endfacet
  facet normal 0.951057 0.309017 0
    outer loop
      vertex 9.2 7 0
      vertex 9.54377 5.94199 2
      vertex 9.54377 5.94199 0
    endloop
  endfacet
  facet normal 0.951057 -0.309017 0
    outer loop
      vertex 9.2 7 0
      vertex 9.54377 8.05801 0
      vertex 9.2 7 2
    endloop
  endfacet
  facet normal 0.951057 -0.309017 0
    outer loop
      vertex 9.2 7 2
      vertex 9.54377 8.05801 0
      vertex 9.54377 8.05801 2
    endloop
  endfacet
  facet normal 0.587786 0.809017 0
    outer loop
      vertex 9.54377 5.94199 0
      vertex 9.54377 5.94199 2
      vertex 10.4438 5.2881 0
    endloop
  endfacet
  facet normal 0.587786 0.809017 -0
    outer loop
      vertex 9.54377 5.94199 2
      vertex 10.4438 5.2881 2
      vertex 10.4438 5.2881 0
    endloop
  endfacet
  facet normal 0.587786 -0.809017 0
    outer loop
      vertex 9.54377 8.05801 0
      vertex 10.4438 8.7119 0
      vertex 10.4438 8.7119 2
    endloop
  endfacet
  facet normal 0.587786 -0.809017 0
    outer loop
      vertex 9.54377 8.05801 0
      vertex 10.4438 8.7119 2
      vertex 9.54377 8.05801 2
    endloop
  endfacet
  facet normal 0 1 0
    outer loop
      vertex 90.4438 5.2881 0
      vertex 90.4438 5.2881 2
      vertex 91.5562 5.2881 0
    endloop
  endfacet
  facet normal 0 0 -1
    outer loop
      vertex 90.4438 5.2881 0
      vertex 91.5562 5.2881 0
      vertex 100 0 0
    endloop
  endfacet
  facet normal -0 0 1
    outer loop
      vertex 90.4438 5.2881 2
      vertex 100 0 2
      vertex 91.5562 5.2881 2
    endloop
  endfacet
  facet normal 0 1 -0
    outer loop
      vertex 90.4438 5.2881 2
      vertex 91.5562 5.2881 2
      vertex 91.5562 5.2881 0
    endloop
  endfacet
  facet normal 0 0 -1
    outer loop
      vertex 90.4438 8.7119 0
      vertex 100 35 0
      vertex 91.5562 8.7119 0
    endloop
  endfacet
  facet normal 0 -1 -0
    outer loop
      vertex 90.4438 8.7119 0
      vertex 91.5562 8.7119 0
      vertex 91.5562 8.7119 2
    endloop
  endfacet
  facet normal 0 -1 0
    outer loop
      vertex 90.4438 8.7119 0
      vertex 91.5562 8.7119 2
      vertex 90.4438 8.7119 2
    endloop
  endfacet
  facet normal 0 0 1
    outer loop
      vertex 90.4438 8.7119 2
      vertex 91.5562 8.7119 2
      vertex 100 35 2
    endloop
  endfacet
  facet normal -0.587785 0.809017 0
    outer loop
      vertex 91.5562 5.2881 0
      vertex 91.5562 5.2881 2
      vertex 92.4562 5.94199 0
    endloop
  endfacet
  facet normal 0 0 -1
    outer loop
      vertex 91.5562 5.2881 0
      vertex 92.4562 5.94199 0
      vertex 100 0 0
    endloop
  endfacet
  facet normal -0 0 1
    outer loop
      vertex 91.5562 5.2881 2
      vertex 100 0 2
      vertex 92.4562 5.94199 2
    endloop
  endfacet
  facet normal -0.587785 0.809017 0
    outer loop
      vertex 91.5562 5.2881 2
      vertex 92.4562 5.94199 2
      vertex 92.4562 5.94199 0
    endloop
  endfacet
  facet normal 0 0 -1
    outer loop
      vertex 91.5562 8.7119 0
      vertex 100 35 0
      vertex 92.4562 8.05801 0
    endloop
  endfacet
  facet normal -0.587785 -0.809017 -0
    outer loop
      vertex 91.5562 8.7119 0
      vertex 92.4562 8.05801 0
      vertex 92.4562 8.05801 2
    endloop
  endfacet
  facet normal -0.587785 -0.809017 0
    outer loop
      vertex 91.5562 8.7119 0
      vertex 92.4562 8.05801 2
      vertex 91.5562 8.7119 2
    endloop
  endfacet
  facet normal 0 0 1
    outer loop
      vertex 91.5562 8.7119 2
      vertex 92.4562 8.05801 2
      vertex 100 35 2
    endloop
  endfacet
  facet normal -0.951056 0.30902 0
    outer loop
      vertex 92.4562 5.94199 0
      vertex 92.4562 5.94199 2
      vertex 92.8 7 2
    endloop
  endfacet
  facet normal 0 0 -1
    outer loop
      vertex 92.4562 5.94199 0
      vertex 92.8 7 0
      vertex 100 0 0
    endloop
  endfacet
  facet normal -0.951056 0.30902 0
    outer loop
      vertex 92.4562 5.94199 0
      vertex 92.8 7 2
      vertex 92.8 7 0
    endloop
  endfacet
  facet normal -0 0 1
    outer loop
      vertex 92.4562 5.94199 2
      vertex 100 0 2
      vertex 92.8 7 2
    endloop
  endfacet
  facet normal 0 0 -1
    outer loop
      vertex 92.4562 8.05801 0
      vertex 100 0 0
      vertex 92.8 7 0
    endloop
  endfacet
  facet normal 0 0 -1
    outer loop
      vertex 92.4562 8.05801 0
      vertex 100 35 0
      vertex 100 0 0
    endloop
  endfacet
  facet normal -0.951056 -0.30902 0
    outer loop
      vertex 92.4562 8.05801 0
      vertex 92.8 7 0
      vertex 92.4562 8.05801 2
    endloop
  endfacet
  facet normal -0 0 1
    outer loop
      vertex 92.4562 8.05801 2
      vertex 100 0 2
      vertex 100 35 2
    endloop
  endfacet
  facet normal -0.951056 -0.30902 0
    outer loop
      vertex 92.4562 8.05801 2
      vertex 92.8 7 0
      vertex 92.8 7 2
    endloop
  endfacet
  facet normal 0 0 1
    outer loop
      vertex 92.4562 8.05801 2
      vertex 92.8 7 2
      vertex 100 0 2
    endloop
  endfacet
endsolid model
