solid model
  facet normal 0.156434 0.987688 0
    outer loop
      vertex -0.494427 -1.52169 0
      vertex -0.494427 -1.52169 12
      vertex 0 -1.6 0
    endloop
  endfacet
  facet normal 0.156434 0.987688 -0
    outer loop
      vertex -0.494427 -1.52169 12
      vertex 0 -1.6 12
      vertex 0 -1.6 0
    endloop
  endfacet
  facet normal 0.156434 -0.987688 0
    outer loop
      vertex -0.494427 1.52169 0
      vertex 0 1.6 0
      vertex 0 1.6 12
    endloop
  endfacet
  facet normal 0.156434 -0.987688 0
    outer loop
      vertex -0.494427 1.52169 0
      vertex 0 1.6 12
      vertex -0.494427 1.52169 12
    endloop
  endfacet
  facet normal 0 0 -1
    outer loop
      vertex -0.502324 -7.98421 0
      vertex 0 -1.6 0
      vertex 0.502324 -7.98421 0
    endloop
  endfacet
  facet normal 0 -1 -0
    outer loop
      vertex -0.502324 -7.98421 0
      vertex 0.502324 -7.98421 0
      vertex 0.502324 -7.98421 12
    endloop
  endfacet
  facet normal 0 -1 0
    outer loop
      vertex -0.502324 -7.98421 0
      vertex 0.502324 -7.98421 12
      vertex -0.502324 -7.98421 12
    endloop
  endfacet
  facet normal 0 0 1
    outer loop
      vertex -0.502324 -7.98421 12
      vertex 0.502324 -7.98421 12
      vertex 0 -1.6 12
    endloop
  endfacet
  facet normal 0 1 0
    outer loop
      vertex -0.502324 7.98421 0
      vertex -0.502324 7.98421 12
      vertex 0.502324 7.98421 0
    endloop
  endfacet
  facet normal 0 0 -1
    outer loop
      vertex -0.502324 7.98421 0
      vertex 0.502324 7.98421 0
      vertex 0 1.6 0
    endloop
  endfacet
  facet normal -0 0 1
    outer loop
      vertex -0.502324 7.98421 12
      vertex 0 1.6 12
      vertex 0.502324 7.98421 12
    endloop
  endfacet
  facet normal 0 1 -0
    outer loop
      vertex -0.502324 7.98421 12
      vertex 0.502324 7.98421 12
      vertex 0.502324 7.98421 0
    endloop
  endfacet
  facet normal 0.45399 0.891007 0
    outer loop
      vertex -0.940456 -1.29443 0
      vertex -0.940456 -1.29443 12
      vertex -0.494427 -1.52169 0
    endloop
  endfacet
  facet normal 0.45399 0.891007 -0
    outer loop
      vertex -0.940456 -1.29443 12
      vertex -0.494427 -1.52169 12
      vertex -0.494427 -1.52169 0
    endloop
  endfacet
  facet normal 0.45399 -0.891007 0
    outer loop
      vertex -0.940456 1.29443 0
      vertex -0.494427 1.52169 0
      vertex -0.494427 1.52169 12
    endloop
  endfacet
  facet normal 0.45399 -0.891007 0
    outer loop
      vertex -0.940456 1.29443 0
      vertex -0.494427 1.52169 12
      vertex -0.940456 1.29443 12
    endloop
  endfacet
  facet normal 0.707107 0.707107 0
    outer loop
      vertex -1.29443 -0.940456 0
      vertex -0.940456 -1.29443 12
      vertex -0.940456 -1.29443 0
    endloop
  endfacet
  facet normal 0.707107 0.707107 0
    outer loop
      vertex -1.29443 -0.940456 0
      vertex -1.29443 -0.940456 12
      vertex -0.940456 -1.29443 12
    endloop
  endfacet
  facet normal 0.707107 -0.707107 0
    outer loop
      vertex -1.29443 0.940456 0
      vertex -0.940456 1.29443 0
      vertex -1.29443 0.940456 12
    endloop
  endfacet
  facet normal 0.707107 -0.707107 0
    outer loop
      vertex -1.29443 0.940456 12
      vertex -0.940456 1.29443 0
      vertex -0.940456 1.29443 12
    endloop
  endfacet
  facet normal -0 0 -1
    outer loop
      vertex -1.49905 -7.8583 0
      vertex -0.494427 -1.52169 0
      vertex 0 -1.6 0
    endloop
  endfacet
  facet normal -0.125333 -0.992115 -0
    outer loop
      vertex -1.49905 -7.8583 0
      vertex -0.502324 -7.98421 0
      vertex -0.502324 -7.98421 12
    endloop
  endfacet
  facet normal -0.125333 -0.992115 0
    outer loop
      vertex -1.49905 -7.8583 0
      vertex -0.502324 -7.98421 12
      vertex -1.49905 -7.8583 12
    endloop
  endfacet
  facet normal 0 0 -1
    outer loop
      vertex -1.49905 -7.8583 0
      vertex 0 -1.6 0
      vertex -0.502324 -7.98421 0
    endloop
  endfacet
  facet normal 0 0 1
    outer loop
      vertex -1.49905 -7.8583 12
      vertex -0.502324 -7.98421 12
      vertex 0 -1.6 12
    endloop
  endfacet
  facet normal 0 0 1
    outer loop
      vertex -1.49905 -7.8583 12
      vertex 0 -1.6 12
      vertex -0.494427 -1.52169 12
    endloop
  endfacet
  facet normal 0 0 -1
    outer loop
      vertex -1.49905 7.8583 0
      vertex -0.502324 7.98421 0
      vertex 0 1.6 0
    endloop
  endfacet
  facet normal -0.125333 0.992115 0
    outer loop
      vertex -1.49905 7.8583 0
      vertex -1.49905 7.8583 12
      vertex -0.502324 7.98421 0
    endloop
  endfacet
  facet normal 0 0 -1
    outer loop
      vertex -1.49905 7.8583 0
      vertex 0 1.6 0
      vertex -0.494427 1.52169 0
    endloop
  endfacet
  facet normal 0 0 1
    outer loop
      vertex -1.49905 7.8583 12
      vertex -0.494427 1.52169 12
      vertex 0 1.6 12
    endloop
  endfacet
  facet normal -0.125333 0.992115 0
    outer loop
      vertex -1.49905 7.8583 12
      vertex -0.502324 7.98421 12
      vertex -0.502324 7.98421 0
    endloop
  endfacet
  facet normal -0 0 1
    outer loop
      vertex -1.49905 7.8583 12
      vertex 0 1.6 12
      vertex -0.502324 7.98421 12
    endloop
  endfacet
  facet normal 0.891007 0.45399 0
    outer loop
      vertex -1.52169 -0.494427 0
      vertex -1.29443 -0.940456 12
      vertex -1.29443 -0.940456 0
    endloop
  endfacet
  facet normal 0.891007 0.45399 0
    outer loop
      vertex -1.52169 -0.494427 0
      vertex -1.52169 -0.494427 12
      vertex -1.29443 -0.940456 12
    endloop
  endfacet
  facet normal 0.891007 -0.45399 0
    outer loop
      vertex -1.52169 0.494427 0
      vertex -1.29443 0.940456 0
      vertex -1.52169 0.494427 12
    endloop
  endfacet
  facet normal 0.891007 -0.45399 0
    outer loop
      vertex -1.52169 0.494427 12
      vertex -1.29443 0.940456 0
      vertex -1.29443 0.940456 12
    endloop
  endfacet
  facet normal 0.987688 0.156434 0
    outer loop
      vertex -1.6 0 0
      vertex -1.52169 -0.494427 12
      vertex -1.52169 -0.494427 0
    endloop
  endfacet
  facet normal 0.987688 -0.156434 0
    outer loop
      vertex -1.6 0 0
      vertex -1.52169 0.494427 0
      vertex -1.6 0 12
    endloop
  endfacet
  facet normal 0.987688 0.156434 0
    outer loop
      vertex -1.6 0 0
      vertex -1.6 0 12
      vertex -1.52169 -0.494427 12
    endloop
  endfacet
  facet normal 0.987688 -0.156434 0
    outer loop
      vertex -1.6 0 12
      vertex -1.52169 0.494427 0
      vertex -1.52169 0.494427 12
    endloop
  endfacet
  facet normal 0 0 -1
    outer loop
      vertex -2.47214 -7.60845 0
      vertex -0.494427 -1.52169 0
      vertex -1.49905 -7.8583 0
    endloop
  endfacet
  facet normal -0.24869 -0.968583 -0
    outer loop
      vertex -2.47214 -7.60845 0
      vertex -1.49905 -7.8583 0
      vertex -1.49905 -7.8583 12
    endloop
  endfacet
  facet normal -0.24869 -0.968583 0
    outer loop
      vertex -2.47214 -7.60845 0
      vertex -1.49905 -7.8583 12
      vertex -2.47214 -7.60845 12
    endloop
  endfacet
  facet normal 0 0 1
    outer loop
      vertex -2.47214 -7.60845 12
      vertex -1.49905 -7.8583 12
      vertex -0.494427 -1.52169 12
    endloop
  endfacet
  facet normal 0 0 -1
    outer loop
      vertex -2.47214 7.60845 0
      vertex -1.49905 7.8583 0
      vertex -0.494427 1.52169 0
    endloop
  endfacet
  facet normal -0.24869 0.968583 0
    outer loop
      vertex -2.47214 7.60845 0
      vertex -2.47214 7.60845 12
      vertex -1.49905 7.8583 0
    endloop
  endfacet
  facet normal -0 0 1
    outer loop
      vertex -2.47214 7.60845 12
      vertex -0.494427 1.52169 12
      vertex -1.49905 7.8583 12
    endloop
  endfacet
  facet normal -0.24869 0.968583 0
    outer loop
      vertex -2.47214 7.60845 12
      vertex -1.49905 7.8583 12
      vertex -1.49905 7.8583 0
    endloop
  endfacet
  facet normal 0 0 -1
    outer loop
      vertex -3.40623 -7.23862 0
      vertex -0.494427 -1.52169 0
      vertex -2.47214 -7.60845 0
    endloop
  endfacet
  facet normal -0 0 -1
    outer loop
      vertex -3.40623 -7.23862 0
      vertex -0.940456 -1.29443 0
      vertex -0.494427 -1.52169 0
    endloop
  endfacet
  facet normal -0.368125 -0.929776 -0
    outer loop
      vertex -3.40623 -7.23862 0
      vertex -2.47214 -7.60845 0
      vertex -2.47214 -7.60845 12
    endloop
  endfacet
  facet normal -0.368125 -0.929776 0
    outer loop
      vertex -3.40623 -7.23862 0
      vertex -2.47214 -7.60845 12
      vertex -3.40623 -7.23862 12
    endloop
  endfacet
  facet normal 0 0 1
    outer loop
      vertex -3.40623 -7.23862 12
      vertex -0.494427 -1.52169 12
      vertex -0.940456 -1.29443 12
    endloop
  endfacet
  facet normal 0 0 1
    outer loop
      vertex -3.40623 -7.23862 12
      vertex -2.47214 -7.60845 12
      vertex -0.494427 -1.52169 12
    endloop
  endfacet
  facet normal 0 0 -1
    outer loop
      vertex -3.40623 7.23862 0
      vertex -0.494427 1.52169 0
      vertex -0.940456 1.29443 0
    endloop
  endfacet
  facet normal 0 0 -1
    outer loop
      vertex -3.40623 7.23862 0
      vertex -2.47214 7.60845 0
      vertex -0.494427 1.52169 0
    endloop
  endfacet
  facet normal -0.368125 0.929776 0
    outer loop
      vertex -3.40623 7.23862 0
      vertex -3.40623 7.23862 12
      vertex -2.47214 7.60845 0
    endloop
  endfacet
  facet normal -0 0 1
    outer loop
      vertex -3.40623 7.23862 12
      vertex -0.494427 1.52169 12
      vertex -2.47214 7.60845 12
    endloop
  endfacet
  facet normal 0 0 1
    outer loop
      vertex -3.40623 7.23862 12
      vertex -0.940456 1.29443 12
      vertex -0.494427 1.52169 12
    endloop
  endfacet
  facet normal -0.368125 0.929776 0
    outer loop
      vertex -3.40623 7.23862 12
      vertex -2.47214 7.60845 12
      vertex -2.47214 7.60845 0
    endloop
  endfacet
  facet normal 0 0 -1
    outer loop
      vertex -4.28661 -6.75462 0
      vertex -0.940456 -1.29443 0
      vertex -3.40623 -7.23862 0
    endloop
  endfacet
  facet normal -0.481754 -0.876306 -0
    outer loop
      vertex -4.28661 -6.75462 0
      vertex -3.40623 -7.23862 0
      vertex -3.40623 -7.23862 12
    endloop
  endfacet
  facet normal -0.481754 -0.876306 0
    outer loop
      vertex -4.28661 -6.75462 0
      vertex -3.40623 -7.23862 12
      vertex -4.28661 -6.75462 12
    endloop
  endfacet
  facet normal 0 0 1
    outer loop
      vertex -4.28661 -6.75462 12
      vertex -3.40623 -7.23862 12
      vertex -0.940456 -1.29443 12
    endloop
  endfacet
  facet normal 0 0 -1
    outer loop
      vertex -4.28661 6.75462 0
      vertex -3.40623 7.23862 0
      vertex -0.940456 1.29443 0
    endloop
  endfacet
  facet normal -0.481754 0.876306 0
    outer loop
      vertex -4.28661 6.75462 0
      vertex -4.28661 6.75462 12
      vertex -3.40623 7.23862 0
    endloop
  endfacet
  facet normal -0 0 1
    outer loop
      vertex -4.28661 6.75462 12
      vertex -0.940456 1.29443 12
      vertex -3.40623 7.23862 12
    endloop
  endfacet
  facet normal -0.481754 0.876306 0
    outer loop
      vertex -4.28661 6.75462 12
      vertex -3.40623 7.23862 12
      vertex -3.40623 7.23862 0
    endloop
  endfacet
  facet normal 0 0 -1
    outer loop
      vertex -5.09939 -6.16411 0
      vertex -0.940456 -1.29443 0
      vertex -4.28661 -6.75462 0
    endloop
  endfacet
  facet normal -0.587785 -0.809017 -0
    outer loop
      vertex -5.09939 -6.16411 0
      vertex -4.28661 -6.75462 0
      vertex -4.28661 -6.75462 12
    endloop
  endfacet
  facet normal -0.587785 -0.809017 0
    outer loop
      vertex -5.09939 -6.16411 0
      vertex -4.28661 -6.75462 12
      vertex -5.09939 -6.16411 12
    endloop
  endfacet
  facet normal 0 0 1
    outer loop
      vertex -5.09939 -6.16411 12
      vertex -4.28661 -6.75462 12
      vertex -0.940456 -1.29443 12
    endloop
  endfacet
  facet normal 0 0 -1
    outer loop
      vertex -5.09939 6.16411 0
      vertex -4.28661 6.75462 0
      vertex -0.940456 1.29443 0
    endloop
  endfacet
  facet normal -0.587785 0.809017 0
    outer loop
      vertex -5.09939 6.16411 0
      vertex -5.09939 6.16411 12
      vertex -4.28661 6.75462 0
    endloop
  endfacet
  facet normal -0 0 1
    outer loop
      vertex -5.09939 6.16411 12
      vertex -0.940456 1.29443 12
      vertex -4.28661 6.75462 12
    endloop
  endfacet
  facet normal -0.587785 0.809017 0
    outer loop
      vertex -5.09939 6.16411 12
      vertex -4.28661 6.75462 12
      vertex -4.28661 6.75462 0
    endloop
  endfacet
  facet normal 0 0 -1
    outer loop
      vertex -5.83175 -5.47638 0
      vertex -0.940456 -1.29443 0
      vertex -5.09939 -6.16411 0
    endloop
  endfacet
  facet normal -0 0 -1
    outer loop
      vertex -5.83175 -5.47638 0
      vertex -1.29443 -0.940456 0
      vertex -0.940456 -1.29443 0
    endloop
  endfacet
  facet normal -0.684547 -0.728969 -0
    outer loop
      vertex -5.83175 -5.47638 0
      vertex -5.09939 -6.16411 0
      vertex -5.09939 -6.16411 12
    endloop
  endfacet
  facet normal -0.684547 -0.728969 0
    outer loop
      vertex -5.83175 -5.47638 0
      vertex -5.09939 -6.16411 12
      vertex -5.83175 -5.47638 12
    endloop
  endfacet
  facet normal 0 0 1
    outer loop
      vertex -5.83175 -5.47638 12
      vertex -0.940456 -1.29443 12
      vertex -1.29443 -0.940456 12
    endloop
  endfacet
  facet normal 0 0 1
    outer loop
      vertex -5.83175 -5.47638 12
      vertex -5.09939 -6.16411 12
      vertex -0.940456 -1.29443 12
    endloop
  endfacet
  facet normal 0 0 -1
    outer loop
      vertex -5.83175 5.47638 0
      vertex -0.940456 1.29443 0
      vertex -1.29443 0.940456 0
    endloop
  endfacet
  facet normal 0 0 -1
    outer loop
      vertex -5.83175 5.47638 0
      vertex -5.09939 6.16411 0
      vertex -0.940456 1.29443 0
    endloop
  endfacet
  facet normal -0.684547 0.728969 0
    outer loop
      vertex -5.83175 5.47638 0
      vertex -5.83175 5.47638 12
      vertex -5.09939 6.16411 0
    endloop
  endfacet
  facet normal -0 0 1
    outer loop
      vertex -5.83175 5.47638 12
      vertex -0.940456 1.29443 12
      vertex -5.09939 6.16411 12
    endloop
  endfacet
  facet normal 0 0 1
    outer loop
      vertex -5.83175 5.47638 12
      vertex -1.29443 0.940456 12
      vertex -0.940456 1.29443 12
    endloop
  endfacet
  facet normal -0.684547 0.728969 0
    outer loop
      vertex -5.83175 5.47638 12
      vertex -5.09939 6.16411 12
      vertex -5.09939 6.16411 0
    endloop
  endfacet
  facet normal 0 0 -1
    outer loop
      vertex -6.47214 -4.70228 0
      vertex -1.29443 -0.940456 0
      vertex -5.83175 -5.47638 0
    endloop
  endfacet
  facet normal -0.770513 -0.637424 0
    outer loop
      vertex -6.47214 -4.70228 0
      vertex -5.83175 -5.47638 0
      vertex -6.47214 -4.70228 12
    endloop
  endfacet
  facet normal -0.770513 -0.637424 0
    outer loop
      vertex -6.47214 -4.70228 12
      vertex -5.83175 -5.47638 0
      vertex -5.83175 -5.47638 12
    endloop
  endfacet
  facet normal 0 0 1
    outer loop
      vertex -6.47214 -4.70228 12
      vertex -5.83175 -5.47638 12
      vertex -1.29443 -0.940456 12
    endloop
  endfacet
  facet normal 0 0 -1
    outer loop
      vertex -6.47214 4.70228 0
      vertex -5.83175 5.47638 0
      vertex -1.29443 0.940456 0
    endloop
  endfacet
  facet normal -0.770513 0.637424 0
    outer loop
      vertex -6.47214 4.70228 0
      vertex -5.83175 5.47638 12
      vertex -5.83175 5.47638 0
    endloop
  endfacet
  facet normal -0.770513 0.637424 0
    outer loop
      vertex -6.47214 4.70228 0
      vertex -6.47214 4.70228 12
      vertex -5.83175 5.47638 12
    endloop
  endfacet
  facet normal -0 0 1
    outer loop
      vertex -6.47214 4.70228 12
      vertex -1.29443 0.940456 12
      vertex -5.83175 5.47638 12
    endloop
  endfacet
  facet normal 0 0 -1
    outer loop
      vertex -7.01045 -3.85403 0
      vertex -1.29443 -0.940456 0
      vertex -6.47214 -4.70228 0
    endloop
  endfacet
  facet normal -0 0 -1
    outer loop
      vertex -7.01045 -3.85403 0
      vertex -1.52169 -0.494427 0
      vertex -1.29443 -0.940456 0
    endloop
  endfacet
  facet normal -0.844328 -0.535827 0
    outer loop
      vertex -7.01045 -3.85403 0
      vertex -6.47214 -4.70228 0
      vertex -7.01045 -3.85403 12
    endloop
  endfacet
  facet normal 0 0 1
    outer loop
      vertex -7.01045 -3.85403 12
      vertex -1.29443 -0.940456 12
      vertex -1.52169 -0.494427 12
    endloop
  endfacet
  facet normal -0.844328 -0.535827 0
    outer loop
      vertex -7.01045 -3.85403 12
      vertex -6.47214 -4.70228 0
      vertex -6.47214 -4.70228 12
    endloop
  endfacet
  facet normal 0 0 1
    outer loop
      vertex -7.01045 -3.85403 12
      vertex -6.47214 -4.70228 12
      vertex -1.29443 -0.940456 12
    endloop
  endfacet
  facet normal 0 0 -1
    outer loop
      vertex -7.01045 3.85403 0
      vertex -1.29443 0.940456 0
      vertex -1.52169 0.494427 0
    endloop
  endfacet
  facet normal 0 0 -1
    outer loop
      vertex -7.01045 3.85403 0
      vertex -6.47214 4.70228 0
      vertex -1.29443 0.940456 0
    endloop
  endfacet
  facet normal -0.844328 0.535827 0
    outer loop
      vertex -7.01045 3.85403 0
      vertex -6.47214 4.70228 12
      vertex -6.47214 4.70228 0
    endloop
  endfacet
  facet normal -0.844328 0.535827 0
    outer loop
      vertex -7.01045 3.85403 0
      vertex -7.01045 3.85403 12
      vertex -6.47214 4.70228 12
    endloop
  endfacet
  facet normal -0 0 1
    outer loop
      vertex -7.01045 3.85403 12
      vertex -1.29443 0.940456 12
      vertex -6.47214 4.70228 12
    endloop
  endfacet
  facet normal 0 0 1
    outer loop
      vertex -7.01045 3.85403 12
      vertex -1.52169 0.494427 12
      vertex -1.29443 0.940456 12
    endloop
  endfacet
  facet normal 0 0 -1
    outer loop
      vertex -7.43821 -2.945 0
      vertex -1.52169 -0.494427 0
      vertex -7.01045 -3.85403 0
    endloop
  endfacet
  facet normal -0.904827 -0.425779 0
    outer loop
      vertex -7.43821 -2.945 0
      vertex -7.01045 -3.85403 0
      vertex -7.43821 -2.945 12
    endloop
  endfacet
  facet normal -0.904827 -0.425779 0
    outer loop
      vertex -7.43821 -2.945 12
      vertex -7.01045 -3.85403 0
      vertex -7.01045 -3.85403 12
    endloop
  endfacet
  facet normal 0 0 1
    outer loop
      vertex -7.43821 -2.945 12
      vertex -7.01045 -3.85403 12
      vertex -1.52169 -0.494427 12
    endloop
  endfacet
  facet normal 0 0 -1
    outer loop
      vertex -7.43821 2.945 0
      vertex -7.01045 3.85403 0
      vertex -1.52169 0.494427 0
    endloop
  endfacet
  facet normal -0.904827 0.425779 0
    outer loop
      vertex -7.43821 2.945 0
      vertex -7.01045 3.85403 12
      vertex -7.01045 3.85403 0
    endloop
  endfacet
  facet normal -0.904827 0.425779 0
    outer loop
      vertex -7.43821 2.945 0
      vertex -7.43821 2.945 12
      vertex -7.01045 3.85403 12
    endloop
  endfacet
  facet normal -0 0 1
    outer loop
      vertex -7.43821 2.945 12
      vertex -1.52169 0.494427 12
      vertex -7.01045 3.85403 12
    endloop
  endfacet
  facet normal 0 0 -1
    outer loop
      vertex -7.74866 -1.98952 0
      vertex -1.52169 -0.494427 0
      vertex -7.43821 -2.945 0
    endloop
  endfacet
  facet normal -0.951057 -0.309017 0
    outer loop
      vertex -7.74866 -1.98952 0
      vertex -7.43821 -2.945 0
      vertex -7.74866 -1.98952 12
    endloop
  endfacet
  facet normal -0.951057 -0.309017 0
    outer loop
      vertex -7.74866 -1.98952 12
      vertex -7.43821 -2.945 0
      vertex -7.43821 -2.945 12
    endloop
  endfacet
  facet normal 0 0 1
    outer loop
      vertex -7.74866 -1.98952 12
      vertex -7.43821 -2.945 12
      vertex -1.52169 -0.494427 12
    endloop
  endfacet
  facet normal 0 0 -1
    outer loop
      vertex -7.74866 1.98952 0
      vertex -7.43821 2.945 0
      vertex -1.52169 0.494427 0
    endloop
  endfacet
  facet normal -0.951057 0.309017 0
    outer loop
      vertex -7.74866 1.98952 0
      vertex -7.43821 2.945 12
      vertex -7.43821 2.945 0
    endloop
  endfacet
  facet normal -0.951057 0.309017 0
    outer loop
      vertex -7.74866 1.98952 0
      vertex -7.74866 1.98952 12
      vertex -7.43821 2.945 12
    endloop
  endfacet
  facet normal -0 0 1
    outer loop
      vertex -7.74866 1.98952 12
      vertex -1.52169 0.494427 12
      vertex -7.43821 2.945 12
    endloop
  endfacet
  facet normal 0 0 -1
    outer loop
      vertex -7.93692 -1.00267 0
      vertex -1.52169 -0.494427 0
      vertex -7.74866 -1.98952 0
    endloop
  endfacet
  facet normal -0 0 -1
    outer loop
      vertex -7.93692 -1.00267 0
      vertex -1.6 0 0
      vertex -1.52169 -0.494427 0
    endloop
  endfacet
  facet normal -0.982287 -0.187382 0
    outer loop
      vertex -7.93692 -1.00267 0
      vertex -7.74866 -1.98952 0
      vertex -7.93692 -1.00267 12
    endloop
  endfacet
  facet normal 0 0 1
    outer loop
      vertex -7.93692 -1.00267 12
      vertex -1.52169 -0.494427 12
      vertex -1.6 0 12
    endloop
  endfacet
  facet normal -0.982287 -0.187382 0
    outer loop
      vertex -7.93692 -1.00267 12
      vertex -7.74866 -1.98952 0
      vertex -7.74866 -1.98952 12
    endloop
  endfacet
  facet normal 0 0 1
    outer loop
      vertex -7.93692 -1.00267 12
      vertex -7.74866 -1.98952 12
      vertex -1.52169 -0.494427 12
    endloop
  endfacet
  facet normal 0 0 -1
    outer loop
      vertex -7.93692 1.00267 0
      vertex -1.52169 0.494427 0
      vertex -1.6 0 0
    endloop
  endfacet
  facet normal 0 0 -1
    outer loop
      vertex -7.93692 1.00267 0
      vertex -7.74866 1.98952 0
      vertex -1.52169 0.494427 0
    endloop
  endfacet
  facet normal -0.982287 0.187382 0
    outer loop
      vertex -7.93692 1.00267 0
      vertex -7.74866 1.98952 12
      vertex -7.74866 1.98952 0
    endloop
  endfacet
  facet normal -0.982287 0.187382 0
    outer loop
      vertex -7.93692 1.00267 0
      vertex -7.93692 1.00267 12
      vertex -7.74866 1.98952 12
    endloop
  endfacet
  facet normal -0 0 1
    outer loop
      vertex -7.93692 1.00267 12
      vertex -1.52169 0.494427 12
      vertex -7.74866 1.98952 12
    endloop
  endfacet
  facet normal 0 0 1
    outer loop
      vertex -7.93692 1.00267 12
      vertex -1.6 0 12
      vertex -1.52169 0.494427 12
    endloop
  endfacet
  facet normal 0 0 -1
    outer loop
      vertex -8 0 0
      vertex -1.6 0 0
      vertex -7.93692 -1.00267 0
    endloop
  endfacet
  facet normal -0.998027 -0.0627908 0
    outer loop
      vertex -8 0 0
      vertex -7.93692 -1.00267 0
      vertex -8 0 12
    endloop
  endfacet
  facet normal 0 0 -1
    outer loop
      vertex -8 0 0
      vertex -7.93692 1.00267 0
      vertex -1.6 0 0
    endloop
  endfacet
  facet normal -0.998027 0.0627908 0
    outer loop
      vertex -8 0 0
      vertex -7.93692 1.00267 12
      vertex -7.93692 1.00267 0
    endloop
  endfacet
  facet normal -0.998027 0.0627908 0
    outer loop
      vertex -8 0 0
      vertex -8 0 12
      vertex -7.93692 1.00267 12
    endloop
  endfacet
  facet normal 0 0 1
    outer loop
      vertex -8 0 12
      vertex -1.6 0 12
      vertex -7.93692 1.00267 12
    endloop
  endfacet
  facet normal -0.998027 -0.0627908 0
    outer loop
      vertex -8 0 12
      vertex -7.93692 -1.00267 0
      vertex -7.93692 -1.00267 12
    endloop
  endfacet
  facet normal 0 0 1
    outer loop
      vertex -8 0 12
      vertex -7.93692 -1.00267 12
      vertex -1.6 0 12
    endloop
  endfacet
  facet normal -0.156434 0.987688 0
    outer loop
      vertex 0 -1.6 0
      vertex 0 -1.6 12
      vertex 0.494427 -1.52169 0
    endloop
  endfacet
  facet normal 0 0 -1
    outer loop
      vertex 0 -1.6 0
      vertex 0.494427 -1.52169 0
      vertex 1.49905 -7.8583 0
    endloop
  endfacet
  facet normal 0 0 -1
    outer loop
      vertex 0 -1.6 0
      vertex 1.49905 -7.8583 0
      vertex 0.502324 -7.98421 0
    endloop
  endfacet
  facet normal -0.156434 0.987688 0
    outer loop
      vertex 0 -1.6 12
      vertex 0.494427 -1.52169 12
      vertex 0.494427 -1.52169 0
    endloop
  endfacet
  facet normal 0 0 1
    outer loop
      vertex 0 -1.6 12
      vertex 0.502324 -7.98421 12
      vertex 1.49905 -7.8583 12
    endloop
  endfacet
  facet normal -0 0 1
    outer loop
      vertex 0 -1.6 12
      vertex 1.49905 -7.8583 12
      vertex 0.494427 -1.52169 12
    endloop
  endfacet
  facet normal -0.156434 -0.987688 -0
    outer loop
      vertex 0 1.6 0
      vertex 0.494427 1.52169 0
      vertex 0.494427 1.52169 12
    endloop
  endfacet
  facet normal -0.156434 -0.987688 0
    outer loop
      vertex 0 1.6 0
      vertex 0.494427 1.52169 12
      vertex 0 1.6 12
    endloop
  endfacet
  facet normal -0 0 -1
    outer loop
      vertex 0 1.6 0
      vertex 0.502324 7.98421 0
      vertex 1.49905 7.8583 0
    endloop
  endfacet
  facet normal 0 0 -1
    outer loop
      vertex 0 1.6 0
      vertex 1.49905 7.8583 0
      vertex 0.494427 1.52169 0
    endloop
  endfacet
  facet normal 0 0 1
    outer loop
      vertex 0 1.6 12
      vertex 0.494427 1.52169 12
      vertex 1.49905 7.8583 12
    endloop
  endfacet
  facet normal 0 0 1
    outer loop
      vertex 0 1.6 12
      vertex 1.49905 7.8583 12
      vertex 0.502324 7.98421 12
    endloop
  endfacet
  facet normal -0.45399 0.891007 0
    outer loop
      vertex 0.494427 -1.52169 0
      vertex 0.494427 -1.52169 12
      vertex 0.940456 -1.29443 0
    endloop
  endfacet
  facet normal 0 0 -1
    outer loop
      vertex 0.494427 -1.52169 0
      vertex 0.940456 -1.29443 0
      vertex 3.40623 -7.23862 0
    endloop
  endfacet
  facet normal 0 0 -1
    outer loop
      vertex 0.494427 -1.52169 0
      vertex 2.47214 -7.60845 0
      vertex 1.49905 -7.8583 0
    endloop
  endfacet
  facet normal 0 0 -1
    outer loop
      vertex 0.494427 -1.52169 0
      vertex 3.40623 -7.23862 0
      vertex 2.47214 -7.60845 0
    endloop
  endfacet
  facet normal -0.45399 0.891007 0
    outer loop
      vertex 0.494427 -1.52169 12
      vertex 0.940456 -1.29443 12
      vertex 0.940456 -1.29443 0
    endloop
  endfacet
  facet normal 0 0 1
    outer loop
      vertex 0.494427 -1.52169 12
      vertex 1.49905 -7.8583 12
      vertex 2.47214 -7.60845 12
    endloop
  endfacet
  facet normal 0 0 1
    outer loop
      vertex 0.494427 -1.52169 12
      vertex 2.47214 -7.60845 12
      vertex 3.40623 -7.23862 12
    endloop
  endfacet
  facet normal -0 0 1
    outer loop
      vertex 0.494427 -1.52169 12
      vertex 3.40623 -7.23862 12
      vertex 0.940456 -1.29443 12
    endloop
  endfacet
  facet normal -0.45399 -0.891007 -0
    outer loop
      vertex 0.494427 1.52169 0
      vertex 0.940456 1.29443 0
      vertex 0.940456 1.29443 12
    endloop
  endfacet
  facet normal -0.45399 -0.891007 0
    outer loop
      vertex 0.494427 1.52169 0
      vertex 0.940456 1.29443 12
      vertex 0.494427 1.52169 12
    endloop
  endfacet
  facet normal -0 0 -1
    outer loop
      vertex 0.494427 1.52169 0
      vertex 1.49905 7.8583 0
      vertex 2.47214 7.60845 0
    endloop
  endfacet
  facet normal -0 0 -1
    outer loop
      vertex 0.494427 1.52169 0
      vertex 2.47214 7.60845 0
      vertex 3.40623 7.23862 0
    endloop
  endfacet
  facet normal 0 0 -1
    outer loop
      vertex 0.494427 1.52169 0
      vertex 3.40623 7.23862 0
      vertex 0.940456 1.29443 0
    endloop
  endfacet
  facet normal 0 0 1
    outer loop
      vertex 0.494427 1.52169 12
      vertex 0.940456 1.29443 12
      vertex 3.40623 7.23862 12
    endloop
  endfacet
  facet normal 0 0 1
    outer loop
      vertex 0.494427 1.52169 12
      vertex 2.47214 7.60845 12
      vertex 1.49905 7.8583 12
    endloop
  endfacet
  facet normal 0 0 1
    outer loop
      vertex 0.494427 1.52169 12
      vertex 3.40623 7.23862 12
      vertex 2.47214 7.60845 12
    endloop
  endfacet
  facet normal 0.125333 -0.992115 0
    outer loop
      vertex 0.502324 -7.98421 0
      vertex 1.49905 -7.8583 0
      vertex 1.49905 -7.8583 12
    endloop
  endfacet
  facet normal 0.125333 -0.992115 0
    outer loop
      vertex 0.502324 -7.98421 0
      vertex 1.49905 -7.8583 12
      vertex 0.502324 -7.98421 12
    endloop
  endfacet
  facet normal 0.125333 0.992115 0
    outer loop
      vertex 0.502324 7.98421 0
      vertex 0.502324 7.98421 12
      vertex 1.49905 7.8583 0
    endloop
  endfacet
  facet normal 0.125333 0.992115 -0
    outer loop
      vertex 0.502324 7.98421 12
      vertex 1.49905 7.8583 12
      vertex 1.49905 7.8583 0
    endloop
  endfacet
  facet normal -0.707107 0.707107 0
    outer loop
      vertex 0.940456 -1.29443 0
      vertex 0.940456 -1.29443 12
      vertex 1.29443 -0.940456 12
    endloop
  endfacet
  facet normal 0 0 -1
    outer loop
      vertex 0.940456 -1.29443 0
      vertex 1.29443 -0.940456 0
      vertex 5.83175 -5.47638 0
    endloop
  endfacet
  facet normal -0.707107 0.707107 0
    outer loop
      vertex 0.940456 -1.29443 0
      vertex 1.29443 -0.940456 12
      vertex 1.29443 -0.940456 0
    endloop
  endfacet
  facet normal 0 0 -1
    outer loop
      vertex 0.940456 -1.29443 0
      vertex 4.28661 -6.75462 0
      vertex 3.40623 -7.23862 0
    endloop
  endfacet
  facet normal 0 0 -1
    outer loop
      vertex 0.940456 -1.29443 0
      vertex 5.09939 -6.16411 0
      vertex 4.28661 -6.75462 0
    endloop
  endfacet
  facet normal 0 0 -1
    outer loop
      vertex 0.940456 -1.29443 0
      vertex 5.83175 -5.47638 0
      vertex 5.09939 -6.16411 0
    endloop
  endfacet
  facet normal 0 0 1
    outer loop
      vertex 0.940456 -1.29443 12
      vertex 3.40623 -7.23862 12
      vertex 4.28661 -6.75462 12
    endloop
  endfacet
  facet normal 0 0 1
    outer loop
      vertex 0.940456 -1.29443 12
      vertex 4.28661 -6.75462 12
      vertex 5.09939 -6.16411 12
    endloop
  endfacet
  facet normal 0 0 1
    outer loop
      vertex 0.940456 -1.29443 12
      vertex 5.09939 -6.16411 12
      vertex 5.83175 -5.47638 12
    endloop
  endfacet
  facet normal -0 0 1
    outer loop
      vertex 0.940456 -1.29443 12
      vertex 5.83175 -5.47638 12
      vertex 1.29443 -0.940456 12
    endloop
  endfacet
  facet normal -0.707107 -0.707107 0
    outer loop
      vertex 0.940456 1.29443 0
      vertex 1.29443 0.940456 0
      vertex 0.940456 1.29443 12
    endloop
  endfacet
  facet normal -0 0 -1
    outer loop
      vertex 0.940456 1.29443 0
      vertex 3.40623 7.23862 0
      vertex 4.28661 6.75462 0
    endloop
  endfacet
  facet normal -0 0 -1
    outer loop
      vertex 0.940456 1.29443 0
      vertex 4.28661 6.75462 0
      vertex 5.09939 6.16411 0
    endloop
  endfacet
  facet normal -0 0 -1
    outer loop
      vertex 0.940456 1.29443 0
      vertex 5.09939 6.16411 0
      vertex 5.83175 5.47638 0
    endloop
  endfacet
  facet normal 0 0 -1
    outer loop
      vertex 0.940456 1.29443 0
      vertex 5.83175 5.47638 0
      vertex 1.29443 0.940456 0
    endloop
  endfacet
  facet normal -0.707107 -0.707107 0
    outer loop
      vertex 0.940456 1.29443 12
      vertex 1.29443 0.940456 0
      vertex 1.29443 0.940456 12
    endloop
  endfacet
  facet normal 0 0 1
    outer loop
      vertex 0.940456 1.29443 12
      vertex 1.29443 0.940456 12
      vertex 5.83175 5.47638 12
    endloop
  endfacet
  facet normal 0 0 1
    outer loop
      vertex 0.940456 1.29443 12
      vertex 4.28661 6.75462 12
      vertex 3.40623 7.23862 12
    endloop
  endfacet
  facet normal 0 0 1
    outer loop
      vertex 0.940456 1.29443 12
      vertex 5.09939 6.16411 12
      vertex 4.28661 6.75462 12
    endloop
  endfacet
  facet normal 0 0 1
    outer loop
      vertex 0.940456 1.29443 12
      vertex 5.83175 5.47638 12
      vertex 5.09939 6.16411 12
    endloop
  endfacet
  facet normal -0.891007 0.45399 0
    outer loop
      vertex 1.29443 -0.940456 0
      vertex 1.29443 -0.940456 12
      vertex 1.52169 -0.494427 12
    endloop
  endfacet
  facet normal 0 0 -1
    outer loop
      vertex 1.29443 -0.940456 0
      vertex 1.52169 -0.494427 0
      vertex 7.01045 -3.85403 0
    endloop
  endfacet
  facet normal -0.891007 0.45399 0
    outer loop
      vertex 1.29443 -0.940456 0
      vertex 1.52169 -0.494427 12
      vertex 1.52169 -0.494427 0
    endloop
  endfacet
  facet normal 0 0 -1
    outer loop
      vertex 1.29443 -0.940456 0
      vertex 6.47214 -4.70228 0
      vertex 5.83175 -5.47638 0
    endloop
  endfacet
  facet normal 0 0 -1
    outer loop
      vertex 1.29443 -0.940456 0
      vertex 7.01045 -3.85403 0
      vertex 6.47214 -4.70228 0
    endloop
  endfacet
  facet normal 0 0 1
    outer loop
      vertex 1.29443 -0.940456 12
      vertex 5.83175 -5.47638 12
      vertex 6.47214 -4.70228 12
    endloop
  endfacet
  facet normal 0 0 1
    outer loop
      vertex 1.29443 -0.940456 12
      vertex 6.47214 -4.70228 12
      vertex 7.01045 -3.85403 12
    endloop
  endfacet
  facet normal -0 0 1
    outer loop
      vertex 1.29443 -0.940456 12
      vertex 7.01045 -3.85403 12
      vertex 1.52169 -0.494427 12
    endloop
  endfacet
  facet normal -0.891007 -0.45399 0
    outer loop
      vertex 1.29443 0.940456 0
      vertex 1.52169 0.494427 0
      vertex 1.29443 0.940456 12
    endloop
  endfacet
  facet normal -0 0 -1
    outer loop
      vertex 1.29443 0.940456 0
      vertex 5.83175 5.47638 0
      vertex 6.47214 4.70228 0
    endloop
  endfacet
  facet normal -0 0 -1
    outer loop
      vertex 1.29443 0.940456 0
      vertex 6.47214 4.70228 0
      vertex 7.01045 3.85403 0
    endloop
  endfacet
  facet normal 0 0 -1
    outer loop
      vertex 1.29443 0.940456 0
      vertex 7.01045 3.85403 0
      vertex 1.52169 0.494427 0
    endloop
  endfacet
  facet normal -0.891007 -0.45399 0
    outer loop
      vertex 1.29443 0.940456 12
      vertex 1.52169 0.494427 0
      vertex 1.52169 0.494427 12
    endloop
  endfacet
  facet normal 0 0 1
    outer loop
      vertex 1.29443 0.940456 12
      vertex 1.52169 0.494427 12
      vertex 7.01045 3.85403 12
    endloop
  endfacet
  facet normal 0 0 1
    outer loop
      vertex 1.29443 0.940456 12
      vertex 6.47214 4.70228 12
      vertex 5.83175 5.47638 12
    endloop
  endfacet
  facet normal 0 0 1
    outer loop
      vertex 1.29443 0.940456 12
      vertex 7.01045 3.85403 12
      vertex 6.47214 4.70228 12
    endloop
  endfacet
  facet normal 0.24869 -0.968583 0
    outer loop
      vertex 1.49905 -7.8583 0
      vertex 2.47214 -7.60845 0
      vertex 2.47214 -7.60845 12
    endloop
  endfacet
  facet normal 0.24869 -0.968583 0
    outer loop
      vertex 1.49905 -7.8583 0
      vertex 2.47214 -7.60845 12
      vertex 1.49905 -7.8583 12
    endloop
  endfacet
  facet normal 0.24869 0.968583 0
    outer loop
      vertex 1.49905 7.8583 0
      vertex 1.49905 7.8583 12
      vertex 2.47214 7.60845 0
    endloop
  endfacet
  facet normal 0.24869 0.968583 -0
    outer loop
      vertex 1.49905 7.8583 12
      vertex 2.47214 7.60845 12
      vertex 2.47214 7.60845 0
    endloop
  endfacet
  facet normal -0.987688 0.156434 0
    outer loop
      vertex 1.52169 -0.494427 0
      vertex 1.52169 -0.494427 12
      vertex 1.6 0 12
    endloop
  endfacet
  facet normal 0 0 -1
    outer loop
      vertex 1.52169 -0.494427 0
      vertex 1.6 0 0
      vertex 7.93692 -1.00267 0
    endloop
  endfacet
  facet normal -0.987688 0.156434 0
    outer loop
      vertex 1.52169 -0.494427 0
      vertex 1.6 0 12
      vertex 1.6 0 0
    endloop
  endfacet
  facet normal 0 0 -1
    outer loop
      vertex 1.52169 -0.494427 0
      vertex 7.43821 -2.945 0
      vertex 7.01045 -3.85403 0
    endloop
  endfacet
  facet normal 0 0 -1
    outer loop
      vertex 1.52169 -0.494427 0
      vertex 7.74866 -1.98952 0
      vertex 7.43821 -2.945 0
    endloop
  endfacet
  facet normal 0 0 -1
    outer loop
      vertex 1.52169 -0.494427 0
      vertex 7.93692 -1.00267 0
      vertex 7.74866 -1.98952 0
    endloop
  endfacet
  facet normal 0 0 1
    outer loop
      vertex 1.52169 -0.494427 12
      vertex 7.01045 -3.85403 12
      vertex 7.43821 -2.945 12
    endloop
  endfacet
  facet normal 0 0 1
    outer loop
      vertex 1.52169 -0.494427 12
      vertex 7.43821 -2.945 12
      vertex 7.74866 -1.98952 12
    endloop
  endfacet
  facet normal 0 0 1
    outer loop
      vertex 1.52169 -0.494427 12
      vertex 7.74866 -1.98952 12
      vertex 7.93692 -1.00267 12
    endloop
  endfacet
  facet normal -0 0 1
    outer loop
      vertex 1.52169 -0.494427 12
      vertex 7.93692 -1.00267 12
      vertex 1.6 0 12
    endloop
  endfacet
  facet normal -0.987688 -0.156434 0
    outer loop
      vertex 1.52169 0.494427 0
      vertex 1.6 0 0
      vertex 1.52169 0.494427 12
    endloop
  endfacet
  facet normal -0 0 -1
    outer loop
      vertex 1.52169 0.494427 0
      vertex 7.01045 3.85403 0
      vertex 7.43821 2.945 0
    endloop
  endfacet
  facet normal -0 0 -1
    outer loop
      vertex 1.52169 0.494427 0
      vertex 7.43821 2.945 0
      vertex 7.74866 1.98952 0
    endloop
  endfacet
  facet normal -0 0 -1
    outer loop
      vertex 1.52169 0.494427 0
      vertex 7.74866 1.98952 0
      vertex 7.93692 1.00267 0
    endloop
  endfacet
  facet normal 0 0 -1
    outer loop
      vertex 1.52169 0.494427 0
      vertex 7.93692 1.00267 0
      vertex 1.6 0 0
    endloop
  endfacet
  facet normal -0.987688 -0.156434 0
    outer loop
      vertex 1.52169 0.494427 12
      vertex 1.6 0 0
      vertex 1.6 0 12
    endloop
  endfacet
  facet normal 0 0 1
    outer loop
      vertex 1.52169 0.494427 12
      vertex 1.6 0 12
      vertex 7.93692 1.00267 12
    endloop
  endfacet
  facet normal 0 0 1
    outer loop
      vertex 1.52169 0.494427 12
      vertex 7.43821 2.945 12
      vertex 7.01045 3.85403 12
    endloop
  endfacet
  facet normal 0 0 1
    outer loop
      vertex 1.52169 0.494427 12
      vertex 7.74866 1.98952 12
      vertex 7.43821 2.945 12
    endloop
  endfacet
  facet normal 0 0 1
    outer loop
      vertex 1.52169 0.494427 12
      vertex 7.93692 1.00267 12
      vertex 7.74866 1.98952 12
    endloop
  endfacet
  facet normal 0 0 -1
    outer loop
      vertex 1.6 0 0
      vertex 7.93692 1.00267 0
      vertex 8 0 0
    endloop
  endfacet
  facet normal 0 0 -1
    outer loop
      vertex 1.6 0 0
      vertex 8 0 0
      vertex 7.93692 -1.00267 0
    endloop
  endfacet
  facet normal 0 0 1
    outer loop
      vertex 1.6 0 12
      vertex 7.93692 -1.00267 12
      vertex 8 0 12
    endloop
  endfacet
  facet normal 0 0 1
    outer loop
      vertex 1.6 0 12
      vertex 8 0 12
      vertex 7.93692 1.00267 12
    endloop
  endfacet
  facet normal 0.368125 -0.929776 0
    outer loop
      vertex 2.47214 -7.60845 0
      vertex 3.40623 -7.23862 0
      vertex 3.40623 -7.23862 12
    endloop
  endfacet
  facet normal 0.368125 -0.929776 0
    outer loop
      vertex 2.47214 -7.60845 0
      vertex 3.40623 -7.23862 12
      vertex 2.47214 -7.60845 12
    endloop
  endfacet
  facet normal 0.368125 0.929776 0
    outer loop
      vertex 2.47214 7.60845 0
      vertex 2.47214 7.60845 12
      vertex 3.40623 7.23862 0
    endloop
  endfacet
  facet normal 0.368125 0.929776 -0
    outer loop
      vertex 2.47214 7.60845 12
      vertex 3.40623 7.23862 12
      vertex 3.40623 7.23862 0
    endloop
  endfacet
  facet normal 0.481754 -0.876306 0
    outer loop
      vertex 3.40623 -7.23862 0
      vertex 4.28661 -6.75462 0
      vertex 4.28661 -6.75462 12
    endloop
  endfacet
  facet normal 0.481754 -0.876306 0
    outer loop
      vertex 3.40623 -7.23862 0
      vertex 4.28661 -6.75462 12
      vertex 3.40623 -7.23862 12
    endloop
  endfacet
  facet normal 0.481754 0.876306 0
    outer loop
      vertex 3.40623 7.23862 0
      vertex 3.40623 7.23862 12
      vertex 4.28661 6.75462 0
    endloop
  endfacet
  facet normal 0.481754 0.876306 -0
    outer loop
      vertex 3.40623 7.23862 12
      vertex 4.28661 6.75462 12
      vertex 4.28661 6.75462 0
    endloop
  endfacet
  facet normal 0.587785 -0.809017 0
    outer loop
      vertex 4.28661 -6.75462 0
      vertex 5.09939 -6.16411 0
      vertex 5.09939 -6.16411 12
    endloop
  endfacet
  facet normal 0.587785 -0.809017 0
    outer loop
      vertex 4.28661 -6.75462 0
      vertex 5.09939 -6.16411 12
      vertex 4.28661 -6.75462 12
    endloop
  endfacet
  facet normal 0.587785 0.809017 0
    outer loop
      vertex 4.28661 6.75462 0
      vertex 4.28661 6.75462 12
      vertex 5.09939 6.16411 0
    endloop
  endfacet
  facet normal 0.587785 0.809017 -0
    outer loop
      vertex 4.28661 6.75462 12
      vertex 5.09939 6.16411 12
      vertex 5.09939 6.16411 0
    endloop
  endfacet
  facet normal 0.684547 -0.728969 0
    outer loop
      vertex 5.09939 -6.16411 0
      vertex 5.83175 -5.47638 0
      vertex 5.83175 -5.47638 12
    endloop
  endfacet
  facet normal 0.684547 -0.728969 0
    outer loop
      vertex 5.09939 -6.16411 0
      vertex 5.83175 -5.47638 12
      vertex 5.09939 -6.16411 12
    endloop
  endfacet
  facet normal 0.684547 0.728969 0
    outer loop
      vertex 5.09939 6.16411 0
      vertex 5.09939 6.16411 12
      vertex 5.83175 5.47638 0
    endloop
  endfacet
  facet normal 0.684547 0.728969 -0
    outer loop
      vertex 5.09939 6.16411 12
      vertex 5.83175 5.47638 12
      vertex 5.83175 5.47638 0
    endloop
  endfacet
  facet normal 0.770513 -0.637424 0
    outer loop
      vertex 5.83175 -5.47638 0
      vertex 6.47214 -4.70228 0
      vertex 5.83175 -5.47638 12
    endloop
  endfacet
  facet normal 0.770513 -0.637424 0
    outer loop
      vertex 5.83175 -5.47638 12
      vertex 6.47214 -4.70228 0
      vertex 6.47214 -4.70228 12
    endloop
  endfacet
  facet normal 0.770513 0.637424 0
    outer loop
      vertex 5.83175 5.47638 0
      vertex 5.83175 5.47638 12
      vertex 6.47214 4.70228 12
    endloop
  endfacet
  facet normal 0.770513 0.637424 0
    outer loop
      vertex 5.83175 5.47638 0
      vertex 6.47214 4.70228 12
      vertex 6.47214 4.70228 0
    endloop
  endfacet
  facet normal 0.844328 -0.535827 0
    outer loop
      vertex 6.47214 -4.70228 0
      vertex 7.01045 -3.85403 0
      vertex 6.47214 -4.70228 12
    endloop
  endfacet
  facet normal 0.844328 -0.535827 0
    outer loop
      vertex 6.47214 -4.70228 12
      vertex 7.01045 -3.85403 0
      vertex 7.01045 -3.85403 12
    endloop
  endfacet
  facet normal 0.844328 0.535827 0
    outer loop
      vertex 6.47214 4.70228 0
      vertex 6.47214 4.70228 12
      vertex 7.01045 3.85403 12
    endloop
  endfacet
  facet normal 0.844328 0.535827 0
    outer loop
      vertex 6.47214 4.70228 0
      vertex 7.01045 3.85403 12
      vertex 7.01045 3.85403 0
    endloop
  endfacet
  facet normal 0.904827 -0.425779 0
    outer loop
      vertex 7.01045 -3.85403 0
      vertex 7.43821 -2.945 0
      vertex 7.01045 -3.85403 12
    endloop
  endfacet
  facet normal 0.904827 -0.425779 0
    outer loop
      vertex 7.01045 -3.85403 12
      vertex 7.43821 -2.945 0
      vertex 7.43821 -2.945 12
    endloop
  endfacet
  facet normal 0.904827 0.425779 0
    outer loop
      vertex 7.01045 3.85403 0
      vertex 7.01045 3.85403 12
      vertex 7.43821 2.945 12
    endloop
  endfacet
  facet normal 0.904827 0.425779 0
    outer loop
      vertex 7.01045 3.85403 0
      vertex 7.43821 2.945 12
      vertex 7.43821 2.945 0
    endloop
  endfacet
  facet normal 0.951057 -0.309017 0
    outer loop
      vertex 7.43821 -2.945 0
      vertex 7.74866 -1.98952 0
      vertex 7.43821 -2.945 12
    endloop
  endfacet
  facet normal 0.951057 -0.309017 0
    outer loop
      vertex 7.43821 -2.945 12
      vertex 7.74866 -1.98952 0
      vertex 7.74866 -1.98952 12
    endloop
  endfacet
  facet normal 0.951057 0.309017 0
    outer loop
      vertex 7.43821 2.945 0
      vertex 7.43821 2.945 12
      vertex 7.74866 1.98952 12
    endloop
  endfacet
  facet normal 0.951057 0.309017 0
    outer loop
      vertex 7.43821 2.945 0
      vertex 7.74866 1.98952 12
      vertex 7.74866 1.98952 0
    endloop
  endfacet
  facet normal 0.982287 -0.187382 0
    outer loop
      vertex 7.74866 -1.98952 0
      vertex 7.93692 -1.00267 0
      vertex 7.74866 -1.98952 12
    endloop
  endfacet
  facet normal 0.982287 -0.187382 0
    outer loop
      vertex 7.74866 -1.98952 12
      vertex 7.93692 -1.00267 0
      vertex 7.93692 -1.00267 12
    endloop
  endfacet
  facet normal 0.982287 0.187382 0
    outer loop
      vertex 7.74866 1.98952 0
      vertex 7.74866 1.98952 12
      vertex 7.93692 1.00267 12
    endloop
  endfacet
  facet normal 0.982287 0.187382 0
    outer loop
      vertex 7.74866 1.98952 0
      vertex 7.93692 1.00267 12
      vertex 7.93692 1.00267 0
    endloop
  endfacet
  facet normal 0.998027 -0.0627908 0
    outer loop
      vertex 7.93692 -1.00267 0
      vertex 8 0 0
      vertex 7.93692 -1.00267 12
    endloop
  endfacet
  facet normal 0.998027 -0.0627908 0
    outer loop
      vertex 7.93692 -1.00267 12
      vertex 8 0 0
      vertex 8 0 12
    endloop
  endfacet
  facet normal 0.998027 0.0627908 0
    outer loop
      vertex 7.93692 1.00267 0
      vertex 7.93692 1.00267 12
      vertex 8 0 12
    endloop
  endfacet
  facet normal 0.998027 0.0627908 0
    outer loop
      vertex 7.93692 1.00267 0
      vertex 8 0 12
      vertex 8 0 0
    endloop
  endfacet
endsolid model
