solid model
  facet normal 0.156435 0.987688 0
    outer loop
      vertex -0.494427 -1.52169 0
      vertex -0.494427 -1.52169 12
      vertex 0 -1.6 0
    endloop
  endfacet
  facet normal 0.156435 0.987688 -0
    outer loop
      vertex -0.494427 -1.52169 12
      vertex 0 -1.6 12
      vertex 0 -1.6 0
    endloop
  endfacet
  facet normal 0.156435 -0.987688 0
    outer loop
      vertex -0.494427 1.52169 0
      vertex 0 1.6 0
      vertex 0 1.6 12
    endloop
  endfacet
  facet normal 0.156435 -0.987688 0
    outer loop
      vertex -0.494427 1.52169 0
      vertex 0 1.6 12
      vertex -0.494427 1.52169 12
    endloop
  endfacet
  facet normal 0 0 -1
    outer loop
      vertex -0.502324 -7.98421 0
      vertex 0 -1.6 0
      vertex 0.502324 -7.98421 0
    endloop
  endfacet
  facet normal 0 -1 -0
    outer loop
      vertex -0.502324 -7.98421 0
      vertex 0.502324 -7.98421 0
      vertex 0.502324 -7.98421 12
    endloop
  endfacet
  facet normal 0 -1 0
    outer loop
      vertex -0.502324 -7.98421 0
      vertex 0.502324 -7.98421 12
      vertex -0.502324 -7.98421 12
    endloop
  endfacet
  facet normal 0 0 1
    outer loop
      vertex -0.502324 -7.98421 12
      vertex 0.502324 -7.98421 12
      vertex 0 -1.6 12
    endloop
  endfacet
  facet normal 0 1 0
    outer loop
      vertex -0.502324 7.98421 0
      vertex -0.502324 7.98421 12
      vertex 0.502324 7.98421 0
    endloop
  endfacet
  facet normal 0 0 -1
    outer loop
      vertex -0.502324 7.98421 0
      vertex 0.502324 7.98421 0
      vertex 0 1.6 0
    endloop
  endfacet
  facet normal -0 0 1
    outer loop
      vertex -0.502324 7.98421 12
      vertex 0 1.6 12
      vertex 0.502324 7.98421 12
    endloop
  endfacet
  facet normal 0 1 -0
    outer loop
      vertex -0.502324 7.98421 12
      vertex 0.502324 7.98421 12
      vertex 0.502324 7.98421 0
    endloop
  endfacet
  facet normal 0.453986 0.891009 0
    outer loop
      vertex -0.940456 -1.29443 0
      vertex -0.940456 -1.29443 12
      vertex -0.494427 -1.52169 0
    endloop
  endfacet
  facet normal 0.453986 0.891009 -0
    outer loop
      vertex -0.940456 -1.29443 12
      vertex -0.494427 -1.52169 12
      vertex -0.494427 -1.52169 0
    endloop
  endfacet
  facet normal 0.453986 -0.891009 0
    outer loop
      vertex -0.940456 1.29443 0
      vertex -0.494427 1.52169 0
      vertex -0.494427 1.52169 12
    endloop
  endfacet
  facet normal 0.453986 -0.891009 0
    outer loop
      vertex -0.940456 1.29443 0
      vertex -0.494427 1.52169 12
      vertex -0.940456 1.29443 12
    endloop
  endfacet
  facet normal 0.707107 0.707107 0
    outer loop
      vertex -1.29443 -0.940456 0
      vertex -0.940456 -1.29443 12
      vertex -0.940456 -1.29443 0
    endloop
  endfacet
  facet normal 0.707107 0.707107 0
    outer loop
      vertex -1.29443 -0.940456 0
      vertex -1.29443 -0.940456 12
      vertex -0.940456 -1.29443 12
    endloop
  endfacet
  facet normal 0.707107 -0.707107 0
    outer loop
      vertex -1.29443 0.940456 0
      vertex -0.940456 1.29443 0
      vertex -1.29443 0.940456 12
    endloop
  endfacet
  facet normal 0.707107 -0.707107 0
    outer loop
      vertex -1.29443 0.940456 12
      vertex -0.940456 1.29443 0
      vertex -0.940456 1.29443 12
    endloop
  endfacet
  facet normal -0 0 -1
    outer loop
      vertex -1.49905 -7.8583 0
      vertex -0.494427 -1.52169 0
      vertex 0 -1.6 0
    endloop
  endfacet
  facet normal -0.125328 -0.992115 -0
    outer loop
      vertex -1.49905 -7.8583 0
      vertex -0.502324 -7.98421 0
      vertex -0.502324 -7.98421 12
    endloop
  endfacet
  facet normal -0.125328 -0.992115 0
    outer loop
      vertex -1.49905 -7.8583 0
      vertex -0.502324 -7.98421 12
      vertex -1.49905 -7.8583 12
    endloop
  endfacet
  facet normal 0 0 -1
    outer loop
      vertex -1.49905 -7.8583 0
      vertex 0 -1.6 0
      vertex -0.502324 -7.98421 0
    endloop
  endfacet
  facet normal 0 0 1
    outer loop
      vertex -1.49905 -7.8583 12
      vertex -0.502324 -7.98421 12
      vertex 0 -1.6 12
    endloop
  endfacet
  facet normal 0 0 1
    outer loop
      vertex -1.49905 -7.8583 12
      vertex 0 -1.6 12
      vertex -0.494427 -1.52169 12
    endloop
  endfacet
  facet normal 0 0 -1
    outer loop
      vertex -1.49905 7.8583 0
      vertex -0.502324 7.98421 0
      vertex 0 1.6 0
    endloop
  endfacet
  facet normal -0.125328 0.992115 0
    outer loop
      vertex -1.49905 7.8583 0
      vertex -1.49905 7.8583 12
      vertex -0.502324 7.98421 0
    endloop
  endfacet
  facet normal 0 0 -1
    outer loop
      vertex -1.49905 7.8583 0
      vertex 0 1.6 0
      vertex -0.494427 1.52169 0
    endloop
  endfacet
  facet normal 0 0 1
    outer loop
      vertex -1.49905 7.8583 12
      vertex -0.494427 1.52169 12
      vertex 0 1.6 12
    endloop
  endfacet
  facet normal -0.125328 0.992115 0
    outer loop
      vertex -1.49905 7.8583 12
      vertex -0.502324 7.98421 12
      vertex -0.502324 7.98421 0
    endloop
  endfacet
  facet normal -0 0 1
    outer loop
      vertex -1.49905 7.8583 12
      vertex 0 1.6 12
      vertex -0.502324 7.98421 12
    endloop
  endfacet
  facet normal 0.891009 0.453986 0
    outer loop
      vertex -1.52169 -0.494427 0
      vertex -1.29443 -0.940456 12
      vertex -1.29443 -0.940456 0
    endloop
  endfacet
  facet normal 0.891009 0.453986 0
    outer loop
      vertex -1.52169 -0.494427 0
      vertex -1.52169 -0.494427 12
      vertex -1.29443 -0.940456 12
    endloop
  endfacet
  facet normal 0.891009 -0.453986 0
    outer loop
      vertex -1.52169 0.494427 0
      vertex -1.29443 0.940456 0
      vertex -1.52169 0.494427 12
    endloop
  endfacet
  facet normal 0.891009 -0.453986 0
    outer loop
      vertex -1.52169 0.494427 12
      vertex -1.29443 0.940456 0
      vertex -1.29443 0.940456 12
    endloop
  endfacet
  facet normal 0.987688 0.156435 0
    outer loop
      vertex -1.6 0 0
      vertex -1.52169 -0.494427 12
      vertex -1.52169 -0.494427 0
    endloop
  endfacet
  facet normal 0.987688 -0.156435 0
    outer loop
      vertex -1.6 0 0
      vertex -1.52169 0.494427 0
      vertex -1.6 0 12
    endloop
  endfacet
  facet normal 0.987688 0.156435 0
    outer loop
      vertex -1.6 0 0
      vertex -1.6 0 12
      vertex -1.52169 -0.494427 12
    endloop
  endfacet
  facet normal 0.987688 -0.156435 0
    outer loop
      vertex -1.6 0 12
      vertex -1.52169 0.494427 0
      vertex -1.52169 0.494427 12
    endloop
  endfacet
  facet normal 0 0 -1
    outer loop
      vertex -2.47214 -7.60845 0
      vertex -0.494427 -1.52169 0
      vertex -1.49905 -7.8583 0
    endloop
  endfacet
  facet normal -0.248693 -0.968582 -0
    outer loop
      vertex -2.47214 -7.60845 0
      vertex -1.49905 -7.8583 0
      vertex -1.49905 -7.8583 12
    endloop
  endfacet
  facet normal -0.248693 -0.968582 0
    outer loop
      vertex -2.47214 -7.60845 0
      vertex -1.49905 -7.8583 12
      vertex -2.47214 -7.60845 12
    endloop
  endfacet
  facet normal 0 0 1
    outer loop
      vertex -2.47214 -7.60845 12
      vertex -1.49905 -7.8583 12
      vertex -0.494427 -1.52169 12
    endloop
  endfacet
  facet normal 0 0 -1
    outer loop
      vertex -2.47214 7.60845 0
      vertex -1.49905 7.8583 0
      vertex -0.494427 1.52169 0
    endloop
  endfacet
  facet normal -0.248693 0.968582 0
    outer loop
      vertex -2.47214 7.60845 0
      vertex -2.47214 7.60845 12
      vertex -1.49905 7.8583 0
    endloop
  endfacet
  facet normal -0 0 1
    outer loop
      vertex -2.47214 7.60845 12
      vertex -0.494427 1.52169 12
      vertex -1.49905 7.8583 12
    endloop
  endfacet
  facet normal -0.248693 0.968582 0
    outer loop
      vertex -2.47214 7.60845 12
      vertex -1.49905 7.8583 12
      vertex -1.49905 7.8583 0
    endloop
  endfacet
  facet normal 0 0 -1
    outer loop
      vertex -3.40623 -7.23862 0
      vertex -0.494427 -1.52169 0
      vertex -2.47214 -7.60845 0
    endloop
  endfacet
  facet normal -0 0 -1
    outer loop
      vertex -3.40623 -7.23862 0
      vertex -0.940456 -1.29443 0
      vertex -0.494427 -1.52169 0
    endloop
  endfacet
  facet normal -0.368122 -0.929777 -0
    outer loop
      vertex -3.40623 -7.23862 0
      vertex -2.47214 -7.60845 0
      vertex -2.47214 -7.60845 12
    endloop
  endfacet
  facet normal -0.368122 -0.929777 0
    outer loop
      vertex -3.40623 -7.23862 0
      vertex -2.47214 -7.60845 12
      vertex -3.40623 -7.23862 12
    endloop
  endfacet
  facet normal 0 0 1
    outer loop
      vertex -3.40623 -7.23862 12
      vertex -0.494427 -1.52169 12
      vertex -0.940456 -1.29443 12
    endloop
  endfacet
  facet normal 0 0 1
    outer loop
      vertex -3.40623 -7.23862 12
      vertex -2.47214 -7.60845 12
      vertex -0.494427 -1.52169 12
    endloop
  endfacet
  facet normal 0 0 -1
    outer loop
      vertex -3.40623 7.23862 0
      vertex -0.494427 1.52169 0
      vertex -0.940456 1.29443 0
    endloop
  endfacet
  facet normal 0 0 -1
    outer loop
      vertex -3.40623 7.23862 0
      vertex -2.47214 7.60845 0
      vertex -0.494427 1.52169 0
    endloop
  endfacet
  facet normal -0.368122 0.929777 0
    outer loop
      vertex -3.40623 7.23862 0
      vertex -3.40623 7.23862 12
      vertex -2.47214 7.60845 0
    endloop
  endfacet
  facet normal -0 0 1
    outer loop
      vertex -3.40623 7.23862 12
      vertex -0.494427 1.52169 12
      vertex -2.47214 7.60845 12
    endloop
  endfacet
  facet normal 0 0 1
    outer loop
      vertex -3.40623 7.23862 12
      vertex -0.940456 1.29443 12
      vertex -0.494427 1.52169 12
    endloop
  endfacet
  facet normal -0.368122 0.929777 0
    outer loop
      vertex -3.40623 7.23862 12
      vertex -2.47214 7.60845 12
      vertex -2.47214 7.60845 0
    endloop
  endfacet
  facet normal 0 0 -1
    outer loop
      vertex -4.28661 -6.75462 0
      vertex -0.940456 -1.29443 0
      vertex -3.40623 -7.23862 0
    endloop
  endfacet
  facet normal -0.481759 -0.876304 -0
    outer loop
      vertex -4.28661 -6.75462 0
      vertex -3.40623 -7.23862 0
      vertex -3.40623 -7.23862 12
    endloop
  endfacet
  facet normal -0.481759 -0.876304 0
    outer loop
      vertex -4.28661 -6.75462 0
      vertex -3.40623 -7.23862 12
      vertex -4.28661 -6.75462 12
    endloop
  endfacet
  facet normal 0 0 1
    outer loop
      vertex -4.28661 -6.75462 12
      vertex -3.40623 -7.23862 12
      vertex -0.940456 -1.29443 12
    endloop
  endfacet
  facet normal 0 0 -1
    outer loop
      vertex -4.28661 6.75462 0
      vertex -3.40623 7.23862 0
      vertex -0.940456 1.29443 0
    endloop
  endfacet
  facet normal -0.481759 0.876304 0
    outer loop
      vertex -4.28661 6.75462 0
      vertex -4.28661 6.75462 12
      vertex -3.40623 7.23862 0
    endloop
  endfacet
  facet normal -0 0 1
    outer loop
      vertex -4.28661 6.75462 12
      vertex -0.940456 1.29443 12
      vertex -3.40623 7.23862 12
    endloop
  endfacet
  facet normal -0.481759 0.876304 0
    outer loop
      vertex -4.28661 6.75462 12
      vertex -3.40623 7.23862 12
      vertex -3.40623 7.23862 0
    endloop
  endfacet
  facet normal 0 0 -1
    outer loop
      vertex -5.09939 -6.16411 0
      vertex -0.940456 -1.29443 0
      vertex -4.28661 -6.75462 0
    endloop
  endfacet
  facet normal -0.587779 -0.809021 -0
    outer loop
      vertex -5.09939 -6.16411 0
      vertex -4.28661 -6.75462 0
      vertex -4.28661 -6.75462 12
    endloop
  endfacet
  facet normal -0.587779 -0.809021 0
    outer loop
      vertex -5.09939 -6.16411 0
      vertex -4.28661 -6.75462 12
      vertex -5.09939 -6.16411 12
    endloop
  endfacet
  facet normal 0 0 1
    outer loop
      vertex -5.09939 -6.16411 12
      vertex -4.28661 -6.75462 12
      vertex -0.940456 -1.29443 12
    endloop
  endfacet
  facet normal 0 0 -1
    outer loop
      vertex -5.09939 6.16411 0
      vertex -4.28661 6.75462 0
      vertex -0.940456 1.29443 0
    endloop
  endfacet
  facet normal -0.587779 0.809021 0
    outer loop
      vertex -5.09939 6.16411 0
      vertex -5.09939 6.16411 12
      vertex -4.28661 6.75462 0
    endloop
  endfacet
  facet normal -0 0 1
    outer loop
      vertex -5.09939 6.16411 12
      vertex -0.940456 1.29443 12
      vertex -4.28661 6.75462 12
    endloop
  endfacet
  facet normal -0.587779 0.809021 0
    outer loop
      vertex -5.09939 6.16411 12
      vertex -4.28661 6.75462 12
      vertex -4.28661 6.75462 0
    endloop
  endfacet
  facet normal 0 0 -1
    outer loop
      vertex -5.83175 -5.47638 0
      vertex -0.940456 -1.29443 0
      vertex -5.09939 -6.16411 0
    endloop
  endfacet
  facet normal -0 0 -1
    outer loop
      vertex -5.83175 -5.47638 0
      vertex -1.29443 -0.940456 0
      vertex -0.940456 -1.29443 0
    endloop
  endfacet
  facet normal -0.684546 -0.72897 -0
    outer loop
      vertex -5.83175 -5.47638 0
      vertex -5.09939 -6.16411 0
      vertex -5.09939 -6.16411 12
    endloop
  endfacet
  facet normal -0.684546 -0.72897 0
    outer loop
      vertex -5.83175 -5.47638 0
      vertex -5.09939 -6.16411 12
      vertex -5.83175 -5.47638 12
    endloop
  endfacet
  facet normal 0 0 1
    outer loop
      vertex -5.83175 -5.47638 12
      vertex -0.940456 -1.29443 12
      vertex -1.29443 -0.940456 12
    endloop
  endfacet
  facet normal 0 0 1
    outer loop
      vertex -5.83175 -5.47638 12
      vertex -5.09939 -6.16411 12
      vertex -0.940456 -1.29443 12
    endloop
  endfacet
  facet normal 0 0 -1
    outer loop
      vertex -5.83175 5.47638 0
      vertex -0.940456 1.29443 0
      vertex -1.29443 0.940456 0
    endloop
  endfacet
  facet normal 0 0 -1
    outer loop
      vertex -5.83175 5.47638 0
      vertex -5.09939 6.16411 0
      vertex -0.940456 1.29443 0
    endloop
  endfacet
  facet normal -0.684546 0.72897 0
    outer loop
      vertex -5.83175 5.47638 0
      vertex -5.83175 5.47638 12
      vertex -5.09939 6.16411 0
    endloop
  endfacet
  facet normal -0 0 1
    outer loop
      vertex -5.83175 5.47638 12
      vertex -0.940456 1.29443 12
      vertex -5.09939 6.16411 12
    endloop
  endfacet
  facet normal 0 0 1
    outer loop
      vertex -5.83175 5.47638 12
      vertex -1.29443 0.940456 12
      vertex -0.940456 1.29443 12
    endloop
  endfacet
  facet normal -0.684546 0.72897 0
    outer loop
      vertex -5.83175 5.47638 12
      vertex -5.09939 6.16411 12
      vertex -5.09939 6.16411 0
    endloop
  endfacet
  facet normal 0 0 -1
    outer loop
      vertex -6.47214 -4.70228 0
      vertex -1.29443 -0.940456 0
      vertex -5.83175 -5.47638 0
    endloop
  endfacet
  facet normal -0.770514 -0.637423 0
    outer loop
      vertex -6.47214 -4.70228 0
      vertex -5.83175 -5.47638 0
      vertex -6.47214 -4.70228 12
    endloop
  endfacet
  facet normal -0.770514 -0.637423 0
    outer loop
      vertex -6.47214 -4.70228 12
      vertex -5.83175 -5.47638 0
      vertex -5.83175 -5.47638 12
    endloop
  endfacet
  facet normal 0 0 1
    outer loop
      vertex -6.47214 -4.70228 12
      vertex -5.83175 -5.47638 12
      vertex -1.29443 -0.940456 12
    endloop
  endfacet
  facet normal 0 0 -1
    outer loop
      vertex -6.47214 4.70228 0
      vertex -5.83175 5.47638 0
      vertex -1.29443 0.940456 0
    endloop
  endfacet
  facet normal -0.770514 0.637423 0
    outer loop
      vertex -6.47214 4.70228 0
      vertex -5.83175 5.47638 12
      vertex -5.83175 5.47638 0
    endloop
  endfacet
  facet normal -0.770514 0.637423 0
    outer loop
      vertex -6.47214 4.70228 0
      vertex -6.47214 4.70228 12
      vertex -5.83175 5.47638 12
    endloop
  endfacet
  facet normal -0 0 1
    outer loop
      vertex -6.47214 4.70228 12
      vertex -1.29443 0.940456 12
      vertex -5.83175 5.47638 12
    endloop
  endfacet
  facet normal 0 0 -1
    outer loop
      vertex -7.01045 -3.85403 0
      vertex -1.29443 -0.940456 0
      vertex -6.47214 -4.70228 0
    endloop
  endfacet
  facet normal -0 0 -1
    outer loop
      vertex -7.01045 -3.85403 0
      vertex -1.52169 -0.494427 0
      vertex -1.29443 -0.940456 0
    endloop
  endfacet
  facet normal -0.844331 -0.535823 0
    outer loop
      vertex -7.01045 -3.85403 0
      vertex -6.47214 -4.70228 0
      vertex -7.01045 -3.85403 12
    endloop
  endfacet
  facet normal 0 0 1
    outer loop
      vertex -7.01045 -3.85403 12
      vertex -1.29443 -0.940456 12
      vertex -1.52169 -0.494427 12
    endloop
  endfacet
  facet normal -0.844331 -0.535823 0
    outer loop
      vertex -7.01045 -3.85403 12
      vertex -6.47214 -4.70228 0
      vertex -6.47214 -4.70228 12
    endloop
  endfacet
  facet normal 0 0 1
    outer loop
      vertex -7.01045 -3.85403 12
      vertex -6.47214 -4.70228 12
      vertex -1.29443 -0.940456 12
    endloop
  endfacet
  facet normal 0 0 -1
    outer loop
      vertex -7.01045 3.85403 0
      vertex -1.29443 0.940456 0
      vertex -1.52169 0.494427 0
    endloop
  endfacet
  facet normal 0 0 -1
    outer loop
      vertex -7.01045 3.85403 0
      vertex -6.47214 4.70228 0
      vertex -1.29443 0.940456 0
    endloop
  endfacet
  facet normal -0.844331 0.535823 0
    outer loop
      vertex -7.01045 3.85403 0
      vertex -6.47214 4.70228 12
      vertex -6.47214 4.70228 0
    endloop
  endfacet
  facet normal -0.844331 0.535823 0
    outer loop
      vertex -7.01045 3.85403 0
      vertex -7.01045 3.85403 12
      vertex -6.47214 4.70228 12
    endloop
  endfacet
  facet normal -0 0 1
    outer loop
      vertex -7.01045 3.85403 12
      vertex -1.29443 0.940456 12
      vertex -6.47214 4.70228 12
    endloop
  endfacet
  facet normal 0 0 1
    outer loop
      vertex -7.01045 3.85403 12
      vertex -1.52169 0.494427 12
      vertex -1.29443 0.940456 12
    endloop
  endfacet
  facet normal 0 0 -1
    outer loop
      vertex -7.43821 -2.945 0
      vertex -1.52169 -0.494427 0
      vertex -7.01045 -3.85403 0
    endloop
  endfacet
  facet normal -0.904826 -0.425782 0
    outer loop
      vertex -7.43821 -2.945 0
      vertex -7.01045 -3.85403 0
      vertex -7.43821 -2.945 12
    endloop
  endfacet
  facet normal -0.904826 -0.425782 0
    outer loop
      vertex -7.43821 -2.945 12
      vertex -7.01045 -3.85403 0
      vertex -7.01045 -3.85403 12
    endloop
  endfacet
  facet normal 0 0 1
    outer loop
      vertex -7.43821 -2.945 12
      vertex -7.01045 -3.85403 12
      vertex -1.52169 -0.494427 12
    endloop
  endfacet
  facet normal 0 0 -1
    outer loop
      vertex -7.43821 2.945 0
      vertex -7.01045 3.85403 0
      vertex -1.52169 0.494427 0
    endloop
  endfacet
  facet normal -0.904826 0.425782 0
    outer loop
      vertex -7.43821 2.945 0
      vertex -7.01045 3.85403 12
      vertex -7.01045 3.85403 0
    endloop
  endfacet
  facet normal -0.904826 0.425782 0
    outer loop
      vertex -7.43821 2.945 0
      vertex -7.43821 2.945 12
      vertex -7.01045 3.85403 12
    endloop
  endfacet
  facet normal -0 0 1
    outer loop
      vertex -7.43821 2.945 12
      vertex -1.52169 0.494427 12
      vertex -7.01045 3.85403 12
    endloop
  endfacet
  facet normal 0 0 -1
    outer loop
      vertex -7.74866 -1.98952 0
      vertex -1.52169 -0.494427 0
      vertex -7.43821 -2.945 0
    endloop
  endfacet
  facet normal -0.951058 -0.309013 0
    outer loop
      vertex -7.74866 -1.98952 0
      vertex -7.43821 -2.945 0
      vertex -7.74866 -1.98952 12
    endloop
  endfacet
  facet normal -0.951058 -0.309013 0
    outer loop
      vertex -7.74866 -1.98952 12
      vertex -7.43821 -2.945 0
      vertex -7.43821 -2.945 12
    endloop
  endfacet
  facet normal 0 0 1
    outer loop
      vertex -7.74866 -1.98952 12
      vertex -7.43821 -2.945 12
      vertex -1.52169 -0.494427 12
    endloop
  endfacet
  facet normal 0 0 -1
    outer loop
      vertex -7.74866 1.98952 0
      vertex -7.43821 2.945 0
      vertex -1.52169 0.494427 0
    endloop
  endfacet
  facet normal -0.951058 0.309013 0
    outer loop
      vertex -7.74866 1.98952 0
      vertex -7.43821 2.945 12
      vertex -7.43821 2.945 0
    endloop
  endfacet
  facet normal -0.951058 0.309013 0
    outer loop
      vertex -7.74866 1.98952 0
      vertex -7.74866 1.98952 12
      vertex -7.43821 2.945 12
    endloop
  endfacet
  facet normal -0 0 1
    outer loop
      vertex -7.74866 1.98952 12
      vertex -1.52169 0.494427 12
      vertex -7.43821 2.945 12
    endloop
  endfacet
  facet normal 0 0 -1
    outer loop
      vertex -7.93692 -1.00267 0
      vertex -1.52169 -0.494427 0
      vertex -7.74866 -1.98952 0
    endloop
  endfacet
  facet normal -0 0 -1
    outer loop
      vertex -7.93692 -1.00267 0
      vertex -1.6 0 0
      vertex -1.52169 -0.494427 0
    endloop
  endfacet
  facet normal -0.982286 -0.187389 0
    outer loop
      vertex -7.93692 -1.00267 0
      vertex -7.74866 -1.98952 0
      vertex -7.93692 -1.00267 12
    endloop
  endfacet
  facet normal 0 0 1
    outer loop
      vertex -7.93692 -1.00267 12
      vertex -1.52169 -0.494427 12
      vertex -1.6 0 12
    endloop
  endfacet
  facet normal -0.982286 -0.187389 0
    outer loop
      vertex -7.93692 -1.00267 12
      vertex -7.74866 -1.98952 0
      vertex -7.74866 -1.98952 12
    endloop
  endfacet
  facet normal 0 0 1
    outer loop
      vertex -7.93692 -1.00267 12
      vertex -7.74866 -1.98952 12
      vertex -1.52169 -0.494427 12
    endloop
  endfacet
  facet normal 0 0 -1
    outer loop
      vertex -7.93692 1.00267 0
      vertex -1.52169 0.494427 0
      vertex -1.6 0 0
    endloop
  endfacet
  facet normal 0 0 -1
    outer loop
      vertex -7.93692 1.00267 0
      vertex -7.74866 1.98952 0
      vertex -1.52169 0.494427 0
    endloop
  endfacet
  facet normal -0.982286 0.187389 0
    outer loop
      vertex -7.93692 1.00267 0
      vertex -7.74866 1.98952 12
      vertex -7.74866 1.98952 0
    endloop
  endfacet
  facet normal -0.982286 0.187389 0
    outer loop
      vertex -7.93692 1.00267 0
      vertex -7.93692 1.00267 12
      vertex -7.74866 1.98952 12
    endloop
  endfacet
  facet normal -0 0 1
    outer loop
      vertex -7.93692 1.00267 12
      vertex -1.52169 0.494427 12
      vertex -7.74866 1.98952 12
    endloop
  endfacet
  facet normal 0 0 1
    outer loop
      vertex -7.93692 1.00267 12
      vertex -1.6 0 12
      vertex -1.52169 0.494427 12
    endloop
  endfacet
  facet normal 0 0 -1
    outer loop
      vertex -8 0 0
      vertex -1.6 0 0
      vertex -7.93692 -1.00267 0
    endloop
  endfacet
  facet normal -0.998027 -0.0627879 0
    outer loop
      vertex -8 0 0
      vertex -7.93692 -1.00267 0
      vertex -8 0 12
    endloop
  endfacet
  facet normal 0 0 -1
    outer loop
      vertex -8 0 0
      vertex -7.93692 1.00267 0
      vertex -1.6 0 0
    endloop
  endfacet
  facet normal -0.998027 0.0627879 0
    outer loop
      vertex -8 0 0
      vertex -7.93692 1.00267 12
      vertex -7.93692 1.00267 0
    endloop
  endfacet
  facet normal -0.998027 0.0627879 0
    outer loop
      vertex -8 0 0
      vertex -8 0 12
      vertex -7.93692 1.00267 12
    endloop
  endfacet
  facet normal 0 0 1
    outer loop
      vertex -8 0 12
      vertex -1.6 0 12
      vertex -7.93692 1.00267 12
    endloop
  endfacet
  facet normal -0.998027 -0.0627879 0
    outer loop
      vertex -8 0 12
      vertex -7.93692 -1.00267 0
      vertex -7.93692 -1.00267 12
    endloop
  endfacet
  facet normal 0 0 1
    outer loop
      vertex -8 0 12
      vertex -7.93692 -1.00267 12
      vertex -1.6 0 12
    endloop
  endfacet
  facet normal -0.156435 0.987688 0
    outer loop
      vertex 0 -1.6 0
      vertex 0 -1.6 12
      vertex 0.494427 -1.52169 0
    endloop
  endfacet
  facet normal 0 0 -1
    outer loop
      vertex 0 -1.6 0
      vertex 0.494427 -1.52169 0
      vertex 1.49905 -7.8583 0
    endloop
  endfacet
  facet normal 0 0 -1
    outer loop
      vertex 0 -1.6 0
      vertex 1.49905 -7.8583 0
      vertex 0.502324 -7.98421 0
    endloop
  endfacet
  facet normal -0.156435 0.987688 0
    outer loop
      vertex 0 -1.6 12
      vertex 0.494427 -1.52169 12
      vertex 0.494427 -1.52169 0
    endloop
  endfacet
  facet normal 0 0 1
    outer loop
      vertex 0 -1.6 12
      vertex 0.502324 -7.98421 12
      vertex 1.49905 -7.8583 12
    endloop
  endfacet
  facet normal -0 0 1
    outer loop
      vertex 0 -1.6 12
      vertex 1.49905 -7.8583 12
      vertex 0.494427 -1.52169 12
    endloop
  endfacet
  facet normal -0.156435 -0.987688 -0
    outer loop
      vertex 0 1.6 0
      vertex 0.494427 1.52169 0
      vertex 0.494427 1.52169 12
    endloop
  endfacet
  facet normal -0.156435 -0.987688 0
    outer loop
      vertex 0 1.6 0
      vertex 0.494427 1.52169 12
      vertex 0 1.6 12
    endloop
  endfacet
  facet normal -0 0 -1
    outer loop
      vertex 0 1.6 0
      vertex 0.502324 7.98421 0
      vertex 1.49905 7.8583 0
    endloop
  endfacet
  facet normal 0 0 -1
    outer loop
      vertex 0 1.6 0
      vertex 1.49905 7.8583 0
      vertex 0.494427 1.52169 0
    endloop
  endfacet
  facet normal 0 0 1
    outer loop
      vertex 0 1.6 12
      vertex 0.494427 1.52169 12
      vertex 1.49905 7.8583 12
    endloop
  endfacet
  facet normal 0 0 1
    outer loop
      vertex 0 1.6 12
      vertex 1.49905 7.8583 12
      vertex 0.502324 7.98421 12
    endloop
  endfacet
  facet normal -0.453986 0.891009 0
    outer loop
      vertex 0.494427 -1.52169 0
      vertex 0.494427 -1.52169 12
      vertex 0.940456 -1.29443 0
    endloop
  endfacet
  facet normal 0 0 -1
    outer loop
      vertex 0.494427 -1.52169 0
      vertex 0.940456 -1.29443 0
      vertex 3.40623 -7.23862 0
    endloop
  endfacet
  facet normal 0 0 -1
    outer loop
      vertex 0.494427 -1.52169 0
      vertex 2.47214 -7.60845 0
      vertex 1.49905 -7.8583 0
    endloop
  endfacet
  facet normal 0 0 -1
    outer loop
      vertex 0.494427 -1.52169 0
      vertex 3.40623 -7.23862 0
      vertex 2.47214 -7.60845 0
    endloop
  endfacet
  facet normal -0.453986 0.891009 0
    outer loop
      vertex 0.494427 -1.52169 12
      vertex 0.940456 -1.29443 12
      vertex 0.940456 -1.29443 0
    endloop
  endfacet
  facet normal 0 0 1
    outer loop
      vertex 0.494427 -1.52169 12
      vertex 1.49905 -7.8583 12
      vertex 2.47214 -7.60845 12
    endloop
  endfacet
  facet normal 0 0 1
    outer loop
      vertex 0.494427 -1.52169 12
      vertex 2.47214 -7.60845 12
      vertex 3.40623 -7.23862 12
    endloop
  endfacet
  facet normal -0 0 1
    outer loop
      vertex 0.494427 -1.52169 12
      vertex 3.40623 -7.23862 12
      vertex 0.940456 -1.29443 12
    endloop
  endfacet
  facet normal -0.453986 -0.891009 -0
    outer loop
      vertex 0.494427 1.52169 0
      vertex 0.940456 1.29443 0
      vertex 0.940456 1.29443 12
    endloop
  endfacet
  facet normal -0.453986 -0.891009 0
    outer loop
      vertex 0.494427 1.52169 0
      vertex 0.940456 1.29443 12
      vertex 0.494427 1.52169 12
    endloop
  endfacet
  facet normal -0 0 -1
    outer loop
      vertex 0.494427 1.52169 0
      vertex 1.49905 7.8583 0
      vertex 2.47214 7.60845 0
    endloop
  endfacet
  facet normal -0 0 -1
    outer loop
      vertex 0.494427 1.52169 0
      vertex 2.47214 7.60845 0
      vertex 3.40623 7.23862 0
    endloop
  endfacet
  facet normal 0 0 -1
    outer loop
      vertex 0.494427 1.52169 0
      vertex 3.40623 7.23862 0
      vertex 0.940456 1.29443 0
    endloop
  endfacet
  facet normal 0 0 1
    outer loop
      vertex 0.494427 1.52169 12
      vertex 0.940456 1.29443 12
      vertex 3.40623 7.23862 12
    endloop
  endfacet
  facet normal 0 0 1
    outer loop
      vertex 0.494427 1.52169 12
      vertex 2.47214 7.60845 12
      vertex 1.49905 7.8583 12
    endloop
  endfacet
  facet normal 0 0 1
    outer loop
      vertex 0.494427 1.52169 12
      vertex 3.40623 7.23862 12
      vertex 2.47214 7.60845 12
    endloop
  endfacet
  facet normal 0.125328 -0.992115 0
    outer loop
      vertex 0.502324 -7.98421 0
      vertex 1.49905 -7.8583 0
      vertex 1.49905 -7.8583 12
    endloop
  endfacet
  facet normal 0.125328 -0.992115 0
    outer loop
      vertex 0.502324 -7.98421 0
      vertex 1.49905 -7.8583 12
      vertex 0.502324 -7.98421 12
    endloop
  endfacet
  facet normal 0.125328 0.992115 0
    outer loop
      vertex 0.502324 7.98421 0
      vertex 0.502324 7.98421 12
      vertex 1.49905 7.8583 0
    endloop
  endfacet
  facet normal 0.125328 0.992115 -0
    outer loop
      vertex 0.502324 7.98421 12
      vertex 1.49905 7.8583 12
      vertex 1.49905 7.8583 0
    endloop
  endfacet
  facet normal -0.707107 0.707107 0
    outer loop
      vertex 0.940456 -1.29443 0
      vertex 0.940456 -1.29443 12
      vertex 1.29443 -0.940456 12
    endloop
  endfacet
  facet normal 0 0 -1
    outer loop
      vertex 0.940456 -1.29443 0
      vertex 1.29443 -0.940456 0
      vertex 5.83175 -5.47638 0
    endloop
  endfacet
  facet normal -0.707107 0.707107 0
    outer loop
      vertex 0.940456 -1.29443 0
      vertex 1.29443 -0.940456 12
      vertex 1.29443 -0.940456 0
    endloop
  endfacet
  facet normal 0 0 -1
    outer loop
      vertex 0.940456 -1.29443 0
      vertex 4.28661 -6.75462 0
      vertex 3.40623 -7.23862 0
    endloop
  endfacet
  facet normal 0 0 -1
    outer loop
      vertex 0.940456 -1.29443 0
      vertex 5.09939 -6.16411 0
      vertex 4.28661 -6.75462 0
    endloop
  endfacet
  facet normal 0 0 -1
    outer loop
      vertex 0.940456 -1.29443 0
      vertex 5.83175 -5.47638 0
      vertex 5.09939 -6.16411 0
    endloop
  endfacet
  facet normal 0 0 1
    outer loop
      vertex 0.940456 -1.29443 12
      vertex 3.40623 -7.23862 12
      vertex 4.28661 -6.75462 12
    endloop
  endfacet
  facet normal 0 0 1
    outer loop
      vertex 0.940456 -1.29443 12
      vertex 4.28661 -6.75462 12
      vertex 5.09939 -6.16411 12
    endloop
  endfacet
  facet normal 0 0 1
    outer loop
      vertex 0.940456 -1.29443 12
      vertex 5.09939 -6.16411 12
      vertex 5.83175 -5.47638 12
    endloop
  endfacet
  facet normal -0 0 1
    outer loop
      vertex 0.940456 -1.29443 12
      vertex 5.83175 -5.47638 12
      vertex 1.29443 -0.940456 12
    endloop
  endfacet
  facet normal -0.707107 -0.707107 0
    outer loop
      vertex 0.940456 1.29443 0
      vertex 1.29443 0.940456 0
      vertex 0.940456 1.29443 12
    endloop
  endfacet
  facet normal -0 0 -1
    outer loop
      vertex 0.940456 1.29443 0
      vertex 3.40623 7.23862 0
      vertex 4.28661 6.75462 0
    endloop
  endfacet
  facet normal -0 0 -1
    outer loop
      vertex 0.940456 1.29443 0
      vertex 4.28661 6.75462 0
      vertex 5.09939 6.16411 0
    endloop
  endfacet
  facet normal -0 0 -1
    outer loop
      vertex 0.940456 1.29443 0
      vertex 5.09939 6.16411 0
      vertex 5.83175 5.47638 0
    endloop
  endfacet
  facet normal 0 0 -1
    outer loop
      vertex 0.940456 1.29443 0
      vertex 5.83175 5.47638 0
      vertex 1.29443 0.940456 0
    endloop
  endfacet
  facet normal -0.707107 -0.707107 0
    outer loop
      vertex 0.940456 1.29443 12
      vertex 1.29443 0.940456 0
      vertex 1.29443 0.940456 12
    endloop
  endfacet
  facet normal 0 0 1
    outer loop
      vertex 0.940456 1.29443 12
      vertex 1.29443 0.940456 12
      vertex 5.83175 5.47638 12
    endloop
  endfacet
  facet normal 0 0 1
    outer loop
      vertex 0.940456 1.29443 12
      vertex 4.28661 6.75462 12
      vertex 3.40623 7.23862 12
    endloop
  endfacet
  facet normal 0 0 1
    outer loop
      vertex 0.940456 1.29443 12
      vertex 5.09939 6.16411 12
      vertex 4.28661 6.75462 12
    endloop
  endfacet
  facet normal 0 0 1
    outer loop
      vertex 0.940456 1.29443 12
      vertex 5.83175 5.47638 12
      vertex 5.09939 6.16411 12
    endloop
  endfacet
  facet normal -0.891009 0.453986 0
    outer loop
      vertex 1.29443 -0.940456 0
      vertex 1.29443 -0.940456 12
      vertex 1.52169 -0.494427 12
    endloop
  endfacet
  facet normal 0 0 -1
    outer loop
      vertex 1.29443 -0.940456 0
      vertex 1.52169 -0.494427 0
      vertex 7.01045 -3.85403 0
    endloop
  endfacet
  facet normal -0.891009 0.453986 0
    outer loop
      vertex 1.29443 -0.940456 0
      vertex 1.52169 -0.494427 12
      vertex 1.52169 -0.494427 0
    endloop
  endfacet
  facet normal 0 0 -1
    outer loop
      vertex 1.29443 -0.940456 0
      vertex 6.47214 -4.70228 0
      vertex 5.83175 -5.47638 0
    endloop
  endfacet
  facet normal 0 0 -1
    outer loop
      vertex 1.29443 -0.940456 0
      vertex 7.01045 -3.85403 0
      vertex 6.47214 -4.70228 0
    endloop
  endfacet
  facet normal 0 0 1
    outer loop
      vertex 1.29443 -0.940456 12
      vertex 5.83175 -5.47638 12
      vertex 6.47214 -4.70228 12
    endloop
  endfacet
  facet normal 0 0 1
    outer loop
      vertex 1.29443 -0.940456 12
      vertex 6.47214 -4.70228 12
      vertex 7.01045 -3.85403 12
    endloop
  endfacet
  facet normal -0 0 1
    outer loop
      vertex 1.29443 -0.940456 12
      vertex 7.01045 -3.85403 12
      vertex 1.52169 -0.494427 12
    endloop
  endfacet
  facet normal -0.891009 -0.453986 0
    outer loop
      vertex 1.29443 0.940456 0
      vertex 1.52169 0.494427 0
      vertex 1.29443 0.940456 12
    endloop
  endfacet
  facet normal -0 0 -1
    outer loop
      vertex 1.29443 0.940456 0
      vertex 5.83175 5.47638 0
      vertex 6.47214 4.70228 0
    endloop
  endfacet
  facet normal -0 0 -1
    outer loop
      vertex 1.29443 0.940456 0
      vertex 6.47214 4.70228 0
      vertex 7.01045 3.85403 0
    endloop
  endfacet
  facet normal 0 0 -1
    outer loop
      vertex 1.29443 0.940456 0
      vertex 7.01045 3.85403 0
      vertex 1.52169 0.494427 0
    endloop
  endfacet
  facet normal -0.891009 -0.453986 0
    outer loop
      vertex 1.29443 0.940456 12
      vertex 1.52169 0.494427 0
      vertex 1.52169 0.494427 12
    endloop
  endfacet
  facet normal 0 0 1
    outer loop
      vertex 1.29443 0.940456 12
      vertex 1.52169 0.494427 12
      vertex 7.01045 3.85403 12
    endloop
  endfacet
  facet normal 0 0 1
    outer loop
      vertex 1.29443 0.940456 12
      vertex 6.47214 4.70228 12
      vertex 5.83175 5.47638 12
    endloop
  endfacet
  facet normal 0 0 1
    outer loop
      vertex 1.29443 0.940456 12
      vertex 7.01045 3.85403 12
      vertex 6.47214 4.70228 12
    endloop
  endfacet
  facet normal 0.248693 -0.968582 0
    outer loop
      vertex 1.49905 -7.8583 0
      vertex 2.47214 -7.60845 0
      vertex 2.47214 -7.60845 12
    endloop
  endfacet
  facet normal 0.248693 -0.968582 0
    outer loop
      vertex 1.49905 -7.8583 0
      vertex 2.47214 -7.60845 12
      vertex 1.49905 -7.8583 12
    endloop
  endfacet
  facet normal 0.248693 0.968582 0
    outer loop
      vertex 1.49905 7.8583 0
      vertex 1.49905 7.8583 12
      vertex 2.47214 7.60845 0
    endloop
  endfacet
  facet normal 0.248693 0.968582 -0
    outer loop
      vertex 1.49905 7.8583 12
      vertex 2.47214 7.60845 12
      vertex 2.47214 7.60845 0
    endloop
  endfacet
  facet normal -0.987688 0.156435 0
    outer loop
      vertex 1.52169 -0.494427 0
      vertex 1.52169 -0.494427 12
      vertex 1.6 0 12
    endloop
  endfacet
  facet normal 0 0 -1
    outer loop
      vertex 1.52169 -0.494427 0
      vertex 1.6 0 0
      vertex 7.93692 -1.00267 0
    endloop
  endfacet
  facet normal -0.987688 0.156435 0
    outer loop
      vertex 1.52169 -0.494427 0
      vertex 1.6 0 12
      vertex 1.6 0 0
    endloop
  endfacet
  facet normal 0 0 -1
    outer loop
      vertex 1.52169 -0.494427 0
      vertex 7.43821 -2.945 0
      vertex 7.01045 -3.85403 0
    endloop
  endfacet
  facet normal 0 0 -1
    outer loop
      vertex 1.52169 -0.494427 0
      vertex 7.74866 -1.98952 0
      vertex 7.43821 -2.945 0
    endloop
  endfacet
  facet normal 0 0 -1
    outer loop
      vertex 1.52169 -0.494427 0
      vertex 7.93692 -1.00267 0
      vertex 7.74866 -1.98952 0
    endloop
  endfacet
  facet normal 0 0 1
    outer loop
      vertex 1.52169 -0.494427 12
      vertex 7.01045 -3.85403 12
      vertex 7.43821 -2.945 12
    endloop
  endfacet
  facet normal 0 0 1
    outer loop
      vertex 1.52169 -0.494427 12
      vertex 7.43821 -2.945 12
      vertex 7.74866 -1.98952 12
    endloop
  endfacet
  facet normal 0 0 1
    outer loop
      vertex 1.52169 -0.494427 12
      vertex 7.74866 -1.98952 12
      vertex 7.93692 -1.00267 12
    endloop
  endfacet
  facet normal -0 0 1
    outer loop
      vertex 1.52169 -0.494427 12
      vertex 7.93692 -1.00267 12
      vertex 1.6 0 12
    endloop
  endfacet
  facet normal -0.987688 -0.156435 0
    outer loop
      vertex 1.52169 0.494427 0
      vertex 1.6 0 0
      vertex 1.52169 0.494427 12
    endloop
  endfacet
  facet normal -0 0 -1
    outer loop
      vertex 1.52169 0.494427 0
      vertex 7.01045 3.85403 0
      vertex 7.43821 2.945 0
    endloop
  endfacet
  facet normal -0 0 -1
    outer loop
      vertex 1.52169 0.494427 0
      vertex 7.43821 2.945 0
      vertex 7.74866 1.98952 0
    endloop
  endfacet
  facet normal -0 0 -1
    outer loop
      vertex 1.52169 0.494427 0
      vertex 7.74866 1.98952 0
      vertex 7.93692 1.00267 0
    endloop
  endfacet
  facet normal 0 0 -1
    outer loop
      vertex 1.52169 0.494427 0
      vertex 7.93692 1.00267 0
      vertex 1.6 0 0
    endloop
  endfacet
  facet normal -0.987688 -0.156435 0
    outer loop
      vertex 1.52169 0.494427 12
      vertex 1.6 0 0
      vertex 1.6 0 12
    endloop
  endfacet
  facet normal 0 0 1
    outer loop
      vertex 1.52169 0.494427 12
      vertex 1.6 0 12
      vertex 7.93692 1.00267 12
    endloop
  endfacet
  facet normal 0 0 1
    outer loop
      vertex 1.52169 0.494427 12
      vertex 7.43821 2.945 12
      vertex 7.01045 3.85403 12
    endloop
  endfacet
  facet normal 0 0 1
    outer loop
      vertex 1.52169 0.494427 12
      vertex 7.74866 1.98952 12
      vertex 7.43821 2.945 12
    endloop
  endfacet
  facet normal 0 0 1
    outer loop
      vertex 1.52169 0.494427 12
      vertex 7.93692 1.00267 12
      vertex 7.74866 1.98952 12
    endloop
  endfacet
  facet normal 0 0 -1
    outer loop
      vertex 1.6 0 0
      vertex 7.93692 1.00267 0
      vertex 8 0 0
    endloop
  endfacet
  facet normal 0 0 -1
    outer loop
      vertex 1.6 0 0
      vertex 8 0 0
      vertex 7.93692 -1.00267 0
    endloop
  endfacet
  facet normal 0 0 1
    outer loop
      vertex 1.6 0 12
      vertex 7.93692 -1.00267 12
      vertex 8 0 12
    endloop
  endfacet
  facet normal 0 0 1
    outer loop
      vertex 1.6 0 12
      vertex 8 0 12
      vertex 7.93692 1.00267 12
    endloop
  endfacet
  facet normal 0.368122 -0.929777 0
    outer loop
      vertex 2.47214 -7.60845 0
      vertex 3.40623 -7.23862 0
      vertex 3.40623 -7.23862 12
    endloop
  endfacet
  facet normal 0.368122 -0.929777 0
    outer loop
      vertex 2.47214 -7.60845 0
      vertex 3.40623 -7.23862 12
      vertex 2.47214 -7.60845 12
    endloop
  endfacet
  facet normal 0.368122 0.929777 0
    outer loop
      vertex 2.47214 7.60845 0
      vertex 2.47214 7.60845 12
      vertex 3.40623 7.23862 0
    endloop
  endfacet
  facet normal 0.368122 0.929777 -0
    outer loop
      vertex 2.47214 7.60845 12
      vertex 3.40623 7.23862 12
      vertex 3.40623 7.23862 0
    endloop
  endfacet
  facet normal 0.481759 -0.876304 0
    outer loop
      vertex 3.40623 -7.23862 0
      vertex 4.28661 -6.75462 0
      vertex 4.28661 -6.75462 12
    endloop
  endfacet
  facet normal 0.481759 -0.876304 0
    outer loop
      vertex 3.40623 -7.23862 0
      vertex 4.28661 -6.75462 12
      vertex 3.40623 -7.23862 12
    endloop
  endfacet
  facet normal 0.481759 0.876304 0
    outer loop
      vertex 3.40623 7.23862 0
      vertex 3.40623 7.23862 12
      vertex 4.28661 6.75462 0
    endloop
  endfacet
  facet normal 0.481759 0.876304 -0
    outer loop
      vertex 3.40623 7.23862 12
      vertex 4.28661 6.75462 12
      vertex 4.28661 6.75462 0
    endloop
  endfacet
  facet normal 0.587779 -0.809021 0
    outer loop
      vertex 4.28661 -6.75462 0
      vertex 5.09939 -6.16411 0
      vertex 5.09939 -6.16411 12
    endloop
  endfacet
  facet normal 0.587779 -0.809021 0
    outer loop
      vertex 4.28661 -6.75462 0
      vertex 5.09939 -6.16411 12
      vertex 4.28661 -6.75462 12
    endloop
  endfacet
  facet normal 0.587779 0.809021 0
    outer loop
      vertex 4.28661 6.75462 0
      vertex 4.28661 6.75462 12
      vertex 5.09939 6.16411 0
    endloop
  endfacet
  facet normal 0.587779 0.809021 -0
    outer loop
      vertex 4.28661 6.75462 12
      vertex 5.09939 6.16411 12
      vertex 5.09939 6.16411 0
    endloop
  endfacet
  facet normal 0.684546 -0.72897 0
    outer loop
      vertex 5.09939 -6.16411 0
      vertex 5.83175 -5.47638 0
      vertex 5.83175 -5.47638 12
    endloop
  endfacet
  facet normal 0.684546 -0.72897 0
    outer loop
      vertex 5.09939 -6.16411 0
      vertex 5.83175 -5.47638 12
      vertex 5.09939 -6.16411 12
    endloop
  endfacet
  facet normal 0.684546 0.72897 0
    outer loop
      vertex 5.09939 6.16411 0
      vertex 5.09939 6.16411 12
      vertex 5.83175 5.47638 0
    endloop
  endfacet
  facet normal 0.684546 0.72897 -0
    outer loop
      vertex 5.09939 6.16411 12
      vertex 5.83175 5.47638 12
      vertex 5.83175 5.47638 0
    endloop
  endfacet
  facet normal 0.770514 -0.637423 0
    outer loop
      vertex 5.83175 -5.47638 0
      vertex 6.47214 -4.70228 0
      vertex 5.83175 -5.47638 12
    endloop
  endfacet
  facet normal 0.770514 -0.637423 0
    outer loop
      vertex 5.83175 -5.47638 12
      vertex 6.47214 -4.70228 0
      vertex 6.47214 -4.70228 12
    endloop
  endfacet
  facet normal 0.770514 0.637423 0
    outer loop
      vertex 5.83175 5.47638 0
      vertex 5.83175 5.47638 12
      vertex 6.47214 4.70228 12
    endloop
  endfacet
  facet normal 0.770514 0.637423 0
    outer loop
      vertex 5.83175 5.47638 0
      vertex 6.47214 4.70228 12
      vertex 6.47214 4.70228 0
    endloop
  endfacet
  facet normal 0.844331 -0.535823 0
    outer loop
      vertex 6.47214 -4.70228 0
      vertex 7.01045 -3.85403 0
      vertex 6.47214 -4.70228 12
    endloop
  endfacet
  facet normal 0.844331 -0.535823 0
    outer loop
      vertex 6.47214 -4.70228 12
      vertex 7.01045 -3.85403 0
      vertex 7.01045 -3.85403 12
    endloop
  endfacet
  facet normal 0.844331 0.535823 0
    outer loop
      vertex 6.47214 4.70228 0
      vertex 6.47214 4.70228 12
      vertex 7.01045 3.85403 12
    endloop
  endfacet
  facet normal 0.844331 0.535823 0
    outer loop
      vertex 6.47214 4.70228 0
      vertex 7.01045 3.85403 12
      vertex 7.01045 3.85403 0
    endloop
  endfacet
  facet normal 0.904826 -0.425782 0
    outer loop
      vertex 7.01045 -3.85403 0
      vertex 7.43821 -2.945 0
      vertex 7.01045 -3.85403 12
    endloop
  endfacet
  facet normal 0.904826 -0.425782 0
    outer loop
      vertex 7.01045 -3.85403 12
      vertex 7.43821 -2.945 0
      vertex 7.43821 -2.945 12
    endloop
  endfacet
  facet normal 0.904826 0.425782 0
    outer loop
      vertex 7.01045 3.85403 0
      vertex 7.01045 3.85403 12
      vertex 7.43821 2.945 12
    endloop
  endfacet
  facet normal 0.904826 0.425782 0
    outer loop
      vertex 7.01045 3.85403 0
      vertex 7.43821 2.945 12
      vertex 7.43821 2.945 0
    endloop
  endfacet
  facet normal 0.951058 -0.309013 0
    outer loop
      vertex 7.43821 -2.945 0
      vertex 7.74866 -1.98952 0
      vertex 7.43821 -2.945 12
    endloop
  endfacet
  facet normal 0.951058 -0.309013 0
    outer loop
      vertex 7.43821 -2.945 12
      vertex 7.74866 -1.98952 0
      vertex 7.74866 -1.98952 12
    endloop
  endfacet
  facet normal 0.951058 0.309013 0
    outer loop
      vertex 7.43821 2.945 0
      vertex 7.43821 2.945 12
      vertex 7.74866 1.98952 12
    endloop
  endfacet
  facet normal 0.951058 0.309013 0
    outer loop
      vertex 7.43821 2.945 0
      vertex 7.74866 1.98952 12
      vertex 7.74866 1.98952 0
    endloop
  endfacet
  facet normal 0.982286 -0.187389 0
    outer loop
      vertex 7.74866 -1.98952 0
      vertex 7.93692 -1.00267 0
      vertex 7.74866 -1.98952 12
    endloop
  endfacet
  facet normal 0.982286 -0.187389 0
    outer loop
      vertex 7.74866 -1.98952 12
      vertex 7.93692 -1.00267 0
      vertex 7.93692 -1.00267 12
    endloop
  endfacet
  facet normal 0.982286 0.187389 0
    outer loop
      vertex 7.74866 1.98952 0
      vertex 7.74866 1.98952 12
      vertex 7.93692 1.00267 12
    endloop
  endfacet
  facet normal 0.982286 0.187389 0
    outer loop
      vertex 7.74866 1.98952 0
      vertex 7.93692 1.00267 12
      vertex 7.93692 1.00267 0
    endloop
  endfacet
  facet normal 0.998027 -0.0627879 0
    outer loop
      vertex 7.93692 -1.00267 0
      vertex 8 0 0
      vertex 7.93692 -1.00267 12
    endloop
  endfacet
  facet normal 0.998027 -0.0627879 0
    outer loop
      vertex 7.93692 -1.00267 12
      vertex 8 0 0
      vertex 8 0 12
    endloop
  endfacet
  facet normal 0.998027 0.0627879 0
    outer loop
      vertex 7.93692 1.00267 0
      vertex 7.93692 1.00267 12
      vertex 8 0 12
    endloop
  endfacet
  facet normal 0.998027 0.0627879 0
    outer loop
      vertex 7.93692 1.00267 0
      vertex 8 0 12
      vertex 8 0 0
    endloop
  endfacet
endsolid model
