solid model
  facet normal -0.987688 0.156436 0
    outer loop
      vertex 0 27 -0.75
      vertex 0 27 0.75
      vertex 0.342605 29.1631 0.75
    endloop
  endfacet
  facet normal 0 -0 -1
    outer loop
      vertex 0 27 -0.75
      vertex 0.342605 29.1631 -0.75
      vertex 4.75 27 -0.75
    endloop
  endfacet
  facet normal -0.987688 0.156436 0
    outer loop
      vertex 0 27 -0.75
      vertex 0.342605 29.1631 0.75
      vertex 0.342605 29.1631 -0.75
    endloop
  endfacet
  facet normal 0 0 -1
    outer loop
      vertex 0 27 -0.75
      vertex 4.75 27 -0.75
      vertex 5.17971 25.6775 -0.75
    endloop
  endfacet
  facet normal 0 0 -1
    outer loop
      vertex 0 27 -0.75
      vertex 5.17971 25.6775 -0.75
      vertex 6.30471 24.8601 -0.75
    endloop
  endfacet
  facet normal 0 0 1
    outer loop
      vertex 0 27 0.75
      vertex 4.75 27 0.75
      vertex 0.342605 29.1631 0.75
    endloop
  endfacet
  facet normal -0 0 1
    outer loop
      vertex 0 27 0.75
      vertex 5.17971 25.6775 0.75
      vertex 4.75 27 0.75
    endloop
  endfacet
  facet normal 0 0 1
    outer loop
      vertex 0 27 0.75
      vertex 6.30471 24.8601 0.75
      vertex 5.17971 25.6775 0.75
    endloop
  endfacet
  facet normal 0 0 1
    outer loop
      vertex 0 27 0.75
      vertex 6.30471 9.13988 0.75
      vertex 6.30471 24.8601 0.75
    endloop
  endfacet
  facet normal 0 0 -1
    outer loop
      vertex 0 7 -0.75
      vertex 0 27 -0.75
      vertex 6.30471 24.8601 -0.75
    endloop
  endfacet
  facet normal -1 0 0
    outer loop
      vertex 0 7 -0.75
      vertex 0 27 0.75
      vertex 0 27 -0.75
    endloop
  endfacet
  facet normal -1 -0 0
    outer loop
      vertex 0 7 -0.75
      vertex 0 7 0.75
      vertex 0 27 0.75
    endloop
  endfacet
  facet normal -0.987688 -0.156435 0
    outer loop
      vertex 0 7 -0.75
      vertex 0.342605 4.83688 -0.75
      vertex 0 7 0.75
    endloop
  endfacet
  facet normal -0 0 -1
    outer loop
      vertex 0 7 -0.75
      vertex 4.75 7 -0.75
      vertex 0.342605 4.83688 -0.75
    endloop
  endfacet
  facet normal 0 0 -1
    outer loop
      vertex 0 7 -0.75
      vertex 5.17971 8.32252 -0.75
      vertex 4.75 7 -0.75
    endloop
  endfacet
  facet normal -0 0 -1
    outer loop
      vertex 0 7 -0.75
      vertex 6.30471 24.8601 -0.75
      vertex 6.30471 9.13988 -0.75
    endloop
  endfacet
  facet normal 0 0 -1
    outer loop
      vertex 0 7 -0.75
      vertex 6.30471 9.13988 -0.75
      vertex 5.17971 8.32252 -0.75
    endloop
  endfacet
  facet normal -0.987688 -0.156435 0
    outer loop
      vertex 0 7 0.75
      vertex 0.342605 4.83688 -0.75
      vertex 0.342605 4.83688 0.75
    endloop
  endfacet
  facet normal 0 -0 1
    outer loop
      vertex 0 7 0.75
      vertex 0.342605 4.83688 0.75
      vertex 4.75 7 0.75
    endloop
  endfacet
  facet normal 0 0 1
    outer loop
      vertex 0 7 0.75
      vertex 4.75 7 0.75
      vertex 5.17971 8.32252 0.75
    endloop
  endfacet
  facet normal 0 0 1
    outer loop
      vertex 0 7 0.75
      vertex 5.17971 8.32252 0.75
      vertex 6.30471 9.13988 0.75
    endloop
  endfacet
  facet normal 0 0 1
    outer loop
      vertex 0 7 0.75
      vertex 6.30471 9.13988 0.75
      vertex 0 27 0.75
    endloop
  endfacet
  facet normal -0.891009 0.453986 0
    outer loop
      vertex 0.342605 29.1631 -0.75
      vertex 0.342605 29.1631 0.75
      vertex 1.33688 31.1145 0.75
    endloop
  endfacet
  facet normal 0 0 -1
    outer loop
      vertex 0.342605 29.1631 -0.75
      vertex 1.33688 31.1145 -0.75
      vertex 5.17971 28.3225 -0.75
    endloop
  endfacet
  facet normal -0.891009 0.453986 0
    outer loop
      vertex 0.342605 29.1631 -0.75
      vertex 1.33688 31.1145 0.75
      vertex 1.33688 31.1145 -0.75
    endloop
  endfacet
  facet normal 0 0 -1
    outer loop
      vertex 0.342605 29.1631 -0.75
      vertex 5.17971 28.3225 -0.75
      vertex 4.75 27 -0.75
    endloop
  endfacet
  facet normal 0 0 1
    outer loop
      vertex 0.342605 29.1631 0.75
      vertex 4.75 27 0.75
      vertex 5.17971 28.3225 0.75
    endloop
  endfacet
  facet normal -0 0 1
    outer loop
      vertex 0.342605 29.1631 0.75
      vertex 5.17971 28.3225 0.75
      vertex 1.33688 31.1145 0.75
    endloop
  endfacet
  facet normal -0.891007 -0.453989 0
    outer loop
      vertex 0.342605 4.83688 -0.75
      vertex 1.33688 2.8855 -0.75
      vertex 0.342605 4.83688 0.75
    endloop
  endfacet
  facet normal -0 0 -1
    outer loop
      vertex 0.342605 4.83688 -0.75
      vertex 4.75 7 -0.75
      vertex 5.17971 5.67748 -0.75
    endloop
  endfacet
  facet normal 0 0 -1
    outer loop
      vertex 0.342605 4.83688 -0.75
      vertex 5.17971 5.67748 -0.75
      vertex 1.33688 2.8855 -0.75
    endloop
  endfacet
  facet normal -0.891007 -0.453989 0
    outer loop
      vertex 0.342605 4.83688 0.75
      vertex 1.33688 2.8855 -0.75
      vertex 1.33688 2.8855 0.75
    endloop
  endfacet
  facet normal 0 0 1
    outer loop
      vertex 0.342605 4.83688 0.75
      vertex 1.33688 2.8855 0.75
      vertex 5.17971 5.67748 0.75
    endloop
  endfacet
  facet normal 0 0 1
    outer loop
      vertex 0.342605 4.83688 0.75
      vertex 5.17971 5.67748 0.75
      vertex 4.75 7 0.75
    endloop
  endfacet
  facet normal -0.707107 -0.707107 0
    outer loop
      vertex 1.33688 2.8855 -0.75
      vertex 2.8855 1.33688 -0.75
      vertex 1.33688 2.8855 0.75
    endloop
  endfacet
  facet normal 0 0 -1
    outer loop
      vertex 1.33688 2.8855 -0.75
      vertex 5.17971 5.67748 -0.75
      vertex 2.8855 1.33688 -0.75
    endloop
  endfacet
  facet normal -0.707107 -0.707107 0
    outer loop
      vertex 1.33688 2.8855 0.75
      vertex 2.8855 1.33688 -0.75
      vertex 2.8855 1.33688 0.75
    endloop
  endfacet
  facet normal 0 0 1
    outer loop
      vertex 1.33688 2.8855 0.75
      vertex 2.8855 1.33688 0.75
      vertex 5.17971 5.67748 0.75
    endloop
  endfacet
  facet normal -0.707102 0.707111 0
    outer loop
      vertex 1.33688 31.1145 -0.75
      vertex 1.33688 31.1145 0.75
      vertex 2.8855 32.6631 -0.75
    endloop
  endfacet
  facet normal 0 0 -1
    outer loop
      vertex 1.33688 31.1145 -0.75
      vertex 2.8855 32.6631 -0.75
      vertex 5.17971 28.3225 -0.75
    endloop
  endfacet
  facet normal -0.707102 0.707111 0
    outer loop
      vertex 1.33688 31.1145 0.75
      vertex 2.8855 32.6631 0.75
      vertex 2.8855 32.6631 -0.75
    endloop
  endfacet
  facet normal -0 0 1
    outer loop
      vertex 1.33688 31.1145 0.75
      vertex 5.17971 28.3225 0.75
      vertex 2.8855 32.6631 0.75
    endloop
  endfacet
  facet normal 0.950995 0.309205 0
    outer loop
      vertex 101.2 7 -0.75
      vertex 101.2 7 0.75
      vertex 101.544 5.94199 0.75
    endloop
  endfacet
  facet normal 0.950995 0.309205 0
    outer loop
      vertex 101.2 7 -0.75
      vertex 101.544 5.94199 0.75
      vertex 101.544 5.94199 -0.75
    endloop
  endfacet
  facet normal 0.950995 -0.309205 0
    outer loop
      vertex 101.2 7 -0.75
      vertex 101.544 8.05801 -0.75
      vertex 101.2 7 0.75
    endloop
  endfacet
  facet normal 0.950995 -0.309205 0
    outer loop
      vertex 101.2 7 0.75
      vertex 101.544 8.05801 -0.75
      vertex 101.544 8.05801 0.75
    endloop
  endfacet
  facet normal 0.587786 0.809016 0
    outer loop
      vertex 101.544 5.94199 -0.75
      vertex 101.544 5.94199 0.75
      vertex 102.444 5.2881 -0.75
    endloop
  endfacet
  facet normal 0 0 -1
    outer loop
      vertex 101.544 5.94199 -0.75
      vertex 102.444 5.2881 -0.75
      vertex 103 0 -0.75
    endloop
  endfacet
  facet normal 0.587786 0.809016 -0
    outer loop
      vertex 101.544 5.94199 0.75
      vertex 102.444 5.2881 0.75
      vertex 102.444 5.2881 -0.75
    endloop
  endfacet
  facet normal 0 0 1
    outer loop
      vertex 101.544 5.94199 0.75
      vertex 103 0 0.75
      vertex 102.444 5.2881 0.75
    endloop
  endfacet
  facet normal 0.587786 -0.809016 0
    outer loop
      vertex 101.544 8.05801 -0.75
      vertex 102.444 8.7119 -0.75
      vertex 102.444 8.7119 0.75
    endloop
  endfacet
  facet normal 0.587786 -0.809016 0
    outer loop
      vertex 101.544 8.05801 -0.75
      vertex 102.444 8.7119 0.75
      vertex 101.544 8.05801 0.75
    endloop
  endfacet
  facet normal 0 1 0
    outer loop
      vertex 102.444 5.2881 -0.75
      vertex 102.444 5.2881 0.75
      vertex 103.556 5.2881 -0.75
    endloop
  endfacet
  facet normal 0 0 -1
    outer loop
      vertex 102.444 5.2881 -0.75
      vertex 103.556 5.2881 -0.75
      vertex 103 0 -0.75
    endloop
  endfacet
  facet normal -0 0 1
    outer loop
      vertex 102.444 5.2881 0.75
      vertex 103 0 0.75
      vertex 103.556 5.2881 0.75
    endloop
  endfacet
  facet normal 0 1 -0
    outer loop
      vertex 102.444 5.2881 0.75
      vertex 103.556 5.2881 0.75
      vertex 103.556 5.2881 -0.75
    endloop
  endfacet
  facet normal 0 -1 -0
    outer loop
      vertex 102.444 8.7119 -0.75
      vertex 103.556 8.7119 -0.75
      vertex 103.556 8.7119 0.75
    endloop
  endfacet
  facet normal 0 -1 0
    outer loop
      vertex 102.444 8.7119 -0.75
      vertex 103.556 8.7119 0.75
      vertex 102.444 8.7119 0.75
    endloop
  endfacet
  facet normal 0 0 -1
    outer loop
      vertex 102.444 8.7119 -0.75
      vertex 110 27 -0.75
      vertex 103.556 8.7119 -0.75
    endloop
  endfacet
  facet normal 0 0 1
    outer loop
      vertex 102.444 8.7119 0.75
      vertex 103.556 8.7119 0.75
      vertex 110 27 0.75
    endloop
  endfacet
  facet normal 0 0 -1
    outer loop
      vertex 103 0 -0.75
      vertex 103.556 5.2881 -0.75
      vertex 105.163 0.342605 -0.75
    endloop
  endfacet
  facet normal 0.156443 -0.987687 0
    outer loop
      vertex 103 0 -0.75
      vertex 105.163 0.342605 -0.75
      vertex 105.163 0.342605 0.75
    endloop
  endfacet
  facet normal 0.156443 -0.987687 0
    outer loop
      vertex 103 0 -0.75
      vertex 105.163 0.342605 0.75
      vertex 103 0 0.75
    endloop
  endfacet
  facet normal 0 0 1
    outer loop
      vertex 103 0 0.75
      vertex 105.163 0.342605 0.75
      vertex 103.556 5.2881 0.75
    endloop
  endfacet
  facet normal 0.156441 0.987687 0
    outer loop
      vertex 103 34 -0.75
      vertex 103 34 0.75
      vertex 105.163 33.6574 -0.75
    endloop
  endfacet
  facet normal 0 0 -1
    outer loop
      vertex 103 34 -0.75
      vertex 105.163 33.6574 -0.75
      vertex 107.114 32.6631 -0.75
    endloop
  endfacet
  facet normal 0 0 -1
    outer loop
      vertex 103 34 -0.75
      vertex 107.114 32.6631 -0.75
      vertex 108.663 31.1145 -0.75
    endloop
  endfacet
  facet normal 0 0 -1
    outer loop
      vertex 103 34 -0.75
      vertex 108.663 31.1145 -0.75
      vertex 109.657 29.1631 -0.75
    endloop
  endfacet
  facet normal 0 0 -1
    outer loop
      vertex 103 34 -0.75
      vertex 109.657 29.1631 -0.75
      vertex 110 27 -0.75
    endloop
  endfacet
  facet normal 0.156441 0.987687 -0
    outer loop
      vertex 103 34 0.75
      vertex 105.163 33.6574 0.75
      vertex 105.163 33.6574 -0.75
    endloop
  endfacet
  facet normal 0 0 1
    outer loop
      vertex 103 34 0.75
      vertex 107.114 32.6631 0.75
      vertex 105.163 33.6574 0.75
    endloop
  endfacet
  facet normal 0 0 1
    outer loop
      vertex 103 34 0.75
      vertex 108.663 31.1145 0.75
      vertex 107.114 32.6631 0.75
    endloop
  endfacet
  facet normal 0 0 1
    outer loop
      vertex 103 34 0.75
      vertex 109.657 29.1631 0.75
      vertex 108.663 31.1145 0.75
    endloop
  endfacet
  facet normal 0 0 1
    outer loop
      vertex 103 34 0.75
      vertex 110 27 0.75
      vertex 109.657 29.1631 0.75
    endloop
  endfacet
  facet normal -0.587786 0.809016 0
    outer loop
      vertex 103.556 5.2881 -0.75
      vertex 103.556 5.2881 0.75
      vertex 104.456 5.94199 -0.75
    endloop
  endfacet
  facet normal 0 0 -1
    outer loop
      vertex 103.556 5.2881 -0.75
      vertex 104.456 5.94199 -0.75
      vertex 107.114 1.33688 -0.75
    endloop
  endfacet
  facet normal 0 0 -1
    outer loop
      vertex 103.556 5.2881 -0.75
      vertex 107.114 1.33688 -0.75
      vertex 105.163 0.342605 -0.75
    endloop
  endfacet
  facet normal -0.587786 0.809016 0
    outer loop
      vertex 103.556 5.2881 0.75
      vertex 104.456 5.94199 0.75
      vertex 104.456 5.94199 -0.75
    endloop
  endfacet
  facet normal 0 0 1
    outer loop
      vertex 103.556 5.2881 0.75
      vertex 105.163 0.342605 0.75
      vertex 107.114 1.33688 0.75
    endloop
  endfacet
  facet normal -0 0 1
    outer loop
      vertex 103.556 5.2881 0.75
      vertex 107.114 1.33688 0.75
      vertex 104.456 5.94199 0.75
    endloop
  endfacet
  facet normal -0.587786 -0.809016 -0
    outer loop
      vertex 103.556 8.7119 -0.75
      vertex 104.456 8.05801 -0.75
      vertex 104.456 8.05801 0.75
    endloop
  endfacet
  facet normal -0.587786 -0.809016 0
    outer loop
      vertex 103.556 8.7119 -0.75
      vertex 104.456 8.05801 0.75
      vertex 103.556 8.7119 0.75
    endloop
  endfacet
  facet normal 0 0 -1
    outer loop
      vertex 103.556 8.7119 -0.75
      vertex 110 27 -0.75
      vertex 110 7 -0.75
    endloop
  endfacet
  facet normal 0 0 -1
    outer loop
      vertex 103.556 8.7119 -0.75
      vertex 110 7 -0.75
      vertex 104.456 8.05801 -0.75
    endloop
  endfacet
  facet normal 0 0 1
    outer loop
      vertex 103.556 8.7119 0.75
      vertex 104.456 8.05801 0.75
      vertex 110 7 0.75
    endloop
  endfacet
  facet normal 0 0 1
    outer loop
      vertex 103.556 8.7119 0.75
      vertex 110 7 0.75
      vertex 110 27 0.75
    endloop
  endfacet
  facet normal -0.950995 0.309205 0
    outer loop
      vertex 104.456 5.94199 -0.75
      vertex 104.456 5.94199 0.75
      vertex 104.8 7 0.75
    endloop
  endfacet
  facet normal 0 0 -1
    outer loop
      vertex 104.456 5.94199 -0.75
      vertex 104.8 7 -0.75
      vertex 109.657 4.83688 -0.75
    endloop
  endfacet
  facet normal -0.950995 0.309205 0
    outer loop
      vertex 104.456 5.94199 -0.75
      vertex 104.8 7 0.75
      vertex 104.8 7 -0.75
    endloop
  endfacet
  facet normal 0 0 -1
    outer loop
      vertex 104.456 5.94199 -0.75
      vertex 108.663 2.8855 -0.75
      vertex 107.114 1.33688 -0.75
    endloop
  endfacet
  facet normal 0 0 -1
    outer loop
      vertex 104.456 5.94199 -0.75
      vertex 109.657 4.83688 -0.75
      vertex 108.663 2.8855 -0.75
    endloop
  endfacet
  facet normal 0 0 1
    outer loop
      vertex 104.456 5.94199 0.75
      vertex 107.114 1.33688 0.75
      vertex 108.663 2.8855 0.75
    endloop
  endfacet
  facet normal 0 0 1
    outer loop
      vertex 104.456 5.94199 0.75
      vertex 108.663 2.8855 0.75
      vertex 109.657 4.83688 0.75
    endloop
  endfacet
  facet normal -0 0 1
    outer loop
      vertex 104.456 5.94199 0.75
      vertex 109.657 4.83688 0.75
      vertex 104.8 7 0.75
    endloop
  endfacet
  facet normal -0.950995 -0.309205 0
    outer loop
      vertex 104.456 8.05801 -0.75
      vertex 104.8 7 -0.75
      vertex 104.456 8.05801 0.75
    endloop
  endfacet
  facet normal 0 0 -1
    outer loop
      vertex 104.456 8.05801 -0.75
      vertex 110 7 -0.75
      vertex 104.8 7 -0.75
    endloop
  endfacet
  facet normal -0.950995 -0.309205 0
    outer loop
      vertex 104.456 8.05801 0.75
      vertex 104.8 7 -0.75
      vertex 104.8 7 0.75
    endloop
  endfacet
  facet normal 0 -0 1
    outer loop
      vertex 104.456 8.05801 0.75
      vertex 104.8 7 0.75
      vertex 110 7 0.75
    endloop
  endfacet
  facet normal 0 0 -1
    outer loop
      vertex 104.8 7 -0.75
      vertex 110 7 -0.75
      vertex 109.657 4.83688 -0.75
    endloop
  endfacet
  facet normal 0 0 1
    outer loop
      vertex 104.8 7 0.75
      vertex 109.657 4.83688 0.75
      vertex 110 7 0.75
    endloop
  endfacet
  facet normal 0.45406 -0.890971 0
    outer loop
      vertex 105.163 0.342605 -0.75
      vertex 107.114 1.33688 -0.75
      vertex 107.114 1.33688 0.75
    endloop
  endfacet
  facet normal 0.45406 -0.890971 0
    outer loop
      vertex 105.163 0.342605 -0.75
      vertex 107.114 1.33688 0.75
      vertex 105.163 0.342605 0.75
    endloop
  endfacet
  facet normal 0.454069 0.890967 0
    outer loop
      vertex 105.163 33.6574 -0.75
      vertex 105.163 33.6574 0.75
      vertex 107.114 32.6631 -0.75
    endloop
  endfacet
  facet normal 0.454069 0.890967 -0
    outer loop
      vertex 105.163 33.6574 0.75
      vertex 107.114 32.6631 0.75
      vertex 107.114 32.6631 -0.75
    endloop
  endfacet
  facet normal 0.70702 -0.707194 0
    outer loop
      vertex 107.114 1.33688 -0.75
      vertex 108.663 2.8855 -0.75
      vertex 107.114 1.33688 0.75
    endloop
  endfacet
  facet normal 0.70702 -0.707194 0
    outer loop
      vertex 107.114 1.33688 0.75
      vertex 108.663 2.8855 -0.75
      vertex 108.663 2.8855 0.75
    endloop
  endfacet
  facet normal 0.707015 0.707198 0
    outer loop
      vertex 107.114 32.6631 -0.75
      vertex 107.114 32.6631 0.75
      vertex 108.663 31.1145 -0.75
    endloop
  endfacet
  facet normal 0.707015 0.707198 -0
    outer loop
      vertex 107.114 32.6631 0.75
      vertex 108.663 31.1145 0.75
      vertex 108.663 31.1145 -0.75
    endloop
  endfacet
  facet normal 0.891058 -0.45389 0
    outer loop
      vertex 108.663 2.8855 -0.75
      vertex 109.657 4.83688 -0.75
      vertex 108.663 2.8855 0.75
    endloop
  endfacet
  facet normal 0.891058 -0.45389 0
    outer loop
      vertex 108.663 2.8855 0.75
      vertex 109.657 4.83688 -0.75
      vertex 109.657 4.83688 0.75
    endloop
  endfacet
  facet normal 0.89106 0.453886 0
    outer loop
      vertex 108.663 31.1145 -0.75
      vertex 108.663 31.1145 0.75
      vertex 109.657 29.1631 0.75
    endloop
  endfacet
  facet normal 0.89106 0.453886 0
    outer loop
      vertex 108.663 31.1145 -0.75
      vertex 109.657 29.1631 0.75
      vertex 109.657 29.1631 -0.75
    endloop
  endfacet
  facet normal 0.98766 0.156612 0
    outer loop
      vertex 109.657 29.1631 -0.75
      vertex 109.657 29.1631 0.75
      vertex 110 27 0.75
    endloop
  endfacet
  facet normal 0.98766 0.156612 0
    outer loop
      vertex 109.657 29.1631 -0.75
      vertex 110 27 0.75
      vertex 110 27 -0.75
    endloop
  endfacet
  facet normal 0.98766 -0.156611 0
    outer loop
      vertex 109.657 4.83688 -0.75
      vertex 110 7 -0.75
      vertex 109.657 4.83688 0.75
    endloop
  endfacet
  facet normal 0.98766 -0.156611 0
    outer loop
      vertex 109.657 4.83688 0.75
      vertex 110 7 -0.75
      vertex 110 7 0.75
    endloop
  endfacet
  facet normal 1 0 0
    outer loop
      vertex 110 7 -0.75
      vertex 110 27 -0.75
      vertex 110 7 0.75
    endloop
  endfacet
  facet normal 1 -0 0
    outer loop
      vertex 110 7 0.75
      vertex 110 27 -0.75
      vertex 110 27 0.75
    endloop
  endfacet
  facet normal -0.453989 -0.891007 -0
    outer loop
      vertex 2.8855 1.33688 -0.75
      vertex 4.83688 0.342605 -0.75
      vertex 4.83688 0.342605 0.75
    endloop
  endfacet
  facet normal -0.453989 -0.891007 0
    outer loop
      vertex 2.8855 1.33688 -0.75
      vertex 4.83688 0.342605 0.75
      vertex 2.8855 1.33688 0.75
    endloop
  endfacet
  facet normal -0 0 -1
    outer loop
      vertex 2.8855 1.33688 -0.75
      vertex 5.17971 5.67748 -0.75
      vertex 6.30471 4.86012 -0.75
    endloop
  endfacet
  facet normal 0 0 -1
    outer loop
      vertex 2.8855 1.33688 -0.75
      vertex 6.30471 4.86012 -0.75
      vertex 4.83688 0.342605 -0.75
    endloop
  endfacet
  facet normal 0 0 1
    outer loop
      vertex 2.8855 1.33688 0.75
      vertex 4.83688 0.342605 0.75
      vertex 6.30471 4.86012 0.75
    endloop
  endfacet
  facet normal 0 0 1
    outer loop
      vertex 2.8855 1.33688 0.75
      vertex 6.30471 4.86012 0.75
      vertex 5.17971 5.67748 0.75
    endloop
  endfacet
  facet normal -0.453999 0.891002 0
    outer loop
      vertex 2.8855 32.6631 -0.75
      vertex 2.8855 32.6631 0.75
      vertex 4.83688 33.6574 -0.75
    endloop
  endfacet
  facet normal 0 0 -1
    outer loop
      vertex 2.8855 32.6631 -0.75
      vertex 4.83688 33.6574 -0.75
      vertex 6.30471 29.1399 -0.75
    endloop
  endfacet
  facet normal 0 0 -1
    outer loop
      vertex 2.8855 32.6631 -0.75
      vertex 6.30471 29.1399 -0.75
      vertex 5.17971 28.3225 -0.75
    endloop
  endfacet
  facet normal -0.453999 0.891002 0
    outer loop
      vertex 2.8855 32.6631 0.75
      vertex 4.83688 33.6574 0.75
      vertex 4.83688 33.6574 -0.75
    endloop
  endfacet
  facet normal 0 0 1
    outer loop
      vertex 2.8855 32.6631 0.75
      vertex 5.17971 28.3225 0.75
      vertex 6.30471 29.1399 0.75
    endloop
  endfacet
  facet normal -0 0 1
    outer loop
      vertex 2.8855 32.6631 0.75
      vertex 6.30471 29.1399 0.75
      vertex 4.83688 33.6574 0.75
    endloop
  endfacet
  facet normal 0.951048 0.309043 0
    outer loop
      vertex 21.2 7 -0.75
      vertex 21.2 7 0.75
      vertex 21.5438 5.94199 0.75
    endloop
  endfacet
  facet normal 0.951048 0.309043 0
    outer loop
      vertex 21.2 7 -0.75
      vertex 21.5438 5.94199 0.75
      vertex 21.5438 5.94199 -0.75
    endloop
  endfacet
  facet normal 0.951048 -0.309043 0
    outer loop
      vertex 21.2 7 -0.75
      vertex 21.5438 8.05801 -0.75
      vertex 21.2 7 0.75
    endloop
  endfacet
  facet normal 0.951048 -0.309043 0
    outer loop
      vertex 21.2 7 0.75
      vertex 21.5438 8.05801 -0.75
      vertex 21.5438 8.05801 0.75
    endloop
  endfacet
  facet normal 0.587786 0.809016 0
    outer loop
      vertex 21.5438 5.94199 -0.75
      vertex 21.5438 5.94199 0.75
      vertex 22.4438 5.2881 -0.75
    endloop
  endfacet
  facet normal 0.587786 0.809016 -0
    outer loop
      vertex 21.5438 5.94199 0.75
      vertex 22.4438 5.2881 0.75
      vertex 22.4438 5.2881 -0.75
    endloop
  endfacet
  facet normal 0.587786 -0.809016 0
    outer loop
      vertex 21.5438 8.05801 -0.75
      vertex 22.4438 8.7119 -0.75
      vertex 22.4438 8.7119 0.75
    endloop
  endfacet
  facet normal 0.587786 -0.809016 0
    outer loop
      vertex 21.5438 8.05801 -0.75
      vertex 22.4438 8.7119 0.75
      vertex 21.5438 8.05801 0.75
    endloop
  endfacet
  facet normal 0 1 0
    outer loop
      vertex 22.4438 5.2881 -0.75
      vertex 22.4438 5.2881 0.75
      vertex 23.5562 5.2881 -0.75
    endloop
  endfacet
  facet normal 0 1 -0
    outer loop
      vertex 22.4438 5.2881 0.75
      vertex 23.5562 5.2881 0.75
      vertex 23.5562 5.2881 -0.75
    endloop
  endfacet
  facet normal 0 -1 -0
    outer loop
      vertex 22.4438 8.7119 -0.75
      vertex 23.5562 8.7119 -0.75
      vertex 23.5562 8.7119 0.75
    endloop
  endfacet
  facet normal 0 -1 0
    outer loop
      vertex 22.4438 8.7119 -0.75
      vertex 23.5562 8.7119 0.75
      vertex 22.4438 8.7119 0.75
    endloop
  endfacet
  facet normal -0.587786 0.809016 0
    outer loop
      vertex 23.5562 5.2881 -0.75
      vertex 23.5562 5.2881 0.75
      vertex 24.4562 5.94199 -0.75
    endloop
  endfacet
  facet normal 0 0 -1
    outer loop
      vertex 23.5562 5.2881 -0.75
      vertex 24.4562 5.94199 -0.75
      vertex 62.4438 5.2881 -0.75
    endloop
  endfacet
  facet normal -0.587786 0.809016 0
    outer loop
      vertex 23.5562 5.2881 0.75
      vertex 24.4562 5.94199 0.75
      vertex 24.4562 5.94199 -0.75
    endloop
  endfacet
  facet normal 0 0 1
    outer loop
      vertex 23.5562 5.2881 0.75
      vertex 62.4438 5.2881 0.75
      vertex 24.4562 5.94199 0.75
    endloop
  endfacet
  facet normal -0.587786 -0.809016 -0
    outer loop
      vertex 23.5562 8.7119 -0.75
      vertex 24.4562 8.05801 -0.75
      vertex 24.4562 8.05801 0.75
    endloop
  endfacet
  facet normal -0.587786 -0.809016 0
    outer loop
      vertex 23.5562 8.7119 -0.75
      vertex 24.4562 8.05801 0.75
      vertex 23.5562 8.7119 0.75
    endloop
  endfacet
  facet normal -0 0 -1
    outer loop
      vertex 23.5562 8.7119 -0.75
      vertex 41.2 25 -0.75
      vertex 41.5438 23.942 -0.75
    endloop
  endfacet
  facet normal 0 0 -1
    outer loop
      vertex 23.5562 8.7119 -0.75
      vertex 41.5438 23.942 -0.75
      vertex 24.4562 8.05801 -0.75
    endloop
  endfacet
  facet normal 0 0 1
    outer loop
      vertex 23.5562 8.7119 0.75
      vertex 24.4562 8.05801 0.75
      vertex 41.2 25 0.75
    endloop
  endfacet
  facet normal -0.951048 0.309043 0
    outer loop
      vertex 24.4562 5.94199 -0.75
      vertex 24.4562 5.94199 0.75
      vertex 24.8 7 0.75
    endloop
  endfacet
  facet normal 0 0 -1
    outer loop
      vertex 24.4562 5.94199 -0.75
      vertex 24.8 7 -0.75
      vertex 61.5438 5.94199 -0.75
    endloop
  endfacet
  facet normal -0.951048 0.309043 0
    outer loop
      vertex 24.4562 5.94199 -0.75
      vertex 24.8 7 0.75
      vertex 24.8 7 -0.75
    endloop
  endfacet
  facet normal 0 0 -1
    outer loop
      vertex 24.4562 5.94199 -0.75
      vertex 61.5438 5.94199 -0.75
      vertex 62.4438 5.2881 -0.75
    endloop
  endfacet
  facet normal 0 0 1
    outer loop
      vertex 24.4562 5.94199 0.75
      vertex 61.5438 5.94199 0.75
      vertex 24.8 7 0.75
    endloop
  endfacet
  facet normal 0 0 1
    outer loop
      vertex 24.4562 5.94199 0.75
      vertex 62.4438 5.2881 0.75
      vertex 61.5438 5.94199 0.75
    endloop
  endfacet
  facet normal -0.951048 -0.309043 0
    outer loop
      vertex 24.4562 8.05801 -0.75
      vertex 24.8 7 -0.75
      vertex 24.4562 8.05801 0.75
    endloop
  endfacet
  facet normal -0 0 -1
    outer loop
      vertex 24.4562 8.05801 -0.75
      vertex 41.5438 23.942 -0.75
      vertex 42.4438 23.2881 -0.75
    endloop
  endfacet
  facet normal 0 0 -1
    outer loop
      vertex 24.4562 8.05801 -0.75
      vertex 42.4438 23.2881 -0.75
      vertex 24.8 7 -0.75
    endloop
  endfacet
  facet normal -0.951048 -0.309043 0
    outer loop
      vertex 24.4562 8.05801 0.75
      vertex 24.8 7 -0.75
      vertex 24.8 7 0.75
    endloop
  endfacet
  facet normal 0 0 1
    outer loop
      vertex 24.4562 8.05801 0.75
      vertex 24.8 7 0.75
      vertex 41.2 25 0.75
    endloop
  endfacet
  facet normal 0 0 -1
    outer loop
      vertex 24.8 7 -0.75
      vertex 42.4438 23.2881 -0.75
      vertex 61.2 7 -0.75
    endloop
  endfacet
  facet normal 0 0 -1
    outer loop
      vertex 24.8 7 -0.75
      vertex 61.2 7 -0.75
      vertex 61.5438 5.94199 -0.75
    endloop
  endfacet
  facet normal 0 0 1
    outer loop
      vertex 24.8 7 0.75
      vertex 41.5438 23.942 0.75
      vertex 41.2 25 0.75
    endloop
  endfacet
  facet normal 0 0 1
    outer loop
      vertex 24.8 7 0.75
      vertex 42.4438 23.2881 0.75
      vertex 41.5438 23.942 0.75
    endloop
  endfacet
  facet normal 0 0 1
    outer loop
      vertex 24.8 7 0.75
      vertex 61.2 7 0.75
      vertex 42.4438 23.2881 0.75
    endloop
  endfacet
  facet normal 0 0 1
    outer loop
      vertex 24.8 7 0.75
      vertex 61.5438 5.94199 0.75
      vertex 61.2 7 0.75
    endloop
  endfacet
  facet normal 0.951056 0.309019 0
    outer loop
      vertex 4.75 27 -0.75
      vertex 4.75 27 0.75
      vertex 5.17971 25.6775 0.75
    endloop
  endfacet
  facet normal 0.951056 0.309019 0
    outer loop
      vertex 4.75 27 -0.75
      vertex 5.17971 25.6775 0.75
      vertex 5.17971 25.6775 -0.75
    endloop
  endfacet
  facet normal 0.951056 -0.309019 0
    outer loop
      vertex 4.75 27 -0.75
      vertex 5.17971 28.3225 -0.75
      vertex 4.75 27 0.75
    endloop
  endfacet
  facet normal 0.951056 -0.309019 0
    outer loop
      vertex 4.75 27 0.75
      vertex 5.17971 28.3225 -0.75
      vertex 5.17971 28.3225 0.75
    endloop
  endfacet
  facet normal 0.951057 0.309015 0
    outer loop
      vertex 4.75 7 -0.75
      vertex 4.75 7 0.75
      vertex 5.17971 5.67748 0.75
    endloop
  endfacet
  facet normal 0.951057 0.309015 0
    outer loop
      vertex 4.75 7 -0.75
      vertex 5.17971 5.67748 0.75
      vertex 5.17971 5.67748 -0.75
    endloop
  endfacet
  facet normal 0.951057 -0.309015 0
    outer loop
      vertex 4.75 7 -0.75
      vertex 5.17971 8.32252 -0.75
      vertex 4.75 7 0.75
    endloop
  endfacet
  facet normal 0.951057 -0.309015 0
    outer loop
      vertex 4.75 7 0.75
      vertex 5.17971 8.32252 -0.75
      vertex 5.17971 8.32252 0.75
    endloop
  endfacet
  facet normal 0 0 -1
    outer loop
      vertex 4.83688 0.342605 -0.75
      vertex 6.30471 4.86012 -0.75
      vertex 7 0 -0.75
    endloop
  endfacet
  facet normal -0.156435 -0.987688 -0
    outer loop
      vertex 4.83688 0.342605 -0.75
      vertex 7 0 -0.75
      vertex 7 0 0.75
    endloop
  endfacet
  facet normal -0.156435 -0.987688 0
    outer loop
      vertex 4.83688 0.342605 -0.75
      vertex 7 0 0.75
      vertex 4.83688 0.342605 0.75
    endloop
  endfacet
  facet normal 0 0 1
    outer loop
      vertex 4.83688 0.342605 0.75
      vertex 7 0 0.75
      vertex 6.30471 4.86012 0.75
    endloop
  endfacet
  facet normal -0.156432 0.987689 0
    outer loop
      vertex 4.83688 33.6574 -0.75
      vertex 4.83688 33.6574 0.75
      vertex 7 34 -0.75
    endloop
  endfacet
  facet normal 0 0 -1
    outer loop
      vertex 4.83688 33.6574 -0.75
      vertex 7 34 -0.75
      vertex 6.30471 29.1399 -0.75
    endloop
  endfacet
  facet normal -0 0 1
    outer loop
      vertex 4.83688 33.6574 0.75
      vertex 6.30471 29.1399 0.75
      vertex 7 34 0.75
    endloop
  endfacet
  facet normal -0.156432 0.987689 0
    outer loop
      vertex 4.83688 33.6574 0.75
      vertex 7 34 0.75
      vertex 7 34 -0.75
    endloop
  endfacet
  facet normal 0.951047 0.309045 0
    outer loop
      vertex 41.2 25 -0.75
      vertex 41.2 25 0.75
      vertex 41.5438 23.942 0.75
    endloop
  endfacet
  facet normal 0.951047 0.309045 0
    outer loop
      vertex 41.2 25 -0.75
      vertex 41.5438 23.942 0.75
      vertex 41.5438 23.942 -0.75
    endloop
  endfacet
  facet normal 0.951047 -0.309045 0
    outer loop
      vertex 41.2 25 -0.75
      vertex 41.5438 26.058 -0.75
      vertex 41.2 25 0.75
    endloop
  endfacet
  facet normal 0.951047 -0.309045 0
    outer loop
      vertex 41.2 25 0.75
      vertex 41.5438 26.058 -0.75
      vertex 41.5438 26.058 0.75
    endloop
  endfacet
  facet normal 0.587792 0.809012 0
    outer loop
      vertex 41.5438 23.942 -0.75
      vertex 41.5438 23.942 0.75
      vertex 42.4438 23.2881 -0.75
    endloop
  endfacet
  facet normal 0.587792 0.809012 -0
    outer loop
      vertex 41.5438 23.942 0.75
      vertex 42.4438 23.2881 0.75
      vertex 42.4438 23.2881 -0.75
    endloop
  endfacet
  facet normal 0.587792 -0.809012 0
    outer loop
      vertex 41.5438 26.058 -0.75
      vertex 42.4438 26.7119 -0.75
      vertex 42.4438 26.7119 0.75
    endloop
  endfacet
  facet normal 0.587792 -0.809012 0
    outer loop
      vertex 41.5438 26.058 -0.75
      vertex 42.4438 26.7119 0.75
      vertex 41.5438 26.058 0.75
    endloop
  endfacet
  facet normal 0 1 0
    outer loop
      vertex 42.4438 23.2881 -0.75
      vertex 42.4438 23.2881 0.75
      vertex 43.5562 23.2881 -0.75
    endloop
  endfacet
  facet normal 0 0 -1
    outer loop
      vertex 42.4438 23.2881 -0.75
      vertex 43.5562 23.2881 -0.75
      vertex 61.2 7 -0.75
    endloop
  endfacet
  facet normal 0 1 -0
    outer loop
      vertex 42.4438 23.2881 0.75
      vertex 43.5562 23.2881 0.75
      vertex 43.5562 23.2881 -0.75
    endloop
  endfacet
  facet normal -0 0 1
    outer loop
      vertex 42.4438 23.2881 0.75
      vertex 61.2 7 0.75
      vertex 43.5562 23.2881 0.75
    endloop
  endfacet
  facet normal 0 -1 -0
    outer loop
      vertex 42.4438 26.7119 -0.75
      vertex 43.5562 26.7119 -0.75
      vertex 43.5562 26.7119 0.75
    endloop
  endfacet
  facet normal 0 -1 0
    outer loop
      vertex 42.4438 26.7119 -0.75
      vertex 43.5562 26.7119 0.75
      vertex 42.4438 26.7119 0.75
    endloop
  endfacet
  facet normal -0.587792 0.809012 0
    outer loop
      vertex 43.5562 23.2881 -0.75
      vertex 43.5562 23.2881 0.75
      vertex 44.4562 23.942 -0.75
    endloop
  endfacet
  facet normal 0 0 -1
    outer loop
      vertex 43.5562 23.2881 -0.75
      vertex 44.4562 23.942 -0.75
      vertex 61.2 7 -0.75
    endloop
  endfacet
  facet normal -0.587792 0.809012 0
    outer loop
      vertex 43.5562 23.2881 0.75
      vertex 44.4562 23.942 0.75
      vertex 44.4562 23.942 -0.75
    endloop
  endfacet
  facet normal 0 0 1
    outer loop
      vertex 43.5562 23.2881 0.75
      vertex 61.2 7 0.75
      vertex 61.5438 8.05801 0.75
    endloop
  endfacet
  facet normal -0 0 1
    outer loop
      vertex 43.5562 23.2881 0.75
      vertex 61.5438 8.05801 0.75
      vertex 44.4562 23.942 0.75
    endloop
  endfacet
  facet normal 0 0 -1
    outer loop
      vertex 43.5562 26.7119 -0.75
      vertex 103 34 -0.75
      vertex 82.4438 24.7119 -0.75
    endloop
  endfacet
  facet normal -0.587792 -0.809012 -0
    outer loop
      vertex 43.5562 26.7119 -0.75
      vertex 44.4562 26.058 -0.75
      vertex 44.4562 26.058 0.75
    endloop
  endfacet
  facet normal -0.587792 -0.809012 0
    outer loop
      vertex 43.5562 26.7119 -0.75
      vertex 44.4562 26.058 0.75
      vertex 43.5562 26.7119 0.75
    endloop
  endfacet
  facet normal 0 0 -1
    outer loop
      vertex 43.5562 26.7119 -0.75
      vertex 82.4438 24.7119 -0.75
      vertex 44.4562 26.058 -0.75
    endloop
  endfacet
  facet normal 0 0 1
    outer loop
      vertex 43.5562 26.7119 0.75
      vertex 44.4562 26.058 0.75
      vertex 82.4438 24.7119 0.75
    endloop
  endfacet
  facet normal -0 0 1
    outer loop
      vertex 43.5562 26.7119 0.75
      vertex 82.4438 24.7119 0.75
      vertex 103 34 0.75
    endloop
  endfacet
  facet normal -0.951047 0.309045 0
    outer loop
      vertex 44.4562 23.942 -0.75
      vertex 44.4562 23.942 0.75
      vertex 44.8 25 0.75
    endloop
  endfacet
  facet normal 0 0 -1
    outer loop
      vertex 44.4562 23.942 -0.75
      vertex 44.8 25 -0.75
      vertex 61.2 7 -0.75
    endloop
  endfacet
  facet normal -0.951047 0.309045 0
    outer loop
      vertex 44.4562 23.942 -0.75
      vertex 44.8 25 0.75
      vertex 44.8 25 -0.75
    endloop
  endfacet
  facet normal 0 0 1
    outer loop
      vertex 44.4562 23.942 0.75
      vertex 61.5438 8.05801 0.75
      vertex 62.4438 8.7119 0.75
    endloop
  endfacet
  facet normal -0 0 1
    outer loop
      vertex 44.4562 23.942 0.75
      vertex 62.4438 8.7119 0.75
      vertex 44.8 25 0.75
    endloop
  endfacet
  facet normal -0.951047 -0.309045 0
    outer loop
      vertex 44.4562 26.058 -0.75
      vertex 44.8 25 -0.75
      vertex 44.4562 26.058 0.75
    endloop
  endfacet
  facet normal 0 0 -1
    outer loop
      vertex 44.4562 26.058 -0.75
      vertex 81.5438 24.058 -0.75
      vertex 44.8 25 -0.75
    endloop
  endfacet
  facet normal 0 0 -1
    outer loop
      vertex 44.4562 26.058 -0.75
      vertex 82.4438 24.7119 -0.75
      vertex 81.5438 24.058 -0.75
    endloop
  endfacet
  facet normal -0.951047 -0.309045 0
    outer loop
      vertex 44.4562 26.058 0.75
      vertex 44.8 25 -0.75
      vertex 44.8 25 0.75
    endloop
  endfacet
  facet normal 0 0 1
    outer loop
      vertex 44.4562 26.058 0.75
      vertex 44.8 25 0.75
      vertex 81.5438 24.058 0.75
    endloop
  endfacet
  facet normal 0 0 1
    outer loop
      vertex 44.4562 26.058 0.75
      vertex 81.5438 24.058 0.75
      vertex 82.4438 24.7119 0.75
    endloop
  endfacet
  facet normal 0 0 -1
    outer loop
      vertex 44.8 25 -0.75
      vertex 61.5438 8.05801 -0.75
      vertex 61.2 7 -0.75
    endloop
  endfacet
  facet normal 0 0 -1
    outer loop
      vertex 44.8 25 -0.75
      vertex 62.4438 8.7119 -0.75
      vertex 61.5438 8.05801 -0.75
    endloop
  endfacet
  facet normal 0 0 -1
    outer loop
      vertex 44.8 25 -0.75
      vertex 63.5562 8.7119 -0.75
      vertex 62.4438 8.7119 -0.75
    endloop
  endfacet
  facet normal 0 0 -1
    outer loop
      vertex 44.8 25 -0.75
      vertex 81.2 23 -0.75
      vertex 63.5562 8.7119 -0.75
    endloop
  endfacet
  facet normal 0 0 -1
    outer loop
      vertex 44.8 25 -0.75
      vertex 81.5438 24.058 -0.75
      vertex 81.2 23 -0.75
    endloop
  endfacet
  facet normal 0 0 1
    outer loop
      vertex 44.8 25 0.75
      vertex 62.4438 8.7119 0.75
      vertex 63.5562 8.7119 0.75
    endloop
  endfacet
  facet normal 0 0 1
    outer loop
      vertex 44.8 25 0.75
      vertex 63.5562 8.7119 0.75
      vertex 81.2 23 0.75
    endloop
  endfacet
  facet normal 0 0 1
    outer loop
      vertex 44.8 25 0.75
      vertex 81.2 23 0.75
      vertex 81.5438 24.058 0.75
    endloop
  endfacet
  facet normal 0.587804 0.809003 0
    outer loop
      vertex 5.17971 25.6775 -0.75
      vertex 5.17971 25.6775 0.75
      vertex 6.30471 24.8601 -0.75
    endloop
  endfacet
  facet normal 0.587804 0.809003 -0
    outer loop
      vertex 5.17971 25.6775 0.75
      vertex 6.30471 24.8601 0.75
      vertex 6.30471 24.8601 -0.75
    endloop
  endfacet
  facet normal 0.587804 -0.809003 0
    outer loop
      vertex 5.17971 28.3225 -0.75
      vertex 6.30471 29.1399 -0.75
      vertex 6.30471 29.1399 0.75
    endloop
  endfacet
  facet normal 0.587804 -0.809003 0
    outer loop
      vertex 5.17971 28.3225 -0.75
      vertex 6.30471 29.1399 0.75
      vertex 5.17971 28.3225 0.75
    endloop
  endfacet
  facet normal 0.587785 0.809017 0
    outer loop
      vertex 5.17971 5.67748 -0.75
      vertex 5.17971 5.67748 0.75
      vertex 6.30471 4.86012 -0.75
    endloop
  endfacet
  facet normal 0.587785 0.809017 -0
    outer loop
      vertex 5.17971 5.67748 0.75
      vertex 6.30471 4.86012 0.75
      vertex 6.30471 4.86012 -0.75
    endloop
  endfacet
  facet normal 0.587785 -0.809017 0
    outer loop
      vertex 5.17971 8.32252 -0.75
      vertex 6.30471 9.13988 -0.75
      vertex 6.30471 9.13988 0.75
    endloop
  endfacet
  facet normal 0.587785 -0.809017 0
    outer loop
      vertex 5.17971 8.32252 -0.75
      vertex 6.30471 9.13988 0.75
      vertex 5.17971 8.32252 0.75
    endloop
  endfacet
  facet normal 0 1 0
    outer loop
      vertex 6.30471 24.8601 -0.75
      vertex 6.30471 24.8601 0.75
      vertex 7.69529 24.8601 -0.75
    endloop
  endfacet
  facet normal 0 1 -0
    outer loop
      vertex 6.30471 24.8601 0.75
      vertex 7.69529 24.8601 0.75
      vertex 7.69529 24.8601 -0.75
    endloop
  endfacet
  facet normal -0 0 1
    outer loop
      vertex 6.30471 24.8601 0.75
      vertex 7.69529 9.13988 0.75
      vertex 7.69529 24.8601 0.75
    endloop
  endfacet
  facet normal 0 0 -1
    outer loop
      vertex 6.30471 29.1399 -0.75
      vertex 7 34 -0.75
      vertex 7.69529 29.1399 -0.75
    endloop
  endfacet
  facet normal 0 -1 -0
    outer loop
      vertex 6.30471 29.1399 -0.75
      vertex 7.69529 29.1399 -0.75
      vertex 7.69529 29.1399 0.75
    endloop
  endfacet
  facet normal 0 -1 0
    outer loop
      vertex 6.30471 29.1399 -0.75
      vertex 7.69529 29.1399 0.75
      vertex 6.30471 29.1399 0.75
    endloop
  endfacet
  facet normal 0 0 1
    outer loop
      vertex 6.30471 29.1399 0.75
      vertex 7.69529 29.1399 0.75
      vertex 7 34 0.75
    endloop
  endfacet
  facet normal 0 1 0
    outer loop
      vertex 6.30471 4.86012 -0.75
      vertex 6.30471 4.86012 0.75
      vertex 7.69529 4.86012 -0.75
    endloop
  endfacet
  facet normal 0 0 -1
    outer loop
      vertex 6.30471 4.86012 -0.75
      vertex 7.69529 4.86012 -0.75
      vertex 7 0 -0.75
    endloop
  endfacet
  facet normal -0 0 1
    outer loop
      vertex 6.30471 4.86012 0.75
      vertex 7 0 0.75
      vertex 7.69529 4.86012 0.75
    endloop
  endfacet
  facet normal 0 1 -0
    outer loop
      vertex 6.30471 4.86012 0.75
      vertex 7.69529 4.86012 0.75
      vertex 7.69529 4.86012 -0.75
    endloop
  endfacet
  facet normal 0 0 -1
    outer loop
      vertex 6.30471 9.13988 -0.75
      vertex 6.30471 24.8601 -0.75
      vertex 7.69529 24.8601 -0.75
    endloop
  endfacet
  facet normal 0 0 -1
    outer loop
      vertex 6.30471 9.13988 -0.75
      vertex 7.69529 24.8601 -0.75
      vertex 7.69529 9.13988 -0.75
    endloop
  endfacet
  facet normal 0 -1 -0
    outer loop
      vertex 6.30471 9.13988 -0.75
      vertex 7.69529 9.13988 -0.75
      vertex 7.69529 9.13988 0.75
    endloop
  endfacet
  facet normal 0 -1 0
    outer loop
      vertex 6.30471 9.13988 -0.75
      vertex 7.69529 9.13988 0.75
      vertex 6.30471 9.13988 0.75
    endloop
  endfacet
  facet normal 0 0 1
    outer loop
      vertex 6.30471 9.13988 0.75
      vertex 7.69529 9.13988 0.75
      vertex 6.30471 24.8601 0.75
    endloop
  endfacet
  facet normal 0.951048 0.309043 0
    outer loop
      vertex 61.2 7 -0.75
      vertex 61.2 7 0.75
      vertex 61.5438 5.94199 0.75
    endloop
  endfacet
  facet normal 0.951048 0.309043 0
    outer loop
      vertex 61.2 7 -0.75
      vertex 61.5438 5.94199 0.75
      vertex 61.5438 5.94199 -0.75
    endloop
  endfacet
  facet normal 0.951048 -0.309043 0
    outer loop
      vertex 61.2 7 -0.75
      vertex 61.5438 8.05801 -0.75
      vertex 61.2 7 0.75
    endloop
  endfacet
  facet normal 0.951048 -0.309043 0
    outer loop
      vertex 61.2 7 0.75
      vertex 61.5438 8.05801 -0.75
      vertex 61.5438 8.05801 0.75
    endloop
  endfacet
  facet normal 0.587786 0.809016 0
    outer loop
      vertex 61.5438 5.94199 -0.75
      vertex 61.5438 5.94199 0.75
      vertex 62.4438 5.2881 -0.75
    endloop
  endfacet
  facet normal 0.587786 0.809016 -0
    outer loop
      vertex 61.5438 5.94199 0.75
      vertex 62.4438 5.2881 0.75
      vertex 62.4438 5.2881 -0.75
    endloop
  endfacet
  facet normal 0.587786 -0.809016 0
    outer loop
      vertex 61.5438 8.05801 -0.75
      vertex 62.4438 8.7119 -0.75
      vertex 62.4438 8.7119 0.75
    endloop
  endfacet
  facet normal 0.587786 -0.809016 0
    outer loop
      vertex 61.5438 8.05801 -0.75
      vertex 62.4438 8.7119 0.75
      vertex 61.5438 8.05801 0.75
    endloop
  endfacet
  facet normal 0 1 0
    outer loop
      vertex 62.4438 5.2881 -0.75
      vertex 62.4438 5.2881 0.75
      vertex 63.5562 5.2881 -0.75
    endloop
  endfacet
  facet normal 0 0 -1
    outer loop
      vertex 62.4438 5.2881 -0.75
      vertex 63.5562 5.2881 -0.75
      vertex 103 0 -0.75
    endloop
  endfacet
  facet normal -0 0 1
    outer loop
      vertex 62.4438 5.2881 0.75
      vertex 103 0 0.75
      vertex 63.5562 5.2881 0.75
    endloop
  endfacet
  facet normal 0 1 -0
    outer loop
      vertex 62.4438 5.2881 0.75
      vertex 63.5562 5.2881 0.75
      vertex 63.5562 5.2881 -0.75
    endloop
  endfacet
  facet normal 0 -1 -0
    outer loop
      vertex 62.4438 8.7119 -0.75
      vertex 63.5562 8.7119 -0.75
      vertex 63.5562 8.7119 0.75
    endloop
  endfacet
  facet normal 0 -1 0
    outer loop
      vertex 62.4438 8.7119 -0.75
      vertex 63.5562 8.7119 0.75
      vertex 62.4438 8.7119 0.75
    endloop
  endfacet
  facet normal -0.587786 0.809016 0
    outer loop
      vertex 63.5562 5.2881 -0.75
      vertex 63.5562 5.2881 0.75
      vertex 64.4562 5.94199 -0.75
    endloop
  endfacet
  facet normal 0 0 -1
    outer loop
      vertex 63.5562 5.2881 -0.75
      vertex 64.4562 5.94199 -0.75
      vertex 103 0 -0.75
    endloop
  endfacet
  facet normal -0 0 1
    outer loop
      vertex 63.5562 5.2881 0.75
      vertex 103 0 0.75
      vertex 64.4562 5.94199 0.75
    endloop
  endfacet
  facet normal -0.587786 0.809016 0
    outer loop
      vertex 63.5562 5.2881 0.75
      vertex 64.4562 5.94199 0.75
      vertex 64.4562 5.94199 -0.75
    endloop
  endfacet
  facet normal -0.587786 -0.809016 -0
    outer loop
      vertex 63.5562 8.7119 -0.75
      vertex 64.4562 8.05801 -0.75
      vertex 64.4562 8.05801 0.75
    endloop
  endfacet
  facet normal -0.587786 -0.809016 0
    outer loop
      vertex 63.5562 8.7119 -0.75
      vertex 64.4562 8.05801 0.75
      vertex 63.5562 8.7119 0.75
    endloop
  endfacet
  facet normal -0 0 -1
    outer loop
      vertex 63.5562 8.7119 -0.75
      vertex 81.2 23 -0.75
      vertex 81.5438 21.942 -0.75
    endloop
  endfacet
  facet normal 0 0 -1
    outer loop
      vertex 63.5562 8.7119 -0.75
      vertex 81.5438 21.942 -0.75
      vertex 64.4562 8.05801 -0.75
    endloop
  endfacet
  facet normal 0 0 1
    outer loop
      vertex 63.5562 8.7119 0.75
      vertex 64.4562 8.05801 0.75
      vertex 81.2 23 0.75
    endloop
  endfacet
  facet normal 0 0 -1
    outer loop
      vertex 64.4562 5.94199 -0.75
      vertex 101.2 7 -0.75
      vertex 101.544 5.94199 -0.75
    endloop
  endfacet
  facet normal 0 0 -1
    outer loop
      vertex 64.4562 5.94199 -0.75
      vertex 101.544 5.94199 -0.75
      vertex 103 0 -0.75
    endloop
  endfacet
  facet normal -0.951048 0.309043 0
    outer loop
      vertex 64.4562 5.94199 -0.75
      vertex 64.4562 5.94199 0.75
      vertex 64.8 7 0.75
    endloop
  endfacet
  facet normal -0 0 -1
    outer loop
      vertex 64.4562 5.94199 -0.75
      vertex 64.8 7 -0.75
      vertex 101.2 7 -0.75
    endloop
  endfacet
  facet normal -0.951048 0.309043 0
    outer loop
      vertex 64.4562 5.94199 -0.75
      vertex 64.8 7 0.75
      vertex 64.8 7 -0.75
    endloop
  endfacet
  facet normal 0 0 1
    outer loop
      vertex 64.4562 5.94199 0.75
      vertex 101.2 7 0.75
      vertex 64.8 7 0.75
    endloop
  endfacet
  facet normal 0 0 1
    outer loop
      vertex 64.4562 5.94199 0.75
      vertex 101.544 5.94199 0.75
      vertex 101.2 7 0.75
    endloop
  endfacet
  facet normal 0 0 1
    outer loop
      vertex 64.4562 5.94199 0.75
      vertex 103 0 0.75
      vertex 101.544 5.94199 0.75
    endloop
  endfacet
  facet normal -0.951048 -0.309043 0
    outer loop
      vertex 64.4562 8.05801 -0.75
      vertex 64.8 7 -0.75
      vertex 64.4562 8.05801 0.75
    endloop
  endfacet
  facet normal -0 0 -1
    outer loop
      vertex 64.4562 8.05801 -0.75
      vertex 81.5438 21.942 -0.75
      vertex 82.4438 21.2881 -0.75
    endloop
  endfacet
  facet normal 0 0 -1
    outer loop
      vertex 64.4562 8.05801 -0.75
      vertex 82.4438 21.2881 -0.75
      vertex 64.8 7 -0.75
    endloop
  endfacet
  facet normal -0.951048 -0.309043 0
    outer loop
      vertex 64.4562 8.05801 0.75
      vertex 64.8 7 -0.75
      vertex 64.8 7 0.75
    endloop
  endfacet
  facet normal 0 0 1
    outer loop
      vertex 64.4562 8.05801 0.75
      vertex 64.8 7 0.75
      vertex 81.2 23 0.75
    endloop
  endfacet
  facet normal -0 0 -1
    outer loop
      vertex 64.8 7 -0.75
      vertex 82.4438 21.2881 -0.75
      vertex 83.5562 21.2881 -0.75
    endloop
  endfacet
  facet normal 0 0 -1
    outer loop
      vertex 64.8 7 -0.75
      vertex 83.5562 21.2881 -0.75
      vertex 101.2 7 -0.75
    endloop
  endfacet
  facet normal 0 0 1
    outer loop
      vertex 64.8 7 0.75
      vertex 101.2 7 0.75
      vertex 83.5562 21.2881 0.75
    endloop
  endfacet
  facet normal 0 0 1
    outer loop
      vertex 64.8 7 0.75
      vertex 81.5438 21.942 0.75
      vertex 81.2 23 0.75
    endloop
  endfacet
  facet normal 0 0 1
    outer loop
      vertex 64.8 7 0.75
      vertex 82.4438 21.2881 0.75
      vertex 81.5438 21.942 0.75
    endloop
  endfacet
  facet normal 0 0 1
    outer loop
      vertex 64.8 7 0.75
      vertex 83.5562 21.2881 0.75
      vertex 82.4438 21.2881 0.75
    endloop
  endfacet
  facet normal 0 -1 -0
    outer loop
      vertex 7 0 -0.75
      vertex 103 0 -0.75
      vertex 103 0 0.75
    endloop
  endfacet
  facet normal 0 -1 0
    outer loop
      vertex 7 0 -0.75
      vertex 103 0 0.75
      vertex 7 0 0.75
    endloop
  endfacet
  facet normal 0 0 -1
    outer loop
      vertex 7 0 -0.75
      vertex 21.5438 5.94199 -0.75
      vertex 22.4438 5.2881 -0.75
    endloop
  endfacet
  facet normal -0 0 -1
    outer loop
      vertex 7 0 -0.75
      vertex 22.4438 5.2881 -0.75
      vertex 23.5562 5.2881 -0.75
    endloop
  endfacet
  facet normal -0 0 -1
    outer loop
      vertex 7 0 -0.75
      vertex 23.5562 5.2881 -0.75
      vertex 62.4438 5.2881 -0.75
    endloop
  endfacet
  facet normal 0 0 -1
    outer loop
      vertex 7 0 -0.75
      vertex 62.4438 5.2881 -0.75
      vertex 103 0 -0.75
    endloop
  endfacet
  facet normal 0 0 -1
    outer loop
      vertex 7 0 -0.75
      vertex 7.69529 4.86012 -0.75
      vertex 8.82029 5.67748 -0.75
    endloop
  endfacet
  facet normal 0 0 -1
    outer loop
      vertex 7 0 -0.75
      vertex 8.82029 5.67748 -0.75
      vertex 21.5438 5.94199 -0.75
    endloop
  endfacet
  facet normal 0 0 1
    outer loop
      vertex 7 0 0.75
      vertex 103 0 0.75
      vertex 62.4438 5.2881 0.75
    endloop
  endfacet
  facet normal 0 0 1
    outer loop
      vertex 7 0 0.75
      vertex 21.5438 5.94199 0.75
      vertex 8.82029 5.67748 0.75
    endloop
  endfacet
  facet normal 0 0 1
    outer loop
      vertex 7 0 0.75
      vertex 22.4438 5.2881 0.75
      vertex 21.5438 5.94199 0.75
    endloop
  endfacet
  facet normal 0 0 1
    outer loop
      vertex 7 0 0.75
      vertex 23.5562 5.2881 0.75
      vertex 22.4438 5.2881 0.75
    endloop
  endfacet
  facet normal 0 0 1
    outer loop
      vertex 7 0 0.75
      vertex 62.4438 5.2881 0.75
      vertex 23.5562 5.2881 0.75
    endloop
  endfacet
  facet normal 0 0 1
    outer loop
      vertex 7 0 0.75
      vertex 8.82029 5.67748 0.75
      vertex 7.69529 4.86012 0.75
    endloop
  endfacet
  facet normal 0 0 -1
    outer loop
      vertex 7 34 -0.75
      vertex 103 34 -0.75
      vertex 43.5562 26.7119 -0.75
    endloop
  endfacet
  facet normal 0 0 -1
    outer loop
      vertex 7 34 -0.75
      vertex 41.5438 26.058 -0.75
      vertex 8.82029 28.3225 -0.75
    endloop
  endfacet
  facet normal 0 0 -1
    outer loop
      vertex 7 34 -0.75
      vertex 42.4438 26.7119 -0.75
      vertex 41.5438 26.058 -0.75
    endloop
  endfacet
  facet normal 0 0 -1
    outer loop
      vertex 7 34 -0.75
      vertex 43.5562 26.7119 -0.75
      vertex 42.4438 26.7119 -0.75
    endloop
  endfacet
  facet normal 0 1 0
    outer loop
      vertex 7 34 -0.75
      vertex 7 34 0.75
      vertex 103 34 -0.75
    endloop
  endfacet
  facet normal 0 0 -1
    outer loop
      vertex 7 34 -0.75
      vertex 8.82029 28.3225 -0.75
      vertex 7.69529 29.1399 -0.75
    endloop
  endfacet
  facet normal 0 1 -0
    outer loop
      vertex 7 34 0.75
      vertex 103 34 0.75
      vertex 103 34 -0.75
    endloop
  endfacet
  facet normal 0 0 1
    outer loop
      vertex 7 34 0.75
      vertex 41.5438 26.058 0.75
      vertex 42.4438 26.7119 0.75
    endloop
  endfacet
  facet normal 0 0 1
    outer loop
      vertex 7 34 0.75
      vertex 42.4438 26.7119 0.75
      vertex 43.5562 26.7119 0.75
    endloop
  endfacet
  facet normal -0 0 1
    outer loop
      vertex 7 34 0.75
      vertex 43.5562 26.7119 0.75
      vertex 103 34 0.75
    endloop
  endfacet
  facet normal 0 0 1
    outer loop
      vertex 7 34 0.75
      vertex 7.69529 29.1399 0.75
      vertex 8.82029 28.3225 0.75
    endloop
  endfacet
  facet normal 0 0 1
    outer loop
      vertex 7 34 0.75
      vertex 8.82029 28.3225 0.75
      vertex 41.5438 26.058 0.75
    endloop
  endfacet
  facet normal -0.587804 0.809003 0
    outer loop
      vertex 7.69529 24.8601 -0.75
      vertex 7.69529 24.8601 0.75
      vertex 8.82029 25.6775 -0.75
    endloop
  endfacet
  facet normal -0.587804 0.809003 0
    outer loop
      vertex 7.69529 24.8601 0.75
      vertex 8.82029 25.6775 0.75
      vertex 8.82029 25.6775 -0.75
    endloop
  endfacet
  facet normal -0 0 1
    outer loop
      vertex 7.69529 24.8601 0.75
      vertex 8.82029 8.32252 0.75
      vertex 8.82029 25.6775 0.75
    endloop
  endfacet
  facet normal -0.587804 -0.809003 -0
    outer loop
      vertex 7.69529 29.1399 -0.75
      vertex 8.82029 28.3225 -0.75
      vertex 8.82029 28.3225 0.75
    endloop
  endfacet
  facet normal -0.587804 -0.809003 0
    outer loop
      vertex 7.69529 29.1399 -0.75
      vertex 8.82029 28.3225 0.75
      vertex 7.69529 29.1399 0.75
    endloop
  endfacet
  facet normal -0.587785 0.809017 0
    outer loop
      vertex 7.69529 4.86012 -0.75
      vertex 7.69529 4.86012 0.75
      vertex 8.82029 5.67748 -0.75
    endloop
  endfacet
  facet normal -0.587785 0.809017 0
    outer loop
      vertex 7.69529 4.86012 0.75
      vertex 8.82029 5.67748 0.75
      vertex 8.82029 5.67748 -0.75
    endloop
  endfacet
  facet normal 0 0 -1
    outer loop
      vertex 7.69529 9.13988 -0.75
      vertex 7.69529 24.8601 -0.75
      vertex 8.82029 25.6775 -0.75
    endloop
  endfacet
  facet normal 0 0 -1
    outer loop
      vertex 7.69529 9.13988 -0.75
      vertex 8.82029 25.6775 -0.75
      vertex 8.82029 8.32252 -0.75
    endloop
  endfacet
  facet normal -0.587785 -0.809017 -0
    outer loop
      vertex 7.69529 9.13988 -0.75
      vertex 8.82029 8.32252 -0.75
      vertex 8.82029 8.32252 0.75
    endloop
  endfacet
  facet normal -0.587785 -0.809017 0
    outer loop
      vertex 7.69529 9.13988 -0.75
      vertex 8.82029 8.32252 0.75
      vertex 7.69529 9.13988 0.75
    endloop
  endfacet
  facet normal 0 0 1
    outer loop
      vertex 7.69529 9.13988 0.75
      vertex 8.82029 8.32252 0.75
      vertex 7.69529 24.8601 0.75
    endloop
  endfacet
  facet normal -0.951056 0.309019 0
    outer loop
      vertex 8.82029 25.6775 -0.75
      vertex 8.82029 25.6775 0.75
      vertex 9.25 27 0.75
    endloop
  endfacet
  facet normal 0 0 -1
    outer loop
      vertex 8.82029 25.6775 -0.75
      vertex 9.25 27 -0.75
      vertex 21.5438 8.05801 -0.75
    endloop
  endfacet
  facet normal -0.951056 0.309019 0
    outer loop
      vertex 8.82029 25.6775 -0.75
      vertex 9.25 27 0.75
      vertex 9.25 27 -0.75
    endloop
  endfacet
  facet normal 0 0 1
    outer loop
      vertex 8.82029 25.6775 0.75
      vertex 21.5438 8.05801 0.75
      vertex 22.4438 8.7119 0.75
    endloop
  endfacet
  facet normal -0 0 1
    outer loop
      vertex 8.82029 25.6775 0.75
      vertex 22.4438 8.7119 0.75
      vertex 9.25 27 0.75
    endloop
  endfacet
  facet normal 0 0 -1
    outer loop
      vertex 8.82029 28.3225 -0.75
      vertex 41.5438 26.058 -0.75
      vertex 9.25 27 -0.75
    endloop
  endfacet
  facet normal -0.951056 -0.309019 0
    outer loop
      vertex 8.82029 28.3225 -0.75
      vertex 9.25 27 -0.75
      vertex 8.82029 28.3225 0.75
    endloop
  endfacet
  facet normal -0.951056 -0.309019 0
    outer loop
      vertex 8.82029 28.3225 0.75
      vertex 9.25 27 -0.75
      vertex 9.25 27 0.75
    endloop
  endfacet
  facet normal 0 0 1
    outer loop
      vertex 8.82029 28.3225 0.75
      vertex 9.25 27 0.75
      vertex 41.5438 26.058 0.75
    endloop
  endfacet
  facet normal -0.951057 0.309015 0
    outer loop
      vertex 8.82029 5.67748 -0.75
      vertex 8.82029 5.67748 0.75
      vertex 9.25 7 0.75
    endloop
  endfacet
  facet normal -0 0 -1
    outer loop
      vertex 8.82029 5.67748 -0.75
      vertex 9.25 7 -0.75
      vertex 21.5438 5.94199 -0.75
    endloop
  endfacet
  facet normal -0.951057 0.309015 0
    outer loop
      vertex 8.82029 5.67748 -0.75
      vertex 9.25 7 0.75
      vertex 9.25 7 -0.75
    endloop
  endfacet
  facet normal 0 0 1
    outer loop
      vertex 8.82029 5.67748 0.75
      vertex 21.5438 5.94199 0.75
      vertex 9.25 7 0.75
    endloop
  endfacet
  facet normal 0 0 -1
    outer loop
      vertex 8.82029 8.32252 -0.75
      vertex 21.5438 8.05801 -0.75
      vertex 9.25 7 -0.75
    endloop
  endfacet
  facet normal 0 0 -1
    outer loop
      vertex 8.82029 8.32252 -0.75
      vertex 8.82029 25.6775 -0.75
      vertex 21.5438 8.05801 -0.75
    endloop
  endfacet
  facet normal -0.951057 -0.309015 0
    outer loop
      vertex 8.82029 8.32252 -0.75
      vertex 9.25 7 -0.75
      vertex 8.82029 8.32252 0.75
    endloop
  endfacet
  facet normal -0 0 1
    outer loop
      vertex 8.82029 8.32252 0.75
      vertex 21.5438 8.05801 0.75
      vertex 8.82029 25.6775 0.75
    endloop
  endfacet
  facet normal -0.951057 -0.309015 0
    outer loop
      vertex 8.82029 8.32252 0.75
      vertex 9.25 7 -0.75
      vertex 9.25 7 0.75
    endloop
  endfacet
  facet normal 0 0 1
    outer loop
      vertex 8.82029 8.32252 0.75
      vertex 9.25 7 0.75
      vertex 21.5438 8.05801 0.75
    endloop
  endfacet
  facet normal 0.951047 0.309045 0
    outer loop
      vertex 81.2 23 -0.75
      vertex 81.2 23 0.75
      vertex 81.5438 21.942 0.75
    endloop
  endfacet
  facet normal 0.951047 0.309045 0
    outer loop
      vertex 81.2 23 -0.75
      vertex 81.5438 21.942 0.75
      vertex 81.5438 21.942 -0.75
    endloop
  endfacet
  facet normal 0.951047 -0.309045 0
    outer loop
      vertex 81.2 23 -0.75
      vertex 81.5438 24.058 -0.75
      vertex 81.2 23 0.75
    endloop
  endfacet
  facet normal 0.951047 -0.309045 0
    outer loop
      vertex 81.2 23 0.75
      vertex 81.5438 24.058 -0.75
      vertex 81.5438 24.058 0.75
    endloop
  endfacet
  facet normal 0.587792 0.809012 0
    outer loop
      vertex 81.5438 21.942 -0.75
      vertex 81.5438 21.942 0.75
      vertex 82.4438 21.2881 -0.75
    endloop
  endfacet
  facet normal 0.587792 0.809012 -0
    outer loop
      vertex 81.5438 21.942 0.75
      vertex 82.4438 21.2881 0.75
      vertex 82.4438 21.2881 -0.75
    endloop
  endfacet
  facet normal 0.587792 -0.809012 0
    outer loop
      vertex 81.5438 24.058 -0.75
      vertex 82.4438 24.7119 -0.75
      vertex 82.4438 24.7119 0.75
    endloop
  endfacet
  facet normal 0.587792 -0.809012 0
    outer loop
      vertex 81.5438 24.058 -0.75
      vertex 82.4438 24.7119 0.75
      vertex 81.5438 24.058 0.75
    endloop
  endfacet
  facet normal 0 1 0
    outer loop
      vertex 82.4438 21.2881 -0.75
      vertex 82.4438 21.2881 0.75
      vertex 83.5562 21.2881 -0.75
    endloop
  endfacet
  facet normal 0 1 -0
    outer loop
      vertex 82.4438 21.2881 0.75
      vertex 83.5562 21.2881 0.75
      vertex 83.5562 21.2881 -0.75
    endloop
  endfacet
  facet normal 0 0 -1
    outer loop
      vertex 82.4438 24.7119 -0.75
      vertex 103 34 -0.75
      vertex 83.5562 24.7119 -0.75
    endloop
  endfacet
  facet normal 0 -1 -0
    outer loop
      vertex 82.4438 24.7119 -0.75
      vertex 83.5562 24.7119 -0.75
      vertex 83.5562 24.7119 0.75
    endloop
  endfacet
  facet normal 0 -1 0
    outer loop
      vertex 82.4438 24.7119 -0.75
      vertex 83.5562 24.7119 0.75
      vertex 82.4438 24.7119 0.75
    endloop
  endfacet
  facet normal 0 0 1
    outer loop
      vertex 82.4438 24.7119 0.75
      vertex 83.5562 24.7119 0.75
      vertex 103 34 0.75
    endloop
  endfacet
  facet normal -0.587792 0.809012 0
    outer loop
      vertex 83.5562 21.2881 -0.75
      vertex 83.5562 21.2881 0.75
      vertex 84.4562 21.942 -0.75
    endloop
  endfacet
  facet normal 0 0 -1
    outer loop
      vertex 83.5562 21.2881 -0.75
      vertex 84.4562 21.942 -0.75
      vertex 101.2 7 -0.75
    endloop
  endfacet
  facet normal 0 0 1
    outer loop
      vertex 83.5562 21.2881 0.75
      vertex 101.2 7 0.75
      vertex 101.544 8.05801 0.75
    endloop
  endfacet
  facet normal -0 0 1
    outer loop
      vertex 83.5562 21.2881 0.75
      vertex 101.544 8.05801 0.75
      vertex 84.4562 21.942 0.75
    endloop
  endfacet
  facet normal -0.587792 0.809012 0
    outer loop
      vertex 83.5562 21.2881 0.75
      vertex 84.4562 21.942 0.75
      vertex 84.4562 21.942 -0.75
    endloop
  endfacet
  facet normal 0 0 -1
    outer loop
      vertex 83.5562 24.7119 -0.75
      vertex 103 34 -0.75
      vertex 84.4562 24.058 -0.75
    endloop
  endfacet
  facet normal -0.587792 -0.809012 -0
    outer loop
      vertex 83.5562 24.7119 -0.75
      vertex 84.4562 24.058 -0.75
      vertex 84.4562 24.058 0.75
    endloop
  endfacet
  facet normal -0.587792 -0.809012 0
    outer loop
      vertex 83.5562 24.7119 -0.75
      vertex 84.4562 24.058 0.75
      vertex 83.5562 24.7119 0.75
    endloop
  endfacet
  facet normal 0 0 1
    outer loop
      vertex 83.5562 24.7119 0.75
      vertex 84.4562 24.058 0.75
      vertex 103 34 0.75
    endloop
  endfacet
  facet normal -0.951047 0.309045 0
    outer loop
      vertex 84.4562 21.942 -0.75
      vertex 84.4562 21.942 0.75
      vertex 84.8 23 0.75
    endloop
  endfacet
  facet normal 0 0 -1
    outer loop
      vertex 84.4562 21.942 -0.75
      vertex 84.8 23 -0.75
      vertex 101.2 7 -0.75
    endloop
  endfacet
  facet normal -0.951047 0.309045 0
    outer loop
      vertex 84.4562 21.942 -0.75
      vertex 84.8 23 0.75
      vertex 84.8 23 -0.75
    endloop
  endfacet
  facet normal 0 0 1
    outer loop
      vertex 84.4562 21.942 0.75
      vertex 101.544 8.05801 0.75
      vertex 102.444 8.7119 0.75
    endloop
  endfacet
  facet normal -0 0 1
    outer loop
      vertex 84.4562 21.942 0.75
      vertex 102.444 8.7119 0.75
      vertex 84.8 23 0.75
    endloop
  endfacet
  facet normal 0 0 -1
    outer loop
      vertex 84.4562 24.058 -0.75
      vertex 103 34 -0.75
      vertex 84.8 23 -0.75
    endloop
  endfacet
  facet normal -0.951047 -0.309045 0
    outer loop
      vertex 84.4562 24.058 -0.75
      vertex 84.8 23 -0.75
      vertex 84.4562 24.058 0.75
    endloop
  endfacet
  facet normal -0.951047 -0.309045 0
    outer loop
      vertex 84.4562 24.058 0.75
      vertex 84.8 23 -0.75
      vertex 84.8 23 0.75
    endloop
  endfacet
  facet normal 0 0 1
    outer loop
      vertex 84.4562 24.058 0.75
      vertex 84.8 23 0.75
      vertex 103 34 0.75
    endloop
  endfacet
  facet normal 0 0 -1
    outer loop
      vertex 84.8 23 -0.75
      vertex 101.544 8.05801 -0.75
      vertex 101.2 7 -0.75
    endloop
  endfacet
  facet normal 0 0 -1
    outer loop
      vertex 84.8 23 -0.75
      vertex 102.444 8.7119 -0.75
      vertex 101.544 8.05801 -0.75
    endloop
  endfacet
  facet normal -0 0 -1
    outer loop
      vertex 84.8 23 -0.75
      vertex 103 34 -0.75
      vertex 110 27 -0.75
    endloop
  endfacet
  facet normal 0 0 -1
    outer loop
      vertex 84.8 23 -0.75
      vertex 110 27 -0.75
      vertex 102.444 8.7119 -0.75
    endloop
  endfacet
  facet normal 0 0 1
    outer loop
      vertex 84.8 23 0.75
      vertex 102.444 8.7119 0.75
      vertex 110 27 0.75
    endloop
  endfacet
  facet normal 0 0 1
    outer loop
      vertex 84.8 23 0.75
      vertex 110 27 0.75
      vertex 103 34 0.75
    endloop
  endfacet
  facet normal 0 0 -1
    outer loop
      vertex 9.25 27 -0.75
      vertex 22.4438 8.7119 -0.75
      vertex 21.5438 8.05801 -0.75
    endloop
  endfacet
  facet normal 0 0 -1
    outer loop
      vertex 9.25 27 -0.75
      vertex 23.5562 8.7119 -0.75
      vertex 22.4438 8.7119 -0.75
    endloop
  endfacet
  facet normal 0 0 -1
    outer loop
      vertex 9.25 27 -0.75
      vertex 41.2 25 -0.75
      vertex 23.5562 8.7119 -0.75
    endloop
  endfacet
  facet normal 0 0 -1
    outer loop
      vertex 9.25 27 -0.75
      vertex 41.5438 26.058 -0.75
      vertex 41.2 25 -0.75
    endloop
  endfacet
  facet normal 0 0 1
    outer loop
      vertex 9.25 27 0.75
      vertex 22.4438 8.7119 0.75
      vertex 23.5562 8.7119 0.75
    endloop
  endfacet
  facet normal 0 0 1
    outer loop
      vertex 9.25 27 0.75
      vertex 23.5562 8.7119 0.75
      vertex 41.2 25 0.75
    endloop
  endfacet
  facet normal 0 0 1
    outer loop
      vertex 9.25 27 0.75
      vertex 41.2 25 0.75
      vertex 41.5438 26.058 0.75
    endloop
  endfacet
  facet normal 0 0 -1
    outer loop
      vertex 9.25 7 -0.75
      vertex 21.2 7 -0.75
      vertex 21.5438 5.94199 -0.75
    endloop
  endfacet
  facet normal 0 0 -1
    outer loop
      vertex 9.25 7 -0.75
      vertex 21.5438 8.05801 -0.75
      vertex 21.2 7 -0.75
    endloop
  endfacet
  facet normal 0 0 1
    outer loop
      vertex 9.25 7 0.75
      vertex 21.2 7 0.75
      vertex 21.5438 8.05801 0.75
    endloop
  endfacet
  facet normal 0 0 1
    outer loop
      vertex 9.25 7 0.75
      vertex 21.5438 5.94199 0.75
      vertex 21.2 7 0.75
    endloop
  endfacet
endsolid model
