solid OpenSCAD_Model
  facet normal -1 0 0
    outer loop
      vertex -19 19.05 0
      vertex -19 1.59123 19.1672
      vertex -19 19.05 38
    endloop
  endfacet
  facet normal -1 0 0
    outer loop
      vertex -19 19.05 0
      vertex -19 1.52169 18.5056
      vertex -19 1.59123 19.1672
    endloop
  endfacet
  facet normal -1 0 0
    outer loop
      vertex -19 19.05 0
      vertex -19 1.18903 17.9294
      vertex -19 1.52169 18.5056
    endloop
  endfacet
  facet normal -1 0 0
    outer loop
      vertex -19 19.05 0
      vertex -19 0.650778 17.5383
      vertex -19 1.18903 17.9294
    endloop
  endfacet
  facet normal -1 0 0
    outer loop
      vertex -19 19.05 0
      vertex -19 0 17.4
      vertex -19 0.650778 17.5383
    endloop
  endfacet
  facet normal -1 0 0
    outer loop
      vertex -19 -19.05 0
      vertex -19 0 17.4
      vertex -19 19.05 0
    endloop
  endfacet
  facet normal -1 -0 0
    outer loop
      vertex -19 0 17.4
      vertex -19 -19.05 0
      vertex -19 -0.650778 17.5383
    endloop
  endfacet
  facet normal -1 -0 0
    outer loop
      vertex -19 -1.52169 18.5056
      vertex -19 -19.05 0
      vertex -19 -1.59123 19.1672
    endloop
  endfacet
  facet normal -1 -0 0
    outer loop
      vertex -19 -1.18903 17.9294
      vertex -19 -19.05 0
      vertex -19 -1.52169 18.5056
    endloop
  endfacet
  facet normal -1 -0 0
    outer loop
      vertex -19 -0.650778 17.5383
      vertex -19 -19.05 0
      vertex -19 -1.18903 17.9294
    endloop
  endfacet
  facet normal -1 0 0
    outer loop
      vertex -19 1.38564 19.8
      vertex -19 19.05 38
      vertex -19 1.59123 19.1672
    endloop
  endfacet
  facet normal -1 0 0
    outer loop
      vertex -19 0.940456 20.2944
      vertex -19 19.05 38
      vertex -19 1.38564 19.8
    endloop
  endfacet
  facet normal -1 0 0
    outer loop
      vertex -19 0.332658 20.565
      vertex -19 19.05 38
      vertex -19 0.940456 20.2944
    endloop
  endfacet
  facet normal -1 0 0
    outer loop
      vertex -19 -0.332658 20.565
      vertex -19 19.05 38
      vertex -19 0.332658 20.565
    endloop
  endfacet
  facet normal -1 0 0
    outer loop
      vertex -19 -19.05 38
      vertex -19 -0.332658 20.565
      vertex -19 -0.940456 20.2944
    endloop
  endfacet
  facet normal -1 0 0
    outer loop
      vertex -19 -19.05 38
      vertex -19 -1.59123 19.1672
      vertex -19 -19.05 0
    endloop
  endfacet
  facet normal -1 0 0
    outer loop
      vertex -19 -0.332658 20.565
      vertex -19 -19.05 38
      vertex -19 19.05 38
    endloop
  endfacet
  facet normal -1 0 0
    outer loop
      vertex -19 -1.38564 19.8
      vertex -19 -19.05 38
      vertex -19 -0.940456 20.2944
    endloop
  endfacet
  facet normal -1 0 0
    outer loop
      vertex -19 -1.59123 19.1672
      vertex -19 -19.05 38
      vertex -19 -1.38564 19.8
    endloop
  endfacet
  facet normal 0 0 1
    outer loop
      vertex 19 19.05 38
      vertex 12.7 0 38
      vertex 19 -19.05 38
    endloop
  endfacet
  facet normal 0 0 1
    outer loop
      vertex 19 19.05 38
      vertex 12.5999 1.59173 38
      vertex 12.7 0 38
    endloop
  endfacet
  facet normal 0 0 1
    outer loop
      vertex 19 19.05 38
      vertex 12.301 3.15836 38
      vertex 12.5999 1.59173 38
    endloop
  endfacet
  facet normal 0 0 1
    outer loop
      vertex 19 19.05 38
      vertex 11.8082 4.67518 38
      vertex 12.301 3.15836 38
    endloop
  endfacet
  facet normal 0 0 1
    outer loop
      vertex 19 19.05 38
      vertex 11.1291 6.11827 38
      vertex 11.8082 4.67518 38
    endloop
  endfacet
  facet normal 0 0 1
    outer loop
      vertex 19 19.05 38
      vertex 10.2745 7.46487 38
      vertex 11.1291 6.11827 38
    endloop
  endfacet
  facet normal 0 0 1
    outer loop
      vertex 19 19.05 38
      vertex 9.2579 8.69375 38
      vertex 10.2745 7.46487 38
    endloop
  endfacet
  facet normal 0 0 1
    outer loop
      vertex 19 19.05 38
      vertex 8.09528 9.78552 38
      vertex 9.2579 8.69375 38
    endloop
  endfacet
  facet normal 0 0 1
    outer loop
      vertex 19 19.05 38
      vertex 6.805 10.723 38
      vertex 8.09528 9.78552 38
    endloop
  endfacet
  facet normal 0 0 1
    outer loop
      vertex 19 19.05 38
      vertex 5.4074 11.4913 38
      vertex 6.805 10.723 38
    endloop
  endfacet
  facet normal 0 0 1
    outer loop
      vertex 19 19.05 38
      vertex 3.92452 12.0784 38
      vertex 5.4074 11.4913 38
    endloop
  endfacet
  facet normal 0 0 1
    outer loop
      vertex 19 19.05 38
      vertex 2.37974 12.475 38
      vertex 3.92452 12.0784 38
    endloop
  endfacet
  facet normal 0 0 1
    outer loop
      vertex 19 19.05 38
      vertex 0.79744 12.6749 38
      vertex 2.37974 12.475 38
    endloop
  endfacet
  facet normal 0 0 1
    outer loop
      vertex 19 19.05 38
      vertex -0.79744 12.6749 38
      vertex 0.79744 12.6749 38
    endloop
  endfacet
  facet normal -0 0 1
    outer loop
      vertex -19 19.05 38
      vertex -0.79744 12.6749 38
      vertex 19 19.05 38
    endloop
  endfacet
  facet normal 0 0 1
    outer loop
      vertex -0.79744 12.6749 38
      vertex -19 19.05 38
      vertex -2.37974 12.475 38
    endloop
  endfacet
  facet normal 0 0 1
    outer loop
      vertex -12.5999 1.59173 38
      vertex -19 19.05 38
      vertex -12.7 0 38
    endloop
  endfacet
  facet normal 0 0 1
    outer loop
      vertex -12.301 3.15836 38
      vertex -19 19.05 38
      vertex -12.5999 1.59173 38
    endloop
  endfacet
  facet normal 0 0 1
    outer loop
      vertex -11.8082 4.67518 38
      vertex -19 19.05 38
      vertex -12.301 3.15836 38
    endloop
  endfacet
  facet normal 0 0 1
    outer loop
      vertex -11.1291 6.11827 38
      vertex -19 19.05 38
      vertex -11.8082 4.67518 38
    endloop
  endfacet
  facet normal 0 0 1
    outer loop
      vertex -10.2745 7.46487 38
      vertex -19 19.05 38
      vertex -11.1291 6.11827 38
    endloop
  endfacet
  facet normal 0 0 1
    outer loop
      vertex -9.2579 8.69375 38
      vertex -19 19.05 38
      vertex -10.2745 7.46487 38
    endloop
  endfacet
  facet normal 0 0 1
    outer loop
      vertex -8.09528 9.78552 38
      vertex -19 19.05 38
      vertex -9.2579 8.69375 38
    endloop
  endfacet
  facet normal 0 0 1
    outer loop
      vertex -6.805 10.723 38
      vertex -19 19.05 38
      vertex -8.09528 9.78552 38
    endloop
  endfacet
  facet normal 0 0 1
    outer loop
      vertex -5.4074 11.4913 38
      vertex -19 19.05 38
      vertex -6.805 10.723 38
    endloop
  endfacet
  facet normal 0 0 1
    outer loop
      vertex -3.92452 12.0784 38
      vertex -19 19.05 38
      vertex -5.4074 11.4913 38
    endloop
  endfacet
  facet normal 0 0 1
    outer loop
      vertex -2.37974 12.475 38
      vertex -19 19.05 38
      vertex -3.92452 12.0784 38
    endloop
  endfacet
  facet normal -0 0 1
    outer loop
      vertex 12.5999 -1.59173 38
      vertex 19 -19.05 38
      vertex 12.7 0 38
    endloop
  endfacet
  facet normal -0 0 1
    outer loop
      vertex 12.301 -3.15836 38
      vertex 19 -19.05 38
      vertex 12.5999 -1.59173 38
    endloop
  endfacet
  facet normal -0 0 1
    outer loop
      vertex 11.8082 -4.67518 38
      vertex 19 -19.05 38
      vertex 12.301 -3.15836 38
    endloop
  endfacet
  facet normal -0 0 1
    outer loop
      vertex 11.1291 -6.11827 38
      vertex 19 -19.05 38
      vertex 11.8082 -4.67518 38
    endloop
  endfacet
  facet normal -0 0 1
    outer loop
      vertex 10.2745 -7.46487 38
      vertex 19 -19.05 38
      vertex 11.1291 -6.11827 38
    endloop
  endfacet
  facet normal -0 0 1
    outer loop
      vertex 9.2579 -8.69375 38
      vertex 19 -19.05 38
      vertex 10.2745 -7.46487 38
    endloop
  endfacet
  facet normal -0 0 1
    outer loop
      vertex 8.09528 -9.78552 38
      vertex 19 -19.05 38
      vertex 9.2579 -8.69375 38
    endloop
  endfacet
  facet normal -0 0 1
    outer loop
      vertex 6.805 -10.723 38
      vertex 19 -19.05 38
      vertex 8.09528 -9.78552 38
    endloop
  endfacet
  facet normal -0 0 1
    outer loop
      vertex 5.4074 -11.4913 38
      vertex 19 -19.05 38
      vertex 6.805 -10.723 38
    endloop
  endfacet
  facet normal -0 0 1
    outer loop
      vertex 3.92452 -12.0784 38
      vertex 19 -19.05 38
      vertex 5.4074 -11.4913 38
    endloop
  endfacet
  facet normal -0 0 1
    outer loop
      vertex 2.37974 -12.475 38
      vertex 19 -19.05 38
      vertex 3.92452 -12.0784 38
    endloop
  endfacet
  facet normal -0 0 1
    outer loop
      vertex 0.79744 -12.6749 38
      vertex 19 -19.05 38
      vertex 2.37974 -12.475 38
    endloop
  endfacet
  facet normal -0 0 1
    outer loop
      vertex -0.79744 -12.6749 38
      vertex 19 -19.05 38
      vertex 0.79744 -12.6749 38
    endloop
  endfacet
  facet normal 0 0 1
    outer loop
      vertex -19 -19.05 38
      vertex -0.79744 -12.6749 38
      vertex -2.37974 -12.475 38
    endloop
  endfacet
  facet normal 0 0 1
    outer loop
      vertex -19 -19.05 38
      vertex -2.37974 -12.475 38
      vertex -3.92452 -12.0784 38
    endloop
  endfacet
  facet normal 0 0 1
    outer loop
      vertex -19 -19.05 38
      vertex -12.7 0 38
      vertex -19 19.05 38
    endloop
  endfacet
  facet normal 0 0 1
    outer loop
      vertex -12.7 0 38
      vertex -19 -19.05 38
      vertex -12.5999 -1.59173 38
    endloop
  endfacet
  facet normal 0 0 1
    outer loop
      vertex -0.79744 -12.6749 38
      vertex -19 -19.05 38
      vertex 19 -19.05 38
    endloop
  endfacet
  facet normal 0 0 1
    outer loop
      vertex -5.4074 -11.4913 38
      vertex -19 -19.05 38
      vertex -3.92452 -12.0784 38
    endloop
  endfacet
  facet normal 0 0 1
    outer loop
      vertex -6.805 -10.723 38
      vertex -19 -19.05 38
      vertex -5.4074 -11.4913 38
    endloop
  endfacet
  facet normal 0 0 1
    outer loop
      vertex -8.09528 -9.78552 38
      vertex -19 -19.05 38
      vertex -6.805 -10.723 38
    endloop
  endfacet
  facet normal 0 0 1
    outer loop
      vertex -9.2579 -8.69375 38
      vertex -19 -19.05 38
      vertex -8.09528 -9.78552 38
    endloop
  endfacet
  facet normal 0 0 1
    outer loop
      vertex -10.2745 -7.46487 38
      vertex -19 -19.05 38
      vertex -9.2579 -8.69375 38
    endloop
  endfacet
  facet normal 0 0 1
    outer loop
      vertex -11.1291 -6.11827 38
      vertex -19 -19.05 38
      vertex -10.2745 -7.46487 38
    endloop
  endfacet
  facet normal 0 0 1
    outer loop
      vertex -11.8082 -4.67518 38
      vertex -19 -19.05 38
      vertex -11.1291 -6.11827 38
    endloop
  endfacet
  facet normal 0 0 1
    outer loop
      vertex -12.301 -3.15836 38
      vertex -19 -19.05 38
      vertex -11.8082 -4.67518 38
    endloop
  endfacet
  facet normal 0 0 1
    outer loop
      vertex -12.5999 -1.59173 38
      vertex -19 -19.05 38
      vertex -12.301 -3.15836 38
    endloop
  endfacet
  facet normal 1 0 0
    outer loop
      vertex 19 19.05 38
      vertex 19 1.59123 19.1672
      vertex 19 19.05 0
    endloop
  endfacet
  facet normal 1 0 0
    outer loop
      vertex 19 19.05 38
      vertex 19 1.38564 19.8
      vertex 19 1.59123 19.1672
    endloop
  endfacet
  facet normal 1 0 0
    outer loop
      vertex 19 19.05 38
      vertex 19 0.940456 20.2944
      vertex 19 1.38564 19.8
    endloop
  endfacet
  facet normal 1 0 0
    outer loop
      vertex 19 19.05 38
      vertex 19 0.332658 20.565
      vertex 19 0.940456 20.2944
    endloop
  endfacet
  facet normal 1 0 0
    outer loop
      vertex 19 19.05 38
      vertex 19 -0.332658 20.565
      vertex 19 0.332658 20.565
    endloop
  endfacet
  facet normal 1 -0 0
    outer loop
      vertex 19 -19.05 38
      vertex 19 -0.332658 20.565
      vertex 19 19.05 38
    endloop
  endfacet
  facet normal 1 0 0
    outer loop
      vertex 19 -1.38564 19.8
      vertex 19 -19.05 38
      vertex 19 -1.59123 19.1672
    endloop
  endfacet
  facet normal 1 0 0
    outer loop
      vertex 19 -0.940456 20.2944
      vertex 19 -19.05 38
      vertex 19 -1.38564 19.8
    endloop
  endfacet
  facet normal 1 0 0
    outer loop
      vertex 19 -0.332658 20.565
      vertex 19 -19.05 38
      vertex 19 -0.940456 20.2944
    endloop
  endfacet
  facet normal 1 -0 0
    outer loop
      vertex 19 1.52169 18.5056
      vertex 19 19.05 0
      vertex 19 1.59123 19.1672
    endloop
  endfacet
  facet normal 1 -0 0
    outer loop
      vertex 19 1.18903 17.9294
      vertex 19 19.05 0
      vertex 19 1.52169 18.5056
    endloop
  endfacet
  facet normal 1 -0 0
    outer loop
      vertex 19 0.650778 17.5383
      vertex 19 19.05 0
      vertex 19 1.18903 17.9294
    endloop
  endfacet
  facet normal 1 -0 0
    outer loop
      vertex 19 0 17.4
      vertex 19 19.05 0
      vertex 19 0.650778 17.5383
    endloop
  endfacet
  facet normal 1 0 0
    outer loop
      vertex 19 -19.05 0
      vertex 19 0 17.4
      vertex 19 -0.650778 17.5383
    endloop
  endfacet
  facet normal 1 0 0
    outer loop
      vertex 19 -19.05 0
      vertex 19 -0.650778 17.5383
      vertex 19 -1.18903 17.9294
    endloop
  endfacet
  facet normal 1 0 0
    outer loop
      vertex 19 -19.05 0
      vertex 19 -1.59123 19.1672
      vertex 19 -19.05 38
    endloop
  endfacet
  facet normal 1 0 0
    outer loop
      vertex 19 -1.59123 19.1672
      vertex 19 -19.05 0
      vertex 19 -1.52169 18.5056
    endloop
  endfacet
  facet normal 1 0 0
    outer loop
      vertex 19 0 17.4
      vertex 19 -19.05 0
      vertex 19 19.05 0
    endloop
  endfacet
  facet normal 1 0 0
    outer loop
      vertex 19 -1.52169 18.5056
      vertex 19 -19.05 0
      vertex 19 -1.18903 17.9294
    endloop
  endfacet
  facet normal 0 0 -1
    outer loop
      vertex 19 -19.05 0
      vertex 12.7 0 0
      vertex 19 19.05 0
    endloop
  endfacet
  facet normal 0 0 -1
    outer loop
      vertex 19 -19.05 0
      vertex 12.5999 -1.59173 0
      vertex 12.7 0 0
    endloop
  endfacet
  facet normal 0 0 -1
    outer loop
      vertex 19 -19.05 0
      vertex 12.301 -3.15836 0
      vertex 12.5999 -1.59173 0
    endloop
  endfacet
  facet normal 0 0 -1
    outer loop
      vertex 19 -19.05 0
      vertex 11.8082 -4.67518 0
      vertex 12.301 -3.15836 0
    endloop
  endfacet
  facet normal 0 0 -1
    outer loop
      vertex 19 -19.05 0
      vertex 11.1291 -6.11827 0
      vertex 11.8082 -4.67518 0
    endloop
  endfacet
  facet normal 0 0 -1
    outer loop
      vertex 19 -19.05 0
      vertex 10.2745 -7.46487 0
      vertex 11.1291 -6.11827 0
    endloop
  endfacet
  facet normal 0 0 -1
    outer loop
      vertex 19 -19.05 0
      vertex 9.2579 -8.69375 0
      vertex 10.2745 -7.46487 0
    endloop
  endfacet
  facet normal 0 0 -1
    outer loop
      vertex 19 -19.05 0
      vertex 8.09528 -9.78552 0
      vertex 9.2579 -8.69375 0
    endloop
  endfacet
  facet normal 0 0 -1
    outer loop
      vertex 19 -19.05 0
      vertex 6.805 -10.723 0
      vertex 8.09528 -9.78552 0
    endloop
  endfacet
  facet normal 0 0 -1
    outer loop
      vertex 19 -19.05 0
      vertex 5.4074 -11.4913 0
      vertex 6.805 -10.723 0
    endloop
  endfacet
  facet normal 0 0 -1
    outer loop
      vertex 19 -19.05 0
      vertex 3.92452 -12.0784 0
      vertex 5.4074 -11.4913 0
    endloop
  endfacet
  facet normal 0 0 -1
    outer loop
      vertex 19 -19.05 0
      vertex 2.37974 -12.475 0
      vertex 3.92452 -12.0784 0
    endloop
  endfacet
  facet normal 0 0 -1
    outer loop
      vertex 19 -19.05 0
      vertex 0.79744 -12.6749 0
      vertex 2.37974 -12.475 0
    endloop
  endfacet
  facet normal 0 0 -1
    outer loop
      vertex 19 -19.05 0
      vertex -0.79744 -12.6749 0
      vertex 0.79744 -12.6749 0
    endloop
  endfacet
  facet normal 0 0 -1
    outer loop
      vertex -19 -19.05 0
      vertex -0.79744 -12.6749 0
      vertex 19 -19.05 0
    endloop
  endfacet
  facet normal -0 0 -1
    outer loop
      vertex -0.79744 -12.6749 0
      vertex -19 -19.05 0
      vertex -2.37974 -12.475 0
    endloop
  endfacet
  facet normal -0 0 -1
    outer loop
      vertex -12.5999 -1.59173 0
      vertex -19 -19.05 0
      vertex -12.7 0 0
    endloop
  endfacet
  facet normal -0 0 -1
    outer loop
      vertex -12.301 -3.15836 0
      vertex -19 -19.05 0
      vertex -12.5999 -1.59173 0
    endloop
  endfacet
  facet normal -0 0 -1
    outer loop
      vertex -11.8082 -4.67518 0
      vertex -19 -19.05 0
      vertex -12.301 -3.15836 0
    endloop
  endfacet
  facet normal -0 0 -1
    outer loop
      vertex -11.1291 -6.11827 0
      vertex -19 -19.05 0
      vertex -11.8082 -4.67518 0
    endloop
  endfacet
  facet normal -0 0 -1
    outer loop
      vertex -10.2745 -7.46487 0
      vertex -19 -19.05 0
      vertex -11.1291 -6.11827 0
    endloop
  endfacet
  facet normal -0 0 -1
    outer loop
      vertex -9.2579 -8.69375 0
      vertex -19 -19.05 0
      vertex -10.2745 -7.46487 0
    endloop
  endfacet
  facet normal -0 0 -1
    outer loop
      vertex -8.09528 -9.78552 0
      vertex -19 -19.05 0
      vertex -9.2579 -8.69375 0
    endloop
  endfacet
  facet normal -0 0 -1
    outer loop
      vertex -6.805 -10.723 0
      vertex -19 -19.05 0
      vertex -8.09528 -9.78552 0
    endloop
  endfacet
  facet normal -0 0 -1
    outer loop
      vertex -5.4074 -11.4913 0
      vertex -19 -19.05 0
      vertex -6.805 -10.723 0
    endloop
  endfacet
  facet normal -0 0 -1
    outer loop
      vertex -3.92452 -12.0784 0
      vertex -19 -19.05 0
      vertex -5.4074 -11.4913 0
    endloop
  endfacet
  facet normal -0 0 -1
    outer loop
      vertex -2.37974 -12.475 0
      vertex -19 -19.05 0
      vertex -3.92452 -12.0784 0
    endloop
  endfacet
  facet normal 0 0 -1
    outer loop
      vertex 12.5999 1.59173 0
      vertex 19 19.05 0
      vertex 12.7 0 0
    endloop
  endfacet
  facet normal 0 0 -1
    outer loop
      vertex 12.301 3.15836 0
      vertex 19 19.05 0
      vertex 12.5999 1.59173 0
    endloop
  endfacet
  facet normal 0 0 -1
    outer loop
      vertex 11.8082 4.67518 0
      vertex 19 19.05 0
      vertex 12.301 3.15836 0
    endloop
  endfacet
  facet normal 0 0 -1
    outer loop
      vertex 11.1291 6.11827 0
      vertex 19 19.05 0
      vertex 11.8082 4.67518 0
    endloop
  endfacet
  facet normal 0 0 -1
    outer loop
      vertex 10.2745 7.46487 0
      vertex 19 19.05 0
      vertex 11.1291 6.11827 0
    endloop
  endfacet
  facet normal 0 0 -1
    outer loop
      vertex 9.2579 8.69375 0
      vertex 19 19.05 0
      vertex 10.2745 7.46487 0
    endloop
  endfacet
  facet normal 0 0 -1
    outer loop
      vertex 8.09528 9.78552 0
      vertex 19 19.05 0
      vertex 9.2579 8.69375 0
    endloop
  endfacet
  facet normal 0 0 -1
    outer loop
      vertex 6.805 10.723 0
      vertex 19 19.05 0
      vertex 8.09528 9.78552 0
    endloop
  endfacet
  facet normal 0 0 -1
    outer loop
      vertex 5.4074 11.4913 0
      vertex 19 19.05 0
      vertex 6.805 10.723 0
    endloop
  endfacet
  facet normal 0 0 -1
    outer loop
      vertex 3.92452 12.0784 0
      vertex 19 19.05 0
      vertex 5.4074 11.4913 0
    endloop
  endfacet
  facet normal 0 0 -1
    outer loop
      vertex 2.37974 12.475 0
      vertex 19 19.05 0
      vertex 3.92452 12.0784 0
    endloop
  endfacet
  facet normal 0 0 -1
    outer loop
      vertex 0.79744 12.6749 0
      vertex 19 19.05 0
      vertex 2.37974 12.475 0
    endloop
  endfacet
  facet normal 0 0 -1
    outer loop
      vertex -0.79744 12.6749 0
      vertex 19 19.05 0
      vertex 0.79744 12.6749 0
    endloop
  endfacet
  facet normal 0 0 -1
    outer loop
      vertex -19 19.05 0
      vertex -0.79744 12.6749 0
      vertex -2.37974 12.475 0
    endloop
  endfacet
  facet normal 0 0 -1
    outer loop
      vertex -19 19.05 0
      vertex -2.37974 12.475 0
      vertex -3.92452 12.0784 0
    endloop
  endfacet
  facet normal 0 0 -1
    outer loop
      vertex -19 19.05 0
      vertex -12.7 0 0
      vertex -19 -19.05 0
    endloop
  endfacet
  facet normal 0 0 -1
    outer loop
      vertex -12.7 0 0
      vertex -19 19.05 0
      vertex -12.5999 1.59173 0
    endloop
  endfacet
  facet normal 0 0 -1
    outer loop
      vertex -0.79744 12.6749 0
      vertex -19 19.05 0
      vertex 19 19.05 0
    endloop
  endfacet
  facet normal 0 0 -1
    outer loop
      vertex -5.4074 11.4913 0
      vertex -19 19.05 0
      vertex -3.92452 12.0784 0
    endloop
  endfacet
  facet normal 0 0 -1
    outer loop
      vertex -6.805 10.723 0
      vertex -19 19.05 0
      vertex -5.4074 11.4913 0
    endloop
  endfacet
  facet normal 0 0 -1
    outer loop
      vertex -8.09528 9.78552 0
      vertex -19 19.05 0
      vertex -6.805 10.723 0
    endloop
  endfacet
  facet normal 0 0 -1
    outer loop
      vertex -9.2579 8.69375 0
      vertex -19 19.05 0
      vertex -8.09528 9.78552 0
    endloop
  endfacet
  facet normal 0 0 -1
    outer loop
      vertex -10.2745 7.46487 0
      vertex -19 19.05 0
      vertex -9.2579 8.69375 0
    endloop
  endfacet
  facet normal 0 0 -1
    outer loop
      vertex -11.1291 6.11827 0
      vertex -19 19.05 0
      vertex -10.2745 7.46487 0
    endloop
  endfacet
  facet normal 0 0 -1
    outer loop
      vertex -11.8082 4.67518 0
      vertex -19 19.05 0
      vertex -11.1291 6.11827 0
    endloop
  endfacet
  facet normal 0 0 -1
    outer loop
      vertex -12.301 3.15836 0
      vertex -19 19.05 0
      vertex -11.8082 4.67518 0
    endloop
  endfacet
  facet normal 0 0 -1
    outer loop
      vertex -12.5999 1.59173 0
      vertex -19 19.05 0
      vertex -12.301 3.15836 0
    endloop
  endfacet
  facet normal 0 -1 0
    outer loop
      vertex -19 -19.05 0
      vertex 19 -19.05 38
      vertex -19 -19.05 38
    endloop
  endfacet
  facet normal 0 -1 -0
    outer loop
      vertex 19 -19.05 38
      vertex -19 -19.05 0
      vertex 19 -19.05 0
    endloop
  endfacet
  facet normal 0 1 -0
    outer loop
      vertex 19 19.05 0
      vertex -19 19.05 38
      vertex 19 19.05 38
    endloop
  endfacet
  facet normal 0 1 0
    outer loop
      vertex -19 19.05 38
      vertex 19 19.05 0
      vertex -19 19.05 0
    endloop
  endfacet
  facet normal -0.904819 -0.425796 0
    outer loop
      vertex 11.8082 4.67518 0
      vertex 11.1291 6.11827 38
      vertex 11.1291 6.11827 0
    endloop
  endfacet
  facet normal -0.904819 -0.425796 0
    outer loop
      vertex 11.1291 6.11827 38
      vertex 11.8082 4.67518 0
      vertex 11.8082 4.67518 38
    endloop
  endfacet
  facet normal -0.844322 -0.535836 0
    outer loop
      vertex 11.1291 6.11827 0
      vertex 10.2745 7.46487 38
      vertex 10.2745 7.46487 0
    endloop
  endfacet
  facet normal -0.844322 -0.535836 0
    outer loop
      vertex 10.2745 7.46487 38
      vertex 11.1291 6.11827 0
      vertex 11.1291 6.11827 38
    endloop
  endfacet
  facet normal -0.248671 -0.968588 0
    outer loop
      vertex 2.37974 12.475 0
      vertex 3.92452 12.0784 38
      vertex 2.37974 12.475 38
    endloop
  endfacet
  facet normal -0.248671 -0.968588 -0
    outer loop
      vertex 3.92452 12.0784 38
      vertex 2.37974 12.475 0
      vertex 3.92452 12.0784 0
    endloop
  endfacet
  facet normal -0.368117 -0.929779 0
    outer loop
      vertex 3.92452 12.0784 0
      vertex 5.4074 11.4913 38
      vertex 3.92452 12.0784 38
    endloop
  endfacet
  facet normal -0.368117 -0.929779 -0
    outer loop
      vertex 5.4074 11.4913 38
      vertex 3.92452 12.0784 0
      vertex 5.4074 11.4913 0
    endloop
  endfacet
  facet normal 0.368117 -0.929779 0
    outer loop
      vertex -5.4074 11.4913 0
      vertex -3.92452 12.0784 38
      vertex -5.4074 11.4913 38
    endloop
  endfacet
  facet normal 0.368117 -0.929779 0
    outer loop
      vertex -3.92452 12.0784 38
      vertex -5.4074 11.4913 0
      vertex -3.92452 12.0784 0
    endloop
  endfacet
  facet normal 0.904819 -0.425796 0
    outer loop
      vertex -11.8082 4.67518 38
      vertex -11.1291 6.11827 0
      vertex -11.1291 6.11827 38
    endloop
  endfacet
  facet normal 0.904819 -0.425796 0
    outer loop
      vertex -11.1291 6.11827 0
      vertex -11.8082 4.67518 38
      vertex -11.8082 4.67518 0
    endloop
  endfacet
  facet normal -0.982282 0.187411 0
    outer loop
      vertex 12.301 -3.15836 0
      vertex 12.5999 -1.59173 38
      vertex 12.5999 -1.59173 0
    endloop
  endfacet
  facet normal -0.982282 0.187411 0
    outer loop
      vertex 12.5999 -1.59173 38
      vertex 12.301 -3.15836 0
      vertex 12.301 -3.15836 38
    endloop
  endfacet
  facet normal -0.125339 -0.992114 0
    outer loop
      vertex 0.79744 12.6749 0
      vertex 2.37974 12.475 38
      vertex 0.79744 12.6749 38
    endloop
  endfacet
  facet normal -0.125339 -0.992114 -0
    outer loop
      vertex 2.37974 12.475 38
      vertex 0.79744 12.6749 0
      vertex 2.37974 12.475 0
    endloop
  endfacet
  facet normal -0.481736 -0.876317 0
    outer loop
      vertex 5.4074 11.4913 0
      vertex 6.805 10.723 38
      vertex 5.4074 11.4913 38
    endloop
  endfacet
  facet normal -0.481736 -0.876317 -0
    outer loop
      vertex 6.805 10.723 38
      vertex 5.4074 11.4913 0
      vertex 6.805 10.723 0
    endloop
  endfacet
  facet normal 1 0 0
    outer loop
      vertex -12.5999 1.59173 38
      vertex -12.5999 1.59123 19.1672
      vertex -12.5999 1.59173 0
    endloop
  endfacet
  facet normal 0.998038 -0.062618 1.66247e-006
    outer loop
      vertex -12.5999 1.59173 38
      vertex -12.6128 1.38564 19.8
      vertex -12.5999 1.59123 19.1672
    endloop
  endfacet
  facet normal 0.998028 -0.0627676 3.36313e-006
    outer loop
      vertex -12.5999 1.59173 38
      vertex -12.6408 0.940456 20.2944
      vertex -12.6128 1.38564 19.8
    endloop
  endfacet
  facet normal 0.998021 -0.0628862 7.74279e-006
    outer loop
      vertex -12.5999 1.59173 38
      vertex -12.6791 0.332658 20.565
      vertex -12.6408 0.940456 20.2944
    endloop
  endfacet
  facet normal 0.998028 -0.0627636 -1.14752e-006
    outer loop
      vertex -12.7 0 38
      vertex -12.6791 0.332658 20.565
      vertex -12.5999 1.59173 38
    endloop
  endfacet
  facet normal 0.998032 -0.0627037 0
    outer loop
      vertex -12.6791 0.332658 20.565
      vertex -12.7 0 38
      vertex -12.7 0 20.565
    endloop
  endfacet
  facet normal 0.998005 -0.0631311 -1.64685e-006
    outer loop
      vertex -12.6043 1.52169 18.5056
      vertex -12.5999 1.59173 0
      vertex -12.5999 1.59123 19.1672
    endloop
  endfacet
  facet normal 0.998032 -0.0627032 -2.12607e-008
    outer loop
      vertex -12.6252 1.18903 17.9294
      vertex -12.5999 1.59173 0
      vertex -12.6043 1.52169 18.5056
    endloop
  endfacet
  facet normal 0.998023 -0.0628546 -3.4347e-006
    outer loop
      vertex -12.6591 0.650778 17.5383
      vertex -12.5999 1.59173 0
      vertex -12.6252 1.18903 17.9294
    endloop
  endfacet
  facet normal 0.998031 -0.0627249 3.55518e-006
    outer loop
      vertex -12.7 0 17.4
      vertex -12.5999 1.59173 0
      vertex -12.6591 0.650778 17.5383
    endloop
  endfacet
  facet normal 0.998028 -0.0627636 0
    outer loop
      vertex -12.5999 1.59173 0
      vertex -12.7 0 17.4
      vertex -12.7 0 0
    endloop
  endfacet
  facet normal 0.770519 -0.637417 0
    outer loop
      vertex -10.2745 7.46487 38
      vertex -9.2579 8.69375 0
      vertex -9.2579 8.69375 38
    endloop
  endfacet
  facet normal 0.770519 -0.637417 0
    outer loop
      vertex -9.2579 8.69375 0
      vertex -10.2745 7.46487 38
      vertex -10.2745 7.46487 0
    endloop
  endfacet
  facet normal 0.125339 -0.992114 0
    outer loop
      vertex -2.37974 12.475 0
      vertex -0.79744 12.6749 38
      vertex -2.37974 12.475 38
    endloop
  endfacet
  facet normal 0.125339 -0.992114 0
    outer loop
      vertex -0.79744 12.6749 38
      vertex -2.37974 12.475 0
      vertex -0.79744 12.6749 0
    endloop
  endfacet
  facet normal 0.684546 -0.72897 0
    outer loop
      vertex -9.2579 8.69375 0
      vertex -8.09528 9.78552 38
      vertex -9.2579 8.69375 38
    endloop
  endfacet
  facet normal 0.684546 -0.72897 0
    outer loop
      vertex -8.09528 9.78552 38
      vertex -9.2579 8.69375 0
      vertex -8.09528 9.78552 0
    endloop
  endfacet
  facet normal -0.998028 0.0627636 0
    outer loop
      vertex 12.5999 -1.59173 0
      vertex 12.7 0 17.4
      vertex 12.7 0 0
    endloop
  endfacet
  facet normal -0.998031 0.0627249 3.55518e-006
    outer loop
      vertex 12.7 0 17.4
      vertex 12.5999 -1.59173 0
      vertex 12.6591 -0.650778 17.5383
    endloop
  endfacet
  facet normal -0.998023 0.0628546 -3.4347e-006
    outer loop
      vertex 12.6591 -0.650778 17.5383
      vertex 12.5999 -1.59173 0
      vertex 12.6252 -1.18903 17.9294
    endloop
  endfacet
  facet normal -0.998032 0.0627032 -2.12607e-008
    outer loop
      vertex 12.6252 -1.18903 17.9294
      vertex 12.5999 -1.59173 0
      vertex 12.6043 -1.52169 18.5056
    endloop
  endfacet
  facet normal -0.998005 0.0631311 -1.64685e-006
    outer loop
      vertex 12.6043 -1.52169 18.5056
      vertex 12.5999 -1.59173 0
      vertex 12.5999 -1.59123 19.1672
    endloop
  endfacet
  facet normal -0.998032 0.0627037 0
    outer loop
      vertex 12.6791 -0.332658 20.565
      vertex 12.7 0 38
      vertex 12.7 0 20.565
    endloop
  endfacet
  facet normal -0.998021 0.0628862 7.74279e-006
    outer loop
      vertex 12.5999 -1.59173 38
      vertex 12.6791 -0.332658 20.565
      vertex 12.6408 -0.940456 20.2944
    endloop
  endfacet
  facet normal -0.998028 0.0627676 3.36313e-006
    outer loop
      vertex 12.5999 -1.59173 38
      vertex 12.6408 -0.940456 20.2944
      vertex 12.6128 -1.38564 19.8
    endloop
  endfacet
  facet normal -0.998038 0.062618 1.66247e-006
    outer loop
      vertex 12.5999 -1.59173 38
      vertex 12.6128 -1.38564 19.8
      vertex 12.5999 -1.59123 19.1672
    endloop
  endfacet
  facet normal -0.998028 0.0627636 -1.14752e-006
    outer loop
      vertex 12.6791 -0.332658 20.565
      vertex 12.5999 -1.59173 38
      vertex 12.7 0 38
    endloop
  endfacet
  facet normal -1 0 0
    outer loop
      vertex 12.5999 -1.59173 38
      vertex 12.5999 -1.59123 19.1672
      vertex 12.5999 -1.59173 0
    endloop
  endfacet
  facet normal -0.951065 0.308992 0
    outer loop
      vertex 11.8082 -4.67518 0
      vertex 12.301 -3.15836 38
      vertex 12.301 -3.15836 0
    endloop
  endfacet
  facet normal -0.951065 0.308992 0
    outer loop
      vertex 12.301 -3.15836 38
      vertex 11.8082 -4.67518 0
      vertex 11.8082 -4.67518 38
    endloop
  endfacet
  facet normal -0.982282 -0.187411 0
    outer loop
      vertex 12.5999 1.59173 0
      vertex 12.301 3.15836 38
      vertex 12.301 3.15836 0
    endloop
  endfacet
  facet normal -0.982282 -0.187411 0
    outer loop
      vertex 12.301 3.15836 38
      vertex 12.5999 1.59173 0
      vertex 12.5999 1.59173 38
    endloop
  endfacet
  facet normal -0.951065 -0.308992 0
    outer loop
      vertex 12.301 3.15836 0
      vertex 11.8082 4.67518 38
      vertex 11.8082 4.67518 0
    endloop
  endfacet
  facet normal -0.951065 -0.308992 0
    outer loop
      vertex 11.8082 4.67518 38
      vertex 12.301 3.15836 0
      vertex 12.301 3.15836 38
    endloop
  endfacet
  facet normal -0.684546 -0.72897 0
    outer loop
      vertex 8.09528 9.78552 0
      vertex 9.2579 8.69375 38
      vertex 8.09528 9.78552 38
    endloop
  endfacet
  facet normal -0.684546 -0.72897 -0
    outer loop
      vertex 9.2579 8.69375 38
      vertex 8.09528 9.78552 0
      vertex 9.2579 8.69375 0
    endloop
  endfacet
  facet normal -0.770519 -0.637417 0
    outer loop
      vertex 10.2745 7.46487 0
      vertex 9.2579 8.69375 38
      vertex 9.2579 8.69375 0
    endloop
  endfacet
  facet normal -0.770519 -0.637417 0
    outer loop
      vertex 9.2579 8.69375 38
      vertex 10.2745 7.46487 0
      vertex 10.2745 7.46487 38
    endloop
  endfacet
  facet normal 0 -1 0
    outer loop
      vertex -0.79744 12.6749 0
      vertex 0.79744 12.6749 38
      vertex -0.79744 12.6749 38
    endloop
  endfacet
  facet normal 0 -1 -0
    outer loop
      vertex 0.79744 12.6749 38
      vertex -0.79744 12.6749 0
      vertex 0.79744 12.6749 0
    endloop
  endfacet
  facet normal -0.5878 -0.809006 0
    outer loop
      vertex 6.805 10.723 0
      vertex 8.09528 9.78552 38
      vertex 6.805 10.723 38
    endloop
  endfacet
  facet normal -0.5878 -0.809006 -0
    outer loop
      vertex 8.09528 9.78552 38
      vertex 6.805 10.723 0
      vertex 8.09528 9.78552 0
    endloop
  endfacet
  facet normal 0.951065 -0.308992 0
    outer loop
      vertex -12.301 3.15836 38
      vertex -11.8082 4.67518 0
      vertex -11.8082 4.67518 38
    endloop
  endfacet
  facet normal 0.951065 -0.308992 0
    outer loop
      vertex -11.8082 4.67518 0
      vertex -12.301 3.15836 38
      vertex -12.301 3.15836 0
    endloop
  endfacet
  facet normal 0.982282 -0.187411 0
    outer loop
      vertex -12.5999 1.59173 38
      vertex -12.301 3.15836 0
      vertex -12.301 3.15836 38
    endloop
  endfacet
  facet normal 0.982282 -0.187411 0
    outer loop
      vertex -12.301 3.15836 0
      vertex -12.5999 1.59173 38
      vertex -12.5999 1.59173 0
    endloop
  endfacet
  facet normal 0.844322 -0.535836 0
    outer loop
      vertex -11.1291 6.11827 38
      vertex -10.2745 7.46487 0
      vertex -10.2745 7.46487 38
    endloop
  endfacet
  facet normal 0.844322 -0.535836 0
    outer loop
      vertex -10.2745 7.46487 0
      vertex -11.1291 6.11827 38
      vertex -11.1291 6.11827 0
    endloop
  endfacet
  facet normal 0.248671 -0.968588 0
    outer loop
      vertex -3.92452 12.0784 0
      vertex -2.37974 12.475 38
      vertex -3.92452 12.0784 38
    endloop
  endfacet
  facet normal 0.248671 -0.968588 0
    outer loop
      vertex -2.37974 12.475 38
      vertex -3.92452 12.0784 0
      vertex -2.37974 12.475 0
    endloop
  endfacet
  facet normal 0.5878 -0.809006 0
    outer loop
      vertex -8.09528 9.78552 0
      vertex -6.805 10.723 38
      vertex -8.09528 9.78552 38
    endloop
  endfacet
  facet normal 0.5878 -0.809006 0
    outer loop
      vertex -6.805 10.723 38
      vertex -8.09528 9.78552 0
      vertex -6.805 10.723 0
    endloop
  endfacet
  facet normal 0.481736 -0.876317 0
    outer loop
      vertex -6.805 10.723 0
      vertex -5.4074 11.4913 38
      vertex -6.805 10.723 38
    endloop
  endfacet
  facet normal 0.481736 -0.876317 0
    outer loop
      vertex -5.4074 11.4913 38
      vertex -6.805 10.723 0
      vertex -5.4074 11.4913 0
    endloop
  endfacet
  facet normal -1 0 0
    outer loop
      vertex 12.5999 1.59173 0
      vertex 12.5999 1.59123 19.1672
      vertex 12.5999 1.59173 38
    endloop
  endfacet
  facet normal -0.998005 -0.0631311 -1.64685e-006
    outer loop
      vertex 12.5999 1.59173 0
      vertex 12.6043 1.52169 18.5056
      vertex 12.5999 1.59123 19.1672
    endloop
  endfacet
  facet normal -0.998032 -0.0627032 -2.12607e-008
    outer loop
      vertex 12.5999 1.59173 0
      vertex 12.6252 1.18903 17.9294
      vertex 12.6043 1.52169 18.5056
    endloop
  endfacet
  facet normal -0.998023 -0.0628546 -3.4347e-006
    outer loop
      vertex 12.5999 1.59173 0
      vertex 12.6591 0.650778 17.5383
      vertex 12.6252 1.18903 17.9294
    endloop
  endfacet
  facet normal -0.998028 -0.0627636 -0
    outer loop
      vertex 12.7 0 17.4
      vertex 12.5999 1.59173 0
      vertex 12.7 0 0
    endloop
  endfacet
  facet normal -0.998031 -0.0627249 3.55518e-006
    outer loop
      vertex 12.5999 1.59173 0
      vertex 12.7 0 17.4
      vertex 12.6591 0.650778 17.5383
    endloop
  endfacet
  facet normal -0.998038 -0.062618 1.66247e-006
    outer loop
      vertex 12.6128 1.38564 19.8
      vertex 12.5999 1.59173 38
      vertex 12.5999 1.59123 19.1672
    endloop
  endfacet
  facet normal -0.998028 -0.0627676 3.36313e-006
    outer loop
      vertex 12.6408 0.940456 20.2944
      vertex 12.5999 1.59173 38
      vertex 12.6128 1.38564 19.8
    endloop
  endfacet
  facet normal -0.998021 -0.0628862 7.74279e-006
    outer loop
      vertex 12.6791 0.332658 20.565
      vertex 12.5999 1.59173 38
      vertex 12.6408 0.940456 20.2944
    endloop
  endfacet
  facet normal -0.998032 -0.0627037 -0
    outer loop
      vertex 12.7 0 38
      vertex 12.6791 0.332658 20.565
      vertex 12.7 0 20.565
    endloop
  endfacet
  facet normal -0.998028 -0.0627636 -1.14752e-006
    outer loop
      vertex 12.6791 0.332658 20.565
      vertex 12.7 0 38
      vertex 12.5999 1.59173 38
    endloop
  endfacet
  facet normal 0 1 -0
    outer loop
      vertex 0.79744 -12.6749 0
      vertex -0.79744 -12.6749 38
      vertex 0.79744 -12.6749 38
    endloop
  endfacet
  facet normal 0 1 0
    outer loop
      vertex -0.79744 -12.6749 38
      vertex 0.79744 -12.6749 0
      vertex -0.79744 -12.6749 0
    endloop
  endfacet
  facet normal 0.904819 0.425796 0
    outer loop
      vertex -11.1291 -6.11827 38
      vertex -11.8082 -4.67518 0
      vertex -11.8082 -4.67518 38
    endloop
  endfacet
  facet normal 0.904819 0.425796 0
    outer loop
      vertex -11.8082 -4.67518 0
      vertex -11.1291 -6.11827 38
      vertex -11.1291 -6.11827 0
    endloop
  endfacet
  facet normal -0.125339 0.992114 0
    outer loop
      vertex 2.37974 -12.475 0
      vertex 0.79744 -12.6749 38
      vertex 2.37974 -12.475 38
    endloop
  endfacet
  facet normal -0.125339 0.992114 0
    outer loop
      vertex 0.79744 -12.6749 38
      vertex 2.37974 -12.475 0
      vertex 0.79744 -12.6749 0
    endloop
  endfacet
  facet normal -0.770519 0.637417 0
    outer loop
      vertex 9.2579 -8.69375 0
      vertex 10.2745 -7.46487 38
      vertex 10.2745 -7.46487 0
    endloop
  endfacet
  facet normal -0.770519 0.637417 0
    outer loop
      vertex 10.2745 -7.46487 38
      vertex 9.2579 -8.69375 0
      vertex 9.2579 -8.69375 38
    endloop
  endfacet
  facet normal -0.844322 0.535836 0
    outer loop
      vertex 10.2745 -7.46487 0
      vertex 11.1291 -6.11827 38
      vertex 11.1291 -6.11827 0
    endloop
  endfacet
  facet normal -0.844322 0.535836 0
    outer loop
      vertex 11.1291 -6.11827 38
      vertex 10.2745 -7.46487 0
      vertex 10.2745 -7.46487 38
    endloop
  endfacet
  facet normal -0.904819 0.425796 0
    outer loop
      vertex 11.1291 -6.11827 0
      vertex 11.8082 -4.67518 38
      vertex 11.8082 -4.67518 0
    endloop
  endfacet
  facet normal -0.904819 0.425796 0
    outer loop
      vertex 11.8082 -4.67518 38
      vertex 11.1291 -6.11827 0
      vertex 11.1291 -6.11827 38
    endloop
  endfacet
  facet normal 0.248671 0.968588 -0
    outer loop
      vertex -2.37974 -12.475 0
      vertex -3.92452 -12.0784 38
      vertex -2.37974 -12.475 38
    endloop
  endfacet
  facet normal 0.248671 0.968588 0
    outer loop
      vertex -3.92452 -12.0784 38
      vertex -2.37974 -12.475 0
      vertex -3.92452 -12.0784 0
    endloop
  endfacet
  facet normal 0.951065 0.308992 0
    outer loop
      vertex -11.8082 -4.67518 38
      vertex -12.301 -3.15836 0
      vertex -12.301 -3.15836 38
    endloop
  endfacet
  facet normal 0.951065 0.308992 0
    outer loop
      vertex -12.301 -3.15836 0
      vertex -11.8082 -4.67518 38
      vertex -11.8082 -4.67518 0
    endloop
  endfacet
  facet normal 0.982282 0.187411 0
    outer loop
      vertex -12.301 -3.15836 38
      vertex -12.5999 -1.59173 0
      vertex -12.5999 -1.59173 38
    endloop
  endfacet
  facet normal 0.982282 0.187411 0
    outer loop
      vertex -12.5999 -1.59173 0
      vertex -12.301 -3.15836 38
      vertex -12.301 -3.15836 0
    endloop
  endfacet
  facet normal 0.998032 0.0627037 0
    outer loop
      vertex -12.7 0 38
      vertex -12.6791 -0.332658 20.565
      vertex -12.7 0 20.565
    endloop
  endfacet
  facet normal 0.998028 0.0627636 -1.14752e-006
    outer loop
      vertex -12.5999 -1.59173 38
      vertex -12.6791 -0.332658 20.565
      vertex -12.7 0 38
    endloop
  endfacet
  facet normal 0.998021 0.0628862 7.74279e-006
    outer loop
      vertex -12.6791 -0.332658 20.565
      vertex -12.5999 -1.59173 38
      vertex -12.6408 -0.940456 20.2944
    endloop
  endfacet
  facet normal 0.998028 0.0627676 3.36313e-006
    outer loop
      vertex -12.6408 -0.940456 20.2944
      vertex -12.5999 -1.59173 38
      vertex -12.6128 -1.38564 19.8
    endloop
  endfacet
  facet normal 0.998038 0.062618 1.66247e-006
    outer loop
      vertex -12.6128 -1.38564 19.8
      vertex -12.5999 -1.59173 38
      vertex -12.5999 -1.59123 19.1672
    endloop
  endfacet
  facet normal 0.998031 0.0627249 3.55518e-006
    outer loop
      vertex -12.5999 -1.59173 0
      vertex -12.7 0 17.4
      vertex -12.6591 -0.650778 17.5383
    endloop
  endfacet
  facet normal 0.998023 0.0628546 -3.4347e-006
    outer loop
      vertex -12.5999 -1.59173 0
      vertex -12.6591 -0.650778 17.5383
      vertex -12.6252 -1.18903 17.9294
    endloop
  endfacet
  facet normal 0.998032 0.0627032 -2.12607e-008
    outer loop
      vertex -12.5999 -1.59173 0
      vertex -12.6252 -1.18903 17.9294
      vertex -12.6043 -1.52169 18.5056
    endloop
  endfacet
  facet normal 0.998005 0.0631311 -1.64685e-006
    outer loop
      vertex -12.5999 -1.59173 0
      vertex -12.6043 -1.52169 18.5056
      vertex -12.5999 -1.59123 19.1672
    endloop
  endfacet
  facet normal 0.998028 0.0627636 0
    outer loop
      vertex -12.7 0 17.4
      vertex -12.5999 -1.59173 0
      vertex -12.7 0 0
    endloop
  endfacet
  facet normal 1 0 0
    outer loop
      vertex -12.5999 -1.59173 0
      vertex -12.5999 -1.59123 19.1672
      vertex -12.5999 -1.59173 38
    endloop
  endfacet
  facet normal -0.368117 0.929779 0
    outer loop
      vertex 5.4074 -11.4913 0
      vertex 3.92452 -12.0784 38
      vertex 5.4074 -11.4913 38
    endloop
  endfacet
  facet normal -0.368117 0.929779 0
    outer loop
      vertex 3.92452 -12.0784 38
      vertex 5.4074 -11.4913 0
      vertex 3.92452 -12.0784 0
    endloop
  endfacet
  facet normal -0.248671 0.968588 0
    outer loop
      vertex 3.92452 -12.0784 0
      vertex 2.37974 -12.475 38
      vertex 3.92452 -12.0784 38
    endloop
  endfacet
  facet normal -0.248671 0.968588 0
    outer loop
      vertex 2.37974 -12.475 38
      vertex 3.92452 -12.0784 0
      vertex 2.37974 -12.475 0
    endloop
  endfacet
  facet normal -0.684546 0.72897 0
    outer loop
      vertex 9.2579 -8.69375 0
      vertex 8.09528 -9.78552 38
      vertex 9.2579 -8.69375 38
    endloop
  endfacet
  facet normal -0.684546 0.72897 0
    outer loop
      vertex 8.09528 -9.78552 38
      vertex 9.2579 -8.69375 0
      vertex 8.09528 -9.78552 0
    endloop
  endfacet
  facet normal 0.368117 0.929779 -0
    outer loop
      vertex -3.92452 -12.0784 0
      vertex -5.4074 -11.4913 38
      vertex -3.92452 -12.0784 38
    endloop
  endfacet
  facet normal 0.368117 0.929779 0
    outer loop
      vertex -5.4074 -11.4913 38
      vertex -3.92452 -12.0784 0
      vertex -5.4074 -11.4913 0
    endloop
  endfacet
  facet normal 0.125339 0.992114 -0
    outer loop
      vertex -0.79744 -12.6749 0
      vertex -2.37974 -12.475 38
      vertex -0.79744 -12.6749 38
    endloop
  endfacet
  facet normal 0.125339 0.992114 0
    outer loop
      vertex -2.37974 -12.475 38
      vertex -0.79744 -12.6749 0
      vertex -2.37974 -12.475 0
    endloop
  endfacet
  facet normal 0.770519 0.637417 0
    outer loop
      vertex -9.2579 -8.69375 38
      vertex -10.2745 -7.46487 0
      vertex -10.2745 -7.46487 38
    endloop
  endfacet
  facet normal 0.770519 0.637417 0
    outer loop
      vertex -10.2745 -7.46487 0
      vertex -9.2579 -8.69375 38
      vertex -9.2579 -8.69375 0
    endloop
  endfacet
  facet normal 0.684546 0.72897 -0
    outer loop
      vertex -8.09528 -9.78552 0
      vertex -9.2579 -8.69375 38
      vertex -8.09528 -9.78552 38
    endloop
  endfacet
  facet normal 0.684546 0.72897 0
    outer loop
      vertex -9.2579 -8.69375 38
      vertex -8.09528 -9.78552 0
      vertex -9.2579 -8.69375 0
    endloop
  endfacet
  facet normal -0.5878 0.809006 0
    outer loop
      vertex 8.09528 -9.78552 0
      vertex 6.805 -10.723 38
      vertex 8.09528 -9.78552 38
    endloop
  endfacet
  facet normal -0.5878 0.809006 0
    outer loop
      vertex 6.805 -10.723 38
      vertex 8.09528 -9.78552 0
      vertex 6.805 -10.723 0
    endloop
  endfacet
  facet normal -0.481736 0.876317 0
    outer loop
      vertex 6.805 -10.723 0
      vertex 5.4074 -11.4913 38
      vertex 6.805 -10.723 38
    endloop
  endfacet
  facet normal -0.481736 0.876317 0
    outer loop
      vertex 5.4074 -11.4913 38
      vertex 6.805 -10.723 0
      vertex 5.4074 -11.4913 0
    endloop
  endfacet
  facet normal 0.844322 0.535836 0
    outer loop
      vertex -10.2745 -7.46487 38
      vertex -11.1291 -6.11827 0
      vertex -11.1291 -6.11827 38
    endloop
  endfacet
  facet normal 0.844322 0.535836 0
    outer loop
      vertex -11.1291 -6.11827 0
      vertex -10.2745 -7.46487 38
      vertex -10.2745 -7.46487 0
    endloop
  endfacet
  facet normal 0.481736 0.876317 -0
    outer loop
      vertex -5.4074 -11.4913 0
      vertex -6.805 -10.723 38
      vertex -5.4074 -11.4913 38
    endloop
  endfacet
  facet normal 0.481736 0.876317 0
    outer loop
      vertex -6.805 -10.723 38
      vertex -5.4074 -11.4913 0
      vertex -6.805 -10.723 0
    endloop
  endfacet
  facet normal 0.5878 0.809006 -0
    outer loop
      vertex -6.805 -10.723 0
      vertex -8.09528 -9.78552 38
      vertex -6.805 -10.723 38
    endloop
  endfacet
  facet normal 0.5878 0.809006 0
    outer loop
      vertex -8.09528 -9.78552 38
      vertex -6.805 -10.723 0
      vertex -8.09528 -9.78552 0
    endloop
  endfacet
  facet normal 0 -0.207873 0.978156
    outer loop
      vertex -19 0.650778 17.5383
      vertex -12.7 0 17.4
      vertex -12.6591 0.650778 17.5383
    endloop
  endfacet
  facet normal 0 -0.207873 0.978156
    outer loop
      vertex -12.7 0 17.4
      vertex -19 0.650778 17.5383
      vertex -19 0 17.4
    endloop
  endfacet
  facet normal 0 -0.207873 0.978156
    outer loop
      vertex 19 0.650778 17.5383
      vertex 12.7 0 17.4
      vertex 19 0 17.4
    endloop
  endfacet
  facet normal 0 -0.207873 0.978156
    outer loop
      vertex 12.7 0 17.4
      vertex 19 0.650778 17.5383
      vertex 12.6591 0.650778 17.5383
    endloop
  endfacet
  facet normal 0 0 -1
    outer loop
      vertex -12.6791 -0.332658 20.565
      vertex -19 -0.332658 20.565
      vertex -12.7 0 20.565
    endloop
  endfacet
  facet normal 0 0 -1
    outer loop
      vertex -19 0.332658 20.565
      vertex -12.7 0 20.565
      vertex -19 -0.332658 20.565
    endloop
  endfacet
  facet normal 0 0 -1
    outer loop
      vertex -12.7 0 20.565
      vertex -19 0.332658 20.565
      vertex -12.6791 0.332658 20.565
    endloop
  endfacet
  facet normal 0 0 -1
    outer loop
      vertex 19 -0.332658 20.565
      vertex 12.7 0 20.565
      vertex 19 0.332658 20.565
    endloop
  endfacet
  facet normal 0 -0 -1
    outer loop
      vertex 12.7 0 20.565
      vertex 19 -0.332658 20.565
      vertex 12.6791 -0.332658 20.565
    endloop
  endfacet
  facet normal -0 0 -1
    outer loop
      vertex 19 0.332658 20.565
      vertex 12.7 0 20.565
      vertex 12.6791 0.332658 20.565
    endloop
  endfacet
  facet normal 0 0.994521 0.104533
    outer loop
      vertex -12.6043 -1.52169 18.5056
      vertex -19 -1.59123 19.1672
      vertex -12.5999 -1.59123 19.1672
    endloop
  endfacet
  facet normal 0 0.994521 0.104533
    outer loop
      vertex -19 -1.59123 19.1672
      vertex -12.6043 -1.52169 18.5056
      vertex -19 -1.52169 18.5056
    endloop
  endfacet
  facet normal 0 0.994521 0.104533
    outer loop
      vertex 19 -1.52169 18.5056
      vertex 12.5999 -1.59123 19.1672
      vertex 19 -1.59123 19.1672
    endloop
  endfacet
  facet normal 0 0.994521 0.104533
    outer loop
      vertex 12.5999 -1.59123 19.1672
      vertex 19 -1.52169 18.5056
      vertex 12.6043 -1.52169 18.5056
    endloop
  endfacet
  facet normal 0 0.866031 0.49999
    outer loop
      vertex -12.6252 -1.18903 17.9294
      vertex -19 -1.52169 18.5056
      vertex -12.6043 -1.52169 18.5056
    endloop
  endfacet
  facet normal 0 0.866031 0.49999
    outer loop
      vertex -19 -1.52169 18.5056
      vertex -12.6252 -1.18903 17.9294
      vertex -19 -1.18903 17.9294
    endloop
  endfacet
  facet normal -0 0.866031 0.49999
    outer loop
      vertex 12.6252 -1.18903 17.9294
      vertex 19 -1.52169 18.5056
      vertex 19 -1.18903 17.9294
    endloop
  endfacet
  facet normal 0 0.866031 0.49999
    outer loop
      vertex 19 -1.52169 18.5056
      vertex 12.6252 -1.18903 17.9294
      vertex 12.6043 -1.52169 18.5056
    endloop
  endfacet
  facet normal 0 0.743127 -0.669151
    outer loop
      vertex -19 -1.38564 19.8
      vertex -12.6408 -0.940456 20.2944
      vertex -12.6128 -1.38564 19.8
    endloop
  endfacet
  facet normal 0 0.743127 -0.669151
    outer loop
      vertex -12.6408 -0.940456 20.2944
      vertex -19 -1.38564 19.8
      vertex -19 -0.940456 20.2944
    endloop
  endfacet
  facet normal 0 0.743127 -0.669151
    outer loop
      vertex 19 -1.38564 19.8
      vertex 12.6408 -0.940456 20.2944
      vertex 19 -0.940456 20.2944
    endloop
  endfacet
  facet normal 0 0.743127 -0.669151
    outer loop
      vertex 12.6408 -0.940456 20.2944
      vertex 19 -1.38564 19.8
      vertex 12.6128 -1.38564 19.8
    endloop
  endfacet
  facet normal 0 -0.587822 0.808991
    outer loop
      vertex -19 1.18903 17.9294
      vertex -12.6591 0.650778 17.5383
      vertex -12.6252 1.18903 17.9294
    endloop
  endfacet
  facet normal 0 -0.587822 0.808991
    outer loop
      vertex -12.6591 0.650778 17.5383
      vertex -19 1.18903 17.9294
      vertex -19 0.650778 17.5383
    endloop
  endfacet
  facet normal 0 -0.587822 0.808991
    outer loop
      vertex 19 1.18903 17.9294
      vertex 12.6591 0.650778 17.5383
      vertex 19 0.650778 17.5383
    endloop
  endfacet
  facet normal 0 -0.587822 0.808991
    outer loop
      vertex 12.6591 0.650778 17.5383
      vertex 19 1.18903 17.9294
      vertex 12.6252 1.18903 17.9294
    endloop
  endfacet
  facet normal 0 -0.994521 0.104533
    outer loop
      vertex -19 1.52169 18.5056
      vertex -12.5999 1.59123 19.1672
      vertex -19 1.59123 19.1672
    endloop
  endfacet
  facet normal 0 -0.994521 0.104533
    outer loop
      vertex -12.5999 1.59123 19.1672
      vertex -19 1.52169 18.5056
      vertex -12.6043 1.52169 18.5056
    endloop
  endfacet
  facet normal 0 -0.994521 0.104533
    outer loop
      vertex 12.6043 1.52169 18.5056
      vertex 19 1.59123 19.1672
      vertex 12.5999 1.59123 19.1672
    endloop
  endfacet
  facet normal 0 -0.994521 0.104533
    outer loop
      vertex 19 1.59123 19.1672
      vertex 12.6043 1.52169 18.5056
      vertex 19 1.52169 18.5056
    endloop
  endfacet
  facet normal 0 -0.743127 -0.669151
    outer loop
      vertex -19 1.38564 19.8
      vertex -12.6408 0.940456 20.2944
      vertex -19 0.940456 20.2944
    endloop
  endfacet
  facet normal 0 -0.743127 -0.669151
    outer loop
      vertex -12.6408 0.940456 20.2944
      vertex -19 1.38564 19.8
      vertex -12.6128 1.38564 19.8
    endloop
  endfacet
  facet normal -0 -0.743127 -0.669151
    outer loop
      vertex 19 1.38564 19.8
      vertex 12.6408 0.940456 20.2944
      vertex 12.6128 1.38564 19.8
    endloop
  endfacet
  facet normal 0 -0.743127 -0.669151
    outer loop
      vertex 12.6408 0.940456 20.2944
      vertex 19 1.38564 19.8
      vertex 19 0.940456 20.2944
    endloop
  endfacet
  facet normal 0 -0.406725 -0.913551
    outer loop
      vertex -19 0.940456 20.2944
      vertex -12.6791 0.332658 20.565
      vertex -19 0.332658 20.565
    endloop
  endfacet
  facet normal 0 -0.406725 -0.913551
    outer loop
      vertex -12.6791 0.332658 20.565
      vertex -19 0.940456 20.2944
      vertex -12.6408 0.940456 20.2944
    endloop
  endfacet
  facet normal 0 -0.406725 -0.913551
    outer loop
      vertex 12.6791 0.332658 20.565
      vertex 19 0.940456 20.2944
      vertex 19 0.332658 20.565
    endloop
  endfacet
  facet normal -0 -0.406725 -0.913551
    outer loop
      vertex 19 0.940456 20.2944
      vertex 12.6791 0.332658 20.565
      vertex 12.6408 0.940456 20.2944
    endloop
  endfacet
  facet normal 0 -0.951065 -0.308991
    outer loop
      vertex -19 1.59123 19.1672
      vertex -12.6128 1.38564 19.8
      vertex -19 1.38564 19.8
    endloop
  endfacet
  facet normal 0 -0.951065 -0.308991
    outer loop
      vertex -12.6128 1.38564 19.8
      vertex -19 1.59123 19.1672
      vertex -12.5999 1.59123 19.1672
    endloop
  endfacet
  facet normal -0 -0.951065 -0.308991
    outer loop
      vertex 19 1.59123 19.1672
      vertex 12.6128 1.38564 19.8
      vertex 12.5999 1.59123 19.1672
    endloop
  endfacet
  facet normal 0 -0.951065 -0.308991
    outer loop
      vertex 12.6128 1.38564 19.8
      vertex 19 1.59123 19.1672
      vertex 19 1.38564 19.8
    endloop
  endfacet
  facet normal 0 0.951065 -0.308991
    outer loop
      vertex -19 -1.59123 19.1672
      vertex -12.6128 -1.38564 19.8
      vertex -12.5999 -1.59123 19.1672
    endloop
  endfacet
  facet normal 0 0.951065 -0.308991
    outer loop
      vertex -12.6128 -1.38564 19.8
      vertex -19 -1.59123 19.1672
      vertex -19 -1.38564 19.8
    endloop
  endfacet
  facet normal 0 0.951065 -0.308991
    outer loop
      vertex 19 -1.59123 19.1672
      vertex 12.6128 -1.38564 19.8
      vertex 19 -1.38564 19.8
    endloop
  endfacet
  facet normal 0 0.951065 -0.308991
    outer loop
      vertex 12.6128 -1.38564 19.8
      vertex 19 -1.59123 19.1672
      vertex 12.5999 -1.59123 19.1672
    endloop
  endfacet
  facet normal 0 0.406725 -0.913551
    outer loop
      vertex -19 -0.940456 20.2944
      vertex -12.6791 -0.332658 20.565
      vertex -12.6408 -0.940456 20.2944
    endloop
  endfacet
  facet normal 0 0.406725 -0.913551
    outer loop
      vertex -12.6791 -0.332658 20.565
      vertex -19 -0.940456 20.2944
      vertex -19 -0.332658 20.565
    endloop
  endfacet
  facet normal 0 0.406725 -0.913551
    outer loop
      vertex 19 -0.940456 20.2944
      vertex 12.6791 -0.332658 20.565
      vertex 19 -0.332658 20.565
    endloop
  endfacet
  facet normal 0 0.406725 -0.913551
    outer loop
      vertex 12.6791 -0.332658 20.565
      vertex 19 -0.940456 20.2944
      vertex 12.6408 -0.940456 20.2944
    endloop
  endfacet
  facet normal 0 -0.866031 0.49999
    outer loop
      vertex -12.6252 1.18903 17.9294
      vertex -19 1.52169 18.5056
      vertex -19 1.18903 17.9294
    endloop
  endfacet
  facet normal 0 -0.866031 0.49999
    outer loop
      vertex -19 1.52169 18.5056
      vertex -12.6252 1.18903 17.9294
      vertex -12.6043 1.52169 18.5056
    endloop
  endfacet
  facet normal 0 -0.866031 0.49999
    outer loop
      vertex 12.6252 1.18903 17.9294
      vertex 19 1.52169 18.5056
      vertex 12.6043 1.52169 18.5056
    endloop
  endfacet
  facet normal 0 -0.866031 0.49999
    outer loop
      vertex 19 1.52169 18.5056
      vertex 12.6252 1.18903 17.9294
      vertex 19 1.18903 17.9294
    endloop
  endfacet
  facet normal 0 0.587822 0.808991
    outer loop
      vertex -19 -1.18903 17.9294
      vertex -12.6591 -0.650778 17.5383
      vertex -19 -0.650778 17.5383
    endloop
  endfacet
  facet normal 0 0.587822 0.808991
    outer loop
      vertex -12.6591 -0.650778 17.5383
      vertex -19 -1.18903 17.9294
      vertex -12.6252 -1.18903 17.9294
    endloop
  endfacet
  facet normal -0 0.587822 0.808991
    outer loop
      vertex 12.6591 -0.650778 17.5383
      vertex 19 -1.18903 17.9294
      vertex 19 -0.650778 17.5383
    endloop
  endfacet
  facet normal 0 0.587822 0.808991
    outer loop
      vertex 19 -1.18903 17.9294
      vertex 12.6591 -0.650778 17.5383
      vertex 12.6252 -1.18903 17.9294
    endloop
  endfacet
  facet normal 0 0.207873 0.978156
    outer loop
      vertex -19 -0.650778 17.5383
      vertex -12.7 0 17.4
      vertex -19 0 17.4
    endloop
  endfacet
  facet normal 0 0.207873 0.978156
    outer loop
      vertex -12.7 0 17.4
      vertex -19 -0.650778 17.5383
      vertex -12.6591 -0.650778 17.5383
    endloop
  endfacet
  facet normal -0 0.207873 0.978156
    outer loop
      vertex 12.7 0 17.4
      vertex 19 -0.650778 17.5383
      vertex 19 0 17.4
    endloop
  endfacet
  facet normal 0 0.207873 0.978156
    outer loop
      vertex 19 -0.650778 17.5383
      vertex 12.7 0 17.4
      vertex 12.6591 -0.650778 17.5383
    endloop
  endfacet
endsolid OpenSCAD_Model
