solid model
  facet normal -1 -0 0
    outer loop
      vertex 0 0 0
      vertex 0 0 12
      vertex 0 4.75 12
    endloop
  endfacet
  facet normal -0 0 -1
    outer loop
      vertex 0 0 0
      vertex 0 4.75 0
      vertex 17.5 4.75 0
    endloop
  endfacet
  facet normal -1 0 0
    outer loop
      vertex 0 0 0
      vertex 0 4.75 12
      vertex 0 4.75 0
    endloop
  endfacet
  facet normal 0 0 -1
    outer loop
      vertex 0 0 0
      vertex 17.5 4.75 0
      vertex 27.4 0 0
    endloop
  endfacet
  facet normal 0 -1 0
    outer loop
      vertex 0 0 0
      vertex 2.9948 0 5.57378
      vertex 0 0 12
    endloop
  endfacet
  facet normal 0 -1 0
    outer loop
      vertex 0 0 0
      vertex 27.4 0 0
      vertex 5.63348 0 4.05033
    endloop
  endfacet
  facet normal 0 -1 -0
    outer loop
      vertex 0 0 0
      vertex 3.34151 0 4.79504
      vertex 2.9948 0 5.57378
    endloop
  endfacet
  facet normal 0 -1 -0
    outer loop
      vertex 0 0 0
      vertex 3.975 0 4.22465
      vertex 3.34151 0 4.79504
    endloop
  endfacet
  facet normal 0 -1 -0
    outer loop
      vertex 0 0 0
      vertex 4.78572 0 3.96123
      vertex 3.975 0 4.22465
    endloop
  endfacet
  facet normal 0 -1 0
    outer loop
      vertex 0 0 0
      vertex 5.63348 0 4.05033
      vertex 4.78572 0 3.96123
    endloop
  endfacet
  facet normal 0 0 1
    outer loop
      vertex 0 0 12
      vertex 17.5 4.75 12
      vertex 0 4.75 12
    endloop
  endfacet
  facet normal 0 -1 0
    outer loop
      vertex 0 0 12
      vertex 2.9948 0 5.57378
      vertex 2.9948 0 6.42622
    endloop
  endfacet
  facet normal 0 -1 0
    outer loop
      vertex 0 0 12
      vertex 2.9948 0 6.42622
      vertex 3.34151 0 7.20496
    endloop
  endfacet
  facet normal 0 0 1
    outer loop
      vertex 0 0 12
      vertex 27.4 0 12
      vertex 17.5 4.75 12
    endloop
  endfacet
  facet normal 0 -1 0
    outer loop
      vertex 0 0 12
      vertex 3.34151 0 7.20496
      vertex 3.975 0 7.77535
    endloop
  endfacet
  facet normal 0 -1 0
    outer loop
      vertex 0 0 12
      vertex 3.975 0 7.77535
      vertex 4.78572 0 8.03877
    endloop
  endfacet
  facet normal 0 -1 0
    outer loop
      vertex 0 0 12
      vertex 4.78572 0 8.03877
      vertex 5.63348 0 7.94967
    endloop
  endfacet
  facet normal 0 -1 0
    outer loop
      vertex 0 0 12
      vertex 5.63348 0 7.94967
      vertex 27.4 0 12
    endloop
  endfacet
  facet normal -1 -0 0
    outer loop
      vertex 0 30.25 0
      vertex 0 30.25 12
      vertex 0 35 12
    endloop
  endfacet
  facet normal 0 0 -1
    outer loop
      vertex 0 30.25 0
      vertex 0 35 0
      vertex 17.5 30.25 0
    endloop
  endfacet
  facet normal -1 0 0
    outer loop
      vertex 0 30.25 0
      vertex 0 35 12
      vertex 0 35 0
    endloop
  endfacet
  facet normal 0 -1 0
    outer loop
      vertex 0 30.25 0
      vertex 17.5 30.25 0
      vertex 5.63348 30.25 4.05033
    endloop
  endfacet
  facet normal 0 -1 0
    outer loop
      vertex 0 30.25 0
      vertex 2.9948 30.25 5.57378
      vertex 0 30.25 12
    endloop
  endfacet
  facet normal 0 -1 -0
    outer loop
      vertex 0 30.25 0
      vertex 3.34151 30.25 4.79504
      vertex 2.9948 30.25 5.57378
    endloop
  endfacet
  facet normal 0 -1 -0
    outer loop
      vertex 0 30.25 0
      vertex 3.975 30.25 4.22465
      vertex 3.34151 30.25 4.79504
    endloop
  endfacet
  facet normal 0 -1 -0
    outer loop
      vertex 0 30.25 0
      vertex 4.78572 30.25 3.96123
      vertex 3.975 30.25 4.22465
    endloop
  endfacet
  facet normal 0 -1 0
    outer loop
      vertex 0 30.25 0
      vertex 5.63348 30.25 4.05033
      vertex 4.78572 30.25 3.96123
    endloop
  endfacet
  facet normal 0 0 1
    outer loop
      vertex 0 30.25 12
      vertex 17.5 30.25 12
      vertex 0 35 12
    endloop
  endfacet
  facet normal 0 -1 0
    outer loop
      vertex 0 30.25 12
      vertex 2.9948 30.25 5.57378
      vertex 2.9948 30.25 6.42622
    endloop
  endfacet
  facet normal 0 -1 0
    outer loop
      vertex 0 30.25 12
      vertex 2.9948 30.25 6.42622
      vertex 3.34151 30.25 7.20496
    endloop
  endfacet
  facet normal 0 -1 0
    outer loop
      vertex 0 30.25 12
      vertex 3.34151 30.25 7.20496
      vertex 3.975 30.25 7.77535
    endloop
  endfacet
  facet normal 0 -1 0
    outer loop
      vertex 0 30.25 12
      vertex 3.975 30.25 7.77535
      vertex 4.78572 30.25 8.03877
    endloop
  endfacet
  facet normal 0 -1 0
    outer loop
      vertex 0 30.25 12
      vertex 4.78572 30.25 8.03877
      vertex 5.63348 30.25 7.94967
    endloop
  endfacet
  facet normal 0 -1 0
    outer loop
      vertex 0 30.25 12
      vertex 5.63348 30.25 7.94967
      vertex 17.5 30.25 12
    endloop
  endfacet
  facet normal 0 1 0
    outer loop
      vertex 0 35 0
      vertex 0 35 12
      vertex 2.9948 35 5.57378
    endloop
  endfacet
  facet normal 0 1 0
    outer loop
      vertex 0 35 0
      vertex 2.9948 35 5.57378
      vertex 3.34151 35 4.79504
    endloop
  endfacet
  facet normal 0 0 -1
    outer loop
      vertex 0 35 0
      vertex 21.2286 35 0
      vertex 17.5 30.25 0
    endloop
  endfacet
  facet normal 0 1 0
    outer loop
      vertex 0 35 0
      vertex 3.34151 35 4.79504
      vertex 3.975 35 4.22465
    endloop
  endfacet
  facet normal 0 1 0
    outer loop
      vertex 0 35 0
      vertex 3.975 35 4.22465
      vertex 4.78572 35 3.96123
    endloop
  endfacet
  facet normal 0 1 0
    outer loop
      vertex 0 35 0
      vertex 4.78572 35 3.96123
      vertex 5.63348 35 4.05033
    endloop
  endfacet
  facet normal 0 1 0
    outer loop
      vertex 0 35 0
      vertex 5.63348 35 4.05033
      vertex 21.2286 35 0
    endloop
  endfacet
  facet normal -0 0 1
    outer loop
      vertex 0 35 12
      vertex 17.5 30.25 12
      vertex 21.2286 35 12
    endloop
  endfacet
  facet normal 0 1 -0
    outer loop
      vertex 0 35 12
      vertex 2.9948 35 6.42622
      vertex 2.9948 35 5.57378
    endloop
  endfacet
  facet normal 0 1 -0
    outer loop
      vertex 0 35 12
      vertex 21.2286 35 12
      vertex 5.63348 35 7.94967
    endloop
  endfacet
  facet normal 0 1 -0
    outer loop
      vertex 0 35 12
      vertex 3.34151 35 7.20496
      vertex 2.9948 35 6.42622
    endloop
  endfacet
  facet normal 0 1 -0
    outer loop
      vertex 0 35 12
      vertex 3.975 35 7.77535
      vertex 3.34151 35 7.20496
    endloop
  endfacet
  facet normal 0 1 -0
    outer loop
      vertex 0 35 12
      vertex 4.78572 35 8.03877
      vertex 3.975 35 7.77535
    endloop
  endfacet
  facet normal 0 1 0
    outer loop
      vertex 0 35 12
      vertex 5.63348 35 7.94967
      vertex 4.78572 35 8.03877
    endloop
  endfacet
  facet normal 0 1 0
    outer loop
      vertex 0 4.75 0
      vertex 0 4.75 12
      vertex 2.9948 4.75 5.57378
    endloop
  endfacet
  facet normal 0 1 0
    outer loop
      vertex 0 4.75 0
      vertex 2.9948 4.75 5.57378
      vertex 3.34151 4.75 4.79504
    endloop
  endfacet
  facet normal 0 1 0
    outer loop
      vertex 0 4.75 0
      vertex 3.34151 4.75 4.79504
      vertex 3.975 4.75 4.22465
    endloop
  endfacet
  facet normal 0 1 0
    outer loop
      vertex 0 4.75 0
      vertex 3.975 4.75 4.22465
      vertex 4.78572 4.75 3.96123
    endloop
  endfacet
  facet normal 0 1 0
    outer loop
      vertex 0 4.75 0
      vertex 4.78572 4.75 3.96123
      vertex 5.63348 4.75 4.05033
    endloop
  endfacet
  facet normal 0 1 0
    outer loop
      vertex 0 4.75 0
      vertex 5.63348 4.75 4.05033
      vertex 17.5 4.75 0
    endloop
  endfacet
  facet normal 0 1 -0
    outer loop
      vertex 0 4.75 12
      vertex 17.5 4.75 12
      vertex 5.63348 4.75 7.94967
    endloop
  endfacet
  facet normal 0 1 -0
    outer loop
      vertex 0 4.75 12
      vertex 2.9948 4.75 6.42622
      vertex 2.9948 4.75 5.57378
    endloop
  endfacet
  facet normal 0 1 -0
    outer loop
      vertex 0 4.75 12
      vertex 3.34151 4.75 7.20496
      vertex 2.9948 4.75 6.42622
    endloop
  endfacet
  facet normal 0 1 -0
    outer loop
      vertex 0 4.75 12
      vertex 3.975 4.75 7.77535
      vertex 3.34151 4.75 7.20496
    endloop
  endfacet
  facet normal 0 1 -0
    outer loop
      vertex 0 4.75 12
      vertex 4.78572 4.75 8.03877
      vertex 3.975 4.75 7.77535
    endloop
  endfacet
  facet normal 0 1 0
    outer loop
      vertex 0 4.75 12
      vertex 5.63348 4.75 7.94967
      vertex 4.78572 4.75 8.03877
    endloop
  endfacet
  facet normal 0 0 -1
    outer loop
      vertex 17.5 30.25 0
      vertex 21.2286 35 0
      vertex 24.1862 28.3333 0
    endloop
  endfacet
  facet normal 0 0 -1
    outer loop
      vertex 17.5 30.25 0
      vertex 24.1862 28.3333 0
      vertex 24.2326 27.0053 0
    endloop
  endfacet
  facet normal 0 0 -1
    outer loop
      vertex 17.5 30.25 0
      vertex 24.2326 27.0053 0
      vertex 25.0507 25.9582 0
    endloop
  endfacet
  facet normal -0 0 1
    outer loop
      vertex 17.5 30.25 12
      vertex 24.1862 28.3333 12
      vertex 21.2286 35 12
    endloop
  endfacet
  facet normal 0 0 1
    outer loop
      vertex 17.5 30.25 12
      vertex 24.2326 27.0053 12
      vertex 24.1862 28.3333 12
    endloop
  endfacet
  facet normal 0 0 1
    outer loop
      vertex 17.5 30.25 12
      vertex 25.0507 25.9582 12
      vertex 24.2326 27.0053 12
    endloop
  endfacet
  facet normal 0 0 -1
    outer loop
      vertex 17.5 4.75 0
      vertex 17.5 30.25 0
      vertex 25.0507 25.9582 0
    endloop
  endfacet
  facet normal -1 0 0
    outer loop
      vertex 17.5 4.75 0
      vertex 17.5 30.25 12
      vertex 17.5 30.25 0
    endloop
  endfacet
  facet normal -1 -0 0
    outer loop
      vertex 17.5 4.75 0
      vertex 17.5 4.75 12
      vertex 17.5 30.25 12
    endloop
  endfacet
  facet normal -0 0 -1
    outer loop
      vertex 17.5 4.75 0
      vertex 25.0507 25.9582 0
      vertex 31.0267 9.53942 0
    endloop
  endfacet
  facet normal 0 0 -1
    outer loop
      vertex 17.5 4.75 0
      vertex 31.0267 9.53942 0
      vertex 31.073 8.21146 0
    endloop
  endfacet
  facet normal 0 0 -1
    outer loop
      vertex 17.5 4.75 0
      vertex 31.073 8.21146 0
      vertex 27.4 0 0
    endloop
  endfacet
  facet normal 0 0 1
    outer loop
      vertex 17.5 4.75 12
      vertex 25.0507 25.9582 12
      vertex 17.5 30.25 12
    endloop
  endfacet
  facet normal 0 0 1
    outer loop
      vertex 17.5 4.75 12
      vertex 27.4 0 12
      vertex 31.073 8.21146 12
    endloop
  endfacet
  facet normal 0 0 1
    outer loop
      vertex 17.5 4.75 12
      vertex 31.0267 9.53942 12
      vertex 25.0507 25.9582 12
    endloop
  endfacet
  facet normal 0 0 1
    outer loop
      vertex 17.5 4.75 12
      vertex 31.073 8.21146 12
      vertex 31.0267 9.53942 12
    endloop
  endfacet
  facet normal 1 0 0
    outer loop
      vertex 2.9948 0 5.57378
      vertex 2.9948 4.75 5.57378
      vertex 2.9948 0 6.42622
    endloop
  endfacet
  facet normal 0.913549 0 0.406729
    outer loop
      vertex 2.9948 0 5.57378
      vertex 3.34151 0 4.79504
      vertex 3.34151 4.75 4.79504
    endloop
  endfacet
  facet normal 0.913549 -0 0.406729
    outer loop
      vertex 2.9948 0 5.57378
      vertex 3.34151 4.75 4.79504
      vertex 2.9948 4.75 5.57378
    endloop
  endfacet
  facet normal 1 -0 0
    outer loop
      vertex 2.9948 0 6.42622
      vertex 2.9948 4.75 5.57378
      vertex 2.9948 4.75 6.42622
    endloop
  endfacet
  facet normal 0.913549 0 -0.406729
    outer loop
      vertex 2.9948 0 6.42622
      vertex 2.9948 4.75 6.42622
      vertex 3.34151 0 7.20496
    endloop
  endfacet
  facet normal 1 0 0
    outer loop
      vertex 2.9948 30.25 5.57378
      vertex 2.9948 35 5.57378
      vertex 2.9948 30.25 6.42622
    endloop
  endfacet
  facet normal 0.913549 0 0.406729
    outer loop
      vertex 2.9948 30.25 5.57378
      vertex 3.34151 30.25 4.79504
      vertex 3.34151 35 4.79504
    endloop
  endfacet
  facet normal 0.913549 -0 0.406729
    outer loop
      vertex 2.9948 30.25 5.57378
      vertex 3.34151 35 4.79504
      vertex 2.9948 35 5.57378
    endloop
  endfacet
  facet normal 1 -0 0
    outer loop
      vertex 2.9948 30.25 6.42622
      vertex 2.9948 35 5.57378
      vertex 2.9948 35 6.42622
    endloop
  endfacet
  facet normal 0.913549 0 -0.406729
    outer loop
      vertex 2.9948 30.25 6.42622
      vertex 2.9948 35 6.42622
      vertex 3.34151 30.25 7.20496
    endloop
  endfacet
  facet normal 0.913549 0 -0.406729
    outer loop
      vertex 2.9948 35 6.42622
      vertex 3.34151 35 7.20496
      vertex 3.34151 30.25 7.20496
    endloop
  endfacet
  facet normal 0.913549 0 -0.406729
    outer loop
      vertex 2.9948 4.75 6.42622
      vertex 3.34151 4.75 7.20496
      vertex 3.34151 0 7.20496
    endloop
  endfacet
  facet normal -0.342026 0.939691 0
    outer loop
      vertex 21.2286 35 0
      vertex 21.2286 35 12
      vertex 28.9703 37.8178 0
    endloop
  endfacet
  facet normal 0 0 -1
    outer loop
      vertex 21.2286 35 0
      vertex 24.9293 29.4349 0
      vertex 24.1862 28.3333 0
    endloop
  endfacet
  facet normal 0 0 -1
    outer loop
      vertex 21.2286 35 0
      vertex 26.1779 29.8893 0
      vertex 24.9293 29.4349 0
    endloop
  endfacet
  facet normal 0 0 -1
    outer loop
      vertex 21.2286 35 0
      vertex 28.9703 37.8178 0
      vertex 26.1779 29.8893 0
    endloop
  endfacet
  facet normal 0 0 1
    outer loop
      vertex 21.2286 35 12
      vertex 24.1862 28.3333 12
      vertex 24.9293 29.4349 12
    endloop
  endfacet
  facet normal 0 0 1
    outer loop
      vertex 21.2286 35 12
      vertex 24.9293 29.4349 12
      vertex 26.1779 29.8893 12
    endloop
  endfacet
  facet normal -0 0 1
    outer loop
      vertex 21.2286 35 12
      vertex 26.1779 29.8893 12
      vertex 28.9703 37.8178 12
    endloop
  endfacet
  facet normal -0.342026 0.939691 0
    outer loop
      vertex 21.2286 35 12
      vertex 28.9703 37.8178 12
      vertex 28.9703 37.8178 0
    endloop
  endfacet
  facet normal 0.99939 0.0349185 0
    outer loop
      vertex 24.1862 28.3333 0
      vertex 24.1862 28.3333 12
      vertex 24.2326 27.0053 12
    endloop
  endfacet
  facet normal 0.99939 0.0349185 0
    outer loop
      vertex 24.1862 28.3333 0
      vertex 24.2326 27.0053 12
      vertex 24.2326 27.0053 0
    endloop
  endfacet
  facet normal 0.829016 -0.559225 0
    outer loop
      vertex 24.1862 28.3333 0
      vertex 24.9293 29.4349 0
      vertex 24.1862 28.3333 12
    endloop
  endfacet
  facet normal 0.829016 -0.559225 0
    outer loop
      vertex 24.1862 28.3333 12
      vertex 24.9293 29.4349 0
      vertex 24.9293 29.4349 12
    endloop
  endfacet
  facet normal 0.788005 0.615669 0
    outer loop
      vertex 24.2326 27.0053 0
      vertex 24.2326 27.0053 12
      vertex 25.0507 25.9582 12
    endloop
  endfacet
  facet normal 0.788005 0.615669 0
    outer loop
      vertex 24.2326 27.0053 0
      vertex 25.0507 25.9582 12
      vertex 25.0507 25.9582 0
    endloop
  endfacet
  facet normal 0.341985 -0.939705 0
    outer loop
      vertex 24.9293 29.4349 0
      vertex 26.1779 29.8893 0
      vertex 26.1779 29.8893 12
    endloop
  endfacet
  facet normal 0.341985 -0.939705 0
    outer loop
      vertex 24.9293 29.4349 0
      vertex 26.1779 29.8893 12
      vertex 24.9293 29.4349 12
    endloop
  endfacet
  facet normal 0.275596 0.961274 0
    outer loop
      vertex 25.0507 25.9582 0
      vertex 25.0507 25.9582 12
      vertex 26.328 25.592 0
    endloop
  endfacet
  facet normal 0 0 -1
    outer loop
      vertex 25.0507 25.9582 0
      vertex 26.328 25.592 0
      vertex 31.0267 9.53942 0
    endloop
  endfacet
  facet normal 0.275596 0.961274 -0
    outer loop
      vertex 25.0507 25.9582 12
      vertex 26.328 25.592 12
      vertex 26.328 25.592 0
    endloop
  endfacet
  facet normal 0 0 1
    outer loop
      vertex 25.0507 25.9582 12
      vertex 31.0267 9.53942 12
      vertex 26.328 25.592 12
    endloop
  endfacet
  facet normal -0.275596 -0.961274 -0
    outer loop
      vertex 26.1779 29.8893 0
      vertex 27.4552 29.5231 0
      vertex 27.4552 29.5231 12
    endloop
  endfacet
  facet normal -0.275596 -0.961274 0
    outer loop
      vertex 26.1779 29.8893 0
      vertex 27.4552 29.5231 12
      vertex 26.1779 29.8893 12
    endloop
  endfacet
  facet normal 0 0 -1
    outer loop
      vertex 26.1779 29.8893 0
      vertex 28.9703 37.8178 0
      vertex 27.4552 29.5231 0
    endloop
  endfacet
  facet normal 0 0 1
    outer loop
      vertex 26.1779 29.8893 12
      vertex 27.4552 29.5231 12
      vertex 28.9703 37.8178 12
    endloop
  endfacet
  facet normal -0.341985 0.939705 0
    outer loop
      vertex 26.328 25.592 0
      vertex 26.328 25.592 12
      vertex 27.5766 26.0464 0
    endloop
  endfacet
  facet normal 0 0 -1
    outer loop
      vertex 26.328 25.592 0
      vertex 27.5766 26.0464 0
      vertex 31.0267 9.53942 0
    endloop
  endfacet
  facet normal -0.341985 0.939705 0
    outer loop
      vertex 26.328 25.592 12
      vertex 27.5766 26.0464 12
      vertex 27.5766 26.0464 0
    endloop
  endfacet
  facet normal 0 0 1
    outer loop
      vertex 26.328 25.592 12
      vertex 31.0267 9.53942 12
      vertex 31.7697 10.641 12
    endloop
  endfacet
  facet normal -0 0 1
    outer loop
      vertex 26.328 25.592 12
      vertex 31.7697 10.641 12
      vertex 27.5766 26.0464 12
    endloop
  endfacet
  facet normal 0 0 -1
    outer loop
      vertex 27.4 0 0
      vertex 31.073 8.21146 0
      vertex 31.8911 7.16437 0
    endloop
  endfacet
  facet normal 0 0 -1
    outer loop
      vertex 27.4 0 0
      vertex 31.8911 7.16437 0
      vertex 33.1684 6.79811 0
    endloop
  endfacet
  facet normal 0 0 -1
    outer loop
      vertex 27.4 0 0
      vertex 33.1684 6.79811 0
      vertex 40.941 4.92851 0
    endloop
  endfacet
  facet normal 0.342019 -0.939693 0
    outer loop
      vertex 27.4 0 0
      vertex 40.941 4.92851 0
      vertex 40.941 4.92851 12
    endloop
  endfacet
  facet normal 0.342019 -0.939693 0
    outer loop
      vertex 27.4 0 0
      vertex 40.941 4.92851 12
      vertex 27.4 0 12
    endloop
  endfacet
  facet normal 0 0 1
    outer loop
      vertex 27.4 0 12
      vertex 31.8911 7.16437 12
      vertex 31.073 8.21146 12
    endloop
  endfacet
  facet normal 0 0 1
    outer loop
      vertex 27.4 0 12
      vertex 33.1684 6.79811 12
      vertex 31.8911 7.16437 12
    endloop
  endfacet
  facet normal 0 0 1
    outer loop
      vertex 27.4 0 12
      vertex 40.941 4.92851 12
      vertex 33.1684 6.79811 12
    endloop
  endfacet
  facet normal -0.788005 -0.615669 0
    outer loop
      vertex 27.4552 29.5231 0
      vertex 28.2733 28.476 0
      vertex 27.4552 29.5231 12
    endloop
  endfacet
  facet normal 0 0 -1
    outer loop
      vertex 27.4552 29.5231 0
      vertex 28.9703 37.8178 0
      vertex 28.2733 28.476 0
    endloop
  endfacet
  facet normal -0.788005 -0.615669 0
    outer loop
      vertex 27.4552 29.5231 12
      vertex 28.2733 28.476 0
      vertex 28.2733 28.476 12
    endloop
  endfacet
  facet normal 0 0 1
    outer loop
      vertex 27.4552 29.5231 12
      vertex 28.2733 28.476 12
      vertex 28.9703 37.8178 12
    endloop
  endfacet
  facet normal -0.829016 0.559225 0
    outer loop
      vertex 27.5766 26.0464 0
      vertex 27.5766 26.0464 12
      vertex 28.3197 27.148 12
    endloop
  endfacet
  facet normal 0 0 -1
    outer loop
      vertex 27.5766 26.0464 0
      vertex 28.3197 27.148 0
      vertex 31.0267 9.53942 0
    endloop
  endfacet
  facet normal -0.829016 0.559225 0
    outer loop
      vertex 27.5766 26.0464 0
      vertex 28.3197 27.148 12
      vertex 28.3197 27.148 0
    endloop
  endfacet
  facet normal 0 0 1
    outer loop
      vertex 27.5766 26.0464 12
      vertex 31.7697 10.641 12
      vertex 33.0183 11.0955 12
    endloop
  endfacet
  facet normal -0 0 1
    outer loop
      vertex 27.5766 26.0464 12
      vertex 33.0183 11.0955 12
      vertex 28.3197 27.148 12
    endloop
  endfacet
  facet normal -0.99939 -0.0349185 0
    outer loop
      vertex 28.2733 28.476 0
      vertex 28.3197 27.148 0
      vertex 28.2733 28.476 12
    endloop
  endfacet
  facet normal 0 0 -1
    outer loop
      vertex 28.2733 28.476 0
      vertex 28.9703 37.8178 0
      vertex 28.3197 27.148 0
    endloop
  endfacet
  facet normal -0.99939 -0.0349185 0
    outer loop
      vertex 28.2733 28.476 12
      vertex 28.3197 27.148 0
      vertex 28.3197 27.148 12
    endloop
  endfacet
  facet normal 0 0 1
    outer loop
      vertex 28.2733 28.476 12
      vertex 28.3197 27.148 12
      vertex 40.941 4.92851 12
    endloop
  endfacet
  facet normal -0 0 1
    outer loop
      vertex 28.2733 28.476 12
      vertex 40.941 4.92851 12
      vertex 28.9703 37.8178 12
    endloop
  endfacet
  facet normal 0 0 -1
    outer loop
      vertex 28.3197 27.148 0
      vertex 28.9703 37.8178 0
      vertex 31.0267 9.53942 0
    endloop
  endfacet
  facet normal 0 0 1
    outer loop
      vertex 28.3197 27.148 12
      vertex 33.0183 11.0955 12
      vertex 34.2956 10.7292 12
    endloop
  endfacet
  facet normal 0 0 1
    outer loop
      vertex 28.3197 27.148 12
      vertex 34.2956 10.7292 12
      vertex 40.941 4.92851 12
    endloop
  endfacet
  facet normal 0.939693 0.34202 0
    outer loop
      vertex 28.9703 37.8178 0
      vertex 28.9703 37.8178 12
      vertex 40.941 4.92851 12
    endloop
  endfacet
  facet normal 0 0 -1
    outer loop
      vertex 28.9703 37.8178 0
      vertex 31.7697 10.641 0
      vertex 31.0267 9.53942 0
    endloop
  endfacet
  facet normal 0 0 -1
    outer loop
      vertex 28.9703 37.8178 0
      vertex 33.0183 11.0955 0
      vertex 31.7697 10.641 0
    endloop
  endfacet
  facet normal 0 0 -1
    outer loop
      vertex 28.9703 37.8178 0
      vertex 34.2956 10.7292 0
      vertex 33.0183 11.0955 0
    endloop
  endfacet
  facet normal 0 0 -1
    outer loop
      vertex 28.9703 37.8178 0
      vertex 40.941 4.92851 0
      vertex 34.2956 10.7292 0
    endloop
  endfacet
  facet normal 0.939693 0.34202 0
    outer loop
      vertex 28.9703 37.8178 0
      vertex 40.941 4.92851 12
      vertex 40.941 4.92851 0
    endloop
  endfacet
  facet normal 0.669126 0 0.743149
    outer loop
      vertex 3.34151 0 4.79504
      vertex 3.975 0 4.22465
      vertex 3.34151 4.75 4.79504
    endloop
  endfacet
  facet normal 0.669126 0 -0.743149
    outer loop
      vertex 3.34151 0 7.20496
      vertex 3.34151 4.75 7.20496
      vertex 3.975 4.75 7.77535
    endloop
  endfacet
  facet normal 0.669126 0 -0.743149
    outer loop
      vertex 3.34151 0 7.20496
      vertex 3.975 4.75 7.77535
      vertex 3.975 0 7.77535
    endloop
  endfacet
  facet normal 0.669126 0 0.743149
    outer loop
      vertex 3.34151 30.25 4.79504
      vertex 3.975 30.25 4.22465
      vertex 3.34151 35 4.79504
    endloop
  endfacet
  facet normal 0.669126 0 -0.743149
    outer loop
      vertex 3.34151 30.25 7.20496
      vertex 3.34151 35 7.20496
      vertex 3.975 35 7.77535
    endloop
  endfacet
  facet normal 0.669126 0 -0.743149
    outer loop
      vertex 3.34151 30.25 7.20496
      vertex 3.975 35 7.77535
      vertex 3.975 30.25 7.77535
    endloop
  endfacet
  facet normal 0.669126 0 0.743149
    outer loop
      vertex 3.34151 35 4.79504
      vertex 3.975 30.25 4.22465
      vertex 3.975 35 4.22465
    endloop
  endfacet
  facet normal 0.669126 0 0.743149
    outer loop
      vertex 3.34151 4.75 4.79504
      vertex 3.975 0 4.22465
      vertex 3.975 4.75 4.22465
    endloop
  endfacet
  facet normal 0.309018 0 0.951056
    outer loop
      vertex 3.975 0 4.22465
      vertex 4.78572 0 3.96123
      vertex 3.975 4.75 4.22465
    endloop
  endfacet
  facet normal 0.309018 0 -0.951056
    outer loop
      vertex 3.975 0 7.77535
      vertex 3.975 4.75 7.77535
      vertex 4.78572 4.75 8.03877
    endloop
  endfacet
  facet normal 0.309018 0 -0.951056
    outer loop
      vertex 3.975 0 7.77535
      vertex 4.78572 4.75 8.03877
      vertex 4.78572 0 8.03877
    endloop
  endfacet
  facet normal 0.309018 0 0.951056
    outer loop
      vertex 3.975 30.25 4.22465
      vertex 4.78572 30.25 3.96123
      vertex 3.975 35 4.22465
    endloop
  endfacet
  facet normal 0.309018 0 -0.951056
    outer loop
      vertex 3.975 30.25 7.77535
      vertex 3.975 35 7.77535
      vertex 4.78572 35 8.03877
    endloop
  endfacet
  facet normal 0.309018 0 -0.951056
    outer loop
      vertex 3.975 30.25 7.77535
      vertex 4.78572 35 8.03877
      vertex 4.78572 30.25 8.03877
    endloop
  endfacet
  facet normal 0.309018 0 0.951056
    outer loop
      vertex 3.975 35 4.22465
      vertex 4.78572 30.25 3.96123
      vertex 4.78572 35 3.96123
    endloop
  endfacet
  facet normal 0.309018 0 0.951056
    outer loop
      vertex 3.975 4.75 4.22465
      vertex 4.78572 0 3.96123
      vertex 4.78572 4.75 3.96123
    endloop
  endfacet
  facet normal 0.999393 0.0348443 0
    outer loop
      vertex 31.0267 9.53942 0
      vertex 31.0267 9.53942 12
      vertex 31.073 8.21146 12
    endloop
  endfacet
  facet normal 0.999393 0.0348443 0
    outer loop
      vertex 31.0267 9.53942 0
      vertex 31.073 8.21146 12
      vertex 31.073 8.21146 0
    endloop
  endfacet
  facet normal 0.829046 -0.55918 0
    outer loop
      vertex 31.0267 9.53942 0
      vertex 31.7697 10.641 0
      vertex 31.0267 9.53942 12
    endloop
  endfacet
  facet normal 0.829046 -0.55918 0
    outer loop
      vertex 31.0267 9.53942 12
      vertex 31.7697 10.641 0
      vertex 31.7697 10.641 12
    endloop
  endfacet
  facet normal 0.788002 0.615673 0
    outer loop
      vertex 31.073 8.21146 0
      vertex 31.073 8.21146 12
      vertex 31.8911 7.16437 12
    endloop
  endfacet
  facet normal 0.788002 0.615673 0
    outer loop
      vertex 31.073 8.21146 0
      vertex 31.8911 7.16437 12
      vertex 31.8911 7.16437 0
    endloop
  endfacet
  facet normal 0.342051 -0.939681 0
    outer loop
      vertex 31.7697 10.641 0
      vertex 33.0183 11.0955 0
      vertex 33.0183 11.0955 12
    endloop
  endfacet
  facet normal 0.342051 -0.939681 0
    outer loop
      vertex 31.7697 10.641 0
      vertex 33.0183 11.0955 12
      vertex 31.7697 10.641 12
    endloop
  endfacet
  facet normal 0.275637 0.961262 0
    outer loop
      vertex 31.8911 7.16437 0
      vertex 31.8911 7.16437 12
      vertex 33.1684 6.79811 0
    endloop
  endfacet
  facet normal 0.275637 0.961262 -0
    outer loop
      vertex 31.8911 7.16437 12
      vertex 33.1684 6.79811 12
      vertex 33.1684 6.79811 0
    endloop
  endfacet
  facet normal -0.275665 -0.961254 -0
    outer loop
      vertex 33.0183 11.0955 0
      vertex 34.2956 10.7292 0
      vertex 34.2956 10.7292 12
    endloop
  endfacet
  facet normal -0.275665 -0.961254 0
    outer loop
      vertex 33.0183 11.0955 0
      vertex 34.2956 10.7292 12
      vertex 33.0183 11.0955 12
    endloop
  endfacet
  facet normal -0.342031 0.939689 0
    outer loop
      vertex 33.1684 6.79811 0
      vertex 33.1684 6.79811 12
      vertex 34.417 7.25258 0
    endloop
  endfacet
  facet normal 0 0 -1
    outer loop
      vertex 33.1684 6.79811 0
      vertex 34.417 7.25258 0
      vertex 40.941 4.92851 0
    endloop
  endfacet
  facet normal -0.342031 0.939689 0
    outer loop
      vertex 33.1684 6.79811 12
      vertex 34.417 7.25258 12
      vertex 34.417 7.25258 0
    endloop
  endfacet
  facet normal -0 0 1
    outer loop
      vertex 33.1684 6.79811 12
      vertex 40.941 4.92851 12
      vertex 34.417 7.25258 12
    endloop
  endfacet
  facet normal -0.787991 -0.615687 0
    outer loop
      vertex 34.2956 10.7292 0
      vertex 35.1137 9.68215 0
      vertex 34.2956 10.7292 12
    endloop
  endfacet
  facet normal 0 0 -1
    outer loop
      vertex 34.2956 10.7292 0
      vertex 40.941 4.92851 0
      vertex 35.1137 9.68215 0
    endloop
  endfacet
  facet normal -0.787991 -0.615687 0
    outer loop
      vertex 34.2956 10.7292 12
      vertex 35.1137 9.68215 0
      vertex 35.1137 9.68215 12
    endloop
  endfacet
  facet normal 0 0 1
    outer loop
      vertex 34.2956 10.7292 12
      vertex 35.1137 9.68215 12
      vertex 40.941 4.92851 12
    endloop
  endfacet
  facet normal -0.829016 0.559225 0
    outer loop
      vertex 34.417 7.25258 0
      vertex 34.417 7.25258 12
      vertex 35.1601 8.35418 12
    endloop
  endfacet
  facet normal 0 0 -1
    outer loop
      vertex 34.417 7.25258 0
      vertex 35.1601 8.35418 0
      vertex 40.941 4.92851 0
    endloop
  endfacet
  facet normal -0.829016 0.559225 0
    outer loop
      vertex 34.417 7.25258 0
      vertex 35.1601 8.35418 12
      vertex 35.1601 8.35418 0
    endloop
  endfacet
  facet normal -0 0 1
    outer loop
      vertex 34.417 7.25258 12
      vertex 40.941 4.92851 12
      vertex 35.1601 8.35418 12
    endloop
  endfacet
  facet normal -0.99939 -0.0349192 0
    outer loop
      vertex 35.1137 9.68215 0
      vertex 35.1601 8.35418 0
      vertex 35.1137 9.68215 12
    endloop
  endfacet
  facet normal 0 0 -1
    outer loop
      vertex 35.1137 9.68215 0
      vertex 40.941 4.92851 0
      vertex 35.1601 8.35418 0
    endloop
  endfacet
  facet normal -0.99939 -0.0349192 0
    outer loop
      vertex 35.1137 9.68215 12
      vertex 35.1601 8.35418 0
      vertex 35.1601 8.35418 12
    endloop
  endfacet
  facet normal 0 0 1
    outer loop
      vertex 35.1137 9.68215 12
      vertex 35.1601 8.35418 12
      vertex 40.941 4.92851 12
    endloop
  endfacet
  facet normal -0.104525 0 0.994522
    outer loop
      vertex 4.78572 0 3.96123
      vertex 5.63348 0 4.05033
      vertex 4.78572 4.75 3.96123
    endloop
  endfacet
  facet normal -0.104525 0 -0.994522
    outer loop
      vertex 4.78572 0 8.03877
      vertex 4.78572 4.75 8.03877
      vertex 5.63348 4.75 7.94967
    endloop
  endfacet
  facet normal -0.104525 0 -0.994522
    outer loop
      vertex 4.78572 0 8.03877
      vertex 5.63348 4.75 7.94967
      vertex 5.63348 0 7.94967
    endloop
  endfacet
  facet normal -0.104525 0 0.994522
    outer loop
      vertex 4.78572 30.25 3.96123
      vertex 5.63348 30.25 4.05033
      vertex 4.78572 35 3.96123
    endloop
  endfacet
  facet normal -0.104525 0 -0.994522
    outer loop
      vertex 4.78572 30.25 8.03877
      vertex 4.78572 35 8.03877
      vertex 5.63348 35 7.94967
    endloop
  endfacet
  facet normal -0.104525 0 -0.994522
    outer loop
      vertex 4.78572 30.25 8.03877
      vertex 5.63348 35 7.94967
      vertex 5.63348 30.25 7.94967
    endloop
  endfacet
  facet normal -0.104525 0 0.994522
    outer loop
      vertex 4.78572 35 3.96123
      vertex 5.63348 30.25 4.05033
      vertex 5.63348 35 4.05033
    endloop
  endfacet
  facet normal -0.104525 0 0.994522
    outer loop
      vertex 4.78572 4.75 3.96123
      vertex 5.63348 0 4.05033
      vertex 5.63348 4.75 4.05033
    endloop
  endfacet
  facet normal 0 -1 0
    outer loop
      vertex 5.63348 0 4.05033
      vertex 27.4 0 0
      vertex 6.37172 0 4.47655
    endloop
  endfacet
  facet normal -0.499997 0 0.866027
    outer loop
      vertex 5.63348 0 4.05033
      vertex 6.37172 0 4.47655
      vertex 5.63348 4.75 4.05033
    endloop
  endfacet
  facet normal -0.499997 0 -0.866027
    outer loop
      vertex 5.63348 0 7.94967
      vertex 5.63348 4.75 7.94967
      vertex 6.37172 4.75 7.52345
    endloop
  endfacet
  facet normal 0 -1 0
    outer loop
      vertex 5.63348 0 7.94967
      vertex 6.37172 0 7.52345
      vertex 27.4 0 12
    endloop
  endfacet
  facet normal -0.499997 0 -0.866027
    outer loop
      vertex 5.63348 0 7.94967
      vertex 6.37172 4.75 7.52345
      vertex 6.37172 0 7.52345
    endloop
  endfacet
  facet normal 0 -1 0
    outer loop
      vertex 5.63348 30.25 4.05033
      vertex 17.5 30.25 0
      vertex 6.37172 30.25 4.47655
    endloop
  endfacet
  facet normal -0.499997 0 0.866027
    outer loop
      vertex 5.63348 30.25 4.05033
      vertex 6.37172 30.25 4.47655
      vertex 5.63348 35 4.05033
    endloop
  endfacet
  facet normal -0.499997 0 -0.866027
    outer loop
      vertex 5.63348 30.25 7.94967
      vertex 5.63348 35 7.94967
      vertex 6.37172 35 7.52345
    endloop
  endfacet
  facet normal 0 -1 0
    outer loop
      vertex 5.63348 30.25 7.94967
      vertex 6.37172 30.25 7.52345
      vertex 17.5 30.25 12
    endloop
  endfacet
  facet normal -0.499997 0 -0.866027
    outer loop
      vertex 5.63348 30.25 7.94967
      vertex 6.37172 35 7.52345
      vertex 6.37172 30.25 7.52345
    endloop
  endfacet
  facet normal -0.499997 0 0.866027
    outer loop
      vertex 5.63348 35 4.05033
      vertex 6.37172 30.25 4.47655
      vertex 6.37172 35 4.47655
    endloop
  endfacet
  facet normal 0 1 0
    outer loop
      vertex 5.63348 35 4.05033
      vertex 6.37172 35 4.47655
      vertex 21.2286 35 0
    endloop
  endfacet
  facet normal 0 1 0
    outer loop
      vertex 5.63348 35 7.94967
      vertex 21.2286 35 12
      vertex 6.37172 35 7.52345
    endloop
  endfacet
  facet normal -0.499997 0 0.866027
    outer loop
      vertex 5.63348 4.75 4.05033
      vertex 6.37172 0 4.47655
      vertex 6.37172 4.75 4.47655
    endloop
  endfacet
  facet normal 0 1 0
    outer loop
      vertex 5.63348 4.75 4.05033
      vertex 6.37172 4.75 4.47655
      vertex 17.5 4.75 0
    endloop
  endfacet
  facet normal 0 1 0
    outer loop
      vertex 5.63348 4.75 7.94967
      vertex 17.5 4.75 12
      vertex 6.37172 4.75 7.52345
    endloop
  endfacet
  facet normal 0 -1 0
    outer loop
      vertex 6.37172 0 4.47655
      vertex 27.4 0 0
      vertex 6.87277 0 5.16619
    endloop
  endfacet
  facet normal -0.809019 0 0.587783
    outer loop
      vertex 6.37172 0 4.47655
      vertex 6.87277 0 5.16619
      vertex 6.87277 4.75 5.16619
    endloop
  endfacet
  facet normal -0.809019 0 0.587783
    outer loop
      vertex 6.37172 0 4.47655
      vertex 6.87277 4.75 5.16619
      vertex 6.37172 4.75 4.47655
    endloop
  endfacet
  facet normal -0.809019 -0 -0.587783
    outer loop
      vertex 6.37172 0 7.52345
      vertex 6.37172 4.75 7.52345
      vertex 6.87277 0 6.83381
    endloop
  endfacet
  facet normal 0 -1 0
    outer loop
      vertex 6.37172 0 7.52345
      vertex 6.87277 0 6.83381
      vertex 27.4 0 12
    endloop
  endfacet
  facet normal 0 -1 0
    outer loop
      vertex 6.37172 30.25 4.47655
      vertex 17.5 30.25 0
      vertex 6.87277 30.25 5.16619
    endloop
  endfacet
  facet normal -0.809019 0 0.587783
    outer loop
      vertex 6.37172 30.25 4.47655
      vertex 6.87277 30.25 5.16619
      vertex 6.87277 35 5.16619
    endloop
  endfacet
  facet normal -0.809019 0 0.587783
    outer loop
      vertex 6.37172 30.25 4.47655
      vertex 6.87277 35 5.16619
      vertex 6.37172 35 4.47655
    endloop
  endfacet
  facet normal -0.809019 -0 -0.587783
    outer loop
      vertex 6.37172 30.25 7.52345
      vertex 6.37172 35 7.52345
      vertex 6.87277 30.25 6.83381
    endloop
  endfacet
  facet normal 0 -1 0
    outer loop
      vertex 6.37172 30.25 7.52345
      vertex 6.87277 30.25 6.83381
      vertex 17.5 30.25 12
    endloop
  endfacet
  facet normal 0 1 0
    outer loop
      vertex 6.37172 35 4.47655
      vertex 6.87277 35 5.16619
      vertex 21.2286 35 0
    endloop
  endfacet
  facet normal 0 1 0
    outer loop
      vertex 6.37172 35 7.52345
      vertex 21.2286 35 12
      vertex 6.87277 35 6.83381
    endloop
  endfacet
  facet normal -0.809019 0 -0.587783
    outer loop
      vertex 6.37172 35 7.52345
      vertex 6.87277 35 6.83381
      vertex 6.87277 30.25 6.83381
    endloop
  endfacet
  facet normal 0 1 0
    outer loop
      vertex 6.37172 4.75 4.47655
      vertex 6.87277 4.75 5.16619
      vertex 17.5 4.75 0
    endloop
  endfacet
  facet normal 0 1 0
    outer loop
      vertex 6.37172 4.75 7.52345
      vertex 17.5 4.75 12
      vertex 6.87277 4.75 6.83381
    endloop
  endfacet
  facet normal -0.809019 0 -0.587783
    outer loop
      vertex 6.37172 4.75 7.52345
      vertex 6.87277 4.75 6.83381
      vertex 6.87277 0 6.83381
    endloop
  endfacet
  facet normal 0 -1 0
    outer loop
      vertex 6.87277 0 5.16619
      vertex 27.4 0 0
      vertex 7.05 0 6
    endloop
  endfacet
  facet normal -0.978148 0 0.20791
    outer loop
      vertex 6.87277 0 5.16619
      vertex 7.05 0 6
      vertex 7.05 4.75 6
    endloop
  endfacet
  facet normal -0.978148 0 0.20791
    outer loop
      vertex 6.87277 0 5.16619
      vertex 7.05 4.75 6
      vertex 6.87277 4.75 5.16619
    endloop
  endfacet
  facet normal -0.978148 -0 -0.20791
    outer loop
      vertex 6.87277 0 6.83381
      vertex 6.87277 4.75 6.83381
      vertex 7.05 0 6
    endloop
  endfacet
  facet normal 0 -1 0
    outer loop
      vertex 6.87277 0 6.83381
      vertex 7.05 0 6
      vertex 27.4 0 12
    endloop
  endfacet
  facet normal 0 -1 0
    outer loop
      vertex 6.87277 30.25 5.16619
      vertex 17.5 30.25 0
      vertex 7.05 30.25 6
    endloop
  endfacet
  facet normal -0.978148 0 0.20791
    outer loop
      vertex 6.87277 30.25 5.16619
      vertex 7.05 30.25 6
      vertex 7.05 35 6
    endloop
  endfacet
  facet normal -0.978148 0 0.20791
    outer loop
      vertex 6.87277 30.25 5.16619
      vertex 7.05 35 6
      vertex 6.87277 35 5.16619
    endloop
  endfacet
  facet normal -0.978148 -0 -0.20791
    outer loop
      vertex 6.87277 30.25 6.83381
      vertex 6.87277 35 6.83381
      vertex 7.05 30.25 6
    endloop
  endfacet
  facet normal 0 -1 0
    outer loop
      vertex 6.87277 30.25 6.83381
      vertex 7.05 30.25 6
      vertex 17.5 30.25 12
    endloop
  endfacet
  facet normal 0 1 0
    outer loop
      vertex 6.87277 35 5.16619
      vertex 7.05 35 6
      vertex 21.2286 35 0
    endloop
  endfacet
  facet normal 0 1 0
    outer loop
      vertex 6.87277 35 6.83381
      vertex 21.2286 35 12
      vertex 7.05 35 6
    endloop
  endfacet
  facet normal -0.978148 0 -0.20791
    outer loop
      vertex 6.87277 35 6.83381
      vertex 7.05 35 6
      vertex 7.05 30.25 6
    endloop
  endfacet
  facet normal 0 1 0
    outer loop
      vertex 6.87277 4.75 5.16619
      vertex 7.05 4.75 6
      vertex 17.5 4.75 0
    endloop
  endfacet
  facet normal 0 1 0
    outer loop
      vertex 6.87277 4.75 6.83381
      vertex 17.5 4.75 12
      vertex 7.05 4.75 6
    endloop
  endfacet
  facet normal -0.978148 0 -0.20791
    outer loop
      vertex 6.87277 4.75 6.83381
      vertex 7.05 4.75 6
      vertex 7.05 0 6
    endloop
  endfacet
  facet normal 0 -1 0
    outer loop
      vertex 7.05 0 6
      vertex 27.4 0 0
      vertex 27.4 0 12
    endloop
  endfacet
  facet normal 0 -1 0
    outer loop
      vertex 7.05 30.25 6
      vertex 17.5 30.25 0
      vertex 17.5 30.25 12
    endloop
  endfacet
  facet normal 0 1 -0
    outer loop
      vertex 7.05 35 6
      vertex 21.2286 35 12
      vertex 21.2286 35 0
    endloop
  endfacet
  facet normal 0 1 -0
    outer loop
      vertex 7.05 4.75 6
      vertex 17.5 4.75 12
      vertex 17.5 4.75 0
    endloop
  endfacet
endsolid model
