solid model
  facet normal -0.951057 0.309017 0
    outer loop
      vertex 0 27 -0.75
      vertex 0 27 0.75
      vertex 1.33688 31.1145 0.75
    endloop
  endfacet
  facet normal -0 0 -1
    outer loop
      vertex 0 27 -0.75
      vertex 1.33688 31.1145 -0.75
      vertex 5.09789 27.618 -0.75
    endloop
  endfacet
  facet normal -0.951057 0.309017 0
    outer loop
      vertex 0 27 -0.75
      vertex 1.33688 31.1145 0.75
      vertex 1.33688 31.1145 -0.75
    endloop
  endfacet
  facet normal 0 0 -1
    outer loop
      vertex 0 27 -0.75
      vertex 5 27 -0.75
      vertex 5.09789 26.382 -0.75
    endloop
  endfacet
  facet normal 0 0 -1
    outer loop
      vertex 0 27 -0.75
      vertex 5.09789 26.382 -0.75
      vertex 5.38197 25.8244 -0.75
    endloop
  endfacet
  facet normal 0 0 -1
    outer loop
      vertex 0 27 -0.75
      vertex 5.09789 27.618 -0.75
      vertex 5 27 -0.75
    endloop
  endfacet
  facet normal 0 0 -1
    outer loop
      vertex 0 27 -0.75
      vertex 5.38197 25.8244 -0.75
      vertex 5.82443 25.382 -0.75
    endloop
  endfacet
  facet normal 0 0 1
    outer loop
      vertex 0 27 0.75
      vertex 5 27 0.75
      vertex 5.09789 27.618 0.75
    endloop
  endfacet
  facet normal -0 0 1
    outer loop
      vertex 0 27 0.75
      vertex 5.09789 26.382 0.75
      vertex 5 27 0.75
    endloop
  endfacet
  facet normal 0 0 1
    outer loop
      vertex 0 27 0.75
      vertex 5.09789 27.618 0.75
      vertex 1.33688 31.1145 0.75
    endloop
  endfacet
  facet normal 0 0 1
    outer loop
      vertex 0 27 0.75
      vertex 5.38197 25.8244 0.75
      vertex 5.09789 26.382 0.75
    endloop
  endfacet
  facet normal 0 0 1
    outer loop
      vertex 0 27 0.75
      vertex 5.82443 25.382 0.75
      vertex 5.38197 25.8244 0.75
    endloop
  endfacet
  facet normal 0 0 1
    outer loop
      vertex 0 27 0.75
      vertex 5.82443 8.61803 0.75
      vertex 5.82443 25.382 0.75
    endloop
  endfacet
  facet normal 0 0 -1
    outer loop
      vertex 0 7 -0.75
      vertex 0 27 -0.75
      vertex 5.82443 25.382 -0.75
    endloop
  endfacet
  facet normal -1 0 0
    outer loop
      vertex 0 7 -0.75
      vertex 0 27 0.75
      vertex 0 27 -0.75
    endloop
  endfacet
  facet normal -1 -0 0
    outer loop
      vertex 0 7 -0.75
      vertex 0 7 0.75
      vertex 0 27 0.75
    endloop
  endfacet
  facet normal -0.951057 -0.309017 0
    outer loop
      vertex 0 7 -0.75
      vertex 1.33688 2.8855 -0.75
      vertex 0 7 0.75
    endloop
  endfacet
  facet normal 0 0 -1
    outer loop
      vertex 0 7 -0.75
      vertex 5 7 -0.75
      vertex 5.09789 6.38197 -0.75
    endloop
  endfacet
  facet normal 0 0 -1
    outer loop
      vertex 0 7 -0.75
      vertex 5.09789 6.38197 -0.75
      vertex 1.33688 2.8855 -0.75
    endloop
  endfacet
  facet normal 0 0 -1
    outer loop
      vertex 0 7 -0.75
      vertex 5.09789 7.61803 -0.75
      vertex 5 7 -0.75
    endloop
  endfacet
  facet normal 0 0 -1
    outer loop
      vertex 0 7 -0.75
      vertex 5.38197 8.17557 -0.75
      vertex 5.09789 7.61803 -0.75
    endloop
  endfacet
  facet normal -0 0 -1
    outer loop
      vertex 0 7 -0.75
      vertex 5.82443 25.382 -0.75
      vertex 5.82443 8.61803 -0.75
    endloop
  endfacet
  facet normal 0 0 -1
    outer loop
      vertex 0 7 -0.75
      vertex 5.82443 8.61803 -0.75
      vertex 5.38197 8.17557 -0.75
    endloop
  endfacet
  facet normal -0.951057 -0.309017 0
    outer loop
      vertex 0 7 0.75
      vertex 1.33688 2.8855 -0.75
      vertex 1.33688 2.8855 0.75
    endloop
  endfacet
  facet normal 0 0 1
    outer loop
      vertex 0 7 0.75
      vertex 1.33688 2.8855 0.75
      vertex 5.09789 6.38197 0.75
    endloop
  endfacet
  facet normal 0 0 1
    outer loop
      vertex 0 7 0.75
      vertex 5 7 0.75
      vertex 5.09789 7.61803 0.75
    endloop
  endfacet
  facet normal -0 0 1
    outer loop
      vertex 0 7 0.75
      vertex 5.09789 6.38197 0.75
      vertex 5 7 0.75
    endloop
  endfacet
  facet normal 0 0 1
    outer loop
      vertex 0 7 0.75
      vertex 5.09789 7.61803 0.75
      vertex 5.38197 8.17557 0.75
    endloop
  endfacet
  facet normal 0 0 1
    outer loop
      vertex 0 7 0.75
      vertex 5.38197 8.17557 0.75
      vertex 5.82443 8.61803 0.75
    endloop
  endfacet
  facet normal 0 0 1
    outer loop
      vertex 0 7 0.75
      vertex 5.82443 8.61803 0.75
      vertex 0 27 0.75
    endloop
  endfacet
  facet normal -0.587785 -0.809017 -0
    outer loop
      vertex 1.33688 2.8855 -0.75
      vertex 4.83688 0.342605 -0.75
      vertex 4.83688 0.342605 0.75
    endloop
  endfacet
  facet normal -0.587785 -0.809017 0
    outer loop
      vertex 1.33688 2.8855 -0.75
      vertex 4.83688 0.342605 0.75
      vertex 1.33688 2.8855 0.75
    endloop
  endfacet
  facet normal -0 0 -1
    outer loop
      vertex 1.33688 2.8855 -0.75
      vertex 5.09789 6.38197 -0.75
      vertex 5.38197 5.82443 -0.75
    endloop
  endfacet
  facet normal -0 0 -1
    outer loop
      vertex 1.33688 2.8855 -0.75
      vertex 5.38197 5.82443 -0.75
      vertex 5.82443 5.38197 -0.75
    endloop
  endfacet
  facet normal 0 0 -1
    outer loop
      vertex 1.33688 2.8855 -0.75
      vertex 5.82443 5.38197 -0.75
      vertex 4.83688 0.342605 -0.75
    endloop
  endfacet
  facet normal 0 0 1
    outer loop
      vertex 1.33688 2.8855 0.75
      vertex 4.83688 0.342605 0.75
      vertex 5.82443 5.38197 0.75
    endloop
  endfacet
  facet normal 0 0 1
    outer loop
      vertex 1.33688 2.8855 0.75
      vertex 5.38197 5.82443 0.75
      vertex 5.09789 6.38197 0.75
    endloop
  endfacet
  facet normal 0 0 1
    outer loop
      vertex 1.33688 2.8855 0.75
      vertex 5.82443 5.38197 0.75
      vertex 5.38197 5.82443 0.75
    endloop
  endfacet
  facet normal -0.587785 0.809017 0
    outer loop
      vertex 1.33688 31.1145 -0.75
      vertex 1.33688 31.1145 0.75
      vertex 4.83688 33.6574 -0.75
    endloop
  endfacet
  facet normal 0 0 -1
    outer loop
      vertex 1.33688 31.1145 -0.75
      vertex 4.83688 33.6574 -0.75
      vertex 5.82443 28.618 -0.75
    endloop
  endfacet
  facet normal 0 0 -1
    outer loop
      vertex 1.33688 31.1145 -0.75
      vertex 5.38197 28.1756 -0.75
      vertex 5.09789 27.618 -0.75
    endloop
  endfacet
  facet normal 0 0 -1
    outer loop
      vertex 1.33688 31.1145 -0.75
      vertex 5.82443 28.618 -0.75
      vertex 5.38197 28.1756 -0.75
    endloop
  endfacet
  facet normal -0.587785 0.809017 0
    outer loop
      vertex 1.33688 31.1145 0.75
      vertex 4.83688 33.6574 0.75
      vertex 4.83688 33.6574 -0.75
    endloop
  endfacet
  facet normal 0 0 1
    outer loop
      vertex 1.33688 31.1145 0.75
      vertex 5.09789 27.618 0.75
      vertex 5.38197 28.1756 0.75
    endloop
  endfacet
  facet normal 0 0 1
    outer loop
      vertex 1.33688 31.1145 0.75
      vertex 5.38197 28.1756 0.75
      vertex 5.82443 28.618 0.75
    endloop
  endfacet
  facet normal -0 0 1
    outer loop
      vertex 1.33688 31.1145 0.75
      vertex 5.82443 28.618 0.75
      vertex 4.83688 33.6574 0.75
    endloop
  endfacet
  facet normal 0.951207 0.308553 0
    outer loop
      vertex 121.5 7 -0.75
      vertex 121.5 7 0.75
      vertex 121.786 6.11832 0.75
    endloop
  endfacet
  facet normal 0.951207 0.308553 0
    outer loop
      vertex 121.5 7 -0.75
      vertex 121.786 6.11832 0.75
      vertex 121.786 6.11832 -0.75
    endloop
  endfacet
  facet normal 0.951207 -0.308553 0
    outer loop
      vertex 121.5 7 -0.75
      vertex 121.786 7.88168 -0.75
      vertex 121.5 7 0.75
    endloop
  endfacet
  facet normal 0.951207 -0.308553 0
    outer loop
      vertex 121.5 7 0.75
      vertex 121.786 7.88168 -0.75
      vertex 121.786 7.88168 0.75
    endloop
  endfacet
  facet normal 0.587787 0.809015 0
    outer loop
      vertex 121.786 6.11832 -0.75
      vertex 121.786 6.11832 0.75
      vertex 122.536 5.57341 -0.75
    endloop
  endfacet
  facet normal 0.587787 0.809015 -0
    outer loop
      vertex 121.786 6.11832 0.75
      vertex 122.536 5.57341 0.75
      vertex 122.536 5.57341 -0.75
    endloop
  endfacet
  facet normal 0.58778 -0.809021 0
    outer loop
      vertex 121.786 7.88168 -0.75
      vertex 122.536 8.42658 -0.75
      vertex 122.536 8.42658 0.75
    endloop
  endfacet
  facet normal 0.58778 -0.809021 0
    outer loop
      vertex 121.786 7.88168 -0.75
      vertex 122.536 8.42658 0.75
      vertex 121.786 7.88168 0.75
    endloop
  endfacet
  facet normal 0 1 0
    outer loop
      vertex 122.536 5.57341 -0.75
      vertex 122.536 5.57341 0.75
      vertex 123.464 5.57341 -0.75
    endloop
  endfacet
  facet normal 0 0 -1
    outer loop
      vertex 122.536 5.57341 -0.75
      vertex 123.464 5.57341 -0.75
      vertex 205.163 0.342605 -0.75
    endloop
  endfacet
  facet normal 0 1 -0
    outer loop
      vertex 122.536 5.57341 0.75
      vertex 123.464 5.57341 0.75
      vertex 123.464 5.57341 -0.75
    endloop
  endfacet
  facet normal -0 0 1
    outer loop
      vertex 122.536 5.57341 0.75
      vertex 205.163 0.342605 0.75
      vertex 123.464 5.57341 0.75
    endloop
  endfacet
  facet normal 0 -1 -0
    outer loop
      vertex 122.536 8.42658 -0.75
      vertex 123.464 8.42658 -0.75
      vertex 123.464 8.42658 0.75
    endloop
  endfacet
  facet normal 0 -1 0
    outer loop
      vertex 122.536 8.42658 -0.75
      vertex 123.464 8.42658 0.75
      vertex 122.536 8.42658 0.75
    endloop
  endfacet
  facet normal 0 0 -1
    outer loop
      vertex 122.536 8.42658 -0.75
      vertex 141.5 25 -0.75
      vertex 123.464 8.42658 -0.75
    endloop
  endfacet
  facet normal -0 0 -1
    outer loop
      vertex 122.536 8.42658 -0.75
      vertex 141.786 25.8817 -0.75
      vertex 141.5 25 -0.75
    endloop
  endfacet
  facet normal 0 0 1
    outer loop
      vertex 122.536 8.42658 0.75
      vertex 123.464 8.42658 0.75
      vertex 141.5 25 0.75
    endloop
  endfacet
  facet normal 0 0 1
    outer loop
      vertex 122.536 8.42658 0.75
      vertex 141.5 25 0.75
      vertex 141.786 25.8817 0.75
    endloop
  endfacet
  facet normal -0.587787 0.809015 0
    outer loop
      vertex 123.464 5.57341 -0.75
      vertex 123.464 5.57341 0.75
      vertex 124.214 6.11832 -0.75
    endloop
  endfacet
  facet normal 0 0 -1
    outer loop
      vertex 123.464 5.57341 -0.75
      vertex 124.214 6.11832 -0.75
      vertex 162.536 5.57341 -0.75
    endloop
  endfacet
  facet normal 0 0 -1
    outer loop
      vertex 123.464 5.57341 -0.75
      vertex 162.536 5.57341 -0.75
      vertex 205.163 0.342605 -0.75
    endloop
  endfacet
  facet normal -0.587787 0.809015 0
    outer loop
      vertex 123.464 5.57341 0.75
      vertex 124.214 6.11832 0.75
      vertex 124.214 6.11832 -0.75
    endloop
  endfacet
  facet normal 0 0 1
    outer loop
      vertex 123.464 5.57341 0.75
      vertex 162.536 5.57341 0.75
      vertex 124.214 6.11832 0.75
    endloop
  endfacet
  facet normal 0 0 1
    outer loop
      vertex 123.464 5.57341 0.75
      vertex 205.163 0.342605 0.75
      vertex 162.536 5.57341 0.75
    endloop
  endfacet
  facet normal -0.58778 -0.809021 -0
    outer loop
      vertex 123.464 8.42658 -0.75
      vertex 124.214 7.88168 -0.75
      vertex 124.214 7.88168 0.75
    endloop
  endfacet
  facet normal -0.58778 -0.809021 0
    outer loop
      vertex 123.464 8.42658 -0.75
      vertex 124.214 7.88168 0.75
      vertex 123.464 8.42658 0.75
    endloop
  endfacet
  facet normal -0 0 -1
    outer loop
      vertex 123.464 8.42658 -0.75
      vertex 141.5 25 -0.75
      vertex 141.786 24.1183 -0.75
    endloop
  endfacet
  facet normal 0 0 -1
    outer loop
      vertex 123.464 8.42658 -0.75
      vertex 141.786 24.1183 -0.75
      vertex 124.214 7.88168 -0.75
    endloop
  endfacet
  facet normal 0 0 1
    outer loop
      vertex 123.464 8.42658 0.75
      vertex 124.214 7.88168 0.75
      vertex 141.5 25 0.75
    endloop
  endfacet
  facet normal -0.951207 0.308553 0
    outer loop
      vertex 124.214 6.11832 -0.75
      vertex 124.214 6.11832 0.75
      vertex 124.5 7 0.75
    endloop
  endfacet
  facet normal 0 0 -1
    outer loop
      vertex 124.214 6.11832 -0.75
      vertex 124.5 7 -0.75
      vertex 161.786 6.11832 -0.75
    endloop
  endfacet
  facet normal -0.951207 0.308553 0
    outer loop
      vertex 124.214 6.11832 -0.75
      vertex 124.5 7 0.75
      vertex 124.5 7 -0.75
    endloop
  endfacet
  facet normal 0 0 -1
    outer loop
      vertex 124.214 6.11832 -0.75
      vertex 161.786 6.11832 -0.75
      vertex 162.536 5.57341 -0.75
    endloop
  endfacet
  facet normal 0 0 1
    outer loop
      vertex 124.214 6.11832 0.75
      vertex 161.786 6.11832 0.75
      vertex 124.5 7 0.75
    endloop
  endfacet
  facet normal 0 0 1
    outer loop
      vertex 124.214 6.11832 0.75
      vertex 162.536 5.57341 0.75
      vertex 161.786 6.11832 0.75
    endloop
  endfacet
  facet normal -0.951207 -0.308553 0
    outer loop
      vertex 124.214 7.88168 -0.75
      vertex 124.5 7 -0.75
      vertex 124.214 7.88168 0.75
    endloop
  endfacet
  facet normal -0 0 -1
    outer loop
      vertex 124.214 7.88168 -0.75
      vertex 141.786 24.1183 -0.75
      vertex 142.536 23.5734 -0.75
    endloop
  endfacet
  facet normal 0 0 -1
    outer loop
      vertex 124.214 7.88168 -0.75
      vertex 142.536 23.5734 -0.75
      vertex 124.5 7 -0.75
    endloop
  endfacet
  facet normal -0.951207 -0.308553 0
    outer loop
      vertex 124.214 7.88168 0.75
      vertex 124.5 7 -0.75
      vertex 124.5 7 0.75
    endloop
  endfacet
  facet normal 0 0 1
    outer loop
      vertex 124.214 7.88168 0.75
      vertex 124.5 7 0.75
      vertex 141.5 25 0.75
    endloop
  endfacet
  facet normal 0 0 -1
    outer loop
      vertex 124.5 7 -0.75
      vertex 142.536 23.5734 -0.75
      vertex 161.5 7 -0.75
    endloop
  endfacet
  facet normal 0 0 -1
    outer loop
      vertex 124.5 7 -0.75
      vertex 161.5 7 -0.75
      vertex 161.786 6.11832 -0.75
    endloop
  endfacet
  facet normal 0 0 1
    outer loop
      vertex 124.5 7 0.75
      vertex 141.786 24.1183 0.75
      vertex 141.5 25 0.75
    endloop
  endfacet
  facet normal 0 0 1
    outer loop
      vertex 124.5 7 0.75
      vertex 142.536 23.5734 0.75
      vertex 141.786 24.1183 0.75
    endloop
  endfacet
  facet normal 0 0 1
    outer loop
      vertex 124.5 7 0.75
      vertex 161.5 7 0.75
      vertex 142.536 23.5734 0.75
    endloop
  endfacet
  facet normal 0 0 1
    outer loop
      vertex 124.5 7 0.75
      vertex 161.786 6.11832 0.75
      vertex 161.5 7 0.75
    endloop
  endfacet
  facet normal 0.951209 0.308547 0
    outer loop
      vertex 141.5 25 -0.75
      vertex 141.5 25 0.75
      vertex 141.786 24.1183 0.75
    endloop
  endfacet
  facet normal 0.951209 0.308547 0
    outer loop
      vertex 141.5 25 -0.75
      vertex 141.786 24.1183 0.75
      vertex 141.786 24.1183 -0.75
    endloop
  endfacet
  facet normal 0.951209 -0.308547 0
    outer loop
      vertex 141.5 25 -0.75
      vertex 141.786 25.8817 -0.75
      vertex 141.5 25 0.75
    endloop
  endfacet
  facet normal 0.951209 -0.308547 0
    outer loop
      vertex 141.5 25 0.75
      vertex 141.786 25.8817 -0.75
      vertex 141.786 25.8817 0.75
    endloop
  endfacet
  facet normal 0.58778 0.809021 0
    outer loop
      vertex 141.786 24.1183 -0.75
      vertex 141.786 24.1183 0.75
      vertex 142.536 23.5734 -0.75
    endloop
  endfacet
  facet normal 0.58778 0.809021 -0
    outer loop
      vertex 141.786 24.1183 0.75
      vertex 142.536 23.5734 0.75
      vertex 142.536 23.5734 -0.75
    endloop
  endfacet
  facet normal 0.58778 -0.809021 0
    outer loop
      vertex 141.786 25.8817 -0.75
      vertex 142.536 26.4266 -0.75
      vertex 142.536 26.4266 0.75
    endloop
  endfacet
  facet normal 0.58778 -0.809021 0
    outer loop
      vertex 141.786 25.8817 -0.75
      vertex 142.536 26.4266 0.75
      vertex 141.786 25.8817 0.75
    endloop
  endfacet
  facet normal 0 1 0
    outer loop
      vertex 142.536 23.5734 -0.75
      vertex 142.536 23.5734 0.75
      vertex 143.464 23.5734 -0.75
    endloop
  endfacet
  facet normal 0 0 -1
    outer loop
      vertex 142.536 23.5734 -0.75
      vertex 143.464 23.5734 -0.75
      vertex 161.5 7 -0.75
    endloop
  endfacet
  facet normal 0 1 -0
    outer loop
      vertex 142.536 23.5734 0.75
      vertex 143.464 23.5734 0.75
      vertex 143.464 23.5734 -0.75
    endloop
  endfacet
  facet normal -0 0 1
    outer loop
      vertex 142.536 23.5734 0.75
      vertex 161.5 7 0.75
      vertex 143.464 23.5734 0.75
    endloop
  endfacet
  facet normal 0 -1 -0
    outer loop
      vertex 142.536 26.4266 -0.75
      vertex 143.464 26.4266 -0.75
      vertex 143.464 26.4266 0.75
    endloop
  endfacet
  facet normal 0 -1 0
    outer loop
      vertex 142.536 26.4266 -0.75
      vertex 143.464 26.4266 0.75
      vertex 142.536 26.4266 0.75
    endloop
  endfacet
  facet normal 0 0 -1
    outer loop
      vertex 142.536 26.4266 -0.75
      vertex 180.163 33.6574 -0.75
      vertex 143.464 26.4266 -0.75
    endloop
  endfacet
  facet normal 0 0 1
    outer loop
      vertex 142.536 26.4266 0.75
      vertex 143.464 26.4266 0.75
      vertex 180.163 33.6574 0.75
    endloop
  endfacet
  facet normal -0.58778 0.809021 0
    outer loop
      vertex 143.464 23.5734 -0.75
      vertex 143.464 23.5734 0.75
      vertex 144.214 24.1183 -0.75
    endloop
  endfacet
  facet normal 0 0 -1
    outer loop
      vertex 143.464 23.5734 -0.75
      vertex 144.214 24.1183 -0.75
      vertex 161.5 7 -0.75
    endloop
  endfacet
  facet normal -0.58778 0.809021 0
    outer loop
      vertex 143.464 23.5734 0.75
      vertex 144.214 24.1183 0.75
      vertex 144.214 24.1183 -0.75
    endloop
  endfacet
  facet normal 0 0 1
    outer loop
      vertex 143.464 23.5734 0.75
      vertex 161.5 7 0.75
      vertex 161.786 7.88168 0.75
    endloop
  endfacet
  facet normal -0 0 1
    outer loop
      vertex 143.464 23.5734 0.75
      vertex 161.786 7.88168 0.75
      vertex 144.214 24.1183 0.75
    endloop
  endfacet
  facet normal -0.58778 -0.809021 -0
    outer loop
      vertex 143.464 26.4266 -0.75
      vertex 144.214 25.8817 -0.75
      vertex 144.214 25.8817 0.75
    endloop
  endfacet
  facet normal -0.58778 -0.809021 0
    outer loop
      vertex 143.464 26.4266 -0.75
      vertex 144.214 25.8817 0.75
      vertex 143.464 26.4266 0.75
    endloop
  endfacet
  facet normal 0 0 -1
    outer loop
      vertex 143.464 26.4266 -0.75
      vertex 180.163 33.6574 -0.75
      vertex 144.214 25.8817 -0.75
    endloop
  endfacet
  facet normal 0 0 1
    outer loop
      vertex 143.464 26.4266 0.75
      vertex 144.214 25.8817 0.75
      vertex 180.163 33.6574 0.75
    endloop
  endfacet
  facet normal -0.951209 0.308547 0
    outer loop
      vertex 144.214 24.1183 -0.75
      vertex 144.214 24.1183 0.75
      vertex 144.5 25 0.75
    endloop
  endfacet
  facet normal 0 0 -1
    outer loop
      vertex 144.214 24.1183 -0.75
      vertex 144.5 25 -0.75
      vertex 161.5 7 -0.75
    endloop
  endfacet
  facet normal -0.951209 0.308547 0
    outer loop
      vertex 144.214 24.1183 -0.75
      vertex 144.5 25 0.75
      vertex 144.5 25 -0.75
    endloop
  endfacet
  facet normal 0 0 1
    outer loop
      vertex 144.214 24.1183 0.75
      vertex 161.786 7.88168 0.75
      vertex 162.536 8.42658 0.75
    endloop
  endfacet
  facet normal -0 0 1
    outer loop
      vertex 144.214 24.1183 0.75
      vertex 162.536 8.42658 0.75
      vertex 144.5 25 0.75
    endloop
  endfacet
  facet normal -0.951209 -0.308547 0
    outer loop
      vertex 144.214 25.8817 -0.75
      vertex 144.5 25 -0.75
      vertex 144.214 25.8817 0.75
    endloop
  endfacet
  facet normal 0 0 -1
    outer loop
      vertex 144.214 25.8817 -0.75
      vertex 180.163 33.6574 -0.75
      vertex 144.5 25 -0.75
    endloop
  endfacet
  facet normal -0.951209 -0.308547 0
    outer loop
      vertex 144.214 25.8817 0.75
      vertex 144.5 25 -0.75
      vertex 144.5 25 0.75
    endloop
  endfacet
  facet normal 0 0 1
    outer loop
      vertex 144.214 25.8817 0.75
      vertex 144.5 25 0.75
      vertex 180.163 33.6574 0.75
    endloop
  endfacet
  facet normal 0 0 -1
    outer loop
      vertex 144.5 25 -0.75
      vertex 161.786 7.88168 -0.75
      vertex 161.5 7 -0.75
    endloop
  endfacet
  facet normal 0 0 -1
    outer loop
      vertex 144.5 25 -0.75
      vertex 162.536 8.42658 -0.75
      vertex 161.786 7.88168 -0.75
    endloop
  endfacet
  facet normal 0 0 -1
    outer loop
      vertex 144.5 25 -0.75
      vertex 180.163 33.6574 -0.75
      vertex 162.536 8.42658 -0.75
    endloop
  endfacet
  facet normal -0 0 1
    outer loop
      vertex 144.5 25 0.75
      vertex 162.536 8.42658 0.75
      vertex 180.163 33.6574 0.75
    endloop
  endfacet
  facet normal 0.951207 0.308553 0
    outer loop
      vertex 161.5 7 -0.75
      vertex 161.5 7 0.75
      vertex 161.786 6.11832 0.75
    endloop
  endfacet
  facet normal 0.951207 0.308553 0
    outer loop
      vertex 161.5 7 -0.75
      vertex 161.786 6.11832 0.75
      vertex 161.786 6.11832 -0.75
    endloop
  endfacet
  facet normal 0.951207 -0.308553 0
    outer loop
      vertex 161.5 7 -0.75
      vertex 161.786 7.88168 -0.75
      vertex 161.5 7 0.75
    endloop
  endfacet
  facet normal 0.951207 -0.308553 0
    outer loop
      vertex 161.5 7 0.75
      vertex 161.786 7.88168 -0.75
      vertex 161.786 7.88168 0.75
    endloop
  endfacet
  facet normal 0.587787 0.809015 0
    outer loop
      vertex 161.786 6.11832 -0.75
      vertex 161.786 6.11832 0.75
      vertex 162.536 5.57341 -0.75
    endloop
  endfacet
  facet normal 0.587787 0.809015 -0
    outer loop
      vertex 161.786 6.11832 0.75
      vertex 162.536 5.57341 0.75
      vertex 162.536 5.57341 -0.75
    endloop
  endfacet
  facet normal 0.58778 -0.809021 0
    outer loop
      vertex 161.786 7.88168 -0.75
      vertex 162.536 8.42658 -0.75
      vertex 162.536 8.42658 0.75
    endloop
  endfacet
  facet normal 0.58778 -0.809021 0
    outer loop
      vertex 161.786 7.88168 -0.75
      vertex 162.536 8.42658 0.75
      vertex 161.786 7.88168 0.75
    endloop
  endfacet
  facet normal 0 1 0
    outer loop
      vertex 162.536 5.57341 -0.75
      vertex 162.536 5.57341 0.75
      vertex 163.464 5.57341 -0.75
    endloop
  endfacet
  facet normal 0 0 -1
    outer loop
      vertex 162.536 5.57341 -0.75
      vertex 163.464 5.57341 -0.75
      vertex 205.163 0.342605 -0.75
    endloop
  endfacet
  facet normal 0 1 -0
    outer loop
      vertex 162.536 5.57341 0.75
      vertex 163.464 5.57341 0.75
      vertex 163.464 5.57341 -0.75
    endloop
  endfacet
  facet normal -0 0 1
    outer loop
      vertex 162.536 5.57341 0.75
      vertex 205.163 0.342605 0.75
      vertex 163.464 5.57341 0.75
    endloop
  endfacet
  facet normal 0 -1 -0
    outer loop
      vertex 162.536 8.42658 -0.75
      vertex 163.464 8.42658 -0.75
      vertex 163.464 8.42658 0.75
    endloop
  endfacet
  facet normal 0 -1 0
    outer loop
      vertex 162.536 8.42658 -0.75
      vertex 163.464 8.42658 0.75
      vertex 162.536 8.42658 0.75
    endloop
  endfacet
  facet normal 0 0 -1
    outer loop
      vertex 162.536 8.42658 -0.75
      vertex 180.163 33.6574 -0.75
      vertex 163.464 8.42658 -0.75
    endloop
  endfacet
  facet normal 0 0 1
    outer loop
      vertex 162.536 8.42658 0.75
      vertex 163.464 8.42658 0.75
      vertex 180.163 33.6574 0.75
    endloop
  endfacet
  facet normal -0.587787 0.809015 0
    outer loop
      vertex 163.464 5.57341 -0.75
      vertex 163.464 5.57341 0.75
      vertex 164.214 6.11832 -0.75
    endloop
  endfacet
  facet normal 0 0 -1
    outer loop
      vertex 163.464 5.57341 -0.75
      vertex 164.214 6.11832 -0.75
      vertex 205.163 0.342605 -0.75
    endloop
  endfacet
  facet normal -0.587787 0.809015 0
    outer loop
      vertex 163.464 5.57341 0.75
      vertex 164.214 6.11832 0.75
      vertex 164.214 6.11832 -0.75
    endloop
  endfacet
  facet normal -0 0 1
    outer loop
      vertex 163.464 5.57341 0.75
      vertex 205.163 0.342605 0.75
      vertex 164.214 6.11832 0.75
    endloop
  endfacet
  facet normal -0.58778 -0.809021 -0
    outer loop
      vertex 163.464 8.42658 -0.75
      vertex 164.214 7.88168 -0.75
      vertex 164.214 7.88168 0.75
    endloop
  endfacet
  facet normal -0.58778 -0.809021 0
    outer loop
      vertex 163.464 8.42658 -0.75
      vertex 164.214 7.88168 0.75
      vertex 163.464 8.42658 0.75
    endloop
  endfacet
  facet normal -0 0 -1
    outer loop
      vertex 163.464 8.42658 -0.75
      vertex 180.163 33.6574 -0.75
      vertex 181.5 23 -0.75
    endloop
  endfacet
  facet normal -0 0 -1
    outer loop
      vertex 163.464 8.42658 -0.75
      vertex 181.5 23 -0.75
      vertex 181.786 22.1183 -0.75
    endloop
  endfacet
  facet normal 0 0 -1
    outer loop
      vertex 163.464 8.42658 -0.75
      vertex 181.786 22.1183 -0.75
      vertex 164.214 7.88168 -0.75
    endloop
  endfacet
  facet normal 0 0 1
    outer loop
      vertex 163.464 8.42658 0.75
      vertex 164.214 7.88168 0.75
      vertex 181.5 23 0.75
    endloop
  endfacet
  facet normal 0 0 1
    outer loop
      vertex 163.464 8.42658 0.75
      vertex 181.5 23 0.75
      vertex 180.163 33.6574 0.75
    endloop
  endfacet
  facet normal -0.951207 0.308553 0
    outer loop
      vertex 164.214 6.11832 -0.75
      vertex 164.214 6.11832 0.75
      vertex 164.5 7 0.75
    endloop
  endfacet
  facet normal 0 0 -1
    outer loop
      vertex 164.214 6.11832 -0.75
      vertex 164.5 7 -0.75
      vertex 201.786 6.11832 -0.75
    endloop
  endfacet
  facet normal -0.951207 0.308553 0
    outer loop
      vertex 164.214 6.11832 -0.75
      vertex 164.5 7 0.75
      vertex 164.5 7 -0.75
    endloop
  endfacet
  facet normal 0 0 -1
    outer loop
      vertex 164.214 6.11832 -0.75
      vertex 201.786 6.11832 -0.75
      vertex 205.163 0.342605 -0.75
    endloop
  endfacet
  facet normal 0 0 1
    outer loop
      vertex 164.214 6.11832 0.75
      vertex 201.786 6.11832 0.75
      vertex 164.5 7 0.75
    endloop
  endfacet
  facet normal 0 0 1
    outer loop
      vertex 164.214 6.11832 0.75
      vertex 205.163 0.342605 0.75
      vertex 201.786 6.11832 0.75
    endloop
  endfacet
  facet normal -0.951207 -0.308553 0
    outer loop
      vertex 164.214 7.88168 -0.75
      vertex 164.5 7 -0.75
      vertex 164.214 7.88168 0.75
    endloop
  endfacet
  facet normal -0 0 -1
    outer loop
      vertex 164.214 7.88168 -0.75
      vertex 181.786 22.1183 -0.75
      vertex 182.536 21.5734 -0.75
    endloop
  endfacet
  facet normal 0 0 -1
    outer loop
      vertex 164.214 7.88168 -0.75
      vertex 182.536 21.5734 -0.75
      vertex 164.5 7 -0.75
    endloop
  endfacet
  facet normal -0.951207 -0.308553 0
    outer loop
      vertex 164.214 7.88168 0.75
      vertex 164.5 7 -0.75
      vertex 164.5 7 0.75
    endloop
  endfacet
  facet normal 0 0 1
    outer loop
      vertex 164.214 7.88168 0.75
      vertex 164.5 7 0.75
      vertex 182.536 21.5734 0.75
    endloop
  endfacet
  facet normal 0 0 1
    outer loop
      vertex 164.214 7.88168 0.75
      vertex 181.786 22.1183 0.75
      vertex 181.5 23 0.75
    endloop
  endfacet
  facet normal 0 0 1
    outer loop
      vertex 164.214 7.88168 0.75
      vertex 182.536 21.5734 0.75
      vertex 181.786 22.1183 0.75
    endloop
  endfacet
  facet normal -0 0 -1
    outer loop
      vertex 164.5 7 -0.75
      vertex 182.536 21.5734 -0.75
      vertex 183.464 21.5734 -0.75
    endloop
  endfacet
  facet normal 0 0 -1
    outer loop
      vertex 164.5 7 -0.75
      vertex 183.464 21.5734 -0.75
      vertex 201.5 7 -0.75
    endloop
  endfacet
  facet normal 0 0 -1
    outer loop
      vertex 164.5 7 -0.75
      vertex 201.5 7 -0.75
      vertex 201.786 6.11832 -0.75
    endloop
  endfacet
  facet normal 0 0 1
    outer loop
      vertex 164.5 7 0.75
      vertex 183.464 21.5734 0.75
      vertex 182.536 21.5734 0.75
    endloop
  endfacet
  facet normal 0 0 1
    outer loop
      vertex 164.5 7 0.75
      vertex 201.5 7 0.75
      vertex 183.464 21.5734 0.75
    endloop
  endfacet
  facet normal 0 0 1
    outer loop
      vertex 164.5 7 0.75
      vertex 201.786 6.11832 0.75
      vertex 201.5 7 0.75
    endloop
  endfacet
  facet normal 0.587785 0.809017 0
    outer loop
      vertex 180.163 33.6574 -0.75
      vertex 180.163 33.6574 0.75
      vertex 183.663 31.1145 -0.75
    endloop
  endfacet
  facet normal 0 0 -1
    outer loop
      vertex 180.163 33.6574 -0.75
      vertex 181.786 23.8817 -0.75
      vertex 181.5 23 -0.75
    endloop
  endfacet
  facet normal 0 0 -1
    outer loop
      vertex 180.163 33.6574 -0.75
      vertex 183.663 31.1145 -0.75
      vertex 181.786 23.8817 -0.75
    endloop
  endfacet
  facet normal 0 0 1
    outer loop
      vertex 180.163 33.6574 0.75
      vertex 181.5 23 0.75
      vertex 181.786 23.8817 0.75
    endloop
  endfacet
  facet normal 0 0 1
    outer loop
      vertex 180.163 33.6574 0.75
      vertex 181.786 23.8817 0.75
      vertex 183.663 31.1145 0.75
    endloop
  endfacet
  facet normal 0.587785 0.809017 -0
    outer loop
      vertex 180.163 33.6574 0.75
      vertex 183.663 31.1145 0.75
      vertex 183.663 31.1145 -0.75
    endloop
  endfacet
  facet normal 0.951209 0.308547 0
    outer loop
      vertex 181.5 23 -0.75
      vertex 181.5 23 0.75
      vertex 181.786 22.1183 0.75
    endloop
  endfacet
  facet normal 0.951209 0.308547 0
    outer loop
      vertex 181.5 23 -0.75
      vertex 181.786 22.1183 0.75
      vertex 181.786 22.1183 -0.75
    endloop
  endfacet
  facet normal 0.951209 -0.308547 0
    outer loop
      vertex 181.5 23 -0.75
      vertex 181.786 23.8817 -0.75
      vertex 181.5 23 0.75
    endloop
  endfacet
  facet normal 0.951209 -0.308547 0
    outer loop
      vertex 181.5 23 0.75
      vertex 181.786 23.8817 -0.75
      vertex 181.786 23.8817 0.75
    endloop
  endfacet
  facet normal 0.58778 0.809021 0
    outer loop
      vertex 181.786 22.1183 -0.75
      vertex 181.786 22.1183 0.75
      vertex 182.536 21.5734 -0.75
    endloop
  endfacet
  facet normal 0.58778 0.809021 -0
    outer loop
      vertex 181.786 22.1183 0.75
      vertex 182.536 21.5734 0.75
      vertex 182.536 21.5734 -0.75
    endloop
  endfacet
  facet normal 0.58778 -0.809021 0
    outer loop
      vertex 181.786 23.8817 -0.75
      vertex 182.536 24.4266 -0.75
      vertex 182.536 24.4266 0.75
    endloop
  endfacet
  facet normal 0.58778 -0.809021 0
    outer loop
      vertex 181.786 23.8817 -0.75
      vertex 182.536 24.4266 0.75
      vertex 181.786 23.8817 0.75
    endloop
  endfacet
  facet normal 0 0 -1
    outer loop
      vertex 181.786 23.8817 -0.75
      vertex 183.663 31.1145 -0.75
      vertex 182.536 24.4266 -0.75
    endloop
  endfacet
  facet normal 0 0 1
    outer loop
      vertex 181.786 23.8817 0.75
      vertex 182.536 24.4266 0.75
      vertex 183.663 31.1145 0.75
    endloop
  endfacet
  facet normal 0 1 0
    outer loop
      vertex 182.536 21.5734 -0.75
      vertex 182.536 21.5734 0.75
      vertex 183.464 21.5734 -0.75
    endloop
  endfacet
  facet normal 0 1 -0
    outer loop
      vertex 182.536 21.5734 0.75
      vertex 183.464 21.5734 0.75
      vertex 183.464 21.5734 -0.75
    endloop
  endfacet
  facet normal 0 -1 -0
    outer loop
      vertex 182.536 24.4266 -0.75
      vertex 183.464 24.4266 -0.75
      vertex 183.464 24.4266 0.75
    endloop
  endfacet
  facet normal 0 -1 0
    outer loop
      vertex 182.536 24.4266 -0.75
      vertex 183.464 24.4266 0.75
      vertex 182.536 24.4266 0.75
    endloop
  endfacet
  facet normal 0 0 -1
    outer loop
      vertex 182.536 24.4266 -0.75
      vertex 183.663 31.1145 -0.75
      vertex 183.464 24.4266 -0.75
    endloop
  endfacet
  facet normal 0 0 1
    outer loop
      vertex 182.536 24.4266 0.75
      vertex 183.464 24.4266 0.75
      vertex 183.663 31.1145 0.75
    endloop
  endfacet
  facet normal -0.58778 0.809021 0
    outer loop
      vertex 183.464 21.5734 -0.75
      vertex 183.464 21.5734 0.75
      vertex 184.214 22.1183 -0.75
    endloop
  endfacet
  facet normal 0 0 -1
    outer loop
      vertex 183.464 21.5734 -0.75
      vertex 184.214 22.1183 -0.75
      vertex 201.5 7 -0.75
    endloop
  endfacet
  facet normal -0.58778 0.809021 0
    outer loop
      vertex 183.464 21.5734 0.75
      vertex 184.214 22.1183 0.75
      vertex 184.214 22.1183 -0.75
    endloop
  endfacet
  facet normal 0 0 1
    outer loop
      vertex 183.464 21.5734 0.75
      vertex 201.5 7 0.75
      vertex 201.786 7.88168 0.75
    endloop
  endfacet
  facet normal -0 0 1
    outer loop
      vertex 183.464 21.5734 0.75
      vertex 201.786 7.88168 0.75
      vertex 184.214 22.1183 0.75
    endloop
  endfacet
  facet normal 0 0 -1
    outer loop
      vertex 183.464 24.4266 -0.75
      vertex 183.663 31.1145 -0.75
      vertex 184.214 23.8817 -0.75
    endloop
  endfacet
  facet normal -0.58778 -0.809021 -0
    outer loop
      vertex 183.464 24.4266 -0.75
      vertex 184.214 23.8817 -0.75
      vertex 184.214 23.8817 0.75
    endloop
  endfacet
  facet normal -0.58778 -0.809021 0
    outer loop
      vertex 183.464 24.4266 -0.75
      vertex 184.214 23.8817 0.75
      vertex 183.464 24.4266 0.75
    endloop
  endfacet
  facet normal 0 0 1
    outer loop
      vertex 183.464 24.4266 0.75
      vertex 184.214 23.8817 0.75
      vertex 183.663 31.1145 0.75
    endloop
  endfacet
  facet normal 0.624695 0.780869 0
    outer loop
      vertex 183.663 31.1145 -0.75
      vertex 183.663 31.1145 0.75
      vertex 208.663 11.1145 -0.75
    endloop
  endfacet
  facet normal 0 0 -1
    outer loop
      vertex 183.663 31.1145 -0.75
      vertex 184.5 23 -0.75
      vertex 184.214 23.8817 -0.75
    endloop
  endfacet
  facet normal 0 0 -1
    outer loop
      vertex 183.663 31.1145 -0.75
      vertex 208.663 11.1145 -0.75
      vertex 184.5 23 -0.75
    endloop
  endfacet
  facet normal 0 0 1
    outer loop
      vertex 183.663 31.1145 0.75
      vertex 184.214 23.8817 0.75
      vertex 184.5 23 0.75
    endloop
  endfacet
  facet normal 0 0 1
    outer loop
      vertex 183.663 31.1145 0.75
      vertex 184.5 23 0.75
      vertex 208.663 11.1145 0.75
    endloop
  endfacet
  facet normal 0.624695 0.780869 -0
    outer loop
      vertex 183.663 31.1145 0.75
      vertex 208.663 11.1145 0.75
      vertex 208.663 11.1145 -0.75
    endloop
  endfacet
  facet normal -0.951209 0.308547 0
    outer loop
      vertex 184.214 22.1183 -0.75
      vertex 184.214 22.1183 0.75
      vertex 184.5 23 0.75
    endloop
  endfacet
  facet normal 0 0 -1
    outer loop
      vertex 184.214 22.1183 -0.75
      vertex 184.5 23 -0.75
      vertex 201.5 7 -0.75
    endloop
  endfacet
  facet normal -0.951209 0.308547 0
    outer loop
      vertex 184.214 22.1183 -0.75
      vertex 184.5 23 0.75
      vertex 184.5 23 -0.75
    endloop
  endfacet
  facet normal 0 0 1
    outer loop
      vertex 184.214 22.1183 0.75
      vertex 201.786 7.88168 0.75
      vertex 202.536 8.42658 0.75
    endloop
  endfacet
  facet normal -0 0 1
    outer loop
      vertex 184.214 22.1183 0.75
      vertex 202.536 8.42658 0.75
      vertex 184.5 23 0.75
    endloop
  endfacet
  facet normal -0.951209 -0.308547 0
    outer loop
      vertex 184.214 23.8817 -0.75
      vertex 184.5 23 -0.75
      vertex 184.214 23.8817 0.75
    endloop
  endfacet
  facet normal -0.951209 -0.308547 0
    outer loop
      vertex 184.214 23.8817 0.75
      vertex 184.5 23 -0.75
      vertex 184.5 23 0.75
    endloop
  endfacet
  facet normal 0 0 -1
    outer loop
      vertex 184.5 23 -0.75
      vertex 201.786 7.88168 -0.75
      vertex 201.5 7 -0.75
    endloop
  endfacet
  facet normal 0 0 -1
    outer loop
      vertex 184.5 23 -0.75
      vertex 202.536 8.42658 -0.75
      vertex 201.786 7.88168 -0.75
    endloop
  endfacet
  facet normal 0 0 -1
    outer loop
      vertex 184.5 23 -0.75
      vertex 208.663 11.1145 -0.75
      vertex 202.536 8.42658 -0.75
    endloop
  endfacet
  facet normal 0 0 1
    outer loop
      vertex 184.5 23 0.75
      vertex 202.536 8.42658 0.75
      vertex 208.663 11.1145 0.75
    endloop
  endfacet
  facet normal 0.951207 0.308553 0
    outer loop
      vertex 201.5 7 -0.75
      vertex 201.5 7 0.75
      vertex 201.786 6.11832 0.75
    endloop
  endfacet
  facet normal 0.951207 0.308553 0
    outer loop
      vertex 201.5 7 -0.75
      vertex 201.786 6.11832 0.75
      vertex 201.786 6.11832 -0.75
    endloop
  endfacet
  facet normal 0.951207 -0.308553 0
    outer loop
      vertex 201.5 7 -0.75
      vertex 201.786 7.88168 -0.75
      vertex 201.5 7 0.75
    endloop
  endfacet
  facet normal 0.951207 -0.308553 0
    outer loop
      vertex 201.5 7 0.75
      vertex 201.786 7.88168 -0.75
      vertex 201.786 7.88168 0.75
    endloop
  endfacet
  facet normal 0.587787 0.809015 0
    outer loop
      vertex 201.786 6.11832 -0.75
      vertex 201.786 6.11832 0.75
      vertex 202.536 5.57341 -0.75
    endloop
  endfacet
  facet normal 0 0 -1
    outer loop
      vertex 201.786 6.11832 -0.75
      vertex 202.536 5.57341 -0.75
      vertex 205.163 0.342605 -0.75
    endloop
  endfacet
  facet normal 0.587787 0.809015 -0
    outer loop
      vertex 201.786 6.11832 0.75
      vertex 202.536 5.57341 0.75
      vertex 202.536 5.57341 -0.75
    endloop
  endfacet
  facet normal 0 0 1
    outer loop
      vertex 201.786 6.11832 0.75
      vertex 205.163 0.342605 0.75
      vertex 202.536 5.57341 0.75
    endloop
  endfacet
  facet normal 0.58778 -0.809021 0
    outer loop
      vertex 201.786 7.88168 -0.75
      vertex 202.536 8.42658 -0.75
      vertex 202.536 8.42658 0.75
    endloop
  endfacet
  facet normal 0.58778 -0.809021 0
    outer loop
      vertex 201.786 7.88168 -0.75
      vertex 202.536 8.42658 0.75
      vertex 201.786 7.88168 0.75
    endloop
  endfacet
  facet normal 0 1 0
    outer loop
      vertex 202.536 5.57341 -0.75
      vertex 202.536 5.57341 0.75
      vertex 203.464 5.57341 -0.75
    endloop
  endfacet
  facet normal 0 0 -1
    outer loop
      vertex 202.536 5.57341 -0.75
      vertex 203.464 5.57341 -0.75
      vertex 205.163 0.342605 -0.75
    endloop
  endfacet
  facet normal 0 1 -0
    outer loop
      vertex 202.536 5.57341 0.75
      vertex 203.464 5.57341 0.75
      vertex 203.464 5.57341 -0.75
    endloop
  endfacet
  facet normal -0 0 1
    outer loop
      vertex 202.536 5.57341 0.75
      vertex 205.163 0.342605 0.75
      vertex 203.464 5.57341 0.75
    endloop
  endfacet
  facet normal 0 -1 -0
    outer loop
      vertex 202.536 8.42658 -0.75
      vertex 203.464 8.42658 -0.75
      vertex 203.464 8.42658 0.75
    endloop
  endfacet
  facet normal 0 -1 0
    outer loop
      vertex 202.536 8.42658 -0.75
      vertex 203.464 8.42658 0.75
      vertex 202.536 8.42658 0.75
    endloop
  endfacet
  facet normal 0 0 -1
    outer loop
      vertex 202.536 8.42658 -0.75
      vertex 208.663 11.1145 -0.75
      vertex 203.464 8.42658 -0.75
    endloop
  endfacet
  facet normal 0 0 1
    outer loop
      vertex 202.536 8.42658 0.75
      vertex 203.464 8.42658 0.75
      vertex 208.663 11.1145 0.75
    endloop
  endfacet
  facet normal -0.587787 0.809015 0
    outer loop
      vertex 203.464 5.57341 -0.75
      vertex 203.464 5.57341 0.75
      vertex 204.214 6.11832 -0.75
    endloop
  endfacet
  facet normal 0 0 -1
    outer loop
      vertex 203.464 5.57341 -0.75
      vertex 204.214 6.11832 -0.75
      vertex 205.163 0.342605 -0.75
    endloop
  endfacet
  facet normal -0.587787 0.809015 0
    outer loop
      vertex 203.464 5.57341 0.75
      vertex 204.214 6.11832 0.75
      vertex 204.214 6.11832 -0.75
    endloop
  endfacet
  facet normal -0 0 1
    outer loop
      vertex 203.464 5.57341 0.75
      vertex 205.163 0.342605 0.75
      vertex 204.214 6.11832 0.75
    endloop
  endfacet
  facet normal -0.58778 -0.809021 -0
    outer loop
      vertex 203.464 8.42658 -0.75
      vertex 204.214 7.88168 -0.75
      vertex 204.214 7.88168 0.75
    endloop
  endfacet
  facet normal -0.58778 -0.809021 0
    outer loop
      vertex 203.464 8.42658 -0.75
      vertex 204.214 7.88168 0.75
      vertex 203.464 8.42658 0.75
    endloop
  endfacet
  facet normal 0 0 -1
    outer loop
      vertex 203.464 8.42658 -0.75
      vertex 208.663 11.1145 -0.75
      vertex 204.214 7.88168 -0.75
    endloop
  endfacet
  facet normal 0 0 1
    outer loop
      vertex 203.464 8.42658 0.75
      vertex 204.214 7.88168 0.75
      vertex 208.663 11.1145 0.75
    endloop
  endfacet
  facet normal -0.951207 0.308553 0
    outer loop
      vertex 204.214 6.11832 -0.75
      vertex 204.214 6.11832 0.75
      vertex 204.5 7 0.75
    endloop
  endfacet
  facet normal 0 0 -1
    outer loop
      vertex 204.214 6.11832 -0.75
      vertex 204.5 7 -0.75
      vertex 208.663 2.8855 -0.75
    endloop
  endfacet
  facet normal -0.951207 0.308553 0
    outer loop
      vertex 204.214 6.11832 -0.75
      vertex 204.5 7 0.75
      vertex 204.5 7 -0.75
    endloop
  endfacet
  facet normal 0 0 -1
    outer loop
      vertex 204.214 6.11832 -0.75
      vertex 208.663 2.8855 -0.75
      vertex 205.163 0.342605 -0.75
    endloop
  endfacet
  facet normal 0 0 1
    outer loop
      vertex 204.214 6.11832 0.75
      vertex 205.163 0.342605 0.75
      vertex 208.663 2.8855 0.75
    endloop
  endfacet
  facet normal -0 0 1
    outer loop
      vertex 204.214 6.11832 0.75
      vertex 208.663 2.8855 0.75
      vertex 204.5 7 0.75
    endloop
  endfacet
  facet normal -0.951207 -0.308553 0
    outer loop
      vertex 204.214 7.88168 -0.75
      vertex 204.5 7 -0.75
      vertex 204.214 7.88168 0.75
    endloop
  endfacet
  facet normal 0 0 -1
    outer loop
      vertex 204.214 7.88168 -0.75
      vertex 208.663 11.1145 -0.75
      vertex 204.5 7 -0.75
    endloop
  endfacet
  facet normal -0.951207 -0.308553 0
    outer loop
      vertex 204.214 7.88168 0.75
      vertex 204.5 7 -0.75
      vertex 204.5 7 0.75
    endloop
  endfacet
  facet normal 0 0 1
    outer loop
      vertex 204.214 7.88168 0.75
      vertex 204.5 7 0.75
      vertex 208.663 11.1145 0.75
    endloop
  endfacet
  facet normal 0 0 -1
    outer loop
      vertex 204.5 7 -0.75
      vertex 208.663 11.1145 -0.75
      vertex 210 7 -0.75
    endloop
  endfacet
  facet normal 0 0 -1
    outer loop
      vertex 204.5 7 -0.75
      vertex 210 7 -0.75
      vertex 208.663 2.8855 -0.75
    endloop
  endfacet
  facet normal 0 0 1
    outer loop
      vertex 204.5 7 0.75
      vertex 208.663 2.8855 0.75
      vertex 210 7 0.75
    endloop
  endfacet
  facet normal 0 0 1
    outer loop
      vertex 204.5 7 0.75
      vertex 210 7 0.75
      vertex 208.663 11.1145 0.75
    endloop
  endfacet
  facet normal 0.587785 -0.809017 0
    outer loop
      vertex 205.163 0.342605 -0.75
      vertex 208.663 2.8855 -0.75
      vertex 208.663 2.8855 0.75
    endloop
  endfacet
  facet normal 0.587785 -0.809017 0
    outer loop
      vertex 205.163 0.342605 -0.75
      vertex 208.663 2.8855 0.75
      vertex 205.163 0.342605 0.75
    endloop
  endfacet
  facet normal 0.951049 0.309042 0
    outer loop
      vertex 208.663 11.1145 -0.75
      vertex 208.663 11.1145 0.75
      vertex 210 7 0.75
    endloop
  endfacet
  facet normal 0.951049 0.309042 0
    outer loop
      vertex 208.663 11.1145 -0.75
      vertex 210 7 0.75
      vertex 210 7 -0.75
    endloop
  endfacet
  facet normal 0.951049 -0.309042 0
    outer loop
      vertex 208.663 2.8855 -0.75
      vertex 210 7 -0.75
      vertex 208.663 2.8855 0.75
    endloop
  endfacet
  facet normal 0.951049 -0.309042 0
    outer loop
      vertex 208.663 2.8855 0.75
      vertex 210 7 -0.75
      vertex 210 7 0.75
    endloop
  endfacet
  facet normal 0 0 -1
    outer loop
      vertex 4.83688 0.342605 -0.75
      vertex 122.536 5.57341 -0.75
      vertex 205.163 0.342605 -0.75
    endloop
  endfacet
  facet normal 0 -1 -0
    outer loop
      vertex 4.83688 0.342605 -0.75
      vertex 205.163 0.342605 -0.75
      vertex 205.163 0.342605 0.75
    endloop
  endfacet
  facet normal 0 -1 0
    outer loop
      vertex 4.83688 0.342605 -0.75
      vertex 205.163 0.342605 0.75
      vertex 4.83688 0.342605 0.75
    endloop
  endfacet
  facet normal -0 0 -1
    outer loop
      vertex 4.83688 0.342605 -0.75
      vertex 42.5365 15.5734 -0.75
      vertex 43.4635 15.5734 -0.75
    endloop
  endfacet
  facet normal -0 0 -1
    outer loop
      vertex 4.83688 0.342605 -0.75
      vertex 43.4635 15.5734 -0.75
      vertex 82.5365 15.5734 -0.75
    endloop
  endfacet
  facet normal -0 0 -1
    outer loop
      vertex 4.83688 0.342605 -0.75
      vertex 5.82443 5.38197 -0.75
      vertex 6.38197 5.09789 -0.75
    endloop
  endfacet
  facet normal -0 0 -1
    outer loop
      vertex 4.83688 0.342605 -0.75
      vertex 6.38197 5.09789 -0.75
      vertex 7 5 -0.75
    endloop
  endfacet
  facet normal 0 0 -1
    outer loop
      vertex 4.83688 0.342605 -0.75
      vertex 7 5 -0.75
      vertex 7.61803 5.09789 -0.75
    endloop
  endfacet
  facet normal 0 0 -1
    outer loop
      vertex 4.83688 0.342605 -0.75
      vertex 7.61803 5.09789 -0.75
      vertex 8.17557 5.38197 -0.75
    endloop
  endfacet
  facet normal 0 0 -1
    outer loop
      vertex 4.83688 0.342605 -0.75
      vertex 8.17557 5.38197 -0.75
      vertex 8.61803 5.82443 -0.75
    endloop
  endfacet
  facet normal 0 0 -1
    outer loop
      vertex 4.83688 0.342605 -0.75
      vertex 8.61803 5.82443 -0.75
      vertex 42.5365 15.5734 -0.75
    endloop
  endfacet
  facet normal 0 0 -1
    outer loop
      vertex 4.83688 0.342605 -0.75
      vertex 82.5365 15.5734 -0.75
      vertex 122.536 5.57341 -0.75
    endloop
  endfacet
  facet normal 0 0 1
    outer loop
      vertex 4.83688 0.342605 0.75
      vertex 122.536 5.57341 0.75
      vertex 82.5365 15.5734 0.75
    endloop
  endfacet
  facet normal 0 0 1
    outer loop
      vertex 4.83688 0.342605 0.75
      vertex 205.163 0.342605 0.75
      vertex 122.536 5.57341 0.75
    endloop
  endfacet
  facet normal 0 0 1
    outer loop
      vertex 4.83688 0.342605 0.75
      vertex 42.5365 15.5734 0.75
      vertex 8.61803 5.82443 0.75
    endloop
  endfacet
  facet normal 0 0 1
    outer loop
      vertex 4.83688 0.342605 0.75
      vertex 43.4635 15.5734 0.75
      vertex 42.5365 15.5734 0.75
    endloop
  endfacet
  facet normal 0 0 1
    outer loop
      vertex 4.83688 0.342605 0.75
      vertex 6.38197 5.09789 0.75
      vertex 5.82443 5.38197 0.75
    endloop
  endfacet
  facet normal 0 0 1
    outer loop
      vertex 4.83688 0.342605 0.75
      vertex 7 5 0.75
      vertex 6.38197 5.09789 0.75
    endloop
  endfacet
  facet normal 0 0 1
    outer loop
      vertex 4.83688 0.342605 0.75
      vertex 7.61803 5.09789 0.75
      vertex 7 5 0.75
    endloop
  endfacet
  facet normal 0 0 1
    outer loop
      vertex 4.83688 0.342605 0.75
      vertex 8.17557 5.38197 0.75
      vertex 7.61803 5.09789 0.75
    endloop
  endfacet
  facet normal 0 0 1
    outer loop
      vertex 4.83688 0.342605 0.75
      vertex 8.61803 5.82443 0.75
      vertex 8.17557 5.38197 0.75
    endloop
  endfacet
  facet normal 0 0 1
    outer loop
      vertex 4.83688 0.342605 0.75
      vertex 82.5365 15.5734 0.75
      vertex 43.4635 15.5734 0.75
    endloop
  endfacet
  facet normal 0 0 -1
    outer loop
      vertex 4.83688 33.6574 -0.75
      vertex 142.536 26.4266 -0.75
      vertex 83.4635 18.4266 -0.75
    endloop
  endfacet
  facet normal 0 0 -1
    outer loop
      vertex 4.83688 33.6574 -0.75
      vertex 180.163 33.6574 -0.75
      vertex 142.536 26.4266 -0.75
    endloop
  endfacet
  facet normal 0 1 0
    outer loop
      vertex 4.83688 33.6574 -0.75
      vertex 4.83688 33.6574 0.75
      vertex 180.163 33.6574 -0.75
    endloop
  endfacet
  facet normal 0 0 -1
    outer loop
      vertex 4.83688 33.6574 -0.75
      vertex 42.5365 18.4266 -0.75
      vertex 8.61803 28.1756 -0.75
    endloop
  endfacet
  facet normal 0 0 -1
    outer loop
      vertex 4.83688 33.6574 -0.75
      vertex 43.4635 18.4266 -0.75
      vertex 42.5365 18.4266 -0.75
    endloop
  endfacet
  facet normal 0 0 -1
    outer loop
      vertex 4.83688 33.6574 -0.75
      vertex 6.38197 28.9021 -0.75
      vertex 5.82443 28.618 -0.75
    endloop
  endfacet
  facet normal 0 0 -1
    outer loop
      vertex 4.83688 33.6574 -0.75
      vertex 7 29 -0.75
      vertex 6.38197 28.9021 -0.75
    endloop
  endfacet
  facet normal 0 0 -1
    outer loop
      vertex 4.83688 33.6574 -0.75
      vertex 7.61803 28.9021 -0.75
      vertex 7 29 -0.75
    endloop
  endfacet
  facet normal 0 0 -1
    outer loop
      vertex 4.83688 33.6574 -0.75
      vertex 8.17557 28.618 -0.75
      vertex 7.61803 28.9021 -0.75
    endloop
  endfacet
  facet normal 0 0 -1
    outer loop
      vertex 4.83688 33.6574 -0.75
      vertex 8.61803 28.1756 -0.75
      vertex 8.17557 28.618 -0.75
    endloop
  endfacet
  facet normal 0 0 -1
    outer loop
      vertex 4.83688 33.6574 -0.75
      vertex 82.5365 18.4266 -0.75
      vertex 43.4635 18.4266 -0.75
    endloop
  endfacet
  facet normal 0 0 -1
    outer loop
      vertex 4.83688 33.6574 -0.75
      vertex 83.4635 18.4266 -0.75
      vertex 82.5365 18.4266 -0.75
    endloop
  endfacet
  facet normal -0 0 1
    outer loop
      vertex 4.83688 33.6574 0.75
      vertex 142.536 26.4266 0.75
      vertex 180.163 33.6574 0.75
    endloop
  endfacet
  facet normal 0 1 -0
    outer loop
      vertex 4.83688 33.6574 0.75
      vertex 180.163 33.6574 0.75
      vertex 180.163 33.6574 -0.75
    endloop
  endfacet
  facet normal 0 0 1
    outer loop
      vertex 4.83688 33.6574 0.75
      vertex 42.5365 18.4266 0.75
      vertex 43.4635 18.4266 0.75
    endloop
  endfacet
  facet normal 0 0 1
    outer loop
      vertex 4.83688 33.6574 0.75
      vertex 43.4635 18.4266 0.75
      vertex 82.5365 18.4266 0.75
    endloop
  endfacet
  facet normal 0 0 1
    outer loop
      vertex 4.83688 33.6574 0.75
      vertex 5.82443 28.618 0.75
      vertex 6.38197 28.9021 0.75
    endloop
  endfacet
  facet normal 0 0 1
    outer loop
      vertex 4.83688 33.6574 0.75
      vertex 6.38197 28.9021 0.75
      vertex 7 29 0.75
    endloop
  endfacet
  facet normal 0 0 1
    outer loop
      vertex 4.83688 33.6574 0.75
      vertex 7 29 0.75
      vertex 7.61803 28.9021 0.75
    endloop
  endfacet
  facet normal 0 0 1
    outer loop
      vertex 4.83688 33.6574 0.75
      vertex 7.61803 28.9021 0.75
      vertex 8.17557 28.618 0.75
    endloop
  endfacet
  facet normal 0 0 1
    outer loop
      vertex 4.83688 33.6574 0.75
      vertex 8.17557 28.618 0.75
      vertex 8.61803 28.1756 0.75
    endloop
  endfacet
  facet normal 0 0 1
    outer loop
      vertex 4.83688 33.6574 0.75
      vertex 8.61803 28.1756 0.75
      vertex 42.5365 18.4266 0.75
    endloop
  endfacet
  facet normal 0 0 1
    outer loop
      vertex 4.83688 33.6574 0.75
      vertex 82.5365 18.4266 0.75
      vertex 83.4635 18.4266 0.75
    endloop
  endfacet
  facet normal 0 0 1
    outer loop
      vertex 4.83688 33.6574 0.75
      vertex 83.4635 18.4266 0.75
      vertex 142.536 26.4266 0.75
    endloop
  endfacet
  facet normal 0.951051 0.309035 0
    outer loop
      vertex 41.5 17 -0.75
      vertex 41.5 17 0.75
      vertex 41.7865 16.1183 0.75
    endloop
  endfacet
  facet normal 0.951051 0.309035 0
    outer loop
      vertex 41.5 17 -0.75
      vertex 41.7865 16.1183 0.75
      vertex 41.7865 16.1183 -0.75
    endloop
  endfacet
  facet normal 0.951051 -0.309035 0
    outer loop
      vertex 41.5 17 -0.75
      vertex 41.7865 17.8817 -0.75
      vertex 41.5 17 0.75
    endloop
  endfacet
  facet normal 0.951051 -0.309035 0
    outer loop
      vertex 41.5 17 0.75
      vertex 41.7865 17.8817 -0.75
      vertex 41.7865 17.8817 0.75
    endloop
  endfacet
  facet normal 0.58778 0.809021 0
    outer loop
      vertex 41.7865 16.1183 -0.75
      vertex 41.7865 16.1183 0.75
      vertex 42.5365 15.5734 -0.75
    endloop
  endfacet
  facet normal 0.58778 0.809021 -0
    outer loop
      vertex 41.7865 16.1183 0.75
      vertex 42.5365 15.5734 0.75
      vertex 42.5365 15.5734 -0.75
    endloop
  endfacet
  facet normal 0.58778 -0.809021 0
    outer loop
      vertex 41.7865 17.8817 -0.75
      vertex 42.5365 18.4266 -0.75
      vertex 42.5365 18.4266 0.75
    endloop
  endfacet
  facet normal 0.58778 -0.809021 0
    outer loop
      vertex 41.7865 17.8817 -0.75
      vertex 42.5365 18.4266 0.75
      vertex 41.7865 17.8817 0.75
    endloop
  endfacet
  facet normal 0 1 0
    outer loop
      vertex 42.5365 15.5734 -0.75
      vertex 42.5365 15.5734 0.75
      vertex 43.4635 15.5734 -0.75
    endloop
  endfacet
  facet normal 0 1 -0
    outer loop
      vertex 42.5365 15.5734 0.75
      vertex 43.4635 15.5734 0.75
      vertex 43.4635 15.5734 -0.75
    endloop
  endfacet
  facet normal 0 -1 -0
    outer loop
      vertex 42.5365 18.4266 -0.75
      vertex 43.4635 18.4266 -0.75
      vertex 43.4635 18.4266 0.75
    endloop
  endfacet
  facet normal 0 -1 0
    outer loop
      vertex 42.5365 18.4266 -0.75
      vertex 43.4635 18.4266 0.75
      vertex 42.5365 18.4266 0.75
    endloop
  endfacet
  facet normal -0.58778 0.809021 0
    outer loop
      vertex 43.4635 15.5734 -0.75
      vertex 43.4635 15.5734 0.75
      vertex 44.2135 16.1183 -0.75
    endloop
  endfacet
  facet normal 0 0 -1
    outer loop
      vertex 43.4635 15.5734 -0.75
      vertex 44.2135 16.1183 -0.75
      vertex 82.5365 15.5734 -0.75
    endloop
  endfacet
  facet normal -0.58778 0.809021 0
    outer loop
      vertex 43.4635 15.5734 0.75
      vertex 44.2135 16.1183 0.75
      vertex 44.2135 16.1183 -0.75
    endloop
  endfacet
  facet normal 0 0 1
    outer loop
      vertex 43.4635 15.5734 0.75
      vertex 82.5365 15.5734 0.75
      vertex 44.2135 16.1183 0.75
    endloop
  endfacet
  facet normal -0.58778 -0.809021 -0
    outer loop
      vertex 43.4635 18.4266 -0.75
      vertex 44.2135 17.8817 -0.75
      vertex 44.2135 17.8817 0.75
    endloop
  endfacet
  facet normal -0.58778 -0.809021 0
    outer loop
      vertex 43.4635 18.4266 -0.75
      vertex 44.2135 17.8817 0.75
      vertex 43.4635 18.4266 0.75
    endloop
  endfacet
  facet normal 0 0 -1
    outer loop
      vertex 43.4635 18.4266 -0.75
      vertex 82.5365 18.4266 -0.75
      vertex 44.2135 17.8817 -0.75
    endloop
  endfacet
  facet normal 0 0 1
    outer loop
      vertex 43.4635 18.4266 0.75
      vertex 44.2135 17.8817 0.75
      vertex 82.5365 18.4266 0.75
    endloop
  endfacet
  facet normal -0.951051 0.309035 0
    outer loop
      vertex 44.2135 16.1183 -0.75
      vertex 44.2135 16.1183 0.75
      vertex 44.5 17 0.75
    endloop
  endfacet
  facet normal 0 0 -1
    outer loop
      vertex 44.2135 16.1183 -0.75
      vertex 44.5 17 -0.75
      vertex 81.7865 16.1183 -0.75
    endloop
  endfacet
  facet normal -0.951051 0.309035 0
    outer loop
      vertex 44.2135 16.1183 -0.75
      vertex 44.5 17 0.75
      vertex 44.5 17 -0.75
    endloop
  endfacet
  facet normal 0 0 -1
    outer loop
      vertex 44.2135 16.1183 -0.75
      vertex 81.7865 16.1183 -0.75
      vertex 82.5365 15.5734 -0.75
    endloop
  endfacet
  facet normal 0 0 1
    outer loop
      vertex 44.2135 16.1183 0.75
      vertex 81.7865 16.1183 0.75
      vertex 44.5 17 0.75
    endloop
  endfacet
  facet normal 0 0 1
    outer loop
      vertex 44.2135 16.1183 0.75
      vertex 82.5365 15.5734 0.75
      vertex 81.7865 16.1183 0.75
    endloop
  endfacet
  facet normal -0.951051 -0.309035 0
    outer loop
      vertex 44.2135 17.8817 -0.75
      vertex 44.5 17 -0.75
      vertex 44.2135 17.8817 0.75
    endloop
  endfacet
  facet normal 0 0 -1
    outer loop
      vertex 44.2135 17.8817 -0.75
      vertex 81.7865 17.8817 -0.75
      vertex 44.5 17 -0.75
    endloop
  endfacet
  facet normal 0 0 -1
    outer loop
      vertex 44.2135 17.8817 -0.75
      vertex 82.5365 18.4266 -0.75
      vertex 81.7865 17.8817 -0.75
    endloop
  endfacet
  facet normal -0.951051 -0.309035 0
    outer loop
      vertex 44.2135 17.8817 0.75
      vertex 44.5 17 -0.75
      vertex 44.5 17 0.75
    endloop
  endfacet
  facet normal 0 0 1
    outer loop
      vertex 44.2135 17.8817 0.75
      vertex 44.5 17 0.75
      vertex 81.7865 17.8817 0.75
    endloop
  endfacet
  facet normal 0 0 1
    outer loop
      vertex 44.2135 17.8817 0.75
      vertex 81.7865 17.8817 0.75
      vertex 82.5365 18.4266 0.75
    endloop
  endfacet
  facet normal 0 0 -1
    outer loop
      vertex 44.5 17 -0.75
      vertex 81.5 17 -0.75
      vertex 81.7865 16.1183 -0.75
    endloop
  endfacet
  facet normal 0 0 -1
    outer loop
      vertex 44.5 17 -0.75
      vertex 81.7865 17.8817 -0.75
      vertex 81.5 17 -0.75
    endloop
  endfacet
  facet normal 0 0 1
    outer loop
      vertex 44.5 17 0.75
      vertex 81.5 17 0.75
      vertex 81.7865 17.8817 0.75
    endloop
  endfacet
  facet normal -0 0 1
    outer loop
      vertex 44.5 17 0.75
      vertex 81.7865 16.1183 0.75
      vertex 81.5 17 0.75
    endloop
  endfacet
  facet normal 0.987686 0.156448 0
    outer loop
      vertex 5 27 -0.75
      vertex 5 27 0.75
      vertex 5.09789 26.382 0.75
    endloop
  endfacet
  facet normal 0.987686 0.156448 0
    outer loop
      vertex 5 27 -0.75
      vertex 5.09789 26.382 0.75
      vertex 5.09789 26.382 -0.75
    endloop
  endfacet
  facet normal 0.987686 -0.156448 0
    outer loop
      vertex 5 27 -0.75
      vertex 5.09789 27.618 -0.75
      vertex 5 27 0.75
    endloop
  endfacet
  facet normal 0.987686 -0.156448 0
    outer loop
      vertex 5 27 0.75
      vertex 5.09789 27.618 -0.75
      vertex 5.09789 27.618 0.75
    endloop
  endfacet
  facet normal 0.987687 0.15644 0
    outer loop
      vertex 5 7 -0.75
      vertex 5 7 0.75
      vertex 5.09789 6.38197 0.75
    endloop
  endfacet
  facet normal 0.987687 0.15644 0
    outer loop
      vertex 5 7 -0.75
      vertex 5.09789 6.38197 0.75
      vertex 5.09789 6.38197 -0.75
    endloop
  endfacet
  facet normal 0.987687 -0.15644 0
    outer loop
      vertex 5 7 -0.75
      vertex 5.09789 7.61803 -0.75
      vertex 5 7 0.75
    endloop
  endfacet
  facet normal 0.987687 -0.15644 0
    outer loop
      vertex 5 7 0.75
      vertex 5.09789 7.61803 -0.75
      vertex 5.09789 7.61803 0.75
    endloop
  endfacet
  facet normal 0.891027 0.453951 0
    outer loop
      vertex 5.09789 26.382 -0.75
      vertex 5.09789 26.382 0.75
      vertex 5.38197 25.8244 0.75
    endloop
  endfacet
  facet normal 0.891027 0.453951 0
    outer loop
      vertex 5.09789 26.382 -0.75
      vertex 5.38197 25.8244 0.75
      vertex 5.38197 25.8244 -0.75
    endloop
  endfacet
  facet normal 0.891027 -0.453951 0
    outer loop
      vertex 5.09789 27.618 -0.75
      vertex 5.38197 28.1756 -0.75
      vertex 5.09789 27.618 0.75
    endloop
  endfacet
  facet normal 0.891027 -0.453951 0
    outer loop
      vertex 5.09789 27.618 0.75
      vertex 5.38197 28.1756 -0.75
      vertex 5.38197 28.1756 0.75
    endloop
  endfacet
  facet normal 0.891007 0.453989 0
    outer loop
      vertex 5.09789 6.38197 -0.75
      vertex 5.09789 6.38197 0.75
      vertex 5.38197 5.82443 0.75
    endloop
  endfacet
  facet normal 0.891007 0.453989 0
    outer loop
      vertex 5.09789 6.38197 -0.75
      vertex 5.38197 5.82443 0.75
      vertex 5.38197 5.82443 -0.75
    endloop
  endfacet
  facet normal 0.891007 -0.453989 0
    outer loop
      vertex 5.09789 7.61803 -0.75
      vertex 5.38197 8.17557 -0.75
      vertex 5.09789 7.61803 0.75
    endloop
  endfacet
  facet normal 0.891007 -0.453989 0
    outer loop
      vertex 5.09789 7.61803 0.75
      vertex 5.38197 8.17557 -0.75
      vertex 5.38197 8.17557 0.75
    endloop
  endfacet
  facet normal 0.707059 0.707155 0
    outer loop
      vertex 5.38197 25.8244 -0.75
      vertex 5.38197 25.8244 0.75
      vertex 5.82443 25.382 0.75
    endloop
  endfacet
  facet normal 0.707059 0.707155 0
    outer loop
      vertex 5.38197 25.8244 -0.75
      vertex 5.82443 25.382 0.75
      vertex 5.82443 25.382 -0.75
    endloop
  endfacet
  facet normal 0.707059 -0.707155 0
    outer loop
      vertex 5.38197 28.1756 -0.75
      vertex 5.82443 28.618 -0.75
      vertex 5.38197 28.1756 0.75
    endloop
  endfacet
  facet normal 0.707059 -0.707155 0
    outer loop
      vertex 5.38197 28.1756 0.75
      vertex 5.82443 28.618 -0.75
      vertex 5.82443 28.618 0.75
    endloop
  endfacet
  facet normal 0.707107 0.707107 0
    outer loop
      vertex 5.38197 5.82443 -0.75
      vertex 5.38197 5.82443 0.75
      vertex 5.82443 5.38197 0.75
    endloop
  endfacet
  facet normal 0.707107 0.707107 0
    outer loop
      vertex 5.38197 5.82443 -0.75
      vertex 5.82443 5.38197 0.75
      vertex 5.82443 5.38197 -0.75
    endloop
  endfacet
  facet normal 0.707107 -0.707107 0
    outer loop
      vertex 5.38197 8.17557 -0.75
      vertex 5.82443 8.61803 -0.75
      vertex 5.38197 8.17557 0.75
    endloop
  endfacet
  facet normal 0.707107 -0.707107 0
    outer loop
      vertex 5.38197 8.17557 0.75
      vertex 5.82443 8.61803 -0.75
      vertex 5.82443 8.61803 0.75
    endloop
  endfacet
  facet normal 0.454015 0.890994 0
    outer loop
      vertex 5.82443 25.382 -0.75
      vertex 5.82443 25.382 0.75
      vertex 6.38197 25.0979 -0.75
    endloop
  endfacet
  facet normal 0.454015 0.890994 -0
    outer loop
      vertex 5.82443 25.382 0.75
      vertex 6.38197 25.0979 0.75
      vertex 6.38197 25.0979 -0.75
    endloop
  endfacet
  facet normal 0 0 1
    outer loop
      vertex 5.82443 25.382 0.75
      vertex 6.38197 8.90211 0.75
      vertex 6.38197 25.0979 0.75
    endloop
  endfacet
  facet normal 0.454015 -0.890994 0
    outer loop
      vertex 5.82443 28.618 -0.75
      vertex 6.38197 28.9021 -0.75
      vertex 6.38197 28.9021 0.75
    endloop
  endfacet
  facet normal 0.454015 -0.890994 0
    outer loop
      vertex 5.82443 28.618 -0.75
      vertex 6.38197 28.9021 0.75
      vertex 5.82443 28.618 0.75
    endloop
  endfacet
  facet normal 0.453989 0.891007 0
    outer loop
      vertex 5.82443 5.38197 -0.75
      vertex 5.82443 5.38197 0.75
      vertex 6.38197 5.09789 -0.75
    endloop
  endfacet
  facet normal 0.453989 0.891007 -0
    outer loop
      vertex 5.82443 5.38197 0.75
      vertex 6.38197 5.09789 0.75
      vertex 6.38197 5.09789 -0.75
    endloop
  endfacet
  facet normal 0 0 -1
    outer loop
      vertex 5.82443 8.61803 -0.75
      vertex 5.82443 25.382 -0.75
      vertex 6.38197 25.0979 -0.75
    endloop
  endfacet
  facet normal 0 0 -1
    outer loop
      vertex 5.82443 8.61803 -0.75
      vertex 6.38197 25.0979 -0.75
      vertex 6.38197 8.90211 -0.75
    endloop
  endfacet
  facet normal 0.453989 -0.891007 0
    outer loop
      vertex 5.82443 8.61803 -0.75
      vertex 6.38197 8.90211 -0.75
      vertex 6.38197 8.90211 0.75
    endloop
  endfacet
  facet normal 0.453989 -0.891007 0
    outer loop
      vertex 5.82443 8.61803 -0.75
      vertex 6.38197 8.90211 0.75
      vertex 5.82443 8.61803 0.75
    endloop
  endfacet
  facet normal 0 0 1
    outer loop
      vertex 5.82443 8.61803 0.75
      vertex 6.38197 8.90211 0.75
      vertex 5.82443 25.382 0.75
    endloop
  endfacet
  facet normal 0.156456 0.987685 0
    outer loop
      vertex 6.38197 25.0979 -0.75
      vertex 6.38197 25.0979 0.75
      vertex 7 25 -0.75
    endloop
  endfacet
  facet normal 0.156456 0.987685 -0
    outer loop
      vertex 6.38197 25.0979 0.75
      vertex 7 25 0.75
      vertex 7 25 -0.75
    endloop
  endfacet
  facet normal 0 0 1
    outer loop
      vertex 6.38197 25.0979 0.75
      vertex 7 9 0.75
      vertex 7 25 0.75
    endloop
  endfacet
  facet normal 0.156456 -0.987685 0
    outer loop
      vertex 6.38197 28.9021 -0.75
      vertex 7 29 -0.75
      vertex 7 29 0.75
    endloop
  endfacet
  facet normal 0.156456 -0.987685 0
    outer loop
      vertex 6.38197 28.9021 -0.75
      vertex 7 29 0.75
      vertex 6.38197 28.9021 0.75
    endloop
  endfacet
  facet normal 0.15644 0.987687 0
    outer loop
      vertex 6.38197 5.09789 -0.75
      vertex 6.38197 5.09789 0.75
      vertex 7 5 -0.75
    endloop
  endfacet
  facet normal 0.15644 0.987687 -0
    outer loop
      vertex 6.38197 5.09789 0.75
      vertex 7 5 0.75
      vertex 7 5 -0.75
    endloop
  endfacet
  facet normal 0 0 -1
    outer loop
      vertex 6.38197 8.90211 -0.75
      vertex 6.38197 25.0979 -0.75
      vertex 7 25 -0.75
    endloop
  endfacet
  facet normal 0 0 -1
    outer loop
      vertex 6.38197 8.90211 -0.75
      vertex 7 25 -0.75
      vertex 7 9 -0.75
    endloop
  endfacet
  facet normal 0.15644 -0.987687 0
    outer loop
      vertex 6.38197 8.90211 -0.75
      vertex 7 9 -0.75
      vertex 7 9 0.75
    endloop
  endfacet
  facet normal 0.15644 -0.987687 0
    outer loop
      vertex 6.38197 8.90211 -0.75
      vertex 7 9 0.75
      vertex 6.38197 8.90211 0.75
    endloop
  endfacet
  facet normal 0 0 1
    outer loop
      vertex 6.38197 8.90211 0.75
      vertex 7 9 0.75
      vertex 6.38197 25.0979 0.75
    endloop
  endfacet
  facet normal -0.156456 0.987685 0
    outer loop
      vertex 7 25 -0.75
      vertex 7 25 0.75
      vertex 7.61803 25.0979 -0.75
    endloop
  endfacet
  facet normal -0.156456 0.987685 0
    outer loop
      vertex 7 25 0.75
      vertex 7.61803 25.0979 0.75
      vertex 7.61803 25.0979 -0.75
    endloop
  endfacet
  facet normal -0 0 1
    outer loop
      vertex 7 25 0.75
      vertex 7.61803 8.90211 0.75
      vertex 7.61803 25.0979 0.75
    endloop
  endfacet
  facet normal -0.156456 -0.987685 -0
    outer loop
      vertex 7 29 -0.75
      vertex 7.61803 28.9021 -0.75
      vertex 7.61803 28.9021 0.75
    endloop
  endfacet
  facet normal -0.156456 -0.987685 0
    outer loop
      vertex 7 29 -0.75
      vertex 7.61803 28.9021 0.75
      vertex 7 29 0.75
    endloop
  endfacet
  facet normal -0.15644 0.987687 0
    outer loop
      vertex 7 5 -0.75
      vertex 7 5 0.75
      vertex 7.61803 5.09789 -0.75
    endloop
  endfacet
  facet normal -0.15644 0.987687 0
    outer loop
      vertex 7 5 0.75
      vertex 7.61803 5.09789 0.75
      vertex 7.61803 5.09789 -0.75
    endloop
  endfacet
  facet normal 0 0 -1
    outer loop
      vertex 7 9 -0.75
      vertex 7 25 -0.75
      vertex 7.61803 25.0979 -0.75
    endloop
  endfacet
  facet normal 0 0 -1
    outer loop
      vertex 7 9 -0.75
      vertex 7.61803 25.0979 -0.75
      vertex 7.61803 8.90211 -0.75
    endloop
  endfacet
  facet normal -0.15644 -0.987687 -0
    outer loop
      vertex 7 9 -0.75
      vertex 7.61803 8.90211 -0.75
      vertex 7.61803 8.90211 0.75
    endloop
  endfacet
  facet normal -0.15644 -0.987687 0
    outer loop
      vertex 7 9 -0.75
      vertex 7.61803 8.90211 0.75
      vertex 7 9 0.75
    endloop
  endfacet
  facet normal 0 0 1
    outer loop
      vertex 7 9 0.75
      vertex 7.61803 8.90211 0.75
      vertex 7 25 0.75
    endloop
  endfacet
  facet normal -0.454015 0.890994 0
    outer loop
      vertex 7.61803 25.0979 -0.75
      vertex 7.61803 25.0979 0.75
      vertex 8.17557 25.382 -0.75
    endloop
  endfacet
  facet normal -0.454015 0.890994 0
    outer loop
      vertex 7.61803 25.0979 0.75
      vertex 8.17557 25.382 0.75
      vertex 8.17557 25.382 -0.75
    endloop
  endfacet
  facet normal -0 0 1
    outer loop
      vertex 7.61803 25.0979 0.75
      vertex 8.17557 8.61803 0.75
      vertex 8.17557 25.382 0.75
    endloop
  endfacet
  facet normal -0.454015 -0.890994 -0
    outer loop
      vertex 7.61803 28.9021 -0.75
      vertex 8.17557 28.618 -0.75
      vertex 8.17557 28.618 0.75
    endloop
  endfacet
  facet normal -0.454015 -0.890994 0
    outer loop
      vertex 7.61803 28.9021 -0.75
      vertex 8.17557 28.618 0.75
      vertex 7.61803 28.9021 0.75
    endloop
  endfacet
  facet normal -0.453989 0.891007 0
    outer loop
      vertex 7.61803 5.09789 -0.75
      vertex 7.61803 5.09789 0.75
      vertex 8.17557 5.38197 -0.75
    endloop
  endfacet
  facet normal -0.453989 0.891007 0
    outer loop
      vertex 7.61803 5.09789 0.75
      vertex 8.17557 5.38197 0.75
      vertex 8.17557 5.38197 -0.75
    endloop
  endfacet
  facet normal 0 0 -1
    outer loop
      vertex 7.61803 8.90211 -0.75
      vertex 7.61803 25.0979 -0.75
      vertex 8.17557 25.382 -0.75
    endloop
  endfacet
  facet normal 0 0 -1
    outer loop
      vertex 7.61803 8.90211 -0.75
      vertex 8.17557 25.382 -0.75
      vertex 8.17557 8.61803 -0.75
    endloop
  endfacet
  facet normal -0.453989 -0.891007 -0
    outer loop
      vertex 7.61803 8.90211 -0.75
      vertex 8.17557 8.61803 -0.75
      vertex 8.17557 8.61803 0.75
    endloop
  endfacet
  facet normal -0.453989 -0.891007 0
    outer loop
      vertex 7.61803 8.90211 -0.75
      vertex 8.17557 8.61803 0.75
      vertex 7.61803 8.90211 0.75
    endloop
  endfacet
  facet normal 0 0 1
    outer loop
      vertex 7.61803 8.90211 0.75
      vertex 8.17557 8.61803 0.75
      vertex 7.61803 25.0979 0.75
    endloop
  endfacet
  facet normal -0.707059 0.707155 0
    outer loop
      vertex 8.17557 25.382 -0.75
      vertex 8.17557 25.382 0.75
      vertex 8.61803 25.8244 0.75
    endloop
  endfacet
  facet normal -0.707059 0.707155 0
    outer loop
      vertex 8.17557 25.382 -0.75
      vertex 8.61803 25.8244 0.75
      vertex 8.61803 25.8244 -0.75
    endloop
  endfacet
  facet normal -0 0 1
    outer loop
      vertex 8.17557 25.382 0.75
      vertex 8.61803 8.17557 0.75
      vertex 8.61803 25.8244 0.75
    endloop
  endfacet
  facet normal -0.707059 -0.707155 0
    outer loop
      vertex 8.17557 28.618 -0.75
      vertex 8.61803 28.1756 -0.75
      vertex 8.17557 28.618 0.75
    endloop
  endfacet
  facet normal -0.707059 -0.707155 0
    outer loop
      vertex 8.17557 28.618 0.75
      vertex 8.61803 28.1756 -0.75
      vertex 8.61803 28.1756 0.75
    endloop
  endfacet
  facet normal -0.707107 0.707107 0
    outer loop
      vertex 8.17557 5.38197 -0.75
      vertex 8.17557 5.38197 0.75
      vertex 8.61803 5.82443 0.75
    endloop
  endfacet
  facet normal -0.707107 0.707107 0
    outer loop
      vertex 8.17557 5.38197 -0.75
      vertex 8.61803 5.82443 0.75
      vertex 8.61803 5.82443 -0.75
    endloop
  endfacet
  facet normal 0 0 -1
    outer loop
      vertex 8.17557 8.61803 -0.75
      vertex 8.17557 25.382 -0.75
      vertex 8.61803 25.8244 -0.75
    endloop
  endfacet
  facet normal 0 0 -1
    outer loop
      vertex 8.17557 8.61803 -0.75
      vertex 8.61803 25.8244 -0.75
      vertex 8.61803 8.17557 -0.75
    endloop
  endfacet
  facet normal -0.707107 -0.707107 0
    outer loop
      vertex 8.17557 8.61803 -0.75
      vertex 8.61803 8.17557 -0.75
      vertex 8.17557 8.61803 0.75
    endloop
  endfacet
  facet normal -0.707107 -0.707107 0
    outer loop
      vertex 8.17557 8.61803 0.75
      vertex 8.61803 8.17557 -0.75
      vertex 8.61803 8.17557 0.75
    endloop
  endfacet
  facet normal 0 0 1
    outer loop
      vertex 8.17557 8.61803 0.75
      vertex 8.61803 8.17557 0.75
      vertex 8.17557 25.382 0.75
    endloop
  endfacet
  facet normal -0.891027 0.453951 0
    outer loop
      vertex 8.61803 25.8244 -0.75
      vertex 8.61803 25.8244 0.75
      vertex 8.90211 26.382 0.75
    endloop
  endfacet
  facet normal 0 0 -1
    outer loop
      vertex 8.61803 25.8244 -0.75
      vertex 8.90211 26.382 -0.75
      vertex 41.5 17 -0.75
    endloop
  endfacet
  facet normal -0.891027 0.453951 0
    outer loop
      vertex 8.61803 25.8244 -0.75
      vertex 8.90211 26.382 0.75
      vertex 8.90211 26.382 -0.75
    endloop
  endfacet
  facet normal -0 0 1
    outer loop
      vertex 8.61803 25.8244 0.75
      vertex 41.5 17 0.75
      vertex 8.90211 26.382 0.75
    endloop
  endfacet
  facet normal 0 0 -1
    outer loop
      vertex 8.61803 28.1756 -0.75
      vertex 42.5365 18.4266 -0.75
      vertex 8.90211 27.618 -0.75
    endloop
  endfacet
  facet normal -0.891027 -0.453951 0
    outer loop
      vertex 8.61803 28.1756 -0.75
      vertex 8.90211 27.618 -0.75
      vertex 8.61803 28.1756 0.75
    endloop
  endfacet
  facet normal -0.891027 -0.453951 0
    outer loop
      vertex 8.61803 28.1756 0.75
      vertex 8.90211 27.618 -0.75
      vertex 8.90211 27.618 0.75
    endloop
  endfacet
  facet normal 0 0 1
    outer loop
      vertex 8.61803 28.1756 0.75
      vertex 8.90211 27.618 0.75
      vertex 42.5365 18.4266 0.75
    endloop
  endfacet
  facet normal -0.891007 0.453989 0
    outer loop
      vertex 8.61803 5.82443 -0.75
      vertex 8.61803 5.82443 0.75
      vertex 8.90211 6.38197 0.75
    endloop
  endfacet
  facet normal 0 0 -1
    outer loop
      vertex 8.61803 5.82443 -0.75
      vertex 8.90211 6.38197 -0.75
      vertex 42.5365 15.5734 -0.75
    endloop
  endfacet
  facet normal -0.891007 0.453989 0
    outer loop
      vertex 8.61803 5.82443 -0.75
      vertex 8.90211 6.38197 0.75
      vertex 8.90211 6.38197 -0.75
    endloop
  endfacet
  facet normal 0 0 1
    outer loop
      vertex 8.61803 5.82443 0.75
      vertex 42.5365 15.5734 0.75
      vertex 8.90211 6.38197 0.75
    endloop
  endfacet
  facet normal 0 0 -1
    outer loop
      vertex 8.61803 8.17557 -0.75
      vertex 41.5 17 -0.75
      vertex 8.90211 7.61803 -0.75
    endloop
  endfacet
  facet normal 0 0 -1
    outer loop
      vertex 8.61803 8.17557 -0.75
      vertex 8.61803 25.8244 -0.75
      vertex 41.5 17 -0.75
    endloop
  endfacet
  facet normal -0.891007 -0.453989 0
    outer loop
      vertex 8.61803 8.17557 -0.75
      vertex 8.90211 7.61803 -0.75
      vertex 8.61803 8.17557 0.75
    endloop
  endfacet
  facet normal 0 0 1
    outer loop
      vertex 8.61803 8.17557 0.75
      vertex 41.5 17 0.75
      vertex 8.61803 25.8244 0.75
    endloop
  endfacet
  facet normal -0.891007 -0.453989 0
    outer loop
      vertex 8.61803 8.17557 0.75
      vertex 8.90211 7.61803 -0.75
      vertex 8.90211 7.61803 0.75
    endloop
  endfacet
  facet normal 0 0 1
    outer loop
      vertex 8.61803 8.17557 0.75
      vertex 8.90211 7.61803 0.75
      vertex 41.5 17 0.75
    endloop
  endfacet
  facet normal -0.987686 0.156448 0
    outer loop
      vertex 8.90211 26.382 -0.75
      vertex 8.90211 26.382 0.75
      vertex 9 27 0.75
    endloop
  endfacet
  facet normal 0 0 -1
    outer loop
      vertex 8.90211 26.382 -0.75
      vertex 9 27 -0.75
      vertex 41.5 17 -0.75
    endloop
  endfacet
  facet normal -0.987686 0.156448 0
    outer loop
      vertex 8.90211 26.382 -0.75
      vertex 9 27 0.75
      vertex 9 27 -0.75
    endloop
  endfacet
  facet normal 0 0 1
    outer loop
      vertex 8.90211 26.382 0.75
      vertex 41.5 17 0.75
      vertex 41.7865 17.8817 0.75
    endloop
  endfacet
  facet normal -0 0 1
    outer loop
      vertex 8.90211 26.382 0.75
      vertex 41.7865 17.8817 0.75
      vertex 9 27 0.75
    endloop
  endfacet
  facet normal 0 0 -1
    outer loop
      vertex 8.90211 27.618 -0.75
      vertex 41.7865 17.8817 -0.75
      vertex 9 27 -0.75
    endloop
  endfacet
  facet normal 0 0 -1
    outer loop
      vertex 8.90211 27.618 -0.75
      vertex 42.5365 18.4266 -0.75
      vertex 41.7865 17.8817 -0.75
    endloop
  endfacet
  facet normal -0.987686 -0.156448 0
    outer loop
      vertex 8.90211 27.618 -0.75
      vertex 9 27 -0.75
      vertex 8.90211 27.618 0.75
    endloop
  endfacet
  facet normal 0 0 1
    outer loop
      vertex 8.90211 27.618 0.75
      vertex 41.7865 17.8817 0.75
      vertex 42.5365 18.4266 0.75
    endloop
  endfacet
  facet normal -0.987686 -0.156448 0
    outer loop
      vertex 8.90211 27.618 0.75
      vertex 9 27 -0.75
      vertex 9 27 0.75
    endloop
  endfacet
  facet normal 0 0 1
    outer loop
      vertex 8.90211 27.618 0.75
      vertex 9 27 0.75
      vertex 41.7865 17.8817 0.75
    endloop
  endfacet
  facet normal 0 0 -1
    outer loop
      vertex 8.90211 6.38197 -0.75
      vertex 41.7865 16.1183 -0.75
      vertex 42.5365 15.5734 -0.75
    endloop
  endfacet
  facet normal -0.987687 0.15644 0
    outer loop
      vertex 8.90211 6.38197 -0.75
      vertex 8.90211 6.38197 0.75
      vertex 9 7 0.75
    endloop
  endfacet
  facet normal 0 0 -1
    outer loop
      vertex 8.90211 6.38197 -0.75
      vertex 9 7 -0.75
      vertex 41.7865 16.1183 -0.75
    endloop
  endfacet
  facet normal -0.987687 0.15644 0
    outer loop
      vertex 8.90211 6.38197 -0.75
      vertex 9 7 0.75
      vertex 9 7 -0.75
    endloop
  endfacet
  facet normal 0 0 1
    outer loop
      vertex 8.90211 6.38197 0.75
      vertex 41.7865 16.1183 0.75
      vertex 9 7 0.75
    endloop
  endfacet
  facet normal 0 0 1
    outer loop
      vertex 8.90211 6.38197 0.75
      vertex 42.5365 15.5734 0.75
      vertex 41.7865 16.1183 0.75
    endloop
  endfacet
  facet normal -0 0 -1
    outer loop
      vertex 8.90211 7.61803 -0.75
      vertex 41.5 17 -0.75
      vertex 41.7865 16.1183 -0.75
    endloop
  endfacet
  facet normal 0 0 -1
    outer loop
      vertex 8.90211 7.61803 -0.75
      vertex 41.7865 16.1183 -0.75
      vertex 9 7 -0.75
    endloop
  endfacet
  facet normal -0.987687 -0.15644 0
    outer loop
      vertex 8.90211 7.61803 -0.75
      vertex 9 7 -0.75
      vertex 8.90211 7.61803 0.75
    endloop
  endfacet
  facet normal -0.987687 -0.15644 0
    outer loop
      vertex 8.90211 7.61803 0.75
      vertex 9 7 -0.75
      vertex 9 7 0.75
    endloop
  endfacet
  facet normal 0 0 1
    outer loop
      vertex 8.90211 7.61803 0.75
      vertex 9 7 0.75
      vertex 41.5 17 0.75
    endloop
  endfacet
  facet normal 0.951051 0.309035 0
    outer loop
      vertex 81.5 17 -0.75
      vertex 81.5 17 0.75
      vertex 81.7865 16.1183 0.75
    endloop
  endfacet
  facet normal 0.951051 0.309035 0
    outer loop
      vertex 81.5 17 -0.75
      vertex 81.7865 16.1183 0.75
      vertex 81.7865 16.1183 -0.75
    endloop
  endfacet
  facet normal 0.951051 -0.309035 0
    outer loop
      vertex 81.5 17 -0.75
      vertex 81.7865 17.8817 -0.75
      vertex 81.5 17 0.75
    endloop
  endfacet
  facet normal 0.951051 -0.309035 0
    outer loop
      vertex 81.5 17 0.75
      vertex 81.7865 17.8817 -0.75
      vertex 81.7865 17.8817 0.75
    endloop
  endfacet
  facet normal 0.58778 0.809021 0
    outer loop
      vertex 81.7865 16.1183 -0.75
      vertex 81.7865 16.1183 0.75
      vertex 82.5365 15.5734 -0.75
    endloop
  endfacet
  facet normal 0.58778 0.809021 -0
    outer loop
      vertex 81.7865 16.1183 0.75
      vertex 82.5365 15.5734 0.75
      vertex 82.5365 15.5734 -0.75
    endloop
  endfacet
  facet normal 0.58778 -0.809021 0
    outer loop
      vertex 81.7865 17.8817 -0.75
      vertex 82.5365 18.4266 -0.75
      vertex 82.5365 18.4266 0.75
    endloop
  endfacet
  facet normal 0.58778 -0.809021 0
    outer loop
      vertex 81.7865 17.8817 -0.75
      vertex 82.5365 18.4266 0.75
      vertex 81.7865 17.8817 0.75
    endloop
  endfacet
  facet normal 0 1 0
    outer loop
      vertex 82.5365 15.5734 -0.75
      vertex 82.5365 15.5734 0.75
      vertex 83.4635 15.5734 -0.75
    endloop
  endfacet
  facet normal 0 0 -1
    outer loop
      vertex 82.5365 15.5734 -0.75
      vertex 83.4635 15.5734 -0.75
      vertex 122.536 5.57341 -0.75
    endloop
  endfacet
  facet normal -0 0 1
    outer loop
      vertex 82.5365 15.5734 0.75
      vertex 122.536 5.57341 0.75
      vertex 83.4635 15.5734 0.75
    endloop
  endfacet
  facet normal 0 1 -0
    outer loop
      vertex 82.5365 15.5734 0.75
      vertex 83.4635 15.5734 0.75
      vertex 83.4635 15.5734 -0.75
    endloop
  endfacet
  facet normal 0 -1 -0
    outer loop
      vertex 82.5365 18.4266 -0.75
      vertex 83.4635 18.4266 -0.75
      vertex 83.4635 18.4266 0.75
    endloop
  endfacet
  facet normal 0 -1 0
    outer loop
      vertex 82.5365 18.4266 -0.75
      vertex 83.4635 18.4266 0.75
      vertex 82.5365 18.4266 0.75
    endloop
  endfacet
  facet normal 0 0 -1
    outer loop
      vertex 83.4635 15.5734 -0.75
      vertex 121.786 6.11832 -0.75
      vertex 122.536 5.57341 -0.75
    endloop
  endfacet
  facet normal -0.58778 0.809021 0
    outer loop
      vertex 83.4635 15.5734 -0.75
      vertex 83.4635 15.5734 0.75
      vertex 84.2135 16.1183 -0.75
    endloop
  endfacet
  facet normal 0 0 -1
    outer loop
      vertex 83.4635 15.5734 -0.75
      vertex 84.2135 16.1183 -0.75
      vertex 121.786 6.11832 -0.75
    endloop
  endfacet
  facet normal -0 0 1
    outer loop
      vertex 83.4635 15.5734 0.75
      vertex 121.786 6.11832 0.75
      vertex 84.2135 16.1183 0.75
    endloop
  endfacet
  facet normal 0 0 1
    outer loop
      vertex 83.4635 15.5734 0.75
      vertex 122.536 5.57341 0.75
      vertex 121.786 6.11832 0.75
    endloop
  endfacet
  facet normal -0.58778 0.809021 0
    outer loop
      vertex 83.4635 15.5734 0.75
      vertex 84.2135 16.1183 0.75
      vertex 84.2135 16.1183 -0.75
    endloop
  endfacet
  facet normal 0 0 -1
    outer loop
      vertex 83.4635 18.4266 -0.75
      vertex 141.786 25.8817 -0.75
      vertex 84.2135 17.8817 -0.75
    endloop
  endfacet
  facet normal -0 0 -1
    outer loop
      vertex 83.4635 18.4266 -0.75
      vertex 142.536 26.4266 -0.75
      vertex 141.786 25.8817 -0.75
    endloop
  endfacet
  facet normal -0.58778 -0.809021 -0
    outer loop
      vertex 83.4635 18.4266 -0.75
      vertex 84.2135 17.8817 -0.75
      vertex 84.2135 17.8817 0.75
    endloop
  endfacet
  facet normal -0.58778 -0.809021 0
    outer loop
      vertex 83.4635 18.4266 -0.75
      vertex 84.2135 17.8817 0.75
      vertex 83.4635 18.4266 0.75
    endloop
  endfacet
  facet normal 0 0 1
    outer loop
      vertex 83.4635 18.4266 0.75
      vertex 141.786 25.8817 0.75
      vertex 142.536 26.4266 0.75
    endloop
  endfacet
  facet normal 0 0 1
    outer loop
      vertex 83.4635 18.4266 0.75
      vertex 84.2135 17.8817 0.75
      vertex 141.786 25.8817 0.75
    endloop
  endfacet
  facet normal 0 0 -1
    outer loop
      vertex 84.2135 16.1183 -0.75
      vertex 121.5 7 -0.75
      vertex 121.786 6.11832 -0.75
    endloop
  endfacet
  facet normal -0.951051 0.309035 0
    outer loop
      vertex 84.2135 16.1183 -0.75
      vertex 84.2135 16.1183 0.75
      vertex 84.5 17 0.75
    endloop
  endfacet
  facet normal 0 0 -1
    outer loop
      vertex 84.2135 16.1183 -0.75
      vertex 84.5 17 -0.75
      vertex 121.5 7 -0.75
    endloop
  endfacet
  facet normal -0.951051 0.309035 0
    outer loop
      vertex 84.2135 16.1183 -0.75
      vertex 84.5 17 0.75
      vertex 84.5 17 -0.75
    endloop
  endfacet
  facet normal -0 0 1
    outer loop
      vertex 84.2135 16.1183 0.75
      vertex 121.5 7 0.75
      vertex 84.5 17 0.75
    endloop
  endfacet
  facet normal 0 0 1
    outer loop
      vertex 84.2135 16.1183 0.75
      vertex 121.786 6.11832 0.75
      vertex 121.5 7 0.75
    endloop
  endfacet
  facet normal 0 0 -1
    outer loop
      vertex 84.2135 17.8817 -0.75
      vertex 121.786 7.88168 -0.75
      vertex 84.5 17 -0.75
    endloop
  endfacet
  facet normal 0 0 -1
    outer loop
      vertex 84.2135 17.8817 -0.75
      vertex 122.536 8.42658 -0.75
      vertex 121.786 7.88168 -0.75
    endloop
  endfacet
  facet normal 0 0 -1
    outer loop
      vertex 84.2135 17.8817 -0.75
      vertex 141.786 25.8817 -0.75
      vertex 122.536 8.42658 -0.75
    endloop
  endfacet
  facet normal -0.951051 -0.309035 0
    outer loop
      vertex 84.2135 17.8817 -0.75
      vertex 84.5 17 -0.75
      vertex 84.2135 17.8817 0.75
    endloop
  endfacet
  facet normal 0 0 1
    outer loop
      vertex 84.2135 17.8817 0.75
      vertex 121.786 7.88168 0.75
      vertex 122.536 8.42658 0.75
    endloop
  endfacet
  facet normal -0 0 1
    outer loop
      vertex 84.2135 17.8817 0.75
      vertex 122.536 8.42658 0.75
      vertex 141.786 25.8817 0.75
    endloop
  endfacet
  facet normal -0.951051 -0.309035 0
    outer loop
      vertex 84.2135 17.8817 0.75
      vertex 84.5 17 -0.75
      vertex 84.5 17 0.75
    endloop
  endfacet
  facet normal 0 0 1
    outer loop
      vertex 84.2135 17.8817 0.75
      vertex 84.5 17 0.75
      vertex 121.786 7.88168 0.75
    endloop
  endfacet
  facet normal 0 0 -1
    outer loop
      vertex 84.5 17 -0.75
      vertex 121.786 7.88168 -0.75
      vertex 121.5 7 -0.75
    endloop
  endfacet
  facet normal 0 0 1
    outer loop
      vertex 84.5 17 0.75
      vertex 121.5 7 0.75
      vertex 121.786 7.88168 0.75
    endloop
  endfacet
  facet normal 0 0 -1
    outer loop
      vertex 9 27 -0.75
      vertex 41.7865 17.8817 -0.75
      vertex 41.5 17 -0.75
    endloop
  endfacet
  facet normal 0 0 1
    outer loop
      vertex 9 7 0.75
      vertex 41.7865 16.1183 0.75
      vertex 41.5 17 0.75
    endloop
  endfacet
endsolid model
