solid model
  facet normal -1 0 0
    outer loop
      vertex 0 -17.3103 -0.32651
      vertex 0 -17.3103 0.32651
      vertex 0 17.3103 0.32651
    endloop
  endfacet
  facet normal -1 0 0
    outer loop
      vertex 0 -17.3103 -0.32651
      vertex 0 17.3103 -0.32651
      vertex 0 17.3921 -0.974382
    endloop
  endfacet
  facet normal -1 0 0
    outer loop
      vertex 0 -17.3103 -0.32651
      vertex 0 17.3103 0.32651
      vertex 0 17.3103 -0.32651
    endloop
  endfacet
  facet normal 0 -1 -0
    outer loop
      vertex 0 -17.3103 -0.32651
      vertex 20 -17.3103 -0.32651
      vertex 20 -17.3103 0.32651
    endloop
  endfacet
  facet normal 0 -1 0
    outer loop
      vertex 0 -17.3103 -0.32651
      vertex 20 -17.3103 0.32651
      vertex 0 -17.3103 0.32651
    endloop
  endfacet
  facet normal -1 0 0
    outer loop
      vertex 0 -17.3103 0.32651
      vertex 0 17.3921 0.974382
      vertex 0 17.3103 0.32651
    endloop
  endfacet
  facet normal 0 -0.992115 -0.125332
    outer loop
      vertex 0 -17.3103 0.32651
      vertex 20 -17.3103 0.32651
      vertex 20 -17.3921 0.974382
    endloop
  endfacet
  facet normal -1 0 0
    outer loop
      vertex 0 -17.3921 -0.974382
      vertex 0 -17.3103 -0.32651
      vertex 0 17.3921 -0.974382
    endloop
  endfacet
  facet normal -1 0 0
    outer loop
      vertex 0 -17.3921 -0.974382
      vertex 0 17.3921 -0.974382
      vertex 0 17.5545 -1.60689
    endloop
  endfacet
  facet normal 0 -0.992115 0.125332
    outer loop
      vertex 0 -17.3921 -0.974382
      vertex 20 -17.3103 -0.32651
      vertex 0 -17.3103 -0.32651
    endloop
  endfacet
  facet normal 0 -0.992115 0.125332
    outer loop
      vertex 0 -17.3921 -0.974382
      vertex 20 -17.3921 -0.974382
      vertex 20 -17.3103 -0.32651
    endloop
  endfacet
  facet normal 0 -0.992115 -0.125332
    outer loop
      vertex 0 -17.3921 0.974382
      vertex 0 -17.3103 0.32651
      vertex 20 -17.3921 0.974382
    endloop
  endfacet
  facet normal -1 0 0
    outer loop
      vertex 0 -17.3921 0.974382
      vertex 0 17.3921 0.974382
      vertex 0 -17.3103 0.32651
    endloop
  endfacet
  facet normal -1 0 0
    outer loop
      vertex 0 -17.3921 0.974382
      vertex 0 17.5545 1.60689
      vertex 0 17.3921 0.974382
    endloop
  endfacet
  facet normal 0 -0.968583 -0.248689
    outer loop
      vertex 0 -17.3921 0.974382
      vertex 20 -17.3921 0.974382
      vertex 20 -17.5545 1.60689
    endloop
  endfacet
  facet normal -1 0 0
    outer loop
      vertex 0 -17.5545 -1.60689
      vertex 0 -17.3921 -0.974382
      vertex 0 17.5545 -1.60689
    endloop
  endfacet
  facet normal -1 0 0
    outer loop
      vertex 0 -17.5545 -1.60689
      vertex 0 17.5545 -1.60689
      vertex 0 17.7949 -2.21405
    endloop
  endfacet
  facet normal 0 -0.968583 0.248689
    outer loop
      vertex 0 -17.5545 -1.60689
      vertex 20 -17.3921 -0.974382
      vertex 0 -17.3921 -0.974382
    endloop
  endfacet
  facet normal 0 -0.968583 0.248689
    outer loop
      vertex 0 -17.5545 -1.60689
      vertex 20 -17.5545 -1.60689
      vertex 20 -17.3921 -0.974382
    endloop
  endfacet
  facet normal 0 -0.968583 -0.248689
    outer loop
      vertex 0 -17.5545 1.60689
      vertex 0 -17.3921 0.974382
      vertex 20 -17.5545 1.60689
    endloop
  endfacet
  facet normal -1 0 0
    outer loop
      vertex 0 -17.5545 1.60689
      vertex 0 17.5545 1.60689
      vertex 0 -17.3921 0.974382
    endloop
  endfacet
  facet normal -1 0 0
    outer loop
      vertex 0 -17.5545 1.60689
      vertex 0 17.7949 2.21405
      vertex 0 17.5545 1.60689
    endloop
  endfacet
  facet normal 0 -0.929776 -0.368126
    outer loop
      vertex 0 -17.5545 1.60689
      vertex 20 -17.5545 1.60689
      vertex 20 -17.7949 2.21405
    endloop
  endfacet
  facet normal -1 0 0
    outer loop
      vertex 0 -17.7949 -2.21405
      vertex 0 -17.5545 -1.60689
      vertex 0 17.7949 -2.21405
    endloop
  endfacet
  facet normal -1 0 0
    outer loop
      vertex 0 -17.7949 -2.21405
      vertex 0 17.7949 -2.21405
      vertex 0 18.1095 -2.7863
    endloop
  endfacet
  facet normal 0 -0.929776 0.368126
    outer loop
      vertex 0 -17.7949 -2.21405
      vertex 20 -17.5545 -1.60689
      vertex 0 -17.5545 -1.60689
    endloop
  endfacet
  facet normal 0 -0.929776 0.368126
    outer loop
      vertex 0 -17.7949 -2.21405
      vertex 20 -17.7949 -2.21405
      vertex 20 -17.5545 -1.60689
    endloop
  endfacet
  facet normal 0 -0.929776 -0.368126
    outer loop
      vertex 0 -17.7949 2.21405
      vertex 0 -17.5545 1.60689
      vertex 20 -17.7949 2.21405
    endloop
  endfacet
  facet normal -1 0 0
    outer loop
      vertex 0 -17.7949 2.21405
      vertex 0 17.7949 2.21405
      vertex 0 -17.5545 1.60689
    endloop
  endfacet
  facet normal -1 0 0
    outer loop
      vertex 0 -17.7949 2.21405
      vertex 0 18.1095 2.7863
      vertex 0 17.7949 2.21405
    endloop
  endfacet
  facet normal 0 -0.876307 -0.481753
    outer loop
      vertex 0 -17.7949 2.21405
      vertex 20 -17.7949 2.21405
      vertex 20 -18.1095 2.7863
    endloop
  endfacet
  facet normal -1 0 0
    outer loop
      vertex 0 -18.1095 -2.7863
      vertex 0 -17.7949 -2.21405
      vertex 0 18.1095 -2.7863
    endloop
  endfacet
  facet normal -1 0 0
    outer loop
      vertex 0 -18.1095 -2.7863
      vertex 0 18.1095 -2.7863
      vertex 0 18.4933 -3.3146
    endloop
  endfacet
  facet normal 0 -0.876307 0.481753
    outer loop
      vertex 0 -18.1095 -2.7863
      vertex 20 -17.7949 -2.21405
      vertex 0 -17.7949 -2.21405
    endloop
  endfacet
  facet normal 0 -0.876307 0.481753
    outer loop
      vertex 0 -18.1095 -2.7863
      vertex 20 -18.1095 -2.7863
      vertex 20 -17.7949 -2.21405
    endloop
  endfacet
  facet normal 0 -0.876307 -0.481753
    outer loop
      vertex 0 -18.1095 2.7863
      vertex 0 -17.7949 2.21405
      vertex 20 -18.1095 2.7863
    endloop
  endfacet
  facet normal -1 0 0
    outer loop
      vertex 0 -18.1095 2.7863
      vertex 0 18.1095 2.7863
      vertex 0 -17.7949 2.21405
    endloop
  endfacet
  facet normal -1 0 0
    outer loop
      vertex 0 -18.1095 2.7863
      vertex 0 18.4933 3.3146
      vertex 0 18.1095 2.7863
    endloop
  endfacet
  facet normal 0 -0.809015 -0.587788
    outer loop
      vertex 0 -18.1095 2.7863
      vertex 20 -18.1095 2.7863
      vertex 20 -18.4933 3.3146
    endloop
  endfacet
  facet normal -1 0 0
    outer loop
      vertex 0 -18.4933 -3.3146
      vertex 0 -18.1095 -2.7863
      vertex 0 18.4933 -3.3146
    endloop
  endfacet
  facet normal -1 0 0
    outer loop
      vertex 0 -18.4933 -3.3146
      vertex 0 18.4933 -3.3146
      vertex 0 18.9404 -3.79064
    endloop
  endfacet
  facet normal 0 -0.809015 0.587788
    outer loop
      vertex 0 -18.4933 -3.3146
      vertex 20 -18.1095 -2.7863
      vertex 0 -18.1095 -2.7863
    endloop
  endfacet
  facet normal 0 -0.809015 0.587788
    outer loop
      vertex 0 -18.4933 -3.3146
      vertex 20 -18.4933 -3.3146
      vertex 20 -18.1095 -2.7863
    endloop
  endfacet
  facet normal 0 -0.809015 -0.587788
    outer loop
      vertex 0 -18.4933 3.3146
      vertex 0 -18.1095 2.7863
      vertex 20 -18.4933 3.3146
    endloop
  endfacet
  facet normal -1 0 0
    outer loop
      vertex 0 -18.4933 3.3146
      vertex 0 18.4933 3.3146
      vertex 0 -18.1095 2.7863
    endloop
  endfacet
  facet normal -1 0 0
    outer loop
      vertex 0 -18.4933 3.3146
      vertex 0 18.9404 3.79064
      vertex 0 18.4933 3.3146
    endloop
  endfacet
  facet normal 0 -0.728971 -0.684545
    outer loop
      vertex 0 -18.4933 3.3146
      vertex 20 -18.4933 3.3146
      vertex 20 -18.9404 3.79064
    endloop
  endfacet
  facet normal -1 0 0
    outer loop
      vertex 0 -18.9404 -3.79064
      vertex 0 -18.4933 -3.3146
      vertex 0 18.9404 -3.79064
    endloop
  endfacet
  facet normal -1 0 0
    outer loop
      vertex 0 -18.9404 -3.79064
      vertex 0 18.9404 -3.79064
      vertex 0 19.4435 -4.20689
    endloop
  endfacet
  facet normal 0 -0.728971 0.684545
    outer loop
      vertex 0 -18.9404 -3.79064
      vertex 20 -18.4933 -3.3146
      vertex 0 -18.4933 -3.3146
    endloop
  endfacet
  facet normal 0 -0.728971 0.684545
    outer loop
      vertex 0 -18.9404 -3.79064
      vertex 20 -18.9404 -3.79064
      vertex 20 -18.4933 -3.3146
    endloop
  endfacet
  facet normal 0 -0.637424 0.770513
    outer loop
      vertex 0 -18.9404 -3.79064
      vertex 20 -19.4435 -4.20689
      vertex 20 -18.9404 -3.79064
    endloop
  endfacet
  facet normal 0 -0.728971 -0.684545
    outer loop
      vertex 0 -18.9404 3.79064
      vertex 0 -18.4933 3.3146
      vertex 20 -18.9404 3.79064
    endloop
  endfacet
  facet normal -1 0 0
    outer loop
      vertex 0 -18.9404 3.79064
      vertex 0 18.9404 3.79064
      vertex 0 -18.4933 3.3146
    endloop
  endfacet
  facet normal -1 0 0
    outer loop
      vertex 0 -18.9404 3.79064
      vertex 0 19.4435 4.20689
      vertex 0 18.9404 3.79064
    endloop
  endfacet
  facet normal -1 0 0
    outer loop
      vertex 0 -19.4435 -4.20689
      vertex 0 -18.9404 -3.79064
      vertex 0 19.4435 -4.20689
    endloop
  endfacet
  facet normal 0 -0.637424 0.770513
    outer loop
      vertex 0 -19.4435 -4.20689
      vertex 20 -19.4435 -4.20689
      vertex 0 -18.9404 -3.79064
    endloop
  endfacet
  facet normal 0 -0.535826 0.844329
    outer loop
      vertex 0 -19.4435 -4.20689
      vertex 20 -19.9949 -4.55679
      vertex 20 -19.4435 -4.20689
    endloop
  endfacet
  facet normal -0 -0.637424 -0.770513
    outer loop
      vertex 0 -19.4435 4.20689
      vertex 0 -18.9404 3.79064
      vertex 20 -18.9404 3.79064
    endloop
  endfacet
  facet normal -1 0 0
    outer loop
      vertex 0 -19.4435 4.20689
      vertex 0 19.4435 4.20689
      vertex 0 -18.9404 3.79064
    endloop
  endfacet
  facet normal 0 -0.637424 -0.770513
    outer loop
      vertex 0 -19.4435 4.20689
      vertex 20 -18.9404 3.79064
      vertex 20 -19.4435 4.20689
    endloop
  endfacet
  facet normal -1 -0 0
    outer loop
      vertex 0 -19.9949 -4.55679
      vertex 0 -19.4435 -4.20689
      vertex 0 19.4435 -4.20689
    endloop
  endfacet
  facet normal -1 0 0
    outer loop
      vertex 0 -19.9949 -4.55679
      vertex 0 19.4435 -4.20689
      vertex 0 19.9949 -4.55679
    endloop
  endfacet
  facet normal -1 0 0
    outer loop
      vertex 0 -19.9949 -4.55679
      vertex 0 19.9949 -4.55679
      vertex 0 32.2058 -13.5
    endloop
  endfacet
  facet normal 0 -0.535826 0.844329
    outer loop
      vertex 0 -19.9949 -4.55679
      vertex 20 -19.9949 -4.55679
      vertex 0 -19.4435 -4.20689
    endloop
  endfacet
  facet normal 0 -0.42578 0.904827
    outer loop
      vertex 0 -19.9949 -4.55679
      vertex 20 -20.5858 -4.83484
      vertex 20 -19.9949 -4.55679
    endloop
  endfacet
  facet normal -0 -0.535826 -0.844329
    outer loop
      vertex 0 -19.9949 4.55679
      vertex 0 -19.4435 4.20689
      vertex 20 -19.4435 4.20689
    endloop
  endfacet
  facet normal -1 0 0
    outer loop
      vertex 0 -19.9949 4.55679
      vertex 0 19.4435 4.20689
      vertex 0 -19.4435 4.20689
    endloop
  endfacet
  facet normal -1 0 0
    outer loop
      vertex 0 -19.9949 4.55679
      vertex 0 19.9949 4.55679
      vertex 0 19.4435 4.20689
    endloop
  endfacet
  facet normal -1 0 0
    outer loop
      vertex 0 -19.9949 4.55679
      vertex 0 32.2058 13.5
      vertex 0 19.9949 4.55679
    endloop
  endfacet
  facet normal 0 -0.535826 -0.844329
    outer loop
      vertex 0 -19.9949 4.55679
      vertex 20 -19.4435 4.20689
      vertex 20 -19.9949 4.55679
    endloop
  endfacet
  facet normal 0 -0.42578 0.904827
    outer loop
      vertex 0 -20.5858 -4.83484
      vertex 20 -20.5858 -4.83484
      vertex 0 -19.9949 -4.55679
    endloop
  endfacet
  facet normal 0 -0.309016 0.951057
    outer loop
      vertex 0 -20.5858 -4.83484
      vertex 20 -21.2068 -5.03663
      vertex 20 -20.5858 -4.83484
    endloop
  endfacet
  facet normal -0 -0.42578 -0.904827
    outer loop
      vertex 0 -20.5858 4.83484
      vertex 0 -19.9949 4.55679
      vertex 20 -19.9949 4.55679
    endloop
  endfacet
  facet normal 0 -0.42578 -0.904827
    outer loop
      vertex 0 -20.5858 4.83484
      vertex 20 -19.9949 4.55679
      vertex 20 -20.5858 4.83484
    endloop
  endfacet
  facet normal 0 -0.309016 0.951057
    outer loop
      vertex 0 -21.2068 -5.03663
      vertex 20 -21.2068 -5.03663
      vertex 0 -20.5858 -4.83484
    endloop
  endfacet
  facet normal 0 -0.187381 0.982287
    outer loop
      vertex 0 -21.2068 -5.03663
      vertex 20 -21.8483 -5.159
      vertex 20 -21.2068 -5.03663
    endloop
  endfacet
  facet normal -0 -0.309016 -0.951057
    outer loop
      vertex 0 -21.2068 5.03663
      vertex 0 -20.5858 4.83484
      vertex 20 -20.5858 4.83484
    endloop
  endfacet
  facet normal 0 -0.309016 -0.951057
    outer loop
      vertex 0 -21.2068 5.03663
      vertex 20 -20.5858 4.83484
      vertex 20 -21.2068 5.03663
    endloop
  endfacet
  facet normal 0 -0.187381 0.982287
    outer loop
      vertex 0 -21.8483 -5.159
      vertex 20 -21.8483 -5.159
      vertex 0 -21.2068 -5.03663
    endloop
  endfacet
  facet normal 0 -0.0627914 0.998027
    outer loop
      vertex 0 -21.8483 -5.159
      vertex 20 -22.5 -5.2
      vertex 20 -21.8483 -5.159
    endloop
  endfacet
  facet normal -0 -0.187381 -0.982287
    outer loop
      vertex 0 -21.8483 5.159
      vertex 0 -21.2068 5.03663
      vertex 20 -21.2068 5.03663
    endloop
  endfacet
  facet normal 0 -0.187381 -0.982287
    outer loop
      vertex 0 -21.8483 5.159
      vertex 20 -21.2068 5.03663
      vertex 20 -21.8483 5.159
    endloop
  endfacet
  facet normal 0 -0.0627914 0.998027
    outer loop
      vertex 0 -22.5 -5.2
      vertex 20 -22.5 -5.2
      vertex 0 -21.8483 -5.159
    endloop
  endfacet
  facet normal -0 0.0627914 0.998027
    outer loop
      vertex 0 -22.5 -5.2
      vertex 20 -23.1517 -5.159
      vertex 20 -22.5 -5.2
    endloop
  endfacet
  facet normal -0 -0.0627914 -0.998027
    outer loop
      vertex 0 -22.5 5.2
      vertex 0 -21.8483 5.159
      vertex 20 -21.8483 5.159
    endloop
  endfacet
  facet normal 0 -0.0627914 -0.998027
    outer loop
      vertex 0 -22.5 5.2
      vertex 20 -21.8483 5.159
      vertex 20 -22.5 5.2
    endloop
  endfacet
  facet normal 0 0.0627914 0.998027
    outer loop
      vertex 0 -23.1517 -5.159
      vertex 20 -23.1517 -5.159
      vertex 0 -22.5 -5.2
    endloop
  endfacet
  facet normal -0 0.187382 0.982287
    outer loop
      vertex 0 -23.1517 -5.159
      vertex 20 -23.7932 -5.03663
      vertex 20 -23.1517 -5.159
    endloop
  endfacet
  facet normal 0 0.0627914 -0.998027
    outer loop
      vertex 0 -23.1517 5.159
      vertex 0 -22.5 5.2
      vertex 20 -22.5 5.2
    endloop
  endfacet
  facet normal 0 0.0627914 -0.998027
    outer loop
      vertex 0 -23.1517 5.159
      vertex 20 -22.5 5.2
      vertex 20 -23.1517 5.159
    endloop
  endfacet
  facet normal 0 0.187382 0.982287
    outer loop
      vertex 0 -23.7932 -5.03663
      vertex 20 -23.7932 -5.03663
      vertex 0 -23.1517 -5.159
    endloop
  endfacet
  facet normal -0 0.309016 0.951057
    outer loop
      vertex 0 -23.7932 -5.03663
      vertex 20 -24.4142 -4.83484
      vertex 20 -23.7932 -5.03663
    endloop
  endfacet
  facet normal 0 0.187382 -0.982287
    outer loop
      vertex 0 -23.7932 5.03663
      vertex 0 -23.1517 5.159
      vertex 20 -23.1517 5.159
    endloop
  endfacet
  facet normal 0 0.187382 -0.982287
    outer loop
      vertex 0 -23.7932 5.03663
      vertex 20 -23.1517 5.159
      vertex 20 -23.7932 5.03663
    endloop
  endfacet
  facet normal 0 0.309016 0.951057
    outer loop
      vertex 0 -24.4142 -4.83484
      vertex 20 -24.4142 -4.83484
      vertex 0 -23.7932 -5.03663
    endloop
  endfacet
  facet normal -0 0.425779 0.904827
    outer loop
      vertex 0 -24.4142 -4.83484
      vertex 20 -25.0051 -4.55679
      vertex 20 -24.4142 -4.83484
    endloop
  endfacet
  facet normal 0 0.309016 -0.951057
    outer loop
      vertex 0 -24.4142 4.83484
      vertex 0 -23.7932 5.03663
      vertex 20 -23.7932 5.03663
    endloop
  endfacet
  facet normal 0 0.309016 -0.951057
    outer loop
      vertex 0 -24.4142 4.83484
      vertex 20 -23.7932 5.03663
      vertex 20 -24.4142 4.83484
    endloop
  endfacet
  facet normal 0 0.425779 0.904827
    outer loop
      vertex 0 -25.0051 -4.55679
      vertex 20 -25.0051 -4.55679
      vertex 0 -24.4142 -4.83484
    endloop
  endfacet
  facet normal -0 0.535826 0.844329
    outer loop
      vertex 0 -25.0051 -4.55679
      vertex 20 -25.5565 -4.20689
      vertex 20 -25.0051 -4.55679
    endloop
  endfacet
  facet normal 0 0.425779 -0.904827
    outer loop
      vertex 0 -25.0051 4.55679
      vertex 0 -24.4142 4.83484
      vertex 20 -24.4142 4.83484
    endloop
  endfacet
  facet normal 0 0.425779 -0.904827
    outer loop
      vertex 0 -25.0051 4.55679
      vertex 20 -24.4142 4.83484
      vertex 20 -25.0051 4.55679
    endloop
  endfacet
  facet normal 0 0.535826 0.844329
    outer loop
      vertex 0 -25.5565 -4.20689
      vertex 20 -25.5565 -4.20689
      vertex 0 -25.0051 -4.55679
    endloop
  endfacet
  facet normal -0 0.637425 0.770512
    outer loop
      vertex 0 -25.5565 -4.20689
      vertex 20 -26.0596 -3.79064
      vertex 20 -25.5565 -4.20689
    endloop
  endfacet
  facet normal 0 0.535826 -0.844329
    outer loop
      vertex 0 -25.5565 4.20689
      vertex 0 -25.0051 4.55679
      vertex 20 -25.0051 4.55679
    endloop
  endfacet
  facet normal 0 0.535826 -0.844329
    outer loop
      vertex 0 -25.5565 4.20689
      vertex 20 -25.0051 4.55679
      vertex 20 -25.5565 4.20689
    endloop
  endfacet
  facet normal 0 0.637425 0.770512
    outer loop
      vertex 0 -26.0596 -3.79064
      vertex 20 -26.0596 -3.79064
      vertex 0 -25.5565 -4.20689
    endloop
  endfacet
  facet normal 0 0.637425 -0.770512
    outer loop
      vertex 0 -26.0596 3.79064
      vertex 0 -25.5565 4.20689
      vertex 20 -25.5565 4.20689
    endloop
  endfacet
  facet normal 0 0.637425 -0.770512
    outer loop
      vertex 0 -26.0596 3.79064
      vertex 20 -25.5565 4.20689
      vertex 20 -26.0596 3.79064
    endloop
  endfacet
  facet normal 0 0.728969 -0.684547
    outer loop
      vertex 0 -26.0596 3.79064
      vertex 20 -26.0596 3.79064
      vertex 20 -26.5067 3.3146
    endloop
  endfacet
  facet normal 0 0.728969 0.684547
    outer loop
      vertex 0 -26.5067 -3.3146
      vertex 20 -26.0596 -3.79064
      vertex 0 -26.0596 -3.79064
    endloop
  endfacet
  facet normal 0 0.728969 0.684547
    outer loop
      vertex 0 -26.5067 -3.3146
      vertex 20 -26.5067 -3.3146
      vertex 20 -26.0596 -3.79064
    endloop
  endfacet
  facet normal 0 0.728969 -0.684547
    outer loop
      vertex 0 -26.5067 3.3146
      vertex 0 -26.0596 3.79064
      vertex 20 -26.5067 3.3146
    endloop
  endfacet
  facet normal 0 0.809017 -0.587786
    outer loop
      vertex 0 -26.5067 3.3146
      vertex 20 -26.5067 3.3146
      vertex 20 -26.8905 2.7863
    endloop
  endfacet
  facet normal 0 0.809017 0.587786
    outer loop
      vertex 0 -26.8905 -2.7863
      vertex 20 -26.5067 -3.3146
      vertex 0 -26.5067 -3.3146
    endloop
  endfacet
  facet normal 0 0.809017 0.587786
    outer loop
      vertex 0 -26.8905 -2.7863
      vertex 20 -26.8905 -2.7863
      vertex 20 -26.5067 -3.3146
    endloop
  endfacet
  facet normal 0 0.809017 -0.587786
    outer loop
      vertex 0 -26.8905 2.7863
      vertex 0 -26.5067 3.3146
      vertex 20 -26.8905 2.7863
    endloop
  endfacet
  facet normal 0 0.876306 -0.481755
    outer loop
      vertex 0 -26.8905 2.7863
      vertex 20 -26.8905 2.7863
      vertex 20 -27.2051 2.21405
    endloop
  endfacet
  facet normal 0 0.876306 0.481755
    outer loop
      vertex 0 -27.2051 -2.21405
      vertex 20 -26.8905 -2.7863
      vertex 0 -26.8905 -2.7863
    endloop
  endfacet
  facet normal 0 0.876306 0.481755
    outer loop
      vertex 0 -27.2051 -2.21405
      vertex 20 -27.2051 -2.21405
      vertex 20 -26.8905 -2.7863
    endloop
  endfacet
  facet normal 0 0.876306 -0.481755
    outer loop
      vertex 0 -27.2051 2.21405
      vertex 0 -26.8905 2.7863
      vertex 20 -27.2051 2.21405
    endloop
  endfacet
  facet normal 0 0.929777 -0.368124
    outer loop
      vertex 0 -27.2051 2.21405
      vertex 20 -27.2051 2.21405
      vertex 20 -27.4455 1.60689
    endloop
  endfacet
  facet normal 0 0.929777 0.368124
    outer loop
      vertex 0 -27.4455 -1.60689
      vertex 20 -27.2051 -2.21405
      vertex 0 -27.2051 -2.21405
    endloop
  endfacet
  facet normal 0 0.929777 0.368124
    outer loop
      vertex 0 -27.4455 -1.60689
      vertex 20 -27.4455 -1.60689
      vertex 20 -27.2051 -2.21405
    endloop
  endfacet
  facet normal 0 0.929777 -0.368124
    outer loop
      vertex 0 -27.4455 1.60689
      vertex 0 -27.2051 2.21405
      vertex 20 -27.4455 1.60689
    endloop
  endfacet
  facet normal 0 0.968583 -0.248689
    outer loop
      vertex 0 -27.4455 1.60689
      vertex 20 -27.4455 1.60689
      vertex 20 -27.6079 0.974382
    endloop
  endfacet
  facet normal 0 0.968583 0.248689
    outer loop
      vertex 0 -27.6079 -0.974382
      vertex 20 -27.4455 -1.60689
      vertex 0 -27.4455 -1.60689
    endloop
  endfacet
  facet normal 0 0.968583 0.248689
    outer loop
      vertex 0 -27.6079 -0.974382
      vertex 20 -27.6079 -0.974382
      vertex 20 -27.4455 -1.60689
    endloop
  endfacet
  facet normal 0 0.968583 -0.248689
    outer loop
      vertex 0 -27.6079 0.974382
      vertex 0 -27.4455 1.60689
      vertex 20 -27.6079 0.974382
    endloop
  endfacet
  facet normal 0 0.992115 -0.125335
    outer loop
      vertex 0 -27.6079 0.974382
      vertex 20 -27.6079 0.974382
      vertex 20 -27.6897 0.32651
    endloop
  endfacet
  facet normal 0 1 0
    outer loop
      vertex 0 -27.6897 -0.32651
      vertex 0 -27.6897 0.32651
      vertex 20 -27.6897 -0.32651
    endloop
  endfacet
  facet normal 0 0.992115 0.125335
    outer loop
      vertex 0 -27.6897 -0.32651
      vertex 20 -27.6079 -0.974382
      vertex 0 -27.6079 -0.974382
    endloop
  endfacet
  facet normal 0 0.992115 0.125335
    outer loop
      vertex 0 -27.6897 -0.32651
      vertex 20 -27.6897 -0.32651
      vertex 20 -27.6079 -0.974382
    endloop
  endfacet
  facet normal 0 0.992115 -0.125335
    outer loop
      vertex 0 -27.6897 0.32651
      vertex 0 -27.6079 0.974382
      vertex 20 -27.6897 0.32651
    endloop
  endfacet
  facet normal 0 1 -0
    outer loop
      vertex 0 -27.6897 0.32651
      vertex 20 -27.6897 0.32651
      vertex 20 -27.6897 -0.32651
    endloop
  endfacet
  facet normal -1 0 0
    outer loop
      vertex 0 -32.2058 -13.5
      vertex 0 -19.9949 -4.55679
      vertex 0 32.2058 -13.5
    endloop
  endfacet
  facet normal -1 0 0
    outer loop
      vertex 0 -32.2058 -13.5
      vertex 0 -20.5858 -4.83484
      vertex 0 -19.9949 -4.55679
    endloop
  endfacet
  facet normal -1 0 0
    outer loop
      vertex 0 -32.2058 -13.5
      vertex 0 -21.2068 -5.03663
      vertex 0 -20.5858 -4.83484
    endloop
  endfacet
  facet normal -1 0 0
    outer loop
      vertex 0 -32.2058 -13.5
      vertex 0 -21.8483 -5.159
      vertex 0 -21.2068 -5.03663
    endloop
  endfacet
  facet normal -1 0 0
    outer loop
      vertex 0 -32.2058 -13.5
      vertex 0 -22.5 -5.2
      vertex 0 -21.8483 -5.159
    endloop
  endfacet
  facet normal -1 -0 0
    outer loop
      vertex 0 -32.2058 -13.5
      vertex 0 -23.1517 -5.159
      vertex 0 -22.5 -5.2
    endloop
  endfacet
  facet normal -1 -0 0
    outer loop
      vertex 0 -32.2058 -13.5
      vertex 0 -23.7932 -5.03663
      vertex 0 -23.1517 -5.159
    endloop
  endfacet
  facet normal -1 -0 0
    outer loop
      vertex 0 -32.2058 -13.5
      vertex 0 -24.4142 -4.83484
      vertex 0 -23.7932 -5.03663
    endloop
  endfacet
  facet normal -1 -0 0
    outer loop
      vertex 0 -32.2058 -13.5
      vertex 0 -25.0051 -4.55679
      vertex 0 -24.4142 -4.83484
    endloop
  endfacet
  facet normal -1 -0 0
    outer loop
      vertex 0 -32.2058 -13.5
      vertex 0 -25.5565 -4.20689
      vertex 0 -25.0051 -4.55679
    endloop
  endfacet
  facet normal -1 -0 0
    outer loop
      vertex 0 -32.2058 -13.5
      vertex 0 -26.0596 -3.79064
      vertex 0 -25.5565 -4.20689
    endloop
  endfacet
  facet normal -1 -0 0
    outer loop
      vertex 0 -32.2058 -13.5
      vertex 0 -26.5067 -3.3146
      vertex 0 -26.0596 -3.79064
    endloop
  endfacet
  facet normal -1 -0 0
    outer loop
      vertex 0 -32.2058 -13.5
      vertex 0 -26.8905 -2.7863
      vertex 0 -26.5067 -3.3146
    endloop
  endfacet
  facet normal -1 -0 0
    outer loop
      vertex 0 -32.2058 -13.5
      vertex 0 -27.2051 -2.21405
      vertex 0 -26.8905 -2.7863
    endloop
  endfacet
  facet normal -0 0 -1
    outer loop
      vertex 0 -32.2058 -13.5
      vertex 0 32.2058 -13.5
      vertex 20 32.2058 -13.5
    endloop
  endfacet
  facet normal 0 -0.866025 -0.5
    outer loop
      vertex 0 -32.2058 -13.5
      vertex 20 -32.2058 -13.5
      vertex 20 -40 0
    endloop
  endfacet
  facet normal 0 0 -1
    outer loop
      vertex 0 -32.2058 -13.5
      vertex 20 32.2058 -13.5
      vertex 20 -32.2058 -13.5
    endloop
  endfacet
  facet normal -1 0 0
    outer loop
      vertex 0 -32.2058 13.5
      vertex 0 -19.9949 4.55679
      vertex 0 -20.5858 4.83484
    endloop
  endfacet
  facet normal -1 0 0
    outer loop
      vertex 0 -32.2058 13.5
      vertex 0 -20.5858 4.83484
      vertex 0 -21.2068 5.03663
    endloop
  endfacet
  facet normal -1 0 0
    outer loop
      vertex 0 -32.2058 13.5
      vertex 0 -21.2068 5.03663
      vertex 0 -21.8483 5.159
    endloop
  endfacet
  facet normal -1 0 0
    outer loop
      vertex 0 -32.2058 13.5
      vertex 0 -21.8483 5.159
      vertex 0 -22.5 5.2
    endloop
  endfacet
  facet normal -1 0 0
    outer loop
      vertex 0 -32.2058 13.5
      vertex 0 -22.5 5.2
      vertex 0 -23.1517 5.159
    endloop
  endfacet
  facet normal -1 0 0
    outer loop
      vertex 0 -32.2058 13.5
      vertex 0 -23.1517 5.159
      vertex 0 -23.7932 5.03663
    endloop
  endfacet
  facet normal -1 0 0
    outer loop
      vertex 0 -32.2058 13.5
      vertex 0 -23.7932 5.03663
      vertex 0 -24.4142 4.83484
    endloop
  endfacet
  facet normal -1 0 0
    outer loop
      vertex 0 -32.2058 13.5
      vertex 0 -24.4142 4.83484
      vertex 0 -25.0051 4.55679
    endloop
  endfacet
  facet normal -1 0 0
    outer loop
      vertex 0 -32.2058 13.5
      vertex 0 -25.0051 4.55679
      vertex 0 -25.5565 4.20689
    endloop
  endfacet
  facet normal -1 0 0
    outer loop
      vertex 0 -32.2058 13.5
      vertex 0 -25.5565 4.20689
      vertex 0 -26.0596 3.79064
    endloop
  endfacet
  facet normal -1 0 0
    outer loop
      vertex 0 -32.2058 13.5
      vertex 0 -26.0596 3.79064
      vertex 0 -26.5067 3.3146
    endloop
  endfacet
  facet normal -1 0 0
    outer loop
      vertex 0 -32.2058 13.5
      vertex 0 -26.5067 3.3146
      vertex 0 -26.8905 2.7863
    endloop
  endfacet
  facet normal -1 0 0
    outer loop
      vertex 0 -32.2058 13.5
      vertex 0 -26.8905 2.7863
      vertex 0 -27.2051 2.21405
    endloop
  endfacet
  facet normal -1 0 0
    outer loop
      vertex 0 -32.2058 13.5
      vertex 0 32.2058 13.5
      vertex 0 -19.9949 4.55679
    endloop
  endfacet
  facet normal 0 0 1
    outer loop
      vertex 0 -32.2058 13.5
      vertex 20 -32.2058 13.5
      vertex 0 32.2058 13.5
    endloop
  endfacet
  facet normal -1 0 0
    outer loop
      vertex 0 -40 0
      vertex 0 -27.2051 -2.21405
      vertex 0 -32.2058 -13.5
    endloop
  endfacet
  facet normal -1 0 0
    outer loop
      vertex 0 -40 0
      vertex 0 -27.2051 2.21405
      vertex 0 -27.4455 1.60689
    endloop
  endfacet
  facet normal -1 0 0
    outer loop
      vertex 0 -40 0
      vertex 0 -27.4455 -1.60689
      vertex 0 -27.2051 -2.21405
    endloop
  endfacet
  facet normal -1 -0 0
    outer loop
      vertex 0 -40 0
      vertex 0 -27.4455 1.60689
      vertex 0 -27.6079 0.974382
    endloop
  endfacet
  facet normal -1 0 0
    outer loop
      vertex 0 -40 0
      vertex 0 -27.6079 -0.974382
      vertex 0 -27.4455 -1.60689
    endloop
  endfacet
  facet normal -1 -0 0
    outer loop
      vertex 0 -40 0
      vertex 0 -27.6079 0.974382
      vertex 0 -27.6897 0.32651
    endloop
  endfacet
  facet normal -1 0 0
    outer loop
      vertex 0 -40 0
      vertex 0 -27.6897 -0.32651
      vertex 0 -27.6079 -0.974382
    endloop
  endfacet
  facet normal -1 0 0
    outer loop
      vertex 0 -40 0
      vertex 0 -27.6897 0.32651
      vertex 0 -27.6897 -0.32651
    endloop
  endfacet
  facet normal 0 -0.866025 -0.5
    outer loop
      vertex 0 -40 0
      vertex 0 -32.2058 -13.5
      vertex 20 -40 0
    endloop
  endfacet
  facet normal -1 -0 0
    outer loop
      vertex 0 -40 0
      vertex 0 -32.2058 13.5
      vertex 0 -27.2051 2.21405
    endloop
  endfacet
  facet normal 0 -0.866025 0.5
    outer loop
      vertex 0 -40 0
      vertex 20 -32.2058 13.5
      vertex 0 -32.2058 13.5
    endloop
  endfacet
  facet normal 0 -0.866025 0.5
    outer loop
      vertex 0 -40 0
      vertex 20 -40 0
      vertex 20 -32.2058 13.5
    endloop
  endfacet
  facet normal 0 1 0
    outer loop
      vertex 0 17.3103 -0.32651
      vertex 0 17.3103 0.32651
      vertex 20 17.3103 -0.32651
    endloop
  endfacet
  facet normal 0 0.992115 0.125332
    outer loop
      vertex 0 17.3103 -0.32651
      vertex 20 17.3103 -0.32651
      vertex 20 17.3921 -0.974382
    endloop
  endfacet
  facet normal 0 0.992115 0.125332
    outer loop
      vertex 0 17.3103 -0.32651
      vertex 20 17.3921 -0.974382
      vertex 0 17.3921 -0.974382
    endloop
  endfacet
  facet normal 0 0.992115 -0.125332
    outer loop
      vertex 0 17.3103 0.32651
      vertex 0 17.3921 0.974382
      vertex 20 17.3103 0.32651
    endloop
  endfacet
  facet normal 0 1 -0
    outer loop
      vertex 0 17.3103 0.32651
      vertex 20 17.3103 0.32651
      vertex 20 17.3103 -0.32651
    endloop
  endfacet
  facet normal 0 0.968583 0.248689
    outer loop
      vertex 0 17.3921 -0.974382
      vertex 20 17.3921 -0.974382
      vertex 20 17.5545 -1.60689
    endloop
  endfacet
  facet normal 0 0.968583 0.248689
    outer loop
      vertex 0 17.3921 -0.974382
      vertex 20 17.5545 -1.60689
      vertex 0 17.5545 -1.60689
    endloop
  endfacet
  facet normal 0 0.968583 -0.248689
    outer loop
      vertex 0 17.3921 0.974382
      vertex 0 17.5545 1.60689
      vertex 20 17.3921 0.974382
    endloop
  endfacet
  facet normal 0 0.992115 -0.125332
    outer loop
      vertex 0 17.3921 0.974382
      vertex 20 17.3921 0.974382
      vertex 20 17.3103 0.32651
    endloop
  endfacet
  facet normal 0 0.929776 0.368126
    outer loop
      vertex 0 17.5545 -1.60689
      vertex 20 17.5545 -1.60689
      vertex 20 17.7949 -2.21405
    endloop
  endfacet
  facet normal 0 0.929776 0.368126
    outer loop
      vertex 0 17.5545 -1.60689
      vertex 20 17.7949 -2.21405
      vertex 0 17.7949 -2.21405
    endloop
  endfacet
  facet normal 0 0.929776 -0.368126
    outer loop
      vertex 0 17.5545 1.60689
      vertex 0 17.7949 2.21405
      vertex 20 17.5545 1.60689
    endloop
  endfacet
  facet normal 0 0.968583 -0.248689
    outer loop
      vertex 0 17.5545 1.60689
      vertex 20 17.5545 1.60689
      vertex 20 17.3921 0.974382
    endloop
  endfacet
  facet normal 0 0.876307 0.481753
    outer loop
      vertex 0 17.7949 -2.21405
      vertex 20 17.7949 -2.21405
      vertex 20 18.1095 -2.7863
    endloop
  endfacet
  facet normal 0 0.876307 0.481753
    outer loop
      vertex 0 17.7949 -2.21405
      vertex 20 18.1095 -2.7863
      vertex 0 18.1095 -2.7863
    endloop
  endfacet
  facet normal 0 0.876307 -0.481753
    outer loop
      vertex 0 17.7949 2.21405
      vertex 0 18.1095 2.7863
      vertex 20 17.7949 2.21405
    endloop
  endfacet
  facet normal 0 0.929776 -0.368126
    outer loop
      vertex 0 17.7949 2.21405
      vertex 20 17.7949 2.21405
      vertex 20 17.5545 1.60689
    endloop
  endfacet
  facet normal 0 0.809015 0.587788
    outer loop
      vertex 0 18.1095 -2.7863
      vertex 20 18.1095 -2.7863
      vertex 20 18.4933 -3.3146
    endloop
  endfacet
  facet normal 0 0.809015 0.587788
    outer loop
      vertex 0 18.1095 -2.7863
      vertex 20 18.4933 -3.3146
      vertex 0 18.4933 -3.3146
    endloop
  endfacet
  facet normal 0 0.809015 -0.587788
    outer loop
      vertex 0 18.1095 2.7863
      vertex 0 18.4933 3.3146
      vertex 20 18.1095 2.7863
    endloop
  endfacet
  facet normal 0 0.876307 -0.481753
    outer loop
      vertex 0 18.1095 2.7863
      vertex 20 18.1095 2.7863
      vertex 20 17.7949 2.21405
    endloop
  endfacet
  facet normal 0 0.728971 0.684545
    outer loop
      vertex 0 18.4933 -3.3146
      vertex 20 18.4933 -3.3146
      vertex 20 18.9404 -3.79064
    endloop
  endfacet
  facet normal 0 0.728971 0.684545
    outer loop
      vertex 0 18.4933 -3.3146
      vertex 20 18.9404 -3.79064
      vertex 0 18.9404 -3.79064
    endloop
  endfacet
  facet normal 0 0.728971 -0.684545
    outer loop
      vertex 0 18.4933 3.3146
      vertex 0 18.9404 3.79064
      vertex 20 18.4933 3.3146
    endloop
  endfacet
  facet normal 0 0.809015 -0.587788
    outer loop
      vertex 0 18.4933 3.3146
      vertex 20 18.4933 3.3146
      vertex 20 18.1095 2.7863
    endloop
  endfacet
  facet normal 0 0.637424 0.770513
    outer loop
      vertex 0 18.9404 -3.79064
      vertex 20 18.9404 -3.79064
      vertex 0 19.4435 -4.20689
    endloop
  endfacet
  facet normal 0 0.637424 -0.770513
    outer loop
      vertex 0 18.9404 3.79064
      vertex 0 19.4435 4.20689
      vertex 20 19.4435 4.20689
    endloop
  endfacet
  facet normal 0 0.728971 -0.684545
    outer loop
      vertex 0 18.9404 3.79064
      vertex 20 18.9404 3.79064
      vertex 20 18.4933 3.3146
    endloop
  endfacet
  facet normal 0 0.637424 -0.770513
    outer loop
      vertex 0 18.9404 3.79064
      vertex 20 19.4435 4.20689
      vertex 20 18.9404 3.79064
    endloop
  endfacet
  facet normal -0 0.637424 0.770513
    outer loop
      vertex 0 19.4435 -4.20689
      vertex 20 18.9404 -3.79064
      vertex 20 19.4435 -4.20689
    endloop
  endfacet
  facet normal 0 0.535826 0.844329
    outer loop
      vertex 0 19.4435 -4.20689
      vertex 20 19.4435 -4.20689
      vertex 0 19.9949 -4.55679
    endloop
  endfacet
  facet normal 0 0.535826 -0.844329
    outer loop
      vertex 0 19.4435 4.20689
      vertex 0 19.9949 4.55679
      vertex 20 19.9949 4.55679
    endloop
  endfacet
  facet normal 0 0.535826 -0.844329
    outer loop
      vertex 0 19.4435 4.20689
      vertex 20 19.9949 4.55679
      vertex 20 19.4435 4.20689
    endloop
  endfacet
  facet normal -1 0 0
    outer loop
      vertex 0 19.9949 -4.55679
      vertex 0 20.5858 -4.83484
      vertex 0 32.2058 -13.5
    endloop
  endfacet
  facet normal -0 0.535826 0.844329
    outer loop
      vertex 0 19.9949 -4.55679
      vertex 20 19.4435 -4.20689
      vertex 20 19.9949 -4.55679
    endloop
  endfacet
  facet normal 0 0.42578 0.904827
    outer loop
      vertex 0 19.9949 -4.55679
      vertex 20 19.9949 -4.55679
      vertex 0 20.5858 -4.83484
    endloop
  endfacet
  facet normal 0 0.42578 -0.904827
    outer loop
      vertex 0 19.9949 4.55679
      vertex 0 20.5858 4.83484
      vertex 20 20.5858 4.83484
    endloop
  endfacet
  facet normal -1 0 0
    outer loop
      vertex 0 19.9949 4.55679
      vertex 0 32.2058 13.5
      vertex 0 20.5858 4.83484
    endloop
  endfacet
  facet normal 0 0.42578 -0.904827
    outer loop
      vertex 0 19.9949 4.55679
      vertex 20 20.5858 4.83484
      vertex 20 19.9949 4.55679
    endloop
  endfacet
  facet normal -1 0 0
    outer loop
      vertex 0 20.5858 -4.83484
      vertex 0 21.2068 -5.03663
      vertex 0 32.2058 -13.5
    endloop
  endfacet
  facet normal -0 0.42578 0.904827
    outer loop
      vertex 0 20.5858 -4.83484
      vertex 20 19.9949 -4.55679
      vertex 20 20.5858 -4.83484
    endloop
  endfacet
  facet normal 0 0.309016 0.951057
    outer loop
      vertex 0 20.5858 -4.83484
      vertex 20 20.5858 -4.83484
      vertex 0 21.2068 -5.03663
    endloop
  endfacet
  facet normal 0 0.309016 -0.951057
    outer loop
      vertex 0 20.5858 4.83484
      vertex 0 21.2068 5.03663
      vertex 20 21.2068 5.03663
    endloop
  endfacet
  facet normal -1 0 0
    outer loop
      vertex 0 20.5858 4.83484
      vertex 0 32.2058 13.5
      vertex 0 21.2068 5.03663
    endloop
  endfacet
  facet normal 0 0.309016 -0.951057
    outer loop
      vertex 0 20.5858 4.83484
      vertex 20 21.2068 5.03663
      vertex 20 20.5858 4.83484
    endloop
  endfacet
  facet normal -1 0 0
    outer loop
      vertex 0 21.2068 -5.03663
      vertex 0 21.8483 -5.159
      vertex 0 32.2058 -13.5
    endloop
  endfacet
  facet normal -0 0.309016 0.951057
    outer loop
      vertex 0 21.2068 -5.03663
      vertex 20 20.5858 -4.83484
      vertex 20 21.2068 -5.03663
    endloop
  endfacet
  facet normal 0 0.187381 0.982287
    outer loop
      vertex 0 21.2068 -5.03663
      vertex 20 21.2068 -5.03663
      vertex 0 21.8483 -5.159
    endloop
  endfacet
  facet normal 0 0.187381 -0.982287
    outer loop
      vertex 0 21.2068 5.03663
      vertex 0 21.8483 5.159
      vertex 20 21.8483 5.159
    endloop
  endfacet
  facet normal -1 0 0
    outer loop
      vertex 0 21.2068 5.03663
      vertex 0 32.2058 13.5
      vertex 0 21.8483 5.159
    endloop
  endfacet
  facet normal 0 0.187381 -0.982287
    outer loop
      vertex 0 21.2068 5.03663
      vertex 20 21.8483 5.159
      vertex 20 21.2068 5.03663
    endloop
  endfacet
  facet normal -1 0 0
    outer loop
      vertex 0 21.8483 -5.159
      vertex 0 22.5 -5.2
      vertex 0 32.2058 -13.5
    endloop
  endfacet
  facet normal -0 0.187381 0.982287
    outer loop
      vertex 0 21.8483 -5.159
      vertex 20 21.2068 -5.03663
      vertex 20 21.8483 -5.159
    endloop
  endfacet
  facet normal 0 0.0627914 0.998027
    outer loop
      vertex 0 21.8483 -5.159
      vertex 20 21.8483 -5.159
      vertex 0 22.5 -5.2
    endloop
  endfacet
  facet normal 0 0.0627914 -0.998027
    outer loop
      vertex 0 21.8483 5.159
      vertex 0 22.5 5.2
      vertex 20 22.5 5.2
    endloop
  endfacet
  facet normal -1 0 0
    outer loop
      vertex 0 21.8483 5.159
      vertex 0 32.2058 13.5
      vertex 0 22.5 5.2
    endloop
  endfacet
  facet normal 0 0.0627914 -0.998027
    outer loop
      vertex 0 21.8483 5.159
      vertex 20 22.5 5.2
      vertex 20 21.8483 5.159
    endloop
  endfacet
  facet normal -1 0 0
    outer loop
      vertex 0 22.5 -5.2
      vertex 0 23.1517 -5.159
      vertex 0 32.2058 -13.5
    endloop
  endfacet
  facet normal -0 0.0627914 0.998027
    outer loop
      vertex 0 22.5 -5.2
      vertex 20 21.8483 -5.159
      vertex 20 22.5 -5.2
    endloop
  endfacet
  facet normal 0 -0.0627914 0.998027
    outer loop
      vertex 0 22.5 -5.2
      vertex 20 22.5 -5.2
      vertex 0 23.1517 -5.159
    endloop
  endfacet
  facet normal -0 -0.0627914 -0.998027
    outer loop
      vertex 0 22.5 5.2
      vertex 0 23.1517 5.159
      vertex 20 23.1517 5.159
    endloop
  endfacet
  facet normal -1 0 0
    outer loop
      vertex 0 22.5 5.2
      vertex 0 32.2058 13.5
      vertex 0 23.1517 5.159
    endloop
  endfacet
  facet normal 0 -0.0627914 -0.998027
    outer loop
      vertex 0 22.5 5.2
      vertex 20 23.1517 5.159
      vertex 20 22.5 5.2
    endloop
  endfacet
  facet normal -1 0 0
    outer loop
      vertex 0 23.1517 -5.159
      vertex 0 23.7932 -5.03663
      vertex 0 32.2058 -13.5
    endloop
  endfacet
  facet normal 0 -0.0627914 0.998027
    outer loop
      vertex 0 23.1517 -5.159
      vertex 20 22.5 -5.2
      vertex 20 23.1517 -5.159
    endloop
  endfacet
  facet normal 0 -0.187382 0.982287
    outer loop
      vertex 0 23.1517 -5.159
      vertex 20 23.1517 -5.159
      vertex 0 23.7932 -5.03663
    endloop
  endfacet
  facet normal -0 -0.187382 -0.982287
    outer loop
      vertex 0 23.1517 5.159
      vertex 0 23.7932 5.03663
      vertex 20 23.7932 5.03663
    endloop
  endfacet
  facet normal -1 0 0
    outer loop
      vertex 0 23.1517 5.159
      vertex 0 32.2058 13.5
      vertex 0 23.7932 5.03663
    endloop
  endfacet
  facet normal 0 -0.187382 -0.982287
    outer loop
      vertex 0 23.1517 5.159
      vertex 20 23.7932 5.03663
      vertex 20 23.1517 5.159
    endloop
  endfacet
  facet normal -1 0 0
    outer loop
      vertex 0 23.7932 -5.03663
      vertex 0 24.4142 -4.83484
      vertex 0 32.2058 -13.5
    endloop
  endfacet
  facet normal 0 -0.187382 0.982287
    outer loop
      vertex 0 23.7932 -5.03663
      vertex 20 23.1517 -5.159
      vertex 20 23.7932 -5.03663
    endloop
  endfacet
  facet normal 0 -0.309016 0.951057
    outer loop
      vertex 0 23.7932 -5.03663
      vertex 20 23.7932 -5.03663
      vertex 0 24.4142 -4.83484
    endloop
  endfacet
  facet normal -0 -0.309016 -0.951057
    outer loop
      vertex 0 23.7932 5.03663
      vertex 0 24.4142 4.83484
      vertex 20 24.4142 4.83484
    endloop
  endfacet
  facet normal -1 0 0
    outer loop
      vertex 0 23.7932 5.03663
      vertex 0 32.2058 13.5
      vertex 0 24.4142 4.83484
    endloop
  endfacet
  facet normal 0 -0.309016 -0.951057
    outer loop
      vertex 0 23.7932 5.03663
      vertex 20 24.4142 4.83484
      vertex 20 23.7932 5.03663
    endloop
  endfacet
  facet normal -1 0 0
    outer loop
      vertex 0 24.4142 -4.83484
      vertex 0 25.0051 -4.55679
      vertex 0 32.2058 -13.5
    endloop
  endfacet
  facet normal 0 -0.309016 0.951057
    outer loop
      vertex 0 24.4142 -4.83484
      vertex 20 23.7932 -5.03663
      vertex 20 24.4142 -4.83484
    endloop
  endfacet
  facet normal 0 -0.425779 0.904827
    outer loop
      vertex 0 24.4142 -4.83484
      vertex 20 24.4142 -4.83484
      vertex 0 25.0051 -4.55679
    endloop
  endfacet
  facet normal -0 -0.425779 -0.904827
    outer loop
      vertex 0 24.4142 4.83484
      vertex 0 25.0051 4.55679
      vertex 20 25.0051 4.55679
    endloop
  endfacet
  facet normal -1 0 0
    outer loop
      vertex 0 24.4142 4.83484
      vertex 0 32.2058 13.5
      vertex 0 25.0051 4.55679
    endloop
  endfacet
  facet normal 0 -0.425779 -0.904827
    outer loop
      vertex 0 24.4142 4.83484
      vertex 20 25.0051 4.55679
      vertex 20 24.4142 4.83484
    endloop
  endfacet
  facet normal -1 0 0
    outer loop
      vertex 0 25.0051 -4.55679
      vertex 0 25.5565 -4.20689
      vertex 0 32.2058 -13.5
    endloop
  endfacet
  facet normal 0 -0.425779 0.904827
    outer loop
      vertex 0 25.0051 -4.55679
      vertex 20 24.4142 -4.83484
      vertex 20 25.0051 -4.55679
    endloop
  endfacet
  facet normal 0 -0.535826 0.844329
    outer loop
      vertex 0 25.0051 -4.55679
      vertex 20 25.0051 -4.55679
      vertex 0 25.5565 -4.20689
    endloop
  endfacet
  facet normal -0 -0.535826 -0.844329
    outer loop
      vertex 0 25.0051 4.55679
      vertex 0 25.5565 4.20689
      vertex 20 25.5565 4.20689
    endloop
  endfacet
  facet normal -1 0 0
    outer loop
      vertex 0 25.0051 4.55679
      vertex 0 32.2058 13.5
      vertex 0 25.5565 4.20689
    endloop
  endfacet
  facet normal 0 -0.535826 -0.844329
    outer loop
      vertex 0 25.0051 4.55679
      vertex 20 25.5565 4.20689
      vertex 20 25.0051 4.55679
    endloop
  endfacet
  facet normal -1 0 0
    outer loop
      vertex 0 25.5565 -4.20689
      vertex 0 26.0596 -3.79064
      vertex 0 32.2058 -13.5
    endloop
  endfacet
  facet normal 0 -0.535826 0.844329
    outer loop
      vertex 0 25.5565 -4.20689
      vertex 20 25.0051 -4.55679
      vertex 20 25.5565 -4.20689
    endloop
  endfacet
  facet normal 0 -0.637425 0.770512
    outer loop
      vertex 0 25.5565 -4.20689
      vertex 20 25.5565 -4.20689
      vertex 0 26.0596 -3.79064
    endloop
  endfacet
  facet normal -0 -0.637425 -0.770512
    outer loop
      vertex 0 25.5565 4.20689
      vertex 0 26.0596 3.79064
      vertex 20 26.0596 3.79064
    endloop
  endfacet
  facet normal -1 0 0
    outer loop
      vertex 0 25.5565 4.20689
      vertex 0 32.2058 13.5
      vertex 0 26.0596 3.79064
    endloop
  endfacet
  facet normal 0 -0.637425 -0.770512
    outer loop
      vertex 0 25.5565 4.20689
      vertex 20 26.0596 3.79064
      vertex 20 25.5565 4.20689
    endloop
  endfacet
  facet normal -1 0 0
    outer loop
      vertex 0 26.0596 -3.79064
      vertex 0 26.5067 -3.3146
      vertex 0 32.2058 -13.5
    endloop
  endfacet
  facet normal 0 -0.637425 0.770512
    outer loop
      vertex 0 26.0596 -3.79064
      vertex 20 25.5565 -4.20689
      vertex 20 26.0596 -3.79064
    endloop
  endfacet
  facet normal 0 -0.728969 0.684547
    outer loop
      vertex 0 26.0596 -3.79064
      vertex 20 26.0596 -3.79064
      vertex 20 26.5067 -3.3146
    endloop
  endfacet
  facet normal 0 -0.728969 0.684547
    outer loop
      vertex 0 26.0596 -3.79064
      vertex 20 26.5067 -3.3146
      vertex 0 26.5067 -3.3146
    endloop
  endfacet
  facet normal 0 -0.728969 -0.684547
    outer loop
      vertex 0 26.0596 3.79064
      vertex 0 26.5067 3.3146
      vertex 20 26.0596 3.79064
    endloop
  endfacet
  facet normal -1 0 0
    outer loop
      vertex 0 26.0596 3.79064
      vertex 0 32.2058 13.5
      vertex 0 26.5067 3.3146
    endloop
  endfacet
  facet normal -1 0 0
    outer loop
      vertex 0 26.5067 -3.3146
      vertex 0 26.8905 -2.7863
      vertex 0 32.2058 -13.5
    endloop
  endfacet
  facet normal 0 -0.809017 0.587786
    outer loop
      vertex 0 26.5067 -3.3146
      vertex 20 26.5067 -3.3146
      vertex 20 26.8905 -2.7863
    endloop
  endfacet
  facet normal 0 -0.809017 0.587786
    outer loop
      vertex 0 26.5067 -3.3146
      vertex 20 26.8905 -2.7863
      vertex 0 26.8905 -2.7863
    endloop
  endfacet
  facet normal 0 -0.809017 -0.587786
    outer loop
      vertex 0 26.5067 3.3146
      vertex 0 26.8905 2.7863
      vertex 20 26.5067 3.3146
    endloop
  endfacet
  facet normal -1 0 0
    outer loop
      vertex 0 26.5067 3.3146
      vertex 0 32.2058 13.5
      vertex 0 26.8905 2.7863
    endloop
  endfacet
  facet normal 0 -0.728969 -0.684547
    outer loop
      vertex 0 26.5067 3.3146
      vertex 20 26.5067 3.3146
      vertex 20 26.0596 3.79064
    endloop
  endfacet
  facet normal -1 0 0
    outer loop
      vertex 0 26.8905 -2.7863
      vertex 0 27.2051 -2.21405
      vertex 0 32.2058 -13.5
    endloop
  endfacet
  facet normal 0 -0.876306 0.481755
    outer loop
      vertex 0 26.8905 -2.7863
      vertex 20 26.8905 -2.7863
      vertex 20 27.2051 -2.21405
    endloop
  endfacet
  facet normal 0 -0.876306 0.481755
    outer loop
      vertex 0 26.8905 -2.7863
      vertex 20 27.2051 -2.21405
      vertex 0 27.2051 -2.21405
    endloop
  endfacet
  facet normal 0 -0.876306 -0.481755
    outer loop
      vertex 0 26.8905 2.7863
      vertex 0 27.2051 2.21405
      vertex 20 26.8905 2.7863
    endloop
  endfacet
  facet normal -1 0 0
    outer loop
      vertex 0 26.8905 2.7863
      vertex 0 32.2058 13.5
      vertex 0 27.2051 2.21405
    endloop
  endfacet
  facet normal 0 -0.809017 -0.587786
    outer loop
      vertex 0 26.8905 2.7863
      vertex 20 26.8905 2.7863
      vertex 20 26.5067 3.3146
    endloop
  endfacet
  facet normal -1 0 0
    outer loop
      vertex 0 27.2051 -2.21405
      vertex 0 27.4455 -1.60689
      vertex 0 40 -4.89859e-15
    endloop
  endfacet
  facet normal -1 0 0
    outer loop
      vertex 0 27.2051 -2.21405
      vertex 0 40 -4.89859e-15
      vertex 0 32.2058 -13.5
    endloop
  endfacet
  facet normal 0 -0.929777 0.368124
    outer loop
      vertex 0 27.2051 -2.21405
      vertex 20 27.2051 -2.21405
      vertex 20 27.4455 -1.60689
    endloop
  endfacet
  facet normal 0 -0.929777 0.368124
    outer loop
      vertex 0 27.2051 -2.21405
      vertex 20 27.4455 -1.60689
      vertex 0 27.4455 -1.60689
    endloop
  endfacet
  facet normal 0 -0.929777 -0.368124
    outer loop
      vertex 0 27.2051 2.21405
      vertex 0 27.4455 1.60689
      vertex 20 27.2051 2.21405
    endloop
  endfacet
  facet normal -1 0 0
    outer loop
      vertex 0 27.2051 2.21405
      vertex 0 32.2058 13.5
      vertex 0 40 -4.89859e-15
    endloop
  endfacet
  facet normal -1 0 0
    outer loop
      vertex 0 27.2051 2.21405
      vertex 0 40 -4.89859e-15
      vertex 0 27.4455 1.60689
    endloop
  endfacet
  facet normal 0 -0.876306 -0.481755
    outer loop
      vertex 0 27.2051 2.21405
      vertex 20 27.2051 2.21405
      vertex 20 26.8905 2.7863
    endloop
  endfacet
  facet normal -1 0 0
    outer loop
      vertex 0 27.4455 -1.60689
      vertex 0 27.6079 -0.974382
      vertex 0 40 -4.89859e-15
    endloop
  endfacet
  facet normal 0 -0.968583 0.248689
    outer loop
      vertex 0 27.4455 -1.60689
      vertex 20 27.4455 -1.60689
      vertex 20 27.6079 -0.974382
    endloop
  endfacet
  facet normal 0 -0.968583 0.248689
    outer loop
      vertex 0 27.4455 -1.60689
      vertex 20 27.6079 -0.974382
      vertex 0 27.6079 -0.974382
    endloop
  endfacet
  facet normal 0 -0.968583 -0.248689
    outer loop
      vertex 0 27.4455 1.60689
      vertex 0 27.6079 0.974382
      vertex 20 27.4455 1.60689
    endloop
  endfacet
  facet normal -1 0 0
    outer loop
      vertex 0 27.4455 1.60689
      vertex 0 40 -4.89859e-15
      vertex 0 27.6079 0.974382
    endloop
  endfacet
  facet normal 0 -0.929777 -0.368124
    outer loop
      vertex 0 27.4455 1.60689
      vertex 20 27.4455 1.60689
      vertex 20 27.2051 2.21405
    endloop
  endfacet
  facet normal -1 0 0
    outer loop
      vertex 0 27.6079 -0.974382
      vertex 0 27.6897 -0.32651
      vertex 0 40 -4.89859e-15
    endloop
  endfacet
  facet normal 0 -0.992115 0.125335
    outer loop
      vertex 0 27.6079 -0.974382
      vertex 20 27.6079 -0.974382
      vertex 20 27.6897 -0.32651
    endloop
  endfacet
  facet normal 0 -0.992115 0.125335
    outer loop
      vertex 0 27.6079 -0.974382
      vertex 20 27.6897 -0.32651
      vertex 0 27.6897 -0.32651
    endloop
  endfacet
  facet normal 0 -0.992115 -0.125335
    outer loop
      vertex 0 27.6079 0.974382
      vertex 0 27.6897 0.32651
      vertex 20 27.6079 0.974382
    endloop
  endfacet
  facet normal -1 0 0
    outer loop
      vertex 0 27.6079 0.974382
      vertex 0 40 -4.89859e-15
      vertex 0 27.6897 0.32651
    endloop
  endfacet
  facet normal 0 -0.968583 -0.248689
    outer loop
      vertex 0 27.6079 0.974382
      vertex 20 27.6079 0.974382
      vertex 20 27.4455 1.60689
    endloop
  endfacet
  facet normal -1 0 0
    outer loop
      vertex 0 27.6897 -0.32651
      vertex 0 27.6897 0.32651
      vertex 0 40 -4.89859e-15
    endloop
  endfacet
  facet normal 0 -1 -0
    outer loop
      vertex 0 27.6897 -0.32651
      vertex 20 27.6897 -0.32651
      vertex 20 27.6897 0.32651
    endloop
  endfacet
  facet normal 0 -1 0
    outer loop
      vertex 0 27.6897 -0.32651
      vertex 20 27.6897 0.32651
      vertex 0 27.6897 0.32651
    endloop
  endfacet
  facet normal 0 -0.992115 -0.125335
    outer loop
      vertex 0 27.6897 0.32651
      vertex 20 27.6897 0.32651
      vertex 20 27.6079 0.974382
    endloop
  endfacet
  facet normal 0 0.866025 -0.5
    outer loop
      vertex 0 32.2058 -13.5
      vertex 0 40 -4.89859e-15
      vertex 20 32.2058 -13.5
    endloop
  endfacet
  facet normal -0 0 1
    outer loop
      vertex 0 32.2058 13.5
      vertex 20 -32.2058 13.5
      vertex 20 32.2058 13.5
    endloop
  endfacet
  facet normal 0 0.866025 0.5
    outer loop
      vertex 0 32.2058 13.5
      vertex 20 32.2058 13.5
      vertex 20 40 -4.89859e-15
    endloop
  endfacet
  facet normal 0 0.866025 0.5
    outer loop
      vertex 0 32.2058 13.5
      vertex 20 40 -4.89859e-15
      vertex 0 40 -4.89859e-15
    endloop
  endfacet
  facet normal 0 0.866025 -0.5
    outer loop
      vertex 0 40 -4.89859e-15
      vertex 20 40 -4.89859e-15
      vertex 20 32.2058 -13.5
    endloop
  endfacet
  facet normal 1 0 0
    outer loop
      vertex 20 -17.3103 -0.32651
      vertex 20 17.3103 -0.32651
      vertex 20 -17.3103 0.32651
    endloop
  endfacet
  facet normal 1 0 0
    outer loop
      vertex 20 -17.3103 -0.32651
      vertex 20 17.3921 -0.974382
      vertex 20 17.3103 -0.32651
    endloop
  endfacet
  facet normal 1 0 0
    outer loop
      vertex 20 -17.3103 0.32651
      vertex 20 17.3103 -0.32651
      vertex 20 17.3103 0.32651
    endloop
  endfacet
  facet normal 1 0 0
    outer loop
      vertex 20 -17.3103 0.32651
      vertex 20 17.3103 0.32651
      vertex 20 17.3921 0.974382
    endloop
  endfacet
  facet normal 1 0 0
    outer loop
      vertex 20 -17.3921 -0.974382
      vertex 20 17.3921 -0.974382
      vertex 20 -17.3103 -0.32651
    endloop
  endfacet
  facet normal 1 0 0
    outer loop
      vertex 20 -17.3921 -0.974382
      vertex 20 17.5545 -1.60689
      vertex 20 17.3921 -0.974382
    endloop
  endfacet
  facet normal 1 0 0
    outer loop
      vertex 20 -17.3921 0.974382
      vertex 20 -17.3103 0.32651
      vertex 20 17.3921 0.974382
    endloop
  endfacet
  facet normal 1 0 0
    outer loop
      vertex 20 -17.3921 0.974382
      vertex 20 17.3921 0.974382
      vertex 20 17.5545 1.60689
    endloop
  endfacet
  facet normal 1 0 0
    outer loop
      vertex 20 -17.5545 -1.60689
      vertex 20 17.5545 -1.60689
      vertex 20 -17.3921 -0.974382
    endloop
  endfacet
  facet normal 1 0 0
    outer loop
      vertex 20 -17.5545 -1.60689
      vertex 20 17.7949 -2.21405
      vertex 20 17.5545 -1.60689
    endloop
  endfacet
  facet normal 1 0 0
    outer loop
      vertex 20 -17.5545 1.60689
      vertex 20 -17.3921 0.974382
      vertex 20 17.5545 1.60689
    endloop
  endfacet
  facet normal 1 0 0
    outer loop
      vertex 20 -17.5545 1.60689
      vertex 20 17.5545 1.60689
      vertex 20 17.7949 2.21405
    endloop
  endfacet
  facet normal 1 0 0
    outer loop
      vertex 20 -17.7949 -2.21405
      vertex 20 17.7949 -2.21405
      vertex 20 -17.5545 -1.60689
    endloop
  endfacet
  facet normal 1 0 0
    outer loop
      vertex 20 -17.7949 -2.21405
      vertex 20 18.1095 -2.7863
      vertex 20 17.7949 -2.21405
    endloop
  endfacet
  facet normal 1 0 0
    outer loop
      vertex 20 -17.7949 2.21405
      vertex 20 -17.5545 1.60689
      vertex 20 17.7949 2.21405
    endloop
  endfacet
  facet normal 1 0 0
    outer loop
      vertex 20 -17.7949 2.21405
      vertex 20 17.7949 2.21405
      vertex 20 18.1095 2.7863
    endloop
  endfacet
  facet normal 1 0 0
    outer loop
      vertex 20 -18.1095 -2.7863
      vertex 20 18.1095 -2.7863
      vertex 20 -17.7949 -2.21405
    endloop
  endfacet
  facet normal 1 0 0
    outer loop
      vertex 20 -18.1095 -2.7863
      vertex 20 18.4933 -3.3146
      vertex 20 18.1095 -2.7863
    endloop
  endfacet
  facet normal 1 0 0
    outer loop
      vertex 20 -18.1095 2.7863
      vertex 20 -17.7949 2.21405
      vertex 20 18.1095 2.7863
    endloop
  endfacet
  facet normal 1 0 0
    outer loop
      vertex 20 -18.1095 2.7863
      vertex 20 18.1095 2.7863
      vertex 20 18.4933 3.3146
    endloop
  endfacet
  facet normal 1 0 0
    outer loop
      vertex 20 -18.4933 -3.3146
      vertex 20 18.4933 -3.3146
      vertex 20 -18.1095 -2.7863
    endloop
  endfacet
  facet normal 1 0 0
    outer loop
      vertex 20 -18.4933 -3.3146
      vertex 20 18.9404 -3.79064
      vertex 20 18.4933 -3.3146
    endloop
  endfacet
  facet normal 1 0 0
    outer loop
      vertex 20 -18.4933 3.3146
      vertex 20 -18.1095 2.7863
      vertex 20 18.4933 3.3146
    endloop
  endfacet
  facet normal 1 0 0
    outer loop
      vertex 20 -18.4933 3.3146
      vertex 20 18.4933 3.3146
      vertex 20 18.9404 3.79064
    endloop
  endfacet
  facet normal 1 0 0
    outer loop
      vertex 20 -18.9404 -3.79064
      vertex 20 18.9404 -3.79064
      vertex 20 -18.4933 -3.3146
    endloop
  endfacet
  facet normal 1 0 0
    outer loop
      vertex 20 -18.9404 -3.79064
      vertex 20 19.4435 -4.20689
      vertex 20 18.9404 -3.79064
    endloop
  endfacet
  facet normal 1 0 0
    outer loop
      vertex 20 -18.9404 3.79064
      vertex 20 -18.4933 3.3146
      vertex 20 18.9404 3.79064
    endloop
  endfacet
  facet normal 1 0 0
    outer loop
      vertex 20 -18.9404 3.79064
      vertex 20 18.9404 3.79064
      vertex 20 19.4435 4.20689
    endloop
  endfacet
  facet normal 1 0 0
    outer loop
      vertex 20 -19.4435 -4.20689
      vertex 20 19.4435 -4.20689
      vertex 20 -18.9404 -3.79064
    endloop
  endfacet
  facet normal 1 0 0
    outer loop
      vertex 20 -19.4435 4.20689
      vertex 20 -18.9404 3.79064
      vertex 20 19.4435 4.20689
    endloop
  endfacet
  facet normal 1 0 0
    outer loop
      vertex 20 -19.9949 -4.55679
      vertex 20 19.4435 -4.20689
      vertex 20 -19.4435 -4.20689
    endloop
  endfacet
  facet normal 1 0 0
    outer loop
      vertex 20 -19.9949 -4.55679
      vertex 20 19.9949 -4.55679
      vertex 20 19.4435 -4.20689
    endloop
  endfacet
  facet normal 1 0 0
    outer loop
      vertex 20 -19.9949 -4.55679
      vertex 20 32.2058 -13.5
      vertex 20 19.9949 -4.55679
    endloop
  endfacet
  facet normal 1 0 0
    outer loop
      vertex 20 -19.9949 4.55679
      vertex 20 -19.4435 4.20689
      vertex 20 19.4435 4.20689
    endloop
  endfacet
  facet normal 1 0 0
    outer loop
      vertex 20 -19.9949 4.55679
      vertex 20 19.4435 4.20689
      vertex 20 19.9949 4.55679
    endloop
  endfacet
  facet normal 1 0 0
    outer loop
      vertex 20 -19.9949 4.55679
      vertex 20 19.9949 4.55679
      vertex 20 32.2058 13.5
    endloop
  endfacet
  facet normal 1 0 0
    outer loop
      vertex 20 -32.2058 -13.5
      vertex 20 -19.9949 -4.55679
      vertex 20 -20.5858 -4.83484
    endloop
  endfacet
  facet normal 1 0 0
    outer loop
      vertex 20 -32.2058 -13.5
      vertex 20 -20.5858 -4.83484
      vertex 20 -21.2068 -5.03663
    endloop
  endfacet
  facet normal 1 0 0
    outer loop
      vertex 20 -32.2058 -13.5
      vertex 20 -21.2068 -5.03663
      vertex 20 -21.8483 -5.159
    endloop
  endfacet
  facet normal 1 0 0
    outer loop
      vertex 20 -32.2058 -13.5
      vertex 20 -21.8483 -5.159
      vertex 20 -22.5 -5.2
    endloop
  endfacet
  facet normal 1 0 0
    outer loop
      vertex 20 -32.2058 -13.5
      vertex 20 -22.5 -5.2
      vertex 20 -23.1517 -5.159
    endloop
  endfacet
  facet normal 1 0 0
    outer loop
      vertex 20 -32.2058 -13.5
      vertex 20 -23.1517 -5.159
      vertex 20 -23.7932 -5.03663
    endloop
  endfacet
  facet normal 1 0 0
    outer loop
      vertex 20 -32.2058 -13.5
      vertex 20 -23.7932 -5.03663
      vertex 20 -24.4142 -4.83484
    endloop
  endfacet
  facet normal 1 0 0
    outer loop
      vertex 20 -32.2058 -13.5
      vertex 20 -24.4142 -4.83484
      vertex 20 -25.0051 -4.55679
    endloop
  endfacet
  facet normal 1 0 0
    outer loop
      vertex 20 -32.2058 -13.5
      vertex 20 -25.0051 -4.55679
      vertex 20 -25.5565 -4.20689
    endloop
  endfacet
  facet normal 1 0 0
    outer loop
      vertex 20 -32.2058 -13.5
      vertex 20 -25.5565 -4.20689
      vertex 20 -26.0596 -3.79064
    endloop
  endfacet
  facet normal 1 0 0
    outer loop
      vertex 20 -32.2058 -13.5
      vertex 20 -26.0596 -3.79064
      vertex 20 -26.5067 -3.3146
    endloop
  endfacet
  facet normal 1 0 0
    outer loop
      vertex 20 -32.2058 -13.5
      vertex 20 -26.5067 -3.3146
      vertex 20 -26.8905 -2.7863
    endloop
  endfacet
  facet normal 1 0 0
    outer loop
      vertex 20 -32.2058 -13.5
      vertex 20 -26.8905 -2.7863
      vertex 20 -27.2051 -2.21405
    endloop
  endfacet
  facet normal 1 0 0
    outer loop
      vertex 20 -32.2058 -13.5
      vertex 20 32.2058 -13.5
      vertex 20 -19.9949 -4.55679
    endloop
  endfacet
  facet normal 1 -0 0
    outer loop
      vertex 20 -32.2058 13.5
      vertex 20 -19.9949 4.55679
      vertex 20 32.2058 13.5
    endloop
  endfacet
  facet normal 1 0 0
    outer loop
      vertex 20 -32.2058 13.5
      vertex 20 -20.5858 4.83484
      vertex 20 -19.9949 4.55679
    endloop
  endfacet
  facet normal 1 0 0
    outer loop
      vertex 20 -32.2058 13.5
      vertex 20 -21.2068 5.03663
      vertex 20 -20.5858 4.83484
    endloop
  endfacet
  facet normal 1 0 0
    outer loop
      vertex 20 -32.2058 13.5
      vertex 20 -21.8483 5.159
      vertex 20 -21.2068 5.03663
    endloop
  endfacet
  facet normal 1 0 0
    outer loop
      vertex 20 -32.2058 13.5
      vertex 20 -22.5 5.2
      vertex 20 -21.8483 5.159
    endloop
  endfacet
  facet normal 1 0 0
    outer loop
      vertex 20 -32.2058 13.5
      vertex 20 -23.1517 5.159
      vertex 20 -22.5 5.2
    endloop
  endfacet
  facet normal 1 0 0
    outer loop
      vertex 20 -32.2058 13.5
      vertex 20 -23.7932 5.03663
      vertex 20 -23.1517 5.159
    endloop
  endfacet
  facet normal 1 0 0
    outer loop
      vertex 20 -32.2058 13.5
      vertex 20 -24.4142 4.83484
      vertex 20 -23.7932 5.03663
    endloop
  endfacet
  facet normal 1 0 0
    outer loop
      vertex 20 -32.2058 13.5
      vertex 20 -25.0051 4.55679
      vertex 20 -24.4142 4.83484
    endloop
  endfacet
  facet normal 1 0 0
    outer loop
      vertex 20 -32.2058 13.5
      vertex 20 -25.5565 4.20689
      vertex 20 -25.0051 4.55679
    endloop
  endfacet
  facet normal 1 0 0
    outer loop
      vertex 20 -32.2058 13.5
      vertex 20 -26.0596 3.79064
      vertex 20 -25.5565 4.20689
    endloop
  endfacet
  facet normal 1 0 0
    outer loop
      vertex 20 -32.2058 13.5
      vertex 20 -26.5067 3.3146
      vertex 20 -26.0596 3.79064
    endloop
  endfacet
  facet normal 1 0 0
    outer loop
      vertex 20 -32.2058 13.5
      vertex 20 -26.8905 2.7863
      vertex 20 -26.5067 3.3146
    endloop
  endfacet
  facet normal 1 0 0
    outer loop
      vertex 20 -32.2058 13.5
      vertex 20 -27.2051 2.21405
      vertex 20 -26.8905 2.7863
    endloop
  endfacet
  facet normal 1 0 0
    outer loop
      vertex 20 -40 0
      vertex 20 -27.2051 -2.21405
      vertex 20 -27.4455 -1.60689
    endloop
  endfacet
  facet normal 1 0 0
    outer loop
      vertex 20 -40 0
      vertex 20 -27.2051 2.21405
      vertex 20 -32.2058 13.5
    endloop
  endfacet
  facet normal 1 0 0
    outer loop
      vertex 20 -40 0
      vertex 20 -27.4455 -1.60689
      vertex 20 -27.6079 -0.974382
    endloop
  endfacet
  facet normal 1 0 0
    outer loop
      vertex 20 -40 0
      vertex 20 -27.4455 1.60689
      vertex 20 -27.2051 2.21405
    endloop
  endfacet
  facet normal 1 0 0
    outer loop
      vertex 20 -40 0
      vertex 20 -27.6079 -0.974382
      vertex 20 -27.6897 -0.32651
    endloop
  endfacet
  facet normal 1 0 0
    outer loop
      vertex 20 -40 0
      vertex 20 -27.6079 0.974382
      vertex 20 -27.4455 1.60689
    endloop
  endfacet
  facet normal 1 0 0
    outer loop
      vertex 20 -40 0
      vertex 20 -27.6897 -0.32651
      vertex 20 -27.6897 0.32651
    endloop
  endfacet
  facet normal 1 0 0
    outer loop
      vertex 20 -40 0
      vertex 20 -27.6897 0.32651
      vertex 20 -27.6079 0.974382
    endloop
  endfacet
  facet normal 1 0 0
    outer loop
      vertex 20 -40 0
      vertex 20 -32.2058 -13.5
      vertex 20 -27.2051 -2.21405
    endloop
  endfacet
  facet normal 1 0 0
    outer loop
      vertex 20 19.9949 -4.55679
      vertex 20 32.2058 -13.5
      vertex 20 20.5858 -4.83484
    endloop
  endfacet
  facet normal 1 0 0
    outer loop
      vertex 20 19.9949 4.55679
      vertex 20 20.5858 4.83484
      vertex 20 32.2058 13.5
    endloop
  endfacet
  facet normal 1 0 0
    outer loop
      vertex 20 20.5858 -4.83484
      vertex 20 32.2058 -13.5
      vertex 20 21.2068 -5.03663
    endloop
  endfacet
  facet normal 1 0 0
    outer loop
      vertex 20 20.5858 4.83484
      vertex 20 21.2068 5.03663
      vertex 20 32.2058 13.5
    endloop
  endfacet
  facet normal 1 0 0
    outer loop
      vertex 20 21.2068 -5.03663
      vertex 20 32.2058 -13.5
      vertex 20 21.8483 -5.159
    endloop
  endfacet
  facet normal 1 0 0
    outer loop
      vertex 20 21.2068 5.03663
      vertex 20 21.8483 5.159
      vertex 20 32.2058 13.5
    endloop
  endfacet
  facet normal 1 0 0
    outer loop
      vertex 20 21.8483 -5.159
      vertex 20 32.2058 -13.5
      vertex 20 22.5 -5.2
    endloop
  endfacet
  facet normal 1 0 0
    outer loop
      vertex 20 21.8483 5.159
      vertex 20 22.5 5.2
      vertex 20 32.2058 13.5
    endloop
  endfacet
  facet normal 1 -0 0
    outer loop
      vertex 20 22.5 -5.2
      vertex 20 32.2058 -13.5
      vertex 20 23.1517 -5.159
    endloop
  endfacet
  facet normal 1 0 0
    outer loop
      vertex 20 22.5 5.2
      vertex 20 23.1517 5.159
      vertex 20 32.2058 13.5
    endloop
  endfacet
  facet normal 1 -0 0
    outer loop
      vertex 20 23.1517 -5.159
      vertex 20 32.2058 -13.5
      vertex 20 23.7932 -5.03663
    endloop
  endfacet
  facet normal 1 0 0
    outer loop
      vertex 20 23.1517 5.159
      vertex 20 23.7932 5.03663
      vertex 20 32.2058 13.5
    endloop
  endfacet
  facet normal 1 -0 0
    outer loop
      vertex 20 23.7932 -5.03663
      vertex 20 32.2058 -13.5
      vertex 20 24.4142 -4.83484
    endloop
  endfacet
  facet normal 1 0 0
    outer loop
      vertex 20 23.7932 5.03663
      vertex 20 24.4142 4.83484
      vertex 20 32.2058 13.5
    endloop
  endfacet
  facet normal 1 -0 0
    outer loop
      vertex 20 24.4142 -4.83484
      vertex 20 32.2058 -13.5
      vertex 20 25.0051 -4.55679
    endloop
  endfacet
  facet normal 1 0 0
    outer loop
      vertex 20 24.4142 4.83484
      vertex 20 25.0051 4.55679
      vertex 20 32.2058 13.5
    endloop
  endfacet
  facet normal 1 -0 0
    outer loop
      vertex 20 25.0051 -4.55679
      vertex 20 32.2058 -13.5
      vertex 20 25.5565 -4.20689
    endloop
  endfacet
  facet normal 1 0 0
    outer loop
      vertex 20 25.0051 4.55679
      vertex 20 25.5565 4.20689
      vertex 20 32.2058 13.5
    endloop
  endfacet
  facet normal 1 -0 0
    outer loop
      vertex 20 25.5565 -4.20689
      vertex 20 32.2058 -13.5
      vertex 20 26.0596 -3.79064
    endloop
  endfacet
  facet normal 1 0 0
    outer loop
      vertex 20 25.5565 4.20689
      vertex 20 26.0596 3.79064
      vertex 20 32.2058 13.5
    endloop
  endfacet
  facet normal 1 -0 0
    outer loop
      vertex 20 26.0596 -3.79064
      vertex 20 32.2058 -13.5
      vertex 20 26.5067 -3.3146
    endloop
  endfacet
  facet normal 1 0 0
    outer loop
      vertex 20 26.0596 3.79064
      vertex 20 26.5067 3.3146
      vertex 20 32.2058 13.5
    endloop
  endfacet
  facet normal 1 -0 0
    outer loop
      vertex 20 26.5067 -3.3146
      vertex 20 32.2058 -13.5
      vertex 20 26.8905 -2.7863
    endloop
  endfacet
  facet normal 1 0 0
    outer loop
      vertex 20 26.5067 3.3146
      vertex 20 26.8905 2.7863
      vertex 20 32.2058 13.5
    endloop
  endfacet
  facet normal 1 -0 0
    outer loop
      vertex 20 26.8905 -2.7863
      vertex 20 32.2058 -13.5
      vertex 20 27.2051 -2.21405
    endloop
  endfacet
  facet normal 1 0 0
    outer loop
      vertex 20 26.8905 2.7863
      vertex 20 27.2051 2.21405
      vertex 20 32.2058 13.5
    endloop
  endfacet
  facet normal 1 0 0
    outer loop
      vertex 20 27.2051 -2.21405
      vertex 20 32.2058 -13.5
      vertex 20 40 -4.89859e-15
    endloop
  endfacet
  facet normal 1 0 0
    outer loop
      vertex 20 27.2051 -2.21405
      vertex 20 40 -4.89859e-15
      vertex 20 27.4455 -1.60689
    endloop
  endfacet
  facet normal 1 0 0
    outer loop
      vertex 20 27.2051 2.21405
      vertex 20 27.4455 1.60689
      vertex 20 40 -4.89859e-15
    endloop
  endfacet
  facet normal 1 -0 0
    outer loop
      vertex 20 27.2051 2.21405
      vertex 20 40 -4.89859e-15
      vertex 20 32.2058 13.5
    endloop
  endfacet
  facet normal 1 0 0
    outer loop
      vertex 20 27.4455 -1.60689
      vertex 20 40 -4.89859e-15
      vertex 20 27.6079 -0.974382
    endloop
  endfacet
  facet normal 1 0 0
    outer loop
      vertex 20 27.4455 1.60689
      vertex 20 27.6079 0.974382
      vertex 20 40 -4.89859e-15
    endloop
  endfacet
  facet normal 1 0 0
    outer loop
      vertex 20 27.6079 -0.974382
      vertex 20 40 -4.89859e-15
      vertex 20 27.6897 -0.32651
    endloop
  endfacet
  facet normal 1 0 0
    outer loop
      vertex 20 27.6079 0.974382
      vertex 20 27.6897 0.32651
      vertex 20 40 -4.89859e-15
    endloop
  endfacet
  facet normal 1 0 0
    outer loop
      vertex 20 27.6897 -0.32651
      vertex 20 40 -4.89859e-15
      vertex 20 27.6897 0.32651
    endloop
  endfacet
endsolid model
