solid model
  facet normal 0 1 0
    outer loop
      vertex -0.134999 -2.14576 0
      vertex -0.134999 -2.14576 11.5
      vertex 0.134999 -2.14576 0
    endloop
  endfacet
  facet normal 0 0 -1
    outer loop
      vertex -0.134999 -2.14576 0
      vertex 0.134999 -2.14576 0
      vertex 0.251162 -3.99211 0
    endloop
  endfacet
  facet normal 0 1 -0
    outer loop
      vertex -0.134999 -2.14576 11.5
      vertex 0.134999 -2.14576 11.5
      vertex 0.134999 -2.14576 0
    endloop
  endfacet
  facet normal -0 0 1
    outer loop
      vertex -0.134999 -2.14576 11.5
      vertex 0.251162 -3.99211 11.5
      vertex 0.134999 -2.14576 11.5
    endloop
  endfacet
  facet normal 0 -1 -0
    outer loop
      vertex -0.134999 2.14576 0
      vertex 0.134999 2.14576 0
      vertex 0.134999 2.14576 11.5
    endloop
  endfacet
  facet normal 0 -1 0
    outer loop
      vertex -0.134999 2.14576 0
      vertex 0.134999 2.14576 11.5
      vertex -0.134999 2.14576 11.5
    endloop
  endfacet
  facet normal 0 0 -1
    outer loop
      vertex -0.134999 2.14576 0
      vertex 0.251162 3.99211 0
      vertex 0.134999 2.14576 0
    endloop
  endfacet
  facet normal 0 0 1
    outer loop
      vertex -0.134999 2.14576 11.5
      vertex 0.134999 2.14576 11.5
      vertex 0.251162 3.99211 11.5
    endloop
  endfacet
  facet normal 0 0 -1
    outer loop
      vertex -0.251162 -3.99211 0
      vertex -0.134999 -2.14576 0
      vertex 0.251162 -3.99211 0
    endloop
  endfacet
  facet normal 0 -1 -0
    outer loop
      vertex -0.251162 -3.99211 0
      vertex 0.251162 -3.99211 0
      vertex 0.251162 -3.99211 11.5
    endloop
  endfacet
  facet normal 0 -1 0
    outer loop
      vertex -0.251162 -3.99211 0
      vertex 0.251162 -3.99211 11.5
      vertex -0.251162 -3.99211 11.5
    endloop
  endfacet
  facet normal 0 0 1
    outer loop
      vertex -0.251162 -3.99211 11.5
      vertex 0.251162 -3.99211 11.5
      vertex -0.134999 -2.14576 11.5
    endloop
  endfacet
  facet normal 0 1 0
    outer loop
      vertex -0.251162 3.99211 0
      vertex -0.251162 3.99211 11.5
      vertex 0.251162 3.99211 0
    endloop
  endfacet
  facet normal 0 0 -1
    outer loop
      vertex -0.251162 3.99211 0
      vertex 0.251162 3.99211 0
      vertex -0.134999 2.14576 0
    endloop
  endfacet
  facet normal -0 0 1
    outer loop
      vertex -0.251162 3.99211 11.5
      vertex -0.134999 2.14576 11.5
      vertex 0.251162 3.99211 11.5
    endloop
  endfacet
  facet normal 0 1 -0
    outer loop
      vertex -0.251162 3.99211 11.5
      vertex 0.251162 3.99211 11.5
      vertex 0.251162 3.99211 0
    endloop
  endfacet
  facet normal 0 0 -1
    outer loop
      vertex -0.402869 -2.11192 0
      vertex -0.134999 -2.14576 0
      vertex -0.251162 -3.99211 0
    endloop
  endfacet
  facet normal 0.125331 0.992115 0
    outer loop
      vertex -0.402869 -2.11192 0
      vertex -0.402869 -2.11192 11.5
      vertex -0.134999 -2.14576 0
    endloop
  endfacet
  facet normal 0.125331 0.992115 -0
    outer loop
      vertex -0.402869 -2.11192 11.5
      vertex -0.134999 -2.14576 11.5
      vertex -0.134999 -2.14576 0
    endloop
  endfacet
  facet normal 0 0 1
    outer loop
      vertex -0.402869 -2.11192 11.5
      vertex -0.251162 -3.99211 11.5
      vertex -0.134999 -2.14576 11.5
    endloop
  endfacet
  facet normal 0.125331 -0.992115 0
    outer loop
      vertex -0.402869 2.11192 0
      vertex -0.134999 2.14576 0
      vertex -0.134999 2.14576 11.5
    endloop
  endfacet
  facet normal 0.125331 -0.992115 0
    outer loop
      vertex -0.402869 2.11192 0
      vertex -0.134999 2.14576 11.5
      vertex -0.402869 2.11192 11.5
    endloop
  endfacet
  facet normal 0 0 -1
    outer loop
      vertex -0.402869 2.11192 0
      vertex -0.251162 3.99211 0
      vertex -0.134999 2.14576 0
    endloop
  endfacet
  facet normal 0 0 1
    outer loop
      vertex -0.402869 2.11192 11.5
      vertex -0.134999 2.14576 11.5
      vertex -0.251162 3.99211 11.5
    endloop
  endfacet
  facet normal 0.248691 0.968583 0
    outer loop
      vertex -0.664386 -2.04477 0
      vertex -0.664386 -2.04477 11.5
      vertex -0.402869 -2.11192 0
    endloop
  endfacet
  facet normal 0.248691 0.968583 -0
    outer loop
      vertex -0.664386 -2.04477 11.5
      vertex -0.402869 -2.11192 11.5
      vertex -0.402869 -2.11192 0
    endloop
  endfacet
  facet normal 0.248691 -0.968583 0
    outer loop
      vertex -0.664386 2.04477 0
      vertex -0.402869 2.11192 0
      vertex -0.402869 2.11192 11.5
    endloop
  endfacet
  facet normal 0.248691 -0.968583 0
    outer loop
      vertex -0.664386 2.04477 0
      vertex -0.402869 2.11192 11.5
      vertex -0.664386 2.04477 11.5
    endloop
  endfacet
  facet normal -0.125333 -0.992115 -0
    outer loop
      vertex -0.749525 -3.92915 0
      vertex -0.251162 -3.99211 0
      vertex -0.251162 -3.99211 11.5
    endloop
  endfacet
  facet normal -0.125333 -0.992115 0
    outer loop
      vertex -0.749525 -3.92915 0
      vertex -0.251162 -3.99211 11.5
      vertex -0.749525 -3.92915 11.5
    endloop
  endfacet
  facet normal 0 0 -1
    outer loop
      vertex -0.749525 -3.92915 0
      vertex -0.402869 -2.11192 0
      vertex -0.251162 -3.99211 0
    endloop
  endfacet
  facet normal -0 0 -1
    outer loop
      vertex -0.749525 -3.92915 0
      vertex -0.664386 -2.04477 0
      vertex -0.402869 -2.11192 0
    endloop
  endfacet
  facet normal 0 0 1
    outer loop
      vertex -0.749525 -3.92915 11.5
      vertex -0.251162 -3.99211 11.5
      vertex -0.402869 -2.11192 11.5
    endloop
  endfacet
  facet normal 0 0 1
    outer loop
      vertex -0.749525 -3.92915 11.5
      vertex -0.402869 -2.11192 11.5
      vertex -0.664386 -2.04477 11.5
    endloop
  endfacet
  facet normal 0 0 -1
    outer loop
      vertex -0.749525 3.92915 0
      vertex -0.251162 3.99211 0
      vertex -0.402869 2.11192 0
    endloop
  endfacet
  facet normal 0 0 -1
    outer loop
      vertex -0.749525 3.92915 0
      vertex -0.402869 2.11192 0
      vertex -0.664386 2.04477 0
    endloop
  endfacet
  facet normal -0.125333 0.992115 0
    outer loop
      vertex -0.749525 3.92915 0
      vertex -0.749525 3.92915 11.5
      vertex -0.251162 3.99211 0
    endloop
  endfacet
  facet normal -0.125333 0.992115 0
    outer loop
      vertex -0.749525 3.92915 11.5
      vertex -0.251162 3.99211 11.5
      vertex -0.251162 3.99211 0
    endloop
  endfacet
  facet normal -0 0 1
    outer loop
      vertex -0.749525 3.92915 11.5
      vertex -0.402869 2.11192 11.5
      vertex -0.251162 3.99211 11.5
    endloop
  endfacet
  facet normal 0 0 1
    outer loop
      vertex -0.749525 3.92915 11.5
      vertex -0.664386 2.04477 11.5
      vertex -0.402869 2.11192 11.5
    endloop
  endfacet
  facet normal 0.368125 0.929776 0
    outer loop
      vertex -0.915425 -1.94538 0
      vertex -0.915425 -1.94538 11.5
      vertex -0.664386 -2.04477 0
    endloop
  endfacet
  facet normal 0.368125 0.929776 -0
    outer loop
      vertex -0.915425 -1.94538 11.5
      vertex -0.664386 -2.04477 11.5
      vertex -0.664386 -2.04477 0
    endloop
  endfacet
  facet normal 0.368125 -0.929776 0
    outer loop
      vertex -0.915425 1.94538 0
      vertex -0.664386 2.04477 0
      vertex -0.664386 2.04477 11.5
    endloop
  endfacet
  facet normal 0.368125 -0.929776 0
    outer loop
      vertex -0.915425 1.94538 0
      vertex -0.664386 2.04477 11.5
      vertex -0.915425 1.94538 11.5
    endloop
  endfacet
  facet normal 0.481753 0.876307 0
    outer loop
      vertex -1.15203 -1.8153 0
      vertex -1.15203 -1.8153 11.5
      vertex -0.915425 -1.94538 0
    endloop
  endfacet
  facet normal 0.481753 0.876307 -0
    outer loop
      vertex -1.15203 -1.8153 11.5
      vertex -0.915425 -1.94538 11.5
      vertex -0.915425 -1.94538 0
    endloop
  endfacet
  facet normal 0.481753 -0.876307 0
    outer loop
      vertex -1.15203 1.8153 0
      vertex -0.915425 1.94538 0
      vertex -0.915425 1.94538 11.5
    endloop
  endfacet
  facet normal 0.481753 -0.876307 0
    outer loop
      vertex -1.15203 1.8153 0
      vertex -0.915425 1.94538 11.5
      vertex -1.15203 1.8153 11.5
    endloop
  endfacet
  facet normal 0 0 -1
    outer loop
      vertex -1.23607 -3.80423 0
      vertex -0.664386 -2.04477 0
      vertex -0.749525 -3.92915 0
    endloop
  endfacet
  facet normal -0.24869 -0.968583 -0
    outer loop
      vertex -1.23607 -3.80423 0
      vertex -0.749525 -3.92915 0
      vertex -0.749525 -3.92915 11.5
    endloop
  endfacet
  facet normal -0.24869 -0.968583 0
    outer loop
      vertex -1.23607 -3.80423 0
      vertex -0.749525 -3.92915 11.5
      vertex -1.23607 -3.80423 11.5
    endloop
  endfacet
  facet normal -0 0 -1
    outer loop
      vertex -1.23607 -3.80423 0
      vertex -0.915425 -1.94538 0
      vertex -0.664386 -2.04477 0
    endloop
  endfacet
  facet normal 0 0 1
    outer loop
      vertex -1.23607 -3.80423 11.5
      vertex -0.664386 -2.04477 11.5
      vertex -0.915425 -1.94538 11.5
    endloop
  endfacet
  facet normal 0 0 1
    outer loop
      vertex -1.23607 -3.80423 11.5
      vertex -0.749525 -3.92915 11.5
      vertex -0.664386 -2.04477 11.5
    endloop
  endfacet
  facet normal 0 0 -1
    outer loop
      vertex -1.23607 3.80423 0
      vertex -0.664386 2.04477 0
      vertex -0.915425 1.94538 0
    endloop
  endfacet
  facet normal 0 0 -1
    outer loop
      vertex -1.23607 3.80423 0
      vertex -0.749525 3.92915 0
      vertex -0.664386 2.04477 0
    endloop
  endfacet
  facet normal -0.24869 0.968583 0
    outer loop
      vertex -1.23607 3.80423 0
      vertex -1.23607 3.80423 11.5
      vertex -0.749525 3.92915 0
    endloop
  endfacet
  facet normal -0 0 1
    outer loop
      vertex -1.23607 3.80423 11.5
      vertex -0.664386 2.04477 11.5
      vertex -0.749525 3.92915 11.5
    endloop
  endfacet
  facet normal -0.24869 0.968583 0
    outer loop
      vertex -1.23607 3.80423 11.5
      vertex -0.749525 3.92915 11.5
      vertex -0.749525 3.92915 0
    endloop
  endfacet
  facet normal 0 0 1
    outer loop
      vertex -1.23607 3.80423 11.5
      vertex -0.915425 1.94538 11.5
      vertex -0.664386 2.04477 11.5
    endloop
  endfacet
  facet normal 0.587785 0.809017 0
    outer loop
      vertex -1.37046 -1.6566 0
      vertex -1.37046 -1.6566 11.5
      vertex -1.15203 -1.8153 0
    endloop
  endfacet
  facet normal 0.587785 0.809017 -0
    outer loop
      vertex -1.37046 -1.6566 11.5
      vertex -1.15203 -1.8153 11.5
      vertex -1.15203 -1.8153 0
    endloop
  endfacet
  facet normal 0.587785 -0.809017 0
    outer loop
      vertex -1.37046 1.6566 0
      vertex -1.15203 1.8153 0
      vertex -1.15203 1.8153 11.5
    endloop
  endfacet
  facet normal 0.587785 -0.809017 0
    outer loop
      vertex -1.37046 1.6566 0
      vertex -1.15203 1.8153 11.5
      vertex -1.37046 1.6566 11.5
    endloop
  endfacet
  facet normal 0.684548 0.728968 0
    outer loop
      vertex -1.56728 -1.47178 0
      vertex -1.56728 -1.47178 11.5
      vertex -1.37046 -1.6566 0
    endloop
  endfacet
  facet normal 0.684548 0.728968 -0
    outer loop
      vertex -1.56728 -1.47178 11.5
      vertex -1.37046 -1.6566 11.5
      vertex -1.37046 -1.6566 0
    endloop
  endfacet
  facet normal 0.684548 -0.728968 0
    outer loop
      vertex -1.56728 1.47178 0
      vertex -1.37046 1.6566 0
      vertex -1.37046 1.6566 11.5
    endloop
  endfacet
  facet normal 0.684548 -0.728968 0
    outer loop
      vertex -1.56728 1.47178 0
      vertex -1.37046 1.6566 11.5
      vertex -1.56728 1.47178 11.5
    endloop
  endfacet
  facet normal 0 0 -1
    outer loop
      vertex -1.70312 -3.61931 0
      vertex -0.915425 -1.94538 0
      vertex -1.23607 -3.80423 0
    endloop
  endfacet
  facet normal -0 0 -1
    outer loop
      vertex -1.70312 -3.61931 0
      vertex -1.15203 -1.8153 0
      vertex -0.915425 -1.94538 0
    endloop
  endfacet
  facet normal -0.368126 -0.929776 -0
    outer loop
      vertex -1.70312 -3.61931 0
      vertex -1.23607 -3.80423 0
      vertex -1.23607 -3.80423 11.5
    endloop
  endfacet
  facet normal -0.368126 -0.929776 0
    outer loop
      vertex -1.70312 -3.61931 0
      vertex -1.23607 -3.80423 11.5
      vertex -1.70312 -3.61931 11.5
    endloop
  endfacet
  facet normal 0 0 1
    outer loop
      vertex -1.70312 -3.61931 11.5
      vertex -0.915425 -1.94538 11.5
      vertex -1.15203 -1.8153 11.5
    endloop
  endfacet
  facet normal 0 0 1
    outer loop
      vertex -1.70312 -3.61931 11.5
      vertex -1.23607 -3.80423 11.5
      vertex -0.915425 -1.94538 11.5
    endloop
  endfacet
  facet normal 0 0 -1
    outer loop
      vertex -1.70312 3.61931 0
      vertex -0.915425 1.94538 0
      vertex -1.15203 1.8153 0
    endloop
  endfacet
  facet normal 0 0 -1
    outer loop
      vertex -1.70312 3.61931 0
      vertex -1.23607 3.80423 0
      vertex -0.915425 1.94538 0
    endloop
  endfacet
  facet normal -0.368126 0.929776 0
    outer loop
      vertex -1.70312 3.61931 0
      vertex -1.70312 3.61931 11.5
      vertex -1.23607 3.80423 0
    endloop
  endfacet
  facet normal -0 0 1
    outer loop
      vertex -1.70312 3.61931 11.5
      vertex -0.915425 1.94538 11.5
      vertex -1.23607 3.80423 11.5
    endloop
  endfacet
  facet normal 0 0 1
    outer loop
      vertex -1.70312 3.61931 11.5
      vertex -1.15203 1.8153 11.5
      vertex -0.915425 1.94538 11.5
    endloop
  endfacet
  facet normal -0.368126 0.929776 0
    outer loop
      vertex -1.70312 3.61931 11.5
      vertex -1.23607 3.80423 11.5
      vertex -1.23607 3.80423 0
    endloop
  endfacet
  facet normal 0.770514 0.637423 0
    outer loop
      vertex -1.73939 -1.26374 0
      vertex -1.56728 -1.47178 11.5
      vertex -1.56728 -1.47178 0
    endloop
  endfacet
  facet normal 0.770514 0.637423 0
    outer loop
      vertex -1.73939 -1.26374 0
      vertex -1.73939 -1.26374 11.5
      vertex -1.56728 -1.47178 11.5
    endloop
  endfacet
  facet normal 0.770514 -0.637423 0
    outer loop
      vertex -1.73939 1.26374 0
      vertex -1.56728 1.47178 0
      vertex -1.73939 1.26374 11.5
    endloop
  endfacet
  facet normal 0.770514 -0.637423 0
    outer loop
      vertex -1.73939 1.26374 11.5
      vertex -1.56728 1.47178 0
      vertex -1.56728 1.47178 11.5
    endloop
  endfacet
  facet normal 0.844327 0.535828 0
    outer loop
      vertex -1.88406 -1.03577 0
      vertex -1.73939 -1.26374 11.5
      vertex -1.73939 -1.26374 0
    endloop
  endfacet
  facet normal 0.844327 0.535828 0
    outer loop
      vertex -1.88406 -1.03577 0
      vertex -1.88406 -1.03577 11.5
      vertex -1.73939 -1.26374 11.5
    endloop
  endfacet
  facet normal 0.844327 -0.535828 0
    outer loop
      vertex -1.88406 1.03577 0
      vertex -1.73939 1.26374 0
      vertex -1.88406 1.03577 11.5
    endloop
  endfacet
  facet normal 0.844327 -0.535828 0
    outer loop
      vertex -1.88406 1.03577 11.5
      vertex -1.73939 1.26374 0
      vertex -1.73939 1.26374 11.5
    endloop
  endfacet
  facet normal 0.904827 0.425779 0
    outer loop
      vertex -1.99902 -0.791468 0
      vertex -1.88406 -1.03577 11.5
      vertex -1.88406 -1.03577 0
    endloop
  endfacet
  facet normal 0.904827 0.425779 0
    outer loop
      vertex -1.99902 -0.791468 0
      vertex -1.99902 -0.791468 11.5
      vertex -1.88406 -1.03577 11.5
    endloop
  endfacet
  facet normal 0.904827 -0.425779 0
    outer loop
      vertex -1.99902 0.791468 0
      vertex -1.88406 1.03577 0
      vertex -1.99902 0.791468 11.5
    endloop
  endfacet
  facet normal 0.904827 -0.425779 0
    outer loop
      vertex -1.99902 0.791468 11.5
      vertex -1.88406 1.03577 0
      vertex -1.88406 1.03577 11.5
    endloop
  endfacet
  facet normal 0.951056 0.309019 0
    outer loop
      vertex -2.08245 -0.534683 0
      vertex -1.99902 -0.791468 11.5
      vertex -1.99902 -0.791468 0
    endloop
  endfacet
  facet normal 0.951056 0.309019 0
    outer loop
      vertex -2.08245 -0.534683 0
      vertex -2.08245 -0.534683 11.5
      vertex -1.99902 -0.791468 11.5
    endloop
  endfacet
  facet normal 0.951056 -0.309019 0
    outer loop
      vertex -2.08245 0.534683 0
      vertex -1.99902 0.791468 0
      vertex -2.08245 0.534683 11.5
    endloop
  endfacet
  facet normal 0.951056 -0.309019 0
    outer loop
      vertex -2.08245 0.534683 11.5
      vertex -1.99902 0.791468 0
      vertex -1.99902 0.791468 11.5
    endloop
  endfacet
  facet normal 0.982288 0.18738 0
    outer loop
      vertex -2.13305 -0.269466 0
      vertex -2.08245 -0.534683 11.5
      vertex -2.08245 -0.534683 0
    endloop
  endfacet
  facet normal 0.982288 0.18738 0
    outer loop
      vertex -2.13305 -0.269466 0
      vertex -2.13305 -0.269466 11.5
      vertex -2.08245 -0.534683 11.5
    endloop
  endfacet
  facet normal 0.982288 -0.18738 0
    outer loop
      vertex -2.13305 0.269466 0
      vertex -2.08245 0.534683 0
      vertex -2.13305 0.269466 11.5
    endloop
  endfacet
  facet normal 0.982288 -0.18738 0
    outer loop
      vertex -2.13305 0.269466 11.5
      vertex -2.08245 0.534683 0
      vertex -2.08245 0.534683 11.5
    endloop
  endfacet
  facet normal 0 0 -1
    outer loop
      vertex -2.14331 -3.37731 0
      vertex -1.15203 -1.8153 0
      vertex -1.70312 -3.61931 0
    endloop
  endfacet
  facet normal -0 0 -1
    outer loop
      vertex -2.14331 -3.37731 0
      vertex -1.37046 -1.6566 0
      vertex -1.15203 -1.8153 0
    endloop
  endfacet
  facet normal -0.481754 -0.876307 -0
    outer loop
      vertex -2.14331 -3.37731 0
      vertex -1.70312 -3.61931 0
      vertex -1.70312 -3.61931 11.5
    endloop
  endfacet
  facet normal -0.481754 -0.876307 0
    outer loop
      vertex -2.14331 -3.37731 0
      vertex -1.70312 -3.61931 11.5
      vertex -2.14331 -3.37731 11.5
    endloop
  endfacet
  facet normal 0 0 1
    outer loop
      vertex -2.14331 -3.37731 11.5
      vertex -1.15203 -1.8153 11.5
      vertex -1.37046 -1.6566 11.5
    endloop
  endfacet
  facet normal 0 0 1
    outer loop
      vertex -2.14331 -3.37731 11.5
      vertex -1.70312 -3.61931 11.5
      vertex -1.15203 -1.8153 11.5
    endloop
  endfacet
  facet normal 0 0 -1
    outer loop
      vertex -2.14331 3.37731 0
      vertex -1.15203 1.8153 0
      vertex -1.37046 1.6566 0
    endloop
  endfacet
  facet normal 0 0 -1
    outer loop
      vertex -2.14331 3.37731 0
      vertex -1.70312 3.61931 0
      vertex -1.15203 1.8153 0
    endloop
  endfacet
  facet normal -0.481754 0.876307 0
    outer loop
      vertex -2.14331 3.37731 0
      vertex -2.14331 3.37731 11.5
      vertex -1.70312 3.61931 0
    endloop
  endfacet
  facet normal -0 0 1
    outer loop
      vertex -2.14331 3.37731 11.5
      vertex -1.15203 1.8153 11.5
      vertex -1.70312 3.61931 11.5
    endloop
  endfacet
  facet normal 0 0 1
    outer loop
      vertex -2.14331 3.37731 11.5
      vertex -1.37046 1.6566 11.5
      vertex -1.15203 1.8153 11.5
    endloop
  endfacet
  facet normal -0.481754 0.876307 0
    outer loop
      vertex -2.14331 3.37731 11.5
      vertex -1.70312 3.61931 11.5
      vertex -1.70312 3.61931 0
    endloop
  endfacet
  facet normal 0.998027 0.0627908 0
    outer loop
      vertex -2.15 0 0
      vertex -2.13305 -0.269466 11.5
      vertex -2.13305 -0.269466 0
    endloop
  endfacet
  facet normal 0.998027 -0.0627908 0
    outer loop
      vertex -2.15 0 0
      vertex -2.13305 0.269466 0
      vertex -2.15 0 11.5
    endloop
  endfacet
  facet normal 0.998027 0.0627908 0
    outer loop
      vertex -2.15 0 0
      vertex -2.15 0 11.5
      vertex -2.13305 -0.269466 11.5
    endloop
  endfacet
  facet normal 0.998027 -0.0627908 0
    outer loop
      vertex -2.15 0 11.5
      vertex -2.13305 0.269466 0
      vertex -2.13305 0.269466 11.5
    endloop
  endfacet
  facet normal 0 0 -1
    outer loop
      vertex -2.5497 -3.08205 0
      vertex -1.37046 -1.6566 0
      vertex -2.14331 -3.37731 0
    endloop
  endfacet
  facet normal -0 0 -1
    outer loop
      vertex -2.5497 -3.08205 0
      vertex -1.56728 -1.47178 0
      vertex -1.37046 -1.6566 0
    endloop
  endfacet
  facet normal -0.587785 -0.809017 -0
    outer loop
      vertex -2.5497 -3.08205 0
      vertex -2.14331 -3.37731 0
      vertex -2.14331 -3.37731 11.5
    endloop
  endfacet
  facet normal -0.587785 -0.809017 0
    outer loop
      vertex -2.5497 -3.08205 0
      vertex -2.14331 -3.37731 11.5
      vertex -2.5497 -3.08205 11.5
    endloop
  endfacet
  facet normal 0 0 1
    outer loop
      vertex -2.5497 -3.08205 11.5
      vertex -1.37046 -1.6566 11.5
      vertex -1.56728 -1.47178 11.5
    endloop
  endfacet
  facet normal 0 0 1
    outer loop
      vertex -2.5497 -3.08205 11.5
      vertex -2.14331 -3.37731 11.5
      vertex -1.37046 -1.6566 11.5
    endloop
  endfacet
  facet normal 0 0 -1
    outer loop
      vertex -2.5497 3.08205 0
      vertex -1.37046 1.6566 0
      vertex -1.56728 1.47178 0
    endloop
  endfacet
  facet normal 0 0 -1
    outer loop
      vertex -2.5497 3.08205 0
      vertex -2.14331 3.37731 0
      vertex -1.37046 1.6566 0
    endloop
  endfacet
  facet normal -0.587785 0.809017 0
    outer loop
      vertex -2.5497 3.08205 0
      vertex -2.5497 3.08205 11.5
      vertex -2.14331 3.37731 0
    endloop
  endfacet
  facet normal -0 0 1
    outer loop
      vertex -2.5497 3.08205 11.5
      vertex -1.37046 1.6566 11.5
      vertex -2.14331 3.37731 11.5
    endloop
  endfacet
  facet normal 0 0 1
    outer loop
      vertex -2.5497 3.08205 11.5
      vertex -1.56728 1.47178 11.5
      vertex -1.37046 1.6566 11.5
    endloop
  endfacet
  facet normal -0.587785 0.809017 0
    outer loop
      vertex -2.5497 3.08205 11.5
      vertex -2.14331 3.37731 11.5
      vertex -2.14331 3.37731 0
    endloop
  endfacet
  facet normal 0 0 -1
    outer loop
      vertex -2.91587 -2.73819 0
      vertex -1.56728 -1.47178 0
      vertex -2.5497 -3.08205 0
    endloop
  endfacet
  facet normal -0 0 -1
    outer loop
      vertex -2.91587 -2.73819 0
      vertex -1.73939 -1.26374 0
      vertex -1.56728 -1.47178 0
    endloop
  endfacet
  facet normal -0.684546 -0.72897 -0
    outer loop
      vertex -2.91587 -2.73819 0
      vertex -2.5497 -3.08205 0
      vertex -2.5497 -3.08205 11.5
    endloop
  endfacet
  facet normal -0.684546 -0.72897 0
    outer loop
      vertex -2.91587 -2.73819 0
      vertex -2.5497 -3.08205 11.5
      vertex -2.91587 -2.73819 11.5
    endloop
  endfacet
  facet normal 0 0 1
    outer loop
      vertex -2.91587 -2.73819 11.5
      vertex -1.56728 -1.47178 11.5
      vertex -1.73939 -1.26374 11.5
    endloop
  endfacet
  facet normal 0 0 1
    outer loop
      vertex -2.91587 -2.73819 11.5
      vertex -2.5497 -3.08205 11.5
      vertex -1.56728 -1.47178 11.5
    endloop
  endfacet
  facet normal 0 0 -1
    outer loop
      vertex -2.91587 2.73819 0
      vertex -1.56728 1.47178 0
      vertex -1.73939 1.26374 0
    endloop
  endfacet
  facet normal 0 0 -1
    outer loop
      vertex -2.91587 2.73819 0
      vertex -2.5497 3.08205 0
      vertex -1.56728 1.47178 0
    endloop
  endfacet
  facet normal -0.684546 0.72897 0
    outer loop
      vertex -2.91587 2.73819 0
      vertex -2.91587 2.73819 11.5
      vertex -2.5497 3.08205 0
    endloop
  endfacet
  facet normal -0 0 1
    outer loop
      vertex -2.91587 2.73819 11.5
      vertex -1.56728 1.47178 11.5
      vertex -2.5497 3.08205 11.5
    endloop
  endfacet
  facet normal 0 0 1
    outer loop
      vertex -2.91587 2.73819 11.5
      vertex -1.73939 1.26374 11.5
      vertex -1.56728 1.47178 11.5
    endloop
  endfacet
  facet normal -0.684546 0.72897 0
    outer loop
      vertex -2.91587 2.73819 11.5
      vertex -2.5497 3.08205 11.5
      vertex -2.5497 3.08205 0
    endloop
  endfacet
  facet normal 0 0 -1
    outer loop
      vertex -3.23607 -2.35114 0
      vertex -1.73939 -1.26374 0
      vertex -2.91587 -2.73819 0
    endloop
  endfacet
  facet normal -0 0 -1
    outer loop
      vertex -3.23607 -2.35114 0
      vertex -1.88406 -1.03577 0
      vertex -1.73939 -1.26374 0
    endloop
  endfacet
  facet normal -0.770513 -0.637424 0
    outer loop
      vertex -3.23607 -2.35114 0
      vertex -2.91587 -2.73819 0
      vertex -3.23607 -2.35114 11.5
    endloop
  endfacet
  facet normal 0 0 1
    outer loop
      vertex -3.23607 -2.35114 11.5
      vertex -1.73939 -1.26374 11.5
      vertex -1.88406 -1.03577 11.5
    endloop
  endfacet
  facet normal -0.770513 -0.637424 0
    outer loop
      vertex -3.23607 -2.35114 11.5
      vertex -2.91587 -2.73819 0
      vertex -2.91587 -2.73819 11.5
    endloop
  endfacet
  facet normal 0 0 1
    outer loop
      vertex -3.23607 -2.35114 11.5
      vertex -2.91587 -2.73819 11.5
      vertex -1.73939 -1.26374 11.5
    endloop
  endfacet
  facet normal 0 0 -1
    outer loop
      vertex -3.23607 2.35114 0
      vertex -1.73939 1.26374 0
      vertex -1.88406 1.03577 0
    endloop
  endfacet
  facet normal 0 0 -1
    outer loop
      vertex -3.23607 2.35114 0
      vertex -2.91587 2.73819 0
      vertex -1.73939 1.26374 0
    endloop
  endfacet
  facet normal -0.770513 0.637424 0
    outer loop
      vertex -3.23607 2.35114 0
      vertex -2.91587 2.73819 11.5
      vertex -2.91587 2.73819 0
    endloop
  endfacet
  facet normal -0.770513 0.637424 0
    outer loop
      vertex -3.23607 2.35114 0
      vertex -3.23607 2.35114 11.5
      vertex -2.91587 2.73819 11.5
    endloop
  endfacet
  facet normal -0 0 1
    outer loop
      vertex -3.23607 2.35114 11.5
      vertex -1.73939 1.26374 11.5
      vertex -2.91587 2.73819 11.5
    endloop
  endfacet
  facet normal 0 0 1
    outer loop
      vertex -3.23607 2.35114 11.5
      vertex -1.88406 1.03577 11.5
      vertex -1.73939 1.26374 11.5
    endloop
  endfacet
  facet normal 0 0 -1
    outer loop
      vertex -3.50523 -1.92701 0
      vertex -1.88406 -1.03577 0
      vertex -3.23607 -2.35114 0
    endloop
  endfacet
  facet normal -0 0 -1
    outer loop
      vertex -3.50523 -1.92701 0
      vertex -1.99902 -0.791468 0
      vertex -1.88406 -1.03577 0
    endloop
  endfacet
  facet normal -0.844328 -0.535826 0
    outer loop
      vertex -3.50523 -1.92701 0
      vertex -3.23607 -2.35114 0
      vertex -3.50523 -1.92701 11.5
    endloop
  endfacet
  facet normal 0 0 1
    outer loop
      vertex -3.50523 -1.92701 11.5
      vertex -1.88406 -1.03577 11.5
      vertex -1.99902 -0.791468 11.5
    endloop
  endfacet
  facet normal -0.844328 -0.535826 0
    outer loop
      vertex -3.50523 -1.92701 11.5
      vertex -3.23607 -2.35114 0
      vertex -3.23607 -2.35114 11.5
    endloop
  endfacet
  facet normal 0 0 1
    outer loop
      vertex -3.50523 -1.92701 11.5
      vertex -3.23607 -2.35114 11.5
      vertex -1.88406 -1.03577 11.5
    endloop
  endfacet
  facet normal 0 0 -1
    outer loop
      vertex -3.50523 1.92701 0
      vertex -1.88406 1.03577 0
      vertex -1.99902 0.791468 0
    endloop
  endfacet
  facet normal 0 0 -1
    outer loop
      vertex -3.50523 1.92701 0
      vertex -3.23607 2.35114 0
      vertex -1.88406 1.03577 0
    endloop
  endfacet
  facet normal -0.844328 0.535826 0
    outer loop
      vertex -3.50523 1.92701 0
      vertex -3.23607 2.35114 11.5
      vertex -3.23607 2.35114 0
    endloop
  endfacet
  facet normal -0.844328 0.535826 0
    outer loop
      vertex -3.50523 1.92701 0
      vertex -3.50523 1.92701 11.5
      vertex -3.23607 2.35114 11.5
    endloop
  endfacet
  facet normal -0 0 1
    outer loop
      vertex -3.50523 1.92701 11.5
      vertex -1.88406 1.03577 11.5
      vertex -3.23607 2.35114 11.5
    endloop
  endfacet
  facet normal 0 0 1
    outer loop
      vertex -3.50523 1.92701 11.5
      vertex -1.99902 0.791468 11.5
      vertex -1.88406 1.03577 11.5
    endloop
  endfacet
  facet normal 0 0 -1
    outer loop
      vertex -3.71911 -1.4725 0
      vertex -1.99902 -0.791468 0
      vertex -3.50523 -1.92701 0
    endloop
  endfacet
  facet normal -0 0 -1
    outer loop
      vertex -3.71911 -1.4725 0
      vertex -2.08245 -0.534683 0
      vertex -1.99902 -0.791468 0
    endloop
  endfacet
  facet normal -0.904827 -0.42578 0
    outer loop
      vertex -3.71911 -1.4725 0
      vertex -3.50523 -1.92701 0
      vertex -3.71911 -1.4725 11.5
    endloop
  endfacet
  facet normal 0 0 1
    outer loop
      vertex -3.71911 -1.4725 11.5
      vertex -1.99902 -0.791468 11.5
      vertex -2.08245 -0.534683 11.5
    endloop
  endfacet
  facet normal -0.904827 -0.42578 0
    outer loop
      vertex -3.71911 -1.4725 11.5
      vertex -3.50523 -1.92701 0
      vertex -3.50523 -1.92701 11.5
    endloop
  endfacet
  facet normal 0 0 1
    outer loop
      vertex -3.71911 -1.4725 11.5
      vertex -3.50523 -1.92701 11.5
      vertex -1.99902 -0.791468 11.5
    endloop
  endfacet
  facet normal 0 0 -1
    outer loop
      vertex -3.71911 1.4725 0
      vertex -1.99902 0.791468 0
      vertex -2.08245 0.534683 0
    endloop
  endfacet
  facet normal 0 0 -1
    outer loop
      vertex -3.71911 1.4725 0
      vertex -3.50523 1.92701 0
      vertex -1.99902 0.791468 0
    endloop
  endfacet
  facet normal -0.904827 0.42578 0
    outer loop
      vertex -3.71911 1.4725 0
      vertex -3.50523 1.92701 11.5
      vertex -3.50523 1.92701 0
    endloop
  endfacet
  facet normal -0.904827 0.42578 0
    outer loop
      vertex -3.71911 1.4725 0
      vertex -3.71911 1.4725 11.5
      vertex -3.50523 1.92701 11.5
    endloop
  endfacet
  facet normal -0 0 1
    outer loop
      vertex -3.71911 1.4725 11.5
      vertex -1.99902 0.791468 11.5
      vertex -3.50523 1.92701 11.5
    endloop
  endfacet
  facet normal 0 0 1
    outer loop
      vertex -3.71911 1.4725 11.5
      vertex -2.08245 0.534683 11.5
      vertex -1.99902 0.791468 11.5
    endloop
  endfacet
  facet normal 0 0 -1
    outer loop
      vertex -3.87433 -0.994759 0
      vertex -2.08245 -0.534683 0
      vertex -3.71911 -1.4725 0
    endloop
  endfacet
  facet normal -0 0 -1
    outer loop
      vertex -3.87433 -0.994759 0
      vertex -2.13305 -0.269466 0
      vertex -2.08245 -0.534683 0
    endloop
  endfacet
  facet normal -0.951057 -0.309017 0
    outer loop
      vertex -3.87433 -0.994759 0
      vertex -3.71911 -1.4725 0
      vertex -3.87433 -0.994759 11.5
    endloop
  endfacet
  facet normal 0 0 1
    outer loop
      vertex -3.87433 -0.994759 11.5
      vertex -2.08245 -0.534683 11.5
      vertex -2.13305 -0.269466 11.5
    endloop
  endfacet
  facet normal -0.951057 -0.309017 0
    outer loop
      vertex -3.87433 -0.994759 11.5
      vertex -3.71911 -1.4725 0
      vertex -3.71911 -1.4725 11.5
    endloop
  endfacet
  facet normal 0 0 1
    outer loop
      vertex -3.87433 -0.994759 11.5
      vertex -3.71911 -1.4725 11.5
      vertex -2.08245 -0.534683 11.5
    endloop
  endfacet
  facet normal 0 0 -1
    outer loop
      vertex -3.87433 0.994759 0
      vertex -2.08245 0.534683 0
      vertex -2.13305 0.269466 0
    endloop
  endfacet
  facet normal 0 0 -1
    outer loop
      vertex -3.87433 0.994759 0
      vertex -3.71911 1.4725 0
      vertex -2.08245 0.534683 0
    endloop
  endfacet
  facet normal -0.951057 0.309017 0
    outer loop
      vertex -3.87433 0.994759 0
      vertex -3.71911 1.4725 11.5
      vertex -3.71911 1.4725 0
    endloop
  endfacet
  facet normal -0.951057 0.309017 0
    outer loop
      vertex -3.87433 0.994759 0
      vertex -3.87433 0.994759 11.5
      vertex -3.71911 1.4725 11.5
    endloop
  endfacet
  facet normal -0 0 1
    outer loop
      vertex -3.87433 0.994759 11.5
      vertex -2.08245 0.534683 11.5
      vertex -3.71911 1.4725 11.5
    endloop
  endfacet
  facet normal 0 0 1
    outer loop
      vertex -3.87433 0.994759 11.5
      vertex -2.13305 0.269466 11.5
      vertex -2.08245 0.534683 11.5
    endloop
  endfacet
  facet normal 0 0 -1
    outer loop
      vertex -3.96846 -0.501332 0
      vertex -2.13305 -0.269466 0
      vertex -3.87433 -0.994759 0
    endloop
  endfacet
  facet normal -0 0 -1
    outer loop
      vertex -3.96846 -0.501332 0
      vertex -2.15 0 0
      vertex -2.13305 -0.269466 0
    endloop
  endfacet
  facet normal -0.982287 -0.187381 0
    outer loop
      vertex -3.96846 -0.501332 0
      vertex -3.87433 -0.994759 0
      vertex -3.96846 -0.501332 11.5
    endloop
  endfacet
  facet normal 0 0 1
    outer loop
      vertex -3.96846 -0.501332 11.5
      vertex -2.13305 -0.269466 11.5
      vertex -2.15 0 11.5
    endloop
  endfacet
  facet normal -0.982287 -0.187381 0
    outer loop
      vertex -3.96846 -0.501332 11.5
      vertex -3.87433 -0.994759 0
      vertex -3.87433 -0.994759 11.5
    endloop
  endfacet
  facet normal 0 0 1
    outer loop
      vertex -3.96846 -0.501332 11.5
      vertex -3.87433 -0.994759 11.5
      vertex -2.13305 -0.269466 11.5
    endloop
  endfacet
  facet normal 0 0 -1
    outer loop
      vertex -3.96846 0.501332 0
      vertex -2.13305 0.269466 0
      vertex -2.15 0 0
    endloop
  endfacet
  facet normal 0 0 -1
    outer loop
      vertex -3.96846 0.501332 0
      vertex -3.87433 0.994759 0
      vertex -2.13305 0.269466 0
    endloop
  endfacet
  facet normal -0.982287 0.187381 0
    outer loop
      vertex -3.96846 0.501332 0
      vertex -3.87433 0.994759 11.5
      vertex -3.87433 0.994759 0
    endloop
  endfacet
  facet normal -0.982287 0.187381 0
    outer loop
      vertex -3.96846 0.501332 0
      vertex -3.96846 0.501332 11.5
      vertex -3.87433 0.994759 11.5
    endloop
  endfacet
  facet normal -0 0 1
    outer loop
      vertex -3.96846 0.501332 11.5
      vertex -2.13305 0.269466 11.5
      vertex -3.87433 0.994759 11.5
    endloop
  endfacet
  facet normal 0 0 1
    outer loop
      vertex -3.96846 0.501332 11.5
      vertex -2.15 0 11.5
      vertex -2.13305 0.269466 11.5
    endloop
  endfacet
  facet normal 0 0 -1
    outer loop
      vertex -4 0 0
      vertex -2.15 0 0
      vertex -3.96846 -0.501332 0
    endloop
  endfacet
  facet normal -0.998027 -0.0627918 0
    outer loop
      vertex -4 0 0
      vertex -3.96846 -0.501332 0
      vertex -4 0 11.5
    endloop
  endfacet
  facet normal 0 0 -1
    outer loop
      vertex -4 0 0
      vertex -3.96846 0.501332 0
      vertex -2.15 0 0
    endloop
  endfacet
  facet normal -0.998027 0.0627918 0
    outer loop
      vertex -4 0 0
      vertex -3.96846 0.501332 11.5
      vertex -3.96846 0.501332 0
    endloop
  endfacet
  facet normal -0.998027 0.0627918 0
    outer loop
      vertex -4 0 0
      vertex -4 0 11.5
      vertex -3.96846 0.501332 11.5
    endloop
  endfacet
  facet normal 0 0 1
    outer loop
      vertex -4 0 11.5
      vertex -2.15 0 11.5
      vertex -3.96846 0.501332 11.5
    endloop
  endfacet
  facet normal -0.998027 -0.0627918 0
    outer loop
      vertex -4 0 11.5
      vertex -3.96846 -0.501332 0
      vertex -3.96846 -0.501332 11.5
    endloop
  endfacet
  facet normal 0 0 1
    outer loop
      vertex -4 0 11.5
      vertex -3.96846 -0.501332 11.5
      vertex -2.15 0 11.5
    endloop
  endfacet
  facet normal -0.125331 0.992115 0
    outer loop
      vertex 0.134999 -2.14576 0
      vertex 0.134999 -2.14576 11.5
      vertex 0.402869 -2.11192 0
    endloop
  endfacet
  facet normal 0 0 -1
    outer loop
      vertex 0.134999 -2.14576 0
      vertex 0.402869 -2.11192 0
      vertex 0.251162 -3.99211 0
    endloop
  endfacet
  facet normal -0 0 1
    outer loop
      vertex 0.134999 -2.14576 11.5
      vertex 0.251162 -3.99211 11.5
      vertex 0.402869 -2.11192 11.5
    endloop
  endfacet
  facet normal -0.125331 0.992115 0
    outer loop
      vertex 0.134999 -2.14576 11.5
      vertex 0.402869 -2.11192 11.5
      vertex 0.402869 -2.11192 0
    endloop
  endfacet
  facet normal 0 0 -1
    outer loop
      vertex 0.134999 2.14576 0
      vertex 0.251162 3.99211 0
      vertex 0.402869 2.11192 0
    endloop
  endfacet
  facet normal -0.125331 -0.992115 -0
    outer loop
      vertex 0.134999 2.14576 0
      vertex 0.402869 2.11192 0
      vertex 0.402869 2.11192 11.5
    endloop
  endfacet
  facet normal -0.125331 -0.992115 0
    outer loop
      vertex 0.134999 2.14576 0
      vertex 0.402869 2.11192 11.5
      vertex 0.134999 2.14576 11.5
    endloop
  endfacet
  facet normal 0 0 1
    outer loop
      vertex 0.134999 2.14576 11.5
      vertex 0.402869 2.11192 11.5
      vertex 0.251162 3.99211 11.5
    endloop
  endfacet
  facet normal 0 0 -1
    outer loop
      vertex 0.251162 -3.99211 0
      vertex 0.402869 -2.11192 0
      vertex 0.749525 -3.92915 0
    endloop
  endfacet
  facet normal 0.125333 -0.992115 0
    outer loop
      vertex 0.251162 -3.99211 0
      vertex 0.749525 -3.92915 0
      vertex 0.749525 -3.92915 11.5
    endloop
  endfacet
  facet normal 0.125333 -0.992115 0
    outer loop
      vertex 0.251162 -3.99211 0
      vertex 0.749525 -3.92915 11.5
      vertex 0.251162 -3.99211 11.5
    endloop
  endfacet
  facet normal 0 0 1
    outer loop
      vertex 0.251162 -3.99211 11.5
      vertex 0.749525 -3.92915 11.5
      vertex 0.402869 -2.11192 11.5
    endloop
  endfacet
  facet normal 0.125333 0.992115 0
    outer loop
      vertex 0.251162 3.99211 0
      vertex 0.251162 3.99211 11.5
      vertex 0.749525 3.92915 0
    endloop
  endfacet
  facet normal 0 0 -1
    outer loop
      vertex 0.251162 3.99211 0
      vertex 0.749525 3.92915 0
      vertex 0.402869 2.11192 0
    endloop
  endfacet
  facet normal 0 0 1
    outer loop
      vertex 0.251162 3.99211 11.5
      vertex 0.402869 2.11192 11.5
      vertex 0.749525 3.92915 11.5
    endloop
  endfacet
  facet normal 0.125333 0.992115 -0
    outer loop
      vertex 0.251162 3.99211 11.5
      vertex 0.749525 3.92915 11.5
      vertex 0.749525 3.92915 0
    endloop
  endfacet
  facet normal -0.248691 0.968583 0
    outer loop
      vertex 0.402869 -2.11192 0
      vertex 0.402869 -2.11192 11.5
      vertex 0.664386 -2.04477 0
    endloop
  endfacet
  facet normal 0 0 -1
    outer loop
      vertex 0.402869 -2.11192 0
      vertex 0.664386 -2.04477 0
      vertex 0.749525 -3.92915 0
    endloop
  endfacet
  facet normal -0.248691 0.968583 0
    outer loop
      vertex 0.402869 -2.11192 11.5
      vertex 0.664386 -2.04477 11.5
      vertex 0.664386 -2.04477 0
    endloop
  endfacet
  facet normal -0 0 1
    outer loop
      vertex 0.402869 -2.11192 11.5
      vertex 0.749525 -3.92915 11.5
      vertex 0.664386 -2.04477 11.5
    endloop
  endfacet
  facet normal -0.248691 -0.968583 -0
    outer loop
      vertex 0.402869 2.11192 0
      vertex 0.664386 2.04477 0
      vertex 0.664386 2.04477 11.5
    endloop
  endfacet
  facet normal -0.248691 -0.968583 0
    outer loop
      vertex 0.402869 2.11192 0
      vertex 0.664386 2.04477 11.5
      vertex 0.402869 2.11192 11.5
    endloop
  endfacet
  facet normal 0 0 -1
    outer loop
      vertex 0.402869 2.11192 0
      vertex 0.749525 3.92915 0
      vertex 0.664386 2.04477 0
    endloop
  endfacet
  facet normal 0 0 1
    outer loop
      vertex 0.402869 2.11192 11.5
      vertex 0.664386 2.04477 11.5
      vertex 0.749525 3.92915 11.5
    endloop
  endfacet
  facet normal -0.368125 0.929776 0
    outer loop
      vertex 0.664386 -2.04477 0
      vertex 0.664386 -2.04477 11.5
      vertex 0.915425 -1.94538 0
    endloop
  endfacet
  facet normal 0 0 -1
    outer loop
      vertex 0.664386 -2.04477 0
      vertex 0.915425 -1.94538 0
      vertex 1.23607 -3.80423 0
    endloop
  endfacet
  facet normal 0 0 -1
    outer loop
      vertex 0.664386 -2.04477 0
      vertex 1.23607 -3.80423 0
      vertex 0.749525 -3.92915 0
    endloop
  endfacet
  facet normal 0 0 1
    outer loop
      vertex 0.664386 -2.04477 11.5
      vertex 0.749525 -3.92915 11.5
      vertex 1.23607 -3.80423 11.5
    endloop
  endfacet
  facet normal -0.368125 0.929776 0
    outer loop
      vertex 0.664386 -2.04477 11.5
      vertex 0.915425 -1.94538 11.5
      vertex 0.915425 -1.94538 0
    endloop
  endfacet
  facet normal -0 0 1
    outer loop
      vertex 0.664386 -2.04477 11.5
      vertex 1.23607 -3.80423 11.5
      vertex 0.915425 -1.94538 11.5
    endloop
  endfacet
  facet normal -0 0 -1
    outer loop
      vertex 0.664386 2.04477 0
      vertex 0.749525 3.92915 0
      vertex 1.23607 3.80423 0
    endloop
  endfacet
  facet normal -0.368125 -0.929776 -0
    outer loop
      vertex 0.664386 2.04477 0
      vertex 0.915425 1.94538 0
      vertex 0.915425 1.94538 11.5
    endloop
  endfacet
  facet normal -0.368125 -0.929776 0
    outer loop
      vertex 0.664386 2.04477 0
      vertex 0.915425 1.94538 11.5
      vertex 0.664386 2.04477 11.5
    endloop
  endfacet
  facet normal 0 0 -1
    outer loop
      vertex 0.664386 2.04477 0
      vertex 1.23607 3.80423 0
      vertex 0.915425 1.94538 0
    endloop
  endfacet
  facet normal 0 0 1
    outer loop
      vertex 0.664386 2.04477 11.5
      vertex 0.915425 1.94538 11.5
      vertex 1.23607 3.80423 11.5
    endloop
  endfacet
  facet normal 0 0 1
    outer loop
      vertex 0.664386 2.04477 11.5
      vertex 1.23607 3.80423 11.5
      vertex 0.749525 3.92915 11.5
    endloop
  endfacet
  facet normal 0.24869 -0.968583 0
    outer loop
      vertex 0.749525 -3.92915 0
      vertex 1.23607 -3.80423 0
      vertex 1.23607 -3.80423 11.5
    endloop
  endfacet
  facet normal 0.24869 -0.968583 0
    outer loop
      vertex 0.749525 -3.92915 0
      vertex 1.23607 -3.80423 11.5
      vertex 0.749525 -3.92915 11.5
    endloop
  endfacet
  facet normal 0.24869 0.968583 0
    outer loop
      vertex 0.749525 3.92915 0
      vertex 0.749525 3.92915 11.5
      vertex 1.23607 3.80423 0
    endloop
  endfacet
  facet normal 0.24869 0.968583 -0
    outer loop
      vertex 0.749525 3.92915 11.5
      vertex 1.23607 3.80423 11.5
      vertex 1.23607 3.80423 0
    endloop
  endfacet
  facet normal -0.481753 0.876307 0
    outer loop
      vertex 0.915425 -1.94538 0
      vertex 0.915425 -1.94538 11.5
      vertex 1.15203 -1.8153 0
    endloop
  endfacet
  facet normal 0 0 -1
    outer loop
      vertex 0.915425 -1.94538 0
      vertex 1.15203 -1.8153 0
      vertex 1.70312 -3.61931 0
    endloop
  endfacet
  facet normal 0 0 -1
    outer loop
      vertex 0.915425 -1.94538 0
      vertex 1.70312 -3.61931 0
      vertex 1.23607 -3.80423 0
    endloop
  endfacet
  facet normal -0.481753 0.876307 0
    outer loop
      vertex 0.915425 -1.94538 11.5
      vertex 1.15203 -1.8153 11.5
      vertex 1.15203 -1.8153 0
    endloop
  endfacet
  facet normal 0 0 1
    outer loop
      vertex 0.915425 -1.94538 11.5
      vertex 1.23607 -3.80423 11.5
      vertex 1.70312 -3.61931 11.5
    endloop
  endfacet
  facet normal -0 0 1
    outer loop
      vertex 0.915425 -1.94538 11.5
      vertex 1.70312 -3.61931 11.5
      vertex 1.15203 -1.8153 11.5
    endloop
  endfacet
  facet normal -0.481753 -0.876307 -0
    outer loop
      vertex 0.915425 1.94538 0
      vertex 1.15203 1.8153 0
      vertex 1.15203 1.8153 11.5
    endloop
  endfacet
  facet normal -0.481753 -0.876307 0
    outer loop
      vertex 0.915425 1.94538 0
      vertex 1.15203 1.8153 11.5
      vertex 0.915425 1.94538 11.5
    endloop
  endfacet
  facet normal -0 0 -1
    outer loop
      vertex 0.915425 1.94538 0
      vertex 1.23607 3.80423 0
      vertex 1.70312 3.61931 0
    endloop
  endfacet
  facet normal 0 0 -1
    outer loop
      vertex 0.915425 1.94538 0
      vertex 1.70312 3.61931 0
      vertex 1.15203 1.8153 0
    endloop
  endfacet
  facet normal 0 0 1
    outer loop
      vertex 0.915425 1.94538 11.5
      vertex 1.15203 1.8153 11.5
      vertex 1.70312 3.61931 11.5
    endloop
  endfacet
  facet normal 0 0 1
    outer loop
      vertex 0.915425 1.94538 11.5
      vertex 1.70312 3.61931 11.5
      vertex 1.23607 3.80423 11.5
    endloop
  endfacet
  facet normal -0.587785 0.809017 0
    outer loop
      vertex 1.15203 -1.8153 0
      vertex 1.15203 -1.8153 11.5
      vertex 1.37046 -1.6566 0
    endloop
  endfacet
  facet normal 0 0 -1
    outer loop
      vertex 1.15203 -1.8153 0
      vertex 1.37046 -1.6566 0
      vertex 2.14331 -3.37731 0
    endloop
  endfacet
  facet normal 0 0 -1
    outer loop
      vertex 1.15203 -1.8153 0
      vertex 2.14331 -3.37731 0
      vertex 1.70312 -3.61931 0
    endloop
  endfacet
  facet normal -0.587785 0.809017 0
    outer loop
      vertex 1.15203 -1.8153 11.5
      vertex 1.37046 -1.6566 11.5
      vertex 1.37046 -1.6566 0
    endloop
  endfacet
  facet normal 0 0 1
    outer loop
      vertex 1.15203 -1.8153 11.5
      vertex 1.70312 -3.61931 11.5
      vertex 2.14331 -3.37731 11.5
    endloop
  endfacet
  facet normal -0 0 1
    outer loop
      vertex 1.15203 -1.8153 11.5
      vertex 2.14331 -3.37731 11.5
      vertex 1.37046 -1.6566 11.5
    endloop
  endfacet
  facet normal -0.587785 -0.809017 -0
    outer loop
      vertex 1.15203 1.8153 0
      vertex 1.37046 1.6566 0
      vertex 1.37046 1.6566 11.5
    endloop
  endfacet
  facet normal -0.587785 -0.809017 0
    outer loop
      vertex 1.15203 1.8153 0
      vertex 1.37046 1.6566 11.5
      vertex 1.15203 1.8153 11.5
    endloop
  endfacet
  facet normal -0 0 -1
    outer loop
      vertex 1.15203 1.8153 0
      vertex 1.70312 3.61931 0
      vertex 2.14331 3.37731 0
    endloop
  endfacet
  facet normal 0 0 -1
    outer loop
      vertex 1.15203 1.8153 0
      vertex 2.14331 3.37731 0
      vertex 1.37046 1.6566 0
    endloop
  endfacet
  facet normal 0 0 1
    outer loop
      vertex 1.15203 1.8153 11.5
      vertex 1.37046 1.6566 11.5
      vertex 2.14331 3.37731 11.5
    endloop
  endfacet
  facet normal 0 0 1
    outer loop
      vertex 1.15203 1.8153 11.5
      vertex 2.14331 3.37731 11.5
      vertex 1.70312 3.61931 11.5
    endloop
  endfacet
  facet normal 0.368126 -0.929776 0
    outer loop
      vertex 1.23607 -3.80423 0
      vertex 1.70312 -3.61931 0
      vertex 1.70312 -3.61931 11.5
    endloop
  endfacet
  facet normal 0.368126 -0.929776 0
    outer loop
      vertex 1.23607 -3.80423 0
      vertex 1.70312 -3.61931 11.5
      vertex 1.23607 -3.80423 11.5
    endloop
  endfacet
  facet normal 0.368126 0.929776 0
    outer loop
      vertex 1.23607 3.80423 0
      vertex 1.23607 3.80423 11.5
      vertex 1.70312 3.61931 0
    endloop
  endfacet
  facet normal 0.368126 0.929776 -0
    outer loop
      vertex 1.23607 3.80423 11.5
      vertex 1.70312 3.61931 11.5
      vertex 1.70312 3.61931 0
    endloop
  endfacet
  facet normal -0.684548 0.728968 0
    outer loop
      vertex 1.37046 -1.6566 0
      vertex 1.37046 -1.6566 11.5
      vertex 1.56728 -1.47178 0
    endloop
  endfacet
  facet normal 0 0 -1
    outer loop
      vertex 1.37046 -1.6566 0
      vertex 1.56728 -1.47178 0
      vertex 2.5497 -3.08205 0
    endloop
  endfacet
  facet normal 0 0 -1
    outer loop
      vertex 1.37046 -1.6566 0
      vertex 2.5497 -3.08205 0
      vertex 2.14331 -3.37731 0
    endloop
  endfacet
  facet normal -0.684548 0.728968 0
    outer loop
      vertex 1.37046 -1.6566 11.5
      vertex 1.56728 -1.47178 11.5
      vertex 1.56728 -1.47178 0
    endloop
  endfacet
  facet normal 0 0 1
    outer loop
      vertex 1.37046 -1.6566 11.5
      vertex 2.14331 -3.37731 11.5
      vertex 2.5497 -3.08205 11.5
    endloop
  endfacet
  facet normal -0 0 1
    outer loop
      vertex 1.37046 -1.6566 11.5
      vertex 2.5497 -3.08205 11.5
      vertex 1.56728 -1.47178 11.5
    endloop
  endfacet
  facet normal -0.684548 -0.728968 -0
    outer loop
      vertex 1.37046 1.6566 0
      vertex 1.56728 1.47178 0
      vertex 1.56728 1.47178 11.5
    endloop
  endfacet
  facet normal -0.684548 -0.728968 0
    outer loop
      vertex 1.37046 1.6566 0
      vertex 1.56728 1.47178 11.5
      vertex 1.37046 1.6566 11.5
    endloop
  endfacet
  facet normal -0 0 -1
    outer loop
      vertex 1.37046 1.6566 0
      vertex 2.14331 3.37731 0
      vertex 2.5497 3.08205 0
    endloop
  endfacet
  facet normal 0 0 -1
    outer loop
      vertex 1.37046 1.6566 0
      vertex 2.5497 3.08205 0
      vertex 1.56728 1.47178 0
    endloop
  endfacet
  facet normal 0 0 1
    outer loop
      vertex 1.37046 1.6566 11.5
      vertex 1.56728 1.47178 11.5
      vertex 2.5497 3.08205 11.5
    endloop
  endfacet
  facet normal 0 0 1
    outer loop
      vertex 1.37046 1.6566 11.5
      vertex 2.5497 3.08205 11.5
      vertex 2.14331 3.37731 11.5
    endloop
  endfacet
  facet normal -0.770514 0.637423 0
    outer loop
      vertex 1.56728 -1.47178 0
      vertex 1.56728 -1.47178 11.5
      vertex 1.73939 -1.26374 11.5
    endloop
  endfacet
  facet normal 0 0 -1
    outer loop
      vertex 1.56728 -1.47178 0
      vertex 1.73939 -1.26374 0
      vertex 2.91587 -2.73819 0
    endloop
  endfacet
  facet normal -0.770514 0.637423 0
    outer loop
      vertex 1.56728 -1.47178 0
      vertex 1.73939 -1.26374 11.5
      vertex 1.73939 -1.26374 0
    endloop
  endfacet
  facet normal 0 0 -1
    outer loop
      vertex 1.56728 -1.47178 0
      vertex 2.91587 -2.73819 0
      vertex 2.5497 -3.08205 0
    endloop
  endfacet
  facet normal 0 0 1
    outer loop
      vertex 1.56728 -1.47178 11.5
      vertex 2.5497 -3.08205 11.5
      vertex 2.91587 -2.73819 11.5
    endloop
  endfacet
  facet normal -0 0 1
    outer loop
      vertex 1.56728 -1.47178 11.5
      vertex 2.91587 -2.73819 11.5
      vertex 1.73939 -1.26374 11.5
    endloop
  endfacet
  facet normal -0.770514 -0.637423 0
    outer loop
      vertex 1.56728 1.47178 0
      vertex 1.73939 1.26374 0
      vertex 1.56728 1.47178 11.5
    endloop
  endfacet
  facet normal -0 0 -1
    outer loop
      vertex 1.56728 1.47178 0
      vertex 2.5497 3.08205 0
      vertex 2.91587 2.73819 0
    endloop
  endfacet
  facet normal 0 0 -1
    outer loop
      vertex 1.56728 1.47178 0
      vertex 2.91587 2.73819 0
      vertex 1.73939 1.26374 0
    endloop
  endfacet
  facet normal -0.770514 -0.637423 0
    outer loop
      vertex 1.56728 1.47178 11.5
      vertex 1.73939 1.26374 0
      vertex 1.73939 1.26374 11.5
    endloop
  endfacet
  facet normal 0 0 1
    outer loop
      vertex 1.56728 1.47178 11.5
      vertex 1.73939 1.26374 11.5
      vertex 2.91587 2.73819 11.5
    endloop
  endfacet
  facet normal 0 0 1
    outer loop
      vertex 1.56728 1.47178 11.5
      vertex 2.91587 2.73819 11.5
      vertex 2.5497 3.08205 11.5
    endloop
  endfacet
  facet normal 0.481754 -0.876307 0
    outer loop
      vertex 1.70312 -3.61931 0
      vertex 2.14331 -3.37731 0
      vertex 2.14331 -3.37731 11.5
    endloop
  endfacet
  facet normal 0.481754 -0.876307 0
    outer loop
      vertex 1.70312 -3.61931 0
      vertex 2.14331 -3.37731 11.5
      vertex 1.70312 -3.61931 11.5
    endloop
  endfacet
  facet normal 0.481754 0.876307 0
    outer loop
      vertex 1.70312 3.61931 0
      vertex 1.70312 3.61931 11.5
      vertex 2.14331 3.37731 0
    endloop
  endfacet
  facet normal 0.481754 0.876307 -0
    outer loop
      vertex 1.70312 3.61931 11.5
      vertex 2.14331 3.37731 11.5
      vertex 2.14331 3.37731 0
    endloop
  endfacet
  facet normal -0.844327 0.535828 0
    outer loop
      vertex 1.73939 -1.26374 0
      vertex 1.73939 -1.26374 11.5
      vertex 1.88406 -1.03577 11.5
    endloop
  endfacet
  facet normal 0 0 -1
    outer loop
      vertex 1.73939 -1.26374 0
      vertex 1.88406 -1.03577 0
      vertex 3.23607 -2.35114 0
    endloop
  endfacet
  facet normal -0.844327 0.535828 0
    outer loop
      vertex 1.73939 -1.26374 0
      vertex 1.88406 -1.03577 11.5
      vertex 1.88406 -1.03577 0
    endloop
  endfacet
  facet normal 0 0 -1
    outer loop
      vertex 1.73939 -1.26374 0
      vertex 3.23607 -2.35114 0
      vertex 2.91587 -2.73819 0
    endloop
  endfacet
  facet normal 0 0 1
    outer loop
      vertex 1.73939 -1.26374 11.5
      vertex 2.91587 -2.73819 11.5
      vertex 3.23607 -2.35114 11.5
    endloop
  endfacet
  facet normal -0 0 1
    outer loop
      vertex 1.73939 -1.26374 11.5
      vertex 3.23607 -2.35114 11.5
      vertex 1.88406 -1.03577 11.5
    endloop
  endfacet
  facet normal -0.844327 -0.535828 0
    outer loop
      vertex 1.73939 1.26374 0
      vertex 1.88406 1.03577 0
      vertex 1.73939 1.26374 11.5
    endloop
  endfacet
  facet normal -0 0 -1
    outer loop
      vertex 1.73939 1.26374 0
      vertex 2.91587 2.73819 0
      vertex 3.23607 2.35114 0
    endloop
  endfacet
  facet normal 0 0 -1
    outer loop
      vertex 1.73939 1.26374 0
      vertex 3.23607 2.35114 0
      vertex 1.88406 1.03577 0
    endloop
  endfacet
  facet normal -0.844327 -0.535828 0
    outer loop
      vertex 1.73939 1.26374 11.5
      vertex 1.88406 1.03577 0
      vertex 1.88406 1.03577 11.5
    endloop
  endfacet
  facet normal 0 0 1
    outer loop
      vertex 1.73939 1.26374 11.5
      vertex 1.88406 1.03577 11.5
      vertex 3.23607 2.35114 11.5
    endloop
  endfacet
  facet normal 0 0 1
    outer loop
      vertex 1.73939 1.26374 11.5
      vertex 3.23607 2.35114 11.5
      vertex 2.91587 2.73819 11.5
    endloop
  endfacet
  facet normal -0.904827 0.425779 0
    outer loop
      vertex 1.88406 -1.03577 0
      vertex 1.88406 -1.03577 11.5
      vertex 1.99902 -0.791468 11.5
    endloop
  endfacet
  facet normal 0 0 -1
    outer loop
      vertex 1.88406 -1.03577 0
      vertex 1.99902 -0.791468 0
      vertex 3.50523 -1.92701 0
    endloop
  endfacet
  facet normal -0.904827 0.425779 0
    outer loop
      vertex 1.88406 -1.03577 0
      vertex 1.99902 -0.791468 11.5
      vertex 1.99902 -0.791468 0
    endloop
  endfacet
  facet normal 0 0 -1
    outer loop
      vertex 1.88406 -1.03577 0
      vertex 3.50523 -1.92701 0
      vertex 3.23607 -2.35114 0
    endloop
  endfacet
  facet normal 0 0 1
    outer loop
      vertex 1.88406 -1.03577 11.5
      vertex 3.23607 -2.35114 11.5
      vertex 3.50523 -1.92701 11.5
    endloop
  endfacet
  facet normal -0 0 1
    outer loop
      vertex 1.88406 -1.03577 11.5
      vertex 3.50523 -1.92701 11.5
      vertex 1.99902 -0.791468 11.5
    endloop
  endfacet
  facet normal -0.904827 -0.425779 0
    outer loop
      vertex 1.88406 1.03577 0
      vertex 1.99902 0.791468 0
      vertex 1.88406 1.03577 11.5
    endloop
  endfacet
  facet normal -0 0 -1
    outer loop
      vertex 1.88406 1.03577 0
      vertex 3.23607 2.35114 0
      vertex 3.50523 1.92701 0
    endloop
  endfacet
  facet normal 0 0 -1
    outer loop
      vertex 1.88406 1.03577 0
      vertex 3.50523 1.92701 0
      vertex 1.99902 0.791468 0
    endloop
  endfacet
  facet normal -0.904827 -0.425779 0
    outer loop
      vertex 1.88406 1.03577 11.5
      vertex 1.99902 0.791468 0
      vertex 1.99902 0.791468 11.5
    endloop
  endfacet
  facet normal 0 0 1
    outer loop
      vertex 1.88406 1.03577 11.5
      vertex 1.99902 0.791468 11.5
      vertex 3.50523 1.92701 11.5
    endloop
  endfacet
  facet normal 0 0 1
    outer loop
      vertex 1.88406 1.03577 11.5
      vertex 3.50523 1.92701 11.5
      vertex 3.23607 2.35114 11.5
    endloop
  endfacet
  facet normal -0.951056 0.309019 0
    outer loop
      vertex 1.99902 -0.791468 0
      vertex 1.99902 -0.791468 11.5
      vertex 2.08245 -0.534683 11.5
    endloop
  endfacet
  facet normal 0 0 -1
    outer loop
      vertex 1.99902 -0.791468 0
      vertex 2.08245 -0.534683 0
      vertex 3.71911 -1.4725 0
    endloop
  endfacet
  facet normal -0.951056 0.309019 0
    outer loop
      vertex 1.99902 -0.791468 0
      vertex 2.08245 -0.534683 11.5
      vertex 2.08245 -0.534683 0
    endloop
  endfacet
  facet normal 0 0 -1
    outer loop
      vertex 1.99902 -0.791468 0
      vertex 3.71911 -1.4725 0
      vertex 3.50523 -1.92701 0
    endloop
  endfacet
  facet normal 0 0 1
    outer loop
      vertex 1.99902 -0.791468 11.5
      vertex 3.50523 -1.92701 11.5
      vertex 3.71911 -1.4725 11.5
    endloop
  endfacet
  facet normal -0 0 1
    outer loop
      vertex 1.99902 -0.791468 11.5
      vertex 3.71911 -1.4725 11.5
      vertex 2.08245 -0.534683 11.5
    endloop
  endfacet
  facet normal -0.951056 -0.309019 0
    outer loop
      vertex 1.99902 0.791468 0
      vertex 2.08245 0.534683 0
      vertex 1.99902 0.791468 11.5
    endloop
  endfacet
  facet normal -0 0 -1
    outer loop
      vertex 1.99902 0.791468 0
      vertex 3.50523 1.92701 0
      vertex 3.71911 1.4725 0
    endloop
  endfacet
  facet normal 0 0 -1
    outer loop
      vertex 1.99902 0.791468 0
      vertex 3.71911 1.4725 0
      vertex 2.08245 0.534683 0
    endloop
  endfacet
  facet normal -0.951056 -0.309019 0
    outer loop
      vertex 1.99902 0.791468 11.5
      vertex 2.08245 0.534683 0
      vertex 2.08245 0.534683 11.5
    endloop
  endfacet
  facet normal 0 0 1
    outer loop
      vertex 1.99902 0.791468 11.5
      vertex 2.08245 0.534683 11.5
      vertex 3.71911 1.4725 11.5
    endloop
  endfacet
  facet normal 0 0 1
    outer loop
      vertex 1.99902 0.791468 11.5
      vertex 3.71911 1.4725 11.5
      vertex 3.50523 1.92701 11.5
    endloop
  endfacet
  facet normal -0.982288 0.18738 0
    outer loop
      vertex 2.08245 -0.534683 0
      vertex 2.08245 -0.534683 11.5
      vertex 2.13305 -0.269466 11.5
    endloop
  endfacet
  facet normal 0 0 -1
    outer loop
      vertex 2.08245 -0.534683 0
      vertex 2.13305 -0.269466 0
      vertex 3.87433 -0.994759 0
    endloop
  endfacet
  facet normal -0.982288 0.18738 0
    outer loop
      vertex 2.08245 -0.534683 0
      vertex 2.13305 -0.269466 11.5
      vertex 2.13305 -0.269466 0
    endloop
  endfacet
  facet normal 0 0 -1
    outer loop
      vertex 2.08245 -0.534683 0
      vertex 3.87433 -0.994759 0
      vertex 3.71911 -1.4725 0
    endloop
  endfacet
  facet normal 0 0 1
    outer loop
      vertex 2.08245 -0.534683 11.5
      vertex 3.71911 -1.4725 11.5
      vertex 3.87433 -0.994759 11.5
    endloop
  endfacet
  facet normal -0 0 1
    outer loop
      vertex 2.08245 -0.534683 11.5
      vertex 3.87433 -0.994759 11.5
      vertex 2.13305 -0.269466 11.5
    endloop
  endfacet
  facet normal -0.982288 -0.18738 0
    outer loop
      vertex 2.08245 0.534683 0
      vertex 2.13305 0.269466 0
      vertex 2.08245 0.534683 11.5
    endloop
  endfacet
  facet normal -0 0 -1
    outer loop
      vertex 2.08245 0.534683 0
      vertex 3.71911 1.4725 0
      vertex 3.87433 0.994759 0
    endloop
  endfacet
  facet normal 0 0 -1
    outer loop
      vertex 2.08245 0.534683 0
      vertex 3.87433 0.994759 0
      vertex 2.13305 0.269466 0
    endloop
  endfacet
  facet normal -0.982288 -0.18738 0
    outer loop
      vertex 2.08245 0.534683 11.5
      vertex 2.13305 0.269466 0
      vertex 2.13305 0.269466 11.5
    endloop
  endfacet
  facet normal 0 0 1
    outer loop
      vertex 2.08245 0.534683 11.5
      vertex 2.13305 0.269466 11.5
      vertex 3.87433 0.994759 11.5
    endloop
  endfacet
  facet normal 0 0 1
    outer loop
      vertex 2.08245 0.534683 11.5
      vertex 3.87433 0.994759 11.5
      vertex 3.71911 1.4725 11.5
    endloop
  endfacet
  facet normal -0.998027 0.0627908 0
    outer loop
      vertex 2.13305 -0.269466 0
      vertex 2.13305 -0.269466 11.5
      vertex 2.15 0 11.5
    endloop
  endfacet
  facet normal 0 0 -1
    outer loop
      vertex 2.13305 -0.269466 0
      vertex 2.15 0 0
      vertex 3.96846 -0.501332 0
    endloop
  endfacet
  facet normal -0.998027 0.0627908 0
    outer loop
      vertex 2.13305 -0.269466 0
      vertex 2.15 0 11.5
      vertex 2.15 0 0
    endloop
  endfacet
  facet normal 0 0 -1
    outer loop
      vertex 2.13305 -0.269466 0
      vertex 3.96846 -0.501332 0
      vertex 3.87433 -0.994759 0
    endloop
  endfacet
  facet normal 0 0 1
    outer loop
      vertex 2.13305 -0.269466 11.5
      vertex 3.87433 -0.994759 11.5
      vertex 3.96846 -0.501332 11.5
    endloop
  endfacet
  facet normal -0 0 1
    outer loop
      vertex 2.13305 -0.269466 11.5
      vertex 3.96846 -0.501332 11.5
      vertex 2.15 0 11.5
    endloop
  endfacet
  facet normal -0.998027 -0.0627908 0
    outer loop
      vertex 2.13305 0.269466 0
      vertex 2.15 0 0
      vertex 2.13305 0.269466 11.5
    endloop
  endfacet
  facet normal -0 0 -1
    outer loop
      vertex 2.13305 0.269466 0
      vertex 3.87433 0.994759 0
      vertex 3.96846 0.501332 0
    endloop
  endfacet
  facet normal 0 0 -1
    outer loop
      vertex 2.13305 0.269466 0
      vertex 3.96846 0.501332 0
      vertex 2.15 0 0
    endloop
  endfacet
  facet normal -0.998027 -0.0627908 0
    outer loop
      vertex 2.13305 0.269466 11.5
      vertex 2.15 0 0
      vertex 2.15 0 11.5
    endloop
  endfacet
  facet normal 0 0 1
    outer loop
      vertex 2.13305 0.269466 11.5
      vertex 2.15 0 11.5
      vertex 3.96846 0.501332 11.5
    endloop
  endfacet
  facet normal 0 0 1
    outer loop
      vertex 2.13305 0.269466 11.5
      vertex 3.96846 0.501332 11.5
      vertex 3.87433 0.994759 11.5
    endloop
  endfacet
  facet normal 0.587785 -0.809017 0
    outer loop
      vertex 2.14331 -3.37731 0
      vertex 2.5497 -3.08205 0
      vertex 2.5497 -3.08205 11.5
    endloop
  endfacet
  facet normal 0.587785 -0.809017 0
    outer loop
      vertex 2.14331 -3.37731 0
      vertex 2.5497 -3.08205 11.5
      vertex 2.14331 -3.37731 11.5
    endloop
  endfacet
  facet normal 0.587785 0.809017 0
    outer loop
      vertex 2.14331 3.37731 0
      vertex 2.14331 3.37731 11.5
      vertex 2.5497 3.08205 0
    endloop
  endfacet
  facet normal 0.587785 0.809017 -0
    outer loop
      vertex 2.14331 3.37731 11.5
      vertex 2.5497 3.08205 11.5
      vertex 2.5497 3.08205 0
    endloop
  endfacet
  facet normal 0 0 -1
    outer loop
      vertex 2.15 0 0
      vertex 3.96846 0.501332 0
      vertex 4 0 0
    endloop
  endfacet
  facet normal 0 0 -1
    outer loop
      vertex 2.15 0 0
      vertex 4 0 0
      vertex 3.96846 -0.501332 0
    endloop
  endfacet
  facet normal 0 0 1
    outer loop
      vertex 2.15 0 11.5
      vertex 3.96846 -0.501332 11.5
      vertex 4 0 11.5
    endloop
  endfacet
  facet normal 0 0 1
    outer loop
      vertex 2.15 0 11.5
      vertex 4 0 11.5
      vertex 3.96846 0.501332 11.5
    endloop
  endfacet
  facet normal 0.684546 -0.72897 0
    outer loop
      vertex 2.5497 -3.08205 0
      vertex 2.91587 -2.73819 0
      vertex 2.91587 -2.73819 11.5
    endloop
  endfacet
  facet normal 0.684546 -0.72897 0
    outer loop
      vertex 2.5497 -3.08205 0
      vertex 2.91587 -2.73819 11.5
      vertex 2.5497 -3.08205 11.5
    endloop
  endfacet
  facet normal 0.684546 0.72897 0
    outer loop
      vertex 2.5497 3.08205 0
      vertex 2.5497 3.08205 11.5
      vertex 2.91587 2.73819 0
    endloop
  endfacet
  facet normal 0.684546 0.72897 -0
    outer loop
      vertex 2.5497 3.08205 11.5
      vertex 2.91587 2.73819 11.5
      vertex 2.91587 2.73819 0
    endloop
  endfacet
  facet normal 0.770513 -0.637424 0
    outer loop
      vertex 2.91587 -2.73819 0
      vertex 3.23607 -2.35114 0
      vertex 2.91587 -2.73819 11.5
    endloop
  endfacet
  facet normal 0.770513 -0.637424 0
    outer loop
      vertex 2.91587 -2.73819 11.5
      vertex 3.23607 -2.35114 0
      vertex 3.23607 -2.35114 11.5
    endloop
  endfacet
  facet normal 0.770513 0.637424 0
    outer loop
      vertex 2.91587 2.73819 0
      vertex 2.91587 2.73819 11.5
      vertex 3.23607 2.35114 11.5
    endloop
  endfacet
  facet normal 0.770513 0.637424 0
    outer loop
      vertex 2.91587 2.73819 0
      vertex 3.23607 2.35114 11.5
      vertex 3.23607 2.35114 0
    endloop
  endfacet
  facet normal 0.844328 -0.535826 0
    outer loop
      vertex 3.23607 -2.35114 0
      vertex 3.50523 -1.92701 0
      vertex 3.23607 -2.35114 11.5
    endloop
  endfacet
  facet normal 0.844328 -0.535826 0
    outer loop
      vertex 3.23607 -2.35114 11.5
      vertex 3.50523 -1.92701 0
      vertex 3.50523 -1.92701 11.5
    endloop
  endfacet
  facet normal 0.844328 0.535826 0
    outer loop
      vertex 3.23607 2.35114 0
      vertex 3.23607 2.35114 11.5
      vertex 3.50523 1.92701 11.5
    endloop
  endfacet
  facet normal 0.844328 0.535826 0
    outer loop
      vertex 3.23607 2.35114 0
      vertex 3.50523 1.92701 11.5
      vertex 3.50523 1.92701 0
    endloop
  endfacet
  facet normal 0.904827 -0.42578 0
    outer loop
      vertex 3.50523 -1.92701 0
      vertex 3.71911 -1.4725 0
      vertex 3.50523 -1.92701 11.5
    endloop
  endfacet
  facet normal 0.904827 -0.42578 0
    outer loop
      vertex 3.50523 -1.92701 11.5
      vertex 3.71911 -1.4725 0
      vertex 3.71911 -1.4725 11.5
    endloop
  endfacet
  facet normal 0.904827 0.42578 0
    outer loop
      vertex 3.50523 1.92701 0
      vertex 3.50523 1.92701 11.5
      vertex 3.71911 1.4725 11.5
    endloop
  endfacet
  facet normal 0.904827 0.42578 0
    outer loop
      vertex 3.50523 1.92701 0
      vertex 3.71911 1.4725 11.5
      vertex 3.71911 1.4725 0
    endloop
  endfacet
  facet normal 0.951057 -0.309017 0
    outer loop
      vertex 3.71911 -1.4725 0
      vertex 3.87433 -0.994759 0
      vertex 3.71911 -1.4725 11.5
    endloop
  endfacet
  facet normal 0.951057 -0.309017 0
    outer loop
      vertex 3.71911 -1.4725 11.5
      vertex 3.87433 -0.994759 0
      vertex 3.87433 -0.994759 11.5
    endloop
  endfacet
  facet normal 0.951057 0.309017 0
    outer loop
      vertex 3.71911 1.4725 0
      vertex 3.71911 1.4725 11.5
      vertex 3.87433 0.994759 11.5
    endloop
  endfacet
  facet normal 0.951057 0.309017 0
    outer loop
      vertex 3.71911 1.4725 0
      vertex 3.87433 0.994759 11.5
      vertex 3.87433 0.994759 0
    endloop
  endfacet
  facet normal 0.982287 -0.187381 0
    outer loop
      vertex 3.87433 -0.994759 0
      vertex 3.96846 -0.501332 0
      vertex 3.87433 -0.994759 11.5
    endloop
  endfacet
  facet normal 0.982287 -0.187381 0
    outer loop
      vertex 3.87433 -0.994759 11.5
      vertex 3.96846 -0.501332 0
      vertex 3.96846 -0.501332 11.5
    endloop
  endfacet
  facet normal 0.982287 0.187381 0
    outer loop
      vertex 3.87433 0.994759 0
      vertex 3.87433 0.994759 11.5
      vertex 3.96846 0.501332 11.5
    endloop
  endfacet
  facet normal 0.982287 0.187381 0
    outer loop
      vertex 3.87433 0.994759 0
      vertex 3.96846 0.501332 11.5
      vertex 3.96846 0.501332 0
    endloop
  endfacet
  facet normal 0.998027 -0.0627918 0
    outer loop
      vertex 3.96846 -0.501332 0
      vertex 4 0 0
      vertex 3.96846 -0.501332 11.5
    endloop
  endfacet
  facet normal 0.998027 -0.0627918 0
    outer loop
      vertex 3.96846 -0.501332 11.5
      vertex 4 0 0
      vertex 4 0 11.5
    endloop
  endfacet
  facet normal 0.998027 0.0627918 0
    outer loop
      vertex 3.96846 0.501332 0
      vertex 3.96846 0.501332 11.5
      vertex 4 0 11.5
    endloop
  endfacet
  facet normal 0.998027 0.0627918 0
    outer loop
      vertex 3.96846 0.501332 0
      vertex 4 0 11.5
      vertex 4 0 0
    endloop
  endfacet
endsolid model
