solid model
  facet normal -0.0617326 0.705913 0.705604
    outer loop
      vertex -25.9735 -16.3062 -18.4096
      vertex 28.2887 -16.4173 -13.5511
      vertex 28.2984 -16.3062 -13.6614
    endloop
  endfacet
  facet normal 0.0858322 0.173643 -0.981061
    outer loop
      vertex -25.9735 -16.3062 -18.4096
      vertex 28.2984 -16.3062 -13.6614
      vertex 28.4293 -24.8248 -15.1577
    endloop
  endfacet
  facet normal -0.0403803 0.699873 0.713125
    outer loop
      vertex -26.043 -16.4173 -18.3045
      vertex -25.9735 -16.3062 -18.4096
      vertex -26.0052 -16.3549 -18.3636
    endloop
  endfacet
  facet normal -0.0597721 0.727781 0.6832
    outer loop
      vertex -26.043 -16.4173 -18.3045
      vertex 28.2431 -16.9106 -13.0296
      vertex 28.2887 -16.4173 -13.5511
    endloop
  endfacet
  facet normal -0.0617234 0.706014 0.705503
    outer loop
      vertex -26.043 -16.4173 -18.3045
      vertex 28.2887 -16.4173 -13.5511
      vertex -25.9735 -16.3062 -18.4096
    endloop
  endfacet
  facet normal -0.0577477 0.748982 0.66007
    outer loop
      vertex -26.3591 -16.9106 -17.8066
      vertex 28.1961 -17.3873 -12.4928
      vertex 28.2431 -16.9106 -13.0296
    endloop
  endfacet
  facet normal -0.0597674 0.727824 0.683155
    outer loop
      vertex -26.3591 -16.9106 -17.8066
      vertex 28.2431 -16.9106 -13.0296
      vertex -26.043 -16.4173 -18.3045
    endloop
  endfacet
  facet normal 0.870575 -0.0654993 0.487658
    outer loop
      vertex -26.4628 -17.0638 -17.6419
      vertex -26.043 -16.4173 -18.3045
      vertex -26.0052 -16.3549 -18.3636
    endloop
  endfacet
  facet normal 0.873997 -0.0755459 0.480023
    outer loop
      vertex -26.4628 -17.0638 -17.6419
      vertex -26.3591 -16.9106 -17.8066
      vertex -26.043 -16.4173 -18.3045
    endloop
  endfacet
  facet normal 0.0858308 0.173649 -0.98106
    outer loop
      vertex -26.5441 20.821 -11.8879
      vertex 27.5969 29.3396 -5.64342
      vertex 27.7278 20.821 -7.13977
    endloop
  endfacet
  facet normal -0.0370081 -0.90537 0.423008
    outer loop
      vertex -26.5441 20.821 -11.8879
      vertex 27.7278 20.821 -7.13977
      vertex 27.7154 20.8876 -6.99831
    endloop
  endfacet
  facet normal 0.856582 -0.076476 0.510313
    outer loop
      vertex -26.577 20.8502 -11.8283
      vertex -25.9735 -16.3062 -18.4096
      vertex -26.5441 20.821 -11.8879
    endloop
  endfacet
  facet normal 0.856952 -0.0763627 0.509707
    outer loop
      vertex -26.577 20.8502 -11.8283
      vertex -26.0052 -16.3549 -18.3636
      vertex -25.9735 -16.3062 -18.4096
    endloop
  endfacet
  facet normal -0.0370143 -0.905338 0.423077
    outer loop
      vertex -26.6163 20.8876 -11.7517
      vertex -26.5441 20.821 -11.8879
      vertex 27.7154 20.8876 -6.99831
    endloop
  endfacet
  facet normal -0.0391076 -0.905688 0.422138
    outer loop
      vertex -26.6163 20.8876 -11.7517
      vertex -26.577 20.8502 -11.8283
      vertex -26.5441 20.821 -11.8879
    endloop
  endfacet
  facet normal -0.0344685 -0.918473 0.393978
    outer loop
      vertex -26.6163 20.8876 -11.7517
      vertex 27.7154 20.8876 -6.99831
      vertex 27.6578 21.1721 -6.3401
    endloop
  endfacet
  facet normal -0.0610987 0.749733 0.658914
    outer loop
      vertex -26.6665 -17.3873 -17.2927
      vertex -26.3591 -16.9106 -17.8066
      vertex -26.4628 -17.0638 -17.6419
    endloop
  endfacet
  facet normal -0.0556709 0.769418 0.636315
    outer loop
      vertex -26.6665 -17.3873 -17.2927
      vertex 28.1479 -17.8468 -11.9414
      vertex 28.1961 -17.3873 -12.4928
    endloop
  endfacet
  facet normal -0.0577562 0.74891 0.66015
    outer loop
      vertex -26.6665 -17.3873 -17.2927
      vertex 28.1961 -17.3873 -12.4928
      vertex -26.3591 -16.9106 -17.8066
    endloop
  endfacet
  facet normal 0.888905 -0.0712575 0.452515
    outer loop
      vertex -26.8948 -17.73 -16.8982
      vertex -26.6665 -17.3873 -17.2927
      vertex -26.4628 -17.0638 -17.6419
    endloop
  endfacet
  facet normal -0.0344712 -0.918462 0.394004
    outer loop
      vertex -26.9443 21.1721 -11.1172
      vertex -26.6163 20.8876 -11.7517
      vertex 27.6578 21.1721 -6.3401
    endloop
  endfacet
  facet normal -0.0319474 -0.930397 0.365157
    outer loop
      vertex -26.9443 21.1721 -11.1172
      vertex 27.6578 21.1721 -6.3401
      vertex 27.5995 21.4358 -5.67331
    endloop
  endfacet
  facet normal -0.0489632 0.767881 0.638719
    outer loop
      vertex -26.9668 -17.8468 -16.7633
      vertex -26.6665 -17.3873 -17.2927
      vertex -26.8948 -17.73 -16.8982
    endloop
  endfacet
  facet normal -0.0535449 0.789026 0.612023
    outer loop
      vertex -26.9668 -17.8468 -16.7633
      vertex 28.0984 -18.2888 -11.3759
      vertex 28.1479 -17.8468 -11.9414
    endloop
  endfacet
  facet normal -0.0556669 0.769449 0.636277
    outer loop
      vertex -26.9668 -17.8468 -16.7633
      vertex 28.1479 -17.8468 -11.9414
      vertex -26.6665 -17.3873 -17.2927
    endloop
  endfacet
  facet normal 0.872624 -0.0714548 0.483138
    outer loop
      vertex -27.0518 21.2568 -10.9106
      vertex -26.0052 -16.3549 -18.3636
      vertex -26.577 20.8502 -11.8283
    endloop
  endfacet
  facet normal 0.872635 -0.0714506 0.483118
    outer loop
      vertex -27.0518 21.2568 -10.9106
      vertex -26.4628 -17.0638 -17.6419
      vertex -26.0052 -16.3549 -18.3636
    endloop
  endfacet
  facet normal 0.869554 -0.0832401 0.486771
    outer loop
      vertex -27.0518 21.2568 -10.9106
      vertex -26.577 20.8502 -11.8283
      vertex -26.6163 20.8876 -11.7517
    endloop
  endfacet
  facet normal 0.871235 -0.0768108 0.484819
    outer loop
      vertex -27.0518 21.2568 -10.9106
      vertex -26.6163 20.8876 -11.7517
      vertex -26.9443 21.1721 -11.1172
    endloop
  endfacet
  facet normal -0.0513501 0.80801 0.586927
    outer loop
      vertex -27.2556 -18.2888 -16.2188
      vertex 28.0477 -18.7126 -10.7969
      vertex 28.0984 -18.2888 -11.3759
    endloop
  endfacet
  facet normal -0.0535493 0.788992 0.612065
    outer loop
      vertex -27.2556 -18.2888 -16.2188
      vertex 28.0984 -18.2888 -11.3759
      vertex -26.9668 -17.8468 -16.7633
    endloop
  endfacet
  facet normal -0.0319473 -0.930398 0.365157
    outer loop
      vertex -27.2631 21.4358 -10.4732
      vertex -26.9443 21.1721 -11.1172
      vertex 27.5995 21.4358 -5.67331
    endloop
  endfacet
  facet normal -0.0183094 -0.928414 0.371096
    outer loop
      vertex -27.2631 21.4358 -10.4732
      vertex -27.0518 21.2568 -10.9106
      vertex -26.9443 21.1721 -11.1172
    endloop
  endfacet
  facet normal -0.0293797 -0.941472 0.335809
    outer loop
      vertex -27.2631 21.4358 -10.4732
      vertex 27.5995 21.4358 -5.67331
      vertex 27.5405 21.6783 -4.9986
    endloop
  endfacet
  facet normal 0.90043 -0.0569763 0.431254
    outer loop
      vertex -27.3005 -18.3535 -16.1335
      vertex -26.9668 -17.8468 -16.7633
      vertex -26.8948 -17.73 -16.8982
    endloop
  endfacet
  facet normal 0.903213 -0.0681358 0.42375
    outer loop
      vertex -27.3005 -18.3535 -16.1335
      vertex -27.2556 -18.2888 -16.2188
      vertex -26.9668 -17.8468 -16.7633
    endloop
  endfacet
  facet normal 0.887549 -0.0664399 0.455898
    outer loop
      vertex -27.4994 21.6166 -9.98677
      vertex -26.4628 -17.0638 -17.6419
      vertex -27.0518 21.2568 -10.9106
    endloop
  endfacet
  facet normal 0.887498 -0.0664604 0.455994
    outer loop
      vertex -27.4994 21.6166 -9.98677
      vertex -26.8948 -17.73 -16.8982
      vertex -26.4628 -17.0638 -17.6419
    endloop
  endfacet
  facet normal 0.888101 -0.0639154 0.455182
    outer loop
      vertex -27.4994 21.6166 -9.98677
      vertex -27.0518 21.2568 -10.9106
      vertex -27.2631 21.4358 -10.4732
    endloop
  endfacet
  facet normal -0.0232765 0.802383 0.596355
    outer loop
      vertex -27.5301 -18.7126 -15.6593
      vertex -27.2556 -18.2888 -16.2188
      vertex -27.3005 -18.3535 -16.1335
    endloop
  endfacet
  facet normal -0.0491105 0.826128 0.561338
    outer loop
      vertex -27.5301 -18.7126 -15.6593
      vertex 27.9959 -19.118 -10.2048
      vertex 28.0477 -18.7126 -10.7969
    endloop
  endfacet
  facet normal -0.0513446 0.808048 0.586875
    outer loop
      vertex -27.5301 -18.7126 -15.6593
      vertex 28.0477 -18.7126 -10.7969
      vertex -27.2556 -18.2888 -16.2188
    endloop
  endfacet
  facet normal -0.0293781 -0.941478 0.335793
    outer loop
      vertex -27.5742 21.6783 -9.82051
      vertex -27.2631 21.4358 -10.4732
      vertex 27.5405 21.6783 -4.9986
    endloop
  endfacet
  facet normal -0.0152415 -0.939633 0.341846
    outer loop
      vertex -27.5742 21.6783 -9.82051
      vertex -27.4994 21.6166 -9.98677
      vertex -27.2631 21.4358 -10.4732
    endloop
  endfacet
  facet normal -0.0267865 -0.9516 0.306171
    outer loop
      vertex -27.5742 21.6783 -9.82051
      vertex 27.5405 21.6783 -4.9986
      vertex 27.4808 21.8994 -4.31663
    endloop
  endfacet
  facet normal 0.913924 -0.0529388 0.402418
    outer loop
      vertex -27.6798 -18.9329 -15.3483
      vertex -27.5301 -18.7126 -15.6593
      vertex -27.3005 -18.3535 -16.1335
    endloop
  endfacet
  facet normal -0.0587185 0.82772 0.55806
    outer loop
      vertex -27.7952 -19.118 -15.0859
      vertex -27.5301 -18.7126 -15.6593
      vertex -27.6798 -18.9329 -15.3483
    endloop
  endfacet
  facet normal -0.0468284 0.843395 0.53525
    outer loop
      vertex -27.7952 -19.118 -15.0859
      vertex 27.9431 -19.5045 -9.60041
      vertex 27.9959 -19.118 -10.2048
    endloop
  endfacet
  facet normal -0.049113 0.826111 0.561363
    outer loop
      vertex -27.7952 -19.118 -15.0859
      vertex 27.9959 -19.118 -10.2048
      vertex -27.5301 -18.7126 -15.6593
    endloop
  endfacet
  facet normal -0.0267867 -0.951599 0.306173
    outer loop
      vertex -27.8732 21.8994 -9.15948
      vertex -27.5742 21.6783 -9.82051
      vertex 27.4808 21.8994 -4.31663
    endloop
  endfacet
  facet normal -0.0241698 -0.960778 0.276262
    outer loop
      vertex -27.8732 21.8994 -9.15948
      vertex 27.4808 21.8994 -4.31663
      vertex 27.4206 22.0989 -3.62808
    endloop
  endfacet
  facet normal 0.901528 -0.0613878 0.428343
    outer loop
      vertex -27.9196 21.9299 -9.05748
      vertex -26.8948 -17.73 -16.8982
      vertex -27.4994 21.6166 -9.98677
    endloop
  endfacet
  facet normal 0.901564 -0.0613725 0.428271
    outer loop
      vertex -27.9196 21.9299 -9.05748
      vertex -27.3005 -18.3535 -16.1335
      vertex -26.8948 -17.73 -16.8982
    endloop
  endfacet
  facet normal 0.901713 -0.0604059 0.428095
    outer loop
      vertex -27.9196 21.9299 -9.05748
      vertex -27.4994 21.6166 -9.98677
      vertex -27.5742 21.6783 -9.82051
    endloop
  endfacet
  facet normal 0.900766 -0.0654789 0.42934
    outer loop
      vertex -27.9196 21.9299 -9.05748
      vertex -27.5742 21.6783 -9.82051
      vertex -27.8732 21.8994 -9.15948
    endloop
  endfacet
  facet normal 0.926028 -0.0462835 0.374606
    outer loop
      vertex -28.032 -19.4747 -14.5446
      vertex -27.7952 -19.118 -15.0859
      vertex -27.6798 -18.9329 -15.3483
    endloop
  endfacet
  facet normal -0.0531766 0.844354 0.53314
    outer loop
      vertex -28.05 -19.5045 -14.4992
      vertex -27.7952 -19.118 -15.0859
      vertex -28.032 -19.4747 -14.5446
    endloop
  endfacet
  facet normal -0.0444986 0.859841 0.508619
    outer loop
      vertex -28.05 -19.5045 -14.4992
      vertex 27.8892 -19.8718 -8.98419
      vertex 27.9431 -19.5045 -9.60041
    endloop
  endfacet
  facet normal -0.0468295 0.843388 0.53526
    outer loop
      vertex -28.05 -19.5045 -14.4992
      vertex 27.9431 -19.5045 -9.60041
      vertex -27.7952 -19.118 -15.0859
    endloop
  endfacet
  facet normal -0.0241695 -0.960779 0.276259
    outer loop
      vertex -28.1573 22.0989 -8.49051
      vertex -27.8732 21.8994 -9.15948
      vertex 27.4206 22.0989 -3.62808
    endloop
  endfacet
  facet normal -0.0254365 -0.960892 0.275754
    outer loop
      vertex -28.1573 22.0989 -8.49051
      vertex -27.9196 21.9299 -9.05748
      vertex -27.8732 21.8994 -9.15948
    endloop
  endfacet
  facet normal -0.0215285 -0.969012 0.246072
    outer loop
      vertex -28.1573 22.0989 -8.49051
      vertex 27.4206 22.0989 -3.62808
      vertex 27.3598 22.2766 -2.93363
    endloop
  endfacet
  facet normal -0.0421234 0.875448 0.481473
    outer loop
      vertex -28.2873 -19.8718 -13.899
      vertex 27.8343 -20.2195 -8.35678
      vertex 27.8892 -19.8718 -8.98419
    endloop
  endfacet
  facet normal -0.0444971 0.85985 0.508604
    outer loop
      vertex -28.2873 -19.8718 -13.899
      vertex 27.8892 -19.8718 -8.98419
      vertex -28.05 -19.5045 -14.4992
    endloop
  endfacet
  facet normal 0.914686 -0.0562458 0.400233
    outer loop
      vertex -28.3118 22.1954 -8.12384
      vertex -27.3005 -18.3535 -16.1335
      vertex -27.9196 21.9299 -9.05748
    endloop
  endfacet
  facet normal 0.914649 -0.056263 0.400315
    outer loop
      vertex -28.3118 22.1954 -8.12384
      vertex -27.6798 -18.9329 -15.3483
      vertex -27.3005 -18.3535 -16.1335
    endloop
  endfacet
  facet normal 0.914817 -0.0554096 0.40005
    outer loop
      vertex -28.3118 22.1954 -8.12384
      vertex -27.9196 21.9299 -9.05748
      vertex -28.1573 22.0989 -8.49051
    endloop
  endfacet
  facet normal 0.934978 -0.0257909 0.353767
    outer loop
      vertex -28.3569 -19.9724 -13.7222
      vertex -28.05 -19.5045 -14.4992
      vertex -28.032 -19.4747 -14.5446
    endloop
  endfacet
  facet normal 0.936877 -0.037142 0.347682
    outer loop
      vertex -28.3569 -19.9724 -13.7222
      vertex -28.2873 -19.8718 -13.899
      vertex -28.05 -19.5045 -14.4992
    endloop
  endfacet
  facet normal -0.0215287 -0.969012 0.246074
    outer loop
      vertex -28.4313 22.2766 -7.81472
      vertex -28.1573 22.0989 -8.49051
      vertex 27.3598 22.2766 -2.93363
    endloop
  endfacet
  facet normal -0.0138741 -0.9684 0.249017
    outer loop
      vertex -28.4313 22.2766 -7.81472
      vertex -28.3118 22.1954 -8.12384
      vertex -28.1573 22.0989 -8.49051
    endloop
  endfacet
  facet normal -0.0188633 -0.976298 0.215609
    outer loop
      vertex -28.4313 22.2766 -7.81472
      vertex 27.3598 22.2766 -2.93363
      vertex 27.2986 22.4323 -2.23396
    endloop
  endfacet
  facet normal -0.0453083 0.875819 0.480509
    outer loop
      vertex -28.5116 -20.2195 -13.2864
      vertex -28.2873 -19.8718 -13.899
      vertex -28.3569 -19.9724 -13.7222
    endloop
  endfacet
  facet normal -0.0397012 0.890225 0.453788
    outer loop
      vertex -28.5116 -20.2195 -13.2864
      vertex 27.7784 -20.5472 -7.7188
      vertex 27.8343 -20.2195 -8.35678
    endloop
  endfacet
  facet normal -0.0421228 0.875452 0.481467
    outer loop
      vertex -28.5116 -20.2195 -13.2864
      vertex 27.8343 -20.2195 -8.35678
      vertex -28.2873 -19.8718 -13.899
    endloop
  endfacet
  facet normal 0.948792 -0.0417464 0.313131
    outer loop
      vertex -28.6541 -20.4316 -12.8829
      vertex -28.5116 -20.2195 -13.2864
      vertex -28.3569 -19.9724 -13.7222
    endloop
  endfacet
  facet normal 0.92691 -0.0510646 0.371793
    outer loop
      vertex -28.6758 22.4203 -7.18547
      vertex -27.6798 -18.9329 -15.3483
      vertex -28.3118 22.1954 -8.12384
    endloop
  endfacet
  facet normal 0.926918 -0.0510608 0.371775
    outer loop
      vertex -28.6758 22.4203 -7.18547
      vertex -28.032 -19.4747 -14.5446
      vertex -27.6798 -18.9329 -15.3483
    endloop
  endfacet
  facet normal 0.926605 -0.0533739 0.372229
    outer loop
      vertex -28.6758 22.4203 -7.18547
      vertex -28.3118 22.1954 -8.12384
      vertex -28.4313 22.2766 -7.81472
    endloop
  endfacet
  facet normal -0.0188633 -0.976298 0.215608
    outer loop
      vertex -28.6945 22.4323 -7.13272
      vertex -28.4313 22.2766 -7.81472
      vertex 27.2986 22.4323 -2.23396
    endloop
  endfacet
  facet normal -0.0252074 -0.976673 0.213246
    outer loop
      vertex -28.6945 22.4323 -7.13272
      vertex -28.6758 22.4203 -7.18547
      vertex -28.4313 22.2766 -7.81472
    endloop
  endfacet
  facet normal -0.0161739 -0.98263 0.184869
    outer loop
      vertex -28.6945 22.4323 -7.13272
      vertex 27.2986 22.4323 -2.23396
      vertex 27.237 22.5658 -1.52976
    endloop
  endfacet
  facet normal -0.0499177 0.89121 0.450836
    outer loop
      vertex -28.7238 -20.5472 -12.6621
      vertex -28.5116 -20.2195 -13.2864
      vertex -28.6541 -20.4316 -12.8829
    endloop
  endfacet
  facet normal -0.0372534 0.904046 0.425809
    outer loop
      vertex -28.7238 -20.5472 -12.6621
      vertex 27.7218 -20.8547 -7.07089
      vertex 27.7784 -20.5472 -7.7188
    endloop
  endfacet
  facet normal -0.0397015 0.890223 0.453791
    outer loop
      vertex -28.7238 -20.5472 -12.6621
      vertex 27.7784 -20.5472 -7.7188
      vertex -28.5116 -20.2195 -13.2864
    endloop
  endfacet
  facet normal 0.95704 -0.0253299 0.288848
    outer loop
      vertex -28.9233 -20.854 -12.028
      vertex -28.7238 -20.5472 -12.6621
      vertex -28.6541 -20.4316 -12.8829
    endloop
  endfacet
  facet normal 0.472771 0.725692 0.499858
    outer loop
      vertex -28.9236 -20.8547 -12.0267
      vertex -28.7238 -20.5472 -12.6621
      vertex -28.9233 -20.854 -12.028
    endloop
  endfacet
  facet normal -0.0347471 0.91709 0.397163
    outer loop
      vertex -28.9236 -20.8547 -12.0267
      vertex 27.6643 -21.1415 -6.41367
      vertex 27.7218 -20.8547 -7.07089
    endloop
  endfacet
  facet normal -0.0372524 0.904051 0.425799
    outer loop
      vertex -28.9236 -20.8547 -12.0267
      vertex 27.7218 -20.8547 -7.07089
      vertex -28.7238 -20.5472 -12.6621
    endloop
  endfacet
  facet normal -0.0161738 -0.98263 0.184868
    outer loop
      vertex -28.9395 22.5658 -6.44456
      vertex -28.6945 22.4323 -7.13272
      vertex 27.237 22.5658 -1.52976
    endloop
  endfacet
  facet normal -0.013484 -0.98796 0.154123
    outer loop
      vertex -28.9395 22.5658 -6.44456
      vertex 27.237 22.5658 -1.52976
      vertex 27.175 22.6771 -0.821731
    endloop
  endfacet
  facet normal 0.938238 -0.0458224 0.342943
    outer loop
      vertex -29.0111 22.598 -6.2444
      vertex -28.032 -19.4747 -14.5446
      vertex -28.6758 22.4203 -7.18547
    endloop
  endfacet
  facet normal 0.938241 -0.0458206 0.342935
    outer loop
      vertex -29.0111 22.598 -6.2444
      vertex -28.3569 -19.9724 -13.7222
      vertex -28.032 -19.4747 -14.5446
    endloop
  endfacet
  facet normal 0.938472 -0.0435533 0.342598
    outer loop
      vertex -29.0111 22.598 -6.2444
      vertex -28.6758 22.4203 -7.18547
      vertex -28.6945 22.4323 -7.13272
    endloop
  endfacet
  facet normal 0.938021 -0.0479137 0.343251
    outer loop
      vertex -29.0111 22.598 -6.2444
      vertex -28.6945 22.4323 -7.13272
      vertex -28.9395 22.5658 -6.44456
    endloop
  endfacet
  facet normal -0.0322257 0.92913 0.368345
    outer loop
      vertex -29.1028 -21.1415 -11.3801
      vertex 27.606 -21.4075 -5.7478
      vertex 27.6643 -21.1415 -6.41367
    endloop
  endfacet
  facet normal -0.0347457 0.917096 0.397149
    outer loop
      vertex -29.1028 -21.1415 -11.3801
      vertex 27.6643 -21.1415 -6.41367
      vertex -28.9236 -20.8547 -12.0267
    endloop
  endfacet
  facet normal 0.841225 0.370609 0.393687
    outer loop
      vertex -29.1643 -21.2321 -11.1571
      vertex -28.9236 -20.8547 -12.0267
      vertex -28.9233 -20.854 -12.028
    endloop
  endfacet
  facet normal 0.966989 -0.035211 0.252375
    outer loop
      vertex -29.1643 -21.2321 -11.1571
      vertex -29.1028 -21.1415 -11.3801
      vertex -28.9236 -20.8547 -12.0267
    endloop
  endfacet
  facet normal -0.0134842 -0.987959 0.154125
    outer loop
      vertex -29.1708 22.6771 -5.75135
      vertex -28.9395 22.5658 -6.44456
      vertex 27.175 22.6771 -0.821731
    endloop
  endfacet
  facet normal -0.0128951 -0.987937 0.154318
    outer loop
      vertex -29.1708 22.6771 -5.75135
      vertex -29.0111 22.598 -6.2444
      vertex -28.9395 22.5658 -6.44456
    endloop
  endfacet
  facet normal -0.0107824 -0.992318 0.123243
    outer loop
      vertex -29.1708 22.6771 -5.75135
      vertex 27.175 22.6771 -0.821731
      vertex 27.1128 22.7661 -0.110569
    endloop
  endfacet
  facet normal -0.0415736 0.929602 0.366212
    outer loop
      vertex -29.2686 -21.4075 -10.7237
      vertex -29.1028 -21.1415 -11.3801
      vertex -29.1643 -21.2321 -11.1571
    endloop
  endfacet
  facet normal -0.0296693 0.940275 0.33912
    outer loop
      vertex -29.2686 -21.4075 -10.7237
      vertex 27.547 -21.6524 -5.07393
      vertex 27.606 -21.4075 -5.7478
    endloop
  endfacet
  facet normal -0.0322288 0.929118 0.368376
    outer loop
      vertex -29.2686 -21.4075 -10.7237
      vertex 27.606 -21.4075 -5.7478
      vertex -29.1028 -21.1415 -11.3801
    endloop
  endfacet
  facet normal 0.948625 -0.0405424 0.313795
    outer loop
      vertex -29.3175 22.7347 -5.30047
      vertex -28.3569 -19.9724 -13.7222
      vertex -29.0111 22.598 -6.2444
    endloop
  endfacet
  facet normal 0.948642 -0.0405317 0.313743
    outer loop
      vertex -29.3175 22.7347 -5.30047
      vertex -28.6541 -20.4316 -12.8829
      vertex -28.3569 -19.9724 -13.7222
    endloop
  endfacet
  facet normal 0.94847 -0.042417 0.314016
    outer loop
      vertex -29.3175 22.7347 -5.30047
      vertex -29.0111 22.598 -6.2444
      vertex -29.1708 22.6771 -5.75135
    endloop
  endfacet
  facet normal 0.974139 -0.0241534 0.224657
    outer loop
      vertex -29.3768 -21.5737 -10.2724
      vertex -29.2686 -21.4075 -10.7237
      vertex -29.1643 -21.2321 -11.1571
    endloop
  endfacet
  facet normal -0.0107824 -0.992318 0.123243
    outer loop
      vertex -29.3895 22.7661 -5.05388
      vertex -29.1708 22.6771 -5.75135
      vertex 27.1128 22.7661 -0.110569
    endloop
  endfacet
  facet normal -0.0122867 -0.992358 0.122776
    outer loop
      vertex -29.3895 22.7661 -5.05388
      vertex -29.3175 22.7347 -5.30047
      vertex -29.1708 22.6771 -5.75135
    endloop
  endfacet
  facet normal -0.00804453 -0.995731 0.0919494
    outer loop
      vertex -29.3895 22.7661 -5.05388
      vertex 27.1128 22.7661 -0.110569
      vertex 27.0504 22.8325 0.603025
    endloop
  endfacet
  facet normal -0.0326436 0.940402 0.338495
    outer loop
      vertex -29.4208 -21.6524 -10.058
      vertex -29.2686 -21.4075 -10.7237
      vertex -29.3768 -21.5737 -10.2724
    endloop
  endfacet
  facet normal -0.0270777 0.950515 0.309497
    outer loop
      vertex -29.4208 -21.6524 -10.058
      vertex 27.4874 -21.8759 -4.39274
      vertex 27.547 -21.6524 -5.07393
    endloop
  endfacet
  facet normal -0.02967 0.940273 0.339127
    outer loop
      vertex -29.4208 -21.6524 -10.058
      vertex 27.547 -21.6524 -5.07393
      vertex -29.2686 -21.4075 -10.7237
    endloop
  endfacet
  facet normal -0.0244609 0.959808 0.279589
    outer loop
      vertex -29.5587 -21.8759 -9.38363
      vertex 27.4273 -22.0778 -3.70489
      vertex 27.4874 -21.8759 -4.39274
    endloop
  endfacet
  facet normal -0.0270764 0.950519 0.309485
    outer loop
      vertex -29.5587 -21.8759 -9.38363
      vertex 27.4874 -21.8759 -4.39274
      vertex -29.4208 -21.6524 -10.058
    endloop
  endfacet
  facet normal 0.980808 -0.0199883 0.193948
    outer loop
      vertex -29.5605 -21.8785 -9.37483
      vertex -29.4208 -21.6524 -10.058
      vertex -29.3768 -21.5737 -10.2724
    endloop
  endfacet
  facet normal 0.979621 0.00158804 0.200846
    outer loop
      vertex -29.5605 -21.8785 -9.37483
      vertex -29.5587 -21.8759 -9.38363
      vertex -29.4208 -21.6524 -10.058
    endloop
  endfacet
  facet normal 0.958087 -0.0352154 0.284304
    outer loop
      vertex -29.5947 22.8324 -4.35422
      vertex -28.6541 -20.4316 -12.8829
      vertex -29.3175 22.7347 -5.30047
    endloop
  endfacet
  facet normal 0.95809 -0.0352136 0.284295
    outer loop
      vertex -29.5947 22.8324 -4.35422
      vertex -28.9233 -20.854 -12.028
      vertex -28.6541 -20.4316 -12.8829
    endloop
  endfacet
  facet normal 0.957891 -0.038304 0.284565
    outer loop
      vertex -29.5947 22.8324 -4.35422
      vertex -29.3175 22.7347 -5.30047
      vertex -29.3895 22.7661 -5.05388
    endloop
  endfacet
  facet normal -0.00804459 -0.995731 0.09195
    outer loop
      vertex -29.595 22.8325 -4.35281
      vertex -29.3895 22.7661 -5.05388
      vertex 27.0504 22.8325 0.603025
    endloop
  endfacet
  facet normal -0.283869 -0.958833 0.00760461
    outer loop
      vertex -29.595 22.8325 -4.35281
      vertex -29.5947 22.8324 -4.35422
      vertex -29.3895 22.7661 -5.05388
    endloop
  endfacet
  facet normal -0.00531852 -0.998136 0.0607909
    outer loop
      vertex -29.595 22.8325 -4.35281
      vertex 27.0504 22.8325 0.603025
      vertex 26.9878 22.8764 1.31835
    endloop
  endfacet
  facet normal 0.00529964 0.958709 0.284339
    outer loop
      vertex -29.6752 -22.0778 -8.70071
      vertex -29.5587 -21.8759 -9.38363
      vertex -29.5605 -21.8785 -9.37483
    endloop
  endfacet
  facet normal -0.0218196 0.968155 0.249399
    outer loop
      vertex -29.6752 -22.0778 -8.70071
      vertex 27.3666 -22.2579 -3.01106
      vertex 27.4273 -22.0778 -3.70489
    endloop
  endfacet
  facet normal -0.0244607 0.959809 0.279587
    outer loop
      vertex -29.6752 -22.0778 -8.70071
      vertex 27.4273 -22.0778 -3.70489
      vertex -29.5587 -21.8759 -9.38363
    endloop
  endfacet
  facet normal 0.986092 -0.00566888 0.166105
    outer loop
      vertex -29.7154 -22.1396 -8.46417
      vertex -29.6752 -22.0778 -8.70071
      vertex -29.5605 -21.8785 -9.37483
    endloop
  endfacet
  facet normal 0.0858317 0.173648 -0.98106
    outer loop
      vertex -29.7377 -22.687 0.51781
      vertex 25.9665 20.256 12.9922
      vertex 26.6264 -22.687 5.44903
    endloop
  endfacet
  facet normal 0.0107824 0.992318 -0.123244
    outer loop
      vertex -29.7377 -22.687 0.51781
      vertex 26.6264 -22.687 5.44903
      vertex 26.6817 -22.7661 4.81698
    endloop
  endfacet
  facet normal -0.0146676 0.968026 0.25042
    outer loop
      vertex -29.7774 -22.2579 -8.0105
      vertex -29.6752 -22.0778 -8.70071
      vertex -29.7154 -22.1396 -8.46417
    endloop
  endfacet
  facet normal -0.0191656 0.975522 0.219065
    outer loop
      vertex -29.7774 -22.2579 -8.0105
      vertex 27.3054 -22.4161 -2.31193
      vertex 27.3666 -22.2579 -3.01106
    endloop
  endfacet
  facet normal -0.0218192 0.968156 0.249395
    outer loop
      vertex -29.7774 -22.2579 -8.0105
      vertex 27.3666 -22.2579 -3.01106
      vertex -29.6752 -22.0778 -8.70071
    endloop
  endfacet
  facet normal -0.00531849 -0.998136 0.0607906
    outer loop
      vertex -29.7792 22.8764 -3.64812
      vertex -29.595 22.8325 -4.35281
      vertex 26.9878 22.8764 1.31835
    endloop
  endfacet
  facet normal -0.00259263 -0.999557 0.0296339
    outer loop
      vertex -29.7792 22.8764 -3.64812
      vertex 26.9878 22.8764 1.31835
      vertex 26.9251 22.8978 2.03469
    endloop
  endfacet
  facet normal 0.0107824 0.992318 -0.123244
    outer loop
      vertex -29.8206 -22.7661 -0.126331
      vertex -29.7377 -22.687 0.51781
      vertex 26.6817 -22.7661 4.81698
    endloop
  endfacet
  facet normal 0.00887625 0.992366 -0.123004
    outer loop
      vertex -29.8206 -22.7661 -0.126331
      vertex -29.7925 -22.7347 0.129024
      vertex -29.7377 -22.687 0.51781
    endloop
  endfacet
  facet normal 0.00804447 0.995731 -0.0919487
    outer loop
      vertex -29.8206 -22.7661 -0.126331
      vertex 26.6817 -22.7661 4.81698
      vertex 26.7441 -22.8325 4.10338
    endloop
  endfacet
  facet normal 0.991074 -0.00946777 0.132975
    outer loop
      vertex -29.8412 -22.3642 -7.54256
      vertex -29.7774 -22.2579 -8.0105
      vertex -29.7154 -22.1396 -8.46417
    endloop
  endfacet
  facet normal 0.966608 -0.0298513 0.254513
    outer loop
      vertex -29.8423 22.8837 -3.40785
      vertex -28.9233 -20.854 -12.028
      vertex -29.5947 22.8324 -4.35422
    endloop
  endfacet
  facet normal 0.966606 -0.0298534 0.254523
    outer loop
      vertex -29.8423 22.8837 -3.40785
      vertex -29.1643 -21.2321 -11.1571
      vertex -28.9233 -20.854 -12.028
    endloop
  endfacet
  facet normal 0.320698 -0.937551 0.134727
    outer loop
      vertex -29.8423 22.8837 -3.40785
      vertex -29.5947 22.8324 -4.35422
      vertex -29.595 22.8325 -4.35281
    endloop
  endfacet
  facet normal 0.966253 -0.0372304 0.25489
    outer loop
      vertex -29.8423 22.8837 -3.40785
      vertex -29.595 22.8325 -4.35281
      vertex -29.7792 22.8764 -3.64812
    endloop
  endfacet
  facet normal -0.011887 0.975435 0.219965
    outer loop
      vertex -29.8649 -22.4161 -7.31369
      vertex -29.7774 -22.2579 -8.0105
      vertex -29.8412 -22.3642 -7.54256
    endloop
  endfacet
  facet normal -0.0164769 0.981967 0.188331
    outer loop
      vertex -29.8649 -22.4161 -7.31369
      vertex 27.2438 -22.5521 -1.60821
      vertex 27.3054 -22.4161 -2.31193
    endloop
  endfacet
  facet normal -0.0191662 0.975521 0.21907
    outer loop
      vertex -29.8649 -22.4161 -7.31369
      vertex 27.3054 -22.4161 -2.31193
      vertex -29.7774 -22.2579 -8.0105
    endloop
  endfacet
  facet normal 0.00804452 0.995731 -0.0919494
    outer loop
      vertex -29.9013 -22.8325 -0.852445
      vertex -29.8206 -22.7661 -0.126331
      vertex 26.7441 -22.8325 4.10338
    endloop
  endfacet
  facet normal -0.644857 -0.751303 0.140372
    outer loop
      vertex -29.9013 -22.8325 -0.852445
      vertex -29.9011 -22.8324 -0.850991
      vertex -29.8206 -22.7661 -0.126331
    endloop
  endfacet
  facet normal 0.00531855 0.998136 -0.0607913
    outer loop
      vertex -29.9013 -22.8325 -0.852445
      vertex 26.7441 -22.8325 4.10338
      vertex 26.8067 -22.8764 3.38806
    endloop
  endfacet
  facet normal 0.994651 0.00126483 0.103285
    outer loop
      vertex -29.9377 -22.5521 -6.61095
      vertex -29.8649 -22.4161 -7.31369
      vertex -29.8412 -22.3642 -7.54256
    endloop
  endfacet
  facet normal -0.0164769 0.981967 0.188331
    outer loop
      vertex -29.9377 -22.5521 -6.61095
      vertex 27.2438 -22.5521 -1.60821
      vertex -29.8649 -22.4161 -7.31369
    endloop
  endfacet
  facet normal -0.00259262 -0.999557 0.0296338
    outer loop
      vertex -29.9495 22.8978 -2.94119
      vertex -29.7792 22.8764 -3.64812
      vertex 26.9251 22.8978 2.03469
    endloop
  endfacet
  facet normal -0.00509658 -0.999566 0.0290308
    outer loop
      vertex -29.9495 22.8978 -2.94119
      vertex -29.8423 22.8837 -3.40785
      vertex -29.7792 22.8764 -3.64812
    endloop
  endfacet
  facet normal 0.000157498 -0.999998 -0.00180021
    outer loop
      vertex -29.9495 22.8978 -2.94119
      vertex 26.9251 22.8978 2.03469
      vertex 26.8624 22.8965 2.75134
    endloop
  endfacet
  facet normal 0.145808 -0.988152 0.0479048
    outer loop
      vertex -29.9603 -22.8764 -1.57841
      vertex -29.9011 -22.8324 -0.850991
      vertex -29.9013 -22.8325 -0.852445
    endloop
  endfacet
  facet normal 0.00531851 0.998136 -0.0607908
    outer loop
      vertex -29.9603 -22.8764 -1.57841
      vertex -29.9013 -22.8325 -0.852445
      vertex 26.8067 -22.8764 3.38806
    endloop
  endfacet
  facet normal 0.00259263 0.999557 -0.0296339
    outer loop
      vertex -29.9603 -22.8764 -1.57841
      vertex 26.8067 -22.8764 3.38806
      vertex 26.8694 -22.8978 2.67172
    endloop
  endfacet
  facet normal -0.0137869 0.987409 0.157585
    outer loop
      vertex -29.9884 -22.6659 -5.90232
      vertex 27.1819 -22.6659 -0.900569
      vertex 27.2438 -22.5521 -1.60821
    endloop
  endfacet
  facet normal -0.0137868 0.987409 0.157583
    outer loop
      vertex -29.9884 -22.6659 -5.90232
      vertex 27.2438 -22.5521 -1.60821
      vertex -29.9377 -22.5521 -6.61095
    endloop
  endfacet
  facet normal 0.997444 0.000514485 0.0714463
    outer loop
      vertex -30.0051 -22.6958 -5.66896
      vertex -29.9884 -22.6659 -5.90232
      vertex -29.9377 -22.5521 -6.61095
    endloop
  endfacet
  facet normal 0.00259265 0.999557 -0.0296341
    outer loop
      vertex -30.0052 -22.8978 -2.30416
      vertex -29.9603 -22.8764 -1.57841
      vertex 26.8694 -22.8978 2.67172
    endloop
  endfacet
  facet normal 6.23136e-06 0.999566 -0.0294743
    outer loop
      vertex -30.0052 -22.8978 -2.30416
      vertex -29.9807 -22.8837 -1.82598
      vertex -29.9603 -22.8764 -1.57841
    endloop
  endfacet
  facet normal -0.000157498 0.999998 0.00180021
    outer loop
      vertex -30.0052 -22.8978 -2.30416
      vertex 26.8694 -22.8978 2.67172
      vertex 26.9321 -22.8965 1.95507
    endloop
  endfacet
  facet normal 0.0016513 0.991875 0.127205
    outer loop
      vertex -30.0242 -22.7573 -5.18917
      vertex -29.9884 -22.6659 -5.90232
      vertex -30.0051 -22.6958 -5.66896
    endloop
  endfacet
  facet normal -0.0110733 0.991896 0.126568
    outer loop
      vertex -30.0242 -22.7573 -5.18917
      vertex 27.1197 -22.7573 -0.18972
      vertex 27.1819 -22.6659 -0.900569
    endloop
  endfacet
  facet normal -0.0110734 0.991896 0.126569
    outer loop
      vertex -30.0242 -22.7573 -5.18917
      vertex 27.1819 -22.6659 -0.900569
      vertex -29.9884 -22.6659 -5.90232
    endloop
  endfacet
  facet normal 0.998354 0.0244524 -0.0518726
    outer loop
      vertex -30.0308 -22.8969 -2.79644
      vertex -29.9807 -22.8837 -1.82598
      vertex -30.0052 -22.8978 -2.30416
    endloop
  endfacet
  facet normal -0.000157497 0.999998 0.0018002
    outer loop
      vertex -30.0357 -22.8965 -3.02897
      vertex -30.0052 -22.8978 -2.30416
      vertex 26.9321 -22.8965 1.95507
    endloop
  endfacet
  facet normal 0.00349232 0.999993 0.0016466
    outer loop
      vertex -30.0357 -22.8965 -3.02897
      vertex -30.0308 -22.8969 -2.79644
      vertex -30.0052 -22.8978 -2.30416
    endloop
  endfacet
  facet normal -0.00288337 0.999453 0.0329571
    outer loop
      vertex -30.0357 -22.8965 -3.02897
      vertex 26.9321 -22.8965 1.95507
      vertex 26.9948 -22.8727 1.2388
    endloop
  endfacet
  facet normal 0.99908 0.0116894 0.0412708
    outer loop
      vertex -30.0431 -22.8026 -4.71881
      vertex -30.0242 -22.7573 -5.18917
      vertex -30.0051 -22.6958 -5.66896
    endloop
  endfacet
  facet normal -0.0194645 0.99528 0.0950725
    outer loop
      vertex -30.0452 -22.8262 -4.47218
      vertex -30.0242 -22.7573 -5.18917
      vertex -30.0431 -22.8026 -4.71881
    endloop
  endfacet
  facet normal -0.0083474 0.995403 0.0954113
    outer loop
      vertex -30.0452 -22.8262 -4.47218
      vertex 27.0573 -22.8262 0.523638
      vertex 27.1197 -22.7573 -0.18972
    endloop
  endfacet
  facet normal -0.0083473 0.995403 0.0954099
    outer loop
      vertex -30.0452 -22.8262 -4.47218
      vertex 27.1197 -22.7573 -0.18972
      vertex -30.0242 -22.7573 -5.18917
    endloop
  endfacet
  facet normal 0.999569 0.0204742 -0.0210283
    outer loop
      vertex -30.0514 -22.8727 -3.75209
      vertex -30.0308 -22.8969 -2.79644
      vertex -30.0357 -22.8965 -3.02897
    endloop
  endfacet
  facet normal -0.00288341 0.999453 0.0329575
    outer loop
      vertex -30.0514 -22.8727 -3.75209
      vertex -30.0357 -22.8965 -3.02897
      vertex 26.9948 -22.8727 1.2388
    endloop
  endfacet
  facet normal -0.00563356 0.997909 0.0643919
    outer loop
      vertex -30.0514 -22.8727 -3.75209
      vertex 26.9948 -22.8727 1.2388
      vertex 27.0573 -22.8262 0.523638
    endloop
  endfacet
  facet normal -0.00563354 0.997909 0.0643917
    outer loop
      vertex -30.0514 -22.8727 -3.75209
      vertex 27.0573 -22.8262 0.523638
      vertex -30.0452 -22.8262 -4.47218
    endloop
  endfacet
  facet normal 0.999761 -0.00307173 -0.0216287
    outer loop
      vertex -30.0516 -22.8721 -3.76142
      vertex -30.0308 -22.8969 -2.79644
      vertex -30.0514 -22.8727 -3.75209
    endloop
  endfacet
  facet normal 0.999826 0.0157365 0.0100191
    outer loop
      vertex -30.0516 -22.8721 -3.76142
      vertex -30.0452 -22.8262 -4.47218
      vertex -30.0431 -22.8026 -4.71881
    endloop
  endfacet
  facet normal -0.00885357 0.997887 0.0643626
    outer loop
      vertex -30.0516 -22.8721 -3.76142
      vertex -30.0514 -22.8727 -3.75209
      vertex -30.0452 -22.8262 -4.47218
    endloop
  endfacet
  facet normal 0.974169 -0.024462 0.224492
    outer loop
      vertex -30.0602 22.8969 -2.46085
      vertex -29.1643 -21.2321 -11.1571
      vertex -29.8423 22.8837 -3.40785
    endloop
  endfacet
  facet normal 0.974158 -0.0244713 0.224538
    outer loop
      vertex -30.0602 22.8969 -2.46085
      vertex -29.3768 -21.5737 -10.2724
      vertex -29.1643 -21.2321 -11.1571
    endloop
  endfacet
  facet normal 0.974217 -0.0225939 0.224477
    outer loop
      vertex -30.0602 22.8969 -2.46085
      vertex -29.8423 22.8837 -3.40785
      vertex -29.9495 22.8978 -2.94119
    endloop
  endfacet
  facet normal 0.000157497 -0.999998 -0.0018002
    outer loop
      vertex -30.1054 22.8965 -2.23269
      vertex -29.9495 22.8978 -2.94119
      vertex 26.8624 22.8965 2.75134
    endloop
  endfacet
  facet normal 0.00372479 -0.999993 -0.00101524
    outer loop
      vertex -30.1054 22.8965 -2.23269
      vertex -30.0602 22.8969 -2.46085
      vertex -29.9495 22.8978 -2.94119
    endloop
  endfacet
  facet normal 0.0028834 -0.999453 -0.0329575
    outer loop
      vertex -30.1054 22.8965 -2.23269
      vertex 26.8624 22.8965 2.75134
      vertex 26.7998 22.8727 3.46761
    endloop
  endfacet
  facet normal 0.980746 -0.0200531 0.194257
    outer loop
      vertex -30.2464 22.8727 -1.52328
      vertex -30.0602 22.8969 -2.46085
      vertex -30.1054 22.8965 -2.23269
    endloop
  endfacet
  facet normal 0.00288341 -0.999453 -0.0329575
    outer loop
      vertex -30.2464 22.8727 -1.52328
      vertex -30.1054 22.8965 -2.23269
      vertex 26.7998 22.8727 3.46761
    endloop
  endfacet
  facet normal 0.0056335 -0.997909 -0.0643913
    outer loop
      vertex -30.2464 22.8727 -1.52328
      vertex 26.7998 22.8727 3.46761
      vertex 26.7372 22.8262 4.18277
    endloop
  endfacet
  facet normal 0.980765 -0.0190514 0.194262
    outer loop
      vertex -30.2482 22.8721 -1.51413
      vertex -29.3768 -21.5737 -10.2724
      vertex -30.0602 22.8969 -2.46085
    endloop
  endfacet
  facet normal 0.980766 -0.0190507 0.194258
    outer loop
      vertex -30.2482 22.8721 -1.51413
      vertex -29.5605 -21.8785 -9.37483
      vertex -29.3768 -21.5737 -10.2724
    endloop
  endfacet
  facet normal 0.979566 0.0462456 0.195734
    outer loop
      vertex -30.2482 22.8721 -1.51413
      vertex -30.0602 22.8969 -2.46085
      vertex -30.2464 22.8727 -1.52328
    endloop
  endfacet
  facet normal 0.00563354 -0.997909 -0.0643917
    outer loop
      vertex -30.3653 22.8262 -0.81305
      vertex -30.2464 22.8727 -1.52328
      vertex 26.7372 22.8262 4.18277
    endloop
  endfacet
  facet normal 0.00347337 -0.997895 -0.0647525
    outer loop
      vertex -30.3653 22.8262 -0.81305
      vertex -30.2482 22.8721 -1.51413
      vertex -30.2464 22.8727 -1.52328
    endloop
  endfacet
  facet normal 0.00834738 -0.995403 -0.095411
    outer loop
      vertex -30.3653 22.8262 -0.81305
      vertex 26.7372 22.8262 4.18277
      vertex 26.6748 22.7573 4.89613
    endloop
  endfacet
  facet normal 0.0858313 0.173648 -0.98106
    outer loop
      vertex -30.3976 20.256 8.061
      vertex 25.9665 20.256 12.9922
      vertex -29.7377 -22.687 0.51781
    endloop
  endfacet
  facet normal 0.0396971 -0.890249 -0.453742
    outer loop
      vertex -30.3976 20.256 8.061
      vertex 26.0161 20.5472 12.4252
      vertex 25.9665 20.256 12.9922
    endloop
  endfacet
  facet normal 0.986378 -0.0136368 0.163928
    outer loop
      vertex -30.4061 22.8026 -0.569802
      vertex -29.5605 -21.8785 -9.37483
      vertex -30.2482 22.8721 -1.51413
    endloop
  endfacet
  facet normal 0.986387 -0.0136261 0.163874
    outer loop
      vertex -30.4061 22.8026 -0.569802
      vertex -29.7154 -22.1396 -8.46417
      vertex -29.5605 -21.8785 -9.37483
    endloop
  endfacet
  facet normal 0.986331 -0.0219475 0.163308
    outer loop
      vertex -30.4061 22.8026 -0.569802
      vertex -30.2482 22.8721 -1.51413
      vertex -30.3653 22.8262 -0.81305
    endloop
  endfacet
  facet normal 0.988698 0.0405477 -0.144333
    outer loop
      vertex -30.4559 20.4316 7.71143
      vertex -29.7377 -22.687 0.51781
      vertex -29.7925 -22.7347 0.129024
    endloop
  endfacet
  facet normal 0.988672 0.0405759 -0.144505
    outer loop
      vertex -30.4559 20.4316 7.71143
      vertex -30.3976 20.256 8.061
      vertex -29.7377 -22.687 0.51781
    endloop
  endfacet
  facet normal 0.00834733 -0.995403 -0.0954105
    outer loop
      vertex -30.4692 22.7573 -0.103317
      vertex -30.3653 22.8262 -0.81305
      vertex 26.6748 22.7573 4.89613
    endloop
  endfacet
  facet normal -0.00272577 -0.995279 -0.0970195
    outer loop
      vertex -30.4692 22.7573 -0.103317
      vertex -30.4061 22.8026 -0.569802
      vertex -30.3653 22.8262 -0.81305
    endloop
  endfacet
  facet normal 0.0110732 -0.991896 -0.126568
    outer loop
      vertex -30.4692 22.7573 -0.103317
      vertex 26.6748 22.7573 4.89613
      vertex 26.6126 22.6659 5.60698
    endloop
  endfacet
  facet normal 0.0334745 -0.890841 -0.45308
    outer loop
      vertex -30.4862 20.5472 7.4819
      vertex -30.3976 20.256 8.061
      vertex -30.4559 20.4316 7.71143
    endloop
  endfacet
  facet normal 0.0396967 -0.890252 -0.453736
    outer loop
      vertex -30.4862 20.5472 7.4819
      vertex 26.0161 20.5472 12.4252
      vertex -30.3976 20.256 8.061
    endloop
  endfacet
  facet normal 0.0372534 -0.904046 -0.425809
    outer loop
      vertex -30.4862 20.5472 7.4819
      vertex 26.0728 20.8547 11.7773
      vertex 26.0161 20.5472 12.4252
    endloop
  endfacet
  facet normal 0.991046 -0.00817913 0.133273
    outer loop
      vertex -30.5337 22.6958 0.372506
      vertex -29.7154 -22.1396 -8.46417
      vertex -30.4061 22.8026 -0.569802
    endloop
  endfacet
  facet normal 0.991044 -0.00818138 0.133284
    outer loop
      vertex -30.5337 22.6958 0.372506
      vertex -29.8412 -22.3642 -7.54256
      vertex -29.7154 -22.1396 -8.46417
    endloop
  endfacet
  facet normal 0.99105 -0.00887011 0.133195
    outer loop
      vertex -30.5337 22.6958 0.372506
      vertex -30.4061 22.8026 -0.569802
      vertex -30.4692 22.7573 -0.103317
    endloop
  endfacet
  facet normal 0.0110734 -0.991896 -0.126569
    outer loop
      vertex -30.5577 22.6659 0.605224
      vertex -30.4692 22.7573 -0.103317
      vertex 26.6126 22.6659 5.60698
    endloop
  endfacet
  facet normal 0.0234945 -0.991877 -0.125015
    outer loop
      vertex -30.5577 22.6659 0.605224
      vertex -30.5337 22.6958 0.372506
      vertex -30.4692 22.7573 -0.103317
    endloop
  endfacet
  facet normal 0.0137869 -0.987409 -0.157585
    outer loop
      vertex -30.5577 22.6659 0.605224
      vertex 26.6126 22.6659 5.60698
      vertex 26.5507 22.5521 6.31462
    endloop
  endfacet
  facet normal 0.992903 0.0352114 -0.113592
    outer loop
      vertex -30.5725 20.854 6.82279
      vertex -29.7925 -22.7347 0.129024
      vertex -29.8206 -22.7661 -0.126331
    endloop
  endfacet
  facet normal 0.992912 0.0352001 -0.11352
    outer loop
      vertex -30.5725 20.854 6.82279
      vertex -29.8206 -22.7661 -0.126331
      vertex -29.9011 -22.8324 -0.850991
    endloop
  endfacet
  facet normal 0.992909 0.0352047 -0.113547
    outer loop
      vertex -30.5725 20.854 6.82279
      vertex -30.4559 20.4316 7.71143
      vertex -29.7925 -22.7347 0.129024
    endloop
  endfacet
  facet normal 0.992742 0.0279586 -0.11697
    outer loop
      vertex -30.5725 20.854 6.82279
      vertex -30.4862 20.5472 7.4819
      vertex -30.4559 20.4316 7.71143
    endloop
  endfacet
  facet normal 0.706703 -0.601501 -0.372516
    outer loop
      vertex -30.5726 20.8547 6.82147
      vertex -30.4862 20.5472 7.4819
      vertex -30.5725 20.854 6.82279
    endloop
  endfacet
  facet normal 0.037253 -0.904048 -0.425804
    outer loop
      vertex -30.5726 20.8547 6.82147
      vertex 26.0728 20.8547 11.7773
      vertex -30.4862 20.5472 7.4819
    endloop
  endfacet
  facet normal 0.0347481 -0.917086 -0.397173
    outer loop
      vertex -30.5726 20.8547 6.82147
      vertex 26.1303 21.1415 11.1201
      vertex 26.0728 20.8547 11.7773
    endloop
  endfacet
  facet normal 0.994728 -0.00271943 0.102512
    outer loop
      vertex -30.6309 22.5521 1.31188
      vertex -29.8412 -22.3642 -7.54256
      vertex -30.5337 22.6958 0.372506
    endloop
  endfacet
  facet normal 0.99473 -0.00271524 0.102491
    outer loop
      vertex -30.6309 22.5521 1.31188
      vertex -29.9377 -22.5521 -6.61095
      vertex -29.8412 -22.3642 -7.54256
    endloop
  endfacet
  facet normal 0.994809 -0.0139744 0.100798
    outer loop
      vertex -30.6309 22.5521 1.31188
      vertex -30.5337 22.6958 0.372506
      vertex -30.5577 22.6659 0.605224
    endloop
  endfacet
  facet normal 0.0137868 -0.987409 -0.157584
    outer loop
      vertex -30.6309 22.5521 1.31188
      vertex -30.5577 22.6659 0.605224
      vertex 26.5507 22.5521 6.31462
    endloop
  endfacet
  facet normal 0.0347477 -0.917088 -0.397167
    outer loop
      vertex -30.6368 21.1415 6.15361
      vertex 26.1303 21.1415 11.1201
      vertex -30.5726 20.8547 6.82147
    endloop
  endfacet
  facet normal 0.0322252 -0.929134 -0.368335
    outer loop
      vertex -30.6368 21.1415 6.15361
      vertex 26.1885 21.4075 10.4542
      vertex 26.1303 21.1415 11.1201
    endloop
  endfacet
  facet normal 0.996112 0.0298644 -0.0828737
    outer loop
      vertex -30.6586 21.2321 5.92322
      vertex -29.9011 -22.8324 -0.850991
      vertex -29.9603 -22.8764 -1.57841
    endloop
  endfacet
  facet normal 0.996105 0.0298791 -0.082961
    outer loop
      vertex -30.6586 21.2321 5.92322
      vertex -29.9603 -22.8764 -1.57841
      vertex -29.9807 -22.8837 -1.82598
    endloop
  endfacet
  facet normal 0.996119 0.0298522 -0.0827937
    outer loop
      vertex -30.6586 21.2321 5.92322
      vertex -30.5725 20.854 6.82279
      vertex -29.9011 -22.8324 -0.850991
    endloop
  endfacet
  facet normal 0.970149 -0.176006 -0.166833
    outer loop
      vertex -30.6586 21.2321 5.92322
      vertex -30.5726 20.8547 6.82147
      vertex -30.5725 20.854 6.82279
    endloop
  endfacet
  facet normal 0.996095 0.0414505 -0.0779524
    outer loop
      vertex -30.6586 21.2321 5.92322
      vertex -30.6368 21.1415 6.15361
      vertex -30.5726 20.8547 6.82147
    endloop
  endfacet
  facet normal 0.0164768 -0.981967 -0.188331
    outer loop
      vertex -30.6812 22.4161 2.01659
      vertex -30.6309 22.5521 1.31188
      vertex 26.5507 22.5521 6.31462
    endloop
  endfacet
  facet normal 0.0164769 -0.981967 -0.188331
    outer loop
      vertex -30.6812 22.4161 2.01659
      vertex 26.5507 22.5521 6.31462
      vertex 26.4891 22.4161 7.01834
    endloop
  endfacet
  facet normal 0.0285667 -0.929325 -0.368157
    outer loop
      vertex -30.6861 21.4075 5.47833
      vertex -30.6368 21.1415 6.15361
      vertex -30.6586 21.2321 5.92322
    endloop
  endfacet
  facet normal 0.0322261 -0.92913 -0.368347
    outer loop
      vertex -30.6861 21.4075 5.47833
      vertex 26.1885 21.4075 10.4542
      vertex -30.6368 21.1415 6.15361
    endloop
  endfacet
  facet normal 0.0296695 -0.940273 -0.339125
    outer loop
      vertex -30.6861 21.4075 5.47833
      vertex 26.2475 21.6524 9.78034
      vertex 26.1885 21.4075 10.4542
    endloop
  endfacet
  facet normal 0.997418 0.00272422 0.0717593
    outer loop
      vertex -30.6976 22.3642 2.24611
      vertex -29.9377 -22.5521 -6.61095
      vertex -30.6309 22.5521 1.31188
    endloop
  endfacet
  facet normal 0.997417 0.00271996 0.0717807
    outer loop
      vertex -30.6976 22.3642 2.24611
      vertex -30.0051 -22.6958 -5.66896
      vertex -29.9377 -22.5521 -6.61095
    endloop
  endfacet
  facet normal 0.997491 -0.00230551 0.0707529
    outer loop
      vertex -30.6976 22.3642 2.24611
      vertex -30.6309 22.5521 1.31188
      vertex -30.6812 22.4161 2.01659
    endloop
  endfacet
  facet normal 0.998354 0.0244562 -0.0518727
    outer loop
      vertex -30.7143 21.5737 5.01509
      vertex -29.9807 -22.8837 -1.82598
      vertex -30.0308 -22.8969 -2.79644
    endloop
  endfacet
  facet normal 0.999597 0.0190622 -0.0210563
    outer loop
      vertex -30.7143 21.5737 5.01509
      vertex -30.0308 -22.8969 -2.79644
      vertex -30.0516 -22.8721 -3.76142
    endloop
  endfacet
  facet normal 0.998346 0.0244795 -0.0520252
    outer loop
      vertex -30.7143 21.5737 5.01509
      vertex -30.6586 21.2321 5.92322
      vertex -29.9807 -22.8837 -1.82598
    endloop
  endfacet
  facet normal 0.998334 0.0263801 -0.0513096
    outer loop
      vertex -30.7143 21.5737 5.01509
      vertex -30.6861 21.4075 5.47833
      vertex -30.6586 21.2321 5.92322
    endloop
  endfacet
  facet normal 0.0191659 -0.975521 -0.219068
    outer loop
      vertex -30.716 22.2579 2.71802
      vertex -30.6812 22.4161 2.01659
      vertex 26.4891 22.4161 7.01834
    endloop
  endfacet
  facet normal 0.0261196 -0.975441 -0.218704
    outer loop
      vertex -30.716 22.2579 2.71802
      vertex -30.6976 22.3642 2.24611
      vertex -30.6812 22.4161 2.01659
    endloop
  endfacet
  facet normal 0.0191657 -0.975522 -0.219065
    outer loop
      vertex -30.716 22.2579 2.71802
      vertex 26.4891 22.4161 7.01834
      vertex 26.4279 22.2579 7.71747
    endloop
  endfacet
  facet normal 0.0269285 -0.94039 -0.33903
    outer loop
      vertex -30.7204 21.6524 4.79631
      vertex -30.6861 21.4075 5.47833
      vertex -30.7143 21.5737 5.01509
    endloop
  endfacet
  facet normal 0.0296696 -0.940273 -0.339126
    outer loop
      vertex -30.7204 21.6524 4.79631
      vertex 26.2475 21.6524 9.78034
      vertex -30.6861 21.4075 5.47833
    endloop
  endfacet
  facet normal 0.0270774 -0.950515 -0.309497
    outer loop
      vertex -30.7204 21.6524 4.79631
      vertex 26.3071 21.8759 9.09915
      vertex 26.2475 21.6524 9.78034
    endloop
  endfacet
  facet normal 0.999134 0.00819081 0.0407858
    outer loop
      vertex -30.7337 22.1396 3.17556
      vertex -30.0051 -22.6958 -5.66896
      vertex -30.6976 22.3642 2.24611
    endloop
  endfacet
  facet normal 0.999131 0.00817266 0.0408776
    outer loop
      vertex -30.7337 22.1396 3.17556
      vertex -30.0431 -22.8026 -4.71881
      vertex -30.0051 -22.6958 -5.66896
    endloop
  endfacet
  facet normal 0.999116 0.00916086 0.0410196
    outer loop
      vertex -30.7337 22.1396 3.17556
      vertex -30.6976 22.3642 2.24611
      vertex -30.716 22.2579 2.71802
    endloop
  endfacet
  facet normal 0.0218194 -0.968156 -0.249396
    outer loop
      vertex -30.7353 22.0778 3.41548
      vertex -30.716 22.2579 2.71802
      vertex 26.4279 22.2579 7.71747
    endloop
  endfacet
  facet normal 0.0293514 -0.968019 -0.249152
    outer loop
      vertex -30.7353 22.0778 3.41548
      vertex -30.7337 22.1396 3.17556
      vertex -30.716 22.2579 2.71802
    endloop
  endfacet
  facet normal 0.0218196 -0.968155 -0.249399
    outer loop
      vertex -30.7353 22.0778 3.41548
      vertex 26.4279 22.2579 7.71747
      vertex 26.3672 22.0778 8.4113
    endloop
  endfacet
  facet normal 0.0244607 -0.959809 -0.279587
    outer loop
      vertex -30.7391 21.8759 4.10826
      vertex -30.7353 22.0778 3.41548
      vertex 26.3672 22.0778 8.4113
    endloop
  endfacet
  facet normal 0.0270771 -0.950516 -0.309493
    outer loop
      vertex -30.7391 21.8759 4.10826
      vertex 26.3071 21.8759 9.09915
      vertex -30.7204 21.6524 4.79631
    endloop
  endfacet
  facet normal 0.0244608 -0.959808 -0.279589
    outer loop
      vertex -30.7391 21.8759 4.10826
      vertex 26.3672 22.0778 8.4113
      vertex 26.3071 21.8759 9.09915
    endloop
  endfacet
  facet normal 0.999858 0.0136231 0.0099123
    outer loop
      vertex -30.7393 21.8785 4.09928
      vertex -30.0431 -22.8026 -4.71881
      vertex -30.7337 22.1396 3.17556
    endloop
  endfacet
  facet normal 0.999858 0.0136321 0.00986664
    outer loop
      vertex -30.7393 21.8785 4.09928
      vertex -30.0516 -22.8721 -3.76142
      vertex -30.0431 -22.8026 -4.71881
    endloop
  endfacet
  facet normal 0.999599 0.0190412 -0.02095
    outer loop
      vertex -30.7393 21.8785 4.09928
      vertex -30.7143 21.5737 5.01509
      vertex -30.0516 -22.8721 -3.76142
    endloop
  endfacet
  facet normal 0.999563 0.021686 -0.0200688
    outer loop
      vertex -30.7393 21.8785 4.09928
      vertex -30.7204 21.6524 4.79631
      vertex -30.7143 21.5737 5.01509
    endloop
  endfacet
  facet normal 0.999625 0.0241757 0.0128937
    outer loop
      vertex -30.7393 21.8785 4.09928
      vertex -30.7337 22.1396 3.17556
      vertex -30.7353 22.0778 3.41548
    endloop
  endfacet
  facet normal 0.0656589 -0.958085 -0.278859
    outer loop
      vertex -30.7393 21.8785 4.09928
      vertex -30.7353 22.0778 3.41548
      vertex -30.7391 21.8759 4.10826
    endloop
  endfacet
  facet normal 0.99032 0.137655 0.0177994
    outer loop
      vertex -30.7393 21.8785 4.09928
      vertex -30.7391 21.8759 4.10826
      vertex -30.7204 21.6524 4.79631
    endloop
  endfacet
  facet normal 0.0858324 0.173645 -0.981061
    outer loop
      vertex -33.3348 -24.8248 -20.5614
      vertex -25.9735 -16.3062 -18.4096
      vertex 28.4293 -24.8248 -15.1577
    endloop
  endfacet
  facet normal 0.0858255 0.17365 -0.98106
    outer loop
      vertex -33.3348 -24.8248 -20.5614
      vertex -26.5441 20.821 -11.8879
      vertex -25.9735 -16.3062 -18.4096
    endloop
  endfacet
  facet normal 0.0858397 0.173648 -0.98106
    outer loop
      vertex -34.1672 29.3396 -11.0471
      vertex -26.5441 20.821 -11.8879
      vertex -33.3348 -24.8248 -20.5614
    endloop
  endfacet
  facet normal 0.0858321 0.173642 -0.981061
    outer loop
      vertex -34.1672 29.3396 -11.0471
      vertex 27.5969 29.3396 -5.64342
      vertex -26.5441 20.821 -11.8879
    endloop
  endfacet
  facet normal 0.0151343 -0.984808 -0.172985
    outer loop
      vertex -35.3948 -28.9923 2.98406
      vertex -33.3348 -24.8248 -20.5614
      vertex 28.4293 -24.8248 -15.1577
    endloop
  endfacet
  facet normal -0.0858315 -0.173648 0.98106
    outer loop
      vertex -35.3948 -28.9923 2.98406
      vertex 26.3693 -28.9923 8.38771
      vertex 25.5369 25.1721 17.902
    endloop
  endfacet
  facet normal 0.0151342 -0.984808 -0.172985
    outer loop
      vertex -35.3948 -28.9923 2.98406
      vertex 28.4293 -24.8248 -15.1577
      vertex 26.3693 -28.9923 8.38771
    endloop
  endfacet
  facet normal -0.996195 2.26891e-07 -0.0871573
    outer loop
      vertex -36.2272 25.1721 12.4984
      vertex -33.3348 -24.8248 -20.5614
      vertex -35.3948 -28.9923 2.98406
    endloop
  endfacet
  facet normal -0.996195 1.39242e-07 -0.0871572
    outer loop
      vertex -36.2272 25.1721 12.4984
      vertex -34.1672 29.3396 -11.0471
      vertex -33.3348 -24.8248 -20.5614
    endloop
  endfacet
  facet normal -0.0858307 -0.173649 0.98106
    outer loop
      vertex -36.2272 25.1721 12.4984
      vertex -35.3948 -28.9923 2.98406
      vertex 25.5369 25.1721 17.902
    endloop
  endfacet
  facet normal -0.0151341 0.984808 0.172985
    outer loop
      vertex -36.2272 25.1721 12.4984
      vertex 25.5369 25.1721 17.902
      vertex 27.5969 29.3396 -5.64342
    endloop
  endfacet
  facet normal -0.0151343 0.984808 0.172985
    outer loop
      vertex -36.2272 25.1721 12.4984
      vertex 27.5969 29.3396 -5.64342
      vertex -34.1672 29.3396 -11.0471
    endloop
  endfacet
  facet normal 0.996195 1.34931e-05 0.087152
    outer loop
      vertex 25.5369 25.1721 17.902
      vertex 25.9665 20.256 12.9922
      vertex 26.0161 20.5472 12.4252
    endloop
  endfacet
  facet normal 0.996193 -1.29574e-05 0.0871742
    outer loop
      vertex 25.5369 25.1721 17.902
      vertex 26.0161 20.5472 12.4252
      vertex 26.0728 20.8547 11.7773
    endloop
  endfacet
  facet normal 0.996194 5.0374e-06 0.0871616
    outer loop
      vertex 25.5369 25.1721 17.902
      vertex 26.0728 20.8547 11.7773
      vertex 26.1303 21.1415 11.1201
    endloop
  endfacet
  facet normal 0.996199 9.733e-05 0.0871072
    outer loop
      vertex 25.5369 25.1721 17.902
      vertex 26.1303 21.1415 11.1201
      vertex 26.1885 21.4075 10.4542
    endloop
  endfacet
  facet normal 0.996191 -7.60771e-05 0.0871942
    outer loop
      vertex 25.5369 25.1721 17.902
      vertex 26.1885 21.4075 10.4542
      vertex 26.2475 21.6524 9.78034
    endloop
  endfacet
  facet normal 0.996194 6.33266e-07 0.0871612
    outer loop
      vertex 25.5369 25.1721 17.902
      vertex 26.2475 21.6524 9.78034
      vertex 26.3071 21.8759 9.09915
    endloop
  endfacet
  facet normal 0.9962 0.000179996 0.0870945
    outer loop
      vertex 25.5369 25.1721 17.902
      vertex 26.3071 21.8759 9.09915
      vertex 26.3672 22.0778 8.4113
    endloop
  endfacet
  facet normal 0.996195 4.02746e-07 0.0871526
    outer loop
      vertex 25.5369 25.1721 17.902
      vertex 26.3672 22.0778 8.4113
      vertex 26.4279 22.2579 7.71747
    endloop
  endfacet
  facet normal 0.996195 1.51241e-07 0.0871557
    outer loop
      vertex 25.5369 25.1721 17.902
      vertex 26.3693 -28.9923 8.38771
      vertex 26.6264 -22.687 5.44903
    endloop
  endfacet
  facet normal 0.996192 -0.000100587 0.0871813
    outer loop
      vertex 25.5369 25.1721 17.902
      vertex 26.4279 22.2579 7.71747
      vertex 26.4891 22.4161 7.01834
    endloop
  endfacet
  facet normal 0.996192 -0.000102331 0.0871817
    outer loop
      vertex 25.5369 25.1721 17.902
      vertex 26.4891 22.4161 7.01834
      vertex 26.5507 22.5521 6.31462
    endloop
  endfacet
  facet normal 0.996195 4.60346e-05 0.0871485
    outer loop
      vertex 25.5369 25.1721 17.902
      vertex 26.5507 22.5521 6.31462
      vertex 26.6126 22.6659 5.60698
    endloop
  endfacet
  facet normal 0.996195 6.06252e-07 0.0871576
    outer loop
      vertex 25.5369 25.1721 17.902
      vertex 26.6126 22.6659 5.60698
      vertex 27.5969 29.3396 -5.64342
    endloop
  endfacet
  facet normal 0.996194 -3.26112e-06 0.0871687
    outer loop
      vertex 25.5369 25.1721 17.902
      vertex 26.6264 -22.687 5.44903
      vertex 25.9665 20.256 12.9922
    endloop
  endfacet
  facet normal 0.996194 2.11369e-06 0.0871598
    outer loop
      vertex 26.3693 -28.9923 8.38771
      vertex 26.6817 -22.7661 4.81698
      vertex 26.6264 -22.687 5.44903
    endloop
  endfacet
  facet normal 0.996198 -2.44974e-05 0.0871138
    outer loop
      vertex 26.3693 -28.9923 8.38771
      vertex 26.7441 -22.8325 4.10338
      vertex 26.6817 -22.7661 4.81698
    endloop
  endfacet
  facet normal 0.996193 2.10591e-05 0.0871788
    outer loop
      vertex 26.3693 -28.9923 8.38771
      vertex 26.8067 -22.8764 3.38806
      vertex 26.7441 -22.8325 4.10338
    endloop
  endfacet
  facet normal 0.996191 3.35032e-05 0.0871939
    outer loop
      vertex 26.3693 -28.9923 8.38771
      vertex 26.8694 -22.8978 2.67172
      vertex 26.8067 -22.8764 3.38806
    endloop
  endfacet
  facet normal 0.996195 -1.00006e-06 0.0871574
    outer loop
      vertex 26.3693 -28.9923 8.38771
      vertex 28.4293 -24.8248 -15.1577
      vertex 26.8694 -22.8978 2.67172
    endloop
  endfacet
  facet normal 0.996193 2.28491e-05 0.0871707
    outer loop
      vertex 26.6126 22.6659 5.60698
      vertex 26.6748 22.7573 4.89613
      vertex 27.5969 29.3396 -5.64342
    endloop
  endfacet
  facet normal 0.996196 -3.04518e-05 0.0871377
    outer loop
      vertex 26.6748 22.7573 4.89613
      vertex 26.7372 22.8262 4.18277
      vertex 27.5969 29.3396 -5.64342
    endloop
  endfacet
  facet normal 0.99619 7.02924e-05 0.087204
    outer loop
      vertex 26.7372 22.8262 4.18277
      vertex 26.7998 22.8727 3.46761
      vertex 27.5969 29.3396 -5.64342
    endloop
  endfacet
  facet normal 0.996203 -0.000132747 0.087061
    outer loop
      vertex 26.7998 22.8727 3.46761
      vertex 26.8624 22.8965 2.75134
      vertex 27.5969 29.3396 -5.64342
    endloop
  endfacet
  facet normal 0.996195 -6.04935e-06 0.0871575
    outer loop
      vertex 26.8624 22.8965 2.75134
      vertex 26.9251 22.8978 2.03469
      vertex 27.5969 29.3396 -5.64342
    endloop
  endfacet
  facet normal 0.996195 -1.63104e-06 0.0871575
    outer loop
      vertex 26.8694 -22.8978 2.67172
      vertex 28.4293 -24.8248 -15.1577
      vertex 26.9321 -22.8965 1.95507
    endloop
  endfacet
  facet normal 0.996191 3.75821e-05 0.0871938
    outer loop
      vertex 26.9251 22.8978 2.03469
      vertex 26.9878 22.8764 1.31835
      vertex 27.5969 29.3396 -5.64342
    endloop
  endfacet
  facet normal 0.996191 -0.000318183 0.0871929
    outer loop
      vertex 26.9321 -22.8965 1.95507
      vertex 28.4293 -24.8248 -15.1577
      vertex 26.9948 -22.8727 1.2388
    endloop
  endfacet
  facet normal 0.996193 2.06851e-05 0.0871782
    outer loop
      vertex 26.9878 22.8764 1.31835
      vertex 27.0504 22.8325 0.603025
      vertex 27.5969 29.3396 -5.64342
    endloop
  endfacet
  facet normal 0.9962 0.000516278 0.0870943
    outer loop
      vertex 26.9948 -22.8727 1.2388
      vertex 28.4293 -24.8248 -15.1577
      vertex 27.0573 -22.8262 0.523638
    endloop
  endfacet
  facet normal 0.996198 -3.95772e-05 0.0871159
    outer loop
      vertex 27.0504 22.8325 0.603025
      vertex 27.1128 22.7661 -0.110569
      vertex 27.5969 29.3396 -5.64342
    endloop
  endfacet
  facet normal 0.996195 8.41444e-05 0.0871489
    outer loop
      vertex 27.0573 -22.8262 0.523638
      vertex 28.4293 -24.8248 -15.1577
      vertex 27.1197 -22.7573 -0.18972
    endloop
  endfacet
  facet normal 0.996197 -2.50998e-05 0.087133
    outer loop
      vertex 27.1128 22.7661 -0.110569
      vertex 27.175 22.6771 -0.821731
      vertex 27.5969 29.3396 -5.64342
    endloop
  endfacet
  facet normal 0.996194 -2.82615e-05 0.0871643
    outer loop
      vertex 27.1197 -22.7573 -0.18972
      vertex 28.4293 -24.8248 -15.1577
      vertex 27.1819 -22.6659 -0.900569
    endloop
  endfacet
  facet normal 0.996189 4.3095e-05 0.0872265
    outer loop
      vertex 27.175 22.6771 -0.821731
      vertex 27.237 22.5658 -1.52976
      vertex 27.5969 29.3396 -5.64342
    endloop
  endfacet
  facet normal 0.996195 6.16575e-05 0.0871508
    outer loop
      vertex 27.1819 -22.6659 -0.900569
      vertex 28.4293 -24.8248 -15.1577
      vertex 27.2438 -22.5521 -1.60821
    endloop
  endfacet
  facet normal 0.996196 -7.51443e-06 0.0871438
    outer loop
      vertex 27.237 22.5658 -1.52976
      vertex 27.2986 22.4323 -2.23396
      vertex 27.5969 29.3396 -5.64342
    endloop
  endfacet
  facet normal 0.996193 -0.000112445 0.0871798
    outer loop
      vertex 27.2438 -22.5521 -1.60821
      vertex 28.4293 -24.8248 -15.1577
      vertex 27.3054 -22.4161 -2.31193
    endloop
  endfacet
  facet normal 0.996196 -9.77106e-06 0.0871393
    outer loop
      vertex 27.2986 22.4323 -2.23396
      vertex 27.3598 22.2766 -2.93363
      vertex 27.5969 29.3396 -5.64342
    endloop
  endfacet
  facet normal 0.996193 -0.000109618 0.0871793
    outer loop
      vertex 27.3054 -22.4161 -2.31193
      vertex 28.4293 -24.8248 -15.1577
      vertex 27.3666 -22.2579 -3.01106
    endloop
  endfacet
  facet normal 0.99619 1.87047e-05 0.0872129
    outer loop
      vertex 27.3598 22.2766 -2.93363
      vertex 27.4206 22.0989 -3.62808
      vertex 27.5969 29.3396 -5.64342
    endloop
  endfacet
  facet normal 0.996195 8.05595e-06 0.0871546
    outer loop
      vertex 27.3666 -22.2579 -3.01106
      vertex 28.4293 -24.8248 -15.1577
      vertex 27.4273 -22.0778 -3.70489
    endloop
  endfacet
  facet normal 0.996199 -1.25545e-05 0.0871015
    outer loop
      vertex 27.4206 22.0989 -3.62808
      vertex 27.4808 21.8994 -4.31663
      vertex 27.5969 29.3396 -5.64342
    endloop
  endfacet
  facet normal 0.996199 0.00021618 0.0871051
    outer loop
      vertex 27.4273 -22.0778 -3.70489
      vertex 28.4293 -24.8248 -15.1577
      vertex 27.4874 -21.8759 -4.39274
    endloop
  endfacet
  facet normal 0.99619 6.05916e-06 0.087205
    outer loop
      vertex 27.4808 21.8994 -4.31663
      vertex 27.5405 21.6783 -4.9986
      vertex 27.5969 29.3396 -5.64342
    endloop
  endfacet
  facet normal 0.996194 4.79398e-06 0.0871625
    outer loop
      vertex 27.4874 -21.8759 -4.39274
      vertex 28.4293 -24.8248 -15.1577
      vertex 27.547 -21.6524 -5.07393
    endloop
  endfacet
  facet normal 0.996198 -1.73293e-06 0.0871132
    outer loop
      vertex 27.5405 21.6783 -4.9986
      vertex 27.5995 21.4358 -5.67331
      vertex 27.5969 29.3396 -5.64342
    endloop
  endfacet
  facet normal 0.996192 -8.36619e-05 0.0871901
    outer loop
      vertex 27.547 -21.6524 -5.07393
      vertex 28.4293 -24.8248 -15.1577
      vertex 27.606 -21.4075 -5.7478
    endloop
  endfacet
  facet normal 0.996199 -1.6911e-06 0.0871022
    outer loop
      vertex 27.5969 29.3396 -5.64342
      vertex 27.5995 21.4358 -5.67331
      vertex 27.6578 21.1721 -6.3401
    endloop
  endfacet
  facet normal 0.996193 -8.42307e-06 0.0871805
    outer loop
      vertex 27.5969 29.3396 -5.64342
      vertex 27.6578 21.1721 -6.3401
      vertex 27.7154 20.8876 -6.99831
    endloop
  endfacet
  facet normal 0.996179 -3.39088e-05 0.0873383
    outer loop
      vertex 27.5969 29.3396 -5.64342
      vertex 27.7154 20.8876 -6.99831
      vertex 27.7278 20.821 -7.13977
    endloop
  endfacet
  facet normal 0.996192 -8.05539e-05 0.087189
    outer loop
      vertex 27.606 -21.4075 -5.7478
      vertex 28.4293 -24.8248 -15.1577
      vertex 27.6643 -21.1415 -6.41367
    endloop
  endfacet
  facet normal 0.996195 -1.70293e-06 0.0871561
    outer loop
      vertex 27.6643 -21.1415 -6.41367
      vertex 28.4293 -24.8248 -15.1577
      vertex 27.7218 -20.8547 -7.07089
    endloop
  endfacet
  facet normal 0.9962 0.000134471 0.0870897
    outer loop
      vertex 27.7218 -20.8547 -7.07089
      vertex 28.4293 -24.8248 -15.1577
      vertex 27.7784 -20.5472 -7.7188
    endloop
  endfacet
  facet normal 0.996188 -0.000110542 0.0872295
    outer loop
      vertex 27.7784 -20.5472 -7.7188
      vertex 28.4293 -24.8248 -15.1577
      vertex 27.8343 -20.2195 -8.35678
    endloop
  endfacet
  facet normal 0.996194 -1.16716e-05 0.0871631
    outer loop
      vertex 27.8343 -20.2195 -8.35678
      vertex 28.4293 -24.8248 -15.1577
      vertex 27.8892 -19.8718 -8.98419
    endloop
  endfacet
  facet normal 0.996196 1.27778e-05 0.0871436
    outer loop
      vertex 27.8892 -19.8718 -8.98419
      vertex 28.4293 -24.8248 -15.1577
      vertex 27.9431 -19.5045 -9.60041
    endloop
  endfacet
  facet normal 0.996201 7.97763e-05 0.08708
    outer loop
      vertex 27.9431 -19.5045 -9.60041
      vertex 28.4293 -24.8248 -15.1577
      vertex 27.9959 -19.118 -10.2048
    endloop
  endfacet
  facet normal 0.996194 1.03412e-05 0.0871594
    outer loop
      vertex 27.9959 -19.118 -10.2048
      vertex 28.4293 -24.8248 -15.1577
      vertex 28.0477 -18.7126 -10.7969
    endloop
  endfacet
  facet normal 0.99619 -2.70283e-05 0.0872113
    outer loop
      vertex 28.0477 -18.7126 -10.7969
      vertex 28.4293 -24.8248 -15.1577
      vertex 28.0984 -18.2888 -11.3759
    endloop
  endfacet
  facet normal 0.996192 -1.39472e-05 0.0871889
    outer loop
      vertex 28.0984 -18.2888 -11.3759
      vertex 28.4293 -24.8248 -15.1577
      vertex 28.1479 -17.8468 -11.9414
    endloop
  endfacet
  facet normal 0.996199 2.58704e-05 0.0871032
    outer loop
      vertex 28.1479 -17.8468 -11.9414
      vertex 28.4293 -24.8248 -15.1577
      vertex 28.1961 -17.3873 -12.4928
    endloop
  endfacet
  facet normal 0.99619 -1.29738e-05 0.0872108
    outer loop
      vertex 28.1961 -17.3873 -12.4928
      vertex 28.4293 -24.8248 -15.1577
      vertex 28.2431 -16.9106 -13.0296
    endloop
  endfacet
  facet normal 0.996198 1.19189e-05 0.0871189
    outer loop
      vertex 28.2431 -16.9106 -13.0296
      vertex 28.4293 -24.8248 -15.1577
      vertex 28.2887 -16.4173 -13.5511
    endloop
  endfacet
  facet normal 0.996161 -6.83181e-05 0.0875356
    outer loop
      vertex 28.2887 -16.4173 -13.5511
      vertex 28.4293 -24.8248 -15.1577
      vertex 28.2984 -16.3062 -13.6614
    endloop
  endfacet
endsolid model
