solid OpenSCAD_Model
  facet normal 0.998027 0.0627905 0
    outer loop
      vertex 41.65 0 10
      vertex 41.3216 5.22013 0
      vertex 41.3216 5.22013 10
    endloop
  endfacet
  facet normal 0.998027 0.0627905 0
    outer loop
      vertex 41.3216 5.22013 0
      vertex 41.65 0 10
      vertex 41.65 0 0
    endloop
  endfacet
  facet normal -0.998027 0.0627905 0
    outer loop
      vertex -41.65 0 0
      vertex -41.3216 5.22013 10
      vertex -41.3216 5.22013 0
    endloop
  endfacet
  facet normal -0.998027 0.0627905 0
    outer loop
      vertex -41.3216 5.22013 10
      vertex -41.65 0 0
      vertex -41.65 0 10
    endloop
  endfacet
  facet normal 0.904827 0.425779 0
    outer loop
      vertex 38.7252 15.3324 10
      vertex 36.4982 20.065 0
      vertex 36.4982 20.065 10
    endloop
  endfacet
  facet normal 0.904827 0.425779 0
    outer loop
      vertex 36.4982 20.065 0
      vertex 38.7252 15.3324 10
      vertex 38.7252 15.3324 0
    endloop
  endfacet
  facet normal 0.844328 0.535827 0
    outer loop
      vertex 36.4982 20.065 10
      vertex 33.6956 24.4813 0
      vertex 33.6956 24.4813 10
    endloop
  endfacet
  facet normal 0.844328 0.535827 0
    outer loop
      vertex 33.6956 24.4813 0
      vertex 36.4982 20.065 10
      vertex 36.4982 20.065 0
    endloop
  endfacet
  facet normal -0.904827 0.425779 0
    outer loop
      vertex -38.7252 15.3324 0
      vertex -36.4982 20.065 10
      vertex -36.4982 20.065 0
    endloop
  endfacet
  facet normal -0.904827 0.425779 0
    outer loop
      vertex -36.4982 20.065 10
      vertex -38.7252 15.3324 0
      vertex -38.7252 15.3324 10
    endloop
  endfacet
  facet normal -0.770514 0.637423 0
    outer loop
      vertex -33.6956 24.4813 0
      vertex -33.2664 25 10
      vertex -33.2664 25 0
    endloop
  endfacet
  facet normal -0.770514 0.637423 0
    outer loop
      vertex -33.2664 25 10
      vertex -33.6956 24.4813 0
      vertex -33.6956 24.4813 10
    endloop
  endfacet
  facet normal 0 0 1
    outer loop
      vertex 36 15.5 10
      vertex 41.65 0 10
      vertex 41.3216 5.22013 10
    endloop
  endfacet
  facet normal 0 0 1
    outer loop
      vertex 36 15.5 10
      vertex 41.3216 5.22013 10
      vertex 40.3415 10.3579 10
    endloop
  endfacet
  facet normal 0 0 1
    outer loop
      vertex 36 -15.5 10
      vertex 41.65 0 10
      vertex 36 15.5 10
    endloop
  endfacet
  facet normal 0 0 1
    outer loop
      vertex 36 15.5 10
      vertex 40.3415 10.3579 10
      vertex 38.7252 15.3324 10
    endloop
  endfacet
  facet normal 0 0 1
    outer loop
      vertex 41.65 0 10
      vertex 36 -15.5 10
      vertex 41.3216 -5.22013 10
    endloop
  endfacet
  facet normal -0 0 1
    outer loop
      vertex 36 15.5 10
      vertex 38.7252 15.3324 10
      vertex 36.4982 20.065 10
    endloop
  endfacet
  facet normal 0 0 1
    outer loop
      vertex 41.3216 -5.22013 10
      vertex 36 -15.5 10
      vertex 40.3415 -10.3579 10
    endloop
  endfacet
  facet normal 0 0 1
    outer loop
      vertex 40.3415 -10.3579 10
      vertex 36 -15.5 10
      vertex 38.7252 -15.3324 10
    endloop
  endfacet
  facet normal 0 0 1
    outer loop
      vertex 25 15.5 10
      vertex 36.4982 20.065 10
      vertex 33.6956 24.4813 10
    endloop
  endfacet
  facet normal 0 0 1
    outer loop
      vertex 25 15.5 10
      vertex 33.6956 24.4813 10
      vertex 33.2664 25 10
    endloop
  endfacet
  facet normal 0 0 1
    outer loop
      vertex 36.4982 20.065 10
      vertex 25 15.5 10
      vertex 36 15.5 10
    endloop
  endfacet
  facet normal 0 0 1
    outer loop
      vertex 25 15.5 10
      vertex 20.5 0 10
      vertex 25 -15.5 10
    endloop
  endfacet
  facet normal 0 0 1
    outer loop
      vertex 25 15.5 10
      vertex 20.3384 2.56933 10
      vertex 20.5 0 10
    endloop
  endfacet
  facet normal 0 0 1
    outer loop
      vertex 25 15.5 10
      vertex 19.856 5.09814 10
      vertex 20.3384 2.56933 10
    endloop
  endfacet
  facet normal 0 0 1
    outer loop
      vertex 25 15.5 10
      vertex 19.0604 7.54655 10
      vertex 19.856 5.09814 10
    endloop
  endfacet
  facet normal 0 0 1
    outer loop
      vertex 25 15.5 10
      vertex 17.9643 9.87595 10
      vertex 19.0604 7.54655 10
    endloop
  endfacet
  facet normal -0 0 1
    outer loop
      vertex 10.9844 17.3087 10
      vertex 25 15.5 10
      vertex 33.2664 25 10
    endloop
  endfacet
  facet normal 0 0 1
    outer loop
      vertex 25 15.5 10
      vertex 16.5848 12.0496 10
      vertex 17.9643 9.87595 10
    endloop
  endfacet
  facet normal 0 0 1
    outer loop
      vertex 25 15.5 10
      vertex 14.9439 14.0332 10
      vertex 16.5848 12.0496 10
    endloop
  endfacet
  facet normal 0 0 1
    outer loop
      vertex 25 15.5 10
      vertex 13.0672 15.7955 10
      vertex 14.9439 14.0332 10
    endloop
  endfacet
  facet normal 0 0 1
    outer loop
      vertex 25 15.5 10
      vertex 10.9844 17.3087 10
      vertex 13.0672 15.7955 10
    endloop
  endfacet
  facet normal 0 0 1
    outer loop
      vertex 33.2664 25 10
      vertex 8.72847 18.549 10
      vertex 10.9844 17.3087 10
    endloop
  endfacet
  facet normal 0 0 1
    outer loop
      vertex 33.2664 25 10
      vertex 6.33485 19.4967 10
      vertex 8.72847 18.549 10
    endloop
  endfacet
  facet normal 0 0 1
    outer loop
      vertex 33.2664 25 10
      vertex 3.84132 20.1369 10
      vertex 6.33485 19.4967 10
    endloop
  endfacet
  facet normal 0 0 1
    outer loop
      vertex 33.2664 25 10
      vertex 1.2872 20.4595 10
      vertex 3.84132 20.1369 10
    endloop
  endfacet
  facet normal 0 0 1
    outer loop
      vertex 33.2664 25 10
      vertex -1.2872 20.4595 10
      vertex 1.2872 20.4595 10
    endloop
  endfacet
  facet normal -0 0 1
    outer loop
      vertex -33.2664 25 10
      vertex -1.2872 20.4595 10
      vertex 33.2664 25 10
    endloop
  endfacet
  facet normal 0 0 1
    outer loop
      vertex -20.3384 2.56933 10
      vertex -25 15.5 10
      vertex -20.5 0 10
    endloop
  endfacet
  facet normal 0 0 1
    outer loop
      vertex -19.856 5.09814 10
      vertex -25 15.5 10
      vertex -20.3384 2.56933 10
    endloop
  endfacet
  facet normal 0 0 1
    outer loop
      vertex -19.0604 7.54655 10
      vertex -25 15.5 10
      vertex -19.856 5.09814 10
    endloop
  endfacet
  facet normal 0 0 1
    outer loop
      vertex -17.9643 9.87595 10
      vertex -25 15.5 10
      vertex -19.0604 7.54655 10
    endloop
  endfacet
  facet normal 0 0 1
    outer loop
      vertex -16.5848 12.0496 10
      vertex -25 15.5 10
      vertex -17.9643 9.87595 10
    endloop
  endfacet
  facet normal 0 0 1
    outer loop
      vertex -14.9439 14.0332 10
      vertex -25 15.5 10
      vertex -16.5848 12.0496 10
    endloop
  endfacet
  facet normal 0 0 1
    outer loop
      vertex -13.0672 15.7955 10
      vertex -25 15.5 10
      vertex -14.9439 14.0332 10
    endloop
  endfacet
  facet normal 0 0 1
    outer loop
      vertex -10.9844 17.3087 10
      vertex -25 15.5 10
      vertex -13.0672 15.7955 10
    endloop
  endfacet
  facet normal 0 0 1
    outer loop
      vertex -33.2664 25 10
      vertex -10.9844 17.3087 10
      vertex -8.72847 18.549 10
    endloop
  endfacet
  facet normal 0 0 1
    outer loop
      vertex -33.2664 25 10
      vertex -8.72847 18.549 10
      vertex -6.33485 19.4967 10
    endloop
  endfacet
  facet normal 0 0 1
    outer loop
      vertex -33.2664 25 10
      vertex -6.33485 19.4967 10
      vertex -3.84132 20.1369 10
    endloop
  endfacet
  facet normal 0 0 1
    outer loop
      vertex -1.2872 20.4595 10
      vertex -33.2664 25 10
      vertex -3.84132 20.1369 10
    endloop
  endfacet
  facet normal 0 0 1
    outer loop
      vertex -10.9844 17.3087 10
      vertex -33.2664 25 10
      vertex -25 15.5 10
    endloop
  endfacet
  facet normal -0 0 1
    outer loop
      vertex -33.6956 24.4813 10
      vertex -25 15.5 10
      vertex -33.2664 25 10
    endloop
  endfacet
  facet normal -0 0 1
    outer loop
      vertex -36.4982 20.065 10
      vertex -25 15.5 10
      vertex -33.6956 24.4813 10
    endloop
  endfacet
  facet normal 0 0 1
    outer loop
      vertex -38.7252 15.3324 10
      vertex -36 15.5 10
      vertex -36.4982 20.065 10
    endloop
  endfacet
  facet normal 0 0 1
    outer loop
      vertex -25 15.5 10
      vertex -36.4982 20.065 10
      vertex -36 15.5 10
    endloop
  endfacet
  facet normal 0 0 1
    outer loop
      vertex 38.7252 -15.3324 10
      vertex 36 -15.5 10
      vertex 36.4982 -20.065 10
    endloop
  endfacet
  facet normal -0 0 1
    outer loop
      vertex 25 -15.5 10
      vertex 36.4982 -20.065 10
      vertex 36 -15.5 10
    endloop
  endfacet
  facet normal 0 0 1
    outer loop
      vertex 36.4982 -20.065 10
      vertex 25 -15.5 10
      vertex 33.6956 -24.4813 10
    endloop
  endfacet
  facet normal 0 0 1
    outer loop
      vertex 33.6956 -24.4813 10
      vertex 25 -15.5 10
      vertex 33.2664 -25 10
    endloop
  endfacet
  facet normal -0 0 1
    outer loop
      vertex 20.3384 -2.56933 10
      vertex 25 -15.5 10
      vertex 20.5 0 10
    endloop
  endfacet
  facet normal -0 0 1
    outer loop
      vertex 19.856 -5.09814 10
      vertex 25 -15.5 10
      vertex 20.3384 -2.56933 10
    endloop
  endfacet
  facet normal -0 0 1
    outer loop
      vertex 19.0604 -7.54655 10
      vertex 25 -15.5 10
      vertex 19.856 -5.09814 10
    endloop
  endfacet
  facet normal -0 0 1
    outer loop
      vertex 17.9643 -9.87595 10
      vertex 25 -15.5 10
      vertex 19.0604 -7.54655 10
    endloop
  endfacet
  facet normal -0 0 1
    outer loop
      vertex 16.5848 -12.0496 10
      vertex 25 -15.5 10
      vertex 17.9643 -9.87595 10
    endloop
  endfacet
  facet normal -0 0 1
    outer loop
      vertex 14.9439 -14.0332 10
      vertex 25 -15.5 10
      vertex 16.5848 -12.0496 10
    endloop
  endfacet
  facet normal 0 0 1
    outer loop
      vertex 13.0672 -15.7955 10
      vertex 25 -15.5 10
      vertex 14.9439 -14.0332 10
    endloop
  endfacet
  facet normal 0 0 1
    outer loop
      vertex 10.9844 -17.3087 10
      vertex 25 -15.5 10
      vertex 13.0672 -15.7955 10
    endloop
  endfacet
  facet normal 0 0 1
    outer loop
      vertex 25 -15.5 10
      vertex 10.9844 -17.3087 10
      vertex 33.2664 -25 10
    endloop
  endfacet
  facet normal -0 0 1
    outer loop
      vertex 8.72847 -18.549 10
      vertex 33.2664 -25 10
      vertex 10.9844 -17.3087 10
    endloop
  endfacet
  facet normal -0 0 1
    outer loop
      vertex 6.33485 -19.4967 10
      vertex 33.2664 -25 10
      vertex 8.72847 -18.549 10
    endloop
  endfacet
  facet normal -0 0 1
    outer loop
      vertex 3.84132 -20.1369 10
      vertex 33.2664 -25 10
      vertex 6.33485 -19.4967 10
    endloop
  endfacet
  facet normal -0 0 1
    outer loop
      vertex 1.2872 -20.4595 10
      vertex 33.2664 -25 10
      vertex 3.84132 -20.1369 10
    endloop
  endfacet
  facet normal -0 0 1
    outer loop
      vertex -1.2872 -20.4595 10
      vertex 33.2664 -25 10
      vertex 1.2872 -20.4595 10
    endloop
  endfacet
  facet normal 0 0 1
    outer loop
      vertex -33.2664 -25 10
      vertex -1.2872 -20.4595 10
      vertex -3.84132 -20.1369 10
    endloop
  endfacet
  facet normal 0 0 1
    outer loop
      vertex -25 -15.5 10
      vertex -20.5 0 10
      vertex -25 15.5 10
    endloop
  endfacet
  facet normal 0 0 1
    outer loop
      vertex -20.5 0 10
      vertex -25 -15.5 10
      vertex -20.3384 -2.56933 10
    endloop
  endfacet
  facet normal 0 0 1
    outer loop
      vertex -20.3384 -2.56933 10
      vertex -25 -15.5 10
      vertex -19.856 -5.09814 10
    endloop
  endfacet
  facet normal 0 0 1
    outer loop
      vertex -25 -15.5 10
      vertex -19.0604 -7.54655 10
      vertex -19.856 -5.09814 10
    endloop
  endfacet
  facet normal 0 0 1
    outer loop
      vertex -25 -15.5 10
      vertex -17.9643 -9.87595 10
      vertex -19.0604 -7.54655 10
    endloop
  endfacet
  facet normal 0 0 1
    outer loop
      vertex -25 -15.5 10
      vertex -16.5848 -12.0496 10
      vertex -17.9643 -9.87595 10
    endloop
  endfacet
  facet normal 0 0 1
    outer loop
      vertex -25 -15.5 10
      vertex -14.9439 -14.0332 10
      vertex -16.5848 -12.0496 10
    endloop
  endfacet
  facet normal -0 0 1
    outer loop
      vertex -25 -15.5 10
      vertex -13.0672 -15.7955 10
      vertex -14.9439 -14.0332 10
    endloop
  endfacet
  facet normal 0 0 1
    outer loop
      vertex -25 -15.5 10
      vertex -10.9844 -17.3087 10
      vertex -13.0672 -15.7955 10
    endloop
  endfacet
  facet normal 0 0 1
    outer loop
      vertex -33.2664 -25 10
      vertex -10.9844 -17.3087 10
      vertex -25 -15.5 10
    endloop
  endfacet
  facet normal 0 0 1
    outer loop
      vertex -10.9844 -17.3087 10
      vertex -33.2664 -25 10
      vertex -8.72847 -18.549 10
    endloop
  endfacet
  facet normal 0 0 1
    outer loop
      vertex -8.72847 -18.549 10
      vertex -33.2664 -25 10
      vertex -6.33485 -19.4967 10
    endloop
  endfacet
  facet normal 0 0 1
    outer loop
      vertex -1.2872 -20.4595 10
      vertex -33.2664 -25 10
      vertex 33.2664 -25 10
    endloop
  endfacet
  facet normal 0 0 1
    outer loop
      vertex -6.33485 -19.4967 10
      vertex -33.2664 -25 10
      vertex -3.84132 -20.1369 10
    endloop
  endfacet
  facet normal 0 0 1
    outer loop
      vertex -25 -15.5 10
      vertex -33.6956 -24.4813 10
      vertex -33.2664 -25 10
    endloop
  endfacet
  facet normal 0 0 1
    outer loop
      vertex -36.4982 -20.065 10
      vertex -25 -15.5 10
      vertex -36 -15.5 10
    endloop
  endfacet
  facet normal 0 0 1
    outer loop
      vertex -25 -15.5 10
      vertex -36.4982 -20.065 10
      vertex -33.6956 -24.4813 10
    endloop
  endfacet
  facet normal 0 0 1
    outer loop
      vertex -40.3415 10.3579 10
      vertex -36 15.5 10
      vertex -38.7252 15.3324 10
    endloop
  endfacet
  facet normal 0 0 1
    outer loop
      vertex -41.3216 5.22013 10
      vertex -36 15.5 10
      vertex -40.3415 10.3579 10
    endloop
  endfacet
  facet normal 0 0 1
    outer loop
      vertex -36 -15.5 10
      vertex -38.7252 -15.3324 10
      vertex -36.4982 -20.065 10
    endloop
  endfacet
  facet normal 0 0 1
    outer loop
      vertex -41.65 0 10
      vertex -36 15.5 10
      vertex -41.3216 5.22013 10
    endloop
  endfacet
  facet normal 0 0 1
    outer loop
      vertex -36 -15.5 10
      vertex -40.3415 -10.3579 10
      vertex -38.7252 -15.3324 10
    endloop
  endfacet
  facet normal 0 0 1
    outer loop
      vertex -36 15.5 10
      vertex -41.65 0 10
      vertex -36 -15.5 10
    endloop
  endfacet
  facet normal 0 0 1
    outer loop
      vertex -36 -15.5 10
      vertex -41.3216 -5.22013 10
      vertex -40.3415 -10.3579 10
    endloop
  endfacet
  facet normal 0 0 1
    outer loop
      vertex -36 -15.5 10
      vertex -41.65 0 10
      vertex -41.3216 -5.22013 10
    endloop
  endfacet
  facet normal 0 0 -1
    outer loop
      vertex 36 -15.5 0
      vertex 41.65 0 0
      vertex 41.3216 -5.22013 0
    endloop
  endfacet
  facet normal 0 0 -1
    outer loop
      vertex 36 -15.5 0
      vertex 41.3216 -5.22013 0
      vertex 40.3415 -10.3579 0
    endloop
  endfacet
  facet normal 0 0 -1
    outer loop
      vertex 36 15.5 0
      vertex 41.65 0 0
      vertex 36 -15.5 0
    endloop
  endfacet
  facet normal 0 0 -1
    outer loop
      vertex 36 -15.5 0
      vertex 40.3415 -10.3579 0
      vertex 38.7252 -15.3324 0
    endloop
  endfacet
  facet normal 0 0 -1
    outer loop
      vertex 41.65 0 0
      vertex 36 15.5 0
      vertex 41.3216 5.22013 0
    endloop
  endfacet
  facet normal 0 0 -1
    outer loop
      vertex 36 -15.5 0
      vertex 38.7252 -15.3324 0
      vertex 36.4982 -20.065 0
    endloop
  endfacet
  facet normal 0 0 -1
    outer loop
      vertex 41.3216 5.22013 0
      vertex 36 15.5 0
      vertex 40.3415 10.3579 0
    endloop
  endfacet
  facet normal 0 0 -1
    outer loop
      vertex 40.3415 10.3579 0
      vertex 36 15.5 0
      vertex 38.7252 15.3324 0
    endloop
  endfacet
  facet normal 0 0 -1
    outer loop
      vertex 25 -15.5 0
      vertex 36.4982 -20.065 0
      vertex 33.6956 -24.4813 0
    endloop
  endfacet
  facet normal 0 0 -1
    outer loop
      vertex 25 -15.5 0
      vertex 33.6956 -24.4813 0
      vertex 33.2664 -25 0
    endloop
  endfacet
  facet normal 0 0 -1
    outer loop
      vertex 36.4982 -20.065 0
      vertex 25 -15.5 0
      vertex 36 -15.5 0
    endloop
  endfacet
  facet normal 0 0 -1
    outer loop
      vertex 25 -15.5 0
      vertex 20.5 0 0
      vertex 25 15.5 0
    endloop
  endfacet
  facet normal 0 0 -1
    outer loop
      vertex 25 -15.5 0
      vertex 20.3384 -2.56933 0
      vertex 20.5 0 0
    endloop
  endfacet
  facet normal 0 0 -1
    outer loop
      vertex 25 -15.5 0
      vertex 19.856 -5.09814 0
      vertex 20.3384 -2.56933 0
    endloop
  endfacet
  facet normal 0 0 -1
    outer loop
      vertex 25 -15.5 0
      vertex 19.0604 -7.54655 0
      vertex 19.856 -5.09814 0
    endloop
  endfacet
  facet normal 0 0 -1
    outer loop
      vertex 25 -15.5 0
      vertex 17.9643 -9.87595 0
      vertex 19.0604 -7.54655 0
    endloop
  endfacet
  facet normal 0 0 -1
    outer loop
      vertex 10.9844 -17.3087 0
      vertex 25 -15.5 0
      vertex 33.2664 -25 0
    endloop
  endfacet
  facet normal 0 0 -1
    outer loop
      vertex 25 -15.5 0
      vertex 16.5848 -12.0496 0
      vertex 17.9643 -9.87595 0
    endloop
  endfacet
  facet normal 0 0 -1
    outer loop
      vertex 25 -15.5 0
      vertex 14.9439 -14.0332 0
      vertex 16.5848 -12.0496 0
    endloop
  endfacet
  facet normal -0 0 -1
    outer loop
      vertex 25 -15.5 0
      vertex 13.0672 -15.7955 0
      vertex 14.9439 -14.0332 0
    endloop
  endfacet
  facet normal 0 0 -1
    outer loop
      vertex 25 -15.5 0
      vertex 10.9844 -17.3087 0
      vertex 13.0672 -15.7955 0
    endloop
  endfacet
  facet normal 0 0 -1
    outer loop
      vertex 33.2664 -25 0
      vertex 8.72847 -18.549 0
      vertex 10.9844 -17.3087 0
    endloop
  endfacet
  facet normal 0 0 -1
    outer loop
      vertex 33.2664 -25 0
      vertex 6.33485 -19.4967 0
      vertex 8.72847 -18.549 0
    endloop
  endfacet
  facet normal 0 0 -1
    outer loop
      vertex 33.2664 -25 0
      vertex 3.84132 -20.1369 0
      vertex 6.33485 -19.4967 0
    endloop
  endfacet
  facet normal 0 0 -1
    outer loop
      vertex 33.2664 -25 0
      vertex 1.2872 -20.4595 0
      vertex 3.84132 -20.1369 0
    endloop
  endfacet
  facet normal 0 0 -1
    outer loop
      vertex 33.2664 -25 0
      vertex -1.2872 -20.4595 0
      vertex 1.2872 -20.4595 0
    endloop
  endfacet
  facet normal 0 0 -1
    outer loop
      vertex -33.2664 -25 0
      vertex -1.2872 -20.4595 0
      vertex 33.2664 -25 0
    endloop
  endfacet
  facet normal -0 0 -1
    outer loop
      vertex -20.3384 -2.56933 0
      vertex -25 -15.5 0
      vertex -20.5 0 0
    endloop
  endfacet
  facet normal -0 0 -1
    outer loop
      vertex -19.856 -5.09814 0
      vertex -25 -15.5 0
      vertex -20.3384 -2.56933 0
    endloop
  endfacet
  facet normal -0 0 -1
    outer loop
      vertex -19.0604 -7.54655 0
      vertex -25 -15.5 0
      vertex -19.856 -5.09814 0
    endloop
  endfacet
  facet normal -0 0 -1
    outer loop
      vertex -17.9643 -9.87595 0
      vertex -25 -15.5 0
      vertex -19.0604 -7.54655 0
    endloop
  endfacet
  facet normal -0 0 -1
    outer loop
      vertex -16.5848 -12.0496 0
      vertex -25 -15.5 0
      vertex -17.9643 -9.87595 0
    endloop
  endfacet
  facet normal -0 0 -1
    outer loop
      vertex -14.9439 -14.0332 0
      vertex -25 -15.5 0
      vertex -16.5848 -12.0496 0
    endloop
  endfacet
  facet normal 0 0 -1
    outer loop
      vertex -13.0672 -15.7955 0
      vertex -25 -15.5 0
      vertex -14.9439 -14.0332 0
    endloop
  endfacet
  facet normal 0 0 -1
    outer loop
      vertex -10.9844 -17.3087 0
      vertex -25 -15.5 0
      vertex -13.0672 -15.7955 0
    endloop
  endfacet
  facet normal 0 0 -1
    outer loop
      vertex -33.2664 -25 0
      vertex -10.9844 -17.3087 0
      vertex -8.72847 -18.549 0
    endloop
  endfacet
  facet normal 0 0 -1
    outer loop
      vertex -33.2664 -25 0
      vertex -8.72847 -18.549 0
      vertex -6.33485 -19.4967 0
    endloop
  endfacet
  facet normal 0 0 -1
    outer loop
      vertex -33.2664 -25 0
      vertex -6.33485 -19.4967 0
      vertex -3.84132 -20.1369 0
    endloop
  endfacet
  facet normal -0 0 -1
    outer loop
      vertex -1.2872 -20.4595 0
      vertex -33.2664 -25 0
      vertex -3.84132 -20.1369 0
    endloop
  endfacet
  facet normal -0 0 -1
    outer loop
      vertex -10.9844 -17.3087 0
      vertex -33.2664 -25 0
      vertex -25 -15.5 0
    endloop
  endfacet
  facet normal 0 0 -1
    outer loop
      vertex -33.6956 -24.4813 0
      vertex -25 -15.5 0
      vertex -33.2664 -25 0
    endloop
  endfacet
  facet normal 0 0 -1
    outer loop
      vertex -36.4982 -20.065 0
      vertex -25 -15.5 0
      vertex -33.6956 -24.4813 0
    endloop
  endfacet
  facet normal 0 0 -1
    outer loop
      vertex -38.7252 -15.3324 0
      vertex -36 -15.5 0
      vertex -36.4982 -20.065 0
    endloop
  endfacet
  facet normal -0 0 -1
    outer loop
      vertex -25 -15.5 0
      vertex -36.4982 -20.065 0
      vertex -36 -15.5 0
    endloop
  endfacet
  facet normal 0 0 -1
    outer loop
      vertex 38.7252 15.3324 0
      vertex 36 15.5 0
      vertex 36.4982 20.065 0
    endloop
  endfacet
  facet normal 0 0 -1
    outer loop
      vertex 25 15.5 0
      vertex 36.4982 20.065 0
      vertex 36 15.5 0
    endloop
  endfacet
  facet normal -0 0 -1
    outer loop
      vertex 36.4982 20.065 0
      vertex 25 15.5 0
      vertex 33.6956 24.4813 0
    endloop
  endfacet
  facet normal -0 0 -1
    outer loop
      vertex 33.6956 24.4813 0
      vertex 25 15.5 0
      vertex 33.2664 25 0
    endloop
  endfacet
  facet normal 0 0 -1
    outer loop
      vertex 20.3384 2.56933 0
      vertex 25 15.5 0
      vertex 20.5 0 0
    endloop
  endfacet
  facet normal 0 0 -1
    outer loop
      vertex 19.856 5.09814 0
      vertex 25 15.5 0
      vertex 20.3384 2.56933 0
    endloop
  endfacet
  facet normal 0 0 -1
    outer loop
      vertex 19.0604 7.54655 0
      vertex 25 15.5 0
      vertex 19.856 5.09814 0
    endloop
  endfacet
  facet normal 0 0 -1
    outer loop
      vertex 17.9643 9.87595 0
      vertex 25 15.5 0
      vertex 19.0604 7.54655 0
    endloop
  endfacet
  facet normal 0 0 -1
    outer loop
      vertex 16.5848 12.0496 0
      vertex 25 15.5 0
      vertex 17.9643 9.87595 0
    endloop
  endfacet
  facet normal 0 0 -1
    outer loop
      vertex 14.9439 14.0332 0
      vertex 25 15.5 0
      vertex 16.5848 12.0496 0
    endloop
  endfacet
  facet normal 0 0 -1
    outer loop
      vertex 13.0672 15.7955 0
      vertex 25 15.5 0
      vertex 14.9439 14.0332 0
    endloop
  endfacet
  facet normal 0 0 -1
    outer loop
      vertex 10.9844 17.3087 0
      vertex 25 15.5 0
      vertex 13.0672 15.7955 0
    endloop
  endfacet
  facet normal 0 0 -1
    outer loop
      vertex 25 15.5 0
      vertex 10.9844 17.3087 0
      vertex 33.2664 25 0
    endloop
  endfacet
  facet normal 0 0 -1
    outer loop
      vertex 8.72847 18.549 0
      vertex 33.2664 25 0
      vertex 10.9844 17.3087 0
    endloop
  endfacet
  facet normal 0 0 -1
    outer loop
      vertex 6.33485 19.4967 0
      vertex 33.2664 25 0
      vertex 8.72847 18.549 0
    endloop
  endfacet
  facet normal 0 0 -1
    outer loop
      vertex 3.84132 20.1369 0
      vertex 33.2664 25 0
      vertex 6.33485 19.4967 0
    endloop
  endfacet
  facet normal 0 0 -1
    outer loop
      vertex 1.2872 20.4595 0
      vertex 33.2664 25 0
      vertex 3.84132 20.1369 0
    endloop
  endfacet
  facet normal 0 0 -1
    outer loop
      vertex -1.2872 20.4595 0
      vertex 33.2664 25 0
      vertex 1.2872 20.4595 0
    endloop
  endfacet
  facet normal 0 0 -1
    outer loop
      vertex -33.2664 25 0
      vertex -1.2872 20.4595 0
      vertex -3.84132 20.1369 0
    endloop
  endfacet
  facet normal 0 0 -1
    outer loop
      vertex -25 15.5 0
      vertex -20.5 0 0
      vertex -25 -15.5 0
    endloop
  endfacet
  facet normal 0 0 -1
    outer loop
      vertex -20.5 0 0
      vertex -25 15.5 0
      vertex -20.3384 2.56933 0
    endloop
  endfacet
  facet normal 0 0 -1
    outer loop
      vertex -20.3384 2.56933 0
      vertex -25 15.5 0
      vertex -19.856 5.09814 0
    endloop
  endfacet
  facet normal 0 0 -1
    outer loop
      vertex -25 15.5 0
      vertex -19.0604 7.54655 0
      vertex -19.856 5.09814 0
    endloop
  endfacet
  facet normal 0 0 -1
    outer loop
      vertex -25 15.5 0
      vertex -17.9643 9.87595 0
      vertex -19.0604 7.54655 0
    endloop
  endfacet
  facet normal 0 0 -1
    outer loop
      vertex -25 15.5 0
      vertex -16.5848 12.0496 0
      vertex -17.9643 9.87595 0
    endloop
  endfacet
  facet normal 0 0 -1
    outer loop
      vertex -25 15.5 0
      vertex -14.9439 14.0332 0
      vertex -16.5848 12.0496 0
    endloop
  endfacet
  facet normal 0 0 -1
    outer loop
      vertex -25 15.5 0
      vertex -13.0672 15.7955 0
      vertex -14.9439 14.0332 0
    endloop
  endfacet
  facet normal 0 0 -1
    outer loop
      vertex -25 15.5 0
      vertex -10.9844 17.3087 0
      vertex -13.0672 15.7955 0
    endloop
  endfacet
  facet normal 0 0 -1
    outer loop
      vertex -33.2664 25 0
      vertex -10.9844 17.3087 0
      vertex -25 15.5 0
    endloop
  endfacet
  facet normal 0 0 -1
    outer loop
      vertex -10.9844 17.3087 0
      vertex -33.2664 25 0
      vertex -8.72847 18.549 0
    endloop
  endfacet
  facet normal 0 0 -1
    outer loop
      vertex -8.72847 18.549 0
      vertex -33.2664 25 0
      vertex -6.33485 19.4967 0
    endloop
  endfacet
  facet normal 0 0 -1
    outer loop
      vertex -1.2872 20.4595 0
      vertex -33.2664 25 0
      vertex 33.2664 25 0
    endloop
  endfacet
  facet normal 0 0 -1
    outer loop
      vertex -6.33485 19.4967 0
      vertex -33.2664 25 0
      vertex -3.84132 20.1369 0
    endloop
  endfacet
  facet normal 0 0 -1
    outer loop
      vertex -25 15.5 0
      vertex -33.6956 24.4813 0
      vertex -33.2664 25 0
    endloop
  endfacet
  facet normal 0 0 -1
    outer loop
      vertex -36.4982 20.065 0
      vertex -25 15.5 0
      vertex -36 15.5 0
    endloop
  endfacet
  facet normal 0 0 -1
    outer loop
      vertex -25 15.5 0
      vertex -36.4982 20.065 0
      vertex -33.6956 24.4813 0
    endloop
  endfacet
  facet normal 0 0 -1
    outer loop
      vertex -40.3415 -10.3579 0
      vertex -36 -15.5 0
      vertex -38.7252 -15.3324 0
    endloop
  endfacet
  facet normal 0 0 -1
    outer loop
      vertex -41.3216 -5.22013 0
      vertex -36 -15.5 0
      vertex -40.3415 -10.3579 0
    endloop
  endfacet
  facet normal -0 0 -1
    outer loop
      vertex -36 15.5 0
      vertex -38.7252 15.3324 0
      vertex -36.4982 20.065 0
    endloop
  endfacet
  facet normal 0 0 -1
    outer loop
      vertex -41.65 0 0
      vertex -36 -15.5 0
      vertex -41.3216 -5.22013 0
    endloop
  endfacet
  facet normal 0 0 -1
    outer loop
      vertex -36 15.5 0
      vertex -40.3415 10.3579 0
      vertex -38.7252 15.3324 0
    endloop
  endfacet
  facet normal 0 0 -1
    outer loop
      vertex -36 -15.5 0
      vertex -41.65 0 0
      vertex -36 15.5 0
    endloop
  endfacet
  facet normal 0 0 -1
    outer loop
      vertex -36 15.5 0
      vertex -41.3216 5.22013 0
      vertex -40.3415 10.3579 0
    endloop
  endfacet
  facet normal 0 0 -1
    outer loop
      vertex -36 15.5 0
      vertex -41.65 0 0
      vertex -41.3216 5.22013 0
    endloop
  endfacet
  facet normal 0.951056 0.309017 0
    outer loop
      vertex 40.3415 10.3579 10
      vertex 38.7252 15.3324 0
      vertex 38.7252 15.3324 10
    endloop
  endfacet
  facet normal 0.951056 0.309017 0
    outer loop
      vertex 38.7252 15.3324 0
      vertex 40.3415 10.3579 10
      vertex 40.3415 10.3579 0
    endloop
  endfacet
  facet normal 0.982287 0.187382 0
    outer loop
      vertex 41.3216 5.22013 10
      vertex 40.3415 10.3579 0
      vertex 40.3415 10.3579 10
    endloop
  endfacet
  facet normal 0.982287 0.187382 0
    outer loop
      vertex 40.3415 10.3579 0
      vertex 41.3216 5.22013 10
      vertex 41.3216 5.22013 0
    endloop
  endfacet
  facet normal 0.770514 0.637423 0
    outer loop
      vertex 33.6956 24.4813 10
      vertex 33.2664 25 0
      vertex 33.2664 25 10
    endloop
  endfacet
  facet normal 0.770514 0.637423 0
    outer loop
      vertex 33.2664 25 0
      vertex 33.6956 24.4813 10
      vertex 33.6956 24.4813 0
    endloop
  endfacet
  facet normal -0.844328 0.535827 0
    outer loop
      vertex -36.4982 20.065 0
      vertex -33.6956 24.4813 10
      vertex -33.6956 24.4813 0
    endloop
  endfacet
  facet normal -0.844328 0.535827 0
    outer loop
      vertex -33.6956 24.4813 10
      vertex -36.4982 20.065 0
      vertex -36.4982 20.065 10
    endloop
  endfacet
  facet normal -0.951056 0.309017 0
    outer loop
      vertex -40.3415 10.3579 0
      vertex -38.7252 15.3324 10
      vertex -38.7252 15.3324 0
    endloop
  endfacet
  facet normal -0.951056 0.309017 0
    outer loop
      vertex -38.7252 15.3324 10
      vertex -40.3415 10.3579 0
      vertex -40.3415 10.3579 10
    endloop
  endfacet
  facet normal -0.982287 0.187382 0
    outer loop
      vertex -41.3216 5.22013 0
      vertex -40.3415 10.3579 10
      vertex -40.3415 10.3579 0
    endloop
  endfacet
  facet normal -0.982287 0.187382 0
    outer loop
      vertex -40.3415 10.3579 10
      vertex -41.3216 5.22013 0
      vertex -41.3216 5.22013 10
    endloop
  endfacet
  facet normal 0.998027 -0.0627905 0
    outer loop
      vertex 41.3216 -5.22013 10
      vertex 41.65 0 0
      vertex 41.65 0 10
    endloop
  endfacet
  facet normal 0.998027 -0.0627905 0
    outer loop
      vertex 41.65 0 0
      vertex 41.3216 -5.22013 10
      vertex 41.3216 -5.22013 0
    endloop
  endfacet
  facet normal 0.770514 -0.637423 0
    outer loop
      vertex 33.2664 -25 10
      vertex 33.6956 -24.4813 0
      vertex 33.6956 -24.4813 10
    endloop
  endfacet
  facet normal 0.770514 -0.637423 0
    outer loop
      vertex 33.6956 -24.4813 0
      vertex 33.2664 -25 10
      vertex 33.2664 -25 0
    endloop
  endfacet
  facet normal 0.951056 -0.309017 0
    outer loop
      vertex 38.7252 -15.3324 10
      vertex 40.3415 -10.3579 0
      vertex 40.3415 -10.3579 10
    endloop
  endfacet
  facet normal 0.951056 -0.309017 0
    outer loop
      vertex 40.3415 -10.3579 0
      vertex 38.7252 -15.3324 10
      vertex 38.7252 -15.3324 0
    endloop
  endfacet
  facet normal 0.982287 -0.187382 0
    outer loop
      vertex 40.3415 -10.3579 10
      vertex 41.3216 -5.22013 0
      vertex 41.3216 -5.22013 10
    endloop
  endfacet
  facet normal 0.982287 -0.187382 0
    outer loop
      vertex 41.3216 -5.22013 0
      vertex 40.3415 -10.3579 10
      vertex 40.3415 -10.3579 0
    endloop
  endfacet
  facet normal -0.904827 -0.425779 0
    outer loop
      vertex -36.4982 -20.065 0
      vertex -38.7252 -15.3324 10
      vertex -38.7252 -15.3324 0
    endloop
  endfacet
  facet normal -0.904827 -0.425779 0
    outer loop
      vertex -38.7252 -15.3324 10
      vertex -36.4982 -20.065 0
      vertex -36.4982 -20.065 10
    endloop
  endfacet
  facet normal -0.770514 -0.637423 0
    outer loop
      vertex -33.2664 -25 0
      vertex -33.6956 -24.4813 10
      vertex -33.6956 -24.4813 0
    endloop
  endfacet
  facet normal -0.770514 -0.637423 0
    outer loop
      vertex -33.6956 -24.4813 10
      vertex -33.2664 -25 0
      vertex -33.2664 -25 10
    endloop
  endfacet
  facet normal 0.844328 -0.535827 0
    outer loop
      vertex 33.6956 -24.4813 10
      vertex 36.4982 -20.065 0
      vertex 36.4982 -20.065 10
    endloop
  endfacet
  facet normal 0.844328 -0.535827 0
    outer loop
      vertex 36.4982 -20.065 0
      vertex 33.6956 -24.4813 10
      vertex 33.6956 -24.4813 0
    endloop
  endfacet
  facet normal -0.982287 -0.187382 0
    outer loop
      vertex -40.3415 -10.3579 0
      vertex -41.3216 -5.22013 10
      vertex -41.3216 -5.22013 0
    endloop
  endfacet
  facet normal -0.982287 -0.187382 0
    outer loop
      vertex -41.3216 -5.22013 10
      vertex -40.3415 -10.3579 0
      vertex -40.3415 -10.3579 10
    endloop
  endfacet
  facet normal -0.998027 -0.0627905 0
    outer loop
      vertex -41.3216 -5.22013 0
      vertex -41.65 0 10
      vertex -41.65 0 0
    endloop
  endfacet
  facet normal -0.998027 -0.0627905 0
    outer loop
      vertex -41.65 0 10
      vertex -41.3216 -5.22013 0
      vertex -41.3216 -5.22013 10
    endloop
  endfacet
  facet normal -0.951056 -0.309017 0
    outer loop
      vertex -38.7252 -15.3324 0
      vertex -40.3415 -10.3579 10
      vertex -40.3415 -10.3579 0
    endloop
  endfacet
  facet normal -0.951056 -0.309017 0
    outer loop
      vertex -40.3415 -10.3579 10
      vertex -38.7252 -15.3324 0
      vertex -38.7252 -15.3324 10
    endloop
  endfacet
  facet normal 0.904827 -0.425779 0
    outer loop
      vertex 36.4982 -20.065 10
      vertex 38.7252 -15.3324 0
      vertex 38.7252 -15.3324 10
    endloop
  endfacet
  facet normal 0.904827 -0.425779 0
    outer loop
      vertex 38.7252 -15.3324 0
      vertex 36.4982 -20.065 10
      vertex 36.4982 -20.065 0
    endloop
  endfacet
  facet normal -0.844328 -0.535827 0
    outer loop
      vertex -33.6956 -24.4813 0
      vertex -36.4982 -20.065 10
      vertex -36.4982 -20.065 0
    endloop
  endfacet
  facet normal -0.844328 -0.535827 0
    outer loop
      vertex -36.4982 -20.065 10
      vertex -33.6956 -24.4813 0
      vertex -33.6956 -24.4813 10
    endloop
  endfacet
  facet normal -0.844328 -0.535827 0
    outer loop
      vertex 17.9643 9.87595 0
      vertex 16.5848 12.0496 10
      vertex 16.5848 12.0496 0
    endloop
  endfacet
  facet normal -0.844328 -0.535827 0
    outer loop
      vertex 16.5848 12.0496 10
      vertex 17.9643 9.87595 0
      vertex 17.9643 9.87595 10
    endloop
  endfacet
  facet normal -0.24869 -0.968583 0
    outer loop
      vertex 3.84132 20.1369 0
      vertex 6.33485 19.4967 10
      vertex 3.84132 20.1369 10
    endloop
  endfacet
  facet normal -0.24869 -0.968583 -0
    outer loop
      vertex 6.33485 19.4967 10
      vertex 3.84132 20.1369 0
      vertex 6.33485 19.4967 0
    endloop
  endfacet
  facet normal -0.368125 -0.929776 0
    outer loop
      vertex 6.33485 19.4967 0
      vertex 8.72847 18.549 10
      vertex 6.33485 19.4967 10
    endloop
  endfacet
  facet normal -0.368125 -0.929776 -0
    outer loop
      vertex 8.72847 18.549 10
      vertex 6.33485 19.4967 0
      vertex 8.72847 18.549 0
    endloop
  endfacet
  facet normal 0.368125 -0.929776 0
    outer loop
      vertex -8.72847 18.549 0
      vertex -6.33485 19.4967 10
      vertex -8.72847 18.549 10
    endloop
  endfacet
  facet normal 0.368125 -0.929776 0
    outer loop
      vertex -6.33485 19.4967 10
      vertex -8.72847 18.549 0
      vertex -6.33485 19.4967 0
    endloop
  endfacet
  facet normal 0.904827 -0.425779 0
    outer loop
      vertex -19.0604 7.54655 10
      vertex -17.9643 9.87595 0
      vertex -17.9643 9.87595 10
    endloop
  endfacet
  facet normal 0.904827 -0.425779 0
    outer loop
      vertex -17.9643 9.87595 0
      vertex -19.0604 7.54655 10
      vertex -19.0604 7.54655 0
    endloop
  endfacet
  facet normal -0.684547 -0.728969 0
    outer loop
      vertex 13.0672 15.7955 0
      vertex 14.9439 14.0332 10
      vertex 13.0672 15.7955 10
    endloop
  endfacet
  facet normal -0.684547 -0.728969 -0
    outer loop
      vertex 14.9439 14.0332 10
      vertex 13.0672 15.7955 0
      vertex 14.9439 14.0332 0
    endloop
  endfacet
  facet normal -0.125333 -0.992115 0
    outer loop
      vertex 1.2872 20.4595 0
      vertex 3.84132 20.1369 10
      vertex 1.2872 20.4595 10
    endloop
  endfacet
  facet normal -0.125333 -0.992115 -0
    outer loop
      vertex 3.84132 20.1369 10
      vertex 1.2872 20.4595 0
      vertex 3.84132 20.1369 0
    endloop
  endfacet
  facet normal -0.481754 -0.876307 0
    outer loop
      vertex 8.72847 18.549 0
      vertex 10.9844 17.3087 10
      vertex 8.72847 18.549 10
    endloop
  endfacet
  facet normal -0.481754 -0.876307 -0
    outer loop
      vertex 10.9844 17.3087 10
      vertex 8.72847 18.549 0
      vertex 10.9844 17.3087 0
    endloop
  endfacet
  facet normal 0.998027 -0.0627902 0
    outer loop
      vertex -20.5 0 10
      vertex -20.3384 2.56933 0
      vertex -20.3384 2.56933 10
    endloop
  endfacet
  facet normal 0.998027 -0.0627902 0
    outer loop
      vertex -20.3384 2.56933 0
      vertex -20.5 0 10
      vertex -20.5 0 0
    endloop
  endfacet
  facet normal 0.770514 -0.637424 0
    outer loop
      vertex -16.5848 12.0496 10
      vertex -14.9439 14.0332 0
      vertex -14.9439 14.0332 10
    endloop
  endfacet
  facet normal 0.770514 -0.637424 0
    outer loop
      vertex -14.9439 14.0332 0
      vertex -16.5848 12.0496 10
      vertex -16.5848 12.0496 0
    endloop
  endfacet
  facet normal 0.125333 -0.992115 0
    outer loop
      vertex -3.84132 20.1369 0
      vertex -1.2872 20.4595 10
      vertex -3.84132 20.1369 10
    endloop
  endfacet
  facet normal 0.125333 -0.992115 0
    outer loop
      vertex -1.2872 20.4595 10
      vertex -3.84132 20.1369 0
      vertex -1.2872 20.4595 0
    endloop
  endfacet
  facet normal 0.684547 -0.728969 0
    outer loop
      vertex -14.9439 14.0332 0
      vertex -13.0672 15.7955 10
      vertex -14.9439 14.0332 10
    endloop
  endfacet
  facet normal 0.684547 -0.728969 0
    outer loop
      vertex -13.0672 15.7955 10
      vertex -14.9439 14.0332 0
      vertex -13.0672 15.7955 0
    endloop
  endfacet
  facet normal 0.684547 0.728969 -0
    outer loop
      vertex -13.0672 -15.7955 0
      vertex -14.9439 -14.0332 10
      vertex -13.0672 -15.7955 10
    endloop
  endfacet
  facet normal 0.684547 0.728969 0
    outer loop
      vertex -14.9439 -14.0332 10
      vertex -13.0672 -15.7955 0
      vertex -14.9439 -14.0332 0
    endloop
  endfacet
  facet normal 0.904827 0.425779 0
    outer loop
      vertex -17.9643 -9.87595 10
      vertex -19.0604 -7.54655 0
      vertex -19.0604 -7.54655 10
    endloop
  endfacet
  facet normal 0.904827 0.425779 0
    outer loop
      vertex -19.0604 -7.54655 0
      vertex -17.9643 -9.87595 10
      vertex -17.9643 -9.87595 0
    endloop
  endfacet
  facet normal -0.481754 0.876307 0
    outer loop
      vertex 10.9844 -17.3087 0
      vertex 8.72847 -18.549 10
      vertex 10.9844 -17.3087 10
    endloop
  endfacet
  facet normal -0.481754 0.876307 0
    outer loop
      vertex 8.72847 -18.549 10
      vertex 10.9844 -17.3087 0
      vertex 8.72847 -18.549 0
    endloop
  endfacet
  facet normal -0.770514 -0.637424 0
    outer loop
      vertex 16.5848 12.0496 0
      vertex 14.9439 14.0332 10
      vertex 14.9439 14.0332 0
    endloop
  endfacet
  facet normal -0.770514 -0.637424 0
    outer loop
      vertex 14.9439 14.0332 10
      vertex 16.5848 12.0496 0
      vertex 16.5848 12.0496 10
    endloop
  endfacet
  facet normal 0 -1 0
    outer loop
      vertex -1.2872 20.4595 0
      vertex 1.2872 20.4595 10
      vertex -1.2872 20.4595 10
    endloop
  endfacet
  facet normal 0 -1 -0
    outer loop
      vertex 1.2872 20.4595 10
      vertex -1.2872 20.4595 0
      vertex 1.2872 20.4595 0
    endloop
  endfacet
  facet normal -0.587785 -0.809017 0
    outer loop
      vertex 10.9844 17.3087 0
      vertex 13.0672 15.7955 10
      vertex 10.9844 17.3087 10
    endloop
  endfacet
  facet normal -0.587785 -0.809017 -0
    outer loop
      vertex 13.0672 15.7955 10
      vertex 10.9844 17.3087 0
      vertex 13.0672 15.7955 0
    endloop
  endfacet
  facet normal 0.951057 -0.309017 0
    outer loop
      vertex -19.856 5.09814 10
      vertex -19.0604 7.54655 0
      vertex -19.0604 7.54655 10
    endloop
  endfacet
  facet normal 0.951057 -0.309017 0
    outer loop
      vertex -19.0604 7.54655 0
      vertex -19.856 5.09814 10
      vertex -19.856 5.09814 0
    endloop
  endfacet
  facet normal 0.982287 -0.187382 0
    outer loop
      vertex -20.3384 2.56933 10
      vertex -19.856 5.09814 0
      vertex -19.856 5.09814 10
    endloop
  endfacet
  facet normal 0.982287 -0.187382 0
    outer loop
      vertex -19.856 5.09814 0
      vertex -20.3384 2.56933 10
      vertex -20.3384 2.56933 0
    endloop
  endfacet
  facet normal 0.844328 -0.535827 0
    outer loop
      vertex -17.9643 9.87595 10
      vertex -16.5848 12.0496 0
      vertex -16.5848 12.0496 10
    endloop
  endfacet
  facet normal 0.844328 -0.535827 0
    outer loop
      vertex -16.5848 12.0496 0
      vertex -17.9643 9.87595 10
      vertex -17.9643 9.87595 0
    endloop
  endfacet
  facet normal 0.24869 -0.968583 0
    outer loop
      vertex -6.33485 19.4967 0
      vertex -3.84132 20.1369 10
      vertex -6.33485 19.4967 10
    endloop
  endfacet
  facet normal 0.24869 -0.968583 0
    outer loop
      vertex -3.84132 20.1369 10
      vertex -6.33485 19.4967 0
      vertex -3.84132 20.1369 0
    endloop
  endfacet
  facet normal 0.587785 -0.809017 0
    outer loop
      vertex -13.0672 15.7955 0
      vertex -10.9844 17.3087 10
      vertex -13.0672 15.7955 10
    endloop
  endfacet
  facet normal 0.587785 -0.809017 0
    outer loop
      vertex -10.9844 17.3087 10
      vertex -13.0672 15.7955 0
      vertex -10.9844 17.3087 0
    endloop
  endfacet
  facet normal 0.481754 -0.876307 0
    outer loop
      vertex -10.9844 17.3087 0
      vertex -8.72847 18.549 10
      vertex -10.9844 17.3087 10
    endloop
  endfacet
  facet normal 0.481754 -0.876307 0
    outer loop
      vertex -8.72847 18.549 10
      vertex -10.9844 17.3087 0
      vertex -8.72847 18.549 0
    endloop
  endfacet
  facet normal -0.998027 -0.0627902 0
    outer loop
      vertex 20.5 0 0
      vertex 20.3384 2.56933 10
      vertex 20.3384 2.56933 0
    endloop
  endfacet
  facet normal -0.998027 -0.0627902 0
    outer loop
      vertex 20.3384 2.56933 10
      vertex 20.5 0 0
      vertex 20.5 0 10
    endloop
  endfacet
  facet normal -0.998027 0.0627902 0
    outer loop
      vertex 20.3384 -2.56933 0
      vertex 20.5 0 10
      vertex 20.5 0 0
    endloop
  endfacet
  facet normal -0.998027 0.0627902 0
    outer loop
      vertex 20.5 0 10
      vertex 20.3384 -2.56933 0
      vertex 20.3384 -2.56933 10
    endloop
  endfacet
  facet normal -0.982287 0.187382 0
    outer loop
      vertex 19.856 -5.09814 0
      vertex 20.3384 -2.56933 10
      vertex 20.3384 -2.56933 0
    endloop
  endfacet
  facet normal -0.982287 0.187382 0
    outer loop
      vertex 20.3384 -2.56933 10
      vertex 19.856 -5.09814 0
      vertex 19.856 -5.09814 10
    endloop
  endfacet
  facet normal -0.770514 0.637424 0
    outer loop
      vertex 14.9439 -14.0332 0
      vertex 16.5848 -12.0496 10
      vertex 16.5848 -12.0496 0
    endloop
  endfacet
  facet normal -0.770514 0.637424 0
    outer loop
      vertex 16.5848 -12.0496 10
      vertex 14.9439 -14.0332 0
      vertex 14.9439 -14.0332 10
    endloop
  endfacet
  facet normal 0 1 -0
    outer loop
      vertex 1.2872 -20.4595 0
      vertex -1.2872 -20.4595 10
      vertex 1.2872 -20.4595 10
    endloop
  endfacet
  facet normal 0 1 0
    outer loop
      vertex -1.2872 -20.4595 10
      vertex 1.2872 -20.4595 0
      vertex -1.2872 -20.4595 0
    endloop
  endfacet
  facet normal 0.844328 0.535827 0
    outer loop
      vertex -16.5848 -12.0496 10
      vertex -17.9643 -9.87595 0
      vertex -17.9643 -9.87595 10
    endloop
  endfacet
  facet normal 0.844328 0.535827 0
    outer loop
      vertex -17.9643 -9.87595 0
      vertex -16.5848 -12.0496 10
      vertex -16.5848 -12.0496 0
    endloop
  endfacet
  facet normal -0.125333 0.992115 0
    outer loop
      vertex 3.84132 -20.1369 0
      vertex 1.2872 -20.4595 10
      vertex 3.84132 -20.1369 10
    endloop
  endfacet
  facet normal -0.125333 0.992115 0
    outer loop
      vertex 1.2872 -20.4595 10
      vertex 3.84132 -20.1369 0
      vertex 1.2872 -20.4595 0
    endloop
  endfacet
  facet normal -0.904827 -0.425779 0
    outer loop
      vertex 19.0604 7.54655 0
      vertex 17.9643 9.87595 10
      vertex 17.9643 9.87595 0
    endloop
  endfacet
  facet normal -0.904827 -0.425779 0
    outer loop
      vertex 17.9643 9.87595 10
      vertex 19.0604 7.54655 0
      vertex 19.0604 7.54655 10
    endloop
  endfacet
  facet normal -0.951057 -0.309017 0
    outer loop
      vertex 19.856 5.09814 0
      vertex 19.0604 7.54655 10
      vertex 19.0604 7.54655 0
    endloop
  endfacet
  facet normal -0.951057 -0.309017 0
    outer loop
      vertex 19.0604 7.54655 10
      vertex 19.856 5.09814 0
      vertex 19.856 5.09814 10
    endloop
  endfacet
  facet normal -0.982287 -0.187382 0
    outer loop
      vertex 20.3384 2.56933 0
      vertex 19.856 5.09814 10
      vertex 19.856 5.09814 0
    endloop
  endfacet
  facet normal -0.982287 -0.187382 0
    outer loop
      vertex 19.856 5.09814 10
      vertex 20.3384 2.56933 0
      vertex 20.3384 2.56933 10
    endloop
  endfacet
  facet normal -0.904827 0.425779 0
    outer loop
      vertex 17.9643 -9.87595 0
      vertex 19.0604 -7.54655 10
      vertex 19.0604 -7.54655 0
    endloop
  endfacet
  facet normal -0.904827 0.425779 0
    outer loop
      vertex 19.0604 -7.54655 10
      vertex 17.9643 -9.87595 0
      vertex 17.9643 -9.87595 10
    endloop
  endfacet
  facet normal 0.24869 0.968583 -0
    outer loop
      vertex -3.84132 -20.1369 0
      vertex -6.33485 -19.4967 10
      vertex -3.84132 -20.1369 10
    endloop
  endfacet
  facet normal 0.24869 0.968583 0
    outer loop
      vertex -6.33485 -19.4967 10
      vertex -3.84132 -20.1369 0
      vertex -6.33485 -19.4967 0
    endloop
  endfacet
  facet normal 0.951057 0.309017 0
    outer loop
      vertex -19.0604 -7.54655 10
      vertex -19.856 -5.09814 0
      vertex -19.856 -5.09814 10
    endloop
  endfacet
  facet normal 0.951057 0.309017 0
    outer loop
      vertex -19.856 -5.09814 0
      vertex -19.0604 -7.54655 10
      vertex -19.0604 -7.54655 0
    endloop
  endfacet
  facet normal 0.982287 0.187382 0
    outer loop
      vertex -19.856 -5.09814 10
      vertex -20.3384 -2.56933 0
      vertex -20.3384 -2.56933 10
    endloop
  endfacet
  facet normal 0.982287 0.187382 0
    outer loop
      vertex -20.3384 -2.56933 0
      vertex -19.856 -5.09814 10
      vertex -19.856 -5.09814 0
    endloop
  endfacet
  facet normal 0.998027 0.0627902 0
    outer loop
      vertex -20.3384 -2.56933 10
      vertex -20.5 0 0
      vertex -20.5 0 10
    endloop
  endfacet
  facet normal 0.998027 0.0627902 0
    outer loop
      vertex -20.5 0 0
      vertex -20.3384 -2.56933 10
      vertex -20.3384 -2.56933 0
    endloop
  endfacet
  facet normal 0.770514 0.637424 0
    outer loop
      vertex -14.9439 -14.0332 10
      vertex -16.5848 -12.0496 0
      vertex -16.5848 -12.0496 10
    endloop
  endfacet
  facet normal 0.770514 0.637424 0
    outer loop
      vertex -16.5848 -12.0496 0
      vertex -14.9439 -14.0332 10
      vertex -14.9439 -14.0332 0
    endloop
  endfacet
  facet normal -0.368125 0.929776 0
    outer loop
      vertex 8.72847 -18.549 0
      vertex 6.33485 -19.4967 10
      vertex 8.72847 -18.549 10
    endloop
  endfacet
  facet normal -0.368125 0.929776 0
    outer loop
      vertex 6.33485 -19.4967 10
      vertex 8.72847 -18.549 0
      vertex 6.33485 -19.4967 0
    endloop
  endfacet
  facet normal -0.24869 0.968583 0
    outer loop
      vertex 6.33485 -19.4967 0
      vertex 3.84132 -20.1369 10
      vertex 6.33485 -19.4967 10
    endloop
  endfacet
  facet normal -0.24869 0.968583 0
    outer loop
      vertex 3.84132 -20.1369 10
      vertex 6.33485 -19.4967 0
      vertex 3.84132 -20.1369 0
    endloop
  endfacet
  facet normal -0.684547 0.728969 0
    outer loop
      vertex 14.9439 -14.0332 0
      vertex 13.0672 -15.7955 10
      vertex 14.9439 -14.0332 10
    endloop
  endfacet
  facet normal -0.684547 0.728969 0
    outer loop
      vertex 13.0672 -15.7955 10
      vertex 14.9439 -14.0332 0
      vertex 13.0672 -15.7955 0
    endloop
  endfacet
  facet normal -0.844328 0.535827 0
    outer loop
      vertex 16.5848 -12.0496 0
      vertex 17.9643 -9.87595 10
      vertex 17.9643 -9.87595 0
    endloop
  endfacet
  facet normal -0.844328 0.535827 0
    outer loop
      vertex 17.9643 -9.87595 10
      vertex 16.5848 -12.0496 0
      vertex 16.5848 -12.0496 10
    endloop
  endfacet
  facet normal -0.951057 0.309017 0
    outer loop
      vertex 19.0604 -7.54655 0
      vertex 19.856 -5.09814 10
      vertex 19.856 -5.09814 0
    endloop
  endfacet
  facet normal -0.951057 0.309017 0
    outer loop
      vertex 19.856 -5.09814 10
      vertex 19.0604 -7.54655 0
      vertex 19.0604 -7.54655 10
    endloop
  endfacet
  facet normal 0.125333 0.992115 -0
    outer loop
      vertex -1.2872 -20.4595 0
      vertex -3.84132 -20.1369 10
      vertex -1.2872 -20.4595 10
    endloop
  endfacet
  facet normal 0.125333 0.992115 0
    outer loop
      vertex -3.84132 -20.1369 10
      vertex -1.2872 -20.4595 0
      vertex -3.84132 -20.1369 0
    endloop
  endfacet
  facet normal 0.481754 0.876307 -0
    outer loop
      vertex -8.72847 -18.549 0
      vertex -10.9844 -17.3087 10
      vertex -8.72847 -18.549 10
    endloop
  endfacet
  facet normal 0.481754 0.876307 0
    outer loop
      vertex -10.9844 -17.3087 10
      vertex -8.72847 -18.549 0
      vertex -10.9844 -17.3087 0
    endloop
  endfacet
  facet normal -0.587785 0.809017 0
    outer loop
      vertex 13.0672 -15.7955 0
      vertex 10.9844 -17.3087 10
      vertex 13.0672 -15.7955 10
    endloop
  endfacet
  facet normal -0.587785 0.809017 0
    outer loop
      vertex 10.9844 -17.3087 10
      vertex 13.0672 -15.7955 0
      vertex 10.9844 -17.3087 0
    endloop
  endfacet
  facet normal 0.587785 0.809017 -0
    outer loop
      vertex -10.9844 -17.3087 0
      vertex -13.0672 -15.7955 10
      vertex -10.9844 -17.3087 10
    endloop
  endfacet
  facet normal 0.587785 0.809017 0
    outer loop
      vertex -13.0672 -15.7955 10
      vertex -10.9844 -17.3087 0
      vertex -13.0672 -15.7955 0
    endloop
  endfacet
  facet normal 0.368125 0.929776 -0
    outer loop
      vertex -6.33485 -19.4967 0
      vertex -8.72847 -18.549 10
      vertex -6.33485 -19.4967 10
    endloop
  endfacet
  facet normal 0.368125 0.929776 0
    outer loop
      vertex -8.72847 -18.549 10
      vertex -6.33485 -19.4967 0
      vertex -8.72847 -18.549 0
    endloop
  endfacet
  facet normal 1 -0 0
    outer loop
      vertex 25 -15.5 10
      vertex 25 15.5 0
      vertex 25 15.5 10
    endloop
  endfacet
  facet normal 1 0 0
    outer loop
      vertex 25 15.5 0
      vertex 25 -15.5 10
      vertex 25 -15.5 0
    endloop
  endfacet
  facet normal -1 0 0
    outer loop
      vertex 36 -15.5 0
      vertex 36 15.5 10
      vertex 36 15.5 0
    endloop
  endfacet
  facet normal -1 -0 0
    outer loop
      vertex 36 15.5 10
      vertex 36 -15.5 0
      vertex 36 -15.5 10
    endloop
  endfacet
  facet normal 0 -1 0
    outer loop
      vertex 25 15.5 0
      vertex 36 15.5 10
      vertex 25 15.5 10
    endloop
  endfacet
  facet normal 0 -1 -0
    outer loop
      vertex 36 15.5 10
      vertex 25 15.5 0
      vertex 36 15.5 0
    endloop
  endfacet
  facet normal 0 1 -0
    outer loop
      vertex 36 -15.5 0
      vertex 25 -15.5 10
      vertex 36 -15.5 10
    endloop
  endfacet
  facet normal 0 1 0
    outer loop
      vertex 25 -15.5 10
      vertex 36 -15.5 0
      vertex 25 -15.5 0
    endloop
  endfacet
  facet normal 1 -0 0
    outer loop
      vertex -36 -15.5 10
      vertex -36 15.5 0
      vertex -36 15.5 10
    endloop
  endfacet
  facet normal 1 0 0
    outer loop
      vertex -36 15.5 0
      vertex -36 -15.5 10
      vertex -36 -15.5 0
    endloop
  endfacet
  facet normal -1 0 0
    outer loop
      vertex -25 -15.5 0
      vertex -25 15.5 10
      vertex -25 15.5 0
    endloop
  endfacet
  facet normal -1 -0 0
    outer loop
      vertex -25 15.5 10
      vertex -25 -15.5 0
      vertex -25 -15.5 10
    endloop
  endfacet
  facet normal 0 1 -0
    outer loop
      vertex -25 -15.5 0
      vertex -36 -15.5 10
      vertex -25 -15.5 10
    endloop
  endfacet
  facet normal 0 1 0
    outer loop
      vertex -36 -15.5 10
      vertex -25 -15.5 0
      vertex -36 -15.5 0
    endloop
  endfacet
  facet normal 0 -1 0
    outer loop
      vertex -36 15.5 0
      vertex -25 15.5 10
      vertex -36 15.5 10
    endloop
  endfacet
  facet normal 0 -1 -0
    outer loop
      vertex -25 15.5 10
      vertex -36 15.5 0
      vertex -25 15.5 0
    endloop
  endfacet
  facet normal 0 -1 0
    outer loop
      vertex -33.2664 -25 0
      vertex 33.2664 -25 10
      vertex -33.2664 -25 10
    endloop
  endfacet
  facet normal 0 -1 -0
    outer loop
      vertex 33.2664 -25 10
      vertex -33.2664 -25 0
      vertex 33.2664 -25 0
    endloop
  endfacet
  facet normal 0 1 -0
    outer loop
      vertex 33.2664 25 0
      vertex -33.2664 25 10
      vertex 33.2664 25 10
    endloop
  endfacet
  facet normal 0 1 0
    outer loop
      vertex -33.2664 25 10
      vertex 33.2664 25 0
      vertex -33.2664 25 0
    endloop
  endfacet
endsolid OpenSCAD_Model
