solid model
  facet normal 0 1 0
    outer loop
      vertex -21 -22.295 0
      vertex -21 -22.295 6
      vertex -3 -22.295 0
    endloop
  endfacet
  facet normal 1 0 0
    outer loop
      vertex -21 -22.295 0
      vertex -21 -3 6
      vertex -21 -22.295 6
    endloop
  endfacet
  facet normal 1 0 0
    outer loop
      vertex -21 -22.295 0
      vertex -21 0 3
      vertex -21 -3 6
    endloop
  endfacet
  facet normal 1 0 0
    outer loop
      vertex -21 -22.295 0
      vertex -21 22.295 0
      vertex -21 0 3
    endloop
  endfacet
  facet normal 0 0 -1
    outer loop
      vertex -21 -22.295 0
      vertex -3 -22.295 0
      vertex -3 -27.295 0
    endloop
  endfacet
  facet normal 0 1 -0
    outer loop
      vertex -21 -22.295 6
      vertex 0 -22.295 3
      vertex -3 -22.295 0
    endloop
  endfacet
  facet normal 0 1 0
    outer loop
      vertex -21 -22.295 6
      vertex 21 -22.295 6
      vertex 0 -22.295 3
    endloop
  endfacet
  facet normal -0 0 1
    outer loop
      vertex -21 -22.295 6
      vertex 26 -27.295 6
      vertex 21 -22.295 6
    endloop
  endfacet
  facet normal 1 -0 0
    outer loop
      vertex -21 0 3
      vertex -21 22.295 0
      vertex -21 3 6
    endloop
  endfacet
  facet normal 0 -1 0
    outer loop
      vertex -21 22.295 0
      vertex -3 22.295 0
      vertex -21 22.295 6
    endloop
  endfacet
  facet normal 0 0 -1
    outer loop
      vertex -21 22.295 0
      vertex -3 27.295 0
      vertex -3 22.295 0
    endloop
  endfacet
  facet normal 0 -1 0
    outer loop
      vertex -21 22.295 6
      vertex -3 22.295 0
      vertex 0 22.295 3
    endloop
  endfacet
  facet normal 0 -1 0
    outer loop
      vertex -21 22.295 6
      vertex 0 22.295 3
      vertex 21 22.295 6
    endloop
  endfacet
  facet normal 0 0 1
    outer loop
      vertex -21 22.295 6
      vertex 21 22.295 6
      vertex 26 27.295 6
    endloop
  endfacet
  facet normal 1 -0 0
    outer loop
      vertex -21 3 6
      vertex -21 22.295 0
      vertex -21 22.295 6
    endloop
  endfacet
  facet normal 0 0 -1
    outer loop
      vertex -26 -27.295 0
      vertex -21 -22.295 0
      vertex -3 -27.295 0
    endloop
  endfacet
  facet normal -0 0 -1
    outer loop
      vertex -26 -27.295 0
      vertex -21 22.295 0
      vertex -21 -22.295 0
    endloop
  endfacet
  facet normal -1 -0 0
    outer loop
      vertex -26 -27.295 0
      vertex -26 -27.295 6
      vertex -26 -3 6
    endloop
  endfacet
  facet normal -1 0 0
    outer loop
      vertex -26 -27.295 0
      vertex -26 -3 6
      vertex -26 0 3
    endloop
  endfacet
  facet normal -1 0 0
    outer loop
      vertex -26 -27.295 0
      vertex -26 0 3
      vertex -26 27.295 0
    endloop
  endfacet
  facet normal 0 0 -1
    outer loop
      vertex -26 -27.295 0
      vertex -26 27.295 0
      vertex -21 22.295 0
    endloop
  endfacet
  facet normal 0 -1 0
    outer loop
      vertex -26 -27.295 0
      vertex -3 -27.295 0
      vertex -26 -27.295 6
    endloop
  endfacet
  facet normal 0 0 1
    outer loop
      vertex -26 -27.295 6
      vertex -21 -22.295 6
      vertex -26 -3 6
    endloop
  endfacet
  facet normal 0 -1 0
    outer loop
      vertex -26 -27.295 6
      vertex -3 -27.295 0
      vertex 0 -27.295 3
    endloop
  endfacet
  facet normal 0 -1 0
    outer loop
      vertex -26 -27.295 6
      vertex 0 -27.295 3
      vertex 26 -27.295 6
    endloop
  endfacet
  facet normal 0 0 1
    outer loop
      vertex -26 -27.295 6
      vertex 26 -27.295 6
      vertex -21 -22.295 6
    endloop
  endfacet
  facet normal 0 0 1
    outer loop
      vertex -26 -3 6
      vertex -21 -22.295 6
      vertex -21 -3 6
    endloop
  endfacet
  facet normal 0 0.707107 0.707107
    outer loop
      vertex -26 -3 6
      vertex -21 -3 6
      vertex -21 0 3
    endloop
  endfacet
  facet normal 0 0.707107 0.707107
    outer loop
      vertex -26 -3 6
      vertex -21 0 3
      vertex -26 0 3
    endloop
  endfacet
  facet normal 0 -0.707107 0.707107
    outer loop
      vertex -26 0 3
      vertex -21 0 3
      vertex -21 3 6
    endloop
  endfacet
  facet normal 0 -0.707107 0.707107
    outer loop
      vertex -26 0 3
      vertex -21 3 6
      vertex -26 3 6
    endloop
  endfacet
  facet normal -1 0 0
    outer loop
      vertex -26 0 3
      vertex -26 3 6
      vertex -26 27.295 0
    endloop
  endfacet
  facet normal 0 1 0
    outer loop
      vertex -26 27.295 0
      vertex -26 27.295 6
      vertex -3 27.295 0
    endloop
  endfacet
  facet normal 0 0 -1
    outer loop
      vertex -26 27.295 0
      vertex -3 27.295 0
      vertex -21 22.295 0
    endloop
  endfacet
  facet normal -0 0 1
    outer loop
      vertex -26 27.295 6
      vertex -21 22.295 6
      vertex 26 27.295 6
    endloop
  endfacet
  facet normal 0 1 -0
    outer loop
      vertex -26 27.295 6
      vertex 0 27.295 3
      vertex -3 27.295 0
    endloop
  endfacet
  facet normal 0 1 0
    outer loop
      vertex -26 27.295 6
      vertex 26 27.295 6
      vertex 0 27.295 3
    endloop
  endfacet
  facet normal 0 0 1
    outer loop
      vertex -26 3 6
      vertex -21 22.295 6
      vertex -26 27.295 6
    endloop
  endfacet
  facet normal 0 0 1
    outer loop
      vertex -26 3 6
      vertex -21 3 6
      vertex -21 22.295 6
    endloop
  endfacet
  facet normal -1 0 0
    outer loop
      vertex -26 3 6
      vertex -26 27.295 6
      vertex -26 27.295 0
    endloop
  endfacet
  facet normal 0.707107 0 -0.707107
    outer loop
      vertex -3 -27.295 0
      vertex -3 -22.295 0
      vertex 0 -22.295 3
    endloop
  endfacet
  facet normal 0.707107 0 -0.707107
    outer loop
      vertex -3 -27.295 0
      vertex 0 -22.295 3
      vertex 0 -27.295 3
    endloop
  endfacet
  facet normal 0.707107 0 -0.707107
    outer loop
      vertex -3 22.295 0
      vertex -3 27.295 0
      vertex 0 27.295 3
    endloop
  endfacet
  facet normal 0.707107 0 -0.707107
    outer loop
      vertex -3 22.295 0
      vertex 0 27.295 3
      vertex 0 22.295 3
    endloop
  endfacet
  facet normal 0 1 0
    outer loop
      vertex 0 -22.295 3
      vertex 21 -22.295 6
      vertex 3 -22.295 0
    endloop
  endfacet
  facet normal -0.707107 0 -0.707107
    outer loop
      vertex 0 -27.295 3
      vertex 0 -22.295 3
      vertex 3 -22.295 0
    endloop
  endfacet
  facet normal -0.707107 0 -0.707107
    outer loop
      vertex 0 -27.295 3
      vertex 3 -22.295 0
      vertex 3 -27.295 0
    endloop
  endfacet
  facet normal 0 -1 0
    outer loop
      vertex 0 -27.295 3
      vertex 3 -27.295 0
      vertex 26 -27.295 6
    endloop
  endfacet
  facet normal -0.707107 0 -0.707107
    outer loop
      vertex 0 22.295 3
      vertex 0 27.295 3
      vertex 3 27.295 0
    endloop
  endfacet
  facet normal 0 -1 0
    outer loop
      vertex 0 22.295 3
      vertex 3 22.295 0
      vertex 21 22.295 6
    endloop
  endfacet
  facet normal -0.707107 0 -0.707107
    outer loop
      vertex 0 22.295 3
      vertex 3 27.295 0
      vertex 3 22.295 0
    endloop
  endfacet
  facet normal 0 1 0
    outer loop
      vertex 0 27.295 3
      vertex 26 27.295 6
      vertex 3 27.295 0
    endloop
  endfacet
  facet normal -1 -0 0
    outer loop
      vertex 21 -22.295 0
      vertex 21 -22.295 6
      vertex 21 -3 6
    endloop
  endfacet
  facet normal -1 0 0
    outer loop
      vertex 21 -22.295 0
      vertex 21 -3 6
      vertex 21 0 3
    endloop
  endfacet
  facet normal -1 0 0
    outer loop
      vertex 21 -22.295 0
      vertex 21 0 3
      vertex 21 22.295 0
    endloop
  endfacet
  facet normal 0 0 -1
    outer loop
      vertex 21 -22.295 0
      vertex 21 22.295 0
      vertex 26 27.295 0
    endloop
  endfacet
  facet normal 0 0 -1
    outer loop
      vertex 21 -22.295 0
      vertex 26 27.295 0
      vertex 26 -27.295 0
    endloop
  endfacet
  facet normal 0 0 1
    outer loop
      vertex 21 -22.295 6
      vertex 26 -27.295 6
      vertex 26 -3 6
    endloop
  endfacet
  facet normal 0 0 1
    outer loop
      vertex 21 -22.295 6
      vertex 26 -3 6
      vertex 21 -3 6
    endloop
  endfacet
  facet normal 0 0.707107 0.707107
    outer loop
      vertex 21 -3 6
      vertex 26 -3 6
      vertex 26 0 3
    endloop
  endfacet
  facet normal 0 0.707107 0.707107
    outer loop
      vertex 21 -3 6
      vertex 26 0 3
      vertex 21 0 3
    endloop
  endfacet
  facet normal -1 0 0
    outer loop
      vertex 21 0 3
      vertex 21 3 6
      vertex 21 22.295 0
    endloop
  endfacet
  facet normal 0 -0.707107 0.707107
    outer loop
      vertex 21 0 3
      vertex 26 0 3
      vertex 26 3 6
    endloop
  endfacet
  facet normal 0 -0.707107 0.707107
    outer loop
      vertex 21 0 3
      vertex 26 3 6
      vertex 21 3 6
    endloop
  endfacet
  facet normal 0 0 1
    outer loop
      vertex 21 22.295 6
      vertex 26 3 6
      vertex 26 27.295 6
    endloop
  endfacet
  facet normal -1 0 0
    outer loop
      vertex 21 3 6
      vertex 21 22.295 6
      vertex 21 22.295 0
    endloop
  endfacet
  facet normal 0 0 1
    outer loop
      vertex 21 3 6
      vertex 26 3 6
      vertex 21 22.295 6
    endloop
  endfacet
  facet normal 1 0 0
    outer loop
      vertex 26 -27.295 0
      vertex 26 -3 6
      vertex 26 -27.295 6
    endloop
  endfacet
  facet normal 1 0 0
    outer loop
      vertex 26 -27.295 0
      vertex 26 0 3
      vertex 26 -3 6
    endloop
  endfacet
  facet normal 1 0 0
    outer loop
      vertex 26 -27.295 0
      vertex 26 27.295 0
      vertex 26 0 3
    endloop
  endfacet
  facet normal 1 -0 0
    outer loop
      vertex 26 0 3
      vertex 26 27.295 0
      vertex 26 3 6
    endloop
  endfacet
  facet normal 1 -0 0
    outer loop
      vertex 26 3 6
      vertex 26 27.295 0
      vertex 26 27.295 6
    endloop
  endfacet
  facet normal 0 1 0
    outer loop
      vertex 3 -22.295 0
      vertex 21 -22.295 6
      vertex 21 -22.295 0
    endloop
  endfacet
  facet normal 0 0 -1
    outer loop
      vertex 3 -27.295 0
      vertex 21 -22.295 0
      vertex 26 -27.295 0
    endloop
  endfacet
  facet normal 0 -1 -0
    outer loop
      vertex 3 -27.295 0
      vertex 26 -27.295 0
      vertex 26 -27.295 6
    endloop
  endfacet
  facet normal -0 0 -1
    outer loop
      vertex 3 -27.295 0
      vertex 3 -22.295 0
      vertex 21 -22.295 0
    endloop
  endfacet
  facet normal 0 -1 -0
    outer loop
      vertex 3 22.295 0
      vertex 21 22.295 0
      vertex 21 22.295 6
    endloop
  endfacet
  facet normal 0 0 -1
    outer loop
      vertex 3 22.295 0
      vertex 3 27.295 0
      vertex 21 22.295 0
    endloop
  endfacet
  facet normal 0 0 -1
    outer loop
      vertex 3 27.295 0
      vertex 26 27.295 0
      vertex 21 22.295 0
    endloop
  endfacet
  facet normal 0 1 0
    outer loop
      vertex 3 27.295 0
      vertex 26 27.295 6
      vertex 26 27.295 0
    endloop
  endfacet
endsolid model
