solid model
  facet normal 0.382679 0 -0.923882
    outer loop
      vertex -1.59099 0.5 -16.109
      vertex -1.59099 17.5 -16.109
      vertex 0 17.5 -15.45
    endloop
  endfacet
  facet normal 0.382679 0 -0.923882
    outer loop
      vertex -1.59099 0.5 -16.109
      vertex 0 17.5 -15.45
      vertex 0 0.5 -15.45
    endloop
  endfacet
  facet normal 0.382679 0 0.923882
    outer loop
      vertex -1.59099 0.5 -19.291
      vertex 0 0.5 -19.95
      vertex -1.59099 17.5 -19.291
    endloop
  endfacet
  facet normal 0.382679 0 0.923882
    outer loop
      vertex -1.59099 17.5 -19.291
      vertex 0 0.5 -19.95
      vertex 0 17.5 -19.95
    endloop
  endfacet
  facet normal 0 1 0
    outer loop
      vertex -13.3 22.7 0
      vertex 13.3 22.7 0
      vertex 2.1 22.7 -14.0627
    endloop
  endfacet
  facet normal 0 1 -0
    outer loop
      vertex -13.3 22.7 0
      vertex 2.1 22.7 -14.0627
      vertex -2.1 22.7 -14.0627
    endloop
  endfacet
  facet normal 0 -1 0
    outer loop
      vertex -15.25 12.6304 0
      vertex 15.25 12.6304 0
      vertex 15.7999 12.6304 1.32751
    endloop
  endfacet
  facet normal -0.866026 0 0.5
    outer loop
      vertex -15.4 17.5 -3.63731
      vertex -13.3 17.5 0
      vertex -13.3 22.7 0
    endloop
  endfacet
  facet normal -0.866026 0 0.5
    outer loop
      vertex -15.4 17.5 -3.63731
      vertex -13.3 22.7 0
      vertex -15.4 22.7 -3.63731
    endloop
  endfacet
  facet normal -0.866026 -0 -0.5
    outer loop
      vertex -15.4 17.5 3.63731
      vertex -15.4 22.7 3.63731
      vertex -13.3 17.5 0
    endloop
  endfacet
  facet normal 0 1 0
    outer loop
      vertex -15.4 22.7 -3.63731
      vertex -13.3 22.7 0
      vertex -2.1 22.7 -14.0627
    endloop
  endfacet
  facet normal 0 1 -0
    outer loop
      vertex -15.4 22.7 -3.63731
      vertex -2.1 22.7 -14.0627
      vertex -4.2 22.7 -17.7
    endloop
  endfacet
  facet normal -0.866026 0 -0.5
    outer loop
      vertex -15.4 22.7 3.63731
      vertex -13.3 22.7 0
      vertex -13.3 17.5 0
    endloop
  endfacet
  facet normal 0 1 0
    outer loop
      vertex -15.4 22.7 3.63731
      vertex 13.3 22.7 0
      vertex -13.3 22.7 0
    endloop
  endfacet
  facet normal 0 1 -0
    outer loop
      vertex -15.4 22.7 3.63731
      vertex 15.4 22.7 3.63731
      vertex 13.3 22.7 0
    endloop
  endfacet
  facet normal -0.923873 0 0.3827
    outer loop
      vertex -15.7999 12.6304 -1.32751
      vertex -15.25 12.6304 0
      vertex -15.25 17.5 0
    endloop
  endfacet
  facet normal 0 -1 0
    outer loop
      vertex -15.7999 12.6304 -1.32751
      vertex 15.25 12.6304 0
      vertex -15.25 12.6304 0
    endloop
  endfacet
  facet normal 0 -1 -0
    outer loop
      vertex -15.7999 12.6304 -1.32751
      vertex 15.7999 12.6304 -1.32751
      vertex 15.25 12.6304 0
    endloop
  endfacet
  facet normal 0 -1 0
    outer loop
      vertex -15.7999 12.6304 1.32751
      vertex -15.25 12.6304 0
      vertex 15.7999 12.6304 1.32751
    endloop
  endfacet
  facet normal -0.923873 0 -0.3827
    outer loop
      vertex -15.7999 12.6304 1.32751
      vertex -15.25 17.5 0
      vertex -15.25 12.6304 0
    endloop
  endfacet
  facet normal 0 -0.978151 -0.207896
    outer loop
      vertex -15.7999 12.6304 1.32751
      vertex 15.7999 12.6304 1.32751
      vertex 15.909 12.5744 1.59099
    endloop
  endfacet
  facet normal -0.923925 0 0.382573
    outer loop
      vertex -15.909 12.5744 -1.59099
      vertex -15.7999 12.6304 -1.32751
      vertex -15.909 17.5 -1.59099
    endloop
  endfacet
  facet normal 0 -0.978151 0.207896
    outer loop
      vertex -15.909 12.5744 -1.59099
      vertex 15.7999 12.6304 -1.32751
      vertex -15.7999 12.6304 -1.32751
    endloop
  endfacet
  facet normal 0 -0.978151 0.207896
    outer loop
      vertex -15.909 12.5744 -1.59099
      vertex 15.909 12.5744 -1.59099
      vertex 15.7999 12.6304 -1.32751
    endloop
  endfacet
  facet normal 0 -0.978151 -0.207896
    outer loop
      vertex -15.909 12.5744 1.59099
      vertex -15.7999 12.6304 1.32751
      vertex 15.909 12.5744 1.59099
    endloop
  endfacet
  facet normal -0.923925 -0 -0.382573
    outer loop
      vertex -15.909 12.5744 1.59099
      vertex -15.909 17.5 1.59099
      vertex -15.7999 12.6304 1.32751
    endloop
  endfacet
  facet normal 0 -0.978141 -0.207944
    outer loop
      vertex -15.909 12.5744 1.59099
      vertex 15.909 12.5744 1.59099
      vertex 17.5 12.4343 2.25
    endloop
  endfacet
  facet normal 0 1 -0
    outer loop
      vertex -15.909 17.5 -1.59099
      vertex -13.3 17.5 0
      vertex -15.4 17.5 -3.63731
    endloop
  endfacet
  facet normal 0 1 0
    outer loop
      vertex -15.909 17.5 -1.59099
      vertex -15.25 17.5 0
      vertex -13.3 17.5 0
    endloop
  endfacet
  facet normal -0.923882 6.71504e-06 0.382679
    outer loop
      vertex -15.909 17.5 -1.59099
      vertex -15.7999 12.6304 -1.32751
      vertex -15.25 17.5 0
    endloop
  endfacet
  facet normal 0 1 0
    outer loop
      vertex -15.909 17.5 1.59099
      vertex -13.3 17.5 0
      vertex -15.25 17.5 0
    endloop
  endfacet
  facet normal -0.923882 6.71504e-06 -0.382679
    outer loop
      vertex -15.909 17.5 1.59099
      vertex -15.25 17.5 0
      vertex -15.7999 12.6304 1.32751
    endloop
  endfacet
  facet normal 0 1 0
    outer loop
      vertex -15.909 17.5 1.59099
      vertex -15.4 17.5 3.63731
      vertex -13.3 17.5 0
    endloop
  endfacet
  facet normal -0.382682 0 0.92388
    outer loop
      vertex -17.5 12.4343 -2.25
      vertex -15.909 12.5744 -1.59099
      vertex -17.5 17.5 -2.25
    endloop
  endfacet
  facet normal 0 -0.978141 0.207944
    outer loop
      vertex -17.5 12.4343 -2.25
      vertex 15.909 12.5744 -1.59099
      vertex -15.909 12.5744 -1.59099
    endloop
  endfacet
  facet normal 0 -0.978141 0.207944
    outer loop
      vertex -17.5 12.4343 -2.25
      vertex 17.5 12.4343 -2.25
      vertex 15.909 12.5744 -1.59099
    endloop
  endfacet
  facet normal 0 -0.978141 -0.207944
    outer loop
      vertex -17.5 12.4343 2.25
      vertex -15.909 12.5744 1.59099
      vertex 17.5 12.4343 2.25
    endloop
  endfacet
  facet normal -0.382682 -0 -0.92388
    outer loop
      vertex -17.5 12.4343 2.25
      vertex -17.5 17.5 2.25
      vertex -15.909 12.5744 1.59099
    endloop
  endfacet
  facet normal -0 -0.978151 -0.207895
    outer loop
      vertex -17.5 12.4343 2.25
      vertex 17.5 12.4343 2.25
      vertex 35 12.0784 3.92452
    endloop
  endfacet
  facet normal -0.382682 0 0.92388
    outer loop
      vertex -17.5 17.5 -2.25
      vertex -15.909 12.5744 -1.59099
      vertex -15.909 17.5 -1.59099
    endloop
  endfacet
  facet normal 0 1 0
    outer loop
      vertex -17.5 17.5 -2.25
      vertex -15.909 17.5 -1.59099
      vertex -15.4 17.5 -3.63731
    endloop
  endfacet
  facet normal 0 1 0
    outer loop
      vertex -17.5 17.5 2.25
      vertex -15.4 17.5 3.63731
      vertex -15.909 17.5 1.59099
    endloop
  endfacet
  facet normal -0.382682 0 -0.92388
    outer loop
      vertex -17.5 17.5 2.25
      vertex -15.909 17.5 1.59099
      vertex -15.909 12.5744 1.59099
    endloop
  endfacet
  facet normal 0.265797 -0.620191 -0.738048
    outer loop
      vertex -17.7432 23.7251 -48.6901
      vertex 20.4013 40.0728 -48.6901
      vertex 21.4695 39.2531 -47.6166
    endloop
  endfacet
  facet normal 0.265819 -0.620242 -0.737998
    outer loop
      vertex -17.7432 23.7251 -48.6901
      vertex 20.5445 41.4116 -49.7637
      vertex 20.4013 40.0728 -48.6901
    endloop
  endfacet
  facet normal 0.265804 -0.62021 -0.738029
    outer loop
      vertex -17.8864 22.3863 -47.6166
      vertex -17.7432 23.7251 -48.6901
      vertex 21.4695 39.2531 -47.6166
    endloop
  endfacet
  facet normal 0.265804 -0.620212 -0.738028
    outer loop
      vertex -18.8115 24.5448 -49.7637
      vertex 20.5445 41.4116 -49.7637
      vertex -17.7432 23.7251 -48.6901
    endloop
  endfacet
  facet normal 0.265793 -0.620186 -0.738054
    outer loop
      vertex -18.8115 24.5448 -49.7637
      vertex 21.8152 42.4854 -50.2084
      vertex 20.5445 41.4116 -49.7637
    endloop
  endfacet
  facet normal 0.382682 0 0.92388
    outer loop
      vertex -19.091 12.5744 -1.59099
      vertex -17.5 12.4343 -2.25
      vertex -17.5 17.5 -2.25
    endloop
  endfacet
  facet normal 0.382682 -0 0.92388
    outer loop
      vertex -19.091 12.5744 -1.59099
      vertex -17.5 17.5 -2.25
      vertex -19.091 17.5 -1.59099
    endloop
  endfacet
  facet normal 0.382682 0 -0.92388
    outer loop
      vertex -19.091 12.5744 1.59099
      vertex -17.5 17.5 2.25
      vertex -17.5 12.4343 2.25
    endloop
  endfacet
  facet normal 0.382682 0 -0.92388
    outer loop
      vertex -19.091 12.5744 1.59099
      vertex -19.091 17.5 1.59099
      vertex -17.5 17.5 2.25
    endloop
  endfacet
  facet normal 0.265806 -0.620214 -0.738025
    outer loop
      vertex -19.1572 21.3125 -47.1719
      vertex -17.8864 22.3863 -47.6166
      vertex 21.4695 39.2531 -47.6166
    endloop
  endfacet
  facet normal 0.26581 -0.620224 -0.738016
    outer loop
      vertex -19.1572 21.3125 -47.1719
      vertex 21.4695 39.2531 -47.6166
      vertex 23.1235 39.4328 -47.1719
    endloop
  endfacet
  facet normal 0.265802 -0.620204 -0.738035
    outer loop
      vertex -19.1572 21.3125 -47.1719
      vertex 23.1235 39.4328 -47.1719
      vertex 35 40.3072 -43.6294
    endloop
  endfacet
  facet normal 0.923925 0 0.382573
    outer loop
      vertex -19.2001 12.6304 -1.32751
      vertex -19.091 12.5744 -1.59099
      vertex -19.091 17.5 -1.59099
    endloop
  endfacet
  facet normal 0.923925 0 -0.382573
    outer loop
      vertex -19.2001 12.6304 1.32751
      vertex -19.091 17.5 1.59099
      vertex -19.091 12.5744 1.59099
    endloop
  endfacet
  facet normal 0 0 1
    outer loop
      vertex -19.6 17.5 -3.63731
      vertex -15.4 17.5 -3.63731
      vertex -19.6 22.7 -3.63731
    endloop
  endfacet
  facet normal 0 1 0
    outer loop
      vertex -19.6 17.5 -3.63731
      vertex -17.5 17.5 -2.25
      vertex -15.4 17.5 -3.63731
    endloop
  endfacet
  facet normal 0 1 0
    outer loop
      vertex -19.6 17.5 -3.63731
      vertex -19.091 17.5 -1.59099
      vertex -17.5 17.5 -2.25
    endloop
  endfacet
  facet normal 0 1 0
    outer loop
      vertex -19.6 17.5 3.63731
      vertex -15.4 17.5 3.63731
      vertex -17.5 17.5 2.25
    endloop
  endfacet
  facet normal 0 0 -1
    outer loop
      vertex -19.6 17.5 3.63731
      vertex -15.4 22.7 3.63731
      vertex -15.4 17.5 3.63731
    endloop
  endfacet
  facet normal 0 1 -0
    outer loop
      vertex -19.6 17.5 3.63731
      vertex -17.5 17.5 2.25
      vertex -19.091 17.5 1.59099
    endloop
  endfacet
  facet normal -0 0 -1
    outer loop
      vertex -19.6 17.5 3.63731
      vertex -19.6 22.7 3.63731
      vertex -15.4 22.7 3.63731
    endloop
  endfacet
  facet normal -0 0 1
    outer loop
      vertex -19.6 22.7 -3.63731
      vertex -15.4 17.5 -3.63731
      vertex -15.4 22.7 -3.63731
    endloop
  endfacet
  facet normal 0 1 0
    outer loop
      vertex -19.6 22.7 -3.63731
      vertex -15.4 22.7 -3.63731
      vertex -4.2 22.7 -17.7
    endloop
  endfacet
  facet normal 0.923873 0 0.3827
    outer loop
      vertex -19.75 12.6304 0
      vertex -19.2001 12.6304 -1.32751
      vertex -19.75 17.5 0
    endloop
  endfacet
  facet normal 0.923873 0 -0.3827
    outer loop
      vertex -19.75 12.6304 0
      vertex -19.75 17.5 0
      vertex -19.2001 12.6304 1.32751
    endloop
  endfacet
  facet normal 0.923882 6.71504e-06 -0.382679
    outer loop
      vertex -19.75 17.5 0
      vertex -19.091 17.5 1.59099
      vertex -19.2001 12.6304 1.32751
    endloop
  endfacet
  facet normal 0.923882 6.71504e-06 0.382679
    outer loop
      vertex -19.75 17.5 0
      vertex -19.2001 12.6304 -1.32751
      vertex -19.091 17.5 -1.59099
    endloop
  endfacet
  facet normal -0 0 -1
    outer loop
      vertex -2.1 17.5 -14.0627
      vertex -2.1 22.7 -14.0627
      vertex 2.1 22.7 -14.0627
    endloop
  endfacet
  facet normal 0 1 -0
    outer loop
      vertex -2.1 17.5 -14.0627
      vertex 0 17.5 -15.45
      vertex -1.59099 17.5 -16.109
    endloop
  endfacet
  facet normal 0 1 0
    outer loop
      vertex -2.1 17.5 -14.0627
      vertex 2.1 17.5 -14.0627
      vertex 0 17.5 -15.45
    endloop
  endfacet
  facet normal 0 0 -1
    outer loop
      vertex -2.1 17.5 -14.0627
      vertex 2.1 22.7 -14.0627
      vertex 2.1 17.5 -14.0627
    endloop
  endfacet
  facet normal 0 1 0
    outer loop
      vertex -2.1 17.5 -21.3373
      vertex -1.59099 17.5 -19.291
      vertex 0 17.5 -19.95
    endloop
  endfacet
  facet normal 0 1 0
    outer loop
      vertex -2.1 17.5 -21.3373
      vertex 0 17.5 -19.95
      vertex 2.1 17.5 -21.3373
    endloop
  endfacet
  facet normal 0 0 1
    outer loop
      vertex -2.1 17.5 -21.3373
      vertex 2.1 17.5 -21.3373
      vertex -2.1 34.4929 -21.3373
    endloop
  endfacet
  facet normal -0 0 1
    outer loop
      vertex -2.1 34.4929 -21.3373
      vertex 2.1 17.5 -21.3373
      vertex 2.1 34.4929 -21.3373
    endloop
  endfacet
  facet normal 0 0.294734 0.955579
    outer loop
      vertex -2.1 34.4929 -21.3373
      vertex 2.1 34.4929 -21.3373
      vertex 35 55.392 -27.7833
    endloop
  endfacet
  facet normal 0.92388 0 0.382682
    outer loop
      vertex -2.25 0.5 -17.7
      vertex -1.59099 0.5 -19.291
      vertex -1.59099 17.5 -19.291
    endloop
  endfacet
  facet normal 0.92388 -0 0.382682
    outer loop
      vertex -2.25 0.5 -17.7
      vertex -1.59099 17.5 -19.291
      vertex -2.25 17.5 -17.7
    endloop
  endfacet
  facet normal 0.92388 0 -0.382682
    outer loop
      vertex -2.25 0.5 -17.7
      vertex -2.25 17.5 -17.7
      vertex -1.59099 0.5 -16.109
    endloop
  endfacet
  facet normal 0.92388 0 -0.382682
    outer loop
      vertex -2.25 17.5 -17.7
      vertex -1.59099 17.5 -16.109
      vertex -1.59099 0.5 -16.109
    endloop
  endfacet
  facet normal -0.960432 -0.104333 -0.258234
    outer loop
      vertex -20.1458 27.6581 -41.3433
      vertex -17.7432 23.7251 -48.6901
      vertex -17.8864 22.3863 -47.6166
    endloop
  endfacet
  facet normal -0.265827 0.620241 0.737995
    outer loop
      vertex -20.1458 27.6581 -41.3433
      vertex -18.2102 29.7651 -42.4169
      vertex -20.0026 28.9969 -42.4169
    endloop
  endfacet
  facet normal -0.265744 0.620198 0.738062
    outer loop
      vertex -20.1458 27.6581 -41.3433
      vertex -19.083 26.4704 -39.9626
      vertex -18.2102 29.7651 -42.4169
    endloop
  endfacet
  facet normal -0.960433 -0.104346 -0.258227
    outer loop
      vertex -20.1458 27.6581 -41.3433
      vertex -20.0026 28.9969 -42.4169
      vertex -17.7432 23.7251 -48.6901
    endloop
  endfacet
  facet normal 0.265822 -0.62025 -0.73799
    outer loop
      vertex -20.4654 24.3651 -50.2084
      vertex 21.8152 42.4854 -50.2084
      vertex -18.8115 24.5448 -49.7637
    endloop
  endfacet
  facet normal -0.737954 -0.623508 0.25819
    outer loop
      vertex -21.0708 29.8166 -43.4905
      vertex -17.7432 23.7251 -48.6901
      vertex -20.0026 28.9969 -42.4169
    endloop
  endfacet
  facet normal -0.737929 -0.623523 0.258223
    outer loop
      vertex -21.0708 29.8166 -43.4905
      vertex -18.8115 24.5448 -49.7637
      vertex -17.7432 23.7251 -48.6901
    endloop
  endfacet
  facet normal -0.265817 0.620217 0.738019
    outer loop
      vertex -21.0708 29.8166 -43.4905
      vertex -20.0026 28.9969 -42.4169
      vertex -18.2102 29.7651 -42.4169
    endloop
  endfacet
  facet normal -0.0831489 -0.777462 0.623409
    outer loop
      vertex -21.0708 29.8166 -43.4905
      vertex -20.4654 24.3651 -50.2084
      vertex -18.8115 24.5448 -49.7637
    endloop
  endfacet
  facet normal -0.265826 0.620186 0.738042
    outer loop
      vertex -21.1979 31.4052 -44.8712
      vertex -21.0708 29.8166 -43.4905
      vertex -18.2102 29.7651 -42.4169
    endloop
  endfacet
  facet normal -0.620337 0.47597 -0.623405
    outer loop
      vertex -21.4165 26.5843 -40.8987
      vertex -17.8864 22.3863 -47.6166
      vertex -19.1572 21.3125 -47.1719
    endloop
  endfacet
  facet normal -0.265814 0.620151 0.738075
    outer loop
      vertex -21.4165 26.5843 -40.8987
      vertex -19.083 26.4704 -39.9626
      vertex -20.1458 27.6581 -41.3433
    endloop
  endfacet
  facet normal 0.0831489 0.777462 -0.623409
    outer loop
      vertex -21.4165 26.5843 -40.8987
      vertex -19.1572 21.3125 -47.1719
      vertex -20.8111 21.1328 -47.6166
    endloop
  endfacet
  facet normal -0.620337 0.47597 -0.623405
    outer loop
      vertex -21.4165 26.5843 -40.8987
      vertex -20.1458 27.6581 -41.3433
      vertex -17.8864 22.3863 -47.6166
    endloop
  endfacet
  facet normal 0 1 0
    outer loop
      vertex -21.7 17.5 0
      vertex -19.091 17.5 -1.59099
      vertex -19.6 17.5 -3.63731
    endloop
  endfacet
  facet normal 0 1 0
    outer loop
      vertex -21.7 17.5 0
      vertex -19.091 17.5 1.59099
      vertex -19.75 17.5 0
    endloop
  endfacet
  facet normal 0.866026 0 0.5
    outer loop
      vertex -21.7 17.5 0
      vertex -19.6 17.5 -3.63731
      vertex -19.6 22.7 -3.63731
    endloop
  endfacet
  facet normal 0 1 0
    outer loop
      vertex -21.7 17.5 0
      vertex -19.6 17.5 3.63731
      vertex -19.091 17.5 1.59099
    endloop
  endfacet
  facet normal 0.866026 -0 0.5
    outer loop
      vertex -21.7 17.5 0
      vertex -19.6 22.7 -3.63731
      vertex -21.7 22.7 0
    endloop
  endfacet
  facet normal 0 1 0
    outer loop
      vertex -21.7 17.5 0
      vertex -19.75 17.5 0
      vertex -19.091 17.5 -1.59099
    endloop
  endfacet
  facet normal 0.866026 0 -0.5
    outer loop
      vertex -21.7 17.5 0
      vertex -21.7 22.7 0
      vertex -19.6 17.5 3.63731
    endloop
  endfacet
  facet normal 0.866026 0 -0.5
    outer loop
      vertex -21.7 22.7 0
      vertex -19.6 22.7 3.63731
      vertex -19.6 17.5 3.63731
    endloop
  endfacet
  facet normal -0.941361 -0.00195706 -0.337395
    outer loop
      vertex -22.3593 39.4462 -30.8967
      vertex -18.2102 29.7651 -42.4169
      vertex -19.083 26.4704 -39.9626
    endloop
  endfacet
  facet normal -0.372807 0.86988 0.322991
    outer loop
      vertex -22.3593 39.4462 -30.8967
      vertex 12.8064 55.1468 -32.5922
      vertex 13.603 56.3161 -34.8219
    endloop
  endfacet
  facet normal -0.0831072 -0.777463 0.623413
    outer loop
      vertex -22.7248 29.6369 -43.9351
      vertex -20.4654 24.3651 -50.2084
      vertex -21.0708 29.8166 -43.4905
    endloop
  endfacet
  facet normal -0.265772 0.620198 0.738051
    outer loop
      vertex -22.7248 29.6369 -43.9351
      vertex -21.0708 29.8166 -43.4905
      vertex -21.1979 31.4052 -44.8712
    endloop
  endfacet
  facet normal -0.265795 0.620209 0.738034
    outer loop
      vertex -22.9434 24.816 -39.9626
      vertex -19.083 26.4704 -39.9626
      vertex -21.4165 26.5843 -40.8987
    endloop
  endfacet
  facet normal 0.0831072 0.777463 -0.623413
    outer loop
      vertex -23.0705 26.4046 -41.3433
      vertex -21.4165 26.5843 -40.8987
      vertex -20.8111 21.1328 -47.6166
    endloop
  endfacet
  facet normal -0.265772 0.620198 0.738051
    outer loop
      vertex -23.0705 26.4046 -41.3433
      vertex -22.9434 24.816 -39.9626
      vertex -21.4165 26.5843 -40.8987
    endloop
  endfacet
  facet normal -0.290716 0.67836 -0.674769
    outer loop
      vertex -23.7618 37.3876 -26.9715
      vertex -19.083 26.4704 -39.9626
      vertex -22.9434 24.816 -39.9626
    endloop
  endfacet
  facet normal -0.941364 -0.00196411 -0.337386
    outer loop
      vertex -23.7618 37.3876 -26.9715
      vertex -22.3593 39.4462 -30.8967
      vertex -19.083 26.4704 -39.9626
    endloop
  endfacet
  facet normal -0.372804 0.869876 0.323007
    outer loop
      vertex -23.7618 37.3876 -26.9715
      vertex 12.8064 55.1468 -32.5922
      vertex -22.3593 39.4462 -30.8967
    endloop
  endfacet
  facet normal 0.0569924 -0.691698 -0.719934
    outer loop
      vertex -23.9364 15.363 -43.3135
      vertex 35 3.1168 -26.882
      vertex 35 1.63415 -25.4575
    endloop
  endfacet
  facet normal 0.290695 -0.678287 0.674851
    outer loop
      vertex -23.9364 15.363 -43.3135
      vertex 35 40.3072 -43.6294
      vertex 35 40.6215 -43.3135
    endloop
  endfacet
  facet normal 0.169495 -0.395488 -0.902696
    outer loop
      vertex -23.9364 15.363 -43.3135
      vertex 35 40.6215 -43.3135
      vertex 35 3.1168 -26.882
    endloop
  endfacet
  facet normal 0.620337 -0.47597 0.623405
    outer loop
      vertex -23.9955 28.5631 -43.4905
      vertex -20.4654 24.3651 -50.2084
      vertex -22.7248 29.6369 -43.9351
    endloop
  endfacet
  facet normal 0.620337 -0.47597 0.623405
    outer loop
      vertex -23.9955 28.5631 -43.4905
      vertex -21.7362 23.2913 -49.7637
      vertex -20.4654 24.3651 -50.2084
    endloop
  endfacet
  facet normal 0.73792 0.62353 -0.258232
    outer loop
      vertex -24.1387 27.2243 -42.4169
      vertex -20.8111 21.1328 -47.6166
      vertex -21.8794 21.9525 -48.6901
    endloop
  endfacet
  facet normal 0.960436 0.104339 0.258219
    outer loop
      vertex -24.1387 27.2243 -42.4169
      vertex -21.7362 23.2913 -49.7637
      vertex -23.9955 28.5631 -43.4905
    endloop
  endfacet
  facet normal 0.960436 0.104339 0.258219
    outer loop
      vertex -24.1387 27.2243 -42.4169
      vertex -21.8794 21.9525 -48.6901
      vertex -21.7362 23.2913 -49.7637
    endloop
  endfacet
  facet normal 0.737953 0.62351 -0.258188
    outer loop
      vertex -24.1387 27.2243 -42.4169
      vertex -23.0705 26.4046 -41.3433
      vertex -20.8111 21.1328 -47.6166
    endloop
  endfacet
  facet normal -0.650641 -0.680324 0.337382
    outer loop
      vertex -24.8172 39.8503 -34.8219
      vertex -18.2102 29.7651 -42.4169
      vertex -22.3593 39.4462 -30.8967
    endloop
  endfacet
  facet normal -0.650628 -0.680328 0.337398
    outer loop
      vertex -24.8172 39.8503 -34.8219
      vertex -21.1979 31.4052 -44.8712
      vertex -18.2102 29.7651 -42.4169
    endloop
  endfacet
  facet normal -0.372805 0.869878 0.322999
    outer loop
      vertex -24.8172 39.8503 -34.8219
      vertex -22.3593 39.4462 -30.8967
      vertex 13.603 56.3161 -34.8219
    endloop
  endfacet
  facet normal 0.290729 -0.678351 0.674771
    outer loop
      vertex -25.0583 29.7507 -44.8712
      vertex -21.1979 31.4052 -44.8712
      vertex -24.8172 39.8503 -34.8219
    endloop
  endfacet
  facet normal -0.265815 0.620218 0.738019
    outer loop
      vertex -25.0583 29.7507 -44.8712
      vertex -22.7248 29.6369 -43.9351
      vertex -21.1979 31.4052 -44.8712
    endloop
  endfacet
  facet normal -0.265833 0.620165 0.738057
    outer loop
      vertex -25.0583 29.7507 -44.8712
      vertex -23.9955 28.5631 -43.4905
      vertex -22.7248 29.6369 -43.9351
    endloop
  endfacet
  facet normal -0.265826 0.620186 0.738042
    outer loop
      vertex -25.9311 26.4561 -42.4169
      vertex -22.9434 24.816 -39.9626
      vertex -23.0705 26.4046 -41.3433
    endloop
  endfacet
  facet normal -0.265817 0.620217 0.738019
    outer loop
      vertex -25.9311 26.4561 -42.4169
      vertex -23.0705 26.4046 -41.3433
      vertex -24.1387 27.2243 -42.4169
    endloop
  endfacet
  facet normal -0.265766 0.620209 0.738044
    outer loop
      vertex -25.9311 26.4561 -42.4169
      vertex -23.9955 28.5631 -43.4905
      vertex -25.0583 29.7507 -44.8712
    endloop
  endfacet
  facet normal -0.265827 0.620241 0.737995
    outer loop
      vertex -25.9311 26.4561 -42.4169
      vertex -24.1387 27.2243 -42.4169
      vertex -23.9955 28.5631 -43.4905
    endloop
  endfacet
  facet normal -0.290716 0.67836 -0.674769
    outer loop
      vertex -27.6222 35.7332 -26.9715
      vertex -23.7618 37.3876 -26.9715
      vertex -22.9434 24.816 -39.9626
    endloop
  endfacet
  facet normal 0.290729 -0.678351 0.674771
    outer loop
      vertex -28.6776 38.1958 -34.8219
      vertex -25.0583 29.7507 -44.8712
      vertex -24.8172 39.8503 -34.8219
    endloop
  endfacet
  facet normal 0.941362 0.00195526 0.337393
    outer loop
      vertex -28.6776 38.1958 -34.8219
      vertex -25.9311 26.4561 -42.4169
      vertex -25.0583 29.7507 -44.8712
    endloop
  endfacet
  facet normal 0.650629 0.680326 -0.3374
    outer loop
      vertex -30.0801 36.1373 -30.8967
      vertex -22.9434 24.816 -39.9626
      vertex -25.9311 26.4561 -42.4169
    endloop
  endfacet
  facet normal 0.941365 0.0019612 0.337384
    outer loop
      vertex -30.0801 36.1373 -30.8967
      vertex -25.9311 26.4561 -42.4169
      vertex -28.6776 38.1958 -34.8219
    endloop
  endfacet
  facet normal 0.650642 0.680321 -0.337383
    outer loop
      vertex -30.0801 36.1373 -30.8967
      vertex -27.6222 35.7332 -26.9715
      vertex -22.9434 24.816 -39.9626
    endloop
  endfacet
  facet normal 0 -1 0
    outer loop
      vertex -35 0.5 -12.6474
      vertex -1.59099 0.5 -16.109
      vertex 0 0.5 -15.45
    endloop
  endfacet
  facet normal 0 -1 0
    outer loop
      vertex -35 0.5 -12.6474
      vertex -2.25 0.5 -17.7
      vertex -1.59099 0.5 -16.109
    endloop
  endfacet
  facet normal 0 -1 0
    outer loop
      vertex -35 0.5 -12.6474
      vertex 0 0.5 -15.45
      vertex 35 0.5 -12.6474
    endloop
  endfacet
  facet normal 0 -0.104495 0.994525
    outer loop
      vertex -35 0.5 -12.6474
      vertex 35 0.5 -12.6474
      vertex -35 2.64048 -12.4225
    endloop
  endfacet
  facet normal 0 -1 -0
    outer loop
      vertex -35 0.5 -23.5437
      vertex -1.59099 0.5 -19.291
      vertex -2.25 0.5 -17.7
    endloop
  endfacet
  facet normal 0 -1 0
    outer loop
      vertex -35 0.5 -23.5437
      vertex -2.25 0.5 -17.7
      vertex -35 0.5 -12.6474
    endloop
  endfacet
  facet normal -1 0 0
    outer loop
      vertex -35 0.5 -23.5437
      vertex -35 0.5 -12.6474
      vertex -35 2.64048 -12.4225
    endloop
  endfacet
  facet normal -1 0 0
    outer loop
      vertex -35 0.5 -23.5437
      vertex -35 2.64048 -12.4225
      vertex -35 5.16556 -11.602
    endloop
  endfacet
  facet normal -1 0 0
    outer loop
      vertex -35 0.5 -23.5437
      vertex -35 22.7 -17.7
      vertex -35 9.26019 -38.3258
    endloop
  endfacet
  facet normal -1 0 -0
    outer loop
      vertex -35 0.5 -23.5437
      vertex -35 5.16556 -11.602
      vertex -35 22.7 -17.7
    endloop
  endfacet
  facet normal -1.10498e-07 -0.860281 -0.509821
    outer loop
      vertex -35 0.5 -23.5437
      vertex -35 9.26019 -38.3258
      vertex 35 1.63415 -25.4575
    endloop
  endfacet
  facet normal 0 -1 -0
    outer loop
      vertex -35 0.5 -23.5437
      vertex 0 0.5 -19.95
      vertex -1.59099 0.5 -19.291
    endloop
  endfacet
  facet normal 0 -1 0
    outer loop
      vertex -35 0.5 -23.5437
      vertex 35 0.5 -23.5437
      vertex 0 0.5 -19.95
    endloop
  endfacet
  facet normal 0 -0.860282 -0.509818
    outer loop
      vertex -35 0.5 -23.5437
      vertex 35 1.63415 -25.4575
      vertex 35 0.5 -23.5437
    endloop
  endfacet
  facet normal -1 0 0
    outer loop
      vertex -35 0.5 12.6474
      vertex -35 0.5 22.7
      vertex -35 2.64048 12.4225
    endloop
  endfacet
  facet normal -0 -0.104495 -0.994525
    outer loop
      vertex -35 0.5 12.6474
      vertex -35 2.64048 12.4225
      vertex 35 2.64048 12.4225
    endloop
  endfacet
  facet normal 0 -1 -0
    outer loop
      vertex -35 0.5 12.6474
      vertex 35 0.5 12.6474
      vertex 35 0.5 22.7
    endloop
  endfacet
  facet normal 0 -1 0
    outer loop
      vertex -35 0.5 12.6474
      vertex 35 0.5 22.7
      vertex -35 0.5 22.7
    endloop
  endfacet
  facet normal 0 -0.104495 -0.994525
    outer loop
      vertex -35 0.5 12.6474
      vertex 35 2.64048 12.4225
      vertex 35 0.5 12.6474
    endloop
  endfacet
  facet normal -1 0 0
    outer loop
      vertex -35 0.5 22.7
      vertex -35 9.40265 22.7
      vertex -35 2.64048 12.4225
    endloop
  endfacet
  facet normal 0 0 1
    outer loop
      vertex -35 0.5 22.7
      vertex 35 0.5 22.7
      vertex -35 9.40265 22.7
    endloop
  endfacet
  facet normal 0.265802 -0.620204 -0.738035
    outer loop
      vertex -35 10.3072 -43.6294
      vertex -19.1572 21.3125 -47.1719
      vertex 35 40.3072 -43.6294
    endloop
  endfacet
  facet normal 0.265824 -0.620228 -0.738007
    outer loop
      vertex -35 10.3072 -43.6294
      vertex -20.8111 21.1328 -47.6166
      vertex -19.1572 21.3125 -47.1719
    endloop
  endfacet
  facet normal 0.265781 -0.620189 -0.738056
    outer loop
      vertex -35 10.3072 -43.6294
      vertex -21.8794 21.9525 -48.6901
      vertex -20.8111 21.1328 -47.6166
    endloop
  endfacet
  facet normal 0.290724 -0.678353 0.674772
    outer loop
      vertex -35 10.3072 -43.6294
      vertex -23.9364 15.363 -43.3135
      vertex -35 12.4931 -41.4319
    endloop
  endfacet
  facet normal -1 0 -0
    outer loop
      vertex -35 10.3072 -43.6294
      vertex -35 12.4931 -41.4319
      vertex -35 22.3515 -53.7509
    endloop
  endfacet
  facet normal 0.265808 -0.620208 -0.73803
    outer loop
      vertex -35 10.3072 -43.6294
      vertex -35 22.3515 -53.7509
      vertex -21.8794 21.9525 -48.6901
    endloop
  endfacet
  facet normal 0.290712 -0.678329 0.674801
    outer loop
      vertex -35 10.3072 -43.6294
      vertex 35 40.3072 -43.6294
      vertex -23.9364 15.363 -43.3135
    endloop
  endfacet
  facet normal -1 0 0
    outer loop
      vertex -35 10.9985 -6.35
      vertex -35 12.0784 -3.92452
      vertex -35 22.7 -17.7
    endloop
  endfacet
  facet normal 0 -0.913545 0.406739
    outer loop
      vertex -35 10.9985 -6.35
      vertex 35 10.9985 -6.35
      vertex 35 12.0784 -3.92452
    endloop
  endfacet
  facet normal 0 -0.913545 0.406739
    outer loop
      vertex -35 10.9985 -6.35
      vertex 35 12.0784 -3.92452
      vertex -35 12.0784 -3.92452
    endloop
  endfacet
  facet normal 0 -0.913545 -0.406739
    outer loop
      vertex -35 10.9985 6.35
      vertex -35 12.0784 3.92452
      vertex 35 10.9985 6.35
    endloop
  endfacet
  facet normal -1 0 0
    outer loop
      vertex -35 10.9985 6.35
      vertex -35 22.7 9.40265
      vertex -35 12.0784 3.92452
    endloop
  endfacet
  facet normal 0 -0.809021 -0.587779
    outer loop
      vertex -35 10.9985 6.35
      vertex 35 10.9985 6.35
      vertex 35 9.43794 8.49796
    endloop
  endfacet
  facet normal -4.03698e-06 -0.978143 0.207935
    outer loop
      vertex -35 12.0784 -3.92452
      vertex -17.5 12.4343 -2.25
      vertex -19.091 12.5744 -1.59099
    endloop
  endfacet
  facet normal 1.84794e-06 -0.978151 0.207897
    outer loop
      vertex -35 12.0784 -3.92452
      vertex -19.091 12.5744 -1.59099
      vertex -19.2001 12.6304 -1.32751
    endloop
  endfacet
  facet normal 0 -0.978148 0.207908
    outer loop
      vertex -35 12.0784 -3.92452
      vertex -19.2001 12.6304 -1.32751
      vertex -35 12.6304 -1.32751
    endloop
  endfacet
  facet normal -1 0 0
    outer loop
      vertex -35 12.0784 -3.92452
      vertex -35 12.6304 -1.32751
      vertex -35 22.7 -17.7
    endloop
  endfacet
  facet normal 0 -0.978151 0.207895
    outer loop
      vertex -35 12.0784 -3.92452
      vertex 17.5 12.4343 -2.25
      vertex -17.5 12.4343 -2.25
    endloop
  endfacet
  facet normal 0 -0.978151 0.207895
    outer loop
      vertex -35 12.0784 -3.92452
      vertex 35 12.0784 -3.92452
      vertex 17.5 12.4343 -2.25
    endloop
  endfacet
  facet normal 0 -0.978151 -0.207895
    outer loop
      vertex -35 12.0784 3.92452
      vertex -17.5 12.4343 2.25
      vertex 35 12.0784 3.92452
    endloop
  endfacet
  facet normal -4.03698e-06 -0.978143 -0.207935
    outer loop
      vertex -35 12.0784 3.92452
      vertex -19.091 12.5744 1.59099
      vertex -17.5 12.4343 2.25
    endloop
  endfacet
  facet normal 1.84794e-06 -0.978151 -0.207897
    outer loop
      vertex -35 12.0784 3.92452
      vertex -19.2001 12.6304 1.32751
      vertex -19.091 12.5744 1.59099
    endloop
  endfacet
  facet normal -0 -0.978148 -0.207908
    outer loop
      vertex -35 12.0784 3.92452
      vertex -35 12.6304 1.32751
      vertex -19.2001 12.6304 1.32751
    endloop
  endfacet
  facet normal -1 0 0
    outer loop
      vertex -35 12.0784 3.92452
      vertex -35 22.7 9.40265
      vertex -35 12.6304 1.32751
    endloop
  endfacet
  facet normal 0 -0.913545 -0.406739
    outer loop
      vertex -35 12.0784 3.92452
      vertex 35 12.0784 3.92452
      vertex 35 10.9985 6.35
    endloop
  endfacet
  facet normal -1 -0 0
    outer loop
      vertex -35 12.4931 -41.4319
      vertex -35 22.7 -17.7
      vertex -35 30.4492 -21.2567
    endloop
  endfacet
  facet normal -1 0 0
    outer loop
      vertex -35 12.4931 -41.4319
      vertex -35 27.1027 -48.9745
      vertex -35 22.3515 -53.7509
    endloop
  endfacet
  facet normal -1 -0 0
    outer loop
      vertex -35 12.4931 -41.4319
      vertex -35 30.4492 -21.2567
      vertex -35 37.034 -38.9903
    endloop
  endfacet
  facet normal -1 0 0
    outer loop
      vertex -35 12.4931 -41.4319
      vertex -35 37.034 -38.9903
      vertex -35 27.1027 -48.9745
    endloop
  endfacet
  facet normal 0 -1 -0
    outer loop
      vertex -35 12.6304 -1.32751
      vertex -19.2001 12.6304 -1.32751
      vertex -19.75 12.6304 0
    endloop
  endfacet
  facet normal 0 -1 0
    outer loop
      vertex -35 12.6304 -1.32751
      vertex -19.75 12.6304 0
      vertex -35 12.6304 1.32751
    endloop
  endfacet
  facet normal -1 0 0
    outer loop
      vertex -35 12.6304 -1.32751
      vertex -35 12.6304 1.32751
      vertex -35 22.7 9.40265
    endloop
  endfacet
  facet normal -1 0 0
    outer loop
      vertex -35 12.6304 -1.32751
      vertex -35 22.7 9.40265
      vertex -35 22.7 -17.7
    endloop
  endfacet
  facet normal 0 -1 0
    outer loop
      vertex -35 12.6304 1.32751
      vertex -19.75 12.6304 0
      vertex -19.2001 12.6304 1.32751
    endloop
  endfacet
  facet normal 0 -0.104495 0.994525
    outer loop
      vertex -35 2.64048 -12.4225
      vertex 35 0.5 -12.6474
      vertex 35 2.64048 -12.4225
    endloop
  endfacet
  facet normal 0 -0.309035 0.951051
    outer loop
      vertex -35 2.64048 -12.4225
      vertex 35 2.64048 -12.4225
      vertex -35 5.16556 -11.602
    endloop
  endfacet
  facet normal -0 -0.309035 -0.951051
    outer loop
      vertex -35 2.64048 12.4225
      vertex -35 5.16556 11.602
      vertex 35 5.16556 11.602
    endloop
  endfacet
  facet normal -1 0 0
    outer loop
      vertex -35 2.64048 12.4225
      vertex -35 9.40265 22.7
      vertex -35 5.16556 11.602
    endloop
  endfacet
  facet normal 0 -0.309035 -0.951051
    outer loop
      vertex -35 2.64048 12.4225
      vertex 35 5.16556 11.602
      vertex 35 2.64048 12.4225
    endloop
  endfacet
  facet normal 0.265802 -0.620211 -0.738029
    outer loop
      vertex -35 22.3515 -53.7509
      vertex -20.4654 24.3651 -50.2084
      vertex -21.7362 23.2913 -49.7637
    endloop
  endfacet
  facet normal 0.265797 -0.620244 -0.738004
    outer loop
      vertex -35 22.3515 -53.7509
      vertex -21.7362 23.2913 -49.7637
      vertex -21.8794 21.9525 -48.6901
    endloop
  endfacet
  facet normal -0.290722 0.678352 -0.674773
    outer loop
      vertex -35 22.3515 -53.7509
      vertex -35 27.1027 -48.9745
      vertex 35 52.3515 -53.7509
    endloop
  endfacet
  facet normal 0.265802 -0.620204 -0.738035
    outer loop
      vertex -35 22.3515 -53.7509
      vertex 21.8152 42.4854 -50.2084
      vertex -20.4654 24.3651 -50.2084
    endloop
  endfacet
  facet normal 0.265804 -0.620209 -0.738031
    outer loop
      vertex -35 22.3515 -53.7509
      vertex 35 52.3515 -53.7509
      vertex 21.8152 42.4854 -50.2084
    endloop
  endfacet
  facet normal 0 1 0
    outer loop
      vertex -35 22.7 -17.7
      vertex -19.6 22.7 -3.63731
      vertex -4.2 22.7 -17.7
    endloop
  endfacet
  facet normal 0 1 0
    outer loop
      vertex -35 22.7 -17.7
      vertex -21.7 22.7 0
      vertex -19.6 22.7 -3.63731
    endloop
  endfacet
  facet normal 0 1 0
    outer loop
      vertex -35 22.7 -17.7
      vertex -35 22.7 9.40265
      vertex -21.7 22.7 0
    endloop
  endfacet
  facet normal -1 0 0
    outer loop
      vertex -35 22.7 -17.7
      vertex -35 28.4692 -19.4794
      vertex -35 30.4492 -21.2567
    endloop
  endfacet
  facet normal 0 0.294731 0.95558
    outer loop
      vertex -35 22.7 -17.7
      vertex -4.2 22.7 -17.7
      vertex -35 28.4692 -19.4794
    endloop
  endfacet
  facet normal 0 1 -0
    outer loop
      vertex -35 22.7 9.40265
      vertex -15.4 22.7 3.63731
      vertex -19.6 22.7 3.63731
    endloop
  endfacet
  facet normal 0 1 -0
    outer loop
      vertex -35 22.7 9.40265
      vertex -19.6 22.7 3.63731
      vertex -21.7 22.7 0
    endloop
  endfacet
  facet normal 0 1 -0
    outer loop
      vertex -35 22.7 9.40265
      vertex 15.4 22.7 3.63731
      vertex -15.4 22.7 3.63731
    endloop
  endfacet
  facet normal 0 1 0
    outer loop
      vertex -35 22.7 9.40265
      vertex 35 22.7 9.40265
      vertex 15.4 22.7 3.63731
    endloop
  endfacet
  facet normal -0.290725 0.678359 -0.674765
    outer loop
      vertex -35 27.1027 -48.9745
      vertex -35 37.034 -38.9903
      vertex 35 62.8601 -43.1864
    endloop
  endfacet
  facet normal -0.290724 0.678357 -0.674768
    outer loop
      vertex -35 27.1027 -48.9745
      vertex 35 62.8601 -43.1864
      vertex 35 52.3515 -53.7509
    endloop
  endfacet
  facet normal -6.84223e-07 0.294735 0.955579
    outer loop
      vertex -35 28.4692 -19.4794
      vertex -2.1 34.4929 -21.3373
      vertex 35 55.392 -27.7833
    endloop
  endfacet
  facet normal 6.33936e-08 0.294731 0.95558
    outer loop
      vertex -35 28.4692 -19.4794
      vertex -4.2 22.7 -17.7
      vertex -2.1 34.4929 -21.3373
    endloop
  endfacet
  facet normal -0.166292 0.658687 0.73381
    outer loop
      vertex -35 28.4692 -19.4794
      vertex 12.4035 53.784 -31.4603
      vertex -35 30.4492 -21.2567
    endloop
  endfacet
  facet normal -0.166284 0.658677 0.733821
    outer loop
      vertex -35 28.4692 -19.4794
      vertex 15.451 52.0041 -29.1721
      vertex 12.4035 53.784 -31.4603
    endloop
  endfacet
  facet normal -0.166283 0.658675 0.733823
    outer loop
      vertex -35 28.4692 -19.4794
      vertex 35 55.392 -27.7833
      vertex 15.451 52.0041 -29.1721
    endloop
  endfacet
  facet normal -0.37279 0.869874 0.323028
    outer loop
      vertex -35 30.4492 -21.2567
      vertex -23.7618 37.3876 -26.9715
      vertex -27.6222 35.7332 -26.9715
    endloop
  endfacet
  facet normal -0.372811 0.869875 0.323002
    outer loop
      vertex -35 30.4492 -21.2567
      vertex -27.6222 35.7332 -26.9715
      vertex -30.0801 36.1373 -30.8967
    endloop
  endfacet
  facet normal -0.372815 0.869874 0.323
    outer loop
      vertex -35 30.4492 -21.2567
      vertex -30.0801 36.1373 -30.8967
      vertex -35 37.034 -38.9903
    endloop
  endfacet
  facet normal -0.166273 0.658661 0.733838
    outer loop
      vertex -35 30.4492 -21.2567
      vertex 12.4035 53.784 -31.4603
      vertex 12.8064 55.1468 -32.5922
    endloop
  endfacet
  facet normal -0.372805 0.869877 0.323002
    outer loop
      vertex -35 30.4492 -21.2567
      vertex 12.8064 55.1468 -32.5922
      vertex -23.7618 37.3876 -26.9715
    endloop
  endfacet
  facet normal -0.372806 0.86988 0.322993
    outer loop
      vertex -35 37.034 -38.9903
      vertex -24.8172 39.8503 -34.8219
      vertex 13.603 56.3161 -34.8219
    endloop
  endfacet
  facet normal -0.372811 0.86987 0.323013
    outer loop
      vertex -35 37.034 -38.9903
      vertex -28.6776 38.1958 -34.8219
      vertex -24.8172 39.8503 -34.8219
    endloop
  endfacet
  facet normal -0.372799 0.869884 0.322991
    outer loop
      vertex -35 37.034 -38.9903
      vertex -30.0801 36.1373 -30.8967
      vertex -28.6776 38.1958 -34.8219
    endloop
  endfacet
  facet normal -0.372806 0.86988 0.322993
    outer loop
      vertex -35 37.034 -38.9903
      vertex 13.603 56.3161 -34.8219
      vertex 35 67.034 -38.9903
    endloop
  endfacet
  facet normal -0.290724 0.678357 -0.674768
    outer loop
      vertex -35 37.034 -38.9903
      vertex 35 67.034 -38.9903
      vertex 35 62.8601 -43.1864
    endloop
  endfacet
  facet normal -1 0 0
    outer loop
      vertex -35 5.16556 -11.602
      vertex -35 7.46487 -10.2745
      vertex -35 22.7 -17.7
    endloop
  endfacet
  facet normal 0 -0.309035 0.951051
    outer loop
      vertex -35 5.16556 -11.602
      vertex 35 2.64048 -12.4225
      vertex 35 5.16556 -11.602
    endloop
  endfacet
  facet normal 0 -0.499998 0.866027
    outer loop
      vertex -35 5.16556 -11.602
      vertex 35 5.16556 -11.602
      vertex -35 7.46487 -10.2745
    endloop
  endfacet
  facet normal -0 -0.499998 -0.866027
    outer loop
      vertex -35 5.16556 11.602
      vertex -35 7.46487 10.2745
      vertex 35 7.46487 10.2745
    endloop
  endfacet
  facet normal -1 0 0
    outer loop
      vertex -35 5.16556 11.602
      vertex -35 9.40265 22.7
      vertex -35 7.46487 10.2745
    endloop
  endfacet
  facet normal 0 -0.499998 -0.866027
    outer loop
      vertex -35 5.16556 11.602
      vertex 35 7.46487 10.2745
      vertex 35 5.16556 11.602
    endloop
  endfacet
  facet normal -1 0 0
    outer loop
      vertex -35 7.46487 -10.2745
      vertex -35 9.43794 -8.49796
      vertex -35 22.7 -17.7
    endloop
  endfacet
  facet normal 0 -0.499998 0.866027
    outer loop
      vertex -35 7.46487 -10.2745
      vertex 35 5.16556 -11.602
      vertex 35 7.46487 -10.2745
    endloop
  endfacet
  facet normal 0 -0.669126 0.743149
    outer loop
      vertex -35 7.46487 -10.2745
      vertex 35 7.46487 -10.2745
      vertex -35 9.43794 -8.49796
    endloop
  endfacet
  facet normal -1 0 0
    outer loop
      vertex -35 7.46487 10.2745
      vertex -35 9.40265 22.7
      vertex -35 9.43794 8.49796
    endloop
  endfacet
  facet normal -0 -0.669126 -0.743149
    outer loop
      vertex -35 7.46487 10.2745
      vertex -35 9.43794 8.49796
      vertex 35 9.43794 8.49796
    endloop
  endfacet
  facet normal 0 -0.669126 -0.743149
    outer loop
      vertex -35 7.46487 10.2745
      vertex 35 9.43794 8.49796
      vertex 35 7.46487 10.2745
    endloop
  endfacet
  facet normal 0.0569907 -0.691702 -0.719931
    outer loop
      vertex -35 9.26019 -38.3258
      vertex -23.9364 15.363 -43.3135
      vertex 35 1.63415 -25.4575
    endloop
  endfacet
  facet normal 0.0569859 -0.691697 -0.719936
    outer loop
      vertex -35 9.26019 -38.3258
      vertex -35 12.4931 -41.4319
      vertex -23.9364 15.363 -43.3135
    endloop
  endfacet
  facet normal -1 0 0
    outer loop
      vertex -35 9.26019 -38.3258
      vertex -35 22.7 -17.7
      vertex -35 12.4931 -41.4319
    endloop
  endfacet
  facet normal -1 0 0
    outer loop
      vertex -35 9.40265 22.7
      vertex -35 22.7 9.40265
      vertex -35 9.43794 8.49796
    endloop
  endfacet
  facet normal -0 0 1
    outer loop
      vertex -35 9.40265 22.7
      vertex 35 0.5 22.7
      vertex 35 9.40265 22.7
    endloop
  endfacet
  facet normal 0 0.707107 0.707107
    outer loop
      vertex -35 9.40265 22.7
      vertex 35 22.7 9.40265
      vertex -35 22.7 9.40265
    endloop
  endfacet
  facet normal 0 0.707107 0.707107
    outer loop
      vertex -35 9.40265 22.7
      vertex 35 9.40265 22.7
      vertex 35 22.7 9.40265
    endloop
  endfacet
  facet normal -1 0 0
    outer loop
      vertex -35 9.43794 -8.49796
      vertex -35 10.9985 -6.35
      vertex -35 22.7 -17.7
    endloop
  endfacet
  facet normal 0 -0.809021 0.587779
    outer loop
      vertex -35 9.43794 -8.49796
      vertex 35 10.9985 -6.35
      vertex -35 10.9985 -6.35
    endloop
  endfacet
  facet normal 0 -0.669126 0.743149
    outer loop
      vertex -35 9.43794 -8.49796
      vertex 35 7.46487 -10.2745
      vertex 35 9.43794 -8.49796
    endloop
  endfacet
  facet normal 0 -0.809021 0.587779
    outer loop
      vertex -35 9.43794 -8.49796
      vertex 35 9.43794 -8.49796
      vertex 35 10.9985 -6.35
    endloop
  endfacet
  facet normal 0 -0.809021 -0.587779
    outer loop
      vertex -35 9.43794 8.49796
      vertex -35 10.9985 6.35
      vertex 35 9.43794 8.49796
    endloop
  endfacet
  facet normal -1 0 0
    outer loop
      vertex -35 9.43794 8.49796
      vertex -35 22.7 9.40265
      vertex -35 10.9985 6.35
    endloop
  endfacet
  facet normal 0 1 0
    outer loop
      vertex -4.2 17.5 -17.7
      vertex -1.59099 17.5 -16.109
      vertex -2.25 17.5 -17.7
    endloop
  endfacet
  facet normal 0 1 0
    outer loop
      vertex -4.2 17.5 -17.7
      vertex -1.59099 17.5 -19.291
      vertex -2.1 17.5 -21.3373
    endloop
  endfacet
  facet normal 0 1 0
    outer loop
      vertex -4.2 17.5 -17.7
      vertex -2.1 17.5 -14.0627
      vertex -1.59099 17.5 -16.109
    endloop
  endfacet
  facet normal 0.866025 0 0.500001
    outer loop
      vertex -4.2 17.5 -17.7
      vertex -2.1 17.5 -21.3373
      vertex -4.2 22.7 -17.7
    endloop
  endfacet
  facet normal 0 1 0
    outer loop
      vertex -4.2 17.5 -17.7
      vertex -2.25 17.5 -17.7
      vertex -1.59099 17.5 -19.291
    endloop
  endfacet
  facet normal 0.866025 0 -0.500001
    outer loop
      vertex -4.2 17.5 -17.7
      vertex -4.2 22.7 -17.7
      vertex -2.1 17.5 -14.0627
    endloop
  endfacet
  facet normal 0.866025 0 0.500001
    outer loop
      vertex -4.2 22.7 -17.7
      vertex -2.1 17.5 -21.3373
      vertex -2.1 34.4929 -21.3373
    endloop
  endfacet
  facet normal 0.866025 0 -0.500001
    outer loop
      vertex -4.2 22.7 -17.7
      vertex -2.1 22.7 -14.0627
      vertex -2.1 17.5 -14.0627
    endloop
  endfacet
  facet normal -0.382679 0 -0.923882
    outer loop
      vertex 0 0.5 -15.45
      vertex 0 17.5 -15.45
      vertex 1.59099 17.5 -16.109
    endloop
  endfacet
  facet normal 0 -1 0
    outer loop
      vertex 0 0.5 -15.45
      vertex 1.59099 0.5 -16.109
      vertex 35 0.5 -12.6474
    endloop
  endfacet
  facet normal -0.382679 0 -0.923882
    outer loop
      vertex 0 0.5 -15.45
      vertex 1.59099 17.5 -16.109
      vertex 1.59099 0.5 -16.109
    endloop
  endfacet
  facet normal -0.382679 0 0.923882
    outer loop
      vertex 0 0.5 -19.95
      vertex 1.59099 0.5 -19.291
      vertex 0 17.5 -19.95
    endloop
  endfacet
  facet normal 0 -1 0
    outer loop
      vertex 0 0.5 -19.95
      vertex 35 0.5 -23.5437
      vertex 1.59099 0.5 -19.291
    endloop
  endfacet
  facet normal 0 1 0
    outer loop
      vertex 0 17.5 -15.45
      vertex 2.1 17.5 -14.0627
      vertex 1.59099 17.5 -16.109
    endloop
  endfacet
  facet normal -0.382679 0 0.923882
    outer loop
      vertex 0 17.5 -19.95
      vertex 1.59099 0.5 -19.291
      vertex 1.59099 17.5 -19.291
    endloop
  endfacet
  facet normal 0 1 0
    outer loop
      vertex 0 17.5 -19.95
      vertex 1.59099 17.5 -19.291
      vertex 2.1 17.5 -21.3373
    endloop
  endfacet
  facet normal -0.92388 -0 -0.382682
    outer loop
      vertex 1.59099 0.5 -16.109
      vertex 1.59099 17.5 -16.109
      vertex 2.25 0.5 -17.7
    endloop
  endfacet
  facet normal 0 -1 0
    outer loop
      vertex 1.59099 0.5 -16.109
      vertex 2.25 0.5 -17.7
      vertex 35 0.5 -12.6474
    endloop
  endfacet
  facet normal -0.92388 0 0.382682
    outer loop
      vertex 1.59099 0.5 -19.291
      vertex 2.25 0.5 -17.7
      vertex 2.25 17.5 -17.7
    endloop
  endfacet
  facet normal -0.92388 0 0.382682
    outer loop
      vertex 1.59099 0.5 -19.291
      vertex 2.25 17.5 -17.7
      vertex 1.59099 17.5 -19.291
    endloop
  endfacet
  facet normal 0 -1 0
    outer loop
      vertex 1.59099 0.5 -19.291
      vertex 35 0.5 -23.5437
      vertex 2.25 0.5 -17.7
    endloop
  endfacet
  facet normal 0 1 0
    outer loop
      vertex 1.59099 17.5 -16.109
      vertex 2.1 17.5 -14.0627
      vertex 4.2 17.5 -17.7
    endloop
  endfacet
  facet normal -0.92388 0 -0.382682
    outer loop
      vertex 1.59099 17.5 -16.109
      vertex 2.25 17.5 -17.7
      vertex 2.25 0.5 -17.7
    endloop
  endfacet
  facet normal 0 1 0
    outer loop
      vertex 1.59099 17.5 -16.109
      vertex 4.2 17.5 -17.7
      vertex 2.25 17.5 -17.7
    endloop
  endfacet
  facet normal 0 1 0
    outer loop
      vertex 1.59099 17.5 -19.291
      vertex 2.25 17.5 -17.7
      vertex 4.2 17.5 -17.7
    endloop
  endfacet
  facet normal 0 1 -0
    outer loop
      vertex 1.59099 17.5 -19.291
      vertex 4.2 17.5 -17.7
      vertex 2.1 17.5 -21.3373
    endloop
  endfacet
  facet normal 0.941399 0.00182528 0.337289
    outer loop
      vertex 12.4035 53.784 -31.4603
      vertex 13.603 56.3161 -34.8219
      vertex 12.8064 55.1468 -32.5922
    endloop
  endfacet
  facet normal 0.650653 0.680319 -0.337368
    outer loop
      vertex 12.4035 53.784 -31.4603
      vertex 15.451 52.0041 -29.1721
      vertex 19.3373 42.9363 -39.9626
    endloop
  endfacet
  facet normal 0.941365 0.00196897 0.337385
    outer loop
      vertex 12.4035 53.784 -31.4603
      vertex 16.3496 44.5764 -42.4169
      vertex 13.603 56.3161 -34.8219
    endloop
  endfacet
  facet normal 0.650628 0.680327 -0.337398
    outer loop
      vertex 12.4035 53.784 -31.4603
      vertex 19.3373 42.9363 -39.9626
      vertex 16.3496 44.5764 -42.4169
    endloop
  endfacet
  facet normal 0.866026 0 -0.5
    outer loop
      vertex 13.3 17.5 0
      vertex 13.3 22.7 0
      vertex 15.4 17.5 3.63731
    endloop
  endfacet
  facet normal 0 1 0
    outer loop
      vertex 13.3 17.5 0
      vertex 15.25 17.5 0
      vertex 15.909 17.5 -1.59099
    endloop
  endfacet
  facet normal 0.866026 0 0.5
    outer loop
      vertex 13.3 17.5 0
      vertex 15.4 17.5 -3.63731
      vertex 15.4 22.7 -3.63731
    endloop
  endfacet
  facet normal 0 1 0
    outer loop
      vertex 13.3 17.5 0
      vertex 15.4 17.5 3.63731
      vertex 15.909 17.5 1.59099
    endloop
  endfacet
  facet normal 0.866026 -0 0.5
    outer loop
      vertex 13.3 17.5 0
      vertex 15.4 22.7 -3.63731
      vertex 13.3 22.7 0
    endloop
  endfacet
  facet normal 0 1 0
    outer loop
      vertex 13.3 17.5 0
      vertex 15.909 17.5 -1.59099
      vertex 15.4 17.5 -3.63731
    endloop
  endfacet
  facet normal 0 1 0
    outer loop
      vertex 13.3 17.5 0
      vertex 15.909 17.5 1.59099
      vertex 15.25 17.5 0
    endloop
  endfacet
  facet normal 0.866026 0 -0.5
    outer loop
      vertex 13.3 22.7 0
      vertex 15.4 22.7 3.63731
      vertex 15.4 17.5 3.63731
    endloop
  endfacet
  facet normal 0.94136 0.00195955 0.337398
    outer loop
      vertex 13.603 56.3161 -34.8219
      vertex 16.3496 44.5764 -42.4169
      vertex 17.2224 47.871 -44.8712
    endloop
  endfacet
  facet normal 0.290722 -0.678352 0.674773
    outer loop
      vertex 13.603 56.3161 -34.8219
      vertex 17.2224 47.871 -44.8712
      vertex 17.4635 57.9706 -34.8219
    endloop
  endfacet
  facet normal -0.372806 0.86988 0.322993
    outer loop
      vertex 13.603 56.3161 -34.8219
      vertex 17.4635 57.9706 -34.8219
      vertex 35 67.034 -38.9903
    endloop
  endfacet
  facet normal 0.923873 0 -0.3827
    outer loop
      vertex 15.25 12.6304 0
      vertex 15.25 17.5 0
      vertex 15.7999 12.6304 1.32751
    endloop
  endfacet
  facet normal 0.923873 0 0.3827
    outer loop
      vertex 15.25 12.6304 0
      vertex 15.7999 12.6304 -1.32751
      vertex 15.25 17.5 0
    endloop
  endfacet
  facet normal 0.923882 6.71504e-06 0.382679
    outer loop
      vertex 15.25 17.5 0
      vertex 15.7999 12.6304 -1.32751
      vertex 15.909 17.5 -1.59099
    endloop
  endfacet
  facet normal 0.923882 6.71504e-06 -0.382679
    outer loop
      vertex 15.25 17.5 0
      vertex 15.909 17.5 1.59099
      vertex 15.7999 12.6304 1.32751
    endloop
  endfacet
  facet normal 0 1 0
    outer loop
      vertex 15.4 17.5 -3.63731
      vertex 15.909 17.5 -1.59099
      vertex 17.5 17.5 -2.25
    endloop
  endfacet
  facet normal 0 1 0
    outer loop
      vertex 15.4 17.5 -3.63731
      vertex 17.5 17.5 -2.25
      vertex 19.6 17.5 -3.63731
    endloop
  endfacet
  facet normal 0 0 1
    outer loop
      vertex 15.4 17.5 -3.63731
      vertex 19.6 17.5 -3.63731
      vertex 15.4 22.7 -3.63731
    endloop
  endfacet
  facet normal -0 0 -1
    outer loop
      vertex 15.4 17.5 3.63731
      vertex 15.4 22.7 3.63731
      vertex 19.6 22.7 3.63731
    endloop
  endfacet
  facet normal 0 1 -0
    outer loop
      vertex 15.4 17.5 3.63731
      vertex 17.5 17.5 2.25
      vertex 15.909 17.5 1.59099
    endloop
  endfacet
  facet normal 0 1 0
    outer loop
      vertex 15.4 17.5 3.63731
      vertex 19.6 17.5 3.63731
      vertex 17.5 17.5 2.25
    endloop
  endfacet
  facet normal 0 0 -1
    outer loop
      vertex 15.4 17.5 3.63731
      vertex 19.6 22.7 3.63731
      vertex 19.6 17.5 3.63731
    endloop
  endfacet
  facet normal -0 0 1
    outer loop
      vertex 15.4 22.7 -3.63731
      vertex 19.6 17.5 -3.63731
      vertex 19.6 22.7 -3.63731
    endloop
  endfacet
  facet normal 0 1 0
    outer loop
      vertex 15.4 22.7 3.63731
      vertex 35 22.7 9.40265
      vertex 19.6 22.7 3.63731
    endloop
  endfacet
  facet normal -0.290716 0.678362 -0.674766
    outer loop
      vertex 15.451 52.0041 -29.1721
      vertex 19.4312 53.3792 -29.5045
      vertex 19.3373 42.9363 -39.9626
    endloop
  endfacet
  facet normal -0.166284 0.658689 0.733811
    outer loop
      vertex 15.451 52.0041 -29.1721
      vertex 35 55.392 -27.7833
      vertex 19.4312 53.3792 -29.5045
    endloop
  endfacet
  facet normal 0.923925 0 0.382573
    outer loop
      vertex 15.7999 12.6304 -1.32751
      vertex 15.909 12.5744 -1.59099
      vertex 15.909 17.5 -1.59099
    endloop
  endfacet
  facet normal 0.923925 0 -0.382573
    outer loop
      vertex 15.7999 12.6304 1.32751
      vertex 15.909 17.5 1.59099
      vertex 15.909 12.5744 1.59099
    endloop
  endfacet
  facet normal 0.382682 0 0.92388
    outer loop
      vertex 15.909 12.5744 -1.59099
      vertex 17.5 12.4343 -2.25
      vertex 17.5 17.5 -2.25
    endloop
  endfacet
  facet normal 0.382682 -0 0.92388
    outer loop
      vertex 15.909 12.5744 -1.59099
      vertex 17.5 17.5 -2.25
      vertex 15.909 17.5 -1.59099
    endloop
  endfacet
  facet normal 0.382682 0 -0.92388
    outer loop
      vertex 15.909 12.5744 1.59099
      vertex 15.909 17.5 1.59099
      vertex 17.5 17.5 2.25
    endloop
  endfacet
  facet normal 0.382682 0 -0.92388
    outer loop
      vertex 15.909 12.5744 1.59099
      vertex 17.5 17.5 2.25
      vertex 17.5 12.4343 2.25
    endloop
  endfacet
  facet normal -0.265842 0.620239 0.737992
    outer loop
      vertex 16.3496 44.5764 -42.4169
      vertex 18.1419 45.3446 -42.4169
      vertex 18.2851 46.6834 -43.4905
    endloop
  endfacet
  facet normal -0.265783 0.620209 0.738038
    outer loop
      vertex 16.3496 44.5764 -42.4169
      vertex 18.2851 46.6834 -43.4905
      vertex 17.2224 47.871 -44.8712
    endloop
  endfacet
  facet normal -0.265823 0.620196 0.738034
    outer loop
      vertex 16.3496 44.5764 -42.4169
      vertex 19.2102 44.5249 -41.3433
      vertex 18.1419 45.3446 -42.4169
    endloop
  endfacet
  facet normal -0.265826 0.620186 0.738042
    outer loop
      vertex 16.3496 44.5764 -42.4169
      vertex 19.3373 42.9363 -39.9626
      vertex 19.2102 44.5249 -41.3433
    endloop
  endfacet
  facet normal -0.265828 0.62018 0.738046
    outer loop
      vertex 17.2224 47.871 -44.8712
      vertex 18.2851 46.6834 -43.4905
      vertex 19.5559 47.7572 -43.9351
    endloop
  endfacet
  facet normal -0.265815 0.620218 0.738019
    outer loop
      vertex 17.2224 47.871 -44.8712
      vertex 19.5559 47.7572 -43.9351
      vertex 21.0828 49.5255 -44.8712
    endloop
  endfacet
  facet normal 0.290729 -0.678351 0.674771
    outer loop
      vertex 17.2224 47.871 -44.8712
      vertex 21.0828 49.5255 -44.8712
      vertex 17.4635 57.9706 -34.8219
    endloop
  endfacet
  facet normal -0.372799 0.869876 0.323012
    outer loop
      vertex 17.4635 57.9706 -34.8219
      vertex 18.0771 57.8697 -33.842
      vertex 35 67.034 -38.9903
    endloop
  endfacet
  facet normal -0.650637 -0.680335 0.337366
    outer loop
      vertex 17.4635 57.9706 -34.8219
      vertex 20.3638 56.5342 -32.1251
      vertex 18.0771 57.8697 -33.842
    endloop
  endfacet
  facet normal -0.650651 -0.680315 0.33738
    outer loop
      vertex 17.4635 57.9706 -34.8219
      vertex 21.0828 49.5255 -44.8712
      vertex 24.0704 47.8853 -42.4169
    endloop
  endfacet
  facet normal -0.650646 -0.680317 0.337386
    outer loop
      vertex 17.4635 57.9706 -34.8219
      vertex 24.0704 47.8853 -42.4169
      vertex 20.3638 56.5342 -32.1251
    endloop
  endfacet
  facet normal -0.382682 0 0.92388
    outer loop
      vertex 17.5 12.4343 -2.25
      vertex 19.091 12.5744 -1.59099
      vertex 17.5 17.5 -2.25
    endloop
  endfacet
  facet normal 4.03698e-06 -0.978143 0.207935
    outer loop
      vertex 17.5 12.4343 -2.25
      vertex 35 12.0784 -3.92452
      vertex 19.091 12.5744 -1.59099
    endloop
  endfacet
  facet normal -0.382682 -0 -0.92388
    outer loop
      vertex 17.5 12.4343 2.25
      vertex 17.5 17.5 2.25
      vertex 19.091 12.5744 1.59099
    endloop
  endfacet
  facet normal 4.03698e-06 -0.978143 -0.207935
    outer loop
      vertex 17.5 12.4343 2.25
      vertex 19.091 12.5744 1.59099
      vertex 35 12.0784 3.92452
    endloop
  endfacet
  facet normal -0.382682 0 0.92388
    outer loop
      vertex 17.5 17.5 -2.25
      vertex 19.091 12.5744 -1.59099
      vertex 19.091 17.5 -1.59099
    endloop
  endfacet
  facet normal 0 1 0
    outer loop
      vertex 17.5 17.5 -2.25
      vertex 19.091 17.5 -1.59099
      vertex 19.6 17.5 -3.63731
    endloop
  endfacet
  facet normal -0.382682 0 -0.92388
    outer loop
      vertex 17.5 17.5 2.25
      vertex 19.091 17.5 1.59099
      vertex 19.091 12.5744 1.59099
    endloop
  endfacet
  facet normal 0 1 0
    outer loop
      vertex 17.5 17.5 2.25
      vertex 19.6 17.5 3.63731
      vertex 19.091 17.5 1.59099
    endloop
  endfacet
  facet normal -0.166283 0.658675 0.733823
    outer loop
      vertex 18.0771 57.8697 -33.842
      vertex 20.3638 56.5342 -32.1251
      vertex 35 66.6123 -37.8546
    endloop
  endfacet
  facet normal -0.372805 0.869879 0.322997
    outer loop
      vertex 18.0771 57.8697 -33.842
      vertex 35 66.6123 -37.8546
      vertex 35 67.034 -38.9903
    endloop
  endfacet
  facet normal 0.737929 0.623525 -0.258221
    outer loop
      vertex 18.1419 45.3446 -42.4169
      vertex 19.2102 44.5249 -41.3433
      vertex 21.4695 39.2531 -47.6166
    endloop
  endfacet
  facet normal 0.960433 0.104346 0.258227
    outer loop
      vertex 18.1419 45.3446 -42.4169
      vertex 20.4013 40.0728 -48.6901
      vertex 20.5445 41.4116 -49.7637
    endloop
  endfacet
  facet normal 0.960433 0.104346 0.258227
    outer loop
      vertex 18.1419 45.3446 -42.4169
      vertex 20.5445 41.4116 -49.7637
      vertex 18.2851 46.6834 -43.4905
    endloop
  endfacet
  facet normal 0.737944 0.623515 -0.258199
    outer loop
      vertex 18.1419 45.3446 -42.4169
      vertex 21.4695 39.2531 -47.6166
      vertex 20.4013 40.0728 -48.6901
    endloop
  endfacet
  facet normal 0.620362 -0.475943 0.623401
    outer loop
      vertex 18.2851 46.6834 -43.4905
      vertex 20.5445 41.4116 -49.7637
      vertex 21.8152 42.4854 -50.2084
    endloop
  endfacet
  facet normal 0.620313 -0.475997 0.623409
    outer loop
      vertex 18.2851 46.6834 -43.4905
      vertex 21.8152 42.4854 -50.2084
      vertex 19.5559 47.7572 -43.9351
    endloop
  endfacet
  facet normal -0.923925 0 0.382573
    outer loop
      vertex 19.091 12.5744 -1.59099
      vertex 19.2001 12.6304 -1.32751
      vertex 19.091 17.5 -1.59099
    endloop
  endfacet
  facet normal -1.84794e-06 -0.978151 0.207897
    outer loop
      vertex 19.091 12.5744 -1.59099
      vertex 35 12.0784 -3.92452
      vertex 19.2001 12.6304 -1.32751
    endloop
  endfacet
  facet normal -0.923925 -0 -0.382573
    outer loop
      vertex 19.091 12.5744 1.59099
      vertex 19.091 17.5 1.59099
      vertex 19.2001 12.6304 1.32751
    endloop
  endfacet
  facet normal -1.84794e-06 -0.978151 -0.207897
    outer loop
      vertex 19.091 12.5744 1.59099
      vertex 19.2001 12.6304 1.32751
      vertex 35 12.0784 3.92452
    endloop
  endfacet
  facet normal -0.923882 6.71504e-06 0.382679
    outer loop
      vertex 19.091 17.5 -1.59099
      vertex 19.2001 12.6304 -1.32751
      vertex 19.75 17.5 0
    endloop
  endfacet
  facet normal 0 1 0
    outer loop
      vertex 19.091 17.5 -1.59099
      vertex 19.75 17.5 0
      vertex 21.7 17.5 0
    endloop
  endfacet
  facet normal 0 1 -0
    outer loop
      vertex 19.091 17.5 -1.59099
      vertex 21.7 17.5 0
      vertex 19.6 17.5 -3.63731
    endloop
  endfacet
  facet normal 0 1 0
    outer loop
      vertex 19.091 17.5 1.59099
      vertex 19.6 17.5 3.63731
      vertex 21.7 17.5 0
    endloop
  endfacet
  facet normal -0.923882 6.71504e-06 -0.382679
    outer loop
      vertex 19.091 17.5 1.59099
      vertex 19.75 17.5 0
      vertex 19.2001 12.6304 1.32751
    endloop
  endfacet
  facet normal 0 1 0
    outer loop
      vertex 19.091 17.5 1.59099
      vertex 21.7 17.5 0
      vertex 19.75 17.5 0
    endloop
  endfacet
  facet normal -0.923873 0 0.3827
    outer loop
      vertex 19.2001 12.6304 -1.32751
      vertex 19.75 12.6304 0
      vertex 19.75 17.5 0
    endloop
  endfacet
  facet normal 0 -0.978148 0.207908
    outer loop
      vertex 19.2001 12.6304 -1.32751
      vertex 35 12.0784 -3.92452
      vertex 35 12.6304 -1.32751
    endloop
  endfacet
  facet normal 0 -1 0
    outer loop
      vertex 19.2001 12.6304 -1.32751
      vertex 35 12.6304 -1.32751
      vertex 19.75 12.6304 0
    endloop
  endfacet
  facet normal 0 -1 0
    outer loop
      vertex 19.2001 12.6304 1.32751
      vertex 19.75 12.6304 0
      vertex 35 12.6304 1.32751
    endloop
  endfacet
  facet normal -0.923873 0 -0.3827
    outer loop
      vertex 19.2001 12.6304 1.32751
      vertex 19.75 17.5 0
      vertex 19.75 12.6304 0
    endloop
  endfacet
  facet normal 0 -0.978148 -0.207908
    outer loop
      vertex 19.2001 12.6304 1.32751
      vertex 35 12.6304 1.32751
      vertex 35 12.0784 3.92452
    endloop
  endfacet
  facet normal -0.265787 0.620195 0.738048
    outer loop
      vertex 19.2102 44.5249 -41.3433
      vertex 19.3373 42.9363 -39.9626
      vertex 20.8641 44.7046 -40.8987
    endloop
  endfacet
  facet normal 0.0831121 0.777463 -0.623413
    outer loop
      vertex 19.2102 44.5249 -41.3433
      vertex 20.8641 44.7046 -40.8987
      vertex 21.4695 39.2531 -47.6166
    endloop
  endfacet
  facet normal -0.290717 0.678362 -0.674766
    outer loop
      vertex 19.3373 42.9363 -39.9626
      vertex 19.4312 53.3792 -29.5045
      vertex 23.1977 44.5907 -39.9626
    endloop
  endfacet
  facet normal -0.265789 0.620196 0.738047
    outer loop
      vertex 19.3373 42.9363 -39.9626
      vertex 23.1977 44.5907 -39.9626
      vertex 20.8641 44.7046 -40.8987
    endloop
  endfacet
  facet normal -0.941367 -0.00197 -0.337379
    outer loop
      vertex 19.4312 53.3792 -29.5045
      vertex 20.3638 56.5342 -32.1251
      vertex 24.0704 47.8853 -42.4169
    endloop
  endfacet
  facet normal -0.941367 -0.00197158 -0.337378
    outer loop
      vertex 19.4312 53.3792 -29.5045
      vertex 24.0704 47.8853 -42.4169
      vertex 23.1977 44.5907 -39.9626
    endloop
  endfacet
  facet normal -0.166284 0.658678 0.733821
    outer loop
      vertex 19.4312 53.3792 -29.5045
      vertex 35 55.392 -27.7833
      vertex 20.3638 56.5342 -32.1251
    endloop
  endfacet
  facet normal -0.265786 0.620205 0.73804
    outer loop
      vertex 19.5559 47.7572 -43.9351
      vertex 21.2098 47.9369 -43.4905
      vertex 21.0828 49.5255 -44.8712
    endloop
  endfacet
  facet normal -0.0831121 -0.777463 0.623413
    outer loop
      vertex 19.5559 47.7572 -43.9351
      vertex 21.8152 42.4854 -50.2084
      vertex 21.2098 47.9369 -43.4905
    endloop
  endfacet
  facet normal -0.866026 0 0.5
    outer loop
      vertex 19.6 17.5 -3.63731
      vertex 21.7 17.5 0
      vertex 21.7 22.7 0
    endloop
  endfacet
  facet normal -0.866026 0 0.5
    outer loop
      vertex 19.6 17.5 -3.63731
      vertex 21.7 22.7 0
      vertex 19.6 22.7 -3.63731
    endloop
  endfacet
  facet normal -0.866026 -0 -0.5
    outer loop
      vertex 19.6 17.5 3.63731
      vertex 19.6 22.7 3.63731
      vertex 21.7 17.5 0
    endloop
  endfacet
  facet normal 0 1 0
    outer loop
      vertex 19.6 22.7 -3.63731
      vertex 21.7 22.7 0
      vertex 35 22.7 -17.7
    endloop
  endfacet
  facet normal -0.866026 0 -0.5
    outer loop
      vertex 19.6 22.7 3.63731
      vertex 21.7 22.7 0
      vertex 21.7 17.5 0
    endloop
  endfacet
  facet normal 0 1 0
    outer loop
      vertex 19.6 22.7 3.63731
      vertex 35 22.7 9.40265
      vertex 21.7 22.7 0
    endloop
  endfacet
  facet normal 0 -1 0
    outer loop
      vertex 19.75 12.6304 0
      vertex 35 12.6304 -1.32751
      vertex 35 12.6304 1.32751
    endloop
  endfacet
  facet normal -0.866025 -0 -0.500001
    outer loop
      vertex 2.1 17.5 -14.0627
      vertex 2.1 22.7 -14.0627
      vertex 4.2 17.5 -17.7
    endloop
  endfacet
  facet normal -0.866025 0 0.500001
    outer loop
      vertex 2.1 17.5 -21.3373
      vertex 4.2 17.5 -17.7
      vertex 4.2 22.7 -17.7
    endloop
  endfacet
  facet normal -0.866025 0 0.500001
    outer loop
      vertex 2.1 17.5 -21.3373
      vertex 4.2 22.7 -17.7
      vertex 2.1 34.4929 -21.3373
    endloop
  endfacet
  facet normal 0 1 0
    outer loop
      vertex 2.1 22.7 -14.0627
      vertex 13.3 22.7 0
      vertex 15.4 22.7 -3.63731
    endloop
  endfacet
  facet normal 0 1 0
    outer loop
      vertex 2.1 22.7 -14.0627
      vertex 15.4 22.7 -3.63731
      vertex 4.2 22.7 -17.7
    endloop
  endfacet
  facet normal -0.866025 0 -0.500001
    outer loop
      vertex 2.1 22.7 -14.0627
      vertex 4.2 22.7 -17.7
      vertex 4.2 17.5 -17.7
    endloop
  endfacet
  facet normal 6.54756e-07 0.294733 0.95558
    outer loop
      vertex 2.1 34.4929 -21.3373
      vertex 35 22.7 -17.7
      vertex 35 55.392 -27.7833
    endloop
  endfacet
  facet normal 0 0.294731 0.95558
    outer loop
      vertex 2.1 34.4929 -21.3373
      vertex 4.2 22.7 -17.7
      vertex 35 22.7 -17.7
    endloop
  endfacet
  facet normal 0 -1 0
    outer loop
      vertex 2.25 0.5 -17.7
      vertex 35 0.5 -23.5437
      vertex 35 0.5 -12.6474
    endloop
  endfacet
  facet normal -0.166284 0.658676 0.733822
    outer loop
      vertex 20.3638 56.5342 -32.1251
      vertex 35 55.392 -27.7833
      vertex 35 66.6123 -37.8546
    endloop
  endfacet
  facet normal -0.620294 0.476018 -0.623412
    outer loop
      vertex 20.8641 44.7046 -40.8987
      vertex 22.1349 45.7783 -41.3433
      vertex 24.3942 40.5066 -47.6166
    endloop
  endfacet
  facet normal 0.083144 0.777462 -0.623409
    outer loop
      vertex 20.8641 44.7046 -40.8987
      vertex 23.1235 39.4328 -47.1719
      vertex 21.4695 39.2531 -47.6166
    endloop
  endfacet
  facet normal -0.26579 0.620194 0.738048
    outer loop
      vertex 20.8641 44.7046 -40.8987
      vertex 23.1977 44.5907 -39.9626
      vertex 22.1349 45.7783 -41.3433
    endloop
  endfacet
  facet normal -0.620362 0.475943 -0.623401
    outer loop
      vertex 20.8641 44.7046 -40.8987
      vertex 24.3942 40.5066 -47.6166
      vertex 23.1235 39.4328 -47.1719
    endloop
  endfacet
  facet normal -0.265803 0.620201 0.738038
    outer loop
      vertex 21.0828 49.5255 -44.8712
      vertex 21.2098 47.9369 -43.4905
      vertex 24.0704 47.8853 -42.4169
    endloop
  endfacet
  facet normal -0.083144 -0.777462 0.623409
    outer loop
      vertex 21.2098 47.9369 -43.4905
      vertex 21.8152 42.4854 -50.2084
      vertex 23.4692 42.6651 -49.7637
    endloop
  endfacet
  facet normal -0.265798 0.620218 0.738025
    outer loop
      vertex 21.2098 47.9369 -43.4905
      vertex 22.2781 47.1172 -42.4169
      vertex 24.0704 47.8853 -42.4169
    endloop
  endfacet
  facet normal -0.737954 -0.623508 0.25819
    outer loop
      vertex 21.2098 47.9369 -43.4905
      vertex 23.4692 42.6651 -49.7637
      vertex 24.5374 41.8454 -48.6901
    endloop
  endfacet
  facet normal -0.737929 -0.623523 0.258223
    outer loop
      vertex 21.2098 47.9369 -43.4905
      vertex 24.5374 41.8454 -48.6901
      vertex 22.2781 47.1172 -42.4169
    endloop
  endfacet
  facet normal 0 1 -0
    outer loop
      vertex 21.7 22.7 0
      vertex 35 22.7 9.40265
      vertex 35 22.7 -17.7
    endloop
  endfacet
  facet normal 0.265811 -0.620216 -0.738022
    outer loop
      vertex 21.8152 42.4854 -50.2084
      vertex 35 52.3515 -53.7509
      vertex 23.4692 42.6651 -49.7637
    endloop
  endfacet
  facet normal -0.960435 -0.104334 -0.258222
    outer loop
      vertex 22.1349 45.7783 -41.3433
      vertex 22.2781 47.1172 -42.4169
      vertex 24.5374 41.8454 -48.6901
    endloop
  endfacet
  facet normal -0.265774 0.620204 0.738045
    outer loop
      vertex 22.1349 45.7783 -41.3433
      vertex 23.1977 44.5907 -39.9626
      vertex 24.0704 47.8853 -42.4169
    endloop
  endfacet
  facet normal -0.265797 0.620216 0.738027
    outer loop
      vertex 22.1349 45.7783 -41.3433
      vertex 24.0704 47.8853 -42.4169
      vertex 22.2781 47.1172 -42.4169
    endloop
  endfacet
  facet normal -0.960435 -0.104326 -0.258227
    outer loop
      vertex 22.1349 45.7783 -41.3433
      vertex 24.5374 41.8454 -48.6901
      vertex 24.3942 40.5066 -47.6166
    endloop
  endfacet
  facet normal 0.265804 -0.620194 -0.738043
    outer loop
      vertex 23.1235 39.4328 -47.1719
      vertex 24.3942 40.5066 -47.6166
      vertex 35 40.3072 -43.6294
    endloop
  endfacet
  facet normal 0.265815 -0.620219 -0.738019
    outer loop
      vertex 23.4692 42.6651 -49.7637
      vertex 35 52.3515 -53.7509
      vertex 24.5374 41.8454 -48.6901
    endloop
  endfacet
  facet normal 0.265799 -0.620211 -0.738031
    outer loop
      vertex 24.3942 40.5066 -47.6166
      vertex 24.5374 41.8454 -48.6901
      vertex 35 40.3072 -43.6294
    endloop
  endfacet
  facet normal 0.265799 -0.620209 -0.738032
    outer loop
      vertex 24.5374 41.8454 -48.6901
      vertex 35 52.3515 -53.7509
      vertex 35 40.3072 -43.6294
    endloop
  endfacet
  facet normal 1 0 0
    outer loop
      vertex 35 0.5 -23.5437
      vertex 35 1.63415 -25.4575
      vertex 35 3.1168 -26.882
    endloop
  endfacet
  facet normal 1 0 0
    outer loop
      vertex 35 0.5 -23.5437
      vertex 35 2.64048 -12.4225
      vertex 35 0.5 -12.6474
    endloop
  endfacet
  facet normal 1 0 0
    outer loop
      vertex 35 0.5 -23.5437
      vertex 35 3.1168 -26.882
      vertex 35 5.16556 -11.602
    endloop
  endfacet
  facet normal 1 0 0
    outer loop
      vertex 35 0.5 -23.5437
      vertex 35 5.16556 -11.602
      vertex 35 2.64048 -12.4225
    endloop
  endfacet
  facet normal 1 0 0
    outer loop
      vertex 35 0.5 12.6474
      vertex 35 2.64048 12.4225
      vertex 35 0.5 22.7
    endloop
  endfacet
  facet normal 1 -0 0
    outer loop
      vertex 35 0.5 22.7
      vertex 35 2.64048 12.4225
      vertex 35 9.40265 22.7
    endloop
  endfacet
  facet normal 1 -0 0
    outer loop
      vertex 35 10.9985 -6.35
      vertex 35 22.7 -17.7
      vertex 35 12.0784 -3.92452
    endloop
  endfacet
  facet normal 1 0 0
    outer loop
      vertex 35 10.9985 6.35
      vertex 35 12.0784 3.92452
      vertex 35 22.7 9.40265
    endloop
  endfacet
  facet normal 1 -0 0
    outer loop
      vertex 35 12.0784 -3.92452
      vertex 35 22.7 -17.7
      vertex 35 12.6304 -1.32751
    endloop
  endfacet
  facet normal 1 0 0
    outer loop
      vertex 35 12.0784 3.92452
      vertex 35 12.6304 1.32751
      vertex 35 22.7 9.40265
    endloop
  endfacet
  facet normal 1 0 0
    outer loop
      vertex 35 12.6304 -1.32751
      vertex 35 22.7 -17.7
      vertex 35 22.7 9.40265
    endloop
  endfacet
  facet normal 1 0 0
    outer loop
      vertex 35 12.6304 -1.32751
      vertex 35 22.7 9.40265
      vertex 35 12.6304 1.32751
    endloop
  endfacet
  facet normal 1 0 0
    outer loop
      vertex 35 2.64048 12.4225
      vertex 35 5.16556 11.602
      vertex 35 9.40265 22.7
    endloop
  endfacet
  facet normal 1 0 0
    outer loop
      vertex 35 22.7 -17.7
      vertex 35 40.6215 -43.3135
      vertex 35 55.392 -27.7833
    endloop
  endfacet
  facet normal 1 0 0
    outer loop
      vertex 35 3.1168 -26.882
      vertex 35 22.7 -17.7
      vertex 35 7.46487 -10.2745
    endloop
  endfacet
  facet normal 1 0 0
    outer loop
      vertex 35 3.1168 -26.882
      vertex 35 40.6215 -43.3135
      vertex 35 22.7 -17.7
    endloop
  endfacet
  facet normal 1 0 0
    outer loop
      vertex 35 3.1168 -26.882
      vertex 35 7.46487 -10.2745
      vertex 35 5.16556 -11.602
    endloop
  endfacet
  facet normal 1 0 0
    outer loop
      vertex 35 40.3072 -43.6294
      vertex 35 52.3515 -53.7509
      vertex 35 40.6215 -43.3135
    endloop
  endfacet
  facet normal 1 0 0
    outer loop
      vertex 35 40.6215 -43.3135
      vertex 35 52.3515 -53.7509
      vertex 35 62.8601 -43.1864
    endloop
  endfacet
  facet normal 1 0 0
    outer loop
      vertex 35 40.6215 -43.3135
      vertex 35 62.8601 -43.1864
      vertex 35 55.392 -27.7833
    endloop
  endfacet
  facet normal 1 0 0
    outer loop
      vertex 35 5.16556 11.602
      vertex 35 7.46487 10.2745
      vertex 35 9.40265 22.7
    endloop
  endfacet
  facet normal 1 0 0
    outer loop
      vertex 35 55.392 -27.7833
      vertex 35 62.8601 -43.1864
      vertex 35 66.6123 -37.8546
    endloop
  endfacet
  facet normal 1 0 0
    outer loop
      vertex 35 62.8601 -43.1864
      vertex 35 67.034 -38.9903
      vertex 35 66.6123 -37.8546
    endloop
  endfacet
  facet normal 1 -0 0
    outer loop
      vertex 35 7.46487 -10.2745
      vertex 35 22.7 -17.7
      vertex 35 9.43794 -8.49796
    endloop
  endfacet
  facet normal 1 0 0
    outer loop
      vertex 35 7.46487 10.2745
      vertex 35 9.43794 8.49796
      vertex 35 9.40265 22.7
    endloop
  endfacet
  facet normal 1 0 0
    outer loop
      vertex 35 9.40265 22.7
      vertex 35 9.43794 8.49796
      vertex 35 22.7 9.40265
    endloop
  endfacet
  facet normal 1 -0 0
    outer loop
      vertex 35 9.43794 -8.49796
      vertex 35 22.7 -17.7
      vertex 35 10.9985 -6.35
    endloop
  endfacet
  facet normal 1 0 0
    outer loop
      vertex 35 9.43794 8.49796
      vertex 35 10.9985 6.35
      vertex 35 22.7 9.40265
    endloop
  endfacet
  facet normal 0 1 0
    outer loop
      vertex 4.2 22.7 -17.7
      vertex 15.4 22.7 -3.63731
      vertex 19.6 22.7 -3.63731
    endloop
  endfacet
  facet normal 0 1 0
    outer loop
      vertex 4.2 22.7 -17.7
      vertex 19.6 22.7 -3.63731
      vertex 35 22.7 -17.7
    endloop
  endfacet
endsolid model
