solid model
  facet normal 0 -1 -0
    outer loop
      vertex -1.04528 9.94522 0
      vertex 1.04528 9.94522 0
      vertex 1.04528 9.94522 0.25
    endloop
  endfacet
  facet normal 0 -1 0
    outer loop
      vertex -1.04528 9.94522 0
      vertex 1.04528 9.94522 0.25
      vertex -1.04528 9.94522 0.25
    endloop
  endfacet
  facet normal 0 0 -1
    outer loop
      vertex -1.04528 9.94522 0
      vertex 3.5 46.4 0
      vertex 1.04528 9.94522 0
    endloop
  endfacet
  facet normal 0 0 1
    outer loop
      vertex -1.04528 9.94522 0.25
      vertex 1.04528 9.94522 0.25
      vertex 15.76 20 0.25
    endloop
  endfacet
  facet normal 0.994522 -0.104526 0
    outer loop
      vertex -10 0 0
      vertex -9.78148 2.07912 0
      vertex -10 0 0.25
    endloop
  endfacet
  facet normal 0.994522 -0.104526 0
    outer loop
      vertex -10 0 0.25
      vertex -9.78148 2.07912 0
      vertex -9.78148 2.07912 0.25
    endloop
  endfacet
  facet normal 0 1 0
    outer loop
      vertex -13.5 30.5 2.5
      vertex -13.5 30.5 5.5
      vertex 13.5 30.5 2.5
    endloop
  endfacet
  facet normal 1 0 0
    outer loop
      vertex -13.5 30.5 2.5
      vertex -13.5 46.5 2.5
      vertex -13.5 30.5 5.5
    endloop
  endfacet
  facet normal 0 0 1
    outer loop
      vertex -13.5 30.5 2.5
      vertex -3.5 46.4 2.5
      vertex -13.5 46.5 2.5
    endloop
  endfacet
  facet normal 0 0 1
    outer loop
      vertex -13.5 30.5 2.5
      vertex 13.5 30.5 2.5
      vertex -3.5 46.4 2.5
    endloop
  endfacet
  facet normal 1 -0 0
    outer loop
      vertex -13.5 30.5 5.5
      vertex -13.5 46.5 2.5
      vertex -13.5 46.5 5.5
    endloop
  endfacet
  facet normal 0 1 -0
    outer loop
      vertex -13.5 30.5 5.5
      vertex 13.5 30.5 5.5
      vertex 13.5 30.5 2.5
    endloop
  endfacet
  facet normal -0 0 1
    outer loop
      vertex -13.5 30.5 5.5
      vertex 15.76 20 5.5
      vertex 13.5 30.5 5.5
    endloop
  endfacet
  facet normal 0 0 1
    outer loop
      vertex -13.5 46.5 2.5
      vertex -3.5 46.4 2.5
      vertex -3.5 46.5 2.5
    endloop
  endfacet
  facet normal 0 -1 -0
    outer loop
      vertex -13.5 46.5 2.5
      vertex -3.5 46.5 2.5
      vertex -3.5 46.5 5.5
    endloop
  endfacet
  facet normal 0 -1 0
    outer loop
      vertex -13.5 46.5 2.5
      vertex -3.5 46.5 5.5
      vertex -13.5 46.5 5.5
    endloop
  endfacet
  facet normal 0 0 1
    outer loop
      vertex -13.5 46.5 5.5
      vertex -3.5 46.5 5.5
      vertex -3.5 48.9 5.5
    endloop
  endfacet
  facet normal 0 0 1
    outer loop
      vertex -13.5 46.5 5.5
      vertex -3.5 48.9 5.5
      vertex -13.5 51.5 5.5
    endloop
  endfacet
  facet normal 0 1 0
    outer loop
      vertex -13.5 51.5 0
      vertex -13.5 51.5 5.5
      vertex 13.5 51.5 0
    endloop
  endfacet
  facet normal 0 0 -1
    outer loop
      vertex -13.5 51.5 0
      vertex -3.5 48.9 0
      vertex -3.5 46.4 0
    endloop
  endfacet
  facet normal 0 0 -1
    outer loop
      vertex -13.5 51.5 0
      vertex 13.5 51.5 0
      vertex -3.5 48.9 0
    endloop
  endfacet
  facet normal -0 0 1
    outer loop
      vertex -13.5 51.5 5.5
      vertex -3.5 48.9 5.5
      vertex 13.5 51.5 5.5
    endloop
  endfacet
  facet normal 0 1 -0
    outer loop
      vertex -13.5 51.5 5.5
      vertex 13.5 51.5 5.5
      vertex 13.5 51.5 0
    endloop
  endfacet
  facet normal -0 0 1
    outer loop
      vertex -15.76 20 0.25
      vertex -1.04528 9.94522 0.25
      vertex 15.76 20 0.25
    endloop
  endfacet
  facet normal 0 0 1
    outer loop
      vertex -15.76 20 0.25
      vertex -3.09017 9.51056 0.25
      vertex -1.04528 9.94522 0.25
    endloop
  endfacet
  facet normal 0 0 1
    outer loop
      vertex -15.76 20 0.25
      vertex -5 8.66025 0.25
      vertex -3.09017 9.51056 0.25
    endloop
  endfacet
  facet normal 0 0 1
    outer loop
      vertex -15.76 20 0.25
      vertex -6.69131 7.43145 0.25
      vertex -5 8.66025 0.25
    endloop
  endfacet
  facet normal 0 0 1
    outer loop
      vertex -15.76 20 0.25
      vertex -8.09017 5.87785 0.25
      vertex -6.69131 7.43145 0.25
    endloop
  endfacet
  facet normal 0 -1 -0
    outer loop
      vertex -15.76 20 0.25
      vertex 15.76 20 0.25
      vertex 15.76 20 5.5
    endloop
  endfacet
  facet normal 0 -1 0
    outer loop
      vertex -15.76 20 0.25
      vertex 15.76 20 5.5
      vertex -15.76 20 5.5
    endloop
  endfacet
  facet normal 0 0 1
    outer loop
      vertex -15.76 20 5.5
      vertex 15.76 20 5.5
      vertex -13.5 30.5 5.5
    endloop
  endfacet
  facet normal 0 -1 0
    outer loop
      vertex -25.16 0 0.25
      vertex -10 0 0
      vertex -10 0 0.25
    endloop
  endfacet
  facet normal 0 0 1
    outer loop
      vertex -25.16 0 0.25
      vertex -10 0 0.25
      vertex -9.78148 2.07912 0.25
    endloop
  endfacet
  facet normal 1 0 0
    outer loop
      vertex -25.16 0 0.25
      vertex -25.16 10.6 0.25
      vertex -25.16 0 5.5
    endloop
  endfacet
  facet normal 0 0 1
    outer loop
      vertex -25.16 0 0.25
      vertex -9.78148 2.07912 0.25
      vertex -25.16 10.6 0.25
    endloop
  endfacet
  facet normal 1 -0 0
    outer loop
      vertex -25.16 0 5.5
      vertex -25.16 10.6 0.25
      vertex -25.16 10.6 5.5
    endloop
  endfacet
  facet normal 0.707107 -0.707107 0
    outer loop
      vertex -25.16 10.6 0.25
      vertex -15.76 20 0.25
      vertex -25.16 10.6 5.5
    endloop
  endfacet
  facet normal -0 0 1
    outer loop
      vertex -25.16 10.6 0.25
      vertex -8.09017 5.87785 0.25
      vertex -15.76 20 0.25
    endloop
  endfacet
  facet normal 0 0 1
    outer loop
      vertex -25.16 10.6 0.25
      vertex -9.13545 4.06737 0.25
      vertex -8.09017 5.87785 0.25
    endloop
  endfacet
  facet normal 0 0 1
    outer loop
      vertex -25.16 10.6 0.25
      vertex -9.78148 2.07912 0.25
      vertex -9.13545 4.06737 0.25
    endloop
  endfacet
  facet normal 0.707107 -0.707107 0
    outer loop
      vertex -25.16 10.6 5.5
      vertex -15.76 20 0.25
      vertex -15.76 20 5.5
    endloop
  endfacet
  facet normal 0.207914 -0.978147 0
    outer loop
      vertex -3.09017 9.51056 0
      vertex -1.04528 9.94522 0
      vertex -1.04528 9.94522 0.25
    endloop
  endfacet
  facet normal 0.207914 -0.978147 0
    outer loop
      vertex -3.09017 9.51056 0
      vertex -1.04528 9.94522 0.25
      vertex -3.09017 9.51056 0.25
    endloop
  endfacet
  facet normal 0 0 -1
    outer loop
      vertex -3.5 46.4 0
      vertex -1.04528 9.94522 0
      vertex -3.09017 9.51056 0
    endloop
  endfacet
  facet normal 0 1 0
    outer loop
      vertex -3.5 46.4 0
      vertex -3.5 46.4 2.5
      vertex 3.5 46.4 0
    endloop
  endfacet
  facet normal 1 0 0
    outer loop
      vertex -3.5 46.4 0
      vertex -3.5 46.5 2.5
      vertex -3.5 46.4 2.5
    endloop
  endfacet
  facet normal 1 0 0
    outer loop
      vertex -3.5 46.4 0
      vertex -3.5 48.9 0
      vertex -3.5 46.5 2.5
    endloop
  endfacet
  facet normal 0 0 -1
    outer loop
      vertex -3.5 46.4 0
      vertex 3.5 46.4 0
      vertex -1.04528 9.94522 0
    endloop
  endfacet
  facet normal -0 0 1
    outer loop
      vertex -3.5 46.4 2.5
      vertex 13.5 30.5 2.5
      vertex 3.5 46.4 2.5
    endloop
  endfacet
  facet normal 0 1 -0
    outer loop
      vertex -3.5 46.4 2.5
      vertex 3.5 46.4 2.5
      vertex 3.5 46.4 0
    endloop
  endfacet
  facet normal 1 0 0
    outer loop
      vertex -3.5 46.5 2.5
      vertex -3.5 48.9 0
      vertex -3.5 48.9 5.5
    endloop
  endfacet
  facet normal 1 0 0
    outer loop
      vertex -3.5 46.5 2.5
      vertex -3.5 48.9 5.5
      vertex -3.5 46.5 5.5
    endloop
  endfacet
  facet normal 0 0 -1
    outer loop
      vertex -3.5 48.9 0
      vertex 13.5 51.5 0
      vertex 3.5 48.9 0
    endloop
  endfacet
  facet normal 0 -1 -0
    outer loop
      vertex -3.5 48.9 0
      vertex 3.5 48.9 0
      vertex 3.5 48.9 5.5
    endloop
  endfacet
  facet normal 0 -1 0
    outer loop
      vertex -3.5 48.9 0
      vertex 3.5 48.9 5.5
      vertex -3.5 48.9 5.5
    endloop
  endfacet
  facet normal 0 0 1
    outer loop
      vertex -3.5 48.9 5.5
      vertex 3.5 48.9 5.5
      vertex 13.5 51.5 5.5
    endloop
  endfacet
  facet normal 0 -1 0
    outer loop
      vertex -30.16 0 0
      vertex -10 0 0
      vertex -25.16 0 0.25
    endloop
  endfacet
  facet normal 0 -1 0
    outer loop
      vertex -30.16 0 0
      vertex -25.16 0 0.25
      vertex -30.16 0 5.5
    endloop
  endfacet
  facet normal -1 -0 0
    outer loop
      vertex -30.16 0 0
      vertex -30.16 0 5.5
      vertex -30.16 20 5.5
    endloop
  endfacet
  facet normal -0 0 -1
    outer loop
      vertex -30.16 0 0
      vertex -30.16 20 0
      vertex -9.13545 4.06737 0
    endloop
  endfacet
  facet normal -1 0 0
    outer loop
      vertex -30.16 0 0
      vertex -30.16 20 5.5
      vertex -30.16 20 0
    endloop
  endfacet
  facet normal 0 0 -1
    outer loop
      vertex -30.16 0 0
      vertex -9.13545 4.06737 0
      vertex -9.78148 2.07912 0
    endloop
  endfacet
  facet normal 0 0 -1
    outer loop
      vertex -30.16 0 0
      vertex -9.78148 2.07912 0
      vertex -10 0 0
    endloop
  endfacet
  facet normal 0 -1 0
    outer loop
      vertex -30.16 0 5.5
      vertex -25.16 0 0.25
      vertex -25.16 0 5.5
    endloop
  endfacet
  facet normal 0 0 1
    outer loop
      vertex -30.16 0 5.5
      vertex -25.16 0 5.5
      vertex -25.16 10.6 5.5
    endloop
  endfacet
  facet normal 0 0 1
    outer loop
      vertex -30.16 0 5.5
      vertex -25.16 10.6 5.5
      vertex -30.16 20 5.5
    endloop
  endfacet
  facet normal 0 -0 -1
    outer loop
      vertex -30.16 20 0
      vertex -13.5 51.5 0
      vertex -3.5 46.4 0
    endloop
  endfacet
  facet normal -0.883979 0.467527 0
    outer loop
      vertex -30.16 20 0
      vertex -13.5 51.5 5.5
      vertex -13.5 51.5 0
    endloop
  endfacet
  facet normal 0 0 -1
    outer loop
      vertex -30.16 20 0
      vertex -3.09017 9.51056 0
      vertex -5 8.66025 0
    endloop
  endfacet
  facet normal 0 0 -1
    outer loop
      vertex -30.16 20 0
      vertex -3.5 46.4 0
      vertex -3.09017 9.51056 0
    endloop
  endfacet
  facet normal -0.883979 0.467527 0
    outer loop
      vertex -30.16 20 0
      vertex -30.16 20 5.5
      vertex -13.5 51.5 5.5
    endloop
  endfacet
  facet normal 0 0 -1
    outer loop
      vertex -30.16 20 0
      vertex -5 8.66025 0
      vertex -6.69131 7.43145 0
    endloop
  endfacet
  facet normal 0 0 -1
    outer loop
      vertex -30.16 20 0
      vertex -6.69131 7.43145 0
      vertex -8.09017 5.87785 0
    endloop
  endfacet
  facet normal 0 0 -1
    outer loop
      vertex -30.16 20 0
      vertex -8.09017 5.87785 0
      vertex -9.13545 4.06737 0
    endloop
  endfacet
  facet normal 0 0 1
    outer loop
      vertex -30.16 20 5.5
      vertex -13.5 30.5 5.5
      vertex -13.5 46.5 5.5
    endloop
  endfacet
  facet normal 0 0 1
    outer loop
      vertex -30.16 20 5.5
      vertex -13.5 46.5 5.5
      vertex -13.5 51.5 5.5
    endloop
  endfacet
  facet normal 0 0 1
    outer loop
      vertex -30.16 20 5.5
      vertex -15.76 20 5.5
      vertex -13.5 30.5 5.5
    endloop
  endfacet
  facet normal 0 0 1
    outer loop
      vertex -30.16 20 5.5
      vertex -25.16 10.6 5.5
      vertex -15.76 20 5.5
    endloop
  endfacet
  facet normal 0.406736 -0.913546 0
    outer loop
      vertex -5 8.66025 0
      vertex -3.09017 9.51056 0
      vertex -3.09017 9.51056 0.25
    endloop
  endfacet
  facet normal 0.406736 -0.913546 0
    outer loop
      vertex -5 8.66025 0
      vertex -3.09017 9.51056 0.25
      vertex -5 8.66025 0.25
    endloop
  endfacet
  facet normal 0.587783 -0.809019 0
    outer loop
      vertex -6.69131 7.43145 0
      vertex -5 8.66025 0
      vertex -5 8.66025 0.25
    endloop
  endfacet
  facet normal 0.587783 -0.809019 0
    outer loop
      vertex -6.69131 7.43145 0
      vertex -5 8.66025 0.25
      vertex -6.69131 7.43145 0.25
    endloop
  endfacet
  facet normal 0.743147 -0.669129 0
    outer loop
      vertex -8.09017 5.87785 0
      vertex -6.69131 7.43145 0
      vertex -8.09017 5.87785 0.25
    endloop
  endfacet
  facet normal 0.743147 -0.669129 0
    outer loop
      vertex -8.09017 5.87785 0.25
      vertex -6.69131 7.43145 0
      vertex -6.69131 7.43145 0.25
    endloop
  endfacet
  facet normal 0.866026 -0.5 0
    outer loop
      vertex -9.13545 4.06737 0
      vertex -8.09017 5.87785 0
      vertex -9.13545 4.06737 0.25
    endloop
  endfacet
  facet normal 0.866026 -0.5 0
    outer loop
      vertex -9.13545 4.06737 0.25
      vertex -8.09017 5.87785 0
      vertex -8.09017 5.87785 0.25
    endloop
  endfacet
  facet normal 0.951055 -0.309021 0
    outer loop
      vertex -9.78148 2.07912 0
      vertex -9.13545 4.06737 0
      vertex -9.78148 2.07912 0.25
    endloop
  endfacet
  facet normal 0.951055 -0.309021 0
    outer loop
      vertex -9.78148 2.07912 0.25
      vertex -9.13545 4.06737 0
      vertex -9.13545 4.06737 0.25
    endloop
  endfacet
  facet normal -0.207914 -0.978147 -0
    outer loop
      vertex 1.04528 9.94522 0
      vertex 3.09017 9.51056 0
      vertex 3.09017 9.51056 0.25
    endloop
  endfacet
  facet normal -0.207914 -0.978147 0
    outer loop
      vertex 1.04528 9.94522 0
      vertex 3.09017 9.51056 0.25
      vertex 1.04528 9.94522 0.25
    endloop
  endfacet
  facet normal 0 0 -1
    outer loop
      vertex 1.04528 9.94522 0
      vertex 3.5 46.4 0
      vertex 3.09017 9.51056 0
    endloop
  endfacet
  facet normal 0 0 1
    outer loop
      vertex 1.04528 9.94522 0.25
      vertex 3.09017 9.51056 0.25
      vertex 15.76 20 0.25
    endloop
  endfacet
  facet normal 0 -1 0
    outer loop
      vertex 10 0 0
      vertex 25.16 0 0.25
      vertex 10 0 0.25
    endloop
  endfacet
  facet normal 0 -1 0
    outer loop
      vertex 10 0 0
      vertex 30.16 0 0
      vertex 25.16 0 0.25
    endloop
  endfacet
  facet normal -1 -0 0
    outer loop
      vertex 13.5 30.5 2.5
      vertex 13.5 30.5 5.5
      vertex 13.5 46.5 5.5
    endloop
  endfacet
  facet normal -1 0 0
    outer loop
      vertex 13.5 30.5 2.5
      vertex 13.5 46.5 5.5
      vertex 13.5 46.5 2.5
    endloop
  endfacet
  facet normal 0 0 1
    outer loop
      vertex 13.5 30.5 5.5
      vertex 15.76 20 5.5
      vertex 30.16 20 5.5
    endloop
  endfacet
  facet normal -0 0 1
    outer loop
      vertex 13.5 30.5 5.5
      vertex 30.16 20 5.5
      vertex 13.5 46.5 5.5
    endloop
  endfacet
  facet normal -0 0 1
    outer loop
      vertex 13.5 46.5 5.5
      vertex 30.16 20 5.5
      vertex 13.5 51.5 5.5
    endloop
  endfacet
  facet normal 0.883979 0.467527 0
    outer loop
      vertex 13.5 51.5 0
      vertex 13.5 51.5 5.5
      vertex 30.16 20 5.5
    endloop
  endfacet
  facet normal 0.883979 0.467527 0
    outer loop
      vertex 13.5 51.5 0
      vertex 30.16 20 5.5
      vertex 30.16 20 0
    endloop
  endfacet
  facet normal -0.707107 -0.707107 0
    outer loop
      vertex 15.76 20 0.25
      vertex 25.16 10.6 0.25
      vertex 15.76 20 5.5
    endloop
  endfacet
  facet normal -0.707107 -0.707107 0
    outer loop
      vertex 15.76 20 5.5
      vertex 25.16 10.6 0.25
      vertex 25.16 10.6 5.5
    endloop
  endfacet
  facet normal 0 0 1
    outer loop
      vertex 15.76 20 5.5
      vertex 25.16 10.6 5.5
      vertex 30.16 20 5.5
    endloop
  endfacet
  facet normal -1 -0 0
    outer loop
      vertex 25.16 0 0.25
      vertex 25.16 0 5.5
      vertex 25.16 10.6 5.5
    endloop
  endfacet
  facet normal -1 0 0
    outer loop
      vertex 25.16 0 0.25
      vertex 25.16 10.6 5.5
      vertex 25.16 10.6 0.25
    endloop
  endfacet
  facet normal 0 -1 0
    outer loop
      vertex 25.16 0 0.25
      vertex 30.16 0 0
      vertex 30.16 0 5.5
    endloop
  endfacet
  facet normal 0 -1 0
    outer loop
      vertex 25.16 0 0.25
      vertex 30.16 0 5.5
      vertex 25.16 0 5.5
    endloop
  endfacet
  facet normal 0 0 1
    outer loop
      vertex 25.16 0 5.5
      vertex 30.16 0 5.5
      vertex 25.16 10.6 5.5
    endloop
  endfacet
  facet normal 0 0 1
    outer loop
      vertex 25.16 10.6 5.5
      vertex 30.16 0 5.5
      vertex 30.16 20 5.5
    endloop
  endfacet
  facet normal -0 0 -1
    outer loop
      vertex 3.09017 9.51056 0
      vertex 3.5 46.4 0
      vertex 30.16 20 0
    endloop
  endfacet
  facet normal 0 0 -1
    outer loop
      vertex 3.09017 9.51056 0
      vertex 30.16 20 0
      vertex 5 8.66025 0
    endloop
  endfacet
  facet normal -0.406736 -0.913546 -0
    outer loop
      vertex 3.09017 9.51056 0
      vertex 5 8.66025 0
      vertex 5 8.66025 0.25
    endloop
  endfacet
  facet normal -0.406736 -0.913546 0
    outer loop
      vertex 3.09017 9.51056 0
      vertex 5 8.66025 0.25
      vertex 3.09017 9.51056 0.25
    endloop
  endfacet
  facet normal 0 0 1
    outer loop
      vertex 3.09017 9.51056 0.25
      vertex 5 8.66025 0.25
      vertex 15.76 20 0.25
    endloop
  endfacet
  facet normal 0 0 -1
    outer loop
      vertex 3.5 46.4 0
      vertex 13.5 51.5 0
      vertex 30.16 20 0
    endloop
  endfacet
  facet normal -1 -0 0
    outer loop
      vertex 3.5 46.4 0
      vertex 3.5 46.4 2.5
      vertex 3.5 46.5 2.5
    endloop
  endfacet
  facet normal -1 0 0
    outer loop
      vertex 3.5 46.4 0
      vertex 3.5 46.5 2.5
      vertex 3.5 48.9 0
    endloop
  endfacet
  facet normal 0 0 -1
    outer loop
      vertex 3.5 46.4 0
      vertex 3.5 48.9 0
      vertex 13.5 51.5 0
    endloop
  endfacet
  facet normal 0 0 1
    outer loop
      vertex 3.5 46.4 2.5
      vertex 13.5 30.5 2.5
      vertex 13.5 46.5 2.5
    endloop
  endfacet
  facet normal 0 0 1
    outer loop
      vertex 3.5 46.4 2.5
      vertex 13.5 46.5 2.5
      vertex 3.5 46.5 2.5
    endloop
  endfacet
  facet normal 0 -1 -0
    outer loop
      vertex 3.5 46.5 2.5
      vertex 13.5 46.5 2.5
      vertex 13.5 46.5 5.5
    endloop
  endfacet
  facet normal 0 -1 0
    outer loop
      vertex 3.5 46.5 2.5
      vertex 13.5 46.5 5.5
      vertex 3.5 46.5 5.5
    endloop
  endfacet
  facet normal -1 -0 0
    outer loop
      vertex 3.5 46.5 2.5
      vertex 3.5 46.5 5.5
      vertex 3.5 48.9 5.5
    endloop
  endfacet
  facet normal -1 0 0
    outer loop
      vertex 3.5 46.5 2.5
      vertex 3.5 48.9 5.5
      vertex 3.5 48.9 0
    endloop
  endfacet
  facet normal 0 0 1
    outer loop
      vertex 3.5 46.5 5.5
      vertex 13.5 46.5 5.5
      vertex 3.5 48.9 5.5
    endloop
  endfacet
  facet normal 0 0 1
    outer loop
      vertex 3.5 48.9 5.5
      vertex 13.5 46.5 5.5
      vertex 13.5 51.5 5.5
    endloop
  endfacet
  facet normal 1 0 0
    outer loop
      vertex 30.16 0 0
      vertex 30.16 20 0
      vertex 30.16 0 5.5
    endloop
  endfacet
  facet normal 1 -0 0
    outer loop
      vertex 30.16 0 5.5
      vertex 30.16 20 0
      vertex 30.16 20 5.5
    endloop
  endfacet
  facet normal 0 0 -1
    outer loop
      vertex 5 8.66025 0
      vertex 30.16 20 0
      vertex 6.69131 7.43145 0
    endloop
  endfacet
  facet normal -0.587783 -0.809019 -0
    outer loop
      vertex 5 8.66025 0
      vertex 6.69131 7.43145 0
      vertex 6.69131 7.43145 0.25
    endloop
  endfacet
  facet normal -0.587783 -0.809019 0
    outer loop
      vertex 5 8.66025 0
      vertex 6.69131 7.43145 0.25
      vertex 5 8.66025 0.25
    endloop
  endfacet
  facet normal 0 0 1
    outer loop
      vertex 5 8.66025 0.25
      vertex 6.69131 7.43145 0.25
      vertex 15.76 20 0.25
    endloop
  endfacet
  facet normal 0 0 -1
    outer loop
      vertex 6.69131 7.43145 0
      vertex 30.16 20 0
      vertex 8.09017 5.87785 0
    endloop
  endfacet
  facet normal -0.743147 -0.669129 0
    outer loop
      vertex 6.69131 7.43145 0
      vertex 8.09017 5.87785 0
      vertex 6.69131 7.43145 0.25
    endloop
  endfacet
  facet normal -0.743147 -0.669129 0
    outer loop
      vertex 6.69131 7.43145 0.25
      vertex 8.09017 5.87785 0
      vertex 8.09017 5.87785 0.25
    endloop
  endfacet
  facet normal 0 0 1
    outer loop
      vertex 6.69131 7.43145 0.25
      vertex 8.09017 5.87785 0.25
      vertex 15.76 20 0.25
    endloop
  endfacet
  facet normal 0 0 -1
    outer loop
      vertex 8.09017 5.87785 0
      vertex 30.16 20 0
      vertex 9.13545 4.06737 0
    endloop
  endfacet
  facet normal -0.866026 -0.5 0
    outer loop
      vertex 8.09017 5.87785 0
      vertex 9.13545 4.06737 0
      vertex 8.09017 5.87785 0.25
    endloop
  endfacet
  facet normal 0 0 1
    outer loop
      vertex 8.09017 5.87785 0.25
      vertex 25.16 10.6 0.25
      vertex 15.76 20 0.25
    endloop
  endfacet
  facet normal -0.866026 -0.5 0
    outer loop
      vertex 8.09017 5.87785 0.25
      vertex 9.13545 4.06737 0
      vertex 9.13545 4.06737 0.25
    endloop
  endfacet
  facet normal 0 0 1
    outer loop
      vertex 8.09017 5.87785 0.25
      vertex 9.13545 4.06737 0.25
      vertex 25.16 10.6 0.25
    endloop
  endfacet
  facet normal 0 0 -1
    outer loop
      vertex 9.13545 4.06737 0
      vertex 30.16 0 0
      vertex 9.78148 2.07912 0
    endloop
  endfacet
  facet normal 0 0 -1
    outer loop
      vertex 9.13545 4.06737 0
      vertex 30.16 20 0
      vertex 30.16 0 0
    endloop
  endfacet
  facet normal -0.951055 -0.309021 0
    outer loop
      vertex 9.13545 4.06737 0
      vertex 9.78148 2.07912 0
      vertex 9.13545 4.06737 0.25
    endloop
  endfacet
  facet normal -0.951055 -0.309021 0
    outer loop
      vertex 9.13545 4.06737 0.25
      vertex 9.78148 2.07912 0
      vertex 9.78148 2.07912 0.25
    endloop
  endfacet
  facet normal 0 -0 1
    outer loop
      vertex 9.13545 4.06737 0.25
      vertex 9.78148 2.07912 0.25
      vertex 25.16 10.6 0.25
    endloop
  endfacet
  facet normal -0.994522 -0.104526 0
    outer loop
      vertex 9.78148 2.07912 0
      vertex 10 0 0
      vertex 9.78148 2.07912 0.25
    endloop
  endfacet
  facet normal 0 0 -1
    outer loop
      vertex 9.78148 2.07912 0
      vertex 30.16 0 0
      vertex 10 0 0
    endloop
  endfacet
  facet normal -0.994522 -0.104526 0
    outer loop
      vertex 9.78148 2.07912 0.25
      vertex 10 0 0
      vertex 10 0 0.25
    endloop
  endfacet
  facet normal 0 0 1
    outer loop
      vertex 9.78148 2.07912 0.25
      vertex 10 0 0.25
      vertex 25.16 0 0.25
    endloop
  endfacet
  facet normal 0 0 1
    outer loop
      vertex 9.78148 2.07912 0.25
      vertex 25.16 0 0.25
      vertex 25.16 10.6 0.25
    endloop
  endfacet
endsolid model
