solid model
  facet normal 0 0 1
    outer loop
      vertex -10.7 0 10
      vertex -9 -10 10
      vertex -9 10 10
    endloop
  endfacet
  facet normal -0 0 1
    outer loop
      vertex -12.35 -2.85788 10
      vertex -9 -10 10
      vertex -10.7 0 10
    endloop
  endfacet
  facet normal -0.866025 0.5 0
    outer loop
      vertex -12.35 -2.85788 9
      vertex -10.7 0 10
      vertex -10.7 0 9
    endloop
  endfacet
  facet normal -0.866025 0.5 0
    outer loop
      vertex -12.35 -2.85788 9
      vertex -12.35 -2.85788 10
      vertex -10.7 0 10
    endloop
  endfacet
  facet normal 0 0 1
    outer loop
      vertex -12.35 2.85788 10
      vertex -10.7 0 10
      vertex -9 10 10
    endloop
  endfacet
  facet normal -0.866025 -0.5 0
    outer loop
      vertex -12.35 2.85788 10
      vertex -10.7 0 9
      vertex -10.7 0 10
    endloop
  endfacet
  facet normal -0.866025 -0.5 0
    outer loop
      vertex -12.35 2.85788 9
      vertex -10.7 0 9
      vertex -12.35 2.85788 10
    endloop
  endfacet
  facet normal 0 0 -1
    outer loop
      vertex -12.4 0 0
      vertex 0 10 0
      vertex 0 -10 0
    endloop
  endfacet
  facet normal 0 0 -1
    outer loop
      vertex -12.4783 -0.494427 0
      vertex -12.4 0 0
      vertex 0 -10 0
    endloop
  endfacet
  facet normal -0.987688 0.156434 0
    outer loop
      vertex -12.4783 -0.494427 0
      vertex -12.4 0 9
      vertex -12.4 0 0
    endloop
  endfacet
  facet normal -0.987688 0.156434 0
    outer loop
      vertex -12.4783 -0.494427 0
      vertex -12.4783 -0.494427 9
      vertex -12.4 0 9
    endloop
  endfacet
  facet normal 0 0 1
    outer loop
      vertex -12.4783 -0.494427 9
      vertex -10.7 0 9
      vertex -12.4 0 9
    endloop
  endfacet
  facet normal -0.987688 -0.156434 0
    outer loop
      vertex -12.4783 0.494427 0
      vertex -12.4 0 0
      vertex -12.4783 0.494427 9
    endloop
  endfacet
  facet normal 0 0 -1
    outer loop
      vertex -12.4783 0.494427 0
      vertex 0 10 0
      vertex -12.4 0 0
    endloop
  endfacet
  facet normal -0.987688 -0.156434 0
    outer loop
      vertex -12.4783 0.494427 9
      vertex -12.4 0 0
      vertex -12.4 0 9
    endloop
  endfacet
  facet normal 0 0 1
    outer loop
      vertex -12.4783 0.494427 9
      vertex -12.4 0 9
      vertex -10.7 0 9
    endloop
  endfacet
  facet normal 0 0 -1
    outer loop
      vertex -12.7056 -0.940456 0
      vertex -12.4783 -0.494427 0
      vertex 0 -10 0
    endloop
  endfacet
  facet normal -0.891007 0.45399 0
    outer loop
      vertex -12.7056 -0.940456 0
      vertex -12.4783 -0.494427 9
      vertex -12.4783 -0.494427 0
    endloop
  endfacet
  facet normal -0.891007 0.45399 0
    outer loop
      vertex -12.7056 -0.940456 0
      vertex -12.7056 -0.940456 9
      vertex -12.4783 -0.494427 9
    endloop
  endfacet
  facet normal 0 0 1
    outer loop
      vertex -12.7056 -0.940456 9
      vertex -10.7 0 9
      vertex -12.4783 -0.494427 9
    endloop
  endfacet
  facet normal 0 0 1
    outer loop
      vertex -12.7056 -0.940456 9
      vertex -12.35 -2.85788 9
      vertex -10.7 0 9
    endloop
  endfacet
  facet normal -0.891007 -0.45399 0
    outer loop
      vertex -12.7056 0.940456 0
      vertex -12.4783 0.494427 0
      vertex -12.7056 0.940456 9
    endloop
  endfacet
  facet normal 0 0 -1
    outer loop
      vertex -12.7056 0.940456 0
      vertex 0 10 0
      vertex -12.4783 0.494427 0
    endloop
  endfacet
  facet normal -0 0 1
    outer loop
      vertex -12.7056 0.940456 9
      vertex -10.7 0 9
      vertex -12.35 2.85788 9
    endloop
  endfacet
  facet normal -0.891007 -0.45399 0
    outer loop
      vertex -12.7056 0.940456 9
      vertex -12.4783 0.494427 0
      vertex -12.4783 0.494427 9
    endloop
  endfacet
  facet normal 0 0 1
    outer loop
      vertex -12.7056 0.940456 9
      vertex -12.4783 0.494427 9
      vertex -10.7 0 9
    endloop
  endfacet
  facet normal 0 0 -1
    outer loop
      vertex -13.0595 -1.29443 0
      vertex -12.7056 -0.940456 0
      vertex 0 -10 0
    endloop
  endfacet
  facet normal -0.707107 0.707107 0
    outer loop
      vertex -13.0595 -1.29443 0
      vertex -12.7056 -0.940456 9
      vertex -12.7056 -0.940456 0
    endloop
  endfacet
  facet normal -0.707107 0.707107 0
    outer loop
      vertex -13.0595 -1.29443 0
      vertex -13.0595 -1.29443 9
      vertex -12.7056 -0.940456 9
    endloop
  endfacet
  facet normal -0 0 1
    outer loop
      vertex -13.0595 -1.29443 9
      vertex -12.35 -2.85788 9
      vertex -12.7056 -0.940456 9
    endloop
  endfacet
  facet normal -0.707107 -0.707107 0
    outer loop
      vertex -13.0595 1.29443 0
      vertex -12.7056 0.940456 0
      vertex -13.0595 1.29443 9
    endloop
  endfacet
  facet normal 0 0 -1
    outer loop
      vertex -13.0595 1.29443 0
      vertex 0 10 0
      vertex -12.7056 0.940456 0
    endloop
  endfacet
  facet normal -0.707107 -0.707107 0
    outer loop
      vertex -13.0595 1.29443 9
      vertex -12.7056 0.940456 0
      vertex -12.7056 0.940456 9
    endloop
  endfacet
  facet normal 0 0 1
    outer loop
      vertex -13.0595 1.29443 9
      vertex -12.7056 0.940456 9
      vertex -12.35 2.85788 9
    endloop
  endfacet
  facet normal 0 0 -1
    outer loop
      vertex -13.5056 -1.52169 0
      vertex -13.0595 -1.29443 0
      vertex 0 -10 0
    endloop
  endfacet
  facet normal -0.45399 0.891007 0
    outer loop
      vertex -13.5056 -1.52169 0
      vertex -13.5056 -1.52169 9
      vertex -13.0595 -1.29443 0
    endloop
  endfacet
  facet normal -0 0 1
    outer loop
      vertex -13.5056 -1.52169 9
      vertex -12.35 -2.85788 9
      vertex -13.0595 -1.29443 9
    endloop
  endfacet
  facet normal -0.45399 0.891007 0
    outer loop
      vertex -13.5056 -1.52169 9
      vertex -13.0595 -1.29443 9
      vertex -13.0595 -1.29443 0
    endloop
  endfacet
  facet normal -0.45399 -0.891007 -0
    outer loop
      vertex -13.5056 1.52169 0
      vertex -13.0595 1.29443 0
      vertex -13.0595 1.29443 9
    endloop
  endfacet
  facet normal -0.45399 -0.891007 0
    outer loop
      vertex -13.5056 1.52169 0
      vertex -13.0595 1.29443 9
      vertex -13.5056 1.52169 9
    endloop
  endfacet
  facet normal 0 0 -1
    outer loop
      vertex -13.5056 1.52169 0
      vertex 0 10 0
      vertex -13.0595 1.29443 0
    endloop
  endfacet
  facet normal 0 0 1
    outer loop
      vertex -13.5056 1.52169 9
      vertex -13.0595 1.29443 9
      vertex -12.35 2.85788 9
    endloop
  endfacet
  facet normal -0.156433 0.987689 0
    outer loop
      vertex -14 -1.6 0
      vertex -14 -1.6 9
      vertex -13.5056 -1.52169 0
    endloop
  endfacet
  facet normal -0 0 1
    outer loop
      vertex -14 -1.6 9
      vertex -12.35 -2.85788 9
      vertex -13.5056 -1.52169 9
    endloop
  endfacet
  facet normal -0.156433 0.987689 0
    outer loop
      vertex -14 -1.6 9
      vertex -13.5056 -1.52169 9
      vertex -13.5056 -1.52169 0
    endloop
  endfacet
  facet normal -0.156433 -0.987689 -0
    outer loop
      vertex -14 1.6 0
      vertex -13.5056 1.52169 0
      vertex -13.5056 1.52169 9
    endloop
  endfacet
  facet normal -0.156433 -0.987689 0
    outer loop
      vertex -14 1.6 0
      vertex -13.5056 1.52169 9
      vertex -14 1.6 9
    endloop
  endfacet
  facet normal 0 0 1
    outer loop
      vertex -14 1.6 9
      vertex -13.5056 1.52169 9
      vertex -12.35 2.85788 9
    endloop
  endfacet
  facet normal 0.156434 0.987688 0
    outer loop
      vertex -14.4944 -1.52169 0
      vertex -14.4944 -1.52169 9
      vertex -14 -1.6 0
    endloop
  endfacet
  facet normal 0.156434 0.987688 -0
    outer loop
      vertex -14.4944 -1.52169 9
      vertex -14 -1.6 9
      vertex -14 -1.6 0
    endloop
  endfacet
  facet normal 0.156434 -0.987688 0
    outer loop
      vertex -14.4944 1.52169 0
      vertex -14 1.6 0
      vertex -14 1.6 9
    endloop
  endfacet
  facet normal 0.156434 -0.987688 0
    outer loop
      vertex -14.4944 1.52169 0
      vertex -14 1.6 9
      vertex -14.4944 1.52169 9
    endloop
  endfacet
  facet normal 0.45399 0.891007 0
    outer loop
      vertex -14.9405 -1.29443 0
      vertex -14.9405 -1.29443 9
      vertex -14.4944 -1.52169 0
    endloop
  endfacet
  facet normal 0.45399 0.891007 -0
    outer loop
      vertex -14.9405 -1.29443 9
      vertex -14.4944 -1.52169 9
      vertex -14.4944 -1.52169 0
    endloop
  endfacet
  facet normal 0.45399 -0.891007 0
    outer loop
      vertex -14.9405 1.29443 0
      vertex -14.4944 1.52169 0
      vertex -14.4944 1.52169 9
    endloop
  endfacet
  facet normal 0.45399 -0.891007 0
    outer loop
      vertex -14.9405 1.29443 0
      vertex -14.4944 1.52169 9
      vertex -14.9405 1.29443 9
    endloop
  endfacet
  facet normal 0.707107 0.707107 0
    outer loop
      vertex -15.2944 -0.940456 0
      vertex -14.9405 -1.29443 9
      vertex -14.9405 -1.29443 0
    endloop
  endfacet
  facet normal 0.707107 0.707107 0
    outer loop
      vertex -15.2944 -0.940456 0
      vertex -15.2944 -0.940456 9
      vertex -14.9405 -1.29443 9
    endloop
  endfacet
  facet normal 0.707107 -0.707107 0
    outer loop
      vertex -15.2944 0.940456 0
      vertex -14.9405 1.29443 0
      vertex -15.2944 0.940456 9
    endloop
  endfacet
  facet normal 0.707107 -0.707107 0
    outer loop
      vertex -15.2944 0.940456 9
      vertex -14.9405 1.29443 0
      vertex -14.9405 1.29443 9
    endloop
  endfacet
  facet normal 0.891007 0.45399 0
    outer loop
      vertex -15.5217 -0.494427 0
      vertex -15.2944 -0.940456 9
      vertex -15.2944 -0.940456 0
    endloop
  endfacet
  facet normal 0.891007 0.45399 0
    outer loop
      vertex -15.5217 -0.494427 0
      vertex -15.5217 -0.494427 9
      vertex -15.2944 -0.940456 9
    endloop
  endfacet
  facet normal 0.891007 -0.45399 0
    outer loop
      vertex -15.5217 0.494427 0
      vertex -15.2944 0.940456 0
      vertex -15.5217 0.494427 9
    endloop
  endfacet
  facet normal 0.891007 -0.45399 0
    outer loop
      vertex -15.5217 0.494427 9
      vertex -15.2944 0.940456 0
      vertex -15.2944 0.940456 9
    endloop
  endfacet
  facet normal 0.987688 0.156434 0
    outer loop
      vertex -15.6 0 0
      vertex -15.5217 -0.494427 9
      vertex -15.5217 -0.494427 0
    endloop
  endfacet
  facet normal 0.987688 -0.156434 0
    outer loop
      vertex -15.6 0 0
      vertex -15.5217 0.494427 0
      vertex -15.6 0 9
    endloop
  endfacet
  facet normal 0.987688 0.156434 0
    outer loop
      vertex -15.6 0 0
      vertex -15.6 0 9
      vertex -15.5217 -0.494427 9
    endloop
  endfacet
  facet normal 0.987688 -0.156434 0
    outer loop
      vertex -15.6 0 9
      vertex -15.5217 0.494427 0
      vertex -15.5217 0.494427 9
    endloop
  endfacet
  facet normal 0 1 -0
    outer loop
      vertex -15.65 -2.85788 10
      vertex -12.35 -2.85788 10
      vertex -12.35 -2.85788 9
    endloop
  endfacet
  facet normal -0 0 1
    outer loop
      vertex -15.65 -2.85788 10
      vertex -9 -10 10
      vertex -12.35 -2.85788 10
    endloop
  endfacet
  facet normal 0 0 1
    outer loop
      vertex -15.65 -2.85788 9
      vertex -12.35 -2.85788 9
      vertex -14 -1.6 9
    endloop
  endfacet
  facet normal 0 0 1
    outer loop
      vertex -15.65 -2.85788 9
      vertex -14 -1.6 9
      vertex -14.4944 -1.52169 9
    endloop
  endfacet
  facet normal 0 0 1
    outer loop
      vertex -15.65 -2.85788 9
      vertex -14.4944 -1.52169 9
      vertex -14.9405 -1.29443 9
    endloop
  endfacet
  facet normal 0 0 1
    outer loop
      vertex -15.65 -2.85788 9
      vertex -14.9405 -1.29443 9
      vertex -15.2944 -0.940456 9
    endloop
  endfacet
  facet normal 0 1 0
    outer loop
      vertex -15.65 -2.85788 9
      vertex -15.65 -2.85788 10
      vertex -12.35 -2.85788 9
    endloop
  endfacet
  facet normal 0 0 1
    outer loop
      vertex -15.65 2.85788 10
      vertex -12.35 2.85788 10
      vertex -9 10 10
    endloop
  endfacet
  facet normal 0 -1 0
    outer loop
      vertex -15.65 2.85788 9
      vertex -12.35 2.85788 10
      vertex -15.65 2.85788 10
    endloop
  endfacet
  facet normal 0 -1 -0
    outer loop
      vertex -15.65 2.85788 9
      vertex -12.35 2.85788 9
      vertex -12.35 2.85788 10
    endloop
  endfacet
  facet normal -0 0 1
    outer loop
      vertex -15.65 2.85788 9
      vertex -14 1.6 9
      vertex -12.35 2.85788 9
    endloop
  endfacet
  facet normal 0 0 1
    outer loop
      vertex -15.65 2.85788 9
      vertex -14.4944 1.52169 9
      vertex -14 1.6 9
    endloop
  endfacet
  facet normal 0 0 1
    outer loop
      vertex -15.65 2.85788 9
      vertex -14.9405 1.29443 9
      vertex -14.4944 1.52169 9
    endloop
  endfacet
  facet normal 0 0 1
    outer loop
      vertex -15.65 2.85788 9
      vertex -15.2944 0.940456 9
      vertex -14.9405 1.29443 9
    endloop
  endfacet
  facet normal 0.866025 -0.5 0
    outer loop
      vertex -17.3 0 10
      vertex -15.65 2.85788 9
      vertex -15.65 2.85788 10
    endloop
  endfacet
  facet normal 0 0 1
    outer loop
      vertex -17.3 0 9
      vertex -15.2944 -0.940456 9
      vertex -15.5217 -0.494427 9
    endloop
  endfacet
  facet normal 0 0 1
    outer loop
      vertex -17.3 0 9
      vertex -15.2944 0.940456 9
      vertex -15.65 2.85788 9
    endloop
  endfacet
  facet normal -0 0 1
    outer loop
      vertex -17.3 0 9
      vertex -15.5217 -0.494427 9
      vertex -15.6 0 9
    endloop
  endfacet
  facet normal 0 0 1
    outer loop
      vertex -17.3 0 9
      vertex -15.5217 0.494427 9
      vertex -15.2944 0.940456 9
    endloop
  endfacet
  facet normal 0 0 1
    outer loop
      vertex -17.3 0 9
      vertex -15.6 0 9
      vertex -15.5217 0.494427 9
    endloop
  endfacet
  facet normal 0.866025 0.5 0
    outer loop
      vertex -17.3 0 9
      vertex -15.65 -2.85788 10
      vertex -15.65 -2.85788 9
    endloop
  endfacet
  facet normal 0 0 1
    outer loop
      vertex -17.3 0 9
      vertex -15.65 -2.85788 9
      vertex -15.2944 -0.940456 9
    endloop
  endfacet
  facet normal 0.866025 -0.5 0
    outer loop
      vertex -17.3 0 9
      vertex -15.65 2.85788 9
      vertex -17.3 0 10
    endloop
  endfacet
  facet normal 0.866025 0.5 0
    outer loop
      vertex -17.3 0 9
      vertex -17.3 0 10
      vertex -15.65 -2.85788 10
    endloop
  endfacet
  facet normal 0 0 -1
    outer loop
      vertex -19 -10 0
      vertex -13.5056 -1.52169 0
      vertex 0 -10 0
    endloop
  endfacet
  facet normal 0 0 -1
    outer loop
      vertex -19 -10 0
      vertex -14 -1.6 0
      vertex -13.5056 -1.52169 0
    endloop
  endfacet
  facet normal -0 0 -1
    outer loop
      vertex -19 -10 0
      vertex -14.4944 -1.52169 0
      vertex -14 -1.6 0
    endloop
  endfacet
  facet normal -0 0 -1
    outer loop
      vertex -19 -10 0
      vertex -14.9405 -1.29443 0
      vertex -14.4944 -1.52169 0
    endloop
  endfacet
  facet normal -0 0 -1
    outer loop
      vertex -19 -10 0
      vertex -15.2944 -0.940456 0
      vertex -14.9405 -1.29443 0
    endloop
  endfacet
  facet normal -0 0 -1
    outer loop
      vertex -19 -10 0
      vertex -15.5217 -0.494427 0
      vertex -15.2944 -0.940456 0
    endloop
  endfacet
  facet normal -0 0 -1
    outer loop
      vertex -19 -10 0
      vertex -15.6 0 0
      vertex -15.5217 -0.494427 0
    endloop
  endfacet
  facet normal -1 -0 0
    outer loop
      vertex -19 -10 0
      vertex -19 -10 10
      vertex -19 10 10
    endloop
  endfacet
  facet normal 0 0 -1
    outer loop
      vertex -19 -10 0
      vertex -19 10 0
      vertex -15.6 0 0
    endloop
  endfacet
  facet normal -1 0 0
    outer loop
      vertex -19 -10 0
      vertex -19 10 10
      vertex -19 10 0
    endloop
  endfacet
  facet normal 0 -1 0
    outer loop
      vertex -19 -10 0
      vertex -9 -10 10
      vertex -19 -10 10
    endloop
  endfacet
  facet normal 0 -1 0
    outer loop
      vertex -19 -10 0
      vertex 0 -10 0
      vertex -9 -10 10
    endloop
  endfacet
  facet normal 0 0 1
    outer loop
      vertex -19 -10 10
      vertex -15.65 -2.85788 10
      vertex -17.3 0 10
    endloop
  endfacet
  facet normal 0 0 1
    outer loop
      vertex -19 -10 10
      vertex -17.3 0 10
      vertex -19 10 10
    endloop
  endfacet
  facet normal 0 0 1
    outer loop
      vertex -19 -10 10
      vertex -9 -10 10
      vertex -15.65 -2.85788 10
    endloop
  endfacet
  facet normal 0 0 -1
    outer loop
      vertex -19 10 0
      vertex -13.5056 1.52169 0
      vertex -14 1.6 0
    endloop
  endfacet
  facet normal 0 0 -1
    outer loop
      vertex -19 10 0
      vertex -14 1.6 0
      vertex -14.4944 1.52169 0
    endloop
  endfacet
  facet normal 0 0 -1
    outer loop
      vertex -19 10 0
      vertex -14.4944 1.52169 0
      vertex -14.9405 1.29443 0
    endloop
  endfacet
  facet normal 0 0 -1
    outer loop
      vertex -19 10 0
      vertex -14.9405 1.29443 0
      vertex -15.2944 0.940456 0
    endloop
  endfacet
  facet normal 0 0 -1
    outer loop
      vertex -19 10 0
      vertex -15.2944 0.940456 0
      vertex -15.5217 0.494427 0
    endloop
  endfacet
  facet normal 0 0 -1
    outer loop
      vertex -19 10 0
      vertex -15.5217 0.494427 0
      vertex -15.6 0 0
    endloop
  endfacet
  facet normal 0 1 0
    outer loop
      vertex -19 10 0
      vertex -19 10 10
      vertex -9 10 10
    endloop
  endfacet
  facet normal 0 1 0
    outer loop
      vertex -19 10 0
      vertex -9 10 10
      vertex 0 10 0
    endloop
  endfacet
  facet normal 0 0 -1
    outer loop
      vertex -19 10 0
      vertex 0 10 0
      vertex -13.5056 1.52169 0
    endloop
  endfacet
  facet normal -0 0 1
    outer loop
      vertex -19 10 10
      vertex -15.65 2.85788 10
      vertex -9 10 10
    endloop
  endfacet
  facet normal 0 0 1
    outer loop
      vertex -19 10 10
      vertex -17.3 0 10
      vertex -15.65 2.85788 10
    endloop
  endfacet
  facet normal -1 -0 0
    outer loop
      vertex -9 -10 10
      vertex -9 -10 46.2
      vertex -9 10 46.2
    endloop
  endfacet
  facet normal -1 0 0
    outer loop
      vertex -9 -10 10
      vertex -9 10 46.2
      vertex -9 10 10
    endloop
  endfacet
  facet normal 0 -1 0
    outer loop
      vertex -9 -10 10
      vertex 0 -10 0
      vertex 0 -10 38.7
    endloop
  endfacet
  facet normal 0 -1 0
    outer loop
      vertex -9 -10 10
      vertex 0 -10 38.7
      vertex -9 -10 46.2
    endloop
  endfacet
  facet normal 0 -1 0
    outer loop
      vertex -9 -10 46.2
      vertex 0 -10 38.7
      vertex 143 -10 46.2
    endloop
  endfacet
  facet normal 0 0 1
    outer loop
      vertex -9 -10 46.2
      vertex 143 -10 46.2
      vertex -9 10 46.2
    endloop
  endfacet
  facet normal 0 1 0
    outer loop
      vertex -9 10 10
      vertex -9 10 46.2
      vertex 0 10 38.7
    endloop
  endfacet
  facet normal 0 1 -0
    outer loop
      vertex -9 10 10
      vertex 0 10 38.7
      vertex 0 10 0
    endloop
  endfacet
  facet normal -0 0 1
    outer loop
      vertex -9 10 46.2
      vertex 143 -10 46.2
      vertex 143 10 46.2
    endloop
  endfacet
  facet normal 0 1 0
    outer loop
      vertex -9 10 46.2
      vertex 143 10 46.2
      vertex 0 10 38.7
    endloop
  endfacet
  facet normal 1 0 0
    outer loop
      vertex 0 -10 0
      vertex 0 10 0
      vertex 0 -10 38.7
    endloop
  endfacet
  facet normal 1 -0 0
    outer loop
      vertex 0 -10 38.7
      vertex 0 10 0
      vertex 0 10 38.7
    endloop
  endfacet
  facet normal -0 0 -1
    outer loop
      vertex 0 -10 38.7
      vertex 0 10 38.7
      vertex 135 10 38.7
    endloop
  endfacet
  facet normal 0 -1 0
    outer loop
      vertex 0 -10 38.7
      vertex 135 -10 38.7
      vertex 143 -10 46.2
    endloop
  endfacet
  facet normal 0 0 -1
    outer loop
      vertex 0 -10 38.7
      vertex 135 10 38.7
      vertex 135 -10 38.7
    endloop
  endfacet
  facet normal 0 1 0
    outer loop
      vertex 0 10 38.7
      vertex 143 10 46.2
      vertex 135 10 38.7
    endloop
  endfacet
  facet normal -1 -0 0
    outer loop
      vertex 135 -10 0
      vertex 135 -10 38.7
      vertex 135 10 38.7
    endloop
  endfacet
  facet normal 0 0 -1
    outer loop
      vertex 135 -10 0
      vertex 135 10 0
      vertex 146.4 0 0
    endloop
  endfacet
  facet normal -1 0 0
    outer loop
      vertex 135 -10 0
      vertex 135 10 38.7
      vertex 135 10 0
    endloop
  endfacet
  facet normal 0 -1 0
    outer loop
      vertex 135 -10 0
      vertex 143 -10 10
      vertex 135 -10 38.7
    endloop
  endfacet
  facet normal -0 0 -1
    outer loop
      vertex 135 -10 0
      vertex 146.4 0 0
      vertex 146.478 -0.494427 0
    endloop
  endfacet
  facet normal -0 0 -1
    outer loop
      vertex 135 -10 0
      vertex 146.478 -0.494427 0
      vertex 146.706 -0.940456 0
    endloop
  endfacet
  facet normal -0 0 -1
    outer loop
      vertex 135 -10 0
      vertex 146.706 -0.940456 0
      vertex 147.06 -1.29443 0
    endloop
  endfacet
  facet normal -0 0 -1
    outer loop
      vertex 135 -10 0
      vertex 147.06 -1.29443 0
      vertex 147.506 -1.52169 0
    endloop
  endfacet
  facet normal 0 0 -1
    outer loop
      vertex 135 -10 0
      vertex 147.506 -1.52169 0
      vertex 153 -10 0
    endloop
  endfacet
  facet normal 0 -1 0
    outer loop
      vertex 135 -10 0
      vertex 153 -10 0
      vertex 143 -10 10
    endloop
  endfacet
  facet normal 0 -1 0
    outer loop
      vertex 135 -10 38.7
      vertex 143 -10 10
      vertex 143 -10 46.2
    endloop
  endfacet
  facet normal 0 1 0
    outer loop
      vertex 135 10 0
      vertex 135 10 38.7
      vertex 143 10 10
    endloop
  endfacet
  facet normal 0 1 0
    outer loop
      vertex 135 10 0
      vertex 143 10 10
      vertex 153 10 0
    endloop
  endfacet
  facet normal 0 0 -1
    outer loop
      vertex 135 10 0
      vertex 146.478 0.494427 0
      vertex 146.4 0 0
    endloop
  endfacet
  facet normal 0 0 -1
    outer loop
      vertex 135 10 0
      vertex 146.706 0.940456 0
      vertex 146.478 0.494427 0
    endloop
  endfacet
  facet normal 0 0 -1
    outer loop
      vertex 135 10 0
      vertex 147.06 1.29443 0
      vertex 146.706 0.940456 0
    endloop
  endfacet
  facet normal 0 0 -1
    outer loop
      vertex 135 10 0
      vertex 147.506 1.52169 0
      vertex 147.06 1.29443 0
    endloop
  endfacet
  facet normal 0 0 -1
    outer loop
      vertex 135 10 0
      vertex 153 10 0
      vertex 147.506 1.52169 0
    endloop
  endfacet
  facet normal 0 1 -0
    outer loop
      vertex 135 10 38.7
      vertex 143 10 46.2
      vertex 143 10 10
    endloop
  endfacet
  facet normal 1 0 0
    outer loop
      vertex 143 -10 10
      vertex 143 10 10
      vertex 143 -10 46.2
    endloop
  endfacet
  facet normal 0 0 1
    outer loop
      vertex 143 -10 10
      vertex 144.7 0 10
      vertex 143 10 10
    endloop
  endfacet
  facet normal 0 0 1
    outer loop
      vertex 143 -10 10
      vertex 146.35 -2.85788 10
      vertex 144.7 0 10
    endloop
  endfacet
  facet normal 0 -1 0
    outer loop
      vertex 143 -10 10
      vertex 153 -10 0
      vertex 153 -10 10
    endloop
  endfacet
  facet normal 0 0 1
    outer loop
      vertex 143 -10 10
      vertex 153 -10 10
      vertex 146.35 -2.85788 10
    endloop
  endfacet
  facet normal 1 -0 0
    outer loop
      vertex 143 -10 46.2
      vertex 143 10 10
      vertex 143 10 46.2
    endloop
  endfacet
  facet normal 0 0 1
    outer loop
      vertex 143 10 10
      vertex 144.7 0 10
      vertex 146.35 2.85788 10
    endloop
  endfacet
  facet normal -0 0 1
    outer loop
      vertex 143 10 10
      vertex 146.35 2.85788 10
      vertex 153 10 10
    endloop
  endfacet
  facet normal 0 1 0
    outer loop
      vertex 143 10 10
      vertex 153 10 10
      vertex 153 10 0
    endloop
  endfacet
  facet normal 0.866024 -0.500002 0
    outer loop
      vertex 144.7 0 10
      vertex 146.35 2.85788 9
      vertex 146.35 2.85788 10
    endloop
  endfacet
  facet normal 0.866024 0.500002 0
    outer loop
      vertex 144.7 0 9
      vertex 144.7 0 10
      vertex 146.35 -2.85788 10
    endloop
  endfacet
  facet normal 0.866024 0.500002 0
    outer loop
      vertex 144.7 0 9
      vertex 146.35 -2.85788 10
      vertex 146.35 -2.85788 9
    endloop
  endfacet
  facet normal 0 0 1
    outer loop
      vertex 144.7 0 9
      vertex 146.35 -2.85788 9
      vertex 146.706 -0.940456 9
    endloop
  endfacet
  facet normal 0.866024 -0.500002 0
    outer loop
      vertex 144.7 0 9
      vertex 146.35 2.85788 9
      vertex 144.7 0 10
    endloop
  endfacet
  facet normal 0 0 1
    outer loop
      vertex 144.7 0 9
      vertex 146.4 0 9
      vertex 146.478 0.494427 9
    endloop
  endfacet
  facet normal -0 0 1
    outer loop
      vertex 144.7 0 9
      vertex 146.478 -0.494427 9
      vertex 146.4 0 9
    endloop
  endfacet
  facet normal 0 0 1
    outer loop
      vertex 144.7 0 9
      vertex 146.478 0.494427 9
      vertex 146.706 0.940456 9
    endloop
  endfacet
  facet normal 0 0 1
    outer loop
      vertex 144.7 0 9
      vertex 146.706 -0.940456 9
      vertex 146.478 -0.494427 9
    endloop
  endfacet
  facet normal 0 0 1
    outer loop
      vertex 144.7 0 9
      vertex 146.706 0.940456 9
      vertex 146.35 2.85788 9
    endloop
  endfacet
  facet normal 0 1 -0
    outer loop
      vertex 146.35 -2.85788 10
      vertex 149.65 -2.85788 10
      vertex 149.65 -2.85788 9
    endloop
  endfacet
  facet normal -0 0 1
    outer loop
      vertex 146.35 -2.85788 10
      vertex 153 -10 10
      vertex 149.65 -2.85788 10
    endloop
  endfacet
  facet normal 0 1 0
    outer loop
      vertex 146.35 -2.85788 9
      vertex 146.35 -2.85788 10
      vertex 149.65 -2.85788 9
    endloop
  endfacet
  facet normal 0 0 1
    outer loop
      vertex 146.35 -2.85788 9
      vertex 147.06 -1.29443 9
      vertex 146.706 -0.940456 9
    endloop
  endfacet
  facet normal 0 0 1
    outer loop
      vertex 146.35 -2.85788 9
      vertex 147.506 -1.52169 9
      vertex 147.06 -1.29443 9
    endloop
  endfacet
  facet normal 0 0 1
    outer loop
      vertex 146.35 -2.85788 9
      vertex 148 -1.6 9
      vertex 147.506 -1.52169 9
    endloop
  endfacet
  facet normal 0 0 1
    outer loop
      vertex 146.35 -2.85788 9
      vertex 149.65 -2.85788 9
      vertex 148 -1.6 9
    endloop
  endfacet
  facet normal 0 0 1
    outer loop
      vertex 146.35 2.85788 10
      vertex 149.65 2.85788 10
      vertex 153 10 10
    endloop
  endfacet
  facet normal 0 0 1
    outer loop
      vertex 146.35 2.85788 9
      vertex 146.706 0.940456 9
      vertex 147.06 1.29443 9
    endloop
  endfacet
  facet normal 0 0 1
    outer loop
      vertex 146.35 2.85788 9
      vertex 147.06 1.29443 9
      vertex 147.506 1.52169 9
    endloop
  endfacet
  facet normal 0 0 1
    outer loop
      vertex 146.35 2.85788 9
      vertex 147.506 1.52169 9
      vertex 148 1.6 9
    endloop
  endfacet
  facet normal -0 0 1
    outer loop
      vertex 146.35 2.85788 9
      vertex 148 1.6 9
      vertex 149.65 2.85788 9
    endloop
  endfacet
  facet normal 0 -1 0
    outer loop
      vertex 146.35 2.85788 9
      vertex 149.65 2.85788 10
      vertex 146.35 2.85788 10
    endloop
  endfacet
  facet normal 0 -1 -0
    outer loop
      vertex 146.35 2.85788 9
      vertex 149.65 2.85788 9
      vertex 149.65 2.85788 10
    endloop
  endfacet
  facet normal 0.987689 0.156432 0
    outer loop
      vertex 146.4 0 0
      vertex 146.4 0 9
      vertex 146.478 -0.494427 9
    endloop
  endfacet
  facet normal 0.987689 0.156432 0
    outer loop
      vertex 146.4 0 0
      vertex 146.478 -0.494427 9
      vertex 146.478 -0.494427 0
    endloop
  endfacet
  facet normal 0.987689 -0.156432 0
    outer loop
      vertex 146.4 0 0
      vertex 146.478 0.494427 0
      vertex 146.4 0 9
    endloop
  endfacet
  facet normal 0.987689 -0.156432 0
    outer loop
      vertex 146.4 0 9
      vertex 146.478 0.494427 0
      vertex 146.478 0.494427 9
    endloop
  endfacet
  facet normal 0.891006 0.453992 0
    outer loop
      vertex 146.478 -0.494427 0
      vertex 146.478 -0.494427 9
      vertex 146.706 -0.940456 9
    endloop
  endfacet
  facet normal 0.891006 0.453992 0
    outer loop
      vertex 146.478 -0.494427 0
      vertex 146.706 -0.940456 9
      vertex 146.706 -0.940456 0
    endloop
  endfacet
  facet normal 0.891006 -0.453992 0
    outer loop
      vertex 146.478 0.494427 0
      vertex 146.706 0.940456 0
      vertex 146.478 0.494427 9
    endloop
  endfacet
  facet normal 0.891006 -0.453992 0
    outer loop
      vertex 146.478 0.494427 9
      vertex 146.706 0.940456 0
      vertex 146.706 0.940456 9
    endloop
  endfacet
  facet normal 0.707104 0.70711 0
    outer loop
      vertex 146.706 -0.940456 0
      vertex 146.706 -0.940456 9
      vertex 147.06 -1.29443 0
    endloop
  endfacet
  facet normal 0.707104 0.70711 -0
    outer loop
      vertex 146.706 -0.940456 9
      vertex 147.06 -1.29443 9
      vertex 147.06 -1.29443 0
    endloop
  endfacet
  facet normal 0.707104 -0.70711 0
    outer loop
      vertex 146.706 0.940456 0
      vertex 147.06 1.29443 0
      vertex 147.06 1.29443 9
    endloop
  endfacet
  facet normal 0.707104 -0.70711 0
    outer loop
      vertex 146.706 0.940456 0
      vertex 147.06 1.29443 9
      vertex 146.706 0.940456 9
    endloop
  endfacet
  facet normal 0.45399 0.891007 0
    outer loop
      vertex 147.06 -1.29443 0
      vertex 147.06 -1.29443 9
      vertex 147.506 -1.52169 0
    endloop
  endfacet
  facet normal 0.45399 0.891007 -0
    outer loop
      vertex 147.06 -1.29443 9
      vertex 147.506 -1.52169 9
      vertex 147.506 -1.52169 0
    endloop
  endfacet
  facet normal 0.45399 -0.891007 0
    outer loop
      vertex 147.06 1.29443 0
      vertex 147.506 1.52169 0
      vertex 147.506 1.52169 9
    endloop
  endfacet
  facet normal 0.45399 -0.891007 0
    outer loop
      vertex 147.06 1.29443 0
      vertex 147.506 1.52169 9
      vertex 147.06 1.29443 9
    endloop
  endfacet
  facet normal 0.156432 0.987689 0
    outer loop
      vertex 147.506 -1.52169 0
      vertex 147.506 -1.52169 9
      vertex 148 -1.6 0
    endloop
  endfacet
  facet normal 0 0 -1
    outer loop
      vertex 147.506 -1.52169 0
      vertex 148 -1.6 0
      vertex 153 -10 0
    endloop
  endfacet
  facet normal 0.156432 0.987689 -0
    outer loop
      vertex 147.506 -1.52169 9
      vertex 148 -1.6 9
      vertex 148 -1.6 0
    endloop
  endfacet
  facet normal 0.156432 -0.987689 0
    outer loop
      vertex 147.506 1.52169 0
      vertex 148 1.6 0
      vertex 148 1.6 9
    endloop
  endfacet
  facet normal 0.156432 -0.987689 0
    outer loop
      vertex 147.506 1.52169 0
      vertex 148 1.6 9
      vertex 147.506 1.52169 9
    endloop
  endfacet
  facet normal 0 0 -1
    outer loop
      vertex 147.506 1.52169 0
      vertex 153 10 0
      vertex 148 1.6 0
    endloop
  endfacet
  facet normal -0.156432 0.987689 0
    outer loop
      vertex 148 -1.6 0
      vertex 148 -1.6 9
      vertex 148.494 -1.52169 0
    endloop
  endfacet
  facet normal 0 0 -1
    outer loop
      vertex 148 -1.6 0
      vertex 148.494 -1.52169 0
      vertex 153 -10 0
    endloop
  endfacet
  facet normal -0.156432 0.987689 0
    outer loop
      vertex 148 -1.6 9
      vertex 148.494 -1.52169 9
      vertex 148.494 -1.52169 0
    endloop
  endfacet
  facet normal -0 0 1
    outer loop
      vertex 148 -1.6 9
      vertex 149.65 -2.85788 9
      vertex 148.494 -1.52169 9
    endloop
  endfacet
  facet normal -0.156432 -0.987689 -0
    outer loop
      vertex 148 1.6 0
      vertex 148.494 1.52169 0
      vertex 148.494 1.52169 9
    endloop
  endfacet
  facet normal -0.156432 -0.987689 0
    outer loop
      vertex 148 1.6 0
      vertex 148.494 1.52169 9
      vertex 148 1.6 9
    endloop
  endfacet
  facet normal 0 0 -1
    outer loop
      vertex 148 1.6 0
      vertex 153 10 0
      vertex 148.494 1.52169 0
    endloop
  endfacet
  facet normal 0 0 1
    outer loop
      vertex 148 1.6 9
      vertex 148.494 1.52169 9
      vertex 149.65 2.85788 9
    endloop
  endfacet
  facet normal -0.45399 0.891007 0
    outer loop
      vertex 148.494 -1.52169 0
      vertex 148.494 -1.52169 9
      vertex 148.94 -1.29443 0
    endloop
  endfacet
  facet normal 0 0 -1
    outer loop
      vertex 148.494 -1.52169 0
      vertex 148.94 -1.29443 0
      vertex 153 -10 0
    endloop
  endfacet
  facet normal -0.45399 0.891007 0
    outer loop
      vertex 148.494 -1.52169 9
      vertex 148.94 -1.29443 9
      vertex 148.94 -1.29443 0
    endloop
  endfacet
  facet normal -0 0 1
    outer loop
      vertex 148.494 -1.52169 9
      vertex 149.65 -2.85788 9
      vertex 148.94 -1.29443 9
    endloop
  endfacet
  facet normal -0.45399 -0.891007 -0
    outer loop
      vertex 148.494 1.52169 0
      vertex 148.94 1.29443 0
      vertex 148.94 1.29443 9
    endloop
  endfacet
  facet normal -0.45399 -0.891007 0
    outer loop
      vertex 148.494 1.52169 0
      vertex 148.94 1.29443 9
      vertex 148.494 1.52169 9
    endloop
  endfacet
  facet normal 0 0 -1
    outer loop
      vertex 148.494 1.52169 0
      vertex 153 10 0
      vertex 148.94 1.29443 0
    endloop
  endfacet
  facet normal 0 0 1
    outer loop
      vertex 148.494 1.52169 9
      vertex 148.94 1.29443 9
      vertex 149.65 2.85788 9
    endloop
  endfacet
  facet normal -0.707104 0.70711 0
    outer loop
      vertex 148.94 -1.29443 0
      vertex 148.94 -1.29443 9
      vertex 149.294 -0.940456 0
    endloop
  endfacet
  facet normal 0 0 -1
    outer loop
      vertex 148.94 -1.29443 0
      vertex 149.294 -0.940456 0
      vertex 153 -10 0
    endloop
  endfacet
  facet normal -0.707104 0.70711 0
    outer loop
      vertex 148.94 -1.29443 9
      vertex 149.294 -0.940456 9
      vertex 149.294 -0.940456 0
    endloop
  endfacet
  facet normal -0 0 1
    outer loop
      vertex 148.94 -1.29443 9
      vertex 149.65 -2.85788 9
      vertex 149.294 -0.940456 9
    endloop
  endfacet
  facet normal -0.707104 -0.70711 -0
    outer loop
      vertex 148.94 1.29443 0
      vertex 149.294 0.940456 0
      vertex 149.294 0.940456 9
    endloop
  endfacet
  facet normal -0.707104 -0.70711 0
    outer loop
      vertex 148.94 1.29443 0
      vertex 149.294 0.940456 9
      vertex 148.94 1.29443 9
    endloop
  endfacet
  facet normal 0 0 -1
    outer loop
      vertex 148.94 1.29443 0
      vertex 153 10 0
      vertex 149.294 0.940456 0
    endloop
  endfacet
  facet normal 0 0 1
    outer loop
      vertex 148.94 1.29443 9
      vertex 149.294 0.940456 9
      vertex 149.65 2.85788 9
    endloop
  endfacet
  facet normal -0.891006 0.453992 0
    outer loop
      vertex 149.294 -0.940456 0
      vertex 149.294 -0.940456 9
      vertex 149.522 -0.494427 9
    endloop
  endfacet
  facet normal 0 0 -1
    outer loop
      vertex 149.294 -0.940456 0
      vertex 149.522 -0.494427 0
      vertex 153 -10 0
    endloop
  endfacet
  facet normal -0.891006 0.453992 0
    outer loop
      vertex 149.294 -0.940456 0
      vertex 149.522 -0.494427 9
      vertex 149.522 -0.494427 0
    endloop
  endfacet
  facet normal 0 0 1
    outer loop
      vertex 149.294 -0.940456 9
      vertex 149.65 -2.85788 9
      vertex 151.3 0 9
    endloop
  endfacet
  facet normal 0 0 1
    outer loop
      vertex 149.294 -0.940456 9
      vertex 151.3 0 9
      vertex 149.522 -0.494427 9
    endloop
  endfacet
  facet normal -0.891006 -0.453992 0
    outer loop
      vertex 149.294 0.940456 0
      vertex 149.522 0.494427 0
      vertex 149.294 0.940456 9
    endloop
  endfacet
  facet normal 0 0 -1
    outer loop
      vertex 149.294 0.940456 0
      vertex 153 10 0
      vertex 149.522 0.494427 0
    endloop
  endfacet
  facet normal -0.891006 -0.453992 0
    outer loop
      vertex 149.294 0.940456 9
      vertex 149.522 0.494427 0
      vertex 149.522 0.494427 9
    endloop
  endfacet
  facet normal 0 0 1
    outer loop
      vertex 149.294 0.940456 9
      vertex 149.522 0.494427 9
      vertex 151.3 0 9
    endloop
  endfacet
  facet normal -0 0 1
    outer loop
      vertex 149.294 0.940456 9
      vertex 151.3 0 9
      vertex 149.65 2.85788 9
    endloop
  endfacet
  facet normal -0.987689 0.156432 0
    outer loop
      vertex 149.522 -0.494427 0
      vertex 149.522 -0.494427 9
      vertex 149.6 0 9
    endloop
  endfacet
  facet normal 0 0 -1
    outer loop
      vertex 149.522 -0.494427 0
      vertex 149.6 0 0
      vertex 153 -10 0
    endloop
  endfacet
  facet normal -0.987689 0.156432 0
    outer loop
      vertex 149.522 -0.494427 0
      vertex 149.6 0 9
      vertex 149.6 0 0
    endloop
  endfacet
  facet normal 0 0 1
    outer loop
      vertex 149.522 -0.494427 9
      vertex 151.3 0 9
      vertex 149.6 0 9
    endloop
  endfacet
  facet normal -0.987689 -0.156432 0
    outer loop
      vertex 149.522 0.494427 0
      vertex 149.6 0 0
      vertex 149.522 0.494427 9
    endloop
  endfacet
  facet normal 0 0 -1
    outer loop
      vertex 149.522 0.494427 0
      vertex 153 10 0
      vertex 149.6 0 0
    endloop
  endfacet
  facet normal -0.987689 -0.156432 0
    outer loop
      vertex 149.522 0.494427 9
      vertex 149.6 0 0
      vertex 149.6 0 9
    endloop
  endfacet
  facet normal 0 0 1
    outer loop
      vertex 149.522 0.494427 9
      vertex 149.6 0 9
      vertex 151.3 0 9
    endloop
  endfacet
  facet normal 0 0 -1
    outer loop
      vertex 149.6 0 0
      vertex 153 10 0
      vertex 153 -10 0
    endloop
  endfacet
  facet normal -0 0 1
    outer loop
      vertex 149.65 -2.85788 10
      vertex 153 -10 10
      vertex 151.3 0 10
    endloop
  endfacet
  facet normal -0.866024 0.500002 0
    outer loop
      vertex 149.65 -2.85788 9
      vertex 149.65 -2.85788 10
      vertex 151.3 0 10
    endloop
  endfacet
  facet normal -0.866024 0.500002 0
    outer loop
      vertex 149.65 -2.85788 9
      vertex 151.3 0 10
      vertex 151.3 0 9
    endloop
  endfacet
  facet normal 0 0 1
    outer loop
      vertex 149.65 2.85788 10
      vertex 151.3 0 10
      vertex 153 10 10
    endloop
  endfacet
  facet normal -0.866024 -0.500002 0
    outer loop
      vertex 149.65 2.85788 10
      vertex 151.3 0 9
      vertex 151.3 0 10
    endloop
  endfacet
  facet normal -0.866024 -0.500002 0
    outer loop
      vertex 149.65 2.85788 9
      vertex 151.3 0 9
      vertex 149.65 2.85788 10
    endloop
  endfacet
  facet normal 0 0 1
    outer loop
      vertex 151.3 0 10
      vertex 153 -10 10
      vertex 153 10 10
    endloop
  endfacet
  facet normal 1 0 0
    outer loop
      vertex 153 -10 0
      vertex 153 10 0
      vertex 153 -10 10
    endloop
  endfacet
  facet normal 1 -0 0
    outer loop
      vertex 153 -10 10
      vertex 153 10 0
      vertex 153 10 10
    endloop
  endfacet
endsolid model
