solid model
  facet normal 0 1 0
    outer loop
      vertex -0.957952 -2.94827 0
      vertex -0.957952 -2.94827 15
      vertex 0.957952 -2.94827 0
    endloop
  endfacet
  facet normal 0 1 -0
    outer loop
      vertex -0.957952 -2.94827 15
      vertex 0.957952 -2.94827 15
      vertex 0.957952 -2.94827 0
    endloop
  endfacet
  facet normal 0 -1 -0
    outer loop
      vertex -0.957952 2.94827 0
      vertex 0.957952 2.94827 0
      vertex 0.957952 2.94827 15
    endloop
  endfacet
  facet normal 0 -1 0
    outer loop
      vertex -0.957952 2.94827 0
      vertex 0.957952 2.94827 15
      vertex -0.957952 2.94827 15
    endloop
  endfacet
  facet normal 0.587785 0.809017 0
    outer loop
      vertex -2.50795 -1.82213 0
      vertex -2.50795 -1.82213 15
      vertex -0.957952 -2.94827 0
    endloop
  endfacet
  facet normal 0.587785 0.809017 -0
    outer loop
      vertex -2.50795 -1.82213 15
      vertex -0.957952 -2.94827 15
      vertex -0.957952 -2.94827 0
    endloop
  endfacet
  facet normal 0.587785 -0.809017 0
    outer loop
      vertex -2.50795 1.82213 0
      vertex -0.957952 2.94827 0
      vertex -0.957952 2.94827 15
    endloop
  endfacet
  facet normal 0.587785 -0.809017 0
    outer loop
      vertex -2.50795 1.82213 0
      vertex -0.957952 2.94827 15
      vertex -2.50795 1.82213 15
    endloop
  endfacet
  facet normal 0.951056 0.309019 0
    outer loop
      vertex -3.1 0 0
      vertex -2.50795 -1.82213 15
      vertex -2.50795 -1.82213 0
    endloop
  endfacet
  facet normal 0.951056 -0.309019 0
    outer loop
      vertex -3.1 0 0
      vertex -2.50795 1.82213 0
      vertex -3.1 0 15
    endloop
  endfacet
  facet normal 0.951056 0.309019 0
    outer loop
      vertex -3.1 0 0
      vertex -3.1 0 15
      vertex -2.50795 -1.82213 15
    endloop
  endfacet
  facet normal 0.951056 -0.309019 0
    outer loop
      vertex -3.1 0 15
      vertex -2.50795 1.82213 0
      vertex -2.50795 1.82213 15
    endloop
  endfacet
  facet normal -0 0 -1
    outer loop
      vertex -35 -25 0
      vertex -0.957952 -2.94827 0
      vertex 0.957952 -2.94827 0
    endloop
  endfacet
  facet normal -0 0 -1
    outer loop
      vertex -35 -25 0
      vertex -2.50795 -1.82213 0
      vertex -0.957952 -2.94827 0
    endloop
  endfacet
  facet normal -0 0 -1
    outer loop
      vertex -35 -25 0
      vertex -3.1 0 0
      vertex -2.50795 -1.82213 0
    endloop
  endfacet
  facet normal -1 -0 0
    outer loop
      vertex -35 -25 0
      vertex -35 -25 15
      vertex -35 25 15
    endloop
  endfacet
  facet normal 0 0 -1
    outer loop
      vertex -35 -25 0
      vertex -35 25 0
      vertex -3.1 0 0
    endloop
  endfacet
  facet normal -1 0 0
    outer loop
      vertex -35 -25 0
      vertex -35 25 15
      vertex -35 25 0
    endloop
  endfacet
  facet normal 0 0 -1
    outer loop
      vertex -35 -25 0
      vertex 0.957952 -2.94827 0
      vertex 37.5 -25 0
    endloop
  endfacet
  facet normal 0 -1 -0
    outer loop
      vertex -35 -25 0
      vertex 37.5 -25 0
      vertex 37.5 -25 15
    endloop
  endfacet
  facet normal 0 -1 0
    outer loop
      vertex -35 -25 0
      vertex 37.5 -25 15
      vertex -35 -25 15
    endloop
  endfacet
  facet normal 0 0 1
    outer loop
      vertex -35 -25 15
      vertex -0.957952 -2.94827 15
      vertex -2.50795 -1.82213 15
    endloop
  endfacet
  facet normal 0 0 1
    outer loop
      vertex -35 -25 15
      vertex -2.50795 -1.82213 15
      vertex -3.1 0 15
    endloop
  endfacet
  facet normal 0 0 1
    outer loop
      vertex -35 -25 15
      vertex -3.1 0 15
      vertex -35 25 15
    endloop
  endfacet
  facet normal 0 0 1
    outer loop
      vertex -35 -25 15
      vertex 0.957952 -2.94827 15
      vertex -0.957952 -2.94827 15
    endloop
  endfacet
  facet normal 0 0 1
    outer loop
      vertex -35 -25 15
      vertex 37.5 -25 15
      vertex 0.957952 -2.94827 15
    endloop
  endfacet
  facet normal 0 0 -1
    outer loop
      vertex -35 25 0
      vertex -0.957952 2.94827 0
      vertex -2.50795 1.82213 0
    endloop
  endfacet
  facet normal 0 0 -1
    outer loop
      vertex -35 25 0
      vertex -2.50795 1.82213 0
      vertex -3.1 0 0
    endloop
  endfacet
  facet normal 0 1 0
    outer loop
      vertex -35 25 0
      vertex -35 25 15
      vertex 37.5 25 0
    endloop
  endfacet
  facet normal 0 0 -1
    outer loop
      vertex -35 25 0
      vertex 0.957952 2.94827 0
      vertex -0.957952 2.94827 0
    endloop
  endfacet
  facet normal 0 0 -1
    outer loop
      vertex -35 25 0
      vertex 37.5 25 0
      vertex 0.957952 2.94827 0
    endloop
  endfacet
  facet normal 0 0 1
    outer loop
      vertex -35 25 15
      vertex -0.957952 2.94827 15
      vertex 0.957952 2.94827 15
    endloop
  endfacet
  facet normal 0 0 1
    outer loop
      vertex -35 25 15
      vertex -2.50795 1.82213 15
      vertex -0.957952 2.94827 15
    endloop
  endfacet
  facet normal 0 0 1
    outer loop
      vertex -35 25 15
      vertex -3.1 0 15
      vertex -2.50795 1.82213 15
    endloop
  endfacet
  facet normal -0 0 1
    outer loop
      vertex -35 25 15
      vertex 0.957952 2.94827 15
      vertex 37.5 25 15
    endloop
  endfacet
  facet normal 0 1 -0
    outer loop
      vertex -35 25 15
      vertex 37.5 25 15
      vertex 37.5 25 0
    endloop
  endfacet
  facet normal -0.587785 0.809017 0
    outer loop
      vertex 0.957952 -2.94827 0
      vertex 0.957952 -2.94827 15
      vertex 2.50795 -1.82213 0
    endloop
  endfacet
  facet normal 0 0 -1
    outer loop
      vertex 0.957952 -2.94827 0
      vertex 2.50795 -1.82213 0
      vertex 37.5 -25 0
    endloop
  endfacet
  facet normal -0.587785 0.809017 0
    outer loop
      vertex 0.957952 -2.94827 15
      vertex 2.50795 -1.82213 15
      vertex 2.50795 -1.82213 0
    endloop
  endfacet
  facet normal -0 0 1
    outer loop
      vertex 0.957952 -2.94827 15
      vertex 30.5 -13.5 15
      vertex 2.50795 -1.82213 15
    endloop
  endfacet
  facet normal 0 0 1
    outer loop
      vertex 0.957952 -2.94827 15
      vertex 37.5 -25 15
      vertex 30.5 -13.5 15
    endloop
  endfacet
  facet normal -0.587785 -0.809017 -0
    outer loop
      vertex 0.957952 2.94827 0
      vertex 2.50795 1.82213 0
      vertex 2.50795 1.82213 15
    endloop
  endfacet
  facet normal -0.587785 -0.809017 0
    outer loop
      vertex 0.957952 2.94827 0
      vertex 2.50795 1.82213 15
      vertex 0.957952 2.94827 15
    endloop
  endfacet
  facet normal 0 0 -1
    outer loop
      vertex 0.957952 2.94827 0
      vertex 37.5 25 0
      vertex 2.50795 1.82213 0
    endloop
  endfacet
  facet normal 0 0 1
    outer loop
      vertex 0.957952 2.94827 15
      vertex 2.50795 1.82213 15
      vertex 30.5 13.5 15
    endloop
  endfacet
  facet normal 0 0 1
    outer loop
      vertex 0.957952 2.94827 15
      vertex 30.5 13.5 15
      vertex 37.5 25 15
    endloop
  endfacet
  facet normal -0.951056 0.309019 0
    outer loop
      vertex 2.50795 -1.82213 0
      vertex 2.50795 -1.82213 15
      vertex 3.1 0 15
    endloop
  endfacet
  facet normal 0 0 -1
    outer loop
      vertex 2.50795 -1.82213 0
      vertex 3.1 0 0
      vertex 45 -3 0
    endloop
  endfacet
  facet normal -0.951056 0.309019 0
    outer loop
      vertex 2.50795 -1.82213 0
      vertex 3.1 0 15
      vertex 3.1 0 0
    endloop
  endfacet
  facet normal 0 0 -1
    outer loop
      vertex 2.50795 -1.82213 0
      vertex 45 -3 0
      vertex 37.5 -25 0
    endloop
  endfacet
  facet normal -0 0 1
    outer loop
      vertex 2.50795 -1.82213 15
      vertex 30.5 -13.5 15
      vertex 3.1 0 15
    endloop
  endfacet
  facet normal -0.951056 -0.309019 0
    outer loop
      vertex 2.50795 1.82213 0
      vertex 3.1 0 0
      vertex 2.50795 1.82213 15
    endloop
  endfacet
  facet normal -0 0 -1
    outer loop
      vertex 2.50795 1.82213 0
      vertex 37.5 25 0
      vertex 45 3 0
    endloop
  endfacet
  facet normal 0 0 -1
    outer loop
      vertex 2.50795 1.82213 0
      vertex 45 3 0
      vertex 3.1 0 0
    endloop
  endfacet
  facet normal -0.951056 -0.309019 0
    outer loop
      vertex 2.50795 1.82213 15
      vertex 3.1 0 0
      vertex 3.1 0 15
    endloop
  endfacet
  facet normal 0 0 1
    outer loop
      vertex 2.50795 1.82213 15
      vertex 3.1 0 15
      vertex 30.5 13.5 15
    endloop
  endfacet
  facet normal 0 0 -1
    outer loop
      vertex 3.1 0 0
      vertex 45 3 0
      vertex 45 -3 0
    endloop
  endfacet
  facet normal 0 0 1
    outer loop
      vertex 3.1 0 15
      vertex 30.5 -13.5 15
      vertex 30.5 13.5 15
    endloop
  endfacet
  facet normal 0 1 0
    outer loop
      vertex 30.5 -13.5 12
      vertex 30.5 -13.5 15
      vertex 46.5 -13.5 12
    endloop
  endfacet
  facet normal 1 0 0
    outer loop
      vertex 30.5 -13.5 12
      vertex 30.5 13.5 12
      vertex 30.5 -13.5 15
    endloop
  endfacet
  facet normal 0 0 1
    outer loop
      vertex 30.5 -13.5 12
      vertex 45 -3 12
      vertex 30.5 13.5 12
    endloop
  endfacet
  facet normal 0 0 1
    outer loop
      vertex 30.5 -13.5 12
      vertex 46.5 -13.5 12
      vertex 45 -3 12
    endloop
  endfacet
  facet normal 1 -0 0
    outer loop
      vertex 30.5 -13.5 15
      vertex 30.5 13.5 12
      vertex 30.5 13.5 15
    endloop
  endfacet
  facet normal -0 0 1
    outer loop
      vertex 30.5 -13.5 15
      vertex 37.5 -25 15
      vertex 46.5 -13.5 15
    endloop
  endfacet
  facet normal 0 1 -0
    outer loop
      vertex 30.5 -13.5 15
      vertex 46.5 -13.5 15
      vertex 46.5 -13.5 12
    endloop
  endfacet
  facet normal 0 0 1
    outer loop
      vertex 30.5 13.5 12
      vertex 45 -3 12
      vertex 45 3 12
    endloop
  endfacet
  facet normal -0 0 1
    outer loop
      vertex 30.5 13.5 12
      vertex 45 3 12
      vertex 46.5 13.5 12
    endloop
  endfacet
  facet normal 0 -1 -0
    outer loop
      vertex 30.5 13.5 12
      vertex 46.5 13.5 12
      vertex 46.5 13.5 15
    endloop
  endfacet
  facet normal 0 -1 0
    outer loop
      vertex 30.5 13.5 12
      vertex 46.5 13.5 15
      vertex 30.5 13.5 15
    endloop
  endfacet
  facet normal 0 0 1
    outer loop
      vertex 30.5 13.5 15
      vertex 46.5 13.5 15
      vertex 37.5 25 15
    endloop
  endfacet
  facet normal 0 -0 -1
    outer loop
      vertex 37.5 -25 0
      vertex 45 -3 0
      vertex 52.5 -24.9223 0
    endloop
  endfacet
  facet normal 0 0 -1
    outer loop
      vertex 37.5 -25 0
      vertex 52.5 -24.9223 0
      vertex 52.5 -32.5 0
    endloop
  endfacet
  facet normal 0 0 1
    outer loop
      vertex 37.5 -25 15
      vertex 42.25 -25.2 15
      vertex 46.5 -13.5 15
    endloop
  endfacet
  facet normal 0 0 1
    outer loop
      vertex 37.5 -25 15
      vertex 42.25 -27.5 15
      vertex 42.25 -25.2 15
    endloop
  endfacet
  facet normal 0 0 -1
    outer loop
      vertex 37.5 -32.5 0
      vertex 37.5 -25 0
      vertex 52.5 -32.5 0
    endloop
  endfacet
  facet normal -1 0 0
    outer loop
      vertex 37.5 -32.5 0
      vertex 37.5 -25 15
      vertex 37.5 -25 0
    endloop
  endfacet
  facet normal -1 -0 0
    outer loop
      vertex 37.5 -32.5 0
      vertex 37.5 -32.5 15
      vertex 37.5 -25 15
    endloop
  endfacet
  facet normal 0 -1 0
    outer loop
      vertex 37.5 -32.5 0
      vertex 43.9078 -32.5 6.70649
      vertex 37.5 -32.5 15
    endloop
  endfacet
  facet normal 0 -1 -0
    outer loop
      vertex 37.5 -32.5 0
      vertex 45.4172 -32.5 6.21607
      vertex 43.9078 -32.5 6.70649
    endloop
  endfacet
  facet normal 0 -1 0
    outer loop
      vertex 37.5 -32.5 0
      vertex 52.5 -32.5 0
      vertex 45.4172 -32.5 6.21607
    endloop
  endfacet
  facet normal 0 0 1
    outer loop
      vertex 37.5 -32.5 15
      vertex 42.25 -27.5 15
      vertex 37.5 -25 15
    endloop
  endfacet
  facet normal 0 -1 0
    outer loop
      vertex 37.5 -32.5 15
      vertex 43.9078 -32.5 6.70649
      vertex 43.9078 -32.5 8.29351
    endloop
  endfacet
  facet normal 0 -1 0
    outer loop
      vertex 37.5 -32.5 15
      vertex 43.9078 -32.5 8.29351
      vertex 45.4172 -32.5 8.78393
    endloop
  endfacet
  facet normal 0 -1 0
    outer loop
      vertex 37.5 -32.5 15
      vertex 45.4172 -32.5 8.78393
      vertex 52.5 -32.5 15
    endloop
  endfacet
  facet normal 0 0 1
    outer loop
      vertex 37.5 -32.5 15
      vertex 52.5 -32.5 15
      vertex 42.25 -27.5 15
    endloop
  endfacet
  facet normal -1 -0 0
    outer loop
      vertex 37.5 25 0
      vertex 37.5 25 15
      vertex 37.5 32.5 15
    endloop
  endfacet
  facet normal -0 0 -1
    outer loop
      vertex 37.5 25 0
      vertex 37.5 32.5 0
      vertex 52.5 32.5 0
    endloop
  endfacet
  facet normal -1 0 0
    outer loop
      vertex 37.5 25 0
      vertex 37.5 32.5 15
      vertex 37.5 32.5 0
    endloop
  endfacet
  facet normal 0 0 -1
    outer loop
      vertex 37.5 25 0
      vertex 52.5 24.9223 0
      vertex 55.0332 10.874 0
    endloop
  endfacet
  facet normal 0 0 -1
    outer loop
      vertex 37.5 25 0
      vertex 52.5 32.5 0
      vertex 52.5 24.9223 0
    endloop
  endfacet
  facet normal 0 0 -1
    outer loop
      vertex 37.5 25 0
      vertex 53.0994 7.52463 0
      vertex 45 3 0
    endloop
  endfacet
  facet normal 0 0 -1
    outer loop
      vertex 37.5 25 0
      vertex 55.0332 10.874 0
      vertex 53.0994 7.52463 0
    endloop
  endfacet
  facet normal 0 0 1
    outer loop
      vertex 37.5 25 15
      vertex 42.25 27.5 15
      vertex 42.25 29.8 15
    endloop
  endfacet
  facet normal 0 0 1
    outer loop
      vertex 37.5 25 15
      vertex 42.25 29.8 15
      vertex 37.5 32.5 15
    endloop
  endfacet
  facet normal 0 0 1
    outer loop
      vertex 37.5 25 15
      vertex 46.5 13.5 15
      vertex 42.25 27.5 15
    endloop
  endfacet
  facet normal 0 1 0
    outer loop
      vertex 37.5 32.5 0
      vertex 37.5 32.5 15
      vertex 43.9078 32.5 6.70649
    endloop
  endfacet
  facet normal 0 1 0
    outer loop
      vertex 37.5 32.5 0
      vertex 43.9078 32.5 6.70649
      vertex 45.4172 32.5 6.21607
    endloop
  endfacet
  facet normal 0 1 0
    outer loop
      vertex 37.5 32.5 0
      vertex 45.4172 32.5 6.21607
      vertex 52.5 32.5 0
    endloop
  endfacet
  facet normal -0 0 1
    outer loop
      vertex 37.5 32.5 15
      vertex 42.25 29.8 15
      vertex 52.5 32.5 15
    endloop
  endfacet
  facet normal 0 1 -0
    outer loop
      vertex 37.5 32.5 15
      vertex 43.9078 32.5 8.29351
      vertex 43.9078 32.5 6.70649
    endloop
  endfacet
  facet normal 0 1 -0
    outer loop
      vertex 37.5 32.5 15
      vertex 45.4172 32.5 8.78393
      vertex 43.9078 32.5 8.29351
    endloop
  endfacet
  facet normal 0 1 0
    outer loop
      vertex 37.5 32.5 15
      vertex 52.5 32.5 15
      vertex 45.4172 32.5 8.78393
    endloop
  endfacet
  facet normal 0 -1 0
    outer loop
      vertex 42.25 -25.2 15
      vertex 43.9078 -25.2 8.29351
      vertex 45.4172 -25.2 8.78393
    endloop
  endfacet
  facet normal 0 -1 0
    outer loop
      vertex 42.25 -25.2 15
      vertex 45.4172 -25.2 8.78393
      vertex 47.75 -25.2 15
    endloop
  endfacet
  facet normal 0 0 1
    outer loop
      vertex 42.25 -25.2 15
      vertex 47.75 -25.2 15
      vertex 46.5 -13.5 15
    endloop
  endfacet
  facet normal 0 -1 -0
    outer loop
      vertex 42.25 -25.2 7.5
      vertex 43.9078 -25.2 7.5
      vertex 43.9078 -25.2 8.29351
    endloop
  endfacet
  facet normal 0 -1 0
    outer loop
      vertex 42.25 -25.2 7.5
      vertex 43.9078 -25.2 8.29351
      vertex 42.25 -25.2 15
    endloop
  endfacet
  facet normal -0 0 1
    outer loop
      vertex 42.25 -25.2 7.5
      vertex 43.9078 -27.5 7.5
      vertex 43.9078 -25.2 7.5
    endloop
  endfacet
  facet normal 1 -0 0
    outer loop
      vertex 42.25 -27.5 15
      vertex 42.25 -25.2 7.5
      vertex 42.25 -25.2 15
    endloop
  endfacet
  facet normal 0 1 -0
    outer loop
      vertex 42.25 -27.5 15
      vertex 45.4172 -27.5 8.78393
      vertex 43.9078 -27.5 8.29351
    endloop
  endfacet
  facet normal 0 1 0
    outer loop
      vertex 42.25 -27.5 15
      vertex 47.75 -27.5 15
      vertex 45.4172 -27.5 8.78393
    endloop
  endfacet
  facet normal -0 0 1
    outer loop
      vertex 42.25 -27.5 15
      vertex 52.5 -32.5 15
      vertex 47.75 -27.5 15
    endloop
  endfacet
  facet normal 1 0 0
    outer loop
      vertex 42.25 -27.5 7.5
      vertex 42.25 -25.2 7.5
      vertex 42.25 -27.5 15
    endloop
  endfacet
  facet normal 0 1 0
    outer loop
      vertex 42.25 -27.5 7.5
      vertex 42.25 -27.5 15
      vertex 43.9078 -27.5 8.29351
    endloop
  endfacet
  facet normal 0 0 1
    outer loop
      vertex 42.25 -27.5 7.5
      vertex 43.9078 -27.5 7.5
      vertex 42.25 -25.2 7.5
    endloop
  endfacet
  facet normal 0 1 0
    outer loop
      vertex 42.25 -27.5 7.5
      vertex 43.9078 -27.5 8.29351
      vertex 43.9078 -27.5 7.5
    endloop
  endfacet
  facet normal 1 -0 0
    outer loop
      vertex 42.25 27.5 15
      vertex 42.25 29.8 7.5
      vertex 42.25 29.8 15
    endloop
  endfacet
  facet normal 0 1 -0
    outer loop
      vertex 42.25 27.5 15
      vertex 45.4172 27.5 8.78393
      vertex 43.9078 27.5 8.29351
    endloop
  endfacet
  facet normal -0 0 1
    outer loop
      vertex 42.25 27.5 15
      vertex 46.5 13.5 15
      vertex 47.75 27.5 15
    endloop
  endfacet
  facet normal 0 1 0
    outer loop
      vertex 42.25 27.5 15
      vertex 47.75 27.5 15
      vertex 45.4172 27.5 8.78393
    endloop
  endfacet
  facet normal 0 1 0
    outer loop
      vertex 42.25 27.5 7.5
      vertex 42.25 27.5 15
      vertex 43.9078 27.5 8.29351
    endloop
  endfacet
  facet normal 1 0 0
    outer loop
      vertex 42.25 27.5 7.5
      vertex 42.25 29.8 7.5
      vertex 42.25 27.5 15
    endloop
  endfacet
  facet normal 0 0 1
    outer loop
      vertex 42.25 27.5 7.5
      vertex 43.9078 27.5 7.5
      vertex 42.25 29.8 7.5
    endloop
  endfacet
  facet normal 0 1 0
    outer loop
      vertex 42.25 27.5 7.5
      vertex 43.9078 27.5 8.29351
      vertex 43.9078 27.5 7.5
    endloop
  endfacet
  facet normal 0 -1 0
    outer loop
      vertex 42.25 29.8 15
      vertex 43.9078 29.8 8.29351
      vertex 45.4172 29.8 8.78393
    endloop
  endfacet
  facet normal 0 -1 0
    outer loop
      vertex 42.25 29.8 15
      vertex 45.4172 29.8 8.78393
      vertex 47.75 29.8 15
    endloop
  endfacet
  facet normal 0 0 1
    outer loop
      vertex 42.25 29.8 15
      vertex 47.75 29.8 15
      vertex 52.5 32.5 15
    endloop
  endfacet
  facet normal -0 0 1
    outer loop
      vertex 42.25 29.8 7.5
      vertex 43.9078 27.5 7.5
      vertex 43.9078 29.8 7.5
    endloop
  endfacet
  facet normal 0 -1 -0
    outer loop
      vertex 42.25 29.8 7.5
      vertex 43.9078 29.8 7.5
      vertex 43.9078 29.8 8.29351
    endloop
  endfacet
  facet normal 0 -1 0
    outer loop
      vertex 42.25 29.8 7.5
      vertex 43.9078 29.8 8.29351
      vertex 42.25 29.8 15
    endloop
  endfacet
  facet normal 0 -1 0
    outer loop
      vertex 43.9078 -12.5 6.70649
      vertex 45.4172 -12.5 6.21607
      vertex 46.35 -12.5 7.5
    endloop
  endfacet
  facet normal 0.309009 0 0.951059
    outer loop
      vertex 43.9078 -12.5 6.70649
      vertex 45.4172 -32.5 6.21607
      vertex 45.4172 -12.5 6.21607
    endloop
  endfacet
  facet normal 0 -1 0
    outer loop
      vertex 43.9078 -12.5 6.70649
      vertex 46.35 -12.5 7.5
      vertex 43.9078 -12.5 8.29351
    endloop
  endfacet
  facet normal 0 -1 0
    outer loop
      vertex 43.9078 -12.5 8.29351
      vertex 46.35 -12.5 7.5
      vertex 45.4172 -12.5 8.78393
    endloop
  endfacet
  facet normal 1 0 0
    outer loop
      vertex 43.9078 -25.2 7.5
      vertex 43.9078 -12.5 6.70649
      vertex 43.9078 -12.5 8.29351
    endloop
  endfacet
  facet normal 1 0 0
    outer loop
      vertex 43.9078 -25.2 7.5
      vertex 43.9078 -12.5 8.29351
      vertex 43.9078 -25.2 8.29351
    endloop
  endfacet
  facet normal 0.309009 0 -0.951059
    outer loop
      vertex 43.9078 -25.2 8.29351
      vertex 43.9078 -12.5 8.29351
      vertex 45.4172 -12.5 8.78393
    endloop
  endfacet
  facet normal 0.309009 0 -0.951059
    outer loop
      vertex 43.9078 -25.2 8.29351
      vertex 45.4172 -12.5 8.78393
      vertex 45.4172 -25.2 8.78393
    endloop
  endfacet
  facet normal 1 0 0
    outer loop
      vertex 43.9078 -32.5 6.70649
      vertex 43.9078 -12.5 6.70649
      vertex 43.9078 -25.2 7.5
    endloop
  endfacet
  facet normal 1 0 0
    outer loop
      vertex 43.9078 -32.5 6.70649
      vertex 43.9078 -25.2 7.5
      vertex 43.9078 -27.5 7.5
    endloop
  endfacet
  facet normal 1 0 0
    outer loop
      vertex 43.9078 -32.5 6.70649
      vertex 43.9078 -27.5 7.5
      vertex 43.9078 -32.5 8.29351
    endloop
  endfacet
  facet normal 0.309009 0 0.951059
    outer loop
      vertex 43.9078 -32.5 6.70649
      vertex 45.4172 -32.5 6.21607
      vertex 43.9078 -12.5 6.70649
    endloop
  endfacet
  facet normal 1 0 0
    outer loop
      vertex 43.9078 -32.5 8.29351
      vertex 43.9078 -27.5 7.5
      vertex 43.9078 -27.5 8.29351
    endloop
  endfacet
  facet normal 0.309009 0 -0.951059
    outer loop
      vertex 43.9078 -32.5 8.29351
      vertex 43.9078 -27.5 8.29351
      vertex 45.4172 -27.5 8.78393
    endloop
  endfacet
  facet normal 0.309009 0 -0.951059
    outer loop
      vertex 43.9078 -32.5 8.29351
      vertex 45.4172 -27.5 8.78393
      vertex 45.4172 -32.5 8.78393
    endloop
  endfacet
  facet normal 0 1 0
    outer loop
      vertex 43.9078 12.5 6.70649
      vertex 43.9078 12.5 8.29351
      vertex 46.35 12.5 7.5
    endloop
  endfacet
  facet normal 1 0 0
    outer loop
      vertex 43.9078 12.5 6.70649
      vertex 43.9078 27.5 7.5
      vertex 43.9078 12.5 8.29351
    endloop
  endfacet
  facet normal 1 0 0
    outer loop
      vertex 43.9078 12.5 6.70649
      vertex 43.9078 32.5 6.70649
      vertex 43.9078 27.5 7.5
    endloop
  endfacet
  facet normal 0.309009 0 0.951059
    outer loop
      vertex 43.9078 12.5 6.70649
      vertex 45.4172 12.5 6.21607
      vertex 43.9078 32.5 6.70649
    endloop
  endfacet
  facet normal -0 1 0
    outer loop
      vertex 43.9078 12.5 6.70649
      vertex 46.35 12.5 7.5
      vertex 45.4172 12.5 6.21607
    endloop
  endfacet
  facet normal 1 0 0
    outer loop
      vertex 43.9078 12.5 8.29351
      vertex 43.9078 27.5 7.5
      vertex 43.9078 27.5 8.29351
    endloop
  endfacet
  facet normal 0.309009 0 -0.951059
    outer loop
      vertex 43.9078 12.5 8.29351
      vertex 43.9078 27.5 8.29351
      vertex 45.4172 27.5 8.78393
    endloop
  endfacet
  facet normal 0 1 0
    outer loop
      vertex 43.9078 12.5 8.29351
      vertex 45.4172 12.5 8.78393
      vertex 46.35 12.5 7.5
    endloop
  endfacet
  facet normal 0.309009 0 -0.951059
    outer loop
      vertex 43.9078 12.5 8.29351
      vertex 45.4172 27.5 8.78393
      vertex 45.4172 12.5 8.78393
    endloop
  endfacet
  facet normal 1 -0 0
    outer loop
      vertex 43.9078 27.5 7.5
      vertex 43.9078 32.5 6.70649
      vertex 43.9078 29.8 7.5
    endloop
  endfacet
  facet normal 1 0 0
    outer loop
      vertex 43.9078 29.8 7.5
      vertex 43.9078 32.5 6.70649
      vertex 43.9078 32.5 8.29351
    endloop
  endfacet
  facet normal 1 0 0
    outer loop
      vertex 43.9078 29.8 7.5
      vertex 43.9078 32.5 8.29351
      vertex 43.9078 29.8 8.29351
    endloop
  endfacet
  facet normal 0.309009 0 -0.951059
    outer loop
      vertex 43.9078 29.8 8.29351
      vertex 43.9078 32.5 8.29351
      vertex 45.4172 32.5 8.78393
    endloop
  endfacet
  facet normal 0.309009 0 -0.951059
    outer loop
      vertex 43.9078 29.8 8.29351
      vertex 45.4172 32.5 8.78393
      vertex 45.4172 29.8 8.78393
    endloop
  endfacet
  facet normal 0.309009 0 0.951059
    outer loop
      vertex 43.9078 32.5 6.70649
      vertex 45.4172 12.5 6.21607
      vertex 45.4172 32.5 6.21607
    endloop
  endfacet
  facet normal 0 1 0
    outer loop
      vertex 45 -3 0
      vertex 45 -3 12
      vertex 46.5 -3 12
    endloop
  endfacet
  facet normal 1 0 0
    outer loop
      vertex 45 -3 0
      vertex 45 3 0
      vertex 45 -3 12
    endloop
  endfacet
  facet normal 0 1 0
    outer loop
      vertex 45 -3 0
      vertex 46.5 -3 12
      vertex 48 -3 0
    endloop
  endfacet
  facet normal 0 0 -1
    outer loop
      vertex 45 -3 0
      vertex 48 -3 0
      vertex 52.5 -24.9223 0
    endloop
  endfacet
  facet normal 1 -0 0
    outer loop
      vertex 45 -3 12
      vertex 45 3 0
      vertex 45 3 12
    endloop
  endfacet
  facet normal -0 0 1
    outer loop
      vertex 45 -3 12
      vertex 46.5 -13.5 12
      vertex 46.5 -3 12
    endloop
  endfacet
  facet normal 0 -1 0
    outer loop
      vertex 45 3 0
      vertex 46.5 3 12
      vertex 45 3 12
    endloop
  endfacet
  facet normal 0 -1 0
    outer loop
      vertex 45 3 0
      vertex 48 3 0
      vertex 46.5 3 12
    endloop
  endfacet
  facet normal 0 0 -1
    outer loop
      vertex 45 3 0
      vertex 53.0994 7.52463 0
      vertex 48 3 0
    endloop
  endfacet
  facet normal 0 0 1
    outer loop
      vertex 45 3 12
      vertex 46.5 3 12
      vertex 46.5 13.5 12
    endloop
  endfacet
  facet normal -0.809026 0 0.587773
    outer loop
      vertex 45.4172 -12.5 6.21607
      vertex 46.35 -25.2 7.5
      vertex 46.35 -12.5 7.5
    endloop
  endfacet
  facet normal -0.809026 0 -0.587773
    outer loop
      vertex 45.4172 -12.5 8.78393
      vertex 46.35 -12.5 7.5
      vertex 46.35 -25.2 7.5
    endloop
  endfacet
  facet normal -0.809026 -0 -0.587773
    outer loop
      vertex 45.4172 -25.2 8.78393
      vertex 45.4172 -12.5 8.78393
      vertex 46.35 -25.2 7.5
    endloop
  endfacet
  facet normal 0 -1 0
    outer loop
      vertex 45.4172 -25.2 8.78393
      vertex 46.35 -25.2 7.5
      vertex 47.75 -25.2 7.5
    endloop
  endfacet
  facet normal 0 -1 0
    outer loop
      vertex 45.4172 -25.2 8.78393
      vertex 47.75 -25.2 7.5
      vertex 47.75 -25.2 15
    endloop
  endfacet
  facet normal -0.809026 0 -0.587773
    outer loop
      vertex 45.4172 -27.5 8.78393
      vertex 46.35 -27.5 7.5
      vertex 46.35 -32.5 7.5
    endloop
  endfacet
  facet normal 0 1 -0
    outer loop
      vertex 45.4172 -27.5 8.78393
      vertex 47.75 -27.5 15
      vertex 47.75 -27.5 7.5
    endloop
  endfacet
  facet normal 0 1 0
    outer loop
      vertex 45.4172 -27.5 8.78393
      vertex 47.75 -27.5 7.5
      vertex 46.35 -27.5 7.5
    endloop
  endfacet
  facet normal -0.809026 0 0.587773
    outer loop
      vertex 45.4172 -32.5 6.21607
      vertex 46.35 -25.2 7.5
      vertex 45.4172 -12.5 6.21607
    endloop
  endfacet
  facet normal -0.809026 0 0.587773
    outer loop
      vertex 45.4172 -32.5 6.21607
      vertex 46.35 -27.5 7.5
      vertex 46.35 -25.2 7.5
    endloop
  endfacet
  facet normal -0.809026 0 0.587773
    outer loop
      vertex 45.4172 -32.5 6.21607
      vertex 46.35 -32.5 7.5
      vertex 46.35 -27.5 7.5
    endloop
  endfacet
  facet normal 0 -1 0
    outer loop
      vertex 45.4172 -32.5 6.21607
      vertex 52.5 -32.5 0
      vertex 46.35 -32.5 7.5
    endloop
  endfacet
  facet normal -0.809026 -0 -0.587773
    outer loop
      vertex 45.4172 -32.5 8.78393
      vertex 45.4172 -27.5 8.78393
      vertex 46.35 -32.5 7.5
    endloop
  endfacet
  facet normal 0 -1 0
    outer loop
      vertex 45.4172 -32.5 8.78393
      vertex 46.35 -32.5 7.5
      vertex 52.5 -32.5 15
    endloop
  endfacet
  facet normal -0.809026 0 0.587773
    outer loop
      vertex 45.4172 12.5 6.21607
      vertex 46.35 12.5 7.5
      vertex 46.35 27.5 7.5
    endloop
  endfacet
  facet normal -0.809026 0 0.587773
    outer loop
      vertex 45.4172 12.5 6.21607
      vertex 46.35 27.5 7.5
      vertex 45.4172 32.5 6.21607
    endloop
  endfacet
  facet normal -0.809026 -0 -0.587773
    outer loop
      vertex 45.4172 12.5 8.78393
      vertex 45.4172 27.5 8.78393
      vertex 46.35 12.5 7.5
    endloop
  endfacet
  facet normal -0.809026 0 -0.587773
    outer loop
      vertex 45.4172 27.5 8.78393
      vertex 46.35 27.5 7.5
      vertex 46.35 12.5 7.5
    endloop
  endfacet
  facet normal 0 1 -0
    outer loop
      vertex 45.4172 27.5 8.78393
      vertex 47.75 27.5 15
      vertex 47.75 27.5 7.5
    endloop
  endfacet
  facet normal 0 1 0
    outer loop
      vertex 45.4172 27.5 8.78393
      vertex 47.75 27.5 7.5
      vertex 46.35 27.5 7.5
    endloop
  endfacet
  facet normal -0.809026 -0 -0.587773
    outer loop
      vertex 45.4172 29.8 8.78393
      vertex 45.4172 32.5 8.78393
      vertex 46.35 29.8 7.5
    endloop
  endfacet
  facet normal 0 -1 0
    outer loop
      vertex 45.4172 29.8 8.78393
      vertex 46.35 29.8 7.5
      vertex 47.75 29.8 7.5
    endloop
  endfacet
  facet normal 0 -1 0
    outer loop
      vertex 45.4172 29.8 8.78393
      vertex 47.75 29.8 7.5
      vertex 47.75 29.8 15
    endloop
  endfacet
  facet normal -0.809026 0 0.587773
    outer loop
      vertex 45.4172 32.5 6.21607
      vertex 46.35 27.5 7.5
      vertex 46.35 29.8 7.5
    endloop
  endfacet
  facet normal -0.809026 0 0.587773
    outer loop
      vertex 45.4172 32.5 6.21607
      vertex 46.35 29.8 7.5
      vertex 46.35 32.5 7.5
    endloop
  endfacet
  facet normal 0 1 0
    outer loop
      vertex 45.4172 32.5 6.21607
      vertex 46.35 32.5 7.5
      vertex 52.5 32.5 0
    endloop
  endfacet
  facet normal -0.809026 0 -0.587773
    outer loop
      vertex 45.4172 32.5 8.78393
      vertex 46.35 32.5 7.5
      vertex 46.35 29.8 7.5
    endloop
  endfacet
  facet normal 0 1 0
    outer loop
      vertex 45.4172 32.5 8.78393
      vertex 52.5 32.5 15
      vertex 46.35 32.5 7.5
    endloop
  endfacet
  facet normal -0 0 1
    outer loop
      vertex 46.35 -25.2 7.5
      vertex 47.75 -27.5 7.5
      vertex 47.75 -25.2 7.5
    endloop
  endfacet
  facet normal 0 0 1
    outer loop
      vertex 46.35 -27.5 7.5
      vertex 47.75 -27.5 7.5
      vertex 46.35 -25.2 7.5
    endloop
  endfacet
  facet normal 0 -1 0
    outer loop
      vertex 46.35 -32.5 7.5
      vertex 52.5 -32.5 0
      vertex 52.5 -32.5 15
    endloop
  endfacet
  facet normal 0 0 1
    outer loop
      vertex 46.35 27.5 7.5
      vertex 47.75 27.5 7.5
      vertex 46.35 29.8 7.5
    endloop
  endfacet
  facet normal -0 0 1
    outer loop
      vertex 46.35 29.8 7.5
      vertex 47.75 27.5 7.5
      vertex 47.75 29.8 7.5
    endloop
  endfacet
  facet normal 0 1 -0
    outer loop
      vertex 46.35 32.5 7.5
      vertex 52.5 32.5 15
      vertex 52.5 32.5 0
    endloop
  endfacet
  facet normal -1 -0 0
    outer loop
      vertex 46.5 -13.5 12
      vertex 46.5 -13.5 15
      vertex 46.5 -3 15
    endloop
  endfacet
  facet normal -1 0 0
    outer loop
      vertex 46.5 -13.5 12
      vertex 46.5 -3 15
      vertex 46.5 -3 12
    endloop
  endfacet
  facet normal 0 0 1
    outer loop
      vertex 46.5 -13.5 15
      vertex 47.75 -25.2 15
      vertex 48 -3 15
    endloop
  endfacet
  facet normal 0 0 1
    outer loop
      vertex 46.5 -13.5 15
      vertex 48 -3 15
      vertex 46.5 -3 15
    endloop
  endfacet
  facet normal 0 1 0
    outer loop
      vertex 46.5 -3 12
      vertex 46.5 -3 15
      vertex 48 -3 15
    endloop
  endfacet
  facet normal 0 1 -0
    outer loop
      vertex 46.5 -3 12
      vertex 48 -3 15
      vertex 48 -3 0
    endloop
  endfacet
  facet normal 0 0 1
    outer loop
      vertex 46.5 13.5 15
      vertex 48 3 15
      vertex 52.5 24.9223 15
    endloop
  endfacet
  facet normal 0 0 1
    outer loop
      vertex 46.5 13.5 15
      vertex 52.5 24.9223 15
      vertex 47.75 27.5 15
    endloop
  endfacet
  facet normal -1 0 0
    outer loop
      vertex 46.5 3 12
      vertex 46.5 13.5 15
      vertex 46.5 13.5 12
    endloop
  endfacet
  facet normal -1 -0 0
    outer loop
      vertex 46.5 3 12
      vertex 46.5 3 15
      vertex 46.5 13.5 15
    endloop
  endfacet
  facet normal 0 -1 0
    outer loop
      vertex 46.5 3 12
      vertex 48 3 0
      vertex 48 3 15
    endloop
  endfacet
  facet normal 0 -1 0
    outer loop
      vertex 46.5 3 12
      vertex 48 3 15
      vertex 46.5 3 15
    endloop
  endfacet
  facet normal 0 0 1
    outer loop
      vertex 46.5 3 15
      vertex 48 3 15
      vertex 46.5 13.5 15
    endloop
  endfacet
  facet normal 0 0 1
    outer loop
      vertex 47.75 -25.2 15
      vertex 52.5 -24.9223 15
      vertex 48 -3 15
    endloop
  endfacet
  facet normal 0 0 1
    outer loop
      vertex 47.75 -27.5 15
      vertex 52.5 -24.9223 15
      vertex 47.75 -25.2 15
    endloop
  endfacet
  facet normal 0 0 1
    outer loop
      vertex 47.75 -27.5 15
      vertex 52.5 -32.5 15
      vertex 52.5 -24.9223 15
    endloop
  endfacet
  facet normal -1 0 0
    outer loop
      vertex 47.75 -27.5 7.5
      vertex 47.75 -25.2 15
      vertex 47.75 -25.2 7.5
    endloop
  endfacet
  facet normal -1 -0 0
    outer loop
      vertex 47.75 -27.5 7.5
      vertex 47.75 -27.5 15
      vertex 47.75 -25.2 15
    endloop
  endfacet
  facet normal 0 0 1
    outer loop
      vertex 47.75 27.5 15
      vertex 52.5 24.9223 15
      vertex 47.75 29.8 15
    endloop
  endfacet
  facet normal -1 -0 0
    outer loop
      vertex 47.75 27.5 7.5
      vertex 47.75 27.5 15
      vertex 47.75 29.8 15
    endloop
  endfacet
  facet normal -1 0 0
    outer loop
      vertex 47.75 27.5 7.5
      vertex 47.75 29.8 15
      vertex 47.75 29.8 7.5
    endloop
  endfacet
  facet normal -0 0 1
    outer loop
      vertex 47.75 29.8 15
      vertex 52.5 24.9223 15
      vertex 52.5 32.5 15
    endloop
  endfacet
  facet normal -1 -0 0
    outer loop
      vertex 48 -3 0
      vertex 48 -3 15
      vertex 48 3 15
    endloop
  endfacet
  facet normal 0 0 -1
    outer loop
      vertex 48 -3 0
      vertex 48 3 0
      vertex 51.5 0 0
    endloop
  endfacet
  facet normal -1 0 0
    outer loop
      vertex 48 -3 0
      vertex 48 3 15
      vertex 48 3 0
    endloop
  endfacet
  facet normal 0 0 -1
    outer loop
      vertex 48 -3 0
      vertex 51.5 0 0
      vertex 51.9043 -3.84637 0
    endloop
  endfacet
  facet normal 0 0 -1
    outer loop
      vertex 48 -3 0
      vertex 51.9043 -3.84637 0
      vertex 52.5 -24.9223 0
    endloop
  endfacet
  facet normal -0 0 1
    outer loop
      vertex 48 -3 15
      vertex 52.5 -24.9223 15
      vertex 48 3 15
    endloop
  endfacet
  facet normal 0 0 -1
    outer loop
      vertex 48 3 0
      vertex 51.9043 3.84637 0
      vertex 51.5 0 0
    endloop
  endfacet
  facet normal 0 0 -1
    outer loop
      vertex 48 3 0
      vertex 53.0994 7.52463 0
      vertex 51.9043 3.84637 0
    endloop
  endfacet
  facet normal 0 0 1
    outer loop
      vertex 48 3 15
      vertex 52.5 -24.9223 15
      vertex 52.5 24.9223 15
    endloop
  endfacet
  facet normal 0.994521 0.104536 0
    outer loop
      vertex 51.5 0 0
      vertex 51.5 0 3.5
      vertex 51.9043 -3.84637 3.5
    endloop
  endfacet
  facet normal 0.994521 0.104536 0
    outer loop
      vertex 51.5 0 0
      vertex 51.9043 -3.84637 3.5
      vertex 51.9043 -3.84637 0
    endloop
  endfacet
  facet normal 0.994521 -0.104536 0
    outer loop
      vertex 51.5 0 0
      vertex 51.9043 3.84637 0
      vertex 51.5 0 3.5
    endloop
  endfacet
  facet normal 0.994521 -0.104536 0
    outer loop
      vertex 51.5 0 3.5
      vertex 51.9043 3.84637 0
      vertex 51.9043 3.84637 3.5
    endloop
  endfacet
  facet normal 0 0 -1
    outer loop
      vertex 51.5 0 3.5
      vertex 51.9043 3.84637 3.5
      vertex 60.0298 7.70746 3.5
    endloop
  endfacet
  facet normal -0 0 -1
    outer loop
      vertex 51.5 0 3.5
      vertex 60.0298 7.70746 3.5
      vertex 61.5753 7.29335 3.5
    endloop
  endfacet
  facet normal 0 0 -1
    outer loop
      vertex 51.5 0 3.5
      vertex 60.7471 -7.29335 3.5
      vertex 51.9043 -3.84637 3.5
    endloop
  endfacet
  facet normal 0 0 -1
    outer loop
      vertex 51.5 0 3.5
      vertex 61.5753 7.29335 3.5
      vertex 60.7471 -7.29335 3.5
    endloop
  endfacet
  facet normal 0.951059 0.309008 0
    outer loop
      vertex 51.9043 -3.84637 0
      vertex 51.9043 -3.84637 3.5
      vertex 53.0994 -7.52463 3.5
    endloop
  endfacet
  facet normal -0 0 -1
    outer loop
      vertex 51.9043 -3.84637 0
      vertex 53.0994 -7.52463 0
      vertex 52.5 -24.9223 0
    endloop
  endfacet
  facet normal 0.951059 0.309008 0
    outer loop
      vertex 51.9043 -3.84637 0
      vertex 53.0994 -7.52463 3.5
      vertex 53.0994 -7.52463 0
    endloop
  endfacet
  facet normal -0 0 -1
    outer loop
      vertex 51.9043 -3.84637 3.5
      vertex 60.7471 -7.29335 3.5
      vertex 53.0994 -7.52463 3.5
    endloop
  endfacet
  facet normal 0.951059 -0.309008 0
    outer loop
      vertex 51.9043 3.84637 0
      vertex 53.0994 7.52463 0
      vertex 51.9043 3.84637 3.5
    endloop
  endfacet
  facet normal 0.951059 -0.309008 0
    outer loop
      vertex 51.9043 3.84637 3.5
      vertex 53.0994 7.52463 0
      vertex 53.0994 7.52463 3.5
    endloop
  endfacet
  facet normal 0 0 -1
    outer loop
      vertex 51.9043 3.84637 3.5
      vertex 53.0994 7.52463 3.5
      vertex 60.0298 7.70746 3.5
    endloop
  endfacet
  facet normal 0 0 -1
    outer loop
      vertex 52.5 -24.9223 0
      vertex 53.0994 -7.52463 0
      vertex 55.0332 -10.874 0
    endloop
  endfacet
  facet normal 0 0 -1
    outer loop
      vertex 52.5 -24.9223 0
      vertex 55.0332 -10.874 0
      vertex 57.6211 -13.7482 0
    endloop
  endfacet
  facet normal 0 0 -1
    outer loop
      vertex 52.5 -24.9223 0
      vertex 57.6211 -13.7482 0
      vertex 60.75 -16.0215 0
    endloop
  endfacet
  facet normal -0 0 -1
    outer loop
      vertex 52.5 -24.9223 0
      vertex 60.75 -16.0215 0
      vertex 64.2832 -17.5945 0
    endloop
  endfacet
  facet normal 0 0 -1
    outer loop
      vertex 52.5 -24.9223 0
      vertex 64.2832 -17.5945 0
      vertex 72.4564 -23.3713 0
    endloop
  endfacet
  facet normal 0.0774858 -0.996993 0
    outer loop
      vertex 52.5 -24.9223 0
      vertex 72.4564 -23.3713 0
      vertex 72.4564 -23.3713 15
    endloop
  endfacet
  facet normal 0.0774858 -0.996993 0
    outer loop
      vertex 52.5 -24.9223 0
      vertex 72.4564 -23.3713 15
      vertex 52.5 -24.9223 15
    endloop
  endfacet
  facet normal 0 0 1
    outer loop
      vertex 52.5 -24.9223 15
      vertex 59.6157 -8.42472 15
      vertex 52.5 24.9223 15
    endloop
  endfacet
  facet normal 0 0 1
    outer loop
      vertex 52.5 -24.9223 15
      vertex 60.0298 -9.97021 15
      vertex 59.6157 -8.42472 15
    endloop
  endfacet
  facet normal 0 0 1
    outer loop
      vertex 52.5 -24.9223 15
      vertex 61.5753 -10.3843 15
      vertex 60.0298 -9.97021 15
    endloop
  endfacet
  facet normal 0 0 1
    outer loop
      vertex 52.5 -24.9223 15
      vertex 72.4564 -23.3713 15
      vertex 61.5753 -10.3843 15
    endloop
  endfacet
  facet normal 1 0 0
    outer loop
      vertex 52.5 -32.5 0
      vertex 52.5 -24.9223 0
      vertex 52.5 -32.5 15
    endloop
  endfacet
  facet normal 1 -0 0
    outer loop
      vertex 52.5 -32.5 15
      vertex 52.5 -24.9223 0
      vertex 52.5 -24.9223 15
    endloop
  endfacet
  facet normal 0.0774858 0.996993 0
    outer loop
      vertex 52.5 24.9223 0
      vertex 52.5 24.9223 15
      vertex 72.4564 23.3713 0
    endloop
  endfacet
  facet normal 1 0 0
    outer loop
      vertex 52.5 24.9223 0
      vertex 52.5 32.5 0
      vertex 52.5 24.9223 15
    endloop
  endfacet
  facet normal 0 0 -1
    outer loop
      vertex 52.5 24.9223 0
      vertex 57.6211 13.7482 0
      vertex 55.0332 10.874 0
    endloop
  endfacet
  facet normal 0 0 -1
    outer loop
      vertex 52.5 24.9223 0
      vertex 60.75 16.0215 0
      vertex 57.6211 13.7482 0
    endloop
  endfacet
  facet normal 0 0 -1
    outer loop
      vertex 52.5 24.9223 0
      vertex 64.2832 17.5945 0
      vertex 60.75 16.0215 0
    endloop
  endfacet
  facet normal 0 0 -1
    outer loop
      vertex 52.5 24.9223 0
      vertex 72.4564 23.3713 0
      vertex 64.2832 17.5945 0
    endloop
  endfacet
  facet normal 1 -0 0
    outer loop
      vertex 52.5 24.9223 15
      vertex 52.5 32.5 0
      vertex 52.5 32.5 15
    endloop
  endfacet
  facet normal 0 0 1
    outer loop
      vertex 52.5 24.9223 15
      vertex 59.6157 -8.42472 15
      vertex 59.6157 9.25294 15
    endloop
  endfacet
  facet normal 0 0 1
    outer loop
      vertex 52.5 24.9223 15
      vertex 59.6157 9.25294 15
      vertex 60.7471 10.3843 15
    endloop
  endfacet
  facet normal 0 0 1
    outer loop
      vertex 52.5 24.9223 15
      vertex 60.7471 10.3843 15
      vertex 72.4564 23.3713 15
    endloop
  endfacet
  facet normal 0.0774858 0.996993 -0
    outer loop
      vertex 52.5 24.9223 15
      vertex 72.4564 23.3713 15
      vertex 72.4564 23.3713 0
    endloop
  endfacet
  facet normal 0.866021 0.500008 0
    outer loop
      vertex 53.0994 -7.52463 0
      vertex 53.0994 -7.52463 3.5
      vertex 55.0332 -10.874 3.5
    endloop
  endfacet
  facet normal 0.866021 0.500008 0
    outer loop
      vertex 53.0994 -7.52463 0
      vertex 55.0332 -10.874 3.5
      vertex 55.0332 -10.874 0
    endloop
  endfacet
  facet normal 0 0 -1
    outer loop
      vertex 53.0994 -7.52463 3.5
      vertex 59.6157 -8.42472 3.5
      vertex 55.0332 -10.874 3.5
    endloop
  endfacet
  facet normal 0 0 -1
    outer loop
      vertex 53.0994 -7.52463 3.5
      vertex 60.7471 -7.29335 3.5
      vertex 59.6157 -8.42472 3.5
    endloop
  endfacet
  facet normal 0.866021 -0.500008 0
    outer loop
      vertex 53.0994 7.52463 0
      vertex 55.0332 10.874 0
      vertex 53.0994 7.52463 3.5
    endloop
  endfacet
  facet normal 0.866021 -0.500008 0
    outer loop
      vertex 53.0994 7.52463 3.5
      vertex 55.0332 10.874 0
      vertex 55.0332 10.874 3.5
    endloop
  endfacet
  facet normal -0 0 -1
    outer loop
      vertex 53.0994 7.52463 3.5
      vertex 55.0332 10.874 3.5
      vertex 60.0298 7.70746 3.5
    endloop
  endfacet
  facet normal 0.74315 0.669125 0
    outer loop
      vertex 55.0332 -10.874 0
      vertex 55.0332 -10.874 3.5
      vertex 57.6211 -13.7482 3.5
    endloop
  endfacet
  facet normal 0.74315 0.669125 0
    outer loop
      vertex 55.0332 -10.874 0
      vertex 57.6211 -13.7482 3.5
      vertex 57.6211 -13.7482 0
    endloop
  endfacet
  facet normal -0 0 -1
    outer loop
      vertex 55.0332 -10.874 3.5
      vertex 59.6157 -8.42472 3.5
      vertex 60.0298 -9.97021 3.5
    endloop
  endfacet
  facet normal 0 0 -1
    outer loop
      vertex 55.0332 -10.874 3.5
      vertex 60.0298 -9.97021 3.5
      vertex 57.6211 -13.7482 3.5
    endloop
  endfacet
  facet normal 0.74315 -0.669125 0
    outer loop
      vertex 55.0332 10.874 0
      vertex 57.6211 13.7482 0
      vertex 55.0332 10.874 3.5
    endloop
  endfacet
  facet normal 0.74315 -0.669125 0
    outer loop
      vertex 55.0332 10.874 3.5
      vertex 57.6211 13.7482 0
      vertex 57.6211 13.7482 3.5
    endloop
  endfacet
  facet normal 0 0 -1
    outer loop
      vertex 55.0332 10.874 3.5
      vertex 57.6211 13.7482 3.5
      vertex 60.0298 7.70746 3.5
    endloop
  endfacet
  facet normal 0.587789 0.809014 0
    outer loop
      vertex 57.6211 -13.7482 0
      vertex 57.6211 -13.7482 3.5
      vertex 60.75 -16.0215 0
    endloop
  endfacet
  facet normal -0 0 -1
    outer loop
      vertex 57.6211 -13.7482 3.5
      vertex 60.0298 -9.97021 3.5
      vertex 61.5753 -10.3843 3.5
    endloop
  endfacet
  facet normal 0.587789 0.809014 -0
    outer loop
      vertex 57.6211 -13.7482 3.5
      vertex 60.75 -16.0215 3.5
      vertex 60.75 -16.0215 0
    endloop
  endfacet
  facet normal 0 0 -1
    outer loop
      vertex 57.6211 -13.7482 3.5
      vertex 61.5753 -10.3843 3.5
      vertex 60.75 -16.0215 3.5
    endloop
  endfacet
  facet normal 0.587789 -0.809014 0
    outer loop
      vertex 57.6211 13.7482 0
      vertex 60.75 16.0215 0
      vertex 60.75 16.0215 3.5
    endloop
  endfacet
  facet normal 0.587789 -0.809014 0
    outer loop
      vertex 57.6211 13.7482 0
      vertex 60.75 16.0215 3.5
      vertex 57.6211 13.7482 3.5
    endloop
  endfacet
  facet normal 0 0 -1
    outer loop
      vertex 57.6211 13.7482 3.5
      vertex 59.6157 9.25294 3.5
      vertex 60.0298 7.70746 3.5
    endloop
  endfacet
  facet normal 0 0 -1
    outer loop
      vertex 57.6211 13.7482 3.5
      vertex 60.7471 10.3843 3.5
      vertex 59.6157 9.25294 3.5
    endloop
  endfacet
  facet normal 0 0 -1
    outer loop
      vertex 57.6211 13.7482 3.5
      vertex 60.75 16.0215 3.5
      vertex 60.7471 10.3843 3.5
    endloop
  endfacet
  facet normal 0 0 1
    outer loop
      vertex 59.6157 -8.42472 15
      vertex 60.0298 7.70746 15
      vertex 59.6157 9.25294 15
    endloop
  endfacet
  facet normal 0 0 1
    outer loop
      vertex 59.6157 -8.42472 15
      vertex 60.7471 -7.29335 15
      vertex 60.0298 7.70746 15
    endloop
  endfacet
  facet normal 0.707097 -0.707116 0
    outer loop
      vertex 59.6157 -8.42472 15
      vertex 60.7471 -7.29335 3.5
      vertex 60.7471 -7.29335 15
    endloop
  endfacet
  facet normal 0.965928 0.258812 0
    outer loop
      vertex 59.6157 -8.42472 3.5
      vertex 59.6157 -8.42472 15
      vertex 60.0298 -9.97021 15
    endloop
  endfacet
  facet normal 0.965928 0.258812 0
    outer loop
      vertex 59.6157 -8.42472 3.5
      vertex 60.0298 -9.97021 15
      vertex 60.0298 -9.97021 3.5
    endloop
  endfacet
  facet normal 0.707097 -0.707116 0
    outer loop
      vertex 59.6157 -8.42472 3.5
      vertex 60.7471 -7.29335 3.5
      vertex 59.6157 -8.42472 15
    endloop
  endfacet
  facet normal 0.707094 -0.707119 0
    outer loop
      vertex 59.6157 9.25294 15
      vertex 60.7471 10.3843 3.5
      vertex 60.7471 10.3843 15
    endloop
  endfacet
  facet normal 0.965927 0.258813 0
    outer loop
      vertex 59.6157 9.25294 3.5
      vertex 59.6157 9.25294 15
      vertex 60.0298 7.70746 15
    endloop
  endfacet
  facet normal 0.965927 0.258813 0
    outer loop
      vertex 59.6157 9.25294 3.5
      vertex 60.0298 7.70746 15
      vertex 60.0298 7.70746 3.5
    endloop
  endfacet
  facet normal 0.707094 -0.707119 0
    outer loop
      vertex 59.6157 9.25294 3.5
      vertex 60.7471 10.3843 3.5
      vertex 59.6157 9.25294 15
    endloop
  endfacet
  facet normal 0.258804 0.96593 -0
    outer loop
      vertex 60.0298 -9.97021 15
      vertex 61.5753 -10.3843 15
      vertex 61.5753 -10.3843 3.5
    endloop
  endfacet
  facet normal 0.258804 0.96593 0
    outer loop
      vertex 60.0298 -9.97021 3.5
      vertex 60.0298 -9.97021 15
      vertex 61.5753 -10.3843 3.5
    endloop
  endfacet
  facet normal 0 0 1
    outer loop
      vertex 60.0298 7.70746 15
      vertex 60.7471 -7.29335 15
      vertex 61.5753 7.29335 15
    endloop
  endfacet
  facet normal 0.258816 0.965927 -0
    outer loop
      vertex 60.0298 7.70746 15
      vertex 61.5753 7.29335 15
      vertex 61.5753 7.29335 3.5
    endloop
  endfacet
  facet normal 0.258816 0.965927 0
    outer loop
      vertex 60.0298 7.70746 3.5
      vertex 60.0298 7.70746 15
      vertex 61.5753 7.29335 3.5
    endloop
  endfacet
  facet normal 0 0 1
    outer loop
      vertex 60.7471 -7.29335 15
      vertex 62.2925 -7.70746 15
      vertex 66.9 0 15
    endloop
  endfacet
  facet normal 0 0 1
    outer loop
      vertex 60.7471 -7.29335 15
      vertex 66.9 0 15
      vertex 61.5753 7.29335 15
    endloop
  endfacet
  facet normal -0 0 -1
    outer loop
      vertex 60.7471 -7.29335 3.5
      vertex 61.5753 7.29335 3.5
      vertex 66.9 0 3.5
    endloop
  endfacet
  facet normal -0.258831 -0.965922 0
    outer loop
      vertex 60.7471 -7.29335 3.5
      vertex 62.2925 -7.70746 15
      vertex 60.7471 -7.29335 15
    endloop
  endfacet
  facet normal -0.258831 -0.965922 -0
    outer loop
      vertex 60.7471 -7.29335 3.5
      vertex 62.2925 -7.70746 3.5
      vertex 62.2925 -7.70746 15
    endloop
  endfacet
  facet normal -0 0 -1
    outer loop
      vertex 60.7471 -7.29335 3.5
      vertex 66.9 0 3.5
      vertex 67.4921 -1.82213 3.5
    endloop
  endfacet
  facet normal 0 0 -1
    outer loop
      vertex 60.7471 -7.29335 3.5
      vertex 67.4921 -1.82213 3.5
      vertex 62.2925 -7.70746 3.5
    endloop
  endfacet
  facet normal 0 0 1
    outer loop
      vertex 60.7471 10.3843 15
      vertex 62.2925 9.97021 15
      vertex 72.4564 23.3713 15
    endloop
  endfacet
  facet normal 0 0 -1
    outer loop
      vertex 60.7471 10.3843 3.5
      vertex 60.75 16.0215 3.5
      vertex 62.2925 9.97021 3.5
    endloop
  endfacet
  facet normal -0.25882 -0.965926 0
    outer loop
      vertex 60.7471 10.3843 3.5
      vertex 62.2925 9.97021 15
      vertex 60.7471 10.3843 15
    endloop
  endfacet
  facet normal -0.25882 -0.965926 -0
    outer loop
      vertex 60.7471 10.3843 3.5
      vertex 62.2925 9.97021 3.5
      vertex 62.2925 9.97021 15
    endloop
  endfacet
  facet normal 0.406719 0.913553 0
    outer loop
      vertex 60.75 -16.0215 0
      vertex 60.75 -16.0215 3.5
      vertex 64.2832 -17.5945 0
    endloop
  endfacet
  facet normal 0 0 -1
    outer loop
      vertex 60.75 -16.0215 3.5
      vertex 61.5753 -10.3843 3.5
      vertex 64.2832 -17.5945 3.5
    endloop
  endfacet
  facet normal 0.406719 0.913553 -0
    outer loop
      vertex 60.75 -16.0215 3.5
      vertex 64.2832 -17.5945 3.5
      vertex 64.2832 -17.5945 0
    endloop
  endfacet
  facet normal 0.406719 -0.913553 0
    outer loop
      vertex 60.75 16.0215 0
      vertex 64.2832 17.5945 0
      vertex 64.2832 17.5945 3.5
    endloop
  endfacet
  facet normal 0.406719 -0.913553 0
    outer loop
      vertex 60.75 16.0215 0
      vertex 64.2832 17.5945 3.5
      vertex 60.75 16.0215 3.5
    endloop
  endfacet
  facet normal 0 0 -1
    outer loop
      vertex 60.75 16.0215 3.5
      vertex 64.2832 17.5945 3.5
      vertex 62.2925 9.97021 3.5
    endloop
  endfacet
  facet normal -0 0 1
    outer loop
      vertex 61.5753 -10.3843 15
      vertex 72.4564 -23.3713 15
      vertex 62.7066 -9.25294 15
    endloop
  endfacet
  facet normal -0.707126 0.707088 0
    outer loop
      vertex 61.5753 -10.3843 3.5
      vertex 61.5753 -10.3843 15
      vertex 62.7066 -9.25294 15
    endloop
  endfacet
  facet normal -0.707126 0.707088 0
    outer loop
      vertex 61.5753 -10.3843 3.5
      vertex 62.7066 -9.25294 15
      vertex 62.7066 -9.25294 3.5
    endloop
  endfacet
  facet normal 0 0 -1
    outer loop
      vertex 61.5753 -10.3843 3.5
      vertex 62.7066 -9.25294 3.5
      vertex 64.2832 -17.5945 3.5
    endloop
  endfacet
  facet normal -0.707129 0.707085 0
    outer loop
      vertex 61.5753 7.29335 15
      vertex 62.7066 8.42472 15
      vertex 62.7066 8.42472 3.5
    endloop
  endfacet
  facet normal 0 0 1
    outer loop
      vertex 61.5753 7.29335 15
      vertex 66.9 0 15
      vertex 67.4921 1.82213 15
    endloop
  endfacet
  facet normal -0 0 1
    outer loop
      vertex 61.5753 7.29335 15
      vertex 67.4921 1.82213 15
      vertex 62.7066 8.42472 15
    endloop
  endfacet
  facet normal -0.707129 0.707085 0
    outer loop
      vertex 61.5753 7.29335 3.5
      vertex 61.5753 7.29335 15
      vertex 62.7066 8.42472 3.5
    endloop
  endfacet
  facet normal 0 0 -1
    outer loop
      vertex 61.5753 7.29335 3.5
      vertex 62.7066 8.42472 3.5
      vertex 66.9 0 3.5
    endloop
  endfacet
  facet normal 0 0 1
    outer loop
      vertex 62.2925 -7.70746 15
      vertex 62.7066 -9.25294 15
      vertex 69.042 -2.94827 15
    endloop
  endfacet
  facet normal -0.965927 -0.258813 0
    outer loop
      vertex 62.2925 -7.70746 15
      vertex 62.7066 -9.25294 3.5
      vertex 62.7066 -9.25294 15
    endloop
  endfacet
  facet normal 0 0 1
    outer loop
      vertex 62.2925 -7.70746 15
      vertex 67.4921 -1.82213 15
      vertex 66.9 0 15
    endloop
  endfacet
  facet normal 0 0 1
    outer loop
      vertex 62.2925 -7.70746 15
      vertex 69.042 -2.94827 15
      vertex 67.4921 -1.82213 15
    endloop
  endfacet
  facet normal -0.965927 -0.258813 0
    outer loop
      vertex 62.2925 -7.70746 3.5
      vertex 62.7066 -9.25294 3.5
      vertex 62.2925 -7.70746 15
    endloop
  endfacet
  facet normal -0 0 -1
    outer loop
      vertex 62.2925 -7.70746 3.5
      vertex 67.4921 -1.82213 3.5
      vertex 69.042 -2.94827 3.5
    endloop
  endfacet
  facet normal 0 0 -1
    outer loop
      vertex 62.2925 -7.70746 3.5
      vertex 69.042 -2.94827 3.5
      vertex 62.7066 -9.25294 3.5
    endloop
  endfacet
  facet normal 0 -0 1
    outer loop
      vertex 62.2925 9.97021 15
      vertex 62.7066 8.42472 15
      vertex 77.2934 9.25294 15
    endloop
  endfacet
  facet normal -0.965928 -0.258812 0
    outer loop
      vertex 62.2925 9.97021 15
      vertex 62.7066 8.42472 3.5
      vertex 62.7066 8.42472 15
    endloop
  endfacet
  facet normal -0 0 1
    outer loop
      vertex 62.2925 9.97021 15
      vertex 77.2934 9.25294 15
      vertex 72.4564 23.3713 15
    endloop
  endfacet
  facet normal -0.965928 -0.258812 0
    outer loop
      vertex 62.2925 9.97021 3.5
      vertex 62.7066 8.42472 3.5
      vertex 62.2925 9.97021 15
    endloop
  endfacet
  facet normal 0 0 -1
    outer loop
      vertex 62.2925 9.97021 3.5
      vertex 64.2832 17.5945 3.5
      vertex 68.0662 18.3987 3.5
    endloop
  endfacet
  facet normal 0 0 -1
    outer loop
      vertex 62.2925 9.97021 3.5
      vertex 68.0662 18.3987 3.5
      vertex 62.7066 8.42472 3.5
    endloop
  endfacet
  facet normal 0 0 1
    outer loop
      vertex 62.7066 -9.25294 15
      vertex 70.958 -2.94827 15
      vertex 69.042 -2.94827 15
    endloop
  endfacet
  facet normal 0 0 1
    outer loop
      vertex 62.7066 -9.25294 15
      vertex 72.4564 -23.3713 15
      vertex 77.7075 -9.97021 15
    endloop
  endfacet
  facet normal 0 0 1
    outer loop
      vertex 62.7066 -9.25294 15
      vertex 77.2934 -8.42472 15
      vertex 70.958 -2.94827 15
    endloop
  endfacet
  facet normal 0 0 1
    outer loop
      vertex 62.7066 -9.25294 15
      vertex 77.7075 -9.97021 15
      vertex 77.2934 -8.42472 15
    endloop
  endfacet
  facet normal 0 0 -1
    outer loop
      vertex 62.7066 -9.25294 3.5
      vertex 68.0662 -18.3987 3.5
      vertex 64.2832 -17.5945 3.5
    endloop
  endfacet
  facet normal -0 0 -1
    outer loop
      vertex 62.7066 -9.25294 3.5
      vertex 69.042 -2.94827 3.5
      vertex 70.958 -2.94827 3.5
    endloop
  endfacet
  facet normal 0 0 -1
    outer loop
      vertex 62.7066 -9.25294 3.5
      vertex 70.958 -2.94827 3.5
      vertex 77.2934 -8.42472 3.5
    endloop
  endfacet
  facet normal 0 0 -1
    outer loop
      vertex 62.7066 -9.25294 3.5
      vertex 71.9338 -18.3987 3.5
      vertex 68.0662 -18.3987 3.5
    endloop
  endfacet
  facet normal 0 0 -1
    outer loop
      vertex 62.7066 -9.25294 3.5
      vertex 77.2934 -8.42472 3.5
      vertex 71.9338 -18.3987 3.5
    endloop
  endfacet
  facet normal 0 0 1
    outer loop
      vertex 62.7066 8.42472 15
      vertex 67.4921 1.82213 15
      vertex 69.042 2.94827 15
    endloop
  endfacet
  facet normal 0 -0 1
    outer loop
      vertex 62.7066 8.42472 15
      vertex 69.042 2.94827 15
      vertex 77.2934 9.25294 15
    endloop
  endfacet
  facet normal 0 0 -1
    outer loop
      vertex 62.7066 8.42472 3.5
      vertex 67.4921 1.82213 3.5
      vertex 66.9 0 3.5
    endloop
  endfacet
  facet normal -0 0 -1
    outer loop
      vertex 62.7066 8.42472 3.5
      vertex 68.0662 18.3987 3.5
      vertex 77.2934 9.25294 3.5
    endloop
  endfacet
  facet normal 0 0 -1
    outer loop
      vertex 62.7066 8.42472 3.5
      vertex 69.042 2.94827 3.5
      vertex 67.4921 1.82213 3.5
    endloop
  endfacet
  facet normal 0 0 -1
    outer loop
      vertex 62.7066 8.42472 3.5
      vertex 77.2934 9.25294 3.5
      vertex 69.042 2.94827 3.5
    endloop
  endfacet
  facet normal 0.207936 0.978142 0
    outer loop
      vertex 64.2832 -17.5945 0
      vertex 64.2832 -17.5945 3.5
      vertex 68.0662 -18.3987 0
    endloop
  endfacet
  facet normal 0 0 -1
    outer loop
      vertex 64.2832 -17.5945 0
      vertex 68.0662 -18.3987 0
      vertex 72.4564 -23.3713 0
    endloop
  endfacet
  facet normal 0.207936 0.978142 -0
    outer loop
      vertex 64.2832 -17.5945 3.5
      vertex 68.0662 -18.3987 3.5
      vertex 68.0662 -18.3987 0
    endloop
  endfacet
  facet normal 0.207936 -0.978142 0
    outer loop
      vertex 64.2832 17.5945 0
      vertex 68.0662 18.3987 0
      vertex 68.0662 18.3987 3.5
    endloop
  endfacet
  facet normal 0.207936 -0.978142 0
    outer loop
      vertex 64.2832 17.5945 0
      vertex 68.0662 18.3987 3.5
      vertex 64.2832 17.5945 3.5
    endloop
  endfacet
  facet normal 0 0 -1
    outer loop
      vertex 64.2832 17.5945 0
      vertex 72.4564 23.3713 0
      vertex 68.0662 18.3987 0
    endloop
  endfacet
  facet normal 0.951048 -0.309043 0
    outer loop
      vertex 66.9 0 15
      vertex 67.4921 1.82213 3.5
      vertex 67.4921 1.82213 15
    endloop
  endfacet
  facet normal 0.951048 0.309043 0
    outer loop
      vertex 66.9 0 3.5
      vertex 66.9 0 15
      vertex 67.4921 -1.82213 15
    endloop
  endfacet
  facet normal 0.951048 0.309043 0
    outer loop
      vertex 66.9 0 3.5
      vertex 67.4921 -1.82213 15
      vertex 67.4921 -1.82213 3.5
    endloop
  endfacet
  facet normal 0.951048 -0.309043 0
    outer loop
      vertex 66.9 0 3.5
      vertex 67.4921 1.82213 3.5
      vertex 66.9 0 15
    endloop
  endfacet
  facet normal 0.58781 0.808999 -0
    outer loop
      vertex 67.4921 -1.82213 15
      vertex 69.042 -2.94827 15
      vertex 69.042 -2.94827 3.5
    endloop
  endfacet
  facet normal 0.58781 0.808999 0
    outer loop
      vertex 67.4921 -1.82213 3.5
      vertex 67.4921 -1.82213 15
      vertex 69.042 -2.94827 3.5
    endloop
  endfacet
  facet normal 0.58781 -0.808999 0
    outer loop
      vertex 67.4921 1.82213 3.5
      vertex 69.042 2.94827 15
      vertex 67.4921 1.82213 15
    endloop
  endfacet
  facet normal 0.58781 -0.808999 0
    outer loop
      vertex 67.4921 1.82213 3.5
      vertex 69.042 2.94827 3.5
      vertex 69.042 2.94827 15
    endloop
  endfacet
  facet normal 0 1 0
    outer loop
      vertex 68.0662 -18.3987 0
      vertex 68.0662 -18.3987 3.5
      vertex 71.9338 -18.3987 0
    endloop
  endfacet
  facet normal 0 0 -1
    outer loop
      vertex 68.0662 -18.3987 0
      vertex 71.9338 -18.3987 0
      vertex 72.4564 -23.3713 0
    endloop
  endfacet
  facet normal 0 1 -0
    outer loop
      vertex 68.0662 -18.3987 3.5
      vertex 71.9338 -18.3987 3.5
      vertex 71.9338 -18.3987 0
    endloop
  endfacet
  facet normal 0 -1 -0
    outer loop
      vertex 68.0662 18.3987 0
      vertex 71.9338 18.3987 0
      vertex 71.9338 18.3987 3.5
    endloop
  endfacet
  facet normal 0 -1 0
    outer loop
      vertex 68.0662 18.3987 0
      vertex 71.9338 18.3987 3.5
      vertex 68.0662 18.3987 3.5
    endloop
  endfacet
  facet normal 0 0 -1
    outer loop
      vertex 68.0662 18.3987 0
      vertex 72.4564 23.3713 0
      vertex 71.9338 18.3987 0
    endloop
  endfacet
  facet normal 0 0 -1
    outer loop
      vertex 68.0662 18.3987 3.5
      vertex 71.9338 18.3987 3.5
      vertex 77.2934 9.25294 3.5
    endloop
  endfacet
  facet normal 0 1 -0
    outer loop
      vertex 69.042 -2.94827 15
      vertex 70.958 -2.94827 15
      vertex 70.958 -2.94827 3.5
    endloop
  endfacet
  facet normal 0 1 0
    outer loop
      vertex 69.042 -2.94827 3.5
      vertex 69.042 -2.94827 15
      vertex 70.958 -2.94827 3.5
    endloop
  endfacet
  facet normal 0 0 1
    outer loop
      vertex 69.042 2.94827 15
      vertex 70.958 2.94827 15
      vertex 77.2934 9.25294 15
    endloop
  endfacet
  facet normal 0 -1 0
    outer loop
      vertex 69.042 2.94827 3.5
      vertex 70.958 2.94827 15
      vertex 69.042 2.94827 15
    endloop
  endfacet
  facet normal 0 -1 -0
    outer loop
      vertex 69.042 2.94827 3.5
      vertex 70.958 2.94827 3.5
      vertex 70.958 2.94827 15
    endloop
  endfacet
  facet normal 0 0 -1
    outer loop
      vertex 69.042 2.94827 3.5
      vertex 77.2934 9.25294 3.5
      vertex 70.958 2.94827 3.5
    endloop
  endfacet
  facet normal -0.58781 0.808999 0
    outer loop
      vertex 70.958 -2.94827 15
      vertex 72.5079 -1.82213 15
      vertex 72.5079 -1.82213 3.5
    endloop
  endfacet
  facet normal -0 0 1
    outer loop
      vertex 70.958 -2.94827 15
      vertex 77.2934 -8.42472 15
      vertex 72.5079 -1.82213 15
    endloop
  endfacet
  facet normal -0.58781 0.808999 0
    outer loop
      vertex 70.958 -2.94827 3.5
      vertex 70.958 -2.94827 15
      vertex 72.5079 -1.82213 3.5
    endloop
  endfacet
  facet normal 0 0 -1
    outer loop
      vertex 70.958 -2.94827 3.5
      vertex 72.5079 -1.82213 3.5
      vertex 77.2934 -8.42472 3.5
    endloop
  endfacet
  facet normal 0 0 1
    outer loop
      vertex 70.958 2.94827 15
      vertex 72.5079 1.82213 15
      vertex 77.7075 7.70746 15
    endloop
  endfacet
  facet normal 0 0 1
    outer loop
      vertex 70.958 2.94827 15
      vertex 77.7075 7.70746 15
      vertex 77.2934 9.25294 15
    endloop
  endfacet
  facet normal -0.58781 -0.808999 0
    outer loop
      vertex 70.958 2.94827 3.5
      vertex 72.5079 1.82213 15
      vertex 70.958 2.94827 15
    endloop
  endfacet
  facet normal -0.58781 -0.808999 -0
    outer loop
      vertex 70.958 2.94827 3.5
      vertex 72.5079 1.82213 3.5
      vertex 72.5079 1.82213 15
    endloop
  endfacet
  facet normal -0 0 -1
    outer loop
      vertex 70.958 2.94827 3.5
      vertex 77.2934 9.25294 3.5
      vertex 77.7075 7.70746 3.5
    endloop
  endfacet
  facet normal 0 0 -1
    outer loop
      vertex 70.958 2.94827 3.5
      vertex 77.7075 7.70746 3.5
      vertex 72.5079 1.82213 3.5
    endloop
  endfacet
  facet normal -0.207936 0.978142 0
    outer loop
      vertex 71.9338 -18.3987 0
      vertex 71.9338 -18.3987 3.5
      vertex 75.7168 -17.5945 0
    endloop
  endfacet
  facet normal 0 0 -1
    outer loop
      vertex 71.9338 -18.3987 0
      vertex 75.7168 -17.5945 0
      vertex 72.4564 -23.3713 0
    endloop
  endfacet
  facet normal -0.207936 0.978142 0
    outer loop
      vertex 71.9338 -18.3987 3.5
      vertex 75.7168 -17.5945 3.5
      vertex 75.7168 -17.5945 0
    endloop
  endfacet
  facet normal -0 0 -1
    outer loop
      vertex 71.9338 -18.3987 3.5
      vertex 77.2934 -8.42472 3.5
      vertex 77.7075 -9.97021 3.5
    endloop
  endfacet
  facet normal 0 0 -1
    outer loop
      vertex 71.9338 -18.3987 3.5
      vertex 77.7075 -9.97021 3.5
      vertex 75.7168 -17.5945 3.5
    endloop
  endfacet
  facet normal 0 0 -1
    outer loop
      vertex 71.9338 18.3987 0
      vertex 72.4564 23.3713 0
      vertex 75.7168 17.5945 0
    endloop
  endfacet
  facet normal -0.207936 -0.978142 -0
    outer loop
      vertex 71.9338 18.3987 0
      vertex 75.7168 17.5945 0
      vertex 75.7168 17.5945 3.5
    endloop
  endfacet
  facet normal -0.207936 -0.978142 0
    outer loop
      vertex 71.9338 18.3987 0
      vertex 75.7168 17.5945 3.5
      vertex 71.9338 18.3987 3.5
    endloop
  endfacet
  facet normal 0 0 -1
    outer loop
      vertex 71.9338 18.3987 3.5
      vertex 75.7168 17.5945 3.5
      vertex 77.2934 9.25294 3.5
    endloop
  endfacet
  facet normal 0 0 -1
    outer loop
      vertex 72.4564 -23.3713 0
      vertex 75.7168 -17.5945 0
      vertex 77.2619 -22.3498 0
    endloop
  endfacet
  facet normal 0.207923 -0.978145 0
    outer loop
      vertex 72.4564 -23.3713 0
      vertex 77.2619 -22.3498 0
      vertex 77.2619 -22.3498 15
    endloop
  endfacet
  facet normal 0.207923 -0.978145 0
    outer loop
      vertex 72.4564 -23.3713 0
      vertex 77.2619 -22.3498 15
      vertex 72.4564 -23.3713 15
    endloop
  endfacet
  facet normal 0 0 1
    outer loop
      vertex 72.4564 -23.3713 15
      vertex 77.2619 -22.3498 15
      vertex 77.7075 -9.97021 15
    endloop
  endfacet
  facet normal 0.207923 0.978145 0
    outer loop
      vertex 72.4564 23.3713 0
      vertex 72.4564 23.3713 15
      vertex 77.2619 22.3498 0
    endloop
  endfacet
  facet normal 0 0 -1
    outer loop
      vertex 72.4564 23.3713 0
      vertex 77.2619 22.3498 0
      vertex 75.7168 17.5945 0
    endloop
  endfacet
  facet normal 0.207923 0.978145 -0
    outer loop
      vertex 72.4564 23.3713 15
      vertex 77.2619 22.3498 15
      vertex 77.2619 22.3498 0
    endloop
  endfacet
  facet normal 0 0 1
    outer loop
      vertex 72.4564 23.3713 15
      vertex 77.2934 9.25294 15
      vertex 78.4247 10.3843 15
    endloop
  endfacet
  facet normal 0 0 1
    outer loop
      vertex 72.4564 23.3713 15
      vertex 78.4247 10.3843 15
      vertex 77.2619 22.3498 15
    endloop
  endfacet
  facet normal 0 0 1
    outer loop
      vertex 72.5079 -1.82213 15
      vertex 77.2934 -8.42472 15
      vertex 78.4247 -7.29335 15
    endloop
  endfacet
  facet normal -0 0 1
    outer loop
      vertex 72.5079 -1.82213 15
      vertex 78.4247 -7.29335 15
      vertex 73.1 0 15
    endloop
  endfacet
  facet normal -0.951048 0.309043 0
    outer loop
      vertex 72.5079 -1.82213 3.5
      vertex 72.5079 -1.82213 15
      vertex 73.1 0 15
    endloop
  endfacet
  facet normal -0.951048 0.309043 0
    outer loop
      vertex 72.5079 -1.82213 3.5
      vertex 73.1 0 15
      vertex 73.1 0 3.5
    endloop
  endfacet
  facet normal 0 0 -1
    outer loop
      vertex 72.5079 -1.82213 3.5
      vertex 73.1 0 3.5
      vertex 78.4247 -7.29335 3.5
    endloop
  endfacet
  facet normal 0 0 -1
    outer loop
      vertex 72.5079 -1.82213 3.5
      vertex 78.4247 -7.29335 3.5
      vertex 77.2934 -8.42472 3.5
    endloop
  endfacet
  facet normal 0 0 1
    outer loop
      vertex 72.5079 1.82213 15
      vertex 73.1 0 15
      vertex 79.2529 7.29335 15
    endloop
  endfacet
  facet normal -0.951048 -0.309043 0
    outer loop
      vertex 72.5079 1.82213 15
      vertex 73.1 0 3.5
      vertex 73.1 0 15
    endloop
  endfacet
  facet normal 0 0 1
    outer loop
      vertex 72.5079 1.82213 15
      vertex 79.2529 7.29335 15
      vertex 77.7075 7.70746 15
    endloop
  endfacet
  facet normal -0.951048 -0.309043 0
    outer loop
      vertex 72.5079 1.82213 3.5
      vertex 73.1 0 3.5
      vertex 72.5079 1.82213 15
    endloop
  endfacet
  facet normal -0 0 -1
    outer loop
      vertex 72.5079 1.82213 3.5
      vertex 77.7075 7.70746 3.5
      vertex 79.2529 7.29335 3.5
    endloop
  endfacet
  facet normal 0 0 -1
    outer loop
      vertex 72.5079 1.82213 3.5
      vertex 79.2529 7.29335 3.5
      vertex 73.1 0 3.5
    endloop
  endfacet
  facet normal 0 0 1
    outer loop
      vertex 73.1 0 15
      vertex 78.4247 -7.29335 15
      vertex 79.2529 7.29335 15
    endloop
  endfacet
  facet normal 0 0 -1
    outer loop
      vertex 73.1 0 3.5
      vertex 79.2529 7.29335 3.5
      vertex 78.4247 -7.29335 3.5
    endloop
  endfacet
  facet normal -0.406719 0.913553 0
    outer loop
      vertex 75.7168 -17.5945 0
      vertex 75.7168 -17.5945 3.5
      vertex 79.25 -16.0215 0
    endloop
  endfacet
  facet normal 0 0 -1
    outer loop
      vertex 75.7168 -17.5945 0
      vertex 79.25 -16.0215 0
      vertex 77.2619 -22.3498 0
    endloop
  endfacet
  facet normal 0 0 -1
    outer loop
      vertex 75.7168 -17.5945 3.5
      vertex 77.7075 -9.97021 3.5
      vertex 79.25 -16.0215 3.5
    endloop
  endfacet
  facet normal -0.406719 0.913553 0
    outer loop
      vertex 75.7168 -17.5945 3.5
      vertex 79.25 -16.0215 3.5
      vertex 79.25 -16.0215 0
    endloop
  endfacet
  facet normal 0 0 -1
    outer loop
      vertex 75.7168 17.5945 0
      vertex 77.2619 22.3498 0
      vertex 79.25 16.0215 0
    endloop
  endfacet
  facet normal -0.406719 -0.913553 -0
    outer loop
      vertex 75.7168 17.5945 0
      vertex 79.25 16.0215 0
      vertex 79.25 16.0215 3.5
    endloop
  endfacet
  facet normal -0.406719 -0.913553 0
    outer loop
      vertex 75.7168 17.5945 0
      vertex 79.25 16.0215 3.5
      vertex 75.7168 17.5945 3.5
    endloop
  endfacet
  facet normal 0 0 -1
    outer loop
      vertex 75.7168 17.5945 3.5
      vertex 78.4247 10.3843 3.5
      vertex 77.2934 9.25294 3.5
    endloop
  endfacet
  facet normal 0 0 -1
    outer loop
      vertex 75.7168 17.5945 3.5
      vertex 79.25 16.0215 3.5
      vertex 78.4247 10.3843 3.5
    endloop
  endfacet
  facet normal 0 0 -1
    outer loop
      vertex 77.2619 -22.3498 0
      vertex 79.25 -16.0215 0
      vertex 81.75 -20.3516 0
    endloop
  endfacet
  facet normal 0.406731 -0.913548 0
    outer loop
      vertex 77.2619 -22.3498 0
      vertex 81.75 -20.3516 0
      vertex 81.75 -20.3516 15
    endloop
  endfacet
  facet normal 0.406731 -0.913548 0
    outer loop
      vertex 77.2619 -22.3498 0
      vertex 81.75 -20.3516 15
      vertex 77.2619 -22.3498 15
    endloop
  endfacet
  facet normal 0 0 1
    outer loop
      vertex 77.2619 -22.3498 15
      vertex 79.2529 -10.3843 15
      vertex 77.7075 -9.97021 15
    endloop
  endfacet
  facet normal 0 0 1
    outer loop
      vertex 77.2619 -22.3498 15
      vertex 81.75 -20.3516 15
      vertex 79.2529 -10.3843 15
    endloop
  endfacet
  facet normal 0.406731 0.913548 0
    outer loop
      vertex 77.2619 22.3498 0
      vertex 77.2619 22.3498 15
      vertex 81.75 20.3516 0
    endloop
  endfacet
  facet normal 0 0 -1
    outer loop
      vertex 77.2619 22.3498 0
      vertex 81.75 20.3516 0
      vertex 79.25 16.0215 0
    endloop
  endfacet
  facet normal 0 0 1
    outer loop
      vertex 77.2619 22.3498 15
      vertex 78.4247 10.3843 15
      vertex 81.75 20.3516 15
    endloop
  endfacet
  facet normal 0.406731 0.913548 -0
    outer loop
      vertex 77.2619 22.3498 15
      vertex 81.75 20.3516 15
      vertex 81.75 20.3516 0
    endloop
  endfacet
  facet normal 0.965928 0.258812 0
    outer loop
      vertex 77.2934 -8.42472 3.5
      vertex 77.2934 -8.42472 15
      vertex 77.7075 -9.97021 15
    endloop
  endfacet
  facet normal 0.965928 0.258812 0
    outer loop
      vertex 77.2934 -8.42472 3.5
      vertex 77.7075 -9.97021 15
      vertex 77.7075 -9.97021 3.5
    endloop
  endfacet
  facet normal 0.707129 -0.707085 0
    outer loop
      vertex 77.2934 -8.42472 3.5
      vertex 78.4247 -7.29335 15
      vertex 77.2934 -8.42472 15
    endloop
  endfacet
  facet normal 0.707129 -0.707085 0
    outer loop
      vertex 77.2934 -8.42472 3.5
      vertex 78.4247 -7.29335 3.5
      vertex 78.4247 -7.29335 15
    endloop
  endfacet
  facet normal 0.707126 -0.707088 0
    outer loop
      vertex 77.2934 9.25294 15
      vertex 78.4247 10.3843 3.5
      vertex 78.4247 10.3843 15
    endloop
  endfacet
  facet normal 0.965927 0.258813 0
    outer loop
      vertex 77.2934 9.25294 3.5
      vertex 77.2934 9.25294 15
      vertex 77.7075 7.70746 15
    endloop
  endfacet
  facet normal 0.965927 0.258813 0
    outer loop
      vertex 77.2934 9.25294 3.5
      vertex 77.7075 7.70746 15
      vertex 77.7075 7.70746 3.5
    endloop
  endfacet
  facet normal 0.707126 -0.707088 0
    outer loop
      vertex 77.2934 9.25294 3.5
      vertex 78.4247 10.3843 3.5
      vertex 77.2934 9.25294 15
    endloop
  endfacet
  facet normal 0.25882 0.965926 -0
    outer loop
      vertex 77.7075 -9.97021 15
      vertex 79.2529 -10.3843 15
      vertex 79.2529 -10.3843 3.5
    endloop
  endfacet
  facet normal 0.25882 0.965926 0
    outer loop
      vertex 77.7075 -9.97021 3.5
      vertex 77.7075 -9.97021 15
      vertex 79.2529 -10.3843 3.5
    endloop
  endfacet
  facet normal 0 0 -1
    outer loop
      vertex 77.7075 -9.97021 3.5
      vertex 79.2529 -10.3843 3.5
      vertex 79.25 -16.0215 3.5
    endloop
  endfacet
  facet normal 0.258831 0.965922 -0
    outer loop
      vertex 77.7075 7.70746 15
      vertex 79.2529 7.29335 15
      vertex 79.2529 7.29335 3.5
    endloop
  endfacet
  facet normal 0.258831 0.965922 0
    outer loop
      vertex 77.7075 7.70746 3.5
      vertex 77.7075 7.70746 15
      vertex 79.2529 7.29335 3.5
    endloop
  endfacet
  facet normal 0 0 1
    outer loop
      vertex 78.4247 -7.29335 15
      vertex 79.9702 -7.70746 15
      vertex 79.2529 7.29335 15
    endloop
  endfacet
  facet normal -0 0 -1
    outer loop
      vertex 78.4247 -7.29335 3.5
      vertex 79.2529 7.29335 3.5
      vertex 88.5 0 3.5
    endloop
  endfacet
  facet normal -0.258816 -0.965927 0
    outer loop
      vertex 78.4247 -7.29335 3.5
      vertex 79.9702 -7.70746 15
      vertex 78.4247 -7.29335 15
    endloop
  endfacet
  facet normal -0.258816 -0.965927 -0
    outer loop
      vertex 78.4247 -7.29335 3.5
      vertex 79.9702 -7.70746 3.5
      vertex 79.9702 -7.70746 15
    endloop
  endfacet
  facet normal 0 0 -1
    outer loop
      vertex 78.4247 -7.29335 3.5
      vertex 88.5 0 3.5
      vertex 79.9702 -7.70746 3.5
    endloop
  endfacet
  facet normal 0 0 1
    outer loop
      vertex 78.4247 10.3843 15
      vertex 79.9702 9.97021 15
      vertex 81.75 20.3516 15
    endloop
  endfacet
  facet normal -0 0 -1
    outer loop
      vertex 78.4247 10.3843 3.5
      vertex 79.25 16.0215 3.5
      vertex 82.3789 13.7482 3.5
    endloop
  endfacet
  facet normal -0.258804 -0.96593 0
    outer loop
      vertex 78.4247 10.3843 3.5
      vertex 79.9702 9.97021 15
      vertex 78.4247 10.3843 15
    endloop
  endfacet
  facet normal -0.258804 -0.96593 -0
    outer loop
      vertex 78.4247 10.3843 3.5
      vertex 79.9702 9.97021 3.5
      vertex 79.9702 9.97021 15
    endloop
  endfacet
  facet normal 0 0 -1
    outer loop
      vertex 78.4247 10.3843 3.5
      vertex 82.3789 13.7482 3.5
      vertex 79.9702 9.97021 3.5
    endloop
  endfacet
  facet normal -0.587789 0.809014 0
    outer loop
      vertex 79.25 -16.0215 0
      vertex 79.25 -16.0215 3.5
      vertex 82.3789 -13.7482 0
    endloop
  endfacet
  facet normal 0 0 -1
    outer loop
      vertex 79.25 -16.0215 0
      vertex 82.3789 -13.7482 0
      vertex 81.75 -20.3516 0
    endloop
  endfacet
  facet normal 0 0 -1
    outer loop
      vertex 79.25 -16.0215 3.5
      vertex 79.2529 -10.3843 3.5
      vertex 82.3789 -13.7482 3.5
    endloop
  endfacet
  facet normal -0.587789 0.809014 0
    outer loop
      vertex 79.25 -16.0215 3.5
      vertex 82.3789 -13.7482 3.5
      vertex 82.3789 -13.7482 0
    endloop
  endfacet
  facet normal 0 0 -1
    outer loop
      vertex 79.25 16.0215 0
      vertex 81.75 20.3516 0
      vertex 82.3789 13.7482 0
    endloop
  endfacet
  facet normal -0.587789 -0.809014 -0
    outer loop
      vertex 79.25 16.0215 0
      vertex 82.3789 13.7482 0
      vertex 82.3789 13.7482 3.5
    endloop
  endfacet
  facet normal -0.587789 -0.809014 0
    outer loop
      vertex 79.25 16.0215 0
      vertex 82.3789 13.7482 3.5
      vertex 79.25 16.0215 3.5
    endloop
  endfacet
  facet normal 0 0 1
    outer loop
      vertex 79.2529 -10.3843 15
      vertex 81.75 -20.3516 15
      vertex 85.7246 -17.4639 15
    endloop
  endfacet
  facet normal -0 0 1
    outer loop
      vertex 79.2529 -10.3843 15
      vertex 85.7246 -17.4639 15
      vertex 80.3843 -9.25294 15
    endloop
  endfacet
  facet normal -0.707094 0.707119 0
    outer loop
      vertex 79.2529 -10.3843 3.5
      vertex 79.2529 -10.3843 15
      vertex 80.3843 -9.25294 15
    endloop
  endfacet
  facet normal -0.707094 0.707119 0
    outer loop
      vertex 79.2529 -10.3843 3.5
      vertex 80.3843 -9.25294 15
      vertex 80.3843 -9.25294 3.5
    endloop
  endfacet
  facet normal 0 0 -1
    outer loop
      vertex 79.2529 -10.3843 3.5
      vertex 80.3843 -9.25294 3.5
      vertex 82.3789 -13.7482 3.5
    endloop
  endfacet
  facet normal 0 0 1
    outer loop
      vertex 79.2529 7.29335 15
      vertex 79.9702 -7.70746 15
      vertex 93.5 0 15
    endloop
  endfacet
  facet normal -0 0 1
    outer loop
      vertex 79.2529 7.29335 15
      vertex 92.9865 4.88592 15
      vertex 80.3843 8.42472 15
    endloop
  endfacet
  facet normal 0 0 1
    outer loop
      vertex 79.2529 7.29335 15
      vertex 93.5 0 15
      vertex 92.9865 4.88592 15
    endloop
  endfacet
  facet normal -0.707097 0.707116 0
    outer loop
      vertex 79.2529 7.29335 3.5
      vertex 79.2529 7.29335 15
      vertex 80.3843 8.42472 15
    endloop
  endfacet
  facet normal -0.707097 0.707116 0
    outer loop
      vertex 79.2529 7.29335 3.5
      vertex 80.3843 8.42472 15
      vertex 80.3843 8.42472 3.5
    endloop
  endfacet
  facet normal 0 0 -1
    outer loop
      vertex 79.2529 7.29335 3.5
      vertex 80.3843 8.42472 3.5
      vertex 88.5 0 3.5
    endloop
  endfacet
  facet normal 0 0 1
    outer loop
      vertex 79.9702 -7.70746 15
      vertex 80.3843 -9.25294 15
      vertex 91.4683 -9.55831 15
    endloop
  endfacet
  facet normal -0.965927 -0.258813 0
    outer loop
      vertex 79.9702 -7.70746 15
      vertex 80.3843 -9.25294 3.5
      vertex 80.3843 -9.25294 15
    endloop
  endfacet
  facet normal -0 0 1
    outer loop
      vertex 79.9702 -7.70746 15
      vertex 91.4683 -9.55831 15
      vertex 92.9865 -4.88592 15
    endloop
  endfacet
  facet normal 0 0 1
    outer loop
      vertex 79.9702 -7.70746 15
      vertex 92.9865 -4.88592 15
      vertex 93.5 0 15
    endloop
  endfacet
  facet normal -0.965927 -0.258813 0
    outer loop
      vertex 79.9702 -7.70746 3.5
      vertex 80.3843 -9.25294 3.5
      vertex 79.9702 -7.70746 15
    endloop
  endfacet
  facet normal 0 0 -1
    outer loop
      vertex 79.9702 -7.70746 3.5
      vertex 86.9006 -7.52463 3.5
      vertex 80.3843 -9.25294 3.5
    endloop
  endfacet
  facet normal -0 0 -1
    outer loop
      vertex 79.9702 -7.70746 3.5
      vertex 88.0957 -3.84637 3.5
      vertex 86.9006 -7.52463 3.5
    endloop
  endfacet
  facet normal -0 0 -1
    outer loop
      vertex 79.9702 -7.70746 3.5
      vertex 88.5 0 3.5
      vertex 88.0957 -3.84637 3.5
    endloop
  endfacet
  facet normal 0 0 1
    outer loop
      vertex 79.9702 9.97021 15
      vertex 80.3843 8.42472 15
      vertex 89.0119 13.813 15
    endloop
  endfacet
  facet normal -0.965928 -0.258812 0
    outer loop
      vertex 79.9702 9.97021 15
      vertex 80.3843 8.42472 3.5
      vertex 80.3843 8.42472 15
    endloop
  endfacet
  facet normal 0 0 1
    outer loop
      vertex 79.9702 9.97021 15
      vertex 85.7246 17.4639 15
      vertex 81.75 20.3516 15
    endloop
  endfacet
  facet normal 0 0 1
    outer loop
      vertex 79.9702 9.97021 15
      vertex 89.0119 13.813 15
      vertex 85.7246 17.4639 15
    endloop
  endfacet
  facet normal -0.965928 -0.258812 0
    outer loop
      vertex 79.9702 9.97021 3.5
      vertex 80.3843 8.42472 3.5
      vertex 79.9702 9.97021 15
    endloop
  endfacet
  facet normal -0 0 -1
    outer loop
      vertex 79.9702 9.97021 3.5
      vertex 82.3789 13.7482 3.5
      vertex 84.9668 10.874 3.5
    endloop
  endfacet
  facet normal 0 0 -1
    outer loop
      vertex 79.9702 9.97021 3.5
      vertex 84.9668 10.874 3.5
      vertex 80.3843 8.42472 3.5
    endloop
  endfacet
  facet normal 0 0 1
    outer loop
      vertex 80.3843 -9.25294 15
      vertex 85.7246 -17.4639 15
      vertex 89.0119 -13.813 15
    endloop
  endfacet
  facet normal 0 0 1
    outer loop
      vertex 80.3843 -9.25294 15
      vertex 89.0119 -13.813 15
      vertex 91.4683 -9.55831 15
    endloop
  endfacet
  facet normal 0 0 -1
    outer loop
      vertex 80.3843 -9.25294 3.5
      vertex 84.9668 -10.874 3.5
      vertex 82.3789 -13.7482 3.5
    endloop
  endfacet
  facet normal 0 0 -1
    outer loop
      vertex 80.3843 -9.25294 3.5
      vertex 86.9006 -7.52463 3.5
      vertex 84.9668 -10.874 3.5
    endloop
  endfacet
  facet normal 0 0 1
    outer loop
      vertex 80.3843 8.42472 15
      vertex 91.4683 9.55831 15
      vertex 89.0119 13.813 15
    endloop
  endfacet
  facet normal -0 0 1
    outer loop
      vertex 80.3843 8.42472 15
      vertex 92.9865 4.88592 15
      vertex 91.4683 9.55831 15
    endloop
  endfacet
  facet normal 0 0 -1
    outer loop
      vertex 80.3843 8.42472 3.5
      vertex 84.9668 10.874 3.5
      vertex 86.9006 7.52463 3.5
    endloop
  endfacet
  facet normal 0 0 -1
    outer loop
      vertex 80.3843 8.42472 3.5
      vertex 86.9006 7.52463 3.5
      vertex 88.0957 3.84637 3.5
    endloop
  endfacet
  facet normal 0 0 -1
    outer loop
      vertex 80.3843 8.42472 3.5
      vertex 88.0957 3.84637 3.5
      vertex 88.5 0 3.5
    endloop
  endfacet
  facet normal 0 0 -1
    outer loop
      vertex 81.75 -20.3516 0
      vertex 82.3789 -13.7482 0
      vertex 85.7246 -17.4639 0
    endloop
  endfacet
  facet normal 0.587783 -0.809019 0
    outer loop
      vertex 81.75 -20.3516 0
      vertex 85.7246 -17.4639 0
      vertex 85.7246 -17.4639 15
    endloop
  endfacet
  facet normal 0.587783 -0.809019 0
    outer loop
      vertex 81.75 -20.3516 0
      vertex 85.7246 -17.4639 15
      vertex 81.75 -20.3516 15
    endloop
  endfacet
  facet normal 0.587783 0.809019 0
    outer loop
      vertex 81.75 20.3516 0
      vertex 81.75 20.3516 15
      vertex 85.7246 17.4639 0
    endloop
  endfacet
  facet normal 0 0 -1
    outer loop
      vertex 81.75 20.3516 0
      vertex 85.7246 17.4639 0
      vertex 82.3789 13.7482 0
    endloop
  endfacet
  facet normal 0.587783 0.809019 -0
    outer loop
      vertex 81.75 20.3516 15
      vertex 85.7246 17.4639 15
      vertex 85.7246 17.4639 0
    endloop
  endfacet
  facet normal -0.74315 0.669125 0
    outer loop
      vertex 82.3789 -13.7482 0
      vertex 82.3789 -13.7482 3.5
      vertex 84.9668 -10.874 3.5
    endloop
  endfacet
  facet normal 0 0 -1
    outer loop
      vertex 82.3789 -13.7482 0
      vertex 84.9668 -10.874 0
      vertex 85.7246 -17.4639 0
    endloop
  endfacet
  facet normal -0.74315 0.669125 0
    outer loop
      vertex 82.3789 -13.7482 0
      vertex 84.9668 -10.874 3.5
      vertex 84.9668 -10.874 0
    endloop
  endfacet
  facet normal -0.74315 -0.669125 0
    outer loop
      vertex 82.3789 13.7482 0
      vertex 84.9668 10.874 0
      vertex 82.3789 13.7482 3.5
    endloop
  endfacet
  facet normal 0 0 -1
    outer loop
      vertex 82.3789 13.7482 0
      vertex 85.7246 17.4639 0
      vertex 84.9668 10.874 0
    endloop
  endfacet
  facet normal -0.74315 -0.669125 0
    outer loop
      vertex 82.3789 13.7482 3.5
      vertex 84.9668 10.874 0
      vertex 84.9668 10.874 3.5
    endloop
  endfacet
  facet normal -0.866021 0.500008 0
    outer loop
      vertex 84.9668 -10.874 0
      vertex 84.9668 -10.874 3.5
      vertex 86.9006 -7.52463 3.5
    endloop
  endfacet
  facet normal 0 0 -1
    outer loop
      vertex 84.9668 -10.874 0
      vertex 86.9006 -7.52463 0
      vertex 89.0119 -13.813 0
    endloop
  endfacet
  facet normal -0.866021 0.500008 0
    outer loop
      vertex 84.9668 -10.874 0
      vertex 86.9006 -7.52463 3.5
      vertex 86.9006 -7.52463 0
    endloop
  endfacet
  facet normal 0 0 -1
    outer loop
      vertex 84.9668 -10.874 0
      vertex 89.0119 -13.813 0
      vertex 85.7246 -17.4639 0
    endloop
  endfacet
  facet normal -0 0 -1
    outer loop
      vertex 84.9668 10.874 0
      vertex 85.7246 17.4639 0
      vertex 89.0119 13.813 0
    endloop
  endfacet
  facet normal -0.866021 -0.500008 0
    outer loop
      vertex 84.9668 10.874 0
      vertex 86.9006 7.52463 0
      vertex 84.9668 10.874 3.5
    endloop
  endfacet
  facet normal 0 0 -1
    outer loop
      vertex 84.9668 10.874 0
      vertex 89.0119 13.813 0
      vertex 86.9006 7.52463 0
    endloop
  endfacet
  facet normal -0.866021 -0.500008 0
    outer loop
      vertex 84.9668 10.874 3.5
      vertex 86.9006 7.52463 0
      vertex 86.9006 7.52463 3.5
    endloop
  endfacet
  facet normal 0.743143 -0.669132 0
    outer loop
      vertex 85.7246 -17.4639 0
      vertex 89.0119 -13.813 0
      vertex 85.7246 -17.4639 15
    endloop
  endfacet
  facet normal 0.743143 -0.669132 0
    outer loop
      vertex 85.7246 -17.4639 15
      vertex 89.0119 -13.813 0
      vertex 89.0119 -13.813 15
    endloop
  endfacet
  facet normal 0.743143 0.669132 0
    outer loop
      vertex 85.7246 17.4639 0
      vertex 85.7246 17.4639 15
      vertex 89.0119 13.813 15
    endloop
  endfacet
  facet normal 0.743143 0.669132 0
    outer loop
      vertex 85.7246 17.4639 0
      vertex 89.0119 13.813 15
      vertex 89.0119 13.813 0
    endloop
  endfacet
  facet normal -0.951059 0.309008 0
    outer loop
      vertex 86.9006 -7.52463 0
      vertex 86.9006 -7.52463 3.5
      vertex 88.0957 -3.84637 3.5
    endloop
  endfacet
  facet normal 0 0 -1
    outer loop
      vertex 86.9006 -7.52463 0
      vertex 88.0957 -3.84637 0
      vertex 91.4683 -9.55831 0
    endloop
  endfacet
  facet normal -0.951059 0.309008 0
    outer loop
      vertex 86.9006 -7.52463 0
      vertex 88.0957 -3.84637 3.5
      vertex 88.0957 -3.84637 0
    endloop
  endfacet
  facet normal 0 0 -1
    outer loop
      vertex 86.9006 -7.52463 0
      vertex 91.4683 -9.55831 0
      vertex 89.0119 -13.813 0
    endloop
  endfacet
  facet normal -0.951059 -0.309008 0
    outer loop
      vertex 86.9006 7.52463 0
      vertex 88.0957 3.84637 0
      vertex 86.9006 7.52463 3.5
    endloop
  endfacet
  facet normal -0 0 -1
    outer loop
      vertex 86.9006 7.52463 0
      vertex 89.0119 13.813 0
      vertex 91.4683 9.55831 0
    endloop
  endfacet
  facet normal 0 0 -1
    outer loop
      vertex 86.9006 7.52463 0
      vertex 91.4683 9.55831 0
      vertex 88.0957 3.84637 0
    endloop
  endfacet
  facet normal -0.951059 -0.309008 0
    outer loop
      vertex 86.9006 7.52463 3.5
      vertex 88.0957 3.84637 0
      vertex 88.0957 3.84637 3.5
    endloop
  endfacet
  facet normal -0.994521 0.104536 0
    outer loop
      vertex 88.0957 -3.84637 0
      vertex 88.0957 -3.84637 3.5
      vertex 88.5 0 3.5
    endloop
  endfacet
  facet normal 0 0 -1
    outer loop
      vertex 88.0957 -3.84637 0
      vertex 88.5 0 0
      vertex 92.9865 -4.88592 0
    endloop
  endfacet
  facet normal -0.994521 0.104536 0
    outer loop
      vertex 88.0957 -3.84637 0
      vertex 88.5 0 3.5
      vertex 88.5 0 0
    endloop
  endfacet
  facet normal 0 0 -1
    outer loop
      vertex 88.0957 -3.84637 0
      vertex 92.9865 -4.88592 0
      vertex 91.4683 -9.55831 0
    endloop
  endfacet
  facet normal -0.994521 -0.104536 0
    outer loop
      vertex 88.0957 3.84637 0
      vertex 88.5 0 0
      vertex 88.0957 3.84637 3.5
    endloop
  endfacet
  facet normal -0 0 -1
    outer loop
      vertex 88.0957 3.84637 0
      vertex 91.4683 9.55831 0
      vertex 92.9865 4.88592 0
    endloop
  endfacet
  facet normal 0 0 -1
    outer loop
      vertex 88.0957 3.84637 0
      vertex 92.9865 4.88592 0
      vertex 88.5 0 0
    endloop
  endfacet
  facet normal -0.994521 -0.104536 0
    outer loop
      vertex 88.0957 3.84637 3.5
      vertex 88.5 0 0
      vertex 88.5 0 3.5
    endloop
  endfacet
  facet normal 0 0 -1
    outer loop
      vertex 88.5 0 0
      vertex 92.9865 4.88592 0
      vertex 93.5 0 0
    endloop
  endfacet
  facet normal 0 0 -1
    outer loop
      vertex 88.5 0 0
      vertex 93.5 0 0
      vertex 92.9865 -4.88592 0
    endloop
  endfacet
  facet normal 0.866029 -0.499993 0
    outer loop
      vertex 89.0119 -13.813 0
      vertex 91.4683 -9.55831 0
      vertex 89.0119 -13.813 15
    endloop
  endfacet
  facet normal 0.866029 -0.499993 0
    outer loop
      vertex 89.0119 -13.813 15
      vertex 91.4683 -9.55831 0
      vertex 91.4683 -9.55831 15
    endloop
  endfacet
  facet normal 0.866029 0.499993 0
    outer loop
      vertex 89.0119 13.813 0
      vertex 89.0119 13.813 15
      vertex 91.4683 9.55831 15
    endloop
  endfacet
  facet normal 0.866029 0.499993 0
    outer loop
      vertex 89.0119 13.813 0
      vertex 91.4683 9.55831 15
      vertex 91.4683 9.55831 0
    endloop
  endfacet
  facet normal 0.951054 -0.309026 0
    outer loop
      vertex 91.4683 -9.55831 0
      vertex 92.9865 -4.88592 0
      vertex 91.4683 -9.55831 15
    endloop
  endfacet
  facet normal 0.951054 -0.309026 0
    outer loop
      vertex 91.4683 -9.55831 15
      vertex 92.9865 -4.88592 0
      vertex 92.9865 -4.88592 15
    endloop
  endfacet
  facet normal 0.951054 0.309026 0
    outer loop
      vertex 91.4683 9.55831 0
      vertex 91.4683 9.55831 15
      vertex 92.9865 4.88592 15
    endloop
  endfacet
  facet normal 0.951054 0.309026 0
    outer loop
      vertex 91.4683 9.55831 0
      vertex 92.9865 4.88592 15
      vertex 92.9865 4.88592 0
    endloop
  endfacet
  facet normal 0.994523 -0.104522 0
    outer loop
      vertex 92.9865 -4.88592 0
      vertex 93.5 0 0
      vertex 92.9865 -4.88592 15
    endloop
  endfacet
  facet normal 0.994523 -0.104522 0
    outer loop
      vertex 92.9865 -4.88592 15
      vertex 93.5 0 0
      vertex 93.5 0 15
    endloop
  endfacet
  facet normal 0.994523 0.104522 0
    outer loop
      vertex 92.9865 4.88592 0
      vertex 92.9865 4.88592 15
      vertex 93.5 0 15
    endloop
  endfacet
  facet normal 0.994523 0.104522 0
    outer loop
      vertex 92.9865 4.88592 0
      vertex 93.5 0 15
      vertex 93.5 0 0
    endloop
  endfacet
endsolid model
