solid model
  facet normal 0 1 0
    outer loop
      vertex -0.141278 -2.24556 0
      vertex -0.141278 -2.24556 11.5
      vertex 0.141278 -2.24556 0
    endloop
  endfacet
  facet normal 0 0 -1
    outer loop
      vertex -0.141278 -2.24556 0
      vertex 0.141278 -2.24556 0
      vertex 0.235464 -3.7426 0
    endloop
  endfacet
  facet normal 0 1 -0
    outer loop
      vertex -0.141278 -2.24556 11.5
      vertex 0.141278 -2.24556 11.5
      vertex 0.141278 -2.24556 0
    endloop
  endfacet
  facet normal -0 0 1
    outer loop
      vertex -0.141278 -2.24556 11.5
      vertex 0.235464 -3.7426 11.5
      vertex 0.141278 -2.24556 11.5
    endloop
  endfacet
  facet normal 0 -1 -0
    outer loop
      vertex -0.141278 2.24556 0
      vertex 0.141278 2.24556 0
      vertex 0.141278 2.24556 11.5
    endloop
  endfacet
  facet normal 0 -1 0
    outer loop
      vertex -0.141278 2.24556 0
      vertex 0.141278 2.24556 11.5
      vertex -0.141278 2.24556 11.5
    endloop
  endfacet
  facet normal 0 0 -1
    outer loop
      vertex -0.141278 2.24556 0
      vertex 0.235464 3.7426 0
      vertex 0.141278 2.24556 0
    endloop
  endfacet
  facet normal 0 0 1
    outer loop
      vertex -0.141278 2.24556 11.5
      vertex 0.141278 2.24556 11.5
      vertex 0.235464 3.7426 11.5
    endloop
  endfacet
  facet normal 0 0 -1
    outer loop
      vertex -0.235464 -3.7426 0
      vertex -0.141278 -2.24556 0
      vertex 0.235464 -3.7426 0
    endloop
  endfacet
  facet normal 0 -1 -0
    outer loop
      vertex -0.235464 -3.7426 0
      vertex 0.235464 -3.7426 0
      vertex 0.235464 -3.7426 11.5
    endloop
  endfacet
  facet normal 0 -1 0
    outer loop
      vertex -0.235464 -3.7426 0
      vertex 0.235464 -3.7426 11.5
      vertex -0.235464 -3.7426 11.5
    endloop
  endfacet
  facet normal 0 0 1
    outer loop
      vertex -0.235464 -3.7426 11.5
      vertex 0.235464 -3.7426 11.5
      vertex -0.141278 -2.24556 11.5
    endloop
  endfacet
  facet normal 0 1 0
    outer loop
      vertex -0.235464 3.7426 0
      vertex -0.235464 3.7426 11.5
      vertex 0.235464 3.7426 0
    endloop
  endfacet
  facet normal 0 0 -1
    outer loop
      vertex -0.235464 3.7426 0
      vertex 0.235464 3.7426 0
      vertex -0.141278 2.24556 0
    endloop
  endfacet
  facet normal -0 0 1
    outer loop
      vertex -0.235464 3.7426 11.5
      vertex -0.141278 2.24556 11.5
      vertex 0.235464 3.7426 11.5
    endloop
  endfacet
  facet normal 0 1 -0
    outer loop
      vertex -0.235464 3.7426 11.5
      vertex 0.235464 3.7426 11.5
      vertex 0.235464 3.7426 0
    endloop
  endfacet
  facet normal 0 0 -1
    outer loop
      vertex -0.421607 -2.21015 0
      vertex -0.141278 -2.24556 0
      vertex -0.235464 -3.7426 0
    endloop
  endfacet
  facet normal 0.125333 0.992115 0
    outer loop
      vertex -0.421607 -2.21015 0
      vertex -0.421607 -2.21015 11.5
      vertex -0.141278 -2.24556 0
    endloop
  endfacet
  facet normal 0.125333 0.992115 -0
    outer loop
      vertex -0.421607 -2.21015 11.5
      vertex -0.141278 -2.24556 11.5
      vertex -0.141278 -2.24556 0
    endloop
  endfacet
  facet normal 0 0 1
    outer loop
      vertex -0.421607 -2.21015 11.5
      vertex -0.235464 -3.7426 11.5
      vertex -0.141278 -2.24556 11.5
    endloop
  endfacet
  facet normal 0.125333 -0.992115 0
    outer loop
      vertex -0.421607 2.21015 0
      vertex -0.141278 2.24556 0
      vertex -0.141278 2.24556 11.5
    endloop
  endfacet
  facet normal 0.125333 -0.992115 0
    outer loop
      vertex -0.421607 2.21015 0
      vertex -0.141278 2.24556 11.5
      vertex -0.421607 2.21015 11.5
    endloop
  endfacet
  facet normal 0 0 -1
    outer loop
      vertex -0.421607 2.21015 0
      vertex -0.235464 3.7426 0
      vertex -0.141278 2.24556 0
    endloop
  endfacet
  facet normal 0 0 1
    outer loop
      vertex -0.421607 2.21015 11.5
      vertex -0.141278 2.24556 11.5
      vertex -0.235464 3.7426 11.5
    endloop
  endfacet
  facet normal 0.248691 0.968583 0
    outer loop
      vertex -0.695288 -2.13988 0
      vertex -0.695288 -2.13988 11.5
      vertex -0.421607 -2.21015 0
    endloop
  endfacet
  facet normal 0.248691 0.968583 -0
    outer loop
      vertex -0.695288 -2.13988 11.5
      vertex -0.421607 -2.21015 11.5
      vertex -0.421607 -2.21015 0
    endloop
  endfacet
  facet normal 0.248691 -0.968583 0
    outer loop
      vertex -0.695288 2.13988 0
      vertex -0.421607 2.21015 0
      vertex -0.421607 2.21015 11.5
    endloop
  endfacet
  facet normal 0.248691 -0.968583 0
    outer loop
      vertex -0.695288 2.13988 0
      vertex -0.421607 2.21015 11.5
      vertex -0.695288 2.13988 11.5
    endloop
  endfacet
  facet normal -0.125333 -0.992115 -0
    outer loop
      vertex -0.70268 -3.68358 0
      vertex -0.235464 -3.7426 0
      vertex -0.235464 -3.7426 11.5
    endloop
  endfacet
  facet normal -0.125333 -0.992115 0
    outer loop
      vertex -0.70268 -3.68358 0
      vertex -0.235464 -3.7426 11.5
      vertex -0.70268 -3.68358 11.5
    endloop
  endfacet
  facet normal 0 0 -1
    outer loop
      vertex -0.70268 -3.68358 0
      vertex -0.421607 -2.21015 0
      vertex -0.235464 -3.7426 0
    endloop
  endfacet
  facet normal -0 0 -1
    outer loop
      vertex -0.70268 -3.68358 0
      vertex -0.695288 -2.13988 0
      vertex -0.421607 -2.21015 0
    endloop
  endfacet
  facet normal 0 0 1
    outer loop
      vertex -0.70268 -3.68358 11.5
      vertex -0.235464 -3.7426 11.5
      vertex -0.421607 -2.21015 11.5
    endloop
  endfacet
  facet normal 0 0 1
    outer loop
      vertex -0.70268 -3.68358 11.5
      vertex -0.421607 -2.21015 11.5
      vertex -0.695288 -2.13988 11.5
    endloop
  endfacet
  facet normal 0 0 -1
    outer loop
      vertex -0.70268 3.68358 0
      vertex -0.235464 3.7426 0
      vertex -0.421607 2.21015 0
    endloop
  endfacet
  facet normal 0 0 -1
    outer loop
      vertex -0.70268 3.68358 0
      vertex -0.421607 2.21015 0
      vertex -0.695288 2.13988 0
    endloop
  endfacet
  facet normal -0.125333 0.992115 0
    outer loop
      vertex -0.70268 3.68358 0
      vertex -0.70268 3.68358 11.5
      vertex -0.235464 3.7426 0
    endloop
  endfacet
  facet normal -0.125333 0.992115 0
    outer loop
      vertex -0.70268 3.68358 11.5
      vertex -0.235464 3.7426 11.5
      vertex -0.235464 3.7426 0
    endloop
  endfacet
  facet normal -0 0 1
    outer loop
      vertex -0.70268 3.68358 11.5
      vertex -0.421607 2.21015 11.5
      vertex -0.235464 3.7426 11.5
    endloop
  endfacet
  facet normal 0 0 1
    outer loop
      vertex -0.70268 3.68358 11.5
      vertex -0.695288 2.13988 11.5
      vertex -0.421607 2.21015 11.5
    endloop
  endfacet
  facet normal 0.368124 0.929777 0
    outer loop
      vertex -0.958003 -2.03586 0
      vertex -0.958003 -2.03586 11.5
      vertex -0.695288 -2.13988 0
    endloop
  endfacet
  facet normal 0.368124 0.929777 -0
    outer loop
      vertex -0.958003 -2.03586 11.5
      vertex -0.695288 -2.13988 11.5
      vertex -0.695288 -2.13988 0
    endloop
  endfacet
  facet normal 0.368124 -0.929777 0
    outer loop
      vertex -0.958003 2.03586 0
      vertex -0.695288 2.13988 0
      vertex -0.695288 2.13988 11.5
    endloop
  endfacet
  facet normal 0.368124 -0.929777 0
    outer loop
      vertex -0.958003 2.03586 0
      vertex -0.695288 2.13988 11.5
      vertex -0.958003 2.03586 11.5
    endloop
  endfacet
  facet normal 0 0 -1
    outer loop
      vertex -1.15881 -3.56646 0
      vertex -0.695288 -2.13988 0
      vertex -0.70268 -3.68358 0
    endloop
  endfacet
  facet normal -0.248689 -0.968583 -0
    outer loop
      vertex -1.15881 -3.56646 0
      vertex -0.70268 -3.68358 0
      vertex -0.70268 -3.68358 11.5
    endloop
  endfacet
  facet normal -0.248689 -0.968583 0
    outer loop
      vertex -1.15881 -3.56646 0
      vertex -0.70268 -3.68358 11.5
      vertex -1.15881 -3.56646 11.5
    endloop
  endfacet
  facet normal -0 0 -1
    outer loop
      vertex -1.15881 -3.56646 0
      vertex -0.958003 -2.03586 0
      vertex -0.695288 -2.13988 0
    endloop
  endfacet
  facet normal 0 0 1
    outer loop
      vertex -1.15881 -3.56646 11.5
      vertex -0.695288 -2.13988 11.5
      vertex -0.958003 -2.03586 11.5
    endloop
  endfacet
  facet normal 0 0 1
    outer loop
      vertex -1.15881 -3.56646 11.5
      vertex -0.70268 -3.68358 11.5
      vertex -0.695288 -2.13988 11.5
    endloop
  endfacet
  facet normal 0 0 -1
    outer loop
      vertex -1.15881 3.56646 0
      vertex -0.695288 2.13988 0
      vertex -0.958003 2.03586 0
    endloop
  endfacet
  facet normal 0 0 -1
    outer loop
      vertex -1.15881 3.56646 0
      vertex -0.70268 3.68358 0
      vertex -0.695288 2.13988 0
    endloop
  endfacet
  facet normal -0.248689 0.968583 0
    outer loop
      vertex -1.15881 3.56646 0
      vertex -1.15881 3.56646 11.5
      vertex -0.70268 3.68358 0
    endloop
  endfacet
  facet normal -0 0 1
    outer loop
      vertex -1.15881 3.56646 11.5
      vertex -0.695288 2.13988 11.5
      vertex -0.70268 3.68358 11.5
    endloop
  endfacet
  facet normal -0.248689 0.968583 0
    outer loop
      vertex -1.15881 3.56646 11.5
      vertex -0.70268 3.68358 11.5
      vertex -0.70268 3.68358 0
    endloop
  endfacet
  facet normal 0 0 1
    outer loop
      vertex -1.15881 3.56646 11.5
      vertex -0.958003 2.03586 11.5
      vertex -0.695288 2.13988 11.5
    endloop
  endfacet
  facet normal 0.481752 0.876307 0
    outer loop
      vertex -1.20561 -1.89974 0
      vertex -1.20561 -1.89974 11.5
      vertex -0.958003 -2.03586 0
    endloop
  endfacet
  facet normal 0.481752 0.876307 -0
    outer loop
      vertex -1.20561 -1.89974 11.5
      vertex -0.958003 -2.03586 11.5
      vertex -0.958003 -2.03586 0
    endloop
  endfacet
  facet normal 0.481752 -0.876307 0
    outer loop
      vertex -1.20561 1.89974 0
      vertex -0.958003 2.03586 0
      vertex -0.958003 2.03586 11.5
    endloop
  endfacet
  facet normal 0.481752 -0.876307 0
    outer loop
      vertex -1.20561 1.89974 0
      vertex -0.958003 2.03586 11.5
      vertex -1.20561 1.89974 11.5
    endloop
  endfacet
  facet normal 0.587787 0.809015 0
    outer loop
      vertex -1.4342 -1.73365 0
      vertex -1.4342 -1.73365 11.5
      vertex -1.20561 -1.89974 0
    endloop
  endfacet
  facet normal 0.587787 0.809015 -0
    outer loop
      vertex -1.4342 -1.73365 11.5
      vertex -1.20561 -1.89974 11.5
      vertex -1.20561 -1.89974 0
    endloop
  endfacet
  facet normal 0.587787 -0.809015 0
    outer loop
      vertex -1.4342 1.73365 0
      vertex -1.20561 1.89974 0
      vertex -1.20561 1.89974 11.5
    endloop
  endfacet
  facet normal 0.587787 -0.809015 0
    outer loop
      vertex -1.4342 1.73365 0
      vertex -1.20561 1.89974 11.5
      vertex -1.4342 1.73365 11.5
    endloop
  endfacet
  facet normal 0 0 -1
    outer loop
      vertex -1.59667 -3.3931 0
      vertex -0.958003 -2.03586 0
      vertex -1.15881 -3.56646 0
    endloop
  endfacet
  facet normal -0.368125 -0.929776 -0
    outer loop
      vertex -1.59667 -3.3931 0
      vertex -1.15881 -3.56646 0
      vertex -1.15881 -3.56646 11.5
    endloop
  endfacet
  facet normal -0.368125 -0.929776 0
    outer loop
      vertex -1.59667 -3.3931 0
      vertex -1.15881 -3.56646 11.5
      vertex -1.59667 -3.3931 11.5
    endloop
  endfacet
  facet normal -0 0 -1
    outer loop
      vertex -1.59667 -3.3931 0
      vertex -1.20561 -1.89974 0
      vertex -0.958003 -2.03586 0
    endloop
  endfacet
  facet normal 0 0 1
    outer loop
      vertex -1.59667 -3.3931 11.5
      vertex -0.958003 -2.03586 11.5
      vertex -1.20561 -1.89974 11.5
    endloop
  endfacet
  facet normal 0 0 1
    outer loop
      vertex -1.59667 -3.3931 11.5
      vertex -1.15881 -3.56646 11.5
      vertex -0.958003 -2.03586 11.5
    endloop
  endfacet
  facet normal 0 0 -1
    outer loop
      vertex -1.59667 3.3931 0
      vertex -0.958003 2.03586 0
      vertex -1.20561 1.89974 0
    endloop
  endfacet
  facet normal 0 0 -1
    outer loop
      vertex -1.59667 3.3931 0
      vertex -1.15881 3.56646 0
      vertex -0.958003 2.03586 0
    endloop
  endfacet
  facet normal -0.368125 0.929776 0
    outer loop
      vertex -1.59667 3.3931 0
      vertex -1.59667 3.3931 11.5
      vertex -1.15881 3.56646 0
    endloop
  endfacet
  facet normal -0 0 1
    outer loop
      vertex -1.59667 3.3931 11.5
      vertex -0.958003 2.03586 11.5
      vertex -1.15881 3.56646 11.5
    endloop
  endfacet
  facet normal -0.368125 0.929776 0
    outer loop
      vertex -1.59667 3.3931 11.5
      vertex -1.15881 3.56646 11.5
      vertex -1.15881 3.56646 0
    endloop
  endfacet
  facet normal 0 0 1
    outer loop
      vertex -1.59667 3.3931 11.5
      vertex -1.20561 1.89974 11.5
      vertex -0.958003 2.03586 11.5
    endloop
  endfacet
  facet normal 0.684546 0.72897 0
    outer loop
      vertex -1.64018 -1.54023 0
      vertex -1.64018 -1.54023 11.5
      vertex -1.4342 -1.73365 0
    endloop
  endfacet
  facet normal 0.684546 0.72897 -0
    outer loop
      vertex -1.64018 -1.54023 11.5
      vertex -1.4342 -1.73365 11.5
      vertex -1.4342 -1.73365 0
    endloop
  endfacet
  facet normal 0.684546 -0.72897 0
    outer loop
      vertex -1.64018 1.54023 0
      vertex -1.4342 1.73365 0
      vertex -1.4342 1.73365 11.5
    endloop
  endfacet
  facet normal 0.684546 -0.72897 0
    outer loop
      vertex -1.64018 1.54023 0
      vertex -1.4342 1.73365 11.5
      vertex -1.64018 1.54023 11.5
    endloop
  endfacet
  facet normal 0.770513 0.637424 0
    outer loop
      vertex -1.82029 -1.32252 0
      vertex -1.64018 -1.54023 11.5
      vertex -1.64018 -1.54023 0
    endloop
  endfacet
  facet normal 0.770513 0.637424 0
    outer loop
      vertex -1.82029 -1.32252 0
      vertex -1.82029 -1.32252 11.5
      vertex -1.64018 -1.54023 11.5
    endloop
  endfacet
  facet normal 0.770513 -0.637424 0
    outer loop
      vertex -1.82029 1.32252 0
      vertex -1.64018 1.54023 0
      vertex -1.82029 1.32252 11.5
    endloop
  endfacet
  facet normal 0.770513 -0.637424 0
    outer loop
      vertex -1.82029 1.32252 11.5
      vertex -1.64018 1.54023 0
      vertex -1.64018 1.54023 11.5
    endloop
  endfacet
  facet normal 0.844328 0.535826 0
    outer loop
      vertex -1.97169 -1.08395 0
      vertex -1.82029 -1.32252 11.5
      vertex -1.82029 -1.32252 0
    endloop
  endfacet
  facet normal 0.844328 0.535826 0
    outer loop
      vertex -1.97169 -1.08395 0
      vertex -1.97169 -1.08395 11.5
      vertex -1.82029 -1.32252 11.5
    endloop
  endfacet
  facet normal 0.844328 -0.535826 0
    outer loop
      vertex -1.97169 1.08395 0
      vertex -1.82029 1.32252 0
      vertex -1.97169 1.08395 11.5
    endloop
  endfacet
  facet normal 0.844328 -0.535826 0
    outer loop
      vertex -1.97169 1.08395 11.5
      vertex -1.82029 1.32252 0
      vertex -1.82029 1.32252 11.5
    endloop
  endfacet
  facet normal 0 0 -1
    outer loop
      vertex -2.00935 -3.16623 0
      vertex -1.20561 -1.89974 0
      vertex -1.59667 -3.3931 0
    endloop
  endfacet
  facet normal -0 0 -1
    outer loop
      vertex -2.00935 -3.16623 0
      vertex -1.4342 -1.73365 0
      vertex -1.20561 -1.89974 0
    endloop
  endfacet
  facet normal -0.481754 -0.876307 -0
    outer loop
      vertex -2.00935 -3.16623 0
      vertex -1.59667 -3.3931 0
      vertex -1.59667 -3.3931 11.5
    endloop
  endfacet
  facet normal -0.481754 -0.876307 0
    outer loop
      vertex -2.00935 -3.16623 0
      vertex -1.59667 -3.3931 11.5
      vertex -2.00935 -3.16623 11.5
    endloop
  endfacet
  facet normal 0 0 1
    outer loop
      vertex -2.00935 -3.16623 11.5
      vertex -1.20561 -1.89974 11.5
      vertex -1.4342 -1.73365 11.5
    endloop
  endfacet
  facet normal 0 0 1
    outer loop
      vertex -2.00935 -3.16623 11.5
      vertex -1.59667 -3.3931 11.5
      vertex -1.20561 -1.89974 11.5
    endloop
  endfacet
  facet normal 0 0 -1
    outer loop
      vertex -2.00935 3.16623 0
      vertex -1.20561 1.89974 0
      vertex -1.4342 1.73365 0
    endloop
  endfacet
  facet normal 0 0 -1
    outer loop
      vertex -2.00935 3.16623 0
      vertex -1.59667 3.3931 0
      vertex -1.20561 1.89974 0
    endloop
  endfacet
  facet normal -0.481754 0.876307 0
    outer loop
      vertex -2.00935 3.16623 0
      vertex -2.00935 3.16623 11.5
      vertex -1.59667 3.3931 0
    endloop
  endfacet
  facet normal -0 0 1
    outer loop
      vertex -2.00935 3.16623 11.5
      vertex -1.20561 1.89974 11.5
      vertex -1.59667 3.3931 11.5
    endloop
  endfacet
  facet normal 0 0 1
    outer loop
      vertex -2.00935 3.16623 11.5
      vertex -1.4342 1.73365 11.5
      vertex -1.20561 1.89974 11.5
    endloop
  endfacet
  facet normal -0.481754 0.876307 0
    outer loop
      vertex -2.00935 3.16623 11.5
      vertex -1.59667 3.3931 11.5
      vertex -1.59667 3.3931 0
    endloop
  endfacet
  facet normal 0.904827 0.425779 0
    outer loop
      vertex -2.092 -0.828279 0
      vertex -1.97169 -1.08395 11.5
      vertex -1.97169 -1.08395 0
    endloop
  endfacet
  facet normal 0.904827 0.425779 0
    outer loop
      vertex -2.092 -0.828279 0
      vertex -2.092 -0.828279 11.5
      vertex -1.97169 -1.08395 11.5
    endloop
  endfacet
  facet normal 0.904827 -0.425779 0
    outer loop
      vertex -2.092 0.828279 0
      vertex -1.97169 1.08395 0
      vertex -2.092 0.828279 11.5
    endloop
  endfacet
  facet normal 0.904827 -0.425779 0
    outer loop
      vertex -2.092 0.828279 11.5
      vertex -1.97169 1.08395 0
      vertex -1.97169 1.08395 11.5
    endloop
  endfacet
  facet normal 0.951056 0.309019 0
    outer loop
      vertex -2.17931 -0.559552 0
      vertex -2.092 -0.828279 11.5
      vertex -2.092 -0.828279 0
    endloop
  endfacet
  facet normal 0.951056 0.309019 0
    outer loop
      vertex -2.17931 -0.559552 0
      vertex -2.17931 -0.559552 11.5
      vertex -2.092 -0.828279 11.5
    endloop
  endfacet
  facet normal 0.951056 -0.309019 0
    outer loop
      vertex -2.17931 0.559552 0
      vertex -2.092 0.828279 0
      vertex -2.17931 0.559552 11.5
    endloop
  endfacet
  facet normal 0.951056 -0.309019 0
    outer loop
      vertex -2.17931 0.559552 11.5
      vertex -2.092 0.828279 0
      vertex -2.092 0.828279 11.5
    endloop
  endfacet
  facet normal 0.982287 0.187382 0
    outer loop
      vertex -2.23226 -0.282 0
      vertex -2.17931 -0.559552 11.5
      vertex -2.17931 -0.559552 0
    endloop
  endfacet
  facet normal 0.982287 0.187382 0
    outer loop
      vertex -2.23226 -0.282 0
      vertex -2.23226 -0.282 11.5
      vertex -2.17931 -0.559552 11.5
    endloop
  endfacet
  facet normal 0.982287 -0.187382 0
    outer loop
      vertex -2.23226 0.282 0
      vertex -2.17931 0.559552 0
      vertex -2.23226 0.282 11.5
    endloop
  endfacet
  facet normal 0.982287 -0.187382 0
    outer loop
      vertex -2.23226 0.282 11.5
      vertex -2.17931 0.559552 0
      vertex -2.17931 0.559552 11.5
    endloop
  endfacet
  facet normal 0.998027 0.0627914 0
    outer loop
      vertex -2.25 0 0
      vertex -2.23226 -0.282 11.5
      vertex -2.23226 -0.282 0
    endloop
  endfacet
  facet normal 0.998027 -0.0627914 0
    outer loop
      vertex -2.25 0 0
      vertex -2.23226 0.282 0
      vertex -2.25 0 11.5
    endloop
  endfacet
  facet normal 0.998027 0.0627914 0
    outer loop
      vertex -2.25 0 0
      vertex -2.25 0 11.5
      vertex -2.23226 -0.282 11.5
    endloop
  endfacet
  facet normal 0.998027 -0.0627914 0
    outer loop
      vertex -2.25 0 11.5
      vertex -2.23226 0.282 0
      vertex -2.23226 0.282 11.5
    endloop
  endfacet
  facet normal 0 0 -1
    outer loop
      vertex -2.39034 -2.88942 0
      vertex -1.4342 -1.73365 0
      vertex -2.00935 -3.16623 0
    endloop
  endfacet
  facet normal -0 0 -1
    outer loop
      vertex -2.39034 -2.88942 0
      vertex -1.64018 -1.54023 0
      vertex -1.4342 -1.73365 0
    endloop
  endfacet
  facet normal -0.587785 -0.809018 -0
    outer loop
      vertex -2.39034 -2.88942 0
      vertex -2.00935 -3.16623 0
      vertex -2.00935 -3.16623 11.5
    endloop
  endfacet
  facet normal -0.587785 -0.809018 0
    outer loop
      vertex -2.39034 -2.88942 0
      vertex -2.00935 -3.16623 11.5
      vertex -2.39034 -2.88942 11.5
    endloop
  endfacet
  facet normal 0 0 1
    outer loop
      vertex -2.39034 -2.88942 11.5
      vertex -1.4342 -1.73365 11.5
      vertex -1.64018 -1.54023 11.5
    endloop
  endfacet
  facet normal 0 0 1
    outer loop
      vertex -2.39034 -2.88942 11.5
      vertex -2.00935 -3.16623 11.5
      vertex -1.4342 -1.73365 11.5
    endloop
  endfacet
  facet normal 0 0 -1
    outer loop
      vertex -2.39034 2.88942 0
      vertex -1.4342 1.73365 0
      vertex -1.64018 1.54023 0
    endloop
  endfacet
  facet normal 0 0 -1
    outer loop
      vertex -2.39034 2.88942 0
      vertex -2.00935 3.16623 0
      vertex -1.4342 1.73365 0
    endloop
  endfacet
  facet normal -0.587785 0.809018 0
    outer loop
      vertex -2.39034 2.88942 0
      vertex -2.39034 2.88942 11.5
      vertex -2.00935 3.16623 0
    endloop
  endfacet
  facet normal -0 0 1
    outer loop
      vertex -2.39034 2.88942 11.5
      vertex -1.4342 1.73365 11.5
      vertex -2.00935 3.16623 11.5
    endloop
  endfacet
  facet normal 0 0 1
    outer loop
      vertex -2.39034 2.88942 11.5
      vertex -1.64018 1.54023 11.5
      vertex -1.4342 1.73365 11.5
    endloop
  endfacet
  facet normal -0.587785 0.809018 0
    outer loop
      vertex -2.39034 2.88942 11.5
      vertex -2.00935 3.16623 11.5
      vertex -2.00935 3.16623 0
    endloop
  endfacet
  facet normal 0 0 -1
    outer loop
      vertex -2.73363 -2.56705 0
      vertex -1.64018 -1.54023 0
      vertex -2.39034 -2.88942 0
    endloop
  endfacet
  facet normal -0 0 -1
    outer loop
      vertex -2.73363 -2.56705 0
      vertex -1.82029 -1.32252 0
      vertex -1.64018 -1.54023 0
    endloop
  endfacet
  facet normal -0.684548 -0.728968 -0
    outer loop
      vertex -2.73363 -2.56705 0
      vertex -2.39034 -2.88942 0
      vertex -2.39034 -2.88942 11.5
    endloop
  endfacet
  facet normal -0.684548 -0.728968 0
    outer loop
      vertex -2.73363 -2.56705 0
      vertex -2.39034 -2.88942 11.5
      vertex -2.73363 -2.56705 11.5
    endloop
  endfacet
  facet normal 0 0 1
    outer loop
      vertex -2.73363 -2.56705 11.5
      vertex -1.64018 -1.54023 11.5
      vertex -1.82029 -1.32252 11.5
    endloop
  endfacet
  facet normal 0 0 1
    outer loop
      vertex -2.73363 -2.56705 11.5
      vertex -2.39034 -2.88942 11.5
      vertex -1.64018 -1.54023 11.5
    endloop
  endfacet
  facet normal 0 0 -1
    outer loop
      vertex -2.73363 2.56705 0
      vertex -1.64018 1.54023 0
      vertex -1.82029 1.32252 0
    endloop
  endfacet
  facet normal 0 0 -1
    outer loop
      vertex -2.73363 2.56705 0
      vertex -2.39034 2.88942 0
      vertex -1.64018 1.54023 0
    endloop
  endfacet
  facet normal -0.684548 0.728968 0
    outer loop
      vertex -2.73363 2.56705 0
      vertex -2.73363 2.56705 11.5
      vertex -2.39034 2.88942 0
    endloop
  endfacet
  facet normal -0 0 1
    outer loop
      vertex -2.73363 2.56705 11.5
      vertex -1.64018 1.54023 11.5
      vertex -2.39034 2.88942 11.5
    endloop
  endfacet
  facet normal 0 0 1
    outer loop
      vertex -2.73363 2.56705 11.5
      vertex -1.82029 1.32252 11.5
      vertex -1.64018 1.54023 11.5
    endloop
  endfacet
  facet normal -0.684548 0.728968 0
    outer loop
      vertex -2.73363 2.56705 11.5
      vertex -2.39034 2.88942 11.5
      vertex -2.39034 2.88942 0
    endloop
  endfacet
  facet normal 0 0 -1
    outer loop
      vertex -3.03381 -2.20419 0
      vertex -1.82029 -1.32252 0
      vertex -2.73363 -2.56705 0
    endloop
  endfacet
  facet normal -0 0 -1
    outer loop
      vertex -3.03381 -2.20419 0
      vertex -1.97169 -1.08395 0
      vertex -1.82029 -1.32252 0
    endloop
  endfacet
  facet normal -0.770513 -0.637424 0
    outer loop
      vertex -3.03381 -2.20419 0
      vertex -2.73363 -2.56705 0
      vertex -3.03381 -2.20419 11.5
    endloop
  endfacet
  facet normal 0 0 1
    outer loop
      vertex -3.03381 -2.20419 11.5
      vertex -1.82029 -1.32252 11.5
      vertex -1.97169 -1.08395 11.5
    endloop
  endfacet
  facet normal -0.770513 -0.637424 0
    outer loop
      vertex -3.03381 -2.20419 11.5
      vertex -2.73363 -2.56705 0
      vertex -2.73363 -2.56705 11.5
    endloop
  endfacet
  facet normal 0 0 1
    outer loop
      vertex -3.03381 -2.20419 11.5
      vertex -2.73363 -2.56705 11.5
      vertex -1.82029 -1.32252 11.5
    endloop
  endfacet
  facet normal 0 0 -1
    outer loop
      vertex -3.03381 2.20419 0
      vertex -1.82029 1.32252 0
      vertex -1.97169 1.08395 0
    endloop
  endfacet
  facet normal 0 0 -1
    outer loop
      vertex -3.03381 2.20419 0
      vertex -2.73363 2.56705 0
      vertex -1.82029 1.32252 0
    endloop
  endfacet
  facet normal -0.770513 0.637424 0
    outer loop
      vertex -3.03381 2.20419 0
      vertex -2.73363 2.56705 11.5
      vertex -2.73363 2.56705 0
    endloop
  endfacet
  facet normal -0.770513 0.637424 0
    outer loop
      vertex -3.03381 2.20419 0
      vertex -3.03381 2.20419 11.5
      vertex -2.73363 2.56705 11.5
    endloop
  endfacet
  facet normal -0 0 1
    outer loop
      vertex -3.03381 2.20419 11.5
      vertex -1.82029 1.32252 11.5
      vertex -2.73363 2.56705 11.5
    endloop
  endfacet
  facet normal 0 0 1
    outer loop
      vertex -3.03381 2.20419 11.5
      vertex -1.97169 1.08395 11.5
      vertex -1.82029 1.32252 11.5
    endloop
  endfacet
  facet normal 0 0 -1
    outer loop
      vertex -3.28615 -1.80658 0
      vertex -1.97169 -1.08395 0
      vertex -3.03381 -2.20419 0
    endloop
  endfacet
  facet normal -0 0 -1
    outer loop
      vertex -3.28615 -1.80658 0
      vertex -2.092 -0.828279 0
      vertex -1.97169 -1.08395 0
    endloop
  endfacet
  facet normal -0.844328 -0.535827 0
    outer loop
      vertex -3.28615 -1.80658 0
      vertex -3.03381 -2.20419 0
      vertex -3.28615 -1.80658 11.5
    endloop
  endfacet
  facet normal 0 0 1
    outer loop
      vertex -3.28615 -1.80658 11.5
      vertex -1.97169 -1.08395 11.5
      vertex -2.092 -0.828279 11.5
    endloop
  endfacet
  facet normal -0.844328 -0.535827 0
    outer loop
      vertex -3.28615 -1.80658 11.5
      vertex -3.03381 -2.20419 0
      vertex -3.03381 -2.20419 11.5
    endloop
  endfacet
  facet normal 0 0 1
    outer loop
      vertex -3.28615 -1.80658 11.5
      vertex -3.03381 -2.20419 11.5
      vertex -1.97169 -1.08395 11.5
    endloop
  endfacet
  facet normal 0 0 -1
    outer loop
      vertex -3.28615 1.80658 0
      vertex -1.97169 1.08395 0
      vertex -2.092 0.828279 0
    endloop
  endfacet
  facet normal 0 0 -1
    outer loop
      vertex -3.28615 1.80658 0
      vertex -3.03381 2.20419 0
      vertex -1.97169 1.08395 0
    endloop
  endfacet
  facet normal -0.844328 0.535827 0
    outer loop
      vertex -3.28615 1.80658 0
      vertex -3.03381 2.20419 11.5
      vertex -3.03381 2.20419 0
    endloop
  endfacet
  facet normal -0.844328 0.535827 0
    outer loop
      vertex -3.28615 1.80658 0
      vertex -3.28615 1.80658 11.5
      vertex -3.03381 2.20419 11.5
    endloop
  endfacet
  facet normal -0 0 1
    outer loop
      vertex -3.28615 1.80658 11.5
      vertex -1.97169 1.08395 11.5
      vertex -3.03381 2.20419 11.5
    endloop
  endfacet
  facet normal 0 0 1
    outer loop
      vertex -3.28615 1.80658 11.5
      vertex -2.092 0.828279 11.5
      vertex -1.97169 1.08395 11.5
    endloop
  endfacet
  facet normal 0 0 -1
    outer loop
      vertex -3.48666 -1.38047 0
      vertex -2.092 -0.828279 0
      vertex -3.28615 -1.80658 0
    endloop
  endfacet
  facet normal -0 0 -1
    outer loop
      vertex -3.48666 -1.38047 0
      vertex -2.17931 -0.559552 0
      vertex -2.092 -0.828279 0
    endloop
  endfacet
  facet normal -0.904828 -0.425778 0
    outer loop
      vertex -3.48666 -1.38047 0
      vertex -3.28615 -1.80658 0
      vertex -3.48666 -1.38047 11.5
    endloop
  endfacet
  facet normal 0 0 1
    outer loop
      vertex -3.48666 -1.38047 11.5
      vertex -2.092 -0.828279 11.5
      vertex -2.17931 -0.559552 11.5
    endloop
  endfacet
  facet normal -0.904828 -0.425778 0
    outer loop
      vertex -3.48666 -1.38047 11.5
      vertex -3.28615 -1.80658 0
      vertex -3.28615 -1.80658 11.5
    endloop
  endfacet
  facet normal 0 0 1
    outer loop
      vertex -3.48666 -1.38047 11.5
      vertex -3.28615 -1.80658 11.5
      vertex -2.092 -0.828279 11.5
    endloop
  endfacet
  facet normal 0 0 -1
    outer loop
      vertex -3.48666 1.38047 0
      vertex -2.092 0.828279 0
      vertex -2.17931 0.559552 0
    endloop
  endfacet
  facet normal 0 0 -1
    outer loop
      vertex -3.48666 1.38047 0
      vertex -3.28615 1.80658 0
      vertex -2.092 0.828279 0
    endloop
  endfacet
  facet normal -0.904828 0.425778 0
    outer loop
      vertex -3.48666 1.38047 0
      vertex -3.28615 1.80658 11.5
      vertex -3.28615 1.80658 0
    endloop
  endfacet
  facet normal -0.904828 0.425778 0
    outer loop
      vertex -3.48666 1.38047 0
      vertex -3.48666 1.38047 11.5
      vertex -3.28615 1.80658 11.5
    endloop
  endfacet
  facet normal -0 0 1
    outer loop
      vertex -3.48666 1.38047 11.5
      vertex -2.092 0.828279 11.5
      vertex -3.28615 1.80658 11.5
    endloop
  endfacet
  facet normal 0 0 1
    outer loop
      vertex -3.48666 1.38047 11.5
      vertex -2.17931 0.559552 11.5
      vertex -2.092 0.828279 11.5
    endloop
  endfacet
  facet normal 0 0 -1
    outer loop
      vertex -3.63219 -0.932587 0
      vertex -2.17931 -0.559552 0
      vertex -3.48666 -1.38047 0
    endloop
  endfacet
  facet normal -0 0 -1
    outer loop
      vertex -3.63219 -0.932587 0
      vertex -2.23226 -0.282 0
      vertex -2.17931 -0.559552 0
    endloop
  endfacet
  facet normal -0.951057 -0.309017 0
    outer loop
      vertex -3.63219 -0.932587 0
      vertex -3.48666 -1.38047 0
      vertex -3.63219 -0.932587 11.5
    endloop
  endfacet
  facet normal 0 0 1
    outer loop
      vertex -3.63219 -0.932587 11.5
      vertex -2.17931 -0.559552 11.5
      vertex -2.23226 -0.282 11.5
    endloop
  endfacet
  facet normal -0.951057 -0.309017 0
    outer loop
      vertex -3.63219 -0.932587 11.5
      vertex -3.48666 -1.38047 0
      vertex -3.48666 -1.38047 11.5
    endloop
  endfacet
  facet normal 0 0 1
    outer loop
      vertex -3.63219 -0.932587 11.5
      vertex -3.48666 -1.38047 11.5
      vertex -2.17931 -0.559552 11.5
    endloop
  endfacet
  facet normal 0 0 -1
    outer loop
      vertex -3.63219 0.932587 0
      vertex -2.17931 0.559552 0
      vertex -2.23226 0.282 0
    endloop
  endfacet
  facet normal 0 0 -1
    outer loop
      vertex -3.63219 0.932587 0
      vertex -3.48666 1.38047 0
      vertex -2.17931 0.559552 0
    endloop
  endfacet
  facet normal -0.951057 0.309017 0
    outer loop
      vertex -3.63219 0.932587 0
      vertex -3.48666 1.38047 11.5
      vertex -3.48666 1.38047 0
    endloop
  endfacet
  facet normal -0.951057 0.309017 0
    outer loop
      vertex -3.63219 0.932587 0
      vertex -3.63219 0.932587 11.5
      vertex -3.48666 1.38047 11.5
    endloop
  endfacet
  facet normal -0 0 1
    outer loop
      vertex -3.63219 0.932587 11.5
      vertex -2.17931 0.559552 11.5
      vertex -3.48666 1.38047 11.5
    endloop
  endfacet
  facet normal 0 0 1
    outer loop
      vertex -3.63219 0.932587 11.5
      vertex -2.23226 0.282 11.5
      vertex -2.17931 0.559552 11.5
    endloop
  endfacet
  facet normal 0 0 -1
    outer loop
      vertex -3.72043 -0.469999 0
      vertex -2.23226 -0.282 0
      vertex -3.63219 -0.932587 0
    endloop
  endfacet
  facet normal -0 0 -1
    outer loop
      vertex -3.72043 -0.469999 0
      vertex -2.25 0 0
      vertex -2.23226 -0.282 0
    endloop
  endfacet
  facet normal -0.982287 -0.187382 0
    outer loop
      vertex -3.72043 -0.469999 0
      vertex -3.63219 -0.932587 0
      vertex -3.72043 -0.469999 11.5
    endloop
  endfacet
  facet normal 0 0 1
    outer loop
      vertex -3.72043 -0.469999 11.5
      vertex -2.23226 -0.282 11.5
      vertex -2.25 0 11.5
    endloop
  endfacet
  facet normal -0.982287 -0.187382 0
    outer loop
      vertex -3.72043 -0.469999 11.5
      vertex -3.63219 -0.932587 0
      vertex -3.63219 -0.932587 11.5
    endloop
  endfacet
  facet normal 0 0 1
    outer loop
      vertex -3.72043 -0.469999 11.5
      vertex -3.63219 -0.932587 11.5
      vertex -2.23226 -0.282 11.5
    endloop
  endfacet
  facet normal 0 0 -1
    outer loop
      vertex -3.72043 0.469999 0
      vertex -2.23226 0.282 0
      vertex -2.25 0 0
    endloop
  endfacet
  facet normal 0 0 -1
    outer loop
      vertex -3.72043 0.469999 0
      vertex -3.63219 0.932587 0
      vertex -2.23226 0.282 0
    endloop
  endfacet
  facet normal -0.982287 0.187382 0
    outer loop
      vertex -3.72043 0.469999 0
      vertex -3.63219 0.932587 11.5
      vertex -3.63219 0.932587 0
    endloop
  endfacet
  facet normal -0.982287 0.187382 0
    outer loop
      vertex -3.72043 0.469999 0
      vertex -3.72043 0.469999 11.5
      vertex -3.63219 0.932587 11.5
    endloop
  endfacet
  facet normal -0 0 1
    outer loop
      vertex -3.72043 0.469999 11.5
      vertex -2.23226 0.282 11.5
      vertex -3.63219 0.932587 11.5
    endloop
  endfacet
  facet normal 0 0 1
    outer loop
      vertex -3.72043 0.469999 11.5
      vertex -2.25 0 11.5
      vertex -2.23226 0.282 11.5
    endloop
  endfacet
  facet normal 0 0 -1
    outer loop
      vertex -3.75 0 0
      vertex -2.25 0 0
      vertex -3.72043 -0.469999 0
    endloop
  endfacet
  facet normal -0.998027 -0.0627921 0
    outer loop
      vertex -3.75 0 0
      vertex -3.72043 -0.469999 0
      vertex -3.75 0 11.5
    endloop
  endfacet
  facet normal 0 0 -1
    outer loop
      vertex -3.75 0 0
      vertex -3.72043 0.469999 0
      vertex -2.25 0 0
    endloop
  endfacet
  facet normal -0.998027 0.0627921 0
    outer loop
      vertex -3.75 0 0
      vertex -3.72043 0.469999 11.5
      vertex -3.72043 0.469999 0
    endloop
  endfacet
  facet normal -0.998027 0.0627921 0
    outer loop
      vertex -3.75 0 0
      vertex -3.75 0 11.5
      vertex -3.72043 0.469999 11.5
    endloop
  endfacet
  facet normal 0 0 1
    outer loop
      vertex -3.75 0 11.5
      vertex -2.25 0 11.5
      vertex -3.72043 0.469999 11.5
    endloop
  endfacet
  facet normal -0.998027 -0.0627921 0
    outer loop
      vertex -3.75 0 11.5
      vertex -3.72043 -0.469999 0
      vertex -3.72043 -0.469999 11.5
    endloop
  endfacet
  facet normal 0 0 1
    outer loop
      vertex -3.75 0 11.5
      vertex -3.72043 -0.469999 11.5
      vertex -2.25 0 11.5
    endloop
  endfacet
  facet normal -0.125333 0.992115 0
    outer loop
      vertex 0.141278 -2.24556 0
      vertex 0.141278 -2.24556 11.5
      vertex 0.421607 -2.21015 0
    endloop
  endfacet
  facet normal 0 0 -1
    outer loop
      vertex 0.141278 -2.24556 0
      vertex 0.421607 -2.21015 0
      vertex 0.235464 -3.7426 0
    endloop
  endfacet
  facet normal -0 0 1
    outer loop
      vertex 0.141278 -2.24556 11.5
      vertex 0.235464 -3.7426 11.5
      vertex 0.421607 -2.21015 11.5
    endloop
  endfacet
  facet normal -0.125333 0.992115 0
    outer loop
      vertex 0.141278 -2.24556 11.5
      vertex 0.421607 -2.21015 11.5
      vertex 0.421607 -2.21015 0
    endloop
  endfacet
  facet normal 0 0 -1
    outer loop
      vertex 0.141278 2.24556 0
      vertex 0.235464 3.7426 0
      vertex 0.421607 2.21015 0
    endloop
  endfacet
  facet normal -0.125333 -0.992115 -0
    outer loop
      vertex 0.141278 2.24556 0
      vertex 0.421607 2.21015 0
      vertex 0.421607 2.21015 11.5
    endloop
  endfacet
  facet normal -0.125333 -0.992115 0
    outer loop
      vertex 0.141278 2.24556 0
      vertex 0.421607 2.21015 11.5
      vertex 0.141278 2.24556 11.5
    endloop
  endfacet
  facet normal 0 0 1
    outer loop
      vertex 0.141278 2.24556 11.5
      vertex 0.421607 2.21015 11.5
      vertex 0.235464 3.7426 11.5
    endloop
  endfacet
  facet normal 0 0 -1
    outer loop
      vertex 0.235464 -3.7426 0
      vertex 0.421607 -2.21015 0
      vertex 0.70268 -3.68358 0
    endloop
  endfacet
  facet normal 0.125333 -0.992115 0
    outer loop
      vertex 0.235464 -3.7426 0
      vertex 0.70268 -3.68358 0
      vertex 0.70268 -3.68358 11.5
    endloop
  endfacet
  facet normal 0.125333 -0.992115 0
    outer loop
      vertex 0.235464 -3.7426 0
      vertex 0.70268 -3.68358 11.5
      vertex 0.235464 -3.7426 11.5
    endloop
  endfacet
  facet normal 0 0 1
    outer loop
      vertex 0.235464 -3.7426 11.5
      vertex 0.70268 -3.68358 11.5
      vertex 0.421607 -2.21015 11.5
    endloop
  endfacet
  facet normal 0.125333 0.992115 0
    outer loop
      vertex 0.235464 3.7426 0
      vertex 0.235464 3.7426 11.5
      vertex 0.70268 3.68358 0
    endloop
  endfacet
  facet normal 0 0 -1
    outer loop
      vertex 0.235464 3.7426 0
      vertex 0.70268 3.68358 0
      vertex 0.421607 2.21015 0
    endloop
  endfacet
  facet normal 0 0 1
    outer loop
      vertex 0.235464 3.7426 11.5
      vertex 0.421607 2.21015 11.5
      vertex 0.70268 3.68358 11.5
    endloop
  endfacet
  facet normal 0.125333 0.992115 -0
    outer loop
      vertex 0.235464 3.7426 11.5
      vertex 0.70268 3.68358 11.5
      vertex 0.70268 3.68358 0
    endloop
  endfacet
  facet normal -0.248691 0.968583 0
    outer loop
      vertex 0.421607 -2.21015 0
      vertex 0.421607 -2.21015 11.5
      vertex 0.695288 -2.13988 0
    endloop
  endfacet
  facet normal 0 0 -1
    outer loop
      vertex 0.421607 -2.21015 0
      vertex 0.695288 -2.13988 0
      vertex 0.70268 -3.68358 0
    endloop
  endfacet
  facet normal -0.248691 0.968583 0
    outer loop
      vertex 0.421607 -2.21015 11.5
      vertex 0.695288 -2.13988 11.5
      vertex 0.695288 -2.13988 0
    endloop
  endfacet
  facet normal -0 0 1
    outer loop
      vertex 0.421607 -2.21015 11.5
      vertex 0.70268 -3.68358 11.5
      vertex 0.695288 -2.13988 11.5
    endloop
  endfacet
  facet normal -0.248691 -0.968583 -0
    outer loop
      vertex 0.421607 2.21015 0
      vertex 0.695288 2.13988 0
      vertex 0.695288 2.13988 11.5
    endloop
  endfacet
  facet normal -0.248691 -0.968583 0
    outer loop
      vertex 0.421607 2.21015 0
      vertex 0.695288 2.13988 11.5
      vertex 0.421607 2.21015 11.5
    endloop
  endfacet
  facet normal 0 0 -1
    outer loop
      vertex 0.421607 2.21015 0
      vertex 0.70268 3.68358 0
      vertex 0.695288 2.13988 0
    endloop
  endfacet
  facet normal 0 0 1
    outer loop
      vertex 0.421607 2.21015 11.5
      vertex 0.695288 2.13988 11.5
      vertex 0.70268 3.68358 11.5
    endloop
  endfacet
  facet normal -0.368124 0.929777 0
    outer loop
      vertex 0.695288 -2.13988 0
      vertex 0.695288 -2.13988 11.5
      vertex 0.958003 -2.03586 0
    endloop
  endfacet
  facet normal 0 0 -1
    outer loop
      vertex 0.695288 -2.13988 0
      vertex 0.958003 -2.03586 0
      vertex 1.15881 -3.56646 0
    endloop
  endfacet
  facet normal 0 0 -1
    outer loop
      vertex 0.695288 -2.13988 0
      vertex 1.15881 -3.56646 0
      vertex 0.70268 -3.68358 0
    endloop
  endfacet
  facet normal 0 0 1
    outer loop
      vertex 0.695288 -2.13988 11.5
      vertex 0.70268 -3.68358 11.5
      vertex 1.15881 -3.56646 11.5
    endloop
  endfacet
  facet normal -0.368124 0.929777 0
    outer loop
      vertex 0.695288 -2.13988 11.5
      vertex 0.958003 -2.03586 11.5
      vertex 0.958003 -2.03586 0
    endloop
  endfacet
  facet normal -0 0 1
    outer loop
      vertex 0.695288 -2.13988 11.5
      vertex 1.15881 -3.56646 11.5
      vertex 0.958003 -2.03586 11.5
    endloop
  endfacet
  facet normal -0 0 -1
    outer loop
      vertex 0.695288 2.13988 0
      vertex 0.70268 3.68358 0
      vertex 1.15881 3.56646 0
    endloop
  endfacet
  facet normal -0.368124 -0.929777 -0
    outer loop
      vertex 0.695288 2.13988 0
      vertex 0.958003 2.03586 0
      vertex 0.958003 2.03586 11.5
    endloop
  endfacet
  facet normal -0.368124 -0.929777 0
    outer loop
      vertex 0.695288 2.13988 0
      vertex 0.958003 2.03586 11.5
      vertex 0.695288 2.13988 11.5
    endloop
  endfacet
  facet normal 0 0 -1
    outer loop
      vertex 0.695288 2.13988 0
      vertex 1.15881 3.56646 0
      vertex 0.958003 2.03586 0
    endloop
  endfacet
  facet normal 0 0 1
    outer loop
      vertex 0.695288 2.13988 11.5
      vertex 0.958003 2.03586 11.5
      vertex 1.15881 3.56646 11.5
    endloop
  endfacet
  facet normal 0 0 1
    outer loop
      vertex 0.695288 2.13988 11.5
      vertex 1.15881 3.56646 11.5
      vertex 0.70268 3.68358 11.5
    endloop
  endfacet
  facet normal 0.248689 -0.968583 0
    outer loop
      vertex 0.70268 -3.68358 0
      vertex 1.15881 -3.56646 0
      vertex 1.15881 -3.56646 11.5
    endloop
  endfacet
  facet normal 0.248689 -0.968583 0
    outer loop
      vertex 0.70268 -3.68358 0
      vertex 1.15881 -3.56646 11.5
      vertex 0.70268 -3.68358 11.5
    endloop
  endfacet
  facet normal 0.248689 0.968583 0
    outer loop
      vertex 0.70268 3.68358 0
      vertex 0.70268 3.68358 11.5
      vertex 1.15881 3.56646 0
    endloop
  endfacet
  facet normal 0.248689 0.968583 -0
    outer loop
      vertex 0.70268 3.68358 11.5
      vertex 1.15881 3.56646 11.5
      vertex 1.15881 3.56646 0
    endloop
  endfacet
  facet normal -0.481752 0.876307 0
    outer loop
      vertex 0.958003 -2.03586 0
      vertex 0.958003 -2.03586 11.5
      vertex 1.20561 -1.89974 0
    endloop
  endfacet
  facet normal 0 0 -1
    outer loop
      vertex 0.958003 -2.03586 0
      vertex 1.20561 -1.89974 0
      vertex 1.59667 -3.3931 0
    endloop
  endfacet
  facet normal 0 0 -1
    outer loop
      vertex 0.958003 -2.03586 0
      vertex 1.59667 -3.3931 0
      vertex 1.15881 -3.56646 0
    endloop
  endfacet
  facet normal 0 0 1
    outer loop
      vertex 0.958003 -2.03586 11.5
      vertex 1.15881 -3.56646 11.5
      vertex 1.59667 -3.3931 11.5
    endloop
  endfacet
  facet normal -0.481752 0.876307 0
    outer loop
      vertex 0.958003 -2.03586 11.5
      vertex 1.20561 -1.89974 11.5
      vertex 1.20561 -1.89974 0
    endloop
  endfacet
  facet normal -0 0 1
    outer loop
      vertex 0.958003 -2.03586 11.5
      vertex 1.59667 -3.3931 11.5
      vertex 1.20561 -1.89974 11.5
    endloop
  endfacet
  facet normal -0 0 -1
    outer loop
      vertex 0.958003 2.03586 0
      vertex 1.15881 3.56646 0
      vertex 1.59667 3.3931 0
    endloop
  endfacet
  facet normal -0.481752 -0.876307 -0
    outer loop
      vertex 0.958003 2.03586 0
      vertex 1.20561 1.89974 0
      vertex 1.20561 1.89974 11.5
    endloop
  endfacet
  facet normal -0.481752 -0.876307 0
    outer loop
      vertex 0.958003 2.03586 0
      vertex 1.20561 1.89974 11.5
      vertex 0.958003 2.03586 11.5
    endloop
  endfacet
  facet normal 0 0 -1
    outer loop
      vertex 0.958003 2.03586 0
      vertex 1.59667 3.3931 0
      vertex 1.20561 1.89974 0
    endloop
  endfacet
  facet normal 0 0 1
    outer loop
      vertex 0.958003 2.03586 11.5
      vertex 1.20561 1.89974 11.5
      vertex 1.59667 3.3931 11.5
    endloop
  endfacet
  facet normal 0 0 1
    outer loop
      vertex 0.958003 2.03586 11.5
      vertex 1.59667 3.3931 11.5
      vertex 1.15881 3.56646 11.5
    endloop
  endfacet
  facet normal 0.368125 -0.929776 0
    outer loop
      vertex 1.15881 -3.56646 0
      vertex 1.59667 -3.3931 0
      vertex 1.59667 -3.3931 11.5
    endloop
  endfacet
  facet normal 0.368125 -0.929776 0
    outer loop
      vertex 1.15881 -3.56646 0
      vertex 1.59667 -3.3931 11.5
      vertex 1.15881 -3.56646 11.5
    endloop
  endfacet
  facet normal 0.368125 0.929776 0
    outer loop
      vertex 1.15881 3.56646 0
      vertex 1.15881 3.56646 11.5
      vertex 1.59667 3.3931 0
    endloop
  endfacet
  facet normal 0.368125 0.929776 -0
    outer loop
      vertex 1.15881 3.56646 11.5
      vertex 1.59667 3.3931 11.5
      vertex 1.59667 3.3931 0
    endloop
  endfacet
  facet normal -0.587787 0.809015 0
    outer loop
      vertex 1.20561 -1.89974 0
      vertex 1.20561 -1.89974 11.5
      vertex 1.4342 -1.73365 0
    endloop
  endfacet
  facet normal 0 0 -1
    outer loop
      vertex 1.20561 -1.89974 0
      vertex 1.4342 -1.73365 0
      vertex 2.00935 -3.16623 0
    endloop
  endfacet
  facet normal 0 0 -1
    outer loop
      vertex 1.20561 -1.89974 0
      vertex 2.00935 -3.16623 0
      vertex 1.59667 -3.3931 0
    endloop
  endfacet
  facet normal -0.587787 0.809015 0
    outer loop
      vertex 1.20561 -1.89974 11.5
      vertex 1.4342 -1.73365 11.5
      vertex 1.4342 -1.73365 0
    endloop
  endfacet
  facet normal 0 0 1
    outer loop
      vertex 1.20561 -1.89974 11.5
      vertex 1.59667 -3.3931 11.5
      vertex 2.00935 -3.16623 11.5
    endloop
  endfacet
  facet normal -0 0 1
    outer loop
      vertex 1.20561 -1.89974 11.5
      vertex 2.00935 -3.16623 11.5
      vertex 1.4342 -1.73365 11.5
    endloop
  endfacet
  facet normal -0.587787 -0.809015 -0
    outer loop
      vertex 1.20561 1.89974 0
      vertex 1.4342 1.73365 0
      vertex 1.4342 1.73365 11.5
    endloop
  endfacet
  facet normal -0.587787 -0.809015 0
    outer loop
      vertex 1.20561 1.89974 0
      vertex 1.4342 1.73365 11.5
      vertex 1.20561 1.89974 11.5
    endloop
  endfacet
  facet normal -0 0 -1
    outer loop
      vertex 1.20561 1.89974 0
      vertex 1.59667 3.3931 0
      vertex 2.00935 3.16623 0
    endloop
  endfacet
  facet normal 0 0 -1
    outer loop
      vertex 1.20561 1.89974 0
      vertex 2.00935 3.16623 0
      vertex 1.4342 1.73365 0
    endloop
  endfacet
  facet normal 0 0 1
    outer loop
      vertex 1.20561 1.89974 11.5
      vertex 1.4342 1.73365 11.5
      vertex 2.00935 3.16623 11.5
    endloop
  endfacet
  facet normal 0 0 1
    outer loop
      vertex 1.20561 1.89974 11.5
      vertex 2.00935 3.16623 11.5
      vertex 1.59667 3.3931 11.5
    endloop
  endfacet
  facet normal -0.684546 0.72897 0
    outer loop
      vertex 1.4342 -1.73365 0
      vertex 1.4342 -1.73365 11.5
      vertex 1.64018 -1.54023 0
    endloop
  endfacet
  facet normal 0 0 -1
    outer loop
      vertex 1.4342 -1.73365 0
      vertex 1.64018 -1.54023 0
      vertex 2.39034 -2.88942 0
    endloop
  endfacet
  facet normal 0 0 -1
    outer loop
      vertex 1.4342 -1.73365 0
      vertex 2.39034 -2.88942 0
      vertex 2.00935 -3.16623 0
    endloop
  endfacet
  facet normal -0.684546 0.72897 0
    outer loop
      vertex 1.4342 -1.73365 11.5
      vertex 1.64018 -1.54023 11.5
      vertex 1.64018 -1.54023 0
    endloop
  endfacet
  facet normal 0 0 1
    outer loop
      vertex 1.4342 -1.73365 11.5
      vertex 2.00935 -3.16623 11.5
      vertex 2.39034 -2.88942 11.5
    endloop
  endfacet
  facet normal -0 0 1
    outer loop
      vertex 1.4342 -1.73365 11.5
      vertex 2.39034 -2.88942 11.5
      vertex 1.64018 -1.54023 11.5
    endloop
  endfacet
  facet normal -0.684546 -0.72897 -0
    outer loop
      vertex 1.4342 1.73365 0
      vertex 1.64018 1.54023 0
      vertex 1.64018 1.54023 11.5
    endloop
  endfacet
  facet normal -0.684546 -0.72897 0
    outer loop
      vertex 1.4342 1.73365 0
      vertex 1.64018 1.54023 11.5
      vertex 1.4342 1.73365 11.5
    endloop
  endfacet
  facet normal -0 0 -1
    outer loop
      vertex 1.4342 1.73365 0
      vertex 2.00935 3.16623 0
      vertex 2.39034 2.88942 0
    endloop
  endfacet
  facet normal 0 0 -1
    outer loop
      vertex 1.4342 1.73365 0
      vertex 2.39034 2.88942 0
      vertex 1.64018 1.54023 0
    endloop
  endfacet
  facet normal 0 0 1
    outer loop
      vertex 1.4342 1.73365 11.5
      vertex 1.64018 1.54023 11.5
      vertex 2.39034 2.88942 11.5
    endloop
  endfacet
  facet normal 0 0 1
    outer loop
      vertex 1.4342 1.73365 11.5
      vertex 2.39034 2.88942 11.5
      vertex 2.00935 3.16623 11.5
    endloop
  endfacet
  facet normal 0.481754 -0.876307 0
    outer loop
      vertex 1.59667 -3.3931 0
      vertex 2.00935 -3.16623 0
      vertex 2.00935 -3.16623 11.5
    endloop
  endfacet
  facet normal 0.481754 -0.876307 0
    outer loop
      vertex 1.59667 -3.3931 0
      vertex 2.00935 -3.16623 11.5
      vertex 1.59667 -3.3931 11.5
    endloop
  endfacet
  facet normal 0.481754 0.876307 0
    outer loop
      vertex 1.59667 3.3931 0
      vertex 1.59667 3.3931 11.5
      vertex 2.00935 3.16623 0
    endloop
  endfacet
  facet normal 0.481754 0.876307 -0
    outer loop
      vertex 1.59667 3.3931 11.5
      vertex 2.00935 3.16623 11.5
      vertex 2.00935 3.16623 0
    endloop
  endfacet
  facet normal -0.770513 0.637424 0
    outer loop
      vertex 1.64018 -1.54023 0
      vertex 1.64018 -1.54023 11.5
      vertex 1.82029 -1.32252 11.5
    endloop
  endfacet
  facet normal 0 0 -1
    outer loop
      vertex 1.64018 -1.54023 0
      vertex 1.82029 -1.32252 0
      vertex 2.73363 -2.56705 0
    endloop
  endfacet
  facet normal -0.770513 0.637424 0
    outer loop
      vertex 1.64018 -1.54023 0
      vertex 1.82029 -1.32252 11.5
      vertex 1.82029 -1.32252 0
    endloop
  endfacet
  facet normal 0 0 -1
    outer loop
      vertex 1.64018 -1.54023 0
      vertex 2.73363 -2.56705 0
      vertex 2.39034 -2.88942 0
    endloop
  endfacet
  facet normal 0 0 1
    outer loop
      vertex 1.64018 -1.54023 11.5
      vertex 2.39034 -2.88942 11.5
      vertex 2.73363 -2.56705 11.5
    endloop
  endfacet
  facet normal -0 0 1
    outer loop
      vertex 1.64018 -1.54023 11.5
      vertex 2.73363 -2.56705 11.5
      vertex 1.82029 -1.32252 11.5
    endloop
  endfacet
  facet normal -0.770513 -0.637424 0
    outer loop
      vertex 1.64018 1.54023 0
      vertex 1.82029 1.32252 0
      vertex 1.64018 1.54023 11.5
    endloop
  endfacet
  facet normal -0 0 -1
    outer loop
      vertex 1.64018 1.54023 0
      vertex 2.39034 2.88942 0
      vertex 2.73363 2.56705 0
    endloop
  endfacet
  facet normal 0 0 -1
    outer loop
      vertex 1.64018 1.54023 0
      vertex 2.73363 2.56705 0
      vertex 1.82029 1.32252 0
    endloop
  endfacet
  facet normal -0.770513 -0.637424 0
    outer loop
      vertex 1.64018 1.54023 11.5
      vertex 1.82029 1.32252 0
      vertex 1.82029 1.32252 11.5
    endloop
  endfacet
  facet normal 0 0 1
    outer loop
      vertex 1.64018 1.54023 11.5
      vertex 1.82029 1.32252 11.5
      vertex 2.73363 2.56705 11.5
    endloop
  endfacet
  facet normal 0 0 1
    outer loop
      vertex 1.64018 1.54023 11.5
      vertex 2.73363 2.56705 11.5
      vertex 2.39034 2.88942 11.5
    endloop
  endfacet
  facet normal -0.844328 0.535826 0
    outer loop
      vertex 1.82029 -1.32252 0
      vertex 1.82029 -1.32252 11.5
      vertex 1.97169 -1.08395 11.5
    endloop
  endfacet
  facet normal 0 0 -1
    outer loop
      vertex 1.82029 -1.32252 0
      vertex 1.97169 -1.08395 0
      vertex 3.03381 -2.20419 0
    endloop
  endfacet
  facet normal -0.844328 0.535826 0
    outer loop
      vertex 1.82029 -1.32252 0
      vertex 1.97169 -1.08395 11.5
      vertex 1.97169 -1.08395 0
    endloop
  endfacet
  facet normal 0 0 -1
    outer loop
      vertex 1.82029 -1.32252 0
      vertex 3.03381 -2.20419 0
      vertex 2.73363 -2.56705 0
    endloop
  endfacet
  facet normal 0 0 1
    outer loop
      vertex 1.82029 -1.32252 11.5
      vertex 2.73363 -2.56705 11.5
      vertex 3.03381 -2.20419 11.5
    endloop
  endfacet
  facet normal -0 0 1
    outer loop
      vertex 1.82029 -1.32252 11.5
      vertex 3.03381 -2.20419 11.5
      vertex 1.97169 -1.08395 11.5
    endloop
  endfacet
  facet normal -0.844328 -0.535826 0
    outer loop
      vertex 1.82029 1.32252 0
      vertex 1.97169 1.08395 0
      vertex 1.82029 1.32252 11.5
    endloop
  endfacet
  facet normal -0 0 -1
    outer loop
      vertex 1.82029 1.32252 0
      vertex 2.73363 2.56705 0
      vertex 3.03381 2.20419 0
    endloop
  endfacet
  facet normal 0 0 -1
    outer loop
      vertex 1.82029 1.32252 0
      vertex 3.03381 2.20419 0
      vertex 1.97169 1.08395 0
    endloop
  endfacet
  facet normal -0.844328 -0.535826 0
    outer loop
      vertex 1.82029 1.32252 11.5
      vertex 1.97169 1.08395 0
      vertex 1.97169 1.08395 11.5
    endloop
  endfacet
  facet normal 0 0 1
    outer loop
      vertex 1.82029 1.32252 11.5
      vertex 1.97169 1.08395 11.5
      vertex 3.03381 2.20419 11.5
    endloop
  endfacet
  facet normal 0 0 1
    outer loop
      vertex 1.82029 1.32252 11.5
      vertex 3.03381 2.20419 11.5
      vertex 2.73363 2.56705 11.5
    endloop
  endfacet
  facet normal -0.904827 0.425779 0
    outer loop
      vertex 1.97169 -1.08395 0
      vertex 1.97169 -1.08395 11.5
      vertex 2.092 -0.828279 11.5
    endloop
  endfacet
  facet normal 0 0 -1
    outer loop
      vertex 1.97169 -1.08395 0
      vertex 2.092 -0.828279 0
      vertex 3.28615 -1.80658 0
    endloop
  endfacet
  facet normal -0.904827 0.425779 0
    outer loop
      vertex 1.97169 -1.08395 0
      vertex 2.092 -0.828279 11.5
      vertex 2.092 -0.828279 0
    endloop
  endfacet
  facet normal 0 0 -1
    outer loop
      vertex 1.97169 -1.08395 0
      vertex 3.28615 -1.80658 0
      vertex 3.03381 -2.20419 0
    endloop
  endfacet
  facet normal 0 0 1
    outer loop
      vertex 1.97169 -1.08395 11.5
      vertex 3.03381 -2.20419 11.5
      vertex 3.28615 -1.80658 11.5
    endloop
  endfacet
  facet normal -0 0 1
    outer loop
      vertex 1.97169 -1.08395 11.5
      vertex 3.28615 -1.80658 11.5
      vertex 2.092 -0.828279 11.5
    endloop
  endfacet
  facet normal -0.904827 -0.425779 0
    outer loop
      vertex 1.97169 1.08395 0
      vertex 2.092 0.828279 0
      vertex 1.97169 1.08395 11.5
    endloop
  endfacet
  facet normal -0 0 -1
    outer loop
      vertex 1.97169 1.08395 0
      vertex 3.03381 2.20419 0
      vertex 3.28615 1.80658 0
    endloop
  endfacet
  facet normal 0 0 -1
    outer loop
      vertex 1.97169 1.08395 0
      vertex 3.28615 1.80658 0
      vertex 2.092 0.828279 0
    endloop
  endfacet
  facet normal -0.904827 -0.425779 0
    outer loop
      vertex 1.97169 1.08395 11.5
      vertex 2.092 0.828279 0
      vertex 2.092 0.828279 11.5
    endloop
  endfacet
  facet normal 0 0 1
    outer loop
      vertex 1.97169 1.08395 11.5
      vertex 2.092 0.828279 11.5
      vertex 3.28615 1.80658 11.5
    endloop
  endfacet
  facet normal 0 0 1
    outer loop
      vertex 1.97169 1.08395 11.5
      vertex 3.28615 1.80658 11.5
      vertex 3.03381 2.20419 11.5
    endloop
  endfacet
  facet normal 0.587785 -0.809018 0
    outer loop
      vertex 2.00935 -3.16623 0
      vertex 2.39034 -2.88942 0
      vertex 2.39034 -2.88942 11.5
    endloop
  endfacet
  facet normal 0.587785 -0.809018 0
    outer loop
      vertex 2.00935 -3.16623 0
      vertex 2.39034 -2.88942 11.5
      vertex 2.00935 -3.16623 11.5
    endloop
  endfacet
  facet normal 0.587785 0.809018 0
    outer loop
      vertex 2.00935 3.16623 0
      vertex 2.00935 3.16623 11.5
      vertex 2.39034 2.88942 0
    endloop
  endfacet
  facet normal 0.587785 0.809018 -0
    outer loop
      vertex 2.00935 3.16623 11.5
      vertex 2.39034 2.88942 11.5
      vertex 2.39034 2.88942 0
    endloop
  endfacet
  facet normal -0.951056 0.309019 0
    outer loop
      vertex 2.092 -0.828279 0
      vertex 2.092 -0.828279 11.5
      vertex 2.17931 -0.559552 11.5
    endloop
  endfacet
  facet normal 0 0 -1
    outer loop
      vertex 2.092 -0.828279 0
      vertex 2.17931 -0.559552 0
      vertex 3.48666 -1.38047 0
    endloop
  endfacet
  facet normal -0.951056 0.309019 0
    outer loop
      vertex 2.092 -0.828279 0
      vertex 2.17931 -0.559552 11.5
      vertex 2.17931 -0.559552 0
    endloop
  endfacet
  facet normal 0 0 -1
    outer loop
      vertex 2.092 -0.828279 0
      vertex 3.48666 -1.38047 0
      vertex 3.28615 -1.80658 0
    endloop
  endfacet
  facet normal 0 0 1
    outer loop
      vertex 2.092 -0.828279 11.5
      vertex 3.28615 -1.80658 11.5
      vertex 3.48666 -1.38047 11.5
    endloop
  endfacet
  facet normal -0 0 1
    outer loop
      vertex 2.092 -0.828279 11.5
      vertex 3.48666 -1.38047 11.5
      vertex 2.17931 -0.559552 11.5
    endloop
  endfacet
  facet normal -0.951056 -0.309019 0
    outer loop
      vertex 2.092 0.828279 0
      vertex 2.17931 0.559552 0
      vertex 2.092 0.828279 11.5
    endloop
  endfacet
  facet normal -0 0 -1
    outer loop
      vertex 2.092 0.828279 0
      vertex 3.28615 1.80658 0
      vertex 3.48666 1.38047 0
    endloop
  endfacet
  facet normal 0 0 -1
    outer loop
      vertex 2.092 0.828279 0
      vertex 3.48666 1.38047 0
      vertex 2.17931 0.559552 0
    endloop
  endfacet
  facet normal -0.951056 -0.309019 0
    outer loop
      vertex 2.092 0.828279 11.5
      vertex 2.17931 0.559552 0
      vertex 2.17931 0.559552 11.5
    endloop
  endfacet
  facet normal 0 0 1
    outer loop
      vertex 2.092 0.828279 11.5
      vertex 2.17931 0.559552 11.5
      vertex 3.48666 1.38047 11.5
    endloop
  endfacet
  facet normal 0 0 1
    outer loop
      vertex 2.092 0.828279 11.5
      vertex 3.48666 1.38047 11.5
      vertex 3.28615 1.80658 11.5
    endloop
  endfacet
  facet normal -0.982287 0.187382 0
    outer loop
      vertex 2.17931 -0.559552 0
      vertex 2.17931 -0.559552 11.5
      vertex 2.23226 -0.282 11.5
    endloop
  endfacet
  facet normal 0 0 -1
    outer loop
      vertex 2.17931 -0.559552 0
      vertex 2.23226 -0.282 0
      vertex 3.63219 -0.932587 0
    endloop
  endfacet
  facet normal -0.982287 0.187382 0
    outer loop
      vertex 2.17931 -0.559552 0
      vertex 2.23226 -0.282 11.5
      vertex 2.23226 -0.282 0
    endloop
  endfacet
  facet normal 0 0 -1
    outer loop
      vertex 2.17931 -0.559552 0
      vertex 3.63219 -0.932587 0
      vertex 3.48666 -1.38047 0
    endloop
  endfacet
  facet normal 0 0 1
    outer loop
      vertex 2.17931 -0.559552 11.5
      vertex 3.48666 -1.38047 11.5
      vertex 3.63219 -0.932587 11.5
    endloop
  endfacet
  facet normal -0 0 1
    outer loop
      vertex 2.17931 -0.559552 11.5
      vertex 3.63219 -0.932587 11.5
      vertex 2.23226 -0.282 11.5
    endloop
  endfacet
  facet normal -0.982287 -0.187382 0
    outer loop
      vertex 2.17931 0.559552 0
      vertex 2.23226 0.282 0
      vertex 2.17931 0.559552 11.5
    endloop
  endfacet
  facet normal -0 0 -1
    outer loop
      vertex 2.17931 0.559552 0
      vertex 3.48666 1.38047 0
      vertex 3.63219 0.932587 0
    endloop
  endfacet
  facet normal 0 0 -1
    outer loop
      vertex 2.17931 0.559552 0
      vertex 3.63219 0.932587 0
      vertex 2.23226 0.282 0
    endloop
  endfacet
  facet normal -0.982287 -0.187382 0
    outer loop
      vertex 2.17931 0.559552 11.5
      vertex 2.23226 0.282 0
      vertex 2.23226 0.282 11.5
    endloop
  endfacet
  facet normal 0 0 1
    outer loop
      vertex 2.17931 0.559552 11.5
      vertex 2.23226 0.282 11.5
      vertex 3.63219 0.932587 11.5
    endloop
  endfacet
  facet normal 0 0 1
    outer loop
      vertex 2.17931 0.559552 11.5
      vertex 3.63219 0.932587 11.5
      vertex 3.48666 1.38047 11.5
    endloop
  endfacet
  facet normal -0.998027 0.0627914 0
    outer loop
      vertex 2.23226 -0.282 0
      vertex 2.23226 -0.282 11.5
      vertex 2.25 0 11.5
    endloop
  endfacet
  facet normal 0 0 -1
    outer loop
      vertex 2.23226 -0.282 0
      vertex 2.25 0 0
      vertex 3.72043 -0.469999 0
    endloop
  endfacet
  facet normal -0.998027 0.0627914 0
    outer loop
      vertex 2.23226 -0.282 0
      vertex 2.25 0 11.5
      vertex 2.25 0 0
    endloop
  endfacet
  facet normal 0 0 -1
    outer loop
      vertex 2.23226 -0.282 0
      vertex 3.72043 -0.469999 0
      vertex 3.63219 -0.932587 0
    endloop
  endfacet
  facet normal 0 0 1
    outer loop
      vertex 2.23226 -0.282 11.5
      vertex 3.63219 -0.932587 11.5
      vertex 3.72043 -0.469999 11.5
    endloop
  endfacet
  facet normal -0 0 1
    outer loop
      vertex 2.23226 -0.282 11.5
      vertex 3.72043 -0.469999 11.5
      vertex 2.25 0 11.5
    endloop
  endfacet
  facet normal -0.998027 -0.0627914 0
    outer loop
      vertex 2.23226 0.282 0
      vertex 2.25 0 0
      vertex 2.23226 0.282 11.5
    endloop
  endfacet
  facet normal -0 0 -1
    outer loop
      vertex 2.23226 0.282 0
      vertex 3.63219 0.932587 0
      vertex 3.72043 0.469999 0
    endloop
  endfacet
  facet normal 0 0 -1
    outer loop
      vertex 2.23226 0.282 0
      vertex 3.72043 0.469999 0
      vertex 2.25 0 0
    endloop
  endfacet
  facet normal -0.998027 -0.0627914 0
    outer loop
      vertex 2.23226 0.282 11.5
      vertex 2.25 0 0
      vertex 2.25 0 11.5
    endloop
  endfacet
  facet normal 0 0 1
    outer loop
      vertex 2.23226 0.282 11.5
      vertex 2.25 0 11.5
      vertex 3.72043 0.469999 11.5
    endloop
  endfacet
  facet normal 0 0 1
    outer loop
      vertex 2.23226 0.282 11.5
      vertex 3.72043 0.469999 11.5
      vertex 3.63219 0.932587 11.5
    endloop
  endfacet
  facet normal 0 0 -1
    outer loop
      vertex 2.25 0 0
      vertex 3.72043 0.469999 0
      vertex 3.75 0 0
    endloop
  endfacet
  facet normal 0 0 -1
    outer loop
      vertex 2.25 0 0
      vertex 3.75 0 0
      vertex 3.72043 -0.469999 0
    endloop
  endfacet
  facet normal 0 0 1
    outer loop
      vertex 2.25 0 11.5
      vertex 3.72043 -0.469999 11.5
      vertex 3.75 0 11.5
    endloop
  endfacet
  facet normal 0 0 1
    outer loop
      vertex 2.25 0 11.5
      vertex 3.75 0 11.5
      vertex 3.72043 0.469999 11.5
    endloop
  endfacet
  facet normal 0.684548 -0.728968 0
    outer loop
      vertex 2.39034 -2.88942 0
      vertex 2.73363 -2.56705 0
      vertex 2.73363 -2.56705 11.5
    endloop
  endfacet
  facet normal 0.684548 -0.728968 0
    outer loop
      vertex 2.39034 -2.88942 0
      vertex 2.73363 -2.56705 11.5
      vertex 2.39034 -2.88942 11.5
    endloop
  endfacet
  facet normal 0.684548 0.728968 0
    outer loop
      vertex 2.39034 2.88942 0
      vertex 2.39034 2.88942 11.5
      vertex 2.73363 2.56705 0
    endloop
  endfacet
  facet normal 0.684548 0.728968 -0
    outer loop
      vertex 2.39034 2.88942 11.5
      vertex 2.73363 2.56705 11.5
      vertex 2.73363 2.56705 0
    endloop
  endfacet
  facet normal 0.770513 -0.637424 0
    outer loop
      vertex 2.73363 -2.56705 0
      vertex 3.03381 -2.20419 0
      vertex 2.73363 -2.56705 11.5
    endloop
  endfacet
  facet normal 0.770513 -0.637424 0
    outer loop
      vertex 2.73363 -2.56705 11.5
      vertex 3.03381 -2.20419 0
      vertex 3.03381 -2.20419 11.5
    endloop
  endfacet
  facet normal 0.770513 0.637424 0
    outer loop
      vertex 2.73363 2.56705 0
      vertex 2.73363 2.56705 11.5
      vertex 3.03381 2.20419 11.5
    endloop
  endfacet
  facet normal 0.770513 0.637424 0
    outer loop
      vertex 2.73363 2.56705 0
      vertex 3.03381 2.20419 11.5
      vertex 3.03381 2.20419 0
    endloop
  endfacet
  facet normal 0.844328 -0.535827 0
    outer loop
      vertex 3.03381 -2.20419 0
      vertex 3.28615 -1.80658 0
      vertex 3.03381 -2.20419 11.5
    endloop
  endfacet
  facet normal 0.844328 -0.535827 0
    outer loop
      vertex 3.03381 -2.20419 11.5
      vertex 3.28615 -1.80658 0
      vertex 3.28615 -1.80658 11.5
    endloop
  endfacet
  facet normal 0.844328 0.535827 0
    outer loop
      vertex 3.03381 2.20419 0
      vertex 3.03381 2.20419 11.5
      vertex 3.28615 1.80658 11.5
    endloop
  endfacet
  facet normal 0.844328 0.535827 0
    outer loop
      vertex 3.03381 2.20419 0
      vertex 3.28615 1.80658 11.5
      vertex 3.28615 1.80658 0
    endloop
  endfacet
  facet normal 0.904828 -0.425778 0
    outer loop
      vertex 3.28615 -1.80658 0
      vertex 3.48666 -1.38047 0
      vertex 3.28615 -1.80658 11.5
    endloop
  endfacet
  facet normal 0.904828 -0.425778 0
    outer loop
      vertex 3.28615 -1.80658 11.5
      vertex 3.48666 -1.38047 0
      vertex 3.48666 -1.38047 11.5
    endloop
  endfacet
  facet normal 0.904828 0.425778 0
    outer loop
      vertex 3.28615 1.80658 0
      vertex 3.28615 1.80658 11.5
      vertex 3.48666 1.38047 11.5
    endloop
  endfacet
  facet normal 0.904828 0.425778 0
    outer loop
      vertex 3.28615 1.80658 0
      vertex 3.48666 1.38047 11.5
      vertex 3.48666 1.38047 0
    endloop
  endfacet
  facet normal 0.951057 -0.309017 0
    outer loop
      vertex 3.48666 -1.38047 0
      vertex 3.63219 -0.932587 0
      vertex 3.48666 -1.38047 11.5
    endloop
  endfacet
  facet normal 0.951057 -0.309017 0
    outer loop
      vertex 3.48666 -1.38047 11.5
      vertex 3.63219 -0.932587 0
      vertex 3.63219 -0.932587 11.5
    endloop
  endfacet
  facet normal 0.951057 0.309017 0
    outer loop
      vertex 3.48666 1.38047 0
      vertex 3.48666 1.38047 11.5
      vertex 3.63219 0.932587 11.5
    endloop
  endfacet
  facet normal 0.951057 0.309017 0
    outer loop
      vertex 3.48666 1.38047 0
      vertex 3.63219 0.932587 11.5
      vertex 3.63219 0.932587 0
    endloop
  endfacet
  facet normal 0.982287 -0.187382 0
    outer loop
      vertex 3.63219 -0.932587 0
      vertex 3.72043 -0.469999 0
      vertex 3.63219 -0.932587 11.5
    endloop
  endfacet
  facet normal 0.982287 -0.187382 0
    outer loop
      vertex 3.63219 -0.932587 11.5
      vertex 3.72043 -0.469999 0
      vertex 3.72043 -0.469999 11.5
    endloop
  endfacet
  facet normal 0.982287 0.187382 0
    outer loop
      vertex 3.63219 0.932587 0
      vertex 3.63219 0.932587 11.5
      vertex 3.72043 0.469999 11.5
    endloop
  endfacet
  facet normal 0.982287 0.187382 0
    outer loop
      vertex 3.63219 0.932587 0
      vertex 3.72043 0.469999 11.5
      vertex 3.72043 0.469999 0
    endloop
  endfacet
  facet normal 0.998027 -0.0627921 0
    outer loop
      vertex 3.72043 -0.469999 0
      vertex 3.75 0 0
      vertex 3.72043 -0.469999 11.5
    endloop
  endfacet
  facet normal 0.998027 -0.0627921 0
    outer loop
      vertex 3.72043 -0.469999 11.5
      vertex 3.75 0 0
      vertex 3.75 0 11.5
    endloop
  endfacet
  facet normal 0.998027 0.0627921 0
    outer loop
      vertex 3.72043 0.469999 0
      vertex 3.72043 0.469999 11.5
      vertex 3.75 0 11.5
    endloop
  endfacet
  facet normal 0.998027 0.0627921 0
    outer loop
      vertex 3.72043 0.469999 0
      vertex 3.75 0 11.5
      vertex 3.75 0 0
    endloop
  endfacet
endsolid model
