solid model
  facet normal 0 1 0
    outer loop
      vertex -0.141278 -2.24556 0
      vertex -0.141278 -2.24556 11.5
      vertex 0.141278 -2.24556 0
    endloop
  endfacet
  facet normal 0 0 -1
    outer loop
      vertex -0.141278 -2.24556 0
      vertex 0.141278 -2.24556 0
      vertex 0.251162 -3.99211 0
    endloop
  endfacet
  facet normal 0 1 -0
    outer loop
      vertex -0.141278 -2.24556 11.5
      vertex 0.141278 -2.24556 11.5
      vertex 0.141278 -2.24556 0
    endloop
  endfacet
  facet normal -0 0 1
    outer loop
      vertex -0.141278 -2.24556 11.5
      vertex 0.251162 -3.99211 11.5
      vertex 0.141278 -2.24556 11.5
    endloop
  endfacet
  facet normal 0 -1 -0
    outer loop
      vertex -0.141278 2.24556 0
      vertex 0.141278 2.24556 0
      vertex 0.141278 2.24556 11.5
    endloop
  endfacet
  facet normal 0 -1 0
    outer loop
      vertex -0.141278 2.24556 0
      vertex 0.141278 2.24556 11.5
      vertex -0.141278 2.24556 11.5
    endloop
  endfacet
  facet normal 0 0 -1
    outer loop
      vertex -0.141278 2.24556 0
      vertex 0.251162 3.99211 0
      vertex 0.141278 2.24556 0
    endloop
  endfacet
  facet normal 0 0 1
    outer loop
      vertex -0.141278 2.24556 11.5
      vertex 0.141278 2.24556 11.5
      vertex 0.251162 3.99211 11.5
    endloop
  endfacet
  facet normal 0 0 -1
    outer loop
      vertex -0.251162 -3.99211 0
      vertex -0.141278 -2.24556 0
      vertex 0.251162 -3.99211 0
    endloop
  endfacet
  facet normal 0 -1 -0
    outer loop
      vertex -0.251162 -3.99211 0
      vertex 0.251162 -3.99211 0
      vertex 0.251162 -3.99211 11.5
    endloop
  endfacet
  facet normal 0 -1 0
    outer loop
      vertex -0.251162 -3.99211 0
      vertex 0.251162 -3.99211 11.5
      vertex -0.251162 -3.99211 11.5
    endloop
  endfacet
  facet normal 0 0 1
    outer loop
      vertex -0.251162 -3.99211 11.5
      vertex 0.251162 -3.99211 11.5
      vertex -0.141278 -2.24556 11.5
    endloop
  endfacet
  facet normal 0 1 0
    outer loop
      vertex -0.251162 3.99211 0
      vertex -0.251162 3.99211 11.5
      vertex 0.251162 3.99211 0
    endloop
  endfacet
  facet normal 0 0 -1
    outer loop
      vertex -0.251162 3.99211 0
      vertex 0.251162 3.99211 0
      vertex -0.141278 2.24556 0
    endloop
  endfacet
  facet normal -0 0 1
    outer loop
      vertex -0.251162 3.99211 11.5
      vertex -0.141278 2.24556 11.5
      vertex 0.251162 3.99211 11.5
    endloop
  endfacet
  facet normal 0 1 -0
    outer loop
      vertex -0.251162 3.99211 11.5
      vertex 0.251162 3.99211 11.5
      vertex 0.251162 3.99211 0
    endloop
  endfacet
  facet normal 0 0 -1
    outer loop
      vertex -0.421607 -2.21015 0
      vertex -0.141278 -2.24556 0
      vertex -0.251162 -3.99211 0
    endloop
  endfacet
  facet normal 0.125333 0.992115 0
    outer loop
      vertex -0.421607 -2.21015 0
      vertex -0.421607 -2.21015 11.5
      vertex -0.141278 -2.24556 0
    endloop
  endfacet
  facet normal 0.125333 0.992115 -0
    outer loop
      vertex -0.421607 -2.21015 11.5
      vertex -0.141278 -2.24556 11.5
      vertex -0.141278 -2.24556 0
    endloop
  endfacet
  facet normal 0 0 1
    outer loop
      vertex -0.421607 -2.21015 11.5
      vertex -0.251162 -3.99211 11.5
      vertex -0.141278 -2.24556 11.5
    endloop
  endfacet
  facet normal 0.125333 -0.992115 0
    outer loop
      vertex -0.421607 2.21015 0
      vertex -0.141278 2.24556 0
      vertex -0.141278 2.24556 11.5
    endloop
  endfacet
  facet normal 0.125333 -0.992115 0
    outer loop
      vertex -0.421607 2.21015 0
      vertex -0.141278 2.24556 11.5
      vertex -0.421607 2.21015 11.5
    endloop
  endfacet
  facet normal 0 0 -1
    outer loop
      vertex -0.421607 2.21015 0
      vertex -0.251162 3.99211 0
      vertex -0.141278 2.24556 0
    endloop
  endfacet
  facet normal 0 0 1
    outer loop
      vertex -0.421607 2.21015 11.5
      vertex -0.141278 2.24556 11.5
      vertex -0.251162 3.99211 11.5
    endloop
  endfacet
  facet normal 0.248691 0.968583 0
    outer loop
      vertex -0.695288 -2.13988 0
      vertex -0.695288 -2.13988 11.5
      vertex -0.421607 -2.21015 0
    endloop
  endfacet
  facet normal 0.248691 0.968583 -0
    outer loop
      vertex -0.695288 -2.13988 11.5
      vertex -0.421607 -2.21015 11.5
      vertex -0.421607 -2.21015 0
    endloop
  endfacet
  facet normal 0.248691 -0.968583 0
    outer loop
      vertex -0.695288 2.13988 0
      vertex -0.421607 2.21015 0
      vertex -0.421607 2.21015 11.5
    endloop
  endfacet
  facet normal 0.248691 -0.968583 0
    outer loop
      vertex -0.695288 2.13988 0
      vertex -0.421607 2.21015 11.5
      vertex -0.695288 2.13988 11.5
    endloop
  endfacet
  facet normal -0.125333 -0.992115 -0
    outer loop
      vertex -0.749525 -3.92915 0
      vertex -0.251162 -3.99211 0
      vertex -0.251162 -3.99211 11.5
    endloop
  endfacet
  facet normal -0.125333 -0.992115 0
    outer loop
      vertex -0.749525 -3.92915 0
      vertex -0.251162 -3.99211 11.5
      vertex -0.749525 -3.92915 11.5
    endloop
  endfacet
  facet normal 0 0 -1
    outer loop
      vertex -0.749525 -3.92915 0
      vertex -0.421607 -2.21015 0
      vertex -0.251162 -3.99211 0
    endloop
  endfacet
  facet normal -0 0 -1
    outer loop
      vertex -0.749525 -3.92915 0
      vertex -0.695288 -2.13988 0
      vertex -0.421607 -2.21015 0
    endloop
  endfacet
  facet normal 0 0 1
    outer loop
      vertex -0.749525 -3.92915 11.5
      vertex -0.251162 -3.99211 11.5
      vertex -0.421607 -2.21015 11.5
    endloop
  endfacet
  facet normal 0 0 1
    outer loop
      vertex -0.749525 -3.92915 11.5
      vertex -0.421607 -2.21015 11.5
      vertex -0.695288 -2.13988 11.5
    endloop
  endfacet
  facet normal 0 0 -1
    outer loop
      vertex -0.749525 3.92915 0
      vertex -0.251162 3.99211 0
      vertex -0.421607 2.21015 0
    endloop
  endfacet
  facet normal 0 0 -1
    outer loop
      vertex -0.749525 3.92915 0
      vertex -0.421607 2.21015 0
      vertex -0.695288 2.13988 0
    endloop
  endfacet
  facet normal -0.125333 0.992115 0
    outer loop
      vertex -0.749525 3.92915 0
      vertex -0.749525 3.92915 11.5
      vertex -0.251162 3.99211 0
    endloop
  endfacet
  facet normal -0.125333 0.992115 0
    outer loop
      vertex -0.749525 3.92915 11.5
      vertex -0.251162 3.99211 11.5
      vertex -0.251162 3.99211 0
    endloop
  endfacet
  facet normal -0 0 1
    outer loop
      vertex -0.749525 3.92915 11.5
      vertex -0.421607 2.21015 11.5
      vertex -0.251162 3.99211 11.5
    endloop
  endfacet
  facet normal 0 0 1
    outer loop
      vertex -0.749525 3.92915 11.5
      vertex -0.695288 2.13988 11.5
      vertex -0.421607 2.21015 11.5
    endloop
  endfacet
  facet normal 0.368124 0.929777 0
    outer loop
      vertex -0.958003 -2.03586 0
      vertex -0.958003 -2.03586 11.5
      vertex -0.695288 -2.13988 0
    endloop
  endfacet
  facet normal 0.368124 0.929777 -0
    outer loop
      vertex -0.958003 -2.03586 11.5
      vertex -0.695288 -2.13988 11.5
      vertex -0.695288 -2.13988 0
    endloop
  endfacet
  facet normal 0.368124 -0.929777 0
    outer loop
      vertex -0.958003 2.03586 0
      vertex -0.695288 2.13988 0
      vertex -0.695288 2.13988 11.5
    endloop
  endfacet
  facet normal 0.368124 -0.929777 0
    outer loop
      vertex -0.958003 2.03586 0
      vertex -0.695288 2.13988 11.5
      vertex -0.958003 2.03586 11.5
    endloop
  endfacet
  facet normal 0.481752 0.876307 0
    outer loop
      vertex -1.20561 -1.89974 0
      vertex -1.20561 -1.89974 11.5
      vertex -0.958003 -2.03586 0
    endloop
  endfacet
  facet normal 0.481752 0.876307 -0
    outer loop
      vertex -1.20561 -1.89974 11.5
      vertex -0.958003 -2.03586 11.5
      vertex -0.958003 -2.03586 0
    endloop
  endfacet
  facet normal 0.481752 -0.876307 0
    outer loop
      vertex -1.20561 1.89974 0
      vertex -0.958003 2.03586 0
      vertex -0.958003 2.03586 11.5
    endloop
  endfacet
  facet normal 0.481752 -0.876307 0
    outer loop
      vertex -1.20561 1.89974 0
      vertex -0.958003 2.03586 11.5
      vertex -1.20561 1.89974 11.5
    endloop
  endfacet
  facet normal 0 0 -1
    outer loop
      vertex -1.23607 -3.80423 0
      vertex -0.695288 -2.13988 0
      vertex -0.749525 -3.92915 0
    endloop
  endfacet
  facet normal -0.24869 -0.968583 -0
    outer loop
      vertex -1.23607 -3.80423 0
      vertex -0.749525 -3.92915 0
      vertex -0.749525 -3.92915 11.5
    endloop
  endfacet
  facet normal -0.24869 -0.968583 0
    outer loop
      vertex -1.23607 -3.80423 0
      vertex -0.749525 -3.92915 11.5
      vertex -1.23607 -3.80423 11.5
    endloop
  endfacet
  facet normal -0 0 -1
    outer loop
      vertex -1.23607 -3.80423 0
      vertex -0.958003 -2.03586 0
      vertex -0.695288 -2.13988 0
    endloop
  endfacet
  facet normal 0 0 1
    outer loop
      vertex -1.23607 -3.80423 11.5
      vertex -0.695288 -2.13988 11.5
      vertex -0.958003 -2.03586 11.5
    endloop
  endfacet
  facet normal 0 0 1
    outer loop
      vertex -1.23607 -3.80423 11.5
      vertex -0.749525 -3.92915 11.5
      vertex -0.695288 -2.13988 11.5
    endloop
  endfacet
  facet normal 0 0 -1
    outer loop
      vertex -1.23607 3.80423 0
      vertex -0.695288 2.13988 0
      vertex -0.958003 2.03586 0
    endloop
  endfacet
  facet normal 0 0 -1
    outer loop
      vertex -1.23607 3.80423 0
      vertex -0.749525 3.92915 0
      vertex -0.695288 2.13988 0
    endloop
  endfacet
  facet normal -0.24869 0.968583 0
    outer loop
      vertex -1.23607 3.80423 0
      vertex -1.23607 3.80423 11.5
      vertex -0.749525 3.92915 0
    endloop
  endfacet
  facet normal -0 0 1
    outer loop
      vertex -1.23607 3.80423 11.5
      vertex -0.695288 2.13988 11.5
      vertex -0.749525 3.92915 11.5
    endloop
  endfacet
  facet normal -0.24869 0.968583 0
    outer loop
      vertex -1.23607 3.80423 11.5
      vertex -0.749525 3.92915 11.5
      vertex -0.749525 3.92915 0
    endloop
  endfacet
  facet normal 0 0 1
    outer loop
      vertex -1.23607 3.80423 11.5
      vertex -0.958003 2.03586 11.5
      vertex -0.695288 2.13988 11.5
    endloop
  endfacet
  facet normal 0.587787 0.809015 0
    outer loop
      vertex -1.4342 -1.73365 0
      vertex -1.4342 -1.73365 11.5
      vertex -1.20561 -1.89974 0
    endloop
  endfacet
  facet normal 0.587787 0.809015 -0
    outer loop
      vertex -1.4342 -1.73365 11.5
      vertex -1.20561 -1.89974 11.5
      vertex -1.20561 -1.89974 0
    endloop
  endfacet
  facet normal 0.587787 -0.809015 0
    outer loop
      vertex -1.4342 1.73365 0
      vertex -1.20561 1.89974 0
      vertex -1.20561 1.89974 11.5
    endloop
  endfacet
  facet normal 0.587787 -0.809015 0
    outer loop
      vertex -1.4342 1.73365 0
      vertex -1.20561 1.89974 11.5
      vertex -1.4342 1.73365 11.5
    endloop
  endfacet
  facet normal 0.684546 0.72897 0
    outer loop
      vertex -1.64018 -1.54023 0
      vertex -1.64018 -1.54023 11.5
      vertex -1.4342 -1.73365 0
    endloop
  endfacet
  facet normal 0.684546 0.72897 -0
    outer loop
      vertex -1.64018 -1.54023 11.5
      vertex -1.4342 -1.73365 11.5
      vertex -1.4342 -1.73365 0
    endloop
  endfacet
  facet normal 0.684546 -0.72897 0
    outer loop
      vertex -1.64018 1.54023 0
      vertex -1.4342 1.73365 0
      vertex -1.4342 1.73365 11.5
    endloop
  endfacet
  facet normal 0.684546 -0.72897 0
    outer loop
      vertex -1.64018 1.54023 0
      vertex -1.4342 1.73365 11.5
      vertex -1.64018 1.54023 11.5
    endloop
  endfacet
  facet normal 0 0 -1
    outer loop
      vertex -1.70312 -3.61931 0
      vertex -0.958003 -2.03586 0
      vertex -1.23607 -3.80423 0
    endloop
  endfacet
  facet normal -0 0 -1
    outer loop
      vertex -1.70312 -3.61931 0
      vertex -1.20561 -1.89974 0
      vertex -0.958003 -2.03586 0
    endloop
  endfacet
  facet normal -0.368126 -0.929776 -0
    outer loop
      vertex -1.70312 -3.61931 0
      vertex -1.23607 -3.80423 0
      vertex -1.23607 -3.80423 11.5
    endloop
  endfacet
  facet normal -0.368126 -0.929776 0
    outer loop
      vertex -1.70312 -3.61931 0
      vertex -1.23607 -3.80423 11.5
      vertex -1.70312 -3.61931 11.5
    endloop
  endfacet
  facet normal 0 0 1
    outer loop
      vertex -1.70312 -3.61931 11.5
      vertex -0.958003 -2.03586 11.5
      vertex -1.20561 -1.89974 11.5
    endloop
  endfacet
  facet normal 0 0 1
    outer loop
      vertex -1.70312 -3.61931 11.5
      vertex -1.23607 -3.80423 11.5
      vertex -0.958003 -2.03586 11.5
    endloop
  endfacet
  facet normal 0 0 -1
    outer loop
      vertex -1.70312 3.61931 0
      vertex -0.958003 2.03586 0
      vertex -1.20561 1.89974 0
    endloop
  endfacet
  facet normal 0 0 -1
    outer loop
      vertex -1.70312 3.61931 0
      vertex -1.23607 3.80423 0
      vertex -0.958003 2.03586 0
    endloop
  endfacet
  facet normal -0.368126 0.929776 0
    outer loop
      vertex -1.70312 3.61931 0
      vertex -1.70312 3.61931 11.5
      vertex -1.23607 3.80423 0
    endloop
  endfacet
  facet normal -0 0 1
    outer loop
      vertex -1.70312 3.61931 11.5
      vertex -0.958003 2.03586 11.5
      vertex -1.23607 3.80423 11.5
    endloop
  endfacet
  facet normal 0 0 1
    outer loop
      vertex -1.70312 3.61931 11.5
      vertex -1.20561 1.89974 11.5
      vertex -0.958003 2.03586 11.5
    endloop
  endfacet
  facet normal -0.368126 0.929776 0
    outer loop
      vertex -1.70312 3.61931 11.5
      vertex -1.23607 3.80423 11.5
      vertex -1.23607 3.80423 0
    endloop
  endfacet
  facet normal 0.770513 0.637424 0
    outer loop
      vertex -1.82029 -1.32252 0
      vertex -1.64018 -1.54023 11.5
      vertex -1.64018 -1.54023 0
    endloop
  endfacet
  facet normal 0.770513 0.637424 0
    outer loop
      vertex -1.82029 -1.32252 0
      vertex -1.82029 -1.32252 11.5
      vertex -1.64018 -1.54023 11.5
    endloop
  endfacet
  facet normal 0.770513 -0.637424 0
    outer loop
      vertex -1.82029 1.32252 0
      vertex -1.64018 1.54023 0
      vertex -1.82029 1.32252 11.5
    endloop
  endfacet
  facet normal 0.770513 -0.637424 0
    outer loop
      vertex -1.82029 1.32252 11.5
      vertex -1.64018 1.54023 0
      vertex -1.64018 1.54023 11.5
    endloop
  endfacet
  facet normal 0.844328 0.535826 0
    outer loop
      vertex -1.97169 -1.08395 0
      vertex -1.82029 -1.32252 11.5
      vertex -1.82029 -1.32252 0
    endloop
  endfacet
  facet normal 0.844328 0.535826 0
    outer loop
      vertex -1.97169 -1.08395 0
      vertex -1.97169 -1.08395 11.5
      vertex -1.82029 -1.32252 11.5
    endloop
  endfacet
  facet normal 0.844328 -0.535826 0
    outer loop
      vertex -1.97169 1.08395 0
      vertex -1.82029 1.32252 0
      vertex -1.97169 1.08395 11.5
    endloop
  endfacet
  facet normal 0.844328 -0.535826 0
    outer loop
      vertex -1.97169 1.08395 11.5
      vertex -1.82029 1.32252 0
      vertex -1.82029 1.32252 11.5
    endloop
  endfacet
  facet normal 0.904827 0.425779 0
    outer loop
      vertex -2.092 -0.828279 0
      vertex -1.97169 -1.08395 11.5
      vertex -1.97169 -1.08395 0
    endloop
  endfacet
  facet normal 0.904827 0.425779 0
    outer loop
      vertex -2.092 -0.828279 0
      vertex -2.092 -0.828279 11.5
      vertex -1.97169 -1.08395 11.5
    endloop
  endfacet
  facet normal 0.904827 -0.425779 0
    outer loop
      vertex -2.092 0.828279 0
      vertex -1.97169 1.08395 0
      vertex -2.092 0.828279 11.5
    endloop
  endfacet
  facet normal 0.904827 -0.425779 0
    outer loop
      vertex -2.092 0.828279 11.5
      vertex -1.97169 1.08395 0
      vertex -1.97169 1.08395 11.5
    endloop
  endfacet
  facet normal 0 0 -1
    outer loop
      vertex -2.14331 -3.37731 0
      vertex -1.20561 -1.89974 0
      vertex -1.70312 -3.61931 0
    endloop
  endfacet
  facet normal -0 0 -1
    outer loop
      vertex -2.14331 -3.37731 0
      vertex -1.4342 -1.73365 0
      vertex -1.20561 -1.89974 0
    endloop
  endfacet
  facet normal -0.481754 -0.876307 -0
    outer loop
      vertex -2.14331 -3.37731 0
      vertex -1.70312 -3.61931 0
      vertex -1.70312 -3.61931 11.5
    endloop
  endfacet
  facet normal -0.481754 -0.876307 0
    outer loop
      vertex -2.14331 -3.37731 0
      vertex -1.70312 -3.61931 11.5
      vertex -2.14331 -3.37731 11.5
    endloop
  endfacet
  facet normal 0 0 1
    outer loop
      vertex -2.14331 -3.37731 11.5
      vertex -1.20561 -1.89974 11.5
      vertex -1.4342 -1.73365 11.5
    endloop
  endfacet
  facet normal 0 0 1
    outer loop
      vertex -2.14331 -3.37731 11.5
      vertex -1.70312 -3.61931 11.5
      vertex -1.20561 -1.89974 11.5
    endloop
  endfacet
  facet normal 0 0 -1
    outer loop
      vertex -2.14331 3.37731 0
      vertex -1.20561 1.89974 0
      vertex -1.4342 1.73365 0
    endloop
  endfacet
  facet normal 0 0 -1
    outer loop
      vertex -2.14331 3.37731 0
      vertex -1.70312 3.61931 0
      vertex -1.20561 1.89974 0
    endloop
  endfacet
  facet normal -0.481754 0.876307 0
    outer loop
      vertex -2.14331 3.37731 0
      vertex -2.14331 3.37731 11.5
      vertex -1.70312 3.61931 0
    endloop
  endfacet
  facet normal -0 0 1
    outer loop
      vertex -2.14331 3.37731 11.5
      vertex -1.20561 1.89974 11.5
      vertex -1.70312 3.61931 11.5
    endloop
  endfacet
  facet normal 0 0 1
    outer loop
      vertex -2.14331 3.37731 11.5
      vertex -1.4342 1.73365 11.5
      vertex -1.20561 1.89974 11.5
    endloop
  endfacet
  facet normal -0.481754 0.876307 0
    outer loop
      vertex -2.14331 3.37731 11.5
      vertex -1.70312 3.61931 11.5
      vertex -1.70312 3.61931 0
    endloop
  endfacet
  facet normal 0.951056 0.309019 0
    outer loop
      vertex -2.17931 -0.559552 0
      vertex -2.092 -0.828279 11.5
      vertex -2.092 -0.828279 0
    endloop
  endfacet
  facet normal 0.951056 0.309019 0
    outer loop
      vertex -2.17931 -0.559552 0
      vertex -2.17931 -0.559552 11.5
      vertex -2.092 -0.828279 11.5
    endloop
  endfacet
  facet normal 0.951056 -0.309019 0
    outer loop
      vertex -2.17931 0.559552 0
      vertex -2.092 0.828279 0
      vertex -2.17931 0.559552 11.5
    endloop
  endfacet
  facet normal 0.951056 -0.309019 0
    outer loop
      vertex -2.17931 0.559552 11.5
      vertex -2.092 0.828279 0
      vertex -2.092 0.828279 11.5
    endloop
  endfacet
  facet normal 0.982287 0.187382 0
    outer loop
      vertex -2.23226 -0.282 0
      vertex -2.17931 -0.559552 11.5
      vertex -2.17931 -0.559552 0
    endloop
  endfacet
  facet normal 0.982287 0.187382 0
    outer loop
      vertex -2.23226 -0.282 0
      vertex -2.23226 -0.282 11.5
      vertex -2.17931 -0.559552 11.5
    endloop
  endfacet
  facet normal 0.982287 -0.187382 0
    outer loop
      vertex -2.23226 0.282 0
      vertex -2.17931 0.559552 0
      vertex -2.23226 0.282 11.5
    endloop
  endfacet
  facet normal 0.982287 -0.187382 0
    outer loop
      vertex -2.23226 0.282 11.5
      vertex -2.17931 0.559552 0
      vertex -2.17931 0.559552 11.5
    endloop
  endfacet
  facet normal 0.998027 0.0627914 0
    outer loop
      vertex -2.25 0 0
      vertex -2.23226 -0.282 11.5
      vertex -2.23226 -0.282 0
    endloop
  endfacet
  facet normal 0.998027 -0.0627914 0
    outer loop
      vertex -2.25 0 0
      vertex -2.23226 0.282 0
      vertex -2.25 0 11.5
    endloop
  endfacet
  facet normal 0.998027 0.0627914 0
    outer loop
      vertex -2.25 0 0
      vertex -2.25 0 11.5
      vertex -2.23226 -0.282 11.5
    endloop
  endfacet
  facet normal 0.998027 -0.0627914 0
    outer loop
      vertex -2.25 0 11.5
      vertex -2.23226 0.282 0
      vertex -2.23226 0.282 11.5
    endloop
  endfacet
  facet normal 0 0 -1
    outer loop
      vertex -2.5497 -3.08205 0
      vertex -1.4342 -1.73365 0
      vertex -2.14331 -3.37731 0
    endloop
  endfacet
  facet normal -0 0 -1
    outer loop
      vertex -2.5497 -3.08205 0
      vertex -1.64018 -1.54023 0
      vertex -1.4342 -1.73365 0
    endloop
  endfacet
  facet normal -0.587785 -0.809017 -0
    outer loop
      vertex -2.5497 -3.08205 0
      vertex -2.14331 -3.37731 0
      vertex -2.14331 -3.37731 11.5
    endloop
  endfacet
  facet normal -0.587785 -0.809017 0
    outer loop
      vertex -2.5497 -3.08205 0
      vertex -2.14331 -3.37731 11.5
      vertex -2.5497 -3.08205 11.5
    endloop
  endfacet
  facet normal 0 0 1
    outer loop
      vertex -2.5497 -3.08205 11.5
      vertex -1.4342 -1.73365 11.5
      vertex -1.64018 -1.54023 11.5
    endloop
  endfacet
  facet normal 0 0 1
    outer loop
      vertex -2.5497 -3.08205 11.5
      vertex -2.14331 -3.37731 11.5
      vertex -1.4342 -1.73365 11.5
    endloop
  endfacet
  facet normal 0 0 -1
    outer loop
      vertex -2.5497 3.08205 0
      vertex -1.4342 1.73365 0
      vertex -1.64018 1.54023 0
    endloop
  endfacet
  facet normal 0 0 -1
    outer loop
      vertex -2.5497 3.08205 0
      vertex -2.14331 3.37731 0
      vertex -1.4342 1.73365 0
    endloop
  endfacet
  facet normal -0.587785 0.809017 0
    outer loop
      vertex -2.5497 3.08205 0
      vertex -2.5497 3.08205 11.5
      vertex -2.14331 3.37731 0
    endloop
  endfacet
  facet normal -0 0 1
    outer loop
      vertex -2.5497 3.08205 11.5
      vertex -1.4342 1.73365 11.5
      vertex -2.14331 3.37731 11.5
    endloop
  endfacet
  facet normal 0 0 1
    outer loop
      vertex -2.5497 3.08205 11.5
      vertex -1.64018 1.54023 11.5
      vertex -1.4342 1.73365 11.5
    endloop
  endfacet
  facet normal -0.587785 0.809017 0
    outer loop
      vertex -2.5497 3.08205 11.5
      vertex -2.14331 3.37731 11.5
      vertex -2.14331 3.37731 0
    endloop
  endfacet
  facet normal 0 0 -1
    outer loop
      vertex -2.91587 -2.73819 0
      vertex -1.64018 -1.54023 0
      vertex -2.5497 -3.08205 0
    endloop
  endfacet
  facet normal -0 0 -1
    outer loop
      vertex -2.91587 -2.73819 0
      vertex -1.82029 -1.32252 0
      vertex -1.64018 -1.54023 0
    endloop
  endfacet
  facet normal -0.684546 -0.72897 -0
    outer loop
      vertex -2.91587 -2.73819 0
      vertex -2.5497 -3.08205 0
      vertex -2.5497 -3.08205 11.5
    endloop
  endfacet
  facet normal -0.684546 -0.72897 0
    outer loop
      vertex -2.91587 -2.73819 0
      vertex -2.5497 -3.08205 11.5
      vertex -2.91587 -2.73819 11.5
    endloop
  endfacet
  facet normal 0 0 1
    outer loop
      vertex -2.91587 -2.73819 11.5
      vertex -1.64018 -1.54023 11.5
      vertex -1.82029 -1.32252 11.5
    endloop
  endfacet
  facet normal 0 0 1
    outer loop
      vertex -2.91587 -2.73819 11.5
      vertex -2.5497 -3.08205 11.5
      vertex -1.64018 -1.54023 11.5
    endloop
  endfacet
  facet normal 0 0 -1
    outer loop
      vertex -2.91587 2.73819 0
      vertex -1.64018 1.54023 0
      vertex -1.82029 1.32252 0
    endloop
  endfacet
  facet normal 0 0 -1
    outer loop
      vertex -2.91587 2.73819 0
      vertex -2.5497 3.08205 0
      vertex -1.64018 1.54023 0
    endloop
  endfacet
  facet normal -0.684546 0.72897 0
    outer loop
      vertex -2.91587 2.73819 0
      vertex -2.91587 2.73819 11.5
      vertex -2.5497 3.08205 0
    endloop
  endfacet
  facet normal -0 0 1
    outer loop
      vertex -2.91587 2.73819 11.5
      vertex -1.64018 1.54023 11.5
      vertex -2.5497 3.08205 11.5
    endloop
  endfacet
  facet normal 0 0 1
    outer loop
      vertex -2.91587 2.73819 11.5
      vertex -1.82029 1.32252 11.5
      vertex -1.64018 1.54023 11.5
    endloop
  endfacet
  facet normal -0.684546 0.72897 0
    outer loop
      vertex -2.91587 2.73819 11.5
      vertex -2.5497 3.08205 11.5
      vertex -2.5497 3.08205 0
    endloop
  endfacet
  facet normal 0 0 -1
    outer loop
      vertex -3.23607 -2.35114 0
      vertex -1.82029 -1.32252 0
      vertex -2.91587 -2.73819 0
    endloop
  endfacet
  facet normal -0 0 -1
    outer loop
      vertex -3.23607 -2.35114 0
      vertex -1.97169 -1.08395 0
      vertex -1.82029 -1.32252 0
    endloop
  endfacet
  facet normal -0.770513 -0.637424 0
    outer loop
      vertex -3.23607 -2.35114 0
      vertex -2.91587 -2.73819 0
      vertex -3.23607 -2.35114 11.5
    endloop
  endfacet
  facet normal 0 0 1
    outer loop
      vertex -3.23607 -2.35114 11.5
      vertex -1.82029 -1.32252 11.5
      vertex -1.97169 -1.08395 11.5
    endloop
  endfacet
  facet normal -0.770513 -0.637424 0
    outer loop
      vertex -3.23607 -2.35114 11.5
      vertex -2.91587 -2.73819 0
      vertex -2.91587 -2.73819 11.5
    endloop
  endfacet
  facet normal 0 0 1
    outer loop
      vertex -3.23607 -2.35114 11.5
      vertex -2.91587 -2.73819 11.5
      vertex -1.82029 -1.32252 11.5
    endloop
  endfacet
  facet normal 0 0 -1
    outer loop
      vertex -3.23607 2.35114 0
      vertex -1.82029 1.32252 0
      vertex -1.97169 1.08395 0
    endloop
  endfacet
  facet normal 0 0 -1
    outer loop
      vertex -3.23607 2.35114 0
      vertex -2.91587 2.73819 0
      vertex -1.82029 1.32252 0
    endloop
  endfacet
  facet normal -0.770513 0.637424 0
    outer loop
      vertex -3.23607 2.35114 0
      vertex -2.91587 2.73819 11.5
      vertex -2.91587 2.73819 0
    endloop
  endfacet
  facet normal -0.770513 0.637424 0
    outer loop
      vertex -3.23607 2.35114 0
      vertex -3.23607 2.35114 11.5
      vertex -2.91587 2.73819 11.5
    endloop
  endfacet
  facet normal -0 0 1
    outer loop
      vertex -3.23607 2.35114 11.5
      vertex -1.82029 1.32252 11.5
      vertex -2.91587 2.73819 11.5
    endloop
  endfacet
  facet normal 0 0 1
    outer loop
      vertex -3.23607 2.35114 11.5
      vertex -1.97169 1.08395 11.5
      vertex -1.82029 1.32252 11.5
    endloop
  endfacet
  facet normal 0 0 -1
    outer loop
      vertex -3.50523 -1.92701 0
      vertex -1.97169 -1.08395 0
      vertex -3.23607 -2.35114 0
    endloop
  endfacet
  facet normal -0 0 -1
    outer loop
      vertex -3.50523 -1.92701 0
      vertex -2.092 -0.828279 0
      vertex -1.97169 -1.08395 0
    endloop
  endfacet
  facet normal -0.844328 -0.535826 0
    outer loop
      vertex -3.50523 -1.92701 0
      vertex -3.23607 -2.35114 0
      vertex -3.50523 -1.92701 11.5
    endloop
  endfacet
  facet normal 0 0 1
    outer loop
      vertex -3.50523 -1.92701 11.5
      vertex -1.97169 -1.08395 11.5
      vertex -2.092 -0.828279 11.5
    endloop
  endfacet
  facet normal -0.844328 -0.535826 0
    outer loop
      vertex -3.50523 -1.92701 11.5
      vertex -3.23607 -2.35114 0
      vertex -3.23607 -2.35114 11.5
    endloop
  endfacet
  facet normal 0 0 1
    outer loop
      vertex -3.50523 -1.92701 11.5
      vertex -3.23607 -2.35114 11.5
      vertex -1.97169 -1.08395 11.5
    endloop
  endfacet
  facet normal 0 0 -1
    outer loop
      vertex -3.50523 1.92701 0
      vertex -1.97169 1.08395 0
      vertex -2.092 0.828279 0
    endloop
  endfacet
  facet normal 0 0 -1
    outer loop
      vertex -3.50523 1.92701 0
      vertex -3.23607 2.35114 0
      vertex -1.97169 1.08395 0
    endloop
  endfacet
  facet normal -0.844328 0.535826 0
    outer loop
      vertex -3.50523 1.92701 0
      vertex -3.23607 2.35114 11.5
      vertex -3.23607 2.35114 0
    endloop
  endfacet
  facet normal -0.844328 0.535826 0
    outer loop
      vertex -3.50523 1.92701 0
      vertex -3.50523 1.92701 11.5
      vertex -3.23607 2.35114 11.5
    endloop
  endfacet
  facet normal -0 0 1
    outer loop
      vertex -3.50523 1.92701 11.5
      vertex -1.97169 1.08395 11.5
      vertex -3.23607 2.35114 11.5
    endloop
  endfacet
  facet normal 0 0 1
    outer loop
      vertex -3.50523 1.92701 11.5
      vertex -2.092 0.828279 11.5
      vertex -1.97169 1.08395 11.5
    endloop
  endfacet
  facet normal 0 0 -1
    outer loop
      vertex -3.71911 -1.4725 0
      vertex -2.092 -0.828279 0
      vertex -3.50523 -1.92701 0
    endloop
  endfacet
  facet normal -0 0 -1
    outer loop
      vertex -3.71911 -1.4725 0
      vertex -2.17931 -0.559552 0
      vertex -2.092 -0.828279 0
    endloop
  endfacet
  facet normal -0.904827 -0.42578 0
    outer loop
      vertex -3.71911 -1.4725 0
      vertex -3.50523 -1.92701 0
      vertex -3.71911 -1.4725 11.5
    endloop
  endfacet
  facet normal 0 0 1
    outer loop
      vertex -3.71911 -1.4725 11.5
      vertex -2.092 -0.828279 11.5
      vertex -2.17931 -0.559552 11.5
    endloop
  endfacet
  facet normal -0.904827 -0.42578 0
    outer loop
      vertex -3.71911 -1.4725 11.5
      vertex -3.50523 -1.92701 0
      vertex -3.50523 -1.92701 11.5
    endloop
  endfacet
  facet normal 0 0 1
    outer loop
      vertex -3.71911 -1.4725 11.5
      vertex -3.50523 -1.92701 11.5
      vertex -2.092 -0.828279 11.5
    endloop
  endfacet
  facet normal 0 0 -1
    outer loop
      vertex -3.71911 1.4725 0
      vertex -2.092 0.828279 0
      vertex -2.17931 0.559552 0
    endloop
  endfacet
  facet normal 0 0 -1
    outer loop
      vertex -3.71911 1.4725 0
      vertex -3.50523 1.92701 0
      vertex -2.092 0.828279 0
    endloop
  endfacet
  facet normal -0.904827 0.42578 0
    outer loop
      vertex -3.71911 1.4725 0
      vertex -3.50523 1.92701 11.5
      vertex -3.50523 1.92701 0
    endloop
  endfacet
  facet normal -0.904827 0.42578 0
    outer loop
      vertex -3.71911 1.4725 0
      vertex -3.71911 1.4725 11.5
      vertex -3.50523 1.92701 11.5
    endloop
  endfacet
  facet normal -0 0 1
    outer loop
      vertex -3.71911 1.4725 11.5
      vertex -2.092 0.828279 11.5
      vertex -3.50523 1.92701 11.5
    endloop
  endfacet
  facet normal 0 0 1
    outer loop
      vertex -3.71911 1.4725 11.5
      vertex -2.17931 0.559552 11.5
      vertex -2.092 0.828279 11.5
    endloop
  endfacet
  facet normal 0 0 -1
    outer loop
      vertex -3.87433 -0.994759 0
      vertex -2.17931 -0.559552 0
      vertex -3.71911 -1.4725 0
    endloop
  endfacet
  facet normal -0 0 -1
    outer loop
      vertex -3.87433 -0.994759 0
      vertex -2.23226 -0.282 0
      vertex -2.17931 -0.559552 0
    endloop
  endfacet
  facet normal -0.951057 -0.309017 0
    outer loop
      vertex -3.87433 -0.994759 0
      vertex -3.71911 -1.4725 0
      vertex -3.87433 -0.994759 11.5
    endloop
  endfacet
  facet normal 0 0 1
    outer loop
      vertex -3.87433 -0.994759 11.5
      vertex -2.17931 -0.559552 11.5
      vertex -2.23226 -0.282 11.5
    endloop
  endfacet
  facet normal -0.951057 -0.309017 0
    outer loop
      vertex -3.87433 -0.994759 11.5
      vertex -3.71911 -1.4725 0
      vertex -3.71911 -1.4725 11.5
    endloop
  endfacet
  facet normal 0 0 1
    outer loop
      vertex -3.87433 -0.994759 11.5
      vertex -3.71911 -1.4725 11.5
      vertex -2.17931 -0.559552 11.5
    endloop
  endfacet
  facet normal 0 0 -1
    outer loop
      vertex -3.87433 0.994759 0
      vertex -2.17931 0.559552 0
      vertex -2.23226 0.282 0
    endloop
  endfacet
  facet normal 0 0 -1
    outer loop
      vertex -3.87433 0.994759 0
      vertex -3.71911 1.4725 0
      vertex -2.17931 0.559552 0
    endloop
  endfacet
  facet normal -0.951057 0.309017 0
    outer loop
      vertex -3.87433 0.994759 0
      vertex -3.71911 1.4725 11.5
      vertex -3.71911 1.4725 0
    endloop
  endfacet
  facet normal -0.951057 0.309017 0
    outer loop
      vertex -3.87433 0.994759 0
      vertex -3.87433 0.994759 11.5
      vertex -3.71911 1.4725 11.5
    endloop
  endfacet
  facet normal -0 0 1
    outer loop
      vertex -3.87433 0.994759 11.5
      vertex -2.17931 0.559552 11.5
      vertex -3.71911 1.4725 11.5
    endloop
  endfacet
  facet normal 0 0 1
    outer loop
      vertex -3.87433 0.994759 11.5
      vertex -2.23226 0.282 11.5
      vertex -2.17931 0.559552 11.5
    endloop
  endfacet
  facet normal 0 0 -1
    outer loop
      vertex -3.96846 -0.501332 0
      vertex -2.23226 -0.282 0
      vertex -3.87433 -0.994759 0
    endloop
  endfacet
  facet normal -0 0 -1
    outer loop
      vertex -3.96846 -0.501332 0
      vertex -2.25 0 0
      vertex -2.23226 -0.282 0
    endloop
  endfacet
  facet normal -0.982287 -0.187381 0
    outer loop
      vertex -3.96846 -0.501332 0
      vertex -3.87433 -0.994759 0
      vertex -3.96846 -0.501332 11.5
    endloop
  endfacet
  facet normal 0 0 1
    outer loop
      vertex -3.96846 -0.501332 11.5
      vertex -2.23226 -0.282 11.5
      vertex -2.25 0 11.5
    endloop
  endfacet
  facet normal -0.982287 -0.187381 0
    outer loop
      vertex -3.96846 -0.501332 11.5
      vertex -3.87433 -0.994759 0
      vertex -3.87433 -0.994759 11.5
    endloop
  endfacet
  facet normal 0 0 1
    outer loop
      vertex -3.96846 -0.501332 11.5
      vertex -3.87433 -0.994759 11.5
      vertex -2.23226 -0.282 11.5
    endloop
  endfacet
  facet normal 0 0 -1
    outer loop
      vertex -3.96846 0.501332 0
      vertex -2.23226 0.282 0
      vertex -2.25 0 0
    endloop
  endfacet
  facet normal 0 0 -1
    outer loop
      vertex -3.96846 0.501332 0
      vertex -3.87433 0.994759 0
      vertex -2.23226 0.282 0
    endloop
  endfacet
  facet normal -0.982287 0.187381 0
    outer loop
      vertex -3.96846 0.501332 0
      vertex -3.87433 0.994759 11.5
      vertex -3.87433 0.994759 0
    endloop
  endfacet
  facet normal -0.982287 0.187381 0
    outer loop
      vertex -3.96846 0.501332 0
      vertex -3.96846 0.501332 11.5
      vertex -3.87433 0.994759 11.5
    endloop
  endfacet
  facet normal -0 0 1
    outer loop
      vertex -3.96846 0.501332 11.5
      vertex -2.23226 0.282 11.5
      vertex -3.87433 0.994759 11.5
    endloop
  endfacet
  facet normal 0 0 1
    outer loop
      vertex -3.96846 0.501332 11.5
      vertex -2.25 0 11.5
      vertex -2.23226 0.282 11.5
    endloop
  endfacet
  facet normal 0 0 -1
    outer loop
      vertex -4 0 0
      vertex -2.25 0 0
      vertex -3.96846 -0.501332 0
    endloop
  endfacet
  facet normal -0.998027 -0.0627918 0
    outer loop
      vertex -4 0 0
      vertex -3.96846 -0.501332 0
      vertex -4 0 11.5
    endloop
  endfacet
  facet normal 0 0 -1
    outer loop
      vertex -4 0 0
      vertex -3.96846 0.501332 0
      vertex -2.25 0 0
    endloop
  endfacet
  facet normal -0.998027 0.0627918 0
    outer loop
      vertex -4 0 0
      vertex -3.96846 0.501332 11.5
      vertex -3.96846 0.501332 0
    endloop
  endfacet
  facet normal -0.998027 0.0627918 0
    outer loop
      vertex -4 0 0
      vertex -4 0 11.5
      vertex -3.96846 0.501332 11.5
    endloop
  endfacet
  facet normal 0 0 1
    outer loop
      vertex -4 0 11.5
      vertex -2.25 0 11.5
      vertex -3.96846 0.501332 11.5
    endloop
  endfacet
  facet normal -0.998027 -0.0627918 0
    outer loop
      vertex -4 0 11.5
      vertex -3.96846 -0.501332 0
      vertex -3.96846 -0.501332 11.5
    endloop
  endfacet
  facet normal 0 0 1
    outer loop
      vertex -4 0 11.5
      vertex -3.96846 -0.501332 11.5
      vertex -2.25 0 11.5
    endloop
  endfacet
  facet normal -0.125333 0.992115 0
    outer loop
      vertex 0.141278 -2.24556 0
      vertex 0.141278 -2.24556 11.5
      vertex 0.421607 -2.21015 0
    endloop
  endfacet
  facet normal 0 0 -1
    outer loop
      vertex 0.141278 -2.24556 0
      vertex 0.421607 -2.21015 0
      vertex 0.251162 -3.99211 0
    endloop
  endfacet
  facet normal -0 0 1
    outer loop
      vertex 0.141278 -2.24556 11.5
      vertex 0.251162 -3.99211 11.5
      vertex 0.421607 -2.21015 11.5
    endloop
  endfacet
  facet normal -0.125333 0.992115 0
    outer loop
      vertex 0.141278 -2.24556 11.5
      vertex 0.421607 -2.21015 11.5
      vertex 0.421607 -2.21015 0
    endloop
  endfacet
  facet normal 0 0 -1
    outer loop
      vertex 0.141278 2.24556 0
      vertex 0.251162 3.99211 0
      vertex 0.421607 2.21015 0
    endloop
  endfacet
  facet normal -0.125333 -0.992115 -0
    outer loop
      vertex 0.141278 2.24556 0
      vertex 0.421607 2.21015 0
      vertex 0.421607 2.21015 11.5
    endloop
  endfacet
  facet normal -0.125333 -0.992115 0
    outer loop
      vertex 0.141278 2.24556 0
      vertex 0.421607 2.21015 11.5
      vertex 0.141278 2.24556 11.5
    endloop
  endfacet
  facet normal 0 0 1
    outer loop
      vertex 0.141278 2.24556 11.5
      vertex 0.421607 2.21015 11.5
      vertex 0.251162 3.99211 11.5
    endloop
  endfacet
  facet normal 0 0 -1
    outer loop
      vertex 0.251162 -3.99211 0
      vertex 0.421607 -2.21015 0
      vertex 0.749525 -3.92915 0
    endloop
  endfacet
  facet normal 0.125333 -0.992115 0
    outer loop
      vertex 0.251162 -3.99211 0
      vertex 0.749525 -3.92915 0
      vertex 0.749525 -3.92915 11.5
    endloop
  endfacet
  facet normal 0.125333 -0.992115 0
    outer loop
      vertex 0.251162 -3.99211 0
      vertex 0.749525 -3.92915 11.5
      vertex 0.251162 -3.99211 11.5
    endloop
  endfacet
  facet normal 0 0 1
    outer loop
      vertex 0.251162 -3.99211 11.5
      vertex 0.749525 -3.92915 11.5
      vertex 0.421607 -2.21015 11.5
    endloop
  endfacet
  facet normal 0.125333 0.992115 0
    outer loop
      vertex 0.251162 3.99211 0
      vertex 0.251162 3.99211 11.5
      vertex 0.749525 3.92915 0
    endloop
  endfacet
  facet normal 0 0 -1
    outer loop
      vertex 0.251162 3.99211 0
      vertex 0.749525 3.92915 0
      vertex 0.421607 2.21015 0
    endloop
  endfacet
  facet normal 0 0 1
    outer loop
      vertex 0.251162 3.99211 11.5
      vertex 0.421607 2.21015 11.5
      vertex 0.749525 3.92915 11.5
    endloop
  endfacet
  facet normal 0.125333 0.992115 -0
    outer loop
      vertex 0.251162 3.99211 11.5
      vertex 0.749525 3.92915 11.5
      vertex 0.749525 3.92915 0
    endloop
  endfacet
  facet normal -0.248691 0.968583 0
    outer loop
      vertex 0.421607 -2.21015 0
      vertex 0.421607 -2.21015 11.5
      vertex 0.695288 -2.13988 0
    endloop
  endfacet
  facet normal 0 0 -1
    outer loop
      vertex 0.421607 -2.21015 0
      vertex 0.695288 -2.13988 0
      vertex 0.749525 -3.92915 0
    endloop
  endfacet
  facet normal -0.248691 0.968583 0
    outer loop
      vertex 0.421607 -2.21015 11.5
      vertex 0.695288 -2.13988 11.5
      vertex 0.695288 -2.13988 0
    endloop
  endfacet
  facet normal -0 0 1
    outer loop
      vertex 0.421607 -2.21015 11.5
      vertex 0.749525 -3.92915 11.5
      vertex 0.695288 -2.13988 11.5
    endloop
  endfacet
  facet normal -0.248691 -0.968583 -0
    outer loop
      vertex 0.421607 2.21015 0
      vertex 0.695288 2.13988 0
      vertex 0.695288 2.13988 11.5
    endloop
  endfacet
  facet normal -0.248691 -0.968583 0
    outer loop
      vertex 0.421607 2.21015 0
      vertex 0.695288 2.13988 11.5
      vertex 0.421607 2.21015 11.5
    endloop
  endfacet
  facet normal 0 0 -1
    outer loop
      vertex 0.421607 2.21015 0
      vertex 0.749525 3.92915 0
      vertex 0.695288 2.13988 0
    endloop
  endfacet
  facet normal 0 0 1
    outer loop
      vertex 0.421607 2.21015 11.5
      vertex 0.695288 2.13988 11.5
      vertex 0.749525 3.92915 11.5
    endloop
  endfacet
  facet normal -0.368124 0.929777 0
    outer loop
      vertex 0.695288 -2.13988 0
      vertex 0.695288 -2.13988 11.5
      vertex 0.958003 -2.03586 0
    endloop
  endfacet
  facet normal 0 0 -1
    outer loop
      vertex 0.695288 -2.13988 0
      vertex 0.958003 -2.03586 0
      vertex 1.23607 -3.80423 0
    endloop
  endfacet
  facet normal 0 0 -1
    outer loop
      vertex 0.695288 -2.13988 0
      vertex 1.23607 -3.80423 0
      vertex 0.749525 -3.92915 0
    endloop
  endfacet
  facet normal 0 0 1
    outer loop
      vertex 0.695288 -2.13988 11.5
      vertex 0.749525 -3.92915 11.5
      vertex 1.23607 -3.80423 11.5
    endloop
  endfacet
  facet normal -0.368124 0.929777 0
    outer loop
      vertex 0.695288 -2.13988 11.5
      vertex 0.958003 -2.03586 11.5
      vertex 0.958003 -2.03586 0
    endloop
  endfacet
  facet normal -0 0 1
    outer loop
      vertex 0.695288 -2.13988 11.5
      vertex 1.23607 -3.80423 11.5
      vertex 0.958003 -2.03586 11.5
    endloop
  endfacet
  facet normal -0 0 -1
    outer loop
      vertex 0.695288 2.13988 0
      vertex 0.749525 3.92915 0
      vertex 1.23607 3.80423 0
    endloop
  endfacet
  facet normal -0.368124 -0.929777 -0
    outer loop
      vertex 0.695288 2.13988 0
      vertex 0.958003 2.03586 0
      vertex 0.958003 2.03586 11.5
    endloop
  endfacet
  facet normal -0.368124 -0.929777 0
    outer loop
      vertex 0.695288 2.13988 0
      vertex 0.958003 2.03586 11.5
      vertex 0.695288 2.13988 11.5
    endloop
  endfacet
  facet normal 0 0 -1
    outer loop
      vertex 0.695288 2.13988 0
      vertex 1.23607 3.80423 0
      vertex 0.958003 2.03586 0
    endloop
  endfacet
  facet normal 0 0 1
    outer loop
      vertex 0.695288 2.13988 11.5
      vertex 0.958003 2.03586 11.5
      vertex 1.23607 3.80423 11.5
    endloop
  endfacet
  facet normal 0 0 1
    outer loop
      vertex 0.695288 2.13988 11.5
      vertex 1.23607 3.80423 11.5
      vertex 0.749525 3.92915 11.5
    endloop
  endfacet
  facet normal 0.24869 -0.968583 0
    outer loop
      vertex 0.749525 -3.92915 0
      vertex 1.23607 -3.80423 0
      vertex 1.23607 -3.80423 11.5
    endloop
  endfacet
  facet normal 0.24869 -0.968583 0
    outer loop
      vertex 0.749525 -3.92915 0
      vertex 1.23607 -3.80423 11.5
      vertex 0.749525 -3.92915 11.5
    endloop
  endfacet
  facet normal 0.24869 0.968583 0
    outer loop
      vertex 0.749525 3.92915 0
      vertex 0.749525 3.92915 11.5
      vertex 1.23607 3.80423 0
    endloop
  endfacet
  facet normal 0.24869 0.968583 -0
    outer loop
      vertex 0.749525 3.92915 11.5
      vertex 1.23607 3.80423 11.5
      vertex 1.23607 3.80423 0
    endloop
  endfacet
  facet normal -0.481752 0.876307 0
    outer loop
      vertex 0.958003 -2.03586 0
      vertex 0.958003 -2.03586 11.5
      vertex 1.20561 -1.89974 0
    endloop
  endfacet
  facet normal 0 0 -1
    outer loop
      vertex 0.958003 -2.03586 0
      vertex 1.20561 -1.89974 0
      vertex 1.70312 -3.61931 0
    endloop
  endfacet
  facet normal 0 0 -1
    outer loop
      vertex 0.958003 -2.03586 0
      vertex 1.70312 -3.61931 0
      vertex 1.23607 -3.80423 0
    endloop
  endfacet
  facet normal -0.481752 0.876307 0
    outer loop
      vertex 0.958003 -2.03586 11.5
      vertex 1.20561 -1.89974 11.5
      vertex 1.20561 -1.89974 0
    endloop
  endfacet
  facet normal 0 0 1
    outer loop
      vertex 0.958003 -2.03586 11.5
      vertex 1.23607 -3.80423 11.5
      vertex 1.70312 -3.61931 11.5
    endloop
  endfacet
  facet normal -0 0 1
    outer loop
      vertex 0.958003 -2.03586 11.5
      vertex 1.70312 -3.61931 11.5
      vertex 1.20561 -1.89974 11.5
    endloop
  endfacet
  facet normal -0.481752 -0.876307 -0
    outer loop
      vertex 0.958003 2.03586 0
      vertex 1.20561 1.89974 0
      vertex 1.20561 1.89974 11.5
    endloop
  endfacet
  facet normal -0.481752 -0.876307 0
    outer loop
      vertex 0.958003 2.03586 0
      vertex 1.20561 1.89974 11.5
      vertex 0.958003 2.03586 11.5
    endloop
  endfacet
  facet normal -0 0 -1
    outer loop
      vertex 0.958003 2.03586 0
      vertex 1.23607 3.80423 0
      vertex 1.70312 3.61931 0
    endloop
  endfacet
  facet normal 0 0 -1
    outer loop
      vertex 0.958003 2.03586 0
      vertex 1.70312 3.61931 0
      vertex 1.20561 1.89974 0
    endloop
  endfacet
  facet normal 0 0 1
    outer loop
      vertex 0.958003 2.03586 11.5
      vertex 1.20561 1.89974 11.5
      vertex 1.70312 3.61931 11.5
    endloop
  endfacet
  facet normal 0 0 1
    outer loop
      vertex 0.958003 2.03586 11.5
      vertex 1.70312 3.61931 11.5
      vertex 1.23607 3.80423 11.5
    endloop
  endfacet
  facet normal -0.587787 0.809015 0
    outer loop
      vertex 1.20561 -1.89974 0
      vertex 1.20561 -1.89974 11.5
      vertex 1.4342 -1.73365 0
    endloop
  endfacet
  facet normal 0 0 -1
    outer loop
      vertex 1.20561 -1.89974 0
      vertex 1.4342 -1.73365 0
      vertex 2.14331 -3.37731 0
    endloop
  endfacet
  facet normal 0 0 -1
    outer loop
      vertex 1.20561 -1.89974 0
      vertex 2.14331 -3.37731 0
      vertex 1.70312 -3.61931 0
    endloop
  endfacet
  facet normal -0.587787 0.809015 0
    outer loop
      vertex 1.20561 -1.89974 11.5
      vertex 1.4342 -1.73365 11.5
      vertex 1.4342 -1.73365 0
    endloop
  endfacet
  facet normal 0 0 1
    outer loop
      vertex 1.20561 -1.89974 11.5
      vertex 1.70312 -3.61931 11.5
      vertex 2.14331 -3.37731 11.5
    endloop
  endfacet
  facet normal -0 0 1
    outer loop
      vertex 1.20561 -1.89974 11.5
      vertex 2.14331 -3.37731 11.5
      vertex 1.4342 -1.73365 11.5
    endloop
  endfacet
  facet normal -0.587787 -0.809015 -0
    outer loop
      vertex 1.20561 1.89974 0
      vertex 1.4342 1.73365 0
      vertex 1.4342 1.73365 11.5
    endloop
  endfacet
  facet normal -0.587787 -0.809015 0
    outer loop
      vertex 1.20561 1.89974 0
      vertex 1.4342 1.73365 11.5
      vertex 1.20561 1.89974 11.5
    endloop
  endfacet
  facet normal -0 0 -1
    outer loop
      vertex 1.20561 1.89974 0
      vertex 1.70312 3.61931 0
      vertex 2.14331 3.37731 0
    endloop
  endfacet
  facet normal 0 0 -1
    outer loop
      vertex 1.20561 1.89974 0
      vertex 2.14331 3.37731 0
      vertex 1.4342 1.73365 0
    endloop
  endfacet
  facet normal 0 0 1
    outer loop
      vertex 1.20561 1.89974 11.5
      vertex 1.4342 1.73365 11.5
      vertex 2.14331 3.37731 11.5
    endloop
  endfacet
  facet normal 0 0 1
    outer loop
      vertex 1.20561 1.89974 11.5
      vertex 2.14331 3.37731 11.5
      vertex 1.70312 3.61931 11.5
    endloop
  endfacet
  facet normal 0.368126 -0.929776 0
    outer loop
      vertex 1.23607 -3.80423 0
      vertex 1.70312 -3.61931 0
      vertex 1.70312 -3.61931 11.5
    endloop
  endfacet
  facet normal 0.368126 -0.929776 0
    outer loop
      vertex 1.23607 -3.80423 0
      vertex 1.70312 -3.61931 11.5
      vertex 1.23607 -3.80423 11.5
    endloop
  endfacet
  facet normal 0.368126 0.929776 0
    outer loop
      vertex 1.23607 3.80423 0
      vertex 1.23607 3.80423 11.5
      vertex 1.70312 3.61931 0
    endloop
  endfacet
  facet normal 0.368126 0.929776 -0
    outer loop
      vertex 1.23607 3.80423 11.5
      vertex 1.70312 3.61931 11.5
      vertex 1.70312 3.61931 0
    endloop
  endfacet
  facet normal -0.684546 0.72897 0
    outer loop
      vertex 1.4342 -1.73365 0
      vertex 1.4342 -1.73365 11.5
      vertex 1.64018 -1.54023 0
    endloop
  endfacet
  facet normal 0 0 -1
    outer loop
      vertex 1.4342 -1.73365 0
      vertex 1.64018 -1.54023 0
      vertex 2.5497 -3.08205 0
    endloop
  endfacet
  facet normal 0 0 -1
    outer loop
      vertex 1.4342 -1.73365 0
      vertex 2.5497 -3.08205 0
      vertex 2.14331 -3.37731 0
    endloop
  endfacet
  facet normal -0.684546 0.72897 0
    outer loop
      vertex 1.4342 -1.73365 11.5
      vertex 1.64018 -1.54023 11.5
      vertex 1.64018 -1.54023 0
    endloop
  endfacet
  facet normal 0 0 1
    outer loop
      vertex 1.4342 -1.73365 11.5
      vertex 2.14331 -3.37731 11.5
      vertex 2.5497 -3.08205 11.5
    endloop
  endfacet
  facet normal -0 0 1
    outer loop
      vertex 1.4342 -1.73365 11.5
      vertex 2.5497 -3.08205 11.5
      vertex 1.64018 -1.54023 11.5
    endloop
  endfacet
  facet normal -0.684546 -0.72897 -0
    outer loop
      vertex 1.4342 1.73365 0
      vertex 1.64018 1.54023 0
      vertex 1.64018 1.54023 11.5
    endloop
  endfacet
  facet normal -0.684546 -0.72897 0
    outer loop
      vertex 1.4342 1.73365 0
      vertex 1.64018 1.54023 11.5
      vertex 1.4342 1.73365 11.5
    endloop
  endfacet
  facet normal -0 0 -1
    outer loop
      vertex 1.4342 1.73365 0
      vertex 2.14331 3.37731 0
      vertex 2.5497 3.08205 0
    endloop
  endfacet
  facet normal 0 0 -1
    outer loop
      vertex 1.4342 1.73365 0
      vertex 2.5497 3.08205 0
      vertex 1.64018 1.54023 0
    endloop
  endfacet
  facet normal 0 0 1
    outer loop
      vertex 1.4342 1.73365 11.5
      vertex 1.64018 1.54023 11.5
      vertex 2.5497 3.08205 11.5
    endloop
  endfacet
  facet normal 0 0 1
    outer loop
      vertex 1.4342 1.73365 11.5
      vertex 2.5497 3.08205 11.5
      vertex 2.14331 3.37731 11.5
    endloop
  endfacet
  facet normal -0.770513 0.637424 0
    outer loop
      vertex 1.64018 -1.54023 0
      vertex 1.64018 -1.54023 11.5
      vertex 1.82029 -1.32252 11.5
    endloop
  endfacet
  facet normal 0 0 -1
    outer loop
      vertex 1.64018 -1.54023 0
      vertex 1.82029 -1.32252 0
      vertex 2.91587 -2.73819 0
    endloop
  endfacet
  facet normal -0.770513 0.637424 0
    outer loop
      vertex 1.64018 -1.54023 0
      vertex 1.82029 -1.32252 11.5
      vertex 1.82029 -1.32252 0
    endloop
  endfacet
  facet normal 0 0 -1
    outer loop
      vertex 1.64018 -1.54023 0
      vertex 2.91587 -2.73819 0
      vertex 2.5497 -3.08205 0
    endloop
  endfacet
  facet normal 0 0 1
    outer loop
      vertex 1.64018 -1.54023 11.5
      vertex 2.5497 -3.08205 11.5
      vertex 2.91587 -2.73819 11.5
    endloop
  endfacet
  facet normal -0 0 1
    outer loop
      vertex 1.64018 -1.54023 11.5
      vertex 2.91587 -2.73819 11.5
      vertex 1.82029 -1.32252 11.5
    endloop
  endfacet
  facet normal -0.770513 -0.637424 0
    outer loop
      vertex 1.64018 1.54023 0
      vertex 1.82029 1.32252 0
      vertex 1.64018 1.54023 11.5
    endloop
  endfacet
  facet normal -0 0 -1
    outer loop
      vertex 1.64018 1.54023 0
      vertex 2.5497 3.08205 0
      vertex 2.91587 2.73819 0
    endloop
  endfacet
  facet normal 0 0 -1
    outer loop
      vertex 1.64018 1.54023 0
      vertex 2.91587 2.73819 0
      vertex 1.82029 1.32252 0
    endloop
  endfacet
  facet normal -0.770513 -0.637424 0
    outer loop
      vertex 1.64018 1.54023 11.5
      vertex 1.82029 1.32252 0
      vertex 1.82029 1.32252 11.5
    endloop
  endfacet
  facet normal 0 0 1
    outer loop
      vertex 1.64018 1.54023 11.5
      vertex 1.82029 1.32252 11.5
      vertex 2.91587 2.73819 11.5
    endloop
  endfacet
  facet normal 0 0 1
    outer loop
      vertex 1.64018 1.54023 11.5
      vertex 2.91587 2.73819 11.5
      vertex 2.5497 3.08205 11.5
    endloop
  endfacet
  facet normal 0.481754 -0.876307 0
    outer loop
      vertex 1.70312 -3.61931 0
      vertex 2.14331 -3.37731 0
      vertex 2.14331 -3.37731 11.5
    endloop
  endfacet
  facet normal 0.481754 -0.876307 0
    outer loop
      vertex 1.70312 -3.61931 0
      vertex 2.14331 -3.37731 11.5
      vertex 1.70312 -3.61931 11.5
    endloop
  endfacet
  facet normal 0.481754 0.876307 0
    outer loop
      vertex 1.70312 3.61931 0
      vertex 1.70312 3.61931 11.5
      vertex 2.14331 3.37731 0
    endloop
  endfacet
  facet normal 0.481754 0.876307 -0
    outer loop
      vertex 1.70312 3.61931 11.5
      vertex 2.14331 3.37731 11.5
      vertex 2.14331 3.37731 0
    endloop
  endfacet
  facet normal -0.844328 0.535826 0
    outer loop
      vertex 1.82029 -1.32252 0
      vertex 1.82029 -1.32252 11.5
      vertex 1.97169 -1.08395 11.5
    endloop
  endfacet
  facet normal 0 0 -1
    outer loop
      vertex 1.82029 -1.32252 0
      vertex 1.97169 -1.08395 0
      vertex 3.23607 -2.35114 0
    endloop
  endfacet
  facet normal -0.844328 0.535826 0
    outer loop
      vertex 1.82029 -1.32252 0
      vertex 1.97169 -1.08395 11.5
      vertex 1.97169 -1.08395 0
    endloop
  endfacet
  facet normal 0 0 -1
    outer loop
      vertex 1.82029 -1.32252 0
      vertex 3.23607 -2.35114 0
      vertex 2.91587 -2.73819 0
    endloop
  endfacet
  facet normal 0 0 1
    outer loop
      vertex 1.82029 -1.32252 11.5
      vertex 2.91587 -2.73819 11.5
      vertex 3.23607 -2.35114 11.5
    endloop
  endfacet
  facet normal -0 0 1
    outer loop
      vertex 1.82029 -1.32252 11.5
      vertex 3.23607 -2.35114 11.5
      vertex 1.97169 -1.08395 11.5
    endloop
  endfacet
  facet normal -0.844328 -0.535826 0
    outer loop
      vertex 1.82029 1.32252 0
      vertex 1.97169 1.08395 0
      vertex 1.82029 1.32252 11.5
    endloop
  endfacet
  facet normal -0 0 -1
    outer loop
      vertex 1.82029 1.32252 0
      vertex 2.91587 2.73819 0
      vertex 3.23607 2.35114 0
    endloop
  endfacet
  facet normal 0 0 -1
    outer loop
      vertex 1.82029 1.32252 0
      vertex 3.23607 2.35114 0
      vertex 1.97169 1.08395 0
    endloop
  endfacet
  facet normal -0.844328 -0.535826 0
    outer loop
      vertex 1.82029 1.32252 11.5
      vertex 1.97169 1.08395 0
      vertex 1.97169 1.08395 11.5
    endloop
  endfacet
  facet normal 0 0 1
    outer loop
      vertex 1.82029 1.32252 11.5
      vertex 1.97169 1.08395 11.5
      vertex 3.23607 2.35114 11.5
    endloop
  endfacet
  facet normal 0 0 1
    outer loop
      vertex 1.82029 1.32252 11.5
      vertex 3.23607 2.35114 11.5
      vertex 2.91587 2.73819 11.5
    endloop
  endfacet
  facet normal -0.904827 0.425779 0
    outer loop
      vertex 1.97169 -1.08395 0
      vertex 1.97169 -1.08395 11.5
      vertex 2.092 -0.828279 11.5
    endloop
  endfacet
  facet normal 0 0 -1
    outer loop
      vertex 1.97169 -1.08395 0
      vertex 2.092 -0.828279 0
      vertex 3.50523 -1.92701 0
    endloop
  endfacet
  facet normal -0.904827 0.425779 0
    outer loop
      vertex 1.97169 -1.08395 0
      vertex 2.092 -0.828279 11.5
      vertex 2.092 -0.828279 0
    endloop
  endfacet
  facet normal 0 0 -1
    outer loop
      vertex 1.97169 -1.08395 0
      vertex 3.50523 -1.92701 0
      vertex 3.23607 -2.35114 0
    endloop
  endfacet
  facet normal 0 0 1
    outer loop
      vertex 1.97169 -1.08395 11.5
      vertex 3.23607 -2.35114 11.5
      vertex 3.50523 -1.92701 11.5
    endloop
  endfacet
  facet normal -0 0 1
    outer loop
      vertex 1.97169 -1.08395 11.5
      vertex 3.50523 -1.92701 11.5
      vertex 2.092 -0.828279 11.5
    endloop
  endfacet
  facet normal -0.904827 -0.425779 0
    outer loop
      vertex 1.97169 1.08395 0
      vertex 2.092 0.828279 0
      vertex 1.97169 1.08395 11.5
    endloop
  endfacet
  facet normal -0 0 -1
    outer loop
      vertex 1.97169 1.08395 0
      vertex 3.23607 2.35114 0
      vertex 3.50523 1.92701 0
    endloop
  endfacet
  facet normal 0 0 -1
    outer loop
      vertex 1.97169 1.08395 0
      vertex 3.50523 1.92701 0
      vertex 2.092 0.828279 0
    endloop
  endfacet
  facet normal -0.904827 -0.425779 0
    outer loop
      vertex 1.97169 1.08395 11.5
      vertex 2.092 0.828279 0
      vertex 2.092 0.828279 11.5
    endloop
  endfacet
  facet normal 0 0 1
    outer loop
      vertex 1.97169 1.08395 11.5
      vertex 2.092 0.828279 11.5
      vertex 3.50523 1.92701 11.5
    endloop
  endfacet
  facet normal 0 0 1
    outer loop
      vertex 1.97169 1.08395 11.5
      vertex 3.50523 1.92701 11.5
      vertex 3.23607 2.35114 11.5
    endloop
  endfacet
  facet normal -0.951056 0.309019 0
    outer loop
      vertex 2.092 -0.828279 0
      vertex 2.092 -0.828279 11.5
      vertex 2.17931 -0.559552 11.5
    endloop
  endfacet
  facet normal 0 0 -1
    outer loop
      vertex 2.092 -0.828279 0
      vertex 2.17931 -0.559552 0
      vertex 3.71911 -1.4725 0
    endloop
  endfacet
  facet normal -0.951056 0.309019 0
    outer loop
      vertex 2.092 -0.828279 0
      vertex 2.17931 -0.559552 11.5
      vertex 2.17931 -0.559552 0
    endloop
  endfacet
  facet normal 0 0 -1
    outer loop
      vertex 2.092 -0.828279 0
      vertex 3.71911 -1.4725 0
      vertex 3.50523 -1.92701 0
    endloop
  endfacet
  facet normal 0 0 1
    outer loop
      vertex 2.092 -0.828279 11.5
      vertex 3.50523 -1.92701 11.5
      vertex 3.71911 -1.4725 11.5
    endloop
  endfacet
  facet normal -0 0 1
    outer loop
      vertex 2.092 -0.828279 11.5
      vertex 3.71911 -1.4725 11.5
      vertex 2.17931 -0.559552 11.5
    endloop
  endfacet
  facet normal -0.951056 -0.309019 0
    outer loop
      vertex 2.092 0.828279 0
      vertex 2.17931 0.559552 0
      vertex 2.092 0.828279 11.5
    endloop
  endfacet
  facet normal -0 0 -1
    outer loop
      vertex 2.092 0.828279 0
      vertex 3.50523 1.92701 0
      vertex 3.71911 1.4725 0
    endloop
  endfacet
  facet normal 0 0 -1
    outer loop
      vertex 2.092 0.828279 0
      vertex 3.71911 1.4725 0
      vertex 2.17931 0.559552 0
    endloop
  endfacet
  facet normal -0.951056 -0.309019 0
    outer loop
      vertex 2.092 0.828279 11.5
      vertex 2.17931 0.559552 0
      vertex 2.17931 0.559552 11.5
    endloop
  endfacet
  facet normal 0 0 1
    outer loop
      vertex 2.092 0.828279 11.5
      vertex 2.17931 0.559552 11.5
      vertex 3.71911 1.4725 11.5
    endloop
  endfacet
  facet normal 0 0 1
    outer loop
      vertex 2.092 0.828279 11.5
      vertex 3.71911 1.4725 11.5
      vertex 3.50523 1.92701 11.5
    endloop
  endfacet
  facet normal 0.587785 -0.809017 0
    outer loop
      vertex 2.14331 -3.37731 0
      vertex 2.5497 -3.08205 0
      vertex 2.5497 -3.08205 11.5
    endloop
  endfacet
  facet normal 0.587785 -0.809017 0
    outer loop
      vertex 2.14331 -3.37731 0
      vertex 2.5497 -3.08205 11.5
      vertex 2.14331 -3.37731 11.5
    endloop
  endfacet
  facet normal 0.587785 0.809017 0
    outer loop
      vertex 2.14331 3.37731 0
      vertex 2.14331 3.37731 11.5
      vertex 2.5497 3.08205 0
    endloop
  endfacet
  facet normal 0.587785 0.809017 -0
    outer loop
      vertex 2.14331 3.37731 11.5
      vertex 2.5497 3.08205 11.5
      vertex 2.5497 3.08205 0
    endloop
  endfacet
  facet normal -0.982287 0.187382 0
    outer loop
      vertex 2.17931 -0.559552 0
      vertex 2.17931 -0.559552 11.5
      vertex 2.23226 -0.282 11.5
    endloop
  endfacet
  facet normal 0 0 -1
    outer loop
      vertex 2.17931 -0.559552 0
      vertex 2.23226 -0.282 0
      vertex 3.87433 -0.994759 0
    endloop
  endfacet
  facet normal -0.982287 0.187382 0
    outer loop
      vertex 2.17931 -0.559552 0
      vertex 2.23226 -0.282 11.5
      vertex 2.23226 -0.282 0
    endloop
  endfacet
  facet normal 0 0 -1
    outer loop
      vertex 2.17931 -0.559552 0
      vertex 3.87433 -0.994759 0
      vertex 3.71911 -1.4725 0
    endloop
  endfacet
  facet normal 0 0 1
    outer loop
      vertex 2.17931 -0.559552 11.5
      vertex 3.71911 -1.4725 11.5
      vertex 3.87433 -0.994759 11.5
    endloop
  endfacet
  facet normal -0 0 1
    outer loop
      vertex 2.17931 -0.559552 11.5
      vertex 3.87433 -0.994759 11.5
      vertex 2.23226 -0.282 11.5
    endloop
  endfacet
  facet normal -0.982287 -0.187382 0
    outer loop
      vertex 2.17931 0.559552 0
      vertex 2.23226 0.282 0
      vertex 2.17931 0.559552 11.5
    endloop
  endfacet
  facet normal -0 0 -1
    outer loop
      vertex 2.17931 0.559552 0
      vertex 3.71911 1.4725 0
      vertex 3.87433 0.994759 0
    endloop
  endfacet
  facet normal 0 0 -1
    outer loop
      vertex 2.17931 0.559552 0
      vertex 3.87433 0.994759 0
      vertex 2.23226 0.282 0
    endloop
  endfacet
  facet normal -0.982287 -0.187382 0
    outer loop
      vertex 2.17931 0.559552 11.5
      vertex 2.23226 0.282 0
      vertex 2.23226 0.282 11.5
    endloop
  endfacet
  facet normal 0 0 1
    outer loop
      vertex 2.17931 0.559552 11.5
      vertex 2.23226 0.282 11.5
      vertex 3.87433 0.994759 11.5
    endloop
  endfacet
  facet normal 0 0 1
    outer loop
      vertex 2.17931 0.559552 11.5
      vertex 3.87433 0.994759 11.5
      vertex 3.71911 1.4725 11.5
    endloop
  endfacet
  facet normal -0.998027 0.0627914 0
    outer loop
      vertex 2.23226 -0.282 0
      vertex 2.23226 -0.282 11.5
      vertex 2.25 0 11.5
    endloop
  endfacet
  facet normal 0 0 -1
    outer loop
      vertex 2.23226 -0.282 0
      vertex 2.25 0 0
      vertex 3.96846 -0.501332 0
    endloop
  endfacet
  facet normal -0.998027 0.0627914 0
    outer loop
      vertex 2.23226 -0.282 0
      vertex 2.25 0 11.5
      vertex 2.25 0 0
    endloop
  endfacet
  facet normal 0 0 -1
    outer loop
      vertex 2.23226 -0.282 0
      vertex 3.96846 -0.501332 0
      vertex 3.87433 -0.994759 0
    endloop
  endfacet
  facet normal 0 0 1
    outer loop
      vertex 2.23226 -0.282 11.5
      vertex 3.87433 -0.994759 11.5
      vertex 3.96846 -0.501332 11.5
    endloop
  endfacet
  facet normal -0 0 1
    outer loop
      vertex 2.23226 -0.282 11.5
      vertex 3.96846 -0.501332 11.5
      vertex 2.25 0 11.5
    endloop
  endfacet
  facet normal -0.998027 -0.0627914 0
    outer loop
      vertex 2.23226 0.282 0
      vertex 2.25 0 0
      vertex 2.23226 0.282 11.5
    endloop
  endfacet
  facet normal -0 0 -1
    outer loop
      vertex 2.23226 0.282 0
      vertex 3.87433 0.994759 0
      vertex 3.96846 0.501332 0
    endloop
  endfacet
  facet normal 0 0 -1
    outer loop
      vertex 2.23226 0.282 0
      vertex 3.96846 0.501332 0
      vertex 2.25 0 0
    endloop
  endfacet
  facet normal -0.998027 -0.0627914 0
    outer loop
      vertex 2.23226 0.282 11.5
      vertex 2.25 0 0
      vertex 2.25 0 11.5
    endloop
  endfacet
  facet normal 0 0 1
    outer loop
      vertex 2.23226 0.282 11.5
      vertex 2.25 0 11.5
      vertex 3.96846 0.501332 11.5
    endloop
  endfacet
  facet normal 0 0 1
    outer loop
      vertex 2.23226 0.282 11.5
      vertex 3.96846 0.501332 11.5
      vertex 3.87433 0.994759 11.5
    endloop
  endfacet
  facet normal 0 0 -1
    outer loop
      vertex 2.25 0 0
      vertex 3.96846 0.501332 0
      vertex 4 0 0
    endloop
  endfacet
  facet normal 0 0 -1
    outer loop
      vertex 2.25 0 0
      vertex 4 0 0
      vertex 3.96846 -0.501332 0
    endloop
  endfacet
  facet normal 0 0 1
    outer loop
      vertex 2.25 0 11.5
      vertex 3.96846 -0.501332 11.5
      vertex 4 0 11.5
    endloop
  endfacet
  facet normal 0 0 1
    outer loop
      vertex 2.25 0 11.5
      vertex 4 0 11.5
      vertex 3.96846 0.501332 11.5
    endloop
  endfacet
  facet normal 0.684546 -0.72897 0
    outer loop
      vertex 2.5497 -3.08205 0
      vertex 2.91587 -2.73819 0
      vertex 2.91587 -2.73819 11.5
    endloop
  endfacet
  facet normal 0.684546 -0.72897 0
    outer loop
      vertex 2.5497 -3.08205 0
      vertex 2.91587 -2.73819 11.5
      vertex 2.5497 -3.08205 11.5
    endloop
  endfacet
  facet normal 0.684546 0.72897 0
    outer loop
      vertex 2.5497 3.08205 0
      vertex 2.5497 3.08205 11.5
      vertex 2.91587 2.73819 0
    endloop
  endfacet
  facet normal 0.684546 0.72897 -0
    outer loop
      vertex 2.5497 3.08205 11.5
      vertex 2.91587 2.73819 11.5
      vertex 2.91587 2.73819 0
    endloop
  endfacet
  facet normal 0.770513 -0.637424 0
    outer loop
      vertex 2.91587 -2.73819 0
      vertex 3.23607 -2.35114 0
      vertex 2.91587 -2.73819 11.5
    endloop
  endfacet
  facet normal 0.770513 -0.637424 0
    outer loop
      vertex 2.91587 -2.73819 11.5
      vertex 3.23607 -2.35114 0
      vertex 3.23607 -2.35114 11.5
    endloop
  endfacet
  facet normal 0.770513 0.637424 0
    outer loop
      vertex 2.91587 2.73819 0
      vertex 2.91587 2.73819 11.5
      vertex 3.23607 2.35114 11.5
    endloop
  endfacet
  facet normal 0.770513 0.637424 0
    outer loop
      vertex 2.91587 2.73819 0
      vertex 3.23607 2.35114 11.5
      vertex 3.23607 2.35114 0
    endloop
  endfacet
  facet normal 0.844328 -0.535826 0
    outer loop
      vertex 3.23607 -2.35114 0
      vertex 3.50523 -1.92701 0
      vertex 3.23607 -2.35114 11.5
    endloop
  endfacet
  facet normal 0.844328 -0.535826 0
    outer loop
      vertex 3.23607 -2.35114 11.5
      vertex 3.50523 -1.92701 0
      vertex 3.50523 -1.92701 11.5
    endloop
  endfacet
  facet normal 0.844328 0.535826 0
    outer loop
      vertex 3.23607 2.35114 0
      vertex 3.23607 2.35114 11.5
      vertex 3.50523 1.92701 11.5
    endloop
  endfacet
  facet normal 0.844328 0.535826 0
    outer loop
      vertex 3.23607 2.35114 0
      vertex 3.50523 1.92701 11.5
      vertex 3.50523 1.92701 0
    endloop
  endfacet
  facet normal 0.904827 -0.42578 0
    outer loop
      vertex 3.50523 -1.92701 0
      vertex 3.71911 -1.4725 0
      vertex 3.50523 -1.92701 11.5
    endloop
  endfacet
  facet normal 0.904827 -0.42578 0
    outer loop
      vertex 3.50523 -1.92701 11.5
      vertex 3.71911 -1.4725 0
      vertex 3.71911 -1.4725 11.5
    endloop
  endfacet
  facet normal 0.904827 0.42578 0
    outer loop
      vertex 3.50523 1.92701 0
      vertex 3.50523 1.92701 11.5
      vertex 3.71911 1.4725 11.5
    endloop
  endfacet
  facet normal 0.904827 0.42578 0
    outer loop
      vertex 3.50523 1.92701 0
      vertex 3.71911 1.4725 11.5
      vertex 3.71911 1.4725 0
    endloop
  endfacet
  facet normal 0.951057 -0.309017 0
    outer loop
      vertex 3.71911 -1.4725 0
      vertex 3.87433 -0.994759 0
      vertex 3.71911 -1.4725 11.5
    endloop
  endfacet
  facet normal 0.951057 -0.309017 0
    outer loop
      vertex 3.71911 -1.4725 11.5
      vertex 3.87433 -0.994759 0
      vertex 3.87433 -0.994759 11.5
    endloop
  endfacet
  facet normal 0.951057 0.309017 0
    outer loop
      vertex 3.71911 1.4725 0
      vertex 3.71911 1.4725 11.5
      vertex 3.87433 0.994759 11.5
    endloop
  endfacet
  facet normal 0.951057 0.309017 0
    outer loop
      vertex 3.71911 1.4725 0
      vertex 3.87433 0.994759 11.5
      vertex 3.87433 0.994759 0
    endloop
  endfacet
  facet normal 0.982287 -0.187381 0
    outer loop
      vertex 3.87433 -0.994759 0
      vertex 3.96846 -0.501332 0
      vertex 3.87433 -0.994759 11.5
    endloop
  endfacet
  facet normal 0.982287 -0.187381 0
    outer loop
      vertex 3.87433 -0.994759 11.5
      vertex 3.96846 -0.501332 0
      vertex 3.96846 -0.501332 11.5
    endloop
  endfacet
  facet normal 0.982287 0.187381 0
    outer loop
      vertex 3.87433 0.994759 0
      vertex 3.87433 0.994759 11.5
      vertex 3.96846 0.501332 11.5
    endloop
  endfacet
  facet normal 0.982287 0.187381 0
    outer loop
      vertex 3.87433 0.994759 0
      vertex 3.96846 0.501332 11.5
      vertex 3.96846 0.501332 0
    endloop
  endfacet
  facet normal 0.998027 -0.0627918 0
    outer loop
      vertex 3.96846 -0.501332 0
      vertex 4 0 0
      vertex 3.96846 -0.501332 11.5
    endloop
  endfacet
  facet normal 0.998027 -0.0627918 0
    outer loop
      vertex 3.96846 -0.501332 11.5
      vertex 4 0 0
      vertex 4 0 11.5
    endloop
  endfacet
  facet normal 0.998027 0.0627918 0
    outer loop
      vertex 3.96846 0.501332 0
      vertex 3.96846 0.501332 11.5
      vertex 4 0 11.5
    endloop
  endfacet
  facet normal 0.998027 0.0627918 0
    outer loop
      vertex 3.96846 0.501332 0
      vertex 4 0 11.5
      vertex 4 0 0
    endloop
  endfacet
endsolid model
