solid model
  facet normal -1 0 0
    outer loop
      vertex 10 30.85 0
      vertex 10 30.85 20
      vertex 10 38.0105 10.3328
    endloop
  endfacet
  facet normal -1 -0 0
    outer loop
      vertex 10 30.85 0
      vertex 10 38.0105 10.3328
      vertex 10 38.0105 9.66721
    endloop
  endfacet
  facet normal -1 -0 0
    outer loop
      vertex 10 30.85 0
      vertex 10 38.0105 9.66721
      vertex 10 38.0939 9.00688
    endloop
  endfacet
  facet normal -1 -0 0
    outer loop
      vertex 10 30.85 0
      vertex 10 38.0939 9.00688
      vertex 10 38.2594 8.36221
    endloop
  endfacet
  facet normal -1 -0 0
    outer loop
      vertex 10 30.85 0
      vertex 10 38.2594 8.36221
      vertex 10 38.5044 7.74337
    endloop
  endfacet
  facet normal -1 -0 0
    outer loop
      vertex 10 30.85 0
      vertex 10 38.5044 7.74337
      vertex 10 38.8251 7.16012
    endloop
  endfacet
  facet normal -1 -0 0
    outer loop
      vertex 10 30.85 0
      vertex 10 38.8251 7.16012
      vertex 10 39.2163 6.62165
    endloop
  endfacet
  facet normal -1 -0 0
    outer loop
      vertex 10 30.85 0
      vertex 10 39.2163 6.62165
      vertex 10 39.6719 6.13647
    endloop
  endfacet
  facet normal -1 -0 0
    outer loop
      vertex 10 30.85 0
      vertex 10 39.6719 6.13647
      vertex 10 40.1847 5.71221
    endloop
  endfacet
  facet normal -1 0 0
    outer loop
      vertex 10 30.85 0
      vertex 10 40.1847 5.71221
      vertex 10 43.3 0
    endloop
  endfacet
  facet normal -0 0 -1
    outer loop
      vertex 10 30.85 0
      vertex 10 43.3 0
      vertex 30 43.3 0
    endloop
  endfacet
  facet normal 0 -1 0
    outer loop
      vertex 10 30.85 0
      vertex 16.7 30.85 10
      vertex 10 30.85 20
    endloop
  endfacet
  facet normal 0 -1 -0
    outer loop
      vertex 10 30.85 0
      vertex 16.726 30.85 9.5864
      vertex 16.7 30.85 10
    endloop
  endfacet
  facet normal 0 -1 -0
    outer loop
      vertex 10 30.85 0
      vertex 16.8037 30.85 9.17932
      vertex 16.726 30.85 9.5864
    endloop
  endfacet
  facet normal 0 -1 -0
    outer loop
      vertex 10 30.85 0
      vertex 16.9317 30.85 8.78519
      vertex 16.8037 30.85 9.17932
    endloop
  endfacet
  facet normal 0 -1 -0
    outer loop
      vertex 10 30.85 0
      vertex 17.1082 30.85 8.41021
      vertex 16.9317 30.85 8.78519
    endloop
  endfacet
  facet normal 0 -1 -0
    outer loop
      vertex 10 30.85 0
      vertex 17.3302 30.85 8.06031
      vertex 17.1082 30.85 8.41021
    endloop
  endfacet
  facet normal 0 -1 -0
    outer loop
      vertex 10 30.85 0
      vertex 17.5944 30.85 7.74099
      vertex 17.3302 30.85 8.06031
    endloop
  endfacet
  facet normal 0 -1 -0
    outer loop
      vertex 10 30.85 0
      vertex 17.8965 30.85 7.45731
      vertex 17.5944 30.85 7.74099
    endloop
  endfacet
  facet normal 0 -1 -0
    outer loop
      vertex 10 30.85 0
      vertex 18.2318 30.85 7.21372
      vertex 17.8965 30.85 7.45731
    endloop
  endfacet
  facet normal 0 -1 -0
    outer loop
      vertex 10 30.85 0
      vertex 18.5949 30.85 7.01407
      vertex 18.2318 30.85 7.21372
    endloop
  endfacet
  facet normal 0 -1 -0
    outer loop
      vertex 10 30.85 0
      vertex 18.9802 30.85 6.86151
      vertex 18.5949 30.85 7.01407
    endloop
  endfacet
  facet normal 0 -1 -0
    outer loop
      vertex 10 30.85 0
      vertex 19.3816 30.85 6.75845
      vertex 18.9802 30.85 6.86151
    endloop
  endfacet
  facet normal 0 -1 -0
    outer loop
      vertex 10 30.85 0
      vertex 19.7928 30.85 6.70651
      vertex 19.3816 30.85 6.75845
    endloop
  endfacet
  facet normal 0 -1 -0
    outer loop
      vertex 10 30.85 0
      vertex 20.2072 30.85 6.70651
      vertex 19.7928 30.85 6.70651
    endloop
  endfacet
  facet normal 0 -1 0
    outer loop
      vertex 10 30.85 0
      vertex 30 30.85 0
      vertex 20.2072 30.85 6.70651
    endloop
  endfacet
  facet normal 0 0 -1
    outer loop
      vertex 10 30.85 0
      vertex 30 43.3 0
      vertex 30 30.85 0
    endloop
  endfacet
  facet normal -1 0 0
    outer loop
      vertex 10 30.85 20
      vertex 10 38.0939 10.9931
      vertex 10 38.0105 10.3328
    endloop
  endfacet
  facet normal -1 0 0
    outer loop
      vertex 10 30.85 20
      vertex 10 38.2594 11.6378
      vertex 10 38.0939 10.9931
    endloop
  endfacet
  facet normal -1 0 0
    outer loop
      vertex 10 30.85 20
      vertex 10 38.5044 12.2566
      vertex 10 38.2594 11.6378
    endloop
  endfacet
  facet normal -1 0 0
    outer loop
      vertex 10 30.85 20
      vertex 10 38.8251 12.8399
      vertex 10 38.5044 12.2566
    endloop
  endfacet
  facet normal -1 0 0
    outer loop
      vertex 10 30.85 20
      vertex 10 39.2163 13.3783
      vertex 10 38.8251 12.8399
    endloop
  endfacet
  facet normal -1 0 0
    outer loop
      vertex 10 30.85 20
      vertex 10 39.6719 13.8635
      vertex 10 39.2163 13.3783
    endloop
  endfacet
  facet normal -1 0 0
    outer loop
      vertex 10 30.85 20
      vertex 10 40.1847 14.2878
      vertex 10 39.6719 13.8635
    endloop
  endfacet
  facet normal -1 0 0
    outer loop
      vertex 10 30.85 20
      vertex 10 43.3 20
      vertex 10 40.1847 14.2878
    endloop
  endfacet
  facet normal 0 -1 0
    outer loop
      vertex 10 30.85 20
      vertex 16.7 30.85 10
      vertex 16.726 30.85 10.4136
    endloop
  endfacet
  facet normal 0 -1 0
    outer loop
      vertex 10 30.85 20
      vertex 16.726 30.85 10.4136
      vertex 16.8037 30.85 10.8207
    endloop
  endfacet
  facet normal 0 -1 0
    outer loop
      vertex 10 30.85 20
      vertex 16.8037 30.85 10.8207
      vertex 16.9317 30.85 11.2148
    endloop
  endfacet
  facet normal 0 -1 0
    outer loop
      vertex 10 30.85 20
      vertex 16.9317 30.85 11.2148
      vertex 17.1082 30.85 11.5898
    endloop
  endfacet
  facet normal 0 -1 0
    outer loop
      vertex 10 30.85 20
      vertex 17.1082 30.85 11.5898
      vertex 17.3302 30.85 11.9397
    endloop
  endfacet
  facet normal 0 -1 0
    outer loop
      vertex 10 30.85 20
      vertex 17.3302 30.85 11.9397
      vertex 17.5944 30.85 12.259
    endloop
  endfacet
  facet normal 0 -1 0
    outer loop
      vertex 10 30.85 20
      vertex 17.5944 30.85 12.259
      vertex 17.8965 30.85 12.5427
    endloop
  endfacet
  facet normal 0 -1 0
    outer loop
      vertex 10 30.85 20
      vertex 17.8965 30.85 12.5427
      vertex 18.2318 30.85 12.7863
    endloop
  endfacet
  facet normal 0 -1 0
    outer loop
      vertex 10 30.85 20
      vertex 18.2318 30.85 12.7863
      vertex 18.5949 30.85 12.9859
    endloop
  endfacet
  facet normal 0 -1 0
    outer loop
      vertex 10 30.85 20
      vertex 18.5949 30.85 12.9859
      vertex 18.9802 30.85 13.1385
    endloop
  endfacet
  facet normal 0 -1 0
    outer loop
      vertex 10 30.85 20
      vertex 18.9802 30.85 13.1385
      vertex 19.3816 30.85 13.2415
    endloop
  endfacet
  facet normal 0 -1 0
    outer loop
      vertex 10 30.85 20
      vertex 19.3816 30.85 13.2415
      vertex 19.7928 30.85 13.2935
    endloop
  endfacet
  facet normal 0 -1 0
    outer loop
      vertex 10 30.85 20
      vertex 19.7928 30.85 13.2935
      vertex 30 30.85 20
    endloop
  endfacet
  facet normal 0 0 1
    outer loop
      vertex 10 30.85 20
      vertex 30 30.85 20
      vertex 10 43.3 20
    endloop
  endfacet
  facet normal 0 0.992115 -0.125329
    outer loop
      vertex 10 38.0105 10.3328
      vertex 10 38.0939 10.9931
      vertex 18.4378 38.0105 10.3328
    endloop
  endfacet
  facet normal 0 1 -0
    outer loop
      vertex 10 38.0105 10.3328
      vertex 18.4096 38.0105 10.1524
      vertex 18.4 38.0105 10
    endloop
  endfacet
  facet normal 0 1 -0
    outer loop
      vertex 10 38.0105 10.3328
      vertex 18.4126 38.0105 10.2005
      vertex 18.4096 38.0105 10.1524
    endloop
  endfacet
  facet normal 0 1 -0
    outer loop
      vertex 10 38.0105 10.3328
      vertex 18.4378 38.0105 10.3328
      vertex 18.4126 38.0105 10.2005
    endloop
  endfacet
  facet normal 0 1 0
    outer loop
      vertex 10 38.0105 9.66721
      vertex 10 38.0105 10.3328
      vertex 18.4 38.0105 10
    endloop
  endfacet
  facet normal 0 1 0
    outer loop
      vertex 10 38.0105 9.66721
      vertex 18.4 38.0105 10
      vertex 18.403 38.0105 9.95191
    endloop
  endfacet
  facet normal 0 1 0
    outer loop
      vertex 10 38.0105 9.66721
      vertex 18.403 38.0105 9.95191
      vertex 18.4126 38.0105 9.79947
    endloop
  endfacet
  facet normal 0 1 0
    outer loop
      vertex 10 38.0105 9.66721
      vertex 18.4126 38.0105 9.79947
      vertex 18.4378 38.0105 9.66721
    endloop
  endfacet
  facet normal 0 0.992115 0.125329
    outer loop
      vertex 10 38.0105 9.66721
      vertex 18.4378 38.0105 9.66721
      vertex 10 38.0939 9.00688
    endloop
  endfacet
  facet normal 0 0.968583 -0.248691
    outer loop
      vertex 10 38.0939 10.9931
      vertex 10 38.2594 11.6378
      vertex 18.7491 38.0939 10.9931
    endloop
  endfacet
  facet normal 1.18881e-06 0.992117 -0.125314
    outer loop
      vertex 10 38.0939 10.9931
      vertex 18.4503 38.0187 10.3979
      vertex 18.4378 38.0105 10.3328
    endloop
  endfacet
  facet normal 3.41136e-07 0.992116 -0.125325
    outer loop
      vertex 10 38.0939 10.9931
      vertex 18.5124 38.0428 10.589
      vertex 18.4503 38.0187 10.3979
    endloop
  endfacet
  facet normal -2.33684e-07 0.992114 -0.125337
    outer loop
      vertex 10 38.0939 10.9931
      vertex 18.5979 38.0658 10.7708
      vertex 18.5124 38.0428 10.589
    endloop
  endfacet
  facet normal 1.57072e-08 0.992115 -0.125328
    outer loop
      vertex 10 38.0939 10.9931
      vertex 18.7056 38.0872 10.9405
      vertex 18.5979 38.0658 10.7708
    endloop
  endfacet
  facet normal 0 0.992115 -0.12533
    outer loop
      vertex 10 38.0939 10.9931
      vertex 18.7491 38.0939 10.9931
      vertex 18.7056 38.0872 10.9405
    endloop
  endfacet
  facet normal 1.18881e-06 0.992117 0.125314
    outer loop
      vertex 10 38.0939 9.00688
      vertex 18.4378 38.0105 9.66721
      vertex 18.4503 38.0187 9.6021
    endloop
  endfacet
  facet normal 3.41136e-07 0.992116 0.125325
    outer loop
      vertex 10 38.0939 9.00688
      vertex 18.4503 38.0187 9.6021
      vertex 18.5124 38.0428 9.411
    endloop
  endfacet
  facet normal -2.33684e-07 0.992114 0.125337
    outer loop
      vertex 10 38.0939 9.00688
      vertex 18.5124 38.0428 9.411
      vertex 18.5979 38.0658 9.22919
    endloop
  endfacet
  facet normal 1.57072e-08 0.992115 0.125328
    outer loop
      vertex 10 38.0939 9.00688
      vertex 18.5979 38.0658 9.22919
      vertex 18.7056 38.0872 9.05954
    endloop
  endfacet
  facet normal -0 0.992115 0.12533
    outer loop
      vertex 10 38.0939 9.00688
      vertex 18.7056 38.0872 9.05954
      vertex 18.7491 38.0939 9.00688
    endloop
  endfacet
  facet normal 0 0.968583 0.248691
    outer loop
      vertex 10 38.0939 9.00688
      vertex 18.7491 38.0939 9.00688
      vertex 10 38.2594 8.36221
    endloop
  endfacet
  facet normal 0 0.929776 -0.368127
    outer loop
      vertex 10 38.2594 11.6378
      vertex 10 38.5044 12.2566
      vertex 30 38.2594 11.6378
    endloop
  endfacet
  facet normal -5.91263e-07 0.968581 -0.248698
    outer loop
      vertex 10 38.2594 11.6378
      vertex 18.8336 38.1201 11.0953
      vertex 18.7491 38.0939 10.9931
    endloop
  endfacet
  facet normal -3.56695e-07 0.968582 -0.248695
    outer loop
      vertex 10 38.2594 11.6378
      vertex 18.9801 38.1554 11.2328
      vertex 18.8336 38.1201 11.0953
    endloop
  endfacet
  facet normal 1.9654e-07 0.968585 -0.248683
    outer loop
      vertex 10 38.2594 11.6378
      vertex 19.1427 38.1857 11.3509
      vertex 18.9801 38.1554 11.2328
    endloop
  endfacet
  facet normal 1.88332e-07 0.968585 -0.248683
    outer loop
      vertex 10 38.2594 11.6378
      vertex 19.3188 38.2106 11.4477
      vertex 19.1427 38.1857 11.3509
    endloop
  endfacet
  facet normal -3.73501e-07 0.968578 -0.248709
    outer loop
      vertex 10 38.2594 11.6378
      vertex 19.5056 38.2296 11.5217
      vertex 19.3188 38.2106 11.4477
    endloop
  endfacet
  facet normal 9.97604e-08 0.968588 -0.248673
    outer loop
      vertex 10 38.2594 11.6378
      vertex 19.7002 38.2424 11.5717
      vertex 19.5056 38.2296 11.5217
    endloop
  endfacet
  facet normal -4.48775e-08 0.968582 -0.248693
    outer loop
      vertex 10 38.2594 11.6378
      vertex 19.8995 38.2489 11.5968
      vertex 19.7002 38.2424 11.5717
    endloop
  endfacet
  facet normal 0 0.968585 -0.248683
    outer loop
      vertex 10 38.2594 11.6378
      vertex 20.1005 38.2489 11.5968
      vertex 19.8995 38.2489 11.5968
    endloop
  endfacet
  facet normal 0 0.968585 -0.248683
    outer loop
      vertex 10 38.2594 11.6378
      vertex 30 38.2594 11.6378
      vertex 20.1005 38.2489 11.5968
    endloop
  endfacet
  facet normal -5.91263e-07 0.968581 0.248698
    outer loop
      vertex 10 38.2594 8.36221
      vertex 18.7491 38.0939 9.00688
      vertex 18.8336 38.1201 8.90472
    endloop
  endfacet
  facet normal -3.56695e-07 0.968582 0.248695
    outer loop
      vertex 10 38.2594 8.36221
      vertex 18.8336 38.1201 8.90472
      vertex 18.9801 38.1554 8.76718
    endloop
  endfacet
  facet normal 1.9654e-07 0.968585 0.248683
    outer loop
      vertex 10 38.2594 8.36221
      vertex 18.9801 38.1554 8.76718
      vertex 19.1427 38.1857 8.64907
    endloop
  endfacet
  facet normal 1.88332e-07 0.968585 0.248683
    outer loop
      vertex 10 38.2594 8.36221
      vertex 19.1427 38.1857 8.64907
      vertex 19.3188 38.2106 8.55228
    endloop
  endfacet
  facet normal -3.73501e-07 0.968578 0.248709
    outer loop
      vertex 10 38.2594 8.36221
      vertex 19.3188 38.2106 8.55228
      vertex 19.5056 38.2296 8.47831
    endloop
  endfacet
  facet normal 9.97604e-08 0.968588 0.248673
    outer loop
      vertex 10 38.2594 8.36221
      vertex 19.5056 38.2296 8.47831
      vertex 19.7002 38.2424 8.42834
    endloop
  endfacet
  facet normal -4.48775e-08 0.968582 0.248693
    outer loop
      vertex 10 38.2594 8.36221
      vertex 19.7002 38.2424 8.42834
      vertex 19.8995 38.2489 8.40316
    endloop
  endfacet
  facet normal -0 0.968585 0.248683
    outer loop
      vertex 10 38.2594 8.36221
      vertex 19.8995 38.2489 8.40316
      vertex 30 38.2594 8.36221
    endloop
  endfacet
  facet normal 0 0.929776 0.368127
    outer loop
      vertex 10 38.2594 8.36221
      vertex 30 38.2594 8.36221
      vertex 30 38.5044 7.74337
    endloop
  endfacet
  facet normal 0 0.929776 0.368127
    outer loop
      vertex 10 38.2594 8.36221
      vertex 30 38.5044 7.74337
      vertex 10 38.5044 7.74337
    endloop
  endfacet
  facet normal 0 0.876307 -0.481752
    outer loop
      vertex 10 38.5044 12.2566
      vertex 10 38.8251 12.8399
      vertex 30 38.5044 12.2566
    endloop
  endfacet
  facet normal 0 0.929776 -0.368127
    outer loop
      vertex 10 38.5044 12.2566
      vertex 30 38.5044 12.2566
      vertex 30 38.2594 11.6378
    endloop
  endfacet
  facet normal 0 0.876307 0.481752
    outer loop
      vertex 10 38.5044 7.74337
      vertex 30 38.5044 7.74337
      vertex 30 38.8251 7.16012
    endloop
  endfacet
  facet normal 0 0.876307 0.481752
    outer loop
      vertex 10 38.5044 7.74337
      vertex 30 38.8251 7.16012
      vertex 10 38.8251 7.16012
    endloop
  endfacet
  facet normal 0 0.809018 -0.587784
    outer loop
      vertex 10 38.8251 12.8399
      vertex 10 39.2163 13.3783
      vertex 30 38.8251 12.8399
    endloop
  endfacet
  facet normal 0 0.876307 -0.481752
    outer loop
      vertex 10 38.8251 12.8399
      vertex 30 38.8251 12.8399
      vertex 30 38.5044 12.2566
    endloop
  endfacet
  facet normal 0 0.809018 0.587784
    outer loop
      vertex 10 38.8251 7.16012
      vertex 30 38.8251 7.16012
      vertex 30 39.2163 6.62165
    endloop
  endfacet
  facet normal 0 0.809018 0.587784
    outer loop
      vertex 10 38.8251 7.16012
      vertex 30 39.2163 6.62165
      vertex 10 39.2163 6.62165
    endloop
  endfacet
  facet normal 0 0.728969 -0.684547
    outer loop
      vertex 10 39.2163 13.3783
      vertex 10 39.6719 13.8635
      vertex 30 39.2163 13.3783
    endloop
  endfacet
  facet normal 0 0.809018 -0.587784
    outer loop
      vertex 10 39.2163 13.3783
      vertex 30 39.2163 13.3783
      vertex 30 38.8251 12.8399
    endloop
  endfacet
  facet normal 0 0.728969 0.684547
    outer loop
      vertex 10 39.2163 6.62165
      vertex 30 39.2163 6.62165
      vertex 30 39.6719 6.13647
    endloop
  endfacet
  facet normal 0 0.728969 0.684547
    outer loop
      vertex 10 39.2163 6.62165
      vertex 30 39.6719 6.13647
      vertex 10 39.6719 6.13647
    endloop
  endfacet
  facet normal 0 0.637422 -0.770515
    outer loop
      vertex 10 39.6719 13.8635
      vertex 10 40.1847 14.2878
      vertex 30 40.1847 14.2878
    endloop
  endfacet
  facet normal 0 0.728969 -0.684547
    outer loop
      vertex 10 39.6719 13.8635
      vertex 30 39.6719 13.8635
      vertex 30 39.2163 13.3783
    endloop
  endfacet
  facet normal 0 0.637422 -0.770515
    outer loop
      vertex 10 39.6719 13.8635
      vertex 30 40.1847 14.2878
      vertex 30 39.6719 13.8635
    endloop
  endfacet
  facet normal 0 0.637422 0.770515
    outer loop
      vertex 10 39.6719 6.13647
      vertex 30 39.6719 6.13647
      vertex 10 40.1847 5.71221
    endloop
  endfacet
  facet normal 0 0.535829 -0.844327
    outer loop
      vertex 10 40.1847 14.2878
      vertex 10 40.7467 14.6444
      vertex 30 40.7467 14.6444
    endloop
  endfacet
  facet normal -1 0 0
    outer loop
      vertex 10 40.1847 14.2878
      vertex 10 43.3 20
      vertex 10 40.7467 14.6444
    endloop
  endfacet
  facet normal 0 0.535829 -0.844327
    outer loop
      vertex 10 40.1847 14.2878
      vertex 30 40.7467 14.6444
      vertex 30 40.1847 14.2878
    endloop
  endfacet
  facet normal -1 0 0
    outer loop
      vertex 10 40.1847 5.71221
      vertex 10 40.7467 5.35557
      vertex 10 43.3 0
    endloop
  endfacet
  facet normal -0 0.637422 0.770515
    outer loop
      vertex 10 40.1847 5.71221
      vertex 30 39.6719 6.13647
      vertex 30 40.1847 5.71221
    endloop
  endfacet
  facet normal 0 0.535829 0.844327
    outer loop
      vertex 10 40.1847 5.71221
      vertex 30 40.1847 5.71221
      vertex 10 40.7467 5.35557
    endloop
  endfacet
  facet normal 0 0.425778 -0.904827
    outer loop
      vertex 10 40.7467 14.6444
      vertex 10 41.3489 14.9278
      vertex 30 41.3489 14.9278
    endloop
  endfacet
  facet normal -1 0 0
    outer loop
      vertex 10 40.7467 14.6444
      vertex 10 43.3 20
      vertex 10 41.3489 14.9278
    endloop
  endfacet
  facet normal 0 0.425778 -0.904827
    outer loop
      vertex 10 40.7467 14.6444
      vertex 30 41.3489 14.9278
      vertex 30 40.7467 14.6444
    endloop
  endfacet
  facet normal -1 0 0
    outer loop
      vertex 10 40.7467 5.35557
      vertex 10 41.3489 5.07218
      vertex 10 43.3 0
    endloop
  endfacet
  facet normal -0 0.535829 0.844327
    outer loop
      vertex 10 40.7467 5.35557
      vertex 30 40.1847 5.71221
      vertex 30 40.7467 5.35557
    endloop
  endfacet
  facet normal 0 0.425778 0.904827
    outer loop
      vertex 10 40.7467 5.35557
      vertex 30 40.7467 5.35557
      vertex 10 41.3489 5.07218
    endloop
  endfacet
  facet normal 0 0.309018 -0.951056
    outer loop
      vertex 10 41.3489 14.9278
      vertex 10 41.9819 15.1335
      vertex 30 41.9819 15.1335
    endloop
  endfacet
  facet normal -1 0 0
    outer loop
      vertex 10 41.3489 14.9278
      vertex 10 43.3 20
      vertex 10 41.9819 15.1335
    endloop
  endfacet
  facet normal 0 0.309018 -0.951056
    outer loop
      vertex 10 41.3489 14.9278
      vertex 30 41.9819 15.1335
      vertex 30 41.3489 14.9278
    endloop
  endfacet
  facet normal -1 0 0
    outer loop
      vertex 10 41.3489 5.07218
      vertex 10 41.9819 4.86651
      vertex 10 43.3 0
    endloop
  endfacet
  facet normal -0 0.425778 0.904827
    outer loop
      vertex 10 41.3489 5.07218
      vertex 30 40.7467 5.35557
      vertex 30 41.3489 5.07218
    endloop
  endfacet
  facet normal 0 0.309018 0.951056
    outer loop
      vertex 10 41.3489 5.07218
      vertex 30 41.3489 5.07218
      vertex 10 41.9819 4.86651
    endloop
  endfacet
  facet normal 0 0.18738 -0.982288
    outer loop
      vertex 10 41.9819 15.1335
      vertex 10 42.6357 15.2582
      vertex 30 42.6357 15.2582
    endloop
  endfacet
  facet normal -1 0 0
    outer loop
      vertex 10 41.9819 15.1335
      vertex 10 43.3 20
      vertex 10 42.6357 15.2582
    endloop
  endfacet
  facet normal 0 0.18738 -0.982288
    outer loop
      vertex 10 41.9819 15.1335
      vertex 30 42.6357 15.2582
      vertex 30 41.9819 15.1335
    endloop
  endfacet
  facet normal -1 0 0
    outer loop
      vertex 10 41.9819 4.86651
      vertex 10 42.6357 4.74179
      vertex 10 43.3 0
    endloop
  endfacet
  facet normal -0 0.309018 0.951056
    outer loop
      vertex 10 41.9819 4.86651
      vertex 30 41.3489 5.07218
      vertex 30 41.9819 4.86651
    endloop
  endfacet
  facet normal 0 0.18738 0.982288
    outer loop
      vertex 10 41.9819 4.86651
      vertex 30 41.9819 4.86651
      vertex 10 42.6357 4.74179
    endloop
  endfacet
  facet normal 0 0.0627904 -0.998027
    outer loop
      vertex 10 42.6357 15.2582
      vertex 10 43.3 15.3
      vertex 30 43.3 15.3
    endloop
  endfacet
  facet normal -1 0 0
    outer loop
      vertex 10 42.6357 15.2582
      vertex 10 43.3 20
      vertex 10 43.3 15.3
    endloop
  endfacet
  facet normal 0 0.0627904 -0.998027
    outer loop
      vertex 10 42.6357 15.2582
      vertex 30 43.3 15.3
      vertex 30 42.6357 15.2582
    endloop
  endfacet
  facet normal -1 0 0
    outer loop
      vertex 10 42.6357 4.74179
      vertex 10 43.3 4.7
      vertex 10 43.3 0
    endloop
  endfacet
  facet normal -0 0.18738 0.982288
    outer loop
      vertex 10 42.6357 4.74179
      vertex 30 41.9819 4.86651
      vertex 30 42.6357 4.74179
    endloop
  endfacet
  facet normal 0 0.0627904 0.998027
    outer loop
      vertex 10 42.6357 4.74179
      vertex 30 42.6357 4.74179
      vertex 10 43.3 4.7
    endloop
  endfacet
  facet normal 0 1 0
    outer loop
      vertex 10 43.3 0
      vertex 10 43.3 4.7
      vertex 30 43.3 0
    endloop
  endfacet
  facet normal 0 1 0
    outer loop
      vertex 10 43.3 15.3
      vertex 10 43.3 20
      vertex 30 43.3 15.3
    endloop
  endfacet
  facet normal -0 0 1
    outer loop
      vertex 10 43.3 20
      vertex 30 30.85 20
      vertex 30 43.3 20
    endloop
  endfacet
  facet normal 0 1 -0
    outer loop
      vertex 10 43.3 20
      vertex 30 43.3 20
      vertex 30 43.3 15.3
    endloop
  endfacet
  facet normal -0 0.0627904 0.998027
    outer loop
      vertex 10 43.3 4.7
      vertex 30 42.6357 4.74179
      vertex 30 43.3 4.7
    endloop
  endfacet
  facet normal 0 1 -0
    outer loop
      vertex 10 43.3 4.7
      vertex 30 43.3 4.7
      vertex 30 43.3 0
    endloop
  endfacet
  facet normal 0.998027 0 -0.062787
    outer loop
      vertex 16.7 30.85 10
      vertex 16.7 33.85 10
      vertex 16.726 30.85 10.4136
    endloop
  endfacet
  facet normal 0.998027 0 0.0627872
    outer loop
      vertex 16.7 30.85 10
      vertex 16.726 30.85 9.5864
      vertex 16.726 33.85 9.5864
    endloop
  endfacet
  facet normal 0.998027 -0 0.0627872
    outer loop
      vertex 16.7 30.85 10
      vertex 16.726 33.85 9.5864
      vertex 16.7 33.85 10
    endloop
  endfacet
  facet normal 0.998027 0 -0.062787
    outer loop
      vertex 16.7 33.85 10
      vertex 16.726 33.85 10.4136
      vertex 16.726 30.85 10.4136
    endloop
  endfacet
  facet normal 0 -1 0
    outer loop
      vertex 16.7 33.85 10
      vertex 16.726 33.85 9.5864
      vertex 18.4041 33.85 9.93523
    endloop
  endfacet
  facet normal 0 -1 0
    outer loop
      vertex 16.7 33.85 10
      vertex 18.4 33.85 10
      vertex 18.4085 33.85 10.1358
    endloop
  endfacet
  facet normal 0 -1 0
    outer loop
      vertex 16.7 33.85 10
      vertex 18.4041 33.85 9.93523
      vertex 18.4 33.85 10
    endloop
  endfacet
  facet normal 0 -1 0
    outer loop
      vertex 16.7 33.85 10
      vertex 18.4085 33.85 10.1358
      vertex 16.726 33.85 10.4136
    endloop
  endfacet
  facet normal 0.982287 0 -0.187381
    outer loop
      vertex 16.726 30.85 10.4136
      vertex 16.726 33.85 10.4136
      vertex 16.8037 30.85 10.8207
    endloop
  endfacet
  facet normal 0.982287 0 0.187381
    outer loop
      vertex 16.726 30.85 9.5864
      vertex 16.8037 30.85 9.17932
      vertex 16.8037 33.85 9.17932
    endloop
  endfacet
  facet normal 0.982287 -0 0.187381
    outer loop
      vertex 16.726 30.85 9.5864
      vertex 16.8037 33.85 9.17932
      vertex 16.726 33.85 9.5864
    endloop
  endfacet
  facet normal 0.982287 0 -0.187381
    outer loop
      vertex 16.726 33.85 10.4136
      vertex 16.8037 33.85 10.8207
      vertex 16.8037 30.85 10.8207
    endloop
  endfacet
  facet normal 0 -1 0
    outer loop
      vertex 16.726 33.85 10.4136
      vertex 18.4085 33.85 10.1358
      vertex 18.4126 33.85 10.2005
    endloop
  endfacet
  facet normal 0 -1 0
    outer loop
      vertex 16.726 33.85 10.4136
      vertex 18.4126 33.85 10.2005
      vertex 18.4503 33.85 10.3979
    endloop
  endfacet
  facet normal 0 -1 0
    outer loop
      vertex 16.726 33.85 10.4136
      vertex 18.4503 33.85 10.3979
      vertex 16.8037 33.85 10.8207
    endloop
  endfacet
  facet normal 0 -1 0
    outer loop
      vertex 16.726 33.85 9.5864
      vertex 16.8037 33.85 9.17932
      vertex 18.4503 33.85 9.6021
    endloop
  endfacet
  facet normal 0 -1 -0
    outer loop
      vertex 16.726 33.85 9.5864
      vertex 18.4126 33.85 9.79947
      vertex 18.4041 33.85 9.93523
    endloop
  endfacet
  facet normal 0 -1 -0
    outer loop
      vertex 16.726 33.85 9.5864
      vertex 18.4503 33.85 9.6021
      vertex 18.4126 33.85 9.79947
    endloop
  endfacet
  facet normal 0.951057 0 -0.309015
    outer loop
      vertex 16.8037 30.85 10.8207
      vertex 16.8037 33.85 10.8207
      vertex 16.9317 30.85 11.2148
    endloop
  endfacet
  facet normal 0.951057 0 0.309015
    outer loop
      vertex 16.8037 30.85 9.17932
      vertex 16.9317 30.85 8.78519
      vertex 16.9317 33.85 8.78519
    endloop
  endfacet
  facet normal 0.951057 -0 0.309015
    outer loop
      vertex 16.8037 30.85 9.17932
      vertex 16.9317 33.85 8.78519
      vertex 16.8037 33.85 9.17932
    endloop
  endfacet
  facet normal 0.951057 0 -0.309015
    outer loop
      vertex 16.8037 33.85 10.8207
      vertex 16.9317 33.85 11.2148
      vertex 16.9317 30.85 11.2148
    endloop
  endfacet
  facet normal 0 -1 0
    outer loop
      vertex 16.8037 33.85 10.8207
      vertex 18.4503 33.85 10.3979
      vertex 18.5124 33.85 10.589
    endloop
  endfacet
  facet normal 0 -1 0
    outer loop
      vertex 16.8037 33.85 10.8207
      vertex 18.5124 33.85 10.589
      vertex 16.9317 33.85 11.2148
    endloop
  endfacet
  facet normal 0 -1 0
    outer loop
      vertex 16.8037 33.85 9.17932
      vertex 16.9317 33.85 8.78519
      vertex 18.5124 33.85 9.411
    endloop
  endfacet
  facet normal 0 -1 -0
    outer loop
      vertex 16.8037 33.85 9.17932
      vertex 18.5124 33.85 9.411
      vertex 18.4503 33.85 9.6021
    endloop
  endfacet
  facet normal 0.904825 0 -0.425784
    outer loop
      vertex 16.9317 30.85 11.2148
      vertex 16.9317 33.85 11.2148
      vertex 17.1082 30.85 11.5898
    endloop
  endfacet
  facet normal 0.904825 0 0.425784
    outer loop
      vertex 16.9317 30.85 8.78519
      vertex 17.1082 30.85 8.41021
      vertex 17.1082 33.85 8.41021
    endloop
  endfacet
  facet normal 0.904825 -0 0.425784
    outer loop
      vertex 16.9317 30.85 8.78519
      vertex 17.1082 33.85 8.41021
      vertex 16.9317 33.85 8.78519
    endloop
  endfacet
  facet normal 0.904825 0 -0.425784
    outer loop
      vertex 16.9317 33.85 11.2148
      vertex 17.1082 33.85 11.5898
      vertex 17.1082 30.85 11.5898
    endloop
  endfacet
  facet normal 0 -1 0
    outer loop
      vertex 16.9317 33.85 11.2148
      vertex 18.5124 33.85 10.589
      vertex 18.5979 33.85 10.7708
    endloop
  endfacet
  facet normal 0 -1 0
    outer loop
      vertex 16.9317 33.85 11.2148
      vertex 18.5979 33.85 10.7708
      vertex 17.1082 33.85 11.5898
    endloop
  endfacet
  facet normal 0 -1 0
    outer loop
      vertex 16.9317 33.85 8.78519
      vertex 17.1082 33.85 8.41021
      vertex 18.5979 33.85 9.22919
    endloop
  endfacet
  facet normal 0 -1 -0
    outer loop
      vertex 16.9317 33.85 8.78519
      vertex 18.5979 33.85 9.22919
      vertex 18.5124 33.85 9.411
    endloop
  endfacet
  facet normal 0.84433 0 -0.535823
    outer loop
      vertex 17.1082 30.85 11.5898
      vertex 17.1082 33.85 11.5898
      vertex 17.3302 30.85 11.9397
    endloop
  endfacet
  facet normal 0.84433 0 0.535823
    outer loop
      vertex 17.1082 30.85 8.41021
      vertex 17.3302 30.85 8.06031
      vertex 17.3302 33.85 8.06031
    endloop
  endfacet
  facet normal 0.84433 -0 0.535823
    outer loop
      vertex 17.1082 30.85 8.41021
      vertex 17.3302 33.85 8.06031
      vertex 17.1082 33.85 8.41021
    endloop
  endfacet
  facet normal 0.84433 0 -0.535823
    outer loop
      vertex 17.1082 33.85 11.5898
      vertex 17.3302 33.85 11.9397
      vertex 17.3302 30.85 11.9397
    endloop
  endfacet
  facet normal 0 -1 0
    outer loop
      vertex 17.1082 33.85 11.5898
      vertex 18.5979 33.85 10.7708
      vertex 18.7056 33.85 10.9405
    endloop
  endfacet
  facet normal 0 -1 0
    outer loop
      vertex 17.1082 33.85 11.5898
      vertex 18.7056 33.85 10.9405
      vertex 17.3302 33.85 11.9397
    endloop
  endfacet
  facet normal 0 -1 0
    outer loop
      vertex 17.1082 33.85 8.41021
      vertex 17.3302 33.85 8.06031
      vertex 18.7056 33.85 9.05954
    endloop
  endfacet
  facet normal 0 -1 -0
    outer loop
      vertex 17.1082 33.85 8.41021
      vertex 18.7056 33.85 9.05954
      vertex 18.5979 33.85 9.22919
    endloop
  endfacet
  facet normal 0.770512 0 -0.637425
    outer loop
      vertex 17.3302 30.85 11.9397
      vertex 17.3302 33.85 11.9397
      vertex 17.5944 30.85 12.259
    endloop
  endfacet
  facet normal 0.770512 0 0.637425
    outer loop
      vertex 17.3302 30.85 8.06031
      vertex 17.5944 30.85 7.74099
      vertex 17.5944 33.85 7.74099
    endloop
  endfacet
  facet normal 0.770512 -0 0.637425
    outer loop
      vertex 17.3302 30.85 8.06031
      vertex 17.5944 33.85 7.74099
      vertex 17.3302 33.85 8.06031
    endloop
  endfacet
  facet normal 0.770512 0 -0.637425
    outer loop
      vertex 17.3302 33.85 11.9397
      vertex 17.5944 33.85 12.259
      vertex 17.5944 30.85 12.259
    endloop
  endfacet
  facet normal 0 -1 0
    outer loop
      vertex 17.3302 33.85 11.9397
      vertex 18.7056 33.85 10.9405
      vertex 18.8336 33.85 11.0953
    endloop
  endfacet
  facet normal 0 -1 0
    outer loop
      vertex 17.3302 33.85 11.9397
      vertex 18.8336 33.85 11.0953
      vertex 17.5944 33.85 12.259
    endloop
  endfacet
  facet normal 0 -1 0
    outer loop
      vertex 17.3302 33.85 8.06031
      vertex 17.5944 33.85 7.74099
      vertex 18.8336 33.85 8.90472
    endloop
  endfacet
  facet normal 0 -1 -0
    outer loop
      vertex 17.3302 33.85 8.06031
      vertex 18.8336 33.85 8.90472
      vertex 18.7056 33.85 9.05954
    endloop
  endfacet
  facet normal 0.684547 0 -0.728968
    outer loop
      vertex 17.5944 30.85 12.259
      vertex 17.5944 33.85 12.259
      vertex 17.8965 33.85 12.5427
    endloop
  endfacet
  facet normal 0.684547 0 -0.728968
    outer loop
      vertex 17.5944 30.85 12.259
      vertex 17.8965 33.85 12.5427
      vertex 17.8965 30.85 12.5427
    endloop
  endfacet
  facet normal 0.684547 0 0.728968
    outer loop
      vertex 17.5944 30.85 7.74099
      vertex 17.8965 30.85 7.45731
      vertex 17.5944 33.85 7.74099
    endloop
  endfacet
  facet normal 0 -1 0
    outer loop
      vertex 17.5944 33.85 12.259
      vertex 18.8336 33.85 11.0953
      vertex 18.9801 33.85 11.2328
    endloop
  endfacet
  facet normal 0 -1 0
    outer loop
      vertex 17.5944 33.85 12.259
      vertex 18.9801 33.85 11.2328
      vertex 17.8965 33.85 12.5427
    endloop
  endfacet
  facet normal 0.684547 0 0.728968
    outer loop
      vertex 17.5944 33.85 7.74099
      vertex 17.8965 30.85 7.45731
      vertex 17.8965 33.85 7.45731
    endloop
  endfacet
  facet normal 0 -1 0
    outer loop
      vertex 17.5944 33.85 7.74099
      vertex 17.8965 33.85 7.45731
      vertex 18.9801 33.85 8.76718
    endloop
  endfacet
  facet normal 0 -1 -0
    outer loop
      vertex 17.5944 33.85 7.74099
      vertex 18.9801 33.85 8.76718
      vertex 18.8336 33.85 8.90472
    endloop
  endfacet
  facet normal 0.587784 0 -0.809018
    outer loop
      vertex 17.8965 30.85 12.5427
      vertex 17.8965 33.85 12.5427
      vertex 18.2318 33.85 12.7863
    endloop
  endfacet
  facet normal 0.587784 0 -0.809018
    outer loop
      vertex 17.8965 30.85 12.5427
      vertex 18.2318 33.85 12.7863
      vertex 18.2318 30.85 12.7863
    endloop
  endfacet
  facet normal 0.587784 0 0.809018
    outer loop
      vertex 17.8965 30.85 7.45731
      vertex 18.2318 30.85 7.21372
      vertex 17.8965 33.85 7.45731
    endloop
  endfacet
  facet normal 0 -1 0
    outer loop
      vertex 17.8965 33.85 12.5427
      vertex 18.9801 33.85 11.2328
      vertex 19.1427 33.85 11.3509
    endloop
  endfacet
  facet normal 0 -1 0
    outer loop
      vertex 17.8965 33.85 12.5427
      vertex 19.1427 33.85 11.3509
      vertex 18.2318 33.85 12.7863
    endloop
  endfacet
  facet normal 0.587784 0 0.809018
    outer loop
      vertex 17.8965 33.85 7.45731
      vertex 18.2318 30.85 7.21372
      vertex 18.2318 33.85 7.21372
    endloop
  endfacet
  facet normal 0 -1 0
    outer loop
      vertex 17.8965 33.85 7.45731
      vertex 18.2318 33.85 7.21372
      vertex 19.1427 33.85 8.64907
    endloop
  endfacet
  facet normal 0 -1 -0
    outer loop
      vertex 17.8965 33.85 7.45731
      vertex 19.1427 33.85 8.64907
      vertex 18.9801 33.85 8.76718
    endloop
  endfacet
  facet normal 0.481753 0 -0.876307
    outer loop
      vertex 18.2318 30.85 12.7863
      vertex 18.2318 33.85 12.7863
      vertex 18.5949 33.85 12.9859
    endloop
  endfacet
  facet normal 0.481753 0 -0.876307
    outer loop
      vertex 18.2318 30.85 12.7863
      vertex 18.5949 33.85 12.9859
      vertex 18.5949 30.85 12.9859
    endloop
  endfacet
  facet normal 0.481753 0 0.876307
    outer loop
      vertex 18.2318 30.85 7.21372
      vertex 18.5949 30.85 7.01407
      vertex 18.2318 33.85 7.21372
    endloop
  endfacet
  facet normal 0 -1 0
    outer loop
      vertex 18.2318 33.85 12.7863
      vertex 19.1427 33.85 11.3509
      vertex 19.3188 33.85 11.4477
    endloop
  endfacet
  facet normal 0 -1 0
    outer loop
      vertex 18.2318 33.85 12.7863
      vertex 19.3188 33.85 11.4477
      vertex 18.5949 33.85 12.9859
    endloop
  endfacet
  facet normal 0.481753 0 0.876307
    outer loop
      vertex 18.2318 33.85 7.21372
      vertex 18.5949 30.85 7.01407
      vertex 18.5949 33.85 7.01407
    endloop
  endfacet
  facet normal 0 -1 0
    outer loop
      vertex 18.2318 33.85 7.21372
      vertex 18.5949 33.85 7.01407
      vertex 19.3188 33.85 8.55228
    endloop
  endfacet
  facet normal 0 -1 -0
    outer loop
      vertex 18.2318 33.85 7.21372
      vertex 19.3188 33.85 8.55228
      vertex 19.1427 33.85 8.64907
    endloop
  endfacet
  facet normal 0.998027 0 -0.0627886
    outer loop
      vertex 18.4 33.85 10
      vertex 18.4 38.0105 10
      vertex 18.4085 33.85 10.1358
    endloop
  endfacet
  facet normal 0.998027 -0 0.0627849
    outer loop
      vertex 18.4 33.85 10
      vertex 18.403 38.0105 9.95191
      vertex 18.4 38.0105 10
    endloop
  endfacet
  facet normal 0.998028 -1.22215e-07 0.0627744
    outer loop
      vertex 18.4 33.85 10
      vertex 18.4041 33.85 9.93523
      vertex 18.403 38.0105 9.95191
    endloop
  endfacet
  facet normal 0.998027 1.59617e-07 -0.0627837
    outer loop
      vertex 18.4 38.0105 10
      vertex 18.4096 38.0105 10.1524
      vertex 18.4085 33.85 10.1358
    endloop
  endfacet
  facet normal 0.998026 -2.11274e-07 0.0627965
    outer loop
      vertex 18.403 38.0105 9.95191
      vertex 18.4041 33.85 9.93523
      vertex 18.4126 38.0105 9.79947
    endloop
  endfacet
  facet normal 0.998026 0 0.062803
    outer loop
      vertex 18.4041 33.85 9.93523
      vertex 18.4126 33.85 9.79947
      vertex 18.4126 38.0105 9.79947
    endloop
  endfacet
  facet normal 0.998026 2.40085e-07 -0.0628037
    outer loop
      vertex 18.4085 33.85 10.1358
      vertex 18.4096 38.0105 10.1524
      vertex 18.4126 33.85 10.2005
    endloop
  endfacet
  facet normal 0.998025 0 -0.0628244
    outer loop
      vertex 18.4096 38.0105 10.1524
      vertex 18.4126 38.0105 10.2005
      vertex 18.4126 33.85 10.2005
    endloop
  endfacet
  facet normal 0.982288 0 -0.187376
    outer loop
      vertex 18.4126 33.85 10.2005
      vertex 18.4126 38.0105 10.2005
      vertex 18.4378 38.0105 10.3328
    endloop
  endfacet
  facet normal 0.982287 2.81726e-07 -0.187384
    outer loop
      vertex 18.4126 33.85 10.2005
      vertex 18.4378 38.0105 10.3328
      vertex 18.4503 33.85 10.3979
    endloop
  endfacet
  facet normal 0.982288 0 0.187376
    outer loop
      vertex 18.4126 33.85 9.79947
      vertex 18.4378 38.0105 9.66721
      vertex 18.4126 38.0105 9.79947
    endloop
  endfacet
  facet normal 0.982287 2.81726e-07 0.187384
    outer loop
      vertex 18.4126 33.85 9.79947
      vertex 18.4503 33.85 9.6021
      vertex 18.4378 38.0105 9.66721
    endloop
  endfacet
  facet normal 0.982283 0 -0.187402
    outer loop
      vertex 18.4378 38.0105 10.3328
      vertex 18.4503 38.0187 10.3979
      vertex 18.4503 33.85 10.3979
    endloop
  endfacet
  facet normal 0.982283 0 0.187402
    outer loop
      vertex 18.4378 38.0105 9.66721
      vertex 18.4503 33.85 9.6021
      vertex 18.4503 38.0187 9.6021
    endloop
  endfacet
  facet normal 0.95106 0 -0.309005
    outer loop
      vertex 18.4503 33.85 10.3979
      vertex 18.4503 38.0187 10.3979
      vertex 18.5124 33.85 10.589
    endloop
  endfacet
  facet normal 0.95106 0 0.309005
    outer loop
      vertex 18.4503 33.85 9.6021
      vertex 18.5124 33.85 9.411
      vertex 18.4503 38.0187 9.6021
    endloop
  endfacet
  facet normal 0.95106 0 -0.309005
    outer loop
      vertex 18.4503 38.0187 10.3979
      vertex 18.5124 38.0428 10.589
      vertex 18.5124 33.85 10.589
    endloop
  endfacet
  facet normal 0.95106 0 0.309005
    outer loop
      vertex 18.4503 38.0187 9.6021
      vertex 18.5124 33.85 9.411
      vertex 18.5124 38.0428 9.411
    endloop
  endfacet
  facet normal 0.904826 0 -0.425781
    outer loop
      vertex 18.5124 33.85 10.589
      vertex 18.5124 38.0428 10.589
      vertex 18.5979 33.85 10.7708
    endloop
  endfacet
  facet normal 0.904826 0 0.425781
    outer loop
      vertex 18.5124 33.85 9.411
      vertex 18.5979 33.85 9.22919
      vertex 18.5124 38.0428 9.411
    endloop
  endfacet
  facet normal 0.904826 0 -0.425781
    outer loop
      vertex 18.5124 38.0428 10.589
      vertex 18.5979 38.0658 10.7708
      vertex 18.5979 33.85 10.7708
    endloop
  endfacet
  facet normal 0.904826 0 0.425781
    outer loop
      vertex 18.5124 38.0428 9.411
      vertex 18.5979 33.85 9.22919
      vertex 18.5979 38.0658 9.22919
    endloop
  endfacet
  facet normal 0.368125 0 -0.929776
    outer loop
      vertex 18.5949 30.85 12.9859
      vertex 18.5949 33.85 12.9859
      vertex 18.9802 33.85 13.1385
    endloop
  endfacet
  facet normal 0.368125 0 -0.929776
    outer loop
      vertex 18.5949 30.85 12.9859
      vertex 18.9802 33.85 13.1385
      vertex 18.9802 30.85 13.1385
    endloop
  endfacet
  facet normal 0.368125 0 0.929776
    outer loop
      vertex 18.5949 30.85 7.01407
      vertex 18.9802 30.85 6.86151
      vertex 18.5949 33.85 7.01407
    endloop
  endfacet
  facet normal 0 -1 0
    outer loop
      vertex 18.5949 33.85 12.9859
      vertex 19.3188 33.85 11.4477
      vertex 19.5056 33.85 11.5217
    endloop
  endfacet
  facet normal 0 -1 0
    outer loop
      vertex 18.5949 33.85 12.9859
      vertex 19.5056 33.85 11.5217
      vertex 18.9802 33.85 13.1385
    endloop
  endfacet
  facet normal 0.368125 0 0.929776
    outer loop
      vertex 18.5949 33.85 7.01407
      vertex 18.9802 30.85 6.86151
      vertex 18.9802 33.85 6.86151
    endloop
  endfacet
  facet normal 0 -1 0
    outer loop
      vertex 18.5949 33.85 7.01407
      vertex 18.9802 33.85 6.86151
      vertex 19.5056 33.85 8.47831
    endloop
  endfacet
  facet normal 0 -1 -0
    outer loop
      vertex 18.5949 33.85 7.01407
      vertex 19.5056 33.85 8.47831
      vertex 19.3188 33.85 8.55228
    endloop
  endfacet
  facet normal 0.844327 0 -0.535828
    outer loop
      vertex 18.5979 33.85 10.7708
      vertex 18.5979 38.0658 10.7708
      vertex 18.7056 33.85 10.9405
    endloop
  endfacet
  facet normal 0.844327 0 0.535828
    outer loop
      vertex 18.5979 33.85 9.22919
      vertex 18.7056 33.85 9.05954
      vertex 18.5979 38.0658 9.22919
    endloop
  endfacet
  facet normal 0.844327 0 -0.535828
    outer loop
      vertex 18.5979 38.0658 10.7708
      vertex 18.7056 38.0872 10.9405
      vertex 18.7056 33.85 10.9405
    endloop
  endfacet
  facet normal 0.844327 0 0.535828
    outer loop
      vertex 18.5979 38.0658 9.22919
      vertex 18.7056 33.85 9.05954
      vertex 18.7056 38.0872 9.05954
    endloop
  endfacet
  facet normal 0.770514 0 -0.637423
    outer loop
      vertex 18.7056 33.85 10.9405
      vertex 18.7056 38.0872 10.9405
      vertex 18.8336 33.85 11.0953
    endloop
  endfacet
  facet normal 0.770514 0 0.637423
    outer loop
      vertex 18.7056 33.85 9.05954
      vertex 18.8336 33.85 8.90472
      vertex 18.7056 38.0872 9.05954
    endloop
  endfacet
  facet normal 0.770511 -2.83588e-07 -0.637427
    outer loop
      vertex 18.7056 38.0872 10.9405
      vertex 18.7491 38.0939 10.9931
      vertex 18.8336 33.85 11.0953
    endloop
  endfacet
  facet normal 0.770511 -2.83588e-07 0.637427
    outer loop
      vertex 18.7056 38.0872 9.05954
      vertex 18.8336 33.85 8.90472
      vertex 18.7491 38.0939 9.00688
    endloop
  endfacet
  facet normal 0.770516 0 -0.63742
    outer loop
      vertex 18.7491 38.0939 10.9931
      vertex 18.8336 38.1201 11.0953
      vertex 18.8336 33.85 11.0953
    endloop
  endfacet
  facet normal 0.770516 0 0.63742
    outer loop
      vertex 18.7491 38.0939 9.00688
      vertex 18.8336 33.85 8.90472
      vertex 18.8336 38.1201 8.90472
    endloop
  endfacet
  facet normal 0.684543 0 -0.728973
    outer loop
      vertex 18.8336 33.85 11.0953
      vertex 18.8336 38.1201 11.0953
      vertex 18.9801 33.85 11.2328
    endloop
  endfacet
  facet normal 0.684543 0 0.728973
    outer loop
      vertex 18.8336 33.85 8.90472
      vertex 18.9801 33.85 8.76718
      vertex 18.8336 38.1201 8.90472
    endloop
  endfacet
  facet normal 0.684543 0 -0.728973
    outer loop
      vertex 18.8336 38.1201 11.0953
      vertex 18.9801 38.1554 11.2328
      vertex 18.9801 33.85 11.2328
    endloop
  endfacet
  facet normal 0.684543 0 0.728973
    outer loop
      vertex 18.8336 38.1201 8.90472
      vertex 18.9801 33.85 8.76718
      vertex 18.9801 38.1554 8.76718
    endloop
  endfacet
  facet normal 0.587786 0 -0.809016
    outer loop
      vertex 18.9801 33.85 11.2328
      vertex 18.9801 38.1554 11.2328
      vertex 19.1427 33.85 11.3509
    endloop
  endfacet
  facet normal 0.587786 0 0.809016
    outer loop
      vertex 18.9801 33.85 8.76718
      vertex 19.1427 33.85 8.64907
      vertex 18.9801 38.1554 8.76718
    endloop
  endfacet
  facet normal 0.587786 0 -0.809016
    outer loop
      vertex 18.9801 38.1554 11.2328
      vertex 19.1427 38.1857 11.3509
      vertex 19.1427 33.85 11.3509
    endloop
  endfacet
  facet normal 0.587786 0 0.809016
    outer loop
      vertex 18.9801 38.1554 8.76718
      vertex 19.1427 33.85 8.64907
      vertex 19.1427 38.1857 8.64907
    endloop
  endfacet
  facet normal 0.24869 0 -0.968583
    outer loop
      vertex 18.9802 30.85 13.1385
      vertex 18.9802 33.85 13.1385
      vertex 19.3816 33.85 13.2415
    endloop
  endfacet
  facet normal 0.24869 0 -0.968583
    outer loop
      vertex 18.9802 30.85 13.1385
      vertex 19.3816 33.85 13.2415
      vertex 19.3816 30.85 13.2415
    endloop
  endfacet
  facet normal 0.24869 0 0.968583
    outer loop
      vertex 18.9802 30.85 6.86151
      vertex 19.3816 30.85 6.75845
      vertex 18.9802 33.85 6.86151
    endloop
  endfacet
  facet normal 0 -1 0
    outer loop
      vertex 18.9802 33.85 13.1385
      vertex 19.5056 33.85 11.5217
      vertex 19.7002 33.85 11.5717
    endloop
  endfacet
  facet normal 0 -1 0
    outer loop
      vertex 18.9802 33.85 13.1385
      vertex 19.7002 33.85 11.5717
      vertex 19.3816 33.85 13.2415
    endloop
  endfacet
  facet normal 0.24869 0 0.968583
    outer loop
      vertex 18.9802 33.85 6.86151
      vertex 19.3816 30.85 6.75845
      vertex 19.3816 33.85 6.75845
    endloop
  endfacet
  facet normal 0 -1 0
    outer loop
      vertex 18.9802 33.85 6.86151
      vertex 19.3816 33.85 6.75845
      vertex 19.7002 33.85 8.42834
    endloop
  endfacet
  facet normal 0 -1 -0
    outer loop
      vertex 18.9802 33.85 6.86151
      vertex 19.7002 33.85 8.42834
      vertex 19.5056 33.85 8.47831
    endloop
  endfacet
  facet normal 0.481753 0 -0.876307
    outer loop
      vertex 19.1427 33.85 11.3509
      vertex 19.1427 38.1857 11.3509
      vertex 19.3188 33.85 11.4477
    endloop
  endfacet
  facet normal 0.481753 0 0.876307
    outer loop
      vertex 19.1427 33.85 8.64907
      vertex 19.3188 33.85 8.55228
      vertex 19.1427 38.1857 8.64907
    endloop
  endfacet
  facet normal 0.481753 0 -0.876307
    outer loop
      vertex 19.1427 38.1857 11.3509
      vertex 19.3188 38.2106 11.4477
      vertex 19.3188 33.85 11.4477
    endloop
  endfacet
  facet normal 0.481753 0 0.876307
    outer loop
      vertex 19.1427 38.1857 8.64907
      vertex 19.3188 33.85 8.55228
      vertex 19.3188 38.2106 8.55228
    endloop
  endfacet
  facet normal 0.368126 0 -0.929776
    outer loop
      vertex 19.3188 33.85 11.4477
      vertex 19.3188 38.2106 11.4477
      vertex 19.5056 33.85 11.5217
    endloop
  endfacet
  facet normal 0.368126 0 0.929776
    outer loop
      vertex 19.3188 33.85 8.55228
      vertex 19.5056 33.85 8.47831
      vertex 19.3188 38.2106 8.55228
    endloop
  endfacet
  facet normal 0.368126 0 -0.929776
    outer loop
      vertex 19.3188 38.2106 11.4477
      vertex 19.5056 38.2296 11.5217
      vertex 19.5056 33.85 11.5217
    endloop
  endfacet
  facet normal 0.368126 0 0.929776
    outer loop
      vertex 19.3188 38.2106 8.55228
      vertex 19.5056 33.85 8.47831
      vertex 19.5056 38.2296 8.47831
    endloop
  endfacet
  facet normal 0.125333 0 -0.992115
    outer loop
      vertex 19.3816 30.85 13.2415
      vertex 19.3816 33.85 13.2415
      vertex 19.7928 33.85 13.2935
    endloop
  endfacet
  facet normal 0.125333 0 -0.992115
    outer loop
      vertex 19.3816 30.85 13.2415
      vertex 19.7928 33.85 13.2935
      vertex 19.7928 30.85 13.2935
    endloop
  endfacet
  facet normal 0.125333 0 0.992115
    outer loop
      vertex 19.3816 30.85 6.75845
      vertex 19.7928 30.85 6.70651
      vertex 19.3816 33.85 6.75845
    endloop
  endfacet
  facet normal 0 -1 0
    outer loop
      vertex 19.3816 33.85 13.2415
      vertex 19.7002 33.85 11.5717
      vertex 19.8995 33.85 11.5968
    endloop
  endfacet
  facet normal 0 -1 0
    outer loop
      vertex 19.3816 33.85 13.2415
      vertex 19.8995 33.85 11.5968
      vertex 19.7928 33.85 13.2935
    endloop
  endfacet
  facet normal 0.125333 0 0.992115
    outer loop
      vertex 19.3816 33.85 6.75845
      vertex 19.7928 30.85 6.70651
      vertex 19.7928 33.85 6.70651
    endloop
  endfacet
  facet normal 0 -1 0
    outer loop
      vertex 19.3816 33.85 6.75845
      vertex 19.7928 33.85 6.70651
      vertex 19.8995 33.85 8.40316
    endloop
  endfacet
  facet normal 0 -1 -0
    outer loop
      vertex 19.3816 33.85 6.75845
      vertex 19.8995 33.85 8.40316
      vertex 19.7002 33.85 8.42834
    endloop
  endfacet
  facet normal 0.248689 0 -0.968583
    outer loop
      vertex 19.5056 33.85 11.5217
      vertex 19.5056 38.2296 11.5217
      vertex 19.7002 33.85 11.5717
    endloop
  endfacet
  facet normal 0.248689 0 0.968583
    outer loop
      vertex 19.5056 33.85 8.47831
      vertex 19.7002 33.85 8.42834
      vertex 19.5056 38.2296 8.47831
    endloop
  endfacet
  facet normal 0.248689 0 -0.968583
    outer loop
      vertex 19.5056 38.2296 11.5217
      vertex 19.7002 38.2424 11.5717
      vertex 19.7002 33.85 11.5717
    endloop
  endfacet
  facet normal 0.248689 0 0.968583
    outer loop
      vertex 19.5056 38.2296 8.47831
      vertex 19.7002 33.85 8.42834
      vertex 19.7002 38.2424 8.42834
    endloop
  endfacet
  facet normal 0.125331 0 -0.992115
    outer loop
      vertex 19.7002 33.85 11.5717
      vertex 19.7002 38.2424 11.5717
      vertex 19.8995 33.85 11.5968
    endloop
  endfacet
  facet normal 0.125331 0 0.992115
    outer loop
      vertex 19.7002 33.85 8.42834
      vertex 19.8995 33.85 8.40316
      vertex 19.7002 38.2424 8.42834
    endloop
  endfacet
  facet normal 0.125331 0 -0.992115
    outer loop
      vertex 19.7002 38.2424 11.5717
      vertex 19.8995 38.2489 11.5968
      vertex 19.8995 33.85 11.5968
    endloop
  endfacet
  facet normal 0.125331 0 0.992115
    outer loop
      vertex 19.7002 38.2424 8.42834
      vertex 19.8995 33.85 8.40316
      vertex 19.8995 38.2489 8.40316
    endloop
  endfacet
  facet normal -0 0 -1
    outer loop
      vertex 19.7928 30.85 13.2935
      vertex 19.7928 33.85 13.2935
      vertex 20.2072 33.85 13.2935
    endloop
  endfacet
  facet normal 0 -1 0
    outer loop
      vertex 19.7928 30.85 13.2935
      vertex 20.2072 30.85 13.2935
      vertex 30 30.85 20
    endloop
  endfacet
  facet normal 0 0 -1
    outer loop
      vertex 19.7928 30.85 13.2935
      vertex 20.2072 33.85 13.2935
      vertex 20.2072 30.85 13.2935
    endloop
  endfacet
  facet normal 0 0 1
    outer loop
      vertex 19.7928 30.85 6.70651
      vertex 20.2072 30.85 6.70651
      vertex 19.7928 33.85 6.70651
    endloop
  endfacet
  facet normal 0 -1 0
    outer loop
      vertex 19.7928 33.85 13.2935
      vertex 19.8995 33.85 11.5968
      vertex 20.2072 33.85 13.2935
    endloop
  endfacet
  facet normal 0 -1 -0
    outer loop
      vertex 19.7928 33.85 6.70651
      vertex 20.1005 33.85 8.40316
      vertex 19.8995 33.85 8.40316
    endloop
  endfacet
  facet normal -0 0 1
    outer loop
      vertex 19.7928 33.85 6.70651
      vertex 20.2072 30.85 6.70651
      vertex 20.2072 33.85 6.70651
    endloop
  endfacet
  facet normal 0 -1 0
    outer loop
      vertex 19.7928 33.85 6.70651
      vertex 20.2072 33.85 6.70651
      vertex 20.1005 33.85 8.40316
    endloop
  endfacet
  facet normal -0 0 -1
    outer loop
      vertex 19.8995 33.85 11.5968
      vertex 19.8995 38.2489 11.5968
      vertex 20.1005 38.2489 11.5968
    endloop
  endfacet
  facet normal 0 -1 0
    outer loop
      vertex 19.8995 33.85 11.5968
      vertex 20.1005 33.85 11.5968
      vertex 20.2072 33.85 13.2935
    endloop
  endfacet
  facet normal 0 0 -1
    outer loop
      vertex 19.8995 33.85 11.5968
      vertex 20.1005 38.2489 11.5968
      vertex 20.1005 33.85 11.5968
    endloop
  endfacet
  facet normal 0 0 1
    outer loop
      vertex 19.8995 33.85 8.40316
      vertex 20.1005 33.85 8.40316
      vertex 19.8995 38.2489 8.40316
    endloop
  endfacet
  facet normal -0 0 1
    outer loop
      vertex 19.8995 38.2489 8.40316
      vertex 20.1005 33.85 8.40316
      vertex 20.1005 38.2489 8.40316
    endloop
  endfacet
  facet normal 0 0.968585 0.248683
    outer loop
      vertex 19.8995 38.2489 8.40316
      vertex 20.1005 38.2489 8.40316
      vertex 30 38.2594 8.36221
    endloop
  endfacet
  facet normal -0.125331 0 -0.992115
    outer loop
      vertex 20.1005 33.85 11.5968
      vertex 20.1005 38.2489 11.5968
      vertex 20.2998 38.2424 11.5717
    endloop
  endfacet
  facet normal 0 -1 0
    outer loop
      vertex 20.1005 33.85 11.5968
      vertex 20.2998 33.85 11.5717
      vertex 20.6184 33.85 13.2415
    endloop
  endfacet
  facet normal -0.125331 0 -0.992115
    outer loop
      vertex 20.1005 33.85 11.5968
      vertex 20.2998 38.2424 11.5717
      vertex 20.2998 33.85 11.5717
    endloop
  endfacet
  facet normal 0 -1 -0
    outer loop
      vertex 20.1005 33.85 11.5968
      vertex 20.6184 33.85 13.2415
      vertex 20.2072 33.85 13.2935
    endloop
  endfacet
  facet normal 0 -1 0
    outer loop
      vertex 20.1005 33.85 8.40316
      vertex 20.2072 33.85 6.70651
      vertex 20.6184 33.85 6.75845
    endloop
  endfacet
  facet normal -0.125331 0 0.992115
    outer loop
      vertex 20.1005 33.85 8.40316
      vertex 20.2998 33.85 8.42834
      vertex 20.2998 38.2424 8.42834
    endloop
  endfacet
  facet normal -0.125331 0 0.992115
    outer loop
      vertex 20.1005 33.85 8.40316
      vertex 20.2998 38.2424 8.42834
      vertex 20.1005 38.2489 8.40316
    endloop
  endfacet
  facet normal 0 -1 0
    outer loop
      vertex 20.1005 33.85 8.40316
      vertex 20.6184 33.85 6.75845
      vertex 20.2998 33.85 8.42834
    endloop
  endfacet
  facet normal 4.48775e-08 0.968582 -0.248693
    outer loop
      vertex 20.1005 38.2489 11.5968
      vertex 30 38.2594 11.6378
      vertex 20.2998 38.2424 11.5717
    endloop
  endfacet
  facet normal 4.48775e-08 0.968582 0.248693
    outer loop
      vertex 20.1005 38.2489 8.40316
      vertex 20.2998 38.2424 8.42834
      vertex 30 38.2594 8.36221
    endloop
  endfacet
  facet normal -0.125332 0 -0.992115
    outer loop
      vertex 20.2072 30.85 13.2935
      vertex 20.2072 33.85 13.2935
      vertex 20.6184 33.85 13.2415
    endloop
  endfacet
  facet normal 0 -1 0
    outer loop
      vertex 20.2072 30.85 13.2935
      vertex 20.6184 30.85 13.2415
      vertex 30 30.85 20
    endloop
  endfacet
  facet normal -0.125332 0 -0.992115
    outer loop
      vertex 20.2072 30.85 13.2935
      vertex 20.6184 33.85 13.2415
      vertex 20.6184 30.85 13.2415
    endloop
  endfacet
  facet normal -0.125332 0 0.992115
    outer loop
      vertex 20.2072 30.85 6.70651
      vertex 20.6184 30.85 6.75845
      vertex 20.2072 33.85 6.70651
    endloop
  endfacet
  facet normal 0 -1 0
    outer loop
      vertex 20.2072 30.85 6.70651
      vertex 30 30.85 0
      vertex 20.6184 30.85 6.75845
    endloop
  endfacet
  facet normal -0.125332 0 0.992115
    outer loop
      vertex 20.2072 33.85 6.70651
      vertex 20.6184 30.85 6.75845
      vertex 20.6184 33.85 6.75845
    endloop
  endfacet
  facet normal -0.248686 0 -0.968584
    outer loop
      vertex 20.2998 33.85 11.5717
      vertex 20.2998 38.2424 11.5717
      vertex 20.4944 38.2296 11.5217
    endloop
  endfacet
  facet normal 0 -1 0
    outer loop
      vertex 20.2998 33.85 11.5717
      vertex 20.4944 33.85 11.5217
      vertex 21.0198 33.85 13.1385
    endloop
  endfacet
  facet normal -0.248686 0 -0.968584
    outer loop
      vertex 20.2998 33.85 11.5717
      vertex 20.4944 38.2296 11.5217
      vertex 20.4944 33.85 11.5217
    endloop
  endfacet
  facet normal 0 -1 -0
    outer loop
      vertex 20.2998 33.85 11.5717
      vertex 21.0198 33.85 13.1385
      vertex 20.6184 33.85 13.2415
    endloop
  endfacet
  facet normal -0.248686 0 0.968584
    outer loop
      vertex 20.2998 33.85 8.42834
      vertex 20.4944 33.85 8.47831
      vertex 20.4944 38.2296 8.47831
    endloop
  endfacet
  facet normal -0.248686 0 0.968584
    outer loop
      vertex 20.2998 33.85 8.42834
      vertex 20.4944 38.2296 8.47831
      vertex 20.2998 38.2424 8.42834
    endloop
  endfacet
  facet normal 0 -1 0
    outer loop
      vertex 20.2998 33.85 8.42834
      vertex 20.6184 33.85 6.75845
      vertex 21.0198 33.85 6.86151
    endloop
  endfacet
  facet normal 0 -1 0
    outer loop
      vertex 20.2998 33.85 8.42834
      vertex 21.0198 33.85 6.86151
      vertex 20.4944 33.85 8.47831
    endloop
  endfacet
  facet normal -9.97603e-08 0.968588 -0.248673
    outer loop
      vertex 20.2998 38.2424 11.5717
      vertex 30 38.2594 11.6378
      vertex 20.4944 38.2296 11.5217
    endloop
  endfacet
  facet normal -9.97603e-08 0.968588 0.248673
    outer loop
      vertex 20.2998 38.2424 8.42834
      vertex 20.4944 38.2296 8.47831
      vertex 30 38.2594 8.36221
    endloop
  endfacet
  facet normal -0.368126 0 -0.929776
    outer loop
      vertex 20.4944 33.85 11.5217
      vertex 20.4944 38.2296 11.5217
      vertex 20.6812 38.2106 11.4477
    endloop
  endfacet
  facet normal 0 -1 0
    outer loop
      vertex 20.4944 33.85 11.5217
      vertex 20.6812 33.85 11.4477
      vertex 21.4051 33.85 12.9859
    endloop
  endfacet
  facet normal -0.368126 0 -0.929776
    outer loop
      vertex 20.4944 33.85 11.5217
      vertex 20.6812 38.2106 11.4477
      vertex 20.6812 33.85 11.4477
    endloop
  endfacet
  facet normal 0 -1 -0
    outer loop
      vertex 20.4944 33.85 11.5217
      vertex 21.4051 33.85 12.9859
      vertex 21.0198 33.85 13.1385
    endloop
  endfacet
  facet normal -0.368126 0 0.929776
    outer loop
      vertex 20.4944 33.85 8.47831
      vertex 20.6812 33.85 8.55228
      vertex 20.6812 38.2106 8.55228
    endloop
  endfacet
  facet normal -0.368126 0 0.929776
    outer loop
      vertex 20.4944 33.85 8.47831
      vertex 20.6812 38.2106 8.55228
      vertex 20.4944 38.2296 8.47831
    endloop
  endfacet
  facet normal 0 -1 0
    outer loop
      vertex 20.4944 33.85 8.47831
      vertex 21.0198 33.85 6.86151
      vertex 21.4051 33.85 7.01407
    endloop
  endfacet
  facet normal 0 -1 0
    outer loop
      vertex 20.4944 33.85 8.47831
      vertex 21.4051 33.85 7.01407
      vertex 20.6812 33.85 8.55228
    endloop
  endfacet
  facet normal 3.73501e-07 0.968578 -0.248709
    outer loop
      vertex 20.4944 38.2296 11.5217
      vertex 30 38.2594 11.6378
      vertex 20.6812 38.2106 11.4477
    endloop
  endfacet
  facet normal 3.73501e-07 0.968578 0.248709
    outer loop
      vertex 20.4944 38.2296 8.47831
      vertex 20.6812 38.2106 8.55228
      vertex 30 38.2594 8.36221
    endloop
  endfacet
  facet normal -0.24869 0 -0.968583
    outer loop
      vertex 20.6184 30.85 13.2415
      vertex 20.6184 33.85 13.2415
      vertex 21.0198 33.85 13.1385
    endloop
  endfacet
  facet normal 0 -1 0
    outer loop
      vertex 20.6184 30.85 13.2415
      vertex 21.0198 30.85 13.1385
      vertex 30 30.85 20
    endloop
  endfacet
  facet normal -0.24869 0 -0.968583
    outer loop
      vertex 20.6184 30.85 13.2415
      vertex 21.0198 33.85 13.1385
      vertex 21.0198 30.85 13.1385
    endloop
  endfacet
  facet normal -0.24869 0 0.968583
    outer loop
      vertex 20.6184 30.85 6.75845
      vertex 21.0198 30.85 6.86151
      vertex 20.6184 33.85 6.75845
    endloop
  endfacet
  facet normal 0 -1 0
    outer loop
      vertex 20.6184 30.85 6.75845
      vertex 30 30.85 0
      vertex 21.0198 30.85 6.86151
    endloop
  endfacet
  facet normal -0.24869 0 0.968583
    outer loop
      vertex 20.6184 33.85 6.75845
      vertex 21.0198 30.85 6.86151
      vertex 21.0198 33.85 6.86151
    endloop
  endfacet
  facet normal -0.481753 0 -0.876307
    outer loop
      vertex 20.6812 33.85 11.4477
      vertex 20.6812 38.2106 11.4477
      vertex 20.8573 38.1857 11.3509
    endloop
  endfacet
  facet normal 0 -1 0
    outer loop
      vertex 20.6812 33.85 11.4477
      vertex 20.8573 33.85 11.3509
      vertex 21.7682 33.85 12.7863
    endloop
  endfacet
  facet normal -0.481753 0 -0.876307
    outer loop
      vertex 20.6812 33.85 11.4477
      vertex 20.8573 38.1857 11.3509
      vertex 20.8573 33.85 11.3509
    endloop
  endfacet
  facet normal 0 -1 -0
    outer loop
      vertex 20.6812 33.85 11.4477
      vertex 21.7682 33.85 12.7863
      vertex 21.4051 33.85 12.9859
    endloop
  endfacet
  facet normal -0.481753 0 0.876307
    outer loop
      vertex 20.6812 33.85 8.55228
      vertex 20.8573 33.85 8.64907
      vertex 20.8573 38.1857 8.64907
    endloop
  endfacet
  facet normal -0.481753 0 0.876307
    outer loop
      vertex 20.6812 33.85 8.55228
      vertex 20.8573 38.1857 8.64907
      vertex 20.6812 38.2106 8.55228
    endloop
  endfacet
  facet normal 0 -1 0
    outer loop
      vertex 20.6812 33.85 8.55228
      vertex 21.4051 33.85 7.01407
      vertex 21.7682 33.85 7.21372
    endloop
  endfacet
  facet normal 0 -1 0
    outer loop
      vertex 20.6812 33.85 8.55228
      vertex 21.7682 33.85 7.21372
      vertex 20.8573 33.85 8.64907
    endloop
  endfacet
  facet normal -1.88332e-07 0.968585 -0.248683
    outer loop
      vertex 20.6812 38.2106 11.4477
      vertex 30 38.2594 11.6378
      vertex 20.8573 38.1857 11.3509
    endloop
  endfacet
  facet normal -1.88332e-07 0.968585 0.248683
    outer loop
      vertex 20.6812 38.2106 8.55228
      vertex 20.8573 38.1857 8.64907
      vertex 30 38.2594 8.36221
    endloop
  endfacet
  facet normal -0.587786 0 -0.809016
    outer loop
      vertex 20.8573 33.85 11.3509
      vertex 20.8573 38.1857 11.3509
      vertex 21.0199 38.1554 11.2328
    endloop
  endfacet
  facet normal 0 -1 0
    outer loop
      vertex 20.8573 33.85 11.3509
      vertex 21.0199 33.85 11.2328
      vertex 22.1035 33.85 12.5427
    endloop
  endfacet
  facet normal -0.587786 0 -0.809016
    outer loop
      vertex 20.8573 33.85 11.3509
      vertex 21.0199 38.1554 11.2328
      vertex 21.0199 33.85 11.2328
    endloop
  endfacet
  facet normal 0 -1 -0
    outer loop
      vertex 20.8573 33.85 11.3509
      vertex 22.1035 33.85 12.5427
      vertex 21.7682 33.85 12.7863
    endloop
  endfacet
  facet normal -0.587786 0 0.809016
    outer loop
      vertex 20.8573 33.85 8.64907
      vertex 21.0199 33.85 8.76718
      vertex 21.0199 38.1554 8.76718
    endloop
  endfacet
  facet normal -0.587786 0 0.809016
    outer loop
      vertex 20.8573 33.85 8.64907
      vertex 21.0199 38.1554 8.76718
      vertex 20.8573 38.1857 8.64907
    endloop
  endfacet
  facet normal 0 -1 0
    outer loop
      vertex 20.8573 33.85 8.64907
      vertex 21.7682 33.85 7.21372
      vertex 22.1035 33.85 7.45731
    endloop
  endfacet
  facet normal 0 -1 0
    outer loop
      vertex 20.8573 33.85 8.64907
      vertex 22.1035 33.85 7.45731
      vertex 21.0199 33.85 8.76718
    endloop
  endfacet
  facet normal -1.9654e-07 0.968585 -0.248683
    outer loop
      vertex 20.8573 38.1857 11.3509
      vertex 30 38.2594 11.6378
      vertex 21.0199 38.1554 11.2328
    endloop
  endfacet
  facet normal -1.9654e-07 0.968585 0.248683
    outer loop
      vertex 20.8573 38.1857 8.64907
      vertex 21.0199 38.1554 8.76718
      vertex 30 38.2594 8.36221
    endloop
  endfacet
  facet normal -0.368125 0 -0.929776
    outer loop
      vertex 21.0198 30.85 13.1385
      vertex 21.0198 33.85 13.1385
      vertex 21.4051 33.85 12.9859
    endloop
  endfacet
  facet normal 0 -1 0
    outer loop
      vertex 21.0198 30.85 13.1385
      vertex 21.4051 30.85 12.9859
      vertex 30 30.85 20
    endloop
  endfacet
  facet normal -0.368125 0 -0.929776
    outer loop
      vertex 21.0198 30.85 13.1385
      vertex 21.4051 33.85 12.9859
      vertex 21.4051 30.85 12.9859
    endloop
  endfacet
  facet normal -0.368125 0 0.929776
    outer loop
      vertex 21.0198 30.85 6.86151
      vertex 21.4051 30.85 7.01407
      vertex 21.0198 33.85 6.86151
    endloop
  endfacet
  facet normal 0 -1 0
    outer loop
      vertex 21.0198 30.85 6.86151
      vertex 30 30.85 0
      vertex 21.4051 30.85 7.01407
    endloop
  endfacet
  facet normal -0.368125 0 0.929776
    outer loop
      vertex 21.0198 33.85 6.86151
      vertex 21.4051 30.85 7.01407
      vertex 21.4051 33.85 7.01407
    endloop
  endfacet
  facet normal -0.684547 0 -0.728968
    outer loop
      vertex 21.0199 33.85 11.2328
      vertex 21.0199 38.1554 11.2328
      vertex 21.1663 38.1201 11.0953
    endloop
  endfacet
  facet normal 0 -1 0
    outer loop
      vertex 21.0199 33.85 11.2328
      vertex 21.1663 33.85 11.0953
      vertex 22.4056 33.85 12.259
    endloop
  endfacet
  facet normal -0.684547 0 -0.728968
    outer loop
      vertex 21.0199 33.85 11.2328
      vertex 21.1663 38.1201 11.0953
      vertex 21.1663 33.85 11.0953
    endloop
  endfacet
  facet normal 0 -1 -0
    outer loop
      vertex 21.0199 33.85 11.2328
      vertex 22.4056 33.85 12.259
      vertex 22.1035 33.85 12.5427
    endloop
  endfacet
  facet normal -0.684547 0 0.728968
    outer loop
      vertex 21.0199 33.85 8.76718
      vertex 21.1663 33.85 8.90472
      vertex 21.1663 38.1201 8.90472
    endloop
  endfacet
  facet normal -0.684547 0 0.728968
    outer loop
      vertex 21.0199 33.85 8.76718
      vertex 21.1663 38.1201 8.90472
      vertex 21.0199 38.1554 8.76718
    endloop
  endfacet
  facet normal 0 -1 0
    outer loop
      vertex 21.0199 33.85 8.76718
      vertex 22.1035 33.85 7.45731
      vertex 22.4056 33.85 7.74099
    endloop
  endfacet
  facet normal 0 -1 0
    outer loop
      vertex 21.0199 33.85 8.76718
      vertex 22.4056 33.85 7.74099
      vertex 21.1663 33.85 8.90472
    endloop
  endfacet
  facet normal 3.56695e-07 0.968582 -0.248695
    outer loop
      vertex 21.0199 38.1554 11.2328
      vertex 30 38.2594 11.6378
      vertex 21.1663 38.1201 11.0953
    endloop
  endfacet
  facet normal 3.56695e-07 0.968582 0.248695
    outer loop
      vertex 21.0199 38.1554 8.76718
      vertex 21.1663 38.1201 8.90472
      vertex 30 38.2594 8.36221
    endloop
  endfacet
  facet normal -0.770509 0 -0.637429
    outer loop
      vertex 21.1663 33.85 11.0953
      vertex 21.1663 38.1201 11.0953
      vertex 21.2509 38.0939 10.9931
    endloop
  endfacet
  facet normal -0.770524 7.31359e-07 -0.637411
    outer loop
      vertex 21.1663 33.85 11.0953
      vertex 21.2509 38.0939 10.9931
      vertex 21.2944 38.0872 10.9405
    endloop
  endfacet
  facet normal 0 -1 0
    outer loop
      vertex 21.1663 33.85 11.0953
      vertex 21.2944 33.85 10.9405
      vertex 22.6698 33.85 11.9397
    endloop
  endfacet
  facet normal -0.770514 0 -0.637423
    outer loop
      vertex 21.1663 33.85 11.0953
      vertex 21.2944 38.0872 10.9405
      vertex 21.2944 33.85 10.9405
    endloop
  endfacet
  facet normal 0 -1 -0
    outer loop
      vertex 21.1663 33.85 11.0953
      vertex 22.6698 33.85 11.9397
      vertex 22.4056 33.85 12.259
    endloop
  endfacet
  facet normal -0.770509 0 0.637429
    outer loop
      vertex 21.1663 33.85 8.90472
      vertex 21.2509 38.0939 9.00688
      vertex 21.1663 38.1201 8.90472
    endloop
  endfacet
  facet normal -0.770514 0 0.637423
    outer loop
      vertex 21.1663 33.85 8.90472
      vertex 21.2944 33.85 9.05954
      vertex 21.2944 38.0872 9.05954
    endloop
  endfacet
  facet normal -0.770524 7.31359e-07 0.637411
    outer loop
      vertex 21.1663 33.85 8.90472
      vertex 21.2944 38.0872 9.05954
      vertex 21.2509 38.0939 9.00688
    endloop
  endfacet
  facet normal 0 -1 0
    outer loop
      vertex 21.1663 33.85 8.90472
      vertex 22.4056 33.85 7.74099
      vertex 22.6698 33.85 8.06031
    endloop
  endfacet
  facet normal 0 -1 0
    outer loop
      vertex 21.1663 33.85 8.90472
      vertex 22.6698 33.85 8.06031
      vertex 21.2944 33.85 9.05954
    endloop
  endfacet
  facet normal 5.91262e-07 0.968581 -0.248698
    outer loop
      vertex 21.1663 38.1201 11.0953
      vertex 30 38.2594 11.6378
      vertex 21.2509 38.0939 10.9931
    endloop
  endfacet
  facet normal 5.91262e-07 0.968581 0.248698
    outer loop
      vertex 21.1663 38.1201 8.90472
      vertex 21.2509 38.0939 9.00688
      vertex 30 38.2594 8.36221
    endloop
  endfacet
  facet normal 0 0.992115 -0.12533
    outer loop
      vertex 21.2509 38.0939 10.9931
      vertex 30 38.0939 10.9931
      vertex 21.2944 38.0872 10.9405
    endloop
  endfacet
  facet normal 0 0.968583 -0.248691
    outer loop
      vertex 21.2509 38.0939 10.9931
      vertex 30 38.2594 11.6378
      vertex 30 38.0939 10.9931
    endloop
  endfacet
  facet normal 0 0.992115 0.12533
    outer loop
      vertex 21.2509 38.0939 9.00688
      vertex 21.2944 38.0872 9.05954
      vertex 30 38.0939 9.00688
    endloop
  endfacet
  facet normal 0 0.968583 0.248691
    outer loop
      vertex 21.2509 38.0939 9.00688
      vertex 30 38.0939 9.00688
      vertex 30 38.2594 8.36221
    endloop
  endfacet
  facet normal -0.844327 0 -0.535828
    outer loop
      vertex 21.2944 33.85 10.9405
      vertex 21.2944 38.0872 10.9405
      vertex 21.4021 38.0658 10.7708
    endloop
  endfacet
  facet normal 0 -1 0
    outer loop
      vertex 21.2944 33.85 10.9405
      vertex 21.4021 33.85 10.7708
      vertex 22.8918 33.85 11.5898
    endloop
  endfacet
  facet normal -0.844327 0 -0.535828
    outer loop
      vertex 21.2944 33.85 10.9405
      vertex 21.4021 38.0658 10.7708
      vertex 21.4021 33.85 10.7708
    endloop
  endfacet
  facet normal 0 -1 -0
    outer loop
      vertex 21.2944 33.85 10.9405
      vertex 22.8918 33.85 11.5898
      vertex 22.6698 33.85 11.9397
    endloop
  endfacet
  facet normal -0.844327 0 0.535828
    outer loop
      vertex 21.2944 33.85 9.05954
      vertex 21.4021 33.85 9.22919
      vertex 21.4021 38.0658 9.22919
    endloop
  endfacet
  facet normal -0.844327 0 0.535828
    outer loop
      vertex 21.2944 33.85 9.05954
      vertex 21.4021 38.0658 9.22919
      vertex 21.2944 38.0872 9.05954
    endloop
  endfacet
  facet normal 0 -1 0
    outer loop
      vertex 21.2944 33.85 9.05954
      vertex 22.6698 33.85 8.06031
      vertex 22.8918 33.85 8.41021
    endloop
  endfacet
  facet normal 0 -1 0
    outer loop
      vertex 21.2944 33.85 9.05954
      vertex 22.8918 33.85 8.41021
      vertex 21.4021 33.85 9.22919
    endloop
  endfacet
  facet normal -1.57072e-08 0.992115 -0.125328
    outer loop
      vertex 21.2944 38.0872 10.9405
      vertex 30 38.0939 10.9931
      vertex 21.4021 38.0658 10.7708
    endloop
  endfacet
  facet normal -1.57072e-08 0.992115 0.125328
    outer loop
      vertex 21.2944 38.0872 9.05954
      vertex 21.4021 38.0658 9.22919
      vertex 30 38.0939 9.00688
    endloop
  endfacet
  facet normal -0.904826 0 -0.425781
    outer loop
      vertex 21.4021 33.85 10.7708
      vertex 21.4021 38.0658 10.7708
      vertex 21.4876 38.0428 10.589
    endloop
  endfacet
  facet normal 0 -1 0
    outer loop
      vertex 21.4021 33.85 10.7708
      vertex 21.4876 33.85 10.589
      vertex 23.0683 33.85 11.2148
    endloop
  endfacet
  facet normal -0.904826 0 -0.425781
    outer loop
      vertex 21.4021 33.85 10.7708
      vertex 21.4876 38.0428 10.589
      vertex 21.4876 33.85 10.589
    endloop
  endfacet
  facet normal 0 -1 -0
    outer loop
      vertex 21.4021 33.85 10.7708
      vertex 23.0683 33.85 11.2148
      vertex 22.8918 33.85 11.5898
    endloop
  endfacet
  facet normal -0.904826 0 0.425781
    outer loop
      vertex 21.4021 33.85 9.22919
      vertex 21.4876 33.85 9.411
      vertex 21.4876 38.0428 9.411
    endloop
  endfacet
  facet normal -0.904826 0 0.425781
    outer loop
      vertex 21.4021 33.85 9.22919
      vertex 21.4876 38.0428 9.411
      vertex 21.4021 38.0658 9.22919
    endloop
  endfacet
  facet normal 0 -1 0
    outer loop
      vertex 21.4021 33.85 9.22919
      vertex 22.8918 33.85 8.41021
      vertex 23.0683 33.85 8.78519
    endloop
  endfacet
  facet normal 0 -1 0
    outer loop
      vertex 21.4021 33.85 9.22919
      vertex 23.0683 33.85 8.78519
      vertex 21.4876 33.85 9.411
    endloop
  endfacet
  facet normal 2.33684e-07 0.992114 -0.125337
    outer loop
      vertex 21.4021 38.0658 10.7708
      vertex 30 38.0939 10.9931
      vertex 21.4876 38.0428 10.589
    endloop
  endfacet
  facet normal 2.33684e-07 0.992114 0.125337
    outer loop
      vertex 21.4021 38.0658 9.22919
      vertex 21.4876 38.0428 9.411
      vertex 30 38.0939 9.00688
    endloop
  endfacet
  facet normal -0.481755 0 -0.876306
    outer loop
      vertex 21.4051 30.85 12.9859
      vertex 21.4051 33.85 12.9859
      vertex 21.7682 33.85 12.7863
    endloop
  endfacet
  facet normal 0 -1 0
    outer loop
      vertex 21.4051 30.85 12.9859
      vertex 21.7682 30.85 12.7863
      vertex 30 30.85 20
    endloop
  endfacet
  facet normal -0.481755 0 -0.876306
    outer loop
      vertex 21.4051 30.85 12.9859
      vertex 21.7682 33.85 12.7863
      vertex 21.7682 30.85 12.7863
    endloop
  endfacet
  facet normal -0.481755 0 0.876306
    outer loop
      vertex 21.4051 30.85 7.01407
      vertex 21.7682 30.85 7.21372
      vertex 21.4051 33.85 7.01407
    endloop
  endfacet
  facet normal 0 -1 0
    outer loop
      vertex 21.4051 30.85 7.01407
      vertex 30 30.85 0
      vertex 21.7682 30.85 7.21372
    endloop
  endfacet
  facet normal -0.481755 0 0.876306
    outer loop
      vertex 21.4051 33.85 7.01407
      vertex 21.7682 30.85 7.21372
      vertex 21.7682 33.85 7.21372
    endloop
  endfacet
  facet normal -0.951058 0 -0.309014
    outer loop
      vertex 21.4876 33.85 10.589
      vertex 21.4876 38.0428 10.589
      vertex 21.5497 38.0187 10.3979
    endloop
  endfacet
  facet normal 0 -1 0
    outer loop
      vertex 21.4876 33.85 10.589
      vertex 21.5497 33.85 10.3979
      vertex 23.1963 33.85 10.8207
    endloop
  endfacet
  facet normal -0.951058 0 -0.309014
    outer loop
      vertex 21.4876 33.85 10.589
      vertex 21.5497 38.0187 10.3979
      vertex 21.5497 33.85 10.3979
    endloop
  endfacet
  facet normal 0 -1 -0
    outer loop
      vertex 21.4876 33.85 10.589
      vertex 23.1963 33.85 10.8207
      vertex 23.0683 33.85 11.2148
    endloop
  endfacet
  facet normal -0.951058 0 0.309014
    outer loop
      vertex 21.4876 33.85 9.411
      vertex 21.5497 33.85 9.6021
      vertex 21.5497 38.0187 9.6021
    endloop
  endfacet
  facet normal -0.951058 0 0.309014
    outer loop
      vertex 21.4876 33.85 9.411
      vertex 21.5497 38.0187 9.6021
      vertex 21.4876 38.0428 9.411
    endloop
  endfacet
  facet normal 0 -1 0
    outer loop
      vertex 21.4876 33.85 9.411
      vertex 23.0683 33.85 8.78519
      vertex 23.1963 33.85 9.17932
    endloop
  endfacet
  facet normal 0 -1 0
    outer loop
      vertex 21.4876 33.85 9.411
      vertex 23.1963 33.85 9.17932
      vertex 21.5497 33.85 9.6021
    endloop
  endfacet
  facet normal -3.41136e-07 0.992116 -0.125325
    outer loop
      vertex 21.4876 38.0428 10.589
      vertex 30 38.0939 10.9931
      vertex 21.5497 38.0187 10.3979
    endloop
  endfacet
  facet normal -3.41136e-07 0.992116 0.125325
    outer loop
      vertex 21.4876 38.0428 9.411
      vertex 21.5497 38.0187 9.6021
      vertex 30 38.0939 9.00688
    endloop
  endfacet
  facet normal -0.982289 0 -0.187374
    outer loop
      vertex 21.5497 33.85 10.3979
      vertex 21.5497 38.0187 10.3979
      vertex 21.5622 38.0105 10.3328
    endloop
  endfacet
  facet normal -0.982287 -1.686e-07 -0.187384
    outer loop
      vertex 21.5497 33.85 10.3979
      vertex 21.5622 38.0105 10.3328
      vertex 21.5874 33.85 10.2005
    endloop
  endfacet
  facet normal 0 -1 0
    outer loop
      vertex 21.5497 33.85 10.3979
      vertex 21.5874 33.85 10.2005
      vertex 23.274 33.85 10.4136
    endloop
  endfacet
  facet normal 0 -1 -0
    outer loop
      vertex 21.5497 33.85 10.3979
      vertex 23.274 33.85 10.4136
      vertex 23.1963 33.85 10.8207
    endloop
  endfacet
  facet normal -0.982289 0 0.187374
    outer loop
      vertex 21.5497 33.85 9.6021
      vertex 21.5622 38.0105 9.66721
      vertex 21.5497 38.0187 9.6021
    endloop
  endfacet
  facet normal -0.982287 -1.686e-07 0.187384
    outer loop
      vertex 21.5497 33.85 9.6021
      vertex 21.5874 33.85 9.79947
      vertex 21.5622 38.0105 9.66721
    endloop
  endfacet
  facet normal 0 -1 0
    outer loop
      vertex 21.5497 33.85 9.6021
      vertex 23.1963 33.85 9.17932
      vertex 23.274 33.85 9.5864
    endloop
  endfacet
  facet normal 0 -1 0
    outer loop
      vertex 21.5497 33.85 9.6021
      vertex 23.274 33.85 9.5864
      vertex 21.5874 33.85 9.79947
    endloop
  endfacet
  facet normal -1.18881e-06 0.992117 -0.125314
    outer loop
      vertex 21.5497 38.0187 10.3979
      vertex 30 38.0939 10.9931
      vertex 21.5622 38.0105 10.3328
    endloop
  endfacet
  facet normal -1.18881e-06 0.992117 0.125314
    outer loop
      vertex 21.5497 38.0187 9.6021
      vertex 21.5622 38.0105 9.66721
      vertex 30 38.0939 9.00688
    endloop
  endfacet
  facet normal -0.982286 -0 -0.187389
    outer loop
      vertex 21.5622 38.0105 10.3328
      vertex 21.5874 38.0105 10.2005
      vertex 21.5874 33.85 10.2005
    endloop
  endfacet
  facet normal 0 1 0
    outer loop
      vertex 21.5622 38.0105 10.3328
      vertex 30 38.0105 10.3328
      vertex 21.5874 38.0105 10.2005
    endloop
  endfacet
  facet normal 0 0.992115 -0.125329
    outer loop
      vertex 21.5622 38.0105 10.3328
      vertex 30 38.0939 10.9931
      vertex 30 38.0105 10.3328
    endloop
  endfacet
  facet normal -0.982286 0 0.187389
    outer loop
      vertex 21.5622 38.0105 9.66721
      vertex 21.5874 33.85 9.79947
      vertex 21.5874 38.0105 9.79947
    endloop
  endfacet
  facet normal 0 1 0
    outer loop
      vertex 21.5622 38.0105 9.66721
      vertex 21.5874 38.0105 9.79947
      vertex 30 38.0105 9.66721
    endloop
  endfacet
  facet normal 0 0.992115 0.125329
    outer loop
      vertex 21.5622 38.0105 9.66721
      vertex 30 38.0105 9.66721
      vertex 30 38.0939 9.00688
    endloop
  endfacet
  facet normal -0.998028 -0 -0.0627744
    outer loop
      vertex 21.5874 33.85 10.2005
      vertex 21.5874 38.0105 10.2005
      vertex 21.5915 33.85 10.1358
    endloop
  endfacet
  facet normal 0 -1 0
    outer loop
      vertex 21.5874 33.85 10.2005
      vertex 21.5915 33.85 10.1358
      vertex 23.274 33.85 10.4136
    endloop
  endfacet
  facet normal -0.998027 -1.81005e-07 0.062789
    outer loop
      vertex 21.5874 33.85 9.79947
      vertex 21.5959 33.85 9.93523
      vertex 21.597 38.0105 9.95191
    endloop
  endfacet
  facet normal -0.998027 0 0.0627841
    outer loop
      vertex 21.5874 33.85 9.79947
      vertex 21.597 38.0105 9.95191
      vertex 21.5874 38.0105 9.79947
    endloop
  endfacet
  facet normal 0 -1 0
    outer loop
      vertex 21.5874 33.85 9.79947
      vertex 23.274 33.85 9.5864
      vertex 21.5959 33.85 9.93523
    endloop
  endfacet
  facet normal -0.998027 1.64625e-07 -0.0627849
    outer loop
      vertex 21.5874 38.0105 10.2005
      vertex 21.5904 38.0105 10.1524
      vertex 21.5915 33.85 10.1358
    endloop
  endfacet
  facet normal 0 1 0
    outer loop
      vertex 21.5874 38.0105 10.2005
      vertex 30 38.0105 10.3328
      vertex 21.5904 38.0105 10.1524
    endloop
  endfacet
  facet normal 0 1 0
    outer loop
      vertex 21.5874 38.0105 9.79947
      vertex 21.597 38.0105 9.95191
      vertex 30 38.0105 9.66721
    endloop
  endfacet
  facet normal -0.998027 1.79236e-07 -0.0627886
    outer loop
      vertex 21.5904 38.0105 10.1524
      vertex 21.6 33.85 10
      vertex 21.5915 33.85 10.1358
    endloop
  endfacet
  facet normal -0.998027 0 -0.0627837
    outer loop
      vertex 21.5904 38.0105 10.1524
      vertex 21.6 38.0105 10
      vertex 21.6 33.85 10
    endloop
  endfacet
  facet normal 0 1 0
    outer loop
      vertex 21.5904 38.0105 10.1524
      vertex 30 38.0105 10.3328
      vertex 21.6 38.0105 10
    endloop
  endfacet
  facet normal 0 -1 0
    outer loop
      vertex 21.5915 33.85 10.1358
      vertex 21.6 33.85 10
      vertex 23.3 33.85 10
    endloop
  endfacet
  facet normal 0 -1 0
    outer loop
      vertex 21.5915 33.85 10.1358
      vertex 23.3 33.85 10
      vertex 23.274 33.85 10.4136
    endloop
  endfacet
  facet normal -0.998028 0 0.0627744
    outer loop
      vertex 21.5959 33.85 9.93523
      vertex 21.6 33.85 10
      vertex 21.6 38.0105 10
    endloop
  endfacet
  facet normal -0.998027 -1.64625e-07 0.0627849
    outer loop
      vertex 21.5959 33.85 9.93523
      vertex 21.6 38.0105 10
      vertex 21.597 38.0105 9.95191
    endloop
  endfacet
  facet normal 0 -1 0
    outer loop
      vertex 21.5959 33.85 9.93523
      vertex 23.274 33.85 9.5864
      vertex 23.3 33.85 10
    endloop
  endfacet
  facet normal 0 -1 0
    outer loop
      vertex 21.5959 33.85 9.93523
      vertex 23.3 33.85 10
      vertex 21.6 33.85 10
    endloop
  endfacet
  facet normal 0 1 0
    outer loop
      vertex 21.597 38.0105 9.95191
      vertex 21.6 38.0105 10
      vertex 30 38.0105 9.66721
    endloop
  endfacet
  facet normal 0 1 -0
    outer loop
      vertex 21.6 38.0105 10
      vertex 30 38.0105 10.3328
      vertex 30 38.0105 9.66721
    endloop
  endfacet
  facet normal -0.587784 0 -0.809018
    outer loop
      vertex 21.7682 30.85 12.7863
      vertex 21.7682 33.85 12.7863
      vertex 22.1035 33.85 12.5427
    endloop
  endfacet
  facet normal 0 -1 0
    outer loop
      vertex 21.7682 30.85 12.7863
      vertex 22.1035 30.85 12.5427
      vertex 30 30.85 20
    endloop
  endfacet
  facet normal -0.587784 0 -0.809018
    outer loop
      vertex 21.7682 30.85 12.7863
      vertex 22.1035 33.85 12.5427
      vertex 22.1035 30.85 12.5427
    endloop
  endfacet
  facet normal -0.587784 0 0.809018
    outer loop
      vertex 21.7682 30.85 7.21372
      vertex 22.1035 30.85 7.45731
      vertex 21.7682 33.85 7.21372
    endloop
  endfacet
  facet normal 0 -1 0
    outer loop
      vertex 21.7682 30.85 7.21372
      vertex 30 30.85 0
      vertex 22.1035 30.85 7.45731
    endloop
  endfacet
  facet normal -0.587784 0 0.809018
    outer loop
      vertex 21.7682 33.85 7.21372
      vertex 22.1035 30.85 7.45731
      vertex 22.1035 33.85 7.45731
    endloop
  endfacet
  facet normal -0.684547 0 -0.728968
    outer loop
      vertex 22.1035 30.85 12.5427
      vertex 22.1035 33.85 12.5427
      vertex 22.4056 33.85 12.259
    endloop
  endfacet
  facet normal 0 -1 0
    outer loop
      vertex 22.1035 30.85 12.5427
      vertex 22.4056 30.85 12.259
      vertex 30 30.85 20
    endloop
  endfacet
  facet normal -0.684547 0 -0.728968
    outer loop
      vertex 22.1035 30.85 12.5427
      vertex 22.4056 33.85 12.259
      vertex 22.4056 30.85 12.259
    endloop
  endfacet
  facet normal -0.684547 0 0.728968
    outer loop
      vertex 22.1035 30.85 7.45731
      vertex 22.4056 30.85 7.74099
      vertex 22.1035 33.85 7.45731
    endloop
  endfacet
  facet normal 0 -1 0
    outer loop
      vertex 22.1035 30.85 7.45731
      vertex 30 30.85 0
      vertex 22.4056 30.85 7.74099
    endloop
  endfacet
  facet normal -0.684547 0 0.728968
    outer loop
      vertex 22.1035 33.85 7.45731
      vertex 22.4056 30.85 7.74099
      vertex 22.4056 33.85 7.74099
    endloop
  endfacet
  facet normal -0.770512 -0 -0.637425
    outer loop
      vertex 22.4056 30.85 12.259
      vertex 22.4056 33.85 12.259
      vertex 22.6698 30.85 11.9397
    endloop
  endfacet
  facet normal 0 -1 0
    outer loop
      vertex 22.4056 30.85 12.259
      vertex 22.6698 30.85 11.9397
      vertex 30 30.85 20
    endloop
  endfacet
  facet normal -0.770512 0 0.637425
    outer loop
      vertex 22.4056 30.85 7.74099
      vertex 22.6698 30.85 8.06031
      vertex 22.6698 33.85 8.06031
    endloop
  endfacet
  facet normal -0.770512 0 0.637425
    outer loop
      vertex 22.4056 30.85 7.74099
      vertex 22.6698 33.85 8.06031
      vertex 22.4056 33.85 7.74099
    endloop
  endfacet
  facet normal 0 -1 0
    outer loop
      vertex 22.4056 30.85 7.74099
      vertex 30 30.85 0
      vertex 22.6698 30.85 8.06031
    endloop
  endfacet
  facet normal -0.770512 0 -0.637425
    outer loop
      vertex 22.4056 33.85 12.259
      vertex 22.6698 33.85 11.9397
      vertex 22.6698 30.85 11.9397
    endloop
  endfacet
  facet normal -0.844328 -0 -0.535826
    outer loop
      vertex 22.6698 30.85 11.9397
      vertex 22.6698 33.85 11.9397
      vertex 22.8918 30.85 11.5898
    endloop
  endfacet
  facet normal 0 -1 0
    outer loop
      vertex 22.6698 30.85 11.9397
      vertex 22.8918 30.85 11.5898
      vertex 30 30.85 20
    endloop
  endfacet
  facet normal -0.844328 0 0.535826
    outer loop
      vertex 22.6698 30.85 8.06031
      vertex 22.8918 30.85 8.41021
      vertex 22.8918 33.85 8.41021
    endloop
  endfacet
  facet normal -0.844328 0 0.535826
    outer loop
      vertex 22.6698 30.85 8.06031
      vertex 22.8918 33.85 8.41021
      vertex 22.6698 33.85 8.06031
    endloop
  endfacet
  facet normal 0 -1 0
    outer loop
      vertex 22.6698 30.85 8.06031
      vertex 30 30.85 0
      vertex 22.8918 30.85 8.41021
    endloop
  endfacet
  facet normal -0.844328 0 -0.535826
    outer loop
      vertex 22.6698 33.85 11.9397
      vertex 22.8918 33.85 11.5898
      vertex 22.8918 30.85 11.5898
    endloop
  endfacet
  facet normal -0.904827 -0 -0.42578
    outer loop
      vertex 22.8918 30.85 11.5898
      vertex 22.8918 33.85 11.5898
      vertex 23.0683 30.85 11.2148
    endloop
  endfacet
  facet normal 0 -1 0
    outer loop
      vertex 22.8918 30.85 11.5898
      vertex 23.0683 30.85 11.2148
      vertex 30 30.85 20
    endloop
  endfacet
  facet normal -0.904827 0 0.42578
    outer loop
      vertex 22.8918 30.85 8.41021
      vertex 23.0683 30.85 8.78519
      vertex 23.0683 33.85 8.78519
    endloop
  endfacet
  facet normal -0.904827 0 0.42578
    outer loop
      vertex 22.8918 30.85 8.41021
      vertex 23.0683 33.85 8.78519
      vertex 22.8918 33.85 8.41021
    endloop
  endfacet
  facet normal 0 -1 0
    outer loop
      vertex 22.8918 30.85 8.41021
      vertex 30 30.85 0
      vertex 23.0683 30.85 8.78519
    endloop
  endfacet
  facet normal -0.904827 0 -0.42578
    outer loop
      vertex 22.8918 33.85 11.5898
      vertex 23.0683 33.85 11.2148
      vertex 23.0683 30.85 11.2148
    endloop
  endfacet
  facet normal -0.951057 -0 -0.309015
    outer loop
      vertex 23.0683 30.85 11.2148
      vertex 23.0683 33.85 11.2148
      vertex 23.1963 30.85 10.8207
    endloop
  endfacet
  facet normal 0 -1 0
    outer loop
      vertex 23.0683 30.85 11.2148
      vertex 23.1963 30.85 10.8207
      vertex 30 30.85 20
    endloop
  endfacet
  facet normal -0.951057 0 0.309015
    outer loop
      vertex 23.0683 30.85 8.78519
      vertex 23.1963 30.85 9.17932
      vertex 23.1963 33.85 9.17932
    endloop
  endfacet
  facet normal -0.951057 0 0.309015
    outer loop
      vertex 23.0683 30.85 8.78519
      vertex 23.1963 33.85 9.17932
      vertex 23.0683 33.85 8.78519
    endloop
  endfacet
  facet normal 0 -1 0
    outer loop
      vertex 23.0683 30.85 8.78519
      vertex 30 30.85 0
      vertex 23.1963 30.85 9.17932
    endloop
  endfacet
  facet normal -0.951057 0 -0.309015
    outer loop
      vertex 23.0683 33.85 11.2148
      vertex 23.1963 33.85 10.8207
      vertex 23.1963 30.85 10.8207
    endloop
  endfacet
  facet normal -0.982286 -0 -0.187385
    outer loop
      vertex 23.1963 30.85 10.8207
      vertex 23.1963 33.85 10.8207
      vertex 23.274 30.85 10.4136
    endloop
  endfacet
  facet normal 0 -1 0
    outer loop
      vertex 23.1963 30.85 10.8207
      vertex 23.274 30.85 10.4136
      vertex 30 30.85 20
    endloop
  endfacet
  facet normal -0.982286 0 0.187385
    outer loop
      vertex 23.1963 30.85 9.17932
      vertex 23.274 30.85 9.5864
      vertex 23.274 33.85 9.5864
    endloop
  endfacet
  facet normal -0.982286 0 0.187385
    outer loop
      vertex 23.1963 30.85 9.17932
      vertex 23.274 33.85 9.5864
      vertex 23.1963 33.85 9.17932
    endloop
  endfacet
  facet normal 0 -1 0
    outer loop
      vertex 23.1963 30.85 9.17932
      vertex 30 30.85 0
      vertex 23.274 30.85 9.5864
    endloop
  endfacet
  facet normal -0.982286 0 -0.187385
    outer loop
      vertex 23.1963 33.85 10.8207
      vertex 23.274 33.85 10.4136
      vertex 23.274 30.85 10.4136
    endloop
  endfacet
  facet normal -0.998027 -0 -0.062787
    outer loop
      vertex 23.274 30.85 10.4136
      vertex 23.274 33.85 10.4136
      vertex 23.3 30.85 10
    endloop
  endfacet
  facet normal 0 -1 0
    outer loop
      vertex 23.274 30.85 10.4136
      vertex 23.3 30.85 10
      vertex 30 30.85 20
    endloop
  endfacet
  facet normal -0.998027 0 0.0627872
    outer loop
      vertex 23.274 30.85 9.5864
      vertex 23.3 30.85 10
      vertex 23.3 33.85 10
    endloop
  endfacet
  facet normal -0.998027 0 0.0627872
    outer loop
      vertex 23.274 30.85 9.5864
      vertex 23.3 33.85 10
      vertex 23.274 33.85 9.5864
    endloop
  endfacet
  facet normal 0 -1 0
    outer loop
      vertex 23.274 30.85 9.5864
      vertex 30 30.85 0
      vertex 23.3 30.85 10
    endloop
  endfacet
  facet normal -0.998027 0 -0.062787
    outer loop
      vertex 23.274 33.85 10.4136
      vertex 23.3 33.85 10
      vertex 23.3 30.85 10
    endloop
  endfacet
  facet normal 0 -1 0
    outer loop
      vertex 23.3 30.85 10
      vertex 30 30.85 0
      vertex 30 30.85 20
    endloop
  endfacet
  facet normal 1 0 0
    outer loop
      vertex 30 30.85 0
      vertex 30 38.0105 9.66721
      vertex 30 30.85 20
    endloop
  endfacet
  facet normal 1 0 0
    outer loop
      vertex 30 30.85 0
      vertex 30 38.0939 9.00688
      vertex 30 38.0105 9.66721
    endloop
  endfacet
  facet normal 1 0 0
    outer loop
      vertex 30 30.85 0
      vertex 30 38.2594 8.36221
      vertex 30 38.0939 9.00688
    endloop
  endfacet
  facet normal 1 0 0
    outer loop
      vertex 30 30.85 0
      vertex 30 38.5044 7.74337
      vertex 30 38.2594 8.36221
    endloop
  endfacet
  facet normal 1 0 0
    outer loop
      vertex 30 30.85 0
      vertex 30 38.8251 7.16012
      vertex 30 38.5044 7.74337
    endloop
  endfacet
  facet normal 1 0 0
    outer loop
      vertex 30 30.85 0
      vertex 30 39.2163 6.62165
      vertex 30 38.8251 7.16012
    endloop
  endfacet
  facet normal 1 0 0
    outer loop
      vertex 30 30.85 0
      vertex 30 39.6719 6.13647
      vertex 30 39.2163 6.62165
    endloop
  endfacet
  facet normal 1 0 0
    outer loop
      vertex 30 30.85 0
      vertex 30 40.1847 5.71221
      vertex 30 39.6719 6.13647
    endloop
  endfacet
  facet normal 1 0 0
    outer loop
      vertex 30 30.85 0
      vertex 30 43.3 0
      vertex 30 40.1847 5.71221
    endloop
  endfacet
  facet normal 1 0 0
    outer loop
      vertex 30 30.85 20
      vertex 30 38.0105 10.3328
      vertex 30 38.0939 10.9931
    endloop
  endfacet
  facet normal 1 0 0
    outer loop
      vertex 30 30.85 20
      vertex 30 38.0105 9.66721
      vertex 30 38.0105 10.3328
    endloop
  endfacet
  facet normal 1 0 0
    outer loop
      vertex 30 30.85 20
      vertex 30 38.0939 10.9931
      vertex 30 38.2594 11.6378
    endloop
  endfacet
  facet normal 1 0 0
    outer loop
      vertex 30 30.85 20
      vertex 30 38.2594 11.6378
      vertex 30 38.5044 12.2566
    endloop
  endfacet
  facet normal 1 0 0
    outer loop
      vertex 30 30.85 20
      vertex 30 38.5044 12.2566
      vertex 30 38.8251 12.8399
    endloop
  endfacet
  facet normal 1 0 0
    outer loop
      vertex 30 30.85 20
      vertex 30 38.8251 12.8399
      vertex 30 39.2163 13.3783
    endloop
  endfacet
  facet normal 1 0 0
    outer loop
      vertex 30 30.85 20
      vertex 30 39.2163 13.3783
      vertex 30 39.6719 13.8635
    endloop
  endfacet
  facet normal 1 0 0
    outer loop
      vertex 30 30.85 20
      vertex 30 39.6719 13.8635
      vertex 30 40.1847 14.2878
    endloop
  endfacet
  facet normal 1 -0 0
    outer loop
      vertex 30 30.85 20
      vertex 30 40.1847 14.2878
      vertex 30 43.3 20
    endloop
  endfacet
  facet normal 1 0 0
    outer loop
      vertex 30 40.1847 14.2878
      vertex 30 40.7467 14.6444
      vertex 30 43.3 20
    endloop
  endfacet
  facet normal 1 0 0
    outer loop
      vertex 30 40.1847 5.71221
      vertex 30 43.3 0
      vertex 30 40.7467 5.35557
    endloop
  endfacet
  facet normal 1 0 0
    outer loop
      vertex 30 40.7467 14.6444
      vertex 30 41.3489 14.9278
      vertex 30 43.3 20
    endloop
  endfacet
  facet normal 1 0 0
    outer loop
      vertex 30 40.7467 5.35557
      vertex 30 43.3 0
      vertex 30 41.3489 5.07218
    endloop
  endfacet
  facet normal 1 0 0
    outer loop
      vertex 30 41.3489 14.9278
      vertex 30 41.9819 15.1335
      vertex 30 43.3 20
    endloop
  endfacet
  facet normal 1 0 0
    outer loop
      vertex 30 41.3489 5.07218
      vertex 30 43.3 0
      vertex 30 41.9819 4.86651
    endloop
  endfacet
  facet normal 1 0 0
    outer loop
      vertex 30 41.9819 15.1335
      vertex 30 42.6357 15.2582
      vertex 30 43.3 20
    endloop
  endfacet
  facet normal 1 0 0
    outer loop
      vertex 30 41.9819 4.86651
      vertex 30 43.3 0
      vertex 30 42.6357 4.74179
    endloop
  endfacet
  facet normal 1 0 0
    outer loop
      vertex 30 42.6357 15.2582
      vertex 30 43.3 15.3
      vertex 30 43.3 20
    endloop
  endfacet
  facet normal 1 0 0
    outer loop
      vertex 30 42.6357 4.74179
      vertex 30 43.3 0
      vertex 30 43.3 4.7
    endloop
  endfacet
endsolid model
