solid model
  facet normal 0 1 0
    outer loop
      vertex -0.204069 -3.24359 0
      vertex -0.204069 -3.24359 5.5
      vertex 0.204069 -3.24359 0
    endloop
  endfacet
  facet normal 0 0 -1
    outer loop
      vertex -0.204069 -3.24359 0
      vertex 0.204069 -3.24359 0
      vertex 0.409708 -6.51212 0
    endloop
  endfacet
  facet normal 0 1 -0
    outer loop
      vertex -0.204069 -3.24359 5.5
      vertex 0.204069 -3.24359 5.5
      vertex 0.204069 -3.24359 0
    endloop
  endfacet
  facet normal -0 0 1
    outer loop
      vertex -0.204069 -3.24359 5.5
      vertex 0.315522 -5.01508 5.5
      vertex 0.204069 -3.24359 5.5
    endloop
  endfacet
  facet normal 0 -1 -0
    outer loop
      vertex -0.204069 3.24359 0
      vertex 0.204069 3.24359 0
      vertex 0.204069 3.24359 5.5
    endloop
  endfacet
  facet normal 0 -1 0
    outer loop
      vertex -0.204069 3.24359 0
      vertex 0.204069 3.24359 5.5
      vertex -0.204069 3.24359 5.5
    endloop
  endfacet
  facet normal 0 0 -1
    outer loop
      vertex -0.204069 3.24359 0
      vertex 0.409708 6.51212 0
      vertex 0.204069 3.24359 0
    endloop
  endfacet
  facet normal 0 0 1
    outer loop
      vertex -0.204069 3.24359 5.5
      vertex 0.204069 3.24359 5.5
      vertex 0.315522 5.01508 5.5
    endloop
  endfacet
  facet normal 0 -1 -0
    outer loop
      vertex -0.315522 -5.01508 1
      vertex 0.315522 -5.01508 1
      vertex 0.315522 -5.01508 5.5
    endloop
  endfacet
  facet normal 0 -1 0
    outer loop
      vertex -0.315522 -5.01508 1
      vertex 0.315522 -5.01508 5.5
      vertex -0.315522 -5.01508 5.5
    endloop
  endfacet
  facet normal -0 0 1
    outer loop
      vertex -0.315522 -5.01508 1
      vertex 0.409708 -6.51212 1
      vertex 0.315522 -5.01508 1
    endloop
  endfacet
  facet normal 0 0 1
    outer loop
      vertex -0.315522 -5.01508 5.5
      vertex 0.315522 -5.01508 5.5
      vertex -0.204069 -3.24359 5.5
    endloop
  endfacet
  facet normal 0 1 0
    outer loop
      vertex -0.315522 5.01508 1
      vertex -0.315522 5.01508 5.5
      vertex 0.315522 5.01508 1
    endloop
  endfacet
  facet normal 0 0 1
    outer loop
      vertex -0.315522 5.01508 1
      vertex 0.315522 5.01508 1
      vertex 0.409708 6.51212 1
    endloop
  endfacet
  facet normal -0 0 1
    outer loop
      vertex -0.315522 5.01508 5.5
      vertex -0.204069 3.24359 5.5
      vertex 0.315522 5.01508 5.5
    endloop
  endfacet
  facet normal 0 1 -0
    outer loop
      vertex -0.315522 5.01508 5.5
      vertex 0.315522 5.01508 5.5
      vertex 0.315522 5.01508 1
    endloop
  endfacet
  facet normal 0 0 -1
    outer loop
      vertex -0.409708 -6.51212 0
      vertex -0.204069 -3.24359 0
      vertex 0.409708 -6.51212 0
    endloop
  endfacet
  facet normal 0 -1 -0
    outer loop
      vertex -0.409708 -6.51212 0
      vertex 0.409708 -6.51212 0
      vertex 0.409708 -6.51212 1
    endloop
  endfacet
  facet normal 0 -1 0
    outer loop
      vertex -0.409708 -6.51212 0
      vertex 0.409708 -6.51212 1
      vertex -0.409708 -6.51212 1
    endloop
  endfacet
  facet normal 0 0 1
    outer loop
      vertex -0.409708 -6.51212 1
      vertex 0.409708 -6.51212 1
      vertex -0.315522 -5.01508 1
    endloop
  endfacet
  facet normal 0 1 0
    outer loop
      vertex -0.409708 6.51212 0
      vertex -0.409708 6.51212 1
      vertex 0.409708 6.51212 0
    endloop
  endfacet
  facet normal 0 0 -1
    outer loop
      vertex -0.409708 6.51212 0
      vertex 0.409708 6.51212 0
      vertex -0.204069 3.24359 0
    endloop
  endfacet
  facet normal -0 0 1
    outer loop
      vertex -0.409708 6.51212 1
      vertex -0.315522 5.01508 1
      vertex 0.409708 6.51212 1
    endloop
  endfacet
  facet normal 0 1 -0
    outer loop
      vertex -0.409708 6.51212 1
      vertex 0.409708 6.51212 1
      vertex 0.409708 6.51212 0
    endloop
  endfacet
  facet normal 0 0 -1
    outer loop
      vertex -0.608989 -3.19243 0
      vertex -0.204069 -3.24359 0
      vertex -0.409708 -6.51212 0
    endloop
  endfacet
  facet normal 0.125349 0.992113 0
    outer loop
      vertex -0.608989 -3.19243 0
      vertex -0.608989 -3.19243 5.5
      vertex -0.204069 -3.24359 0
    endloop
  endfacet
  facet normal 0.125349 0.992113 -0
    outer loop
      vertex -0.608989 -3.19243 5.5
      vertex -0.204069 -3.24359 5.5
      vertex -0.204069 -3.24359 0
    endloop
  endfacet
  facet normal 0 0 1
    outer loop
      vertex -0.608989 -3.19243 5.5
      vertex -0.315522 -5.01508 5.5
      vertex -0.204069 -3.24359 5.5
    endloop
  endfacet
  facet normal 0.125349 -0.992113 0
    outer loop
      vertex -0.608989 3.19243 0
      vertex -0.204069 3.24359 0
      vertex -0.204069 3.24359 5.5
    endloop
  endfacet
  facet normal 0.125349 -0.992113 0
    outer loop
      vertex -0.608989 3.19243 0
      vertex -0.204069 3.24359 5.5
      vertex -0.608989 3.19243 5.5
    endloop
  endfacet
  facet normal 0 0 -1
    outer loop
      vertex -0.608989 3.19243 0
      vertex -0.409708 6.51212 0
      vertex -0.204069 3.24359 0
    endloop
  endfacet
  facet normal 0 0 1
    outer loop
      vertex -0.608989 3.19243 5.5
      vertex -0.204069 3.24359 5.5
      vertex -0.315522 5.01508 5.5
    endloop
  endfacet
  facet normal -0.125332 -0.992115 -0
    outer loop
      vertex -0.94159 -4.93599 1
      vertex -0.315522 -5.01508 1
      vertex -0.315522 -5.01508 5.5
    endloop
  endfacet
  facet normal -0.125332 -0.992115 0
    outer loop
      vertex -0.94159 -4.93599 1
      vertex -0.315522 -5.01508 5.5
      vertex -0.94159 -4.93599 5.5
    endloop
  endfacet
  facet normal 0 0 1
    outer loop
      vertex -0.94159 -4.93599 1
      vertex -0.409708 -6.51212 1
      vertex -0.315522 -5.01508 1
    endloop
  endfacet
  facet normal 0 0 1
    outer loop
      vertex -0.94159 -4.93599 5.5
      vertex -0.315522 -5.01508 5.5
      vertex -0.608989 -3.19243 5.5
    endloop
  endfacet
  facet normal 0 0 1
    outer loop
      vertex -0.94159 4.93599 1
      vertex -0.315522 5.01508 1
      vertex -0.409708 6.51212 1
    endloop
  endfacet
  facet normal -0.125332 0.992115 0
    outer loop
      vertex -0.94159 4.93599 1
      vertex -0.94159 4.93599 5.5
      vertex -0.315522 5.01508 1
    endloop
  endfacet
  facet normal -0.125332 0.992115 0
    outer loop
      vertex -0.94159 4.93599 5.5
      vertex -0.315522 5.01508 5.5
      vertex -0.315522 5.01508 1
    endloop
  endfacet
  facet normal -0 0 1
    outer loop
      vertex -0.94159 4.93599 5.5
      vertex -0.608989 3.19243 5.5
      vertex -0.315522 5.01508 5.5
    endloop
  endfacet
  facet normal 0.248693 0.968582 0
    outer loop
      vertex -1.0043 -3.09093 0
      vertex -1.0043 -3.09093 5.5
      vertex -0.608989 -3.19243 0
    endloop
  endfacet
  facet normal 0.248693 0.968582 -0
    outer loop
      vertex -1.0043 -3.09093 5.5
      vertex -0.608989 -3.19243 5.5
      vertex -0.608989 -3.19243 0
    endloop
  endfacet
  facet normal 0 0 1
    outer loop
      vertex -1.0043 -3.09093 5.5
      vertex -0.94159 -4.93599 5.5
      vertex -0.608989 -3.19243 5.5
    endloop
  endfacet
  facet normal 0.248693 -0.968582 0
    outer loop
      vertex -1.0043 3.09093 0
      vertex -0.608989 3.19243 0
      vertex -0.608989 3.19243 5.5
    endloop
  endfacet
  facet normal 0.248693 -0.968582 0
    outer loop
      vertex -1.0043 3.09093 0
      vertex -0.608989 3.19243 5.5
      vertex -1.0043 3.09093 5.5
    endloop
  endfacet
  facet normal 0 0 1
    outer loop
      vertex -1.0043 3.09093 5.5
      vertex -0.608989 3.19243 5.5
      vertex -0.94159 4.93599 5.5
    endloop
  endfacet
  facet normal -0.125334 -0.992115 -0
    outer loop
      vertex -1.22266 -6.40942 0
      vertex -0.409708 -6.51212 0
      vertex -0.409708 -6.51212 1
    endloop
  endfacet
  facet normal -0.125334 -0.992115 0
    outer loop
      vertex -1.22266 -6.40942 0
      vertex -0.409708 -6.51212 1
      vertex -1.22266 -6.40942 1
    endloop
  endfacet
  facet normal 0 0 -1
    outer loop
      vertex -1.22266 -6.40942 0
      vertex -0.608989 -3.19243 0
      vertex -0.409708 -6.51212 0
    endloop
  endfacet
  facet normal -0 0 -1
    outer loop
      vertex -1.22266 -6.40942 0
      vertex -1.0043 -3.09093 0
      vertex -0.608989 -3.19243 0
    endloop
  endfacet
  facet normal 0 0 1
    outer loop
      vertex -1.22266 -6.40942 1
      vertex -0.409708 -6.51212 1
      vertex -0.94159 -4.93599 1
    endloop
  endfacet
  facet normal 0 0 -1
    outer loop
      vertex -1.22266 6.40942 0
      vertex -0.409708 6.51212 0
      vertex -0.608989 3.19243 0
    endloop
  endfacet
  facet normal 0 0 -1
    outer loop
      vertex -1.22266 6.40942 0
      vertex -0.608989 3.19243 0
      vertex -1.0043 3.09093 0
    endloop
  endfacet
  facet normal -0.125334 0.992115 0
    outer loop
      vertex -1.22266 6.40942 0
      vertex -1.22266 6.40942 1
      vertex -0.409708 6.51212 0
    endloop
  endfacet
  facet normal -0.125334 0.992115 0
    outer loop
      vertex -1.22266 6.40942 1
      vertex -0.409708 6.51212 1
      vertex -0.409708 6.51212 0
    endloop
  endfacet
  facet normal -0 0 1
    outer loop
      vertex -1.22266 6.40942 1
      vertex -0.94159 4.93599 1
      vertex -0.409708 6.51212 1
    endloop
  endfacet
  facet normal 0.36811 0.929782 0
    outer loop
      vertex -1.38378 -2.94069 0
      vertex -1.38378 -2.94069 5.5
      vertex -1.0043 -3.09093 0
    endloop
  endfacet
  facet normal 0.36811 0.929782 -0
    outer loop
      vertex -1.38378 -2.94069 5.5
      vertex -1.0043 -3.09093 5.5
      vertex -1.0043 -3.09093 0
    endloop
  endfacet
  facet normal 0.36811 -0.929782 0
    outer loop
      vertex -1.38378 2.94069 0
      vertex -1.0043 3.09093 0
      vertex -1.0043 3.09093 5.5
    endloop
  endfacet
  facet normal 0.36811 -0.929782 0
    outer loop
      vertex -1.38378 2.94069 0
      vertex -1.0043 3.09093 5.5
      vertex -1.38378 2.94069 5.5
    endloop
  endfacet
  facet normal -0.248683 -0.968585 -0
    outer loop
      vertex -1.55281 -4.77906 1
      vertex -0.94159 -4.93599 1
      vertex -0.94159 -4.93599 5.5
    endloop
  endfacet
  facet normal -0.248683 -0.968585 0
    outer loop
      vertex -1.55281 -4.77906 1
      vertex -0.94159 -4.93599 5.5
      vertex -1.55281 -4.77906 5.5
    endloop
  endfacet
  facet normal 0 0 1
    outer loop
      vertex -1.55281 -4.77906 1
      vertex -1.22266 -6.40942 1
      vertex -0.94159 -4.93599 1
    endloop
  endfacet
  facet normal 0 0 1
    outer loop
      vertex -1.55281 -4.77906 5.5
      vertex -0.94159 -4.93599 5.5
      vertex -1.0043 -3.09093 5.5
    endloop
  endfacet
  facet normal 0 0 1
    outer loop
      vertex -1.55281 -4.77906 5.5
      vertex -1.0043 -3.09093 5.5
      vertex -1.38378 -2.94069 5.5
    endloop
  endfacet
  facet normal 0 0 1
    outer loop
      vertex -1.55281 4.77906 1
      vertex -0.94159 4.93599 1
      vertex -1.22266 6.40942 1
    endloop
  endfacet
  facet normal -0.248683 0.968585 0
    outer loop
      vertex -1.55281 4.77906 1
      vertex -1.55281 4.77906 5.5
      vertex -0.94159 4.93599 1
    endloop
  endfacet
  facet normal -0.248683 0.968585 0
    outer loop
      vertex -1.55281 4.77906 5.5
      vertex -0.94159 4.93599 5.5
      vertex -0.94159 4.93599 1
    endloop
  endfacet
  facet normal -0 0 1
    outer loop
      vertex -1.55281 4.77906 5.5
      vertex -1.0043 3.09093 5.5
      vertex -0.94159 4.93599 5.5
    endloop
  endfacet
  facet normal 0 0 1
    outer loop
      vertex -1.55281 4.77906 5.5
      vertex -1.38378 2.94069 5.5
      vertex -1.0043 3.09093 5.5
    endloop
  endfacet
  facet normal 0.481744 0.876312 0
    outer loop
      vertex -1.74144 -2.74407 0
      vertex -1.74144 -2.74407 5.5
      vertex -1.38378 -2.94069 0
    endloop
  endfacet
  facet normal 0.481744 0.876312 -0
    outer loop
      vertex -1.74144 -2.74407 5.5
      vertex -1.38378 -2.94069 5.5
      vertex -1.38378 -2.94069 0
    endloop
  endfacet
  facet normal 0.481744 -0.876312 0
    outer loop
      vertex -1.74144 2.74407 0
      vertex -1.38378 2.94069 0
      vertex -1.38378 2.94069 5.5
    endloop
  endfacet
  facet normal 0.481744 -0.876312 0
    outer loop
      vertex -1.74144 2.74407 0
      vertex -1.38378 2.94069 5.5
      vertex -1.74144 2.74407 5.5
    endloop
  endfacet
  facet normal 0 0 -1
    outer loop
      vertex -2.01634 -6.20564 0
      vertex -1.0043 -3.09093 0
      vertex -1.22266 -6.40942 0
    endloop
  endfacet
  facet normal -0.248687 -0.968584 -0
    outer loop
      vertex -2.01634 -6.20564 0
      vertex -1.22266 -6.40942 0
      vertex -1.22266 -6.40942 1
    endloop
  endfacet
  facet normal -0.248687 -0.968584 0
    outer loop
      vertex -2.01634 -6.20564 0
      vertex -1.22266 -6.40942 1
      vertex -2.01634 -6.20564 1
    endloop
  endfacet
  facet normal -0 0 -1
    outer loop
      vertex -2.01634 -6.20564 0
      vertex -1.38378 -2.94069 0
      vertex -1.0043 -3.09093 0
    endloop
  endfacet
  facet normal 0 0 1
    outer loop
      vertex -2.01634 -6.20564 1
      vertex -1.22266 -6.40942 1
      vertex -1.55281 -4.77906 1
    endloop
  endfacet
  facet normal 0 0 -1
    outer loop
      vertex -2.01634 6.20564 0
      vertex -1.0043 3.09093 0
      vertex -1.38378 2.94069 0
    endloop
  endfacet
  facet normal 0 0 -1
    outer loop
      vertex -2.01634 6.20564 0
      vertex -1.22266 6.40942 0
      vertex -1.0043 3.09093 0
    endloop
  endfacet
  facet normal -0.248687 0.968584 0
    outer loop
      vertex -2.01634 6.20564 0
      vertex -2.01634 6.20564 1
      vertex -1.22266 6.40942 0
    endloop
  endfacet
  facet normal -0.248687 0.968584 0
    outer loop
      vertex -2.01634 6.20564 1
      vertex -1.22266 6.40942 1
      vertex -1.22266 6.40942 0
    endloop
  endfacet
  facet normal -0 0 1
    outer loop
      vertex -2.01634 6.20564 1
      vertex -1.55281 4.77906 1
      vertex -1.22266 6.40942 1
    endloop
  endfacet
  facet normal 0.58779 0.809014 0
    outer loop
      vertex -2.07163 -2.50417 0
      vertex -2.07163 -2.50417 5.5
      vertex -1.74144 -2.74407 0
    endloop
  endfacet
  facet normal 0.58779 0.809014 -0
    outer loop
      vertex -2.07163 -2.50417 5.5
      vertex -1.74144 -2.74407 5.5
      vertex -1.74144 -2.74407 0
    endloop
  endfacet
  facet normal 0.58779 -0.809014 0
    outer loop
      vertex -2.07163 2.50417 0
      vertex -1.74144 2.74407 0
      vertex -1.74144 2.74407 5.5
    endloop
  endfacet
  facet normal 0.58779 -0.809014 0
    outer loop
      vertex -2.07163 2.50417 0
      vertex -1.74144 2.74407 5.5
      vertex -2.07163 2.50417 5.5
    endloop
  endfacet
  facet normal -0.368121 -0.929778 -0
    outer loop
      vertex -2.13954 -4.54676 1
      vertex -1.55281 -4.77906 1
      vertex -1.55281 -4.77906 5.5
    endloop
  endfacet
  facet normal -0.368121 -0.929778 0
    outer loop
      vertex -2.13954 -4.54676 1
      vertex -1.55281 -4.77906 5.5
      vertex -2.13954 -4.54676 5.5
    endloop
  endfacet
  facet normal 0 0 1
    outer loop
      vertex -2.13954 -4.54676 1
      vertex -2.01634 -6.20564 1
      vertex -1.55281 -4.77906 1
    endloop
  endfacet
  facet normal 0 0 1
    outer loop
      vertex -2.13954 -4.54676 5.5
      vertex -1.38378 -2.94069 5.5
      vertex -1.74144 -2.74407 5.5
    endloop
  endfacet
  facet normal 0 0 1
    outer loop
      vertex -2.13954 -4.54676 5.5
      vertex -1.55281 -4.77906 5.5
      vertex -1.38378 -2.94069 5.5
    endloop
  endfacet
  facet normal 0 0 1
    outer loop
      vertex -2.13954 4.54676 1
      vertex -1.55281 4.77906 1
      vertex -2.01634 6.20564 1
    endloop
  endfacet
  facet normal -0.368121 0.929778 0
    outer loop
      vertex -2.13954 4.54676 1
      vertex -2.13954 4.54676 5.5
      vertex -1.55281 4.77906 1
    endloop
  endfacet
  facet normal -0 0 1
    outer loop
      vertex -2.13954 4.54676 5.5
      vertex -1.38378 2.94069 5.5
      vertex -1.55281 4.77906 5.5
    endloop
  endfacet
  facet normal -0.368121 0.929778 0
    outer loop
      vertex -2.13954 4.54676 5.5
      vertex -1.55281 4.77906 5.5
      vertex -1.55281 4.77906 1
    endloop
  endfacet
  facet normal 0 0 1
    outer loop
      vertex -2.13954 4.54676 5.5
      vertex -1.74144 2.74407 5.5
      vertex -1.38378 2.94069 5.5
    endloop
  endfacet
  facet normal 0.684547 0.728968 0
    outer loop
      vertex -2.36915 -2.22478 0
      vertex -2.36915 -2.22478 5.5
      vertex -2.07163 -2.50417 0
    endloop
  endfacet
  facet normal 0.684547 0.728968 -0
    outer loop
      vertex -2.36915 -2.22478 5.5
      vertex -2.07163 -2.50417 5.5
      vertex -2.07163 -2.50417 0
    endloop
  endfacet
  facet normal 0.684547 -0.728968 0
    outer loop
      vertex -2.36915 2.22478 0
      vertex -2.07163 2.50417 0
      vertex -2.07163 2.50417 5.5
    endloop
  endfacet
  facet normal 0.684547 -0.728968 0
    outer loop
      vertex -2.36915 2.22478 0
      vertex -2.07163 2.50417 5.5
      vertex -2.36915 2.22478 5.5
    endloop
  endfacet
  facet normal 0.770526 0.637409 0
    outer loop
      vertex -2.6293 -1.9103 0
      vertex -2.36915 -2.22478 5.5
      vertex -2.36915 -2.22478 0
    endloop
  endfacet
  facet normal 0.770526 0.637409 0
    outer loop
      vertex -2.6293 -1.9103 0
      vertex -2.6293 -1.9103 5.5
      vertex -2.36915 -2.22478 5.5
    endloop
  endfacet
  facet normal 0.770526 -0.637409 0
    outer loop
      vertex -2.6293 1.9103 0
      vertex -2.36915 2.22478 0
      vertex -2.6293 1.9103 5.5
    endloop
  endfacet
  facet normal 0.770526 -0.637409 0
    outer loop
      vertex -2.6293 1.9103 5.5
      vertex -2.36915 2.22478 0
      vertex -2.36915 2.22478 5.5
    endloop
  endfacet
  facet normal -0.481755 -0.876306 -0
    outer loop
      vertex -2.69253 -4.24275 1
      vertex -2.13954 -4.54676 1
      vertex -2.13954 -4.54676 5.5
    endloop
  endfacet
  facet normal -0.481755 -0.876306 0
    outer loop
      vertex -2.69253 -4.24275 1
      vertex -2.13954 -4.54676 5.5
      vertex -2.69253 -4.24275 5.5
    endloop
  endfacet
  facet normal 0 0 1
    outer loop
      vertex -2.69253 -4.24275 5.5
      vertex -1.74144 -2.74407 5.5
      vertex -2.07163 -2.50417 5.5
    endloop
  endfacet
  facet normal 0 0 1
    outer loop
      vertex -2.69253 -4.24275 5.5
      vertex -2.13954 -4.54676 5.5
      vertex -1.74144 -2.74407 5.5
    endloop
  endfacet
  facet normal -0.481755 0.876306 0
    outer loop
      vertex -2.69253 4.24275 1
      vertex -2.69253 4.24275 5.5
      vertex -2.13954 4.54676 1
    endloop
  endfacet
  facet normal -0 0 1
    outer loop
      vertex -2.69253 4.24275 5.5
      vertex -1.74144 2.74407 5.5
      vertex -2.13954 4.54676 5.5
    endloop
  endfacet
  facet normal 0 0 1
    outer loop
      vertex -2.69253 4.24275 5.5
      vertex -2.07163 2.50417 5.5
      vertex -1.74144 2.74407 5.5
    endloop
  endfacet
  facet normal -0.481755 0.876306 0
    outer loop
      vertex -2.69253 4.24275 5.5
      vertex -2.13954 4.54676 5.5
      vertex -2.13954 4.54676 1
    endloop
  endfacet
  facet normal 0 0 -1
    outer loop
      vertex -2.77821 -5.904 0
      vertex -1.38378 -2.94069 0
      vertex -2.01634 -6.20564 0
    endloop
  endfacet
  facet normal -0 0 -1
    outer loop
      vertex -2.77821 -5.904 0
      vertex -1.74144 -2.74407 0
      vertex -1.38378 -2.94069 0
    endloop
  endfacet
  facet normal -0.368119 -0.929779 -0
    outer loop
      vertex -2.77821 -5.904 0
      vertex -2.01634 -6.20564 0
      vertex -2.01634 -6.20564 1
    endloop
  endfacet
  facet normal -0.368119 -0.929779 0
    outer loop
      vertex -2.77821 -5.904 0
      vertex -2.01634 -6.20564 1
      vertex -2.77821 -5.904 1
    endloop
  endfacet
  facet normal 0 0 1
    outer loop
      vertex -2.77821 -5.904 1
      vertex -2.01634 -6.20564 1
      vertex -2.13954 -4.54676 1
    endloop
  endfacet
  facet normal 0 0 1
    outer loop
      vertex -2.77821 -5.904 1
      vertex -2.13954 -4.54676 1
      vertex -2.69253 -4.24275 1
    endloop
  endfacet
  facet normal 0 0 -1
    outer loop
      vertex -2.77821 5.904 0
      vertex -1.38378 2.94069 0
      vertex -1.74144 2.74407 0
    endloop
  endfacet
  facet normal 0 0 -1
    outer loop
      vertex -2.77821 5.904 0
      vertex -2.01634 6.20564 0
      vertex -1.38378 2.94069 0
    endloop
  endfacet
  facet normal -0.368119 0.929779 0
    outer loop
      vertex -2.77821 5.904 0
      vertex -2.77821 5.904 1
      vertex -2.01634 6.20564 0
    endloop
  endfacet
  facet normal -0.368119 0.929779 0
    outer loop
      vertex -2.77821 5.904 1
      vertex -2.01634 6.20564 1
      vertex -2.01634 6.20564 0
    endloop
  endfacet
  facet normal -0 0 1
    outer loop
      vertex -2.77821 5.904 1
      vertex -2.13954 4.54676 1
      vertex -2.01634 6.20564 1
    endloop
  endfacet
  facet normal 0 0 1
    outer loop
      vertex -2.77821 5.904 1
      vertex -2.69253 4.24275 1
      vertex -2.13954 4.54676 1
    endloop
  endfacet
  facet normal 0.844317 0.535845 0
    outer loop
      vertex -2.848 -1.5657 0
      vertex -2.6293 -1.9103 5.5
      vertex -2.6293 -1.9103 0
    endloop
  endfacet
  facet normal 0.844317 0.535845 0
    outer loop
      vertex -2.848 -1.5657 0
      vertex -2.848 -1.5657 5.5
      vertex -2.6293 -1.9103 5.5
    endloop
  endfacet
  facet normal 0.844317 -0.535845 0
    outer loop
      vertex -2.848 1.5657 0
      vertex -2.6293 1.9103 0
      vertex -2.848 1.5657 5.5
    endloop
  endfacet
  facet normal 0.844317 -0.535845 0
    outer loop
      vertex -2.848 1.5657 5.5
      vertex -2.6293 1.9103 0
      vertex -2.6293 1.9103 5.5
    endloop
  endfacet
  facet normal 0.904836 0.42576 0
    outer loop
      vertex -3.02177 -1.1964 0
      vertex -2.848 -1.5657 5.5
      vertex -2.848 -1.5657 0
    endloop
  endfacet
  facet normal 0.904836 0.42576 0
    outer loop
      vertex -3.02177 -1.1964 0
      vertex -3.02177 -1.1964 5.5
      vertex -2.848 -1.5657 5.5
    endloop
  endfacet
  facet normal 0.904836 -0.42576 0
    outer loop
      vertex -3.02177 1.1964 0
      vertex -2.848 1.5657 0
      vertex -3.02177 1.1964 5.5
    endloop
  endfacet
  facet normal 0.904836 -0.42576 0
    outer loop
      vertex -3.02177 1.1964 5.5
      vertex -2.848 1.5657 0
      vertex -2.848 1.5657 5.5
    endloop
  endfacet
  facet normal 0.951057 0.309017 0
    outer loop
      vertex -3.14789 -0.808242 0
      vertex -3.02177 -1.1964 5.5
      vertex -3.02177 -1.1964 0
    endloop
  endfacet
  facet normal 0.951057 0.309017 0
    outer loop
      vertex -3.14789 -0.808242 0
      vertex -3.14789 -0.808242 5.5
      vertex -3.02177 -1.1964 5.5
    endloop
  endfacet
  facet normal 0.951057 -0.309017 0
    outer loop
      vertex -3.14789 0.808242 0
      vertex -3.02177 1.1964 0
      vertex -3.14789 0.808242 5.5
    endloop
  endfacet
  facet normal 0.951057 -0.309017 0
    outer loop
      vertex -3.14789 0.808242 5.5
      vertex -3.02177 1.1964 0
      vertex -3.02177 1.1964 5.5
    endloop
  endfacet
  facet normal -0.587783 -0.809018 -0
    outer loop
      vertex -3.20306 -3.87183 1
      vertex -2.69253 -4.24275 1
      vertex -2.69253 -4.24275 5.5
    endloop
  endfacet
  facet normal -0.587783 -0.809018 0
    outer loop
      vertex -3.20306 -3.87183 1
      vertex -2.69253 -4.24275 5.5
      vertex -3.20306 -3.87183 5.5
    endloop
  endfacet
  facet normal 0 0 1
    outer loop
      vertex -3.20306 -3.87183 5.5
      vertex -2.07163 -2.50417 5.5
      vertex -2.36915 -2.22478 5.5
    endloop
  endfacet
  facet normal 0 0 1
    outer loop
      vertex -3.20306 -3.87183 5.5
      vertex -2.69253 -4.24275 5.5
      vertex -2.07163 -2.50417 5.5
    endloop
  endfacet
  facet normal -0.587783 0.809018 0
    outer loop
      vertex -3.20306 3.87183 1
      vertex -3.20306 3.87183 5.5
      vertex -2.69253 4.24275 1
    endloop
  endfacet
  facet normal -0 0 1
    outer loop
      vertex -3.20306 3.87183 5.5
      vertex -2.07163 2.50417 5.5
      vertex -2.69253 4.24275 5.5
    endloop
  endfacet
  facet normal 0 0 1
    outer loop
      vertex -3.20306 3.87183 5.5
      vertex -2.36915 2.22478 5.5
      vertex -2.07163 2.50417 5.5
    endloop
  endfacet
  facet normal -0.587783 0.809018 0
    outer loop
      vertex -3.20306 3.87183 5.5
      vertex -2.69253 4.24275 5.5
      vertex -2.69253 4.24275 1
    endloop
  endfacet
  facet normal 0.982286 0.187387 0
    outer loop
      vertex -3.22437 -0.407332 0
      vertex -3.14789 -0.808242 5.5
      vertex -3.14789 -0.808242 0
    endloop
  endfacet
  facet normal 0.982286 0.187387 0
    outer loop
      vertex -3.22437 -0.407332 0
      vertex -3.22437 -0.407332 5.5
      vertex -3.14789 -0.808242 5.5
    endloop
  endfacet
  facet normal 0.982286 -0.187387 0
    outer loop
      vertex -3.22437 0.407332 0
      vertex -3.14789 0.808242 0
      vertex -3.22437 0.407332 5.5
    endloop
  endfacet
  facet normal 0.982286 -0.187387 0
    outer loop
      vertex -3.22437 0.407332 5.5
      vertex -3.14789 0.808242 0
      vertex -3.14789 0.808242 5.5
    endloop
  endfacet
  facet normal 0.998026 0.0627975 0
    outer loop
      vertex -3.25 0 0
      vertex -3.22437 -0.407332 5.5
      vertex -3.22437 -0.407332 0
    endloop
  endfacet
  facet normal 0.998026 -0.0627975 0
    outer loop
      vertex -3.25 0 0
      vertex -3.22437 0.407332 0
      vertex -3.25 0 5.5
    endloop
  endfacet
  facet normal 0.998026 0.0627975 0
    outer loop
      vertex -3.25 0 0
      vertex -3.25 0 5.5
      vertex -3.22437 -0.407332 5.5
    endloop
  endfacet
  facet normal 0.998026 -0.0627975 0
    outer loop
      vertex -3.25 0 5.5
      vertex -3.22437 0.407332 0
      vertex -3.22437 0.407332 5.5
    endloop
  endfacet
  facet normal 0 0 -1
    outer loop
      vertex -3.49627 -5.50924 0
      vertex -1.74144 -2.74407 0
      vertex -2.77821 -5.904 0
    endloop
  endfacet
  facet normal -0 0 -1
    outer loop
      vertex -3.49627 -5.50924 0
      vertex -2.07163 -2.50417 0
      vertex -1.74144 -2.74407 0
    endloop
  endfacet
  facet normal -0.481757 -0.876305 -0
    outer loop
      vertex -3.49627 -5.50924 0
      vertex -2.77821 -5.904 0
      vertex -2.77821 -5.904 1
    endloop
  endfacet
  facet normal -0.481757 -0.876305 0
    outer loop
      vertex -3.49627 -5.50924 0
      vertex -2.77821 -5.904 1
      vertex -3.49627 -5.50924 1
    endloop
  endfacet
  facet normal 0 0 1
    outer loop
      vertex -3.49627 -5.50924 1
      vertex -2.69253 -4.24275 1
      vertex -3.20306 -3.87183 1
    endloop
  endfacet
  facet normal 0 0 1
    outer loop
      vertex -3.49627 -5.50924 1
      vertex -2.77821 -5.904 1
      vertex -2.69253 -4.24275 1
    endloop
  endfacet
  facet normal 0 0 -1
    outer loop
      vertex -3.49627 5.50924 0
      vertex -1.74144 2.74407 0
      vertex -2.07163 2.50417 0
    endloop
  endfacet
  facet normal 0 0 -1
    outer loop
      vertex -3.49627 5.50924 0
      vertex -2.77821 5.904 0
      vertex -1.74144 2.74407 0
    endloop
  endfacet
  facet normal -0.481757 0.876305 0
    outer loop
      vertex -3.49627 5.50924 0
      vertex -3.49627 5.50924 1
      vertex -2.77821 5.904 0
    endloop
  endfacet
  facet normal -0 0 1
    outer loop
      vertex -3.49627 5.50924 1
      vertex -2.69253 4.24275 1
      vertex -2.77821 5.904 1
    endloop
  endfacet
  facet normal -0.481757 0.876305 0
    outer loop
      vertex -3.49627 5.50924 1
      vertex -2.77821 5.904 1
      vertex -2.77821 5.904 0
    endloop
  endfacet
  facet normal 0 0 1
    outer loop
      vertex -3.49627 5.50924 1
      vertex -3.20306 3.87183 1
      vertex -2.69253 4.24275 1
    endloop
  endfacet
  facet normal -0.684549 -0.728967 -0
    outer loop
      vertex -3.66307 -3.43985 1
      vertex -3.20306 -3.87183 1
      vertex -3.20306 -3.87183 5.5
    endloop
  endfacet
  facet normal -0.684549 -0.728967 0
    outer loop
      vertex -3.66307 -3.43985 1
      vertex -3.20306 -3.87183 5.5
      vertex -3.66307 -3.43985 5.5
    endloop
  endfacet
  facet normal 0 0 1
    outer loop
      vertex -3.66307 -3.43985 5.5
      vertex -2.36915 -2.22478 5.5
      vertex -2.6293 -1.9103 5.5
    endloop
  endfacet
  facet normal 0 0 1
    outer loop
      vertex -3.66307 -3.43985 5.5
      vertex -3.20306 -3.87183 5.5
      vertex -2.36915 -2.22478 5.5
    endloop
  endfacet
  facet normal -0.684549 0.728967 0
    outer loop
      vertex -3.66307 3.43985 1
      vertex -3.66307 3.43985 5.5
      vertex -3.20306 3.87183 1
    endloop
  endfacet
  facet normal -0 0 1
    outer loop
      vertex -3.66307 3.43985 5.5
      vertex -2.36915 2.22478 5.5
      vertex -3.20306 3.87183 5.5
    endloop
  endfacet
  facet normal 0 0 1
    outer loop
      vertex -3.66307 3.43985 5.5
      vertex -2.6293 1.9103 5.5
      vertex -2.36915 2.22478 5.5
    endloop
  endfacet
  facet normal -0.684549 0.728967 0
    outer loop
      vertex -3.66307 3.43985 5.5
      vertex -3.20306 3.87183 5.5
      vertex -3.20306 3.87183 1
    endloop
  endfacet
  facet normal -0.770517 -0.63742 0
    outer loop
      vertex -4.06531 -2.95362 1
      vertex -3.66307 -3.43985 1
      vertex -4.06531 -2.95362 5.5
    endloop
  endfacet
  facet normal 0 0 1
    outer loop
      vertex -4.06531 -2.95362 5.5
      vertex -2.6293 -1.9103 5.5
      vertex -2.848 -1.5657 5.5
    endloop
  endfacet
  facet normal -0.770517 -0.63742 0
    outer loop
      vertex -4.06531 -2.95362 5.5
      vertex -3.66307 -3.43985 1
      vertex -3.66307 -3.43985 5.5
    endloop
  endfacet
  facet normal 0 0 1
    outer loop
      vertex -4.06531 -2.95362 5.5
      vertex -3.66307 -3.43985 5.5
      vertex -2.6293 -1.9103 5.5
    endloop
  endfacet
  facet normal -0.770517 0.63742 0
    outer loop
      vertex -4.06531 2.95362 1
      vertex -3.66307 3.43985 5.5
      vertex -3.66307 3.43985 1
    endloop
  endfacet
  facet normal -0.770517 0.63742 0
    outer loop
      vertex -4.06531 2.95362 1
      vertex -4.06531 2.95362 5.5
      vertex -3.66307 3.43985 5.5
    endloop
  endfacet
  facet normal -0 0 1
    outer loop
      vertex -4.06531 2.95362 5.5
      vertex -2.6293 1.9103 5.5
      vertex -3.66307 3.43985 5.5
    endloop
  endfacet
  facet normal 0 0 1
    outer loop
      vertex -4.06531 2.95362 5.5
      vertex -2.848 1.5657 5.5
      vertex -2.6293 1.9103 5.5
    endloop
  endfacet
  facet normal 0 0 -1
    outer loop
      vertex -4.15919 -5.0276 0
      vertex -2.07163 -2.50417 0
      vertex -3.49627 -5.50924 0
    endloop
  endfacet
  facet normal -0 0 -1
    outer loop
      vertex -4.15919 -5.0276 0
      vertex -2.36915 -2.22478 0
      vertex -2.07163 -2.50417 0
    endloop
  endfacet
  facet normal -0.587786 -0.809017 -0
    outer loop
      vertex -4.15919 -5.0276 0
      vertex -3.49627 -5.50924 0
      vertex -3.49627 -5.50924 1
    endloop
  endfacet
  facet normal -0.587786 -0.809017 0
    outer loop
      vertex -4.15919 -5.0276 0
      vertex -3.49627 -5.50924 1
      vertex -4.15919 -5.0276 1
    endloop
  endfacet
  facet normal 0 0 1
    outer loop
      vertex -4.15919 -5.0276 1
      vertex -3.20306 -3.87183 1
      vertex -3.66307 -3.43985 1
    endloop
  endfacet
  facet normal 0 0 1
    outer loop
      vertex -4.15919 -5.0276 1
      vertex -3.49627 -5.50924 1
      vertex -3.20306 -3.87183 1
    endloop
  endfacet
  facet normal 0 0 -1
    outer loop
      vertex -4.15919 5.0276 0
      vertex -2.07163 2.50417 0
      vertex -2.36915 2.22478 0
    endloop
  endfacet
  facet normal 0 0 -1
    outer loop
      vertex -4.15919 5.0276 0
      vertex -3.49627 5.50924 0
      vertex -2.07163 2.50417 0
    endloop
  endfacet
  facet normal -0.587786 0.809017 0
    outer loop
      vertex -4.15919 5.0276 0
      vertex -4.15919 5.0276 1
      vertex -3.49627 5.50924 0
    endloop
  endfacet
  facet normal -0 0 1
    outer loop
      vertex -4.15919 5.0276 1
      vertex -3.20306 3.87183 1
      vertex -3.49627 5.50924 1
    endloop
  endfacet
  facet normal -0.587786 0.809017 0
    outer loop
      vertex -4.15919 5.0276 1
      vertex -3.49627 5.50924 1
      vertex -3.49627 5.50924 0
    endloop
  endfacet
  facet normal 0 0 1
    outer loop
      vertex -4.15919 5.0276 1
      vertex -3.66307 3.43985 1
      vertex -3.20306 3.87183 1
    endloop
  endfacet
  facet normal -0.844329 -0.535825 0
    outer loop
      vertex -4.40344 -2.42081 1
      vertex -4.06531 -2.95362 1
      vertex -4.40344 -2.42081 5.5
    endloop
  endfacet
  facet normal 0 0 1
    outer loop
      vertex -4.40344 -2.42081 5.5
      vertex -2.848 -1.5657 5.5
      vertex -3.02177 -1.1964 5.5
    endloop
  endfacet
  facet normal -0.844329 -0.535825 0
    outer loop
      vertex -4.40344 -2.42081 5.5
      vertex -4.06531 -2.95362 1
      vertex -4.06531 -2.95362 5.5
    endloop
  endfacet
  facet normal 0 0 1
    outer loop
      vertex -4.40344 -2.42081 5.5
      vertex -4.06531 -2.95362 5.5
      vertex -2.848 -1.5657 5.5
    endloop
  endfacet
  facet normal -0.844329 0.535825 0
    outer loop
      vertex -4.40344 2.42081 1
      vertex -4.06531 2.95362 5.5
      vertex -4.06531 2.95362 1
    endloop
  endfacet
  facet normal -0.844329 0.535825 0
    outer loop
      vertex -4.40344 2.42081 1
      vertex -4.40344 2.42081 5.5
      vertex -4.06531 2.95362 5.5
    endloop
  endfacet
  facet normal -0 0 1
    outer loop
      vertex -4.40344 2.42081 5.5
      vertex -2.848 1.5657 5.5
      vertex -4.06531 2.95362 5.5
    endloop
  endfacet
  facet normal 0 0 1
    outer loop
      vertex -4.40344 2.42081 5.5
      vertex -3.02177 1.1964 5.5
      vertex -2.848 1.5657 5.5
    endloop
  endfacet
  facet normal -0.904823 -0.425789 0
    outer loop
      vertex -4.67213 -1.84983 1
      vertex -4.40344 -2.42081 1
      vertex -4.67213 -1.84983 5.5
    endloop
  endfacet
  facet normal 0 0 1
    outer loop
      vertex -4.67213 -1.84983 5.5
      vertex -3.02177 -1.1964 5.5
      vertex -3.14789 -0.808242 5.5
    endloop
  endfacet
  facet normal -0.904823 -0.425789 0
    outer loop
      vertex -4.67213 -1.84983 5.5
      vertex -4.40344 -2.42081 1
      vertex -4.40344 -2.42081 5.5
    endloop
  endfacet
  facet normal 0 0 1
    outer loop
      vertex -4.67213 -1.84983 5.5
      vertex -4.40344 -2.42081 5.5
      vertex -3.02177 -1.1964 5.5
    endloop
  endfacet
  facet normal -0.904823 0.425789 0
    outer loop
      vertex -4.67213 1.84983 1
      vertex -4.40344 2.42081 5.5
      vertex -4.40344 2.42081 1
    endloop
  endfacet
  facet normal -0.904823 0.425789 0
    outer loop
      vertex -4.67213 1.84983 1
      vertex -4.67213 1.84983 5.5
      vertex -4.40344 2.42081 5.5
    endloop
  endfacet
  facet normal -0 0 1
    outer loop
      vertex -4.67213 1.84983 5.5
      vertex -3.02177 1.1964 5.5
      vertex -4.40344 2.42081 5.5
    endloop
  endfacet
  facet normal 0 0 1
    outer loop
      vertex -4.67213 1.84983 5.5
      vertex -3.14789 0.808242 5.5
      vertex -3.02177 1.1964 5.5
    endloop
  endfacet
  facet normal 0 0 -1
    outer loop
      vertex -4.75652 -4.46667 0
      vertex -2.36915 -2.22478 0
      vertex -4.15919 -5.0276 0
    endloop
  endfacet
  facet normal -0 0 -1
    outer loop
      vertex -4.75652 -4.46667 0
      vertex -2.6293 -1.9103 0
      vertex -2.36915 -2.22478 0
    endloop
  endfacet
  facet normal -0.684547 -0.728969 -0
    outer loop
      vertex -4.75652 -4.46667 0
      vertex -4.15919 -5.0276 0
      vertex -4.15919 -5.0276 1
    endloop
  endfacet
  facet normal -0.684547 -0.728969 0
    outer loop
      vertex -4.75652 -4.46667 0
      vertex -4.15919 -5.0276 1
      vertex -4.75652 -4.46667 1
    endloop
  endfacet
  facet normal 0 0 1
    outer loop
      vertex -4.75652 -4.46667 1
      vertex -3.66307 -3.43985 1
      vertex -4.06531 -2.95362 1
    endloop
  endfacet
  facet normal 0 0 1
    outer loop
      vertex -4.75652 -4.46667 1
      vertex -4.15919 -5.0276 1
      vertex -3.66307 -3.43985 1
    endloop
  endfacet
  facet normal 0 0 -1
    outer loop
      vertex -4.75652 4.46667 0
      vertex -2.36915 2.22478 0
      vertex -2.6293 1.9103 0
    endloop
  endfacet
  facet normal 0 0 -1
    outer loop
      vertex -4.75652 4.46667 0
      vertex -4.15919 5.0276 0
      vertex -2.36915 2.22478 0
    endloop
  endfacet
  facet normal -0.684547 0.728969 0
    outer loop
      vertex -4.75652 4.46667 0
      vertex -4.75652 4.46667 1
      vertex -4.15919 5.0276 0
    endloop
  endfacet
  facet normal -0 0 1
    outer loop
      vertex -4.75652 4.46667 1
      vertex -3.66307 3.43985 1
      vertex -4.15919 5.0276 1
    endloop
  endfacet
  facet normal 0 0 1
    outer loop
      vertex -4.75652 4.46667 1
      vertex -4.06531 2.95362 1
      vertex -3.66307 3.43985 1
    endloop
  endfacet
  facet normal -0.684547 0.728969 0
    outer loop
      vertex -4.75652 4.46667 1
      vertex -4.15919 5.0276 1
      vertex -4.15919 5.0276 0
    endloop
  endfacet
  facet normal -0.951058 -0.309012 0
    outer loop
      vertex -4.86713 -1.24967 1
      vertex -4.67213 -1.84983 1
      vertex -4.86713 -1.24967 5.5
    endloop
  endfacet
  facet normal 0 0 1
    outer loop
      vertex -4.86713 -1.24967 5.5
      vertex -3.14789 -0.808242 5.5
      vertex -3.22437 -0.407332 5.5
    endloop
  endfacet
  facet normal -0.951058 -0.309012 0
    outer loop
      vertex -4.86713 -1.24967 5.5
      vertex -4.67213 -1.84983 1
      vertex -4.67213 -1.84983 5.5
    endloop
  endfacet
  facet normal 0 0 1
    outer loop
      vertex -4.86713 -1.24967 5.5
      vertex -4.67213 -1.84983 5.5
      vertex -3.14789 -0.808242 5.5
    endloop
  endfacet
  facet normal -0.951058 0.309012 0
    outer loop
      vertex -4.86713 1.24967 1
      vertex -4.67213 1.84983 5.5
      vertex -4.67213 1.84983 1
    endloop
  endfacet
  facet normal -0.951058 0.309012 0
    outer loop
      vertex -4.86713 1.24967 1
      vertex -4.86713 1.24967 5.5
      vertex -4.67213 1.84983 5.5
    endloop
  endfacet
  facet normal -0 0 1
    outer loop
      vertex -4.86713 1.24967 5.5
      vertex -3.14789 0.808242 5.5
      vertex -4.67213 1.84983 5.5
    endloop
  endfacet
  facet normal 0 0 1
    outer loop
      vertex -4.86713 1.24967 5.5
      vertex -3.22437 0.407332 5.5
      vertex -3.14789 0.808242 5.5
    endloop
  endfacet
  facet normal -0.982286 -0.187386 0
    outer loop
      vertex -4.98538 -0.629799 1
      vertex -4.86713 -1.24967 1
      vertex -4.98538 -0.629799 5.5
    endloop
  endfacet
  facet normal 0 0 1
    outer loop
      vertex -4.98538 -0.629799 5.5
      vertex -3.22437 -0.407332 5.5
      vertex -3.25 0 5.5
    endloop
  endfacet
  facet normal -0.982286 -0.187386 0
    outer loop
      vertex -4.98538 -0.629799 5.5
      vertex -4.86713 -1.24967 1
      vertex -4.86713 -1.24967 5.5
    endloop
  endfacet
  facet normal 0 0 1
    outer loop
      vertex -4.98538 -0.629799 5.5
      vertex -4.86713 -1.24967 5.5
      vertex -3.22437 -0.407332 5.5
    endloop
  endfacet
  facet normal -0.982286 0.187386 0
    outer loop
      vertex -4.98538 0.629799 1
      vertex -4.86713 1.24967 5.5
      vertex -4.86713 1.24967 1
    endloop
  endfacet
  facet normal -0.982286 0.187386 0
    outer loop
      vertex -4.98538 0.629799 1
      vertex -4.98538 0.629799 5.5
      vertex -4.86713 1.24967 5.5
    endloop
  endfacet
  facet normal -0 0 1
    outer loop
      vertex -4.98538 0.629799 5.5
      vertex -3.22437 0.407332 5.5
      vertex -4.86713 1.24967 5.5
    endloop
  endfacet
  facet normal 0 0 1
    outer loop
      vertex -4.98538 0.629799 5.5
      vertex -3.25 0 5.5
      vertex -3.22437 0.407332 5.5
    endloop
  endfacet
  facet normal -0.998027 -0.0627848 0
    outer loop
      vertex -5.025 0 1
      vertex -4.98538 -0.629799 1
      vertex -5.025 0 5.5
    endloop
  endfacet
  facet normal -0.998027 0.0627848 0
    outer loop
      vertex -5.025 0 1
      vertex -4.98538 0.629799 5.5
      vertex -4.98538 0.629799 1
    endloop
  endfacet
  facet normal -0.998027 0.0627848 0
    outer loop
      vertex -5.025 0 1
      vertex -5.025 0 5.5
      vertex -4.98538 0.629799 5.5
    endloop
  endfacet
  facet normal 0 0 1
    outer loop
      vertex -5.025 0 5.5
      vertex -3.25 0 5.5
      vertex -4.98538 0.629799 5.5
    endloop
  endfacet
  facet normal -0.998027 -0.0627848 0
    outer loop
      vertex -5.025 0 5.5
      vertex -4.98538 -0.629799 1
      vertex -4.98538 -0.629799 5.5
    endloop
  endfacet
  facet normal 0 0 1
    outer loop
      vertex -5.025 0 5.5
      vertex -4.98538 -0.629799 5.5
      vertex -3.25 0 5.5
    endloop
  endfacet
  facet normal 0 0 -1
    outer loop
      vertex -5.27884 -3.8353 0
      vertex -2.6293 -1.9103 0
      vertex -4.75652 -4.46667 0
    endloop
  endfacet
  facet normal -0 0 -1
    outer loop
      vertex -5.27884 -3.8353 0
      vertex -2.848 -1.5657 0
      vertex -2.6293 -1.9103 0
    endloop
  endfacet
  facet normal -0.77051 -0.637428 0
    outer loop
      vertex -5.27884 -3.8353 0
      vertex -4.75652 -4.46667 0
      vertex -5.27884 -3.8353 1
    endloop
  endfacet
  facet normal 0 0 1
    outer loop
      vertex -5.27884 -3.8353 1
      vertex -4.06531 -2.95362 1
      vertex -4.40344 -2.42081 1
    endloop
  endfacet
  facet normal -0.77051 -0.637428 0
    outer loop
      vertex -5.27884 -3.8353 1
      vertex -4.75652 -4.46667 0
      vertex -4.75652 -4.46667 1
    endloop
  endfacet
  facet normal 0 0 1
    outer loop
      vertex -5.27884 -3.8353 1
      vertex -4.75652 -4.46667 1
      vertex -4.06531 -2.95362 1
    endloop
  endfacet
  facet normal 0 0 -1
    outer loop
      vertex -5.27884 3.8353 0
      vertex -2.6293 1.9103 0
      vertex -2.848 1.5657 0
    endloop
  endfacet
  facet normal 0 0 -1
    outer loop
      vertex -5.27884 3.8353 0
      vertex -4.75652 4.46667 0
      vertex -2.6293 1.9103 0
    endloop
  endfacet
  facet normal -0.77051 0.637428 0
    outer loop
      vertex -5.27884 3.8353 0
      vertex -4.75652 4.46667 1
      vertex -4.75652 4.46667 0
    endloop
  endfacet
  facet normal -0.77051 0.637428 0
    outer loop
      vertex -5.27884 3.8353 0
      vertex -5.27884 3.8353 1
      vertex -4.75652 4.46667 1
    endloop
  endfacet
  facet normal -0 0 1
    outer loop
      vertex -5.27884 3.8353 1
      vertex -4.06531 2.95362 1
      vertex -4.75652 4.46667 1
    endloop
  endfacet
  facet normal 0 0 1
    outer loop
      vertex -5.27884 3.8353 1
      vertex -4.40344 2.42081 1
      vertex -4.06531 2.95362 1
    endloop
  endfacet
  facet normal 0 0 -1
    outer loop
      vertex -5.7179 -3.14344 0
      vertex -2.848 -1.5657 0
      vertex -5.27884 -3.8353 0
    endloop
  endfacet
  facet normal -0 0 -1
    outer loop
      vertex -5.7179 -3.14344 0
      vertex -3.02177 -1.1964 0
      vertex -2.848 -1.5657 0
    endloop
  endfacet
  facet normal -0.844332 -0.53582 0
    outer loop
      vertex -5.7179 -3.14344 0
      vertex -5.27884 -3.8353 0
      vertex -5.7179 -3.14344 1
    endloop
  endfacet
  facet normal 0 0 1
    outer loop
      vertex -5.7179 -3.14344 1
      vertex -4.40344 -2.42081 1
      vertex -4.67213 -1.84983 1
    endloop
  endfacet
  facet normal -0.844332 -0.53582 0
    outer loop
      vertex -5.7179 -3.14344 1
      vertex -5.27884 -3.8353 0
      vertex -5.27884 -3.8353 1
    endloop
  endfacet
  facet normal 0 0 1
    outer loop
      vertex -5.7179 -3.14344 1
      vertex -5.27884 -3.8353 1
      vertex -4.40344 -2.42081 1
    endloop
  endfacet
  facet normal 0 0 -1
    outer loop
      vertex -5.7179 3.14344 0
      vertex -2.848 1.5657 0
      vertex -3.02177 1.1964 0
    endloop
  endfacet
  facet normal 0 0 -1
    outer loop
      vertex -5.7179 3.14344 0
      vertex -5.27884 3.8353 0
      vertex -2.848 1.5657 0
    endloop
  endfacet
  facet normal -0.844332 0.53582 0
    outer loop
      vertex -5.7179 3.14344 0
      vertex -5.27884 3.8353 1
      vertex -5.27884 3.8353 0
    endloop
  endfacet
  facet normal -0.844332 0.53582 0
    outer loop
      vertex -5.7179 3.14344 0
      vertex -5.7179 3.14344 1
      vertex -5.27884 3.8353 1
    endloop
  endfacet
  facet normal -0 0 1
    outer loop
      vertex -5.7179 3.14344 1
      vertex -4.40344 2.42081 1
      vertex -5.27884 3.8353 1
    endloop
  endfacet
  facet normal 0 0 1
    outer loop
      vertex -5.7179 3.14344 1
      vertex -4.67213 1.84983 1
      vertex -4.40344 2.42081 1
    endloop
  endfacet
  facet normal 0 0 -1
    outer loop
      vertex -6.06679 -2.40201 0
      vertex -3.02177 -1.1964 0
      vertex -5.7179 -3.14344 0
    endloop
  endfacet
  facet normal -0 0 -1
    outer loop
      vertex -6.06679 -2.40201 0
      vertex -3.14789 -0.808242 0
      vertex -3.02177 -1.1964 0
    endloop
  endfacet
  facet normal -0.904827 -0.425779 0
    outer loop
      vertex -6.06679 -2.40201 0
      vertex -5.7179 -3.14344 0
      vertex -6.06679 -2.40201 1
    endloop
  endfacet
  facet normal 0 0 1
    outer loop
      vertex -6.06679 -2.40201 1
      vertex -4.67213 -1.84983 1
      vertex -4.86713 -1.24967 1
    endloop
  endfacet
  facet normal -0.904827 -0.425779 0
    outer loop
      vertex -6.06679 -2.40201 1
      vertex -5.7179 -3.14344 0
      vertex -5.7179 -3.14344 1
    endloop
  endfacet
  facet normal 0 0 1
    outer loop
      vertex -6.06679 -2.40201 1
      vertex -5.7179 -3.14344 1
      vertex -4.67213 -1.84983 1
    endloop
  endfacet
  facet normal 0 0 -1
    outer loop
      vertex -6.06679 2.40201 0
      vertex -3.02177 1.1964 0
      vertex -3.14789 0.808242 0
    endloop
  endfacet
  facet normal 0 0 -1
    outer loop
      vertex -6.06679 2.40201 0
      vertex -5.7179 3.14344 0
      vertex -3.02177 1.1964 0
    endloop
  endfacet
  facet normal -0.904827 0.425779 0
    outer loop
      vertex -6.06679 2.40201 0
      vertex -5.7179 3.14344 1
      vertex -5.7179 3.14344 0
    endloop
  endfacet
  facet normal -0.904827 0.425779 0
    outer loop
      vertex -6.06679 2.40201 0
      vertex -6.06679 2.40201 1
      vertex -5.7179 3.14344 1
    endloop
  endfacet
  facet normal -0 0 1
    outer loop
      vertex -6.06679 2.40201 1
      vertex -4.67213 1.84983 1
      vertex -5.7179 3.14344 1
    endloop
  endfacet
  facet normal 0 0 1
    outer loop
      vertex -6.06679 2.40201 1
      vertex -4.86713 1.24967 1
      vertex -4.67213 1.84983 1
    endloop
  endfacet
  facet normal 0 0 -1
    outer loop
      vertex -6.32 -1.6227 0
      vertex -3.14789 -0.808242 0
      vertex -6.06679 -2.40201 0
    endloop
  endfacet
  facet normal -0 0 -1
    outer loop
      vertex -6.32 -1.6227 0
      vertex -3.22437 -0.407332 0
      vertex -3.14789 -0.808242 0
    endloop
  endfacet
  facet normal -0.951058 -0.309013 0
    outer loop
      vertex -6.32 -1.6227 0
      vertex -6.06679 -2.40201 0
      vertex -6.32 -1.6227 1
    endloop
  endfacet
  facet normal 0 0 1
    outer loop
      vertex -6.32 -1.6227 1
      vertex -4.86713 -1.24967 1
      vertex -4.98538 -0.629799 1
    endloop
  endfacet
  facet normal -0.951058 -0.309013 0
    outer loop
      vertex -6.32 -1.6227 1
      vertex -6.06679 -2.40201 0
      vertex -6.06679 -2.40201 1
    endloop
  endfacet
  facet normal 0 0 1
    outer loop
      vertex -6.32 -1.6227 1
      vertex -6.06679 -2.40201 1
      vertex -4.86713 -1.24967 1
    endloop
  endfacet
  facet normal 0 0 -1
    outer loop
      vertex -6.32 1.6227 0
      vertex -3.14789 0.808242 0
      vertex -3.22437 0.407332 0
    endloop
  endfacet
  facet normal 0 0 -1
    outer loop
      vertex -6.32 1.6227 0
      vertex -6.06679 2.40201 0
      vertex -3.14789 0.808242 0
    endloop
  endfacet
  facet normal -0.951058 0.309013 0
    outer loop
      vertex -6.32 1.6227 0
      vertex -6.06679 2.40201 1
      vertex -6.06679 2.40201 0
    endloop
  endfacet
  facet normal -0.951058 0.309013 0
    outer loop
      vertex -6.32 1.6227 0
      vertex -6.32 1.6227 1
      vertex -6.06679 2.40201 1
    endloop
  endfacet
  facet normal -0 0 1
    outer loop
      vertex -6.32 1.6227 1
      vertex -4.86713 1.24967 1
      vertex -6.06679 2.40201 1
    endloop
  endfacet
  facet normal 0 0 1
    outer loop
      vertex -6.32 1.6227 1
      vertex -4.98538 0.629799 1
      vertex -4.86713 1.24967 1
    endloop
  endfacet
  facet normal 0 0 -1
    outer loop
      vertex -6.47355 -0.817799 0
      vertex -3.22437 -0.407332 0
      vertex -6.32 -1.6227 0
    endloop
  endfacet
  facet normal -0 0 -1
    outer loop
      vertex -6.47355 -0.817799 0
      vertex -3.25 0 0
      vertex -3.22437 -0.407332 0
    endloop
  endfacet
  facet normal -0.982286 -0.187389 0
    outer loop
      vertex -6.47355 -0.817799 0
      vertex -6.32 -1.6227 0
      vertex -6.47355 -0.817799 1
    endloop
  endfacet
  facet normal 0 0 1
    outer loop
      vertex -6.47355 -0.817799 1
      vertex -4.98538 -0.629799 1
      vertex -5.025 0 1
    endloop
  endfacet
  facet normal -0.982286 -0.187389 0
    outer loop
      vertex -6.47355 -0.817799 1
      vertex -6.32 -1.6227 0
      vertex -6.32 -1.6227 1
    endloop
  endfacet
  facet normal 0 0 1
    outer loop
      vertex -6.47355 -0.817799 1
      vertex -6.32 -1.6227 1
      vertex -4.98538 -0.629799 1
    endloop
  endfacet
  facet normal 0 0 -1
    outer loop
      vertex -6.47355 0.817799 0
      vertex -3.22437 0.407332 0
      vertex -3.25 0 0
    endloop
  endfacet
  facet normal 0 0 -1
    outer loop
      vertex -6.47355 0.817799 0
      vertex -6.32 1.6227 0
      vertex -3.22437 0.407332 0
    endloop
  endfacet
  facet normal -0.982286 0.187389 0
    outer loop
      vertex -6.47355 0.817799 0
      vertex -6.32 1.6227 1
      vertex -6.32 1.6227 0
    endloop
  endfacet
  facet normal -0.982286 0.187389 0
    outer loop
      vertex -6.47355 0.817799 0
      vertex -6.47355 0.817799 1
      vertex -6.32 1.6227 1
    endloop
  endfacet
  facet normal -0 0 1
    outer loop
      vertex -6.47355 0.817799 1
      vertex -4.98538 0.629799 1
      vertex -6.32 1.6227 1
    endloop
  endfacet
  facet normal 0 0 1
    outer loop
      vertex -6.47355 0.817799 1
      vertex -5.025 0 1
      vertex -4.98538 0.629799 1
    endloop
  endfacet
  facet normal 0 0 -1
    outer loop
      vertex -6.525 0 0
      vertex -3.25 0 0
      vertex -6.47355 -0.817799 0
    endloop
  endfacet
  facet normal -0.998027 -0.0627886 0
    outer loop
      vertex -6.525 0 0
      vertex -6.47355 -0.817799 0
      vertex -6.525 0 1
    endloop
  endfacet
  facet normal 0 0 -1
    outer loop
      vertex -6.525 0 0
      vertex -6.47355 0.817799 0
      vertex -3.25 0 0
    endloop
  endfacet
  facet normal -0.998027 0.0627886 0
    outer loop
      vertex -6.525 0 0
      vertex -6.47355 0.817799 1
      vertex -6.47355 0.817799 0
    endloop
  endfacet
  facet normal -0.998027 0.0627886 0
    outer loop
      vertex -6.525 0 0
      vertex -6.525 0 1
      vertex -6.47355 0.817799 1
    endloop
  endfacet
  facet normal 0 0 1
    outer loop
      vertex -6.525 0 1
      vertex -5.025 0 1
      vertex -6.47355 0.817799 1
    endloop
  endfacet
  facet normal -0.998027 -0.0627886 0
    outer loop
      vertex -6.525 0 1
      vertex -6.47355 -0.817799 0
      vertex -6.47355 -0.817799 1
    endloop
  endfacet
  facet normal 0 0 1
    outer loop
      vertex -6.525 0 1
      vertex -6.47355 -0.817799 1
      vertex -5.025 0 1
    endloop
  endfacet
  facet normal -0.125349 0.992113 0
    outer loop
      vertex 0.204069 -3.24359 0
      vertex 0.204069 -3.24359 5.5
      vertex 0.608989 -3.19243 0
    endloop
  endfacet
  facet normal 0 0 -1
    outer loop
      vertex 0.204069 -3.24359 0
      vertex 0.608989 -3.19243 0
      vertex 0.409708 -6.51212 0
    endloop
  endfacet
  facet normal -0 0 1
    outer loop
      vertex 0.204069 -3.24359 5.5
      vertex 0.315522 -5.01508 5.5
      vertex 0.608989 -3.19243 5.5
    endloop
  endfacet
  facet normal -0.125349 0.992113 0
    outer loop
      vertex 0.204069 -3.24359 5.5
      vertex 0.608989 -3.19243 5.5
      vertex 0.608989 -3.19243 0
    endloop
  endfacet
  facet normal 0 0 -1
    outer loop
      vertex 0.204069 3.24359 0
      vertex 0.409708 6.51212 0
      vertex 0.608989 3.19243 0
    endloop
  endfacet
  facet normal -0.125349 -0.992113 -0
    outer loop
      vertex 0.204069 3.24359 0
      vertex 0.608989 3.19243 0
      vertex 0.608989 3.19243 5.5
    endloop
  endfacet
  facet normal -0.125349 -0.992113 0
    outer loop
      vertex 0.204069 3.24359 0
      vertex 0.608989 3.19243 5.5
      vertex 0.204069 3.24359 5.5
    endloop
  endfacet
  facet normal 0 0 1
    outer loop
      vertex 0.204069 3.24359 5.5
      vertex 0.608989 3.19243 5.5
      vertex 0.315522 5.01508 5.5
    endloop
  endfacet
  facet normal -0 0 1
    outer loop
      vertex 0.315522 -5.01508 1
      vertex 0.409708 -6.51212 1
      vertex 0.94159 -4.93599 1
    endloop
  endfacet
  facet normal 0.125332 -0.992115 0
    outer loop
      vertex 0.315522 -5.01508 1
      vertex 0.94159 -4.93599 1
      vertex 0.94159 -4.93599 5.5
    endloop
  endfacet
  facet normal 0.125332 -0.992115 0
    outer loop
      vertex 0.315522 -5.01508 1
      vertex 0.94159 -4.93599 5.5
      vertex 0.315522 -5.01508 5.5
    endloop
  endfacet
  facet normal 0 0 1
    outer loop
      vertex 0.315522 -5.01508 5.5
      vertex 0.94159 -4.93599 5.5
      vertex 0.608989 -3.19243 5.5
    endloop
  endfacet
  facet normal 0.125332 0.992115 0
    outer loop
      vertex 0.315522 5.01508 1
      vertex 0.315522 5.01508 5.5
      vertex 0.94159 4.93599 1
    endloop
  endfacet
  facet normal 0 0 1
    outer loop
      vertex 0.315522 5.01508 1
      vertex 0.94159 4.93599 1
      vertex 0.409708 6.51212 1
    endloop
  endfacet
  facet normal 0 0 1
    outer loop
      vertex 0.315522 5.01508 5.5
      vertex 0.608989 3.19243 5.5
      vertex 0.94159 4.93599 5.5
    endloop
  endfacet
  facet normal 0.125332 0.992115 -0
    outer loop
      vertex 0.315522 5.01508 5.5
      vertex 0.94159 4.93599 5.5
      vertex 0.94159 4.93599 1
    endloop
  endfacet
  facet normal 0 0 -1
    outer loop
      vertex 0.409708 -6.51212 0
      vertex 0.608989 -3.19243 0
      vertex 1.22266 -6.40942 0
    endloop
  endfacet
  facet normal 0.125334 -0.992115 0
    outer loop
      vertex 0.409708 -6.51212 0
      vertex 1.22266 -6.40942 0
      vertex 1.22266 -6.40942 1
    endloop
  endfacet
  facet normal 0.125334 -0.992115 0
    outer loop
      vertex 0.409708 -6.51212 0
      vertex 1.22266 -6.40942 1
      vertex 0.409708 -6.51212 1
    endloop
  endfacet
  facet normal 0 0 1
    outer loop
      vertex 0.409708 -6.51212 1
      vertex 1.22266 -6.40942 1
      vertex 0.94159 -4.93599 1
    endloop
  endfacet
  facet normal 0.125334 0.992115 0
    outer loop
      vertex 0.409708 6.51212 0
      vertex 0.409708 6.51212 1
      vertex 1.22266 6.40942 0
    endloop
  endfacet
  facet normal 0 0 -1
    outer loop
      vertex 0.409708 6.51212 0
      vertex 1.22266 6.40942 0
      vertex 0.608989 3.19243 0
    endloop
  endfacet
  facet normal 0 0 1
    outer loop
      vertex 0.409708 6.51212 1
      vertex 0.94159 4.93599 1
      vertex 1.22266 6.40942 1
    endloop
  endfacet
  facet normal 0.125334 0.992115 -0
    outer loop
      vertex 0.409708 6.51212 1
      vertex 1.22266 6.40942 1
      vertex 1.22266 6.40942 0
    endloop
  endfacet
  facet normal -0.248693 0.968582 0
    outer loop
      vertex 0.608989 -3.19243 0
      vertex 0.608989 -3.19243 5.5
      vertex 1.0043 -3.09093 0
    endloop
  endfacet
  facet normal 0 0 -1
    outer loop
      vertex 0.608989 -3.19243 0
      vertex 1.0043 -3.09093 0
      vertex 1.22266 -6.40942 0
    endloop
  endfacet
  facet normal -0 0 1
    outer loop
      vertex 0.608989 -3.19243 5.5
      vertex 0.94159 -4.93599 5.5
      vertex 1.0043 -3.09093 5.5
    endloop
  endfacet
  facet normal -0.248693 0.968582 0
    outer loop
      vertex 0.608989 -3.19243 5.5
      vertex 1.0043 -3.09093 5.5
      vertex 1.0043 -3.09093 0
    endloop
  endfacet
  facet normal -0.248693 -0.968582 -0
    outer loop
      vertex 0.608989 3.19243 0
      vertex 1.0043 3.09093 0
      vertex 1.0043 3.09093 5.5
    endloop
  endfacet
  facet normal -0.248693 -0.968582 0
    outer loop
      vertex 0.608989 3.19243 0
      vertex 1.0043 3.09093 5.5
      vertex 0.608989 3.19243 5.5
    endloop
  endfacet
  facet normal 0 0 -1
    outer loop
      vertex 0.608989 3.19243 0
      vertex 1.22266 6.40942 0
      vertex 1.0043 3.09093 0
    endloop
  endfacet
  facet normal 0 0 1
    outer loop
      vertex 0.608989 3.19243 5.5
      vertex 1.0043 3.09093 5.5
      vertex 0.94159 4.93599 5.5
    endloop
  endfacet
  facet normal -0 0 1
    outer loop
      vertex 0.94159 -4.93599 1
      vertex 1.22266 -6.40942 1
      vertex 1.55281 -4.77906 1
    endloop
  endfacet
  facet normal 0.248683 -0.968585 0
    outer loop
      vertex 0.94159 -4.93599 1
      vertex 1.55281 -4.77906 1
      vertex 1.55281 -4.77906 5.5
    endloop
  endfacet
  facet normal 0.248683 -0.968585 0
    outer loop
      vertex 0.94159 -4.93599 1
      vertex 1.55281 -4.77906 5.5
      vertex 0.94159 -4.93599 5.5
    endloop
  endfacet
  facet normal 0 0 1
    outer loop
      vertex 0.94159 -4.93599 5.5
      vertex 1.55281 -4.77906 5.5
      vertex 1.0043 -3.09093 5.5
    endloop
  endfacet
  facet normal 0.248683 0.968585 0
    outer loop
      vertex 0.94159 4.93599 1
      vertex 0.94159 4.93599 5.5
      vertex 1.55281 4.77906 1
    endloop
  endfacet
  facet normal 0 0 1
    outer loop
      vertex 0.94159 4.93599 1
      vertex 1.55281 4.77906 1
      vertex 1.22266 6.40942 1
    endloop
  endfacet
  facet normal 0 0 1
    outer loop
      vertex 0.94159 4.93599 5.5
      vertex 1.0043 3.09093 5.5
      vertex 1.55281 4.77906 5.5
    endloop
  endfacet
  facet normal 0.248683 0.968585 -0
    outer loop
      vertex 0.94159 4.93599 5.5
      vertex 1.55281 4.77906 5.5
      vertex 1.55281 4.77906 1
    endloop
  endfacet
  facet normal -0.36811 0.929782 0
    outer loop
      vertex 1.0043 -3.09093 0
      vertex 1.0043 -3.09093 5.5
      vertex 1.38378 -2.94069 0
    endloop
  endfacet
  facet normal 0 0 -1
    outer loop
      vertex 1.0043 -3.09093 0
      vertex 1.38378 -2.94069 0
      vertex 2.01634 -6.20564 0
    endloop
  endfacet
  facet normal 0 0 -1
    outer loop
      vertex 1.0043 -3.09093 0
      vertex 2.01634 -6.20564 0
      vertex 1.22266 -6.40942 0
    endloop
  endfacet
  facet normal -0.36811 0.929782 0
    outer loop
      vertex 1.0043 -3.09093 5.5
      vertex 1.38378 -2.94069 5.5
      vertex 1.38378 -2.94069 0
    endloop
  endfacet
  facet normal -0 0 1
    outer loop
      vertex 1.0043 -3.09093 5.5
      vertex 1.55281 -4.77906 5.5
      vertex 1.38378 -2.94069 5.5
    endloop
  endfacet
  facet normal -0 0 -1
    outer loop
      vertex 1.0043 3.09093 0
      vertex 1.22266 6.40942 0
      vertex 2.01634 6.20564 0
    endloop
  endfacet
  facet normal -0.36811 -0.929782 -0
    outer loop
      vertex 1.0043 3.09093 0
      vertex 1.38378 2.94069 0
      vertex 1.38378 2.94069 5.5
    endloop
  endfacet
  facet normal -0.36811 -0.929782 0
    outer loop
      vertex 1.0043 3.09093 0
      vertex 1.38378 2.94069 5.5
      vertex 1.0043 3.09093 5.5
    endloop
  endfacet
  facet normal 0 0 -1
    outer loop
      vertex 1.0043 3.09093 0
      vertex 2.01634 6.20564 0
      vertex 1.38378 2.94069 0
    endloop
  endfacet
  facet normal 0 0 1
    outer loop
      vertex 1.0043 3.09093 5.5
      vertex 1.38378 2.94069 5.5
      vertex 1.55281 4.77906 5.5
    endloop
  endfacet
  facet normal 0.248687 -0.968584 0
    outer loop
      vertex 1.22266 -6.40942 0
      vertex 2.01634 -6.20564 0
      vertex 2.01634 -6.20564 1
    endloop
  endfacet
  facet normal 0.248687 -0.968584 0
    outer loop
      vertex 1.22266 -6.40942 0
      vertex 2.01634 -6.20564 1
      vertex 1.22266 -6.40942 1
    endloop
  endfacet
  facet normal 0 0 1
    outer loop
      vertex 1.22266 -6.40942 1
      vertex 2.01634 -6.20564 1
      vertex 1.55281 -4.77906 1
    endloop
  endfacet
  facet normal 0.248687 0.968584 0
    outer loop
      vertex 1.22266 6.40942 0
      vertex 1.22266 6.40942 1
      vertex 2.01634 6.20564 0
    endloop
  endfacet
  facet normal 0 0 1
    outer loop
      vertex 1.22266 6.40942 1
      vertex 1.55281 4.77906 1
      vertex 2.01634 6.20564 1
    endloop
  endfacet
  facet normal 0.248687 0.968584 -0
    outer loop
      vertex 1.22266 6.40942 1
      vertex 2.01634 6.20564 1
      vertex 2.01634 6.20564 0
    endloop
  endfacet
  facet normal -0.481744 0.876312 0
    outer loop
      vertex 1.38378 -2.94069 0
      vertex 1.38378 -2.94069 5.5
      vertex 1.74144 -2.74407 0
    endloop
  endfacet
  facet normal 0 0 -1
    outer loop
      vertex 1.38378 -2.94069 0
      vertex 1.74144 -2.74407 0
      vertex 2.77821 -5.904 0
    endloop
  endfacet
  facet normal 0 0 -1
    outer loop
      vertex 1.38378 -2.94069 0
      vertex 2.77821 -5.904 0
      vertex 2.01634 -6.20564 0
    endloop
  endfacet
  facet normal 0 0 1
    outer loop
      vertex 1.38378 -2.94069 5.5
      vertex 1.55281 -4.77906 5.5
      vertex 2.13954 -4.54676 5.5
    endloop
  endfacet
  facet normal -0.481744 0.876312 0
    outer loop
      vertex 1.38378 -2.94069 5.5
      vertex 1.74144 -2.74407 5.5
      vertex 1.74144 -2.74407 0
    endloop
  endfacet
  facet normal -0 0 1
    outer loop
      vertex 1.38378 -2.94069 5.5
      vertex 2.13954 -4.54676 5.5
      vertex 1.74144 -2.74407 5.5
    endloop
  endfacet
  facet normal -0.481744 -0.876312 -0
    outer loop
      vertex 1.38378 2.94069 0
      vertex 1.74144 2.74407 0
      vertex 1.74144 2.74407 5.5
    endloop
  endfacet
  facet normal -0.481744 -0.876312 0
    outer loop
      vertex 1.38378 2.94069 0
      vertex 1.74144 2.74407 5.5
      vertex 1.38378 2.94069 5.5
    endloop
  endfacet
  facet normal -0 0 -1
    outer loop
      vertex 1.38378 2.94069 0
      vertex 2.01634 6.20564 0
      vertex 2.77821 5.904 0
    endloop
  endfacet
  facet normal 0 0 -1
    outer loop
      vertex 1.38378 2.94069 0
      vertex 2.77821 5.904 0
      vertex 1.74144 2.74407 0
    endloop
  endfacet
  facet normal 0 0 1
    outer loop
      vertex 1.38378 2.94069 5.5
      vertex 1.74144 2.74407 5.5
      vertex 2.13954 4.54676 5.5
    endloop
  endfacet
  facet normal 0 0 1
    outer loop
      vertex 1.38378 2.94069 5.5
      vertex 2.13954 4.54676 5.5
      vertex 1.55281 4.77906 5.5
    endloop
  endfacet
  facet normal -0 0 1
    outer loop
      vertex 1.55281 -4.77906 1
      vertex 2.01634 -6.20564 1
      vertex 2.13954 -4.54676 1
    endloop
  endfacet
  facet normal 0.368121 -0.929778 0
    outer loop
      vertex 1.55281 -4.77906 1
      vertex 2.13954 -4.54676 1
      vertex 2.13954 -4.54676 5.5
    endloop
  endfacet
  facet normal 0.368121 -0.929778 0
    outer loop
      vertex 1.55281 -4.77906 1
      vertex 2.13954 -4.54676 5.5
      vertex 1.55281 -4.77906 5.5
    endloop
  endfacet
  facet normal 0.368121 0.929778 0
    outer loop
      vertex 1.55281 4.77906 1
      vertex 1.55281 4.77906 5.5
      vertex 2.13954 4.54676 1
    endloop
  endfacet
  facet normal 0 0 1
    outer loop
      vertex 1.55281 4.77906 1
      vertex 2.13954 4.54676 1
      vertex 2.01634 6.20564 1
    endloop
  endfacet
  facet normal 0.368121 0.929778 -0
    outer loop
      vertex 1.55281 4.77906 5.5
      vertex 2.13954 4.54676 5.5
      vertex 2.13954 4.54676 1
    endloop
  endfacet
  facet normal -0.58779 0.809014 0
    outer loop
      vertex 1.74144 -2.74407 0
      vertex 1.74144 -2.74407 5.5
      vertex 2.07163 -2.50417 0
    endloop
  endfacet
  facet normal 0 0 -1
    outer loop
      vertex 1.74144 -2.74407 0
      vertex 2.07163 -2.50417 0
      vertex 3.49627 -5.50924 0
    endloop
  endfacet
  facet normal 0 0 -1
    outer loop
      vertex 1.74144 -2.74407 0
      vertex 3.49627 -5.50924 0
      vertex 2.77821 -5.904 0
    endloop
  endfacet
  facet normal -0.58779 0.809014 0
    outer loop
      vertex 1.74144 -2.74407 5.5
      vertex 2.07163 -2.50417 5.5
      vertex 2.07163 -2.50417 0
    endloop
  endfacet
  facet normal 0 0 1
    outer loop
      vertex 1.74144 -2.74407 5.5
      vertex 2.13954 -4.54676 5.5
      vertex 2.69253 -4.24275 5.5
    endloop
  endfacet
  facet normal -0 0 1
    outer loop
      vertex 1.74144 -2.74407 5.5
      vertex 2.69253 -4.24275 5.5
      vertex 2.07163 -2.50417 5.5
    endloop
  endfacet
  facet normal -0.58779 -0.809014 -0
    outer loop
      vertex 1.74144 2.74407 0
      vertex 2.07163 2.50417 0
      vertex 2.07163 2.50417 5.5
    endloop
  endfacet
  facet normal -0.58779 -0.809014 0
    outer loop
      vertex 1.74144 2.74407 0
      vertex 2.07163 2.50417 5.5
      vertex 1.74144 2.74407 5.5
    endloop
  endfacet
  facet normal -0 0 -1
    outer loop
      vertex 1.74144 2.74407 0
      vertex 2.77821 5.904 0
      vertex 3.49627 5.50924 0
    endloop
  endfacet
  facet normal 0 0 -1
    outer loop
      vertex 1.74144 2.74407 0
      vertex 3.49627 5.50924 0
      vertex 2.07163 2.50417 0
    endloop
  endfacet
  facet normal 0 0 1
    outer loop
      vertex 1.74144 2.74407 5.5
      vertex 2.07163 2.50417 5.5
      vertex 2.69253 4.24275 5.5
    endloop
  endfacet
  facet normal 0 0 1
    outer loop
      vertex 1.74144 2.74407 5.5
      vertex 2.69253 4.24275 5.5
      vertex 2.13954 4.54676 5.5
    endloop
  endfacet
  facet normal 0.368119 -0.929779 0
    outer loop
      vertex 2.01634 -6.20564 0
      vertex 2.77821 -5.904 0
      vertex 2.77821 -5.904 1
    endloop
  endfacet
  facet normal 0.368119 -0.929779 0
    outer loop
      vertex 2.01634 -6.20564 0
      vertex 2.77821 -5.904 1
      vertex 2.01634 -6.20564 1
    endloop
  endfacet
  facet normal 0 0 1
    outer loop
      vertex 2.01634 -6.20564 1
      vertex 2.77821 -5.904 1
      vertex 2.13954 -4.54676 1
    endloop
  endfacet
  facet normal 0.368119 0.929779 0
    outer loop
      vertex 2.01634 6.20564 0
      vertex 2.01634 6.20564 1
      vertex 2.77821 5.904 0
    endloop
  endfacet
  facet normal 0 0 1
    outer loop
      vertex 2.01634 6.20564 1
      vertex 2.13954 4.54676 1
      vertex 2.77821 5.904 1
    endloop
  endfacet
  facet normal 0.368119 0.929779 -0
    outer loop
      vertex 2.01634 6.20564 1
      vertex 2.77821 5.904 1
      vertex 2.77821 5.904 0
    endloop
  endfacet
  facet normal -0.684547 0.728968 0
    outer loop
      vertex 2.07163 -2.50417 0
      vertex 2.07163 -2.50417 5.5
      vertex 2.36915 -2.22478 0
    endloop
  endfacet
  facet normal 0 0 -1
    outer loop
      vertex 2.07163 -2.50417 0
      vertex 2.36915 -2.22478 0
      vertex 4.15919 -5.0276 0
    endloop
  endfacet
  facet normal 0 0 -1
    outer loop
      vertex 2.07163 -2.50417 0
      vertex 4.15919 -5.0276 0
      vertex 3.49627 -5.50924 0
    endloop
  endfacet
  facet normal -0.684547 0.728968 0
    outer loop
      vertex 2.07163 -2.50417 5.5
      vertex 2.36915 -2.22478 5.5
      vertex 2.36915 -2.22478 0
    endloop
  endfacet
  facet normal 0 0 1
    outer loop
      vertex 2.07163 -2.50417 5.5
      vertex 2.69253 -4.24275 5.5
      vertex 3.20306 -3.87183 5.5
    endloop
  endfacet
  facet normal -0 0 1
    outer loop
      vertex 2.07163 -2.50417 5.5
      vertex 3.20306 -3.87183 5.5
      vertex 2.36915 -2.22478 5.5
    endloop
  endfacet
  facet normal -0.684547 -0.728968 -0
    outer loop
      vertex 2.07163 2.50417 0
      vertex 2.36915 2.22478 0
      vertex 2.36915 2.22478 5.5
    endloop
  endfacet
  facet normal -0.684547 -0.728968 0
    outer loop
      vertex 2.07163 2.50417 0
      vertex 2.36915 2.22478 5.5
      vertex 2.07163 2.50417 5.5
    endloop
  endfacet
  facet normal -0 0 -1
    outer loop
      vertex 2.07163 2.50417 0
      vertex 3.49627 5.50924 0
      vertex 4.15919 5.0276 0
    endloop
  endfacet
  facet normal 0 0 -1
    outer loop
      vertex 2.07163 2.50417 0
      vertex 4.15919 5.0276 0
      vertex 2.36915 2.22478 0
    endloop
  endfacet
  facet normal 0 0 1
    outer loop
      vertex 2.07163 2.50417 5.5
      vertex 2.36915 2.22478 5.5
      vertex 3.20306 3.87183 5.5
    endloop
  endfacet
  facet normal 0 0 1
    outer loop
      vertex 2.07163 2.50417 5.5
      vertex 3.20306 3.87183 5.5
      vertex 2.69253 4.24275 5.5
    endloop
  endfacet
  facet normal 0.481755 -0.876306 0
    outer loop
      vertex 2.13954 -4.54676 1
      vertex 2.69253 -4.24275 1
      vertex 2.69253 -4.24275 5.5
    endloop
  endfacet
  facet normal 0.481755 -0.876306 0
    outer loop
      vertex 2.13954 -4.54676 1
      vertex 2.69253 -4.24275 5.5
      vertex 2.13954 -4.54676 5.5
    endloop
  endfacet
  facet normal -0 0 1
    outer loop
      vertex 2.13954 -4.54676 1
      vertex 2.77821 -5.904 1
      vertex 2.69253 -4.24275 1
    endloop
  endfacet
  facet normal 0.481755 0.876306 0
    outer loop
      vertex 2.13954 4.54676 1
      vertex 2.13954 4.54676 5.5
      vertex 2.69253 4.24275 1
    endloop
  endfacet
  facet normal 0 0 1
    outer loop
      vertex 2.13954 4.54676 1
      vertex 2.69253 4.24275 1
      vertex 2.77821 5.904 1
    endloop
  endfacet
  facet normal 0.481755 0.876306 -0
    outer loop
      vertex 2.13954 4.54676 5.5
      vertex 2.69253 4.24275 5.5
      vertex 2.69253 4.24275 1
    endloop
  endfacet
  facet normal -0.770526 0.637409 0
    outer loop
      vertex 2.36915 -2.22478 0
      vertex 2.36915 -2.22478 5.5
      vertex 2.6293 -1.9103 5.5
    endloop
  endfacet
  facet normal 0 0 -1
    outer loop
      vertex 2.36915 -2.22478 0
      vertex 2.6293 -1.9103 0
      vertex 4.75652 -4.46667 0
    endloop
  endfacet
  facet normal -0.770526 0.637409 0
    outer loop
      vertex 2.36915 -2.22478 0
      vertex 2.6293 -1.9103 5.5
      vertex 2.6293 -1.9103 0
    endloop
  endfacet
  facet normal 0 0 -1
    outer loop
      vertex 2.36915 -2.22478 0
      vertex 4.75652 -4.46667 0
      vertex 4.15919 -5.0276 0
    endloop
  endfacet
  facet normal 0 0 1
    outer loop
      vertex 2.36915 -2.22478 5.5
      vertex 3.20306 -3.87183 5.5
      vertex 3.66307 -3.43985 5.5
    endloop
  endfacet
  facet normal -0 0 1
    outer loop
      vertex 2.36915 -2.22478 5.5
      vertex 3.66307 -3.43985 5.5
      vertex 2.6293 -1.9103 5.5
    endloop
  endfacet
  facet normal -0.770526 -0.637409 0
    outer loop
      vertex 2.36915 2.22478 0
      vertex 2.6293 1.9103 0
      vertex 2.36915 2.22478 5.5
    endloop
  endfacet
  facet normal -0 0 -1
    outer loop
      vertex 2.36915 2.22478 0
      vertex 4.15919 5.0276 0
      vertex 4.75652 4.46667 0
    endloop
  endfacet
  facet normal 0 0 -1
    outer loop
      vertex 2.36915 2.22478 0
      vertex 4.75652 4.46667 0
      vertex 2.6293 1.9103 0
    endloop
  endfacet
  facet normal -0.770526 -0.637409 0
    outer loop
      vertex 2.36915 2.22478 5.5
      vertex 2.6293 1.9103 0
      vertex 2.6293 1.9103 5.5
    endloop
  endfacet
  facet normal 0 0 1
    outer loop
      vertex 2.36915 2.22478 5.5
      vertex 2.6293 1.9103 5.5
      vertex 3.66307 3.43985 5.5
    endloop
  endfacet
  facet normal 0 0 1
    outer loop
      vertex 2.36915 2.22478 5.5
      vertex 3.66307 3.43985 5.5
      vertex 3.20306 3.87183 5.5
    endloop
  endfacet
  facet normal -0.844317 0.535845 0
    outer loop
      vertex 2.6293 -1.9103 0
      vertex 2.6293 -1.9103 5.5
      vertex 2.848 -1.5657 5.5
    endloop
  endfacet
  facet normal 0 0 -1
    outer loop
      vertex 2.6293 -1.9103 0
      vertex 2.848 -1.5657 0
      vertex 5.27884 -3.8353 0
    endloop
  endfacet
  facet normal -0.844317 0.535845 0
    outer loop
      vertex 2.6293 -1.9103 0
      vertex 2.848 -1.5657 5.5
      vertex 2.848 -1.5657 0
    endloop
  endfacet
  facet normal 0 0 -1
    outer loop
      vertex 2.6293 -1.9103 0
      vertex 5.27884 -3.8353 0
      vertex 4.75652 -4.46667 0
    endloop
  endfacet
  facet normal 0 0 1
    outer loop
      vertex 2.6293 -1.9103 5.5
      vertex 3.66307 -3.43985 5.5
      vertex 4.06531 -2.95362 5.5
    endloop
  endfacet
  facet normal -0 0 1
    outer loop
      vertex 2.6293 -1.9103 5.5
      vertex 4.06531 -2.95362 5.5
      vertex 2.848 -1.5657 5.5
    endloop
  endfacet
  facet normal -0.844317 -0.535845 0
    outer loop
      vertex 2.6293 1.9103 0
      vertex 2.848 1.5657 0
      vertex 2.6293 1.9103 5.5
    endloop
  endfacet
  facet normal -0 0 -1
    outer loop
      vertex 2.6293 1.9103 0
      vertex 4.75652 4.46667 0
      vertex 5.27884 3.8353 0
    endloop
  endfacet
  facet normal 0 0 -1
    outer loop
      vertex 2.6293 1.9103 0
      vertex 5.27884 3.8353 0
      vertex 2.848 1.5657 0
    endloop
  endfacet
  facet normal -0.844317 -0.535845 0
    outer loop
      vertex 2.6293 1.9103 5.5
      vertex 2.848 1.5657 0
      vertex 2.848 1.5657 5.5
    endloop
  endfacet
  facet normal 0 0 1
    outer loop
      vertex 2.6293 1.9103 5.5
      vertex 2.848 1.5657 5.5
      vertex 4.06531 2.95362 5.5
    endloop
  endfacet
  facet normal 0 0 1
    outer loop
      vertex 2.6293 1.9103 5.5
      vertex 4.06531 2.95362 5.5
      vertex 3.66307 3.43985 5.5
    endloop
  endfacet
  facet normal 0 0 1
    outer loop
      vertex 2.69253 -4.24275 1
      vertex 2.77821 -5.904 1
      vertex 3.49627 -5.50924 1
    endloop
  endfacet
  facet normal 0.587783 -0.809018 0
    outer loop
      vertex 2.69253 -4.24275 1
      vertex 3.20306 -3.87183 1
      vertex 3.20306 -3.87183 5.5
    endloop
  endfacet
  facet normal 0.587783 -0.809018 0
    outer loop
      vertex 2.69253 -4.24275 1
      vertex 3.20306 -3.87183 5.5
      vertex 2.69253 -4.24275 5.5
    endloop
  endfacet
  facet normal -0 0 1
    outer loop
      vertex 2.69253 -4.24275 1
      vertex 3.49627 -5.50924 1
      vertex 3.20306 -3.87183 1
    endloop
  endfacet
  facet normal 0.587783 0.809018 0
    outer loop
      vertex 2.69253 4.24275 1
      vertex 2.69253 4.24275 5.5
      vertex 3.20306 3.87183 1
    endloop
  endfacet
  facet normal 0 0 1
    outer loop
      vertex 2.69253 4.24275 1
      vertex 3.20306 3.87183 1
      vertex 3.49627 5.50924 1
    endloop
  endfacet
  facet normal 0 0 1
    outer loop
      vertex 2.69253 4.24275 1
      vertex 3.49627 5.50924 1
      vertex 2.77821 5.904 1
    endloop
  endfacet
  facet normal 0.587783 0.809018 -0
    outer loop
      vertex 2.69253 4.24275 5.5
      vertex 3.20306 3.87183 5.5
      vertex 3.20306 3.87183 1
    endloop
  endfacet
  facet normal 0.481757 -0.876305 0
    outer loop
      vertex 2.77821 -5.904 0
      vertex 3.49627 -5.50924 0
      vertex 3.49627 -5.50924 1
    endloop
  endfacet
  facet normal 0.481757 -0.876305 0
    outer loop
      vertex 2.77821 -5.904 0
      vertex 3.49627 -5.50924 1
      vertex 2.77821 -5.904 1
    endloop
  endfacet
  facet normal 0.481757 0.876305 0
    outer loop
      vertex 2.77821 5.904 0
      vertex 2.77821 5.904 1
      vertex 3.49627 5.50924 0
    endloop
  endfacet
  facet normal 0.481757 0.876305 -0
    outer loop
      vertex 2.77821 5.904 1
      vertex 3.49627 5.50924 1
      vertex 3.49627 5.50924 0
    endloop
  endfacet
  facet normal -0.904836 0.42576 0
    outer loop
      vertex 2.848 -1.5657 0
      vertex 2.848 -1.5657 5.5
      vertex 3.02177 -1.1964 5.5
    endloop
  endfacet
  facet normal 0 0 -1
    outer loop
      vertex 2.848 -1.5657 0
      vertex 3.02177 -1.1964 0
      vertex 5.7179 -3.14344 0
    endloop
  endfacet
  facet normal -0.904836 0.42576 0
    outer loop
      vertex 2.848 -1.5657 0
      vertex 3.02177 -1.1964 5.5
      vertex 3.02177 -1.1964 0
    endloop
  endfacet
  facet normal 0 0 -1
    outer loop
      vertex 2.848 -1.5657 0
      vertex 5.7179 -3.14344 0
      vertex 5.27884 -3.8353 0
    endloop
  endfacet
  facet normal 0 0 1
    outer loop
      vertex 2.848 -1.5657 5.5
      vertex 4.06531 -2.95362 5.5
      vertex 4.40344 -2.42081 5.5
    endloop
  endfacet
  facet normal -0 0 1
    outer loop
      vertex 2.848 -1.5657 5.5
      vertex 4.40344 -2.42081 5.5
      vertex 3.02177 -1.1964 5.5
    endloop
  endfacet
  facet normal -0.904836 -0.42576 0
    outer loop
      vertex 2.848 1.5657 0
      vertex 3.02177 1.1964 0
      vertex 2.848 1.5657 5.5
    endloop
  endfacet
  facet normal -0 0 -1
    outer loop
      vertex 2.848 1.5657 0
      vertex 5.27884 3.8353 0
      vertex 5.7179 3.14344 0
    endloop
  endfacet
  facet normal 0 0 -1
    outer loop
      vertex 2.848 1.5657 0
      vertex 5.7179 3.14344 0
      vertex 3.02177 1.1964 0
    endloop
  endfacet
  facet normal -0.904836 -0.42576 0
    outer loop
      vertex 2.848 1.5657 5.5
      vertex 3.02177 1.1964 0
      vertex 3.02177 1.1964 5.5
    endloop
  endfacet
  facet normal 0 0 1
    outer loop
      vertex 2.848 1.5657 5.5
      vertex 3.02177 1.1964 5.5
      vertex 4.40344 2.42081 5.5
    endloop
  endfacet
  facet normal 0 0 1
    outer loop
      vertex 2.848 1.5657 5.5
      vertex 4.40344 2.42081 5.5
      vertex 4.06531 2.95362 5.5
    endloop
  endfacet
  facet normal -0.951057 0.309017 0
    outer loop
      vertex 3.02177 -1.1964 0
      vertex 3.02177 -1.1964 5.5
      vertex 3.14789 -0.808242 5.5
    endloop
  endfacet
  facet normal 0 0 -1
    outer loop
      vertex 3.02177 -1.1964 0
      vertex 3.14789 -0.808242 0
      vertex 6.06679 -2.40201 0
    endloop
  endfacet
  facet normal -0.951057 0.309017 0
    outer loop
      vertex 3.02177 -1.1964 0
      vertex 3.14789 -0.808242 5.5
      vertex 3.14789 -0.808242 0
    endloop
  endfacet
  facet normal 0 0 -1
    outer loop
      vertex 3.02177 -1.1964 0
      vertex 6.06679 -2.40201 0
      vertex 5.7179 -3.14344 0
    endloop
  endfacet
  facet normal 0 0 1
    outer loop
      vertex 3.02177 -1.1964 5.5
      vertex 4.40344 -2.42081 5.5
      vertex 4.67213 -1.84983 5.5
    endloop
  endfacet
  facet normal -0 0 1
    outer loop
      vertex 3.02177 -1.1964 5.5
      vertex 4.67213 -1.84983 5.5
      vertex 3.14789 -0.808242 5.5
    endloop
  endfacet
  facet normal -0.951057 -0.309017 0
    outer loop
      vertex 3.02177 1.1964 0
      vertex 3.14789 0.808242 0
      vertex 3.02177 1.1964 5.5
    endloop
  endfacet
  facet normal -0 0 -1
    outer loop
      vertex 3.02177 1.1964 0
      vertex 5.7179 3.14344 0
      vertex 6.06679 2.40201 0
    endloop
  endfacet
  facet normal 0 0 -1
    outer loop
      vertex 3.02177 1.1964 0
      vertex 6.06679 2.40201 0
      vertex 3.14789 0.808242 0
    endloop
  endfacet
  facet normal -0.951057 -0.309017 0
    outer loop
      vertex 3.02177 1.1964 5.5
      vertex 3.14789 0.808242 0
      vertex 3.14789 0.808242 5.5
    endloop
  endfacet
  facet normal 0 0 1
    outer loop
      vertex 3.02177 1.1964 5.5
      vertex 3.14789 0.808242 5.5
      vertex 4.67213 1.84983 5.5
    endloop
  endfacet
  facet normal 0 0 1
    outer loop
      vertex 3.02177 1.1964 5.5
      vertex 4.67213 1.84983 5.5
      vertex 4.40344 2.42081 5.5
    endloop
  endfacet
  facet normal -0.982286 0.187387 0
    outer loop
      vertex 3.14789 -0.808242 0
      vertex 3.14789 -0.808242 5.5
      vertex 3.22437 -0.407332 5.5
    endloop
  endfacet
  facet normal 0 0 -1
    outer loop
      vertex 3.14789 -0.808242 0
      vertex 3.22437 -0.407332 0
      vertex 6.32 -1.6227 0
    endloop
  endfacet
  facet normal -0.982286 0.187387 0
    outer loop
      vertex 3.14789 -0.808242 0
      vertex 3.22437 -0.407332 5.5
      vertex 3.22437 -0.407332 0
    endloop
  endfacet
  facet normal 0 0 -1
    outer loop
      vertex 3.14789 -0.808242 0
      vertex 6.32 -1.6227 0
      vertex 6.06679 -2.40201 0
    endloop
  endfacet
  facet normal 0 0 1
    outer loop
      vertex 3.14789 -0.808242 5.5
      vertex 4.67213 -1.84983 5.5
      vertex 4.86713 -1.24967 5.5
    endloop
  endfacet
  facet normal -0 0 1
    outer loop
      vertex 3.14789 -0.808242 5.5
      vertex 4.86713 -1.24967 5.5
      vertex 3.22437 -0.407332 5.5
    endloop
  endfacet
  facet normal -0.982286 -0.187387 0
    outer loop
      vertex 3.14789 0.808242 0
      vertex 3.22437 0.407332 0
      vertex 3.14789 0.808242 5.5
    endloop
  endfacet
  facet normal -0 0 -1
    outer loop
      vertex 3.14789 0.808242 0
      vertex 6.06679 2.40201 0
      vertex 6.32 1.6227 0
    endloop
  endfacet
  facet normal 0 0 -1
    outer loop
      vertex 3.14789 0.808242 0
      vertex 6.32 1.6227 0
      vertex 3.22437 0.407332 0
    endloop
  endfacet
  facet normal -0.982286 -0.187387 0
    outer loop
      vertex 3.14789 0.808242 5.5
      vertex 3.22437 0.407332 0
      vertex 3.22437 0.407332 5.5
    endloop
  endfacet
  facet normal 0 0 1
    outer loop
      vertex 3.14789 0.808242 5.5
      vertex 3.22437 0.407332 5.5
      vertex 4.86713 1.24967 5.5
    endloop
  endfacet
  facet normal 0 0 1
    outer loop
      vertex 3.14789 0.808242 5.5
      vertex 4.86713 1.24967 5.5
      vertex 4.67213 1.84983 5.5
    endloop
  endfacet
  facet normal 0 0 1
    outer loop
      vertex 3.20306 -3.87183 1
      vertex 3.49627 -5.50924 1
      vertex 4.15919 -5.0276 1
    endloop
  endfacet
  facet normal 0.684549 -0.728967 0
    outer loop
      vertex 3.20306 -3.87183 1
      vertex 3.66307 -3.43985 1
      vertex 3.66307 -3.43985 5.5
    endloop
  endfacet
  facet normal 0.684549 -0.728967 0
    outer loop
      vertex 3.20306 -3.87183 1
      vertex 3.66307 -3.43985 5.5
      vertex 3.20306 -3.87183 5.5
    endloop
  endfacet
  facet normal -0 0 1
    outer loop
      vertex 3.20306 -3.87183 1
      vertex 4.15919 -5.0276 1
      vertex 3.66307 -3.43985 1
    endloop
  endfacet
  facet normal 0.684549 0.728967 0
    outer loop
      vertex 3.20306 3.87183 1
      vertex 3.20306 3.87183 5.5
      vertex 3.66307 3.43985 1
    endloop
  endfacet
  facet normal 0 0 1
    outer loop
      vertex 3.20306 3.87183 1
      vertex 3.66307 3.43985 1
      vertex 4.15919 5.0276 1
    endloop
  endfacet
  facet normal 0 0 1
    outer loop
      vertex 3.20306 3.87183 1
      vertex 4.15919 5.0276 1
      vertex 3.49627 5.50924 1
    endloop
  endfacet
  facet normal 0.684549 0.728967 -0
    outer loop
      vertex 3.20306 3.87183 5.5
      vertex 3.66307 3.43985 5.5
      vertex 3.66307 3.43985 1
    endloop
  endfacet
  facet normal -0.998026 0.0627975 0
    outer loop
      vertex 3.22437 -0.407332 0
      vertex 3.22437 -0.407332 5.5
      vertex 3.25 0 5.5
    endloop
  endfacet
  facet normal 0 0 -1
    outer loop
      vertex 3.22437 -0.407332 0
      vertex 3.25 0 0
      vertex 6.47355 -0.817799 0
    endloop
  endfacet
  facet normal -0.998026 0.0627975 0
    outer loop
      vertex 3.22437 -0.407332 0
      vertex 3.25 0 5.5
      vertex 3.25 0 0
    endloop
  endfacet
  facet normal 0 0 -1
    outer loop
      vertex 3.22437 -0.407332 0
      vertex 6.47355 -0.817799 0
      vertex 6.32 -1.6227 0
    endloop
  endfacet
  facet normal 0 0 1
    outer loop
      vertex 3.22437 -0.407332 5.5
      vertex 4.86713 -1.24967 5.5
      vertex 4.98538 -0.629799 5.5
    endloop
  endfacet
  facet normal -0 0 1
    outer loop
      vertex 3.22437 -0.407332 5.5
      vertex 4.98538 -0.629799 5.5
      vertex 3.25 0 5.5
    endloop
  endfacet
  facet normal -0.998026 -0.0627975 0
    outer loop
      vertex 3.22437 0.407332 0
      vertex 3.25 0 0
      vertex 3.22437 0.407332 5.5
    endloop
  endfacet
  facet normal -0 0 -1
    outer loop
      vertex 3.22437 0.407332 0
      vertex 6.32 1.6227 0
      vertex 6.47355 0.817799 0
    endloop
  endfacet
  facet normal 0 0 -1
    outer loop
      vertex 3.22437 0.407332 0
      vertex 6.47355 0.817799 0
      vertex 3.25 0 0
    endloop
  endfacet
  facet normal -0.998026 -0.0627975 0
    outer loop
      vertex 3.22437 0.407332 5.5
      vertex 3.25 0 0
      vertex 3.25 0 5.5
    endloop
  endfacet
  facet normal 0 0 1
    outer loop
      vertex 3.22437 0.407332 5.5
      vertex 3.25 0 5.5
      vertex 4.98538 0.629799 5.5
    endloop
  endfacet
  facet normal 0 0 1
    outer loop
      vertex 3.22437 0.407332 5.5
      vertex 4.98538 0.629799 5.5
      vertex 4.86713 1.24967 5.5
    endloop
  endfacet
  facet normal 0 0 -1
    outer loop
      vertex 3.25 0 0
      vertex 6.47355 0.817799 0
      vertex 6.525 0 0
    endloop
  endfacet
  facet normal 0 0 -1
    outer loop
      vertex 3.25 0 0
      vertex 6.525 0 0
      vertex 6.47355 -0.817799 0
    endloop
  endfacet
  facet normal 0 0 1
    outer loop
      vertex 3.25 0 5.5
      vertex 4.98538 -0.629799 5.5
      vertex 5.025 0 5.5
    endloop
  endfacet
  facet normal 0 0 1
    outer loop
      vertex 3.25 0 5.5
      vertex 5.025 0 5.5
      vertex 4.98538 0.629799 5.5
    endloop
  endfacet
  facet normal 0.587786 -0.809017 0
    outer loop
      vertex 3.49627 -5.50924 0
      vertex 4.15919 -5.0276 0
      vertex 4.15919 -5.0276 1
    endloop
  endfacet
  facet normal 0.587786 -0.809017 0
    outer loop
      vertex 3.49627 -5.50924 0
      vertex 4.15919 -5.0276 1
      vertex 3.49627 -5.50924 1
    endloop
  endfacet
  facet normal 0.587786 0.809017 0
    outer loop
      vertex 3.49627 5.50924 0
      vertex 3.49627 5.50924 1
      vertex 4.15919 5.0276 0
    endloop
  endfacet
  facet normal 0.587786 0.809017 -0
    outer loop
      vertex 3.49627 5.50924 1
      vertex 4.15919 5.0276 1
      vertex 4.15919 5.0276 0
    endloop
  endfacet
  facet normal 0.770517 -0.63742 0
    outer loop
      vertex 3.66307 -3.43985 1
      vertex 4.06531 -2.95362 1
      vertex 3.66307 -3.43985 5.5
    endloop
  endfacet
  facet normal 0 0 1
    outer loop
      vertex 3.66307 -3.43985 1
      vertex 4.15919 -5.0276 1
      vertex 4.75652 -4.46667 1
    endloop
  endfacet
  facet normal -0 0 1
    outer loop
      vertex 3.66307 -3.43985 1
      vertex 4.75652 -4.46667 1
      vertex 4.06531 -2.95362 1
    endloop
  endfacet
  facet normal 0.770517 -0.63742 0
    outer loop
      vertex 3.66307 -3.43985 5.5
      vertex 4.06531 -2.95362 1
      vertex 4.06531 -2.95362 5.5
    endloop
  endfacet
  facet normal 0.770517 0.63742 0
    outer loop
      vertex 3.66307 3.43985 1
      vertex 3.66307 3.43985 5.5
      vertex 4.06531 2.95362 5.5
    endloop
  endfacet
  facet normal 0 0 1
    outer loop
      vertex 3.66307 3.43985 1
      vertex 4.06531 2.95362 1
      vertex 4.75652 4.46667 1
    endloop
  endfacet
  facet normal 0.770517 0.63742 0
    outer loop
      vertex 3.66307 3.43985 1
      vertex 4.06531 2.95362 5.5
      vertex 4.06531 2.95362 1
    endloop
  endfacet
  facet normal 0 0 1
    outer loop
      vertex 3.66307 3.43985 1
      vertex 4.75652 4.46667 1
      vertex 4.15919 5.0276 1
    endloop
  endfacet
  facet normal 0.844329 -0.535825 0
    outer loop
      vertex 4.06531 -2.95362 1
      vertex 4.40344 -2.42081 1
      vertex 4.06531 -2.95362 5.5
    endloop
  endfacet
  facet normal 0 0 1
    outer loop
      vertex 4.06531 -2.95362 1
      vertex 4.75652 -4.46667 1
      vertex 5.27884 -3.8353 1
    endloop
  endfacet
  facet normal -0 0 1
    outer loop
      vertex 4.06531 -2.95362 1
      vertex 5.27884 -3.8353 1
      vertex 4.40344 -2.42081 1
    endloop
  endfacet
  facet normal 0.844329 -0.535825 0
    outer loop
      vertex 4.06531 -2.95362 5.5
      vertex 4.40344 -2.42081 1
      vertex 4.40344 -2.42081 5.5
    endloop
  endfacet
  facet normal 0.844329 0.535825 0
    outer loop
      vertex 4.06531 2.95362 1
      vertex 4.06531 2.95362 5.5
      vertex 4.40344 2.42081 5.5
    endloop
  endfacet
  facet normal 0 0 1
    outer loop
      vertex 4.06531 2.95362 1
      vertex 4.40344 2.42081 1
      vertex 5.27884 3.8353 1
    endloop
  endfacet
  facet normal 0.844329 0.535825 0
    outer loop
      vertex 4.06531 2.95362 1
      vertex 4.40344 2.42081 5.5
      vertex 4.40344 2.42081 1
    endloop
  endfacet
  facet normal 0 0 1
    outer loop
      vertex 4.06531 2.95362 1
      vertex 5.27884 3.8353 1
      vertex 4.75652 4.46667 1
    endloop
  endfacet
  facet normal 0.684547 -0.728969 0
    outer loop
      vertex 4.15919 -5.0276 0
      vertex 4.75652 -4.46667 0
      vertex 4.75652 -4.46667 1
    endloop
  endfacet
  facet normal 0.684547 -0.728969 0
    outer loop
      vertex 4.15919 -5.0276 0
      vertex 4.75652 -4.46667 1
      vertex 4.15919 -5.0276 1
    endloop
  endfacet
  facet normal 0.684547 0.728969 0
    outer loop
      vertex 4.15919 5.0276 0
      vertex 4.15919 5.0276 1
      vertex 4.75652 4.46667 0
    endloop
  endfacet
  facet normal 0.684547 0.728969 -0
    outer loop
      vertex 4.15919 5.0276 1
      vertex 4.75652 4.46667 1
      vertex 4.75652 4.46667 0
    endloop
  endfacet
  facet normal 0.904823 -0.425789 0
    outer loop
      vertex 4.40344 -2.42081 1
      vertex 4.67213 -1.84983 1
      vertex 4.40344 -2.42081 5.5
    endloop
  endfacet
  facet normal 0 0 1
    outer loop
      vertex 4.40344 -2.42081 1
      vertex 5.27884 -3.8353 1
      vertex 5.7179 -3.14344 1
    endloop
  endfacet
  facet normal -0 0 1
    outer loop
      vertex 4.40344 -2.42081 1
      vertex 5.7179 -3.14344 1
      vertex 4.67213 -1.84983 1
    endloop
  endfacet
  facet normal 0.904823 -0.425789 0
    outer loop
      vertex 4.40344 -2.42081 5.5
      vertex 4.67213 -1.84983 1
      vertex 4.67213 -1.84983 5.5
    endloop
  endfacet
  facet normal 0.904823 0.425789 0
    outer loop
      vertex 4.40344 2.42081 1
      vertex 4.40344 2.42081 5.5
      vertex 4.67213 1.84983 5.5
    endloop
  endfacet
  facet normal 0 0 1
    outer loop
      vertex 4.40344 2.42081 1
      vertex 4.67213 1.84983 1
      vertex 5.7179 3.14344 1
    endloop
  endfacet
  facet normal 0.904823 0.425789 0
    outer loop
      vertex 4.40344 2.42081 1
      vertex 4.67213 1.84983 5.5
      vertex 4.67213 1.84983 1
    endloop
  endfacet
  facet normal 0 0 1
    outer loop
      vertex 4.40344 2.42081 1
      vertex 5.7179 3.14344 1
      vertex 5.27884 3.8353 1
    endloop
  endfacet
  facet normal 0.951058 -0.309012 0
    outer loop
      vertex 4.67213 -1.84983 1
      vertex 4.86713 -1.24967 1
      vertex 4.67213 -1.84983 5.5
    endloop
  endfacet
  facet normal 0 0 1
    outer loop
      vertex 4.67213 -1.84983 1
      vertex 5.7179 -3.14344 1
      vertex 6.06679 -2.40201 1
    endloop
  endfacet
  facet normal -0 0 1
    outer loop
      vertex 4.67213 -1.84983 1
      vertex 6.06679 -2.40201 1
      vertex 4.86713 -1.24967 1
    endloop
  endfacet
  facet normal 0.951058 -0.309012 0
    outer loop
      vertex 4.67213 -1.84983 5.5
      vertex 4.86713 -1.24967 1
      vertex 4.86713 -1.24967 5.5
    endloop
  endfacet
  facet normal 0.951058 0.309012 0
    outer loop
      vertex 4.67213 1.84983 1
      vertex 4.67213 1.84983 5.5
      vertex 4.86713 1.24967 5.5
    endloop
  endfacet
  facet normal 0 0 1
    outer loop
      vertex 4.67213 1.84983 1
      vertex 4.86713 1.24967 1
      vertex 6.06679 2.40201 1
    endloop
  endfacet
  facet normal 0.951058 0.309012 0
    outer loop
      vertex 4.67213 1.84983 1
      vertex 4.86713 1.24967 5.5
      vertex 4.86713 1.24967 1
    endloop
  endfacet
  facet normal 0 0 1
    outer loop
      vertex 4.67213 1.84983 1
      vertex 6.06679 2.40201 1
      vertex 5.7179 3.14344 1
    endloop
  endfacet
  facet normal 0.77051 -0.637428 0
    outer loop
      vertex 4.75652 -4.46667 0
      vertex 5.27884 -3.8353 0
      vertex 4.75652 -4.46667 1
    endloop
  endfacet
  facet normal 0.77051 -0.637428 0
    outer loop
      vertex 4.75652 -4.46667 1
      vertex 5.27884 -3.8353 0
      vertex 5.27884 -3.8353 1
    endloop
  endfacet
  facet normal 0.77051 0.637428 0
    outer loop
      vertex 4.75652 4.46667 0
      vertex 4.75652 4.46667 1
      vertex 5.27884 3.8353 1
    endloop
  endfacet
  facet normal 0.77051 0.637428 0
    outer loop
      vertex 4.75652 4.46667 0
      vertex 5.27884 3.8353 1
      vertex 5.27884 3.8353 0
    endloop
  endfacet
  facet normal 0.982286 -0.187386 0
    outer loop
      vertex 4.86713 -1.24967 1
      vertex 4.98538 -0.629799 1
      vertex 4.86713 -1.24967 5.5
    endloop
  endfacet
  facet normal 0 0 1
    outer loop
      vertex 4.86713 -1.24967 1
      vertex 6.06679 -2.40201 1
      vertex 6.32 -1.6227 1
    endloop
  endfacet
  facet normal -0 0 1
    outer loop
      vertex 4.86713 -1.24967 1
      vertex 6.32 -1.6227 1
      vertex 4.98538 -0.629799 1
    endloop
  endfacet
  facet normal 0.982286 -0.187386 0
    outer loop
      vertex 4.86713 -1.24967 5.5
      vertex 4.98538 -0.629799 1
      vertex 4.98538 -0.629799 5.5
    endloop
  endfacet
  facet normal 0.982286 0.187386 0
    outer loop
      vertex 4.86713 1.24967 1
      vertex 4.86713 1.24967 5.5
      vertex 4.98538 0.629799 5.5
    endloop
  endfacet
  facet normal 0 0 1
    outer loop
      vertex 4.86713 1.24967 1
      vertex 4.98538 0.629799 1
      vertex 6.32 1.6227 1
    endloop
  endfacet
  facet normal 0.982286 0.187386 0
    outer loop
      vertex 4.86713 1.24967 1
      vertex 4.98538 0.629799 5.5
      vertex 4.98538 0.629799 1
    endloop
  endfacet
  facet normal 0 0 1
    outer loop
      vertex 4.86713 1.24967 1
      vertex 6.32 1.6227 1
      vertex 6.06679 2.40201 1
    endloop
  endfacet
  facet normal 0.998027 -0.0627848 0
    outer loop
      vertex 4.98538 -0.629799 1
      vertex 5.025 0 1
      vertex 4.98538 -0.629799 5.5
    endloop
  endfacet
  facet normal 0 0 1
    outer loop
      vertex 4.98538 -0.629799 1
      vertex 6.32 -1.6227 1
      vertex 6.47355 -0.817799 1
    endloop
  endfacet
  facet normal -0 0 1
    outer loop
      vertex 4.98538 -0.629799 1
      vertex 6.47355 -0.817799 1
      vertex 5.025 0 1
    endloop
  endfacet
  facet normal 0.998027 -0.0627848 0
    outer loop
      vertex 4.98538 -0.629799 5.5
      vertex 5.025 0 1
      vertex 5.025 0 5.5
    endloop
  endfacet
  facet normal 0.998027 0.0627848 0
    outer loop
      vertex 4.98538 0.629799 1
      vertex 4.98538 0.629799 5.5
      vertex 5.025 0 5.5
    endloop
  endfacet
  facet normal 0 0 1
    outer loop
      vertex 4.98538 0.629799 1
      vertex 5.025 0 1
      vertex 6.47355 0.817799 1
    endloop
  endfacet
  facet normal 0.998027 0.0627848 0
    outer loop
      vertex 4.98538 0.629799 1
      vertex 5.025 0 5.5
      vertex 5.025 0 1
    endloop
  endfacet
  facet normal 0 0 1
    outer loop
      vertex 4.98538 0.629799 1
      vertex 6.47355 0.817799 1
      vertex 6.32 1.6227 1
    endloop
  endfacet
  facet normal 0 0 1
    outer loop
      vertex 5.025 0 1
      vertex 6.47355 -0.817799 1
      vertex 6.525 0 1
    endloop
  endfacet
  facet normal 0 0 1
    outer loop
      vertex 5.025 0 1
      vertex 6.525 0 1
      vertex 6.47355 0.817799 1
    endloop
  endfacet
  facet normal 0.844332 -0.53582 0
    outer loop
      vertex 5.27884 -3.8353 0
      vertex 5.7179 -3.14344 0
      vertex 5.27884 -3.8353 1
    endloop
  endfacet
  facet normal 0.844332 -0.53582 0
    outer loop
      vertex 5.27884 -3.8353 1
      vertex 5.7179 -3.14344 0
      vertex 5.7179 -3.14344 1
    endloop
  endfacet
  facet normal 0.844332 0.53582 0
    outer loop
      vertex 5.27884 3.8353 0
      vertex 5.27884 3.8353 1
      vertex 5.7179 3.14344 1
    endloop
  endfacet
  facet normal 0.844332 0.53582 0
    outer loop
      vertex 5.27884 3.8353 0
      vertex 5.7179 3.14344 1
      vertex 5.7179 3.14344 0
    endloop
  endfacet
  facet normal 0.904827 -0.425779 0
    outer loop
      vertex 5.7179 -3.14344 0
      vertex 6.06679 -2.40201 0
      vertex 5.7179 -3.14344 1
    endloop
  endfacet
  facet normal 0.904827 -0.425779 0
    outer loop
      vertex 5.7179 -3.14344 1
      vertex 6.06679 -2.40201 0
      vertex 6.06679 -2.40201 1
    endloop
  endfacet
  facet normal 0.904827 0.425779 0
    outer loop
      vertex 5.7179 3.14344 0
      vertex 5.7179 3.14344 1
      vertex 6.06679 2.40201 1
    endloop
  endfacet
  facet normal 0.904827 0.425779 0
    outer loop
      vertex 5.7179 3.14344 0
      vertex 6.06679 2.40201 1
      vertex 6.06679 2.40201 0
    endloop
  endfacet
  facet normal 0.951058 -0.309013 0
    outer loop
      vertex 6.06679 -2.40201 0
      vertex 6.32 -1.6227 0
      vertex 6.06679 -2.40201 1
    endloop
  endfacet
  facet normal 0.951058 -0.309013 0
    outer loop
      vertex 6.06679 -2.40201 1
      vertex 6.32 -1.6227 0
      vertex 6.32 -1.6227 1
    endloop
  endfacet
  facet normal 0.951058 0.309013 0
    outer loop
      vertex 6.06679 2.40201 0
      vertex 6.06679 2.40201 1
      vertex 6.32 1.6227 1
    endloop
  endfacet
  facet normal 0.951058 0.309013 0
    outer loop
      vertex 6.06679 2.40201 0
      vertex 6.32 1.6227 1
      vertex 6.32 1.6227 0
    endloop
  endfacet
  facet normal 0.982286 -0.187389 0
    outer loop
      vertex 6.32 -1.6227 0
      vertex 6.47355 -0.817799 0
      vertex 6.32 -1.6227 1
    endloop
  endfacet
  facet normal 0.982286 -0.187389 0
    outer loop
      vertex 6.32 -1.6227 1
      vertex 6.47355 -0.817799 0
      vertex 6.47355 -0.817799 1
    endloop
  endfacet
  facet normal 0.982286 0.187389 0
    outer loop
      vertex 6.32 1.6227 0
      vertex 6.32 1.6227 1
      vertex 6.47355 0.817799 1
    endloop
  endfacet
  facet normal 0.982286 0.187389 0
    outer loop
      vertex 6.32 1.6227 0
      vertex 6.47355 0.817799 1
      vertex 6.47355 0.817799 0
    endloop
  endfacet
  facet normal 0.998027 -0.0627886 0
    outer loop
      vertex 6.47355 -0.817799 0
      vertex 6.525 0 0
      vertex 6.47355 -0.817799 1
    endloop
  endfacet
  facet normal 0.998027 -0.0627886 0
    outer loop
      vertex 6.47355 -0.817799 1
      vertex 6.525 0 0
      vertex 6.525 0 1
    endloop
  endfacet
  facet normal 0.998027 0.0627886 0
    outer loop
      vertex 6.47355 0.817799 0
      vertex 6.47355 0.817799 1
      vertex 6.525 0 1
    endloop
  endfacet
  facet normal 0.998027 0.0627886 0
    outer loop
      vertex 6.47355 0.817799 0
      vertex 6.525 0 1
      vertex 6.525 0 0
    endloop
  endfacet
endsolid model
