solid model
  facet normal 0 -1 -0
    outer loop
      vertex -0.494427 -20.3033 -19.5
      vertex 0.494427 -20.3033 -19.5
      vertex 0.494427 -20.3033 0
    endloop
  endfacet
  facet normal 0 -1 0
    outer loop
      vertex -0.494427 -20.3033 -19.5
      vertex 0.494427 -20.3033 0
      vertex -0.494427 -20.3033 0
    endloop
  endfacet
  facet normal 0 0 -1
    outer loop
      vertex -0.494427 -20.3033 -19.5
      vertex 1.65 -18.9671 -19.5
      vertex 0.494427 -20.3033 -19.5
    endloop
  endfacet
  facet normal 0 1 0
    outer loop
      vertex -0.494427 -23.3467 -19.5
      vertex -0.494427 -23.3467 0
      vertex 0.494427 -23.3467 -19.5
    endloop
  endfacet
  facet normal 0 0 -1
    outer loop
      vertex -0.494427 -23.3467 -19.5
      vertex 0.494427 -23.3467 -19.5
      vertex 1.65 -24.6829 -19.5
    endloop
  endfacet
  facet normal 0 1 -0
    outer loop
      vertex -0.494427 -23.3467 0
      vertex 0.494427 -23.3467 0
      vertex 0.494427 -23.3467 -19.5
    endloop
  endfacet
  facet normal 0.587761 -0.809034 0
    outer loop
      vertex -1.29443 -20.8845 -19.5
      vertex -0.494427 -20.3033 -19.5
      vertex -0.494427 -20.3033 0
    endloop
  endfacet
  facet normal 0.587761 -0.809034 0
    outer loop
      vertex -1.29443 -20.8845 -19.5
      vertex -0.494427 -20.3033 0
      vertex -1.29443 -20.8845 0
    endloop
  endfacet
  facet normal 0.587761 0.809034 0
    outer loop
      vertex -1.29443 -22.7655 -19.5
      vertex -1.29443 -22.7655 0
      vertex -0.494427 -23.3467 -19.5
    endloop
  endfacet
  facet normal 0.587761 0.809034 -0
    outer loop
      vertex -1.29443 -22.7655 0
      vertex -0.494427 -23.3467 0
      vertex -0.494427 -23.3467 -19.5
    endloop
  endfacet
  facet normal 0.951062 -0.309001 0
    outer loop
      vertex -1.6 -21.825 -19.5
      vertex -1.29443 -20.8845 -19.5
      vertex -1.6 -21.825 0
    endloop
  endfacet
  facet normal 0.951062 0.309001 0
    outer loop
      vertex -1.6 -21.825 -19.5
      vertex -1.29443 -22.7655 0
      vertex -1.29443 -22.7655 -19.5
    endloop
  endfacet
  facet normal 0.951062 0.309001 0
    outer loop
      vertex -1.6 -21.825 -19.5
      vertex -1.6 -21.825 0
      vertex -1.29443 -22.7655 0
    endloop
  endfacet
  facet normal 0.951062 -0.309001 0
    outer loop
      vertex -1.6 -21.825 0
      vertex -1.29443 -20.8845 -19.5
      vertex -1.29443 -20.8845 0
    endloop
  endfacet
  facet normal 0 0 -1
    outer loop
      vertex -1.65 -18.9671 -19.5
      vertex -0.494427 -20.3033 -19.5
      vertex -1.29443 -20.8845 -19.5
    endloop
  endfacet
  facet normal 0 0 -1
    outer loop
      vertex -1.65 -18.9671 -19.5
      vertex 1.65 -18.9671 -19.5
      vertex -0.494427 -20.3033 -19.5
    endloop
  endfacet
  facet normal 0 -1 0
    outer loop
      vertex -1.65 -18.9671 -22
      vertex 1.65 -18.9671 -19.5
      vertex -1.65 -18.9671 -19.5
    endloop
  endfacet
  facet normal 0 -1 -0
    outer loop
      vertex -1.65 -18.9671 -22
      vertex 1.65 -18.9671 -22
      vertex 1.65 -18.9671 -19.5
    endloop
  endfacet
  facet normal 0 0 -1
    outer loop
      vertex -1.65 -24.6829 -19.5
      vertex -0.494427 -23.3467 -19.5
      vertex 1.65 -24.6829 -19.5
    endloop
  endfacet
  facet normal -0 0 -1
    outer loop
      vertex -1.65 -24.6829 -19.5
      vertex -1.29443 -22.7655 -19.5
      vertex -0.494427 -23.3467 -19.5
    endloop
  endfacet
  facet normal 0 1 -0
    outer loop
      vertex -1.65 -24.6829 -19.5
      vertex 1.65 -24.6829 -19.5
      vertex 1.65 -24.6829 -22
    endloop
  endfacet
  facet normal 0 1 0
    outer loop
      vertex -1.65 -24.6829 -22
      vertex -1.65 -24.6829 -19.5
      vertex 1.65 -24.6829 -22
    endloop
  endfacet
  facet normal -0 0 -1
    outer loop
      vertex -10 -53.65 -22
      vertex -1.65 -24.6829 -22
      vertex 1.65 -24.6829 -22
    endloop
  endfacet
  facet normal -1 -0 0
    outer loop
      vertex -10 -53.65 -22
      vertex -10 -53.65 0
      vertex -10 10 0
    endloop
  endfacet
  facet normal 0 0 -1
    outer loop
      vertex -10 -53.65 -22
      vertex -10 10 -22
      vertex -3.3 -21.825 -22
    endloop
  endfacet
  facet normal -1 0 0
    outer loop
      vertex -10 -53.65 -22
      vertex -10 10 0
      vertex -10 10 -22
    endloop
  endfacet
  facet normal -0 0 -1
    outer loop
      vertex -10 -53.65 -22
      vertex -3.3 -21.825 -22
      vertex -1.65 -24.6829 -22
    endloop
  endfacet
  facet normal -0 0 -1
    outer loop
      vertex -10 -53.65 -22
      vertex 1.65 -24.6829 -22
      vertex 38.35 -24.6829 -22
    endloop
  endfacet
  facet normal 0 -1 -0
    outer loop
      vertex -10 -53.65 -22
      vertex 209.4 -53.65 -22
      vertex 209.4 -53.65 0
    endloop
  endfacet
  facet normal 0 -1 0
    outer loop
      vertex -10 -53.65 -22
      vertex 209.4 -53.65 0
      vertex -10 -53.65 0
    endloop
  endfacet
  facet normal 0 0 -1
    outer loop
      vertex -10 -53.65 -22
      vertex 38.35 -24.6829 -22
      vertex 54 -43.65 -22
    endloop
  endfacet
  facet normal 0 0 -1
    outer loop
      vertex -10 -53.65 -22
      vertex 54 -43.65 -22
      vertex 209.4 -53.65 -22
    endloop
  endfacet
  facet normal 0 0 1
    outer loop
      vertex -10 -53.65 0
      vertex -0.494427 -23.3467 0
      vertex -1.29443 -22.7655 0
    endloop
  endfacet
  facet normal 0 0 1
    outer loop
      vertex -10 -53.65 0
      vertex -1.29443 -22.7655 0
      vertex -1.6 -21.825 0
    endloop
  endfacet
  facet normal 0 0 1
    outer loop
      vertex -10 -53.65 0
      vertex -1.6 -21.825 0
      vertex -10 10 0
    endloop
  endfacet
  facet normal 0 0 1
    outer loop
      vertex -10 -53.65 0
      vertex 0.494427 -23.3467 0
      vertex -0.494427 -23.3467 0
    endloop
  endfacet
  facet normal 0 0 1
    outer loop
      vertex -10 -53.65 0
      vertex 1.29443 -22.7655 0
      vertex 0.494427 -23.3467 0
    endloop
  endfacet
  facet normal 0 0 1
    outer loop
      vertex -10 -53.65 0
      vertex 209.4 -53.65 0
      vertex 41.0198 -24.9635 0
    endloop
  endfacet
  facet normal 0 0 1
    outer loop
      vertex -10 -53.65 0
      vertex 37.3302 -23.7647 0
      vertex 1.29443 -22.7655 0
    endloop
  endfacet
  facet normal 0 0 1
    outer loop
      vertex -10 -53.65 0
      vertex 38.9802 -24.9635 0
      vertex 37.3302 -23.7647 0
    endloop
  endfacet
  facet normal 0 0 1
    outer loop
      vertex -10 -53.65 0
      vertex 41.0198 -24.9635 0
      vertex 38.9802 -24.9635 0
    endloop
  endfacet
  facet normal 0 0 -1
    outer loop
      vertex -10 10 -22
      vertex -1.65 -18.9671 -22
      vertex -3.3 -21.825 -22
    endloop
  endfacet
  facet normal 0 1 0
    outer loop
      vertex -10 10 -22
      vertex -10 10 0
      vertex 209.4 10 -22
    endloop
  endfacet
  facet normal 0 0 -1
    outer loop
      vertex -10 10 -22
      vertex 1.65 -18.9671 -22
      vertex -1.65 -18.9671 -22
    endloop
  endfacet
  facet normal 0 0 -1
    outer loop
      vertex -10 10 -22
      vertex 209.4 10 -22
      vertex 54 0 -22
    endloop
  endfacet
  facet normal 0 0 -1
    outer loop
      vertex -10 10 -22
      vertex 38.35 -18.9671 -22
      vertex 1.65 -18.9671 -22
    endloop
  endfacet
  facet normal 0 0 -1
    outer loop
      vertex -10 10 -22
      vertex 54 0 -22
      vertex 38.35 -18.9671 -22
    endloop
  endfacet
  facet normal 0 0 1
    outer loop
      vertex -10 10 0
      vertex -0.494427 -20.3033 0
      vertex 0.494427 -20.3033 0
    endloop
  endfacet
  facet normal 0 0 1
    outer loop
      vertex -10 10 0
      vertex -1.29443 -20.8845 0
      vertex -0.494427 -20.3033 0
    endloop
  endfacet
  facet normal 0 0 1
    outer loop
      vertex -10 10 0
      vertex -1.6 -21.825 0
      vertex -1.29443 -20.8845 0
    endloop
  endfacet
  facet normal 0 0 1
    outer loop
      vertex -10 10 0
      vertex 0.494427 -20.3033 0
      vertex 1.29443 -20.8845 0
    endloop
  endfacet
  facet normal 0 0 1
    outer loop
      vertex -10 10 0
      vertex 1.29443 -20.8845 0
      vertex 37.3302 -19.8853 0
    endloop
  endfacet
  facet normal 0 1 -0
    outer loop
      vertex -10 10 0
      vertex 209.4 10 0
      vertex 209.4 10 -22
    endloop
  endfacet
  facet normal 0 0 1
    outer loop
      vertex -10 10 0
      vertex 37.3302 -19.8853 0
      vertex 38.9802 -18.6865 0
    endloop
  endfacet
  facet normal 0 0 1
    outer loop
      vertex -10 10 0
      vertex 38.9802 -18.6865 0
      vertex 41.0198 -18.6865 0
    endloop
  endfacet
  facet normal -0 0 1
    outer loop
      vertex -10 10 0
      vertex 41.0198 -18.6865 0
      vertex 209.4 10 0
    endloop
  endfacet
  facet normal 0 0 -1
    outer loop
      vertex -3.3 -21.825 -19.5
      vertex -1.29443 -20.8845 -19.5
      vertex -1.6 -21.825 -19.5
    endloop
  endfacet
  facet normal 0 0 -1
    outer loop
      vertex -3.3 -21.825 -19.5
      vertex -1.29443 -22.7655 -19.5
      vertex -1.65 -24.6829 -19.5
    endloop
  endfacet
  facet normal 0 0 -1
    outer loop
      vertex -3.3 -21.825 -19.5
      vertex -1.6 -21.825 -19.5
      vertex -1.29443 -22.7655 -19.5
    endloop
  endfacet
  facet normal -0 0 -1
    outer loop
      vertex -3.3 -21.825 -19.5
      vertex -1.65 -18.9671 -19.5
      vertex -1.29443 -20.8845 -19.5
    endloop
  endfacet
  facet normal 0.866027 -0.499998 0
    outer loop
      vertex -3.3 -21.825 -19.5
      vertex -1.65 -18.9671 -22
      vertex -1.65 -18.9671 -19.5
    endloop
  endfacet
  facet normal 0.866027 -0.499998 0
    outer loop
      vertex -3.3 -21.825 -22
      vertex -1.65 -18.9671 -22
      vertex -3.3 -21.825 -19.5
    endloop
  endfacet
  facet normal 0.866027 0.499998 0
    outer loop
      vertex -3.3 -21.825 -22
      vertex -1.65 -24.6829 -19.5
      vertex -1.65 -24.6829 -22
    endloop
  endfacet
  facet normal 0.866027 0.499998 0
    outer loop
      vertex -3.3 -21.825 -22
      vertex -3.3 -21.825 -19.5
      vertex -1.65 -24.6829 -19.5
    endloop
  endfacet
  facet normal -0.587761 -0.809034 -0
    outer loop
      vertex 0.494427 -20.3033 -19.5
      vertex 1.29443 -20.8845 -19.5
      vertex 1.29443 -20.8845 0
    endloop
  endfacet
  facet normal -0.587761 -0.809034 0
    outer loop
      vertex 0.494427 -20.3033 -19.5
      vertex 1.29443 -20.8845 0
      vertex 0.494427 -20.3033 0
    endloop
  endfacet
  facet normal 0 0 -1
    outer loop
      vertex 0.494427 -20.3033 -19.5
      vertex 1.65 -18.9671 -19.5
      vertex 1.29443 -20.8845 -19.5
    endloop
  endfacet
  facet normal -0.587761 0.809034 0
    outer loop
      vertex 0.494427 -23.3467 -19.5
      vertex 0.494427 -23.3467 0
      vertex 1.29443 -22.7655 -19.5
    endloop
  endfacet
  facet normal 0 0 -1
    outer loop
      vertex 0.494427 -23.3467 -19.5
      vertex 1.29443 -22.7655 -19.5
      vertex 1.65 -24.6829 -19.5
    endloop
  endfacet
  facet normal -0.587761 0.809034 0
    outer loop
      vertex 0.494427 -23.3467 0
      vertex 1.29443 -22.7655 0
      vertex 1.29443 -22.7655 -19.5
    endloop
  endfacet
  facet normal -0.951062 -0.309001 0
    outer loop
      vertex 1.29443 -20.8845 -19.5
      vertex 1.6 -21.825 -19.5
      vertex 1.29443 -20.8845 0
    endloop
  endfacet
  facet normal 0 0 -1
    outer loop
      vertex 1.29443 -20.8845 -19.5
      vertex 1.65 -18.9671 -19.5
      vertex 3.3 -21.825 -19.5
    endloop
  endfacet
  facet normal 0 0 -1
    outer loop
      vertex 1.29443 -20.8845 -19.5
      vertex 3.3 -21.825 -19.5
      vertex 1.6 -21.825 -19.5
    endloop
  endfacet
  facet normal -0.951062 -0.309001 0
    outer loop
      vertex 1.29443 -20.8845 0
      vertex 1.6 -21.825 -19.5
      vertex 1.6 -21.825 0
    endloop
  endfacet
  facet normal 0 0 1
    outer loop
      vertex 1.29443 -20.8845 0
      vertex 1.6 -21.825 0
      vertex 36.7 -21.825 0
    endloop
  endfacet
  facet normal -0 0 1
    outer loop
      vertex 1.29443 -20.8845 0
      vertex 36.7 -21.825 0
      vertex 37.3302 -19.8853 0
    endloop
  endfacet
  facet normal -0.951062 0.309001 0
    outer loop
      vertex 1.29443 -22.7655 -19.5
      vertex 1.29443 -22.7655 0
      vertex 1.6 -21.825 0
    endloop
  endfacet
  facet normal -0 0 -1
    outer loop
      vertex 1.29443 -22.7655 -19.5
      vertex 1.6 -21.825 -19.5
      vertex 3.3 -21.825 -19.5
    endloop
  endfacet
  facet normal -0.951062 0.309001 0
    outer loop
      vertex 1.29443 -22.7655 -19.5
      vertex 1.6 -21.825 0
      vertex 1.6 -21.825 -19.5
    endloop
  endfacet
  facet normal 0 0 -1
    outer loop
      vertex 1.29443 -22.7655 -19.5
      vertex 3.3 -21.825 -19.5
      vertex 1.65 -24.6829 -19.5
    endloop
  endfacet
  facet normal 0 0 1
    outer loop
      vertex 1.29443 -22.7655 0
      vertex 36.7 -21.825 0
      vertex 1.6 -21.825 0
    endloop
  endfacet
  facet normal 0 0 1
    outer loop
      vertex 1.29443 -22.7655 0
      vertex 37.3302 -23.7647 0
      vertex 36.7 -21.825 0
    endloop
  endfacet
  facet normal -0.866027 -0.499998 0
    outer loop
      vertex 1.65 -18.9671 -19.5
      vertex 3.3 -21.825 -22
      vertex 3.3 -21.825 -19.5
    endloop
  endfacet
  facet normal -0.866027 -0.499998 0
    outer loop
      vertex 1.65 -18.9671 -22
      vertex 3.3 -21.825 -22
      vertex 1.65 -18.9671 -19.5
    endloop
  endfacet
  facet normal 0 0 -1
    outer loop
      vertex 1.65 -18.9671 -22
      vertex 38.35 -18.9671 -22
      vertex 3.3 -21.825 -22
    endloop
  endfacet
  facet normal -0.866027 0.499998 0
    outer loop
      vertex 1.65 -24.6829 -22
      vertex 1.65 -24.6829 -19.5
      vertex 3.3 -21.825 -19.5
    endloop
  endfacet
  facet normal -0.866027 0.499998 0
    outer loop
      vertex 1.65 -24.6829 -22
      vertex 3.3 -21.825 -19.5
      vertex 3.3 -21.825 -22
    endloop
  endfacet
  facet normal 0 0 -1
    outer loop
      vertex 1.65 -24.6829 -22
      vertex 3.3 -21.825 -22
      vertex 38.35 -24.6829 -22
    endloop
  endfacet
  facet normal -0 0 -1
    outer loop
      vertex 154.1 -21.825 -13.5
      vertex 155.75 -18.9671 -13.5
      vertex 156.106 -20.8845 -13.5
    endloop
  endfacet
  facet normal 0.866027 -0.499998 0
    outer loop
      vertex 154.1 -21.825 -13.5
      vertex 155.75 -18.9671 -17
      vertex 155.75 -18.9671 -13.5
    endloop
  endfacet
  facet normal 0 0 -1
    outer loop
      vertex 154.1 -21.825 -13.5
      vertex 155.8 -21.825 -13.5
      vertex 156.106 -22.7655 -13.5
    endloop
  endfacet
  facet normal 0 0 -1
    outer loop
      vertex 154.1 -21.825 -13.5
      vertex 156.106 -20.8845 -13.5
      vertex 155.8 -21.825 -13.5
    endloop
  endfacet
  facet normal 0 0 -1
    outer loop
      vertex 154.1 -21.825 -13.5
      vertex 156.106 -22.7655 -13.5
      vertex 155.75 -24.6829 -13.5
    endloop
  endfacet
  facet normal 0.866027 0.499998 0
    outer loop
      vertex 154.1 -21.825 -17
      vertex 154.1 -21.825 -13.5
      vertex 155.75 -24.6829 -13.5
    endloop
  endfacet
  facet normal 0.866027 -0.499998 0
    outer loop
      vertex 154.1 -21.825 -17
      vertex 155.75 -18.9671 -17
      vertex 154.1 -21.825 -13.5
    endloop
  endfacet
  facet normal 0.866027 0.499998 0
    outer loop
      vertex 154.1 -21.825 -17
      vertex 155.75 -24.6829 -13.5
      vertex 155.75 -24.6829 -17
    endloop
  endfacet
  facet normal 0 0 -1
    outer loop
      vertex 155.75 -18.9671 -13.5
      vertex 156.906 -20.3033 -13.5
      vertex 156.106 -20.8845 -13.5
    endloop
  endfacet
  facet normal 0 0 -1
    outer loop
      vertex 155.75 -18.9671 -13.5
      vertex 159.05 -18.9671 -13.5
      vertex 156.906 -20.3033 -13.5
    endloop
  endfacet
  facet normal 0 -1 0
    outer loop
      vertex 155.75 -18.9671 -17
      vertex 159.05 -18.9671 -13.5
      vertex 155.75 -18.9671 -13.5
    endloop
  endfacet
  facet normal 0 -1 -0
    outer loop
      vertex 155.75 -18.9671 -17
      vertex 159.05 -18.9671 -17
      vertex 159.05 -18.9671 -13.5
    endloop
  endfacet
  facet normal 0 0 -1
    outer loop
      vertex 155.75 -18.9671 -17
      vertex 183.4 0 -17
      vertex 159.05 -18.9671 -17
    endloop
  endfacet
  facet normal -0 0 -1
    outer loop
      vertex 155.75 -24.6829 -13.5
      vertex 156.106 -22.7655 -13.5
      vertex 156.906 -23.3467 -13.5
    endloop
  endfacet
  facet normal 0 0 -1
    outer loop
      vertex 155.75 -24.6829 -13.5
      vertex 156.906 -23.3467 -13.5
      vertex 159.05 -24.6829 -13.5
    endloop
  endfacet
  facet normal 0 1 -0
    outer loop
      vertex 155.75 -24.6829 -13.5
      vertex 159.05 -24.6829 -13.5
      vertex 159.05 -24.6829 -17
    endloop
  endfacet
  facet normal 0 1 0
    outer loop
      vertex 155.75 -24.6829 -17
      vertex 155.75 -24.6829 -13.5
      vertex 159.05 -24.6829 -17
    endloop
  endfacet
  facet normal 0 0 -1
    outer loop
      vertex 155.75 -24.6829 -17
      vertex 159.05 -24.6829 -17
      vertex 183.4 -43.65 -17
    endloop
  endfacet
  facet normal 0.950934 0.309395 0
    outer loop
      vertex 155.8 -21.825 -13.5
      vertex 155.8 -21.825 0
      vertex 156.106 -22.7655 0
    endloop
  endfacet
  facet normal 0.950934 -0.309395 0
    outer loop
      vertex 155.8 -21.825 -13.5
      vertex 156.106 -20.8845 -13.5
      vertex 155.8 -21.825 0
    endloop
  endfacet
  facet normal 0.950934 0.309395 0
    outer loop
      vertex 155.8 -21.825 -13.5
      vertex 156.106 -22.7655 0
      vertex 156.106 -22.7655 -13.5
    endloop
  endfacet
  facet normal 0.950934 -0.309395 0
    outer loop
      vertex 155.8 -21.825 0
      vertex 156.106 -20.8845 -13.5
      vertex 156.106 -20.8845 0
    endloop
  endfacet
  facet normal 0.587763 -0.809033 0
    outer loop
      vertex 156.106 -20.8845 -13.5
      vertex 156.906 -20.3033 -13.5
      vertex 156.906 -20.3033 0
    endloop
  endfacet
  facet normal 0.587763 -0.809033 0
    outer loop
      vertex 156.106 -20.8845 -13.5
      vertex 156.906 -20.3033 0
      vertex 156.106 -20.8845 0
    endloop
  endfacet
  facet normal 0.587763 0.809033 0
    outer loop
      vertex 156.106 -22.7655 -13.5
      vertex 156.106 -22.7655 0
      vertex 156.906 -23.3467 -13.5
    endloop
  endfacet
  facet normal 0.587763 0.809033 -0
    outer loop
      vertex 156.106 -22.7655 0
      vertex 156.906 -23.3467 0
      vertex 156.906 -23.3467 -13.5
    endloop
  endfacet
  facet normal 0 -1 -0
    outer loop
      vertex 156.906 -20.3033 -13.5
      vertex 157.894 -20.3033 -13.5
      vertex 157.894 -20.3033 0
    endloop
  endfacet
  facet normal 0 -1 0
    outer loop
      vertex 156.906 -20.3033 -13.5
      vertex 157.894 -20.3033 0
      vertex 156.906 -20.3033 0
    endloop
  endfacet
  facet normal 0 0 -1
    outer loop
      vertex 156.906 -20.3033 -13.5
      vertex 159.05 -18.9671 -13.5
      vertex 157.894 -20.3033 -13.5
    endloop
  endfacet
  facet normal 0 0 1
    outer loop
      vertex 156.906 -20.3033 0
      vertex 157.894 -20.3033 0
      vertex 209.4 10 0
    endloop
  endfacet
  facet normal 0 1 0
    outer loop
      vertex 156.906 -23.3467 -13.5
      vertex 156.906 -23.3467 0
      vertex 157.894 -23.3467 -13.5
    endloop
  endfacet
  facet normal 0 0 -1
    outer loop
      vertex 156.906 -23.3467 -13.5
      vertex 157.894 -23.3467 -13.5
      vertex 159.05 -24.6829 -13.5
    endloop
  endfacet
  facet normal 0 1 -0
    outer loop
      vertex 156.906 -23.3467 0
      vertex 157.894 -23.3467 0
      vertex 157.894 -23.3467 -13.5
    endloop
  endfacet
  facet normal -0 0 1
    outer loop
      vertex 156.906 -23.3467 0
      vertex 209.4 -53.65 0
      vertex 157.894 -23.3467 0
    endloop
  endfacet
  facet normal -0.587763 -0.809033 -0
    outer loop
      vertex 157.894 -20.3033 -13.5
      vertex 158.694 -20.8845 -13.5
      vertex 158.694 -20.8845 0
    endloop
  endfacet
  facet normal -0.587763 -0.809033 0
    outer loop
      vertex 157.894 -20.3033 -13.5
      vertex 158.694 -20.8845 0
      vertex 157.894 -20.3033 0
    endloop
  endfacet
  facet normal 0 0 -1
    outer loop
      vertex 157.894 -20.3033 -13.5
      vertex 159.05 -18.9671 -13.5
      vertex 158.694 -20.8845 -13.5
    endloop
  endfacet
  facet normal 0 0 1
    outer loop
      vertex 157.894 -20.3033 0
      vertex 158.694 -20.8845 0
      vertex 194.73 -19.8853 0
    endloop
  endfacet
  facet normal 0 0 1
    outer loop
      vertex 157.894 -20.3033 0
      vertex 194.73 -19.8853 0
      vertex 209.4 10 0
    endloop
  endfacet
  facet normal -0.587763 0.809033 0
    outer loop
      vertex 157.894 -23.3467 -13.5
      vertex 157.894 -23.3467 0
      vertex 158.694 -22.7655 -13.5
    endloop
  endfacet
  facet normal 0 0 -1
    outer loop
      vertex 157.894 -23.3467 -13.5
      vertex 158.694 -22.7655 -13.5
      vertex 159.05 -24.6829 -13.5
    endloop
  endfacet
  facet normal -0.587763 0.809033 0
    outer loop
      vertex 157.894 -23.3467 0
      vertex 158.694 -22.7655 0
      vertex 158.694 -22.7655 -13.5
    endloop
  endfacet
  facet normal -0 0 1
    outer loop
      vertex 157.894 -23.3467 0
      vertex 194.73 -23.7647 0
      vertex 158.694 -22.7655 0
    endloop
  endfacet
  facet normal 0 0 1
    outer loop
      vertex 157.894 -23.3467 0
      vertex 209.4 -53.65 0
      vertex 194.73 -23.7647 0
    endloop
  endfacet
  facet normal -0.950934 -0.309395 0
    outer loop
      vertex 158.694 -20.8845 -13.5
      vertex 159 -21.825 -13.5
      vertex 158.694 -20.8845 0
    endloop
  endfacet
  facet normal 0 0 -1
    outer loop
      vertex 158.694 -20.8845 -13.5
      vertex 159.05 -18.9671 -13.5
      vertex 160.7 -21.825 -13.5
    endloop
  endfacet
  facet normal 0 0 -1
    outer loop
      vertex 158.694 -20.8845 -13.5
      vertex 160.7 -21.825 -13.5
      vertex 159 -21.825 -13.5
    endloop
  endfacet
  facet normal -0.950934 -0.309395 0
    outer loop
      vertex 158.694 -20.8845 0
      vertex 159 -21.825 -13.5
      vertex 159 -21.825 0
    endloop
  endfacet
  facet normal 0 0 1
    outer loop
      vertex 158.694 -20.8845 0
      vertex 159 -21.825 0
      vertex 194.1 -21.825 0
    endloop
  endfacet
  facet normal -0 0 1
    outer loop
      vertex 158.694 -20.8845 0
      vertex 194.1 -21.825 0
      vertex 194.73 -19.8853 0
    endloop
  endfacet
  facet normal -0.950934 0.309395 0
    outer loop
      vertex 158.694 -22.7655 -13.5
      vertex 158.694 -22.7655 0
      vertex 159 -21.825 0
    endloop
  endfacet
  facet normal -0 0 -1
    outer loop
      vertex 158.694 -22.7655 -13.5
      vertex 159 -21.825 -13.5
      vertex 160.7 -21.825 -13.5
    endloop
  endfacet
  facet normal -0.950934 0.309395 0
    outer loop
      vertex 158.694 -22.7655 -13.5
      vertex 159 -21.825 0
      vertex 159 -21.825 -13.5
    endloop
  endfacet
  facet normal 0 0 -1
    outer loop
      vertex 158.694 -22.7655 -13.5
      vertex 160.7 -21.825 -13.5
      vertex 159.05 -24.6829 -13.5
    endloop
  endfacet
  facet normal 0 0 1
    outer loop
      vertex 158.694 -22.7655 0
      vertex 194.1 -21.825 0
      vertex 159 -21.825 0
    endloop
  endfacet
  facet normal 0 0 1
    outer loop
      vertex 158.694 -22.7655 0
      vertex 194.73 -23.7647 0
      vertex 194.1 -21.825 0
    endloop
  endfacet
  facet normal -0.866027 -0.499998 0
    outer loop
      vertex 159.05 -18.9671 -13.5
      vertex 160.7 -21.825 -17
      vertex 160.7 -21.825 -13.5
    endloop
  endfacet
  facet normal -0.866027 -0.499998 0
    outer loop
      vertex 159.05 -18.9671 -17
      vertex 160.7 -21.825 -17
      vertex 159.05 -18.9671 -13.5
    endloop
  endfacet
  facet normal 0 0 -1
    outer loop
      vertex 159.05 -18.9671 -17
      vertex 183.4 0 -17
      vertex 160.7 -21.825 -17
    endloop
  endfacet
  facet normal -0.866027 0.499998 0
    outer loop
      vertex 159.05 -24.6829 -17
      vertex 159.05 -24.6829 -13.5
      vertex 160.7 -21.825 -13.5
    endloop
  endfacet
  facet normal -0.866027 0.499998 0
    outer loop
      vertex 159.05 -24.6829 -17
      vertex 160.7 -21.825 -13.5
      vertex 160.7 -21.825 -17
    endloop
  endfacet
  facet normal 0 0 -1
    outer loop
      vertex 159.05 -24.6829 -17
      vertex 160.7 -21.825 -17
      vertex 183.4 -43.65 -17
    endloop
  endfacet
  facet normal 0 0 -1
    outer loop
      vertex 160.7 -21.825 -17
      vertex 183.4 0 -17
      vertex 183.4 -43.65 -17
    endloop
  endfacet
  facet normal -1 -0 0
    outer loop
      vertex 183.4 -43.65 -22
      vertex 183.4 -43.65 -17
      vertex 183.4 0 -17
    endloop
  endfacet
  facet normal -1 0 0
    outer loop
      vertex 183.4 -43.65 -22
      vertex 183.4 0 -17
      vertex 183.4 0 -22
    endloop
  endfacet
  facet normal 0 0 -1
    outer loop
      vertex 183.4 -43.65 -22
      vertex 183.4 0 -22
      vertex 194.1 -21.825 -22
    endloop
  endfacet
  facet normal -0 0 -1
    outer loop
      vertex 183.4 -43.65 -22
      vertex 194.1 -21.825 -22
      vertex 195.75 -24.6829 -22
    endloop
  endfacet
  facet normal -0 0 -1
    outer loop
      vertex 183.4 -43.65 -22
      vertex 195.75 -24.6829 -22
      vertex 199.05 -24.6829 -22
    endloop
  endfacet
  facet normal 0 0 -1
    outer loop
      vertex 183.4 -43.65 -22
      vertex 199.05 -24.6829 -22
      vertex 209.4 -53.65 -22
    endloop
  endfacet
  facet normal 0 0 -1
    outer loop
      vertex 183.4 0 -22
      vertex 195.75 -18.9671 -22
      vertex 194.1 -21.825 -22
    endloop
  endfacet
  facet normal 0 0 -1
    outer loop
      vertex 183.4 0 -22
      vertex 199.05 -18.9671 -22
      vertex 195.75 -18.9671 -22
    endloop
  endfacet
  facet normal 0 0 -1
    outer loop
      vertex 183.4 0 -22
      vertex 209.4 10 -22
      vertex 199.05 -18.9671 -22
    endloop
  endfacet
  facet normal 0.951092 0.308908 0
    outer loop
      vertex 194.1 -21.825 -1.5
      vertex 194.1 -21.825 0
      vertex 194.73 -23.7647 0
    endloop
  endfacet
  facet normal 0.951092 -0.308908 0
    outer loop
      vertex 194.1 -21.825 -1.5
      vertex 194.73 -19.8853 -1.5
      vertex 194.1 -21.825 0
    endloop
  endfacet
  facet normal 0 0 1
    outer loop
      vertex 194.1 -21.825 -1.5
      vertex 194.73 -23.7647 -1.5
      vertex 195.8 -21.825 -1.5
    endloop
  endfacet
  facet normal 0.951092 0.308908 0
    outer loop
      vertex 194.1 -21.825 -1.5
      vertex 194.73 -23.7647 0
      vertex 194.73 -23.7647 -1.5
    endloop
  endfacet
  facet normal 0 0 1
    outer loop
      vertex 194.1 -21.825 -1.5
      vertex 195.8 -21.825 -1.5
      vertex 194.73 -19.8853 -1.5
    endloop
  endfacet
  facet normal -0 0 -1
    outer loop
      vertex 194.1 -21.825 -19.5
      vertex 195.75 -18.9671 -19.5
      vertex 196.106 -20.8845 -19.5
    endloop
  endfacet
  facet normal 0.866027 -0.499998 0
    outer loop
      vertex 194.1 -21.825 -19.5
      vertex 195.75 -18.9671 -22
      vertex 195.75 -18.9671 -19.5
    endloop
  endfacet
  facet normal 0 0 -1
    outer loop
      vertex 194.1 -21.825 -19.5
      vertex 195.8 -21.825 -19.5
      vertex 196.106 -22.7655 -19.5
    endloop
  endfacet
  facet normal 0 0 -1
    outer loop
      vertex 194.1 -21.825 -19.5
      vertex 196.106 -20.8845 -19.5
      vertex 195.8 -21.825 -19.5
    endloop
  endfacet
  facet normal 0 0 -1
    outer loop
      vertex 194.1 -21.825 -19.5
      vertex 196.106 -22.7655 -19.5
      vertex 195.75 -24.6829 -19.5
    endloop
  endfacet
  facet normal 0.866027 0.499998 0
    outer loop
      vertex 194.1 -21.825 -22
      vertex 194.1 -21.825 -19.5
      vertex 195.75 -24.6829 -19.5
    endloop
  endfacet
  facet normal 0.866027 -0.499998 0
    outer loop
      vertex 194.1 -21.825 -22
      vertex 195.75 -18.9671 -22
      vertex 194.1 -21.825 -19.5
    endloop
  endfacet
  facet normal 0.866027 0.499998 0
    outer loop
      vertex 194.1 -21.825 -22
      vertex 195.75 -24.6829 -19.5
      vertex 195.75 -24.6829 -22
    endloop
  endfacet
  facet normal 0.951092 -0.308908 0
    outer loop
      vertex 194.1 -21.825 0
      vertex 194.73 -19.8853 -1.5
      vertex 194.73 -19.8853 0
    endloop
  endfacet
  facet normal 0 0 1
    outer loop
      vertex 194.73 -19.8853 -1.5
      vertex 195.8 -21.825 -1.5
      vertex 196.106 -20.8845 -1.5
    endloop
  endfacet
  facet normal -0 0 1
    outer loop
      vertex 194.73 -19.8853 -1.5
      vertex 196.106 -20.8845 -1.5
      vertex 196.38 -18.6865 -1.5
    endloop
  endfacet
  facet normal 0.587787 -0.809016 0
    outer loop
      vertex 194.73 -19.8853 -1.5
      vertex 196.38 -18.6865 -1.5
      vertex 196.38 -18.6865 0
    endloop
  endfacet
  facet normal 0.587787 -0.809016 0
    outer loop
      vertex 194.73 -19.8853 -1.5
      vertex 196.38 -18.6865 0
      vertex 194.73 -19.8853 0
    endloop
  endfacet
  facet normal 0 0 1
    outer loop
      vertex 194.73 -19.8853 0
      vertex 196.38 -18.6865 0
      vertex 209.4 10 0
    endloop
  endfacet
  facet normal 0.587787 0.809016 0
    outer loop
      vertex 194.73 -23.7647 -1.5
      vertex 194.73 -23.7647 0
      vertex 196.38 -24.9635 -1.5
    endloop
  endfacet
  facet normal 0 0 1
    outer loop
      vertex 194.73 -23.7647 -1.5
      vertex 196.106 -22.7655 -1.5
      vertex 195.8 -21.825 -1.5
    endloop
  endfacet
  facet normal 0 0 1
    outer loop
      vertex 194.73 -23.7647 -1.5
      vertex 196.38 -24.9635 -1.5
      vertex 196.106 -22.7655 -1.5
    endloop
  endfacet
  facet normal 0.587787 0.809016 -0
    outer loop
      vertex 194.73 -23.7647 0
      vertex 196.38 -24.9635 0
      vertex 196.38 -24.9635 -1.5
    endloop
  endfacet
  facet normal 0 0 1
    outer loop
      vertex 194.73 -23.7647 0
      vertex 209.4 -53.65 0
      vertex 196.38 -24.9635 0
    endloop
  endfacet
  facet normal 0 0 -1
    outer loop
      vertex 195.75 -18.9671 -19.5
      vertex 196.906 -20.3033 -19.5
      vertex 196.106 -20.8845 -19.5
    endloop
  endfacet
  facet normal 0 0 -1
    outer loop
      vertex 195.75 -18.9671 -19.5
      vertex 199.05 -18.9671 -19.5
      vertex 196.906 -20.3033 -19.5
    endloop
  endfacet
  facet normal 0 -1 0
    outer loop
      vertex 195.75 -18.9671 -22
      vertex 199.05 -18.9671 -19.5
      vertex 195.75 -18.9671 -19.5
    endloop
  endfacet
  facet normal 0 -1 -0
    outer loop
      vertex 195.75 -18.9671 -22
      vertex 199.05 -18.9671 -22
      vertex 199.05 -18.9671 -19.5
    endloop
  endfacet
  facet normal -0 0 -1
    outer loop
      vertex 195.75 -24.6829 -19.5
      vertex 196.106 -22.7655 -19.5
      vertex 196.906 -23.3467 -19.5
    endloop
  endfacet
  facet normal 0 0 -1
    outer loop
      vertex 195.75 -24.6829 -19.5
      vertex 196.906 -23.3467 -19.5
      vertex 199.05 -24.6829 -19.5
    endloop
  endfacet
  facet normal 0 1 -0
    outer loop
      vertex 195.75 -24.6829 -19.5
      vertex 199.05 -24.6829 -19.5
      vertex 199.05 -24.6829 -22
    endloop
  endfacet
  facet normal 0 1 0
    outer loop
      vertex 195.75 -24.6829 -22
      vertex 195.75 -24.6829 -19.5
      vertex 199.05 -24.6829 -22
    endloop
  endfacet
  facet normal 0.950934 -0.309395 0
    outer loop
      vertex 195.8 -21.825 -1.5
      vertex 196.106 -20.8845 -19.5
      vertex 196.106 -20.8845 -1.5
    endloop
  endfacet
  facet normal 0.950934 0.309395 0
    outer loop
      vertex 195.8 -21.825 -19.5
      vertex 195.8 -21.825 -1.5
      vertex 196.106 -22.7655 -1.5
    endloop
  endfacet
  facet normal 0.950934 -0.309395 0
    outer loop
      vertex 195.8 -21.825 -19.5
      vertex 196.106 -20.8845 -19.5
      vertex 195.8 -21.825 -1.5
    endloop
  endfacet
  facet normal 0.950934 0.309395 0
    outer loop
      vertex 195.8 -21.825 -19.5
      vertex 196.106 -22.7655 -1.5
      vertex 196.106 -22.7655 -19.5
    endloop
  endfacet
  facet normal 0 0 1
    outer loop
      vertex 196.106 -20.8845 -1.5
      vertex 196.906 -20.3033 -1.5
      vertex 196.38 -18.6865 -1.5
    endloop
  endfacet
  facet normal 0.587763 -0.809033 0
    outer loop
      vertex 196.106 -20.8845 -19.5
      vertex 196.906 -20.3033 -1.5
      vertex 196.106 -20.8845 -1.5
    endloop
  endfacet
  facet normal 0.587763 -0.809033 0
    outer loop
      vertex 196.106 -20.8845 -19.5
      vertex 196.906 -20.3033 -19.5
      vertex 196.906 -20.3033 -1.5
    endloop
  endfacet
  facet normal 0 0 1
    outer loop
      vertex 196.106 -22.7655 -1.5
      vertex 196.38 -24.9635 -1.5
      vertex 196.906 -23.3467 -1.5
    endloop
  endfacet
  facet normal 0.587763 0.809033 -0
    outer loop
      vertex 196.106 -22.7655 -1.5
      vertex 196.906 -23.3467 -1.5
      vertex 196.906 -23.3467 -19.5
    endloop
  endfacet
  facet normal 0.587763 0.809033 0
    outer loop
      vertex 196.106 -22.7655 -19.5
      vertex 196.106 -22.7655 -1.5
      vertex 196.906 -23.3467 -19.5
    endloop
  endfacet
  facet normal -0 0 1
    outer loop
      vertex 196.38 -18.6865 -1.5
      vertex 196.906 -20.3033 -1.5
      vertex 198.42 -18.6865 -1.5
    endloop
  endfacet
  facet normal 0 -1 -0
    outer loop
      vertex 196.38 -18.6865 -1.5
      vertex 198.42 -18.6865 -1.5
      vertex 198.42 -18.6865 0
    endloop
  endfacet
  facet normal 0 -1 0
    outer loop
      vertex 196.38 -18.6865 -1.5
      vertex 198.42 -18.6865 0
      vertex 196.38 -18.6865 0
    endloop
  endfacet
  facet normal 0 0 1
    outer loop
      vertex 196.38 -18.6865 0
      vertex 198.42 -18.6865 0
      vertex 209.4 10 0
    endloop
  endfacet
  facet normal 0 1 0
    outer loop
      vertex 196.38 -24.9635 -1.5
      vertex 196.38 -24.9635 0
      vertex 198.42 -24.9635 -1.5
    endloop
  endfacet
  facet normal 0 0 1
    outer loop
      vertex 196.38 -24.9635 -1.5
      vertex 198.42 -24.9635 -1.5
      vertex 196.906 -23.3467 -1.5
    endloop
  endfacet
  facet normal 0 1 -0
    outer loop
      vertex 196.38 -24.9635 0
      vertex 198.42 -24.9635 0
      vertex 198.42 -24.9635 -1.5
    endloop
  endfacet
  facet normal -0 0 1
    outer loop
      vertex 196.38 -24.9635 0
      vertex 209.4 -53.65 0
      vertex 198.42 -24.9635 0
    endloop
  endfacet
  facet normal 0 0 1
    outer loop
      vertex 196.906 -20.3033 -1.5
      vertex 197.894 -20.3033 -1.5
      vertex 198.42 -18.6865 -1.5
    endloop
  endfacet
  facet normal 0 -1 0
    outer loop
      vertex 196.906 -20.3033 -19.5
      vertex 197.894 -20.3033 -1.5
      vertex 196.906 -20.3033 -1.5
    endloop
  endfacet
  facet normal 0 -1 -0
    outer loop
      vertex 196.906 -20.3033 -19.5
      vertex 197.894 -20.3033 -19.5
      vertex 197.894 -20.3033 -1.5
    endloop
  endfacet
  facet normal 0 0 -1
    outer loop
      vertex 196.906 -20.3033 -19.5
      vertex 199.05 -18.9671 -19.5
      vertex 197.894 -20.3033 -19.5
    endloop
  endfacet
  facet normal 0 1 -0
    outer loop
      vertex 196.906 -23.3467 -1.5
      vertex 197.894 -23.3467 -1.5
      vertex 197.894 -23.3467 -19.5
    endloop
  endfacet
  facet normal -0 0 1
    outer loop
      vertex 196.906 -23.3467 -1.5
      vertex 198.42 -24.9635 -1.5
      vertex 197.894 -23.3467 -1.5
    endloop
  endfacet
  facet normal 0 1 0
    outer loop
      vertex 196.906 -23.3467 -19.5
      vertex 196.906 -23.3467 -1.5
      vertex 197.894 -23.3467 -19.5
    endloop
  endfacet
  facet normal 0 0 -1
    outer loop
      vertex 196.906 -23.3467 -19.5
      vertex 197.894 -23.3467 -19.5
      vertex 199.05 -24.6829 -19.5
    endloop
  endfacet
  facet normal 0 0 1
    outer loop
      vertex 197.894 -20.3033 -1.5
      vertex 198.694 -20.8845 -1.5
      vertex 198.42 -18.6865 -1.5
    endloop
  endfacet
  facet normal -0.587763 -0.809033 0
    outer loop
      vertex 197.894 -20.3033 -19.5
      vertex 198.694 -20.8845 -1.5
      vertex 197.894 -20.3033 -1.5
    endloop
  endfacet
  facet normal -0.587763 -0.809033 -0
    outer loop
      vertex 197.894 -20.3033 -19.5
      vertex 198.694 -20.8845 -19.5
      vertex 198.694 -20.8845 -1.5
    endloop
  endfacet
  facet normal 0 0 -1
    outer loop
      vertex 197.894 -20.3033 -19.5
      vertex 199.05 -18.9671 -19.5
      vertex 198.694 -20.8845 -19.5
    endloop
  endfacet
  facet normal -0 0 1
    outer loop
      vertex 197.894 -23.3467 -1.5
      vertex 198.42 -24.9635 -1.5
      vertex 198.694 -22.7655 -1.5
    endloop
  endfacet
  facet normal -0.587763 0.809033 0
    outer loop
      vertex 197.894 -23.3467 -1.5
      vertex 198.694 -22.7655 -1.5
      vertex 198.694 -22.7655 -19.5
    endloop
  endfacet
  facet normal -0.587763 0.809033 0
    outer loop
      vertex 197.894 -23.3467 -19.5
      vertex 197.894 -23.3467 -1.5
      vertex 198.694 -22.7655 -19.5
    endloop
  endfacet
  facet normal 0 0 -1
    outer loop
      vertex 197.894 -23.3467 -19.5
      vertex 198.694 -22.7655 -19.5
      vertex 199.05 -24.6829 -19.5
    endloop
  endfacet
  facet normal 0 0 1
    outer loop
      vertex 198.42 -18.6865 -1.5
      vertex 198.694 -20.8845 -1.5
      vertex 200.07 -19.8853 -1.5
    endloop
  endfacet
  facet normal -0.587787 -0.809016 -0
    outer loop
      vertex 198.42 -18.6865 -1.5
      vertex 200.07 -19.8853 -1.5
      vertex 200.07 -19.8853 0
    endloop
  endfacet
  facet normal -0.587787 -0.809016 0
    outer loop
      vertex 198.42 -18.6865 -1.5
      vertex 200.07 -19.8853 0
      vertex 198.42 -18.6865 0
    endloop
  endfacet
  facet normal 0 0 1
    outer loop
      vertex 198.42 -18.6865 0
      vertex 200.07 -19.8853 0
      vertex 209.4 10 0
    endloop
  endfacet
  facet normal -0.587787 0.809016 0
    outer loop
      vertex 198.42 -24.9635 -1.5
      vertex 198.42 -24.9635 0
      vertex 200.07 -23.7647 -1.5
    endloop
  endfacet
  facet normal 0 0 1
    outer loop
      vertex 198.42 -24.9635 -1.5
      vertex 200.07 -23.7647 -1.5
      vertex 198.694 -22.7655 -1.5
    endloop
  endfacet
  facet normal -0.587787 0.809016 0
    outer loop
      vertex 198.42 -24.9635 0
      vertex 200.07 -23.7647 0
      vertex 200.07 -23.7647 -1.5
    endloop
  endfacet
  facet normal -0 0 1
    outer loop
      vertex 198.42 -24.9635 0
      vertex 209.4 -53.65 0
      vertex 200.07 -23.7647 0
    endloop
  endfacet
  facet normal 0 0 1
    outer loop
      vertex 198.694 -20.8845 -1.5
      vertex 199 -21.825 -1.5
      vertex 200.07 -19.8853 -1.5
    endloop
  endfacet
  facet normal -0.950934 -0.309395 0
    outer loop
      vertex 198.694 -20.8845 -1.5
      vertex 199 -21.825 -19.5
      vertex 199 -21.825 -1.5
    endloop
  endfacet
  facet normal -0.950934 -0.309395 0
    outer loop
      vertex 198.694 -20.8845 -19.5
      vertex 199 -21.825 -19.5
      vertex 198.694 -20.8845 -1.5
    endloop
  endfacet
  facet normal 0 0 -1
    outer loop
      vertex 198.694 -20.8845 -19.5
      vertex 199.05 -18.9671 -19.5
      vertex 200.7 -21.825 -19.5
    endloop
  endfacet
  facet normal 0 0 -1
    outer loop
      vertex 198.694 -20.8845 -19.5
      vertex 200.7 -21.825 -19.5
      vertex 199 -21.825 -19.5
    endloop
  endfacet
  facet normal -0 0 1
    outer loop
      vertex 198.694 -22.7655 -1.5
      vertex 200.07 -23.7647 -1.5
      vertex 199 -21.825 -1.5
    endloop
  endfacet
  facet normal -0.950934 0.309395 0
    outer loop
      vertex 198.694 -22.7655 -19.5
      vertex 198.694 -22.7655 -1.5
      vertex 199 -21.825 -1.5
    endloop
  endfacet
  facet normal -0.950934 0.309395 0
    outer loop
      vertex 198.694 -22.7655 -19.5
      vertex 199 -21.825 -1.5
      vertex 199 -21.825 -19.5
    endloop
  endfacet
  facet normal -0 0 -1
    outer loop
      vertex 198.694 -22.7655 -19.5
      vertex 199 -21.825 -19.5
      vertex 200.7 -21.825 -19.5
    endloop
  endfacet
  facet normal 0 0 -1
    outer loop
      vertex 198.694 -22.7655 -19.5
      vertex 200.7 -21.825 -19.5
      vertex 199.05 -24.6829 -19.5
    endloop
  endfacet
  facet normal 0 0 1
    outer loop
      vertex 199 -21.825 -1.5
      vertex 200.07 -23.7647 -1.5
      vertex 200.7 -21.825 -1.5
    endloop
  endfacet
  facet normal 0 0 1
    outer loop
      vertex 199 -21.825 -1.5
      vertex 200.7 -21.825 -1.5
      vertex 200.07 -19.8853 -1.5
    endloop
  endfacet
  facet normal -0.866027 -0.499998 0
    outer loop
      vertex 199.05 -18.9671 -19.5
      vertex 200.7 -21.825 -22
      vertex 200.7 -21.825 -19.5
    endloop
  endfacet
  facet normal -0.866027 -0.499998 0
    outer loop
      vertex 199.05 -18.9671 -22
      vertex 200.7 -21.825 -22
      vertex 199.05 -18.9671 -19.5
    endloop
  endfacet
  facet normal 0 0 -1
    outer loop
      vertex 199.05 -18.9671 -22
      vertex 209.4 10 -22
      vertex 200.7 -21.825 -22
    endloop
  endfacet
  facet normal -0.866027 0.499998 0
    outer loop
      vertex 199.05 -24.6829 -22
      vertex 199.05 -24.6829 -19.5
      vertex 200.7 -21.825 -19.5
    endloop
  endfacet
  facet normal -0.866027 0.499998 0
    outer loop
      vertex 199.05 -24.6829 -22
      vertex 200.7 -21.825 -19.5
      vertex 200.7 -21.825 -22
    endloop
  endfacet
  facet normal 0 0 -1
    outer loop
      vertex 199.05 -24.6829 -22
      vertex 200.7 -21.825 -22
      vertex 209.4 -53.65 -22
    endloop
  endfacet
  facet normal -0.951092 -0.308908 0
    outer loop
      vertex 200.07 -19.8853 -1.5
      vertex 200.7 -21.825 -1.5
      vertex 200.07 -19.8853 0
    endloop
  endfacet
  facet normal -0.951092 -0.308908 0
    outer loop
      vertex 200.07 -19.8853 0
      vertex 200.7 -21.825 -1.5
      vertex 200.7 -21.825 0
    endloop
  endfacet
  facet normal 0 0 1
    outer loop
      vertex 200.07 -19.8853 0
      vertex 200.7 -21.825 0
      vertex 209.4 10 0
    endloop
  endfacet
  facet normal -0.951092 0.308908 0
    outer loop
      vertex 200.07 -23.7647 -1.5
      vertex 200.07 -23.7647 0
      vertex 200.7 -21.825 0
    endloop
  endfacet
  facet normal -0.951092 0.308908 0
    outer loop
      vertex 200.07 -23.7647 -1.5
      vertex 200.7 -21.825 0
      vertex 200.7 -21.825 -1.5
    endloop
  endfacet
  facet normal -0 0 1
    outer loop
      vertex 200.07 -23.7647 0
      vertex 209.4 -53.65 0
      vertex 200.7 -21.825 0
    endloop
  endfacet
  facet normal 0 0 -1
    outer loop
      vertex 200.7 -21.825 -22
      vertex 209.4 10 -22
      vertex 209.4 -53.65 -22
    endloop
  endfacet
  facet normal 0 0 1
    outer loop
      vertex 200.7 -21.825 0
      vertex 209.4 -53.65 0
      vertex 209.4 10 0
    endloop
  endfacet
  facet normal 1 0 0
    outer loop
      vertex 209.4 -53.65 -22
      vertex 209.4 10 -22
      vertex 209.4 -53.65 0
    endloop
  endfacet
  facet normal 1 -0 0
    outer loop
      vertex 209.4 -53.65 0
      vertex 209.4 10 -22
      vertex 209.4 10 0
    endloop
  endfacet
  facet normal 0 0 -1
    outer loop
      vertex 3.3 -21.825 -22
      vertex 36.7 -21.825 -22
      vertex 38.35 -24.6829 -22
    endloop
  endfacet
  facet normal 0 0 -1
    outer loop
      vertex 3.3 -21.825 -22
      vertex 38.35 -18.9671 -22
      vertex 36.7 -21.825 -22
    endloop
  endfacet
  facet normal 0.951063 0.308996 0
    outer loop
      vertex 36.7 -21.825 -1.5
      vertex 36.7 -21.825 0
      vertex 37.3302 -23.7647 0
    endloop
  endfacet
  facet normal 0.951063 -0.308996 0
    outer loop
      vertex 36.7 -21.825 -1.5
      vertex 37.3302 -19.8853 -1.5
      vertex 36.7 -21.825 0
    endloop
  endfacet
  facet normal 0 0 1
    outer loop
      vertex 36.7 -21.825 -1.5
      vertex 37.3302 -23.7647 -1.5
      vertex 38.4 -21.825 -1.5
    endloop
  endfacet
  facet normal 0.951063 0.308996 0
    outer loop
      vertex 36.7 -21.825 -1.5
      vertex 37.3302 -23.7647 0
      vertex 37.3302 -23.7647 -1.5
    endloop
  endfacet
  facet normal 0 0 1
    outer loop
      vertex 36.7 -21.825 -1.5
      vertex 38.4 -21.825 -1.5
      vertex 37.3302 -19.8853 -1.5
    endloop
  endfacet
  facet normal -0 0 -1
    outer loop
      vertex 36.7 -21.825 -19.5
      vertex 38.35 -18.9671 -19.5
      vertex 38.7056 -20.8845 -19.5
    endloop
  endfacet
  facet normal 0.866027 -0.499998 0
    outer loop
      vertex 36.7 -21.825 -19.5
      vertex 38.35 -18.9671 -22
      vertex 38.35 -18.9671 -19.5
    endloop
  endfacet
  facet normal 0 0 -1
    outer loop
      vertex 36.7 -21.825 -19.5
      vertex 38.4 -21.825 -19.5
      vertex 38.7056 -22.7655 -19.5
    endloop
  endfacet
  facet normal 0 0 -1
    outer loop
      vertex 36.7 -21.825 -19.5
      vertex 38.7056 -20.8845 -19.5
      vertex 38.4 -21.825 -19.5
    endloop
  endfacet
  facet normal 0 0 -1
    outer loop
      vertex 36.7 -21.825 -19.5
      vertex 38.7056 -22.7655 -19.5
      vertex 38.35 -24.6829 -19.5
    endloop
  endfacet
  facet normal 0.866027 0.499998 0
    outer loop
      vertex 36.7 -21.825 -22
      vertex 36.7 -21.825 -19.5
      vertex 38.35 -24.6829 -19.5
    endloop
  endfacet
  facet normal 0.866027 -0.499998 0
    outer loop
      vertex 36.7 -21.825 -22
      vertex 38.35 -18.9671 -22
      vertex 36.7 -21.825 -19.5
    endloop
  endfacet
  facet normal 0.866027 0.499998 0
    outer loop
      vertex 36.7 -21.825 -22
      vertex 38.35 -24.6829 -19.5
      vertex 38.35 -24.6829 -22
    endloop
  endfacet
  facet normal 0.951063 -0.308996 0
    outer loop
      vertex 36.7 -21.825 0
      vertex 37.3302 -19.8853 -1.5
      vertex 37.3302 -19.8853 0
    endloop
  endfacet
  facet normal 0 0 1
    outer loop
      vertex 37.3302 -19.8853 -1.5
      vertex 38.4 -21.825 -1.5
      vertex 38.7056 -20.8845 -1.5
    endloop
  endfacet
  facet normal -0 0 1
    outer loop
      vertex 37.3302 -19.8853 -1.5
      vertex 38.7056 -20.8845 -1.5
      vertex 38.9802 -18.6865 -1.5
    endloop
  endfacet
  facet normal 0.587787 -0.809016 0
    outer loop
      vertex 37.3302 -19.8853 -1.5
      vertex 38.9802 -18.6865 -1.5
      vertex 38.9802 -18.6865 0
    endloop
  endfacet
  facet normal 0.587787 -0.809016 0
    outer loop
      vertex 37.3302 -19.8853 -1.5
      vertex 38.9802 -18.6865 0
      vertex 37.3302 -19.8853 0
    endloop
  endfacet
  facet normal 0.587787 0.809016 0
    outer loop
      vertex 37.3302 -23.7647 -1.5
      vertex 37.3302 -23.7647 0
      vertex 38.9802 -24.9635 -1.5
    endloop
  endfacet
  facet normal 0 0 1
    outer loop
      vertex 37.3302 -23.7647 -1.5
      vertex 38.7056 -22.7655 -1.5
      vertex 38.4 -21.825 -1.5
    endloop
  endfacet
  facet normal 0 0 1
    outer loop
      vertex 37.3302 -23.7647 -1.5
      vertex 38.9802 -24.9635 -1.5
      vertex 38.7056 -22.7655 -1.5
    endloop
  endfacet
  facet normal 0.587787 0.809016 -0
    outer loop
      vertex 37.3302 -23.7647 0
      vertex 38.9802 -24.9635 0
      vertex 38.9802 -24.9635 -1.5
    endloop
  endfacet
  facet normal 0 0 -1
    outer loop
      vertex 38.35 -18.9671 -19.5
      vertex 39.5056 -20.3033 -19.5
      vertex 38.7056 -20.8845 -19.5
    endloop
  endfacet
  facet normal 0 0 -1
    outer loop
      vertex 38.35 -18.9671 -19.5
      vertex 41.65 -18.9671 -19.5
      vertex 39.5056 -20.3033 -19.5
    endloop
  endfacet
  facet normal 0 -1 0
    outer loop
      vertex 38.35 -18.9671 -22
      vertex 41.65 -18.9671 -19.5
      vertex 38.35 -18.9671 -19.5
    endloop
  endfacet
  facet normal 0 -1 -0
    outer loop
      vertex 38.35 -18.9671 -22
      vertex 41.65 -18.9671 -22
      vertex 41.65 -18.9671 -19.5
    endloop
  endfacet
  facet normal 0 0 -1
    outer loop
      vertex 38.35 -18.9671 -22
      vertex 54 0 -22
      vertex 41.65 -18.9671 -22
    endloop
  endfacet
  facet normal -0 0 -1
    outer loop
      vertex 38.35 -24.6829 -19.5
      vertex 38.7056 -22.7655 -19.5
      vertex 39.5056 -23.3467 -19.5
    endloop
  endfacet
  facet normal 0 0 -1
    outer loop
      vertex 38.35 -24.6829 -19.5
      vertex 39.5056 -23.3467 -19.5
      vertex 41.65 -24.6829 -19.5
    endloop
  endfacet
  facet normal 0 1 -0
    outer loop
      vertex 38.35 -24.6829 -19.5
      vertex 41.65 -24.6829 -19.5
      vertex 41.65 -24.6829 -22
    endloop
  endfacet
  facet normal 0 1 0
    outer loop
      vertex 38.35 -24.6829 -22
      vertex 38.35 -24.6829 -19.5
      vertex 41.65 -24.6829 -22
    endloop
  endfacet
  facet normal 0 0 -1
    outer loop
      vertex 38.35 -24.6829 -22
      vertex 41.65 -24.6829 -22
      vertex 54 -43.65 -22
    endloop
  endfacet
  facet normal 0.951053 -0.309029 0
    outer loop
      vertex 38.4 -21.825 -1.5
      vertex 38.7056 -20.8845 -19.5
      vertex 38.7056 -20.8845 -1.5
    endloop
  endfacet
  facet normal 0.951053 0.309029 0
    outer loop
      vertex 38.4 -21.825 -19.5
      vertex 38.4 -21.825 -1.5
      vertex 38.7056 -22.7655 -1.5
    endloop
  endfacet
  facet normal 0.951053 -0.309029 0
    outer loop
      vertex 38.4 -21.825 -19.5
      vertex 38.7056 -20.8845 -19.5
      vertex 38.4 -21.825 -1.5
    endloop
  endfacet
  facet normal 0.951053 0.309029 0
    outer loop
      vertex 38.4 -21.825 -19.5
      vertex 38.7056 -22.7655 -1.5
      vertex 38.7056 -22.7655 -19.5
    endloop
  endfacet
  facet normal 0 0 1
    outer loop
      vertex 38.7056 -20.8845 -1.5
      vertex 39.5056 -20.3033 -1.5
      vertex 38.9802 -18.6865 -1.5
    endloop
  endfacet
  facet normal 0.587763 -0.809033 0
    outer loop
      vertex 38.7056 -20.8845 -19.5
      vertex 39.5056 -20.3033 -1.5
      vertex 38.7056 -20.8845 -1.5
    endloop
  endfacet
  facet normal 0.587763 -0.809033 0
    outer loop
      vertex 38.7056 -20.8845 -19.5
      vertex 39.5056 -20.3033 -19.5
      vertex 39.5056 -20.3033 -1.5
    endloop
  endfacet
  facet normal 0 0 1
    outer loop
      vertex 38.7056 -22.7655 -1.5
      vertex 38.9802 -24.9635 -1.5
      vertex 39.5056 -23.3467 -1.5
    endloop
  endfacet
  facet normal 0.587763 0.809033 -0
    outer loop
      vertex 38.7056 -22.7655 -1.5
      vertex 39.5056 -23.3467 -1.5
      vertex 39.5056 -23.3467 -19.5
    endloop
  endfacet
  facet normal 0.587763 0.809033 0
    outer loop
      vertex 38.7056 -22.7655 -19.5
      vertex 38.7056 -22.7655 -1.5
      vertex 39.5056 -23.3467 -19.5
    endloop
  endfacet
  facet normal -0 0 1
    outer loop
      vertex 38.9802 -18.6865 -1.5
      vertex 39.5056 -20.3033 -1.5
      vertex 41.0198 -18.6865 -1.5
    endloop
  endfacet
  facet normal 0 -1 -0
    outer loop
      vertex 38.9802 -18.6865 -1.5
      vertex 41.0198 -18.6865 -1.5
      vertex 41.0198 -18.6865 0
    endloop
  endfacet
  facet normal 0 -1 0
    outer loop
      vertex 38.9802 -18.6865 -1.5
      vertex 41.0198 -18.6865 0
      vertex 38.9802 -18.6865 0
    endloop
  endfacet
  facet normal 0 1 0
    outer loop
      vertex 38.9802 -24.9635 -1.5
      vertex 38.9802 -24.9635 0
      vertex 41.0198 -24.9635 -1.5
    endloop
  endfacet
  facet normal 0 0 1
    outer loop
      vertex 38.9802 -24.9635 -1.5
      vertex 41.0198 -24.9635 -1.5
      vertex 39.5056 -23.3467 -1.5
    endloop
  endfacet
  facet normal 0 1 -0
    outer loop
      vertex 38.9802 -24.9635 0
      vertex 41.0198 -24.9635 0
      vertex 41.0198 -24.9635 -1.5
    endloop
  endfacet
  facet normal 0 0 1
    outer loop
      vertex 39.5056 -20.3033 -1.5
      vertex 40.4944 -20.3033 -1.5
      vertex 41.0198 -18.6865 -1.5
    endloop
  endfacet
  facet normal 0 -1 0
    outer loop
      vertex 39.5056 -20.3033 -19.5
      vertex 40.4944 -20.3033 -1.5
      vertex 39.5056 -20.3033 -1.5
    endloop
  endfacet
  facet normal 0 -1 -0
    outer loop
      vertex 39.5056 -20.3033 -19.5
      vertex 40.4944 -20.3033 -19.5
      vertex 40.4944 -20.3033 -1.5
    endloop
  endfacet
  facet normal 0 0 -1
    outer loop
      vertex 39.5056 -20.3033 -19.5
      vertex 41.65 -18.9671 -19.5
      vertex 40.4944 -20.3033 -19.5
    endloop
  endfacet
  facet normal 0 1 -0
    outer loop
      vertex 39.5056 -23.3467 -1.5
      vertex 40.4944 -23.3467 -1.5
      vertex 40.4944 -23.3467 -19.5
    endloop
  endfacet
  facet normal -0 0 1
    outer loop
      vertex 39.5056 -23.3467 -1.5
      vertex 41.0198 -24.9635 -1.5
      vertex 40.4944 -23.3467 -1.5
    endloop
  endfacet
  facet normal 0 1 0
    outer loop
      vertex 39.5056 -23.3467 -19.5
      vertex 39.5056 -23.3467 -1.5
      vertex 40.4944 -23.3467 -19.5
    endloop
  endfacet
  facet normal 0 0 -1
    outer loop
      vertex 39.5056 -23.3467 -19.5
      vertex 40.4944 -23.3467 -19.5
      vertex 41.65 -24.6829 -19.5
    endloop
  endfacet
  facet normal 0 0 1
    outer loop
      vertex 40.4944 -20.3033 -1.5
      vertex 41.2944 -20.8845 -1.5
      vertex 41.0198 -18.6865 -1.5
    endloop
  endfacet
  facet normal -0.587763 -0.809033 0
    outer loop
      vertex 40.4944 -20.3033 -19.5
      vertex 41.2944 -20.8845 -1.5
      vertex 40.4944 -20.3033 -1.5
    endloop
  endfacet
  facet normal -0.587763 -0.809033 -0
    outer loop
      vertex 40.4944 -20.3033 -19.5
      vertex 41.2944 -20.8845 -19.5
      vertex 41.2944 -20.8845 -1.5
    endloop
  endfacet
  facet normal 0 0 -1
    outer loop
      vertex 40.4944 -20.3033 -19.5
      vertex 41.65 -18.9671 -19.5
      vertex 41.2944 -20.8845 -19.5
    endloop
  endfacet
  facet normal -0 0 1
    outer loop
      vertex 40.4944 -23.3467 -1.5
      vertex 41.0198 -24.9635 -1.5
      vertex 41.2944 -22.7655 -1.5
    endloop
  endfacet
  facet normal -0.587763 0.809033 0
    outer loop
      vertex 40.4944 -23.3467 -1.5
      vertex 41.2944 -22.7655 -1.5
      vertex 41.2944 -22.7655 -19.5
    endloop
  endfacet
  facet normal -0.587763 0.809033 0
    outer loop
      vertex 40.4944 -23.3467 -19.5
      vertex 40.4944 -23.3467 -1.5
      vertex 41.2944 -22.7655 -19.5
    endloop
  endfacet
  facet normal 0 0 -1
    outer loop
      vertex 40.4944 -23.3467 -19.5
      vertex 41.2944 -22.7655 -19.5
      vertex 41.65 -24.6829 -19.5
    endloop
  endfacet
  facet normal 0 0 1
    outer loop
      vertex 41.0198 -18.6865 -1.5
      vertex 41.2944 -20.8845 -1.5
      vertex 42.6698 -19.8853 -1.5
    endloop
  endfacet
  facet normal -0.587787 -0.809016 -0
    outer loop
      vertex 41.0198 -18.6865 -1.5
      vertex 42.6698 -19.8853 -1.5
      vertex 42.6698 -19.8853 0
    endloop
  endfacet
  facet normal -0.587787 -0.809016 0
    outer loop
      vertex 41.0198 -18.6865 -1.5
      vertex 42.6698 -19.8853 0
      vertex 41.0198 -18.6865 0
    endloop
  endfacet
  facet normal -0 0 1
    outer loop
      vertex 41.0198 -18.6865 0
      vertex 156.906 -20.3033 0
      vertex 209.4 10 0
    endloop
  endfacet
  facet normal 0 0 1
    outer loop
      vertex 41.0198 -18.6865 0
      vertex 42.6698 -19.8853 0
      vertex 156.906 -20.3033 0
    endloop
  endfacet
  facet normal -0.587787 0.809016 0
    outer loop
      vertex 41.0198 -24.9635 -1.5
      vertex 41.0198 -24.9635 0
      vertex 42.6698 -23.7647 -1.5
    endloop
  endfacet
  facet normal 0 0 1
    outer loop
      vertex 41.0198 -24.9635 -1.5
      vertex 42.6698 -23.7647 -1.5
      vertex 41.2944 -22.7655 -1.5
    endloop
  endfacet
  facet normal 0 0 1
    outer loop
      vertex 41.0198 -24.9635 0
      vertex 156.906 -23.3467 0
      vertex 42.6698 -23.7647 0
    endloop
  endfacet
  facet normal 0 0 1
    outer loop
      vertex 41.0198 -24.9635 0
      vertex 209.4 -53.65 0
      vertex 156.906 -23.3467 0
    endloop
  endfacet
  facet normal -0.587787 0.809016 0
    outer loop
      vertex 41.0198 -24.9635 0
      vertex 42.6698 -23.7647 0
      vertex 42.6698 -23.7647 -1.5
    endloop
  endfacet
  facet normal 0 0 1
    outer loop
      vertex 41.2944 -20.8845 -1.5
      vertex 41.6 -21.825 -1.5
      vertex 42.6698 -19.8853 -1.5
    endloop
  endfacet
  facet normal -0.951053 -0.309029 0
    outer loop
      vertex 41.2944 -20.8845 -1.5
      vertex 41.6 -21.825 -19.5
      vertex 41.6 -21.825 -1.5
    endloop
  endfacet
  facet normal -0.951053 -0.309029 0
    outer loop
      vertex 41.2944 -20.8845 -19.5
      vertex 41.6 -21.825 -19.5
      vertex 41.2944 -20.8845 -1.5
    endloop
  endfacet
  facet normal 0 0 -1
    outer loop
      vertex 41.2944 -20.8845 -19.5
      vertex 41.65 -18.9671 -19.5
      vertex 43.3 -21.825 -19.5
    endloop
  endfacet
  facet normal 0 0 -1
    outer loop
      vertex 41.2944 -20.8845 -19.5
      vertex 43.3 -21.825 -19.5
      vertex 41.6 -21.825 -19.5
    endloop
  endfacet
  facet normal -0 0 1
    outer loop
      vertex 41.2944 -22.7655 -1.5
      vertex 42.6698 -23.7647 -1.5
      vertex 41.6 -21.825 -1.5
    endloop
  endfacet
  facet normal -0.951053 0.309029 0
    outer loop
      vertex 41.2944 -22.7655 -19.5
      vertex 41.2944 -22.7655 -1.5
      vertex 41.6 -21.825 -1.5
    endloop
  endfacet
  facet normal -0.951053 0.309029 0
    outer loop
      vertex 41.2944 -22.7655 -19.5
      vertex 41.6 -21.825 -1.5
      vertex 41.6 -21.825 -19.5
    endloop
  endfacet
  facet normal -0 0 -1
    outer loop
      vertex 41.2944 -22.7655 -19.5
      vertex 41.6 -21.825 -19.5
      vertex 43.3 -21.825 -19.5
    endloop
  endfacet
  facet normal 0 0 -1
    outer loop
      vertex 41.2944 -22.7655 -19.5
      vertex 43.3 -21.825 -19.5
      vertex 41.65 -24.6829 -19.5
    endloop
  endfacet
  facet normal 0 0 1
    outer loop
      vertex 41.6 -21.825 -1.5
      vertex 42.6698 -23.7647 -1.5
      vertex 43.3 -21.825 -1.5
    endloop
  endfacet
  facet normal 0 0 1
    outer loop
      vertex 41.6 -21.825 -1.5
      vertex 43.3 -21.825 -1.5
      vertex 42.6698 -19.8853 -1.5
    endloop
  endfacet
  facet normal -0.866027 -0.499998 0
    outer loop
      vertex 41.65 -18.9671 -19.5
      vertex 43.3 -21.825 -22
      vertex 43.3 -21.825 -19.5
    endloop
  endfacet
  facet normal -0.866027 -0.499998 0
    outer loop
      vertex 41.65 -18.9671 -22
      vertex 43.3 -21.825 -22
      vertex 41.65 -18.9671 -19.5
    endloop
  endfacet
  facet normal 0 0 -1
    outer loop
      vertex 41.65 -18.9671 -22
      vertex 54 0 -22
      vertex 43.3 -21.825 -22
    endloop
  endfacet
  facet normal -0.866027 0.499998 0
    outer loop
      vertex 41.65 -24.6829 -22
      vertex 41.65 -24.6829 -19.5
      vertex 43.3 -21.825 -19.5
    endloop
  endfacet
  facet normal -0.866027 0.499998 0
    outer loop
      vertex 41.65 -24.6829 -22
      vertex 43.3 -21.825 -19.5
      vertex 43.3 -21.825 -22
    endloop
  endfacet
  facet normal 0 0 -1
    outer loop
      vertex 41.65 -24.6829 -22
      vertex 43.3 -21.825 -22
      vertex 54 -43.65 -22
    endloop
  endfacet
  facet normal -0.951063 -0.308996 0
    outer loop
      vertex 42.6698 -19.8853 -1.5
      vertex 43.3 -21.825 -1.5
      vertex 42.6698 -19.8853 0
    endloop
  endfacet
  facet normal 0 0 1
    outer loop
      vertex 42.6698 -19.8853 0
      vertex 156.106 -20.8845 0
      vertex 156.906 -20.3033 0
    endloop
  endfacet
  facet normal -0.951063 -0.308996 0
    outer loop
      vertex 42.6698 -19.8853 0
      vertex 43.3 -21.825 -1.5
      vertex 43.3 -21.825 0
    endloop
  endfacet
  facet normal 0 0 1
    outer loop
      vertex 42.6698 -19.8853 0
      vertex 43.3 -21.825 0
      vertex 156.106 -20.8845 0
    endloop
  endfacet
  facet normal -0.951063 0.308996 0
    outer loop
      vertex 42.6698 -23.7647 -1.5
      vertex 42.6698 -23.7647 0
      vertex 43.3 -21.825 0
    endloop
  endfacet
  facet normal -0.951063 0.308996 0
    outer loop
      vertex 42.6698 -23.7647 -1.5
      vertex 43.3 -21.825 0
      vertex 43.3 -21.825 -1.5
    endloop
  endfacet
  facet normal 0 0 1
    outer loop
      vertex 42.6698 -23.7647 0
      vertex 156.106 -22.7655 0
      vertex 43.3 -21.825 0
    endloop
  endfacet
  facet normal 0 0 1
    outer loop
      vertex 42.6698 -23.7647 0
      vertex 156.906 -23.3467 0
      vertex 156.106 -22.7655 0
    endloop
  endfacet
  facet normal 0 0 -1
    outer loop
      vertex 43.3 -21.825 -22
      vertex 54 0 -22
      vertex 54 -43.65 -22
    endloop
  endfacet
  facet normal 0 0 1
    outer loop
      vertex 43.3 -21.825 0
      vertex 155.8 -21.825 0
      vertex 156.106 -20.8845 0
    endloop
  endfacet
  facet normal -0 0 1
    outer loop
      vertex 43.3 -21.825 0
      vertex 156.106 -22.7655 0
      vertex 155.8 -21.825 0
    endloop
  endfacet
  facet normal -0 0 -1
    outer loop
      vertex 54 -43.65 -17
      vertex 154.1 -21.825 -17
      vertex 155.75 -24.6829 -17
    endloop
  endfacet
  facet normal 0 0 -1
    outer loop
      vertex 54 -43.65 -17
      vertex 155.75 -24.6829 -17
      vertex 183.4 -43.65 -17
    endloop
  endfacet
  facet normal 0 1 -0
    outer loop
      vertex 54 -43.65 -17
      vertex 183.4 -43.65 -17
      vertex 183.4 -43.65 -22
    endloop
  endfacet
  facet normal 0 0 -1
    outer loop
      vertex 54 -43.65 -17
      vertex 54 0 -17
      vertex 154.1 -21.825 -17
    endloop
  endfacet
  facet normal 1 -0 0
    outer loop
      vertex 54 -43.65 -17
      vertex 54 0 -22
      vertex 54 0 -17
    endloop
  endfacet
  facet normal 0 0 -1
    outer loop
      vertex 54 -43.65 -22
      vertex 183.4 -43.65 -22
      vertex 209.4 -53.65 -22
    endloop
  endfacet
  facet normal 0 1 0
    outer loop
      vertex 54 -43.65 -22
      vertex 54 -43.65 -17
      vertex 183.4 -43.65 -22
    endloop
  endfacet
  facet normal 1 0 0
    outer loop
      vertex 54 -43.65 -22
      vertex 54 0 -22
      vertex 54 -43.65 -17
    endloop
  endfacet
  facet normal 0 0 -1
    outer loop
      vertex 54 0 -17
      vertex 155.75 -18.9671 -17
      vertex 154.1 -21.825 -17
    endloop
  endfacet
  facet normal 0 0 -1
    outer loop
      vertex 54 0 -17
      vertex 183.4 0 -17
      vertex 155.75 -18.9671 -17
    endloop
  endfacet
  facet normal 0 -1 0
    outer loop
      vertex 54 0 -22
      vertex 183.4 0 -17
      vertex 54 0 -17
    endloop
  endfacet
  facet normal 0 -1 -0
    outer loop
      vertex 54 0 -22
      vertex 183.4 0 -22
      vertex 183.4 0 -17
    endloop
  endfacet
  facet normal 0 0 -1
    outer loop
      vertex 54 0 -22
      vertex 209.4 10 -22
      vertex 183.4 0 -22
    endloop
  endfacet
endsolid model
