solid model
  facet normal 0 1 0
    outer loop
      vertex -0.197789 -3.14378 0
      vertex -0.197789 -3.14378 6.05
      vertex 0.197789 -3.14378 0
    endloop
  endfacet
  facet normal 0 0 -1
    outer loop
      vertex -0.197789 -3.14378 0
      vertex 0.197789 -3.14378 0
      vertex 0.475637 -7.56005 0
    endloop
  endfacet
  facet normal 0 1 -0
    outer loop
      vertex -0.197789 -3.14378 6.05
      vertex 0.197789 -3.14378 6.05
      vertex 0.197789 -3.14378 0
    endloop
  endfacet
  facet normal -0 0 1
    outer loop
      vertex -0.197789 -3.14378 6.05
      vertex 0.381452 -6.06301 6.05
      vertex 0.197789 -3.14378 6.05
    endloop
  endfacet
  facet normal 0 -1 -0
    outer loop
      vertex -0.197789 3.14378 0
      vertex 0.197789 3.14378 0
      vertex 0.197789 3.14378 6.05
    endloop
  endfacet
  facet normal 0 -1 0
    outer loop
      vertex -0.197789 3.14378 0
      vertex 0.197789 3.14378 6.05
      vertex -0.197789 3.14378 6.05
    endloop
  endfacet
  facet normal 0 0 -1
    outer loop
      vertex -0.197789 3.14378 0
      vertex 0.475637 7.56005 0
      vertex 0.197789 3.14378 0
    endloop
  endfacet
  facet normal 0 0 1
    outer loop
      vertex -0.197789 3.14378 6.05
      vertex 0.197789 3.14378 6.05
      vertex 0.381452 6.06301 6.05
    endloop
  endfacet
  facet normal 0 -1 -0
    outer loop
      vertex -0.381452 -6.06301 1
      vertex 0.381452 -6.06301 1
      vertex 0.381452 -6.06301 6.05
    endloop
  endfacet
  facet normal 0 -1 0
    outer loop
      vertex -0.381452 -6.06301 1
      vertex 0.381452 -6.06301 6.05
      vertex -0.381452 -6.06301 6.05
    endloop
  endfacet
  facet normal -0 0 1
    outer loop
      vertex -0.381452 -6.06301 1
      vertex 0.475637 -7.56005 1
      vertex 0.381452 -6.06301 1
    endloop
  endfacet
  facet normal 0 0 1
    outer loop
      vertex -0.381452 -6.06301 6.05
      vertex 0.381452 -6.06301 6.05
      vertex -0.197789 -3.14378 6.05
    endloop
  endfacet
  facet normal 0 1 0
    outer loop
      vertex -0.381452 6.06301 1
      vertex -0.381452 6.06301 6.05
      vertex 0.381452 6.06301 1
    endloop
  endfacet
  facet normal 0 0 1
    outer loop
      vertex -0.381452 6.06301 1
      vertex 0.381452 6.06301 1
      vertex 0.475637 7.56005 1
    endloop
  endfacet
  facet normal -0 0 1
    outer loop
      vertex -0.381452 6.06301 6.05
      vertex -0.197789 3.14378 6.05
      vertex 0.381452 6.06301 6.05
    endloop
  endfacet
  facet normal 0 1 -0
    outer loop
      vertex -0.381452 6.06301 6.05
      vertex 0.381452 6.06301 6.05
      vertex 0.381452 6.06301 1
    endloop
  endfacet
  facet normal 0 0 -1
    outer loop
      vertex -0.475637 -7.56005 0
      vertex -0.197789 -3.14378 0
      vertex 0.475637 -7.56005 0
    endloop
  endfacet
  facet normal 0 -1 -0
    outer loop
      vertex -0.475637 -7.56005 0
      vertex 0.475637 -7.56005 0
      vertex 0.475637 -7.56005 1
    endloop
  endfacet
  facet normal 0 -1 0
    outer loop
      vertex -0.475637 -7.56005 0
      vertex 0.475637 -7.56005 1
      vertex -0.475637 -7.56005 1
    endloop
  endfacet
  facet normal 0 0 1
    outer loop
      vertex -0.475637 -7.56005 1
      vertex 0.475637 -7.56005 1
      vertex -0.381452 -6.06301 1
    endloop
  endfacet
  facet normal 0 1 0
    outer loop
      vertex -0.475637 7.56005 0
      vertex -0.475637 7.56005 1
      vertex 0.475637 7.56005 0
    endloop
  endfacet
  facet normal 0 0 -1
    outer loop
      vertex -0.475637 7.56005 0
      vertex 0.475637 7.56005 0
      vertex -0.197789 3.14378 0
    endloop
  endfacet
  facet normal -0 0 1
    outer loop
      vertex -0.475637 7.56005 1
      vertex -0.381452 6.06301 1
      vertex 0.475637 7.56005 1
    endloop
  endfacet
  facet normal 0 1 -0
    outer loop
      vertex -0.475637 7.56005 1
      vertex 0.475637 7.56005 1
      vertex 0.475637 7.56005 0
    endloop
  endfacet
  facet normal 0 0 -1
    outer loop
      vertex -0.590251 -3.0942 0
      vertex -0.197789 -3.14378 0
      vertex -0.475637 -7.56005 0
    endloop
  endfacet
  facet normal 0.125334 0.992115 0
    outer loop
      vertex -0.590251 -3.0942 0
      vertex -0.590251 -3.0942 6.05
      vertex -0.197789 -3.14378 0
    endloop
  endfacet
  facet normal 0.125334 0.992115 -0
    outer loop
      vertex -0.590251 -3.0942 6.05
      vertex -0.197789 -3.14378 6.05
      vertex -0.197789 -3.14378 0
    endloop
  endfacet
  facet normal 0 0 1
    outer loop
      vertex -0.590251 -3.0942 6.05
      vertex -0.381452 -6.06301 6.05
      vertex -0.197789 -3.14378 6.05
    endloop
  endfacet
  facet normal 0.125334 -0.992115 0
    outer loop
      vertex -0.590251 3.0942 0
      vertex -0.197789 3.14378 0
      vertex -0.197789 3.14378 6.05
    endloop
  endfacet
  facet normal 0.125334 -0.992115 0
    outer loop
      vertex -0.590251 3.0942 0
      vertex -0.197789 3.14378 6.05
      vertex -0.590251 3.0942 6.05
    endloop
  endfacet
  facet normal 0 0 -1
    outer loop
      vertex -0.590251 3.0942 0
      vertex -0.475637 7.56005 0
      vertex -0.197789 3.14378 0
    endloop
  endfacet
  facet normal 0 0 1
    outer loop
      vertex -0.590251 3.0942 6.05
      vertex -0.197789 3.14378 6.05
      vertex -0.381452 6.06301 6.05
    endloop
  endfacet
  facet normal 0.248689 0.968583 0
    outer loop
      vertex -0.973403 -2.99583 0
      vertex -0.973403 -2.99583 6.05
      vertex -0.590251 -3.0942 0
    endloop
  endfacet
  facet normal 0.248689 0.968583 -0
    outer loop
      vertex -0.973403 -2.99583 6.05
      vertex -0.590251 -3.0942 6.05
      vertex -0.590251 -3.0942 0
    endloop
  endfacet
  facet normal 0.248689 -0.968583 0
    outer loop
      vertex -0.973403 2.99583 0
      vertex -0.590251 3.0942 0
      vertex -0.590251 3.0942 6.05
    endloop
  endfacet
  facet normal 0.248689 -0.968583 0
    outer loop
      vertex -0.973403 2.99583 0
      vertex -0.590251 3.0942 6.05
      vertex -0.973403 2.99583 6.05
    endloop
  endfacet
  facet normal -0.125333 -0.992115 -0
    outer loop
      vertex -1.13834 -5.96739 1
      vertex -0.381452 -6.06301 1
      vertex -0.381452 -6.06301 6.05
    endloop
  endfacet
  facet normal -0.125333 -0.992115 0
    outer loop
      vertex -1.13834 -5.96739 1
      vertex -0.381452 -6.06301 6.05
      vertex -1.13834 -5.96739 6.05
    endloop
  endfacet
  facet normal 0 0 1
    outer loop
      vertex -1.13834 -5.96739 1
      vertex -0.475637 -7.56005 1
      vertex -0.381452 -6.06301 1
    endloop
  endfacet
  facet normal 0 0 1
    outer loop
      vertex -1.13834 -5.96739 6.05
      vertex -0.381452 -6.06301 6.05
      vertex -0.590251 -3.0942 6.05
    endloop
  endfacet
  facet normal 0 0 1
    outer loop
      vertex -1.13834 -5.96739 6.05
      vertex -0.590251 -3.0942 6.05
      vertex -0.973403 -2.99583 6.05
    endloop
  endfacet
  facet normal 0 0 1
    outer loop
      vertex -1.13834 5.96739 1
      vertex -0.381452 6.06301 1
      vertex -0.475637 7.56005 1
    endloop
  endfacet
  facet normal -0.125333 0.992115 0
    outer loop
      vertex -1.13834 5.96739 1
      vertex -1.13834 5.96739 6.05
      vertex -0.381452 6.06301 1
    endloop
  endfacet
  facet normal -0.125333 0.992115 0
    outer loop
      vertex -1.13834 5.96739 6.05
      vertex -0.381452 6.06301 6.05
      vertex -0.381452 6.06301 1
    endloop
  endfacet
  facet normal -0 0 1
    outer loop
      vertex -1.13834 5.96739 6.05
      vertex -0.590251 3.0942 6.05
      vertex -0.381452 6.06301 6.05
    endloop
  endfacet
  facet normal 0 0 1
    outer loop
      vertex -1.13834 5.96739 6.05
      vertex -0.973403 2.99583 6.05
      vertex -0.590251 3.0942 6.05
    endloop
  endfacet
  facet normal 0.368125 0.929776 0
    outer loop
      vertex -1.3412 -2.8502 0
      vertex -1.3412 -2.8502 6.05
      vertex -0.973403 -2.99583 0
    endloop
  endfacet
  facet normal 0.368125 0.929776 -0
    outer loop
      vertex -1.3412 -2.8502 6.05
      vertex -0.973403 -2.99583 6.05
      vertex -0.973403 -2.99583 0
    endloop
  endfacet
  facet normal 0.368125 -0.929776 0
    outer loop
      vertex -1.3412 2.8502 0
      vertex -0.973403 2.99583 0
      vertex -0.973403 2.99583 6.05
    endloop
  endfacet
  facet normal 0.368125 -0.929776 0
    outer loop
      vertex -1.3412 2.8502 0
      vertex -0.973403 2.99583 6.05
      vertex -1.3412 2.8502 6.05
    endloop
  endfacet
  facet normal -0.125333 -0.992115 -0
    outer loop
      vertex -1.41941 -7.44083 0
      vertex -0.475637 -7.56005 0
      vertex -0.475637 -7.56005 1
    endloop
  endfacet
  facet normal -0.125333 -0.992115 0
    outer loop
      vertex -1.41941 -7.44083 0
      vertex -0.475637 -7.56005 1
      vertex -1.41941 -7.44083 1
    endloop
  endfacet
  facet normal 0 0 -1
    outer loop
      vertex -1.41941 -7.44083 0
      vertex -0.590251 -3.0942 0
      vertex -0.475637 -7.56005 0
    endloop
  endfacet
  facet normal -0 0 -1
    outer loop
      vertex -1.41941 -7.44083 0
      vertex -0.973403 -2.99583 0
      vertex -0.590251 -3.0942 0
    endloop
  endfacet
  facet normal 0 0 1
    outer loop
      vertex -1.41941 -7.44083 1
      vertex -0.475637 -7.56005 1
      vertex -1.13834 -5.96739 1
    endloop
  endfacet
  facet normal 0 0 -1
    outer loop
      vertex -1.41941 7.44083 0
      vertex -0.475637 7.56005 0
      vertex -0.590251 3.0942 0
    endloop
  endfacet
  facet normal 0 0 -1
    outer loop
      vertex -1.41941 7.44083 0
      vertex -0.590251 3.0942 0
      vertex -0.973403 2.99583 0
    endloop
  endfacet
  facet normal -0.125333 0.992115 0
    outer loop
      vertex -1.41941 7.44083 0
      vertex -1.41941 7.44083 1
      vertex -0.475637 7.56005 0
    endloop
  endfacet
  facet normal -0.125333 0.992115 0
    outer loop
      vertex -1.41941 7.44083 1
      vertex -0.475637 7.56005 1
      vertex -0.475637 7.56005 0
    endloop
  endfacet
  facet normal -0 0 1
    outer loop
      vertex -1.41941 7.44083 1
      vertex -1.13834 5.96739 1
      vertex -0.475637 7.56005 1
    endloop
  endfacet
  facet normal 0.481753 0.876307 0
    outer loop
      vertex -1.68785 -2.65963 0
      vertex -1.68785 -2.65963 6.05
      vertex -1.3412 -2.8502 0
    endloop
  endfacet
  facet normal 0.481753 0.876307 -0
    outer loop
      vertex -1.68785 -2.65963 6.05
      vertex -1.3412 -2.8502 6.05
      vertex -1.3412 -2.8502 0
    endloop
  endfacet
  facet normal 0.481753 -0.876307 0
    outer loop
      vertex -1.68785 2.65963 0
      vertex -1.3412 2.8502 0
      vertex -1.3412 2.8502 6.05
    endloop
  endfacet
  facet normal 0.481753 -0.876307 0
    outer loop
      vertex -1.68785 2.65963 0
      vertex -1.3412 2.8502 6.05
      vertex -1.68785 2.65963 6.05
    endloop
  endfacet
  facet normal -0.24869 -0.968583 -0
    outer loop
      vertex -1.87728 -5.77767 1
      vertex -1.13834 -5.96739 1
      vertex -1.13834 -5.96739 6.05
    endloop
  endfacet
  facet normal -0.24869 -0.968583 0
    outer loop
      vertex -1.87728 -5.77767 1
      vertex -1.13834 -5.96739 6.05
      vertex -1.87728 -5.77767 6.05
    endloop
  endfacet
  facet normal 0 0 1
    outer loop
      vertex -1.87728 -5.77767 1
      vertex -1.41941 -7.44083 1
      vertex -1.13834 -5.96739 1
    endloop
  endfacet
  facet normal 0 0 1
    outer loop
      vertex -1.87728 -5.77767 6.05
      vertex -0.973403 -2.99583 6.05
      vertex -1.3412 -2.8502 6.05
    endloop
  endfacet
  facet normal 0 0 1
    outer loop
      vertex -1.87728 -5.77767 6.05
      vertex -1.13834 -5.96739 6.05
      vertex -0.973403 -2.99583 6.05
    endloop
  endfacet
  facet normal 0 0 1
    outer loop
      vertex -1.87728 5.77767 1
      vertex -1.13834 5.96739 1
      vertex -1.41941 7.44083 1
    endloop
  endfacet
  facet normal -0.24869 0.968583 0
    outer loop
      vertex -1.87728 5.77767 1
      vertex -1.87728 5.77767 6.05
      vertex -1.13834 5.96739 1
    endloop
  endfacet
  facet normal -0 0 1
    outer loop
      vertex -1.87728 5.77767 6.05
      vertex -0.973403 2.99583 6.05
      vertex -1.13834 5.96739 6.05
    endloop
  endfacet
  facet normal -0.24869 0.968583 0
    outer loop
      vertex -1.87728 5.77767 6.05
      vertex -1.13834 5.96739 6.05
      vertex -1.13834 5.96739 1
    endloop
  endfacet
  facet normal 0 0 1
    outer loop
      vertex -1.87728 5.77767 6.05
      vertex -1.3412 2.8502 6.05
      vertex -0.973403 2.99583 6.05
    endloop
  endfacet
  facet normal 0.587785 0.809017 0
    outer loop
      vertex -2.00788 -2.42712 0
      vertex -2.00788 -2.42712 6.05
      vertex -1.68785 -2.65963 0
    endloop
  endfacet
  facet normal 0.587785 0.809017 -0
    outer loop
      vertex -2.00788 -2.42712 6.05
      vertex -1.68785 -2.65963 6.05
      vertex -1.68785 -2.65963 0
    endloop
  endfacet
  facet normal 0.587785 -0.809017 0
    outer loop
      vertex -2.00788 2.42712 0
      vertex -1.68785 2.65963 0
      vertex -1.68785 2.65963 6.05
    endloop
  endfacet
  facet normal 0.587785 -0.809017 0
    outer loop
      vertex -2.00788 2.42712 0
      vertex -1.68785 2.65963 6.05
      vertex -2.00788 2.42712 6.05
    endloop
  endfacet
  facet normal 0.684548 0.728968 0
    outer loop
      vertex -2.29625 -2.15632 0
      vertex -2.29625 -2.15632 6.05
      vertex -2.00788 -2.42712 0
    endloop
  endfacet
  facet normal 0.684548 0.728968 -0
    outer loop
      vertex -2.29625 -2.15632 6.05
      vertex -2.00788 -2.42712 6.05
      vertex -2.00788 -2.42712 0
    endloop
  endfacet
  facet normal 0.684548 -0.728968 0
    outer loop
      vertex -2.29625 2.15632 0
      vertex -2.00788 2.42712 0
      vertex -2.00788 2.42712 6.05
    endloop
  endfacet
  facet normal 0.684548 -0.728968 0
    outer loop
      vertex -2.29625 2.15632 0
      vertex -2.00788 2.42712 6.05
      vertex -2.29625 2.15632 6.05
    endloop
  endfacet
  facet normal 0 0 -1
    outer loop
      vertex -2.3408 -7.20425 0
      vertex -0.973403 -2.99583 0
      vertex -1.41941 -7.44083 0
    endloop
  endfacet
  facet normal -0 0 -1
    outer loop
      vertex -2.3408 -7.20425 0
      vertex -1.3412 -2.8502 0
      vertex -0.973403 -2.99583 0
    endloop
  endfacet
  facet normal -0.24869 -0.968583 -0
    outer loop
      vertex -2.3408 -7.20425 0
      vertex -1.41941 -7.44083 0
      vertex -1.41941 -7.44083 1
    endloop
  endfacet
  facet normal -0.24869 -0.968583 0
    outer loop
      vertex -2.3408 -7.20425 0
      vertex -1.41941 -7.44083 1
      vertex -2.3408 -7.20425 1
    endloop
  endfacet
  facet normal 0 0 1
    outer loop
      vertex -2.3408 -7.20425 1
      vertex -1.41941 -7.44083 1
      vertex -1.87728 -5.77767 1
    endloop
  endfacet
  facet normal 0 0 -1
    outer loop
      vertex -2.3408 7.20425 0
      vertex -0.973403 2.99583 0
      vertex -1.3412 2.8502 0
    endloop
  endfacet
  facet normal 0 0 -1
    outer loop
      vertex -2.3408 7.20425 0
      vertex -1.41941 7.44083 0
      vertex -0.973403 2.99583 0
    endloop
  endfacet
  facet normal -0.24869 0.968583 0
    outer loop
      vertex -2.3408 7.20425 0
      vertex -2.3408 7.20425 1
      vertex -1.41941 7.44083 0
    endloop
  endfacet
  facet normal -0.24869 0.968583 0
    outer loop
      vertex -2.3408 7.20425 1
      vertex -1.41941 7.44083 1
      vertex -1.41941 7.44083 0
    endloop
  endfacet
  facet normal -0 0 1
    outer loop
      vertex -2.3408 7.20425 1
      vertex -1.87728 5.77767 1
      vertex -1.41941 7.44083 1
    endloop
  endfacet
  facet normal 0.770512 0.637425 0
    outer loop
      vertex -2.5484 -1.85152 0
      vertex -2.29625 -2.15632 6.05
      vertex -2.29625 -2.15632 0
    endloop
  endfacet
  facet normal 0.770512 0.637425 0
    outer loop
      vertex -2.5484 -1.85152 0
      vertex -2.5484 -1.85152 6.05
      vertex -2.29625 -2.15632 6.05
    endloop
  endfacet
  facet normal 0.770512 -0.637425 0
    outer loop
      vertex -2.5484 1.85152 0
      vertex -2.29625 2.15632 0
      vertex -2.5484 1.85152 6.05
    endloop
  endfacet
  facet normal 0.770512 -0.637425 0
    outer loop
      vertex -2.5484 1.85152 6.05
      vertex -2.29625 2.15632 0
      vertex -2.29625 2.15632 6.05
    endloop
  endfacet
  facet normal -0.368124 -0.929777 -0
    outer loop
      vertex -2.58661 -5.49682 1
      vertex -1.87728 -5.77767 1
      vertex -1.87728 -5.77767 6.05
    endloop
  endfacet
  facet normal -0.368124 -0.929777 0
    outer loop
      vertex -2.58661 -5.49682 1
      vertex -1.87728 -5.77767 6.05
      vertex -2.58661 -5.49682 6.05
    endloop
  endfacet
  facet normal 0 0 1
    outer loop
      vertex -2.58661 -5.49682 1
      vertex -2.3408 -7.20425 1
      vertex -1.87728 -5.77767 1
    endloop
  endfacet
  facet normal 0 0 1
    outer loop
      vertex -2.58661 -5.49682 6.05
      vertex -1.3412 -2.8502 6.05
      vertex -1.68785 -2.65963 6.05
    endloop
  endfacet
  facet normal 0 0 1
    outer loop
      vertex -2.58661 -5.49682 6.05
      vertex -1.87728 -5.77767 6.05
      vertex -1.3412 -2.8502 6.05
    endloop
  endfacet
  facet normal 0 0 1
    outer loop
      vertex -2.58661 5.49682 1
      vertex -1.87728 5.77767 1
      vertex -2.3408 7.20425 1
    endloop
  endfacet
  facet normal -0.368124 0.929777 0
    outer loop
      vertex -2.58661 5.49682 1
      vertex -2.58661 5.49682 6.05
      vertex -1.87728 5.77767 1
    endloop
  endfacet
  facet normal -0 0 1
    outer loop
      vertex -2.58661 5.49682 6.05
      vertex -1.3412 2.8502 6.05
      vertex -1.87728 5.77767 6.05
    endloop
  endfacet
  facet normal 0 0 1
    outer loop
      vertex -2.58661 5.49682 6.05
      vertex -1.68785 2.65963 6.05
      vertex -1.3412 2.8502 6.05
    endloop
  endfacet
  facet normal -0.368124 0.929777 0
    outer loop
      vertex -2.58661 5.49682 6.05
      vertex -1.87728 5.77767 6.05
      vertex -1.87728 5.77767 1
    endloop
  endfacet
  facet normal 0.844328 0.535827 0
    outer loop
      vertex -2.76037 -1.51752 0
      vertex -2.5484 -1.85152 6.05
      vertex -2.5484 -1.85152 0
    endloop
  endfacet
  facet normal 0.844328 0.535827 0
    outer loop
      vertex -2.76037 -1.51752 0
      vertex -2.76037 -1.51752 6.05
      vertex -2.5484 -1.85152 6.05
    endloop
  endfacet
  facet normal 0.844328 -0.535827 0
    outer loop
      vertex -2.76037 1.51752 0
      vertex -2.5484 1.85152 0
      vertex -2.76037 1.51752 6.05
    endloop
  endfacet
  facet normal 0.844328 -0.535827 0
    outer loop
      vertex -2.76037 1.51752 6.05
      vertex -2.5484 1.85152 0
      vertex -2.5484 1.85152 6.05
    endloop
  endfacet
  facet normal 0.904827 0.42578 0
    outer loop
      vertex -2.9288 -1.15959 0
      vertex -2.76037 -1.51752 6.05
      vertex -2.76037 -1.51752 0
    endloop
  endfacet
  facet normal 0.904827 0.42578 0
    outer loop
      vertex -2.9288 -1.15959 0
      vertex -2.9288 -1.15959 6.05
      vertex -2.76037 -1.51752 6.05
    endloop
  endfacet
  facet normal 0.904827 -0.42578 0
    outer loop
      vertex -2.9288 1.15959 0
      vertex -2.76037 1.51752 0
      vertex -2.9288 1.15959 6.05
    endloop
  endfacet
  facet normal 0.904827 -0.42578 0
    outer loop
      vertex -2.9288 1.15959 6.05
      vertex -2.76037 1.51752 0
      vertex -2.76037 1.51752 6.05
    endloop
  endfacet
  facet normal 0.951056 0.309017 0
    outer loop
      vertex -3.05104 -0.783373 0
      vertex -2.9288 -1.15959 6.05
      vertex -2.9288 -1.15959 0
    endloop
  endfacet
  facet normal 0.951056 0.309017 0
    outer loop
      vertex -3.05104 -0.783373 0
      vertex -3.05104 -0.783373 6.05
      vertex -2.9288 -1.15959 6.05
    endloop
  endfacet
  facet normal 0.951056 -0.309017 0
    outer loop
      vertex -3.05104 0.783373 0
      vertex -2.9288 1.15959 0
      vertex -3.05104 0.783373 6.05
    endloop
  endfacet
  facet normal 0.951056 -0.309017 0
    outer loop
      vertex -3.05104 0.783373 6.05
      vertex -2.9288 1.15959 0
      vertex -2.9288 1.15959 6.05
    endloop
  endfacet
  facet normal 0.982287 0.187381 0
    outer loop
      vertex -3.12516 -0.394799 0
      vertex -3.05104 -0.783373 6.05
      vertex -3.05104 -0.783373 0
    endloop
  endfacet
  facet normal 0.982287 0.187381 0
    outer loop
      vertex -3.12516 -0.394799 0
      vertex -3.12516 -0.394799 6.05
      vertex -3.05104 -0.783373 6.05
    endloop
  endfacet
  facet normal 0.982287 -0.187381 0
    outer loop
      vertex -3.12516 0.394799 0
      vertex -3.05104 0.783373 0
      vertex -3.12516 0.394799 6.05
    endloop
  endfacet
  facet normal 0.982287 -0.187381 0
    outer loop
      vertex -3.12516 0.394799 6.05
      vertex -3.05104 0.783373 0
      vertex -3.05104 0.783373 6.05
    endloop
  endfacet
  facet normal 0.998027 0.06279 0
    outer loop
      vertex -3.15 0 0
      vertex -3.12516 -0.394799 6.05
      vertex -3.12516 -0.394799 0
    endloop
  endfacet
  facet normal 0.998027 -0.06279 0
    outer loop
      vertex -3.15 0 0
      vertex -3.12516 0.394799 0
      vertex -3.15 0 6.05
    endloop
  endfacet
  facet normal 0.998027 0.06279 0
    outer loop
      vertex -3.15 0 0
      vertex -3.15 0 6.05
      vertex -3.12516 -0.394799 6.05
    endloop
  endfacet
  facet normal 0.998027 -0.06279 0
    outer loop
      vertex -3.15 0 6.05
      vertex -3.12516 0.394799 0
      vertex -3.12516 0.394799 6.05
    endloop
  endfacet
  facet normal 0 0 -1
    outer loop
      vertex -3.22528 -6.85406 0
      vertex -1.3412 -2.8502 0
      vertex -2.3408 -7.20425 0
    endloop
  endfacet
  facet normal -0 0 -1
    outer loop
      vertex -3.22528 -6.85406 0
      vertex -1.68785 -2.65963 0
      vertex -1.3412 -2.8502 0
    endloop
  endfacet
  facet normal -0.368124 -0.929777 -0
    outer loop
      vertex -3.22528 -6.85406 0
      vertex -2.3408 -7.20425 0
      vertex -2.3408 -7.20425 1
    endloop
  endfacet
  facet normal -0.368124 -0.929777 0
    outer loop
      vertex -3.22528 -6.85406 0
      vertex -2.3408 -7.20425 1
      vertex -3.22528 -6.85406 1
    endloop
  endfacet
  facet normal 0 0 1
    outer loop
      vertex -3.22528 -6.85406 1
      vertex -2.3408 -7.20425 1
      vertex -2.58661 -5.49682 1
    endloop
  endfacet
  facet normal 0 0 -1
    outer loop
      vertex -3.22528 6.85406 0
      vertex -1.3412 2.8502 0
      vertex -1.68785 2.65963 0
    endloop
  endfacet
  facet normal 0 0 -1
    outer loop
      vertex -3.22528 6.85406 0
      vertex -2.3408 7.20425 0
      vertex -1.3412 2.8502 0
    endloop
  endfacet
  facet normal -0.368124 0.929777 0
    outer loop
      vertex -3.22528 6.85406 0
      vertex -3.22528 6.85406 1
      vertex -2.3408 7.20425 0
    endloop
  endfacet
  facet normal -0.368124 0.929777 0
    outer loop
      vertex -3.22528 6.85406 1
      vertex -2.3408 7.20425 1
      vertex -2.3408 7.20425 0
    endloop
  endfacet
  facet normal -0 0 1
    outer loop
      vertex -3.22528 6.85406 1
      vertex -2.58661 5.49682 1
      vertex -2.3408 7.20425 1
    endloop
  endfacet
  facet normal -0.481754 -0.876306 -0
    outer loop
      vertex -3.25515 -5.12929 1
      vertex -2.58661 -5.49682 1
      vertex -2.58661 -5.49682 6.05
    endloop
  endfacet
  facet normal -0.481754 -0.876306 0
    outer loop
      vertex -3.25515 -5.12929 1
      vertex -2.58661 -5.49682 6.05
      vertex -3.25515 -5.12929 6.05
    endloop
  endfacet
  facet normal 0 0 1
    outer loop
      vertex -3.25515 -5.12929 1
      vertex -3.22528 -6.85406 1
      vertex -2.58661 -5.49682 1
    endloop
  endfacet
  facet normal 0 0 1
    outer loop
      vertex -3.25515 -5.12929 6.05
      vertex -1.68785 -2.65963 6.05
      vertex -2.00788 -2.42712 6.05
    endloop
  endfacet
  facet normal 0 0 1
    outer loop
      vertex -3.25515 -5.12929 6.05
      vertex -2.58661 -5.49682 6.05
      vertex -1.68785 -2.65963 6.05
    endloop
  endfacet
  facet normal 0 0 1
    outer loop
      vertex -3.25515 5.12929 1
      vertex -2.58661 5.49682 1
      vertex -3.22528 6.85406 1
    endloop
  endfacet
  facet normal -0.481754 0.876306 0
    outer loop
      vertex -3.25515 5.12929 1
      vertex -3.25515 5.12929 6.05
      vertex -2.58661 5.49682 1
    endloop
  endfacet
  facet normal -0 0 1
    outer loop
      vertex -3.25515 5.12929 6.05
      vertex -1.68785 2.65963 6.05
      vertex -2.58661 5.49682 6.05
    endloop
  endfacet
  facet normal 0 0 1
    outer loop
      vertex -3.25515 5.12929 6.05
      vertex -2.00788 2.42712 6.05
      vertex -1.68785 2.65963 6.05
    endloop
  endfacet
  facet normal -0.481754 0.876306 0
    outer loop
      vertex -3.25515 5.12929 6.05
      vertex -2.58661 5.49682 6.05
      vertex -2.58661 5.49682 1
    endloop
  endfacet
  facet normal -0.587785 -0.809017 -0
    outer loop
      vertex -3.87235 -4.68087 1
      vertex -3.25515 -5.12929 1
      vertex -3.25515 -5.12929 6.05
    endloop
  endfacet
  facet normal -0.587785 -0.809017 0
    outer loop
      vertex -3.87235 -4.68087 1
      vertex -3.25515 -5.12929 6.05
      vertex -3.87235 -4.68087 6.05
    endloop
  endfacet
  facet normal 0 0 1
    outer loop
      vertex -3.87235 -4.68087 6.05
      vertex -2.00788 -2.42712 6.05
      vertex -2.29625 -2.15632 6.05
    endloop
  endfacet
  facet normal 0 0 1
    outer loop
      vertex -3.87235 -4.68087 6.05
      vertex -3.25515 -5.12929 6.05
      vertex -2.00788 -2.42712 6.05
    endloop
  endfacet
  facet normal -0.587785 0.809017 0
    outer loop
      vertex -3.87235 4.68087 1
      vertex -3.87235 4.68087 6.05
      vertex -3.25515 5.12929 1
    endloop
  endfacet
  facet normal -0 0 1
    outer loop
      vertex -3.87235 4.68087 6.05
      vertex -2.00788 2.42712 6.05
      vertex -3.25515 5.12929 6.05
    endloop
  endfacet
  facet normal 0 0 1
    outer loop
      vertex -3.87235 4.68087 6.05
      vertex -2.29625 2.15632 6.05
      vertex -2.00788 2.42712 6.05
    endloop
  endfacet
  facet normal -0.587785 0.809017 0
    outer loop
      vertex -3.87235 4.68087 6.05
      vertex -3.25515 5.12929 6.05
      vertex -3.25515 5.12929 1
    endloop
  endfacet
  facet normal 0 0 -1
    outer loop
      vertex -4.05889 -6.39578 0
      vertex -1.68785 -2.65963 0
      vertex -3.22528 -6.85406 0
    endloop
  endfacet
  facet normal -0 0 -1
    outer loop
      vertex -4.05889 -6.39578 0
      vertex -2.00788 -2.42712 0
      vertex -1.68785 -2.65963 0
    endloop
  endfacet
  facet normal -0.481754 -0.876307 -0
    outer loop
      vertex -4.05889 -6.39578 0
      vertex -3.22528 -6.85406 0
      vertex -3.22528 -6.85406 1
    endloop
  endfacet
  facet normal -0.481754 -0.876307 0
    outer loop
      vertex -4.05889 -6.39578 0
      vertex -3.22528 -6.85406 1
      vertex -4.05889 -6.39578 1
    endloop
  endfacet
  facet normal 0 0 1
    outer loop
      vertex -4.05889 -6.39578 1
      vertex -3.22528 -6.85406 1
      vertex -3.25515 -5.12929 1
    endloop
  endfacet
  facet normal 0 0 1
    outer loop
      vertex -4.05889 -6.39578 1
      vertex -3.25515 -5.12929 1
      vertex -3.87235 -4.68087 1
    endloop
  endfacet
  facet normal 0 0 -1
    outer loop
      vertex -4.05889 6.39578 0
      vertex -1.68785 2.65963 0
      vertex -2.00788 2.42712 0
    endloop
  endfacet
  facet normal 0 0 -1
    outer loop
      vertex -4.05889 6.39578 0
      vertex -3.22528 6.85406 0
      vertex -1.68785 2.65963 0
    endloop
  endfacet
  facet normal -0.481754 0.876307 0
    outer loop
      vertex -4.05889 6.39578 0
      vertex -4.05889 6.39578 1
      vertex -3.22528 6.85406 0
    endloop
  endfacet
  facet normal -0.481754 0.876307 0
    outer loop
      vertex -4.05889 6.39578 1
      vertex -3.22528 6.85406 1
      vertex -3.22528 6.85406 0
    endloop
  endfacet
  facet normal -0 0 1
    outer loop
      vertex -4.05889 6.39578 1
      vertex -3.25515 5.12929 1
      vertex -3.22528 6.85406 1
    endloop
  endfacet
  facet normal 0 0 1
    outer loop
      vertex -4.05889 6.39578 1
      vertex -3.87235 4.68087 1
      vertex -3.25515 5.12929 1
    endloop
  endfacet
  facet normal -0.684547 -0.728968 -0
    outer loop
      vertex -4.42848 -4.15862 1
      vertex -3.87235 -4.68087 1
      vertex -3.87235 -4.68087 6.05
    endloop
  endfacet
  facet normal -0.684547 -0.728968 0
    outer loop
      vertex -4.42848 -4.15862 1
      vertex -3.87235 -4.68087 6.05
      vertex -4.42848 -4.15862 6.05
    endloop
  endfacet
  facet normal 0 0 1
    outer loop
      vertex -4.42848 -4.15862 6.05
      vertex -2.29625 -2.15632 6.05
      vertex -2.5484 -1.85152 6.05
    endloop
  endfacet
  facet normal 0 0 1
    outer loop
      vertex -4.42848 -4.15862 6.05
      vertex -3.87235 -4.68087 6.05
      vertex -2.29625 -2.15632 6.05
    endloop
  endfacet
  facet normal -0.684547 0.728968 0
    outer loop
      vertex -4.42848 4.15862 1
      vertex -4.42848 4.15862 6.05
      vertex -3.87235 4.68087 1
    endloop
  endfacet
  facet normal -0 0 1
    outer loop
      vertex -4.42848 4.15862 6.05
      vertex -2.29625 2.15632 6.05
      vertex -3.87235 4.68087 6.05
    endloop
  endfacet
  facet normal 0 0 1
    outer loop
      vertex -4.42848 4.15862 6.05
      vertex -2.5484 1.85152 6.05
      vertex -2.29625 2.15632 6.05
    endloop
  endfacet
  facet normal -0.684547 0.728968 0
    outer loop
      vertex -4.42848 4.15862 6.05
      vertex -3.87235 4.68087 6.05
      vertex -3.87235 4.68087 1
    endloop
  endfacet
  facet normal 0 0 -1
    outer loop
      vertex -4.82849 -5.83664 0
      vertex -2.00788 -2.42712 0
      vertex -4.05889 -6.39578 0
    endloop
  endfacet
  facet normal -0 0 -1
    outer loop
      vertex -4.82849 -5.83664 0
      vertex -2.29625 -2.15632 0
      vertex -2.00788 -2.42712 0
    endloop
  endfacet
  facet normal -0.587785 -0.809017 -0
    outer loop
      vertex -4.82849 -5.83664 0
      vertex -4.05889 -6.39578 0
      vertex -4.05889 -6.39578 1
    endloop
  endfacet
  facet normal -0.587785 -0.809017 0
    outer loop
      vertex -4.82849 -5.83664 0
      vertex -4.05889 -6.39578 1
      vertex -4.82849 -5.83664 1
    endloop
  endfacet
  facet normal 0 0 1
    outer loop
      vertex -4.82849 -5.83664 1
      vertex -3.87235 -4.68087 1
      vertex -4.42848 -4.15862 1
    endloop
  endfacet
  facet normal 0 0 1
    outer loop
      vertex -4.82849 -5.83664 1
      vertex -4.05889 -6.39578 1
      vertex -3.87235 -4.68087 1
    endloop
  endfacet
  facet normal 0 0 -1
    outer loop
      vertex -4.82849 5.83664 0
      vertex -2.00788 2.42712 0
      vertex -2.29625 2.15632 0
    endloop
  endfacet
  facet normal 0 0 -1
    outer loop
      vertex -4.82849 5.83664 0
      vertex -4.05889 6.39578 0
      vertex -2.00788 2.42712 0
    endloop
  endfacet
  facet normal -0.587785 0.809017 0
    outer loop
      vertex -4.82849 5.83664 0
      vertex -4.82849 5.83664 1
      vertex -4.05889 6.39578 0
    endloop
  endfacet
  facet normal -0 0 1
    outer loop
      vertex -4.82849 5.83664 1
      vertex -3.87235 4.68087 1
      vertex -4.05889 6.39578 1
    endloop
  endfacet
  facet normal -0.587785 0.809017 0
    outer loop
      vertex -4.82849 5.83664 1
      vertex -4.05889 6.39578 1
      vertex -4.05889 6.39578 0
    endloop
  endfacet
  facet normal 0 0 1
    outer loop
      vertex -4.82849 5.83664 1
      vertex -4.42848 4.15862 1
      vertex -3.87235 4.68087 1
    endloop
  endfacet
  facet normal -0.770513 -0.637424 0
    outer loop
      vertex -4.91478 -3.5708 1
      vertex -4.42848 -4.15862 1
      vertex -4.91478 -3.5708 6.05
    endloop
  endfacet
  facet normal 0 0 1
    outer loop
      vertex -4.91478 -3.5708 6.05
      vertex -2.5484 -1.85152 6.05
      vertex -2.76037 -1.51752 6.05
    endloop
  endfacet
  facet normal -0.770513 -0.637424 0
    outer loop
      vertex -4.91478 -3.5708 6.05
      vertex -4.42848 -4.15862 1
      vertex -4.42848 -4.15862 6.05
    endloop
  endfacet
  facet normal 0 0 1
    outer loop
      vertex -4.91478 -3.5708 6.05
      vertex -4.42848 -4.15862 6.05
      vertex -2.5484 -1.85152 6.05
    endloop
  endfacet
  facet normal -0.770513 0.637424 0
    outer loop
      vertex -4.91478 3.5708 1
      vertex -4.42848 4.15862 6.05
      vertex -4.42848 4.15862 1
    endloop
  endfacet
  facet normal -0.770513 0.637424 0
    outer loop
      vertex -4.91478 3.5708 1
      vertex -4.91478 3.5708 6.05
      vertex -4.42848 4.15862 6.05
    endloop
  endfacet
  facet normal -0 0 1
    outer loop
      vertex -4.91478 3.5708 6.05
      vertex -2.5484 1.85152 6.05
      vertex -4.42848 4.15862 6.05
    endloop
  endfacet
  facet normal 0 0 1
    outer loop
      vertex -4.91478 3.5708 6.05
      vertex -2.76037 1.51752 6.05
      vertex -2.5484 1.85152 6.05
    endloop
  endfacet
  facet normal -0.844328 -0.535827 0
    outer loop
      vertex -5.32356 -2.92665 1
      vertex -4.91478 -3.5708 1
      vertex -5.32356 -2.92665 6.05
    endloop
  endfacet
  facet normal 0 0 1
    outer loop
      vertex -5.32356 -2.92665 6.05
      vertex -2.76037 -1.51752 6.05
      vertex -2.9288 -1.15959 6.05
    endloop
  endfacet
  facet normal -0.844328 -0.535827 0
    outer loop
      vertex -5.32356 -2.92665 6.05
      vertex -4.91478 -3.5708 1
      vertex -4.91478 -3.5708 6.05
    endloop
  endfacet
  facet normal 0 0 1
    outer loop
      vertex -5.32356 -2.92665 6.05
      vertex -4.91478 -3.5708 6.05
      vertex -2.76037 -1.51752 6.05
    endloop
  endfacet
  facet normal -0.844328 0.535827 0
    outer loop
      vertex -5.32356 2.92665 1
      vertex -4.91478 3.5708 6.05
      vertex -4.91478 3.5708 1
    endloop
  endfacet
  facet normal -0.844328 0.535827 0
    outer loop
      vertex -5.32356 2.92665 1
      vertex -5.32356 2.92665 6.05
      vertex -4.91478 3.5708 6.05
    endloop
  endfacet
  facet normal -0 0 1
    outer loop
      vertex -5.32356 2.92665 6.05
      vertex -2.76037 1.51752 6.05
      vertex -4.91478 3.5708 6.05
    endloop
  endfacet
  facet normal 0 0 1
    outer loop
      vertex -5.32356 2.92665 6.05
      vertex -2.9288 1.15959 6.05
      vertex -2.76037 1.51752 6.05
    endloop
  endfacet
  facet normal 0 0 -1
    outer loop
      vertex -5.52194 -5.18544 0
      vertex -2.29625 -2.15632 0
      vertex -4.82849 -5.83664 0
    endloop
  endfacet
  facet normal -0 0 -1
    outer loop
      vertex -5.52194 -5.18544 0
      vertex -2.5484 -1.85152 0
      vertex -2.29625 -2.15632 0
    endloop
  endfacet
  facet normal -0.684548 -0.728968 -0
    outer loop
      vertex -5.52194 -5.18544 0
      vertex -4.82849 -5.83664 0
      vertex -4.82849 -5.83664 1
    endloop
  endfacet
  facet normal -0.684548 -0.728968 0
    outer loop
      vertex -5.52194 -5.18544 0
      vertex -4.82849 -5.83664 1
      vertex -5.52194 -5.18544 1
    endloop
  endfacet
  facet normal 0 0 1
    outer loop
      vertex -5.52194 -5.18544 1
      vertex -4.42848 -4.15862 1
      vertex -4.91478 -3.5708 1
    endloop
  endfacet
  facet normal 0 0 1
    outer loop
      vertex -5.52194 -5.18544 1
      vertex -4.82849 -5.83664 1
      vertex -4.42848 -4.15862 1
    endloop
  endfacet
  facet normal 0 0 -1
    outer loop
      vertex -5.52194 5.18544 0
      vertex -2.29625 2.15632 0
      vertex -2.5484 1.85152 0
    endloop
  endfacet
  facet normal 0 0 -1
    outer loop
      vertex -5.52194 5.18544 0
      vertex -4.82849 5.83664 0
      vertex -2.29625 2.15632 0
    endloop
  endfacet
  facet normal -0.684548 0.728968 0
    outer loop
      vertex -5.52194 5.18544 0
      vertex -5.52194 5.18544 1
      vertex -4.82849 5.83664 0
    endloop
  endfacet
  facet normal -0 0 1
    outer loop
      vertex -5.52194 5.18544 1
      vertex -4.42848 4.15862 1
      vertex -4.82849 5.83664 1
    endloop
  endfacet
  facet normal -0.684548 0.728968 0
    outer loop
      vertex -5.52194 5.18544 1
      vertex -4.82849 5.83664 1
      vertex -4.82849 5.83664 0
    endloop
  endfacet
  facet normal 0 0 1
    outer loop
      vertex -5.52194 5.18544 1
      vertex -4.91478 3.5708 1
      vertex -4.42848 4.15862 1
    endloop
  endfacet
  facet normal -0.904827 -0.425779 0
    outer loop
      vertex -5.64839 -2.23636 1
      vertex -5.32356 -2.92665 1
      vertex -5.64839 -2.23636 6.05
    endloop
  endfacet
  facet normal 0 0 1
    outer loop
      vertex -5.64839 -2.23636 6.05
      vertex -2.9288 -1.15959 6.05
      vertex -3.05104 -0.783373 6.05
    endloop
  endfacet
  facet normal -0.904827 -0.425779 0
    outer loop
      vertex -5.64839 -2.23636 6.05
      vertex -5.32356 -2.92665 1
      vertex -5.32356 -2.92665 6.05
    endloop
  endfacet
  facet normal 0 0 1
    outer loop
      vertex -5.64839 -2.23636 6.05
      vertex -5.32356 -2.92665 6.05
      vertex -2.9288 -1.15959 6.05
    endloop
  endfacet
  facet normal -0.904827 0.425779 0
    outer loop
      vertex -5.64839 2.23636 1
      vertex -5.32356 2.92665 6.05
      vertex -5.32356 2.92665 1
    endloop
  endfacet
  facet normal -0.904827 0.425779 0
    outer loop
      vertex -5.64839 2.23636 1
      vertex -5.64839 2.23636 6.05
      vertex -5.32356 2.92665 6.05
    endloop
  endfacet
  facet normal -0 0 1
    outer loop
      vertex -5.64839 2.23636 6.05
      vertex -2.9288 1.15959 6.05
      vertex -5.32356 2.92665 6.05
    endloop
  endfacet
  facet normal 0 0 1
    outer loop
      vertex -5.64839 2.23636 6.05
      vertex -3.05104 0.783373 6.05
      vertex -2.9288 1.15959 6.05
    endloop
  endfacet
  facet normal -0.951057 -0.309017 0
    outer loop
      vertex -5.88414 -1.51079 1
      vertex -5.64839 -2.23636 1
      vertex -5.88414 -1.51079 6.05
    endloop
  endfacet
  facet normal 0 0 1
    outer loop
      vertex -5.88414 -1.51079 6.05
      vertex -3.05104 -0.783373 6.05
      vertex -3.12516 -0.394799 6.05
    endloop
  endfacet
  facet normal -0.951057 -0.309017 0
    outer loop
      vertex -5.88414 -1.51079 6.05
      vertex -5.64839 -2.23636 1
      vertex -5.64839 -2.23636 6.05
    endloop
  endfacet
  facet normal 0 0 1
    outer loop
      vertex -5.88414 -1.51079 6.05
      vertex -5.64839 -2.23636 6.05
      vertex -3.05104 -0.783373 6.05
    endloop
  endfacet
  facet normal -0.951057 0.309017 0
    outer loop
      vertex -5.88414 1.51079 1
      vertex -5.64839 2.23636 6.05
      vertex -5.64839 2.23636 1
    endloop
  endfacet
  facet normal -0.951057 0.309017 0
    outer loop
      vertex -5.88414 1.51079 1
      vertex -5.88414 1.51079 6.05
      vertex -5.64839 2.23636 6.05
    endloop
  endfacet
  facet normal -0 0 1
    outer loop
      vertex -5.88414 1.51079 6.05
      vertex -3.05104 0.783373 6.05
      vertex -5.64839 2.23636 6.05
    endloop
  endfacet
  facet normal 0 0 1
    outer loop
      vertex -5.88414 1.51079 6.05
      vertex -3.12516 0.394799 6.05
      vertex -3.05104 0.783373 6.05
    endloop
  endfacet
  facet normal -0.982287 -0.187382 0
    outer loop
      vertex -6.0271 -0.761399 1
      vertex -5.88414 -1.51079 1
      vertex -6.0271 -0.761399 6.05
    endloop
  endfacet
  facet normal 0 0 1
    outer loop
      vertex -6.0271 -0.761399 6.05
      vertex -3.12516 -0.394799 6.05
      vertex -3.15 0 6.05
    endloop
  endfacet
  facet normal -0.982287 -0.187382 0
    outer loop
      vertex -6.0271 -0.761399 6.05
      vertex -5.88414 -1.51079 1
      vertex -5.88414 -1.51079 6.05
    endloop
  endfacet
  facet normal 0 0 1
    outer loop
      vertex -6.0271 -0.761399 6.05
      vertex -5.88414 -1.51079 6.05
      vertex -3.12516 -0.394799 6.05
    endloop
  endfacet
  facet normal -0.982287 0.187382 0
    outer loop
      vertex -6.0271 0.761399 1
      vertex -5.88414 1.51079 6.05
      vertex -5.88414 1.51079 1
    endloop
  endfacet
  facet normal -0.982287 0.187382 0
    outer loop
      vertex -6.0271 0.761399 1
      vertex -6.0271 0.761399 6.05
      vertex -5.88414 1.51079 6.05
    endloop
  endfacet
  facet normal -0 0 1
    outer loop
      vertex -6.0271 0.761399 6.05
      vertex -3.12516 0.394799 6.05
      vertex -5.88414 1.51079 6.05
    endloop
  endfacet
  facet normal 0 0 1
    outer loop
      vertex -6.0271 0.761399 6.05
      vertex -3.15 0 6.05
      vertex -3.12516 0.394799 6.05
    endloop
  endfacet
  facet normal -0.998027 -0.0627904 0
    outer loop
      vertex -6.075 0 1
      vertex -6.0271 -0.761399 1
      vertex -6.075 0 6.05
    endloop
  endfacet
  facet normal -0.998027 0.0627904 0
    outer loop
      vertex -6.075 0 1
      vertex -6.0271 0.761399 6.05
      vertex -6.0271 0.761399 1
    endloop
  endfacet
  facet normal -0.998027 0.0627904 0
    outer loop
      vertex -6.075 0 1
      vertex -6.075 0 6.05
      vertex -6.0271 0.761399 6.05
    endloop
  endfacet
  facet normal 0 0 1
    outer loop
      vertex -6.075 0 6.05
      vertex -3.15 0 6.05
      vertex -6.0271 0.761399 6.05
    endloop
  endfacet
  facet normal -0.998027 -0.0627904 0
    outer loop
      vertex -6.075 0 6.05
      vertex -6.0271 -0.761399 1
      vertex -6.0271 -0.761399 6.05
    endloop
  endfacet
  facet normal 0 0 1
    outer loop
      vertex -6.075 0 6.05
      vertex -6.0271 -0.761399 6.05
      vertex -3.15 0 6.05
    endloop
  endfacet
  facet normal 0 0 -1
    outer loop
      vertex -6.1283 -4.45247 0
      vertex -2.5484 -1.85152 0
      vertex -5.52194 -5.18544 0
    endloop
  endfacet
  facet normal -0 0 -1
    outer loop
      vertex -6.1283 -4.45247 0
      vertex -2.76037 -1.51752 0
      vertex -2.5484 -1.85152 0
    endloop
  endfacet
  facet normal -0.770513 -0.637424 0
    outer loop
      vertex -6.1283 -4.45247 0
      vertex -5.52194 -5.18544 0
      vertex -6.1283 -4.45247 1
    endloop
  endfacet
  facet normal 0 0 1
    outer loop
      vertex -6.1283 -4.45247 1
      vertex -4.91478 -3.5708 1
      vertex -5.32356 -2.92665 1
    endloop
  endfacet
  facet normal -0.770513 -0.637424 0
    outer loop
      vertex -6.1283 -4.45247 1
      vertex -5.52194 -5.18544 0
      vertex -5.52194 -5.18544 1
    endloop
  endfacet
  facet normal 0 0 1
    outer loop
      vertex -6.1283 -4.45247 1
      vertex -5.52194 -5.18544 1
      vertex -4.91478 -3.5708 1
    endloop
  endfacet
  facet normal 0 0 -1
    outer loop
      vertex -6.1283 4.45247 0
      vertex -2.5484 1.85152 0
      vertex -2.76037 1.51752 0
    endloop
  endfacet
  facet normal 0 0 -1
    outer loop
      vertex -6.1283 4.45247 0
      vertex -5.52194 5.18544 0
      vertex -2.5484 1.85152 0
    endloop
  endfacet
  facet normal -0.770513 0.637424 0
    outer loop
      vertex -6.1283 4.45247 0
      vertex -5.52194 5.18544 1
      vertex -5.52194 5.18544 0
    endloop
  endfacet
  facet normal -0.770513 0.637424 0
    outer loop
      vertex -6.1283 4.45247 0
      vertex -6.1283 4.45247 1
      vertex -5.52194 5.18544 1
    endloop
  endfacet
  facet normal -0 0 1
    outer loop
      vertex -6.1283 4.45247 1
      vertex -4.91478 3.5708 1
      vertex -5.52194 5.18544 1
    endloop
  endfacet
  facet normal 0 0 1
    outer loop
      vertex -6.1283 4.45247 1
      vertex -5.32356 2.92665 1
      vertex -4.91478 3.5708 1
    endloop
  endfacet
  facet normal 0 0 -1
    outer loop
      vertex -6.63802 -3.64928 0
      vertex -2.76037 -1.51752 0
      vertex -6.1283 -4.45247 0
    endloop
  endfacet
  facet normal -0 0 -1
    outer loop
      vertex -6.63802 -3.64928 0
      vertex -2.9288 -1.15959 0
      vertex -2.76037 -1.51752 0
    endloop
  endfacet
  facet normal -0.844328 -0.535826 0
    outer loop
      vertex -6.63802 -3.64928 0
      vertex -6.1283 -4.45247 0
      vertex -6.63802 -3.64928 1
    endloop
  endfacet
  facet normal 0 0 1
    outer loop
      vertex -6.63802 -3.64928 1
      vertex -5.32356 -2.92665 1
      vertex -5.64839 -2.23636 1
    endloop
  endfacet
  facet normal -0.844328 -0.535826 0
    outer loop
      vertex -6.63802 -3.64928 1
      vertex -6.1283 -4.45247 0
      vertex -6.1283 -4.45247 1
    endloop
  endfacet
  facet normal 0 0 1
    outer loop
      vertex -6.63802 -3.64928 1
      vertex -6.1283 -4.45247 1
      vertex -5.32356 -2.92665 1
    endloop
  endfacet
  facet normal 0 0 -1
    outer loop
      vertex -6.63802 3.64928 0
      vertex -2.76037 1.51752 0
      vertex -2.9288 1.15959 0
    endloop
  endfacet
  facet normal 0 0 -1
    outer loop
      vertex -6.63802 3.64928 0
      vertex -6.1283 4.45247 0
      vertex -2.76037 1.51752 0
    endloop
  endfacet
  facet normal -0.844328 0.535826 0
    outer loop
      vertex -6.63802 3.64928 0
      vertex -6.1283 4.45247 1
      vertex -6.1283 4.45247 0
    endloop
  endfacet
  facet normal -0.844328 0.535826 0
    outer loop
      vertex -6.63802 3.64928 0
      vertex -6.63802 3.64928 1
      vertex -6.1283 4.45247 1
    endloop
  endfacet
  facet normal -0 0 1
    outer loop
      vertex -6.63802 3.64928 1
      vertex -5.32356 2.92665 1
      vertex -6.1283 4.45247 1
    endloop
  endfacet
  facet normal 0 0 1
    outer loop
      vertex -6.63802 3.64928 1
      vertex -5.64839 2.23636 1
      vertex -5.32356 2.92665 1
    endloop
  endfacet
  facet normal 0 0 -1
    outer loop
      vertex -7.04306 -2.78854 0
      vertex -2.9288 -1.15959 0
      vertex -6.63802 -3.64928 0
    endloop
  endfacet
  facet normal -0 0 -1
    outer loop
      vertex -7.04306 -2.78854 0
      vertex -3.05104 -0.783373 0
      vertex -2.9288 -1.15959 0
    endloop
  endfacet
  facet normal -0.904827 -0.42578 0
    outer loop
      vertex -7.04306 -2.78854 0
      vertex -6.63802 -3.64928 0
      vertex -7.04306 -2.78854 1
    endloop
  endfacet
  facet normal 0 0 1
    outer loop
      vertex -7.04306 -2.78854 1
      vertex -5.64839 -2.23636 1
      vertex -5.88414 -1.51079 1
    endloop
  endfacet
  facet normal -0.904827 -0.42578 0
    outer loop
      vertex -7.04306 -2.78854 1
      vertex -6.63802 -3.64928 0
      vertex -6.63802 -3.64928 1
    endloop
  endfacet
  facet normal 0 0 1
    outer loop
      vertex -7.04306 -2.78854 1
      vertex -6.63802 -3.64928 1
      vertex -5.64839 -2.23636 1
    endloop
  endfacet
  facet normal 0 0 -1
    outer loop
      vertex -7.04306 2.78854 0
      vertex -2.9288 1.15959 0
      vertex -3.05104 0.783373 0
    endloop
  endfacet
  facet normal 0 0 -1
    outer loop
      vertex -7.04306 2.78854 0
      vertex -6.63802 3.64928 0
      vertex -2.9288 1.15959 0
    endloop
  endfacet
  facet normal -0.904827 0.42578 0
    outer loop
      vertex -7.04306 2.78854 0
      vertex -6.63802 3.64928 1
      vertex -6.63802 3.64928 0
    endloop
  endfacet
  facet normal -0.904827 0.42578 0
    outer loop
      vertex -7.04306 2.78854 0
      vertex -7.04306 2.78854 1
      vertex -6.63802 3.64928 1
    endloop
  endfacet
  facet normal -0 0 1
    outer loop
      vertex -7.04306 2.78854 1
      vertex -5.64839 2.23636 1
      vertex -6.63802 3.64928 1
    endloop
  endfacet
  facet normal 0 0 1
    outer loop
      vertex -7.04306 2.78854 1
      vertex -5.88414 1.51079 1
      vertex -5.64839 2.23636 1
    endloop
  endfacet
  facet normal 0 0 -1
    outer loop
      vertex -7.33702 -1.88383 0
      vertex -3.05104 -0.783373 0
      vertex -7.04306 -2.78854 0
    endloop
  endfacet
  facet normal -0 0 -1
    outer loop
      vertex -7.33702 -1.88383 0
      vertex -3.12516 -0.394799 0
      vertex -3.05104 -0.783373 0
    endloop
  endfacet
  facet normal -0.951056 -0.309017 0
    outer loop
      vertex -7.33702 -1.88383 0
      vertex -7.04306 -2.78854 0
      vertex -7.33702 -1.88383 1
    endloop
  endfacet
  facet normal 0 0 1
    outer loop
      vertex -7.33702 -1.88383 1
      vertex -5.88414 -1.51079 1
      vertex -6.0271 -0.761399 1
    endloop
  endfacet
  facet normal -0.951056 -0.309017 0
    outer loop
      vertex -7.33702 -1.88383 1
      vertex -7.04306 -2.78854 0
      vertex -7.04306 -2.78854 1
    endloop
  endfacet
  facet normal 0 0 1
    outer loop
      vertex -7.33702 -1.88383 1
      vertex -7.04306 -2.78854 1
      vertex -5.88414 -1.51079 1
    endloop
  endfacet
  facet normal 0 0 -1
    outer loop
      vertex -7.33702 1.88383 0
      vertex -3.05104 0.783373 0
      vertex -3.12516 0.394799 0
    endloop
  endfacet
  facet normal 0 0 -1
    outer loop
      vertex -7.33702 1.88383 0
      vertex -7.04306 2.78854 0
      vertex -3.05104 0.783373 0
    endloop
  endfacet
  facet normal -0.951056 0.309017 0
    outer loop
      vertex -7.33702 1.88383 0
      vertex -7.04306 2.78854 1
      vertex -7.04306 2.78854 0
    endloop
  endfacet
  facet normal -0.951056 0.309017 0
    outer loop
      vertex -7.33702 1.88383 0
      vertex -7.33702 1.88383 1
      vertex -7.04306 2.78854 1
    endloop
  endfacet
  facet normal -0 0 1
    outer loop
      vertex -7.33702 1.88383 1
      vertex -5.88414 1.51079 1
      vertex -7.04306 2.78854 1
    endloop
  endfacet
  facet normal 0 0 1
    outer loop
      vertex -7.33702 1.88383 1
      vertex -6.0271 0.761399 1
      vertex -5.88414 1.51079 1
    endloop
  endfacet
  facet normal 0 0 -1
    outer loop
      vertex -7.51527 -0.949399 0
      vertex -3.12516 -0.394799 0
      vertex -7.33702 -1.88383 0
    endloop
  endfacet
  facet normal -0 0 -1
    outer loop
      vertex -7.51527 -0.949399 0
      vertex -3.15 0 0
      vertex -3.12516 -0.394799 0
    endloop
  endfacet
  facet normal -0.982287 -0.187381 0
    outer loop
      vertex -7.51527 -0.949399 0
      vertex -7.33702 -1.88383 0
      vertex -7.51527 -0.949399 1
    endloop
  endfacet
  facet normal 0 0 1
    outer loop
      vertex -7.51527 -0.949399 1
      vertex -6.0271 -0.761399 1
      vertex -6.075 0 1
    endloop
  endfacet
  facet normal -0.982287 -0.187381 0
    outer loop
      vertex -7.51527 -0.949399 1
      vertex -7.33702 -1.88383 0
      vertex -7.33702 -1.88383 1
    endloop
  endfacet
  facet normal 0 0 1
    outer loop
      vertex -7.51527 -0.949399 1
      vertex -7.33702 -1.88383 1
      vertex -6.0271 -0.761399 1
    endloop
  endfacet
  facet normal 0 0 -1
    outer loop
      vertex -7.51527 0.949399 0
      vertex -3.12516 0.394799 0
      vertex -3.15 0 0
    endloop
  endfacet
  facet normal 0 0 -1
    outer loop
      vertex -7.51527 0.949399 0
      vertex -7.33702 1.88383 0
      vertex -3.12516 0.394799 0
    endloop
  endfacet
  facet normal -0.982287 0.187381 0
    outer loop
      vertex -7.51527 0.949399 0
      vertex -7.33702 1.88383 1
      vertex -7.33702 1.88383 0
    endloop
  endfacet
  facet normal -0.982287 0.187381 0
    outer loop
      vertex -7.51527 0.949399 0
      vertex -7.51527 0.949399 1
      vertex -7.33702 1.88383 1
    endloop
  endfacet
  facet normal -0 0 1
    outer loop
      vertex -7.51527 0.949399 1
      vertex -6.0271 0.761399 1
      vertex -7.33702 1.88383 1
    endloop
  endfacet
  facet normal 0 0 1
    outer loop
      vertex -7.51527 0.949399 1
      vertex -6.075 0 1
      vertex -6.0271 0.761399 1
    endloop
  endfacet
  facet normal 0 0 -1
    outer loop
      vertex -7.575 0 0
      vertex -3.15 0 0
      vertex -7.51527 -0.949399 0
    endloop
  endfacet
  facet normal -0.998027 -0.0627909 0
    outer loop
      vertex -7.575 0 0
      vertex -7.51527 -0.949399 0
      vertex -7.575 0 1
    endloop
  endfacet
  facet normal 0 0 -1
    outer loop
      vertex -7.575 0 0
      vertex -7.51527 0.949399 0
      vertex -3.15 0 0
    endloop
  endfacet
  facet normal -0.998027 0.0627909 0
    outer loop
      vertex -7.575 0 0
      vertex -7.51527 0.949399 1
      vertex -7.51527 0.949399 0
    endloop
  endfacet
  facet normal -0.998027 0.0627909 0
    outer loop
      vertex -7.575 0 0
      vertex -7.575 0 1
      vertex -7.51527 0.949399 1
    endloop
  endfacet
  facet normal 0 0 1
    outer loop
      vertex -7.575 0 1
      vertex -6.075 0 1
      vertex -7.51527 0.949399 1
    endloop
  endfacet
  facet normal -0.998027 -0.0627909 0
    outer loop
      vertex -7.575 0 1
      vertex -7.51527 -0.949399 0
      vertex -7.51527 -0.949399 1
    endloop
  endfacet
  facet normal 0 0 1
    outer loop
      vertex -7.575 0 1
      vertex -7.51527 -0.949399 1
      vertex -6.075 0 1
    endloop
  endfacet
  facet normal -0.125334 0.992115 0
    outer loop
      vertex 0.197789 -3.14378 0
      vertex 0.197789 -3.14378 6.05
      vertex 0.590251 -3.0942 0
    endloop
  endfacet
  facet normal 0 0 -1
    outer loop
      vertex 0.197789 -3.14378 0
      vertex 0.590251 -3.0942 0
      vertex 0.475637 -7.56005 0
    endloop
  endfacet
  facet normal -0 0 1
    outer loop
      vertex 0.197789 -3.14378 6.05
      vertex 0.381452 -6.06301 6.05
      vertex 0.590251 -3.0942 6.05
    endloop
  endfacet
  facet normal -0.125334 0.992115 0
    outer loop
      vertex 0.197789 -3.14378 6.05
      vertex 0.590251 -3.0942 6.05
      vertex 0.590251 -3.0942 0
    endloop
  endfacet
  facet normal 0 0 -1
    outer loop
      vertex 0.197789 3.14378 0
      vertex 0.475637 7.56005 0
      vertex 0.590251 3.0942 0
    endloop
  endfacet
  facet normal -0.125334 -0.992115 -0
    outer loop
      vertex 0.197789 3.14378 0
      vertex 0.590251 3.0942 0
      vertex 0.590251 3.0942 6.05
    endloop
  endfacet
  facet normal -0.125334 -0.992115 0
    outer loop
      vertex 0.197789 3.14378 0
      vertex 0.590251 3.0942 6.05
      vertex 0.197789 3.14378 6.05
    endloop
  endfacet
  facet normal 0 0 1
    outer loop
      vertex 0.197789 3.14378 6.05
      vertex 0.590251 3.0942 6.05
      vertex 0.381452 6.06301 6.05
    endloop
  endfacet
  facet normal -0 0 1
    outer loop
      vertex 0.381452 -6.06301 1
      vertex 0.475637 -7.56005 1
      vertex 1.13834 -5.96739 1
    endloop
  endfacet
  facet normal 0.125333 -0.992115 0
    outer loop
      vertex 0.381452 -6.06301 1
      vertex 1.13834 -5.96739 1
      vertex 1.13834 -5.96739 6.05
    endloop
  endfacet
  facet normal 0.125333 -0.992115 0
    outer loop
      vertex 0.381452 -6.06301 1
      vertex 1.13834 -5.96739 6.05
      vertex 0.381452 -6.06301 6.05
    endloop
  endfacet
  facet normal 0 0 1
    outer loop
      vertex 0.381452 -6.06301 6.05
      vertex 1.13834 -5.96739 6.05
      vertex 0.590251 -3.0942 6.05
    endloop
  endfacet
  facet normal 0.125333 0.992115 0
    outer loop
      vertex 0.381452 6.06301 1
      vertex 0.381452 6.06301 6.05
      vertex 1.13834 5.96739 1
    endloop
  endfacet
  facet normal 0 0 1
    outer loop
      vertex 0.381452 6.06301 1
      vertex 1.13834 5.96739 1
      vertex 0.475637 7.56005 1
    endloop
  endfacet
  facet normal 0 0 1
    outer loop
      vertex 0.381452 6.06301 6.05
      vertex 0.590251 3.0942 6.05
      vertex 1.13834 5.96739 6.05
    endloop
  endfacet
  facet normal 0.125333 0.992115 -0
    outer loop
      vertex 0.381452 6.06301 6.05
      vertex 1.13834 5.96739 6.05
      vertex 1.13834 5.96739 1
    endloop
  endfacet
  facet normal 0 0 -1
    outer loop
      vertex 0.475637 -7.56005 0
      vertex 0.590251 -3.0942 0
      vertex 1.41941 -7.44083 0
    endloop
  endfacet
  facet normal 0.125333 -0.992115 0
    outer loop
      vertex 0.475637 -7.56005 0
      vertex 1.41941 -7.44083 0
      vertex 1.41941 -7.44083 1
    endloop
  endfacet
  facet normal 0.125333 -0.992115 0
    outer loop
      vertex 0.475637 -7.56005 0
      vertex 1.41941 -7.44083 1
      vertex 0.475637 -7.56005 1
    endloop
  endfacet
  facet normal 0 0 1
    outer loop
      vertex 0.475637 -7.56005 1
      vertex 1.41941 -7.44083 1
      vertex 1.13834 -5.96739 1
    endloop
  endfacet
  facet normal 0.125333 0.992115 0
    outer loop
      vertex 0.475637 7.56005 0
      vertex 0.475637 7.56005 1
      vertex 1.41941 7.44083 0
    endloop
  endfacet
  facet normal 0 0 -1
    outer loop
      vertex 0.475637 7.56005 0
      vertex 1.41941 7.44083 0
      vertex 0.590251 3.0942 0
    endloop
  endfacet
  facet normal 0 0 1
    outer loop
      vertex 0.475637 7.56005 1
      vertex 1.13834 5.96739 1
      vertex 1.41941 7.44083 1
    endloop
  endfacet
  facet normal 0.125333 0.992115 -0
    outer loop
      vertex 0.475637 7.56005 1
      vertex 1.41941 7.44083 1
      vertex 1.41941 7.44083 0
    endloop
  endfacet
  facet normal -0.248689 0.968583 0
    outer loop
      vertex 0.590251 -3.0942 0
      vertex 0.590251 -3.0942 6.05
      vertex 0.973403 -2.99583 0
    endloop
  endfacet
  facet normal 0 0 -1
    outer loop
      vertex 0.590251 -3.0942 0
      vertex 0.973403 -2.99583 0
      vertex 1.41941 -7.44083 0
    endloop
  endfacet
  facet normal -0.248689 0.968583 0
    outer loop
      vertex 0.590251 -3.0942 6.05
      vertex 0.973403 -2.99583 6.05
      vertex 0.973403 -2.99583 0
    endloop
  endfacet
  facet normal -0 0 1
    outer loop
      vertex 0.590251 -3.0942 6.05
      vertex 1.13834 -5.96739 6.05
      vertex 0.973403 -2.99583 6.05
    endloop
  endfacet
  facet normal -0.248689 -0.968583 -0
    outer loop
      vertex 0.590251 3.0942 0
      vertex 0.973403 2.99583 0
      vertex 0.973403 2.99583 6.05
    endloop
  endfacet
  facet normal -0.248689 -0.968583 0
    outer loop
      vertex 0.590251 3.0942 0
      vertex 0.973403 2.99583 6.05
      vertex 0.590251 3.0942 6.05
    endloop
  endfacet
  facet normal 0 0 -1
    outer loop
      vertex 0.590251 3.0942 0
      vertex 1.41941 7.44083 0
      vertex 0.973403 2.99583 0
    endloop
  endfacet
  facet normal 0 0 1
    outer loop
      vertex 0.590251 3.0942 6.05
      vertex 0.973403 2.99583 6.05
      vertex 1.13834 5.96739 6.05
    endloop
  endfacet
  facet normal -0.368125 0.929776 0
    outer loop
      vertex 0.973403 -2.99583 0
      vertex 0.973403 -2.99583 6.05
      vertex 1.3412 -2.8502 0
    endloop
  endfacet
  facet normal 0 0 -1
    outer loop
      vertex 0.973403 -2.99583 0
      vertex 1.3412 -2.8502 0
      vertex 2.3408 -7.20425 0
    endloop
  endfacet
  facet normal 0 0 -1
    outer loop
      vertex 0.973403 -2.99583 0
      vertex 2.3408 -7.20425 0
      vertex 1.41941 -7.44083 0
    endloop
  endfacet
  facet normal 0 0 1
    outer loop
      vertex 0.973403 -2.99583 6.05
      vertex 1.13834 -5.96739 6.05
      vertex 1.87728 -5.77767 6.05
    endloop
  endfacet
  facet normal -0.368125 0.929776 0
    outer loop
      vertex 0.973403 -2.99583 6.05
      vertex 1.3412 -2.8502 6.05
      vertex 1.3412 -2.8502 0
    endloop
  endfacet
  facet normal -0 0 1
    outer loop
      vertex 0.973403 -2.99583 6.05
      vertex 1.87728 -5.77767 6.05
      vertex 1.3412 -2.8502 6.05
    endloop
  endfacet
  facet normal -0.368125 -0.929776 -0
    outer loop
      vertex 0.973403 2.99583 0
      vertex 1.3412 2.8502 0
      vertex 1.3412 2.8502 6.05
    endloop
  endfacet
  facet normal -0.368125 -0.929776 0
    outer loop
      vertex 0.973403 2.99583 0
      vertex 1.3412 2.8502 6.05
      vertex 0.973403 2.99583 6.05
    endloop
  endfacet
  facet normal -0 0 -1
    outer loop
      vertex 0.973403 2.99583 0
      vertex 1.41941 7.44083 0
      vertex 2.3408 7.20425 0
    endloop
  endfacet
  facet normal 0 0 -1
    outer loop
      vertex 0.973403 2.99583 0
      vertex 2.3408 7.20425 0
      vertex 1.3412 2.8502 0
    endloop
  endfacet
  facet normal 0 0 1
    outer loop
      vertex 0.973403 2.99583 6.05
      vertex 1.3412 2.8502 6.05
      vertex 1.87728 5.77767 6.05
    endloop
  endfacet
  facet normal 0 0 1
    outer loop
      vertex 0.973403 2.99583 6.05
      vertex 1.87728 5.77767 6.05
      vertex 1.13834 5.96739 6.05
    endloop
  endfacet
  facet normal -0 0 1
    outer loop
      vertex 1.13834 -5.96739 1
      vertex 1.41941 -7.44083 1
      vertex 1.87728 -5.77767 1
    endloop
  endfacet
  facet normal 0.24869 -0.968583 0
    outer loop
      vertex 1.13834 -5.96739 1
      vertex 1.87728 -5.77767 1
      vertex 1.87728 -5.77767 6.05
    endloop
  endfacet
  facet normal 0.24869 -0.968583 0
    outer loop
      vertex 1.13834 -5.96739 1
      vertex 1.87728 -5.77767 6.05
      vertex 1.13834 -5.96739 6.05
    endloop
  endfacet
  facet normal 0.24869 0.968583 0
    outer loop
      vertex 1.13834 5.96739 1
      vertex 1.13834 5.96739 6.05
      vertex 1.87728 5.77767 1
    endloop
  endfacet
  facet normal 0 0 1
    outer loop
      vertex 1.13834 5.96739 1
      vertex 1.87728 5.77767 1
      vertex 1.41941 7.44083 1
    endloop
  endfacet
  facet normal 0.24869 0.968583 -0
    outer loop
      vertex 1.13834 5.96739 6.05
      vertex 1.87728 5.77767 6.05
      vertex 1.87728 5.77767 1
    endloop
  endfacet
  facet normal -0.481753 0.876307 0
    outer loop
      vertex 1.3412 -2.8502 0
      vertex 1.3412 -2.8502 6.05
      vertex 1.68785 -2.65963 0
    endloop
  endfacet
  facet normal 0 0 -1
    outer loop
      vertex 1.3412 -2.8502 0
      vertex 1.68785 -2.65963 0
      vertex 3.22528 -6.85406 0
    endloop
  endfacet
  facet normal 0 0 -1
    outer loop
      vertex 1.3412 -2.8502 0
      vertex 3.22528 -6.85406 0
      vertex 2.3408 -7.20425 0
    endloop
  endfacet
  facet normal -0.481753 0.876307 0
    outer loop
      vertex 1.3412 -2.8502 6.05
      vertex 1.68785 -2.65963 6.05
      vertex 1.68785 -2.65963 0
    endloop
  endfacet
  facet normal 0 0 1
    outer loop
      vertex 1.3412 -2.8502 6.05
      vertex 1.87728 -5.77767 6.05
      vertex 2.58661 -5.49682 6.05
    endloop
  endfacet
  facet normal -0 0 1
    outer loop
      vertex 1.3412 -2.8502 6.05
      vertex 2.58661 -5.49682 6.05
      vertex 1.68785 -2.65963 6.05
    endloop
  endfacet
  facet normal -0.481753 -0.876307 -0
    outer loop
      vertex 1.3412 2.8502 0
      vertex 1.68785 2.65963 0
      vertex 1.68785 2.65963 6.05
    endloop
  endfacet
  facet normal -0.481753 -0.876307 0
    outer loop
      vertex 1.3412 2.8502 0
      vertex 1.68785 2.65963 6.05
      vertex 1.3412 2.8502 6.05
    endloop
  endfacet
  facet normal -0 0 -1
    outer loop
      vertex 1.3412 2.8502 0
      vertex 2.3408 7.20425 0
      vertex 3.22528 6.85406 0
    endloop
  endfacet
  facet normal 0 0 -1
    outer loop
      vertex 1.3412 2.8502 0
      vertex 3.22528 6.85406 0
      vertex 1.68785 2.65963 0
    endloop
  endfacet
  facet normal 0 0 1
    outer loop
      vertex 1.3412 2.8502 6.05
      vertex 1.68785 2.65963 6.05
      vertex 2.58661 5.49682 6.05
    endloop
  endfacet
  facet normal 0 0 1
    outer loop
      vertex 1.3412 2.8502 6.05
      vertex 2.58661 5.49682 6.05
      vertex 1.87728 5.77767 6.05
    endloop
  endfacet
  facet normal 0.24869 -0.968583 0
    outer loop
      vertex 1.41941 -7.44083 0
      vertex 2.3408 -7.20425 0
      vertex 2.3408 -7.20425 1
    endloop
  endfacet
  facet normal 0.24869 -0.968583 0
    outer loop
      vertex 1.41941 -7.44083 0
      vertex 2.3408 -7.20425 1
      vertex 1.41941 -7.44083 1
    endloop
  endfacet
  facet normal 0 0 1
    outer loop
      vertex 1.41941 -7.44083 1
      vertex 2.3408 -7.20425 1
      vertex 1.87728 -5.77767 1
    endloop
  endfacet
  facet normal 0.24869 0.968583 0
    outer loop
      vertex 1.41941 7.44083 0
      vertex 1.41941 7.44083 1
      vertex 2.3408 7.20425 0
    endloop
  endfacet
  facet normal 0 0 1
    outer loop
      vertex 1.41941 7.44083 1
      vertex 1.87728 5.77767 1
      vertex 2.3408 7.20425 1
    endloop
  endfacet
  facet normal 0.24869 0.968583 -0
    outer loop
      vertex 1.41941 7.44083 1
      vertex 2.3408 7.20425 1
      vertex 2.3408 7.20425 0
    endloop
  endfacet
  facet normal -0.587785 0.809017 0
    outer loop
      vertex 1.68785 -2.65963 0
      vertex 1.68785 -2.65963 6.05
      vertex 2.00788 -2.42712 0
    endloop
  endfacet
  facet normal 0 0 -1
    outer loop
      vertex 1.68785 -2.65963 0
      vertex 2.00788 -2.42712 0
      vertex 4.05889 -6.39578 0
    endloop
  endfacet
  facet normal 0 0 -1
    outer loop
      vertex 1.68785 -2.65963 0
      vertex 4.05889 -6.39578 0
      vertex 3.22528 -6.85406 0
    endloop
  endfacet
  facet normal -0.587785 0.809017 0
    outer loop
      vertex 1.68785 -2.65963 6.05
      vertex 2.00788 -2.42712 6.05
      vertex 2.00788 -2.42712 0
    endloop
  endfacet
  facet normal 0 0 1
    outer loop
      vertex 1.68785 -2.65963 6.05
      vertex 2.58661 -5.49682 6.05
      vertex 3.25515 -5.12929 6.05
    endloop
  endfacet
  facet normal -0 0 1
    outer loop
      vertex 1.68785 -2.65963 6.05
      vertex 3.25515 -5.12929 6.05
      vertex 2.00788 -2.42712 6.05
    endloop
  endfacet
  facet normal -0.587785 -0.809017 -0
    outer loop
      vertex 1.68785 2.65963 0
      vertex 2.00788 2.42712 0
      vertex 2.00788 2.42712 6.05
    endloop
  endfacet
  facet normal -0.587785 -0.809017 0
    outer loop
      vertex 1.68785 2.65963 0
      vertex 2.00788 2.42712 6.05
      vertex 1.68785 2.65963 6.05
    endloop
  endfacet
  facet normal -0 0 -1
    outer loop
      vertex 1.68785 2.65963 0
      vertex 3.22528 6.85406 0
      vertex 4.05889 6.39578 0
    endloop
  endfacet
  facet normal 0 0 -1
    outer loop
      vertex 1.68785 2.65963 0
      vertex 4.05889 6.39578 0
      vertex 2.00788 2.42712 0
    endloop
  endfacet
  facet normal 0 0 1
    outer loop
      vertex 1.68785 2.65963 6.05
      vertex 2.00788 2.42712 6.05
      vertex 3.25515 5.12929 6.05
    endloop
  endfacet
  facet normal 0 0 1
    outer loop
      vertex 1.68785 2.65963 6.05
      vertex 3.25515 5.12929 6.05
      vertex 2.58661 5.49682 6.05
    endloop
  endfacet
  facet normal -0 0 1
    outer loop
      vertex 1.87728 -5.77767 1
      vertex 2.3408 -7.20425 1
      vertex 2.58661 -5.49682 1
    endloop
  endfacet
  facet normal 0.368124 -0.929777 0
    outer loop
      vertex 1.87728 -5.77767 1
      vertex 2.58661 -5.49682 1
      vertex 2.58661 -5.49682 6.05
    endloop
  endfacet
  facet normal 0.368124 -0.929777 0
    outer loop
      vertex 1.87728 -5.77767 1
      vertex 2.58661 -5.49682 6.05
      vertex 1.87728 -5.77767 6.05
    endloop
  endfacet
  facet normal 0.368124 0.929777 0
    outer loop
      vertex 1.87728 5.77767 1
      vertex 1.87728 5.77767 6.05
      vertex 2.58661 5.49682 1
    endloop
  endfacet
  facet normal 0 0 1
    outer loop
      vertex 1.87728 5.77767 1
      vertex 2.58661 5.49682 1
      vertex 2.3408 7.20425 1
    endloop
  endfacet
  facet normal 0.368124 0.929777 -0
    outer loop
      vertex 1.87728 5.77767 6.05
      vertex 2.58661 5.49682 6.05
      vertex 2.58661 5.49682 1
    endloop
  endfacet
  facet normal -0.684548 0.728968 0
    outer loop
      vertex 2.00788 -2.42712 0
      vertex 2.00788 -2.42712 6.05
      vertex 2.29625 -2.15632 0
    endloop
  endfacet
  facet normal 0 0 -1
    outer loop
      vertex 2.00788 -2.42712 0
      vertex 2.29625 -2.15632 0
      vertex 4.82849 -5.83664 0
    endloop
  endfacet
  facet normal 0 0 -1
    outer loop
      vertex 2.00788 -2.42712 0
      vertex 4.82849 -5.83664 0
      vertex 4.05889 -6.39578 0
    endloop
  endfacet
  facet normal -0.684548 0.728968 0
    outer loop
      vertex 2.00788 -2.42712 6.05
      vertex 2.29625 -2.15632 6.05
      vertex 2.29625 -2.15632 0
    endloop
  endfacet
  facet normal 0 0 1
    outer loop
      vertex 2.00788 -2.42712 6.05
      vertex 3.25515 -5.12929 6.05
      vertex 3.87235 -4.68087 6.05
    endloop
  endfacet
  facet normal -0 0 1
    outer loop
      vertex 2.00788 -2.42712 6.05
      vertex 3.87235 -4.68087 6.05
      vertex 2.29625 -2.15632 6.05
    endloop
  endfacet
  facet normal -0.684548 -0.728968 -0
    outer loop
      vertex 2.00788 2.42712 0
      vertex 2.29625 2.15632 0
      vertex 2.29625 2.15632 6.05
    endloop
  endfacet
  facet normal -0.684548 -0.728968 0
    outer loop
      vertex 2.00788 2.42712 0
      vertex 2.29625 2.15632 6.05
      vertex 2.00788 2.42712 6.05
    endloop
  endfacet
  facet normal -0 0 -1
    outer loop
      vertex 2.00788 2.42712 0
      vertex 4.05889 6.39578 0
      vertex 4.82849 5.83664 0
    endloop
  endfacet
  facet normal 0 0 -1
    outer loop
      vertex 2.00788 2.42712 0
      vertex 4.82849 5.83664 0
      vertex 2.29625 2.15632 0
    endloop
  endfacet
  facet normal 0 0 1
    outer loop
      vertex 2.00788 2.42712 6.05
      vertex 2.29625 2.15632 6.05
      vertex 3.87235 4.68087 6.05
    endloop
  endfacet
  facet normal 0 0 1
    outer loop
      vertex 2.00788 2.42712 6.05
      vertex 3.87235 4.68087 6.05
      vertex 3.25515 5.12929 6.05
    endloop
  endfacet
  facet normal -0.770512 0.637425 0
    outer loop
      vertex 2.29625 -2.15632 0
      vertex 2.29625 -2.15632 6.05
      vertex 2.5484 -1.85152 6.05
    endloop
  endfacet
  facet normal 0 0 -1
    outer loop
      vertex 2.29625 -2.15632 0
      vertex 2.5484 -1.85152 0
      vertex 5.52194 -5.18544 0
    endloop
  endfacet
  facet normal -0.770512 0.637425 0
    outer loop
      vertex 2.29625 -2.15632 0
      vertex 2.5484 -1.85152 6.05
      vertex 2.5484 -1.85152 0
    endloop
  endfacet
  facet normal 0 0 -1
    outer loop
      vertex 2.29625 -2.15632 0
      vertex 5.52194 -5.18544 0
      vertex 4.82849 -5.83664 0
    endloop
  endfacet
  facet normal 0 0 1
    outer loop
      vertex 2.29625 -2.15632 6.05
      vertex 3.87235 -4.68087 6.05
      vertex 4.42848 -4.15862 6.05
    endloop
  endfacet
  facet normal -0 0 1
    outer loop
      vertex 2.29625 -2.15632 6.05
      vertex 4.42848 -4.15862 6.05
      vertex 2.5484 -1.85152 6.05
    endloop
  endfacet
  facet normal -0.770512 -0.637425 0
    outer loop
      vertex 2.29625 2.15632 0
      vertex 2.5484 1.85152 0
      vertex 2.29625 2.15632 6.05
    endloop
  endfacet
  facet normal -0 0 -1
    outer loop
      vertex 2.29625 2.15632 0
      vertex 4.82849 5.83664 0
      vertex 5.52194 5.18544 0
    endloop
  endfacet
  facet normal 0 0 -1
    outer loop
      vertex 2.29625 2.15632 0
      vertex 5.52194 5.18544 0
      vertex 2.5484 1.85152 0
    endloop
  endfacet
  facet normal -0.770512 -0.637425 0
    outer loop
      vertex 2.29625 2.15632 6.05
      vertex 2.5484 1.85152 0
      vertex 2.5484 1.85152 6.05
    endloop
  endfacet
  facet normal 0 0 1
    outer loop
      vertex 2.29625 2.15632 6.05
      vertex 2.5484 1.85152 6.05
      vertex 4.42848 4.15862 6.05
    endloop
  endfacet
  facet normal 0 0 1
    outer loop
      vertex 2.29625 2.15632 6.05
      vertex 4.42848 4.15862 6.05
      vertex 3.87235 4.68087 6.05
    endloop
  endfacet
  facet normal 0.368124 -0.929777 0
    outer loop
      vertex 2.3408 -7.20425 0
      vertex 3.22528 -6.85406 0
      vertex 3.22528 -6.85406 1
    endloop
  endfacet
  facet normal 0.368124 -0.929777 0
    outer loop
      vertex 2.3408 -7.20425 0
      vertex 3.22528 -6.85406 1
      vertex 2.3408 -7.20425 1
    endloop
  endfacet
  facet normal 0 0 1
    outer loop
      vertex 2.3408 -7.20425 1
      vertex 3.22528 -6.85406 1
      vertex 2.58661 -5.49682 1
    endloop
  endfacet
  facet normal 0.368124 0.929777 0
    outer loop
      vertex 2.3408 7.20425 0
      vertex 2.3408 7.20425 1
      vertex 3.22528 6.85406 0
    endloop
  endfacet
  facet normal 0 0 1
    outer loop
      vertex 2.3408 7.20425 1
      vertex 2.58661 5.49682 1
      vertex 3.22528 6.85406 1
    endloop
  endfacet
  facet normal 0.368124 0.929777 -0
    outer loop
      vertex 2.3408 7.20425 1
      vertex 3.22528 6.85406 1
      vertex 3.22528 6.85406 0
    endloop
  endfacet
  facet normal -0.844328 0.535827 0
    outer loop
      vertex 2.5484 -1.85152 0
      vertex 2.5484 -1.85152 6.05
      vertex 2.76037 -1.51752 6.05
    endloop
  endfacet
  facet normal 0 0 -1
    outer loop
      vertex 2.5484 -1.85152 0
      vertex 2.76037 -1.51752 0
      vertex 6.1283 -4.45247 0
    endloop
  endfacet
  facet normal -0.844328 0.535827 0
    outer loop
      vertex 2.5484 -1.85152 0
      vertex 2.76037 -1.51752 6.05
      vertex 2.76037 -1.51752 0
    endloop
  endfacet
  facet normal 0 0 -1
    outer loop
      vertex 2.5484 -1.85152 0
      vertex 6.1283 -4.45247 0
      vertex 5.52194 -5.18544 0
    endloop
  endfacet
  facet normal 0 0 1
    outer loop
      vertex 2.5484 -1.85152 6.05
      vertex 4.42848 -4.15862 6.05
      vertex 4.91478 -3.5708 6.05
    endloop
  endfacet
  facet normal -0 0 1
    outer loop
      vertex 2.5484 -1.85152 6.05
      vertex 4.91478 -3.5708 6.05
      vertex 2.76037 -1.51752 6.05
    endloop
  endfacet
  facet normal -0.844328 -0.535827 0
    outer loop
      vertex 2.5484 1.85152 0
      vertex 2.76037 1.51752 0
      vertex 2.5484 1.85152 6.05
    endloop
  endfacet
  facet normal -0 0 -1
    outer loop
      vertex 2.5484 1.85152 0
      vertex 5.52194 5.18544 0
      vertex 6.1283 4.45247 0
    endloop
  endfacet
  facet normal 0 0 -1
    outer loop
      vertex 2.5484 1.85152 0
      vertex 6.1283 4.45247 0
      vertex 2.76037 1.51752 0
    endloop
  endfacet
  facet normal -0.844328 -0.535827 0
    outer loop
      vertex 2.5484 1.85152 6.05
      vertex 2.76037 1.51752 0
      vertex 2.76037 1.51752 6.05
    endloop
  endfacet
  facet normal 0 0 1
    outer loop
      vertex 2.5484 1.85152 6.05
      vertex 2.76037 1.51752 6.05
      vertex 4.91478 3.5708 6.05
    endloop
  endfacet
  facet normal 0 0 1
    outer loop
      vertex 2.5484 1.85152 6.05
      vertex 4.91478 3.5708 6.05
      vertex 4.42848 4.15862 6.05
    endloop
  endfacet
  facet normal -0 0 1
    outer loop
      vertex 2.58661 -5.49682 1
      vertex 3.22528 -6.85406 1
      vertex 3.25515 -5.12929 1
    endloop
  endfacet
  facet normal 0.481754 -0.876306 0
    outer loop
      vertex 2.58661 -5.49682 1
      vertex 3.25515 -5.12929 1
      vertex 3.25515 -5.12929 6.05
    endloop
  endfacet
  facet normal 0.481754 -0.876306 0
    outer loop
      vertex 2.58661 -5.49682 1
      vertex 3.25515 -5.12929 6.05
      vertex 2.58661 -5.49682 6.05
    endloop
  endfacet
  facet normal 0.481754 0.876306 0
    outer loop
      vertex 2.58661 5.49682 1
      vertex 2.58661 5.49682 6.05
      vertex 3.25515 5.12929 1
    endloop
  endfacet
  facet normal 0 0 1
    outer loop
      vertex 2.58661 5.49682 1
      vertex 3.25515 5.12929 1
      vertex 3.22528 6.85406 1
    endloop
  endfacet
  facet normal 0.481754 0.876306 -0
    outer loop
      vertex 2.58661 5.49682 6.05
      vertex 3.25515 5.12929 6.05
      vertex 3.25515 5.12929 1
    endloop
  endfacet
  facet normal -0.904827 0.42578 0
    outer loop
      vertex 2.76037 -1.51752 0
      vertex 2.76037 -1.51752 6.05
      vertex 2.9288 -1.15959 6.05
    endloop
  endfacet
  facet normal 0 0 -1
    outer loop
      vertex 2.76037 -1.51752 0
      vertex 2.9288 -1.15959 0
      vertex 6.63802 -3.64928 0
    endloop
  endfacet
  facet normal -0.904827 0.42578 0
    outer loop
      vertex 2.76037 -1.51752 0
      vertex 2.9288 -1.15959 6.05
      vertex 2.9288 -1.15959 0
    endloop
  endfacet
  facet normal 0 0 -1
    outer loop
      vertex 2.76037 -1.51752 0
      vertex 6.63802 -3.64928 0
      vertex 6.1283 -4.45247 0
    endloop
  endfacet
  facet normal 0 0 1
    outer loop
      vertex 2.76037 -1.51752 6.05
      vertex 4.91478 -3.5708 6.05
      vertex 5.32356 -2.92665 6.05
    endloop
  endfacet
  facet normal -0 0 1
    outer loop
      vertex 2.76037 -1.51752 6.05
      vertex 5.32356 -2.92665 6.05
      vertex 2.9288 -1.15959 6.05
    endloop
  endfacet
  facet normal -0.904827 -0.42578 0
    outer loop
      vertex 2.76037 1.51752 0
      vertex 2.9288 1.15959 0
      vertex 2.76037 1.51752 6.05
    endloop
  endfacet
  facet normal -0 0 -1
    outer loop
      vertex 2.76037 1.51752 0
      vertex 6.1283 4.45247 0
      vertex 6.63802 3.64928 0
    endloop
  endfacet
  facet normal 0 0 -1
    outer loop
      vertex 2.76037 1.51752 0
      vertex 6.63802 3.64928 0
      vertex 2.9288 1.15959 0
    endloop
  endfacet
  facet normal -0.904827 -0.42578 0
    outer loop
      vertex 2.76037 1.51752 6.05
      vertex 2.9288 1.15959 0
      vertex 2.9288 1.15959 6.05
    endloop
  endfacet
  facet normal 0 0 1
    outer loop
      vertex 2.76037 1.51752 6.05
      vertex 2.9288 1.15959 6.05
      vertex 5.32356 2.92665 6.05
    endloop
  endfacet
  facet normal 0 0 1
    outer loop
      vertex 2.76037 1.51752 6.05
      vertex 5.32356 2.92665 6.05
      vertex 4.91478 3.5708 6.05
    endloop
  endfacet
  facet normal -0.951056 0.309017 0
    outer loop
      vertex 2.9288 -1.15959 0
      vertex 2.9288 -1.15959 6.05
      vertex 3.05104 -0.783373 6.05
    endloop
  endfacet
  facet normal 0 0 -1
    outer loop
      vertex 2.9288 -1.15959 0
      vertex 3.05104 -0.783373 0
      vertex 7.04306 -2.78854 0
    endloop
  endfacet
  facet normal -0.951056 0.309017 0
    outer loop
      vertex 2.9288 -1.15959 0
      vertex 3.05104 -0.783373 6.05
      vertex 3.05104 -0.783373 0
    endloop
  endfacet
  facet normal 0 0 -1
    outer loop
      vertex 2.9288 -1.15959 0
      vertex 7.04306 -2.78854 0
      vertex 6.63802 -3.64928 0
    endloop
  endfacet
  facet normal 0 0 1
    outer loop
      vertex 2.9288 -1.15959 6.05
      vertex 5.32356 -2.92665 6.05
      vertex 5.64839 -2.23636 6.05
    endloop
  endfacet
  facet normal -0 0 1
    outer loop
      vertex 2.9288 -1.15959 6.05
      vertex 5.64839 -2.23636 6.05
      vertex 3.05104 -0.783373 6.05
    endloop
  endfacet
  facet normal -0.951056 -0.309017 0
    outer loop
      vertex 2.9288 1.15959 0
      vertex 3.05104 0.783373 0
      vertex 2.9288 1.15959 6.05
    endloop
  endfacet
  facet normal -0 0 -1
    outer loop
      vertex 2.9288 1.15959 0
      vertex 6.63802 3.64928 0
      vertex 7.04306 2.78854 0
    endloop
  endfacet
  facet normal 0 0 -1
    outer loop
      vertex 2.9288 1.15959 0
      vertex 7.04306 2.78854 0
      vertex 3.05104 0.783373 0
    endloop
  endfacet
  facet normal -0.951056 -0.309017 0
    outer loop
      vertex 2.9288 1.15959 6.05
      vertex 3.05104 0.783373 0
      vertex 3.05104 0.783373 6.05
    endloop
  endfacet
  facet normal 0 0 1
    outer loop
      vertex 2.9288 1.15959 6.05
      vertex 3.05104 0.783373 6.05
      vertex 5.64839 2.23636 6.05
    endloop
  endfacet
  facet normal 0 0 1
    outer loop
      vertex 2.9288 1.15959 6.05
      vertex 5.64839 2.23636 6.05
      vertex 5.32356 2.92665 6.05
    endloop
  endfacet
  facet normal -0.982287 0.187381 0
    outer loop
      vertex 3.05104 -0.783373 0
      vertex 3.05104 -0.783373 6.05
      vertex 3.12516 -0.394799 6.05
    endloop
  endfacet
  facet normal 0 0 -1
    outer loop
      vertex 3.05104 -0.783373 0
      vertex 3.12516 -0.394799 0
      vertex 7.33702 -1.88383 0
    endloop
  endfacet
  facet normal -0.982287 0.187381 0
    outer loop
      vertex 3.05104 -0.783373 0
      vertex 3.12516 -0.394799 6.05
      vertex 3.12516 -0.394799 0
    endloop
  endfacet
  facet normal 0 0 -1
    outer loop
      vertex 3.05104 -0.783373 0
      vertex 7.33702 -1.88383 0
      vertex 7.04306 -2.78854 0
    endloop
  endfacet
  facet normal 0 0 1
    outer loop
      vertex 3.05104 -0.783373 6.05
      vertex 5.64839 -2.23636 6.05
      vertex 5.88414 -1.51079 6.05
    endloop
  endfacet
  facet normal -0 0 1
    outer loop
      vertex 3.05104 -0.783373 6.05
      vertex 5.88414 -1.51079 6.05
      vertex 3.12516 -0.394799 6.05
    endloop
  endfacet
  facet normal -0.982287 -0.187381 0
    outer loop
      vertex 3.05104 0.783373 0
      vertex 3.12516 0.394799 0
      vertex 3.05104 0.783373 6.05
    endloop
  endfacet
  facet normal -0 0 -1
    outer loop
      vertex 3.05104 0.783373 0
      vertex 7.04306 2.78854 0
      vertex 7.33702 1.88383 0
    endloop
  endfacet
  facet normal 0 0 -1
    outer loop
      vertex 3.05104 0.783373 0
      vertex 7.33702 1.88383 0
      vertex 3.12516 0.394799 0
    endloop
  endfacet
  facet normal -0.982287 -0.187381 0
    outer loop
      vertex 3.05104 0.783373 6.05
      vertex 3.12516 0.394799 0
      vertex 3.12516 0.394799 6.05
    endloop
  endfacet
  facet normal 0 0 1
    outer loop
      vertex 3.05104 0.783373 6.05
      vertex 3.12516 0.394799 6.05
      vertex 5.88414 1.51079 6.05
    endloop
  endfacet
  facet normal 0 0 1
    outer loop
      vertex 3.05104 0.783373 6.05
      vertex 5.88414 1.51079 6.05
      vertex 5.64839 2.23636 6.05
    endloop
  endfacet
  facet normal -0.998027 0.06279 0
    outer loop
      vertex 3.12516 -0.394799 0
      vertex 3.12516 -0.394799 6.05
      vertex 3.15 0 6.05
    endloop
  endfacet
  facet normal 0 0 -1
    outer loop
      vertex 3.12516 -0.394799 0
      vertex 3.15 0 0
      vertex 7.51527 -0.949399 0
    endloop
  endfacet
  facet normal -0.998027 0.06279 0
    outer loop
      vertex 3.12516 -0.394799 0
      vertex 3.15 0 6.05
      vertex 3.15 0 0
    endloop
  endfacet
  facet normal 0 0 -1
    outer loop
      vertex 3.12516 -0.394799 0
      vertex 7.51527 -0.949399 0
      vertex 7.33702 -1.88383 0
    endloop
  endfacet
  facet normal 0 0 1
    outer loop
      vertex 3.12516 -0.394799 6.05
      vertex 5.88414 -1.51079 6.05
      vertex 6.0271 -0.761399 6.05
    endloop
  endfacet
  facet normal -0 0 1
    outer loop
      vertex 3.12516 -0.394799 6.05
      vertex 6.0271 -0.761399 6.05
      vertex 3.15 0 6.05
    endloop
  endfacet
  facet normal -0.998027 -0.06279 0
    outer loop
      vertex 3.12516 0.394799 0
      vertex 3.15 0 0
      vertex 3.12516 0.394799 6.05
    endloop
  endfacet
  facet normal -0 0 -1
    outer loop
      vertex 3.12516 0.394799 0
      vertex 7.33702 1.88383 0
      vertex 7.51527 0.949399 0
    endloop
  endfacet
  facet normal 0 0 -1
    outer loop
      vertex 3.12516 0.394799 0
      vertex 7.51527 0.949399 0
      vertex 3.15 0 0
    endloop
  endfacet
  facet normal -0.998027 -0.06279 0
    outer loop
      vertex 3.12516 0.394799 6.05
      vertex 3.15 0 0
      vertex 3.15 0 6.05
    endloop
  endfacet
  facet normal 0 0 1
    outer loop
      vertex 3.12516 0.394799 6.05
      vertex 3.15 0 6.05
      vertex 6.0271 0.761399 6.05
    endloop
  endfacet
  facet normal 0 0 1
    outer loop
      vertex 3.12516 0.394799 6.05
      vertex 6.0271 0.761399 6.05
      vertex 5.88414 1.51079 6.05
    endloop
  endfacet
  facet normal 0 0 -1
    outer loop
      vertex 3.15 0 0
      vertex 7.51527 0.949399 0
      vertex 7.575 0 0
    endloop
  endfacet
  facet normal 0 0 -1
    outer loop
      vertex 3.15 0 0
      vertex 7.575 0 0
      vertex 7.51527 -0.949399 0
    endloop
  endfacet
  facet normal 0 0 1
    outer loop
      vertex 3.15 0 6.05
      vertex 6.0271 -0.761399 6.05
      vertex 6.075 0 6.05
    endloop
  endfacet
  facet normal 0 0 1
    outer loop
      vertex 3.15 0 6.05
      vertex 6.075 0 6.05
      vertex 6.0271 0.761399 6.05
    endloop
  endfacet
  facet normal 0.481754 -0.876307 0
    outer loop
      vertex 3.22528 -6.85406 0
      vertex 4.05889 -6.39578 0
      vertex 4.05889 -6.39578 1
    endloop
  endfacet
  facet normal 0.481754 -0.876307 0
    outer loop
      vertex 3.22528 -6.85406 0
      vertex 4.05889 -6.39578 1
      vertex 3.22528 -6.85406 1
    endloop
  endfacet
  facet normal 0 0 1
    outer loop
      vertex 3.22528 -6.85406 1
      vertex 4.05889 -6.39578 1
      vertex 3.25515 -5.12929 1
    endloop
  endfacet
  facet normal 0.481754 0.876307 0
    outer loop
      vertex 3.22528 6.85406 0
      vertex 3.22528 6.85406 1
      vertex 4.05889 6.39578 0
    endloop
  endfacet
  facet normal 0 0 1
    outer loop
      vertex 3.22528 6.85406 1
      vertex 3.25515 5.12929 1
      vertex 4.05889 6.39578 1
    endloop
  endfacet
  facet normal 0.481754 0.876307 -0
    outer loop
      vertex 3.22528 6.85406 1
      vertex 4.05889 6.39578 1
      vertex 4.05889 6.39578 0
    endloop
  endfacet
  facet normal 0.587785 -0.809017 0
    outer loop
      vertex 3.25515 -5.12929 1
      vertex 3.87235 -4.68087 1
      vertex 3.87235 -4.68087 6.05
    endloop
  endfacet
  facet normal 0.587785 -0.809017 0
    outer loop
      vertex 3.25515 -5.12929 1
      vertex 3.87235 -4.68087 6.05
      vertex 3.25515 -5.12929 6.05
    endloop
  endfacet
  facet normal -0 0 1
    outer loop
      vertex 3.25515 -5.12929 1
      vertex 4.05889 -6.39578 1
      vertex 3.87235 -4.68087 1
    endloop
  endfacet
  facet normal 0.587785 0.809017 0
    outer loop
      vertex 3.25515 5.12929 1
      vertex 3.25515 5.12929 6.05
      vertex 3.87235 4.68087 1
    endloop
  endfacet
  facet normal 0 0 1
    outer loop
      vertex 3.25515 5.12929 1
      vertex 3.87235 4.68087 1
      vertex 4.05889 6.39578 1
    endloop
  endfacet
  facet normal 0.587785 0.809017 -0
    outer loop
      vertex 3.25515 5.12929 6.05
      vertex 3.87235 4.68087 6.05
      vertex 3.87235 4.68087 1
    endloop
  endfacet
  facet normal 0 0 1
    outer loop
      vertex 3.87235 -4.68087 1
      vertex 4.05889 -6.39578 1
      vertex 4.82849 -5.83664 1
    endloop
  endfacet
  facet normal 0.684547 -0.728968 0
    outer loop
      vertex 3.87235 -4.68087 1
      vertex 4.42848 -4.15862 1
      vertex 4.42848 -4.15862 6.05
    endloop
  endfacet
  facet normal 0.684547 -0.728968 0
    outer loop
      vertex 3.87235 -4.68087 1
      vertex 4.42848 -4.15862 6.05
      vertex 3.87235 -4.68087 6.05
    endloop
  endfacet
  facet normal -0 0 1
    outer loop
      vertex 3.87235 -4.68087 1
      vertex 4.82849 -5.83664 1
      vertex 4.42848 -4.15862 1
    endloop
  endfacet
  facet normal 0.684547 0.728968 0
    outer loop
      vertex 3.87235 4.68087 1
      vertex 3.87235 4.68087 6.05
      vertex 4.42848 4.15862 1
    endloop
  endfacet
  facet normal 0 0 1
    outer loop
      vertex 3.87235 4.68087 1
      vertex 4.42848 4.15862 1
      vertex 4.82849 5.83664 1
    endloop
  endfacet
  facet normal 0 0 1
    outer loop
      vertex 3.87235 4.68087 1
      vertex 4.82849 5.83664 1
      vertex 4.05889 6.39578 1
    endloop
  endfacet
  facet normal 0.684547 0.728968 -0
    outer loop
      vertex 3.87235 4.68087 6.05
      vertex 4.42848 4.15862 6.05
      vertex 4.42848 4.15862 1
    endloop
  endfacet
  facet normal 0.587785 -0.809017 0
    outer loop
      vertex 4.05889 -6.39578 0
      vertex 4.82849 -5.83664 0
      vertex 4.82849 -5.83664 1
    endloop
  endfacet
  facet normal 0.587785 -0.809017 0
    outer loop
      vertex 4.05889 -6.39578 0
      vertex 4.82849 -5.83664 1
      vertex 4.05889 -6.39578 1
    endloop
  endfacet
  facet normal 0.587785 0.809017 0
    outer loop
      vertex 4.05889 6.39578 0
      vertex 4.05889 6.39578 1
      vertex 4.82849 5.83664 0
    endloop
  endfacet
  facet normal 0.587785 0.809017 -0
    outer loop
      vertex 4.05889 6.39578 1
      vertex 4.82849 5.83664 1
      vertex 4.82849 5.83664 0
    endloop
  endfacet
  facet normal 0 0 1
    outer loop
      vertex 4.42848 -4.15862 1
      vertex 4.82849 -5.83664 1
      vertex 5.52194 -5.18544 1
    endloop
  endfacet
  facet normal 0.770513 -0.637424 0
    outer loop
      vertex 4.42848 -4.15862 1
      vertex 4.91478 -3.5708 1
      vertex 4.42848 -4.15862 6.05
    endloop
  endfacet
  facet normal -0 0 1
    outer loop
      vertex 4.42848 -4.15862 1
      vertex 5.52194 -5.18544 1
      vertex 4.91478 -3.5708 1
    endloop
  endfacet
  facet normal 0.770513 -0.637424 0
    outer loop
      vertex 4.42848 -4.15862 6.05
      vertex 4.91478 -3.5708 1
      vertex 4.91478 -3.5708 6.05
    endloop
  endfacet
  facet normal 0.770513 0.637424 0
    outer loop
      vertex 4.42848 4.15862 1
      vertex 4.42848 4.15862 6.05
      vertex 4.91478 3.5708 6.05
    endloop
  endfacet
  facet normal 0 0 1
    outer loop
      vertex 4.42848 4.15862 1
      vertex 4.91478 3.5708 1
      vertex 5.52194 5.18544 1
    endloop
  endfacet
  facet normal 0.770513 0.637424 0
    outer loop
      vertex 4.42848 4.15862 1
      vertex 4.91478 3.5708 6.05
      vertex 4.91478 3.5708 1
    endloop
  endfacet
  facet normal 0 0 1
    outer loop
      vertex 4.42848 4.15862 1
      vertex 5.52194 5.18544 1
      vertex 4.82849 5.83664 1
    endloop
  endfacet
  facet normal 0.684548 -0.728968 0
    outer loop
      vertex 4.82849 -5.83664 0
      vertex 5.52194 -5.18544 0
      vertex 5.52194 -5.18544 1
    endloop
  endfacet
  facet normal 0.684548 -0.728968 0
    outer loop
      vertex 4.82849 -5.83664 0
      vertex 5.52194 -5.18544 1
      vertex 4.82849 -5.83664 1
    endloop
  endfacet
  facet normal 0.684548 0.728968 0
    outer loop
      vertex 4.82849 5.83664 0
      vertex 4.82849 5.83664 1
      vertex 5.52194 5.18544 0
    endloop
  endfacet
  facet normal 0.684548 0.728968 -0
    outer loop
      vertex 4.82849 5.83664 1
      vertex 5.52194 5.18544 1
      vertex 5.52194 5.18544 0
    endloop
  endfacet
  facet normal 0.844328 -0.535827 0
    outer loop
      vertex 4.91478 -3.5708 1
      vertex 5.32356 -2.92665 1
      vertex 4.91478 -3.5708 6.05
    endloop
  endfacet
  facet normal 0 0 1
    outer loop
      vertex 4.91478 -3.5708 1
      vertex 5.52194 -5.18544 1
      vertex 6.1283 -4.45247 1
    endloop
  endfacet
  facet normal -0 0 1
    outer loop
      vertex 4.91478 -3.5708 1
      vertex 6.1283 -4.45247 1
      vertex 5.32356 -2.92665 1
    endloop
  endfacet
  facet normal 0.844328 -0.535827 0
    outer loop
      vertex 4.91478 -3.5708 6.05
      vertex 5.32356 -2.92665 1
      vertex 5.32356 -2.92665 6.05
    endloop
  endfacet
  facet normal 0.844328 0.535827 0
    outer loop
      vertex 4.91478 3.5708 1
      vertex 4.91478 3.5708 6.05
      vertex 5.32356 2.92665 6.05
    endloop
  endfacet
  facet normal 0 0 1
    outer loop
      vertex 4.91478 3.5708 1
      vertex 5.32356 2.92665 1
      vertex 6.1283 4.45247 1
    endloop
  endfacet
  facet normal 0.844328 0.535827 0
    outer loop
      vertex 4.91478 3.5708 1
      vertex 5.32356 2.92665 6.05
      vertex 5.32356 2.92665 1
    endloop
  endfacet
  facet normal 0 0 1
    outer loop
      vertex 4.91478 3.5708 1
      vertex 6.1283 4.45247 1
      vertex 5.52194 5.18544 1
    endloop
  endfacet
  facet normal 0.904827 -0.425779 0
    outer loop
      vertex 5.32356 -2.92665 1
      vertex 5.64839 -2.23636 1
      vertex 5.32356 -2.92665 6.05
    endloop
  endfacet
  facet normal 0 0 1
    outer loop
      vertex 5.32356 -2.92665 1
      vertex 6.1283 -4.45247 1
      vertex 6.63802 -3.64928 1
    endloop
  endfacet
  facet normal -0 0 1
    outer loop
      vertex 5.32356 -2.92665 1
      vertex 6.63802 -3.64928 1
      vertex 5.64839 -2.23636 1
    endloop
  endfacet
  facet normal 0.904827 -0.425779 0
    outer loop
      vertex 5.32356 -2.92665 6.05
      vertex 5.64839 -2.23636 1
      vertex 5.64839 -2.23636 6.05
    endloop
  endfacet
  facet normal 0.904827 0.425779 0
    outer loop
      vertex 5.32356 2.92665 1
      vertex 5.32356 2.92665 6.05
      vertex 5.64839 2.23636 6.05
    endloop
  endfacet
  facet normal 0 0 1
    outer loop
      vertex 5.32356 2.92665 1
      vertex 5.64839 2.23636 1
      vertex 6.63802 3.64928 1
    endloop
  endfacet
  facet normal 0.904827 0.425779 0
    outer loop
      vertex 5.32356 2.92665 1
      vertex 5.64839 2.23636 6.05
      vertex 5.64839 2.23636 1
    endloop
  endfacet
  facet normal 0 0 1
    outer loop
      vertex 5.32356 2.92665 1
      vertex 6.63802 3.64928 1
      vertex 6.1283 4.45247 1
    endloop
  endfacet
  facet normal 0.770513 -0.637424 0
    outer loop
      vertex 5.52194 -5.18544 0
      vertex 6.1283 -4.45247 0
      vertex 5.52194 -5.18544 1
    endloop
  endfacet
  facet normal 0.770513 -0.637424 0
    outer loop
      vertex 5.52194 -5.18544 1
      vertex 6.1283 -4.45247 0
      vertex 6.1283 -4.45247 1
    endloop
  endfacet
  facet normal 0.770513 0.637424 0
    outer loop
      vertex 5.52194 5.18544 0
      vertex 5.52194 5.18544 1
      vertex 6.1283 4.45247 1
    endloop
  endfacet
  facet normal 0.770513 0.637424 0
    outer loop
      vertex 5.52194 5.18544 0
      vertex 6.1283 4.45247 1
      vertex 6.1283 4.45247 0
    endloop
  endfacet
  facet normal 0.951057 -0.309017 0
    outer loop
      vertex 5.64839 -2.23636 1
      vertex 5.88414 -1.51079 1
      vertex 5.64839 -2.23636 6.05
    endloop
  endfacet
  facet normal 0 0 1
    outer loop
      vertex 5.64839 -2.23636 1
      vertex 6.63802 -3.64928 1
      vertex 7.04306 -2.78854 1
    endloop
  endfacet
  facet normal -0 0 1
    outer loop
      vertex 5.64839 -2.23636 1
      vertex 7.04306 -2.78854 1
      vertex 5.88414 -1.51079 1
    endloop
  endfacet
  facet normal 0.951057 -0.309017 0
    outer loop
      vertex 5.64839 -2.23636 6.05
      vertex 5.88414 -1.51079 1
      vertex 5.88414 -1.51079 6.05
    endloop
  endfacet
  facet normal 0.951057 0.309017 0
    outer loop
      vertex 5.64839 2.23636 1
      vertex 5.64839 2.23636 6.05
      vertex 5.88414 1.51079 6.05
    endloop
  endfacet
  facet normal 0 0 1
    outer loop
      vertex 5.64839 2.23636 1
      vertex 5.88414 1.51079 1
      vertex 7.04306 2.78854 1
    endloop
  endfacet
  facet normal 0.951057 0.309017 0
    outer loop
      vertex 5.64839 2.23636 1
      vertex 5.88414 1.51079 6.05
      vertex 5.88414 1.51079 1
    endloop
  endfacet
  facet normal 0 0 1
    outer loop
      vertex 5.64839 2.23636 1
      vertex 7.04306 2.78854 1
      vertex 6.63802 3.64928 1
    endloop
  endfacet
  facet normal 0.982287 -0.187382 0
    outer loop
      vertex 5.88414 -1.51079 1
      vertex 6.0271 -0.761399 1
      vertex 5.88414 -1.51079 6.05
    endloop
  endfacet
  facet normal 0 0 1
    outer loop
      vertex 5.88414 -1.51079 1
      vertex 7.04306 -2.78854 1
      vertex 7.33702 -1.88383 1
    endloop
  endfacet
  facet normal -0 0 1
    outer loop
      vertex 5.88414 -1.51079 1
      vertex 7.33702 -1.88383 1
      vertex 6.0271 -0.761399 1
    endloop
  endfacet
  facet normal 0.982287 -0.187382 0
    outer loop
      vertex 5.88414 -1.51079 6.05
      vertex 6.0271 -0.761399 1
      vertex 6.0271 -0.761399 6.05
    endloop
  endfacet
  facet normal 0.982287 0.187382 0
    outer loop
      vertex 5.88414 1.51079 1
      vertex 5.88414 1.51079 6.05
      vertex 6.0271 0.761399 6.05
    endloop
  endfacet
  facet normal 0 0 1
    outer loop
      vertex 5.88414 1.51079 1
      vertex 6.0271 0.761399 1
      vertex 7.33702 1.88383 1
    endloop
  endfacet
  facet normal 0.982287 0.187382 0
    outer loop
      vertex 5.88414 1.51079 1
      vertex 6.0271 0.761399 6.05
      vertex 6.0271 0.761399 1
    endloop
  endfacet
  facet normal 0 0 1
    outer loop
      vertex 5.88414 1.51079 1
      vertex 7.33702 1.88383 1
      vertex 7.04306 2.78854 1
    endloop
  endfacet
  facet normal 0.998027 -0.0627904 0
    outer loop
      vertex 6.0271 -0.761399 1
      vertex 6.075 0 1
      vertex 6.0271 -0.761399 6.05
    endloop
  endfacet
  facet normal 0 0 1
    outer loop
      vertex 6.0271 -0.761399 1
      vertex 7.33702 -1.88383 1
      vertex 7.51527 -0.949399 1
    endloop
  endfacet
  facet normal -0 0 1
    outer loop
      vertex 6.0271 -0.761399 1
      vertex 7.51527 -0.949399 1
      vertex 6.075 0 1
    endloop
  endfacet
  facet normal 0.998027 -0.0627904 0
    outer loop
      vertex 6.0271 -0.761399 6.05
      vertex 6.075 0 1
      vertex 6.075 0 6.05
    endloop
  endfacet
  facet normal 0.998027 0.0627904 0
    outer loop
      vertex 6.0271 0.761399 1
      vertex 6.0271 0.761399 6.05
      vertex 6.075 0 6.05
    endloop
  endfacet
  facet normal 0 0 1
    outer loop
      vertex 6.0271 0.761399 1
      vertex 6.075 0 1
      vertex 7.51527 0.949399 1
    endloop
  endfacet
  facet normal 0.998027 0.0627904 0
    outer loop
      vertex 6.0271 0.761399 1
      vertex 6.075 0 6.05
      vertex 6.075 0 1
    endloop
  endfacet
  facet normal 0 0 1
    outer loop
      vertex 6.0271 0.761399 1
      vertex 7.51527 0.949399 1
      vertex 7.33702 1.88383 1
    endloop
  endfacet
  facet normal 0 0 1
    outer loop
      vertex 6.075 0 1
      vertex 7.51527 -0.949399 1
      vertex 7.575 0 1
    endloop
  endfacet
  facet normal 0 0 1
    outer loop
      vertex 6.075 0 1
      vertex 7.575 0 1
      vertex 7.51527 0.949399 1
    endloop
  endfacet
  facet normal 0.844328 -0.535826 0
    outer loop
      vertex 6.1283 -4.45247 0
      vertex 6.63802 -3.64928 0
      vertex 6.1283 -4.45247 1
    endloop
  endfacet
  facet normal 0.844328 -0.535826 0
    outer loop
      vertex 6.1283 -4.45247 1
      vertex 6.63802 -3.64928 0
      vertex 6.63802 -3.64928 1
    endloop
  endfacet
  facet normal 0.844328 0.535826 0
    outer loop
      vertex 6.1283 4.45247 0
      vertex 6.1283 4.45247 1
      vertex 6.63802 3.64928 1
    endloop
  endfacet
  facet normal 0.844328 0.535826 0
    outer loop
      vertex 6.1283 4.45247 0
      vertex 6.63802 3.64928 1
      vertex 6.63802 3.64928 0
    endloop
  endfacet
  facet normal 0.904827 -0.42578 0
    outer loop
      vertex 6.63802 -3.64928 0
      vertex 7.04306 -2.78854 0
      vertex 6.63802 -3.64928 1
    endloop
  endfacet
  facet normal 0.904827 -0.42578 0
    outer loop
      vertex 6.63802 -3.64928 1
      vertex 7.04306 -2.78854 0
      vertex 7.04306 -2.78854 1
    endloop
  endfacet
  facet normal 0.904827 0.42578 0
    outer loop
      vertex 6.63802 3.64928 0
      vertex 6.63802 3.64928 1
      vertex 7.04306 2.78854 1
    endloop
  endfacet
  facet normal 0.904827 0.42578 0
    outer loop
      vertex 6.63802 3.64928 0
      vertex 7.04306 2.78854 1
      vertex 7.04306 2.78854 0
    endloop
  endfacet
  facet normal 0.951056 -0.309017 0
    outer loop
      vertex 7.04306 -2.78854 0
      vertex 7.33702 -1.88383 0
      vertex 7.04306 -2.78854 1
    endloop
  endfacet
  facet normal 0.951056 -0.309017 0
    outer loop
      vertex 7.04306 -2.78854 1
      vertex 7.33702 -1.88383 0
      vertex 7.33702 -1.88383 1
    endloop
  endfacet
  facet normal 0.951056 0.309017 0
    outer loop
      vertex 7.04306 2.78854 0
      vertex 7.04306 2.78854 1
      vertex 7.33702 1.88383 1
    endloop
  endfacet
  facet normal 0.951056 0.309017 0
    outer loop
      vertex 7.04306 2.78854 0
      vertex 7.33702 1.88383 1
      vertex 7.33702 1.88383 0
    endloop
  endfacet
  facet normal 0.982287 -0.187381 0
    outer loop
      vertex 7.33702 -1.88383 0
      vertex 7.51527 -0.949399 0
      vertex 7.33702 -1.88383 1
    endloop
  endfacet
  facet normal 0.982287 -0.187381 0
    outer loop
      vertex 7.33702 -1.88383 1
      vertex 7.51527 -0.949399 0
      vertex 7.51527 -0.949399 1
    endloop
  endfacet
  facet normal 0.982287 0.187381 0
    outer loop
      vertex 7.33702 1.88383 0
      vertex 7.33702 1.88383 1
      vertex 7.51527 0.949399 1
    endloop
  endfacet
  facet normal 0.982287 0.187381 0
    outer loop
      vertex 7.33702 1.88383 0
      vertex 7.51527 0.949399 1
      vertex 7.51527 0.949399 0
    endloop
  endfacet
  facet normal 0.998027 -0.0627909 0
    outer loop
      vertex 7.51527 -0.949399 0
      vertex 7.575 0 0
      vertex 7.51527 -0.949399 1
    endloop
  endfacet
  facet normal 0.998027 -0.0627909 0
    outer loop
      vertex 7.51527 -0.949399 1
      vertex 7.575 0 0
      vertex 7.575 0 1
    endloop
  endfacet
  facet normal 0.998027 0.0627909 0
    outer loop
      vertex 7.51527 0.949399 0
      vertex 7.51527 0.949399 1
      vertex 7.575 0 1
    endloop
  endfacet
  facet normal 0.998027 0.0627909 0
    outer loop
      vertex 7.51527 0.949399 0
      vertex 7.575 0 1
      vertex 7.575 0 0
    endloop
  endfacet
endsolid model
