solid model
  facet normal 0 0 -1
    outer loop
      vertex -1.40023 -22.256 -80
      vertex -1.40023 22.256 -80
      vertex 1.40023 22.256 -80
    endloop
  endfacet
  facet normal 0 -0.961792 -0.27378
    outer loop
      vertex -1.40023 -22.256 -80
      vertex 1.40023 -22.256 -80
      vertex 0 -45 -0.0999994
    endloop
  endfacet
  facet normal 0 0 -1
    outer loop
      vertex -1.40023 -22.256 -80
      vertex 1.40023 22.256 -80
      vertex 1.40023 -22.256 -80
    endloop
  endfacet
  facet normal 0 0.961792 -0.27378
    outer loop
      vertex -1.40023 22.256 -80
      vertex 0 45 -0.0999994
      vertex 1.40023 22.256 -80
    endloop
  endfacet
  facet normal 0 0 -1
    outer loop
      vertex -11.9489 -18.8285 -80
      vertex -11.9489 18.8285 -80
      vertex -9.49488 20.1776 -80
    endloop
  endfacet
  facet normal 0 0 -1
    outer loop
      vertex -11.9489 -18.8285 -80
      vertex -9.49488 20.1776 -80
      vertex -9.49488 -20.1776 -80
    endloop
  endfacet
  facet normal 0 0 -1
    outer loop
      vertex -14.2146 -17.1824 -80
      vertex -11.9489 18.8285 -80
      vertex -11.9489 -18.8285 -80
    endloop
  endfacet
  facet normal 0 0 -1
    outer loop
      vertex -14.2146 -17.1824 -80
      vertex -14.2146 17.1824 -80
      vertex -11.9489 18.8285 -80
    endloop
  endfacet
  facet normal 0 0 -1
    outer loop
      vertex -16.256 -15.2654 -80
      vertex -14.2146 17.1824 -80
      vertex -14.2146 -17.1824 -80
    endloop
  endfacet
  facet normal 0 0 -1
    outer loop
      vertex -16.256 -15.2654 -80
      vertex -16.256 15.2654 -80
      vertex -14.2146 17.1824 -80
    endloop
  endfacet
  facet normal 0 0 -1
    outer loop
      vertex -18.0411 -13.1076 -80
      vertex -16.256 15.2654 -80
      vertex -16.256 -15.2654 -80
    endloop
  endfacet
  facet normal 0 0 -1
    outer loop
      vertex -18.0411 -13.1076 -80
      vertex -18.0411 13.1076 -80
      vertex -16.256 15.2654 -80
    endloop
  endfacet
  facet normal 0 0 -1
    outer loop
      vertex -19.5416 -10.7431 -80
      vertex -18.0411 13.1076 -80
      vertex -18.0411 -13.1076 -80
    endloop
  endfacet
  facet normal 0 0 -1
    outer loop
      vertex -19.5416 -10.7431 -80
      vertex -19.5416 10.7431 -80
      vertex -18.0411 13.1076 -80
    endloop
  endfacet
  facet normal 0 0 1
    outer loop
      vertex -2.75 0 -23.5
      vertex 21.8561 -4.2 -23.5
      vertex 22.1242 -2.79493 -23.5
    endloop
  endfacet
  facet normal 0 0 1
    outer loop
      vertex -2.75 0 -23.5
      vertex 22.1242 -2.79493 -23.5
      vertex 22.3 0 -23.5
    endloop
  endfacet
  facet normal 0 0 1
    outer loop
      vertex -2.75 0 -23.5
      vertex 22.1242 2.79493 -23.5
      vertex 21.8561 4.2 -23.5
    endloop
  endfacet
  facet normal 0 0 1
    outer loop
      vertex -2.75 0 -23.5
      vertex 22.3 0 -23.5
      vertex 22.1242 2.79493 -23.5
    endloop
  endfacet
  facet normal -0 0 1
    outer loop
      vertex -2.86012 -0.695288 -23.5
      vertex 21.8561 -4.2 -23.5
      vertex -2.75 0 -23.5
    endloop
  endfacet
  facet normal -0.987688 0.156436 0
    outer loop
      vertex -2.86012 -0.695288 -43.5
      vertex -2.75 0 -23.5
      vertex -2.75 0 -43.5
    endloop
  endfacet
  facet normal 0 0 1
    outer loop
      vertex -2.86012 -0.695288 -43.5
      vertex -2.75 0 -43.5
      vertex -2.86012 0.695288 -43.5
    endloop
  endfacet
  facet normal -0.987688 0.156436 0
    outer loop
      vertex -2.86012 -0.695288 -43.5
      vertex -2.86012 -0.695288 -23.5
      vertex -2.75 0 -23.5
    endloop
  endfacet
  facet normal 0 0 1
    outer loop
      vertex -2.86012 0.695288 -23.5
      vertex -2.75 0 -23.5
      vertex 21.8561 4.2 -23.5
    endloop
  endfacet
  facet normal -0.987688 -0.156436 0
    outer loop
      vertex -2.86012 0.695288 -23.5
      vertex -2.75 0 -43.5
      vertex -2.75 0 -23.5
    endloop
  endfacet
  facet normal -0.987688 -0.156436 0
    outer loop
      vertex -2.86012 0.695288 -43.5
      vertex -2.75 0 -43.5
      vertex -2.86012 0.695288 -23.5
    endloop
  endfacet
  facet normal 0 0 -1
    outer loop
      vertex -20.734 -8.20918 -80
      vertex -19.5416 10.7431 -80
      vertex -19.5416 -10.7431 -80
    endloop
  endfacet
  facet normal 0 0 -1
    outer loop
      vertex -20.734 -8.20918 -80
      vertex -20.734 8.20918 -80
      vertex -19.5416 10.7431 -80
    endloop
  endfacet
  facet normal 0 0 -1
    outer loop
      vertex -21.5994 -5.54578 -80
      vertex -20.734 8.20918 -80
      vertex -20.734 -8.20918 -80
    endloop
  endfacet
  facet normal 0 0 -1
    outer loop
      vertex -21.5994 -5.54578 -80
      vertex -21.5994 5.54578 -80
      vertex -20.734 8.20918 -80
    endloop
  endfacet
  facet normal 0 0 -1
    outer loop
      vertex -22.1242 -2.79493 -80
      vertex -21.5994 5.54578 -80
      vertex -21.5994 -5.54578 -80
    endloop
  endfacet
  facet normal 0 0 -1
    outer loop
      vertex -22.1242 -2.79493 -80
      vertex -22.1242 2.79493 -80
      vertex -21.5994 5.54578 -80
    endloop
  endfacet
  facet normal 0 -0 -1
    outer loop
      vertex -22.3 0 -80
      vertex -22.1242 2.79493 -80
      vertex -22.1242 -2.79493 -80
    endloop
  endfacet
  facet normal -0 0 1
    outer loop
      vertex -3.17971 -1.32252 -23.5
      vertex 21.8561 -4.2 -23.5
      vertex -2.86012 -0.695288 -23.5
    endloop
  endfacet
  facet normal -0.891007 0.45399 0
    outer loop
      vertex -3.17971 -1.32252 -43.5
      vertex -2.86012 -0.695288 -23.5
      vertex -2.86012 -0.695288 -43.5
    endloop
  endfacet
  facet normal 0 0 1
    outer loop
      vertex -3.17971 -1.32252 -43.5
      vertex -2.86012 -0.695288 -43.5
      vertex -3.17971 1.32252 -43.5
    endloop
  endfacet
  facet normal -0.891007 0.45399 0
    outer loop
      vertex -3.17971 -1.32252 -43.5
      vertex -3.17971 -1.32252 -23.5
      vertex -2.86012 -0.695288 -23.5
    endloop
  endfacet
  facet normal 0 0 1
    outer loop
      vertex -3.17971 1.32252 -23.5
      vertex -2.86012 0.695288 -23.5
      vertex 21.8561 4.2 -23.5
    endloop
  endfacet
  facet normal -0.891007 -0.45399 0
    outer loop
      vertex -3.17971 1.32252 -23.5
      vertex -2.86012 0.695288 -43.5
      vertex -2.86012 0.695288 -23.5
    endloop
  endfacet
  facet normal 0 0 1
    outer loop
      vertex -3.17971 1.32252 -43.5
      vertex -2.86012 -0.695288 -43.5
      vertex -2.86012 0.695288 -43.5
    endloop
  endfacet
  facet normal -0.891007 -0.45399 0
    outer loop
      vertex -3.17971 1.32252 -43.5
      vertex -2.86012 0.695288 -43.5
      vertex -3.17971 1.32252 -23.5
    endloop
  endfacet
  facet normal -0.707107 0.707107 0
    outer loop
      vertex -3.67748 -1.82029 -43.5
      vertex -3.17971 -1.32252 -23.5
      vertex -3.17971 -1.32252 -43.5
    endloop
  endfacet
  facet normal 0 0 1
    outer loop
      vertex -3.67748 -1.82029 -43.5
      vertex -3.17971 -1.32252 -43.5
      vertex -3.67748 1.82029 -43.5
    endloop
  endfacet
  facet normal -0.707107 0.707107 0
    outer loop
      vertex -3.67748 -1.82029 -43.5
      vertex -3.67748 -1.82029 -23.5
      vertex -3.17971 -1.32252 -23.5
    endloop
  endfacet
  facet normal -0.707107 -0.707107 0
    outer loop
      vertex -3.67748 1.82029 -23.5
      vertex -3.17971 1.32252 -43.5
      vertex -3.17971 1.32252 -23.5
    endloop
  endfacet
  facet normal 0 0 1
    outer loop
      vertex -3.67748 1.82029 -43.5
      vertex -3.17971 -1.32252 -43.5
      vertex -3.17971 1.32252 -43.5
    endloop
  endfacet
  facet normal -0.707107 -0.707107 0
    outer loop
      vertex -3.67748 1.82029 -43.5
      vertex -3.17971 1.32252 -43.5
      vertex -3.67748 1.82029 -23.5
    endloop
  endfacet
  facet normal -0.867538 -0.0545769 -0.494367
    outer loop
      vertex -30.851 -9.01162 -63.9994
      vertex -22.1242 -2.79493 -80
      vertex -30.8 -9.1 -64.0792
    endloop
  endfacet
  facet normal -0.867538 -0.0545809 -0.494368
    outer loop
      vertex -30.851 -9.01162 -63.9994
      vertex -22.3 0 -80
      vertex -22.1242 -2.79493 -80
    endloop
  endfacet
  facet normal -0.86602 -0.500009 -0
    outer loop
      vertex -30.851 -9.01162 -63.9994
      vertex -30.8 -9.1 -64.0792
      vertex -30.8 -9.1 -18.5
    endloop
  endfacet
  facet normal -0.881955 0 -0.471333
    outer loop
      vertex -30.851 -9.01162 -63.9994
      vertex -30.851 9.01162 -63.9994
      vertex -22.3 0 -80
    endloop
  endfacet
  facet normal -0.867538 0.0545809 -0.494368
    outer loop
      vertex -30.851 9.01162 -63.9994
      vertex -22.1242 2.79493 -80
      vertex -22.3 0 -80
    endloop
  endfacet
  facet normal -0.86602 0.500009 0
    outer loop
      vertex -30.851 9.01162 -63.9994
      vertex -30.8 9.1 -18.5
      vertex -30.8 9.1 -64.0792
    endloop
  endfacet
  facet normal -0.867538 0.0545769 -0.494367
    outer loop
      vertex -30.851 9.01162 -63.9994
      vertex -30.8 9.1 -64.0792
      vertex -22.1242 2.79493 -80
    endloop
  endfacet
  facet normal 0 0 -1
    outer loop
      vertex -32.8601 -8.40471 -18.5
      vertex -30.8 -9.1 -18.5
      vertex -32.75 -9.1 -18.5
    endloop
  endfacet
  facet normal -0.987688 -0.156434 0
    outer loop
      vertex -32.8601 -8.40471 -18.5
      vertex -32.75 -9.1 -18.5
      vertex -32.8601 -8.40471 0
    endloop
  endfacet
  facet normal -0.987688 -0.156434 0
    outer loop
      vertex -32.8601 -8.40471 0
      vertex -32.75 -9.1 -18.5
      vertex -32.75 -9.1 0
    endloop
  endfacet
  facet normal 0 0 1
    outer loop
      vertex -32.8601 -8.40471 0
      vertex -32.75 -9.1 0
      vertex 19.5416 -10.7431 0
    endloop
  endfacet
  facet normal -0 0 1
    outer loop
      vertex -32.8601 -8.40471 0
      vertex 19.5416 -10.7431 0
      vertex -32.8601 8.40471 0
    endloop
  endfacet
  facet normal -0 0 -1
    outer loop
      vertex -32.8601 -9.79529 -18.5
      vertex -32.75 -9.1 -18.5
      vertex -30.8 -9.1 -18.5
    endloop
  endfacet
  facet normal -0.987688 0.156434 0
    outer loop
      vertex -32.8601 -9.79529 -18.5
      vertex -32.75 -9.1 0
      vertex -32.75 -9.1 -18.5
    endloop
  endfacet
  facet normal -0.987688 0.156434 0
    outer loop
      vertex -32.8601 -9.79529 -18.5
      vertex -32.8601 -9.79529 0
      vertex -32.75 -9.1 0
    endloop
  endfacet
  facet normal 0 0 1
    outer loop
      vertex -32.8601 -9.79529 0
      vertex 0 -45 0
      vertex 19.5416 -10.7431 0
    endloop
  endfacet
  facet normal -0 0 1
    outer loop
      vertex -32.8601 -9.79529 0
      vertex 19.5416 -10.7431 0
      vertex -32.75 -9.1 0
    endloop
  endfacet
  facet normal -0 0 -1
    outer loop
      vertex -32.8601 8.40471 -18.5
      vertex -32.75 9.1 -18.5
      vertex -30.8 9.1 -18.5
    endloop
  endfacet
  facet normal -0.987688 0.156434 0
    outer loop
      vertex -32.8601 8.40471 -18.5
      vertex -32.75 9.1 0
      vertex -32.75 9.1 -18.5
    endloop
  endfacet
  facet normal -0.987688 0.156434 0
    outer loop
      vertex -32.8601 8.40471 -18.5
      vertex -32.8601 8.40471 0
      vertex -32.75 9.1 0
    endloop
  endfacet
  facet normal 0 0 1
    outer loop
      vertex -32.8601 8.40471 0
      vertex 19.5416 -10.7431 0
      vertex 19.5416 10.7431 0
    endloop
  endfacet
  facet normal 0 0 1
    outer loop
      vertex -32.8601 8.40471 0
      vertex 19.5416 10.7431 0
      vertex -32.75 9.1 0
    endloop
  endfacet
  facet normal 0 0 -1
    outer loop
      vertex -32.8601 9.79529 -18.5
      vertex -30.8 9.1 -18.5
      vertex -32.75 9.1 -18.5
    endloop
  endfacet
  facet normal -0.987688 -0.156434 0
    outer loop
      vertex -32.8601 9.79529 -18.5
      vertex -32.75 9.1 -18.5
      vertex -32.8601 9.79529 0
    endloop
  endfacet
  facet normal -0.987688 -0.156434 0
    outer loop
      vertex -32.8601 9.79529 0
      vertex -32.75 9.1 -18.5
      vertex -32.75 9.1 0
    endloop
  endfacet
  facet normal 0 0 1
    outer loop
      vertex -32.8601 9.79529 0
      vertex -32.75 9.1 0
      vertex 19.5416 10.7431 0
    endloop
  endfacet
  facet normal 0 0 1
    outer loop
      vertex -32.8601 9.79529 0
      vertex 19.5416 10.7431 0
      vertex 0 45 0
    endloop
  endfacet
  facet normal -0.866025 0.5 0
    outer loop
      vertex -32.9 -12.7373 -59.9924
      vertex -30.8 -9.1 -18.5
      vertex -30.8 -9.1 -64.0792
    endloop
  endfacet
  facet normal -0.867538 -0.0545808 -0.494368
    outer loop
      vertex -32.9 -12.7373 -59.9924
      vertex -30.8 -9.1 -64.0792
      vertex -22.1242 -2.79493 -80
    endloop
  endfacet
  facet normal -0.866025 0.5 0
    outer loop
      vertex -32.9 -12.7373 -59.9924
      vertex -32.9 -12.7373 -18.5
      vertex -30.8 -9.1 -18.5
    endloop
  endfacet
  facet normal -0.866025 -0.5 0
    outer loop
      vertex -32.9 -5.46269 -60.1653
      vertex -30.8 -9.1 -18.5
      vertex -32.9 -5.46269 -18.5
    endloop
  endfacet
  facet normal -0.866025 -0.5 2.15375e-08
    outer loop
      vertex -32.9 -5.46269 -60.1653
      vertex -30.851 -9.01162 -63.9994
      vertex -30.8 -9.1 -18.5
    endloop
  endfacet
  facet normal -0.881955 -0 -0.471333
    outer loop
      vertex -32.9 -5.46269 -60.1653
      vertex -32.9 5.46269 -60.1653
      vertex -30.851 -9.01162 -63.9994
    endloop
  endfacet
  facet normal -0.867538 0.0545808 -0.494368
    outer loop
      vertex -32.9 12.7373 -59.9924
      vertex -22.1242 2.79493 -80
      vertex -30.8 9.1 -64.0792
    endloop
  endfacet
  facet normal -0.866025 -0.5 0
    outer loop
      vertex -32.9 12.7373 -59.9924
      vertex -30.8 9.1 -18.5
      vertex -32.9 12.7373 -18.5
    endloop
  endfacet
  facet normal -0.866025 -0.5 -0
    outer loop
      vertex -32.9 12.7373 -59.9924
      vertex -30.8 9.1 -64.0792
      vertex -30.8 9.1 -18.5
    endloop
  endfacet
  facet normal -0.866025 0.5 2.15375e-08
    outer loop
      vertex -32.9 5.46269 -60.1653
      vertex -30.8 9.1 -18.5
      vertex -30.851 9.01162 -63.9994
    endloop
  endfacet
  facet normal -0.881955 -0 -0.471333
    outer loop
      vertex -32.9 5.46269 -60.1653
      vertex -30.851 9.01162 -63.9994
      vertex -30.851 -9.01162 -63.9994
    endloop
  endfacet
  facet normal -0.866025 0.5 0
    outer loop
      vertex -32.9 5.46269 -60.1653
      vertex -32.9 5.46269 -18.5
      vertex -30.8 9.1 -18.5
    endloop
  endfacet
  facet normal 0 0 -1
    outer loop
      vertex -33.1797 -10.4225 -18.5
      vertex -30.8 -9.1 -18.5
      vertex -32.9 -12.7373 -18.5
    endloop
  endfacet
  facet normal 0 0 -1
    outer loop
      vertex -33.1797 -10.4225 -18.5
      vertex -32.8601 -9.79529 -18.5
      vertex -30.8 -9.1 -18.5
    endloop
  endfacet
  facet normal -0.891007 0.453989 0
    outer loop
      vertex -33.1797 -10.4225 -18.5
      vertex -32.8601 -9.79529 0
      vertex -32.8601 -9.79529 -18.5
    endloop
  endfacet
  facet normal -0.891007 0.453989 0
    outer loop
      vertex -33.1797 -10.4225 -18.5
      vertex -33.1797 -10.4225 0
      vertex -32.8601 -9.79529 0
    endloop
  endfacet
  facet normal -0 0 1
    outer loop
      vertex -33.1797 -10.4225 0
      vertex 0 -45 0
      vertex -32.8601 -9.79529 0
    endloop
  endfacet
  facet normal 0 0 -1
    outer loop
      vertex -33.1797 -7.77748 -18.5
      vertex -30.8 -9.1 -18.5
      vertex -32.8601 -8.40471 -18.5
    endloop
  endfacet
  facet normal -0.891007 -0.453989 0
    outer loop
      vertex -33.1797 -7.77748 -18.5
      vertex -32.8601 -8.40471 -18.5
      vertex -33.1797 -7.77748 0
    endloop
  endfacet
  facet normal 0 0 -1
    outer loop
      vertex -33.1797 -7.77748 -18.5
      vertex -32.9 -5.46269 -18.5
      vertex -30.8 -9.1 -18.5
    endloop
  endfacet
  facet normal -0.891007 -0.453989 0
    outer loop
      vertex -33.1797 -7.77748 0
      vertex -32.8601 -8.40471 -18.5
      vertex -32.8601 -8.40471 0
    endloop
  endfacet
  facet normal 0 0 1
    outer loop
      vertex -33.1797 -7.77748 0
      vertex -32.8601 -8.40471 0
      vertex -33.1797 7.77748 0
    endloop
  endfacet
  facet normal 0 0 -1
    outer loop
      vertex -33.1797 10.4225 -18.5
      vertex -30.8 9.1 -18.5
      vertex -32.8601 9.79529 -18.5
    endloop
  endfacet
  facet normal -0.891007 -0.453989 0
    outer loop
      vertex -33.1797 10.4225 -18.5
      vertex -32.8601 9.79529 -18.5
      vertex -33.1797 10.4225 0
    endloop
  endfacet
  facet normal 0 0 -1
    outer loop
      vertex -33.1797 10.4225 -18.5
      vertex -32.9 12.7373 -18.5
      vertex -30.8 9.1 -18.5
    endloop
  endfacet
  facet normal -0.891007 -0.453989 0
    outer loop
      vertex -33.1797 10.4225 0
      vertex -32.8601 9.79529 -18.5
      vertex -32.8601 9.79529 0
    endloop
  endfacet
  facet normal 0 0 1
    outer loop
      vertex -33.1797 10.4225 0
      vertex -32.8601 9.79529 0
      vertex 0 45 0
    endloop
  endfacet
  facet normal 0 0 -1
    outer loop
      vertex -33.1797 7.77748 -18.5
      vertex -30.8 9.1 -18.5
      vertex -32.9 5.46269 -18.5
    endloop
  endfacet
  facet normal 0 0 -1
    outer loop
      vertex -33.1797 7.77748 -18.5
      vertex -32.8601 8.40471 -18.5
      vertex -30.8 9.1 -18.5
    endloop
  endfacet
  facet normal -0.891007 0.453989 0
    outer loop
      vertex -33.1797 7.77748 -18.5
      vertex -32.8601 8.40471 0
      vertex -32.8601 8.40471 -18.5
    endloop
  endfacet
  facet normal -0.891007 0.453989 0
    outer loop
      vertex -33.1797 7.77748 -18.5
      vertex -33.1797 7.77748 0
      vertex -32.8601 8.40471 0
    endloop
  endfacet
  facet normal -0 0 1
    outer loop
      vertex -33.1797 7.77748 0
      vertex -32.8601 -8.40471 0
      vertex -32.8601 8.40471 0
    endloop
  endfacet
  facet normal 0 0 -1
    outer loop
      vertex -33.6775 -10.9203 -18.5
      vertex -33.1797 -10.4225 -18.5
      vertex -32.9 -12.7373 -18.5
    endloop
  endfacet
  facet normal -0.707106 0.707107 0
    outer loop
      vertex -33.6775 -10.9203 -18.5
      vertex -33.6775 -10.9203 0
      vertex -33.1797 -10.4225 -18.5
    endloop
  endfacet
  facet normal -0.707106 0.707107 0
    outer loop
      vertex -33.6775 -10.9203 0
      vertex -33.1797 -10.4225 0
      vertex -33.1797 -10.4225 -18.5
    endloop
  endfacet
  facet normal -0 0 1
    outer loop
      vertex -33.6775 -10.9203 0
      vertex 0 -45 0
      vertex -33.1797 -10.4225 0
    endloop
  endfacet
  facet normal 0 0 -1
    outer loop
      vertex -33.6775 -7.27971 -18.5
      vertex -32.9 -5.46269 -18.5
      vertex -33.1797 -7.77748 -18.5
    endloop
  endfacet
  facet normal -0.707106 -0.707107 -0
    outer loop
      vertex -33.6775 -7.27971 -18.5
      vertex -33.1797 -7.77748 -18.5
      vertex -33.1797 -7.77748 0
    endloop
  endfacet
  facet normal -0.707106 -0.707107 0
    outer loop
      vertex -33.6775 -7.27971 -18.5
      vertex -33.1797 -7.77748 0
      vertex -33.6775 -7.27971 0
    endloop
  endfacet
  facet normal 0 0 1
    outer loop
      vertex -33.6775 -7.27971 0
      vertex -33.1797 -7.77748 0
      vertex -33.6775 7.27971 0
    endloop
  endfacet
  facet normal 0 0 -1
    outer loop
      vertex -33.6775 10.9203 -18.5
      vertex -32.9 12.7373 -18.5
      vertex -33.1797 10.4225 -18.5
    endloop
  endfacet
  facet normal -0.707106 -0.707107 -0
    outer loop
      vertex -33.6775 10.9203 -18.5
      vertex -33.1797 10.4225 -18.5
      vertex -33.1797 10.4225 0
    endloop
  endfacet
  facet normal -0.707106 -0.707107 0
    outer loop
      vertex -33.6775 10.9203 -18.5
      vertex -33.1797 10.4225 0
      vertex -33.6775 10.9203 0
    endloop
  endfacet
  facet normal 0 0 1
    outer loop
      vertex -33.6775 10.9203 0
      vertex -33.1797 10.4225 0
      vertex 0 45 0
    endloop
  endfacet
  facet normal 0 0 -1
    outer loop
      vertex -33.6775 7.27971 -18.5
      vertex -33.1797 7.77748 -18.5
      vertex -32.9 5.46269 -18.5
    endloop
  endfacet
  facet normal -0.707106 0.707107 0
    outer loop
      vertex -33.6775 7.27971 -18.5
      vertex -33.6775 7.27971 0
      vertex -33.1797 7.77748 -18.5
    endloop
  endfacet
  facet normal -0 0 1
    outer loop
      vertex -33.6775 7.27971 0
      vertex -33.1797 -7.77748 0
      vertex -33.1797 7.77748 0
    endloop
  endfacet
  facet normal -0.707106 0.707107 0
    outer loop
      vertex -33.6775 7.27971 0
      vertex -33.1797 7.77748 0
      vertex -33.1797 7.77748 -18.5
    endloop
  endfacet
  facet normal 0 0 -1
    outer loop
      vertex -34.3047 -11.2399 -18.5
      vertex -33.6775 -10.9203 -18.5
      vertex -32.9 -12.7373 -18.5
    endloop
  endfacet
  facet normal -0.453991 0.891006 0
    outer loop
      vertex -34.3047 -11.2399 -18.5
      vertex -34.3047 -11.2399 0
      vertex -33.6775 -10.9203 -18.5
    endloop
  endfacet
  facet normal -0.453991 0.891006 0
    outer loop
      vertex -34.3047 -11.2399 0
      vertex -33.6775 -10.9203 0
      vertex -33.6775 -10.9203 -18.5
    endloop
  endfacet
  facet normal -0 0 1
    outer loop
      vertex -34.3047 -11.2399 0
      vertex 0 -45 0
      vertex -33.6775 -10.9203 0
    endloop
  endfacet
  facet normal 0 0 -1
    outer loop
      vertex -34.3047 -6.96012 -18.5
      vertex -32.9 -5.46269 -18.5
      vertex -33.6775 -7.27971 -18.5
    endloop
  endfacet
  facet normal -0.453991 -0.891006 -0
    outer loop
      vertex -34.3047 -6.96012 -18.5
      vertex -33.6775 -7.27971 -18.5
      vertex -33.6775 -7.27971 0
    endloop
  endfacet
  facet normal -0.453991 -0.891006 0
    outer loop
      vertex -34.3047 -6.96012 -18.5
      vertex -33.6775 -7.27971 0
      vertex -34.3047 -6.96012 0
    endloop
  endfacet
  facet normal 0 0 1
    outer loop
      vertex -34.3047 -6.96012 0
      vertex -33.6775 -7.27971 0
      vertex -34.3047 6.96012 0
    endloop
  endfacet
  facet normal 0 0 -1
    outer loop
      vertex -34.3047 11.2399 -18.5
      vertex -32.9 12.7373 -18.5
      vertex -33.6775 10.9203 -18.5
    endloop
  endfacet
  facet normal -0.453991 -0.891006 -0
    outer loop
      vertex -34.3047 11.2399 -18.5
      vertex -33.6775 10.9203 -18.5
      vertex -33.6775 10.9203 0
    endloop
  endfacet
  facet normal -0.453991 -0.891006 0
    outer loop
      vertex -34.3047 11.2399 -18.5
      vertex -33.6775 10.9203 0
      vertex -34.3047 11.2399 0
    endloop
  endfacet
  facet normal 0 0 1
    outer loop
      vertex -34.3047 11.2399 0
      vertex -33.6775 10.9203 0
      vertex 0 45 0
    endloop
  endfacet
  facet normal 0 0 -1
    outer loop
      vertex -34.3047 6.96012 -18.5
      vertex -33.6775 7.27971 -18.5
      vertex -32.9 5.46269 -18.5
    endloop
  endfacet
  facet normal -0.453991 0.891006 0
    outer loop
      vertex -34.3047 6.96012 -18.5
      vertex -34.3047 6.96012 0
      vertex -33.6775 7.27971 -18.5
    endloop
  endfacet
  facet normal -0 0 1
    outer loop
      vertex -34.3047 6.96012 0
      vertex -33.6775 -7.27971 0
      vertex -33.6775 7.27971 0
    endloop
  endfacet
  facet normal -0.453991 0.891006 0
    outer loop
      vertex -34.3047 6.96012 0
      vertex -33.6775 7.27971 0
      vertex -33.6775 7.27971 -18.5
    endloop
  endfacet
  facet normal -0 1 0
    outer loop
      vertex -34.3863 -12.7373 -57.3842
      vertex -32.9 -12.7373 -18.5
      vertex -32.9 -12.7373 -59.9924
    endloop
  endfacet
  facet normal 0 -1 -0
    outer loop
      vertex -34.3863 12.7373 -57.3842
      vertex -32.9 12.7373 -59.9924
      vertex -32.9 12.7373 -18.5
    endloop
  endfacet
  facet normal 0 0 -1
    outer loop
      vertex -35 -11.35 -18.5
      vertex -34.3047 -11.2399 -18.5
      vertex -32.9 -12.7373 -18.5
    endloop
  endfacet
  facet normal -0.156435 0.987688 0
    outer loop
      vertex -35 -11.35 -18.5
      vertex -35 -11.35 0
      vertex -34.3047 -11.2399 -18.5
    endloop
  endfacet
  facet normal -0.156435 0.987688 0
    outer loop
      vertex -35 -11.35 0
      vertex -34.3047 -11.2399 0
      vertex -34.3047 -11.2399 -18.5
    endloop
  endfacet
  facet normal -0 0 1
    outer loop
      vertex -35 -11.35 0
      vertex 0 -45 0
      vertex -34.3047 -11.2399 0
    endloop
  endfacet
  facet normal 0 0 -1
    outer loop
      vertex -35 -6.85 -18.5
      vertex -32.9 -5.46269 -18.5
      vertex -34.3047 -6.96012 -18.5
    endloop
  endfacet
  facet normal -0.156435 -0.987688 -0
    outer loop
      vertex -35 -6.85 -18.5
      vertex -34.3047 -6.96012 -18.5
      vertex -34.3047 -6.96012 0
    endloop
  endfacet
  facet normal -0.156435 -0.987688 0
    outer loop
      vertex -35 -6.85 -18.5
      vertex -34.3047 -6.96012 0
      vertex -35 -6.85 0
    endloop
  endfacet
  facet normal 0 0 1
    outer loop
      vertex -35 -6.85 0
      vertex -34.3047 -6.96012 0
      vertex -35 6.85 0
    endloop
  endfacet
  facet normal 0 0 -1
    outer loop
      vertex -35 11.35 -18.5
      vertex -32.9 12.7373 -18.5
      vertex -34.3047 11.2399 -18.5
    endloop
  endfacet
  facet normal -0.156435 -0.987688 -0
    outer loop
      vertex -35 11.35 -18.5
      vertex -34.3047 11.2399 -18.5
      vertex -34.3047 11.2399 0
    endloop
  endfacet
  facet normal -0.156435 -0.987688 0
    outer loop
      vertex -35 11.35 -18.5
      vertex -34.3047 11.2399 0
      vertex -35 11.35 0
    endloop
  endfacet
  facet normal 0 0 1
    outer loop
      vertex -35 11.35 0
      vertex -34.3047 11.2399 0
      vertex 0 45 0
    endloop
  endfacet
  facet normal 0 0 -1
    outer loop
      vertex -35 6.85 -18.5
      vertex -34.3047 6.96012 -18.5
      vertex -32.9 5.46269 -18.5
    endloop
  endfacet
  facet normal -0.156435 0.987688 0
    outer loop
      vertex -35 6.85 -18.5
      vertex -35 6.85 0
      vertex -34.3047 6.96012 -18.5
    endloop
  endfacet
  facet normal -0 0 1
    outer loop
      vertex -35 6.85 0
      vertex -34.3047 -6.96012 0
      vertex -34.3047 6.96012 0
    endloop
  endfacet
  facet normal -0.156435 0.987688 0
    outer loop
      vertex -35 6.85 0
      vertex -34.3047 6.96012 0
      vertex -34.3047 6.96012 -18.5
    endloop
  endfacet
  facet normal 0.156435 0.987688 0
    outer loop
      vertex -35.6953 -11.2399 -18.5
      vertex -35.6953 -11.2399 0
      vertex -35 -11.35 -18.5
    endloop
  endfacet
  facet normal 0.156435 0.987688 -0
    outer loop
      vertex -35.6953 -11.2399 0
      vertex -35 -11.35 0
      vertex -35 -11.35 -18.5
    endloop
  endfacet
  facet normal 0.156435 -0.987688 0
    outer loop
      vertex -35.6953 -6.96012 -18.5
      vertex -35 -6.85 -18.5
      vertex -35 -6.85 0
    endloop
  endfacet
  facet normal 0.156435 -0.987688 0
    outer loop
      vertex -35.6953 -6.96012 -18.5
      vertex -35 -6.85 0
      vertex -35.6953 -6.96012 0
    endloop
  endfacet
  facet normal 0 0 1
    outer loop
      vertex -35.6953 -6.96012 0
      vertex -35 -6.85 0
      vertex -35.6953 6.96012 0
    endloop
  endfacet
  facet normal 0.156435 -0.987688 0
    outer loop
      vertex -35.6953 11.2399 -18.5
      vertex -35 11.35 -18.5
      vertex -35 11.35 0
    endloop
  endfacet
  facet normal 0.156435 -0.987688 0
    outer loop
      vertex -35.6953 11.2399 -18.5
      vertex -35 11.35 0
      vertex -35.6953 11.2399 0
    endloop
  endfacet
  facet normal 0.156435 0.987688 0
    outer loop
      vertex -35.6953 6.96012 -18.5
      vertex -35.6953 6.96012 0
      vertex -35 6.85 -18.5
    endloop
  endfacet
  facet normal 0 0 1
    outer loop
      vertex -35.6953 6.96012 0
      vertex -35 -6.85 0
      vertex -35 6.85 0
    endloop
  endfacet
  facet normal 0.156435 0.987688 -0
    outer loop
      vertex -35.6953 6.96012 0
      vertex -35 6.85 0
      vertex -35 6.85 -18.5
    endloop
  endfacet
  facet normal 0.453991 0.891006 0
    outer loop
      vertex -36.3225 -10.9203 -18.5
      vertex -36.3225 -10.9203 0
      vertex -35.6953 -11.2399 -18.5
    endloop
  endfacet
  facet normal 0.453991 0.891006 -0
    outer loop
      vertex -36.3225 -10.9203 0
      vertex -35.6953 -11.2399 0
      vertex -35.6953 -11.2399 -18.5
    endloop
  endfacet
  facet normal 0.453991 -0.891006 0
    outer loop
      vertex -36.3225 -7.27971 -18.5
      vertex -35.6953 -6.96012 -18.5
      vertex -35.6953 -6.96012 0
    endloop
  endfacet
  facet normal 0.453991 -0.891006 0
    outer loop
      vertex -36.3225 -7.27971 -18.5
      vertex -35.6953 -6.96012 0
      vertex -36.3225 -7.27971 0
    endloop
  endfacet
  facet normal 0 0 1
    outer loop
      vertex -36.3225 -7.27971 0
      vertex -35.6953 -6.96012 0
      vertex -36.3225 7.27971 0
    endloop
  endfacet
  facet normal 0.453991 -0.891006 0
    outer loop
      vertex -36.3225 10.9203 -18.5
      vertex -35.6953 11.2399 -18.5
      vertex -35.6953 11.2399 0
    endloop
  endfacet
  facet normal 0.453991 -0.891006 0
    outer loop
      vertex -36.3225 10.9203 -18.5
      vertex -35.6953 11.2399 0
      vertex -36.3225 10.9203 0
    endloop
  endfacet
  facet normal 0.453991 0.891006 0
    outer loop
      vertex -36.3225 7.27971 -18.5
      vertex -36.3225 7.27971 0
      vertex -35.6953 6.96012 -18.5
    endloop
  endfacet
  facet normal 0 0 1
    outer loop
      vertex -36.3225 7.27971 0
      vertex -35.6953 -6.96012 0
      vertex -35.6953 6.96012 0
    endloop
  endfacet
  facet normal 0.453991 0.891006 -0
    outer loop
      vertex -36.3225 7.27971 0
      vertex -35.6953 6.96012 0
      vertex -35.6953 6.96012 -18.5
    endloop
  endfacet
  facet normal 0.707106 0.707107 0
    outer loop
      vertex -36.8203 -10.4225 -18.5
      vertex -36.8203 -10.4225 0
      vertex -36.3225 -10.9203 -18.5
    endloop
  endfacet
  facet normal 0.707106 0.707107 -0
    outer loop
      vertex -36.8203 -10.4225 0
      vertex -36.3225 -10.9203 0
      vertex -36.3225 -10.9203 -18.5
    endloop
  endfacet
  facet normal 0.707106 -0.707107 0
    outer loop
      vertex -36.8203 -7.77748 -18.5
      vertex -36.3225 -7.27971 -18.5
      vertex -36.3225 -7.27971 0
    endloop
  endfacet
  facet normal 0.707106 -0.707107 0
    outer loop
      vertex -36.8203 -7.77748 -18.5
      vertex -36.3225 -7.27971 0
      vertex -36.8203 -7.77748 0
    endloop
  endfacet
  facet normal 0 0 1
    outer loop
      vertex -36.8203 -7.77748 0
      vertex -36.3225 -7.27971 0
      vertex -36.8203 7.77748 0
    endloop
  endfacet
  facet normal 0.707106 -0.707107 0
    outer loop
      vertex -36.8203 10.4225 -18.5
      vertex -36.3225 10.9203 -18.5
      vertex -36.3225 10.9203 0
    endloop
  endfacet
  facet normal 0.707106 -0.707107 0
    outer loop
      vertex -36.8203 10.4225 -18.5
      vertex -36.3225 10.9203 0
      vertex -36.8203 10.4225 0
    endloop
  endfacet
  facet normal 0.707106 0.707107 0
    outer loop
      vertex -36.8203 7.77748 -18.5
      vertex -36.8203 7.77748 0
      vertex -36.3225 7.27971 -18.5
    endloop
  endfacet
  facet normal 0 0 1
    outer loop
      vertex -36.8203 7.77748 0
      vertex -36.3225 -7.27971 0
      vertex -36.3225 7.27971 0
    endloop
  endfacet
  facet normal 0.707106 0.707107 -0
    outer loop
      vertex -36.8203 7.77748 0
      vertex -36.3225 7.27971 0
      vertex -36.3225 7.27971 -18.5
    endloop
  endfacet
  facet normal 0 0 -1
    outer loop
      vertex -37.1 -12.7373 -18.5
      vertex -35 -11.35 -18.5
      vertex -32.9 -12.7373 -18.5
    endloop
  endfacet
  facet normal -0 0 -1
    outer loop
      vertex -37.1 -12.7373 -18.5
      vertex -35.6953 -11.2399 -18.5
      vertex -35 -11.35 -18.5
    endloop
  endfacet
  facet normal -0 0 -1
    outer loop
      vertex -37.1 -12.7373 -18.5
      vertex -36.3225 -10.9203 -18.5
      vertex -35.6953 -11.2399 -18.5
    endloop
  endfacet
  facet normal 0 0 -1
    outer loop
      vertex -37.1 -12.7373 -18.5
      vertex -36.8203 -10.4225 -18.5
      vertex -36.3225 -10.9203 -18.5
    endloop
  endfacet
  facet normal 0 1 0
    outer loop
      vertex -37.1 -12.7373 -52.3063
      vertex -32.9 -12.7373 -18.5
      vertex -34.3863 -12.7373 -57.3842
    endloop
  endfacet
  facet normal 0 1 0
    outer loop
      vertex -37.1 -12.7373 -52.3063
      vertex -37.1 -12.7373 -18.5
      vertex -32.9 -12.7373 -18.5
    endloop
  endfacet
  facet normal 0 0 -1
    outer loop
      vertex -37.1 -5.46269 -18.5
      vertex -32.9 -5.46269 -18.5
      vertex -35 -6.85 -18.5
    endloop
  endfacet
  facet normal 0 0 -1
    outer loop
      vertex -37.1 -5.46269 -18.5
      vertex -35 -6.85 -18.5
      vertex -35.6953 -6.96012 -18.5
    endloop
  endfacet
  facet normal 0 0 -1
    outer loop
      vertex -37.1 -5.46269 -18.5
      vertex -35.6953 -6.96012 -18.5
      vertex -36.3225 -7.27971 -18.5
    endloop
  endfacet
  facet normal 0 0 -1
    outer loop
      vertex -37.1 -5.46269 -18.5
      vertex -36.3225 -7.27971 -18.5
      vertex -36.8203 -7.77748 -18.5
    endloop
  endfacet
  facet normal 0 -1 0
    outer loop
      vertex -37.1 -5.46269 -52.3063
      vertex -32.9 -5.46269 -18.5
      vertex -37.1 -5.46269 -18.5
    endloop
  endfacet
  facet normal 0 -1 -0
    outer loop
      vertex -37.1 -5.46269 -52.3063
      vertex -32.9 -5.46269 -60.1653
      vertex -32.9 -5.46269 -18.5
    endloop
  endfacet
  facet normal -0.881955 0 -0.471333
    outer loop
      vertex -37.1 -5.46269 -52.3063
      vertex -37.1 5.46269 -52.3063
      vertex -32.9 -5.46269 -60.1653
    endloop
  endfacet
  facet normal 0 0 -1
    outer loop
      vertex -37.1 12.7373 -18.5
      vertex -32.9 12.7373 -18.5
      vertex -35 11.35 -18.5
    endloop
  endfacet
  facet normal 0 0 -1
    outer loop
      vertex -37.1 12.7373 -18.5
      vertex -35 11.35 -18.5
      vertex -35.6953 11.2399 -18.5
    endloop
  endfacet
  facet normal 0 0 -1
    outer loop
      vertex -37.1 12.7373 -18.5
      vertex -35.6953 11.2399 -18.5
      vertex -36.3225 10.9203 -18.5
    endloop
  endfacet
  facet normal 0 0 -1
    outer loop
      vertex -37.1 12.7373 -18.5
      vertex -36.3225 10.9203 -18.5
      vertex -36.8203 10.4225 -18.5
    endloop
  endfacet
  facet normal 0 -1 0
    outer loop
      vertex -37.1 12.7373 -52.3063
      vertex -32.9 12.7373 -18.5
      vertex -37.1 12.7373 -18.5
    endloop
  endfacet
  facet normal 0 -1 0
    outer loop
      vertex -37.1 12.7373 -52.3063
      vertex -34.3863 12.7373 -57.3842
      vertex -32.9 12.7373 -18.5
    endloop
  endfacet
  facet normal 0 0 -1
    outer loop
      vertex -37.1 5.46269 -18.5
      vertex -35 6.85 -18.5
      vertex -32.9 5.46269 -18.5
    endloop
  endfacet
  facet normal -0 0 -1
    outer loop
      vertex -37.1 5.46269 -18.5
      vertex -35.6953 6.96012 -18.5
      vertex -35 6.85 -18.5
    endloop
  endfacet
  facet normal -0 0 -1
    outer loop
      vertex -37.1 5.46269 -18.5
      vertex -36.3225 7.27971 -18.5
      vertex -35.6953 6.96012 -18.5
    endloop
  endfacet
  facet normal 0 0 -1
    outer loop
      vertex -37.1 5.46269 -18.5
      vertex -36.8203 7.77748 -18.5
      vertex -36.3225 7.27971 -18.5
    endloop
  endfacet
  facet normal -0 1 0
    outer loop
      vertex -37.1 5.46269 -52.3063
      vertex -32.9 5.46269 -18.5
      vertex -32.9 5.46269 -60.1653
    endloop
  endfacet
  facet normal -0.881955 -0 -0.471333
    outer loop
      vertex -37.1 5.46269 -52.3063
      vertex -32.9 5.46269 -60.1653
      vertex -32.9 -5.46269 -60.1653
    endloop
  endfacet
  facet normal 0 1 0
    outer loop
      vertex -37.1 5.46269 -52.3063
      vertex -37.1 5.46269 -18.5
      vertex -32.9 5.46269 -18.5
    endloop
  endfacet
  facet normal 0.891007 -0.453989 0
    outer loop
      vertex -37.1399 -8.40471 -18.5
      vertex -36.8203 -7.77748 -18.5
      vertex -37.1399 -8.40471 0
    endloop
  endfacet
  facet normal 0.891007 -0.453989 0
    outer loop
      vertex -37.1399 -8.40471 0
      vertex -36.8203 -7.77748 -18.5
      vertex -36.8203 -7.77748 0
    endloop
  endfacet
  facet normal 0 0 1
    outer loop
      vertex -37.1399 -8.40471 0
      vertex -36.8203 -7.77748 0
      vertex -37.1399 8.40471 0
    endloop
  endfacet
  facet normal 0.891007 0.453989 0
    outer loop
      vertex -37.1399 -9.79529 -18.5
      vertex -36.8203 -10.4225 0
      vertex -36.8203 -10.4225 -18.5
    endloop
  endfacet
  facet normal 0.891007 0.453989 0
    outer loop
      vertex -37.1399 -9.79529 -18.5
      vertex -37.1399 -9.79529 0
      vertex -36.8203 -10.4225 0
    endloop
  endfacet
  facet normal 0.891007 0.453989 0
    outer loop
      vertex -37.1399 8.40471 -18.5
      vertex -36.8203 7.77748 0
      vertex -36.8203 7.77748 -18.5
    endloop
  endfacet
  facet normal 0.891007 0.453989 0
    outer loop
      vertex -37.1399 8.40471 -18.5
      vertex -37.1399 8.40471 0
      vertex -36.8203 7.77748 0
    endloop
  endfacet
  facet normal 0 0 1
    outer loop
      vertex -37.1399 8.40471 0
      vertex -36.8203 -7.77748 0
      vertex -36.8203 7.77748 0
    endloop
  endfacet
  facet normal 0.891007 -0.453989 0
    outer loop
      vertex -37.1399 9.79529 -18.5
      vertex -36.8203 10.4225 -18.5
      vertex -37.1399 9.79529 0
    endloop
  endfacet
  facet normal 0.891007 -0.453989 0
    outer loop
      vertex -37.1399 9.79529 0
      vertex -36.8203 10.4225 -18.5
      vertex -36.8203 10.4225 0
    endloop
  endfacet
  facet normal 0.987688 -0.156434 0
    outer loop
      vertex -37.25 -9.1 -18.5
      vertex -37.1399 -8.40471 -18.5
      vertex -37.25 -9.1 0
    endloop
  endfacet
  facet normal 0.987688 0.156434 0
    outer loop
      vertex -37.25 -9.1 -18.5
      vertex -37.1399 -9.79529 0
      vertex -37.1399 -9.79529 -18.5
    endloop
  endfacet
  facet normal 0.987688 0.156434 0
    outer loop
      vertex -37.25 -9.1 -18.5
      vertex -37.25 -9.1 0
      vertex -37.1399 -9.79529 0
    endloop
  endfacet
  facet normal 0.987688 -0.156434 0
    outer loop
      vertex -37.25 -9.1 0
      vertex -37.1399 -8.40471 -18.5
      vertex -37.1399 -8.40471 0
    endloop
  endfacet
  facet normal 0.987688 0.156434 0
    outer loop
      vertex -37.25 9.1 -18.5
      vertex -37.1399 8.40471 0
      vertex -37.1399 8.40471 -18.5
    endloop
  endfacet
  facet normal 0.987688 -0.156434 0
    outer loop
      vertex -37.25 9.1 -18.5
      vertex -37.1399 9.79529 -18.5
      vertex -37.25 9.1 0
    endloop
  endfacet
  facet normal 0.987688 0.156434 0
    outer loop
      vertex -37.25 9.1 -18.5
      vertex -37.25 9.1 0
      vertex -37.1399 8.40471 0
    endloop
  endfacet
  facet normal 0.987688 -0.156434 0
    outer loop
      vertex -37.25 9.1 0
      vertex -37.1399 9.79529 -18.5
      vertex -37.1399 9.79529 0
    endloop
  endfacet
  facet normal 0 0 -1
    outer loop
      vertex -39.2 -9.1 -18.5
      vertex -36.8203 -10.4225 -18.5
      vertex -37.1 -12.7373 -18.5
    endloop
  endfacet
  facet normal 0 0 -1
    outer loop
      vertex -39.2 -9.1 -18.5
      vertex -36.8203 -7.77748 -18.5
      vertex -37.1399 -8.40471 -18.5
    endloop
  endfacet
  facet normal -0 0 -1
    outer loop
      vertex -39.2 -9.1 -18.5
      vertex -37.1 -5.46269 -18.5
      vertex -36.8203 -7.77748 -18.5
    endloop
  endfacet
  facet normal 0 0 -1
    outer loop
      vertex -39.2 -9.1 -18.5
      vertex -37.1399 -8.40471 -18.5
      vertex -37.25 -9.1 -18.5
    endloop
  endfacet
  facet normal 0 0 -1
    outer loop
      vertex -39.2 -9.1 -18.5
      vertex -37.1399 -9.79529 -18.5
      vertex -36.8203 -10.4225 -18.5
    endloop
  endfacet
  facet normal 0 0 -1
    outer loop
      vertex -39.2 -9.1 -18.5
      vertex -37.25 -9.1 -18.5
      vertex -37.1399 -9.79529 -18.5
    endloop
  endfacet
  facet normal 0.866025 0.5 0
    outer loop
      vertex -39.2 -9.1 -48.3768
      vertex -37.1 -12.7373 -18.5
      vertex -37.1 -12.7373 -52.3063
    endloop
  endfacet
  facet normal 0.866025 -0.5 0
    outer loop
      vertex -39.2 -9.1 -48.3768
      vertex -37.1 -5.46269 -18.5
      vertex -39.2 -9.1 -18.5
    endloop
  endfacet
  facet normal 0.866025 -0.5 0
    outer loop
      vertex -39.2 -9.1 -48.3768
      vertex -37.1 -5.46269 -52.3063
      vertex -37.1 -5.46269 -18.5
    endloop
  endfacet
  facet normal -0.881955 0 -0.471333
    outer loop
      vertex -39.2 -9.1 -48.3768
      vertex -37.1 5.46269 -52.3063
      vertex -37.1 -5.46269 -52.3063
    endloop
  endfacet
  facet normal 0.866025 0.5 0
    outer loop
      vertex -39.2 -9.1 -48.3768
      vertex -39.2 -9.1 -18.5
      vertex -37.1 -12.7373 -18.5
    endloop
  endfacet
  facet normal -0.881955 0 -0.471333
    outer loop
      vertex -39.2 -9.1 -48.3768
      vertex -39.2 9.1 -48.3768
      vertex -37.1 5.46269 -52.3063
    endloop
  endfacet
  facet normal 0 0 -1
    outer loop
      vertex -39.2 9.1 -18.5
      vertex -36.8203 10.4225 -18.5
      vertex -37.1399 9.79529 -18.5
    endloop
  endfacet
  facet normal 0 0 -1
    outer loop
      vertex -39.2 9.1 -18.5
      vertex -36.8203 7.77748 -18.5
      vertex -37.1 5.46269 -18.5
    endloop
  endfacet
  facet normal -0 0 -1
    outer loop
      vertex -39.2 9.1 -18.5
      vertex -37.1 12.7373 -18.5
      vertex -36.8203 10.4225 -18.5
    endloop
  endfacet
  facet normal 0 0 -1
    outer loop
      vertex -39.2 9.1 -18.5
      vertex -37.1399 8.40471 -18.5
      vertex -36.8203 7.77748 -18.5
    endloop
  endfacet
  facet normal 0 0 -1
    outer loop
      vertex -39.2 9.1 -18.5
      vertex -37.1399 9.79529 -18.5
      vertex -37.25 9.1 -18.5
    endloop
  endfacet
  facet normal 0 0 -1
    outer loop
      vertex -39.2 9.1 -18.5
      vertex -37.25 9.1 -18.5
      vertex -37.1399 8.40471 -18.5
    endloop
  endfacet
  facet normal 0.866025 -0.5 0
    outer loop
      vertex -39.2 9.1 -48.3768
      vertex -37.1 12.7373 -18.5
      vertex -39.2 9.1 -18.5
    endloop
  endfacet
  facet normal 0.866025 -0.5 0
    outer loop
      vertex -39.2 9.1 -48.3768
      vertex -37.1 12.7373 -52.3063
      vertex -37.1 12.7373 -18.5
    endloop
  endfacet
  facet normal 0.866025 0.5 0
    outer loop
      vertex -39.2 9.1 -48.3768
      vertex -37.1 5.46269 -18.5
      vertex -37.1 5.46269 -52.3063
    endloop
  endfacet
  facet normal 0.866025 0.5 0
    outer loop
      vertex -39.2 9.1 -48.3768
      vertex -39.2 9.1 -18.5
      vertex -37.1 5.46269 -18.5
    endloop
  endfacet
  facet normal 0 0 -1
    outer loop
      vertex -4.1786 -21.905 -80
      vertex -1.40023 22.256 -80
      vertex -1.40023 -22.256 -80
    endloop
  endfacet
  facet normal 0 0 -1
    outer loop
      vertex -4.1786 -21.905 -80
      vertex -4.1786 21.905 -80
      vertex -1.40023 22.256 -80
    endloop
  endfacet
  facet normal -0.45399 0.891007 0
    outer loop
      vertex -4.30471 -2.13988 -23.5
      vertex -3.67748 -1.82029 -23.5
      vertex -3.67748 -1.82029 -43.5
    endloop
  endfacet
  facet normal 0 0 1
    outer loop
      vertex -4.30471 -2.13988 -43.5
      vertex -3.67748 -1.82029 -43.5
      vertex -4.30471 2.13988 -43.5
    endloop
  endfacet
  facet normal -0.45399 0.891007 0
    outer loop
      vertex -4.30471 -2.13988 -43.5
      vertex -4.30471 -2.13988 -23.5
      vertex -3.67748 -1.82029 -43.5
    endloop
  endfacet
  facet normal 0 0 1
    outer loop
      vertex -4.30471 2.13988 -43.5
      vertex -3.67748 -1.82029 -43.5
      vertex -3.67748 1.82029 -43.5
    endloop
  endfacet
  facet normal -0.45399 -0.891007 0
    outer loop
      vertex -4.30471 2.13988 -43.5
      vertex -3.67748 1.82029 -23.5
      vertex -4.30471 2.13988 -23.5
    endloop
  endfacet
  facet normal -0.45399 -0.891007 -0
    outer loop
      vertex -4.30471 2.13988 -43.5
      vertex -3.67748 1.82029 -43.5
      vertex -3.67748 1.82029 -23.5
    endloop
  endfacet
  facet normal -0.156436 0.987688 0
    outer loop
      vertex -5 -2.25 -23.5
      vertex -4.30471 -2.13988 -23.5
      vertex -4.30471 -2.13988 -43.5
    endloop
  endfacet
  facet normal 0 0 1
    outer loop
      vertex -5 -2.25 -43.5
      vertex -4.30471 -2.13988 -43.5
      vertex -5 2.25 -43.5
    endloop
  endfacet
  facet normal -0.156436 0.987688 0
    outer loop
      vertex -5 -2.25 -43.5
      vertex -5 -2.25 -23.5
      vertex -4.30471 -2.13988 -43.5
    endloop
  endfacet
  facet normal 0 0 -1
    outer loop
      vertex -5 -4.2 -20.3
      vertex -5 4.2 -20.3
      vertex 22.3 0 -20.3
    endloop
  endfacet
  facet normal 0 1 -0
    outer loop
      vertex -5 -4.2 -20.3
      vertex 21.8561 -4.2 -20.3
      vertex 21.8561 -4.2 -23.5
    endloop
  endfacet
  facet normal 0 0 -1
    outer loop
      vertex -5 -4.2 -20.3
      vertex 22.1242 -2.79493 -20.3
      vertex 21.8561 -4.2 -20.3
    endloop
  endfacet
  facet normal 0 0 -1
    outer loop
      vertex -5 -4.2 -20.3
      vertex 22.3 0 -20.3
      vertex 22.1242 -2.79493 -20.3
    endloop
  endfacet
  facet normal 0 0 1
    outer loop
      vertex -5 -4.2 -23.5
      vertex -3.17971 -1.32252 -23.5
      vertex -3.67748 -1.82029 -23.5
    endloop
  endfacet
  facet normal 0 0 1
    outer loop
      vertex -5 -4.2 -23.5
      vertex -3.67748 -1.82029 -23.5
      vertex -4.30471 -2.13988 -23.5
    endloop
  endfacet
  facet normal 0 0 1
    outer loop
      vertex -5 -4.2 -23.5
      vertex -4.30471 -2.13988 -23.5
      vertex -5 -2.25 -23.5
    endloop
  endfacet
  facet normal 0 1 0
    outer loop
      vertex -5 -4.2 -23.5
      vertex -5 -4.2 -20.3
      vertex 21.8561 -4.2 -23.5
    endloop
  endfacet
  facet normal 0 0 1
    outer loop
      vertex -5 -4.2 -23.5
      vertex 21.8561 -4.2 -23.5
      vertex -3.17971 -1.32252 -23.5
    endloop
  endfacet
  facet normal 0 0 1
    outer loop
      vertex -5 2.25 -23.5
      vertex -4.30471 2.13988 -23.5
      vertex -5 4.2 -23.5
    endloop
  endfacet
  facet normal 0 0 1
    outer loop
      vertex -5 2.25 -43.5
      vertex -4.30471 -2.13988 -43.5
      vertex -4.30471 2.13988 -43.5
    endloop
  endfacet
  facet normal -0.156436 -0.987688 0
    outer loop
      vertex -5 2.25 -43.5
      vertex -4.30471 2.13988 -23.5
      vertex -5 2.25 -23.5
    endloop
  endfacet
  facet normal -0.156436 -0.987688 -0
    outer loop
      vertex -5 2.25 -43.5
      vertex -4.30471 2.13988 -43.5
      vertex -4.30471 2.13988 -23.5
    endloop
  endfacet
  facet normal 0 0 -1
    outer loop
      vertex -5 4.2 -20.3
      vertex 21.8561 4.2 -20.3
      vertex 22.1242 2.79493 -20.3
    endloop
  endfacet
  facet normal 0 0 -1
    outer loop
      vertex -5 4.2 -20.3
      vertex 22.1242 2.79493 -20.3
      vertex 22.3 0 -20.3
    endloop
  endfacet
  facet normal -0 0 1
    outer loop
      vertex -5 4.2 -23.5
      vertex -3.17971 1.32252 -23.5
      vertex 21.8561 4.2 -23.5
    endloop
  endfacet
  facet normal 0 0 1
    outer loop
      vertex -5 4.2 -23.5
      vertex -3.67748 1.82029 -23.5
      vertex -3.17971 1.32252 -23.5
    endloop
  endfacet
  facet normal 0 0 1
    outer loop
      vertex -5 4.2 -23.5
      vertex -4.30471 2.13988 -23.5
      vertex -3.67748 1.82029 -23.5
    endloop
  endfacet
  facet normal 0 -1 0
    outer loop
      vertex -5 4.2 -23.5
      vertex 21.8561 4.2 -20.3
      vertex -5 4.2 -20.3
    endloop
  endfacet
  facet normal 0 -1 -0
    outer loop
      vertex -5 4.2 -23.5
      vertex 21.8561 4.2 -23.5
      vertex 21.8561 4.2 -20.3
    endloop
  endfacet
  facet normal 0.156436 0.987688 -0
    outer loop
      vertex -5.69529 -2.13988 -23.5
      vertex -5 -2.25 -23.5
      vertex -5 -2.25 -43.5
    endloop
  endfacet
  facet normal 0 0 1
    outer loop
      vertex -5.69529 -2.13988 -23.5
      vertex -5 -4.2 -23.5
      vertex -5 -2.25 -23.5
    endloop
  endfacet
  facet normal 0 0 1
    outer loop
      vertex -5.69529 -2.13988 -43.5
      vertex -5 -2.25 -43.5
      vertex -5.69529 2.13988 -43.5
    endloop
  endfacet
  facet normal 0.156436 0.987688 0
    outer loop
      vertex -5.69529 -2.13988 -43.5
      vertex -5.69529 -2.13988 -23.5
      vertex -5 -2.25 -43.5
    endloop
  endfacet
  facet normal 0 0 1
    outer loop
      vertex -5.69529 2.13988 -23.5
      vertex -5 2.25 -23.5
      vertex -5 4.2 -23.5
    endloop
  endfacet
  facet normal -0 0 1
    outer loop
      vertex -5.69529 2.13988 -43.5
      vertex -5 -2.25 -43.5
      vertex -5 2.25 -43.5
    endloop
  endfacet
  facet normal 0.156436 -0.987688 0
    outer loop
      vertex -5.69529 2.13988 -43.5
      vertex -5 2.25 -23.5
      vertex -5.69529 2.13988 -23.5
    endloop
  endfacet
  facet normal 0.156436 -0.987688 0
    outer loop
      vertex -5.69529 2.13988 -43.5
      vertex -5 2.25 -43.5
      vertex -5 2.25 -23.5
    endloop
  endfacet
  facet normal 0 0 1
    outer loop
      vertex -6.32252 -1.82029 -23.5
      vertex -5 -4.2 -23.5
      vertex -5.69529 -2.13988 -23.5
    endloop
  endfacet
  facet normal 0.45399 0.891007 -0
    outer loop
      vertex -6.32252 -1.82029 -23.5
      vertex -5.69529 -2.13988 -23.5
      vertex -5.69529 -2.13988 -43.5
    endloop
  endfacet
  facet normal 0 0 1
    outer loop
      vertex -6.32252 -1.82029 -43.5
      vertex -5.69529 -2.13988 -43.5
      vertex -6.32252 1.82029 -43.5
    endloop
  endfacet
  facet normal 0.45399 0.891007 0
    outer loop
      vertex -6.32252 -1.82029 -43.5
      vertex -6.32252 -1.82029 -23.5
      vertex -5.69529 -2.13988 -43.5
    endloop
  endfacet
  facet normal 0 0 1
    outer loop
      vertex -6.32252 1.82029 -23.5
      vertex -5.69529 2.13988 -23.5
      vertex -5 4.2 -23.5
    endloop
  endfacet
  facet normal -0 0 1
    outer loop
      vertex -6.32252 1.82029 -43.5
      vertex -5.69529 -2.13988 -43.5
      vertex -5.69529 2.13988 -43.5
    endloop
  endfacet
  facet normal 0.45399 -0.891007 0
    outer loop
      vertex -6.32252 1.82029 -43.5
      vertex -5.69529 2.13988 -23.5
      vertex -6.32252 1.82029 -23.5
    endloop
  endfacet
  facet normal 0.45399 -0.891007 0
    outer loop
      vertex -6.32252 1.82029 -43.5
      vertex -5.69529 2.13988 -43.5
      vertex -5.69529 2.13988 -23.5
    endloop
  endfacet
  facet normal 0.707107 0.707107 0
    outer loop
      vertex -6.82029 -1.32252 -43.5
      vertex -6.32252 -1.82029 -23.5
      vertex -6.32252 -1.82029 -43.5
    endloop
  endfacet
  facet normal 0 0 1
    outer loop
      vertex -6.82029 -1.32252 -43.5
      vertex -6.32252 -1.82029 -43.5
      vertex -6.82029 1.32252 -43.5
    endloop
  endfacet
  facet normal 0.707107 0.707107 0
    outer loop
      vertex -6.82029 -1.32252 -43.5
      vertex -6.82029 -1.32252 -23.5
      vertex -6.32252 -1.82029 -23.5
    endloop
  endfacet
  facet normal 0.707107 -0.707107 0
    outer loop
      vertex -6.82029 1.32252 -23.5
      vertex -6.32252 1.82029 -43.5
      vertex -6.32252 1.82029 -23.5
    endloop
  endfacet
  facet normal -0 0 1
    outer loop
      vertex -6.82029 1.32252 -43.5
      vertex -6.32252 -1.82029 -43.5
      vertex -6.32252 1.82029 -43.5
    endloop
  endfacet
  facet normal 0.707107 -0.707107 0
    outer loop
      vertex -6.82029 1.32252 -43.5
      vertex -6.32252 1.82029 -43.5
      vertex -6.82029 1.32252 -23.5
    endloop
  endfacet
  facet normal 0 0 -1
    outer loop
      vertex -6.89108 -21.2086 -80
      vertex -4.1786 21.905 -80
      vertex -4.1786 -21.905 -80
    endloop
  endfacet
  facet normal 0 0 -1
    outer loop
      vertex -6.89108 -21.2086 -80
      vertex -6.89108 21.2086 -80
      vertex -4.1786 21.905 -80
    endloop
  endfacet
  facet normal 0 -0.961792 -0.27378
    outer loop
      vertex -65 -45 -0.0999994
      vertex -1.40023 -22.256 -80
      vertex 0 -45 -0.0999994
    endloop
  endfacet
  facet normal -0.41184 -0.749135 -0.51883
    outer loop
      vertex -65 -45 -0.0999994
      vertex -11.9489 -18.8285 -80
      vertex -9.49488 -20.1776 -80
    endloop
  endfacet
  facet normal -0.491638 -0.676682 -0.548081
    outer loop
      vertex -65 -45 -0.0999994
      vertex -14.2146 -17.1824 -80
      vertex -11.9489 -18.8285 -80
    endloop
  endfacet
  facet normal -0.563727 -0.600308 -0.567312
    outer loop
      vertex -65 -45 -0.0999994
      vertex -16.256 -15.2654 -80
      vertex -14.2146 -17.1824 -80
    endloop
  endfacet
  facet normal -0.629071 -0.520413 -0.577443
    outer loop
      vertex -65 -45 -0.0999994
      vertex -18.0411 -13.1076 -80
      vertex -16.256 -15.2654 -80
    endloop
  endfacet
  facet normal -0.688416 -0.436882 -0.57898
    outer loop
      vertex -65 -45 -0.0999994
      vertex -19.5416 -10.7431 -80
      vertex -18.0411 -13.1076 -80
    endloop
  endfacet
  facet normal -0.742188 -0.349248 -0.572
    outer loop
      vertex -65 -45 -0.0999994
      vertex -20.734 -8.20918 -80
      vertex -19.5416 -10.7431 -80
    endloop
  endfacet
  facet normal -0.790405 -0.256817 -0.556152
    outer loop
      vertex -65 -45 -0.0999994
      vertex -21.5994 -5.54578 -80
      vertex -20.734 -8.20918 -80
    endloop
  endfacet
  facet normal -0.832569 -0.158821 -0.530665
    outer loop
      vertex -65 -45 -0.0999994
      vertex -22.1242 -2.79493 -80
      vertex -21.5994 -5.54578 -80
    endloop
  endfacet
  facet normal -0.867537 -0.0545827 -0.494369
    outer loop
      vertex -65 -45 -0.0999994
      vertex -32.9 -12.7373 -59.9924
      vertex -22.1242 -2.79493 -80
    endloop
  endfacet
  facet normal -0.867538 -0.05458 -0.494368
    outer loop
      vertex -65 -45 -0.0999994
      vertex -34.3863 -12.7373 -57.3842
      vertex -32.9 -12.7373 -59.9924
    endloop
  endfacet
  facet normal -0.881955 9.51728e-08 -0.471333
    outer loop
      vertex -65 -45 -0.0999994
      vertex -37.1 -12.7373 -52.3063
      vertex -34.3863 -12.7373 -57.3842
    endloop
  endfacet
  facet normal -0.881955 -3.23268e-07 -0.471333
    outer loop
      vertex -65 -45 -0.0999994
      vertex -39.2 -9.1 -48.3768
      vertex -37.1 -12.7373 -52.3063
    endloop
  endfacet
  facet normal -0.117075 -0.926741 -0.356993
    outer loop
      vertex -65 -45 -0.0999994
      vertex -4.1786 -21.905 -80
      vertex -1.40023 -22.256 -80
    endloop
  endfacet
  facet normal -0.225133 -0.876835 -0.424824
    outer loop
      vertex -65 -45 -0.0999994
      vertex -6.89108 -21.2086 -80
      vertex -4.1786 -21.905 -80
    endloop
  endfacet
  facet normal -1 -0 0
    outer loop
      vertex -65 -45 -0.0999994
      vertex -65 -45 0
      vertex -65 45 0
    endloop
  endfacet
  facet normal -0.881955 0 -0.471333
    outer loop
      vertex -65 -45 -0.0999994
      vertex -65 45 -0.0999994
      vertex -39.2 -9.1 -48.3768
    endloop
  endfacet
  facet normal -1 0 0
    outer loop
      vertex -65 -45 -0.0999994
      vertex -65 45 0
      vertex -65 45 -0.0999994
    endloop
  endfacet
  facet normal -0.323294 -0.816546 -0.478261
    outer loop
      vertex -65 -45 -0.0999994
      vertex -9.49488 -20.1776 -80
      vertex -6.89108 -21.2086 -80
    endloop
  endfacet
  facet normal 0 -1 -0
    outer loop
      vertex -65 -45 -0.0999994
      vertex 0 -45 -0.0999994
      vertex 0 -45 0
    endloop
  endfacet
  facet normal 0 -1 0
    outer loop
      vertex -65 -45 -0.0999994
      vertex 0 -45 0
      vertex -65 -45 0
    endloop
  endfacet
  facet normal 0 0 1
    outer loop
      vertex -65 -45 0
      vertex -35 -11.35 0
      vertex -35.6953 -11.2399 0
    endloop
  endfacet
  facet normal 0 0 1
    outer loop
      vertex -65 -45 0
      vertex -35.6953 -11.2399 0
      vertex -36.3225 -10.9203 0
    endloop
  endfacet
  facet normal 0 0 1
    outer loop
      vertex -65 -45 0
      vertex -36.3225 -10.9203 0
      vertex -36.8203 -10.4225 0
    endloop
  endfacet
  facet normal 0 0 1
    outer loop
      vertex -65 -45 0
      vertex -36.8203 -10.4225 0
      vertex -37.1399 -9.79529 0
    endloop
  endfacet
  facet normal 0 0 1
    outer loop
      vertex -65 -45 0
      vertex -37.1399 -8.40471 0
      vertex -65 45 0
    endloop
  endfacet
  facet normal 0 0 1
    outer loop
      vertex -65 -45 0
      vertex -37.1399 -9.79529 0
      vertex -37.25 -9.1 0
    endloop
  endfacet
  facet normal 0 0 1
    outer loop
      vertex -65 -45 0
      vertex -37.25 -9.1 0
      vertex -37.1399 -8.40471 0
    endloop
  endfacet
  facet normal 0 0 1
    outer loop
      vertex -65 -45 0
      vertex 0 -45 0
      vertex -35 -11.35 0
    endloop
  endfacet
  facet normal -0.117075 0.926741 -0.356993
    outer loop
      vertex -65 45 -0.0999994
      vertex -1.40023 22.256 -80
      vertex -4.1786 21.905 -80
    endloop
  endfacet
  facet normal -0.491638 0.676682 -0.548081
    outer loop
      vertex -65 45 -0.0999994
      vertex -11.9489 18.8285 -80
      vertex -14.2146 17.1824 -80
    endloop
  endfacet
  facet normal -0.563727 0.600308 -0.567312
    outer loop
      vertex -65 45 -0.0999994
      vertex -14.2146 17.1824 -80
      vertex -16.256 15.2654 -80
    endloop
  endfacet
  facet normal -0.629071 0.520413 -0.577443
    outer loop
      vertex -65 45 -0.0999994
      vertex -16.256 15.2654 -80
      vertex -18.0411 13.1076 -80
    endloop
  endfacet
  facet normal -0.688416 0.436882 -0.57898
    outer loop
      vertex -65 45 -0.0999994
      vertex -18.0411 13.1076 -80
      vertex -19.5416 10.7431 -80
    endloop
  endfacet
  facet normal -0.742188 0.349248 -0.572
    outer loop
      vertex -65 45 -0.0999994
      vertex -19.5416 10.7431 -80
      vertex -20.734 8.20918 -80
    endloop
  endfacet
  facet normal -0.790405 0.256817 -0.556152
    outer loop
      vertex -65 45 -0.0999994
      vertex -20.734 8.20918 -80
      vertex -21.5994 5.54578 -80
    endloop
  endfacet
  facet normal -0.832569 0.158821 -0.530665
    outer loop
      vertex -65 45 -0.0999994
      vertex -21.5994 5.54578 -80
      vertex -22.1242 2.79493 -80
    endloop
  endfacet
  facet normal -0.867537 0.0545827 -0.494369
    outer loop
      vertex -65 45 -0.0999994
      vertex -22.1242 2.79493 -80
      vertex -32.9 12.7373 -59.9924
    endloop
  endfacet
  facet normal -0.867538 0.05458 -0.494368
    outer loop
      vertex -65 45 -0.0999994
      vertex -32.9 12.7373 -59.9924
      vertex -34.3863 12.7373 -57.3842
    endloop
  endfacet
  facet normal -0.881955 -9.51728e-08 -0.471333
    outer loop
      vertex -65 45 -0.0999994
      vertex -34.3863 12.7373 -57.3842
      vertex -37.1 12.7373 -52.3063
    endloop
  endfacet
  facet normal -0.881955 3.23268e-07 -0.471333
    outer loop
      vertex -65 45 -0.0999994
      vertex -37.1 12.7373 -52.3063
      vertex -39.2 9.1 -48.3768
    endloop
  endfacet
  facet normal -0.881955 -0 -0.471333
    outer loop
      vertex -65 45 -0.0999994
      vertex -39.2 9.1 -48.3768
      vertex -39.2 -9.1 -48.3768
    endloop
  endfacet
  facet normal -0.225133 0.876835 -0.424824
    outer loop
      vertex -65 45 -0.0999994
      vertex -4.1786 21.905 -80
      vertex -6.89108 21.2086 -80
    endloop
  endfacet
  facet normal -0.323294 0.816546 -0.478261
    outer loop
      vertex -65 45 -0.0999994
      vertex -6.89108 21.2086 -80
      vertex -9.49488 20.1776 -80
    endloop
  endfacet
  facet normal 0 1 0
    outer loop
      vertex -65 45 -0.0999994
      vertex -65 45 0
      vertex 0 45 -0.0999994
    endloop
  endfacet
  facet normal -0.41184 0.749135 -0.51883
    outer loop
      vertex -65 45 -0.0999994
      vertex -9.49488 20.1776 -80
      vertex -11.9489 18.8285 -80
    endloop
  endfacet
  facet normal 0 0.961792 -0.27378
    outer loop
      vertex -65 45 -0.0999994
      vertex 0 45 -0.0999994
      vertex -1.40023 22.256 -80
    endloop
  endfacet
  facet normal -0 0 1
    outer loop
      vertex -65 45 0
      vertex -35 11.35 0
      vertex 0 45 0
    endloop
  endfacet
  facet normal 0 0 1
    outer loop
      vertex -65 45 0
      vertex -35.6953 11.2399 0
      vertex -35 11.35 0
    endloop
  endfacet
  facet normal 0 0 1
    outer loop
      vertex -65 45 0
      vertex -36.3225 10.9203 0
      vertex -35.6953 11.2399 0
    endloop
  endfacet
  facet normal 0 0 1
    outer loop
      vertex -65 45 0
      vertex -36.8203 10.4225 0
      vertex -36.3225 10.9203 0
    endloop
  endfacet
  facet normal 0 0 1
    outer loop
      vertex -65 45 0
      vertex -37.1399 -8.40471 0
      vertex -37.1399 8.40471 0
    endloop
  endfacet
  facet normal 0 0 1
    outer loop
      vertex -65 45 0
      vertex -37.1399 8.40471 0
      vertex -37.25 9.1 0
    endloop
  endfacet
  facet normal 0 0 1
    outer loop
      vertex -65 45 0
      vertex -37.1399 9.79529 0
      vertex -36.8203 10.4225 0
    endloop
  endfacet
  facet normal 0 0 1
    outer loop
      vertex -65 45 0
      vertex -37.25 9.1 0
      vertex -37.1399 9.79529 0
    endloop
  endfacet
  facet normal 0 1 -0
    outer loop
      vertex -65 45 0
      vertex 0 45 0
      vertex 0 45 -0.0999994
    endloop
  endfacet
  facet normal 0.891007 0.45399 0
    outer loop
      vertex -7.13988 -0.695288 -43.5
      vertex -6.82029 -1.32252 -23.5
      vertex -6.82029 -1.32252 -43.5
    endloop
  endfacet
  facet normal 0 0 1
    outer loop
      vertex -7.13988 -0.695288 -43.5
      vertex -6.82029 -1.32252 -43.5
      vertex -7.13988 0.695288 -43.5
    endloop
  endfacet
  facet normal 0.891007 0.45399 0
    outer loop
      vertex -7.13988 -0.695288 -43.5
      vertex -7.13988 -0.695288 -23.5
      vertex -6.82029 -1.32252 -23.5
    endloop
  endfacet
  facet normal 0.891007 -0.45399 0
    outer loop
      vertex -7.13988 0.695288 -23.5
      vertex -6.82029 1.32252 -43.5
      vertex -6.82029 1.32252 -23.5
    endloop
  endfacet
  facet normal -0 0 1
    outer loop
      vertex -7.13988 0.695288 -43.5
      vertex -6.82029 -1.32252 -43.5
      vertex -6.82029 1.32252 -43.5
    endloop
  endfacet
  facet normal 0.891007 -0.45399 0
    outer loop
      vertex -7.13988 0.695288 -43.5
      vertex -6.82029 1.32252 -43.5
      vertex -7.13988 0.695288 -23.5
    endloop
  endfacet
  facet normal 0.987688 -0.156436 0
    outer loop
      vertex -7.25 0 -23.5
      vertex -7.13988 0.695288 -43.5
      vertex -7.13988 0.695288 -23.5
    endloop
  endfacet
  facet normal 0.987688 0.156436 0
    outer loop
      vertex -7.25 0 -43.5
      vertex -7.13988 -0.695288 -23.5
      vertex -7.13988 -0.695288 -43.5
    endloop
  endfacet
  facet normal 0 -0 1
    outer loop
      vertex -7.25 0 -43.5
      vertex -7.13988 -0.695288 -43.5
      vertex -7.13988 0.695288 -43.5
    endloop
  endfacet
  facet normal 0.987688 -0.156436 0
    outer loop
      vertex -7.25 0 -43.5
      vertex -7.13988 0.695288 -43.5
      vertex -7.25 0 -23.5
    endloop
  endfacet
  facet normal 0.987688 0.156436 0
    outer loop
      vertex -7.25 0 -43.5
      vertex -7.25 0 -23.5
      vertex -7.13988 -0.695288 -23.5
    endloop
  endfacet
  facet normal 0.5 0.866025 -0
    outer loop
      vertex -8.63731 -2.1 -20.3
      vertex -5 -4.2 -20.3
      vertex -5 -4.2 -23.5
    endloop
  endfacet
  facet normal 0 0 -1
    outer loop
      vertex -8.63731 -2.1 -20.3
      vertex -5 4.2 -20.3
      vertex -5 -4.2 -20.3
    endloop
  endfacet
  facet normal 0 0 -1
    outer loop
      vertex -8.63731 -2.1 -20.3
      vertex -8.63731 2.1 -20.3
      vertex -5 4.2 -20.3
    endloop
  endfacet
  facet normal 1 -0 0
    outer loop
      vertex -8.63731 -2.1 -20.3
      vertex -8.63731 2.1 -23.5
      vertex -8.63731 2.1 -20.3
    endloop
  endfacet
  facet normal 0 0 1
    outer loop
      vertex -8.63731 -2.1 -23.5
      vertex -5 -4.2 -23.5
      vertex -6.32252 -1.82029 -23.5
    endloop
  endfacet
  facet normal 0 0 1
    outer loop
      vertex -8.63731 -2.1 -23.5
      vertex -6.32252 -1.82029 -23.5
      vertex -6.82029 -1.32252 -23.5
    endloop
  endfacet
  facet normal 0 0 1
    outer loop
      vertex -8.63731 -2.1 -23.5
      vertex -6.82029 -1.32252 -23.5
      vertex -7.13988 -0.695288 -23.5
    endloop
  endfacet
  facet normal 0 0 1
    outer loop
      vertex -8.63731 -2.1 -23.5
      vertex -7.13988 -0.695288 -23.5
      vertex -7.25 0 -23.5
    endloop
  endfacet
  facet normal 0 0 1
    outer loop
      vertex -8.63731 -2.1 -23.5
      vertex -7.25 0 -23.5
      vertex -8.63731 2.1 -23.5
    endloop
  endfacet
  facet normal 0.5 0.866025 0
    outer loop
      vertex -8.63731 -2.1 -23.5
      vertex -8.63731 -2.1 -20.3
      vertex -5 -4.2 -23.5
    endloop
  endfacet
  facet normal 1 0 0
    outer loop
      vertex -8.63731 -2.1 -23.5
      vertex -8.63731 2.1 -23.5
      vertex -8.63731 -2.1 -20.3
    endloop
  endfacet
  facet normal 0.5 -0.866025 0
    outer loop
      vertex -8.63731 2.1 -23.5
      vertex -5 4.2 -20.3
      vertex -8.63731 2.1 -20.3
    endloop
  endfacet
  facet normal 0.5 -0.866025 0
    outer loop
      vertex -8.63731 2.1 -23.5
      vertex -5 4.2 -23.5
      vertex -5 4.2 -20.3
    endloop
  endfacet
  facet normal -0 0 1
    outer loop
      vertex -8.63731 2.1 -23.5
      vertex -6.32252 1.82029 -23.5
      vertex -5 4.2 -23.5
    endloop
  endfacet
  facet normal 0 0 1
    outer loop
      vertex -8.63731 2.1 -23.5
      vertex -6.82029 1.32252 -23.5
      vertex -6.32252 1.82029 -23.5
    endloop
  endfacet
  facet normal 0 0 1
    outer loop
      vertex -8.63731 2.1 -23.5
      vertex -7.13988 0.695288 -23.5
      vertex -6.82029 1.32252 -23.5
    endloop
  endfacet
  facet normal 0 0 1
    outer loop
      vertex -8.63731 2.1 -23.5
      vertex -7.25 0 -23.5
      vertex -7.13988 0.695288 -23.5
    endloop
  endfacet
  facet normal 0 0 -1
    outer loop
      vertex -9.49488 -20.1776 -80
      vertex -6.89108 21.2086 -80
      vertex -6.89108 -21.2086 -80
    endloop
  endfacet
  facet normal 0 0 -1
    outer loop
      vertex -9.49488 -20.1776 -80
      vertex -9.49488 20.1776 -80
      vertex -6.89108 21.2086 -80
    endloop
  endfacet
  facet normal 0.120685 -0.955317 -0.269822
    outer loop
      vertex 0 -45 -0.0999994
      vertex 1.40023 -22.256 -80
      vertex 4.1786 -21.905 -80
    endloop
  endfacet
  facet normal 0.578779 -0.796622 -0.17438
    outer loop
      vertex 0 -45 -0.0999994
      vertex 11.9489 -18.8285 -80
      vertex 14.2146 -17.1824 -80
    endloop
  endfacet
  facet normal 0.678659 -0.722699 -0.130874
    outer loop
      vertex 0 -45 -0.0999994
      vertex 14.2146 -17.1824 -80
      vertex 16.256 -15.2654 -80
    endloop
  endfacet
  facet normal 0.768032 -0.635371 -0.0801925
    outer loop
      vertex 0 -45 -0.0999994
      vertex 16.256 -15.2654 -80
      vertex 18.0411 -13.1076 -80
    endloop
  endfacet
  facet normal 0.8441 -0.535682 -0.0232253
    outer loop
      vertex 0 -45 -0.0999994
      vertex 18.0411 -13.1076 -80
      vertex 19.5416 -10.7431 -80
    endloop
  endfacet
  facet normal 0.868611 -0.495494 0
    outer loop
      vertex 0 -45 -0.0999994
      vertex 19.5416 -10.7431 -80
      vertex 19.5416 -10.7431 0
    endloop
  endfacet
  facet normal 0.868611 -0.495494 0
    outer loop
      vertex 0 -45 -0.0999994
      vertex 19.5416 -10.7431 0
      vertex 0 -45 0
    endloop
  endfacet
  facet normal 0.240275 -0.93581 -0.257929
    outer loop
      vertex 0 -45 -0.0999994
      vertex 4.1786 -21.905 -80
      vertex 6.89108 -21.2086 -80
    endloop
  endfacet
  facet normal 0.357542 -0.903046 -0.238059
    outer loop
      vertex 0 -45 -0.0999994
      vertex 6.89108 -21.2086 -80
      vertex 9.49488 -20.1776 -80
    endloop
  endfacet
  facet normal 0.470992 -0.856731 -0.210189
    outer loop
      vertex 0 -45 -0.0999994
      vertex 9.49488 -20.1776 -80
      vertex 11.9489 -18.8285 -80
    endloop
  endfacet
  facet normal 0.868611 0.495494 0
    outer loop
      vertex 0 45 -0.0999994
      vertex 0 45 0
      vertex 19.5416 10.7431 0
    endloop
  endfacet
  facet normal 0.470992 0.856731 -0.210189
    outer loop
      vertex 0 45 -0.0999994
      vertex 11.9489 18.8285 -80
      vertex 9.49488 20.1776 -80
    endloop
  endfacet
  facet normal 0.578779 0.796622 -0.17438
    outer loop
      vertex 0 45 -0.0999994
      vertex 14.2146 17.1824 -80
      vertex 11.9489 18.8285 -80
    endloop
  endfacet
  facet normal 0.678659 0.722699 -0.130874
    outer loop
      vertex 0 45 -0.0999994
      vertex 16.256 15.2654 -80
      vertex 14.2146 17.1824 -80
    endloop
  endfacet
  facet normal 0.768032 0.635371 -0.0801925
    outer loop
      vertex 0 45 -0.0999994
      vertex 18.0411 13.1076 -80
      vertex 16.256 15.2654 -80
    endloop
  endfacet
  facet normal 0.8441 0.535682 -0.0232253
    outer loop
      vertex 0 45 -0.0999994
      vertex 19.5416 10.7431 -80
      vertex 18.0411 13.1076 -80
    endloop
  endfacet
  facet normal 0.868611 0.495494 0
    outer loop
      vertex 0 45 -0.0999994
      vertex 19.5416 10.7431 0
      vertex 19.5416 10.7431 -80
    endloop
  endfacet
  facet normal 0.120685 0.955317 -0.269822
    outer loop
      vertex 0 45 -0.0999994
      vertex 4.1786 21.905 -80
      vertex 1.40023 22.256 -80
    endloop
  endfacet
  facet normal 0.240275 0.93581 -0.257929
    outer loop
      vertex 0 45 -0.0999994
      vertex 6.89108 21.2086 -80
      vertex 4.1786 21.905 -80
    endloop
  endfacet
  facet normal 0.357542 0.903046 -0.238059
    outer loop
      vertex 0 45 -0.0999994
      vertex 9.49488 20.1776 -80
      vertex 6.89108 21.2086 -80
    endloop
  endfacet
  facet normal 0 0 -1
    outer loop
      vertex 1.40023 -22.256 -80
      vertex 1.40023 22.256 -80
      vertex 4.1786 21.905 -80
    endloop
  endfacet
  facet normal 0 0 -1
    outer loop
      vertex 1.40023 -22.256 -80
      vertex 4.1786 21.905 -80
      vertex 4.1786 -21.905 -80
    endloop
  endfacet
  facet normal 0 0 -1
    outer loop
      vertex 11.9489 -18.8285 -80
      vertex 11.9489 18.8285 -80
      vertex 14.2146 17.1824 -80
    endloop
  endfacet
  facet normal 0 0 -1
    outer loop
      vertex 11.9489 -18.8285 -80
      vertex 14.2146 17.1824 -80
      vertex 14.2146 -17.1824 -80
    endloop
  endfacet
  facet normal 0 0 -1
    outer loop
      vertex 14.2146 -17.1824 -80
      vertex 14.2146 17.1824 -80
      vertex 16.256 15.2654 -80
    endloop
  endfacet
  facet normal 0 0 -1
    outer loop
      vertex 14.2146 -17.1824 -80
      vertex 16.256 15.2654 -80
      vertex 16.256 -15.2654 -80
    endloop
  endfacet
  facet normal 0 0 -1
    outer loop
      vertex 16.256 -15.2654 -80
      vertex 16.256 15.2654 -80
      vertex 18.0411 13.1076 -80
    endloop
  endfacet
  facet normal 0 0 -1
    outer loop
      vertex 16.256 -15.2654 -80
      vertex 18.0411 13.1076 -80
      vertex 18.0411 -13.1076 -80
    endloop
  endfacet
  facet normal 0 0 -1
    outer loop
      vertex 18.0411 -13.1076 -80
      vertex 18.0411 13.1076 -80
      vertex 19.5416 10.7431 -80
    endloop
  endfacet
  facet normal 0 0 -1
    outer loop
      vertex 18.0411 -13.1076 -80
      vertex 19.5416 10.7431 -80
      vertex 19.5416 -10.7431 -80
    endloop
  endfacet
  facet normal 0 0 -1
    outer loop
      vertex 19.5416 -10.7431 -80
      vertex 19.5416 10.7431 -80
      vertex 20.734 8.20918 -80
    endloop
  endfacet
  facet normal 0.904827 -0.42578 0
    outer loop
      vertex 19.5416 -10.7431 -80
      vertex 20.734 -8.20918 -80
      vertex 19.5416 -10.7431 0
    endloop
  endfacet
  facet normal 0 0 -1
    outer loop
      vertex 19.5416 -10.7431 -80
      vertex 20.734 8.20918 -80
      vertex 20.734 -8.20918 -80
    endloop
  endfacet
  facet normal 0.904827 -0.42578 0
    outer loop
      vertex 19.5416 -10.7431 0
      vertex 20.734 -8.20918 -80
      vertex 20.734 -8.20918 0
    endloop
  endfacet
  facet normal 0 0 1
    outer loop
      vertex 19.5416 -10.7431 0
      vertex 20.734 -8.20918 0
      vertex 19.5416 10.7431 0
    endloop
  endfacet
  facet normal 0.904827 0.42578 0
    outer loop
      vertex 19.5416 10.7431 -80
      vertex 19.5416 10.7431 0
      vertex 20.734 8.20918 0
    endloop
  endfacet
  facet normal 0.904827 0.42578 0
    outer loop
      vertex 19.5416 10.7431 -80
      vertex 20.734 8.20918 0
      vertex 20.734 8.20918 -80
    endloop
  endfacet
  facet normal 0 0 1
    outer loop
      vertex 19.5416 10.7431 0
      vertex 20.734 -8.20918 0
      vertex 20.734 8.20918 0
    endloop
  endfacet
  facet normal 0 0 -1
    outer loop
      vertex 20.734 -8.20918 -80
      vertex 20.734 8.20918 -80
      vertex 21.5994 5.54578 -80
    endloop
  endfacet
  facet normal 0.951057 -0.309016 0
    outer loop
      vertex 20.734 -8.20918 -80
      vertex 21.5994 -5.54578 -80
      vertex 20.734 -8.20918 0
    endloop
  endfacet
  facet normal 0 0 -1
    outer loop
      vertex 20.734 -8.20918 -80
      vertex 21.5994 5.54578 -80
      vertex 21.5994 -5.54578 -80
    endloop
  endfacet
  facet normal 0.951057 -0.309016 0
    outer loop
      vertex 20.734 -8.20918 0
      vertex 21.5994 -5.54578 -80
      vertex 21.5994 -5.54578 0
    endloop
  endfacet
  facet normal 0 0 1
    outer loop
      vertex 20.734 -8.20918 0
      vertex 21.5994 -5.54578 0
      vertex 20.734 8.20918 0
    endloop
  endfacet
  facet normal 0.951057 0.309016 0
    outer loop
      vertex 20.734 8.20918 -80
      vertex 20.734 8.20918 0
      vertex 21.5994 5.54578 0
    endloop
  endfacet
  facet normal 0.951057 0.309016 0
    outer loop
      vertex 20.734 8.20918 -80
      vertex 21.5994 5.54578 0
      vertex 21.5994 5.54578 -80
    endloop
  endfacet
  facet normal 0 0 1
    outer loop
      vertex 20.734 8.20918 0
      vertex 21.5994 -5.54578 0
      vertex 21.5994 5.54578 0
    endloop
  endfacet
  facet normal 0 0 -1
    outer loop
      vertex 21.5994 -5.54578 -80
      vertex 21.5994 5.54578 -80
      vertex 22.1242 2.79493 -80
    endloop
  endfacet
  facet normal 0.982287 -0.187382 0
    outer loop
      vertex 21.5994 -5.54578 -80
      vertex 21.8561 -4.2 -23.5
      vertex 21.5994 -5.54578 0
    endloop
  endfacet
  facet normal 0.982287 -0.187381 -2.16566e-08
    outer loop
      vertex 21.5994 -5.54578 -80
      vertex 22.1242 -2.79493 -80
      vertex 21.8561 -4.2 -23.5
    endloop
  endfacet
  facet normal 0 0 -1
    outer loop
      vertex 21.5994 -5.54578 -80
      vertex 22.1242 2.79493 -80
      vertex 22.1242 -2.79493 -80
    endloop
  endfacet
  facet normal 0.982287 -0.187381 6.02757e-08
    outer loop
      vertex 21.5994 -5.54578 0
      vertex 21.8561 -4.2 -20.3
      vertex 22.1242 -2.79493 0
    endloop
  endfacet
  facet normal 0.982287 -0.187382 0
    outer loop
      vertex 21.5994 -5.54578 0
      vertex 21.8561 -4.2 -23.5
      vertex 21.8561 -4.2 -20.3
    endloop
  endfacet
  facet normal 0 0 1
    outer loop
      vertex 21.5994 -5.54578 0
      vertex 22.1242 -2.79493 0
      vertex 21.5994 5.54578 0
    endloop
  endfacet
  facet normal 0.982287 0.187382 0
    outer loop
      vertex 21.5994 5.54578 -80
      vertex 21.5994 5.54578 0
      vertex 21.8561 4.2 -23.5
    endloop
  endfacet
  facet normal 0.982287 0.187381 -2.16566e-08
    outer loop
      vertex 21.5994 5.54578 -80
      vertex 21.8561 4.2 -23.5
      vertex 22.1242 2.79493 -80
    endloop
  endfacet
  facet normal 0.982287 0.187382 -0
    outer loop
      vertex 21.5994 5.54578 0
      vertex 21.8561 4.2 -20.3
      vertex 21.8561 4.2 -23.5
    endloop
  endfacet
  facet normal 0 0 1
    outer loop
      vertex 21.5994 5.54578 0
      vertex 22.1242 -2.79493 0
      vertex 22.1242 2.79493 0
    endloop
  endfacet
  facet normal 0.982287 0.187381 6.02757e-08
    outer loop
      vertex 21.5994 5.54578 0
      vertex 22.1242 2.79493 0
      vertex 21.8561 4.2 -20.3
    endloop
  endfacet
  facet normal 0.982287 -0.187381 0
    outer loop
      vertex 21.8561 -4.2 -20.3
      vertex 22.1242 -2.79493 -20.3
      vertex 22.1242 -2.79493 0
    endloop
  endfacet
  facet normal 0.982287 -0.187381 0
    outer loop
      vertex 21.8561 -4.2 -23.5
      vertex 22.1242 -2.79493 -80
      vertex 22.1242 -2.79493 -23.5
    endloop
  endfacet
  facet normal 0.982287 0.187381 0
    outer loop
      vertex 21.8561 4.2 -20.3
      vertex 22.1242 2.79493 0
      vertex 22.1242 2.79493 -20.3
    endloop
  endfacet
  facet normal 0.982287 0.187381 -0
    outer loop
      vertex 21.8561 4.2 -23.5
      vertex 22.1242 2.79493 -23.5
      vertex 22.1242 2.79493 -80
    endloop
  endfacet
  facet normal 0.998027 -0.0627906 0
    outer loop
      vertex 22.1242 -2.79493 -20.3
      vertex 22.3 0 -20.3
      vertex 22.1242 -2.79493 0
    endloop
  endfacet
  facet normal 0.998027 -0.0627906 0
    outer loop
      vertex 22.1242 -2.79493 -23.5
      vertex 22.3 0 -80
      vertex 22.3 0 -23.5
    endloop
  endfacet
  facet normal 0 0 -1
    outer loop
      vertex 22.1242 -2.79493 -80
      vertex 22.1242 2.79493 -80
      vertex 22.3 0 -80
    endloop
  endfacet
  facet normal 0.998027 -0.0627906 0
    outer loop
      vertex 22.1242 -2.79493 -80
      vertex 22.3 0 -80
      vertex 22.1242 -2.79493 -23.5
    endloop
  endfacet
  facet normal 0.998027 -0.0627906 0
    outer loop
      vertex 22.1242 -2.79493 0
      vertex 22.3 0 -20.3
      vertex 22.3 0 0
    endloop
  endfacet
  facet normal 0 0 1
    outer loop
      vertex 22.1242 -2.79493 0
      vertex 22.3 0 0
      vertex 22.1242 2.79493 0
    endloop
  endfacet
  facet normal 0.998027 0.0627906 0
    outer loop
      vertex 22.1242 2.79493 -20.3
      vertex 22.1242 2.79493 0
      vertex 22.3 0 0
    endloop
  endfacet
  facet normal 0.998027 0.0627906 0
    outer loop
      vertex 22.1242 2.79493 -20.3
      vertex 22.3 0 0
      vertex 22.3 0 -20.3
    endloop
  endfacet
  facet normal 0.998027 0.0627906 0
    outer loop
      vertex 22.1242 2.79493 -80
      vertex 22.1242 2.79493 -23.5
      vertex 22.3 0 -23.5
    endloop
  endfacet
  facet normal 0.998027 0.0627906 0
    outer loop
      vertex 22.1242 2.79493 -80
      vertex 22.3 0 -23.5
      vertex 22.3 0 -80
    endloop
  endfacet
  facet normal 0 0 -1
    outer loop
      vertex 4.1786 -21.905 -80
      vertex 4.1786 21.905 -80
      vertex 6.89108 21.2086 -80
    endloop
  endfacet
  facet normal 0 0 -1
    outer loop
      vertex 4.1786 -21.905 -80
      vertex 6.89108 21.2086 -80
      vertex 6.89108 -21.2086 -80
    endloop
  endfacet
  facet normal 0 0 -1
    outer loop
      vertex 6.89108 -21.2086 -80
      vertex 6.89108 21.2086 -80
      vertex 9.49488 20.1776 -80
    endloop
  endfacet
  facet normal 0 0 -1
    outer loop
      vertex 6.89108 -21.2086 -80
      vertex 9.49488 20.1776 -80
      vertex 9.49488 -20.1776 -80
    endloop
  endfacet
  facet normal 0 0 -1
    outer loop
      vertex 9.49488 -20.1776 -80
      vertex 11.9489 18.8285 -80
      vertex 11.9489 -18.8285 -80
    endloop
  endfacet
  facet normal 0 0 -1
    outer loop
      vertex 9.49488 -20.1776 -80
      vertex 9.49488 20.1776 -80
      vertex 11.9489 18.8285 -80
    endloop
  endfacet
endsolid model
