solid model
  facet normal 1 0 0
    outer loop
      vertex -0.5 -9 0
      vertex -0.5 9 0
      vertex -0.5 -9 37.81
    endloop
  endfacet
  facet normal 1 -0 0
    outer loop
      vertex -0.5 -9 37.81
      vertex -0.5 9 0
      vertex -0.5 9 37.81
    endloop
  endfacet
  facet normal -0 0 -1
    outer loop
      vertex -0.5 -9 37.81
      vertex -0.5 9 37.81
      vertex 125.4 9 37.81
    endloop
  endfacet
  facet normal 0 -1 -0
    outer loop
      vertex -0.5 -9 37.81
      vertex 125.4 -9 37.81
      vertex 125.4 -9 44.85
    endloop
  endfacet
  facet normal 0 0 -1
    outer loop
      vertex -0.5 -9 37.81
      vertex 125.4 9 37.81
      vertex 125.4 -9 37.81
    endloop
  endfacet
  facet normal 0 1 0
    outer loop
      vertex -0.5 9 37.81
      vertex 125.4 9 44.85
      vertex 125.4 9 37.81
    endloop
  endfacet
  facet normal -0.891007 0.45399 0
    outer loop
      vertex -10.2056 -0.940456 0
      vertex -10.2056 -0.940456 4
      vertex -9.97831 -0.494427 4
    endloop
  endfacet
  facet normal 0 0 -1
    outer loop
      vertex -10.2056 -0.940456 0
      vertex -9.97831 -0.494427 0
      vertex -0.5 -9 0
    endloop
  endfacet
  facet normal -0.891007 0.45399 0
    outer loop
      vertex -10.2056 -0.940456 0
      vertex -9.97831 -0.494427 4
      vertex -9.97831 -0.494427 0
    endloop
  endfacet
  facet normal -0 0 1
    outer loop
      vertex -10.2056 -0.940456 4
      vertex -9 -1.38564 4
      vertex -9.97831 -0.494427 4
    endloop
  endfacet
  facet normal 0 0 -1
    outer loop
      vertex -10.2056 0.940456 0
      vertex -0.5 9 0
      vertex -9.97831 0.494427 0
    endloop
  endfacet
  facet normal -0.891007 -0.45399 0
    outer loop
      vertex -10.2056 0.940456 0
      vertex -9.97831 0.494427 0
      vertex -10.2056 0.940456 4
    endloop
  endfacet
  facet normal -0.891007 -0.45399 0
    outer loop
      vertex -10.2056 0.940456 4
      vertex -9.97831 0.494427 0
      vertex -9.97831 0.494427 4
    endloop
  endfacet
  facet normal 0 0 1
    outer loop
      vertex -10.2056 0.940456 4
      vertex -9.97831 0.494427 4
      vertex -9 1.38564 4
    endloop
  endfacet
  facet normal 0 0 -1
    outer loop
      vertex -10.5595 -1.29443 0
      vertex -10.2056 -0.940456 0
      vertex -0.5 -9 0
    endloop
  endfacet
  facet normal -0.707107 0.707107 0
    outer loop
      vertex -10.5595 -1.29443 0
      vertex -10.2056 -0.940456 4
      vertex -10.2056 -0.940456 0
    endloop
  endfacet
  facet normal -0.707107 0.707107 0
    outer loop
      vertex -10.5595 -1.29443 0
      vertex -10.5595 -1.29443 4
      vertex -10.2056 -0.940456 4
    endloop
  endfacet
  facet normal -0 0 1
    outer loop
      vertex -10.5595 -1.29443 4
      vertex -9 -1.38564 4
      vertex -10.2056 -0.940456 4
    endloop
  endfacet
  facet normal 0 0 1
    outer loop
      vertex -10.5595 -1.29443 4
      vertex -9.85 -2.85788 4
      vertex -9 -1.38564 4
    endloop
  endfacet
  facet normal 0 0 -1
    outer loop
      vertex -10.5595 1.29443 0
      vertex -0.5 9 0
      vertex -10.2056 0.940456 0
    endloop
  endfacet
  facet normal -0.707107 -0.707107 0
    outer loop
      vertex -10.5595 1.29443 0
      vertex -10.2056 0.940456 0
      vertex -10.5595 1.29443 4
    endloop
  endfacet
  facet normal -0.707107 -0.707107 0
    outer loop
      vertex -10.5595 1.29443 4
      vertex -10.2056 0.940456 0
      vertex -10.2056 0.940456 4
    endloop
  endfacet
  facet normal 0 0 1
    outer loop
      vertex -10.5595 1.29443 4
      vertex -10.2056 0.940456 4
      vertex -9 1.38564 4
    endloop
  endfacet
  facet normal 0 0 1
    outer loop
      vertex -10.5595 1.29443 4
      vertex -9 1.38564 4
      vertex -9.85 2.85788 4
    endloop
  endfacet
  facet normal -0.45399 0.891007 0
    outer loop
      vertex -11.0056 -1.52169 0
      vertex -11.0056 -1.52169 4
      vertex -10.5595 -1.29443 0
    endloop
  endfacet
  facet normal -0.45399 0.891007 0
    outer loop
      vertex -11.0056 -1.52169 4
      vertex -10.5595 -1.29443 4
      vertex -10.5595 -1.29443 0
    endloop
  endfacet
  facet normal -0 0 1
    outer loop
      vertex -11.0056 -1.52169 4
      vertex -9.85 -2.85788 4
      vertex -10.5595 -1.29443 4
    endloop
  endfacet
  facet normal -0.45399 -0.891007 -0
    outer loop
      vertex -11.0056 1.52169 0
      vertex -10.5595 1.29443 0
      vertex -10.5595 1.29443 4
    endloop
  endfacet
  facet normal -0.45399 -0.891007 0
    outer loop
      vertex -11.0056 1.52169 0
      vertex -10.5595 1.29443 4
      vertex -11.0056 1.52169 4
    endloop
  endfacet
  facet normal 0 0 1
    outer loop
      vertex -11.0056 1.52169 4
      vertex -10.5595 1.29443 4
      vertex -9.85 2.85788 4
    endloop
  endfacet
  facet normal -0.156433 0.987689 0
    outer loop
      vertex -11.5 -1.6 0
      vertex -11.5 -1.6 4
      vertex -11.0056 -1.52169 0
    endloop
  endfacet
  facet normal -0.156433 0.987689 0
    outer loop
      vertex -11.5 -1.6 4
      vertex -11.0056 -1.52169 4
      vertex -11.0056 -1.52169 0
    endloop
  endfacet
  facet normal -0 0 1
    outer loop
      vertex -11.5 -1.6 4
      vertex -9.85 -2.85788 4
      vertex -11.0056 -1.52169 4
    endloop
  endfacet
  facet normal -0.156433 -0.987689 -0
    outer loop
      vertex -11.5 1.6 0
      vertex -11.0056 1.52169 0
      vertex -11.0056 1.52169 4
    endloop
  endfacet
  facet normal -0.156433 -0.987689 0
    outer loop
      vertex -11.5 1.6 0
      vertex -11.0056 1.52169 4
      vertex -11.5 1.6 4
    endloop
  endfacet
  facet normal 0 0 1
    outer loop
      vertex -11.5 1.6 4
      vertex -11.0056 1.52169 4
      vertex -9.85 2.85788 4
    endloop
  endfacet
  facet normal 0.156434 0.987688 0
    outer loop
      vertex -11.9944 -1.52169 0
      vertex -11.9944 -1.52169 4
      vertex -11.5 -1.6 0
    endloop
  endfacet
  facet normal 0.156434 0.987688 -0
    outer loop
      vertex -11.9944 -1.52169 4
      vertex -11.5 -1.6 4
      vertex -11.5 -1.6 0
    endloop
  endfacet
  facet normal 0.156434 -0.987688 0
    outer loop
      vertex -11.9944 1.52169 0
      vertex -11.5 1.6 0
      vertex -11.5 1.6 4
    endloop
  endfacet
  facet normal 0.156434 -0.987688 0
    outer loop
      vertex -11.9944 1.52169 0
      vertex -11.5 1.6 4
      vertex -11.9944 1.52169 4
    endloop
  endfacet
  facet normal 0.45399 0.891007 0
    outer loop
      vertex -12.4405 -1.29443 0
      vertex -12.4405 -1.29443 4
      vertex -11.9944 -1.52169 0
    endloop
  endfacet
  facet normal 0.45399 0.891007 -0
    outer loop
      vertex -12.4405 -1.29443 4
      vertex -11.9944 -1.52169 4
      vertex -11.9944 -1.52169 0
    endloop
  endfacet
  facet normal 0.45399 -0.891007 0
    outer loop
      vertex -12.4405 1.29443 0
      vertex -11.9944 1.52169 0
      vertex -11.9944 1.52169 4
    endloop
  endfacet
  facet normal 0.45399 -0.891007 0
    outer loop
      vertex -12.4405 1.29443 0
      vertex -11.9944 1.52169 4
      vertex -12.4405 1.29443 4
    endloop
  endfacet
  facet normal 0.707107 0.707107 0
    outer loop
      vertex -12.7944 -0.940456 0
      vertex -12.4405 -1.29443 4
      vertex -12.4405 -1.29443 0
    endloop
  endfacet
  facet normal 0.707107 0.707107 0
    outer loop
      vertex -12.7944 -0.940456 0
      vertex -12.7944 -0.940456 4
      vertex -12.4405 -1.29443 4
    endloop
  endfacet
  facet normal 0.707107 -0.707107 0
    outer loop
      vertex -12.7944 0.940456 0
      vertex -12.4405 1.29443 0
      vertex -12.7944 0.940456 4
    endloop
  endfacet
  facet normal 0.707107 -0.707107 0
    outer loop
      vertex -12.7944 0.940456 4
      vertex -12.4405 1.29443 0
      vertex -12.4405 1.29443 4
    endloop
  endfacet
  facet normal 0.891007 0.45399 0
    outer loop
      vertex -13.0217 -0.494427 0
      vertex -12.7944 -0.940456 4
      vertex -12.7944 -0.940456 0
    endloop
  endfacet
  facet normal 0.891007 0.45399 0
    outer loop
      vertex -13.0217 -0.494427 0
      vertex -13.0217 -0.494427 4
      vertex -12.7944 -0.940456 4
    endloop
  endfacet
  facet normal 0.891007 -0.45399 0
    outer loop
      vertex -13.0217 0.494427 0
      vertex -12.7944 0.940456 0
      vertex -13.0217 0.494427 4
    endloop
  endfacet
  facet normal 0.891007 -0.45399 0
    outer loop
      vertex -13.0217 0.494427 4
      vertex -12.7944 0.940456 0
      vertex -12.7944 0.940456 4
    endloop
  endfacet
  facet normal 0.987688 0.156434 0
    outer loop
      vertex -13.1 0 0
      vertex -13.0217 -0.494427 4
      vertex -13.0217 -0.494427 0
    endloop
  endfacet
  facet normal 0.987688 -0.156434 0
    outer loop
      vertex -13.1 0 0
      vertex -13.0217 0.494427 0
      vertex -13.1 0 4
    endloop
  endfacet
  facet normal 0.987688 0.156434 0
    outer loop
      vertex -13.1 0 0
      vertex -13.1 0 4
      vertex -13.0217 -0.494427 4
    endloop
  endfacet
  facet normal 0.987688 -0.156434 0
    outer loop
      vertex -13.1 0 4
      vertex -13.0217 0.494427 0
      vertex -13.0217 0.494427 4
    endloop
  endfacet
  facet normal 0 0 1
    outer loop
      vertex -13.15 -2.85788 4
      vertex -11.5 -1.6 4
      vertex -11.9944 -1.52169 4
    endloop
  endfacet
  facet normal 0 0 1
    outer loop
      vertex -13.15 -2.85788 4
      vertex -11.9944 -1.52169 4
      vertex -12.4405 -1.29443 4
    endloop
  endfacet
  facet normal 0 1 0
    outer loop
      vertex -13.15 -2.85788 4
      vertex -13.15 -2.85788 5
      vertex -9.85 -2.85788 4
    endloop
  endfacet
  facet normal 0 0 1
    outer loop
      vertex -13.15 -2.85788 4
      vertex -9.85 -2.85788 4
      vertex -11.5 -1.6 4
    endloop
  endfacet
  facet normal -0 0 1
    outer loop
      vertex -13.15 -2.85788 5
      vertex -9 -9 5
      vertex -9.85 -2.85788 5
    endloop
  endfacet
  facet normal 0 1 -0
    outer loop
      vertex -13.15 -2.85788 5
      vertex -9.85 -2.85788 5
      vertex -9.85 -2.85788 4
    endloop
  endfacet
  facet normal -0 0 1
    outer loop
      vertex -13.15 2.85788 4
      vertex -11.5 1.6 4
      vertex -9.85 2.85788 4
    endloop
  endfacet
  facet normal 0 0 1
    outer loop
      vertex -13.15 2.85788 4
      vertex -11.9944 1.52169 4
      vertex -11.5 1.6 4
    endloop
  endfacet
  facet normal 0 0 1
    outer loop
      vertex -13.15 2.85788 4
      vertex -12.4405 1.29443 4
      vertex -11.9944 1.52169 4
    endloop
  endfacet
  facet normal 0 -1 -0
    outer loop
      vertex -13.15 2.85788 4
      vertex -9.85 2.85788 4
      vertex -9.85 2.85788 5
    endloop
  endfacet
  facet normal 0 -1 0
    outer loop
      vertex -13.15 2.85788 4
      vertex -9.85 2.85788 5
      vertex -13.15 2.85788 5
    endloop
  endfacet
  facet normal 0 0 1
    outer loop
      vertex -13.15 2.85788 5
      vertex -9.85 2.85788 5
      vertex -9 9 5
    endloop
  endfacet
  facet normal 0 0 1
    outer loop
      vertex -14 -1.38564 4
      vertex -12.4405 -1.29443 4
      vertex -12.7944 -0.940456 4
    endloop
  endfacet
  facet normal 0 0 1
    outer loop
      vertex -14 -1.38564 4
      vertex -12.7944 -0.940456 4
      vertex -13.0217 -0.494427 4
    endloop
  endfacet
  facet normal 0 0 1
    outer loop
      vertex -14 -1.38564 4
      vertex -13.0217 -0.494427 4
      vertex -13.1 0 4
    endloop
  endfacet
  facet normal 0 0 1
    outer loop
      vertex -14 -1.38564 4
      vertex -13.1 0 4
      vertex -14 1.38564 4
    endloop
  endfacet
  facet normal 0 0 1
    outer loop
      vertex -14 -1.38564 4
      vertex -13.15 -2.85788 4
      vertex -12.4405 -1.29443 4
    endloop
  endfacet
  facet normal 0.866025 0.5 0
    outer loop
      vertex -14 -1.38564 4
      vertex -13.15 -2.85788 5
      vertex -13.15 -2.85788 4
    endloop
  endfacet
  facet normal 0.866025 0.5 0
    outer loop
      vertex -14 -1.38564 4
      vertex -14 -1.38564 5
      vertex -13.15 -2.85788 5
    endloop
  endfacet
  facet normal -1 0 0
    outer loop
      vertex -14 -1.38564 4
      vertex -14 1.38564 4
      vertex -14 9 0
    endloop
  endfacet
  facet normal 0 -1 0
    outer loop
      vertex -14 -9 0
      vertex -0.5 -9 0
      vertex -9 -9 5
    endloop
  endfacet
  facet normal 0 0 -1
    outer loop
      vertex -14 -9 0
      vertex -10.5595 -1.29443 0
      vertex -0.5 -9 0
    endloop
  endfacet
  facet normal 0 0 -1
    outer loop
      vertex -14 -9 0
      vertex -11.0056 -1.52169 0
      vertex -10.5595 -1.29443 0
    endloop
  endfacet
  facet normal 0 0 -1
    outer loop
      vertex -14 -9 0
      vertex -11.5 -1.6 0
      vertex -11.0056 -1.52169 0
    endloop
  endfacet
  facet normal -0 0 -1
    outer loop
      vertex -14 -9 0
      vertex -11.9944 -1.52169 0
      vertex -11.5 -1.6 0
    endloop
  endfacet
  facet normal -0 0 -1
    outer loop
      vertex -14 -9 0
      vertex -12.4405 -1.29443 0
      vertex -11.9944 -1.52169 0
    endloop
  endfacet
  facet normal -0 0 -1
    outer loop
      vertex -14 -9 0
      vertex -12.7944 -0.940456 0
      vertex -12.4405 -1.29443 0
    endloop
  endfacet
  facet normal -0 0 -1
    outer loop
      vertex -14 -9 0
      vertex -13.0217 -0.494427 0
      vertex -12.7944 -0.940456 0
    endloop
  endfacet
  facet normal -0 0 -1
    outer loop
      vertex -14 -9 0
      vertex -13.1 0 0
      vertex -13.0217 -0.494427 0
    endloop
  endfacet
  facet normal -1 0 0
    outer loop
      vertex -14 -9 0
      vertex -14 -1.38564 4
      vertex -14 9 0
    endloop
  endfacet
  facet normal -1 0 0
    outer loop
      vertex -14 -9 0
      vertex -14 -9 5
      vertex -14 -1.38564 4
    endloop
  endfacet
  facet normal 0 0 -1
    outer loop
      vertex -14 -9 0
      vertex -14 9 0
      vertex -13.1 0 0
    endloop
  endfacet
  facet normal 0 -1 0
    outer loop
      vertex -14 -9 0
      vertex -9 -9 5
      vertex -14 -9 5
    endloop
  endfacet
  facet normal 0 0 1
    outer loop
      vertex -14 -9 5
      vertex -13.15 -2.85788 5
      vertex -14 -1.38564 5
    endloop
  endfacet
  facet normal -1 0 0
    outer loop
      vertex -14 -9 5
      vertex -14 -1.38564 5
      vertex -14 -1.38564 4
    endloop
  endfacet
  facet normal 0 0 1
    outer loop
      vertex -14 -9 5
      vertex -9 -9 5
      vertex -13.15 -2.85788 5
    endloop
  endfacet
  facet normal -0 0 1
    outer loop
      vertex -14 1.38564 4
      vertex -12.4405 1.29443 4
      vertex -13.15 2.85788 4
    endloop
  endfacet
  facet normal 0 0 1
    outer loop
      vertex -14 1.38564 4
      vertex -12.7944 0.940456 4
      vertex -12.4405 1.29443 4
    endloop
  endfacet
  facet normal 0 0 1
    outer loop
      vertex -14 1.38564 4
      vertex -13.0217 0.494427 4
      vertex -12.7944 0.940456 4
    endloop
  endfacet
  facet normal 0 0 1
    outer loop
      vertex -14 1.38564 4
      vertex -13.1 0 4
      vertex -13.0217 0.494427 4
    endloop
  endfacet
  facet normal 0.866025 -0.5 0
    outer loop
      vertex -14 1.38564 4
      vertex -13.15 2.85788 4
      vertex -14 1.38564 5
    endloop
  endfacet
  facet normal -1 -0 0
    outer loop
      vertex -14 1.38564 4
      vertex -14 1.38564 5
      vertex -14 9 5
    endloop
  endfacet
  facet normal -1 0 0
    outer loop
      vertex -14 1.38564 4
      vertex -14 9 5
      vertex -14 9 0
    endloop
  endfacet
  facet normal 0.866025 -0.5 0
    outer loop
      vertex -14 1.38564 5
      vertex -13.15 2.85788 4
      vertex -13.15 2.85788 5
    endloop
  endfacet
  facet normal 0 0 1
    outer loop
      vertex -14 1.38564 5
      vertex -13.15 2.85788 5
      vertex -14 9 5
    endloop
  endfacet
  facet normal 0 0 -1
    outer loop
      vertex -14 9 0
      vertex -0.5 9 0
      vertex -10.5595 1.29443 0
    endloop
  endfacet
  facet normal 0 0 -1
    outer loop
      vertex -14 9 0
      vertex -10.5595 1.29443 0
      vertex -11.0056 1.52169 0
    endloop
  endfacet
  facet normal 0 0 -1
    outer loop
      vertex -14 9 0
      vertex -11.0056 1.52169 0
      vertex -11.5 1.6 0
    endloop
  endfacet
  facet normal 0 0 -1
    outer loop
      vertex -14 9 0
      vertex -11.5 1.6 0
      vertex -11.9944 1.52169 0
    endloop
  endfacet
  facet normal 0 0 -1
    outer loop
      vertex -14 9 0
      vertex -11.9944 1.52169 0
      vertex -12.4405 1.29443 0
    endloop
  endfacet
  facet normal 0 0 -1
    outer loop
      vertex -14 9 0
      vertex -12.4405 1.29443 0
      vertex -12.7944 0.940456 0
    endloop
  endfacet
  facet normal 0 0 -1
    outer loop
      vertex -14 9 0
      vertex -12.7944 0.940456 0
      vertex -13.0217 0.494427 0
    endloop
  endfacet
  facet normal 0 0 -1
    outer loop
      vertex -14 9 0
      vertex -13.0217 0.494427 0
      vertex -13.1 0 0
    endloop
  endfacet
  facet normal 0 1 0
    outer loop
      vertex -14 9 0
      vertex -14 9 5
      vertex -9 9 5
    endloop
  endfacet
  facet normal 0 1 0
    outer loop
      vertex -14 9 0
      vertex -9 9 5
      vertex -0.5 9 0
    endloop
  endfacet
  facet normal -0 0 1
    outer loop
      vertex -14 9 5
      vertex -13.15 2.85788 5
      vertex -9 9 5
    endloop
  endfacet
  facet normal -1 0 0
    outer loop
      vertex -9 -1.38564 4
      vertex -9 -1.38564 5
      vertex -9 1.38564 5
    endloop
  endfacet
  facet normal -1 0 0
    outer loop
      vertex -9 -1.38564 4
      vertex -9 1.38564 5
      vertex -9 1.38564 4
    endloop
  endfacet
  facet normal -1 0 0
    outer loop
      vertex -9 -1.38564 5
      vertex -9 9 44.85
      vertex -9 1.38564 5
    endloop
  endfacet
  facet normal 0 -1 0
    outer loop
      vertex -9 -9 44.85
      vertex -0.5 -9 37.81
      vertex 125.4 -9 44.85
    endloop
  endfacet
  facet normal -1 0 0
    outer loop
      vertex -9 -9 44.85
      vertex -9 9 44.85
      vertex -9 -1.38564 5
    endloop
  endfacet
  facet normal 0 0 1
    outer loop
      vertex -9 -9 44.85
      vertex 125.4 -9 44.85
      vertex -9 9 44.85
    endloop
  endfacet
  facet normal 0 -1 0
    outer loop
      vertex -9 -9 5
      vertex -0.5 -9 0
      vertex -0.5 -9 37.81
    endloop
  endfacet
  facet normal 0 -1 0
    outer loop
      vertex -9 -9 5
      vertex -0.5 -9 37.81
      vertex -9 -9 44.85
    endloop
  endfacet
  facet normal -1 0 0
    outer loop
      vertex -9 -9 5
      vertex -9 -9 44.85
      vertex -9 -1.38564 5
    endloop
  endfacet
  facet normal -1 0 0
    outer loop
      vertex -9 1.38564 5
      vertex -9 9 44.85
      vertex -9 9 5
    endloop
  endfacet
  facet normal -0 0 1
    outer loop
      vertex -9 9 44.85
      vertex 125.4 -9 44.85
      vertex 125.4 9 44.85
    endloop
  endfacet
  facet normal 0 1 0
    outer loop
      vertex -9 9 44.85
      vertex 125.4 9 44.85
      vertex -0.5 9 37.81
    endloop
  endfacet
  facet normal 0 1 -0
    outer loop
      vertex -9 9 5
      vertex -0.5 9 37.81
      vertex -0.5 9 0
    endloop
  endfacet
  facet normal 0 1 0
    outer loop
      vertex -9 9 5
      vertex -9 9 44.85
      vertex -0.5 9 37.81
    endloop
  endfacet
  facet normal -0.866025 0.5 0
    outer loop
      vertex -9.85 -2.85788 4
      vertex -9 -1.38564 5
      vertex -9 -1.38564 4
    endloop
  endfacet
  facet normal -0.866025 0.5 0
    outer loop
      vertex -9.85 -2.85788 4
      vertex -9.85 -2.85788 5
      vertex -9 -1.38564 5
    endloop
  endfacet
  facet normal -0 0 1
    outer loop
      vertex -9.85 -2.85788 5
      vertex -9 -9 5
      vertex -9 -1.38564 5
    endloop
  endfacet
  facet normal -0.866025 -0.5 0
    outer loop
      vertex -9.85 2.85788 4
      vertex -9 1.38564 4
      vertex -9.85 2.85788 5
    endloop
  endfacet
  facet normal -0.866025 -0.5 0
    outer loop
      vertex -9.85 2.85788 5
      vertex -9 1.38564 4
      vertex -9 1.38564 5
    endloop
  endfacet
  facet normal 0 0 1
    outer loop
      vertex -9.85 2.85788 5
      vertex -9 1.38564 5
      vertex -9 9 5
    endloop
  endfacet
  facet normal 0 0 -1
    outer loop
      vertex -9.9 0 0
      vertex -0.5 9 0
      vertex -0.5 -9 0
    endloop
  endfacet
  facet normal 0 0 1
    outer loop
      vertex -9.9 0 4
      vertex -9 -1.38564 4
      vertex -9 1.38564 4
    endloop
  endfacet
  facet normal 0 0 -1
    outer loop
      vertex -9.97831 -0.494427 0
      vertex -9.9 0 0
      vertex -0.5 -9 0
    endloop
  endfacet
  facet normal -0.987688 0.156434 0
    outer loop
      vertex -9.97831 -0.494427 0
      vertex -9.9 0 4
      vertex -9.9 0 0
    endloop
  endfacet
  facet normal -0.987688 0.156434 0
    outer loop
      vertex -9.97831 -0.494427 0
      vertex -9.97831 -0.494427 4
      vertex -9.9 0 4
    endloop
  endfacet
  facet normal -0 0 1
    outer loop
      vertex -9.97831 -0.494427 4
      vertex -9 -1.38564 4
      vertex -9.9 0 4
    endloop
  endfacet
  facet normal 0 0 -1
    outer loop
      vertex -9.97831 0.494427 0
      vertex -0.5 9 0
      vertex -9.9 0 0
    endloop
  endfacet
  facet normal -0.987688 -0.156434 0
    outer loop
      vertex -9.97831 0.494427 0
      vertex -9.9 0 0
      vertex -9.97831 0.494427 4
    endloop
  endfacet
  facet normal -0.987688 -0.156434 0
    outer loop
      vertex -9.97831 0.494427 4
      vertex -9.9 0 0
      vertex -9.9 0 4
    endloop
  endfacet
  facet normal 0 -0 1
    outer loop
      vertex -9.97831 0.494427 4
      vertex -9.9 0 4
      vertex -9 1.38564 4
    endloop
  endfacet
  facet normal 1 0 0
    outer loop
      vertex 125.4 -9 37.81
      vertex 125.4 9 37.81
      vertex 125.4 -9 44.85
    endloop
  endfacet
  facet normal 1 -0 0
    outer loop
      vertex 125.4 -9 44.85
      vertex 125.4 9 37.81
      vertex 125.4 9 44.85
    endloop
  endfacet
  facet normal 0.866024 0.500003 0
    outer loop
      vertex 138.4 -1.38564 4
      vertex 138.4 -1.38564 5
      vertex 139.25 -2.85788 5
    endloop
  endfacet
  facet normal -1 0 0
    outer loop
      vertex 138.4 -1.38564 4
      vertex 138.4 1.38564 4
      vertex 138.4 9 0
    endloop
  endfacet
  facet normal 0 0 1
    outer loop
      vertex 138.4 -1.38564 4
      vertex 139.25 -2.85788 4
      vertex 139.96 -1.29443 4
    endloop
  endfacet
  facet normal 0.866024 0.500003 0
    outer loop
      vertex 138.4 -1.38564 4
      vertex 139.25 -2.85788 5
      vertex 139.25 -2.85788 4
    endloop
  endfacet
  facet normal 0 0 1
    outer loop
      vertex 138.4 -1.38564 4
      vertex 139.3 0 4
      vertex 138.4 1.38564 4
    endloop
  endfacet
  facet normal 0 0 1
    outer loop
      vertex 138.4 -1.38564 4
      vertex 139.378 -0.494427 4
      vertex 139.3 0 4
    endloop
  endfacet
  facet normal 0 0 1
    outer loop
      vertex 138.4 -1.38564 4
      vertex 139.606 -0.940456 4
      vertex 139.378 -0.494427 4
    endloop
  endfacet
  facet normal 0 0 1
    outer loop
      vertex 138.4 -1.38564 4
      vertex 139.96 -1.29443 4
      vertex 139.606 -0.940456 4
    endloop
  endfacet
  facet normal -1 0 0
    outer loop
      vertex 138.4 -9 0
      vertex 138.4 -1.38564 4
      vertex 138.4 9 0
    endloop
  endfacet
  facet normal -1 0 0
    outer loop
      vertex 138.4 -9 0
      vertex 138.4 -9 5
      vertex 138.4 -1.38564 4
    endloop
  endfacet
  facet normal 0 0 -1
    outer loop
      vertex 138.4 -9 0
      vertex 138.4 9 0
      vertex 139.3 0 0
    endloop
  endfacet
  facet normal -0 0 -1
    outer loop
      vertex 138.4 -9 0
      vertex 139.3 0 0
      vertex 139.378 -0.494427 0
    endloop
  endfacet
  facet normal -0 0 -1
    outer loop
      vertex 138.4 -9 0
      vertex 139.378 -0.494427 0
      vertex 139.606 -0.940456 0
    endloop
  endfacet
  facet normal -0 0 -1
    outer loop
      vertex 138.4 -9 0
      vertex 139.606 -0.940456 0
      vertex 139.96 -1.29443 0
    endloop
  endfacet
  facet normal -0 0 -1
    outer loop
      vertex 138.4 -9 0
      vertex 139.96 -1.29443 0
      vertex 140.406 -1.52169 0
    endloop
  endfacet
  facet normal -0 0 -1
    outer loop
      vertex 138.4 -9 0
      vertex 140.406 -1.52169 0
      vertex 140.9 -1.6 0
    endloop
  endfacet
  facet normal 0 0 -1
    outer loop
      vertex 138.4 -9 0
      vertex 140.9 -1.6 0
      vertex 143.4 -9 0
    endloop
  endfacet
  facet normal 0 -1 -0
    outer loop
      vertex 138.4 -9 0
      vertex 143.4 -9 0
      vertex 143.4 -9 5
    endloop
  endfacet
  facet normal 0 -1 0
    outer loop
      vertex 138.4 -9 0
      vertex 143.4 -9 5
      vertex 138.4 -9 5
    endloop
  endfacet
  facet normal -1 0 0
    outer loop
      vertex 138.4 -9 5
      vertex 138.4 -1.38564 5
      vertex 138.4 -1.38564 4
    endloop
  endfacet
  facet normal 0 0 1
    outer loop
      vertex 138.4 -9 5
      vertex 139.25 -2.85788 5
      vertex 138.4 -1.38564 5
    endloop
  endfacet
  facet normal 0 0 1
    outer loop
      vertex 138.4 -9 5
      vertex 143.4 -9 5
      vertex 139.25 -2.85788 5
    endloop
  endfacet
  facet normal -1 -0 0
    outer loop
      vertex 138.4 1.38564 4
      vertex 138.4 1.38564 5
      vertex 138.4 9 5
    endloop
  endfacet
  facet normal -1 0 0
    outer loop
      vertex 138.4 1.38564 4
      vertex 138.4 9 5
      vertex 138.4 9 0
    endloop
  endfacet
  facet normal 0.866024 -0.500003 0
    outer loop
      vertex 138.4 1.38564 4
      vertex 139.25 2.85788 4
      vertex 138.4 1.38564 5
    endloop
  endfacet
  facet normal 0 0 1
    outer loop
      vertex 138.4 1.38564 4
      vertex 139.3 0 4
      vertex 139.378 0.494427 4
    endloop
  endfacet
  facet normal 0 0 1
    outer loop
      vertex 138.4 1.38564 4
      vertex 139.378 0.494427 4
      vertex 139.606 0.940456 4
    endloop
  endfacet
  facet normal 0 0 1
    outer loop
      vertex 138.4 1.38564 4
      vertex 139.606 0.940456 4
      vertex 139.96 1.29443 4
    endloop
  endfacet
  facet normal -0 0 1
    outer loop
      vertex 138.4 1.38564 4
      vertex 139.96 1.29443 4
      vertex 139.25 2.85788 4
    endloop
  endfacet
  facet normal 0.866024 -0.500003 0
    outer loop
      vertex 138.4 1.38564 5
      vertex 139.25 2.85788 4
      vertex 139.25 2.85788 5
    endloop
  endfacet
  facet normal 0 0 1
    outer loop
      vertex 138.4 1.38564 5
      vertex 139.25 2.85788 5
      vertex 138.4 9 5
    endloop
  endfacet
  facet normal 0 1 0
    outer loop
      vertex 138.4 9 0
      vertex 138.4 9 5
      vertex 143.4 9 0
    endloop
  endfacet
  facet normal 0 0 -1
    outer loop
      vertex 138.4 9 0
      vertex 139.378 0.494427 0
      vertex 139.3 0 0
    endloop
  endfacet
  facet normal 0 0 -1
    outer loop
      vertex 138.4 9 0
      vertex 139.606 0.940456 0
      vertex 139.378 0.494427 0
    endloop
  endfacet
  facet normal 0 0 -1
    outer loop
      vertex 138.4 9 0
      vertex 139.96 1.29443 0
      vertex 139.606 0.940456 0
    endloop
  endfacet
  facet normal 0 0 -1
    outer loop
      vertex 138.4 9 0
      vertex 140.406 1.52169 0
      vertex 139.96 1.29443 0
    endloop
  endfacet
  facet normal 0 0 -1
    outer loop
      vertex 138.4 9 0
      vertex 140.9 1.6 0
      vertex 140.406 1.52169 0
    endloop
  endfacet
  facet normal 0 0 -1
    outer loop
      vertex 138.4 9 0
      vertex 143.4 9 0
      vertex 140.9 1.6 0
    endloop
  endfacet
  facet normal -0 0 1
    outer loop
      vertex 138.4 9 5
      vertex 139.25 2.85788 5
      vertex 143.4 9 5
    endloop
  endfacet
  facet normal 0 1 -0
    outer loop
      vertex 138.4 9 5
      vertex 143.4 9 5
      vertex 143.4 9 0
    endloop
  endfacet
  facet normal 0 1 0
    outer loop
      vertex 139.25 -2.85788 4
      vertex 139.25 -2.85788 5
      vertex 142.55 -2.85788 4
    endloop
  endfacet
  facet normal 0 0 1
    outer loop
      vertex 139.25 -2.85788 4
      vertex 140.406 -1.52169 4
      vertex 139.96 -1.29443 4
    endloop
  endfacet
  facet normal 0 0 1
    outer loop
      vertex 139.25 -2.85788 4
      vertex 140.9 -1.6 4
      vertex 140.406 -1.52169 4
    endloop
  endfacet
  facet normal 0 0 1
    outer loop
      vertex 139.25 -2.85788 4
      vertex 142.55 -2.85788 4
      vertex 140.9 -1.6 4
    endloop
  endfacet
  facet normal 0 1 -0
    outer loop
      vertex 139.25 -2.85788 5
      vertex 142.55 -2.85788 5
      vertex 142.55 -2.85788 4
    endloop
  endfacet
  facet normal -0 0 1
    outer loop
      vertex 139.25 -2.85788 5
      vertex 143.4 -9 5
      vertex 142.55 -2.85788 5
    endloop
  endfacet
  facet normal 0 0 1
    outer loop
      vertex 139.25 2.85788 4
      vertex 139.96 1.29443 4
      vertex 140.406 1.52169 4
    endloop
  endfacet
  facet normal 0 0 1
    outer loop
      vertex 139.25 2.85788 4
      vertex 140.406 1.52169 4
      vertex 140.9 1.6 4
    endloop
  endfacet
  facet normal -0 0 1
    outer loop
      vertex 139.25 2.85788 4
      vertex 140.9 1.6 4
      vertex 142.55 2.85788 4
    endloop
  endfacet
  facet normal 0 -1 -0
    outer loop
      vertex 139.25 2.85788 4
      vertex 142.55 2.85788 4
      vertex 142.55 2.85788 5
    endloop
  endfacet
  facet normal 0 -1 0
    outer loop
      vertex 139.25 2.85788 4
      vertex 142.55 2.85788 5
      vertex 139.25 2.85788 5
    endloop
  endfacet
  facet normal 0 0 1
    outer loop
      vertex 139.25 2.85788 5
      vertex 142.55 2.85788 5
      vertex 143.4 9 5
    endloop
  endfacet
  facet normal 0.987689 0.156432 0
    outer loop
      vertex 139.3 0 0
      vertex 139.3 0 4
      vertex 139.378 -0.494427 4
    endloop
  endfacet
  facet normal 0.987689 0.156432 0
    outer loop
      vertex 139.3 0 0
      vertex 139.378 -0.494427 4
      vertex 139.378 -0.494427 0
    endloop
  endfacet
  facet normal 0.987689 -0.156432 0
    outer loop
      vertex 139.3 0 0
      vertex 139.378 0.494427 0
      vertex 139.3 0 4
    endloop
  endfacet
  facet normal 0.987689 -0.156432 0
    outer loop
      vertex 139.3 0 4
      vertex 139.378 0.494427 0
      vertex 139.378 0.494427 4
    endloop
  endfacet
  facet normal 0.891006 0.453992 0
    outer loop
      vertex 139.378 -0.494427 0
      vertex 139.378 -0.494427 4
      vertex 139.606 -0.940456 4
    endloop
  endfacet
  facet normal 0.891006 0.453992 0
    outer loop
      vertex 139.378 -0.494427 0
      vertex 139.606 -0.940456 4
      vertex 139.606 -0.940456 0
    endloop
  endfacet
  facet normal 0.891006 -0.453992 0
    outer loop
      vertex 139.378 0.494427 0
      vertex 139.606 0.940456 0
      vertex 139.378 0.494427 4
    endloop
  endfacet
  facet normal 0.891006 -0.453992 0
    outer loop
      vertex 139.378 0.494427 4
      vertex 139.606 0.940456 0
      vertex 139.606 0.940456 4
    endloop
  endfacet
  facet normal 0.707104 0.70711 0
    outer loop
      vertex 139.606 -0.940456 0
      vertex 139.606 -0.940456 4
      vertex 139.96 -1.29443 0
    endloop
  endfacet
  facet normal 0.707104 0.70711 -0
    outer loop
      vertex 139.606 -0.940456 4
      vertex 139.96 -1.29443 4
      vertex 139.96 -1.29443 0
    endloop
  endfacet
  facet normal 0.707104 -0.70711 0
    outer loop
      vertex 139.606 0.940456 0
      vertex 139.96 1.29443 0
      vertex 139.96 1.29443 4
    endloop
  endfacet
  facet normal 0.707104 -0.70711 0
    outer loop
      vertex 139.606 0.940456 0
      vertex 139.96 1.29443 4
      vertex 139.606 0.940456 4
    endloop
  endfacet
  facet normal 0.45399 0.891007 0
    outer loop
      vertex 139.96 -1.29443 0
      vertex 139.96 -1.29443 4
      vertex 140.406 -1.52169 0
    endloop
  endfacet
  facet normal 0.45399 0.891007 -0
    outer loop
      vertex 139.96 -1.29443 4
      vertex 140.406 -1.52169 4
      vertex 140.406 -1.52169 0
    endloop
  endfacet
  facet normal 0.45399 -0.891007 0
    outer loop
      vertex 139.96 1.29443 0
      vertex 140.406 1.52169 0
      vertex 140.406 1.52169 4
    endloop
  endfacet
  facet normal 0.45399 -0.891007 0
    outer loop
      vertex 139.96 1.29443 0
      vertex 140.406 1.52169 4
      vertex 139.96 1.29443 4
    endloop
  endfacet
  facet normal 0.156437 0.987688 0
    outer loop
      vertex 140.406 -1.52169 0
      vertex 140.406 -1.52169 4
      vertex 140.9 -1.6 0
    endloop
  endfacet
  facet normal 0.156437 0.987688 -0
    outer loop
      vertex 140.406 -1.52169 4
      vertex 140.9 -1.6 4
      vertex 140.9 -1.6 0
    endloop
  endfacet
  facet normal 0.156437 -0.987688 0
    outer loop
      vertex 140.406 1.52169 0
      vertex 140.9 1.6 0
      vertex 140.9 1.6 4
    endloop
  endfacet
  facet normal 0.156437 -0.987688 0
    outer loop
      vertex 140.406 1.52169 0
      vertex 140.9 1.6 4
      vertex 140.406 1.52169 4
    endloop
  endfacet
  facet normal -0.156432 0.987689 0
    outer loop
      vertex 140.9 -1.6 0
      vertex 140.9 -1.6 4
      vertex 141.394 -1.52169 0
    endloop
  endfacet
  facet normal 0 0 -1
    outer loop
      vertex 140.9 -1.6 0
      vertex 141.394 -1.52169 0
      vertex 143.4 -9 0
    endloop
  endfacet
  facet normal -0.156432 0.987689 0
    outer loop
      vertex 140.9 -1.6 4
      vertex 141.394 -1.52169 4
      vertex 141.394 -1.52169 0
    endloop
  endfacet
  facet normal -0 0 1
    outer loop
      vertex 140.9 -1.6 4
      vertex 142.55 -2.85788 4
      vertex 141.394 -1.52169 4
    endloop
  endfacet
  facet normal -0.156432 -0.987689 -0
    outer loop
      vertex 140.9 1.6 0
      vertex 141.394 1.52169 0
      vertex 141.394 1.52169 4
    endloop
  endfacet
  facet normal -0.156432 -0.987689 0
    outer loop
      vertex 140.9 1.6 0
      vertex 141.394 1.52169 4
      vertex 140.9 1.6 4
    endloop
  endfacet
  facet normal 0 0 -1
    outer loop
      vertex 140.9 1.6 0
      vertex 143.4 9 0
      vertex 141.394 1.52169 0
    endloop
  endfacet
  facet normal 0 0 1
    outer loop
      vertex 140.9 1.6 4
      vertex 141.394 1.52169 4
      vertex 142.55 2.85788 4
    endloop
  endfacet
  facet normal -0.45399 0.891007 0
    outer loop
      vertex 141.394 -1.52169 0
      vertex 141.394 -1.52169 4
      vertex 141.84 -1.29443 0
    endloop
  endfacet
  facet normal 0 0 -1
    outer loop
      vertex 141.394 -1.52169 0
      vertex 141.84 -1.29443 0
      vertex 143.4 -9 0
    endloop
  endfacet
  facet normal -0.45399 0.891007 0
    outer loop
      vertex 141.394 -1.52169 4
      vertex 141.84 -1.29443 4
      vertex 141.84 -1.29443 0
    endloop
  endfacet
  facet normal -0 0 1
    outer loop
      vertex 141.394 -1.52169 4
      vertex 142.55 -2.85788 4
      vertex 141.84 -1.29443 4
    endloop
  endfacet
  facet normal -0.45399 -0.891007 -0
    outer loop
      vertex 141.394 1.52169 0
      vertex 141.84 1.29443 0
      vertex 141.84 1.29443 4
    endloop
  endfacet
  facet normal -0.45399 -0.891007 0
    outer loop
      vertex 141.394 1.52169 0
      vertex 141.84 1.29443 4
      vertex 141.394 1.52169 4
    endloop
  endfacet
  facet normal 0 0 -1
    outer loop
      vertex 141.394 1.52169 0
      vertex 143.4 9 0
      vertex 141.84 1.29443 0
    endloop
  endfacet
  facet normal 0 0 1
    outer loop
      vertex 141.394 1.52169 4
      vertex 141.84 1.29443 4
      vertex 142.55 2.85788 4
    endloop
  endfacet
  facet normal -0.707104 0.70711 0
    outer loop
      vertex 141.84 -1.29443 0
      vertex 141.84 -1.29443 4
      vertex 142.194 -0.940456 0
    endloop
  endfacet
  facet normal 0 0 -1
    outer loop
      vertex 141.84 -1.29443 0
      vertex 142.194 -0.940456 0
      vertex 143.4 -9 0
    endloop
  endfacet
  facet normal -0.707104 0.70711 0
    outer loop
      vertex 141.84 -1.29443 4
      vertex 142.194 -0.940456 4
      vertex 142.194 -0.940456 0
    endloop
  endfacet
  facet normal 0 0 1
    outer loop
      vertex 141.84 -1.29443 4
      vertex 142.55 -2.85788 4
      vertex 143.4 -1.38564 4
    endloop
  endfacet
  facet normal -0 0 1
    outer loop
      vertex 141.84 -1.29443 4
      vertex 143.4 -1.38564 4
      vertex 142.194 -0.940456 4
    endloop
  endfacet
  facet normal -0.707104 -0.70711 -0
    outer loop
      vertex 141.84 1.29443 0
      vertex 142.194 0.940456 0
      vertex 142.194 0.940456 4
    endloop
  endfacet
  facet normal -0.707104 -0.70711 0
    outer loop
      vertex 141.84 1.29443 0
      vertex 142.194 0.940456 4
      vertex 141.84 1.29443 4
    endloop
  endfacet
  facet normal 0 0 -1
    outer loop
      vertex 141.84 1.29443 0
      vertex 143.4 9 0
      vertex 142.194 0.940456 0
    endloop
  endfacet
  facet normal 0 0 1
    outer loop
      vertex 141.84 1.29443 4
      vertex 142.194 0.940456 4
      vertex 143.4 1.38564 4
    endloop
  endfacet
  facet normal 0 0 1
    outer loop
      vertex 141.84 1.29443 4
      vertex 143.4 1.38564 4
      vertex 142.55 2.85788 4
    endloop
  endfacet
  facet normal -0.891006 0.453992 0
    outer loop
      vertex 142.194 -0.940456 0
      vertex 142.194 -0.940456 4
      vertex 142.422 -0.494427 4
    endloop
  endfacet
  facet normal 0 0 -1
    outer loop
      vertex 142.194 -0.940456 0
      vertex 142.422 -0.494427 0
      vertex 143.4 -9 0
    endloop
  endfacet
  facet normal -0.891006 0.453992 0
    outer loop
      vertex 142.194 -0.940456 0
      vertex 142.422 -0.494427 4
      vertex 142.422 -0.494427 0
    endloop
  endfacet
  facet normal -0 0 1
    outer loop
      vertex 142.194 -0.940456 4
      vertex 143.4 -1.38564 4
      vertex 142.422 -0.494427 4
    endloop
  endfacet
  facet normal -0.891006 -0.453992 0
    outer loop
      vertex 142.194 0.940456 0
      vertex 142.422 0.494427 0
      vertex 142.194 0.940456 4
    endloop
  endfacet
  facet normal 0 0 -1
    outer loop
      vertex 142.194 0.940456 0
      vertex 143.4 9 0
      vertex 142.422 0.494427 0
    endloop
  endfacet
  facet normal -0.891006 -0.453992 0
    outer loop
      vertex 142.194 0.940456 4
      vertex 142.422 0.494427 0
      vertex 142.422 0.494427 4
    endloop
  endfacet
  facet normal 0 0 1
    outer loop
      vertex 142.194 0.940456 4
      vertex 142.422 0.494427 4
      vertex 143.4 1.38564 4
    endloop
  endfacet
  facet normal -0.987689 0.156432 0
    outer loop
      vertex 142.422 -0.494427 0
      vertex 142.422 -0.494427 4
      vertex 142.5 0 4
    endloop
  endfacet
  facet normal 0 0 -1
    outer loop
      vertex 142.422 -0.494427 0
      vertex 142.5 0 0
      vertex 143.4 -9 0
    endloop
  endfacet
  facet normal -0.987689 0.156432 0
    outer loop
      vertex 142.422 -0.494427 0
      vertex 142.5 0 4
      vertex 142.5 0 0
    endloop
  endfacet
  facet normal -0 0 1
    outer loop
      vertex 142.422 -0.494427 4
      vertex 143.4 -1.38564 4
      vertex 142.5 0 4
    endloop
  endfacet
  facet normal -0.987689 -0.156432 0
    outer loop
      vertex 142.422 0.494427 0
      vertex 142.5 0 0
      vertex 142.422 0.494427 4
    endloop
  endfacet
  facet normal 0 0 -1
    outer loop
      vertex 142.422 0.494427 0
      vertex 143.4 9 0
      vertex 142.5 0 0
    endloop
  endfacet
  facet normal -0.987689 -0.156432 0
    outer loop
      vertex 142.422 0.494427 4
      vertex 142.5 0 0
      vertex 142.5 0 4
    endloop
  endfacet
  facet normal 0 -0 1
    outer loop
      vertex 142.422 0.494427 4
      vertex 142.5 0 4
      vertex 143.4 1.38564 4
    endloop
  endfacet
  facet normal 0 0 -1
    outer loop
      vertex 142.5 0 0
      vertex 143.4 9 0
      vertex 143.4 -9 0
    endloop
  endfacet
  facet normal 0 0 1
    outer loop
      vertex 142.5 0 4
      vertex 143.4 -1.38564 4
      vertex 143.4 1.38564 4
    endloop
  endfacet
  facet normal -0.866028 0.499996 0
    outer loop
      vertex 142.55 -2.85788 4
      vertex 142.55 -2.85788 5
      vertex 143.4 -1.38564 5
    endloop
  endfacet
  facet normal -0.866028 0.499996 0
    outer loop
      vertex 142.55 -2.85788 4
      vertex 143.4 -1.38564 5
      vertex 143.4 -1.38564 4
    endloop
  endfacet
  facet normal -0 0 1
    outer loop
      vertex 142.55 -2.85788 5
      vertex 143.4 -9 5
      vertex 143.4 -1.38564 5
    endloop
  endfacet
  facet normal -0.866028 -0.499996 0
    outer loop
      vertex 142.55 2.85788 4
      vertex 143.4 1.38564 4
      vertex 142.55 2.85788 5
    endloop
  endfacet
  facet normal -0.866028 -0.499996 0
    outer loop
      vertex 142.55 2.85788 5
      vertex 143.4 1.38564 4
      vertex 143.4 1.38564 5
    endloop
  endfacet
  facet normal 0 0 1
    outer loop
      vertex 142.55 2.85788 5
      vertex 143.4 1.38564 5
      vertex 143.4 9 5
    endloop
  endfacet
  facet normal 1 -0 0
    outer loop
      vertex 143.4 -1.38564 4
      vertex 143.4 9 0
      vertex 143.4 1.38564 4
    endloop
  endfacet
  facet normal 1 0 0
    outer loop
      vertex 143.4 -9 0
      vertex 143.4 -1.38564 4
      vertex 143.4 -9 5
    endloop
  endfacet
  facet normal 1 0 0
    outer loop
      vertex 143.4 -9 0
      vertex 143.4 9 0
      vertex 143.4 -1.38564 4
    endloop
  endfacet
  facet normal 1 0 0
    outer loop
      vertex 143.4 -9 5
      vertex 143.4 -1.38564 4
      vertex 143.4 -1.38564 5
    endloop
  endfacet
  facet normal 1 0 0
    outer loop
      vertex 143.4 1.38564 4
      vertex 143.4 9 0
      vertex 143.4 9 5
    endloop
  endfacet
  facet normal 1 0 0
    outer loop
      vertex 143.4 1.38564 4
      vertex 143.4 9 5
      vertex 143.4 1.38564 5
    endloop
  endfacet
endsolid model
