solid model
  facet normal 0 1 0
    outer loop
      vertex -1.2872 -20.4595 0
      vertex -1.2872 -20.4595 10
      vertex 1.2872 -20.4595 0
    endloop
  endfacet
  facet normal 0 0 -1
    outer loop
      vertex -1.2872 -20.4595 0
      vertex 1.2872 -20.4595 0
      vertex 33.2664 -25 0
    endloop
  endfacet
  facet normal 0 1 -0
    outer loop
      vertex -1.2872 -20.4595 10
      vertex 1.2872 -20.4595 10
      vertex 1.2872 -20.4595 0
    endloop
  endfacet
  facet normal -0 0 1
    outer loop
      vertex -1.2872 -20.4595 10
      vertex 33.2664 -25 10
      vertex 1.2872 -20.4595 10
    endloop
  endfacet
  facet normal 0 -1 -0
    outer loop
      vertex -1.2872 20.4595 0
      vertex 1.2872 20.4595 0
      vertex 1.2872 20.4595 10
    endloop
  endfacet
  facet normal 0 -1 0
    outer loop
      vertex -1.2872 20.4595 0
      vertex 1.2872 20.4595 10
      vertex -1.2872 20.4595 10
    endloop
  endfacet
  facet normal 0 0 -1
    outer loop
      vertex -1.2872 20.4595 0
      vertex 33.2664 25 0
      vertex 1.2872 20.4595 0
    endloop
  endfacet
  facet normal 0 0 1
    outer loop
      vertex -1.2872 20.4595 10
      vertex 1.2872 20.4595 10
      vertex 33.2664 25 10
    endloop
  endfacet
  facet normal 0.481781 0.876292 0
    outer loop
      vertex -10.9844 -17.3087 0
      vertex -10.9844 -17.3087 10
      vertex -8.72847 -18.549 0
    endloop
  endfacet
  facet normal 0.481781 0.876292 -0
    outer loop
      vertex -10.9844 -17.3087 10
      vertex -8.72847 -18.549 10
      vertex -8.72847 -18.549 0
    endloop
  endfacet
  facet normal 0.481781 -0.876292 0
    outer loop
      vertex -10.9844 17.3087 0
      vertex -8.72847 18.549 0
      vertex -8.72847 18.549 10
    endloop
  endfacet
  facet normal 0.481781 -0.876292 0
    outer loop
      vertex -10.9844 17.3087 0
      vertex -8.72847 18.549 10
      vertex -10.9844 17.3087 10
    endloop
  endfacet
  facet normal 0.587774 0.809025 0
    outer loop
      vertex -13.0672 -15.7955 0
      vertex -13.0672 -15.7955 10
      vertex -10.9844 -17.3087 0
    endloop
  endfacet
  facet normal 0.587774 0.809025 -0
    outer loop
      vertex -13.0672 -15.7955 10
      vertex -10.9844 -17.3087 10
      vertex -10.9844 -17.3087 0
    endloop
  endfacet
  facet normal 0.587774 -0.809025 0
    outer loop
      vertex -13.0672 15.7955 0
      vertex -10.9844 17.3087 0
      vertex -10.9844 17.3087 10
    endloop
  endfacet
  facet normal 0.587774 -0.809025 0
    outer loop
      vertex -13.0672 15.7955 0
      vertex -10.9844 17.3087 10
      vertex -13.0672 15.7955 10
    endloop
  endfacet
  facet normal 0.684539 0.728976 0
    outer loop
      vertex -14.9439 -14.0332 0
      vertex -14.9439 -14.0332 10
      vertex -13.0672 -15.7955 0
    endloop
  endfacet
  facet normal 0.684539 0.728976 -0
    outer loop
      vertex -14.9439 -14.0332 10
      vertex -13.0672 -15.7955 10
      vertex -13.0672 -15.7955 0
    endloop
  endfacet
  facet normal 0.684539 -0.728976 0
    outer loop
      vertex -14.9439 14.0332 0
      vertex -13.0672 15.7955 0
      vertex -13.0672 15.7955 10
    endloop
  endfacet
  facet normal 0.684539 -0.728976 0
    outer loop
      vertex -14.9439 14.0332 0
      vertex -13.0672 15.7955 10
      vertex -14.9439 14.0332 10
    endloop
  endfacet
  facet normal 0.770528 0.637406 0
    outer loop
      vertex -16.5848 -12.0496 0
      vertex -14.9439 -14.0332 10
      vertex -14.9439 -14.0332 0
    endloop
  endfacet
  facet normal 0.770528 0.637406 0
    outer loop
      vertex -16.5848 -12.0496 0
      vertex -16.5848 -12.0496 10
      vertex -14.9439 -14.0332 10
    endloop
  endfacet
  facet normal 0.770528 -0.637406 0
    outer loop
      vertex -16.5848 12.0496 0
      vertex -14.9439 14.0332 0
      vertex -16.5848 12.0496 10
    endloop
  endfacet
  facet normal 0.770528 -0.637406 0
    outer loop
      vertex -16.5848 12.0496 10
      vertex -14.9439 14.0332 0
      vertex -14.9439 14.0332 10
    endloop
  endfacet
  facet normal 0.844317 0.535843 0
    outer loop
      vertex -17.9643 -9.87595 0
      vertex -16.5848 -12.0496 10
      vertex -16.5848 -12.0496 0
    endloop
  endfacet
  facet normal 0.844317 0.535843 0
    outer loop
      vertex -17.9643 -9.87595 0
      vertex -17.9643 -9.87595 10
      vertex -16.5848 -12.0496 10
    endloop
  endfacet
  facet normal 0.844317 -0.535843 0
    outer loop
      vertex -17.9643 9.87595 0
      vertex -16.5848 12.0496 0
      vertex -17.9643 9.87595 10
    endloop
  endfacet
  facet normal 0.844317 -0.535843 0
    outer loop
      vertex -17.9643 9.87595 10
      vertex -16.5848 12.0496 0
      vertex -16.5848 12.0496 10
    endloop
  endfacet
  facet normal 0.904832 0.425769 0
    outer loop
      vertex -19.0604 -7.54655 0
      vertex -17.9643 -9.87595 10
      vertex -17.9643 -9.87595 0
    endloop
  endfacet
  facet normal 0.904832 0.425769 0
    outer loop
      vertex -19.0604 -7.54655 0
      vertex -19.0604 -7.54655 10
      vertex -17.9643 -9.87595 10
    endloop
  endfacet
  facet normal 0.904832 -0.425769 0
    outer loop
      vertex -19.0604 7.54655 0
      vertex -17.9643 9.87595 0
      vertex -19.0604 7.54655 10
    endloop
  endfacet
  facet normal 0.904832 -0.425769 0
    outer loop
      vertex -19.0604 7.54655 10
      vertex -17.9643 9.87595 0
      vertex -17.9643 9.87595 10
    endloop
  endfacet
  facet normal 0.951049 0.309039 0
    outer loop
      vertex -19.856 -5.09814 0
      vertex -19.0604 -7.54655 10
      vertex -19.0604 -7.54655 0
    endloop
  endfacet
  facet normal 0.951049 0.309039 0
    outer loop
      vertex -19.856 -5.09814 0
      vertex -19.856 -5.09814 10
      vertex -19.0604 -7.54655 10
    endloop
  endfacet
  facet normal 0.951049 -0.309039 0
    outer loop
      vertex -19.856 5.09814 0
      vertex -19.0604 7.54655 0
      vertex -19.856 5.09814 10
    endloop
  endfacet
  facet normal 0.951049 -0.309039 0
    outer loop
      vertex -19.856 5.09814 10
      vertex -19.0604 7.54655 0
      vertex -19.0604 7.54655 10
    endloop
  endfacet
  facet normal 0.982287 0.187383 0
    outer loop
      vertex -20.3384 -2.56933 0
      vertex -19.856 -5.09814 10
      vertex -19.856 -5.09814 0
    endloop
  endfacet
  facet normal 0.982287 0.187383 0
    outer loop
      vertex -20.3384 -2.56933 0
      vertex -20.3384 -2.56933 10
      vertex -19.856 -5.09814 10
    endloop
  endfacet
  facet normal 0.982287 -0.187383 0
    outer loop
      vertex -20.3384 2.56933 0
      vertex -19.856 5.09814 0
      vertex -20.3384 2.56933 10
    endloop
  endfacet
  facet normal 0.982287 -0.187383 0
    outer loop
      vertex -20.3384 2.56933 10
      vertex -19.856 5.09814 0
      vertex -19.856 5.09814 10
    endloop
  endfacet
  facet normal 0.998028 0.0627717 0
    outer loop
      vertex -20.5 0 0
      vertex -20.3384 -2.56933 10
      vertex -20.3384 -2.56933 0
    endloop
  endfacet
  facet normal 0.998028 -0.0627717 0
    outer loop
      vertex -20.5 0 0
      vertex -20.3384 2.56933 0
      vertex -20.5 0 10
    endloop
  endfacet
  facet normal 0.998028 0.0627717 0
    outer loop
      vertex -20.5 0 0
      vertex -20.5 0 10
      vertex -20.3384 -2.56933 10
    endloop
  endfacet
  facet normal 0.998028 -0.0627717 0
    outer loop
      vertex -20.5 0 10
      vertex -20.3384 2.56933 0
      vertex -20.3384 2.56933 10
    endloop
  endfacet
  facet normal 0 0 -1
    outer loop
      vertex -25 -15.5 0
      vertex -13.0672 -15.7955 0
      vertex -10.9844 -17.3087 0
    endloop
  endfacet
  facet normal 0 0 -1
    outer loop
      vertex -25 -15.5 0
      vertex -14.9439 -14.0332 0
      vertex -13.0672 -15.7955 0
    endloop
  endfacet
  facet normal -0 0 -1
    outer loop
      vertex -25 -15.5 0
      vertex -16.5848 -12.0496 0
      vertex -14.9439 -14.0332 0
    endloop
  endfacet
  facet normal -0 0 -1
    outer loop
      vertex -25 -15.5 0
      vertex -17.9643 -9.87595 0
      vertex -16.5848 -12.0496 0
    endloop
  endfacet
  facet normal -0 0 -1
    outer loop
      vertex -25 -15.5 0
      vertex -19.0604 -7.54655 0
      vertex -17.9643 -9.87595 0
    endloop
  endfacet
  facet normal -0 0 -1
    outer loop
      vertex -25 -15.5 0
      vertex -19.856 -5.09814 0
      vertex -19.0604 -7.54655 0
    endloop
  endfacet
  facet normal -0 0 -1
    outer loop
      vertex -25 -15.5 0
      vertex -20.3384 -2.56933 0
      vertex -19.856 -5.09814 0
    endloop
  endfacet
  facet normal -0 0 -1
    outer loop
      vertex -25 -15.5 0
      vertex -20.5 0 0
      vertex -20.3384 -2.56933 0
    endloop
  endfacet
  facet normal -1 -0 0
    outer loop
      vertex -25 -15.5 0
      vertex -25 -15.5 10
      vertex -25 15.5 10
    endloop
  endfacet
  facet normal 0 0 -1
    outer loop
      vertex -25 -15.5 0
      vertex -25 15.5 0
      vertex -20.5 0 0
    endloop
  endfacet
  facet normal -1 0 0
    outer loop
      vertex -25 -15.5 0
      vertex -25 15.5 10
      vertex -25 15.5 0
    endloop
  endfacet
  facet normal 0 0 1
    outer loop
      vertex -25 -15.5 10
      vertex -10.9844 -17.3087 10
      vertex -13.0672 -15.7955 10
    endloop
  endfacet
  facet normal -0 0 1
    outer loop
      vertex -25 -15.5 10
      vertex -13.0672 -15.7955 10
      vertex -14.9439 -14.0332 10
    endloop
  endfacet
  facet normal 0 0 1
    outer loop
      vertex -25 -15.5 10
      vertex -14.9439 -14.0332 10
      vertex -16.5848 -12.0496 10
    endloop
  endfacet
  facet normal 0 0 1
    outer loop
      vertex -25 -15.5 10
      vertex -16.5848 -12.0496 10
      vertex -17.9643 -9.87595 10
    endloop
  endfacet
  facet normal 0 0 1
    outer loop
      vertex -25 -15.5 10
      vertex -17.9643 -9.87595 10
      vertex -19.0604 -7.54655 10
    endloop
  endfacet
  facet normal 0 0 1
    outer loop
      vertex -25 -15.5 10
      vertex -19.0604 -7.54655 10
      vertex -19.856 -5.09814 10
    endloop
  endfacet
  facet normal 0 0 1
    outer loop
      vertex -25 -15.5 10
      vertex -19.856 -5.09814 10
      vertex -20.3384 -2.56933 10
    endloop
  endfacet
  facet normal 0 0 1
    outer loop
      vertex -25 -15.5 10
      vertex -20.3384 -2.56933 10
      vertex -20.5 0 10
    endloop
  endfacet
  facet normal 0 0 1
    outer loop
      vertex -25 -15.5 10
      vertex -20.5 0 10
      vertex -25 15.5 10
    endloop
  endfacet
  facet normal 0 0 -1
    outer loop
      vertex -25 15.5 0
      vertex -10.9844 17.3087 0
      vertex -13.0672 15.7955 0
    endloop
  endfacet
  facet normal 0 0 -1
    outer loop
      vertex -25 15.5 0
      vertex -13.0672 15.7955 0
      vertex -14.9439 14.0332 0
    endloop
  endfacet
  facet normal 0 0 -1
    outer loop
      vertex -25 15.5 0
      vertex -14.9439 14.0332 0
      vertex -16.5848 12.0496 0
    endloop
  endfacet
  facet normal 0 0 -1
    outer loop
      vertex -25 15.5 0
      vertex -16.5848 12.0496 0
      vertex -17.9643 9.87595 0
    endloop
  endfacet
  facet normal 0 0 -1
    outer loop
      vertex -25 15.5 0
      vertex -17.9643 9.87595 0
      vertex -19.0604 7.54655 0
    endloop
  endfacet
  facet normal 0 0 -1
    outer loop
      vertex -25 15.5 0
      vertex -19.0604 7.54655 0
      vertex -19.856 5.09814 0
    endloop
  endfacet
  facet normal 0 0 -1
    outer loop
      vertex -25 15.5 0
      vertex -19.856 5.09814 0
      vertex -20.3384 2.56933 0
    endloop
  endfacet
  facet normal 0 0 -1
    outer loop
      vertex -25 15.5 0
      vertex -20.3384 2.56933 0
      vertex -20.5 0 0
    endloop
  endfacet
  facet normal 0 0 1
    outer loop
      vertex -25 15.5 10
      vertex -13.0672 15.7955 10
      vertex -10.9844 17.3087 10
    endloop
  endfacet
  facet normal 0 0 1
    outer loop
      vertex -25 15.5 10
      vertex -14.9439 14.0332 10
      vertex -13.0672 15.7955 10
    endloop
  endfacet
  facet normal 0 0 1
    outer loop
      vertex -25 15.5 10
      vertex -16.5848 12.0496 10
      vertex -14.9439 14.0332 10
    endloop
  endfacet
  facet normal 0 0 1
    outer loop
      vertex -25 15.5 10
      vertex -17.9643 9.87595 10
      vertex -16.5848 12.0496 10
    endloop
  endfacet
  facet normal 0 0 1
    outer loop
      vertex -25 15.5 10
      vertex -19.0604 7.54655 10
      vertex -17.9643 9.87595 10
    endloop
  endfacet
  facet normal 0 0 1
    outer loop
      vertex -25 15.5 10
      vertex -19.856 5.09814 10
      vertex -19.0604 7.54655 10
    endloop
  endfacet
  facet normal 0 0 1
    outer loop
      vertex -25 15.5 10
      vertex -20.3384 2.56933 10
      vertex -19.856 5.09814 10
    endloop
  endfacet
  facet normal 0 0 1
    outer loop
      vertex -25 15.5 10
      vertex -20.5 0 10
      vertex -20.3384 2.56933 10
    endloop
  endfacet
  facet normal 0.12531 0.992118 0
    outer loop
      vertex -3.84132 -20.1369 0
      vertex -3.84132 -20.1369 10
      vertex -1.2872 -20.4595 0
    endloop
  endfacet
  facet normal 0.12531 0.992118 -0
    outer loop
      vertex -3.84132 -20.1369 10
      vertex -1.2872 -20.4595 10
      vertex -1.2872 -20.4595 0
    endloop
  endfacet
  facet normal 0.12531 -0.992118 0
    outer loop
      vertex -3.84132 20.1369 0
      vertex -1.2872 20.4595 0
      vertex -1.2872 20.4595 10
    endloop
  endfacet
  facet normal 0.12531 -0.992118 0
    outer loop
      vertex -3.84132 20.1369 0
      vertex -1.2872 20.4595 10
      vertex -3.84132 20.1369 10
    endloop
  endfacet
  facet normal 0 0 -1
    outer loop
      vertex -33.2664 -25 0
      vertex -1.2872 -20.4595 0
      vertex 33.2664 -25 0
    endloop
  endfacet
  facet normal 0 0 -1
    outer loop
      vertex -33.2664 -25 0
      vertex -10.9844 -17.3087 0
      vertex -8.72847 -18.549 0
    endloop
  endfacet
  facet normal -0 0 -1
    outer loop
      vertex -33.2664 -25 0
      vertex -25 -15.5 0
      vertex -10.9844 -17.3087 0
    endloop
  endfacet
  facet normal -0 0 -1
    outer loop
      vertex -33.2664 -25 0
      vertex -3.84132 -20.1369 0
      vertex -1.2872 -20.4595 0
    endloop
  endfacet
  facet normal 0 0 -1
    outer loop
      vertex -33.2664 -25 0
      vertex -6.33485 -19.4967 0
      vertex -3.84132 -20.1369 0
    endloop
  endfacet
  facet normal 0 0 -1
    outer loop
      vertex -33.2664 -25 0
      vertex -8.72847 -18.549 0
      vertex -6.33485 -19.4967 0
    endloop
  endfacet
  facet normal 0 -1 -0
    outer loop
      vertex -33.2664 -25 0
      vertex 33.2664 -25 0
      vertex 33.2664 -25 10
    endloop
  endfacet
  facet normal 0 -1 0
    outer loop
      vertex -33.2664 -25 0
      vertex 33.2664 -25 10
      vertex -33.2664 -25 10
    endloop
  endfacet
  facet normal 0 0 1
    outer loop
      vertex -33.2664 -25 10
      vertex -1.2872 -20.4595 10
      vertex -3.84132 -20.1369 10
    endloop
  endfacet
  facet normal 0 0 1
    outer loop
      vertex -33.2664 -25 10
      vertex -10.9844 -17.3087 10
      vertex -25 -15.5 10
    endloop
  endfacet
  facet normal 0 0 1
    outer loop
      vertex -33.2664 -25 10
      vertex -3.84132 -20.1369 10
      vertex -6.33485 -19.4967 10
    endloop
  endfacet
  facet normal 0 0 1
    outer loop
      vertex -33.2664 -25 10
      vertex -6.33485 -19.4967 10
      vertex -8.72847 -18.549 10
    endloop
  endfacet
  facet normal 0 0 1
    outer loop
      vertex -33.2664 -25 10
      vertex -8.72847 -18.549 10
      vertex -10.9844 -17.3087 10
    endloop
  endfacet
  facet normal 0 0 1
    outer loop
      vertex -33.2664 -25 10
      vertex 33.2664 -25 10
      vertex -1.2872 -20.4595 10
    endloop
  endfacet
  facet normal 0 0 -1
    outer loop
      vertex -33.2664 25 0
      vertex -1.2872 20.4595 0
      vertex -3.84132 20.1369 0
    endloop
  endfacet
  facet normal 0 0 -1
    outer loop
      vertex -33.2664 25 0
      vertex -10.9844 17.3087 0
      vertex -25 15.5 0
    endloop
  endfacet
  facet normal 0 0 -1
    outer loop
      vertex -33.2664 25 0
      vertex -3.84132 20.1369 0
      vertex -6.33485 19.4967 0
    endloop
  endfacet
  facet normal 0 1 0
    outer loop
      vertex -33.2664 25 0
      vertex -33.2664 25 10
      vertex 33.2664 25 0
    endloop
  endfacet
  facet normal 0 0 -1
    outer loop
      vertex -33.2664 25 0
      vertex -6.33485 19.4967 0
      vertex -8.72847 18.549 0
    endloop
  endfacet
  facet normal 0 0 -1
    outer loop
      vertex -33.2664 25 0
      vertex -8.72847 18.549 0
      vertex -10.9844 17.3087 0
    endloop
  endfacet
  facet normal 0 0 -1
    outer loop
      vertex -33.2664 25 0
      vertex 33.2664 25 0
      vertex -1.2872 20.4595 0
    endloop
  endfacet
  facet normal -0 0 1
    outer loop
      vertex -33.2664 25 10
      vertex -1.2872 20.4595 10
      vertex 33.2664 25 10
    endloop
  endfacet
  facet normal 0 0 1
    outer loop
      vertex -33.2664 25 10
      vertex -10.9844 17.3087 10
      vertex -8.72847 18.549 10
    endloop
  endfacet
  facet normal 0 0 1
    outer loop
      vertex -33.2664 25 10
      vertex -25 15.5 10
      vertex -10.9844 17.3087 10
    endloop
  endfacet
  facet normal 0 0 1
    outer loop
      vertex -33.2664 25 10
      vertex -3.84132 20.1369 10
      vertex -1.2872 20.4595 10
    endloop
  endfacet
  facet normal 0 0 1
    outer loop
      vertex -33.2664 25 10
      vertex -6.33485 19.4967 10
      vertex -3.84132 20.1369 10
    endloop
  endfacet
  facet normal 0 0 1
    outer loop
      vertex -33.2664 25 10
      vertex -8.72847 18.549 10
      vertex -6.33485 19.4967 10
    endloop
  endfacet
  facet normal 0 1 -0
    outer loop
      vertex -33.2664 25 10
      vertex 33.2664 25 10
      vertex 33.2664 25 0
    endloop
  endfacet
  facet normal 0 0 -1
    outer loop
      vertex -33.6956 -24.4813 0
      vertex -25 -15.5 0
      vertex -33.2664 -25 0
    endloop
  endfacet
  facet normal -0.770445 -0.637507 0
    outer loop
      vertex -33.6956 -24.4813 0
      vertex -33.2664 -25 0
      vertex -33.6956 -24.4813 10
    endloop
  endfacet
  facet normal -0.770445 -0.637507 0
    outer loop
      vertex -33.6956 -24.4813 10
      vertex -33.2664 -25 0
      vertex -33.2664 -25 10
    endloop
  endfacet
  facet normal 0 0 1
    outer loop
      vertex -33.6956 -24.4813 10
      vertex -33.2664 -25 10
      vertex -25 -15.5 10
    endloop
  endfacet
  facet normal 0 0 -1
    outer loop
      vertex -33.6956 24.4813 0
      vertex -33.2664 25 0
      vertex -25 15.5 0
    endloop
  endfacet
  facet normal -0.770445 0.637507 0
    outer loop
      vertex -33.6956 24.4813 0
      vertex -33.2664 25 10
      vertex -33.2664 25 0
    endloop
  endfacet
  facet normal -0.770445 0.637507 0
    outer loop
      vertex -33.6956 24.4813 0
      vertex -33.6956 24.4813 10
      vertex -33.2664 25 10
    endloop
  endfacet
  facet normal -0 0 1
    outer loop
      vertex -33.6956 24.4813 10
      vertex -25 15.5 10
      vertex -33.2664 25 10
    endloop
  endfacet
  facet normal 0 1 0
    outer loop
      vertex -36 -15.5 0
      vertex -36 -15.5 10
      vertex -25 -15.5 0
    endloop
  endfacet
  facet normal 1 0 0
    outer loop
      vertex -36 -15.5 0
      vertex -36 15.5 0
      vertex -36 -15.5 10
    endloop
  endfacet
  facet normal 0 1 -0
    outer loop
      vertex -36 -15.5 10
      vertex -25 -15.5 10
      vertex -25 -15.5 0
    endloop
  endfacet
  facet normal 1 -0 0
    outer loop
      vertex -36 -15.5 10
      vertex -36 15.5 0
      vertex -36 15.5 10
    endloop
  endfacet
  facet normal 0 -1 -0
    outer loop
      vertex -36 15.5 0
      vertex -25 15.5 0
      vertex -25 15.5 10
    endloop
  endfacet
  facet normal 0 -1 0
    outer loop
      vertex -36 15.5 0
      vertex -25 15.5 10
      vertex -36 15.5 10
    endloop
  endfacet
  facet normal 0 0 -1
    outer loop
      vertex -36.4982 -20.065 0
      vertex -25 -15.5 0
      vertex -33.6956 -24.4813 0
    endloop
  endfacet
  facet normal -0.844334 -0.535817 0
    outer loop
      vertex -36.4982 -20.065 0
      vertex -33.6956 -24.4813 0
      vertex -36.4982 -20.065 10
    endloop
  endfacet
  facet normal -0 0 -1
    outer loop
      vertex -36.4982 -20.065 0
      vertex -36 -15.5 0
      vertex -25 -15.5 0
    endloop
  endfacet
  facet normal 0 0 1
    outer loop
      vertex -36.4982 -20.065 10
      vertex -25 -15.5 10
      vertex -36 -15.5 10
    endloop
  endfacet
  facet normal -0.844334 -0.535817 0
    outer loop
      vertex -36.4982 -20.065 10
      vertex -33.6956 -24.4813 0
      vertex -33.6956 -24.4813 10
    endloop
  endfacet
  facet normal 0 0 1
    outer loop
      vertex -36.4982 -20.065 10
      vertex -33.6956 -24.4813 10
      vertex -25 -15.5 10
    endloop
  endfacet
  facet normal 0 0 -1
    outer loop
      vertex -36.4982 20.065 0
      vertex -25 15.5 0
      vertex -36 15.5 0
    endloop
  endfacet
  facet normal 0 0 -1
    outer loop
      vertex -36.4982 20.065 0
      vertex -33.6956 24.4813 0
      vertex -25 15.5 0
    endloop
  endfacet
  facet normal -0.844334 0.535817 0
    outer loop
      vertex -36.4982 20.065 0
      vertex -33.6956 24.4813 10
      vertex -33.6956 24.4813 0
    endloop
  endfacet
  facet normal -0.844334 0.535817 0
    outer loop
      vertex -36.4982 20.065 0
      vertex -36.4982 20.065 10
      vertex -33.6956 24.4813 10
    endloop
  endfacet
  facet normal -0 0 1
    outer loop
      vertex -36.4982 20.065 10
      vertex -25 15.5 10
      vertex -33.6956 24.4813 10
    endloop
  endfacet
  facet normal 0 0 1
    outer loop
      vertex -36.4982 20.065 10
      vertex -36 15.5 10
      vertex -25 15.5 10
    endloop
  endfacet
  facet normal 0 0 -1
    outer loop
      vertex -38.7252 -15.3324 0
      vertex -36 -15.5 0
      vertex -36.4982 -20.065 0
    endloop
  endfacet
  facet normal -0.904827 -0.42578 0
    outer loop
      vertex -38.7252 -15.3324 0
      vertex -36.4982 -20.065 0
      vertex -38.7252 -15.3324 10
    endloop
  endfacet
  facet normal -0.904827 -0.42578 0
    outer loop
      vertex -38.7252 -15.3324 10
      vertex -36.4982 -20.065 0
      vertex -36.4982 -20.065 10
    endloop
  endfacet
  facet normal 0 0 1
    outer loop
      vertex -38.7252 -15.3324 10
      vertex -36.4982 -20.065 10
      vertex -36 -15.5 10
    endloop
  endfacet
  facet normal -0 0 -1
    outer loop
      vertex -38.7252 15.3324 0
      vertex -36.4982 20.065 0
      vertex -36 15.5 0
    endloop
  endfacet
  facet normal -0.904827 0.42578 0
    outer loop
      vertex -38.7252 15.3324 0
      vertex -36.4982 20.065 10
      vertex -36.4982 20.065 0
    endloop
  endfacet
  facet normal -0.904827 0.42578 0
    outer loop
      vertex -38.7252 15.3324 0
      vertex -38.7252 15.3324 10
      vertex -36.4982 20.065 10
    endloop
  endfacet
  facet normal 0 0 1
    outer loop
      vertex -38.7252 15.3324 10
      vertex -36 15.5 10
      vertex -36.4982 20.065 10
    endloop
  endfacet
  facet normal 0 0 -1
    outer loop
      vertex -40.3415 -10.3579 0
      vertex -36 -15.5 0
      vertex -38.7252 -15.3324 0
    endloop
  endfacet
  facet normal -0.951057 -0.309015 0
    outer loop
      vertex -40.3415 -10.3579 0
      vertex -38.7252 -15.3324 0
      vertex -40.3415 -10.3579 10
    endloop
  endfacet
  facet normal -0.951057 -0.309015 0
    outer loop
      vertex -40.3415 -10.3579 10
      vertex -38.7252 -15.3324 0
      vertex -38.7252 -15.3324 10
    endloop
  endfacet
  facet normal 0 0 1
    outer loop
      vertex -40.3415 -10.3579 10
      vertex -38.7252 -15.3324 10
      vertex -36 -15.5 10
    endloop
  endfacet
  facet normal 0 0 -1
    outer loop
      vertex -40.3415 10.3579 0
      vertex -38.7252 15.3324 0
      vertex -36 15.5 0
    endloop
  endfacet
  facet normal -0.951057 0.309015 0
    outer loop
      vertex -40.3415 10.3579 0
      vertex -38.7252 15.3324 10
      vertex -38.7252 15.3324 0
    endloop
  endfacet
  facet normal -0.951057 0.309015 0
    outer loop
      vertex -40.3415 10.3579 0
      vertex -40.3415 10.3579 10
      vertex -38.7252 15.3324 10
    endloop
  endfacet
  facet normal 0 0 1
    outer loop
      vertex -40.3415 10.3579 10
      vertex -36 15.5 10
      vertex -38.7252 15.3324 10
    endloop
  endfacet
  facet normal 0 0 -1
    outer loop
      vertex -41.3216 -5.22013 0
      vertex -36 -15.5 0
      vertex -40.3415 -10.3579 0
    endloop
  endfacet
  facet normal -0.982287 -0.187385 0
    outer loop
      vertex -41.3216 -5.22013 0
      vertex -40.3415 -10.3579 0
      vertex -41.3216 -5.22013 10
    endloop
  endfacet
  facet normal -0.982287 -0.187385 0
    outer loop
      vertex -41.3216 -5.22013 10
      vertex -40.3415 -10.3579 0
      vertex -40.3415 -10.3579 10
    endloop
  endfacet
  facet normal 0 0 1
    outer loop
      vertex -41.3216 -5.22013 10
      vertex -40.3415 -10.3579 10
      vertex -36 -15.5 10
    endloop
  endfacet
  facet normal 0 0 -1
    outer loop
      vertex -41.3216 5.22013 0
      vertex -40.3415 10.3579 0
      vertex -36 15.5 0
    endloop
  endfacet
  facet normal -0.982287 0.187385 0
    outer loop
      vertex -41.3216 5.22013 0
      vertex -40.3415 10.3579 10
      vertex -40.3415 10.3579 0
    endloop
  endfacet
  facet normal -0.982287 0.187385 0
    outer loop
      vertex -41.3216 5.22013 0
      vertex -41.3216 5.22013 10
      vertex -40.3415 10.3579 10
    endloop
  endfacet
  facet normal 0 0 1
    outer loop
      vertex -41.3216 5.22013 10
      vertex -36 15.5 10
      vertex -40.3415 10.3579 10
    endloop
  endfacet
  facet normal 0 0 -1
    outer loop
      vertex -41.65 0 0
      vertex -36 -15.5 0
      vertex -41.3216 -5.22013 0
    endloop
  endfacet
  facet normal 0 0 -1
    outer loop
      vertex -41.65 0 0
      vertex -36 15.5 0
      vertex -36 -15.5 0
    endloop
  endfacet
  facet normal -0.998027 -0.0627862 0
    outer loop
      vertex -41.65 0 0
      vertex -41.3216 -5.22013 0
      vertex -41.65 0 10
    endloop
  endfacet
  facet normal 0 0 -1
    outer loop
      vertex -41.65 0 0
      vertex -41.3216 5.22013 0
      vertex -36 15.5 0
    endloop
  endfacet
  facet normal -0.998027 0.0627862 0
    outer loop
      vertex -41.65 0 0
      vertex -41.3216 5.22013 10
      vertex -41.3216 5.22013 0
    endloop
  endfacet
  facet normal -0.998027 0.0627862 0
    outer loop
      vertex -41.65 0 0
      vertex -41.65 0 10
      vertex -41.3216 5.22013 10
    endloop
  endfacet
  facet normal 0 0 1
    outer loop
      vertex -41.65 0 10
      vertex -36 -15.5 10
      vertex -36 15.5 10
    endloop
  endfacet
  facet normal 0 0 1
    outer loop
      vertex -41.65 0 10
      vertex -36 15.5 10
      vertex -41.3216 5.22013 10
    endloop
  endfacet
  facet normal -0.998027 -0.0627862 0
    outer loop
      vertex -41.65 0 10
      vertex -41.3216 -5.22013 0
      vertex -41.3216 -5.22013 10
    endloop
  endfacet
  facet normal 0 0 1
    outer loop
      vertex -41.65 0 10
      vertex -41.3216 -5.22013 10
      vertex -36 -15.5 10
    endloop
  endfacet
  facet normal 0.248679 0.968586 0
    outer loop
      vertex -6.33485 -19.4967 0
      vertex -6.33485 -19.4967 10
      vertex -3.84132 -20.1369 0
    endloop
  endfacet
  facet normal 0.248679 0.968586 -0
    outer loop
      vertex -6.33485 -19.4967 10
      vertex -3.84132 -20.1369 10
      vertex -3.84132 -20.1369 0
    endloop
  endfacet
  facet normal 0.248679 -0.968586 0
    outer loop
      vertex -6.33485 19.4967 0
      vertex -3.84132 20.1369 0
      vertex -3.84132 20.1369 10
    endloop
  endfacet
  facet normal 0.248679 -0.968586 0
    outer loop
      vertex -6.33485 19.4967 0
      vertex -3.84132 20.1369 10
      vertex -6.33485 19.4967 10
    endloop
  endfacet
  facet normal 0.368124 0.929777 0
    outer loop
      vertex -8.72847 -18.549 0
      vertex -8.72847 -18.549 10
      vertex -6.33485 -19.4967 0
    endloop
  endfacet
  facet normal 0.368124 0.929777 -0
    outer loop
      vertex -8.72847 -18.549 10
      vertex -6.33485 -19.4967 10
      vertex -6.33485 -19.4967 0
    endloop
  endfacet
  facet normal 0.368124 -0.929777 0
    outer loop
      vertex -8.72847 18.549 0
      vertex -6.33485 19.4967 0
      vertex -6.33485 19.4967 10
    endloop
  endfacet
  facet normal 0.368124 -0.929777 0
    outer loop
      vertex -8.72847 18.549 0
      vertex -6.33485 19.4967 10
      vertex -8.72847 18.549 10
    endloop
  endfacet
  facet normal -0.12531 0.992118 0
    outer loop
      vertex 1.2872 -20.4595 0
      vertex 1.2872 -20.4595 10
      vertex 3.84132 -20.1369 0
    endloop
  endfacet
  facet normal 0 0 -1
    outer loop
      vertex 1.2872 -20.4595 0
      vertex 3.84132 -20.1369 0
      vertex 33.2664 -25 0
    endloop
  endfacet
  facet normal -0.12531 0.992118 0
    outer loop
      vertex 1.2872 -20.4595 10
      vertex 3.84132 -20.1369 10
      vertex 3.84132 -20.1369 0
    endloop
  endfacet
  facet normal -0 0 1
    outer loop
      vertex 1.2872 -20.4595 10
      vertex 33.2664 -25 10
      vertex 3.84132 -20.1369 10
    endloop
  endfacet
  facet normal -0.12531 -0.992118 -0
    outer loop
      vertex 1.2872 20.4595 0
      vertex 3.84132 20.1369 0
      vertex 3.84132 20.1369 10
    endloop
  endfacet
  facet normal -0.12531 -0.992118 0
    outer loop
      vertex 1.2872 20.4595 0
      vertex 3.84132 20.1369 10
      vertex 1.2872 20.4595 10
    endloop
  endfacet
  facet normal 0 0 -1
    outer loop
      vertex 1.2872 20.4595 0
      vertex 33.2664 25 0
      vertex 3.84132 20.1369 0
    endloop
  endfacet
  facet normal 0 0 1
    outer loop
      vertex 1.2872 20.4595 10
      vertex 3.84132 20.1369 10
      vertex 33.2664 25 10
    endloop
  endfacet
  facet normal -0.587774 0.809025 0
    outer loop
      vertex 10.9844 -17.3087 0
      vertex 10.9844 -17.3087 10
      vertex 13.0672 -15.7955 0
    endloop
  endfacet
  facet normal 0 0 -1
    outer loop
      vertex 10.9844 -17.3087 0
      vertex 13.0672 -15.7955 0
      vertex 25 -15.5 0
    endloop
  endfacet
  facet normal 0 0 -1
    outer loop
      vertex 10.9844 -17.3087 0
      vertex 25 -15.5 0
      vertex 33.2664 -25 0
    endloop
  endfacet
  facet normal -0.587774 0.809025 0
    outer loop
      vertex 10.9844 -17.3087 10
      vertex 13.0672 -15.7955 10
      vertex 13.0672 -15.7955 0
    endloop
  endfacet
  facet normal 0 0 1
    outer loop
      vertex 10.9844 -17.3087 10
      vertex 25 -15.5 10
      vertex 13.0672 -15.7955 10
    endloop
  endfacet
  facet normal 0 0 1
    outer loop
      vertex 10.9844 -17.3087 10
      vertex 33.2664 -25 10
      vertex 25 -15.5 10
    endloop
  endfacet
  facet normal -0.587774 -0.809025 -0
    outer loop
      vertex 10.9844 17.3087 0
      vertex 13.0672 15.7955 0
      vertex 13.0672 15.7955 10
    endloop
  endfacet
  facet normal -0.587774 -0.809025 0
    outer loop
      vertex 10.9844 17.3087 0
      vertex 13.0672 15.7955 10
      vertex 10.9844 17.3087 10
    endloop
  endfacet
  facet normal 0 0 -1
    outer loop
      vertex 10.9844 17.3087 0
      vertex 25 15.5 0
      vertex 13.0672 15.7955 0
    endloop
  endfacet
  facet normal 0 0 -1
    outer loop
      vertex 10.9844 17.3087 0
      vertex 33.2664 25 0
      vertex 25 15.5 0
    endloop
  endfacet
  facet normal 0 0 1
    outer loop
      vertex 10.9844 17.3087 10
      vertex 13.0672 15.7955 10
      vertex 25 15.5 10
    endloop
  endfacet
  facet normal -0 0 1
    outer loop
      vertex 10.9844 17.3087 10
      vertex 25 15.5 10
      vertex 33.2664 25 10
    endloop
  endfacet
  facet normal -0.684539 0.728976 0
    outer loop
      vertex 13.0672 -15.7955 0
      vertex 13.0672 -15.7955 10
      vertex 14.9439 -14.0332 0
    endloop
  endfacet
  facet normal -0 0 -1
    outer loop
      vertex 13.0672 -15.7955 0
      vertex 14.9439 -14.0332 0
      vertex 25 -15.5 0
    endloop
  endfacet
  facet normal -0.684539 0.728976 0
    outer loop
      vertex 13.0672 -15.7955 10
      vertex 14.9439 -14.0332 10
      vertex 14.9439 -14.0332 0
    endloop
  endfacet
  facet normal 0 0 1
    outer loop
      vertex 13.0672 -15.7955 10
      vertex 25 -15.5 10
      vertex 14.9439 -14.0332 10
    endloop
  endfacet
  facet normal -0.684539 -0.728976 -0
    outer loop
      vertex 13.0672 15.7955 0
      vertex 14.9439 14.0332 0
      vertex 14.9439 14.0332 10
    endloop
  endfacet
  facet normal -0.684539 -0.728976 0
    outer loop
      vertex 13.0672 15.7955 0
      vertex 14.9439 14.0332 10
      vertex 13.0672 15.7955 10
    endloop
  endfacet
  facet normal 0 0 -1
    outer loop
      vertex 13.0672 15.7955 0
      vertex 25 15.5 0
      vertex 14.9439 14.0332 0
    endloop
  endfacet
  facet normal 0 0 1
    outer loop
      vertex 13.0672 15.7955 10
      vertex 14.9439 14.0332 10
      vertex 25 15.5 10
    endloop
  endfacet
  facet normal -0.770528 0.637406 0
    outer loop
      vertex 14.9439 -14.0332 0
      vertex 14.9439 -14.0332 10
      vertex 16.5848 -12.0496 10
    endloop
  endfacet
  facet normal 0 0 -1
    outer loop
      vertex 14.9439 -14.0332 0
      vertex 16.5848 -12.0496 0
      vertex 25 -15.5 0
    endloop
  endfacet
  facet normal -0.770528 0.637406 0
    outer loop
      vertex 14.9439 -14.0332 0
      vertex 16.5848 -12.0496 10
      vertex 16.5848 -12.0496 0
    endloop
  endfacet
  facet normal -0 0 1
    outer loop
      vertex 14.9439 -14.0332 10
      vertex 25 -15.5 10
      vertex 16.5848 -12.0496 10
    endloop
  endfacet
  facet normal -0.770528 -0.637406 0
    outer loop
      vertex 14.9439 14.0332 0
      vertex 16.5848 12.0496 0
      vertex 14.9439 14.0332 10
    endloop
  endfacet
  facet normal 0 0 -1
    outer loop
      vertex 14.9439 14.0332 0
      vertex 25 15.5 0
      vertex 16.5848 12.0496 0
    endloop
  endfacet
  facet normal -0.770528 -0.637406 0
    outer loop
      vertex 14.9439 14.0332 10
      vertex 16.5848 12.0496 0
      vertex 16.5848 12.0496 10
    endloop
  endfacet
  facet normal 0 0 1
    outer loop
      vertex 14.9439 14.0332 10
      vertex 16.5848 12.0496 10
      vertex 25 15.5 10
    endloop
  endfacet
  facet normal -0.844317 0.535843 0
    outer loop
      vertex 16.5848 -12.0496 0
      vertex 16.5848 -12.0496 10
      vertex 17.9643 -9.87595 10
    endloop
  endfacet
  facet normal 0 0 -1
    outer loop
      vertex 16.5848 -12.0496 0
      vertex 17.9643 -9.87595 0
      vertex 25 -15.5 0
    endloop
  endfacet
  facet normal -0.844317 0.535843 0
    outer loop
      vertex 16.5848 -12.0496 0
      vertex 17.9643 -9.87595 10
      vertex 17.9643 -9.87595 0
    endloop
  endfacet
  facet normal -0 0 1
    outer loop
      vertex 16.5848 -12.0496 10
      vertex 25 -15.5 10
      vertex 17.9643 -9.87595 10
    endloop
  endfacet
  facet normal -0.844317 -0.535843 0
    outer loop
      vertex 16.5848 12.0496 0
      vertex 17.9643 9.87595 0
      vertex 16.5848 12.0496 10
    endloop
  endfacet
  facet normal 0 0 -1
    outer loop
      vertex 16.5848 12.0496 0
      vertex 25 15.5 0
      vertex 17.9643 9.87595 0
    endloop
  endfacet
  facet normal -0.844317 -0.535843 0
    outer loop
      vertex 16.5848 12.0496 10
      vertex 17.9643 9.87595 0
      vertex 17.9643 9.87595 10
    endloop
  endfacet
  facet normal 0 0 1
    outer loop
      vertex 16.5848 12.0496 10
      vertex 17.9643 9.87595 10
      vertex 25 15.5 10
    endloop
  endfacet
  facet normal -0.904832 0.425769 0
    outer loop
      vertex 17.9643 -9.87595 0
      vertex 17.9643 -9.87595 10
      vertex 19.0604 -7.54655 10
    endloop
  endfacet
  facet normal 0 0 -1
    outer loop
      vertex 17.9643 -9.87595 0
      vertex 19.0604 -7.54655 0
      vertex 25 -15.5 0
    endloop
  endfacet
  facet normal -0.904832 0.425769 0
    outer loop
      vertex 17.9643 -9.87595 0
      vertex 19.0604 -7.54655 10
      vertex 19.0604 -7.54655 0
    endloop
  endfacet
  facet normal -0 0 1
    outer loop
      vertex 17.9643 -9.87595 10
      vertex 25 -15.5 10
      vertex 19.0604 -7.54655 10
    endloop
  endfacet
  facet normal -0.904832 -0.425769 0
    outer loop
      vertex 17.9643 9.87595 0
      vertex 19.0604 7.54655 0
      vertex 17.9643 9.87595 10
    endloop
  endfacet
  facet normal 0 0 -1
    outer loop
      vertex 17.9643 9.87595 0
      vertex 25 15.5 0
      vertex 19.0604 7.54655 0
    endloop
  endfacet
  facet normal -0.904832 -0.425769 0
    outer loop
      vertex 17.9643 9.87595 10
      vertex 19.0604 7.54655 0
      vertex 19.0604 7.54655 10
    endloop
  endfacet
  facet normal 0 0 1
    outer loop
      vertex 17.9643 9.87595 10
      vertex 19.0604 7.54655 10
      vertex 25 15.5 10
    endloop
  endfacet
  facet normal -0.951049 0.309039 0
    outer loop
      vertex 19.0604 -7.54655 0
      vertex 19.0604 -7.54655 10
      vertex 19.856 -5.09814 10
    endloop
  endfacet
  facet normal 0 0 -1
    outer loop
      vertex 19.0604 -7.54655 0
      vertex 19.856 -5.09814 0
      vertex 25 -15.5 0
    endloop
  endfacet
  facet normal -0.951049 0.309039 0
    outer loop
      vertex 19.0604 -7.54655 0
      vertex 19.856 -5.09814 10
      vertex 19.856 -5.09814 0
    endloop
  endfacet
  facet normal -0 0 1
    outer loop
      vertex 19.0604 -7.54655 10
      vertex 25 -15.5 10
      vertex 19.856 -5.09814 10
    endloop
  endfacet
  facet normal -0.951049 -0.309039 0
    outer loop
      vertex 19.0604 7.54655 0
      vertex 19.856 5.09814 0
      vertex 19.0604 7.54655 10
    endloop
  endfacet
  facet normal 0 0 -1
    outer loop
      vertex 19.0604 7.54655 0
      vertex 25 15.5 0
      vertex 19.856 5.09814 0
    endloop
  endfacet
  facet normal -0.951049 -0.309039 0
    outer loop
      vertex 19.0604 7.54655 10
      vertex 19.856 5.09814 0
      vertex 19.856 5.09814 10
    endloop
  endfacet
  facet normal 0 0 1
    outer loop
      vertex 19.0604 7.54655 10
      vertex 19.856 5.09814 10
      vertex 25 15.5 10
    endloop
  endfacet
  facet normal -0.982287 0.187383 0
    outer loop
      vertex 19.856 -5.09814 0
      vertex 19.856 -5.09814 10
      vertex 20.3384 -2.56933 10
    endloop
  endfacet
  facet normal 0 0 -1
    outer loop
      vertex 19.856 -5.09814 0
      vertex 20.3384 -2.56933 0
      vertex 25 -15.5 0
    endloop
  endfacet
  facet normal -0.982287 0.187383 0
    outer loop
      vertex 19.856 -5.09814 0
      vertex 20.3384 -2.56933 10
      vertex 20.3384 -2.56933 0
    endloop
  endfacet
  facet normal -0 0 1
    outer loop
      vertex 19.856 -5.09814 10
      vertex 25 -15.5 10
      vertex 20.3384 -2.56933 10
    endloop
  endfacet
  facet normal -0.982287 -0.187383 0
    outer loop
      vertex 19.856 5.09814 0
      vertex 20.3384 2.56933 0
      vertex 19.856 5.09814 10
    endloop
  endfacet
  facet normal 0 0 -1
    outer loop
      vertex 19.856 5.09814 0
      vertex 25 15.5 0
      vertex 20.3384 2.56933 0
    endloop
  endfacet
  facet normal -0.982287 -0.187383 0
    outer loop
      vertex 19.856 5.09814 10
      vertex 20.3384 2.56933 0
      vertex 20.3384 2.56933 10
    endloop
  endfacet
  facet normal 0 0 1
    outer loop
      vertex 19.856 5.09814 10
      vertex 20.3384 2.56933 10
      vertex 25 15.5 10
    endloop
  endfacet
  facet normal -0.998028 0.0627717 0
    outer loop
      vertex 20.3384 -2.56933 0
      vertex 20.3384 -2.56933 10
      vertex 20.5 0 10
    endloop
  endfacet
  facet normal 0 0 -1
    outer loop
      vertex 20.3384 -2.56933 0
      vertex 20.5 0 0
      vertex 25 -15.5 0
    endloop
  endfacet
  facet normal -0.998028 0.0627717 0
    outer loop
      vertex 20.3384 -2.56933 0
      vertex 20.5 0 10
      vertex 20.5 0 0
    endloop
  endfacet
  facet normal -0 0 1
    outer loop
      vertex 20.3384 -2.56933 10
      vertex 25 -15.5 10
      vertex 20.5 0 10
    endloop
  endfacet
  facet normal -0.998028 -0.0627717 0
    outer loop
      vertex 20.3384 2.56933 0
      vertex 20.5 0 0
      vertex 20.3384 2.56933 10
    endloop
  endfacet
  facet normal 0 0 -1
    outer loop
      vertex 20.3384 2.56933 0
      vertex 25 15.5 0
      vertex 20.5 0 0
    endloop
  endfacet
  facet normal -0.998028 -0.0627717 0
    outer loop
      vertex 20.3384 2.56933 10
      vertex 20.5 0 0
      vertex 20.5 0 10
    endloop
  endfacet
  facet normal 0 0 1
    outer loop
      vertex 20.3384 2.56933 10
      vertex 20.5 0 10
      vertex 25 15.5 10
    endloop
  endfacet
  facet normal 0 0 -1
    outer loop
      vertex 20.5 0 0
      vertex 25 15.5 0
      vertex 25 -15.5 0
    endloop
  endfacet
  facet normal 0 0 1
    outer loop
      vertex 20.5 0 10
      vertex 25 -15.5 10
      vertex 25 15.5 10
    endloop
  endfacet
  facet normal 0 1 0
    outer loop
      vertex 25 -15.5 0
      vertex 25 -15.5 10
      vertex 36 -15.5 0
    endloop
  endfacet
  facet normal 1 0 0
    outer loop
      vertex 25 -15.5 0
      vertex 25 15.5 0
      vertex 25 -15.5 10
    endloop
  endfacet
  facet normal 0 0 -1
    outer loop
      vertex 25 -15.5 0
      vertex 33.6956 -24.4813 0
      vertex 33.2664 -25 0
    endloop
  endfacet
  facet normal 0 0 -1
    outer loop
      vertex 25 -15.5 0
      vertex 36 -15.5 0
      vertex 36.4982 -20.065 0
    endloop
  endfacet
  facet normal 0 0 -1
    outer loop
      vertex 25 -15.5 0
      vertex 36.4982 -20.065 0
      vertex 33.6956 -24.4813 0
    endloop
  endfacet
  facet normal 1 -0 0
    outer loop
      vertex 25 -15.5 10
      vertex 25 15.5 0
      vertex 25 15.5 10
    endloop
  endfacet
  facet normal 0 0 1
    outer loop
      vertex 25 -15.5 10
      vertex 33.2664 -25 10
      vertex 33.6956 -24.4813 10
    endloop
  endfacet
  facet normal 0 0 1
    outer loop
      vertex 25 -15.5 10
      vertex 33.6956 -24.4813 10
      vertex 36.4982 -20.065 10
    endloop
  endfacet
  facet normal 0 1 -0
    outer loop
      vertex 25 -15.5 10
      vertex 36 -15.5 10
      vertex 36 -15.5 0
    endloop
  endfacet
  facet normal -0 0 1
    outer loop
      vertex 25 -15.5 10
      vertex 36.4982 -20.065 10
      vertex 36 -15.5 10
    endloop
  endfacet
  facet normal -0 0 -1
    outer loop
      vertex 25 15.5 0
      vertex 33.2664 25 0
      vertex 33.6956 24.4813 0
    endloop
  endfacet
  facet normal -0 0 -1
    outer loop
      vertex 25 15.5 0
      vertex 33.6956 24.4813 0
      vertex 36.4982 20.065 0
    endloop
  endfacet
  facet normal 0 -1 -0
    outer loop
      vertex 25 15.5 0
      vertex 36 15.5 0
      vertex 36 15.5 10
    endloop
  endfacet
  facet normal 0 -1 0
    outer loop
      vertex 25 15.5 0
      vertex 36 15.5 10
      vertex 25 15.5 10
    endloop
  endfacet
  facet normal 0 0 -1
    outer loop
      vertex 25 15.5 0
      vertex 36.4982 20.065 0
      vertex 36 15.5 0
    endloop
  endfacet
  facet normal 0 0 1
    outer loop
      vertex 25 15.5 10
      vertex 33.6956 24.4813 10
      vertex 33.2664 25 10
    endloop
  endfacet
  facet normal 0 0 1
    outer loop
      vertex 25 15.5 10
      vertex 36 15.5 10
      vertex 36.4982 20.065 10
    endloop
  endfacet
  facet normal 0 0 1
    outer loop
      vertex 25 15.5 10
      vertex 36.4982 20.065 10
      vertex 33.6956 24.4813 10
    endloop
  endfacet
  facet normal -0.248679 0.968586 0
    outer loop
      vertex 3.84132 -20.1369 0
      vertex 3.84132 -20.1369 10
      vertex 6.33485 -19.4967 0
    endloop
  endfacet
  facet normal 0 0 -1
    outer loop
      vertex 3.84132 -20.1369 0
      vertex 6.33485 -19.4967 0
      vertex 33.2664 -25 0
    endloop
  endfacet
  facet normal -0 0 1
    outer loop
      vertex 3.84132 -20.1369 10
      vertex 33.2664 -25 10
      vertex 6.33485 -19.4967 10
    endloop
  endfacet
  facet normal -0.248679 0.968586 0
    outer loop
      vertex 3.84132 -20.1369 10
      vertex 6.33485 -19.4967 10
      vertex 6.33485 -19.4967 0
    endloop
  endfacet
  facet normal 0 0 -1
    outer loop
      vertex 3.84132 20.1369 0
      vertex 33.2664 25 0
      vertex 6.33485 19.4967 0
    endloop
  endfacet
  facet normal -0.248679 -0.968586 -0
    outer loop
      vertex 3.84132 20.1369 0
      vertex 6.33485 19.4967 0
      vertex 6.33485 19.4967 10
    endloop
  endfacet
  facet normal -0.248679 -0.968586 0
    outer loop
      vertex 3.84132 20.1369 0
      vertex 6.33485 19.4967 10
      vertex 3.84132 20.1369 10
    endloop
  endfacet
  facet normal 0 0 1
    outer loop
      vertex 3.84132 20.1369 10
      vertex 6.33485 19.4967 10
      vertex 33.2664 25 10
    endloop
  endfacet
  facet normal 0.770445 -0.637507 0
    outer loop
      vertex 33.2664 -25 0
      vertex 33.6956 -24.4813 0
      vertex 33.2664 -25 10
    endloop
  endfacet
  facet normal 0.770445 -0.637507 0
    outer loop
      vertex 33.2664 -25 10
      vertex 33.6956 -24.4813 0
      vertex 33.6956 -24.4813 10
    endloop
  endfacet
  facet normal 0.770445 0.637507 0
    outer loop
      vertex 33.2664 25 0
      vertex 33.2664 25 10
      vertex 33.6956 24.4813 10
    endloop
  endfacet
  facet normal 0.770445 0.637507 0
    outer loop
      vertex 33.2664 25 0
      vertex 33.6956 24.4813 10
      vertex 33.6956 24.4813 0
    endloop
  endfacet
  facet normal 0.844334 -0.535817 0
    outer loop
      vertex 33.6956 -24.4813 0
      vertex 36.4982 -20.065 0
      vertex 33.6956 -24.4813 10
    endloop
  endfacet
  facet normal 0.844334 -0.535817 0
    outer loop
      vertex 33.6956 -24.4813 10
      vertex 36.4982 -20.065 0
      vertex 36.4982 -20.065 10
    endloop
  endfacet
  facet normal 0.844334 0.535817 0
    outer loop
      vertex 33.6956 24.4813 0
      vertex 33.6956 24.4813 10
      vertex 36.4982 20.065 10
    endloop
  endfacet
  facet normal 0.844334 0.535817 0
    outer loop
      vertex 33.6956 24.4813 0
      vertex 36.4982 20.065 10
      vertex 36.4982 20.065 0
    endloop
  endfacet
  facet normal -1 -0 0
    outer loop
      vertex 36 -15.5 0
      vertex 36 -15.5 10
      vertex 36 15.5 10
    endloop
  endfacet
  facet normal 0 0 -1
    outer loop
      vertex 36 -15.5 0
      vertex 36 15.5 0
      vertex 41.65 0 0
    endloop
  endfacet
  facet normal -1 0 0
    outer loop
      vertex 36 -15.5 0
      vertex 36 15.5 10
      vertex 36 15.5 0
    endloop
  endfacet
  facet normal 0 0 -1
    outer loop
      vertex 36 -15.5 0
      vertex 38.7252 -15.3324 0
      vertex 36.4982 -20.065 0
    endloop
  endfacet
  facet normal 0 0 -1
    outer loop
      vertex 36 -15.5 0
      vertex 40.3415 -10.3579 0
      vertex 38.7252 -15.3324 0
    endloop
  endfacet
  facet normal 0 0 -1
    outer loop
      vertex 36 -15.5 0
      vertex 41.3216 -5.22013 0
      vertex 40.3415 -10.3579 0
    endloop
  endfacet
  facet normal 0 0 -1
    outer loop
      vertex 36 -15.5 0
      vertex 41.65 0 0
      vertex 41.3216 -5.22013 0
    endloop
  endfacet
  facet normal 0 0 1
    outer loop
      vertex 36 -15.5 10
      vertex 36.4982 -20.065 10
      vertex 38.7252 -15.3324 10
    endloop
  endfacet
  facet normal 0 0 1
    outer loop
      vertex 36 -15.5 10
      vertex 38.7252 -15.3324 10
      vertex 40.3415 -10.3579 10
    endloop
  endfacet
  facet normal 0 0 1
    outer loop
      vertex 36 -15.5 10
      vertex 40.3415 -10.3579 10
      vertex 41.3216 -5.22013 10
    endloop
  endfacet
  facet normal 0 0 1
    outer loop
      vertex 36 -15.5 10
      vertex 41.3216 -5.22013 10
      vertex 41.65 0 10
    endloop
  endfacet
  facet normal 0 0 1
    outer loop
      vertex 36 -15.5 10
      vertex 41.65 0 10
      vertex 36 15.5 10
    endloop
  endfacet
  facet normal 0 0 -1
    outer loop
      vertex 36 15.5 0
      vertex 36.4982 20.065 0
      vertex 38.7252 15.3324 0
    endloop
  endfacet
  facet normal 0 0 -1
    outer loop
      vertex 36 15.5 0
      vertex 38.7252 15.3324 0
      vertex 40.3415 10.3579 0
    endloop
  endfacet
  facet normal 0 0 -1
    outer loop
      vertex 36 15.5 0
      vertex 40.3415 10.3579 0
      vertex 41.3216 5.22013 0
    endloop
  endfacet
  facet normal 0 0 -1
    outer loop
      vertex 36 15.5 0
      vertex 41.3216 5.22013 0
      vertex 41.65 0 0
    endloop
  endfacet
  facet normal -0 0 1
    outer loop
      vertex 36 15.5 10
      vertex 38.7252 15.3324 10
      vertex 36.4982 20.065 10
    endloop
  endfacet
  facet normal 0 0 1
    outer loop
      vertex 36 15.5 10
      vertex 40.3415 10.3579 10
      vertex 38.7252 15.3324 10
    endloop
  endfacet
  facet normal 0 0 1
    outer loop
      vertex 36 15.5 10
      vertex 41.3216 5.22013 10
      vertex 40.3415 10.3579 10
    endloop
  endfacet
  facet normal 0 0 1
    outer loop
      vertex 36 15.5 10
      vertex 41.65 0 10
      vertex 41.3216 5.22013 10
    endloop
  endfacet
  facet normal 0.904827 -0.42578 0
    outer loop
      vertex 36.4982 -20.065 0
      vertex 38.7252 -15.3324 0
      vertex 36.4982 -20.065 10
    endloop
  endfacet
  facet normal 0.904827 -0.42578 0
    outer loop
      vertex 36.4982 -20.065 10
      vertex 38.7252 -15.3324 0
      vertex 38.7252 -15.3324 10
    endloop
  endfacet
  facet normal 0.904827 0.42578 0
    outer loop
      vertex 36.4982 20.065 0
      vertex 36.4982 20.065 10
      vertex 38.7252 15.3324 10
    endloop
  endfacet
  facet normal 0.904827 0.42578 0
    outer loop
      vertex 36.4982 20.065 0
      vertex 38.7252 15.3324 10
      vertex 38.7252 15.3324 0
    endloop
  endfacet
  facet normal 0.951057 -0.309015 0
    outer loop
      vertex 38.7252 -15.3324 0
      vertex 40.3415 -10.3579 0
      vertex 38.7252 -15.3324 10
    endloop
  endfacet
  facet normal 0.951057 -0.309015 0
    outer loop
      vertex 38.7252 -15.3324 10
      vertex 40.3415 -10.3579 0
      vertex 40.3415 -10.3579 10
    endloop
  endfacet
  facet normal 0.951057 0.309015 0
    outer loop
      vertex 38.7252 15.3324 0
      vertex 38.7252 15.3324 10
      vertex 40.3415 10.3579 10
    endloop
  endfacet
  facet normal 0.951057 0.309015 0
    outer loop
      vertex 38.7252 15.3324 0
      vertex 40.3415 10.3579 10
      vertex 40.3415 10.3579 0
    endloop
  endfacet
  facet normal 0.982287 -0.187385 0
    outer loop
      vertex 40.3415 -10.3579 0
      vertex 41.3216 -5.22013 0
      vertex 40.3415 -10.3579 10
    endloop
  endfacet
  facet normal 0.982287 -0.187385 0
    outer loop
      vertex 40.3415 -10.3579 10
      vertex 41.3216 -5.22013 0
      vertex 41.3216 -5.22013 10
    endloop
  endfacet
  facet normal 0.982287 0.187385 0
    outer loop
      vertex 40.3415 10.3579 0
      vertex 40.3415 10.3579 10
      vertex 41.3216 5.22013 10
    endloop
  endfacet
  facet normal 0.982287 0.187385 0
    outer loop
      vertex 40.3415 10.3579 0
      vertex 41.3216 5.22013 10
      vertex 41.3216 5.22013 0
    endloop
  endfacet
  facet normal 0.998027 -0.0627862 0
    outer loop
      vertex 41.3216 -5.22013 0
      vertex 41.65 0 0
      vertex 41.3216 -5.22013 10
    endloop
  endfacet
  facet normal 0.998027 -0.0627862 0
    outer loop
      vertex 41.3216 -5.22013 10
      vertex 41.65 0 0
      vertex 41.65 0 10
    endloop
  endfacet
  facet normal 0.998027 0.0627862 0
    outer loop
      vertex 41.3216 5.22013 0
      vertex 41.3216 5.22013 10
      vertex 41.65 0 10
    endloop
  endfacet
  facet normal 0.998027 0.0627862 0
    outer loop
      vertex 41.3216 5.22013 0
      vertex 41.65 0 10
      vertex 41.65 0 0
    endloop
  endfacet
  facet normal -0.368124 0.929777 0
    outer loop
      vertex 6.33485 -19.4967 0
      vertex 6.33485 -19.4967 10
      vertex 8.72847 -18.549 0
    endloop
  endfacet
  facet normal 0 0 -1
    outer loop
      vertex 6.33485 -19.4967 0
      vertex 8.72847 -18.549 0
      vertex 33.2664 -25 0
    endloop
  endfacet
  facet normal -0 0 1
    outer loop
      vertex 6.33485 -19.4967 10
      vertex 33.2664 -25 10
      vertex 8.72847 -18.549 10
    endloop
  endfacet
  facet normal -0.368124 0.929777 0
    outer loop
      vertex 6.33485 -19.4967 10
      vertex 8.72847 -18.549 10
      vertex 8.72847 -18.549 0
    endloop
  endfacet
  facet normal 0 0 -1
    outer loop
      vertex 6.33485 19.4967 0
      vertex 33.2664 25 0
      vertex 8.72847 18.549 0
    endloop
  endfacet
  facet normal -0.368124 -0.929777 -0
    outer loop
      vertex 6.33485 19.4967 0
      vertex 8.72847 18.549 0
      vertex 8.72847 18.549 10
    endloop
  endfacet
  facet normal -0.368124 -0.929777 0
    outer loop
      vertex 6.33485 19.4967 0
      vertex 8.72847 18.549 10
      vertex 6.33485 19.4967 10
    endloop
  endfacet
  facet normal 0 0 1
    outer loop
      vertex 6.33485 19.4967 10
      vertex 8.72847 18.549 10
      vertex 33.2664 25 10
    endloop
  endfacet
  facet normal 0 0 -1
    outer loop
      vertex 8.72847 -18.549 0
      vertex 10.9844 -17.3087 0
      vertex 33.2664 -25 0
    endloop
  endfacet
  facet normal -0.481781 0.876292 0
    outer loop
      vertex 8.72847 -18.549 0
      vertex 8.72847 -18.549 10
      vertex 10.9844 -17.3087 0
    endloop
  endfacet
  facet normal -0.481781 0.876292 0
    outer loop
      vertex 8.72847 -18.549 10
      vertex 10.9844 -17.3087 10
      vertex 10.9844 -17.3087 0
    endloop
  endfacet
  facet normal -0 0 1
    outer loop
      vertex 8.72847 -18.549 10
      vertex 33.2664 -25 10
      vertex 10.9844 -17.3087 10
    endloop
  endfacet
  facet normal -0.481781 -0.876292 -0
    outer loop
      vertex 8.72847 18.549 0
      vertex 10.9844 17.3087 0
      vertex 10.9844 17.3087 10
    endloop
  endfacet
  facet normal -0.481781 -0.876292 0
    outer loop
      vertex 8.72847 18.549 0
      vertex 10.9844 17.3087 10
      vertex 8.72847 18.549 10
    endloop
  endfacet
  facet normal 0 0 -1
    outer loop
      vertex 8.72847 18.549 0
      vertex 33.2664 25 0
      vertex 10.9844 17.3087 0
    endloop
  endfacet
  facet normal 0 0 1
    outer loop
      vertex 8.72847 18.549 10
      vertex 10.9844 17.3087 10
      vertex 33.2664 25 10
    endloop
  endfacet
endsolid model
