solid model
  facet normal 0 1 0
    outer loop
      vertex -16.5 -22.295 0
      vertex -16.5 -22.295 8
      vertex -4 -22.295 0
    endloop
  endfacet
  facet normal 0 0 -1
    outer loop
      vertex -16.5 -22.295 0
      vertex -4 -22.295 0
      vertex -4 -27.295 0
    endloop
  endfacet
  facet normal 0 1 -0
    outer loop
      vertex -16.5 -22.295 8
      vertex 0 -22.295 4
      vertex -4 -22.295 0
    endloop
  endfacet
  facet normal 0 1 0
    outer loop
      vertex -16.5 -22.295 8
      vertex 16.5 -22.295 8
      vertex 0 -22.295 4
    endloop
  endfacet
  facet normal -0 0 1
    outer loop
      vertex -16.5 -22.295 8
      vertex 26.5 -27.295 8
      vertex 16.5 -22.295 8
    endloop
  endfacet
  facet normal 0 -1 0
    outer loop
      vertex -16.5 22.295 0
      vertex -4 22.295 0
      vertex -16.5 22.295 8
    endloop
  endfacet
  facet normal 0 0 -1
    outer loop
      vertex -16.5 22.295 0
      vertex -4 27.295 0
      vertex -4 22.295 0
    endloop
  endfacet
  facet normal 0 -1 0
    outer loop
      vertex -16.5 22.295 8
      vertex -4 22.295 0
      vertex 0 22.295 4
    endloop
  endfacet
  facet normal 0 -1 0
    outer loop
      vertex -16.5 22.295 8
      vertex 0 22.295 4
      vertex 16.5 22.295 8
    endloop
  endfacet
  facet normal 0 0 1
    outer loop
      vertex -16.5 22.295 8
      vertex 16.5 22.295 8
      vertex 26.5 27.295 8
    endloop
  endfacet
  facet normal 0.0523582 0.998628 0
    outer loop
      vertex -17.0226 -22.2676 0
      vertex -17.0226 -22.2676 8
      vertex -16.5 -22.295 0
    endloop
  endfacet
  facet normal 0.0523582 0.998628 -0
    outer loop
      vertex -17.0226 -22.2676 8
      vertex -16.5 -22.295 8
      vertex -16.5 -22.295 0
    endloop
  endfacet
  facet normal 0.0523582 -0.998628 0
    outer loop
      vertex -17.0226 22.2676 0
      vertex -16.5 22.295 0
      vertex -16.5 22.295 8
    endloop
  endfacet
  facet normal 0.0523582 -0.998628 0
    outer loop
      vertex -17.0226 22.2676 0
      vertex -16.5 22.295 8
      vertex -17.0226 22.2676 8
    endloop
  endfacet
  facet normal 0.156463 0.987684 0
    outer loop
      vertex -17.5396 -22.1857 0
      vertex -17.5396 -22.1857 8
      vertex -17.0226 -22.2676 0
    endloop
  endfacet
  facet normal 0.156463 0.987684 -0
    outer loop
      vertex -17.5396 -22.1857 8
      vertex -17.0226 -22.2676 8
      vertex -17.0226 -22.2676 0
    endloop
  endfacet
  facet normal 0.156463 -0.987684 0
    outer loop
      vertex -17.5396 22.1857 0
      vertex -17.0226 22.2676 0
      vertex -17.0226 22.2676 8
    endloop
  endfacet
  facet normal 0.156463 -0.987684 0
    outer loop
      vertex -17.5396 22.1857 0
      vertex -17.0226 22.2676 8
      vertex -17.5396 22.1857 8
    endloop
  endfacet
  facet normal 0.258911 0.965901 0
    outer loop
      vertex -18.0451 -22.0502 0
      vertex -18.0451 -22.0502 8
      vertex -17.5396 -22.1857 0
    endloop
  endfacet
  facet normal 0.258911 0.965901 -0
    outer loop
      vertex -18.0451 -22.0502 8
      vertex -17.5396 -22.1857 8
      vertex -17.5396 -22.1857 0
    endloop
  endfacet
  facet normal 0.258911 -0.965901 0
    outer loop
      vertex -18.0451 22.0502 0
      vertex -17.5396 22.1857 0
      vertex -17.5396 22.1857 8
    endloop
  endfacet
  facet normal 0.258911 -0.965901 0
    outer loop
      vertex -18.0451 22.0502 0
      vertex -17.5396 22.1857 8
      vertex -18.0451 22.0502 8
    endloop
  endfacet
  facet normal 0.358275 0.933616 0
    outer loop
      vertex -18.5337 -21.8627 0
      vertex -18.5337 -21.8627 8
      vertex -18.0451 -22.0502 0
    endloop
  endfacet
  facet normal 0.358275 0.933616 -0
    outer loop
      vertex -18.5337 -21.8627 8
      vertex -18.0451 -22.0502 8
      vertex -18.0451 -22.0502 0
    endloop
  endfacet
  facet normal 0.358275 -0.933616 0
    outer loop
      vertex -18.5337 21.8627 0
      vertex -18.0451 22.0502 0
      vertex -18.0451 22.0502 8
    endloop
  endfacet
  facet normal 0.358275 -0.933616 0
    outer loop
      vertex -18.5337 21.8627 0
      vertex -18.0451 22.0502 8
      vertex -18.5337 21.8627 8
    endloop
  endfacet
  facet normal 0.454003 0.891 0
    outer loop
      vertex -19 -21.6251 0
      vertex -19 -21.6251 8
      vertex -18.5337 -21.8627 0
    endloop
  endfacet
  facet normal 0.454003 0.891 -0
    outer loop
      vertex -19 -21.6251 8
      vertex -18.5337 -21.8627 8
      vertex -18.5337 -21.8627 0
    endloop
  endfacet
  facet normal 0.454003 -0.891 0
    outer loop
      vertex -19 21.6251 0
      vertex -18.5337 21.8627 0
      vertex -18.5337 21.8627 8
    endloop
  endfacet
  facet normal 0.454003 -0.891 0
    outer loop
      vertex -19 21.6251 0
      vertex -18.5337 21.8627 8
      vertex -19 21.6251 8
    endloop
  endfacet
  facet normal 0.54474 0.838605 0
    outer loop
      vertex -19.4389 -21.34 0
      vertex -19.4389 -21.34 8
      vertex -19 -21.6251 0
    endloop
  endfacet
  facet normal 0.54474 0.838605 -0
    outer loop
      vertex -19.4389 -21.34 8
      vertex -19 -21.6251 8
      vertex -19 -21.6251 0
    endloop
  endfacet
  facet normal 0.54474 -0.838605 0
    outer loop
      vertex -19.4389 21.34 0
      vertex -19 21.6251 0
      vertex -19 21.6251 8
    endloop
  endfacet
  facet normal 0.54474 -0.838605 0
    outer loop
      vertex -19.4389 21.34 0
      vertex -19 21.6251 8
      vertex -19.4389 21.34 8
    endloop
  endfacet
  facet normal 0.629182 0.777258 0
    outer loop
      vertex -19.8457 -21.0107 0
      vertex -19.8457 -21.0107 8
      vertex -19.4389 -21.34 0
    endloop
  endfacet
  facet normal 0.629182 0.777258 -0
    outer loop
      vertex -19.8457 -21.0107 8
      vertex -19.4389 -21.34 8
      vertex -19.4389 -21.34 0
    endloop
  endfacet
  facet normal 0.629182 -0.777258 0
    outer loop
      vertex -19.8457 21.0107 0
      vertex -19.4389 21.34 0
      vertex -19.4389 21.34 8
    endloop
  endfacet
  facet normal 0.629182 -0.777258 0
    outer loop
      vertex -19.8457 21.0107 0
      vertex -19.4389 21.34 8
      vertex -19.8457 21.0107 8
    endloop
  endfacet
  facet normal 0.707202 0.707011 0
    outer loop
      vertex -20.2157 -20.6406 0
      vertex -19.8457 -21.0107 8
      vertex -19.8457 -21.0107 0
    endloop
  endfacet
  facet normal 0.707202 0.707011 0
    outer loop
      vertex -20.2157 -20.6406 0
      vertex -20.2157 -20.6406 8
      vertex -19.8457 -21.0107 8
    endloop
  endfacet
  facet normal 0.707202 -0.707011 0
    outer loop
      vertex -20.2157 20.6406 0
      vertex -19.8457 21.0107 0
      vertex -20.2157 20.6406 8
    endloop
  endfacet
  facet normal 0.707202 -0.707011 0
    outer loop
      vertex -20.2157 20.6406 8
      vertex -19.8457 21.0107 0
      vertex -19.8457 21.0107 8
    endloop
  endfacet
  facet normal 0.777089 0.629391 0
    outer loop
      vertex -20.5451 -20.2339 0
      vertex -20.2157 -20.6406 8
      vertex -20.2157 -20.6406 0
    endloop
  endfacet
  facet normal 0.777089 0.629391 0
    outer loop
      vertex -20.5451 -20.2339 0
      vertex -20.5451 -20.2339 8
      vertex -20.2157 -20.6406 8
    endloop
  endfacet
  facet normal 0.777089 -0.629391 0
    outer loop
      vertex -20.5451 20.2339 0
      vertex -20.2157 20.6406 0
      vertex -20.5451 20.2339 8
    endloop
  endfacet
  facet normal 0.777089 -0.629391 0
    outer loop
      vertex -20.5451 20.2339 8
      vertex -20.2157 20.6406 0
      vertex -20.2157 20.6406 8
    endloop
  endfacet
  facet normal 0.838692 0.544605 0
    outer loop
      vertex -20.8301 -19.795 0
      vertex -20.5451 -20.2339 8
      vertex -20.5451 -20.2339 0
    endloop
  endfacet
  facet normal 0.838692 0.544605 0
    outer loop
      vertex -20.8301 -19.795 0
      vertex -20.8301 -19.795 8
      vertex -20.5451 -20.2339 8
    endloop
  endfacet
  facet normal 0.838692 -0.544605 0
    outer loop
      vertex -20.8301 19.795 0
      vertex -20.5451 20.2339 0
      vertex -20.8301 19.795 8
    endloop
  endfacet
  facet normal 0.838692 -0.544605 0
    outer loop
      vertex -20.8301 19.795 8
      vertex -20.5451 20.2339 0
      vertex -20.5451 20.2339 8
    endloop
  endfacet
  facet normal 0.891039 0.453926 0
    outer loop
      vertex -21.0677 -19.3286 0
      vertex -20.8301 -19.795 8
      vertex -20.8301 -19.795 0
    endloop
  endfacet
  facet normal 0.891039 0.453926 0
    outer loop
      vertex -21.0677 -19.3286 0
      vertex -21.0677 -19.3286 8
      vertex -20.8301 -19.795 8
    endloop
  endfacet
  facet normal 0.891039 -0.453926 0
    outer loop
      vertex -21.0677 19.3286 0
      vertex -20.8301 19.795 0
      vertex -21.0677 19.3286 8
    endloop
  endfacet
  facet normal 0.891039 -0.453926 0
    outer loop
      vertex -21.0677 19.3286 8
      vertex -20.8301 19.795 0
      vertex -20.8301 19.795 8
    endloop
  endfacet
  facet normal 0.933552 0.358441 0
    outer loop
      vertex -21.2553 -18.84 0
      vertex -21.0677 -19.3286 8
      vertex -21.0677 -19.3286 0
    endloop
  endfacet
  facet normal 0.933552 0.358441 0
    outer loop
      vertex -21.2553 -18.84 0
      vertex -21.2553 -18.84 8
      vertex -21.0677 -19.3286 8
    endloop
  endfacet
  facet normal 0.933552 -0.358441 0
    outer loop
      vertex -21.2553 18.84 0
      vertex -21.0677 19.3286 0
      vertex -21.2553 18.84 8
    endloop
  endfacet
  facet normal 0.933552 -0.358441 0
    outer loop
      vertex -21.2553 18.84 8
      vertex -21.0677 19.3286 0
      vertex -21.0677 19.3286 8
    endloop
  endfacet
  facet normal 0.965949 0.258733 0
    outer loop
      vertex -21.3907 -18.3345 0
      vertex -21.2553 -18.84 8
      vertex -21.2553 -18.84 0
    endloop
  endfacet
  facet normal 0.965949 0.258733 0
    outer loop
      vertex -21.3907 -18.3345 0
      vertex -21.3907 -18.3345 8
      vertex -21.2553 -18.84 8
    endloop
  endfacet
  facet normal 0.965949 -0.258733 0
    outer loop
      vertex -21.3907 18.3345 0
      vertex -21.2553 18.84 0
      vertex -21.3907 18.3345 8
    endloop
  endfacet
  facet normal 0.965949 -0.258733 0
    outer loop
      vertex -21.3907 18.3345 8
      vertex -21.2553 18.84 0
      vertex -21.2553 18.84 8
    endloop
  endfacet
  facet normal 0.987679 0.156492 0
    outer loop
      vertex -21.4726 -17.8176 0
      vertex -21.3907 -18.3345 8
      vertex -21.3907 -18.3345 0
    endloop
  endfacet
  facet normal 0.987679 0.156492 0
    outer loop
      vertex -21.4726 -17.8176 0
      vertex -21.4726 -17.8176 8
      vertex -21.3907 -18.3345 8
    endloop
  endfacet
  facet normal 0.987679 -0.156492 0
    outer loop
      vertex -21.4726 17.8176 0
      vertex -21.3907 18.3345 0
      vertex -21.4726 17.8176 8
    endloop
  endfacet
  facet normal 0.987679 -0.156492 0
    outer loop
      vertex -21.4726 17.8176 8
      vertex -21.3907 18.3345 0
      vertex -21.3907 18.3345 8
    endloop
  endfacet
  facet normal 0.998628 0.0523582 0
    outer loop
      vertex -21.5 -17.295 0
      vertex -21.4726 -17.8176 8
      vertex -21.4726 -17.8176 0
    endloop
  endfacet
  facet normal 0.998628 0.0523582 0
    outer loop
      vertex -21.5 -17.295 0
      vertex -21.5 -17.295 8
      vertex -21.4726 -17.8176 8
    endloop
  endfacet
  facet normal 1 0 0
    outer loop
      vertex -21.5 -17.295 0
      vertex -21.5 -4 8
      vertex -21.5 -17.295 8
    endloop
  endfacet
  facet normal 1 0 0
    outer loop
      vertex -21.5 -17.295 0
      vertex -21.5 0 4
      vertex -21.5 -4 8
    endloop
  endfacet
  facet normal 1 0 0
    outer loop
      vertex -21.5 -17.295 0
      vertex -21.5 17.295 0
      vertex -21.5 0 4
    endloop
  endfacet
  facet normal 1 -0 0
    outer loop
      vertex -21.5 0 4
      vertex -21.5 17.295 0
      vertex -21.5 4 8
    endloop
  endfacet
  facet normal 0.998628 -0.0523582 0
    outer loop
      vertex -21.5 17.295 0
      vertex -21.4726 17.8176 0
      vertex -21.5 17.295 8
    endloop
  endfacet
  facet normal 0.998628 -0.0523582 0
    outer loop
      vertex -21.5 17.295 8
      vertex -21.4726 17.8176 0
      vertex -21.4726 17.8176 8
    endloop
  endfacet
  facet normal 1 -0 0
    outer loop
      vertex -21.5 4 8
      vertex -21.5 17.295 0
      vertex -21.5 17.295 8
    endloop
  endfacet
  facet normal 0 0 -1
    outer loop
      vertex -26.5 -27.295 0
      vertex -16.5 -22.295 0
      vertex -4 -27.295 0
    endloop
  endfacet
  facet normal -0 0 -1
    outer loop
      vertex -26.5 -27.295 0
      vertex -17.0226 -22.2676 0
      vertex -16.5 -22.295 0
    endloop
  endfacet
  facet normal -0 0 -1
    outer loop
      vertex -26.5 -27.295 0
      vertex -17.5396 -22.1857 0
      vertex -17.0226 -22.2676 0
    endloop
  endfacet
  facet normal -0 0 -1
    outer loop
      vertex -26.5 -27.295 0
      vertex -18.0451 -22.0502 0
      vertex -17.5396 -22.1857 0
    endloop
  endfacet
  facet normal -0 0 -1
    outer loop
      vertex -26.5 -27.295 0
      vertex -18.5337 -21.8627 0
      vertex -18.0451 -22.0502 0
    endloop
  endfacet
  facet normal -0 0 -1
    outer loop
      vertex -26.5 -27.295 0
      vertex -19 -21.6251 0
      vertex -18.5337 -21.8627 0
    endloop
  endfacet
  facet normal -0 0 -1
    outer loop
      vertex -26.5 -27.295 0
      vertex -19.4389 -21.34 0
      vertex -19 -21.6251 0
    endloop
  endfacet
  facet normal -0 0 -1
    outer loop
      vertex -26.5 -27.295 0
      vertex -19.8457 -21.0107 0
      vertex -19.4389 -21.34 0
    endloop
  endfacet
  facet normal -0 0 -1
    outer loop
      vertex -26.5 -27.295 0
      vertex -20.2157 -20.6406 0
      vertex -19.8457 -21.0107 0
    endloop
  endfacet
  facet normal -0 0 -1
    outer loop
      vertex -26.5 -27.295 0
      vertex -20.5451 -20.2339 0
      vertex -20.2157 -20.6406 0
    endloop
  endfacet
  facet normal -0 0 -1
    outer loop
      vertex -26.5 -27.295 0
      vertex -20.8301 -19.795 0
      vertex -20.5451 -20.2339 0
    endloop
  endfacet
  facet normal -0 0 -1
    outer loop
      vertex -26.5 -27.295 0
      vertex -21.0677 -19.3286 0
      vertex -20.8301 -19.795 0
    endloop
  endfacet
  facet normal -0 0 -1
    outer loop
      vertex -26.5 -27.295 0
      vertex -21.2553 -18.84 0
      vertex -21.0677 -19.3286 0
    endloop
  endfacet
  facet normal -0 0 -1
    outer loop
      vertex -26.5 -27.295 0
      vertex -21.3907 -18.3345 0
      vertex -21.2553 -18.84 0
    endloop
  endfacet
  facet normal -0 0 -1
    outer loop
      vertex -26.5 -27.295 0
      vertex -21.4726 -17.8176 0
      vertex -21.3907 -18.3345 0
    endloop
  endfacet
  facet normal -0 0 -1
    outer loop
      vertex -26.5 -27.295 0
      vertex -21.5 -17.295 0
      vertex -21.4726 -17.8176 0
    endloop
  endfacet
  facet normal -0 0 -1
    outer loop
      vertex -26.5 -27.295 0
      vertex -21.5 17.295 0
      vertex -21.5 -17.295 0
    endloop
  endfacet
  facet normal -1 -0 0
    outer loop
      vertex -26.5 -27.295 0
      vertex -26.5 -27.295 8
      vertex -26.5 -4 8
    endloop
  endfacet
  facet normal -1 0 0
    outer loop
      vertex -26.5 -27.295 0
      vertex -26.5 -4 8
      vertex -26.5 0 4
    endloop
  endfacet
  facet normal -1 0 0
    outer loop
      vertex -26.5 -27.295 0
      vertex -26.5 0 4
      vertex -26.5 27.295 0
    endloop
  endfacet
  facet normal 0 0 -1
    outer loop
      vertex -26.5 -27.295 0
      vertex -26.5 27.295 0
      vertex -21.5 17.295 0
    endloop
  endfacet
  facet normal 0 -1 0
    outer loop
      vertex -26.5 -27.295 0
      vertex -4 -27.295 0
      vertex -26.5 -27.295 8
    endloop
  endfacet
  facet normal 0 0 1
    outer loop
      vertex -26.5 -27.295 8
      vertex -16.5 -22.295 8
      vertex -17.0226 -22.2676 8
    endloop
  endfacet
  facet normal 0 0 1
    outer loop
      vertex -26.5 -27.295 8
      vertex -17.0226 -22.2676 8
      vertex -17.5396 -22.1857 8
    endloop
  endfacet
  facet normal 0 0 1
    outer loop
      vertex -26.5 -27.295 8
      vertex -17.5396 -22.1857 8
      vertex -18.0451 -22.0502 8
    endloop
  endfacet
  facet normal 0 0 1
    outer loop
      vertex -26.5 -27.295 8
      vertex -18.0451 -22.0502 8
      vertex -18.5337 -21.8627 8
    endloop
  endfacet
  facet normal 0 0 1
    outer loop
      vertex -26.5 -27.295 8
      vertex -18.5337 -21.8627 8
      vertex -19 -21.6251 8
    endloop
  endfacet
  facet normal 0 0 1
    outer loop
      vertex -26.5 -27.295 8
      vertex -19 -21.6251 8
      vertex -19.4389 -21.34 8
    endloop
  endfacet
  facet normal 0 0 1
    outer loop
      vertex -26.5 -27.295 8
      vertex -19.4389 -21.34 8
      vertex -19.8457 -21.0107 8
    endloop
  endfacet
  facet normal 0 0 1
    outer loop
      vertex -26.5 -27.295 8
      vertex -19.8457 -21.0107 8
      vertex -20.2157 -20.6406 8
    endloop
  endfacet
  facet normal 0 0 1
    outer loop
      vertex -26.5 -27.295 8
      vertex -20.2157 -20.6406 8
      vertex -20.5451 -20.2339 8
    endloop
  endfacet
  facet normal 0 0 1
    outer loop
      vertex -26.5 -27.295 8
      vertex -20.5451 -20.2339 8
      vertex -20.8301 -19.795 8
    endloop
  endfacet
  facet normal 0 0 1
    outer loop
      vertex -26.5 -27.295 8
      vertex -20.8301 -19.795 8
      vertex -21.0677 -19.3286 8
    endloop
  endfacet
  facet normal 0 0 1
    outer loop
      vertex -26.5 -27.295 8
      vertex -21.0677 -19.3286 8
      vertex -21.2553 -18.84 8
    endloop
  endfacet
  facet normal 0 0 1
    outer loop
      vertex -26.5 -27.295 8
      vertex -21.2553 -18.84 8
      vertex -21.3907 -18.3345 8
    endloop
  endfacet
  facet normal 0 0 1
    outer loop
      vertex -26.5 -27.295 8
      vertex -21.3907 -18.3345 8
      vertex -21.4726 -17.8176 8
    endloop
  endfacet
  facet normal 0 0 1
    outer loop
      vertex -26.5 -27.295 8
      vertex -21.4726 -17.8176 8
      vertex -21.5 -17.295 8
    endloop
  endfacet
  facet normal 0 0 1
    outer loop
      vertex -26.5 -27.295 8
      vertex -21.5 -17.295 8
      vertex -26.5 -4 8
    endloop
  endfacet
  facet normal 0 -1 0
    outer loop
      vertex -26.5 -27.295 8
      vertex -4 -27.295 0
      vertex 0 -27.295 4
    endloop
  endfacet
  facet normal 0 -1 0
    outer loop
      vertex -26.5 -27.295 8
      vertex 0 -27.295 4
      vertex 26.5 -27.295 8
    endloop
  endfacet
  facet normal 0 0 1
    outer loop
      vertex -26.5 -27.295 8
      vertex 26.5 -27.295 8
      vertex -16.5 -22.295 8
    endloop
  endfacet
  facet normal 0 0 1
    outer loop
      vertex -26.5 -4 8
      vertex -21.5 -17.295 8
      vertex -21.5 -4 8
    endloop
  endfacet
  facet normal 0 0.707107 0.707107
    outer loop
      vertex -26.5 -4 8
      vertex -21.5 -4 8
      vertex -21.5 0 4
    endloop
  endfacet
  facet normal 0 0.707107 0.707107
    outer loop
      vertex -26.5 -4 8
      vertex -21.5 0 4
      vertex -26.5 0 4
    endloop
  endfacet
  facet normal 0 -0.707107 0.707107
    outer loop
      vertex -26.5 0 4
      vertex -21.5 0 4
      vertex -21.5 4 8
    endloop
  endfacet
  facet normal 0 -0.707107 0.707107
    outer loop
      vertex -26.5 0 4
      vertex -21.5 4 8
      vertex -26.5 4 8
    endloop
  endfacet
  facet normal -1 0 0
    outer loop
      vertex -26.5 0 4
      vertex -26.5 4 8
      vertex -26.5 27.295 0
    endloop
  endfacet
  facet normal 0 0 -1
    outer loop
      vertex -26.5 27.295 0
      vertex -16.5 22.295 0
      vertex -17.0226 22.2676 0
    endloop
  endfacet
  facet normal 0 0 -1
    outer loop
      vertex -26.5 27.295 0
      vertex -17.0226 22.2676 0
      vertex -17.5396 22.1857 0
    endloop
  endfacet
  facet normal 0 0 -1
    outer loop
      vertex -26.5 27.295 0
      vertex -17.5396 22.1857 0
      vertex -18.0451 22.0502 0
    endloop
  endfacet
  facet normal 0 0 -1
    outer loop
      vertex -26.5 27.295 0
      vertex -18.0451 22.0502 0
      vertex -18.5337 21.8627 0
    endloop
  endfacet
  facet normal 0 0 -1
    outer loop
      vertex -26.5 27.295 0
      vertex -18.5337 21.8627 0
      vertex -19 21.6251 0
    endloop
  endfacet
  facet normal 0 0 -1
    outer loop
      vertex -26.5 27.295 0
      vertex -19 21.6251 0
      vertex -19.4389 21.34 0
    endloop
  endfacet
  facet normal 0 0 -1
    outer loop
      vertex -26.5 27.295 0
      vertex -19.4389 21.34 0
      vertex -19.8457 21.0107 0
    endloop
  endfacet
  facet normal 0 0 -1
    outer loop
      vertex -26.5 27.295 0
      vertex -19.8457 21.0107 0
      vertex -20.2157 20.6406 0
    endloop
  endfacet
  facet normal 0 0 -1
    outer loop
      vertex -26.5 27.295 0
      vertex -20.2157 20.6406 0
      vertex -20.5451 20.2339 0
    endloop
  endfacet
  facet normal 0 0 -1
    outer loop
      vertex -26.5 27.295 0
      vertex -20.5451 20.2339 0
      vertex -20.8301 19.795 0
    endloop
  endfacet
  facet normal 0 0 -1
    outer loop
      vertex -26.5 27.295 0
      vertex -20.8301 19.795 0
      vertex -21.0677 19.3286 0
    endloop
  endfacet
  facet normal 0 0 -1
    outer loop
      vertex -26.5 27.295 0
      vertex -21.0677 19.3286 0
      vertex -21.2553 18.84 0
    endloop
  endfacet
  facet normal 0 0 -1
    outer loop
      vertex -26.5 27.295 0
      vertex -21.2553 18.84 0
      vertex -21.3907 18.3345 0
    endloop
  endfacet
  facet normal 0 0 -1
    outer loop
      vertex -26.5 27.295 0
      vertex -21.3907 18.3345 0
      vertex -21.4726 17.8176 0
    endloop
  endfacet
  facet normal 0 0 -1
    outer loop
      vertex -26.5 27.295 0
      vertex -21.4726 17.8176 0
      vertex -21.5 17.295 0
    endloop
  endfacet
  facet normal 0 1 0
    outer loop
      vertex -26.5 27.295 0
      vertex -26.5 27.295 8
      vertex -4 27.295 0
    endloop
  endfacet
  facet normal 0 0 -1
    outer loop
      vertex -26.5 27.295 0
      vertex -4 27.295 0
      vertex -16.5 22.295 0
    endloop
  endfacet
  facet normal -0 0 1
    outer loop
      vertex -26.5 27.295 8
      vertex -16.5 22.295 8
      vertex 26.5 27.295 8
    endloop
  endfacet
  facet normal 0 0 1
    outer loop
      vertex -26.5 27.295 8
      vertex -17.0226 22.2676 8
      vertex -16.5 22.295 8
    endloop
  endfacet
  facet normal 0 0 1
    outer loop
      vertex -26.5 27.295 8
      vertex -17.5396 22.1857 8
      vertex -17.0226 22.2676 8
    endloop
  endfacet
  facet normal 0 0 1
    outer loop
      vertex -26.5 27.295 8
      vertex -18.0451 22.0502 8
      vertex -17.5396 22.1857 8
    endloop
  endfacet
  facet normal 0 0 1
    outer loop
      vertex -26.5 27.295 8
      vertex -18.5337 21.8627 8
      vertex -18.0451 22.0502 8
    endloop
  endfacet
  facet normal 0 0 1
    outer loop
      vertex -26.5 27.295 8
      vertex -19 21.6251 8
      vertex -18.5337 21.8627 8
    endloop
  endfacet
  facet normal 0 0 1
    outer loop
      vertex -26.5 27.295 8
      vertex -19.4389 21.34 8
      vertex -19 21.6251 8
    endloop
  endfacet
  facet normal 0 0 1
    outer loop
      vertex -26.5 27.295 8
      vertex -19.8457 21.0107 8
      vertex -19.4389 21.34 8
    endloop
  endfacet
  facet normal 0 0 1
    outer loop
      vertex -26.5 27.295 8
      vertex -20.2157 20.6406 8
      vertex -19.8457 21.0107 8
    endloop
  endfacet
  facet normal 0 0 1
    outer loop
      vertex -26.5 27.295 8
      vertex -20.5451 20.2339 8
      vertex -20.2157 20.6406 8
    endloop
  endfacet
  facet normal 0 0 1
    outer loop
      vertex -26.5 27.295 8
      vertex -20.8301 19.795 8
      vertex -20.5451 20.2339 8
    endloop
  endfacet
  facet normal 0 0 1
    outer loop
      vertex -26.5 27.295 8
      vertex -21.0677 19.3286 8
      vertex -20.8301 19.795 8
    endloop
  endfacet
  facet normal 0 0 1
    outer loop
      vertex -26.5 27.295 8
      vertex -21.2553 18.84 8
      vertex -21.0677 19.3286 8
    endloop
  endfacet
  facet normal 0 0 1
    outer loop
      vertex -26.5 27.295 8
      vertex -21.3907 18.3345 8
      vertex -21.2553 18.84 8
    endloop
  endfacet
  facet normal 0 0 1
    outer loop
      vertex -26.5 27.295 8
      vertex -21.4726 17.8176 8
      vertex -21.3907 18.3345 8
    endloop
  endfacet
  facet normal 0 0 1
    outer loop
      vertex -26.5 27.295 8
      vertex -21.5 17.295 8
      vertex -21.4726 17.8176 8
    endloop
  endfacet
  facet normal 0 1 -0
    outer loop
      vertex -26.5 27.295 8
      vertex 0 27.295 4
      vertex -4 27.295 0
    endloop
  endfacet
  facet normal 0 1 0
    outer loop
      vertex -26.5 27.295 8
      vertex 26.5 27.295 8
      vertex 0 27.295 4
    endloop
  endfacet
  facet normal 0 0 1
    outer loop
      vertex -26.5 4 8
      vertex -21.5 17.295 8
      vertex -26.5 27.295 8
    endloop
  endfacet
  facet normal 0 0 1
    outer loop
      vertex -26.5 4 8
      vertex -21.5 4 8
      vertex -21.5 17.295 8
    endloop
  endfacet
  facet normal -1 0 0
    outer loop
      vertex -26.5 4 8
      vertex -26.5 27.295 8
      vertex -26.5 27.295 0
    endloop
  endfacet
  facet normal 0.707107 0 -0.707107
    outer loop
      vertex -4 -22.295 0
      vertex 0 -22.295 4
      vertex 0 -27.295 4
    endloop
  endfacet
  facet normal 0.707107 0 -0.707107
    outer loop
      vertex -4 -27.295 0
      vertex -4 -22.295 0
      vertex 0 -27.295 4
    endloop
  endfacet
  facet normal 0.707107 0 -0.707107
    outer loop
      vertex -4 22.295 0
      vertex -4 27.295 0
      vertex 0 22.295 4
    endloop
  endfacet
  facet normal 0.707107 0 -0.707107
    outer loop
      vertex -4 27.295 0
      vertex 0 27.295 4
      vertex 0 22.295 4
    endloop
  endfacet
  facet normal 0 1 0
    outer loop
      vertex 0 -22.295 4
      vertex 16.5 -22.295 8
      vertex 4 -22.295 0
    endloop
  endfacet
  facet normal -0.707107 0 -0.707107
    outer loop
      vertex 0 -22.295 4
      vertex 4 -22.295 0
      vertex 4 -27.295 0
    endloop
  endfacet
  facet normal -0.707107 -0 -0.707107
    outer loop
      vertex 0 -27.295 4
      vertex 0 -22.295 4
      vertex 4 -27.295 0
    endloop
  endfacet
  facet normal 0 -1 0
    outer loop
      vertex 0 -27.295 4
      vertex 4 -27.295 0
      vertex 26.5 -27.295 8
    endloop
  endfacet
  facet normal -0.707107 -0 -0.707107
    outer loop
      vertex 0 22.295 4
      vertex 0 27.295 4
      vertex 4 22.295 0
    endloop
  endfacet
  facet normal 0 -1 0
    outer loop
      vertex 0 22.295 4
      vertex 4 22.295 0
      vertex 16.5 22.295 8
    endloop
  endfacet
  facet normal 0 1 0
    outer loop
      vertex 0 27.295 4
      vertex 26.5 27.295 8
      vertex 4 27.295 0
    endloop
  endfacet
  facet normal -0.707107 0 -0.707107
    outer loop
      vertex 0 27.295 4
      vertex 4 27.295 0
      vertex 4 22.295 0
    endloop
  endfacet
  facet normal -0.0523582 0.998628 0
    outer loop
      vertex 16.5 -22.295 0
      vertex 16.5 -22.295 8
      vertex 17.0226 -22.2676 0
    endloop
  endfacet
  facet normal 0 0 -1
    outer loop
      vertex 16.5 -22.295 0
      vertex 17.0226 -22.2676 0
      vertex 26.5 -27.295 0
    endloop
  endfacet
  facet normal -0.0523582 0.998628 0
    outer loop
      vertex 16.5 -22.295 8
      vertex 17.0226 -22.2676 8
      vertex 17.0226 -22.2676 0
    endloop
  endfacet
  facet normal -0 0 1
    outer loop
      vertex 16.5 -22.295 8
      vertex 26.5 -27.295 8
      vertex 17.0226 -22.2676 8
    endloop
  endfacet
  facet normal -0.0523582 -0.998628 -0
    outer loop
      vertex 16.5 22.295 0
      vertex 17.0226 22.2676 0
      vertex 17.0226 22.2676 8
    endloop
  endfacet
  facet normal -0.0523582 -0.998628 0
    outer loop
      vertex 16.5 22.295 0
      vertex 17.0226 22.2676 8
      vertex 16.5 22.295 8
    endloop
  endfacet
  facet normal 0 0 -1
    outer loop
      vertex 16.5 22.295 0
      vertex 26.5 27.295 0
      vertex 17.0226 22.2676 0
    endloop
  endfacet
  facet normal 0 0 1
    outer loop
      vertex 16.5 22.295 8
      vertex 17.0226 22.2676 8
      vertex 26.5 27.295 8
    endloop
  endfacet
  facet normal -0.156463 0.987684 0
    outer loop
      vertex 17.0226 -22.2676 0
      vertex 17.0226 -22.2676 8
      vertex 17.5396 -22.1857 0
    endloop
  endfacet
  facet normal 0 0 -1
    outer loop
      vertex 17.0226 -22.2676 0
      vertex 17.5396 -22.1857 0
      vertex 26.5 -27.295 0
    endloop
  endfacet
  facet normal -0.156463 0.987684 0
    outer loop
      vertex 17.0226 -22.2676 8
      vertex 17.5396 -22.1857 8
      vertex 17.5396 -22.1857 0
    endloop
  endfacet
  facet normal -0 0 1
    outer loop
      vertex 17.0226 -22.2676 8
      vertex 26.5 -27.295 8
      vertex 17.5396 -22.1857 8
    endloop
  endfacet
  facet normal -0.156463 -0.987684 -0
    outer loop
      vertex 17.0226 22.2676 0
      vertex 17.5396 22.1857 0
      vertex 17.5396 22.1857 8
    endloop
  endfacet
  facet normal -0.156463 -0.987684 0
    outer loop
      vertex 17.0226 22.2676 0
      vertex 17.5396 22.1857 8
      vertex 17.0226 22.2676 8
    endloop
  endfacet
  facet normal 0 0 -1
    outer loop
      vertex 17.0226 22.2676 0
      vertex 26.5 27.295 0
      vertex 17.5396 22.1857 0
    endloop
  endfacet
  facet normal 0 0 1
    outer loop
      vertex 17.0226 22.2676 8
      vertex 17.5396 22.1857 8
      vertex 26.5 27.295 8
    endloop
  endfacet
  facet normal -0.258911 0.965901 0
    outer loop
      vertex 17.5396 -22.1857 0
      vertex 17.5396 -22.1857 8
      vertex 18.0451 -22.0502 0
    endloop
  endfacet
  facet normal 0 0 -1
    outer loop
      vertex 17.5396 -22.1857 0
      vertex 18.0451 -22.0502 0
      vertex 26.5 -27.295 0
    endloop
  endfacet
  facet normal -0.258911 0.965901 0
    outer loop
      vertex 17.5396 -22.1857 8
      vertex 18.0451 -22.0502 8
      vertex 18.0451 -22.0502 0
    endloop
  endfacet
  facet normal -0 0 1
    outer loop
      vertex 17.5396 -22.1857 8
      vertex 26.5 -27.295 8
      vertex 18.0451 -22.0502 8
    endloop
  endfacet
  facet normal -0.258911 -0.965901 -0
    outer loop
      vertex 17.5396 22.1857 0
      vertex 18.0451 22.0502 0
      vertex 18.0451 22.0502 8
    endloop
  endfacet
  facet normal -0.258911 -0.965901 0
    outer loop
      vertex 17.5396 22.1857 0
      vertex 18.0451 22.0502 8
      vertex 17.5396 22.1857 8
    endloop
  endfacet
  facet normal 0 0 -1
    outer loop
      vertex 17.5396 22.1857 0
      vertex 26.5 27.295 0
      vertex 18.0451 22.0502 0
    endloop
  endfacet
  facet normal 0 0 1
    outer loop
      vertex 17.5396 22.1857 8
      vertex 18.0451 22.0502 8
      vertex 26.5 27.295 8
    endloop
  endfacet
  facet normal -0.358275 0.933616 0
    outer loop
      vertex 18.0451 -22.0502 0
      vertex 18.0451 -22.0502 8
      vertex 18.5337 -21.8627 0
    endloop
  endfacet
  facet normal 0 0 -1
    outer loop
      vertex 18.0451 -22.0502 0
      vertex 18.5337 -21.8627 0
      vertex 26.5 -27.295 0
    endloop
  endfacet
  facet normal -0.358275 0.933616 0
    outer loop
      vertex 18.0451 -22.0502 8
      vertex 18.5337 -21.8627 8
      vertex 18.5337 -21.8627 0
    endloop
  endfacet
  facet normal -0 0 1
    outer loop
      vertex 18.0451 -22.0502 8
      vertex 26.5 -27.295 8
      vertex 18.5337 -21.8627 8
    endloop
  endfacet
  facet normal -0.358275 -0.933616 -0
    outer loop
      vertex 18.0451 22.0502 0
      vertex 18.5337 21.8627 0
      vertex 18.5337 21.8627 8
    endloop
  endfacet
  facet normal -0.358275 -0.933616 0
    outer loop
      vertex 18.0451 22.0502 0
      vertex 18.5337 21.8627 8
      vertex 18.0451 22.0502 8
    endloop
  endfacet
  facet normal 0 0 -1
    outer loop
      vertex 18.0451 22.0502 0
      vertex 26.5 27.295 0
      vertex 18.5337 21.8627 0
    endloop
  endfacet
  facet normal 0 0 1
    outer loop
      vertex 18.0451 22.0502 8
      vertex 18.5337 21.8627 8
      vertex 26.5 27.295 8
    endloop
  endfacet
  facet normal -0.454003 0.891 0
    outer loop
      vertex 18.5337 -21.8627 0
      vertex 18.5337 -21.8627 8
      vertex 19 -21.6251 0
    endloop
  endfacet
  facet normal 0 0 -1
    outer loop
      vertex 18.5337 -21.8627 0
      vertex 19 -21.6251 0
      vertex 26.5 -27.295 0
    endloop
  endfacet
  facet normal -0.454003 0.891 0
    outer loop
      vertex 18.5337 -21.8627 8
      vertex 19 -21.6251 8
      vertex 19 -21.6251 0
    endloop
  endfacet
  facet normal -0 0 1
    outer loop
      vertex 18.5337 -21.8627 8
      vertex 26.5 -27.295 8
      vertex 19 -21.6251 8
    endloop
  endfacet
  facet normal -0.454003 -0.891 -0
    outer loop
      vertex 18.5337 21.8627 0
      vertex 19 21.6251 0
      vertex 19 21.6251 8
    endloop
  endfacet
  facet normal -0.454003 -0.891 0
    outer loop
      vertex 18.5337 21.8627 0
      vertex 19 21.6251 8
      vertex 18.5337 21.8627 8
    endloop
  endfacet
  facet normal 0 0 -1
    outer loop
      vertex 18.5337 21.8627 0
      vertex 26.5 27.295 0
      vertex 19 21.6251 0
    endloop
  endfacet
  facet normal 0 0 1
    outer loop
      vertex 18.5337 21.8627 8
      vertex 19 21.6251 8
      vertex 26.5 27.295 8
    endloop
  endfacet
  facet normal -0.54474 0.838605 0
    outer loop
      vertex 19 -21.6251 0
      vertex 19 -21.6251 8
      vertex 19.4389 -21.34 0
    endloop
  endfacet
  facet normal 0 0 -1
    outer loop
      vertex 19 -21.6251 0
      vertex 19.4389 -21.34 0
      vertex 26.5 -27.295 0
    endloop
  endfacet
  facet normal -0.54474 0.838605 0
    outer loop
      vertex 19 -21.6251 8
      vertex 19.4389 -21.34 8
      vertex 19.4389 -21.34 0
    endloop
  endfacet
  facet normal -0 0 1
    outer loop
      vertex 19 -21.6251 8
      vertex 26.5 -27.295 8
      vertex 19.4389 -21.34 8
    endloop
  endfacet
  facet normal -0.54474 -0.838605 -0
    outer loop
      vertex 19 21.6251 0
      vertex 19.4389 21.34 0
      vertex 19.4389 21.34 8
    endloop
  endfacet
  facet normal -0.54474 -0.838605 0
    outer loop
      vertex 19 21.6251 0
      vertex 19.4389 21.34 8
      vertex 19 21.6251 8
    endloop
  endfacet
  facet normal 0 0 -1
    outer loop
      vertex 19 21.6251 0
      vertex 26.5 27.295 0
      vertex 19.4389 21.34 0
    endloop
  endfacet
  facet normal 0 0 1
    outer loop
      vertex 19 21.6251 8
      vertex 19.4389 21.34 8
      vertex 26.5 27.295 8
    endloop
  endfacet
  facet normal -0.629182 0.777258 0
    outer loop
      vertex 19.4389 -21.34 0
      vertex 19.4389 -21.34 8
      vertex 19.8457 -21.0107 0
    endloop
  endfacet
  facet normal 0 0 -1
    outer loop
      vertex 19.4389 -21.34 0
      vertex 19.8457 -21.0107 0
      vertex 26.5 -27.295 0
    endloop
  endfacet
  facet normal -0.629182 0.777258 0
    outer loop
      vertex 19.4389 -21.34 8
      vertex 19.8457 -21.0107 8
      vertex 19.8457 -21.0107 0
    endloop
  endfacet
  facet normal -0 0 1
    outer loop
      vertex 19.4389 -21.34 8
      vertex 26.5 -27.295 8
      vertex 19.8457 -21.0107 8
    endloop
  endfacet
  facet normal -0.629182 -0.777258 -0
    outer loop
      vertex 19.4389 21.34 0
      vertex 19.8457 21.0107 0
      vertex 19.8457 21.0107 8
    endloop
  endfacet
  facet normal -0.629182 -0.777258 0
    outer loop
      vertex 19.4389 21.34 0
      vertex 19.8457 21.0107 8
      vertex 19.4389 21.34 8
    endloop
  endfacet
  facet normal 0 0 -1
    outer loop
      vertex 19.4389 21.34 0
      vertex 26.5 27.295 0
      vertex 19.8457 21.0107 0
    endloop
  endfacet
  facet normal 0 0 1
    outer loop
      vertex 19.4389 21.34 8
      vertex 19.8457 21.0107 8
      vertex 26.5 27.295 8
    endloop
  endfacet
  facet normal -0.707202 0.707011 0
    outer loop
      vertex 19.8457 -21.0107 0
      vertex 19.8457 -21.0107 8
      vertex 20.2157 -20.6406 8
    endloop
  endfacet
  facet normal 0 0 -1
    outer loop
      vertex 19.8457 -21.0107 0
      vertex 20.2157 -20.6406 0
      vertex 26.5 -27.295 0
    endloop
  endfacet
  facet normal -0.707202 0.707011 0
    outer loop
      vertex 19.8457 -21.0107 0
      vertex 20.2157 -20.6406 8
      vertex 20.2157 -20.6406 0
    endloop
  endfacet
  facet normal -0 0 1
    outer loop
      vertex 19.8457 -21.0107 8
      vertex 26.5 -27.295 8
      vertex 20.2157 -20.6406 8
    endloop
  endfacet
  facet normal -0.707202 -0.707011 0
    outer loop
      vertex 19.8457 21.0107 0
      vertex 20.2157 20.6406 0
      vertex 19.8457 21.0107 8
    endloop
  endfacet
  facet normal 0 0 -1
    outer loop
      vertex 19.8457 21.0107 0
      vertex 26.5 27.295 0
      vertex 20.2157 20.6406 0
    endloop
  endfacet
  facet normal -0.707202 -0.707011 0
    outer loop
      vertex 19.8457 21.0107 8
      vertex 20.2157 20.6406 0
      vertex 20.2157 20.6406 8
    endloop
  endfacet
  facet normal 0 0 1
    outer loop
      vertex 19.8457 21.0107 8
      vertex 20.2157 20.6406 8
      vertex 26.5 27.295 8
    endloop
  endfacet
  facet normal -0.777089 0.629391 0
    outer loop
      vertex 20.2157 -20.6406 0
      vertex 20.2157 -20.6406 8
      vertex 20.5451 -20.2339 8
    endloop
  endfacet
  facet normal 0 0 -1
    outer loop
      vertex 20.2157 -20.6406 0
      vertex 20.5451 -20.2339 0
      vertex 26.5 -27.295 0
    endloop
  endfacet
  facet normal -0.777089 0.629391 0
    outer loop
      vertex 20.2157 -20.6406 0
      vertex 20.5451 -20.2339 8
      vertex 20.5451 -20.2339 0
    endloop
  endfacet
  facet normal -0 0 1
    outer loop
      vertex 20.2157 -20.6406 8
      vertex 26.5 -27.295 8
      vertex 20.5451 -20.2339 8
    endloop
  endfacet
  facet normal -0.777089 -0.629391 0
    outer loop
      vertex 20.2157 20.6406 0
      vertex 20.5451 20.2339 0
      vertex 20.2157 20.6406 8
    endloop
  endfacet
  facet normal 0 0 -1
    outer loop
      vertex 20.2157 20.6406 0
      vertex 26.5 27.295 0
      vertex 20.5451 20.2339 0
    endloop
  endfacet
  facet normal -0.777089 -0.629391 0
    outer loop
      vertex 20.2157 20.6406 8
      vertex 20.5451 20.2339 0
      vertex 20.5451 20.2339 8
    endloop
  endfacet
  facet normal 0 0 1
    outer loop
      vertex 20.2157 20.6406 8
      vertex 20.5451 20.2339 8
      vertex 26.5 27.295 8
    endloop
  endfacet
  facet normal -0.838692 0.544605 0
    outer loop
      vertex 20.5451 -20.2339 0
      vertex 20.5451 -20.2339 8
      vertex 20.8301 -19.795 8
    endloop
  endfacet
  facet normal 0 0 -1
    outer loop
      vertex 20.5451 -20.2339 0
      vertex 20.8301 -19.795 0
      vertex 26.5 -27.295 0
    endloop
  endfacet
  facet normal -0.838692 0.544605 0
    outer loop
      vertex 20.5451 -20.2339 0
      vertex 20.8301 -19.795 8
      vertex 20.8301 -19.795 0
    endloop
  endfacet
  facet normal -0 0 1
    outer loop
      vertex 20.5451 -20.2339 8
      vertex 26.5 -27.295 8
      vertex 20.8301 -19.795 8
    endloop
  endfacet
  facet normal -0.838692 -0.544605 0
    outer loop
      vertex 20.5451 20.2339 0
      vertex 20.8301 19.795 0
      vertex 20.5451 20.2339 8
    endloop
  endfacet
  facet normal 0 0 -1
    outer loop
      vertex 20.5451 20.2339 0
      vertex 26.5 27.295 0
      vertex 20.8301 19.795 0
    endloop
  endfacet
  facet normal -0.838692 -0.544605 0
    outer loop
      vertex 20.5451 20.2339 8
      vertex 20.8301 19.795 0
      vertex 20.8301 19.795 8
    endloop
  endfacet
  facet normal 0 0 1
    outer loop
      vertex 20.5451 20.2339 8
      vertex 20.8301 19.795 8
      vertex 26.5 27.295 8
    endloop
  endfacet
  facet normal -0.891039 0.453926 0
    outer loop
      vertex 20.8301 -19.795 0
      vertex 20.8301 -19.795 8
      vertex 21.0677 -19.3286 8
    endloop
  endfacet
  facet normal 0 0 -1
    outer loop
      vertex 20.8301 -19.795 0
      vertex 21.0677 -19.3286 0
      vertex 26.5 -27.295 0
    endloop
  endfacet
  facet normal -0.891039 0.453926 0
    outer loop
      vertex 20.8301 -19.795 0
      vertex 21.0677 -19.3286 8
      vertex 21.0677 -19.3286 0
    endloop
  endfacet
  facet normal -0 0 1
    outer loop
      vertex 20.8301 -19.795 8
      vertex 26.5 -27.295 8
      vertex 21.0677 -19.3286 8
    endloop
  endfacet
  facet normal -0.891039 -0.453926 0
    outer loop
      vertex 20.8301 19.795 0
      vertex 21.0677 19.3286 0
      vertex 20.8301 19.795 8
    endloop
  endfacet
  facet normal 0 0 -1
    outer loop
      vertex 20.8301 19.795 0
      vertex 26.5 27.295 0
      vertex 21.0677 19.3286 0
    endloop
  endfacet
  facet normal -0.891039 -0.453926 0
    outer loop
      vertex 20.8301 19.795 8
      vertex 21.0677 19.3286 0
      vertex 21.0677 19.3286 8
    endloop
  endfacet
  facet normal 0 0 1
    outer loop
      vertex 20.8301 19.795 8
      vertex 21.0677 19.3286 8
      vertex 26.5 27.295 8
    endloop
  endfacet
  facet normal -0.933552 0.358441 0
    outer loop
      vertex 21.0677 -19.3286 0
      vertex 21.0677 -19.3286 8
      vertex 21.2553 -18.84 8
    endloop
  endfacet
  facet normal 0 0 -1
    outer loop
      vertex 21.0677 -19.3286 0
      vertex 21.2553 -18.84 0
      vertex 26.5 -27.295 0
    endloop
  endfacet
  facet normal -0.933552 0.358441 0
    outer loop
      vertex 21.0677 -19.3286 0
      vertex 21.2553 -18.84 8
      vertex 21.2553 -18.84 0
    endloop
  endfacet
  facet normal -0 0 1
    outer loop
      vertex 21.0677 -19.3286 8
      vertex 26.5 -27.295 8
      vertex 21.2553 -18.84 8
    endloop
  endfacet
  facet normal -0.933552 -0.358441 0
    outer loop
      vertex 21.0677 19.3286 0
      vertex 21.2553 18.84 0
      vertex 21.0677 19.3286 8
    endloop
  endfacet
  facet normal 0 0 -1
    outer loop
      vertex 21.0677 19.3286 0
      vertex 26.5 27.295 0
      vertex 21.2553 18.84 0
    endloop
  endfacet
  facet normal -0.933552 -0.358441 0
    outer loop
      vertex 21.0677 19.3286 8
      vertex 21.2553 18.84 0
      vertex 21.2553 18.84 8
    endloop
  endfacet
  facet normal 0 0 1
    outer loop
      vertex 21.0677 19.3286 8
      vertex 21.2553 18.84 8
      vertex 26.5 27.295 8
    endloop
  endfacet
  facet normal -0.965949 0.258733 0
    outer loop
      vertex 21.2553 -18.84 0
      vertex 21.2553 -18.84 8
      vertex 21.3907 -18.3345 8
    endloop
  endfacet
  facet normal 0 0 -1
    outer loop
      vertex 21.2553 -18.84 0
      vertex 21.3907 -18.3345 0
      vertex 26.5 -27.295 0
    endloop
  endfacet
  facet normal -0.965949 0.258733 0
    outer loop
      vertex 21.2553 -18.84 0
      vertex 21.3907 -18.3345 8
      vertex 21.3907 -18.3345 0
    endloop
  endfacet
  facet normal -0 0 1
    outer loop
      vertex 21.2553 -18.84 8
      vertex 26.5 -27.295 8
      vertex 21.3907 -18.3345 8
    endloop
  endfacet
  facet normal -0.965949 -0.258733 0
    outer loop
      vertex 21.2553 18.84 0
      vertex 21.3907 18.3345 0
      vertex 21.2553 18.84 8
    endloop
  endfacet
  facet normal 0 0 -1
    outer loop
      vertex 21.2553 18.84 0
      vertex 26.5 27.295 0
      vertex 21.3907 18.3345 0
    endloop
  endfacet
  facet normal -0.965949 -0.258733 0
    outer loop
      vertex 21.2553 18.84 8
      vertex 21.3907 18.3345 0
      vertex 21.3907 18.3345 8
    endloop
  endfacet
  facet normal 0 0 1
    outer loop
      vertex 21.2553 18.84 8
      vertex 21.3907 18.3345 8
      vertex 26.5 27.295 8
    endloop
  endfacet
  facet normal -0.987679 0.156492 0
    outer loop
      vertex 21.3907 -18.3345 0
      vertex 21.3907 -18.3345 8
      vertex 21.4726 -17.8176 8
    endloop
  endfacet
  facet normal 0 0 -1
    outer loop
      vertex 21.3907 -18.3345 0
      vertex 21.4726 -17.8176 0
      vertex 26.5 -27.295 0
    endloop
  endfacet
  facet normal -0.987679 0.156492 0
    outer loop
      vertex 21.3907 -18.3345 0
      vertex 21.4726 -17.8176 8
      vertex 21.4726 -17.8176 0
    endloop
  endfacet
  facet normal -0 0 1
    outer loop
      vertex 21.3907 -18.3345 8
      vertex 26.5 -27.295 8
      vertex 21.4726 -17.8176 8
    endloop
  endfacet
  facet normal -0.987679 -0.156492 0
    outer loop
      vertex 21.3907 18.3345 0
      vertex 21.4726 17.8176 0
      vertex 21.3907 18.3345 8
    endloop
  endfacet
  facet normal 0 0 -1
    outer loop
      vertex 21.3907 18.3345 0
      vertex 26.5 27.295 0
      vertex 21.4726 17.8176 0
    endloop
  endfacet
  facet normal -0.987679 -0.156492 0
    outer loop
      vertex 21.3907 18.3345 8
      vertex 21.4726 17.8176 0
      vertex 21.4726 17.8176 8
    endloop
  endfacet
  facet normal 0 0 1
    outer loop
      vertex 21.3907 18.3345 8
      vertex 21.4726 17.8176 8
      vertex 26.5 27.295 8
    endloop
  endfacet
  facet normal -0.998628 0.0523582 0
    outer loop
      vertex 21.4726 -17.8176 0
      vertex 21.4726 -17.8176 8
      vertex 21.5 -17.295 8
    endloop
  endfacet
  facet normal 0 0 -1
    outer loop
      vertex 21.4726 -17.8176 0
      vertex 21.5 -17.295 0
      vertex 26.5 -27.295 0
    endloop
  endfacet
  facet normal -0.998628 0.0523582 0
    outer loop
      vertex 21.4726 -17.8176 0
      vertex 21.5 -17.295 8
      vertex 21.5 -17.295 0
    endloop
  endfacet
  facet normal -0 0 1
    outer loop
      vertex 21.4726 -17.8176 8
      vertex 26.5 -27.295 8
      vertex 21.5 -17.295 8
    endloop
  endfacet
  facet normal -0.998628 -0.0523582 0
    outer loop
      vertex 21.4726 17.8176 0
      vertex 21.5 17.295 0
      vertex 21.4726 17.8176 8
    endloop
  endfacet
  facet normal 0 0 -1
    outer loop
      vertex 21.4726 17.8176 0
      vertex 26.5 27.295 0
      vertex 21.5 17.295 0
    endloop
  endfacet
  facet normal -0.998628 -0.0523582 0
    outer loop
      vertex 21.4726 17.8176 8
      vertex 21.5 17.295 0
      vertex 21.5 17.295 8
    endloop
  endfacet
  facet normal 0 0 1
    outer loop
      vertex 21.4726 17.8176 8
      vertex 21.5 17.295 8
      vertex 26.5 27.295 8
    endloop
  endfacet
  facet normal -1 -0 0
    outer loop
      vertex 21.5 -17.295 0
      vertex 21.5 -17.295 8
      vertex 21.5 -4 8
    endloop
  endfacet
  facet normal -1 0 0
    outer loop
      vertex 21.5 -17.295 0
      vertex 21.5 -4 8
      vertex 21.5 0 4
    endloop
  endfacet
  facet normal -1 0 0
    outer loop
      vertex 21.5 -17.295 0
      vertex 21.5 0 4
      vertex 21.5 17.295 0
    endloop
  endfacet
  facet normal 0 0 -1
    outer loop
      vertex 21.5 -17.295 0
      vertex 21.5 17.295 0
      vertex 26.5 27.295 0
    endloop
  endfacet
  facet normal 0 0 -1
    outer loop
      vertex 21.5 -17.295 0
      vertex 26.5 27.295 0
      vertex 26.5 -27.295 0
    endloop
  endfacet
  facet normal 0 0 1
    outer loop
      vertex 21.5 -17.295 8
      vertex 26.5 -27.295 8
      vertex 26.5 -4 8
    endloop
  endfacet
  facet normal 0 0 1
    outer loop
      vertex 21.5 -17.295 8
      vertex 26.5 -4 8
      vertex 21.5 -4 8
    endloop
  endfacet
  facet normal 0 0.707107 0.707107
    outer loop
      vertex 21.5 -4 8
      vertex 26.5 -4 8
      vertex 26.5 0 4
    endloop
  endfacet
  facet normal 0 0.707107 0.707107
    outer loop
      vertex 21.5 -4 8
      vertex 26.5 0 4
      vertex 21.5 0 4
    endloop
  endfacet
  facet normal -1 0 0
    outer loop
      vertex 21.5 0 4
      vertex 21.5 4 8
      vertex 21.5 17.295 0
    endloop
  endfacet
  facet normal 0 -0.707107 0.707107
    outer loop
      vertex 21.5 0 4
      vertex 26.5 0 4
      vertex 26.5 4 8
    endloop
  endfacet
  facet normal 0 -0.707107 0.707107
    outer loop
      vertex 21.5 0 4
      vertex 26.5 4 8
      vertex 21.5 4 8
    endloop
  endfacet
  facet normal 0 0 1
    outer loop
      vertex 21.5 17.295 8
      vertex 26.5 4 8
      vertex 26.5 27.295 8
    endloop
  endfacet
  facet normal -1 0 0
    outer loop
      vertex 21.5 4 8
      vertex 21.5 17.295 8
      vertex 21.5 17.295 0
    endloop
  endfacet
  facet normal 0 0 1
    outer loop
      vertex 21.5 4 8
      vertex 26.5 4 8
      vertex 21.5 17.295 8
    endloop
  endfacet
  facet normal 1 0 0
    outer loop
      vertex 26.5 -27.295 0
      vertex 26.5 -4 8
      vertex 26.5 -27.295 8
    endloop
  endfacet
  facet normal 1 0 0
    outer loop
      vertex 26.5 -27.295 0
      vertex 26.5 0 4
      vertex 26.5 -4 8
    endloop
  endfacet
  facet normal 1 0 0
    outer loop
      vertex 26.5 -27.295 0
      vertex 26.5 27.295 0
      vertex 26.5 0 4
    endloop
  endfacet
  facet normal 1 -0 0
    outer loop
      vertex 26.5 0 4
      vertex 26.5 27.295 0
      vertex 26.5 4 8
    endloop
  endfacet
  facet normal 1 -0 0
    outer loop
      vertex 26.5 4 8
      vertex 26.5 27.295 0
      vertex 26.5 27.295 8
    endloop
  endfacet
  facet normal 0 1 0
    outer loop
      vertex 4 -22.295 0
      vertex 16.5 -22.295 8
      vertex 16.5 -22.295 0
    endloop
  endfacet
  facet normal 0 0 -1
    outer loop
      vertex 4 -27.295 0
      vertex 16.5 -22.295 0
      vertex 26.5 -27.295 0
    endloop
  endfacet
  facet normal 0 -1 -0
    outer loop
      vertex 4 -27.295 0
      vertex 26.5 -27.295 0
      vertex 26.5 -27.295 8
    endloop
  endfacet
  facet normal -0 0 -1
    outer loop
      vertex 4 -27.295 0
      vertex 4 -22.295 0
      vertex 16.5 -22.295 0
    endloop
  endfacet
  facet normal 0 -1 -0
    outer loop
      vertex 4 22.295 0
      vertex 16.5 22.295 0
      vertex 16.5 22.295 8
    endloop
  endfacet
  facet normal 0 0 -1
    outer loop
      vertex 4 22.295 0
      vertex 4 27.295 0
      vertex 16.5 22.295 0
    endloop
  endfacet
  facet normal 0 0 -1
    outer loop
      vertex 4 27.295 0
      vertex 26.5 27.295 0
      vertex 16.5 22.295 0
    endloop
  endfacet
  facet normal 0 1 0
    outer loop
      vertex 4 27.295 0
      vertex 26.5 27.295 8
      vertex 26.5 27.295 0
    endloop
  endfacet
endsolid model
