solid model
  facet normal 0 0.987688 0.156436
    outer loop
      vertex -0.13909 22.2447 3.18565
      vertex 0.13909 22.2447 3.18565
      vertex 9.40182 22.3767 2.35189
    endloop
  endfacet
  facet normal -0 0.173648 0.984808
    outer loop
      vertex -0.13909 22.2447 3.18565
      vertex 0.152522 20.5 3.49328
      vertex 0.13909 22.2447 3.18565
    endloop
  endfacet
  facet normal 0 0.173648 0.984808
    outer loop
      vertex -0.152522 20.5 3.49328
      vertex 0.152522 20.5 3.49328
      vertex -0.13909 22.2447 3.18565
    endloop
  endfacet
  facet normal 0 1 0
    outer loop
      vertex -1.30661 -12.4315 -20
      vertex -1.30661 -12.4315 -7
      vertex 1.30661 -12.4315 -20
    endloop
  endfacet
  facet normal 0 0 -1
    outer loop
      vertex -1.30661 -12.4315 -20
      vertex 1.30661 -12.4315 -20
      vertex 35 -27.5 -20
    endloop
  endfacet
  facet normal 0 1 -0
    outer loop
      vertex -1.30661 -12.4315 -7
      vertex 1.30661 -12.4315 -7
      vertex 1.30661 -12.4315 -20
    endloop
  endfacet
  facet normal -0 0 1
    outer loop
      vertex -1.30661 -12.4315 -7
      vertex 20.5 -20.5 -7
      vertex 1.30661 -12.4315 -7
    endloop
  endfacet
  facet normal 0 -1 -0
    outer loop
      vertex -1.30661 12.4315 -20
      vertex 1.30661 12.4315 -20
      vertex 1.30661 12.4315 -7
    endloop
  endfacet
  facet normal 0 -1 0
    outer loop
      vertex -1.30661 12.4315 -20
      vertex 1.30661 12.4315 -7
      vertex -1.30661 12.4315 -7
    endloop
  endfacet
  facet normal 0 0 -1
    outer loop
      vertex -1.30661 12.4315 -20
      vertex 35 27.5 -20
      vertex 1.30661 12.4315 -20
    endloop
  endfacet
  facet normal 0 0 1
    outer loop
      vertex -1.30661 12.4315 -7
      vertex 1.30661 12.4315 -7
      vertex 20.5 20.5 -7
    endloop
  endfacet
  facet normal 0.743145 0.669131 0
    outer loop
      vertex -10.1127 -7.34731 -21.2474
      vertex -10.1127 -7.34731 -7
      vertex -8.48815 -9.15157 -20.5548
    endloop
  endfacet
  facet normal 0.743144 0.669131 -1.62979e-07
    outer loop
      vertex -10.1127 -7.34731 -7
      vertex -8.36413 -9.28931 -20.4846
      vertex -8.48815 -9.15157 -20.5548
    endloop
  endfacet
  facet normal 0.743145 0.669131 -0
    outer loop
      vertex -10.1127 -7.34731 -7
      vertex -8.36413 -9.28931 -7
      vertex -8.36413 -9.28931 -20.4846
    endloop
  endfacet
  facet normal 0.743145 -0.669131 0
    outer loop
      vertex -10.1127 7.34731 -21.2474
      vertex -8.48815 9.15157 -20.5548
      vertex -10.1127 7.34731 -7
    endloop
  endfacet
  facet normal 0.743145 -0.669131 0
    outer loop
      vertex -10.1127 7.34731 -7
      vertex -8.36413 9.28931 -20.4846
      vertex -8.36413 9.28931 -7
    endloop
  endfacet
  facet normal 0.743144 -0.669131 -1.62979e-07
    outer loop
      vertex -10.1127 7.34731 -7
      vertex -8.48815 9.15157 -20.5548
      vertex -8.36413 9.28931 -20.4846
    endloop
  endfacet
  facet normal 0.866025 0.5 0
    outer loop
      vertex -11.4193 -5.08421 -21.8995
      vertex -11.4193 -5.08421 -7
      vertex -10.3404 -6.95288 -21.3988
    endloop
  endfacet
  facet normal 0.866025 0.5 4.85548e-08
    outer loop
      vertex -11.4193 -5.08421 -7
      vertex -10.1127 -7.34731 -21.2474
      vertex -10.3404 -6.95288 -21.3988
    endloop
  endfacet
  facet normal 0.866025 0.5 -0
    outer loop
      vertex -11.4193 -5.08421 -7
      vertex -10.1127 -7.34731 -7
      vertex -10.1127 -7.34731 -21.2474
    endloop
  endfacet
  facet normal 0.866025 -0.5 0
    outer loop
      vertex -11.4193 5.08421 -21.8995
      vertex -10.3404 6.95288 -21.3988
      vertex -11.4193 5.08421 -7
    endloop
  endfacet
  facet normal 0.866025 -0.5 0
    outer loop
      vertex -11.4193 5.08421 -7
      vertex -10.1127 7.34731 -21.2474
      vertex -10.1127 7.34731 -7
    endloop
  endfacet
  facet normal 0.866025 -0.5 4.85548e-08
    outer loop
      vertex -11.4193 5.08421 -7
      vertex -10.3404 6.95288 -21.3988
      vertex -10.1127 7.34731 -21.2474
    endloop
  endfacet
  facet normal 0.951057 0.309017 0
    outer loop
      vertex -12.2268 -2.5989 -22.3376
      vertex -12.2268 -2.5989 -7
      vertex -11.5513 -4.67801 -22.0083
    endloop
  endfacet
  facet normal 0.951056 0.309017 -9.47557e-08
    outer loop
      vertex -12.2268 -2.5989 -7
      vertex -11.4193 -5.08421 -21.8995
      vertex -11.5513 -4.67801 -22.0083
    endloop
  endfacet
  facet normal 0.951057 0.309017 -0
    outer loop
      vertex -12.2268 -2.5989 -7
      vertex -11.4193 -5.08421 -7
      vertex -11.4193 -5.08421 -21.8995
    endloop
  endfacet
  facet normal 0.951057 -0.309017 0
    outer loop
      vertex -12.2268 2.5989 -22.3376
      vertex -11.5513 4.67801 -22.0083
      vertex -12.2268 2.5989 -7
    endloop
  endfacet
  facet normal 0.951057 -0.309017 0
    outer loop
      vertex -12.2268 2.5989 -7
      vertex -11.4193 5.08421 -21.8995
      vertex -11.4193 5.08421 -7
    endloop
  endfacet
  facet normal 0.951056 -0.309017 -9.47557e-08
    outer loop
      vertex -12.2268 2.5989 -7
      vertex -11.5513 4.67801 -22.0083
      vertex -11.4193 5.08421 -21.8995
    endloop
  endfacet
  facet normal 0.994522 0.10453 0
    outer loop
      vertex -12.2528 -2.35189 -22.3767
      vertex -12.2268 -2.5989 -7
      vertex -12.2268 -2.5989 -22.3376
    endloop
  endfacet
  facet normal 0.994522 -0.10453 0
    outer loop
      vertex -12.2528 2.35189 -22.3767
      vertex -12.2268 2.5989 -22.3376
      vertex -12.2268 2.5989 -7
    endloop
  endfacet
  facet normal 0.994522 -0.104528 0
    outer loop
      vertex -12.5 0 -22.5
      vertex -12.4071 0.884144 -22.4537
      vertex -12.5 0 -7
    endloop
  endfacet
  facet normal 0.994522 0.104528 0
    outer loop
      vertex -12.5 0 -22.5
      vertex -12.5 0 -7
      vertex -12.4071 -0.884144 -22.4537
    endloop
  endfacet
  facet normal 0.994522 0.104529 -2.80232e-08
    outer loop
      vertex -12.5 0 -7
      vertex -12.2268 -2.5989 -7
      vertex -12.2528 -2.35189 -22.3767
    endloop
  endfacet
  facet normal 0.994522 0.104529 -2.3615e-08
    outer loop
      vertex -12.5 0 -7
      vertex -12.2528 -2.35189 -22.3767
      vertex -12.4071 -0.884144 -22.4537
    endloop
  endfacet
  facet normal 0.994522 -0.104529 -2.80232e-08
    outer loop
      vertex -12.5 0 -7
      vertex -12.2528 2.35189 -22.3767
      vertex -12.2268 2.5989 -7
    endloop
  endfacet
  facet normal 0.994522 -0.104529 -2.3615e-08
    outer loop
      vertex -12.5 0 -7
      vertex -12.4071 0.884144 -22.4537
      vertex -12.2528 2.35189 -22.3767
    endloop
  endfacet
  facet normal 1.71762e-08 -0.052335 -0.99863
    outer loop
      vertex -19.8658 -0.708723 -22.4629
      vertex -12.5 0 -22.5
      vertex -12.4071 -0.884144 -22.4537
    endloop
  endfacet
  facet normal -0 -0.0523349 -0.99863
    outer loop
      vertex -19.8658 -0.708723 -22.4629
      vertex -19.82 0 -22.5
      vertex -12.5 0 -22.5
    endloop
  endfacet
  facet normal -0.629323 0 -0.777144
    outer loop
      vertex -19.8658 -0.708723 -22.4629
      vertex -19.8658 0.708723 -22.4629
      vertex -19.82 0 -22.5
    endloop
  endfacet
  facet normal 1.71762e-08 0.052335 -0.99863
    outer loop
      vertex -19.8658 0.708723 -22.4629
      vertex -12.4071 0.884144 -22.4537
      vertex -12.5 0 -22.5
    endloop
  endfacet
  facet normal 0 0.0523349 -0.99863
    outer loop
      vertex -19.8658 0.708723 -22.4629
      vertex -12.5 0 -22.5
      vertex -19.82 0 -22.5
    endloop
  endfacet
  facet normal 0 -0.156441 -0.987687
    outer loop
      vertex -19.9722 -2.35189 -22.3767
      vertex -12.2528 -2.35189 -22.3767
      vertex -12.2268 -2.5989 -22.3376
    endloop
  endfacet
  facet normal 0 -0.0523361 -0.99863
    outer loop
      vertex -19.9722 -2.35189 -22.3767
      vertex -12.4071 -0.884144 -22.4537
      vertex -12.2528 -2.35189 -22.3767
    endloop
  endfacet
  facet normal -6.50134e-09 -0.052336 -0.99863
    outer loop
      vertex -19.9722 -2.35189 -22.3767
      vertex -19.8658 -0.708723 -22.4629
      vertex -12.4071 -0.884144 -22.4537
    endloop
  endfacet
  facet normal 0 0.156441 -0.987687
    outer loop
      vertex -19.9722 2.35189 -22.3767
      vertex -12.2268 2.5989 -22.3376
      vertex -12.2528 2.35189 -22.3767
    endloop
  endfacet
  facet normal 0 0.0523361 -0.99863
    outer loop
      vertex -19.9722 2.35189 -22.3767
      vertex -12.2528 2.35189 -22.3767
      vertex -12.4071 0.884144 -22.4537
    endloop
  endfacet
  facet normal -6.50134e-09 0.052336 -0.99863
    outer loop
      vertex -19.9722 2.35189 -22.3767
      vertex -12.4071 0.884144 -22.4537
      vertex -19.8658 0.708723 -22.4629
    endloop
  endfacet
  facet normal -0.629331 1.58966e-06 -0.777137
    outer loop
      vertex -20.0739 -2.87213 -22.2943
      vertex -19.8658 -0.708723 -22.4629
      vertex -19.9722 -2.35189 -22.3767
    endloop
  endfacet
  facet normal -0.629321 0 -0.777145
    outer loop
      vertex -20.0739 -2.87213 -22.2943
      vertex -19.8658 0.708723 -22.4629
      vertex -19.8658 -0.708723 -22.4629
    endloop
  endfacet
  facet normal 1.43364e-07 -0.156436 -0.987688
    outer loop
      vertex -20.0739 -2.87213 -22.2943
      vertex -19.9722 -2.35189 -22.3767
      vertex -12.2268 -2.5989 -22.3376
    endloop
  endfacet
  facet normal -0.629321 -0 -0.777145
    outer loop
      vertex -20.0739 -2.87213 -22.2943
      vertex -20.0739 2.87213 -22.2943
      vertex -19.8658 0.708723 -22.4629
    endloop
  endfacet
  facet normal 1.43364e-07 0.156436 -0.987688
    outer loop
      vertex -20.0739 2.87213 -22.2943
      vertex -12.2268 2.5989 -22.3376
      vertex -19.9722 2.35189 -22.3767
    endloop
  endfacet
  facet normal -0.629331 -1.58966e-06 -0.777137
    outer loop
      vertex -20.0739 2.87213 -22.2943
      vertex -19.9722 2.35189 -22.3767
      vertex -19.8658 0.708723 -22.4629
    endloop
  endfacet
  facet normal 0 -0.258818 -0.965926
    outer loop
      vertex -20.3599 -4.67801 -22.0083
      vertex -11.5513 -4.67801 -22.0083
      vertex -11.4193 -5.08421 -21.8995
    endloop
  endfacet
  facet normal 0 -0.156435 -0.987688
    outer loop
      vertex -20.3599 -4.67801 -22.0083
      vertex -12.2268 -2.5989 -22.3376
      vertex -11.5513 -4.67801 -22.0083
    endloop
  endfacet
  facet normal 9.86917e-08 -0.156435 -0.987688
    outer loop
      vertex -20.3599 -4.67801 -22.0083
      vertex -20.0739 -2.87213 -22.2943
      vertex -12.2268 -2.5989 -22.3376
    endloop
  endfacet
  facet normal 0 0.258818 -0.965926
    outer loop
      vertex -20.3599 4.67801 -22.0083
      vertex -11.4193 5.08421 -21.8995
      vertex -11.5513 4.67801 -22.0083
    endloop
  endfacet
  facet normal 0 0.156435 -0.987688
    outer loop
      vertex -20.3599 4.67801 -22.0083
      vertex -11.5513 4.67801 -22.0083
      vertex -12.2268 2.5989 -22.3376
    endloop
  endfacet
  facet normal 9.86917e-08 0.156435 -0.987688
    outer loop
      vertex -20.3599 4.67801 -22.0083
      vertex -12.2268 2.5989 -22.3376
      vertex -20.0739 2.87213 -22.2943
    endloop
  endfacet
  facet normal 0 0 1
    outer loop
      vertex -20.5 -20.5 -7
      vertex -1.30661 -12.4315 -7
      vertex -3.86271 -11.8882 -7
    endloop
  endfacet
  facet normal 0 0 1
    outer loop
      vertex -20.5 -20.5 -7
      vertex -10.1127 -7.34731 -7
      vertex -11.4193 -5.08421 -7
    endloop
  endfacet
  facet normal 0 0 1
    outer loop
      vertex -20.5 -20.5 -7
      vertex -11.4193 -5.08421 -7
      vertex -12.2268 -2.5989 -7
    endloop
  endfacet
  facet normal 0 0 1
    outer loop
      vertex -20.5 -20.5 -7
      vertex -12.2268 -2.5989 -7
      vertex -12.5 0 -7
    endloop
  endfacet
  facet normal 0 0 1
    outer loop
      vertex -20.5 -20.5 -7
      vertex -12.5 0 -7
      vertex -20.5 20.5 -7
    endloop
  endfacet
  facet normal 0 1 0
    outer loop
      vertex -20.5 -20.5 -7
      vertex -20.5 -20.5 1.46243
      vertex 20.5 -20.5 -7
    endloop
  endfacet
  facet normal 1 0 0
    outer loop
      vertex -20.5 -20.5 -7
      vertex -20.5 0.74856 5.20912
      vertex -20.5 -20.5 1.46243
    endloop
  endfacet
  facet normal 1 0 0
    outer loop
      vertex -20.5 -20.5 -7
      vertex -20.5 20.5 -7
      vertex -20.5 0.74856 5.20912
    endloop
  endfacet
  facet normal 0 0 1
    outer loop
      vertex -20.5 -20.5 -7
      vertex -3.86271 -11.8882 -7
      vertex -6.25 -10.8253 -7
    endloop
  endfacet
  facet normal 0 0 1
    outer loop
      vertex -20.5 -20.5 -7
      vertex -6.25 -10.8253 -7
      vertex -8.36413 -9.28931 -7
    endloop
  endfacet
  facet normal 0 0 1
    outer loop
      vertex -20.5 -20.5 -7
      vertex -8.36413 -9.28931 -7
      vertex -10.1127 -7.34731 -7
    endloop
  endfacet
  facet normal 0 0 1
    outer loop
      vertex -20.5 -20.5 -7
      vertex 20.5 -20.5 -7
      vertex -1.30661 -12.4315 -7
    endloop
  endfacet
  facet normal 0 0.173648 -0.984808
    outer loop
      vertex -20.5 -20.5 1.46243
      vertex -20.5 0.74856 5.20912
      vertex 20.5 0.74856 5.20912
    endloop
  endfacet
  facet normal 0 1 -0
    outer loop
      vertex -20.5 -20.5 1.46243
      vertex 20.5 -20.5 1.46243
      vertex 20.5 -20.5 -7
    endloop
  endfacet
  facet normal 0 0.173648 -0.984808
    outer loop
      vertex -20.5 -20.5 1.46243
      vertex 20.5 0.74856 5.20912
      vertex 20.5 -20.5 1.46243
    endloop
  endfacet
  facet normal 1 0 0
    outer loop
      vertex -20.5 0.74856 5.20912
      vertex -20.5 20.5 -7
      vertex -20.5 20.5 1.71311
    endloop
  endfacet
  facet normal 0 0.173648 -0.984808
    outer loop
      vertex -20.5 0.74856 5.20912
      vertex 30 21.2899 8.83112
      vertex 20.5 0.74856 5.20912
    endloop
  endfacet
  facet normal 0 -1 0
    outer loop
      vertex -20.5 20.5 -7
      vertex -0.152522 20.5 3.49328
      vertex -20.5 20.5 1.71311
    endloop
  endfacet
  facet normal -0 0 1
    outer loop
      vertex -20.5 20.5 -7
      vertex -1.30661 12.4315 -7
      vertex 20.5 20.5 -7
    endloop
  endfacet
  facet normal 0 0 1
    outer loop
      vertex -20.5 20.5 -7
      vertex -10.1127 7.34731 -7
      vertex -8.36413 9.28931 -7
    endloop
  endfacet
  facet normal 0 0 1
    outer loop
      vertex -20.5 20.5 -7
      vertex -11.4193 5.08421 -7
      vertex -10.1127 7.34731 -7
    endloop
  endfacet
  facet normal 0 0 1
    outer loop
      vertex -20.5 20.5 -7
      vertex -12.2268 2.5989 -7
      vertex -11.4193 5.08421 -7
    endloop
  endfacet
  facet normal 0 0 1
    outer loop
      vertex -20.5 20.5 -7
      vertex -12.5 0 -7
      vertex -12.2268 2.5989 -7
    endloop
  endfacet
  facet normal 0 0 1
    outer loop
      vertex -20.5 20.5 -7
      vertex -3.86271 11.8882 -7
      vertex -1.30661 12.4315 -7
    endloop
  endfacet
  facet normal 0 0 1
    outer loop
      vertex -20.5 20.5 -7
      vertex -6.25 10.8253 -7
      vertex -3.86271 11.8882 -7
    endloop
  endfacet
  facet normal 0 0 1
    outer loop
      vertex -20.5 20.5 -7
      vertex -8.36413 9.28931 -7
      vertex -6.25 10.8253 -7
    endloop
  endfacet
  facet normal 0 -1 -0
    outer loop
      vertex -20.5 20.5 -7
      vertex 0.152522 20.5 3.49328
      vertex -0.152522 20.5 3.49328
    endloop
  endfacet
  facet normal 0 -1 0
    outer loop
      vertex -20.5 20.5 -7
      vertex 20.5 20.5 -7
      vertex 0.152522 20.5 3.49328
    endloop
  endfacet
  facet normal -0.0858317 0.173648 0.98106
    outer loop
      vertex -20.5 20.5 1.71311
      vertex -0.152522 20.5 3.49328
      vertex -9.40182 22.3767 2.35189
    endloop
  endfacet
  facet normal 0 -0.358369 -0.93358
    outer loop
      vertex -20.9695 -6.95288 -21.3988
      vertex -10.3404 -6.95288 -21.3988
      vertex -10.1127 -7.34731 -21.2474
    endloop
  endfacet
  facet normal 0 -0.258819 -0.965926
    outer loop
      vertex -20.9695 -6.95288 -21.3988
      vertex -11.4193 -5.08421 -21.8995
      vertex -10.3404 -6.95288 -21.3988
    endloop
  endfacet
  facet normal -0.707101 -2.68348e-06 -0.707113
    outer loop
      vertex -20.9695 -6.95288 -21.3988
      vertex -20.0739 -2.87213 -22.2943
      vertex -20.3599 -4.67801 -22.0083
    endloop
  endfacet
  facet normal -3.97429e-08 -0.258819 -0.965926
    outer loop
      vertex -20.9695 -6.95288 -21.3988
      vertex -20.3599 -4.67801 -22.0083
      vertex -11.4193 -5.08421 -21.8995
    endloop
  endfacet
  facet normal 0 0.358369 -0.93358
    outer loop
      vertex -20.9695 6.95288 -21.3988
      vertex -10.1127 7.34731 -21.2474
      vertex -10.3404 6.95288 -21.3988
    endloop
  endfacet
  facet normal 0 0.258819 -0.965926
    outer loop
      vertex -20.9695 6.95288 -21.3988
      vertex -10.3404 6.95288 -21.3988
      vertex -11.4193 5.08421 -21.8995
    endloop
  endfacet
  facet normal -3.97429e-08 0.258819 -0.965926
    outer loop
      vertex -20.9695 6.95288 -21.3988
      vertex -11.4193 5.08421 -21.8995
      vertex -20.3599 4.67801 -22.0083
    endloop
  endfacet
  facet normal 0 -0.358368 -0.93358
    outer loop
      vertex -21.8135 -9.15157 -20.5548
      vertex -10.1127 -7.34731 -21.2474
      vertex -8.48815 -9.15157 -20.5548
    endloop
  endfacet
  facet normal 2.76834e-08 -0.358368 -0.93358
    outer loop
      vertex -21.8135 -9.15157 -20.5548
      vertex -20.9695 -6.95288 -21.3988
      vertex -10.1127 -7.34731 -21.2474
    endloop
  endfacet
  facet normal 2.76834e-08 0.358368 -0.93358
    outer loop
      vertex -21.8135 9.15157 -20.5548
      vertex -10.1127 7.34731 -21.2474
      vertex -20.9695 6.95288 -21.3988
    endloop
  endfacet
  facet normal 0 0.358368 -0.93358
    outer loop
      vertex -21.8135 9.15157 -20.5548
      vertex -8.48815 9.15157 -20.5548
      vertex -10.1127 7.34731 -21.2474
    endloop
  endfacet
  facet normal -0.707107 0 -0.707107
    outer loop
      vertex -22.2943 -10.0953 -20.0739
      vertex -20.0739 -2.87213 -22.2943
      vertex -20.9695 -6.95288 -21.3988
    endloop
  endfacet
  facet normal -0.707099 -6.85279e-06 -0.707115
    outer loop
      vertex -22.2943 -10.0953 -20.0739
      vertex -20.9695 -6.95288 -21.3988
      vertex -21.8135 -9.15157 -20.5548
    endloop
  endfacet
  facet normal -0 -0.45399 -0.891007
    outer loop
      vertex -22.2943 -10.0953 -20.0739
      vertex -21.8135 -9.15157 -20.5548
      vertex -8.48815 -9.15157 -20.5548
    endloop
  endfacet
  facet normal -0.707107 0 -0.707107
    outer loop
      vertex -22.2943 -10.0953 -20.0739
      vertex -22.2943 10.0953 -20.0739
      vertex -20.0739 -2.87213 -22.2943
    endloop
  endfacet
  facet normal -0.707107 0 -0.707107
    outer loop
      vertex -22.2943 10.0953 -20.0739
      vertex -20.0739 2.87213 -22.2943
      vertex -20.0739 -2.87213 -22.2943
    endloop
  endfacet
  facet normal -0.707104 1.54061e-06 -0.707109
    outer loop
      vertex -22.2943 10.0953 -20.0739
      vertex -20.3599 4.67801 -22.0083
      vertex -20.0739 2.87213 -22.2943
    endloop
  endfacet
  facet normal -0.707109 -1.62675e-06 -0.707105
    outer loop
      vertex -22.2943 10.0953 -20.0739
      vertex -20.9695 6.95288 -21.3988
      vertex -20.3599 4.67801 -22.0083
    endloop
  endfacet
  facet normal -0.707099 6.85279e-06 -0.707115
    outer loop
      vertex -22.2943 10.0953 -20.0739
      vertex -21.8135 9.15157 -20.5548
      vertex -20.9695 6.95288 -21.3988
    endloop
  endfacet
  facet normal 0 0.45399 -0.891007
    outer loop
      vertex -22.2943 10.0953 -20.0739
      vertex -8.48815 9.15157 -20.5548
      vertex -21.8135 9.15157 -20.5548
    endloop
  endfacet
  facet normal 4.29116e-08 -0.453991 -0.891006
    outer loop
      vertex -22.3542 -10.2404 -20
      vertex -22.2943 -10.0953 -20.0739
      vertex -8.48815 -9.15157 -20.5548
    endloop
  endfacet
  facet normal -0.77715 -0 -0.629316
    outer loop
      vertex -22.3542 -10.2404 -20
      vertex -22.3542 10.2404 -20
      vertex -22.2943 -10.0953 -20.0739
    endloop
  endfacet
  facet normal 0 0 -1
    outer loop
      vertex -22.3542 -10.2404 -20
      vertex -7.0551 -10.2404 -20
      vertex -6.25 -10.8253 -20
    endloop
  endfacet
  facet normal 0 -0.453991 -0.891006
    outer loop
      vertex -22.3542 -10.2404 -20
      vertex -8.36413 -9.28931 -20.4846
      vertex -7.0551 -10.2404 -20
    endloop
  endfacet
  facet normal -2.91438e-07 -0.453987 -0.891008
    outer loop
      vertex -22.3542 -10.2404 -20
      vertex -8.48815 -9.15157 -20.5548
      vertex -8.36413 -9.28931 -20.4846
    endloop
  endfacet
  facet normal -0.77715 0 -0.629316
    outer loop
      vertex -22.3542 10.2404 -20
      vertex -22.2943 10.0953 -20.0739
      vertex -22.2943 -10.0953 -20.0739
    endloop
  endfacet
  facet normal 0 0 -1
    outer loop
      vertex -22.3542 10.2404 -20
      vertex -6.25 10.8253 -20
      vertex -7.0551 10.2404 -20
    endloop
  endfacet
  facet normal 0 0.453991 -0.891006
    outer loop
      vertex -22.3542 10.2404 -20
      vertex -7.0551 10.2404 -20
      vertex -8.36413 9.28931 -20.4846
    endloop
  endfacet
  facet normal -2.91438e-07 0.453987 -0.891008
    outer loop
      vertex -22.3542 10.2404 -20
      vertex -8.36413 9.28931 -20.4846
      vertex -8.48815 9.15157 -20.5548
    endloop
  endfacet
  facet normal 4.29116e-08 0.453991 -0.891006
    outer loop
      vertex -22.3542 10.2404 -20
      vertex -8.48815 9.15157 -20.5548
      vertex -22.2943 10.0953 -20.0739
    endloop
  endfacet
  facet normal 0 0.173648 -0.984808
    outer loop
      vertex -23.3503 -22.4413 1.12013
      vertex 23.3503 -22.4413 1.12013
      vertex 30 -23.0264 1.01695
    endloop
  endfacet
  facet normal -0.965927 0 -0.258814
    outer loop
      vertex -29.3444 -21.5905 -6.23735
      vertex -29.3444 -20.7347 -6.23735
      vertex -29.3065 -21.5526 -6.37881
    endloop
  endfacet
  facet normal -0.965927 0 -0.258814
    outer loop
      vertex -29.3444 20.7347 -6.23735
      vertex -29.3444 21.5905 -6.23735
      vertex -29.3065 21.5526 -6.37881
    endloop
  endfacet
  facet normal 0 -0.965926 -0.258819
    outer loop
      vertex -29.5914 -22.0083 -4.67801
      vertex -29.3065 -21.5526 -6.37881
      vertex -8.94435 -22.0083 -4.67801
    endloop
  endfacet
  facet normal -0.987688 0 -0.156435
    outer loop
      vertex -29.5914 -22.0083 -4.67801
      vertex -29.3444 -20.7347 -6.23735
      vertex -29.3444 -21.5905 -6.23735
    endloop
  endfacet
  facet normal 8.08752e-05 -0.965929 -0.258806
    outer loop
      vertex -29.5914 -22.0083 -4.67801
      vertex -29.3444 -21.5905 -6.23735
      vertex -29.3065 -21.5526 -6.37881
    endloop
  endfacet
  facet normal 8.08752e-05 0.965929 -0.258806
    outer loop
      vertex -29.5914 22.0083 -4.67801
      vertex -29.3065 21.5526 -6.37881
      vertex -29.3444 21.5905 -6.23735
    endloop
  endfacet
  facet normal -0.987688 0 -0.156435
    outer loop
      vertex -29.5914 22.0083 -4.67801
      vertex -29.3444 21.5905 -6.23735
      vertex -29.3444 20.7347 -6.23735
    endloop
  endfacet
  facet normal 0 0.965926 -0.258819
    outer loop
      vertex -29.5914 22.0083 -4.67801
      vertex -8.94435 22.0083 -4.67801
      vertex -29.3065 21.5526 -6.37881
    endloop
  endfacet
  facet normal -0.0871557 0 0.996195
    outer loop
      vertex -29.63 -0.612426 4.43445
      vertex -23.5184 -0.612426 4.96915
      vertex -29.63 0.612426 4.43445
    endloop
  endfacet
  facet normal -0.0871558 -1.91831e-08 0.996195
    outer loop
      vertex -29.63 0.612426 4.43445
      vertex -23.5184 -0.612426 4.96915
      vertex -21.0498 0.612426 5.18512
    endloop
  endfacet
  facet normal -0.987688 9.45839e-07 -0.156434
    outer loop
      vertex -29.8357 -22.2526 -3.13585
      vertex -29.3444 -20.7347 -6.23735
      vertex -29.5914 -22.0083 -4.67801
    endloop
  endfacet
  facet normal -0 -0.987688 -0.156435
    outer loop
      vertex -29.8357 -22.2526 -3.13585
      vertex -29.5914 -22.0083 -4.67801
      vertex -8.94435 -22.0083 -4.67801
    endloop
  endfacet
  facet normal -0.987688 0 -0.156434
    outer loop
      vertex -29.8357 -22.2526 -3.13585
      vertex -29.8357 -2.96933 -3.13585
      vertex -29.3444 -20.7347 -6.23735
    endloop
  endfacet
  facet normal -0.0858316 -0.173648 0.98106
    outer loop
      vertex -29.8357 -7.84745 3.13585
      vertex -23.3503 -22.4413 1.12013
      vertex -23.5184 -0.612426 4.96915
    endloop
  endfacet
  facet normal -0.0858316 -0.173648 0.98106
    outer loop
      vertex -29.8357 -7.84745 3.13585
      vertex -23.5184 -0.612426 4.96915
      vertex -29.63 -0.612426 4.43445
    endloop
  endfacet
  facet normal -0.987688 0 0.156434
    outer loop
      vertex -29.8357 -7.84745 3.13585
      vertex -29.63 -0.612426 4.43445
      vertex -29.8357 7.84745 3.13585
    endloop
  endfacet
  facet normal -0.987688 -0 -0.156434
    outer loop
      vertex -29.8357 2.96933 -3.13585
      vertex -29.8357 22.2526 -3.13585
      vertex -29.3444 20.7347 -6.23735
    endloop
  endfacet
  facet normal -0.987688 -9.45839e-07 -0.156434
    outer loop
      vertex -29.8357 22.2526 -3.13585
      vertex -29.5914 22.0083 -4.67801
      vertex -29.3444 20.7347 -6.23735
    endloop
  endfacet
  facet normal 0 0.987688 -0.156435
    outer loop
      vertex -29.8357 22.2526 -3.13585
      vertex -8.94435 22.0083 -4.67801
      vertex -29.5914 22.0083 -4.67801
    endloop
  endfacet
  facet normal -0.0858317 0.173648 0.98106
    outer loop
      vertex -29.8357 7.84745 3.13585
      vertex -20.5 0.74856 5.20912
      vertex -20.5 20.5 1.71311
    endloop
  endfacet
  facet normal -0.0858319 0.173648 0.98106
    outer loop
      vertex -29.8357 7.84745 3.13585
      vertex -21.0498 0.612426 5.18512
      vertex -20.5 0.74856 5.20912
    endloop
  endfacet
  facet normal -0.987688 0 0.156434
    outer loop
      vertex -29.8357 7.84745 3.13585
      vertex -29.63 -0.612426 4.43445
      vertex -29.63 0.612426 4.43445
    endloop
  endfacet
  facet normal -0.0858316 0.173648 0.98106
    outer loop
      vertex -29.8357 7.84745 3.13585
      vertex -29.63 0.612426 4.43445
      vertex -21.0498 0.612426 5.18512
    endloop
  endfacet
  facet normal -0.99863 0 -0.0523364
    outer loop
      vertex -29.8767 -22.3767 -2.35189
      vertex -29.8357 -2.96933 -3.13585
      vertex -29.8357 -22.2526 -3.13585
    endloop
  endfacet
  facet normal -1.22609e-08 -0.987688 -0.156435
    outer loop
      vertex -29.8767 -22.3767 -2.35189
      vertex -29.8357 -22.2526 -3.13585
      vertex -8.94435 -22.0083 -4.67801
    endloop
  endfacet
  facet normal -2.67374e-08 -0.987688 -0.156435
    outer loop
      vertex -29.8767 -22.3767 -2.35189
      vertex -8.94435 -22.0083 -4.67801
      vertex 0 -22.1289 -3.91682
    endloop
  endfacet
  facet normal 0 -0.987688 -0.156435
    outer loop
      vertex -29.8767 -22.3767 -2.35189
      vertex 0 -22.1289 -3.91682
      vertex 29.8767 -22.3767 -2.35189
    endloop
  endfacet
  facet normal 0 -0.99863 -0.0523357
    outer loop
      vertex -29.8767 -22.3767 -2.35189
      vertex 29.8767 -22.3767 -2.35189
      vertex 30 -22.5 0
    endloop
  endfacet
  facet normal -0.99863 0 -0.0523364
    outer loop
      vertex -29.8767 22.3767 -2.35189
      vertex -29.8357 22.2526 -3.13585
      vertex -29.8357 2.96933 -3.13585
    endloop
  endfacet
  facet normal -1.22609e-08 0.987688 -0.156435
    outer loop
      vertex -29.8767 22.3767 -2.35189
      vertex -8.94435 22.0083 -4.67801
      vertex -29.8357 22.2526 -3.13585
    endloop
  endfacet
  facet normal -2.67374e-08 0.987688 -0.156435
    outer loop
      vertex -29.8767 22.3767 -2.35189
      vertex 0 22.1289 -3.91682
      vertex -8.94435 22.0083 -4.67801
    endloop
  endfacet
  facet normal 0 0.987688 -0.156435
    outer loop
      vertex -29.8767 22.3767 -2.35189
      vertex 29.8767 22.3767 -2.35189
      vertex 0 22.1289 -3.91682
    endloop
  endfacet
  facet normal -0.0858316 -0.173648 0.98106
    outer loop
      vertex -29.9719 -22.4719 0.535387
      vertex -23.3503 -22.4413 1.12013
      vertex -29.8357 -7.84745 3.13585
    endloop
  endfacet
  facet normal -0.0858317 0.173648 0.98106
    outer loop
      vertex -29.9719 22.4719 0.535387
      vertex -20.5 20.5 1.71311
      vertex -9.40182 22.3767 2.35189
    endloop
  endfacet
  facet normal -0.0858317 0.173648 0.98106
    outer loop
      vertex -29.9719 22.4719 0.535387
      vertex -29.8357 7.84745 3.13585
      vertex -20.5 20.5 1.71311
    endloop
  endfacet
  facet normal 0.207912 0.978148 0
    outer loop
      vertex -3.86271 -11.8882 -20
      vertex -3.86271 -11.8882 -7
      vertex -1.30661 -12.4315 -20
    endloop
  endfacet
  facet normal 0.207912 0.978148 -0
    outer loop
      vertex -3.86271 -11.8882 -7
      vertex -1.30661 -12.4315 -7
      vertex -1.30661 -12.4315 -20
    endloop
  endfacet
  facet normal 0.207912 -0.978148 0
    outer loop
      vertex -3.86271 11.8882 -20
      vertex -1.30661 12.4315 -20
      vertex -1.30661 12.4315 -7
    endloop
  endfacet
  facet normal 0.207912 -0.978148 0
    outer loop
      vertex -3.86271 11.8882 -20
      vertex -1.30661 12.4315 -7
      vertex -3.86271 11.8882 -7
    endloop
  endfacet
  facet normal 0 0.173648 -0.984808
    outer loop
      vertex -30 -22.1582 -3.90708
      vertex 30 -22.1582 -3.90708
      vertex 35 -27.0822 -4.77532
    endloop
  endfacet
  facet normal -1.95849e-08 -0.998629 0.052337
    outer loop
      vertex -30 -22.5 0
      vertex -23.3503 -22.4413 1.12013
      vertex -29.9719 -22.4719 0.535387
    endloop
  endfacet
  facet normal -0.99863 -2.57725e-09 -0.0523365
    outer loop
      vertex -30 -22.5 0
      vertex -29.8357 -2.96933 -3.13585
      vertex -29.8767 -22.3767 -2.35189
    endloop
  endfacet
  facet normal -0.99863 0 0.0523365
    outer loop
      vertex -30 -22.5 0
      vertex -29.8357 -7.84745 3.13585
      vertex -30 0 0
    endloop
  endfacet
  facet normal 0 -0.99863 -0.0523357
    outer loop
      vertex -30 -22.5 0
      vertex -29.8767 -22.3767 -2.35189
      vertex 30 -22.5 0
    endloop
  endfacet
  facet normal -0.998629 -1.05651e-07 0.052337
    outer loop
      vertex -30 -22.5 0
      vertex -29.9719 -22.4719 0.535387
      vertex -29.8357 -7.84745 3.13585
    endloop
  endfacet
  facet normal -0.99863 0 -0.0523365
    outer loop
      vertex -30 -22.5 0
      vertex -30 0 0
      vertex -29.8357 -2.96933 -3.13585
    endloop
  endfacet
  facet normal 0 -0.998629 0.0523369
    outer loop
      vertex -30 -22.5 0
      vertex 23.3503 -22.4413 1.12013
      vertex -23.3503 -22.4413 1.12013
    endloop
  endfacet
  facet normal 0 -0.998629 0.0523369
    outer loop
      vertex -30 -22.5 0
      vertex 30 -22.5 0
      vertex 23.3503 -22.4413 1.12013
    endloop
  endfacet
  facet normal 0 0.173648 -0.984808
    outer loop
      vertex -30 -23.0264 1.01695
      vertex -23.3503 -22.4413 1.12013
      vertex 30 -23.0264 1.01695
    endloop
  endfacet
  facet normal -1.9118e-08 0.173648 -0.984808
    outer loop
      vertex -30 -23.0264 1.01695
      vertex -23.5184 -0.612426 4.96915
      vertex -23.3503 -22.4413 1.12013
    endloop
  endfacet
  facet normal 1 0 0
    outer loop
      vertex -30 -23.0264 1.01695
      vertex -30 -22.1582 -3.90708
      vertex -30 0 0
    endloop
  endfacet
  facet normal 1 -0 0
    outer loop
      vertex -30 -23.0264 1.01695
      vertex -30 0 0
      vertex -30 21.2899 8.83112
    endloop
  endfacet
  facet normal 2.26388e-08 0.173648 -0.984808
    outer loop
      vertex -30 -23.0264 1.01695
      vertex -30 21.2899 8.83112
      vertex -23.5184 -0.612426 4.96915
    endloop
  endfacet
  facet normal 0 0.984808 0.173648
    outer loop
      vertex -30 -23.0264 1.01695
      vertex 30 -22.1582 -3.90708
      vertex -30 -22.1582 -3.90708
    endloop
  endfacet
  facet normal 0 0.984808 0.173648
    outer loop
      vertex -30 -23.0264 1.01695
      vertex 30 -23.0264 1.01695
      vertex 30 -22.1582 -3.90708
    endloop
  endfacet
  facet normal -0.99863 0 0.0523365
    outer loop
      vertex -30 0 0
      vertex -29.8357 -7.84745 3.13585
      vertex -29.8357 7.84745 3.13585
    endloop
  endfacet
  facet normal -0.99863 5.66228e-07 -0.0523359
    outer loop
      vertex -30 0 0
      vertex -29.8357 2.96933 -3.13585
      vertex -29.8631 0 -2.61268
    endloop
  endfacet
  facet normal -0.99863 0 0.0523365
    outer loop
      vertex -30 0 0
      vertex -29.8357 7.84745 3.13585
      vertex -30 22.5 0
    endloop
  endfacet
  facet normal -0.99863 -5.66228e-07 -0.0523359
    outer loop
      vertex -30 0 0
      vertex -29.8631 0 -2.61268
      vertex -29.8357 -2.96933 -3.13585
    endloop
  endfacet
  facet normal 1 0 0
    outer loop
      vertex -30 0 0
      vertex -30 22.1582 3.90708
      vertex -30 21.2899 8.83112
    endloop
  endfacet
  facet normal -0.99863 0 -0.0523365
    outer loop
      vertex -30 0 0
      vertex -30 22.5 0
      vertex -29.8357 2.96933 -3.13585
    endloop
  endfacet
  facet normal 3.9483e-07 0.173648 -0.984808
    outer loop
      vertex -30 21.2899 8.83112
      vertex -20.5 0.74856 5.20912
      vertex -21.0498 0.612426 5.18512
    endloop
  endfacet
  facet normal 1.68752e-08 0.173648 -0.984808
    outer loop
      vertex -30 21.2899 8.83112
      vertex -21.0498 0.612426 5.18512
      vertex -23.5184 -0.612426 4.96915
    endloop
  endfacet
  facet normal 0 -0.984808 -0.173648
    outer loop
      vertex -30 21.2899 8.83112
      vertex -30 22.1582 3.90708
      vertex 30 21.2899 8.83112
    endloop
  endfacet
  facet normal 0 0.173648 -0.984808
    outer loop
      vertex -30 21.2899 8.83112
      vertex 30 21.2899 8.83112
      vertex -20.5 0.74856 5.20912
    endloop
  endfacet
  facet normal 0 -0.984808 -0.173648
    outer loop
      vertex -30 22.1582 3.90708
      vertex 30 22.1582 3.90708
      vertex 30 21.2899 8.83112
    endloop
  endfacet
  facet normal 0 0.173648 -0.984808
    outer loop
      vertex -30 22.1582 3.90708
      vertex 35 27.0822 4.77532
      vertex 30 22.1582 3.90708
    endloop
  endfacet
  facet normal -0.998629 1.05651e-07 0.052337
    outer loop
      vertex -30 22.5 0
      vertex -29.8357 7.84745 3.13585
      vertex -29.9719 22.4719 0.535387
    endloop
  endfacet
  facet normal -0.99863 2.57725e-09 -0.0523365
    outer loop
      vertex -30 22.5 0
      vertex -29.8767 22.3767 -2.35189
      vertex -29.8357 2.96933 -3.13585
    endloop
  endfacet
  facet normal -1.47269e-07 0.998629 0.052337
    outer loop
      vertex -30 22.5 0
      vertex -29.9719 22.4719 0.535387
      vertex -9.40182 22.3767 2.35189
    endloop
  endfacet
  facet normal -0 0.99863 0.0523357
    outer loop
      vertex -30 22.5 0
      vertex -9.40182 22.3767 2.35189
      vertex 30 22.5 0
    endloop
  endfacet
  facet normal 0 0.99863 -0.0523357
    outer loop
      vertex -30 22.5 0
      vertex 29.8767 22.3767 -2.35189
      vertex -29.8767 22.3767 -2.35189
    endloop
  endfacet
  facet normal 0 0.99863 -0.0523357
    outer loop
      vertex -30 22.5 0
      vertex 30 22.5 0
      vertex 29.8767 22.3767 -2.35189
    endloop
  endfacet
  facet normal 0 0.173648 -0.984808
    outer loop
      vertex -35 -27.0822 -4.77532
      vertex -30 -22.1582 -3.90708
      vertex 35 -27.0822 -4.77532
    endloop
  endfacet
  facet normal 1.90053e-08 0.173648 -0.984808
    outer loop
      vertex -35 -27.0822 -4.77532
      vertex -30 0 0
      vertex -30 -22.1582 -3.90708
    endloop
  endfacet
  facet normal -1 0 0
    outer loop
      vertex -35 -27.0822 -4.77532
      vertex -35 25.3457 14.6234
      vertex -35 27.0822 4.77532
    endloop
  endfacet
  facet normal 0 0.173648 -0.984808
    outer loop
      vertex -35 -27.0822 -4.77532
      vertex -35 27.0822 4.77532
      vertex -30 0 0
    endloop
  endfacet
  facet normal 0 -0.984808 -0.173648
    outer loop
      vertex -35 -27.0822 -4.77532
      vertex 35 -27.0822 -4.77532
      vertex 35 -28.8187 5.07275
    endloop
  endfacet
  facet normal 0 0 -1
    outer loop
      vertex -35 -27.5 -20
      vertex -1.30661 -12.4315 -20
      vertex 35 -27.5 -20
    endloop
  endfacet
  facet normal -0 0 -1
    outer loop
      vertex -35 -27.5 -20
      vertex -22.3542 -10.2404 -20
      vertex -6.25 -10.8253 -20
    endloop
  endfacet
  facet normal -0 0 -1
    outer loop
      vertex -35 -27.5 -20
      vertex -22.3542 10.2404 -20
      vertex -22.3542 -10.2404 -20
    endloop
  endfacet
  facet normal -0 0 -1
    outer loop
      vertex -35 -27.5 -20
      vertex -3.86271 -11.8882 -20
      vertex -1.30661 -12.4315 -20
    endloop
  endfacet
  facet normal -1 0 0
    outer loop
      vertex -35 -27.5 -20
      vertex -35 -27.5 -7.92962
      vertex -35 0 -3.0621
    endloop
  endfacet
  facet normal -1 0 0
    outer loop
      vertex -35 -27.5 -20
      vertex -35 0 -3.0621
      vertex -35 27.5 -20
    endloop
  endfacet
  facet normal 0 0 -1
    outer loop
      vertex -35 -27.5 -20
      vertex -35 27.5 -20
      vertex -22.3542 10.2404 -20
    endloop
  endfacet
  facet normal 0 0 -1
    outer loop
      vertex -35 -27.5 -20
      vertex -6.25 -10.8253 -20
      vertex -3.86271 -11.8882 -20
    endloop
  endfacet
  facet normal 0 -1 0
    outer loop
      vertex -35 -27.5 -20
      vertex 0 -27.5 -4.86751
      vertex -35 -27.5 -7.92962
    endloop
  endfacet
  facet normal 0 -1 0
    outer loop
      vertex -35 -27.5 -20
      vertex 35 -27.5 -20
      vertex 0 -27.5 -4.86751
    endloop
  endfacet
  facet normal -0.0858316 -0.173648 0.98106
    outer loop
      vertex -35 -27.5 -7.92962
      vertex -29.3065 -21.5526 -6.37881
      vertex -29.3444 -20.7347 -6.23735
    endloop
  endfacet
  facet normal -0.0858316 -0.173648 0.98106
    outer loop
      vertex -35 -27.5 -7.92962
      vertex -29.3444 -20.7347 -6.23735
      vertex -35 0 -3.0621
    endloop
  endfacet
  facet normal -0.0858316 -0.173648 0.98106
    outer loop
      vertex -35 -27.5 -7.92962
      vertex -8.94435 -22.0083 -4.67801
      vertex -29.3065 -21.5526 -6.37881
    endloop
  endfacet
  facet normal -0.0858316 -0.173648 0.98106
    outer loop
      vertex -35 -27.5 -7.92962
      vertex 0 -27.5 -4.86751
      vertex -8.94435 -22.0083 -4.67801
    endloop
  endfacet
  facet normal 0 -0.984808 -0.173648
    outer loop
      vertex -35 -28.8187 5.07275
      vertex -35 -27.0822 -4.77532
      vertex 35 -28.8187 5.07275
    endloop
  endfacet
  facet normal -1 0 0
    outer loop
      vertex -35 -28.8187 5.07275
      vertex -35 25.3457 14.6234
      vertex -35 -27.0822 -4.77532
    endloop
  endfacet
  facet normal 0 -0.173648 0.984808
    outer loop
      vertex -35 -28.8187 5.07275
      vertex 35 -28.8187 5.07275
      vertex -35 25.3457 14.6234
    endloop
  endfacet
  facet normal -0.0858316 -0.173648 0.98106
    outer loop
      vertex -35 0 -3.0621
      vertex -29.3444 -20.7347 -6.23735
      vertex -29.8357 -2.96933 -3.13585
    endloop
  endfacet
  facet normal -0.0858316 0.173648 0.98106
    outer loop
      vertex -35 0 -3.0621
      vertex -29.3444 20.7347 -6.23735
      vertex -35 27.5 -7.92962
    endloop
  endfacet
  facet normal -0.0858317 -0.173648 0.98106
    outer loop
      vertex -35 0 -3.0621
      vertex -29.8357 -2.96933 -3.13585
      vertex -29.8631 0 -2.61268
    endloop
  endfacet
  facet normal -0.0858316 0.173648 0.98106
    outer loop
      vertex -35 0 -3.0621
      vertex -29.8357 2.96933 -3.13585
      vertex -29.3444 20.7347 -6.23735
    endloop
  endfacet
  facet normal -0.0858317 0.173648 0.98106
    outer loop
      vertex -35 0 -3.0621
      vertex -29.8631 0 -2.61268
      vertex -29.8357 2.96933 -3.13585
    endloop
  endfacet
  facet normal -1 0 0
    outer loop
      vertex -35 0 -3.0621
      vertex -35 27.5 -7.92962
      vertex -35 27.5 -20
    endloop
  endfacet
  facet normal 0 -0.173648 0.984808
    outer loop
      vertex -35 25.3457 14.6234
      vertex 35 -28.8187 5.07275
      vertex 35 25.3457 14.6234
    endloop
  endfacet
  facet normal 0 0.984808 0.173648
    outer loop
      vertex -35 25.3457 14.6234
      vertex 35 25.3457 14.6234
      vertex 35 27.0822 4.77532
    endloop
  endfacet
  facet normal 0 0.984808 0.173648
    outer loop
      vertex -35 25.3457 14.6234
      vertex 35 27.0822 4.77532
      vertex -35 27.0822 4.77532
    endloop
  endfacet
  facet normal -1.90053e-08 0.173648 -0.984808
    outer loop
      vertex -35 27.0822 4.77532
      vertex -30 22.1582 3.90708
      vertex -30 0 0
    endloop
  endfacet
  facet normal 0 0.173648 -0.984808
    outer loop
      vertex -35 27.0822 4.77532
      vertex 35 27.0822 4.77532
      vertex -30 22.1582 3.90708
    endloop
  endfacet
  facet normal 0 0 -1
    outer loop
      vertex -35 27.5 -20
      vertex -1.30661 12.4315 -20
      vertex -3.86271 11.8882 -20
    endloop
  endfacet
  facet normal 0 0 -1
    outer loop
      vertex -35 27.5 -20
      vertex -3.86271 11.8882 -20
      vertex -6.25 10.8253 -20
    endloop
  endfacet
  facet normal 0 1 0
    outer loop
      vertex -35 27.5 -20
      vertex -35 27.5 -7.92962
      vertex 0 27.5 -4.86751
    endloop
  endfacet
  facet normal 0 0 -1
    outer loop
      vertex -35 27.5 -20
      vertex -6.25 10.8253 -20
      vertex -22.3542 10.2404 -20
    endloop
  endfacet
  facet normal 0 1 0
    outer loop
      vertex -35 27.5 -20
      vertex 0 27.5 -4.86751
      vertex 35 27.5 -20
    endloop
  endfacet
  facet normal 0 0 -1
    outer loop
      vertex -35 27.5 -20
      vertex 35 27.5 -20
      vertex -1.30661 12.4315 -20
    endloop
  endfacet
  facet normal -0.0858316 0.173648 0.98106
    outer loop
      vertex -35 27.5 -7.92962
      vertex -29.3065 21.5526 -6.37881
      vertex -8.94435 22.0083 -4.67801
    endloop
  endfacet
  facet normal -0.0858316 0.173648 0.98106
    outer loop
      vertex -35 27.5 -7.92962
      vertex -29.3444 20.7347 -6.23735
      vertex -29.3065 21.5526 -6.37881
    endloop
  endfacet
  facet normal -0.0858316 0.173648 0.98106
    outer loop
      vertex -35 27.5 -7.92962
      vertex -8.94435 22.0083 -4.67801
      vertex 0 27.5 -4.86751
    endloop
  endfacet
  facet normal 0.406736 0.913546 0
    outer loop
      vertex -6.25 -10.8253 -20
      vertex -6.25 -10.8253 -7
      vertex -3.86271 -11.8882 -20
    endloop
  endfacet
  facet normal 0.406736 0.913546 -0
    outer loop
      vertex -6.25 -10.8253 -7
      vertex -3.86271 -11.8882 -7
      vertex -3.86271 -11.8882 -20
    endloop
  endfacet
  facet normal 0.406736 -0.913546 0
    outer loop
      vertex -6.25 10.8253 -20
      vertex -3.86271 11.8882 -20
      vertex -3.86271 11.8882 -7
    endloop
  endfacet
  facet normal 0.406736 -0.913546 0
    outer loop
      vertex -6.25 10.8253 -20
      vertex -3.86271 11.8882 -7
      vertex -6.25 10.8253 -7
    endloop
  endfacet
  facet normal 0.587786 0.809017 0
    outer loop
      vertex -7.0551 -10.2404 -20
      vertex -6.25 -10.8253 -7
      vertex -6.25 -10.8253 -20
    endloop
  endfacet
  facet normal 0.587786 -0.809017 0
    outer loop
      vertex -7.0551 10.2404 -20
      vertex -6.25 10.8253 -20
      vertex -6.25 10.8253 -7
    endloop
  endfacet
  facet normal 0.587786 0.809017 0
    outer loop
      vertex -8.36413 -9.28931 -20.4846
      vertex -8.36413 -9.28931 -7
      vertex -7.0551 -10.2404 -20
    endloop
  endfacet
  facet normal 0.587786 0.809017 -4.16935e-10
    outer loop
      vertex -8.36413 -9.28931 -7
      vertex -6.25 -10.8253 -7
      vertex -7.0551 -10.2404 -20
    endloop
  endfacet
  facet normal 0.587785 -0.809017 0
    outer loop
      vertex -8.36413 9.28931 -20.4846
      vertex -7.0551 10.2404 -20
      vertex -8.36413 9.28931 -7
    endloop
  endfacet
  facet normal 0.587785 -0.809017 1.60039e-08
    outer loop
      vertex -8.36413 9.28931 -7
      vertex -7.0551 10.2404 -20
      vertex -6.25 10.8253 -7
    endloop
  endfacet
  facet normal -0.0858317 -0.173648 0.98106
    outer loop
      vertex -8.94435 -22.0083 -4.67801
      vertex 0 -27.5 -4.86751
      vertex 0 -22.1289 -3.91682
    endloop
  endfacet
  facet normal -0.0858317 0.173648 0.98106
    outer loop
      vertex -8.94435 22.0083 -4.67801
      vertex 0 22.1289 -3.91682
      vertex 0 27.5 -4.86751
    endloop
  endfacet
  facet normal 0 0.987688 0.156436
    outer loop
      vertex -9.40182 22.3767 2.35189
      vertex -0.13909 22.2447 3.18565
      vertex 9.40182 22.3767 2.35189
    endloop
  endfacet
  facet normal -0.0858316 0.173648 0.98106
    outer loop
      vertex -9.40182 22.3767 2.35189
      vertex -0.152522 20.5 3.49328
      vertex -0.13909 22.2447 3.18565
    endloop
  endfacet
  facet normal 0 0.99863 0.0523357
    outer loop
      vertex -9.40182 22.3767 2.35189
      vertex 9.40182 22.3767 2.35189
      vertex 30 22.5 0
    endloop
  endfacet
  facet normal 2.67374e-08 -0.987688 -0.156435
    outer loop
      vertex 0 -22.1289 -3.91682
      vertex 8.94435 -22.0083 -4.67801
      vertex 29.8767 -22.3767 -2.35189
    endloop
  endfacet
  facet normal 0 -1 0
    outer loop
      vertex 0 -27.5 -4.86751
      vertex 35 -27.5 -20
      vertex 35 -27.5 -7.92962
    endloop
  endfacet
  facet normal 0.0858316 -0.173648 0.98106
    outer loop
      vertex 0 -27.5 -4.86751
      vertex 35 -27.5 -7.92962
      vertex 8.94435 -22.0083 -4.67801
    endloop
  endfacet
  facet normal 0.0858317 -0.173648 0.98106
    outer loop
      vertex 0 -27.5 -4.86751
      vertex 8.94435 -22.0083 -4.67801
      vertex 0 -22.1289 -3.91682
    endloop
  endfacet
  facet normal 2.67374e-08 0.987688 -0.156435
    outer loop
      vertex 0 22.1289 -3.91682
      vertex 29.8767 22.3767 -2.35189
      vertex 8.94435 22.0083 -4.67801
    endloop
  endfacet
  facet normal 0.0858317 0.173648 0.98106
    outer loop
      vertex 0 22.1289 -3.91682
      vertex 8.94435 22.0083 -4.67801
      vertex 0 27.5 -4.86751
    endloop
  endfacet
  facet normal 0 1 -0
    outer loop
      vertex 0 27.5 -4.86751
      vertex 35 27.5 -7.92962
      vertex 35 27.5 -20
    endloop
  endfacet
  facet normal 0.0858316 0.173648 0.98106
    outer loop
      vertex 0 27.5 -4.86751
      vertex 8.94435 22.0083 -4.67801
      vertex 35 27.5 -7.92962
    endloop
  endfacet
  facet normal 0.0858316 0.173648 0.98106
    outer loop
      vertex 0.13909 22.2447 3.18565
      vertex 0.152522 20.5 3.49328
      vertex 9.40182 22.3767 2.35189
    endloop
  endfacet
  facet normal 0 -1 0
    outer loop
      vertex 0.152522 20.5 3.49328
      vertex 20.5 20.5 -7
      vertex 20.5 20.5 1.71311
    endloop
  endfacet
  facet normal 0.0858317 0.173648 0.98106
    outer loop
      vertex 0.152522 20.5 3.49328
      vertex 20.5 20.5 1.71311
      vertex 9.40182 22.3767 2.35189
    endloop
  endfacet
  facet normal -0.207912 0.978148 0
    outer loop
      vertex 1.30661 -12.4315 -20
      vertex 1.30661 -12.4315 -7
      vertex 3.86271 -11.8882 -20
    endloop
  endfacet
  facet normal 0 0 -1
    outer loop
      vertex 1.30661 -12.4315 -20
      vertex 3.86271 -11.8882 -20
      vertex 35 -27.5 -20
    endloop
  endfacet
  facet normal -0 0 1
    outer loop
      vertex 1.30661 -12.4315 -7
      vertex 20.5 -20.5 -7
      vertex 3.86271 -11.8882 -7
    endloop
  endfacet
  facet normal -0.207912 0.978148 0
    outer loop
      vertex 1.30661 -12.4315 -7
      vertex 3.86271 -11.8882 -7
      vertex 3.86271 -11.8882 -20
    endloop
  endfacet
  facet normal -0.207912 -0.978148 -0
    outer loop
      vertex 1.30661 12.4315 -20
      vertex 3.86271 11.8882 -20
      vertex 3.86271 11.8882 -7
    endloop
  endfacet
  facet normal -0.207912 -0.978148 0
    outer loop
      vertex 1.30661 12.4315 -20
      vertex 3.86271 11.8882 -7
      vertex 1.30661 12.4315 -7
    endloop
  endfacet
  facet normal 0 0 -1
    outer loop
      vertex 1.30661 12.4315 -20
      vertex 35 27.5 -20
      vertex 3.86271 11.8882 -20
    endloop
  endfacet
  facet normal 0 0 1
    outer loop
      vertex 1.30661 12.4315 -7
      vertex 3.86271 11.8882 -7
      vertex 20.5 20.5 -7
    endloop
  endfacet
  facet normal -0.866025 0.5 0
    outer loop
      vertex 10.1127 -7.34731 -21.2474
      vertex 10.1127 -7.34731 -7
      vertex 11.4193 -5.08421 -7
    endloop
  endfacet
  facet normal -1.33313e-07 -0.358369 -0.93358
    outer loop
      vertex 10.1127 -7.34731 -21.2474
      vertex 10.3404 -6.95288 -21.3988
      vertex 21.8135 -9.15157 -20.5548
    endloop
  endfacet
  facet normal -0.866025 0.5 4.85548e-08
    outer loop
      vertex 10.1127 -7.34731 -21.2474
      vertex 11.4193 -5.08421 -7
      vertex 10.3404 -6.95288 -21.3988
    endloop
  endfacet
  facet normal -0 0 1
    outer loop
      vertex 10.1127 -7.34731 -7
      vertex 20.5 -20.5 -7
      vertex 11.4193 -5.08421 -7
    endloop
  endfacet
  facet normal -0.866025 -0.5 4.85548e-08
    outer loop
      vertex 10.1127 7.34731 -21.2474
      vertex 10.3404 6.95288 -21.3988
      vertex 11.4193 5.08421 -7
    endloop
  endfacet
  facet normal -0.866025 -0.5 0
    outer loop
      vertex 10.1127 7.34731 -21.2474
      vertex 11.4193 5.08421 -7
      vertex 10.1127 7.34731 -7
    endloop
  endfacet
  facet normal -1.33313e-07 0.358369 -0.93358
    outer loop
      vertex 10.1127 7.34731 -21.2474
      vertex 21.8135 9.15157 -20.5548
      vertex 10.3404 6.95288 -21.3988
    endloop
  endfacet
  facet normal 0 0 1
    outer loop
      vertex 10.1127 7.34731 -7
      vertex 11.4193 5.08421 -7
      vertex 20.5 20.5 -7
    endloop
  endfacet
  facet normal 0 -0.258819 -0.965926
    outer loop
      vertex 10.3404 -6.95288 -21.3988
      vertex 11.4193 -5.08421 -21.8995
      vertex 20.9695 -6.95288 -21.3988
    endloop
  endfacet
  facet normal -0.866025 0.5 0
    outer loop
      vertex 10.3404 -6.95288 -21.3988
      vertex 11.4193 -5.08421 -7
      vertex 11.4193 -5.08421 -21.8995
    endloop
  endfacet
  facet normal 0 -0.358368 -0.93358
    outer loop
      vertex 10.3404 -6.95288 -21.3988
      vertex 20.9695 -6.95288 -21.3988
      vertex 21.8135 -9.15157 -20.5548
    endloop
  endfacet
  facet normal -0.866025 -0.5 -0
    outer loop
      vertex 10.3404 6.95288 -21.3988
      vertex 11.4193 5.08421 -21.8995
      vertex 11.4193 5.08421 -7
    endloop
  endfacet
  facet normal 0 0.258819 -0.965926
    outer loop
      vertex 10.3404 6.95288 -21.3988
      vertex 20.9695 6.95288 -21.3988
      vertex 11.4193 5.08421 -21.8995
    endloop
  endfacet
  facet normal 0 0.358368 -0.93358
    outer loop
      vertex 10.3404 6.95288 -21.3988
      vertex 21.8135 9.15157 -20.5548
      vertex 20.9695 6.95288 -21.3988
    endloop
  endfacet
  facet normal -0.951057 0.309017 0
    outer loop
      vertex 11.4193 -5.08421 -21.8995
      vertex 11.4193 -5.08421 -7
      vertex 12.2268 -2.5989 -7
    endloop
  endfacet
  facet normal -0 -0.258818 -0.965926
    outer loop
      vertex 11.4193 -5.08421 -21.8995
      vertex 11.5513 -4.67801 -22.0083
      vertex 20.3599 -4.67801 -22.0083
    endloop
  endfacet
  facet normal -0.951056 0.309017 -9.47557e-08
    outer loop
      vertex 11.4193 -5.08421 -21.8995
      vertex 12.2268 -2.5989 -7
      vertex 11.5513 -4.67801 -22.0083
    endloop
  endfacet
  facet normal 3.97429e-08 -0.258819 -0.965926
    outer loop
      vertex 11.4193 -5.08421 -21.8995
      vertex 20.3599 -4.67801 -22.0083
      vertex 20.9695 -6.95288 -21.3988
    endloop
  endfacet
  facet normal -0 0 1
    outer loop
      vertex 11.4193 -5.08421 -7
      vertex 20.5 -20.5 -7
      vertex 12.2268 -2.5989 -7
    endloop
  endfacet
  facet normal -0.951056 -0.309017 -9.47557e-08
    outer loop
      vertex 11.4193 5.08421 -21.8995
      vertex 11.5513 4.67801 -22.0083
      vertex 12.2268 2.5989 -7
    endloop
  endfacet
  facet normal -0.951057 -0.309017 0
    outer loop
      vertex 11.4193 5.08421 -21.8995
      vertex 12.2268 2.5989 -7
      vertex 11.4193 5.08421 -7
    endloop
  endfacet
  facet normal 0 0.258818 -0.965926
    outer loop
      vertex 11.4193 5.08421 -21.8995
      vertex 20.3599 4.67801 -22.0083
      vertex 11.5513 4.67801 -22.0083
    endloop
  endfacet
  facet normal 3.97429e-08 0.258819 -0.965926
    outer loop
      vertex 11.4193 5.08421 -21.8995
      vertex 20.9695 6.95288 -21.3988
      vertex 20.3599 4.67801 -22.0083
    endloop
  endfacet
  facet normal 0 0 1
    outer loop
      vertex 11.4193 5.08421 -7
      vertex 12.2268 2.5989 -7
      vertex 20.5 20.5 -7
    endloop
  endfacet
  facet normal 0 -0.156435 -0.987688
    outer loop
      vertex 11.5513 -4.67801 -22.0083
      vertex 12.2268 -2.5989 -22.3376
      vertex 20.3599 -4.67801 -22.0083
    endloop
  endfacet
  facet normal -0.951057 0.309017 0
    outer loop
      vertex 11.5513 -4.67801 -22.0083
      vertex 12.2268 -2.5989 -7
      vertex 12.2268 -2.5989 -22.3376
    endloop
  endfacet
  facet normal -0.951057 -0.309017 -0
    outer loop
      vertex 11.5513 4.67801 -22.0083
      vertex 12.2268 2.5989 -22.3376
      vertex 12.2268 2.5989 -7
    endloop
  endfacet
  facet normal 0 0.156435 -0.987688
    outer loop
      vertex 11.5513 4.67801 -22.0083
      vertex 20.3599 4.67801 -22.0083
      vertex 12.2268 2.5989 -22.3376
    endloop
  endfacet
  facet normal -0.994522 0.104529 0
    outer loop
      vertex 12.2268 -2.5989 -22.3376
      vertex 12.2268 -2.5989 -7
      vertex 12.3459 -1.46631 -22.4232
    endloop
  endfacet
  facet normal -0 -0.156441 -0.987687
    outer loop
      vertex 12.2268 -2.5989 -22.3376
      vertex 12.2528 -2.35189 -22.3767
      vertex 19.9722 -2.35189 -22.3767
    endloop
  endfacet
  facet normal -0.994522 0.104528 -1.66688e-05
    outer loop
      vertex 12.2268 -2.5989 -22.3376
      vertex 12.3459 -1.46631 -22.4232
      vertex 12.2528 -2.35189 -22.3767
    endloop
  endfacet
  facet normal -1.43364e-07 -0.156436 -0.987688
    outer loop
      vertex 12.2268 -2.5989 -22.3376
      vertex 19.9722 -2.35189 -22.3767
      vertex 20.0739 -2.87213 -22.2943
    endloop
  endfacet
  facet normal -9.86917e-08 -0.156435 -0.987688
    outer loop
      vertex 12.2268 -2.5989 -22.3376
      vertex 20.0739 -2.87213 -22.2943
      vertex 20.3599 -4.67801 -22.0083
    endloop
  endfacet
  facet normal -0.994522 0.104529 -2.66699e-08
    outer loop
      vertex 12.2268 -2.5989 -7
      vertex 12.5 0 -7
      vertex 12.3459 -1.46631 -22.4232
    endloop
  endfacet
  facet normal -0 0 1
    outer loop
      vertex 12.2268 -2.5989 -7
      vertex 20.5 -20.5 -7
      vertex 12.5 0 -7
    endloop
  endfacet
  facet normal -0.994522 -0.104528 -1.66688e-05
    outer loop
      vertex 12.2268 2.5989 -22.3376
      vertex 12.2528 2.35189 -22.3767
      vertex 12.3459 1.46631 -22.4232
    endloop
  endfacet
  facet normal -0.994522 -0.104529 0
    outer loop
      vertex 12.2268 2.5989 -22.3376
      vertex 12.3459 1.46631 -22.4232
      vertex 12.2268 2.5989 -7
    endloop
  endfacet
  facet normal 0 0.156441 -0.987687
    outer loop
      vertex 12.2268 2.5989 -22.3376
      vertex 19.9722 2.35189 -22.3767
      vertex 12.2528 2.35189 -22.3767
    endloop
  endfacet
  facet normal -1.43364e-07 0.156436 -0.987688
    outer loop
      vertex 12.2268 2.5989 -22.3376
      vertex 20.0739 2.87213 -22.2943
      vertex 19.9722 2.35189 -22.3767
    endloop
  endfacet
  facet normal -9.86917e-08 0.156435 -0.987688
    outer loop
      vertex 12.2268 2.5989 -22.3376
      vertex 20.3599 4.67801 -22.0083
      vertex 20.0739 2.87213 -22.2943
    endloop
  endfacet
  facet normal -0.994522 -0.104529 -2.66699e-08
    outer loop
      vertex 12.2268 2.5989 -7
      vertex 12.3459 1.46631 -22.4232
      vertex 12.5 0 -7
    endloop
  endfacet
  facet normal 0 0 1
    outer loop
      vertex 12.2268 2.5989 -7
      vertex 12.5 0 -7
      vertex 20.5 20.5 -7
    endloop
  endfacet
  facet normal 0 -0.052336 -0.99863
    outer loop
      vertex 12.2528 -2.35189 -22.3767
      vertex 12.3459 -1.46631 -22.4232
      vertex 19.9722 -2.35189 -22.3767
    endloop
  endfacet
  facet normal 0 0.052336 -0.99863
    outer loop
      vertex 12.2528 2.35189 -22.3767
      vertex 19.9722 2.35189 -22.3767
      vertex 12.3459 1.46631 -22.4232
    endloop
  endfacet
  facet normal 8.6397e-08 -0.0523355 -0.99863
    outer loop
      vertex 12.3459 -1.46631 -22.4232
      vertex 12.5 0 -22.5
      vertex 19.9264 -1.64459 -22.4138
    endloop
  endfacet
  facet normal -0.994522 0.104528 0
    outer loop
      vertex 12.3459 -1.46631 -22.4232
      vertex 12.5 0 -7
      vertex 12.5 0 -22.5
    endloop
  endfacet
  facet normal 9.2728e-08 -0.0523352 -0.99863
    outer loop
      vertex 12.3459 -1.46631 -22.4232
      vertex 19.9264 -1.64459 -22.4138
      vertex 19.9722 -2.35189 -22.3767
    endloop
  endfacet
  facet normal -0.994522 -0.104528 -0
    outer loop
      vertex 12.3459 1.46631 -22.4232
      vertex 12.5 0 -22.5
      vertex 12.5 0 -7
    endloop
  endfacet
  facet normal 8.6397e-08 0.0523355 -0.99863
    outer loop
      vertex 12.3459 1.46631 -22.4232
      vertex 19.9264 1.64459 -22.4138
      vertex 12.5 0 -22.5
    endloop
  endfacet
  facet normal 9.2728e-08 0.0523352 -0.99863
    outer loop
      vertex 12.3459 1.46631 -22.4232
      vertex 19.9722 2.35189 -22.3767
      vertex 19.9264 1.64459 -22.4138
    endloop
  endfacet
  facet normal 0 -0.0523359 -0.99863
    outer loop
      vertex 12.5 0 -22.5
      vertex 19.82 0 -22.5
      vertex 19.9264 -1.64459 -22.4138
    endloop
  endfacet
  facet normal 0 0.0523359 -0.99863
    outer loop
      vertex 12.5 0 -22.5
      vertex 19.9264 1.64459 -22.4138
      vertex 19.82 0 -22.5
    endloop
  endfacet
  facet normal 0 0 1
    outer loop
      vertex 12.5 0 -7
      vertex 20.5 -20.5 -7
      vertex 20.5 20.5 -7
    endloop
  endfacet
  facet normal 0.629324 0 -0.777143
    outer loop
      vertex 19.82 0 -22.5
      vertex 19.9264 1.64459 -22.4138
      vertex 19.9264 -1.64459 -22.4138
    endloop
  endfacet
  facet normal 0.629319 0 -0.777147
    outer loop
      vertex 19.9264 -1.64459 -22.4138
      vertex 19.9264 1.64459 -22.4138
      vertex 20.0739 2.87213 -22.2943
    endloop
  endfacet
  facet normal 0.629337 3.46202e-06 -0.777133
    outer loop
      vertex 19.9264 -1.64459 -22.4138
      vertex 20.0739 -2.87213 -22.2943
      vertex 19.9722 -2.35189 -22.3767
    endloop
  endfacet
  facet normal 0.629319 0 -0.777147
    outer loop
      vertex 19.9264 -1.64459 -22.4138
      vertex 20.0739 2.87213 -22.2943
      vertex 20.0739 -2.87213 -22.2943
    endloop
  endfacet
  facet normal 0.629337 -3.46202e-06 -0.777133
    outer loop
      vertex 19.9264 1.64459 -22.4138
      vertex 19.9722 2.35189 -22.3767
      vertex 20.0739 2.87213 -22.2943
    endloop
  endfacet
  facet normal 0.707107 0 -0.707107
    outer loop
      vertex 20.0739 -2.87213 -22.2943
      vertex 20.0739 2.87213 -22.2943
      vertex 22.2943 10.0953 -20.0739
    endloop
  endfacet
  facet normal 0.707101 -2.68348e-06 -0.707113
    outer loop
      vertex 20.0739 -2.87213 -22.2943
      vertex 20.9695 -6.95288 -21.3988
      vertex 20.3599 -4.67801 -22.0083
    endloop
  endfacet
  facet normal 0.707107 0 -0.707107
    outer loop
      vertex 20.0739 -2.87213 -22.2943
      vertex 22.2943 -10.0953 -20.0739
      vertex 20.9695 -6.95288 -21.3988
    endloop
  endfacet
  facet normal 0.707107 0 -0.707107
    outer loop
      vertex 20.0739 -2.87213 -22.2943
      vertex 22.2943 10.0953 -20.0739
      vertex 22.2943 -10.0953 -20.0739
    endloop
  endfacet
  facet normal 0.707104 1.54061e-06 -0.707109
    outer loop
      vertex 20.0739 2.87213 -22.2943
      vertex 20.3599 4.67801 -22.0083
      vertex 22.2943 10.0953 -20.0739
    endloop
  endfacet
  facet normal 0.707109 -1.62675e-06 -0.707105
    outer loop
      vertex 20.3599 4.67801 -22.0083
      vertex 20.9695 6.95288 -21.3988
      vertex 22.2943 10.0953 -20.0739
    endloop
  endfacet
  facet normal -1 0 0
    outer loop
      vertex 20.5 -20.5 -7
      vertex 20.5 -20.5 1.46243
      vertex 20.5 0.74856 5.20912
    endloop
  endfacet
  facet normal -1 0 0
    outer loop
      vertex 20.5 -20.5 -7
      vertex 20.5 0.74856 5.20912
      vertex 20.5 20.5 -7
    endloop
  endfacet
  facet normal -1 0 0
    outer loop
      vertex 20.5 0.74856 5.20912
      vertex 20.5 20.5 1.71311
      vertex 20.5 20.5 -7
    endloop
  endfacet
  facet normal 0.0858319 0.173648 0.98106
    outer loop
      vertex 20.5 0.74856 5.20912
      vertex 21.0498 0.612426 5.18512
      vertex 29.8357 7.84745 3.13585
    endloop
  endfacet
  facet normal 0.0858317 0.173648 0.98106
    outer loop
      vertex 20.5 0.74856 5.20912
      vertex 29.8357 7.84745 3.13585
      vertex 20.5 20.5 1.71311
    endloop
  endfacet
  facet normal -3.9483e-07 0.173648 -0.984808
    outer loop
      vertex 20.5 0.74856 5.20912
      vertex 30 21.2899 8.83112
      vertex 21.0498 0.612426 5.18512
    endloop
  endfacet
  facet normal 0.0858317 0.173648 0.98106
    outer loop
      vertex 20.5 20.5 1.71311
      vertex 29.8357 7.84745 3.13585
      vertex 29.9719 22.4719 0.535387
    endloop
  endfacet
  facet normal 0.707099 -6.85279e-06 -0.707115
    outer loop
      vertex 20.9695 -6.95288 -21.3988
      vertex 22.2943 -10.0953 -20.0739
      vertex 21.8135 -9.15157 -20.5548
    endloop
  endfacet
  facet normal 0.707099 6.85279e-06 -0.707115
    outer loop
      vertex 20.9695 6.95288 -21.3988
      vertex 21.8135 9.15157 -20.5548
      vertex 22.2943 10.0953 -20.0739
    endloop
  endfacet
  facet normal 0.0871558 -1.91831e-08 0.996195
    outer loop
      vertex 21.0498 0.612426 5.18512
      vertex 23.5184 -0.612426 4.96915
      vertex 29.63 0.612426 4.43445
    endloop
  endfacet
  facet normal 0.0858316 0.173648 0.98106
    outer loop
      vertex 21.0498 0.612426 5.18512
      vertex 29.63 0.612426 4.43445
      vertex 29.8357 7.84745 3.13585
    endloop
  endfacet
  facet normal -1.68752e-08 0.173648 -0.984808
    outer loop
      vertex 21.0498 0.612426 5.18512
      vertex 30 21.2899 8.83112
      vertex 23.5184 -0.612426 4.96915
    endloop
  endfacet
  facet normal -6.29412e-06 -0.453993 -0.891005
    outer loop
      vertex 21.8135 -9.15157 -20.5548
      vertex 22.2943 -10.0953 -20.0739
      vertex 22.3542 -10.2404 -20
    endloop
  endfacet
  facet normal -6.29412e-06 0.453993 -0.891005
    outer loop
      vertex 21.8135 9.15157 -20.5548
      vertex 22.3542 10.2404 -20
      vertex 22.2943 10.0953 -20.0739
    endloop
  endfacet
  facet normal 0.77715 0 -0.629316
    outer loop
      vertex 22.2943 -10.0953 -20.0739
      vertex 22.2943 10.0953 -20.0739
      vertex 22.3542 10.2404 -20
    endloop
  endfacet
  facet normal 0.77715 0 -0.629316
    outer loop
      vertex 22.2943 -10.0953 -20.0739
      vertex 22.3542 10.2404 -20
      vertex 22.3542 -10.2404 -20
    endloop
  endfacet
  facet normal 0 0 -1
    outer loop
      vertex 22.3542 -10.2404 -20
      vertex 22.3542 10.2404 -20
      vertex 35 27.5 -20
    endloop
  endfacet
  facet normal 0 0 -1
    outer loop
      vertex 22.3542 -10.2404 -20
      vertex 35 27.5 -20
      vertex 35 -27.5 -20
    endloop
  endfacet
  facet normal 1.9118e-08 0.173648 -0.984808
    outer loop
      vertex 23.3503 -22.4413 1.12013
      vertex 23.5184 -0.612426 4.96915
      vertex 30 -23.0264 1.01695
    endloop
  endfacet
  facet normal 0.0858316 -0.173648 0.98106
    outer loop
      vertex 23.3503 -22.4413 1.12013
      vertex 29.8357 -7.84745 3.13585
      vertex 23.5184 -0.612426 4.96915
    endloop
  endfacet
  facet normal 0.0858316 -0.173648 0.98106
    outer loop
      vertex 23.3503 -22.4413 1.12013
      vertex 29.9719 -22.4719 0.535387
      vertex 29.8357 -7.84745 3.13585
    endloop
  endfacet
  facet normal 1.95849e-08 -0.998629 0.052337
    outer loop
      vertex 23.3503 -22.4413 1.12013
      vertex 30 -22.5 0
      vertex 29.9719 -22.4719 0.535387
    endloop
  endfacet
  facet normal 0.0871557 0 0.996195
    outer loop
      vertex 23.5184 -0.612426 4.96915
      vertex 29.63 -0.612426 4.43445
      vertex 29.63 0.612426 4.43445
    endloop
  endfacet
  facet normal 0.0858316 -0.173648 0.98106
    outer loop
      vertex 23.5184 -0.612426 4.96915
      vertex 29.8357 -7.84745 3.13585
      vertex 29.63 -0.612426 4.43445
    endloop
  endfacet
  facet normal -2.26388e-08 0.173648 -0.984808
    outer loop
      vertex 23.5184 -0.612426 4.96915
      vertex 30 21.2899 8.83112
      vertex 30 -23.0264 1.01695
    endloop
  endfacet
  facet normal 0.965927 0 -0.258814
    outer loop
      vertex 29.3065 -21.5526 -6.37881
      vertex 29.3444 -20.7347 -6.23735
      vertex 29.3444 -21.5905 -6.23735
    endloop
  endfacet
  facet normal -8.08752e-05 -0.965929 -0.258806
    outer loop
      vertex 29.3065 -21.5526 -6.37881
      vertex 29.3444 -21.5905 -6.23735
      vertex 29.5914 -22.0083 -4.67801
    endloop
  endfacet
  facet normal 0.0858316 -0.173648 0.98106
    outer loop
      vertex 29.3065 -21.5526 -6.37881
      vertex 35 -27.5 -7.92962
      vertex 29.3444 -20.7347 -6.23735
    endloop
  endfacet
  facet normal 0.0858316 0.173648 0.98106
    outer loop
      vertex 29.3065 21.5526 -6.37881
      vertex 29.3444 20.7347 -6.23735
      vertex 35 27.5 -7.92962
    endloop
  endfacet
  facet normal 0.965927 0 -0.258814
    outer loop
      vertex 29.3065 21.5526 -6.37881
      vertex 29.3444 21.5905 -6.23735
      vertex 29.3444 20.7347 -6.23735
    endloop
  endfacet
  facet normal -8.08752e-05 0.965929 -0.258806
    outer loop
      vertex 29.3065 21.5526 -6.37881
      vertex 29.5914 22.0083 -4.67801
      vertex 29.3444 21.5905 -6.23735
    endloop
  endfacet
  facet normal 0.987688 0 -0.156434
    outer loop
      vertex 29.3444 -20.7347 -6.23735
      vertex 29.8357 -2.96933 -3.13585
      vertex 29.8357 -22.2526 -3.13585
    endloop
  endfacet
  facet normal 0.987688 9.45839e-07 -0.156434
    outer loop
      vertex 29.3444 -20.7347 -6.23735
      vertex 29.8357 -22.2526 -3.13585
      vertex 29.5914 -22.0083 -4.67801
    endloop
  endfacet
  facet normal 0.0858316 -0.173648 0.98106
    outer loop
      vertex 29.3444 -20.7347 -6.23735
      vertex 35 -27.5 -7.92962
      vertex 35 0 -3.0621
    endloop
  endfacet
  facet normal 0.0858316 -0.173648 0.98106
    outer loop
      vertex 29.3444 -20.7347 -6.23735
      vertex 35 0 -3.0621
      vertex 29.8357 -2.96933 -3.13585
    endloop
  endfacet
  facet normal 0.987688 0 -0.156435
    outer loop
      vertex 29.3444 -21.5905 -6.23735
      vertex 29.3444 -20.7347 -6.23735
      vertex 29.5914 -22.0083 -4.67801
    endloop
  endfacet
  facet normal 0.987688 0 -0.156435
    outer loop
      vertex 29.3444 20.7347 -6.23735
      vertex 29.3444 21.5905 -6.23735
      vertex 29.5914 22.0083 -4.67801
    endloop
  endfacet
  facet normal 0.987688 -9.45839e-07 -0.156434
    outer loop
      vertex 29.3444 20.7347 -6.23735
      vertex 29.5914 22.0083 -4.67801
      vertex 29.8357 22.2526 -3.13585
    endloop
  endfacet
  facet normal 0.0858316 0.173648 0.98106
    outer loop
      vertex 29.3444 20.7347 -6.23735
      vertex 29.8357 2.96933 -3.13585
      vertex 35 0 -3.0621
    endloop
  endfacet
  facet normal 0.987688 0 -0.156434
    outer loop
      vertex 29.3444 20.7347 -6.23735
      vertex 29.8357 22.2526 -3.13585
      vertex 29.8357 2.96933 -3.13585
    endloop
  endfacet
  facet normal 0.0858316 0.173648 0.98106
    outer loop
      vertex 29.3444 20.7347 -6.23735
      vertex 35 0 -3.0621
      vertex 35 27.5 -7.92962
    endloop
  endfacet
  facet normal 0.987688 0 0.156434
    outer loop
      vertex 29.63 -0.612426 4.43445
      vertex 29.8357 -7.84745 3.13585
      vertex 29.8357 7.84745 3.13585
    endloop
  endfacet
  facet normal 0.987688 -0 0.156434
    outer loop
      vertex 29.63 -0.612426 4.43445
      vertex 29.8357 7.84745 3.13585
      vertex 29.63 0.612426 4.43445
    endloop
  endfacet
  facet normal 0.99863 -5.66228e-07 -0.0523359
    outer loop
      vertex 29.8357 -2.96933 -3.13585
      vertex 29.8631 0 -2.61268
      vertex 30 0 0
    endloop
  endfacet
  facet normal 0.99863 -2.57725e-09 -0.0523365
    outer loop
      vertex 29.8357 -2.96933 -3.13585
      vertex 30 -22.5 0
      vertex 29.8767 -22.3767 -2.35189
    endloop
  endfacet
  facet normal 0.99863 0 -0.0523365
    outer loop
      vertex 29.8357 -2.96933 -3.13585
      vertex 30 0 0
      vertex 30 -22.5 0
    endloop
  endfacet
  facet normal 0.0858317 -0.173648 0.98106
    outer loop
      vertex 29.8357 -2.96933 -3.13585
      vertex 35 0 -3.0621
      vertex 29.8631 0 -2.61268
    endloop
  endfacet
  facet normal 0.99863 0 -0.0523364
    outer loop
      vertex 29.8357 -22.2526 -3.13585
      vertex 29.8357 -2.96933 -3.13585
      vertex 29.8767 -22.3767 -2.35189
    endloop
  endfacet
  facet normal 0.998629 -1.05651e-07 0.052337
    outer loop
      vertex 29.8357 -7.84745 3.13585
      vertex 29.9719 -22.4719 0.535387
      vertex 30 -22.5 0
    endloop
  endfacet
  facet normal 0.99863 0 0.0523365
    outer loop
      vertex 29.8357 -7.84745 3.13585
      vertex 30 -22.5 0
      vertex 30 0 0
    endloop
  endfacet
  facet normal 0.99863 -0 0.0523365
    outer loop
      vertex 29.8357 -7.84745 3.13585
      vertex 30 0 0
      vertex 29.8357 7.84745 3.13585
    endloop
  endfacet
  facet normal 0.99863 0 -0.0523364
    outer loop
      vertex 29.8357 2.96933 -3.13585
      vertex 29.8357 22.2526 -3.13585
      vertex 29.8767 22.3767 -2.35189
    endloop
  endfacet
  facet normal 0.0858317 0.173648 0.98106
    outer loop
      vertex 29.8357 2.96933 -3.13585
      vertex 29.8631 0 -2.61268
      vertex 35 0 -3.0621
    endloop
  endfacet
  facet normal 0.99863 2.57725e-09 -0.0523365
    outer loop
      vertex 29.8357 2.96933 -3.13585
      vertex 29.8767 22.3767 -2.35189
      vertex 30 22.5 0
    endloop
  endfacet
  facet normal 0.99863 5.66228e-07 -0.0523359
    outer loop
      vertex 29.8357 2.96933 -3.13585
      vertex 30 0 0
      vertex 29.8631 0 -2.61268
    endloop
  endfacet
  facet normal 0.99863 0 -0.0523365
    outer loop
      vertex 29.8357 2.96933 -3.13585
      vertex 30 22.5 0
      vertex 30 0 0
    endloop
  endfacet
  facet normal 0.99863 0 0.0523365
    outer loop
      vertex 29.8357 7.84745 3.13585
      vertex 30 0 0
      vertex 30 22.5 0
    endloop
  endfacet
  facet normal 0.998629 1.05651e-07 0.052337
    outer loop
      vertex 29.8357 7.84745 3.13585
      vertex 30 22.5 0
      vertex 29.9719 22.4719 0.535387
    endloop
  endfacet
  facet normal -0.406736 0.913546 0
    outer loop
      vertex 3.86271 -11.8882 -20
      vertex 3.86271 -11.8882 -7
      vertex 6.25 -10.8253 -20
    endloop
  endfacet
  facet normal 0 0 -1
    outer loop
      vertex 3.86271 -11.8882 -20
      vertex 6.25 -10.8253 -20
      vertex 35 -27.5 -20
    endloop
  endfacet
  facet normal -0 0 1
    outer loop
      vertex 3.86271 -11.8882 -7
      vertex 20.5 -20.5 -7
      vertex 6.25 -10.8253 -7
    endloop
  endfacet
  facet normal -0.406736 0.913546 0
    outer loop
      vertex 3.86271 -11.8882 -7
      vertex 6.25 -10.8253 -7
      vertex 6.25 -10.8253 -20
    endloop
  endfacet
  facet normal 0 0 -1
    outer loop
      vertex 3.86271 11.8882 -20
      vertex 35 27.5 -20
      vertex 6.25 10.8253 -20
    endloop
  endfacet
  facet normal -0.406736 -0.913546 -0
    outer loop
      vertex 3.86271 11.8882 -20
      vertex 6.25 10.8253 -20
      vertex 6.25 10.8253 -7
    endloop
  endfacet
  facet normal -0.406736 -0.913546 0
    outer loop
      vertex 3.86271 11.8882 -20
      vertex 6.25 10.8253 -7
      vertex 3.86271 11.8882 -7
    endloop
  endfacet
  facet normal 0 0 1
    outer loop
      vertex 3.86271 11.8882 -7
      vertex 6.25 10.8253 -7
      vertex 20.5 20.5 -7
    endloop
  endfacet
  facet normal -1.90053e-08 0.173648 -0.984808
    outer loop
      vertex 30 -22.1582 -3.90708
      vertex 30 0 0
      vertex 35 -27.0822 -4.77532
    endloop
  endfacet
  facet normal -1 0 0
    outer loop
      vertex 30 -23.0264 1.01695
      vertex 30 0 0
      vertex 30 -22.1582 -3.90708
    endloop
  endfacet
  facet normal -1 0 0
    outer loop
      vertex 30 -23.0264 1.01695
      vertex 30 21.2899 8.83112
      vertex 30 0 0
    endloop
  endfacet
  facet normal -1 0 0
    outer loop
      vertex 30 0 0
      vertex 30 21.2899 8.83112
      vertex 30 22.1582 3.90708
    endloop
  endfacet
  facet normal 1.90053e-08 0.173648 -0.984808
    outer loop
      vertex 30 0 0
      vertex 30 22.1582 3.90708
      vertex 35 27.0822 4.77532
    endloop
  endfacet
  facet normal 0 0.173648 -0.984808
    outer loop
      vertex 30 0 0
      vertex 35 27.0822 4.77532
      vertex 35 -27.0822 -4.77532
    endloop
  endfacet
  facet normal 1 0 0
    outer loop
      vertex 35 -27.0822 -4.77532
      vertex 35 27.0822 4.77532
      vertex 35 25.3457 14.6234
    endloop
  endfacet
  facet normal 1 0 0
    outer loop
      vertex 35 -27.5 -20
      vertex 35 0 -3.0621
      vertex 35 -27.5 -7.92962
    endloop
  endfacet
  facet normal 1 0 0
    outer loop
      vertex 35 -27.5 -20
      vertex 35 27.5 -20
      vertex 35 0 -3.0621
    endloop
  endfacet
  facet normal 1 0 -0
    outer loop
      vertex 35 -28.8187 5.07275
      vertex 35 -27.0822 -4.77532
      vertex 35 25.3457 14.6234
    endloop
  endfacet
  facet normal 1 0 0
    outer loop
      vertex 35 0 -3.0621
      vertex 35 27.5 -20
      vertex 35 27.5 -7.92962
    endloop
  endfacet
  facet normal 0 0 -1
    outer loop
      vertex 6.25 -10.8253 -20
      vertex 22.3542 -10.2404 -20
      vertex 35 -27.5 -20
    endloop
  endfacet
  facet normal -0.587786 0.809017 0
    outer loop
      vertex 6.25 -10.8253 -20
      vertex 6.25 -10.8253 -7
      vertex 7.0551 -10.2404 -20
    endloop
  endfacet
  facet normal -0 0 -1
    outer loop
      vertex 6.25 -10.8253 -20
      vertex 7.0551 -10.2404 -20
      vertex 22.3542 -10.2404 -20
    endloop
  endfacet
  facet normal -0 0 1
    outer loop
      vertex 6.25 -10.8253 -7
      vertex 20.5 -20.5 -7
      vertex 8.36413 -9.28931 -7
    endloop
  endfacet
  facet normal -0.587786 0.809017 -4.16935e-10
    outer loop
      vertex 6.25 -10.8253 -7
      vertex 8.36413 -9.28931 -7
      vertex 7.0551 -10.2404 -20
    endloop
  endfacet
  facet normal 0 0 -1
    outer loop
      vertex 6.25 10.8253 -20
      vertex 22.3542 10.2404 -20
      vertex 7.0551 10.2404 -20
    endloop
  endfacet
  facet normal 0 0 -1
    outer loop
      vertex 6.25 10.8253 -20
      vertex 35 27.5 -20
      vertex 22.3542 10.2404 -20
    endloop
  endfacet
  facet normal -0.587786 -0.809017 0
    outer loop
      vertex 6.25 10.8253 -20
      vertex 7.0551 10.2404 -20
      vertex 6.25 10.8253 -7
    endloop
  endfacet
  facet normal -0.587786 -0.809017 -4.16935e-10
    outer loop
      vertex 6.25 10.8253 -7
      vertex 7.0551 10.2404 -20
      vertex 8.36413 9.28931 -7
    endloop
  endfacet
  facet normal 0 0 1
    outer loop
      vertex 6.25 10.8253 -7
      vertex 8.36413 9.28931 -7
      vertex 20.5 20.5 -7
    endloop
  endfacet
  facet normal 0 -0.453991 -0.891006
    outer loop
      vertex 7.0551 -10.2404 -20
      vertex 8.36413 -9.28931 -20.4846
      vertex 22.3542 -10.2404 -20
    endloop
  endfacet
  facet normal -0.587786 0.809017 0
    outer loop
      vertex 7.0551 -10.2404 -20
      vertex 8.36413 -9.28931 -7
      vertex 8.36413 -9.28931 -20.4846
    endloop
  endfacet
  facet normal 0 0.453991 -0.891006
    outer loop
      vertex 7.0551 10.2404 -20
      vertex 22.3542 10.2404 -20
      vertex 8.36413 9.28931 -20.4846
    endloop
  endfacet
  facet normal -0.587786 -0.809017 -0
    outer loop
      vertex 7.0551 10.2404 -20
      vertex 8.36413 9.28931 -20.4846
      vertex 8.36413 9.28931 -7
    endloop
  endfacet
  facet normal -0.743144 0.669131 -1.62979e-07
    outer loop
      vertex 8.36413 -9.28931 -20.4846
      vertex 10.1127 -7.34731 -7
      vertex 8.48815 -9.15157 -20.5548
    endloop
  endfacet
  facet normal -0.743145 0.669131 0
    outer loop
      vertex 8.36413 -9.28931 -20.4846
      vertex 8.36413 -9.28931 -7
      vertex 10.1127 -7.34731 -7
    endloop
  endfacet
  facet normal 2.91438e-07 -0.453987 -0.891008
    outer loop
      vertex 8.36413 -9.28931 -20.4846
      vertex 8.48815 -9.15157 -20.5548
      vertex 22.3542 -10.2404 -20
    endloop
  endfacet
  facet normal -0 0 1
    outer loop
      vertex 8.36413 -9.28931 -7
      vertex 20.5 -20.5 -7
      vertex 10.1127 -7.34731 -7
    endloop
  endfacet
  facet normal -0.743145 -0.669131 0
    outer loop
      vertex 8.36413 9.28931 -20.4846
      vertex 10.1127 7.34731 -7
      vertex 8.36413 9.28931 -7
    endloop
  endfacet
  facet normal 2.91438e-07 0.453987 -0.891008
    outer loop
      vertex 8.36413 9.28931 -20.4846
      vertex 22.3542 10.2404 -20
      vertex 8.48815 9.15157 -20.5548
    endloop
  endfacet
  facet normal -0.743144 -0.669131 -1.62979e-07
    outer loop
      vertex 8.36413 9.28931 -20.4846
      vertex 8.48815 9.15157 -20.5548
      vertex 10.1127 7.34731 -7
    endloop
  endfacet
  facet normal 0 0 1
    outer loop
      vertex 8.36413 9.28931 -7
      vertex 10.1127 7.34731 -7
      vertex 20.5 20.5 -7
    endloop
  endfacet
  facet normal 0 -0.358368 -0.93358
    outer loop
      vertex 8.48815 -9.15157 -20.5548
      vertex 10.1127 -7.34731 -21.2474
      vertex 21.8135 -9.15157 -20.5548
    endloop
  endfacet
  facet normal -0.743145 0.669131 0
    outer loop
      vertex 8.48815 -9.15157 -20.5548
      vertex 10.1127 -7.34731 -7
      vertex 10.1127 -7.34731 -21.2474
    endloop
  endfacet
  facet normal 0 -0.45399 -0.891007
    outer loop
      vertex 8.48815 -9.15157 -20.5548
      vertex 21.8135 -9.15157 -20.5548
      vertex 22.3542 -10.2404 -20
    endloop
  endfacet
  facet normal -0.743145 -0.669131 -0
    outer loop
      vertex 8.48815 9.15157 -20.5548
      vertex 10.1127 7.34731 -21.2474
      vertex 10.1127 7.34731 -7
    endloop
  endfacet
  facet normal 0 0.358368 -0.93358
    outer loop
      vertex 8.48815 9.15157 -20.5548
      vertex 21.8135 9.15157 -20.5548
      vertex 10.1127 7.34731 -21.2474
    endloop
  endfacet
  facet normal 0 0.45399 -0.891007
    outer loop
      vertex 8.48815 9.15157 -20.5548
      vertex 22.3542 10.2404 -20
      vertex 21.8135 9.15157 -20.5548
    endloop
  endfacet
  facet normal 0 -0.965926 -0.258819
    outer loop
      vertex 8.94435 -22.0083 -4.67801
      vertex 29.3065 -21.5526 -6.37881
      vertex 29.5914 -22.0083 -4.67801
    endloop
  endfacet
  facet normal 0 -0.987688 -0.156435
    outer loop
      vertex 8.94435 -22.0083 -4.67801
      vertex 29.5914 -22.0083 -4.67801
      vertex 29.8357 -22.2526 -3.13585
    endloop
  endfacet
  facet normal 1.22609e-08 -0.987688 -0.156435
    outer loop
      vertex 8.94435 -22.0083 -4.67801
      vertex 29.8357 -22.2526 -3.13585
      vertex 29.8767 -22.3767 -2.35189
    endloop
  endfacet
  facet normal 0.0858316 -0.173648 0.98106
    outer loop
      vertex 8.94435 -22.0083 -4.67801
      vertex 35 -27.5 -7.92962
      vertex 29.3065 -21.5526 -6.37881
    endloop
  endfacet
  facet normal 0.0858316 0.173648 0.98106
    outer loop
      vertex 8.94435 22.0083 -4.67801
      vertex 29.3065 21.5526 -6.37881
      vertex 35 27.5 -7.92962
    endloop
  endfacet
  facet normal 0 0.965926 -0.258819
    outer loop
      vertex 8.94435 22.0083 -4.67801
      vertex 29.5914 22.0083 -4.67801
      vertex 29.3065 21.5526 -6.37881
    endloop
  endfacet
  facet normal 0 0.987688 -0.156435
    outer loop
      vertex 8.94435 22.0083 -4.67801
      vertex 29.8357 22.2526 -3.13585
      vertex 29.5914 22.0083 -4.67801
    endloop
  endfacet
  facet normal 1.22609e-08 0.987688 -0.156435
    outer loop
      vertex 8.94435 22.0083 -4.67801
      vertex 29.8767 22.3767 -2.35189
      vertex 29.8357 22.2526 -3.13585
    endloop
  endfacet
  facet normal 0.0858317 0.173648 0.98106
    outer loop
      vertex 9.40182 22.3767 2.35189
      vertex 20.5 20.5 1.71311
      vertex 29.9719 22.4719 0.535387
    endloop
  endfacet
  facet normal 1.47269e-07 0.998629 0.052337
    outer loop
      vertex 9.40182 22.3767 2.35189
      vertex 29.9719 22.4719 0.535387
      vertex 30 22.5 0
    endloop
  endfacet
endsolid model
