solid model
  facet normal -1.92885e-06 -1 -0
    outer loop
      vertex -0.494427 -19.4783 -19.5
      vertex 0.494427 -19.4783 -19.5
      vertex 0.494427 -19.4783 -6.05498e-17
    endloop
  endfacet
  facet normal -1.92885e-06 -1 0
    outer loop
      vertex -0.494427 -19.4783 -19.5
      vertex 0.494427 -19.4783 -6.05498e-17
      vertex -0.494427 -19.4783 6.05498e-17
    endloop
  endfacet
  facet normal 0 0 -1
    outer loop
      vertex -0.494427 -19.4783 -19.5
      vertex 1.65 -18.1421 -19.5
      vertex 0.494427 -19.4783 -19.5
    endloop
  endfacet
  facet normal 0 1 0
    outer loop
      vertex -0.494427 -22.5217 -19.5
      vertex -0.494427 -22.5217 6.05498e-17
      vertex 0.494427 -22.5217 -19.5
    endloop
  endfacet
  facet normal 0 0 -1
    outer loop
      vertex -0.494427 -22.5217 -19.5
      vertex 0.494427 -22.5217 -19.5
      vertex 1.65 -23.8579 -19.5
    endloop
  endfacet
  facet normal 0 1 -0
    outer loop
      vertex -0.494427 -22.5217 6.05498e-17
      vertex 0.494427 -22.5217 -6.05498e-17
      vertex 0.494427 -22.5217 -19.5
    endloop
  endfacet
  facet normal 0.587785 -0.809017 0
    outer loop
      vertex -1.29443 -20.0595 -19.5
      vertex -0.494427 -19.4783 -19.5
      vertex -0.494427 -19.4783 6.05498e-17
    endloop
  endfacet
  facet normal 0.587785 -0.809017 0
    outer loop
      vertex -1.29443 -20.0595 -19.5
      vertex -0.494427 -19.4783 6.05498e-17
      vertex -1.29443 -20.0595 1.58522e-16
    endloop
  endfacet
  facet normal 0.587785 0.809017 0
    outer loop
      vertex -1.29443 -21.9405 -19.5
      vertex -1.29443 -21.9405 1.58522e-16
      vertex -0.494427 -22.5217 -19.5
    endloop
  endfacet
  facet normal 0.587785 0.809017 -0
    outer loop
      vertex -1.29443 -21.9405 1.58522e-16
      vertex -0.494427 -22.5217 6.05498e-17
      vertex -0.494427 -22.5217 -19.5
    endloop
  endfacet
  facet normal 0.951057 -0.309016 0
    outer loop
      vertex -1.6 -21 -19.5
      vertex -1.29443 -20.0595 -19.5
      vertex -1.6 -21 1.95943e-16
    endloop
  endfacet
  facet normal 0.951057 0.309017 0
    outer loop
      vertex -1.6 -21 -19.5
      vertex -1.29443 -21.9405 1.58522e-16
      vertex -1.29443 -21.9405 -19.5
    endloop
  endfacet
  facet normal 0.951057 0.309017 0
    outer loop
      vertex -1.6 -21 -19.5
      vertex -1.6 -21 1.95943e-16
      vertex -1.29443 -21.9405 1.58522e-16
    endloop
  endfacet
  facet normal 0.951057 -0.309016 0
    outer loop
      vertex -1.6 -21 1.95943e-16
      vertex -1.29443 -20.0595 -19.5
      vertex -1.29443 -20.0595 1.58522e-16
    endloop
  endfacet
  facet normal 0 0 -1
    outer loop
      vertex -1.65 -18.1421 -19.5
      vertex -0.494427 -19.4783 -19.5
      vertex -1.29443 -20.0595 -19.5
    endloop
  endfacet
  facet normal 0 0 -1
    outer loop
      vertex -1.65 -18.1421 -19.5
      vertex 1.65 -18.1421 -19.5
      vertex -0.494427 -19.4783 -19.5
    endloop
  endfacet
  facet normal -5.77985e-07 -1 0
    outer loop
      vertex -1.65 -18.1421 -22
      vertex 1.65 -18.1421 -19.5
      vertex -1.65 -18.1421 -19.5
    endloop
  endfacet
  facet normal -5.77985e-07 -1 -0
    outer loop
      vertex -1.65 -18.1421 -22
      vertex 1.65 -18.1421 -22
      vertex 1.65 -18.1421 -19.5
    endloop
  endfacet
  facet normal 0 0 -1
    outer loop
      vertex -1.65 -23.8579 -19.5
      vertex -0.494427 -22.5217 -19.5
      vertex 1.65 -23.8579 -19.5
    endloop
  endfacet
  facet normal -0 0 -1
    outer loop
      vertex -1.65 -23.8579 -19.5
      vertex -1.29443 -21.9405 -19.5
      vertex -0.494427 -22.5217 -19.5
    endloop
  endfacet
  facet normal 0 1 -0
    outer loop
      vertex -1.65 -23.8579 -19.5
      vertex 1.65 -23.8579 -19.5
      vertex 1.65 -23.8579 -22
    endloop
  endfacet
  facet normal 0 1 0
    outer loop
      vertex -1.65 -23.8579 -22
      vertex -1.65 -23.8579 -19.5
      vertex 1.65 -23.8579 -22
    endloop
  endfacet
  facet normal -0 0 -1
    outer loop
      vertex -10 -52 -22
      vertex -1.65 -23.8579 -22
      vertex 1.65 -23.8579 -22
    endloop
  endfacet
  facet normal -1 -0 0
    outer loop
      vertex -10 -52 -22
      vertex -10 -52 1.22465e-15
      vertex -10 10 1.22465e-15
    endloop
  endfacet
  facet normal 0 0 -1
    outer loop
      vertex -10 -52 -22
      vertex -10 10 -22
      vertex -3.3 -21 -22
    endloop
  endfacet
  facet normal -1 0 0
    outer loop
      vertex -10 -52 -22
      vertex -10 10 1.22465e-15
      vertex -10 10 -22
    endloop
  endfacet
  facet normal -0 0 -1
    outer loop
      vertex -10 -52 -22
      vertex -3.3 -21 -22
      vertex -1.65 -23.8579 -22
    endloop
  endfacet
  facet normal -0 0 -1
    outer loop
      vertex -10 -52 -22
      vertex 1.65 -23.8579 -22
      vertex 38.35 -23.8579 -22
    endloop
  endfacet
  facet normal 0 -1 0
    outer loop
      vertex -10 -52 -22
      vertex 216 -52 -2.64524e-14
      vertex -10 -52 1.22465e-15
    endloop
  endfacet
  facet normal 0 -1 -0
    outer loop
      vertex -10 -52 -22
      vertex 216 -52 -22
      vertex 216 -52 -2.64524e-14
    endloop
  endfacet
  facet normal 0 0 -1
    outer loop
      vertex -10 -52 -22
      vertex 38.35 -23.8579 -22
      vertex 54 -42 -22
    endloop
  endfacet
  facet normal 0 0 -1
    outer loop
      vertex -10 -52 -22
      vertex 54 -42 -22
      vertex 216 -52 -22
    endloop
  endfacet
  facet normal 1.22465e-16 -2.88178e-25 1
    outer loop
      vertex -10 -52 1.22465e-15
      vertex -0.494427 -22.5217 6.05498e-17
      vertex -1.29443 -21.9405 1.58522e-16
    endloop
  endfacet
  facet normal 1.22465e-16 1.66597e-24 1
    outer loop
      vertex -10 -52 1.22465e-15
      vertex -1.29443 -21.9405 1.58522e-16
      vertex -1.6 -21 1.95943e-16
    endloop
  endfacet
  facet normal 1.22465e-16 -0 1
    outer loop
      vertex -10 -52 1.22465e-15
      vertex -1.6 -21 1.95943e-16
      vertex -10 10 1.22465e-15
    endloop
  endfacet
  facet normal 1.22465e-16 -1.2492e-24 1
    outer loop
      vertex -10 -52 1.22465e-15
      vertex 0.494427 -22.5217 -6.05498e-17
      vertex -0.494427 -22.5217 6.05498e-17
    endloop
  endfacet
  facet normal 1.22465e-16 -3.54411e-25 1
    outer loop
      vertex -10 -52 1.22465e-15
      vertex 1.29443 -21.9405 -1.58522e-16
      vertex 0.494427 -22.5217 -6.05498e-17
    endloop
  endfacet
  facet normal 1.22465e-16 -8.9409e-24 1
    outer loop
      vertex -10 -52 1.22465e-15
      vertex 216 -52 -2.64524e-14
      vertex 41.0198 -24.1385 -5.02347e-15
    endloop
  endfacet
  facet normal 1.22465e-16 -1.27082e-24 1
    outer loop
      vertex -10 -52 1.22465e-15
      vertex 37.3302 -22.9397 -4.57164e-15
      vertex 1.29443 -21.9405 -1.58522e-16
    endloop
  endfacet
  facet normal 1.22465e-16 1.86536e-24 1
    outer loop
      vertex -10 -52 1.22465e-15
      vertex 38.9802 -24.1385 -4.7737e-15
      vertex 37.3302 -22.9397 -4.57164e-15
    endloop
  endfacet
  facet normal 1.22465e-16 2.36478e-22 1
    outer loop
      vertex -10 -52 1.22465e-15
      vertex 41.0198 -24.1385 -5.02347e-15
      vertex 38.9802 -24.1385 -4.7737e-15
    endloop
  endfacet
  facet normal 0 0 -1
    outer loop
      vertex -10 10 -22
      vertex -1.65 -18.1421 -22
      vertex -3.3 -21 -22
    endloop
  endfacet
  facet normal 0 1 0
    outer loop
      vertex -10 10 -22
      vertex -10 10 1.22465e-15
      vertex 216 10 -22
    endloop
  endfacet
  facet normal 0 0 -1
    outer loop
      vertex -10 10 -22
      vertex 1.65 -18.1421 -22
      vertex -1.65 -18.1421 -22
    endloop
  endfacet
  facet normal 0 0 -1
    outer loop
      vertex -10 10 -22
      vertex 216 10 -22
      vertex 54 -6.61309e-15 -22
    endloop
  endfacet
  facet normal 0 0 -1
    outer loop
      vertex -10 10 -22
      vertex 38.35 -18.1421 -22
      vertex 1.65 -18.1421 -22
    endloop
  endfacet
  facet normal 0 0 -1
    outer loop
      vertex -10 10 -22
      vertex 54 -6.61309e-15 -22
      vertex 38.35 -18.1421 -22
    endloop
  endfacet
  facet normal 1.22465e-16 1.2492e-24 1
    outer loop
      vertex -10 10 1.22465e-15
      vertex -0.494427 -19.4783 6.05498e-17
      vertex 0.494427 -19.4783 -6.05498e-17
    endloop
  endfacet
  facet normal 1.22465e-16 2.88178e-25 1
    outer loop
      vertex -10 10 1.22465e-15
      vertex -1.29443 -20.0595 1.58522e-16
      vertex -0.494427 -19.4783 6.05498e-17
    endloop
  endfacet
  facet normal 1.22465e-16 -1.66597e-24 1
    outer loop
      vertex -10 10 1.22465e-15
      vertex -1.6 -21 1.95943e-16
      vertex -1.29443 -20.0595 1.58522e-16
    endloop
  endfacet
  facet normal 1.22465e-16 3.54411e-25 1
    outer loop
      vertex -10 10 1.22465e-15
      vertex 0.494427 -19.4783 -6.05498e-17
      vertex 1.29443 -20.0595 -1.58522e-16
    endloop
  endfacet
  facet normal 1.22465e-16 1.27082e-24 1
    outer loop
      vertex -10 10 1.22465e-15
      vertex 1.29443 -20.0595 -1.58522e-16
      vertex 37.3302 -19.0603 -4.57164e-15
    endloop
  endfacet
  facet normal 0 1 -0
    outer loop
      vertex -10 10 1.22465e-15
      vertex 216 10 -2.64524e-14
      vertex 216 10 -22
    endloop
  endfacet
  facet normal 1.22465e-16 -1.86536e-24 1
    outer loop
      vertex -10 10 1.22465e-15
      vertex 37.3302 -19.0603 -4.57164e-15
      vertex 38.9802 -17.8615 -4.7737e-15
    endloop
  endfacet
  facet normal 1.22465e-16 -2.36478e-22 1
    outer loop
      vertex -10 10 1.22465e-15
      vertex 38.9802 -17.8615 -4.7737e-15
      vertex 41.0198 -17.8615 -5.02347e-15
    endloop
  endfacet
  facet normal 1.22465e-16 8.9409e-24 1
    outer loop
      vertex -10 10 1.22465e-15
      vertex 41.0198 -17.8615 -5.02347e-15
      vertex 216 10 -2.64524e-14
    endloop
  endfacet
  facet normal 0 0 -1
    outer loop
      vertex -3.3 -21 -19.5
      vertex -1.29443 -20.0595 -19.5
      vertex -1.6 -21 -19.5
    endloop
  endfacet
  facet normal 0 0 -1
    outer loop
      vertex -3.3 -21 -19.5
      vertex -1.29443 -21.9405 -19.5
      vertex -1.65 -23.8579 -19.5
    endloop
  endfacet
  facet normal 0 0 -1
    outer loop
      vertex -3.3 -21 -19.5
      vertex -1.6 -21 -19.5
      vertex -1.29443 -21.9405 -19.5
    endloop
  endfacet
  facet normal -0 0 -1
    outer loop
      vertex -3.3 -21 -19.5
      vertex -1.65 -18.1421 -19.5
      vertex -1.29443 -20.0595 -19.5
    endloop
  endfacet
  facet normal 0.866026 -0.5 0
    outer loop
      vertex -3.3 -21 -19.5
      vertex -1.65 -18.1421 -22
      vertex -1.65 -18.1421 -19.5
    endloop
  endfacet
  facet normal 0.866026 -0.5 0
    outer loop
      vertex -3.3 -21 -22
      vertex -1.65 -18.1421 -22
      vertex -3.3 -21 -19.5
    endloop
  endfacet
  facet normal 0.866025 0.5 0
    outer loop
      vertex -3.3 -21 -22
      vertex -1.65 -23.8579 -19.5
      vertex -1.65 -23.8579 -22
    endloop
  endfacet
  facet normal 0.866025 0.5 0
    outer loop
      vertex -3.3 -21 -22
      vertex -3.3 -21 -19.5
      vertex -1.65 -23.8579 -19.5
    endloop
  endfacet
  facet normal -0.587785 -0.809017 0
    outer loop
      vertex 0.494427 -19.4783 -19.5
      vertex 1.29443 -20.0595 -1.58522e-16
      vertex 0.494427 -19.4783 -6.05498e-17
    endloop
  endfacet
  facet normal -0.587785 -0.809017 -0
    outer loop
      vertex 0.494427 -19.4783 -19.5
      vertex 1.29443 -20.0595 -19.5
      vertex 1.29443 -20.0595 -1.58522e-16
    endloop
  endfacet
  facet normal 0 0 -1
    outer loop
      vertex 0.494427 -19.4783 -19.5
      vertex 1.65 -18.1421 -19.5
      vertex 1.29443 -20.0595 -19.5
    endloop
  endfacet
  facet normal -0.587785 0.809017 0
    outer loop
      vertex 0.494427 -22.5217 -19.5
      vertex 0.494427 -22.5217 -6.05498e-17
      vertex 1.29443 -21.9405 -19.5
    endloop
  endfacet
  facet normal 0 0 -1
    outer loop
      vertex 0.494427 -22.5217 -19.5
      vertex 1.29443 -21.9405 -19.5
      vertex 1.65 -23.8579 -19.5
    endloop
  endfacet
  facet normal -0.587785 0.809017 0
    outer loop
      vertex 0.494427 -22.5217 -6.05498e-17
      vertex 1.29443 -21.9405 -1.58522e-16
      vertex 1.29443 -21.9405 -19.5
    endloop
  endfacet
  facet normal 1.22465e-16 3.22416e-24 1
    outer loop
      vertex 1.29443 -20.0595 -1.58522e-16
      vertex 1.6 -21 -1.95943e-16
      vertex 36.7 -21 -4.49445e-15
    endloop
  endfacet
  facet normal -0.951057 -0.309017 0
    outer loop
      vertex 1.29443 -20.0595 -1.58522e-16
      vertex 1.6 -21 -19.5
      vertex 1.6 -21 -1.95943e-16
    endloop
  endfacet
  facet normal 1.22465e-16 9.17008e-23 1
    outer loop
      vertex 1.29443 -20.0595 -1.58522e-16
      vertex 36.7 -21 -4.49445e-15
      vertex 37.3302 -19.0603 -4.57164e-15
    endloop
  endfacet
  facet normal -0.951057 -0.309017 0
    outer loop
      vertex 1.29443 -20.0595 -19.5
      vertex 1.6 -21 -19.5
      vertex 1.29443 -20.0595 -1.58522e-16
    endloop
  endfacet
  facet normal 0 0 -1
    outer loop
      vertex 1.29443 -20.0595 -19.5
      vertex 1.65 -18.1421 -19.5
      vertex 3.3 -21 -19.5
    endloop
  endfacet
  facet normal 0 0 -1
    outer loop
      vertex 1.29443 -20.0595 -19.5
      vertex 3.3 -21 -19.5
      vertex 1.6 -21 -19.5
    endloop
  endfacet
  facet normal 1.22465e-16 -3.22416e-24 1
    outer loop
      vertex 1.29443 -21.9405 -1.58522e-16
      vertex 36.7 -21 -4.49445e-15
      vertex 1.6 -21 -1.95943e-16
    endloop
  endfacet
  facet normal 1.22465e-16 -9.17008e-23 1
    outer loop
      vertex 1.29443 -21.9405 -1.58522e-16
      vertex 37.3302 -22.9397 -4.57164e-15
      vertex 36.7 -21 -4.49445e-15
    endloop
  endfacet
  facet normal -0.951057 0.309017 0
    outer loop
      vertex 1.29443 -21.9405 -19.5
      vertex 1.29443 -21.9405 -1.58522e-16
      vertex 1.6 -21 -1.95943e-16
    endloop
  endfacet
  facet normal -0.951057 0.309017 0
    outer loop
      vertex 1.29443 -21.9405 -19.5
      vertex 1.6 -21 -1.95943e-16
      vertex 1.6 -21 -19.5
    endloop
  endfacet
  facet normal -0 0 -1
    outer loop
      vertex 1.29443 -21.9405 -19.5
      vertex 1.6 -21 -19.5
      vertex 3.3 -21 -19.5
    endloop
  endfacet
  facet normal 0 0 -1
    outer loop
      vertex 1.29443 -21.9405 -19.5
      vertex 3.3 -21 -19.5
      vertex 1.65 -23.8579 -19.5
    endloop
  endfacet
  facet normal -0.866025 -0.5 0
    outer loop
      vertex 1.65 -18.1421 -19.5
      vertex 3.3 -21 -22
      vertex 3.3 -21 -19.5
    endloop
  endfacet
  facet normal -0.866025 -0.5 0
    outer loop
      vertex 1.65 -18.1421 -22
      vertex 3.3 -21 -22
      vertex 1.65 -18.1421 -19.5
    endloop
  endfacet
  facet normal 0 0 -1
    outer loop
      vertex 1.65 -18.1421 -22
      vertex 38.35 -18.1421 -22
      vertex 3.3 -21 -22
    endloop
  endfacet
  facet normal -0.866025 0.5 0
    outer loop
      vertex 1.65 -23.8579 -22
      vertex 1.65 -23.8579 -19.5
      vertex 3.3 -21 -19.5
    endloop
  endfacet
  facet normal -0.866025 0.5 0
    outer loop
      vertex 1.65 -23.8579 -22
      vertex 3.3 -21 -19.5
      vertex 3.3 -21 -22
    endloop
  endfacet
  facet normal 0 0 -1
    outer loop
      vertex 1.65 -23.8579 -22
      vertex 3.3 -21 -22
      vertex 38.35 -23.8579 -22
    endloop
  endfacet
  facet normal -0 0 -1
    outer loop
      vertex 160.7 -21 -13.5
      vertex 162.35 -18.1421 -13.5
      vertex 162.706 -20.0595 -13.5
    endloop
  endfacet
  facet normal 0.866024 -0.500002 0
    outer loop
      vertex 160.7 -21 -13.5
      vertex 162.35 -18.1421 -17
      vertex 162.35 -18.1421 -13.5
    endloop
  endfacet
  facet normal 0 0 -1
    outer loop
      vertex 160.7 -21 -13.5
      vertex 162.4 -21 -13.5
      vertex 162.706 -21.9405 -13.5
    endloop
  endfacet
  facet normal 0 0 -1
    outer loop
      vertex 160.7 -21 -13.5
      vertex 162.706 -20.0595 -13.5
      vertex 162.4 -21 -13.5
    endloop
  endfacet
  facet normal 0 0 -1
    outer loop
      vertex 160.7 -21 -13.5
      vertex 162.706 -21.9405 -13.5
      vertex 162.35 -23.8579 -13.5
    endloop
  endfacet
  facet normal 0.866024 0.500002 0
    outer loop
      vertex 160.7 -21 -17
      vertex 160.7 -21 -13.5
      vertex 162.35 -23.8579 -13.5
    endloop
  endfacet
  facet normal 0.866024 -0.500002 0
    outer loop
      vertex 160.7 -21 -17
      vertex 162.35 -18.1421 -17
      vertex 160.7 -21 -13.5
    endloop
  endfacet
  facet normal 0.866024 0.500002 0
    outer loop
      vertex 160.7 -21 -17
      vertex 162.35 -23.8579 -13.5
      vertex 162.35 -23.8579 -17
    endloop
  endfacet
  facet normal 0 0 -1
    outer loop
      vertex 162.35 -18.1421 -13.5
      vertex 163.506 -19.4783 -13.5
      vertex 162.706 -20.0595 -13.5
    endloop
  endfacet
  facet normal 0 0 -1
    outer loop
      vertex 162.35 -18.1421 -13.5
      vertex 165.65 -18.1421 -13.5
      vertex 163.506 -19.4783 -13.5
    endloop
  endfacet
  facet normal 0 -1 0
    outer loop
      vertex 162.35 -18.1421 -17
      vertex 165.65 -18.1421 -13.5
      vertex 162.35 -18.1421 -13.5
    endloop
  endfacet
  facet normal 0 -1 -0
    outer loop
      vertex 162.35 -18.1421 -17
      vertex 165.65 -18.1421 -17
      vertex 165.65 -18.1421 -13.5
    endloop
  endfacet
  facet normal 0 0 -1
    outer loop
      vertex 162.35 -18.1421 -17
      vertex 190 -2.32683e-14 -17
      vertex 165.65 -18.1421 -17
    endloop
  endfacet
  facet normal -0 0 -1
    outer loop
      vertex 162.35 -23.8579 -13.5
      vertex 162.706 -21.9405 -13.5
      vertex 163.506 -22.5217 -13.5
    endloop
  endfacet
  facet normal 0 0 -1
    outer loop
      vertex 162.35 -23.8579 -13.5
      vertex 163.506 -22.5217 -13.5
      vertex 165.65 -23.8579 -13.5
    endloop
  endfacet
  facet normal 0 1 -0
    outer loop
      vertex 162.35 -23.8579 -13.5
      vertex 165.65 -23.8579 -13.5
      vertex 165.65 -23.8579 -17
    endloop
  endfacet
  facet normal 0 1 0
    outer loop
      vertex 162.35 -23.8579 -17
      vertex 162.35 -23.8579 -13.5
      vertex 165.65 -23.8579 -17
    endloop
  endfacet
  facet normal 0 0 -1
    outer loop
      vertex 162.35 -23.8579 -17
      vertex 165.65 -23.8579 -17
      vertex 190 -42 -17
    endloop
  endfacet
  facet normal 0.951057 -0.309017 0
    outer loop
      vertex 162.4 -21 -1.98883e-14
      vertex 162.706 -20.0595 -13.5
      vertex 162.706 -20.0595 -1.99257e-14
    endloop
  endfacet
  facet normal 0.951057 0.309017 0
    outer loop
      vertex 162.4 -21 -13.5
      vertex 162.4 -21 -1.98883e-14
      vertex 162.706 -21.9405 -1.99257e-14
    endloop
  endfacet
  facet normal 0.951057 -0.309017 0
    outer loop
      vertex 162.4 -21 -13.5
      vertex 162.706 -20.0595 -13.5
      vertex 162.4 -21 -1.98883e-14
    endloop
  endfacet
  facet normal 0.951057 0.309017 0
    outer loop
      vertex 162.4 -21 -13.5
      vertex 162.706 -21.9405 -1.99257e-14
      vertex 162.706 -21.9405 -13.5
    endloop
  endfacet
  facet normal 0.587784 -0.809018 0
    outer loop
      vertex 162.706 -20.0595 -13.5
      vertex 163.506 -19.4783 -13.5
      vertex 163.506 -19.4783 -2.00237e-14
    endloop
  endfacet
  facet normal 0.587784 -0.809018 0
    outer loop
      vertex 162.706 -20.0595 -13.5
      vertex 163.506 -19.4783 -2.00237e-14
      vertex 162.706 -20.0595 -1.99257e-14
    endloop
  endfacet
  facet normal 0.587784 0.809018 -0
    outer loop
      vertex 162.706 -21.9405 -1.99257e-14
      vertex 163.506 -22.5217 -2.00237e-14
      vertex 163.506 -22.5217 -13.5
    endloop
  endfacet
  facet normal 0.587784 0.809018 0
    outer loop
      vertex 162.706 -21.9405 -13.5
      vertex 162.706 -21.9405 -1.99257e-14
      vertex 163.506 -22.5217 -13.5
    endloop
  endfacet
  facet normal 0 -1 -0
    outer loop
      vertex 163.506 -19.4783 -13.5
      vertex 164.494 -19.4783 -13.5
      vertex 164.494 -19.4783 -2.01448e-14
    endloop
  endfacet
  facet normal 0 -1 0
    outer loop
      vertex 163.506 -19.4783 -13.5
      vertex 164.494 -19.4783 -2.01448e-14
      vertex 163.506 -19.4783 -2.00237e-14
    endloop
  endfacet
  facet normal 0 0 -1
    outer loop
      vertex 163.506 -19.4783 -13.5
      vertex 165.65 -18.1421 -13.5
      vertex 164.494 -19.4783 -13.5
    endloop
  endfacet
  facet normal 1.22464e-16 4.76271e-22 1
    outer loop
      vertex 163.506 -19.4783 -2.00237e-14
      vertex 164.494 -19.4783 -2.01448e-14
      vertex 216 10 -2.64524e-14
    endloop
  endfacet
  facet normal 0 1 0
    outer loop
      vertex 163.506 -22.5217 -13.5
      vertex 163.506 -22.5217 -2.00237e-14
      vertex 164.494 -22.5217 -13.5
    endloop
  endfacet
  facet normal 0 0 -1
    outer loop
      vertex 163.506 -22.5217 -13.5
      vertex 164.494 -22.5217 -13.5
      vertex 165.65 -23.8579 -13.5
    endloop
  endfacet
  facet normal 0 1 -0
    outer loop
      vertex 163.506 -22.5217 -2.00237e-14
      vertex 164.494 -22.5217 -2.01448e-14
      vertex 164.494 -22.5217 -13.5
    endloop
  endfacet
  facet normal 1.22464e-16 -4.76271e-22 1
    outer loop
      vertex 163.506 -22.5217 -2.00237e-14
      vertex 216 -52 -2.64524e-14
      vertex 164.494 -22.5217 -2.01448e-14
    endloop
  endfacet
  facet normal -0.587784 -0.809018 -0
    outer loop
      vertex 164.494 -19.4783 -13.5
      vertex 165.294 -20.0595 -13.5
      vertex 165.294 -20.0595 -2.02427e-14
    endloop
  endfacet
  facet normal -0.587784 -0.809018 0
    outer loop
      vertex 164.494 -19.4783 -13.5
      vertex 165.294 -20.0595 -2.02427e-14
      vertex 164.494 -19.4783 -2.01448e-14
    endloop
  endfacet
  facet normal 0 0 -1
    outer loop
      vertex 164.494 -19.4783 -13.5
      vertex 165.65 -18.1421 -13.5
      vertex 165.294 -20.0595 -13.5
    endloop
  endfacet
  facet normal 1.22465e-16 1.4996e-21 1
    outer loop
      vertex 164.494 -19.4783 -2.01448e-14
      vertex 165.294 -20.0595 -2.02427e-14
      vertex 201.33 -19.0603 -2.46558e-14
    endloop
  endfacet
  facet normal 1.22465e-16 5.53842e-23 1
    outer loop
      vertex 164.494 -19.4783 -2.01448e-14
      vertex 201.33 -19.0603 -2.46558e-14
      vertex 216 10 -2.64524e-14
    endloop
  endfacet
  facet normal -0.587784 0.809018 0
    outer loop
      vertex 164.494 -22.5217 -13.5
      vertex 164.494 -22.5217 -2.01448e-14
      vertex 165.294 -21.9405 -13.5
    endloop
  endfacet
  facet normal 0 0 -1
    outer loop
      vertex 164.494 -22.5217 -13.5
      vertex 165.294 -21.9405 -13.5
      vertex 165.65 -23.8579 -13.5
    endloop
  endfacet
  facet normal -0.587784 0.809018 0
    outer loop
      vertex 164.494 -22.5217 -2.01448e-14
      vertex 165.294 -21.9405 -2.02427e-14
      vertex 165.294 -21.9405 -13.5
    endloop
  endfacet
  facet normal 1.22465e-16 -1.4996e-21 1
    outer loop
      vertex 164.494 -22.5217 -2.01448e-14
      vertex 201.33 -22.9397 -2.46558e-14
      vertex 165.294 -21.9405 -2.02427e-14
    endloop
  endfacet
  facet normal 1.22465e-16 -5.53842e-23 1
    outer loop
      vertex 164.494 -22.5217 -2.01448e-14
      vertex 216 -52 -2.64524e-14
      vertex 201.33 -22.9397 -2.46558e-14
    endloop
  endfacet
  facet normal -0.951057 -0.309017 0
    outer loop
      vertex 165.294 -20.0595 -13.5
      vertex 165.6 -21 -13.5
      vertex 165.294 -20.0595 -2.02427e-14
    endloop
  endfacet
  facet normal 0 0 -1
    outer loop
      vertex 165.294 -20.0595 -13.5
      vertex 165.65 -18.1421 -13.5
      vertex 167.3 -21 -13.5
    endloop
  endfacet
  facet normal 0 0 -1
    outer loop
      vertex 165.294 -20.0595 -13.5
      vertex 167.3 -21 -13.5
      vertex 165.6 -21 -13.5
    endloop
  endfacet
  facet normal -0.951057 -0.309017 0
    outer loop
      vertex 165.294 -20.0595 -2.02427e-14
      vertex 165.6 -21 -13.5
      vertex 165.6 -21 -2.02802e-14
    endloop
  endfacet
  facet normal 1.22465e-16 -6.41748e-23 1
    outer loop
      vertex 165.294 -20.0595 -2.02427e-14
      vertex 165.6 -21 -2.02802e-14
      vertex 200.7 -21 -2.45787e-14
    endloop
  endfacet
  facet normal 1.22465e-16 -8.36285e-22 1
    outer loop
      vertex 165.294 -20.0595 -2.02427e-14
      vertex 200.7 -21 -2.45787e-14
      vertex 201.33 -19.0603 -2.46558e-14
    endloop
  endfacet
  facet normal -0.951057 0.309017 0
    outer loop
      vertex 165.294 -21.9405 -13.5
      vertex 165.294 -21.9405 -2.02427e-14
      vertex 165.6 -21 -2.02802e-14
    endloop
  endfacet
  facet normal -0 0 -1
    outer loop
      vertex 165.294 -21.9405 -13.5
      vertex 165.6 -21 -13.5
      vertex 167.3 -21 -13.5
    endloop
  endfacet
  facet normal -0.951057 0.309017 0
    outer loop
      vertex 165.294 -21.9405 -13.5
      vertex 165.6 -21 -2.02802e-14
      vertex 165.6 -21 -13.5
    endloop
  endfacet
  facet normal 0 0 -1
    outer loop
      vertex 165.294 -21.9405 -13.5
      vertex 167.3 -21 -13.5
      vertex 165.65 -23.8579 -13.5
    endloop
  endfacet
  facet normal 1.22465e-16 6.41748e-23 1
    outer loop
      vertex 165.294 -21.9405 -2.02427e-14
      vertex 200.7 -21 -2.45787e-14
      vertex 165.6 -21 -2.02802e-14
    endloop
  endfacet
  facet normal 1.22465e-16 8.36285e-22 1
    outer loop
      vertex 165.294 -21.9405 -2.02427e-14
      vertex 201.33 -22.9397 -2.46558e-14
      vertex 200.7 -21 -2.45787e-14
    endloop
  endfacet
  facet normal -0.866024 -0.500002 0
    outer loop
      vertex 165.65 -18.1421 -13.5
      vertex 167.3 -21 -17
      vertex 167.3 -21 -13.5
    endloop
  endfacet
  facet normal -0.866024 -0.500002 0
    outer loop
      vertex 165.65 -18.1421 -17
      vertex 167.3 -21 -17
      vertex 165.65 -18.1421 -13.5
    endloop
  endfacet
  facet normal 0 0 -1
    outer loop
      vertex 165.65 -18.1421 -17
      vertex 190 -2.32683e-14 -17
      vertex 167.3 -21 -17
    endloop
  endfacet
  facet normal -0.866024 0.500002 0
    outer loop
      vertex 165.65 -23.8579 -17
      vertex 165.65 -23.8579 -13.5
      vertex 167.3 -21 -13.5
    endloop
  endfacet
  facet normal -0.866024 0.500002 0
    outer loop
      vertex 165.65 -23.8579 -17
      vertex 167.3 -21 -13.5
      vertex 167.3 -21 -17
    endloop
  endfacet
  facet normal 0 0 -1
    outer loop
      vertex 165.65 -23.8579 -17
      vertex 167.3 -21 -17
      vertex 190 -42 -17
    endloop
  endfacet
  facet normal 0 0 -1
    outer loop
      vertex 167.3 -21 -17
      vertex 190 -2.32683e-14 -17
      vertex 190 -42 -17
    endloop
  endfacet
  facet normal 0 0 -1
    outer loop
      vertex 190 -2.32683e-14 -22
      vertex 202.35 -18.1421 -22
      vertex 200.7 -21 -22
    endloop
  endfacet
  facet normal 0 0 -1
    outer loop
      vertex 190 -2.32683e-14 -22
      vertex 205.65 -18.1421 -22
      vertex 202.35 -18.1421 -22
    endloop
  endfacet
  facet normal 0 0 -1
    outer loop
      vertex 190 -2.32683e-14 -22
      vertex 216 10 -22
      vertex 205.65 -18.1421 -22
    endloop
  endfacet
  facet normal -1 0 0
    outer loop
      vertex 190 -42 -22
      vertex 190 -2.32683e-14 -17
      vertex 190 -2.32683e-14 -22
    endloop
  endfacet
  facet normal 0 0 -1
    outer loop
      vertex 190 -42 -22
      vertex 190 -2.32683e-14 -22
      vertex 200.7 -21 -22
    endloop
  endfacet
  facet normal -1 -0 0
    outer loop
      vertex 190 -42 -22
      vertex 190 -42 -17
      vertex 190 -2.32683e-14 -17
    endloop
  endfacet
  facet normal -0 0 -1
    outer loop
      vertex 190 -42 -22
      vertex 200.7 -21 -22
      vertex 202.35 -23.8579 -22
    endloop
  endfacet
  facet normal -0 0 -1
    outer loop
      vertex 190 -42 -22
      vertex 202.35 -23.8579 -22
      vertex 205.65 -23.8579 -22
    endloop
  endfacet
  facet normal 0 0 -1
    outer loop
      vertex 190 -42 -22
      vertex 205.65 -23.8579 -22
      vertex 216 -52 -22
    endloop
  endfacet
  facet normal 0.951056 0.309019 0
    outer loop
      vertex 200.7 -21 -1.5
      vertex 200.7 -21 -2.45787e-14
      vertex 201.33 -22.9397 -2.46558e-14
    endloop
  endfacet
  facet normal 0.951056 -0.309019 0
    outer loop
      vertex 200.7 -21 -1.5
      vertex 201.33 -19.0603 -1.5
      vertex 200.7 -21 -2.45787e-14
    endloop
  endfacet
  facet normal 0 0 1
    outer loop
      vertex 200.7 -21 -1.5
      vertex 201.33 -22.9397 -1.5
      vertex 202.4 -21 -1.5
    endloop
  endfacet
  facet normal 0.951056 0.309019 0
    outer loop
      vertex 200.7 -21 -1.5
      vertex 201.33 -22.9397 -2.46558e-14
      vertex 201.33 -22.9397 -1.5
    endloop
  endfacet
  facet normal 0 0 1
    outer loop
      vertex 200.7 -21 -1.5
      vertex 202.4 -21 -1.5
      vertex 201.33 -19.0603 -1.5
    endloop
  endfacet
  facet normal -0 0 -1
    outer loop
      vertex 200.7 -21 -19.5
      vertex 202.35 -18.1421 -19.5
      vertex 202.706 -20.0595 -19.5
    endloop
  endfacet
  facet normal 0.866024 -0.500002 0
    outer loop
      vertex 200.7 -21 -19.5
      vertex 202.35 -18.1421 -22
      vertex 202.35 -18.1421 -19.5
    endloop
  endfacet
  facet normal 0 0 -1
    outer loop
      vertex 200.7 -21 -19.5
      vertex 202.4 -21 -19.5
      vertex 202.706 -21.9405 -19.5
    endloop
  endfacet
  facet normal 0 0 -1
    outer loop
      vertex 200.7 -21 -19.5
      vertex 202.706 -20.0595 -19.5
      vertex 202.4 -21 -19.5
    endloop
  endfacet
  facet normal 0 0 -1
    outer loop
      vertex 200.7 -21 -19.5
      vertex 202.706 -21.9405 -19.5
      vertex 202.35 -23.8579 -19.5
    endloop
  endfacet
  facet normal 0.951056 -0.309019 0
    outer loop
      vertex 200.7 -21 -2.45787e-14
      vertex 201.33 -19.0603 -1.5
      vertex 201.33 -19.0603 -2.46558e-14
    endloop
  endfacet
  facet normal 0.866024 0.500002 0
    outer loop
      vertex 200.7 -21 -22
      vertex 200.7 -21 -19.5
      vertex 202.35 -23.8579 -19.5
    endloop
  endfacet
  facet normal 0.866024 -0.500002 0
    outer loop
      vertex 200.7 -21 -22
      vertex 202.35 -18.1421 -22
      vertex 200.7 -21 -19.5
    endloop
  endfacet
  facet normal 0.866024 0.500002 0
    outer loop
      vertex 200.7 -21 -22
      vertex 202.35 -23.8579 -19.5
      vertex 202.35 -23.8579 -22
    endloop
  endfacet
  facet normal 0 0 1
    outer loop
      vertex 201.33 -19.0603 -1.5
      vertex 202.4 -21 -1.5
      vertex 202.706 -20.0595 -1.5
    endloop
  endfacet
  facet normal -0 0 1
    outer loop
      vertex 201.33 -19.0603 -1.5
      vertex 202.706 -20.0595 -1.5
      vertex 202.98 -17.8615 -1.5
    endloop
  endfacet
  facet normal 0.587787 -0.809016 0
    outer loop
      vertex 201.33 -19.0603 -1.5
      vertex 202.98 -17.8615 -1.5
      vertex 202.98 -17.8615 -2.48579e-14
    endloop
  endfacet
  facet normal 0.587787 -0.809016 0
    outer loop
      vertex 201.33 -19.0603 -1.5
      vertex 202.98 -17.8615 -2.48579e-14
      vertex 201.33 -19.0603 -2.46558e-14
    endloop
  endfacet
  facet normal 1.22467e-16 -9.9218e-22 1
    outer loop
      vertex 201.33 -19.0603 -2.46558e-14
      vertex 202.98 -17.8615 -2.48579e-14
      vertex 216 10 -2.64524e-14
    endloop
  endfacet
  facet normal 0.587787 0.809016 0
    outer loop
      vertex 201.33 -22.9397 -1.5
      vertex 201.33 -22.9397 -2.46558e-14
      vertex 202.98 -24.1385 -1.5
    endloop
  endfacet
  facet normal 0 0 1
    outer loop
      vertex 201.33 -22.9397 -1.5
      vertex 202.706 -21.9405 -1.5
      vertex 202.4 -21 -1.5
    endloop
  endfacet
  facet normal 0 0 1
    outer loop
      vertex 201.33 -22.9397 -1.5
      vertex 202.98 -24.1385 -1.5
      vertex 202.706 -21.9405 -1.5
    endloop
  endfacet
  facet normal 0.587787 0.809016 -0
    outer loop
      vertex 201.33 -22.9397 -2.46558e-14
      vertex 202.98 -24.1385 -2.48579e-14
      vertex 202.98 -24.1385 -1.5
    endloop
  endfacet
  facet normal 1.22467e-16 9.9218e-22 1
    outer loop
      vertex 201.33 -22.9397 -2.46558e-14
      vertex 216 -52 -2.64524e-14
      vertex 202.98 -24.1385 -2.48579e-14
    endloop
  endfacet
  facet normal 0 0 -1
    outer loop
      vertex 202.35 -18.1421 -19.5
      vertex 203.506 -19.4783 -19.5
      vertex 202.706 -20.0595 -19.5
    endloop
  endfacet
  facet normal 0 0 -1
    outer loop
      vertex 202.35 -18.1421 -19.5
      vertex 205.65 -18.1421 -19.5
      vertex 203.506 -19.4783 -19.5
    endloop
  endfacet
  facet normal 0 -1 0
    outer loop
      vertex 202.35 -18.1421 -22
      vertex 205.65 -18.1421 -19.5
      vertex 202.35 -18.1421 -19.5
    endloop
  endfacet
  facet normal 0 -1 -0
    outer loop
      vertex 202.35 -18.1421 -22
      vertex 205.65 -18.1421 -22
      vertex 205.65 -18.1421 -19.5
    endloop
  endfacet
  facet normal -0 0 -1
    outer loop
      vertex 202.35 -23.8579 -19.5
      vertex 202.706 -21.9405 -19.5
      vertex 203.506 -22.5217 -19.5
    endloop
  endfacet
  facet normal 0 0 -1
    outer loop
      vertex 202.35 -23.8579 -19.5
      vertex 203.506 -22.5217 -19.5
      vertex 205.65 -23.8579 -19.5
    endloop
  endfacet
  facet normal 0 1 -0
    outer loop
      vertex 202.35 -23.8579 -19.5
      vertex 205.65 -23.8579 -19.5
      vertex 205.65 -23.8579 -22
    endloop
  endfacet
  facet normal 0 1 0
    outer loop
      vertex 202.35 -23.8579 -22
      vertex 202.35 -23.8579 -19.5
      vertex 205.65 -23.8579 -22
    endloop
  endfacet
  facet normal 0.951057 -0.309017 0
    outer loop
      vertex 202.4 -21 -1.5
      vertex 202.706 -20.0595 -19.5
      vertex 202.706 -20.0595 -1.5
    endloop
  endfacet
  facet normal 0.951057 0.309017 0
    outer loop
      vertex 202.4 -21 -19.5
      vertex 202.4 -21 -1.5
      vertex 202.706 -21.9405 -1.5
    endloop
  endfacet
  facet normal 0.951057 -0.309017 0
    outer loop
      vertex 202.4 -21 -19.5
      vertex 202.706 -20.0595 -19.5
      vertex 202.4 -21 -1.5
    endloop
  endfacet
  facet normal 0.951057 0.309017 0
    outer loop
      vertex 202.4 -21 -19.5
      vertex 202.706 -21.9405 -1.5
      vertex 202.706 -21.9405 -19.5
    endloop
  endfacet
  facet normal 0 0 1
    outer loop
      vertex 202.706 -20.0595 -1.5
      vertex 203.506 -19.4783 -1.5
      vertex 202.98 -17.8615 -1.5
    endloop
  endfacet
  facet normal 0.587784 -0.809018 0
    outer loop
      vertex 202.706 -20.0595 -19.5
      vertex 203.506 -19.4783 -1.5
      vertex 202.706 -20.0595 -1.5
    endloop
  endfacet
  facet normal 0.587784 -0.809018 0
    outer loop
      vertex 202.706 -20.0595 -19.5
      vertex 203.506 -19.4783 -19.5
      vertex 203.506 -19.4783 -1.5
    endloop
  endfacet
  facet normal 0 0 1
    outer loop
      vertex 202.706 -21.9405 -1.5
      vertex 202.98 -24.1385 -1.5
      vertex 203.506 -22.5217 -1.5
    endloop
  endfacet
  facet normal 0.587784 0.809018 -0
    outer loop
      vertex 202.706 -21.9405 -1.5
      vertex 203.506 -22.5217 -1.5
      vertex 203.506 -22.5217 -19.5
    endloop
  endfacet
  facet normal 0.587784 0.809018 0
    outer loop
      vertex 202.706 -21.9405 -19.5
      vertex 202.706 -21.9405 -1.5
      vertex 203.506 -22.5217 -19.5
    endloop
  endfacet
  facet normal -0 0 1
    outer loop
      vertex 202.98 -17.8615 -1.5
      vertex 203.506 -19.4783 -1.5
      vertex 205.02 -17.8615 -1.5
    endloop
  endfacet
  facet normal 0 -1 -0
    outer loop
      vertex 202.98 -17.8615 -1.5
      vertex 205.02 -17.8615 -1.5
      vertex 205.02 -17.8615 -2.51077e-14
    endloop
  endfacet
  facet normal 0 -1 0
    outer loop
      vertex 202.98 -17.8615 -1.5
      vertex 205.02 -17.8615 -2.51077e-14
      vertex 202.98 -17.8615 -2.48579e-14
    endloop
  endfacet
  facet normal 1.22464e-16 2.44944e-22 1
    outer loop
      vertex 202.98 -17.8615 -2.48579e-14
      vertex 205.02 -17.8615 -2.51077e-14
      vertex 216 10 -2.64524e-14
    endloop
  endfacet
  facet normal 0 1 0
    outer loop
      vertex 202.98 -24.1385 -1.5
      vertex 202.98 -24.1385 -2.48579e-14
      vertex 205.02 -24.1385 -1.5
    endloop
  endfacet
  facet normal 0 0 1
    outer loop
      vertex 202.98 -24.1385 -1.5
      vertex 205.02 -24.1385 -1.5
      vertex 203.506 -22.5217 -1.5
    endloop
  endfacet
  facet normal 0 1 -0
    outer loop
      vertex 202.98 -24.1385 -2.48579e-14
      vertex 205.02 -24.1385 -2.51077e-14
      vertex 205.02 -24.1385 -1.5
    endloop
  endfacet
  facet normal 1.22464e-16 -2.44944e-22 1
    outer loop
      vertex 202.98 -24.1385 -2.48579e-14
      vertex 216 -52 -2.64524e-14
      vertex 205.02 -24.1385 -2.51077e-14
    endloop
  endfacet
  facet normal 0 0 1
    outer loop
      vertex 203.506 -19.4783 -1.5
      vertex 204.494 -19.4783 -1.5
      vertex 205.02 -17.8615 -1.5
    endloop
  endfacet
  facet normal 0 -1 0
    outer loop
      vertex 203.506 -19.4783 -19.5
      vertex 204.494 -19.4783 -1.5
      vertex 203.506 -19.4783 -1.5
    endloop
  endfacet
  facet normal 0 -1 -0
    outer loop
      vertex 203.506 -19.4783 -19.5
      vertex 204.494 -19.4783 -19.5
      vertex 204.494 -19.4783 -1.5
    endloop
  endfacet
  facet normal 0 0 -1
    outer loop
      vertex 203.506 -19.4783 -19.5
      vertex 205.65 -18.1421 -19.5
      vertex 204.494 -19.4783 -19.5
    endloop
  endfacet
  facet normal 0 1 -0
    outer loop
      vertex 203.506 -22.5217 -1.5
      vertex 204.494 -22.5217 -1.5
      vertex 204.494 -22.5217 -19.5
    endloop
  endfacet
  facet normal -0 0 1
    outer loop
      vertex 203.506 -22.5217 -1.5
      vertex 205.02 -24.1385 -1.5
      vertex 204.494 -22.5217 -1.5
    endloop
  endfacet
  facet normal 0 1 0
    outer loop
      vertex 203.506 -22.5217 -19.5
      vertex 203.506 -22.5217 -1.5
      vertex 204.494 -22.5217 -19.5
    endloop
  endfacet
  facet normal 0 0 -1
    outer loop
      vertex 203.506 -22.5217 -19.5
      vertex 204.494 -22.5217 -19.5
      vertex 205.65 -23.8579 -19.5
    endloop
  endfacet
  facet normal 0 0 1
    outer loop
      vertex 204.494 -19.4783 -1.5
      vertex 205.294 -20.0595 -1.5
      vertex 205.02 -17.8615 -1.5
    endloop
  endfacet
  facet normal -0.587784 -0.809018 0
    outer loop
      vertex 204.494 -19.4783 -19.5
      vertex 205.294 -20.0595 -1.5
      vertex 204.494 -19.4783 -1.5
    endloop
  endfacet
  facet normal -0.587784 -0.809018 -0
    outer loop
      vertex 204.494 -19.4783 -19.5
      vertex 205.294 -20.0595 -19.5
      vertex 205.294 -20.0595 -1.5
    endloop
  endfacet
  facet normal 0 0 -1
    outer loop
      vertex 204.494 -19.4783 -19.5
      vertex 205.65 -18.1421 -19.5
      vertex 205.294 -20.0595 -19.5
    endloop
  endfacet
  facet normal -0 0 1
    outer loop
      vertex 204.494 -22.5217 -1.5
      vertex 205.02 -24.1385 -1.5
      vertex 205.294 -21.9405 -1.5
    endloop
  endfacet
  facet normal -0.587784 0.809018 0
    outer loop
      vertex 204.494 -22.5217 -1.5
      vertex 205.294 -21.9405 -1.5
      vertex 205.294 -21.9405 -19.5
    endloop
  endfacet
  facet normal -0.587784 0.809018 0
    outer loop
      vertex 204.494 -22.5217 -19.5
      vertex 204.494 -22.5217 -1.5
      vertex 205.294 -21.9405 -19.5
    endloop
  endfacet
  facet normal 0 0 -1
    outer loop
      vertex 204.494 -22.5217 -19.5
      vertex 205.294 -21.9405 -19.5
      vertex 205.65 -23.8579 -19.5
    endloop
  endfacet
  facet normal 0 0 1
    outer loop
      vertex 205.02 -17.8615 -1.5
      vertex 205.294 -20.0595 -1.5
      vertex 206.67 -19.0603 -1.5
    endloop
  endfacet
  facet normal -0.587787 -0.809016 -0
    outer loop
      vertex 205.02 -17.8615 -1.5
      vertex 206.67 -19.0603 -1.5
      vertex 206.67 -19.0603 -2.53097e-14
    endloop
  endfacet
  facet normal -0.587787 -0.809016 0
    outer loop
      vertex 205.02 -17.8615 -1.5
      vertex 206.67 -19.0603 -2.53097e-14
      vertex 205.02 -17.8615 -2.51077e-14
    endloop
  endfacet
  facet normal 1.22465e-16 -8.52556e-23 1
    outer loop
      vertex 205.02 -17.8615 -2.51077e-14
      vertex 206.67 -19.0603 -2.53097e-14
      vertex 216 10 -2.64524e-14
    endloop
  endfacet
  facet normal -0.587787 0.809016 0
    outer loop
      vertex 205.02 -24.1385 -1.5
      vertex 205.02 -24.1385 -2.51077e-14
      vertex 206.67 -22.9397 -1.5
    endloop
  endfacet
  facet normal 0 0 1
    outer loop
      vertex 205.02 -24.1385 -1.5
      vertex 206.67 -22.9397 -1.5
      vertex 205.294 -21.9405 -1.5
    endloop
  endfacet
  facet normal -0.587787 0.809016 0
    outer loop
      vertex 205.02 -24.1385 -2.51077e-14
      vertex 206.67 -22.9397 -2.53097e-14
      vertex 206.67 -22.9397 -1.5
    endloop
  endfacet
  facet normal 1.22465e-16 8.52556e-23 1
    outer loop
      vertex 205.02 -24.1385 -2.51077e-14
      vertex 216 -52 -2.64524e-14
      vertex 206.67 -22.9397 -2.53097e-14
    endloop
  endfacet
  facet normal 0 0 1
    outer loop
      vertex 205.294 -20.0595 -1.5
      vertex 205.6 -21 -1.5
      vertex 206.67 -19.0603 -1.5
    endloop
  endfacet
  facet normal -0.951057 -0.309017 0
    outer loop
      vertex 205.294 -20.0595 -1.5
      vertex 205.6 -21 -19.5
      vertex 205.6 -21 -1.5
    endloop
  endfacet
  facet normal -0.951057 -0.309017 0
    outer loop
      vertex 205.294 -20.0595 -19.5
      vertex 205.6 -21 -19.5
      vertex 205.294 -20.0595 -1.5
    endloop
  endfacet
  facet normal 0 0 -1
    outer loop
      vertex 205.294 -20.0595 -19.5
      vertex 205.65 -18.1421 -19.5
      vertex 207.3 -21 -19.5
    endloop
  endfacet
  facet normal 0 0 -1
    outer loop
      vertex 205.294 -20.0595 -19.5
      vertex 207.3 -21 -19.5
      vertex 205.6 -21 -19.5
    endloop
  endfacet
  facet normal -0 0 1
    outer loop
      vertex 205.294 -21.9405 -1.5
      vertex 206.67 -22.9397 -1.5
      vertex 205.6 -21 -1.5
    endloop
  endfacet
  facet normal -0.951057 0.309017 0
    outer loop
      vertex 205.294 -21.9405 -19.5
      vertex 205.294 -21.9405 -1.5
      vertex 205.6 -21 -1.5
    endloop
  endfacet
  facet normal -0.951057 0.309017 0
    outer loop
      vertex 205.294 -21.9405 -19.5
      vertex 205.6 -21 -1.5
      vertex 205.6 -21 -19.5
    endloop
  endfacet
  facet normal -0 0 -1
    outer loop
      vertex 205.294 -21.9405 -19.5
      vertex 205.6 -21 -19.5
      vertex 207.3 -21 -19.5
    endloop
  endfacet
  facet normal 0 0 -1
    outer loop
      vertex 205.294 -21.9405 -19.5
      vertex 207.3 -21 -19.5
      vertex 205.65 -23.8579 -19.5
    endloop
  endfacet
  facet normal 0 0 1
    outer loop
      vertex 205.6 -21 -1.5
      vertex 206.67 -22.9397 -1.5
      vertex 207.3 -21 -1.5
    endloop
  endfacet
  facet normal 0 0 1
    outer loop
      vertex 205.6 -21 -1.5
      vertex 207.3 -21 -1.5
      vertex 206.67 -19.0603 -1.5
    endloop
  endfacet
  facet normal -0.866024 -0.500002 0
    outer loop
      vertex 205.65 -18.1421 -19.5
      vertex 207.3 -21 -22
      vertex 207.3 -21 -19.5
    endloop
  endfacet
  facet normal -0.866024 -0.500002 0
    outer loop
      vertex 205.65 -18.1421 -22
      vertex 207.3 -21 -22
      vertex 205.65 -18.1421 -19.5
    endloop
  endfacet
  facet normal 0 0 -1
    outer loop
      vertex 205.65 -18.1421 -22
      vertex 216 10 -22
      vertex 207.3 -21 -22
    endloop
  endfacet
  facet normal -0.866024 0.500002 0
    outer loop
      vertex 205.65 -23.8579 -22
      vertex 205.65 -23.8579 -19.5
      vertex 207.3 -21 -19.5
    endloop
  endfacet
  facet normal -0.866024 0.500002 0
    outer loop
      vertex 205.65 -23.8579 -22
      vertex 207.3 -21 -19.5
      vertex 207.3 -21 -22
    endloop
  endfacet
  facet normal 0 0 -1
    outer loop
      vertex 205.65 -23.8579 -22
      vertex 207.3 -21 -22
      vertex 216 -52 -22
    endloop
  endfacet
  facet normal -0.951056 -0.309019 0
    outer loop
      vertex 206.67 -19.0603 -1.5
      vertex 207.3 -21 -1.5
      vertex 206.67 -19.0603 -2.53097e-14
    endloop
  endfacet
  facet normal -0.951056 -0.309019 0
    outer loop
      vertex 206.67 -19.0603 -2.53097e-14
      vertex 207.3 -21 -1.5
      vertex 207.3 -21 -2.53869e-14
    endloop
  endfacet
  facet normal 1.22463e-16 4.07854e-22 1
    outer loop
      vertex 206.67 -19.0603 -2.53097e-14
      vertex 207.3 -21 -2.53869e-14
      vertex 216 10 -2.64524e-14
    endloop
  endfacet
  facet normal -0.951056 0.309019 0
    outer loop
      vertex 206.67 -22.9397 -1.5
      vertex 206.67 -22.9397 -2.53097e-14
      vertex 207.3 -21 -2.53869e-14
    endloop
  endfacet
  facet normal -0.951056 0.309019 0
    outer loop
      vertex 206.67 -22.9397 -1.5
      vertex 207.3 -21 -2.53869e-14
      vertex 207.3 -21 -1.5
    endloop
  endfacet
  facet normal 1.22463e-16 -4.07854e-22 1
    outer loop
      vertex 206.67 -22.9397 -2.53097e-14
      vertex 216 -52 -2.64524e-14
      vertex 207.3 -21 -2.53869e-14
    endloop
  endfacet
  facet normal 1.22465e-16 0 1
    outer loop
      vertex 207.3 -21 -2.53869e-14
      vertex 216 -52 -2.64524e-14
      vertex 216 10 -2.64524e-14
    endloop
  endfacet
  facet normal 0 0 -1
    outer loop
      vertex 207.3 -21 -22
      vertex 216 10 -22
      vertex 216 -52 -22
    endloop
  endfacet
  facet normal 1 -0 0
    outer loop
      vertex 216 -52 -2.64524e-14
      vertex 216 10 -22
      vertex 216 10 -2.64524e-14
    endloop
  endfacet
  facet normal 1 0 0
    outer loop
      vertex 216 -52 -22
      vertex 216 10 -22
      vertex 216 -52 -2.64524e-14
    endloop
  endfacet
  facet normal 0 0 -1
    outer loop
      vertex 3.3 -21 -22
      vertex 36.7 -21 -22
      vertex 38.35 -23.8579 -22
    endloop
  endfacet
  facet normal 0 0 -1
    outer loop
      vertex 3.3 -21 -22
      vertex 38.35 -18.1421 -22
      vertex 36.7 -21 -22
    endloop
  endfacet
  facet normal 0.951057 0.309016 0
    outer loop
      vertex 36.7 -21 -1.5
      vertex 36.7 -21 -4.49445e-15
      vertex 37.3302 -22.9397 -4.57164e-15
    endloop
  endfacet
  facet normal 0.951057 -0.309016 0
    outer loop
      vertex 36.7 -21 -1.5
      vertex 37.3302 -19.0603 -1.5
      vertex 36.7 -21 -4.49445e-15
    endloop
  endfacet
  facet normal 0 0 1
    outer loop
      vertex 36.7 -21 -1.5
      vertex 37.3302 -22.9397 -1.5
      vertex 38.4 -21 -1.5
    endloop
  endfacet
  facet normal 0.951057 0.309016 0
    outer loop
      vertex 36.7 -21 -1.5
      vertex 37.3302 -22.9397 -4.57164e-15
      vertex 37.3302 -22.9397 -1.5
    endloop
  endfacet
  facet normal 0 0 1
    outer loop
      vertex 36.7 -21 -1.5
      vertex 38.4 -21 -1.5
      vertex 37.3302 -19.0603 -1.5
    endloop
  endfacet
  facet normal -0 0 -1
    outer loop
      vertex 36.7 -21 -19.5
      vertex 38.35 -18.1421 -19.5
      vertex 38.7056 -20.0595 -19.5
    endloop
  endfacet
  facet normal 0.866026 -0.5 0
    outer loop
      vertex 36.7 -21 -19.5
      vertex 38.35 -18.1421 -22
      vertex 38.35 -18.1421 -19.5
    endloop
  endfacet
  facet normal 0 0 -1
    outer loop
      vertex 36.7 -21 -19.5
      vertex 38.4 -21 -19.5
      vertex 38.7056 -21.9405 -19.5
    endloop
  endfacet
  facet normal 0 0 -1
    outer loop
      vertex 36.7 -21 -19.5
      vertex 38.7056 -20.0595 -19.5
      vertex 38.4 -21 -19.5
    endloop
  endfacet
  facet normal 0 0 -1
    outer loop
      vertex 36.7 -21 -19.5
      vertex 38.7056 -21.9405 -19.5
      vertex 38.35 -23.8579 -19.5
    endloop
  endfacet
  facet normal 0.866026 0.5 0
    outer loop
      vertex 36.7 -21 -22
      vertex 36.7 -21 -19.5
      vertex 38.35 -23.8579 -19.5
    endloop
  endfacet
  facet normal 0.866026 -0.5 0
    outer loop
      vertex 36.7 -21 -22
      vertex 38.35 -18.1421 -22
      vertex 36.7 -21 -19.5
    endloop
  endfacet
  facet normal 0.866026 0.5 0
    outer loop
      vertex 36.7 -21 -22
      vertex 38.35 -23.8579 -19.5
      vertex 38.35 -23.8579 -22
    endloop
  endfacet
  facet normal 0.951057 -0.309016 0
    outer loop
      vertex 36.7 -21 -4.49445e-15
      vertex 37.3302 -19.0603 -1.5
      vertex 37.3302 -19.0603 -4.57164e-15
    endloop
  endfacet
  facet normal 0 0 1
    outer loop
      vertex 37.3302 -19.0603 -1.5
      vertex 38.4 -21 -1.5
      vertex 38.7056 -20.0595 -1.5
    endloop
  endfacet
  facet normal -0 0 1
    outer loop
      vertex 37.3302 -19.0603 -1.5
      vertex 38.7056 -20.0595 -1.5
      vertex 38.9802 -17.8615 -1.5
    endloop
  endfacet
  facet normal 0.587785 -0.809017 0
    outer loop
      vertex 37.3302 -19.0603 -1.5
      vertex 38.9802 -17.8615 -1.5
      vertex 38.9802 -17.8615 -4.7737e-15
    endloop
  endfacet
  facet normal 0.587785 -0.809017 0
    outer loop
      vertex 37.3302 -19.0603 -1.5
      vertex 38.9802 -17.8615 -4.7737e-15
      vertex 37.3302 -19.0603 -4.57164e-15
    endloop
  endfacet
  facet normal 0.587785 0.809017 0
    outer loop
      vertex 37.3302 -22.9397 -1.5
      vertex 37.3302 -22.9397 -4.57164e-15
      vertex 38.9802 -24.1385 -1.5
    endloop
  endfacet
  facet normal 0 0 1
    outer loop
      vertex 37.3302 -22.9397 -1.5
      vertex 38.7056 -21.9405 -1.5
      vertex 38.4 -21 -1.5
    endloop
  endfacet
  facet normal 0 0 1
    outer loop
      vertex 37.3302 -22.9397 -1.5
      vertex 38.9802 -24.1385 -1.5
      vertex 38.7056 -21.9405 -1.5
    endloop
  endfacet
  facet normal 0.587785 0.809017 -0
    outer loop
      vertex 37.3302 -22.9397 -4.57164e-15
      vertex 38.9802 -24.1385 -4.7737e-15
      vertex 38.9802 -24.1385 -1.5
    endloop
  endfacet
  facet normal 0 0 -1
    outer loop
      vertex 38.35 -18.1421 -19.5
      vertex 39.5056 -19.4783 -19.5
      vertex 38.7056 -20.0595 -19.5
    endloop
  endfacet
  facet normal 0 0 -1
    outer loop
      vertex 38.35 -18.1421 -19.5
      vertex 41.65 -18.1421 -19.5
      vertex 39.5056 -19.4783 -19.5
    endloop
  endfacet
  facet normal 0 -1 0
    outer loop
      vertex 38.35 -18.1421 -22
      vertex 41.65 -18.1421 -19.5
      vertex 38.35 -18.1421 -19.5
    endloop
  endfacet
  facet normal 0 -1 -0
    outer loop
      vertex 38.35 -18.1421 -22
      vertex 41.65 -18.1421 -22
      vertex 41.65 -18.1421 -19.5
    endloop
  endfacet
  facet normal 0 0 -1
    outer loop
      vertex 38.35 -18.1421 -22
      vertex 54 -6.61309e-15 -22
      vertex 41.65 -18.1421 -22
    endloop
  endfacet
  facet normal -0 0 -1
    outer loop
      vertex 38.35 -23.8579 -19.5
      vertex 38.7056 -21.9405 -19.5
      vertex 39.5056 -22.5217 -19.5
    endloop
  endfacet
  facet normal 0 0 -1
    outer loop
      vertex 38.35 -23.8579 -19.5
      vertex 39.5056 -22.5217 -19.5
      vertex 41.65 -23.8579 -19.5
    endloop
  endfacet
  facet normal 0 1 -0
    outer loop
      vertex 38.35 -23.8579 -19.5
      vertex 41.65 -23.8579 -19.5
      vertex 41.65 -23.8579 -22
    endloop
  endfacet
  facet normal 0 1 0
    outer loop
      vertex 38.35 -23.8579 -22
      vertex 38.35 -23.8579 -19.5
      vertex 41.65 -23.8579 -22
    endloop
  endfacet
  facet normal 0 0 -1
    outer loop
      vertex 38.35 -23.8579 -22
      vertex 41.65 -23.8579 -22
      vertex 54 -42 -22
    endloop
  endfacet
  facet normal 0.951057 -0.309017 0
    outer loop
      vertex 38.4 -21 -1.5
      vertex 38.7056 -20.0595 -19.5
      vertex 38.7056 -20.0595 -1.5
    endloop
  endfacet
  facet normal 0.951057 0.309017 0
    outer loop
      vertex 38.4 -21 -19.5
      vertex 38.4 -21 -1.5
      vertex 38.7056 -21.9405 -1.5
    endloop
  endfacet
  facet normal 0.951057 -0.309017 0
    outer loop
      vertex 38.4 -21 -19.5
      vertex 38.7056 -20.0595 -19.5
      vertex 38.4 -21 -1.5
    endloop
  endfacet
  facet normal 0.951057 0.309017 0
    outer loop
      vertex 38.4 -21 -19.5
      vertex 38.7056 -21.9405 -1.5
      vertex 38.7056 -21.9405 -19.5
    endloop
  endfacet
  facet normal 0 0 1
    outer loop
      vertex 38.7056 -20.0595 -1.5
      vertex 39.5056 -19.4783 -1.5
      vertex 38.9802 -17.8615 -1.5
    endloop
  endfacet
  facet normal 0.587786 -0.809017 0
    outer loop
      vertex 38.7056 -20.0595 -19.5
      vertex 39.5056 -19.4783 -1.5
      vertex 38.7056 -20.0595 -1.5
    endloop
  endfacet
  facet normal 0.587786 -0.809017 0
    outer loop
      vertex 38.7056 -20.0595 -19.5
      vertex 39.5056 -19.4783 -19.5
      vertex 39.5056 -19.4783 -1.5
    endloop
  endfacet
  facet normal 0 0 1
    outer loop
      vertex 38.7056 -21.9405 -1.5
      vertex 38.9802 -24.1385 -1.5
      vertex 39.5056 -22.5217 -1.5
    endloop
  endfacet
  facet normal 0.587786 0.809017 -0
    outer loop
      vertex 38.7056 -21.9405 -1.5
      vertex 39.5056 -22.5217 -1.5
      vertex 39.5056 -22.5217 -19.5
    endloop
  endfacet
  facet normal 0.587786 0.809017 0
    outer loop
      vertex 38.7056 -21.9405 -19.5
      vertex 38.7056 -21.9405 -1.5
      vertex 39.5056 -22.5217 -19.5
    endloop
  endfacet
  facet normal -0 0 1
    outer loop
      vertex 38.9802 -17.8615 -1.5
      vertex 39.5056 -19.4783 -1.5
      vertex 41.0198 -17.8615 -1.5
    endloop
  endfacet
  facet normal 0 -1 -0
    outer loop
      vertex 38.9802 -17.8615 -1.5
      vertex 41.0198 -17.8615 -1.5
      vertex 41.0198 -17.8615 -5.02347e-15
    endloop
  endfacet
  facet normal 0 -1 0
    outer loop
      vertex 38.9802 -17.8615 -1.5
      vertex 41.0198 -17.8615 -5.02347e-15
      vertex 38.9802 -17.8615 -4.7737e-15
    endloop
  endfacet
  facet normal 0 1 0
    outer loop
      vertex 38.9802 -24.1385 -1.5
      vertex 38.9802 -24.1385 -4.7737e-15
      vertex 41.0198 -24.1385 -1.5
    endloop
  endfacet
  facet normal 0 0 1
    outer loop
      vertex 38.9802 -24.1385 -1.5
      vertex 41.0198 -24.1385 -1.5
      vertex 39.5056 -22.5217 -1.5
    endloop
  endfacet
  facet normal 0 1 -0
    outer loop
      vertex 38.9802 -24.1385 -4.7737e-15
      vertex 41.0198 -24.1385 -5.02347e-15
      vertex 41.0198 -24.1385 -1.5
    endloop
  endfacet
  facet normal 0 0 1
    outer loop
      vertex 39.5056 -19.4783 -1.5
      vertex 40.4944 -19.4783 -1.5
      vertex 41.0198 -17.8615 -1.5
    endloop
  endfacet
  facet normal 0 -1 0
    outer loop
      vertex 39.5056 -19.4783 -19.5
      vertex 40.4944 -19.4783 -1.5
      vertex 39.5056 -19.4783 -1.5
    endloop
  endfacet
  facet normal 0 -1 -0
    outer loop
      vertex 39.5056 -19.4783 -19.5
      vertex 40.4944 -19.4783 -19.5
      vertex 40.4944 -19.4783 -1.5
    endloop
  endfacet
  facet normal 0 0 -1
    outer loop
      vertex 39.5056 -19.4783 -19.5
      vertex 41.65 -18.1421 -19.5
      vertex 40.4944 -19.4783 -19.5
    endloop
  endfacet
  facet normal 0 1 -0
    outer loop
      vertex 39.5056 -22.5217 -1.5
      vertex 40.4944 -22.5217 -1.5
      vertex 40.4944 -22.5217 -19.5
    endloop
  endfacet
  facet normal -0 0 1
    outer loop
      vertex 39.5056 -22.5217 -1.5
      vertex 41.0198 -24.1385 -1.5
      vertex 40.4944 -22.5217 -1.5
    endloop
  endfacet
  facet normal 0 1 0
    outer loop
      vertex 39.5056 -22.5217 -19.5
      vertex 39.5056 -22.5217 -1.5
      vertex 40.4944 -22.5217 -19.5
    endloop
  endfacet
  facet normal 0 0 -1
    outer loop
      vertex 39.5056 -22.5217 -19.5
      vertex 40.4944 -22.5217 -19.5
      vertex 41.65 -23.8579 -19.5
    endloop
  endfacet
  facet normal 0 0 1
    outer loop
      vertex 40.4944 -19.4783 -1.5
      vertex 41.2944 -20.0595 -1.5
      vertex 41.0198 -17.8615 -1.5
    endloop
  endfacet
  facet normal -0.587786 -0.809017 0
    outer loop
      vertex 40.4944 -19.4783 -19.5
      vertex 41.2944 -20.0595 -1.5
      vertex 40.4944 -19.4783 -1.5
    endloop
  endfacet
  facet normal -0.587786 -0.809017 -0
    outer loop
      vertex 40.4944 -19.4783 -19.5
      vertex 41.2944 -20.0595 -19.5
      vertex 41.2944 -20.0595 -1.5
    endloop
  endfacet
  facet normal 0 0 -1
    outer loop
      vertex 40.4944 -19.4783 -19.5
      vertex 41.65 -18.1421 -19.5
      vertex 41.2944 -20.0595 -19.5
    endloop
  endfacet
  facet normal -0 0 1
    outer loop
      vertex 40.4944 -22.5217 -1.5
      vertex 41.0198 -24.1385 -1.5
      vertex 41.2944 -21.9405 -1.5
    endloop
  endfacet
  facet normal -0.587786 0.809017 0
    outer loop
      vertex 40.4944 -22.5217 -1.5
      vertex 41.2944 -21.9405 -1.5
      vertex 41.2944 -21.9405 -19.5
    endloop
  endfacet
  facet normal -0.587786 0.809017 0
    outer loop
      vertex 40.4944 -22.5217 -19.5
      vertex 40.4944 -22.5217 -1.5
      vertex 41.2944 -21.9405 -19.5
    endloop
  endfacet
  facet normal 0 0 -1
    outer loop
      vertex 40.4944 -22.5217 -19.5
      vertex 41.2944 -21.9405 -19.5
      vertex 41.65 -23.8579 -19.5
    endloop
  endfacet
  facet normal 0 0 1
    outer loop
      vertex 41.0198 -17.8615 -1.5
      vertex 41.2944 -20.0595 -1.5
      vertex 42.6698 -19.0603 -1.5
    endloop
  endfacet
  facet normal -0.587786 -0.809017 -0
    outer loop
      vertex 41.0198 -17.8615 -1.5
      vertex 42.6698 -19.0603 -1.5
      vertex 42.6698 -19.0603 -5.22554e-15
    endloop
  endfacet
  facet normal -0.587786 -0.809017 0
    outer loop
      vertex 41.0198 -17.8615 -1.5
      vertex 42.6698 -19.0603 -5.22554e-15
      vertex 41.0198 -17.8615 -5.02347e-15
    endloop
  endfacet
  facet normal 1.22465e-16 1.28925e-23 1
    outer loop
      vertex 41.0198 -17.8615 -5.02347e-15
      vertex 163.506 -19.4783 -2.00237e-14
      vertex 216 10 -2.64524e-14
    endloop
  endfacet
  facet normal 1.22465e-16 -3.95334e-22 1
    outer loop
      vertex 41.0198 -17.8615 -5.02347e-15
      vertex 42.6698 -19.0603 -5.22554e-15
      vertex 163.506 -19.4783 -2.00237e-14
    endloop
  endfacet
  facet normal -0.587786 0.809017 0
    outer loop
      vertex 41.0198 -24.1385 -1.5
      vertex 41.0198 -24.1385 -5.02347e-15
      vertex 42.6698 -22.9397 -1.5
    endloop
  endfacet
  facet normal 0 0 1
    outer loop
      vertex 41.0198 -24.1385 -1.5
      vertex 42.6698 -22.9397 -1.5
      vertex 41.2944 -21.9405 -1.5
    endloop
  endfacet
  facet normal 1.22465e-16 3.95334e-22 1
    outer loop
      vertex 41.0198 -24.1385 -5.02347e-15
      vertex 163.506 -22.5217 -2.00237e-14
      vertex 42.6698 -22.9397 -5.22554e-15
    endloop
  endfacet
  facet normal 1.22465e-16 -1.28925e-23 1
    outer loop
      vertex 41.0198 -24.1385 -5.02347e-15
      vertex 216 -52 -2.64524e-14
      vertex 163.506 -22.5217 -2.00237e-14
    endloop
  endfacet
  facet normal -0.587786 0.809017 0
    outer loop
      vertex 41.0198 -24.1385 -5.02347e-15
      vertex 42.6698 -22.9397 -5.22554e-15
      vertex 42.6698 -22.9397 -1.5
    endloop
  endfacet
  facet normal 0 0 1
    outer loop
      vertex 41.2944 -20.0595 -1.5
      vertex 41.6 -21 -1.5
      vertex 42.6698 -19.0603 -1.5
    endloop
  endfacet
  facet normal -0.951057 -0.309017 0
    outer loop
      vertex 41.2944 -20.0595 -1.5
      vertex 41.6 -21 -19.5
      vertex 41.6 -21 -1.5
    endloop
  endfacet
  facet normal -0.951057 -0.309017 0
    outer loop
      vertex 41.2944 -20.0595 -19.5
      vertex 41.6 -21 -19.5
      vertex 41.2944 -20.0595 -1.5
    endloop
  endfacet
  facet normal 0 0 -1
    outer loop
      vertex 41.2944 -20.0595 -19.5
      vertex 41.65 -18.1421 -19.5
      vertex 43.3 -21 -19.5
    endloop
  endfacet
  facet normal 0 0 -1
    outer loop
      vertex 41.2944 -20.0595 -19.5
      vertex 43.3 -21 -19.5
      vertex 41.6 -21 -19.5
    endloop
  endfacet
  facet normal -0 0 1
    outer loop
      vertex 41.2944 -21.9405 -1.5
      vertex 42.6698 -22.9397 -1.5
      vertex 41.6 -21 -1.5
    endloop
  endfacet
  facet normal -0.951057 0.309017 0
    outer loop
      vertex 41.2944 -21.9405 -19.5
      vertex 41.2944 -21.9405 -1.5
      vertex 41.6 -21 -1.5
    endloop
  endfacet
  facet normal -0.951057 0.309017 0
    outer loop
      vertex 41.2944 -21.9405 -19.5
      vertex 41.6 -21 -1.5
      vertex 41.6 -21 -19.5
    endloop
  endfacet
  facet normal -0 0 -1
    outer loop
      vertex 41.2944 -21.9405 -19.5
      vertex 41.6 -21 -19.5
      vertex 43.3 -21 -19.5
    endloop
  endfacet
  facet normal 0 0 -1
    outer loop
      vertex 41.2944 -21.9405 -19.5
      vertex 43.3 -21 -19.5
      vertex 41.65 -23.8579 -19.5
    endloop
  endfacet
  facet normal 0 0 1
    outer loop
      vertex 41.6 -21 -1.5
      vertex 42.6698 -22.9397 -1.5
      vertex 43.3 -21 -1.5
    endloop
  endfacet
  facet normal 0 0 1
    outer loop
      vertex 41.6 -21 -1.5
      vertex 43.3 -21 -1.5
      vertex 42.6698 -19.0603 -1.5
    endloop
  endfacet
  facet normal -0.866025 -0.5 0
    outer loop
      vertex 41.65 -18.1421 -19.5
      vertex 43.3 -21 -22
      vertex 43.3 -21 -19.5
    endloop
  endfacet
  facet normal -0.866025 -0.5 0
    outer loop
      vertex 41.65 -18.1421 -22
      vertex 43.3 -21 -22
      vertex 41.65 -18.1421 -19.5
    endloop
  endfacet
  facet normal 0 0 -1
    outer loop
      vertex 41.65 -18.1421 -22
      vertex 54 -6.61309e-15 -22
      vertex 43.3 -21 -22
    endloop
  endfacet
  facet normal -0.866025 0.5 0
    outer loop
      vertex 41.65 -23.8579 -22
      vertex 41.65 -23.8579 -19.5
      vertex 43.3 -21 -19.5
    endloop
  endfacet
  facet normal -0.866025 0.5 0
    outer loop
      vertex 41.65 -23.8579 -22
      vertex 43.3 -21 -19.5
      vertex 43.3 -21 -22
    endloop
  endfacet
  facet normal 0 0 -1
    outer loop
      vertex 41.65 -23.8579 -22
      vertex 43.3 -21 -22
      vertex 54 -42 -22
    endloop
  endfacet
  facet normal -0.951056 -0.309018 0
    outer loop
      vertex 42.6698 -19.0603 -1.5
      vertex 43.3 -21 -1.5
      vertex 42.6698 -19.0603 -5.22554e-15
    endloop
  endfacet
  facet normal 1.22465e-16 -1.53591e-21 1
    outer loop
      vertex 42.6698 -19.0603 -5.22554e-15
      vertex 162.706 -20.0595 -1.99257e-14
      vertex 163.506 -19.4783 -2.00237e-14
    endloop
  endfacet
  facet normal -0.951056 -0.309018 0
    outer loop
      vertex 42.6698 -19.0603 -5.22554e-15
      vertex 43.3 -21 -1.5
      vertex 43.3 -21 -5.30272e-15
    endloop
  endfacet
  facet normal 1.22465e-16 1.50843e-22 1
    outer loop
      vertex 42.6698 -19.0603 -5.22554e-15
      vertex 43.3 -21 -5.30272e-15
      vertex 162.706 -20.0595 -1.99257e-14
    endloop
  endfacet
  facet normal -0.951056 0.309018 0
    outer loop
      vertex 42.6698 -22.9397 -1.5
      vertex 42.6698 -22.9397 -5.22554e-15
      vertex 43.3 -21 -5.30272e-15
    endloop
  endfacet
  facet normal -0.951056 0.309018 0
    outer loop
      vertex 42.6698 -22.9397 -1.5
      vertex 43.3 -21 -5.30272e-15
      vertex 43.3 -21 -1.5
    endloop
  endfacet
  facet normal 1.22465e-16 -1.50843e-22 1
    outer loop
      vertex 42.6698 -22.9397 -5.22554e-15
      vertex 162.706 -21.9405 -1.99257e-14
      vertex 43.3 -21 -5.30272e-15
    endloop
  endfacet
  facet normal 1.22465e-16 1.53591e-21 1
    outer loop
      vertex 42.6698 -22.9397 -5.22554e-15
      vertex 163.506 -22.5217 -2.00237e-14
      vertex 162.706 -21.9405 -1.99257e-14
    endloop
  endfacet
  facet normal 0 0 -1
    outer loop
      vertex 43.3 -21 -22
      vertex 54 -6.61309e-15 -22
      vertex 54 -42 -22
    endloop
  endfacet
  facet normal 1.22465e-16 7.85661e-23 1
    outer loop
      vertex 43.3 -21 -5.30272e-15
      vertex 162.4 -21 -1.98883e-14
      vertex 162.706 -20.0595 -1.99257e-14
    endloop
  endfacet
  facet normal 1.22465e-16 -7.85661e-23 1
    outer loop
      vertex 43.3 -21 -5.30272e-15
      vertex 162.706 -21.9405 -1.99257e-14
      vertex 162.4 -21 -1.98883e-14
    endloop
  endfacet
  facet normal -0 0 -1
    outer loop
      vertex 54 -42 -17
      vertex 160.7 -21 -17
      vertex 162.35 -23.8579 -17
    endloop
  endfacet
  facet normal 0 0 -1
    outer loop
      vertex 54 -42 -17
      vertex 162.35 -23.8579 -17
      vertex 190 -42 -17
    endloop
  endfacet
  facet normal 0 1 -0
    outer loop
      vertex 54 -42 -17
      vertex 190 -42 -17
      vertex 190 -42 -22
    endloop
  endfacet
  facet normal 0 0 -1
    outer loop
      vertex 54 -42 -17
      vertex 54 -6.61309e-15 -17
      vertex 160.7 -21 -17
    endloop
  endfacet
  facet normal 1 -0 0
    outer loop
      vertex 54 -42 -17
      vertex 54 -6.61309e-15 -22
      vertex 54 -6.61309e-15 -17
    endloop
  endfacet
  facet normal 0 0 -1
    outer loop
      vertex 54 -42 -22
      vertex 190 -42 -22
      vertex 216 -52 -22
    endloop
  endfacet
  facet normal 0 1 0
    outer loop
      vertex 54 -42 -22
      vertex 54 -42 -17
      vertex 190 -42 -22
    endloop
  endfacet
  facet normal 1 0 0
    outer loop
      vertex 54 -42 -22
      vertex 54 -6.61309e-15 -22
      vertex 54 -42 -17
    endloop
  endfacet
  facet normal 0 0 -1
    outer loop
      vertex 54 -6.61309e-15 -17
      vertex 162.35 -18.1421 -17
      vertex 160.7 -21 -17
    endloop
  endfacet
  facet normal 0 0 -1
    outer loop
      vertex 54 -6.61309e-15 -17
      vertex 190 -2.32683e-14 -17
      vertex 162.35 -18.1421 -17
    endloop
  endfacet
  facet normal -1.22465e-16 -1 0
    outer loop
      vertex 54 -6.61309e-15 -22
      vertex 190 -2.32683e-14 -17
      vertex 54 -6.61309e-15 -17
    endloop
  endfacet
  facet normal -1.22465e-16 -1 -0
    outer loop
      vertex 54 -6.61309e-15 -22
      vertex 190 -2.32683e-14 -22
      vertex 190 -2.32683e-14 -17
    endloop
  endfacet
  facet normal 0 0 -1
    outer loop
      vertex 54 -6.61309e-15 -22
      vertex 216 10 -22
      vertex 190 -2.32683e-14 -22
    endloop
  endfacet
endsolid model
