solid model
  facet normal 0 1 0
    outer loop
      vertex -0.494427 23.8783 0
      vertex -0.494427 23.8783 5.3
      vertex 0.494427 23.8783 0
    endloop
  endfacet
  facet normal 0 0 -1
    outer loop
      vertex -0.494427 23.8783 0
      vertex 0.494427 23.8783 0
      vertex 0.5 10.9633 0
    endloop
  endfacet
  facet normal 0 1 -0
    outer loop
      vertex -0.494427 23.8783 5.3
      vertex 0.494427 23.8783 5.3
      vertex 0.494427 23.8783 0
    endloop
  endfacet
  facet normal -0 0 1
    outer loop
      vertex -0.494427 23.8783 5.3
      vertex 1.65 22.5421 5.3
      vertex 0.494427 23.8783 5.3
    endloop
  endfacet
  facet normal 0 0 -1
    outer loop
      vertex -0.494427 26.9217 0
      vertex -0.494427 36.5783 0
      vertex 0.494427 36.5783 0
    endloop
  endfacet
  facet normal 0 -1 -0
    outer loop
      vertex -0.494427 26.9217 0
      vertex 0.494427 26.9217 0
      vertex 0.494427 26.9217 5.3
    endloop
  endfacet
  facet normal 0 -1 0
    outer loop
      vertex -0.494427 26.9217 0
      vertex 0.494427 26.9217 5.3
      vertex -0.494427 26.9217 5.3
    endloop
  endfacet
  facet normal 0 0 -1
    outer loop
      vertex -0.494427 26.9217 0
      vertex 0.494427 36.5783 0
      vertex 0.494427 26.9217 0
    endloop
  endfacet
  facet normal 0 0 1
    outer loop
      vertex -0.494427 26.9217 5.3
      vertex 0.494427 26.9217 5.3
      vertex 1.65 28.2579 5.3
    endloop
  endfacet
  facet normal 0 1 0
    outer loop
      vertex -0.494427 36.5783 0
      vertex -0.494427 36.5783 5.3
      vertex 0.494427 36.5783 0
    endloop
  endfacet
  facet normal 0 1 -0
    outer loop
      vertex -0.494427 36.5783 5.3
      vertex 0.494427 36.5783 5.3
      vertex 0.494427 36.5783 0
    endloop
  endfacet
  facet normal -0 0 1
    outer loop
      vertex -0.494427 36.5783 5.3
      vertex 1.65 35.2421 5.3
      vertex 0.494427 36.5783 5.3
    endloop
  endfacet
  facet normal 0 -1 -0
    outer loop
      vertex -0.494427 39.6217 0
      vertex 0.494427 39.6217 0
      vertex 0.494427 39.6217 5.3
    endloop
  endfacet
  facet normal 0 -1 0
    outer loop
      vertex -0.494427 39.6217 0
      vertex 0.494427 39.6217 5.3
      vertex -0.494427 39.6217 5.3
    endloop
  endfacet
  facet normal 0 0 -1
    outer loop
      vertex -0.494427 39.6217 0
      vertex 1.63779 43.1406 0
      vertex 0.494427 39.6217 0
    endloop
  endfacet
  facet normal 0 0 1
    outer loop
      vertex -0.494427 39.6217 5.3
      vertex 0.494427 39.6217 5.3
      vertex 1.65 40.9579 5.3
    endloop
  endfacet
  facet normal 1 0 0
    outer loop
      vertex -0.5 -10.0812 0
      vertex -0.5 -5.22081 0
      vertex -0.5 -10.0812 10.6
    endloop
  endfacet
  facet normal 1 -0 0
    outer loop
      vertex -0.5 -10.0812 10.6
      vertex -0.5 -5.22081 0
      vertex -0.5 -5.22081 10.6
    endloop
  endfacet
  facet normal 1 0 0
    outer loop
      vertex -0.5 10.0812 10.6
      vertex -0.5 10.9633 0
      vertex -0.5 10.9633 10.4586
    endloop
  endfacet
  facet normal 0 0 -1
    outer loop
      vertex -0.5 10.9633 0
      vertex -0.494427 23.8783 0
      vertex 0.5 10.9633 0
    endloop
  endfacet
  facet normal 0 -1 -0
    outer loop
      vertex -0.5 10.9633 0
      vertex 0.5 10.9633 0
      vertex 0.5 10.9633 10.4586
    endloop
  endfacet
  facet normal 0 -1 0
    outer loop
      vertex -0.5 10.9633 0
      vertex 0.5 10.9633 10.4586
      vertex -0.5 10.9633 10.4586
    endloop
  endfacet
  facet normal 0 0.158297 0.987391
    outer loop
      vertex -0.5 10.9633 10.4586
      vertex 0.5 10.9633 10.4586
      vertex 1.65 22.5421 8.6023
    endloop
  endfacet
  facet normal 1 0 0
    outer loop
      vertex -0.5 5.22081 0
      vertex -0.5 10.0812 10.6
      vertex -0.5 5.22081 10.6
    endloop
  endfacet
  facet normal 1 0 0
    outer loop
      vertex -0.5 5.22081 0
      vertex -0.5 10.9633 0
      vertex -0.5 10.0812 10.6
    endloop
  endfacet
  facet normal -0 0 -1
    outer loop
      vertex -1.29443 24.4595 0
      vertex -0.494427 23.8783 0
      vertex -0.5 10.9633 0
    endloop
  endfacet
  facet normal 0.587761 0.809034 0
    outer loop
      vertex -1.29443 24.4595 0
      vertex -1.29443 24.4595 5.3
      vertex -0.494427 23.8783 0
    endloop
  endfacet
  facet normal 0.587761 0.809034 -0
    outer loop
      vertex -1.29443 24.4595 5.3
      vertex -0.494427 23.8783 5.3
      vertex -0.494427 23.8783 0
    endloop
  endfacet
  facet normal 0.587761 -0.809034 0
    outer loop
      vertex -1.29443 26.3405 0
      vertex -0.494427 26.9217 0
      vertex -0.494427 26.9217 5.3
    endloop
  endfacet
  facet normal 0.587761 -0.809034 0
    outer loop
      vertex -1.29443 26.3405 0
      vertex -0.494427 26.9217 5.3
      vertex -1.29443 26.3405 5.3
    endloop
  endfacet
  facet normal 0 0 -1
    outer loop
      vertex -1.29443 26.3405 0
      vertex -0.494427 36.5783 0
      vertex -0.494427 26.9217 0
    endloop
  endfacet
  facet normal 0 0 -1
    outer loop
      vertex -1.29443 26.3405 0
      vertex -1.29443 37.1595 0
      vertex -0.494427 36.5783 0
    endloop
  endfacet
  facet normal 0.587761 0.809034 0
    outer loop
      vertex -1.29443 37.1595 0
      vertex -1.29443 37.1595 5.3
      vertex -0.494427 36.5783 0
    endloop
  endfacet
  facet normal 0.587761 0.809034 -0
    outer loop
      vertex -1.29443 37.1595 5.3
      vertex -0.494427 36.5783 5.3
      vertex -0.494427 36.5783 0
    endloop
  endfacet
  facet normal 0.587761 -0.809034 0
    outer loop
      vertex -1.29443 39.0405 0
      vertex -0.494427 39.6217 0
      vertex -0.494427 39.6217 5.3
    endloop
  endfacet
  facet normal 0.587761 -0.809034 0
    outer loop
      vertex -1.29443 39.0405 0
      vertex -0.494427 39.6217 5.3
      vertex -1.29443 39.0405 5.3
    endloop
  endfacet
  facet normal 0.951062 0.309001 0
    outer loop
      vertex -1.6 25.4 0
      vertex -1.29443 24.4595 5.3
      vertex -1.29443 24.4595 0
    endloop
  endfacet
  facet normal 0.951062 -0.309001 0
    outer loop
      vertex -1.6 25.4 0
      vertex -1.29443 26.3405 0
      vertex -1.6 25.4 5.3
    endloop
  endfacet
  facet normal 0 0 -1
    outer loop
      vertex -1.6 25.4 0
      vertex -1.29443 37.1595 0
      vertex -1.29443 26.3405 0
    endloop
  endfacet
  facet normal 0.951062 0.309001 0
    outer loop
      vertex -1.6 25.4 0
      vertex -1.6 25.4 5.3
      vertex -1.29443 24.4595 5.3
    endloop
  endfacet
  facet normal -0 0 -1
    outer loop
      vertex -1.6 25.4 0
      vertex -1.6 38.1 0
      vertex -1.29443 37.1595 0
    endloop
  endfacet
  facet normal 0.951062 -0.309001 0
    outer loop
      vertex -1.6 25.4 5.3
      vertex -1.29443 26.3405 0
      vertex -1.29443 26.3405 5.3
    endloop
  endfacet
  facet normal 0.951062 0.309001 0
    outer loop
      vertex -1.6 38.1 0
      vertex -1.29443 37.1595 5.3
      vertex -1.29443 37.1595 0
    endloop
  endfacet
  facet normal 0.951062 -0.309001 0
    outer loop
      vertex -1.6 38.1 0
      vertex -1.29443 39.0405 0
      vertex -1.6 38.1 5.3
    endloop
  endfacet
  facet normal 0.951062 0.309001 0
    outer loop
      vertex -1.6 38.1 0
      vertex -1.6 38.1 5.3
      vertex -1.29443 37.1595 5.3
    endloop
  endfacet
  facet normal 0.951062 -0.309001 0
    outer loop
      vertex -1.6 38.1 5.3
      vertex -1.29443 39.0405 0
      vertex -1.29443 39.0405 5.3
    endloop
  endfacet
  facet normal 0 0 -1
    outer loop
      vertex -1.63779 -5.0406 0
      vertex -0.5 -5.22081 0
      vertex -0.5 -10.0812 0
    endloop
  endfacet
  facet normal 0.156436 0.987688 0
    outer loop
      vertex -1.63779 -5.0406 0
      vertex -1.63779 -5.0406 10.6
      vertex -0.5 -5.22081 0
    endloop
  endfacet
  facet normal 0 0 1
    outer loop
      vertex -1.63779 -5.0406 10.6
      vertex -0.5 -10.0812 10.6
      vertex -0.5 -5.22081 10.6
    endloop
  endfacet
  facet normal 0.156436 0.987688 -0
    outer loop
      vertex -1.63779 -5.0406 10.6
      vertex -0.5 -5.22081 10.6
      vertex -0.5 -5.22081 0
    endloop
  endfacet
  facet normal 0 0 -1
    outer loop
      vertex -1.63779 43.1406 0
      vertex -0.494427 39.6217 0
      vertex -1.29443 39.0405 0
    endloop
  endfacet
  facet normal 0 1 0
    outer loop
      vertex -1.63779 43.1406 0
      vertex -1.63779 43.1406 5.3
      vertex 1.63779 43.1406 0
    endloop
  endfacet
  facet normal 0 0 -1
    outer loop
      vertex -1.63779 43.1406 0
      vertex 1.63779 43.1406 0
      vertex -0.494427 39.6217 0
    endloop
  endfacet
  facet normal 0 1 -0
    outer loop
      vertex -1.63779 43.1406 5.3
      vertex 1.63779 43.1406 5.3
      vertex 1.63779 43.1406 0
    endloop
  endfacet
  facet normal -0 0.158298 0.987391
    outer loop
      vertex -1.63779 43.1406 5.3
      vertex 1.65 40.9579 5.64993
      vertex 1.63779 43.1406 5.3
    endloop
  endfacet
  facet normal 0 0 -1
    outer loop
      vertex -1.63779 5.0406 0
      vertex -0.5 10.9633 0
      vertex -0.5 5.22081 0
    endloop
  endfacet
  facet normal 0.156436 -0.987688 0
    outer loop
      vertex -1.63779 5.0406 0
      vertex -0.5 5.22081 0
      vertex -0.5 5.22081 10.6
    endloop
  endfacet
  facet normal 0.156436 -0.987688 0
    outer loop
      vertex -1.63779 5.0406 0
      vertex -0.5 5.22081 10.6
      vertex -1.63779 5.0406 10.6
    endloop
  endfacet
  facet normal 0 0 1
    outer loop
      vertex -1.63779 5.0406 10.6
      vertex -0.5 5.22081 10.6
      vertex -0.5 10.0812 10.6
    endloop
  endfacet
  facet normal 0 0 1
    outer loop
      vertex -1.65 22.5421 5.3
      vertex -0.494427 23.8783 5.3
      vertex -1.29443 24.4595 5.3
    endloop
  endfacet
  facet normal 0 1 0
    outer loop
      vertex -1.65 22.5421 5.3
      vertex -1.65 22.5421 8.6023
      vertex 1.65 22.5421 5.3
    endloop
  endfacet
  facet normal 0 0 1
    outer loop
      vertex -1.65 22.5421 5.3
      vertex 1.65 22.5421 5.3
      vertex -0.494427 23.8783 5.3
    endloop
  endfacet
  facet normal -0 0.158297 0.987391
    outer loop
      vertex -1.65 22.5421 8.6023
      vertex -0.5 10.9633 10.4586
      vertex 1.65 22.5421 8.6023
    endloop
  endfacet
  facet normal 0 1 -0
    outer loop
      vertex -1.65 22.5421 8.6023
      vertex 1.65 22.5421 8.6023
      vertex 1.65 22.5421 5.3
    endloop
  endfacet
  facet normal -0 0 1
    outer loop
      vertex -1.65 28.2579 5.3
      vertex -0.494427 26.9217 5.3
      vertex 1.65 28.2579 5.3
    endloop
  endfacet
  facet normal 0 0 1
    outer loop
      vertex -1.65 28.2579 5.3
      vertex -1.29443 26.3405 5.3
      vertex -0.494427 26.9217 5.3
    endloop
  endfacet
  facet normal 0 -1 -0
    outer loop
      vertex -1.65 28.2579 5.3
      vertex 1.65 28.2579 5.3
      vertex 1.65 28.2579 7.68596
    endloop
  endfacet
  facet normal 0 -1 0
    outer loop
      vertex -1.65 28.2579 5.3
      vertex 1.65 28.2579 7.68596
      vertex -1.65 28.2579 7.68596
    endloop
  endfacet
  facet normal 0 0.158298 0.987391
    outer loop
      vertex -1.65 28.2579 7.68596
      vertex 1.65 28.2579 7.68596
      vertex -1.65 35.2421 6.56626
    endloop
  endfacet
  facet normal 0 0 1
    outer loop
      vertex -1.65 35.2421 5.3
      vertex -0.494427 36.5783 5.3
      vertex -1.29443 37.1595 5.3
    endloop
  endfacet
  facet normal 0 1 0
    outer loop
      vertex -1.65 35.2421 5.3
      vertex -1.65 35.2421 6.56626
      vertex 1.65 35.2421 5.3
    endloop
  endfacet
  facet normal 0 0 1
    outer loop
      vertex -1.65 35.2421 5.3
      vertex 1.65 35.2421 5.3
      vertex -0.494427 36.5783 5.3
    endloop
  endfacet
  facet normal -0 0.158298 0.987391
    outer loop
      vertex -1.65 35.2421 6.56626
      vertex 1.65 28.2579 7.68596
      vertex 1.65 35.2421 6.56626
    endloop
  endfacet
  facet normal 0 1 -0
    outer loop
      vertex -1.65 35.2421 6.56626
      vertex 1.65 35.2421 6.56626
      vertex 1.65 35.2421 5.3
    endloop
  endfacet
  facet normal -0 0 1
    outer loop
      vertex -1.65 40.9579 5.3
      vertex -0.494427 39.6217 5.3
      vertex 1.65 40.9579 5.3
    endloop
  endfacet
  facet normal 0 0 1
    outer loop
      vertex -1.65 40.9579 5.3
      vertex -1.29443 39.0405 5.3
      vertex -0.494427 39.6217 5.3
    endloop
  endfacet
  facet normal 0 -1 -0
    outer loop
      vertex -1.65 40.9579 5.3
      vertex 1.65 40.9579 5.3
      vertex 1.65 40.9579 5.64993
    endloop
  endfacet
  facet normal 0 -1 0
    outer loop
      vertex -1.65 40.9579 5.3
      vertex 1.65 40.9579 5.64993
      vertex -1.65 40.9579 5.64993
    endloop
  endfacet
  facet normal 0 0.158298 0.987391
    outer loop
      vertex -1.65 40.9579 5.64993
      vertex 1.65 40.9579 5.64993
      vertex -1.63779 43.1406 5.3
    endloop
  endfacet
  facet normal 0.866092 -0.499885 0
    outer loop
      vertex -1.75493 40.7761 5.67906
      vertex -1.65 40.9579 5.3
      vertex -1.65 40.9579 5.64993
    endloop
  endfacet
  facet normal -0.000153339 0.158299 0.987391
    outer loop
      vertex -1.75493 40.7761 5.67906
      vertex -1.65 40.9579 5.64993
      vertex -1.63779 43.1406 5.3
    endloop
  endfacet
  facet normal 1.38658e-05 0.158298 0.987391
    outer loop
      vertex -1.99913 35.8468 6.46932
      vertex -1.65 28.2579 7.68596
      vertex -1.65 35.2421 6.56626
    endloop
  endfacet
  facet normal 0.866022 0.500007 -0
    outer loop
      vertex -1.99913 35.8468 6.46932
      vertex -1.65 35.2421 6.56626
      vertex -1.65 35.2421 5.3
    endloop
  endfacet
  facet normal -0.990463 0.13778 0
    outer loop
      vertex -10.2024 2.85788 3.65
      vertex -10.2024 2.85788 6.95
      vertex -5.3 38.1 5.3
    endloop
  endfacet
  facet normal -0.990463 0.13778 0
    outer loop
      vertex -10.2024 2.85788 3.65
      vertex -5.3 38.1 5.3
      vertex -5.3 38.1 0
    endloop
  endfacet
  facet normal 0 -0.500001 0.866025
    outer loop
      vertex -10.2024 2.85788 3.65
      vertex -7.9 0 2
      vertex -7.9 2.85788 3.65
    endloop
  endfacet
  facet normal 0 -1 -0
    outer loop
      vertex -10.2024 2.85788 3.65
      vertex -7.9 2.85788 3.65
      vertex -7.9 2.85788 6.95
    endloop
  endfacet
  facet normal 0 -1 0
    outer loop
      vertex -10.2024 2.85788 3.65
      vertex -7.9 2.85788 6.95
      vertex -10.2024 2.85788 6.95
    endloop
  endfacet
  facet normal 0 -0.500001 -0.866025
    outer loop
      vertex -10.2024 2.85788 6.95
      vertex -7.9 2.85788 6.95
      vertex -7.9 0 8.6
    endloop
  endfacet
  facet normal -0.990463 0.137781 1.27917e-05
    outer loop
      vertex -10.6 0 0
      vertex -10.2024 2.85788 3.65
      vertex -5.3 38.1 0
    endloop
  endfacet
  facet normal -0.990461 0.137797 0
    outer loop
      vertex -10.6 0 0
      vertex -10.6 0 2
      vertex -10.2024 2.85788 3.65
    endloop
  endfacet
  facet normal 0 0 -1
    outer loop
      vertex -10.6 0 0
      vertex -5.0406 -1.63779 0
      vertex -8.57558 -6.23052 0
    endloop
  endfacet
  facet normal 0 0 -1
    outer loop
      vertex -10.6 0 0
      vertex -5.0406 1.63779 0
      vertex -5.3 0 0
    endloop
  endfacet
  facet normal 0 0 -1
    outer loop
      vertex -10.6 0 0
      vertex -5.3 0 0
      vertex -5.0406 -1.63779 0
    endloop
  endfacet
  facet normal -0 0 -1
    outer loop
      vertex -10.6 0 0
      vertex -5.3 38.1 0
      vertex -5.0406 1.63779 0
    endloop
  endfacet
  facet normal -0.951056 -0.309017 -5.50692e-07
    outer loop
      vertex -10.6 0 0
      vertex -8.57558 -6.23052 0
      vertex -9.67142 -2.85788 3.65
    endloop
  endfacet
  facet normal -0.951057 -0.309017 0
    outer loop
      vertex -10.6 0 0
      vertex -9.67142 -2.85788 3.65
      vertex -10.6 0 2
    endloop
  endfacet
  facet normal -0.588265 0.191137 0.785755
    outer loop
      vertex -10.6 0 10.6
      vertex -4.28779 41.2153 5.3
      vertex -5.3 38.1 5.3
    endloop
  endfacet
  facet normal 0 0 1
    outer loop
      vertex -10.6 0 10.6
      vertex -5.0406 -1.63779 10.6
      vertex -5.3 0 10.6
    endloop
  endfacet
  facet normal 0 0 1
    outer loop
      vertex -10.6 0 10.6
      vertex -5.0406 1.63779 10.6
      vertex -8.57558 6.23052 10.6
    endloop
  endfacet
  facet normal 0 0 1
    outer loop
      vertex -10.6 0 10.6
      vertex -5.3 0 10.6
      vertex -5.0406 1.63779 10.6
    endloop
  endfacet
  facet normal -0.990463 0.137779 -1.43552e-05
    outer loop
      vertex -10.6 0 10.6
      vertex -5.3 38.1 5.3
      vertex -10.2024 2.85788 6.95
    endloop
  endfacet
  facet normal 0 0 1
    outer loop
      vertex -10.6 0 10.6
      vertex -8.57558 -6.23052 10.6
      vertex -5.0406 -1.63779 10.6
    endloop
  endfacet
  facet normal -0.588256 0.191136 0.785762
    outer loop
      vertex -10.6 0 10.6
      vertex -8.57558 6.23052 10.6
      vertex -4.28779 41.2153 5.3
    endloop
  endfacet
  facet normal -0.951056 -0.309017 5.50692e-07
    outer loop
      vertex -10.6 0 10.6
      vertex -9.67142 -2.85788 6.95
      vertex -8.57558 -6.23052 10.6
    endloop
  endfacet
  facet normal 0 -0.500001 0.866025
    outer loop
      vertex -10.6 0 2
      vertex -7.9 0 2
      vertex -10.2024 2.85788 3.65
    endloop
  endfacet
  facet normal 0 0.500001 0.866025
    outer loop
      vertex -10.6 0 2
      vertex -9.67142 -2.85788 3.65
      vertex -7.9 0 2
    endloop
  endfacet
  facet normal 0 -0.500001 -0.866025
    outer loop
      vertex -10.6 0 8.6
      vertex -10.2024 2.85788 6.95
      vertex -7.9 0 8.6
    endloop
  endfacet
  facet normal -0.990461 0.137797 0
    outer loop
      vertex -10.6 0 8.6
      vertex -10.6 0 10.6
      vertex -10.2024 2.85788 6.95
    endloop
  endfacet
  facet normal 0 0.500001 -0.866025
    outer loop
      vertex -10.6 0 8.6
      vertex -7.9 0 8.6
      vertex -9.67142 -2.85788 6.95
    endloop
  endfacet
  facet normal -0.951057 -0.309017 0
    outer loop
      vertex -10.6 0 8.6
      vertex -9.67142 -2.85788 6.95
      vertex -10.6 0 10.6
    endloop
  endfacet
  facet normal 0.866009 -0.500028 -9.13673e-05
    outer loop
      vertex -2.24022 39.9356 5.76021
      vertex -1.65 40.9579 5.3
      vertex -1.75493 40.7761 5.67906
    endloop
  endfacet
  facet normal -0.118326 0.162892 0.979523
    outer loop
      vertex -2.24022 39.9356 5.76021
      vertex -1.75493 40.7761 5.67906
      vertex -1.63779 43.1406 5.3
    endloop
  endfacet
  facet normal 0.866029 -0.499993 0
    outer loop
      vertex -2.44315 26.8841 7.9062
      vertex -1.65 28.2579 5.3
      vertex -1.65 28.2579 7.68596
    endloop
  endfacet
  facet normal -6.18315e-06 0.158297 0.987392
    outer loop
      vertex -2.44315 26.8841 7.9062
      vertex -1.65 28.2579 7.68596
      vertex -1.99913 35.8468 6.46932
    endloop
  endfacet
  facet normal 0.866032 0.499988 -0
    outer loop
      vertex -2.57858 24.1505 8.34445
      vertex -1.65 22.5421 8.6023
      vertex -1.65 22.5421 5.3
    endloop
  endfacet
  facet normal 0.866035 0.499984 1.57132e-05
    outer loop
      vertex -2.76079 37.1661 6.1579
      vertex -1.99913 35.8468 6.46932
      vertex -1.65 35.2421 5.3
    endloop
  endfacet
  facet normal -0.118337 0.162897 0.979521
    outer loop
      vertex -2.76079 37.1661 6.1579
      vertex -2.44315 26.8841 7.9062
      vertex -1.99913 35.8468 6.46932
    endloop
  endfacet
  facet normal 0.453991 0.891006 0
    outer loop
      vertex -3.11526 -4.28779 0
      vertex -3.11526 -4.28779 10.6
      vertex -1.63779 -5.0406 0
    endloop
  endfacet
  facet normal 0.453991 0.891006 -0
    outer loop
      vertex -3.11526 -4.28779 10.6
      vertex -1.63779 -5.0406 10.6
      vertex -1.63779 -5.0406 0
    endloop
  endfacet
  facet normal 0 0 -1
    outer loop
      vertex -3.11526 4.28779 0
      vertex -0.5 10.9633 0
      vertex -1.63779 5.0406 0
    endloop
  endfacet
  facet normal 0.453991 -0.891006 0
    outer loop
      vertex -3.11526 4.28779 0
      vertex -1.63779 5.0406 0
      vertex -1.63779 5.0406 10.6
    endloop
  endfacet
  facet normal 0.453991 -0.891006 0
    outer loop
      vertex -3.11526 4.28779 0
      vertex -1.63779 5.0406 10.6
      vertex -3.11526 4.28779 10.6
    endloop
  endfacet
  facet normal 0 -1 -0
    outer loop
      vertex -3.27558 -10.0812 0
      vertex -0.5 -10.0812 0
      vertex -0.5 -10.0812 10.6
    endloop
  endfacet
  facet normal 0 -1 0
    outer loop
      vertex -3.27558 -10.0812 0
      vertex -0.5 -10.0812 10.6
      vertex -3.27558 -10.0812 10.6
    endloop
  endfacet
  facet normal 0 0 -1
    outer loop
      vertex -3.27558 -10.0812 0
      vertex -1.63779 -5.0406 0
      vertex -0.5 -10.0812 0
    endloop
  endfacet
  facet normal -0 0 -1
    outer loop
      vertex -3.27558 -10.0812 0
      vertex -3.11526 -4.28779 0
      vertex -1.63779 -5.0406 0
    endloop
  endfacet
  facet normal 0 0 1
    outer loop
      vertex -3.27558 -10.0812 10.6
      vertex -0.5 -10.0812 10.6
      vertex -1.63779 -5.0406 10.6
    endloop
  endfacet
  facet normal 0 0 1
    outer loop
      vertex -3.27558 -10.0812 10.6
      vertex -1.63779 -5.0406 10.6
      vertex -3.11526 -4.28779 10.6
    endloop
  endfacet
  facet normal 0 0.158279 0.987394
    outer loop
      vertex -3.27558 10.0812 10.6
      vertex -0.5 10.0812 10.6
      vertex -0.5 10.9633 10.4586
    endloop
  endfacet
  facet normal -5.95402e-06 0.158297 0.987392
    outer loop
      vertex -3.27558 10.0812 10.6
      vertex -0.5 10.9633 10.4586
      vertex -1.65 22.5421 8.6023
    endloop
  endfacet
  facet normal -0 0 1
    outer loop
      vertex -3.27558 10.0812 10.6
      vertex -1.63779 5.0406 10.6
      vertex -0.5 10.0812 10.6
    endloop
  endfacet
  facet normal 4.01033e-06 0.158296 0.987392
    outer loop
      vertex -3.27558 10.0812 10.6
      vertex -1.65 22.5421 8.6023
      vertex -2.57858 24.1505 8.34445
    endloop
  endfacet
  facet normal 0 0 1
    outer loop
      vertex -3.27558 10.0812 10.6
      vertex -3.11526 4.28779 10.6
      vertex -1.63779 5.0406 10.6
    endloop
  endfacet
  facet normal -0 0 1
    outer loop
      vertex -3.3 25.4 5.3
      vertex -1.29443 24.4595 5.3
      vertex -1.6 25.4 5.3
    endloop
  endfacet
  facet normal 0 0 1
    outer loop
      vertex -3.3 25.4 5.3
      vertex -1.29443 26.3405 5.3
      vertex -1.65 28.2579 5.3
    endloop
  endfacet
  facet normal 0 0 1
    outer loop
      vertex -3.3 25.4 5.3
      vertex -1.6 25.4 5.3
      vertex -1.29443 26.3405 5.3
    endloop
  endfacet
  facet normal 0 0 1
    outer loop
      vertex -3.3 25.4 5.3
      vertex -1.65 22.5421 5.3
      vertex -1.29443 24.4595 5.3
    endloop
  endfacet
  facet normal 0.866027 -0.499998 -3.09459e-06
    outer loop
      vertex -3.3 25.4 5.3
      vertex -1.65 28.2579 5.3
      vertex -2.44315 26.8841 7.9062
    endloop
  endfacet
  facet normal 0.866024 -0.500002 0
    outer loop
      vertex -3.3 25.4 5.3
      vertex -2.44315 26.8841 7.9062
      vertex -3.3 25.4 8.04948
    endloop
  endfacet
  facet normal 0.866027 0.499998 -7.08868e-06
    outer loop
      vertex -3.3 25.4 5.3
      vertex -2.57858 24.1505 8.34445
      vertex -1.65 22.5421 5.3
    endloop
  endfacet
  facet normal 0.866019 0.500011 0
    outer loop
      vertex -3.3 25.4 5.3
      vertex -3.3 25.4 8.04948
      vertex -2.57858 24.1505 8.34445
    endloop
  endfacet
  facet normal -0.118351 0.162896 0.979519
    outer loop
      vertex -3.3 25.4 8.04948
      vertex -2.44315 26.8841 7.9062
      vertex -2.76079 37.1661 6.1579
    endloop
  endfacet
  facet normal -0 0 1
    outer loop
      vertex -3.3 38.1 5.3
      vertex -1.29443 37.1595 5.3
      vertex -1.6 38.1 5.3
    endloop
  endfacet
  facet normal 0 0 1
    outer loop
      vertex -3.3 38.1 5.3
      vertex -1.29443 39.0405 5.3
      vertex -1.65 40.9579 5.3
    endloop
  endfacet
  facet normal 0 0 1
    outer loop
      vertex -3.3 38.1 5.3
      vertex -1.6 38.1 5.3
      vertex -1.29443 39.0405 5.3
    endloop
  endfacet
  facet normal 0 0 1
    outer loop
      vertex -3.3 38.1 5.3
      vertex -1.65 35.2421 5.3
      vertex -1.29443 37.1595 5.3
    endloop
  endfacet
  facet normal 0.866027 -0.499998 -3.46481e-06
    outer loop
      vertex -3.3 38.1 5.3
      vertex -1.65 40.9579 5.3
      vertex -2.24022 39.9356 5.76021
    endloop
  endfacet
  facet normal 0.866026 -0.499999 0
    outer loop
      vertex -3.3 38.1 5.3
      vertex -2.24022 39.9356 5.76021
      vertex -3.3 38.1 5.93743
    endloop
  endfacet
  facet normal 0.866027 0.499998 -2.58767e-05
    outer loop
      vertex -3.3 38.1 5.3
      vertex -2.76079 37.1661 6.1579
      vertex -1.65 35.2421 5.3
    endloop
  endfacet
  facet normal 0.866016 0.500016 0
    outer loop
      vertex -3.3 38.1 5.3
      vertex -3.3 38.1 5.93743
      vertex -2.76079 37.1661 6.1579
    endloop
  endfacet
  facet normal 0.707107 0.707107 0
    outer loop
      vertex -4.28779 -3.11526 0
      vertex -3.11526 -4.28779 10.6
      vertex -3.11526 -4.28779 0
    endloop
  endfacet
  facet normal 0.707107 0.707107 0
    outer loop
      vertex -4.28779 -3.11526 0
      vertex -4.28779 -3.11526 10.6
      vertex -3.11526 -4.28779 10.6
    endloop
  endfacet
  facet normal 0 0 -1
    outer loop
      vertex -4.28779 3.11526 0
      vertex -0.5 10.9633 0
      vertex -3.11526 4.28779 0
    endloop
  endfacet
  facet normal -0 0 -1
    outer loop
      vertex -4.28779 3.11526 0
      vertex -1.29443 24.4595 0
      vertex -0.5 10.9633 0
    endloop
  endfacet
  facet normal -0 0 -1
    outer loop
      vertex -4.28779 3.11526 0
      vertex -1.6 25.4 0
      vertex -1.29443 24.4595 0
    endloop
  endfacet
  facet normal 0.707107 -0.707107 0
    outer loop
      vertex -4.28779 3.11526 0
      vertex -3.11526 4.28779 0
      vertex -4.28779 3.11526 10.6
    endloop
  endfacet
  facet normal 0.707107 -0.707107 0
    outer loop
      vertex -4.28779 3.11526 10.6
      vertex -3.11526 4.28779 0
      vertex -3.11526 4.28779 10.6
    endloop
  endfacet
  facet normal 0 0 -1
    outer loop
      vertex -4.28779 41.2153 0
      vertex -1.29443 39.0405 0
      vertex -1.6 38.1 0
    endloop
  endfacet
  facet normal 0 0 -1
    outer loop
      vertex -4.28779 41.2153 0
      vertex -1.63779 43.1406 0
      vertex -1.29443 39.0405 0
    endloop
  endfacet
  facet normal -0.587778 0.809022 0
    outer loop
      vertex -4.28779 41.2153 0
      vertex -4.28779 41.2153 5.3
      vertex -1.63779 43.1406 0
    endloop
  endfacet
  facet normal -0.587778 0.809022 0
    outer loop
      vertex -4.28779 41.2153 5.3
      vertex -1.63779 43.1406 5.3
      vertex -1.63779 43.1406 0
    endloop
  endfacet
  facet normal -0.118348 0.162896 0.97952
    outer loop
      vertex -4.28779 41.2153 5.3
      vertex -2.24022 39.9356 5.76021
      vertex -1.63779 43.1406 5.3
    endloop
  endfacet
  facet normal -0.118348 0.162897 0.979519
    outer loop
      vertex -4.28779 41.2153 5.3
      vertex -3.3 38.1 5.93743
      vertex -2.24022 39.9356 5.76021
    endloop
  endfacet
  facet normal 0.891006 0.453991 0
    outer loop
      vertex -5.0406 -1.63779 0
      vertex -4.28779 -3.11526 10.6
      vertex -4.28779 -3.11526 0
    endloop
  endfacet
  facet normal 0.891006 0.453991 0
    outer loop
      vertex -5.0406 -1.63779 0
      vertex -5.0406 -1.63779 10.6
      vertex -4.28779 -3.11526 10.6
    endloop
  endfacet
  facet normal 0 0 -1
    outer loop
      vertex -5.0406 1.63779 0
      vertex -1.6 25.4 0
      vertex -4.28779 3.11526 0
    endloop
  endfacet
  facet normal 0.891006 -0.453991 0
    outer loop
      vertex -5.0406 1.63779 0
      vertex -4.28779 3.11526 0
      vertex -5.0406 1.63779 10.6
    endloop
  endfacet
  facet normal 0.891006 -0.453991 0
    outer loop
      vertex -5.0406 1.63779 10.6
      vertex -4.28779 3.11526 0
      vertex -4.28779 3.11526 10.6
    endloop
  endfacet
  facet normal 0.987686 0.156447 -0
    outer loop
      vertex -5.05899 -1.52169 4.80557
      vertex -5.0406 -1.63779 10.6
      vertex -5.0406 -1.63779 0
    endloop
  endfacet
  facet normal 0.987686 0.156447 0
    outer loop
      vertex -5.05899 -1.52169 4.80557
      vertex -5.05899 -1.52169 5.79443
      vertex -5.0406 -1.63779 10.6
    endloop
  endfacet
  facet normal 0.987686 -0.156447 0
    outer loop
      vertex -5.05899 1.52169 4.80557
      vertex -5.0406 1.63779 0
      vertex -5.05899 1.52169 5.79443
    endloop
  endfacet
  facet normal 0.987686 -0.156447 0
    outer loop
      vertex -5.05899 1.52169 5.79443
      vertex -5.0406 1.63779 0
      vertex -5.0406 1.63779 10.6
    endloop
  endfacet
  facet normal 0.987688 0.156437 2.4889e-07
    outer loop
      vertex -5.15105 -0.940456 4.00557
      vertex -5.05899 -1.52169 4.80557
      vertex -5.0406 -1.63779 0
    endloop
  endfacet
  facet normal 0.987688 0.156437 -2.4889e-07
    outer loop
      vertex -5.15105 -0.940456 6.59443
      vertex -5.0406 -1.63779 10.6
      vertex -5.05899 -1.52169 5.79443
    endloop
  endfacet
  facet normal 0.987688 -0.156437 2.4889e-07
    outer loop
      vertex -5.15105 0.940456 4.00557
      vertex -5.0406 1.63779 0
      vertex -5.05899 1.52169 4.80557
    endloop
  endfacet
  facet normal 0.987688 -0.156437 -2.4889e-07
    outer loop
      vertex -5.15105 0.940456 6.59443
      vertex -5.05899 1.52169 5.79443
      vertex -5.0406 1.63779 10.6
    endloop
  endfacet
  facet normal 0.987688 -0.156434 0
    outer loop
      vertex -5.3 0 0
      vertex -5.0406 1.63779 0
      vertex -5.3 0 3.7
    endloop
  endfacet
  facet normal 0.987688 0.156434 0
    outer loop
      vertex -5.3 0 0
      vertex -5.3 0 3.7
      vertex -5.0406 -1.63779 0
    endloop
  endfacet
  facet normal 0.987689 -0.156431 1.35638e-06
    outer loop
      vertex -5.3 0 3.7
      vertex -5.0406 1.63779 0
      vertex -5.15105 0.940456 4.00557
    endloop
  endfacet
  facet normal 0.987689 0.156431 1.35638e-06
    outer loop
      vertex -5.3 0 3.7
      vertex -5.15105 -0.940456 4.00557
      vertex -5.0406 -1.63779 0
    endloop
  endfacet
  facet normal 0.987689 0.156431 -1.35638e-06
    outer loop
      vertex -5.3 0 6.9
      vertex -5.0406 -1.63779 10.6
      vertex -5.15105 -0.940456 6.59443
    endloop
  endfacet
  facet normal 0.987688 -0.156434 0
    outer loop
      vertex -5.3 0 6.9
      vertex -5.0406 1.63779 10.6
      vertex -5.3 0 10.6
    endloop
  endfacet
  facet normal 0.987689 -0.156431 -1.35638e-06
    outer loop
      vertex -5.3 0 6.9
      vertex -5.15105 0.940456 6.59443
      vertex -5.0406 1.63779 10.6
    endloop
  endfacet
  facet normal 0.987688 0.156434 0
    outer loop
      vertex -5.3 0 6.9
      vertex -5.3 0 10.6
      vertex -5.0406 -1.63779 10.6
    endloop
  endfacet
  facet normal -0 0 -1
    outer loop
      vertex -5.3 38.1 0
      vertex -1.6 25.4 0
      vertex -5.0406 1.63779 0
    endloop
  endfacet
  facet normal 0 0 -1
    outer loop
      vertex -5.3 38.1 0
      vertex -1.6 38.1 0
      vertex -1.6 25.4 0
    endloop
  endfacet
  facet normal 0 -0 -1
    outer loop
      vertex -5.3 38.1 0
      vertex -4.28779 41.2153 0
      vertex -1.6 38.1 0
    endloop
  endfacet
  facet normal -0.951058 0.309014 0
    outer loop
      vertex -5.3 38.1 0
      vertex -4.28779 41.2153 5.3
      vertex -4.28779 41.2153 0
    endloop
  endfacet
  facet normal -0.951058 0.309014 0
    outer loop
      vertex -5.3 38.1 0
      vertex -5.3 38.1 5.3
      vertex -4.28779 41.2153 5.3
    endloop
  endfacet
  facet normal 0 0.309015 0.951057
    outer loop
      vertex -7.9 -0.940456 4.00557
      vertex -5.15105 -0.940456 4.00557
      vertex -5.3 0 3.7
    endloop
  endfacet
  facet normal 0 0.309015 0.951057
    outer loop
      vertex -7.9 -0.940456 4.00557
      vertex -5.3 0 3.7
      vertex -7.9 0 3.7
    endloop
  endfacet
  facet normal -1 0 0
    outer loop
      vertex -7.9 -0.940456 4.00557
      vertex -7.9 0 3.7
      vertex -7.9 0 2
    endloop
  endfacet
  facet normal 0 0.309015 -0.951057
    outer loop
      vertex -7.9 -0.940456 6.59443
      vertex -5.3 0 6.9
      vertex -5.15105 -0.940456 6.59443
    endloop
  endfacet
  facet normal 0 0.309015 -0.951057
    outer loop
      vertex -7.9 -0.940456 6.59443
      vertex -7.9 0 6.9
      vertex -5.3 0 6.9
    endloop
  endfacet
  facet normal -1 0 0
    outer loop
      vertex -7.9 -0.940456 6.59443
      vertex -7.9 0 8.6
      vertex -7.9 0 6.9
    endloop
  endfacet
  facet normal 0 0.809017 0.587785
    outer loop
      vertex -7.9 -1.52169 4.80557
      vertex -5.05899 -1.52169 4.80557
      vertex -5.15105 -0.940456 4.00557
    endloop
  endfacet
  facet normal 0 0.809017 0.587785
    outer loop
      vertex -7.9 -1.52169 4.80557
      vertex -5.15105 -0.940456 4.00557
      vertex -7.9 -0.940456 4.00557
    endloop
  endfacet
  facet normal 0 1 0
    outer loop
      vertex -7.9 -1.52169 4.80557
      vertex -7.9 -1.52169 5.79443
      vertex -5.05899 -1.52169 4.80557
    endloop
  endfacet
  facet normal 0 1 -0
    outer loop
      vertex -7.9 -1.52169 5.79443
      vertex -5.05899 -1.52169 5.79443
      vertex -5.05899 -1.52169 4.80557
    endloop
  endfacet
  facet normal 0 0.809017 -0.587785
    outer loop
      vertex -7.9 -1.52169 5.79443
      vertex -5.15105 -0.940456 6.59443
      vertex -5.05899 -1.52169 5.79443
    endloop
  endfacet
  facet normal 0 0.809017 -0.587785
    outer loop
      vertex -7.9 -1.52169 5.79443
      vertex -7.9 -0.940456 6.59443
      vertex -5.15105 -0.940456 6.59443
    endloop
  endfacet
  facet normal -1 0 0
    outer loop
      vertex -7.9 -2.85788 3.65
      vertex -7.9 -0.940456 4.00557
      vertex -7.9 0 2
    endloop
  endfacet
  facet normal -1 -0 0
    outer loop
      vertex -7.9 -2.85788 3.65
      vertex -7.9 -1.52169 4.80557
      vertex -7.9 -0.940456 4.00557
    endloop
  endfacet
  facet normal -1 -0 0
    outer loop
      vertex -7.9 -2.85788 3.65
      vertex -7.9 -1.52169 5.79443
      vertex -7.9 -1.52169 4.80557
    endloop
  endfacet
  facet normal -1 0 0
    outer loop
      vertex -7.9 -2.85788 3.65
      vertex -7.9 -2.85788 6.95
      vertex -7.9 -1.52169 5.79443
    endloop
  endfacet
  facet normal -1 0 0
    outer loop
      vertex -7.9 -2.85788 6.95
      vertex -7.9 -0.940456 6.59443
      vertex -7.9 -1.52169 5.79443
    endloop
  endfacet
  facet normal -1 0 0
    outer loop
      vertex -7.9 -2.85788 6.95
      vertex -7.9 0 8.6
      vertex -7.9 -0.940456 6.59443
    endloop
  endfacet
  facet normal -1 0 0
    outer loop
      vertex -7.9 0 2
      vertex -7.9 0 3.7
      vertex -7.9 0.940456 4.00557
    endloop
  endfacet
  facet normal -1 0 0
    outer loop
      vertex -7.9 0 2
      vertex -7.9 0.940456 4.00557
      vertex -7.9 2.85788 3.65
    endloop
  endfacet
  facet normal 0 -0.309015 0.951057
    outer loop
      vertex -7.9 0 3.7
      vertex -5.3 0 3.7
      vertex -7.9 0.940456 4.00557
    endloop
  endfacet
  facet normal -1 0 0
    outer loop
      vertex -7.9 0 6.9
      vertex -7.9 0 8.6
      vertex -7.9 0.940456 6.59443
    endloop
  endfacet
  facet normal 0 -0.309015 -0.951057
    outer loop
      vertex -7.9 0 6.9
      vertex -7.9 0.940456 6.59443
      vertex -5.3 0 6.9
    endloop
  endfacet
  facet normal -1 0 0
    outer loop
      vertex -7.9 0 8.6
      vertex -7.9 2.85788 6.95
      vertex -7.9 0.940456 6.59443
    endloop
  endfacet
  facet normal 0 -0.809017 0.587785
    outer loop
      vertex -7.9 0.940456 4.00557
      vertex -5.15105 0.940456 4.00557
      vertex -7.9 1.52169 4.80557
    endloop
  endfacet
  facet normal 0 -0.309015 0.951057
    outer loop
      vertex -7.9 0.940456 4.00557
      vertex -5.3 0 3.7
      vertex -5.15105 0.940456 4.00557
    endloop
  endfacet
  facet normal -1 0 0
    outer loop
      vertex -7.9 0.940456 4.00557
      vertex -7.9 1.52169 4.80557
      vertex -7.9 2.85788 3.65
    endloop
  endfacet
  facet normal 0 -0.309015 -0.951057
    outer loop
      vertex -7.9 0.940456 6.59443
      vertex -5.15105 0.940456 6.59443
      vertex -5.3 0 6.9
    endloop
  endfacet
  facet normal 0 -0.809017 -0.587785
    outer loop
      vertex -7.9 0.940456 6.59443
      vertex -7.9 1.52169 5.79443
      vertex -5.15105 0.940456 6.59443
    endloop
  endfacet
  facet normal -1 0 0
    outer loop
      vertex -7.9 0.940456 6.59443
      vertex -7.9 2.85788 6.95
      vertex -7.9 1.52169 5.79443
    endloop
  endfacet
  facet normal 0 -1 -0
    outer loop
      vertex -7.9 1.52169 4.80557
      vertex -5.05899 1.52169 4.80557
      vertex -5.05899 1.52169 5.79443
    endloop
  endfacet
  facet normal 0 -1 0
    outer loop
      vertex -7.9 1.52169 4.80557
      vertex -5.05899 1.52169 5.79443
      vertex -7.9 1.52169 5.79443
    endloop
  endfacet
  facet normal 0 -0.809017 0.587785
    outer loop
      vertex -7.9 1.52169 4.80557
      vertex -5.15105 0.940456 4.00557
      vertex -5.05899 1.52169 4.80557
    endloop
  endfacet
  facet normal -1 0 0
    outer loop
      vertex -7.9 1.52169 4.80557
      vertex -7.9 1.52169 5.79443
      vertex -7.9 2.85788 6.95
    endloop
  endfacet
  facet normal -1 0 0
    outer loop
      vertex -7.9 1.52169 4.80557
      vertex -7.9 2.85788 6.95
      vertex -7.9 2.85788 3.65
    endloop
  endfacet
  facet normal 0 -0.809017 -0.587785
    outer loop
      vertex -7.9 1.52169 5.79443
      vertex -5.05899 1.52169 5.79443
      vertex -5.15105 0.940456 6.59443
    endloop
  endfacet
  facet normal 0 0 -1
    outer loop
      vertex -8.57558 -6.23052 0
      vertex -3.11526 -4.28779 0
      vertex -3.27558 -10.0812 0
    endloop
  endfacet
  facet normal -0.587786 -0.809017 -0
    outer loop
      vertex -8.57558 -6.23052 0
      vertex -3.27558 -10.0812 0
      vertex -3.27558 -10.0812 10.6
    endloop
  endfacet
  facet normal -0.587786 -0.809017 0
    outer loop
      vertex -8.57558 -6.23052 0
      vertex -3.27558 -10.0812 10.6
      vertex -8.57558 -6.23052 10.6
    endloop
  endfacet
  facet normal -0 0 -1
    outer loop
      vertex -8.57558 -6.23052 0
      vertex -4.28779 -3.11526 0
      vertex -3.11526 -4.28779 0
    endloop
  endfacet
  facet normal -0 0 -1
    outer loop
      vertex -8.57558 -6.23052 0
      vertex -5.0406 -1.63779 0
      vertex -4.28779 -3.11526 0
    endloop
  endfacet
  facet normal 0 0 1
    outer loop
      vertex -8.57558 -6.23052 10.6
      vertex -3.11526 -4.28779 10.6
      vertex -4.28779 -3.11526 10.6
    endloop
  endfacet
  facet normal 0 0 1
    outer loop
      vertex -8.57558 -6.23052 10.6
      vertex -3.27558 -10.0812 10.6
      vertex -3.11526 -4.28779 10.6
    endloop
  endfacet
  facet normal 0 0 1
    outer loop
      vertex -8.57558 -6.23052 10.6
      vertex -4.28779 -3.11526 10.6
      vertex -5.0406 -1.63779 10.6
    endloop
  endfacet
  facet normal -0.118358 0.162899 0.979518
    outer loop
      vertex -8.57558 6.23052 10.6
      vertex -2.57858 24.1505 8.34445
      vertex -3.3 25.4 8.04948
    endloop
  endfacet
  facet normal -0.118364 0.162899 0.979517
    outer loop
      vertex -8.57558 6.23052 10.6
      vertex -2.76079 37.1661 6.1579
      vertex -3.3 38.1 5.93743
    endloop
  endfacet
  facet normal -0 0 1
    outer loop
      vertex -8.57558 6.23052 10.6
      vertex -3.11526 4.28779 10.6
      vertex -3.27558 10.0812 10.6
    endloop
  endfacet
  facet normal -0.118352 0.162897 0.979519
    outer loop
      vertex -8.57558 6.23052 10.6
      vertex -3.27558 10.0812 10.6
      vertex -2.57858 24.1505 8.34445
    endloop
  endfacet
  facet normal -0.118348 0.162896 0.97952
    outer loop
      vertex -8.57558 6.23052 10.6
      vertex -3.3 25.4 8.04948
      vertex -2.76079 37.1661 6.1579
    endloop
  endfacet
  facet normal -0.118348 0.162897 0.979519
    outer loop
      vertex -8.57558 6.23052 10.6
      vertex -3.3 38.1 5.93743
      vertex -4.28779 41.2153 5.3
    endloop
  endfacet
  facet normal 0 0 1
    outer loop
      vertex -8.57558 6.23052 10.6
      vertex -4.28779 3.11526 10.6
      vertex -3.11526 4.28779 10.6
    endloop
  endfacet
  facet normal 0 0 1
    outer loop
      vertex -8.57558 6.23052 10.6
      vertex -5.0406 1.63779 10.6
      vertex -4.28779 3.11526 10.6
    endloop
  endfacet
  facet normal 0 0.500001 0.866025
    outer loop
      vertex -9.67142 -2.85788 3.65
      vertex -7.9 -2.85788 3.65
      vertex -7.9 0 2
    endloop
  endfacet
  facet normal -0.951056 -0.309018 0
    outer loop
      vertex -9.67142 -2.85788 3.65
      vertex -8.57558 -6.23052 0
      vertex -9.67142 -2.85788 6.95
    endloop
  endfacet
  facet normal 0 1 0
    outer loop
      vertex -9.67142 -2.85788 3.65
      vertex -9.67142 -2.85788 6.95
      vertex -7.9 -2.85788 3.65
    endloop
  endfacet
  facet normal 0 1 -0
    outer loop
      vertex -9.67142 -2.85788 6.95
      vertex -7.9 -2.85788 6.95
      vertex -7.9 -2.85788 3.65
    endloop
  endfacet
  facet normal 0 0.500001 -0.866025
    outer loop
      vertex -9.67142 -2.85788 6.95
      vertex -7.9 0 8.6
      vertex -7.9 -2.85788 6.95
    endloop
  endfacet
  facet normal -0.951056 -0.309018 -0
    outer loop
      vertex -9.67142 -2.85788 6.95
      vertex -8.57558 -6.23052 0
      vertex -8.57558 -6.23052 10.6
    endloop
  endfacet
  facet normal -0.587761 0.809034 0
    outer loop
      vertex 0.494427 23.8783 0
      vertex 0.494427 23.8783 5.3
      vertex 1.29443 24.4595 0
    endloop
  endfacet
  facet normal 0 0 -1
    outer loop
      vertex 0.494427 23.8783 0
      vertex 1.29443 24.4595 0
      vertex 0.5 10.9633 0
    endloop
  endfacet
  facet normal -0.587761 0.809034 0
    outer loop
      vertex 0.494427 23.8783 5.3
      vertex 1.29443 24.4595 5.3
      vertex 1.29443 24.4595 0
    endloop
  endfacet
  facet normal -0 0 1
    outer loop
      vertex 0.494427 23.8783 5.3
      vertex 1.65 22.5421 5.3
      vertex 1.29443 24.4595 5.3
    endloop
  endfacet
  facet normal 0 0 -1
    outer loop
      vertex 0.494427 26.9217 0
      vertex 0.494427 36.5783 0
      vertex 1.29443 37.1595 0
    endloop
  endfacet
  facet normal -0.587761 -0.809034 -0
    outer loop
      vertex 0.494427 26.9217 0
      vertex 1.29443 26.3405 0
      vertex 1.29443 26.3405 5.3
    endloop
  endfacet
  facet normal -0.587761 -0.809034 0
    outer loop
      vertex 0.494427 26.9217 0
      vertex 1.29443 26.3405 5.3
      vertex 0.494427 26.9217 5.3
    endloop
  endfacet
  facet normal 0 0 -1
    outer loop
      vertex 0.494427 26.9217 0
      vertex 1.29443 37.1595 0
      vertex 1.29443 26.3405 0
    endloop
  endfacet
  facet normal 0 0 1
    outer loop
      vertex 0.494427 26.9217 5.3
      vertex 1.29443 26.3405 5.3
      vertex 1.65 28.2579 5.3
    endloop
  endfacet
  facet normal -0.587761 0.809034 0
    outer loop
      vertex 0.494427 36.5783 0
      vertex 0.494427 36.5783 5.3
      vertex 1.29443 37.1595 0
    endloop
  endfacet
  facet normal -0.587761 0.809034 0
    outer loop
      vertex 0.494427 36.5783 5.3
      vertex 1.29443 37.1595 5.3
      vertex 1.29443 37.1595 0
    endloop
  endfacet
  facet normal -0 0 1
    outer loop
      vertex 0.494427 36.5783 5.3
      vertex 1.65 35.2421 5.3
      vertex 1.29443 37.1595 5.3
    endloop
  endfacet
  facet normal -0.587761 -0.809034 -0
    outer loop
      vertex 0.494427 39.6217 0
      vertex 1.29443 39.0405 0
      vertex 1.29443 39.0405 5.3
    endloop
  endfacet
  facet normal -0.587761 -0.809034 0
    outer loop
      vertex 0.494427 39.6217 0
      vertex 1.29443 39.0405 5.3
      vertex 0.494427 39.6217 5.3
    endloop
  endfacet
  facet normal 0 0 -1
    outer loop
      vertex 0.494427 39.6217 0
      vertex 1.63779 43.1406 0
      vertex 1.29443 39.0405 0
    endloop
  endfacet
  facet normal 0 0 1
    outer loop
      vertex 0.494427 39.6217 5.3
      vertex 1.29443 39.0405 5.3
      vertex 1.65 40.9579 5.3
    endloop
  endfacet
  facet normal -1 -0 0
    outer loop
      vertex 0.5 -10.0812 0
      vertex 0.5 -10.0812 10.6
      vertex 0.5 -5.22081 10.6
    endloop
  endfacet
  facet normal 0 0 -1
    outer loop
      vertex 0.5 -10.0812 0
      vertex 0.5 -5.22081 0
      vertex 1.63779 -5.0406 0
    endloop
  endfacet
  facet normal -1 0 0
    outer loop
      vertex 0.5 -10.0812 0
      vertex 0.5 -5.22081 10.6
      vertex 0.5 -5.22081 0
    endloop
  endfacet
  facet normal 0 0 -1
    outer loop
      vertex 0.5 -10.0812 0
      vertex 1.63779 -5.0406 0
      vertex 3.27558 -10.0812 0
    endloop
  endfacet
  facet normal 0 -1 -0
    outer loop
      vertex 0.5 -10.0812 0
      vertex 3.27558 -10.0812 0
      vertex 3.27558 -10.0812 10.6
    endloop
  endfacet
  facet normal 0 -1 0
    outer loop
      vertex 0.5 -10.0812 0
      vertex 3.27558 -10.0812 10.6
      vertex 0.5 -10.0812 10.6
    endloop
  endfacet
  facet normal 0 0 1
    outer loop
      vertex 0.5 -10.0812 10.6
      vertex 1.63779 -5.0406 10.6
      vertex 0.5 -5.22081 10.6
    endloop
  endfacet
  facet normal 0 0 1
    outer loop
      vertex 0.5 -10.0812 10.6
      vertex 3.27558 -10.0812 10.6
      vertex 1.63779 -5.0406 10.6
    endloop
  endfacet
  facet normal -0.156436 0.987688 0
    outer loop
      vertex 0.5 -5.22081 0
      vertex 0.5 -5.22081 10.6
      vertex 1.63779 -5.0406 0
    endloop
  endfacet
  facet normal -0.156436 0.987688 0
    outer loop
      vertex 0.5 -5.22081 10.6
      vertex 1.63779 -5.0406 10.6
      vertex 1.63779 -5.0406 0
    endloop
  endfacet
  facet normal -1 0 0
    outer loop
      vertex 0.5 10.0812 10.6
      vertex 0.5 10.9633 10.4586
      vertex 0.5 10.9633 0
    endloop
  endfacet
  facet normal -0 0 1
    outer loop
      vertex 0.5 10.0812 10.6
      vertex 1.63779 5.0406 10.6
      vertex 3.27558 10.0812 10.6
    endloop
  endfacet
  facet normal 0 0.158279 0.987394
    outer loop
      vertex 0.5 10.0812 10.6
      vertex 3.27558 10.0812 10.6
      vertex 0.5 10.9633 10.4586
    endloop
  endfacet
  facet normal 0 0 -1
    outer loop
      vertex 0.5 10.9633 0
      vertex 1.29443 24.4595 0
      vertex 10.6 0 0
    endloop
  endfacet
  facet normal 0 0 -1
    outer loop
      vertex 0.5 10.9633 0
      vertex 10.6 0 0
      vertex 4.28779 3.11526 0
    endloop
  endfacet
  facet normal 0 0 -1
    outer loop
      vertex 0.5 10.9633 0
      vertex 3.11526 4.28779 0
      vertex 1.63779 5.0406 0
    endloop
  endfacet
  facet normal 0 0 -1
    outer loop
      vertex 0.5 10.9633 0
      vertex 4.28779 3.11526 0
      vertex 3.11526 4.28779 0
    endloop
  endfacet
  facet normal 5.95402e-06 0.158297 0.987392
    outer loop
      vertex 0.5 10.9633 10.4586
      vertex 3.27558 10.0812 10.6
      vertex 1.65 22.5421 8.6023
    endloop
  endfacet
  facet normal -1 0 0
    outer loop
      vertex 0.5 5.22081 0
      vertex 0.5 10.0812 10.6
      vertex 0.5 10.9633 0
    endloop
  endfacet
  facet normal 0 0 -1
    outer loop
      vertex 0.5 5.22081 0
      vertex 0.5 10.9633 0
      vertex 1.63779 5.0406 0
    endloop
  endfacet
  facet normal -1 -0 0
    outer loop
      vertex 0.5 5.22081 0
      vertex 0.5 5.22081 10.6
      vertex 0.5 10.0812 10.6
    endloop
  endfacet
  facet normal -0.156436 -0.987688 -0
    outer loop
      vertex 0.5 5.22081 0
      vertex 1.63779 5.0406 0
      vertex 1.63779 5.0406 10.6
    endloop
  endfacet
  facet normal -0.156436 -0.987688 0
    outer loop
      vertex 0.5 5.22081 0
      vertex 1.63779 5.0406 10.6
      vertex 0.5 5.22081 10.6
    endloop
  endfacet
  facet normal 0 0 1
    outer loop
      vertex 0.5 5.22081 10.6
      vertex 1.63779 5.0406 10.6
      vertex 0.5 10.0812 10.6
    endloop
  endfacet
  facet normal -0.951062 0.309001 0
    outer loop
      vertex 1.29443 24.4595 0
      vertex 1.29443 24.4595 5.3
      vertex 1.6 25.4 5.3
    endloop
  endfacet
  facet normal 0 0 -1
    outer loop
      vertex 1.29443 24.4595 0
      vertex 1.6 25.4 0
      vertex 10.6 0 0
    endloop
  endfacet
  facet normal -0.951062 0.309001 0
    outer loop
      vertex 1.29443 24.4595 0
      vertex 1.6 25.4 5.3
      vertex 1.6 25.4 0
    endloop
  endfacet
  facet normal 0 0 1
    outer loop
      vertex 1.29443 24.4595 5.3
      vertex 1.65 22.5421 5.3
      vertex 3.3 25.4 5.3
    endloop
  endfacet
  facet normal 0 0 1
    outer loop
      vertex 1.29443 24.4595 5.3
      vertex 3.3 25.4 5.3
      vertex 1.6 25.4 5.3
    endloop
  endfacet
  facet normal 0 0 -1
    outer loop
      vertex 1.29443 26.3405 0
      vertex 1.29443 37.1595 0
      vertex 5.3 38.1 0
    endloop
  endfacet
  facet normal -0.951062 -0.309001 0
    outer loop
      vertex 1.29443 26.3405 0
      vertex 1.6 25.4 0
      vertex 1.29443 26.3405 5.3
    endloop
  endfacet
  facet normal 0 0 -1
    outer loop
      vertex 1.29443 26.3405 0
      vertex 5.3 38.1 0
      vertex 1.6 25.4 0
    endloop
  endfacet
  facet normal -0.951062 -0.309001 0
    outer loop
      vertex 1.29443 26.3405 5.3
      vertex 1.6 25.4 0
      vertex 1.6 25.4 5.3
    endloop
  endfacet
  facet normal 0 0 1
    outer loop
      vertex 1.29443 26.3405 5.3
      vertex 1.6 25.4 5.3
      vertex 3.3 25.4 5.3
    endloop
  endfacet
  facet normal -0 0 1
    outer loop
      vertex 1.29443 26.3405 5.3
      vertex 3.3 25.4 5.3
      vertex 1.65 28.2579 5.3
    endloop
  endfacet
  facet normal -0.951062 0.309001 0
    outer loop
      vertex 1.29443 37.1595 0
      vertex 1.29443 37.1595 5.3
      vertex 1.6 38.1 5.3
    endloop
  endfacet
  facet normal -0 0 -1
    outer loop
      vertex 1.29443 37.1595 0
      vertex 1.6 38.1 0
      vertex 5.3 38.1 0
    endloop
  endfacet
  facet normal -0.951062 0.309001 0
    outer loop
      vertex 1.29443 37.1595 0
      vertex 1.6 38.1 5.3
      vertex 1.6 38.1 0
    endloop
  endfacet
  facet normal 0 0 1
    outer loop
      vertex 1.29443 37.1595 5.3
      vertex 1.65 35.2421 5.3
      vertex 3.3 38.1 5.3
    endloop
  endfacet
  facet normal 0 0 1
    outer loop
      vertex 1.29443 37.1595 5.3
      vertex 3.3 38.1 5.3
      vertex 1.6 38.1 5.3
    endloop
  endfacet
  facet normal -0.951062 -0.309001 0
    outer loop
      vertex 1.29443 39.0405 0
      vertex 1.6 38.1 0
      vertex 1.29443 39.0405 5.3
    endloop
  endfacet
  facet normal -0 0 -1
    outer loop
      vertex 1.29443 39.0405 0
      vertex 1.63779 43.1406 0
      vertex 4.28779 41.2153 0
    endloop
  endfacet
  facet normal 0 0 -1
    outer loop
      vertex 1.29443 39.0405 0
      vertex 4.28779 41.2153 0
      vertex 1.6 38.1 0
    endloop
  endfacet
  facet normal -0.951062 -0.309001 0
    outer loop
      vertex 1.29443 39.0405 5.3
      vertex 1.6 38.1 0
      vertex 1.6 38.1 5.3
    endloop
  endfacet
  facet normal 0 0 1
    outer loop
      vertex 1.29443 39.0405 5.3
      vertex 1.6 38.1 5.3
      vertex 3.3 38.1 5.3
    endloop
  endfacet
  facet normal -0 0 1
    outer loop
      vertex 1.29443 39.0405 5.3
      vertex 3.3 38.1 5.3
      vertex 1.65 40.9579 5.3
    endloop
  endfacet
  facet normal 0 0 -1
    outer loop
      vertex 1.6 25.4 0
      vertex 5.3 38.1 0
      vertex 10.6 0 0
    endloop
  endfacet
  facet normal 0 0 -1
    outer loop
      vertex 1.6 38.1 0
      vertex 4.28779 41.2153 0
      vertex 5.3 38.1 0
    endloop
  endfacet
  facet normal -0.453991 0.891006 0
    outer loop
      vertex 1.63779 -5.0406 0
      vertex 1.63779 -5.0406 10.6
      vertex 3.11526 -4.28779 0
    endloop
  endfacet
  facet normal 0 0 -1
    outer loop
      vertex 1.63779 -5.0406 0
      vertex 3.11526 -4.28779 0
      vertex 3.27558 -10.0812 0
    endloop
  endfacet
  facet normal -0.453991 0.891006 0
    outer loop
      vertex 1.63779 -5.0406 10.6
      vertex 3.11526 -4.28779 10.6
      vertex 3.11526 -4.28779 0
    endloop
  endfacet
  facet normal -0 0 1
    outer loop
      vertex 1.63779 -5.0406 10.6
      vertex 3.27558 -10.0812 10.6
      vertex 3.11526 -4.28779 10.6
    endloop
  endfacet
  facet normal 0.587778 0.809022 0
    outer loop
      vertex 1.63779 43.1406 0
      vertex 1.63779 43.1406 5.3
      vertex 4.28779 41.2153 0
    endloop
  endfacet
  facet normal 0.000153339 0.158299 0.987391
    outer loop
      vertex 1.63779 43.1406 5.3
      vertex 1.65 40.9579 5.64993
      vertex 1.75493 40.7761 5.67906
    endloop
  endfacet
  facet normal 0.118326 0.162892 0.979523
    outer loop
      vertex 1.63779 43.1406 5.3
      vertex 1.75493 40.7761 5.67906
      vertex 2.24022 39.9356 5.76021
    endloop
  endfacet
  facet normal 0.118348 0.162896 0.97952
    outer loop
      vertex 1.63779 43.1406 5.3
      vertex 2.24022 39.9356 5.76021
      vertex 4.28779 41.2153 5.3
    endloop
  endfacet
  facet normal 0.587778 0.809022 -0
    outer loop
      vertex 1.63779 43.1406 5.3
      vertex 4.28779 41.2153 5.3
      vertex 4.28779 41.2153 0
    endloop
  endfacet
  facet normal -0.453991 -0.891006 -0
    outer loop
      vertex 1.63779 5.0406 0
      vertex 3.11526 4.28779 0
      vertex 3.11526 4.28779 10.6
    endloop
  endfacet
  facet normal -0.453991 -0.891006 0
    outer loop
      vertex 1.63779 5.0406 0
      vertex 3.11526 4.28779 10.6
      vertex 1.63779 5.0406 10.6
    endloop
  endfacet
  facet normal 0 0 1
    outer loop
      vertex 1.63779 5.0406 10.6
      vertex 3.11526 4.28779 10.6
      vertex 3.27558 10.0812 10.6
    endloop
  endfacet
  facet normal -0.866032 0.499988 0
    outer loop
      vertex 1.65 22.5421 5.3
      vertex 1.65 22.5421 8.6023
      vertex 2.57858 24.1505 8.34445
    endloop
  endfacet
  facet normal -0.866027 0.499998 -7.08868e-06
    outer loop
      vertex 1.65 22.5421 5.3
      vertex 2.57858 24.1505 8.34445
      vertex 3.3 25.4 5.3
    endloop
  endfacet
  facet normal -4.01033e-06 0.158296 0.987392
    outer loop
      vertex 1.65 22.5421 8.6023
      vertex 3.27558 10.0812 10.6
      vertex 2.57858 24.1505 8.34445
    endloop
  endfacet
  facet normal -0.866029 -0.499993 0
    outer loop
      vertex 1.65 28.2579 5.3
      vertex 2.44315 26.8841 7.9062
      vertex 1.65 28.2579 7.68596
    endloop
  endfacet
  facet normal -0.866027 -0.499998 -3.09459e-06
    outer loop
      vertex 1.65 28.2579 5.3
      vertex 3.3 25.4 5.3
      vertex 2.44315 26.8841 7.9062
    endloop
  endfacet
  facet normal -1.38658e-05 0.158298 0.987391
    outer loop
      vertex 1.65 28.2579 7.68596
      vertex 1.99913 35.8468 6.46932
      vertex 1.65 35.2421 6.56626
    endloop
  endfacet
  facet normal 6.18315e-06 0.158297 0.987392
    outer loop
      vertex 1.65 28.2579 7.68596
      vertex 2.44315 26.8841 7.9062
      vertex 1.99913 35.8468 6.46932
    endloop
  endfacet
  facet normal -0.866022 0.500007 0
    outer loop
      vertex 1.65 35.2421 5.3
      vertex 1.65 35.2421 6.56626
      vertex 1.99913 35.8468 6.46932
    endloop
  endfacet
  facet normal -0.866035 0.499984 1.57132e-05
    outer loop
      vertex 1.65 35.2421 5.3
      vertex 1.99913 35.8468 6.46932
      vertex 2.76079 37.1661 6.1579
    endloop
  endfacet
  facet normal -0.866027 0.499998 -2.58767e-05
    outer loop
      vertex 1.65 35.2421 5.3
      vertex 2.76079 37.1661 6.1579
      vertex 3.3 38.1 5.3
    endloop
  endfacet
  facet normal -0.866092 -0.499885 0
    outer loop
      vertex 1.65 40.9579 5.3
      vertex 1.75493 40.7761 5.67906
      vertex 1.65 40.9579 5.64993
    endloop
  endfacet
  facet normal -0.866009 -0.500028 -9.13673e-05
    outer loop
      vertex 1.65 40.9579 5.3
      vertex 2.24022 39.9356 5.76021
      vertex 1.75493 40.7761 5.67906
    endloop
  endfacet
  facet normal -0.866027 -0.499998 -3.46481e-06
    outer loop
      vertex 1.65 40.9579 5.3
      vertex 3.3 38.1 5.3
      vertex 2.24022 39.9356 5.76021
    endloop
  endfacet
  facet normal 0.118337 0.162897 0.979521
    outer loop
      vertex 1.99913 35.8468 6.46932
      vertex 2.44315 26.8841 7.9062
      vertex 2.76079 37.1661 6.1579
    endloop
  endfacet
  facet normal 0.990461 0.137797 -0
    outer loop
      vertex 10.2024 2.85788 3.65
      vertex 10.6 0 2
      vertex 10.6 0 0
    endloop
  endfacet
  facet normal 0.990461 0.137797 0
    outer loop
      vertex 10.2024 2.85788 6.95
      vertex 10.6 0 10.6
      vertex 10.6 0 8.6
    endloop
  endfacet
  facet normal -0.866026 -0.499999 0
    outer loop
      vertex 2.24022 39.9356 5.76021
      vertex 3.3 38.1 5.3
      vertex 3.3 38.1 5.93743
    endloop
  endfacet
  facet normal 0.118348 0.162897 0.979519
    outer loop
      vertex 2.24022 39.9356 5.76021
      vertex 3.3 38.1 5.93743
      vertex 4.28779 41.2153 5.3
    endloop
  endfacet
  facet normal -0.866024 -0.500002 0
    outer loop
      vertex 2.44315 26.8841 7.9062
      vertex 3.3 25.4 5.3
      vertex 3.3 25.4 8.04948
    endloop
  endfacet
  facet normal 0.118351 0.162896 0.979519
    outer loop
      vertex 2.44315 26.8841 7.9062
      vertex 3.3 25.4 8.04948
      vertex 2.76079 37.1661 6.1579
    endloop
  endfacet
  facet normal 0.118352 0.162897 0.979519
    outer loop
      vertex 2.57858 24.1505 8.34445
      vertex 3.27558 10.0812 10.6
      vertex 8.57558 6.23052 10.6
    endloop
  endfacet
  facet normal -0.866019 0.500011 0
    outer loop
      vertex 2.57858 24.1505 8.34445
      vertex 3.3 25.4 8.04948
      vertex 3.3 25.4 5.3
    endloop
  endfacet
  facet normal 0.118358 0.162899 0.979518
    outer loop
      vertex 2.57858 24.1505 8.34445
      vertex 8.57558 6.23052 10.6
      vertex 3.3 25.4 8.04948
    endloop
  endfacet
  facet normal 0.118348 0.162896 0.97952
    outer loop
      vertex 2.76079 37.1661 6.1579
      vertex 3.3 25.4 8.04948
      vertex 8.57558 6.23052 10.6
    endloop
  endfacet
  facet normal -0.866016 0.500016 0
    outer loop
      vertex 2.76079 37.1661 6.1579
      vertex 3.3 38.1 5.93743
      vertex 3.3 38.1 5.3
    endloop
  endfacet
  facet normal 0.118364 0.162899 0.979517
    outer loop
      vertex 2.76079 37.1661 6.1579
      vertex 8.57558 6.23052 10.6
      vertex 3.3 38.1 5.93743
    endloop
  endfacet
  facet normal -0.707107 0.707107 0
    outer loop
      vertex 3.11526 -4.28779 0
      vertex 3.11526 -4.28779 10.6
      vertex 4.28779 -3.11526 10.6
    endloop
  endfacet
  facet normal 0 0 -1
    outer loop
      vertex 3.11526 -4.28779 0
      vertex 4.28779 -3.11526 0
      vertex 8.57558 -6.23052 0
    endloop
  endfacet
  facet normal -0.707107 0.707107 0
    outer loop
      vertex 3.11526 -4.28779 0
      vertex 4.28779 -3.11526 10.6
      vertex 4.28779 -3.11526 0
    endloop
  endfacet
  facet normal 0 0 -1
    outer loop
      vertex 3.11526 -4.28779 0
      vertex 8.57558 -6.23052 0
      vertex 3.27558 -10.0812 0
    endloop
  endfacet
  facet normal 0 0 1
    outer loop
      vertex 3.11526 -4.28779 10.6
      vertex 3.27558 -10.0812 10.6
      vertex 8.57558 -6.23052 10.6
    endloop
  endfacet
  facet normal -0 0 1
    outer loop
      vertex 3.11526 -4.28779 10.6
      vertex 8.57558 -6.23052 10.6
      vertex 4.28779 -3.11526 10.6
    endloop
  endfacet
  facet normal -0.707107 -0.707107 0
    outer loop
      vertex 3.11526 4.28779 0
      vertex 4.28779 3.11526 0
      vertex 3.11526 4.28779 10.6
    endloop
  endfacet
  facet normal -0.707107 -0.707107 0
    outer loop
      vertex 3.11526 4.28779 10.6
      vertex 4.28779 3.11526 0
      vertex 4.28779 3.11526 10.6
    endloop
  endfacet
  facet normal 0 0 1
    outer loop
      vertex 3.11526 4.28779 10.6
      vertex 4.28779 3.11526 10.6
      vertex 8.57558 6.23052 10.6
    endloop
  endfacet
  facet normal 0 0 1
    outer loop
      vertex 3.11526 4.28779 10.6
      vertex 8.57558 6.23052 10.6
      vertex 3.27558 10.0812 10.6
    endloop
  endfacet
  facet normal 0.587786 -0.809017 0
    outer loop
      vertex 3.27558 -10.0812 0
      vertex 8.57558 -6.23052 0
      vertex 8.57558 -6.23052 10.6
    endloop
  endfacet
  facet normal 0.587786 -0.809017 0
    outer loop
      vertex 3.27558 -10.0812 0
      vertex 8.57558 -6.23052 10.6
      vertex 3.27558 -10.0812 10.6
    endloop
  endfacet
  facet normal 0.118348 0.162897 0.979519
    outer loop
      vertex 3.3 38.1 5.93743
      vertex 8.57558 6.23052 10.6
      vertex 4.28779 41.2153 5.3
    endloop
  endfacet
  facet normal -0.891006 0.453991 0
    outer loop
      vertex 4.28779 -3.11526 0
      vertex 4.28779 -3.11526 10.6
      vertex 5.0406 -1.63779 10.6
    endloop
  endfacet
  facet normal 0 0 -1
    outer loop
      vertex 4.28779 -3.11526 0
      vertex 5.0406 -1.63779 0
      vertex 8.57558 -6.23052 0
    endloop
  endfacet
  facet normal -0.891006 0.453991 0
    outer loop
      vertex 4.28779 -3.11526 0
      vertex 5.0406 -1.63779 10.6
      vertex 5.0406 -1.63779 0
    endloop
  endfacet
  facet normal -0 0 1
    outer loop
      vertex 4.28779 -3.11526 10.6
      vertex 8.57558 -6.23052 10.6
      vertex 5.0406 -1.63779 10.6
    endloop
  endfacet
  facet normal 0 0 -1
    outer loop
      vertex 4.28779 3.11526 0
      vertex 10.6 0 0
      vertex 5.0406 1.63779 0
    endloop
  endfacet
  facet normal -0.891006 -0.453991 0
    outer loop
      vertex 4.28779 3.11526 0
      vertex 5.0406 1.63779 0
      vertex 4.28779 3.11526 10.6
    endloop
  endfacet
  facet normal -0.891006 -0.453991 0
    outer loop
      vertex 4.28779 3.11526 10.6
      vertex 5.0406 1.63779 0
      vertex 5.0406 1.63779 10.6
    endloop
  endfacet
  facet normal 0 0 1
    outer loop
      vertex 4.28779 3.11526 10.6
      vertex 5.0406 1.63779 10.6
      vertex 8.57558 6.23052 10.6
    endloop
  endfacet
  facet normal 0.951058 0.309014 0
    outer loop
      vertex 4.28779 41.2153 0
      vertex 4.28779 41.2153 5.3
      vertex 5.3 38.1 5.3
    endloop
  endfacet
  facet normal 0.951058 0.309014 0
    outer loop
      vertex 4.28779 41.2153 0
      vertex 5.3 38.1 5.3
      vertex 5.3 38.1 0
    endloop
  endfacet
  facet normal 0.588265 0.191137 0.785755
    outer loop
      vertex 4.28779 41.2153 5.3
      vertex 10.6 0 10.6
      vertex 5.3 38.1 5.3
    endloop
  endfacet
  facet normal 0.588256 0.191136 0.785762
    outer loop
      vertex 4.28779 41.2153 5.3
      vertex 8.57558 6.23052 10.6
      vertex 10.6 0 10.6
    endloop
  endfacet
  facet normal 0 0 -1
    outer loop
      vertex 5.0406 -1.63779 0
      vertex 10.6 0 0
      vertex 8.57558 -6.23052 0
    endloop
  endfacet
  facet normal -0.987686 0.156447 0
    outer loop
      vertex 5.0406 -1.63779 0
      vertex 5.0406 -1.63779 10.6
      vertex 5.05899 -1.52169 5.79443
    endloop
  endfacet
  facet normal -0.987688 0.156437 2.4889e-07
    outer loop
      vertex 5.0406 -1.63779 0
      vertex 5.05899 -1.52169 4.80557
      vertex 5.15105 -0.940456 4.00557
    endloop
  endfacet
  facet normal -0.987686 0.156447 0
    outer loop
      vertex 5.0406 -1.63779 0
      vertex 5.05899 -1.52169 5.79443
      vertex 5.05899 -1.52169 4.80557
    endloop
  endfacet
  facet normal -0.987689 0.156431 1.35638e-06
    outer loop
      vertex 5.0406 -1.63779 0
      vertex 5.15105 -0.940456 4.00557
      vertex 5.3 0 3.7
    endloop
  endfacet
  facet normal -0 0 -1
    outer loop
      vertex 5.0406 -1.63779 0
      vertex 5.3 0 0
      vertex 10.6 0 0
    endloop
  endfacet
  facet normal -0.987688 0.156434 0
    outer loop
      vertex 5.0406 -1.63779 0
      vertex 5.3 0 3.7
      vertex 5.3 0 0
    endloop
  endfacet
  facet normal 0 0 1
    outer loop
      vertex 5.0406 -1.63779 10.6
      vertex 10.6 0 10.6
      vertex 5.3 0 10.6
    endloop
  endfacet
  facet normal -0.987688 0.156437 -2.4889e-07
    outer loop
      vertex 5.0406 -1.63779 10.6
      vertex 5.15105 -0.940456 6.59443
      vertex 5.05899 -1.52169 5.79443
    endloop
  endfacet
  facet normal -0.987688 0.156434 0
    outer loop
      vertex 5.0406 -1.63779 10.6
      vertex 5.3 0 10.6
      vertex 5.3 0 6.9
    endloop
  endfacet
  facet normal -0.987689 0.156431 -1.35638e-06
    outer loop
      vertex 5.0406 -1.63779 10.6
      vertex 5.3 0 6.9
      vertex 5.15105 -0.940456 6.59443
    endloop
  endfacet
  facet normal 0 0 1
    outer loop
      vertex 5.0406 -1.63779 10.6
      vertex 8.57558 -6.23052 10.6
      vertex 10.6 0 10.6
    endloop
  endfacet
  facet normal 0 0 -1
    outer loop
      vertex 5.0406 1.63779 0
      vertex 10.6 0 0
      vertex 5.3 0 0
    endloop
  endfacet
  facet normal -0.987686 -0.156447 0
    outer loop
      vertex 5.0406 1.63779 0
      vertex 5.05899 1.52169 4.80557
      vertex 5.0406 1.63779 10.6
    endloop
  endfacet
  facet normal -0.987688 -0.156437 2.4889e-07
    outer loop
      vertex 5.0406 1.63779 0
      vertex 5.15105 0.940456 4.00557
      vertex 5.05899 1.52169 4.80557
    endloop
  endfacet
  facet normal -0.987688 -0.156434 -0
    outer loop
      vertex 5.0406 1.63779 0
      vertex 5.3 0 0
      vertex 5.3 0 3.7
    endloop
  endfacet
  facet normal -0.987689 -0.156431 1.35638e-06
    outer loop
      vertex 5.0406 1.63779 0
      vertex 5.3 0 3.7
      vertex 5.15105 0.940456 4.00557
    endloop
  endfacet
  facet normal -0 0 1
    outer loop
      vertex 5.0406 1.63779 10.6
      vertex 10.6 0 10.6
      vertex 8.57558 6.23052 10.6
    endloop
  endfacet
  facet normal -0.987686 -0.156447 -0
    outer loop
      vertex 5.0406 1.63779 10.6
      vertex 5.05899 1.52169 4.80557
      vertex 5.05899 1.52169 5.79443
    endloop
  endfacet
  facet normal -0.987688 -0.156437 -2.4889e-07
    outer loop
      vertex 5.0406 1.63779 10.6
      vertex 5.05899 1.52169 5.79443
      vertex 5.15105 0.940456 6.59443
    endloop
  endfacet
  facet normal -0.987689 -0.156431 -1.35638e-06
    outer loop
      vertex 5.0406 1.63779 10.6
      vertex 5.15105 0.940456 6.59443
      vertex 5.3 0 6.9
    endloop
  endfacet
  facet normal 0 0 1
    outer loop
      vertex 5.0406 1.63779 10.6
      vertex 5.3 0 10.6
      vertex 10.6 0 10.6
    endloop
  endfacet
  facet normal -0.987688 -0.156434 0
    outer loop
      vertex 5.0406 1.63779 10.6
      vertex 5.3 0 6.9
      vertex 5.3 0 10.6
    endloop
  endfacet
  facet normal 0 1 0
    outer loop
      vertex 5.05899 -1.52169 4.80557
      vertex 5.05899 -1.52169 5.79443
      vertex 7.9 -1.52169 4.80557
    endloop
  endfacet
  facet normal 0 0.809017 0.587785
    outer loop
      vertex 5.05899 -1.52169 4.80557
      vertex 7.9 -1.52169 4.80557
      vertex 5.15105 -0.940456 4.00557
    endloop
  endfacet
  facet normal 0 0.809017 -0.587785
    outer loop
      vertex 5.05899 -1.52169 5.79443
      vertex 5.15105 -0.940456 6.59443
      vertex 7.9 -1.52169 5.79443
    endloop
  endfacet
  facet normal 0 1 -0
    outer loop
      vertex 5.05899 -1.52169 5.79443
      vertex 7.9 -1.52169 5.79443
      vertex 7.9 -1.52169 4.80557
    endloop
  endfacet
  facet normal 0 -0.809017 0.587785
    outer loop
      vertex 5.05899 1.52169 4.80557
      vertex 5.15105 0.940456 4.00557
      vertex 7.9 1.52169 4.80557
    endloop
  endfacet
  facet normal 0 -1 -0
    outer loop
      vertex 5.05899 1.52169 4.80557
      vertex 7.9 1.52169 4.80557
      vertex 7.9 1.52169 5.79443
    endloop
  endfacet
  facet normal 0 -1 0
    outer loop
      vertex 5.05899 1.52169 4.80557
      vertex 7.9 1.52169 5.79443
      vertex 5.05899 1.52169 5.79443
    endloop
  endfacet
  facet normal -0 -0.809017 -0.587785
    outer loop
      vertex 5.05899 1.52169 5.79443
      vertex 7.9 1.52169 5.79443
      vertex 5.15105 0.940456 6.59443
    endloop
  endfacet
  facet normal 0 0.309015 0.951057
    outer loop
      vertex 5.15105 -0.940456 4.00557
      vertex 7.9 -0.940456 4.00557
      vertex 5.3 0 3.7
    endloop
  endfacet
  facet normal -0 0.809017 0.587785
    outer loop
      vertex 5.15105 -0.940456 4.00557
      vertex 7.9 -1.52169 4.80557
      vertex 7.9 -0.940456 4.00557
    endloop
  endfacet
  facet normal 0 0.309015 -0.951057
    outer loop
      vertex 5.15105 -0.940456 6.59443
      vertex 5.3 0 6.9
      vertex 7.9 -0.940456 6.59443
    endloop
  endfacet
  facet normal 0 0.809017 -0.587785
    outer loop
      vertex 5.15105 -0.940456 6.59443
      vertex 7.9 -0.940456 6.59443
      vertex 7.9 -1.52169 5.79443
    endloop
  endfacet
  facet normal 0 -0.309015 0.951057
    outer loop
      vertex 5.15105 0.940456 4.00557
      vertex 5.3 0 3.7
      vertex 7.9 0.940456 4.00557
    endloop
  endfacet
  facet normal 0 -0.809017 0.587785
    outer loop
      vertex 5.15105 0.940456 4.00557
      vertex 7.9 0.940456 4.00557
      vertex 7.9 1.52169 4.80557
    endloop
  endfacet
  facet normal -0 -0.309015 -0.951057
    outer loop
      vertex 5.15105 0.940456 6.59443
      vertex 7.9 0.940456 6.59443
      vertex 5.3 0 6.9
    endloop
  endfacet
  facet normal 0 -0.809017 -0.587785
    outer loop
      vertex 5.15105 0.940456 6.59443
      vertex 7.9 1.52169 5.79443
      vertex 7.9 0.940456 6.59443
    endloop
  endfacet
  facet normal -0 0.309015 0.951057
    outer loop
      vertex 5.3 0 3.7
      vertex 7.9 -0.940456 4.00557
      vertex 7.9 0 3.7
    endloop
  endfacet
  facet normal 0 -0.309015 0.951057
    outer loop
      vertex 5.3 0 3.7
      vertex 7.9 0 3.7
      vertex 7.9 0.940456 4.00557
    endloop
  endfacet
  facet normal 0 0.309015 -0.951057
    outer loop
      vertex 5.3 0 6.9
      vertex 7.9 0 6.9
      vertex 7.9 -0.940456 6.59443
    endloop
  endfacet
  facet normal 0 -0.309015 -0.951057
    outer loop
      vertex 5.3 0 6.9
      vertex 7.9 0.940456 6.59443
      vertex 7.9 0 6.9
    endloop
  endfacet
  facet normal 0.990463 0.137781 1.27917e-05
    outer loop
      vertex 5.3 38.1 0
      vertex 10.2024 2.85788 3.65
      vertex 10.6 0 0
    endloop
  endfacet
  facet normal 0.990463 0.13778 0
    outer loop
      vertex 5.3 38.1 0
      vertex 5.3 38.1 5.3
      vertex 10.2024 2.85788 3.65
    endloop
  endfacet
  facet normal 0.990463 0.13778 -0
    outer loop
      vertex 5.3 38.1 5.3
      vertex 10.2024 2.85788 6.95
      vertex 10.2024 2.85788 3.65
    endloop
  endfacet
  facet normal 0.990463 0.137779 -1.43552e-05
    outer loop
      vertex 5.3 38.1 5.3
      vertex 10.6 0 10.6
      vertex 10.2024 2.85788 6.95
    endloop
  endfacet
  facet normal 1 0 0
    outer loop
      vertex 7.9 -0.940456 4.00557
      vertex 7.9 0 2
      vertex 7.9 0 3.7
    endloop
  endfacet
  facet normal 1 0 0
    outer loop
      vertex 7.9 -0.940456 6.59443
      vertex 7.9 0 6.9
      vertex 7.9 0 8.6
    endloop
  endfacet
  facet normal 1 0 0
    outer loop
      vertex 7.9 -2.85788 3.65
      vertex 7.9 -0.940456 4.00557
      vertex 7.9 -1.52169 4.80557
    endloop
  endfacet
  facet normal 1 0 0
    outer loop
      vertex 7.9 -2.85788 3.65
      vertex 7.9 -1.52169 4.80557
      vertex 7.9 -2.85788 6.95
    endloop
  endfacet
  facet normal 0 1 0
    outer loop
      vertex 7.9 -2.85788 3.65
      vertex 7.9 -2.85788 6.95
      vertex 9.67142 -2.85788 3.65
    endloop
  endfacet
  facet normal 1 0 0
    outer loop
      vertex 7.9 -2.85788 3.65
      vertex 7.9 0 2
      vertex 7.9 -0.940456 4.00557
    endloop
  endfacet
  facet normal 0 0.500001 0.866025
    outer loop
      vertex 7.9 -2.85788 3.65
      vertex 9.67142 -2.85788 3.65
      vertex 7.9 0 2
    endloop
  endfacet
  facet normal 1 -0 0
    outer loop
      vertex 7.9 -2.85788 6.95
      vertex 7.9 -0.940456 6.59443
      vertex 7.9 0 8.6
    endloop
  endfacet
  facet normal 1 0 0
    outer loop
      vertex 7.9 -2.85788 6.95
      vertex 7.9 -1.52169 4.80557
      vertex 7.9 -1.52169 5.79443
    endloop
  endfacet
  facet normal 1 0 0
    outer loop
      vertex 7.9 -2.85788 6.95
      vertex 7.9 -1.52169 5.79443
      vertex 7.9 -0.940456 6.59443
    endloop
  endfacet
  facet normal 0 0.500001 -0.866025
    outer loop
      vertex 7.9 -2.85788 6.95
      vertex 7.9 0 8.6
      vertex 9.67142 -2.85788 6.95
    endloop
  endfacet
  facet normal 0 1 -0
    outer loop
      vertex 7.9 -2.85788 6.95
      vertex 9.67142 -2.85788 6.95
      vertex 9.67142 -2.85788 3.65
    endloop
  endfacet
  facet normal 0 -0.500001 0.866025
    outer loop
      vertex 7.9 0 2
      vertex 10.2024 2.85788 3.65
      vertex 7.9 2.85788 3.65
    endloop
  endfacet
  facet normal 0 -0.500001 0.866025
    outer loop
      vertex 7.9 0 2
      vertex 10.6 0 2
      vertex 10.2024 2.85788 3.65
    endloop
  endfacet
  facet normal 1 0 0
    outer loop
      vertex 7.9 0 2
      vertex 7.9 0.940456 4.00557
      vertex 7.9 0 3.7
    endloop
  endfacet
  facet normal 1 0 0
    outer loop
      vertex 7.9 0 2
      vertex 7.9 2.85788 3.65
      vertex 7.9 0.940456 4.00557
    endloop
  endfacet
  facet normal -0 0.500001 0.866025
    outer loop
      vertex 7.9 0 2
      vertex 9.67142 -2.85788 3.65
      vertex 10.6 0 2
    endloop
  endfacet
  facet normal 1 0 0
    outer loop
      vertex 7.9 0 6.9
      vertex 7.9 0.940456 6.59443
      vertex 7.9 0 8.6
    endloop
  endfacet
  facet normal 0 -0.500001 -0.866025
    outer loop
      vertex 7.9 0 8.6
      vertex 10.2024 2.85788 6.95
      vertex 10.6 0 8.6
    endloop
  endfacet
  facet normal 0 0.500001 -0.866025
    outer loop
      vertex 7.9 0 8.6
      vertex 10.6 0 8.6
      vertex 9.67142 -2.85788 6.95
    endloop
  endfacet
  facet normal 1 0 0
    outer loop
      vertex 7.9 0 8.6
      vertex 7.9 0.940456 6.59443
      vertex 7.9 2.85788 6.95
    endloop
  endfacet
  facet normal -0 -0.500001 -0.866025
    outer loop
      vertex 7.9 0 8.6
      vertex 7.9 2.85788 6.95
      vertex 10.2024 2.85788 6.95
    endloop
  endfacet
  facet normal 1 -0 0
    outer loop
      vertex 7.9 0.940456 4.00557
      vertex 7.9 2.85788 3.65
      vertex 7.9 1.52169 4.80557
    endloop
  endfacet
  facet normal 1 0 0
    outer loop
      vertex 7.9 0.940456 6.59443
      vertex 7.9 1.52169 5.79443
      vertex 7.9 2.85788 6.95
    endloop
  endfacet
  facet normal 1 -0 0
    outer loop
      vertex 7.9 1.52169 4.80557
      vertex 7.9 2.85788 3.65
      vertex 7.9 1.52169 5.79443
    endloop
  endfacet
  facet normal 1 0 0
    outer loop
      vertex 7.9 1.52169 5.79443
      vertex 7.9 2.85788 3.65
      vertex 7.9 2.85788 6.95
    endloop
  endfacet
  facet normal 0 -1 -0
    outer loop
      vertex 7.9 2.85788 3.65
      vertex 10.2024 2.85788 3.65
      vertex 10.2024 2.85788 6.95
    endloop
  endfacet
  facet normal 0 -1 0
    outer loop
      vertex 7.9 2.85788 3.65
      vertex 10.2024 2.85788 6.95
      vertex 7.9 2.85788 6.95
    endloop
  endfacet
  facet normal 0.951056 -0.309017 -5.50692e-07
    outer loop
      vertex 8.57558 -6.23052 0
      vertex 10.6 0 0
      vertex 9.67142 -2.85788 3.65
    endloop
  endfacet
  facet normal 0.951056 -0.309018 0
    outer loop
      vertex 8.57558 -6.23052 0
      vertex 9.67142 -2.85788 3.65
      vertex 8.57558 -6.23052 10.6
    endloop
  endfacet
  facet normal 0.951056 -0.309018 0
    outer loop
      vertex 8.57558 -6.23052 10.6
      vertex 9.67142 -2.85788 3.65
      vertex 9.67142 -2.85788 6.95
    endloop
  endfacet
  facet normal 0.951056 -0.309017 5.50692e-07
    outer loop
      vertex 8.57558 -6.23052 10.6
      vertex 9.67142 -2.85788 6.95
      vertex 10.6 0 10.6
    endloop
  endfacet
  facet normal 0.951057 -0.309017 0
    outer loop
      vertex 9.67142 -2.85788 3.65
      vertex 10.6 0 0
      vertex 10.6 0 2
    endloop
  endfacet
  facet normal 0.951057 -0.309017 0
    outer loop
      vertex 9.67142 -2.85788 6.95
      vertex 10.6 0 8.6
      vertex 10.6 0 10.6
    endloop
  endfacet
endsolid model
