solid OpenSCAD_Model
  facet normal -1 0 0
    outer loop
      vertex -26.5 26.5905 0
      vertex -26.5 4 8
      vertex -26.5 26.5905 8
    endloop
  endfacet
  facet normal -1 0 0
    outer loop
      vertex -26.5 26.5905 0
      vertex -26.5 0 4
      vertex -26.5 4 8
    endloop
  endfacet
  facet normal -1 0 0
    outer loop
      vertex -26.5 -26.5905 0
      vertex -26.5 0 4
      vertex -26.5 26.5905 0
    endloop
  endfacet
  facet normal -1 0 0
    outer loop
      vertex -26.5 -26.5905 0
      vertex -26.5 -4 8
      vertex -26.5 0 4
    endloop
  endfacet
  facet normal -1 -0 0
    outer loop
      vertex -26.5 -4 8
      vertex -26.5 -26.5905 0
      vertex -26.5 -26.5905 8
    endloop
  endfacet
  facet normal 0 0 1
    outer loop
      vertex -21.5 -4 8
      vertex -26.5 -4 8
      vertex -21.5 -21.5905 8
    endloop
  endfacet
  facet normal 0 0 1
    outer loop
      vertex 21.5 -21.5905 8
      vertex 26.5 -4 8
      vertex 21.5 -4 8
    endloop
  endfacet
  facet normal 0 0 1
    outer loop
      vertex 26.5 -4 8
      vertex 21.5 -21.5905 8
      vertex 26.5 -26.5905 8
    endloop
  endfacet
  facet normal -0 0 1
    outer loop
      vertex -21.5 -21.5905 8
      vertex 26.5 -26.5905 8
      vertex 21.5 -21.5905 8
    endloop
  endfacet
  facet normal 0 0 1
    outer loop
      vertex -21.5 -21.5905 8
      vertex -26.5 -26.5905 8
      vertex 26.5 -26.5905 8
    endloop
  endfacet
  facet normal 0 0 1
    outer loop
      vertex -26.5 -26.5905 8
      vertex -21.5 -21.5905 8
      vertex -26.5 -4 8
    endloop
  endfacet
  facet normal 0 0 1
    outer loop
      vertex 26.5 26.5905 8
      vertex 21.5 21.5905 8
      vertex 26.5 4 8
    endloop
  endfacet
  facet normal 0 0 1
    outer loop
      vertex 26.5 26.5905 8
      vertex -21.5 21.5905 8
      vertex 21.5 21.5905 8
    endloop
  endfacet
  facet normal -0 0 1
    outer loop
      vertex -26.5 26.5905 8
      vertex -21.5 21.5905 8
      vertex 26.5 26.5905 8
    endloop
  endfacet
  facet normal 0 0 1
    outer loop
      vertex -26.5 4 8
      vertex -21.5 21.5905 8
      vertex -26.5 26.5905 8
    endloop
  endfacet
  facet normal 0 0 1
    outer loop
      vertex -21.5 21.5905 8
      vertex -26.5 4 8
      vertex -21.5 4 8
    endloop
  endfacet
  facet normal 0 0 1
    outer loop
      vertex 26.5 4 8
      vertex 21.5 21.5905 8
      vertex 21.5 4 8
    endloop
  endfacet
  facet normal 1 -0 0
    outer loop
      vertex 26.5 4 8
      vertex 26.5 26.5905 0
      vertex 26.5 26.5905 8
    endloop
  endfacet
  facet normal 1 -0 0
    outer loop
      vertex 26.5 0 4
      vertex 26.5 26.5905 0
      vertex 26.5 4 8
    endloop
  endfacet
  facet normal 1 0 0
    outer loop
      vertex 26.5 -26.5905 0
      vertex 26.5 -4 8
      vertex 26.5 -26.5905 8
    endloop
  endfacet
  facet normal 1 0 0
    outer loop
      vertex 26.5 -4 8
      vertex 26.5 -26.5905 0
      vertex 26.5 0 4
    endloop
  endfacet
  facet normal 1 0 0
    outer loop
      vertex 26.5 0 4
      vertex 26.5 -26.5905 0
      vertex 26.5 26.5905 0
    endloop
  endfacet
  facet normal 0 1 0
    outer loop
      vertex 26.5 26.5905 8
      vertex 0 26.5905 4
      vertex -26.5 26.5905 8
    endloop
  endfacet
  facet normal 0 1 0
    outer loop
      vertex 4 26.5905 0
      vertex 26.5 26.5905 8
      vertex 26.5 26.5905 0
    endloop
  endfacet
  facet normal 0 1 0
    outer loop
      vertex 26.5 26.5905 8
      vertex 4 26.5905 0
      vertex 0 26.5905 4
    endloop
  endfacet
  facet normal 0 1 -0
    outer loop
      vertex -4 26.5905 0
      vertex -26.5 26.5905 8
      vertex 0 26.5905 4
    endloop
  endfacet
  facet normal 0 1 0
    outer loop
      vertex -26.5 26.5905 8
      vertex -4 26.5905 0
      vertex -26.5 26.5905 0
    endloop
  endfacet
  facet normal 0 0 -1
    outer loop
      vertex -4 -26.5905 0
      vertex -21.5 -21.5905 0
      vertex -4 -21.5905 0
    endloop
  endfacet
  facet normal -0 0 -1
    outer loop
      vertex -21.5 -21.5905 0
      vertex -26.5 -26.5905 0
      vertex -21.5 21.5905 0
    endloop
  endfacet
  facet normal 0 0 -1
    outer loop
      vertex -26.5 -26.5905 0
      vertex -21.5 -21.5905 0
      vertex -4 -26.5905 0
    endloop
  endfacet
  facet normal 0 0 -1
    outer loop
      vertex -21.5 21.5905 0
      vertex -4 26.5905 0
      vertex -4 21.5905 0
    endloop
  endfacet
  facet normal 0 0 -1
    outer loop
      vertex -21.5 21.5905 0
      vertex -26.5 26.5905 0
      vertex -4 26.5905 0
    endloop
  endfacet
  facet normal 0 0 -1
    outer loop
      vertex -26.5 26.5905 0
      vertex -21.5 21.5905 0
      vertex -26.5 -26.5905 0
    endloop
  endfacet
  facet normal 0 0 -1
    outer loop
      vertex 26.5 -26.5905 0
      vertex 21.5 -21.5905 0
      vertex 26.5 26.5905 0
    endloop
  endfacet
  facet normal 0 0 -1
    outer loop
      vertex 4 -26.5905 0
      vertex 21.5 -21.5905 0
      vertex 26.5 -26.5905 0
    endloop
  endfacet
  facet normal -0 0 -1
    outer loop
      vertex 21.5 -21.5905 0
      vertex 4 -26.5905 0
      vertex 4 -21.5905 0
    endloop
  endfacet
  facet normal 0 0 -1
    outer loop
      vertex 21.5 21.5905 0
      vertex 26.5 26.5905 0
      vertex 21.5 -21.5905 0
    endloop
  endfacet
  facet normal 0 0 -1
    outer loop
      vertex 4 26.5905 0
      vertex 21.5 21.5905 0
      vertex 4 21.5905 0
    endloop
  endfacet
  facet normal 0 0 -1
    outer loop
      vertex 21.5 21.5905 0
      vertex 4 26.5905 0
      vertex 26.5 26.5905 0
    endloop
  endfacet
  facet normal 0 -1 0
    outer loop
      vertex -26.5 -26.5905 8
      vertex 0 -26.5905 4
      vertex 26.5 -26.5905 8
    endloop
  endfacet
  facet normal 0 -1 0
    outer loop
      vertex -4 -26.5905 0
      vertex -26.5 -26.5905 8
      vertex -26.5 -26.5905 0
    endloop
  endfacet
  facet normal 0 -1 0
    outer loop
      vertex -26.5 -26.5905 8
      vertex -4 -26.5905 0
      vertex 0 -26.5905 4
    endloop
  endfacet
  facet normal 0 -1 0
    outer loop
      vertex 4 -26.5905 0
      vertex 26.5 -26.5905 8
      vertex 0 -26.5905 4
    endloop
  endfacet
  facet normal 0 -1 -0
    outer loop
      vertex 26.5 -26.5905 8
      vertex 4 -26.5905 0
      vertex 26.5 -26.5905 0
    endloop
  endfacet
  facet normal 1 -0 0
    outer loop
      vertex -21.5 4 8
      vertex -21.5 21.5905 0
      vertex -21.5 21.5905 8
    endloop
  endfacet
  facet normal 1 -0 0
    outer loop
      vertex -21.5 0 4
      vertex -21.5 21.5905 0
      vertex -21.5 4 8
    endloop
  endfacet
  facet normal 1 0 0
    outer loop
      vertex -21.5 -21.5905 0
      vertex -21.5 -4 8
      vertex -21.5 -21.5905 8
    endloop
  endfacet
  facet normal 1 0 0
    outer loop
      vertex -21.5 -4 8
      vertex -21.5 -21.5905 0
      vertex -21.5 0 4
    endloop
  endfacet
  facet normal 1 0 0
    outer loop
      vertex -21.5 0 4
      vertex -21.5 -21.5905 0
      vertex -21.5 21.5905 0
    endloop
  endfacet
  facet normal -1 0 0
    outer loop
      vertex 21.5 21.5905 0
      vertex 21.5 4 8
      vertex 21.5 21.5905 8
    endloop
  endfacet
  facet normal -1 0 0
    outer loop
      vertex 21.5 21.5905 0
      vertex 21.5 0 4
      vertex 21.5 4 8
    endloop
  endfacet
  facet normal -1 0 0
    outer loop
      vertex 21.5 -21.5905 0
      vertex 21.5 0 4
      vertex 21.5 21.5905 0
    endloop
  endfacet
  facet normal -1 0 0
    outer loop
      vertex 21.5 -21.5905 0
      vertex 21.5 -4 8
      vertex 21.5 0 4
    endloop
  endfacet
  facet normal -1 -0 0
    outer loop
      vertex 21.5 -4 8
      vertex 21.5 -21.5905 0
      vertex 21.5 -21.5905 8
    endloop
  endfacet
  facet normal 0 -1 0
    outer loop
      vertex -21.5 21.5905 8
      vertex 0 21.5905 4
      vertex 21.5 21.5905 8
    endloop
  endfacet
  facet normal 0 -1 0
    outer loop
      vertex -4 21.5905 0
      vertex -21.5 21.5905 8
      vertex -21.5 21.5905 0
    endloop
  endfacet
  facet normal 0 -1 0
    outer loop
      vertex -21.5 21.5905 8
      vertex -4 21.5905 0
      vertex 0 21.5905 4
    endloop
  endfacet
  facet normal 0 -1 0
    outer loop
      vertex 4 21.5905 0
      vertex 21.5 21.5905 8
      vertex 0 21.5905 4
    endloop
  endfacet
  facet normal 0 -1 -0
    outer loop
      vertex 21.5 21.5905 8
      vertex 4 21.5905 0
      vertex 21.5 21.5905 0
    endloop
  endfacet
  facet normal 0 1 0
    outer loop
      vertex 21.5 -21.5905 8
      vertex 0 -21.5905 4
      vertex -21.5 -21.5905 8
    endloop
  endfacet
  facet normal 0 1 0
    outer loop
      vertex 4 -21.5905 0
      vertex 21.5 -21.5905 8
      vertex 21.5 -21.5905 0
    endloop
  endfacet
  facet normal 0 1 0
    outer loop
      vertex 21.5 -21.5905 8
      vertex 4 -21.5905 0
      vertex 0 -21.5905 4
    endloop
  endfacet
  facet normal 0 1 -0
    outer loop
      vertex -4 -21.5905 0
      vertex -21.5 -21.5905 8
      vertex 0 -21.5905 4
    endloop
  endfacet
  facet normal 0 1 0
    outer loop
      vertex -21.5 -21.5905 8
      vertex -4 -21.5905 0
      vertex -21.5 -21.5905 0
    endloop
  endfacet
  facet normal 0 -0.707107 0.707107
    outer loop
      vertex -26.5 0 4
      vertex -21.5 4 8
      vertex -26.5 4 8
    endloop
  endfacet
  facet normal 0 -0.707107 0.707107
    outer loop
      vertex -21.5 4 8
      vertex -26.5 0 4
      vertex -21.5 0 4
    endloop
  endfacet
  facet normal 0 -0.707107 0.707107
    outer loop
      vertex 21.5 0 4
      vertex 26.5 4 8
      vertex 21.5 4 8
    endloop
  endfacet
  facet normal 0 -0.707107 0.707107
    outer loop
      vertex 26.5 4 8
      vertex 21.5 0 4
      vertex 26.5 0 4
    endloop
  endfacet
  facet normal 0 0.707107 0.707107
    outer loop
      vertex -21.5 0 4
      vertex -26.5 -4 8
      vertex -21.5 -4 8
    endloop
  endfacet
  facet normal 0 0.707107 0.707107
    outer loop
      vertex -26.5 -4 8
      vertex -21.5 0 4
      vertex -26.5 0 4
    endloop
  endfacet
  facet normal 0 0.707107 0.707107
    outer loop
      vertex 26.5 0 4
      vertex 21.5 -4 8
      vertex 26.5 -4 8
    endloop
  endfacet
  facet normal 0 0.707107 0.707107
    outer loop
      vertex 21.5 -4 8
      vertex 26.5 0 4
      vertex 21.5 0 4
    endloop
  endfacet
  facet normal -0.707107 0 -0.707107
    outer loop
      vertex 4 -26.5905 0
      vertex 0 -21.5905 4
      vertex 4 -21.5905 0
    endloop
  endfacet
  facet normal -0.707107 -0 -0.707107
    outer loop
      vertex 0 -21.5905 4
      vertex 4 -26.5905 0
      vertex 0 -26.5905 4
    endloop
  endfacet
  facet normal 0.707107 0 -0.707107
    outer loop
      vertex 0 -26.5905 4
      vertex -4 -21.5905 0
      vertex 0 -21.5905 4
    endloop
  endfacet
  facet normal 0.707107 0 -0.707107
    outer loop
      vertex -4 -21.5905 0
      vertex 0 -26.5905 4
      vertex -4 -26.5905 0
    endloop
  endfacet
  facet normal -0.707107 0 -0.707107
    outer loop
      vertex 4 21.5905 0
      vertex 0 26.5905 4
      vertex 4 26.5905 0
    endloop
  endfacet
  facet normal -0.707107 -0 -0.707107
    outer loop
      vertex 0 26.5905 4
      vertex 4 21.5905 0
      vertex 0 21.5905 4
    endloop
  endfacet
  facet normal 0.707107 0 -0.707107
    outer loop
      vertex 0 21.5905 4
      vertex -4 26.5905 0
      vertex 0 26.5905 4
    endloop
  endfacet
  facet normal 0.707107 0 -0.707107
    outer loop
      vertex -4 26.5905 0
      vertex 0 21.5905 4
      vertex -4 21.5905 0
    endloop
  endfacet
endsolid OpenSCAD_Model
