solid model
  facet normal -1 0 0
    outer loop
      vertex 10 31.5 0
      vertex 10 31.5 20
      vertex 10 38.0079 10.2512
    endloop
  endfacet
  facet normal -1 -0 0
    outer loop
      vertex 10 31.5 0
      vertex 10 38.0079 10.2512
      vertex 10 38.0079 9.74884
    endloop
  endfacet
  facet normal -1 -0 0
    outer loop
      vertex 10 31.5 0
      vertex 10 38.0079 9.74884
      vertex 10 38.0709 9.25047
    endloop
  endfacet
  facet normal -1 -0 0
    outer loop
      vertex 10 31.5 0
      vertex 10 38.0709 9.25047
      vertex 10 38.1958 8.76393
    endloop
  endfacet
  facet normal -1 -0 0
    outer loop
      vertex 10 31.5 0
      vertex 10 38.1958 8.76393
      vertex 10 38.3807 8.29688
    endloop
  endfacet
  facet normal -1 -0 0
    outer loop
      vertex 10 31.5 0
      vertex 10 38.3807 8.29688
      vertex 10 38.6227 7.85669
    endloop
  endfacet
  facet normal -1 -0 0
    outer loop
      vertex 10 31.5 0
      vertex 10 38.6227 7.85669
      vertex 10 38.9179 7.4503
    endloop
  endfacet
  facet normal -1 -0 0
    outer loop
      vertex 10 31.5 0
      vertex 10 38.9179 7.4503
      vertex 10 39.2618 7.08412
    endloop
  endfacet
  facet normal -1 -0 0
    outer loop
      vertex 10 31.5 0
      vertex 10 39.2618 7.08412
      vertex 10 39.6489 6.76393
    endloop
  endfacet
  facet normal -1 0 0
    outer loop
      vertex 10 31.5 0
      vertex 10 39.6489 6.76393
      vertex 10 42 0
    endloop
  endfacet
  facet normal -0 0 -1
    outer loop
      vertex 10 31.5 0
      vertex 10 42 0
      vertex 30 42 0
    endloop
  endfacet
  facet normal 0 -1 0
    outer loop
      vertex 10 31.5 0
      vertex 16.7 31.5 10
      vertex 10 31.5 20
    endloop
  endfacet
  facet normal 0 -1 -0
    outer loop
      vertex 10 31.5 0
      vertex 16.726 31.5 9.5864
      vertex 16.7 31.5 10
    endloop
  endfacet
  facet normal 0 -1 -0
    outer loop
      vertex 10 31.5 0
      vertex 16.8037 31.5 9.17932
      vertex 16.726 31.5 9.5864
    endloop
  endfacet
  facet normal 0 -1 -0
    outer loop
      vertex 10 31.5 0
      vertex 16.9317 31.5 8.78519
      vertex 16.8037 31.5 9.17932
    endloop
  endfacet
  facet normal 0 -1 -0
    outer loop
      vertex 10 31.5 0
      vertex 17.1082 31.5 8.41021
      vertex 16.9317 31.5 8.78519
    endloop
  endfacet
  facet normal 0 -1 -0
    outer loop
      vertex 10 31.5 0
      vertex 17.3302 31.5 8.06031
      vertex 17.1082 31.5 8.41021
    endloop
  endfacet
  facet normal 0 -1 -0
    outer loop
      vertex 10 31.5 0
      vertex 17.5944 31.5 7.74099
      vertex 17.3302 31.5 8.06031
    endloop
  endfacet
  facet normal 0 -1 -0
    outer loop
      vertex 10 31.5 0
      vertex 17.8965 31.5 7.45731
      vertex 17.5944 31.5 7.74099
    endloop
  endfacet
  facet normal 0 -1 -0
    outer loop
      vertex 10 31.5 0
      vertex 18.2318 31.5 7.21372
      vertex 17.8965 31.5 7.45731
    endloop
  endfacet
  facet normal 0 -1 -0
    outer loop
      vertex 10 31.5 0
      vertex 18.5949 31.5 7.01407
      vertex 18.2318 31.5 7.21372
    endloop
  endfacet
  facet normal 0 -1 -0
    outer loop
      vertex 10 31.5 0
      vertex 18.9802 31.5 6.86151
      vertex 18.5949 31.5 7.01407
    endloop
  endfacet
  facet normal 0 -1 -0
    outer loop
      vertex 10 31.5 0
      vertex 19.3816 31.5 6.75845
      vertex 18.9802 31.5 6.86151
    endloop
  endfacet
  facet normal 0 -1 -0
    outer loop
      vertex 10 31.5 0
      vertex 19.7928 31.5 6.70651
      vertex 19.3816 31.5 6.75845
    endloop
  endfacet
  facet normal 0 -1 -0
    outer loop
      vertex 10 31.5 0
      vertex 20.2072 31.5 6.70651
      vertex 19.7928 31.5 6.70651
    endloop
  endfacet
  facet normal 0 -1 0
    outer loop
      vertex 10 31.5 0
      vertex 30 31.5 0
      vertex 20.2072 31.5 6.70651
    endloop
  endfacet
  facet normal 0 0 -1
    outer loop
      vertex 10 31.5 0
      vertex 30 42 0
      vertex 30 31.5 0
    endloop
  endfacet
  facet normal -1 0 0
    outer loop
      vertex 10 31.5 20
      vertex 10 38.0709 10.7495
      vertex 10 38.0079 10.2512
    endloop
  endfacet
  facet normal -1 0 0
    outer loop
      vertex 10 31.5 20
      vertex 10 38.1958 11.2361
      vertex 10 38.0709 10.7495
    endloop
  endfacet
  facet normal -1 0 0
    outer loop
      vertex 10 31.5 20
      vertex 10 38.3807 11.7031
      vertex 10 38.1958 11.2361
    endloop
  endfacet
  facet normal -1 0 0
    outer loop
      vertex 10 31.5 20
      vertex 10 38.6227 12.1433
      vertex 10 38.3807 11.7031
    endloop
  endfacet
  facet normal -1 0 0
    outer loop
      vertex 10 31.5 20
      vertex 10 38.9179 12.5497
      vertex 10 38.6227 12.1433
    endloop
  endfacet
  facet normal -1 0 0
    outer loop
      vertex 10 31.5 20
      vertex 10 39.2618 12.9159
      vertex 10 38.9179 12.5497
    endloop
  endfacet
  facet normal -1 0 0
    outer loop
      vertex 10 31.5 20
      vertex 10 39.6489 13.2361
      vertex 10 39.2618 12.9159
    endloop
  endfacet
  facet normal -1 0 0
    outer loop
      vertex 10 31.5 20
      vertex 10 42 20
      vertex 10 39.6489 13.2361
    endloop
  endfacet
  facet normal 0 -1 0
    outer loop
      vertex 10 31.5 20
      vertex 16.7 31.5 10
      vertex 16.726 31.5 10.4136
    endloop
  endfacet
  facet normal 0 -1 0
    outer loop
      vertex 10 31.5 20
      vertex 16.726 31.5 10.4136
      vertex 16.8037 31.5 10.8207
    endloop
  endfacet
  facet normal 0 -1 0
    outer loop
      vertex 10 31.5 20
      vertex 16.8037 31.5 10.8207
      vertex 16.9317 31.5 11.2148
    endloop
  endfacet
  facet normal 0 -1 0
    outer loop
      vertex 10 31.5 20
      vertex 16.9317 31.5 11.2148
      vertex 17.1082 31.5 11.5898
    endloop
  endfacet
  facet normal 0 -1 0
    outer loop
      vertex 10 31.5 20
      vertex 17.1082 31.5 11.5898
      vertex 17.3302 31.5 11.9397
    endloop
  endfacet
  facet normal 0 -1 0
    outer loop
      vertex 10 31.5 20
      vertex 17.3302 31.5 11.9397
      vertex 17.5944 31.5 12.259
    endloop
  endfacet
  facet normal 0 -1 0
    outer loop
      vertex 10 31.5 20
      vertex 17.5944 31.5 12.259
      vertex 17.8965 31.5 12.5427
    endloop
  endfacet
  facet normal 0 -1 0
    outer loop
      vertex 10 31.5 20
      vertex 17.8965 31.5 12.5427
      vertex 18.2318 31.5 12.7863
    endloop
  endfacet
  facet normal 0 -1 0
    outer loop
      vertex 10 31.5 20
      vertex 18.2318 31.5 12.7863
      vertex 18.5949 31.5 12.9859
    endloop
  endfacet
  facet normal 0 -1 0
    outer loop
      vertex 10 31.5 20
      vertex 18.5949 31.5 12.9859
      vertex 18.9802 31.5 13.1385
    endloop
  endfacet
  facet normal 0 -1 0
    outer loop
      vertex 10 31.5 20
      vertex 18.9802 31.5 13.1385
      vertex 19.3816 31.5 13.2415
    endloop
  endfacet
  facet normal 0 -1 0
    outer loop
      vertex 10 31.5 20
      vertex 19.3816 31.5 13.2415
      vertex 19.7928 31.5 13.2935
    endloop
  endfacet
  facet normal 0 -1 0
    outer loop
      vertex 10 31.5 20
      vertex 19.7928 31.5 13.2935
      vertex 30 31.5 20
    endloop
  endfacet
  facet normal 0 0 1
    outer loop
      vertex 10 31.5 20
      vertex 30 31.5 20
      vertex 10 42 20
    endloop
  endfacet
  facet normal 0 0.992115 -0.125333
    outer loop
      vertex 10 38.0079 10.2512
      vertex 10 38.0709 10.7495
      vertex 18.4223 38.0079 10.2512
    endloop
  endfacet
  facet normal 0 1 -0
    outer loop
      vertex 10 38.0079 10.2512
      vertex 18.4096 38.0079 10.1524
      vertex 18.4 38.0079 10
    endloop
  endfacet
  facet normal 0 1 -0
    outer loop
      vertex 10 38.0079 10.2512
      vertex 18.4126 38.0079 10.2005
      vertex 18.4096 38.0079 10.1524
    endloop
  endfacet
  facet normal 0 1 -0
    outer loop
      vertex 10 38.0079 10.2512
      vertex 18.4223 38.0079 10.2512
      vertex 18.4126 38.0079 10.2005
    endloop
  endfacet
  facet normal 0 1 0
    outer loop
      vertex 10 38.0079 9.74884
      vertex 10 38.0079 10.2512
      vertex 18.4 38.0079 10
    endloop
  endfacet
  facet normal 0 1 0
    outer loop
      vertex 10 38.0079 9.74884
      vertex 18.4 38.0079 10
      vertex 18.403 38.0079 9.9519
    endloop
  endfacet
  facet normal 0 1 0
    outer loop
      vertex 10 38.0079 9.74884
      vertex 18.403 38.0079 9.9519
      vertex 18.4126 38.0079 9.79947
    endloop
  endfacet
  facet normal 0 1 0
    outer loop
      vertex 10 38.0079 9.74884
      vertex 18.4126 38.0079 9.79947
      vertex 18.4223 38.0079 9.74884
    endloop
  endfacet
  facet normal 0 0.992115 0.125333
    outer loop
      vertex 10 38.0079 9.74884
      vertex 18.4223 38.0079 9.74884
      vertex 10 38.0709 9.25047
    endloop
  endfacet
  facet normal 0 0.968583 -0.248691
    outer loop
      vertex 10 38.0709 10.7495
      vertex 10 38.1958 11.2361
      vertex 18.5879 38.0709 10.7495
    endloop
  endfacet
  facet normal -6.62571e-07 0.992113 -0.125344
    outer loop
      vertex 10 38.0709 10.7495
      vertex 18.4503 38.0264 10.3979
      vertex 18.4223 38.0079 10.2512
    endloop
  endfacet
  facet normal 1.2168e-07 0.992116 -0.125325
    outer loop
      vertex 10 38.0709 10.7495
      vertex 18.5124 38.0506 10.589
      vertex 18.4503 38.0264 10.3979
    endloop
  endfacet
  facet normal 0 0.992115 -0.125332
    outer loop
      vertex 10 38.0709 10.7495
      vertex 18.5879 38.0709 10.7495
      vertex 18.5124 38.0506 10.589
    endloop
  endfacet
  facet normal -6.62571e-07 0.992113 0.125344
    outer loop
      vertex 10 38.0709 9.25047
      vertex 18.4223 38.0079 9.74884
      vertex 18.4503 38.0264 9.6021
    endloop
  endfacet
  facet normal 1.2168e-07 0.992116 0.125325
    outer loop
      vertex 10 38.0709 9.25047
      vertex 18.4503 38.0264 9.6021
      vertex 18.5124 38.0506 9.411
    endloop
  endfacet
  facet normal -0 0.992115 0.125332
    outer loop
      vertex 10 38.0709 9.25047
      vertex 18.5124 38.0506 9.411
      vertex 18.5879 38.0709 9.25047
    endloop
  endfacet
  facet normal 0 0.968583 0.248691
    outer loop
      vertex 10 38.0709 9.25047
      vertex 18.5879 38.0709 9.25047
      vertex 10 38.1958 8.76393
    endloop
  endfacet
  facet normal 0 0.929777 -0.368124
    outer loop
      vertex 10 38.1958 11.2361
      vertex 10 38.3807 11.7031
      vertex 18.9846 38.1958 11.2361
    endloop
  endfacet
  facet normal 3.10648e-06 0.968596 -0.24864
    outer loop
      vertex 10 38.1958 11.2361
      vertex 18.5979 38.0763 10.7708
      vertex 18.5879 38.0709 10.7495
    endloop
  endfacet
  facet normal -9.74495e-08 0.968582 -0.248695
    outer loop
      vertex 10 38.1958 11.2361
      vertex 18.7056 38.1199 10.9405
      vertex 18.5979 38.0763 10.7708
    endloop
  endfacet
  facet normal 4.10092e-07 0.968585 -0.248681
    outer loop
      vertex 10 38.1958 11.2361
      vertex 18.8336 38.1596 11.0953
      vertex 18.7056 38.1199 10.9405
    endloop
  endfacet
  facet normal 1.7744e-07 0.968582 -0.248695
    outer loop
      vertex 10 38.1958 11.2361
      vertex 18.9801 38.1949 11.2328
      vertex 18.8336 38.1596 11.0953
    endloop
  endfacet
  facet normal 0 0.968464 -0.249155
    outer loop
      vertex 10 38.1958 11.2361
      vertex 18.9846 38.1958 11.2361
      vertex 18.9801 38.1949 11.2328
    endloop
  endfacet
  facet normal 3.10648e-06 0.968596 0.24864
    outer loop
      vertex 10 38.1958 8.76393
      vertex 18.5879 38.0709 9.25047
      vertex 18.5979 38.0763 9.22919
    endloop
  endfacet
  facet normal -9.74495e-08 0.968582 0.248695
    outer loop
      vertex 10 38.1958 8.76393
      vertex 18.5979 38.0763 9.22919
      vertex 18.7056 38.1199 9.05954
    endloop
  endfacet
  facet normal 4.10092e-07 0.968585 0.248681
    outer loop
      vertex 10 38.1958 8.76393
      vertex 18.7056 38.1199 9.05954
      vertex 18.8336 38.1596 8.90472
    endloop
  endfacet
  facet normal 1.7744e-07 0.968582 0.248695
    outer loop
      vertex 10 38.1958 8.76393
      vertex 18.8336 38.1596 8.90472
      vertex 18.9801 38.1949 8.76718
    endloop
  endfacet
  facet normal -0 0.968464 0.249155
    outer loop
      vertex 10 38.1958 8.76393
      vertex 18.9801 38.1949 8.76718
      vertex 18.9846 38.1958 8.76393
    endloop
  endfacet
  facet normal 0 0.929777 0.368124
    outer loop
      vertex 10 38.1958 8.76393
      vertex 18.9846 38.1958 8.76393
      vertex 10 38.3807 8.29688
    endloop
  endfacet
  facet normal 0 0.876307 -0.481754
    outer loop
      vertex 10 38.3807 11.7031
      vertex 10 38.6227 12.1433
      vertex 30 38.3807 11.7031
    endloop
  endfacet
  facet normal -2.37252e-08 0.929776 -0.368125
    outer loop
      vertex 10 38.3807 11.7031
      vertex 19.1427 38.2412 11.3509
      vertex 18.9846 38.1958 11.2361
    endloop
  endfacet
  facet normal -4.50402e-07 0.929773 -0.368134
    outer loop
      vertex 10 38.3807 11.7031
      vertex 19.3188 38.2796 11.4477
      vertex 19.1427 38.2412 11.3509
    endloop
  endfacet
  facet normal 4.05121e-08 0.929779 -0.368119
    outer loop
      vertex 10 38.3807 11.7031
      vertex 19.5056 38.3089 11.5217
      vertex 19.3188 38.2796 11.4477
    endloop
  endfacet
  facet normal 2.46758e-07 0.929782 -0.368109
    outer loop
      vertex 10 38.3807 11.7031
      vertex 19.7002 38.3286 11.5717
      vertex 19.5056 38.3089 11.5217
    endloop
  endfacet
  facet normal -4.76927e-07 0.929764 -0.368156
    outer loop
      vertex 10 38.3807 11.7031
      vertex 19.8995 38.3386 11.5968
      vertex 19.7002 38.3286 11.5717
    endloop
  endfacet
  facet normal 0 0.929779 -0.368117
    outer loop
      vertex 10 38.3807 11.7031
      vertex 20.1005 38.3386 11.5968
      vertex 19.8995 38.3386 11.5968
    endloop
  endfacet
  facet normal 0 0.929779 -0.368117
    outer loop
      vertex 10 38.3807 11.7031
      vertex 30 38.3807 11.7031
      vertex 20.1005 38.3386 11.5968
    endloop
  endfacet
  facet normal -2.37252e-08 0.929776 0.368125
    outer loop
      vertex 10 38.3807 8.29688
      vertex 18.9846 38.1958 8.76393
      vertex 19.1427 38.2412 8.64907
    endloop
  endfacet
  facet normal -4.50402e-07 0.929773 0.368134
    outer loop
      vertex 10 38.3807 8.29688
      vertex 19.1427 38.2412 8.64907
      vertex 19.3188 38.2796 8.55228
    endloop
  endfacet
  facet normal 4.05121e-08 0.929779 0.368119
    outer loop
      vertex 10 38.3807 8.29688
      vertex 19.3188 38.2796 8.55228
      vertex 19.5056 38.3089 8.47831
    endloop
  endfacet
  facet normal 2.46758e-07 0.929782 0.368109
    outer loop
      vertex 10 38.3807 8.29688
      vertex 19.5056 38.3089 8.47831
      vertex 19.7002 38.3286 8.42834
    endloop
  endfacet
  facet normal -4.76927e-07 0.929764 0.368156
    outer loop
      vertex 10 38.3807 8.29688
      vertex 19.7002 38.3286 8.42834
      vertex 19.8995 38.3386 8.40316
    endloop
  endfacet
  facet normal -0 0.929779 0.368117
    outer loop
      vertex 10 38.3807 8.29688
      vertex 19.8995 38.3386 8.40316
      vertex 30 38.3807 8.29688
    endloop
  endfacet
  facet normal 0 0.876307 0.481754
    outer loop
      vertex 10 38.3807 8.29688
      vertex 30 38.3807 8.29688
      vertex 30 38.6227 7.85669
    endloop
  endfacet
  facet normal 0 0.876307 0.481754
    outer loop
      vertex 10 38.3807 8.29688
      vertex 30 38.6227 7.85669
      vertex 10 38.6227 7.85669
    endloop
  endfacet
  facet normal 0 0.809018 -0.587784
    outer loop
      vertex 10 38.6227 12.1433
      vertex 10 38.9179 12.5497
      vertex 30 38.6227 12.1433
    endloop
  endfacet
  facet normal 0 0.876307 -0.481754
    outer loop
      vertex 10 38.6227 12.1433
      vertex 30 38.6227 12.1433
      vertex 30 38.3807 11.7031
    endloop
  endfacet
  facet normal 0 0.809018 0.587784
    outer loop
      vertex 10 38.6227 7.85669
      vertex 30 38.6227 7.85669
      vertex 30 38.9179 7.4503
    endloop
  endfacet
  facet normal 0 0.809018 0.587784
    outer loop
      vertex 10 38.6227 7.85669
      vertex 30 38.9179 7.4503
      vertex 10 38.9179 7.4503
    endloop
  endfacet
  facet normal 0 0.72897 -0.684546
    outer loop
      vertex 10 38.9179 12.5497
      vertex 10 39.2618 12.9159
      vertex 30 38.9179 12.5497
    endloop
  endfacet
  facet normal 0 0.809018 -0.587784
    outer loop
      vertex 10 38.9179 12.5497
      vertex 30 38.9179 12.5497
      vertex 30 38.6227 12.1433
    endloop
  endfacet
  facet normal 0 0.72897 0.684546
    outer loop
      vertex 10 38.9179 7.4503
      vertex 30 38.9179 7.4503
      vertex 30 39.2618 7.08412
    endloop
  endfacet
  facet normal 0 0.72897 0.684546
    outer loop
      vertex 10 38.9179 7.4503
      vertex 30 39.2618 7.08412
      vertex 10 39.2618 7.08412
    endloop
  endfacet
  facet normal 0 0.637424 -0.770513
    outer loop
      vertex 10 39.2618 12.9159
      vertex 10 39.6489 13.2361
      vertex 30 39.6489 13.2361
    endloop
  endfacet
  facet normal 0 0.72897 -0.684546
    outer loop
      vertex 10 39.2618 12.9159
      vertex 30 39.2618 12.9159
      vertex 30 38.9179 12.5497
    endloop
  endfacet
  facet normal 0 0.637424 -0.770513
    outer loop
      vertex 10 39.2618 12.9159
      vertex 30 39.6489 13.2361
      vertex 30 39.2618 12.9159
    endloop
  endfacet
  facet normal 0 0.637424 0.770513
    outer loop
      vertex 10 39.2618 7.08412
      vertex 30 39.2618 7.08412
      vertex 10 39.6489 6.76393
    endloop
  endfacet
  facet normal 0 0.535827 -0.844328
    outer loop
      vertex 10 39.6489 13.2361
      vertex 10 40.073 13.5052
      vertex 30 40.073 13.5052
    endloop
  endfacet
  facet normal -1 0 0
    outer loop
      vertex 10 39.6489 13.2361
      vertex 10 42 20
      vertex 10 40.073 13.5052
    endloop
  endfacet
  facet normal 0 0.535827 -0.844328
    outer loop
      vertex 10 39.6489 13.2361
      vertex 30 40.073 13.5052
      vertex 30 39.6489 13.2361
    endloop
  endfacet
  facet normal -1 0 0
    outer loop
      vertex 10 39.6489 6.76393
      vertex 10 40.073 6.49477
      vertex 10 42 0
    endloop
  endfacet
  facet normal -0 0.637424 0.770513
    outer loop
      vertex 10 39.6489 6.76393
      vertex 30 39.2618 7.08412
      vertex 30 39.6489 6.76393
    endloop
  endfacet
  facet normal 0 0.535827 0.844328
    outer loop
      vertex 10 39.6489 6.76393
      vertex 30 39.6489 6.76393
      vertex 10 40.073 6.49477
    endloop
  endfacet
  facet normal 0 0.425779 -0.904827
    outer loop
      vertex 10 40.073 13.5052
      vertex 10 40.5275 13.7191
      vertex 30 40.5275 13.7191
    endloop
  endfacet
  facet normal -1 0 0
    outer loop
      vertex 10 40.073 13.5052
      vertex 10 42 20
      vertex 10 40.5275 13.7191
    endloop
  endfacet
  facet normal 0 0.425779 -0.904827
    outer loop
      vertex 10 40.073 13.5052
      vertex 30 40.5275 13.7191
      vertex 30 40.073 13.5052
    endloop
  endfacet
  facet normal -1 0 0
    outer loop
      vertex 10 40.073 6.49477
      vertex 10 40.5275 6.28089
      vertex 10 42 0
    endloop
  endfacet
  facet normal -0 0.535827 0.844328
    outer loop
      vertex 10 40.073 6.49477
      vertex 30 39.6489 6.76393
      vertex 30 40.073 6.49477
    endloop
  endfacet
  facet normal 0 0.425779 0.904827
    outer loop
      vertex 10 40.073 6.49477
      vertex 30 40.073 6.49477
      vertex 10 40.5275 6.28089
    endloop
  endfacet
  facet normal 0 0.309015 -0.951057
    outer loop
      vertex 10 40.5275 13.7191
      vertex 10 41.0052 13.8743
      vertex 30 41.0052 13.8743
    endloop
  endfacet
  facet normal -1 0 0
    outer loop
      vertex 10 40.5275 13.7191
      vertex 10 42 20
      vertex 10 41.0052 13.8743
    endloop
  endfacet
  facet normal 0 0.309015 -0.951057
    outer loop
      vertex 10 40.5275 13.7191
      vertex 30 41.0052 13.8743
      vertex 30 40.5275 13.7191
    endloop
  endfacet
  facet normal -1 0 0
    outer loop
      vertex 10 40.5275 6.28089
      vertex 10 41.0052 6.12567
      vertex 10 42 0
    endloop
  endfacet
  facet normal -0 0.425779 0.904827
    outer loop
      vertex 10 40.5275 6.28089
      vertex 30 40.073 6.49477
      vertex 30 40.5275 6.28089
    endloop
  endfacet
  facet normal 0 0.309015 0.951057
    outer loop
      vertex 10 40.5275 6.28089
      vertex 30 40.5275 6.28089
      vertex 10 41.0052 6.12567
    endloop
  endfacet
  facet normal 0 0.187382 -0.982287
    outer loop
      vertex 10 41.0052 13.8743
      vertex 10 41.4987 13.9685
      vertex 30 41.4987 13.9685
    endloop
  endfacet
  facet normal -1 0 0
    outer loop
      vertex 10 41.0052 13.8743
      vertex 10 42 20
      vertex 10 41.4987 13.9685
    endloop
  endfacet
  facet normal 0 0.187382 -0.982287
    outer loop
      vertex 10 41.0052 13.8743
      vertex 30 41.4987 13.9685
      vertex 30 41.0052 13.8743
    endloop
  endfacet
  facet normal -1 0 0
    outer loop
      vertex 10 41.0052 6.12567
      vertex 10 41.4987 6.03154
      vertex 10 42 0
    endloop
  endfacet
  facet normal -0 0.309015 0.951057
    outer loop
      vertex 10 41.0052 6.12567
      vertex 30 40.5275 6.28089
      vertex 30 41.0052 6.12567
    endloop
  endfacet
  facet normal 0 0.187382 0.982287
    outer loop
      vertex 10 41.0052 6.12567
      vertex 30 41.0052 6.12567
      vertex 10 41.4987 6.03154
    endloop
  endfacet
  facet normal 0 0.0627915 -0.998027
    outer loop
      vertex 10 41.4987 13.9685
      vertex 10 42 14
      vertex 30 42 14
    endloop
  endfacet
  facet normal -1 0 0
    outer loop
      vertex 10 41.4987 13.9685
      vertex 10 42 20
      vertex 10 42 14
    endloop
  endfacet
  facet normal 0 0.0627915 -0.998027
    outer loop
      vertex 10 41.4987 13.9685
      vertex 30 42 14
      vertex 30 41.4987 13.9685
    endloop
  endfacet
  facet normal -1 0 0
    outer loop
      vertex 10 41.4987 6.03154
      vertex 10 42 6
      vertex 10 42 0
    endloop
  endfacet
  facet normal -0 0.187382 0.982287
    outer loop
      vertex 10 41.4987 6.03154
      vertex 30 41.0052 6.12567
      vertex 30 41.4987 6.03154
    endloop
  endfacet
  facet normal 0 0.0627896 0.998027
    outer loop
      vertex 10 41.4987 6.03154
      vertex 30 41.4987 6.03154
      vertex 10 42 6
    endloop
  endfacet
  facet normal 0 1 0
    outer loop
      vertex 10 42 0
      vertex 10 42 6
      vertex 30 42 0
    endloop
  endfacet
  facet normal 0 1 0
    outer loop
      vertex 10 42 14
      vertex 10 42 20
      vertex 30 42 14
    endloop
  endfacet
  facet normal -0 0 1
    outer loop
      vertex 10 42 20
      vertex 30 31.5 20
      vertex 30 42 20
    endloop
  endfacet
  facet normal 0 1 -0
    outer loop
      vertex 10 42 20
      vertex 30 42 20
      vertex 30 42 14
    endloop
  endfacet
  facet normal -0 0.0627896 0.998027
    outer loop
      vertex 10 42 6
      vertex 30 41.4987 6.03154
      vertex 30 42 6
    endloop
  endfacet
  facet normal 0 1 -0
    outer loop
      vertex 10 42 6
      vertex 30 42 6
      vertex 30 42 0
    endloop
  endfacet
  facet normal 0.998027 0 -0.062787
    outer loop
      vertex 16.7 31.5 10
      vertex 16.7 34.5 10
      vertex 16.726 31.5 10.4136
    endloop
  endfacet
  facet normal 0.998027 0 0.0627872
    outer loop
      vertex 16.7 31.5 10
      vertex 16.726 31.5 9.5864
      vertex 16.726 34.5 9.5864
    endloop
  endfacet
  facet normal 0.998027 -0 0.0627872
    outer loop
      vertex 16.7 31.5 10
      vertex 16.726 34.5 9.5864
      vertex 16.7 34.5 10
    endloop
  endfacet
  facet normal 0.998027 0 -0.062787
    outer loop
      vertex 16.7 34.5 10
      vertex 16.726 34.5 10.4136
      vertex 16.726 31.5 10.4136
    endloop
  endfacet
  facet normal 0 -1 0
    outer loop
      vertex 16.7 34.5 10
      vertex 16.726 34.5 9.5864
      vertex 18.4039 34.5 9.93783
    endloop
  endfacet
  facet normal 0 -1 0
    outer loop
      vertex 16.7 34.5 10
      vertex 18.4 34.5 10
      vertex 18.4087 34.5 10.1384
    endloop
  endfacet
  facet normal 0 -1 0
    outer loop
      vertex 16.7 34.5 10
      vertex 18.4039 34.5 9.93783
      vertex 18.4 34.5 10
    endloop
  endfacet
  facet normal 0 -1 0
    outer loop
      vertex 16.7 34.5 10
      vertex 18.4087 34.5 10.1384
      vertex 16.726 34.5 10.4136
    endloop
  endfacet
  facet normal 0.982287 0 -0.187381
    outer loop
      vertex 16.726 31.5 10.4136
      vertex 16.726 34.5 10.4136
      vertex 16.8037 31.5 10.8207
    endloop
  endfacet
  facet normal 0.982287 0 0.187381
    outer loop
      vertex 16.726 31.5 9.5864
      vertex 16.8037 31.5 9.17932
      vertex 16.8037 34.5 9.17932
    endloop
  endfacet
  facet normal 0.982287 -0 0.187381
    outer loop
      vertex 16.726 31.5 9.5864
      vertex 16.8037 34.5 9.17932
      vertex 16.726 34.5 9.5864
    endloop
  endfacet
  facet normal 0.982287 0 -0.187381
    outer loop
      vertex 16.726 34.5 10.4136
      vertex 16.8037 34.5 10.8207
      vertex 16.8037 31.5 10.8207
    endloop
  endfacet
  facet normal 0 -1 0
    outer loop
      vertex 16.726 34.5 10.4136
      vertex 18.4087 34.5 10.1384
      vertex 18.4126 34.5 10.2005
    endloop
  endfacet
  facet normal 0 -1 0
    outer loop
      vertex 16.726 34.5 10.4136
      vertex 18.4126 34.5 10.2005
      vertex 18.4503 34.5 10.3979
    endloop
  endfacet
  facet normal 0 -1 0
    outer loop
      vertex 16.726 34.5 10.4136
      vertex 18.4503 34.5 10.3979
      vertex 16.8037 34.5 10.8207
    endloop
  endfacet
  facet normal 0 -1 0
    outer loop
      vertex 16.726 34.5 9.5864
      vertex 16.8037 34.5 9.17932
      vertex 18.4503 34.5 9.6021
    endloop
  endfacet
  facet normal 0 -1 -0
    outer loop
      vertex 16.726 34.5 9.5864
      vertex 18.4126 34.5 9.79947
      vertex 18.4039 34.5 9.93783
    endloop
  endfacet
  facet normal 0 -1 -0
    outer loop
      vertex 16.726 34.5 9.5864
      vertex 18.4503 34.5 9.6021
      vertex 18.4126 34.5 9.79947
    endloop
  endfacet
  facet normal 0.951057 0 -0.309015
    outer loop
      vertex 16.8037 31.5 10.8207
      vertex 16.8037 34.5 10.8207
      vertex 16.9317 31.5 11.2148
    endloop
  endfacet
  facet normal 0.951057 0 0.309015
    outer loop
      vertex 16.8037 31.5 9.17932
      vertex 16.9317 31.5 8.78519
      vertex 16.9317 34.5 8.78519
    endloop
  endfacet
  facet normal 0.951057 -0 0.309015
    outer loop
      vertex 16.8037 31.5 9.17932
      vertex 16.9317 34.5 8.78519
      vertex 16.8037 34.5 9.17932
    endloop
  endfacet
  facet normal 0.951057 0 -0.309015
    outer loop
      vertex 16.8037 34.5 10.8207
      vertex 16.9317 34.5 11.2148
      vertex 16.9317 31.5 11.2148
    endloop
  endfacet
  facet normal 0 -1 0
    outer loop
      vertex 16.8037 34.5 10.8207
      vertex 18.4503 34.5 10.3979
      vertex 18.5124 34.5 10.589
    endloop
  endfacet
  facet normal 0 -1 0
    outer loop
      vertex 16.8037 34.5 10.8207
      vertex 18.5124 34.5 10.589
      vertex 16.9317 34.5 11.2148
    endloop
  endfacet
  facet normal 0 -1 0
    outer loop
      vertex 16.8037 34.5 9.17932
      vertex 16.9317 34.5 8.78519
      vertex 18.5124 34.5 9.411
    endloop
  endfacet
  facet normal 0 -1 -0
    outer loop
      vertex 16.8037 34.5 9.17932
      vertex 18.5124 34.5 9.411
      vertex 18.4503 34.5 9.6021
    endloop
  endfacet
  facet normal 0.904825 0 -0.425784
    outer loop
      vertex 16.9317 31.5 11.2148
      vertex 16.9317 34.5 11.2148
      vertex 17.1082 31.5 11.5898
    endloop
  endfacet
  facet normal 0.904825 0 0.425784
    outer loop
      vertex 16.9317 31.5 8.78519
      vertex 17.1082 31.5 8.41021
      vertex 17.1082 34.5 8.41021
    endloop
  endfacet
  facet normal 0.904825 -0 0.425784
    outer loop
      vertex 16.9317 31.5 8.78519
      vertex 17.1082 34.5 8.41021
      vertex 16.9317 34.5 8.78519
    endloop
  endfacet
  facet normal 0.904825 0 -0.425784
    outer loop
      vertex 16.9317 34.5 11.2148
      vertex 17.1082 34.5 11.5898
      vertex 17.1082 31.5 11.5898
    endloop
  endfacet
  facet normal 0 -1 0
    outer loop
      vertex 16.9317 34.5 11.2148
      vertex 18.5124 34.5 10.589
      vertex 18.5979 34.5 10.7708
    endloop
  endfacet
  facet normal 0 -1 0
    outer loop
      vertex 16.9317 34.5 11.2148
      vertex 18.5979 34.5 10.7708
      vertex 17.1082 34.5 11.5898
    endloop
  endfacet
  facet normal 0 -1 0
    outer loop
      vertex 16.9317 34.5 8.78519
      vertex 17.1082 34.5 8.41021
      vertex 18.5979 34.5 9.22919
    endloop
  endfacet
  facet normal 0 -1 -0
    outer loop
      vertex 16.9317 34.5 8.78519
      vertex 18.5979 34.5 9.22919
      vertex 18.5124 34.5 9.411
    endloop
  endfacet
  facet normal 0.84433 0 -0.535823
    outer loop
      vertex 17.1082 31.5 11.5898
      vertex 17.1082 34.5 11.5898
      vertex 17.3302 31.5 11.9397
    endloop
  endfacet
  facet normal 0.84433 0 0.535823
    outer loop
      vertex 17.1082 31.5 8.41021
      vertex 17.3302 31.5 8.06031
      vertex 17.3302 34.5 8.06031
    endloop
  endfacet
  facet normal 0.84433 -0 0.535823
    outer loop
      vertex 17.1082 31.5 8.41021
      vertex 17.3302 34.5 8.06031
      vertex 17.1082 34.5 8.41021
    endloop
  endfacet
  facet normal 0.84433 0 -0.535823
    outer loop
      vertex 17.1082 34.5 11.5898
      vertex 17.3302 34.5 11.9397
      vertex 17.3302 31.5 11.9397
    endloop
  endfacet
  facet normal 0 -1 0
    outer loop
      vertex 17.1082 34.5 11.5898
      vertex 18.5979 34.5 10.7708
      vertex 18.7056 34.5 10.9405
    endloop
  endfacet
  facet normal 0 -1 0
    outer loop
      vertex 17.1082 34.5 11.5898
      vertex 18.7056 34.5 10.9405
      vertex 17.3302 34.5 11.9397
    endloop
  endfacet
  facet normal 0 -1 0
    outer loop
      vertex 17.1082 34.5 8.41021
      vertex 17.3302 34.5 8.06031
      vertex 18.7056 34.5 9.05954
    endloop
  endfacet
  facet normal 0 -1 -0
    outer loop
      vertex 17.1082 34.5 8.41021
      vertex 18.7056 34.5 9.05954
      vertex 18.5979 34.5 9.22919
    endloop
  endfacet
  facet normal 0.770512 0 -0.637425
    outer loop
      vertex 17.3302 31.5 11.9397
      vertex 17.3302 34.5 11.9397
      vertex 17.5944 31.5 12.259
    endloop
  endfacet
  facet normal 0.770512 0 0.637425
    outer loop
      vertex 17.3302 31.5 8.06031
      vertex 17.5944 31.5 7.74099
      vertex 17.5944 34.5 7.74099
    endloop
  endfacet
  facet normal 0.770512 -0 0.637425
    outer loop
      vertex 17.3302 31.5 8.06031
      vertex 17.5944 34.5 7.74099
      vertex 17.3302 34.5 8.06031
    endloop
  endfacet
  facet normal 0.770512 0 -0.637425
    outer loop
      vertex 17.3302 34.5 11.9397
      vertex 17.5944 34.5 12.259
      vertex 17.5944 31.5 12.259
    endloop
  endfacet
  facet normal 0 -1 0
    outer loop
      vertex 17.3302 34.5 11.9397
      vertex 18.7056 34.5 10.9405
      vertex 18.8336 34.5 11.0953
    endloop
  endfacet
  facet normal 0 -1 0
    outer loop
      vertex 17.3302 34.5 11.9397
      vertex 18.8336 34.5 11.0953
      vertex 17.5944 34.5 12.259
    endloop
  endfacet
  facet normal 0 -1 0
    outer loop
      vertex 17.3302 34.5 8.06031
      vertex 17.5944 34.5 7.74099
      vertex 18.8336 34.5 8.90472
    endloop
  endfacet
  facet normal 0 -1 -0
    outer loop
      vertex 17.3302 34.5 8.06031
      vertex 18.8336 34.5 8.90472
      vertex 18.7056 34.5 9.05954
    endloop
  endfacet
  facet normal 0.684547 0 -0.728968
    outer loop
      vertex 17.5944 31.5 12.259
      vertex 17.5944 34.5 12.259
      vertex 17.8965 34.5 12.5427
    endloop
  endfacet
  facet normal 0.684547 0 -0.728968
    outer loop
      vertex 17.5944 31.5 12.259
      vertex 17.8965 34.5 12.5427
      vertex 17.8965 31.5 12.5427
    endloop
  endfacet
  facet normal 0.684547 0 0.728968
    outer loop
      vertex 17.5944 31.5 7.74099
      vertex 17.8965 31.5 7.45731
      vertex 17.5944 34.5 7.74099
    endloop
  endfacet
  facet normal 0 -1 0
    outer loop
      vertex 17.5944 34.5 12.259
      vertex 18.8336 34.5 11.0953
      vertex 18.9801 34.5 11.2328
    endloop
  endfacet
  facet normal 0 -1 0
    outer loop
      vertex 17.5944 34.5 12.259
      vertex 18.9801 34.5 11.2328
      vertex 17.8965 34.5 12.5427
    endloop
  endfacet
  facet normal 0.684547 0 0.728968
    outer loop
      vertex 17.5944 34.5 7.74099
      vertex 17.8965 31.5 7.45731
      vertex 17.8965 34.5 7.45731
    endloop
  endfacet
  facet normal 0 -1 0
    outer loop
      vertex 17.5944 34.5 7.74099
      vertex 17.8965 34.5 7.45731
      vertex 18.9801 34.5 8.76718
    endloop
  endfacet
  facet normal 0 -1 -0
    outer loop
      vertex 17.5944 34.5 7.74099
      vertex 18.9801 34.5 8.76718
      vertex 18.8336 34.5 8.90472
    endloop
  endfacet
  facet normal 0.587784 0 -0.809018
    outer loop
      vertex 17.8965 31.5 12.5427
      vertex 17.8965 34.5 12.5427
      vertex 18.2318 34.5 12.7863
    endloop
  endfacet
  facet normal 0.587784 0 -0.809018
    outer loop
      vertex 17.8965 31.5 12.5427
      vertex 18.2318 34.5 12.7863
      vertex 18.2318 31.5 12.7863
    endloop
  endfacet
  facet normal 0.587784 0 0.809018
    outer loop
      vertex 17.8965 31.5 7.45731
      vertex 18.2318 31.5 7.21372
      vertex 17.8965 34.5 7.45731
    endloop
  endfacet
  facet normal 0 -1 0
    outer loop
      vertex 17.8965 34.5 12.5427
      vertex 18.9801 34.5 11.2328
      vertex 19.1427 34.5 11.3509
    endloop
  endfacet
  facet normal 0 -1 0
    outer loop
      vertex 17.8965 34.5 12.5427
      vertex 19.1427 34.5 11.3509
      vertex 18.2318 34.5 12.7863
    endloop
  endfacet
  facet normal 0.587784 0 0.809018
    outer loop
      vertex 17.8965 34.5 7.45731
      vertex 18.2318 31.5 7.21372
      vertex 18.2318 34.5 7.21372
    endloop
  endfacet
  facet normal 0 -1 0
    outer loop
      vertex 17.8965 34.5 7.45731
      vertex 18.2318 34.5 7.21372
      vertex 19.1427 34.5 8.64907
    endloop
  endfacet
  facet normal 0 -1 -0
    outer loop
      vertex 17.8965 34.5 7.45731
      vertex 19.1427 34.5 8.64907
      vertex 18.9801 34.5 8.76718
    endloop
  endfacet
  facet normal 0.481753 0 -0.876307
    outer loop
      vertex 18.2318 31.5 12.7863
      vertex 18.2318 34.5 12.7863
      vertex 18.5949 34.5 12.9859
    endloop
  endfacet
  facet normal 0.481753 0 -0.876307
    outer loop
      vertex 18.2318 31.5 12.7863
      vertex 18.5949 34.5 12.9859
      vertex 18.5949 31.5 12.9859
    endloop
  endfacet
  facet normal 0.481753 0 0.876307
    outer loop
      vertex 18.2318 31.5 7.21372
      vertex 18.5949 31.5 7.01407
      vertex 18.2318 34.5 7.21372
    endloop
  endfacet
  facet normal 0 -1 0
    outer loop
      vertex 18.2318 34.5 12.7863
      vertex 19.1427 34.5 11.3509
      vertex 19.3188 34.5 11.4477
    endloop
  endfacet
  facet normal 0 -1 0
    outer loop
      vertex 18.2318 34.5 12.7863
      vertex 19.3188 34.5 11.4477
      vertex 18.5949 34.5 12.9859
    endloop
  endfacet
  facet normal 0.481753 0 0.876307
    outer loop
      vertex 18.2318 34.5 7.21372
      vertex 18.5949 31.5 7.01407
      vertex 18.5949 34.5 7.01407
    endloop
  endfacet
  facet normal 0 -1 0
    outer loop
      vertex 18.2318 34.5 7.21372
      vertex 18.5949 34.5 7.01407
      vertex 19.3188 34.5 8.55228
    endloop
  endfacet
  facet normal 0 -1 -0
    outer loop
      vertex 18.2318 34.5 7.21372
      vertex 19.3188 34.5 8.55228
      vertex 19.1427 34.5 8.64907
    endloop
  endfacet
  facet normal 0.998027 0 -0.0627885
    outer loop
      vertex 18.4 34.5 10
      vertex 18.4 38.0079 10
      vertex 18.4087 34.5 10.1384
    endloop
  endfacet
  facet normal 0.998028 -0 0.0627713
    outer loop
      vertex 18.4 34.5 10
      vertex 18.403 38.0079 9.9519
      vertex 18.4 38.0079 10
    endloop
  endfacet
  facet normal 0.998028 3.52976e-08 0.0627739
    outer loop
      vertex 18.4 34.5 10
      vertex 18.4039 34.5 9.93783
      vertex 18.403 38.0079 9.9519
    endloop
  endfacet
  facet normal 0.998027 2.16191e-08 -0.062788
    outer loop
      vertex 18.4 38.0079 10
      vertex 18.4096 38.0079 10.1524
      vertex 18.4087 34.5 10.1384
    endloop
  endfacet
  facet normal 0.998026 -7.32773e-08 0.0628008
    outer loop
      vertex 18.403 38.0079 9.9519
      vertex 18.4039 34.5 9.93783
      vertex 18.4126 38.0079 9.79947
    endloop
  endfacet
  facet normal 0.998026 0 0.0628027
    outer loop
      vertex 18.4039 34.5 9.93783
      vertex 18.4126 34.5 9.79947
      vertex 18.4126 38.0079 9.79947
    endloop
  endfacet
  facet normal 0.998026 8.75111e-08 -0.0628044
    outer loop
      vertex 18.4087 34.5 10.1384
      vertex 18.4096 38.0079 10.1524
      vertex 18.4126 34.5 10.2005
    endloop
  endfacet
  facet normal 0.998025 0 -0.0628107
    outer loop
      vertex 18.4096 38.0079 10.1524
      vertex 18.4126 38.0079 10.2005
      vertex 18.4126 34.5 10.2005
    endloop
  endfacet
  facet normal 0.982291 0 -0.187362
    outer loop
      vertex 18.4126 34.5 10.2005
      vertex 18.4126 38.0079 10.2005
      vertex 18.4223 38.0079 10.2512
    endloop
  endfacet
  facet normal 0.982287 3.32308e-07 -0.187384
    outer loop
      vertex 18.4126 34.5 10.2005
      vertex 18.4223 38.0079 10.2512
      vertex 18.4503 34.5 10.3979
    endloop
  endfacet
  facet normal 0.982291 0 0.187362
    outer loop
      vertex 18.4126 34.5 9.79947
      vertex 18.4223 38.0079 9.74884
      vertex 18.4126 38.0079 9.79947
    endloop
  endfacet
  facet normal 0.982287 3.32308e-07 0.187384
    outer loop
      vertex 18.4126 34.5 9.79947
      vertex 18.4503 34.5 9.6021
      vertex 18.4223 38.0079 9.74884
    endloop
  endfacet
  facet normal 0.982285 0 -0.187392
    outer loop
      vertex 18.4223 38.0079 10.2512
      vertex 18.4503 38.0264 10.3979
      vertex 18.4503 34.5 10.3979
    endloop
  endfacet
  facet normal 0.982285 0 0.187392
    outer loop
      vertex 18.4223 38.0079 9.74884
      vertex 18.4503 34.5 9.6021
      vertex 18.4503 38.0264 9.6021
    endloop
  endfacet
  facet normal 0.95106 0 -0.309005
    outer loop
      vertex 18.4503 34.5 10.3979
      vertex 18.4503 38.0264 10.3979
      vertex 18.5124 34.5 10.589
    endloop
  endfacet
  facet normal 0.95106 0 0.309005
    outer loop
      vertex 18.4503 34.5 9.6021
      vertex 18.5124 34.5 9.411
      vertex 18.4503 38.0264 9.6021
    endloop
  endfacet
  facet normal 0.95106 0 -0.309005
    outer loop
      vertex 18.4503 38.0264 10.3979
      vertex 18.5124 38.0506 10.589
      vertex 18.5124 34.5 10.589
    endloop
  endfacet
  facet normal 0.95106 0 0.309005
    outer loop
      vertex 18.4503 38.0264 9.6021
      vertex 18.5124 34.5 9.411
      vertex 18.5124 38.0506 9.411
    endloop
  endfacet
  facet normal 0.904826 0 -0.425781
    outer loop
      vertex 18.5124 34.5 10.589
      vertex 18.5124 38.0506 10.589
      vertex 18.5979 34.5 10.7708
    endloop
  endfacet
  facet normal 0.904826 0 0.425781
    outer loop
      vertex 18.5124 34.5 9.411
      vertex 18.5979 34.5 9.22919
      vertex 18.5124 38.0506 9.411
    endloop
  endfacet
  facet normal 0.904826 -6.5003e-08 -0.425783
    outer loop
      vertex 18.5124 38.0506 10.589
      vertex 18.5879 38.0709 10.7495
      vertex 18.5979 34.5 10.7708
    endloop
  endfacet
  facet normal 0.904826 -6.5003e-08 0.425783
    outer loop
      vertex 18.5124 38.0506 9.411
      vertex 18.5979 34.5 9.22919
      vertex 18.5879 38.0709 9.25047
    endloop
  endfacet
  facet normal 0.90483 0 -0.425774
    outer loop
      vertex 18.5879 38.0709 10.7495
      vertex 18.5979 38.0763 10.7708
      vertex 18.5979 34.5 10.7708
    endloop
  endfacet
  facet normal 0.90483 0 0.425774
    outer loop
      vertex 18.5879 38.0709 9.25047
      vertex 18.5979 34.5 9.22919
      vertex 18.5979 38.0763 9.22919
    endloop
  endfacet
  facet normal 0.368125 0 -0.929776
    outer loop
      vertex 18.5949 31.5 12.9859
      vertex 18.5949 34.5 12.9859
      vertex 18.9802 34.5 13.1385
    endloop
  endfacet
  facet normal 0.368125 0 -0.929776
    outer loop
      vertex 18.5949 31.5 12.9859
      vertex 18.9802 34.5 13.1385
      vertex 18.9802 31.5 13.1385
    endloop
  endfacet
  facet normal 0.368125 0 0.929776
    outer loop
      vertex 18.5949 31.5 7.01407
      vertex 18.9802 31.5 6.86151
      vertex 18.5949 34.5 7.01407
    endloop
  endfacet
  facet normal 0 -1 0
    outer loop
      vertex 18.5949 34.5 12.9859
      vertex 19.3188 34.5 11.4477
      vertex 19.5056 34.5 11.5217
    endloop
  endfacet
  facet normal 0 -1 0
    outer loop
      vertex 18.5949 34.5 12.9859
      vertex 19.5056 34.5 11.5217
      vertex 18.9802 34.5 13.1385
    endloop
  endfacet
  facet normal 0.368125 0 0.929776
    outer loop
      vertex 18.5949 34.5 7.01407
      vertex 18.9802 31.5 6.86151
      vertex 18.9802 34.5 6.86151
    endloop
  endfacet
  facet normal 0 -1 0
    outer loop
      vertex 18.5949 34.5 7.01407
      vertex 18.9802 34.5 6.86151
      vertex 19.5056 34.5 8.47831
    endloop
  endfacet
  facet normal 0 -1 -0
    outer loop
      vertex 18.5949 34.5 7.01407
      vertex 19.5056 34.5 8.47831
      vertex 19.3188 34.5 8.55228
    endloop
  endfacet
  facet normal 0.844327 0 -0.535828
    outer loop
      vertex 18.5979 34.5 10.7708
      vertex 18.5979 38.0763 10.7708
      vertex 18.7056 34.5 10.9405
    endloop
  endfacet
  facet normal 0.844327 0 0.535828
    outer loop
      vertex 18.5979 34.5 9.22919
      vertex 18.7056 34.5 9.05954
      vertex 18.5979 38.0763 9.22919
    endloop
  endfacet
  facet normal 0.844327 0 -0.535828
    outer loop
      vertex 18.5979 38.0763 10.7708
      vertex 18.7056 38.1199 10.9405
      vertex 18.7056 34.5 10.9405
    endloop
  endfacet
  facet normal 0.844327 0 0.535828
    outer loop
      vertex 18.5979 38.0763 9.22919
      vertex 18.7056 34.5 9.05954
      vertex 18.7056 38.1199 9.05954
    endloop
  endfacet
  facet normal 0.770514 0 -0.637423
    outer loop
      vertex 18.7056 34.5 10.9405
      vertex 18.7056 38.1199 10.9405
      vertex 18.8336 34.5 11.0953
    endloop
  endfacet
  facet normal 0.770514 0 0.637423
    outer loop
      vertex 18.7056 34.5 9.05954
      vertex 18.8336 34.5 8.90472
      vertex 18.7056 38.1199 9.05954
    endloop
  endfacet
  facet normal 0.770514 0 -0.637423
    outer loop
      vertex 18.7056 38.1199 10.9405
      vertex 18.8336 38.1596 11.0953
      vertex 18.8336 34.5 11.0953
    endloop
  endfacet
  facet normal 0.770514 0 0.637423
    outer loop
      vertex 18.7056 38.1199 9.05954
      vertex 18.8336 34.5 8.90472
      vertex 18.8336 38.1596 8.90472
    endloop
  endfacet
  facet normal 0.684543 0 -0.728973
    outer loop
      vertex 18.8336 34.5 11.0953
      vertex 18.8336 38.1596 11.0953
      vertex 18.9801 34.5 11.2328
    endloop
  endfacet
  facet normal 0.684543 0 0.728973
    outer loop
      vertex 18.8336 34.5 8.90472
      vertex 18.9801 34.5 8.76718
      vertex 18.8336 38.1596 8.90472
    endloop
  endfacet
  facet normal 0.684543 0 -0.728973
    outer loop
      vertex 18.8336 38.1596 11.0953
      vertex 18.9801 38.1949 11.2328
      vertex 18.9801 34.5 11.2328
    endloop
  endfacet
  facet normal 0.684543 0 0.728973
    outer loop
      vertex 18.8336 38.1596 8.90472
      vertex 18.9801 34.5 8.76718
      vertex 18.9801 38.1949 8.76718
    endloop
  endfacet
  facet normal 0.587786 0 -0.809016
    outer loop
      vertex 18.9801 34.5 11.2328
      vertex 18.9801 38.1949 11.2328
      vertex 19.1427 34.5 11.3509
    endloop
  endfacet
  facet normal 0.587786 0 0.809016
    outer loop
      vertex 18.9801 34.5 8.76718
      vertex 19.1427 34.5 8.64907
      vertex 18.9801 38.1949 8.76718
    endloop
  endfacet
  facet normal 0.587833 3.09957e-06 -0.808983
    outer loop
      vertex 18.9801 38.1949 11.2328
      vertex 18.9846 38.1958 11.2361
      vertex 19.1427 34.5 11.3509
    endloop
  endfacet
  facet normal 0.587833 3.09957e-06 0.808983
    outer loop
      vertex 18.9801 38.1949 8.76718
      vertex 19.1427 34.5 8.64907
      vertex 18.9846 38.1958 8.76393
    endloop
  endfacet
  facet normal 0.24869 0 -0.968583
    outer loop
      vertex 18.9802 31.5 13.1385
      vertex 18.9802 34.5 13.1385
      vertex 19.3816 34.5 13.2415
    endloop
  endfacet
  facet normal 0.24869 0 -0.968583
    outer loop
      vertex 18.9802 31.5 13.1385
      vertex 19.3816 34.5 13.2415
      vertex 19.3816 31.5 13.2415
    endloop
  endfacet
  facet normal 0.24869 0 0.968583
    outer loop
      vertex 18.9802 31.5 6.86151
      vertex 19.3816 31.5 6.75845
      vertex 18.9802 34.5 6.86151
    endloop
  endfacet
  facet normal 0 -1 0
    outer loop
      vertex 18.9802 34.5 13.1385
      vertex 19.5056 34.5 11.5217
      vertex 19.7002 34.5 11.5717
    endloop
  endfacet
  facet normal 0 -1 0
    outer loop
      vertex 18.9802 34.5 13.1385
      vertex 19.7002 34.5 11.5717
      vertex 19.3816 34.5 13.2415
    endloop
  endfacet
  facet normal 0.24869 0 0.968583
    outer loop
      vertex 18.9802 34.5 6.86151
      vertex 19.3816 31.5 6.75845
      vertex 19.3816 34.5 6.75845
    endloop
  endfacet
  facet normal 0 -1 0
    outer loop
      vertex 18.9802 34.5 6.86151
      vertex 19.3816 34.5 6.75845
      vertex 19.7002 34.5 8.42834
    endloop
  endfacet
  facet normal 0 -1 -0
    outer loop
      vertex 18.9802 34.5 6.86151
      vertex 19.7002 34.5 8.42834
      vertex 19.5056 34.5 8.47831
    endloop
  endfacet
  facet normal 0.587785 0 -0.809017
    outer loop
      vertex 18.9846 38.1958 11.2361
      vertex 19.1427 38.2412 11.3509
      vertex 19.1427 34.5 11.3509
    endloop
  endfacet
  facet normal 0.587785 0 0.809017
    outer loop
      vertex 18.9846 38.1958 8.76393
      vertex 19.1427 34.5 8.64907
      vertex 19.1427 38.2412 8.64907
    endloop
  endfacet
  facet normal 0.481753 0 -0.876307
    outer loop
      vertex 19.1427 34.5 11.3509
      vertex 19.1427 38.2412 11.3509
      vertex 19.3188 34.5 11.4477
    endloop
  endfacet
  facet normal 0.481753 0 0.876307
    outer loop
      vertex 19.1427 34.5 8.64907
      vertex 19.3188 34.5 8.55228
      vertex 19.1427 38.2412 8.64907
    endloop
  endfacet
  facet normal 0.481753 0 -0.876307
    outer loop
      vertex 19.1427 38.2412 11.3509
      vertex 19.3188 38.2796 11.4477
      vertex 19.3188 34.5 11.4477
    endloop
  endfacet
  facet normal 0.481753 0 0.876307
    outer loop
      vertex 19.1427 38.2412 8.64907
      vertex 19.3188 34.5 8.55228
      vertex 19.3188 38.2796 8.55228
    endloop
  endfacet
  facet normal 0.368126 0 -0.929776
    outer loop
      vertex 19.3188 34.5 11.4477
      vertex 19.3188 38.2796 11.4477
      vertex 19.5056 34.5 11.5217
    endloop
  endfacet
  facet normal 0.368126 0 0.929776
    outer loop
      vertex 19.3188 34.5 8.55228
      vertex 19.5056 34.5 8.47831
      vertex 19.3188 38.2796 8.55228
    endloop
  endfacet
  facet normal 0.368126 0 -0.929776
    outer loop
      vertex 19.3188 38.2796 11.4477
      vertex 19.5056 38.3089 11.5217
      vertex 19.5056 34.5 11.5217
    endloop
  endfacet
  facet normal 0.368126 0 0.929776
    outer loop
      vertex 19.3188 38.2796 8.55228
      vertex 19.5056 34.5 8.47831
      vertex 19.5056 38.3089 8.47831
    endloop
  endfacet
  facet normal 0.125333 0 -0.992115
    outer loop
      vertex 19.3816 31.5 13.2415
      vertex 19.3816 34.5 13.2415
      vertex 19.7928 34.5 13.2935
    endloop
  endfacet
  facet normal 0.125333 0 -0.992115
    outer loop
      vertex 19.3816 31.5 13.2415
      vertex 19.7928 34.5 13.2935
      vertex 19.7928 31.5 13.2935
    endloop
  endfacet
  facet normal 0.125333 0 0.992115
    outer loop
      vertex 19.3816 31.5 6.75845
      vertex 19.7928 31.5 6.70651
      vertex 19.3816 34.5 6.75845
    endloop
  endfacet
  facet normal 0 -1 0
    outer loop
      vertex 19.3816 34.5 13.2415
      vertex 19.7002 34.5 11.5717
      vertex 19.8995 34.5 11.5968
    endloop
  endfacet
  facet normal 0 -1 0
    outer loop
      vertex 19.3816 34.5 13.2415
      vertex 19.8995 34.5 11.5968
      vertex 19.7928 34.5 13.2935
    endloop
  endfacet
  facet normal 0.125333 0 0.992115
    outer loop
      vertex 19.3816 34.5 6.75845
      vertex 19.7928 31.5 6.70651
      vertex 19.7928 34.5 6.70651
    endloop
  endfacet
  facet normal 0 -1 0
    outer loop
      vertex 19.3816 34.5 6.75845
      vertex 19.7928 34.5 6.70651
      vertex 19.8995 34.5 8.40316
    endloop
  endfacet
  facet normal 0 -1 -0
    outer loop
      vertex 19.3816 34.5 6.75845
      vertex 19.8995 34.5 8.40316
      vertex 19.7002 34.5 8.42834
    endloop
  endfacet
  facet normal 0.248689 0 -0.968583
    outer loop
      vertex 19.5056 34.5 11.5217
      vertex 19.5056 38.3089 11.5217
      vertex 19.7002 34.5 11.5717
    endloop
  endfacet
  facet normal 0.248689 0 0.968583
    outer loop
      vertex 19.5056 34.5 8.47831
      vertex 19.7002 34.5 8.42834
      vertex 19.5056 38.3089 8.47831
    endloop
  endfacet
  facet normal 0.248689 0 -0.968583
    outer loop
      vertex 19.5056 38.3089 11.5217
      vertex 19.7002 38.3286 11.5717
      vertex 19.7002 34.5 11.5717
    endloop
  endfacet
  facet normal 0.248689 0 0.968583
    outer loop
      vertex 19.5056 38.3089 8.47831
      vertex 19.7002 34.5 8.42834
      vertex 19.7002 38.3286 8.42834
    endloop
  endfacet
  facet normal 0.125331 0 -0.992115
    outer loop
      vertex 19.7002 34.5 11.5717
      vertex 19.7002 38.3286 11.5717
      vertex 19.8995 34.5 11.5968
    endloop
  endfacet
  facet normal 0.125331 0 0.992115
    outer loop
      vertex 19.7002 34.5 8.42834
      vertex 19.8995 34.5 8.40316
      vertex 19.7002 38.3286 8.42834
    endloop
  endfacet
  facet normal 0.125331 0 -0.992115
    outer loop
      vertex 19.7002 38.3286 11.5717
      vertex 19.8995 38.3386 11.5968
      vertex 19.8995 34.5 11.5968
    endloop
  endfacet
  facet normal 0.125331 0 0.992115
    outer loop
      vertex 19.7002 38.3286 8.42834
      vertex 19.8995 34.5 8.40316
      vertex 19.8995 38.3386 8.40316
    endloop
  endfacet
  facet normal -0 0 -1
    outer loop
      vertex 19.7928 31.5 13.2935
      vertex 19.7928 34.5 13.2935
      vertex 20.2072 34.5 13.2935
    endloop
  endfacet
  facet normal 0 -1 0
    outer loop
      vertex 19.7928 31.5 13.2935
      vertex 20.2072 31.5 13.2935
      vertex 30 31.5 20
    endloop
  endfacet
  facet normal 0 0 -1
    outer loop
      vertex 19.7928 31.5 13.2935
      vertex 20.2072 34.5 13.2935
      vertex 20.2072 31.5 13.2935
    endloop
  endfacet
  facet normal 0 0 1
    outer loop
      vertex 19.7928 31.5 6.70651
      vertex 20.2072 31.5 6.70651
      vertex 19.7928 34.5 6.70651
    endloop
  endfacet
  facet normal 0 -1 0
    outer loop
      vertex 19.7928 34.5 13.2935
      vertex 19.8995 34.5 11.5968
      vertex 20.2072 34.5 13.2935
    endloop
  endfacet
  facet normal 0 -1 -0
    outer loop
      vertex 19.7928 34.5 6.70651
      vertex 20.1005 34.5 8.40316
      vertex 19.8995 34.5 8.40316
    endloop
  endfacet
  facet normal -0 0 1
    outer loop
      vertex 19.7928 34.5 6.70651
      vertex 20.2072 31.5 6.70651
      vertex 20.2072 34.5 6.70651
    endloop
  endfacet
  facet normal 0 -1 0
    outer loop
      vertex 19.7928 34.5 6.70651
      vertex 20.2072 34.5 6.70651
      vertex 20.1005 34.5 8.40316
    endloop
  endfacet
  facet normal -0 0 -1
    outer loop
      vertex 19.8995 34.5 11.5968
      vertex 19.8995 38.3386 11.5968
      vertex 20.1005 38.3386 11.5968
    endloop
  endfacet
  facet normal 0 -1 0
    outer loop
      vertex 19.8995 34.5 11.5968
      vertex 20.1005 34.5 11.5968
      vertex 20.2072 34.5 13.2935
    endloop
  endfacet
  facet normal 0 0 -1
    outer loop
      vertex 19.8995 34.5 11.5968
      vertex 20.1005 38.3386 11.5968
      vertex 20.1005 34.5 11.5968
    endloop
  endfacet
  facet normal 0 0 1
    outer loop
      vertex 19.8995 34.5 8.40316
      vertex 20.1005 34.5 8.40316
      vertex 19.8995 38.3386 8.40316
    endloop
  endfacet
  facet normal -0 0 1
    outer loop
      vertex 19.8995 38.3386 8.40316
      vertex 20.1005 34.5 8.40316
      vertex 20.1005 38.3386 8.40316
    endloop
  endfacet
  facet normal 0 0.929779 0.368117
    outer loop
      vertex 19.8995 38.3386 8.40316
      vertex 20.1005 38.3386 8.40316
      vertex 30 38.3807 8.29688
    endloop
  endfacet
  facet normal -0.125331 0 -0.992115
    outer loop
      vertex 20.1005 34.5 11.5968
      vertex 20.1005 38.3386 11.5968
      vertex 20.2998 38.3286 11.5717
    endloop
  endfacet
  facet normal 0 -1 0
    outer loop
      vertex 20.1005 34.5 11.5968
      vertex 20.2998 34.5 11.5717
      vertex 20.6184 34.5 13.2415
    endloop
  endfacet
  facet normal -0.125331 0 -0.992115
    outer loop
      vertex 20.1005 34.5 11.5968
      vertex 20.2998 38.3286 11.5717
      vertex 20.2998 34.5 11.5717
    endloop
  endfacet
  facet normal 0 -1 -0
    outer loop
      vertex 20.1005 34.5 11.5968
      vertex 20.6184 34.5 13.2415
      vertex 20.2072 34.5 13.2935
    endloop
  endfacet
  facet normal 0 -1 0
    outer loop
      vertex 20.1005 34.5 8.40316
      vertex 20.2072 34.5 6.70651
      vertex 20.6184 34.5 6.75845
    endloop
  endfacet
  facet normal -0.125331 0 0.992115
    outer loop
      vertex 20.1005 34.5 8.40316
      vertex 20.2998 34.5 8.42834
      vertex 20.2998 38.3286 8.42834
    endloop
  endfacet
  facet normal -0.125331 0 0.992115
    outer loop
      vertex 20.1005 34.5 8.40316
      vertex 20.2998 38.3286 8.42834
      vertex 20.1005 38.3386 8.40316
    endloop
  endfacet
  facet normal 0 -1 0
    outer loop
      vertex 20.1005 34.5 8.40316
      vertex 20.6184 34.5 6.75845
      vertex 20.2998 34.5 8.42834
    endloop
  endfacet
  facet normal 4.76927e-07 0.929764 -0.368156
    outer loop
      vertex 20.1005 38.3386 11.5968
      vertex 30 38.3807 11.7031
      vertex 20.2998 38.3286 11.5717
    endloop
  endfacet
  facet normal 4.76927e-07 0.929764 0.368156
    outer loop
      vertex 20.1005 38.3386 8.40316
      vertex 20.2998 38.3286 8.42834
      vertex 30 38.3807 8.29688
    endloop
  endfacet
  facet normal -0.125332 0 -0.992115
    outer loop
      vertex 20.2072 31.5 13.2935
      vertex 20.2072 34.5 13.2935
      vertex 20.6184 34.5 13.2415
    endloop
  endfacet
  facet normal 0 -1 0
    outer loop
      vertex 20.2072 31.5 13.2935
      vertex 20.6184 31.5 13.2415
      vertex 30 31.5 20
    endloop
  endfacet
  facet normal -0.125332 0 -0.992115
    outer loop
      vertex 20.2072 31.5 13.2935
      vertex 20.6184 34.5 13.2415
      vertex 20.6184 31.5 13.2415
    endloop
  endfacet
  facet normal -0.125332 0 0.992115
    outer loop
      vertex 20.2072 31.5 6.70651
      vertex 20.6184 31.5 6.75845
      vertex 20.2072 34.5 6.70651
    endloop
  endfacet
  facet normal 0 -1 0
    outer loop
      vertex 20.2072 31.5 6.70651
      vertex 30 31.5 0
      vertex 20.6184 31.5 6.75845
    endloop
  endfacet
  facet normal -0.125332 0 0.992115
    outer loop
      vertex 20.2072 34.5 6.70651
      vertex 20.6184 31.5 6.75845
      vertex 20.6184 34.5 6.75845
    endloop
  endfacet
  facet normal -0.248686 0 -0.968584
    outer loop
      vertex 20.2998 34.5 11.5717
      vertex 20.2998 38.3286 11.5717
      vertex 20.4944 38.3089 11.5217
    endloop
  endfacet
  facet normal 0 -1 0
    outer loop
      vertex 20.2998 34.5 11.5717
      vertex 20.4944 34.5 11.5217
      vertex 21.0198 34.5 13.1385
    endloop
  endfacet
  facet normal -0.248686 0 -0.968584
    outer loop
      vertex 20.2998 34.5 11.5717
      vertex 20.4944 38.3089 11.5217
      vertex 20.4944 34.5 11.5217
    endloop
  endfacet
  facet normal 0 -1 -0
    outer loop
      vertex 20.2998 34.5 11.5717
      vertex 21.0198 34.5 13.1385
      vertex 20.6184 34.5 13.2415
    endloop
  endfacet
  facet normal -0.248686 0 0.968584
    outer loop
      vertex 20.2998 34.5 8.42834
      vertex 20.4944 34.5 8.47831
      vertex 20.4944 38.3089 8.47831
    endloop
  endfacet
  facet normal -0.248686 0 0.968584
    outer loop
      vertex 20.2998 34.5 8.42834
      vertex 20.4944 38.3089 8.47831
      vertex 20.2998 38.3286 8.42834
    endloop
  endfacet
  facet normal 0 -1 0
    outer loop
      vertex 20.2998 34.5 8.42834
      vertex 20.6184 34.5 6.75845
      vertex 21.0198 34.5 6.86151
    endloop
  endfacet
  facet normal 0 -1 0
    outer loop
      vertex 20.2998 34.5 8.42834
      vertex 21.0198 34.5 6.86151
      vertex 20.4944 34.5 8.47831
    endloop
  endfacet
  facet normal -2.46758e-07 0.929782 -0.368109
    outer loop
      vertex 20.2998 38.3286 11.5717
      vertex 30 38.3807 11.7031
      vertex 20.4944 38.3089 11.5217
    endloop
  endfacet
  facet normal -2.46758e-07 0.929782 0.368109
    outer loop
      vertex 20.2998 38.3286 8.42834
      vertex 20.4944 38.3089 8.47831
      vertex 30 38.3807 8.29688
    endloop
  endfacet
  facet normal -0.368126 0 -0.929776
    outer loop
      vertex 20.4944 34.5 11.5217
      vertex 20.4944 38.3089 11.5217
      vertex 20.6812 38.2796 11.4477
    endloop
  endfacet
  facet normal 0 -1 0
    outer loop
      vertex 20.4944 34.5 11.5217
      vertex 20.6812 34.5 11.4477
      vertex 21.4051 34.5 12.9859
    endloop
  endfacet
  facet normal -0.368126 0 -0.929776
    outer loop
      vertex 20.4944 34.5 11.5217
      vertex 20.6812 38.2796 11.4477
      vertex 20.6812 34.5 11.4477
    endloop
  endfacet
  facet normal 0 -1 -0
    outer loop
      vertex 20.4944 34.5 11.5217
      vertex 21.4051 34.5 12.9859
      vertex 21.0198 34.5 13.1385
    endloop
  endfacet
  facet normal -0.368126 0 0.929776
    outer loop
      vertex 20.4944 34.5 8.47831
      vertex 20.6812 34.5 8.55228
      vertex 20.6812 38.2796 8.55228
    endloop
  endfacet
  facet normal -0.368126 0 0.929776
    outer loop
      vertex 20.4944 34.5 8.47831
      vertex 20.6812 38.2796 8.55228
      vertex 20.4944 38.3089 8.47831
    endloop
  endfacet
  facet normal 0 -1 0
    outer loop
      vertex 20.4944 34.5 8.47831
      vertex 21.0198 34.5 6.86151
      vertex 21.4051 34.5 7.01407
    endloop
  endfacet
  facet normal 0 -1 0
    outer loop
      vertex 20.4944 34.5 8.47831
      vertex 21.4051 34.5 7.01407
      vertex 20.6812 34.5 8.55228
    endloop
  endfacet
  facet normal -4.05121e-08 0.929779 -0.368119
    outer loop
      vertex 20.4944 38.3089 11.5217
      vertex 30 38.3807 11.7031
      vertex 20.6812 38.2796 11.4477
    endloop
  endfacet
  facet normal -4.05121e-08 0.929779 0.368119
    outer loop
      vertex 20.4944 38.3089 8.47831
      vertex 20.6812 38.2796 8.55228
      vertex 30 38.3807 8.29688
    endloop
  endfacet
  facet normal -0.24869 0 -0.968583
    outer loop
      vertex 20.6184 31.5 13.2415
      vertex 20.6184 34.5 13.2415
      vertex 21.0198 34.5 13.1385
    endloop
  endfacet
  facet normal 0 -1 0
    outer loop
      vertex 20.6184 31.5 13.2415
      vertex 21.0198 31.5 13.1385
      vertex 30 31.5 20
    endloop
  endfacet
  facet normal -0.24869 0 -0.968583
    outer loop
      vertex 20.6184 31.5 13.2415
      vertex 21.0198 34.5 13.1385
      vertex 21.0198 31.5 13.1385
    endloop
  endfacet
  facet normal -0.24869 0 0.968583
    outer loop
      vertex 20.6184 31.5 6.75845
      vertex 21.0198 31.5 6.86151
      vertex 20.6184 34.5 6.75845
    endloop
  endfacet
  facet normal 0 -1 0
    outer loop
      vertex 20.6184 31.5 6.75845
      vertex 30 31.5 0
      vertex 21.0198 31.5 6.86151
    endloop
  endfacet
  facet normal -0.24869 0 0.968583
    outer loop
      vertex 20.6184 34.5 6.75845
      vertex 21.0198 31.5 6.86151
      vertex 21.0198 34.5 6.86151
    endloop
  endfacet
  facet normal -0.481753 0 -0.876307
    outer loop
      vertex 20.6812 34.5 11.4477
      vertex 20.6812 38.2796 11.4477
      vertex 20.8573 38.2412 11.3509
    endloop
  endfacet
  facet normal 0 -1 0
    outer loop
      vertex 20.6812 34.5 11.4477
      vertex 20.8573 34.5 11.3509
      vertex 21.7682 34.5 12.7863
    endloop
  endfacet
  facet normal -0.481753 0 -0.876307
    outer loop
      vertex 20.6812 34.5 11.4477
      vertex 20.8573 38.2412 11.3509
      vertex 20.8573 34.5 11.3509
    endloop
  endfacet
  facet normal 0 -1 -0
    outer loop
      vertex 20.6812 34.5 11.4477
      vertex 21.7682 34.5 12.7863
      vertex 21.4051 34.5 12.9859
    endloop
  endfacet
  facet normal -0.481753 0 0.876307
    outer loop
      vertex 20.6812 34.5 8.55228
      vertex 20.8573 34.5 8.64907
      vertex 20.8573 38.2412 8.64907
    endloop
  endfacet
  facet normal -0.481753 0 0.876307
    outer loop
      vertex 20.6812 34.5 8.55228
      vertex 20.8573 38.2412 8.64907
      vertex 20.6812 38.2796 8.55228
    endloop
  endfacet
  facet normal 0 -1 0
    outer loop
      vertex 20.6812 34.5 8.55228
      vertex 21.4051 34.5 7.01407
      vertex 21.7682 34.5 7.21372
    endloop
  endfacet
  facet normal 0 -1 0
    outer loop
      vertex 20.6812 34.5 8.55228
      vertex 21.7682 34.5 7.21372
      vertex 20.8573 34.5 8.64907
    endloop
  endfacet
  facet normal 4.50402e-07 0.929773 -0.368134
    outer loop
      vertex 20.6812 38.2796 11.4477
      vertex 30 38.3807 11.7031
      vertex 20.8573 38.2412 11.3509
    endloop
  endfacet
  facet normal 4.50402e-07 0.929773 0.368134
    outer loop
      vertex 20.6812 38.2796 8.55228
      vertex 20.8573 38.2412 8.64907
      vertex 30 38.3807 8.29688
    endloop
  endfacet
  facet normal -0.58779 0 -0.809014
    outer loop
      vertex 20.8573 34.5 11.3509
      vertex 20.8573 38.2412 11.3509
      vertex 21.0154 38.1958 11.2361
    endloop
  endfacet
  facet normal -0.58767 -7.84455e-06 -0.809101
    outer loop
      vertex 20.8573 34.5 11.3509
      vertex 21.0154 38.1958 11.2361
      vertex 21.0199 38.1949 11.2328
    endloop
  endfacet
  facet normal 0 -1 0
    outer loop
      vertex 20.8573 34.5 11.3509
      vertex 21.0199 34.5 11.2328
      vertex 22.1035 34.5 12.5427
    endloop
  endfacet
  facet normal -0.587786 0 -0.809016
    outer loop
      vertex 20.8573 34.5 11.3509
      vertex 21.0199 38.1949 11.2328
      vertex 21.0199 34.5 11.2328
    endloop
  endfacet
  facet normal 0 -1 -0
    outer loop
      vertex 20.8573 34.5 11.3509
      vertex 22.1035 34.5 12.5427
      vertex 21.7682 34.5 12.7863
    endloop
  endfacet
  facet normal -0.58779 0 0.809014
    outer loop
      vertex 20.8573 34.5 8.64907
      vertex 21.0154 38.1958 8.76393
      vertex 20.8573 38.2412 8.64907
    endloop
  endfacet
  facet normal -0.587786 0 0.809016
    outer loop
      vertex 20.8573 34.5 8.64907
      vertex 21.0199 34.5 8.76718
      vertex 21.0199 38.1949 8.76718
    endloop
  endfacet
  facet normal -0.58767 -7.84455e-06 0.809101
    outer loop
      vertex 20.8573 34.5 8.64907
      vertex 21.0199 38.1949 8.76718
      vertex 21.0154 38.1958 8.76393
    endloop
  endfacet
  facet normal 0 -1 0
    outer loop
      vertex 20.8573 34.5 8.64907
      vertex 21.7682 34.5 7.21372
      vertex 22.1035 34.5 7.45731
    endloop
  endfacet
  facet normal 0 -1 0
    outer loop
      vertex 20.8573 34.5 8.64907
      vertex 22.1035 34.5 7.45731
      vertex 21.0199 34.5 8.76718
    endloop
  endfacet
  facet normal 2.37252e-08 0.929776 -0.368125
    outer loop
      vertex 20.8573 38.2412 11.3509
      vertex 30 38.3807 11.7031
      vertex 21.0154 38.1958 11.2361
    endloop
  endfacet
  facet normal 2.37252e-08 0.929776 0.368125
    outer loop
      vertex 20.8573 38.2412 8.64907
      vertex 21.0154 38.1958 8.76393
      vertex 30 38.3807 8.29688
    endloop
  endfacet
  facet normal 0 0.968464 -0.249155
    outer loop
      vertex 21.0154 38.1958 11.2361
      vertex 30 38.1958 11.2361
      vertex 21.0199 38.1949 11.2328
    endloop
  endfacet
  facet normal 0 0.929777 -0.368124
    outer loop
      vertex 21.0154 38.1958 11.2361
      vertex 30 38.3807 11.7031
      vertex 30 38.1958 11.2361
    endloop
  endfacet
  facet normal 0 0.968464 0.249155
    outer loop
      vertex 21.0154 38.1958 8.76393
      vertex 21.0199 38.1949 8.76718
      vertex 30 38.1958 8.76393
    endloop
  endfacet
  facet normal 0 0.929777 0.368124
    outer loop
      vertex 21.0154 38.1958 8.76393
      vertex 30 38.1958 8.76393
      vertex 30 38.3807 8.29688
    endloop
  endfacet
  facet normal -0.368125 0 -0.929776
    outer loop
      vertex 21.0198 31.5 13.1385
      vertex 21.0198 34.5 13.1385
      vertex 21.4051 34.5 12.9859
    endloop
  endfacet
  facet normal 0 -1 0
    outer loop
      vertex 21.0198 31.5 13.1385
      vertex 21.4051 31.5 12.9859
      vertex 30 31.5 20
    endloop
  endfacet
  facet normal -0.368125 0 -0.929776
    outer loop
      vertex 21.0198 31.5 13.1385
      vertex 21.4051 34.5 12.9859
      vertex 21.4051 31.5 12.9859
    endloop
  endfacet
  facet normal -0.368125 0 0.929776
    outer loop
      vertex 21.0198 31.5 6.86151
      vertex 21.4051 31.5 7.01407
      vertex 21.0198 34.5 6.86151
    endloop
  endfacet
  facet normal 0 -1 0
    outer loop
      vertex 21.0198 31.5 6.86151
      vertex 30 31.5 0
      vertex 21.4051 31.5 7.01407
    endloop
  endfacet
  facet normal -0.368125 0 0.929776
    outer loop
      vertex 21.0198 34.5 6.86151
      vertex 21.4051 31.5 7.01407
      vertex 21.4051 34.5 7.01407
    endloop
  endfacet
  facet normal -0.684547 0 -0.728968
    outer loop
      vertex 21.0199 34.5 11.2328
      vertex 21.0199 38.1949 11.2328
      vertex 21.1663 38.1596 11.0953
    endloop
  endfacet
  facet normal 0 -1 0
    outer loop
      vertex 21.0199 34.5 11.2328
      vertex 21.1663 34.5 11.0953
      vertex 22.4056 34.5 12.259
    endloop
  endfacet
  facet normal -0.684547 0 -0.728968
    outer loop
      vertex 21.0199 34.5 11.2328
      vertex 21.1663 38.1596 11.0953
      vertex 21.1663 34.5 11.0953
    endloop
  endfacet
  facet normal 0 -1 -0
    outer loop
      vertex 21.0199 34.5 11.2328
      vertex 22.4056 34.5 12.259
      vertex 22.1035 34.5 12.5427
    endloop
  endfacet
  facet normal -0.684547 0 0.728968
    outer loop
      vertex 21.0199 34.5 8.76718
      vertex 21.1663 34.5 8.90472
      vertex 21.1663 38.1596 8.90472
    endloop
  endfacet
  facet normal -0.684547 0 0.728968
    outer loop
      vertex 21.0199 34.5 8.76718
      vertex 21.1663 38.1596 8.90472
      vertex 21.0199 38.1949 8.76718
    endloop
  endfacet
  facet normal 0 -1 0
    outer loop
      vertex 21.0199 34.5 8.76718
      vertex 22.1035 34.5 7.45731
      vertex 22.4056 34.5 7.74099
    endloop
  endfacet
  facet normal 0 -1 0
    outer loop
      vertex 21.0199 34.5 8.76718
      vertex 22.4056 34.5 7.74099
      vertex 21.1663 34.5 8.90472
    endloop
  endfacet
  facet normal -1.7744e-07 0.968582 -0.248695
    outer loop
      vertex 21.0199 38.1949 11.2328
      vertex 30 38.1958 11.2361
      vertex 21.1663 38.1596 11.0953
    endloop
  endfacet
  facet normal -1.7744e-07 0.968582 0.248695
    outer loop
      vertex 21.0199 38.1949 8.76718
      vertex 21.1663 38.1596 8.90472
      vertex 30 38.1958 8.76393
    endloop
  endfacet
  facet normal -0.770514 0 -0.637423
    outer loop
      vertex 21.1663 34.5 11.0953
      vertex 21.1663 38.1596 11.0953
      vertex 21.2944 38.1199 10.9405
    endloop
  endfacet
  facet normal 0 -1 0
    outer loop
      vertex 21.1663 34.5 11.0953
      vertex 21.2944 34.5 10.9405
      vertex 22.6698 34.5 11.9397
    endloop
  endfacet
  facet normal -0.770514 0 -0.637423
    outer loop
      vertex 21.1663 34.5 11.0953
      vertex 21.2944 38.1199 10.9405
      vertex 21.2944 34.5 10.9405
    endloop
  endfacet
  facet normal 0 -1 -0
    outer loop
      vertex 21.1663 34.5 11.0953
      vertex 22.6698 34.5 11.9397
      vertex 22.4056 34.5 12.259
    endloop
  endfacet
  facet normal -0.770514 0 0.637423
    outer loop
      vertex 21.1663 34.5 8.90472
      vertex 21.2944 34.5 9.05954
      vertex 21.2944 38.1199 9.05954
    endloop
  endfacet
  facet normal -0.770514 0 0.637423
    outer loop
      vertex 21.1663 34.5 8.90472
      vertex 21.2944 38.1199 9.05954
      vertex 21.1663 38.1596 8.90472
    endloop
  endfacet
  facet normal 0 -1 0
    outer loop
      vertex 21.1663 34.5 8.90472
      vertex 22.4056 34.5 7.74099
      vertex 22.6698 34.5 8.06031
    endloop
  endfacet
  facet normal 0 -1 0
    outer loop
      vertex 21.1663 34.5 8.90472
      vertex 22.6698 34.5 8.06031
      vertex 21.2944 34.5 9.05954
    endloop
  endfacet
  facet normal -4.10092e-07 0.968585 -0.248681
    outer loop
      vertex 21.1663 38.1596 11.0953
      vertex 30 38.1958 11.2361
      vertex 21.2944 38.1199 10.9405
    endloop
  endfacet
  facet normal -4.10092e-07 0.968585 0.248681
    outer loop
      vertex 21.1663 38.1596 8.90472
      vertex 21.2944 38.1199 9.05954
      vertex 30 38.1958 8.76393
    endloop
  endfacet
  facet normal -0.844327 0 -0.535828
    outer loop
      vertex 21.2944 34.5 10.9405
      vertex 21.2944 38.1199 10.9405
      vertex 21.4021 38.0763 10.7708
    endloop
  endfacet
  facet normal 0 -1 0
    outer loop
      vertex 21.2944 34.5 10.9405
      vertex 21.4021 34.5 10.7708
      vertex 22.8918 34.5 11.5898
    endloop
  endfacet
  facet normal -0.844327 0 -0.535828
    outer loop
      vertex 21.2944 34.5 10.9405
      vertex 21.4021 38.0763 10.7708
      vertex 21.4021 34.5 10.7708
    endloop
  endfacet
  facet normal 0 -1 -0
    outer loop
      vertex 21.2944 34.5 10.9405
      vertex 22.8918 34.5 11.5898
      vertex 22.6698 34.5 11.9397
    endloop
  endfacet
  facet normal -0.844327 0 0.535828
    outer loop
      vertex 21.2944 34.5 9.05954
      vertex 21.4021 34.5 9.22919
      vertex 21.4021 38.0763 9.22919
    endloop
  endfacet
  facet normal -0.844327 0 0.535828
    outer loop
      vertex 21.2944 34.5 9.05954
      vertex 21.4021 38.0763 9.22919
      vertex 21.2944 38.1199 9.05954
    endloop
  endfacet
  facet normal 0 -1 0
    outer loop
      vertex 21.2944 34.5 9.05954
      vertex 22.6698 34.5 8.06031
      vertex 22.8918 34.5 8.41021
    endloop
  endfacet
  facet normal 0 -1 0
    outer loop
      vertex 21.2944 34.5 9.05954
      vertex 22.8918 34.5 8.41021
      vertex 21.4021 34.5 9.22919
    endloop
  endfacet
  facet normal 9.74495e-08 0.968582 -0.248695
    outer loop
      vertex 21.2944 38.1199 10.9405
      vertex 30 38.1958 11.2361
      vertex 21.4021 38.0763 10.7708
    endloop
  endfacet
  facet normal 9.74495e-08 0.968582 0.248695
    outer loop
      vertex 21.2944 38.1199 9.05954
      vertex 21.4021 38.0763 9.22919
      vertex 30 38.1958 8.76393
    endloop
  endfacet
  facet normal -0.90483 0 -0.425774
    outer loop
      vertex 21.4021 34.5 10.7708
      vertex 21.4021 38.0763 10.7708
      vertex 21.4121 38.0709 10.7495
    endloop
  endfacet
  facet normal -0.904826 -6.5003e-08 -0.425783
    outer loop
      vertex 21.4021 34.5 10.7708
      vertex 21.4121 38.0709 10.7495
      vertex 21.4876 38.0506 10.589
    endloop
  endfacet
  facet normal 0 -1 0
    outer loop
      vertex 21.4021 34.5 10.7708
      vertex 21.4876 34.5 10.589
      vertex 23.0683 34.5 11.2148
    endloop
  endfacet
  facet normal -0.904826 0 -0.425781
    outer loop
      vertex 21.4021 34.5 10.7708
      vertex 21.4876 38.0506 10.589
      vertex 21.4876 34.5 10.589
    endloop
  endfacet
  facet normal 0 -1 -0
    outer loop
      vertex 21.4021 34.5 10.7708
      vertex 23.0683 34.5 11.2148
      vertex 22.8918 34.5 11.5898
    endloop
  endfacet
  facet normal -0.90483 0 0.425774
    outer loop
      vertex 21.4021 34.5 9.22919
      vertex 21.4121 38.0709 9.25047
      vertex 21.4021 38.0763 9.22919
    endloop
  endfacet
  facet normal -0.904826 0 0.425781
    outer loop
      vertex 21.4021 34.5 9.22919
      vertex 21.4876 34.5 9.411
      vertex 21.4876 38.0506 9.411
    endloop
  endfacet
  facet normal -0.904826 -6.5003e-08 0.425783
    outer loop
      vertex 21.4021 34.5 9.22919
      vertex 21.4876 38.0506 9.411
      vertex 21.4121 38.0709 9.25047
    endloop
  endfacet
  facet normal 0 -1 0
    outer loop
      vertex 21.4021 34.5 9.22919
      vertex 22.8918 34.5 8.41021
      vertex 23.0683 34.5 8.78519
    endloop
  endfacet
  facet normal 0 -1 0
    outer loop
      vertex 21.4021 34.5 9.22919
      vertex 23.0683 34.5 8.78519
      vertex 21.4876 34.5 9.411
    endloop
  endfacet
  facet normal -3.10648e-06 0.968596 -0.24864
    outer loop
      vertex 21.4021 38.0763 10.7708
      vertex 30 38.1958 11.2361
      vertex 21.4121 38.0709 10.7495
    endloop
  endfacet
  facet normal -3.10648e-06 0.968596 0.24864
    outer loop
      vertex 21.4021 38.0763 9.22919
      vertex 21.4121 38.0709 9.25047
      vertex 30 38.1958 8.76393
    endloop
  endfacet
  facet normal -0.481755 0 -0.876306
    outer loop
      vertex 21.4051 31.5 12.9859
      vertex 21.4051 34.5 12.9859
      vertex 21.7682 34.5 12.7863
    endloop
  endfacet
  facet normal 0 -1 0
    outer loop
      vertex 21.4051 31.5 12.9859
      vertex 21.7682 31.5 12.7863
      vertex 30 31.5 20
    endloop
  endfacet
  facet normal -0.481755 0 -0.876306
    outer loop
      vertex 21.4051 31.5 12.9859
      vertex 21.7682 34.5 12.7863
      vertex 21.7682 31.5 12.7863
    endloop
  endfacet
  facet normal -0.481755 0 0.876306
    outer loop
      vertex 21.4051 31.5 7.01407
      vertex 21.7682 31.5 7.21372
      vertex 21.4051 34.5 7.01407
    endloop
  endfacet
  facet normal 0 -1 0
    outer loop
      vertex 21.4051 31.5 7.01407
      vertex 30 31.5 0
      vertex 21.7682 31.5 7.21372
    endloop
  endfacet
  facet normal -0.481755 0 0.876306
    outer loop
      vertex 21.4051 34.5 7.01407
      vertex 21.7682 31.5 7.21372
      vertex 21.7682 34.5 7.21372
    endloop
  endfacet
  facet normal 0 0.992115 -0.125332
    outer loop
      vertex 21.4121 38.0709 10.7495
      vertex 30 38.0709 10.7495
      vertex 21.4876 38.0506 10.589
    endloop
  endfacet
  facet normal 0 0.968583 -0.248691
    outer loop
      vertex 21.4121 38.0709 10.7495
      vertex 30 38.1958 11.2361
      vertex 30 38.0709 10.7495
    endloop
  endfacet
  facet normal 0 0.992115 0.125332
    outer loop
      vertex 21.4121 38.0709 9.25047
      vertex 21.4876 38.0506 9.411
      vertex 30 38.0709 9.25047
    endloop
  endfacet
  facet normal 0 0.968583 0.248691
    outer loop
      vertex 21.4121 38.0709 9.25047
      vertex 30 38.0709 9.25047
      vertex 30 38.1958 8.76393
    endloop
  endfacet
  facet normal -0.951058 0 -0.309014
    outer loop
      vertex 21.4876 34.5 10.589
      vertex 21.4876 38.0506 10.589
      vertex 21.5497 38.0264 10.3979
    endloop
  endfacet
  facet normal 0 -1 0
    outer loop
      vertex 21.4876 34.5 10.589
      vertex 21.5497 34.5 10.3979
      vertex 23.1963 34.5 10.8207
    endloop
  endfacet
  facet normal -0.951058 0 -0.309014
    outer loop
      vertex 21.4876 34.5 10.589
      vertex 21.5497 38.0264 10.3979
      vertex 21.5497 34.5 10.3979
    endloop
  endfacet
  facet normal 0 -1 -0
    outer loop
      vertex 21.4876 34.5 10.589
      vertex 23.1963 34.5 10.8207
      vertex 23.0683 34.5 11.2148
    endloop
  endfacet
  facet normal -0.951058 0 0.309014
    outer loop
      vertex 21.4876 34.5 9.411
      vertex 21.5497 34.5 9.6021
      vertex 21.5497 38.0264 9.6021
    endloop
  endfacet
  facet normal -0.951058 0 0.309014
    outer loop
      vertex 21.4876 34.5 9.411
      vertex 21.5497 38.0264 9.6021
      vertex 21.4876 38.0506 9.411
    endloop
  endfacet
  facet normal 0 -1 0
    outer loop
      vertex 21.4876 34.5 9.411
      vertex 23.0683 34.5 8.78519
      vertex 23.1963 34.5 9.17932
    endloop
  endfacet
  facet normal 0 -1 0
    outer loop
      vertex 21.4876 34.5 9.411
      vertex 23.1963 34.5 9.17932
      vertex 21.5497 34.5 9.6021
    endloop
  endfacet
  facet normal -1.2168e-07 0.992116 -0.125325
    outer loop
      vertex 21.4876 38.0506 10.589
      vertex 30 38.0709 10.7495
      vertex 21.5497 38.0264 10.3979
    endloop
  endfacet
  facet normal -1.2168e-07 0.992116 0.125325
    outer loop
      vertex 21.4876 38.0506 9.411
      vertex 21.5497 38.0264 9.6021
      vertex 30 38.0709 9.25047
    endloop
  endfacet
  facet normal -0.982288 0 -0.18738
    outer loop
      vertex 21.5497 34.5 10.3979
      vertex 21.5497 38.0264 10.3979
      vertex 21.5777 38.0079 10.2512
    endloop
  endfacet
  facet normal -0.982287 -2.01791e-07 -0.187384
    outer loop
      vertex 21.5497 34.5 10.3979
      vertex 21.5777 38.0079 10.2512
      vertex 21.5874 34.5 10.2005
    endloop
  endfacet
  facet normal 0 -1 0
    outer loop
      vertex 21.5497 34.5 10.3979
      vertex 21.5874 34.5 10.2005
      vertex 23.274 34.5 10.4136
    endloop
  endfacet
  facet normal 0 -1 -0
    outer loop
      vertex 21.5497 34.5 10.3979
      vertex 23.274 34.5 10.4136
      vertex 23.1963 34.5 10.8207
    endloop
  endfacet
  facet normal -0.982288 0 0.18738
    outer loop
      vertex 21.5497 34.5 9.6021
      vertex 21.5777 38.0079 9.74884
      vertex 21.5497 38.0264 9.6021
    endloop
  endfacet
  facet normal -0.982287 -2.01791e-07 0.187384
    outer loop
      vertex 21.5497 34.5 9.6021
      vertex 21.5874 34.5 9.79947
      vertex 21.5777 38.0079 9.74884
    endloop
  endfacet
  facet normal 0 -1 0
    outer loop
      vertex 21.5497 34.5 9.6021
      vertex 23.1963 34.5 9.17932
      vertex 23.274 34.5 9.5864
    endloop
  endfacet
  facet normal 0 -1 0
    outer loop
      vertex 21.5497 34.5 9.6021
      vertex 23.274 34.5 9.5864
      vertex 21.5874 34.5 9.79947
    endloop
  endfacet
  facet normal 6.62571e-07 0.992113 -0.125344
    outer loop
      vertex 21.5497 38.0264 10.3979
      vertex 30 38.0709 10.7495
      vertex 21.5777 38.0079 10.2512
    endloop
  endfacet
  facet normal 6.62571e-07 0.992113 0.125344
    outer loop
      vertex 21.5497 38.0264 9.6021
      vertex 21.5777 38.0079 9.74884
      vertex 30 38.0709 9.25047
    endloop
  endfacet
  facet normal -0.982284 -0 -0.187398
    outer loop
      vertex 21.5777 38.0079 10.2512
      vertex 21.5874 38.0079 10.2005
      vertex 21.5874 34.5 10.2005
    endloop
  endfacet
  facet normal 0 1 0
    outer loop
      vertex 21.5777 38.0079 10.2512
      vertex 30 38.0079 10.2512
      vertex 21.5874 38.0079 10.2005
    endloop
  endfacet
  facet normal 0 0.992115 -0.125333
    outer loop
      vertex 21.5777 38.0079 10.2512
      vertex 30 38.0709 10.7495
      vertex 30 38.0079 10.2512
    endloop
  endfacet
  facet normal -0.982284 0 0.187398
    outer loop
      vertex 21.5777 38.0079 9.74884
      vertex 21.5874 34.5 9.79947
      vertex 21.5874 38.0079 9.79947
    endloop
  endfacet
  facet normal 0 1 0
    outer loop
      vertex 21.5777 38.0079 9.74884
      vertex 21.5874 38.0079 9.79947
      vertex 30 38.0079 9.74884
    endloop
  endfacet
  facet normal 0 0.992115 0.125333
    outer loop
      vertex 21.5777 38.0079 9.74884
      vertex 30 38.0079 9.74884
      vertex 30 38.0709 9.25047
    endloop
  endfacet
  facet normal -0.998028 -0 -0.0627739
    outer loop
      vertex 21.5874 34.5 10.2005
      vertex 21.5874 38.0079 10.2005
      vertex 21.5913 34.5 10.1384
    endloop
  endfacet
  facet normal 0 -1 0
    outer loop
      vertex 21.5874 34.5 10.2005
      vertex 21.5913 34.5 10.1384
      vertex 23.274 34.5 10.4136
    endloop
  endfacet
  facet normal -0.998027 -2.55529e-08 0.062789
    outer loop
      vertex 21.5874 34.5 9.79947
      vertex 21.5961 34.5 9.93783
      vertex 21.597 38.0079 9.9519
    endloop
  endfacet
  facet normal -0.998027 0 0.0627884
    outer loop
      vertex 21.5874 34.5 9.79947
      vertex 21.597 38.0079 9.9519
      vertex 21.5874 38.0079 9.79947
    endloop
  endfacet
  facet normal 0 -1 0
    outer loop
      vertex 21.5874 34.5 9.79947
      vertex 23.274 34.5 9.5864
      vertex 21.5961 34.5 9.93783
    endloop
  endfacet
  facet normal -0.998028 -4.56223e-08 -0.0627713
    outer loop
      vertex 21.5874 38.0079 10.2005
      vertex 21.5904 38.0079 10.1524
      vertex 21.5913 34.5 10.1384
    endloop
  endfacet
  facet normal 0 1 0
    outer loop
      vertex 21.5874 38.0079 10.2005
      vertex 30 38.0079 10.2512
      vertex 21.5904 38.0079 10.1524
    endloop
  endfacet
  facet normal 0 1 0
    outer loop
      vertex 21.5874 38.0079 9.79947
      vertex 21.597 38.0079 9.9519
      vertex 30 38.0079 9.74884
    endloop
  endfacet
  facet normal -0.998027 2.38172e-08 -0.0627885
    outer loop
      vertex 21.5904 38.0079 10.1524
      vertex 21.6 34.5 10
      vertex 21.5913 34.5 10.1384
    endloop
  endfacet
  facet normal -0.998027 0 -0.062788
    outer loop
      vertex 21.5904 38.0079 10.1524
      vertex 21.6 38.0079 10
      vertex 21.6 34.5 10
    endloop
  endfacet
  facet normal 0 1 0
    outer loop
      vertex 21.5904 38.0079 10.1524
      vertex 30 38.0079 10.2512
      vertex 21.6 38.0079 10
    endloop
  endfacet
  facet normal 0 -1 0
    outer loop
      vertex 21.5913 34.5 10.1384
      vertex 21.6 34.5 10
      vertex 23.3 34.5 10
    endloop
  endfacet
  facet normal 0 -1 0
    outer loop
      vertex 21.5913 34.5 10.1384
      vertex 23.3 34.5 10
      vertex 23.274 34.5 10.4136
    endloop
  endfacet
  facet normal -0.998028 0 0.0627739
    outer loop
      vertex 21.5961 34.5 9.93783
      vertex 21.6 34.5 10
      vertex 21.6 38.0079 10
    endloop
  endfacet
  facet normal -0.998028 4.56223e-08 0.0627713
    outer loop
      vertex 21.5961 34.5 9.93783
      vertex 21.6 38.0079 10
      vertex 21.597 38.0079 9.9519
    endloop
  endfacet
  facet normal 0 -1 0
    outer loop
      vertex 21.5961 34.5 9.93783
      vertex 23.274 34.5 9.5864
      vertex 23.3 34.5 10
    endloop
  endfacet
  facet normal 0 -1 0
    outer loop
      vertex 21.5961 34.5 9.93783
      vertex 23.3 34.5 10
      vertex 21.6 34.5 10
    endloop
  endfacet
  facet normal 0 1 0
    outer loop
      vertex 21.597 38.0079 9.9519
      vertex 21.6 38.0079 10
      vertex 30 38.0079 9.74884
    endloop
  endfacet
  facet normal 0 1 -0
    outer loop
      vertex 21.6 38.0079 10
      vertex 30 38.0079 10.2512
      vertex 30 38.0079 9.74884
    endloop
  endfacet
  facet normal -0.587784 0 -0.809018
    outer loop
      vertex 21.7682 31.5 12.7863
      vertex 21.7682 34.5 12.7863
      vertex 22.1035 34.5 12.5427
    endloop
  endfacet
  facet normal 0 -1 0
    outer loop
      vertex 21.7682 31.5 12.7863
      vertex 22.1035 31.5 12.5427
      vertex 30 31.5 20
    endloop
  endfacet
  facet normal -0.587784 0 -0.809018
    outer loop
      vertex 21.7682 31.5 12.7863
      vertex 22.1035 34.5 12.5427
      vertex 22.1035 31.5 12.5427
    endloop
  endfacet
  facet normal -0.587784 0 0.809018
    outer loop
      vertex 21.7682 31.5 7.21372
      vertex 22.1035 31.5 7.45731
      vertex 21.7682 34.5 7.21372
    endloop
  endfacet
  facet normal 0 -1 0
    outer loop
      vertex 21.7682 31.5 7.21372
      vertex 30 31.5 0
      vertex 22.1035 31.5 7.45731
    endloop
  endfacet
  facet normal -0.587784 0 0.809018
    outer loop
      vertex 21.7682 34.5 7.21372
      vertex 22.1035 31.5 7.45731
      vertex 22.1035 34.5 7.45731
    endloop
  endfacet
  facet normal -0.684547 0 -0.728968
    outer loop
      vertex 22.1035 31.5 12.5427
      vertex 22.1035 34.5 12.5427
      vertex 22.4056 34.5 12.259
    endloop
  endfacet
  facet normal 0 -1 0
    outer loop
      vertex 22.1035 31.5 12.5427
      vertex 22.4056 31.5 12.259
      vertex 30 31.5 20
    endloop
  endfacet
  facet normal -0.684547 0 -0.728968
    outer loop
      vertex 22.1035 31.5 12.5427
      vertex 22.4056 34.5 12.259
      vertex 22.4056 31.5 12.259
    endloop
  endfacet
  facet normal -0.684547 0 0.728968
    outer loop
      vertex 22.1035 31.5 7.45731
      vertex 22.4056 31.5 7.74099
      vertex 22.1035 34.5 7.45731
    endloop
  endfacet
  facet normal 0 -1 0
    outer loop
      vertex 22.1035 31.5 7.45731
      vertex 30 31.5 0
      vertex 22.4056 31.5 7.74099
    endloop
  endfacet
  facet normal -0.684547 0 0.728968
    outer loop
      vertex 22.1035 34.5 7.45731
      vertex 22.4056 31.5 7.74099
      vertex 22.4056 34.5 7.74099
    endloop
  endfacet
  facet normal -0.770512 -0 -0.637425
    outer loop
      vertex 22.4056 31.5 12.259
      vertex 22.4056 34.5 12.259
      vertex 22.6698 31.5 11.9397
    endloop
  endfacet
  facet normal 0 -1 0
    outer loop
      vertex 22.4056 31.5 12.259
      vertex 22.6698 31.5 11.9397
      vertex 30 31.5 20
    endloop
  endfacet
  facet normal -0.770512 0 0.637425
    outer loop
      vertex 22.4056 31.5 7.74099
      vertex 22.6698 31.5 8.06031
      vertex 22.6698 34.5 8.06031
    endloop
  endfacet
  facet normal -0.770512 0 0.637425
    outer loop
      vertex 22.4056 31.5 7.74099
      vertex 22.6698 34.5 8.06031
      vertex 22.4056 34.5 7.74099
    endloop
  endfacet
  facet normal 0 -1 0
    outer loop
      vertex 22.4056 31.5 7.74099
      vertex 30 31.5 0
      vertex 22.6698 31.5 8.06031
    endloop
  endfacet
  facet normal -0.770512 0 -0.637425
    outer loop
      vertex 22.4056 34.5 12.259
      vertex 22.6698 34.5 11.9397
      vertex 22.6698 31.5 11.9397
    endloop
  endfacet
  facet normal -0.844328 -0 -0.535826
    outer loop
      vertex 22.6698 31.5 11.9397
      vertex 22.6698 34.5 11.9397
      vertex 22.8918 31.5 11.5898
    endloop
  endfacet
  facet normal 0 -1 0
    outer loop
      vertex 22.6698 31.5 11.9397
      vertex 22.8918 31.5 11.5898
      vertex 30 31.5 20
    endloop
  endfacet
  facet normal -0.844328 0 0.535826
    outer loop
      vertex 22.6698 31.5 8.06031
      vertex 22.8918 31.5 8.41021
      vertex 22.8918 34.5 8.41021
    endloop
  endfacet
  facet normal -0.844328 0 0.535826
    outer loop
      vertex 22.6698 31.5 8.06031
      vertex 22.8918 34.5 8.41021
      vertex 22.6698 34.5 8.06031
    endloop
  endfacet
  facet normal 0 -1 0
    outer loop
      vertex 22.6698 31.5 8.06031
      vertex 30 31.5 0
      vertex 22.8918 31.5 8.41021
    endloop
  endfacet
  facet normal -0.844328 0 -0.535826
    outer loop
      vertex 22.6698 34.5 11.9397
      vertex 22.8918 34.5 11.5898
      vertex 22.8918 31.5 11.5898
    endloop
  endfacet
  facet normal -0.904827 -0 -0.42578
    outer loop
      vertex 22.8918 31.5 11.5898
      vertex 22.8918 34.5 11.5898
      vertex 23.0683 31.5 11.2148
    endloop
  endfacet
  facet normal 0 -1 0
    outer loop
      vertex 22.8918 31.5 11.5898
      vertex 23.0683 31.5 11.2148
      vertex 30 31.5 20
    endloop
  endfacet
  facet normal -0.904827 0 0.42578
    outer loop
      vertex 22.8918 31.5 8.41021
      vertex 23.0683 31.5 8.78519
      vertex 23.0683 34.5 8.78519
    endloop
  endfacet
  facet normal -0.904827 0 0.42578
    outer loop
      vertex 22.8918 31.5 8.41021
      vertex 23.0683 34.5 8.78519
      vertex 22.8918 34.5 8.41021
    endloop
  endfacet
  facet normal 0 -1 0
    outer loop
      vertex 22.8918 31.5 8.41021
      vertex 30 31.5 0
      vertex 23.0683 31.5 8.78519
    endloop
  endfacet
  facet normal -0.904827 0 -0.42578
    outer loop
      vertex 22.8918 34.5 11.5898
      vertex 23.0683 34.5 11.2148
      vertex 23.0683 31.5 11.2148
    endloop
  endfacet
  facet normal -0.951057 -0 -0.309015
    outer loop
      vertex 23.0683 31.5 11.2148
      vertex 23.0683 34.5 11.2148
      vertex 23.1963 31.5 10.8207
    endloop
  endfacet
  facet normal 0 -1 0
    outer loop
      vertex 23.0683 31.5 11.2148
      vertex 23.1963 31.5 10.8207
      vertex 30 31.5 20
    endloop
  endfacet
  facet normal -0.951057 0 0.309015
    outer loop
      vertex 23.0683 31.5 8.78519
      vertex 23.1963 31.5 9.17932
      vertex 23.1963 34.5 9.17932
    endloop
  endfacet
  facet normal -0.951057 0 0.309015
    outer loop
      vertex 23.0683 31.5 8.78519
      vertex 23.1963 34.5 9.17932
      vertex 23.0683 34.5 8.78519
    endloop
  endfacet
  facet normal 0 -1 0
    outer loop
      vertex 23.0683 31.5 8.78519
      vertex 30 31.5 0
      vertex 23.1963 31.5 9.17932
    endloop
  endfacet
  facet normal -0.951057 0 -0.309015
    outer loop
      vertex 23.0683 34.5 11.2148
      vertex 23.1963 34.5 10.8207
      vertex 23.1963 31.5 10.8207
    endloop
  endfacet
  facet normal -0.982286 -0 -0.187385
    outer loop
      vertex 23.1963 31.5 10.8207
      vertex 23.1963 34.5 10.8207
      vertex 23.274 31.5 10.4136
    endloop
  endfacet
  facet normal 0 -1 0
    outer loop
      vertex 23.1963 31.5 10.8207
      vertex 23.274 31.5 10.4136
      vertex 30 31.5 20
    endloop
  endfacet
  facet normal -0.982286 0 0.187385
    outer loop
      vertex 23.1963 31.5 9.17932
      vertex 23.274 31.5 9.5864
      vertex 23.274 34.5 9.5864
    endloop
  endfacet
  facet normal -0.982286 0 0.187385
    outer loop
      vertex 23.1963 31.5 9.17932
      vertex 23.274 34.5 9.5864
      vertex 23.1963 34.5 9.17932
    endloop
  endfacet
  facet normal 0 -1 0
    outer loop
      vertex 23.1963 31.5 9.17932
      vertex 30 31.5 0
      vertex 23.274 31.5 9.5864
    endloop
  endfacet
  facet normal -0.982286 0 -0.187385
    outer loop
      vertex 23.1963 34.5 10.8207
      vertex 23.274 34.5 10.4136
      vertex 23.274 31.5 10.4136
    endloop
  endfacet
  facet normal -0.998027 -0 -0.062787
    outer loop
      vertex 23.274 31.5 10.4136
      vertex 23.274 34.5 10.4136
      vertex 23.3 31.5 10
    endloop
  endfacet
  facet normal 0 -1 0
    outer loop
      vertex 23.274 31.5 10.4136
      vertex 23.3 31.5 10
      vertex 30 31.5 20
    endloop
  endfacet
  facet normal -0.998027 0 0.0627872
    outer loop
      vertex 23.274 31.5 9.5864
      vertex 23.3 31.5 10
      vertex 23.3 34.5 10
    endloop
  endfacet
  facet normal -0.998027 0 0.0627872
    outer loop
      vertex 23.274 31.5 9.5864
      vertex 23.3 34.5 10
      vertex 23.274 34.5 9.5864
    endloop
  endfacet
  facet normal 0 -1 0
    outer loop
      vertex 23.274 31.5 9.5864
      vertex 30 31.5 0
      vertex 23.3 31.5 10
    endloop
  endfacet
  facet normal -0.998027 0 -0.062787
    outer loop
      vertex 23.274 34.5 10.4136
      vertex 23.3 34.5 10
      vertex 23.3 31.5 10
    endloop
  endfacet
  facet normal 0 -1 0
    outer loop
      vertex 23.3 31.5 10
      vertex 30 31.5 0
      vertex 30 31.5 20
    endloop
  endfacet
  facet normal 1 0 0
    outer loop
      vertex 30 31.5 0
      vertex 30 38.0079 9.74884
      vertex 30 31.5 20
    endloop
  endfacet
  facet normal 1 0 0
    outer loop
      vertex 30 31.5 0
      vertex 30 38.0709 9.25047
      vertex 30 38.0079 9.74884
    endloop
  endfacet
  facet normal 1 0 0
    outer loop
      vertex 30 31.5 0
      vertex 30 38.1958 8.76393
      vertex 30 38.0709 9.25047
    endloop
  endfacet
  facet normal 1 0 0
    outer loop
      vertex 30 31.5 0
      vertex 30 38.3807 8.29688
      vertex 30 38.1958 8.76393
    endloop
  endfacet
  facet normal 1 0 0
    outer loop
      vertex 30 31.5 0
      vertex 30 38.6227 7.85669
      vertex 30 38.3807 8.29688
    endloop
  endfacet
  facet normal 1 0 0
    outer loop
      vertex 30 31.5 0
      vertex 30 38.9179 7.4503
      vertex 30 38.6227 7.85669
    endloop
  endfacet
  facet normal 1 0 0
    outer loop
      vertex 30 31.5 0
      vertex 30 39.2618 7.08412
      vertex 30 38.9179 7.4503
    endloop
  endfacet
  facet normal 1 0 0
    outer loop
      vertex 30 31.5 0
      vertex 30 39.6489 6.76393
      vertex 30 39.2618 7.08412
    endloop
  endfacet
  facet normal 1 0 0
    outer loop
      vertex 30 31.5 0
      vertex 30 42 0
      vertex 30 39.6489 6.76393
    endloop
  endfacet
  facet normal 1 0 0
    outer loop
      vertex 30 31.5 20
      vertex 30 38.0079 10.2512
      vertex 30 38.0709 10.7495
    endloop
  endfacet
  facet normal 1 0 0
    outer loop
      vertex 30 31.5 20
      vertex 30 38.0079 9.74884
      vertex 30 38.0079 10.2512
    endloop
  endfacet
  facet normal 1 0 0
    outer loop
      vertex 30 31.5 20
      vertex 30 38.0709 10.7495
      vertex 30 38.1958 11.2361
    endloop
  endfacet
  facet normal 1 0 0
    outer loop
      vertex 30 31.5 20
      vertex 30 38.1958 11.2361
      vertex 30 38.3807 11.7031
    endloop
  endfacet
  facet normal 1 0 0
    outer loop
      vertex 30 31.5 20
      vertex 30 38.3807 11.7031
      vertex 30 38.6227 12.1433
    endloop
  endfacet
  facet normal 1 0 0
    outer loop
      vertex 30 31.5 20
      vertex 30 38.6227 12.1433
      vertex 30 38.9179 12.5497
    endloop
  endfacet
  facet normal 1 0 0
    outer loop
      vertex 30 31.5 20
      vertex 30 38.9179 12.5497
      vertex 30 39.2618 12.9159
    endloop
  endfacet
  facet normal 1 0 0
    outer loop
      vertex 30 31.5 20
      vertex 30 39.2618 12.9159
      vertex 30 39.6489 13.2361
    endloop
  endfacet
  facet normal 1 -0 0
    outer loop
      vertex 30 31.5 20
      vertex 30 39.6489 13.2361
      vertex 30 42 20
    endloop
  endfacet
  facet normal 1 0 0
    outer loop
      vertex 30 39.6489 13.2361
      vertex 30 40.073 13.5052
      vertex 30 42 20
    endloop
  endfacet
  facet normal 1 0 0
    outer loop
      vertex 30 39.6489 6.76393
      vertex 30 42 0
      vertex 30 40.073 6.49477
    endloop
  endfacet
  facet normal 1 0 0
    outer loop
      vertex 30 40.073 13.5052
      vertex 30 40.5275 13.7191
      vertex 30 42 20
    endloop
  endfacet
  facet normal 1 0 0
    outer loop
      vertex 30 40.073 6.49477
      vertex 30 42 0
      vertex 30 40.5275 6.28089
    endloop
  endfacet
  facet normal 1 0 0
    outer loop
      vertex 30 40.5275 13.7191
      vertex 30 41.0052 13.8743
      vertex 30 42 20
    endloop
  endfacet
  facet normal 1 0 0
    outer loop
      vertex 30 40.5275 6.28089
      vertex 30 42 0
      vertex 30 41.0052 6.12567
    endloop
  endfacet
  facet normal 1 0 0
    outer loop
      vertex 30 41.0052 13.8743
      vertex 30 41.4987 13.9685
      vertex 30 42 20
    endloop
  endfacet
  facet normal 1 0 0
    outer loop
      vertex 30 41.0052 6.12567
      vertex 30 42 0
      vertex 30 41.4987 6.03154
    endloop
  endfacet
  facet normal 1 0 0
    outer loop
      vertex 30 41.4987 13.9685
      vertex 30 42 14
      vertex 30 42 20
    endloop
  endfacet
  facet normal 1 0 0
    outer loop
      vertex 30 41.4987 6.03154
      vertex 30 42 0
      vertex 30 42 6
    endloop
  endfacet
endsolid model
