solid model
  facet normal -1 0 0
    outer loop
      vertex 10 30.9 0
      vertex 10 30.9 20
      vertex 10 38.0103 10.3265
    endloop
  endfacet
  facet normal -1 -0 0
    outer loop
      vertex 10 30.9 0
      vertex 10 38.0103 10.3265
      vertex 10 38.0103 9.67349
    endloop
  endfacet
  facet normal -1 -0 0
    outer loop
      vertex 10 30.9 0
      vertex 10 38.0103 9.67349
      vertex 10 38.0921 9.02562
    endloop
  endfacet
  facet normal -1 -0 0
    outer loop
      vertex 10 30.9 0
      vertex 10 38.0921 9.02562
      vertex 10 38.2545 8.39311
    endloop
  endfacet
  facet normal -1 -0 0
    outer loop
      vertex 10 30.9 0
      vertex 10 38.2545 8.39311
      vertex 10 38.4949 7.78595
    endloop
  endfacet
  facet normal -1 -0 0
    outer loop
      vertex 10 30.9 0
      vertex 10 38.4949 7.78595
      vertex 10 38.8095 7.2137
    endloop
  endfacet
  facet normal -1 -0 0
    outer loop
      vertex 10 30.9 0
      vertex 10 38.8095 7.2137
      vertex 10 39.1933 6.6854
    endloop
  endfacet
  facet normal -1 -0 0
    outer loop
      vertex 10 30.9 0
      vertex 10 39.1933 6.6854
      vertex 10 39.6404 6.20936
    endloop
  endfacet
  facet normal -1 -0 0
    outer loop
      vertex 10 30.9 0
      vertex 10 39.6404 6.20936
      vertex 10 40.1435 5.79311
    endloop
  endfacet
  facet normal -1 0 0
    outer loop
      vertex 10 30.9 0
      vertex 10 40.1435 5.79311
      vertex 10 43.2 0
    endloop
  endfacet
  facet normal -0 0 -1
    outer loop
      vertex 10 30.9 0
      vertex 10 43.2 0
      vertex 30 43.2 0
    endloop
  endfacet
  facet normal 0 -1 0
    outer loop
      vertex 10 30.9 0
      vertex 16.7 30.9 10
      vertex 10 30.9 20
    endloop
  endfacet
  facet normal 0 -1 -0
    outer loop
      vertex 10 30.9 0
      vertex 16.726 30.9 9.5864
      vertex 16.7 30.9 10
    endloop
  endfacet
  facet normal 0 -1 -0
    outer loop
      vertex 10 30.9 0
      vertex 16.8037 30.9 9.17932
      vertex 16.726 30.9 9.5864
    endloop
  endfacet
  facet normal 0 -1 -0
    outer loop
      vertex 10 30.9 0
      vertex 16.9317 30.9 8.78519
      vertex 16.8037 30.9 9.17932
    endloop
  endfacet
  facet normal 0 -1 -0
    outer loop
      vertex 10 30.9 0
      vertex 17.1082 30.9 8.41021
      vertex 16.9317 30.9 8.78519
    endloop
  endfacet
  facet normal 0 -1 -0
    outer loop
      vertex 10 30.9 0
      vertex 17.3302 30.9 8.06031
      vertex 17.1082 30.9 8.41021
    endloop
  endfacet
  facet normal 0 -1 -0
    outer loop
      vertex 10 30.9 0
      vertex 17.5944 30.9 7.74099
      vertex 17.3302 30.9 8.06031
    endloop
  endfacet
  facet normal 0 -1 -0
    outer loop
      vertex 10 30.9 0
      vertex 17.8965 30.9 7.45731
      vertex 17.5944 30.9 7.74099
    endloop
  endfacet
  facet normal 0 -1 -0
    outer loop
      vertex 10 30.9 0
      vertex 18.2318 30.9 7.21372
      vertex 17.8965 30.9 7.45731
    endloop
  endfacet
  facet normal 0 -1 -0
    outer loop
      vertex 10 30.9 0
      vertex 18.5949 30.9 7.01407
      vertex 18.2318 30.9 7.21372
    endloop
  endfacet
  facet normal 0 -1 -0
    outer loop
      vertex 10 30.9 0
      vertex 18.9802 30.9 6.86151
      vertex 18.5949 30.9 7.01407
    endloop
  endfacet
  facet normal 0 -1 -0
    outer loop
      vertex 10 30.9 0
      vertex 19.3816 30.9 6.75845
      vertex 18.9802 30.9 6.86151
    endloop
  endfacet
  facet normal 0 -1 -0
    outer loop
      vertex 10 30.9 0
      vertex 19.7928 30.9 6.70651
      vertex 19.3816 30.9 6.75845
    endloop
  endfacet
  facet normal 0 -1 -0
    outer loop
      vertex 10 30.9 0
      vertex 20.2072 30.9 6.70651
      vertex 19.7928 30.9 6.70651
    endloop
  endfacet
  facet normal 0 -1 0
    outer loop
      vertex 10 30.9 0
      vertex 30 30.9 0
      vertex 20.2072 30.9 6.70651
    endloop
  endfacet
  facet normal 0 0 -1
    outer loop
      vertex 10 30.9 0
      vertex 30 43.2 0
      vertex 30 30.9 0
    endloop
  endfacet
  facet normal -1 0 0
    outer loop
      vertex 10 30.9 20
      vertex 10 38.0921 10.9744
      vertex 10 38.0103 10.3265
    endloop
  endfacet
  facet normal -1 0 0
    outer loop
      vertex 10 30.9 20
      vertex 10 38.2545 11.6069
      vertex 10 38.0921 10.9744
    endloop
  endfacet
  facet normal -1 0 0
    outer loop
      vertex 10 30.9 20
      vertex 10 38.4949 12.2141
      vertex 10 38.2545 11.6069
    endloop
  endfacet
  facet normal -1 0 0
    outer loop
      vertex 10 30.9 20
      vertex 10 38.8095 12.7863
      vertex 10 38.4949 12.2141
    endloop
  endfacet
  facet normal -1 0 0
    outer loop
      vertex 10 30.9 20
      vertex 10 39.1933 13.3146
      vertex 10 38.8095 12.7863
    endloop
  endfacet
  facet normal -1 0 0
    outer loop
      vertex 10 30.9 20
      vertex 10 39.6404 13.7906
      vertex 10 39.1933 13.3146
    endloop
  endfacet
  facet normal -1 0 0
    outer loop
      vertex 10 30.9 20
      vertex 10 40.1435 14.2069
      vertex 10 39.6404 13.7906
    endloop
  endfacet
  facet normal -1 0 0
    outer loop
      vertex 10 30.9 20
      vertex 10 43.2 20
      vertex 10 40.1435 14.2069
    endloop
  endfacet
  facet normal 0 -1 0
    outer loop
      vertex 10 30.9 20
      vertex 16.7 30.9 10
      vertex 16.726 30.9 10.4136
    endloop
  endfacet
  facet normal 0 -1 0
    outer loop
      vertex 10 30.9 20
      vertex 16.726 30.9 10.4136
      vertex 16.8037 30.9 10.8207
    endloop
  endfacet
  facet normal 0 -1 0
    outer loop
      vertex 10 30.9 20
      vertex 16.8037 30.9 10.8207
      vertex 16.9317 30.9 11.2148
    endloop
  endfacet
  facet normal 0 -1 0
    outer loop
      vertex 10 30.9 20
      vertex 16.9317 30.9 11.2148
      vertex 17.1082 30.9 11.5898
    endloop
  endfacet
  facet normal 0 -1 0
    outer loop
      vertex 10 30.9 20
      vertex 17.1082 30.9 11.5898
      vertex 17.3302 30.9 11.9397
    endloop
  endfacet
  facet normal 0 -1 0
    outer loop
      vertex 10 30.9 20
      vertex 17.3302 30.9 11.9397
      vertex 17.5944 30.9 12.259
    endloop
  endfacet
  facet normal 0 -1 0
    outer loop
      vertex 10 30.9 20
      vertex 17.5944 30.9 12.259
      vertex 17.8965 30.9 12.5427
    endloop
  endfacet
  facet normal 0 -1 0
    outer loop
      vertex 10 30.9 20
      vertex 17.8965 30.9 12.5427
      vertex 18.2318 30.9 12.7863
    endloop
  endfacet
  facet normal 0 -1 0
    outer loop
      vertex 10 30.9 20
      vertex 18.2318 30.9 12.7863
      vertex 18.5949 30.9 12.9859
    endloop
  endfacet
  facet normal 0 -1 0
    outer loop
      vertex 10 30.9 20
      vertex 18.5949 30.9 12.9859
      vertex 18.9802 30.9 13.1385
    endloop
  endfacet
  facet normal 0 -1 0
    outer loop
      vertex 10 30.9 20
      vertex 18.9802 30.9 13.1385
      vertex 19.3816 30.9 13.2415
    endloop
  endfacet
  facet normal 0 -1 0
    outer loop
      vertex 10 30.9 20
      vertex 19.3816 30.9 13.2415
      vertex 19.7928 30.9 13.2935
    endloop
  endfacet
  facet normal 0 -1 0
    outer loop
      vertex 10 30.9 20
      vertex 19.7928 30.9 13.2935
      vertex 30 30.9 20
    endloop
  endfacet
  facet normal 0 0 1
    outer loop
      vertex 10 30.9 20
      vertex 30 30.9 20
      vertex 10 43.2 20
    endloop
  endfacet
  facet normal 0 0.992124 -0.12526
    outer loop
      vertex 10 38.0103 10.3265
      vertex 10 38.0921 10.9744
      vertex 18.4366 38.0103 10.3265
    endloop
  endfacet
  facet normal 0 1 -0
    outer loop
      vertex 10 38.0103 10.3265
      vertex 18.4126 38.0103 10.2005
      vertex 18.4 38.0103 10
    endloop
  endfacet
  facet normal 0 1 -0
    outer loop
      vertex 10 38.0103 10.3265
      vertex 18.4366 38.0103 10.3265
      vertex 18.4126 38.0103 10.2005
    endloop
  endfacet
  facet normal 0 1 0
    outer loop
      vertex 10 38.0103 9.67349
      vertex 10 38.0103 10.3265
      vertex 18.4 38.0103 10
    endloop
  endfacet
  facet normal 0 1 0
    outer loop
      vertex 10 38.0103 9.67349
      vertex 18.4 38.0103 10
      vertex 18.4126 38.0103 9.79947
    endloop
  endfacet
  facet normal 0 1 0
    outer loop
      vertex 10 38.0103 9.67349
      vertex 18.4126 38.0103 9.79947
      vertex 18.4366 38.0103 9.67349
    endloop
  endfacet
  facet normal 0 0.992123 0.125265
    outer loop
      vertex 10 38.0103 9.67349
      vertex 18.4366 38.0103 9.67349
      vertex 10 38.0921 9.02562
    endloop
  endfacet
  facet normal 0 0.968583 -0.248692
    outer loop
      vertex 10 38.0921 10.9744
      vertex 10 38.2545 11.6069
      vertex 18.7336 38.0921 10.9744
    endloop
  endfacet
  facet normal 1.52901e-05 0.992149 -0.125064
    outer loop
      vertex 10 38.0921 10.9744
      vertex 18.4503 38.0193 10.3979
      vertex 18.4366 38.0103 10.3265
    endloop
  endfacet
  facet normal 1.10775e-05 0.992141 -0.125124
    outer loop
      vertex 10 38.0921 10.9744
      vertex 18.5124 38.0434 10.589
      vertex 18.4503 38.0193 10.3979
    endloop
  endfacet
  facet normal -6.61602e-06 0.992092 -0.125509
    outer loop
      vertex 10 38.0921 10.9744
      vertex 18.5979 38.0664 10.7708
      vertex 18.5124 38.0434 10.589
    endloop
  endfacet
  facet normal 2.84715e-06 0.992142 -0.125116
    outer loop
      vertex 10 38.0921 10.9744
      vertex 18.7056 38.0878 10.9405
      vertex 18.5979 38.0664 10.7708
    endloop
  endfacet
  facet normal 0 0.992051 -0.125835
    outer loop
      vertex 10 38.0921 10.9744
      vertex 18.7336 38.0921 10.9744
      vertex 18.7056 38.0878 10.9405
    endloop
  endfacet
  facet normal 1.44025e-05 0.992147 0.125081
    outer loop
      vertex 10 38.0921 9.02562
      vertex 18.4366 38.0103 9.67349
      vertex 18.4503 38.0193 9.6021
    endloop
  endfacet
  facet normal 1.13673e-05 0.992141 0.125125
    outer loop
      vertex 10 38.0921 9.02562
      vertex 18.4503 38.0193 9.6021
      vertex 18.5124 38.0434 9.411
    endloop
  endfacet
  facet normal -6.02127e-06 0.992093 0.125503
    outer loop
      vertex 10 38.0921 9.02562
      vertex 18.5124 38.0434 9.411
      vertex 18.5979 38.0664 9.22919
    endloop
  endfacet
  facet normal 2.41709e-06 0.992138 0.125152
    outer loop
      vertex 10 38.0921 9.02562
      vertex 18.5979 38.0664 9.22919
      vertex 18.7056 38.0878 9.05954
    endloop
  endfacet
  facet normal -0 0.99206 0.125762
    outer loop
      vertex 10 38.0921 9.02562
      vertex 18.7056 38.0878 9.05954
      vertex 18.7336 38.0921 9.02562
    endloop
  endfacet
  facet normal 0 0.968584 0.248689
    outer loop
      vertex 10 38.0921 9.02562
      vertex 18.7336 38.0921 9.02562
      vertex 10 38.2545 8.39311
    endloop
  endfacet
  facet normal 0 0.92978 -0.368115
    outer loop
      vertex 10 38.2545 11.6069
      vertex 10 38.4949 12.2141
      vertex 30 38.2545 11.6069
    endloop
  endfacet
  facet normal 2.30752e-05 0.968659 -0.248393
    outer loop
      vertex 10 38.2545 11.6069
      vertex 18.8336 38.1231 11.0953
      vertex 18.7336 38.0921 10.9744
    endloop
  endfacet
  facet normal -3.23969e-05 0.968428 -0.249292
    outer loop
      vertex 10 38.2545 11.6069
      vertex 18.9801 38.1585 11.2328
      vertex 18.8336 38.1231 11.0953
    endloop
  endfacet
  facet normal 2.04717e-06 0.968628 -0.248516
    outer loop
      vertex 10 38.2545 11.6069
      vertex 19.1427 38.1888 11.3509
      vertex 18.9801 38.1585 11.2328
    endloop
  endfacet
  facet normal 1.1415e-05 0.968708 -0.248202
    outer loop
      vertex 10 38.2545 11.6069
      vertex 19.3188 38.2136 11.4477
      vertex 19.1427 38.1888 11.3509
    endloop
  endfacet
  facet normal 2.42371e-06 0.968582 -0.248696
    outer loop
      vertex 10 38.2545 11.6069
      vertex 19.5056 38.2326 11.5217
      vertex 19.3188 38.2136 11.4477
    endloop
  endfacet
  facet normal -8.03209e-06 0.9683 -0.24979
    outer loop
      vertex 10 38.2545 11.6069
      vertex 19.7002 38.2455 11.5717
      vertex 19.5056 38.2326 11.5217
    endloop
  endfacet
  facet normal 2.3984e-06 0.968992 -0.247093
    outer loop
      vertex 10 38.2545 11.6069
      vertex 19.8995 38.2519 11.5968
      vertex 19.7002 38.2455 11.5717
    endloop
  endfacet
  facet normal 0 0.968427 -0.249298
    outer loop
      vertex 10 38.2545 11.6069
      vertex 20.1005 38.2519 11.5968
      vertex 19.8995 38.2519 11.5968
    endloop
  endfacet
  facet normal 0 0.968427 -0.249298
    outer loop
      vertex 10 38.2545 11.6069
      vertex 30 38.2545 11.6069
      vertex 20.1005 38.2519 11.5968
    endloop
  endfacet
  facet normal 2.28069e-05 0.968659 0.248393
    outer loop
      vertex 10 38.2545 8.39311
      vertex 18.7336 38.0921 9.02562
      vertex 18.8336 38.1231 8.90472
    endloop
  endfacet
  facet normal -2.87082e-05 0.968445 0.249227
    outer loop
      vertex 10 38.2545 8.39311
      vertex 18.8336 38.1231 8.90472
      vertex 18.9801 38.1585 8.76718
    endloop
  endfacet
  facet normal 3.66132e-06 0.968632 0.248498
    outer loop
      vertex 10 38.2545 8.39311
      vertex 18.9801 38.1585 8.76718
      vertex 19.1427 38.1888 8.64907
    endloop
  endfacet
  facet normal 1.17651e-05 0.968702 0.248227
    outer loop
      vertex 10 38.2545 8.39311
      vertex 19.1427 38.1888 8.64907
      vertex 19.3188 38.2136 8.55228
    endloop
  endfacet
  facet normal 1.53963e-06 0.968558 0.248789
    outer loop
      vertex 10 38.2545 8.39311
      vertex 19.3188 38.2136 8.55228
      vertex 19.5056 38.2326 8.47831
    endloop
  endfacet
  facet normal -9.33057e-06 0.968265 0.249926
    outer loop
      vertex 10 38.2545 8.39311
      vertex 19.5056 38.2326 8.47831
      vertex 19.7002 38.2455 8.42834
    endloop
  endfacet
  facet normal 4.42792e-06 0.969176 0.24637
    outer loop
      vertex 10 38.2545 8.39311
      vertex 19.7002 38.2455 8.42834
      vertex 19.8995 38.2519 8.40316
    endloop
  endfacet
  facet normal -0 0.968127 0.250461
    outer loop
      vertex 10 38.2545 8.39311
      vertex 19.8995 38.2519 8.40316
      vertex 30 38.2545 8.39311
    endloop
  endfacet
  facet normal 0 0.929772 0.368136
    outer loop
      vertex 10 38.2545 8.39311
      vertex 30 38.2545 8.39311
      vertex 30 38.4949 7.78595
    endloop
  endfacet
  facet normal 0 0.929772 0.368136
    outer loop
      vertex 10 38.2545 8.39311
      vertex 30 38.4949 7.78595
      vertex 10 38.4949 7.78595
    endloop
  endfacet
  facet normal 0 0.876287 -0.481789
    outer loop
      vertex 10 38.4949 12.2141
      vertex 10 38.8095 12.7863
      vertex 30 38.4949 12.2141
    endloop
  endfacet
  facet normal 0 0.92978 -0.368115
    outer loop
      vertex 10 38.4949 12.2141
      vertex 30 38.4949 12.2141
      vertex 30 38.2545 11.6069
    endloop
  endfacet
  facet normal 0 0.876305 0.481757
    outer loop
      vertex 10 38.4949 7.78595
      vertex 30 38.4949 7.78595
      vertex 30 38.8095 7.2137
    endloop
  endfacet
  facet normal 0 0.876305 0.481757
    outer loop
      vertex 10 38.4949 7.78595
      vertex 30 38.8095 7.2137
      vertex 10 38.8095 7.2137
    endloop
  endfacet
  facet normal 0 0.809041 -0.587753
    outer loop
      vertex 10 38.8095 12.7863
      vertex 10 39.1933 13.3146
      vertex 30 38.8095 12.7863
    endloop
  endfacet
  facet normal 0 0.876287 -0.481789
    outer loop
      vertex 10 38.8095 12.7863
      vertex 30 38.8095 12.7863
      vertex 30 38.4949 12.2141
    endloop
  endfacet
  facet normal 0 0.809041 0.587753
    outer loop
      vertex 10 38.8095 7.2137
      vertex 30 38.8095 7.2137
      vertex 30 39.1933 6.6854
    endloop
  endfacet
  facet normal 0 0.809041 0.587753
    outer loop
      vertex 10 38.8095 7.2137
      vertex 30 39.1933 6.6854
      vertex 10 39.1933 6.6854
    endloop
  endfacet
  facet normal 0 0.728887 -0.684634
    outer loop
      vertex 10 39.1933 13.3146
      vertex 10 39.6404 13.7906
      vertex 30 39.1933 13.3146
    endloop
  endfacet
  facet normal 0 0.809041 -0.587753
    outer loop
      vertex 10 39.1933 13.3146
      vertex 30 39.1933 13.3146
      vertex 30 38.8095 12.7863
    endloop
  endfacet
  facet normal 0 0.728916 0.684603
    outer loop
      vertex 10 39.1933 6.6854
      vertex 30 39.1933 6.6854
      vertex 30 39.6404 6.20936
    endloop
  endfacet
  facet normal 0 0.728916 0.684603
    outer loop
      vertex 10 39.1933 6.6854
      vertex 30 39.6404 6.20936
      vertex 10 39.6404 6.20936
    endloop
  endfacet
  facet normal 0 0.637514 -0.770438
    outer loop
      vertex 10 39.6404 13.7906
      vertex 10 40.1435 14.2069
      vertex 30 40.1435 14.2069
    endloop
  endfacet
  facet normal 0 0.728887 -0.684634
    outer loop
      vertex 10 39.6404 13.7906
      vertex 30 39.6404 13.7906
      vertex 30 39.1933 13.3146
    endloop
  endfacet
  facet normal 0 0.637514 -0.770438
    outer loop
      vertex 10 39.6404 13.7906
      vertex 30 40.1435 14.2069
      vertex 30 39.6404 13.7906
    endloop
  endfacet
  facet normal 0 0.637469 0.770476
    outer loop
      vertex 10 39.6404 6.20936
      vertex 30 39.6404 6.20936
      vertex 10 40.1435 5.79311
    endloop
  endfacet
  facet normal 0 0.535795 -0.844348
    outer loop
      vertex 10 40.1435 14.2069
      vertex 10 40.6949 14.5568
      vertex 30 40.6949 14.5568
    endloop
  endfacet
  facet normal -1 0 0
    outer loop
      vertex 10 40.1435 14.2069
      vertex 10 43.2 20
      vertex 10 40.6949 14.5568
    endloop
  endfacet
  facet normal 0 0.535795 -0.844348
    outer loop
      vertex 10 40.1435 14.2069
      vertex 30 40.6949 14.5568
      vertex 30 40.1435 14.2069
    endloop
  endfacet
  facet normal -1 0 0
    outer loop
      vertex 10 40.1435 5.79311
      vertex 10 40.6949 5.4432
      vertex 10 43.2 0
    endloop
  endfacet
  facet normal -0 0.637469 0.770476
    outer loop
      vertex 10 40.1435 5.79311
      vertex 30 39.6404 6.20936
      vertex 30 40.1435 5.79311
    endloop
  endfacet
  facet normal 0 0.535806 0.844341
    outer loop
      vertex 10 40.1435 5.79311
      vertex 30 40.1435 5.79311
      vertex 10 40.6949 5.4432
    endloop
  endfacet
  facet normal 0 0.425709 -0.90486
    outer loop
      vertex 10 40.6949 14.5568
      vertex 10 41.2858 14.8348
      vertex 30 41.2858 14.8348
    endloop
  endfacet
  facet normal -1 0 0
    outer loop
      vertex 10 40.6949 14.5568
      vertex 10 43.2 20
      vertex 10 41.2858 14.8348
    endloop
  endfacet
  facet normal 0 0.425709 -0.90486
    outer loop
      vertex 10 40.6949 14.5568
      vertex 30 41.2858 14.8348
      vertex 30 40.6949 14.5568
    endloop
  endfacet
  facet normal -1 0 0
    outer loop
      vertex 10 40.6949 5.4432
      vertex 10 41.2858 5.16516
      vertex 10 43.2 0
    endloop
  endfacet
  facet normal -0 0.535806 0.844341
    outer loop
      vertex 10 40.6949 5.4432
      vertex 30 40.1435 5.79311
      vertex 30 40.6949 5.4432
    endloop
  endfacet
  facet normal 0 0.425759 0.904837
    outer loop
      vertex 10 40.6949 5.4432
      vertex 30 40.6949 5.4432
      vertex 10 41.2858 5.16516
    endloop
  endfacet
  facet normal 0 0.309051 -0.951045
    outer loop
      vertex 10 41.2858 14.8348
      vertex 10 41.9068 15.0366
      vertex 30 41.9068 15.0366
    endloop
  endfacet
  facet normal -1 0 0
    outer loop
      vertex 10 41.2858 14.8348
      vertex 10 43.2 20
      vertex 10 41.9068 15.0366
    endloop
  endfacet
  facet normal 0 0.309051 -0.951045
    outer loop
      vertex 10 41.2858 14.8348
      vertex 30 41.9068 15.0366
      vertex 30 41.2858 14.8348
    endloop
  endfacet
  facet normal -1 0 0
    outer loop
      vertex 10 41.2858 5.16516
      vertex 10 41.9068 4.96337
      vertex 10 43.2 0
    endloop
  endfacet
  facet normal -0 0.425759 0.904837
    outer loop
      vertex 10 41.2858 5.16516
      vertex 30 40.6949 5.4432
      vertex 30 41.2858 5.16516
    endloop
  endfacet
  facet normal 0 0.309038 0.95105
    outer loop
      vertex 10 41.2858 5.16516
      vertex 30 41.2858 5.16516
      vertex 10 41.9068 4.96337
    endloop
  endfacet
  facet normal 0 0.187422 -0.98228
    outer loop
      vertex 10 41.9068 15.0366
      vertex 10 42.5483 15.159
      vertex 30 42.5483 15.159
    endloop
  endfacet
  facet normal -1 0 0
    outer loop
      vertex 10 41.9068 15.0366
      vertex 10 43.2 20
      vertex 10 42.5483 15.159
    endloop
  endfacet
  facet normal 0 0.187422 -0.98228
    outer loop
      vertex 10 41.9068 15.0366
      vertex 30 42.5483 15.159
      vertex 30 41.9068 15.0366
    endloop
  endfacet
  facet normal -1 0 0
    outer loop
      vertex 10 41.9068 4.96337
      vertex 10 42.5483 4.841
      vertex 10 43.2 0
    endloop
  endfacet
  facet normal -0 0.309038 0.95105
    outer loop
      vertex 10 41.9068 4.96337
      vertex 30 41.2858 5.16516
      vertex 30 41.9068 4.96337
    endloop
  endfacet
  facet normal 0 0.187377 0.982288
    outer loop
      vertex 10 41.9068 4.96337
      vertex 30 41.9068 4.96337
      vertex 10 42.5483 4.841
    endloop
  endfacet
  facet normal 0 0.0627882 -0.998027
    outer loop
      vertex 10 42.5483 15.159
      vertex 10 43.2 15.2
      vertex 30 43.2 15.2
    endloop
  endfacet
  facet normal -1 0 0
    outer loop
      vertex 10 42.5483 15.159
      vertex 10 43.2 20
      vertex 10 43.2 15.2
    endloop
  endfacet
  facet normal 0 0.0627882 -0.998027
    outer loop
      vertex 10 42.5483 15.159
      vertex 30 43.2 15.2
      vertex 30 42.5483 15.159
    endloop
  endfacet
  facet normal -1 0 0
    outer loop
      vertex 10 42.5483 4.841
      vertex 10 43.2 4.8
      vertex 10 43.2 0
    endloop
  endfacet
  facet normal -0 0.187377 0.982288
    outer loop
      vertex 10 42.5483 4.841
      vertex 30 41.9068 4.96337
      vertex 30 42.5483 4.841
    endloop
  endfacet
  facet normal 0 0.0627882 0.998027
    outer loop
      vertex 10 42.5483 4.841
      vertex 30 42.5483 4.841
      vertex 10 43.2 4.8
    endloop
  endfacet
  facet normal 0 1 0
    outer loop
      vertex 10 43.2 0
      vertex 10 43.2 4.8
      vertex 30 43.2 0
    endloop
  endfacet
  facet normal 0 1 0
    outer loop
      vertex 10 43.2 15.2
      vertex 10 43.2 20
      vertex 30 43.2 15.2
    endloop
  endfacet
  facet normal -0 0 1
    outer loop
      vertex 10 43.2 20
      vertex 30 30.9 20
      vertex 30 43.2 20
    endloop
  endfacet
  facet normal 0 1 -0
    outer loop
      vertex 10 43.2 20
      vertex 30 43.2 20
      vertex 30 43.2 15.2
    endloop
  endfacet
  facet normal -0 0.0627882 0.998027
    outer loop
      vertex 10 43.2 4.8
      vertex 30 42.5483 4.841
      vertex 30 43.2 4.8
    endloop
  endfacet
  facet normal 0 1 -0
    outer loop
      vertex 10 43.2 4.8
      vertex 30 43.2 4.8
      vertex 30 43.2 0
    endloop
  endfacet
  facet normal 0.99803 0 -0.0627388
    outer loop
      vertex 16.7 30.9 10
      vertex 16.7 33.9 10
      vertex 16.726 30.9 10.4136
    endloop
  endfacet
  facet normal 0.99803 0 0.0627388
    outer loop
      vertex 16.7 30.9 10
      vertex 16.726 30.9 9.5864
      vertex 16.726 33.9 9.5864
    endloop
  endfacet
  facet normal 0.99803 -0 0.0627388
    outer loop
      vertex 16.7 30.9 10
      vertex 16.726 33.9 9.5864
      vertex 16.7 33.9 10
    endloop
  endfacet
  facet normal 0.99803 0 -0.0627388
    outer loop
      vertex 16.7 33.9 10
      vertex 16.726 33.9 10.4136
      vertex 16.726 30.9 10.4136
    endloop
  endfacet
  facet normal 0 -1 0
    outer loop
      vertex 16.7 33.9 10
      vertex 16.726 33.9 9.5864
      vertex 18.4126 33.9 9.79947
    endloop
  endfacet
  facet normal 0 -1 0
    outer loop
      vertex 16.7 33.9 10
      vertex 18.4 33.9 10
      vertex 18.4126 33.9 10.2005
    endloop
  endfacet
  facet normal 0 -1 0
    outer loop
      vertex 16.7 33.9 10
      vertex 18.4126 33.9 10.2005
      vertex 16.726 33.9 10.4136
    endloop
  endfacet
  facet normal 0 -1 0
    outer loop
      vertex 16.7 33.9 10
      vertex 18.4126 33.9 9.79947
      vertex 18.4 33.9 10
    endloop
  endfacet
  facet normal 0.982269 0 -0.187478
    outer loop
      vertex 16.726 30.9 10.4136
      vertex 16.726 33.9 10.4136
      vertex 16.8037 30.9 10.8207
    endloop
  endfacet
  facet normal 0.982267 0 0.187487
    outer loop
      vertex 16.726 30.9 9.5864
      vertex 16.8037 30.9 9.17932
      vertex 16.8037 33.9 9.17932
    endloop
  endfacet
  facet normal 0.982267 -0 0.187487
    outer loop
      vertex 16.726 30.9 9.5864
      vertex 16.8037 33.9 9.17932
      vertex 16.726 33.9 9.5864
    endloop
  endfacet
  facet normal 0.982269 0 -0.187478
    outer loop
      vertex 16.726 33.9 10.4136
      vertex 16.8037 33.9 10.8207
      vertex 16.8037 30.9 10.8207
    endloop
  endfacet
  facet normal 0 -1 0
    outer loop
      vertex 16.726 33.9 10.4136
      vertex 18.4126 33.9 10.2005
      vertex 18.4503 33.9 10.3979
    endloop
  endfacet
  facet normal 0 -1 0
    outer loop
      vertex 16.726 33.9 10.4136
      vertex 18.4503 33.9 10.3979
      vertex 16.8037 33.9 10.8207
    endloop
  endfacet
  facet normal 0 -1 0
    outer loop
      vertex 16.726 33.9 9.5864
      vertex 16.8037 33.9 9.17932
      vertex 18.4503 33.9 9.6021
    endloop
  endfacet
  facet normal 0 -1 -0
    outer loop
      vertex 16.726 33.9 9.5864
      vertex 18.4503 33.9 9.6021
      vertex 18.4126 33.9 9.79947
    endloop
  endfacet
  facet normal 0.951093 0 -0.308906
    outer loop
      vertex 16.8037 30.9 10.8207
      vertex 16.8037 33.9 10.8207
      vertex 16.9317 30.9 11.2148
    endloop
  endfacet
  facet normal 0.951099 0 0.308885
    outer loop
      vertex 16.8037 30.9 9.17932
      vertex 16.9317 30.9 8.78519
      vertex 16.9317 33.9 8.78519
    endloop
  endfacet
  facet normal 0.951099 -0 0.308885
    outer loop
      vertex 16.8037 30.9 9.17932
      vertex 16.9317 33.9 8.78519
      vertex 16.8037 33.9 9.17932
    endloop
  endfacet
  facet normal 0.951093 0 -0.308906
    outer loop
      vertex 16.8037 33.9 10.8207
      vertex 16.9317 33.9 11.2148
      vertex 16.9317 30.9 11.2148
    endloop
  endfacet
  facet normal 0 -1 0
    outer loop
      vertex 16.8037 33.9 10.8207
      vertex 18.4503 33.9 10.3979
      vertex 18.5124 33.9 10.589
    endloop
  endfacet
  facet normal 0 -1 0
    outer loop
      vertex 16.8037 33.9 10.8207
      vertex 18.5124 33.9 10.589
      vertex 16.9317 33.9 11.2148
    endloop
  endfacet
  facet normal 0 -1 0
    outer loop
      vertex 16.8037 33.9 9.17932
      vertex 16.9317 33.9 8.78519
      vertex 18.5124 33.9 9.411
    endloop
  endfacet
  facet normal 0 -1 -0
    outer loop
      vertex 16.8037 33.9 9.17932
      vertex 18.5124 33.9 9.411
      vertex 18.4503 33.9 9.6021
    endloop
  endfacet
  facet normal 0.904791 0 -0.425855
    outer loop
      vertex 16.9317 30.9 11.2148
      vertex 16.9317 33.9 11.2148
      vertex 17.1082 30.9 11.5898
    endloop
  endfacet
  facet normal 0.904783 0 0.425874
    outer loop
      vertex 16.9317 30.9 8.78519
      vertex 17.1082 30.9 8.41021
      vertex 17.1082 33.9 8.41021
    endloop
  endfacet
  facet normal 0.904783 -0 0.425874
    outer loop
      vertex 16.9317 30.9 8.78519
      vertex 17.1082 33.9 8.41021
      vertex 16.9317 33.9 8.78519
    endloop
  endfacet
  facet normal 0.904791 0 -0.425855
    outer loop
      vertex 16.9317 33.9 11.2148
      vertex 17.1082 33.9 11.5898
      vertex 17.1082 30.9 11.5898
    endloop
  endfacet
  facet normal 0 -1 0
    outer loop
      vertex 16.9317 33.9 11.2148
      vertex 18.5124 33.9 10.589
      vertex 18.5979 33.9 10.7708
    endloop
  endfacet
  facet normal 0 -1 0
    outer loop
      vertex 16.9317 33.9 11.2148
      vertex 18.5979 33.9 10.7708
      vertex 17.1082 33.9 11.5898
    endloop
  endfacet
  facet normal 0 -1 0
    outer loop
      vertex 16.9317 33.9 8.78519
      vertex 17.1082 33.9 8.41021
      vertex 18.5979 33.9 9.22919
    endloop
  endfacet
  facet normal 0 -1 -0
    outer loop
      vertex 16.9317 33.9 8.78519
      vertex 18.5979 33.9 9.22919
      vertex 18.5124 33.9 9.411
    endloop
  endfacet
  facet normal 0.844386 0 -0.535735
    outer loop
      vertex 17.1082 30.9 11.5898
      vertex 17.1082 33.9 11.5898
      vertex 17.3302 30.9 11.9397
    endloop
  endfacet
  facet normal 0.844386 0 0.535735
    outer loop
      vertex 17.1082 30.9 8.41021
      vertex 17.3302 30.9 8.06031
      vertex 17.3302 33.9 8.06031
    endloop
  endfacet
  facet normal 0.844386 -0 0.535735
    outer loop
      vertex 17.1082 30.9 8.41021
      vertex 17.3302 33.9 8.06031
      vertex 17.1082 33.9 8.41021
    endloop
  endfacet
  facet normal 0.844386 0 -0.535735
    outer loop
      vertex 17.1082 33.9 11.5898
      vertex 17.3302 33.9 11.9397
      vertex 17.3302 30.9 11.9397
    endloop
  endfacet
  facet normal 0 -1 0
    outer loop
      vertex 17.1082 33.9 11.5898
      vertex 18.5979 33.9 10.7708
      vertex 18.7056 33.9 10.9405
    endloop
  endfacet
  facet normal 0 -1 0
    outer loop
      vertex 17.1082 33.9 11.5898
      vertex 18.7056 33.9 10.9405
      vertex 17.3302 33.9 11.9397
    endloop
  endfacet
  facet normal 0 -1 0
    outer loop
      vertex 17.1082 33.9 8.41021
      vertex 17.3302 33.9 8.06031
      vertex 18.7056 33.9 9.05954
    endloop
  endfacet
  facet normal 0 -1 -0
    outer loop
      vertex 17.1082 33.9 8.41021
      vertex 18.7056 33.9 9.05954
      vertex 18.5979 33.9 9.22919
    endloop
  endfacet
  facet normal 0.770452 0 -0.637499
    outer loop
      vertex 17.3302 30.9 11.9397
      vertex 17.3302 33.9 11.9397
      vertex 17.5944 30.9 12.259
    endloop
  endfacet
  facet normal 0.770471 0 0.637475
    outer loop
      vertex 17.3302 30.9 8.06031
      vertex 17.5944 30.9 7.74099
      vertex 17.5944 33.9 7.74099
    endloop
  endfacet
  facet normal 0.770471 -0 0.637475
    outer loop
      vertex 17.3302 30.9 8.06031
      vertex 17.5944 33.9 7.74099
      vertex 17.3302 33.9 8.06031
    endloop
  endfacet
  facet normal 0.770452 0 -0.637499
    outer loop
      vertex 17.3302 33.9 11.9397
      vertex 17.5944 33.9 12.259
      vertex 17.5944 30.9 12.259
    endloop
  endfacet
  facet normal 0 -1 0
    outer loop
      vertex 17.3302 33.9 11.9397
      vertex 18.7056 33.9 10.9405
      vertex 18.8336 33.9 11.0953
    endloop
  endfacet
  facet normal 0 -1 0
    outer loop
      vertex 17.3302 33.9 11.9397
      vertex 18.8336 33.9 11.0953
      vertex 17.5944 33.9 12.259
    endloop
  endfacet
  facet normal 0 -1 0
    outer loop
      vertex 17.3302 33.9 8.06031
      vertex 17.5944 33.9 7.74099
      vertex 18.8336 33.9 8.90472
    endloop
  endfacet
  facet normal 0 -1 -0
    outer loop
      vertex 17.3302 33.9 8.06031
      vertex 18.8336 33.9 8.90472
      vertex 18.7056 33.9 9.05954
    endloop
  endfacet
  facet normal 0.684559 0 -0.728958
    outer loop
      vertex 17.5944 30.9 12.259
      vertex 17.5944 33.9 12.259
      vertex 17.8965 33.9 12.5427
    endloop
  endfacet
  facet normal 0.684559 0 -0.728958
    outer loop
      vertex 17.5944 30.9 12.259
      vertex 17.8965 33.9 12.5427
      vertex 17.8965 30.9 12.5427
    endloop
  endfacet
  facet normal 0.684533 0 0.728982
    outer loop
      vertex 17.5944 30.9 7.74099
      vertex 17.8965 30.9 7.45731
      vertex 17.5944 33.9 7.74099
    endloop
  endfacet
  facet normal 0 -1 0
    outer loop
      vertex 17.5944 33.9 12.259
      vertex 18.8336 33.9 11.0953
      vertex 18.9801 33.9 11.2328
    endloop
  endfacet
  facet normal 0 -1 0
    outer loop
      vertex 17.5944 33.9 12.259
      vertex 18.9801 33.9 11.2328
      vertex 17.8965 33.9 12.5427
    endloop
  endfacet
  facet normal 0.684533 0 0.728982
    outer loop
      vertex 17.5944 33.9 7.74099
      vertex 17.8965 30.9 7.45731
      vertex 17.8965 33.9 7.45731
    endloop
  endfacet
  facet normal 0 -1 0
    outer loop
      vertex 17.5944 33.9 7.74099
      vertex 17.8965 33.9 7.45731
      vertex 18.9801 33.9 8.76718
    endloop
  endfacet
  facet normal 0 -1 -0
    outer loop
      vertex 17.5944 33.9 7.74099
      vertex 18.9801 33.9 8.76718
      vertex 18.8336 33.9 8.90472
    endloop
  endfacet
  facet normal 0.58777 0 -0.809028
    outer loop
      vertex 17.8965 30.9 12.5427
      vertex 17.8965 33.9 12.5427
      vertex 18.2318 33.9 12.7863
    endloop
  endfacet
  facet normal 0.58777 0 -0.809028
    outer loop
      vertex 17.8965 30.9 12.5427
      vertex 18.2318 33.9 12.7863
      vertex 18.2318 30.9 12.7863
    endloop
  endfacet
  facet normal 0.587754 0 0.80904
    outer loop
      vertex 17.8965 30.9 7.45731
      vertex 18.2318 30.9 7.21372
      vertex 17.8965 33.9 7.45731
    endloop
  endfacet
  facet normal 0 -1 0
    outer loop
      vertex 17.8965 33.9 12.5427
      vertex 18.9801 33.9 11.2328
      vertex 19.1427 33.9 11.3509
    endloop
  endfacet
  facet normal 0 -1 0
    outer loop
      vertex 17.8965 33.9 12.5427
      vertex 19.1427 33.9 11.3509
      vertex 18.2318 33.9 12.7863
    endloop
  endfacet
  facet normal 0.587754 0 0.80904
    outer loop
      vertex 17.8965 33.9 7.45731
      vertex 18.2318 30.9 7.21372
      vertex 18.2318 33.9 7.21372
    endloop
  endfacet
  facet normal 0 -1 0
    outer loop
      vertex 17.8965 33.9 7.45731
      vertex 18.2318 33.9 7.21372
      vertex 19.1427 33.9 8.64907
    endloop
  endfacet
  facet normal 0 -1 -0
    outer loop
      vertex 17.8965 33.9 7.45731
      vertex 19.1427 33.9 8.64907
      vertex 18.9801 33.9 8.76718
    endloop
  endfacet
  facet normal 0.481724 0 -0.876323
    outer loop
      vertex 18.2318 30.9 12.7863
      vertex 18.2318 33.9 12.7863
      vertex 18.5949 33.9 12.9859
    endloop
  endfacet
  facet normal 0.481724 0 -0.876323
    outer loop
      vertex 18.2318 30.9 12.7863
      vertex 18.5949 33.9 12.9859
      vertex 18.5949 30.9 12.9859
    endloop
  endfacet
  facet normal 0.481817 0 0.876272
    outer loop
      vertex 18.2318 30.9 7.21372
      vertex 18.5949 30.9 7.01407
      vertex 18.2318 33.9 7.21372
    endloop
  endfacet
  facet normal 0 -1 0
    outer loop
      vertex 18.2318 33.9 12.7863
      vertex 19.1427 33.9 11.3509
      vertex 19.3188 33.9 11.4477
    endloop
  endfacet
  facet normal 0 -1 0
    outer loop
      vertex 18.2318 33.9 12.7863
      vertex 19.3188 33.9 11.4477
      vertex 18.5949 33.9 12.9859
    endloop
  endfacet
  facet normal 0.481817 0 0.876272
    outer loop
      vertex 18.2318 33.9 7.21372
      vertex 18.5949 30.9 7.01407
      vertex 18.5949 33.9 7.01407
    endloop
  endfacet
  facet normal 0 -1 0
    outer loop
      vertex 18.2318 33.9 7.21372
      vertex 18.5949 33.9 7.01407
      vertex 19.3188 33.9 8.55228
    endloop
  endfacet
  facet normal 0 -1 -0
    outer loop
      vertex 18.2318 33.9 7.21372
      vertex 19.3188 33.9 8.55228
      vertex 19.1427 33.9 8.64907
    endloop
  endfacet
  facet normal 0.998031 0 -0.0627192
    outer loop
      vertex 18.4 33.9 10
      vertex 18.4 38.0103 10
      vertex 18.4126 33.9 10.2005
    endloop
  endfacet
  facet normal 0.998032 0 0.0627098
    outer loop
      vertex 18.4 33.9 10
      vertex 18.4126 33.9 9.79947
      vertex 18.4126 38.0103 9.79947
    endloop
  endfacet
  facet normal 0.998032 -0 0.0627098
    outer loop
      vertex 18.4 33.9 10
      vertex 18.4126 38.0103 9.79947
      vertex 18.4 38.0103 10
    endloop
  endfacet
  facet normal 0.998031 0 -0.0627192
    outer loop
      vertex 18.4 38.0103 10
      vertex 18.4126 38.0103 10.2005
      vertex 18.4126 33.9 10.2005
    endloop
  endfacet
  facet normal 0.982339 0 -0.187112
    outer loop
      vertex 18.4126 33.9 10.2005
      vertex 18.4126 38.0103 10.2005
      vertex 18.4366 38.0103 10.3265
    endloop
  endfacet
  facet normal 0.982247 1.52535e-05 -0.187592
    outer loop
      vertex 18.4126 33.9 10.2005
      vertex 18.4366 38.0103 10.3265
      vertex 18.4503 33.9 10.3979
    endloop
  endfacet
  facet normal 0.982333 0 0.187141
    outer loop
      vertex 18.4126 33.9 9.79947
      vertex 18.4366 38.0103 9.67349
      vertex 18.4126 38.0103 9.79947
    endloop
  endfacet
  facet normal 0.982242 1.52146e-05 0.18762
    outer loop
      vertex 18.4126 33.9 9.79947
      vertex 18.4503 33.9 9.6021
      vertex 18.4366 38.0103 9.67349
    endloop
  endfacet
  facet normal 0.982085 0 -0.188439
    outer loop
      vertex 18.4366 38.0103 10.3265
      vertex 18.4503 38.0193 10.3979
      vertex 18.4503 33.9 10.3979
    endloop
  endfacet
  facet normal 0.98208 0 0.188465
    outer loop
      vertex 18.4366 38.0103 9.67349
      vertex 18.4503 33.9 9.6021
      vertex 18.4503 38.0193 9.6021
    endloop
  endfacet
  facet normal 0.951045 0 -0.309052
    outer loop
      vertex 18.4503 33.9 10.3979
      vertex 18.4503 38.0193 10.3979
      vertex 18.5124 33.9 10.589
    endloop
  endfacet
  facet normal 0.951045 0 0.309052
    outer loop
      vertex 18.4503 33.9 9.6021
      vertex 18.5124 33.9 9.411
      vertex 18.4503 38.0193 9.6021
    endloop
  endfacet
  facet normal 0.951045 0 -0.309052
    outer loop
      vertex 18.4503 38.0193 10.3979
      vertex 18.5124 38.0434 10.589
      vertex 18.5124 33.9 10.589
    endloop
  endfacet
  facet normal 0.951045 0 0.309052
    outer loop
      vertex 18.4503 38.0193 9.6021
      vertex 18.5124 33.9 9.411
      vertex 18.5124 38.0434 9.411
    endloop
  endfacet
  facet normal 0.90492 0 -0.425581
    outer loop
      vertex 18.5124 33.9 10.589
      vertex 18.5124 38.0434 10.589
      vertex 18.5979 33.9 10.7708
    endloop
  endfacet
  facet normal 0.904929 0 0.425562
    outer loop
      vertex 18.5124 33.9 9.411
      vertex 18.5979 33.9 9.22919
      vertex 18.5124 38.0434 9.411
    endloop
  endfacet
  facet normal 0.90492 0 -0.425581
    outer loop
      vertex 18.5124 38.0434 10.589
      vertex 18.5979 38.0664 10.7708
      vertex 18.5979 33.9 10.7708
    endloop
  endfacet
  facet normal 0.904929 0 0.425562
    outer loop
      vertex 18.5124 38.0434 9.411
      vertex 18.5979 33.9 9.22919
      vertex 18.5979 38.0664 9.22919
    endloop
  endfacet
  facet normal 0.368227 0 -0.929736
    outer loop
      vertex 18.5949 30.9 12.9859
      vertex 18.5949 33.9 12.9859
      vertex 18.9802 33.9 13.1385
    endloop
  endfacet
  facet normal 0.368227 0 -0.929736
    outer loop
      vertex 18.5949 30.9 12.9859
      vertex 18.9802 33.9 13.1385
      vertex 18.9802 30.9 13.1385
    endloop
  endfacet
  facet normal 0.368143 0 0.929769
    outer loop
      vertex 18.5949 30.9 7.01407
      vertex 18.9802 30.9 6.86151
      vertex 18.5949 33.9 7.01407
    endloop
  endfacet
  facet normal 0 -1 0
    outer loop
      vertex 18.5949 33.9 12.9859
      vertex 19.3188 33.9 11.4477
      vertex 19.5056 33.9 11.5217
    endloop
  endfacet
  facet normal 0 -1 0
    outer loop
      vertex 18.5949 33.9 12.9859
      vertex 19.5056 33.9 11.5217
      vertex 18.9802 33.9 13.1385
    endloop
  endfacet
  facet normal 0.368143 0 0.929769
    outer loop
      vertex 18.5949 33.9 7.01407
      vertex 18.9802 30.9 6.86151
      vertex 18.9802 33.9 6.86151
    endloop
  endfacet
  facet normal 0 -1 0
    outer loop
      vertex 18.5949 33.9 7.01407
      vertex 18.9802 33.9 6.86151
      vertex 19.5056 33.9 8.47831
    endloop
  endfacet
  facet normal 0 -1 -0
    outer loop
      vertex 18.5949 33.9 7.01407
      vertex 19.5056 33.9 8.47831
      vertex 19.3188 33.9 8.55228
    endloop
  endfacet
  facet normal 0.844316 0 -0.535845
    outer loop
      vertex 18.5979 33.9 10.7708
      vertex 18.5979 38.0664 10.7708
      vertex 18.7056 33.9 10.9405
    endloop
  endfacet
  facet normal 0.844245 0 0.535957
    outer loop
      vertex 18.5979 33.9 9.22919
      vertex 18.7056 33.9 9.05954
      vertex 18.5979 38.0664 9.22919
    endloop
  endfacet
  facet normal 0.844316 0 -0.535845
    outer loop
      vertex 18.5979 38.0664 10.7708
      vertex 18.7056 38.0878 10.9405
      vertex 18.7056 33.9 10.9405
    endloop
  endfacet
  facet normal 0.844245 0 0.535957
    outer loop
      vertex 18.5979 38.0664 9.22919
      vertex 18.7056 33.9 9.05954
      vertex 18.7056 38.0878 9.05954
    endloop
  endfacet
  facet normal 0.770664 0 -0.637242
    outer loop
      vertex 18.7056 33.9 10.9405
      vertex 18.7056 38.0878 10.9405
      vertex 18.8336 33.9 11.0953
    endloop
  endfacet
  facet normal 0.770705 0 0.637193
    outer loop
      vertex 18.7056 33.9 9.05954
      vertex 18.8336 33.9 8.90472
      vertex 18.7056 38.0878 9.05954
    endloop
  endfacet
  facet normal 0.771009 2.59468e-05 -0.636825
    outer loop
      vertex 18.7056 38.0878 10.9405
      vertex 18.7336 38.0921 10.9744
      vertex 18.8336 33.9 11.0953
    endloop
  endfacet
  facet normal 0.771192 3.67451e-05 0.636602
    outer loop
      vertex 18.7056 38.0878 9.05954
      vertex 18.8336 33.9 8.90472
      vertex 18.7336 38.0921 9.02562
    endloop
  endfacet
  facet normal 0.770567 0 -0.637359
    outer loop
      vertex 18.7336 38.0921 10.9744
      vertex 18.8336 38.1231 11.0953
      vertex 18.8336 33.9 11.0953
    endloop
  endfacet
  facet normal 0.770567 0 0.637359
    outer loop
      vertex 18.7336 38.0921 9.02562
      vertex 18.8336 33.9 8.90472
      vertex 18.8336 38.1231 8.90472
    endloop
  endfacet
  facet normal 0.684355 0 -0.729149
    outer loop
      vertex 18.8336 33.9 11.0953
      vertex 18.8336 38.1231 11.0953
      vertex 18.9801 33.9 11.2328
    endloop
  endfacet
  facet normal 0.684461 0 0.72905
    outer loop
      vertex 18.8336 33.9 8.90472
      vertex 18.9801 33.9 8.76718
      vertex 18.8336 38.1231 8.90472
    endloop
  endfacet
  facet normal 0.684355 0 -0.729149
    outer loop
      vertex 18.8336 38.1231 11.0953
      vertex 18.9801 38.1585 11.2328
      vertex 18.9801 33.9 11.2328
    endloop
  endfacet
  facet normal 0.684461 0 0.72905
    outer loop
      vertex 18.8336 38.1231 8.90472
      vertex 18.9801 33.9 8.76718
      vertex 18.9801 38.1585 8.76718
    endloop
  endfacet
  facet normal 0.587669 0 -0.809102
    outer loop
      vertex 18.9801 33.9 11.2328
      vertex 18.9801 38.1585 11.2328
      vertex 19.1427 33.9 11.3509
    endloop
  endfacet
  facet normal 0.587701 0 0.809078
    outer loop
      vertex 18.9801 33.9 8.76718
      vertex 19.1427 33.9 8.64907
      vertex 18.9801 38.1585 8.76718
    endloop
  endfacet
  facet normal 0.587669 0 -0.809102
    outer loop
      vertex 18.9801 38.1585 11.2328
      vertex 19.1427 38.1888 11.3509
      vertex 19.1427 33.9 11.3509
    endloop
  endfacet
  facet normal 0.587701 0 0.809078
    outer loop
      vertex 18.9801 38.1585 8.76718
      vertex 19.1427 33.9 8.64907
      vertex 19.1427 38.1888 8.64907
    endloop
  endfacet
  facet normal 0.24855 0 -0.968619
    outer loop
      vertex 18.9802 30.9 13.1385
      vertex 18.9802 33.9 13.1385
      vertex 19.3816 33.9 13.2415
    endloop
  endfacet
  facet normal 0.24855 0 -0.968619
    outer loop
      vertex 18.9802 30.9 13.1385
      vertex 19.3816 33.9 13.2415
      vertex 19.3816 30.9 13.2415
    endloop
  endfacet
  facet normal 0.248685 0 0.968584
    outer loop
      vertex 18.9802 30.9 6.86151
      vertex 19.3816 30.9 6.75845
      vertex 18.9802 33.9 6.86151
    endloop
  endfacet
  facet normal 0 -1 0
    outer loop
      vertex 18.9802 33.9 13.1385
      vertex 19.5056 33.9 11.5217
      vertex 19.7002 33.9 11.5717
    endloop
  endfacet
  facet normal 0 -1 0
    outer loop
      vertex 18.9802 33.9 13.1385
      vertex 19.7002 33.9 11.5717
      vertex 19.3816 33.9 13.2415
    endloop
  endfacet
  facet normal 0.248685 0 0.968584
    outer loop
      vertex 18.9802 33.9 6.86151
      vertex 19.3816 30.9 6.75845
      vertex 19.3816 33.9 6.75845
    endloop
  endfacet
  facet normal 0 -1 0
    outer loop
      vertex 18.9802 33.9 6.86151
      vertex 19.3816 33.9 6.75845
      vertex 19.7002 33.9 8.42834
    endloop
  endfacet
  facet normal 0 -1 -0
    outer loop
      vertex 18.9802 33.9 6.86151
      vertex 19.7002 33.9 8.42834
      vertex 19.5056 33.9 8.47831
    endloop
  endfacet
  facet normal 0.481709 0 -0.876331
    outer loop
      vertex 19.1427 33.9 11.3509
      vertex 19.1427 38.1888 11.3509
      vertex 19.3188 33.9 11.4477
    endloop
  endfacet
  facet normal 0.48167 0 0.876352
    outer loop
      vertex 19.1427 33.9 8.64907
      vertex 19.3188 33.9 8.55228
      vertex 19.1427 38.1888 8.64907
    endloop
  endfacet
  facet normal 0.481709 0 -0.876331
    outer loop
      vertex 19.1427 38.1888 11.3509
      vertex 19.3188 38.2136 11.4477
      vertex 19.3188 33.9 11.4477
    endloop
  endfacet
  facet normal 0.48167 0 0.876352
    outer loop
      vertex 19.1427 38.1888 8.64907
      vertex 19.3188 33.9 8.55228
      vertex 19.3188 38.2136 8.55228
    endloop
  endfacet
  facet normal 0.368299 0 -0.929707
    outer loop
      vertex 19.3188 33.9 11.4477
      vertex 19.3188 38.2136 11.4477
      vertex 19.5056 33.9 11.5217
    endloop
  endfacet
  facet normal 0.36817 0 0.929758
    outer loop
      vertex 19.3188 33.9 8.55228
      vertex 19.5056 33.9 8.47831
      vertex 19.3188 38.2136 8.55228
    endloop
  endfacet
  facet normal 0.368299 0 -0.929707
    outer loop
      vertex 19.3188 38.2136 11.4477
      vertex 19.5056 38.2326 11.5217
      vertex 19.5056 33.9 11.5217
    endloop
  endfacet
  facet normal 0.36817 0 0.929758
    outer loop
      vertex 19.3188 38.2136 8.55228
      vertex 19.5056 33.9 8.47831
      vertex 19.5056 38.2326 8.47831
    endloop
  endfacet
  facet normal 0.12546 0 -0.992099
    outer loop
      vertex 19.3816 30.9 13.2415
      vertex 19.3816 33.9 13.2415
      vertex 19.7928 33.9 13.2935
    endloop
  endfacet
  facet normal 0.12546 0 -0.992099
    outer loop
      vertex 19.3816 30.9 13.2415
      vertex 19.7928 33.9 13.2935
      vertex 19.7928 30.9 13.2935
    endloop
  endfacet
  facet normal 0.125317 0 0.992117
    outer loop
      vertex 19.3816 30.9 6.75845
      vertex 19.7928 30.9 6.70651
      vertex 19.3816 33.9 6.75845
    endloop
  endfacet
  facet normal 0 -1 0
    outer loop
      vertex 19.3816 33.9 13.2415
      vertex 19.7002 33.9 11.5717
      vertex 19.8995 33.9 11.5968
    endloop
  endfacet
  facet normal 0 -1 0
    outer loop
      vertex 19.3816 33.9 13.2415
      vertex 19.8995 33.9 11.5968
      vertex 19.7928 33.9 13.2935
    endloop
  endfacet
  facet normal 0.125317 0 0.992117
    outer loop
      vertex 19.3816 33.9 6.75845
      vertex 19.7928 30.9 6.70651
      vertex 19.7928 33.9 6.70651
    endloop
  endfacet
  facet normal 0 -1 0
    outer loop
      vertex 19.3816 33.9 6.75845
      vertex 19.7928 33.9 6.70651
      vertex 19.8995 33.9 8.40316
    endloop
  endfacet
  facet normal 0 -1 -0
    outer loop
      vertex 19.3816 33.9 6.75845
      vertex 19.8995 33.9 8.40316
      vertex 19.7002 33.9 8.42834
    endloop
  endfacet
  facet normal 0.248854 0 -0.968541
    outer loop
      vertex 19.5056 33.9 11.5217
      vertex 19.5056 38.2326 11.5217
      vertex 19.7002 33.9 11.5717
    endloop
  endfacet
  facet normal 0.248714 0 0.968577
    outer loop
      vertex 19.5056 33.9 8.47831
      vertex 19.7002 33.9 8.42834
      vertex 19.5056 38.2326 8.47831
    endloop
  endfacet
  facet normal 0.248854 0 -0.968541
    outer loop
      vertex 19.5056 38.2326 11.5217
      vertex 19.7002 38.2455 11.5717
      vertex 19.7002 33.9 11.5717
    endloop
  endfacet
  facet normal 0.248714 0 0.968577
    outer loop
      vertex 19.5056 38.2326 8.47831
      vertex 19.7002 33.9 8.42834
      vertex 19.7002 38.2455 8.42834
    endloop
  endfacet
  facet normal 0.124954 0 -0.992163
    outer loop
      vertex 19.7002 33.9 11.5717
      vertex 19.7002 38.2455 11.5717
      vertex 19.8995 33.9 11.5968
    endloop
  endfacet
  facet normal 0.125346 0 0.992113
    outer loop
      vertex 19.7002 33.9 8.42834
      vertex 19.8995 33.9 8.40316
      vertex 19.7002 38.2455 8.42834
    endloop
  endfacet
  facet normal 0.124954 0 -0.992163
    outer loop
      vertex 19.7002 38.2455 11.5717
      vertex 19.8995 38.2519 11.5968
      vertex 19.8995 33.9 11.5968
    endloop
  endfacet
  facet normal 0.125346 0 0.992113
    outer loop
      vertex 19.7002 38.2455 8.42834
      vertex 19.8995 33.9 8.40316
      vertex 19.8995 38.2519 8.40316
    endloop
  endfacet
  facet normal -0 0 -1
    outer loop
      vertex 19.7928 30.9 13.2935
      vertex 19.7928 33.9 13.2935
      vertex 20.2072 33.9 13.2935
    endloop
  endfacet
  facet normal 0 -1 0
    outer loop
      vertex 19.7928 30.9 13.2935
      vertex 20.2072 30.9 13.2935
      vertex 30 30.9 20
    endloop
  endfacet
  facet normal 0 0 -1
    outer loop
      vertex 19.7928 30.9 13.2935
      vertex 20.2072 33.9 13.2935
      vertex 20.2072 30.9 13.2935
    endloop
  endfacet
  facet normal 0 0 1
    outer loop
      vertex 19.7928 30.9 6.70651
      vertex 20.2072 30.9 6.70651
      vertex 19.7928 33.9 6.70651
    endloop
  endfacet
  facet normal 0 -1 0
    outer loop
      vertex 19.7928 33.9 13.2935
      vertex 19.8995 33.9 11.5968
      vertex 20.2072 33.9 13.2935
    endloop
  endfacet
  facet normal 0 -1 -0
    outer loop
      vertex 19.7928 33.9 6.70651
      vertex 20.1005 33.9 8.40316
      vertex 19.8995 33.9 8.40316
    endloop
  endfacet
  facet normal -0 0 1
    outer loop
      vertex 19.7928 33.9 6.70651
      vertex 20.2072 30.9 6.70651
      vertex 20.2072 33.9 6.70651
    endloop
  endfacet
  facet normal 0 -1 0
    outer loop
      vertex 19.7928 33.9 6.70651
      vertex 20.2072 33.9 6.70651
      vertex 20.1005 33.9 8.40316
    endloop
  endfacet
  facet normal -0 0 -1
    outer loop
      vertex 19.8995 33.9 11.5968
      vertex 19.8995 38.2519 11.5968
      vertex 20.1005 38.2519 11.5968
    endloop
  endfacet
  facet normal 0 -1 0
    outer loop
      vertex 19.8995 33.9 11.5968
      vertex 20.1005 33.9 11.5968
      vertex 20.2072 33.9 13.2935
    endloop
  endfacet
  facet normal 0 0 -1
    outer loop
      vertex 19.8995 33.9 11.5968
      vertex 20.1005 38.2519 11.5968
      vertex 20.1005 33.9 11.5968
    endloop
  endfacet
  facet normal 0 0 1
    outer loop
      vertex 19.8995 33.9 8.40316
      vertex 20.1005 33.9 8.40316
      vertex 19.8995 38.2519 8.40316
    endloop
  endfacet
  facet normal -0 0 1
    outer loop
      vertex 19.8995 38.2519 8.40316
      vertex 20.1005 33.9 8.40316
      vertex 20.1005 38.2519 8.40316
    endloop
  endfacet
  facet normal 0 0.968127 0.250461
    outer loop
      vertex 19.8995 38.2519 8.40316
      vertex 20.1005 38.2519 8.40316
      vertex 30 38.2545 8.39311
    endloop
  endfacet
  facet normal -0.124954 0 -0.992163
    outer loop
      vertex 20.1005 33.9 11.5968
      vertex 20.1005 38.2519 11.5968
      vertex 20.2998 38.2455 11.5717
    endloop
  endfacet
  facet normal 0 -1 0
    outer loop
      vertex 20.1005 33.9 11.5968
      vertex 20.2998 33.9 11.5717
      vertex 20.6184 33.9 13.2415
    endloop
  endfacet
  facet normal -0.124954 0 -0.992163
    outer loop
      vertex 20.1005 33.9 11.5968
      vertex 20.2998 38.2455 11.5717
      vertex 20.2998 33.9 11.5717
    endloop
  endfacet
  facet normal 0 -1 -0
    outer loop
      vertex 20.1005 33.9 11.5968
      vertex 20.6184 33.9 13.2415
      vertex 20.2072 33.9 13.2935
    endloop
  endfacet
  facet normal 0 -1 0
    outer loop
      vertex 20.1005 33.9 8.40316
      vertex 20.2072 33.9 6.70651
      vertex 20.6184 33.9 6.75845
    endloop
  endfacet
  facet normal -0.125346 0 0.992113
    outer loop
      vertex 20.1005 33.9 8.40316
      vertex 20.2998 33.9 8.42834
      vertex 20.2998 38.2455 8.42834
    endloop
  endfacet
  facet normal -0.125346 0 0.992113
    outer loop
      vertex 20.1005 33.9 8.40316
      vertex 20.2998 38.2455 8.42834
      vertex 20.1005 38.2519 8.40316
    endloop
  endfacet
  facet normal 0 -1 0
    outer loop
      vertex 20.1005 33.9 8.40316
      vertex 20.6184 33.9 6.75845
      vertex 20.2998 33.9 8.42834
    endloop
  endfacet
  facet normal -2.3984e-06 0.968992 -0.247093
    outer loop
      vertex 20.1005 38.2519 11.5968
      vertex 30 38.2545 11.6069
      vertex 20.2998 38.2455 11.5717
    endloop
  endfacet
  facet normal -4.42792e-06 0.969176 0.24637
    outer loop
      vertex 20.1005 38.2519 8.40316
      vertex 20.2998 38.2455 8.42834
      vertex 30 38.2545 8.39311
    endloop
  endfacet
  facet normal -0.12546 0 -0.992099
    outer loop
      vertex 20.2072 30.9 13.2935
      vertex 20.2072 33.9 13.2935
      vertex 20.6184 33.9 13.2415
    endloop
  endfacet
  facet normal 0 -1 0
    outer loop
      vertex 20.2072 30.9 13.2935
      vertex 20.6184 30.9 13.2415
      vertex 30 30.9 20
    endloop
  endfacet
  facet normal -0.12546 0 -0.992099
    outer loop
      vertex 20.2072 30.9 13.2935
      vertex 20.6184 33.9 13.2415
      vertex 20.6184 30.9 13.2415
    endloop
  endfacet
  facet normal -0.125317 0 0.992117
    outer loop
      vertex 20.2072 30.9 6.70651
      vertex 20.6184 30.9 6.75845
      vertex 20.2072 33.9 6.70651
    endloop
  endfacet
  facet normal 0 -1 0
    outer loop
      vertex 20.2072 30.9 6.70651
      vertex 30 30.9 0
      vertex 20.6184 30.9 6.75845
    endloop
  endfacet
  facet normal -0.125317 0 0.992117
    outer loop
      vertex 20.2072 33.9 6.70651
      vertex 20.6184 30.9 6.75845
      vertex 20.6184 33.9 6.75845
    endloop
  endfacet
  facet normal -0.248854 0 -0.968541
    outer loop
      vertex 20.2998 33.9 11.5717
      vertex 20.2998 38.2455 11.5717
      vertex 20.4944 38.2326 11.5217
    endloop
  endfacet
  facet normal 0 -1 0
    outer loop
      vertex 20.2998 33.9 11.5717
      vertex 20.4944 33.9 11.5217
      vertex 21.0198 33.9 13.1385
    endloop
  endfacet
  facet normal -0.248854 0 -0.968541
    outer loop
      vertex 20.2998 33.9 11.5717
      vertex 20.4944 38.2326 11.5217
      vertex 20.4944 33.9 11.5217
    endloop
  endfacet
  facet normal 0 -1 -0
    outer loop
      vertex 20.2998 33.9 11.5717
      vertex 21.0198 33.9 13.1385
      vertex 20.6184 33.9 13.2415
    endloop
  endfacet
  facet normal -0.248714 0 0.968577
    outer loop
      vertex 20.2998 33.9 8.42834
      vertex 20.4944 33.9 8.47831
      vertex 20.4944 38.2326 8.47831
    endloop
  endfacet
  facet normal -0.248714 0 0.968577
    outer loop
      vertex 20.2998 33.9 8.42834
      vertex 20.4944 38.2326 8.47831
      vertex 20.2998 38.2455 8.42834
    endloop
  endfacet
  facet normal 0 -1 0
    outer loop
      vertex 20.2998 33.9 8.42834
      vertex 20.6184 33.9 6.75845
      vertex 21.0198 33.9 6.86151
    endloop
  endfacet
  facet normal 0 -1 0
    outer loop
      vertex 20.2998 33.9 8.42834
      vertex 21.0198 33.9 6.86151
      vertex 20.4944 33.9 8.47831
    endloop
  endfacet
  facet normal 8.03209e-06 0.9683 -0.24979
    outer loop
      vertex 20.2998 38.2455 11.5717
      vertex 30 38.2545 11.6069
      vertex 20.4944 38.2326 11.5217
    endloop
  endfacet
  facet normal 9.33057e-06 0.968265 0.249926
    outer loop
      vertex 20.2998 38.2455 8.42834
      vertex 20.4944 38.2326 8.47831
      vertex 30 38.2545 8.39311
    endloop
  endfacet
  facet normal -0.368299 0 -0.929707
    outer loop
      vertex 20.4944 33.9 11.5217
      vertex 20.4944 38.2326 11.5217
      vertex 20.6812 38.2136 11.4477
    endloop
  endfacet
  facet normal 0 -1 0
    outer loop
      vertex 20.4944 33.9 11.5217
      vertex 20.6812 33.9 11.4477
      vertex 21.4051 33.9 12.9859
    endloop
  endfacet
  facet normal -0.368299 0 -0.929707
    outer loop
      vertex 20.4944 33.9 11.5217
      vertex 20.6812 38.2136 11.4477
      vertex 20.6812 33.9 11.4477
    endloop
  endfacet
  facet normal 0 -1 -0
    outer loop
      vertex 20.4944 33.9 11.5217
      vertex 21.4051 33.9 12.9859
      vertex 21.0198 33.9 13.1385
    endloop
  endfacet
  facet normal -0.36817 0 0.929758
    outer loop
      vertex 20.4944 33.9 8.47831
      vertex 20.6812 33.9 8.55228
      vertex 20.6812 38.2136 8.55228
    endloop
  endfacet
  facet normal -0.36817 0 0.929758
    outer loop
      vertex 20.4944 33.9 8.47831
      vertex 20.6812 38.2136 8.55228
      vertex 20.4944 38.2326 8.47831
    endloop
  endfacet
  facet normal 0 -1 0
    outer loop
      vertex 20.4944 33.9 8.47831
      vertex 21.0198 33.9 6.86151
      vertex 21.4051 33.9 7.01407
    endloop
  endfacet
  facet normal 0 -1 0
    outer loop
      vertex 20.4944 33.9 8.47831
      vertex 21.4051 33.9 7.01407
      vertex 20.6812 33.9 8.55228
    endloop
  endfacet
  facet normal -2.42371e-06 0.968582 -0.248696
    outer loop
      vertex 20.4944 38.2326 11.5217
      vertex 30 38.2545 11.6069
      vertex 20.6812 38.2136 11.4477
    endloop
  endfacet
  facet normal -1.53963e-06 0.968558 0.248789
    outer loop
      vertex 20.4944 38.2326 8.47831
      vertex 20.6812 38.2136 8.55228
      vertex 30 38.2545 8.39311
    endloop
  endfacet
  facet normal -0.24855 0 -0.968619
    outer loop
      vertex 20.6184 30.9 13.2415
      vertex 20.6184 33.9 13.2415
      vertex 21.0198 33.9 13.1385
    endloop
  endfacet
  facet normal 0 -1 0
    outer loop
      vertex 20.6184 30.9 13.2415
      vertex 21.0198 30.9 13.1385
      vertex 30 30.9 20
    endloop
  endfacet
  facet normal -0.24855 0 -0.968619
    outer loop
      vertex 20.6184 30.9 13.2415
      vertex 21.0198 33.9 13.1385
      vertex 21.0198 30.9 13.1385
    endloop
  endfacet
  facet normal -0.248685 0 0.968584
    outer loop
      vertex 20.6184 30.9 6.75845
      vertex 21.0198 30.9 6.86151
      vertex 20.6184 33.9 6.75845
    endloop
  endfacet
  facet normal 0 -1 0
    outer loop
      vertex 20.6184 30.9 6.75845
      vertex 30 30.9 0
      vertex 21.0198 30.9 6.86151
    endloop
  endfacet
  facet normal -0.248685 0 0.968584
    outer loop
      vertex 20.6184 33.9 6.75845
      vertex 21.0198 30.9 6.86151
      vertex 21.0198 33.9 6.86151
    endloop
  endfacet
  facet normal -0.481709 0 -0.876331
    outer loop
      vertex 20.6812 33.9 11.4477
      vertex 20.6812 38.2136 11.4477
      vertex 20.8573 38.1888 11.3509
    endloop
  endfacet
  facet normal 0 -1 0
    outer loop
      vertex 20.6812 33.9 11.4477
      vertex 20.8573 33.9 11.3509
      vertex 21.7682 33.9 12.7863
    endloop
  endfacet
  facet normal -0.481709 0 -0.876331
    outer loop
      vertex 20.6812 33.9 11.4477
      vertex 20.8573 38.1888 11.3509
      vertex 20.8573 33.9 11.3509
    endloop
  endfacet
  facet normal 0 -1 -0
    outer loop
      vertex 20.6812 33.9 11.4477
      vertex 21.7682 33.9 12.7863
      vertex 21.4051 33.9 12.9859
    endloop
  endfacet
  facet normal -0.48167 0 0.876352
    outer loop
      vertex 20.6812 33.9 8.55228
      vertex 20.8573 33.9 8.64907
      vertex 20.8573 38.1888 8.64907
    endloop
  endfacet
  facet normal -0.48167 0 0.876352
    outer loop
      vertex 20.6812 33.9 8.55228
      vertex 20.8573 38.1888 8.64907
      vertex 20.6812 38.2136 8.55228
    endloop
  endfacet
  facet normal 0 -1 0
    outer loop
      vertex 20.6812 33.9 8.55228
      vertex 21.4051 33.9 7.01407
      vertex 21.7682 33.9 7.21372
    endloop
  endfacet
  facet normal 0 -1 0
    outer loop
      vertex 20.6812 33.9 8.55228
      vertex 21.7682 33.9 7.21372
      vertex 20.8573 33.9 8.64907
    endloop
  endfacet
  facet normal -1.1415e-05 0.968708 -0.248202
    outer loop
      vertex 20.6812 38.2136 11.4477
      vertex 30 38.2545 11.6069
      vertex 20.8573 38.1888 11.3509
    endloop
  endfacet
  facet normal -1.17651e-05 0.968702 0.248227
    outer loop
      vertex 20.6812 38.2136 8.55228
      vertex 20.8573 38.1888 8.64907
      vertex 30 38.2545 8.39311
    endloop
  endfacet
  facet normal -0.587669 0 -0.809102
    outer loop
      vertex 20.8573 33.9 11.3509
      vertex 20.8573 38.1888 11.3509
      vertex 21.0199 38.1585 11.2328
    endloop
  endfacet
  facet normal 0 -1 0
    outer loop
      vertex 20.8573 33.9 11.3509
      vertex 21.0199 33.9 11.2328
      vertex 22.1035 33.9 12.5427
    endloop
  endfacet
  facet normal -0.587669 0 -0.809102
    outer loop
      vertex 20.8573 33.9 11.3509
      vertex 21.0199 38.1585 11.2328
      vertex 21.0199 33.9 11.2328
    endloop
  endfacet
  facet normal 0 -1 -0
    outer loop
      vertex 20.8573 33.9 11.3509
      vertex 22.1035 33.9 12.5427
      vertex 21.7682 33.9 12.7863
    endloop
  endfacet
  facet normal -0.587701 0 0.809078
    outer loop
      vertex 20.8573 33.9 8.64907
      vertex 21.0199 33.9 8.76718
      vertex 21.0199 38.1585 8.76718
    endloop
  endfacet
  facet normal -0.587701 0 0.809078
    outer loop
      vertex 20.8573 33.9 8.64907
      vertex 21.0199 38.1585 8.76718
      vertex 20.8573 38.1888 8.64907
    endloop
  endfacet
  facet normal 0 -1 0
    outer loop
      vertex 20.8573 33.9 8.64907
      vertex 21.7682 33.9 7.21372
      vertex 22.1035 33.9 7.45731
    endloop
  endfacet
  facet normal 0 -1 0
    outer loop
      vertex 20.8573 33.9 8.64907
      vertex 22.1035 33.9 7.45731
      vertex 21.0199 33.9 8.76718
    endloop
  endfacet
  facet normal -2.04717e-06 0.968628 -0.248516
    outer loop
      vertex 20.8573 38.1888 11.3509
      vertex 30 38.2545 11.6069
      vertex 21.0199 38.1585 11.2328
    endloop
  endfacet
  facet normal -3.66132e-06 0.968632 0.248498
    outer loop
      vertex 20.8573 38.1888 8.64907
      vertex 21.0199 38.1585 8.76718
      vertex 30 38.2545 8.39311
    endloop
  endfacet
  facet normal -0.368227 0 -0.929736
    outer loop
      vertex 21.0198 30.9 13.1385
      vertex 21.0198 33.9 13.1385
      vertex 21.4051 33.9 12.9859
    endloop
  endfacet
  facet normal 0 -1 0
    outer loop
      vertex 21.0198 30.9 13.1385
      vertex 21.4051 30.9 12.9859
      vertex 30 30.9 20
    endloop
  endfacet
  facet normal -0.368227 0 -0.929736
    outer loop
      vertex 21.0198 30.9 13.1385
      vertex 21.4051 33.9 12.9859
      vertex 21.4051 30.9 12.9859
    endloop
  endfacet
  facet normal -0.368143 0 0.929769
    outer loop
      vertex 21.0198 30.9 6.86151
      vertex 21.4051 30.9 7.01407
      vertex 21.0198 33.9 6.86151
    endloop
  endfacet
  facet normal 0 -1 0
    outer loop
      vertex 21.0198 30.9 6.86151
      vertex 30 30.9 0
      vertex 21.4051 30.9 7.01407
    endloop
  endfacet
  facet normal -0.368143 0 0.929769
    outer loop
      vertex 21.0198 33.9 6.86151
      vertex 21.4051 30.9 7.01407
      vertex 21.4051 33.9 7.01407
    endloop
  endfacet
  facet normal -0.684603 0 -0.728916
    outer loop
      vertex 21.0199 33.9 11.2328
      vertex 21.0199 38.1585 11.2328
      vertex 21.1663 38.1231 11.0953
    endloop
  endfacet
  facet normal 0 -1 0
    outer loop
      vertex 21.0199 33.9 11.2328
      vertex 21.1663 33.9 11.0953
      vertex 22.4056 33.9 12.259
    endloop
  endfacet
  facet normal -0.684603 0 -0.728916
    outer loop
      vertex 21.0199 33.9 11.2328
      vertex 21.1663 38.1231 11.0953
      vertex 21.1663 33.9 11.0953
    endloop
  endfacet
  facet normal 0 -1 -0
    outer loop
      vertex 21.0199 33.9 11.2328
      vertex 22.4056 33.9 12.259
      vertex 22.1035 33.9 12.5427
    endloop
  endfacet
  facet normal -0.684709 0 0.728816
    outer loop
      vertex 21.0199 33.9 8.76718
      vertex 21.1663 33.9 8.90472
      vertex 21.1663 38.1231 8.90472
    endloop
  endfacet
  facet normal -0.684709 0 0.728816
    outer loop
      vertex 21.0199 33.9 8.76718
      vertex 21.1663 38.1231 8.90472
      vertex 21.0199 38.1585 8.76718
    endloop
  endfacet
  facet normal 0 -1 0
    outer loop
      vertex 21.0199 33.9 8.76718
      vertex 22.1035 33.9 7.45731
      vertex 22.4056 33.9 7.74099
    endloop
  endfacet
  facet normal 0 -1 0
    outer loop
      vertex 21.0199 33.9 8.76718
      vertex 22.4056 33.9 7.74099
      vertex 21.1663 33.9 8.90472
    endloop
  endfacet
  facet normal 3.23978e-05 0.968428 -0.249292
    outer loop
      vertex 21.0199 38.1585 11.2328
      vertex 30 38.2545 11.6069
      vertex 21.1663 38.1231 11.0953
    endloop
  endfacet
  facet normal 2.8709e-05 0.968445 0.249227
    outer loop
      vertex 21.0199 38.1585 8.76718
      vertex 21.1663 38.1231 8.90472
      vertex 30 38.2545 8.39311
    endloop
  endfacet
  facet normal -0.770254 0 -0.637737
    outer loop
      vertex 21.1663 33.9 11.0953
      vertex 21.1663 38.1231 11.0953
      vertex 21.2664 38.0921 10.9744
    endloop
  endfacet
  facet normal -0.771008 4.42716e-05 -0.636826
    outer loop
      vertex 21.1663 33.9 11.0953
      vertex 21.2664 38.0921 10.9744
      vertex 21.2944 38.0878 10.9405
    endloop
  endfacet
  facet normal 0 -1 0
    outer loop
      vertex 21.1663 33.9 11.0953
      vertex 21.2944 33.9 10.9405
      vertex 22.6698 33.9 11.9397
    endloop
  endfacet
  facet normal -0.77042 0 -0.637537
    outer loop
      vertex 21.1663 33.9 11.0953
      vertex 21.2944 38.0878 10.9405
      vertex 21.2944 33.9 10.9405
    endloop
  endfacet
  facet normal 0 -1 -0
    outer loop
      vertex 21.1663 33.9 11.0953
      vertex 22.6698 33.9 11.9397
      vertex 22.4056 33.9 12.259
    endloop
  endfacet
  facet normal -0.770254 0 0.637737
    outer loop
      vertex 21.1663 33.9 8.90472
      vertex 21.2664 38.0921 9.02562
      vertex 21.1663 38.1231 8.90472
    endloop
  endfacet
  facet normal -0.77046 0 0.637488
    outer loop
      vertex 21.1663 33.9 8.90472
      vertex 21.2944 33.9 9.05954
      vertex 21.2944 38.0878 9.05954
    endloop
  endfacet
  facet normal -0.771191 5.50743e-05 0.636604
    outer loop
      vertex 21.1663 33.9 8.90472
      vertex 21.2944 38.0878 9.05954
      vertex 21.2664 38.0921 9.02562
    endloop
  endfacet
  facet normal 0 -1 0
    outer loop
      vertex 21.1663 33.9 8.90472
      vertex 22.4056 33.9 7.74099
      vertex 22.6698 33.9 8.06031
    endloop
  endfacet
  facet normal 0 -1 0
    outer loop
      vertex 21.1663 33.9 8.90472
      vertex 22.6698 33.9 8.06031
      vertex 21.2944 33.9 9.05954
    endloop
  endfacet
  facet normal -2.30739e-05 0.968659 -0.248393
    outer loop
      vertex 21.1663 38.1231 11.0953
      vertex 30 38.2545 11.6069
      vertex 21.2664 38.0921 10.9744
    endloop
  endfacet
  facet normal -2.28056e-05 0.968659 0.248393
    outer loop
      vertex 21.1663 38.1231 8.90472
      vertex 21.2664 38.0921 9.02562
      vertex 30 38.2545 8.39311
    endloop
  endfacet
  facet normal 0 0.992051 -0.125835
    outer loop
      vertex 21.2664 38.0921 10.9744
      vertex 30 38.0921 10.9744
      vertex 21.2944 38.0878 10.9405
    endloop
  endfacet
  facet normal 0 0.968583 -0.248692
    outer loop
      vertex 21.2664 38.0921 10.9744
      vertex 30 38.2545 11.6069
      vertex 30 38.0921 10.9744
    endloop
  endfacet
  facet normal 0 0.99206 0.125762
    outer loop
      vertex 21.2664 38.0921 9.02562
      vertex 21.2944 38.0878 9.05954
      vertex 30 38.0921 9.02562
    endloop
  endfacet
  facet normal 0 0.968584 0.248689
    outer loop
      vertex 21.2664 38.0921 9.02562
      vertex 30 38.0921 9.02562
      vertex 30 38.2545 8.39311
    endloop
  endfacet
  facet normal -0.844316 0 -0.535845
    outer loop
      vertex 21.2944 33.9 10.9405
      vertex 21.2944 38.0878 10.9405
      vertex 21.4021 38.0664 10.7708
    endloop
  endfacet
  facet normal 0 -1 0
    outer loop
      vertex 21.2944 33.9 10.9405
      vertex 21.4021 33.9 10.7708
      vertex 22.8918 33.9 11.5898
    endloop
  endfacet
  facet normal -0.844316 0 -0.535845
    outer loop
      vertex 21.2944 33.9 10.9405
      vertex 21.4021 38.0664 10.7708
      vertex 21.4021 33.9 10.7708
    endloop
  endfacet
  facet normal 0 -1 -0
    outer loop
      vertex 21.2944 33.9 10.9405
      vertex 22.8918 33.9 11.5898
      vertex 22.6698 33.9 11.9397
    endloop
  endfacet
  facet normal -0.844245 0 0.535957
    outer loop
      vertex 21.2944 33.9 9.05954
      vertex 21.4021 33.9 9.22919
      vertex 21.4021 38.0664 9.22919
    endloop
  endfacet
  facet normal -0.844245 0 0.535957
    outer loop
      vertex 21.2944 33.9 9.05954
      vertex 21.4021 38.0664 9.22919
      vertex 21.2944 38.0878 9.05954
    endloop
  endfacet
  facet normal 0 -1 0
    outer loop
      vertex 21.2944 33.9 9.05954
      vertex 22.6698 33.9 8.06031
      vertex 22.8918 33.9 8.41021
    endloop
  endfacet
  facet normal 0 -1 0
    outer loop
      vertex 21.2944 33.9 9.05954
      vertex 22.8918 33.9 8.41021
      vertex 21.4021 33.9 9.22919
    endloop
  endfacet
  facet normal -2.84715e-06 0.992142 -0.125116
    outer loop
      vertex 21.2944 38.0878 10.9405
      vertex 30 38.0921 10.9744
      vertex 21.4021 38.0664 10.7708
    endloop
  endfacet
  facet normal -2.41709e-06 0.992138 0.125152
    outer loop
      vertex 21.2944 38.0878 9.05954
      vertex 21.4021 38.0664 9.22919
      vertex 30 38.0921 9.02562
    endloop
  endfacet
  facet normal -0.90492 0 -0.425581
    outer loop
      vertex 21.4021 33.9 10.7708
      vertex 21.4021 38.0664 10.7708
      vertex 21.4876 38.0434 10.589
    endloop
  endfacet
  facet normal 0 -1 0
    outer loop
      vertex 21.4021 33.9 10.7708
      vertex 21.4876 33.9 10.589
      vertex 23.0683 33.9 11.2148
    endloop
  endfacet
  facet normal -0.90492 0 -0.425581
    outer loop
      vertex 21.4021 33.9 10.7708
      vertex 21.4876 38.0434 10.589
      vertex 21.4876 33.9 10.589
    endloop
  endfacet
  facet normal 0 -1 -0
    outer loop
      vertex 21.4021 33.9 10.7708
      vertex 23.0683 33.9 11.2148
      vertex 22.8918 33.9 11.5898
    endloop
  endfacet
  facet normal -0.904929 0 0.425562
    outer loop
      vertex 21.4021 33.9 9.22919
      vertex 21.4876 33.9 9.411
      vertex 21.4876 38.0434 9.411
    endloop
  endfacet
  facet normal -0.904929 0 0.425562
    outer loop
      vertex 21.4021 33.9 9.22919
      vertex 21.4876 38.0434 9.411
      vertex 21.4021 38.0664 9.22919
    endloop
  endfacet
  facet normal 0 -1 0
    outer loop
      vertex 21.4021 33.9 9.22919
      vertex 22.8918 33.9 8.41021
      vertex 23.0683 33.9 8.78519
    endloop
  endfacet
  facet normal 0 -1 0
    outer loop
      vertex 21.4021 33.9 9.22919
      vertex 23.0683 33.9 8.78519
      vertex 21.4876 33.9 9.411
    endloop
  endfacet
  facet normal 6.61602e-06 0.992092 -0.125509
    outer loop
      vertex 21.4021 38.0664 10.7708
      vertex 30 38.0921 10.9744
      vertex 21.4876 38.0434 10.589
    endloop
  endfacet
  facet normal 6.02127e-06 0.992093 0.125503
    outer loop
      vertex 21.4021 38.0664 9.22919
      vertex 21.4876 38.0434 9.411
      vertex 30 38.0921 9.02562
    endloop
  endfacet
  facet normal -0.481724 0 -0.876323
    outer loop
      vertex 21.4051 30.9 12.9859
      vertex 21.4051 33.9 12.9859
      vertex 21.7682 33.9 12.7863
    endloop
  endfacet
  facet normal 0 -1 0
    outer loop
      vertex 21.4051 30.9 12.9859
      vertex 21.7682 30.9 12.7863
      vertex 30 30.9 20
    endloop
  endfacet
  facet normal -0.481724 0 -0.876323
    outer loop
      vertex 21.4051 30.9 12.9859
      vertex 21.7682 33.9 12.7863
      vertex 21.7682 30.9 12.7863
    endloop
  endfacet
  facet normal -0.481817 0 0.876272
    outer loop
      vertex 21.4051 30.9 7.01407
      vertex 21.7682 30.9 7.21372
      vertex 21.4051 33.9 7.01407
    endloop
  endfacet
  facet normal 0 -1 0
    outer loop
      vertex 21.4051 30.9 7.01407
      vertex 30 30.9 0
      vertex 21.7682 30.9 7.21372
    endloop
  endfacet
  facet normal -0.481817 0 0.876272
    outer loop
      vertex 21.4051 33.9 7.01407
      vertex 21.7682 30.9 7.21372
      vertex 21.7682 33.9 7.21372
    endloop
  endfacet
  facet normal -0.951045 0 -0.309052
    outer loop
      vertex 21.4876 33.9 10.589
      vertex 21.4876 38.0434 10.589
      vertex 21.5497 38.0193 10.3979
    endloop
  endfacet
  facet normal 0 -1 0
    outer loop
      vertex 21.4876 33.9 10.589
      vertex 21.5497 33.9 10.3979
      vertex 23.1963 33.9 10.8207
    endloop
  endfacet
  facet normal -0.951045 0 -0.309052
    outer loop
      vertex 21.4876 33.9 10.589
      vertex 21.5497 38.0193 10.3979
      vertex 21.5497 33.9 10.3979
    endloop
  endfacet
  facet normal 0 -1 -0
    outer loop
      vertex 21.4876 33.9 10.589
      vertex 23.1963 33.9 10.8207
      vertex 23.0683 33.9 11.2148
    endloop
  endfacet
  facet normal -0.951045 0 0.309052
    outer loop
      vertex 21.4876 33.9 9.411
      vertex 21.5497 33.9 9.6021
      vertex 21.5497 38.0193 9.6021
    endloop
  endfacet
  facet normal -0.951045 0 0.309052
    outer loop
      vertex 21.4876 33.9 9.411
      vertex 21.5497 38.0193 9.6021
      vertex 21.4876 38.0434 9.411
    endloop
  endfacet
  facet normal 0 -1 0
    outer loop
      vertex 21.4876 33.9 9.411
      vertex 23.0683 33.9 8.78519
      vertex 23.1963 33.9 9.17932
    endloop
  endfacet
  facet normal 0 -1 0
    outer loop
      vertex 21.4876 33.9 9.411
      vertex 23.1963 33.9 9.17932
      vertex 21.5497 33.9 9.6021
    endloop
  endfacet
  facet normal -1.10775e-05 0.992141 -0.125124
    outer loop
      vertex 21.4876 38.0434 10.589
      vertex 30 38.0921 10.9744
      vertex 21.5497 38.0193 10.3979
    endloop
  endfacet
  facet normal -1.13673e-05 0.992141 0.125125
    outer loop
      vertex 21.4876 38.0434 9.411
      vertex 21.5497 38.0193 9.6021
      vertex 30 38.0921 9.02562
    endloop
  endfacet
  facet normal -0.982085 0 -0.188439
    outer loop
      vertex 21.5497 33.9 10.3979
      vertex 21.5497 38.0193 10.3979
      vertex 21.5634 38.0103 10.3265
    endloop
  endfacet
  facet normal -0.982247 1.52535e-05 -0.187592
    outer loop
      vertex 21.5497 33.9 10.3979
      vertex 21.5634 38.0103 10.3265
      vertex 21.5874 33.9 10.2005
    endloop
  endfacet
  facet normal 0 -1 0
    outer loop
      vertex 21.5497 33.9 10.3979
      vertex 21.5874 33.9 10.2005
      vertex 23.274 33.9 10.4136
    endloop
  endfacet
  facet normal 0 -1 -0
    outer loop
      vertex 21.5497 33.9 10.3979
      vertex 23.274 33.9 10.4136
      vertex 23.1963 33.9 10.8207
    endloop
  endfacet
  facet normal -0.98208 0 0.188465
    outer loop
      vertex 21.5497 33.9 9.6021
      vertex 21.5634 38.0103 9.67349
      vertex 21.5497 38.0193 9.6021
    endloop
  endfacet
  facet normal -0.982242 1.52146e-05 0.18762
    outer loop
      vertex 21.5497 33.9 9.6021
      vertex 21.5874 33.9 9.79947
      vertex 21.5634 38.0103 9.67349
    endloop
  endfacet
  facet normal 0 -1 0
    outer loop
      vertex 21.5497 33.9 9.6021
      vertex 23.1963 33.9 9.17932
      vertex 23.274 33.9 9.5864
    endloop
  endfacet
  facet normal 0 -1 0
    outer loop
      vertex 21.5497 33.9 9.6021
      vertex 23.274 33.9 9.5864
      vertex 21.5874 33.9 9.79947
    endloop
  endfacet
  facet normal -1.52901e-05 0.992149 -0.125064
    outer loop
      vertex 21.5497 38.0193 10.3979
      vertex 30 38.0921 10.9744
      vertex 21.5634 38.0103 10.3265
    endloop
  endfacet
  facet normal -1.44025e-05 0.992147 0.125081
    outer loop
      vertex 21.5497 38.0193 9.6021
      vertex 21.5634 38.0103 9.67349
      vertex 30 38.0921 9.02562
    endloop
  endfacet
  facet normal -0.982339 -0 -0.187112
    outer loop
      vertex 21.5634 38.0103 10.3265
      vertex 21.5874 38.0103 10.2005
      vertex 21.5874 33.9 10.2005
    endloop
  endfacet
  facet normal 0 1 0
    outer loop
      vertex 21.5634 38.0103 10.3265
      vertex 30 38.0103 10.3265
      vertex 21.5874 38.0103 10.2005
    endloop
  endfacet
  facet normal 0 0.992124 -0.12526
    outer loop
      vertex 21.5634 38.0103 10.3265
      vertex 30 38.0921 10.9744
      vertex 30 38.0103 10.3265
    endloop
  endfacet
  facet normal -0.982333 0 0.187141
    outer loop
      vertex 21.5634 38.0103 9.67349
      vertex 21.5874 33.9 9.79947
      vertex 21.5874 38.0103 9.79947
    endloop
  endfacet
  facet normal 0 1 0
    outer loop
      vertex 21.5634 38.0103 9.67349
      vertex 21.5874 38.0103 9.79947
      vertex 30 38.0103 9.67349
    endloop
  endfacet
  facet normal 0 0.992123 0.125265
    outer loop
      vertex 21.5634 38.0103 9.67349
      vertex 30 38.0103 9.67349
      vertex 30 38.0921 9.02562
    endloop
  endfacet
  facet normal -0.998031 -0 -0.0627192
    outer loop
      vertex 21.5874 33.9 10.2005
      vertex 21.5874 38.0103 10.2005
      vertex 21.6 33.9 10
    endloop
  endfacet
  facet normal 0 -1 0
    outer loop
      vertex 21.5874 33.9 10.2005
      vertex 21.6 33.9 10
      vertex 23.274 33.9 10.4136
    endloop
  endfacet
  facet normal -0.998032 0 0.0627098
    outer loop
      vertex 21.5874 33.9 9.79947
      vertex 21.6 33.9 10
      vertex 21.6 38.0103 10
    endloop
  endfacet
  facet normal -0.998032 0 0.0627098
    outer loop
      vertex 21.5874 33.9 9.79947
      vertex 21.6 38.0103 10
      vertex 21.5874 38.0103 9.79947
    endloop
  endfacet
  facet normal 0 -1 0
    outer loop
      vertex 21.5874 33.9 9.79947
      vertex 23.274 33.9 9.5864
      vertex 23.3 33.9 10
    endloop
  endfacet
  facet normal 0 -1 0
    outer loop
      vertex 21.5874 33.9 9.79947
      vertex 23.3 33.9 10
      vertex 21.6 33.9 10
    endloop
  endfacet
  facet normal -0.998031 0 -0.0627192
    outer loop
      vertex 21.5874 38.0103 10.2005
      vertex 21.6 38.0103 10
      vertex 21.6 33.9 10
    endloop
  endfacet
  facet normal 0 1 0
    outer loop
      vertex 21.5874 38.0103 10.2005
      vertex 30 38.0103 10.3265
      vertex 21.6 38.0103 10
    endloop
  endfacet
  facet normal 0 1 0
    outer loop
      vertex 21.5874 38.0103 9.79947
      vertex 21.6 38.0103 10
      vertex 30 38.0103 9.67349
    endloop
  endfacet
  facet normal 0 -1 0
    outer loop
      vertex 21.6 33.9 10
      vertex 23.3 33.9 10
      vertex 23.274 33.9 10.4136
    endloop
  endfacet
  facet normal 0 1 -0
    outer loop
      vertex 21.6 38.0103 10
      vertex 30 38.0103 10.3265
      vertex 30 38.0103 9.67349
    endloop
  endfacet
  facet normal -0.58777 0 -0.809028
    outer loop
      vertex 21.7682 30.9 12.7863
      vertex 21.7682 33.9 12.7863
      vertex 22.1035 33.9 12.5427
    endloop
  endfacet
  facet normal 0 -1 0
    outer loop
      vertex 21.7682 30.9 12.7863
      vertex 22.1035 30.9 12.5427
      vertex 30 30.9 20
    endloop
  endfacet
  facet normal -0.58777 0 -0.809028
    outer loop
      vertex 21.7682 30.9 12.7863
      vertex 22.1035 33.9 12.5427
      vertex 22.1035 30.9 12.5427
    endloop
  endfacet
  facet normal -0.587754 0 0.80904
    outer loop
      vertex 21.7682 30.9 7.21372
      vertex 22.1035 30.9 7.45731
      vertex 21.7682 33.9 7.21372
    endloop
  endfacet
  facet normal 0 -1 0
    outer loop
      vertex 21.7682 30.9 7.21372
      vertex 30 30.9 0
      vertex 22.1035 30.9 7.45731
    endloop
  endfacet
  facet normal -0.587754 0 0.80904
    outer loop
      vertex 21.7682 33.9 7.21372
      vertex 22.1035 30.9 7.45731
      vertex 22.1035 33.9 7.45731
    endloop
  endfacet
  facet normal -0.684559 0 -0.728958
    outer loop
      vertex 22.1035 30.9 12.5427
      vertex 22.1035 33.9 12.5427
      vertex 22.4056 33.9 12.259
    endloop
  endfacet
  facet normal 0 -1 0
    outer loop
      vertex 22.1035 30.9 12.5427
      vertex 22.4056 30.9 12.259
      vertex 30 30.9 20
    endloop
  endfacet
  facet normal -0.684559 0 -0.728958
    outer loop
      vertex 22.1035 30.9 12.5427
      vertex 22.4056 33.9 12.259
      vertex 22.4056 30.9 12.259
    endloop
  endfacet
  facet normal -0.684533 0 0.728982
    outer loop
      vertex 22.1035 30.9 7.45731
      vertex 22.4056 30.9 7.74099
      vertex 22.1035 33.9 7.45731
    endloop
  endfacet
  facet normal 0 -1 0
    outer loop
      vertex 22.1035 30.9 7.45731
      vertex 30 30.9 0
      vertex 22.4056 30.9 7.74099
    endloop
  endfacet
  facet normal -0.684533 0 0.728982
    outer loop
      vertex 22.1035 33.9 7.45731
      vertex 22.4056 30.9 7.74099
      vertex 22.4056 33.9 7.74099
    endloop
  endfacet
  facet normal -0.770452 -0 -0.637499
    outer loop
      vertex 22.4056 30.9 12.259
      vertex 22.4056 33.9 12.259
      vertex 22.6698 30.9 11.9397
    endloop
  endfacet
  facet normal 0 -1 0
    outer loop
      vertex 22.4056 30.9 12.259
      vertex 22.6698 30.9 11.9397
      vertex 30 30.9 20
    endloop
  endfacet
  facet normal -0.770471 0 0.637475
    outer loop
      vertex 22.4056 30.9 7.74099
      vertex 22.6698 30.9 8.06031
      vertex 22.6698 33.9 8.06031
    endloop
  endfacet
  facet normal -0.770471 0 0.637475
    outer loop
      vertex 22.4056 30.9 7.74099
      vertex 22.6698 33.9 8.06031
      vertex 22.4056 33.9 7.74099
    endloop
  endfacet
  facet normal 0 -1 0
    outer loop
      vertex 22.4056 30.9 7.74099
      vertex 30 30.9 0
      vertex 22.6698 30.9 8.06031
    endloop
  endfacet
  facet normal -0.770452 0 -0.637499
    outer loop
      vertex 22.4056 33.9 12.259
      vertex 22.6698 33.9 11.9397
      vertex 22.6698 30.9 11.9397
    endloop
  endfacet
  facet normal -0.844386 -0 -0.535735
    outer loop
      vertex 22.6698 30.9 11.9397
      vertex 22.6698 33.9 11.9397
      vertex 22.8918 30.9 11.5898
    endloop
  endfacet
  facet normal 0 -1 0
    outer loop
      vertex 22.6698 30.9 11.9397
      vertex 22.8918 30.9 11.5898
      vertex 30 30.9 20
    endloop
  endfacet
  facet normal -0.844386 0 0.535735
    outer loop
      vertex 22.6698 30.9 8.06031
      vertex 22.8918 30.9 8.41021
      vertex 22.8918 33.9 8.41021
    endloop
  endfacet
  facet normal -0.844386 0 0.535735
    outer loop
      vertex 22.6698 30.9 8.06031
      vertex 22.8918 33.9 8.41021
      vertex 22.6698 33.9 8.06031
    endloop
  endfacet
  facet normal 0 -1 0
    outer loop
      vertex 22.6698 30.9 8.06031
      vertex 30 30.9 0
      vertex 22.8918 30.9 8.41021
    endloop
  endfacet
  facet normal -0.844386 0 -0.535735
    outer loop
      vertex 22.6698 33.9 11.9397
      vertex 22.8918 33.9 11.5898
      vertex 22.8918 30.9 11.5898
    endloop
  endfacet
  facet normal -0.904791 -0 -0.425855
    outer loop
      vertex 22.8918 30.9 11.5898
      vertex 22.8918 33.9 11.5898
      vertex 23.0683 30.9 11.2148
    endloop
  endfacet
  facet normal 0 -1 0
    outer loop
      vertex 22.8918 30.9 11.5898
      vertex 23.0683 30.9 11.2148
      vertex 30 30.9 20
    endloop
  endfacet
  facet normal -0.904783 0 0.425874
    outer loop
      vertex 22.8918 30.9 8.41021
      vertex 23.0683 30.9 8.78519
      vertex 23.0683 33.9 8.78519
    endloop
  endfacet
  facet normal -0.904783 0 0.425874
    outer loop
      vertex 22.8918 30.9 8.41021
      vertex 23.0683 33.9 8.78519
      vertex 22.8918 33.9 8.41021
    endloop
  endfacet
  facet normal 0 -1 0
    outer loop
      vertex 22.8918 30.9 8.41021
      vertex 30 30.9 0
      vertex 23.0683 30.9 8.78519
    endloop
  endfacet
  facet normal -0.904791 0 -0.425855
    outer loop
      vertex 22.8918 33.9 11.5898
      vertex 23.0683 33.9 11.2148
      vertex 23.0683 30.9 11.2148
    endloop
  endfacet
  facet normal -0.951093 -0 -0.308906
    outer loop
      vertex 23.0683 30.9 11.2148
      vertex 23.0683 33.9 11.2148
      vertex 23.1963 30.9 10.8207
    endloop
  endfacet
  facet normal 0 -1 0
    outer loop
      vertex 23.0683 30.9 11.2148
      vertex 23.1963 30.9 10.8207
      vertex 30 30.9 20
    endloop
  endfacet
  facet normal -0.951099 0 0.308885
    outer loop
      vertex 23.0683 30.9 8.78519
      vertex 23.1963 30.9 9.17932
      vertex 23.1963 33.9 9.17932
    endloop
  endfacet
  facet normal -0.951099 0 0.308885
    outer loop
      vertex 23.0683 30.9 8.78519
      vertex 23.1963 33.9 9.17932
      vertex 23.0683 33.9 8.78519
    endloop
  endfacet
  facet normal 0 -1 0
    outer loop
      vertex 23.0683 30.9 8.78519
      vertex 30 30.9 0
      vertex 23.1963 30.9 9.17932
    endloop
  endfacet
  facet normal -0.951093 0 -0.308906
    outer loop
      vertex 23.0683 33.9 11.2148
      vertex 23.1963 33.9 10.8207
      vertex 23.1963 30.9 10.8207
    endloop
  endfacet
  facet normal -0.982269 -0 -0.187478
    outer loop
      vertex 23.1963 30.9 10.8207
      vertex 23.1963 33.9 10.8207
      vertex 23.274 30.9 10.4136
    endloop
  endfacet
  facet normal 0 -1 0
    outer loop
      vertex 23.1963 30.9 10.8207
      vertex 23.274 30.9 10.4136
      vertex 30 30.9 20
    endloop
  endfacet
  facet normal -0.982267 0 0.187487
    outer loop
      vertex 23.1963 30.9 9.17932
      vertex 23.274 30.9 9.5864
      vertex 23.274 33.9 9.5864
    endloop
  endfacet
  facet normal -0.982267 0 0.187487
    outer loop
      vertex 23.1963 30.9 9.17932
      vertex 23.274 33.9 9.5864
      vertex 23.1963 33.9 9.17932
    endloop
  endfacet
  facet normal 0 -1 0
    outer loop
      vertex 23.1963 30.9 9.17932
      vertex 30 30.9 0
      vertex 23.274 30.9 9.5864
    endloop
  endfacet
  facet normal -0.982269 0 -0.187478
    outer loop
      vertex 23.1963 33.9 10.8207
      vertex 23.274 33.9 10.4136
      vertex 23.274 30.9 10.4136
    endloop
  endfacet
  facet normal -0.99803 -0 -0.0627388
    outer loop
      vertex 23.274 30.9 10.4136
      vertex 23.274 33.9 10.4136
      vertex 23.3 30.9 10
    endloop
  endfacet
  facet normal 0 -1 0
    outer loop
      vertex 23.274 30.9 10.4136
      vertex 23.3 30.9 10
      vertex 30 30.9 20
    endloop
  endfacet
  facet normal -0.99803 0 0.0627388
    outer loop
      vertex 23.274 30.9 9.5864
      vertex 23.3 30.9 10
      vertex 23.3 33.9 10
    endloop
  endfacet
  facet normal -0.99803 0 0.0627388
    outer loop
      vertex 23.274 30.9 9.5864
      vertex 23.3 33.9 10
      vertex 23.274 33.9 9.5864
    endloop
  endfacet
  facet normal 0 -1 0
    outer loop
      vertex 23.274 30.9 9.5864
      vertex 30 30.9 0
      vertex 23.3 30.9 10
    endloop
  endfacet
  facet normal -0.99803 0 -0.0627388
    outer loop
      vertex 23.274 33.9 10.4136
      vertex 23.3 33.9 10
      vertex 23.3 30.9 10
    endloop
  endfacet
  facet normal 0 -1 0
    outer loop
      vertex 23.3 30.9 10
      vertex 30 30.9 0
      vertex 30 30.9 20
    endloop
  endfacet
  facet normal 1 0 0
    outer loop
      vertex 30 30.9 0
      vertex 30 38.0103 9.67349
      vertex 30 30.9 20
    endloop
  endfacet
  facet normal 1 0 0
    outer loop
      vertex 30 30.9 0
      vertex 30 38.0921 9.02562
      vertex 30 38.0103 9.67349
    endloop
  endfacet
  facet normal 1 0 0
    outer loop
      vertex 30 30.9 0
      vertex 30 38.2545 8.39311
      vertex 30 38.0921 9.02562
    endloop
  endfacet
  facet normal 1 0 0
    outer loop
      vertex 30 30.9 0
      vertex 30 38.4949 7.78595
      vertex 30 38.2545 8.39311
    endloop
  endfacet
  facet normal 1 0 0
    outer loop
      vertex 30 30.9 0
      vertex 30 38.8095 7.2137
      vertex 30 38.4949 7.78595
    endloop
  endfacet
  facet normal 1 0 0
    outer loop
      vertex 30 30.9 0
      vertex 30 39.1933 6.6854
      vertex 30 38.8095 7.2137
    endloop
  endfacet
  facet normal 1 0 0
    outer loop
      vertex 30 30.9 0
      vertex 30 39.6404 6.20936
      vertex 30 39.1933 6.6854
    endloop
  endfacet
  facet normal 1 0 0
    outer loop
      vertex 30 30.9 0
      vertex 30 40.1435 5.79311
      vertex 30 39.6404 6.20936
    endloop
  endfacet
  facet normal 1 0 0
    outer loop
      vertex 30 30.9 0
      vertex 30 43.2 0
      vertex 30 40.1435 5.79311
    endloop
  endfacet
  facet normal 1 0 0
    outer loop
      vertex 30 30.9 20
      vertex 30 38.0103 10.3265
      vertex 30 38.0921 10.9744
    endloop
  endfacet
  facet normal 1 0 0
    outer loop
      vertex 30 30.9 20
      vertex 30 38.0103 9.67349
      vertex 30 38.0103 10.3265
    endloop
  endfacet
  facet normal 1 0 0
    outer loop
      vertex 30 30.9 20
      vertex 30 38.0921 10.9744
      vertex 30 38.2545 11.6069
    endloop
  endfacet
  facet normal 1 0 0
    outer loop
      vertex 30 30.9 20
      vertex 30 38.2545 11.6069
      vertex 30 38.4949 12.2141
    endloop
  endfacet
  facet normal 1 0 0
    outer loop
      vertex 30 30.9 20
      vertex 30 38.4949 12.2141
      vertex 30 38.8095 12.7863
    endloop
  endfacet
  facet normal 1 0 0
    outer loop
      vertex 30 30.9 20
      vertex 30 38.8095 12.7863
      vertex 30 39.1933 13.3146
    endloop
  endfacet
  facet normal 1 0 0
    outer loop
      vertex 30 30.9 20
      vertex 30 39.1933 13.3146
      vertex 30 39.6404 13.7906
    endloop
  endfacet
  facet normal 1 0 0
    outer loop
      vertex 30 30.9 20
      vertex 30 39.6404 13.7906
      vertex 30 40.1435 14.2069
    endloop
  endfacet
  facet normal 1 -0 0
    outer loop
      vertex 30 30.9 20
      vertex 30 40.1435 14.2069
      vertex 30 43.2 20
    endloop
  endfacet
  facet normal 1 0 0
    outer loop
      vertex 30 40.1435 14.2069
      vertex 30 40.6949 14.5568
      vertex 30 43.2 20
    endloop
  endfacet
  facet normal 1 0 0
    outer loop
      vertex 30 40.1435 5.79311
      vertex 30 43.2 0
      vertex 30 40.6949 5.4432
    endloop
  endfacet
  facet normal 1 0 0
    outer loop
      vertex 30 40.6949 14.5568
      vertex 30 41.2858 14.8348
      vertex 30 43.2 20
    endloop
  endfacet
  facet normal 1 0 0
    outer loop
      vertex 30 40.6949 5.4432
      vertex 30 43.2 0
      vertex 30 41.2858 5.16516
    endloop
  endfacet
  facet normal 1 0 0
    outer loop
      vertex 30 41.2858 14.8348
      vertex 30 41.9068 15.0366
      vertex 30 43.2 20
    endloop
  endfacet
  facet normal 1 0 0
    outer loop
      vertex 30 41.2858 5.16516
      vertex 30 43.2 0
      vertex 30 41.9068 4.96337
    endloop
  endfacet
  facet normal 1 0 0
    outer loop
      vertex 30 41.9068 15.0366
      vertex 30 42.5483 15.159
      vertex 30 43.2 20
    endloop
  endfacet
  facet normal 1 0 0
    outer loop
      vertex 30 41.9068 4.96337
      vertex 30 43.2 0
      vertex 30 42.5483 4.841
    endloop
  endfacet
  facet normal 1 0 0
    outer loop
      vertex 30 42.5483 15.159
      vertex 30 43.2 15.2
      vertex 30 43.2 20
    endloop
  endfacet
  facet normal 1 0 0
    outer loop
      vertex 30 42.5483 4.841
      vertex 30 43.2 0
      vertex 30 43.2 4.8
    endloop
  endfacet
endsolid model
