solid model
  facet normal 0 1 0
    outer loop
      vertex -1.27151 -20.21 0
      vertex -1.27151 -20.21 10
      vertex 1.27151 -20.21 0
    endloop
  endfacet
  facet normal 0 0 -1
    outer loop
      vertex -1.27151 -20.21 0
      vertex 1.27151 -20.21 0
      vertex 33.2664 -25 0
    endloop
  endfacet
  facet normal 0 1 -0
    outer loop
      vertex -1.27151 -20.21 10
      vertex 1.27151 -20.21 10
      vertex 1.27151 -20.21 0
    endloop
  endfacet
  facet normal -0 0 1
    outer loop
      vertex -1.27151 -20.21 10
      vertex 33.2664 -25 10
      vertex 1.27151 -20.21 10
    endloop
  endfacet
  facet normal 0 -1 -0
    outer loop
      vertex -1.27151 20.21 0
      vertex 1.27151 20.21 0
      vertex 1.27151 20.21 10
    endloop
  endfacet
  facet normal 0 -1 0
    outer loop
      vertex -1.27151 20.21 0
      vertex 1.27151 20.21 10
      vertex -1.27151 20.21 10
    endloop
  endfacet
  facet normal 0 0 -1
    outer loop
      vertex -1.27151 20.21 0
      vertex 33.2664 25 0
      vertex 1.27151 20.21 0
    endloop
  endfacet
  facet normal 0 0 1
    outer loop
      vertex -1.27151 20.21 10
      vertex 1.27151 20.21 10
      vertex 33.2664 25 10
    endloop
  endfacet
  facet normal 0.481753 0.876307 0
    outer loop
      vertex -10.8505 -17.0976 0
      vertex -10.8505 -17.0976 10
      vertex -8.62203 -18.3227 0
    endloop
  endfacet
  facet normal 0.481753 0.876307 -0
    outer loop
      vertex -10.8505 -17.0976 10
      vertex -8.62203 -18.3227 10
      vertex -8.62203 -18.3227 0
    endloop
  endfacet
  facet normal 0.481753 -0.876307 0
    outer loop
      vertex -10.8505 17.0976 0
      vertex -8.62203 18.3227 0
      vertex -8.62203 18.3227 10
    endloop
  endfacet
  facet normal 0.481753 -0.876307 0
    outer loop
      vertex -10.8505 17.0976 0
      vertex -8.62203 18.3227 10
      vertex -10.8505 17.0976 10
    endloop
  endfacet
  facet normal 0.587786 0.809017 0
    outer loop
      vertex -12.9078 -15.6029 0
      vertex -12.9078 -15.6029 10
      vertex -10.8505 -17.0976 0
    endloop
  endfacet
  facet normal 0.587786 0.809017 -0
    outer loop
      vertex -12.9078 -15.6029 10
      vertex -10.8505 -17.0976 10
      vertex -10.8505 -17.0976 0
    endloop
  endfacet
  facet normal 0.587786 -0.809017 0
    outer loop
      vertex -12.9078 15.6029 0
      vertex -10.8505 17.0976 0
      vertex -10.8505 17.0976 10
    endloop
  endfacet
  facet normal 0.587786 -0.809017 0
    outer loop
      vertex -12.9078 15.6029 0
      vertex -10.8505 17.0976 10
      vertex -12.9078 15.6029 10
    endloop
  endfacet
  facet normal 0.684547 0.728969 0
    outer loop
      vertex -14.7616 -13.8621 0
      vertex -14.7616 -13.8621 10
      vertex -12.9078 -15.6029 0
    endloop
  endfacet
  facet normal 0.684547 0.728969 -0
    outer loop
      vertex -14.7616 -13.8621 10
      vertex -12.9078 -15.6029 10
      vertex -12.9078 -15.6029 0
    endloop
  endfacet
  facet normal 0.684547 -0.728969 0
    outer loop
      vertex -14.7616 13.8621 0
      vertex -12.9078 15.6029 0
      vertex -12.9078 15.6029 10
    endloop
  endfacet
  facet normal 0.684547 -0.728969 0
    outer loop
      vertex -14.7616 13.8621 0
      vertex -12.9078 15.6029 10
      vertex -14.7616 13.8621 10
    endloop
  endfacet
  facet normal 0.770513 0.637424 0
    outer loop
      vertex -16.3826 -11.9027 0
      vertex -14.7616 -13.8621 10
      vertex -14.7616 -13.8621 0
    endloop
  endfacet
  facet normal 0.770513 0.637424 0
    outer loop
      vertex -16.3826 -11.9027 0
      vertex -16.3826 -11.9027 10
      vertex -14.7616 -13.8621 10
    endloop
  endfacet
  facet normal 0.770513 -0.637424 0
    outer loop
      vertex -16.3826 11.9027 0
      vertex -14.7616 13.8621 0
      vertex -16.3826 11.9027 10
    endloop
  endfacet
  facet normal 0.770513 -0.637424 0
    outer loop
      vertex -16.3826 11.9027 10
      vertex -14.7616 13.8621 0
      vertex -14.7616 13.8621 10
    endloop
  endfacet
  facet normal 0.844328 0.535826 0
    outer loop
      vertex -17.7452 -9.75551 0
      vertex -16.3826 -11.9027 10
      vertex -16.3826 -11.9027 0
    endloop
  endfacet
  facet normal 0.844328 0.535826 0
    outer loop
      vertex -17.7452 -9.75551 0
      vertex -17.7452 -9.75551 10
      vertex -16.3826 -11.9027 10
    endloop
  endfacet
  facet normal 0.844328 -0.535826 0
    outer loop
      vertex -17.7452 9.75551 0
      vertex -16.3826 11.9027 0
      vertex -17.7452 9.75551 10
    endloop
  endfacet
  facet normal 0.844328 -0.535826 0
    outer loop
      vertex -17.7452 9.75551 10
      vertex -16.3826 11.9027 0
      vertex -16.3826 11.9027 10
    endloop
  endfacet
  facet normal 0.904827 0.425779 0
    outer loop
      vertex -18.828 -7.45452 0
      vertex -17.7452 -9.75551 10
      vertex -17.7452 -9.75551 0
    endloop
  endfacet
  facet normal 0.904827 0.425779 0
    outer loop
      vertex -18.828 -7.45452 0
      vertex -18.828 -7.45452 10
      vertex -17.7452 -9.75551 10
    endloop
  endfacet
  facet normal 0.904827 -0.425779 0
    outer loop
      vertex -18.828 7.45452 0
      vertex -17.7452 9.75551 0
      vertex -18.828 7.45452 10
    endloop
  endfacet
  facet normal 0.904827 -0.425779 0
    outer loop
      vertex -18.828 7.45452 10
      vertex -17.7452 9.75551 0
      vertex -17.7452 9.75551 10
    endloop
  endfacet
  facet normal 0.951057 0.309017 0
    outer loop
      vertex -19.6138 -5.03597 0
      vertex -18.828 -7.45452 10
      vertex -18.828 -7.45452 0
    endloop
  endfacet
  facet normal 0.951057 0.309017 0
    outer loop
      vertex -19.6138 -5.03597 0
      vertex -19.6138 -5.03597 10
      vertex -18.828 -7.45452 10
    endloop
  endfacet
  facet normal 0.951057 -0.309017 0
    outer loop
      vertex -19.6138 5.03597 0
      vertex -18.828 7.45452 0
      vertex -19.6138 5.03597 10
    endloop
  endfacet
  facet normal 0.951057 -0.309017 0
    outer loop
      vertex -19.6138 5.03597 10
      vertex -18.828 7.45452 0
      vertex -18.828 7.45452 10
    endloop
  endfacet
  facet normal 0.982287 0.187382 0
    outer loop
      vertex -20.0903 -2.538 0
      vertex -19.6138 -5.03597 10
      vertex -19.6138 -5.03597 0
    endloop
  endfacet
  facet normal 0.982287 0.187382 0
    outer loop
      vertex -20.0903 -2.538 0
      vertex -20.0903 -2.538 10
      vertex -19.6138 -5.03597 10
    endloop
  endfacet
  facet normal 0.982287 -0.187382 0
    outer loop
      vertex -20.0903 2.538 0
      vertex -19.6138 5.03597 0
      vertex -20.0903 2.538 10
    endloop
  endfacet
  facet normal 0.982287 -0.187382 0
    outer loop
      vertex -20.0903 2.538 10
      vertex -19.6138 5.03597 0
      vertex -19.6138 5.03597 10
    endloop
  endfacet
  facet normal 0.998027 0.0627906 0
    outer loop
      vertex -20.25 0 0
      vertex -20.0903 -2.538 10
      vertex -20.0903 -2.538 0
    endloop
  endfacet
  facet normal 0.998027 -0.0627906 0
    outer loop
      vertex -20.25 0 0
      vertex -20.0903 2.538 0
      vertex -20.25 0 10
    endloop
  endfacet
  facet normal 0.998027 0.0627906 0
    outer loop
      vertex -20.25 0 0
      vertex -20.25 0 10
      vertex -20.0903 -2.538 10
    endloop
  endfacet
  facet normal 0.998027 -0.0627906 0
    outer loop
      vertex -20.25 0 10
      vertex -20.0903 2.538 0
      vertex -20.0903 2.538 10
    endloop
  endfacet
  facet normal 0 0 -1
    outer loop
      vertex -25 -15.5 0
      vertex -12.9078 -15.6029 0
      vertex -10.8505 -17.0976 0
    endloop
  endfacet
  facet normal 0 0 -1
    outer loop
      vertex -25 -15.5 0
      vertex -14.7616 -13.8621 0
      vertex -12.9078 -15.6029 0
    endloop
  endfacet
  facet normal -0 0 -1
    outer loop
      vertex -25 -15.5 0
      vertex -16.3826 -11.9027 0
      vertex -14.7616 -13.8621 0
    endloop
  endfacet
  facet normal -0 0 -1
    outer loop
      vertex -25 -15.5 0
      vertex -17.7452 -9.75551 0
      vertex -16.3826 -11.9027 0
    endloop
  endfacet
  facet normal -0 0 -1
    outer loop
      vertex -25 -15.5 0
      vertex -18.828 -7.45452 0
      vertex -17.7452 -9.75551 0
    endloop
  endfacet
  facet normal -0 0 -1
    outer loop
      vertex -25 -15.5 0
      vertex -19.6138 -5.03597 0
      vertex -18.828 -7.45452 0
    endloop
  endfacet
  facet normal -0 0 -1
    outer loop
      vertex -25 -15.5 0
      vertex -20.0903 -2.538 0
      vertex -19.6138 -5.03597 0
    endloop
  endfacet
  facet normal -0 0 -1
    outer loop
      vertex -25 -15.5 0
      vertex -20.25 0 0
      vertex -20.0903 -2.538 0
    endloop
  endfacet
  facet normal -1 -0 0
    outer loop
      vertex -25 -15.5 0
      vertex -25 -15.5 10
      vertex -25 15.5 10
    endloop
  endfacet
  facet normal 0 0 -1
    outer loop
      vertex -25 -15.5 0
      vertex -25 15.5 0
      vertex -20.25 0 0
    endloop
  endfacet
  facet normal -1 0 0
    outer loop
      vertex -25 -15.5 0
      vertex -25 15.5 10
      vertex -25 15.5 0
    endloop
  endfacet
  facet normal 0 0 1
    outer loop
      vertex -25 -15.5 10
      vertex -10.8505 -17.0976 10
      vertex -12.9078 -15.6029 10
    endloop
  endfacet
  facet normal -0 0 1
    outer loop
      vertex -25 -15.5 10
      vertex -12.9078 -15.6029 10
      vertex -14.7616 -13.8621 10
    endloop
  endfacet
  facet normal 0 0 1
    outer loop
      vertex -25 -15.5 10
      vertex -14.7616 -13.8621 10
      vertex -16.3826 -11.9027 10
    endloop
  endfacet
  facet normal 0 0 1
    outer loop
      vertex -25 -15.5 10
      vertex -16.3826 -11.9027 10
      vertex -17.7452 -9.75551 10
    endloop
  endfacet
  facet normal 0 0 1
    outer loop
      vertex -25 -15.5 10
      vertex -17.7452 -9.75551 10
      vertex -18.828 -7.45452 10
    endloop
  endfacet
  facet normal 0 0 1
    outer loop
      vertex -25 -15.5 10
      vertex -18.828 -7.45452 10
      vertex -19.6138 -5.03597 10
    endloop
  endfacet
  facet normal 0 0 1
    outer loop
      vertex -25 -15.5 10
      vertex -19.6138 -5.03597 10
      vertex -20.0903 -2.538 10
    endloop
  endfacet
  facet normal 0 0 1
    outer loop
      vertex -25 -15.5 10
      vertex -20.0903 -2.538 10
      vertex -20.25 0 10
    endloop
  endfacet
  facet normal 0 0 1
    outer loop
      vertex -25 -15.5 10
      vertex -20.25 0 10
      vertex -25 15.5 10
    endloop
  endfacet
  facet normal 0 0 -1
    outer loop
      vertex -25 15.5 0
      vertex -10.8505 17.0976 0
      vertex -12.9078 15.6029 0
    endloop
  endfacet
  facet normal 0 0 -1
    outer loop
      vertex -25 15.5 0
      vertex -12.9078 15.6029 0
      vertex -14.7616 13.8621 0
    endloop
  endfacet
  facet normal 0 0 -1
    outer loop
      vertex -25 15.5 0
      vertex -14.7616 13.8621 0
      vertex -16.3826 11.9027 0
    endloop
  endfacet
  facet normal 0 0 -1
    outer loop
      vertex -25 15.5 0
      vertex -16.3826 11.9027 0
      vertex -17.7452 9.75551 0
    endloop
  endfacet
  facet normal 0 0 -1
    outer loop
      vertex -25 15.5 0
      vertex -17.7452 9.75551 0
      vertex -18.828 7.45452 0
    endloop
  endfacet
  facet normal 0 0 -1
    outer loop
      vertex -25 15.5 0
      vertex -18.828 7.45452 0
      vertex -19.6138 5.03597 0
    endloop
  endfacet
  facet normal 0 0 -1
    outer loop
      vertex -25 15.5 0
      vertex -19.6138 5.03597 0
      vertex -20.0903 2.538 0
    endloop
  endfacet
  facet normal 0 0 -1
    outer loop
      vertex -25 15.5 0
      vertex -20.0903 2.538 0
      vertex -20.25 0 0
    endloop
  endfacet
  facet normal 0 0 1
    outer loop
      vertex -25 15.5 10
      vertex -12.9078 15.6029 10
      vertex -10.8505 17.0976 10
    endloop
  endfacet
  facet normal 0 0 1
    outer loop
      vertex -25 15.5 10
      vertex -14.7616 13.8621 10
      vertex -12.9078 15.6029 10
    endloop
  endfacet
  facet normal 0 0 1
    outer loop
      vertex -25 15.5 10
      vertex -16.3826 11.9027 10
      vertex -14.7616 13.8621 10
    endloop
  endfacet
  facet normal 0 0 1
    outer loop
      vertex -25 15.5 10
      vertex -17.7452 9.75551 10
      vertex -16.3826 11.9027 10
    endloop
  endfacet
  facet normal 0 0 1
    outer loop
      vertex -25 15.5 10
      vertex -18.828 7.45452 10
      vertex -17.7452 9.75551 10
    endloop
  endfacet
  facet normal 0 0 1
    outer loop
      vertex -25 15.5 10
      vertex -19.6138 5.03597 10
      vertex -18.828 7.45452 10
    endloop
  endfacet
  facet normal 0 0 1
    outer loop
      vertex -25 15.5 10
      vertex -20.0903 2.538 10
      vertex -19.6138 5.03597 10
    endloop
  endfacet
  facet normal 0 0 1
    outer loop
      vertex -25 15.5 10
      vertex -20.25 0 10
      vertex -20.0903 2.538 10
    endloop
  endfacet
  facet normal 0.125334 0.992115 0
    outer loop
      vertex -3.79447 -19.8913 0
      vertex -3.79447 -19.8913 10
      vertex -1.27151 -20.21 0
    endloop
  endfacet
  facet normal 0.125334 0.992115 -0
    outer loop
      vertex -3.79447 -19.8913 10
      vertex -1.27151 -20.21 10
      vertex -1.27151 -20.21 0
    endloop
  endfacet
  facet normal 0.125334 -0.992115 0
    outer loop
      vertex -3.79447 19.8913 0
      vertex -1.27151 20.21 0
      vertex -1.27151 20.21 10
    endloop
  endfacet
  facet normal 0.125334 -0.992115 0
    outer loop
      vertex -3.79447 19.8913 0
      vertex -1.27151 20.21 10
      vertex -3.79447 19.8913 10
    endloop
  endfacet
  facet normal 0 0 -1
    outer loop
      vertex -33.2664 -25 0
      vertex -1.27151 -20.21 0
      vertex 33.2664 -25 0
    endloop
  endfacet
  facet normal 0 0 -1
    outer loop
      vertex -33.2664 -25 0
      vertex -10.8505 -17.0976 0
      vertex -8.62203 -18.3227 0
    endloop
  endfacet
  facet normal -0 0 -1
    outer loop
      vertex -33.2664 -25 0
      vertex -25 -15.5 0
      vertex -10.8505 -17.0976 0
    endloop
  endfacet
  facet normal -0 0 -1
    outer loop
      vertex -33.2664 -25 0
      vertex -3.79447 -19.8913 0
      vertex -1.27151 -20.21 0
    endloop
  endfacet
  facet normal 0 0 -1
    outer loop
      vertex -33.2664 -25 0
      vertex -6.25759 -19.2589 0
      vertex -3.79447 -19.8913 0
    endloop
  endfacet
  facet normal 0 0 -1
    outer loop
      vertex -33.2664 -25 0
      vertex -8.62203 -18.3227 0
      vertex -6.25759 -19.2589 0
    endloop
  endfacet
  facet normal 0 -1 -0
    outer loop
      vertex -33.2664 -25 0
      vertex 33.2664 -25 0
      vertex 33.2664 -25 10
    endloop
  endfacet
  facet normal 0 -1 0
    outer loop
      vertex -33.2664 -25 0
      vertex 33.2664 -25 10
      vertex -33.2664 -25 10
    endloop
  endfacet
  facet normal 0 0 1
    outer loop
      vertex -33.2664 -25 10
      vertex -1.27151 -20.21 10
      vertex -3.79447 -19.8913 10
    endloop
  endfacet
  facet normal 0 0 1
    outer loop
      vertex -33.2664 -25 10
      vertex -10.8505 -17.0976 10
      vertex -25 -15.5 10
    endloop
  endfacet
  facet normal 0 0 1
    outer loop
      vertex -33.2664 -25 10
      vertex -3.79447 -19.8913 10
      vertex -6.25759 -19.2589 10
    endloop
  endfacet
  facet normal 0 0 1
    outer loop
      vertex -33.2664 -25 10
      vertex -6.25759 -19.2589 10
      vertex -8.62203 -18.3227 10
    endloop
  endfacet
  facet normal 0 0 1
    outer loop
      vertex -33.2664 -25 10
      vertex -8.62203 -18.3227 10
      vertex -10.8505 -17.0976 10
    endloop
  endfacet
  facet normal 0 0 1
    outer loop
      vertex -33.2664 -25 10
      vertex 33.2664 -25 10
      vertex -1.27151 -20.21 10
    endloop
  endfacet
  facet normal 0 0 -1
    outer loop
      vertex -33.2664 25 0
      vertex -1.27151 20.21 0
      vertex -3.79447 19.8913 0
    endloop
  endfacet
  facet normal 0 0 -1
    outer loop
      vertex -33.2664 25 0
      vertex -10.8505 17.0976 0
      vertex -25 15.5 0
    endloop
  endfacet
  facet normal 0 0 -1
    outer loop
      vertex -33.2664 25 0
      vertex -3.79447 19.8913 0
      vertex -6.25759 19.2589 0
    endloop
  endfacet
  facet normal 0 1 0
    outer loop
      vertex -33.2664 25 0
      vertex -33.2664 25 10
      vertex 33.2664 25 0
    endloop
  endfacet
  facet normal 0 0 -1
    outer loop
      vertex -33.2664 25 0
      vertex -6.25759 19.2589 0
      vertex -8.62203 18.3227 0
    endloop
  endfacet
  facet normal 0 0 -1
    outer loop
      vertex -33.2664 25 0
      vertex -8.62203 18.3227 0
      vertex -10.8505 17.0976 0
    endloop
  endfacet
  facet normal 0 0 -1
    outer loop
      vertex -33.2664 25 0
      vertex 33.2664 25 0
      vertex -1.27151 20.21 0
    endloop
  endfacet
  facet normal -0 0 1
    outer loop
      vertex -33.2664 25 10
      vertex -1.27151 20.21 10
      vertex 33.2664 25 10
    endloop
  endfacet
  facet normal 0 0 1
    outer loop
      vertex -33.2664 25 10
      vertex -10.8505 17.0976 10
      vertex -8.62203 18.3227 10
    endloop
  endfacet
  facet normal 0 0 1
    outer loop
      vertex -33.2664 25 10
      vertex -25 15.5 10
      vertex -10.8505 17.0976 10
    endloop
  endfacet
  facet normal 0 0 1
    outer loop
      vertex -33.2664 25 10
      vertex -3.79447 19.8913 10
      vertex -1.27151 20.21 10
    endloop
  endfacet
  facet normal 0 0 1
    outer loop
      vertex -33.2664 25 10
      vertex -6.25759 19.2589 10
      vertex -3.79447 19.8913 10
    endloop
  endfacet
  facet normal 0 0 1
    outer loop
      vertex -33.2664 25 10
      vertex -8.62203 18.3227 10
      vertex -6.25759 19.2589 10
    endloop
  endfacet
  facet normal 0 1 -0
    outer loop
      vertex -33.2664 25 10
      vertex 33.2664 25 10
      vertex 33.2664 25 0
    endloop
  endfacet
  facet normal 0 0 -1
    outer loop
      vertex -33.6956 -24.4813 0
      vertex -25 -15.5 0
      vertex -33.2664 -25 0
    endloop
  endfacet
  facet normal -0.770514 -0.637423 0
    outer loop
      vertex -33.6956 -24.4813 0
      vertex -33.2664 -25 0
      vertex -33.6956 -24.4813 10
    endloop
  endfacet
  facet normal -0.770514 -0.637423 0
    outer loop
      vertex -33.6956 -24.4813 10
      vertex -33.2664 -25 0
      vertex -33.2664 -25 10
    endloop
  endfacet
  facet normal 0 0 1
    outer loop
      vertex -33.6956 -24.4813 10
      vertex -33.2664 -25 10
      vertex -25 -15.5 10
    endloop
  endfacet
  facet normal 0 0 -1
    outer loop
      vertex -33.6956 24.4813 0
      vertex -33.2664 25 0
      vertex -25 15.5 0
    endloop
  endfacet
  facet normal -0.770514 0.637423 0
    outer loop
      vertex -33.6956 24.4813 0
      vertex -33.2664 25 10
      vertex -33.2664 25 0
    endloop
  endfacet
  facet normal -0.770514 0.637423 0
    outer loop
      vertex -33.6956 24.4813 0
      vertex -33.6956 24.4813 10
      vertex -33.2664 25 10
    endloop
  endfacet
  facet normal -0 0 1
    outer loop
      vertex -33.6956 24.4813 10
      vertex -25 15.5 10
      vertex -33.2664 25 10
    endloop
  endfacet
  facet normal 0 1 0
    outer loop
      vertex -36 -15.5 0
      vertex -36 -15.5 10
      vertex -25 -15.5 0
    endloop
  endfacet
  facet normal 1 0 0
    outer loop
      vertex -36 -15.5 0
      vertex -36 15.5 0
      vertex -36 -15.5 10
    endloop
  endfacet
  facet normal 0 1 -0
    outer loop
      vertex -36 -15.5 10
      vertex -25 -15.5 10
      vertex -25 -15.5 0
    endloop
  endfacet
  facet normal 1 -0 0
    outer loop
      vertex -36 -15.5 10
      vertex -36 15.5 0
      vertex -36 15.5 10
    endloop
  endfacet
  facet normal 0 -1 -0
    outer loop
      vertex -36 15.5 0
      vertex -25 15.5 0
      vertex -25 15.5 10
    endloop
  endfacet
  facet normal 0 -1 0
    outer loop
      vertex -36 15.5 0
      vertex -25 15.5 10
      vertex -36 15.5 10
    endloop
  endfacet
  facet normal 0 0 -1
    outer loop
      vertex -36.4982 -20.065 0
      vertex -25 -15.5 0
      vertex -33.6956 -24.4813 0
    endloop
  endfacet
  facet normal -0.844328 -0.535827 0
    outer loop
      vertex -36.4982 -20.065 0
      vertex -33.6956 -24.4813 0
      vertex -36.4982 -20.065 10
    endloop
  endfacet
  facet normal -0 0 -1
    outer loop
      vertex -36.4982 -20.065 0
      vertex -36 -15.5 0
      vertex -25 -15.5 0
    endloop
  endfacet
  facet normal 0 0 1
    outer loop
      vertex -36.4982 -20.065 10
      vertex -25 -15.5 10
      vertex -36 -15.5 10
    endloop
  endfacet
  facet normal -0.844328 -0.535827 0
    outer loop
      vertex -36.4982 -20.065 10
      vertex -33.6956 -24.4813 0
      vertex -33.6956 -24.4813 10
    endloop
  endfacet
  facet normal 0 0 1
    outer loop
      vertex -36.4982 -20.065 10
      vertex -33.6956 -24.4813 10
      vertex -25 -15.5 10
    endloop
  endfacet
  facet normal 0 0 -1
    outer loop
      vertex -36.4982 20.065 0
      vertex -25 15.5 0
      vertex -36 15.5 0
    endloop
  endfacet
  facet normal 0 0 -1
    outer loop
      vertex -36.4982 20.065 0
      vertex -33.6956 24.4813 0
      vertex -25 15.5 0
    endloop
  endfacet
  facet normal -0.844328 0.535827 0
    outer loop
      vertex -36.4982 20.065 0
      vertex -33.6956 24.4813 10
      vertex -33.6956 24.4813 0
    endloop
  endfacet
  facet normal -0.844328 0.535827 0
    outer loop
      vertex -36.4982 20.065 0
      vertex -36.4982 20.065 10
      vertex -33.6956 24.4813 10
    endloop
  endfacet
  facet normal -0 0 1
    outer loop
      vertex -36.4982 20.065 10
      vertex -25 15.5 10
      vertex -33.6956 24.4813 10
    endloop
  endfacet
  facet normal 0 0 1
    outer loop
      vertex -36.4982 20.065 10
      vertex -36 15.5 10
      vertex -25 15.5 10
    endloop
  endfacet
  facet normal 0 0 -1
    outer loop
      vertex -38.7252 -15.3324 0
      vertex -36 -15.5 0
      vertex -36.4982 -20.065 0
    endloop
  endfacet
  facet normal -0.904827 -0.425779 0
    outer loop
      vertex -38.7252 -15.3324 0
      vertex -36.4982 -20.065 0
      vertex -38.7252 -15.3324 10
    endloop
  endfacet
  facet normal -0.904827 -0.425779 0
    outer loop
      vertex -38.7252 -15.3324 10
      vertex -36.4982 -20.065 0
      vertex -36.4982 -20.065 10
    endloop
  endfacet
  facet normal 0 0 1
    outer loop
      vertex -38.7252 -15.3324 10
      vertex -36.4982 -20.065 10
      vertex -36 -15.5 10
    endloop
  endfacet
  facet normal -0 0 -1
    outer loop
      vertex -38.7252 15.3324 0
      vertex -36.4982 20.065 0
      vertex -36 15.5 0
    endloop
  endfacet
  facet normal -0.904827 0.425779 0
    outer loop
      vertex -38.7252 15.3324 0
      vertex -36.4982 20.065 10
      vertex -36.4982 20.065 0
    endloop
  endfacet
  facet normal -0.904827 0.425779 0
    outer loop
      vertex -38.7252 15.3324 0
      vertex -38.7252 15.3324 10
      vertex -36.4982 20.065 10
    endloop
  endfacet
  facet normal 0 0 1
    outer loop
      vertex -38.7252 15.3324 10
      vertex -36 15.5 10
      vertex -36.4982 20.065 10
    endloop
  endfacet
  facet normal 0 0 -1
    outer loop
      vertex -40.3415 -10.3579 0
      vertex -36 -15.5 0
      vertex -38.7252 -15.3324 0
    endloop
  endfacet
  facet normal -0.951056 -0.309017 0
    outer loop
      vertex -40.3415 -10.3579 0
      vertex -38.7252 -15.3324 0
      vertex -40.3415 -10.3579 10
    endloop
  endfacet
  facet normal -0.951056 -0.309017 0
    outer loop
      vertex -40.3415 -10.3579 10
      vertex -38.7252 -15.3324 0
      vertex -38.7252 -15.3324 10
    endloop
  endfacet
  facet normal 0 0 1
    outer loop
      vertex -40.3415 -10.3579 10
      vertex -38.7252 -15.3324 10
      vertex -36 -15.5 10
    endloop
  endfacet
  facet normal 0 0 -1
    outer loop
      vertex -40.3415 10.3579 0
      vertex -38.7252 15.3324 0
      vertex -36 15.5 0
    endloop
  endfacet
  facet normal -0.951056 0.309017 0
    outer loop
      vertex -40.3415 10.3579 0
      vertex -38.7252 15.3324 10
      vertex -38.7252 15.3324 0
    endloop
  endfacet
  facet normal -0.951056 0.309017 0
    outer loop
      vertex -40.3415 10.3579 0
      vertex -40.3415 10.3579 10
      vertex -38.7252 15.3324 10
    endloop
  endfacet
  facet normal 0 0 1
    outer loop
      vertex -40.3415 10.3579 10
      vertex -36 15.5 10
      vertex -38.7252 15.3324 10
    endloop
  endfacet
  facet normal 0 0 -1
    outer loop
      vertex -41.3216 -5.22013 0
      vertex -36 -15.5 0
      vertex -40.3415 -10.3579 0
    endloop
  endfacet
  facet normal -0.982287 -0.187382 0
    outer loop
      vertex -41.3216 -5.22013 0
      vertex -40.3415 -10.3579 0
      vertex -41.3216 -5.22013 10
    endloop
  endfacet
  facet normal -0.982287 -0.187382 0
    outer loop
      vertex -41.3216 -5.22013 10
      vertex -40.3415 -10.3579 0
      vertex -40.3415 -10.3579 10
    endloop
  endfacet
  facet normal 0 0 1
    outer loop
      vertex -41.3216 -5.22013 10
      vertex -40.3415 -10.3579 10
      vertex -36 -15.5 10
    endloop
  endfacet
  facet normal 0 0 -1
    outer loop
      vertex -41.3216 5.22013 0
      vertex -40.3415 10.3579 0
      vertex -36 15.5 0
    endloop
  endfacet
  facet normal -0.982287 0.187382 0
    outer loop
      vertex -41.3216 5.22013 0
      vertex -40.3415 10.3579 10
      vertex -40.3415 10.3579 0
    endloop
  endfacet
  facet normal -0.982287 0.187382 0
    outer loop
      vertex -41.3216 5.22013 0
      vertex -41.3216 5.22013 10
      vertex -40.3415 10.3579 10
    endloop
  endfacet
  facet normal 0 0 1
    outer loop
      vertex -41.3216 5.22013 10
      vertex -36 15.5 10
      vertex -40.3415 10.3579 10
    endloop
  endfacet
  facet normal 0 0 -1
    outer loop
      vertex -41.65 0 0
      vertex -36 -15.5 0
      vertex -41.3216 -5.22013 0
    endloop
  endfacet
  facet normal 0 0 -1
    outer loop
      vertex -41.65 0 0
      vertex -36 15.5 0
      vertex -36 -15.5 0
    endloop
  endfacet
  facet normal -0.998027 -0.0627905 0
    outer loop
      vertex -41.65 0 0
      vertex -41.3216 -5.22013 0
      vertex -41.65 0 10
    endloop
  endfacet
  facet normal 0 0 -1
    outer loop
      vertex -41.65 0 0
      vertex -41.3216 5.22013 0
      vertex -36 15.5 0
    endloop
  endfacet
  facet normal -0.998027 0.0627905 0
    outer loop
      vertex -41.65 0 0
      vertex -41.3216 5.22013 10
      vertex -41.3216 5.22013 0
    endloop
  endfacet
  facet normal -0.998027 0.0627905 0
    outer loop
      vertex -41.65 0 0
      vertex -41.65 0 10
      vertex -41.3216 5.22013 10
    endloop
  endfacet
  facet normal 0 0 1
    outer loop
      vertex -41.65 0 10
      vertex -36 -15.5 10
      vertex -36 15.5 10
    endloop
  endfacet
  facet normal 0 0 1
    outer loop
      vertex -41.65 0 10
      vertex -36 15.5 10
      vertex -41.3216 5.22013 10
    endloop
  endfacet
  facet normal -0.998027 -0.0627905 0
    outer loop
      vertex -41.65 0 10
      vertex -41.3216 -5.22013 0
      vertex -41.3216 -5.22013 10
    endloop
  endfacet
  facet normal 0 0 1
    outer loop
      vertex -41.65 0 10
      vertex -41.3216 -5.22013 10
      vertex -36 -15.5 10
    endloop
  endfacet
  facet normal 0.248689 0.968583 0
    outer loop
      vertex -6.25759 -19.2589 0
      vertex -6.25759 -19.2589 10
      vertex -3.79447 -19.8913 0
    endloop
  endfacet
  facet normal 0.248689 0.968583 -0
    outer loop
      vertex -6.25759 -19.2589 10
      vertex -3.79447 -19.8913 10
      vertex -3.79447 -19.8913 0
    endloop
  endfacet
  facet normal 0.248689 -0.968583 0
    outer loop
      vertex -6.25759 19.2589 0
      vertex -3.79447 19.8913 0
      vertex -3.79447 19.8913 10
    endloop
  endfacet
  facet normal 0.248689 -0.968583 0
    outer loop
      vertex -6.25759 19.2589 0
      vertex -3.79447 19.8913 10
      vertex -6.25759 19.2589 10
    endloop
  endfacet
  facet normal 0.368125 0.929776 0
    outer loop
      vertex -8.62203 -18.3227 0
      vertex -8.62203 -18.3227 10
      vertex -6.25759 -19.2589 0
    endloop
  endfacet
  facet normal 0.368125 0.929776 -0
    outer loop
      vertex -8.62203 -18.3227 10
      vertex -6.25759 -19.2589 10
      vertex -6.25759 -19.2589 0
    endloop
  endfacet
  facet normal 0.368125 -0.929776 0
    outer loop
      vertex -8.62203 18.3227 0
      vertex -6.25759 19.2589 0
      vertex -6.25759 19.2589 10
    endloop
  endfacet
  facet normal 0.368125 -0.929776 0
    outer loop
      vertex -8.62203 18.3227 0
      vertex -6.25759 19.2589 10
      vertex -8.62203 18.3227 10
    endloop
  endfacet
  facet normal -0.125334 0.992115 0
    outer loop
      vertex 1.27151 -20.21 0
      vertex 1.27151 -20.21 10
      vertex 3.79447 -19.8913 0
    endloop
  endfacet
  facet normal 0 0 -1
    outer loop
      vertex 1.27151 -20.21 0
      vertex 3.79447 -19.8913 0
      vertex 33.2664 -25 0
    endloop
  endfacet
  facet normal -0.125334 0.992115 0
    outer loop
      vertex 1.27151 -20.21 10
      vertex 3.79447 -19.8913 10
      vertex 3.79447 -19.8913 0
    endloop
  endfacet
  facet normal -0 0 1
    outer loop
      vertex 1.27151 -20.21 10
      vertex 33.2664 -25 10
      vertex 3.79447 -19.8913 10
    endloop
  endfacet
  facet normal -0.125334 -0.992115 -0
    outer loop
      vertex 1.27151 20.21 0
      vertex 3.79447 19.8913 0
      vertex 3.79447 19.8913 10
    endloop
  endfacet
  facet normal -0.125334 -0.992115 0
    outer loop
      vertex 1.27151 20.21 0
      vertex 3.79447 19.8913 10
      vertex 1.27151 20.21 10
    endloop
  endfacet
  facet normal 0 0 -1
    outer loop
      vertex 1.27151 20.21 0
      vertex 33.2664 25 0
      vertex 3.79447 19.8913 0
    endloop
  endfacet
  facet normal 0 0 1
    outer loop
      vertex 1.27151 20.21 10
      vertex 3.79447 19.8913 10
      vertex 33.2664 25 10
    endloop
  endfacet
  facet normal -0.587786 0.809017 0
    outer loop
      vertex 10.8505 -17.0976 0
      vertex 10.8505 -17.0976 10
      vertex 12.9078 -15.6029 0
    endloop
  endfacet
  facet normal 0 0 -1
    outer loop
      vertex 10.8505 -17.0976 0
      vertex 12.9078 -15.6029 0
      vertex 25 -15.5 0
    endloop
  endfacet
  facet normal 0 0 -1
    outer loop
      vertex 10.8505 -17.0976 0
      vertex 25 -15.5 0
      vertex 33.2664 -25 0
    endloop
  endfacet
  facet normal -0.587786 0.809017 0
    outer loop
      vertex 10.8505 -17.0976 10
      vertex 12.9078 -15.6029 10
      vertex 12.9078 -15.6029 0
    endloop
  endfacet
  facet normal 0 0 1
    outer loop
      vertex 10.8505 -17.0976 10
      vertex 25 -15.5 10
      vertex 12.9078 -15.6029 10
    endloop
  endfacet
  facet normal 0 0 1
    outer loop
      vertex 10.8505 -17.0976 10
      vertex 33.2664 -25 10
      vertex 25 -15.5 10
    endloop
  endfacet
  facet normal -0.587786 -0.809017 -0
    outer loop
      vertex 10.8505 17.0976 0
      vertex 12.9078 15.6029 0
      vertex 12.9078 15.6029 10
    endloop
  endfacet
  facet normal -0.587786 -0.809017 0
    outer loop
      vertex 10.8505 17.0976 0
      vertex 12.9078 15.6029 10
      vertex 10.8505 17.0976 10
    endloop
  endfacet
  facet normal 0 0 -1
    outer loop
      vertex 10.8505 17.0976 0
      vertex 25 15.5 0
      vertex 12.9078 15.6029 0
    endloop
  endfacet
  facet normal 0 0 -1
    outer loop
      vertex 10.8505 17.0976 0
      vertex 33.2664 25 0
      vertex 25 15.5 0
    endloop
  endfacet
  facet normal 0 0 1
    outer loop
      vertex 10.8505 17.0976 10
      vertex 12.9078 15.6029 10
      vertex 25 15.5 10
    endloop
  endfacet
  facet normal -0 0 1
    outer loop
      vertex 10.8505 17.0976 10
      vertex 25 15.5 10
      vertex 33.2664 25 10
    endloop
  endfacet
  facet normal -0.684547 0.728969 0
    outer loop
      vertex 12.9078 -15.6029 0
      vertex 12.9078 -15.6029 10
      vertex 14.7616 -13.8621 0
    endloop
  endfacet
  facet normal -0 0 -1
    outer loop
      vertex 12.9078 -15.6029 0
      vertex 14.7616 -13.8621 0
      vertex 25 -15.5 0
    endloop
  endfacet
  facet normal -0.684547 0.728969 0
    outer loop
      vertex 12.9078 -15.6029 10
      vertex 14.7616 -13.8621 10
      vertex 14.7616 -13.8621 0
    endloop
  endfacet
  facet normal 0 0 1
    outer loop
      vertex 12.9078 -15.6029 10
      vertex 25 -15.5 10
      vertex 14.7616 -13.8621 10
    endloop
  endfacet
  facet normal -0.684547 -0.728969 -0
    outer loop
      vertex 12.9078 15.6029 0
      vertex 14.7616 13.8621 0
      vertex 14.7616 13.8621 10
    endloop
  endfacet
  facet normal -0.684547 -0.728969 0
    outer loop
      vertex 12.9078 15.6029 0
      vertex 14.7616 13.8621 10
      vertex 12.9078 15.6029 10
    endloop
  endfacet
  facet normal 0 0 -1
    outer loop
      vertex 12.9078 15.6029 0
      vertex 25 15.5 0
      vertex 14.7616 13.8621 0
    endloop
  endfacet
  facet normal 0 0 1
    outer loop
      vertex 12.9078 15.6029 10
      vertex 14.7616 13.8621 10
      vertex 25 15.5 10
    endloop
  endfacet
  facet normal -0.770513 0.637424 0
    outer loop
      vertex 14.7616 -13.8621 0
      vertex 14.7616 -13.8621 10
      vertex 16.3826 -11.9027 10
    endloop
  endfacet
  facet normal 0 0 -1
    outer loop
      vertex 14.7616 -13.8621 0
      vertex 16.3826 -11.9027 0
      vertex 25 -15.5 0
    endloop
  endfacet
  facet normal -0.770513 0.637424 0
    outer loop
      vertex 14.7616 -13.8621 0
      vertex 16.3826 -11.9027 10
      vertex 16.3826 -11.9027 0
    endloop
  endfacet
  facet normal -0 0 1
    outer loop
      vertex 14.7616 -13.8621 10
      vertex 25 -15.5 10
      vertex 16.3826 -11.9027 10
    endloop
  endfacet
  facet normal -0.770513 -0.637424 0
    outer loop
      vertex 14.7616 13.8621 0
      vertex 16.3826 11.9027 0
      vertex 14.7616 13.8621 10
    endloop
  endfacet
  facet normal 0 0 -1
    outer loop
      vertex 14.7616 13.8621 0
      vertex 25 15.5 0
      vertex 16.3826 11.9027 0
    endloop
  endfacet
  facet normal -0.770513 -0.637424 0
    outer loop
      vertex 14.7616 13.8621 10
      vertex 16.3826 11.9027 0
      vertex 16.3826 11.9027 10
    endloop
  endfacet
  facet normal 0 0 1
    outer loop
      vertex 14.7616 13.8621 10
      vertex 16.3826 11.9027 10
      vertex 25 15.5 10
    endloop
  endfacet
  facet normal -0.844328 0.535826 0
    outer loop
      vertex 16.3826 -11.9027 0
      vertex 16.3826 -11.9027 10
      vertex 17.7452 -9.75551 10
    endloop
  endfacet
  facet normal 0 0 -1
    outer loop
      vertex 16.3826 -11.9027 0
      vertex 17.7452 -9.75551 0
      vertex 25 -15.5 0
    endloop
  endfacet
  facet normal -0.844328 0.535826 0
    outer loop
      vertex 16.3826 -11.9027 0
      vertex 17.7452 -9.75551 10
      vertex 17.7452 -9.75551 0
    endloop
  endfacet
  facet normal -0 0 1
    outer loop
      vertex 16.3826 -11.9027 10
      vertex 25 -15.5 10
      vertex 17.7452 -9.75551 10
    endloop
  endfacet
  facet normal -0.844328 -0.535826 0
    outer loop
      vertex 16.3826 11.9027 0
      vertex 17.7452 9.75551 0
      vertex 16.3826 11.9027 10
    endloop
  endfacet
  facet normal 0 0 -1
    outer loop
      vertex 16.3826 11.9027 0
      vertex 25 15.5 0
      vertex 17.7452 9.75551 0
    endloop
  endfacet
  facet normal -0.844328 -0.535826 0
    outer loop
      vertex 16.3826 11.9027 10
      vertex 17.7452 9.75551 0
      vertex 17.7452 9.75551 10
    endloop
  endfacet
  facet normal 0 0 1
    outer loop
      vertex 16.3826 11.9027 10
      vertex 17.7452 9.75551 10
      vertex 25 15.5 10
    endloop
  endfacet
  facet normal -0.904827 0.425779 0
    outer loop
      vertex 17.7452 -9.75551 0
      vertex 17.7452 -9.75551 10
      vertex 18.828 -7.45452 10
    endloop
  endfacet
  facet normal 0 0 -1
    outer loop
      vertex 17.7452 -9.75551 0
      vertex 18.828 -7.45452 0
      vertex 25 -15.5 0
    endloop
  endfacet
  facet normal -0.904827 0.425779 0
    outer loop
      vertex 17.7452 -9.75551 0
      vertex 18.828 -7.45452 10
      vertex 18.828 -7.45452 0
    endloop
  endfacet
  facet normal -0 0 1
    outer loop
      vertex 17.7452 -9.75551 10
      vertex 25 -15.5 10
      vertex 18.828 -7.45452 10
    endloop
  endfacet
  facet normal -0.904827 -0.425779 0
    outer loop
      vertex 17.7452 9.75551 0
      vertex 18.828 7.45452 0
      vertex 17.7452 9.75551 10
    endloop
  endfacet
  facet normal 0 0 -1
    outer loop
      vertex 17.7452 9.75551 0
      vertex 25 15.5 0
      vertex 18.828 7.45452 0
    endloop
  endfacet
  facet normal -0.904827 -0.425779 0
    outer loop
      vertex 17.7452 9.75551 10
      vertex 18.828 7.45452 0
      vertex 18.828 7.45452 10
    endloop
  endfacet
  facet normal 0 0 1
    outer loop
      vertex 17.7452 9.75551 10
      vertex 18.828 7.45452 10
      vertex 25 15.5 10
    endloop
  endfacet
  facet normal -0.951057 0.309017 0
    outer loop
      vertex 18.828 -7.45452 0
      vertex 18.828 -7.45452 10
      vertex 19.6138 -5.03597 10
    endloop
  endfacet
  facet normal 0 0 -1
    outer loop
      vertex 18.828 -7.45452 0
      vertex 19.6138 -5.03597 0
      vertex 25 -15.5 0
    endloop
  endfacet
  facet normal -0.951057 0.309017 0
    outer loop
      vertex 18.828 -7.45452 0
      vertex 19.6138 -5.03597 10
      vertex 19.6138 -5.03597 0
    endloop
  endfacet
  facet normal -0 0 1
    outer loop
      vertex 18.828 -7.45452 10
      vertex 25 -15.5 10
      vertex 19.6138 -5.03597 10
    endloop
  endfacet
  facet normal -0.951057 -0.309017 0
    outer loop
      vertex 18.828 7.45452 0
      vertex 19.6138 5.03597 0
      vertex 18.828 7.45452 10
    endloop
  endfacet
  facet normal 0 0 -1
    outer loop
      vertex 18.828 7.45452 0
      vertex 25 15.5 0
      vertex 19.6138 5.03597 0
    endloop
  endfacet
  facet normal -0.951057 -0.309017 0
    outer loop
      vertex 18.828 7.45452 10
      vertex 19.6138 5.03597 0
      vertex 19.6138 5.03597 10
    endloop
  endfacet
  facet normal 0 0 1
    outer loop
      vertex 18.828 7.45452 10
      vertex 19.6138 5.03597 10
      vertex 25 15.5 10
    endloop
  endfacet
  facet normal -0.982287 0.187382 0
    outer loop
      vertex 19.6138 -5.03597 0
      vertex 19.6138 -5.03597 10
      vertex 20.0903 -2.538 10
    endloop
  endfacet
  facet normal 0 0 -1
    outer loop
      vertex 19.6138 -5.03597 0
      vertex 20.0903 -2.538 0
      vertex 25 -15.5 0
    endloop
  endfacet
  facet normal -0.982287 0.187382 0
    outer loop
      vertex 19.6138 -5.03597 0
      vertex 20.0903 -2.538 10
      vertex 20.0903 -2.538 0
    endloop
  endfacet
  facet normal -0 0 1
    outer loop
      vertex 19.6138 -5.03597 10
      vertex 25 -15.5 10
      vertex 20.0903 -2.538 10
    endloop
  endfacet
  facet normal -0.982287 -0.187382 0
    outer loop
      vertex 19.6138 5.03597 0
      vertex 20.0903 2.538 0
      vertex 19.6138 5.03597 10
    endloop
  endfacet
  facet normal 0 0 -1
    outer loop
      vertex 19.6138 5.03597 0
      vertex 25 15.5 0
      vertex 20.0903 2.538 0
    endloop
  endfacet
  facet normal -0.982287 -0.187382 0
    outer loop
      vertex 19.6138 5.03597 10
      vertex 20.0903 2.538 0
      vertex 20.0903 2.538 10
    endloop
  endfacet
  facet normal 0 0 1
    outer loop
      vertex 19.6138 5.03597 10
      vertex 20.0903 2.538 10
      vertex 25 15.5 10
    endloop
  endfacet
  facet normal -0.998027 0.0627906 0
    outer loop
      vertex 20.0903 -2.538 0
      vertex 20.0903 -2.538 10
      vertex 20.25 0 10
    endloop
  endfacet
  facet normal 0 0 -1
    outer loop
      vertex 20.0903 -2.538 0
      vertex 20.25 0 0
      vertex 25 -15.5 0
    endloop
  endfacet
  facet normal -0.998027 0.0627906 0
    outer loop
      vertex 20.0903 -2.538 0
      vertex 20.25 0 10
      vertex 20.25 0 0
    endloop
  endfacet
  facet normal -0 0 1
    outer loop
      vertex 20.0903 -2.538 10
      vertex 25 -15.5 10
      vertex 20.25 0 10
    endloop
  endfacet
  facet normal -0.998027 -0.0627906 0
    outer loop
      vertex 20.0903 2.538 0
      vertex 20.25 0 0
      vertex 20.0903 2.538 10
    endloop
  endfacet
  facet normal 0 0 -1
    outer loop
      vertex 20.0903 2.538 0
      vertex 25 15.5 0
      vertex 20.25 0 0
    endloop
  endfacet
  facet normal -0.998027 -0.0627906 0
    outer loop
      vertex 20.0903 2.538 10
      vertex 20.25 0 0
      vertex 20.25 0 10
    endloop
  endfacet
  facet normal 0 0 1
    outer loop
      vertex 20.0903 2.538 10
      vertex 20.25 0 10
      vertex 25 15.5 10
    endloop
  endfacet
  facet normal 0 0 -1
    outer loop
      vertex 20.25 0 0
      vertex 25 15.5 0
      vertex 25 -15.5 0
    endloop
  endfacet
  facet normal 0 0 1
    outer loop
      vertex 20.25 0 10
      vertex 25 -15.5 10
      vertex 25 15.5 10
    endloop
  endfacet
  facet normal 0 1 0
    outer loop
      vertex 25 -15.5 0
      vertex 25 -15.5 10
      vertex 36 -15.5 0
    endloop
  endfacet
  facet normal 1 0 0
    outer loop
      vertex 25 -15.5 0
      vertex 25 15.5 0
      vertex 25 -15.5 10
    endloop
  endfacet
  facet normal 0 0 -1
    outer loop
      vertex 25 -15.5 0
      vertex 33.6956 -24.4813 0
      vertex 33.2664 -25 0
    endloop
  endfacet
  facet normal 0 0 -1
    outer loop
      vertex 25 -15.5 0
      vertex 36 -15.5 0
      vertex 36.4982 -20.065 0
    endloop
  endfacet
  facet normal 0 0 -1
    outer loop
      vertex 25 -15.5 0
      vertex 36.4982 -20.065 0
      vertex 33.6956 -24.4813 0
    endloop
  endfacet
  facet normal 1 -0 0
    outer loop
      vertex 25 -15.5 10
      vertex 25 15.5 0
      vertex 25 15.5 10
    endloop
  endfacet
  facet normal 0 0 1
    outer loop
      vertex 25 -15.5 10
      vertex 33.2664 -25 10
      vertex 33.6956 -24.4813 10
    endloop
  endfacet
  facet normal 0 0 1
    outer loop
      vertex 25 -15.5 10
      vertex 33.6956 -24.4813 10
      vertex 36.4982 -20.065 10
    endloop
  endfacet
  facet normal 0 1 -0
    outer loop
      vertex 25 -15.5 10
      vertex 36 -15.5 10
      vertex 36 -15.5 0
    endloop
  endfacet
  facet normal -0 0 1
    outer loop
      vertex 25 -15.5 10
      vertex 36.4982 -20.065 10
      vertex 36 -15.5 10
    endloop
  endfacet
  facet normal -0 0 -1
    outer loop
      vertex 25 15.5 0
      vertex 33.2664 25 0
      vertex 33.6956 24.4813 0
    endloop
  endfacet
  facet normal -0 0 -1
    outer loop
      vertex 25 15.5 0
      vertex 33.6956 24.4813 0
      vertex 36.4982 20.065 0
    endloop
  endfacet
  facet normal 0 -1 -0
    outer loop
      vertex 25 15.5 0
      vertex 36 15.5 0
      vertex 36 15.5 10
    endloop
  endfacet
  facet normal 0 -1 0
    outer loop
      vertex 25 15.5 0
      vertex 36 15.5 10
      vertex 25 15.5 10
    endloop
  endfacet
  facet normal 0 0 -1
    outer loop
      vertex 25 15.5 0
      vertex 36.4982 20.065 0
      vertex 36 15.5 0
    endloop
  endfacet
  facet normal 0 0 1
    outer loop
      vertex 25 15.5 10
      vertex 33.6956 24.4813 10
      vertex 33.2664 25 10
    endloop
  endfacet
  facet normal 0 0 1
    outer loop
      vertex 25 15.5 10
      vertex 36 15.5 10
      vertex 36.4982 20.065 10
    endloop
  endfacet
  facet normal 0 0 1
    outer loop
      vertex 25 15.5 10
      vertex 36.4982 20.065 10
      vertex 33.6956 24.4813 10
    endloop
  endfacet
  facet normal -0.248689 0.968583 0
    outer loop
      vertex 3.79447 -19.8913 0
      vertex 3.79447 -19.8913 10
      vertex 6.25759 -19.2589 0
    endloop
  endfacet
  facet normal 0 0 -1
    outer loop
      vertex 3.79447 -19.8913 0
      vertex 6.25759 -19.2589 0
      vertex 33.2664 -25 0
    endloop
  endfacet
  facet normal -0 0 1
    outer loop
      vertex 3.79447 -19.8913 10
      vertex 33.2664 -25 10
      vertex 6.25759 -19.2589 10
    endloop
  endfacet
  facet normal -0.248689 0.968583 0
    outer loop
      vertex 3.79447 -19.8913 10
      vertex 6.25759 -19.2589 10
      vertex 6.25759 -19.2589 0
    endloop
  endfacet
  facet normal 0 0 -1
    outer loop
      vertex 3.79447 19.8913 0
      vertex 33.2664 25 0
      vertex 6.25759 19.2589 0
    endloop
  endfacet
  facet normal -0.248689 -0.968583 -0
    outer loop
      vertex 3.79447 19.8913 0
      vertex 6.25759 19.2589 0
      vertex 6.25759 19.2589 10
    endloop
  endfacet
  facet normal -0.248689 -0.968583 0
    outer loop
      vertex 3.79447 19.8913 0
      vertex 6.25759 19.2589 10
      vertex 3.79447 19.8913 10
    endloop
  endfacet
  facet normal 0 0 1
    outer loop
      vertex 3.79447 19.8913 10
      vertex 6.25759 19.2589 10
      vertex 33.2664 25 10
    endloop
  endfacet
  facet normal 0.770514 -0.637423 0
    outer loop
      vertex 33.2664 -25 0
      vertex 33.6956 -24.4813 0
      vertex 33.2664 -25 10
    endloop
  endfacet
  facet normal 0.770514 -0.637423 0
    outer loop
      vertex 33.2664 -25 10
      vertex 33.6956 -24.4813 0
      vertex 33.6956 -24.4813 10
    endloop
  endfacet
  facet normal 0.770514 0.637423 0
    outer loop
      vertex 33.2664 25 0
      vertex 33.2664 25 10
      vertex 33.6956 24.4813 10
    endloop
  endfacet
  facet normal 0.770514 0.637423 0
    outer loop
      vertex 33.2664 25 0
      vertex 33.6956 24.4813 10
      vertex 33.6956 24.4813 0
    endloop
  endfacet
  facet normal 0.844328 -0.535827 0
    outer loop
      vertex 33.6956 -24.4813 0
      vertex 36.4982 -20.065 0
      vertex 33.6956 -24.4813 10
    endloop
  endfacet
  facet normal 0.844328 -0.535827 0
    outer loop
      vertex 33.6956 -24.4813 10
      vertex 36.4982 -20.065 0
      vertex 36.4982 -20.065 10
    endloop
  endfacet
  facet normal 0.844328 0.535827 0
    outer loop
      vertex 33.6956 24.4813 0
      vertex 33.6956 24.4813 10
      vertex 36.4982 20.065 10
    endloop
  endfacet
  facet normal 0.844328 0.535827 0
    outer loop
      vertex 33.6956 24.4813 0
      vertex 36.4982 20.065 10
      vertex 36.4982 20.065 0
    endloop
  endfacet
  facet normal -1 -0 0
    outer loop
      vertex 36 -15.5 0
      vertex 36 -15.5 10
      vertex 36 15.5 10
    endloop
  endfacet
  facet normal 0 0 -1
    outer loop
      vertex 36 -15.5 0
      vertex 36 15.5 0
      vertex 41.65 0 0
    endloop
  endfacet
  facet normal -1 0 0
    outer loop
      vertex 36 -15.5 0
      vertex 36 15.5 10
      vertex 36 15.5 0
    endloop
  endfacet
  facet normal 0 0 -1
    outer loop
      vertex 36 -15.5 0
      vertex 38.7252 -15.3324 0
      vertex 36.4982 -20.065 0
    endloop
  endfacet
  facet normal 0 0 -1
    outer loop
      vertex 36 -15.5 0
      vertex 40.3415 -10.3579 0
      vertex 38.7252 -15.3324 0
    endloop
  endfacet
  facet normal 0 0 -1
    outer loop
      vertex 36 -15.5 0
      vertex 41.3216 -5.22013 0
      vertex 40.3415 -10.3579 0
    endloop
  endfacet
  facet normal 0 0 -1
    outer loop
      vertex 36 -15.5 0
      vertex 41.65 0 0
      vertex 41.3216 -5.22013 0
    endloop
  endfacet
  facet normal 0 0 1
    outer loop
      vertex 36 -15.5 10
      vertex 36.4982 -20.065 10
      vertex 38.7252 -15.3324 10
    endloop
  endfacet
  facet normal 0 0 1
    outer loop
      vertex 36 -15.5 10
      vertex 38.7252 -15.3324 10
      vertex 40.3415 -10.3579 10
    endloop
  endfacet
  facet normal 0 0 1
    outer loop
      vertex 36 -15.5 10
      vertex 40.3415 -10.3579 10
      vertex 41.3216 -5.22013 10
    endloop
  endfacet
  facet normal 0 0 1
    outer loop
      vertex 36 -15.5 10
      vertex 41.3216 -5.22013 10
      vertex 41.65 0 10
    endloop
  endfacet
  facet normal 0 0 1
    outer loop
      vertex 36 -15.5 10
      vertex 41.65 0 10
      vertex 36 15.5 10
    endloop
  endfacet
  facet normal 0 0 -1
    outer loop
      vertex 36 15.5 0
      vertex 36.4982 20.065 0
      vertex 38.7252 15.3324 0
    endloop
  endfacet
  facet normal 0 0 -1
    outer loop
      vertex 36 15.5 0
      vertex 38.7252 15.3324 0
      vertex 40.3415 10.3579 0
    endloop
  endfacet
  facet normal 0 0 -1
    outer loop
      vertex 36 15.5 0
      vertex 40.3415 10.3579 0
      vertex 41.3216 5.22013 0
    endloop
  endfacet
  facet normal 0 0 -1
    outer loop
      vertex 36 15.5 0
      vertex 41.3216 5.22013 0
      vertex 41.65 0 0
    endloop
  endfacet
  facet normal -0 0 1
    outer loop
      vertex 36 15.5 10
      vertex 38.7252 15.3324 10
      vertex 36.4982 20.065 10
    endloop
  endfacet
  facet normal 0 0 1
    outer loop
      vertex 36 15.5 10
      vertex 40.3415 10.3579 10
      vertex 38.7252 15.3324 10
    endloop
  endfacet
  facet normal 0 0 1
    outer loop
      vertex 36 15.5 10
      vertex 41.3216 5.22013 10
      vertex 40.3415 10.3579 10
    endloop
  endfacet
  facet normal 0 0 1
    outer loop
      vertex 36 15.5 10
      vertex 41.65 0 10
      vertex 41.3216 5.22013 10
    endloop
  endfacet
  facet normal 0.904827 -0.425779 0
    outer loop
      vertex 36.4982 -20.065 0
      vertex 38.7252 -15.3324 0
      vertex 36.4982 -20.065 10
    endloop
  endfacet
  facet normal 0.904827 -0.425779 0
    outer loop
      vertex 36.4982 -20.065 10
      vertex 38.7252 -15.3324 0
      vertex 38.7252 -15.3324 10
    endloop
  endfacet
  facet normal 0.904827 0.425779 0
    outer loop
      vertex 36.4982 20.065 0
      vertex 36.4982 20.065 10
      vertex 38.7252 15.3324 10
    endloop
  endfacet
  facet normal 0.904827 0.425779 0
    outer loop
      vertex 36.4982 20.065 0
      vertex 38.7252 15.3324 10
      vertex 38.7252 15.3324 0
    endloop
  endfacet
  facet normal 0.951056 -0.309017 0
    outer loop
      vertex 38.7252 -15.3324 0
      vertex 40.3415 -10.3579 0
      vertex 38.7252 -15.3324 10
    endloop
  endfacet
  facet normal 0.951056 -0.309017 0
    outer loop
      vertex 38.7252 -15.3324 10
      vertex 40.3415 -10.3579 0
      vertex 40.3415 -10.3579 10
    endloop
  endfacet
  facet normal 0.951056 0.309017 0
    outer loop
      vertex 38.7252 15.3324 0
      vertex 38.7252 15.3324 10
      vertex 40.3415 10.3579 10
    endloop
  endfacet
  facet normal 0.951056 0.309017 0
    outer loop
      vertex 38.7252 15.3324 0
      vertex 40.3415 10.3579 10
      vertex 40.3415 10.3579 0
    endloop
  endfacet
  facet normal 0.982287 -0.187382 0
    outer loop
      vertex 40.3415 -10.3579 0
      vertex 41.3216 -5.22013 0
      vertex 40.3415 -10.3579 10
    endloop
  endfacet
  facet normal 0.982287 -0.187382 0
    outer loop
      vertex 40.3415 -10.3579 10
      vertex 41.3216 -5.22013 0
      vertex 41.3216 -5.22013 10
    endloop
  endfacet
  facet normal 0.982287 0.187382 0
    outer loop
      vertex 40.3415 10.3579 0
      vertex 40.3415 10.3579 10
      vertex 41.3216 5.22013 10
    endloop
  endfacet
  facet normal 0.982287 0.187382 0
    outer loop
      vertex 40.3415 10.3579 0
      vertex 41.3216 5.22013 10
      vertex 41.3216 5.22013 0
    endloop
  endfacet
  facet normal 0.998027 -0.0627905 0
    outer loop
      vertex 41.3216 -5.22013 0
      vertex 41.65 0 0
      vertex 41.3216 -5.22013 10
    endloop
  endfacet
  facet normal 0.998027 -0.0627905 0
    outer loop
      vertex 41.3216 -5.22013 10
      vertex 41.65 0 0
      vertex 41.65 0 10
    endloop
  endfacet
  facet normal 0.998027 0.0627905 0
    outer loop
      vertex 41.3216 5.22013 0
      vertex 41.3216 5.22013 10
      vertex 41.65 0 10
    endloop
  endfacet
  facet normal 0.998027 0.0627905 0
    outer loop
      vertex 41.3216 5.22013 0
      vertex 41.65 0 10
      vertex 41.65 0 0
    endloop
  endfacet
  facet normal -0.368125 0.929776 0
    outer loop
      vertex 6.25759 -19.2589 0
      vertex 6.25759 -19.2589 10
      vertex 8.62203 -18.3227 0
    endloop
  endfacet
  facet normal 0 0 -1
    outer loop
      vertex 6.25759 -19.2589 0
      vertex 8.62203 -18.3227 0
      vertex 33.2664 -25 0
    endloop
  endfacet
  facet normal -0 0 1
    outer loop
      vertex 6.25759 -19.2589 10
      vertex 33.2664 -25 10
      vertex 8.62203 -18.3227 10
    endloop
  endfacet
  facet normal -0.368125 0.929776 0
    outer loop
      vertex 6.25759 -19.2589 10
      vertex 8.62203 -18.3227 10
      vertex 8.62203 -18.3227 0
    endloop
  endfacet
  facet normal 0 0 -1
    outer loop
      vertex 6.25759 19.2589 0
      vertex 33.2664 25 0
      vertex 8.62203 18.3227 0
    endloop
  endfacet
  facet normal -0.368125 -0.929776 -0
    outer loop
      vertex 6.25759 19.2589 0
      vertex 8.62203 18.3227 0
      vertex 8.62203 18.3227 10
    endloop
  endfacet
  facet normal -0.368125 -0.929776 0
    outer loop
      vertex 6.25759 19.2589 0
      vertex 8.62203 18.3227 10
      vertex 6.25759 19.2589 10
    endloop
  endfacet
  facet normal 0 0 1
    outer loop
      vertex 6.25759 19.2589 10
      vertex 8.62203 18.3227 10
      vertex 33.2664 25 10
    endloop
  endfacet
  facet normal 0 0 -1
    outer loop
      vertex 8.62203 -18.3227 0
      vertex 10.8505 -17.0976 0
      vertex 33.2664 -25 0
    endloop
  endfacet
  facet normal -0.481753 0.876307 0
    outer loop
      vertex 8.62203 -18.3227 0
      vertex 8.62203 -18.3227 10
      vertex 10.8505 -17.0976 0
    endloop
  endfacet
  facet normal -0.481753 0.876307 0
    outer loop
      vertex 8.62203 -18.3227 10
      vertex 10.8505 -17.0976 10
      vertex 10.8505 -17.0976 0
    endloop
  endfacet
  facet normal -0 0 1
    outer loop
      vertex 8.62203 -18.3227 10
      vertex 33.2664 -25 10
      vertex 10.8505 -17.0976 10
    endloop
  endfacet
  facet normal -0.481753 -0.876307 -0
    outer loop
      vertex 8.62203 18.3227 0
      vertex 10.8505 17.0976 0
      vertex 10.8505 17.0976 10
    endloop
  endfacet
  facet normal -0.481753 -0.876307 0
    outer loop
      vertex 8.62203 18.3227 0
      vertex 10.8505 17.0976 10
      vertex 8.62203 18.3227 10
    endloop
  endfacet
  facet normal 0 0 -1
    outer loop
      vertex 8.62203 18.3227 0
      vertex 33.2664 25 0
      vertex 10.8505 17.0976 0
    endloop
  endfacet
  facet normal 0 0 1
    outer loop
      vertex 8.62203 18.3227 10
      vertex 10.8505 17.0976 10
      vertex 33.2664 25 10
    endloop
  endfacet
endsolid model
