solid model
  facet normal -1.92885e-06 -1 -0
    outer loop
      vertex -0.494427 -20.3033 -19.5
      vertex 0.494427 -20.3033 -19.5
      vertex 0.494427 -20.3033 -6.05498e-17
    endloop
  endfacet
  facet normal -1.92885e-06 -1 0
    outer loop
      vertex -0.494427 -20.3033 -19.5
      vertex 0.494427 -20.3033 -6.05498e-17
      vertex -0.494427 -20.3033 6.05498e-17
    endloop
  endfacet
  facet normal 0 0 -1
    outer loop
      vertex -0.494427 -20.3033 -19.5
      vertex 1.65 -18.9671 -19.5
      vertex 0.494427 -20.3033 -19.5
    endloop
  endfacet
  facet normal 1.92885e-06 1 0
    outer loop
      vertex -0.494427 -23.3467 -19.5
      vertex -0.494427 -23.3467 6.05498e-17
      vertex 0.494427 -23.3467 -19.5
    endloop
  endfacet
  facet normal 0 0 -1
    outer loop
      vertex -0.494427 -23.3467 -19.5
      vertex 0.494427 -23.3467 -19.5
      vertex 1.65 -24.6829 -19.5
    endloop
  endfacet
  facet normal 1.92885e-06 1 -0
    outer loop
      vertex -0.494427 -23.3467 6.05498e-17
      vertex 0.494427 -23.3467 -6.05498e-17
      vertex 0.494427 -23.3467 -19.5
    endloop
  endfacet
  facet normal 0.587785 -0.809017 0
    outer loop
      vertex -1.29443 -20.8845 -19.5
      vertex -0.494427 -20.3033 -19.5
      vertex -0.494427 -20.3033 6.05498e-17
    endloop
  endfacet
  facet normal 0.587785 -0.809017 0
    outer loop
      vertex -1.29443 -20.8845 -19.5
      vertex -0.494427 -20.3033 6.05498e-17
      vertex -1.29443 -20.8845 1.58522e-16
    endloop
  endfacet
  facet normal 0.587785 0.809017 0
    outer loop
      vertex -1.29443 -22.7655 -19.5
      vertex -1.29443 -22.7655 1.58522e-16
      vertex -0.494427 -23.3467 -19.5
    endloop
  endfacet
  facet normal 0.587785 0.809017 -0
    outer loop
      vertex -1.29443 -22.7655 1.58522e-16
      vertex -0.494427 -23.3467 6.05498e-17
      vertex -0.494427 -23.3467 -19.5
    endloop
  endfacet
  facet normal 0.951057 -0.309017 0
    outer loop
      vertex -1.6 -21.825 -19.5
      vertex -1.29443 -20.8845 -19.5
      vertex -1.6 -21.825 1.95943e-16
    endloop
  endfacet
  facet normal 0.951057 0.309017 0
    outer loop
      vertex -1.6 -21.825 -19.5
      vertex -1.29443 -22.7655 1.58522e-16
      vertex -1.29443 -22.7655 -19.5
    endloop
  endfacet
  facet normal 0.951057 0.309017 0
    outer loop
      vertex -1.6 -21.825 -19.5
      vertex -1.6 -21.825 1.95943e-16
      vertex -1.29443 -22.7655 1.58522e-16
    endloop
  endfacet
  facet normal 0.951057 -0.309017 0
    outer loop
      vertex -1.6 -21.825 1.95943e-16
      vertex -1.29443 -20.8845 -19.5
      vertex -1.29443 -20.8845 1.58522e-16
    endloop
  endfacet
  facet normal 0 0 -1
    outer loop
      vertex -1.65 -18.9671 -19.5
      vertex -0.494427 -20.3033 -19.5
      vertex -1.29443 -20.8845 -19.5
    endloop
  endfacet
  facet normal 0 0 -1
    outer loop
      vertex -1.65 -18.9671 -19.5
      vertex 1.65 -18.9671 -19.5
      vertex -0.494427 -20.3033 -19.5
    endloop
  endfacet
  facet normal 0 -1 0
    outer loop
      vertex -1.65 -18.9671 -22
      vertex 1.65 -18.9671 -19.5
      vertex -1.65 -18.9671 -19.5
    endloop
  endfacet
  facet normal 0 -1 -0
    outer loop
      vertex -1.65 -18.9671 -22
      vertex 1.65 -18.9671 -22
      vertex 1.65 -18.9671 -19.5
    endloop
  endfacet
  facet normal 0 0 -1
    outer loop
      vertex -1.65 -24.6829 -19.5
      vertex -0.494427 -23.3467 -19.5
      vertex 1.65 -24.6829 -19.5
    endloop
  endfacet
  facet normal -0 0 -1
    outer loop
      vertex -1.65 -24.6829 -19.5
      vertex -1.29443 -22.7655 -19.5
      vertex -0.494427 -23.3467 -19.5
    endloop
  endfacet
  facet normal 5.77985e-07 1 -0
    outer loop
      vertex -1.65 -24.6829 -19.5
      vertex 1.65 -24.6829 -19.5
      vertex 1.65 -24.6829 -22
    endloop
  endfacet
  facet normal 5.77985e-07 1 0
    outer loop
      vertex -1.65 -24.6829 -22
      vertex -1.65 -24.6829 -19.5
      vertex 1.65 -24.6829 -22
    endloop
  endfacet
  facet normal -0 0 -1
    outer loop
      vertex -10 -53.65 -22
      vertex -1.65 -24.6829 -22
      vertex 1.65 -24.6829 -22
    endloop
  endfacet
  facet normal -1 -0 0
    outer loop
      vertex -10 -53.65 -22
      vertex -10 -53.65 1.22465e-15
      vertex -10 10 1.22465e-15
    endloop
  endfacet
  facet normal 0 0 -1
    outer loop
      vertex -10 -53.65 -22
      vertex -10 10 -22
      vertex -3.3 -21.825 -22
    endloop
  endfacet
  facet normal -1 0 0
    outer loop
      vertex -10 -53.65 -22
      vertex -10 10 1.22465e-15
      vertex -10 10 -22
    endloop
  endfacet
  facet normal -0 0 -1
    outer loop
      vertex -10 -53.65 -22
      vertex -3.3 -21.825 -22
      vertex -1.65 -24.6829 -22
    endloop
  endfacet
  facet normal -0 0 -1
    outer loop
      vertex -10 -53.65 -22
      vertex 1.65 -24.6829 -22
      vertex 38.35 -24.6829 -22
    endloop
  endfacet
  facet normal -1.7387e-08 -1 0
    outer loop
      vertex -10 -53.65 -22
      vertex 209.4 -53.65 -2.56441e-14
      vertex -10 -53.65 1.22465e-15
    endloop
  endfacet
  facet normal -1.7387e-08 -1 -0
    outer loop
      vertex -10 -53.65 -22
      vertex 209.4 -53.65 -22
      vertex 209.4 -53.65 -2.56441e-14
    endloop
  endfacet
  facet normal 0 0 -1
    outer loop
      vertex -10 -53.65 -22
      vertex 38.35 -24.6829 -22
      vertex 54 -43.65 -22
    endloop
  endfacet
  facet normal 0 0 -1
    outer loop
      vertex -10 -53.65 -22
      vertex 54 -43.65 -22
      vertex 209.4 -53.65 -22
    endloop
  endfacet
  facet normal 1.22465e-16 -2.81788e-25 1
    outer loop
      vertex -10 -53.65 1.22465e-15
      vertex -0.494427 -23.3467 6.05498e-17
      vertex -1.29443 -22.7655 1.58522e-16
    endloop
  endfacet
  facet normal 1.22465e-16 1.64214e-24 1
    outer loop
      vertex -10 -53.65 1.22465e-15
      vertex -1.29443 -22.7655 1.58522e-16
      vertex -1.6 -21.825 1.95943e-16
    endloop
  endfacet
  facet normal 1.22465e-16 -0 1
    outer loop
      vertex -10 -53.65 1.22465e-15
      vertex -1.6 -21.825 1.95943e-16
      vertex -10 10 1.22465e-15
    endloop
  endfacet
  facet normal 1.22465e-16 -1.21519e-24 1
    outer loop
      vertex -10 -53.65 1.22465e-15
      vertex 0.494427 -23.3467 -6.05498e-17
      vertex -0.494427 -23.3467 6.05498e-17
    endloop
  endfacet
  facet normal 1.22465e-16 -3.41519e-25 1
    outer loop
      vertex -10 -53.65 1.22465e-15
      vertex 1.29443 -22.7655 -1.58522e-16
      vertex 0.494427 -23.3467 -6.05498e-17
    endloop
  endfacet
  facet normal 1.22465e-16 -8.78658e-24 1
    outer loop
      vertex -10 -53.65 1.22465e-15
      vertex 209.4 -53.65 -2.56441e-14
      vertex 41.0198 -24.9635 -5.02347e-15
    endloop
  endfacet
  facet normal 1.22465e-16 -1.23721e-24 1
    outer loop
      vertex -10 -53.65 1.22465e-15
      vertex 37.3302 -23.7647 -4.57164e-15
      vertex 1.29443 -22.7655 -1.58522e-16
    endloop
  endfacet
  facet normal 1.22465e-16 1.84142e-24 1
    outer loop
      vertex -10 -53.65 1.22465e-15
      vertex 38.9802 -24.9635 -4.7737e-15
      vertex 37.3302 -23.7647 -4.57164e-15
    endloop
  endfacet
  facet normal 1.22465e-16 2.29677e-22 1
    outer loop
      vertex -10 -53.65 1.22465e-15
      vertex 41.0198 -24.9635 -5.02347e-15
      vertex 38.9802 -24.9635 -4.7737e-15
    endloop
  endfacet
  facet normal 0 0 -1
    outer loop
      vertex -10 10 -22
      vertex -1.65 -18.9671 -22
      vertex -3.3 -21.825 -22
    endloop
  endfacet
  facet normal 0 1 0
    outer loop
      vertex -10 10 -22
      vertex -10 10 1.22465e-15
      vertex 209.4 10 -22
    endloop
  endfacet
  facet normal 0 0 -1
    outer loop
      vertex -10 10 -22
      vertex 1.65 -18.9671 -22
      vertex -1.65 -18.9671 -22
    endloop
  endfacet
  facet normal 0 0 -1
    outer loop
      vertex -10 10 -22
      vertex 209.4 10 -22
      vertex 54 -6.61309e-15 -22
    endloop
  endfacet
  facet normal 0 0 -1
    outer loop
      vertex -10 10 -22
      vertex 38.35 -18.9671 -22
      vertex 1.65 -18.9671 -22
    endloop
  endfacet
  facet normal 0 0 -1
    outer loop
      vertex -10 10 -22
      vertex 54 -6.61309e-15 -22
      vertex 38.35 -18.9671 -22
    endloop
  endfacet
  facet normal 1.22465e-16 1.21519e-24 1
    outer loop
      vertex -10 10 1.22465e-15
      vertex -0.494427 -20.3033 6.05498e-17
      vertex 0.494427 -20.3033 -6.05498e-17
    endloop
  endfacet
  facet normal 1.22465e-16 2.81788e-25 1
    outer loop
      vertex -10 10 1.22465e-15
      vertex -1.29443 -20.8845 1.58522e-16
      vertex -0.494427 -20.3033 6.05498e-17
    endloop
  endfacet
  facet normal 1.22465e-16 -1.64214e-24 1
    outer loop
      vertex -10 10 1.22465e-15
      vertex -1.6 -21.825 1.95943e-16
      vertex -1.29443 -20.8845 1.58522e-16
    endloop
  endfacet
  facet normal 1.22465e-16 3.41519e-25 1
    outer loop
      vertex -10 10 1.22465e-15
      vertex 0.494427 -20.3033 -6.05498e-17
      vertex 1.29443 -20.8845 -1.58522e-16
    endloop
  endfacet
  facet normal 1.22465e-16 1.23721e-24 1
    outer loop
      vertex -10 10 1.22465e-15
      vertex 1.29443 -20.8845 -1.58522e-16
      vertex 37.3302 -19.8853 -4.57164e-15
    endloop
  endfacet
  facet normal 0 1 -0
    outer loop
      vertex -10 10 1.22465e-15
      vertex 209.4 10 -2.56441e-14
      vertex 209.4 10 -22
    endloop
  endfacet
  facet normal 1.22465e-16 -1.84142e-24 1
    outer loop
      vertex -10 10 1.22465e-15
      vertex 37.3302 -19.8853 -4.57164e-15
      vertex 38.9802 -18.6865 -4.7737e-15
    endloop
  endfacet
  facet normal 1.22465e-16 -2.29677e-22 1
    outer loop
      vertex -10 10 1.22465e-15
      vertex 38.9802 -18.6865 -4.7737e-15
      vertex 41.0198 -18.6865 -5.02347e-15
    endloop
  endfacet
  facet normal 1.22465e-16 8.78658e-24 1
    outer loop
      vertex -10 10 1.22465e-15
      vertex 41.0198 -18.6865 -5.02347e-15
      vertex 209.4 10 -2.56441e-14
    endloop
  endfacet
  facet normal 0 0 -1
    outer loop
      vertex -3.3 -21.825 -19.5
      vertex -1.29443 -20.8845 -19.5
      vertex -1.6 -21.825 -19.5
    endloop
  endfacet
  facet normal 0 0 -1
    outer loop
      vertex -3.3 -21.825 -19.5
      vertex -1.29443 -22.7655 -19.5
      vertex -1.65 -24.6829 -19.5
    endloop
  endfacet
  facet normal 0 0 -1
    outer loop
      vertex -3.3 -21.825 -19.5
      vertex -1.6 -21.825 -19.5
      vertex -1.29443 -22.7655 -19.5
    endloop
  endfacet
  facet normal -0 0 -1
    outer loop
      vertex -3.3 -21.825 -19.5
      vertex -1.65 -18.9671 -19.5
      vertex -1.29443 -20.8845 -19.5
    endloop
  endfacet
  facet normal 0.866025 -0.5 0
    outer loop
      vertex -3.3 -21.825 -19.5
      vertex -1.65 -18.9671 -22
      vertex -1.65 -18.9671 -19.5
    endloop
  endfacet
  facet normal 0.866025 -0.5 0
    outer loop
      vertex -3.3 -21.825 -22
      vertex -1.65 -18.9671 -22
      vertex -3.3 -21.825 -19.5
    endloop
  endfacet
  facet normal 0.866025 0.5 0
    outer loop
      vertex -3.3 -21.825 -22
      vertex -1.65 -24.6829 -19.5
      vertex -1.65 -24.6829 -22
    endloop
  endfacet
  facet normal 0.866025 0.5 0
    outer loop
      vertex -3.3 -21.825 -22
      vertex -3.3 -21.825 -19.5
      vertex -1.65 -24.6829 -19.5
    endloop
  endfacet
  facet normal -0.587785 -0.809017 0
    outer loop
      vertex 0.494427 -20.3033 -19.5
      vertex 1.29443 -20.8845 -1.58522e-16
      vertex 0.494427 -20.3033 -6.05498e-17
    endloop
  endfacet
  facet normal -0.587785 -0.809017 -0
    outer loop
      vertex 0.494427 -20.3033 -19.5
      vertex 1.29443 -20.8845 -19.5
      vertex 1.29443 -20.8845 -1.58522e-16
    endloop
  endfacet
  facet normal 0 0 -1
    outer loop
      vertex 0.494427 -20.3033 -19.5
      vertex 1.65 -18.9671 -19.5
      vertex 1.29443 -20.8845 -19.5
    endloop
  endfacet
  facet normal -0.587785 0.809017 0
    outer loop
      vertex 0.494427 -23.3467 -19.5
      vertex 0.494427 -23.3467 -6.05498e-17
      vertex 1.29443 -22.7655 -19.5
    endloop
  endfacet
  facet normal 0 0 -1
    outer loop
      vertex 0.494427 -23.3467 -19.5
      vertex 1.29443 -22.7655 -19.5
      vertex 1.65 -24.6829 -19.5
    endloop
  endfacet
  facet normal -0.587785 0.809017 0
    outer loop
      vertex 0.494427 -23.3467 -6.05498e-17
      vertex 1.29443 -22.7655 -1.58522e-16
      vertex 1.29443 -22.7655 -19.5
    endloop
  endfacet
  facet normal 1.22465e-16 3.22416e-24 1
    outer loop
      vertex 1.29443 -20.8845 -1.58522e-16
      vertex 1.6 -21.825 -1.95943e-16
      vertex 36.7 -21.825 -4.49445e-15
    endloop
  endfacet
  facet normal -0.951057 -0.309017 0
    outer loop
      vertex 1.29443 -20.8845 -1.58522e-16
      vertex 1.6 -21.825 -19.5
      vertex 1.6 -21.825 -1.95943e-16
    endloop
  endfacet
  facet normal 1.22465e-16 9.17008e-23 1
    outer loop
      vertex 1.29443 -20.8845 -1.58522e-16
      vertex 36.7 -21.825 -4.49445e-15
      vertex 37.3302 -19.8853 -4.57164e-15
    endloop
  endfacet
  facet normal -0.951057 -0.309017 0
    outer loop
      vertex 1.29443 -20.8845 -19.5
      vertex 1.6 -21.825 -19.5
      vertex 1.29443 -20.8845 -1.58522e-16
    endloop
  endfacet
  facet normal 0 0 -1
    outer loop
      vertex 1.29443 -20.8845 -19.5
      vertex 1.65 -18.9671 -19.5
      vertex 3.3 -21.825 -19.5
    endloop
  endfacet
  facet normal 0 0 -1
    outer loop
      vertex 1.29443 -20.8845 -19.5
      vertex 3.3 -21.825 -19.5
      vertex 1.6 -21.825 -19.5
    endloop
  endfacet
  facet normal 1.22465e-16 -3.22416e-24 1
    outer loop
      vertex 1.29443 -22.7655 -1.58522e-16
      vertex 36.7 -21.825 -4.49445e-15
      vertex 1.6 -21.825 -1.95943e-16
    endloop
  endfacet
  facet normal 1.22465e-16 -9.17009e-23 1
    outer loop
      vertex 1.29443 -22.7655 -1.58522e-16
      vertex 37.3302 -23.7647 -4.57164e-15
      vertex 36.7 -21.825 -4.49445e-15
    endloop
  endfacet
  facet normal -0.951057 0.309017 0
    outer loop
      vertex 1.29443 -22.7655 -19.5
      vertex 1.29443 -22.7655 -1.58522e-16
      vertex 1.6 -21.825 -1.95943e-16
    endloop
  endfacet
  facet normal -0.951057 0.309017 0
    outer loop
      vertex 1.29443 -22.7655 -19.5
      vertex 1.6 -21.825 -1.95943e-16
      vertex 1.6 -21.825 -19.5
    endloop
  endfacet
  facet normal -0 0 -1
    outer loop
      vertex 1.29443 -22.7655 -19.5
      vertex 1.6 -21.825 -19.5
      vertex 3.3 -21.825 -19.5
    endloop
  endfacet
  facet normal 0 0 -1
    outer loop
      vertex 1.29443 -22.7655 -19.5
      vertex 3.3 -21.825 -19.5
      vertex 1.65 -24.6829 -19.5
    endloop
  endfacet
  facet normal -0.866026 -0.5 0
    outer loop
      vertex 1.65 -18.9671 -19.5
      vertex 3.3 -21.825 -22
      vertex 3.3 -21.825 -19.5
    endloop
  endfacet
  facet normal -0.866026 -0.5 0
    outer loop
      vertex 1.65 -18.9671 -22
      vertex 3.3 -21.825 -22
      vertex 1.65 -18.9671 -19.5
    endloop
  endfacet
  facet normal 0 0 -1
    outer loop
      vertex 1.65 -18.9671 -22
      vertex 38.35 -18.9671 -22
      vertex 3.3 -21.825 -22
    endloop
  endfacet
  facet normal -0.866025 0.5 0
    outer loop
      vertex 1.65 -24.6829 -22
      vertex 1.65 -24.6829 -19.5
      vertex 3.3 -21.825 -19.5
    endloop
  endfacet
  facet normal -0.866025 0.5 0
    outer loop
      vertex 1.65 -24.6829 -22
      vertex 3.3 -21.825 -19.5
      vertex 3.3 -21.825 -22
    endloop
  endfacet
  facet normal 0 0 -1
    outer loop
      vertex 1.65 -24.6829 -22
      vertex 3.3 -21.825 -22
      vertex 38.35 -24.6829 -22
    endloop
  endfacet
  facet normal -0 0 -1
    outer loop
      vertex 154.1 -21.825 -13.5
      vertex 155.75 -18.9671 -13.5
      vertex 156.106 -20.8845 -13.5
    endloop
  endfacet
  facet normal 0.866026 -0.499998 0
    outer loop
      vertex 154.1 -21.825 -13.5
      vertex 155.75 -18.9671 -17
      vertex 155.75 -18.9671 -13.5
    endloop
  endfacet
  facet normal 0 0 -1
    outer loop
      vertex 154.1 -21.825 -13.5
      vertex 155.8 -21.825 -13.5
      vertex 156.106 -22.7655 -13.5
    endloop
  endfacet
  facet normal 0 0 -1
    outer loop
      vertex 154.1 -21.825 -13.5
      vertex 156.106 -20.8845 -13.5
      vertex 155.8 -21.825 -13.5
    endloop
  endfacet
  facet normal 0 0 -1
    outer loop
      vertex 154.1 -21.825 -13.5
      vertex 156.106 -22.7655 -13.5
      vertex 155.75 -24.6829 -13.5
    endloop
  endfacet
  facet normal 0.866026 0.499999 0
    outer loop
      vertex 154.1 -21.825 -17
      vertex 154.1 -21.825 -13.5
      vertex 155.75 -24.6829 -13.5
    endloop
  endfacet
  facet normal 0.866026 -0.499998 0
    outer loop
      vertex 154.1 -21.825 -17
      vertex 155.75 -18.9671 -17
      vertex 154.1 -21.825 -13.5
    endloop
  endfacet
  facet normal 0.866026 0.499999 0
    outer loop
      vertex 154.1 -21.825 -17
      vertex 155.75 -24.6829 -13.5
      vertex 155.75 -24.6829 -17
    endloop
  endfacet
  facet normal 0 0 -1
    outer loop
      vertex 155.75 -18.9671 -13.5
      vertex 156.906 -20.3033 -13.5
      vertex 156.106 -20.8845 -13.5
    endloop
  endfacet
  facet normal 0 0 -1
    outer loop
      vertex 155.75 -18.9671 -13.5
      vertex 159.05 -18.9671 -13.5
      vertex 156.906 -20.3033 -13.5
    endloop
  endfacet
  facet normal 0 -1 0
    outer loop
      vertex 155.75 -18.9671 -17
      vertex 159.05 -18.9671 -13.5
      vertex 155.75 -18.9671 -13.5
    endloop
  endfacet
  facet normal 0 -1 -0
    outer loop
      vertex 155.75 -18.9671 -17
      vertex 159.05 -18.9671 -17
      vertex 159.05 -18.9671 -13.5
    endloop
  endfacet
  facet normal 0 0 -1
    outer loop
      vertex 155.75 -18.9671 -17
      vertex 183.4 -2.246e-14 -17
      vertex 159.05 -18.9671 -17
    endloop
  endfacet
  facet normal -0 0 -1
    outer loop
      vertex 155.75 -24.6829 -13.5
      vertex 156.106 -22.7655 -13.5
      vertex 156.906 -23.3467 -13.5
    endloop
  endfacet
  facet normal 0 0 -1
    outer loop
      vertex 155.75 -24.6829 -13.5
      vertex 156.906 -23.3467 -13.5
      vertex 159.05 -24.6829 -13.5
    endloop
  endfacet
  facet normal 0 1 -0
    outer loop
      vertex 155.75 -24.6829 -13.5
      vertex 159.05 -24.6829 -13.5
      vertex 159.05 -24.6829 -17
    endloop
  endfacet
  facet normal 0 1 0
    outer loop
      vertex 155.75 -24.6829 -17
      vertex 155.75 -24.6829 -13.5
      vertex 159.05 -24.6829 -17
    endloop
  endfacet
  facet normal 0 0 -1
    outer loop
      vertex 155.75 -24.6829 -17
      vertex 159.05 -24.6829 -17
      vertex 183.4 -43.65 -17
    endloop
  endfacet
  facet normal 0.951057 -0.309017 0
    outer loop
      vertex 155.8 -21.825 -1.908e-14
      vertex 156.106 -20.8845 -13.5
      vertex 156.106 -20.8845 -1.91174e-14
    endloop
  endfacet
  facet normal 0.951057 0.309017 0
    outer loop
      vertex 155.8 -21.825 -13.5
      vertex 155.8 -21.825 -1.908e-14
      vertex 156.106 -22.7655 -1.91174e-14
    endloop
  endfacet
  facet normal 0.951057 -0.309017 0
    outer loop
      vertex 155.8 -21.825 -13.5
      vertex 156.106 -20.8845 -13.5
      vertex 155.8 -21.825 -1.908e-14
    endloop
  endfacet
  facet normal 0.951057 0.309017 0
    outer loop
      vertex 155.8 -21.825 -13.5
      vertex 156.106 -22.7655 -1.91174e-14
      vertex 156.106 -22.7655 -13.5
    endloop
  endfacet
  facet normal 0.587784 -0.809018 0
    outer loop
      vertex 156.106 -20.8845 -13.5
      vertex 156.906 -20.3033 -1.92154e-14
      vertex 156.106 -20.8845 -1.91174e-14
    endloop
  endfacet
  facet normal 0.587784 -0.809018 0
    outer loop
      vertex 156.106 -20.8845 -13.5
      vertex 156.906 -20.3033 -13.5
      vertex 156.906 -20.3033 -1.92154e-14
    endloop
  endfacet
  facet normal 0.587784 0.809018 -0
    outer loop
      vertex 156.106 -22.7655 -1.91174e-14
      vertex 156.906 -23.3467 -1.92154e-14
      vertex 156.906 -23.3467 -13.5
    endloop
  endfacet
  facet normal 0.587784 0.809018 0
    outer loop
      vertex 156.106 -22.7655 -13.5
      vertex 156.106 -22.7655 -1.91174e-14
      vertex 156.906 -23.3467 -13.5
    endloop
  endfacet
  facet normal 1.22465e-16 1.63207e-22 1
    outer loop
      vertex 156.906 -20.3033 -1.92154e-14
      vertex 157.894 -20.3033 -1.93365e-14
      vertex 209.4 10 -2.56441e-14
    endloop
  endfacet
  facet normal 0 -1 0
    outer loop
      vertex 156.906 -20.3033 -13.5
      vertex 157.894 -20.3033 -1.93365e-14
      vertex 156.906 -20.3033 -1.92154e-14
    endloop
  endfacet
  facet normal 0 -1 -0
    outer loop
      vertex 156.906 -20.3033 -13.5
      vertex 157.894 -20.3033 -13.5
      vertex 157.894 -20.3033 -1.93365e-14
    endloop
  endfacet
  facet normal 0 0 -1
    outer loop
      vertex 156.906 -20.3033 -13.5
      vertex 159.05 -18.9671 -13.5
      vertex 157.894 -20.3033 -13.5
    endloop
  endfacet
  facet normal 0 1 -0
    outer loop
      vertex 156.906 -23.3467 -1.92154e-14
      vertex 157.894 -23.3467 -1.93365e-14
      vertex 157.894 -23.3467 -13.5
    endloop
  endfacet
  facet normal 1.22465e-16 -1.63207e-22 1
    outer loop
      vertex 156.906 -23.3467 -1.92154e-14
      vertex 209.4 -53.65 -2.56441e-14
      vertex 157.894 -23.3467 -1.93365e-14
    endloop
  endfacet
  facet normal 0 1 0
    outer loop
      vertex 156.906 -23.3467 -13.5
      vertex 156.906 -23.3467 -1.92154e-14
      vertex 157.894 -23.3467 -13.5
    endloop
  endfacet
  facet normal 0 0 -1
    outer loop
      vertex 156.906 -23.3467 -13.5
      vertex 157.894 -23.3467 -13.5
      vertex 159.05 -24.6829 -13.5
    endloop
  endfacet
  facet normal 1.22465e-16 -1.30785e-21 1
    outer loop
      vertex 157.894 -20.3033 -1.93365e-14
      vertex 158.694 -20.8845 -1.94345e-14
      vertex 194.73 -19.8853 -2.38476e-14
    endloop
  endfacet
  facet normal 1.22465e-16 -2.58577e-23 1
    outer loop
      vertex 157.894 -20.3033 -1.93365e-14
      vertex 194.73 -19.8853 -2.38476e-14
      vertex 209.4 10 -2.56441e-14
    endloop
  endfacet
  facet normal -0.587784 -0.809018 0
    outer loop
      vertex 157.894 -20.3033 -13.5
      vertex 158.694 -20.8845 -1.94345e-14
      vertex 157.894 -20.3033 -1.93365e-14
    endloop
  endfacet
  facet normal -0.587784 -0.809018 -0
    outer loop
      vertex 157.894 -20.3033 -13.5
      vertex 158.694 -20.8845 -13.5
      vertex 158.694 -20.8845 -1.94345e-14
    endloop
  endfacet
  facet normal 0 0 -1
    outer loop
      vertex 157.894 -20.3033 -13.5
      vertex 159.05 -18.9671 -13.5
      vertex 158.694 -20.8845 -13.5
    endloop
  endfacet
  facet normal -0.587784 0.809018 0
    outer loop
      vertex 157.894 -23.3467 -1.93365e-14
      vertex 158.694 -22.7655 -1.94345e-14
      vertex 158.694 -22.7655 -13.5
    endloop
  endfacet
  facet normal 1.22465e-16 1.30785e-21 1
    outer loop
      vertex 157.894 -23.3467 -1.93365e-14
      vertex 194.73 -23.7647 -2.38476e-14
      vertex 158.694 -22.7655 -1.94345e-14
    endloop
  endfacet
  facet normal 1.22465e-16 2.58577e-23 1
    outer loop
      vertex 157.894 -23.3467 -1.93365e-14
      vertex 209.4 -53.65 -2.56441e-14
      vertex 194.73 -23.7647 -2.38476e-14
    endloop
  endfacet
  facet normal -0.587784 0.809018 0
    outer loop
      vertex 157.894 -23.3467 -13.5
      vertex 157.894 -23.3467 -1.93365e-14
      vertex 158.694 -22.7655 -13.5
    endloop
  endfacet
  facet normal 0 0 -1
    outer loop
      vertex 157.894 -23.3467 -13.5
      vertex 158.694 -22.7655 -13.5
      vertex 159.05 -24.6829 -13.5
    endloop
  endfacet
  facet normal 1.22465e-16 -9.71548e-23 1
    outer loop
      vertex 158.694 -20.8845 -1.94345e-14
      vertex 159 -21.825 -1.94719e-14
      vertex 194.1 -21.825 -2.37704e-14
    endloop
  endfacet
  facet normal -0.951057 -0.309017 0
    outer loop
      vertex 158.694 -20.8845 -1.94345e-14
      vertex 159 -21.825 -13.5
      vertex 159 -21.825 -1.94719e-14
    endloop
  endfacet
  facet normal 1.22465e-16 1.01716e-21 1
    outer loop
      vertex 158.694 -20.8845 -1.94345e-14
      vertex 194.1 -21.825 -2.37704e-14
      vertex 194.73 -19.8853 -2.38476e-14
    endloop
  endfacet
  facet normal -0.951057 -0.309017 0
    outer loop
      vertex 158.694 -20.8845 -13.5
      vertex 159 -21.825 -13.5
      vertex 158.694 -20.8845 -1.94345e-14
    endloop
  endfacet
  facet normal 0 0 -1
    outer loop
      vertex 158.694 -20.8845 -13.5
      vertex 159.05 -18.9671 -13.5
      vertex 160.7 -21.825 -13.5
    endloop
  endfacet
  facet normal 0 0 -1
    outer loop
      vertex 158.694 -20.8845 -13.5
      vertex 160.7 -21.825 -13.5
      vertex 159 -21.825 -13.5
    endloop
  endfacet
  facet normal 1.22465e-16 9.71548e-23 1
    outer loop
      vertex 158.694 -22.7655 -1.94345e-14
      vertex 194.1 -21.825 -2.37704e-14
      vertex 159 -21.825 -1.94719e-14
    endloop
  endfacet
  facet normal 1.22465e-16 -1.01717e-21 1
    outer loop
      vertex 158.694 -22.7655 -1.94345e-14
      vertex 194.73 -23.7647 -2.38476e-14
      vertex 194.1 -21.825 -2.37704e-14
    endloop
  endfacet
  facet normal -0.951057 0.309017 0
    outer loop
      vertex 158.694 -22.7655 -13.5
      vertex 158.694 -22.7655 -1.94345e-14
      vertex 159 -21.825 -1.94719e-14
    endloop
  endfacet
  facet normal -0.951057 0.309017 0
    outer loop
      vertex 158.694 -22.7655 -13.5
      vertex 159 -21.825 -1.94719e-14
      vertex 159 -21.825 -13.5
    endloop
  endfacet
  facet normal -0 0 -1
    outer loop
      vertex 158.694 -22.7655 -13.5
      vertex 159 -21.825 -13.5
      vertex 160.7 -21.825 -13.5
    endloop
  endfacet
  facet normal 0 0 -1
    outer loop
      vertex 158.694 -22.7655 -13.5
      vertex 160.7 -21.825 -13.5
      vertex 159.05 -24.6829 -13.5
    endloop
  endfacet
  facet normal -0.866026 -0.499998 0
    outer loop
      vertex 159.05 -18.9671 -13.5
      vertex 160.7 -21.825 -17
      vertex 160.7 -21.825 -13.5
    endloop
  endfacet
  facet normal -0.866026 -0.499998 0
    outer loop
      vertex 159.05 -18.9671 -17
      vertex 160.7 -21.825 -17
      vertex 159.05 -18.9671 -13.5
    endloop
  endfacet
  facet normal 0 0 -1
    outer loop
      vertex 159.05 -18.9671 -17
      vertex 183.4 -2.246e-14 -17
      vertex 160.7 -21.825 -17
    endloop
  endfacet
  facet normal -0.866026 0.499999 0
    outer loop
      vertex 159.05 -24.6829 -17
      vertex 159.05 -24.6829 -13.5
      vertex 160.7 -21.825 -13.5
    endloop
  endfacet
  facet normal -0.866026 0.499999 0
    outer loop
      vertex 159.05 -24.6829 -17
      vertex 160.7 -21.825 -13.5
      vertex 160.7 -21.825 -17
    endloop
  endfacet
  facet normal 0 0 -1
    outer loop
      vertex 159.05 -24.6829 -17
      vertex 160.7 -21.825 -17
      vertex 183.4 -43.65 -17
    endloop
  endfacet
  facet normal 0 0 -1
    outer loop
      vertex 160.7 -21.825 -17
      vertex 183.4 -2.246e-14 -17
      vertex 183.4 -43.65 -17
    endloop
  endfacet
  facet normal 0 0 -1
    outer loop
      vertex 183.4 -2.246e-14 -22
      vertex 195.75 -18.9671 -22
      vertex 194.1 -21.825 -22
    endloop
  endfacet
  facet normal 0 0 -1
    outer loop
      vertex 183.4 -2.246e-14 -22
      vertex 199.05 -18.9671 -22
      vertex 195.75 -18.9671 -22
    endloop
  endfacet
  facet normal 0 0 -1
    outer loop
      vertex 183.4 -2.246e-14 -22
      vertex 209.4 10 -22
      vertex 199.05 -18.9671 -22
    endloop
  endfacet
  facet normal -1 0 0
    outer loop
      vertex 183.4 -43.65 -22
      vertex 183.4 -2.246e-14 -17
      vertex 183.4 -2.246e-14 -22
    endloop
  endfacet
  facet normal 0 0 -1
    outer loop
      vertex 183.4 -43.65 -22
      vertex 183.4 -2.246e-14 -22
      vertex 194.1 -21.825 -22
    endloop
  endfacet
  facet normal -1 -0 0
    outer loop
      vertex 183.4 -43.65 -22
      vertex 183.4 -43.65 -17
      vertex 183.4 -2.246e-14 -17
    endloop
  endfacet
  facet normal -0 0 -1
    outer loop
      vertex 183.4 -43.65 -22
      vertex 194.1 -21.825 -22
      vertex 195.75 -24.6829 -22
    endloop
  endfacet
  facet normal -0 0 -1
    outer loop
      vertex 183.4 -43.65 -22
      vertex 195.75 -24.6829 -22
      vertex 199.05 -24.6829 -22
    endloop
  endfacet
  facet normal 0 0 -1
    outer loop
      vertex 183.4 -43.65 -22
      vertex 199.05 -24.6829 -22
      vertex 209.4 -53.65 -22
    endloop
  endfacet
  facet normal 0.951058 0.309013 0
    outer loop
      vertex 194.1 -21.825 -1.5
      vertex 194.1 -21.825 -2.37704e-14
      vertex 194.73 -23.7647 -2.38476e-14
    endloop
  endfacet
  facet normal 0.951058 -0.309012 0
    outer loop
      vertex 194.1 -21.825 -1.5
      vertex 194.73 -19.8853 -1.5
      vertex 194.1 -21.825 -2.37704e-14
    endloop
  endfacet
  facet normal 0 0 1
    outer loop
      vertex 194.1 -21.825 -1.5
      vertex 194.73 -23.7647 -1.5
      vertex 195.8 -21.825 -1.5
    endloop
  endfacet
  facet normal 0.951058 0.309013 0
    outer loop
      vertex 194.1 -21.825 -1.5
      vertex 194.73 -23.7647 -2.38476e-14
      vertex 194.73 -23.7647 -1.5
    endloop
  endfacet
  facet normal 0 0 1
    outer loop
      vertex 194.1 -21.825 -1.5
      vertex 195.8 -21.825 -1.5
      vertex 194.73 -19.8853 -1.5
    endloop
  endfacet
  facet normal -0 0 -1
    outer loop
      vertex 194.1 -21.825 -19.5
      vertex 195.75 -18.9671 -19.5
      vertex 196.106 -20.8845 -19.5
    endloop
  endfacet
  facet normal 0.866026 -0.499998 0
    outer loop
      vertex 194.1 -21.825 -19.5
      vertex 195.75 -18.9671 -22
      vertex 195.75 -18.9671 -19.5
    endloop
  endfacet
  facet normal 0 0 -1
    outer loop
      vertex 194.1 -21.825 -19.5
      vertex 195.8 -21.825 -19.5
      vertex 196.106 -22.7655 -19.5
    endloop
  endfacet
  facet normal 0 0 -1
    outer loop
      vertex 194.1 -21.825 -19.5
      vertex 196.106 -20.8845 -19.5
      vertex 195.8 -21.825 -19.5
    endloop
  endfacet
  facet normal 0 0 -1
    outer loop
      vertex 194.1 -21.825 -19.5
      vertex 196.106 -22.7655 -19.5
      vertex 195.75 -24.6829 -19.5
    endloop
  endfacet
  facet normal 0.951058 -0.309012 0
    outer loop
      vertex 194.1 -21.825 -2.37704e-14
      vertex 194.73 -19.8853 -1.5
      vertex 194.73 -19.8853 -2.38476e-14
    endloop
  endfacet
  facet normal 0.866026 0.499999 0
    outer loop
      vertex 194.1 -21.825 -22
      vertex 194.1 -21.825 -19.5
      vertex 195.75 -24.6829 -19.5
    endloop
  endfacet
  facet normal 0.866026 -0.499998 0
    outer loop
      vertex 194.1 -21.825 -22
      vertex 195.75 -18.9671 -22
      vertex 194.1 -21.825 -19.5
    endloop
  endfacet
  facet normal 0.866026 0.499999 0
    outer loop
      vertex 194.1 -21.825 -22
      vertex 195.75 -24.6829 -19.5
      vertex 195.75 -24.6829 -22
    endloop
  endfacet
  facet normal 0 0 1
    outer loop
      vertex 194.73 -19.8853 -1.5
      vertex 195.8 -21.825 -1.5
      vertex 196.106 -20.8845 -1.5
    endloop
  endfacet
  facet normal -0 0 1
    outer loop
      vertex 194.73 -19.8853 -1.5
      vertex 196.106 -20.8845 -1.5
      vertex 196.38 -18.6865 -1.5
    endloop
  endfacet
  facet normal 0.587783 -0.809019 0
    outer loop
      vertex 194.73 -19.8853 -1.5
      vertex 196.38 -18.6865 -1.5
      vertex 196.38 -18.6865 -2.40496e-14
    endloop
  endfacet
  facet normal 0.587783 -0.809019 0
    outer loop
      vertex 194.73 -19.8853 -1.5
      vertex 196.38 -18.6865 -2.40496e-14
      vertex 194.73 -19.8853 -2.38476e-14
    endloop
  endfacet
  facet normal 1.22463e-16 6.09717e-22 1
    outer loop
      vertex 194.73 -19.8853 -2.38476e-14
      vertex 196.38 -18.6865 -2.40496e-14
      vertex 209.4 10 -2.56441e-14
    endloop
  endfacet
  facet normal 0.587783 0.809019 0
    outer loop
      vertex 194.73 -23.7647 -1.5
      vertex 194.73 -23.7647 -2.38476e-14
      vertex 196.38 -24.9635 -1.5
    endloop
  endfacet
  facet normal 0 0 1
    outer loop
      vertex 194.73 -23.7647 -1.5
      vertex 196.106 -22.7655 -1.5
      vertex 195.8 -21.825 -1.5
    endloop
  endfacet
  facet normal 0 0 1
    outer loop
      vertex 194.73 -23.7647 -1.5
      vertex 196.38 -24.9635 -1.5
      vertex 196.106 -22.7655 -1.5
    endloop
  endfacet
  facet normal 0.587783 0.809019 -0
    outer loop
      vertex 194.73 -23.7647 -2.38476e-14
      vertex 196.38 -24.9635 -2.40496e-14
      vertex 196.38 -24.9635 -1.5
    endloop
  endfacet
  facet normal 1.22463e-16 -6.09717e-22 1
    outer loop
      vertex 194.73 -23.7647 -2.38476e-14
      vertex 209.4 -53.65 -2.56441e-14
      vertex 196.38 -24.9635 -2.40496e-14
    endloop
  endfacet
  facet normal 0 0 -1
    outer loop
      vertex 195.75 -18.9671 -19.5
      vertex 196.906 -20.3033 -19.5
      vertex 196.106 -20.8845 -19.5
    endloop
  endfacet
  facet normal 0 0 -1
    outer loop
      vertex 195.75 -18.9671 -19.5
      vertex 199.05 -18.9671 -19.5
      vertex 196.906 -20.3033 -19.5
    endloop
  endfacet
  facet normal 0 -1 0
    outer loop
      vertex 195.75 -18.9671 -22
      vertex 199.05 -18.9671 -19.5
      vertex 195.75 -18.9671 -19.5
    endloop
  endfacet
  facet normal 0 -1 -0
    outer loop
      vertex 195.75 -18.9671 -22
      vertex 199.05 -18.9671 -22
      vertex 199.05 -18.9671 -19.5
    endloop
  endfacet
  facet normal -0 0 -1
    outer loop
      vertex 195.75 -24.6829 -19.5
      vertex 196.106 -22.7655 -19.5
      vertex 196.906 -23.3467 -19.5
    endloop
  endfacet
  facet normal 0 0 -1
    outer loop
      vertex 195.75 -24.6829 -19.5
      vertex 196.906 -23.3467 -19.5
      vertex 199.05 -24.6829 -19.5
    endloop
  endfacet
  facet normal 0 1 -0
    outer loop
      vertex 195.75 -24.6829 -19.5
      vertex 199.05 -24.6829 -19.5
      vertex 199.05 -24.6829 -22
    endloop
  endfacet
  facet normal 0 1 0
    outer loop
      vertex 195.75 -24.6829 -22
      vertex 195.75 -24.6829 -19.5
      vertex 199.05 -24.6829 -22
    endloop
  endfacet
  facet normal 0.951057 -0.309017 0
    outer loop
      vertex 195.8 -21.825 -1.5
      vertex 196.106 -20.8845 -19.5
      vertex 196.106 -20.8845 -1.5
    endloop
  endfacet
  facet normal 0.951057 0.309017 0
    outer loop
      vertex 195.8 -21.825 -19.5
      vertex 195.8 -21.825 -1.5
      vertex 196.106 -22.7655 -1.5
    endloop
  endfacet
  facet normal 0.951057 -0.309017 0
    outer loop
      vertex 195.8 -21.825 -19.5
      vertex 196.106 -20.8845 -19.5
      vertex 195.8 -21.825 -1.5
    endloop
  endfacet
  facet normal 0.951057 0.309017 0
    outer loop
      vertex 195.8 -21.825 -19.5
      vertex 196.106 -22.7655 -1.5
      vertex 196.106 -22.7655 -19.5
    endloop
  endfacet
  facet normal 0 0 1
    outer loop
      vertex 196.106 -20.8845 -1.5
      vertex 196.906 -20.3033 -1.5
      vertex 196.38 -18.6865 -1.5
    endloop
  endfacet
  facet normal 0.587784 -0.809018 0
    outer loop
      vertex 196.106 -20.8845 -19.5
      vertex 196.906 -20.3033 -1.5
      vertex 196.106 -20.8845 -1.5
    endloop
  endfacet
  facet normal 0.587784 -0.809018 0
    outer loop
      vertex 196.106 -20.8845 -19.5
      vertex 196.906 -20.3033 -19.5
      vertex 196.906 -20.3033 -1.5
    endloop
  endfacet
  facet normal 0 0 1
    outer loop
      vertex 196.106 -22.7655 -1.5
      vertex 196.38 -24.9635 -1.5
      vertex 196.906 -23.3467 -1.5
    endloop
  endfacet
  facet normal 0.587784 0.809018 -0
    outer loop
      vertex 196.106 -22.7655 -1.5
      vertex 196.906 -23.3467 -1.5
      vertex 196.906 -23.3467 -19.5
    endloop
  endfacet
  facet normal 0.587784 0.809018 0
    outer loop
      vertex 196.106 -22.7655 -19.5
      vertex 196.106 -22.7655 -1.5
      vertex 196.906 -23.3467 -19.5
    endloop
  endfacet
  facet normal -0 0 1
    outer loop
      vertex 196.38 -18.6865 -1.5
      vertex 196.906 -20.3033 -1.5
      vertex 198.42 -18.6865 -1.5
    endloop
  endfacet
  facet normal 0 -1 -0
    outer loop
      vertex 196.38 -18.6865 -1.5
      vertex 198.42 -18.6865 -1.5
      vertex 198.42 -18.6865 -2.42994e-14
    endloop
  endfacet
  facet normal 0 -1 0
    outer loop
      vertex 196.38 -18.6865 -1.5
      vertex 198.42 -18.6865 -2.42994e-14
      vertex 196.38 -18.6865 -2.40496e-14
    endloop
  endfacet
  facet normal 1.22465e-16 -1.12802e-22 1
    outer loop
      vertex 196.38 -18.6865 -2.40496e-14
      vertex 198.42 -18.6865 -2.42994e-14
      vertex 209.4 10 -2.56441e-14
    endloop
  endfacet
  facet normal 0 1 0
    outer loop
      vertex 196.38 -24.9635 -1.5
      vertex 196.38 -24.9635 -2.40496e-14
      vertex 198.42 -24.9635 -1.5
    endloop
  endfacet
  facet normal 0 0 1
    outer loop
      vertex 196.38 -24.9635 -1.5
      vertex 198.42 -24.9635 -1.5
      vertex 196.906 -23.3467 -1.5
    endloop
  endfacet
  facet normal 0 1 -0
    outer loop
      vertex 196.38 -24.9635 -2.40496e-14
      vertex 198.42 -24.9635 -2.42994e-14
      vertex 198.42 -24.9635 -1.5
    endloop
  endfacet
  facet normal 1.22465e-16 1.12802e-22 1
    outer loop
      vertex 196.38 -24.9635 -2.40496e-14
      vertex 209.4 -53.65 -2.56441e-14
      vertex 198.42 -24.9635 -2.42994e-14
    endloop
  endfacet
  facet normal 0 0 1
    outer loop
      vertex 196.906 -20.3033 -1.5
      vertex 197.894 -20.3033 -1.5
      vertex 198.42 -18.6865 -1.5
    endloop
  endfacet
  facet normal 0 -1 0
    outer loop
      vertex 196.906 -20.3033 -19.5
      vertex 197.894 -20.3033 -1.5
      vertex 196.906 -20.3033 -1.5
    endloop
  endfacet
  facet normal 0 -1 -0
    outer loop
      vertex 196.906 -20.3033 -19.5
      vertex 197.894 -20.3033 -19.5
      vertex 197.894 -20.3033 -1.5
    endloop
  endfacet
  facet normal 0 0 -1
    outer loop
      vertex 196.906 -20.3033 -19.5
      vertex 199.05 -18.9671 -19.5
      vertex 197.894 -20.3033 -19.5
    endloop
  endfacet
  facet normal 0 1 -0
    outer loop
      vertex 196.906 -23.3467 -1.5
      vertex 197.894 -23.3467 -1.5
      vertex 197.894 -23.3467 -19.5
    endloop
  endfacet
  facet normal -0 0 1
    outer loop
      vertex 196.906 -23.3467 -1.5
      vertex 198.42 -24.9635 -1.5
      vertex 197.894 -23.3467 -1.5
    endloop
  endfacet
  facet normal 0 1 0
    outer loop
      vertex 196.906 -23.3467 -19.5
      vertex 196.906 -23.3467 -1.5
      vertex 197.894 -23.3467 -19.5
    endloop
  endfacet
  facet normal 0 0 -1
    outer loop
      vertex 196.906 -23.3467 -19.5
      vertex 197.894 -23.3467 -19.5
      vertex 199.05 -24.6829 -19.5
    endloop
  endfacet
  facet normal 0 0 1
    outer loop
      vertex 197.894 -20.3033 -1.5
      vertex 198.694 -20.8845 -1.5
      vertex 198.42 -18.6865 -1.5
    endloop
  endfacet
  facet normal -0.587784 -0.809018 0
    outer loop
      vertex 197.894 -20.3033 -19.5
      vertex 198.694 -20.8845 -1.5
      vertex 197.894 -20.3033 -1.5
    endloop
  endfacet
  facet normal -0.587784 -0.809018 -0
    outer loop
      vertex 197.894 -20.3033 -19.5
      vertex 198.694 -20.8845 -19.5
      vertex 198.694 -20.8845 -1.5
    endloop
  endfacet
  facet normal 0 0 -1
    outer loop
      vertex 197.894 -20.3033 -19.5
      vertex 199.05 -18.9671 -19.5
      vertex 198.694 -20.8845 -19.5
    endloop
  endfacet
  facet normal -0 0 1
    outer loop
      vertex 197.894 -23.3467 -1.5
      vertex 198.42 -24.9635 -1.5
      vertex 198.694 -22.7655 -1.5
    endloop
  endfacet
  facet normal -0.587784 0.809018 0
    outer loop
      vertex 197.894 -23.3467 -1.5
      vertex 198.694 -22.7655 -1.5
      vertex 198.694 -22.7655 -19.5
    endloop
  endfacet
  facet normal -0.587784 0.809018 0
    outer loop
      vertex 197.894 -23.3467 -19.5
      vertex 197.894 -23.3467 -1.5
      vertex 198.694 -22.7655 -19.5
    endloop
  endfacet
  facet normal 0 0 -1
    outer loop
      vertex 197.894 -23.3467 -19.5
      vertex 198.694 -22.7655 -19.5
      vertex 199.05 -24.6829 -19.5
    endloop
  endfacet
  facet normal 0 0 1
    outer loop
      vertex 198.42 -18.6865 -1.5
      vertex 198.694 -20.8845 -1.5
      vertex 200.07 -19.8853 -1.5
    endloop
  endfacet
  facet normal -0.587783 -0.809019 -0
    outer loop
      vertex 198.42 -18.6865 -1.5
      vertex 200.07 -19.8853 -1.5
      vertex 200.07 -19.8853 -2.45015e-14
    endloop
  endfacet
  facet normal -0.587783 -0.809019 0
    outer loop
      vertex 198.42 -18.6865 -1.5
      vertex 200.07 -19.8853 -2.45015e-14
      vertex 198.42 -18.6865 -2.42994e-14
    endloop
  endfacet
  facet normal 1.22464e-16 2.55832e-22 1
    outer loop
      vertex 198.42 -18.6865 -2.42994e-14
      vertex 200.07 -19.8853 -2.45015e-14
      vertex 209.4 10 -2.56441e-14
    endloop
  endfacet
  facet normal -0.587783 0.809019 0
    outer loop
      vertex 198.42 -24.9635 -1.5
      vertex 198.42 -24.9635 -2.42994e-14
      vertex 200.07 -23.7647 -1.5
    endloop
  endfacet
  facet normal 0 0 1
    outer loop
      vertex 198.42 -24.9635 -1.5
      vertex 200.07 -23.7647 -1.5
      vertex 198.694 -22.7655 -1.5
    endloop
  endfacet
  facet normal -0.587783 0.809019 0
    outer loop
      vertex 198.42 -24.9635 -2.42994e-14
      vertex 200.07 -23.7647 -2.45015e-14
      vertex 200.07 -23.7647 -1.5
    endloop
  endfacet
  facet normal 1.22464e-16 -2.55832e-22 1
    outer loop
      vertex 198.42 -24.9635 -2.42994e-14
      vertex 209.4 -53.65 -2.56441e-14
      vertex 200.07 -23.7647 -2.45015e-14
    endloop
  endfacet
  facet normal 0 0 1
    outer loop
      vertex 198.694 -20.8845 -1.5
      vertex 199 -21.825 -1.5
      vertex 200.07 -19.8853 -1.5
    endloop
  endfacet
  facet normal -0.951057 -0.309017 0
    outer loop
      vertex 198.694 -20.8845 -1.5
      vertex 199 -21.825 -19.5
      vertex 199 -21.825 -1.5
    endloop
  endfacet
  facet normal -0.951057 -0.309017 0
    outer loop
      vertex 198.694 -20.8845 -19.5
      vertex 199 -21.825 -19.5
      vertex 198.694 -20.8845 -1.5
    endloop
  endfacet
  facet normal 0 0 -1
    outer loop
      vertex 198.694 -20.8845 -19.5
      vertex 199.05 -18.9671 -19.5
      vertex 200.7 -21.825 -19.5
    endloop
  endfacet
  facet normal 0 0 -1
    outer loop
      vertex 198.694 -20.8845 -19.5
      vertex 200.7 -21.825 -19.5
      vertex 199 -21.825 -19.5
    endloop
  endfacet
  facet normal -0 0 1
    outer loop
      vertex 198.694 -22.7655 -1.5
      vertex 200.07 -23.7647 -1.5
      vertex 199 -21.825 -1.5
    endloop
  endfacet
  facet normal -0.951057 0.309017 0
    outer loop
      vertex 198.694 -22.7655 -19.5
      vertex 198.694 -22.7655 -1.5
      vertex 199 -21.825 -1.5
    endloop
  endfacet
  facet normal -0.951057 0.309017 0
    outer loop
      vertex 198.694 -22.7655 -19.5
      vertex 199 -21.825 -1.5
      vertex 199 -21.825 -19.5
    endloop
  endfacet
  facet normal -0 0 -1
    outer loop
      vertex 198.694 -22.7655 -19.5
      vertex 199 -21.825 -19.5
      vertex 200.7 -21.825 -19.5
    endloop
  endfacet
  facet normal 0 0 -1
    outer loop
      vertex 198.694 -22.7655 -19.5
      vertex 200.7 -21.825 -19.5
      vertex 199.05 -24.6829 -19.5
    endloop
  endfacet
  facet normal 0 0 1
    outer loop
      vertex 199 -21.825 -1.5
      vertex 200.07 -23.7647 -1.5
      vertex 200.7 -21.825 -1.5
    endloop
  endfacet
  facet normal 0 0 1
    outer loop
      vertex 199 -21.825 -1.5
      vertex 200.7 -21.825 -1.5
      vertex 200.07 -19.8853 -1.5
    endloop
  endfacet
  facet normal -0.866026 -0.499998 0
    outer loop
      vertex 199.05 -18.9671 -19.5
      vertex 200.7 -21.825 -22
      vertex 200.7 -21.825 -19.5
    endloop
  endfacet
  facet normal -0.866026 -0.499998 0
    outer loop
      vertex 199.05 -18.9671 -22
      vertex 200.7 -21.825 -22
      vertex 199.05 -18.9671 -19.5
    endloop
  endfacet
  facet normal 0 0 -1
    outer loop
      vertex 199.05 -18.9671 -22
      vertex 209.4 10 -22
      vertex 200.7 -21.825 -22
    endloop
  endfacet
  facet normal -0.866026 0.499999 0
    outer loop
      vertex 199.05 -24.6829 -22
      vertex 199.05 -24.6829 -19.5
      vertex 200.7 -21.825 -19.5
    endloop
  endfacet
  facet normal -0.866026 0.499999 0
    outer loop
      vertex 199.05 -24.6829 -22
      vertex 200.7 -21.825 -19.5
      vertex 200.7 -21.825 -22
    endloop
  endfacet
  facet normal 0 0 -1
    outer loop
      vertex 199.05 -24.6829 -22
      vertex 200.7 -21.825 -22
      vertex 209.4 -53.65 -22
    endloop
  endfacet
  facet normal -0.951058 -0.309012 0
    outer loop
      vertex 200.07 -19.8853 -1.5
      vertex 200.7 -21.825 -1.5
      vertex 200.07 -19.8853 -2.45015e-14
    endloop
  endfacet
  facet normal -0.951058 -0.309012 0
    outer loop
      vertex 200.07 -19.8853 -2.45015e-14
      vertex 200.7 -21.825 -1.5
      vertex 200.7 -21.825 -2.45787e-14
    endloop
  endfacet
  facet normal 1.22466e-16 -4.66045e-22 1
    outer loop
      vertex 200.07 -19.8853 -2.45015e-14
      vertex 200.7 -21.825 -2.45787e-14
      vertex 209.4 10 -2.56441e-14
    endloop
  endfacet
  facet normal -0.951058 0.309013 0
    outer loop
      vertex 200.07 -23.7647 -1.5
      vertex 200.07 -23.7647 -2.45015e-14
      vertex 200.7 -21.825 -2.45787e-14
    endloop
  endfacet
  facet normal -0.951058 0.309013 0
    outer loop
      vertex 200.07 -23.7647 -1.5
      vertex 200.7 -21.825 -2.45787e-14
      vertex 200.7 -21.825 -1.5
    endloop
  endfacet
  facet normal 1.22466e-16 4.66045e-22 1
    outer loop
      vertex 200.07 -23.7647 -2.45015e-14
      vertex 209.4 -53.65 -2.56441e-14
      vertex 200.7 -21.825 -2.45787e-14
    endloop
  endfacet
  facet normal 1.22465e-16 0 1
    outer loop
      vertex 200.7 -21.825 -2.45787e-14
      vertex 209.4 -53.65 -2.56441e-14
      vertex 209.4 10 -2.56441e-14
    endloop
  endfacet
  facet normal 0 0 -1
    outer loop
      vertex 200.7 -21.825 -22
      vertex 209.4 10 -22
      vertex 209.4 -53.65 -22
    endloop
  endfacet
  facet normal 1 -0 0
    outer loop
      vertex 209.4 -53.65 -2.56441e-14
      vertex 209.4 10 -22
      vertex 209.4 10 -2.56441e-14
    endloop
  endfacet
  facet normal 1 0 0
    outer loop
      vertex 209.4 -53.65 -22
      vertex 209.4 10 -22
      vertex 209.4 -53.65 -2.56441e-14
    endloop
  endfacet
  facet normal 0 0 -1
    outer loop
      vertex 3.3 -21.825 -22
      vertex 36.7 -21.825 -22
      vertex 38.35 -24.6829 -22
    endloop
  endfacet
  facet normal 0 0 -1
    outer loop
      vertex 3.3 -21.825 -22
      vertex 38.35 -18.9671 -22
      vertex 36.7 -21.825 -22
    endloop
  endfacet
  facet normal 0.951057 0.309016 0
    outer loop
      vertex 36.7 -21.825 -1.5
      vertex 36.7 -21.825 -4.49445e-15
      vertex 37.3302 -23.7647 -4.57164e-15
    endloop
  endfacet
  facet normal 0.951057 -0.309016 0
    outer loop
      vertex 36.7 -21.825 -1.5
      vertex 37.3302 -19.8853 -1.5
      vertex 36.7 -21.825 -4.49445e-15
    endloop
  endfacet
  facet normal 0 0 1
    outer loop
      vertex 36.7 -21.825 -1.5
      vertex 37.3302 -23.7647 -1.5
      vertex 38.4 -21.825 -1.5
    endloop
  endfacet
  facet normal 0.951057 0.309016 0
    outer loop
      vertex 36.7 -21.825 -1.5
      vertex 37.3302 -23.7647 -4.57164e-15
      vertex 37.3302 -23.7647 -1.5
    endloop
  endfacet
  facet normal 0 0 1
    outer loop
      vertex 36.7 -21.825 -1.5
      vertex 38.4 -21.825 -1.5
      vertex 37.3302 -19.8853 -1.5
    endloop
  endfacet
  facet normal -0 0 -1
    outer loop
      vertex 36.7 -21.825 -19.5
      vertex 38.35 -18.9671 -19.5
      vertex 38.7056 -20.8845 -19.5
    endloop
  endfacet
  facet normal 0.866026 -0.499999 0
    outer loop
      vertex 36.7 -21.825 -19.5
      vertex 38.35 -18.9671 -22
      vertex 38.35 -18.9671 -19.5
    endloop
  endfacet
  facet normal 0 0 -1
    outer loop
      vertex 36.7 -21.825 -19.5
      vertex 38.4 -21.825 -19.5
      vertex 38.7056 -22.7655 -19.5
    endloop
  endfacet
  facet normal 0 0 -1
    outer loop
      vertex 36.7 -21.825 -19.5
      vertex 38.7056 -20.8845 -19.5
      vertex 38.4 -21.825 -19.5
    endloop
  endfacet
  facet normal 0 0 -1
    outer loop
      vertex 36.7 -21.825 -19.5
      vertex 38.7056 -22.7655 -19.5
      vertex 38.35 -24.6829 -19.5
    endloop
  endfacet
  facet normal 0.866026 0.5 0
    outer loop
      vertex 36.7 -21.825 -22
      vertex 36.7 -21.825 -19.5
      vertex 38.35 -24.6829 -19.5
    endloop
  endfacet
  facet normal 0.866026 -0.499999 0
    outer loop
      vertex 36.7 -21.825 -22
      vertex 38.35 -18.9671 -22
      vertex 36.7 -21.825 -19.5
    endloop
  endfacet
  facet normal 0.866026 0.5 0
    outer loop
      vertex 36.7 -21.825 -22
      vertex 38.35 -24.6829 -19.5
      vertex 38.35 -24.6829 -22
    endloop
  endfacet
  facet normal 0.951057 -0.309016 0
    outer loop
      vertex 36.7 -21.825 -4.49445e-15
      vertex 37.3302 -19.8853 -1.5
      vertex 37.3302 -19.8853 -4.57164e-15
    endloop
  endfacet
  facet normal 0 0 1
    outer loop
      vertex 37.3302 -19.8853 -1.5
      vertex 38.4 -21.825 -1.5
      vertex 38.7056 -20.8845 -1.5
    endloop
  endfacet
  facet normal -0 0 1
    outer loop
      vertex 37.3302 -19.8853 -1.5
      vertex 38.7056 -20.8845 -1.5
      vertex 38.9802 -18.6865 -1.5
    endloop
  endfacet
  facet normal 0.587785 -0.809017 0
    outer loop
      vertex 37.3302 -19.8853 -1.5
      vertex 38.9802 -18.6865 -1.5
      vertex 38.9802 -18.6865 -4.7737e-15
    endloop
  endfacet
  facet normal 0.587785 -0.809017 0
    outer loop
      vertex 37.3302 -19.8853 -1.5
      vertex 38.9802 -18.6865 -4.7737e-15
      vertex 37.3302 -19.8853 -4.57164e-15
    endloop
  endfacet
  facet normal 0.587785 0.809017 0
    outer loop
      vertex 37.3302 -23.7647 -1.5
      vertex 37.3302 -23.7647 -4.57164e-15
      vertex 38.9802 -24.9635 -1.5
    endloop
  endfacet
  facet normal 0 0 1
    outer loop
      vertex 37.3302 -23.7647 -1.5
      vertex 38.7056 -22.7655 -1.5
      vertex 38.4 -21.825 -1.5
    endloop
  endfacet
  facet normal 0 0 1
    outer loop
      vertex 37.3302 -23.7647 -1.5
      vertex 38.9802 -24.9635 -1.5
      vertex 38.7056 -22.7655 -1.5
    endloop
  endfacet
  facet normal 0.587785 0.809017 -0
    outer loop
      vertex 37.3302 -23.7647 -4.57164e-15
      vertex 38.9802 -24.9635 -4.7737e-15
      vertex 38.9802 -24.9635 -1.5
    endloop
  endfacet
  facet normal 0 0 -1
    outer loop
      vertex 38.35 -18.9671 -19.5
      vertex 39.5056 -20.3033 -19.5
      vertex 38.7056 -20.8845 -19.5
    endloop
  endfacet
  facet normal 0 0 -1
    outer loop
      vertex 38.35 -18.9671 -19.5
      vertex 41.65 -18.9671 -19.5
      vertex 39.5056 -20.3033 -19.5
    endloop
  endfacet
  facet normal 0 -1 0
    outer loop
      vertex 38.35 -18.9671 -22
      vertex 41.65 -18.9671 -19.5
      vertex 38.35 -18.9671 -19.5
    endloop
  endfacet
  facet normal 0 -1 -0
    outer loop
      vertex 38.35 -18.9671 -22
      vertex 41.65 -18.9671 -22
      vertex 41.65 -18.9671 -19.5
    endloop
  endfacet
  facet normal 0 0 -1
    outer loop
      vertex 38.35 -18.9671 -22
      vertex 54 -6.61309e-15 -22
      vertex 41.65 -18.9671 -22
    endloop
  endfacet
  facet normal -0 0 -1
    outer loop
      vertex 38.35 -24.6829 -19.5
      vertex 38.7056 -22.7655 -19.5
      vertex 39.5056 -23.3467 -19.5
    endloop
  endfacet
  facet normal 0 0 -1
    outer loop
      vertex 38.35 -24.6829 -19.5
      vertex 39.5056 -23.3467 -19.5
      vertex 41.65 -24.6829 -19.5
    endloop
  endfacet
  facet normal 0 1 -0
    outer loop
      vertex 38.35 -24.6829 -19.5
      vertex 41.65 -24.6829 -19.5
      vertex 41.65 -24.6829 -22
    endloop
  endfacet
  facet normal 0 1 0
    outer loop
      vertex 38.35 -24.6829 -22
      vertex 38.35 -24.6829 -19.5
      vertex 41.65 -24.6829 -22
    endloop
  endfacet
  facet normal 0 0 -1
    outer loop
      vertex 38.35 -24.6829 -22
      vertex 41.65 -24.6829 -22
      vertex 54 -43.65 -22
    endloop
  endfacet
  facet normal 0.951057 -0.309017 0
    outer loop
      vertex 38.4 -21.825 -1.5
      vertex 38.7056 -20.8845 -19.5
      vertex 38.7056 -20.8845 -1.5
    endloop
  endfacet
  facet normal 0.951057 0.309017 0
    outer loop
      vertex 38.4 -21.825 -19.5
      vertex 38.4 -21.825 -1.5
      vertex 38.7056 -22.7655 -1.5
    endloop
  endfacet
  facet normal 0.951057 -0.309017 0
    outer loop
      vertex 38.4 -21.825 -19.5
      vertex 38.7056 -20.8845 -19.5
      vertex 38.4 -21.825 -1.5
    endloop
  endfacet
  facet normal 0.951057 0.309017 0
    outer loop
      vertex 38.4 -21.825 -19.5
      vertex 38.7056 -22.7655 -1.5
      vertex 38.7056 -22.7655 -19.5
    endloop
  endfacet
  facet normal 0 0 1
    outer loop
      vertex 38.7056 -20.8845 -1.5
      vertex 39.5056 -20.3033 -1.5
      vertex 38.9802 -18.6865 -1.5
    endloop
  endfacet
  facet normal 0.587786 -0.809017 0
    outer loop
      vertex 38.7056 -20.8845 -19.5
      vertex 39.5056 -20.3033 -1.5
      vertex 38.7056 -20.8845 -1.5
    endloop
  endfacet
  facet normal 0.587786 -0.809017 0
    outer loop
      vertex 38.7056 -20.8845 -19.5
      vertex 39.5056 -20.3033 -19.5
      vertex 39.5056 -20.3033 -1.5
    endloop
  endfacet
  facet normal 0 0 1
    outer loop
      vertex 38.7056 -22.7655 -1.5
      vertex 38.9802 -24.9635 -1.5
      vertex 39.5056 -23.3467 -1.5
    endloop
  endfacet
  facet normal 0.587786 0.809017 -0
    outer loop
      vertex 38.7056 -22.7655 -1.5
      vertex 39.5056 -23.3467 -1.5
      vertex 39.5056 -23.3467 -19.5
    endloop
  endfacet
  facet normal 0.587786 0.809017 0
    outer loop
      vertex 38.7056 -22.7655 -19.5
      vertex 38.7056 -22.7655 -1.5
      vertex 39.5056 -23.3467 -19.5
    endloop
  endfacet
  facet normal -0 0 1
    outer loop
      vertex 38.9802 -18.6865 -1.5
      vertex 39.5056 -20.3033 -1.5
      vertex 41.0198 -18.6865 -1.5
    endloop
  endfacet
  facet normal 0 -1 -0
    outer loop
      vertex 38.9802 -18.6865 -1.5
      vertex 41.0198 -18.6865 -1.5
      vertex 41.0198 -18.6865 -5.02347e-15
    endloop
  endfacet
  facet normal 0 -1 0
    outer loop
      vertex 38.9802 -18.6865 -1.5
      vertex 41.0198 -18.6865 -5.02347e-15
      vertex 38.9802 -18.6865 -4.7737e-15
    endloop
  endfacet
  facet normal 0 1 0
    outer loop
      vertex 38.9802 -24.9635 -1.5
      vertex 38.9802 -24.9635 -4.7737e-15
      vertex 41.0198 -24.9635 -1.5
    endloop
  endfacet
  facet normal 0 0 1
    outer loop
      vertex 38.9802 -24.9635 -1.5
      vertex 41.0198 -24.9635 -1.5
      vertex 39.5056 -23.3467 -1.5
    endloop
  endfacet
  facet normal 0 1 -0
    outer loop
      vertex 38.9802 -24.9635 -4.7737e-15
      vertex 41.0198 -24.9635 -5.02347e-15
      vertex 41.0198 -24.9635 -1.5
    endloop
  endfacet
  facet normal 0 0 1
    outer loop
      vertex 39.5056 -20.3033 -1.5
      vertex 40.4944 -20.3033 -1.5
      vertex 41.0198 -18.6865 -1.5
    endloop
  endfacet
  facet normal 0 -1 0
    outer loop
      vertex 39.5056 -20.3033 -19.5
      vertex 40.4944 -20.3033 -1.5
      vertex 39.5056 -20.3033 -1.5
    endloop
  endfacet
  facet normal 0 -1 -0
    outer loop
      vertex 39.5056 -20.3033 -19.5
      vertex 40.4944 -20.3033 -19.5
      vertex 40.4944 -20.3033 -1.5
    endloop
  endfacet
  facet normal 0 0 -1
    outer loop
      vertex 39.5056 -20.3033 -19.5
      vertex 41.65 -18.9671 -19.5
      vertex 40.4944 -20.3033 -19.5
    endloop
  endfacet
  facet normal 0 1 -0
    outer loop
      vertex 39.5056 -23.3467 -1.5
      vertex 40.4944 -23.3467 -1.5
      vertex 40.4944 -23.3467 -19.5
    endloop
  endfacet
  facet normal -0 0 1
    outer loop
      vertex 39.5056 -23.3467 -1.5
      vertex 41.0198 -24.9635 -1.5
      vertex 40.4944 -23.3467 -1.5
    endloop
  endfacet
  facet normal 0 1 0
    outer loop
      vertex 39.5056 -23.3467 -19.5
      vertex 39.5056 -23.3467 -1.5
      vertex 40.4944 -23.3467 -19.5
    endloop
  endfacet
  facet normal 0 0 -1
    outer loop
      vertex 39.5056 -23.3467 -19.5
      vertex 40.4944 -23.3467 -19.5
      vertex 41.65 -24.6829 -19.5
    endloop
  endfacet
  facet normal 0 0 1
    outer loop
      vertex 40.4944 -20.3033 -1.5
      vertex 41.2944 -20.8845 -1.5
      vertex 41.0198 -18.6865 -1.5
    endloop
  endfacet
  facet normal -0.587786 -0.809017 0
    outer loop
      vertex 40.4944 -20.3033 -19.5
      vertex 41.2944 -20.8845 -1.5
      vertex 40.4944 -20.3033 -1.5
    endloop
  endfacet
  facet normal -0.587786 -0.809017 -0
    outer loop
      vertex 40.4944 -20.3033 -19.5
      vertex 41.2944 -20.8845 -19.5
      vertex 41.2944 -20.8845 -1.5
    endloop
  endfacet
  facet normal 0 0 -1
    outer loop
      vertex 40.4944 -20.3033 -19.5
      vertex 41.65 -18.9671 -19.5
      vertex 41.2944 -20.8845 -19.5
    endloop
  endfacet
  facet normal -0 0 1
    outer loop
      vertex 40.4944 -23.3467 -1.5
      vertex 41.0198 -24.9635 -1.5
      vertex 41.2944 -22.7655 -1.5
    endloop
  endfacet
  facet normal -0.587786 0.809017 0
    outer loop
      vertex 40.4944 -23.3467 -1.5
      vertex 41.2944 -22.7655 -1.5
      vertex 41.2944 -22.7655 -19.5
    endloop
  endfacet
  facet normal -0.587786 0.809017 0
    outer loop
      vertex 40.4944 -23.3467 -19.5
      vertex 40.4944 -23.3467 -1.5
      vertex 41.2944 -22.7655 -19.5
    endloop
  endfacet
  facet normal 0 0 -1
    outer loop
      vertex 40.4944 -23.3467 -19.5
      vertex 41.2944 -22.7655 -19.5
      vertex 41.65 -24.6829 -19.5
    endloop
  endfacet
  facet normal 0 0 1
    outer loop
      vertex 41.0198 -18.6865 -1.5
      vertex 41.2944 -20.8845 -1.5
      vertex 42.6698 -19.8853 -1.5
    endloop
  endfacet
  facet normal -0.587786 -0.809017 -0
    outer loop
      vertex 41.0198 -18.6865 -1.5
      vertex 42.6698 -19.8853 -1.5
      vertex 42.6698 -19.8853 -5.22554e-15
    endloop
  endfacet
  facet normal -0.587786 -0.809017 0
    outer loop
      vertex 41.0198 -18.6865 -1.5
      vertex 42.6698 -19.8853 -5.22554e-15
      vertex 41.0198 -18.6865 -5.02347e-15
    endloop
  endfacet
  facet normal 1.22465e-16 2.05993e-23 1
    outer loop
      vertex 41.0198 -18.6865 -5.02347e-15
      vertex 156.906 -20.3033 -1.92154e-14
      vertex 209.4 10 -2.56441e-14
    endloop
  endfacet
  facet normal 1.22465e-16 -3.97775e-22 1
    outer loop
      vertex 41.0198 -18.6865 -5.02347e-15
      vertex 42.6698 -19.8853 -5.22554e-15
      vertex 156.906 -20.3033 -1.92154e-14
    endloop
  endfacet
  facet normal -0.587786 0.809017 0
    outer loop
      vertex 41.0198 -24.9635 -1.5
      vertex 41.0198 -24.9635 -5.02347e-15
      vertex 42.6698 -23.7647 -1.5
    endloop
  endfacet
  facet normal 0 0 1
    outer loop
      vertex 41.0198 -24.9635 -1.5
      vertex 42.6698 -23.7647 -1.5
      vertex 41.2944 -22.7655 -1.5
    endloop
  endfacet
  facet normal 1.22465e-16 3.97775e-22 1
    outer loop
      vertex 41.0198 -24.9635 -5.02347e-15
      vertex 156.906 -23.3467 -1.92154e-14
      vertex 42.6698 -23.7647 -5.22554e-15
    endloop
  endfacet
  facet normal 1.22465e-16 -2.05993e-23 1
    outer loop
      vertex 41.0198 -24.9635 -5.02347e-15
      vertex 209.4 -53.65 -2.56441e-14
      vertex 156.906 -23.3467 -1.92154e-14
    endloop
  endfacet
  facet normal -0.587786 0.809017 0
    outer loop
      vertex 41.0198 -24.9635 -5.02347e-15
      vertex 42.6698 -23.7647 -5.22554e-15
      vertex 42.6698 -23.7647 -1.5
    endloop
  endfacet
  facet normal 0 0 1
    outer loop
      vertex 41.2944 -20.8845 -1.5
      vertex 41.6 -21.825 -1.5
      vertex 42.6698 -19.8853 -1.5
    endloop
  endfacet
  facet normal -0.951057 -0.309017 0
    outer loop
      vertex 41.2944 -20.8845 -1.5
      vertex 41.6 -21.825 -19.5
      vertex 41.6 -21.825 -1.5
    endloop
  endfacet
  facet normal -0.951057 -0.309017 0
    outer loop
      vertex 41.2944 -20.8845 -19.5
      vertex 41.6 -21.825 -19.5
      vertex 41.2944 -20.8845 -1.5
    endloop
  endfacet
  facet normal 0 0 -1
    outer loop
      vertex 41.2944 -20.8845 -19.5
      vertex 41.65 -18.9671 -19.5
      vertex 43.3 -21.825 -19.5
    endloop
  endfacet
  facet normal 0 0 -1
    outer loop
      vertex 41.2944 -20.8845 -19.5
      vertex 43.3 -21.825 -19.5
      vertex 41.6 -21.825 -19.5
    endloop
  endfacet
  facet normal -0 0 1
    outer loop
      vertex 41.2944 -22.7655 -1.5
      vertex 42.6698 -23.7647 -1.5
      vertex 41.6 -21.825 -1.5
    endloop
  endfacet
  facet normal -0.951057 0.309017 0
    outer loop
      vertex 41.2944 -22.7655 -19.5
      vertex 41.2944 -22.7655 -1.5
      vertex 41.6 -21.825 -1.5
    endloop
  endfacet
  facet normal -0.951057 0.309017 0
    outer loop
      vertex 41.2944 -22.7655 -19.5
      vertex 41.6 -21.825 -1.5
      vertex 41.6 -21.825 -19.5
    endloop
  endfacet
  facet normal -0 0 -1
    outer loop
      vertex 41.2944 -22.7655 -19.5
      vertex 41.6 -21.825 -19.5
      vertex 43.3 -21.825 -19.5
    endloop
  endfacet
  facet normal 0 0 -1
    outer loop
      vertex 41.2944 -22.7655 -19.5
      vertex 43.3 -21.825 -19.5
      vertex 41.65 -24.6829 -19.5
    endloop
  endfacet
  facet normal 0 0 1
    outer loop
      vertex 41.6 -21.825 -1.5
      vertex 42.6698 -23.7647 -1.5
      vertex 43.3 -21.825 -1.5
    endloop
  endfacet
  facet normal 0 0 1
    outer loop
      vertex 41.6 -21.825 -1.5
      vertex 43.3 -21.825 -1.5
      vertex 42.6698 -19.8853 -1.5
    endloop
  endfacet
  facet normal -0.866025 -0.5 0
    outer loop
      vertex 41.65 -18.9671 -19.5
      vertex 43.3 -21.825 -22
      vertex 43.3 -21.825 -19.5
    endloop
  endfacet
  facet normal -0.866025 -0.5 0
    outer loop
      vertex 41.65 -18.9671 -22
      vertex 43.3 -21.825 -22
      vertex 41.65 -18.9671 -19.5
    endloop
  endfacet
  facet normal 0 0 -1
    outer loop
      vertex 41.65 -18.9671 -22
      vertex 54 -6.61309e-15 -22
      vertex 43.3 -21.825 -22
    endloop
  endfacet
  facet normal -0.866025 0.5 0
    outer loop
      vertex 41.65 -24.6829 -22
      vertex 41.65 -24.6829 -19.5
      vertex 43.3 -21.825 -19.5
    endloop
  endfacet
  facet normal -0.866025 0.5 0
    outer loop
      vertex 41.65 -24.6829 -22
      vertex 43.3 -21.825 -19.5
      vertex 43.3 -21.825 -22
    endloop
  endfacet
  facet normal 0 0 -1
    outer loop
      vertex 41.65 -24.6829 -22
      vertex 43.3 -21.825 -22
      vertex 54 -43.65 -22
    endloop
  endfacet
  facet normal -0.951056 -0.309018 0
    outer loop
      vertex 42.6698 -19.8853 -1.5
      vertex 43.3 -21.825 -1.5
      vertex 42.6698 -19.8853 -5.22554e-15
    endloop
  endfacet
  facet normal 1.22465e-16 1.36682e-21 1
    outer loop
      vertex 42.6698 -19.8853 -5.22554e-15
      vertex 156.106 -20.8845 -1.91174e-14
      vertex 156.906 -20.3033 -1.92154e-14
    endloop
  endfacet
  facet normal -0.951056 -0.309018 0
    outer loop
      vertex 42.6698 -19.8853 -5.22554e-15
      vertex 43.3 -21.825 -1.5
      vertex 43.3 -21.825 -5.30272e-15
    endloop
  endfacet
  facet normal 1.22465e-16 1.45589e-22 1
    outer loop
      vertex 42.6698 -19.8853 -5.22554e-15
      vertex 43.3 -21.825 -5.30272e-15
      vertex 156.106 -20.8845 -1.91174e-14
    endloop
  endfacet
  facet normal -0.951056 0.309018 0
    outer loop
      vertex 42.6698 -23.7647 -1.5
      vertex 42.6698 -23.7647 -5.22554e-15
      vertex 43.3 -21.825 -5.30272e-15
    endloop
  endfacet
  facet normal -0.951056 0.309018 0
    outer loop
      vertex 42.6698 -23.7647 -1.5
      vertex 43.3 -21.825 -5.30272e-15
      vertex 43.3 -21.825 -1.5
    endloop
  endfacet
  facet normal 1.22465e-16 -1.45589e-22 1
    outer loop
      vertex 42.6698 -23.7647 -5.22554e-15
      vertex 156.106 -22.7655 -1.91174e-14
      vertex 43.3 -21.825 -5.30272e-15
    endloop
  endfacet
  facet normal 1.22465e-16 -1.36682e-21 1
    outer loop
      vertex 42.6698 -23.7647 -5.22554e-15
      vertex 156.906 -23.3467 -1.92154e-14
      vertex 156.106 -22.7655 -1.91174e-14
    endloop
  endfacet
  facet normal 0 0 -1
    outer loop
      vertex 43.3 -21.825 -22
      vertex 54 -6.61309e-15 -22
      vertex 54 -43.65 -22
    endloop
  endfacet
  facet normal 1.22465e-16 8.38379e-23 1
    outer loop
      vertex 43.3 -21.825 -5.30272e-15
      vertex 155.8 -21.825 -1.908e-14
      vertex 156.106 -20.8845 -1.91174e-14
    endloop
  endfacet
  facet normal 1.22465e-16 -8.38379e-23 1
    outer loop
      vertex 43.3 -21.825 -5.30272e-15
      vertex 156.106 -22.7655 -1.91174e-14
      vertex 155.8 -21.825 -1.908e-14
    endloop
  endfacet
  facet normal -0 0 -1
    outer loop
      vertex 54 -43.65 -17
      vertex 154.1 -21.825 -17
      vertex 155.75 -24.6829 -17
    endloop
  endfacet
  facet normal 0 0 -1
    outer loop
      vertex 54 -43.65 -17
      vertex 155.75 -24.6829 -17
      vertex 183.4 -43.65 -17
    endloop
  endfacet
  facet normal 0 1 -0
    outer loop
      vertex 54 -43.65 -17
      vertex 183.4 -43.65 -17
      vertex 183.4 -43.65 -22
    endloop
  endfacet
  facet normal 0 0 -1
    outer loop
      vertex 54 -43.65 -17
      vertex 54 -6.61309e-15 -17
      vertex 154.1 -21.825 -17
    endloop
  endfacet
  facet normal 1 -0 0
    outer loop
      vertex 54 -43.65 -17
      vertex 54 -6.61309e-15 -22
      vertex 54 -6.61309e-15 -17
    endloop
  endfacet
  facet normal 0 0 -1
    outer loop
      vertex 54 -43.65 -22
      vertex 183.4 -43.65 -22
      vertex 209.4 -53.65 -22
    endloop
  endfacet
  facet normal 0 1 0
    outer loop
      vertex 54 -43.65 -22
      vertex 54 -43.65 -17
      vertex 183.4 -43.65 -22
    endloop
  endfacet
  facet normal 1 0 0
    outer loop
      vertex 54 -43.65 -22
      vertex 54 -6.61309e-15 -22
      vertex 54 -43.65 -17
    endloop
  endfacet
  facet normal 0 0 -1
    outer loop
      vertex 54 -6.61309e-15 -17
      vertex 155.75 -18.9671 -17
      vertex 154.1 -21.825 -17
    endloop
  endfacet
  facet normal 0 0 -1
    outer loop
      vertex 54 -6.61309e-15 -17
      vertex 183.4 -2.246e-14 -17
      vertex 155.75 -18.9671 -17
    endloop
  endfacet
  facet normal -1.22465e-16 -1 0
    outer loop
      vertex 54 -6.61309e-15 -22
      vertex 183.4 -2.246e-14 -17
      vertex 54 -6.61309e-15 -17
    endloop
  endfacet
  facet normal -1.22465e-16 -1 -0
    outer loop
      vertex 54 -6.61309e-15 -22
      vertex 183.4 -2.246e-14 -22
      vertex 183.4 -2.246e-14 -17
    endloop
  endfacet
  facet normal 0 0 -1
    outer loop
      vertex 54 -6.61309e-15 -22
      vertex 209.4 10 -22
      vertex 183.4 -2.246e-14 -22
    endloop
  endfacet
endsolid model
