solid model
  facet normal -1 -0 0
    outer loop
      vertex 0 0 0
      vertex 0 0 30.5615
      vertex 0 46.7629 30.5615
    endloop
  endfacet
  facet normal -0 0 -1
    outer loop
      vertex 0 0 0
      vertex 0 150 0
      vertex 147.3 150 0
    endloop
  endfacet
  facet normal -1 0 0
    outer loop
      vertex 0 0 0
      vertex 0 46.7629 30.5615
      vertex 0 150 0
    endloop
  endfacet
  facet normal 0 -1 0
    outer loop
      vertex 0 0 0
      vertex 147.239 0 28.65
      vertex 0 0 30.5615
    endloop
  endfacet
  facet normal 0 -1 0
    outer loop
      vertex 0 0 0
      vertex 147.3 0 0
      vertex 147.239 0 28.65
    endloop
  endfacet
  facet normal 0 0 -1
    outer loop
      vertex 0 0 0
      vertex 147.3 150 0
      vertex 147.3 0 0
    endloop
  endfacet
  facet normal -0.190809 -1.04693e-06 0.981627
    outer loop
      vertex 0 0 30.5615
      vertex 141.52 0 58.0702
      vertex 85.15 16.3979 47.113
    endloop
  endfacet
  facet normal 0 -1 0
    outer loop
      vertex 0 0 30.5615
      vertex 147.239 0 28.65
      vertex 141.52 0 58.0702
    endloop
  endfacet
  facet normal -0.190809 0 0.981627
    outer loop
      vertex 0 0 30.5615
      vertex 78.5647 18.1677 45.8329
      vertex 0 46.7629 30.5615
    endloop
  endfacet
  facet normal -0.19081 7.84632e-06 0.981627
    outer loop
      vertex 0 0 30.5615
      vertex 81.7059 17.1677 46.4435
      vertex 78.5647 18.1677 45.8329
    endloop
  endfacet
  facet normal -0.190815 2.98933e-05 0.981626
    outer loop
      vertex 0 0 30.5615
      vertex 82.8371 16.8391 46.6634
      vertex 81.7059 17.1677 46.4435
    endloop
  endfacet
  facet normal -0.190793 -8.03238e-05 0.98163
    outer loop
      vertex 0 0 30.5615
      vertex 83.9866 16.5821 46.8868
      vertex 82.8371 16.8391 46.6634
    endloop
  endfacet
  facet normal -0.190835 0.000138789 0.981622
    outer loop
      vertex 0 0 30.5615
      vertex 85.15 16.3979 47.113
      vertex 83.9866 16.5821 46.8868
    endloop
  endfacet
  facet normal -0.939689 0.342031 0
    outer loop
      vertex 0 138.551 30.5615
      vertex 0 138.551 69.9
      vertex 4.16725 150 31.3715
    endloop
  endfacet
  facet normal -1 0 0
    outer loop
      vertex 0 138.551 30.5615
      vertex 0 150 30.5615
      vertex 0 150 0
    endloop
  endfacet
  facet normal -0.190802 0 0.981629
    outer loop
      vertex 0 138.551 30.5615
      vertex 4.16725 150 31.3715
      vertex 0 150 30.5615
    endloop
  endfacet
  facet normal -0.939689 0.342031 0
    outer loop
      vertex 0 138.551 69.9
      vertex 4.16725 150 69.9
      vertex 4.16725 150 31.3715
    endloop
  endfacet
  facet normal 0 0 1
    outer loop
      vertex 0 138.551 69.9
      vertex 74.6647 48.6682 69.9
      vertex 75.5483 49.4471 69.9
    endloop
  endfacet
  facet normal 0 0 1
    outer loop
      vertex 0 138.551 69.9
      vertex 75.5483 49.4471 69.9
      vertex 76.479 50.1691 69.9
    endloop
  endfacet
  facet normal 0 0 1
    outer loop
      vertex 0 138.551 69.9
      vertex 76.479 50.1691 69.9
      vertex 77.4532 50.8311 69.9
    endloop
  endfacet
  facet normal 0 0 1
    outer loop
      vertex 0 138.551 69.9
      vertex 77.4532 50.8311 69.9
      vertex 78.4671 51.4307 69.9
    endloop
  endfacet
  facet normal -0 0 1
    outer loop
      vertex 0 138.551 69.9
      vertex 78.4671 51.4307 69.9
      vertex 86.1 150 69.9
    endloop
  endfacet
  facet normal 0 0 1
    outer loop
      vertex 0 138.551 69.9
      vertex 86.1 150 69.9
      vertex 4.16725 150 69.9
    endloop
  endfacet
  facet normal 0 1 0
    outer loop
      vertex 0 150 0
      vertex 0 150 30.5615
      vertex 4.16725 150 31.3715
    endloop
  endfacet
  facet normal 0 1 0
    outer loop
      vertex 0 150 0
      vertex 106.1 150 51.1853
      vertex 147.3 150 0
    endloop
  endfacet
  facet normal 0 1 0
    outer loop
      vertex 0 150 0
      vertex 4.16725 150 31.3715
      vertex 106.1 150 51.1853
    endloop
  endfacet
  facet normal -1 0 0
    outer loop
      vertex 0 46.7629 30.5615
      vertex 0 138.551 30.5615
      vertex 0 150 0
    endloop
  endfacet
  facet normal -1 0 0
    outer loop
      vertex 0 46.7629 30.5615
      vertex 0 138.551 69.9
      vertex 0 138.551 30.5615
    endloop
  endfacet
  facet normal -1 -0 0
    outer loop
      vertex 0 46.7629 30.5615
      vertex 0 46.7629 69.9
      vertex 0 138.551 69.9
    endloop
  endfacet
  facet normal -0.34202 -0.939693 0
    outer loop
      vertex 0 46.7629 30.5615
      vertex 78.5647 18.1677 45.8329
      vertex 0 46.7629 69.9
    endloop
  endfacet
  facet normal 0 0 1
    outer loop
      vertex 0 46.7629 69.9
      vertex 68.75 35 69.9
      vertex 68.787 36.1773 69.9
    endloop
  endfacet
  facet normal 0 0 1
    outer loop
      vertex 0 46.7629 69.9
      vertex 68.787 33.8227 69.9
      vertex 68.75 35 69.9
    endloop
  endfacet
  facet normal 0 0 1
    outer loop
      vertex 0 46.7629 69.9
      vertex 68.787 36.1773 69.9
      vertex 68.8979 37.35 69.9
    endloop
  endfacet
  facet normal 0 0 1
    outer loop
      vertex 0 46.7629 69.9
      vertex 68.8979 32.65 69.9
      vertex 68.787 33.8227 69.9
    endloop
  endfacet
  facet normal 0 0 1
    outer loop
      vertex 0 46.7629 69.9
      vertex 68.8979 37.35 69.9
      vertex 69.0821 38.5134 69.9
    endloop
  endfacet
  facet normal 0 0 1
    outer loop
      vertex 0 46.7629 69.9
      vertex 69.0821 31.4866 69.9
      vertex 68.8979 32.65 69.9
    endloop
  endfacet
  facet normal 0 0 1
    outer loop
      vertex 0 46.7629 69.9
      vertex 69.0821 38.5134 69.9
      vertex 69.3391 39.6629 69.9
    endloop
  endfacet
  facet normal 0 0 1
    outer loop
      vertex 0 46.7629 69.9
      vertex 69.3391 30.3371 69.9
      vertex 69.0821 31.4866 69.9
    endloop
  endfacet
  facet normal 0 0 1
    outer loop
      vertex 0 46.7629 69.9
      vertex 69.3391 39.6629 69.9
      vertex 69.6677 40.7941 69.9
    endloop
  endfacet
  facet normal 0 0 1
    outer loop
      vertex 0 46.7629 69.9
      vertex 69.6677 29.2059 69.9
      vertex 69.3391 30.3371 69.9
    endloop
  endfacet
  facet normal 0 0 1
    outer loop
      vertex 0 46.7629 69.9
      vertex 69.6677 40.7941 69.9
      vertex 70.0667 41.9023 69.9
    endloop
  endfacet
  facet normal 0 0 1
    outer loop
      vertex 0 46.7629 69.9
      vertex 70.0667 28.0977 69.9
      vertex 69.6677 29.2059 69.9
    endloop
  endfacet
  facet normal 0 0 1
    outer loop
      vertex 0 46.7629 69.9
      vertex 70.0667 41.9023 69.9
      vertex 70.5345 42.9834 69.9
    endloop
  endfacet
  facet normal 0 0 1
    outer loop
      vertex 0 46.7629 69.9
      vertex 70.5345 27.0166 69.9
      vertex 70.0667 28.0977 69.9
    endloop
  endfacet
  facet normal 0 0 1
    outer loop
      vertex 0 46.7629 69.9
      vertex 70.5345 42.9834 69.9
      vertex 71.0693 44.0329 69.9
    endloop
  endfacet
  facet normal 0 0 1
    outer loop
      vertex 0 46.7629 69.9
      vertex 71.0693 25.9671 69.9
      vertex 70.5345 27.0166 69.9
    endloop
  endfacet
  facet normal 0 0 1
    outer loop
      vertex 0 46.7629 69.9
      vertex 71.0693 44.0329 69.9
      vertex 71.6689 45.0468 69.9
    endloop
  endfacet
  facet normal 0 0 1
    outer loop
      vertex 0 46.7629 69.9
      vertex 71.6689 24.9532 69.9
      vertex 71.0693 25.9671 69.9
    endloop
  endfacet
  facet normal 0 0 1
    outer loop
      vertex 0 46.7629 69.9
      vertex 71.6689 45.0468 69.9
      vertex 72.3309 46.021 69.9
    endloop
  endfacet
  facet normal 0 0 1
    outer loop
      vertex 0 46.7629 69.9
      vertex 72.3309 23.979 69.9
      vertex 71.6689 24.9532 69.9
    endloop
  endfacet
  facet normal 0 0 1
    outer loop
      vertex 0 46.7629 69.9
      vertex 72.3309 46.021 69.9
      vertex 73.0529 46.9517 69.9
    endloop
  endfacet
  facet normal 0 0 1
    outer loop
      vertex 0 46.7629 69.9
      vertex 73.0529 23.0483 69.9
      vertex 72.3309 23.979 69.9
    endloop
  endfacet
  facet normal 0 0 1
    outer loop
      vertex 0 46.7629 69.9
      vertex 73.0529 46.9517 69.9
      vertex 73.8318 47.8353 69.9
    endloop
  endfacet
  facet normal 0 0 1
    outer loop
      vertex 0 46.7629 69.9
      vertex 73.8318 22.1647 69.9
      vertex 73.0529 23.0483 69.9
    endloop
  endfacet
  facet normal 0 0 1
    outer loop
      vertex 0 46.7629 69.9
      vertex 73.8318 47.8353 69.9
      vertex 74.6647 48.6682 69.9
    endloop
  endfacet
  facet normal 0 0 1
    outer loop
      vertex 0 46.7629 69.9
      vertex 74.6647 21.3318 69.9
      vertex 73.8318 22.1647 69.9
    endloop
  endfacet
  facet normal 0 0 1
    outer loop
      vertex 0 46.7629 69.9
      vertex 74.6647 48.6682 69.9
      vertex 0 138.551 69.9
    endloop
  endfacet
  facet normal 0 0 1
    outer loop
      vertex 0 46.7629 69.9
      vertex 75.5483 20.5529 69.9
      vertex 74.6647 21.3318 69.9
    endloop
  endfacet
  facet normal -0.34202 -0.939693 0
    outer loop
      vertex 0 46.7629 69.9
      vertex 78.5647 18.1677 45.8329
      vertex 78.5647 18.1677 69.9
    endloop
  endfacet
  facet normal 0 0 1
    outer loop
      vertex 0 46.7629 69.9
      vertex 78.5647 18.1677 69.9
      vertex 75.5483 20.5529 69.9
    endloop
  endfacet
  facet normal 0.707064 -0.707149 0
    outer loop
      vertex 100.335 21.3318 50.0647
      vertex 101.168 22.1647 50.2266
      vertex 100.335 21.3318 70
    endloop
  endfacet
  facet normal -0.190801 1.37614e-05 0.981629
    outer loop
      vertex 100.335 21.3318 50.0647
      vertex 141.52 0 58.0702
      vertex 101.168 22.1647 50.2266
    endloop
  endfacet
  facet normal 0.707064 -0.707149 0
    outer loop
      vertex 100.335 21.3318 70
      vertex 101.168 22.1647 50.2266
      vertex 101.168 22.1647 70
    endloop
  endfacet
  facet normal 0 0 1
    outer loop
      vertex 100.335 21.3318 70
      vertex 101.168 22.1647 70
      vertex 100.335 48.6682 70
    endloop
  endfacet
  facet normal 0.707064 0.707149 0
    outer loop
      vertex 100.335 48.6682 69.8
      vertex 100.335 48.6682 70
      vertex 101.168 47.8353 70
    endloop
  endfacet
  facet normal 0 0 1
    outer loop
      vertex 100.335 48.6682 69.8
      vertex 101.168 47.8353 69.8
      vertex 106.1 150 69.8
    endloop
  endfacet
  facet normal 0.707064 0.707149 0
    outer loop
      vertex 100.335 48.6682 69.8
      vertex 101.168 47.8353 70
      vertex 101.168 47.8353 69.8
    endloop
  endfacet
  facet normal 0 0 1
    outer loop
      vertex 100.335 48.6682 70
      vertex 101.168 22.1647 70
      vertex 101.168 47.8353 70
    endloop
  endfacet
  facet normal 0.75011 -0.661313 0
    outer loop
      vertex 101.168 22.1647 50.2266
      vertex 101.947 23.0483 50.378
      vertex 101.168 22.1647 70
    endloop
  endfacet
  facet normal -0.1908 1.61672e-05 0.981629
    outer loop
      vertex 101.168 22.1647 50.2266
      vertex 141.52 0 58.0702
      vertex 101.947 23.0483 50.378
    endloop
  endfacet
  facet normal 0.75011 -0.661313 0
    outer loop
      vertex 101.168 22.1647 70
      vertex 101.947 23.0483 50.378
      vertex 101.947 23.0483 70
    endloop
  endfacet
  facet normal 0 0 1
    outer loop
      vertex 101.168 22.1647 70
      vertex 101.947 23.0483 70
      vertex 101.168 47.8353 70
    endloop
  endfacet
  facet normal 0.75011 0.661313 0
    outer loop
      vertex 101.168 47.8353 69.8
      vertex 101.168 47.8353 70
      vertex 101.947 46.9517 70
    endloop
  endfacet
  facet normal 0 0 1
    outer loop
      vertex 101.168 47.8353 69.8
      vertex 101.947 46.9517 69.8
      vertex 106.1 150 69.8
    endloop
  endfacet
  facet normal 0.75011 0.661313 0
    outer loop
      vertex 101.168 47.8353 69.8
      vertex 101.947 46.9517 70
      vertex 101.947 46.9517 69.8
    endloop
  endfacet
  facet normal 0 0 1
    outer loop
      vertex 101.168 47.8353 70
      vertex 101.947 23.0483 70
      vertex 101.947 46.9517 70
    endloop
  endfacet
  facet normal 0.790124 -0.612947 0
    outer loop
      vertex 101.947 23.0483 50.378
      vertex 102.669 23.979 50.5183
      vertex 101.947 23.0483 70
    endloop
  endfacet
  facet normal -0.190791 3.07772e-05 0.981631
    outer loop
      vertex 101.947 23.0483 50.378
      vertex 141.52 0 58.0702
      vertex 102.669 23.979 50.5183
    endloop
  endfacet
  facet normal 0.790124 -0.612947 0
    outer loop
      vertex 101.947 23.0483 70
      vertex 102.669 23.979 50.5183
      vertex 102.669 23.979 70
    endloop
  endfacet
  facet normal 0 0 1
    outer loop
      vertex 101.947 23.0483 70
      vertex 102.669 23.979 70
      vertex 101.947 46.9517 70
    endloop
  endfacet
  facet normal 0.790124 0.612947 0
    outer loop
      vertex 101.947 46.9517 69.8
      vertex 101.947 46.9517 70
      vertex 102.669 46.021 70
    endloop
  endfacet
  facet normal 0 0 1
    outer loop
      vertex 101.947 46.9517 69.8
      vertex 102.669 46.021 69.8
      vertex 106.1 150 69.8
    endloop
  endfacet
  facet normal 0.790124 0.612947 0
    outer loop
      vertex 101.947 46.9517 69.8
      vertex 102.669 46.021 70
      vertex 102.669 46.021 69.8
    endloop
  endfacet
  facet normal 0 0 1
    outer loop
      vertex 101.947 46.9517 70
      vertex 102.669 23.979 70
      vertex 102.669 46.021 70
    endloop
  endfacet
  facet normal 0.827106 -0.562045 0
    outer loop
      vertex 102.669 23.979 50.5183
      vertex 103.331 24.9532 50.647
      vertex 102.669 23.979 70
    endloop
  endfacet
  facet normal -0.190818 -1.39946e-05 0.981625
    outer loop
      vertex 102.669 23.979 50.5183
      vertex 141.52 0 58.0702
      vertex 103.331 24.9532 50.647
    endloop
  endfacet
  facet normal 0.827106 -0.562045 0
    outer loop
      vertex 102.669 23.979 70
      vertex 103.331 24.9532 50.647
      vertex 103.331 24.9532 70
    endloop
  endfacet
  facet normal 0 0 1
    outer loop
      vertex 102.669 23.979 70
      vertex 103.331 24.9532 70
      vertex 102.669 46.021 70
    endloop
  endfacet
  facet normal 0.827106 0.562045 0
    outer loop
      vertex 102.669 46.021 69.8
      vertex 102.669 46.021 70
      vertex 103.331 45.0468 70
    endloop
  endfacet
  facet normal 0 0 1
    outer loop
      vertex 102.669 46.021 69.8
      vertex 103.331 45.0468 69.8
      vertex 106.1 150 69.8
    endloop
  endfacet
  facet normal 0.827106 0.562045 0
    outer loop
      vertex 102.669 46.021 69.8
      vertex 103.331 45.0468 70
      vertex 103.331 45.0468 69.8
    endloop
  endfacet
  facet normal 0 0 1
    outer loop
      vertex 102.669 46.021 70
      vertex 103.331 24.9532 70
      vertex 103.331 45.0468 70
    endloop
  endfacet
  facet normal 0.8606 -0.509281 0
    outer loop
      vertex 103.331 24.9532 50.647
      vertex 103.931 25.9671 50.7636
      vertex 103.331 24.9532 70
    endloop
  endfacet
  facet normal -0.190797 1.97928e-05 0.98163
    outer loop
      vertex 103.331 24.9532 50.647
      vertex 141.52 0 58.0702
      vertex 103.931 25.9671 50.7636
    endloop
  endfacet
  facet normal 0.8606 -0.509281 0
    outer loop
      vertex 103.331 24.9532 70
      vertex 103.931 25.9671 50.7636
      vertex 103.931 25.9671 70
    endloop
  endfacet
  facet normal 0 0 1
    outer loop
      vertex 103.331 24.9532 70
      vertex 103.931 25.9671 70
      vertex 103.331 45.0468 70
    endloop
  endfacet
  facet normal 0.8606 0.509281 0
    outer loop
      vertex 103.331 45.0468 69.8
      vertex 103.331 45.0468 70
      vertex 103.931 44.0329 70
    endloop
  endfacet
  facet normal 0 0 1
    outer loop
      vertex 103.331 45.0468 69.8
      vertex 103.931 44.0329 69.8
      vertex 106.1 150 69.8
    endloop
  endfacet
  facet normal 0.8606 0.509281 0
    outer loop
      vertex 103.331 45.0468 69.8
      vertex 103.931 44.0329 70
      vertex 103.931 44.0329 69.8
    endloop
  endfacet
  facet normal 0 0 1
    outer loop
      vertex 103.331 45.0468 70
      vertex 103.931 25.9671 70
      vertex 103.931 44.0329 70
    endloop
  endfacet
  facet normal 0.89092 -0.454161 0
    outer loop
      vertex 103.931 25.9671 50.7636
      vertex 104.466 27.0166 50.8675
      vertex 103.931 25.9671 70
    endloop
  endfacet
  facet normal -0.190767 6.50331e-05 0.981635
    outer loop
      vertex 103.931 25.9671 50.7636
      vertex 141.52 0 58.0702
      vertex 104.466 27.0166 50.8675
    endloop
  endfacet
  facet normal 0.89092 -0.454161 0
    outer loop
      vertex 103.931 25.9671 70
      vertex 104.466 27.0166 50.8675
      vertex 104.466 27.0166 70
    endloop
  endfacet
  facet normal 0 0 1
    outer loop
      vertex 103.931 25.9671 70
      vertex 104.466 27.0166 70
      vertex 103.931 44.0329 70
    endloop
  endfacet
  facet normal 0.89092 0.454161 0
    outer loop
      vertex 103.931 44.0329 69.8
      vertex 103.931 44.0329 70
      vertex 104.466 42.9834 70
    endloop
  endfacet
  facet normal 0 0 1
    outer loop
      vertex 103.931 44.0329 69.8
      vertex 104.466 42.9834 69.8
      vertex 106.1 150 69.8
    endloop
  endfacet
  facet normal 0.89092 0.454161 0
    outer loop
      vertex 103.931 44.0329 69.8
      vertex 104.466 42.9834 70
      vertex 104.466 42.9834 69.8
    endloop
  endfacet
  facet normal 0 0 1
    outer loop
      vertex 103.931 44.0329 70
      vertex 104.466 27.0166 70
      vertex 104.466 42.9834 70
    endloop
  endfacet
  facet normal 0.918012 -0.396552 0
    outer loop
      vertex 104.466 27.0166 50.8675
      vertex 104.933 28.0977 50.9585
      vertex 104.466 27.0166 70
    endloop
  endfacet
  facet normal -0.19092 -0.000153795 0.981606
    outer loop
      vertex 104.466 27.0166 50.8675
      vertex 141.52 0 58.0702
      vertex 104.933 28.0977 50.9585
    endloop
  endfacet
  facet normal 0.918012 -0.396552 0
    outer loop
      vertex 104.466 27.0166 70
      vertex 104.933 28.0977 50.9585
      vertex 104.933 28.0977 70
    endloop
  endfacet
  facet normal 0 0 1
    outer loop
      vertex 104.466 27.0166 70
      vertex 104.933 28.0977 70
      vertex 104.466 42.9834 70
    endloop
  endfacet
  facet normal 0.918012 0.396552 0
    outer loop
      vertex 104.466 42.9834 69.8
      vertex 104.466 42.9834 70
      vertex 104.933 41.9023 70
    endloop
  endfacet
  facet normal 0 0 1
    outer loop
      vertex 104.466 42.9834 69.8
      vertex 104.933 41.9023 69.8
      vertex 106.1 150 69.8
    endloop
  endfacet
  facet normal 0.918012 0.396552 0
    outer loop
      vertex 104.466 42.9834 69.8
      vertex 104.933 41.9023 70
      vertex 104.933 41.9023 69.8
    endloop
  endfacet
  facet normal 0 0 1
    outer loop
      vertex 104.466 42.9834 70
      vertex 104.933 28.0977 70
      vertex 104.933 41.9023 70
    endloop
  endfacet
  facet normal 0.940874 -0.338756 0
    outer loop
      vertex 104.933 28.0977 50.9585
      vertex 105.332 29.2059 51.036
      vertex 104.933 28.0977 70
    endloop
  endfacet
  facet normal -0.190777 3.93703e-05 0.981633
    outer loop
      vertex 104.933 28.0977 50.9585
      vertex 141.52 0 58.0702
      vertex 105.332 29.2059 51.036
    endloop
  endfacet
  facet normal 0.940874 -0.338756 0
    outer loop
      vertex 104.933 28.0977 70
      vertex 105.332 29.2059 51.036
      vertex 105.332 29.2059 70
    endloop
  endfacet
  facet normal 0 0 1
    outer loop
      vertex 104.933 28.0977 70
      vertex 105.332 29.2059 70
      vertex 104.933 41.9023 70
    endloop
  endfacet
  facet normal 0.940874 0.338756 0
    outer loop
      vertex 104.933 41.9023 69.8
      vertex 104.933 41.9023 70
      vertex 105.332 40.7941 70
    endloop
  endfacet
  facet normal 0 0 1
    outer loop
      vertex 104.933 41.9023 69.8
      vertex 105.332 40.7941 69.8
      vertex 106.1 150 69.8
    endloop
  endfacet
  facet normal 0.940874 0.338756 0
    outer loop
      vertex 104.933 41.9023 69.8
      vertex 105.332 40.7941 70
      vertex 105.332 40.7941 69.8
    endloop
  endfacet
  facet normal 0 0 1
    outer loop
      vertex 104.933 41.9023 70
      vertex 105.332 29.2059 70
      vertex 105.332 40.7941 70
    endloop
  endfacet
  facet normal 0.960213 -0.27927 0
    outer loop
      vertex 105.332 29.2059 51.036
      vertex 105.661 30.3371 51.0999
      vertex 105.332 29.2059 70
    endloop
  endfacet
  facet normal -0.19078 3.57077e-05 0.981633
    outer loop
      vertex 105.332 29.2059 51.036
      vertex 141.52 0 58.0702
      vertex 105.661 30.3371 51.0999
    endloop
  endfacet
  facet normal 0.960213 -0.27927 0
    outer loop
      vertex 105.332 29.2059 70
      vertex 105.661 30.3371 51.0999
      vertex 105.661 30.3371 70
    endloop
  endfacet
  facet normal 0 0 1
    outer loop
      vertex 105.332 29.2059 70
      vertex 105.661 30.3371 70
      vertex 105.332 40.7941 70
    endloop
  endfacet
  facet normal 0.960213 0.27927 0
    outer loop
      vertex 105.332 40.7941 69.8
      vertex 105.332 40.7941 70
      vertex 105.661 39.6629 70
    endloop
  endfacet
  facet normal 0 0 1
    outer loop
      vertex 105.332 40.7941 69.8
      vertex 105.661 39.6629 69.8
      vertex 106.1 150 69.8
    endloop
  endfacet
  facet normal 0.960213 0.27927 0
    outer loop
      vertex 105.332 40.7941 69.8
      vertex 105.661 39.6629 70
      vertex 105.661 39.6629 69.8
    endloop
  endfacet
  facet normal 0 0 1
    outer loop
      vertex 105.332 40.7941 70
      vertex 105.661 30.3371 70
      vertex 105.661 39.6629 70
    endloop
  endfacet
  facet normal 0.975907 -0.218189 0
    outer loop
      vertex 105.661 30.3371 51.0999
      vertex 105.918 31.4866 51.1499
      vertex 105.661 30.3371 70
    endloop
  endfacet
  facet normal -0.190835 -3.16997e-05 0.981622
    outer loop
      vertex 105.661 30.3371 51.0999
      vertex 141.52 0 58.0702
      vertex 105.918 31.4866 51.1499
    endloop
  endfacet
  facet normal 0.975907 -0.218189 0
    outer loop
      vertex 105.661 30.3371 70
      vertex 105.918 31.4866 51.1499
      vertex 105.918 31.4866 70
    endloop
  endfacet
  facet normal 0 0 1
    outer loop
      vertex 105.661 30.3371 70
      vertex 105.918 31.4866 70
      vertex 105.661 39.6629 70
    endloop
  endfacet
  facet normal 0.975907 0.218189 0
    outer loop
      vertex 105.661 39.6629 69.8
      vertex 105.661 39.6629 70
      vertex 105.918 38.5134 70
    endloop
  endfacet
  facet normal 0 0 1
    outer loop
      vertex 105.661 39.6629 69.8
      vertex 105.918 38.5134 69.8
      vertex 106.1 150 69.8
    endloop
  endfacet
  facet normal 0.975907 0.218189 0
    outer loop
      vertex 105.661 39.6629 69.8
      vertex 105.918 38.5134 70
      vertex 105.918 38.5134 69.8
    endloop
  endfacet
  facet normal 0 0 1
    outer loop
      vertex 105.661 39.6629 70
      vertex 105.918 31.4866 70
      vertex 105.918 38.5134 70
    endloop
  endfacet
  facet normal 0.987723 -0.156215 0
    outer loop
      vertex 105.918 31.4866 51.1499
      vertex 106.102 32.65 51.1857
      vertex 105.918 31.4866 70
    endloop
  endfacet
  facet normal -0.19083 -2.52907e-05 0.981623
    outer loop
      vertex 105.918 31.4866 51.1499
      vertex 141.52 0 58.0702
      vertex 106.102 32.65 51.1857
    endloop
  endfacet
  facet normal 0.987723 -0.156215 0
    outer loop
      vertex 105.918 31.4866 70
      vertex 106.102 32.65 51.1857
      vertex 106.102 32.65 70
    endloop
  endfacet
  facet normal 0 0 1
    outer loop
      vertex 105.918 31.4866 70
      vertex 106.102 32.65 70
      vertex 105.918 38.5134 70
    endloop
  endfacet
  facet normal 0.987703 0.156342 0
    outer loop
      vertex 105.918 38.5134 69.8
      vertex 105.918 38.5134 70
      vertex 106.1 37.3636 69.8
    endloop
  endfacet
  facet normal 0 0 1
    outer loop
      vertex 105.918 38.5134 69.8
      vertex 106.1 37.3636 69.8
      vertex 106.1 150 69.8
    endloop
  endfacet
  facet normal 0 0 1
    outer loop
      vertex 105.918 38.5134 70
      vertex 106.102 32.65 70
      vertex 106.102 37.35 70
    endloop
  endfacet
  facet normal 0.987723 0.156215 0.000745419
    outer loop
      vertex 105.918 38.5134 70
      vertex 106.102 37.35 70
      vertex 106.1 37.3636 69.8
    endloop
  endfacet
  facet normal 0 1 0
    outer loop
      vertex 106.1 150 51.1853
      vertex 141.52 150 58.0702
      vertex 147.239 150 28.65
    endloop
  endfacet
  facet normal 0 1 0
    outer loop
      vertex 106.1 150 51.1853
      vertex 147.239 150 28.65
      vertex 147.3 150 0
    endloop
  endfacet
  facet normal 1 0 0
    outer loop
      vertex 106.1 37.3636 51.1853
      vertex 106.1 150 51.1853
      vertex 106.1 37.3636 69.8
    endloop
  endfacet
  facet normal 0.989359 0.145494 0
    outer loop
      vertex 106.1 37.3636 51.1853
      vertex 106.1 37.3636 69.8
      vertex 106.102 37.35 51.1857
    endloop
  endfacet
  facet normal -0.189831 0.000960624 0.981816
    outer loop
      vertex 106.1 37.3636 51.1853
      vertex 106.102 37.35 51.1857
      vertex 141.52 0 58.0702
    endloop
  endfacet
  facet normal -0.190808 0 0.981627
    outer loop
      vertex 106.1 37.3636 51.1853
      vertex 141.52 0 58.0702
      vertex 141.52 150 58.0702
    endloop
  endfacet
  facet normal -0.190808 0 0.981627
    outer loop
      vertex 106.1 37.3636 51.1853
      vertex 141.52 150 58.0702
      vertex 106.1 150 51.1853
    endloop
  endfacet
  facet normal 1 -0 0
    outer loop
      vertex 106.1 37.3636 69.8
      vertex 106.1 150 51.1853
      vertex 106.1 150 69.8
    endloop
  endfacet
  facet normal 0.989359 0.145494 -0
    outer loop
      vertex 106.1 37.3636 69.8
      vertex 106.102 37.35 70
      vertex 106.102 37.35 51.1857
    endloop
  endfacet
  facet normal 0.99555 -0.0942322 0
    outer loop
      vertex 106.102 32.65 51.1857
      vertex 106.213 33.8227 51.2072
      vertex 106.102 32.65 70
    endloop
  endfacet
  facet normal -0.190755 5.85281e-05 0.981638
    outer loop
      vertex 106.102 32.65 51.1857
      vertex 141.52 0 58.0702
      vertex 106.213 33.8227 51.2072
    endloop
  endfacet
  facet normal 0.99555 -0.0942322 0
    outer loop
      vertex 106.102 32.65 70
      vertex 106.213 33.8227 51.2072
      vertex 106.213 33.8227 70
    endloop
  endfacet
  facet normal 0 0 1
    outer loop
      vertex 106.102 32.65 70
      vertex 106.213 33.8227 70
      vertex 106.102 37.35 70
    endloop
  endfacet
  facet normal 0.99555 0.0942322 0
    outer loop
      vertex 106.102 37.35 51.1857
      vertex 106.102 37.35 70
      vertex 106.213 36.1773 51.2072
    endloop
  endfacet
  facet normal -0.190879 -7.06894e-05 0.981614
    outer loop
      vertex 106.102 37.35 51.1857
      vertex 106.213 36.1773 51.2072
      vertex 141.52 0 58.0702
    endloop
  endfacet
  facet normal 0 0 1
    outer loop
      vertex 106.102 37.35 70
      vertex 106.213 33.8227 70
      vertex 106.213 36.1773 70
    endloop
  endfacet
  facet normal 0.99555 0.0942322 -0
    outer loop
      vertex 106.102 37.35 70
      vertex 106.213 36.1773 70
      vertex 106.213 36.1773 51.2072
    endloop
  endfacet
  facet normal 0.999507 -0.0314123 0
    outer loop
      vertex 106.213 33.8227 51.2072
      vertex 106.25 35 51.2144
      vertex 106.213 33.8227 70
    endloop
  endfacet
  facet normal -0.190815 -6.40534e-06 0.981626
    outer loop
      vertex 106.213 33.8227 51.2072
      vertex 141.52 0 58.0702
      vertex 106.25 35 51.2144
    endloop
  endfacet
  facet normal 0.999507 -0.0314123 0
    outer loop
      vertex 106.213 33.8227 70
      vertex 106.25 35 51.2144
      vertex 106.25 35 70
    endloop
  endfacet
  facet normal 0 0 1
    outer loop
      vertex 106.213 33.8227 70
      vertex 106.25 35 70
      vertex 106.213 36.1773 70
    endloop
  endfacet
  facet normal 0.999507 0.0314123 0
    outer loop
      vertex 106.213 36.1773 51.2072
      vertex 106.213 36.1773 70
      vertex 106.25 35 70
    endloop
  endfacet
  facet normal -0.190803 6.81775e-06 0.981628
    outer loop
      vertex 106.213 36.1773 51.2072
      vertex 106.25 35 51.2144
      vertex 141.52 0 58.0702
    endloop
  endfacet
  facet normal 0.999507 0.0314123 0
    outer loop
      vertex 106.213 36.1773 51.2072
      vertex 106.25 35 70
      vertex 106.25 35 51.2144
    endloop
  endfacet
  facet normal 0.981625 0 0.190818
    outer loop
      vertex 141.52 0 58.0702
      vertex 147.239 0 28.65
      vertex 147.239 150 28.65
    endloop
  endfacet
  facet normal 0.981625 -0 0.190818
    outer loop
      vertex 141.52 0 58.0702
      vertex 147.239 150 28.65
      vertex 141.52 150 58.0702
    endloop
  endfacet
  facet normal 0 -1 0
    outer loop
      vertex 147.239 0 28.65
      vertex 147.3 0 0
      vertex 147.3 0 28.65
    endloop
  endfacet
  facet normal 0 0 1
    outer loop
      vertex 147.239 0 28.65
      vertex 147.3 0 28.65
      vertex 147.239 150 28.65
    endloop
  endfacet
  facet normal -0 0 1
    outer loop
      vertex 147.239 150 28.65
      vertex 147.3 0 28.65
      vertex 147.3 150 28.65
    endloop
  endfacet
  facet normal 0 1 0
    outer loop
      vertex 147.239 150 28.65
      vertex 147.3 150 28.65
      vertex 147.3 150 0
    endloop
  endfacet
  facet normal 1 0 0
    outer loop
      vertex 147.3 0 0
      vertex 147.3 150 0
      vertex 147.3 0 28.65
    endloop
  endfacet
  facet normal 1 -0 0
    outer loop
      vertex 147.3 0 28.65
      vertex 147.3 150 0
      vertex 147.3 150 28.65
    endloop
  endfacet
  facet normal 0 1 0
    outer loop
      vertex 4.16725 150 31.3715
      vertex 4.16725 150 69.9
      vertex 86.1 150 69.8
    endloop
  endfacet
  facet normal 0 1 0
    outer loop
      vertex 4.16725 150 31.3715
      vertex 86.1 150 69.8
      vertex 106.1 150 51.1853
    endloop
  endfacet
  facet normal 0 1 -0
    outer loop
      vertex 4.16725 150 69.9
      vertex 86.1 150 69.9
      vertex 86.1 150 69.8
    endloop
  endfacet
  facet normal -0.999507 0.0314123 0
    outer loop
      vertex 68.75 35 69.9
      vertex 68.75 35 70
      vertex 68.787 36.1773 70
    endloop
  endfacet
  facet normal -0.999507 -0.0314123 0
    outer loop
      vertex 68.75 35 69.9
      vertex 68.787 33.8227 69.9
      vertex 68.75 35 70
    endloop
  endfacet
  facet normal -0.999507 0.0314123 0
    outer loop
      vertex 68.75 35 69.9
      vertex 68.787 36.1773 70
      vertex 68.787 36.1773 69.9
    endloop
  endfacet
  facet normal -0.999507 -0.0314123 0
    outer loop
      vertex 68.75 35 70
      vertex 68.787 33.8227 69.9
      vertex 68.787 33.8227 70
    endloop
  endfacet
  facet normal 0 -0 1
    outer loop
      vertex 68.75 35 70
      vertex 68.787 33.8227 70
      vertex 68.787 36.1773 70
    endloop
  endfacet
  facet normal -0.995558 -0.094148 0
    outer loop
      vertex 68.787 33.8227 69.9
      vertex 68.8979 32.65 69.9
      vertex 68.787 33.8227 70
    endloop
  endfacet
  facet normal -0.995558 -0.094148 0
    outer loop
      vertex 68.787 33.8227 70
      vertex 68.8979 32.65 69.9
      vertex 68.8979 32.65 70
    endloop
  endfacet
  facet normal 0 0 1
    outer loop
      vertex 68.787 33.8227 70
      vertex 68.8979 32.65 70
      vertex 68.787 36.1773 70
    endloop
  endfacet
  facet normal -0.995558 0.094148 0
    outer loop
      vertex 68.787 36.1773 69.9
      vertex 68.787 36.1773 70
      vertex 68.8979 37.35 70
    endloop
  endfacet
  facet normal -0.995558 0.094148 0
    outer loop
      vertex 68.787 36.1773 69.9
      vertex 68.8979 37.35 70
      vertex 68.8979 37.35 69.9
    endloop
  endfacet
  facet normal -0 0 1
    outer loop
      vertex 68.787 36.1773 70
      vertex 68.8979 32.65 70
      vertex 68.8979 37.35 70
    endloop
  endfacet
  facet normal -0.987697 -0.156381 0
    outer loop
      vertex 68.8979 32.65 69.9
      vertex 69.0821 31.4866 69.9
      vertex 68.8979 32.65 70
    endloop
  endfacet
  facet normal -0.987697 -0.156381 0
    outer loop
      vertex 68.8979 32.65 70
      vertex 69.0821 31.4866 69.9
      vertex 69.0821 31.4866 70
    endloop
  endfacet
  facet normal 0 0 1
    outer loop
      vertex 68.8979 32.65 70
      vertex 69.0821 31.4866 70
      vertex 68.8979 37.35 70
    endloop
  endfacet
  facet normal -0.987697 0.156381 0
    outer loop
      vertex 68.8979 37.35 69.9
      vertex 68.8979 37.35 70
      vertex 69.0821 38.5134 70
    endloop
  endfacet
  facet normal -0.987697 0.156381 0
    outer loop
      vertex 68.8979 37.35 69.9
      vertex 69.0821 38.5134 70
      vertex 69.0821 38.5134 69.9
    endloop
  endfacet
  facet normal -0 0 1
    outer loop
      vertex 68.8979 37.35 70
      vertex 69.0821 31.4866 70
      vertex 69.0821 38.5134 70
    endloop
  endfacet
  facet normal -0.975907 -0.218189 0
    outer loop
      vertex 69.0821 31.4866 69.9
      vertex 69.3391 30.3371 69.9
      vertex 69.0821 31.4866 70
    endloop
  endfacet
  facet normal -0.975907 -0.218189 0
    outer loop
      vertex 69.0821 31.4866 70
      vertex 69.3391 30.3371 69.9
      vertex 69.3391 30.3371 70
    endloop
  endfacet
  facet normal 0 0 1
    outer loop
      vertex 69.0821 31.4866 70
      vertex 69.3391 30.3371 70
      vertex 69.0821 38.5134 70
    endloop
  endfacet
  facet normal -0.975907 0.218189 0
    outer loop
      vertex 69.0821 38.5134 69.9
      vertex 69.0821 38.5134 70
      vertex 69.3391 39.6629 70
    endloop
  endfacet
  facet normal -0.975907 0.218189 0
    outer loop
      vertex 69.0821 38.5134 69.9
      vertex 69.3391 39.6629 70
      vertex 69.3391 39.6629 69.9
    endloop
  endfacet
  facet normal -0 0 1
    outer loop
      vertex 69.0821 38.5134 70
      vertex 69.3391 30.3371 70
      vertex 69.3391 39.6629 70
    endloop
  endfacet
  facet normal -0.960304 -0.278957 0
    outer loop
      vertex 69.3391 30.3371 69.9
      vertex 69.6677 29.2059 69.9
      vertex 69.3391 30.3371 70
    endloop
  endfacet
  facet normal -0.960304 -0.278957 0
    outer loop
      vertex 69.3391 30.3371 70
      vertex 69.6677 29.2059 69.9
      vertex 69.6677 29.2059 70
    endloop
  endfacet
  facet normal 0 0 1
    outer loop
      vertex 69.3391 30.3371 70
      vertex 69.6677 29.2059 70
      vertex 69.3391 39.6629 70
    endloop
  endfacet
  facet normal -0.960304 0.278957 0
    outer loop
      vertex 69.3391 39.6629 69.9
      vertex 69.3391 39.6629 70
      vertex 69.6677 40.7941 70
    endloop
  endfacet
  facet normal -0.960304 0.278957 0
    outer loop
      vertex 69.3391 39.6629 69.9
      vertex 69.6677 40.7941 70
      vertex 69.6677 40.7941 69.9
    endloop
  endfacet
  facet normal -0 0 1
    outer loop
      vertex 69.3391 39.6629 70
      vertex 69.6677 29.2059 70
      vertex 69.6677 40.7941 70
    endloop
  endfacet
  facet normal -0.940874 -0.338756 0
    outer loop
      vertex 69.6677 29.2059 69.9
      vertex 70.0667 28.0977 69.9
      vertex 69.6677 29.2059 70
    endloop
  endfacet
  facet normal -0.940874 -0.338756 0
    outer loop
      vertex 69.6677 29.2059 70
      vertex 70.0667 28.0977 69.9
      vertex 70.0667 28.0977 70
    endloop
  endfacet
  facet normal 0 0 1
    outer loop
      vertex 69.6677 29.2059 70
      vertex 70.0667 28.0977 70
      vertex 69.6677 40.7941 70
    endloop
  endfacet
  facet normal -0.940874 0.338756 0
    outer loop
      vertex 69.6677 40.7941 69.9
      vertex 69.6677 40.7941 70
      vertex 70.0667 41.9023 70
    endloop
  endfacet
  facet normal -0.940874 0.338756 0
    outer loop
      vertex 69.6677 40.7941 69.9
      vertex 70.0667 41.9023 70
      vertex 70.0667 41.9023 69.9
    endloop
  endfacet
  facet normal -0 0 1
    outer loop
      vertex 69.6677 40.7941 70
      vertex 70.0667 28.0977 70
      vertex 70.0667 41.9023 70
    endloop
  endfacet
  facet normal -0.917765 -0.397124 0
    outer loop
      vertex 70.0667 28.0977 69.9
      vertex 70.5345 27.0166 69.9
      vertex 70.0667 28.0977 70
    endloop
  endfacet
  facet normal -0.917765 -0.397124 0
    outer loop
      vertex 70.0667 28.0977 70
      vertex 70.5345 27.0166 69.9
      vertex 70.5345 27.0166 70
    endloop
  endfacet
  facet normal 0 0 1
    outer loop
      vertex 70.0667 28.0977 70
      vertex 70.5345 27.0166 70
      vertex 70.0667 41.9023 70
    endloop
  endfacet
  facet normal -0.917765 0.397124 0
    outer loop
      vertex 70.0667 41.9023 69.9
      vertex 70.0667 41.9023 70
      vertex 70.5345 42.9834 70
    endloop
  endfacet
  facet normal -0.917765 0.397124 0
    outer loop
      vertex 70.0667 41.9023 69.9
      vertex 70.5345 42.9834 70
      vertex 70.5345 42.9834 69.9
    endloop
  endfacet
  facet normal -0 0 1
    outer loop
      vertex 70.0667 41.9023 70
      vertex 70.5345 27.0166 70
      vertex 70.5345 42.9834 70
    endloop
  endfacet
  facet normal -0.890988 -0.454026 0
    outer loop
      vertex 70.5345 27.0166 69.9
      vertex 71.0693 25.9671 69.9
      vertex 70.5345 27.0166 70
    endloop
  endfacet
  facet normal -0.890988 -0.454026 0
    outer loop
      vertex 70.5345 27.0166 70
      vertex 71.0693 25.9671 69.9
      vertex 71.0693 25.9671 70
    endloop
  endfacet
  facet normal 0 0 1
    outer loop
      vertex 70.5345 27.0166 70
      vertex 71.0693 25.9671 70
      vertex 70.5345 42.9834 70
    endloop
  endfacet
  facet normal -0.890988 0.454026 0
    outer loop
      vertex 70.5345 42.9834 69.9
      vertex 70.5345 42.9834 70
      vertex 71.0693 44.0329 70
    endloop
  endfacet
  facet normal -0.890988 0.454026 0
    outer loop
      vertex 70.5345 42.9834 69.9
      vertex 71.0693 44.0329 70
      vertex 71.0693 44.0329 69.9
    endloop
  endfacet
  facet normal -0 0 1
    outer loop
      vertex 70.5345 42.9834 70
      vertex 71.0693 25.9671 70
      vertex 71.0693 44.0329 70
    endloop
  endfacet
  facet normal -0.860749 -0.50903 0
    outer loop
      vertex 71.0693 25.9671 69.9
      vertex 71.6689 24.9532 69.9
      vertex 71.0693 25.9671 70
    endloop
  endfacet
  facet normal -0.860749 -0.50903 0
    outer loop
      vertex 71.0693 25.9671 70
      vertex 71.6689 24.9532 69.9
      vertex 71.6689 24.9532 70
    endloop
  endfacet
  facet normal 0 0 1
    outer loop
      vertex 71.0693 25.9671 70
      vertex 71.6689 24.9532 70
      vertex 71.0693 44.0329 70
    endloop
  endfacet
  facet normal -0.860749 0.50903 0
    outer loop
      vertex 71.0693 44.0329 69.9
      vertex 71.0693 44.0329 70
      vertex 71.6689 45.0468 70
    endloop
  endfacet
  facet normal -0.860749 0.50903 0
    outer loop
      vertex 71.0693 44.0329 69.9
      vertex 71.6689 45.0468 70
      vertex 71.6689 45.0468 69.9
    endloop
  endfacet
  facet normal -0 0 1
    outer loop
      vertex 71.0693 44.0329 70
      vertex 71.6689 24.9532 70
      vertex 71.6689 45.0468 70
    endloop
  endfacet
  facet normal -0.827106 -0.562045 0
    outer loop
      vertex 71.6689 24.9532 69.9
      vertex 72.3309 23.979 69.9
      vertex 71.6689 24.9532 70
    endloop
  endfacet
  facet normal -0.827106 -0.562045 0
    outer loop
      vertex 71.6689 24.9532 70
      vertex 72.3309 23.979 69.9
      vertex 72.3309 23.979 70
    endloop
  endfacet
  facet normal 0 0 1
    outer loop
      vertex 71.6689 24.9532 70
      vertex 72.3309 23.979 70
      vertex 71.6689 45.0468 70
    endloop
  endfacet
  facet normal -0.827106 0.562045 0
    outer loop
      vertex 71.6689 45.0468 69.9
      vertex 71.6689 45.0468 70
      vertex 72.3309 46.021 70
    endloop
  endfacet
  facet normal -0.827106 0.562045 0
    outer loop
      vertex 71.6689 45.0468 69.9
      vertex 72.3309 46.021 70
      vertex 72.3309 46.021 69.9
    endloop
  endfacet
  facet normal -0 0 1
    outer loop
      vertex 71.6689 45.0468 70
      vertex 72.3309 23.979 70
      vertex 72.3309 46.021 70
    endloop
  endfacet
  facet normal -0.790124 -0.612947 0
    outer loop
      vertex 72.3309 23.979 69.9
      vertex 73.0529 23.0483 69.9
      vertex 72.3309 23.979 70
    endloop
  endfacet
  facet normal -0.790124 -0.612947 0
    outer loop
      vertex 72.3309 23.979 70
      vertex 73.0529 23.0483 69.9
      vertex 73.0529 23.0483 70
    endloop
  endfacet
  facet normal 0 0 1
    outer loop
      vertex 72.3309 23.979 70
      vertex 73.0529 23.0483 70
      vertex 72.3309 46.021 70
    endloop
  endfacet
  facet normal -0.790124 0.612947 0
    outer loop
      vertex 72.3309 46.021 69.9
      vertex 72.3309 46.021 70
      vertex 73.0529 46.9517 70
    endloop
  endfacet
  facet normal -0.790124 0.612947 0
    outer loop
      vertex 72.3309 46.021 69.9
      vertex 73.0529 46.9517 70
      vertex 73.0529 46.9517 69.9
    endloop
  endfacet
  facet normal -0 0 1
    outer loop
      vertex 72.3309 46.021 70
      vertex 73.0529 23.0483 70
      vertex 73.0529 46.9517 70
    endloop
  endfacet
  facet normal -0.750152 -0.661265 0
    outer loop
      vertex 73.0529 23.0483 69.9
      vertex 73.8318 22.1647 69.9
      vertex 73.0529 23.0483 70
    endloop
  endfacet
  facet normal -0.750152 -0.661265 0
    outer loop
      vertex 73.0529 23.0483 70
      vertex 73.8318 22.1647 69.9
      vertex 73.8318 22.1647 70
    endloop
  endfacet
  facet normal 0 0 1
    outer loop
      vertex 73.0529 23.0483 70
      vertex 73.8318 22.1647 70
      vertex 73.0529 46.9517 70
    endloop
  endfacet
  facet normal -0.750152 0.661265 0
    outer loop
      vertex 73.0529 46.9517 69.9
      vertex 73.0529 46.9517 70
      vertex 73.8318 47.8353 70
    endloop
  endfacet
  facet normal -0.750152 0.661265 0
    outer loop
      vertex 73.0529 46.9517 69.9
      vertex 73.8318 47.8353 70
      vertex 73.8318 47.8353 69.9
    endloop
  endfacet
  facet normal -0 0 1
    outer loop
      vertex 73.0529 46.9517 70
      vertex 73.8318 22.1647 70
      vertex 73.8318 47.8353 70
    endloop
  endfacet
  facet normal -0.707107 -0.707107 0
    outer loop
      vertex 73.8318 22.1647 69.9
      vertex 74.6647 21.3318 69.9
      vertex 73.8318 22.1647 70
    endloop
  endfacet
  facet normal -0.707107 -0.707107 0
    outer loop
      vertex 73.8318 22.1647 70
      vertex 74.6647 21.3318 69.9
      vertex 74.6647 21.3318 70
    endloop
  endfacet
  facet normal 0 0 1
    outer loop
      vertex 73.8318 22.1647 70
      vertex 74.6647 21.3318 70
      vertex 73.8318 47.8353 70
    endloop
  endfacet
  facet normal -0.707107 0.707107 0
    outer loop
      vertex 73.8318 47.8353 69.9
      vertex 73.8318 47.8353 70
      vertex 74.6647 48.6682 70
    endloop
  endfacet
  facet normal -0.707107 0.707107 0
    outer loop
      vertex 73.8318 47.8353 69.9
      vertex 74.6647 48.6682 70
      vertex 74.6647 48.6682 69.9
    endloop
  endfacet
  facet normal -0 0 1
    outer loop
      vertex 73.8318 47.8353 70
      vertex 74.6647 21.3318 70
      vertex 74.6647 48.6682 70
    endloop
  endfacet
  facet normal -0.661265 -0.750152 -0
    outer loop
      vertex 74.6647 21.3318 69.9
      vertex 75.5483 20.5529 69.9
      vertex 75.5483 20.5529 70
    endloop
  endfacet
  facet normal -0.661265 -0.750152 0
    outer loop
      vertex 74.6647 21.3318 69.9
      vertex 75.5483 20.5529 70
      vertex 74.6647 21.3318 70
    endloop
  endfacet
  facet normal 0 0 1
    outer loop
      vertex 74.6647 21.3318 70
      vertex 75.5483 20.5529 70
      vertex 74.6647 48.6682 70
    endloop
  endfacet
  facet normal -0.661265 0.750152 0
    outer loop
      vertex 74.6647 48.6682 69.9
      vertex 74.6647 48.6682 70
      vertex 75.5483 49.4471 69.9
    endloop
  endfacet
  facet normal -0 0 1
    outer loop
      vertex 74.6647 48.6682 70
      vertex 75.5483 20.5529 70
      vertex 75.5483 49.4471 70
    endloop
  endfacet
  facet normal -0.661265 0.750152 0
    outer loop
      vertex 74.6647 48.6682 70
      vertex 75.5483 49.4471 70
      vertex 75.5483 49.4471 69.9
    endloop
  endfacet
  facet normal -0.612947 -0.790124 -0
    outer loop
      vertex 75.5483 20.5529 69.9
      vertex 76.479 19.8309 69.9
      vertex 76.479 19.8309 70
    endloop
  endfacet
  facet normal -0.612947 -0.790124 0
    outer loop
      vertex 75.5483 20.5529 69.9
      vertex 76.479 19.8309 70
      vertex 75.5483 20.5529 70
    endloop
  endfacet
  facet normal 0 0 1
    outer loop
      vertex 75.5483 20.5529 69.9
      vertex 78.5647 18.1677 69.9
      vertex 76.479 19.8309 69.9
    endloop
  endfacet
  facet normal 0 0 1
    outer loop
      vertex 75.5483 20.5529 70
      vertex 76.479 19.8309 70
      vertex 75.5483 49.4471 70
    endloop
  endfacet
  facet normal -0.612947 0.790124 0
    outer loop
      vertex 75.5483 49.4471 69.9
      vertex 75.5483 49.4471 70
      vertex 76.479 50.1691 69.9
    endloop
  endfacet
  facet normal -0 0 1
    outer loop
      vertex 75.5483 49.4471 70
      vertex 76.479 19.8309 70
      vertex 76.479 50.1691 70
    endloop
  endfacet
  facet normal -0.612947 0.790124 0
    outer loop
      vertex 75.5483 49.4471 70
      vertex 76.479 50.1691 70
      vertex 76.479 50.1691 69.9
    endloop
  endfacet
  facet normal -0.562103 -0.827067 -0
    outer loop
      vertex 76.479 19.8309 69.9
      vertex 77.4532 19.1688 69.9
      vertex 77.4532 19.1688 70
    endloop
  endfacet
  facet normal -0.562103 -0.827067 0
    outer loop
      vertex 76.479 19.8309 69.9
      vertex 77.4532 19.1688 70
      vertex 76.479 19.8309 70
    endloop
  endfacet
  facet normal 0 0 1
    outer loop
      vertex 76.479 19.8309 69.9
      vertex 78.5647 18.1677 69.9
      vertex 77.4532 19.1688 69.9
    endloop
  endfacet
  facet normal 0 0 1
    outer loop
      vertex 76.479 19.8309 70
      vertex 77.4532 19.1688 70
      vertex 76.479 50.1691 70
    endloop
  endfacet
  facet normal -0.562045 0.827106 0
    outer loop
      vertex 76.479 50.1691 69.9
      vertex 76.479 50.1691 70
      vertex 77.4532 50.8311 69.9
    endloop
  endfacet
  facet normal -0 0 1
    outer loop
      vertex 76.479 50.1691 70
      vertex 77.4532 19.1688 70
      vertex 77.4532 50.8311 70
    endloop
  endfacet
  facet normal -0.562045 0.827106 0
    outer loop
      vertex 76.479 50.1691 70
      vertex 77.4532 50.8311 70
      vertex 77.4532 50.8311 69.9
    endloop
  endfacet
  facet normal -0.50903 -0.860749 -0
    outer loop
      vertex 77.4532 19.1688 69.9
      vertex 78.4671 18.5692 69.9
      vertex 78.4671 18.5692 70
    endloop
  endfacet
  facet normal -0.50903 -0.860749 0
    outer loop
      vertex 77.4532 19.1688 69.9
      vertex 78.4671 18.5692 70
      vertex 77.4532 19.1688 70
    endloop
  endfacet
  facet normal 0 0 1
    outer loop
      vertex 77.4532 19.1688 69.9
      vertex 78.5647 18.1677 69.9
      vertex 78.4671 18.5692 69.9
    endloop
  endfacet
  facet normal 0 0 1
    outer loop
      vertex 77.4532 19.1688 70
      vertex 78.4671 18.5692 70
      vertex 77.4532 50.8311 70
    endloop
  endfacet
  facet normal -0.50903 0.860749 0
    outer loop
      vertex 77.4532 50.8311 69.9
      vertex 77.4532 50.8311 70
      vertex 78.4671 51.4307 69.9
    endloop
  endfacet
  facet normal -0 0 1
    outer loop
      vertex 77.4532 50.8311 70
      vertex 78.4671 18.5692 70
      vertex 78.4671 51.4307 70
    endloop
  endfacet
  facet normal -0.50903 0.860749 0
    outer loop
      vertex 77.4532 50.8311 70
      vertex 78.4671 51.4307 70
      vertex 78.4671 51.4307 69.9
    endloop
  endfacet
  facet normal 0 0 1
    outer loop
      vertex 78.4671 18.5692 69.9
      vertex 78.5647 18.1677 69.9
      vertex 78.6727 18.4645 69.9
    endloop
  endfacet
  facet normal -0.453789 -0.891109 0
    outer loop
      vertex 78.4671 18.5692 69.9
      vertex 78.6727 18.4645 69.9
      vertex 78.4671 18.5692 70
    endloop
  endfacet
  facet normal -0.453959 -0.891023 -0.000438677
    outer loop
      vertex 78.4671 18.5692 70
      vertex 78.6727 18.4645 69.9
      vertex 79.5166 18.0345 70
    endloop
  endfacet
  facet normal 0 0 1
    outer loop
      vertex 78.4671 18.5692 70
      vertex 79.5166 18.0345 70
      vertex 78.4671 51.4307 70
    endloop
  endfacet
  facet normal -0.454026 0.890988 0
    outer loop
      vertex 78.4671 51.4307 69.9
      vertex 78.4671 51.4307 70
      vertex 79.5166 51.9655 69.9
    endloop
  endfacet
  facet normal 0 0 1
    outer loop
      vertex 78.4671 51.4307 69.9
      vertex 79.5166 51.9655 69.9
      vertex 86.1 150 69.9
    endloop
  endfacet
  facet normal -0 0 1
    outer loop
      vertex 78.4671 51.4307 70
      vertex 79.5166 18.0345 70
      vertex 79.5166 51.9655 70
    endloop
  endfacet
  facet normal -0.454026 0.890988 0
    outer loop
      vertex 78.4671 51.4307 70
      vertex 79.5166 51.9655 70
      vertex 79.5166 51.9655 69.9
    endloop
  endfacet
  facet normal 0.939719 -0.341946 0
    outer loop
      vertex 78.5647 18.1677 45.8329
      vertex 78.6727 18.4645 45.8539
      vertex 78.5647 18.1677 69.9
    endloop
  endfacet
  facet normal -0.190878 2.97549e-06 0.981614
    outer loop
      vertex 78.5647 18.1677 45.8329
      vertex 79.5166 18.0345 46.018
      vertex 78.6727 18.4645 45.8539
    endloop
  endfacet
  facet normal -0.19093 -0.000382547 0.981604
    outer loop
      vertex 78.5647 18.1677 45.8329
      vertex 80.5977 17.5667 46.2281
      vertex 79.5166 18.0345 46.018
    endloop
  endfacet
  facet normal -0.190922 -0.000354663 0.981605
    outer loop
      vertex 78.5647 18.1677 45.8329
      vertex 81.7059 17.1677 46.4435
      vertex 80.5977 17.5667 46.2281
    endloop
  endfacet
  facet normal 0.939719 -0.341946 0
    outer loop
      vertex 78.5647 18.1677 69.9
      vertex 78.6727 18.4645 45.8539
      vertex 78.6727 18.4645 69.9
    endloop
  endfacet
  facet normal -0.454 -0.891002 0
    outer loop
      vertex 78.6727 18.4645 45.8539
      vertex 79.5166 18.0345 46.018
      vertex 78.6727 18.4645 69.9
    endloop
  endfacet
  facet normal -0.454 -0.891002 0
    outer loop
      vertex 78.6727 18.4645 69.9
      vertex 79.5166 18.0345 46.018
      vertex 79.5166 18.0345 70
    endloop
  endfacet
  facet normal -0.397124 -0.917765 0
    outer loop
      vertex 79.5166 18.0345 46.018
      vertex 80.5977 17.5667 46.2281
      vertex 79.5166 18.0345 70
    endloop
  endfacet
  facet normal -0.397124 -0.917765 0
    outer loop
      vertex 79.5166 18.0345 70
      vertex 80.5977 17.5667 46.2281
      vertex 80.5977 17.5667 70
    endloop
  endfacet
  facet normal 0 0 1
    outer loop
      vertex 79.5166 18.0345 70
      vertex 80.5977 17.5667 70
      vertex 79.5166 51.9655 70
    endloop
  endfacet
  facet normal -0.397124 0.917765 0
    outer loop
      vertex 79.5166 51.9655 69.9
      vertex 79.5166 51.9655 70
      vertex 80.5977 52.4333 69.9
    endloop
  endfacet
  facet normal 0 0 1
    outer loop
      vertex 79.5166 51.9655 69.9
      vertex 80.5977 52.4333 69.9
      vertex 86.1 150 69.9
    endloop
  endfacet
  facet normal -0 0 1
    outer loop
      vertex 79.5166 51.9655 70
      vertex 80.5977 17.5667 70
      vertex 80.5977 52.4333 70
    endloop
  endfacet
  facet normal -0.397124 0.917765 0
    outer loop
      vertex 79.5166 51.9655 70
      vertex 80.5977 52.4333 70
      vertex 80.5977 52.4333 69.9
    endloop
  endfacet
  facet normal -0.338756 -0.940874 0
    outer loop
      vertex 80.5977 17.5667 46.2281
      vertex 81.7059 17.1677 46.4435
      vertex 80.5977 17.5667 70
    endloop
  endfacet
  facet normal -0.338756 -0.940874 0
    outer loop
      vertex 80.5977 17.5667 70
      vertex 81.7059 17.1677 46.4435
      vertex 81.7059 17.1677 70
    endloop
  endfacet
  facet normal 0 0 1
    outer loop
      vertex 80.5977 17.5667 70
      vertex 81.7059 17.1677 70
      vertex 80.5977 52.4333 70
    endloop
  endfacet
  facet normal -0.338756 0.940874 0
    outer loop
      vertex 80.5977 52.4333 69.9
      vertex 80.5977 52.4333 70
      vertex 81.7059 52.8323 69.9
    endloop
  endfacet
  facet normal 0 0 1
    outer loop
      vertex 80.5977 52.4333 69.9
      vertex 81.7059 52.8323 69.9
      vertex 86.1 150 69.9
    endloop
  endfacet
  facet normal -0 0 1
    outer loop
      vertex 80.5977 52.4333 70
      vertex 81.7059 17.1677 70
      vertex 81.7059 52.8323 70
    endloop
  endfacet
  facet normal -0.338756 0.940874 0
    outer loop
      vertex 80.5977 52.4333 70
      vertex 81.7059 52.8323 70
      vertex 81.7059 52.8323 69.9
    endloop
  endfacet
  facet normal -0.278957 -0.960304 0
    outer loop
      vertex 81.7059 17.1677 46.4435
      vertex 82.8371 16.8391 46.6634
      vertex 81.7059 17.1677 70
    endloop
  endfacet
  facet normal -0.278957 -0.960304 0
    outer loop
      vertex 81.7059 17.1677 70
      vertex 82.8371 16.8391 46.6634
      vertex 82.8371 16.8391 70
    endloop
  endfacet
  facet normal 0 0 1
    outer loop
      vertex 81.7059 17.1677 70
      vertex 82.8371 16.8391 70
      vertex 81.7059 52.8323 70
    endloop
  endfacet
  facet normal -0.278957 0.960304 0
    outer loop
      vertex 81.7059 52.8323 69.9
      vertex 81.7059 52.8323 70
      vertex 82.8371 53.1609 69.9
    endloop
  endfacet
  facet normal 0 0 1
    outer loop
      vertex 81.7059 52.8323 69.9
      vertex 82.8371 53.1609 69.9
      vertex 86.1 150 69.9
    endloop
  endfacet
  facet normal -0 0 1
    outer loop
      vertex 81.7059 52.8323 70
      vertex 82.8371 16.8391 70
      vertex 82.8371 53.1609 70
    endloop
  endfacet
  facet normal -0.278957 0.960304 0
    outer loop
      vertex 81.7059 52.8323 70
      vertex 82.8371 53.1609 70
      vertex 82.8371 53.1609 69.9
    endloop
  endfacet
  facet normal -0.218189 -0.975907 0
    outer loop
      vertex 82.8371 16.8391 46.6634
      vertex 83.9866 16.5821 46.8868
      vertex 82.8371 16.8391 70
    endloop
  endfacet
  facet normal -0.218189 -0.975907 0
    outer loop
      vertex 82.8371 16.8391 70
      vertex 83.9866 16.5821 46.8868
      vertex 83.9866 16.5821 70
    endloop
  endfacet
  facet normal 0 0 1
    outer loop
      vertex 82.8371 16.8391 70
      vertex 83.9866 16.5821 70
      vertex 82.8371 53.1609 70
    endloop
  endfacet
  facet normal -0.218189 0.975907 0
    outer loop
      vertex 82.8371 53.1609 69.9
      vertex 82.8371 53.1609 70
      vertex 83.9866 53.4179 69.9
    endloop
  endfacet
  facet normal 0 0 1
    outer loop
      vertex 82.8371 53.1609 69.9
      vertex 83.9866 53.4179 69.9
      vertex 86.1 150 69.9
    endloop
  endfacet
  facet normal -0 0 1
    outer loop
      vertex 82.8371 53.1609 70
      vertex 83.9866 16.5821 70
      vertex 83.9866 53.4179 70
    endloop
  endfacet
  facet normal -0.218189 0.975907 0
    outer loop
      vertex 82.8371 53.1609 70
      vertex 83.9866 53.4179 70
      vertex 83.9866 53.4179 69.9
    endloop
  endfacet
  facet normal -0.156381 -0.987697 0
    outer loop
      vertex 83.9866 16.5821 46.8868
      vertex 85.15 16.3979 47.113
      vertex 83.9866 16.5821 70
    endloop
  endfacet
  facet normal -0.156381 -0.987697 0
    outer loop
      vertex 83.9866 16.5821 70
      vertex 85.15 16.3979 47.113
      vertex 85.15 16.3979 70
    endloop
  endfacet
  facet normal 0 0 1
    outer loop
      vertex 83.9866 16.5821 70
      vertex 85.15 16.3979 70
      vertex 83.9866 53.4179 70
    endloop
  endfacet
  facet normal -0.156381 0.987697 0
    outer loop
      vertex 83.9866 53.4179 69.9
      vertex 83.9866 53.4179 70
      vertex 85.15 53.6021 69.9
    endloop
  endfacet
  facet normal 0 0 1
    outer loop
      vertex 83.9866 53.4179 69.9
      vertex 85.15 53.6021 69.9
      vertex 86.1 150 69.9
    endloop
  endfacet
  facet normal -0 0 1
    outer loop
      vertex 83.9866 53.4179 70
      vertex 85.15 16.3979 70
      vertex 85.15 53.6021 70
    endloop
  endfacet
  facet normal -0.156381 0.987697 0
    outer loop
      vertex 83.9866 53.4179 70
      vertex 85.15 53.6021 70
      vertex 85.15 53.6021 69.9
    endloop
  endfacet
  facet normal -0.19075 0.000210681 0.981639
    outer loop
      vertex 85.15 16.3979 47.113
      vertex 141.52 0 58.0702
      vertex 86.3227 16.287 47.3409
    endloop
  endfacet
  facet normal -0.094148 -0.995558 0
    outer loop
      vertex 85.15 16.3979 47.113
      vertex 86.3227 16.287 47.3409
      vertex 85.15 16.3979 70
    endloop
  endfacet
  facet normal -0.094148 -0.995558 0
    outer loop
      vertex 85.15 16.3979 70
      vertex 86.3227 16.287 47.3409
      vertex 86.3227 16.287 70
    endloop
  endfacet
  facet normal 0 0 1
    outer loop
      vertex 85.15 16.3979 70
      vertex 86.3227 16.287 70
      vertex 85.15 53.6021 70
    endloop
  endfacet
  facet normal -0.0942107 0.995552 0
    outer loop
      vertex 85.15 53.6021 69.9
      vertex 85.15 53.6021 70
      vertex 86.1 53.692 69.9
    endloop
  endfacet
  facet normal 0 0 1
    outer loop
      vertex 85.15 53.6021 69.9
      vertex 86.1 53.692 69.9
      vertex 86.1 150 69.9
    endloop
  endfacet
  facet normal -0 0 1
    outer loop
      vertex 85.15 53.6021 70
      vertex 86.3227 16.287 70
      vertex 86.3227 53.713 70
    endloop
  endfacet
  facet normal -0.094148 0.995558 0.000600459
    outer loop
      vertex 85.15 53.6021 70
      vertex 86.3227 53.713 70
      vertex 86.1 53.692 69.9
    endloop
  endfacet
  facet normal 0 1 0
    outer loop
      vertex 86.1 150 69.8
      vertex 106.1 150 69.8
      vertex 106.1 150 51.1853
    endloop
  endfacet
  facet normal 0 0 1
    outer loop
      vertex 86.1 150 69.8
      vertex 86.3227 53.713 69.8
      vertex 87.5 53.75 69.8
    endloop
  endfacet
  facet normal 0 0 1
    outer loop
      vertex 86.1 150 69.8
      vertex 87.5 53.75 69.8
      vertex 88.6773 53.713 69.8
    endloop
  endfacet
  facet normal 0 0 1
    outer loop
      vertex 86.1 150 69.8
      vertex 88.6773 53.713 69.8
      vertex 89.85 53.6021 69.8
    endloop
  endfacet
  facet normal -0 0 1
    outer loop
      vertex 86.1 150 69.8
      vertex 89.85 53.6021 69.8
      vertex 106.1 150 69.8
    endloop
  endfacet
  facet normal 1 0 0
    outer loop
      vertex 86.1 53.692 69.8
      vertex 86.1 150 69.8
      vertex 86.1 53.692 69.9
    endloop
  endfacet
  facet normal -0.0938808 0.995583 0
    outer loop
      vertex 86.1 53.692 69.8
      vertex 86.1 53.692 69.9
      vertex 86.3227 53.713 69.8
    endloop
  endfacet
  facet normal 0 0 1
    outer loop
      vertex 86.1 53.692 69.8
      vertex 86.3227 53.713 69.8
      vertex 86.1 150 69.8
    endloop
  endfacet
  facet normal 1 -0 0
    outer loop
      vertex 86.1 53.692 69.9
      vertex 86.1 150 69.8
      vertex 86.1 150 69.9
    endloop
  endfacet
  facet normal -0.0938808 0.995583 0
    outer loop
      vertex 86.1 53.692 69.9
      vertex 86.3227 53.713 70
      vertex 86.3227 53.713 69.8
    endloop
  endfacet
  facet normal -0.190859 -0.000175159 0.981617
    outer loop
      vertex 86.3227 16.287 47.3409
      vertex 141.52 0 58.0702
      vertex 87.5 16.25 47.5698
    endloop
  endfacet
  facet normal -0.0314123 -0.999507 0
    outer loop
      vertex 86.3227 16.287 47.3409
      vertex 87.5 16.25 47.5698
      vertex 86.3227 16.287 70
    endloop
  endfacet
  facet normal -0.0314123 -0.999507 0
    outer loop
      vertex 86.3227 16.287 70
      vertex 87.5 16.25 47.5698
      vertex 87.5 16.25 70
    endloop
  endfacet
  facet normal 0 0 1
    outer loop
      vertex 86.3227 16.287 70
      vertex 87.5 16.25 70
      vertex 86.3227 53.713 70
    endloop
  endfacet
  facet normal -0.0314123 0.999507 0
    outer loop
      vertex 86.3227 53.713 69.8
      vertex 86.3227 53.713 70
      vertex 87.5 53.75 69.8
    endloop
  endfacet
  facet normal -0 0 1
    outer loop
      vertex 86.3227 53.713 70
      vertex 87.5 16.25 70
      vertex 87.5 53.75 70
    endloop
  endfacet
  facet normal -0.0314123 0.999507 0
    outer loop
      vertex 86.3227 53.713 70
      vertex 87.5 53.75 70
      vertex 87.5 53.75 69.8
    endloop
  endfacet
  facet normal -0.190777 0.000108938 0.981633
    outer loop
      vertex 87.5 16.25 47.5698
      vertex 141.52 0 58.0702
      vertex 88.6773 16.287 47.7986
    endloop
  endfacet
  facet normal 0.0314123 -0.999507 0
    outer loop
      vertex 87.5 16.25 47.5698
      vertex 88.6773 16.287 47.7986
      vertex 87.5 16.25 70
    endloop
  endfacet
  facet normal 0.0314123 -0.999507 0
    outer loop
      vertex 87.5 16.25 70
      vertex 88.6773 16.287 47.7986
      vertex 88.6773 16.287 70
    endloop
  endfacet
  facet normal 0 0 1
    outer loop
      vertex 87.5 16.25 70
      vertex 88.6773 16.287 70
      vertex 87.5 53.75 70
    endloop
  endfacet
  facet normal 0.0314123 0.999507 0
    outer loop
      vertex 87.5 53.75 69.8
      vertex 87.5 53.75 70
      vertex 88.6773 53.713 69.8
    endloop
  endfacet
  facet normal 0 0 1
    outer loop
      vertex 87.5 53.75 70
      vertex 88.6773 16.287 70
      vertex 88.6773 53.713 70
    endloop
  endfacet
  facet normal 0.0314123 0.999507 -0
    outer loop
      vertex 87.5 53.75 70
      vertex 88.6773 53.713 70
      vertex 88.6773 53.713 69.8
    endloop
  endfacet
  facet normal -0.19084 -0.000103443 0.981621
    outer loop
      vertex 88.6773 16.287 47.7986
      vertex 141.52 0 58.0702
      vertex 89.85 16.3979 48.0266
    endloop
  endfacet
  facet normal 0.094148 -0.995558 0
    outer loop
      vertex 88.6773 16.287 47.7986
      vertex 89.85 16.3979 48.0266
      vertex 88.6773 16.287 70
    endloop
  endfacet
  facet normal 0.094148 -0.995558 0
    outer loop
      vertex 88.6773 16.287 70
      vertex 89.85 16.3979 48.0266
      vertex 89.85 16.3979 70
    endloop
  endfacet
  facet normal 0 0 1
    outer loop
      vertex 88.6773 16.287 70
      vertex 89.85 16.3979 70
      vertex 88.6773 53.713 70
    endloop
  endfacet
  facet normal 0.094148 0.995558 0
    outer loop
      vertex 88.6773 53.713 69.8
      vertex 88.6773 53.713 70
      vertex 89.85 53.6021 69.8
    endloop
  endfacet
  facet normal 0 0 1
    outer loop
      vertex 88.6773 53.713 70
      vertex 89.85 16.3979 70
      vertex 89.85 53.6021 70
    endloop
  endfacet
  facet normal 0.094148 0.995558 -0
    outer loop
      vertex 88.6773 53.713 70
      vertex 89.85 53.6021 70
      vertex 89.85 53.6021 69.8
    endloop
  endfacet
  facet normal -0.190786 7.3369e-05 0.981632
    outer loop
      vertex 89.85 16.3979 48.0266
      vertex 141.52 0 58.0702
      vertex 91.0134 16.5821 48.2527
    endloop
  endfacet
  facet normal 0.156381 -0.987697 0
    outer loop
      vertex 89.85 16.3979 48.0266
      vertex 91.0134 16.5821 48.2527
      vertex 89.85 16.3979 70
    endloop
  endfacet
  facet normal 0.156381 -0.987697 0
    outer loop
      vertex 89.85 16.3979 70
      vertex 91.0134 16.5821 48.2527
      vertex 91.0134 16.5821 70
    endloop
  endfacet
  facet normal 0 0 1
    outer loop
      vertex 89.85 16.3979 70
      vertex 91.0134 16.5821 70
      vertex 89.85 53.6021 70
    endloop
  endfacet
  facet normal 0.156381 0.987697 0
    outer loop
      vertex 89.85 53.6021 69.8
      vertex 89.85 53.6021 70
      vertex 91.0134 53.4179 69.8
    endloop
  endfacet
  facet normal 0 0 1
    outer loop
      vertex 89.85 53.6021 69.8
      vertex 91.0134 53.4179 69.8
      vertex 106.1 150 69.8
    endloop
  endfacet
  facet normal 0 0 1
    outer loop
      vertex 89.85 53.6021 70
      vertex 91.0134 16.5821 70
      vertex 91.0134 53.4179 70
    endloop
  endfacet
  facet normal 0.156381 0.987697 -0
    outer loop
      vertex 89.85 53.6021 70
      vertex 91.0134 53.4179 70
      vertex 91.0134 53.4179 69.8
    endloop
  endfacet
  facet normal -0.190838 -9.21795e-05 0.981621
    outer loop
      vertex 91.0134 16.5821 48.2527
      vertex 141.52 0 58.0702
      vertex 92.1629 16.8391 48.4762
    endloop
  endfacet
  facet normal 0.218189 -0.975907 0
    outer loop
      vertex 91.0134 16.5821 48.2527
      vertex 92.1629 16.8391 48.4762
      vertex 91.0134 16.5821 70
    endloop
  endfacet
  facet normal 0.218189 -0.975907 0
    outer loop
      vertex 91.0134 16.5821 70
      vertex 92.1629 16.8391 48.4762
      vertex 92.1629 16.8391 70
    endloop
  endfacet
  facet normal 0 0 1
    outer loop
      vertex 91.0134 16.5821 70
      vertex 92.1629 16.8391 70
      vertex 91.0134 53.4179 70
    endloop
  endfacet
  facet normal 0.218189 0.975907 0
    outer loop
      vertex 91.0134 53.4179 69.8
      vertex 91.0134 53.4179 70
      vertex 92.1629 53.1609 69.8
    endloop
  endfacet
  facet normal 0 0 1
    outer loop
      vertex 91.0134 53.4179 69.8
      vertex 92.1629 53.1609 69.8
      vertex 106.1 150 69.8
    endloop
  endfacet
  facet normal 0 0 1
    outer loop
      vertex 91.0134 53.4179 70
      vertex 92.1629 16.8391 70
      vertex 92.1629 53.1609 70
    endloop
  endfacet
  facet normal 0.218189 0.975907 -0
    outer loop
      vertex 91.0134 53.4179 70
      vertex 92.1629 53.1609 70
      vertex 92.1629 53.1609 69.8
    endloop
  endfacet
  facet normal -0.190771 0.000112512 0.981635
    outer loop
      vertex 92.1629 16.8391 48.4762
      vertex 141.52 0 58.0702
      vertex 93.2941 17.1677 48.696
    endloop
  endfacet
  facet normal 0.278957 -0.960304 0
    outer loop
      vertex 92.1629 16.8391 48.4762
      vertex 93.2941 17.1677 48.696
      vertex 92.1629 16.8391 70
    endloop
  endfacet
  facet normal 0.278957 -0.960304 0
    outer loop
      vertex 92.1629 16.8391 70
      vertex 93.2941 17.1677 48.696
      vertex 93.2941 17.1677 70
    endloop
  endfacet
  facet normal 0 0 1
    outer loop
      vertex 92.1629 16.8391 70
      vertex 93.2941 17.1677 70
      vertex 92.1629 53.1609 70
    endloop
  endfacet
  facet normal 0.278957 0.960304 0
    outer loop
      vertex 92.1629 53.1609 69.8
      vertex 92.1629 53.1609 70
      vertex 93.2941 52.8323 69.8
    endloop
  endfacet
  facet normal 0 0 1
    outer loop
      vertex 92.1629 53.1609 69.8
      vertex 93.2941 52.8323 69.8
      vertex 106.1 150 69.8
    endloop
  endfacet
  facet normal 0 0 1
    outer loop
      vertex 92.1629 53.1609 70
      vertex 93.2941 17.1677 70
      vertex 93.2941 52.8323 70
    endloop
  endfacet
  facet normal 0.278957 0.960304 -0
    outer loop
      vertex 92.1629 53.1609 70
      vertex 93.2941 52.8323 70
      vertex 93.2941 52.8323 69.8
    endloop
  endfacet
  facet normal -0.190847 -0.000107557 0.98162
    outer loop
      vertex 93.2941 17.1677 48.696
      vertex 141.52 0 58.0702
      vertex 94.4023 17.5667 48.9115
    endloop
  endfacet
  facet normal 0.338756 -0.940874 0
    outer loop
      vertex 93.2941 17.1677 48.696
      vertex 94.4023 17.5667 48.9115
      vertex 93.2941 17.1677 70
    endloop
  endfacet
  facet normal 0.338756 -0.940874 0
    outer loop
      vertex 93.2941 17.1677 70
      vertex 94.4023 17.5667 48.9115
      vertex 94.4023 17.5667 70
    endloop
  endfacet
  facet normal 0 0 1
    outer loop
      vertex 93.2941 17.1677 70
      vertex 94.4023 17.5667 70
      vertex 93.2941 52.8323 70
    endloop
  endfacet
  facet normal 0.338756 0.940874 0
    outer loop
      vertex 93.2941 52.8323 69.8
      vertex 93.2941 52.8323 70
      vertex 94.4023 52.4333 69.8
    endloop
  endfacet
  facet normal 0 0 1
    outer loop
      vertex 93.2941 52.8323 69.8
      vertex 94.4023 52.4333 69.8
      vertex 106.1 150 69.8
    endloop
  endfacet
  facet normal 0 0 1
    outer loop
      vertex 93.2941 52.8323 70
      vertex 94.4023 17.5667 70
      vertex 94.4023 52.4333 70
    endloop
  endfacet
  facet normal 0.338756 0.940874 -0
    outer loop
      vertex 93.2941 52.8323 70
      vertex 94.4023 52.4333 70
      vertex 94.4023 52.4333 69.8
    endloop
  endfacet
  facet normal -0.19079 4.88459e-05 0.981631
    outer loop
      vertex 94.4023 17.5667 48.9115
      vertex 141.52 0 58.0702
      vertex 95.4834 18.0345 49.1216
    endloop
  endfacet
  facet normal 0.397124 -0.917765 0
    outer loop
      vertex 94.4023 17.5667 48.9115
      vertex 95.4834 18.0345 49.1216
      vertex 94.4023 17.5667 70
    endloop
  endfacet
  facet normal 0.397124 -0.917765 0
    outer loop
      vertex 94.4023 17.5667 70
      vertex 95.4834 18.0345 49.1216
      vertex 95.4834 18.0345 70
    endloop
  endfacet
  facet normal 0 0 1
    outer loop
      vertex 94.4023 17.5667 70
      vertex 95.4834 18.0345 70
      vertex 94.4023 52.4333 70
    endloop
  endfacet
  facet normal 0.397124 0.917765 0
    outer loop
      vertex 94.4023 52.4333 69.8
      vertex 94.4023 52.4333 70
      vertex 95.4834 51.9655 69.8
    endloop
  endfacet
  facet normal 0 0 1
    outer loop
      vertex 94.4023 52.4333 69.8
      vertex 95.4834 51.9655 69.8
      vertex 106.1 150 69.8
    endloop
  endfacet
  facet normal 0 0 1
    outer loop
      vertex 94.4023 52.4333 70
      vertex 95.4834 18.0345 70
      vertex 95.4834 51.9655 70
    endloop
  endfacet
  facet normal 0.397124 0.917765 -0
    outer loop
      vertex 94.4023 52.4333 70
      vertex 95.4834 51.9655 70
      vertex 95.4834 51.9655 69.8
    endloop
  endfacet
  facet normal -0.190808 2.01317e-06 0.981627
    outer loop
      vertex 95.4834 18.0345 49.1216
      vertex 141.52 0 58.0702
      vertex 96.5329 18.5692 49.3256
    endloop
  endfacet
  facet normal 0.453959 -0.891023 0
    outer loop
      vertex 95.4834 18.0345 49.1216
      vertex 96.5329 18.5692 49.3256
      vertex 95.4834 18.0345 70
    endloop
  endfacet
  facet normal 0.453959 -0.891023 0
    outer loop
      vertex 95.4834 18.0345 70
      vertex 96.5329 18.5692 49.3256
      vertex 96.5329 18.5692 70
    endloop
  endfacet
  facet normal 0 0 1
    outer loop
      vertex 95.4834 18.0345 70
      vertex 96.5329 18.5692 70
      vertex 95.4834 51.9655 70
    endloop
  endfacet
  facet normal 0.454026 0.890988 0
    outer loop
      vertex 95.4834 51.9655 69.8
      vertex 95.4834 51.9655 70
      vertex 96.5329 51.4307 69.8
    endloop
  endfacet
  facet normal 0 0 1
    outer loop
      vertex 95.4834 51.9655 69.8
      vertex 96.5329 51.4307 69.8
      vertex 106.1 150 69.8
    endloop
  endfacet
  facet normal 0 0 1
    outer loop
      vertex 95.4834 51.9655 70
      vertex 96.5329 18.5692 70
      vertex 96.5329 51.4307 70
    endloop
  endfacet
  facet normal 0.454026 0.890988 -0
    outer loop
      vertex 95.4834 51.9655 70
      vertex 96.5329 51.4307 70
      vertex 96.5329 51.4307 69.8
    endloop
  endfacet
  facet normal -0.190816 -1.73058e-05 0.981626
    outer loop
      vertex 96.5329 18.5692 49.3256
      vertex 141.52 0 58.0702
      vertex 97.5468 19.1688 49.5227
    endloop
  endfacet
  facet normal 0.50903 -0.860749 0
    outer loop
      vertex 96.5329 18.5692 49.3256
      vertex 97.5468 19.1688 49.5227
      vertex 96.5329 18.5692 70
    endloop
  endfacet
  facet normal 0.50903 -0.860749 0
    outer loop
      vertex 96.5329 18.5692 70
      vertex 97.5468 19.1688 49.5227
      vertex 97.5468 19.1688 70
    endloop
  endfacet
  facet normal 0 0 1
    outer loop
      vertex 96.5329 18.5692 70
      vertex 97.5468 19.1688 70
      vertex 96.5329 51.4307 70
    endloop
  endfacet
  facet normal 0.50903 0.860749 0
    outer loop
      vertex 96.5329 51.4307 69.8
      vertex 96.5329 51.4307 70
      vertex 97.5468 50.8311 69.8
    endloop
  endfacet
  facet normal 0 0 1
    outer loop
      vertex 96.5329 51.4307 69.8
      vertex 97.5468 50.8311 69.8
      vertex 106.1 150 69.8
    endloop
  endfacet
  facet normal 0 0 1
    outer loop
      vertex 96.5329 51.4307 70
      vertex 97.5468 19.1688 70
      vertex 97.5468 50.8311 70
    endloop
  endfacet
  facet normal 0.50903 0.860749 -0
    outer loop
      vertex 96.5329 51.4307 70
      vertex 97.5468 50.8311 70
      vertex 97.5468 50.8311 69.8
    endloop
  endfacet
  facet normal -0.190784 5.84954e-05 0.981632
    outer loop
      vertex 97.5468 19.1688 49.5227
      vertex 141.52 0 58.0702
      vertex 98.521 19.8309 49.712
    endloop
  endfacet
  facet normal 0.562103 -0.827067 0
    outer loop
      vertex 97.5468 19.1688 49.5227
      vertex 98.521 19.8309 49.712
      vertex 97.5468 19.1688 70
    endloop
  endfacet
  facet normal 0.562103 -0.827067 0
    outer loop
      vertex 97.5468 19.1688 70
      vertex 98.521 19.8309 49.712
      vertex 98.521 19.8309 70
    endloop
  endfacet
  facet normal 0 0 1
    outer loop
      vertex 97.5468 19.1688 70
      vertex 98.521 19.8309 70
      vertex 97.5468 50.8311 70
    endloop
  endfacet
  facet normal 0.562045 0.827106 0
    outer loop
      vertex 97.5468 50.8311 69.8
      vertex 97.5468 50.8311 70
      vertex 98.521 50.1691 69.8
    endloop
  endfacet
  facet normal 0 0 1
    outer loop
      vertex 97.5468 50.8311 69.8
      vertex 98.521 50.1691 69.8
      vertex 106.1 150 69.8
    endloop
  endfacet
  facet normal 0 0 1
    outer loop
      vertex 97.5468 50.8311 70
      vertex 98.521 19.8309 70
      vertex 98.521 50.1691 70
    endloop
  endfacet
  facet normal 0.562045 0.827106 -0
    outer loop
      vertex 97.5468 50.8311 70
      vertex 98.521 50.1691 70
      vertex 98.521 50.1691 69.8
    endloop
  endfacet
  facet normal -0.190844 -7.61918e-05 0.98162
    outer loop
      vertex 98.521 19.8309 49.712
      vertex 141.52 0 58.0702
      vertex 99.4517 20.5529 49.893
    endloop
  endfacet
  facet normal 0.612947 -0.790124 0
    outer loop
      vertex 98.521 19.8309 49.712
      vertex 99.4517 20.5529 49.893
      vertex 98.521 19.8309 70
    endloop
  endfacet
  facet normal 0.612947 -0.790124 0
    outer loop
      vertex 98.521 19.8309 70
      vertex 99.4517 20.5529 49.893
      vertex 99.4517 20.5529 70
    endloop
  endfacet
  facet normal 0 0 1
    outer loop
      vertex 98.521 19.8309 70
      vertex 99.4517 20.5529 70
      vertex 98.521 50.1691 70
    endloop
  endfacet
  facet normal 0.612947 0.790124 0
    outer loop
      vertex 98.521 50.1691 69.8
      vertex 98.521 50.1691 70
      vertex 99.4517 49.4471 69.8
    endloop
  endfacet
  facet normal 0 0 1
    outer loop
      vertex 98.521 50.1691 69.8
      vertex 99.4517 49.4471 69.8
      vertex 106.1 150 69.8
    endloop
  endfacet
  facet normal 0 0 1
    outer loop
      vertex 98.521 50.1691 70
      vertex 99.4517 20.5529 70
      vertex 99.4517 49.4471 70
    endloop
  endfacet
  facet normal 0.612947 0.790124 -0
    outer loop
      vertex 98.521 50.1691 70
      vertex 99.4517 49.4471 70
      vertex 99.4517 49.4471 69.8
    endloop
  endfacet
  facet normal 0.661391 -0.750041 0
    outer loop
      vertex 99.4517 20.5529 49.893
      vertex 100.335 21.3318 50.0647
      vertex 99.4517 20.5529 70
    endloop
  endfacet
  facet normal -0.19081 -3.97787e-06 0.981627
    outer loop
      vertex 99.4517 20.5529 49.893
      vertex 141.52 0 58.0702
      vertex 100.335 21.3318 50.0647
    endloop
  endfacet
  facet normal 0.661391 -0.750041 0
    outer loop
      vertex 99.4517 20.5529 70
      vertex 100.335 21.3318 50.0647
      vertex 100.335 21.3318 70
    endloop
  endfacet
  facet normal 0 0 1
    outer loop
      vertex 99.4517 20.5529 70
      vertex 100.335 21.3318 70
      vertex 99.4517 49.4471 70
    endloop
  endfacet
  facet normal 0 0 1
    outer loop
      vertex 99.4517 49.4471 69.8
      vertex 100.335 48.6682 69.8
      vertex 106.1 150 69.8
    endloop
  endfacet
  facet normal 0.661391 0.750041 0
    outer loop
      vertex 99.4517 49.4471 69.8
      vertex 99.4517 49.4471 70
      vertex 100.335 48.6682 69.8
    endloop
  endfacet
  facet normal 0 0 1
    outer loop
      vertex 99.4517 49.4471 70
      vertex 100.335 21.3318 70
      vertex 100.335 48.6682 70
    endloop
  endfacet
  facet normal 0.661391 0.750041 -0
    outer loop
      vertex 99.4517 49.4471 70
      vertex 100.335 48.6682 70
      vertex 100.335 48.6682 69.8
    endloop
  endfacet
endsolid model
