solid model
  facet normal 0 1 0
    outer loop
      vertex -0.254301 -4.04201 0
      vertex -0.254301 -4.04201 8.6
      vertex 0.254301 -4.04201 0
    endloop
  endfacet
  facet normal 0 0 -1
    outer loop
      vertex -0.254301 -4.04201 0
      vertex 0.254301 -4.04201 0
      vertex 0.475637 -7.56005 0
    endloop
  endfacet
  facet normal 0 1 -0
    outer loop
      vertex -0.254301 -4.04201 8.6
      vertex 0.254301 -4.04201 8.6
      vertex 0.254301 -4.04201 0
    endloop
  endfacet
  facet normal -0 0 1
    outer loop
      vertex -0.254301 -4.04201 8.6
      vertex 0.381452 -6.06301 8.6
      vertex 0.254301 -4.04201 8.6
    endloop
  endfacet
  facet normal 0 -1 -0
    outer loop
      vertex -0.254301 4.04201 0
      vertex 0.254301 4.04201 0
      vertex 0.254301 4.04201 8.6
    endloop
  endfacet
  facet normal 0 -1 0
    outer loop
      vertex -0.254301 4.04201 0
      vertex 0.254301 4.04201 8.6
      vertex -0.254301 4.04201 8.6
    endloop
  endfacet
  facet normal 0 0 -1
    outer loop
      vertex -0.254301 4.04201 0
      vertex 0.475637 7.56005 0
      vertex 0.254301 4.04201 0
    endloop
  endfacet
  facet normal 0 0 1
    outer loop
      vertex -0.254301 4.04201 8.6
      vertex 0.254301 4.04201 8.6
      vertex 0.381452 6.06301 8.6
    endloop
  endfacet
  facet normal 0 -1 -0
    outer loop
      vertex -0.381452 -6.06301 1.5
      vertex 0.381452 -6.06301 1.5
      vertex 0.381452 -6.06301 8.6
    endloop
  endfacet
  facet normal 0 -1 0
    outer loop
      vertex -0.381452 -6.06301 1.5
      vertex 0.381452 -6.06301 8.6
      vertex -0.381452 -6.06301 8.6
    endloop
  endfacet
  facet normal -0 0 1
    outer loop
      vertex -0.381452 -6.06301 1.5
      vertex 0.475637 -7.56005 1.5
      vertex 0.381452 -6.06301 1.5
    endloop
  endfacet
  facet normal 0 0 1
    outer loop
      vertex -0.381452 -6.06301 8.6
      vertex 0.381452 -6.06301 8.6
      vertex -0.254301 -4.04201 8.6
    endloop
  endfacet
  facet normal 0 1 0
    outer loop
      vertex -0.381452 6.06301 1.5
      vertex -0.381452 6.06301 8.6
      vertex 0.381452 6.06301 1.5
    endloop
  endfacet
  facet normal 0 0 1
    outer loop
      vertex -0.381452 6.06301 1.5
      vertex 0.381452 6.06301 1.5
      vertex 0.475637 7.56005 1.5
    endloop
  endfacet
  facet normal -0 0 1
    outer loop
      vertex -0.381452 6.06301 8.6
      vertex -0.254301 4.04201 8.6
      vertex 0.381452 6.06301 8.6
    endloop
  endfacet
  facet normal 0 1 -0
    outer loop
      vertex -0.381452 6.06301 8.6
      vertex 0.381452 6.06301 8.6
      vertex 0.381452 6.06301 1.5
    endloop
  endfacet
  facet normal 0 0 -1
    outer loop
      vertex -0.475637 -7.56005 0
      vertex -0.254301 -4.04201 0
      vertex 0.475637 -7.56005 0
    endloop
  endfacet
  facet normal 0 -1 -0
    outer loop
      vertex -0.475637 -7.56005 0
      vertex 0.475637 -7.56005 0
      vertex 0.475637 -7.56005 1.5
    endloop
  endfacet
  facet normal 0 -1 0
    outer loop
      vertex -0.475637 -7.56005 0
      vertex 0.475637 -7.56005 1.5
      vertex -0.475637 -7.56005 1.5
    endloop
  endfacet
  facet normal 0 0 1
    outer loop
      vertex -0.475637 -7.56005 1.5
      vertex 0.475637 -7.56005 1.5
      vertex -0.381452 -6.06301 1.5
    endloop
  endfacet
  facet normal 0 1 0
    outer loop
      vertex -0.475637 7.56005 0
      vertex -0.475637 7.56005 1.5
      vertex 0.475637 7.56005 0
    endloop
  endfacet
  facet normal 0 0 -1
    outer loop
      vertex -0.475637 7.56005 0
      vertex 0.475637 7.56005 0
      vertex -0.254301 4.04201 0
    endloop
  endfacet
  facet normal -0 0 1
    outer loop
      vertex -0.475637 7.56005 1.5
      vertex -0.381452 6.06301 1.5
      vertex 0.475637 7.56005 1.5
    endloop
  endfacet
  facet normal 0 1 -0
    outer loop
      vertex -0.475637 7.56005 1.5
      vertex 0.475637 7.56005 1.5
      vertex 0.475637 7.56005 0
    endloop
  endfacet
  facet normal 0 0 -1
    outer loop
      vertex -0.758894 -3.97826 0
      vertex -0.254301 -4.04201 0
      vertex -0.475637 -7.56005 0
    endloop
  endfacet
  facet normal 0.125333 0.992115 0
    outer loop
      vertex -0.758894 -3.97826 0
      vertex -0.758894 -3.97826 8.6
      vertex -0.254301 -4.04201 0
    endloop
  endfacet
  facet normal 0.125333 0.992115 -0
    outer loop
      vertex -0.758894 -3.97826 8.6
      vertex -0.254301 -4.04201 8.6
      vertex -0.254301 -4.04201 0
    endloop
  endfacet
  facet normal 0 0 1
    outer loop
      vertex -0.758894 -3.97826 8.6
      vertex -0.381452 -6.06301 8.6
      vertex -0.254301 -4.04201 8.6
    endloop
  endfacet
  facet normal 0.125333 -0.992115 0
    outer loop
      vertex -0.758894 3.97826 0
      vertex -0.254301 4.04201 0
      vertex -0.254301 4.04201 8.6
    endloop
  endfacet
  facet normal 0.125333 -0.992115 0
    outer loop
      vertex -0.758894 3.97826 0
      vertex -0.254301 4.04201 8.6
      vertex -0.758894 3.97826 8.6
    endloop
  endfacet
  facet normal 0 0 -1
    outer loop
      vertex -0.758894 3.97826 0
      vertex -0.475637 7.56005 0
      vertex -0.254301 4.04201 0
    endloop
  endfacet
  facet normal 0 0 1
    outer loop
      vertex -0.758894 3.97826 8.6
      vertex -0.254301 4.04201 8.6
      vertex -0.381452 6.06301 8.6
    endloop
  endfacet
  facet normal -0.125333 -0.992115 -0
    outer loop
      vertex -1.13834 -5.96739 1.5
      vertex -0.381452 -6.06301 1.5
      vertex -0.381452 -6.06301 8.6
    endloop
  endfacet
  facet normal -0.125333 -0.992115 0
    outer loop
      vertex -1.13834 -5.96739 1.5
      vertex -0.381452 -6.06301 8.6
      vertex -1.13834 -5.96739 8.6
    endloop
  endfacet
  facet normal 0 0 1
    outer loop
      vertex -1.13834 -5.96739 1.5
      vertex -0.475637 -7.56005 1.5
      vertex -0.381452 -6.06301 1.5
    endloop
  endfacet
  facet normal 0 0 1
    outer loop
      vertex -1.13834 -5.96739 8.6
      vertex -0.381452 -6.06301 8.6
      vertex -0.758894 -3.97826 8.6
    endloop
  endfacet
  facet normal 0 0 1
    outer loop
      vertex -1.13834 5.96739 1.5
      vertex -0.381452 6.06301 1.5
      vertex -0.475637 7.56005 1.5
    endloop
  endfacet
  facet normal -0.125333 0.992115 0
    outer loop
      vertex -1.13834 5.96739 1.5
      vertex -1.13834 5.96739 8.6
      vertex -0.381452 6.06301 1.5
    endloop
  endfacet
  facet normal -0.125333 0.992115 0
    outer loop
      vertex -1.13834 5.96739 8.6
      vertex -0.381452 6.06301 8.6
      vertex -0.381452 6.06301 1.5
    endloop
  endfacet
  facet normal -0 0 1
    outer loop
      vertex -1.13834 5.96739 8.6
      vertex -0.758894 3.97826 8.6
      vertex -0.381452 6.06301 8.6
    endloop
  endfacet
  facet normal 0.248691 0.968583 0
    outer loop
      vertex -1.25152 -3.85178 0
      vertex -1.25152 -3.85178 8.6
      vertex -0.758894 -3.97826 0
    endloop
  endfacet
  facet normal 0.248691 0.968583 -0
    outer loop
      vertex -1.25152 -3.85178 8.6
      vertex -0.758894 -3.97826 8.6
      vertex -0.758894 -3.97826 0
    endloop
  endfacet
  facet normal 0 0 1
    outer loop
      vertex -1.25152 -3.85178 8.6
      vertex -1.13834 -5.96739 8.6
      vertex -0.758894 -3.97826 8.6
    endloop
  endfacet
  facet normal 0.248691 -0.968583 0
    outer loop
      vertex -1.25152 3.85178 0
      vertex -0.758894 3.97826 0
      vertex -0.758894 3.97826 8.6
    endloop
  endfacet
  facet normal 0.248691 -0.968583 0
    outer loop
      vertex -1.25152 3.85178 0
      vertex -0.758894 3.97826 8.6
      vertex -1.25152 3.85178 8.6
    endloop
  endfacet
  facet normal 0 0 1
    outer loop
      vertex -1.25152 3.85178 8.6
      vertex -0.758894 3.97826 8.6
      vertex -1.13834 5.96739 8.6
    endloop
  endfacet
  facet normal -0.125333 -0.992115 -0
    outer loop
      vertex -1.41941 -7.44083 0
      vertex -0.475637 -7.56005 0
      vertex -0.475637 -7.56005 1.5
    endloop
  endfacet
  facet normal -0.125333 -0.992115 0
    outer loop
      vertex -1.41941 -7.44083 0
      vertex -0.475637 -7.56005 1.5
      vertex -1.41941 -7.44083 1.5
    endloop
  endfacet
  facet normal 0 0 -1
    outer loop
      vertex -1.41941 -7.44083 0
      vertex -0.758894 -3.97826 0
      vertex -0.475637 -7.56005 0
    endloop
  endfacet
  facet normal -0 0 -1
    outer loop
      vertex -1.41941 -7.44083 0
      vertex -1.25152 -3.85178 0
      vertex -0.758894 -3.97826 0
    endloop
  endfacet
  facet normal 0 0 1
    outer loop
      vertex -1.41941 -7.44083 1.5
      vertex -0.475637 -7.56005 1.5
      vertex -1.13834 -5.96739 1.5
    endloop
  endfacet
  facet normal 0 0 -1
    outer loop
      vertex -1.41941 7.44083 0
      vertex -0.475637 7.56005 0
      vertex -0.758894 3.97826 0
    endloop
  endfacet
  facet normal 0 0 -1
    outer loop
      vertex -1.41941 7.44083 0
      vertex -0.758894 3.97826 0
      vertex -1.25152 3.85178 0
    endloop
  endfacet
  facet normal -0.125333 0.992115 0
    outer loop
      vertex -1.41941 7.44083 0
      vertex -1.41941 7.44083 1.5
      vertex -0.475637 7.56005 0
    endloop
  endfacet
  facet normal -0.125333 0.992115 0
    outer loop
      vertex -1.41941 7.44083 1.5
      vertex -0.475637 7.56005 1.5
      vertex -0.475637 7.56005 0
    endloop
  endfacet
  facet normal -0 0 1
    outer loop
      vertex -1.41941 7.44083 1.5
      vertex -1.13834 5.96739 1.5
      vertex -0.475637 7.56005 1.5
    endloop
  endfacet
  facet normal 0.368124 0.929777 0
    outer loop
      vertex -1.72441 -3.66455 0
      vertex -1.72441 -3.66455 8.6
      vertex -1.25152 -3.85178 0
    endloop
  endfacet
  facet normal 0.368124 0.929777 -0
    outer loop
      vertex -1.72441 -3.66455 8.6
      vertex -1.25152 -3.85178 8.6
      vertex -1.25152 -3.85178 0
    endloop
  endfacet
  facet normal 0.368124 -0.929777 0
    outer loop
      vertex -1.72441 3.66455 0
      vertex -1.25152 3.85178 0
      vertex -1.25152 3.85178 8.6
    endloop
  endfacet
  facet normal 0.368124 -0.929777 0
    outer loop
      vertex -1.72441 3.66455 0
      vertex -1.25152 3.85178 8.6
      vertex -1.72441 3.66455 8.6
    endloop
  endfacet
  facet normal -0.24869 -0.968583 -0
    outer loop
      vertex -1.87728 -5.77767 1.5
      vertex -1.13834 -5.96739 1.5
      vertex -1.13834 -5.96739 8.6
    endloop
  endfacet
  facet normal -0.24869 -0.968583 0
    outer loop
      vertex -1.87728 -5.77767 1.5
      vertex -1.13834 -5.96739 8.6
      vertex -1.87728 -5.77767 8.6
    endloop
  endfacet
  facet normal 0 0 1
    outer loop
      vertex -1.87728 -5.77767 1.5
      vertex -1.41941 -7.44083 1.5
      vertex -1.13834 -5.96739 1.5
    endloop
  endfacet
  facet normal 0 0 1
    outer loop
      vertex -1.87728 -5.77767 8.6
      vertex -1.13834 -5.96739 8.6
      vertex -1.25152 -3.85178 8.6
    endloop
  endfacet
  facet normal 0 0 1
    outer loop
      vertex -1.87728 -5.77767 8.6
      vertex -1.25152 -3.85178 8.6
      vertex -1.72441 -3.66455 8.6
    endloop
  endfacet
  facet normal 0 0 1
    outer loop
      vertex -1.87728 5.77767 1.5
      vertex -1.13834 5.96739 1.5
      vertex -1.41941 7.44083 1.5
    endloop
  endfacet
  facet normal -0.24869 0.968583 0
    outer loop
      vertex -1.87728 5.77767 1.5
      vertex -1.87728 5.77767 8.6
      vertex -1.13834 5.96739 1.5
    endloop
  endfacet
  facet normal -0.24869 0.968583 0
    outer loop
      vertex -1.87728 5.77767 8.6
      vertex -1.13834 5.96739 8.6
      vertex -1.13834 5.96739 1.5
    endloop
  endfacet
  facet normal -0 0 1
    outer loop
      vertex -1.87728 5.77767 8.6
      vertex -1.25152 3.85178 8.6
      vertex -1.13834 5.96739 8.6
    endloop
  endfacet
  facet normal 0 0 1
    outer loop
      vertex -1.87728 5.77767 8.6
      vertex -1.72441 3.66455 8.6
      vertex -1.25152 3.85178 8.6
    endloop
  endfacet
  facet normal 0.481752 0.876307 0
    outer loop
      vertex -2.1701 -3.41953 0
      vertex -2.1701 -3.41953 8.6
      vertex -1.72441 -3.66455 0
    endloop
  endfacet
  facet normal 0.481752 0.876307 -0
    outer loop
      vertex -2.1701 -3.41953 8.6
      vertex -1.72441 -3.66455 8.6
      vertex -1.72441 -3.66455 0
    endloop
  endfacet
  facet normal 0.481752 -0.876307 0
    outer loop
      vertex -2.1701 3.41953 0
      vertex -1.72441 3.66455 0
      vertex -1.72441 3.66455 8.6
    endloop
  endfacet
  facet normal 0.481752 -0.876307 0
    outer loop
      vertex -2.1701 3.41953 0
      vertex -1.72441 3.66455 8.6
      vertex -2.1701 3.41953 8.6
    endloop
  endfacet
  facet normal 0 0 -1
    outer loop
      vertex -2.3408 -7.20425 0
      vertex -1.25152 -3.85178 0
      vertex -1.41941 -7.44083 0
    endloop
  endfacet
  facet normal -0.24869 -0.968583 -0
    outer loop
      vertex -2.3408 -7.20425 0
      vertex -1.41941 -7.44083 0
      vertex -1.41941 -7.44083 1.5
    endloop
  endfacet
  facet normal -0.24869 -0.968583 0
    outer loop
      vertex -2.3408 -7.20425 0
      vertex -1.41941 -7.44083 1.5
      vertex -2.3408 -7.20425 1.5
    endloop
  endfacet
  facet normal -0 0 -1
    outer loop
      vertex -2.3408 -7.20425 0
      vertex -1.72441 -3.66455 0
      vertex -1.25152 -3.85178 0
    endloop
  endfacet
  facet normal 0 0 1
    outer loop
      vertex -2.3408 -7.20425 1.5
      vertex -1.41941 -7.44083 1.5
      vertex -1.87728 -5.77767 1.5
    endloop
  endfacet
  facet normal 0 0 -1
    outer loop
      vertex -2.3408 7.20425 0
      vertex -1.25152 3.85178 0
      vertex -1.72441 3.66455 0
    endloop
  endfacet
  facet normal 0 0 -1
    outer loop
      vertex -2.3408 7.20425 0
      vertex -1.41941 7.44083 0
      vertex -1.25152 3.85178 0
    endloop
  endfacet
  facet normal -0.24869 0.968583 0
    outer loop
      vertex -2.3408 7.20425 0
      vertex -2.3408 7.20425 1.5
      vertex -1.41941 7.44083 0
    endloop
  endfacet
  facet normal -0.24869 0.968583 0
    outer loop
      vertex -2.3408 7.20425 1.5
      vertex -1.41941 7.44083 1.5
      vertex -1.41941 7.44083 0
    endloop
  endfacet
  facet normal -0 0 1
    outer loop
      vertex -2.3408 7.20425 1.5
      vertex -1.87728 5.77767 1.5
      vertex -1.41941 7.44083 1.5
    endloop
  endfacet
  facet normal 0.587786 0.809016 0
    outer loop
      vertex -2.58157 -3.12058 0
      vertex -2.58157 -3.12058 8.6
      vertex -2.1701 -3.41953 0
    endloop
  endfacet
  facet normal 0.587786 0.809016 -0
    outer loop
      vertex -2.58157 -3.12058 8.6
      vertex -2.1701 -3.41953 8.6
      vertex -2.1701 -3.41953 0
    endloop
  endfacet
  facet normal 0.587786 -0.809016 0
    outer loop
      vertex -2.58157 3.12058 0
      vertex -2.1701 3.41953 0
      vertex -2.1701 3.41953 8.6
    endloop
  endfacet
  facet normal 0.587786 -0.809016 0
    outer loop
      vertex -2.58157 3.12058 0
      vertex -2.1701 3.41953 8.6
      vertex -2.58157 3.12058 8.6
    endloop
  endfacet
  facet normal -0.368124 -0.929777 -0
    outer loop
      vertex -2.58661 -5.49682 1.5
      vertex -1.87728 -5.77767 1.5
      vertex -1.87728 -5.77767 8.6
    endloop
  endfacet
  facet normal -0.368124 -0.929777 0
    outer loop
      vertex -2.58661 -5.49682 1.5
      vertex -1.87728 -5.77767 8.6
      vertex -2.58661 -5.49682 8.6
    endloop
  endfacet
  facet normal 0 0 1
    outer loop
      vertex -2.58661 -5.49682 1.5
      vertex -2.3408 -7.20425 1.5
      vertex -1.87728 -5.77767 1.5
    endloop
  endfacet
  facet normal 0 0 1
    outer loop
      vertex -2.58661 -5.49682 8.6
      vertex -1.72441 -3.66455 8.6
      vertex -2.1701 -3.41953 8.6
    endloop
  endfacet
  facet normal 0 0 1
    outer loop
      vertex -2.58661 -5.49682 8.6
      vertex -1.87728 -5.77767 8.6
      vertex -1.72441 -3.66455 8.6
    endloop
  endfacet
  facet normal 0 0 1
    outer loop
      vertex -2.58661 5.49682 1.5
      vertex -1.87728 5.77767 1.5
      vertex -2.3408 7.20425 1.5
    endloop
  endfacet
  facet normal -0.368124 0.929777 0
    outer loop
      vertex -2.58661 5.49682 1.5
      vertex -2.58661 5.49682 8.6
      vertex -1.87728 5.77767 1.5
    endloop
  endfacet
  facet normal -0 0 1
    outer loop
      vertex -2.58661 5.49682 8.6
      vertex -1.72441 3.66455 8.6
      vertex -1.87728 5.77767 8.6
    endloop
  endfacet
  facet normal -0.368124 0.929777 0
    outer loop
      vertex -2.58661 5.49682 8.6
      vertex -1.87728 5.77767 8.6
      vertex -1.87728 5.77767 1.5
    endloop
  endfacet
  facet normal 0 0 1
    outer loop
      vertex -2.58661 5.49682 8.6
      vertex -2.1701 3.41953 8.6
      vertex -1.72441 3.66455 8.6
    endloop
  endfacet
  facet normal 0.684547 0.728968 0
    outer loop
      vertex -2.95232 -2.77242 0
      vertex -2.95232 -2.77242 8.6
      vertex -2.58157 -3.12058 0
    endloop
  endfacet
  facet normal 0.684547 0.728968 -0
    outer loop
      vertex -2.95232 -2.77242 8.6
      vertex -2.58157 -3.12058 8.6
      vertex -2.58157 -3.12058 0
    endloop
  endfacet
  facet normal 0.684547 -0.728968 0
    outer loop
      vertex -2.95232 2.77242 0
      vertex -2.58157 3.12058 0
      vertex -2.58157 3.12058 8.6
    endloop
  endfacet
  facet normal 0.684547 -0.728968 0
    outer loop
      vertex -2.95232 2.77242 0
      vertex -2.58157 3.12058 8.6
      vertex -2.95232 2.77242 8.6
    endloop
  endfacet
  facet normal 0 0 -1
    outer loop
      vertex -3.22528 -6.85406 0
      vertex -1.72441 -3.66455 0
      vertex -2.3408 -7.20425 0
    endloop
  endfacet
  facet normal -0 0 -1
    outer loop
      vertex -3.22528 -6.85406 0
      vertex -2.1701 -3.41953 0
      vertex -1.72441 -3.66455 0
    endloop
  endfacet
  facet normal -0.368124 -0.929777 -0
    outer loop
      vertex -3.22528 -6.85406 0
      vertex -2.3408 -7.20425 0
      vertex -2.3408 -7.20425 1.5
    endloop
  endfacet
  facet normal -0.368124 -0.929777 0
    outer loop
      vertex -3.22528 -6.85406 0
      vertex -2.3408 -7.20425 1.5
      vertex -3.22528 -6.85406 1.5
    endloop
  endfacet
  facet normal 0 0 1
    outer loop
      vertex -3.22528 -6.85406 1.5
      vertex -2.3408 -7.20425 1.5
      vertex -2.58661 -5.49682 1.5
    endloop
  endfacet
  facet normal 0 0 -1
    outer loop
      vertex -3.22528 6.85406 0
      vertex -1.72441 3.66455 0
      vertex -2.1701 3.41953 0
    endloop
  endfacet
  facet normal 0 0 -1
    outer loop
      vertex -3.22528 6.85406 0
      vertex -2.3408 7.20425 0
      vertex -1.72441 3.66455 0
    endloop
  endfacet
  facet normal -0.368124 0.929777 0
    outer loop
      vertex -3.22528 6.85406 0
      vertex -3.22528 6.85406 1.5
      vertex -2.3408 7.20425 0
    endloop
  endfacet
  facet normal -0.368124 0.929777 0
    outer loop
      vertex -3.22528 6.85406 1.5
      vertex -2.3408 7.20425 1.5
      vertex -2.3408 7.20425 0
    endloop
  endfacet
  facet normal -0 0 1
    outer loop
      vertex -3.22528 6.85406 1.5
      vertex -2.58661 5.49682 1.5
      vertex -2.3408 7.20425 1.5
    endloop
  endfacet
  facet normal -0.481754 -0.876306 -0
    outer loop
      vertex -3.25515 -5.12929 1.5
      vertex -2.58661 -5.49682 1.5
      vertex -2.58661 -5.49682 8.6
    endloop
  endfacet
  facet normal -0.481754 -0.876306 0
    outer loop
      vertex -3.25515 -5.12929 1.5
      vertex -2.58661 -5.49682 8.6
      vertex -3.25515 -5.12929 8.6
    endloop
  endfacet
  facet normal 0 0 1
    outer loop
      vertex -3.25515 -5.12929 1.5
      vertex -3.22528 -6.85406 1.5
      vertex -2.58661 -5.49682 1.5
    endloop
  endfacet
  facet normal 0 0 1
    outer loop
      vertex -3.25515 -5.12929 8.6
      vertex -2.1701 -3.41953 8.6
      vertex -2.58157 -3.12058 8.6
    endloop
  endfacet
  facet normal 0 0 1
    outer loop
      vertex -3.25515 -5.12929 8.6
      vertex -2.58661 -5.49682 8.6
      vertex -2.1701 -3.41953 8.6
    endloop
  endfacet
  facet normal 0 0 1
    outer loop
      vertex -3.25515 5.12929 1.5
      vertex -2.58661 5.49682 1.5
      vertex -3.22528 6.85406 1.5
    endloop
  endfacet
  facet normal -0.481754 0.876306 0
    outer loop
      vertex -3.25515 5.12929 1.5
      vertex -3.25515 5.12929 8.6
      vertex -2.58661 5.49682 1.5
    endloop
  endfacet
  facet normal -0 0 1
    outer loop
      vertex -3.25515 5.12929 8.6
      vertex -2.1701 3.41953 8.6
      vertex -2.58661 5.49682 8.6
    endloop
  endfacet
  facet normal 0 0 1
    outer loop
      vertex -3.25515 5.12929 8.6
      vertex -2.58157 3.12058 8.6
      vertex -2.1701 3.41953 8.6
    endloop
  endfacet
  facet normal -0.481754 0.876306 0
    outer loop
      vertex -3.25515 5.12929 8.6
      vertex -2.58661 5.49682 8.6
      vertex -2.58661 5.49682 1.5
    endloop
  endfacet
  facet normal 0.770513 0.637425 0
    outer loop
      vertex -3.27652 -2.38053 0
      vertex -2.95232 -2.77242 8.6
      vertex -2.95232 -2.77242 0
    endloop
  endfacet
  facet normal 0.770513 0.637425 0
    outer loop
      vertex -3.27652 -2.38053 0
      vertex -3.27652 -2.38053 8.6
      vertex -2.95232 -2.77242 8.6
    endloop
  endfacet
  facet normal 0.770513 -0.637425 0
    outer loop
      vertex -3.27652 2.38053 0
      vertex -2.95232 2.77242 0
      vertex -3.27652 2.38053 8.6
    endloop
  endfacet
  facet normal 0.770513 -0.637425 0
    outer loop
      vertex -3.27652 2.38053 8.6
      vertex -2.95232 2.77242 0
      vertex -2.95232 2.77242 8.6
    endloop
  endfacet
  facet normal 0.844328 0.535827 0
    outer loop
      vertex -3.54904 -1.9511 0
      vertex -3.27652 -2.38053 8.6
      vertex -3.27652 -2.38053 0
    endloop
  endfacet
  facet normal 0.844328 0.535827 0
    outer loop
      vertex -3.54904 -1.9511 0
      vertex -3.54904 -1.9511 8.6
      vertex -3.27652 -2.38053 8.6
    endloop
  endfacet
  facet normal 0.844328 -0.535827 0
    outer loop
      vertex -3.54904 1.9511 0
      vertex -3.27652 2.38053 0
      vertex -3.54904 1.9511 8.6
    endloop
  endfacet
  facet normal 0.844328 -0.535827 0
    outer loop
      vertex -3.54904 1.9511 8.6
      vertex -3.27652 2.38053 0
      vertex -3.27652 2.38053 8.6
    endloop
  endfacet
  facet normal 0.904827 0.425779 0
    outer loop
      vertex -3.76559 -1.4909 0
      vertex -3.54904 -1.9511 8.6
      vertex -3.54904 -1.9511 0
    endloop
  endfacet
  facet normal 0.904827 0.425779 0
    outer loop
      vertex -3.76559 -1.4909 0
      vertex -3.76559 -1.4909 8.6
      vertex -3.54904 -1.9511 8.6
    endloop
  endfacet
  facet normal 0.904827 -0.425779 0
    outer loop
      vertex -3.76559 1.4909 0
      vertex -3.54904 1.9511 0
      vertex -3.76559 1.4909 8.6
    endloop
  endfacet
  facet normal 0.904827 -0.425779 0
    outer loop
      vertex -3.76559 1.4909 8.6
      vertex -3.54904 1.9511 0
      vertex -3.54904 1.9511 8.6
    endloop
  endfacet
  facet normal -0.587785 -0.809017 -0
    outer loop
      vertex -3.87235 -4.68087 1.5
      vertex -3.25515 -5.12929 1.5
      vertex -3.25515 -5.12929 8.6
    endloop
  endfacet
  facet normal -0.587785 -0.809017 0
    outer loop
      vertex -3.87235 -4.68087 1.5
      vertex -3.25515 -5.12929 8.6
      vertex -3.87235 -4.68087 8.6
    endloop
  endfacet
  facet normal 0 0 1
    outer loop
      vertex -3.87235 -4.68087 8.6
      vertex -2.58157 -3.12058 8.6
      vertex -2.95232 -2.77242 8.6
    endloop
  endfacet
  facet normal 0 0 1
    outer loop
      vertex -3.87235 -4.68087 8.6
      vertex -3.25515 -5.12929 8.6
      vertex -2.58157 -3.12058 8.6
    endloop
  endfacet
  facet normal -0.587785 0.809017 0
    outer loop
      vertex -3.87235 4.68087 1.5
      vertex -3.87235 4.68087 8.6
      vertex -3.25515 5.12929 1.5
    endloop
  endfacet
  facet normal -0 0 1
    outer loop
      vertex -3.87235 4.68087 8.6
      vertex -2.58157 3.12058 8.6
      vertex -3.25515 5.12929 8.6
    endloop
  endfacet
  facet normal 0 0 1
    outer loop
      vertex -3.87235 4.68087 8.6
      vertex -2.95232 2.77242 8.6
      vertex -2.58157 3.12058 8.6
    endloop
  endfacet
  facet normal -0.587785 0.809017 0
    outer loop
      vertex -3.87235 4.68087 8.6
      vertex -3.25515 5.12929 8.6
      vertex -3.25515 5.12929 1.5
    endloop
  endfacet
  facet normal 0.951057 0.309016 0
    outer loop
      vertex -3.92276 -1.00719 0
      vertex -3.76559 -1.4909 8.6
      vertex -3.76559 -1.4909 0
    endloop
  endfacet
  facet normal 0.951057 0.309016 0
    outer loop
      vertex -3.92276 -1.00719 0
      vertex -3.92276 -1.00719 8.6
      vertex -3.76559 -1.4909 8.6
    endloop
  endfacet
  facet normal 0.951057 -0.309016 0
    outer loop
      vertex -3.92276 1.00719 0
      vertex -3.76559 1.4909 0
      vertex -3.92276 1.00719 8.6
    endloop
  endfacet
  facet normal 0.951057 -0.309016 0
    outer loop
      vertex -3.92276 1.00719 8.6
      vertex -3.76559 1.4909 0
      vertex -3.76559 1.4909 8.6
    endloop
  endfacet
  facet normal 0.982287 0.187383 0
    outer loop
      vertex -4.01806 -0.507599 0
      vertex -3.92276 -1.00719 8.6
      vertex -3.92276 -1.00719 0
    endloop
  endfacet
  facet normal 0.982287 0.187383 0
    outer loop
      vertex -4.01806 -0.507599 0
      vertex -4.01806 -0.507599 8.6
      vertex -3.92276 -1.00719 8.6
    endloop
  endfacet
  facet normal 0.982287 -0.187383 0
    outer loop
      vertex -4.01806 0.507599 0
      vertex -3.92276 1.00719 0
      vertex -4.01806 0.507599 8.6
    endloop
  endfacet
  facet normal 0.982287 -0.187383 0
    outer loop
      vertex -4.01806 0.507599 8.6
      vertex -3.92276 1.00719 0
      vertex -3.92276 1.00719 8.6
    endloop
  endfacet
  facet normal 0.998027 0.0627892 0
    outer loop
      vertex -4.05 0 0
      vertex -4.01806 -0.507599 8.6
      vertex -4.01806 -0.507599 0
    endloop
  endfacet
  facet normal 0.998027 -0.0627892 0
    outer loop
      vertex -4.05 0 0
      vertex -4.01806 0.507599 0
      vertex -4.05 0 8.6
    endloop
  endfacet
  facet normal 0.998027 0.0627892 0
    outer loop
      vertex -4.05 0 0
      vertex -4.05 0 8.6
      vertex -4.01806 -0.507599 8.6
    endloop
  endfacet
  facet normal 0.998027 -0.0627892 0
    outer loop
      vertex -4.05 0 8.6
      vertex -4.01806 0.507599 0
      vertex -4.01806 0.507599 8.6
    endloop
  endfacet
  facet normal 0 0 -1
    outer loop
      vertex -4.05889 -6.39578 0
      vertex -2.1701 -3.41953 0
      vertex -3.22528 -6.85406 0
    endloop
  endfacet
  facet normal -0 0 -1
    outer loop
      vertex -4.05889 -6.39578 0
      vertex -2.58157 -3.12058 0
      vertex -2.1701 -3.41953 0
    endloop
  endfacet
  facet normal -0.481754 -0.876307 -0
    outer loop
      vertex -4.05889 -6.39578 0
      vertex -3.22528 -6.85406 0
      vertex -3.22528 -6.85406 1.5
    endloop
  endfacet
  facet normal -0.481754 -0.876307 0
    outer loop
      vertex -4.05889 -6.39578 0
      vertex -3.22528 -6.85406 1.5
      vertex -4.05889 -6.39578 1.5
    endloop
  endfacet
  facet normal 0 0 1
    outer loop
      vertex -4.05889 -6.39578 1.5
      vertex -3.22528 -6.85406 1.5
      vertex -3.25515 -5.12929 1.5
    endloop
  endfacet
  facet normal 0 0 1
    outer loop
      vertex -4.05889 -6.39578 1.5
      vertex -3.25515 -5.12929 1.5
      vertex -3.87235 -4.68087 1.5
    endloop
  endfacet
  facet normal 0 0 -1
    outer loop
      vertex -4.05889 6.39578 0
      vertex -2.1701 3.41953 0
      vertex -2.58157 3.12058 0
    endloop
  endfacet
  facet normal 0 0 -1
    outer loop
      vertex -4.05889 6.39578 0
      vertex -3.22528 6.85406 0
      vertex -2.1701 3.41953 0
    endloop
  endfacet
  facet normal -0.481754 0.876307 0
    outer loop
      vertex -4.05889 6.39578 0
      vertex -4.05889 6.39578 1.5
      vertex -3.22528 6.85406 0
    endloop
  endfacet
  facet normal -0.481754 0.876307 0
    outer loop
      vertex -4.05889 6.39578 1.5
      vertex -3.22528 6.85406 1.5
      vertex -3.22528 6.85406 0
    endloop
  endfacet
  facet normal -0 0 1
    outer loop
      vertex -4.05889 6.39578 1.5
      vertex -3.25515 5.12929 1.5
      vertex -3.22528 6.85406 1.5
    endloop
  endfacet
  facet normal 0 0 1
    outer loop
      vertex -4.05889 6.39578 1.5
      vertex -3.87235 4.68087 1.5
      vertex -3.25515 5.12929 1.5
    endloop
  endfacet
  facet normal -0.684547 -0.728968 -0
    outer loop
      vertex -4.42848 -4.15862 1.5
      vertex -3.87235 -4.68087 1.5
      vertex -3.87235 -4.68087 8.6
    endloop
  endfacet
  facet normal -0.684547 -0.728968 0
    outer loop
      vertex -4.42848 -4.15862 1.5
      vertex -3.87235 -4.68087 8.6
      vertex -4.42848 -4.15862 8.6
    endloop
  endfacet
  facet normal 0 0 1
    outer loop
      vertex -4.42848 -4.15862 8.6
      vertex -2.95232 -2.77242 8.6
      vertex -3.27652 -2.38053 8.6
    endloop
  endfacet
  facet normal 0 0 1
    outer loop
      vertex -4.42848 -4.15862 8.6
      vertex -3.87235 -4.68087 8.6
      vertex -2.95232 -2.77242 8.6
    endloop
  endfacet
  facet normal -0.684547 0.728968 0
    outer loop
      vertex -4.42848 4.15862 1.5
      vertex -4.42848 4.15862 8.6
      vertex -3.87235 4.68087 1.5
    endloop
  endfacet
  facet normal -0 0 1
    outer loop
      vertex -4.42848 4.15862 8.6
      vertex -2.95232 2.77242 8.6
      vertex -3.87235 4.68087 8.6
    endloop
  endfacet
  facet normal 0 0 1
    outer loop
      vertex -4.42848 4.15862 8.6
      vertex -3.27652 2.38053 8.6
      vertex -2.95232 2.77242 8.6
    endloop
  endfacet
  facet normal -0.684547 0.728968 0
    outer loop
      vertex -4.42848 4.15862 8.6
      vertex -3.87235 4.68087 8.6
      vertex -3.87235 4.68087 1.5
    endloop
  endfacet
  facet normal 0 0 -1
    outer loop
      vertex -4.82849 -5.83664 0
      vertex -2.58157 -3.12058 0
      vertex -4.05889 -6.39578 0
    endloop
  endfacet
  facet normal -0 0 -1
    outer loop
      vertex -4.82849 -5.83664 0
      vertex -2.95232 -2.77242 0
      vertex -2.58157 -3.12058 0
    endloop
  endfacet
  facet normal -0.587785 -0.809017 -0
    outer loop
      vertex -4.82849 -5.83664 0
      vertex -4.05889 -6.39578 0
      vertex -4.05889 -6.39578 1.5
    endloop
  endfacet
  facet normal -0.587785 -0.809017 0
    outer loop
      vertex -4.82849 -5.83664 0
      vertex -4.05889 -6.39578 1.5
      vertex -4.82849 -5.83664 1.5
    endloop
  endfacet
  facet normal 0 0 1
    outer loop
      vertex -4.82849 -5.83664 1.5
      vertex -3.87235 -4.68087 1.5
      vertex -4.42848 -4.15862 1.5
    endloop
  endfacet
  facet normal 0 0 1
    outer loop
      vertex -4.82849 -5.83664 1.5
      vertex -4.05889 -6.39578 1.5
      vertex -3.87235 -4.68087 1.5
    endloop
  endfacet
  facet normal 0 0 -1
    outer loop
      vertex -4.82849 5.83664 0
      vertex -2.58157 3.12058 0
      vertex -2.95232 2.77242 0
    endloop
  endfacet
  facet normal 0 0 -1
    outer loop
      vertex -4.82849 5.83664 0
      vertex -4.05889 6.39578 0
      vertex -2.58157 3.12058 0
    endloop
  endfacet
  facet normal -0.587785 0.809017 0
    outer loop
      vertex -4.82849 5.83664 0
      vertex -4.82849 5.83664 1.5
      vertex -4.05889 6.39578 0
    endloop
  endfacet
  facet normal -0 0 1
    outer loop
      vertex -4.82849 5.83664 1.5
      vertex -3.87235 4.68087 1.5
      vertex -4.05889 6.39578 1.5
    endloop
  endfacet
  facet normal -0.587785 0.809017 0
    outer loop
      vertex -4.82849 5.83664 1.5
      vertex -4.05889 6.39578 1.5
      vertex -4.05889 6.39578 0
    endloop
  endfacet
  facet normal 0 0 1
    outer loop
      vertex -4.82849 5.83664 1.5
      vertex -4.42848 4.15862 1.5
      vertex -3.87235 4.68087 1.5
    endloop
  endfacet
  facet normal -0.770513 -0.637424 0
    outer loop
      vertex -4.91478 -3.5708 1.5
      vertex -4.42848 -4.15862 1.5
      vertex -4.91478 -3.5708 8.6
    endloop
  endfacet
  facet normal 0 0 1
    outer loop
      vertex -4.91478 -3.5708 8.6
      vertex -3.27652 -2.38053 8.6
      vertex -3.54904 -1.9511 8.6
    endloop
  endfacet
  facet normal -0.770513 -0.637424 0
    outer loop
      vertex -4.91478 -3.5708 8.6
      vertex -4.42848 -4.15862 1.5
      vertex -4.42848 -4.15862 8.6
    endloop
  endfacet
  facet normal 0 0 1
    outer loop
      vertex -4.91478 -3.5708 8.6
      vertex -4.42848 -4.15862 8.6
      vertex -3.27652 -2.38053 8.6
    endloop
  endfacet
  facet normal -0.770513 0.637424 0
    outer loop
      vertex -4.91478 3.5708 1.5
      vertex -4.42848 4.15862 8.6
      vertex -4.42848 4.15862 1.5
    endloop
  endfacet
  facet normal -0.770513 0.637424 0
    outer loop
      vertex -4.91478 3.5708 1.5
      vertex -4.91478 3.5708 8.6
      vertex -4.42848 4.15862 8.6
    endloop
  endfacet
  facet normal -0 0 1
    outer loop
      vertex -4.91478 3.5708 8.6
      vertex -3.27652 2.38053 8.6
      vertex -4.42848 4.15862 8.6
    endloop
  endfacet
  facet normal 0 0 1
    outer loop
      vertex -4.91478 3.5708 8.6
      vertex -3.54904 1.9511 8.6
      vertex -3.27652 2.38053 8.6
    endloop
  endfacet
  facet normal -0.844328 -0.535827 0
    outer loop
      vertex -5.32356 -2.92665 1.5
      vertex -4.91478 -3.5708 1.5
      vertex -5.32356 -2.92665 8.6
    endloop
  endfacet
  facet normal 0 0 1
    outer loop
      vertex -5.32356 -2.92665 8.6
      vertex -3.54904 -1.9511 8.6
      vertex -3.76559 -1.4909 8.6
    endloop
  endfacet
  facet normal -0.844328 -0.535827 0
    outer loop
      vertex -5.32356 -2.92665 8.6
      vertex -4.91478 -3.5708 1.5
      vertex -4.91478 -3.5708 8.6
    endloop
  endfacet
  facet normal 0 0 1
    outer loop
      vertex -5.32356 -2.92665 8.6
      vertex -4.91478 -3.5708 8.6
      vertex -3.54904 -1.9511 8.6
    endloop
  endfacet
  facet normal -0.844328 0.535827 0
    outer loop
      vertex -5.32356 2.92665 1.5
      vertex -4.91478 3.5708 8.6
      vertex -4.91478 3.5708 1.5
    endloop
  endfacet
  facet normal -0.844328 0.535827 0
    outer loop
      vertex -5.32356 2.92665 1.5
      vertex -5.32356 2.92665 8.6
      vertex -4.91478 3.5708 8.6
    endloop
  endfacet
  facet normal -0 0 1
    outer loop
      vertex -5.32356 2.92665 8.6
      vertex -3.54904 1.9511 8.6
      vertex -4.91478 3.5708 8.6
    endloop
  endfacet
  facet normal 0 0 1
    outer loop
      vertex -5.32356 2.92665 8.6
      vertex -3.76559 1.4909 8.6
      vertex -3.54904 1.9511 8.6
    endloop
  endfacet
  facet normal 0 0 -1
    outer loop
      vertex -5.52194 -5.18544 0
      vertex -2.95232 -2.77242 0
      vertex -4.82849 -5.83664 0
    endloop
  endfacet
  facet normal -0 0 -1
    outer loop
      vertex -5.52194 -5.18544 0
      vertex -3.27652 -2.38053 0
      vertex -2.95232 -2.77242 0
    endloop
  endfacet
  facet normal -0.684548 -0.728968 -0
    outer loop
      vertex -5.52194 -5.18544 0
      vertex -4.82849 -5.83664 0
      vertex -4.82849 -5.83664 1.5
    endloop
  endfacet
  facet normal -0.684548 -0.728968 0
    outer loop
      vertex -5.52194 -5.18544 0
      vertex -4.82849 -5.83664 1.5
      vertex -5.52194 -5.18544 1.5
    endloop
  endfacet
  facet normal 0 0 1
    outer loop
      vertex -5.52194 -5.18544 1.5
      vertex -4.42848 -4.15862 1.5
      vertex -4.91478 -3.5708 1.5
    endloop
  endfacet
  facet normal 0 0 1
    outer loop
      vertex -5.52194 -5.18544 1.5
      vertex -4.82849 -5.83664 1.5
      vertex -4.42848 -4.15862 1.5
    endloop
  endfacet
  facet normal 0 0 -1
    outer loop
      vertex -5.52194 5.18544 0
      vertex -2.95232 2.77242 0
      vertex -3.27652 2.38053 0
    endloop
  endfacet
  facet normal 0 0 -1
    outer loop
      vertex -5.52194 5.18544 0
      vertex -4.82849 5.83664 0
      vertex -2.95232 2.77242 0
    endloop
  endfacet
  facet normal -0.684548 0.728968 0
    outer loop
      vertex -5.52194 5.18544 0
      vertex -5.52194 5.18544 1.5
      vertex -4.82849 5.83664 0
    endloop
  endfacet
  facet normal -0 0 1
    outer loop
      vertex -5.52194 5.18544 1.5
      vertex -4.42848 4.15862 1.5
      vertex -4.82849 5.83664 1.5
    endloop
  endfacet
  facet normal -0.684548 0.728968 0
    outer loop
      vertex -5.52194 5.18544 1.5
      vertex -4.82849 5.83664 1.5
      vertex -4.82849 5.83664 0
    endloop
  endfacet
  facet normal 0 0 1
    outer loop
      vertex -5.52194 5.18544 1.5
      vertex -4.91478 3.5708 1.5
      vertex -4.42848 4.15862 1.5
    endloop
  endfacet
  facet normal -0.904827 -0.425779 0
    outer loop
      vertex -5.64839 -2.23636 1.5
      vertex -5.32356 -2.92665 1.5
      vertex -5.64839 -2.23636 8.6
    endloop
  endfacet
  facet normal 0 0 1
    outer loop
      vertex -5.64839 -2.23636 8.6
      vertex -3.76559 -1.4909 8.6
      vertex -3.92276 -1.00719 8.6
    endloop
  endfacet
  facet normal -0.904827 -0.425779 0
    outer loop
      vertex -5.64839 -2.23636 8.6
      vertex -5.32356 -2.92665 1.5
      vertex -5.32356 -2.92665 8.6
    endloop
  endfacet
  facet normal 0 0 1
    outer loop
      vertex -5.64839 -2.23636 8.6
      vertex -5.32356 -2.92665 8.6
      vertex -3.76559 -1.4909 8.6
    endloop
  endfacet
  facet normal -0.904827 0.425779 0
    outer loop
      vertex -5.64839 2.23636 1.5
      vertex -5.32356 2.92665 8.6
      vertex -5.32356 2.92665 1.5
    endloop
  endfacet
  facet normal -0.904827 0.425779 0
    outer loop
      vertex -5.64839 2.23636 1.5
      vertex -5.64839 2.23636 8.6
      vertex -5.32356 2.92665 8.6
    endloop
  endfacet
  facet normal -0 0 1
    outer loop
      vertex -5.64839 2.23636 8.6
      vertex -3.76559 1.4909 8.6
      vertex -5.32356 2.92665 8.6
    endloop
  endfacet
  facet normal 0 0 1
    outer loop
      vertex -5.64839 2.23636 8.6
      vertex -3.92276 1.00719 8.6
      vertex -3.76559 1.4909 8.6
    endloop
  endfacet
  facet normal -0.951057 -0.309017 0
    outer loop
      vertex -5.88414 -1.51079 1.5
      vertex -5.64839 -2.23636 1.5
      vertex -5.88414 -1.51079 8.6
    endloop
  endfacet
  facet normal 0 0 1
    outer loop
      vertex -5.88414 -1.51079 8.6
      vertex -3.92276 -1.00719 8.6
      vertex -4.01806 -0.507599 8.6
    endloop
  endfacet
  facet normal -0.951057 -0.309017 0
    outer loop
      vertex -5.88414 -1.51079 8.6
      vertex -5.64839 -2.23636 1.5
      vertex -5.64839 -2.23636 8.6
    endloop
  endfacet
  facet normal 0 0 1
    outer loop
      vertex -5.88414 -1.51079 8.6
      vertex -5.64839 -2.23636 8.6
      vertex -3.92276 -1.00719 8.6
    endloop
  endfacet
  facet normal -0.951057 0.309017 0
    outer loop
      vertex -5.88414 1.51079 1.5
      vertex -5.64839 2.23636 8.6
      vertex -5.64839 2.23636 1.5
    endloop
  endfacet
  facet normal -0.951057 0.309017 0
    outer loop
      vertex -5.88414 1.51079 1.5
      vertex -5.88414 1.51079 8.6
      vertex -5.64839 2.23636 8.6
    endloop
  endfacet
  facet normal -0 0 1
    outer loop
      vertex -5.88414 1.51079 8.6
      vertex -3.92276 1.00719 8.6
      vertex -5.64839 2.23636 8.6
    endloop
  endfacet
  facet normal 0 0 1
    outer loop
      vertex -5.88414 1.51079 8.6
      vertex -4.01806 0.507599 8.6
      vertex -3.92276 1.00719 8.6
    endloop
  endfacet
  facet normal -0.982287 -0.187382 0
    outer loop
      vertex -6.0271 -0.761399 1.5
      vertex -5.88414 -1.51079 1.5
      vertex -6.0271 -0.761399 8.6
    endloop
  endfacet
  facet normal 0 0 1
    outer loop
      vertex -6.0271 -0.761399 8.6
      vertex -4.01806 -0.507599 8.6
      vertex -4.05 0 8.6
    endloop
  endfacet
  facet normal -0.982287 -0.187382 0
    outer loop
      vertex -6.0271 -0.761399 8.6
      vertex -5.88414 -1.51079 1.5
      vertex -5.88414 -1.51079 8.6
    endloop
  endfacet
  facet normal 0 0 1
    outer loop
      vertex -6.0271 -0.761399 8.6
      vertex -5.88414 -1.51079 8.6
      vertex -4.01806 -0.507599 8.6
    endloop
  endfacet
  facet normal -0.982287 0.187382 0
    outer loop
      vertex -6.0271 0.761399 1.5
      vertex -5.88414 1.51079 8.6
      vertex -5.88414 1.51079 1.5
    endloop
  endfacet
  facet normal -0.982287 0.187382 0
    outer loop
      vertex -6.0271 0.761399 1.5
      vertex -6.0271 0.761399 8.6
      vertex -5.88414 1.51079 8.6
    endloop
  endfacet
  facet normal -0 0 1
    outer loop
      vertex -6.0271 0.761399 8.6
      vertex -4.01806 0.507599 8.6
      vertex -5.88414 1.51079 8.6
    endloop
  endfacet
  facet normal 0 0 1
    outer loop
      vertex -6.0271 0.761399 8.6
      vertex -4.05 0 8.6
      vertex -4.01806 0.507599 8.6
    endloop
  endfacet
  facet normal -0.998027 -0.0627904 0
    outer loop
      vertex -6.075 0 1.5
      vertex -6.0271 -0.761399 1.5
      vertex -6.075 0 8.6
    endloop
  endfacet
  facet normal -0.998027 0.0627904 0
    outer loop
      vertex -6.075 0 1.5
      vertex -6.0271 0.761399 8.6
      vertex -6.0271 0.761399 1.5
    endloop
  endfacet
  facet normal -0.998027 0.0627904 0
    outer loop
      vertex -6.075 0 1.5
      vertex -6.075 0 8.6
      vertex -6.0271 0.761399 8.6
    endloop
  endfacet
  facet normal 0 0 1
    outer loop
      vertex -6.075 0 8.6
      vertex -4.05 0 8.6
      vertex -6.0271 0.761399 8.6
    endloop
  endfacet
  facet normal -0.998027 -0.0627904 0
    outer loop
      vertex -6.075 0 8.6
      vertex -6.0271 -0.761399 1.5
      vertex -6.0271 -0.761399 8.6
    endloop
  endfacet
  facet normal 0 0 1
    outer loop
      vertex -6.075 0 8.6
      vertex -6.0271 -0.761399 8.6
      vertex -4.05 0 8.6
    endloop
  endfacet
  facet normal 0 0 -1
    outer loop
      vertex -6.1283 -4.45247 0
      vertex -3.27652 -2.38053 0
      vertex -5.52194 -5.18544 0
    endloop
  endfacet
  facet normal -0 0 -1
    outer loop
      vertex -6.1283 -4.45247 0
      vertex -3.54904 -1.9511 0
      vertex -3.27652 -2.38053 0
    endloop
  endfacet
  facet normal -0.770513 -0.637424 0
    outer loop
      vertex -6.1283 -4.45247 0
      vertex -5.52194 -5.18544 0
      vertex -6.1283 -4.45247 1.5
    endloop
  endfacet
  facet normal 0 0 1
    outer loop
      vertex -6.1283 -4.45247 1.5
      vertex -4.91478 -3.5708 1.5
      vertex -5.32356 -2.92665 1.5
    endloop
  endfacet
  facet normal -0.770513 -0.637424 0
    outer loop
      vertex -6.1283 -4.45247 1.5
      vertex -5.52194 -5.18544 0
      vertex -5.52194 -5.18544 1.5
    endloop
  endfacet
  facet normal 0 0 1
    outer loop
      vertex -6.1283 -4.45247 1.5
      vertex -5.52194 -5.18544 1.5
      vertex -4.91478 -3.5708 1.5
    endloop
  endfacet
  facet normal 0 0 -1
    outer loop
      vertex -6.1283 4.45247 0
      vertex -3.27652 2.38053 0
      vertex -3.54904 1.9511 0
    endloop
  endfacet
  facet normal 0 0 -1
    outer loop
      vertex -6.1283 4.45247 0
      vertex -5.52194 5.18544 0
      vertex -3.27652 2.38053 0
    endloop
  endfacet
  facet normal -0.770513 0.637424 0
    outer loop
      vertex -6.1283 4.45247 0
      vertex -5.52194 5.18544 1.5
      vertex -5.52194 5.18544 0
    endloop
  endfacet
  facet normal -0.770513 0.637424 0
    outer loop
      vertex -6.1283 4.45247 0
      vertex -6.1283 4.45247 1.5
      vertex -5.52194 5.18544 1.5
    endloop
  endfacet
  facet normal -0 0 1
    outer loop
      vertex -6.1283 4.45247 1.5
      vertex -4.91478 3.5708 1.5
      vertex -5.52194 5.18544 1.5
    endloop
  endfacet
  facet normal 0 0 1
    outer loop
      vertex -6.1283 4.45247 1.5
      vertex -5.32356 2.92665 1.5
      vertex -4.91478 3.5708 1.5
    endloop
  endfacet
  facet normal 0 0 -1
    outer loop
      vertex -6.63802 -3.64928 0
      vertex -3.54904 -1.9511 0
      vertex -6.1283 -4.45247 0
    endloop
  endfacet
  facet normal -0 0 -1
    outer loop
      vertex -6.63802 -3.64928 0
      vertex -3.76559 -1.4909 0
      vertex -3.54904 -1.9511 0
    endloop
  endfacet
  facet normal -0.844328 -0.535826 0
    outer loop
      vertex -6.63802 -3.64928 0
      vertex -6.1283 -4.45247 0
      vertex -6.63802 -3.64928 1.5
    endloop
  endfacet
  facet normal 0 0 1
    outer loop
      vertex -6.63802 -3.64928 1.5
      vertex -5.32356 -2.92665 1.5
      vertex -5.64839 -2.23636 1.5
    endloop
  endfacet
  facet normal -0.844328 -0.535826 0
    outer loop
      vertex -6.63802 -3.64928 1.5
      vertex -6.1283 -4.45247 0
      vertex -6.1283 -4.45247 1.5
    endloop
  endfacet
  facet normal 0 0 1
    outer loop
      vertex -6.63802 -3.64928 1.5
      vertex -6.1283 -4.45247 1.5
      vertex -5.32356 -2.92665 1.5
    endloop
  endfacet
  facet normal 0 0 -1
    outer loop
      vertex -6.63802 3.64928 0
      vertex -3.54904 1.9511 0
      vertex -3.76559 1.4909 0
    endloop
  endfacet
  facet normal 0 0 -1
    outer loop
      vertex -6.63802 3.64928 0
      vertex -6.1283 4.45247 0
      vertex -3.54904 1.9511 0
    endloop
  endfacet
  facet normal -0.844328 0.535826 0
    outer loop
      vertex -6.63802 3.64928 0
      vertex -6.1283 4.45247 1.5
      vertex -6.1283 4.45247 0
    endloop
  endfacet
  facet normal -0.844328 0.535826 0
    outer loop
      vertex -6.63802 3.64928 0
      vertex -6.63802 3.64928 1.5
      vertex -6.1283 4.45247 1.5
    endloop
  endfacet
  facet normal -0 0 1
    outer loop
      vertex -6.63802 3.64928 1.5
      vertex -5.32356 2.92665 1.5
      vertex -6.1283 4.45247 1.5
    endloop
  endfacet
  facet normal 0 0 1
    outer loop
      vertex -6.63802 3.64928 1.5
      vertex -5.64839 2.23636 1.5
      vertex -5.32356 2.92665 1.5
    endloop
  endfacet
  facet normal 0 0 -1
    outer loop
      vertex -7.04306 -2.78854 0
      vertex -3.76559 -1.4909 0
      vertex -6.63802 -3.64928 0
    endloop
  endfacet
  facet normal -0 0 -1
    outer loop
      vertex -7.04306 -2.78854 0
      vertex -3.92276 -1.00719 0
      vertex -3.76559 -1.4909 0
    endloop
  endfacet
  facet normal -0.904827 -0.42578 0
    outer loop
      vertex -7.04306 -2.78854 0
      vertex -6.63802 -3.64928 0
      vertex -7.04306 -2.78854 1.5
    endloop
  endfacet
  facet normal 0 0 1
    outer loop
      vertex -7.04306 -2.78854 1.5
      vertex -5.64839 -2.23636 1.5
      vertex -5.88414 -1.51079 1.5
    endloop
  endfacet
  facet normal -0.904827 -0.42578 0
    outer loop
      vertex -7.04306 -2.78854 1.5
      vertex -6.63802 -3.64928 0
      vertex -6.63802 -3.64928 1.5
    endloop
  endfacet
  facet normal 0 0 1
    outer loop
      vertex -7.04306 -2.78854 1.5
      vertex -6.63802 -3.64928 1.5
      vertex -5.64839 -2.23636 1.5
    endloop
  endfacet
  facet normal 0 0 -1
    outer loop
      vertex -7.04306 2.78854 0
      vertex -3.76559 1.4909 0
      vertex -3.92276 1.00719 0
    endloop
  endfacet
  facet normal 0 0 -1
    outer loop
      vertex -7.04306 2.78854 0
      vertex -6.63802 3.64928 0
      vertex -3.76559 1.4909 0
    endloop
  endfacet
  facet normal -0.904827 0.42578 0
    outer loop
      vertex -7.04306 2.78854 0
      vertex -6.63802 3.64928 1.5
      vertex -6.63802 3.64928 0
    endloop
  endfacet
  facet normal -0.904827 0.42578 0
    outer loop
      vertex -7.04306 2.78854 0
      vertex -7.04306 2.78854 1.5
      vertex -6.63802 3.64928 1.5
    endloop
  endfacet
  facet normal -0 0 1
    outer loop
      vertex -7.04306 2.78854 1.5
      vertex -5.64839 2.23636 1.5
      vertex -6.63802 3.64928 1.5
    endloop
  endfacet
  facet normal 0 0 1
    outer loop
      vertex -7.04306 2.78854 1.5
      vertex -5.88414 1.51079 1.5
      vertex -5.64839 2.23636 1.5
    endloop
  endfacet
  facet normal 0 0 -1
    outer loop
      vertex -7.33702 -1.88383 0
      vertex -3.92276 -1.00719 0
      vertex -7.04306 -2.78854 0
    endloop
  endfacet
  facet normal -0 0 -1
    outer loop
      vertex -7.33702 -1.88383 0
      vertex -4.01806 -0.507599 0
      vertex -3.92276 -1.00719 0
    endloop
  endfacet
  facet normal -0.951056 -0.309017 0
    outer loop
      vertex -7.33702 -1.88383 0
      vertex -7.04306 -2.78854 0
      vertex -7.33702 -1.88383 1.5
    endloop
  endfacet
  facet normal 0 0 1
    outer loop
      vertex -7.33702 -1.88383 1.5
      vertex -5.88414 -1.51079 1.5
      vertex -6.0271 -0.761399 1.5
    endloop
  endfacet
  facet normal -0.951056 -0.309017 0
    outer loop
      vertex -7.33702 -1.88383 1.5
      vertex -7.04306 -2.78854 0
      vertex -7.04306 -2.78854 1.5
    endloop
  endfacet
  facet normal 0 0 1
    outer loop
      vertex -7.33702 -1.88383 1.5
      vertex -7.04306 -2.78854 1.5
      vertex -5.88414 -1.51079 1.5
    endloop
  endfacet
  facet normal 0 0 -1
    outer loop
      vertex -7.33702 1.88383 0
      vertex -3.92276 1.00719 0
      vertex -4.01806 0.507599 0
    endloop
  endfacet
  facet normal 0 0 -1
    outer loop
      vertex -7.33702 1.88383 0
      vertex -7.04306 2.78854 0
      vertex -3.92276 1.00719 0
    endloop
  endfacet
  facet normal -0.951056 0.309017 0
    outer loop
      vertex -7.33702 1.88383 0
      vertex -7.04306 2.78854 1.5
      vertex -7.04306 2.78854 0
    endloop
  endfacet
  facet normal -0.951056 0.309017 0
    outer loop
      vertex -7.33702 1.88383 0
      vertex -7.33702 1.88383 1.5
      vertex -7.04306 2.78854 1.5
    endloop
  endfacet
  facet normal -0 0 1
    outer loop
      vertex -7.33702 1.88383 1.5
      vertex -5.88414 1.51079 1.5
      vertex -7.04306 2.78854 1.5
    endloop
  endfacet
  facet normal 0 0 1
    outer loop
      vertex -7.33702 1.88383 1.5
      vertex -6.0271 0.761399 1.5
      vertex -5.88414 1.51079 1.5
    endloop
  endfacet
  facet normal 0 0 -1
    outer loop
      vertex -7.51527 -0.949399 0
      vertex -4.01806 -0.507599 0
      vertex -7.33702 -1.88383 0
    endloop
  endfacet
  facet normal -0 0 -1
    outer loop
      vertex -7.51527 -0.949399 0
      vertex -4.05 0 0
      vertex -4.01806 -0.507599 0
    endloop
  endfacet
  facet normal -0.982287 -0.187381 0
    outer loop
      vertex -7.51527 -0.949399 0
      vertex -7.33702 -1.88383 0
      vertex -7.51527 -0.949399 1.5
    endloop
  endfacet
  facet normal 0 0 1
    outer loop
      vertex -7.51527 -0.949399 1.5
      vertex -6.0271 -0.761399 1.5
      vertex -6.075 0 1.5
    endloop
  endfacet
  facet normal -0.982287 -0.187381 0
    outer loop
      vertex -7.51527 -0.949399 1.5
      vertex -7.33702 -1.88383 0
      vertex -7.33702 -1.88383 1.5
    endloop
  endfacet
  facet normal 0 0 1
    outer loop
      vertex -7.51527 -0.949399 1.5
      vertex -7.33702 -1.88383 1.5
      vertex -6.0271 -0.761399 1.5
    endloop
  endfacet
  facet normal 0 0 -1
    outer loop
      vertex -7.51527 0.949399 0
      vertex -4.01806 0.507599 0
      vertex -4.05 0 0
    endloop
  endfacet
  facet normal 0 0 -1
    outer loop
      vertex -7.51527 0.949399 0
      vertex -7.33702 1.88383 0
      vertex -4.01806 0.507599 0
    endloop
  endfacet
  facet normal -0.982287 0.187381 0
    outer loop
      vertex -7.51527 0.949399 0
      vertex -7.33702 1.88383 1.5
      vertex -7.33702 1.88383 0
    endloop
  endfacet
  facet normal -0.982287 0.187381 0
    outer loop
      vertex -7.51527 0.949399 0
      vertex -7.51527 0.949399 1.5
      vertex -7.33702 1.88383 1.5
    endloop
  endfacet
  facet normal -0 0 1
    outer loop
      vertex -7.51527 0.949399 1.5
      vertex -6.0271 0.761399 1.5
      vertex -7.33702 1.88383 1.5
    endloop
  endfacet
  facet normal 0 0 1
    outer loop
      vertex -7.51527 0.949399 1.5
      vertex -6.075 0 1.5
      vertex -6.0271 0.761399 1.5
    endloop
  endfacet
  facet normal 0 0 -1
    outer loop
      vertex -7.575 0 0
      vertex -4.05 0 0
      vertex -7.51527 -0.949399 0
    endloop
  endfacet
  facet normal -0.998027 -0.0627909 0
    outer loop
      vertex -7.575 0 0
      vertex -7.51527 -0.949399 0
      vertex -7.575 0 1.5
    endloop
  endfacet
  facet normal 0 0 -1
    outer loop
      vertex -7.575 0 0
      vertex -7.51527 0.949399 0
      vertex -4.05 0 0
    endloop
  endfacet
  facet normal -0.998027 0.0627909 0
    outer loop
      vertex -7.575 0 0
      vertex -7.51527 0.949399 1.5
      vertex -7.51527 0.949399 0
    endloop
  endfacet
  facet normal -0.998027 0.0627909 0
    outer loop
      vertex -7.575 0 0
      vertex -7.575 0 1.5
      vertex -7.51527 0.949399 1.5
    endloop
  endfacet
  facet normal 0 0 1
    outer loop
      vertex -7.575 0 1.5
      vertex -6.075 0 1.5
      vertex -7.51527 0.949399 1.5
    endloop
  endfacet
  facet normal -0.998027 -0.0627909 0
    outer loop
      vertex -7.575 0 1.5
      vertex -7.51527 -0.949399 0
      vertex -7.51527 -0.949399 1.5
    endloop
  endfacet
  facet normal 0 0 1
    outer loop
      vertex -7.575 0 1.5
      vertex -7.51527 -0.949399 1.5
      vertex -6.075 0 1.5
    endloop
  endfacet
  facet normal -0.125333 0.992115 0
    outer loop
      vertex 0.254301 -4.04201 0
      vertex 0.254301 -4.04201 8.6
      vertex 0.758894 -3.97826 0
    endloop
  endfacet
  facet normal 0 0 -1
    outer loop
      vertex 0.254301 -4.04201 0
      vertex 0.758894 -3.97826 0
      vertex 0.475637 -7.56005 0
    endloop
  endfacet
  facet normal -0 0 1
    outer loop
      vertex 0.254301 -4.04201 8.6
      vertex 0.381452 -6.06301 8.6
      vertex 0.758894 -3.97826 8.6
    endloop
  endfacet
  facet normal -0.125333 0.992115 0
    outer loop
      vertex 0.254301 -4.04201 8.6
      vertex 0.758894 -3.97826 8.6
      vertex 0.758894 -3.97826 0
    endloop
  endfacet
  facet normal 0 0 -1
    outer loop
      vertex 0.254301 4.04201 0
      vertex 0.475637 7.56005 0
      vertex 0.758894 3.97826 0
    endloop
  endfacet
  facet normal -0.125333 -0.992115 -0
    outer loop
      vertex 0.254301 4.04201 0
      vertex 0.758894 3.97826 0
      vertex 0.758894 3.97826 8.6
    endloop
  endfacet
  facet normal -0.125333 -0.992115 0
    outer loop
      vertex 0.254301 4.04201 0
      vertex 0.758894 3.97826 8.6
      vertex 0.254301 4.04201 8.6
    endloop
  endfacet
  facet normal 0 0 1
    outer loop
      vertex 0.254301 4.04201 8.6
      vertex 0.758894 3.97826 8.6
      vertex 0.381452 6.06301 8.6
    endloop
  endfacet
  facet normal -0 0 1
    outer loop
      vertex 0.381452 -6.06301 1.5
      vertex 0.475637 -7.56005 1.5
      vertex 1.13834 -5.96739 1.5
    endloop
  endfacet
  facet normal 0.125333 -0.992115 0
    outer loop
      vertex 0.381452 -6.06301 1.5
      vertex 1.13834 -5.96739 1.5
      vertex 1.13834 -5.96739 8.6
    endloop
  endfacet
  facet normal 0.125333 -0.992115 0
    outer loop
      vertex 0.381452 -6.06301 1.5
      vertex 1.13834 -5.96739 8.6
      vertex 0.381452 -6.06301 8.6
    endloop
  endfacet
  facet normal 0 0 1
    outer loop
      vertex 0.381452 -6.06301 8.6
      vertex 1.13834 -5.96739 8.6
      vertex 0.758894 -3.97826 8.6
    endloop
  endfacet
  facet normal 0.125333 0.992115 0
    outer loop
      vertex 0.381452 6.06301 1.5
      vertex 0.381452 6.06301 8.6
      vertex 1.13834 5.96739 1.5
    endloop
  endfacet
  facet normal 0 0 1
    outer loop
      vertex 0.381452 6.06301 1.5
      vertex 1.13834 5.96739 1.5
      vertex 0.475637 7.56005 1.5
    endloop
  endfacet
  facet normal 0 0 1
    outer loop
      vertex 0.381452 6.06301 8.6
      vertex 0.758894 3.97826 8.6
      vertex 1.13834 5.96739 8.6
    endloop
  endfacet
  facet normal 0.125333 0.992115 -0
    outer loop
      vertex 0.381452 6.06301 8.6
      vertex 1.13834 5.96739 8.6
      vertex 1.13834 5.96739 1.5
    endloop
  endfacet
  facet normal 0 0 -1
    outer loop
      vertex 0.475637 -7.56005 0
      vertex 0.758894 -3.97826 0
      vertex 1.41941 -7.44083 0
    endloop
  endfacet
  facet normal 0.125333 -0.992115 0
    outer loop
      vertex 0.475637 -7.56005 0
      vertex 1.41941 -7.44083 0
      vertex 1.41941 -7.44083 1.5
    endloop
  endfacet
  facet normal 0.125333 -0.992115 0
    outer loop
      vertex 0.475637 -7.56005 0
      vertex 1.41941 -7.44083 1.5
      vertex 0.475637 -7.56005 1.5
    endloop
  endfacet
  facet normal 0 0 1
    outer loop
      vertex 0.475637 -7.56005 1.5
      vertex 1.41941 -7.44083 1.5
      vertex 1.13834 -5.96739 1.5
    endloop
  endfacet
  facet normal 0.125333 0.992115 0
    outer loop
      vertex 0.475637 7.56005 0
      vertex 0.475637 7.56005 1.5
      vertex 1.41941 7.44083 0
    endloop
  endfacet
  facet normal 0 0 -1
    outer loop
      vertex 0.475637 7.56005 0
      vertex 1.41941 7.44083 0
      vertex 0.758894 3.97826 0
    endloop
  endfacet
  facet normal 0 0 1
    outer loop
      vertex 0.475637 7.56005 1.5
      vertex 1.13834 5.96739 1.5
      vertex 1.41941 7.44083 1.5
    endloop
  endfacet
  facet normal 0.125333 0.992115 -0
    outer loop
      vertex 0.475637 7.56005 1.5
      vertex 1.41941 7.44083 1.5
      vertex 1.41941 7.44083 0
    endloop
  endfacet
  facet normal -0.248691 0.968583 0
    outer loop
      vertex 0.758894 -3.97826 0
      vertex 0.758894 -3.97826 8.6
      vertex 1.25152 -3.85178 0
    endloop
  endfacet
  facet normal 0 0 -1
    outer loop
      vertex 0.758894 -3.97826 0
      vertex 1.25152 -3.85178 0
      vertex 1.41941 -7.44083 0
    endloop
  endfacet
  facet normal -0 0 1
    outer loop
      vertex 0.758894 -3.97826 8.6
      vertex 1.13834 -5.96739 8.6
      vertex 1.25152 -3.85178 8.6
    endloop
  endfacet
  facet normal -0.248691 0.968583 0
    outer loop
      vertex 0.758894 -3.97826 8.6
      vertex 1.25152 -3.85178 8.6
      vertex 1.25152 -3.85178 0
    endloop
  endfacet
  facet normal -0.248691 -0.968583 -0
    outer loop
      vertex 0.758894 3.97826 0
      vertex 1.25152 3.85178 0
      vertex 1.25152 3.85178 8.6
    endloop
  endfacet
  facet normal -0.248691 -0.968583 0
    outer loop
      vertex 0.758894 3.97826 0
      vertex 1.25152 3.85178 8.6
      vertex 0.758894 3.97826 8.6
    endloop
  endfacet
  facet normal 0 0 -1
    outer loop
      vertex 0.758894 3.97826 0
      vertex 1.41941 7.44083 0
      vertex 1.25152 3.85178 0
    endloop
  endfacet
  facet normal 0 0 1
    outer loop
      vertex 0.758894 3.97826 8.6
      vertex 1.25152 3.85178 8.6
      vertex 1.13834 5.96739 8.6
    endloop
  endfacet
  facet normal -0 0 1
    outer loop
      vertex 1.13834 -5.96739 1.5
      vertex 1.41941 -7.44083 1.5
      vertex 1.87728 -5.77767 1.5
    endloop
  endfacet
  facet normal 0.24869 -0.968583 0
    outer loop
      vertex 1.13834 -5.96739 1.5
      vertex 1.87728 -5.77767 1.5
      vertex 1.87728 -5.77767 8.6
    endloop
  endfacet
  facet normal 0.24869 -0.968583 0
    outer loop
      vertex 1.13834 -5.96739 1.5
      vertex 1.87728 -5.77767 8.6
      vertex 1.13834 -5.96739 8.6
    endloop
  endfacet
  facet normal 0 0 1
    outer loop
      vertex 1.13834 -5.96739 8.6
      vertex 1.87728 -5.77767 8.6
      vertex 1.25152 -3.85178 8.6
    endloop
  endfacet
  facet normal 0.24869 0.968583 0
    outer loop
      vertex 1.13834 5.96739 1.5
      vertex 1.13834 5.96739 8.6
      vertex 1.87728 5.77767 1.5
    endloop
  endfacet
  facet normal 0 0 1
    outer loop
      vertex 1.13834 5.96739 1.5
      vertex 1.87728 5.77767 1.5
      vertex 1.41941 7.44083 1.5
    endloop
  endfacet
  facet normal 0 0 1
    outer loop
      vertex 1.13834 5.96739 8.6
      vertex 1.25152 3.85178 8.6
      vertex 1.87728 5.77767 8.6
    endloop
  endfacet
  facet normal 0.24869 0.968583 -0
    outer loop
      vertex 1.13834 5.96739 8.6
      vertex 1.87728 5.77767 8.6
      vertex 1.87728 5.77767 1.5
    endloop
  endfacet
  facet normal -0.368124 0.929777 0
    outer loop
      vertex 1.25152 -3.85178 0
      vertex 1.25152 -3.85178 8.6
      vertex 1.72441 -3.66455 0
    endloop
  endfacet
  facet normal 0 0 -1
    outer loop
      vertex 1.25152 -3.85178 0
      vertex 1.72441 -3.66455 0
      vertex 2.3408 -7.20425 0
    endloop
  endfacet
  facet normal 0 0 -1
    outer loop
      vertex 1.25152 -3.85178 0
      vertex 2.3408 -7.20425 0
      vertex 1.41941 -7.44083 0
    endloop
  endfacet
  facet normal -0.368124 0.929777 0
    outer loop
      vertex 1.25152 -3.85178 8.6
      vertex 1.72441 -3.66455 8.6
      vertex 1.72441 -3.66455 0
    endloop
  endfacet
  facet normal -0 0 1
    outer loop
      vertex 1.25152 -3.85178 8.6
      vertex 1.87728 -5.77767 8.6
      vertex 1.72441 -3.66455 8.6
    endloop
  endfacet
  facet normal -0 0 -1
    outer loop
      vertex 1.25152 3.85178 0
      vertex 1.41941 7.44083 0
      vertex 2.3408 7.20425 0
    endloop
  endfacet
  facet normal -0.368124 -0.929777 -0
    outer loop
      vertex 1.25152 3.85178 0
      vertex 1.72441 3.66455 0
      vertex 1.72441 3.66455 8.6
    endloop
  endfacet
  facet normal -0.368124 -0.929777 0
    outer loop
      vertex 1.25152 3.85178 0
      vertex 1.72441 3.66455 8.6
      vertex 1.25152 3.85178 8.6
    endloop
  endfacet
  facet normal 0 0 -1
    outer loop
      vertex 1.25152 3.85178 0
      vertex 2.3408 7.20425 0
      vertex 1.72441 3.66455 0
    endloop
  endfacet
  facet normal 0 0 1
    outer loop
      vertex 1.25152 3.85178 8.6
      vertex 1.72441 3.66455 8.6
      vertex 1.87728 5.77767 8.6
    endloop
  endfacet
  facet normal 0.24869 -0.968583 0
    outer loop
      vertex 1.41941 -7.44083 0
      vertex 2.3408 -7.20425 0
      vertex 2.3408 -7.20425 1.5
    endloop
  endfacet
  facet normal 0.24869 -0.968583 0
    outer loop
      vertex 1.41941 -7.44083 0
      vertex 2.3408 -7.20425 1.5
      vertex 1.41941 -7.44083 1.5
    endloop
  endfacet
  facet normal 0 0 1
    outer loop
      vertex 1.41941 -7.44083 1.5
      vertex 2.3408 -7.20425 1.5
      vertex 1.87728 -5.77767 1.5
    endloop
  endfacet
  facet normal 0.24869 0.968583 0
    outer loop
      vertex 1.41941 7.44083 0
      vertex 1.41941 7.44083 1.5
      vertex 2.3408 7.20425 0
    endloop
  endfacet
  facet normal 0 0 1
    outer loop
      vertex 1.41941 7.44083 1.5
      vertex 1.87728 5.77767 1.5
      vertex 2.3408 7.20425 1.5
    endloop
  endfacet
  facet normal 0.24869 0.968583 -0
    outer loop
      vertex 1.41941 7.44083 1.5
      vertex 2.3408 7.20425 1.5
      vertex 2.3408 7.20425 0
    endloop
  endfacet
  facet normal -0.481752 0.876307 0
    outer loop
      vertex 1.72441 -3.66455 0
      vertex 1.72441 -3.66455 8.6
      vertex 2.1701 -3.41953 0
    endloop
  endfacet
  facet normal 0 0 -1
    outer loop
      vertex 1.72441 -3.66455 0
      vertex 2.1701 -3.41953 0
      vertex 3.22528 -6.85406 0
    endloop
  endfacet
  facet normal 0 0 -1
    outer loop
      vertex 1.72441 -3.66455 0
      vertex 3.22528 -6.85406 0
      vertex 2.3408 -7.20425 0
    endloop
  endfacet
  facet normal 0 0 1
    outer loop
      vertex 1.72441 -3.66455 8.6
      vertex 1.87728 -5.77767 8.6
      vertex 2.58661 -5.49682 8.6
    endloop
  endfacet
  facet normal -0.481752 0.876307 0
    outer loop
      vertex 1.72441 -3.66455 8.6
      vertex 2.1701 -3.41953 8.6
      vertex 2.1701 -3.41953 0
    endloop
  endfacet
  facet normal -0 0 1
    outer loop
      vertex 1.72441 -3.66455 8.6
      vertex 2.58661 -5.49682 8.6
      vertex 2.1701 -3.41953 8.6
    endloop
  endfacet
  facet normal -0.481752 -0.876307 -0
    outer loop
      vertex 1.72441 3.66455 0
      vertex 2.1701 3.41953 0
      vertex 2.1701 3.41953 8.6
    endloop
  endfacet
  facet normal -0.481752 -0.876307 0
    outer loop
      vertex 1.72441 3.66455 0
      vertex 2.1701 3.41953 8.6
      vertex 1.72441 3.66455 8.6
    endloop
  endfacet
  facet normal -0 0 -1
    outer loop
      vertex 1.72441 3.66455 0
      vertex 2.3408 7.20425 0
      vertex 3.22528 6.85406 0
    endloop
  endfacet
  facet normal 0 0 -1
    outer loop
      vertex 1.72441 3.66455 0
      vertex 3.22528 6.85406 0
      vertex 2.1701 3.41953 0
    endloop
  endfacet
  facet normal 0 0 1
    outer loop
      vertex 1.72441 3.66455 8.6
      vertex 2.1701 3.41953 8.6
      vertex 2.58661 5.49682 8.6
    endloop
  endfacet
  facet normal 0 0 1
    outer loop
      vertex 1.72441 3.66455 8.6
      vertex 2.58661 5.49682 8.6
      vertex 1.87728 5.77767 8.6
    endloop
  endfacet
  facet normal -0 0 1
    outer loop
      vertex 1.87728 -5.77767 1.5
      vertex 2.3408 -7.20425 1.5
      vertex 2.58661 -5.49682 1.5
    endloop
  endfacet
  facet normal 0.368124 -0.929777 0
    outer loop
      vertex 1.87728 -5.77767 1.5
      vertex 2.58661 -5.49682 1.5
      vertex 2.58661 -5.49682 8.6
    endloop
  endfacet
  facet normal 0.368124 -0.929777 0
    outer loop
      vertex 1.87728 -5.77767 1.5
      vertex 2.58661 -5.49682 8.6
      vertex 1.87728 -5.77767 8.6
    endloop
  endfacet
  facet normal 0.368124 0.929777 0
    outer loop
      vertex 1.87728 5.77767 1.5
      vertex 1.87728 5.77767 8.6
      vertex 2.58661 5.49682 1.5
    endloop
  endfacet
  facet normal 0 0 1
    outer loop
      vertex 1.87728 5.77767 1.5
      vertex 2.58661 5.49682 1.5
      vertex 2.3408 7.20425 1.5
    endloop
  endfacet
  facet normal 0.368124 0.929777 -0
    outer loop
      vertex 1.87728 5.77767 8.6
      vertex 2.58661 5.49682 8.6
      vertex 2.58661 5.49682 1.5
    endloop
  endfacet
  facet normal -0.587786 0.809016 0
    outer loop
      vertex 2.1701 -3.41953 0
      vertex 2.1701 -3.41953 8.6
      vertex 2.58157 -3.12058 0
    endloop
  endfacet
  facet normal 0 0 -1
    outer loop
      vertex 2.1701 -3.41953 0
      vertex 2.58157 -3.12058 0
      vertex 4.05889 -6.39578 0
    endloop
  endfacet
  facet normal 0 0 -1
    outer loop
      vertex 2.1701 -3.41953 0
      vertex 4.05889 -6.39578 0
      vertex 3.22528 -6.85406 0
    endloop
  endfacet
  facet normal -0.587786 0.809016 0
    outer loop
      vertex 2.1701 -3.41953 8.6
      vertex 2.58157 -3.12058 8.6
      vertex 2.58157 -3.12058 0
    endloop
  endfacet
  facet normal 0 0 1
    outer loop
      vertex 2.1701 -3.41953 8.6
      vertex 2.58661 -5.49682 8.6
      vertex 3.25515 -5.12929 8.6
    endloop
  endfacet
  facet normal -0 0 1
    outer loop
      vertex 2.1701 -3.41953 8.6
      vertex 3.25515 -5.12929 8.6
      vertex 2.58157 -3.12058 8.6
    endloop
  endfacet
  facet normal -0.587786 -0.809016 -0
    outer loop
      vertex 2.1701 3.41953 0
      vertex 2.58157 3.12058 0
      vertex 2.58157 3.12058 8.6
    endloop
  endfacet
  facet normal -0.587786 -0.809016 0
    outer loop
      vertex 2.1701 3.41953 0
      vertex 2.58157 3.12058 8.6
      vertex 2.1701 3.41953 8.6
    endloop
  endfacet
  facet normal -0 0 -1
    outer loop
      vertex 2.1701 3.41953 0
      vertex 3.22528 6.85406 0
      vertex 4.05889 6.39578 0
    endloop
  endfacet
  facet normal 0 0 -1
    outer loop
      vertex 2.1701 3.41953 0
      vertex 4.05889 6.39578 0
      vertex 2.58157 3.12058 0
    endloop
  endfacet
  facet normal 0 0 1
    outer loop
      vertex 2.1701 3.41953 8.6
      vertex 2.58157 3.12058 8.6
      vertex 3.25515 5.12929 8.6
    endloop
  endfacet
  facet normal 0 0 1
    outer loop
      vertex 2.1701 3.41953 8.6
      vertex 3.25515 5.12929 8.6
      vertex 2.58661 5.49682 8.6
    endloop
  endfacet
  facet normal 0.368124 -0.929777 0
    outer loop
      vertex 2.3408 -7.20425 0
      vertex 3.22528 -6.85406 0
      vertex 3.22528 -6.85406 1.5
    endloop
  endfacet
  facet normal 0.368124 -0.929777 0
    outer loop
      vertex 2.3408 -7.20425 0
      vertex 3.22528 -6.85406 1.5
      vertex 2.3408 -7.20425 1.5
    endloop
  endfacet
  facet normal 0 0 1
    outer loop
      vertex 2.3408 -7.20425 1.5
      vertex 3.22528 -6.85406 1.5
      vertex 2.58661 -5.49682 1.5
    endloop
  endfacet
  facet normal 0.368124 0.929777 0
    outer loop
      vertex 2.3408 7.20425 0
      vertex 2.3408 7.20425 1.5
      vertex 3.22528 6.85406 0
    endloop
  endfacet
  facet normal 0 0 1
    outer loop
      vertex 2.3408 7.20425 1.5
      vertex 2.58661 5.49682 1.5
      vertex 3.22528 6.85406 1.5
    endloop
  endfacet
  facet normal 0.368124 0.929777 -0
    outer loop
      vertex 2.3408 7.20425 1.5
      vertex 3.22528 6.85406 1.5
      vertex 3.22528 6.85406 0
    endloop
  endfacet
  facet normal -0.684547 0.728968 0
    outer loop
      vertex 2.58157 -3.12058 0
      vertex 2.58157 -3.12058 8.6
      vertex 2.95232 -2.77242 0
    endloop
  endfacet
  facet normal 0 0 -1
    outer loop
      vertex 2.58157 -3.12058 0
      vertex 2.95232 -2.77242 0
      vertex 4.82849 -5.83664 0
    endloop
  endfacet
  facet normal 0 0 -1
    outer loop
      vertex 2.58157 -3.12058 0
      vertex 4.82849 -5.83664 0
      vertex 4.05889 -6.39578 0
    endloop
  endfacet
  facet normal -0.684547 0.728968 0
    outer loop
      vertex 2.58157 -3.12058 8.6
      vertex 2.95232 -2.77242 8.6
      vertex 2.95232 -2.77242 0
    endloop
  endfacet
  facet normal 0 0 1
    outer loop
      vertex 2.58157 -3.12058 8.6
      vertex 3.25515 -5.12929 8.6
      vertex 3.87235 -4.68087 8.6
    endloop
  endfacet
  facet normal -0 0 1
    outer loop
      vertex 2.58157 -3.12058 8.6
      vertex 3.87235 -4.68087 8.6
      vertex 2.95232 -2.77242 8.6
    endloop
  endfacet
  facet normal -0.684547 -0.728968 -0
    outer loop
      vertex 2.58157 3.12058 0
      vertex 2.95232 2.77242 0
      vertex 2.95232 2.77242 8.6
    endloop
  endfacet
  facet normal -0.684547 -0.728968 0
    outer loop
      vertex 2.58157 3.12058 0
      vertex 2.95232 2.77242 8.6
      vertex 2.58157 3.12058 8.6
    endloop
  endfacet
  facet normal -0 0 -1
    outer loop
      vertex 2.58157 3.12058 0
      vertex 4.05889 6.39578 0
      vertex 4.82849 5.83664 0
    endloop
  endfacet
  facet normal 0 0 -1
    outer loop
      vertex 2.58157 3.12058 0
      vertex 4.82849 5.83664 0
      vertex 2.95232 2.77242 0
    endloop
  endfacet
  facet normal 0 0 1
    outer loop
      vertex 2.58157 3.12058 8.6
      vertex 2.95232 2.77242 8.6
      vertex 3.87235 4.68087 8.6
    endloop
  endfacet
  facet normal 0 0 1
    outer loop
      vertex 2.58157 3.12058 8.6
      vertex 3.87235 4.68087 8.6
      vertex 3.25515 5.12929 8.6
    endloop
  endfacet
  facet normal -0 0 1
    outer loop
      vertex 2.58661 -5.49682 1.5
      vertex 3.22528 -6.85406 1.5
      vertex 3.25515 -5.12929 1.5
    endloop
  endfacet
  facet normal 0.481754 -0.876306 0
    outer loop
      vertex 2.58661 -5.49682 1.5
      vertex 3.25515 -5.12929 1.5
      vertex 3.25515 -5.12929 8.6
    endloop
  endfacet
  facet normal 0.481754 -0.876306 0
    outer loop
      vertex 2.58661 -5.49682 1.5
      vertex 3.25515 -5.12929 8.6
      vertex 2.58661 -5.49682 8.6
    endloop
  endfacet
  facet normal 0.481754 0.876306 0
    outer loop
      vertex 2.58661 5.49682 1.5
      vertex 2.58661 5.49682 8.6
      vertex 3.25515 5.12929 1.5
    endloop
  endfacet
  facet normal 0 0 1
    outer loop
      vertex 2.58661 5.49682 1.5
      vertex 3.25515 5.12929 1.5
      vertex 3.22528 6.85406 1.5
    endloop
  endfacet
  facet normal 0.481754 0.876306 -0
    outer loop
      vertex 2.58661 5.49682 8.6
      vertex 3.25515 5.12929 8.6
      vertex 3.25515 5.12929 1.5
    endloop
  endfacet
  facet normal -0.770513 0.637425 0
    outer loop
      vertex 2.95232 -2.77242 0
      vertex 2.95232 -2.77242 8.6
      vertex 3.27652 -2.38053 8.6
    endloop
  endfacet
  facet normal 0 0 -1
    outer loop
      vertex 2.95232 -2.77242 0
      vertex 3.27652 -2.38053 0
      vertex 5.52194 -5.18544 0
    endloop
  endfacet
  facet normal -0.770513 0.637425 0
    outer loop
      vertex 2.95232 -2.77242 0
      vertex 3.27652 -2.38053 8.6
      vertex 3.27652 -2.38053 0
    endloop
  endfacet
  facet normal 0 0 -1
    outer loop
      vertex 2.95232 -2.77242 0
      vertex 5.52194 -5.18544 0
      vertex 4.82849 -5.83664 0
    endloop
  endfacet
  facet normal 0 0 1
    outer loop
      vertex 2.95232 -2.77242 8.6
      vertex 3.87235 -4.68087 8.6
      vertex 4.42848 -4.15862 8.6
    endloop
  endfacet
  facet normal -0 0 1
    outer loop
      vertex 2.95232 -2.77242 8.6
      vertex 4.42848 -4.15862 8.6
      vertex 3.27652 -2.38053 8.6
    endloop
  endfacet
  facet normal -0.770513 -0.637425 0
    outer loop
      vertex 2.95232 2.77242 0
      vertex 3.27652 2.38053 0
      vertex 2.95232 2.77242 8.6
    endloop
  endfacet
  facet normal -0 0 -1
    outer loop
      vertex 2.95232 2.77242 0
      vertex 4.82849 5.83664 0
      vertex 5.52194 5.18544 0
    endloop
  endfacet
  facet normal 0 0 -1
    outer loop
      vertex 2.95232 2.77242 0
      vertex 5.52194 5.18544 0
      vertex 3.27652 2.38053 0
    endloop
  endfacet
  facet normal -0.770513 -0.637425 0
    outer loop
      vertex 2.95232 2.77242 8.6
      vertex 3.27652 2.38053 0
      vertex 3.27652 2.38053 8.6
    endloop
  endfacet
  facet normal 0 0 1
    outer loop
      vertex 2.95232 2.77242 8.6
      vertex 3.27652 2.38053 8.6
      vertex 4.42848 4.15862 8.6
    endloop
  endfacet
  facet normal 0 0 1
    outer loop
      vertex 2.95232 2.77242 8.6
      vertex 4.42848 4.15862 8.6
      vertex 3.87235 4.68087 8.6
    endloop
  endfacet
  facet normal 0.481754 -0.876307 0
    outer loop
      vertex 3.22528 -6.85406 0
      vertex 4.05889 -6.39578 0
      vertex 4.05889 -6.39578 1.5
    endloop
  endfacet
  facet normal 0.481754 -0.876307 0
    outer loop
      vertex 3.22528 -6.85406 0
      vertex 4.05889 -6.39578 1.5
      vertex 3.22528 -6.85406 1.5
    endloop
  endfacet
  facet normal 0 0 1
    outer loop
      vertex 3.22528 -6.85406 1.5
      vertex 4.05889 -6.39578 1.5
      vertex 3.25515 -5.12929 1.5
    endloop
  endfacet
  facet normal 0.481754 0.876307 0
    outer loop
      vertex 3.22528 6.85406 0
      vertex 3.22528 6.85406 1.5
      vertex 4.05889 6.39578 0
    endloop
  endfacet
  facet normal 0 0 1
    outer loop
      vertex 3.22528 6.85406 1.5
      vertex 3.25515 5.12929 1.5
      vertex 4.05889 6.39578 1.5
    endloop
  endfacet
  facet normal 0.481754 0.876307 -0
    outer loop
      vertex 3.22528 6.85406 1.5
      vertex 4.05889 6.39578 1.5
      vertex 4.05889 6.39578 0
    endloop
  endfacet
  facet normal 0.587785 -0.809017 0
    outer loop
      vertex 3.25515 -5.12929 1.5
      vertex 3.87235 -4.68087 1.5
      vertex 3.87235 -4.68087 8.6
    endloop
  endfacet
  facet normal 0.587785 -0.809017 0
    outer loop
      vertex 3.25515 -5.12929 1.5
      vertex 3.87235 -4.68087 8.6
      vertex 3.25515 -5.12929 8.6
    endloop
  endfacet
  facet normal -0 0 1
    outer loop
      vertex 3.25515 -5.12929 1.5
      vertex 4.05889 -6.39578 1.5
      vertex 3.87235 -4.68087 1.5
    endloop
  endfacet
  facet normal 0.587785 0.809017 0
    outer loop
      vertex 3.25515 5.12929 1.5
      vertex 3.25515 5.12929 8.6
      vertex 3.87235 4.68087 1.5
    endloop
  endfacet
  facet normal 0 0 1
    outer loop
      vertex 3.25515 5.12929 1.5
      vertex 3.87235 4.68087 1.5
      vertex 4.05889 6.39578 1.5
    endloop
  endfacet
  facet normal 0.587785 0.809017 -0
    outer loop
      vertex 3.25515 5.12929 8.6
      vertex 3.87235 4.68087 8.6
      vertex 3.87235 4.68087 1.5
    endloop
  endfacet
  facet normal -0.844328 0.535827 0
    outer loop
      vertex 3.27652 -2.38053 0
      vertex 3.27652 -2.38053 8.6
      vertex 3.54904 -1.9511 8.6
    endloop
  endfacet
  facet normal 0 0 -1
    outer loop
      vertex 3.27652 -2.38053 0
      vertex 3.54904 -1.9511 0
      vertex 6.1283 -4.45247 0
    endloop
  endfacet
  facet normal -0.844328 0.535827 0
    outer loop
      vertex 3.27652 -2.38053 0
      vertex 3.54904 -1.9511 8.6
      vertex 3.54904 -1.9511 0
    endloop
  endfacet
  facet normal 0 0 -1
    outer loop
      vertex 3.27652 -2.38053 0
      vertex 6.1283 -4.45247 0
      vertex 5.52194 -5.18544 0
    endloop
  endfacet
  facet normal 0 0 1
    outer loop
      vertex 3.27652 -2.38053 8.6
      vertex 4.42848 -4.15862 8.6
      vertex 4.91478 -3.5708 8.6
    endloop
  endfacet
  facet normal -0 0 1
    outer loop
      vertex 3.27652 -2.38053 8.6
      vertex 4.91478 -3.5708 8.6
      vertex 3.54904 -1.9511 8.6
    endloop
  endfacet
  facet normal -0.844328 -0.535827 0
    outer loop
      vertex 3.27652 2.38053 0
      vertex 3.54904 1.9511 0
      vertex 3.27652 2.38053 8.6
    endloop
  endfacet
  facet normal -0 0 -1
    outer loop
      vertex 3.27652 2.38053 0
      vertex 5.52194 5.18544 0
      vertex 6.1283 4.45247 0
    endloop
  endfacet
  facet normal 0 0 -1
    outer loop
      vertex 3.27652 2.38053 0
      vertex 6.1283 4.45247 0
      vertex 3.54904 1.9511 0
    endloop
  endfacet
  facet normal -0.844328 -0.535827 0
    outer loop
      vertex 3.27652 2.38053 8.6
      vertex 3.54904 1.9511 0
      vertex 3.54904 1.9511 8.6
    endloop
  endfacet
  facet normal 0 0 1
    outer loop
      vertex 3.27652 2.38053 8.6
      vertex 3.54904 1.9511 8.6
      vertex 4.91478 3.5708 8.6
    endloop
  endfacet
  facet normal 0 0 1
    outer loop
      vertex 3.27652 2.38053 8.6
      vertex 4.91478 3.5708 8.6
      vertex 4.42848 4.15862 8.6
    endloop
  endfacet
  facet normal -0.904827 0.425779 0
    outer loop
      vertex 3.54904 -1.9511 0
      vertex 3.54904 -1.9511 8.6
      vertex 3.76559 -1.4909 8.6
    endloop
  endfacet
  facet normal 0 0 -1
    outer loop
      vertex 3.54904 -1.9511 0
      vertex 3.76559 -1.4909 0
      vertex 6.63802 -3.64928 0
    endloop
  endfacet
  facet normal -0.904827 0.425779 0
    outer loop
      vertex 3.54904 -1.9511 0
      vertex 3.76559 -1.4909 8.6
      vertex 3.76559 -1.4909 0
    endloop
  endfacet
  facet normal 0 0 -1
    outer loop
      vertex 3.54904 -1.9511 0
      vertex 6.63802 -3.64928 0
      vertex 6.1283 -4.45247 0
    endloop
  endfacet
  facet normal 0 0 1
    outer loop
      vertex 3.54904 -1.9511 8.6
      vertex 4.91478 -3.5708 8.6
      vertex 5.32356 -2.92665 8.6
    endloop
  endfacet
  facet normal -0 0 1
    outer loop
      vertex 3.54904 -1.9511 8.6
      vertex 5.32356 -2.92665 8.6
      vertex 3.76559 -1.4909 8.6
    endloop
  endfacet
  facet normal -0.904827 -0.425779 0
    outer loop
      vertex 3.54904 1.9511 0
      vertex 3.76559 1.4909 0
      vertex 3.54904 1.9511 8.6
    endloop
  endfacet
  facet normal -0 0 -1
    outer loop
      vertex 3.54904 1.9511 0
      vertex 6.1283 4.45247 0
      vertex 6.63802 3.64928 0
    endloop
  endfacet
  facet normal 0 0 -1
    outer loop
      vertex 3.54904 1.9511 0
      vertex 6.63802 3.64928 0
      vertex 3.76559 1.4909 0
    endloop
  endfacet
  facet normal -0.904827 -0.425779 0
    outer loop
      vertex 3.54904 1.9511 8.6
      vertex 3.76559 1.4909 0
      vertex 3.76559 1.4909 8.6
    endloop
  endfacet
  facet normal 0 0 1
    outer loop
      vertex 3.54904 1.9511 8.6
      vertex 3.76559 1.4909 8.6
      vertex 5.32356 2.92665 8.6
    endloop
  endfacet
  facet normal 0 0 1
    outer loop
      vertex 3.54904 1.9511 8.6
      vertex 5.32356 2.92665 8.6
      vertex 4.91478 3.5708 8.6
    endloop
  endfacet
  facet normal -0.951057 0.309016 0
    outer loop
      vertex 3.76559 -1.4909 0
      vertex 3.76559 -1.4909 8.6
      vertex 3.92276 -1.00719 8.6
    endloop
  endfacet
  facet normal 0 0 -1
    outer loop
      vertex 3.76559 -1.4909 0
      vertex 3.92276 -1.00719 0
      vertex 7.04306 -2.78854 0
    endloop
  endfacet
  facet normal -0.951057 0.309016 0
    outer loop
      vertex 3.76559 -1.4909 0
      vertex 3.92276 -1.00719 8.6
      vertex 3.92276 -1.00719 0
    endloop
  endfacet
  facet normal 0 0 -1
    outer loop
      vertex 3.76559 -1.4909 0
      vertex 7.04306 -2.78854 0
      vertex 6.63802 -3.64928 0
    endloop
  endfacet
  facet normal 0 0 1
    outer loop
      vertex 3.76559 -1.4909 8.6
      vertex 5.32356 -2.92665 8.6
      vertex 5.64839 -2.23636 8.6
    endloop
  endfacet
  facet normal -0 0 1
    outer loop
      vertex 3.76559 -1.4909 8.6
      vertex 5.64839 -2.23636 8.6
      vertex 3.92276 -1.00719 8.6
    endloop
  endfacet
  facet normal -0.951057 -0.309016 0
    outer loop
      vertex 3.76559 1.4909 0
      vertex 3.92276 1.00719 0
      vertex 3.76559 1.4909 8.6
    endloop
  endfacet
  facet normal -0 0 -1
    outer loop
      vertex 3.76559 1.4909 0
      vertex 6.63802 3.64928 0
      vertex 7.04306 2.78854 0
    endloop
  endfacet
  facet normal 0 0 -1
    outer loop
      vertex 3.76559 1.4909 0
      vertex 7.04306 2.78854 0
      vertex 3.92276 1.00719 0
    endloop
  endfacet
  facet normal -0.951057 -0.309016 0
    outer loop
      vertex 3.76559 1.4909 8.6
      vertex 3.92276 1.00719 0
      vertex 3.92276 1.00719 8.6
    endloop
  endfacet
  facet normal 0 0 1
    outer loop
      vertex 3.76559 1.4909 8.6
      vertex 3.92276 1.00719 8.6
      vertex 5.64839 2.23636 8.6
    endloop
  endfacet
  facet normal 0 0 1
    outer loop
      vertex 3.76559 1.4909 8.6
      vertex 5.64839 2.23636 8.6
      vertex 5.32356 2.92665 8.6
    endloop
  endfacet
  facet normal 0 0 1
    outer loop
      vertex 3.87235 -4.68087 1.5
      vertex 4.05889 -6.39578 1.5
      vertex 4.82849 -5.83664 1.5
    endloop
  endfacet
  facet normal 0.684547 -0.728968 0
    outer loop
      vertex 3.87235 -4.68087 1.5
      vertex 4.42848 -4.15862 1.5
      vertex 4.42848 -4.15862 8.6
    endloop
  endfacet
  facet normal 0.684547 -0.728968 0
    outer loop
      vertex 3.87235 -4.68087 1.5
      vertex 4.42848 -4.15862 8.6
      vertex 3.87235 -4.68087 8.6
    endloop
  endfacet
  facet normal -0 0 1
    outer loop
      vertex 3.87235 -4.68087 1.5
      vertex 4.82849 -5.83664 1.5
      vertex 4.42848 -4.15862 1.5
    endloop
  endfacet
  facet normal 0.684547 0.728968 0
    outer loop
      vertex 3.87235 4.68087 1.5
      vertex 3.87235 4.68087 8.6
      vertex 4.42848 4.15862 1.5
    endloop
  endfacet
  facet normal 0 0 1
    outer loop
      vertex 3.87235 4.68087 1.5
      vertex 4.42848 4.15862 1.5
      vertex 4.82849 5.83664 1.5
    endloop
  endfacet
  facet normal 0 0 1
    outer loop
      vertex 3.87235 4.68087 1.5
      vertex 4.82849 5.83664 1.5
      vertex 4.05889 6.39578 1.5
    endloop
  endfacet
  facet normal 0.684547 0.728968 -0
    outer loop
      vertex 3.87235 4.68087 8.6
      vertex 4.42848 4.15862 8.6
      vertex 4.42848 4.15862 1.5
    endloop
  endfacet
  facet normal -0.982287 0.187383 0
    outer loop
      vertex 3.92276 -1.00719 0
      vertex 3.92276 -1.00719 8.6
      vertex 4.01806 -0.507599 8.6
    endloop
  endfacet
  facet normal 0 0 -1
    outer loop
      vertex 3.92276 -1.00719 0
      vertex 4.01806 -0.507599 0
      vertex 7.33702 -1.88383 0
    endloop
  endfacet
  facet normal -0.982287 0.187383 0
    outer loop
      vertex 3.92276 -1.00719 0
      vertex 4.01806 -0.507599 8.6
      vertex 4.01806 -0.507599 0
    endloop
  endfacet
  facet normal 0 0 -1
    outer loop
      vertex 3.92276 -1.00719 0
      vertex 7.33702 -1.88383 0
      vertex 7.04306 -2.78854 0
    endloop
  endfacet
  facet normal 0 0 1
    outer loop
      vertex 3.92276 -1.00719 8.6
      vertex 5.64839 -2.23636 8.6
      vertex 5.88414 -1.51079 8.6
    endloop
  endfacet
  facet normal -0 0 1
    outer loop
      vertex 3.92276 -1.00719 8.6
      vertex 5.88414 -1.51079 8.6
      vertex 4.01806 -0.507599 8.6
    endloop
  endfacet
  facet normal -0.982287 -0.187383 0
    outer loop
      vertex 3.92276 1.00719 0
      vertex 4.01806 0.507599 0
      vertex 3.92276 1.00719 8.6
    endloop
  endfacet
  facet normal -0 0 -1
    outer loop
      vertex 3.92276 1.00719 0
      vertex 7.04306 2.78854 0
      vertex 7.33702 1.88383 0
    endloop
  endfacet
  facet normal 0 0 -1
    outer loop
      vertex 3.92276 1.00719 0
      vertex 7.33702 1.88383 0
      vertex 4.01806 0.507599 0
    endloop
  endfacet
  facet normal -0.982287 -0.187383 0
    outer loop
      vertex 3.92276 1.00719 8.6
      vertex 4.01806 0.507599 0
      vertex 4.01806 0.507599 8.6
    endloop
  endfacet
  facet normal 0 0 1
    outer loop
      vertex 3.92276 1.00719 8.6
      vertex 4.01806 0.507599 8.6
      vertex 5.88414 1.51079 8.6
    endloop
  endfacet
  facet normal 0 0 1
    outer loop
      vertex 3.92276 1.00719 8.6
      vertex 5.88414 1.51079 8.6
      vertex 5.64839 2.23636 8.6
    endloop
  endfacet
  facet normal -0.998027 0.0627892 0
    outer loop
      vertex 4.01806 -0.507599 0
      vertex 4.01806 -0.507599 8.6
      vertex 4.05 0 8.6
    endloop
  endfacet
  facet normal 0 0 -1
    outer loop
      vertex 4.01806 -0.507599 0
      vertex 4.05 0 0
      vertex 7.51527 -0.949399 0
    endloop
  endfacet
  facet normal -0.998027 0.0627892 0
    outer loop
      vertex 4.01806 -0.507599 0
      vertex 4.05 0 8.6
      vertex 4.05 0 0
    endloop
  endfacet
  facet normal 0 0 -1
    outer loop
      vertex 4.01806 -0.507599 0
      vertex 7.51527 -0.949399 0
      vertex 7.33702 -1.88383 0
    endloop
  endfacet
  facet normal 0 0 1
    outer loop
      vertex 4.01806 -0.507599 8.6
      vertex 5.88414 -1.51079 8.6
      vertex 6.0271 -0.761399 8.6
    endloop
  endfacet
  facet normal -0 0 1
    outer loop
      vertex 4.01806 -0.507599 8.6
      vertex 6.0271 -0.761399 8.6
      vertex 4.05 0 8.6
    endloop
  endfacet
  facet normal -0.998027 -0.0627892 0
    outer loop
      vertex 4.01806 0.507599 0
      vertex 4.05 0 0
      vertex 4.01806 0.507599 8.6
    endloop
  endfacet
  facet normal -0 0 -1
    outer loop
      vertex 4.01806 0.507599 0
      vertex 7.33702 1.88383 0
      vertex 7.51527 0.949399 0
    endloop
  endfacet
  facet normal 0 0 -1
    outer loop
      vertex 4.01806 0.507599 0
      vertex 7.51527 0.949399 0
      vertex 4.05 0 0
    endloop
  endfacet
  facet normal -0.998027 -0.0627892 0
    outer loop
      vertex 4.01806 0.507599 8.6
      vertex 4.05 0 0
      vertex 4.05 0 8.6
    endloop
  endfacet
  facet normal 0 0 1
    outer loop
      vertex 4.01806 0.507599 8.6
      vertex 4.05 0 8.6
      vertex 6.0271 0.761399 8.6
    endloop
  endfacet
  facet normal 0 0 1
    outer loop
      vertex 4.01806 0.507599 8.6
      vertex 6.0271 0.761399 8.6
      vertex 5.88414 1.51079 8.6
    endloop
  endfacet
  facet normal 0 0 -1
    outer loop
      vertex 4.05 0 0
      vertex 7.51527 0.949399 0
      vertex 7.575 0 0
    endloop
  endfacet
  facet normal 0 0 -1
    outer loop
      vertex 4.05 0 0
      vertex 7.575 0 0
      vertex 7.51527 -0.949399 0
    endloop
  endfacet
  facet normal 0 0 1
    outer loop
      vertex 4.05 0 8.6
      vertex 6.0271 -0.761399 8.6
      vertex 6.075 0 8.6
    endloop
  endfacet
  facet normal 0 0 1
    outer loop
      vertex 4.05 0 8.6
      vertex 6.075 0 8.6
      vertex 6.0271 0.761399 8.6
    endloop
  endfacet
  facet normal 0.587785 -0.809017 0
    outer loop
      vertex 4.05889 -6.39578 0
      vertex 4.82849 -5.83664 0
      vertex 4.82849 -5.83664 1.5
    endloop
  endfacet
  facet normal 0.587785 -0.809017 0
    outer loop
      vertex 4.05889 -6.39578 0
      vertex 4.82849 -5.83664 1.5
      vertex 4.05889 -6.39578 1.5
    endloop
  endfacet
  facet normal 0.587785 0.809017 0
    outer loop
      vertex 4.05889 6.39578 0
      vertex 4.05889 6.39578 1.5
      vertex 4.82849 5.83664 0
    endloop
  endfacet
  facet normal 0.587785 0.809017 -0
    outer loop
      vertex 4.05889 6.39578 1.5
      vertex 4.82849 5.83664 1.5
      vertex 4.82849 5.83664 0
    endloop
  endfacet
  facet normal 0 0 1
    outer loop
      vertex 4.42848 -4.15862 1.5
      vertex 4.82849 -5.83664 1.5
      vertex 5.52194 -5.18544 1.5
    endloop
  endfacet
  facet normal 0.770513 -0.637424 0
    outer loop
      vertex 4.42848 -4.15862 1.5
      vertex 4.91478 -3.5708 1.5
      vertex 4.42848 -4.15862 8.6
    endloop
  endfacet
  facet normal -0 0 1
    outer loop
      vertex 4.42848 -4.15862 1.5
      vertex 5.52194 -5.18544 1.5
      vertex 4.91478 -3.5708 1.5
    endloop
  endfacet
  facet normal 0.770513 -0.637424 0
    outer loop
      vertex 4.42848 -4.15862 8.6
      vertex 4.91478 -3.5708 1.5
      vertex 4.91478 -3.5708 8.6
    endloop
  endfacet
  facet normal 0.770513 0.637424 0
    outer loop
      vertex 4.42848 4.15862 1.5
      vertex 4.42848 4.15862 8.6
      vertex 4.91478 3.5708 8.6
    endloop
  endfacet
  facet normal 0 0 1
    outer loop
      vertex 4.42848 4.15862 1.5
      vertex 4.91478 3.5708 1.5
      vertex 5.52194 5.18544 1.5
    endloop
  endfacet
  facet normal 0.770513 0.637424 0
    outer loop
      vertex 4.42848 4.15862 1.5
      vertex 4.91478 3.5708 8.6
      vertex 4.91478 3.5708 1.5
    endloop
  endfacet
  facet normal 0 0 1
    outer loop
      vertex 4.42848 4.15862 1.5
      vertex 5.52194 5.18544 1.5
      vertex 4.82849 5.83664 1.5
    endloop
  endfacet
  facet normal 0.684548 -0.728968 0
    outer loop
      vertex 4.82849 -5.83664 0
      vertex 5.52194 -5.18544 0
      vertex 5.52194 -5.18544 1.5
    endloop
  endfacet
  facet normal 0.684548 -0.728968 0
    outer loop
      vertex 4.82849 -5.83664 0
      vertex 5.52194 -5.18544 1.5
      vertex 4.82849 -5.83664 1.5
    endloop
  endfacet
  facet normal 0.684548 0.728968 0
    outer loop
      vertex 4.82849 5.83664 0
      vertex 4.82849 5.83664 1.5
      vertex 5.52194 5.18544 0
    endloop
  endfacet
  facet normal 0.684548 0.728968 -0
    outer loop
      vertex 4.82849 5.83664 1.5
      vertex 5.52194 5.18544 1.5
      vertex 5.52194 5.18544 0
    endloop
  endfacet
  facet normal 0.844328 -0.535827 0
    outer loop
      vertex 4.91478 -3.5708 1.5
      vertex 5.32356 -2.92665 1.5
      vertex 4.91478 -3.5708 8.6
    endloop
  endfacet
  facet normal 0 0 1
    outer loop
      vertex 4.91478 -3.5708 1.5
      vertex 5.52194 -5.18544 1.5
      vertex 6.1283 -4.45247 1.5
    endloop
  endfacet
  facet normal -0 0 1
    outer loop
      vertex 4.91478 -3.5708 1.5
      vertex 6.1283 -4.45247 1.5
      vertex 5.32356 -2.92665 1.5
    endloop
  endfacet
  facet normal 0.844328 -0.535827 0
    outer loop
      vertex 4.91478 -3.5708 8.6
      vertex 5.32356 -2.92665 1.5
      vertex 5.32356 -2.92665 8.6
    endloop
  endfacet
  facet normal 0.844328 0.535827 0
    outer loop
      vertex 4.91478 3.5708 1.5
      vertex 4.91478 3.5708 8.6
      vertex 5.32356 2.92665 8.6
    endloop
  endfacet
  facet normal 0 0 1
    outer loop
      vertex 4.91478 3.5708 1.5
      vertex 5.32356 2.92665 1.5
      vertex 6.1283 4.45247 1.5
    endloop
  endfacet
  facet normal 0.844328 0.535827 0
    outer loop
      vertex 4.91478 3.5708 1.5
      vertex 5.32356 2.92665 8.6
      vertex 5.32356 2.92665 1.5
    endloop
  endfacet
  facet normal 0 0 1
    outer loop
      vertex 4.91478 3.5708 1.5
      vertex 6.1283 4.45247 1.5
      vertex 5.52194 5.18544 1.5
    endloop
  endfacet
  facet normal 0.904827 -0.425779 0
    outer loop
      vertex 5.32356 -2.92665 1.5
      vertex 5.64839 -2.23636 1.5
      vertex 5.32356 -2.92665 8.6
    endloop
  endfacet
  facet normal 0 0 1
    outer loop
      vertex 5.32356 -2.92665 1.5
      vertex 6.1283 -4.45247 1.5
      vertex 6.63802 -3.64928 1.5
    endloop
  endfacet
  facet normal -0 0 1
    outer loop
      vertex 5.32356 -2.92665 1.5
      vertex 6.63802 -3.64928 1.5
      vertex 5.64839 -2.23636 1.5
    endloop
  endfacet
  facet normal 0.904827 -0.425779 0
    outer loop
      vertex 5.32356 -2.92665 8.6
      vertex 5.64839 -2.23636 1.5
      vertex 5.64839 -2.23636 8.6
    endloop
  endfacet
  facet normal 0.904827 0.425779 0
    outer loop
      vertex 5.32356 2.92665 1.5
      vertex 5.32356 2.92665 8.6
      vertex 5.64839 2.23636 8.6
    endloop
  endfacet
  facet normal 0 0 1
    outer loop
      vertex 5.32356 2.92665 1.5
      vertex 5.64839 2.23636 1.5
      vertex 6.63802 3.64928 1.5
    endloop
  endfacet
  facet normal 0.904827 0.425779 0
    outer loop
      vertex 5.32356 2.92665 1.5
      vertex 5.64839 2.23636 8.6
      vertex 5.64839 2.23636 1.5
    endloop
  endfacet
  facet normal 0 0 1
    outer loop
      vertex 5.32356 2.92665 1.5
      vertex 6.63802 3.64928 1.5
      vertex 6.1283 4.45247 1.5
    endloop
  endfacet
  facet normal 0.770513 -0.637424 0
    outer loop
      vertex 5.52194 -5.18544 0
      vertex 6.1283 -4.45247 0
      vertex 5.52194 -5.18544 1.5
    endloop
  endfacet
  facet normal 0.770513 -0.637424 0
    outer loop
      vertex 5.52194 -5.18544 1.5
      vertex 6.1283 -4.45247 0
      vertex 6.1283 -4.45247 1.5
    endloop
  endfacet
  facet normal 0.770513 0.637424 0
    outer loop
      vertex 5.52194 5.18544 0
      vertex 5.52194 5.18544 1.5
      vertex 6.1283 4.45247 1.5
    endloop
  endfacet
  facet normal 0.770513 0.637424 0
    outer loop
      vertex 5.52194 5.18544 0
      vertex 6.1283 4.45247 1.5
      vertex 6.1283 4.45247 0
    endloop
  endfacet
  facet normal 0.951057 -0.309017 0
    outer loop
      vertex 5.64839 -2.23636 1.5
      vertex 5.88414 -1.51079 1.5
      vertex 5.64839 -2.23636 8.6
    endloop
  endfacet
  facet normal 0 0 1
    outer loop
      vertex 5.64839 -2.23636 1.5
      vertex 6.63802 -3.64928 1.5
      vertex 7.04306 -2.78854 1.5
    endloop
  endfacet
  facet normal -0 0 1
    outer loop
      vertex 5.64839 -2.23636 1.5
      vertex 7.04306 -2.78854 1.5
      vertex 5.88414 -1.51079 1.5
    endloop
  endfacet
  facet normal 0.951057 -0.309017 0
    outer loop
      vertex 5.64839 -2.23636 8.6
      vertex 5.88414 -1.51079 1.5
      vertex 5.88414 -1.51079 8.6
    endloop
  endfacet
  facet normal 0.951057 0.309017 0
    outer loop
      vertex 5.64839 2.23636 1.5
      vertex 5.64839 2.23636 8.6
      vertex 5.88414 1.51079 8.6
    endloop
  endfacet
  facet normal 0 0 1
    outer loop
      vertex 5.64839 2.23636 1.5
      vertex 5.88414 1.51079 1.5
      vertex 7.04306 2.78854 1.5
    endloop
  endfacet
  facet normal 0.951057 0.309017 0
    outer loop
      vertex 5.64839 2.23636 1.5
      vertex 5.88414 1.51079 8.6
      vertex 5.88414 1.51079 1.5
    endloop
  endfacet
  facet normal 0 0 1
    outer loop
      vertex 5.64839 2.23636 1.5
      vertex 7.04306 2.78854 1.5
      vertex 6.63802 3.64928 1.5
    endloop
  endfacet
  facet normal 0.982287 -0.187382 0
    outer loop
      vertex 5.88414 -1.51079 1.5
      vertex 6.0271 -0.761399 1.5
      vertex 5.88414 -1.51079 8.6
    endloop
  endfacet
  facet normal 0 0 1
    outer loop
      vertex 5.88414 -1.51079 1.5
      vertex 7.04306 -2.78854 1.5
      vertex 7.33702 -1.88383 1.5
    endloop
  endfacet
  facet normal -0 0 1
    outer loop
      vertex 5.88414 -1.51079 1.5
      vertex 7.33702 -1.88383 1.5
      vertex 6.0271 -0.761399 1.5
    endloop
  endfacet
  facet normal 0.982287 -0.187382 0
    outer loop
      vertex 5.88414 -1.51079 8.6
      vertex 6.0271 -0.761399 1.5
      vertex 6.0271 -0.761399 8.6
    endloop
  endfacet
  facet normal 0.982287 0.187382 0
    outer loop
      vertex 5.88414 1.51079 1.5
      vertex 5.88414 1.51079 8.6
      vertex 6.0271 0.761399 8.6
    endloop
  endfacet
  facet normal 0 0 1
    outer loop
      vertex 5.88414 1.51079 1.5
      vertex 6.0271 0.761399 1.5
      vertex 7.33702 1.88383 1.5
    endloop
  endfacet
  facet normal 0.982287 0.187382 0
    outer loop
      vertex 5.88414 1.51079 1.5
      vertex 6.0271 0.761399 8.6
      vertex 6.0271 0.761399 1.5
    endloop
  endfacet
  facet normal 0 0 1
    outer loop
      vertex 5.88414 1.51079 1.5
      vertex 7.33702 1.88383 1.5
      vertex 7.04306 2.78854 1.5
    endloop
  endfacet
  facet normal 0.998027 -0.0627904 0
    outer loop
      vertex 6.0271 -0.761399 1.5
      vertex 6.075 0 1.5
      vertex 6.0271 -0.761399 8.6
    endloop
  endfacet
  facet normal 0 0 1
    outer loop
      vertex 6.0271 -0.761399 1.5
      vertex 7.33702 -1.88383 1.5
      vertex 7.51527 -0.949399 1.5
    endloop
  endfacet
  facet normal -0 0 1
    outer loop
      vertex 6.0271 -0.761399 1.5
      vertex 7.51527 -0.949399 1.5
      vertex 6.075 0 1.5
    endloop
  endfacet
  facet normal 0.998027 -0.0627904 0
    outer loop
      vertex 6.0271 -0.761399 8.6
      vertex 6.075 0 1.5
      vertex 6.075 0 8.6
    endloop
  endfacet
  facet normal 0.998027 0.0627904 0
    outer loop
      vertex 6.0271 0.761399 1.5
      vertex 6.0271 0.761399 8.6
      vertex 6.075 0 8.6
    endloop
  endfacet
  facet normal 0 0 1
    outer loop
      vertex 6.0271 0.761399 1.5
      vertex 6.075 0 1.5
      vertex 7.51527 0.949399 1.5
    endloop
  endfacet
  facet normal 0.998027 0.0627904 0
    outer loop
      vertex 6.0271 0.761399 1.5
      vertex 6.075 0 8.6
      vertex 6.075 0 1.5
    endloop
  endfacet
  facet normal 0 0 1
    outer loop
      vertex 6.0271 0.761399 1.5
      vertex 7.51527 0.949399 1.5
      vertex 7.33702 1.88383 1.5
    endloop
  endfacet
  facet normal 0 0 1
    outer loop
      vertex 6.075 0 1.5
      vertex 7.51527 -0.949399 1.5
      vertex 7.575 0 1.5
    endloop
  endfacet
  facet normal 0 0 1
    outer loop
      vertex 6.075 0 1.5
      vertex 7.575 0 1.5
      vertex 7.51527 0.949399 1.5
    endloop
  endfacet
  facet normal 0.844328 -0.535826 0
    outer loop
      vertex 6.1283 -4.45247 0
      vertex 6.63802 -3.64928 0
      vertex 6.1283 -4.45247 1.5
    endloop
  endfacet
  facet normal 0.844328 -0.535826 0
    outer loop
      vertex 6.1283 -4.45247 1.5
      vertex 6.63802 -3.64928 0
      vertex 6.63802 -3.64928 1.5
    endloop
  endfacet
  facet normal 0.844328 0.535826 0
    outer loop
      vertex 6.1283 4.45247 0
      vertex 6.1283 4.45247 1.5
      vertex 6.63802 3.64928 1.5
    endloop
  endfacet
  facet normal 0.844328 0.535826 0
    outer loop
      vertex 6.1283 4.45247 0
      vertex 6.63802 3.64928 1.5
      vertex 6.63802 3.64928 0
    endloop
  endfacet
  facet normal 0.904827 -0.42578 0
    outer loop
      vertex 6.63802 -3.64928 0
      vertex 7.04306 -2.78854 0
      vertex 6.63802 -3.64928 1.5
    endloop
  endfacet
  facet normal 0.904827 -0.42578 0
    outer loop
      vertex 6.63802 -3.64928 1.5
      vertex 7.04306 -2.78854 0
      vertex 7.04306 -2.78854 1.5
    endloop
  endfacet
  facet normal 0.904827 0.42578 0
    outer loop
      vertex 6.63802 3.64928 0
      vertex 6.63802 3.64928 1.5
      vertex 7.04306 2.78854 1.5
    endloop
  endfacet
  facet normal 0.904827 0.42578 0
    outer loop
      vertex 6.63802 3.64928 0
      vertex 7.04306 2.78854 1.5
      vertex 7.04306 2.78854 0
    endloop
  endfacet
  facet normal 0.951056 -0.309017 0
    outer loop
      vertex 7.04306 -2.78854 0
      vertex 7.33702 -1.88383 0
      vertex 7.04306 -2.78854 1.5
    endloop
  endfacet
  facet normal 0.951056 -0.309017 0
    outer loop
      vertex 7.04306 -2.78854 1.5
      vertex 7.33702 -1.88383 0
      vertex 7.33702 -1.88383 1.5
    endloop
  endfacet
  facet normal 0.951056 0.309017 0
    outer loop
      vertex 7.04306 2.78854 0
      vertex 7.04306 2.78854 1.5
      vertex 7.33702 1.88383 1.5
    endloop
  endfacet
  facet normal 0.951056 0.309017 0
    outer loop
      vertex 7.04306 2.78854 0
      vertex 7.33702 1.88383 1.5
      vertex 7.33702 1.88383 0
    endloop
  endfacet
  facet normal 0.982287 -0.187381 0
    outer loop
      vertex 7.33702 -1.88383 0
      vertex 7.51527 -0.949399 0
      vertex 7.33702 -1.88383 1.5
    endloop
  endfacet
  facet normal 0.982287 -0.187381 0
    outer loop
      vertex 7.33702 -1.88383 1.5
      vertex 7.51527 -0.949399 0
      vertex 7.51527 -0.949399 1.5
    endloop
  endfacet
  facet normal 0.982287 0.187381 0
    outer loop
      vertex 7.33702 1.88383 0
      vertex 7.33702 1.88383 1.5
      vertex 7.51527 0.949399 1.5
    endloop
  endfacet
  facet normal 0.982287 0.187381 0
    outer loop
      vertex 7.33702 1.88383 0
      vertex 7.51527 0.949399 1.5
      vertex 7.51527 0.949399 0
    endloop
  endfacet
  facet normal 0.998027 -0.0627909 0
    outer loop
      vertex 7.51527 -0.949399 0
      vertex 7.575 0 0
      vertex 7.51527 -0.949399 1.5
    endloop
  endfacet
  facet normal 0.998027 -0.0627909 0
    outer loop
      vertex 7.51527 -0.949399 1.5
      vertex 7.575 0 0
      vertex 7.575 0 1.5
    endloop
  endfacet
  facet normal 0.998027 0.0627909 0
    outer loop
      vertex 7.51527 0.949399 0
      vertex 7.51527 0.949399 1.5
      vertex 7.575 0 1.5
    endloop
  endfacet
  facet normal 0.998027 0.0627909 0
    outer loop
      vertex 7.51527 0.949399 0
      vertex 7.575 0 1.5
      vertex 7.575 0 0
    endloop
  endfacet
endsolid model
