solid model
  facet normal -1 0 0
    outer loop
      vertex 10 30.9 0
      vertex 10 30.9 20
      vertex 10 38.0103 10.3265
    endloop
  endfacet
  facet normal -1 -0 0
    outer loop
      vertex 10 30.9 0
      vertex 10 38.0103 10.3265
      vertex 10 38.0103 9.67349
    endloop
  endfacet
  facet normal -1 -0 0
    outer loop
      vertex 10 30.9 0
      vertex 10 38.0103 9.67349
      vertex 10 38.0921 9.02562
    endloop
  endfacet
  facet normal -1 -0 0
    outer loop
      vertex 10 30.9 0
      vertex 10 38.0921 9.02562
      vertex 10 38.2545 8.39311
    endloop
  endfacet
  facet normal -1 -0 0
    outer loop
      vertex 10 30.9 0
      vertex 10 38.2545 8.39311
      vertex 10 38.4949 7.78595
    endloop
  endfacet
  facet normal -1 -0 0
    outer loop
      vertex 10 30.9 0
      vertex 10 38.4949 7.78595
      vertex 10 38.8095 7.2137
    endloop
  endfacet
  facet normal -1 -0 0
    outer loop
      vertex 10 30.9 0
      vertex 10 38.8095 7.2137
      vertex 10 39.1933 6.6854
    endloop
  endfacet
  facet normal -1 -0 0
    outer loop
      vertex 10 30.9 0
      vertex 10 39.1933 6.6854
      vertex 10 39.6404 6.20936
    endloop
  endfacet
  facet normal -1 -0 0
    outer loop
      vertex 10 30.9 0
      vertex 10 39.6404 6.20936
      vertex 10 40.1435 5.79311
    endloop
  endfacet
  facet normal -1 0 0
    outer loop
      vertex 10 30.9 0
      vertex 10 40.1435 5.79311
      vertex 10 43.2 0
    endloop
  endfacet
  facet normal -0 0 -1
    outer loop
      vertex 10 30.9 0
      vertex 10 43.2 0
      vertex 30 43.2 0
    endloop
  endfacet
  facet normal 0 -1 0
    outer loop
      vertex 10 30.9 0
      vertex 16.7 30.9 10
      vertex 10 30.9 20
    endloop
  endfacet
  facet normal 0 -1 -0
    outer loop
      vertex 10 30.9 0
      vertex 16.726 30.9 9.5864
      vertex 16.7 30.9 10
    endloop
  endfacet
  facet normal 0 -1 -0
    outer loop
      vertex 10 30.9 0
      vertex 16.8037 30.9 9.17932
      vertex 16.726 30.9 9.5864
    endloop
  endfacet
  facet normal 0 -1 -0
    outer loop
      vertex 10 30.9 0
      vertex 16.9317 30.9 8.78519
      vertex 16.8037 30.9 9.17932
    endloop
  endfacet
  facet normal 0 -1 -0
    outer loop
      vertex 10 30.9 0
      vertex 17.1082 30.9 8.41021
      vertex 16.9317 30.9 8.78519
    endloop
  endfacet
  facet normal 0 -1 -0
    outer loop
      vertex 10 30.9 0
      vertex 17.3302 30.9 8.06031
      vertex 17.1082 30.9 8.41021
    endloop
  endfacet
  facet normal 0 -1 -0
    outer loop
      vertex 10 30.9 0
      vertex 17.5944 30.9 7.74099
      vertex 17.3302 30.9 8.06031
    endloop
  endfacet
  facet normal 0 -1 -0
    outer loop
      vertex 10 30.9 0
      vertex 17.8965 30.9 7.45731
      vertex 17.5944 30.9 7.74099
    endloop
  endfacet
  facet normal 0 -1 -0
    outer loop
      vertex 10 30.9 0
      vertex 18.2318 30.9 7.21372
      vertex 17.8965 30.9 7.45731
    endloop
  endfacet
  facet normal 0 -1 -0
    outer loop
      vertex 10 30.9 0
      vertex 18.5949 30.9 7.01407
      vertex 18.2318 30.9 7.21372
    endloop
  endfacet
  facet normal 0 -1 -0
    outer loop
      vertex 10 30.9 0
      vertex 18.9802 30.9 6.86151
      vertex 18.5949 30.9 7.01407
    endloop
  endfacet
  facet normal 0 -1 -0
    outer loop
      vertex 10 30.9 0
      vertex 19.3816 30.9 6.75845
      vertex 18.9802 30.9 6.86151
    endloop
  endfacet
  facet normal 0 -1 -0
    outer loop
      vertex 10 30.9 0
      vertex 19.7928 30.9 6.70651
      vertex 19.3816 30.9 6.75845
    endloop
  endfacet
  facet normal 0 -1 -0
    outer loop
      vertex 10 30.9 0
      vertex 20.2072 30.9 6.70651
      vertex 19.7928 30.9 6.70651
    endloop
  endfacet
  facet normal 0 -1 0
    outer loop
      vertex 10 30.9 0
      vertex 30 30.9 0
      vertex 20.2072 30.9 6.70651
    endloop
  endfacet
  facet normal 0 0 -1
    outer loop
      vertex 10 30.9 0
      vertex 30 43.2 0
      vertex 30 30.9 0
    endloop
  endfacet
  facet normal -1 0 0
    outer loop
      vertex 10 30.9 20
      vertex 10 38.0921 10.9744
      vertex 10 38.0103 10.3265
    endloop
  endfacet
  facet normal -1 0 0
    outer loop
      vertex 10 30.9 20
      vertex 10 38.2545 11.6069
      vertex 10 38.0921 10.9744
    endloop
  endfacet
  facet normal -1 0 0
    outer loop
      vertex 10 30.9 20
      vertex 10 38.4949 12.2141
      vertex 10 38.2545 11.6069
    endloop
  endfacet
  facet normal -1 0 0
    outer loop
      vertex 10 30.9 20
      vertex 10 38.8095 12.7863
      vertex 10 38.4949 12.2141
    endloop
  endfacet
  facet normal -1 0 0
    outer loop
      vertex 10 30.9 20
      vertex 10 39.1933 13.3146
      vertex 10 38.8095 12.7863
    endloop
  endfacet
  facet normal -1 0 0
    outer loop
      vertex 10 30.9 20
      vertex 10 39.6404 13.7906
      vertex 10 39.1933 13.3146
    endloop
  endfacet
  facet normal -1 0 0
    outer loop
      vertex 10 30.9 20
      vertex 10 40.1435 14.2069
      vertex 10 39.6404 13.7906
    endloop
  endfacet
  facet normal -1 0 0
    outer loop
      vertex 10 30.9 20
      vertex 10 43.2 20
      vertex 10 40.1435 14.2069
    endloop
  endfacet
  facet normal 0 -1 0
    outer loop
      vertex 10 30.9 20
      vertex 16.7 30.9 10
      vertex 16.726 30.9 10.4136
    endloop
  endfacet
  facet normal 0 -1 0
    outer loop
      vertex 10 30.9 20
      vertex 16.726 30.9 10.4136
      vertex 16.8037 30.9 10.8207
    endloop
  endfacet
  facet normal 0 -1 0
    outer loop
      vertex 10 30.9 20
      vertex 16.8037 30.9 10.8207
      vertex 16.9317 30.9 11.2148
    endloop
  endfacet
  facet normal 0 -1 0
    outer loop
      vertex 10 30.9 20
      vertex 16.9317 30.9 11.2148
      vertex 17.1082 30.9 11.5898
    endloop
  endfacet
  facet normal 0 -1 0
    outer loop
      vertex 10 30.9 20
      vertex 17.1082 30.9 11.5898
      vertex 17.3302 30.9 11.9397
    endloop
  endfacet
  facet normal 0 -1 0
    outer loop
      vertex 10 30.9 20
      vertex 17.3302 30.9 11.9397
      vertex 17.5944 30.9 12.259
    endloop
  endfacet
  facet normal 0 -1 0
    outer loop
      vertex 10 30.9 20
      vertex 17.5944 30.9 12.259
      vertex 17.8965 30.9 12.5427
    endloop
  endfacet
  facet normal 0 -1 0
    outer loop
      vertex 10 30.9 20
      vertex 17.8965 30.9 12.5427
      vertex 18.2318 30.9 12.7863
    endloop
  endfacet
  facet normal 0 -1 0
    outer loop
      vertex 10 30.9 20
      vertex 18.2318 30.9 12.7863
      vertex 18.5949 30.9 12.9859
    endloop
  endfacet
  facet normal 0 -1 0
    outer loop
      vertex 10 30.9 20
      vertex 18.5949 30.9 12.9859
      vertex 18.9802 30.9 13.1385
    endloop
  endfacet
  facet normal 0 -1 0
    outer loop
      vertex 10 30.9 20
      vertex 18.9802 30.9 13.1385
      vertex 19.3816 30.9 13.2415
    endloop
  endfacet
  facet normal 0 -1 0
    outer loop
      vertex 10 30.9 20
      vertex 19.3816 30.9 13.2415
      vertex 19.7928 30.9 13.2935
    endloop
  endfacet
  facet normal 0 -1 0
    outer loop
      vertex 10 30.9 20
      vertex 19.7928 30.9 13.2935
      vertex 30 30.9 20
    endloop
  endfacet
  facet normal 0 0 1
    outer loop
      vertex 10 30.9 20
      vertex 30 30.9 20
      vertex 10 43.2 20
    endloop
  endfacet
  facet normal 0 0.992115 -0.125332
    outer loop
      vertex 10 38.0103 10.3265
      vertex 10 38.0921 10.9744
      vertex 18.4366 38.0103 10.3265
    endloop
  endfacet
  facet normal 0 1 -0
    outer loop
      vertex 10 38.0103 10.3265
      vertex 18.4096 38.0103 10.1524
      vertex 18.4 38.0103 10
    endloop
  endfacet
  facet normal 0 1 -0
    outer loop
      vertex 10 38.0103 10.3265
      vertex 18.4126 38.0103 10.2005
      vertex 18.4096 38.0103 10.1524
    endloop
  endfacet
  facet normal 0 1 -0
    outer loop
      vertex 10 38.0103 10.3265
      vertex 18.4366 38.0103 10.3265
      vertex 18.4126 38.0103 10.2005
    endloop
  endfacet
  facet normal 0 1 0
    outer loop
      vertex 10 38.0103 9.67349
      vertex 10 38.0103 10.3265
      vertex 18.4 38.0103 10
    endloop
  endfacet
  facet normal 0 1 0
    outer loop
      vertex 10 38.0103 9.67349
      vertex 18.4 38.0103 10
      vertex 18.403 38.0103 9.95191
    endloop
  endfacet
  facet normal 0 1 0
    outer loop
      vertex 10 38.0103 9.67349
      vertex 18.403 38.0103 9.95191
      vertex 18.4126 38.0103 9.79947
    endloop
  endfacet
  facet normal 0 1 0
    outer loop
      vertex 10 38.0103 9.67349
      vertex 18.4126 38.0103 9.79947
      vertex 18.4366 38.0103 9.67349
    endloop
  endfacet
  facet normal 0 0.992115 0.125332
    outer loop
      vertex 10 38.0103 9.67349
      vertex 18.4366 38.0103 9.67349
      vertex 10 38.0921 9.02562
    endloop
  endfacet
  facet normal 0 0.968583 -0.248689
    outer loop
      vertex 10 38.0921 10.9744
      vertex 10 38.2545 11.6069
      vertex 18.7336 38.0921 10.9744
    endloop
  endfacet
  facet normal 1.03885e-06 0.992117 -0.125319
    outer loop
      vertex 10 38.0921 10.9744
      vertex 18.4503 38.0193 10.3979
      vertex 18.4366 38.0103 10.3265
    endloop
  endfacet
  facet normal 5.56071e-07 0.992116 -0.125325
    outer loop
      vertex 10 38.0921 10.9744
      vertex 18.5124 38.0434 10.589
      vertex 18.4503 38.0193 10.3979
    endloop
  endfacet
  facet normal 5.96002e-09 0.992114 -0.125337
    outer loop
      vertex 10 38.0921 10.9744
      vertex 18.5979 38.0664 10.7708
      vertex 18.5124 38.0434 10.589
    endloop
  endfacet
  facet normal 2.33725e-07 0.992115 -0.125328
    outer loop
      vertex 10 38.0921 10.9744
      vertex 18.7056 38.0878 10.9405
      vertex 18.5979 38.0664 10.7708
    endloop
  endfacet
  facet normal 0 0.992108 -0.125387
    outer loop
      vertex 10 38.0921 10.9744
      vertex 18.7336 38.0921 10.9744
      vertex 18.7056 38.0878 10.9405
    endloop
  endfacet
  facet normal 1.03885e-06 0.992117 0.125319
    outer loop
      vertex 10 38.0921 9.02562
      vertex 18.4366 38.0103 9.67349
      vertex 18.4503 38.0193 9.6021
    endloop
  endfacet
  facet normal 5.56071e-07 0.992116 0.125325
    outer loop
      vertex 10 38.0921 9.02562
      vertex 18.4503 38.0193 9.6021
      vertex 18.5124 38.0434 9.411
    endloop
  endfacet
  facet normal 5.96002e-09 0.992114 0.125337
    outer loop
      vertex 10 38.0921 9.02562
      vertex 18.5124 38.0434 9.411
      vertex 18.5979 38.0664 9.22919
    endloop
  endfacet
  facet normal 2.33725e-07 0.992115 0.125328
    outer loop
      vertex 10 38.0921 9.02562
      vertex 18.5979 38.0664 9.22919
      vertex 18.7056 38.0878 9.05954
    endloop
  endfacet
  facet normal -0 0.992108 0.125387
    outer loop
      vertex 10 38.0921 9.02562
      vertex 18.7056 38.0878 9.05954
      vertex 18.7336 38.0921 9.02562
    endloop
  endfacet
  facet normal 0 0.968583 0.248689
    outer loop
      vertex 10 38.0921 9.02562
      vertex 18.7336 38.0921 9.02562
      vertex 10 38.2545 8.39311
    endloop
  endfacet
  facet normal 0 0.929776 -0.368126
    outer loop
      vertex 10 38.2545 11.6069
      vertex 10 38.4949 12.2141
      vertex 30 38.2545 11.6069
    endloop
  endfacet
  facet normal -1.98148e-07 0.968583 -0.248692
    outer loop
      vertex 10 38.2545 11.6069
      vertex 18.8336 38.1231 11.0953
      vertex 18.7336 38.0921 10.9744
    endloop
  endfacet
  facet normal -3.72113e-07 0.968582 -0.248695
    outer loop
      vertex 10 38.2545 11.6069
      vertex 18.9801 38.1585 11.2328
      vertex 18.8336 38.1231 11.0953
    endloop
  endfacet
  facet normal 1.41385e-07 0.968585 -0.248683
    outer loop
      vertex 10 38.2545 11.6069
      vertex 19.1427 38.1888 11.3509
      vertex 18.9801 38.1585 11.2328
    endloop
  endfacet
  facet normal 1.34668e-07 0.968585 -0.248683
    outer loop
      vertex 10 38.2545 11.6069
      vertex 19.3188 38.2136 11.4477
      vertex 19.1427 38.1888 11.3509
    endloop
  endfacet
  facet normal -3.38976e-07 0.968578 -0.248709
    outer loop
      vertex 10 38.2545 11.6069
      vertex 19.5056 38.2326 11.5217
      vertex 19.3188 38.2136 11.4477
    endloop
  endfacet
  facet normal 1.21576e-08 0.968588 -0.248672
    outer loop
      vertex 10 38.2545 11.6069
      vertex 19.7002 38.2455 11.5717
      vertex 19.5056 38.2326 11.5217
    endloop
  endfacet
  facet normal -6.5538e-08 0.968582 -0.248693
    outer loop
      vertex 10 38.2545 11.6069
      vertex 19.8995 38.2519 11.5968
      vertex 19.7002 38.2455 11.5717
    endloop
  endfacet
  facet normal 0 0.968598 -0.248632
    outer loop
      vertex 10 38.2545 11.6069
      vertex 20.1005 38.2519 11.5968
      vertex 19.8995 38.2519 11.5968
    endloop
  endfacet
  facet normal 0 0.968598 -0.248632
    outer loop
      vertex 10 38.2545 11.6069
      vertex 30 38.2545 11.6069
      vertex 20.1005 38.2519 11.5968
    endloop
  endfacet
  facet normal -1.98148e-07 0.968583 0.248692
    outer loop
      vertex 10 38.2545 8.39311
      vertex 18.7336 38.0921 9.02562
      vertex 18.8336 38.1231 8.90472
    endloop
  endfacet
  facet normal -3.72113e-07 0.968582 0.248695
    outer loop
      vertex 10 38.2545 8.39311
      vertex 18.8336 38.1231 8.90472
      vertex 18.9801 38.1585 8.76718
    endloop
  endfacet
  facet normal 1.41385e-07 0.968585 0.248683
    outer loop
      vertex 10 38.2545 8.39311
      vertex 18.9801 38.1585 8.76718
      vertex 19.1427 38.1888 8.64907
    endloop
  endfacet
  facet normal 1.34668e-07 0.968585 0.248683
    outer loop
      vertex 10 38.2545 8.39311
      vertex 19.1427 38.1888 8.64907
      vertex 19.3188 38.2136 8.55228
    endloop
  endfacet
  facet normal -3.38976e-07 0.968578 0.248709
    outer loop
      vertex 10 38.2545 8.39311
      vertex 19.3188 38.2136 8.55228
      vertex 19.5056 38.2326 8.47831
    endloop
  endfacet
  facet normal 1.21576e-08 0.968588 0.248672
    outer loop
      vertex 10 38.2545 8.39311
      vertex 19.5056 38.2326 8.47831
      vertex 19.7002 38.2455 8.42834
    endloop
  endfacet
  facet normal -6.5538e-08 0.968582 0.248693
    outer loop
      vertex 10 38.2545 8.39311
      vertex 19.7002 38.2455 8.42834
      vertex 19.8995 38.2519 8.40316
    endloop
  endfacet
  facet normal -0 0.968598 0.248632
    outer loop
      vertex 10 38.2545 8.39311
      vertex 19.8995 38.2519 8.40316
      vertex 30 38.2545 8.39311
    endloop
  endfacet
  facet normal 0 0.929776 0.368126
    outer loop
      vertex 10 38.2545 8.39311
      vertex 30 38.2545 8.39311
      vertex 30 38.4949 7.78595
    endloop
  endfacet
  facet normal 0 0.929776 0.368126
    outer loop
      vertex 10 38.2545 8.39311
      vertex 30 38.4949 7.78595
      vertex 10 38.4949 7.78595
    endloop
  endfacet
  facet normal 0 0.876307 -0.481753
    outer loop
      vertex 10 38.4949 12.2141
      vertex 10 38.8095 12.7863
      vertex 30 38.4949 12.2141
    endloop
  endfacet
  facet normal 0 0.929776 -0.368126
    outer loop
      vertex 10 38.4949 12.2141
      vertex 30 38.4949 12.2141
      vertex 30 38.2545 11.6069
    endloop
  endfacet
  facet normal 0 0.876307 0.481753
    outer loop
      vertex 10 38.4949 7.78595
      vertex 30 38.4949 7.78595
      vertex 30 38.8095 7.2137
    endloop
  endfacet
  facet normal 0 0.876307 0.481753
    outer loop
      vertex 10 38.4949 7.78595
      vertex 30 38.8095 7.2137
      vertex 10 38.8095 7.2137
    endloop
  endfacet
  facet normal 0 0.809018 -0.587784
    outer loop
      vertex 10 38.8095 12.7863
      vertex 10 39.1933 13.3146
      vertex 30 38.8095 12.7863
    endloop
  endfacet
  facet normal 0 0.876307 -0.481753
    outer loop
      vertex 10 38.8095 12.7863
      vertex 30 38.8095 12.7863
      vertex 30 38.4949 12.2141
    endloop
  endfacet
  facet normal 0 0.809018 0.587784
    outer loop
      vertex 10 38.8095 7.2137
      vertex 30 38.8095 7.2137
      vertex 30 39.1933 6.6854
    endloop
  endfacet
  facet normal 0 0.809018 0.587784
    outer loop
      vertex 10 38.8095 7.2137
      vertex 30 39.1933 6.6854
      vertex 10 39.1933 6.6854
    endloop
  endfacet
  facet normal 0 0.728968 -0.684548
    outer loop
      vertex 10 39.1933 13.3146
      vertex 10 39.6404 13.7906
      vertex 30 39.1933 13.3146
    endloop
  endfacet
  facet normal 0 0.809018 -0.587784
    outer loop
      vertex 10 39.1933 13.3146
      vertex 30 39.1933 13.3146
      vertex 30 38.8095 12.7863
    endloop
  endfacet
  facet normal 0 0.728968 0.684548
    outer loop
      vertex 10 39.1933 6.6854
      vertex 30 39.1933 6.6854
      vertex 30 39.6404 6.20936
    endloop
  endfacet
  facet normal 0 0.728968 0.684548
    outer loop
      vertex 10 39.1933 6.6854
      vertex 30 39.6404 6.20936
      vertex 10 39.6404 6.20936
    endloop
  endfacet
  facet normal 0 0.637424 -0.770513
    outer loop
      vertex 10 39.6404 13.7906
      vertex 10 40.1435 14.2069
      vertex 30 40.1435 14.2069
    endloop
  endfacet
  facet normal 0 0.728968 -0.684548
    outer loop
      vertex 10 39.6404 13.7906
      vertex 30 39.6404 13.7906
      vertex 30 39.1933 13.3146
    endloop
  endfacet
  facet normal 0 0.637424 -0.770513
    outer loop
      vertex 10 39.6404 13.7906
      vertex 30 40.1435 14.2069
      vertex 30 39.6404 13.7906
    endloop
  endfacet
  facet normal 0 0.637424 0.770513
    outer loop
      vertex 10 39.6404 6.20936
      vertex 30 39.6404 6.20936
      vertex 10 40.1435 5.79311
    endloop
  endfacet
  facet normal 0 0.535826 -0.844329
    outer loop
      vertex 10 40.1435 14.2069
      vertex 10 40.6949 14.5568
      vertex 30 40.6949 14.5568
    endloop
  endfacet
  facet normal -1 0 0
    outer loop
      vertex 10 40.1435 14.2069
      vertex 10 43.2 20
      vertex 10 40.6949 14.5568
    endloop
  endfacet
  facet normal 0 0.535826 -0.844329
    outer loop
      vertex 10 40.1435 14.2069
      vertex 30 40.6949 14.5568
      vertex 30 40.1435 14.2069
    endloop
  endfacet
  facet normal -1 0 0
    outer loop
      vertex 10 40.1435 5.79311
      vertex 10 40.6949 5.4432
      vertex 10 43.2 0
    endloop
  endfacet
  facet normal -0 0.637424 0.770513
    outer loop
      vertex 10 40.1435 5.79311
      vertex 30 39.6404 6.20936
      vertex 30 40.1435 5.79311
    endloop
  endfacet
  facet normal 0 0.535826 0.844329
    outer loop
      vertex 10 40.1435 5.79311
      vertex 30 40.1435 5.79311
      vertex 10 40.6949 5.4432
    endloop
  endfacet
  facet normal 0 0.42578 -0.904827
    outer loop
      vertex 10 40.6949 14.5568
      vertex 10 41.2858 14.8348
      vertex 30 41.2858 14.8348
    endloop
  endfacet
  facet normal -1 0 0
    outer loop
      vertex 10 40.6949 14.5568
      vertex 10 43.2 20
      vertex 10 41.2858 14.8348
    endloop
  endfacet
  facet normal 0 0.42578 -0.904827
    outer loop
      vertex 10 40.6949 14.5568
      vertex 30 41.2858 14.8348
      vertex 30 40.6949 14.5568
    endloop
  endfacet
  facet normal -1 0 0
    outer loop
      vertex 10 40.6949 5.4432
      vertex 10 41.2858 5.16516
      vertex 10 43.2 0
    endloop
  endfacet
  facet normal -0 0.535826 0.844329
    outer loop
      vertex 10 40.6949 5.4432
      vertex 30 40.1435 5.79311
      vertex 30 40.6949 5.4432
    endloop
  endfacet
  facet normal 0 0.42578 0.904827
    outer loop
      vertex 10 40.6949 5.4432
      vertex 30 40.6949 5.4432
      vertex 10 41.2858 5.16516
    endloop
  endfacet
  facet normal 0 0.309017 -0.951056
    outer loop
      vertex 10 41.2858 14.8348
      vertex 10 41.9068 15.0366
      vertex 30 41.9068 15.0366
    endloop
  endfacet
  facet normal -1 0 0
    outer loop
      vertex 10 41.2858 14.8348
      vertex 10 43.2 20
      vertex 10 41.9068 15.0366
    endloop
  endfacet
  facet normal 0 0.309017 -0.951056
    outer loop
      vertex 10 41.2858 14.8348
      vertex 30 41.9068 15.0366
      vertex 30 41.2858 14.8348
    endloop
  endfacet
  facet normal -1 0 0
    outer loop
      vertex 10 41.2858 5.16516
      vertex 10 41.9068 4.96337
      vertex 10 43.2 0
    endloop
  endfacet
  facet normal -0 0.42578 0.904827
    outer loop
      vertex 10 41.2858 5.16516
      vertex 30 40.6949 5.4432
      vertex 30 41.2858 5.16516
    endloop
  endfacet
  facet normal 0 0.309017 0.951056
    outer loop
      vertex 10 41.2858 5.16516
      vertex 30 41.2858 5.16516
      vertex 10 41.9068 4.96337
    endloop
  endfacet
  facet normal 0 0.187381 -0.982287
    outer loop
      vertex 10 41.9068 15.0366
      vertex 10 42.5483 15.159
      vertex 30 42.5483 15.159
    endloop
  endfacet
  facet normal -1 0 0
    outer loop
      vertex 10 41.9068 15.0366
      vertex 10 43.2 20
      vertex 10 42.5483 15.159
    endloop
  endfacet
  facet normal 0 0.187381 -0.982287
    outer loop
      vertex 10 41.9068 15.0366
      vertex 30 42.5483 15.159
      vertex 30 41.9068 15.0366
    endloop
  endfacet
  facet normal -1 0 0
    outer loop
      vertex 10 41.9068 4.96337
      vertex 10 42.5483 4.841
      vertex 10 43.2 0
    endloop
  endfacet
  facet normal -0 0.309017 0.951056
    outer loop
      vertex 10 41.9068 4.96337
      vertex 30 41.2858 5.16516
      vertex 30 41.9068 4.96337
    endloop
  endfacet
  facet normal 0 0.187381 0.982287
    outer loop
      vertex 10 41.9068 4.96337
      vertex 30 41.9068 4.96337
      vertex 10 42.5483 4.841
    endloop
  endfacet
  facet normal 0 0.0627914 -0.998027
    outer loop
      vertex 10 42.5483 15.159
      vertex 10 43.2 15.2
      vertex 30 43.2 15.2
    endloop
  endfacet
  facet normal -1 0 0
    outer loop
      vertex 10 42.5483 15.159
      vertex 10 43.2 20
      vertex 10 43.2 15.2
    endloop
  endfacet
  facet normal 0 0.0627914 -0.998027
    outer loop
      vertex 10 42.5483 15.159
      vertex 30 43.2 15.2
      vertex 30 42.5483 15.159
    endloop
  endfacet
  facet normal -1 0 0
    outer loop
      vertex 10 42.5483 4.841
      vertex 10 43.2 4.8
      vertex 10 43.2 0
    endloop
  endfacet
  facet normal -0 0.187381 0.982287
    outer loop
      vertex 10 42.5483 4.841
      vertex 30 41.9068 4.96337
      vertex 30 42.5483 4.841
    endloop
  endfacet
  facet normal 0 0.0627914 0.998027
    outer loop
      vertex 10 42.5483 4.841
      vertex 30 42.5483 4.841
      vertex 10 43.2 4.8
    endloop
  endfacet
  facet normal 0 1 0
    outer loop
      vertex 10 43.2 0
      vertex 10 43.2 4.8
      vertex 30 43.2 0
    endloop
  endfacet
  facet normal 0 1 0
    outer loop
      vertex 10 43.2 15.2
      vertex 10 43.2 20
      vertex 30 43.2 15.2
    endloop
  endfacet
  facet normal -0 0 1
    outer loop
      vertex 10 43.2 20
      vertex 30 30.9 20
      vertex 30 43.2 20
    endloop
  endfacet
  facet normal 0 1 -0
    outer loop
      vertex 10 43.2 20
      vertex 30 43.2 20
      vertex 30 43.2 15.2
    endloop
  endfacet
  facet normal -0 0.0627914 0.998027
    outer loop
      vertex 10 43.2 4.8
      vertex 30 42.5483 4.841
      vertex 30 43.2 4.8
    endloop
  endfacet
  facet normal 0 1 -0
    outer loop
      vertex 10 43.2 4.8
      vertex 30 43.2 4.8
      vertex 30 43.2 0
    endloop
  endfacet
  facet normal 0.998027 0 -0.062787
    outer loop
      vertex 16.7 30.9 10
      vertex 16.7 33.9 10
      vertex 16.726 30.9 10.4136
    endloop
  endfacet
  facet normal 0.998027 0 0.0627872
    outer loop
      vertex 16.7 30.9 10
      vertex 16.726 30.9 9.5864
      vertex 16.726 33.9 9.5864
    endloop
  endfacet
  facet normal 0.998027 -0 0.0627872
    outer loop
      vertex 16.7 30.9 10
      vertex 16.726 33.9 9.5864
      vertex 16.7 33.9 10
    endloop
  endfacet
  facet normal 0.998027 0 -0.062787
    outer loop
      vertex 16.7 33.9 10
      vertex 16.726 33.9 10.4136
      vertex 16.726 30.9 10.4136
    endloop
  endfacet
  facet normal 0 -1 0
    outer loop
      vertex 16.7 33.9 10
      vertex 16.726 33.9 9.5864
      vertex 18.4041 33.9 9.93543
    endloop
  endfacet
  facet normal 0 -1 0
    outer loop
      vertex 16.7 33.9 10
      vertex 18.4 33.9 10
      vertex 18.4086 33.9 10.136
    endloop
  endfacet
  facet normal 0 -1 0
    outer loop
      vertex 16.7 33.9 10
      vertex 18.4041 33.9 9.93543
      vertex 18.4 33.9 10
    endloop
  endfacet
  facet normal 0 -1 0
    outer loop
      vertex 16.7 33.9 10
      vertex 18.4086 33.9 10.136
      vertex 16.726 33.9 10.4136
    endloop
  endfacet
  facet normal 0.982287 0 -0.187381
    outer loop
      vertex 16.726 30.9 10.4136
      vertex 16.726 33.9 10.4136
      vertex 16.8037 30.9 10.8207
    endloop
  endfacet
  facet normal 0.982287 0 0.187381
    outer loop
      vertex 16.726 30.9 9.5864
      vertex 16.8037 30.9 9.17932
      vertex 16.8037 33.9 9.17932
    endloop
  endfacet
  facet normal 0.982287 -0 0.187381
    outer loop
      vertex 16.726 30.9 9.5864
      vertex 16.8037 33.9 9.17932
      vertex 16.726 33.9 9.5864
    endloop
  endfacet
  facet normal 0.982287 0 -0.187381
    outer loop
      vertex 16.726 33.9 10.4136
      vertex 16.8037 33.9 10.8207
      vertex 16.8037 30.9 10.8207
    endloop
  endfacet
  facet normal 0 -1 0
    outer loop
      vertex 16.726 33.9 10.4136
      vertex 18.4086 33.9 10.136
      vertex 18.4126 33.9 10.2005
    endloop
  endfacet
  facet normal 0 -1 0
    outer loop
      vertex 16.726 33.9 10.4136
      vertex 18.4126 33.9 10.2005
      vertex 18.4503 33.9 10.3979
    endloop
  endfacet
  facet normal 0 -1 0
    outer loop
      vertex 16.726 33.9 10.4136
      vertex 18.4503 33.9 10.3979
      vertex 16.8037 33.9 10.8207
    endloop
  endfacet
  facet normal 0 -1 0
    outer loop
      vertex 16.726 33.9 9.5864
      vertex 16.8037 33.9 9.17932
      vertex 18.4503 33.9 9.6021
    endloop
  endfacet
  facet normal 0 -1 -0
    outer loop
      vertex 16.726 33.9 9.5864
      vertex 18.4126 33.9 9.79947
      vertex 18.4041 33.9 9.93543
    endloop
  endfacet
  facet normal 0 -1 -0
    outer loop
      vertex 16.726 33.9 9.5864
      vertex 18.4503 33.9 9.6021
      vertex 18.4126 33.9 9.79947
    endloop
  endfacet
  facet normal 0.951057 0 -0.309015
    outer loop
      vertex 16.8037 30.9 10.8207
      vertex 16.8037 33.9 10.8207
      vertex 16.9317 30.9 11.2148
    endloop
  endfacet
  facet normal 0.951057 0 0.309015
    outer loop
      vertex 16.8037 30.9 9.17932
      vertex 16.9317 30.9 8.78519
      vertex 16.9317 33.9 8.78519
    endloop
  endfacet
  facet normal 0.951057 -0 0.309015
    outer loop
      vertex 16.8037 30.9 9.17932
      vertex 16.9317 33.9 8.78519
      vertex 16.8037 33.9 9.17932
    endloop
  endfacet
  facet normal 0.951057 0 -0.309015
    outer loop
      vertex 16.8037 33.9 10.8207
      vertex 16.9317 33.9 11.2148
      vertex 16.9317 30.9 11.2148
    endloop
  endfacet
  facet normal 0 -1 0
    outer loop
      vertex 16.8037 33.9 10.8207
      vertex 18.4503 33.9 10.3979
      vertex 18.5124 33.9 10.589
    endloop
  endfacet
  facet normal 0 -1 0
    outer loop
      vertex 16.8037 33.9 10.8207
      vertex 18.5124 33.9 10.589
      vertex 16.9317 33.9 11.2148
    endloop
  endfacet
  facet normal 0 -1 0
    outer loop
      vertex 16.8037 33.9 9.17932
      vertex 16.9317 33.9 8.78519
      vertex 18.5124 33.9 9.411
    endloop
  endfacet
  facet normal 0 -1 -0
    outer loop
      vertex 16.8037 33.9 9.17932
      vertex 18.5124 33.9 9.411
      vertex 18.4503 33.9 9.6021
    endloop
  endfacet
  facet normal 0.904825 0 -0.425784
    outer loop
      vertex 16.9317 30.9 11.2148
      vertex 16.9317 33.9 11.2148
      vertex 17.1082 30.9 11.5898
    endloop
  endfacet
  facet normal 0.904825 0 0.425784
    outer loop
      vertex 16.9317 30.9 8.78519
      vertex 17.1082 30.9 8.41021
      vertex 17.1082 33.9 8.41021
    endloop
  endfacet
  facet normal 0.904825 -0 0.425784
    outer loop
      vertex 16.9317 30.9 8.78519
      vertex 17.1082 33.9 8.41021
      vertex 16.9317 33.9 8.78519
    endloop
  endfacet
  facet normal 0.904825 0 -0.425784
    outer loop
      vertex 16.9317 33.9 11.2148
      vertex 17.1082 33.9 11.5898
      vertex 17.1082 30.9 11.5898
    endloop
  endfacet
  facet normal 0 -1 0
    outer loop
      vertex 16.9317 33.9 11.2148
      vertex 18.5124 33.9 10.589
      vertex 18.5979 33.9 10.7708
    endloop
  endfacet
  facet normal 0 -1 0
    outer loop
      vertex 16.9317 33.9 11.2148
      vertex 18.5979 33.9 10.7708
      vertex 17.1082 33.9 11.5898
    endloop
  endfacet
  facet normal 0 -1 0
    outer loop
      vertex 16.9317 33.9 8.78519
      vertex 17.1082 33.9 8.41021
      vertex 18.5979 33.9 9.22919
    endloop
  endfacet
  facet normal 0 -1 -0
    outer loop
      vertex 16.9317 33.9 8.78519
      vertex 18.5979 33.9 9.22919
      vertex 18.5124 33.9 9.411
    endloop
  endfacet
  facet normal 0.84433 0 -0.535823
    outer loop
      vertex 17.1082 30.9 11.5898
      vertex 17.1082 33.9 11.5898
      vertex 17.3302 30.9 11.9397
    endloop
  endfacet
  facet normal 0.84433 0 0.535823
    outer loop
      vertex 17.1082 30.9 8.41021
      vertex 17.3302 30.9 8.06031
      vertex 17.3302 33.9 8.06031
    endloop
  endfacet
  facet normal 0.84433 -0 0.535823
    outer loop
      vertex 17.1082 30.9 8.41021
      vertex 17.3302 33.9 8.06031
      vertex 17.1082 33.9 8.41021
    endloop
  endfacet
  facet normal 0.84433 0 -0.535823
    outer loop
      vertex 17.1082 33.9 11.5898
      vertex 17.3302 33.9 11.9397
      vertex 17.3302 30.9 11.9397
    endloop
  endfacet
  facet normal 0 -1 0
    outer loop
      vertex 17.1082 33.9 11.5898
      vertex 18.5979 33.9 10.7708
      vertex 18.7056 33.9 10.9405
    endloop
  endfacet
  facet normal 0 -1 0
    outer loop
      vertex 17.1082 33.9 11.5898
      vertex 18.7056 33.9 10.9405
      vertex 17.3302 33.9 11.9397
    endloop
  endfacet
  facet normal 0 -1 0
    outer loop
      vertex 17.1082 33.9 8.41021
      vertex 17.3302 33.9 8.06031
      vertex 18.7056 33.9 9.05954
    endloop
  endfacet
  facet normal 0 -1 -0
    outer loop
      vertex 17.1082 33.9 8.41021
      vertex 18.7056 33.9 9.05954
      vertex 18.5979 33.9 9.22919
    endloop
  endfacet
  facet normal 0.770512 0 -0.637425
    outer loop
      vertex 17.3302 30.9 11.9397
      vertex 17.3302 33.9 11.9397
      vertex 17.5944 30.9 12.259
    endloop
  endfacet
  facet normal 0.770512 0 0.637425
    outer loop
      vertex 17.3302 30.9 8.06031
      vertex 17.5944 30.9 7.74099
      vertex 17.5944 33.9 7.74099
    endloop
  endfacet
  facet normal 0.770512 -0 0.637425
    outer loop
      vertex 17.3302 30.9 8.06031
      vertex 17.5944 33.9 7.74099
      vertex 17.3302 33.9 8.06031
    endloop
  endfacet
  facet normal 0.770512 0 -0.637425
    outer loop
      vertex 17.3302 33.9 11.9397
      vertex 17.5944 33.9 12.259
      vertex 17.5944 30.9 12.259
    endloop
  endfacet
  facet normal 0 -1 0
    outer loop
      vertex 17.3302 33.9 11.9397
      vertex 18.7056 33.9 10.9405
      vertex 18.8336 33.9 11.0953
    endloop
  endfacet
  facet normal 0 -1 0
    outer loop
      vertex 17.3302 33.9 11.9397
      vertex 18.8336 33.9 11.0953
      vertex 17.5944 33.9 12.259
    endloop
  endfacet
  facet normal 0 -1 0
    outer loop
      vertex 17.3302 33.9 8.06031
      vertex 17.5944 33.9 7.74099
      vertex 18.8336 33.9 8.90472
    endloop
  endfacet
  facet normal 0 -1 -0
    outer loop
      vertex 17.3302 33.9 8.06031
      vertex 18.8336 33.9 8.90472
      vertex 18.7056 33.9 9.05954
    endloop
  endfacet
  facet normal 0.684547 0 -0.728968
    outer loop
      vertex 17.5944 30.9 12.259
      vertex 17.5944 33.9 12.259
      vertex 17.8965 33.9 12.5427
    endloop
  endfacet
  facet normal 0.684547 0 -0.728968
    outer loop
      vertex 17.5944 30.9 12.259
      vertex 17.8965 33.9 12.5427
      vertex 17.8965 30.9 12.5427
    endloop
  endfacet
  facet normal 0.684547 0 0.728968
    outer loop
      vertex 17.5944 30.9 7.74099
      vertex 17.8965 30.9 7.45731
      vertex 17.5944 33.9 7.74099
    endloop
  endfacet
  facet normal 0 -1 0
    outer loop
      vertex 17.5944 33.9 12.259
      vertex 18.8336 33.9 11.0953
      vertex 18.9801 33.9 11.2328
    endloop
  endfacet
  facet normal 0 -1 0
    outer loop
      vertex 17.5944 33.9 12.259
      vertex 18.9801 33.9 11.2328
      vertex 17.8965 33.9 12.5427
    endloop
  endfacet
  facet normal 0.684547 0 0.728968
    outer loop
      vertex 17.5944 33.9 7.74099
      vertex 17.8965 30.9 7.45731
      vertex 17.8965 33.9 7.45731
    endloop
  endfacet
  facet normal 0 -1 0
    outer loop
      vertex 17.5944 33.9 7.74099
      vertex 17.8965 33.9 7.45731
      vertex 18.9801 33.9 8.76718
    endloop
  endfacet
  facet normal 0 -1 -0
    outer loop
      vertex 17.5944 33.9 7.74099
      vertex 18.9801 33.9 8.76718
      vertex 18.8336 33.9 8.90472
    endloop
  endfacet
  facet normal 0.587784 0 -0.809018
    outer loop
      vertex 17.8965 30.9 12.5427
      vertex 17.8965 33.9 12.5427
      vertex 18.2318 33.9 12.7863
    endloop
  endfacet
  facet normal 0.587784 0 -0.809018
    outer loop
      vertex 17.8965 30.9 12.5427
      vertex 18.2318 33.9 12.7863
      vertex 18.2318 30.9 12.7863
    endloop
  endfacet
  facet normal 0.587784 0 0.809018
    outer loop
      vertex 17.8965 30.9 7.45731
      vertex 18.2318 30.9 7.21372
      vertex 17.8965 33.9 7.45731
    endloop
  endfacet
  facet normal 0 -1 0
    outer loop
      vertex 17.8965 33.9 12.5427
      vertex 18.9801 33.9 11.2328
      vertex 19.1427 33.9 11.3509
    endloop
  endfacet
  facet normal 0 -1 0
    outer loop
      vertex 17.8965 33.9 12.5427
      vertex 19.1427 33.9 11.3509
      vertex 18.2318 33.9 12.7863
    endloop
  endfacet
  facet normal 0.587784 0 0.809018
    outer loop
      vertex 17.8965 33.9 7.45731
      vertex 18.2318 30.9 7.21372
      vertex 18.2318 33.9 7.21372
    endloop
  endfacet
  facet normal 0 -1 0
    outer loop
      vertex 17.8965 33.9 7.45731
      vertex 18.2318 33.9 7.21372
      vertex 19.1427 33.9 8.64907
    endloop
  endfacet
  facet normal 0 -1 -0
    outer loop
      vertex 17.8965 33.9 7.45731
      vertex 19.1427 33.9 8.64907
      vertex 18.9801 33.9 8.76718
    endloop
  endfacet
  facet normal 0.481753 0 -0.876307
    outer loop
      vertex 18.2318 30.9 12.7863
      vertex 18.2318 33.9 12.7863
      vertex 18.5949 33.9 12.9859
    endloop
  endfacet
  facet normal 0.481753 0 -0.876307
    outer loop
      vertex 18.2318 30.9 12.7863
      vertex 18.5949 33.9 12.9859
      vertex 18.5949 30.9 12.9859
    endloop
  endfacet
  facet normal 0.481753 0 0.876307
    outer loop
      vertex 18.2318 30.9 7.21372
      vertex 18.5949 30.9 7.01407
      vertex 18.2318 33.9 7.21372
    endloop
  endfacet
  facet normal 0 -1 0
    outer loop
      vertex 18.2318 33.9 12.7863
      vertex 19.1427 33.9 11.3509
      vertex 19.3188 33.9 11.4477
    endloop
  endfacet
  facet normal 0 -1 0
    outer loop
      vertex 18.2318 33.9 12.7863
      vertex 19.3188 33.9 11.4477
      vertex 18.5949 33.9 12.9859
    endloop
  endfacet
  facet normal 0.481753 0 0.876307
    outer loop
      vertex 18.2318 33.9 7.21372
      vertex 18.5949 30.9 7.01407
      vertex 18.5949 33.9 7.01407
    endloop
  endfacet
  facet normal 0 -1 0
    outer loop
      vertex 18.2318 33.9 7.21372
      vertex 18.5949 33.9 7.01407
      vertex 19.3188 33.9 8.55228
    endloop
  endfacet
  facet normal 0 -1 -0
    outer loop
      vertex 18.2318 33.9 7.21372
      vertex 19.3188 33.9 8.55228
      vertex 19.1427 33.9 8.64907
    endloop
  endfacet
  facet normal 0.998027 0 -0.0627936
    outer loop
      vertex 18.4 33.9 10
      vertex 18.4 38.0103 10
      vertex 18.4086 33.9 10.136
    endloop
  endfacet
  facet normal 0.998027 -0 0.0627837
    outer loop
      vertex 18.4 33.9 10
      vertex 18.403 38.0103 9.95191
      vertex 18.4 38.0103 10
    endloop
  endfacet
  facet normal 0.998027 1.10139e-07 0.0627931
    outer loop
      vertex 18.4 33.9 10
      vertex 18.4041 33.9 9.93543
      vertex 18.403 38.0103 9.95191
    endloop
  endfacet
  facet normal 0.998027 3.16796e-07 -0.0627841
    outer loop
      vertex 18.4 38.0103 10
      vertex 18.4096 38.0103 10.1524
      vertex 18.4086 33.9 10.136
    endloop
  endfacet
  facet normal 0.998026 9.46795e-08 0.0627969
    outer loop
      vertex 18.403 38.0103 9.95191
      vertex 18.4041 33.9 9.93543
      vertex 18.4126 38.0103 9.79947
    endloop
  endfacet
  facet normal 0.998027 0 0.0627941
    outer loop
      vertex 18.4041 33.9 9.93543
      vertex 18.4126 33.9 9.79947
      vertex 18.4126 38.0103 9.79947
    endloop
  endfacet
  facet normal 0.998027 3.52991e-07 -0.0627931
    outer loop
      vertex 18.4086 33.9 10.136
      vertex 18.4096 38.0103 10.1524
      vertex 18.4126 33.9 10.2005
    endloop
  endfacet
  facet normal 0.998025 0 -0.0628231
    outer loop
      vertex 18.4096 38.0103 10.1524
      vertex 18.4126 38.0103 10.2005
      vertex 18.4126 33.9 10.2005
    endloop
  endfacet
  facet normal 0.982288 0 -0.187375
    outer loop
      vertex 18.4126 33.9 10.2005
      vertex 18.4126 38.0103 10.2005
      vertex 18.4366 38.0103 10.3265
    endloop
  endfacet
  facet normal 0.982287 2.88392e-07 -0.187384
    outer loop
      vertex 18.4126 33.9 10.2005
      vertex 18.4366 38.0103 10.3265
      vertex 18.4503 33.9 10.3979
    endloop
  endfacet
  facet normal 0.982288 0 0.187375
    outer loop
      vertex 18.4126 33.9 9.79947
      vertex 18.4366 38.0103 9.67349
      vertex 18.4126 38.0103 9.79947
    endloop
  endfacet
  facet normal 0.982287 2.88392e-07 0.187384
    outer loop
      vertex 18.4126 33.9 9.79947
      vertex 18.4503 33.9 9.6021
      vertex 18.4366 38.0103 9.67349
    endloop
  endfacet
  facet normal 0.982284 0 -0.1874
    outer loop
      vertex 18.4366 38.0103 10.3265
      vertex 18.4503 38.0193 10.3979
      vertex 18.4503 33.9 10.3979
    endloop
  endfacet
  facet normal 0.982284 0 0.1874
    outer loop
      vertex 18.4366 38.0103 9.67349
      vertex 18.4503 33.9 9.6021
      vertex 18.4503 38.0193 9.6021
    endloop
  endfacet
  facet normal 0.95106 0 -0.309005
    outer loop
      vertex 18.4503 33.9 10.3979
      vertex 18.4503 38.0193 10.3979
      vertex 18.5124 33.9 10.589
    endloop
  endfacet
  facet normal 0.95106 0 0.309005
    outer loop
      vertex 18.4503 33.9 9.6021
      vertex 18.5124 33.9 9.411
      vertex 18.4503 38.0193 9.6021
    endloop
  endfacet
  facet normal 0.95106 0 -0.309005
    outer loop
      vertex 18.4503 38.0193 10.3979
      vertex 18.5124 38.0434 10.589
      vertex 18.5124 33.9 10.589
    endloop
  endfacet
  facet normal 0.95106 0 0.309005
    outer loop
      vertex 18.4503 38.0193 9.6021
      vertex 18.5124 33.9 9.411
      vertex 18.5124 38.0434 9.411
    endloop
  endfacet
  facet normal 0.904826 0 -0.425781
    outer loop
      vertex 18.5124 33.9 10.589
      vertex 18.5124 38.0434 10.589
      vertex 18.5979 33.9 10.7708
    endloop
  endfacet
  facet normal 0.904826 0 0.425781
    outer loop
      vertex 18.5124 33.9 9.411
      vertex 18.5979 33.9 9.22919
      vertex 18.5124 38.0434 9.411
    endloop
  endfacet
  facet normal 0.904826 0 -0.425781
    outer loop
      vertex 18.5124 38.0434 10.589
      vertex 18.5979 38.0664 10.7708
      vertex 18.5979 33.9 10.7708
    endloop
  endfacet
  facet normal 0.904826 0 0.425781
    outer loop
      vertex 18.5124 38.0434 9.411
      vertex 18.5979 33.9 9.22919
      vertex 18.5979 38.0664 9.22919
    endloop
  endfacet
  facet normal 0.368125 0 -0.929776
    outer loop
      vertex 18.5949 30.9 12.9859
      vertex 18.5949 33.9 12.9859
      vertex 18.9802 33.9 13.1385
    endloop
  endfacet
  facet normal 0.368125 0 -0.929776
    outer loop
      vertex 18.5949 30.9 12.9859
      vertex 18.9802 33.9 13.1385
      vertex 18.9802 30.9 13.1385
    endloop
  endfacet
  facet normal 0.368125 0 0.929776
    outer loop
      vertex 18.5949 30.9 7.01407
      vertex 18.9802 30.9 6.86151
      vertex 18.5949 33.9 7.01407
    endloop
  endfacet
  facet normal 0 -1 0
    outer loop
      vertex 18.5949 33.9 12.9859
      vertex 19.3188 33.9 11.4477
      vertex 19.5056 33.9 11.5217
    endloop
  endfacet
  facet normal 0 -1 0
    outer loop
      vertex 18.5949 33.9 12.9859
      vertex 19.5056 33.9 11.5217
      vertex 18.9802 33.9 13.1385
    endloop
  endfacet
  facet normal 0.368125 0 0.929776
    outer loop
      vertex 18.5949 33.9 7.01407
      vertex 18.9802 30.9 6.86151
      vertex 18.9802 33.9 6.86151
    endloop
  endfacet
  facet normal 0 -1 0
    outer loop
      vertex 18.5949 33.9 7.01407
      vertex 18.9802 33.9 6.86151
      vertex 19.5056 33.9 8.47831
    endloop
  endfacet
  facet normal 0 -1 -0
    outer loop
      vertex 18.5949 33.9 7.01407
      vertex 19.5056 33.9 8.47831
      vertex 19.3188 33.9 8.55228
    endloop
  endfacet
  facet normal 0.844327 0 -0.535828
    outer loop
      vertex 18.5979 33.9 10.7708
      vertex 18.5979 38.0664 10.7708
      vertex 18.7056 33.9 10.9405
    endloop
  endfacet
  facet normal 0.844327 0 0.535828
    outer loop
      vertex 18.5979 33.9 9.22919
      vertex 18.7056 33.9 9.05954
      vertex 18.5979 38.0664 9.22919
    endloop
  endfacet
  facet normal 0.844327 0 -0.535828
    outer loop
      vertex 18.5979 38.0664 10.7708
      vertex 18.7056 38.0878 10.9405
      vertex 18.7056 33.9 10.9405
    endloop
  endfacet
  facet normal 0.844327 0 0.535828
    outer loop
      vertex 18.5979 38.0664 9.22919
      vertex 18.7056 33.9 9.05954
      vertex 18.7056 38.0878 9.05954
    endloop
  endfacet
  facet normal 0.770514 0 -0.637423
    outer loop
      vertex 18.7056 33.9 10.9405
      vertex 18.7056 38.0878 10.9405
      vertex 18.8336 33.9 11.0953
    endloop
  endfacet
  facet normal 0.770514 0 0.637423
    outer loop
      vertex 18.7056 33.9 9.05954
      vertex 18.8336 33.9 8.90472
      vertex 18.7056 38.0878 9.05954
    endloop
  endfacet
  facet normal 0.770507 -5.87748e-07 -0.637432
    outer loop
      vertex 18.7056 38.0878 10.9405
      vertex 18.7336 38.0921 10.9744
      vertex 18.8336 33.9 11.0953
    endloop
  endfacet
  facet normal 0.770507 -5.87748e-07 0.637432
    outer loop
      vertex 18.7056 38.0878 9.05954
      vertex 18.8336 33.9 8.90472
      vertex 18.7336 38.0921 9.02562
    endloop
  endfacet
  facet normal 0.770517 0 -0.63742
    outer loop
      vertex 18.7336 38.0921 10.9744
      vertex 18.8336 38.1231 11.0953
      vertex 18.8336 33.9 11.0953
    endloop
  endfacet
  facet normal 0.770517 0 0.63742
    outer loop
      vertex 18.7336 38.0921 9.02562
      vertex 18.8336 33.9 8.90472
      vertex 18.8336 38.1231 8.90472
    endloop
  endfacet
  facet normal 0.684543 0 -0.728973
    outer loop
      vertex 18.8336 33.9 11.0953
      vertex 18.8336 38.1231 11.0953
      vertex 18.9801 33.9 11.2328
    endloop
  endfacet
  facet normal 0.684543 0 0.728973
    outer loop
      vertex 18.8336 33.9 8.90472
      vertex 18.9801 33.9 8.76718
      vertex 18.8336 38.1231 8.90472
    endloop
  endfacet
  facet normal 0.684543 0 -0.728973
    outer loop
      vertex 18.8336 38.1231 11.0953
      vertex 18.9801 38.1585 11.2328
      vertex 18.9801 33.9 11.2328
    endloop
  endfacet
  facet normal 0.684543 0 0.728973
    outer loop
      vertex 18.8336 38.1231 8.90472
      vertex 18.9801 33.9 8.76718
      vertex 18.9801 38.1585 8.76718
    endloop
  endfacet
  facet normal 0.587786 0 -0.809016
    outer loop
      vertex 18.9801 33.9 11.2328
      vertex 18.9801 38.1585 11.2328
      vertex 19.1427 33.9 11.3509
    endloop
  endfacet
  facet normal 0.587786 0 0.809016
    outer loop
      vertex 18.9801 33.9 8.76718
      vertex 19.1427 33.9 8.64907
      vertex 18.9801 38.1585 8.76718
    endloop
  endfacet
  facet normal 0.587786 0 -0.809016
    outer loop
      vertex 18.9801 38.1585 11.2328
      vertex 19.1427 38.1888 11.3509
      vertex 19.1427 33.9 11.3509
    endloop
  endfacet
  facet normal 0.587786 0 0.809016
    outer loop
      vertex 18.9801 38.1585 8.76718
      vertex 19.1427 33.9 8.64907
      vertex 19.1427 38.1888 8.64907
    endloop
  endfacet
  facet normal 0.24869 0 -0.968583
    outer loop
      vertex 18.9802 30.9 13.1385
      vertex 18.9802 33.9 13.1385
      vertex 19.3816 33.9 13.2415
    endloop
  endfacet
  facet normal 0.24869 0 -0.968583
    outer loop
      vertex 18.9802 30.9 13.1385
      vertex 19.3816 33.9 13.2415
      vertex 19.3816 30.9 13.2415
    endloop
  endfacet
  facet normal 0.24869 0 0.968583
    outer loop
      vertex 18.9802 30.9 6.86151
      vertex 19.3816 30.9 6.75845
      vertex 18.9802 33.9 6.86151
    endloop
  endfacet
  facet normal 0 -1 0
    outer loop
      vertex 18.9802 33.9 13.1385
      vertex 19.5056 33.9 11.5217
      vertex 19.7002 33.9 11.5717
    endloop
  endfacet
  facet normal 0 -1 0
    outer loop
      vertex 18.9802 33.9 13.1385
      vertex 19.7002 33.9 11.5717
      vertex 19.3816 33.9 13.2415
    endloop
  endfacet
  facet normal 0.24869 0 0.968583
    outer loop
      vertex 18.9802 33.9 6.86151
      vertex 19.3816 30.9 6.75845
      vertex 19.3816 33.9 6.75845
    endloop
  endfacet
  facet normal 0 -1 0
    outer loop
      vertex 18.9802 33.9 6.86151
      vertex 19.3816 33.9 6.75845
      vertex 19.7002 33.9 8.42834
    endloop
  endfacet
  facet normal 0 -1 -0
    outer loop
      vertex 18.9802 33.9 6.86151
      vertex 19.7002 33.9 8.42834
      vertex 19.5056 33.9 8.47831
    endloop
  endfacet
  facet normal 0.481753 0 -0.876307
    outer loop
      vertex 19.1427 33.9 11.3509
      vertex 19.1427 38.1888 11.3509
      vertex 19.3188 33.9 11.4477
    endloop
  endfacet
  facet normal 0.481753 0 0.876307
    outer loop
      vertex 19.1427 33.9 8.64907
      vertex 19.3188 33.9 8.55228
      vertex 19.1427 38.1888 8.64907
    endloop
  endfacet
  facet normal 0.481753 0 -0.876307
    outer loop
      vertex 19.1427 38.1888 11.3509
      vertex 19.3188 38.2136 11.4477
      vertex 19.3188 33.9 11.4477
    endloop
  endfacet
  facet normal 0.481753 0 0.876307
    outer loop
      vertex 19.1427 38.1888 8.64907
      vertex 19.3188 33.9 8.55228
      vertex 19.3188 38.2136 8.55228
    endloop
  endfacet
  facet normal 0.368126 0 -0.929776
    outer loop
      vertex 19.3188 33.9 11.4477
      vertex 19.3188 38.2136 11.4477
      vertex 19.5056 33.9 11.5217
    endloop
  endfacet
  facet normal 0.368126 0 0.929776
    outer loop
      vertex 19.3188 33.9 8.55228
      vertex 19.5056 33.9 8.47831
      vertex 19.3188 38.2136 8.55228
    endloop
  endfacet
  facet normal 0.368126 0 -0.929776
    outer loop
      vertex 19.3188 38.2136 11.4477
      vertex 19.5056 38.2326 11.5217
      vertex 19.5056 33.9 11.5217
    endloop
  endfacet
  facet normal 0.368126 0 0.929776
    outer loop
      vertex 19.3188 38.2136 8.55228
      vertex 19.5056 33.9 8.47831
      vertex 19.5056 38.2326 8.47831
    endloop
  endfacet
  facet normal 0.125333 0 -0.992115
    outer loop
      vertex 19.3816 30.9 13.2415
      vertex 19.3816 33.9 13.2415
      vertex 19.7928 33.9 13.2935
    endloop
  endfacet
  facet normal 0.125333 0 -0.992115
    outer loop
      vertex 19.3816 30.9 13.2415
      vertex 19.7928 33.9 13.2935
      vertex 19.7928 30.9 13.2935
    endloop
  endfacet
  facet normal 0.125333 0 0.992115
    outer loop
      vertex 19.3816 30.9 6.75845
      vertex 19.7928 30.9 6.70651
      vertex 19.3816 33.9 6.75845
    endloop
  endfacet
  facet normal 0 -1 0
    outer loop
      vertex 19.3816 33.9 13.2415
      vertex 19.7002 33.9 11.5717
      vertex 19.8995 33.9 11.5968
    endloop
  endfacet
  facet normal 0 -1 0
    outer loop
      vertex 19.3816 33.9 13.2415
      vertex 19.8995 33.9 11.5968
      vertex 19.7928 33.9 13.2935
    endloop
  endfacet
  facet normal 0.125333 0 0.992115
    outer loop
      vertex 19.3816 33.9 6.75845
      vertex 19.7928 30.9 6.70651
      vertex 19.7928 33.9 6.70651
    endloop
  endfacet
  facet normal 0 -1 0
    outer loop
      vertex 19.3816 33.9 6.75845
      vertex 19.7928 33.9 6.70651
      vertex 19.8995 33.9 8.40316
    endloop
  endfacet
  facet normal 0 -1 -0
    outer loop
      vertex 19.3816 33.9 6.75845
      vertex 19.8995 33.9 8.40316
      vertex 19.7002 33.9 8.42834
    endloop
  endfacet
  facet normal 0.248689 0 -0.968583
    outer loop
      vertex 19.5056 33.9 11.5217
      vertex 19.5056 38.2326 11.5217
      vertex 19.7002 33.9 11.5717
    endloop
  endfacet
  facet normal 0.248689 0 0.968583
    outer loop
      vertex 19.5056 33.9 8.47831
      vertex 19.7002 33.9 8.42834
      vertex 19.5056 38.2326 8.47831
    endloop
  endfacet
  facet normal 0.248689 0 -0.968583
    outer loop
      vertex 19.5056 38.2326 11.5217
      vertex 19.7002 38.2455 11.5717
      vertex 19.7002 33.9 11.5717
    endloop
  endfacet
  facet normal 0.248689 0 0.968583
    outer loop
      vertex 19.5056 38.2326 8.47831
      vertex 19.7002 33.9 8.42834
      vertex 19.7002 38.2455 8.42834
    endloop
  endfacet
  facet normal 0.125331 0 -0.992115
    outer loop
      vertex 19.7002 33.9 11.5717
      vertex 19.7002 38.2455 11.5717
      vertex 19.8995 33.9 11.5968
    endloop
  endfacet
  facet normal 0.125331 0 0.992115
    outer loop
      vertex 19.7002 33.9 8.42834
      vertex 19.8995 33.9 8.40316
      vertex 19.7002 38.2455 8.42834
    endloop
  endfacet
  facet normal 0.125331 0 -0.992115
    outer loop
      vertex 19.7002 38.2455 11.5717
      vertex 19.8995 38.2519 11.5968
      vertex 19.8995 33.9 11.5968
    endloop
  endfacet
  facet normal 0.125331 0 0.992115
    outer loop
      vertex 19.7002 38.2455 8.42834
      vertex 19.8995 33.9 8.40316
      vertex 19.8995 38.2519 8.40316
    endloop
  endfacet
  facet normal -0 0 -1
    outer loop
      vertex 19.7928 30.9 13.2935
      vertex 19.7928 33.9 13.2935
      vertex 20.2072 33.9 13.2935
    endloop
  endfacet
  facet normal 0 -1 0
    outer loop
      vertex 19.7928 30.9 13.2935
      vertex 20.2072 30.9 13.2935
      vertex 30 30.9 20
    endloop
  endfacet
  facet normal 0 0 -1
    outer loop
      vertex 19.7928 30.9 13.2935
      vertex 20.2072 33.9 13.2935
      vertex 20.2072 30.9 13.2935
    endloop
  endfacet
  facet normal 0 0 1
    outer loop
      vertex 19.7928 30.9 6.70651
      vertex 20.2072 30.9 6.70651
      vertex 19.7928 33.9 6.70651
    endloop
  endfacet
  facet normal 0 -1 0
    outer loop
      vertex 19.7928 33.9 13.2935
      vertex 19.8995 33.9 11.5968
      vertex 20.2072 33.9 13.2935
    endloop
  endfacet
  facet normal 0 -1 -0
    outer loop
      vertex 19.7928 33.9 6.70651
      vertex 20.1005 33.9 8.40316
      vertex 19.8995 33.9 8.40316
    endloop
  endfacet
  facet normal -0 0 1
    outer loop
      vertex 19.7928 33.9 6.70651
      vertex 20.2072 30.9 6.70651
      vertex 20.2072 33.9 6.70651
    endloop
  endfacet
  facet normal 0 -1 0
    outer loop
      vertex 19.7928 33.9 6.70651
      vertex 20.2072 33.9 6.70651
      vertex 20.1005 33.9 8.40316
    endloop
  endfacet
  facet normal -0 0 -1
    outer loop
      vertex 19.8995 33.9 11.5968
      vertex 19.8995 38.2519 11.5968
      vertex 20.1005 38.2519 11.5968
    endloop
  endfacet
  facet normal 0 -1 0
    outer loop
      vertex 19.8995 33.9 11.5968
      vertex 20.1005 33.9 11.5968
      vertex 20.2072 33.9 13.2935
    endloop
  endfacet
  facet normal 0 0 -1
    outer loop
      vertex 19.8995 33.9 11.5968
      vertex 20.1005 38.2519 11.5968
      vertex 20.1005 33.9 11.5968
    endloop
  endfacet
  facet normal 0 0 1
    outer loop
      vertex 19.8995 33.9 8.40316
      vertex 20.1005 33.9 8.40316
      vertex 19.8995 38.2519 8.40316
    endloop
  endfacet
  facet normal -0 0 1
    outer loop
      vertex 19.8995 38.2519 8.40316
      vertex 20.1005 33.9 8.40316
      vertex 20.1005 38.2519 8.40316
    endloop
  endfacet
  facet normal 0 0.968598 0.248632
    outer loop
      vertex 19.8995 38.2519 8.40316
      vertex 20.1005 38.2519 8.40316
      vertex 30 38.2545 8.39311
    endloop
  endfacet
  facet normal -0.125331 0 -0.992115
    outer loop
      vertex 20.1005 33.9 11.5968
      vertex 20.1005 38.2519 11.5968
      vertex 20.2998 38.2455 11.5717
    endloop
  endfacet
  facet normal 0 -1 0
    outer loop
      vertex 20.1005 33.9 11.5968
      vertex 20.2998 33.9 11.5717
      vertex 20.6184 33.9 13.2415
    endloop
  endfacet
  facet normal -0.125331 0 -0.992115
    outer loop
      vertex 20.1005 33.9 11.5968
      vertex 20.2998 38.2455 11.5717
      vertex 20.2998 33.9 11.5717
    endloop
  endfacet
  facet normal 0 -1 -0
    outer loop
      vertex 20.1005 33.9 11.5968
      vertex 20.6184 33.9 13.2415
      vertex 20.2072 33.9 13.2935
    endloop
  endfacet
  facet normal 0 -1 0
    outer loop
      vertex 20.1005 33.9 8.40316
      vertex 20.2072 33.9 6.70651
      vertex 20.6184 33.9 6.75845
    endloop
  endfacet
  facet normal -0.125331 0 0.992115
    outer loop
      vertex 20.1005 33.9 8.40316
      vertex 20.2998 33.9 8.42834
      vertex 20.2998 38.2455 8.42834
    endloop
  endfacet
  facet normal -0.125331 0 0.992115
    outer loop
      vertex 20.1005 33.9 8.40316
      vertex 20.2998 38.2455 8.42834
      vertex 20.1005 38.2519 8.40316
    endloop
  endfacet
  facet normal 0 -1 0
    outer loop
      vertex 20.1005 33.9 8.40316
      vertex 20.6184 33.9 6.75845
      vertex 20.2998 33.9 8.42834
    endloop
  endfacet
  facet normal 6.5538e-08 0.968582 -0.248693
    outer loop
      vertex 20.1005 38.2519 11.5968
      vertex 30 38.2545 11.6069
      vertex 20.2998 38.2455 11.5717
    endloop
  endfacet
  facet normal 6.5538e-08 0.968582 0.248693
    outer loop
      vertex 20.1005 38.2519 8.40316
      vertex 20.2998 38.2455 8.42834
      vertex 30 38.2545 8.39311
    endloop
  endfacet
  facet normal -0.125332 0 -0.992115
    outer loop
      vertex 20.2072 30.9 13.2935
      vertex 20.2072 33.9 13.2935
      vertex 20.6184 33.9 13.2415
    endloop
  endfacet
  facet normal 0 -1 0
    outer loop
      vertex 20.2072 30.9 13.2935
      vertex 20.6184 30.9 13.2415
      vertex 30 30.9 20
    endloop
  endfacet
  facet normal -0.125332 0 -0.992115
    outer loop
      vertex 20.2072 30.9 13.2935
      vertex 20.6184 33.9 13.2415
      vertex 20.6184 30.9 13.2415
    endloop
  endfacet
  facet normal -0.125332 0 0.992115
    outer loop
      vertex 20.2072 30.9 6.70651
      vertex 20.6184 30.9 6.75845
      vertex 20.2072 33.9 6.70651
    endloop
  endfacet
  facet normal 0 -1 0
    outer loop
      vertex 20.2072 30.9 6.70651
      vertex 30 30.9 0
      vertex 20.6184 30.9 6.75845
    endloop
  endfacet
  facet normal -0.125332 0 0.992115
    outer loop
      vertex 20.2072 33.9 6.70651
      vertex 20.6184 30.9 6.75845
      vertex 20.6184 33.9 6.75845
    endloop
  endfacet
  facet normal -0.248686 0 -0.968584
    outer loop
      vertex 20.2998 33.9 11.5717
      vertex 20.2998 38.2455 11.5717
      vertex 20.4944 38.2326 11.5217
    endloop
  endfacet
  facet normal 0 -1 0
    outer loop
      vertex 20.2998 33.9 11.5717
      vertex 20.4944 33.9 11.5217
      vertex 21.0198 33.9 13.1385
    endloop
  endfacet
  facet normal -0.248686 0 -0.968584
    outer loop
      vertex 20.2998 33.9 11.5717
      vertex 20.4944 38.2326 11.5217
      vertex 20.4944 33.9 11.5217
    endloop
  endfacet
  facet normal 0 -1 -0
    outer loop
      vertex 20.2998 33.9 11.5717
      vertex 21.0198 33.9 13.1385
      vertex 20.6184 33.9 13.2415
    endloop
  endfacet
  facet normal -0.248686 0 0.968584
    outer loop
      vertex 20.2998 33.9 8.42834
      vertex 20.4944 33.9 8.47831
      vertex 20.4944 38.2326 8.47831
    endloop
  endfacet
  facet normal -0.248686 0 0.968584
    outer loop
      vertex 20.2998 33.9 8.42834
      vertex 20.4944 38.2326 8.47831
      vertex 20.2998 38.2455 8.42834
    endloop
  endfacet
  facet normal 0 -1 0
    outer loop
      vertex 20.2998 33.9 8.42834
      vertex 20.6184 33.9 6.75845
      vertex 21.0198 33.9 6.86151
    endloop
  endfacet
  facet normal 0 -1 0
    outer loop
      vertex 20.2998 33.9 8.42834
      vertex 21.0198 33.9 6.86151
      vertex 20.4944 33.9 8.47831
    endloop
  endfacet
  facet normal -1.21576e-08 0.968588 -0.248672
    outer loop
      vertex 20.2998 38.2455 11.5717
      vertex 30 38.2545 11.6069
      vertex 20.4944 38.2326 11.5217
    endloop
  endfacet
  facet normal -1.21576e-08 0.968588 0.248672
    outer loop
      vertex 20.2998 38.2455 8.42834
      vertex 20.4944 38.2326 8.47831
      vertex 30 38.2545 8.39311
    endloop
  endfacet
  facet normal -0.368126 0 -0.929776
    outer loop
      vertex 20.4944 33.9 11.5217
      vertex 20.4944 38.2326 11.5217
      vertex 20.6812 38.2136 11.4477
    endloop
  endfacet
  facet normal 0 -1 0
    outer loop
      vertex 20.4944 33.9 11.5217
      vertex 20.6812 33.9 11.4477
      vertex 21.4051 33.9 12.9859
    endloop
  endfacet
  facet normal -0.368126 0 -0.929776
    outer loop
      vertex 20.4944 33.9 11.5217
      vertex 20.6812 38.2136 11.4477
      vertex 20.6812 33.9 11.4477
    endloop
  endfacet
  facet normal 0 -1 -0
    outer loop
      vertex 20.4944 33.9 11.5217
      vertex 21.4051 33.9 12.9859
      vertex 21.0198 33.9 13.1385
    endloop
  endfacet
  facet normal -0.368126 0 0.929776
    outer loop
      vertex 20.4944 33.9 8.47831
      vertex 20.6812 33.9 8.55228
      vertex 20.6812 38.2136 8.55228
    endloop
  endfacet
  facet normal -0.368126 0 0.929776
    outer loop
      vertex 20.4944 33.9 8.47831
      vertex 20.6812 38.2136 8.55228
      vertex 20.4944 38.2326 8.47831
    endloop
  endfacet
  facet normal 0 -1 0
    outer loop
      vertex 20.4944 33.9 8.47831
      vertex 21.0198 33.9 6.86151
      vertex 21.4051 33.9 7.01407
    endloop
  endfacet
  facet normal 0 -1 0
    outer loop
      vertex 20.4944 33.9 8.47831
      vertex 21.4051 33.9 7.01407
      vertex 20.6812 33.9 8.55228
    endloop
  endfacet
  facet normal 3.38976e-07 0.968578 -0.248709
    outer loop
      vertex 20.4944 38.2326 11.5217
      vertex 30 38.2545 11.6069
      vertex 20.6812 38.2136 11.4477
    endloop
  endfacet
  facet normal 3.38976e-07 0.968578 0.248709
    outer loop
      vertex 20.4944 38.2326 8.47831
      vertex 20.6812 38.2136 8.55228
      vertex 30 38.2545 8.39311
    endloop
  endfacet
  facet normal -0.24869 0 -0.968583
    outer loop
      vertex 20.6184 30.9 13.2415
      vertex 20.6184 33.9 13.2415
      vertex 21.0198 33.9 13.1385
    endloop
  endfacet
  facet normal 0 -1 0
    outer loop
      vertex 20.6184 30.9 13.2415
      vertex 21.0198 30.9 13.1385
      vertex 30 30.9 20
    endloop
  endfacet
  facet normal -0.24869 0 -0.968583
    outer loop
      vertex 20.6184 30.9 13.2415
      vertex 21.0198 33.9 13.1385
      vertex 21.0198 30.9 13.1385
    endloop
  endfacet
  facet normal -0.24869 0 0.968583
    outer loop
      vertex 20.6184 30.9 6.75845
      vertex 21.0198 30.9 6.86151
      vertex 20.6184 33.9 6.75845
    endloop
  endfacet
  facet normal 0 -1 0
    outer loop
      vertex 20.6184 30.9 6.75845
      vertex 30 30.9 0
      vertex 21.0198 30.9 6.86151
    endloop
  endfacet
  facet normal -0.24869 0 0.968583
    outer loop
      vertex 20.6184 33.9 6.75845
      vertex 21.0198 30.9 6.86151
      vertex 21.0198 33.9 6.86151
    endloop
  endfacet
  facet normal -0.481753 0 -0.876307
    outer loop
      vertex 20.6812 33.9 11.4477
      vertex 20.6812 38.2136 11.4477
      vertex 20.8573 38.1888 11.3509
    endloop
  endfacet
  facet normal 0 -1 0
    outer loop
      vertex 20.6812 33.9 11.4477
      vertex 20.8573 33.9 11.3509
      vertex 21.7682 33.9 12.7863
    endloop
  endfacet
  facet normal -0.481753 0 -0.876307
    outer loop
      vertex 20.6812 33.9 11.4477
      vertex 20.8573 38.1888 11.3509
      vertex 20.8573 33.9 11.3509
    endloop
  endfacet
  facet normal 0 -1 -0
    outer loop
      vertex 20.6812 33.9 11.4477
      vertex 21.7682 33.9 12.7863
      vertex 21.4051 33.9 12.9859
    endloop
  endfacet
  facet normal -0.481753 0 0.876307
    outer loop
      vertex 20.6812 33.9 8.55228
      vertex 20.8573 33.9 8.64907
      vertex 20.8573 38.1888 8.64907
    endloop
  endfacet
  facet normal -0.481753 0 0.876307
    outer loop
      vertex 20.6812 33.9 8.55228
      vertex 20.8573 38.1888 8.64907
      vertex 20.6812 38.2136 8.55228
    endloop
  endfacet
  facet normal 0 -1 0
    outer loop
      vertex 20.6812 33.9 8.55228
      vertex 21.4051 33.9 7.01407
      vertex 21.7682 33.9 7.21372
    endloop
  endfacet
  facet normal 0 -1 0
    outer loop
      vertex 20.6812 33.9 8.55228
      vertex 21.7682 33.9 7.21372
      vertex 20.8573 33.9 8.64907
    endloop
  endfacet
  facet normal -1.34668e-07 0.968585 -0.248683
    outer loop
      vertex 20.6812 38.2136 11.4477
      vertex 30 38.2545 11.6069
      vertex 20.8573 38.1888 11.3509
    endloop
  endfacet
  facet normal -1.34668e-07 0.968585 0.248683
    outer loop
      vertex 20.6812 38.2136 8.55228
      vertex 20.8573 38.1888 8.64907
      vertex 30 38.2545 8.39311
    endloop
  endfacet
  facet normal -0.587786 0 -0.809016
    outer loop
      vertex 20.8573 33.9 11.3509
      vertex 20.8573 38.1888 11.3509
      vertex 21.0199 38.1585 11.2328
    endloop
  endfacet
  facet normal 0 -1 0
    outer loop
      vertex 20.8573 33.9 11.3509
      vertex 21.0199 33.9 11.2328
      vertex 22.1035 33.9 12.5427
    endloop
  endfacet
  facet normal -0.587786 0 -0.809016
    outer loop
      vertex 20.8573 33.9 11.3509
      vertex 21.0199 38.1585 11.2328
      vertex 21.0199 33.9 11.2328
    endloop
  endfacet
  facet normal 0 -1 -0
    outer loop
      vertex 20.8573 33.9 11.3509
      vertex 22.1035 33.9 12.5427
      vertex 21.7682 33.9 12.7863
    endloop
  endfacet
  facet normal -0.587786 0 0.809016
    outer loop
      vertex 20.8573 33.9 8.64907
      vertex 21.0199 33.9 8.76718
      vertex 21.0199 38.1585 8.76718
    endloop
  endfacet
  facet normal -0.587786 0 0.809016
    outer loop
      vertex 20.8573 33.9 8.64907
      vertex 21.0199 38.1585 8.76718
      vertex 20.8573 38.1888 8.64907
    endloop
  endfacet
  facet normal 0 -1 0
    outer loop
      vertex 20.8573 33.9 8.64907
      vertex 21.7682 33.9 7.21372
      vertex 22.1035 33.9 7.45731
    endloop
  endfacet
  facet normal 0 -1 0
    outer loop
      vertex 20.8573 33.9 8.64907
      vertex 22.1035 33.9 7.45731
      vertex 21.0199 33.9 8.76718
    endloop
  endfacet
  facet normal -1.41385e-07 0.968585 -0.248683
    outer loop
      vertex 20.8573 38.1888 11.3509
      vertex 30 38.2545 11.6069
      vertex 21.0199 38.1585 11.2328
    endloop
  endfacet
  facet normal -1.41385e-07 0.968585 0.248683
    outer loop
      vertex 20.8573 38.1888 8.64907
      vertex 21.0199 38.1585 8.76718
      vertex 30 38.2545 8.39311
    endloop
  endfacet
  facet normal -0.368125 0 -0.929776
    outer loop
      vertex 21.0198 30.9 13.1385
      vertex 21.0198 33.9 13.1385
      vertex 21.4051 33.9 12.9859
    endloop
  endfacet
  facet normal 0 -1 0
    outer loop
      vertex 21.0198 30.9 13.1385
      vertex 21.4051 30.9 12.9859
      vertex 30 30.9 20
    endloop
  endfacet
  facet normal -0.368125 0 -0.929776
    outer loop
      vertex 21.0198 30.9 13.1385
      vertex 21.4051 33.9 12.9859
      vertex 21.4051 30.9 12.9859
    endloop
  endfacet
  facet normal -0.368125 0 0.929776
    outer loop
      vertex 21.0198 30.9 6.86151
      vertex 21.4051 30.9 7.01407
      vertex 21.0198 33.9 6.86151
    endloop
  endfacet
  facet normal 0 -1 0
    outer loop
      vertex 21.0198 30.9 6.86151
      vertex 30 30.9 0
      vertex 21.4051 30.9 7.01407
    endloop
  endfacet
  facet normal -0.368125 0 0.929776
    outer loop
      vertex 21.0198 33.9 6.86151
      vertex 21.4051 30.9 7.01407
      vertex 21.4051 33.9 7.01407
    endloop
  endfacet
  facet normal -0.684547 0 -0.728968
    outer loop
      vertex 21.0199 33.9 11.2328
      vertex 21.0199 38.1585 11.2328
      vertex 21.1663 38.1231 11.0953
    endloop
  endfacet
  facet normal 0 -1 0
    outer loop
      vertex 21.0199 33.9 11.2328
      vertex 21.1663 33.9 11.0953
      vertex 22.4056 33.9 12.259
    endloop
  endfacet
  facet normal -0.684547 0 -0.728968
    outer loop
      vertex 21.0199 33.9 11.2328
      vertex 21.1663 38.1231 11.0953
      vertex 21.1663 33.9 11.0953
    endloop
  endfacet
  facet normal 0 -1 -0
    outer loop
      vertex 21.0199 33.9 11.2328
      vertex 22.4056 33.9 12.259
      vertex 22.1035 33.9 12.5427
    endloop
  endfacet
  facet normal -0.684547 0 0.728968
    outer loop
      vertex 21.0199 33.9 8.76718
      vertex 21.1663 33.9 8.90472
      vertex 21.1663 38.1231 8.90472
    endloop
  endfacet
  facet normal -0.684547 0 0.728968
    outer loop
      vertex 21.0199 33.9 8.76718
      vertex 21.1663 38.1231 8.90472
      vertex 21.0199 38.1585 8.76718
    endloop
  endfacet
  facet normal 0 -1 0
    outer loop
      vertex 21.0199 33.9 8.76718
      vertex 22.1035 33.9 7.45731
      vertex 22.4056 33.9 7.74099
    endloop
  endfacet
  facet normal 0 -1 0
    outer loop
      vertex 21.0199 33.9 8.76718
      vertex 22.4056 33.9 7.74099
      vertex 21.1663 33.9 8.90472
    endloop
  endfacet
  facet normal 3.72113e-07 0.968582 -0.248695
    outer loop
      vertex 21.0199 38.1585 11.2328
      vertex 30 38.2545 11.6069
      vertex 21.1663 38.1231 11.0953
    endloop
  endfacet
  facet normal 3.72113e-07 0.968582 0.248695
    outer loop
      vertex 21.0199 38.1585 8.76718
      vertex 21.1663 38.1231 8.90472
      vertex 30 38.2545 8.39311
    endloop
  endfacet
  facet normal -0.770511 0 -0.637427
    outer loop
      vertex 21.1663 33.9 11.0953
      vertex 21.1663 38.1231 11.0953
      vertex 21.2664 38.0921 10.9744
    endloop
  endfacet
  facet normal -0.770528 1.00627e-06 -0.637406
    outer loop
      vertex 21.1663 33.9 11.0953
      vertex 21.2664 38.0921 10.9744
      vertex 21.2944 38.0878 10.9405
    endloop
  endfacet
  facet normal 0 -1 0
    outer loop
      vertex 21.1663 33.9 11.0953
      vertex 21.2944 33.9 10.9405
      vertex 22.6698 33.9 11.9397
    endloop
  endfacet
  facet normal -0.770514 0 -0.637423
    outer loop
      vertex 21.1663 33.9 11.0953
      vertex 21.2944 38.0878 10.9405
      vertex 21.2944 33.9 10.9405
    endloop
  endfacet
  facet normal 0 -1 -0
    outer loop
      vertex 21.1663 33.9 11.0953
      vertex 22.6698 33.9 11.9397
      vertex 22.4056 33.9 12.259
    endloop
  endfacet
  facet normal -0.770511 0 0.637427
    outer loop
      vertex 21.1663 33.9 8.90472
      vertex 21.2664 38.0921 9.02562
      vertex 21.1663 38.1231 8.90472
    endloop
  endfacet
  facet normal -0.770514 0 0.637423
    outer loop
      vertex 21.1663 33.9 8.90472
      vertex 21.2944 33.9 9.05954
      vertex 21.2944 38.0878 9.05954
    endloop
  endfacet
  facet normal -0.770528 1.00627e-06 0.637406
    outer loop
      vertex 21.1663 33.9 8.90472
      vertex 21.2944 38.0878 9.05954
      vertex 21.2664 38.0921 9.02562
    endloop
  endfacet
  facet normal 0 -1 0
    outer loop
      vertex 21.1663 33.9 8.90472
      vertex 22.4056 33.9 7.74099
      vertex 22.6698 33.9 8.06031
    endloop
  endfacet
  facet normal 0 -1 0
    outer loop
      vertex 21.1663 33.9 8.90472
      vertex 22.6698 33.9 8.06031
      vertex 21.2944 33.9 9.05954
    endloop
  endfacet
  facet normal 1.98148e-07 0.968583 -0.248692
    outer loop
      vertex 21.1663 38.1231 11.0953
      vertex 30 38.2545 11.6069
      vertex 21.2664 38.0921 10.9744
    endloop
  endfacet
  facet normal 1.98148e-07 0.968583 0.248692
    outer loop
      vertex 21.1663 38.1231 8.90472
      vertex 21.2664 38.0921 9.02562
      vertex 30 38.2545 8.39311
    endloop
  endfacet
  facet normal 0 0.992108 -0.125387
    outer loop
      vertex 21.2664 38.0921 10.9744
      vertex 30 38.0921 10.9744
      vertex 21.2944 38.0878 10.9405
    endloop
  endfacet
  facet normal 0 0.968583 -0.248689
    outer loop
      vertex 21.2664 38.0921 10.9744
      vertex 30 38.2545 11.6069
      vertex 30 38.0921 10.9744
    endloop
  endfacet
  facet normal 0 0.992108 0.125387
    outer loop
      vertex 21.2664 38.0921 9.02562
      vertex 21.2944 38.0878 9.05954
      vertex 30 38.0921 9.02562
    endloop
  endfacet
  facet normal 0 0.968583 0.248689
    outer loop
      vertex 21.2664 38.0921 9.02562
      vertex 30 38.0921 9.02562
      vertex 30 38.2545 8.39311
    endloop
  endfacet
  facet normal -0.844327 0 -0.535828
    outer loop
      vertex 21.2944 33.9 10.9405
      vertex 21.2944 38.0878 10.9405
      vertex 21.4021 38.0664 10.7708
    endloop
  endfacet
  facet normal 0 -1 0
    outer loop
      vertex 21.2944 33.9 10.9405
      vertex 21.4021 33.9 10.7708
      vertex 22.8918 33.9 11.5898
    endloop
  endfacet
  facet normal -0.844327 0 -0.535828
    outer loop
      vertex 21.2944 33.9 10.9405
      vertex 21.4021 38.0664 10.7708
      vertex 21.4021 33.9 10.7708
    endloop
  endfacet
  facet normal 0 -1 -0
    outer loop
      vertex 21.2944 33.9 10.9405
      vertex 22.8918 33.9 11.5898
      vertex 22.6698 33.9 11.9397
    endloop
  endfacet
  facet normal -0.844327 0 0.535828
    outer loop
      vertex 21.2944 33.9 9.05954
      vertex 21.4021 33.9 9.22919
      vertex 21.4021 38.0664 9.22919
    endloop
  endfacet
  facet normal -0.844327 0 0.535828
    outer loop
      vertex 21.2944 33.9 9.05954
      vertex 21.4021 38.0664 9.22919
      vertex 21.2944 38.0878 9.05954
    endloop
  endfacet
  facet normal 0 -1 0
    outer loop
      vertex 21.2944 33.9 9.05954
      vertex 22.6698 33.9 8.06031
      vertex 22.8918 33.9 8.41021
    endloop
  endfacet
  facet normal 0 -1 0
    outer loop
      vertex 21.2944 33.9 9.05954
      vertex 22.8918 33.9 8.41021
      vertex 21.4021 33.9 9.22919
    endloop
  endfacet
  facet normal -2.33725e-07 0.992115 -0.125328
    outer loop
      vertex 21.2944 38.0878 10.9405
      vertex 30 38.0921 10.9744
      vertex 21.4021 38.0664 10.7708
    endloop
  endfacet
  facet normal -2.33725e-07 0.992115 0.125328
    outer loop
      vertex 21.2944 38.0878 9.05954
      vertex 21.4021 38.0664 9.22919
      vertex 30 38.0921 9.02562
    endloop
  endfacet
  facet normal -0.904826 0 -0.425781
    outer loop
      vertex 21.4021 33.9 10.7708
      vertex 21.4021 38.0664 10.7708
      vertex 21.4876 38.0434 10.589
    endloop
  endfacet
  facet normal 0 -1 0
    outer loop
      vertex 21.4021 33.9 10.7708
      vertex 21.4876 33.9 10.589
      vertex 23.0683 33.9 11.2148
    endloop
  endfacet
  facet normal -0.904826 0 -0.425781
    outer loop
      vertex 21.4021 33.9 10.7708
      vertex 21.4876 38.0434 10.589
      vertex 21.4876 33.9 10.589
    endloop
  endfacet
  facet normal 0 -1 -0
    outer loop
      vertex 21.4021 33.9 10.7708
      vertex 23.0683 33.9 11.2148
      vertex 22.8918 33.9 11.5898
    endloop
  endfacet
  facet normal -0.904826 0 0.425781
    outer loop
      vertex 21.4021 33.9 9.22919
      vertex 21.4876 33.9 9.411
      vertex 21.4876 38.0434 9.411
    endloop
  endfacet
  facet normal -0.904826 0 0.425781
    outer loop
      vertex 21.4021 33.9 9.22919
      vertex 21.4876 38.0434 9.411
      vertex 21.4021 38.0664 9.22919
    endloop
  endfacet
  facet normal 0 -1 0
    outer loop
      vertex 21.4021 33.9 9.22919
      vertex 22.8918 33.9 8.41021
      vertex 23.0683 33.9 8.78519
    endloop
  endfacet
  facet normal 0 -1 0
    outer loop
      vertex 21.4021 33.9 9.22919
      vertex 23.0683 33.9 8.78519
      vertex 21.4876 33.9 9.411
    endloop
  endfacet
  facet normal -5.96002e-09 0.992114 -0.125337
    outer loop
      vertex 21.4021 38.0664 10.7708
      vertex 30 38.0921 10.9744
      vertex 21.4876 38.0434 10.589
    endloop
  endfacet
  facet normal -5.96002e-09 0.992114 0.125337
    outer loop
      vertex 21.4021 38.0664 9.22919
      vertex 21.4876 38.0434 9.411
      vertex 30 38.0921 9.02562
    endloop
  endfacet
  facet normal -0.481755 0 -0.876306
    outer loop
      vertex 21.4051 30.9 12.9859
      vertex 21.4051 33.9 12.9859
      vertex 21.7682 33.9 12.7863
    endloop
  endfacet
  facet normal 0 -1 0
    outer loop
      vertex 21.4051 30.9 12.9859
      vertex 21.7682 30.9 12.7863
      vertex 30 30.9 20
    endloop
  endfacet
  facet normal -0.481755 0 -0.876306
    outer loop
      vertex 21.4051 30.9 12.9859
      vertex 21.7682 33.9 12.7863
      vertex 21.7682 30.9 12.7863
    endloop
  endfacet
  facet normal -0.481755 0 0.876306
    outer loop
      vertex 21.4051 30.9 7.01407
      vertex 21.7682 30.9 7.21372
      vertex 21.4051 33.9 7.01407
    endloop
  endfacet
  facet normal 0 -1 0
    outer loop
      vertex 21.4051 30.9 7.01407
      vertex 30 30.9 0
      vertex 21.7682 30.9 7.21372
    endloop
  endfacet
  facet normal -0.481755 0 0.876306
    outer loop
      vertex 21.4051 33.9 7.01407
      vertex 21.7682 30.9 7.21372
      vertex 21.7682 33.9 7.21372
    endloop
  endfacet
  facet normal -0.951058 0 -0.309014
    outer loop
      vertex 21.4876 33.9 10.589
      vertex 21.4876 38.0434 10.589
      vertex 21.5497 38.0193 10.3979
    endloop
  endfacet
  facet normal 0 -1 0
    outer loop
      vertex 21.4876 33.9 10.589
      vertex 21.5497 33.9 10.3979
      vertex 23.1963 33.9 10.8207
    endloop
  endfacet
  facet normal -0.951058 0 -0.309014
    outer loop
      vertex 21.4876 33.9 10.589
      vertex 21.5497 38.0193 10.3979
      vertex 21.5497 33.9 10.3979
    endloop
  endfacet
  facet normal 0 -1 -0
    outer loop
      vertex 21.4876 33.9 10.589
      vertex 23.1963 33.9 10.8207
      vertex 23.0683 33.9 11.2148
    endloop
  endfacet
  facet normal -0.951058 0 0.309014
    outer loop
      vertex 21.4876 33.9 9.411
      vertex 21.5497 33.9 9.6021
      vertex 21.5497 38.0193 9.6021
    endloop
  endfacet
  facet normal -0.951058 0 0.309014
    outer loop
      vertex 21.4876 33.9 9.411
      vertex 21.5497 38.0193 9.6021
      vertex 21.4876 38.0434 9.411
    endloop
  endfacet
  facet normal 0 -1 0
    outer loop
      vertex 21.4876 33.9 9.411
      vertex 23.0683 33.9 8.78519
      vertex 23.1963 33.9 9.17932
    endloop
  endfacet
  facet normal 0 -1 0
    outer loop
      vertex 21.4876 33.9 9.411
      vertex 23.1963 33.9 9.17932
      vertex 21.5497 33.9 9.6021
    endloop
  endfacet
  facet normal -5.56071e-07 0.992116 -0.125325
    outer loop
      vertex 21.4876 38.0434 10.589
      vertex 30 38.0921 10.9744
      vertex 21.5497 38.0193 10.3979
    endloop
  endfacet
  facet normal -5.56071e-07 0.992116 0.125325
    outer loop
      vertex 21.4876 38.0434 9.411
      vertex 21.5497 38.0193 9.6021
      vertex 30 38.0921 9.02562
    endloop
  endfacet
  facet normal -0.982288 0 -0.187375
    outer loop
      vertex 21.5497 33.9 10.3979
      vertex 21.5497 38.0193 10.3979
      vertex 21.5634 38.0103 10.3265
    endloop
  endfacet
  facet normal -0.982287 -1.67434e-07 -0.187384
    outer loop
      vertex 21.5497 33.9 10.3979
      vertex 21.5634 38.0103 10.3265
      vertex 21.5874 33.9 10.2005
    endloop
  endfacet
  facet normal 0 -1 0
    outer loop
      vertex 21.5497 33.9 10.3979
      vertex 21.5874 33.9 10.2005
      vertex 23.274 33.9 10.4136
    endloop
  endfacet
  facet normal 0 -1 -0
    outer loop
      vertex 21.5497 33.9 10.3979
      vertex 23.274 33.9 10.4136
      vertex 23.1963 33.9 10.8207
    endloop
  endfacet
  facet normal -0.982288 0 0.187375
    outer loop
      vertex 21.5497 33.9 9.6021
      vertex 21.5634 38.0103 9.67349
      vertex 21.5497 38.0193 9.6021
    endloop
  endfacet
  facet normal -0.982287 -1.67434e-07 0.187384
    outer loop
      vertex 21.5497 33.9 9.6021
      vertex 21.5874 33.9 9.79947
      vertex 21.5634 38.0103 9.67349
    endloop
  endfacet
  facet normal 0 -1 0
    outer loop
      vertex 21.5497 33.9 9.6021
      vertex 23.1963 33.9 9.17932
      vertex 23.274 33.9 9.5864
    endloop
  endfacet
  facet normal 0 -1 0
    outer loop
      vertex 21.5497 33.9 9.6021
      vertex 23.274 33.9 9.5864
      vertex 21.5874 33.9 9.79947
    endloop
  endfacet
  facet normal -1.03885e-06 0.992117 -0.125319
    outer loop
      vertex 21.5497 38.0193 10.3979
      vertex 30 38.0921 10.9744
      vertex 21.5634 38.0103 10.3265
    endloop
  endfacet
  facet normal -1.03885e-06 0.992117 0.125319
    outer loop
      vertex 21.5497 38.0193 9.6021
      vertex 21.5634 38.0103 9.67349
      vertex 30 38.0921 9.02562
    endloop
  endfacet
  facet normal -0.982286 -0 -0.18739
    outer loop
      vertex 21.5634 38.0103 10.3265
      vertex 21.5874 38.0103 10.2005
      vertex 21.5874 33.9 10.2005
    endloop
  endfacet
  facet normal 0 1 0
    outer loop
      vertex 21.5634 38.0103 10.3265
      vertex 30 38.0103 10.3265
      vertex 21.5874 38.0103 10.2005
    endloop
  endfacet
  facet normal 0 0.992115 -0.125332
    outer loop
      vertex 21.5634 38.0103 10.3265
      vertex 30 38.0921 10.9744
      vertex 30 38.0103 10.3265
    endloop
  endfacet
  facet normal -0.982286 0 0.18739
    outer loop
      vertex 21.5634 38.0103 9.67349
      vertex 21.5874 33.9 9.79947
      vertex 21.5874 38.0103 9.79947
    endloop
  endfacet
  facet normal 0 1 0
    outer loop
      vertex 21.5634 38.0103 9.67349
      vertex 21.5874 38.0103 9.79947
      vertex 30 38.0103 9.67349
    endloop
  endfacet
  facet normal 0 0.992115 0.125332
    outer loop
      vertex 21.5634 38.0103 9.67349
      vertex 30 38.0103 9.67349
      vertex 30 38.0921 9.02562
    endloop
  endfacet
  facet normal -0.998027 -0 -0.0627931
    outer loop
      vertex 21.5874 33.9 10.2005
      vertex 21.5874 38.0103 10.2005
      vertex 21.5914 33.9 10.136
    endloop
  endfacet
  facet normal 0 -1 0
    outer loop
      vertex 21.5874 33.9 10.2005
      vertex 21.5914 33.9 10.136
      vertex 23.274 33.9 10.4136
    endloop
  endfacet
  facet normal -0.998027 -3.56971e-07 0.0627941
    outer loop
      vertex 21.5874 33.9 9.79947
      vertex 21.5959 33.9 9.93543
      vertex 21.597 38.0103 9.95191
    endloop
  endfacet
  facet normal -0.998027 0 0.0627845
    outer loop
      vertex 21.5874 33.9 9.79947
      vertex 21.597 38.0103 9.95191
      vertex 21.5874 38.0103 9.79947
    endloop
  endfacet
  facet normal 0 -1 0
    outer loop
      vertex 21.5874 33.9 9.79947
      vertex 23.274 33.9 9.5864
      vertex 21.5959 33.9 9.93543
    endloop
  endfacet
  facet normal -0.998027 -1.47895e-07 -0.0627837
    outer loop
      vertex 21.5874 38.0103 10.2005
      vertex 21.5904 38.0103 10.1524
      vertex 21.5914 33.9 10.136
    endloop
  endfacet
  facet normal 0 1 0
    outer loop
      vertex 21.5874 38.0103 10.2005
      vertex 30 38.0103 10.3265
      vertex 21.5904 38.0103 10.1524
    endloop
  endfacet
  facet normal 0 1 0
    outer loop
      vertex 21.5874 38.0103 9.79947
      vertex 21.597 38.0103 9.95191
      vertex 30 38.0103 9.67349
    endloop
  endfacet
  facet normal -0.998027 -1.64076e-07 -0.0627797
    outer loop
      vertex 21.5904 38.0103 10.1524
      vertex 21.6 33.9 10
      vertex 21.5914 33.9 10.136
    endloop
  endfacet
  facet normal -0.998027 0 -0.0627841
    outer loop
      vertex 21.5904 38.0103 10.1524
      vertex 21.6 38.0103 10
      vertex 21.6 33.9 10
    endloop
  endfacet
  facet normal 0 1 0
    outer loop
      vertex 21.5904 38.0103 10.1524
      vertex 30 38.0103 10.3265
      vertex 21.6 38.0103 10
    endloop
  endfacet
  facet normal 0 -1 0
    outer loop
      vertex 21.5914 33.9 10.136
      vertex 21.6 33.9 10
      vertex 23.3 33.9 10
    endloop
  endfacet
  facet normal 0 -1 0
    outer loop
      vertex 21.5914 33.9 10.136
      vertex 23.3 33.9 10
      vertex 23.274 33.9 10.4136
    endloop
  endfacet
  facet normal -0.998028 0 0.0627637
    outer loop
      vertex 21.5959 33.9 9.93543
      vertex 21.6 33.9 10
      vertex 21.6 38.0103 10
    endloop
  endfacet
  facet normal -0.998027 -3.15235e-07 0.0627837
    outer loop
      vertex 21.5959 33.9 9.93543
      vertex 21.6 38.0103 10
      vertex 21.597 38.0103 9.95191
    endloop
  endfacet
  facet normal 0 -1 0
    outer loop
      vertex 21.5959 33.9 9.93543
      vertex 23.274 33.9 9.5864
      vertex 23.3 33.9 10
    endloop
  endfacet
  facet normal 0 -1 0
    outer loop
      vertex 21.5959 33.9 9.93543
      vertex 23.3 33.9 10
      vertex 21.6 33.9 10
    endloop
  endfacet
  facet normal 0 1 0
    outer loop
      vertex 21.597 38.0103 9.95191
      vertex 21.6 38.0103 10
      vertex 30 38.0103 9.67349
    endloop
  endfacet
  facet normal 0 1 -0
    outer loop
      vertex 21.6 38.0103 10
      vertex 30 38.0103 10.3265
      vertex 30 38.0103 9.67349
    endloop
  endfacet
  facet normal -0.587784 0 -0.809018
    outer loop
      vertex 21.7682 30.9 12.7863
      vertex 21.7682 33.9 12.7863
      vertex 22.1035 33.9 12.5427
    endloop
  endfacet
  facet normal 0 -1 0
    outer loop
      vertex 21.7682 30.9 12.7863
      vertex 22.1035 30.9 12.5427
      vertex 30 30.9 20
    endloop
  endfacet
  facet normal -0.587784 0 -0.809018
    outer loop
      vertex 21.7682 30.9 12.7863
      vertex 22.1035 33.9 12.5427
      vertex 22.1035 30.9 12.5427
    endloop
  endfacet
  facet normal -0.587784 0 0.809018
    outer loop
      vertex 21.7682 30.9 7.21372
      vertex 22.1035 30.9 7.45731
      vertex 21.7682 33.9 7.21372
    endloop
  endfacet
  facet normal 0 -1 0
    outer loop
      vertex 21.7682 30.9 7.21372
      vertex 30 30.9 0
      vertex 22.1035 30.9 7.45731
    endloop
  endfacet
  facet normal -0.587784 0 0.809018
    outer loop
      vertex 21.7682 33.9 7.21372
      vertex 22.1035 30.9 7.45731
      vertex 22.1035 33.9 7.45731
    endloop
  endfacet
  facet normal -0.684547 0 -0.728968
    outer loop
      vertex 22.1035 30.9 12.5427
      vertex 22.1035 33.9 12.5427
      vertex 22.4056 33.9 12.259
    endloop
  endfacet
  facet normal 0 -1 0
    outer loop
      vertex 22.1035 30.9 12.5427
      vertex 22.4056 30.9 12.259
      vertex 30 30.9 20
    endloop
  endfacet
  facet normal -0.684547 0 -0.728968
    outer loop
      vertex 22.1035 30.9 12.5427
      vertex 22.4056 33.9 12.259
      vertex 22.4056 30.9 12.259
    endloop
  endfacet
  facet normal -0.684547 0 0.728968
    outer loop
      vertex 22.1035 30.9 7.45731
      vertex 22.4056 30.9 7.74099
      vertex 22.1035 33.9 7.45731
    endloop
  endfacet
  facet normal 0 -1 0
    outer loop
      vertex 22.1035 30.9 7.45731
      vertex 30 30.9 0
      vertex 22.4056 30.9 7.74099
    endloop
  endfacet
  facet normal -0.684547 0 0.728968
    outer loop
      vertex 22.1035 33.9 7.45731
      vertex 22.4056 30.9 7.74099
      vertex 22.4056 33.9 7.74099
    endloop
  endfacet
  facet normal -0.770512 -0 -0.637425
    outer loop
      vertex 22.4056 30.9 12.259
      vertex 22.4056 33.9 12.259
      vertex 22.6698 30.9 11.9397
    endloop
  endfacet
  facet normal 0 -1 0
    outer loop
      vertex 22.4056 30.9 12.259
      vertex 22.6698 30.9 11.9397
      vertex 30 30.9 20
    endloop
  endfacet
  facet normal -0.770512 0 0.637425
    outer loop
      vertex 22.4056 30.9 7.74099
      vertex 22.6698 30.9 8.06031
      vertex 22.6698 33.9 8.06031
    endloop
  endfacet
  facet normal -0.770512 0 0.637425
    outer loop
      vertex 22.4056 30.9 7.74099
      vertex 22.6698 33.9 8.06031
      vertex 22.4056 33.9 7.74099
    endloop
  endfacet
  facet normal 0 -1 0
    outer loop
      vertex 22.4056 30.9 7.74099
      vertex 30 30.9 0
      vertex 22.6698 30.9 8.06031
    endloop
  endfacet
  facet normal -0.770512 0 -0.637425
    outer loop
      vertex 22.4056 33.9 12.259
      vertex 22.6698 33.9 11.9397
      vertex 22.6698 30.9 11.9397
    endloop
  endfacet
  facet normal -0.844328 -0 -0.535826
    outer loop
      vertex 22.6698 30.9 11.9397
      vertex 22.6698 33.9 11.9397
      vertex 22.8918 30.9 11.5898
    endloop
  endfacet
  facet normal 0 -1 0
    outer loop
      vertex 22.6698 30.9 11.9397
      vertex 22.8918 30.9 11.5898
      vertex 30 30.9 20
    endloop
  endfacet
  facet normal -0.844328 0 0.535826
    outer loop
      vertex 22.6698 30.9 8.06031
      vertex 22.8918 30.9 8.41021
      vertex 22.8918 33.9 8.41021
    endloop
  endfacet
  facet normal -0.844328 0 0.535826
    outer loop
      vertex 22.6698 30.9 8.06031
      vertex 22.8918 33.9 8.41021
      vertex 22.6698 33.9 8.06031
    endloop
  endfacet
  facet normal 0 -1 0
    outer loop
      vertex 22.6698 30.9 8.06031
      vertex 30 30.9 0
      vertex 22.8918 30.9 8.41021
    endloop
  endfacet
  facet normal -0.844328 0 -0.535826
    outer loop
      vertex 22.6698 33.9 11.9397
      vertex 22.8918 33.9 11.5898
      vertex 22.8918 30.9 11.5898
    endloop
  endfacet
  facet normal -0.904827 -0 -0.42578
    outer loop
      vertex 22.8918 30.9 11.5898
      vertex 22.8918 33.9 11.5898
      vertex 23.0683 30.9 11.2148
    endloop
  endfacet
  facet normal 0 -1 0
    outer loop
      vertex 22.8918 30.9 11.5898
      vertex 23.0683 30.9 11.2148
      vertex 30 30.9 20
    endloop
  endfacet
  facet normal -0.904827 0 0.42578
    outer loop
      vertex 22.8918 30.9 8.41021
      vertex 23.0683 30.9 8.78519
      vertex 23.0683 33.9 8.78519
    endloop
  endfacet
  facet normal -0.904827 0 0.42578
    outer loop
      vertex 22.8918 30.9 8.41021
      vertex 23.0683 33.9 8.78519
      vertex 22.8918 33.9 8.41021
    endloop
  endfacet
  facet normal 0 -1 0
    outer loop
      vertex 22.8918 30.9 8.41021
      vertex 30 30.9 0
      vertex 23.0683 30.9 8.78519
    endloop
  endfacet
  facet normal -0.904827 0 -0.42578
    outer loop
      vertex 22.8918 33.9 11.5898
      vertex 23.0683 33.9 11.2148
      vertex 23.0683 30.9 11.2148
    endloop
  endfacet
  facet normal -0.951057 -0 -0.309015
    outer loop
      vertex 23.0683 30.9 11.2148
      vertex 23.0683 33.9 11.2148
      vertex 23.1963 30.9 10.8207
    endloop
  endfacet
  facet normal 0 -1 0
    outer loop
      vertex 23.0683 30.9 11.2148
      vertex 23.1963 30.9 10.8207
      vertex 30 30.9 20
    endloop
  endfacet
  facet normal -0.951057 0 0.309015
    outer loop
      vertex 23.0683 30.9 8.78519
      vertex 23.1963 30.9 9.17932
      vertex 23.1963 33.9 9.17932
    endloop
  endfacet
  facet normal -0.951057 0 0.309015
    outer loop
      vertex 23.0683 30.9 8.78519
      vertex 23.1963 33.9 9.17932
      vertex 23.0683 33.9 8.78519
    endloop
  endfacet
  facet normal 0 -1 0
    outer loop
      vertex 23.0683 30.9 8.78519
      vertex 30 30.9 0
      vertex 23.1963 30.9 9.17932
    endloop
  endfacet
  facet normal -0.951057 0 -0.309015
    outer loop
      vertex 23.0683 33.9 11.2148
      vertex 23.1963 33.9 10.8207
      vertex 23.1963 30.9 10.8207
    endloop
  endfacet
  facet normal -0.982286 -0 -0.187385
    outer loop
      vertex 23.1963 30.9 10.8207
      vertex 23.1963 33.9 10.8207
      vertex 23.274 30.9 10.4136
    endloop
  endfacet
  facet normal 0 -1 0
    outer loop
      vertex 23.1963 30.9 10.8207
      vertex 23.274 30.9 10.4136
      vertex 30 30.9 20
    endloop
  endfacet
  facet normal -0.982286 0 0.187385
    outer loop
      vertex 23.1963 30.9 9.17932
      vertex 23.274 30.9 9.5864
      vertex 23.274 33.9 9.5864
    endloop
  endfacet
  facet normal -0.982286 0 0.187385
    outer loop
      vertex 23.1963 30.9 9.17932
      vertex 23.274 33.9 9.5864
      vertex 23.1963 33.9 9.17932
    endloop
  endfacet
  facet normal 0 -1 0
    outer loop
      vertex 23.1963 30.9 9.17932
      vertex 30 30.9 0
      vertex 23.274 30.9 9.5864
    endloop
  endfacet
  facet normal -0.982286 0 -0.187385
    outer loop
      vertex 23.1963 33.9 10.8207
      vertex 23.274 33.9 10.4136
      vertex 23.274 30.9 10.4136
    endloop
  endfacet
  facet normal -0.998027 -0 -0.062787
    outer loop
      vertex 23.274 30.9 10.4136
      vertex 23.274 33.9 10.4136
      vertex 23.3 30.9 10
    endloop
  endfacet
  facet normal 0 -1 0
    outer loop
      vertex 23.274 30.9 10.4136
      vertex 23.3 30.9 10
      vertex 30 30.9 20
    endloop
  endfacet
  facet normal -0.998027 0 0.0627872
    outer loop
      vertex 23.274 30.9 9.5864
      vertex 23.3 30.9 10
      vertex 23.3 33.9 10
    endloop
  endfacet
  facet normal -0.998027 0 0.0627872
    outer loop
      vertex 23.274 30.9 9.5864
      vertex 23.3 33.9 10
      vertex 23.274 33.9 9.5864
    endloop
  endfacet
  facet normal 0 -1 0
    outer loop
      vertex 23.274 30.9 9.5864
      vertex 30 30.9 0
      vertex 23.3 30.9 10
    endloop
  endfacet
  facet normal -0.998027 0 -0.062787
    outer loop
      vertex 23.274 33.9 10.4136
      vertex 23.3 33.9 10
      vertex 23.3 30.9 10
    endloop
  endfacet
  facet normal 0 -1 0
    outer loop
      vertex 23.3 30.9 10
      vertex 30 30.9 0
      vertex 30 30.9 20
    endloop
  endfacet
  facet normal 1 0 0
    outer loop
      vertex 30 30.9 0
      vertex 30 38.0103 9.67349
      vertex 30 30.9 20
    endloop
  endfacet
  facet normal 1 0 0
    outer loop
      vertex 30 30.9 0
      vertex 30 38.0921 9.02562
      vertex 30 38.0103 9.67349
    endloop
  endfacet
  facet normal 1 0 0
    outer loop
      vertex 30 30.9 0
      vertex 30 38.2545 8.39311
      vertex 30 38.0921 9.02562
    endloop
  endfacet
  facet normal 1 0 0
    outer loop
      vertex 30 30.9 0
      vertex 30 38.4949 7.78595
      vertex 30 38.2545 8.39311
    endloop
  endfacet
  facet normal 1 0 0
    outer loop
      vertex 30 30.9 0
      vertex 30 38.8095 7.2137
      vertex 30 38.4949 7.78595
    endloop
  endfacet
  facet normal 1 0 0
    outer loop
      vertex 30 30.9 0
      vertex 30 39.1933 6.6854
      vertex 30 38.8095 7.2137
    endloop
  endfacet
  facet normal 1 0 0
    outer loop
      vertex 30 30.9 0
      vertex 30 39.6404 6.20936
      vertex 30 39.1933 6.6854
    endloop
  endfacet
  facet normal 1 0 0
    outer loop
      vertex 30 30.9 0
      vertex 30 40.1435 5.79311
      vertex 30 39.6404 6.20936
    endloop
  endfacet
  facet normal 1 0 0
    outer loop
      vertex 30 30.9 0
      vertex 30 43.2 0
      vertex 30 40.1435 5.79311
    endloop
  endfacet
  facet normal 1 0 0
    outer loop
      vertex 30 30.9 20
      vertex 30 38.0103 10.3265
      vertex 30 38.0921 10.9744
    endloop
  endfacet
  facet normal 1 0 0
    outer loop
      vertex 30 30.9 20
      vertex 30 38.0103 9.67349
      vertex 30 38.0103 10.3265
    endloop
  endfacet
  facet normal 1 0 0
    outer loop
      vertex 30 30.9 20
      vertex 30 38.0921 10.9744
      vertex 30 38.2545 11.6069
    endloop
  endfacet
  facet normal 1 0 0
    outer loop
      vertex 30 30.9 20
      vertex 30 38.2545 11.6069
      vertex 30 38.4949 12.2141
    endloop
  endfacet
  facet normal 1 0 0
    outer loop
      vertex 30 30.9 20
      vertex 30 38.4949 12.2141
      vertex 30 38.8095 12.7863
    endloop
  endfacet
  facet normal 1 0 0
    outer loop
      vertex 30 30.9 20
      vertex 30 38.8095 12.7863
      vertex 30 39.1933 13.3146
    endloop
  endfacet
  facet normal 1 0 0
    outer loop
      vertex 30 30.9 20
      vertex 30 39.1933 13.3146
      vertex 30 39.6404 13.7906
    endloop
  endfacet
  facet normal 1 0 0
    outer loop
      vertex 30 30.9 20
      vertex 30 39.6404 13.7906
      vertex 30 40.1435 14.2069
    endloop
  endfacet
  facet normal 1 -0 0
    outer loop
      vertex 30 30.9 20
      vertex 30 40.1435 14.2069
      vertex 30 43.2 20
    endloop
  endfacet
  facet normal 1 0 0
    outer loop
      vertex 30 40.1435 14.2069
      vertex 30 40.6949 14.5568
      vertex 30 43.2 20
    endloop
  endfacet
  facet normal 1 0 0
    outer loop
      vertex 30 40.1435 5.79311
      vertex 30 43.2 0
      vertex 30 40.6949 5.4432
    endloop
  endfacet
  facet normal 1 0 0
    outer loop
      vertex 30 40.6949 14.5568
      vertex 30 41.2858 14.8348
      vertex 30 43.2 20
    endloop
  endfacet
  facet normal 1 0 0
    outer loop
      vertex 30 40.6949 5.4432
      vertex 30 43.2 0
      vertex 30 41.2858 5.16516
    endloop
  endfacet
  facet normal 1 0 0
    outer loop
      vertex 30 41.2858 14.8348
      vertex 30 41.9068 15.0366
      vertex 30 43.2 20
    endloop
  endfacet
  facet normal 1 0 0
    outer loop
      vertex 30 41.2858 5.16516
      vertex 30 43.2 0
      vertex 30 41.9068 4.96337
    endloop
  endfacet
  facet normal 1 0 0
    outer loop
      vertex 30 41.9068 15.0366
      vertex 30 42.5483 15.159
      vertex 30 43.2 20
    endloop
  endfacet
  facet normal 1 0 0
    outer loop
      vertex 30 41.9068 4.96337
      vertex 30 43.2 0
      vertex 30 42.5483 4.841
    endloop
  endfacet
  facet normal 1 0 0
    outer loop
      vertex 30 42.5483 15.159
      vertex 30 43.2 15.2
      vertex 30 43.2 20
    endloop
  endfacet
  facet normal 1 0 0
    outer loop
      vertex 30 42.5483 4.841
      vertex 30 43.2 0
      vertex 30 43.2 4.8
    endloop
  endfacet
endsolid model
