solid model
  facet normal -1 0 0
    outer loop
      vertex 10 35 0
      vertex 10 35 20
      vertex 10 38.0079 10.2512
    endloop
  endfacet
  facet normal -1 -0 0
    outer loop
      vertex 10 35 0
      vertex 10 38.0079 10.2512
      vertex 10 38.0079 9.74884
    endloop
  endfacet
  facet normal -1 -0 0
    outer loop
      vertex 10 35 0
      vertex 10 38.0079 9.74884
      vertex 10 38.0709 9.25047
    endloop
  endfacet
  facet normal -1 -0 0
    outer loop
      vertex 10 35 0
      vertex 10 38.0709 9.25047
      vertex 10 38.1958 8.76393
    endloop
  endfacet
  facet normal -1 -0 0
    outer loop
      vertex 10 35 0
      vertex 10 38.1958 8.76393
      vertex 10 38.3807 8.29688
    endloop
  endfacet
  facet normal -1 -0 0
    outer loop
      vertex 10 35 0
      vertex 10 38.3807 8.29688
      vertex 10 38.6227 7.85669
    endloop
  endfacet
  facet normal -1 -0 0
    outer loop
      vertex 10 35 0
      vertex 10 38.6227 7.85669
      vertex 10 38.9179 7.4503
    endloop
  endfacet
  facet normal -1 -0 0
    outer loop
      vertex 10 35 0
      vertex 10 38.9179 7.4503
      vertex 10 39.2618 7.08412
    endloop
  endfacet
  facet normal -1 -0 0
    outer loop
      vertex 10 35 0
      vertex 10 39.2618 7.08412
      vertex 10 39.6489 6.76393
    endloop
  endfacet
  facet normal -1 -0 0
    outer loop
      vertex 10 35 0
      vertex 10 39.6489 6.76393
      vertex 10 40.073 6.49477
    endloop
  endfacet
  facet normal -1 0 0
    outer loop
      vertex 10 35 0
      vertex 10 40.073 6.49477
      vertex 10 42 0
    endloop
  endfacet
  facet normal -0 0 -1
    outer loop
      vertex 10 35 0
      vertex 10 42 0
      vertex 30 42 0
    endloop
  endfacet
  facet normal 0 -1 0
    outer loop
      vertex 10 35 0
      vertex 16.7 35 10
      vertex 10 35 20
    endloop
  endfacet
  facet normal 0 -1 -0
    outer loop
      vertex 10 35 0
      vertex 16.726 35 9.5864
      vertex 16.7 35 10
    endloop
  endfacet
  facet normal 0 -1 -0
    outer loop
      vertex 10 35 0
      vertex 16.8037 35 9.17932
      vertex 16.726 35 9.5864
    endloop
  endfacet
  facet normal 0 -1 -0
    outer loop
      vertex 10 35 0
      vertex 16.9317 35 8.78519
      vertex 16.8037 35 9.17932
    endloop
  endfacet
  facet normal 0 -1 -0
    outer loop
      vertex 10 35 0
      vertex 17.1082 35 8.41021
      vertex 16.9317 35 8.78519
    endloop
  endfacet
  facet normal 0 -1 -0
    outer loop
      vertex 10 35 0
      vertex 17.3302 35 8.06031
      vertex 17.1082 35 8.41021
    endloop
  endfacet
  facet normal 0 -1 -0
    outer loop
      vertex 10 35 0
      vertex 17.5944 35 7.74099
      vertex 17.3302 35 8.06031
    endloop
  endfacet
  facet normal 0 -1 -0
    outer loop
      vertex 10 35 0
      vertex 17.8965 35 7.45731
      vertex 17.5944 35 7.74099
    endloop
  endfacet
  facet normal 0 -1 -0
    outer loop
      vertex 10 35 0
      vertex 18.2318 35 7.21372
      vertex 17.8965 35 7.45731
    endloop
  endfacet
  facet normal 0 -1 -0
    outer loop
      vertex 10 35 0
      vertex 18.5949 35 7.01407
      vertex 18.2318 35 7.21372
    endloop
  endfacet
  facet normal 0 -1 -0
    outer loop
      vertex 10 35 0
      vertex 18.9802 35 6.86151
      vertex 18.5949 35 7.01407
    endloop
  endfacet
  facet normal 0 -1 -0
    outer loop
      vertex 10 35 0
      vertex 19.3816 35 6.75845
      vertex 18.9802 35 6.86151
    endloop
  endfacet
  facet normal 0 -1 -0
    outer loop
      vertex 10 35 0
      vertex 19.7928 35 6.70651
      vertex 19.3816 35 6.75845
    endloop
  endfacet
  facet normal 0 -1 -0
    outer loop
      vertex 10 35 0
      vertex 20.2072 35 6.70651
      vertex 19.7928 35 6.70651
    endloop
  endfacet
  facet normal 0 -1 0
    outer loop
      vertex 10 35 0
      vertex 30 35 0
      vertex 20.2072 35 6.70651
    endloop
  endfacet
  facet normal 0 0 -1
    outer loop
      vertex 10 35 0
      vertex 30 42 0
      vertex 30 35 0
    endloop
  endfacet
  facet normal -1 0 0
    outer loop
      vertex 10 35 20
      vertex 10 38.0709 10.7495
      vertex 10 38.0079 10.2512
    endloop
  endfacet
  facet normal -1 0 0
    outer loop
      vertex 10 35 20
      vertex 10 38.1958 11.2361
      vertex 10 38.0709 10.7495
    endloop
  endfacet
  facet normal -1 0 0
    outer loop
      vertex 10 35 20
      vertex 10 38.3807 11.7031
      vertex 10 38.1958 11.2361
    endloop
  endfacet
  facet normal -1 0 0
    outer loop
      vertex 10 35 20
      vertex 10 38.6227 12.1433
      vertex 10 38.3807 11.7031
    endloop
  endfacet
  facet normal -1 0 0
    outer loop
      vertex 10 35 20
      vertex 10 38.9179 12.5497
      vertex 10 38.6227 12.1433
    endloop
  endfacet
  facet normal -1 0 0
    outer loop
      vertex 10 35 20
      vertex 10 39.2618 12.9159
      vertex 10 38.9179 12.5497
    endloop
  endfacet
  facet normal -1 0 0
    outer loop
      vertex 10 35 20
      vertex 10 39.6489 13.2361
      vertex 10 39.2618 12.9159
    endloop
  endfacet
  facet normal -1 0 0
    outer loop
      vertex 10 35 20
      vertex 10 40.073 13.5052
      vertex 10 39.6489 13.2361
    endloop
  endfacet
  facet normal -1 0 0
    outer loop
      vertex 10 35 20
      vertex 10 42 20
      vertex 10 40.073 13.5052
    endloop
  endfacet
  facet normal 0 -1 0
    outer loop
      vertex 10 35 20
      vertex 16.7 35 10
      vertex 16.726 35 10.4136
    endloop
  endfacet
  facet normal 0 -1 0
    outer loop
      vertex 10 35 20
      vertex 16.726 35 10.4136
      vertex 16.8037 35 10.8207
    endloop
  endfacet
  facet normal 0 -1 0
    outer loop
      vertex 10 35 20
      vertex 16.8037 35 10.8207
      vertex 16.9317 35 11.2148
    endloop
  endfacet
  facet normal 0 -1 0
    outer loop
      vertex 10 35 20
      vertex 16.9317 35 11.2148
      vertex 17.1082 35 11.5898
    endloop
  endfacet
  facet normal 0 -1 0
    outer loop
      vertex 10 35 20
      vertex 17.1082 35 11.5898
      vertex 17.3302 35 11.9397
    endloop
  endfacet
  facet normal 0 -1 0
    outer loop
      vertex 10 35 20
      vertex 17.3302 35 11.9397
      vertex 17.5944 35 12.259
    endloop
  endfacet
  facet normal 0 -1 0
    outer loop
      vertex 10 35 20
      vertex 17.5944 35 12.259
      vertex 17.8965 35 12.5427
    endloop
  endfacet
  facet normal 0 -1 0
    outer loop
      vertex 10 35 20
      vertex 17.8965 35 12.5427
      vertex 18.2318 35 12.7863
    endloop
  endfacet
  facet normal 0 -1 0
    outer loop
      vertex 10 35 20
      vertex 18.2318 35 12.7863
      vertex 18.5949 35 12.9859
    endloop
  endfacet
  facet normal 0 -1 0
    outer loop
      vertex 10 35 20
      vertex 18.5949 35 12.9859
      vertex 18.9802 35 13.1385
    endloop
  endfacet
  facet normal 0 -1 0
    outer loop
      vertex 10 35 20
      vertex 18.9802 35 13.1385
      vertex 19.3816 35 13.2415
    endloop
  endfacet
  facet normal 0 -1 0
    outer loop
      vertex 10 35 20
      vertex 19.3816 35 13.2415
      vertex 19.7928 35 13.2935
    endloop
  endfacet
  facet normal 0 -1 0
    outer loop
      vertex 10 35 20
      vertex 19.7928 35 13.2935
      vertex 30 35 20
    endloop
  endfacet
  facet normal 0 0 1
    outer loop
      vertex 10 35 20
      vertex 30 35 20
      vertex 10 42 20
    endloop
  endfacet
  facet normal 0 0.992102 -0.125431
    outer loop
      vertex 10 38.0079 10.2512
      vertex 10 38.0709 10.7495
      vertex 18.4223 38.0079 10.2512
    endloop
  endfacet
  facet normal 0 1 -0
    outer loop
      vertex 10 38.0079 10.2512
      vertex 18.4126 38.0079 10.2005
      vertex 18.4 38.0079 10
    endloop
  endfacet
  facet normal 0 1 -0
    outer loop
      vertex 10 38.0079 10.2512
      vertex 18.4223 38.0079 10.2512
      vertex 18.4126 38.0079 10.2005
    endloop
  endfacet
  facet normal 0 1 0
    outer loop
      vertex 10 38.0079 9.74884
      vertex 10 38.0079 10.2512
      vertex 18.4 38.0079 10
    endloop
  endfacet
  facet normal 0 1 0
    outer loop
      vertex 10 38.0079 9.74884
      vertex 18.4 38.0079 10
      vertex 18.4126 38.0079 9.79947
    endloop
  endfacet
  facet normal 0 1 0
    outer loop
      vertex 10 38.0079 9.74884
      vertex 18.4126 38.0079 9.79947
      vertex 18.4223 38.0079 9.74884
    endloop
  endfacet
  facet normal 0 0.992104 0.125414
    outer loop
      vertex 10 38.0079 9.74884
      vertex 18.4223 38.0079 9.74884
      vertex 10 38.0709 9.25047
    endloop
  endfacet
  facet normal 0 0.968601 -0.24862
    outer loop
      vertex 10 38.0709 10.7495
      vertex 10 38.1958 11.2361
      vertex 18.5879 38.0709 10.7495
    endloop
  endfacet
  facet normal 1.86994e-05 0.992142 -0.12512
    outer loop
      vertex 10 38.0709 10.7495
      vertex 18.4503 38.0264 10.3979
      vertex 18.4223 38.0079 10.2512
    endloop
  endfacet
  facet normal -2.89133e-06 0.992077 -0.125631
    outer loop
      vertex 10 38.0709 10.7495
      vertex 18.5124 38.0506 10.589
      vertex 18.4503 38.0264 10.3979
    endloop
  endfacet
  facet normal 0 0.992096 -0.12548
    outer loop
      vertex 10 38.0709 10.7495
      vertex 18.5879 38.0709 10.7495
      vertex 18.5124 38.0506 10.589
    endloop
  endfacet
  facet normal 1.96668e-05 0.992146 0.125087
    outer loop
      vertex 10 38.0709 9.25047
      vertex 18.4223 38.0079 9.74884
      vertex 18.4503 38.0264 9.6021
    endloop
  endfacet
  facet normal -3.33139e-06 0.992077 0.125631
    outer loop
      vertex 10 38.0709 9.25047
      vertex 18.4503 38.0264 9.6021
      vertex 18.5124 38.0506 9.411
    endloop
  endfacet
  facet normal -0 0.992099 0.125457
    outer loop
      vertex 10 38.0709 9.25047
      vertex 18.5124 38.0506 9.411
      vertex 18.5879 38.0709 9.25047
    endloop
  endfacet
  facet normal 0 0.968594 0.248648
    outer loop
      vertex 10 38.0709 9.25047
      vertex 18.5879 38.0709 9.25047
      vertex 10 38.1958 8.76393
    endloop
  endfacet
  facet normal 0 0.929775 -0.368127
    outer loop
      vertex 10 38.1958 11.2361
      vertex 10 38.3807 11.7031
      vertex 18.9846 38.1958 11.2361
    endloop
  endfacet
  facet normal 0.000168944 0.969315 -0.245821
    outer loop
      vertex 10 38.1958 11.2361
      vertex 18.5979 38.0763 10.7708
      vertex 18.5879 38.0709 10.7495
    endloop
  endfacet
  facet normal -5.08924e-06 0.968545 -0.248839
    outer loop
      vertex 10 38.1958 11.2361
      vertex 18.7056 38.1199 10.9405
      vertex 18.5979 38.0763 10.7708
    endloop
  endfacet
  facet normal 9.78813e-06 0.96865 -0.248428
    outer loop
      vertex 10 38.1958 11.2361
      vertex 18.8336 38.1596 11.0953
      vertex 18.7056 38.1199 10.9405
    endloop
  endfacet
  facet normal 5.69275e-06 0.968588 -0.248669
    outer loop
      vertex 10 38.1958 11.2361
      vertex 18.9801 38.1949 11.2328
      vertex 18.8336 38.1596 11.0953
    endloop
  endfacet
  facet normal 0 0.964764 -0.263117
    outer loop
      vertex 10 38.1958 11.2361
      vertex 18.9846 38.1958 11.2361
      vertex 18.9801 38.1949 11.2328
    endloop
  endfacet
  facet normal 0.000157858 0.969261 0.246033
    outer loop
      vertex 10 38.1958 8.76393
      vertex 18.5879 38.0709 9.25047
      vertex 18.5979 38.0763 9.22919
    endloop
  endfacet
  facet normal -7.80668e-06 0.968528 0.248906
    outer loop
      vertex 10 38.1958 8.76393
      vertex 18.5979 38.0763 9.22919
      vertex 18.7056 38.1199 9.05954
    endloop
  endfacet
  facet normal 1.05706e-05 0.968658 0.248399
    outer loop
      vertex 10 38.1958 8.76393
      vertex 18.7056 38.1199 9.05954
      vertex 18.8336 38.1596 8.90472
    endloop
  endfacet
  facet normal 7.10306e-06 0.968606 0.248603
    outer loop
      vertex 10 38.1958 8.76393
      vertex 18.8336 38.1596 8.90472
      vertex 18.9801 38.1949 8.76718
    endloop
  endfacet
  facet normal -0 0.96373 0.266879
    outer loop
      vertex 10 38.1958 8.76393
      vertex 18.9801 38.1949 8.76718
      vertex 18.9846 38.1958 8.76393
    endloop
  endfacet
  facet normal 0 0.929789 0.368093
    outer loop
      vertex 10 38.1958 8.76393
      vertex 18.9846 38.1958 8.76393
      vertex 10 38.3807 8.29688
    endloop
  endfacet
  facet normal 0 0.876308 -0.481751
    outer loop
      vertex 10 38.3807 11.7031
      vertex 10 38.6227 12.1433
      vertex 30 38.3807 11.7031
    endloop
  endfacet
  facet normal 2.07981e-05 0.929912 -0.367781
    outer loop
      vertex 10 38.3807 11.7031
      vertex 19.1427 38.2412 11.3509
      vertex 18.9846 38.1958 11.2361
    endloop
  endfacet
  facet normal -2.04944e-05 0.929545 -0.368708
    outer loop
      vertex 10 38.3807 11.7031
      vertex 19.3188 38.2796 11.4477
      vertex 19.1427 38.2412 11.3509
    endloop
  endfacet
  facet normal -2.29511e-06 0.929773 -0.368134
    outer loop
      vertex 10 38.3807 11.7031
      vertex 19.5056 38.3089 11.5217
      vertex 19.3188 38.2796 11.4477
    endloop
  endfacet
  facet normal 2.99196e-05 0.930349 -0.366674
    outer loop
      vertex 10 38.3807 11.7031
      vertex 19.7002 38.3286 11.5717
      vertex 19.5056 38.3089 11.5217
    endloop
  endfacet
  facet normal -2.16704e-05 0.929045 -0.369966
    outer loop
      vertex 10 38.3807 11.7031
      vertex 19.8995 38.3386 11.5968
      vertex 19.7002 38.3286 11.5717
    endloop
  endfacet
  facet normal 0 0.929738 -0.368222
    outer loop
      vertex 10 38.3807 11.7031
      vertex 20.1005 38.3386 11.5968
      vertex 19.8995 38.3386 11.5968
    endloop
  endfacet
  facet normal 0 0.929738 -0.368222
    outer loop
      vertex 10 38.3807 11.7031
      vertex 30 38.3807 11.7031
      vertex 20.1005 38.3386 11.5968
    endloop
  endfacet
  facet normal 2.82101e-05 0.929974 0.367624
    outer loop
      vertex 10 38.3807 8.29688
      vertex 18.9846 38.1958 8.76393
      vertex 19.1427 38.2412 8.64907
    endloop
  endfacet
  facet normal -2.14885e-05 0.929533 0.368739
    outer loop
      vertex 10 38.3807 8.29688
      vertex 19.1427 38.2412 8.64907
      vertex 19.3188 38.2796 8.55228
    endloop
  endfacet
  facet normal -6.12189e-06 0.929725 0.368255
    outer loop
      vertex 10 38.3807 8.29688
      vertex 19.3188 38.2796 8.55228
      vertex 19.5056 38.3089 8.47831
    endloop
  endfacet
  facet normal 2.49296e-05 0.930281 0.366848
    outer loop
      vertex 10 38.3807 8.29688
      vertex 19.5056 38.3089 8.47831
      vertex 19.7002 38.3286 8.42834
    endloop
  endfacet
  facet normal -9.35426e-06 0.929416 0.369035
    outer loop
      vertex 10 38.3807 8.29688
      vertex 19.7002 38.3286 8.42834
      vertex 19.8995 38.3386 8.40316
    endloop
  endfacet
  facet normal -0 0.929714 0.368282
    outer loop
      vertex 10 38.3807 8.29688
      vertex 19.8995 38.3386 8.40316
      vertex 30 38.3807 8.29688
    endloop
  endfacet
  facet normal 0 0.876304 0.481759
    outer loop
      vertex 10 38.3807 8.29688
      vertex 30 38.3807 8.29688
      vertex 30 38.6227 7.85669
    endloop
  endfacet
  facet normal 0 0.876304 0.481759
    outer loop
      vertex 10 38.3807 8.29688
      vertex 30 38.6227 7.85669
      vertex 10 38.6227 7.85669
    endloop
  endfacet
  facet normal 0 0.80908 -0.587698
    outer loop
      vertex 10 38.6227 12.1433
      vertex 10 38.9179 12.5497
      vertex 30 38.6227 12.1433
    endloop
  endfacet
  facet normal 0 0.876308 -0.481751
    outer loop
      vertex 10 38.6227 12.1433
      vertex 30 38.6227 12.1433
      vertex 30 38.3807 11.7031
    endloop
  endfacet
  facet normal 0 0.809073 0.587708
    outer loop
      vertex 10 38.6227 7.85669
      vertex 30 38.6227 7.85669
      vertex 30 38.9179 7.4503
    endloop
  endfacet
  facet normal 0 0.809073 0.587708
    outer loop
      vertex 10 38.6227 7.85669
      vertex 30 38.9179 7.4503
      vertex 10 38.9179 7.4503
    endloop
  endfacet
  facet normal 0 0.728953 -0.684563
    outer loop
      vertex 10 38.9179 12.5497
      vertex 10 39.2618 12.9159
      vertex 30 38.9179 12.5497
    endloop
  endfacet
  facet normal 0 0.80908 -0.587698
    outer loop
      vertex 10 38.9179 12.5497
      vertex 30 38.9179 12.5497
      vertex 30 38.6227 12.1433
    endloop
  endfacet
  facet normal 0 0.728935 0.684583
    outer loop
      vertex 10 38.9179 7.4503
      vertex 30 38.9179 7.4503
      vertex 30 39.2618 7.08412
    endloop
  endfacet
  facet normal 0 0.728935 0.684583
    outer loop
      vertex 10 38.9179 7.4503
      vertex 30 39.2618 7.08412
      vertex 10 39.2618 7.08412
    endloop
  endfacet
  facet normal 0 0.63738 -0.770549
    outer loop
      vertex 10 39.2618 12.9159
      vertex 10 39.6489 13.2361
      vertex 30 39.6489 13.2361
    endloop
  endfacet
  facet normal 0 0.728953 -0.684563
    outer loop
      vertex 10 39.2618 12.9159
      vertex 30 39.2618 12.9159
      vertex 30 38.9179 12.5497
    endloop
  endfacet
  facet normal 0 0.63738 -0.770549
    outer loop
      vertex 10 39.2618 12.9159
      vertex 30 39.6489 13.2361
      vertex 30 39.2618 12.9159
    endloop
  endfacet
  facet normal 0 0.637368 0.770559
    outer loop
      vertex 10 39.2618 7.08412
      vertex 30 39.2618 7.08412
      vertex 10 39.6489 6.76393
    endloop
  endfacet
  facet normal 0 0.535767 -0.844366
    outer loop
      vertex 10 39.6489 13.2361
      vertex 10 40.073 13.5052
      vertex 30 40.073 13.5052
    endloop
  endfacet
  facet normal 0 0.535767 -0.844366
    outer loop
      vertex 10 39.6489 13.2361
      vertex 30 40.073 13.5052
      vertex 30 39.6489 13.2361
    endloop
  endfacet
  facet normal -0 0.637368 0.770559
    outer loop
      vertex 10 39.6489 6.76393
      vertex 30 39.2618 7.08412
      vertex 30 39.6489 6.76393
    endloop
  endfacet
  facet normal 0 0.535852 0.844312
    outer loop
      vertex 10 39.6489 6.76393
      vertex 30 39.6489 6.76393
      vertex 10 40.073 6.49477
    endloop
  endfacet
  facet normal 0 0.425826 -0.904805
    outer loop
      vertex 10 40.073 13.5052
      vertex 10 40.5275 13.7191
      vertex 30 40.5275 13.7191
    endloop
  endfacet
  facet normal -1 0 0
    outer loop
      vertex 10 40.073 13.5052
      vertex 10 42 20
      vertex 10 40.5275 13.7191
    endloop
  endfacet
  facet normal 0 0.425826 -0.904805
    outer loop
      vertex 10 40.073 13.5052
      vertex 30 40.5275 13.7191
      vertex 30 40.073 13.5052
    endloop
  endfacet
  facet normal -1 0 0
    outer loop
      vertex 10 40.073 6.49477
      vertex 10 40.5275 6.28089
      vertex 10 42 0
    endloop
  endfacet
  facet normal -0 0.535852 0.844312
    outer loop
      vertex 10 40.073 6.49477
      vertex 30 39.6489 6.76393
      vertex 30 40.073 6.49477
    endloop
  endfacet
  facet normal 0 0.425793 0.904821
    outer loop
      vertex 10 40.073 6.49477
      vertex 30 40.073 6.49477
      vertex 10 40.5275 6.28089
    endloop
  endfacet
  facet normal 0 0.308992 -0.951065
    outer loop
      vertex 10 40.5275 13.7191
      vertex 10 41.0052 13.8743
      vertex 30 41.0052 13.8743
    endloop
  endfacet
  facet normal -1 0 0
    outer loop
      vertex 10 40.5275 13.7191
      vertex 10 42 20
      vertex 10 41.0052 13.8743
    endloop
  endfacet
  facet normal 0 0.308992 -0.951065
    outer loop
      vertex 10 40.5275 13.7191
      vertex 30 41.0052 13.8743
      vertex 30 40.5275 13.7191
    endloop
  endfacet
  facet normal -1 0 0
    outer loop
      vertex 10 40.5275 6.28089
      vertex 10 41.0052 6.12567
      vertex 10 42 0
    endloop
  endfacet
  facet normal -0 0.425793 0.904821
    outer loop
      vertex 10 40.5275 6.28089
      vertex 30 40.073 6.49477
      vertex 30 40.5275 6.28089
    endloop
  endfacet
  facet normal 0 0.309028 0.951053
    outer loop
      vertex 10 40.5275 6.28089
      vertex 30 40.5275 6.28089
      vertex 10 41.0052 6.12567
    endloop
  endfacet
  facet normal 0 0.187496 -0.982265
    outer loop
      vertex 10 41.0052 13.8743
      vertex 10 41.4987 13.9685
      vertex 30 41.4987 13.9685
    endloop
  endfacet
  facet normal -1 0 0
    outer loop
      vertex 10 41.0052 13.8743
      vertex 10 42 20
      vertex 10 41.4987 13.9685
    endloop
  endfacet
  facet normal 0 0.187496 -0.982265
    outer loop
      vertex 10 41.0052 13.8743
      vertex 30 41.4987 13.9685
      vertex 30 41.0052 13.8743
    endloop
  endfacet
  facet normal -1 0 0
    outer loop
      vertex 10 41.0052 6.12567
      vertex 10 41.4987 6.03154
      vertex 10 42 0
    endloop
  endfacet
  facet normal -0 0.309028 0.951053
    outer loop
      vertex 10 41.0052 6.12567
      vertex 30 40.5275 6.28089
      vertex 30 41.0052 6.12567
    endloop
  endfacet
  facet normal 0 0.187362 0.982291
    outer loop
      vertex 10 41.0052 6.12567
      vertex 30 41.0052 6.12567
      vertex 10 41.4987 6.03154
    endloop
  endfacet
  facet normal 0 0.0627129 -0.998032
    outer loop
      vertex 10 41.4987 13.9685
      vertex 10 42 14
      vertex 30 42 14
    endloop
  endfacet
  facet normal -1 0 0
    outer loop
      vertex 10 41.4987 13.9685
      vertex 10 42 20
      vertex 10 42 14
    endloop
  endfacet
  facet normal 0 0.0627129 -0.998032
    outer loop
      vertex 10 41.4987 13.9685
      vertex 30 42 14
      vertex 30 41.4987 13.9685
    endloop
  endfacet
  facet normal -1 0 0
    outer loop
      vertex 10 41.4987 6.03154
      vertex 10 42 6
      vertex 10 42 0
    endloop
  endfacet
  facet normal -0 0.187362 0.982291
    outer loop
      vertex 10 41.4987 6.03154
      vertex 30 41.0052 6.12567
      vertex 30 41.4987 6.03154
    endloop
  endfacet
  facet normal 0 0.0627923 0.998027
    outer loop
      vertex 10 41.4987 6.03154
      vertex 30 41.4987 6.03154
      vertex 10 42 6
    endloop
  endfacet
  facet normal 0 1 0
    outer loop
      vertex 10 42 0
      vertex 10 42 6
      vertex 30 42 0
    endloop
  endfacet
  facet normal 0 1 0
    outer loop
      vertex 10 42 14
      vertex 10 42 20
      vertex 30 42 14
    endloop
  endfacet
  facet normal -0 0 1
    outer loop
      vertex 10 42 20
      vertex 30 35 20
      vertex 30 42 20
    endloop
  endfacet
  facet normal 0 1 -0
    outer loop
      vertex 10 42 20
      vertex 30 42 20
      vertex 30 42 14
    endloop
  endfacet
  facet normal -0 0.0627923 0.998027
    outer loop
      vertex 10 42 6
      vertex 30 41.4987 6.03154
      vertex 30 42 6
    endloop
  endfacet
  facet normal 0 1 -0
    outer loop
      vertex 10 42 6
      vertex 30 42 6
      vertex 30 42 0
    endloop
  endfacet
  facet normal 0.99803 0 -0.0627388
    outer loop
      vertex 16.7 35 10
      vertex 16.7 38 10
      vertex 16.726 35 10.4136
    endloop
  endfacet
  facet normal 0.99803 0 0.0627388
    outer loop
      vertex 16.7 35 10
      vertex 16.726 35 9.5864
      vertex 16.726 38 9.5864
    endloop
  endfacet
  facet normal 0.99803 -0 0.0627388
    outer loop
      vertex 16.7 35 10
      vertex 16.726 38 9.5864
      vertex 16.7 38 10
    endloop
  endfacet
  facet normal 0.99803 0 -0.0627388
    outer loop
      vertex 16.7 38 10
      vertex 16.726 38 10.4136
      vertex 16.726 35 10.4136
    endloop
  endfacet
  facet normal 0 -1 0
    outer loop
      vertex 16.7 38 10
      vertex 16.726 38 9.5864
      vertex 18.4126 38 9.79947
    endloop
  endfacet
  facet normal 0 -1 0
    outer loop
      vertex 16.7 38 10
      vertex 18.4 38 10
      vertex 18.4126 38 10.2005
    endloop
  endfacet
  facet normal 0 -1 0
    outer loop
      vertex 16.7 38 10
      vertex 18.4126 38 10.2005
      vertex 16.726 38 10.4136
    endloop
  endfacet
  facet normal 0 -1 0
    outer loop
      vertex 16.7 38 10
      vertex 18.4126 38 9.79947
      vertex 18.4 38 10
    endloop
  endfacet
  facet normal 0.982269 0 -0.187478
    outer loop
      vertex 16.726 35 10.4136
      vertex 16.726 38 10.4136
      vertex 16.8037 35 10.8207
    endloop
  endfacet
  facet normal 0.982267 0 0.187487
    outer loop
      vertex 16.726 35 9.5864
      vertex 16.8037 35 9.17932
      vertex 16.8037 38 9.17932
    endloop
  endfacet
  facet normal 0.982267 -0 0.187487
    outer loop
      vertex 16.726 35 9.5864
      vertex 16.8037 38 9.17932
      vertex 16.726 38 9.5864
    endloop
  endfacet
  facet normal 0.982269 0 -0.187478
    outer loop
      vertex 16.726 38 10.4136
      vertex 16.8037 38 10.8207
      vertex 16.8037 35 10.8207
    endloop
  endfacet
  facet normal 0 -1 0
    outer loop
      vertex 16.726 38 10.4136
      vertex 18.4126 38 10.2005
      vertex 18.4503 38 10.3979
    endloop
  endfacet
  facet normal 0 -1 0
    outer loop
      vertex 16.726 38 10.4136
      vertex 18.4503 38 10.3979
      vertex 16.8037 38 10.8207
    endloop
  endfacet
  facet normal 0 -1 0
    outer loop
      vertex 16.726 38 9.5864
      vertex 16.8037 38 9.17932
      vertex 18.4503 38 9.6021
    endloop
  endfacet
  facet normal 0 -1 -0
    outer loop
      vertex 16.726 38 9.5864
      vertex 18.4503 38 9.6021
      vertex 18.4126 38 9.79947
    endloop
  endfacet
  facet normal 0.951093 0 -0.308906
    outer loop
      vertex 16.8037 35 10.8207
      vertex 16.8037 38 10.8207
      vertex 16.9317 35 11.2148
    endloop
  endfacet
  facet normal 0.951099 0 0.308885
    outer loop
      vertex 16.8037 35 9.17932
      vertex 16.9317 35 8.78519
      vertex 16.9317 38 8.78519
    endloop
  endfacet
  facet normal 0.951099 -0 0.308885
    outer loop
      vertex 16.8037 35 9.17932
      vertex 16.9317 38 8.78519
      vertex 16.8037 38 9.17932
    endloop
  endfacet
  facet normal 0.951093 0 -0.308906
    outer loop
      vertex 16.8037 38 10.8207
      vertex 16.9317 38 11.2148
      vertex 16.9317 35 11.2148
    endloop
  endfacet
  facet normal 0 -1 0
    outer loop
      vertex 16.8037 38 10.8207
      vertex 18.4503 38 10.3979
      vertex 18.5124 38 10.589
    endloop
  endfacet
  facet normal 0 -1 0
    outer loop
      vertex 16.8037 38 10.8207
      vertex 18.5124 38 10.589
      vertex 16.9317 38 11.2148
    endloop
  endfacet
  facet normal 0 -1 0
    outer loop
      vertex 16.8037 38 9.17932
      vertex 16.9317 38 8.78519
      vertex 18.5124 38 9.411
    endloop
  endfacet
  facet normal 0 -1 -0
    outer loop
      vertex 16.8037 38 9.17932
      vertex 18.5124 38 9.411
      vertex 18.4503 38 9.6021
    endloop
  endfacet
  facet normal 0.904791 0 -0.425855
    outer loop
      vertex 16.9317 35 11.2148
      vertex 16.9317 38 11.2148
      vertex 17.1082 35 11.5898
    endloop
  endfacet
  facet normal 0.904783 0 0.425874
    outer loop
      vertex 16.9317 35 8.78519
      vertex 17.1082 35 8.41021
      vertex 17.1082 38 8.41021
    endloop
  endfacet
  facet normal 0.904783 -0 0.425874
    outer loop
      vertex 16.9317 35 8.78519
      vertex 17.1082 38 8.41021
      vertex 16.9317 38 8.78519
    endloop
  endfacet
  facet normal 0.904791 0 -0.425855
    outer loop
      vertex 16.9317 38 11.2148
      vertex 17.1082 38 11.5898
      vertex 17.1082 35 11.5898
    endloop
  endfacet
  facet normal 0 -1 0
    outer loop
      vertex 16.9317 38 11.2148
      vertex 18.5124 38 10.589
      vertex 18.5979 38 10.7708
    endloop
  endfacet
  facet normal 0 -1 0
    outer loop
      vertex 16.9317 38 11.2148
      vertex 18.5979 38 10.7708
      vertex 17.1082 38 11.5898
    endloop
  endfacet
  facet normal 0 -1 0
    outer loop
      vertex 16.9317 38 8.78519
      vertex 17.1082 38 8.41021
      vertex 18.5979 38 9.22919
    endloop
  endfacet
  facet normal 0 -1 -0
    outer loop
      vertex 16.9317 38 8.78519
      vertex 18.5979 38 9.22919
      vertex 18.5124 38 9.411
    endloop
  endfacet
  facet normal 0.844386 0 -0.535735
    outer loop
      vertex 17.1082 35 11.5898
      vertex 17.1082 38 11.5898
      vertex 17.3302 35 11.9397
    endloop
  endfacet
  facet normal 0.844386 0 0.535735
    outer loop
      vertex 17.1082 35 8.41021
      vertex 17.3302 35 8.06031
      vertex 17.3302 38 8.06031
    endloop
  endfacet
  facet normal 0.844386 -0 0.535735
    outer loop
      vertex 17.1082 35 8.41021
      vertex 17.3302 38 8.06031
      vertex 17.1082 38 8.41021
    endloop
  endfacet
  facet normal 0.844386 0 -0.535735
    outer loop
      vertex 17.1082 38 11.5898
      vertex 17.3302 38 11.9397
      vertex 17.3302 35 11.9397
    endloop
  endfacet
  facet normal 0 -1 0
    outer loop
      vertex 17.1082 38 11.5898
      vertex 18.5979 38 10.7708
      vertex 18.7056 38 10.9405
    endloop
  endfacet
  facet normal 0 -1 0
    outer loop
      vertex 17.1082 38 11.5898
      vertex 18.7056 38 10.9405
      vertex 17.3302 38 11.9397
    endloop
  endfacet
  facet normal 0 -1 0
    outer loop
      vertex 17.1082 38 8.41021
      vertex 17.3302 38 8.06031
      vertex 18.7056 38 9.05954
    endloop
  endfacet
  facet normal 0 -1 -0
    outer loop
      vertex 17.1082 38 8.41021
      vertex 18.7056 38 9.05954
      vertex 18.5979 38 9.22919
    endloop
  endfacet
  facet normal 0.770452 0 -0.637499
    outer loop
      vertex 17.3302 35 11.9397
      vertex 17.3302 38 11.9397
      vertex 17.5944 35 12.259
    endloop
  endfacet
  facet normal 0.770471 0 0.637475
    outer loop
      vertex 17.3302 35 8.06031
      vertex 17.5944 35 7.74099
      vertex 17.5944 38 7.74099
    endloop
  endfacet
  facet normal 0.770471 -0 0.637475
    outer loop
      vertex 17.3302 35 8.06031
      vertex 17.5944 38 7.74099
      vertex 17.3302 38 8.06031
    endloop
  endfacet
  facet normal 0.770452 0 -0.637499
    outer loop
      vertex 17.3302 38 11.9397
      vertex 17.5944 38 12.259
      vertex 17.5944 35 12.259
    endloop
  endfacet
  facet normal 0 -1 0
    outer loop
      vertex 17.3302 38 11.9397
      vertex 18.7056 38 10.9405
      vertex 18.8336 38 11.0953
    endloop
  endfacet
  facet normal 0 -1 0
    outer loop
      vertex 17.3302 38 11.9397
      vertex 18.8336 38 11.0953
      vertex 17.5944 38 12.259
    endloop
  endfacet
  facet normal 0 -1 0
    outer loop
      vertex 17.3302 38 8.06031
      vertex 17.5944 38 7.74099
      vertex 18.8336 38 8.90472
    endloop
  endfacet
  facet normal 0 -1 -0
    outer loop
      vertex 17.3302 38 8.06031
      vertex 18.8336 38 8.90472
      vertex 18.7056 38 9.05954
    endloop
  endfacet
  facet normal 0.684559 0 -0.728958
    outer loop
      vertex 17.5944 35 12.259
      vertex 17.5944 38 12.259
      vertex 17.8965 38 12.5427
    endloop
  endfacet
  facet normal 0.684559 0 -0.728958
    outer loop
      vertex 17.5944 35 12.259
      vertex 17.8965 38 12.5427
      vertex 17.8965 35 12.5427
    endloop
  endfacet
  facet normal 0.684533 0 0.728982
    outer loop
      vertex 17.5944 35 7.74099
      vertex 17.8965 35 7.45731
      vertex 17.5944 38 7.74099
    endloop
  endfacet
  facet normal 0 -1 0
    outer loop
      vertex 17.5944 38 12.259
      vertex 18.8336 38 11.0953
      vertex 18.9801 38 11.2328
    endloop
  endfacet
  facet normal 0 -1 0
    outer loop
      vertex 17.5944 38 12.259
      vertex 18.9801 38 11.2328
      vertex 17.8965 38 12.5427
    endloop
  endfacet
  facet normal 0.684533 0 0.728982
    outer loop
      vertex 17.5944 38 7.74099
      vertex 17.8965 35 7.45731
      vertex 17.8965 38 7.45731
    endloop
  endfacet
  facet normal 0 -1 0
    outer loop
      vertex 17.5944 38 7.74099
      vertex 17.8965 38 7.45731
      vertex 18.9801 38 8.76718
    endloop
  endfacet
  facet normal 0 -1 -0
    outer loop
      vertex 17.5944 38 7.74099
      vertex 18.9801 38 8.76718
      vertex 18.8336 38 8.90472
    endloop
  endfacet
  facet normal 0.58777 0 -0.809028
    outer loop
      vertex 17.8965 35 12.5427
      vertex 17.8965 38 12.5427
      vertex 18.2318 38 12.7863
    endloop
  endfacet
  facet normal 0.58777 0 -0.809028
    outer loop
      vertex 17.8965 35 12.5427
      vertex 18.2318 38 12.7863
      vertex 18.2318 35 12.7863
    endloop
  endfacet
  facet normal 0.587754 0 0.80904
    outer loop
      vertex 17.8965 35 7.45731
      vertex 18.2318 35 7.21372
      vertex 17.8965 38 7.45731
    endloop
  endfacet
  facet normal 0 -1 0
    outer loop
      vertex 17.8965 38 12.5427
      vertex 18.9801 38 11.2328
      vertex 19.1427 38 11.3509
    endloop
  endfacet
  facet normal 0 -1 0
    outer loop
      vertex 17.8965 38 12.5427
      vertex 19.1427 38 11.3509
      vertex 18.2318 38 12.7863
    endloop
  endfacet
  facet normal 0.587754 0 0.80904
    outer loop
      vertex 17.8965 38 7.45731
      vertex 18.2318 35 7.21372
      vertex 18.2318 38 7.21372
    endloop
  endfacet
  facet normal 0 -1 0
    outer loop
      vertex 17.8965 38 7.45731
      vertex 18.2318 38 7.21372
      vertex 19.1427 38 8.64907
    endloop
  endfacet
  facet normal 0 -1 -0
    outer loop
      vertex 17.8965 38 7.45731
      vertex 19.1427 38 8.64907
      vertex 18.9801 38 8.76718
    endloop
  endfacet
  facet normal 0.481724 0 -0.876323
    outer loop
      vertex 18.2318 35 12.7863
      vertex 18.2318 38 12.7863
      vertex 18.5949 38 12.9859
    endloop
  endfacet
  facet normal 0.481724 0 -0.876323
    outer loop
      vertex 18.2318 35 12.7863
      vertex 18.5949 38 12.9859
      vertex 18.5949 35 12.9859
    endloop
  endfacet
  facet normal 0.481817 0 0.876272
    outer loop
      vertex 18.2318 35 7.21372
      vertex 18.5949 35 7.01407
      vertex 18.2318 38 7.21372
    endloop
  endfacet
  facet normal 0 -1 0
    outer loop
      vertex 18.2318 38 12.7863
      vertex 19.1427 38 11.3509
      vertex 19.3188 38 11.4477
    endloop
  endfacet
  facet normal 0 -1 0
    outer loop
      vertex 18.2318 38 12.7863
      vertex 19.3188 38 11.4477
      vertex 18.5949 38 12.9859
    endloop
  endfacet
  facet normal 0.481817 0 0.876272
    outer loop
      vertex 18.2318 38 7.21372
      vertex 18.5949 35 7.01407
      vertex 18.5949 38 7.01407
    endloop
  endfacet
  facet normal 0 -1 0
    outer loop
      vertex 18.2318 38 7.21372
      vertex 18.5949 38 7.01407
      vertex 19.3188 38 8.55228
    endloop
  endfacet
  facet normal 0 -1 -0
    outer loop
      vertex 18.2318 38 7.21372
      vertex 19.3188 38 8.55228
      vertex 19.1427 38 8.64907
    endloop
  endfacet
  facet normal 0.998031 0 -0.0627192
    outer loop
      vertex 18.4 38 10
      vertex 18.4 38.0079 10
      vertex 18.4126 38 10.2005
    endloop
  endfacet
  facet normal 0.998032 0 0.0627098
    outer loop
      vertex 18.4 38 10
      vertex 18.4126 38 9.79947
      vertex 18.4126 38.0079 9.79947
    endloop
  endfacet
  facet normal 0.998032 -0 0.0627098
    outer loop
      vertex 18.4 38 10
      vertex 18.4126 38.0079 9.79947
      vertex 18.4 38.0079 10
    endloop
  endfacet
  facet normal 0.998031 0 -0.0627192
    outer loop
      vertex 18.4 38.0079 10
      vertex 18.4126 38.0079 10.2005
      vertex 18.4126 38 10.2005
    endloop
  endfacet
  facet normal 0.982186 0 -0.187913
    outer loop
      vertex 18.4126 38 10.2005
      vertex 18.4126 38.0079 10.2005
      vertex 18.4223 38.0079 10.2512
    endloop
  endfacet
  facet normal 0.982245 -0.00213523 -0.187592
    outer loop
      vertex 18.4126 38 10.2005
      vertex 18.4223 38.0079 10.2512
      vertex 18.4503 38 10.3979
    endloop
  endfacet
  facet normal 0.982138 0 0.188164
    outer loop
      vertex 18.4126 38 9.79947
      vertex 18.4223 38.0079 9.74884
      vertex 18.4126 38.0079 9.79947
    endloop
  endfacet
  facet normal 0.982235 -0.00361466 0.187619
    outer loop
      vertex 18.4126 38 9.79947
      vertex 18.4503 38 9.6021
      vertex 18.4223 38.0079 9.74884
    endloop
  endfacet
  facet normal 0.982268 0 -0.187481
    outer loop
      vertex 18.4223 38.0079 10.2512
      vertex 18.4503 38.0264 10.3979
      vertex 18.4503 38 10.3979
    endloop
  endfacet
  facet normal 0.982278 0 0.187432
    outer loop
      vertex 18.4223 38.0079 9.74884
      vertex 18.4503 38 9.6021
      vertex 18.4503 38.0264 9.6021
    endloop
  endfacet
  facet normal 0.951045 0 -0.309052
    outer loop
      vertex 18.4503 38 10.3979
      vertex 18.4503 38.0264 10.3979
      vertex 18.5124 38 10.589
    endloop
  endfacet
  facet normal 0.951045 0 0.309052
    outer loop
      vertex 18.4503 38 9.6021
      vertex 18.5124 38 9.411
      vertex 18.4503 38.0264 9.6021
    endloop
  endfacet
  facet normal 0.951045 0 -0.309052
    outer loop
      vertex 18.4503 38.0264 10.3979
      vertex 18.5124 38.0506 10.589
      vertex 18.5124 38 10.589
    endloop
  endfacet
  facet normal 0.951045 0 0.309052
    outer loop
      vertex 18.4503 38.0264 9.6021
      vertex 18.5124 38 9.411
      vertex 18.5124 38.0506 9.411
    endloop
  endfacet
  facet normal 0.904883 0 -0.425661
    outer loop
      vertex 18.5124 38 10.589
      vertex 18.5124 38.0506 10.589
      vertex 18.5879 38.0709 10.7495
    endloop
  endfacet
  facet normal 0.90492 -0.000221147 -0.425581
    outer loop
      vertex 18.5124 38 10.589
      vertex 18.5879 38.0709 10.7495
      vertex 18.5979 38 10.7708
    endloop
  endfacet
  facet normal 0.904913 -0 0.425596
    outer loop
      vertex 18.5124 38 9.411
      vertex 18.5879 38.0709 9.25047
      vertex 18.5124 38.0506 9.411
    endloop
  endfacet
  facet normal 0.904929 -9.40709e-05 0.425562
    outer loop
      vertex 18.5124 38 9.411
      vertex 18.5979 38 9.22919
      vertex 18.5879 38.0709 9.25047
    endloop
  endfacet
  facet normal 0.905204 0 -0.424978
    outer loop
      vertex 18.5879 38.0709 10.7495
      vertex 18.5979 38.0763 10.7708
      vertex 18.5979 38 10.7708
    endloop
  endfacet
  facet normal 0.90505 0 0.425305
    outer loop
      vertex 18.5879 38.0709 9.25047
      vertex 18.5979 38 9.22919
      vertex 18.5979 38.0763 9.22919
    endloop
  endfacet
  facet normal 0.368227 0 -0.929736
    outer loop
      vertex 18.5949 35 12.9859
      vertex 18.5949 38 12.9859
      vertex 18.9802 38 13.1385
    endloop
  endfacet
  facet normal 0.368227 0 -0.929736
    outer loop
      vertex 18.5949 35 12.9859
      vertex 18.9802 38 13.1385
      vertex 18.9802 35 13.1385
    endloop
  endfacet
  facet normal 0.368143 0 0.929769
    outer loop
      vertex 18.5949 35 7.01407
      vertex 18.9802 35 6.86151
      vertex 18.5949 38 7.01407
    endloop
  endfacet
  facet normal 0 -1 0
    outer loop
      vertex 18.5949 38 12.9859
      vertex 19.3188 38 11.4477
      vertex 19.5056 38 11.5217
    endloop
  endfacet
  facet normal 0 -1 0
    outer loop
      vertex 18.5949 38 12.9859
      vertex 19.5056 38 11.5217
      vertex 18.9802 38 13.1385
    endloop
  endfacet
  facet normal 0.368143 0 0.929769
    outer loop
      vertex 18.5949 38 7.01407
      vertex 18.9802 35 6.86151
      vertex 18.9802 38 6.86151
    endloop
  endfacet
  facet normal 0 -1 0
    outer loop
      vertex 18.5949 38 7.01407
      vertex 18.9802 38 6.86151
      vertex 19.5056 38 8.47831
    endloop
  endfacet
  facet normal 0 -1 -0
    outer loop
      vertex 18.5949 38 7.01407
      vertex 19.5056 38 8.47831
      vertex 19.3188 38 8.55228
    endloop
  endfacet
  facet normal 0.844316 0 -0.535845
    outer loop
      vertex 18.5979 38 10.7708
      vertex 18.5979 38.0763 10.7708
      vertex 18.7056 38 10.9405
    endloop
  endfacet
  facet normal 0.844245 0 0.535957
    outer loop
      vertex 18.5979 38 9.22919
      vertex 18.7056 38 9.05954
      vertex 18.5979 38.0763 9.22919
    endloop
  endfacet
  facet normal 0.844316 0 -0.535845
    outer loop
      vertex 18.5979 38.0763 10.7708
      vertex 18.7056 38.1199 10.9405
      vertex 18.7056 38 10.9405
    endloop
  endfacet
  facet normal 0.844245 0 0.535957
    outer loop
      vertex 18.5979 38.0763 9.22919
      vertex 18.7056 38 9.05954
      vertex 18.7056 38.1199 9.05954
    endloop
  endfacet
  facet normal 0.770664 0 -0.637242
    outer loop
      vertex 18.7056 38 10.9405
      vertex 18.7056 38.1199 10.9405
      vertex 18.8336 38 11.0953
    endloop
  endfacet
  facet normal 0.770705 0 0.637193
    outer loop
      vertex 18.7056 38 9.05954
      vertex 18.8336 38 8.90472
      vertex 18.7056 38.1199 9.05954
    endloop
  endfacet
  facet normal 0.770664 0 -0.637242
    outer loop
      vertex 18.7056 38.1199 10.9405
      vertex 18.8336 38.1596 11.0953
      vertex 18.8336 38 11.0953
    endloop
  endfacet
  facet normal 0.770705 0 0.637193
    outer loop
      vertex 18.7056 38.1199 9.05954
      vertex 18.8336 38 8.90472
      vertex 18.8336 38.1596 8.90472
    endloop
  endfacet
  facet normal 0.684355 0 -0.729149
    outer loop
      vertex 18.8336 38 11.0953
      vertex 18.8336 38.1596 11.0953
      vertex 18.9801 38 11.2328
    endloop
  endfacet
  facet normal 0.684461 0 0.72905
    outer loop
      vertex 18.8336 38 8.90472
      vertex 18.9801 38 8.76718
      vertex 18.8336 38.1596 8.90472
    endloop
  endfacet
  facet normal 0.684355 0 -0.729149
    outer loop
      vertex 18.8336 38.1596 11.0953
      vertex 18.9801 38.1949 11.2328
      vertex 18.9801 38 11.2328
    endloop
  endfacet
  facet normal 0.684461 0 0.72905
    outer loop
      vertex 18.8336 38.1596 8.90472
      vertex 18.9801 38 8.76718
      vertex 18.9801 38.1949 8.76718
    endloop
  endfacet
  facet normal 0.591364 0 -0.806405
    outer loop
      vertex 18.9801 38 11.2328
      vertex 18.9801 38.1949 11.2328
      vertex 18.9846 38.1958 11.2361
    endloop
  endfacet
  facet normal 0.587669 0.000130373 -0.809102
    outer loop
      vertex 18.9801 38 11.2328
      vertex 18.9846 38.1958 11.2361
      vertex 19.1427 38 11.3509
    endloop
  endfacet
  facet normal 0.585491 -0 0.810679
    outer loop
      vertex 18.9801 38 8.76718
      vertex 18.9846 38.1958 8.76393
      vertex 18.9801 38.1949 8.76718
    endloop
  endfacet
  facet normal 0.587701 -7.73828e-05 0.809078
    outer loop
      vertex 18.9801 38 8.76718
      vertex 19.1427 38 8.64907
      vertex 18.9846 38.1958 8.76393
    endloop
  endfacet
  facet normal 0.24855 0 -0.968619
    outer loop
      vertex 18.9802 35 13.1385
      vertex 18.9802 38 13.1385
      vertex 19.3816 38 13.2415
    endloop
  endfacet
  facet normal 0.24855 0 -0.968619
    outer loop
      vertex 18.9802 35 13.1385
      vertex 19.3816 38 13.2415
      vertex 19.3816 35 13.2415
    endloop
  endfacet
  facet normal 0.248685 0 0.968584
    outer loop
      vertex 18.9802 35 6.86151
      vertex 19.3816 35 6.75845
      vertex 18.9802 38 6.86151
    endloop
  endfacet
  facet normal 0 -1 0
    outer loop
      vertex 18.9802 38 13.1385
      vertex 19.5056 38 11.5217
      vertex 19.7002 38 11.5717
    endloop
  endfacet
  facet normal 0 -1 0
    outer loop
      vertex 18.9802 38 13.1385
      vertex 19.7002 38 11.5717
      vertex 19.3816 38 13.2415
    endloop
  endfacet
  facet normal 0.248685 0 0.968584
    outer loop
      vertex 18.9802 38 6.86151
      vertex 19.3816 35 6.75845
      vertex 19.3816 38 6.75845
    endloop
  endfacet
  facet normal 0 -1 0
    outer loop
      vertex 18.9802 38 6.86151
      vertex 19.3816 38 6.75845
      vertex 19.7002 38 8.42834
    endloop
  endfacet
  facet normal 0 -1 -0
    outer loop
      vertex 18.9802 38 6.86151
      vertex 19.7002 38 8.42834
      vertex 19.5056 38 8.47831
    endloop
  endfacet
  facet normal 0.587563 0 -0.809179
    outer loop
      vertex 18.9846 38.1958 11.2361
      vertex 19.1427 38.2412 11.3509
      vertex 19.1427 38 11.3509
    endloop
  endfacet
  facet normal 0.587764 0 0.809033
    outer loop
      vertex 18.9846 38.1958 8.76393
      vertex 19.1427 38 8.64907
      vertex 19.1427 38.2412 8.64907
    endloop
  endfacet
  facet normal 0.481709 0 -0.876331
    outer loop
      vertex 19.1427 38 11.3509
      vertex 19.1427 38.2412 11.3509
      vertex 19.3188 38 11.4477
    endloop
  endfacet
  facet normal 0.48167 0 0.876352
    outer loop
      vertex 19.1427 38 8.64907
      vertex 19.3188 38 8.55228
      vertex 19.1427 38.2412 8.64907
    endloop
  endfacet
  facet normal 0.481709 0 -0.876331
    outer loop
      vertex 19.1427 38.2412 11.3509
      vertex 19.3188 38.2796 11.4477
      vertex 19.3188 38 11.4477
    endloop
  endfacet
  facet normal 0.48167 0 0.876352
    outer loop
      vertex 19.1427 38.2412 8.64907
      vertex 19.3188 38 8.55228
      vertex 19.3188 38.2796 8.55228
    endloop
  endfacet
  facet normal 0.368299 0 -0.929707
    outer loop
      vertex 19.3188 38 11.4477
      vertex 19.3188 38.2796 11.4477
      vertex 19.5056 38 11.5217
    endloop
  endfacet
  facet normal 0.36817 0 0.929758
    outer loop
      vertex 19.3188 38 8.55228
      vertex 19.5056 38 8.47831
      vertex 19.3188 38.2796 8.55228
    endloop
  endfacet
  facet normal 0.368299 0 -0.929707
    outer loop
      vertex 19.3188 38.2796 11.4477
      vertex 19.5056 38.3089 11.5217
      vertex 19.5056 38 11.5217
    endloop
  endfacet
  facet normal 0.36817 0 0.929758
    outer loop
      vertex 19.3188 38.2796 8.55228
      vertex 19.5056 38 8.47831
      vertex 19.5056 38.3089 8.47831
    endloop
  endfacet
  facet normal 0.12546 0 -0.992099
    outer loop
      vertex 19.3816 35 13.2415
      vertex 19.3816 38 13.2415
      vertex 19.7928 38 13.2935
    endloop
  endfacet
  facet normal 0.12546 0 -0.992099
    outer loop
      vertex 19.3816 35 13.2415
      vertex 19.7928 38 13.2935
      vertex 19.7928 35 13.2935
    endloop
  endfacet
  facet normal 0.125317 0 0.992117
    outer loop
      vertex 19.3816 35 6.75845
      vertex 19.7928 35 6.70651
      vertex 19.3816 38 6.75845
    endloop
  endfacet
  facet normal 0 -1 0
    outer loop
      vertex 19.3816 38 13.2415
      vertex 19.7002 38 11.5717
      vertex 19.8995 38 11.5968
    endloop
  endfacet
  facet normal 0 -1 0
    outer loop
      vertex 19.3816 38 13.2415
      vertex 19.8995 38 11.5968
      vertex 19.7928 38 13.2935
    endloop
  endfacet
  facet normal 0.125317 0 0.992117
    outer loop
      vertex 19.3816 38 6.75845
      vertex 19.7928 35 6.70651
      vertex 19.7928 38 6.70651
    endloop
  endfacet
  facet normal 0 -1 0
    outer loop
      vertex 19.3816 38 6.75845
      vertex 19.7928 38 6.70651
      vertex 19.8995 38 8.40316
    endloop
  endfacet
  facet normal 0 -1 -0
    outer loop
      vertex 19.3816 38 6.75845
      vertex 19.8995 38 8.40316
      vertex 19.7002 38 8.42834
    endloop
  endfacet
  facet normal 0.248854 0 -0.968541
    outer loop
      vertex 19.5056 38 11.5217
      vertex 19.5056 38.3089 11.5217
      vertex 19.7002 38 11.5717
    endloop
  endfacet
  facet normal 0.248714 0 0.968577
    outer loop
      vertex 19.5056 38 8.47831
      vertex 19.7002 38 8.42834
      vertex 19.5056 38.3089 8.47831
    endloop
  endfacet
  facet normal 0.248854 0 -0.968541
    outer loop
      vertex 19.5056 38.3089 11.5217
      vertex 19.7002 38.3286 11.5717
      vertex 19.7002 38 11.5717
    endloop
  endfacet
  facet normal 0.248714 0 0.968577
    outer loop
      vertex 19.5056 38.3089 8.47831
      vertex 19.7002 38 8.42834
      vertex 19.7002 38.3286 8.42834
    endloop
  endfacet
  facet normal 0.124954 0 -0.992163
    outer loop
      vertex 19.7002 38 11.5717
      vertex 19.7002 38.3286 11.5717
      vertex 19.8995 38 11.5968
    endloop
  endfacet
  facet normal 0.125346 0 0.992113
    outer loop
      vertex 19.7002 38 8.42834
      vertex 19.8995 38 8.40316
      vertex 19.7002 38.3286 8.42834
    endloop
  endfacet
  facet normal 0.124954 0 -0.992163
    outer loop
      vertex 19.7002 38.3286 11.5717
      vertex 19.8995 38.3386 11.5968
      vertex 19.8995 38 11.5968
    endloop
  endfacet
  facet normal 0.125346 0 0.992113
    outer loop
      vertex 19.7002 38.3286 8.42834
      vertex 19.8995 38 8.40316
      vertex 19.8995 38.3386 8.40316
    endloop
  endfacet
  facet normal -0 0 -1
    outer loop
      vertex 19.7928 35 13.2935
      vertex 19.7928 38 13.2935
      vertex 20.2072 38 13.2935
    endloop
  endfacet
  facet normal 0 -1 0
    outer loop
      vertex 19.7928 35 13.2935
      vertex 20.2072 35 13.2935
      vertex 30 35 20
    endloop
  endfacet
  facet normal 0 0 -1
    outer loop
      vertex 19.7928 35 13.2935
      vertex 20.2072 38 13.2935
      vertex 20.2072 35 13.2935
    endloop
  endfacet
  facet normal 0 0 1
    outer loop
      vertex 19.7928 35 6.70651
      vertex 20.2072 35 6.70651
      vertex 19.7928 38 6.70651
    endloop
  endfacet
  facet normal 0 -1 0
    outer loop
      vertex 19.7928 38 13.2935
      vertex 19.8995 38 11.5968
      vertex 20.2072 38 13.2935
    endloop
  endfacet
  facet normal 0 -1 -0
    outer loop
      vertex 19.7928 38 6.70651
      vertex 20.1005 38 8.40316
      vertex 19.8995 38 8.40316
    endloop
  endfacet
  facet normal -0 0 1
    outer loop
      vertex 19.7928 38 6.70651
      vertex 20.2072 35 6.70651
      vertex 20.2072 38 6.70651
    endloop
  endfacet
  facet normal 0 -1 0
    outer loop
      vertex 19.7928 38 6.70651
      vertex 20.2072 38 6.70651
      vertex 20.1005 38 8.40316
    endloop
  endfacet
  facet normal -0 0 -1
    outer loop
      vertex 19.8995 38 11.5968
      vertex 19.8995 38.3386 11.5968
      vertex 20.1005 38.3386 11.5968
    endloop
  endfacet
  facet normal 0 -1 0
    outer loop
      vertex 19.8995 38 11.5968
      vertex 20.1005 38 11.5968
      vertex 20.2072 38 13.2935
    endloop
  endfacet
  facet normal 0 0 -1
    outer loop
      vertex 19.8995 38 11.5968
      vertex 20.1005 38.3386 11.5968
      vertex 20.1005 38 11.5968
    endloop
  endfacet
  facet normal 0 0 1
    outer loop
      vertex 19.8995 38 8.40316
      vertex 20.1005 38 8.40316
      vertex 19.8995 38.3386 8.40316
    endloop
  endfacet
  facet normal -0 0 1
    outer loop
      vertex 19.8995 38.3386 8.40316
      vertex 20.1005 38 8.40316
      vertex 20.1005 38.3386 8.40316
    endloop
  endfacet
  facet normal 0 0.929714 0.368282
    outer loop
      vertex 19.8995 38.3386 8.40316
      vertex 20.1005 38.3386 8.40316
      vertex 30 38.3807 8.29688
    endloop
  endfacet
  facet normal -0.124954 0 -0.992163
    outer loop
      vertex 20.1005 38 11.5968
      vertex 20.1005 38.3386 11.5968
      vertex 20.2998 38.3286 11.5717
    endloop
  endfacet
  facet normal 0 -1 0
    outer loop
      vertex 20.1005 38 11.5968
      vertex 20.2998 38 11.5717
      vertex 20.6184 38 13.2415
    endloop
  endfacet
  facet normal -0.124954 0 -0.992163
    outer loop
      vertex 20.1005 38 11.5968
      vertex 20.2998 38.3286 11.5717
      vertex 20.2998 38 11.5717
    endloop
  endfacet
  facet normal 0 -1 -0
    outer loop
      vertex 20.1005 38 11.5968
      vertex 20.6184 38 13.2415
      vertex 20.2072 38 13.2935
    endloop
  endfacet
  facet normal 0 -1 0
    outer loop
      vertex 20.1005 38 8.40316
      vertex 20.2072 38 6.70651
      vertex 20.6184 38 6.75845
    endloop
  endfacet
  facet normal -0.125346 0 0.992113
    outer loop
      vertex 20.1005 38 8.40316
      vertex 20.2998 38 8.42834
      vertex 20.2998 38.3286 8.42834
    endloop
  endfacet
  facet normal -0.125346 0 0.992113
    outer loop
      vertex 20.1005 38 8.40316
      vertex 20.2998 38.3286 8.42834
      vertex 20.1005 38.3386 8.40316
    endloop
  endfacet
  facet normal 0 -1 0
    outer loop
      vertex 20.1005 38 8.40316
      vertex 20.6184 38 6.75845
      vertex 20.2998 38 8.42834
    endloop
  endfacet
  facet normal 2.16704e-05 0.929045 -0.369966
    outer loop
      vertex 20.1005 38.3386 11.5968
      vertex 30 38.3807 11.7031
      vertex 20.2998 38.3286 11.5717
    endloop
  endfacet
  facet normal 9.35426e-06 0.929416 0.369035
    outer loop
      vertex 20.1005 38.3386 8.40316
      vertex 20.2998 38.3286 8.42834
      vertex 30 38.3807 8.29688
    endloop
  endfacet
  facet normal -0.12546 0 -0.992099
    outer loop
      vertex 20.2072 35 13.2935
      vertex 20.2072 38 13.2935
      vertex 20.6184 38 13.2415
    endloop
  endfacet
  facet normal 0 -1 0
    outer loop
      vertex 20.2072 35 13.2935
      vertex 20.6184 35 13.2415
      vertex 30 35 20
    endloop
  endfacet
  facet normal -0.12546 0 -0.992099
    outer loop
      vertex 20.2072 35 13.2935
      vertex 20.6184 38 13.2415
      vertex 20.6184 35 13.2415
    endloop
  endfacet
  facet normal -0.125317 0 0.992117
    outer loop
      vertex 20.2072 35 6.70651
      vertex 20.6184 35 6.75845
      vertex 20.2072 38 6.70651
    endloop
  endfacet
  facet normal 0 -1 0
    outer loop
      vertex 20.2072 35 6.70651
      vertex 30 35 0
      vertex 20.6184 35 6.75845
    endloop
  endfacet
  facet normal -0.125317 0 0.992117
    outer loop
      vertex 20.2072 38 6.70651
      vertex 20.6184 35 6.75845
      vertex 20.6184 38 6.75845
    endloop
  endfacet
  facet normal -0.248854 0 -0.968541
    outer loop
      vertex 20.2998 38 11.5717
      vertex 20.2998 38.3286 11.5717
      vertex 20.4944 38.3089 11.5217
    endloop
  endfacet
  facet normal 0 -1 0
    outer loop
      vertex 20.2998 38 11.5717
      vertex 20.4944 38 11.5217
      vertex 21.0198 38 13.1385
    endloop
  endfacet
  facet normal -0.248854 0 -0.968541
    outer loop
      vertex 20.2998 38 11.5717
      vertex 20.4944 38.3089 11.5217
      vertex 20.4944 38 11.5217
    endloop
  endfacet
  facet normal 0 -1 -0
    outer loop
      vertex 20.2998 38 11.5717
      vertex 21.0198 38 13.1385
      vertex 20.6184 38 13.2415
    endloop
  endfacet
  facet normal -0.248714 0 0.968577
    outer loop
      vertex 20.2998 38 8.42834
      vertex 20.4944 38 8.47831
      vertex 20.4944 38.3089 8.47831
    endloop
  endfacet
  facet normal -0.248714 0 0.968577
    outer loop
      vertex 20.2998 38 8.42834
      vertex 20.4944 38.3089 8.47831
      vertex 20.2998 38.3286 8.42834
    endloop
  endfacet
  facet normal 0 -1 0
    outer loop
      vertex 20.2998 38 8.42834
      vertex 20.6184 38 6.75845
      vertex 21.0198 38 6.86151
    endloop
  endfacet
  facet normal 0 -1 0
    outer loop
      vertex 20.2998 38 8.42834
      vertex 21.0198 38 6.86151
      vertex 20.4944 38 8.47831
    endloop
  endfacet
  facet normal -2.99196e-05 0.930349 -0.366674
    outer loop
      vertex 20.2998 38.3286 11.5717
      vertex 30 38.3807 11.7031
      vertex 20.4944 38.3089 11.5217
    endloop
  endfacet
  facet normal -2.49296e-05 0.930281 0.366848
    outer loop
      vertex 20.2998 38.3286 8.42834
      vertex 20.4944 38.3089 8.47831
      vertex 30 38.3807 8.29688
    endloop
  endfacet
  facet normal -0.368299 0 -0.929707
    outer loop
      vertex 20.4944 38 11.5217
      vertex 20.4944 38.3089 11.5217
      vertex 20.6812 38.2796 11.4477
    endloop
  endfacet
  facet normal 0 -1 0
    outer loop
      vertex 20.4944 38 11.5217
      vertex 20.6812 38 11.4477
      vertex 21.4051 38 12.9859
    endloop
  endfacet
  facet normal -0.368299 0 -0.929707
    outer loop
      vertex 20.4944 38 11.5217
      vertex 20.6812 38.2796 11.4477
      vertex 20.6812 38 11.4477
    endloop
  endfacet
  facet normal 0 -1 -0
    outer loop
      vertex 20.4944 38 11.5217
      vertex 21.4051 38 12.9859
      vertex 21.0198 38 13.1385
    endloop
  endfacet
  facet normal -0.36817 0 0.929758
    outer loop
      vertex 20.4944 38 8.47831
      vertex 20.6812 38 8.55228
      vertex 20.6812 38.2796 8.55228
    endloop
  endfacet
  facet normal -0.36817 0 0.929758
    outer loop
      vertex 20.4944 38 8.47831
      vertex 20.6812 38.2796 8.55228
      vertex 20.4944 38.3089 8.47831
    endloop
  endfacet
  facet normal 0 -1 0
    outer loop
      vertex 20.4944 38 8.47831
      vertex 21.0198 38 6.86151
      vertex 21.4051 38 7.01407
    endloop
  endfacet
  facet normal 0 -1 0
    outer loop
      vertex 20.4944 38 8.47831
      vertex 21.4051 38 7.01407
      vertex 20.6812 38 8.55228
    endloop
  endfacet
  facet normal 2.29511e-06 0.929773 -0.368134
    outer loop
      vertex 20.4944 38.3089 11.5217
      vertex 30 38.3807 11.7031
      vertex 20.6812 38.2796 11.4477
    endloop
  endfacet
  facet normal 6.12189e-06 0.929725 0.368255
    outer loop
      vertex 20.4944 38.3089 8.47831
      vertex 20.6812 38.2796 8.55228
      vertex 30 38.3807 8.29688
    endloop
  endfacet
  facet normal -0.24855 0 -0.968619
    outer loop
      vertex 20.6184 35 13.2415
      vertex 20.6184 38 13.2415
      vertex 21.0198 38 13.1385
    endloop
  endfacet
  facet normal 0 -1 0
    outer loop
      vertex 20.6184 35 13.2415
      vertex 21.0198 35 13.1385
      vertex 30 35 20
    endloop
  endfacet
  facet normal -0.24855 0 -0.968619
    outer loop
      vertex 20.6184 35 13.2415
      vertex 21.0198 38 13.1385
      vertex 21.0198 35 13.1385
    endloop
  endfacet
  facet normal -0.248685 0 0.968584
    outer loop
      vertex 20.6184 35 6.75845
      vertex 21.0198 35 6.86151
      vertex 20.6184 38 6.75845
    endloop
  endfacet
  facet normal 0 -1 0
    outer loop
      vertex 20.6184 35 6.75845
      vertex 30 35 0
      vertex 21.0198 35 6.86151
    endloop
  endfacet
  facet normal -0.248685 0 0.968584
    outer loop
      vertex 20.6184 38 6.75845
      vertex 21.0198 35 6.86151
      vertex 21.0198 38 6.86151
    endloop
  endfacet
  facet normal -0.481709 0 -0.876331
    outer loop
      vertex 20.6812 38 11.4477
      vertex 20.6812 38.2796 11.4477
      vertex 20.8573 38.2412 11.3509
    endloop
  endfacet
  facet normal 0 -1 0
    outer loop
      vertex 20.6812 38 11.4477
      vertex 20.8573 38 11.3509
      vertex 21.7682 38 12.7863
    endloop
  endfacet
  facet normal -0.481709 0 -0.876331
    outer loop
      vertex 20.6812 38 11.4477
      vertex 20.8573 38.2412 11.3509
      vertex 20.8573 38 11.3509
    endloop
  endfacet
  facet normal 0 -1 -0
    outer loop
      vertex 20.6812 38 11.4477
      vertex 21.7682 38 12.7863
      vertex 21.4051 38 12.9859
    endloop
  endfacet
  facet normal -0.48167 0 0.876352
    outer loop
      vertex 20.6812 38 8.55228
      vertex 20.8573 38 8.64907
      vertex 20.8573 38.2412 8.64907
    endloop
  endfacet
  facet normal -0.48167 0 0.876352
    outer loop
      vertex 20.6812 38 8.55228
      vertex 20.8573 38.2412 8.64907
      vertex 20.6812 38.2796 8.55228
    endloop
  endfacet
  facet normal 0 -1 0
    outer loop
      vertex 20.6812 38 8.55228
      vertex 21.4051 38 7.01407
      vertex 21.7682 38 7.21372
    endloop
  endfacet
  facet normal 0 -1 0
    outer loop
      vertex 20.6812 38 8.55228
      vertex 21.7682 38 7.21372
      vertex 20.8573 38 8.64907
    endloop
  endfacet
  facet normal 2.04944e-05 0.929545 -0.368708
    outer loop
      vertex 20.6812 38.2796 11.4477
      vertex 30 38.3807 11.7031
      vertex 20.8573 38.2412 11.3509
    endloop
  endfacet
  facet normal 2.14885e-05 0.929533 0.368739
    outer loop
      vertex 20.6812 38.2796 8.55228
      vertex 20.8573 38.2412 8.64907
      vertex 30 38.3807 8.29688
    endloop
  endfacet
  facet normal -0.587563 0 -0.809179
    outer loop
      vertex 20.8573 38 11.3509
      vertex 20.8573 38.2412 11.3509
      vertex 21.0154 38.1958 11.2361
    endloop
  endfacet
  facet normal -0.587669 0.000130373 -0.809102
    outer loop
      vertex 20.8573 38 11.3509
      vertex 21.0154 38.1958 11.2361
      vertex 21.0199 38 11.2328
    endloop
  endfacet
  facet normal 0 -1 0
    outer loop
      vertex 20.8573 38 11.3509
      vertex 21.0199 38 11.2328
      vertex 22.1035 38 12.5427
    endloop
  endfacet
  facet normal 0 -1 -0
    outer loop
      vertex 20.8573 38 11.3509
      vertex 22.1035 38 12.5427
      vertex 21.7682 38 12.7863
    endloop
  endfacet
  facet normal -0.587764 0 0.809033
    outer loop
      vertex 20.8573 38 8.64907
      vertex 21.0154 38.1958 8.76393
      vertex 20.8573 38.2412 8.64907
    endloop
  endfacet
  facet normal -0.587701 -7.73828e-05 0.809078
    outer loop
      vertex 20.8573 38 8.64907
      vertex 21.0199 38 8.76718
      vertex 21.0154 38.1958 8.76393
    endloop
  endfacet
  facet normal 0 -1 0
    outer loop
      vertex 20.8573 38 8.64907
      vertex 21.7682 38 7.21372
      vertex 22.1035 38 7.45731
    endloop
  endfacet
  facet normal 0 -1 0
    outer loop
      vertex 20.8573 38 8.64907
      vertex 22.1035 38 7.45731
      vertex 21.0199 38 8.76718
    endloop
  endfacet
  facet normal -2.07981e-05 0.929912 -0.367781
    outer loop
      vertex 20.8573 38.2412 11.3509
      vertex 30 38.3807 11.7031
      vertex 21.0154 38.1958 11.2361
    endloop
  endfacet
  facet normal -2.82101e-05 0.929974 0.367624
    outer loop
      vertex 20.8573 38.2412 8.64907
      vertex 21.0154 38.1958 8.76393
      vertex 30 38.3807 8.29688
    endloop
  endfacet
  facet normal -0.591364 0 -0.806405
    outer loop
      vertex 21.0154 38.1958 11.2361
      vertex 21.0199 38.1949 11.2328
      vertex 21.0199 38 11.2328
    endloop
  endfacet
  facet normal 0 0.964764 -0.263117
    outer loop
      vertex 21.0154 38.1958 11.2361
      vertex 30 38.1958 11.2361
      vertex 21.0199 38.1949 11.2328
    endloop
  endfacet
  facet normal 0 0.929775 -0.368127
    outer loop
      vertex 21.0154 38.1958 11.2361
      vertex 30 38.3807 11.7031
      vertex 30 38.1958 11.2361
    endloop
  endfacet
  facet normal -0.585491 0 0.810679
    outer loop
      vertex 21.0154 38.1958 8.76393
      vertex 21.0199 38 8.76718
      vertex 21.0199 38.1949 8.76718
    endloop
  endfacet
  facet normal 0 0.96373 0.266879
    outer loop
      vertex 21.0154 38.1958 8.76393
      vertex 21.0199 38.1949 8.76718
      vertex 30 38.1958 8.76393
    endloop
  endfacet
  facet normal 0 0.929789 0.368093
    outer loop
      vertex 21.0154 38.1958 8.76393
      vertex 30 38.1958 8.76393
      vertex 30 38.3807 8.29688
    endloop
  endfacet
  facet normal -0.368227 0 -0.929736
    outer loop
      vertex 21.0198 35 13.1385
      vertex 21.0198 38 13.1385
      vertex 21.4051 38 12.9859
    endloop
  endfacet
  facet normal 0 -1 0
    outer loop
      vertex 21.0198 35 13.1385
      vertex 21.4051 35 12.9859
      vertex 30 35 20
    endloop
  endfacet
  facet normal -0.368227 0 -0.929736
    outer loop
      vertex 21.0198 35 13.1385
      vertex 21.4051 38 12.9859
      vertex 21.4051 35 12.9859
    endloop
  endfacet
  facet normal -0.368143 0 0.929769
    outer loop
      vertex 21.0198 35 6.86151
      vertex 21.4051 35 7.01407
      vertex 21.0198 38 6.86151
    endloop
  endfacet
  facet normal 0 -1 0
    outer loop
      vertex 21.0198 35 6.86151
      vertex 30 35 0
      vertex 21.4051 35 7.01407
    endloop
  endfacet
  facet normal -0.368143 0 0.929769
    outer loop
      vertex 21.0198 38 6.86151
      vertex 21.4051 35 7.01407
      vertex 21.4051 38 7.01407
    endloop
  endfacet
  facet normal -0.684603 0 -0.728916
    outer loop
      vertex 21.0199 38 11.2328
      vertex 21.0199 38.1949 11.2328
      vertex 21.1663 38.1596 11.0953
    endloop
  endfacet
  facet normal 0 -1 0
    outer loop
      vertex 21.0199 38 11.2328
      vertex 21.1663 38 11.0953
      vertex 22.4056 38 12.259
    endloop
  endfacet
  facet normal -0.684603 0 -0.728916
    outer loop
      vertex 21.0199 38 11.2328
      vertex 21.1663 38.1596 11.0953
      vertex 21.1663 38 11.0953
    endloop
  endfacet
  facet normal 0 -1 -0
    outer loop
      vertex 21.0199 38 11.2328
      vertex 22.4056 38 12.259
      vertex 22.1035 38 12.5427
    endloop
  endfacet
  facet normal -0.684709 0 0.728816
    outer loop
      vertex 21.0199 38 8.76718
      vertex 21.1663 38 8.90472
      vertex 21.1663 38.1596 8.90472
    endloop
  endfacet
  facet normal -0.684709 0 0.728816
    outer loop
      vertex 21.0199 38 8.76718
      vertex 21.1663 38.1596 8.90472
      vertex 21.0199 38.1949 8.76718
    endloop
  endfacet
  facet normal 0 -1 0
    outer loop
      vertex 21.0199 38 8.76718
      vertex 22.1035 38 7.45731
      vertex 22.4056 38 7.74099
    endloop
  endfacet
  facet normal 0 -1 0
    outer loop
      vertex 21.0199 38 8.76718
      vertex 22.4056 38 7.74099
      vertex 21.1663 38 8.90472
    endloop
  endfacet
  facet normal -5.69275e-06 0.968588 -0.248669
    outer loop
      vertex 21.0199 38.1949 11.2328
      vertex 30 38.1958 11.2361
      vertex 21.1663 38.1596 11.0953
    endloop
  endfacet
  facet normal -7.10306e-06 0.968606 0.248603
    outer loop
      vertex 21.0199 38.1949 8.76718
      vertex 21.1663 38.1596 8.90472
      vertex 30 38.1958 8.76393
    endloop
  endfacet
  facet normal -0.77042 0 -0.637537
    outer loop
      vertex 21.1663 38 11.0953
      vertex 21.1663 38.1596 11.0953
      vertex 21.2944 38.1199 10.9405
    endloop
  endfacet
  facet normal 0 -1 0
    outer loop
      vertex 21.1663 38 11.0953
      vertex 21.2944 38 10.9405
      vertex 22.6698 38 11.9397
    endloop
  endfacet
  facet normal -0.77042 0 -0.637537
    outer loop
      vertex 21.1663 38 11.0953
      vertex 21.2944 38.1199 10.9405
      vertex 21.2944 38 10.9405
    endloop
  endfacet
  facet normal 0 -1 -0
    outer loop
      vertex 21.1663 38 11.0953
      vertex 22.6698 38 11.9397
      vertex 22.4056 38 12.259
    endloop
  endfacet
  facet normal -0.77046 0 0.637488
    outer loop
      vertex 21.1663 38 8.90472
      vertex 21.2944 38 9.05954
      vertex 21.2944 38.1199 9.05954
    endloop
  endfacet
  facet normal -0.77046 0 0.637488
    outer loop
      vertex 21.1663 38 8.90472
      vertex 21.2944 38.1199 9.05954
      vertex 21.1663 38.1596 8.90472
    endloop
  endfacet
  facet normal 0 -1 0
    outer loop
      vertex 21.1663 38 8.90472
      vertex 22.4056 38 7.74099
      vertex 22.6698 38 8.06031
    endloop
  endfacet
  facet normal 0 -1 0
    outer loop
      vertex 21.1663 38 8.90472
      vertex 22.6698 38 8.06031
      vertex 21.2944 38 9.05954
    endloop
  endfacet
  facet normal -9.78793e-06 0.96865 -0.248428
    outer loop
      vertex 21.1663 38.1596 11.0953
      vertex 30 38.1958 11.2361
      vertex 21.2944 38.1199 10.9405
    endloop
  endfacet
  facet normal -1.05704e-05 0.968658 0.248399
    outer loop
      vertex 21.1663 38.1596 8.90472
      vertex 21.2944 38.1199 9.05954
      vertex 30 38.1958 8.76393
    endloop
  endfacet
  facet normal -0.844316 0 -0.535845
    outer loop
      vertex 21.2944 38 10.9405
      vertex 21.2944 38.1199 10.9405
      vertex 21.4021 38.0763 10.7708
    endloop
  endfacet
  facet normal 0 -1 0
    outer loop
      vertex 21.2944 38 10.9405
      vertex 21.4021 38 10.7708
      vertex 22.8918 38 11.5898
    endloop
  endfacet
  facet normal -0.844316 0 -0.535845
    outer loop
      vertex 21.2944 38 10.9405
      vertex 21.4021 38.0763 10.7708
      vertex 21.4021 38 10.7708
    endloop
  endfacet
  facet normal 0 -1 -0
    outer loop
      vertex 21.2944 38 10.9405
      vertex 22.8918 38 11.5898
      vertex 22.6698 38 11.9397
    endloop
  endfacet
  facet normal -0.844245 0 0.535957
    outer loop
      vertex 21.2944 38 9.05954
      vertex 21.4021 38 9.22919
      vertex 21.4021 38.0763 9.22919
    endloop
  endfacet
  facet normal -0.844245 0 0.535957
    outer loop
      vertex 21.2944 38 9.05954
      vertex 21.4021 38.0763 9.22919
      vertex 21.2944 38.1199 9.05954
    endloop
  endfacet
  facet normal 0 -1 0
    outer loop
      vertex 21.2944 38 9.05954
      vertex 22.6698 38 8.06031
      vertex 22.8918 38 8.41021
    endloop
  endfacet
  facet normal 0 -1 0
    outer loop
      vertex 21.2944 38 9.05954
      vertex 22.8918 38 8.41021
      vertex 21.4021 38 9.22919
    endloop
  endfacet
  facet normal 5.08924e-06 0.968545 -0.248839
    outer loop
      vertex 21.2944 38.1199 10.9405
      vertex 30 38.1958 11.2361
      vertex 21.4021 38.0763 10.7708
    endloop
  endfacet
  facet normal 7.80668e-06 0.968528 0.248906
    outer loop
      vertex 21.2944 38.1199 9.05954
      vertex 21.4021 38.0763 9.22919
      vertex 30 38.1958 8.76393
    endloop
  endfacet
  facet normal -0.905204 0 -0.424978
    outer loop
      vertex 21.4021 38 10.7708
      vertex 21.4021 38.0763 10.7708
      vertex 21.4121 38.0709 10.7495
    endloop
  endfacet
  facet normal -0.90492 -0.000221147 -0.425581
    outer loop
      vertex 21.4021 38 10.7708
      vertex 21.4121 38.0709 10.7495
      vertex 21.4876 38 10.589
    endloop
  endfacet
  facet normal 0 -1 0
    outer loop
      vertex 21.4021 38 10.7708
      vertex 21.4876 38 10.589
      vertex 23.0683 38 11.2148
    endloop
  endfacet
  facet normal 0 -1 -0
    outer loop
      vertex 21.4021 38 10.7708
      vertex 23.0683 38 11.2148
      vertex 22.8918 38 11.5898
    endloop
  endfacet
  facet normal -0.90505 0 0.425305
    outer loop
      vertex 21.4021 38 9.22919
      vertex 21.4121 38.0709 9.25047
      vertex 21.4021 38.0763 9.22919
    endloop
  endfacet
  facet normal -0.904929 -9.40709e-05 0.425562
    outer loop
      vertex 21.4021 38 9.22919
      vertex 21.4876 38 9.411
      vertex 21.4121 38.0709 9.25047
    endloop
  endfacet
  facet normal 0 -1 0
    outer loop
      vertex 21.4021 38 9.22919
      vertex 22.8918 38 8.41021
      vertex 23.0683 38 8.78519
    endloop
  endfacet
  facet normal 0 -1 0
    outer loop
      vertex 21.4021 38 9.22919
      vertex 23.0683 38 8.78519
      vertex 21.4876 38 9.411
    endloop
  endfacet
  facet normal -0.000168944 0.969315 -0.245821
    outer loop
      vertex 21.4021 38.0763 10.7708
      vertex 30 38.1958 11.2361
      vertex 21.4121 38.0709 10.7495
    endloop
  endfacet
  facet normal -0.000157858 0.969261 0.246033
    outer loop
      vertex 21.4021 38.0763 9.22919
      vertex 21.4121 38.0709 9.25047
      vertex 30 38.1958 8.76393
    endloop
  endfacet
  facet normal -0.481724 0 -0.876323
    outer loop
      vertex 21.4051 35 12.9859
      vertex 21.4051 38 12.9859
      vertex 21.7682 38 12.7863
    endloop
  endfacet
  facet normal 0 -1 0
    outer loop
      vertex 21.4051 35 12.9859
      vertex 21.7682 35 12.7863
      vertex 30 35 20
    endloop
  endfacet
  facet normal -0.481724 0 -0.876323
    outer loop
      vertex 21.4051 35 12.9859
      vertex 21.7682 38 12.7863
      vertex 21.7682 35 12.7863
    endloop
  endfacet
  facet normal -0.481817 0 0.876272
    outer loop
      vertex 21.4051 35 7.01407
      vertex 21.7682 35 7.21372
      vertex 21.4051 38 7.01407
    endloop
  endfacet
  facet normal 0 -1 0
    outer loop
      vertex 21.4051 35 7.01407
      vertex 30 35 0
      vertex 21.7682 35 7.21372
    endloop
  endfacet
  facet normal -0.481817 0 0.876272
    outer loop
      vertex 21.4051 38 7.01407
      vertex 21.7682 35 7.21372
      vertex 21.7682 38 7.21372
    endloop
  endfacet
  facet normal -0.904883 0 -0.425661
    outer loop
      vertex 21.4121 38.0709 10.7495
      vertex 21.4876 38.0506 10.589
      vertex 21.4876 38 10.589
    endloop
  endfacet
  facet normal 0 0.992096 -0.12548
    outer loop
      vertex 21.4121 38.0709 10.7495
      vertex 30 38.0709 10.7495
      vertex 21.4876 38.0506 10.589
    endloop
  endfacet
  facet normal 0 0.968601 -0.24862
    outer loop
      vertex 21.4121 38.0709 10.7495
      vertex 30 38.1958 11.2361
      vertex 30 38.0709 10.7495
    endloop
  endfacet
  facet normal -0.904913 0 0.425596
    outer loop
      vertex 21.4121 38.0709 9.25047
      vertex 21.4876 38 9.411
      vertex 21.4876 38.0506 9.411
    endloop
  endfacet
  facet normal 0 0.992099 0.125457
    outer loop
      vertex 21.4121 38.0709 9.25047
      vertex 21.4876 38.0506 9.411
      vertex 30 38.0709 9.25047
    endloop
  endfacet
  facet normal 0 0.968594 0.248648
    outer loop
      vertex 21.4121 38.0709 9.25047
      vertex 30 38.0709 9.25047
      vertex 30 38.1958 8.76393
    endloop
  endfacet
  facet normal -0.951045 0 -0.309052
    outer loop
      vertex 21.4876 38 10.589
      vertex 21.4876 38.0506 10.589
      vertex 21.5497 38.0264 10.3979
    endloop
  endfacet
  facet normal 0 -1 0
    outer loop
      vertex 21.4876 38 10.589
      vertex 21.5497 38 10.3979
      vertex 23.1963 38 10.8207
    endloop
  endfacet
  facet normal -0.951045 0 -0.309052
    outer loop
      vertex 21.4876 38 10.589
      vertex 21.5497 38.0264 10.3979
      vertex 21.5497 38 10.3979
    endloop
  endfacet
  facet normal 0 -1 -0
    outer loop
      vertex 21.4876 38 10.589
      vertex 23.1963 38 10.8207
      vertex 23.0683 38 11.2148
    endloop
  endfacet
  facet normal -0.951045 0 0.309052
    outer loop
      vertex 21.4876 38 9.411
      vertex 21.5497 38 9.6021
      vertex 21.5497 38.0264 9.6021
    endloop
  endfacet
  facet normal -0.951045 0 0.309052
    outer loop
      vertex 21.4876 38 9.411
      vertex 21.5497 38.0264 9.6021
      vertex 21.4876 38.0506 9.411
    endloop
  endfacet
  facet normal 0 -1 0
    outer loop
      vertex 21.4876 38 9.411
      vertex 23.0683 38 8.78519
      vertex 23.1963 38 9.17932
    endloop
  endfacet
  facet normal 0 -1 0
    outer loop
      vertex 21.4876 38 9.411
      vertex 23.1963 38 9.17932
      vertex 21.5497 38 9.6021
    endloop
  endfacet
  facet normal 2.89133e-06 0.992077 -0.125631
    outer loop
      vertex 21.4876 38.0506 10.589
      vertex 30 38.0709 10.7495
      vertex 21.5497 38.0264 10.3979
    endloop
  endfacet
  facet normal 3.33139e-06 0.992077 0.125631
    outer loop
      vertex 21.4876 38.0506 9.411
      vertex 21.5497 38.0264 9.6021
      vertex 30 38.0709 9.25047
    endloop
  endfacet
  facet normal -0.982268 0 -0.187481
    outer loop
      vertex 21.5497 38 10.3979
      vertex 21.5497 38.0264 10.3979
      vertex 21.5777 38.0079 10.2512
    endloop
  endfacet
  facet normal -0.982245 -0.00213523 -0.187592
    outer loop
      vertex 21.5497 38 10.3979
      vertex 21.5777 38.0079 10.2512
      vertex 21.5874 38 10.2005
    endloop
  endfacet
  facet normal 0 -1 0
    outer loop
      vertex 21.5497 38 10.3979
      vertex 21.5874 38 10.2005
      vertex 23.274 38 10.4136
    endloop
  endfacet
  facet normal 0 -1 -0
    outer loop
      vertex 21.5497 38 10.3979
      vertex 23.274 38 10.4136
      vertex 23.1963 38 10.8207
    endloop
  endfacet
  facet normal -0.982278 0 0.187432
    outer loop
      vertex 21.5497 38 9.6021
      vertex 21.5777 38.0079 9.74884
      vertex 21.5497 38.0264 9.6021
    endloop
  endfacet
  facet normal -0.982235 -0.00361466 0.187619
    outer loop
      vertex 21.5497 38 9.6021
      vertex 21.5874 38 9.79947
      vertex 21.5777 38.0079 9.74884
    endloop
  endfacet
  facet normal 0 -1 0
    outer loop
      vertex 21.5497 38 9.6021
      vertex 23.1963 38 9.17932
      vertex 23.274 38 9.5864
    endloop
  endfacet
  facet normal 0 -1 0
    outer loop
      vertex 21.5497 38 9.6021
      vertex 23.274 38 9.5864
      vertex 21.5874 38 9.79947
    endloop
  endfacet
  facet normal -1.86994e-05 0.992142 -0.12512
    outer loop
      vertex 21.5497 38.0264 10.3979
      vertex 30 38.0709 10.7495
      vertex 21.5777 38.0079 10.2512
    endloop
  endfacet
  facet normal -1.96668e-05 0.992146 0.125087
    outer loop
      vertex 21.5497 38.0264 9.6021
      vertex 21.5777 38.0079 9.74884
      vertex 30 38.0709 9.25047
    endloop
  endfacet
  facet normal -0.982186 -0 -0.187913
    outer loop
      vertex 21.5777 38.0079 10.2512
      vertex 21.5874 38.0079 10.2005
      vertex 21.5874 38 10.2005
    endloop
  endfacet
  facet normal 0 1 0
    outer loop
      vertex 21.5777 38.0079 10.2512
      vertex 30 38.0079 10.2512
      vertex 21.5874 38.0079 10.2005
    endloop
  endfacet
  facet normal 0 0.992102 -0.125431
    outer loop
      vertex 21.5777 38.0079 10.2512
      vertex 30 38.0709 10.7495
      vertex 30 38.0079 10.2512
    endloop
  endfacet
  facet normal -0.982138 0 0.188164
    outer loop
      vertex 21.5777 38.0079 9.74884
      vertex 21.5874 38 9.79947
      vertex 21.5874 38.0079 9.79947
    endloop
  endfacet
  facet normal 0 1 0
    outer loop
      vertex 21.5777 38.0079 9.74884
      vertex 21.5874 38.0079 9.79947
      vertex 30 38.0079 9.74884
    endloop
  endfacet
  facet normal 0 0.992104 0.125414
    outer loop
      vertex 21.5777 38.0079 9.74884
      vertex 30 38.0079 9.74884
      vertex 30 38.0709 9.25047
    endloop
  endfacet
  facet normal -0.998031 -0 -0.0627192
    outer loop
      vertex 21.5874 38 10.2005
      vertex 21.5874 38.0079 10.2005
      vertex 21.6 38 10
    endloop
  endfacet
  facet normal 0 -1 0
    outer loop
      vertex 21.5874 38 10.2005
      vertex 21.6 38 10
      vertex 23.274 38 10.4136
    endloop
  endfacet
  facet normal -0.998032 0 0.0627098
    outer loop
      vertex 21.5874 38 9.79947
      vertex 21.6 38 10
      vertex 21.6 38.0079 10
    endloop
  endfacet
  facet normal -0.998032 0 0.0627098
    outer loop
      vertex 21.5874 38 9.79947
      vertex 21.6 38.0079 10
      vertex 21.5874 38.0079 9.79947
    endloop
  endfacet
  facet normal 0 -1 0
    outer loop
      vertex 21.5874 38 9.79947
      vertex 23.274 38 9.5864
      vertex 23.3 38 10
    endloop
  endfacet
  facet normal 0 -1 0
    outer loop
      vertex 21.5874 38 9.79947
      vertex 23.3 38 10
      vertex 21.6 38 10
    endloop
  endfacet
  facet normal -0.998031 0 -0.0627192
    outer loop
      vertex 21.5874 38.0079 10.2005
      vertex 21.6 38.0079 10
      vertex 21.6 38 10
    endloop
  endfacet
  facet normal 0 1 0
    outer loop
      vertex 21.5874 38.0079 10.2005
      vertex 30 38.0079 10.2512
      vertex 21.6 38.0079 10
    endloop
  endfacet
  facet normal 0 1 0
    outer loop
      vertex 21.5874 38.0079 9.79947
      vertex 21.6 38.0079 10
      vertex 30 38.0079 9.74884
    endloop
  endfacet
  facet normal 0 -1 0
    outer loop
      vertex 21.6 38 10
      vertex 23.3 38 10
      vertex 23.274 38 10.4136
    endloop
  endfacet
  facet normal 0 1 -0
    outer loop
      vertex 21.6 38.0079 10
      vertex 30 38.0079 10.2512
      vertex 30 38.0079 9.74884
    endloop
  endfacet
  facet normal -0.58777 0 -0.809028
    outer loop
      vertex 21.7682 35 12.7863
      vertex 21.7682 38 12.7863
      vertex 22.1035 38 12.5427
    endloop
  endfacet
  facet normal 0 -1 0
    outer loop
      vertex 21.7682 35 12.7863
      vertex 22.1035 35 12.5427
      vertex 30 35 20
    endloop
  endfacet
  facet normal -0.58777 0 -0.809028
    outer loop
      vertex 21.7682 35 12.7863
      vertex 22.1035 38 12.5427
      vertex 22.1035 35 12.5427
    endloop
  endfacet
  facet normal -0.587754 0 0.80904
    outer loop
      vertex 21.7682 35 7.21372
      vertex 22.1035 35 7.45731
      vertex 21.7682 38 7.21372
    endloop
  endfacet
  facet normal 0 -1 0
    outer loop
      vertex 21.7682 35 7.21372
      vertex 30 35 0
      vertex 22.1035 35 7.45731
    endloop
  endfacet
  facet normal -0.587754 0 0.80904
    outer loop
      vertex 21.7682 38 7.21372
      vertex 22.1035 35 7.45731
      vertex 22.1035 38 7.45731
    endloop
  endfacet
  facet normal -0.684559 0 -0.728958
    outer loop
      vertex 22.1035 35 12.5427
      vertex 22.1035 38 12.5427
      vertex 22.4056 38 12.259
    endloop
  endfacet
  facet normal 0 -1 0
    outer loop
      vertex 22.1035 35 12.5427
      vertex 22.4056 35 12.259
      vertex 30 35 20
    endloop
  endfacet
  facet normal -0.684559 0 -0.728958
    outer loop
      vertex 22.1035 35 12.5427
      vertex 22.4056 38 12.259
      vertex 22.4056 35 12.259
    endloop
  endfacet
  facet normal -0.684533 0 0.728982
    outer loop
      vertex 22.1035 35 7.45731
      vertex 22.4056 35 7.74099
      vertex 22.1035 38 7.45731
    endloop
  endfacet
  facet normal 0 -1 0
    outer loop
      vertex 22.1035 35 7.45731
      vertex 30 35 0
      vertex 22.4056 35 7.74099
    endloop
  endfacet
  facet normal -0.684533 0 0.728982
    outer loop
      vertex 22.1035 38 7.45731
      vertex 22.4056 35 7.74099
      vertex 22.4056 38 7.74099
    endloop
  endfacet
  facet normal -0.770452 -0 -0.637499
    outer loop
      vertex 22.4056 35 12.259
      vertex 22.4056 38 12.259
      vertex 22.6698 35 11.9397
    endloop
  endfacet
  facet normal 0 -1 0
    outer loop
      vertex 22.4056 35 12.259
      vertex 22.6698 35 11.9397
      vertex 30 35 20
    endloop
  endfacet
  facet normal -0.770471 0 0.637475
    outer loop
      vertex 22.4056 35 7.74099
      vertex 22.6698 35 8.06031
      vertex 22.6698 38 8.06031
    endloop
  endfacet
  facet normal -0.770471 0 0.637475
    outer loop
      vertex 22.4056 35 7.74099
      vertex 22.6698 38 8.06031
      vertex 22.4056 38 7.74099
    endloop
  endfacet
  facet normal 0 -1 0
    outer loop
      vertex 22.4056 35 7.74099
      vertex 30 35 0
      vertex 22.6698 35 8.06031
    endloop
  endfacet
  facet normal -0.770452 0 -0.637499
    outer loop
      vertex 22.4056 38 12.259
      vertex 22.6698 38 11.9397
      vertex 22.6698 35 11.9397
    endloop
  endfacet
  facet normal -0.844386 -0 -0.535735
    outer loop
      vertex 22.6698 35 11.9397
      vertex 22.6698 38 11.9397
      vertex 22.8918 35 11.5898
    endloop
  endfacet
  facet normal 0 -1 0
    outer loop
      vertex 22.6698 35 11.9397
      vertex 22.8918 35 11.5898
      vertex 30 35 20
    endloop
  endfacet
  facet normal -0.844386 0 0.535735
    outer loop
      vertex 22.6698 35 8.06031
      vertex 22.8918 35 8.41021
      vertex 22.8918 38 8.41021
    endloop
  endfacet
  facet normal -0.844386 0 0.535735
    outer loop
      vertex 22.6698 35 8.06031
      vertex 22.8918 38 8.41021
      vertex 22.6698 38 8.06031
    endloop
  endfacet
  facet normal 0 -1 0
    outer loop
      vertex 22.6698 35 8.06031
      vertex 30 35 0
      vertex 22.8918 35 8.41021
    endloop
  endfacet
  facet normal -0.844386 0 -0.535735
    outer loop
      vertex 22.6698 38 11.9397
      vertex 22.8918 38 11.5898
      vertex 22.8918 35 11.5898
    endloop
  endfacet
  facet normal -0.904791 -0 -0.425855
    outer loop
      vertex 22.8918 35 11.5898
      vertex 22.8918 38 11.5898
      vertex 23.0683 35 11.2148
    endloop
  endfacet
  facet normal 0 -1 0
    outer loop
      vertex 22.8918 35 11.5898
      vertex 23.0683 35 11.2148
      vertex 30 35 20
    endloop
  endfacet
  facet normal -0.904783 0 0.425874
    outer loop
      vertex 22.8918 35 8.41021
      vertex 23.0683 35 8.78519
      vertex 23.0683 38 8.78519
    endloop
  endfacet
  facet normal -0.904783 0 0.425874
    outer loop
      vertex 22.8918 35 8.41021
      vertex 23.0683 38 8.78519
      vertex 22.8918 38 8.41021
    endloop
  endfacet
  facet normal 0 -1 0
    outer loop
      vertex 22.8918 35 8.41021
      vertex 30 35 0
      vertex 23.0683 35 8.78519
    endloop
  endfacet
  facet normal -0.904791 0 -0.425855
    outer loop
      vertex 22.8918 38 11.5898
      vertex 23.0683 38 11.2148
      vertex 23.0683 35 11.2148
    endloop
  endfacet
  facet normal -0.951093 -0 -0.308906
    outer loop
      vertex 23.0683 35 11.2148
      vertex 23.0683 38 11.2148
      vertex 23.1963 35 10.8207
    endloop
  endfacet
  facet normal 0 -1 0
    outer loop
      vertex 23.0683 35 11.2148
      vertex 23.1963 35 10.8207
      vertex 30 35 20
    endloop
  endfacet
  facet normal -0.951099 0 0.308885
    outer loop
      vertex 23.0683 35 8.78519
      vertex 23.1963 35 9.17932
      vertex 23.1963 38 9.17932
    endloop
  endfacet
  facet normal -0.951099 0 0.308885
    outer loop
      vertex 23.0683 35 8.78519
      vertex 23.1963 38 9.17932
      vertex 23.0683 38 8.78519
    endloop
  endfacet
  facet normal 0 -1 0
    outer loop
      vertex 23.0683 35 8.78519
      vertex 30 35 0
      vertex 23.1963 35 9.17932
    endloop
  endfacet
  facet normal -0.951093 0 -0.308906
    outer loop
      vertex 23.0683 38 11.2148
      vertex 23.1963 38 10.8207
      vertex 23.1963 35 10.8207
    endloop
  endfacet
  facet normal -0.982269 -0 -0.187478
    outer loop
      vertex 23.1963 35 10.8207
      vertex 23.1963 38 10.8207
      vertex 23.274 35 10.4136
    endloop
  endfacet
  facet normal 0 -1 0
    outer loop
      vertex 23.1963 35 10.8207
      vertex 23.274 35 10.4136
      vertex 30 35 20
    endloop
  endfacet
  facet normal -0.982267 0 0.187487
    outer loop
      vertex 23.1963 35 9.17932
      vertex 23.274 35 9.5864
      vertex 23.274 38 9.5864
    endloop
  endfacet
  facet normal -0.982267 0 0.187487
    outer loop
      vertex 23.1963 35 9.17932
      vertex 23.274 38 9.5864
      vertex 23.1963 38 9.17932
    endloop
  endfacet
  facet normal 0 -1 0
    outer loop
      vertex 23.1963 35 9.17932
      vertex 30 35 0
      vertex 23.274 35 9.5864
    endloop
  endfacet
  facet normal -0.982269 0 -0.187478
    outer loop
      vertex 23.1963 38 10.8207
      vertex 23.274 38 10.4136
      vertex 23.274 35 10.4136
    endloop
  endfacet
  facet normal -0.99803 -0 -0.0627388
    outer loop
      vertex 23.274 35 10.4136
      vertex 23.274 38 10.4136
      vertex 23.3 35 10
    endloop
  endfacet
  facet normal 0 -1 0
    outer loop
      vertex 23.274 35 10.4136
      vertex 23.3 35 10
      vertex 30 35 20
    endloop
  endfacet
  facet normal -0.99803 0 0.0627388
    outer loop
      vertex 23.274 35 9.5864
      vertex 23.3 35 10
      vertex 23.3 38 10
    endloop
  endfacet
  facet normal -0.99803 0 0.0627388
    outer loop
      vertex 23.274 35 9.5864
      vertex 23.3 38 10
      vertex 23.274 38 9.5864
    endloop
  endfacet
  facet normal 0 -1 0
    outer loop
      vertex 23.274 35 9.5864
      vertex 30 35 0
      vertex 23.3 35 10
    endloop
  endfacet
  facet normal -0.99803 0 -0.0627388
    outer loop
      vertex 23.274 38 10.4136
      vertex 23.3 38 10
      vertex 23.3 35 10
    endloop
  endfacet
  facet normal 0 -1 0
    outer loop
      vertex 23.3 35 10
      vertex 30 35 0
      vertex 30 35 20
    endloop
  endfacet
  facet normal 1 0 0
    outer loop
      vertex 30 35 0
      vertex 30 38.0079 9.74884
      vertex 30 35 20
    endloop
  endfacet
  facet normal 1 0 0
    outer loop
      vertex 30 35 0
      vertex 30 38.0709 9.25047
      vertex 30 38.0079 9.74884
    endloop
  endfacet
  facet normal 1 0 0
    outer loop
      vertex 30 35 0
      vertex 30 38.1958 8.76393
      vertex 30 38.0709 9.25047
    endloop
  endfacet
  facet normal 1 0 0
    outer loop
      vertex 30 35 0
      vertex 30 38.3807 8.29688
      vertex 30 38.1958 8.76393
    endloop
  endfacet
  facet normal 1 0 0
    outer loop
      vertex 30 35 0
      vertex 30 38.6227 7.85669
      vertex 30 38.3807 8.29688
    endloop
  endfacet
  facet normal 1 0 0
    outer loop
      vertex 30 35 0
      vertex 30 38.9179 7.4503
      vertex 30 38.6227 7.85669
    endloop
  endfacet
  facet normal 1 0 0
    outer loop
      vertex 30 35 0
      vertex 30 39.2618 7.08412
      vertex 30 38.9179 7.4503
    endloop
  endfacet
  facet normal 1 0 0
    outer loop
      vertex 30 35 0
      vertex 30 39.6489 6.76393
      vertex 30 39.2618 7.08412
    endloop
  endfacet
  facet normal 1 0 0
    outer loop
      vertex 30 35 0
      vertex 30 40.073 6.49477
      vertex 30 39.6489 6.76393
    endloop
  endfacet
  facet normal 1 0 0
    outer loop
      vertex 30 35 0
      vertex 30 42 0
      vertex 30 40.073 6.49477
    endloop
  endfacet
  facet normal 1 0 0
    outer loop
      vertex 30 35 20
      vertex 30 38.0079 10.2512
      vertex 30 38.0709 10.7495
    endloop
  endfacet
  facet normal 1 0 0
    outer loop
      vertex 30 35 20
      vertex 30 38.0079 9.74884
      vertex 30 38.0079 10.2512
    endloop
  endfacet
  facet normal 1 0 0
    outer loop
      vertex 30 35 20
      vertex 30 38.0709 10.7495
      vertex 30 38.1958 11.2361
    endloop
  endfacet
  facet normal 1 0 0
    outer loop
      vertex 30 35 20
      vertex 30 38.1958 11.2361
      vertex 30 38.3807 11.7031
    endloop
  endfacet
  facet normal 1 0 0
    outer loop
      vertex 30 35 20
      vertex 30 38.3807 11.7031
      vertex 30 38.6227 12.1433
    endloop
  endfacet
  facet normal 1 0 0
    outer loop
      vertex 30 35 20
      vertex 30 38.6227 12.1433
      vertex 30 38.9179 12.5497
    endloop
  endfacet
  facet normal 1 0 0
    outer loop
      vertex 30 35 20
      vertex 30 38.9179 12.5497
      vertex 30 39.2618 12.9159
    endloop
  endfacet
  facet normal 1 0 0
    outer loop
      vertex 30 35 20
      vertex 30 39.2618 12.9159
      vertex 30 39.6489 13.2361
    endloop
  endfacet
  facet normal 1 0 0
    outer loop
      vertex 30 35 20
      vertex 30 39.6489 13.2361
      vertex 30 40.073 13.5052
    endloop
  endfacet
  facet normal 1 -0 0
    outer loop
      vertex 30 35 20
      vertex 30 40.073 13.5052
      vertex 30 42 20
    endloop
  endfacet
  facet normal 1 0 0
    outer loop
      vertex 30 40.073 13.5052
      vertex 30 40.5275 13.7191
      vertex 30 42 20
    endloop
  endfacet
  facet normal 1 0 0
    outer loop
      vertex 30 40.073 6.49477
      vertex 30 42 0
      vertex 30 40.5275 6.28089
    endloop
  endfacet
  facet normal 1 0 0
    outer loop
      vertex 30 40.5275 13.7191
      vertex 30 41.0052 13.8743
      vertex 30 42 20
    endloop
  endfacet
  facet normal 1 0 0
    outer loop
      vertex 30 40.5275 6.28089
      vertex 30 42 0
      vertex 30 41.0052 6.12567
    endloop
  endfacet
  facet normal 1 0 0
    outer loop
      vertex 30 41.0052 13.8743
      vertex 30 41.4987 13.9685
      vertex 30 42 20
    endloop
  endfacet
  facet normal 1 0 0
    outer loop
      vertex 30 41.0052 6.12567
      vertex 30 42 0
      vertex 30 41.4987 6.03154
    endloop
  endfacet
  facet normal 1 0 0
    outer loop
      vertex 30 41.4987 13.9685
      vertex 30 42 14
      vertex 30 42 20
    endloop
  endfacet
  facet normal 1 0 0
    outer loop
      vertex 30 41.4987 6.03154
      vertex 30 42 0
      vertex 30 42 6
    endloop
  endfacet
endsolid model
