solid model
  facet normal -0.0617355 0.705876 0.70564
    outer loop
      vertex -25.9735 -16.3062 -18.4096
      vertex 28.2887 -16.4173 -13.5511
      vertex 28.2984 -16.3062 -13.6614
    endloop
  endfacet
  facet normal 0.0858317 0.173648 -0.98106
    outer loop
      vertex -25.9735 -16.3062 -18.4096
      vertex 28.2984 -16.3062 -13.6614
      vertex 28.4293 -24.8248 -15.1577
    endloop
  endfacet
  facet normal -0.0618362 0.705908 0.705599
    outer loop
      vertex -26.043 -16.4173 -18.3045
      vertex -25.9735 -16.3062 -18.4096
      vertex -26.0052 -16.3549 -18.3636
    endloop
  endfacet
  facet normal -0.0597731 0.727772 0.68321
    outer loop
      vertex -26.043 -16.4173 -18.3045
      vertex 28.2431 -16.9106 -13.0296
      vertex 28.2887 -16.4173 -13.5511
    endloop
  endfacet
  facet normal -0.0617351 0.70588 0.705636
    outer loop
      vertex -26.043 -16.4173 -18.3045
      vertex 28.2887 -16.4173 -13.5511
      vertex -25.9735 -16.3062 -18.4096
    endloop
  endfacet
  facet normal -0.057751 0.748957 0.660098
    outer loop
      vertex -26.3591 -16.9106 -17.8066
      vertex 28.1961 -17.3873 -12.4928
      vertex 28.2431 -16.9106 -13.0296
    endloop
  endfacet
  facet normal -0.0597731 0.727772 0.68321
    outer loop
      vertex -26.3591 -16.9106 -17.8066
      vertex 28.2431 -16.9106 -13.0296
      vertex -26.043 -16.4173 -18.3045
    endloop
  endfacet
  facet normal 0.872638 -0.0715305 0.483101
    outer loop
      vertex -26.4628 -17.0638 -17.6419
      vertex -26.043 -16.4173 -18.3045
      vertex -26.0052 -16.3549 -18.3636
    endloop
  endfacet
  facet normal 0.872567 -0.0713228 0.483259
    outer loop
      vertex -26.4628 -17.0638 -17.6419
      vertex -26.3591 -16.9106 -17.8066
      vertex -26.043 -16.4173 -18.3045
    endloop
  endfacet
  facet normal 0.0858316 0.173648 -0.98106
    outer loop
      vertex -26.5441 20.821 -11.8879
      vertex 27.5969 29.3396 -5.64342
      vertex 27.7278 20.821 -7.13977
    endloop
  endfacet
  facet normal -0.0369712 -0.90557 0.422583
    outer loop
      vertex -26.5441 20.821 -11.8879
      vertex 27.7278 20.821 -7.13977
      vertex 27.7154 20.8876 -6.99831
    endloop
  endfacet
  facet normal 0.856847 -0.0763954 0.509879
    outer loop
      vertex -26.577 20.8502 -11.8283
      vertex -25.9735 -16.3062 -18.4096
      vertex -26.5441 20.821 -11.8879
    endloop
  endfacet
  facet normal 0.856851 -0.0763942 0.509873
    outer loop
      vertex -26.577 20.8502 -11.8283
      vertex -26.0052 -16.3549 -18.3636
      vertex -25.9735 -16.3062 -18.4096
    endloop
  endfacet
  facet normal -0.0369713 -0.90557 0.422583
    outer loop
      vertex -26.6163 20.8876 -11.7517
      vertex -26.5441 20.821 -11.8879
      vertex 27.7154 20.8876 -6.99831
    endloop
  endfacet
  facet normal -0.0371198 -0.905595 0.422517
    outer loop
      vertex -26.6163 20.8876 -11.7517
      vertex -26.577 20.8502 -11.8283
      vertex -26.5441 20.821 -11.8879
    endloop
  endfacet
  facet normal -0.0344741 -0.918446 0.394041
    outer loop
      vertex -26.6163 20.8876 -11.7517
      vertex 27.7154 20.8876 -6.99831
      vertex 27.6578 21.1721 -6.3401
    endloop
  endfacet
  facet normal -0.0577093 0.748946 0.660113
    outer loop
      vertex -26.6665 -17.3873 -17.2927
      vertex -26.3591 -16.9106 -17.8066
      vertex -26.4628 -17.0638 -17.6419
    endloop
  endfacet
  facet normal -0.0556724 0.769399 0.636338
    outer loop
      vertex -26.6665 -17.3873 -17.2927
      vertex 28.1479 -17.8468 -11.9414
      vertex 28.1961 -17.3873 -12.4928
    endloop
  endfacet
  facet normal -0.0577511 0.748956 0.660098
    outer loop
      vertex -26.6665 -17.3873 -17.2927
      vertex 28.1961 -17.3873 -12.4928
      vertex -26.3591 -16.9106 -17.8066
    endloop
  endfacet
  facet normal 0.887489 -0.066354 0.456027
    outer loop
      vertex -26.8948 -17.73 -16.8982
      vertex -26.6665 -17.3873 -17.2927
      vertex -26.4628 -17.0638 -17.6419
    endloop
  endfacet
  facet normal -0.0344741 -0.918446 0.394041
    outer loop
      vertex -26.9443 21.1721 -11.1172
      vertex -26.6163 20.8876 -11.7517
      vertex 27.6578 21.1721 -6.3401
    endloop
  endfacet
  facet normal -0.0319426 -0.930418 0.365106
    outer loop
      vertex -26.9443 21.1721 -11.1172
      vertex 27.6578 21.1721 -6.3401
      vertex 27.5995 21.4358 -5.67331
    endloop
  endfacet
  facet normal -0.0556933 0.769404 0.63633
    outer loop
      vertex -26.9668 -17.8468 -16.7633
      vertex -26.6665 -17.3873 -17.2927
      vertex -26.8948 -17.73 -16.8982
    endloop
  endfacet
  facet normal -0.0535385 0.789084 0.611948
    outer loop
      vertex -26.9668 -17.8468 -16.7633
      vertex 28.0984 -18.2888 -11.3759
      vertex 28.1479 -17.8468 -11.9414
    endloop
  endfacet
  facet normal -0.0556723 0.769399 0.636338
    outer loop
      vertex -26.9668 -17.8468 -16.7633
      vertex 28.1479 -17.8468 -11.9414
      vertex -26.6665 -17.3873 -17.2927
    endloop
  endfacet
  facet normal 0.872614 -0.0714586 0.483154
    outer loop
      vertex -27.0518 21.2568 -10.9106
      vertex -26.0052 -16.3549 -18.3636
      vertex -26.577 20.8502 -11.8283
    endloop
  endfacet
  facet normal 0.872613 -0.071459 0.483156
    outer loop
      vertex -27.0518 21.2568 -10.9106
      vertex -26.4628 -17.0638 -17.6419
      vertex -26.0052 -16.3549 -18.3636
    endloop
  endfacet
  facet normal 0.872532 -0.0717804 0.483254
    outer loop
      vertex -27.0518 21.2568 -10.9106
      vertex -26.577 20.8502 -11.8283
      vertex -26.6163 20.8876 -11.7517
    endloop
  endfacet
  facet normal 0.87267 -0.0712364 0.483087
    outer loop
      vertex -27.0518 21.2568 -10.9106
      vertex -26.6163 20.8876 -11.7517
      vertex -26.9443 21.1721 -11.1172
    endloop
  endfacet
  facet normal -0.0513518 0.80799 0.586954
    outer loop
      vertex -27.2556 -18.2888 -16.2188
      vertex 28.0477 -18.7126 -10.7969
      vertex 28.0984 -18.2888 -11.3759
    endloop
  endfacet
  facet normal -0.0535386 0.789083 0.611949
    outer loop
      vertex -27.2556 -18.2888 -16.2188
      vertex 28.0984 -18.2888 -11.3759
      vertex -26.9668 -17.8468 -16.7633
    endloop
  endfacet
  facet normal -0.0319426 -0.930418 0.365106
    outer loop
      vertex -27.2631 21.4358 -10.4732
      vertex -26.9443 21.1721 -11.1172
      vertex 27.5995 21.4358 -5.67331
    endloop
  endfacet
  facet normal -0.0319146 -0.930414 0.365118
    outer loop
      vertex -27.2631 21.4358 -10.4732
      vertex -27.0518 21.2568 -10.9106
      vertex -26.9443 21.1721 -11.1172
    endloop
  endfacet
  facet normal -0.0293799 -0.94147 0.335814
    outer loop
      vertex -27.2631 21.4358 -10.4732
      vertex 27.5995 21.4358 -5.67331
      vertex 27.5405 21.6783 -4.9986
    endloop
  endfacet
  facet normal 0.901507 -0.0612286 0.428412
    outer loop
      vertex -27.3005 -18.3535 -16.1335
      vertex -26.9668 -17.8468 -16.7633
      vertex -26.8948 -17.73 -16.8982
    endloop
  endfacet
  facet normal 0.901591 -0.0615636 0.428187
    outer loop
      vertex -27.3005 -18.3535 -16.1335
      vertex -27.2556 -18.2888 -16.2188
      vertex -26.9668 -17.8468 -16.7633
    endloop
  endfacet
  facet normal 0.887517 -0.0664525 0.455958
    outer loop
      vertex -27.4994 21.6166 -9.98677
      vertex -26.4628 -17.0638 -17.6419
      vertex -27.0518 21.2568 -10.9106
    endloop
  endfacet
  facet normal 0.887518 -0.0664521 0.455956
    outer loop
      vertex -27.4994 21.6166 -9.98677
      vertex -26.8948 -17.73 -16.8982
      vertex -26.4628 -17.0638 -17.6419
    endloop
  endfacet
  facet normal 0.887521 -0.0664326 0.455952
    outer loop
      vertex -27.4994 21.6166 -9.98677
      vertex -27.0518 21.2568 -10.9106
      vertex -27.2631 21.4358 -10.4732
    endloop
  endfacet
  facet normal -0.05084 0.807894 0.587131
    outer loop
      vertex -27.5301 -18.7126 -15.6593
      vertex -27.2556 -18.2888 -16.2188
      vertex -27.3005 -18.3535 -16.1335
    endloop
  endfacet
  facet normal -0.0491145 0.826099 0.561381
    outer loop
      vertex -27.5301 -18.7126 -15.6593
      vertex 27.9959 -19.118 -10.2048
      vertex 28.0477 -18.7126 -10.7969
    endloop
  endfacet
  facet normal -0.0513517 0.807991 0.586953
    outer loop
      vertex -27.5301 -18.7126 -15.6593
      vertex 28.0477 -18.7126 -10.7969
      vertex -27.2556 -18.2888 -16.2188
    endloop
  endfacet
  facet normal -0.0293799 -0.94147 0.335814
    outer loop
      vertex -27.5742 21.6783 -9.82051
      vertex -27.2631 21.4358 -10.4732
      vertex 27.5405 21.6783 -4.9986
    endloop
  endfacet
  facet normal -0.0292513 -0.941454 0.335869
    outer loop
      vertex -27.5742 21.6783 -9.82051
      vertex -27.4994 21.6166 -9.98677
      vertex -27.2631 21.4358 -10.4732
    endloop
  endfacet
  facet normal -0.0267878 -0.951595 0.306185
    outer loop
      vertex -27.5742 21.6783 -9.82051
      vertex 27.5405 21.6783 -4.9986
      vertex 27.4808 21.8994 -4.31663
    endloop
  endfacet
  facet normal 0.914704 -0.0563499 0.400176
    outer loop
      vertex -27.6798 -18.9329 -15.3483
      vertex -27.5301 -18.7126 -15.6593
      vertex -27.3005 -18.3535 -16.1335
    endloop
  endfacet
  facet normal -0.0491973 0.826112 0.561354
    outer loop
      vertex -27.7952 -19.118 -15.0859
      vertex -27.5301 -18.7126 -15.6593
      vertex -27.6798 -18.9329 -15.3483
    endloop
  endfacet
  facet normal -0.0468286 0.843392 0.535254
    outer loop
      vertex -27.7952 -19.118 -15.0859
      vertex 27.9431 -19.5045 -9.60041
      vertex 27.9959 -19.118 -10.2048
    endloop
  endfacet
  facet normal -0.0491146 0.826098 0.561382
    outer loop
      vertex -27.7952 -19.118 -15.0859
      vertex 27.9959 -19.118 -10.2048
      vertex -27.5301 -18.7126 -15.6593
    endloop
  endfacet
  facet normal -0.0267877 -0.951595 0.306185
    outer loop
      vertex -27.8732 21.8994 -9.15948
      vertex -27.5742 21.6783 -9.82051
      vertex 27.4808 21.8994 -4.31663
    endloop
  endfacet
  facet normal -0.0241696 -0.960779 0.27626
    outer loop
      vertex -27.8732 21.8994 -9.15948
      vertex 27.4808 21.8994 -4.31663
      vertex 27.4206 22.0989 -3.62808
    endloop
  endfacet
  facet normal 0.901546 -0.06138 0.428308
    outer loop
      vertex -27.9196 21.9299 -9.05748
      vertex -26.8948 -17.73 -16.8982
      vertex -27.4994 21.6166 -9.98677
    endloop
  endfacet
  facet normal 0.901545 -0.0613801 0.428309
    outer loop
      vertex -27.9196 21.9299 -9.05748
      vertex -27.3005 -18.3535 -16.1335
      vertex -26.8948 -17.73 -16.8982
    endloop
  endfacet
  facet normal 0.901501 -0.06162 0.428369
    outer loop
      vertex -27.9196 21.9299 -9.05748
      vertex -27.4994 21.6166 -9.98677
      vertex -27.5742 21.6783 -9.82051
    endloop
  endfacet
  facet normal 0.90153 -0.0614607 0.42833
    outer loop
      vertex -27.9196 21.9299 -9.05748
      vertex -27.5742 21.6783 -9.82051
      vertex -27.8732 21.8994 -9.15948
    endloop
  endfacet
  facet normal 0.926943 -0.0511934 0.371694
    outer loop
      vertex -28.032 -19.4747 -14.5446
      vertex -27.7952 -19.118 -15.0859
      vertex -27.6798 -18.9329 -15.3483
    endloop
  endfacet
  facet normal -0.0476732 0.843523 0.534973
    outer loop
      vertex -28.05 -19.5045 -14.4992
      vertex -27.7952 -19.118 -15.0859
      vertex -28.032 -19.4747 -14.5446
    endloop
  endfacet
  facet normal -0.0444968 0.859852 0.508601
    outer loop
      vertex -28.05 -19.5045 -14.4992
      vertex 27.8892 -19.8718 -8.98419
      vertex 27.9431 -19.5045 -9.60041
    endloop
  endfacet
  facet normal -0.0468286 0.843392 0.535254
    outer loop
      vertex -28.05 -19.5045 -14.4992
      vertex 27.9431 -19.5045 -9.60041
      vertex -27.7952 -19.118 -15.0859
    endloop
  endfacet
  facet normal -0.0241696 -0.960779 0.276259
    outer loop
      vertex -28.1573 22.0989 -8.49051
      vertex -27.8732 21.8994 -9.15948
      vertex 27.4206 22.0989 -3.62808
    endloop
  endfacet
  facet normal -0.0242266 -0.960784 0.276237
    outer loop
      vertex -28.1573 22.0989 -8.49051
      vertex -27.9196 21.9299 -9.05748
      vertex -27.8732 21.8994 -9.15948
    endloop
  endfacet
  facet normal -0.0215275 -0.969016 0.24606
    outer loop
      vertex -28.1573 22.0989 -8.49051
      vertex 27.4206 22.0989 -3.62808
      vertex 27.3598 22.2766 -2.93363
    endloop
  endfacet
  facet normal -0.0421209 0.875464 0.481444
    outer loop
      vertex -28.2873 -19.8718 -13.899
      vertex 27.8343 -20.2195 -8.35678
      vertex 27.8892 -19.8718 -8.98419
    endloop
  endfacet
  facet normal -0.0444968 0.859852 0.508601
    outer loop
      vertex -28.2873 -19.8718 -13.899
      vertex 27.8892 -19.8718 -8.98419
      vertex -28.05 -19.5045 -14.4992
    endloop
  endfacet
  facet normal 0.914683 -0.0562478 0.40024
    outer loop
      vertex -28.3118 22.1954 -8.12384
      vertex -27.3005 -18.3535 -16.1335
      vertex -27.9196 21.9299 -9.05748
    endloop
  endfacet
  facet normal 0.914682 -0.0562479 0.400241
    outer loop
      vertex -28.3118 22.1954 -8.12384
      vertex -27.6798 -18.9329 -15.3483
      vertex -27.3005 -18.3535 -16.1335
    endloop
  endfacet
  facet normal 0.914677 -0.0562847 0.400248
    outer loop
      vertex -28.3118 22.1954 -8.12384
      vertex -27.9196 21.9299 -9.05748
      vertex -28.1573 22.0989 -8.49051
    endloop
  endfacet
  facet normal 0.938289 -0.0461575 0.342758
    outer loop
      vertex -28.3569 -19.9724 -13.7222
      vertex -28.05 -19.5045 -14.4992
      vertex -28.032 -19.4747 -14.5446
    endloop
  endfacet
  facet normal 0.938246 -0.0458678 0.342916
    outer loop
      vertex -28.3569 -19.9724 -13.7222
      vertex -28.2873 -19.8718 -13.899
      vertex -28.05 -19.5045 -14.4992
    endloop
  endfacet
  facet normal -0.0215275 -0.969015 0.24606
    outer loop
      vertex -28.4313 22.2766 -7.81472
      vertex -28.1573 22.0989 -8.49051
      vertex 27.3598 22.2766 -2.93363
    endloop
  endfacet
  facet normal -0.0216288 -0.969023 0.246021
    outer loop
      vertex -28.4313 22.2766 -7.81472
      vertex -28.3118 22.1954 -8.12384
      vertex -28.1573 22.0989 -8.49051
    endloop
  endfacet
  facet normal -0.0188638 -0.976296 0.215615
    outer loop
      vertex -28.4313 22.2766 -7.81472
      vertex 27.3598 22.2766 -2.93363
      vertex 27.2986 22.4323 -2.23396
    endloop
  endfacet
  facet normal -0.042282 0.875483 0.481395
    outer loop
      vertex -28.5116 -20.2195 -13.2864
      vertex -28.2873 -19.8718 -13.899
      vertex -28.3569 -19.9724 -13.7222
    endloop
  endfacet
  facet normal -0.0397033 0.890213 0.453811
    outer loop
      vertex -28.5116 -20.2195 -13.2864
      vertex 27.7784 -20.5472 -7.7188
      vertex 27.8343 -20.2195 -8.35678
    endloop
  endfacet
  facet normal -0.0421209 0.875464 0.481444
    outer loop
      vertex -28.5116 -20.2195 -13.2864
      vertex 27.8343 -20.2195 -8.35678
      vertex -28.2873 -19.8718 -13.899
    endloop
  endfacet
  facet normal 0.948639 -0.0405915 0.313744
    outer loop
      vertex -28.6541 -20.4316 -12.8829
      vertex -28.5116 -20.2195 -13.2864
      vertex -28.3569 -19.9724 -13.7222
    endloop
  endfacet
  facet normal 0.926918 -0.0510597 0.371775
    outer loop
      vertex -28.6758 22.4203 -7.18547
      vertex -27.6798 -18.9329 -15.3483
      vertex -28.3118 22.1954 -8.12384
    endloop
  endfacet
  facet normal 0.926918 -0.0510594 0.371773
    outer loop
      vertex -28.6758 22.4203 -7.18547
      vertex -28.032 -19.4747 -14.5446
      vertex -27.6798 -18.9329 -15.3483
    endloop
  endfacet
  facet normal 0.92691 -0.0511194 0.371786
    outer loop
      vertex -28.6758 22.4203 -7.18547
      vertex -28.3118 22.1954 -8.12384
      vertex -28.4313 22.2766 -7.81472
    endloop
  endfacet
  facet normal -0.0188638 -0.976296 0.215614
    outer loop
      vertex -28.6945 22.4323 -7.13272
      vertex -28.4313 22.2766 -7.81472
      vertex 27.2986 22.4323 -2.23396
    endloop
  endfacet
  facet normal -0.0190219 -0.976306 0.215556
    outer loop
      vertex -28.6945 22.4323 -7.13272
      vertex -28.6758 22.4203 -7.18547
      vertex -28.4313 22.2766 -7.81472
    endloop
  endfacet
  facet normal -0.0161819 -0.982613 0.18496
    outer loop
      vertex -28.6945 22.4323 -7.13272
      vertex 27.2986 22.4323 -2.23396
      vertex 27.237 22.5658 -1.52976
    endloop
  endfacet
  facet normal -0.0397288 0.890215 0.453804
    outer loop
      vertex -28.7238 -20.5472 -12.6621
      vertex -28.5116 -20.2195 -13.2864
      vertex -28.6541 -20.4316 -12.8829
    endloop
  endfacet
  facet normal -0.0372466 0.904083 0.42573
    outer loop
      vertex -28.7238 -20.5472 -12.6621
      vertex 27.7218 -20.8547 -7.07089
      vertex 27.7784 -20.5472 -7.7188
    endloop
  endfacet
  facet normal -0.0397034 0.890213 0.453812
    outer loop
      vertex -28.7238 -20.5472 -12.6621
      vertex 27.7784 -20.5472 -7.7188
      vertex -28.5116 -20.2195 -13.2864
    endloop
  endfacet
  facet normal 0.958102 -0.0353275 0.284239
    outer loop
      vertex -28.9233 -20.854 -12.028
      vertex -28.7238 -20.5472 -12.6621
      vertex -28.6541 -20.4316 -12.8829
    endloop
  endfacet
  facet normal -0.0628483 0.905992 0.418603
    outer loop
      vertex -28.9236 -20.8547 -12.0267
      vertex -28.7238 -20.5472 -12.6621
      vertex -28.9233 -20.854 -12.028
    endloop
  endfacet
  facet normal -0.0347534 0.917059 0.397233
    outer loop
      vertex -28.9236 -20.8547 -12.0267
      vertex 27.6643 -21.1415 -6.41367
      vertex 27.7218 -20.8547 -7.07089
    endloop
  endfacet
  facet normal -0.0372465 0.904083 0.42573
    outer loop
      vertex -28.9236 -20.8547 -12.0267
      vertex 27.7218 -20.8547 -7.07089
      vertex -28.7238 -20.5472 -12.6621
    endloop
  endfacet
  facet normal -0.0161819 -0.982613 0.18496
    outer loop
      vertex -28.9395 22.5658 -6.44456
      vertex -28.6945 22.4323 -7.13272
      vertex 27.237 22.5658 -1.52976
    endloop
  endfacet
  facet normal -0.0134839 -0.98796 0.154121
    outer loop
      vertex -28.9395 22.5658 -6.44456
      vertex 27.237 22.5658 -1.52976
      vertex 27.175 22.6771 -0.821731
    endloop
  endfacet
  facet normal 0.938239 -0.0458209 0.342941
    outer loop
      vertex -29.0111 22.598 -6.2444
      vertex -28.032 -19.4747 -14.5446
      vertex -28.6758 22.4203 -7.18547
    endloop
  endfacet
  facet normal 0.938238 -0.045821 0.342942
    outer loop
      vertex -29.0111 22.598 -6.2444
      vertex -28.3569 -19.9724 -13.7222
      vertex -28.032 -19.4747 -14.5446
    endloop
  endfacet
  facet normal 0.938177 -0.046414 0.343031
    outer loop
      vertex -29.0111 22.598 -6.2444
      vertex -28.6758 22.4203 -7.18547
      vertex -28.6945 22.4323 -7.13272
    endloop
  endfacet
  facet normal 0.938245 -0.0457573 0.342933
    outer loop
      vertex -29.0111 22.598 -6.2444
      vertex -28.6945 22.4323 -7.13272
      vertex -28.9395 22.5658 -6.44456
    endloop
  endfacet
  facet normal -0.0322255 0.929133 0.368339
    outer loop
      vertex -29.1028 -21.1415 -11.3801
      vertex 27.606 -21.4075 -5.7478
      vertex 27.6643 -21.1415 -6.41367
    endloop
  endfacet
  facet normal -0.0347535 0.917059 0.397234
    outer loop
      vertex -29.1028 -21.1415 -11.3801
      vertex 27.6643 -21.1415 -6.41367
      vertex -28.9236 -20.8547 -12.0267
    endloop
  endfacet
  facet normal 0.967334 -0.0400062 0.250327
    outer loop
      vertex -29.1643 -21.2321 -11.1571
      vertex -28.9236 -20.8547 -12.0267
      vertex -28.9233 -20.854 -12.028
    endloop
  endfacet
  facet normal 0.966597 -0.0297615 0.254569
    outer loop
      vertex -29.1643 -21.2321 -11.1571
      vertex -29.1028 -21.1415 -11.3801
      vertex -28.9236 -20.8547 -12.0267
    endloop
  endfacet
  facet normal -0.0134839 -0.98796 0.154121
    outer loop
      vertex -29.1708 22.6771 -5.75135
      vertex -28.9395 22.5658 -6.44456
      vertex 27.175 22.6771 -0.821731
    endloop
  endfacet
  facet normal -0.0137065 -0.987968 0.154048
    outer loop
      vertex -29.1708 22.6771 -5.75135
      vertex -29.0111 22.598 -6.2444
      vertex -28.9395 22.5658 -6.44456
    endloop
  endfacet
  facet normal -0.0107726 -0.992332 0.123132
    outer loop
      vertex -29.1708 22.6771 -5.75135
      vertex 27.175 22.6771 -0.821731
      vertex 27.1128 22.7661 -0.110569
    endloop
  endfacet
  facet normal -0.0323518 0.92914 0.368309
    outer loop
      vertex -29.2686 -21.4075 -10.7237
      vertex -29.1028 -21.1415 -11.3801
      vertex -29.1643 -21.2321 -11.1571
    endloop
  endfacet
  facet normal -0.0296662 0.940287 0.339086
    outer loop
      vertex -29.2686 -21.4075 -10.7237
      vertex 27.547 -21.6524 -5.07393
      vertex 27.606 -21.4075 -5.7478
    endloop
  endfacet
  facet normal -0.0322254 0.929133 0.368339
    outer loop
      vertex -29.2686 -21.4075 -10.7237
      vertex 27.606 -21.4075 -5.7478
      vertex -29.1028 -21.1415 -11.3801
    endloop
  endfacet
  facet normal 0.948633 -0.0405373 0.313771
    outer loop
      vertex -29.3175 22.7347 -5.30047
      vertex -28.3569 -19.9724 -13.7222
      vertex -29.0111 22.598 -6.2444
    endloop
  endfacet
  facet normal 0.948633 -0.0405374 0.313772
    outer loop
      vertex -29.3175 22.7347 -5.30047
      vertex -28.6541 -20.4316 -12.8829
      vertex -28.3569 -19.9724 -13.7222
    endloop
  endfacet
  facet normal 0.948638 -0.040475 0.313764
    outer loop
      vertex -29.3175 22.7347 -5.30047
      vertex -29.0111 22.598 -6.2444
      vertex -29.1708 22.6771 -5.75135
    endloop
  endfacet
  facet normal 0.97416 -0.0244241 0.224535
    outer loop
      vertex -29.3768 -21.5737 -10.2724
      vertex -29.2686 -21.4075 -10.7237
      vertex -29.1643 -21.2321 -11.1571
    endloop
  endfacet
  facet normal -0.0107726 -0.992332 0.123132
    outer loop
      vertex -29.3895 22.7661 -5.05388
      vertex -29.1708 22.6771 -5.75135
      vertex 27.1128 22.7661 -0.110569
    endloop
  endfacet
  facet normal -0.0108746 -0.992335 0.1231
    outer loop
      vertex -29.3895 22.7661 -5.05388
      vertex -29.3175 22.7347 -5.30047
      vertex -29.1708 22.6771 -5.75135
    endloop
  endfacet
  facet normal -0.00805052 -0.995725 0.0920179
    outer loop
      vertex -29.3895 22.7661 -5.05388
      vertex 27.1128 22.7661 -0.110569
      vertex 27.0504 22.8325 0.603025
    endloop
  endfacet
  facet normal -0.0296271 0.940286 0.339095
    outer loop
      vertex -29.4208 -21.6524 -10.058
      vertex -29.2686 -21.4075 -10.7237
      vertex -29.3768 -21.5737 -10.2724
    endloop
  endfacet
  facet normal -0.027077 0.950516 0.309492
    outer loop
      vertex -29.4208 -21.6524 -10.058
      vertex 27.4874 -21.8759 -4.39274
      vertex 27.547 -21.6524 -5.07393
    endloop
  endfacet
  facet normal -0.0296662 0.940287 0.339087
    outer loop
      vertex -29.4208 -21.6524 -10.058
      vertex 27.547 -21.6524 -5.07393
      vertex -29.2686 -21.4075 -10.7237
    endloop
  endfacet
  facet normal -0.0244617 0.959805 0.279598
    outer loop
      vertex -29.5587 -21.8759 -9.38363
      vertex 27.4273 -22.0778 -3.70489
      vertex 27.4874 -21.8759 -4.39274
    endloop
  endfacet
  facet normal -0.0270771 0.950516 0.309492
    outer loop
      vertex -29.5587 -21.8759 -9.38363
      vertex 27.4874 -21.8759 -4.39274
      vertex -29.4208 -21.6524 -10.058
    endloop
  endfacet
  facet normal 0.980759 -0.0190311 0.194293
    outer loop
      vertex -29.5605 -21.8785 -9.37483
      vertex -29.4208 -21.6524 -10.058
      vertex -29.3768 -21.5737 -10.2724
    endloop
  endfacet
  facet normal 0.980866 -0.0215275 0.193489
    outer loop
      vertex -29.5605 -21.8785 -9.37483
      vertex -29.5587 -21.8759 -9.38363
      vertex -29.4208 -21.6524 -10.058
    endloop
  endfacet
  facet normal 0.958091 -0.0352139 0.284293
    outer loop
      vertex -29.5947 22.8324 -4.35422
      vertex -28.6541 -20.4316 -12.8829
      vertex -29.3175 22.7347 -5.30047
    endloop
  endfacet
  facet normal 0.958091 -0.0352137 0.284292
    outer loop
      vertex -29.5947 22.8324 -4.35422
      vertex -28.9233 -20.854 -12.028
      vertex -28.6541 -20.4316 -12.8829
    endloop
  endfacet
  facet normal 0.958099 -0.035077 0.284281
    outer loop
      vertex -29.5947 22.8324 -4.35422
      vertex -29.3175 22.7347 -5.30047
      vertex -29.3895 22.7661 -5.05388
    endloop
  endfacet
  facet normal -0.00805052 -0.995725 0.0920179
    outer loop
      vertex -29.595 22.8325 -4.35281
      vertex -29.3895 22.7661 -5.05388
      vertex 27.0504 22.8325 0.603025
    endloop
  endfacet
  facet normal -0.00580686 -0.99568 0.0926714
    outer loop
      vertex -29.595 22.8325 -4.35281
      vertex -29.5947 22.8324 -4.35422
      vertex -29.3895 22.7661 -5.05388
    endloop
  endfacet
  facet normal -0.0053208 -0.998135 0.060817
    outer loop
      vertex -29.595 22.8325 -4.35281
      vertex 27.0504 22.8325 0.603025
      vertex 26.9878 22.8764 1.31835
    endloop
  endfacet
  facet normal -0.0259929 0.959838 0.279347
    outer loop
      vertex -29.6752 -22.0778 -8.70071
      vertex -29.5587 -21.8759 -9.38363
      vertex -29.5605 -21.8785 -9.37483
    endloop
  endfacet
  facet normal -0.0218221 0.968148 0.249428
    outer loop
      vertex -29.6752 -22.0778 -8.70071
      vertex 27.3666 -22.2579 -3.01106
      vertex 27.4273 -22.0778 -3.70489
    endloop
  endfacet
  facet normal -0.0244617 0.959805 0.279598
    outer loop
      vertex -29.6752 -22.0778 -8.70071
      vertex 27.4273 -22.0778 -3.70489
      vertex -29.5587 -21.8759 -9.38363
    endloop
  endfacet
  facet normal 0.986386 -0.0135171 0.16389
    outer loop
      vertex -29.7154 -22.1396 -8.46417
      vertex -29.6752 -22.0778 -8.70071
      vertex -29.5605 -21.8785 -9.37483
    endloop
  endfacet
  facet normal 0.0858317 0.173648 -0.98106
    outer loop
      vertex -29.7377 -22.687 0.51781
      vertex 25.9665 20.256 12.9922
      vertex 26.6264 -22.687 5.44903
    endloop
  endfacet
  facet normal 0.0107726 0.992332 -0.123132
    outer loop
      vertex -29.7377 -22.687 0.51781
      vertex 26.6264 -22.687 5.44903
      vertex 26.6817 -22.7661 4.81698
    endloop
  endfacet
  facet normal -0.0220688 0.968151 0.249392
    outer loop
      vertex -29.7774 -22.2579 -8.0105
      vertex -29.6752 -22.0778 -8.70071
      vertex -29.7154 -22.1396 -8.46417
    endloop
  endfacet
  facet normal -0.019161 0.975534 0.219011
    outer loop
      vertex -29.7774 -22.2579 -8.0105
      vertex 27.3054 -22.4161 -2.31193
      vertex 27.3666 -22.2579 -3.01106
    endloop
  endfacet
  facet normal -0.0218221 0.968148 0.249428
    outer loop
      vertex -29.7774 -22.2579 -8.0105
      vertex 27.3666 -22.2579 -3.01106
      vertex -29.6752 -22.0778 -8.70071
    endloop
  endfacet
  facet normal -0.0053208 -0.998135 0.060817
    outer loop
      vertex -29.7792 22.8764 -3.64812
      vertex -29.595 22.8325 -4.35281
      vertex 26.9878 22.8764 1.31835
    endloop
  endfacet
  facet normal -0.00258553 -0.99956 0.0295528
    outer loop
      vertex -29.7792 22.8764 -3.64812
      vertex 26.9878 22.8764 1.31835
      vertex 26.9251 22.8978 2.03469
    endloop
  endfacet
  facet normal 0.0107726 0.992332 -0.123132
    outer loop
      vertex -29.8206 -22.7661 -0.126331
      vertex -29.7377 -22.687 0.51781
      vertex 26.6817 -22.7661 4.81698
    endloop
  endfacet
  facet normal 0.0106762 0.992334 -0.123119
    outer loop
      vertex -29.8206 -22.7661 -0.126331
      vertex -29.7925 -22.7347 0.129024
      vertex -29.7377 -22.687 0.51781
    endloop
  endfacet
  facet normal 0.00805052 0.995725 -0.0920179
    outer loop
      vertex -29.8206 -22.7661 -0.126331
      vertex 26.6817 -22.7661 4.81698
      vertex 26.7441 -22.8325 4.10338
    endloop
  endfacet
  facet normal 0.991042 -0.008052 0.133305
    outer loop
      vertex -29.8412 -22.3642 -7.54256
      vertex -29.7774 -22.2579 -8.0105
      vertex -29.7154 -22.1396 -8.46417
    endloop
  endfacet
  facet normal 0.966604 -0.0298551 0.25453
    outer loop
      vertex -29.8423 22.8837 -3.40785
      vertex -28.9233 -20.854 -12.028
      vertex -29.5947 22.8324 -4.35422
    endloop
  endfacet
  facet normal 0.966604 -0.0298553 0.254531
    outer loop
      vertex -29.8423 22.8837 -3.40785
      vertex -29.1643 -21.2321 -11.1571
      vertex -28.9233 -20.854 -12.028
    endloop
  endfacet
  facet normal 0.96697 -0.0200851 0.254096
    outer loop
      vertex -29.8423 22.8837 -3.40785
      vertex -29.5947 22.8324 -4.35422
      vertex -29.595 22.8325 -4.35281
    endloop
  endfacet
  facet normal 0.966602 -0.0299133 0.254532
    outer loop
      vertex -29.8423 22.8837 -3.40785
      vertex -29.595 22.8325 -4.35281
      vertex -29.7792 22.8764 -3.64812
    endloop
  endfacet
  facet normal -0.0191665 0.975534 0.21901
    outer loop
      vertex -29.8649 -22.4161 -7.31369
      vertex -29.7774 -22.2579 -8.0105
      vertex -29.8412 -22.3642 -7.54256
    endloop
  endfacet
  facet normal -0.0164807 0.981959 0.188376
    outer loop
      vertex -29.8649 -22.4161 -7.31369
      vertex 27.2438 -22.5521 -1.60821
      vertex 27.3054 -22.4161 -2.31193
    endloop
  endfacet
  facet normal -0.019161 0.975534 0.219011
    outer loop
      vertex -29.8649 -22.4161 -7.31369
      vertex 27.3054 -22.4161 -2.31193
      vertex -29.7774 -22.2579 -8.0105
    endloop
  endfacet
  facet normal 0.00805052 0.995725 -0.0920179
    outer loop
      vertex -29.9013 -22.8325 -0.852445
      vertex -29.8206 -22.7661 -0.126331
      vertex 26.7441 -22.8325 4.10338
    endloop
  endfacet
  facet normal 0.00984542 0.995691 -0.0922142
    outer loop
      vertex -29.9013 -22.8325 -0.852445
      vertex -29.9011 -22.8324 -0.850991
      vertex -29.8206 -22.7661 -0.126331
    endloop
  endfacet
  facet normal 0.0053208 0.998135 -0.060817
    outer loop
      vertex -29.9013 -22.8325 -0.852445
      vertex 26.7441 -22.8325 4.10338
      vertex 26.8067 -22.8764 3.38806
    endloop
  endfacet
  facet normal 0.994724 -0.00275318 0.102549
    outer loop
      vertex -29.9377 -22.5521 -6.61095
      vertex -29.8649 -22.4161 -7.31369
      vertex -29.8412 -22.3642 -7.54256
    endloop
  endfacet
  facet normal -0.0164807 0.981959 0.188376
    outer loop
      vertex -29.9377 -22.5521 -6.61095
      vertex 27.2438 -22.5521 -1.60821
      vertex -29.8649 -22.4161 -7.31369
    endloop
  endfacet
  facet normal -0.00258553 -0.99956 0.0295528
    outer loop
      vertex -29.9495 22.8978 -2.94119
      vertex -29.7792 22.8764 -3.64812
      vertex 26.9251 22.8978 2.03469
    endloop
  endfacet
  facet normal -0.00259499 -0.99956 0.0295505
    outer loop
      vertex -29.9495 22.8978 -2.94119
      vertex -29.8423 22.8837 -3.40785
      vertex -29.7792 22.8764 -3.64812
    endloop
  endfacet
  facet normal 0.000151818 -0.999998 -0.00173529
    outer loop
      vertex -29.9495 22.8978 -2.94119
      vertex 26.9251 22.8978 2.03469
      vertex 26.8624 22.8965 2.75134
    endloop
  endfacet
  facet normal 0.995638 0.0416476 -0.0834915
    outer loop
      vertex -29.9603 -22.8764 -1.57841
      vertex -29.9011 -22.8324 -0.850991
      vertex -29.9013 -22.8325 -0.852445
    endloop
  endfacet
  facet normal 0.0053208 0.998135 -0.060817
    outer loop
      vertex -29.9603 -22.8764 -1.57841
      vertex -29.9013 -22.8325 -0.852445
      vertex 26.8067 -22.8764 3.38806
    endloop
  endfacet
  facet normal 0.00258553 0.99956 -0.0295528
    outer loop
      vertex -29.9603 -22.8764 -1.57841
      vertex 26.8067 -22.8764 3.38806
      vertex 26.8694 -22.8978 2.67172
    endloop
  endfacet
  facet normal -0.0137843 0.987414 0.157555
    outer loop
      vertex -29.9884 -22.6659 -5.90232
      vertex 27.1819 -22.6659 -0.900569
      vertex 27.2438 -22.5521 -1.60821
    endloop
  endfacet
  facet normal -0.0137843 0.987414 0.157555
    outer loop
      vertex -29.9884 -22.6659 -5.90232
      vertex 27.2438 -22.5521 -1.60821
      vertex -29.9377 -22.5521 -6.61095
    endloop
  endfacet
  facet normal 0.997422 0.00260167 0.0717151
    outer loop
      vertex -30.0051 -22.6958 -5.66896
      vertex -29.9884 -22.6659 -5.90232
      vertex -29.9377 -22.5521 -6.61095
    endloop
  endfacet
  facet normal 0.00258553 0.99956 -0.0295528
    outer loop
      vertex -30.0052 -22.8978 -2.30416
      vertex -29.9603 -22.8764 -1.57841
      vertex 26.8694 -22.8978 2.67172
    endloop
  endfacet
  facet normal 0.0025759 0.99956 -0.0295522
    outer loop
      vertex -30.0052 -22.8978 -2.30416
      vertex -29.9807 -22.8837 -1.82598
      vertex -29.9603 -22.8764 -1.57841
    endloop
  endfacet
  facet normal -0.000151818 0.999998 0.00173529
    outer loop
      vertex -30.0052 -22.8978 -2.30416
      vertex 26.8694 -22.8978 2.67172
      vertex 26.9321 -22.8965 1.95507
    endloop
  endfacet
  facet normal -0.0112828 0.991893 0.126571
    outer loop
      vertex -30.0242 -22.7573 -5.18917
      vertex -29.9884 -22.6659 -5.90232
      vertex -30.0051 -22.6958 -5.66896
    endloop
  endfacet
  facet normal -0.0110744 0.991894 0.126581
    outer loop
      vertex -30.0242 -22.7573 -5.18917
      vertex 27.1197 -22.7573 -0.18972
      vertex 27.1819 -22.6659 -0.900569
    endloop
  endfacet
  facet normal -0.0110744 0.991894 0.126581
    outer loop
      vertex -30.0242 -22.7573 -5.18917
      vertex 27.1819 -22.6659 -0.900569
      vertex -29.9884 -22.6659 -5.90232
    endloop
  endfacet
  facet normal 0.998351 0.02443 -0.0519457
    outer loop
      vertex -30.0308 -22.8969 -2.79644
      vertex -29.9807 -22.8837 -1.82598
      vertex -30.0052 -22.8978 -2.30416
    endloop
  endfacet
  facet normal -0.000151818 0.999998 0.00173529
    outer loop
      vertex -30.0357 -22.8965 -3.02897
      vertex -30.0052 -22.8978 -2.30416
      vertex 26.9321 -22.8965 1.95507
    endloop
  endfacet
  facet normal -8.57789e-05 0.999998 0.00173251
    outer loop
      vertex -30.0357 -22.8965 -3.02897
      vertex -30.0308 -22.8969 -2.79644
      vertex -30.0052 -22.8978 -2.30416
    endloop
  endfacet
  facet normal -0.00288986 0.99945 0.0330313
    outer loop
      vertex -30.0357 -22.8965 -3.02897
      vertex 26.9321 -22.8965 1.95507
      vertex 26.9948 -22.8727 1.2388
    endloop
  endfacet
  facet normal 0.999134 0.00803671 0.0408277
    outer loop
      vertex -30.0431 -22.8026 -4.71881
      vertex -30.0242 -22.7573 -5.18917
      vertex -30.0051 -22.6958 -5.66896
    endloop
  endfacet
  facet normal -0.0084925 0.995395 0.0954765
    outer loop
      vertex -30.0452 -22.8262 -4.47218
      vertex -30.0242 -22.7573 -5.18917
      vertex -30.0431 -22.8026 -4.71881
    endloop
  endfacet
  facet normal -0.00835347 0.995396 0.0954806
    outer loop
      vertex -30.0452 -22.8262 -4.47218
      vertex 27.0573 -22.8262 0.523638
      vertex 27.1197 -22.7573 -0.18972
    endloop
  endfacet
  facet normal -0.00835347 0.995396 0.0954806
    outer loop
      vertex -30.0452 -22.8262 -4.47218
      vertex 27.1197 -22.7573 -0.18972
      vertex -30.0242 -22.7573 -5.18917
    endloop
  endfacet
  facet normal 0.999595 0.0191732 -0.021022
    outer loop
      vertex -30.0514 -22.8727 -3.75209
      vertex -30.0308 -22.8969 -2.79644
      vertex -30.0357 -22.8965 -3.02897
    endloop
  endfacet
  facet normal -0.00288986 0.99945 0.0330313
    outer loop
      vertex -30.0514 -22.8727 -3.75209
      vertex -30.0357 -22.8965 -3.02897
      vertex 26.9948 -22.8727 1.2388
    endloop
  endfacet
  facet normal -0.00562444 0.997916 0.0642876
    outer loop
      vertex -30.0514 -22.8727 -3.75209
      vertex 26.9948 -22.8727 1.2388
      vertex 27.0573 -22.8262 0.523638
    endloop
  endfacet
  facet normal -0.00562444 0.997916 0.0642876
    outer loop
      vertex -30.0514 -22.8727 -3.75209
      vertex 27.0573 -22.8262 0.523638
      vertex -30.0452 -22.8262 -4.47218
    endloop
  endfacet
  facet normal 0.999583 0.0198021 -0.0210058
    outer loop
      vertex -30.0516 -22.8721 -3.76142
      vertex -30.0308 -22.8969 -2.79644
      vertex -30.0514 -22.8727 -3.75209
    endloop
  endfacet
  facet normal 0.999858 0.0136535 0.00991708
    outer loop
      vertex -30.0516 -22.8721 -3.76142
      vertex -30.0452 -22.8262 -4.47218
      vertex -30.0431 -22.8026 -4.71881
    endloop
  endfacet
  facet normal -0.00869404 0.997895 0.0642598
    outer loop
      vertex -30.0516 -22.8721 -3.76142
      vertex -30.0514 -22.8727 -3.75209
      vertex -30.0452 -22.8262 -4.47218
    endloop
  endfacet
  facet normal 0.974162 -0.0244673 0.224519
    outer loop
      vertex -30.0602 22.8969 -2.46085
      vertex -29.1643 -21.2321 -11.1571
      vertex -29.8423 22.8837 -3.40785
    endloop
  endfacet
  facet normal 0.974163 -0.0244672 0.224519
    outer loop
      vertex -30.0602 22.8969 -2.46085
      vertex -29.3768 -21.5737 -10.2724
      vertex -29.1643 -21.2321 -11.1571
    endloop
  endfacet
  facet normal 0.974162 -0.0244858 0.224519
    outer loop
      vertex -30.0602 22.8969 -2.46085
      vertex -29.8423 22.8837 -3.40785
      vertex -29.9495 22.8978 -2.94119
    endloop
  endfacet
  facet normal 0.000151818 -0.999998 -0.00173529
    outer loop
      vertex -30.1054 22.8965 -2.23269
      vertex -29.9495 22.8978 -2.94119
      vertex 26.8624 22.8965 2.75134
    endloop
  endfacet
  facet normal 0.000216381 -0.999998 -0.00172108
    outer loop
      vertex -30.1054 22.8965 -2.23269
      vertex -30.0602 22.8969 -2.46085
      vertex -29.9495 22.8978 -2.94119
    endloop
  endfacet
  facet normal 0.00288986 -0.99945 -0.0330313
    outer loop
      vertex -30.1054 22.8965 -2.23269
      vertex 26.8624 22.8965 2.75134
      vertex 26.7998 22.8727 3.46761
    endloop
  endfacet
  facet normal 0.98076 -0.0190305 0.194286
    outer loop
      vertex -30.2464 22.8727 -1.52328
      vertex -30.0602 22.8969 -2.46085
      vertex -30.1054 22.8965 -2.23269
    endloop
  endfacet
  facet normal 0.00288986 -0.99945 -0.0330313
    outer loop
      vertex -30.2464 22.8727 -1.52328
      vertex -30.1054 22.8965 -2.23269
      vertex 26.7998 22.8727 3.46761
    endloop
  endfacet
  facet normal 0.00562444 -0.997916 -0.0642876
    outer loop
      vertex -30.2464 22.8727 -1.52328
      vertex 26.7998 22.8727 3.46761
      vertex 26.7372 22.8262 4.18277
    endloop
  endfacet
  facet normal 0.98076 -0.0190553 0.194286
    outer loop
      vertex -30.2482 22.8721 -1.51413
      vertex -29.3768 -21.5737 -10.2724
      vertex -30.0602 22.8969 -2.46085
    endloop
  endfacet
  facet normal 0.98076 -0.0190551 0.194285
    outer loop
      vertex -30.2482 22.8721 -1.51413
      vertex -29.5605 -21.8785 -9.37483
      vertex -29.3768 -21.5737 -10.2724
    endloop
  endfacet
  facet normal 0.980721 -0.0216718 0.19421
    outer loop
      vertex -30.2482 22.8721 -1.51413
      vertex -30.0602 22.8969 -2.46085
      vertex -30.2464 22.8727 -1.52328
    endloop
  endfacet
  facet normal 0.00562444 -0.997916 -0.0642876
    outer loop
      vertex -30.3653 22.8262 -0.81305
      vertex -30.2464 22.8727 -1.52328
      vertex 26.7372 22.8262 4.18277
    endloop
  endfacet
  facet normal 0.00259859 -0.997895 -0.064793
    outer loop
      vertex -30.3653 22.8262 -0.81305
      vertex -30.2482 22.8721 -1.51413
      vertex -30.2464 22.8727 -1.52328
    endloop
  endfacet
  facet normal 0.00835347 -0.995396 -0.0954806
    outer loop
      vertex -30.3653 22.8262 -0.81305
      vertex 26.7372 22.8262 4.18277
      vertex 26.6748 22.7573 4.89613
    endloop
  endfacet
  facet normal 0.0858317 0.173648 -0.98106
    outer loop
      vertex -30.3976 20.256 8.061
      vertex 25.9665 20.256 12.9922
      vertex -29.7377 -22.687 0.51781
    endloop
  endfacet
  facet normal 0.0397034 -0.890213 -0.453812
    outer loop
      vertex -30.3976 20.256 8.061
      vertex 26.0161 20.5472 12.4252
      vertex 25.9665 20.256 12.9922
    endloop
  endfacet
  facet normal 0.98639 -0.0136239 0.163858
    outer loop
      vertex -30.4061 22.8026 -0.569802
      vertex -29.5605 -21.8785 -9.37483
      vertex -30.2482 22.8721 -1.51413
    endloop
  endfacet
  facet normal 0.986389 -0.0136243 0.16386
    outer loop
      vertex -30.4061 22.8026 -0.569802
      vertex -29.7154 -22.1396 -8.46417
      vertex -29.5605 -21.8785 -9.37483
    endloop
  endfacet
  facet normal 0.98639 -0.0136543 0.163856
    outer loop
      vertex -30.4061 22.8026 -0.569802
      vertex -30.2482 22.8721 -1.51413
      vertex -30.3653 22.8262 -0.81305
    endloop
  endfacet
  facet normal 0.988707 0.0405371 -0.144275
    outer loop
      vertex -30.4559 20.4316 7.71143
      vertex -29.7377 -22.687 0.51781
      vertex -29.7925 -22.7347 0.129024
    endloop
  endfacet
  facet normal 0.988707 0.0405372 -0.144275
    outer loop
      vertex -30.4559 20.4316 7.71143
      vertex -30.3976 20.256 8.061
      vertex -29.7377 -22.687 0.51781
    endloop
  endfacet
  facet normal 0.00835347 -0.995396 -0.0954806
    outer loop
      vertex -30.4692 22.7573 -0.103317
      vertex -30.3653 22.8262 -0.81305
      vertex 26.6748 22.7573 4.89613
    endloop
  endfacet
  facet normal 0.00821638 -0.995395 -0.0955006
    outer loop
      vertex -30.4692 22.7573 -0.103317
      vertex -30.4061 22.8026 -0.569802
      vertex -30.3653 22.8262 -0.81305
    endloop
  endfacet
  facet normal 0.0110744 -0.991894 -0.126581
    outer loop
      vertex -30.4692 22.7573 -0.103317
      vertex 26.6748 22.7573 4.89613
      vertex 26.6126 22.6659 5.60698
    endloop
  endfacet
  facet normal 0.039626 -0.89022 -0.453804
    outer loop
      vertex -30.4862 20.5472 7.4819
      vertex -30.3976 20.256 8.061
      vertex -30.4559 20.4316 7.71143
    endloop
  endfacet
  facet normal 0.0397034 -0.890213 -0.453812
    outer loop
      vertex -30.4862 20.5472 7.4819
      vertex 26.0161 20.5472 12.4252
      vertex -30.3976 20.256 8.061
    endloop
  endfacet
  facet normal 0.0372466 -0.904083 -0.42573
    outer loop
      vertex -30.4862 20.5472 7.4819
      vertex 26.0728 20.8547 11.7773
      vertex 26.0161 20.5472 12.4252
    endloop
  endfacet
  facet normal 0.991045 -0.00818026 0.133275
    outer loop
      vertex -30.5337 22.6958 0.372506
      vertex -29.7154 -22.1396 -8.46417
      vertex -30.4061 22.8026 -0.569802
    endloop
  endfacet
  facet normal 0.991045 -0.00818013 0.133274
    outer loop
      vertex -30.5337 22.6958 0.372506
      vertex -29.8412 -22.3642 -7.54256
      vertex -29.7154 -22.1396 -8.46417
    endloop
  endfacet
  facet normal 0.991045 -0.00814555 0.133279
    outer loop
      vertex -30.5337 22.6958 0.372506
      vertex -30.4061 22.8026 -0.569802
      vertex -30.4692 22.7573 -0.103317
    endloop
  endfacet
  facet normal 0.0110744 -0.991894 -0.126581
    outer loop
      vertex -30.5577 22.6659 0.605224
      vertex -30.4692 22.7573 -0.103317
      vertex 26.6126 22.6659 5.60698
    endloop
  endfacet
  facet normal 0.0108665 -0.991893 -0.126607
    outer loop
      vertex -30.5577 22.6659 0.605224
      vertex -30.5337 22.6958 0.372506
      vertex -30.4692 22.7573 -0.103317
    endloop
  endfacet
  facet normal 0.0137843 -0.987414 -0.157555
    outer loop
      vertex -30.5577 22.6659 0.605224
      vertex 26.6126 22.6659 5.60698
      vertex 26.5507 22.5521 6.31462
    endloop
  endfacet
  facet normal 0.992901 0.0352146 -0.113608
    outer loop
      vertex -30.5725 20.854 6.82279
      vertex -29.7925 -22.7347 0.129024
      vertex -29.8206 -22.7661 -0.126331
    endloop
  endfacet
  facet normal 0.992902 0.0352136 -0.113601
    outer loop
      vertex -30.5725 20.854 6.82279
      vertex -29.8206 -22.7661 -0.126331
      vertex -29.9011 -22.8324 -0.850991
    endloop
  endfacet
  facet normal 0.992902 0.0352138 -0.113603
    outer loop
      vertex -30.5725 20.854 6.82279
      vertex -30.4559 20.4316 7.71143
      vertex -29.7925 -22.7347 0.129024
    endloop
  endfacet
  facet normal 0.992902 0.0352101 -0.113604
    outer loop
      vertex -30.5725 20.854 6.82279
      vertex -30.4862 20.5472 7.4819
      vertex -30.4559 20.4316 7.71143
    endloop
  endfacet
  facet normal 0.0110001 -0.90598 -0.423178
    outer loop
      vertex -30.5726 20.8547 6.82147
      vertex -30.4862 20.5472 7.4819
      vertex -30.5725 20.854 6.82279
    endloop
  endfacet
  facet normal 0.0372466 -0.904083 -0.42573
    outer loop
      vertex -30.5726 20.8547 6.82147
      vertex 26.0728 20.8547 11.7773
      vertex -30.4862 20.5472 7.4819
    endloop
  endfacet
  facet normal 0.0347534 -0.917059 -0.397233
    outer loop
      vertex -30.5726 20.8547 6.82147
      vertex 26.1303 21.1415 11.1201
      vertex 26.0728 20.8547 11.7773
    endloop
  endfacet
  facet normal 0.994724 -0.00272761 0.102555
    outer loop
      vertex -30.6309 22.5521 1.31188
      vertex -29.8412 -22.3642 -7.54256
      vertex -30.5337 22.6958 0.372506
    endloop
  endfacet
  facet normal 0.994724 -0.00272746 0.102554
    outer loop
      vertex -30.6309 22.5521 1.31188
      vertex -29.9377 -22.5521 -6.61095
      vertex -29.8412 -22.3642 -7.54256
    endloop
  endfacet
  facet normal 0.994725 -0.00283646 0.102539
    outer loop
      vertex -30.6309 22.5521 1.31188
      vertex -30.5337 22.6958 0.372506
      vertex -30.5577 22.6659 0.605224
    endloop
  endfacet
  facet normal 0.0137843 -0.987414 -0.157555
    outer loop
      vertex -30.6309 22.5521 1.31188
      vertex -30.5577 22.6659 0.605224
      vertex 26.5507 22.5521 6.31462
    endloop
  endfacet
  facet normal 0.0347534 -0.917059 -0.397233
    outer loop
      vertex -30.6368 21.1415 6.15361
      vertex 26.1303 21.1415 11.1201
      vertex -30.5726 20.8547 6.82147
    endloop
  endfacet
  facet normal 0.0322255 -0.929133 -0.368339
    outer loop
      vertex -30.6368 21.1415 6.15361
      vertex 26.1885 21.4075 10.4542
      vertex 26.1303 21.1415 11.1201
    endloop
  endfacet
  facet normal 0.996118 0.0298554 -0.0828164
    outer loop
      vertex -30.6586 21.2321 5.92322
      vertex -29.9011 -22.8324 -0.850991
      vertex -29.9603 -22.8764 -1.57841
    endloop
  endfacet
  facet normal 0.996118 0.0298553 -0.0828153
    outer loop
      vertex -30.6586 21.2321 5.92322
      vertex -29.9603 -22.8764 -1.57841
      vertex -29.9807 -22.8837 -1.82598
    endloop
  endfacet
  facet normal 0.996118 0.0298552 -0.0828151
    outer loop
      vertex -30.6586 21.2321 5.92322
      vertex -30.5725 20.854 6.82279
      vertex -29.9011 -22.8324 -0.850991
    endloop
  endfacet
  facet normal 0.996011 0.0199045 -0.0869867
    outer loop
      vertex -30.6586 21.2321 5.92322
      vertex -30.5726 20.8547 6.82147
      vertex -30.5725 20.854 6.82279
    endloop
  endfacet
  facet normal 0.996117 0.0296659 -0.0828952
    outer loop
      vertex -30.6586 21.2321 5.92322
      vertex -30.6368 21.1415 6.15361
      vertex -30.5726 20.8547 6.82147
    endloop
  endfacet
  facet normal 0.0164807 -0.981959 -0.188375
    outer loop
      vertex -30.6812 22.4161 2.01659
      vertex -30.6309 22.5521 1.31188
      vertex 26.5507 22.5521 6.31462
    endloop
  endfacet
  facet normal 0.0164807 -0.981959 -0.188376
    outer loop
      vertex -30.6812 22.4161 2.01659
      vertex 26.5507 22.5521 6.31462
      vertex 26.4891 22.4161 7.01834
    endloop
  endfacet
  facet normal 0.0320677 -0.929142 -0.368331
    outer loop
      vertex -30.6861 21.4075 5.47833
      vertex -30.6368 21.1415 6.15361
      vertex -30.6586 21.2321 5.92322
    endloop
  endfacet
  facet normal 0.0322255 -0.929133 -0.368339
    outer loop
      vertex -30.6861 21.4075 5.47833
      vertex 26.1885 21.4075 10.4542
      vertex -30.6368 21.1415 6.15361
    endloop
  endfacet
  facet normal 0.0296662 -0.940287 -0.339087
    outer loop
      vertex -30.6861 21.4075 5.47833
      vertex 26.2475 21.6524 9.78034
      vertex 26.1885 21.4075 10.4542
    endloop
  endfacet
  facet normal 0.99742 0.0027275 0.0717354
    outer loop
      vertex -30.6976 22.3642 2.24611
      vertex -29.9377 -22.5521 -6.61095
      vertex -30.6309 22.5521 1.31188
    endloop
  endfacet
  facet normal 0.99742 0.00272775 0.0717342
    outer loop
      vertex -30.6976 22.3642 2.24611
      vertex -30.0051 -22.6958 -5.66896
      vertex -29.9377 -22.5521 -6.61095
    endloop
  endfacet
  facet normal 0.997419 0.00279833 0.0717496
    outer loop
      vertex -30.6976 22.3642 2.24611
      vertex -30.6309 22.5521 1.31188
      vertex -30.6812 22.4161 2.01659
    endloop
  endfacet
  facet normal 0.99835 0.0244672 -0.0519461
    outer loop
      vertex -30.7143 21.5737 5.01509
      vertex -29.9807 -22.8837 -1.82598
      vertex -30.0308 -22.8969 -2.79644
    endloop
  endfacet
  facet normal 0.999597 0.019055 -0.0210253
    outer loop
      vertex -30.7143 21.5737 5.01509
      vertex -30.0308 -22.8969 -2.79644
      vertex -30.0516 -22.8721 -3.76142
    endloop
  endfacet
  facet normal 0.99835 0.0244673 -0.0519466
    outer loop
      vertex -30.7143 21.5737 5.01509
      vertex -30.6586 21.2321 5.92322
      vertex -29.9807 -22.8837 -1.82598
    endloop
  endfacet
  facet normal 0.998351 0.0242887 -0.0520138
    outer loop
      vertex -30.7143 21.5737 5.01509
      vertex -30.6861 21.4075 5.47833
      vertex -30.6586 21.2321 5.92322
    endloop
  endfacet
  facet normal 0.019161 -0.975534 -0.219011
    outer loop
      vertex -30.716 22.2579 2.71802
      vertex -30.6812 22.4161 2.01659
      vertex 26.4891 22.4161 7.01834
    endloop
  endfacet
  facet normal 0.0191671 -0.975534 -0.219011
    outer loop
      vertex -30.716 22.2579 2.71802
      vertex -30.6976 22.3642 2.24611
      vertex -30.6812 22.4161 2.01659
    endloop
  endfacet
  facet normal 0.019161 -0.975534 -0.219011
    outer loop
      vertex -30.716 22.2579 2.71802
      vertex 26.4891 22.4161 7.01834
      vertex 26.4279 22.2579 7.71747
    endloop
  endfacet
  facet normal 0.0297198 -0.940285 -0.339089
    outer loop
      vertex -30.7204 21.6524 4.79631
      vertex -30.6861 21.4075 5.47833
      vertex -30.7143 21.5737 5.01509
    endloop
  endfacet
  facet normal 0.0296662 -0.940287 -0.339087
    outer loop
      vertex -30.7204 21.6524 4.79631
      vertex 26.2475 21.6524 9.78034
      vertex -30.6861 21.4075 5.47833
    endloop
  endfacet
  facet normal 0.027077 -0.950516 -0.309492
    outer loop
      vertex -30.7204 21.6524 4.79631
      vertex 26.3071 21.8759 9.09915
      vertex 26.2475 21.6524 9.78034
    endloop
  endfacet
  facet normal 0.999132 0.00818027 0.0408431
    outer loop
      vertex -30.7337 22.1396 3.17556
      vertex -30.0051 -22.6958 -5.66896
      vertex -30.6976 22.3642 2.24611
    endloop
  endfacet
  facet normal 0.999132 0.00818014 0.0408437
    outer loop
      vertex -30.7337 22.1396 3.17556
      vertex -30.0431 -22.8026 -4.71881
      vertex -30.0051 -22.6958 -5.66896
    endloop
  endfacet
  facet normal 0.999131 0.00823757 0.0408569
    outer loop
      vertex -30.7337 22.1396 3.17556
      vertex -30.6976 22.3642 2.24611
      vertex -30.716 22.2579 2.71802
    endloop
  endfacet
  facet normal 0.0218221 -0.968148 -0.249428
    outer loop
      vertex -30.7353 22.0778 3.41548
      vertex -30.716 22.2579 2.71802
      vertex 26.4279 22.2579 7.71747
    endloop
  endfacet
  facet normal 0.0215739 -0.968151 -0.249435
    outer loop
      vertex -30.7353 22.0778 3.41548
      vertex -30.7337 22.1396 3.17556
      vertex -30.716 22.2579 2.71802
    endloop
  endfacet
  facet normal 0.0218221 -0.968148 -0.249428
    outer loop
      vertex -30.7353 22.0778 3.41548
      vertex 26.4279 22.2579 7.71747
      vertex 26.3672 22.0778 8.4113
    endloop
  endfacet
  facet normal 0.0244617 -0.959805 -0.279598
    outer loop
      vertex -30.7391 21.8759 4.10826
      vertex -30.7353 22.0778 3.41548
      vertex 26.3672 22.0778 8.4113
    endloop
  endfacet
  facet normal 0.027077 -0.950517 -0.309492
    outer loop
      vertex -30.7391 21.8759 4.10826
      vertex 26.3071 21.8759 9.09915
      vertex -30.7204 21.6524 4.79631
    endloop
  endfacet
  facet normal 0.0244617 -0.959805 -0.279598
    outer loop
      vertex -30.7391 21.8759 4.10826
      vertex 26.3672 22.0778 8.4113
      vertex 26.3071 21.8759 9.09915
    endloop
  endfacet
  facet normal 0.999858 0.0136241 0.00991525
    outer loop
      vertex -30.7393 21.8785 4.09928
      vertex -30.0431 -22.8026 -4.71881
      vertex -30.7337 22.1396 3.17556
    endloop
  endfacet
  facet normal 0.999858 0.0136241 0.00991496
    outer loop
      vertex -30.7393 21.8785 4.09928
      vertex -30.0516 -22.8721 -3.76142
      vertex -30.0431 -22.8026 -4.71881
    endloop
  endfacet
  facet normal 0.999597 0.0190551 -0.021026
    outer loop
      vertex -30.7393 21.8785 4.09928
      vertex -30.7143 21.5737 5.01509
      vertex -30.0516 -22.8721 -3.76142
    endloop
  endfacet
  facet normal 0.999599 0.0189409 -0.021064
    outer loop
      vertex -30.7393 21.8785 4.09928
      vertex -30.7204 21.6524 4.79631
      vertex -30.7143 21.5737 5.01509
    endloop
  endfacet
  facet normal 0.999856 0.0137654 0.00995519
    outer loop
      vertex -30.7393 21.8785 4.09928
      vertex -30.7337 22.1396 3.17556
      vertex -30.7353 22.0778 3.41548
    endloop
  endfacet
  facet normal 0.0221366 -0.959854 -0.279625
    outer loop
      vertex -30.7393 21.8785 4.09928
      vertex -30.7353 22.0778 3.41548
      vertex -30.7391 21.8759 4.10826
    endloop
  endfacet
  facet normal 0.999592 0.0194667 -0.0208933
    outer loop
      vertex -30.7393 21.8785 4.09928
      vertex -30.7391 21.8759 4.10826
      vertex -30.7204 21.6524 4.79631
    endloop
  endfacet
  facet normal 0.0858317 0.173648 -0.98106
    outer loop
      vertex -33.3348 -24.8248 -20.5614
      vertex -25.9735 -16.3062 -18.4096
      vertex 28.4293 -24.8248 -15.1577
    endloop
  endfacet
  facet normal 0.0858316 0.173648 -0.98106
    outer loop
      vertex -33.3348 -24.8248 -20.5614
      vertex -26.5441 20.821 -11.8879
      vertex -25.9735 -16.3062 -18.4096
    endloop
  endfacet
  facet normal 0.0858317 0.173648 -0.98106
    outer loop
      vertex -34.1672 29.3396 -11.0471
      vertex -26.5441 20.821 -11.8879
      vertex -33.3348 -24.8248 -20.5614
    endloop
  endfacet
  facet normal 0.0858317 0.173648 -0.98106
    outer loop
      vertex -34.1672 29.3396 -11.0471
      vertex 27.5969 29.3396 -5.64342
      vertex -26.5441 20.821 -11.8879
    endloop
  endfacet
  facet normal 0.0151344 -0.984808 -0.172987
    outer loop
      vertex -35.3948 -28.9923 2.98406
      vertex -33.3348 -24.8248 -20.5614
      vertex 28.4293 -24.8248 -15.1577
    endloop
  endfacet
  facet normal -0.0858316 -0.173648 0.98106
    outer loop
      vertex -35.3948 -28.9923 2.98406
      vertex 26.3693 -28.9923 8.38771
      vertex 25.5369 25.1721 17.902
    endloop
  endfacet
  facet normal 0.0151344 -0.984808 -0.172987
    outer loop
      vertex -35.3948 -28.9923 2.98406
      vertex 28.4293 -24.8248 -15.1577
      vertex 26.3693 -28.9923 8.38771
    endloop
  endfacet
  facet normal -0.996195 -6.3781e-08 -0.0871557
    outer loop
      vertex -36.2272 25.1721 12.4984
      vertex -33.3348 -24.8248 -20.5614
      vertex -35.3948 -28.9923 2.98406
    endloop
  endfacet
  facet normal -0.996195 3.22815e-08 -0.0871559
    outer loop
      vertex -36.2272 25.1721 12.4984
      vertex -34.1672 29.3396 -11.0471
      vertex -33.3348 -24.8248 -20.5614
    endloop
  endfacet
  facet normal -0.0858316 -0.173648 0.98106
    outer loop
      vertex -36.2272 25.1721 12.4984
      vertex -35.3948 -28.9923 2.98406
      vertex 25.5369 25.1721 17.902
    endloop
  endfacet
  facet normal -0.0151344 0.984808 0.172987
    outer loop
      vertex -36.2272 25.1721 12.4984
      vertex 25.5369 25.1721 17.902
      vertex 27.5969 29.3396 -5.64342
    endloop
  endfacet
  facet normal -0.0151344 0.984808 0.172987
    outer loop
      vertex -36.2272 25.1721 12.4984
      vertex 27.5969 29.3396 -5.64342
      vertex -34.1672 29.3396 -11.0471
    endloop
  endfacet
  facet normal 0.996195 6.7842e-07 0.0871552
    outer loop
      vertex 25.5369 25.1721 17.902
      vertex 25.9665 20.256 12.9922
      vertex 26.0161 20.5472 12.4252
    endloop
  endfacet
  facet normal 0.996195 -1.11261e-06 0.0871567
    outer loop
      vertex 25.5369 25.1721 17.902
      vertex 26.0161 20.5472 12.4252
      vertex 26.0728 20.8547 11.7773
    endloop
  endfacet
  facet normal 0.996195 3.74724e-07 0.0871556
    outer loop
      vertex 25.5369 25.1721 17.902
      vertex 26.0728 20.8547 11.7773
      vertex 26.1303 21.1415 11.1201
    endloop
  endfacet
  facet normal 0.996195 -4.98993e-08 0.0871559
    outer loop
      vertex 25.5369 25.1721 17.902
      vertex 26.1303 21.1415 11.1201
      vertex 26.1885 21.4075 10.4542
    endloop
  endfacet
  facet normal 0.996195 -9.95232e-07 0.0871563
    outer loop
      vertex 25.5369 25.1721 17.902
      vertex 26.1885 21.4075 10.4542
      vertex 26.2475 21.6524 9.78034
    endloop
  endfacet
  facet normal 0.996195 -2.25712e-07 0.087156
    outer loop
      vertex 25.5369 25.1721 17.902
      vertex 26.2475 21.6524 9.78034
      vertex 26.3071 21.8759 9.09915
    endloop
  endfacet
  facet normal 0.996195 1.33566e-06 0.0871554
    outer loop
      vertex 25.5369 25.1721 17.902
      vertex 26.3071 21.8759 9.09915
      vertex 26.3672 22.0778 8.4113
    endloop
  endfacet
  facet normal 0.996195 2.49322e-06 0.0871551
    outer loop
      vertex 25.5369 25.1721 17.902
      vertex 26.3672 22.0778 8.4113
      vertex 26.4279 22.2579 7.71747
    endloop
  endfacet
  facet normal 0.996195 4.1242e-08 0.0871557
    outer loop
      vertex 25.5369 25.1721 17.902
      vertex 26.3693 -28.9923 8.38771
      vertex 26.6264 -22.687 5.44903
    endloop
  endfacet
  facet normal 0.996195 -3.59805e-06 0.0871568
    outer loop
      vertex 25.5369 25.1721 17.902
      vertex 26.4279 22.2579 7.71747
      vertex 26.4891 22.4161 7.01834
    endloop
  endfacet
  facet normal 0.996195 3.14128e-06 0.0871551
    outer loop
      vertex 25.5369 25.1721 17.902
      vertex 26.4891 22.4161 7.01834
      vertex 26.5507 22.5521 6.31462
    endloop
  endfacet
  facet normal 0.996195 -1.26344e-06 0.0871561
    outer loop
      vertex 25.5369 25.1721 17.902
      vertex 26.5507 22.5521 6.31462
      vertex 26.6126 22.6659 5.60698
    endloop
  endfacet
  facet normal 0.996195 2.45075e-07 0.0871558
    outer loop
      vertex 25.5369 25.1721 17.902
      vertex 26.6126 22.6659 5.60698
      vertex 27.5969 29.3396 -5.64342
    endloop
  endfacet
  facet normal 0.996195 -1.37666e-09 0.0871558
    outer loop
      vertex 25.5369 25.1721 17.902
      vertex 26.6264 -22.687 5.44903
      vertex 25.9665 20.256 12.9922
    endloop
  endfacet
  facet normal 0.996195 4.27333e-07 0.0871565
    outer loop
      vertex 26.3693 -28.9923 8.38771
      vertex 26.6817 -22.7661 4.81698
      vertex 26.6264 -22.687 5.44903
    endloop
  endfacet
  facet normal 0.996195 -4.1002e-08 0.0871557
    outer loop
      vertex 26.3693 -28.9923 8.38771
      vertex 26.7441 -22.8325 4.10338
      vertex 26.6817 -22.7661 4.81698
    endloop
  endfacet
  facet normal 0.996195 -4.33317e-07 0.0871551
    outer loop
      vertex 26.3693 -28.9923 8.38771
      vertex 26.8067 -22.8764 3.38806
      vertex 26.7441 -22.8325 4.10338
    endloop
  endfacet
  facet normal 0.996195 -5.69143e-08 0.0871556
    outer loop
      vertex 26.3693 -28.9923 8.38771
      vertex 26.8694 -22.8978 2.67172
      vertex 26.8067 -22.8764 3.38806
    endloop
  endfacet
  facet normal 0.996195 1.06081e-07 0.0871558
    outer loop
      vertex 26.3693 -28.9923 8.38771
      vertex 28.4293 -24.8248 -15.1577
      vertex 26.8694 -22.8978 2.67172
    endloop
  endfacet
  facet normal 0.996195 -2.45437e-07 0.0871555
    outer loop
      vertex 26.6126 22.6659 5.60698
      vertex 26.6748 22.7573 4.89613
      vertex 27.5969 29.3396 -5.64342
    endloop
  endfacet
  facet normal 0.996195 -9.10678e-07 0.0871551
    outer loop
      vertex 26.6748 22.7573 4.89613
      vertex 26.7372 22.8262 4.18277
      vertex 27.5969 29.3396 -5.64342
    endloop
  endfacet
  facet normal 0.996195 -6.84037e-09 0.0871557
    outer loop
      vertex 26.7372 22.8262 4.18277
      vertex 26.7998 22.8727 3.46761
      vertex 27.5969 29.3396 -5.64342
    endloop
  endfacet
  facet normal 0.996195 2.11476e-06 0.0871572
    outer loop
      vertex 26.7998 22.8727 3.46761
      vertex 26.8624 22.8965 2.75134
      vertex 27.5969 29.3396 -5.64342
    endloop
  endfacet
  facet normal 0.996195 -1.51413e-06 0.0871544
    outer loop
      vertex 26.8624 22.8965 2.75134
      vertex 26.9251 22.8978 2.03469
      vertex 27.5969 29.3396 -5.64342
    endloop
  endfacet
  facet normal 0.996195 1.26138e-05 0.0871544
    outer loop
      vertex 26.8694 -22.8978 2.67172
      vertex 28.4293 -24.8248 -15.1577
      vertex 26.9321 -22.8965 1.95507
    endloop
  endfacet
  facet normal 0.996195 -9.64325e-08 0.0871556
    outer loop
      vertex 26.9251 22.8978 2.03469
      vertex 26.9878 22.8764 1.31835
      vertex 27.5969 29.3396 -5.64342
    endloop
  endfacet
  facet normal 0.996195 -8.88998e-06 0.0871568
    outer loop
      vertex 26.9321 -22.8965 1.95507
      vertex 28.4293 -24.8248 -15.1577
      vertex 26.9948 -22.8727 1.2388
    endloop
  endfacet
  facet normal 0.996195 -5.9105e-07 0.0871551
    outer loop
      vertex 26.9878 22.8764 1.31835
      vertex 27.0504 22.8325 0.603025
      vertex 27.5969 29.3396 -5.64342
    endloop
  endfacet
  facet normal 0.996195 5.95711e-07 0.0871557
    outer loop
      vertex 26.9948 -22.8727 1.2388
      vertex 28.4293 -24.8248 -15.1577
      vertex 27.0573 -22.8262 0.523638
    endloop
  endfacet
  facet normal 0.996195 -4.7013e-08 0.0871557
    outer loop
      vertex 27.0504 22.8325 0.603025
      vertex 27.1128 22.7661 -0.110569
      vertex 27.5969 29.3396 -5.64342
    endloop
  endfacet
  facet normal 0.996195 2.61538e-06 0.0871554
    outer loop
      vertex 27.0573 -22.8262 0.523638
      vertex 28.4293 -24.8248 -15.1577
      vertex 27.1197 -22.7573 -0.18972
    endloop
  endfacet
  facet normal 0.996195 1.08993e-06 0.087157
    outer loop
      vertex 27.1128 22.7661 -0.110569
      vertex 27.175 22.6771 -0.821731
      vertex 27.5969 29.3396 -5.64342
    endloop
  endfacet
  facet normal 0.996195 1.17508e-06 0.0871556
    outer loop
      vertex 27.1197 -22.7573 -0.18972
      vertex 28.4293 -24.8248 -15.1577
      vertex 27.1819 -22.6659 -0.900569
    endloop
  endfacet
  facet normal 0.996195 5.08435e-07 0.0871562
    outer loop
      vertex 27.175 22.6771 -0.821731
      vertex 27.237 22.5658 -1.52976
      vertex 27.5969 29.3396 -5.64342
    endloop
  endfacet
  facet normal 0.996195 -1.54137e-06 0.087156
    outer loop
      vertex 27.1819 -22.6659 -0.900569
      vertex 28.4293 -24.8248 -15.1577
      vertex 27.2438 -22.5521 -1.60821
    endloop
  endfacet
  facet normal 0.996195 2.19708e-07 0.0871558
    outer loop
      vertex 27.237 22.5658 -1.52976
      vertex 27.2986 22.4323 -2.23396
      vertex 27.5969 29.3396 -5.64342
    endloop
  endfacet
  facet normal 0.996195 3.66179e-06 0.0871552
    outer loop
      vertex 27.2438 -22.5521 -1.60821
      vertex 28.4293 -24.8248 -15.1577
      vertex 27.3054 -22.4161 -2.31193
    endloop
  endfacet
  facet normal 0.996195 -2.27237e-07 0.0871549
    outer loop
      vertex 27.2986 22.4323 -2.23396
      vertex 27.3598 22.2766 -2.93363
      vertex 27.5969 29.3396 -5.64342
    endloop
  endfacet
  facet normal 0.996195 -4.2969e-06 0.0871567
    outer loop
      vertex 27.3054 -22.4161 -2.31193
      vertex 28.4293 -24.8248 -15.1577
      vertex 27.3666 -22.2579 -3.01106
    endloop
  endfacet
  facet normal 0.996195 9.4287e-08 0.0871557
    outer loop
      vertex 27.3598 22.2766 -2.93363
      vertex 27.4206 22.0989 -3.62808
      vertex 27.5969 29.3396 -5.64342
    endloop
  endfacet
  facet normal 0.996195 2.8747e-06 0.0871552
    outer loop
      vertex 27.3666 -22.2579 -3.01106
      vertex 28.4293 -24.8248 -15.1577
      vertex 27.4273 -22.0778 -3.70489
    endloop
  endfacet
  facet normal 0.996195 -1.03665e-07 0.087155
    outer loop
      vertex 27.4206 22.0989 -3.62808
      vertex 27.4808 21.8994 -4.31663
      vertex 27.5969 29.3396 -5.64342
    endloop
  endfacet
  facet normal 0.996195 1.4492e-06 0.0871555
    outer loop
      vertex 27.4273 -22.0778 -3.70489
      vertex 28.4293 -24.8248 -15.1577
      vertex 27.4874 -21.8759 -4.39274
    endloop
  endfacet
  facet normal 0.996195 3.55037e-07 0.0871575
    outer loop
      vertex 27.4808 21.8994 -4.31663
      vertex 27.5405 21.6783 -4.9986
      vertex 27.5969 29.3396 -5.64342
    endloop
  endfacet
  facet normal 0.996195 -3.2918e-07 0.087156
    outer loop
      vertex 27.4874 -21.8759 -4.39274
      vertex 28.4293 -24.8248 -15.1577
      vertex 27.547 -21.6524 -5.07393
    endloop
  endfacet
  facet normal 0.996195 6.61147e-08 0.0871541
    outer loop
      vertex 27.5405 21.6783 -4.9986
      vertex 27.5995 21.4358 -5.67331
      vertex 27.5969 29.3396 -5.64342
    endloop
  endfacet
  facet normal 0.996195 -1.13715e-06 0.0871562
    outer loop
      vertex 27.547 -21.6524 -5.07393
      vertex 28.4293 -24.8248 -15.1577
      vertex 27.606 -21.4075 -5.7478
    endloop
  endfacet
  facet normal 0.996195 6.20504e-08 0.0871552
    outer loop
      vertex 27.5969 29.3396 -5.64342
      vertex 27.5995 21.4358 -5.67331
      vertex 27.6578 21.1721 -6.3401
    endloop
  endfacet
  facet normal 0.996195 -7.11112e-08 0.0871567
    outer loop
      vertex 27.5969 29.3396 -5.64342
      vertex 27.6578 21.1721 -6.3401
      vertex 27.7154 20.8876 -6.99831
    endloop
  endfacet
  facet normal 0.996194 -7.89458e-07 0.0871612
    outer loop
      vertex 27.5969 29.3396 -5.64342
      vertex 27.7154 20.8876 -6.99831
      vertex 27.7278 20.821 -7.13977
    endloop
  endfacet
  facet normal 0.996195 -8.95763e-08 0.0871559
    outer loop
      vertex 27.606 -21.4075 -5.7478
      vertex 28.4293 -24.8248 -15.1577
      vertex 27.6643 -21.1415 -6.41367
    endloop
  endfacet
  facet normal 0.996195 4.22444e-07 0.0871556
    outer loop
      vertex 27.6643 -21.1415 -6.41367
      vertex 28.4293 -24.8248 -15.1577
      vertex 27.7218 -20.8547 -7.07089
    endloop
  endfacet
  facet normal 0.996195 -1.39642e-06 0.0871565
    outer loop
      vertex 27.7218 -20.8547 -7.07089
      vertex 28.4293 -24.8248 -15.1577
      vertex 27.7784 -20.5472 -7.7188
    endloop
  endfacet
  facet normal 0.996195 1.57306e-06 0.0871548
    outer loop
      vertex 27.7784 -20.5472 -7.7188
      vertex 28.4293 -24.8248 -15.1577
      vertex 27.8343 -20.2195 -8.35678
    endloop
  endfacet
  facet normal 0.996195 -5.2179e-07 0.0871562
    outer loop
      vertex 27.8343 -20.2195 -8.35678
      vertex 28.4293 -24.8248 -15.1577
      vertex 27.8892 -19.8718 -8.98419
    endloop
  endfacet
  facet normal 0.996195 1.22896e-06 0.0871548
    outer loop
      vertex 27.8892 -19.8718 -8.98419
      vertex 28.4293 -24.8248 -15.1577
      vertex 27.9431 -19.5045 -9.60041
    endloop
  endfacet
  facet normal 0.996195 -8.98112e-07 0.0871569
    outer loop
      vertex 27.9431 -19.5045 -9.60041
      vertex 28.4293 -24.8248 -15.1577
      vertex 27.9959 -19.118 -10.2048
    endloop
  endfacet
  facet normal 0.996195 -2.41785e-08 0.0871559
    outer loop
      vertex 27.9959 -19.118 -10.2048
      vertex 28.4293 -24.8248 -15.1577
      vertex 28.0477 -18.7126 -10.7969
    endloop
  endfacet
  facet normal 0.996195 -4.44777e-07 0.0871565
    outer loop
      vertex 28.0477 -18.7126 -10.7969
      vertex 28.4293 -24.8248 -15.1577
      vertex 28.0984 -18.2888 -11.3759
    endloop
  endfacet
  facet normal 0.996195 2.55967e-07 0.0871552
    outer loop
      vertex 28.0984 -18.2888 -11.3759
      vertex 28.4293 -24.8248 -15.1577
      vertex 28.1479 -17.8468 -11.9414
    endloop
  endfacet
  facet normal 0.996195 1.81568e-07 0.0871554
    outer loop
      vertex 28.1479 -17.8468 -11.9414
      vertex 28.4293 -24.8248 -15.1577
      vertex 28.1961 -17.3873 -12.4928
    endloop
  endfacet
  facet normal 0.996195 1.39985e-07 0.0871555
    outer loop
      vertex 28.1961 -17.3873 -12.4928
      vertex 28.4293 -24.8248 -15.1577
      vertex 28.2431 -16.9106 -13.0296
    endloop
  endfacet
  facet normal 0.996195 -1.45455e-07 0.0871566
    outer loop
      vertex 28.2431 -16.9106 -13.0296
      vertex 28.4293 -24.8248 -15.1577
      vertex 28.2887 -16.4173 -13.5511
    endloop
  endfacet
  facet normal 0.996196 2.00005e-06 0.0871454
    outer loop
      vertex 28.2887 -16.4173 -13.5511
      vertex 28.4293 -24.8248 -15.1577
      vertex 28.2984 -16.3062 -13.6614
    endloop
  endfacet
endsolid model
