solid model
  facet normal 0 1 0
    outer loop
      vertex -0.204069 -3.24359 0
      vertex -0.204069 -3.24359 6.05
      vertex 0.204069 -3.24359 0
    endloop
  endfacet
  facet normal 0 0 -1
    outer loop
      vertex -0.204069 -3.24359 0
      vertex 0.204069 -3.24359 0
      vertex 0.473754 -7.53011 0
    endloop
  endfacet
  facet normal 0 1 -0
    outer loop
      vertex -0.204069 -3.24359 6.05
      vertex 0.204069 -3.24359 6.05
      vertex 0.204069 -3.24359 0
    endloop
  endfacet
  facet normal -0 0 1
    outer loop
      vertex -0.204069 -3.24359 6.05
      vertex 0.379568 -6.03307 6.05
      vertex 0.204069 -3.24359 6.05
    endloop
  endfacet
  facet normal 0 -1 -0
    outer loop
      vertex -0.204069 3.24359 0
      vertex 0.204069 3.24359 0
      vertex 0.204069 3.24359 6.05
    endloop
  endfacet
  facet normal 0 -1 0
    outer loop
      vertex -0.204069 3.24359 0
      vertex 0.204069 3.24359 6.05
      vertex -0.204069 3.24359 6.05
    endloop
  endfacet
  facet normal 0 0 -1
    outer loop
      vertex -0.204069 3.24359 0
      vertex 0.473754 7.53011 0
      vertex 0.204069 3.24359 0
    endloop
  endfacet
  facet normal 0 0 1
    outer loop
      vertex -0.204069 3.24359 6.05
      vertex 0.204069 3.24359 6.05
      vertex 0.379568 6.03307 6.05
    endloop
  endfacet
  facet normal 0 -1 -0
    outer loop
      vertex -0.379568 -6.03307 1
      vertex 0.379568 -6.03307 1
      vertex 0.379568 -6.03307 6.05
    endloop
  endfacet
  facet normal 0 -1 0
    outer loop
      vertex -0.379568 -6.03307 1
      vertex 0.379568 -6.03307 6.05
      vertex -0.379568 -6.03307 6.05
    endloop
  endfacet
  facet normal -0 0 1
    outer loop
      vertex -0.379568 -6.03307 1
      vertex 0.473754 -7.53011 1
      vertex 0.379568 -6.03307 1
    endloop
  endfacet
  facet normal 0 0 1
    outer loop
      vertex -0.379568 -6.03307 6.05
      vertex 0.379568 -6.03307 6.05
      vertex -0.204069 -3.24359 6.05
    endloop
  endfacet
  facet normal 0 1 0
    outer loop
      vertex -0.379568 6.03307 1
      vertex -0.379568 6.03307 6.05
      vertex 0.379568 6.03307 1
    endloop
  endfacet
  facet normal 0 0 1
    outer loop
      vertex -0.379568 6.03307 1
      vertex 0.379568 6.03307 1
      vertex 0.473754 7.53011 1
    endloop
  endfacet
  facet normal -0 0 1
    outer loop
      vertex -0.379568 6.03307 6.05
      vertex -0.204069 3.24359 6.05
      vertex 0.379568 6.03307 6.05
    endloop
  endfacet
  facet normal 0 1 -0
    outer loop
      vertex -0.379568 6.03307 6.05
      vertex 0.379568 6.03307 6.05
      vertex 0.379568 6.03307 1
    endloop
  endfacet
  facet normal 0 0 -1
    outer loop
      vertex -0.473754 -7.53011 0
      vertex -0.204069 -3.24359 0
      vertex 0.473754 -7.53011 0
    endloop
  endfacet
  facet normal 0 -1 -0
    outer loop
      vertex -0.473754 -7.53011 0
      vertex 0.473754 -7.53011 0
      vertex 0.473754 -7.53011 1
    endloop
  endfacet
  facet normal 0 -1 0
    outer loop
      vertex -0.473754 -7.53011 0
      vertex 0.473754 -7.53011 1
      vertex -0.473754 -7.53011 1
    endloop
  endfacet
  facet normal 0 0 1
    outer loop
      vertex -0.473754 -7.53011 1
      vertex 0.473754 -7.53011 1
      vertex -0.379568 -6.03307 1
    endloop
  endfacet
  facet normal 0 1 0
    outer loop
      vertex -0.473754 7.53011 0
      vertex -0.473754 7.53011 1
      vertex 0.473754 7.53011 0
    endloop
  endfacet
  facet normal 0 0 -1
    outer loop
      vertex -0.473754 7.53011 0
      vertex 0.473754 7.53011 0
      vertex -0.204069 3.24359 0
    endloop
  endfacet
  facet normal -0 0 1
    outer loop
      vertex -0.473754 7.53011 1
      vertex -0.379568 6.03307 1
      vertex 0.473754 7.53011 1
    endloop
  endfacet
  facet normal 0 1 -0
    outer loop
      vertex -0.473754 7.53011 1
      vertex 0.473754 7.53011 1
      vertex 0.473754 7.53011 0
    endloop
  endfacet
  facet normal 0 0 -1
    outer loop
      vertex -0.608989 -3.19243 0
      vertex -0.204069 -3.24359 0
      vertex -0.473754 -7.53011 0
    endloop
  endfacet
  facet normal 0.125349 0.992113 0
    outer loop
      vertex -0.608989 -3.19243 0
      vertex -0.608989 -3.19243 6.05
      vertex -0.204069 -3.24359 0
    endloop
  endfacet
  facet normal 0.125349 0.992113 -0
    outer loop
      vertex -0.608989 -3.19243 6.05
      vertex -0.204069 -3.24359 6.05
      vertex -0.204069 -3.24359 0
    endloop
  endfacet
  facet normal 0 0 1
    outer loop
      vertex -0.608989 -3.19243 6.05
      vertex -0.379568 -6.03307 6.05
      vertex -0.204069 -3.24359 6.05
    endloop
  endfacet
  facet normal 0.125349 -0.992113 0
    outer loop
      vertex -0.608989 3.19243 0
      vertex -0.204069 3.24359 0
      vertex -0.204069 3.24359 6.05
    endloop
  endfacet
  facet normal 0.125349 -0.992113 0
    outer loop
      vertex -0.608989 3.19243 0
      vertex -0.204069 3.24359 6.05
      vertex -0.608989 3.19243 6.05
    endloop
  endfacet
  facet normal 0 0 -1
    outer loop
      vertex -0.608989 3.19243 0
      vertex -0.473754 7.53011 0
      vertex -0.204069 3.24359 0
    endloop
  endfacet
  facet normal 0 0 1
    outer loop
      vertex -0.608989 3.19243 6.05
      vertex -0.204069 3.24359 6.05
      vertex -0.379568 6.03307 6.05
    endloop
  endfacet
  facet normal 0.248693 0.968582 0
    outer loop
      vertex -1.0043 -3.09093 0
      vertex -1.0043 -3.09093 6.05
      vertex -0.608989 -3.19243 0
    endloop
  endfacet
  facet normal 0.248693 0.968582 -0
    outer loop
      vertex -1.0043 -3.09093 6.05
      vertex -0.608989 -3.19243 6.05
      vertex -0.608989 -3.19243 0
    endloop
  endfacet
  facet normal 0.248693 -0.968582 0
    outer loop
      vertex -1.0043 3.09093 0
      vertex -0.608989 3.19243 0
      vertex -0.608989 3.19243 6.05
    endloop
  endfacet
  facet normal 0.248693 -0.968582 0
    outer loop
      vertex -1.0043 3.09093 0
      vertex -0.608989 3.19243 6.05
      vertex -1.0043 3.09093 6.05
    endloop
  endfacet
  facet normal -0.125326 -0.992116 -0
    outer loop
      vertex -1.13272 -5.93793 1
      vertex -0.379568 -6.03307 1
      vertex -0.379568 -6.03307 6.05
    endloop
  endfacet
  facet normal -0.125326 -0.992116 0
    outer loop
      vertex -1.13272 -5.93793 1
      vertex -0.379568 -6.03307 6.05
      vertex -1.13272 -5.93793 6.05
    endloop
  endfacet
  facet normal 0 0 1
    outer loop
      vertex -1.13272 -5.93793 1
      vertex -0.473754 -7.53011 1
      vertex -0.379568 -6.03307 1
    endloop
  endfacet
  facet normal 0 0 1
    outer loop
      vertex -1.13272 -5.93793 6.05
      vertex -0.379568 -6.03307 6.05
      vertex -0.608989 -3.19243 6.05
    endloop
  endfacet
  facet normal 0 0 1
    outer loop
      vertex -1.13272 -5.93793 6.05
      vertex -0.608989 -3.19243 6.05
      vertex -1.0043 -3.09093 6.05
    endloop
  endfacet
  facet normal 0 0 1
    outer loop
      vertex -1.13272 5.93793 1
      vertex -0.379568 6.03307 1
      vertex -0.473754 7.53011 1
    endloop
  endfacet
  facet normal -0.125326 0.992116 0
    outer loop
      vertex -1.13272 5.93793 1
      vertex -1.13272 5.93793 6.05
      vertex -0.379568 6.03307 1
    endloop
  endfacet
  facet normal -0.125326 0.992116 0
    outer loop
      vertex -1.13272 5.93793 6.05
      vertex -0.379568 6.03307 6.05
      vertex -0.379568 6.03307 1
    endloop
  endfacet
  facet normal -0 0 1
    outer loop
      vertex -1.13272 5.93793 6.05
      vertex -0.608989 3.19243 6.05
      vertex -0.379568 6.03307 6.05
    endloop
  endfacet
  facet normal 0 0 1
    outer loop
      vertex -1.13272 5.93793 6.05
      vertex -1.0043 3.09093 6.05
      vertex -0.608989 3.19243 6.05
    endloop
  endfacet
  facet normal 0.36811 0.929782 0
    outer loop
      vertex -1.38378 -2.94069 0
      vertex -1.38378 -2.94069 6.05
      vertex -1.0043 -3.09093 0
    endloop
  endfacet
  facet normal 0.36811 0.929782 -0
    outer loop
      vertex -1.38378 -2.94069 6.05
      vertex -1.0043 -3.09093 6.05
      vertex -1.0043 -3.09093 0
    endloop
  endfacet
  facet normal 0.36811 -0.929782 0
    outer loop
      vertex -1.38378 2.94069 0
      vertex -1.0043 3.09093 0
      vertex -1.0043 3.09093 6.05
    endloop
  endfacet
  facet normal 0.36811 -0.929782 0
    outer loop
      vertex -1.38378 2.94069 0
      vertex -1.0043 3.09093 6.05
      vertex -1.38378 2.94069 6.05
    endloop
  endfacet
  facet normal -0.125329 -0.992115 -0
    outer loop
      vertex -1.41379 -7.41136 0
      vertex -0.473754 -7.53011 0
      vertex -0.473754 -7.53011 1
    endloop
  endfacet
  facet normal -0.125329 -0.992115 0
    outer loop
      vertex -1.41379 -7.41136 0
      vertex -0.473754 -7.53011 1
      vertex -1.41379 -7.41136 1
    endloop
  endfacet
  facet normal 0 0 -1
    outer loop
      vertex -1.41379 -7.41136 0
      vertex -0.608989 -3.19243 0
      vertex -0.473754 -7.53011 0
    endloop
  endfacet
  facet normal -0 0 -1
    outer loop
      vertex -1.41379 -7.41136 0
      vertex -1.0043 -3.09093 0
      vertex -0.608989 -3.19243 0
    endloop
  endfacet
  facet normal 0 0 1
    outer loop
      vertex -1.41379 -7.41136 1
      vertex -0.473754 -7.53011 1
      vertex -1.13272 -5.93793 1
    endloop
  endfacet
  facet normal 0 0 -1
    outer loop
      vertex -1.41379 7.41136 0
      vertex -0.473754 7.53011 0
      vertex -0.608989 3.19243 0
    endloop
  endfacet
  facet normal 0 0 -1
    outer loop
      vertex -1.41379 7.41136 0
      vertex -0.608989 3.19243 0
      vertex -1.0043 3.09093 0
    endloop
  endfacet
  facet normal -0.125329 0.992115 0
    outer loop
      vertex -1.41379 7.41136 0
      vertex -1.41379 7.41136 1
      vertex -0.473754 7.53011 0
    endloop
  endfacet
  facet normal -0.125329 0.992115 0
    outer loop
      vertex -1.41379 7.41136 1
      vertex -0.473754 7.53011 1
      vertex -0.473754 7.53011 0
    endloop
  endfacet
  facet normal -0 0 1
    outer loop
      vertex -1.41379 7.41136 1
      vertex -1.13272 5.93793 1
      vertex -0.473754 7.53011 1
    endloop
  endfacet
  facet normal 0.481744 0.876312 0
    outer loop
      vertex -1.74144 -2.74407 0
      vertex -1.74144 -2.74407 6.05
      vertex -1.38378 -2.94069 0
    endloop
  endfacet
  facet normal 0.481744 0.876312 -0
    outer loop
      vertex -1.74144 -2.74407 6.05
      vertex -1.38378 -2.94069 6.05
      vertex -1.38378 -2.94069 0
    endloop
  endfacet
  facet normal 0.481744 -0.876312 0
    outer loop
      vertex -1.74144 2.74407 0
      vertex -1.38378 2.94069 0
      vertex -1.38378 2.94069 6.05
    endloop
  endfacet
  facet normal 0.481744 -0.876312 0
    outer loop
      vertex -1.74144 2.74407 0
      vertex -1.38378 2.94069 6.05
      vertex -1.74144 2.74407 6.05
    endloop
  endfacet
  facet normal -0.248689 -0.968583 -0
    outer loop
      vertex -1.86801 -5.74914 1
      vertex -1.13272 -5.93793 1
      vertex -1.13272 -5.93793 6.05
    endloop
  endfacet
  facet normal -0.248689 -0.968583 0
    outer loop
      vertex -1.86801 -5.74914 1
      vertex -1.13272 -5.93793 6.05
      vertex -1.86801 -5.74914 6.05
    endloop
  endfacet
  facet normal 0 0 1
    outer loop
      vertex -1.86801 -5.74914 1
      vertex -1.41379 -7.41136 1
      vertex -1.13272 -5.93793 1
    endloop
  endfacet
  facet normal 0 0 1
    outer loop
      vertex -1.86801 -5.74914 6.05
      vertex -1.0043 -3.09093 6.05
      vertex -1.38378 -2.94069 6.05
    endloop
  endfacet
  facet normal 0 0 1
    outer loop
      vertex -1.86801 -5.74914 6.05
      vertex -1.13272 -5.93793 6.05
      vertex -1.0043 -3.09093 6.05
    endloop
  endfacet
  facet normal 0 0 1
    outer loop
      vertex -1.86801 5.74914 1
      vertex -1.13272 5.93793 1
      vertex -1.41379 7.41136 1
    endloop
  endfacet
  facet normal -0.248689 0.968583 0
    outer loop
      vertex -1.86801 5.74914 1
      vertex -1.86801 5.74914 6.05
      vertex -1.13272 5.93793 1
    endloop
  endfacet
  facet normal -0 0 1
    outer loop
      vertex -1.86801 5.74914 6.05
      vertex -1.0043 3.09093 6.05
      vertex -1.13272 5.93793 6.05
    endloop
  endfacet
  facet normal -0.248689 0.968583 0
    outer loop
      vertex -1.86801 5.74914 6.05
      vertex -1.13272 5.93793 6.05
      vertex -1.13272 5.93793 1
    endloop
  endfacet
  facet normal 0 0 1
    outer loop
      vertex -1.86801 5.74914 6.05
      vertex -1.38378 2.94069 6.05
      vertex -1.0043 3.09093 6.05
    endloop
  endfacet
  facet normal 0.58779 0.809014 0
    outer loop
      vertex -2.07163 -2.50417 0
      vertex -2.07163 -2.50417 6.05
      vertex -1.74144 -2.74407 0
    endloop
  endfacet
  facet normal 0.58779 0.809014 -0
    outer loop
      vertex -2.07163 -2.50417 6.05
      vertex -1.74144 -2.74407 6.05
      vertex -1.74144 -2.74407 0
    endloop
  endfacet
  facet normal 0.58779 -0.809014 0
    outer loop
      vertex -2.07163 2.50417 0
      vertex -1.74144 2.74407 0
      vertex -1.74144 2.74407 6.05
    endloop
  endfacet
  facet normal 0.58779 -0.809014 0
    outer loop
      vertex -2.07163 2.50417 0
      vertex -1.74144 2.74407 6.05
      vertex -2.07163 2.50417 6.05
    endloop
  endfacet
  facet normal 0 0 -1
    outer loop
      vertex -2.33153 -7.17572 0
      vertex -1.0043 -3.09093 0
      vertex -1.41379 -7.41136 0
    endloop
  endfacet
  facet normal -0 0 -1
    outer loop
      vertex -2.33153 -7.17572 0
      vertex -1.38378 -2.94069 0
      vertex -1.0043 -3.09093 0
    endloop
  endfacet
  facet normal -0.248694 -0.968582 -0
    outer loop
      vertex -2.33153 -7.17572 0
      vertex -1.41379 -7.41136 0
      vertex -1.41379 -7.41136 1
    endloop
  endfacet
  facet normal -0.248694 -0.968582 0
    outer loop
      vertex -2.33153 -7.17572 0
      vertex -1.41379 -7.41136 1
      vertex -2.33153 -7.17572 1
    endloop
  endfacet
  facet normal 0 0 1
    outer loop
      vertex -2.33153 -7.17572 1
      vertex -1.41379 -7.41136 1
      vertex -1.86801 -5.74914 1
    endloop
  endfacet
  facet normal 0 0 -1
    outer loop
      vertex -2.33153 7.17572 0
      vertex -1.0043 3.09093 0
      vertex -1.38378 2.94069 0
    endloop
  endfacet
  facet normal 0 0 -1
    outer loop
      vertex -2.33153 7.17572 0
      vertex -1.41379 7.41136 0
      vertex -1.0043 3.09093 0
    endloop
  endfacet
  facet normal -0.248694 0.968582 0
    outer loop
      vertex -2.33153 7.17572 0
      vertex -2.33153 7.17572 1
      vertex -1.41379 7.41136 0
    endloop
  endfacet
  facet normal -0.248694 0.968582 0
    outer loop
      vertex -2.33153 7.17572 1
      vertex -1.41379 7.41136 1
      vertex -1.41379 7.41136 0
    endloop
  endfacet
  facet normal -0 0 1
    outer loop
      vertex -2.33153 7.17572 1
      vertex -1.86801 5.74914 1
      vertex -1.41379 7.41136 1
    endloop
  endfacet
  facet normal 0.684547 0.728968 0
    outer loop
      vertex -2.36915 -2.22478 0
      vertex -2.36915 -2.22478 6.05
      vertex -2.07163 -2.50417 0
    endloop
  endfacet
  facet normal 0.684547 0.728968 -0
    outer loop
      vertex -2.36915 -2.22478 6.05
      vertex -2.07163 -2.50417 6.05
      vertex -2.07163 -2.50417 0
    endloop
  endfacet
  facet normal 0.684547 -0.728968 0
    outer loop
      vertex -2.36915 2.22478 0
      vertex -2.07163 2.50417 0
      vertex -2.07163 2.50417 6.05
    endloop
  endfacet
  facet normal 0.684547 -0.728968 0
    outer loop
      vertex -2.36915 2.22478 0
      vertex -2.07163 2.50417 6.05
      vertex -2.36915 2.22478 6.05
    endloop
  endfacet
  facet normal -0.368127 -0.929776 -0
    outer loop
      vertex -2.57384 -5.46968 1
      vertex -1.86801 -5.74914 1
      vertex -1.86801 -5.74914 6.05
    endloop
  endfacet
  facet normal -0.368127 -0.929776 0
    outer loop
      vertex -2.57384 -5.46968 1
      vertex -1.86801 -5.74914 6.05
      vertex -2.57384 -5.46968 6.05
    endloop
  endfacet
  facet normal 0 0 1
    outer loop
      vertex -2.57384 -5.46968 1
      vertex -2.33153 -7.17572 1
      vertex -1.86801 -5.74914 1
    endloop
  endfacet
  facet normal 0 0 1
    outer loop
      vertex -2.57384 -5.46968 6.05
      vertex -1.38378 -2.94069 6.05
      vertex -1.74144 -2.74407 6.05
    endloop
  endfacet
  facet normal 0 0 1
    outer loop
      vertex -2.57384 -5.46968 6.05
      vertex -1.86801 -5.74914 6.05
      vertex -1.38378 -2.94069 6.05
    endloop
  endfacet
  facet normal 0 0 1
    outer loop
      vertex -2.57384 5.46968 1
      vertex -1.86801 5.74914 1
      vertex -2.33153 7.17572 1
    endloop
  endfacet
  facet normal -0.368127 0.929776 0
    outer loop
      vertex -2.57384 5.46968 1
      vertex -2.57384 5.46968 6.05
      vertex -1.86801 5.74914 1
    endloop
  endfacet
  facet normal -0 0 1
    outer loop
      vertex -2.57384 5.46968 6.05
      vertex -1.38378 2.94069 6.05
      vertex -1.86801 5.74914 6.05
    endloop
  endfacet
  facet normal 0 0 1
    outer loop
      vertex -2.57384 5.46968 6.05
      vertex -1.74144 2.74407 6.05
      vertex -1.38378 2.94069 6.05
    endloop
  endfacet
  facet normal -0.368127 0.929776 0
    outer loop
      vertex -2.57384 5.46968 6.05
      vertex -1.86801 5.74914 6.05
      vertex -1.86801 5.74914 1
    endloop
  endfacet
  facet normal 0.770526 0.637409 0
    outer loop
      vertex -2.6293 -1.9103 0
      vertex -2.36915 -2.22478 6.05
      vertex -2.36915 -2.22478 0
    endloop
  endfacet
  facet normal 0.770526 0.637409 0
    outer loop
      vertex -2.6293 -1.9103 0
      vertex -2.6293 -1.9103 6.05
      vertex -2.36915 -2.22478 6.05
    endloop
  endfacet
  facet normal 0.770526 -0.637409 0
    outer loop
      vertex -2.6293 1.9103 0
      vertex -2.36915 2.22478 0
      vertex -2.6293 1.9103 6.05
    endloop
  endfacet
  facet normal 0.770526 -0.637409 0
    outer loop
      vertex -2.6293 1.9103 6.05
      vertex -2.36915 2.22478 0
      vertex -2.36915 2.22478 6.05
    endloop
  endfacet
  facet normal 0.844317 0.535845 0
    outer loop
      vertex -2.848 -1.5657 0
      vertex -2.6293 -1.9103 6.05
      vertex -2.6293 -1.9103 0
    endloop
  endfacet
  facet normal 0.844317 0.535845 0
    outer loop
      vertex -2.848 -1.5657 0
      vertex -2.848 -1.5657 6.05
      vertex -2.6293 -1.9103 6.05
    endloop
  endfacet
  facet normal 0.844317 -0.535845 0
    outer loop
      vertex -2.848 1.5657 0
      vertex -2.6293 1.9103 0
      vertex -2.848 1.5657 6.05
    endloop
  endfacet
  facet normal 0.844317 -0.535845 0
    outer loop
      vertex -2.848 1.5657 6.05
      vertex -2.6293 1.9103 0
      vertex -2.6293 1.9103 6.05
    endloop
  endfacet
  facet normal 0.904836 0.42576 0
    outer loop
      vertex -3.02177 -1.1964 0
      vertex -2.848 -1.5657 6.05
      vertex -2.848 -1.5657 0
    endloop
  endfacet
  facet normal 0.904836 0.42576 0
    outer loop
      vertex -3.02177 -1.1964 0
      vertex -3.02177 -1.1964 6.05
      vertex -2.848 -1.5657 6.05
    endloop
  endfacet
  facet normal 0.904836 -0.42576 0
    outer loop
      vertex -3.02177 1.1964 0
      vertex -2.848 1.5657 0
      vertex -3.02177 1.1964 6.05
    endloop
  endfacet
  facet normal 0.904836 -0.42576 0
    outer loop
      vertex -3.02177 1.1964 6.05
      vertex -2.848 1.5657 0
      vertex -2.848 1.5657 6.05
    endloop
  endfacet
  facet normal 0.951057 0.309017 0
    outer loop
      vertex -3.14789 -0.808242 0
      vertex -3.02177 -1.1964 6.05
      vertex -3.02177 -1.1964 0
    endloop
  endfacet
  facet normal 0.951057 0.309017 0
    outer loop
      vertex -3.14789 -0.808242 0
      vertex -3.14789 -0.808242 6.05
      vertex -3.02177 -1.1964 6.05
    endloop
  endfacet
  facet normal 0.951057 -0.309017 0
    outer loop
      vertex -3.14789 0.808242 0
      vertex -3.02177 1.1964 0
      vertex -3.14789 0.808242 6.05
    endloop
  endfacet
  facet normal 0.951057 -0.309017 0
    outer loop
      vertex -3.14789 0.808242 6.05
      vertex -3.02177 1.1964 0
      vertex -3.02177 1.1964 6.05
    endloop
  endfacet
  facet normal 0 0 -1
    outer loop
      vertex -3.2125 -6.82692 0
      vertex -1.38378 -2.94069 0
      vertex -2.33153 -7.17572 0
    endloop
  endfacet
  facet normal -0 0 -1
    outer loop
      vertex -3.2125 -6.82692 0
      vertex -1.74144 -2.74407 0
      vertex -1.38378 -2.94069 0
    endloop
  endfacet
  facet normal -0.368124 -0.929777 -0
    outer loop
      vertex -3.2125 -6.82692 0
      vertex -2.33153 -7.17572 0
      vertex -2.33153 -7.17572 1
    endloop
  endfacet
  facet normal -0.368124 -0.929777 0
    outer loop
      vertex -3.2125 -6.82692 0
      vertex -2.33153 -7.17572 1
      vertex -3.2125 -6.82692 1
    endloop
  endfacet
  facet normal 0 0 1
    outer loop
      vertex -3.2125 -6.82692 1
      vertex -2.33153 -7.17572 1
      vertex -2.57384 -5.46968 1
    endloop
  endfacet
  facet normal 0 0 -1
    outer loop
      vertex -3.2125 6.82692 0
      vertex -1.38378 2.94069 0
      vertex -1.74144 2.74407 0
    endloop
  endfacet
  facet normal 0 0 -1
    outer loop
      vertex -3.2125 6.82692 0
      vertex -2.33153 7.17572 0
      vertex -1.38378 2.94069 0
    endloop
  endfacet
  facet normal -0.368124 0.929777 0
    outer loop
      vertex -3.2125 6.82692 0
      vertex -3.2125 6.82692 1
      vertex -2.33153 7.17572 0
    endloop
  endfacet
  facet normal -0.368124 0.929777 0
    outer loop
      vertex -3.2125 6.82692 1
      vertex -2.33153 7.17572 1
      vertex -2.33153 7.17572 0
    endloop
  endfacet
  facet normal -0 0 1
    outer loop
      vertex -3.2125 6.82692 1
      vertex -2.57384 5.46968 1
      vertex -2.33153 7.17572 1
    endloop
  endfacet
  facet normal 0.982286 0.187387 0
    outer loop
      vertex -3.22437 -0.407332 0
      vertex -3.14789 -0.808242 6.05
      vertex -3.14789 -0.808242 0
    endloop
  endfacet
  facet normal 0.982286 0.187387 0
    outer loop
      vertex -3.22437 -0.407332 0
      vertex -3.22437 -0.407332 6.05
      vertex -3.14789 -0.808242 6.05
    endloop
  endfacet
  facet normal 0.982286 -0.187387 0
    outer loop
      vertex -3.22437 0.407332 0
      vertex -3.14789 0.808242 0
      vertex -3.22437 0.407332 6.05
    endloop
  endfacet
  facet normal 0.982286 -0.187387 0
    outer loop
      vertex -3.22437 0.407332 6.05
      vertex -3.14789 0.808242 0
      vertex -3.14789 0.808242 6.05
    endloop
  endfacet
  facet normal -0.48176 -0.876303 -0
    outer loop
      vertex -3.23907 -5.10396 1
      vertex -2.57384 -5.46968 1
      vertex -2.57384 -5.46968 6.05
    endloop
  endfacet
  facet normal -0.48176 -0.876303 0
    outer loop
      vertex -3.23907 -5.10396 1
      vertex -2.57384 -5.46968 6.05
      vertex -3.23907 -5.10396 6.05
    endloop
  endfacet
  facet normal 0 0 1
    outer loop
      vertex -3.23907 -5.10396 1
      vertex -3.2125 -6.82692 1
      vertex -2.57384 -5.46968 1
    endloop
  endfacet
  facet normal 0 0 1
    outer loop
      vertex -3.23907 -5.10396 6.05
      vertex -1.74144 -2.74407 6.05
      vertex -2.07163 -2.50417 6.05
    endloop
  endfacet
  facet normal 0 0 1
    outer loop
      vertex -3.23907 -5.10396 6.05
      vertex -2.57384 -5.46968 6.05
      vertex -1.74144 -2.74407 6.05
    endloop
  endfacet
  facet normal 0 0 1
    outer loop
      vertex -3.23907 5.10396 1
      vertex -2.57384 5.46968 1
      vertex -3.2125 6.82692 1
    endloop
  endfacet
  facet normal -0.48176 0.876303 0
    outer loop
      vertex -3.23907 5.10396 1
      vertex -3.23907 5.10396 6.05
      vertex -2.57384 5.46968 1
    endloop
  endfacet
  facet normal -0 0 1
    outer loop
      vertex -3.23907 5.10396 6.05
      vertex -1.74144 2.74407 6.05
      vertex -2.57384 5.46968 6.05
    endloop
  endfacet
  facet normal 0 0 1
    outer loop
      vertex -3.23907 5.10396 6.05
      vertex -2.07163 2.50417 6.05
      vertex -1.74144 2.74407 6.05
    endloop
  endfacet
  facet normal -0.48176 0.876303 0
    outer loop
      vertex -3.23907 5.10396 6.05
      vertex -2.57384 5.46968 6.05
      vertex -2.57384 5.46968 1
    endloop
  endfacet
  facet normal 0.998026 0.0627975 0
    outer loop
      vertex -3.25 0 0
      vertex -3.22437 -0.407332 6.05
      vertex -3.22437 -0.407332 0
    endloop
  endfacet
  facet normal 0.998026 -0.0627975 0
    outer loop
      vertex -3.25 0 0
      vertex -3.22437 0.407332 0
      vertex -3.25 0 6.05
    endloop
  endfacet
  facet normal 0.998026 0.0627975 0
    outer loop
      vertex -3.25 0 0
      vertex -3.25 0 6.05
      vertex -3.22437 -0.407332 6.05
    endloop
  endfacet
  facet normal 0.998026 -0.0627975 0
    outer loop
      vertex -3.25 0 6.05
      vertex -3.22437 0.407332 0
      vertex -3.22437 0.407332 6.05
    endloop
  endfacet
  facet normal -0.587782 -0.809019 -0
    outer loop
      vertex -3.85323 -4.65775 1
      vertex -3.23907 -5.10396 1
      vertex -3.23907 -5.10396 6.05
    endloop
  endfacet
  facet normal -0.587782 -0.809019 0
    outer loop
      vertex -3.85323 -4.65775 1
      vertex -3.23907 -5.10396 6.05
      vertex -3.85323 -4.65775 6.05
    endloop
  endfacet
  facet normal 0 0 1
    outer loop
      vertex -3.85323 -4.65775 6.05
      vertex -2.07163 -2.50417 6.05
      vertex -2.36915 -2.22478 6.05
    endloop
  endfacet
  facet normal 0 0 1
    outer loop
      vertex -3.85323 -4.65775 6.05
      vertex -3.23907 -5.10396 6.05
      vertex -2.07163 -2.50417 6.05
    endloop
  endfacet
  facet normal -0.587782 0.809019 0
    outer loop
      vertex -3.85323 4.65775 1
      vertex -3.85323 4.65775 6.05
      vertex -3.23907 5.10396 1
    endloop
  endfacet
  facet normal -0 0 1
    outer loop
      vertex -3.85323 4.65775 6.05
      vertex -2.07163 2.50417 6.05
      vertex -3.23907 5.10396 6.05
    endloop
  endfacet
  facet normal 0 0 1
    outer loop
      vertex -3.85323 4.65775 6.05
      vertex -2.36915 2.22478 6.05
      vertex -2.07163 2.50417 6.05
    endloop
  endfacet
  facet normal -0.587782 0.809019 0
    outer loop
      vertex -3.85323 4.65775 6.05
      vertex -3.23907 5.10396 6.05
      vertex -3.23907 5.10396 1
    endloop
  endfacet
  facet normal 0 0 -1
    outer loop
      vertex -4.04281 -6.37045 0
      vertex -1.74144 -2.74407 0
      vertex -3.2125 -6.82692 0
    endloop
  endfacet
  facet normal -0 0 -1
    outer loop
      vertex -4.04281 -6.37045 0
      vertex -2.07163 -2.50417 0
      vertex -1.74144 -2.74407 0
    endloop
  endfacet
  facet normal -0.481756 -0.876305 -0
    outer loop
      vertex -4.04281 -6.37045 0
      vertex -3.2125 -6.82692 0
      vertex -3.2125 -6.82692 1
    endloop
  endfacet
  facet normal -0.481756 -0.876305 0
    outer loop
      vertex -4.04281 -6.37045 0
      vertex -3.2125 -6.82692 1
      vertex -4.04281 -6.37045 1
    endloop
  endfacet
  facet normal 0 0 1
    outer loop
      vertex -4.04281 -6.37045 1
      vertex -3.2125 -6.82692 1
      vertex -3.23907 -5.10396 1
    endloop
  endfacet
  facet normal 0 0 1
    outer loop
      vertex -4.04281 -6.37045 1
      vertex -3.23907 -5.10396 1
      vertex -3.85323 -4.65775 1
    endloop
  endfacet
  facet normal 0 0 -1
    outer loop
      vertex -4.04281 6.37045 0
      vertex -1.74144 2.74407 0
      vertex -2.07163 2.50417 0
    endloop
  endfacet
  facet normal 0 0 -1
    outer loop
      vertex -4.04281 6.37045 0
      vertex -3.2125 6.82692 0
      vertex -1.74144 2.74407 0
    endloop
  endfacet
  facet normal -0.481756 0.876305 0
    outer loop
      vertex -4.04281 6.37045 0
      vertex -4.04281 6.37045 1
      vertex -3.2125 6.82692 0
    endloop
  endfacet
  facet normal -0.481756 0.876305 0
    outer loop
      vertex -4.04281 6.37045 1
      vertex -3.2125 6.82692 1
      vertex -3.2125 6.82692 0
    endloop
  endfacet
  facet normal -0 0 1
    outer loop
      vertex -4.04281 6.37045 1
      vertex -3.23907 5.10396 1
      vertex -3.2125 6.82692 1
    endloop
  endfacet
  facet normal 0 0 1
    outer loop
      vertex -4.04281 6.37045 1
      vertex -3.85323 4.65775 1
      vertex -3.23907 5.10396 1
    endloop
  endfacet
  facet normal -0.684542 -0.728974 -0
    outer loop
      vertex -4.40662 -4.13809 1
      vertex -3.85323 -4.65775 1
      vertex -3.85323 -4.65775 6.05
    endloop
  endfacet
  facet normal -0.684542 -0.728974 0
    outer loop
      vertex -4.40662 -4.13809 1
      vertex -3.85323 -4.65775 6.05
      vertex -4.40662 -4.13809 6.05
    endloop
  endfacet
  facet normal 0 0 1
    outer loop
      vertex -4.40662 -4.13809 6.05
      vertex -2.36915 -2.22478 6.05
      vertex -2.6293 -1.9103 6.05
    endloop
  endfacet
  facet normal 0 0 1
    outer loop
      vertex -4.40662 -4.13809 6.05
      vertex -3.85323 -4.65775 6.05
      vertex -2.36915 -2.22478 6.05
    endloop
  endfacet
  facet normal -0.684542 0.728974 0
    outer loop
      vertex -4.40662 4.13809 1
      vertex -4.40662 4.13809 6.05
      vertex -3.85323 4.65775 1
    endloop
  endfacet
  facet normal -0 0 1
    outer loop
      vertex -4.40662 4.13809 6.05
      vertex -2.36915 2.22478 6.05
      vertex -3.85323 4.65775 6.05
    endloop
  endfacet
  facet normal 0 0 1
    outer loop
      vertex -4.40662 4.13809 6.05
      vertex -2.6293 1.9103 6.05
      vertex -2.36915 2.22478 6.05
    endloop
  endfacet
  facet normal -0.684542 0.728974 0
    outer loop
      vertex -4.40662 4.13809 6.05
      vertex -3.85323 4.65775 6.05
      vertex -3.85323 4.65775 1
    endloop
  endfacet
  facet normal 0 0 -1
    outer loop
      vertex -4.80936 -5.81352 0
      vertex -2.07163 -2.50417 0
      vertex -4.04281 -6.37045 0
    endloop
  endfacet
  facet normal -0 0 -1
    outer loop
      vertex -4.80936 -5.81352 0
      vertex -2.36915 -2.22478 0
      vertex -2.07163 -2.50417 0
    endloop
  endfacet
  facet normal -0.587784 -0.809018 -0
    outer loop
      vertex -4.80936 -5.81352 0
      vertex -4.04281 -6.37045 0
      vertex -4.04281 -6.37045 1
    endloop
  endfacet
  facet normal -0.587784 -0.809018 0
    outer loop
      vertex -4.80936 -5.81352 0
      vertex -4.04281 -6.37045 1
      vertex -4.80936 -5.81352 1
    endloop
  endfacet
  facet normal 0 0 1
    outer loop
      vertex -4.80936 -5.81352 1
      vertex -3.85323 -4.65775 1
      vertex -4.40662 -4.13809 1
    endloop
  endfacet
  facet normal 0 0 1
    outer loop
      vertex -4.80936 -5.81352 1
      vertex -4.04281 -6.37045 1
      vertex -3.85323 -4.65775 1
    endloop
  endfacet
  facet normal 0 0 -1
    outer loop
      vertex -4.80936 5.81352 0
      vertex -2.07163 2.50417 0
      vertex -2.36915 2.22478 0
    endloop
  endfacet
  facet normal 0 0 -1
    outer loop
      vertex -4.80936 5.81352 0
      vertex -4.04281 6.37045 0
      vertex -2.07163 2.50417 0
    endloop
  endfacet
  facet normal -0.587784 0.809018 0
    outer loop
      vertex -4.80936 5.81352 0
      vertex -4.80936 5.81352 1
      vertex -4.04281 6.37045 0
    endloop
  endfacet
  facet normal -0 0 1
    outer loop
      vertex -4.80936 5.81352 1
      vertex -3.85323 4.65775 1
      vertex -4.04281 6.37045 1
    endloop
  endfacet
  facet normal -0.587784 0.809018 0
    outer loop
      vertex -4.80936 5.81352 1
      vertex -4.04281 6.37045 1
      vertex -4.04281 6.37045 0
    endloop
  endfacet
  facet normal 0 0 1
    outer loop
      vertex -4.80936 5.81352 1
      vertex -4.40662 4.13809 1
      vertex -3.85323 4.65775 1
    endloop
  endfacet
  facet normal -0.770517 -0.637419 0
    outer loop
      vertex -4.89051 -3.55316 1
      vertex -4.40662 -4.13809 1
      vertex -4.89051 -3.55316 6.05
    endloop
  endfacet
  facet normal 0 0 1
    outer loop
      vertex -4.89051 -3.55316 6.05
      vertex -2.6293 -1.9103 6.05
      vertex -2.848 -1.5657 6.05
    endloop
  endfacet
  facet normal -0.770517 -0.637419 0
    outer loop
      vertex -4.89051 -3.55316 6.05
      vertex -4.40662 -4.13809 1
      vertex -4.40662 -4.13809 6.05
    endloop
  endfacet
  facet normal 0 0 1
    outer loop
      vertex -4.89051 -3.55316 6.05
      vertex -4.40662 -4.13809 6.05
      vertex -2.6293 -1.9103 6.05
    endloop
  endfacet
  facet normal -0.770517 0.637419 0
    outer loop
      vertex -4.89051 3.55316 1
      vertex -4.40662 4.13809 6.05
      vertex -4.40662 4.13809 1
    endloop
  endfacet
  facet normal -0.770517 0.637419 0
    outer loop
      vertex -4.89051 3.55316 1
      vertex -4.89051 3.55316 6.05
      vertex -4.40662 4.13809 6.05
    endloop
  endfacet
  facet normal -0 0 1
    outer loop
      vertex -4.89051 3.55316 6.05
      vertex -2.6293 1.9103 6.05
      vertex -4.40662 4.13809 6.05
    endloop
  endfacet
  facet normal 0 0 1
    outer loop
      vertex -4.89051 3.55316 6.05
      vertex -2.848 1.5657 6.05
      vertex -2.6293 1.9103 6.05
    endloop
  endfacet
  facet normal -0.844331 -0.535822 0
    outer loop
      vertex -5.29727 -2.9122 1
      vertex -4.89051 -3.55316 1
      vertex -5.29727 -2.9122 6.05
    endloop
  endfacet
  facet normal 0 0 1
    outer loop
      vertex -5.29727 -2.9122 6.05
      vertex -2.848 -1.5657 6.05
      vertex -3.02177 -1.1964 6.05
    endloop
  endfacet
  facet normal -0.844331 -0.535822 0
    outer loop
      vertex -5.29727 -2.9122 6.05
      vertex -4.89051 -3.55316 1
      vertex -4.89051 -3.55316 6.05
    endloop
  endfacet
  facet normal 0 0 1
    outer loop
      vertex -5.29727 -2.9122 6.05
      vertex -4.89051 -3.55316 6.05
      vertex -2.848 -1.5657 6.05
    endloop
  endfacet
  facet normal -0.844331 0.535822 0
    outer loop
      vertex -5.29727 2.9122 1
      vertex -4.89051 3.55316 6.05
      vertex -4.89051 3.55316 1
    endloop
  endfacet
  facet normal -0.844331 0.535822 0
    outer loop
      vertex -5.29727 2.9122 1
      vertex -5.29727 2.9122 6.05
      vertex -4.89051 3.55316 6.05
    endloop
  endfacet
  facet normal -0 0 1
    outer loop
      vertex -5.29727 2.9122 6.05
      vertex -2.848 1.5657 6.05
      vertex -4.89051 3.55316 6.05
    endloop
  endfacet
  facet normal 0 0 1
    outer loop
      vertex -5.29727 2.9122 6.05
      vertex -3.02177 1.1964 6.05
      vertex -2.848 1.5657 6.05
    endloop
  endfacet
  facet normal 0 0 -1
    outer loop
      vertex -5.50007 -5.16491 0
      vertex -2.36915 -2.22478 0
      vertex -4.80936 -5.81352 0
    endloop
  endfacet
  facet normal -0 0 -1
    outer loop
      vertex -5.50007 -5.16491 0
      vertex -2.6293 -1.9103 0
      vertex -2.36915 -2.22478 0
    endloop
  endfacet
  facet normal -0.684542 -0.728974 -0
    outer loop
      vertex -5.50007 -5.16491 0
      vertex -4.80936 -5.81352 0
      vertex -4.80936 -5.81352 1
    endloop
  endfacet
  facet normal -0.684542 -0.728974 0
    outer loop
      vertex -5.50007 -5.16491 0
      vertex -4.80936 -5.81352 1
      vertex -5.50007 -5.16491 1
    endloop
  endfacet
  facet normal 0 0 1
    outer loop
      vertex -5.50007 -5.16491 1
      vertex -4.40662 -4.13809 1
      vertex -4.89051 -3.55316 1
    endloop
  endfacet
  facet normal 0 0 1
    outer loop
      vertex -5.50007 -5.16491 1
      vertex -4.80936 -5.81352 1
      vertex -4.40662 -4.13809 1
    endloop
  endfacet
  facet normal 0 0 -1
    outer loop
      vertex -5.50007 5.16491 0
      vertex -2.36915 2.22478 0
      vertex -2.6293 1.9103 0
    endloop
  endfacet
  facet normal 0 0 -1
    outer loop
      vertex -5.50007 5.16491 0
      vertex -4.80936 5.81352 0
      vertex -2.36915 2.22478 0
    endloop
  endfacet
  facet normal -0.684542 0.728974 0
    outer loop
      vertex -5.50007 5.16491 0
      vertex -5.50007 5.16491 1
      vertex -4.80936 5.81352 0
    endloop
  endfacet
  facet normal -0 0 1
    outer loop
      vertex -5.50007 5.16491 1
      vertex -4.40662 4.13809 1
      vertex -4.80936 5.81352 1
    endloop
  endfacet
  facet normal -0.684542 0.728974 0
    outer loop
      vertex -5.50007 5.16491 1
      vertex -4.80936 5.81352 1
      vertex -4.80936 5.81352 0
    endloop
  endfacet
  facet normal 0 0 1
    outer loop
      vertex -5.50007 5.16491 1
      vertex -4.89051 3.55316 1
      vertex -4.40662 4.13809 1
    endloop
  endfacet
  facet normal -0.904825 -0.425784 0
    outer loop
      vertex -5.6205 -2.22531 1
      vertex -5.29727 -2.9122 1
      vertex -5.6205 -2.22531 6.05
    endloop
  endfacet
  facet normal 0 0 1
    outer loop
      vertex -5.6205 -2.22531 6.05
      vertex -3.02177 -1.1964 6.05
      vertex -3.14789 -0.808242 6.05
    endloop
  endfacet
  facet normal -0.904825 -0.425784 0
    outer loop
      vertex -5.6205 -2.22531 6.05
      vertex -5.29727 -2.9122 1
      vertex -5.29727 -2.9122 6.05
    endloop
  endfacet
  facet normal 0 0 1
    outer loop
      vertex -5.6205 -2.22531 6.05
      vertex -5.29727 -2.9122 6.05
      vertex -3.02177 -1.1964 6.05
    endloop
  endfacet
  facet normal -0.904825 0.425784 0
    outer loop
      vertex -5.6205 2.22531 1
      vertex -5.29727 2.9122 6.05
      vertex -5.29727 2.9122 1
    endloop
  endfacet
  facet normal -0.904825 0.425784 0
    outer loop
      vertex -5.6205 2.22531 1
      vertex -5.6205 2.22531 6.05
      vertex -5.29727 2.9122 6.05
    endloop
  endfacet
  facet normal -0 0 1
    outer loop
      vertex -5.6205 2.22531 6.05
      vertex -3.02177 1.1964 6.05
      vertex -5.29727 2.9122 6.05
    endloop
  endfacet
  facet normal 0 0 1
    outer loop
      vertex -5.6205 2.22531 6.05
      vertex -3.14789 0.808242 6.05
      vertex -3.02177 1.1964 6.05
    endloop
  endfacet
  facet normal -0.951059 -0.30901 0
    outer loop
      vertex -5.85508 -1.50333 1
      vertex -5.6205 -2.22531 1
      vertex -5.85508 -1.50333 6.05
    endloop
  endfacet
  facet normal 0 0 1
    outer loop
      vertex -5.85508 -1.50333 6.05
      vertex -3.14789 -0.808242 6.05
      vertex -3.22437 -0.407332 6.05
    endloop
  endfacet
  facet normal -0.951059 -0.30901 0
    outer loop
      vertex -5.85508 -1.50333 6.05
      vertex -5.6205 -2.22531 1
      vertex -5.6205 -2.22531 6.05
    endloop
  endfacet
  facet normal 0 0 1
    outer loop
      vertex -5.85508 -1.50333 6.05
      vertex -5.6205 -2.22531 6.05
      vertex -3.14789 -0.808242 6.05
    endloop
  endfacet
  facet normal -0.951059 0.30901 0
    outer loop
      vertex -5.85508 1.50333 1
      vertex -5.6205 2.22531 6.05
      vertex -5.6205 2.22531 1
    endloop
  endfacet
  facet normal -0.951059 0.30901 0
    outer loop
      vertex -5.85508 1.50333 1
      vertex -5.85508 1.50333 6.05
      vertex -5.6205 2.22531 6.05
    endloop
  endfacet
  facet normal -0 0 1
    outer loop
      vertex -5.85508 1.50333 6.05
      vertex -3.14789 0.808242 6.05
      vertex -5.6205 2.22531 6.05
    endloop
  endfacet
  facet normal 0 0 1
    outer loop
      vertex -5.85508 1.50333 6.05
      vertex -3.22437 0.407332 6.05
      vertex -3.14789 0.808242 6.05
    endloop
  endfacet
  facet normal -0.982287 -0.187384 0
    outer loop
      vertex -5.99733 -0.757639 1
      vertex -5.85508 -1.50333 1
      vertex -5.99733 -0.757639 6.05
    endloop
  endfacet
  facet normal 0 0 1
    outer loop
      vertex -5.99733 -0.757639 6.05
      vertex -3.22437 -0.407332 6.05
      vertex -3.25 0 6.05
    endloop
  endfacet
  facet normal -0.982287 -0.187384 0
    outer loop
      vertex -5.99733 -0.757639 6.05
      vertex -5.85508 -1.50333 1
      vertex -5.85508 -1.50333 6.05
    endloop
  endfacet
  facet normal 0 0 1
    outer loop
      vertex -5.99733 -0.757639 6.05
      vertex -5.85508 -1.50333 6.05
      vertex -3.22437 -0.407332 6.05
    endloop
  endfacet
  facet normal -0.982287 0.187384 0
    outer loop
      vertex -5.99733 0.757639 1
      vertex -5.85508 1.50333 6.05
      vertex -5.85508 1.50333 1
    endloop
  endfacet
  facet normal -0.982287 0.187384 0
    outer loop
      vertex -5.99733 0.757639 1
      vertex -5.99733 0.757639 6.05
      vertex -5.85508 1.50333 6.05
    endloop
  endfacet
  facet normal -0 0 1
    outer loop
      vertex -5.99733 0.757639 6.05
      vertex -3.22437 0.407332 6.05
      vertex -5.85508 1.50333 6.05
    endloop
  endfacet
  facet normal 0 0 1
    outer loop
      vertex -5.99733 0.757639 6.05
      vertex -3.25 0 6.05
      vertex -3.22437 0.407332 6.05
    endloop
  endfacet
  facet normal -0.998026 -0.062795 0
    outer loop
      vertex -6.045 0 1
      vertex -5.99733 -0.757639 1
      vertex -6.045 0 6.05
    endloop
  endfacet
  facet normal -0.998026 0.062795 0
    outer loop
      vertex -6.045 0 1
      vertex -5.99733 0.757639 6.05
      vertex -5.99733 0.757639 1
    endloop
  endfacet
  facet normal -0.998026 0.062795 0
    outer loop
      vertex -6.045 0 1
      vertex -6.045 0 6.05
      vertex -5.99733 0.757639 6.05
    endloop
  endfacet
  facet normal 0 0 1
    outer loop
      vertex -6.045 0 6.05
      vertex -3.25 0 6.05
      vertex -5.99733 0.757639 6.05
    endloop
  endfacet
  facet normal -0.998026 -0.062795 0
    outer loop
      vertex -6.045 0 6.05
      vertex -5.99733 -0.757639 1
      vertex -5.99733 -0.757639 6.05
    endloop
  endfacet
  facet normal 0 0 1
    outer loop
      vertex -6.045 0 6.05
      vertex -5.99733 -0.757639 6.05
      vertex -3.25 0 6.05
    endloop
  endfacet
  facet normal 0 0 -1
    outer loop
      vertex -6.10403 -4.43484 0
      vertex -2.6293 -1.9103 0
      vertex -5.50007 -5.16491 0
    endloop
  endfacet
  facet normal -0 0 -1
    outer loop
      vertex -6.10403 -4.43484 0
      vertex -2.848 -1.5657 0
      vertex -2.6293 -1.9103 0
    endloop
  endfacet
  facet normal -0.770517 -0.63742 0
    outer loop
      vertex -6.10403 -4.43484 0
      vertex -5.50007 -5.16491 0
      vertex -6.10403 -4.43484 1
    endloop
  endfacet
  facet normal 0 0 1
    outer loop
      vertex -6.10403 -4.43484 1
      vertex -4.89051 -3.55316 1
      vertex -5.29727 -2.9122 1
    endloop
  endfacet
  facet normal -0.770517 -0.63742 0
    outer loop
      vertex -6.10403 -4.43484 1
      vertex -5.50007 -5.16491 0
      vertex -5.50007 -5.16491 1
    endloop
  endfacet
  facet normal 0 0 1
    outer loop
      vertex -6.10403 -4.43484 1
      vertex -5.50007 -5.16491 1
      vertex -4.89051 -3.55316 1
    endloop
  endfacet
  facet normal 0 0 -1
    outer loop
      vertex -6.10403 4.43484 0
      vertex -2.6293 1.9103 0
      vertex -2.848 1.5657 0
    endloop
  endfacet
  facet normal 0 0 -1
    outer loop
      vertex -6.10403 4.43484 0
      vertex -5.50007 5.16491 0
      vertex -2.6293 1.9103 0
    endloop
  endfacet
  facet normal -0.770517 0.63742 0
    outer loop
      vertex -6.10403 4.43484 0
      vertex -5.50007 5.16491 1
      vertex -5.50007 5.16491 0
    endloop
  endfacet
  facet normal -0.770517 0.63742 0
    outer loop
      vertex -6.10403 4.43484 0
      vertex -6.10403 4.43484 1
      vertex -5.50007 5.16491 1
    endloop
  endfacet
  facet normal -0 0 1
    outer loop
      vertex -6.10403 4.43484 1
      vertex -4.89051 3.55316 1
      vertex -5.50007 5.16491 1
    endloop
  endfacet
  facet normal 0 0 1
    outer loop
      vertex -6.10403 4.43484 1
      vertex -5.29727 2.9122 1
      vertex -4.89051 3.55316 1
    endloop
  endfacet
  facet normal 0 0 -1
    outer loop
      vertex -6.61173 -3.63483 0
      vertex -2.848 -1.5657 0
      vertex -6.10403 -4.43484 0
    endloop
  endfacet
  facet normal -0 0 -1
    outer loop
      vertex -6.61173 -3.63483 0
      vertex -3.02177 -1.1964 0
      vertex -2.848 -1.5657 0
    endloop
  endfacet
  facet normal -0.844329 -0.535825 0
    outer loop
      vertex -6.61173 -3.63483 0
      vertex -6.10403 -4.43484 0
      vertex -6.61173 -3.63483 1
    endloop
  endfacet
  facet normal 0 0 1
    outer loop
      vertex -6.61173 -3.63483 1
      vertex -5.29727 -2.9122 1
      vertex -5.6205 -2.22531 1
    endloop
  endfacet
  facet normal -0.844329 -0.535825 0
    outer loop
      vertex -6.61173 -3.63483 1
      vertex -6.10403 -4.43484 0
      vertex -6.10403 -4.43484 1
    endloop
  endfacet
  facet normal 0 0 1
    outer loop
      vertex -6.61173 -3.63483 1
      vertex -6.10403 -4.43484 1
      vertex -5.29727 -2.9122 1
    endloop
  endfacet
  facet normal 0 0 -1
    outer loop
      vertex -6.61173 3.63483 0
      vertex -2.848 1.5657 0
      vertex -3.02177 1.1964 0
    endloop
  endfacet
  facet normal 0 0 -1
    outer loop
      vertex -6.61173 3.63483 0
      vertex -6.10403 4.43484 0
      vertex -2.848 1.5657 0
    endloop
  endfacet
  facet normal -0.844329 0.535825 0
    outer loop
      vertex -6.61173 3.63483 0
      vertex -6.10403 4.43484 1
      vertex -6.10403 4.43484 0
    endloop
  endfacet
  facet normal -0.844329 0.535825 0
    outer loop
      vertex -6.61173 3.63483 0
      vertex -6.61173 3.63483 1
      vertex -6.10403 4.43484 1
    endloop
  endfacet
  facet normal -0 0 1
    outer loop
      vertex -6.61173 3.63483 1
      vertex -5.29727 2.9122 1
      vertex -6.10403 4.43484 1
    endloop
  endfacet
  facet normal 0 0 1
    outer loop
      vertex -6.61173 3.63483 1
      vertex -5.6205 2.22531 1
      vertex -5.29727 2.9122 1
    endloop
  endfacet
  facet normal 0 0 -1
    outer loop
      vertex -7.01516 -2.7775 0
      vertex -3.02177 -1.1964 0
      vertex -6.61173 -3.63483 0
    endloop
  endfacet
  facet normal -0 0 -1
    outer loop
      vertex -7.01516 -2.7775 0
      vertex -3.14789 -0.808242 0
      vertex -3.02177 -1.1964 0
    endloop
  endfacet
  facet normal -0.904827 -0.42578 0
    outer loop
      vertex -7.01516 -2.7775 0
      vertex -6.61173 -3.63483 0
      vertex -7.01516 -2.7775 1
    endloop
  endfacet
  facet normal 0 0 1
    outer loop
      vertex -7.01516 -2.7775 1
      vertex -5.6205 -2.22531 1
      vertex -5.85508 -1.50333 1
    endloop
  endfacet
  facet normal -0.904827 -0.42578 0
    outer loop
      vertex -7.01516 -2.7775 1
      vertex -6.61173 -3.63483 0
      vertex -6.61173 -3.63483 1
    endloop
  endfacet
  facet normal 0 0 1
    outer loop
      vertex -7.01516 -2.7775 1
      vertex -6.61173 -3.63483 1
      vertex -5.6205 -2.22531 1
    endloop
  endfacet
  facet normal 0 0 -1
    outer loop
      vertex -7.01516 2.7775 0
      vertex -3.02177 1.1964 0
      vertex -3.14789 0.808242 0
    endloop
  endfacet
  facet normal 0 0 -1
    outer loop
      vertex -7.01516 2.7775 0
      vertex -6.61173 3.63483 0
      vertex -3.02177 1.1964 0
    endloop
  endfacet
  facet normal -0.904827 0.42578 0
    outer loop
      vertex -7.01516 2.7775 0
      vertex -6.61173 3.63483 1
      vertex -6.61173 3.63483 0
    endloop
  endfacet
  facet normal -0.904827 0.42578 0
    outer loop
      vertex -7.01516 2.7775 0
      vertex -7.01516 2.7775 1
      vertex -6.61173 3.63483 1
    endloop
  endfacet
  facet normal -0 0 1
    outer loop
      vertex -7.01516 2.7775 1
      vertex -5.6205 2.22531 1
      vertex -6.61173 3.63483 1
    endloop
  endfacet
  facet normal 0 0 1
    outer loop
      vertex -7.01516 2.7775 1
      vertex -5.85508 1.50333 1
      vertex -5.6205 2.22531 1
    endloop
  endfacet
  facet normal 0 0 -1
    outer loop
      vertex -7.30796 -1.87636 0
      vertex -3.14789 -0.808242 0
      vertex -7.01516 -2.7775 0
    endloop
  endfacet
  facet normal -0 0 -1
    outer loop
      vertex -7.30796 -1.87636 0
      vertex -3.22437 -0.407332 0
      vertex -3.14789 -0.808242 0
    endloop
  endfacet
  facet normal -0.951056 -0.309019 0
    outer loop
      vertex -7.30796 -1.87636 0
      vertex -7.01516 -2.7775 0
      vertex -7.30796 -1.87636 1
    endloop
  endfacet
  facet normal 0 0 1
    outer loop
      vertex -7.30796 -1.87636 1
      vertex -5.85508 -1.50333 1
      vertex -5.99733 -0.757639 1
    endloop
  endfacet
  facet normal -0.951056 -0.309019 0
    outer loop
      vertex -7.30796 -1.87636 1
      vertex -7.01516 -2.7775 0
      vertex -7.01516 -2.7775 1
    endloop
  endfacet
  facet normal 0 0 1
    outer loop
      vertex -7.30796 -1.87636 1
      vertex -7.01516 -2.7775 1
      vertex -5.85508 -1.50333 1
    endloop
  endfacet
  facet normal 0 0 -1
    outer loop
      vertex -7.30796 1.87636 0
      vertex -3.14789 0.808242 0
      vertex -3.22437 0.407332 0
    endloop
  endfacet
  facet normal 0 0 -1
    outer loop
      vertex -7.30796 1.87636 0
      vertex -7.01516 2.7775 0
      vertex -3.14789 0.808242 0
    endloop
  endfacet
  facet normal -0.951056 0.309019 0
    outer loop
      vertex -7.30796 1.87636 0
      vertex -7.01516 2.7775 1
      vertex -7.01516 2.7775 0
    endloop
  endfacet
  facet normal -0.951056 0.309019 0
    outer loop
      vertex -7.30796 1.87636 0
      vertex -7.30796 1.87636 1
      vertex -7.01516 2.7775 1
    endloop
  endfacet
  facet normal -0 0 1
    outer loop
      vertex -7.30796 1.87636 1
      vertex -5.85508 1.50333 1
      vertex -7.01516 2.7775 1
    endloop
  endfacet
  facet normal 0 0 1
    outer loop
      vertex -7.30796 1.87636 1
      vertex -5.99733 0.757639 1
      vertex -5.85508 1.50333 1
    endloop
  endfacet
  facet normal 0 0 -1
    outer loop
      vertex -7.48551 -0.945639 0
      vertex -3.22437 -0.407332 0
      vertex -7.30796 -1.87636 0
    endloop
  endfacet
  facet normal -0 0 -1
    outer loop
      vertex -7.48551 -0.945639 0
      vertex -3.25 0 0
      vertex -3.22437 -0.407332 0
    endloop
  endfacet
  facet normal -0.982286 -0.187387 0
    outer loop
      vertex -7.48551 -0.945639 0
      vertex -7.30796 -1.87636 0
      vertex -7.48551 -0.945639 1
    endloop
  endfacet
  facet normal 0 0 1
    outer loop
      vertex -7.48551 -0.945639 1
      vertex -5.99733 -0.757639 1
      vertex -6.045 0 1
    endloop
  endfacet
  facet normal -0.982286 -0.187387 0
    outer loop
      vertex -7.48551 -0.945639 1
      vertex -7.30796 -1.87636 0
      vertex -7.30796 -1.87636 1
    endloop
  endfacet
  facet normal 0 0 1
    outer loop
      vertex -7.48551 -0.945639 1
      vertex -7.30796 -1.87636 1
      vertex -5.99733 -0.757639 1
    endloop
  endfacet
  facet normal 0 0 -1
    outer loop
      vertex -7.48551 0.945639 0
      vertex -3.22437 0.407332 0
      vertex -3.25 0 0
    endloop
  endfacet
  facet normal 0 0 -1
    outer loop
      vertex -7.48551 0.945639 0
      vertex -7.30796 1.87636 0
      vertex -3.22437 0.407332 0
    endloop
  endfacet
  facet normal -0.982286 0.187387 0
    outer loop
      vertex -7.48551 0.945639 0
      vertex -7.30796 1.87636 1
      vertex -7.30796 1.87636 0
    endloop
  endfacet
  facet normal -0.982286 0.187387 0
    outer loop
      vertex -7.48551 0.945639 0
      vertex -7.48551 0.945639 1
      vertex -7.30796 1.87636 1
    endloop
  endfacet
  facet normal -0 0 1
    outer loop
      vertex -7.48551 0.945639 1
      vertex -5.99733 0.757639 1
      vertex -7.30796 1.87636 1
    endloop
  endfacet
  facet normal 0 0 1
    outer loop
      vertex -7.48551 0.945639 1
      vertex -6.045 0 1
      vertex -5.99733 0.757639 1
    endloop
  endfacet
  facet normal 0 0 -1
    outer loop
      vertex -7.545 0 0
      vertex -3.25 0 0
      vertex -7.48551 -0.945639 0
    endloop
  endfacet
  facet normal -0.998027 -0.0627857 0
    outer loop
      vertex -7.545 0 0
      vertex -7.48551 -0.945639 0
      vertex -7.545 0 1
    endloop
  endfacet
  facet normal 0 0 -1
    outer loop
      vertex -7.545 0 0
      vertex -7.48551 0.945639 0
      vertex -3.25 0 0
    endloop
  endfacet
  facet normal -0.998027 0.0627857 0
    outer loop
      vertex -7.545 0 0
      vertex -7.48551 0.945639 1
      vertex -7.48551 0.945639 0
    endloop
  endfacet
  facet normal -0.998027 0.0627857 0
    outer loop
      vertex -7.545 0 0
      vertex -7.545 0 1
      vertex -7.48551 0.945639 1
    endloop
  endfacet
  facet normal 0 0 1
    outer loop
      vertex -7.545 0 1
      vertex -6.045 0 1
      vertex -7.48551 0.945639 1
    endloop
  endfacet
  facet normal -0.998027 -0.0627857 0
    outer loop
      vertex -7.545 0 1
      vertex -7.48551 -0.945639 0
      vertex -7.48551 -0.945639 1
    endloop
  endfacet
  facet normal 0 0 1
    outer loop
      vertex -7.545 0 1
      vertex -7.48551 -0.945639 1
      vertex -6.045 0 1
    endloop
  endfacet
  facet normal -0.125349 0.992113 0
    outer loop
      vertex 0.204069 -3.24359 0
      vertex 0.204069 -3.24359 6.05
      vertex 0.608989 -3.19243 0
    endloop
  endfacet
  facet normal 0 0 -1
    outer loop
      vertex 0.204069 -3.24359 0
      vertex 0.608989 -3.19243 0
      vertex 0.473754 -7.53011 0
    endloop
  endfacet
  facet normal -0 0 1
    outer loop
      vertex 0.204069 -3.24359 6.05
      vertex 0.379568 -6.03307 6.05
      vertex 0.608989 -3.19243 6.05
    endloop
  endfacet
  facet normal -0.125349 0.992113 0
    outer loop
      vertex 0.204069 -3.24359 6.05
      vertex 0.608989 -3.19243 6.05
      vertex 0.608989 -3.19243 0
    endloop
  endfacet
  facet normal 0 0 -1
    outer loop
      vertex 0.204069 3.24359 0
      vertex 0.473754 7.53011 0
      vertex 0.608989 3.19243 0
    endloop
  endfacet
  facet normal -0.125349 -0.992113 -0
    outer loop
      vertex 0.204069 3.24359 0
      vertex 0.608989 3.19243 0
      vertex 0.608989 3.19243 6.05
    endloop
  endfacet
  facet normal -0.125349 -0.992113 0
    outer loop
      vertex 0.204069 3.24359 0
      vertex 0.608989 3.19243 6.05
      vertex 0.204069 3.24359 6.05
    endloop
  endfacet
  facet normal 0 0 1
    outer loop
      vertex 0.204069 3.24359 6.05
      vertex 0.608989 3.19243 6.05
      vertex 0.379568 6.03307 6.05
    endloop
  endfacet
  facet normal -0 0 1
    outer loop
      vertex 0.379568 -6.03307 1
      vertex 0.473754 -7.53011 1
      vertex 1.13272 -5.93793 1
    endloop
  endfacet
  facet normal 0.125326 -0.992116 0
    outer loop
      vertex 0.379568 -6.03307 1
      vertex 1.13272 -5.93793 1
      vertex 1.13272 -5.93793 6.05
    endloop
  endfacet
  facet normal 0.125326 -0.992116 0
    outer loop
      vertex 0.379568 -6.03307 1
      vertex 1.13272 -5.93793 6.05
      vertex 0.379568 -6.03307 6.05
    endloop
  endfacet
  facet normal 0 0 1
    outer loop
      vertex 0.379568 -6.03307 6.05
      vertex 1.13272 -5.93793 6.05
      vertex 0.608989 -3.19243 6.05
    endloop
  endfacet
  facet normal 0.125326 0.992116 0
    outer loop
      vertex 0.379568 6.03307 1
      vertex 0.379568 6.03307 6.05
      vertex 1.13272 5.93793 1
    endloop
  endfacet
  facet normal 0 0 1
    outer loop
      vertex 0.379568 6.03307 1
      vertex 1.13272 5.93793 1
      vertex 0.473754 7.53011 1
    endloop
  endfacet
  facet normal 0 0 1
    outer loop
      vertex 0.379568 6.03307 6.05
      vertex 0.608989 3.19243 6.05
      vertex 1.13272 5.93793 6.05
    endloop
  endfacet
  facet normal 0.125326 0.992116 -0
    outer loop
      vertex 0.379568 6.03307 6.05
      vertex 1.13272 5.93793 6.05
      vertex 1.13272 5.93793 1
    endloop
  endfacet
  facet normal 0 0 -1
    outer loop
      vertex 0.473754 -7.53011 0
      vertex 0.608989 -3.19243 0
      vertex 1.41379 -7.41136 0
    endloop
  endfacet
  facet normal 0.125329 -0.992115 0
    outer loop
      vertex 0.473754 -7.53011 0
      vertex 1.41379 -7.41136 0
      vertex 1.41379 -7.41136 1
    endloop
  endfacet
  facet normal 0.125329 -0.992115 0
    outer loop
      vertex 0.473754 -7.53011 0
      vertex 1.41379 -7.41136 1
      vertex 0.473754 -7.53011 1
    endloop
  endfacet
  facet normal 0 0 1
    outer loop
      vertex 0.473754 -7.53011 1
      vertex 1.41379 -7.41136 1
      vertex 1.13272 -5.93793 1
    endloop
  endfacet
  facet normal 0.125329 0.992115 0
    outer loop
      vertex 0.473754 7.53011 0
      vertex 0.473754 7.53011 1
      vertex 1.41379 7.41136 0
    endloop
  endfacet
  facet normal 0 0 -1
    outer loop
      vertex 0.473754 7.53011 0
      vertex 1.41379 7.41136 0
      vertex 0.608989 3.19243 0
    endloop
  endfacet
  facet normal 0 0 1
    outer loop
      vertex 0.473754 7.53011 1
      vertex 1.13272 5.93793 1
      vertex 1.41379 7.41136 1
    endloop
  endfacet
  facet normal 0.125329 0.992115 -0
    outer loop
      vertex 0.473754 7.53011 1
      vertex 1.41379 7.41136 1
      vertex 1.41379 7.41136 0
    endloop
  endfacet
  facet normal -0.248693 0.968582 0
    outer loop
      vertex 0.608989 -3.19243 0
      vertex 0.608989 -3.19243 6.05
      vertex 1.0043 -3.09093 0
    endloop
  endfacet
  facet normal 0 0 -1
    outer loop
      vertex 0.608989 -3.19243 0
      vertex 1.0043 -3.09093 0
      vertex 1.41379 -7.41136 0
    endloop
  endfacet
  facet normal -0.248693 0.968582 0
    outer loop
      vertex 0.608989 -3.19243 6.05
      vertex 1.0043 -3.09093 6.05
      vertex 1.0043 -3.09093 0
    endloop
  endfacet
  facet normal -0 0 1
    outer loop
      vertex 0.608989 -3.19243 6.05
      vertex 1.13272 -5.93793 6.05
      vertex 1.0043 -3.09093 6.05
    endloop
  endfacet
  facet normal -0.248693 -0.968582 -0
    outer loop
      vertex 0.608989 3.19243 0
      vertex 1.0043 3.09093 0
      vertex 1.0043 3.09093 6.05
    endloop
  endfacet
  facet normal -0.248693 -0.968582 0
    outer loop
      vertex 0.608989 3.19243 0
      vertex 1.0043 3.09093 6.05
      vertex 0.608989 3.19243 6.05
    endloop
  endfacet
  facet normal 0 0 -1
    outer loop
      vertex 0.608989 3.19243 0
      vertex 1.41379 7.41136 0
      vertex 1.0043 3.09093 0
    endloop
  endfacet
  facet normal 0 0 1
    outer loop
      vertex 0.608989 3.19243 6.05
      vertex 1.0043 3.09093 6.05
      vertex 1.13272 5.93793 6.05
    endloop
  endfacet
  facet normal -0.36811 0.929782 0
    outer loop
      vertex 1.0043 -3.09093 0
      vertex 1.0043 -3.09093 6.05
      vertex 1.38378 -2.94069 0
    endloop
  endfacet
  facet normal 0 0 -1
    outer loop
      vertex 1.0043 -3.09093 0
      vertex 1.38378 -2.94069 0
      vertex 2.33153 -7.17572 0
    endloop
  endfacet
  facet normal 0 0 -1
    outer loop
      vertex 1.0043 -3.09093 0
      vertex 2.33153 -7.17572 0
      vertex 1.41379 -7.41136 0
    endloop
  endfacet
  facet normal 0 0 1
    outer loop
      vertex 1.0043 -3.09093 6.05
      vertex 1.13272 -5.93793 6.05
      vertex 1.86801 -5.74914 6.05
    endloop
  endfacet
  facet normal -0.36811 0.929782 0
    outer loop
      vertex 1.0043 -3.09093 6.05
      vertex 1.38378 -2.94069 6.05
      vertex 1.38378 -2.94069 0
    endloop
  endfacet
  facet normal -0 0 1
    outer loop
      vertex 1.0043 -3.09093 6.05
      vertex 1.86801 -5.74914 6.05
      vertex 1.38378 -2.94069 6.05
    endloop
  endfacet
  facet normal -0.36811 -0.929782 -0
    outer loop
      vertex 1.0043 3.09093 0
      vertex 1.38378 2.94069 0
      vertex 1.38378 2.94069 6.05
    endloop
  endfacet
  facet normal -0.36811 -0.929782 0
    outer loop
      vertex 1.0043 3.09093 0
      vertex 1.38378 2.94069 6.05
      vertex 1.0043 3.09093 6.05
    endloop
  endfacet
  facet normal -0 0 -1
    outer loop
      vertex 1.0043 3.09093 0
      vertex 1.41379 7.41136 0
      vertex 2.33153 7.17572 0
    endloop
  endfacet
  facet normal 0 0 -1
    outer loop
      vertex 1.0043 3.09093 0
      vertex 2.33153 7.17572 0
      vertex 1.38378 2.94069 0
    endloop
  endfacet
  facet normal 0 0 1
    outer loop
      vertex 1.0043 3.09093 6.05
      vertex 1.38378 2.94069 6.05
      vertex 1.86801 5.74914 6.05
    endloop
  endfacet
  facet normal 0 0 1
    outer loop
      vertex 1.0043 3.09093 6.05
      vertex 1.86801 5.74914 6.05
      vertex 1.13272 5.93793 6.05
    endloop
  endfacet
  facet normal -0 0 1
    outer loop
      vertex 1.13272 -5.93793 1
      vertex 1.41379 -7.41136 1
      vertex 1.86801 -5.74914 1
    endloop
  endfacet
  facet normal 0.248689 -0.968583 0
    outer loop
      vertex 1.13272 -5.93793 1
      vertex 1.86801 -5.74914 1
      vertex 1.86801 -5.74914 6.05
    endloop
  endfacet
  facet normal 0.248689 -0.968583 0
    outer loop
      vertex 1.13272 -5.93793 1
      vertex 1.86801 -5.74914 6.05
      vertex 1.13272 -5.93793 6.05
    endloop
  endfacet
  facet normal 0.248689 0.968583 0
    outer loop
      vertex 1.13272 5.93793 1
      vertex 1.13272 5.93793 6.05
      vertex 1.86801 5.74914 1
    endloop
  endfacet
  facet normal 0 0 1
    outer loop
      vertex 1.13272 5.93793 1
      vertex 1.86801 5.74914 1
      vertex 1.41379 7.41136 1
    endloop
  endfacet
  facet normal 0.248689 0.968583 -0
    outer loop
      vertex 1.13272 5.93793 6.05
      vertex 1.86801 5.74914 6.05
      vertex 1.86801 5.74914 1
    endloop
  endfacet
  facet normal -0.481744 0.876312 0
    outer loop
      vertex 1.38378 -2.94069 0
      vertex 1.38378 -2.94069 6.05
      vertex 1.74144 -2.74407 0
    endloop
  endfacet
  facet normal 0 0 -1
    outer loop
      vertex 1.38378 -2.94069 0
      vertex 1.74144 -2.74407 0
      vertex 3.2125 -6.82692 0
    endloop
  endfacet
  facet normal 0 0 -1
    outer loop
      vertex 1.38378 -2.94069 0
      vertex 3.2125 -6.82692 0
      vertex 2.33153 -7.17572 0
    endloop
  endfacet
  facet normal -0.481744 0.876312 0
    outer loop
      vertex 1.38378 -2.94069 6.05
      vertex 1.74144 -2.74407 6.05
      vertex 1.74144 -2.74407 0
    endloop
  endfacet
  facet normal 0 0 1
    outer loop
      vertex 1.38378 -2.94069 6.05
      vertex 1.86801 -5.74914 6.05
      vertex 2.57384 -5.46968 6.05
    endloop
  endfacet
  facet normal -0 0 1
    outer loop
      vertex 1.38378 -2.94069 6.05
      vertex 2.57384 -5.46968 6.05
      vertex 1.74144 -2.74407 6.05
    endloop
  endfacet
  facet normal -0.481744 -0.876312 -0
    outer loop
      vertex 1.38378 2.94069 0
      vertex 1.74144 2.74407 0
      vertex 1.74144 2.74407 6.05
    endloop
  endfacet
  facet normal -0.481744 -0.876312 0
    outer loop
      vertex 1.38378 2.94069 0
      vertex 1.74144 2.74407 6.05
      vertex 1.38378 2.94069 6.05
    endloop
  endfacet
  facet normal -0 0 -1
    outer loop
      vertex 1.38378 2.94069 0
      vertex 2.33153 7.17572 0
      vertex 3.2125 6.82692 0
    endloop
  endfacet
  facet normal 0 0 -1
    outer loop
      vertex 1.38378 2.94069 0
      vertex 3.2125 6.82692 0
      vertex 1.74144 2.74407 0
    endloop
  endfacet
  facet normal 0 0 1
    outer loop
      vertex 1.38378 2.94069 6.05
      vertex 1.74144 2.74407 6.05
      vertex 2.57384 5.46968 6.05
    endloop
  endfacet
  facet normal 0 0 1
    outer loop
      vertex 1.38378 2.94069 6.05
      vertex 2.57384 5.46968 6.05
      vertex 1.86801 5.74914 6.05
    endloop
  endfacet
  facet normal 0.248694 -0.968582 0
    outer loop
      vertex 1.41379 -7.41136 0
      vertex 2.33153 -7.17572 0
      vertex 2.33153 -7.17572 1
    endloop
  endfacet
  facet normal 0.248694 -0.968582 0
    outer loop
      vertex 1.41379 -7.41136 0
      vertex 2.33153 -7.17572 1
      vertex 1.41379 -7.41136 1
    endloop
  endfacet
  facet normal 0 0 1
    outer loop
      vertex 1.41379 -7.41136 1
      vertex 2.33153 -7.17572 1
      vertex 1.86801 -5.74914 1
    endloop
  endfacet
  facet normal 0.248694 0.968582 0
    outer loop
      vertex 1.41379 7.41136 0
      vertex 1.41379 7.41136 1
      vertex 2.33153 7.17572 0
    endloop
  endfacet
  facet normal 0 0 1
    outer loop
      vertex 1.41379 7.41136 1
      vertex 1.86801 5.74914 1
      vertex 2.33153 7.17572 1
    endloop
  endfacet
  facet normal 0.248694 0.968582 -0
    outer loop
      vertex 1.41379 7.41136 1
      vertex 2.33153 7.17572 1
      vertex 2.33153 7.17572 0
    endloop
  endfacet
  facet normal -0.58779 0.809014 0
    outer loop
      vertex 1.74144 -2.74407 0
      vertex 1.74144 -2.74407 6.05
      vertex 2.07163 -2.50417 0
    endloop
  endfacet
  facet normal 0 0 -1
    outer loop
      vertex 1.74144 -2.74407 0
      vertex 2.07163 -2.50417 0
      vertex 4.04281 -6.37045 0
    endloop
  endfacet
  facet normal 0 0 -1
    outer loop
      vertex 1.74144 -2.74407 0
      vertex 4.04281 -6.37045 0
      vertex 3.2125 -6.82692 0
    endloop
  endfacet
  facet normal -0.58779 0.809014 0
    outer loop
      vertex 1.74144 -2.74407 6.05
      vertex 2.07163 -2.50417 6.05
      vertex 2.07163 -2.50417 0
    endloop
  endfacet
  facet normal 0 0 1
    outer loop
      vertex 1.74144 -2.74407 6.05
      vertex 2.57384 -5.46968 6.05
      vertex 3.23907 -5.10396 6.05
    endloop
  endfacet
  facet normal -0 0 1
    outer loop
      vertex 1.74144 -2.74407 6.05
      vertex 3.23907 -5.10396 6.05
      vertex 2.07163 -2.50417 6.05
    endloop
  endfacet
  facet normal -0.58779 -0.809014 -0
    outer loop
      vertex 1.74144 2.74407 0
      vertex 2.07163 2.50417 0
      vertex 2.07163 2.50417 6.05
    endloop
  endfacet
  facet normal -0.58779 -0.809014 0
    outer loop
      vertex 1.74144 2.74407 0
      vertex 2.07163 2.50417 6.05
      vertex 1.74144 2.74407 6.05
    endloop
  endfacet
  facet normal -0 0 -1
    outer loop
      vertex 1.74144 2.74407 0
      vertex 3.2125 6.82692 0
      vertex 4.04281 6.37045 0
    endloop
  endfacet
  facet normal 0 0 -1
    outer loop
      vertex 1.74144 2.74407 0
      vertex 4.04281 6.37045 0
      vertex 2.07163 2.50417 0
    endloop
  endfacet
  facet normal 0 0 1
    outer loop
      vertex 1.74144 2.74407 6.05
      vertex 2.07163 2.50417 6.05
      vertex 3.23907 5.10396 6.05
    endloop
  endfacet
  facet normal 0 0 1
    outer loop
      vertex 1.74144 2.74407 6.05
      vertex 3.23907 5.10396 6.05
      vertex 2.57384 5.46968 6.05
    endloop
  endfacet
  facet normal -0 0 1
    outer loop
      vertex 1.86801 -5.74914 1
      vertex 2.33153 -7.17572 1
      vertex 2.57384 -5.46968 1
    endloop
  endfacet
  facet normal 0.368127 -0.929776 0
    outer loop
      vertex 1.86801 -5.74914 1
      vertex 2.57384 -5.46968 1
      vertex 2.57384 -5.46968 6.05
    endloop
  endfacet
  facet normal 0.368127 -0.929776 0
    outer loop
      vertex 1.86801 -5.74914 1
      vertex 2.57384 -5.46968 6.05
      vertex 1.86801 -5.74914 6.05
    endloop
  endfacet
  facet normal 0.368127 0.929776 0
    outer loop
      vertex 1.86801 5.74914 1
      vertex 1.86801 5.74914 6.05
      vertex 2.57384 5.46968 1
    endloop
  endfacet
  facet normal 0 0 1
    outer loop
      vertex 1.86801 5.74914 1
      vertex 2.57384 5.46968 1
      vertex 2.33153 7.17572 1
    endloop
  endfacet
  facet normal 0.368127 0.929776 -0
    outer loop
      vertex 1.86801 5.74914 6.05
      vertex 2.57384 5.46968 6.05
      vertex 2.57384 5.46968 1
    endloop
  endfacet
  facet normal -0.684547 0.728968 0
    outer loop
      vertex 2.07163 -2.50417 0
      vertex 2.07163 -2.50417 6.05
      vertex 2.36915 -2.22478 0
    endloop
  endfacet
  facet normal 0 0 -1
    outer loop
      vertex 2.07163 -2.50417 0
      vertex 2.36915 -2.22478 0
      vertex 4.80936 -5.81352 0
    endloop
  endfacet
  facet normal 0 0 -1
    outer loop
      vertex 2.07163 -2.50417 0
      vertex 4.80936 -5.81352 0
      vertex 4.04281 -6.37045 0
    endloop
  endfacet
  facet normal -0.684547 0.728968 0
    outer loop
      vertex 2.07163 -2.50417 6.05
      vertex 2.36915 -2.22478 6.05
      vertex 2.36915 -2.22478 0
    endloop
  endfacet
  facet normal 0 0 1
    outer loop
      vertex 2.07163 -2.50417 6.05
      vertex 3.23907 -5.10396 6.05
      vertex 3.85323 -4.65775 6.05
    endloop
  endfacet
  facet normal -0 0 1
    outer loop
      vertex 2.07163 -2.50417 6.05
      vertex 3.85323 -4.65775 6.05
      vertex 2.36915 -2.22478 6.05
    endloop
  endfacet
  facet normal -0.684547 -0.728968 -0
    outer loop
      vertex 2.07163 2.50417 0
      vertex 2.36915 2.22478 0
      vertex 2.36915 2.22478 6.05
    endloop
  endfacet
  facet normal -0.684547 -0.728968 0
    outer loop
      vertex 2.07163 2.50417 0
      vertex 2.36915 2.22478 6.05
      vertex 2.07163 2.50417 6.05
    endloop
  endfacet
  facet normal -0 0 -1
    outer loop
      vertex 2.07163 2.50417 0
      vertex 4.04281 6.37045 0
      vertex 4.80936 5.81352 0
    endloop
  endfacet
  facet normal 0 0 -1
    outer loop
      vertex 2.07163 2.50417 0
      vertex 4.80936 5.81352 0
      vertex 2.36915 2.22478 0
    endloop
  endfacet
  facet normal 0 0 1
    outer loop
      vertex 2.07163 2.50417 6.05
      vertex 2.36915 2.22478 6.05
      vertex 3.85323 4.65775 6.05
    endloop
  endfacet
  facet normal 0 0 1
    outer loop
      vertex 2.07163 2.50417 6.05
      vertex 3.85323 4.65775 6.05
      vertex 3.23907 5.10396 6.05
    endloop
  endfacet
  facet normal 0.368124 -0.929777 0
    outer loop
      vertex 2.33153 -7.17572 0
      vertex 3.2125 -6.82692 0
      vertex 3.2125 -6.82692 1
    endloop
  endfacet
  facet normal 0.368124 -0.929777 0
    outer loop
      vertex 2.33153 -7.17572 0
      vertex 3.2125 -6.82692 1
      vertex 2.33153 -7.17572 1
    endloop
  endfacet
  facet normal 0 0 1
    outer loop
      vertex 2.33153 -7.17572 1
      vertex 3.2125 -6.82692 1
      vertex 2.57384 -5.46968 1
    endloop
  endfacet
  facet normal 0.368124 0.929777 0
    outer loop
      vertex 2.33153 7.17572 0
      vertex 2.33153 7.17572 1
      vertex 3.2125 6.82692 0
    endloop
  endfacet
  facet normal 0 0 1
    outer loop
      vertex 2.33153 7.17572 1
      vertex 2.57384 5.46968 1
      vertex 3.2125 6.82692 1
    endloop
  endfacet
  facet normal 0.368124 0.929777 -0
    outer loop
      vertex 2.33153 7.17572 1
      vertex 3.2125 6.82692 1
      vertex 3.2125 6.82692 0
    endloop
  endfacet
  facet normal -0.770526 0.637409 0
    outer loop
      vertex 2.36915 -2.22478 0
      vertex 2.36915 -2.22478 6.05
      vertex 2.6293 -1.9103 6.05
    endloop
  endfacet
  facet normal 0 0 -1
    outer loop
      vertex 2.36915 -2.22478 0
      vertex 2.6293 -1.9103 0
      vertex 5.50007 -5.16491 0
    endloop
  endfacet
  facet normal -0.770526 0.637409 0
    outer loop
      vertex 2.36915 -2.22478 0
      vertex 2.6293 -1.9103 6.05
      vertex 2.6293 -1.9103 0
    endloop
  endfacet
  facet normal 0 0 -1
    outer loop
      vertex 2.36915 -2.22478 0
      vertex 5.50007 -5.16491 0
      vertex 4.80936 -5.81352 0
    endloop
  endfacet
  facet normal 0 0 1
    outer loop
      vertex 2.36915 -2.22478 6.05
      vertex 3.85323 -4.65775 6.05
      vertex 4.40662 -4.13809 6.05
    endloop
  endfacet
  facet normal -0 0 1
    outer loop
      vertex 2.36915 -2.22478 6.05
      vertex 4.40662 -4.13809 6.05
      vertex 2.6293 -1.9103 6.05
    endloop
  endfacet
  facet normal -0.770526 -0.637409 0
    outer loop
      vertex 2.36915 2.22478 0
      vertex 2.6293 1.9103 0
      vertex 2.36915 2.22478 6.05
    endloop
  endfacet
  facet normal -0 0 -1
    outer loop
      vertex 2.36915 2.22478 0
      vertex 4.80936 5.81352 0
      vertex 5.50007 5.16491 0
    endloop
  endfacet
  facet normal 0 0 -1
    outer loop
      vertex 2.36915 2.22478 0
      vertex 5.50007 5.16491 0
      vertex 2.6293 1.9103 0
    endloop
  endfacet
  facet normal -0.770526 -0.637409 0
    outer loop
      vertex 2.36915 2.22478 6.05
      vertex 2.6293 1.9103 0
      vertex 2.6293 1.9103 6.05
    endloop
  endfacet
  facet normal 0 0 1
    outer loop
      vertex 2.36915 2.22478 6.05
      vertex 2.6293 1.9103 6.05
      vertex 4.40662 4.13809 6.05
    endloop
  endfacet
  facet normal 0 0 1
    outer loop
      vertex 2.36915 2.22478 6.05
      vertex 4.40662 4.13809 6.05
      vertex 3.85323 4.65775 6.05
    endloop
  endfacet
  facet normal -0 0 1
    outer loop
      vertex 2.57384 -5.46968 1
      vertex 3.2125 -6.82692 1
      vertex 3.23907 -5.10396 1
    endloop
  endfacet
  facet normal 0.48176 -0.876303 0
    outer loop
      vertex 2.57384 -5.46968 1
      vertex 3.23907 -5.10396 1
      vertex 3.23907 -5.10396 6.05
    endloop
  endfacet
  facet normal 0.48176 -0.876303 0
    outer loop
      vertex 2.57384 -5.46968 1
      vertex 3.23907 -5.10396 6.05
      vertex 2.57384 -5.46968 6.05
    endloop
  endfacet
  facet normal 0.48176 0.876303 0
    outer loop
      vertex 2.57384 5.46968 1
      vertex 2.57384 5.46968 6.05
      vertex 3.23907 5.10396 1
    endloop
  endfacet
  facet normal 0 0 1
    outer loop
      vertex 2.57384 5.46968 1
      vertex 3.23907 5.10396 1
      vertex 3.2125 6.82692 1
    endloop
  endfacet
  facet normal 0.48176 0.876303 -0
    outer loop
      vertex 2.57384 5.46968 6.05
      vertex 3.23907 5.10396 6.05
      vertex 3.23907 5.10396 1
    endloop
  endfacet
  facet normal -0.844317 0.535845 0
    outer loop
      vertex 2.6293 -1.9103 0
      vertex 2.6293 -1.9103 6.05
      vertex 2.848 -1.5657 6.05
    endloop
  endfacet
  facet normal 0 0 -1
    outer loop
      vertex 2.6293 -1.9103 0
      vertex 2.848 -1.5657 0
      vertex 6.10403 -4.43484 0
    endloop
  endfacet
  facet normal -0.844317 0.535845 0
    outer loop
      vertex 2.6293 -1.9103 0
      vertex 2.848 -1.5657 6.05
      vertex 2.848 -1.5657 0
    endloop
  endfacet
  facet normal 0 0 -1
    outer loop
      vertex 2.6293 -1.9103 0
      vertex 6.10403 -4.43484 0
      vertex 5.50007 -5.16491 0
    endloop
  endfacet
  facet normal 0 0 1
    outer loop
      vertex 2.6293 -1.9103 6.05
      vertex 4.40662 -4.13809 6.05
      vertex 4.89051 -3.55316 6.05
    endloop
  endfacet
  facet normal -0 0 1
    outer loop
      vertex 2.6293 -1.9103 6.05
      vertex 4.89051 -3.55316 6.05
      vertex 2.848 -1.5657 6.05
    endloop
  endfacet
  facet normal -0.844317 -0.535845 0
    outer loop
      vertex 2.6293 1.9103 0
      vertex 2.848 1.5657 0
      vertex 2.6293 1.9103 6.05
    endloop
  endfacet
  facet normal -0 0 -1
    outer loop
      vertex 2.6293 1.9103 0
      vertex 5.50007 5.16491 0
      vertex 6.10403 4.43484 0
    endloop
  endfacet
  facet normal 0 0 -1
    outer loop
      vertex 2.6293 1.9103 0
      vertex 6.10403 4.43484 0
      vertex 2.848 1.5657 0
    endloop
  endfacet
  facet normal -0.844317 -0.535845 0
    outer loop
      vertex 2.6293 1.9103 6.05
      vertex 2.848 1.5657 0
      vertex 2.848 1.5657 6.05
    endloop
  endfacet
  facet normal 0 0 1
    outer loop
      vertex 2.6293 1.9103 6.05
      vertex 2.848 1.5657 6.05
      vertex 4.89051 3.55316 6.05
    endloop
  endfacet
  facet normal 0 0 1
    outer loop
      vertex 2.6293 1.9103 6.05
      vertex 4.89051 3.55316 6.05
      vertex 4.40662 4.13809 6.05
    endloop
  endfacet
  facet normal -0.904836 0.42576 0
    outer loop
      vertex 2.848 -1.5657 0
      vertex 2.848 -1.5657 6.05
      vertex 3.02177 -1.1964 6.05
    endloop
  endfacet
  facet normal 0 0 -1
    outer loop
      vertex 2.848 -1.5657 0
      vertex 3.02177 -1.1964 0
      vertex 6.61173 -3.63483 0
    endloop
  endfacet
  facet normal -0.904836 0.42576 0
    outer loop
      vertex 2.848 -1.5657 0
      vertex 3.02177 -1.1964 6.05
      vertex 3.02177 -1.1964 0
    endloop
  endfacet
  facet normal 0 0 -1
    outer loop
      vertex 2.848 -1.5657 0
      vertex 6.61173 -3.63483 0
      vertex 6.10403 -4.43484 0
    endloop
  endfacet
  facet normal 0 0 1
    outer loop
      vertex 2.848 -1.5657 6.05
      vertex 4.89051 -3.55316 6.05
      vertex 5.29727 -2.9122 6.05
    endloop
  endfacet
  facet normal -0 0 1
    outer loop
      vertex 2.848 -1.5657 6.05
      vertex 5.29727 -2.9122 6.05
      vertex 3.02177 -1.1964 6.05
    endloop
  endfacet
  facet normal -0.904836 -0.42576 0
    outer loop
      vertex 2.848 1.5657 0
      vertex 3.02177 1.1964 0
      vertex 2.848 1.5657 6.05
    endloop
  endfacet
  facet normal -0 0 -1
    outer loop
      vertex 2.848 1.5657 0
      vertex 6.10403 4.43484 0
      vertex 6.61173 3.63483 0
    endloop
  endfacet
  facet normal 0 0 -1
    outer loop
      vertex 2.848 1.5657 0
      vertex 6.61173 3.63483 0
      vertex 3.02177 1.1964 0
    endloop
  endfacet
  facet normal -0.904836 -0.42576 0
    outer loop
      vertex 2.848 1.5657 6.05
      vertex 3.02177 1.1964 0
      vertex 3.02177 1.1964 6.05
    endloop
  endfacet
  facet normal 0 0 1
    outer loop
      vertex 2.848 1.5657 6.05
      vertex 3.02177 1.1964 6.05
      vertex 5.29727 2.9122 6.05
    endloop
  endfacet
  facet normal 0 0 1
    outer loop
      vertex 2.848 1.5657 6.05
      vertex 5.29727 2.9122 6.05
      vertex 4.89051 3.55316 6.05
    endloop
  endfacet
  facet normal -0.951057 0.309017 0
    outer loop
      vertex 3.02177 -1.1964 0
      vertex 3.02177 -1.1964 6.05
      vertex 3.14789 -0.808242 6.05
    endloop
  endfacet
  facet normal 0 0 -1
    outer loop
      vertex 3.02177 -1.1964 0
      vertex 3.14789 -0.808242 0
      vertex 7.01516 -2.7775 0
    endloop
  endfacet
  facet normal -0.951057 0.309017 0
    outer loop
      vertex 3.02177 -1.1964 0
      vertex 3.14789 -0.808242 6.05
      vertex 3.14789 -0.808242 0
    endloop
  endfacet
  facet normal 0 0 -1
    outer loop
      vertex 3.02177 -1.1964 0
      vertex 7.01516 -2.7775 0
      vertex 6.61173 -3.63483 0
    endloop
  endfacet
  facet normal 0 0 1
    outer loop
      vertex 3.02177 -1.1964 6.05
      vertex 5.29727 -2.9122 6.05
      vertex 5.6205 -2.22531 6.05
    endloop
  endfacet
  facet normal -0 0 1
    outer loop
      vertex 3.02177 -1.1964 6.05
      vertex 5.6205 -2.22531 6.05
      vertex 3.14789 -0.808242 6.05
    endloop
  endfacet
  facet normal -0.951057 -0.309017 0
    outer loop
      vertex 3.02177 1.1964 0
      vertex 3.14789 0.808242 0
      vertex 3.02177 1.1964 6.05
    endloop
  endfacet
  facet normal -0 0 -1
    outer loop
      vertex 3.02177 1.1964 0
      vertex 6.61173 3.63483 0
      vertex 7.01516 2.7775 0
    endloop
  endfacet
  facet normal 0 0 -1
    outer loop
      vertex 3.02177 1.1964 0
      vertex 7.01516 2.7775 0
      vertex 3.14789 0.808242 0
    endloop
  endfacet
  facet normal -0.951057 -0.309017 0
    outer loop
      vertex 3.02177 1.1964 6.05
      vertex 3.14789 0.808242 0
      vertex 3.14789 0.808242 6.05
    endloop
  endfacet
  facet normal 0 0 1
    outer loop
      vertex 3.02177 1.1964 6.05
      vertex 3.14789 0.808242 6.05
      vertex 5.6205 2.22531 6.05
    endloop
  endfacet
  facet normal 0 0 1
    outer loop
      vertex 3.02177 1.1964 6.05
      vertex 5.6205 2.22531 6.05
      vertex 5.29727 2.9122 6.05
    endloop
  endfacet
  facet normal -0.982286 0.187387 0
    outer loop
      vertex 3.14789 -0.808242 0
      vertex 3.14789 -0.808242 6.05
      vertex 3.22437 -0.407332 6.05
    endloop
  endfacet
  facet normal 0 0 -1
    outer loop
      vertex 3.14789 -0.808242 0
      vertex 3.22437 -0.407332 0
      vertex 7.30796 -1.87636 0
    endloop
  endfacet
  facet normal -0.982286 0.187387 0
    outer loop
      vertex 3.14789 -0.808242 0
      vertex 3.22437 -0.407332 6.05
      vertex 3.22437 -0.407332 0
    endloop
  endfacet
  facet normal 0 0 -1
    outer loop
      vertex 3.14789 -0.808242 0
      vertex 7.30796 -1.87636 0
      vertex 7.01516 -2.7775 0
    endloop
  endfacet
  facet normal 0 0 1
    outer loop
      vertex 3.14789 -0.808242 6.05
      vertex 5.6205 -2.22531 6.05
      vertex 5.85508 -1.50333 6.05
    endloop
  endfacet
  facet normal -0 0 1
    outer loop
      vertex 3.14789 -0.808242 6.05
      vertex 5.85508 -1.50333 6.05
      vertex 3.22437 -0.407332 6.05
    endloop
  endfacet
  facet normal -0.982286 -0.187387 0
    outer loop
      vertex 3.14789 0.808242 0
      vertex 3.22437 0.407332 0
      vertex 3.14789 0.808242 6.05
    endloop
  endfacet
  facet normal -0 0 -1
    outer loop
      vertex 3.14789 0.808242 0
      vertex 7.01516 2.7775 0
      vertex 7.30796 1.87636 0
    endloop
  endfacet
  facet normal 0 0 -1
    outer loop
      vertex 3.14789 0.808242 0
      vertex 7.30796 1.87636 0
      vertex 3.22437 0.407332 0
    endloop
  endfacet
  facet normal -0.982286 -0.187387 0
    outer loop
      vertex 3.14789 0.808242 6.05
      vertex 3.22437 0.407332 0
      vertex 3.22437 0.407332 6.05
    endloop
  endfacet
  facet normal 0 0 1
    outer loop
      vertex 3.14789 0.808242 6.05
      vertex 3.22437 0.407332 6.05
      vertex 5.85508 1.50333 6.05
    endloop
  endfacet
  facet normal 0 0 1
    outer loop
      vertex 3.14789 0.808242 6.05
      vertex 5.85508 1.50333 6.05
      vertex 5.6205 2.22531 6.05
    endloop
  endfacet
  facet normal 0.481756 -0.876305 0
    outer loop
      vertex 3.2125 -6.82692 0
      vertex 4.04281 -6.37045 0
      vertex 4.04281 -6.37045 1
    endloop
  endfacet
  facet normal 0.481756 -0.876305 0
    outer loop
      vertex 3.2125 -6.82692 0
      vertex 4.04281 -6.37045 1
      vertex 3.2125 -6.82692 1
    endloop
  endfacet
  facet normal 0 0 1
    outer loop
      vertex 3.2125 -6.82692 1
      vertex 4.04281 -6.37045 1
      vertex 3.23907 -5.10396 1
    endloop
  endfacet
  facet normal 0.481756 0.876305 0
    outer loop
      vertex 3.2125 6.82692 0
      vertex 3.2125 6.82692 1
      vertex 4.04281 6.37045 0
    endloop
  endfacet
  facet normal 0 0 1
    outer loop
      vertex 3.2125 6.82692 1
      vertex 3.23907 5.10396 1
      vertex 4.04281 6.37045 1
    endloop
  endfacet
  facet normal 0.481756 0.876305 -0
    outer loop
      vertex 3.2125 6.82692 1
      vertex 4.04281 6.37045 1
      vertex 4.04281 6.37045 0
    endloop
  endfacet
  facet normal -0.998026 0.0627975 0
    outer loop
      vertex 3.22437 -0.407332 0
      vertex 3.22437 -0.407332 6.05
      vertex 3.25 0 6.05
    endloop
  endfacet
  facet normal 0 0 -1
    outer loop
      vertex 3.22437 -0.407332 0
      vertex 3.25 0 0
      vertex 7.48551 -0.945639 0
    endloop
  endfacet
  facet normal -0.998026 0.0627975 0
    outer loop
      vertex 3.22437 -0.407332 0
      vertex 3.25 0 6.05
      vertex 3.25 0 0
    endloop
  endfacet
  facet normal 0 0 -1
    outer loop
      vertex 3.22437 -0.407332 0
      vertex 7.48551 -0.945639 0
      vertex 7.30796 -1.87636 0
    endloop
  endfacet
  facet normal 0 0 1
    outer loop
      vertex 3.22437 -0.407332 6.05
      vertex 5.85508 -1.50333 6.05
      vertex 5.99733 -0.757639 6.05
    endloop
  endfacet
  facet normal -0 0 1
    outer loop
      vertex 3.22437 -0.407332 6.05
      vertex 5.99733 -0.757639 6.05
      vertex 3.25 0 6.05
    endloop
  endfacet
  facet normal -0.998026 -0.0627975 0
    outer loop
      vertex 3.22437 0.407332 0
      vertex 3.25 0 0
      vertex 3.22437 0.407332 6.05
    endloop
  endfacet
  facet normal -0 0 -1
    outer loop
      vertex 3.22437 0.407332 0
      vertex 7.30796 1.87636 0
      vertex 7.48551 0.945639 0
    endloop
  endfacet
  facet normal 0 0 -1
    outer loop
      vertex 3.22437 0.407332 0
      vertex 7.48551 0.945639 0
      vertex 3.25 0 0
    endloop
  endfacet
  facet normal -0.998026 -0.0627975 0
    outer loop
      vertex 3.22437 0.407332 6.05
      vertex 3.25 0 0
      vertex 3.25 0 6.05
    endloop
  endfacet
  facet normal 0 0 1
    outer loop
      vertex 3.22437 0.407332 6.05
      vertex 3.25 0 6.05
      vertex 5.99733 0.757639 6.05
    endloop
  endfacet
  facet normal 0 0 1
    outer loop
      vertex 3.22437 0.407332 6.05
      vertex 5.99733 0.757639 6.05
      vertex 5.85508 1.50333 6.05
    endloop
  endfacet
  facet normal 0.587782 -0.809019 0
    outer loop
      vertex 3.23907 -5.10396 1
      vertex 3.85323 -4.65775 1
      vertex 3.85323 -4.65775 6.05
    endloop
  endfacet
  facet normal 0.587782 -0.809019 0
    outer loop
      vertex 3.23907 -5.10396 1
      vertex 3.85323 -4.65775 6.05
      vertex 3.23907 -5.10396 6.05
    endloop
  endfacet
  facet normal -0 0 1
    outer loop
      vertex 3.23907 -5.10396 1
      vertex 4.04281 -6.37045 1
      vertex 3.85323 -4.65775 1
    endloop
  endfacet
  facet normal 0.587782 0.809019 0
    outer loop
      vertex 3.23907 5.10396 1
      vertex 3.23907 5.10396 6.05
      vertex 3.85323 4.65775 1
    endloop
  endfacet
  facet normal 0 0 1
    outer loop
      vertex 3.23907 5.10396 1
      vertex 3.85323 4.65775 1
      vertex 4.04281 6.37045 1
    endloop
  endfacet
  facet normal 0.587782 0.809019 -0
    outer loop
      vertex 3.23907 5.10396 6.05
      vertex 3.85323 4.65775 6.05
      vertex 3.85323 4.65775 1
    endloop
  endfacet
  facet normal 0 0 -1
    outer loop
      vertex 3.25 0 0
      vertex 7.48551 0.945639 0
      vertex 7.545 0 0
    endloop
  endfacet
  facet normal 0 0 -1
    outer loop
      vertex 3.25 0 0
      vertex 7.545 0 0
      vertex 7.48551 -0.945639 0
    endloop
  endfacet
  facet normal 0 0 1
    outer loop
      vertex 3.25 0 6.05
      vertex 5.99733 -0.757639 6.05
      vertex 6.045 0 6.05
    endloop
  endfacet
  facet normal 0 0 1
    outer loop
      vertex 3.25 0 6.05
      vertex 6.045 0 6.05
      vertex 5.99733 0.757639 6.05
    endloop
  endfacet
  facet normal 0 0 1
    outer loop
      vertex 3.85323 -4.65775 1
      vertex 4.04281 -6.37045 1
      vertex 4.80936 -5.81352 1
    endloop
  endfacet
  facet normal 0.684542 -0.728974 0
    outer loop
      vertex 3.85323 -4.65775 1
      vertex 4.40662 -4.13809 1
      vertex 4.40662 -4.13809 6.05
    endloop
  endfacet
  facet normal 0.684542 -0.728974 0
    outer loop
      vertex 3.85323 -4.65775 1
      vertex 4.40662 -4.13809 6.05
      vertex 3.85323 -4.65775 6.05
    endloop
  endfacet
  facet normal -0 0 1
    outer loop
      vertex 3.85323 -4.65775 1
      vertex 4.80936 -5.81352 1
      vertex 4.40662 -4.13809 1
    endloop
  endfacet
  facet normal 0.684542 0.728974 0
    outer loop
      vertex 3.85323 4.65775 1
      vertex 3.85323 4.65775 6.05
      vertex 4.40662 4.13809 1
    endloop
  endfacet
  facet normal 0 0 1
    outer loop
      vertex 3.85323 4.65775 1
      vertex 4.40662 4.13809 1
      vertex 4.80936 5.81352 1
    endloop
  endfacet
  facet normal 0 0 1
    outer loop
      vertex 3.85323 4.65775 1
      vertex 4.80936 5.81352 1
      vertex 4.04281 6.37045 1
    endloop
  endfacet
  facet normal 0.684542 0.728974 -0
    outer loop
      vertex 3.85323 4.65775 6.05
      vertex 4.40662 4.13809 6.05
      vertex 4.40662 4.13809 1
    endloop
  endfacet
  facet normal 0.587784 -0.809018 0
    outer loop
      vertex 4.04281 -6.37045 0
      vertex 4.80936 -5.81352 0
      vertex 4.80936 -5.81352 1
    endloop
  endfacet
  facet normal 0.587784 -0.809018 0
    outer loop
      vertex 4.04281 -6.37045 0
      vertex 4.80936 -5.81352 1
      vertex 4.04281 -6.37045 1
    endloop
  endfacet
  facet normal 0.587784 0.809018 0
    outer loop
      vertex 4.04281 6.37045 0
      vertex 4.04281 6.37045 1
      vertex 4.80936 5.81352 0
    endloop
  endfacet
  facet normal 0.587784 0.809018 -0
    outer loop
      vertex 4.04281 6.37045 1
      vertex 4.80936 5.81352 1
      vertex 4.80936 5.81352 0
    endloop
  endfacet
  facet normal 0 0 1
    outer loop
      vertex 4.40662 -4.13809 1
      vertex 4.80936 -5.81352 1
      vertex 5.50007 -5.16491 1
    endloop
  endfacet
  facet normal 0.770517 -0.637419 0
    outer loop
      vertex 4.40662 -4.13809 1
      vertex 4.89051 -3.55316 1
      vertex 4.40662 -4.13809 6.05
    endloop
  endfacet
  facet normal -0 0 1
    outer loop
      vertex 4.40662 -4.13809 1
      vertex 5.50007 -5.16491 1
      vertex 4.89051 -3.55316 1
    endloop
  endfacet
  facet normal 0.770517 -0.637419 0
    outer loop
      vertex 4.40662 -4.13809 6.05
      vertex 4.89051 -3.55316 1
      vertex 4.89051 -3.55316 6.05
    endloop
  endfacet
  facet normal 0.770517 0.637419 0
    outer loop
      vertex 4.40662 4.13809 1
      vertex 4.40662 4.13809 6.05
      vertex 4.89051 3.55316 6.05
    endloop
  endfacet
  facet normal 0 0 1
    outer loop
      vertex 4.40662 4.13809 1
      vertex 4.89051 3.55316 1
      vertex 5.50007 5.16491 1
    endloop
  endfacet
  facet normal 0.770517 0.637419 0
    outer loop
      vertex 4.40662 4.13809 1
      vertex 4.89051 3.55316 6.05
      vertex 4.89051 3.55316 1
    endloop
  endfacet
  facet normal 0 0 1
    outer loop
      vertex 4.40662 4.13809 1
      vertex 5.50007 5.16491 1
      vertex 4.80936 5.81352 1
    endloop
  endfacet
  facet normal 0.684542 -0.728974 0
    outer loop
      vertex 4.80936 -5.81352 0
      vertex 5.50007 -5.16491 0
      vertex 5.50007 -5.16491 1
    endloop
  endfacet
  facet normal 0.684542 -0.728974 0
    outer loop
      vertex 4.80936 -5.81352 0
      vertex 5.50007 -5.16491 1
      vertex 4.80936 -5.81352 1
    endloop
  endfacet
  facet normal 0.684542 0.728974 0
    outer loop
      vertex 4.80936 5.81352 0
      vertex 4.80936 5.81352 1
      vertex 5.50007 5.16491 0
    endloop
  endfacet
  facet normal 0.684542 0.728974 -0
    outer loop
      vertex 4.80936 5.81352 1
      vertex 5.50007 5.16491 1
      vertex 5.50007 5.16491 0
    endloop
  endfacet
  facet normal 0.844331 -0.535822 0
    outer loop
      vertex 4.89051 -3.55316 1
      vertex 5.29727 -2.9122 1
      vertex 4.89051 -3.55316 6.05
    endloop
  endfacet
  facet normal 0 0 1
    outer loop
      vertex 4.89051 -3.55316 1
      vertex 5.50007 -5.16491 1
      vertex 6.10403 -4.43484 1
    endloop
  endfacet
  facet normal -0 0 1
    outer loop
      vertex 4.89051 -3.55316 1
      vertex 6.10403 -4.43484 1
      vertex 5.29727 -2.9122 1
    endloop
  endfacet
  facet normal 0.844331 -0.535822 0
    outer loop
      vertex 4.89051 -3.55316 6.05
      vertex 5.29727 -2.9122 1
      vertex 5.29727 -2.9122 6.05
    endloop
  endfacet
  facet normal 0.844331 0.535822 0
    outer loop
      vertex 4.89051 3.55316 1
      vertex 4.89051 3.55316 6.05
      vertex 5.29727 2.9122 6.05
    endloop
  endfacet
  facet normal 0 0 1
    outer loop
      vertex 4.89051 3.55316 1
      vertex 5.29727 2.9122 1
      vertex 6.10403 4.43484 1
    endloop
  endfacet
  facet normal 0.844331 0.535822 0
    outer loop
      vertex 4.89051 3.55316 1
      vertex 5.29727 2.9122 6.05
      vertex 5.29727 2.9122 1
    endloop
  endfacet
  facet normal 0 0 1
    outer loop
      vertex 4.89051 3.55316 1
      vertex 6.10403 4.43484 1
      vertex 5.50007 5.16491 1
    endloop
  endfacet
  facet normal 0.904825 -0.425784 0
    outer loop
      vertex 5.29727 -2.9122 1
      vertex 5.6205 -2.22531 1
      vertex 5.29727 -2.9122 6.05
    endloop
  endfacet
  facet normal 0 0 1
    outer loop
      vertex 5.29727 -2.9122 1
      vertex 6.10403 -4.43484 1
      vertex 6.61173 -3.63483 1
    endloop
  endfacet
  facet normal -0 0 1
    outer loop
      vertex 5.29727 -2.9122 1
      vertex 6.61173 -3.63483 1
      vertex 5.6205 -2.22531 1
    endloop
  endfacet
  facet normal 0.904825 -0.425784 0
    outer loop
      vertex 5.29727 -2.9122 6.05
      vertex 5.6205 -2.22531 1
      vertex 5.6205 -2.22531 6.05
    endloop
  endfacet
  facet normal 0.904825 0.425784 0
    outer loop
      vertex 5.29727 2.9122 1
      vertex 5.29727 2.9122 6.05
      vertex 5.6205 2.22531 6.05
    endloop
  endfacet
  facet normal 0 0 1
    outer loop
      vertex 5.29727 2.9122 1
      vertex 5.6205 2.22531 1
      vertex 6.61173 3.63483 1
    endloop
  endfacet
  facet normal 0.904825 0.425784 0
    outer loop
      vertex 5.29727 2.9122 1
      vertex 5.6205 2.22531 6.05
      vertex 5.6205 2.22531 1
    endloop
  endfacet
  facet normal 0 0 1
    outer loop
      vertex 5.29727 2.9122 1
      vertex 6.61173 3.63483 1
      vertex 6.10403 4.43484 1
    endloop
  endfacet
  facet normal 0.770517 -0.63742 0
    outer loop
      vertex 5.50007 -5.16491 0
      vertex 6.10403 -4.43484 0
      vertex 5.50007 -5.16491 1
    endloop
  endfacet
  facet normal 0.770517 -0.63742 0
    outer loop
      vertex 5.50007 -5.16491 1
      vertex 6.10403 -4.43484 0
      vertex 6.10403 -4.43484 1
    endloop
  endfacet
  facet normal 0.770517 0.63742 0
    outer loop
      vertex 5.50007 5.16491 0
      vertex 5.50007 5.16491 1
      vertex 6.10403 4.43484 1
    endloop
  endfacet
  facet normal 0.770517 0.63742 0
    outer loop
      vertex 5.50007 5.16491 0
      vertex 6.10403 4.43484 1
      vertex 6.10403 4.43484 0
    endloop
  endfacet
  facet normal 0.951059 -0.30901 0
    outer loop
      vertex 5.6205 -2.22531 1
      vertex 5.85508 -1.50333 1
      vertex 5.6205 -2.22531 6.05
    endloop
  endfacet
  facet normal 0 0 1
    outer loop
      vertex 5.6205 -2.22531 1
      vertex 6.61173 -3.63483 1
      vertex 7.01516 -2.7775 1
    endloop
  endfacet
  facet normal -0 0 1
    outer loop
      vertex 5.6205 -2.22531 1
      vertex 7.01516 -2.7775 1
      vertex 5.85508 -1.50333 1
    endloop
  endfacet
  facet normal 0.951059 -0.30901 0
    outer loop
      vertex 5.6205 -2.22531 6.05
      vertex 5.85508 -1.50333 1
      vertex 5.85508 -1.50333 6.05
    endloop
  endfacet
  facet normal 0.951059 0.30901 0
    outer loop
      vertex 5.6205 2.22531 1
      vertex 5.6205 2.22531 6.05
      vertex 5.85508 1.50333 6.05
    endloop
  endfacet
  facet normal 0 0 1
    outer loop
      vertex 5.6205 2.22531 1
      vertex 5.85508 1.50333 1
      vertex 7.01516 2.7775 1
    endloop
  endfacet
  facet normal 0.951059 0.30901 0
    outer loop
      vertex 5.6205 2.22531 1
      vertex 5.85508 1.50333 6.05
      vertex 5.85508 1.50333 1
    endloop
  endfacet
  facet normal 0 0 1
    outer loop
      vertex 5.6205 2.22531 1
      vertex 7.01516 2.7775 1
      vertex 6.61173 3.63483 1
    endloop
  endfacet
  facet normal 0.982287 -0.187384 0
    outer loop
      vertex 5.85508 -1.50333 1
      vertex 5.99733 -0.757639 1
      vertex 5.85508 -1.50333 6.05
    endloop
  endfacet
  facet normal 0 0 1
    outer loop
      vertex 5.85508 -1.50333 1
      vertex 7.01516 -2.7775 1
      vertex 7.30796 -1.87636 1
    endloop
  endfacet
  facet normal -0 0 1
    outer loop
      vertex 5.85508 -1.50333 1
      vertex 7.30796 -1.87636 1
      vertex 5.99733 -0.757639 1
    endloop
  endfacet
  facet normal 0.982287 -0.187384 0
    outer loop
      vertex 5.85508 -1.50333 6.05
      vertex 5.99733 -0.757639 1
      vertex 5.99733 -0.757639 6.05
    endloop
  endfacet
  facet normal 0.982287 0.187384 0
    outer loop
      vertex 5.85508 1.50333 1
      vertex 5.85508 1.50333 6.05
      vertex 5.99733 0.757639 6.05
    endloop
  endfacet
  facet normal 0 0 1
    outer loop
      vertex 5.85508 1.50333 1
      vertex 5.99733 0.757639 1
      vertex 7.30796 1.87636 1
    endloop
  endfacet
  facet normal 0.982287 0.187384 0
    outer loop
      vertex 5.85508 1.50333 1
      vertex 5.99733 0.757639 6.05
      vertex 5.99733 0.757639 1
    endloop
  endfacet
  facet normal 0 0 1
    outer loop
      vertex 5.85508 1.50333 1
      vertex 7.30796 1.87636 1
      vertex 7.01516 2.7775 1
    endloop
  endfacet
  facet normal 0.998026 -0.062795 0
    outer loop
      vertex 5.99733 -0.757639 1
      vertex 6.045 0 1
      vertex 5.99733 -0.757639 6.05
    endloop
  endfacet
  facet normal 0 0 1
    outer loop
      vertex 5.99733 -0.757639 1
      vertex 7.30796 -1.87636 1
      vertex 7.48551 -0.945639 1
    endloop
  endfacet
  facet normal -0 0 1
    outer loop
      vertex 5.99733 -0.757639 1
      vertex 7.48551 -0.945639 1
      vertex 6.045 0 1
    endloop
  endfacet
  facet normal 0.998026 -0.062795 0
    outer loop
      vertex 5.99733 -0.757639 6.05
      vertex 6.045 0 1
      vertex 6.045 0 6.05
    endloop
  endfacet
  facet normal 0.998026 0.062795 0
    outer loop
      vertex 5.99733 0.757639 1
      vertex 5.99733 0.757639 6.05
      vertex 6.045 0 6.05
    endloop
  endfacet
  facet normal 0 0 1
    outer loop
      vertex 5.99733 0.757639 1
      vertex 6.045 0 1
      vertex 7.48551 0.945639 1
    endloop
  endfacet
  facet normal 0.998026 0.062795 0
    outer loop
      vertex 5.99733 0.757639 1
      vertex 6.045 0 6.05
      vertex 6.045 0 1
    endloop
  endfacet
  facet normal 0 0 1
    outer loop
      vertex 5.99733 0.757639 1
      vertex 7.48551 0.945639 1
      vertex 7.30796 1.87636 1
    endloop
  endfacet
  facet normal 0 0 1
    outer loop
      vertex 6.045 0 1
      vertex 7.48551 -0.945639 1
      vertex 7.545 0 1
    endloop
  endfacet
  facet normal 0 0 1
    outer loop
      vertex 6.045 0 1
      vertex 7.545 0 1
      vertex 7.48551 0.945639 1
    endloop
  endfacet
  facet normal 0.844329 -0.535825 0
    outer loop
      vertex 6.10403 -4.43484 0
      vertex 6.61173 -3.63483 0
      vertex 6.10403 -4.43484 1
    endloop
  endfacet
  facet normal 0.844329 -0.535825 0
    outer loop
      vertex 6.10403 -4.43484 1
      vertex 6.61173 -3.63483 0
      vertex 6.61173 -3.63483 1
    endloop
  endfacet
  facet normal 0.844329 0.535825 0
    outer loop
      vertex 6.10403 4.43484 0
      vertex 6.10403 4.43484 1
      vertex 6.61173 3.63483 1
    endloop
  endfacet
  facet normal 0.844329 0.535825 0
    outer loop
      vertex 6.10403 4.43484 0
      vertex 6.61173 3.63483 1
      vertex 6.61173 3.63483 0
    endloop
  endfacet
  facet normal 0.904827 -0.42578 0
    outer loop
      vertex 6.61173 -3.63483 0
      vertex 7.01516 -2.7775 0
      vertex 6.61173 -3.63483 1
    endloop
  endfacet
  facet normal 0.904827 -0.42578 0
    outer loop
      vertex 6.61173 -3.63483 1
      vertex 7.01516 -2.7775 0
      vertex 7.01516 -2.7775 1
    endloop
  endfacet
  facet normal 0.904827 0.42578 0
    outer loop
      vertex 6.61173 3.63483 0
      vertex 6.61173 3.63483 1
      vertex 7.01516 2.7775 1
    endloop
  endfacet
  facet normal 0.904827 0.42578 0
    outer loop
      vertex 6.61173 3.63483 0
      vertex 7.01516 2.7775 1
      vertex 7.01516 2.7775 0
    endloop
  endfacet
  facet normal 0.951056 -0.309019 0
    outer loop
      vertex 7.01516 -2.7775 0
      vertex 7.30796 -1.87636 0
      vertex 7.01516 -2.7775 1
    endloop
  endfacet
  facet normal 0.951056 -0.309019 0
    outer loop
      vertex 7.01516 -2.7775 1
      vertex 7.30796 -1.87636 0
      vertex 7.30796 -1.87636 1
    endloop
  endfacet
  facet normal 0.951056 0.309019 0
    outer loop
      vertex 7.01516 2.7775 0
      vertex 7.01516 2.7775 1
      vertex 7.30796 1.87636 1
    endloop
  endfacet
  facet normal 0.951056 0.309019 0
    outer loop
      vertex 7.01516 2.7775 0
      vertex 7.30796 1.87636 1
      vertex 7.30796 1.87636 0
    endloop
  endfacet
  facet normal 0.982286 -0.187387 0
    outer loop
      vertex 7.30796 -1.87636 0
      vertex 7.48551 -0.945639 0
      vertex 7.30796 -1.87636 1
    endloop
  endfacet
  facet normal 0.982286 -0.187387 0
    outer loop
      vertex 7.30796 -1.87636 1
      vertex 7.48551 -0.945639 0
      vertex 7.48551 -0.945639 1
    endloop
  endfacet
  facet normal 0.982286 0.187387 0
    outer loop
      vertex 7.30796 1.87636 0
      vertex 7.30796 1.87636 1
      vertex 7.48551 0.945639 1
    endloop
  endfacet
  facet normal 0.982286 0.187387 0
    outer loop
      vertex 7.30796 1.87636 0
      vertex 7.48551 0.945639 1
      vertex 7.48551 0.945639 0
    endloop
  endfacet
  facet normal 0.998027 -0.0627857 0
    outer loop
      vertex 7.48551 -0.945639 0
      vertex 7.545 0 0
      vertex 7.48551 -0.945639 1
    endloop
  endfacet
  facet normal 0.998027 -0.0627857 0
    outer loop
      vertex 7.48551 -0.945639 1
      vertex 7.545 0 0
      vertex 7.545 0 1
    endloop
  endfacet
  facet normal 0.998027 0.0627857 0
    outer loop
      vertex 7.48551 0.945639 0
      vertex 7.48551 0.945639 1
      vertex 7.545 0 1
    endloop
  endfacet
  facet normal 0.998027 0.0627857 0
    outer loop
      vertex 7.48551 0.945639 0
      vertex 7.545 0 1
      vertex 7.545 0 0
    endloop
  endfacet
endsolid model
