solid model
  facet normal -1 0 0
    outer loop
      vertex 10 30.85 0
      vertex 10 30.85 20
      vertex 10 38.0105 10.3328
    endloop
  endfacet
  facet normal -1 -0 0
    outer loop
      vertex 10 30.85 0
      vertex 10 38.0105 10.3328
      vertex 10 38.0105 9.66721
    endloop
  endfacet
  facet normal -1 -0 0
    outer loop
      vertex 10 30.85 0
      vertex 10 38.0105 9.66721
      vertex 10 38.0939 9.00688
    endloop
  endfacet
  facet normal -1 -0 0
    outer loop
      vertex 10 30.85 0
      vertex 10 38.0939 9.00688
      vertex 10 38.2594 8.36221
    endloop
  endfacet
  facet normal -1 -0 0
    outer loop
      vertex 10 30.85 0
      vertex 10 38.2594 8.36221
      vertex 10 38.5044 7.74337
    endloop
  endfacet
  facet normal -1 -0 0
    outer loop
      vertex 10 30.85 0
      vertex 10 38.5044 7.74337
      vertex 10 38.8251 7.16012
    endloop
  endfacet
  facet normal -1 -0 0
    outer loop
      vertex 10 30.85 0
      vertex 10 38.8251 7.16012
      vertex 10 39.2163 6.62165
    endloop
  endfacet
  facet normal -1 -0 0
    outer loop
      vertex 10 30.85 0
      vertex 10 39.2163 6.62165
      vertex 10 39.6719 6.13647
    endloop
  endfacet
  facet normal -1 -0 0
    outer loop
      vertex 10 30.85 0
      vertex 10 39.6719 6.13647
      vertex 10 40.1847 5.71221
    endloop
  endfacet
  facet normal -1 0 0
    outer loop
      vertex 10 30.85 0
      vertex 10 40.1847 5.71221
      vertex 10 43.3 0
    endloop
  endfacet
  facet normal -0 0 -1
    outer loop
      vertex 10 30.85 0
      vertex 10 43.3 0
      vertex 30 43.3 0
    endloop
  endfacet
  facet normal 0 -1 0
    outer loop
      vertex 10 30.85 0
      vertex 16.7 30.85 10
      vertex 10 30.85 20
    endloop
  endfacet
  facet normal 0 -1 -0
    outer loop
      vertex 10 30.85 0
      vertex 16.726 30.85 9.5864
      vertex 16.7 30.85 10
    endloop
  endfacet
  facet normal 0 -1 -0
    outer loop
      vertex 10 30.85 0
      vertex 16.8037 30.85 9.17932
      vertex 16.726 30.85 9.5864
    endloop
  endfacet
  facet normal 0 -1 -0
    outer loop
      vertex 10 30.85 0
      vertex 16.9317 30.85 8.78519
      vertex 16.8037 30.85 9.17932
    endloop
  endfacet
  facet normal 0 -1 -0
    outer loop
      vertex 10 30.85 0
      vertex 17.1082 30.85 8.41021
      vertex 16.9317 30.85 8.78519
    endloop
  endfacet
  facet normal 0 -1 -0
    outer loop
      vertex 10 30.85 0
      vertex 17.3302 30.85 8.06031
      vertex 17.1082 30.85 8.41021
    endloop
  endfacet
  facet normal 0 -1 -0
    outer loop
      vertex 10 30.85 0
      vertex 17.5944 30.85 7.74099
      vertex 17.3302 30.85 8.06031
    endloop
  endfacet
  facet normal 0 -1 -0
    outer loop
      vertex 10 30.85 0
      vertex 17.8965 30.85 7.45731
      vertex 17.5944 30.85 7.74099
    endloop
  endfacet
  facet normal 0 -1 -0
    outer loop
      vertex 10 30.85 0
      vertex 18.2318 30.85 7.21372
      vertex 17.8965 30.85 7.45731
    endloop
  endfacet
  facet normal 0 -1 -0
    outer loop
      vertex 10 30.85 0
      vertex 18.5949 30.85 7.01407
      vertex 18.2318 30.85 7.21372
    endloop
  endfacet
  facet normal 0 -1 -0
    outer loop
      vertex 10 30.85 0
      vertex 18.9802 30.85 6.86151
      vertex 18.5949 30.85 7.01407
    endloop
  endfacet
  facet normal 0 -1 -0
    outer loop
      vertex 10 30.85 0
      vertex 19.3816 30.85 6.75845
      vertex 18.9802 30.85 6.86151
    endloop
  endfacet
  facet normal 0 -1 -0
    outer loop
      vertex 10 30.85 0
      vertex 19.7928 30.85 6.70651
      vertex 19.3816 30.85 6.75845
    endloop
  endfacet
  facet normal 0 -1 -0
    outer loop
      vertex 10 30.85 0
      vertex 20.2072 30.85 6.70651
      vertex 19.7928 30.85 6.70651
    endloop
  endfacet
  facet normal 0 -1 0
    outer loop
      vertex 10 30.85 0
      vertex 30 30.85 0
      vertex 20.2072 30.85 6.70651
    endloop
  endfacet
  facet normal 0 0 -1
    outer loop
      vertex 10 30.85 0
      vertex 30 43.3 0
      vertex 30 30.85 0
    endloop
  endfacet
  facet normal -1 0 0
    outer loop
      vertex 10 30.85 20
      vertex 10 38.0939 10.9931
      vertex 10 38.0105 10.3328
    endloop
  endfacet
  facet normal -1 0 0
    outer loop
      vertex 10 30.85 20
      vertex 10 38.2594 11.6378
      vertex 10 38.0939 10.9931
    endloop
  endfacet
  facet normal -1 0 0
    outer loop
      vertex 10 30.85 20
      vertex 10 38.5044 12.2566
      vertex 10 38.2594 11.6378
    endloop
  endfacet
  facet normal -1 0 0
    outer loop
      vertex 10 30.85 20
      vertex 10 38.8251 12.8399
      vertex 10 38.5044 12.2566
    endloop
  endfacet
  facet normal -1 0 0
    outer loop
      vertex 10 30.85 20
      vertex 10 39.2163 13.3783
      vertex 10 38.8251 12.8399
    endloop
  endfacet
  facet normal -1 0 0
    outer loop
      vertex 10 30.85 20
      vertex 10 39.6719 13.8635
      vertex 10 39.2163 13.3783
    endloop
  endfacet
  facet normal -1 0 0
    outer loop
      vertex 10 30.85 20
      vertex 10 40.1847 14.2878
      vertex 10 39.6719 13.8635
    endloop
  endfacet
  facet normal -1 0 0
    outer loop
      vertex 10 30.85 20
      vertex 10 43.3 20
      vertex 10 40.1847 14.2878
    endloop
  endfacet
  facet normal 0 -1 0
    outer loop
      vertex 10 30.85 20
      vertex 16.7 30.85 10
      vertex 16.726 30.85 10.4136
    endloop
  endfacet
  facet normal 0 -1 0
    outer loop
      vertex 10 30.85 20
      vertex 16.726 30.85 10.4136
      vertex 16.8037 30.85 10.8207
    endloop
  endfacet
  facet normal 0 -1 0
    outer loop
      vertex 10 30.85 20
      vertex 16.8037 30.85 10.8207
      vertex 16.9317 30.85 11.2148
    endloop
  endfacet
  facet normal 0 -1 0
    outer loop
      vertex 10 30.85 20
      vertex 16.9317 30.85 11.2148
      vertex 17.1082 30.85 11.5898
    endloop
  endfacet
  facet normal 0 -1 0
    outer loop
      vertex 10 30.85 20
      vertex 17.1082 30.85 11.5898
      vertex 17.3302 30.85 11.9397
    endloop
  endfacet
  facet normal 0 -1 0
    outer loop
      vertex 10 30.85 20
      vertex 17.3302 30.85 11.9397
      vertex 17.5944 30.85 12.259
    endloop
  endfacet
  facet normal 0 -1 0
    outer loop
      vertex 10 30.85 20
      vertex 17.5944 30.85 12.259
      vertex 17.8965 30.85 12.5427
    endloop
  endfacet
  facet normal 0 -1 0
    outer loop
      vertex 10 30.85 20
      vertex 17.8965 30.85 12.5427
      vertex 18.2318 30.85 12.7863
    endloop
  endfacet
  facet normal 0 -1 0
    outer loop
      vertex 10 30.85 20
      vertex 18.2318 30.85 12.7863
      vertex 18.5949 30.85 12.9859
    endloop
  endfacet
  facet normal 0 -1 0
    outer loop
      vertex 10 30.85 20
      vertex 18.5949 30.85 12.9859
      vertex 18.9802 30.85 13.1385
    endloop
  endfacet
  facet normal 0 -1 0
    outer loop
      vertex 10 30.85 20
      vertex 18.9802 30.85 13.1385
      vertex 19.3816 30.85 13.2415
    endloop
  endfacet
  facet normal 0 -1 0
    outer loop
      vertex 10 30.85 20
      vertex 19.3816 30.85 13.2415
      vertex 19.7928 30.85 13.2935
    endloop
  endfacet
  facet normal 0 -1 0
    outer loop
      vertex 10 30.85 20
      vertex 19.7928 30.85 13.2935
      vertex 30 30.85 20
    endloop
  endfacet
  facet normal 0 0 1
    outer loop
      vertex 10 30.85 20
      vertex 30 30.85 20
      vertex 10 43.3 20
    endloop
  endfacet
  facet normal 0 0.992118 -0.125311
    outer loop
      vertex 10 38.0105 10.3328
      vertex 10 38.0939 10.9931
      vertex 18.4378 38.0105 10.3328
    endloop
  endfacet
  facet normal 0 1 -0
    outer loop
      vertex 10 38.0105 10.3328
      vertex 18.4126 38.0105 10.2005
      vertex 18.4 38.0105 10
    endloop
  endfacet
  facet normal 0 1 -0
    outer loop
      vertex 10 38.0105 10.3328
      vertex 18.4378 38.0105 10.3328
      vertex 18.4126 38.0105 10.2005
    endloop
  endfacet
  facet normal 0 1 0
    outer loop
      vertex 10 38.0105 9.66721
      vertex 10 38.0105 10.3328
      vertex 18.4 38.0105 10
    endloop
  endfacet
  facet normal 0 1 0
    outer loop
      vertex 10 38.0105 9.66721
      vertex 18.4 38.0105 10
      vertex 18.4126 38.0105 9.79947
    endloop
  endfacet
  facet normal 0 1 0
    outer loop
      vertex 10 38.0105 9.66721
      vertex 18.4126 38.0105 9.79947
      vertex 18.4378 38.0105 9.66721
    endloop
  endfacet
  facet normal 0 0.992118 0.125305
    outer loop
      vertex 10 38.0105 9.66721
      vertex 18.4378 38.0105 9.66721
      vertex 10 38.0939 9.00688
    endloop
  endfacet
  facet normal 0 0.968594 -0.248646
    outer loop
      vertex 10 38.0939 10.9931
      vertex 10 38.2594 11.6378
      vertex 18.7491 38.0939 10.9931
    endloop
  endfacet
  facet normal 2.64787e-05 0.99216 -0.124978
    outer loop
      vertex 10 38.0939 10.9931
      vertex 18.4503 38.0187 10.3979
      vertex 18.4378 38.0105 10.3328
    endloop
  endfacet
  facet normal 1.58568e-05 0.992141 -0.125126
    outer loop
      vertex 10 38.0939 10.9931
      vertex 18.5124 38.0428 10.589
      vertex 18.4503 38.0187 10.3979
    endloop
  endfacet
  facet normal -2.70895e-06 0.992092 -0.125511
    outer loop
      vertex 10 38.0939 10.9931
      vertex 18.5979 38.0658 10.7708
      vertex 18.5124 38.0428 10.589
    endloop
  endfacet
  facet normal 7.59324e-06 0.992142 -0.125119
    outer loop
      vertex 10 38.0939 10.9931
      vertex 18.7056 38.0872 10.9405
      vertex 18.5979 38.0658 10.7708
    endloop
  endfacet
  facet normal 0 0.991985 -0.126356
    outer loop
      vertex 10 38.0939 10.9931
      vertex 18.7491 38.0939 10.9931
      vertex 18.7056 38.0872 10.9405
    endloop
  endfacet
  facet normal 2.75209e-05 0.992162 0.124959
    outer loop
      vertex 10 38.0939 9.00688
      vertex 18.4378 38.0105 9.66721
      vertex 18.4503 38.0187 9.6021
    endloop
  endfacet
  facet normal 1.55673e-05 0.992141 0.125126
    outer loop
      vertex 10 38.0939 9.00688
      vertex 18.4503 38.0187 9.6021
      vertex 18.5124 38.0428 9.411
    endloop
  endfacet
  facet normal -2.67682e-06 0.992093 0.125504
    outer loop
      vertex 10 38.0939 9.00688
      vertex 18.5124 38.0428 9.411
      vertex 18.5979 38.0658 9.22919
    endloop
  endfacet
  facet normal 6.51197e-06 0.992137 0.125154
    outer loop
      vertex 10 38.0939 9.00688
      vertex 18.5979 38.0658 9.22919
      vertex 18.7056 38.0872 9.05954
    endloop
  endfacet
  facet normal -0 0.992003 0.126214
    outer loop
      vertex 10 38.0939 9.00688
      vertex 18.7056 38.0872 9.05954
      vertex 18.7491 38.0939 9.00688
    endloop
  endfacet
  facet normal 0 0.968592 0.248657
    outer loop
      vertex 10 38.0939 9.00688
      vertex 18.7491 38.0939 9.00688
      vertex 10 38.2594 8.36221
    endloop
  endfacet
  facet normal 0 0.929777 -0.368124
    outer loop
      vertex 10 38.2594 11.6378
      vertex 10 38.5044 12.2566
      vertex 30 38.2594 11.6378
    endloop
  endfacet
  facet normal 2.34449e-05 0.968671 -0.248348
    outer loop
      vertex 10 38.2594 11.6378
      vertex 18.8336 38.1201 11.0953
      vertex 18.7491 38.0939 10.9931
    endloop
  endfacet
  facet normal 2.61964e-06 0.968589 -0.248666
    outer loop
      vertex 10 38.2594 11.6378
      vertex 18.9801 38.1554 11.2328
      vertex 18.8336 38.1201 11.0953
    endloop
  endfacet
  facet normal 9.37322e-06 0.968625 -0.248526
    outer loop
      vertex 10 38.2594 11.6378
      vertex 19.1427 38.1857 11.3509
      vertex 18.9801 38.1554 11.2328
    endloop
  endfacet
  facet normal -9.98978e-06 0.968477 -0.249104
    outer loop
      vertex 10 38.2594 11.6378
      vertex 19.3188 38.2106 11.4477
      vertex 19.1427 38.1857 11.3509
    endloop
  endfacet
  facet normal -9.35053e-07 0.968584 -0.248688
    outer loop
      vertex 10 38.2594 11.6378
      vertex 19.5056 38.2296 11.5217
      vertex 19.3188 38.2106 11.4477
    endloop
  endfacet
  facet normal 7.62746e-06 0.968752 -0.24803
    outer loop
      vertex 10 38.2594 11.6378
      vertex 19.7002 38.2424 11.5717
      vertex 19.5056 38.2296 11.5217
    endloop
  endfacet
  facet normal -1.11275e-05 0.968088 -0.250612
    outer loop
      vertex 10 38.2594 11.6378
      vertex 19.8995 38.2489 11.5968
      vertex 19.7002 38.2424 11.5717
    endloop
  endfacet
  facet normal 0 0.968737 -0.248091
    outer loop
      vertex 10 38.2594 11.6378
      vertex 20.1005 38.2489 11.5968
      vertex 19.8995 38.2489 11.5968
    endloop
  endfacet
  facet normal 0 0.968737 -0.248091
    outer loop
      vertex 10 38.2594 11.6378
      vertex 30 38.2594 11.6378
      vertex 20.1005 38.2489 11.5968
    endloop
  endfacet
  facet normal 1.74938e-05 0.968649 0.248435
    outer loop
      vertex 10 38.2594 8.36221
      vertex 18.7491 38.0939 9.00688
      vertex 18.8336 38.1201 8.90472
    endloop
  endfacet
  facet normal 6.52421e-06 0.968606 0.248602
    outer loop
      vertex 10 38.2594 8.36221
      vertex 18.8336 38.1201 8.90472
      vertex 18.9801 38.1554 8.76718
    endloop
  endfacet
  facet normal 1.10484e-05 0.96863 0.248508
    outer loop
      vertex 10 38.2594 8.36221
      vertex 18.9801 38.1554 8.76718
      vertex 19.1427 38.1857 8.64907
    endloop
  endfacet
  facet normal -9.72262e-06 0.96847 0.249129
    outer loop
      vertex 10 38.2594 8.36221
      vertex 19.1427 38.1857 8.64907
      vertex 19.3188 38.2106 8.55228
    endloop
  endfacet
  facet normal -2.13003e-06 0.96856 0.24878
    outer loop
      vertex 10 38.2594 8.36221
      vertex 19.3188 38.2106 8.55228
      vertex 19.5056 38.2296 8.47831
    endloop
  endfacet
  facet normal 5.8911e-06 0.968718 0.248164
    outer loop
      vertex 10 38.2594 8.36221
      vertex 19.5056 38.2296 8.47831
      vertex 19.7002 38.2424 8.42834
    endloop
  endfacet
  facet normal -6.71391e-06 0.968272 0.249898
    outer loop
      vertex 10 38.2594 8.36221
      vertex 19.7002 38.2424 8.42834
      vertex 19.8995 38.2489 8.40316
    endloop
  endfacet
  facet normal -0 0.968664 0.248375
    outer loop
      vertex 10 38.2594 8.36221
      vertex 19.8995 38.2489 8.40316
      vertex 30 38.2594 8.36221
    endloop
  endfacet
  facet normal 0 0.929785 0.368104
    outer loop
      vertex 10 38.2594 8.36221
      vertex 30 38.2594 8.36221
      vertex 30 38.5044 7.74337
    endloop
  endfacet
  facet normal 0 0.929785 0.368104
    outer loop
      vertex 10 38.2594 8.36221
      vertex 30 38.5044 7.74337
      vertex 10 38.5044 7.74337
    endloop
  endfacet
  facet normal 0 0.876289 -0.481786
    outer loop
      vertex 10 38.5044 12.2566
      vertex 10 38.8251 12.8399
      vertex 30 38.5044 12.2566
    endloop
  endfacet
  facet normal 0 0.929777 -0.368124
    outer loop
      vertex 10 38.5044 12.2566
      vertex 30 38.5044 12.2566
      vertex 30 38.2594 11.6378
    endloop
  endfacet
  facet normal 0 0.876271 0.481818
    outer loop
      vertex 10 38.5044 7.74337
      vertex 30 38.5044 7.74337
      vertex 30 38.8251 7.16012
    endloop
  endfacet
  facet normal 0 0.876271 0.481818
    outer loop
      vertex 10 38.5044 7.74337
      vertex 30 38.8251 7.16012
      vertex 10 38.8251 7.16012
    endloop
  endfacet
  facet normal 0 0.808996 -0.587814
    outer loop
      vertex 10 38.8251 12.8399
      vertex 10 39.2163 13.3783
      vertex 30 38.8251 12.8399
    endloop
  endfacet
  facet normal 0 0.876289 -0.481786
    outer loop
      vertex 10 38.8251 12.8399
      vertex 30 38.8251 12.8399
      vertex 30 38.5044 12.2566
    endloop
  endfacet
  facet normal 0 0.809032 0.587764
    outer loop
      vertex 10 38.8251 7.16012
      vertex 30 38.8251 7.16012
      vertex 30 39.2163 6.62165
    endloop
  endfacet
  facet normal 0 0.809032 0.587764
    outer loop
      vertex 10 38.8251 7.16012
      vertex 30 39.2163 6.62165
      vertex 10 39.2163 6.62165
    endloop
  endfacet
  facet normal 0 0.728993 -0.684521
    outer loop
      vertex 10 39.2163 13.3783
      vertex 10 39.6719 13.8635
      vertex 30 39.2163 13.3783
    endloop
  endfacet
  facet normal 0 0.808996 -0.587814
    outer loop
      vertex 10 39.2163 13.3783
      vertex 30 39.2163 13.3783
      vertex 30 38.8251 12.8399
    endloop
  endfacet
  facet normal 0 0.728979 0.684536
    outer loop
      vertex 10 39.2163 6.62165
      vertex 30 39.2163 6.62165
      vertex 30 39.6719 6.13647
    endloop
  endfacet
  facet normal 0 0.728979 0.684536
    outer loop
      vertex 10 39.2163 6.62165
      vertex 30 39.6719 6.13647
      vertex 10 39.6719 6.13647
    endloop
  endfacet
  facet normal 0 0.637491 -0.770458
    outer loop
      vertex 10 39.6719 13.8635
      vertex 10 40.1847 14.2878
      vertex 30 40.1847 14.2878
    endloop
  endfacet
  facet normal 0 0.728993 -0.684521
    outer loop
      vertex 10 39.6719 13.8635
      vertex 30 39.6719 13.8635
      vertex 30 39.2163 13.3783
    endloop
  endfacet
  facet normal 0 0.637491 -0.770458
    outer loop
      vertex 10 39.6719 13.8635
      vertex 30 40.1847 14.2878
      vertex 30 39.6719 13.8635
    endloop
  endfacet
  facet normal 0 0.637455 0.770487
    outer loop
      vertex 10 39.6719 6.13647
      vertex 30 39.6719 6.13647
      vertex 10 40.1847 5.71221
    endloop
  endfacet
  facet normal 0 0.535767 -0.844366
    outer loop
      vertex 10 40.1847 14.2878
      vertex 10 40.7467 14.6444
      vertex 30 40.7467 14.6444
    endloop
  endfacet
  facet normal -1 0 0
    outer loop
      vertex 10 40.1847 14.2878
      vertex 10 43.3 20
      vertex 10 40.7467 14.6444
    endloop
  endfacet
  facet normal 0 0.535767 -0.844366
    outer loop
      vertex 10 40.1847 14.2878
      vertex 30 40.7467 14.6444
      vertex 30 40.1847 14.2878
    endloop
  endfacet
  facet normal -1 0 0
    outer loop
      vertex 10 40.1847 5.71221
      vertex 10 40.7467 5.35557
      vertex 10 43.3 0
    endloop
  endfacet
  facet normal -0 0.637455 0.770487
    outer loop
      vertex 10 40.1847 5.71221
      vertex 30 39.6719 6.13647
      vertex 30 40.1847 5.71221
    endloop
  endfacet
  facet normal 0 0.53581 0.844339
    outer loop
      vertex 10 40.1847 5.71221
      vertex 30 40.1847 5.71221
      vertex 10 40.7467 5.35557
    endloop
  endfacet
  facet normal 0 0.425812 -0.904812
    outer loop
      vertex 10 40.7467 14.6444
      vertex 10 41.3489 14.9278
      vertex 30 41.3489 14.9278
    endloop
  endfacet
  facet normal -1 0 0
    outer loop
      vertex 10 40.7467 14.6444
      vertex 10 43.3 20
      vertex 10 41.3489 14.9278
    endloop
  endfacet
  facet normal 0 0.425812 -0.904812
    outer loop
      vertex 10 40.7467 14.6444
      vertex 30 41.3489 14.9278
      vertex 30 40.7467 14.6444
    endloop
  endfacet
  facet normal -1 0 0
    outer loop
      vertex 10 40.7467 5.35557
      vertex 10 41.3489 5.07218
      vertex 10 43.3 0
    endloop
  endfacet
  facet normal -0 0.53581 0.844339
    outer loop
      vertex 10 40.7467 5.35557
      vertex 30 40.1847 5.71221
      vertex 30 40.7467 5.35557
    endloop
  endfacet
  facet normal 0 0.425799 0.904818
    outer loop
      vertex 10 40.7467 5.35557
      vertex 30 40.7467 5.35557
      vertex 10 41.3489 5.07218
    endloop
  endfacet
  facet normal 0 0.309052 -0.951045
    outer loop
      vertex 10 41.3489 14.9278
      vertex 10 41.9819 15.1335
      vertex 30 41.9819 15.1335
    endloop
  endfacet
  facet normal -1 0 0
    outer loop
      vertex 10 41.3489 14.9278
      vertex 10 43.3 20
      vertex 10 41.9819 15.1335
    endloop
  endfacet
  facet normal 0 0.309052 -0.951045
    outer loop
      vertex 10 41.3489 14.9278
      vertex 30 41.9819 15.1335
      vertex 30 41.3489 14.9278
    endloop
  endfacet
  facet normal -1 0 0
    outer loop
      vertex 10 41.3489 5.07218
      vertex 10 41.9819 4.86651
      vertex 10 43.3 0
    endloop
  endfacet
  facet normal -0 0.425799 0.904818
    outer loop
      vertex 10 41.3489 5.07218
      vertex 30 40.7467 5.35557
      vertex 30 41.3489 5.07218
    endloop
  endfacet
  facet normal 0 0.309011 0.951058
    outer loop
      vertex 10 41.3489 5.07218
      vertex 30 41.3489 5.07218
      vertex 10 41.9819 4.86651
    endloop
  endfacet
  facet normal 0 0.187354 -0.982293
    outer loop
      vertex 10 41.9819 15.1335
      vertex 10 42.6357 15.2582
      vertex 30 42.6357 15.2582
    endloop
  endfacet
  facet normal -1 0 0
    outer loop
      vertex 10 41.9819 15.1335
      vertex 10 43.3 20
      vertex 10 42.6357 15.2582
    endloop
  endfacet
  facet normal 0 0.187354 -0.982293
    outer loop
      vertex 10 41.9819 15.1335
      vertex 30 42.6357 15.2582
      vertex 30 41.9819 15.1335
    endloop
  endfacet
  facet normal -1 0 0
    outer loop
      vertex 10 41.9819 4.86651
      vertex 10 42.6357 4.74179
      vertex 10 43.3 0
    endloop
  endfacet
  facet normal -0 0.309011 0.951058
    outer loop
      vertex 10 41.9819 4.86651
      vertex 30 41.3489 5.07218
      vertex 30 41.9819 4.86651
    endloop
  endfacet
  facet normal 0 0.187383 0.982287
    outer loop
      vertex 10 41.9819 4.86651
      vertex 30 41.9819 4.86651
      vertex 10 42.6357 4.74179
    endloop
  endfacet
  facet normal 0 0.0627992 -0.998026
    outer loop
      vertex 10 42.6357 15.2582
      vertex 10 43.3 15.3
      vertex 30 43.3 15.3
    endloop
  endfacet
  facet normal -1 0 0
    outer loop
      vertex 10 42.6357 15.2582
      vertex 10 43.3 20
      vertex 10 43.3 15.3
    endloop
  endfacet
  facet normal 0 0.0627992 -0.998026
    outer loop
      vertex 10 42.6357 15.2582
      vertex 30 43.3 15.3
      vertex 30 42.6357 15.2582
    endloop
  endfacet
  facet normal -1 0 0
    outer loop
      vertex 10 42.6357 4.74179
      vertex 10 43.3 4.7
      vertex 10 43.3 0
    endloop
  endfacet
  facet normal -0 0.187383 0.982287
    outer loop
      vertex 10 42.6357 4.74179
      vertex 30 41.9819 4.86651
      vertex 30 42.6357 4.74179
    endloop
  endfacet
  facet normal 0 0.0627842 0.998027
    outer loop
      vertex 10 42.6357 4.74179
      vertex 30 42.6357 4.74179
      vertex 10 43.3 4.7
    endloop
  endfacet
  facet normal 0 1 0
    outer loop
      vertex 10 43.3 0
      vertex 10 43.3 4.7
      vertex 30 43.3 0
    endloop
  endfacet
  facet normal 0 1 0
    outer loop
      vertex 10 43.3 15.3
      vertex 10 43.3 20
      vertex 30 43.3 15.3
    endloop
  endfacet
  facet normal -0 0 1
    outer loop
      vertex 10 43.3 20
      vertex 30 30.85 20
      vertex 30 43.3 20
    endloop
  endfacet
  facet normal 0 1 -0
    outer loop
      vertex 10 43.3 20
      vertex 30 43.3 20
      vertex 30 43.3 15.3
    endloop
  endfacet
  facet normal -0 0.0627842 0.998027
    outer loop
      vertex 10 43.3 4.7
      vertex 30 42.6357 4.74179
      vertex 30 43.3 4.7
    endloop
  endfacet
  facet normal 0 1 -0
    outer loop
      vertex 10 43.3 4.7
      vertex 30 43.3 4.7
      vertex 30 43.3 0
    endloop
  endfacet
  facet normal 0.99803 0 -0.0627388
    outer loop
      vertex 16.7 30.85 10
      vertex 16.7 33.85 10
      vertex 16.726 30.85 10.4136
    endloop
  endfacet
  facet normal 0.99803 0 0.0627388
    outer loop
      vertex 16.7 30.85 10
      vertex 16.726 30.85 9.5864
      vertex 16.726 33.85 9.5864
    endloop
  endfacet
  facet normal 0.99803 -0 0.0627388
    outer loop
      vertex 16.7 30.85 10
      vertex 16.726 33.85 9.5864
      vertex 16.7 33.85 10
    endloop
  endfacet
  facet normal 0.99803 0 -0.0627388
    outer loop
      vertex 16.7 33.85 10
      vertex 16.726 33.85 10.4136
      vertex 16.726 30.85 10.4136
    endloop
  endfacet
  facet normal 0 -1 0
    outer loop
      vertex 16.7 33.85 10
      vertex 16.726 33.85 9.5864
      vertex 18.4126 33.85 9.79947
    endloop
  endfacet
  facet normal 0 -1 0
    outer loop
      vertex 16.7 33.85 10
      vertex 18.4 33.85 10
      vertex 18.4126 33.85 10.2005
    endloop
  endfacet
  facet normal 0 -1 0
    outer loop
      vertex 16.7 33.85 10
      vertex 18.4126 33.85 10.2005
      vertex 16.726 33.85 10.4136
    endloop
  endfacet
  facet normal 0 -1 0
    outer loop
      vertex 16.7 33.85 10
      vertex 18.4126 33.85 9.79947
      vertex 18.4 33.85 10
    endloop
  endfacet
  facet normal 0.982269 0 -0.187478
    outer loop
      vertex 16.726 30.85 10.4136
      vertex 16.726 33.85 10.4136
      vertex 16.8037 30.85 10.8207
    endloop
  endfacet
  facet normal 0.982267 0 0.187487
    outer loop
      vertex 16.726 30.85 9.5864
      vertex 16.8037 30.85 9.17932
      vertex 16.8037 33.85 9.17932
    endloop
  endfacet
  facet normal 0.982267 -0 0.187487
    outer loop
      vertex 16.726 30.85 9.5864
      vertex 16.8037 33.85 9.17932
      vertex 16.726 33.85 9.5864
    endloop
  endfacet
  facet normal 0.982269 0 -0.187478
    outer loop
      vertex 16.726 33.85 10.4136
      vertex 16.8037 33.85 10.8207
      vertex 16.8037 30.85 10.8207
    endloop
  endfacet
  facet normal 0 -1 0
    outer loop
      vertex 16.726 33.85 10.4136
      vertex 18.4126 33.85 10.2005
      vertex 18.4503 33.85 10.3979
    endloop
  endfacet
  facet normal 0 -1 0
    outer loop
      vertex 16.726 33.85 10.4136
      vertex 18.4503 33.85 10.3979
      vertex 16.8037 33.85 10.8207
    endloop
  endfacet
  facet normal 0 -1 0
    outer loop
      vertex 16.726 33.85 9.5864
      vertex 16.8037 33.85 9.17932
      vertex 18.4503 33.85 9.6021
    endloop
  endfacet
  facet normal 0 -1 -0
    outer loop
      vertex 16.726 33.85 9.5864
      vertex 18.4503 33.85 9.6021
      vertex 18.4126 33.85 9.79947
    endloop
  endfacet
  facet normal 0.951093 0 -0.308906
    outer loop
      vertex 16.8037 30.85 10.8207
      vertex 16.8037 33.85 10.8207
      vertex 16.9317 30.85 11.2148
    endloop
  endfacet
  facet normal 0.951099 0 0.308885
    outer loop
      vertex 16.8037 30.85 9.17932
      vertex 16.9317 30.85 8.78519
      vertex 16.9317 33.85 8.78519
    endloop
  endfacet
  facet normal 0.951099 -0 0.308885
    outer loop
      vertex 16.8037 30.85 9.17932
      vertex 16.9317 33.85 8.78519
      vertex 16.8037 33.85 9.17932
    endloop
  endfacet
  facet normal 0.951093 0 -0.308906
    outer loop
      vertex 16.8037 33.85 10.8207
      vertex 16.9317 33.85 11.2148
      vertex 16.9317 30.85 11.2148
    endloop
  endfacet
  facet normal 0 -1 0
    outer loop
      vertex 16.8037 33.85 10.8207
      vertex 18.4503 33.85 10.3979
      vertex 18.5124 33.85 10.589
    endloop
  endfacet
  facet normal 0 -1 0
    outer loop
      vertex 16.8037 33.85 10.8207
      vertex 18.5124 33.85 10.589
      vertex 16.9317 33.85 11.2148
    endloop
  endfacet
  facet normal 0 -1 0
    outer loop
      vertex 16.8037 33.85 9.17932
      vertex 16.9317 33.85 8.78519
      vertex 18.5124 33.85 9.411
    endloop
  endfacet
  facet normal 0 -1 -0
    outer loop
      vertex 16.8037 33.85 9.17932
      vertex 18.5124 33.85 9.411
      vertex 18.4503 33.85 9.6021
    endloop
  endfacet
  facet normal 0.904791 0 -0.425855
    outer loop
      vertex 16.9317 30.85 11.2148
      vertex 16.9317 33.85 11.2148
      vertex 17.1082 30.85 11.5898
    endloop
  endfacet
  facet normal 0.904783 0 0.425874
    outer loop
      vertex 16.9317 30.85 8.78519
      vertex 17.1082 30.85 8.41021
      vertex 17.1082 33.85 8.41021
    endloop
  endfacet
  facet normal 0.904783 -0 0.425874
    outer loop
      vertex 16.9317 30.85 8.78519
      vertex 17.1082 33.85 8.41021
      vertex 16.9317 33.85 8.78519
    endloop
  endfacet
  facet normal 0.904791 0 -0.425855
    outer loop
      vertex 16.9317 33.85 11.2148
      vertex 17.1082 33.85 11.5898
      vertex 17.1082 30.85 11.5898
    endloop
  endfacet
  facet normal 0 -1 0
    outer loop
      vertex 16.9317 33.85 11.2148
      vertex 18.5124 33.85 10.589
      vertex 18.5979 33.85 10.7708
    endloop
  endfacet
  facet normal 0 -1 0
    outer loop
      vertex 16.9317 33.85 11.2148
      vertex 18.5979 33.85 10.7708
      vertex 17.1082 33.85 11.5898
    endloop
  endfacet
  facet normal 0 -1 0
    outer loop
      vertex 16.9317 33.85 8.78519
      vertex 17.1082 33.85 8.41021
      vertex 18.5979 33.85 9.22919
    endloop
  endfacet
  facet normal 0 -1 -0
    outer loop
      vertex 16.9317 33.85 8.78519
      vertex 18.5979 33.85 9.22919
      vertex 18.5124 33.85 9.411
    endloop
  endfacet
  facet normal 0.844386 0 -0.535735
    outer loop
      vertex 17.1082 30.85 11.5898
      vertex 17.1082 33.85 11.5898
      vertex 17.3302 30.85 11.9397
    endloop
  endfacet
  facet normal 0.844386 0 0.535735
    outer loop
      vertex 17.1082 30.85 8.41021
      vertex 17.3302 30.85 8.06031
      vertex 17.3302 33.85 8.06031
    endloop
  endfacet
  facet normal 0.844386 -0 0.535735
    outer loop
      vertex 17.1082 30.85 8.41021
      vertex 17.3302 33.85 8.06031
      vertex 17.1082 33.85 8.41021
    endloop
  endfacet
  facet normal 0.844386 0 -0.535735
    outer loop
      vertex 17.1082 33.85 11.5898
      vertex 17.3302 33.85 11.9397
      vertex 17.3302 30.85 11.9397
    endloop
  endfacet
  facet normal 0 -1 0
    outer loop
      vertex 17.1082 33.85 11.5898
      vertex 18.5979 33.85 10.7708
      vertex 18.7056 33.85 10.9405
    endloop
  endfacet
  facet normal 0 -1 0
    outer loop
      vertex 17.1082 33.85 11.5898
      vertex 18.7056 33.85 10.9405
      vertex 17.3302 33.85 11.9397
    endloop
  endfacet
  facet normal 0 -1 0
    outer loop
      vertex 17.1082 33.85 8.41021
      vertex 17.3302 33.85 8.06031
      vertex 18.7056 33.85 9.05954
    endloop
  endfacet
  facet normal 0 -1 -0
    outer loop
      vertex 17.1082 33.85 8.41021
      vertex 18.7056 33.85 9.05954
      vertex 18.5979 33.85 9.22919
    endloop
  endfacet
  facet normal 0.770452 0 -0.637499
    outer loop
      vertex 17.3302 30.85 11.9397
      vertex 17.3302 33.85 11.9397
      vertex 17.5944 30.85 12.259
    endloop
  endfacet
  facet normal 0.770471 0 0.637475
    outer loop
      vertex 17.3302 30.85 8.06031
      vertex 17.5944 30.85 7.74099
      vertex 17.5944 33.85 7.74099
    endloop
  endfacet
  facet normal 0.770471 -0 0.637475
    outer loop
      vertex 17.3302 30.85 8.06031
      vertex 17.5944 33.85 7.74099
      vertex 17.3302 33.85 8.06031
    endloop
  endfacet
  facet normal 0.770452 0 -0.637499
    outer loop
      vertex 17.3302 33.85 11.9397
      vertex 17.5944 33.85 12.259
      vertex 17.5944 30.85 12.259
    endloop
  endfacet
  facet normal 0 -1 0
    outer loop
      vertex 17.3302 33.85 11.9397
      vertex 18.7056 33.85 10.9405
      vertex 18.8336 33.85 11.0953
    endloop
  endfacet
  facet normal 0 -1 0
    outer loop
      vertex 17.3302 33.85 11.9397
      vertex 18.8336 33.85 11.0953
      vertex 17.5944 33.85 12.259
    endloop
  endfacet
  facet normal 0 -1 0
    outer loop
      vertex 17.3302 33.85 8.06031
      vertex 17.5944 33.85 7.74099
      vertex 18.8336 33.85 8.90472
    endloop
  endfacet
  facet normal 0 -1 -0
    outer loop
      vertex 17.3302 33.85 8.06031
      vertex 18.8336 33.85 8.90472
      vertex 18.7056 33.85 9.05954
    endloop
  endfacet
  facet normal 0.684559 0 -0.728958
    outer loop
      vertex 17.5944 30.85 12.259
      vertex 17.5944 33.85 12.259
      vertex 17.8965 33.85 12.5427
    endloop
  endfacet
  facet normal 0.684559 0 -0.728958
    outer loop
      vertex 17.5944 30.85 12.259
      vertex 17.8965 33.85 12.5427
      vertex 17.8965 30.85 12.5427
    endloop
  endfacet
  facet normal 0.684533 0 0.728982
    outer loop
      vertex 17.5944 30.85 7.74099
      vertex 17.8965 30.85 7.45731
      vertex 17.5944 33.85 7.74099
    endloop
  endfacet
  facet normal 0 -1 0
    outer loop
      vertex 17.5944 33.85 12.259
      vertex 18.8336 33.85 11.0953
      vertex 18.9801 33.85 11.2328
    endloop
  endfacet
  facet normal 0 -1 0
    outer loop
      vertex 17.5944 33.85 12.259
      vertex 18.9801 33.85 11.2328
      vertex 17.8965 33.85 12.5427
    endloop
  endfacet
  facet normal 0.684533 0 0.728982
    outer loop
      vertex 17.5944 33.85 7.74099
      vertex 17.8965 30.85 7.45731
      vertex 17.8965 33.85 7.45731
    endloop
  endfacet
  facet normal 0 -1 0
    outer loop
      vertex 17.5944 33.85 7.74099
      vertex 17.8965 33.85 7.45731
      vertex 18.9801 33.85 8.76718
    endloop
  endfacet
  facet normal 0 -1 -0
    outer loop
      vertex 17.5944 33.85 7.74099
      vertex 18.9801 33.85 8.76718
      vertex 18.8336 33.85 8.90472
    endloop
  endfacet
  facet normal 0.58777 0 -0.809028
    outer loop
      vertex 17.8965 30.85 12.5427
      vertex 17.8965 33.85 12.5427
      vertex 18.2318 33.85 12.7863
    endloop
  endfacet
  facet normal 0.58777 0 -0.809028
    outer loop
      vertex 17.8965 30.85 12.5427
      vertex 18.2318 33.85 12.7863
      vertex 18.2318 30.85 12.7863
    endloop
  endfacet
  facet normal 0.587754 0 0.80904
    outer loop
      vertex 17.8965 30.85 7.45731
      vertex 18.2318 30.85 7.21372
      vertex 17.8965 33.85 7.45731
    endloop
  endfacet
  facet normal 0 -1 0
    outer loop
      vertex 17.8965 33.85 12.5427
      vertex 18.9801 33.85 11.2328
      vertex 19.1427 33.85 11.3509
    endloop
  endfacet
  facet normal 0 -1 0
    outer loop
      vertex 17.8965 33.85 12.5427
      vertex 19.1427 33.85 11.3509
      vertex 18.2318 33.85 12.7863
    endloop
  endfacet
  facet normal 0.587754 0 0.80904
    outer loop
      vertex 17.8965 33.85 7.45731
      vertex 18.2318 30.85 7.21372
      vertex 18.2318 33.85 7.21372
    endloop
  endfacet
  facet normal 0 -1 0
    outer loop
      vertex 17.8965 33.85 7.45731
      vertex 18.2318 33.85 7.21372
      vertex 19.1427 33.85 8.64907
    endloop
  endfacet
  facet normal 0 -1 -0
    outer loop
      vertex 17.8965 33.85 7.45731
      vertex 19.1427 33.85 8.64907
      vertex 18.9801 33.85 8.76718
    endloop
  endfacet
  facet normal 0.481724 0 -0.876323
    outer loop
      vertex 18.2318 30.85 12.7863
      vertex 18.2318 33.85 12.7863
      vertex 18.5949 33.85 12.9859
    endloop
  endfacet
  facet normal 0.481724 0 -0.876323
    outer loop
      vertex 18.2318 30.85 12.7863
      vertex 18.5949 33.85 12.9859
      vertex 18.5949 30.85 12.9859
    endloop
  endfacet
  facet normal 0.481817 0 0.876272
    outer loop
      vertex 18.2318 30.85 7.21372
      vertex 18.5949 30.85 7.01407
      vertex 18.2318 33.85 7.21372
    endloop
  endfacet
  facet normal 0 -1 0
    outer loop
      vertex 18.2318 33.85 12.7863
      vertex 19.1427 33.85 11.3509
      vertex 19.3188 33.85 11.4477
    endloop
  endfacet
  facet normal 0 -1 0
    outer loop
      vertex 18.2318 33.85 12.7863
      vertex 19.3188 33.85 11.4477
      vertex 18.5949 33.85 12.9859
    endloop
  endfacet
  facet normal 0.481817 0 0.876272
    outer loop
      vertex 18.2318 33.85 7.21372
      vertex 18.5949 30.85 7.01407
      vertex 18.5949 33.85 7.01407
    endloop
  endfacet
  facet normal 0 -1 0
    outer loop
      vertex 18.2318 33.85 7.21372
      vertex 18.5949 33.85 7.01407
      vertex 19.3188 33.85 8.55228
    endloop
  endfacet
  facet normal 0 -1 -0
    outer loop
      vertex 18.2318 33.85 7.21372
      vertex 19.3188 33.85 8.55228
      vertex 19.1427 33.85 8.64907
    endloop
  endfacet
  facet normal 0.998031 0 -0.0627192
    outer loop
      vertex 18.4 33.85 10
      vertex 18.4 38.0105 10
      vertex 18.4126 33.85 10.2005
    endloop
  endfacet
  facet normal 0.998032 0 0.0627098
    outer loop
      vertex 18.4 33.85 10
      vertex 18.4126 33.85 9.79947
      vertex 18.4126 38.0105 9.79947
    endloop
  endfacet
  facet normal 0.998032 -0 0.0627098
    outer loop
      vertex 18.4 33.85 10
      vertex 18.4126 38.0105 9.79947
      vertex 18.4 38.0105 10
    endloop
  endfacet
  facet normal 0.998031 0 -0.0627192
    outer loop
      vertex 18.4 38.0105 10
      vertex 18.4126 38.0105 10.2005
      vertex 18.4126 33.85 10.2005
    endloop
  endfacet
  facet normal 0.982339 0 -0.187112
    outer loop
      vertex 18.4126 33.85 10.2005
      vertex 18.4126 38.0105 10.2005
      vertex 18.4378 38.0105 10.3328
    endloop
  endfacet
  facet normal 0.982247 1.5823e-05 -0.187592
    outer loop
      vertex 18.4126 33.85 10.2005
      vertex 18.4378 38.0105 10.3328
      vertex 18.4503 33.85 10.3979
    endloop
  endfacet
  facet normal 0.982328 0 0.187167
    outer loop
      vertex 18.4126 33.85 9.79947
      vertex 18.4378 38.0105 9.66721
      vertex 18.4126 38.0105 9.79947
    endloop
  endfacet
  facet normal 0.982242 1.49258e-05 0.18762
    outer loop
      vertex 18.4126 33.85 9.79947
      vertex 18.4503 33.85 9.6021
      vertex 18.4378 38.0105 9.66721
    endloop
  endfacet
  facet normal 0.98206 0 -0.188568
    outer loop
      vertex 18.4378 38.0105 10.3328
      vertex 18.4503 38.0187 10.3979
      vertex 18.4503 33.85 10.3979
    endloop
  endfacet
  facet normal 0.982066 0 0.18854
    outer loop
      vertex 18.4378 38.0105 9.66721
      vertex 18.4503 33.85 9.6021
      vertex 18.4503 38.0187 9.6021
    endloop
  endfacet
  facet normal 0.951045 0 -0.309052
    outer loop
      vertex 18.4503 33.85 10.3979
      vertex 18.4503 38.0187 10.3979
      vertex 18.5124 33.85 10.589
    endloop
  endfacet
  facet normal 0.951045 0 0.309052
    outer loop
      vertex 18.4503 33.85 9.6021
      vertex 18.5124 33.85 9.411
      vertex 18.4503 38.0187 9.6021
    endloop
  endfacet
  facet normal 0.951045 0 -0.309052
    outer loop
      vertex 18.4503 38.0187 10.3979
      vertex 18.5124 38.0428 10.589
      vertex 18.5124 33.85 10.589
    endloop
  endfacet
  facet normal 0.951045 0 0.309052
    outer loop
      vertex 18.4503 38.0187 9.6021
      vertex 18.5124 33.85 9.411
      vertex 18.5124 38.0428 9.411
    endloop
  endfacet
  facet normal 0.90492 0 -0.425581
    outer loop
      vertex 18.5124 33.85 10.589
      vertex 18.5124 38.0428 10.589
      vertex 18.5979 33.85 10.7708
    endloop
  endfacet
  facet normal 0.904929 0 0.425562
    outer loop
      vertex 18.5124 33.85 9.411
      vertex 18.5979 33.85 9.22919
      vertex 18.5124 38.0428 9.411
    endloop
  endfacet
  facet normal 0.90492 0 -0.425581
    outer loop
      vertex 18.5124 38.0428 10.589
      vertex 18.5979 38.0658 10.7708
      vertex 18.5979 33.85 10.7708
    endloop
  endfacet
  facet normal 0.904929 0 0.425562
    outer loop
      vertex 18.5124 38.0428 9.411
      vertex 18.5979 33.85 9.22919
      vertex 18.5979 38.0658 9.22919
    endloop
  endfacet
  facet normal 0.368227 0 -0.929736
    outer loop
      vertex 18.5949 30.85 12.9859
      vertex 18.5949 33.85 12.9859
      vertex 18.9802 33.85 13.1385
    endloop
  endfacet
  facet normal 0.368227 0 -0.929736
    outer loop
      vertex 18.5949 30.85 12.9859
      vertex 18.9802 33.85 13.1385
      vertex 18.9802 30.85 13.1385
    endloop
  endfacet
  facet normal 0.368143 0 0.929769
    outer loop
      vertex 18.5949 30.85 7.01407
      vertex 18.9802 30.85 6.86151
      vertex 18.5949 33.85 7.01407
    endloop
  endfacet
  facet normal 0 -1 0
    outer loop
      vertex 18.5949 33.85 12.9859
      vertex 19.3188 33.85 11.4477
      vertex 19.5056 33.85 11.5217
    endloop
  endfacet
  facet normal 0 -1 0
    outer loop
      vertex 18.5949 33.85 12.9859
      vertex 19.5056 33.85 11.5217
      vertex 18.9802 33.85 13.1385
    endloop
  endfacet
  facet normal 0.368143 0 0.929769
    outer loop
      vertex 18.5949 33.85 7.01407
      vertex 18.9802 30.85 6.86151
      vertex 18.9802 33.85 6.86151
    endloop
  endfacet
  facet normal 0 -1 0
    outer loop
      vertex 18.5949 33.85 7.01407
      vertex 18.9802 33.85 6.86151
      vertex 19.5056 33.85 8.47831
    endloop
  endfacet
  facet normal 0 -1 -0
    outer loop
      vertex 18.5949 33.85 7.01407
      vertex 19.5056 33.85 8.47831
      vertex 19.3188 33.85 8.55228
    endloop
  endfacet
  facet normal 0.844316 0 -0.535845
    outer loop
      vertex 18.5979 33.85 10.7708
      vertex 18.5979 38.0658 10.7708
      vertex 18.7056 33.85 10.9405
    endloop
  endfacet
  facet normal 0.844245 0 0.535957
    outer loop
      vertex 18.5979 33.85 9.22919
      vertex 18.7056 33.85 9.05954
      vertex 18.5979 38.0658 9.22919
    endloop
  endfacet
  facet normal 0.844316 0 -0.535845
    outer loop
      vertex 18.5979 38.0658 10.7708
      vertex 18.7056 38.0872 10.9405
      vertex 18.7056 33.85 10.9405
    endloop
  endfacet
  facet normal 0.844245 0 0.535957
    outer loop
      vertex 18.5979 38.0658 9.22919
      vertex 18.7056 33.85 9.05954
      vertex 18.7056 38.0872 9.05954
    endloop
  endfacet
  facet normal 0.770664 0 -0.637242
    outer loop
      vertex 18.7056 33.85 10.9405
      vertex 18.7056 38.0872 10.9405
      vertex 18.8336 33.85 11.0953
    endloop
  endfacet
  facet normal 0.770705 0 0.637193
    outer loop
      vertex 18.7056 33.85 9.05954
      vertex 18.8336 33.85 8.90472
      vertex 18.7056 38.0872 9.05954
    endloop
  endfacet
  facet normal 0.770618 -3.44158e-06 -0.637298
    outer loop
      vertex 18.7056 38.0872 10.9405
      vertex 18.7491 38.0939 10.9931
      vertex 18.8336 33.85 11.0953
    endloop
  endfacet
  facet normal 0.770973 1.99821e-05 0.636868
    outer loop
      vertex 18.7056 38.0872 9.05954
      vertex 18.8336 33.85 8.90472
      vertex 18.7491 38.0939 9.00688
    endloop
  endfacet
  facet normal 0.770688 0 -0.637213
    outer loop
      vertex 18.7491 38.0939 10.9931
      vertex 18.8336 38.1201 11.0953
      vertex 18.8336 33.85 11.0953
    endloop
  endfacet
  facet normal 0.770565 0 0.637361
    outer loop
      vertex 18.7491 38.0939 9.00688
      vertex 18.8336 33.85 8.90472
      vertex 18.8336 38.1201 8.90472
    endloop
  endfacet
  facet normal 0.684355 0 -0.729149
    outer loop
      vertex 18.8336 33.85 11.0953
      vertex 18.8336 38.1201 11.0953
      vertex 18.9801 33.85 11.2328
    endloop
  endfacet
  facet normal 0.684461 0 0.72905
    outer loop
      vertex 18.8336 33.85 8.90472
      vertex 18.9801 33.85 8.76718
      vertex 18.8336 38.1201 8.90472
    endloop
  endfacet
  facet normal 0.684355 0 -0.729149
    outer loop
      vertex 18.8336 38.1201 11.0953
      vertex 18.9801 38.1554 11.2328
      vertex 18.9801 33.85 11.2328
    endloop
  endfacet
  facet normal 0.684461 0 0.72905
    outer loop
      vertex 18.8336 38.1201 8.90472
      vertex 18.9801 33.85 8.76718
      vertex 18.9801 38.1554 8.76718
    endloop
  endfacet
  facet normal 0.587669 0 -0.809102
    outer loop
      vertex 18.9801 33.85 11.2328
      vertex 18.9801 38.1554 11.2328
      vertex 19.1427 33.85 11.3509
    endloop
  endfacet
  facet normal 0.587701 0 0.809078
    outer loop
      vertex 18.9801 33.85 8.76718
      vertex 19.1427 33.85 8.64907
      vertex 18.9801 38.1554 8.76718
    endloop
  endfacet
  facet normal 0.587669 0 -0.809102
    outer loop
      vertex 18.9801 38.1554 11.2328
      vertex 19.1427 38.1857 11.3509
      vertex 19.1427 33.85 11.3509
    endloop
  endfacet
  facet normal 0.587701 0 0.809078
    outer loop
      vertex 18.9801 38.1554 8.76718
      vertex 19.1427 33.85 8.64907
      vertex 19.1427 38.1857 8.64907
    endloop
  endfacet
  facet normal 0.24855 0 -0.968619
    outer loop
      vertex 18.9802 30.85 13.1385
      vertex 18.9802 33.85 13.1385
      vertex 19.3816 33.85 13.2415
    endloop
  endfacet
  facet normal 0.24855 0 -0.968619
    outer loop
      vertex 18.9802 30.85 13.1385
      vertex 19.3816 33.85 13.2415
      vertex 19.3816 30.85 13.2415
    endloop
  endfacet
  facet normal 0.248685 0 0.968584
    outer loop
      vertex 18.9802 30.85 6.86151
      vertex 19.3816 30.85 6.75845
      vertex 18.9802 33.85 6.86151
    endloop
  endfacet
  facet normal 0 -1 0
    outer loop
      vertex 18.9802 33.85 13.1385
      vertex 19.5056 33.85 11.5217
      vertex 19.7002 33.85 11.5717
    endloop
  endfacet
  facet normal 0 -1 0
    outer loop
      vertex 18.9802 33.85 13.1385
      vertex 19.7002 33.85 11.5717
      vertex 19.3816 33.85 13.2415
    endloop
  endfacet
  facet normal 0.248685 0 0.968584
    outer loop
      vertex 18.9802 33.85 6.86151
      vertex 19.3816 30.85 6.75845
      vertex 19.3816 33.85 6.75845
    endloop
  endfacet
  facet normal 0 -1 0
    outer loop
      vertex 18.9802 33.85 6.86151
      vertex 19.3816 33.85 6.75845
      vertex 19.7002 33.85 8.42834
    endloop
  endfacet
  facet normal 0 -1 -0
    outer loop
      vertex 18.9802 33.85 6.86151
      vertex 19.7002 33.85 8.42834
      vertex 19.5056 33.85 8.47831
    endloop
  endfacet
  facet normal 0.481709 0 -0.876331
    outer loop
      vertex 19.1427 33.85 11.3509
      vertex 19.1427 38.1857 11.3509
      vertex 19.3188 33.85 11.4477
    endloop
  endfacet
  facet normal 0.48167 0 0.876352
    outer loop
      vertex 19.1427 33.85 8.64907
      vertex 19.3188 33.85 8.55228
      vertex 19.1427 38.1857 8.64907
    endloop
  endfacet
  facet normal 0.481709 0 -0.876331
    outer loop
      vertex 19.1427 38.1857 11.3509
      vertex 19.3188 38.2106 11.4477
      vertex 19.3188 33.85 11.4477
    endloop
  endfacet
  facet normal 0.48167 0 0.876352
    outer loop
      vertex 19.1427 38.1857 8.64907
      vertex 19.3188 33.85 8.55228
      vertex 19.3188 38.2106 8.55228
    endloop
  endfacet
  facet normal 0.368299 0 -0.929707
    outer loop
      vertex 19.3188 33.85 11.4477
      vertex 19.3188 38.2106 11.4477
      vertex 19.5056 33.85 11.5217
    endloop
  endfacet
  facet normal 0.36817 0 0.929758
    outer loop
      vertex 19.3188 33.85 8.55228
      vertex 19.5056 33.85 8.47831
      vertex 19.3188 38.2106 8.55228
    endloop
  endfacet
  facet normal 0.368299 0 -0.929707
    outer loop
      vertex 19.3188 38.2106 11.4477
      vertex 19.5056 38.2296 11.5217
      vertex 19.5056 33.85 11.5217
    endloop
  endfacet
  facet normal 0.36817 0 0.929758
    outer loop
      vertex 19.3188 38.2106 8.55228
      vertex 19.5056 33.85 8.47831
      vertex 19.5056 38.2296 8.47831
    endloop
  endfacet
  facet normal 0.12546 0 -0.992099
    outer loop
      vertex 19.3816 30.85 13.2415
      vertex 19.3816 33.85 13.2415
      vertex 19.7928 33.85 13.2935
    endloop
  endfacet
  facet normal 0.12546 0 -0.992099
    outer loop
      vertex 19.3816 30.85 13.2415
      vertex 19.7928 33.85 13.2935
      vertex 19.7928 30.85 13.2935
    endloop
  endfacet
  facet normal 0.125317 0 0.992117
    outer loop
      vertex 19.3816 30.85 6.75845
      vertex 19.7928 30.85 6.70651
      vertex 19.3816 33.85 6.75845
    endloop
  endfacet
  facet normal 0 -1 0
    outer loop
      vertex 19.3816 33.85 13.2415
      vertex 19.7002 33.85 11.5717
      vertex 19.8995 33.85 11.5968
    endloop
  endfacet
  facet normal 0 -1 0
    outer loop
      vertex 19.3816 33.85 13.2415
      vertex 19.8995 33.85 11.5968
      vertex 19.7928 33.85 13.2935
    endloop
  endfacet
  facet normal 0.125317 0 0.992117
    outer loop
      vertex 19.3816 33.85 6.75845
      vertex 19.7928 30.85 6.70651
      vertex 19.7928 33.85 6.70651
    endloop
  endfacet
  facet normal 0 -1 0
    outer loop
      vertex 19.3816 33.85 6.75845
      vertex 19.7928 33.85 6.70651
      vertex 19.8995 33.85 8.40316
    endloop
  endfacet
  facet normal 0 -1 -0
    outer loop
      vertex 19.3816 33.85 6.75845
      vertex 19.8995 33.85 8.40316
      vertex 19.7002 33.85 8.42834
    endloop
  endfacet
  facet normal 0.248854 0 -0.968541
    outer loop
      vertex 19.5056 33.85 11.5217
      vertex 19.5056 38.2296 11.5217
      vertex 19.7002 33.85 11.5717
    endloop
  endfacet
  facet normal 0.248714 0 0.968577
    outer loop
      vertex 19.5056 33.85 8.47831
      vertex 19.7002 33.85 8.42834
      vertex 19.5056 38.2296 8.47831
    endloop
  endfacet
  facet normal 0.248854 0 -0.968541
    outer loop
      vertex 19.5056 38.2296 11.5217
      vertex 19.7002 38.2424 11.5717
      vertex 19.7002 33.85 11.5717
    endloop
  endfacet
  facet normal 0.248714 0 0.968577
    outer loop
      vertex 19.5056 38.2296 8.47831
      vertex 19.7002 33.85 8.42834
      vertex 19.7002 38.2424 8.42834
    endloop
  endfacet
  facet normal 0.124954 0 -0.992163
    outer loop
      vertex 19.7002 33.85 11.5717
      vertex 19.7002 38.2424 11.5717
      vertex 19.8995 33.85 11.5968
    endloop
  endfacet
  facet normal 0.125346 0 0.992113
    outer loop
      vertex 19.7002 33.85 8.42834
      vertex 19.8995 33.85 8.40316
      vertex 19.7002 38.2424 8.42834
    endloop
  endfacet
  facet normal 0.124954 0 -0.992163
    outer loop
      vertex 19.7002 38.2424 11.5717
      vertex 19.8995 38.2489 11.5968
      vertex 19.8995 33.85 11.5968
    endloop
  endfacet
  facet normal 0.125346 0 0.992113
    outer loop
      vertex 19.7002 38.2424 8.42834
      vertex 19.8995 33.85 8.40316
      vertex 19.8995 38.2489 8.40316
    endloop
  endfacet
  facet normal -0 0 -1
    outer loop
      vertex 19.7928 30.85 13.2935
      vertex 19.7928 33.85 13.2935
      vertex 20.2072 33.85 13.2935
    endloop
  endfacet
  facet normal 0 -1 0
    outer loop
      vertex 19.7928 30.85 13.2935
      vertex 20.2072 30.85 13.2935
      vertex 30 30.85 20
    endloop
  endfacet
  facet normal 0 0 -1
    outer loop
      vertex 19.7928 30.85 13.2935
      vertex 20.2072 33.85 13.2935
      vertex 20.2072 30.85 13.2935
    endloop
  endfacet
  facet normal 0 0 1
    outer loop
      vertex 19.7928 30.85 6.70651
      vertex 20.2072 30.85 6.70651
      vertex 19.7928 33.85 6.70651
    endloop
  endfacet
  facet normal 0 -1 0
    outer loop
      vertex 19.7928 33.85 13.2935
      vertex 19.8995 33.85 11.5968
      vertex 20.2072 33.85 13.2935
    endloop
  endfacet
  facet normal 0 -1 -0
    outer loop
      vertex 19.7928 33.85 6.70651
      vertex 20.1005 33.85 8.40316
      vertex 19.8995 33.85 8.40316
    endloop
  endfacet
  facet normal -0 0 1
    outer loop
      vertex 19.7928 33.85 6.70651
      vertex 20.2072 30.85 6.70651
      vertex 20.2072 33.85 6.70651
    endloop
  endfacet
  facet normal 0 -1 0
    outer loop
      vertex 19.7928 33.85 6.70651
      vertex 20.2072 33.85 6.70651
      vertex 20.1005 33.85 8.40316
    endloop
  endfacet
  facet normal -0 0 -1
    outer loop
      vertex 19.8995 33.85 11.5968
      vertex 19.8995 38.2489 11.5968
      vertex 20.1005 38.2489 11.5968
    endloop
  endfacet
  facet normal 0 -1 0
    outer loop
      vertex 19.8995 33.85 11.5968
      vertex 20.1005 33.85 11.5968
      vertex 20.2072 33.85 13.2935
    endloop
  endfacet
  facet normal 0 0 -1
    outer loop
      vertex 19.8995 33.85 11.5968
      vertex 20.1005 38.2489 11.5968
      vertex 20.1005 33.85 11.5968
    endloop
  endfacet
  facet normal 0 0 1
    outer loop
      vertex 19.8995 33.85 8.40316
      vertex 20.1005 33.85 8.40316
      vertex 19.8995 38.2489 8.40316
    endloop
  endfacet
  facet normal -0 0 1
    outer loop
      vertex 19.8995 38.2489 8.40316
      vertex 20.1005 33.85 8.40316
      vertex 20.1005 38.2489 8.40316
    endloop
  endfacet
  facet normal 0 0.968664 0.248375
    outer loop
      vertex 19.8995 38.2489 8.40316
      vertex 20.1005 38.2489 8.40316
      vertex 30 38.2594 8.36221
    endloop
  endfacet
  facet normal -0.124954 0 -0.992163
    outer loop
      vertex 20.1005 33.85 11.5968
      vertex 20.1005 38.2489 11.5968
      vertex 20.2998 38.2424 11.5717
    endloop
  endfacet
  facet normal 0 -1 0
    outer loop
      vertex 20.1005 33.85 11.5968
      vertex 20.2998 33.85 11.5717
      vertex 20.6184 33.85 13.2415
    endloop
  endfacet
  facet normal -0.124954 0 -0.992163
    outer loop
      vertex 20.1005 33.85 11.5968
      vertex 20.2998 38.2424 11.5717
      vertex 20.2998 33.85 11.5717
    endloop
  endfacet
  facet normal 0 -1 -0
    outer loop
      vertex 20.1005 33.85 11.5968
      vertex 20.6184 33.85 13.2415
      vertex 20.2072 33.85 13.2935
    endloop
  endfacet
  facet normal 0 -1 0
    outer loop
      vertex 20.1005 33.85 8.40316
      vertex 20.2072 33.85 6.70651
      vertex 20.6184 33.85 6.75845
    endloop
  endfacet
  facet normal -0.125346 0 0.992113
    outer loop
      vertex 20.1005 33.85 8.40316
      vertex 20.2998 33.85 8.42834
      vertex 20.2998 38.2424 8.42834
    endloop
  endfacet
  facet normal -0.125346 0 0.992113
    outer loop
      vertex 20.1005 33.85 8.40316
      vertex 20.2998 38.2424 8.42834
      vertex 20.1005 38.2489 8.40316
    endloop
  endfacet
  facet normal 0 -1 0
    outer loop
      vertex 20.1005 33.85 8.40316
      vertex 20.6184 33.85 6.75845
      vertex 20.2998 33.85 8.42834
    endloop
  endfacet
  facet normal 1.11275e-05 0.968088 -0.250612
    outer loop
      vertex 20.1005 38.2489 11.5968
      vertex 30 38.2594 11.6378
      vertex 20.2998 38.2424 11.5717
    endloop
  endfacet
  facet normal 6.71391e-06 0.968272 0.249898
    outer loop
      vertex 20.1005 38.2489 8.40316
      vertex 20.2998 38.2424 8.42834
      vertex 30 38.2594 8.36221
    endloop
  endfacet
  facet normal -0.12546 0 -0.992099
    outer loop
      vertex 20.2072 30.85 13.2935
      vertex 20.2072 33.85 13.2935
      vertex 20.6184 33.85 13.2415
    endloop
  endfacet
  facet normal 0 -1 0
    outer loop
      vertex 20.2072 30.85 13.2935
      vertex 20.6184 30.85 13.2415
      vertex 30 30.85 20
    endloop
  endfacet
  facet normal -0.12546 0 -0.992099
    outer loop
      vertex 20.2072 30.85 13.2935
      vertex 20.6184 33.85 13.2415
      vertex 20.6184 30.85 13.2415
    endloop
  endfacet
  facet normal -0.125317 0 0.992117
    outer loop
      vertex 20.2072 30.85 6.70651
      vertex 20.6184 30.85 6.75845
      vertex 20.2072 33.85 6.70651
    endloop
  endfacet
  facet normal 0 -1 0
    outer loop
      vertex 20.2072 30.85 6.70651
      vertex 30 30.85 0
      vertex 20.6184 30.85 6.75845
    endloop
  endfacet
  facet normal -0.125317 0 0.992117
    outer loop
      vertex 20.2072 33.85 6.70651
      vertex 20.6184 30.85 6.75845
      vertex 20.6184 33.85 6.75845
    endloop
  endfacet
  facet normal -0.248854 0 -0.968541
    outer loop
      vertex 20.2998 33.85 11.5717
      vertex 20.2998 38.2424 11.5717
      vertex 20.4944 38.2296 11.5217
    endloop
  endfacet
  facet normal 0 -1 0
    outer loop
      vertex 20.2998 33.85 11.5717
      vertex 20.4944 33.85 11.5217
      vertex 21.0198 33.85 13.1385
    endloop
  endfacet
  facet normal -0.248854 0 -0.968541
    outer loop
      vertex 20.2998 33.85 11.5717
      vertex 20.4944 38.2296 11.5217
      vertex 20.4944 33.85 11.5217
    endloop
  endfacet
  facet normal 0 -1 -0
    outer loop
      vertex 20.2998 33.85 11.5717
      vertex 21.0198 33.85 13.1385
      vertex 20.6184 33.85 13.2415
    endloop
  endfacet
  facet normal -0.248714 0 0.968577
    outer loop
      vertex 20.2998 33.85 8.42834
      vertex 20.4944 33.85 8.47831
      vertex 20.4944 38.2296 8.47831
    endloop
  endfacet
  facet normal -0.248714 0 0.968577
    outer loop
      vertex 20.2998 33.85 8.42834
      vertex 20.4944 38.2296 8.47831
      vertex 20.2998 38.2424 8.42834
    endloop
  endfacet
  facet normal 0 -1 0
    outer loop
      vertex 20.2998 33.85 8.42834
      vertex 20.6184 33.85 6.75845
      vertex 21.0198 33.85 6.86151
    endloop
  endfacet
  facet normal 0 -1 0
    outer loop
      vertex 20.2998 33.85 8.42834
      vertex 21.0198 33.85 6.86151
      vertex 20.4944 33.85 8.47831
    endloop
  endfacet
  facet normal -7.62746e-06 0.968752 -0.24803
    outer loop
      vertex 20.2998 38.2424 11.5717
      vertex 30 38.2594 11.6378
      vertex 20.4944 38.2296 11.5217
    endloop
  endfacet
  facet normal -5.8911e-06 0.968718 0.248164
    outer loop
      vertex 20.2998 38.2424 8.42834
      vertex 20.4944 38.2296 8.47831
      vertex 30 38.2594 8.36221
    endloop
  endfacet
  facet normal -0.368299 0 -0.929707
    outer loop
      vertex 20.4944 33.85 11.5217
      vertex 20.4944 38.2296 11.5217
      vertex 20.6812 38.2106 11.4477
    endloop
  endfacet
  facet normal 0 -1 0
    outer loop
      vertex 20.4944 33.85 11.5217
      vertex 20.6812 33.85 11.4477
      vertex 21.4051 33.85 12.9859
    endloop
  endfacet
  facet normal -0.368299 0 -0.929707
    outer loop
      vertex 20.4944 33.85 11.5217
      vertex 20.6812 38.2106 11.4477
      vertex 20.6812 33.85 11.4477
    endloop
  endfacet
  facet normal 0 -1 -0
    outer loop
      vertex 20.4944 33.85 11.5217
      vertex 21.4051 33.85 12.9859
      vertex 21.0198 33.85 13.1385
    endloop
  endfacet
  facet normal -0.36817 0 0.929758
    outer loop
      vertex 20.4944 33.85 8.47831
      vertex 20.6812 33.85 8.55228
      vertex 20.6812 38.2106 8.55228
    endloop
  endfacet
  facet normal -0.36817 0 0.929758
    outer loop
      vertex 20.4944 33.85 8.47831
      vertex 20.6812 38.2106 8.55228
      vertex 20.4944 38.2296 8.47831
    endloop
  endfacet
  facet normal 0 -1 0
    outer loop
      vertex 20.4944 33.85 8.47831
      vertex 21.0198 33.85 6.86151
      vertex 21.4051 33.85 7.01407
    endloop
  endfacet
  facet normal 0 -1 0
    outer loop
      vertex 20.4944 33.85 8.47831
      vertex 21.4051 33.85 7.01407
      vertex 20.6812 33.85 8.55228
    endloop
  endfacet
  facet normal 9.35053e-07 0.968584 -0.248688
    outer loop
      vertex 20.4944 38.2296 11.5217
      vertex 30 38.2594 11.6378
      vertex 20.6812 38.2106 11.4477
    endloop
  endfacet
  facet normal 2.13003e-06 0.96856 0.24878
    outer loop
      vertex 20.4944 38.2296 8.47831
      vertex 20.6812 38.2106 8.55228
      vertex 30 38.2594 8.36221
    endloop
  endfacet
  facet normal -0.24855 0 -0.968619
    outer loop
      vertex 20.6184 30.85 13.2415
      vertex 20.6184 33.85 13.2415
      vertex 21.0198 33.85 13.1385
    endloop
  endfacet
  facet normal 0 -1 0
    outer loop
      vertex 20.6184 30.85 13.2415
      vertex 21.0198 30.85 13.1385
      vertex 30 30.85 20
    endloop
  endfacet
  facet normal -0.24855 0 -0.968619
    outer loop
      vertex 20.6184 30.85 13.2415
      vertex 21.0198 33.85 13.1385
      vertex 21.0198 30.85 13.1385
    endloop
  endfacet
  facet normal -0.248685 0 0.968584
    outer loop
      vertex 20.6184 30.85 6.75845
      vertex 21.0198 30.85 6.86151
      vertex 20.6184 33.85 6.75845
    endloop
  endfacet
  facet normal 0 -1 0
    outer loop
      vertex 20.6184 30.85 6.75845
      vertex 30 30.85 0
      vertex 21.0198 30.85 6.86151
    endloop
  endfacet
  facet normal -0.248685 0 0.968584
    outer loop
      vertex 20.6184 33.85 6.75845
      vertex 21.0198 30.85 6.86151
      vertex 21.0198 33.85 6.86151
    endloop
  endfacet
  facet normal -0.481709 0 -0.876331
    outer loop
      vertex 20.6812 33.85 11.4477
      vertex 20.6812 38.2106 11.4477
      vertex 20.8573 38.1857 11.3509
    endloop
  endfacet
  facet normal 0 -1 0
    outer loop
      vertex 20.6812 33.85 11.4477
      vertex 20.8573 33.85 11.3509
      vertex 21.7682 33.85 12.7863
    endloop
  endfacet
  facet normal -0.481709 0 -0.876331
    outer loop
      vertex 20.6812 33.85 11.4477
      vertex 20.8573 38.1857 11.3509
      vertex 20.8573 33.85 11.3509
    endloop
  endfacet
  facet normal 0 -1 -0
    outer loop
      vertex 20.6812 33.85 11.4477
      vertex 21.7682 33.85 12.7863
      vertex 21.4051 33.85 12.9859
    endloop
  endfacet
  facet normal -0.48167 0 0.876352
    outer loop
      vertex 20.6812 33.85 8.55228
      vertex 20.8573 33.85 8.64907
      vertex 20.8573 38.1857 8.64907
    endloop
  endfacet
  facet normal -0.48167 0 0.876352
    outer loop
      vertex 20.6812 33.85 8.55228
      vertex 20.8573 38.1857 8.64907
      vertex 20.6812 38.2106 8.55228
    endloop
  endfacet
  facet normal 0 -1 0
    outer loop
      vertex 20.6812 33.85 8.55228
      vertex 21.4051 33.85 7.01407
      vertex 21.7682 33.85 7.21372
    endloop
  endfacet
  facet normal 0 -1 0
    outer loop
      vertex 20.6812 33.85 8.55228
      vertex 21.7682 33.85 7.21372
      vertex 20.8573 33.85 8.64907
    endloop
  endfacet
  facet normal 9.98978e-06 0.968477 -0.249104
    outer loop
      vertex 20.6812 38.2106 11.4477
      vertex 30 38.2594 11.6378
      vertex 20.8573 38.1857 11.3509
    endloop
  endfacet
  facet normal 9.72262e-06 0.96847 0.249129
    outer loop
      vertex 20.6812 38.2106 8.55228
      vertex 20.8573 38.1857 8.64907
      vertex 30 38.2594 8.36221
    endloop
  endfacet
  facet normal -0.587669 0 -0.809102
    outer loop
      vertex 20.8573 33.85 11.3509
      vertex 20.8573 38.1857 11.3509
      vertex 21.0199 38.1554 11.2328
    endloop
  endfacet
  facet normal 0 -1 0
    outer loop
      vertex 20.8573 33.85 11.3509
      vertex 21.0199 33.85 11.2328
      vertex 22.1035 33.85 12.5427
    endloop
  endfacet
  facet normal -0.587669 0 -0.809102
    outer loop
      vertex 20.8573 33.85 11.3509
      vertex 21.0199 38.1554 11.2328
      vertex 21.0199 33.85 11.2328
    endloop
  endfacet
  facet normal 0 -1 -0
    outer loop
      vertex 20.8573 33.85 11.3509
      vertex 22.1035 33.85 12.5427
      vertex 21.7682 33.85 12.7863
    endloop
  endfacet
  facet normal -0.587701 0 0.809078
    outer loop
      vertex 20.8573 33.85 8.64907
      vertex 21.0199 33.85 8.76718
      vertex 21.0199 38.1554 8.76718
    endloop
  endfacet
  facet normal -0.587701 0 0.809078
    outer loop
      vertex 20.8573 33.85 8.64907
      vertex 21.0199 38.1554 8.76718
      vertex 20.8573 38.1857 8.64907
    endloop
  endfacet
  facet normal 0 -1 0
    outer loop
      vertex 20.8573 33.85 8.64907
      vertex 21.7682 33.85 7.21372
      vertex 22.1035 33.85 7.45731
    endloop
  endfacet
  facet normal 0 -1 0
    outer loop
      vertex 20.8573 33.85 8.64907
      vertex 22.1035 33.85 7.45731
      vertex 21.0199 33.85 8.76718
    endloop
  endfacet
  facet normal -9.37322e-06 0.968625 -0.248526
    outer loop
      vertex 20.8573 38.1857 11.3509
      vertex 30 38.2594 11.6378
      vertex 21.0199 38.1554 11.2328
    endloop
  endfacet
  facet normal -1.10484e-05 0.96863 0.248508
    outer loop
      vertex 20.8573 38.1857 8.64907
      vertex 21.0199 38.1554 8.76718
      vertex 30 38.2594 8.36221
    endloop
  endfacet
  facet normal -0.368227 0 -0.929736
    outer loop
      vertex 21.0198 30.85 13.1385
      vertex 21.0198 33.85 13.1385
      vertex 21.4051 33.85 12.9859
    endloop
  endfacet
  facet normal 0 -1 0
    outer loop
      vertex 21.0198 30.85 13.1385
      vertex 21.4051 30.85 12.9859
      vertex 30 30.85 20
    endloop
  endfacet
  facet normal -0.368227 0 -0.929736
    outer loop
      vertex 21.0198 30.85 13.1385
      vertex 21.4051 33.85 12.9859
      vertex 21.4051 30.85 12.9859
    endloop
  endfacet
  facet normal -0.368143 0 0.929769
    outer loop
      vertex 21.0198 30.85 6.86151
      vertex 21.4051 30.85 7.01407
      vertex 21.0198 33.85 6.86151
    endloop
  endfacet
  facet normal 0 -1 0
    outer loop
      vertex 21.0198 30.85 6.86151
      vertex 30 30.85 0
      vertex 21.4051 30.85 7.01407
    endloop
  endfacet
  facet normal -0.368143 0 0.929769
    outer loop
      vertex 21.0198 33.85 6.86151
      vertex 21.4051 30.85 7.01407
      vertex 21.4051 33.85 7.01407
    endloop
  endfacet
  facet normal -0.684603 0 -0.728916
    outer loop
      vertex 21.0199 33.85 11.2328
      vertex 21.0199 38.1554 11.2328
      vertex 21.1663 38.1201 11.0953
    endloop
  endfacet
  facet normal 0 -1 0
    outer loop
      vertex 21.0199 33.85 11.2328
      vertex 21.1663 33.85 11.0953
      vertex 22.4056 33.85 12.259
    endloop
  endfacet
  facet normal -0.684603 0 -0.728916
    outer loop
      vertex 21.0199 33.85 11.2328
      vertex 21.1663 38.1201 11.0953
      vertex 21.1663 33.85 11.0953
    endloop
  endfacet
  facet normal 0 -1 -0
    outer loop
      vertex 21.0199 33.85 11.2328
      vertex 22.4056 33.85 12.259
      vertex 22.1035 33.85 12.5427
    endloop
  endfacet
  facet normal -0.684709 0 0.728816
    outer loop
      vertex 21.0199 33.85 8.76718
      vertex 21.1663 33.85 8.90472
      vertex 21.1663 38.1201 8.90472
    endloop
  endfacet
  facet normal -0.684709 0 0.728816
    outer loop
      vertex 21.0199 33.85 8.76718
      vertex 21.1663 38.1201 8.90472
      vertex 21.0199 38.1554 8.76718
    endloop
  endfacet
  facet normal 0 -1 0
    outer loop
      vertex 21.0199 33.85 8.76718
      vertex 22.1035 33.85 7.45731
      vertex 22.4056 33.85 7.74099
    endloop
  endfacet
  facet normal 0 -1 0
    outer loop
      vertex 21.0199 33.85 8.76718
      vertex 22.4056 33.85 7.74099
      vertex 21.1663 33.85 8.90472
    endloop
  endfacet
  facet normal -2.61972e-06 0.968589 -0.248666
    outer loop
      vertex 21.0199 38.1554 11.2328
      vertex 30 38.2594 11.6378
      vertex 21.1663 38.1201 11.0953
    endloop
  endfacet
  facet normal -6.52442e-06 0.968606 0.248602
    outer loop
      vertex 21.0199 38.1554 8.76718
      vertex 21.1663 38.1201 8.90472
      vertex 30 38.2594 8.36221
    endloop
  endfacet
  facet normal -0.770318 0 -0.63766
    outer loop
      vertex 21.1663 33.85 11.0953
      vertex 21.1663 38.1201 11.0953
      vertex 21.2509 38.0939 10.9931
    endloop
  endfacet
  facet normal -0.770617 1.46611e-05 -0.637299
    outer loop
      vertex 21.1663 33.85 11.0953
      vertex 21.2509 38.0939 10.9931
      vertex 21.2944 38.0872 10.9405
    endloop
  endfacet
  facet normal 0 -1 0
    outer loop
      vertex 21.1663 33.85 11.0953
      vertex 21.2944 33.85 10.9405
      vertex 22.6698 33.85 11.9397
    endloop
  endfacet
  facet normal -0.77042 0 -0.637537
    outer loop
      vertex 21.1663 33.85 11.0953
      vertex 21.2944 38.0872 10.9405
      vertex 21.2944 33.85 10.9405
    endloop
  endfacet
  facet normal 0 -1 -0
    outer loop
      vertex 21.1663 33.85 11.0953
      vertex 22.6698 33.85 11.9397
      vertex 22.4056 33.85 12.259
    endloop
  endfacet
  facet normal -0.770195 0 0.637808
    outer loop
      vertex 21.1663 33.85 8.90472
      vertex 21.2509 38.0939 9.00688
      vertex 21.1663 38.1201 8.90472
    endloop
  endfacet
  facet normal -0.77046 0 0.637488
    outer loop
      vertex 21.1663 33.85 8.90472
      vertex 21.2944 33.85 9.05954
      vertex 21.2944 38.0872 9.05954
    endloop
  endfacet
  facet normal -0.770972 3.80932e-05 0.636869
    outer loop
      vertex 21.1663 33.85 8.90472
      vertex 21.2944 38.0872 9.05954
      vertex 21.2509 38.0939 9.00688
    endloop
  endfacet
  facet normal 0 -1 0
    outer loop
      vertex 21.1663 33.85 8.90472
      vertex 22.4056 33.85 7.74099
      vertex 22.6698 33.85 8.06031
    endloop
  endfacet
  facet normal 0 -1 0
    outer loop
      vertex 21.1663 33.85 8.90472
      vertex 22.6698 33.85 8.06031
      vertex 21.2944 33.85 9.05954
    endloop
  endfacet
  facet normal -2.34433e-05 0.968671 -0.248348
    outer loop
      vertex 21.1663 38.1201 11.0953
      vertex 30 38.2594 11.6378
      vertex 21.2509 38.0939 10.9931
    endloop
  endfacet
  facet normal -1.74926e-05 0.968649 0.248435
    outer loop
      vertex 21.1663 38.1201 8.90472
      vertex 21.2509 38.0939 9.00688
      vertex 30 38.2594 8.36221
    endloop
  endfacet
  facet normal 0 0.991985 -0.126356
    outer loop
      vertex 21.2509 38.0939 10.9931
      vertex 30 38.0939 10.9931
      vertex 21.2944 38.0872 10.9405
    endloop
  endfacet
  facet normal 0 0.968594 -0.248646
    outer loop
      vertex 21.2509 38.0939 10.9931
      vertex 30 38.2594 11.6378
      vertex 30 38.0939 10.9931
    endloop
  endfacet
  facet normal 0 0.992003 0.126214
    outer loop
      vertex 21.2509 38.0939 9.00688
      vertex 21.2944 38.0872 9.05954
      vertex 30 38.0939 9.00688
    endloop
  endfacet
  facet normal 0 0.968592 0.248657
    outer loop
      vertex 21.2509 38.0939 9.00688
      vertex 30 38.0939 9.00688
      vertex 30 38.2594 8.36221
    endloop
  endfacet
  facet normal -0.844316 0 -0.535845
    outer loop
      vertex 21.2944 33.85 10.9405
      vertex 21.2944 38.0872 10.9405
      vertex 21.4021 38.0658 10.7708
    endloop
  endfacet
  facet normal 0 -1 0
    outer loop
      vertex 21.2944 33.85 10.9405
      vertex 21.4021 33.85 10.7708
      vertex 22.8918 33.85 11.5898
    endloop
  endfacet
  facet normal -0.844316 0 -0.535845
    outer loop
      vertex 21.2944 33.85 10.9405
      vertex 21.4021 38.0658 10.7708
      vertex 21.4021 33.85 10.7708
    endloop
  endfacet
  facet normal 0 -1 -0
    outer loop
      vertex 21.2944 33.85 10.9405
      vertex 22.8918 33.85 11.5898
      vertex 22.6698 33.85 11.9397
    endloop
  endfacet
  facet normal -0.844245 0 0.535957
    outer loop
      vertex 21.2944 33.85 9.05954
      vertex 21.4021 33.85 9.22919
      vertex 21.4021 38.0658 9.22919
    endloop
  endfacet
  facet normal -0.844245 0 0.535957
    outer loop
      vertex 21.2944 33.85 9.05954
      vertex 21.4021 38.0658 9.22919
      vertex 21.2944 38.0872 9.05954
    endloop
  endfacet
  facet normal 0 -1 0
    outer loop
      vertex 21.2944 33.85 9.05954
      vertex 22.6698 33.85 8.06031
      vertex 22.8918 33.85 8.41021
    endloop
  endfacet
  facet normal 0 -1 0
    outer loop
      vertex 21.2944 33.85 9.05954
      vertex 22.8918 33.85 8.41021
      vertex 21.4021 33.85 9.22919
    endloop
  endfacet
  facet normal -7.59324e-06 0.992142 -0.125119
    outer loop
      vertex 21.2944 38.0872 10.9405
      vertex 30 38.0939 10.9931
      vertex 21.4021 38.0658 10.7708
    endloop
  endfacet
  facet normal -6.51197e-06 0.992137 0.125154
    outer loop
      vertex 21.2944 38.0872 9.05954
      vertex 21.4021 38.0658 9.22919
      vertex 30 38.0939 9.00688
    endloop
  endfacet
  facet normal -0.90492 0 -0.425581
    outer loop
      vertex 21.4021 33.85 10.7708
      vertex 21.4021 38.0658 10.7708
      vertex 21.4876 38.0428 10.589
    endloop
  endfacet
  facet normal 0 -1 0
    outer loop
      vertex 21.4021 33.85 10.7708
      vertex 21.4876 33.85 10.589
      vertex 23.0683 33.85 11.2148
    endloop
  endfacet
  facet normal -0.90492 0 -0.425581
    outer loop
      vertex 21.4021 33.85 10.7708
      vertex 21.4876 38.0428 10.589
      vertex 21.4876 33.85 10.589
    endloop
  endfacet
  facet normal 0 -1 -0
    outer loop
      vertex 21.4021 33.85 10.7708
      vertex 23.0683 33.85 11.2148
      vertex 22.8918 33.85 11.5898
    endloop
  endfacet
  facet normal -0.904929 0 0.425562
    outer loop
      vertex 21.4021 33.85 9.22919
      vertex 21.4876 33.85 9.411
      vertex 21.4876 38.0428 9.411
    endloop
  endfacet
  facet normal -0.904929 0 0.425562
    outer loop
      vertex 21.4021 33.85 9.22919
      vertex 21.4876 38.0428 9.411
      vertex 21.4021 38.0658 9.22919
    endloop
  endfacet
  facet normal 0 -1 0
    outer loop
      vertex 21.4021 33.85 9.22919
      vertex 22.8918 33.85 8.41021
      vertex 23.0683 33.85 8.78519
    endloop
  endfacet
  facet normal 0 -1 0
    outer loop
      vertex 21.4021 33.85 9.22919
      vertex 23.0683 33.85 8.78519
      vertex 21.4876 33.85 9.411
    endloop
  endfacet
  facet normal 2.70895e-06 0.992092 -0.125511
    outer loop
      vertex 21.4021 38.0658 10.7708
      vertex 30 38.0939 10.9931
      vertex 21.4876 38.0428 10.589
    endloop
  endfacet
  facet normal 2.67682e-06 0.992093 0.125504
    outer loop
      vertex 21.4021 38.0658 9.22919
      vertex 21.4876 38.0428 9.411
      vertex 30 38.0939 9.00688
    endloop
  endfacet
  facet normal -0.481724 0 -0.876323
    outer loop
      vertex 21.4051 30.85 12.9859
      vertex 21.4051 33.85 12.9859
      vertex 21.7682 33.85 12.7863
    endloop
  endfacet
  facet normal 0 -1 0
    outer loop
      vertex 21.4051 30.85 12.9859
      vertex 21.7682 30.85 12.7863
      vertex 30 30.85 20
    endloop
  endfacet
  facet normal -0.481724 0 -0.876323
    outer loop
      vertex 21.4051 30.85 12.9859
      vertex 21.7682 33.85 12.7863
      vertex 21.7682 30.85 12.7863
    endloop
  endfacet
  facet normal -0.481817 0 0.876272
    outer loop
      vertex 21.4051 30.85 7.01407
      vertex 21.7682 30.85 7.21372
      vertex 21.4051 33.85 7.01407
    endloop
  endfacet
  facet normal 0 -1 0
    outer loop
      vertex 21.4051 30.85 7.01407
      vertex 30 30.85 0
      vertex 21.7682 30.85 7.21372
    endloop
  endfacet
  facet normal -0.481817 0 0.876272
    outer loop
      vertex 21.4051 33.85 7.01407
      vertex 21.7682 30.85 7.21372
      vertex 21.7682 33.85 7.21372
    endloop
  endfacet
  facet normal -0.951045 0 -0.309052
    outer loop
      vertex 21.4876 33.85 10.589
      vertex 21.4876 38.0428 10.589
      vertex 21.5497 38.0187 10.3979
    endloop
  endfacet
  facet normal 0 -1 0
    outer loop
      vertex 21.4876 33.85 10.589
      vertex 21.5497 33.85 10.3979
      vertex 23.1963 33.85 10.8207
    endloop
  endfacet
  facet normal -0.951045 0 -0.309052
    outer loop
      vertex 21.4876 33.85 10.589
      vertex 21.5497 38.0187 10.3979
      vertex 21.5497 33.85 10.3979
    endloop
  endfacet
  facet normal 0 -1 -0
    outer loop
      vertex 21.4876 33.85 10.589
      vertex 23.1963 33.85 10.8207
      vertex 23.0683 33.85 11.2148
    endloop
  endfacet
  facet normal -0.951045 0 0.309052
    outer loop
      vertex 21.4876 33.85 9.411
      vertex 21.5497 33.85 9.6021
      vertex 21.5497 38.0187 9.6021
    endloop
  endfacet
  facet normal -0.951045 0 0.309052
    outer loop
      vertex 21.4876 33.85 9.411
      vertex 21.5497 38.0187 9.6021
      vertex 21.4876 38.0428 9.411
    endloop
  endfacet
  facet normal 0 -1 0
    outer loop
      vertex 21.4876 33.85 9.411
      vertex 23.0683 33.85 8.78519
      vertex 23.1963 33.85 9.17932
    endloop
  endfacet
  facet normal 0 -1 0
    outer loop
      vertex 21.4876 33.85 9.411
      vertex 23.1963 33.85 9.17932
      vertex 21.5497 33.85 9.6021
    endloop
  endfacet
  facet normal -1.58568e-05 0.992141 -0.125126
    outer loop
      vertex 21.4876 38.0428 10.589
      vertex 30 38.0939 10.9931
      vertex 21.5497 38.0187 10.3979
    endloop
  endfacet
  facet normal -1.55673e-05 0.992141 0.125126
    outer loop
      vertex 21.4876 38.0428 9.411
      vertex 21.5497 38.0187 9.6021
      vertex 30 38.0939 9.00688
    endloop
  endfacet
  facet normal -0.98206 0 -0.188568
    outer loop
      vertex 21.5497 33.85 10.3979
      vertex 21.5497 38.0187 10.3979
      vertex 21.5622 38.0105 10.3328
    endloop
  endfacet
  facet normal -0.982247 1.5823e-05 -0.187592
    outer loop
      vertex 21.5497 33.85 10.3979
      vertex 21.5622 38.0105 10.3328
      vertex 21.5874 33.85 10.2005
    endloop
  endfacet
  facet normal 0 -1 0
    outer loop
      vertex 21.5497 33.85 10.3979
      vertex 21.5874 33.85 10.2005
      vertex 23.274 33.85 10.4136
    endloop
  endfacet
  facet normal 0 -1 -0
    outer loop
      vertex 21.5497 33.85 10.3979
      vertex 23.274 33.85 10.4136
      vertex 23.1963 33.85 10.8207
    endloop
  endfacet
  facet normal -0.982066 0 0.18854
    outer loop
      vertex 21.5497 33.85 9.6021
      vertex 21.5622 38.0105 9.66721
      vertex 21.5497 38.0187 9.6021
    endloop
  endfacet
  facet normal -0.982242 1.49258e-05 0.18762
    outer loop
      vertex 21.5497 33.85 9.6021
      vertex 21.5874 33.85 9.79947
      vertex 21.5622 38.0105 9.66721
    endloop
  endfacet
  facet normal 0 -1 0
    outer loop
      vertex 21.5497 33.85 9.6021
      vertex 23.1963 33.85 9.17932
      vertex 23.274 33.85 9.5864
    endloop
  endfacet
  facet normal 0 -1 0
    outer loop
      vertex 21.5497 33.85 9.6021
      vertex 23.274 33.85 9.5864
      vertex 21.5874 33.85 9.79947
    endloop
  endfacet
  facet normal -2.64787e-05 0.99216 -0.124978
    outer loop
      vertex 21.5497 38.0187 10.3979
      vertex 30 38.0939 10.9931
      vertex 21.5622 38.0105 10.3328
    endloop
  endfacet
  facet normal -2.75209e-05 0.992162 0.124959
    outer loop
      vertex 21.5497 38.0187 9.6021
      vertex 21.5622 38.0105 9.66721
      vertex 30 38.0939 9.00688
    endloop
  endfacet
  facet normal -0.982339 -0 -0.187112
    outer loop
      vertex 21.5622 38.0105 10.3328
      vertex 21.5874 38.0105 10.2005
      vertex 21.5874 33.85 10.2005
    endloop
  endfacet
  facet normal 0 1 0
    outer loop
      vertex 21.5622 38.0105 10.3328
      vertex 30 38.0105 10.3328
      vertex 21.5874 38.0105 10.2005
    endloop
  endfacet
  facet normal 0 0.992118 -0.125311
    outer loop
      vertex 21.5622 38.0105 10.3328
      vertex 30 38.0939 10.9931
      vertex 30 38.0105 10.3328
    endloop
  endfacet
  facet normal -0.982328 0 0.187167
    outer loop
      vertex 21.5622 38.0105 9.66721
      vertex 21.5874 33.85 9.79947
      vertex 21.5874 38.0105 9.79947
    endloop
  endfacet
  facet normal 0 1 0
    outer loop
      vertex 21.5622 38.0105 9.66721
      vertex 21.5874 38.0105 9.79947
      vertex 30 38.0105 9.66721
    endloop
  endfacet
  facet normal 0 0.992118 0.125305
    outer loop
      vertex 21.5622 38.0105 9.66721
      vertex 30 38.0105 9.66721
      vertex 30 38.0939 9.00688
    endloop
  endfacet
  facet normal -0.998031 -0 -0.0627192
    outer loop
      vertex 21.5874 33.85 10.2005
      vertex 21.5874 38.0105 10.2005
      vertex 21.6 33.85 10
    endloop
  endfacet
  facet normal 0 -1 0
    outer loop
      vertex 21.5874 33.85 10.2005
      vertex 21.6 33.85 10
      vertex 23.274 33.85 10.4136
    endloop
  endfacet
  facet normal -0.998032 0 0.0627098
    outer loop
      vertex 21.5874 33.85 9.79947
      vertex 21.6 33.85 10
      vertex 21.6 38.0105 10
    endloop
  endfacet
  facet normal -0.998032 0 0.0627098
    outer loop
      vertex 21.5874 33.85 9.79947
      vertex 21.6 38.0105 10
      vertex 21.5874 38.0105 9.79947
    endloop
  endfacet
  facet normal 0 -1 0
    outer loop
      vertex 21.5874 33.85 9.79947
      vertex 23.274 33.85 9.5864
      vertex 23.3 33.85 10
    endloop
  endfacet
  facet normal 0 -1 0
    outer loop
      vertex 21.5874 33.85 9.79947
      vertex 23.3 33.85 10
      vertex 21.6 33.85 10
    endloop
  endfacet
  facet normal -0.998031 0 -0.0627192
    outer loop
      vertex 21.5874 38.0105 10.2005
      vertex 21.6 38.0105 10
      vertex 21.6 33.85 10
    endloop
  endfacet
  facet normal 0 1 0
    outer loop
      vertex 21.5874 38.0105 10.2005
      vertex 30 38.0105 10.3328
      vertex 21.6 38.0105 10
    endloop
  endfacet
  facet normal 0 1 0
    outer loop
      vertex 21.5874 38.0105 9.79947
      vertex 21.6 38.0105 10
      vertex 30 38.0105 9.66721
    endloop
  endfacet
  facet normal 0 -1 0
    outer loop
      vertex 21.6 33.85 10
      vertex 23.3 33.85 10
      vertex 23.274 33.85 10.4136
    endloop
  endfacet
  facet normal 0 1 -0
    outer loop
      vertex 21.6 38.0105 10
      vertex 30 38.0105 10.3328
      vertex 30 38.0105 9.66721
    endloop
  endfacet
  facet normal -0.58777 0 -0.809028
    outer loop
      vertex 21.7682 30.85 12.7863
      vertex 21.7682 33.85 12.7863
      vertex 22.1035 33.85 12.5427
    endloop
  endfacet
  facet normal 0 -1 0
    outer loop
      vertex 21.7682 30.85 12.7863
      vertex 22.1035 30.85 12.5427
      vertex 30 30.85 20
    endloop
  endfacet
  facet normal -0.58777 0 -0.809028
    outer loop
      vertex 21.7682 30.85 12.7863
      vertex 22.1035 33.85 12.5427
      vertex 22.1035 30.85 12.5427
    endloop
  endfacet
  facet normal -0.587754 0 0.80904
    outer loop
      vertex 21.7682 30.85 7.21372
      vertex 22.1035 30.85 7.45731
      vertex 21.7682 33.85 7.21372
    endloop
  endfacet
  facet normal 0 -1 0
    outer loop
      vertex 21.7682 30.85 7.21372
      vertex 30 30.85 0
      vertex 22.1035 30.85 7.45731
    endloop
  endfacet
  facet normal -0.587754 0 0.80904
    outer loop
      vertex 21.7682 33.85 7.21372
      vertex 22.1035 30.85 7.45731
      vertex 22.1035 33.85 7.45731
    endloop
  endfacet
  facet normal -0.684559 0 -0.728958
    outer loop
      vertex 22.1035 30.85 12.5427
      vertex 22.1035 33.85 12.5427
      vertex 22.4056 33.85 12.259
    endloop
  endfacet
  facet normal 0 -1 0
    outer loop
      vertex 22.1035 30.85 12.5427
      vertex 22.4056 30.85 12.259
      vertex 30 30.85 20
    endloop
  endfacet
  facet normal -0.684559 0 -0.728958
    outer loop
      vertex 22.1035 30.85 12.5427
      vertex 22.4056 33.85 12.259
      vertex 22.4056 30.85 12.259
    endloop
  endfacet
  facet normal -0.684533 0 0.728982
    outer loop
      vertex 22.1035 30.85 7.45731
      vertex 22.4056 30.85 7.74099
      vertex 22.1035 33.85 7.45731
    endloop
  endfacet
  facet normal 0 -1 0
    outer loop
      vertex 22.1035 30.85 7.45731
      vertex 30 30.85 0
      vertex 22.4056 30.85 7.74099
    endloop
  endfacet
  facet normal -0.684533 0 0.728982
    outer loop
      vertex 22.1035 33.85 7.45731
      vertex 22.4056 30.85 7.74099
      vertex 22.4056 33.85 7.74099
    endloop
  endfacet
  facet normal -0.770452 -0 -0.637499
    outer loop
      vertex 22.4056 30.85 12.259
      vertex 22.4056 33.85 12.259
      vertex 22.6698 30.85 11.9397
    endloop
  endfacet
  facet normal 0 -1 0
    outer loop
      vertex 22.4056 30.85 12.259
      vertex 22.6698 30.85 11.9397
      vertex 30 30.85 20
    endloop
  endfacet
  facet normal -0.770471 0 0.637475
    outer loop
      vertex 22.4056 30.85 7.74099
      vertex 22.6698 30.85 8.06031
      vertex 22.6698 33.85 8.06031
    endloop
  endfacet
  facet normal -0.770471 0 0.637475
    outer loop
      vertex 22.4056 30.85 7.74099
      vertex 22.6698 33.85 8.06031
      vertex 22.4056 33.85 7.74099
    endloop
  endfacet
  facet normal 0 -1 0
    outer loop
      vertex 22.4056 30.85 7.74099
      vertex 30 30.85 0
      vertex 22.6698 30.85 8.06031
    endloop
  endfacet
  facet normal -0.770452 0 -0.637499
    outer loop
      vertex 22.4056 33.85 12.259
      vertex 22.6698 33.85 11.9397
      vertex 22.6698 30.85 11.9397
    endloop
  endfacet
  facet normal -0.844386 -0 -0.535735
    outer loop
      vertex 22.6698 30.85 11.9397
      vertex 22.6698 33.85 11.9397
      vertex 22.8918 30.85 11.5898
    endloop
  endfacet
  facet normal 0 -1 0
    outer loop
      vertex 22.6698 30.85 11.9397
      vertex 22.8918 30.85 11.5898
      vertex 30 30.85 20
    endloop
  endfacet
  facet normal -0.844386 0 0.535735
    outer loop
      vertex 22.6698 30.85 8.06031
      vertex 22.8918 30.85 8.41021
      vertex 22.8918 33.85 8.41021
    endloop
  endfacet
  facet normal -0.844386 0 0.535735
    outer loop
      vertex 22.6698 30.85 8.06031
      vertex 22.8918 33.85 8.41021
      vertex 22.6698 33.85 8.06031
    endloop
  endfacet
  facet normal 0 -1 0
    outer loop
      vertex 22.6698 30.85 8.06031
      vertex 30 30.85 0
      vertex 22.8918 30.85 8.41021
    endloop
  endfacet
  facet normal -0.844386 0 -0.535735
    outer loop
      vertex 22.6698 33.85 11.9397
      vertex 22.8918 33.85 11.5898
      vertex 22.8918 30.85 11.5898
    endloop
  endfacet
  facet normal -0.904791 -0 -0.425855
    outer loop
      vertex 22.8918 30.85 11.5898
      vertex 22.8918 33.85 11.5898
      vertex 23.0683 30.85 11.2148
    endloop
  endfacet
  facet normal 0 -1 0
    outer loop
      vertex 22.8918 30.85 11.5898
      vertex 23.0683 30.85 11.2148
      vertex 30 30.85 20
    endloop
  endfacet
  facet normal -0.904783 0 0.425874
    outer loop
      vertex 22.8918 30.85 8.41021
      vertex 23.0683 30.85 8.78519
      vertex 23.0683 33.85 8.78519
    endloop
  endfacet
  facet normal -0.904783 0 0.425874
    outer loop
      vertex 22.8918 30.85 8.41021
      vertex 23.0683 33.85 8.78519
      vertex 22.8918 33.85 8.41021
    endloop
  endfacet
  facet normal 0 -1 0
    outer loop
      vertex 22.8918 30.85 8.41021
      vertex 30 30.85 0
      vertex 23.0683 30.85 8.78519
    endloop
  endfacet
  facet normal -0.904791 0 -0.425855
    outer loop
      vertex 22.8918 33.85 11.5898
      vertex 23.0683 33.85 11.2148
      vertex 23.0683 30.85 11.2148
    endloop
  endfacet
  facet normal -0.951093 -0 -0.308906
    outer loop
      vertex 23.0683 30.85 11.2148
      vertex 23.0683 33.85 11.2148
      vertex 23.1963 30.85 10.8207
    endloop
  endfacet
  facet normal 0 -1 0
    outer loop
      vertex 23.0683 30.85 11.2148
      vertex 23.1963 30.85 10.8207
      vertex 30 30.85 20
    endloop
  endfacet
  facet normal -0.951099 0 0.308885
    outer loop
      vertex 23.0683 30.85 8.78519
      vertex 23.1963 30.85 9.17932
      vertex 23.1963 33.85 9.17932
    endloop
  endfacet
  facet normal -0.951099 0 0.308885
    outer loop
      vertex 23.0683 30.85 8.78519
      vertex 23.1963 33.85 9.17932
      vertex 23.0683 33.85 8.78519
    endloop
  endfacet
  facet normal 0 -1 0
    outer loop
      vertex 23.0683 30.85 8.78519
      vertex 30 30.85 0
      vertex 23.1963 30.85 9.17932
    endloop
  endfacet
  facet normal -0.951093 0 -0.308906
    outer loop
      vertex 23.0683 33.85 11.2148
      vertex 23.1963 33.85 10.8207
      vertex 23.1963 30.85 10.8207
    endloop
  endfacet
  facet normal -0.982269 -0 -0.187478
    outer loop
      vertex 23.1963 30.85 10.8207
      vertex 23.1963 33.85 10.8207
      vertex 23.274 30.85 10.4136
    endloop
  endfacet
  facet normal 0 -1 0
    outer loop
      vertex 23.1963 30.85 10.8207
      vertex 23.274 30.85 10.4136
      vertex 30 30.85 20
    endloop
  endfacet
  facet normal -0.982267 0 0.187487
    outer loop
      vertex 23.1963 30.85 9.17932
      vertex 23.274 30.85 9.5864
      vertex 23.274 33.85 9.5864
    endloop
  endfacet
  facet normal -0.982267 0 0.187487
    outer loop
      vertex 23.1963 30.85 9.17932
      vertex 23.274 33.85 9.5864
      vertex 23.1963 33.85 9.17932
    endloop
  endfacet
  facet normal 0 -1 0
    outer loop
      vertex 23.1963 30.85 9.17932
      vertex 30 30.85 0
      vertex 23.274 30.85 9.5864
    endloop
  endfacet
  facet normal -0.982269 0 -0.187478
    outer loop
      vertex 23.1963 33.85 10.8207
      vertex 23.274 33.85 10.4136
      vertex 23.274 30.85 10.4136
    endloop
  endfacet
  facet normal -0.99803 -0 -0.0627388
    outer loop
      vertex 23.274 30.85 10.4136
      vertex 23.274 33.85 10.4136
      vertex 23.3 30.85 10
    endloop
  endfacet
  facet normal 0 -1 0
    outer loop
      vertex 23.274 30.85 10.4136
      vertex 23.3 30.85 10
      vertex 30 30.85 20
    endloop
  endfacet
  facet normal -0.99803 0 0.0627388
    outer loop
      vertex 23.274 30.85 9.5864
      vertex 23.3 30.85 10
      vertex 23.3 33.85 10
    endloop
  endfacet
  facet normal -0.99803 0 0.0627388
    outer loop
      vertex 23.274 30.85 9.5864
      vertex 23.3 33.85 10
      vertex 23.274 33.85 9.5864
    endloop
  endfacet
  facet normal 0 -1 0
    outer loop
      vertex 23.274 30.85 9.5864
      vertex 30 30.85 0
      vertex 23.3 30.85 10
    endloop
  endfacet
  facet normal -0.99803 0 -0.0627388
    outer loop
      vertex 23.274 33.85 10.4136
      vertex 23.3 33.85 10
      vertex 23.3 30.85 10
    endloop
  endfacet
  facet normal 0 -1 0
    outer loop
      vertex 23.3 30.85 10
      vertex 30 30.85 0
      vertex 30 30.85 20
    endloop
  endfacet
  facet normal 1 0 0
    outer loop
      vertex 30 30.85 0
      vertex 30 38.0105 9.66721
      vertex 30 30.85 20
    endloop
  endfacet
  facet normal 1 0 0
    outer loop
      vertex 30 30.85 0
      vertex 30 38.0939 9.00688
      vertex 30 38.0105 9.66721
    endloop
  endfacet
  facet normal 1 0 0
    outer loop
      vertex 30 30.85 0
      vertex 30 38.2594 8.36221
      vertex 30 38.0939 9.00688
    endloop
  endfacet
  facet normal 1 0 0
    outer loop
      vertex 30 30.85 0
      vertex 30 38.5044 7.74337
      vertex 30 38.2594 8.36221
    endloop
  endfacet
  facet normal 1 0 0
    outer loop
      vertex 30 30.85 0
      vertex 30 38.8251 7.16012
      vertex 30 38.5044 7.74337
    endloop
  endfacet
  facet normal 1 0 0
    outer loop
      vertex 30 30.85 0
      vertex 30 39.2163 6.62165
      vertex 30 38.8251 7.16012
    endloop
  endfacet
  facet normal 1 0 0
    outer loop
      vertex 30 30.85 0
      vertex 30 39.6719 6.13647
      vertex 30 39.2163 6.62165
    endloop
  endfacet
  facet normal 1 0 0
    outer loop
      vertex 30 30.85 0
      vertex 30 40.1847 5.71221
      vertex 30 39.6719 6.13647
    endloop
  endfacet
  facet normal 1 0 0
    outer loop
      vertex 30 30.85 0
      vertex 30 43.3 0
      vertex 30 40.1847 5.71221
    endloop
  endfacet
  facet normal 1 0 0
    outer loop
      vertex 30 30.85 20
      vertex 30 38.0105 10.3328
      vertex 30 38.0939 10.9931
    endloop
  endfacet
  facet normal 1 0 0
    outer loop
      vertex 30 30.85 20
      vertex 30 38.0105 9.66721
      vertex 30 38.0105 10.3328
    endloop
  endfacet
  facet normal 1 0 0
    outer loop
      vertex 30 30.85 20
      vertex 30 38.0939 10.9931
      vertex 30 38.2594 11.6378
    endloop
  endfacet
  facet normal 1 0 0
    outer loop
      vertex 30 30.85 20
      vertex 30 38.2594 11.6378
      vertex 30 38.5044 12.2566
    endloop
  endfacet
  facet normal 1 0 0
    outer loop
      vertex 30 30.85 20
      vertex 30 38.5044 12.2566
      vertex 30 38.8251 12.8399
    endloop
  endfacet
  facet normal 1 0 0
    outer loop
      vertex 30 30.85 20
      vertex 30 38.8251 12.8399
      vertex 30 39.2163 13.3783
    endloop
  endfacet
  facet normal 1 0 0
    outer loop
      vertex 30 30.85 20
      vertex 30 39.2163 13.3783
      vertex 30 39.6719 13.8635
    endloop
  endfacet
  facet normal 1 0 0
    outer loop
      vertex 30 30.85 20
      vertex 30 39.6719 13.8635
      vertex 30 40.1847 14.2878
    endloop
  endfacet
  facet normal 1 -0 0
    outer loop
      vertex 30 30.85 20
      vertex 30 40.1847 14.2878
      vertex 30 43.3 20
    endloop
  endfacet
  facet normal 1 0 0
    outer loop
      vertex 30 40.1847 14.2878
      vertex 30 40.7467 14.6444
      vertex 30 43.3 20
    endloop
  endfacet
  facet normal 1 0 0
    outer loop
      vertex 30 40.1847 5.71221
      vertex 30 43.3 0
      vertex 30 40.7467 5.35557
    endloop
  endfacet
  facet normal 1 0 0
    outer loop
      vertex 30 40.7467 14.6444
      vertex 30 41.3489 14.9278
      vertex 30 43.3 20
    endloop
  endfacet
  facet normal 1 0 0
    outer loop
      vertex 30 40.7467 5.35557
      vertex 30 43.3 0
      vertex 30 41.3489 5.07218
    endloop
  endfacet
  facet normal 1 0 0
    outer loop
      vertex 30 41.3489 14.9278
      vertex 30 41.9819 15.1335
      vertex 30 43.3 20
    endloop
  endfacet
  facet normal 1 0 0
    outer loop
      vertex 30 41.3489 5.07218
      vertex 30 43.3 0
      vertex 30 41.9819 4.86651
    endloop
  endfacet
  facet normal 1 0 0
    outer loop
      vertex 30 41.9819 15.1335
      vertex 30 42.6357 15.2582
      vertex 30 43.3 20
    endloop
  endfacet
  facet normal 1 0 0
    outer loop
      vertex 30 41.9819 4.86651
      vertex 30 43.3 0
      vertex 30 42.6357 4.74179
    endloop
  endfacet
  facet normal 1 0 0
    outer loop
      vertex 30 42.6357 15.2582
      vertex 30 43.3 15.3
      vertex 30 43.3 20
    endloop
  endfacet
  facet normal 1 0 0
    outer loop
      vertex 30 42.6357 4.74179
      vertex 30 43.3 0
      vertex 30 43.3 4.7
    endloop
  endfacet
endsolid model
