solid model
  facet normal 0 1 0
    outer loop
      vertex -0.266859 -4.24161 0
      vertex -0.266859 -4.24161 4.2
      vertex 0.266859 -4.24161 0
    endloop
  endfacet
  facet normal 0 0 -1
    outer loop
      vertex -0.266859 -4.24161 0
      vertex 0.266859 -4.24161 0
      vertex 0.475637 -7.56005 0
    endloop
  endfacet
  facet normal 0 1 -0
    outer loop
      vertex -0.266859 -4.24161 4.2
      vertex 0.266859 -4.24161 4.2
      vertex 0.266859 -4.24161 0
    endloop
  endfacet
  facet normal -0 0 1
    outer loop
      vertex -0.266859 -4.24161 4.2
      vertex 0.381452 -6.06301 4.2
      vertex 0.266859 -4.24161 4.2
    endloop
  endfacet
  facet normal 0 -1 -0
    outer loop
      vertex -0.266859 4.24161 0
      vertex 0.266859 4.24161 0
      vertex 0.266859 4.24161 4.2
    endloop
  endfacet
  facet normal 0 -1 0
    outer loop
      vertex -0.266859 4.24161 0
      vertex 0.266859 4.24161 4.2
      vertex -0.266859 4.24161 4.2
    endloop
  endfacet
  facet normal 0 0 -1
    outer loop
      vertex -0.266859 4.24161 0
      vertex 0.475637 7.56005 0
      vertex 0.266859 4.24161 0
    endloop
  endfacet
  facet normal 0 0 1
    outer loop
      vertex -0.266859 4.24161 4.2
      vertex 0.266859 4.24161 4.2
      vertex 0.381452 6.06301 4.2
    endloop
  endfacet
  facet normal 0 -1 -0
    outer loop
      vertex -0.381452 -6.06301 1.2
      vertex 0.381452 -6.06301 1.2
      vertex 0.381452 -6.06301 4.2
    endloop
  endfacet
  facet normal 0 -1 0
    outer loop
      vertex -0.381452 -6.06301 1.2
      vertex 0.381452 -6.06301 4.2
      vertex -0.381452 -6.06301 4.2
    endloop
  endfacet
  facet normal -0 0 1
    outer loop
      vertex -0.381452 -6.06301 1.2
      vertex 0.475637 -7.56005 1.2
      vertex 0.381452 -6.06301 1.2
    endloop
  endfacet
  facet normal 0 0 1
    outer loop
      vertex -0.381452 -6.06301 4.2
      vertex 0.381452 -6.06301 4.2
      vertex -0.266859 -4.24161 4.2
    endloop
  endfacet
  facet normal 0 1 0
    outer loop
      vertex -0.381452 6.06301 1.2
      vertex -0.381452 6.06301 4.2
      vertex 0.381452 6.06301 1.2
    endloop
  endfacet
  facet normal 0 0 1
    outer loop
      vertex -0.381452 6.06301 1.2
      vertex 0.381452 6.06301 1.2
      vertex 0.475637 7.56005 1.2
    endloop
  endfacet
  facet normal -0 0 1
    outer loop
      vertex -0.381452 6.06301 4.2
      vertex -0.266859 4.24161 4.2
      vertex 0.381452 6.06301 4.2
    endloop
  endfacet
  facet normal 0 1 -0
    outer loop
      vertex -0.381452 6.06301 4.2
      vertex 0.381452 6.06301 4.2
      vertex 0.381452 6.06301 1.2
    endloop
  endfacet
  facet normal 0 0 -1
    outer loop
      vertex -0.475637 -7.56005 0
      vertex -0.266859 -4.24161 0
      vertex 0.475637 -7.56005 0
    endloop
  endfacet
  facet normal 0 -1 -0
    outer loop
      vertex -0.475637 -7.56005 0
      vertex 0.475637 -7.56005 0
      vertex 0.475637 -7.56005 1.2
    endloop
  endfacet
  facet normal 0 -1 0
    outer loop
      vertex -0.475637 -7.56005 0
      vertex 0.475637 -7.56005 1.2
      vertex -0.475637 -7.56005 1.2
    endloop
  endfacet
  facet normal 0 0 1
    outer loop
      vertex -0.475637 -7.56005 1.2
      vertex 0.475637 -7.56005 1.2
      vertex -0.381452 -6.06301 1.2
    endloop
  endfacet
  facet normal 0 1 0
    outer loop
      vertex -0.475637 7.56005 0
      vertex -0.475637 7.56005 1.2
      vertex 0.475637 7.56005 0
    endloop
  endfacet
  facet normal 0 0 -1
    outer loop
      vertex -0.475637 7.56005 0
      vertex 0.475637 7.56005 0
      vertex -0.266859 4.24161 0
    endloop
  endfacet
  facet normal -0 0 1
    outer loop
      vertex -0.475637 7.56005 1.2
      vertex -0.381452 6.06301 1.2
      vertex 0.475637 7.56005 1.2
    endloop
  endfacet
  facet normal 0 1 -0
    outer loop
      vertex -0.475637 7.56005 1.2
      vertex 0.475637 7.56005 1.2
      vertex 0.475637 7.56005 0
    endloop
  endfacet
  facet normal 0 0 -1
    outer loop
      vertex -0.796371 -4.17472 0
      vertex -0.266859 -4.24161 0
      vertex -0.475637 -7.56005 0
    endloop
  endfacet
  facet normal 0.125333 0.992115 0
    outer loop
      vertex -0.796371 -4.17472 0
      vertex -0.796371 -4.17472 4.2
      vertex -0.266859 -4.24161 0
    endloop
  endfacet
  facet normal 0.125333 0.992115 -0
    outer loop
      vertex -0.796371 -4.17472 4.2
      vertex -0.266859 -4.24161 4.2
      vertex -0.266859 -4.24161 0
    endloop
  endfacet
  facet normal 0 0 1
    outer loop
      vertex -0.796371 -4.17472 4.2
      vertex -0.381452 -6.06301 4.2
      vertex -0.266859 -4.24161 4.2
    endloop
  endfacet
  facet normal 0.125333 -0.992115 0
    outer loop
      vertex -0.796371 4.17472 0
      vertex -0.266859 4.24161 0
      vertex -0.266859 4.24161 4.2
    endloop
  endfacet
  facet normal 0.125333 -0.992115 0
    outer loop
      vertex -0.796371 4.17472 0
      vertex -0.266859 4.24161 4.2
      vertex -0.796371 4.17472 4.2
    endloop
  endfacet
  facet normal 0 0 -1
    outer loop
      vertex -0.796371 4.17472 0
      vertex -0.475637 7.56005 0
      vertex -0.266859 4.24161 0
    endloop
  endfacet
  facet normal 0 0 1
    outer loop
      vertex -0.796371 4.17472 4.2
      vertex -0.266859 4.24161 4.2
      vertex -0.381452 6.06301 4.2
    endloop
  endfacet
  facet normal -0.125333 -0.992115 -0
    outer loop
      vertex -1.13834 -5.96739 1.2
      vertex -0.381452 -6.06301 1.2
      vertex -0.381452 -6.06301 4.2
    endloop
  endfacet
  facet normal -0.125333 -0.992115 0
    outer loop
      vertex -1.13834 -5.96739 1.2
      vertex -0.381452 -6.06301 4.2
      vertex -1.13834 -5.96739 4.2
    endloop
  endfacet
  facet normal 0 0 1
    outer loop
      vertex -1.13834 -5.96739 1.2
      vertex -0.475637 -7.56005 1.2
      vertex -0.381452 -6.06301 1.2
    endloop
  endfacet
  facet normal 0 0 1
    outer loop
      vertex -1.13834 -5.96739 4.2
      vertex -0.381452 -6.06301 4.2
      vertex -0.796371 -4.17472 4.2
    endloop
  endfacet
  facet normal 0 0 1
    outer loop
      vertex -1.13834 5.96739 1.2
      vertex -0.381452 6.06301 1.2
      vertex -0.475637 7.56005 1.2
    endloop
  endfacet
  facet normal -0.125333 0.992115 0
    outer loop
      vertex -1.13834 5.96739 1.2
      vertex -1.13834 5.96739 4.2
      vertex -0.381452 6.06301 1.2
    endloop
  endfacet
  facet normal -0.125333 0.992115 0
    outer loop
      vertex -1.13834 5.96739 4.2
      vertex -0.381452 6.06301 4.2
      vertex -0.381452 6.06301 1.2
    endloop
  endfacet
  facet normal -0 0 1
    outer loop
      vertex -1.13834 5.96739 4.2
      vertex -0.796371 4.17472 4.2
      vertex -0.381452 6.06301 4.2
    endloop
  endfacet
  facet normal 0.248691 0.968583 0
    outer loop
      vertex -1.31332 -4.04199 0
      vertex -1.31332 -4.04199 4.2
      vertex -0.796371 -4.17472 0
    endloop
  endfacet
  facet normal 0.248691 0.968583 -0
    outer loop
      vertex -1.31332 -4.04199 4.2
      vertex -0.796371 -4.17472 4.2
      vertex -0.796371 -4.17472 0
    endloop
  endfacet
  facet normal 0 0 1
    outer loop
      vertex -1.31332 -4.04199 4.2
      vertex -1.13834 -5.96739 4.2
      vertex -0.796371 -4.17472 4.2
    endloop
  endfacet
  facet normal 0.248691 -0.968583 0
    outer loop
      vertex -1.31332 4.04199 0
      vertex -0.796371 4.17472 0
      vertex -0.796371 4.17472 4.2
    endloop
  endfacet
  facet normal 0.248691 -0.968583 0
    outer loop
      vertex -1.31332 4.04199 0
      vertex -0.796371 4.17472 4.2
      vertex -1.31332 4.04199 4.2
    endloop
  endfacet
  facet normal 0 0 1
    outer loop
      vertex -1.31332 4.04199 4.2
      vertex -0.796371 4.17472 4.2
      vertex -1.13834 5.96739 4.2
    endloop
  endfacet
  facet normal -0.125333 -0.992115 -0
    outer loop
      vertex -1.41941 -7.44083 0
      vertex -0.475637 -7.56005 0
      vertex -0.475637 -7.56005 1.2
    endloop
  endfacet
  facet normal -0.125333 -0.992115 0
    outer loop
      vertex -1.41941 -7.44083 0
      vertex -0.475637 -7.56005 1.2
      vertex -1.41941 -7.44083 1.2
    endloop
  endfacet
  facet normal 0 0 -1
    outer loop
      vertex -1.41941 -7.44083 0
      vertex -0.796371 -4.17472 0
      vertex -0.475637 -7.56005 0
    endloop
  endfacet
  facet normal -0 0 -1
    outer loop
      vertex -1.41941 -7.44083 0
      vertex -1.31332 -4.04199 0
      vertex -0.796371 -4.17472 0
    endloop
  endfacet
  facet normal 0 0 1
    outer loop
      vertex -1.41941 -7.44083 1.2
      vertex -0.475637 -7.56005 1.2
      vertex -1.13834 -5.96739 1.2
    endloop
  endfacet
  facet normal 0 0 -1
    outer loop
      vertex -1.41941 7.44083 0
      vertex -0.475637 7.56005 0
      vertex -0.796371 4.17472 0
    endloop
  endfacet
  facet normal 0 0 -1
    outer loop
      vertex -1.41941 7.44083 0
      vertex -0.796371 4.17472 0
      vertex -1.31332 4.04199 0
    endloop
  endfacet
  facet normal -0.125333 0.992115 0
    outer loop
      vertex -1.41941 7.44083 0
      vertex -1.41941 7.44083 1.2
      vertex -0.475637 7.56005 0
    endloop
  endfacet
  facet normal -0.125333 0.992115 0
    outer loop
      vertex -1.41941 7.44083 1.2
      vertex -0.475637 7.56005 1.2
      vertex -0.475637 7.56005 0
    endloop
  endfacet
  facet normal -0 0 1
    outer loop
      vertex -1.41941 7.44083 1.2
      vertex -1.13834 5.96739 1.2
      vertex -0.475637 7.56005 1.2
    endloop
  endfacet
  facet normal 0.368124 0.929777 0
    outer loop
      vertex -1.80956 -3.84551 0
      vertex -1.80956 -3.84551 4.2
      vertex -1.31332 -4.04199 0
    endloop
  endfacet
  facet normal 0.368124 0.929777 -0
    outer loop
      vertex -1.80956 -3.84551 4.2
      vertex -1.31332 -4.04199 4.2
      vertex -1.31332 -4.04199 0
    endloop
  endfacet
  facet normal 0.368124 -0.929777 0
    outer loop
      vertex -1.80956 3.84551 0
      vertex -1.31332 4.04199 0
      vertex -1.31332 4.04199 4.2
    endloop
  endfacet
  facet normal 0.368124 -0.929777 0
    outer loop
      vertex -1.80956 3.84551 0
      vertex -1.31332 4.04199 4.2
      vertex -1.80956 3.84551 4.2
    endloop
  endfacet
  facet normal -0.24869 -0.968583 -0
    outer loop
      vertex -1.87728 -5.77767 1.2
      vertex -1.13834 -5.96739 1.2
      vertex -1.13834 -5.96739 4.2
    endloop
  endfacet
  facet normal -0.24869 -0.968583 0
    outer loop
      vertex -1.87728 -5.77767 1.2
      vertex -1.13834 -5.96739 4.2
      vertex -1.87728 -5.77767 4.2
    endloop
  endfacet
  facet normal 0 0 1
    outer loop
      vertex -1.87728 -5.77767 1.2
      vertex -1.41941 -7.44083 1.2
      vertex -1.13834 -5.96739 1.2
    endloop
  endfacet
  facet normal 0 0 1
    outer loop
      vertex -1.87728 -5.77767 4.2
      vertex -1.13834 -5.96739 4.2
      vertex -1.31332 -4.04199 4.2
    endloop
  endfacet
  facet normal 0 0 1
    outer loop
      vertex -1.87728 -5.77767 4.2
      vertex -1.31332 -4.04199 4.2
      vertex -1.80956 -3.84551 4.2
    endloop
  endfacet
  facet normal 0 0 1
    outer loop
      vertex -1.87728 5.77767 1.2
      vertex -1.13834 5.96739 1.2
      vertex -1.41941 7.44083 1.2
    endloop
  endfacet
  facet normal -0.24869 0.968583 0
    outer loop
      vertex -1.87728 5.77767 1.2
      vertex -1.87728 5.77767 4.2
      vertex -1.13834 5.96739 1.2
    endloop
  endfacet
  facet normal -0.24869 0.968583 0
    outer loop
      vertex -1.87728 5.77767 4.2
      vertex -1.13834 5.96739 4.2
      vertex -1.13834 5.96739 1.2
    endloop
  endfacet
  facet normal -0 0 1
    outer loop
      vertex -1.87728 5.77767 4.2
      vertex -1.31332 4.04199 4.2
      vertex -1.13834 5.96739 4.2
    endloop
  endfacet
  facet normal 0 0 1
    outer loop
      vertex -1.87728 5.77767 4.2
      vertex -1.80956 3.84551 4.2
      vertex -1.31332 4.04199 4.2
    endloop
  endfacet
  facet normal 0.481753 0.876307 0
    outer loop
      vertex -2.27726 -3.58839 0
      vertex -2.27726 -3.58839 4.2
      vertex -1.80956 -3.84551 0
    endloop
  endfacet
  facet normal 0.481753 0.876307 -0
    outer loop
      vertex -2.27726 -3.58839 4.2
      vertex -1.80956 -3.84551 4.2
      vertex -1.80956 -3.84551 0
    endloop
  endfacet
  facet normal 0.481753 -0.876307 0
    outer loop
      vertex -2.27726 3.58839 0
      vertex -1.80956 3.84551 0
      vertex -1.80956 3.84551 4.2
    endloop
  endfacet
  facet normal 0.481753 -0.876307 0
    outer loop
      vertex -2.27726 3.58839 0
      vertex -1.80956 3.84551 4.2
      vertex -2.27726 3.58839 4.2
    endloop
  endfacet
  facet normal 0 0 -1
    outer loop
      vertex -2.3408 -7.20425 0
      vertex -1.31332 -4.04199 0
      vertex -1.41941 -7.44083 0
    endloop
  endfacet
  facet normal -0.24869 -0.968583 -0
    outer loop
      vertex -2.3408 -7.20425 0
      vertex -1.41941 -7.44083 0
      vertex -1.41941 -7.44083 1.2
    endloop
  endfacet
  facet normal -0.24869 -0.968583 0
    outer loop
      vertex -2.3408 -7.20425 0
      vertex -1.41941 -7.44083 1.2
      vertex -2.3408 -7.20425 1.2
    endloop
  endfacet
  facet normal -0 0 -1
    outer loop
      vertex -2.3408 -7.20425 0
      vertex -1.80956 -3.84551 0
      vertex -1.31332 -4.04199 0
    endloop
  endfacet
  facet normal 0 0 1
    outer loop
      vertex -2.3408 -7.20425 1.2
      vertex -1.41941 -7.44083 1.2
      vertex -1.87728 -5.77767 1.2
    endloop
  endfacet
  facet normal 0 0 -1
    outer loop
      vertex -2.3408 7.20425 0
      vertex -1.31332 4.04199 0
      vertex -1.80956 3.84551 0
    endloop
  endfacet
  facet normal 0 0 -1
    outer loop
      vertex -2.3408 7.20425 0
      vertex -1.41941 7.44083 0
      vertex -1.31332 4.04199 0
    endloop
  endfacet
  facet normal -0.24869 0.968583 0
    outer loop
      vertex -2.3408 7.20425 0
      vertex -2.3408 7.20425 1.2
      vertex -1.41941 7.44083 0
    endloop
  endfacet
  facet normal -0.24869 0.968583 0
    outer loop
      vertex -2.3408 7.20425 1.2
      vertex -1.41941 7.44083 1.2
      vertex -1.41941 7.44083 0
    endloop
  endfacet
  facet normal -0 0 1
    outer loop
      vertex -2.3408 7.20425 1.2
      vertex -1.87728 5.77767 1.2
      vertex -1.41941 7.44083 1.2
    endloop
  endfacet
  facet normal -0.368124 -0.929777 -0
    outer loop
      vertex -2.58661 -5.49682 1.2
      vertex -1.87728 -5.77767 1.2
      vertex -1.87728 -5.77767 4.2
    endloop
  endfacet
  facet normal -0.368124 -0.929777 0
    outer loop
      vertex -2.58661 -5.49682 1.2
      vertex -1.87728 -5.77767 4.2
      vertex -2.58661 -5.49682 4.2
    endloop
  endfacet
  facet normal 0 0 1
    outer loop
      vertex -2.58661 -5.49682 1.2
      vertex -2.3408 -7.20425 1.2
      vertex -1.87728 -5.77767 1.2
    endloop
  endfacet
  facet normal 0 0 1
    outer loop
      vertex -2.58661 -5.49682 4.2
      vertex -1.80956 -3.84551 4.2
      vertex -2.27726 -3.58839 4.2
    endloop
  endfacet
  facet normal 0 0 1
    outer loop
      vertex -2.58661 -5.49682 4.2
      vertex -1.87728 -5.77767 4.2
      vertex -1.80956 -3.84551 4.2
    endloop
  endfacet
  facet normal 0 0 1
    outer loop
      vertex -2.58661 5.49682 1.2
      vertex -1.87728 5.77767 1.2
      vertex -2.3408 7.20425 1.2
    endloop
  endfacet
  facet normal -0.368124 0.929777 0
    outer loop
      vertex -2.58661 5.49682 1.2
      vertex -2.58661 5.49682 4.2
      vertex -1.87728 5.77767 1.2
    endloop
  endfacet
  facet normal -0 0 1
    outer loop
      vertex -2.58661 5.49682 4.2
      vertex -1.80956 3.84551 4.2
      vertex -1.87728 5.77767 4.2
    endloop
  endfacet
  facet normal -0.368124 0.929777 0
    outer loop
      vertex -2.58661 5.49682 4.2
      vertex -1.87728 5.77767 4.2
      vertex -1.87728 5.77767 1.2
    endloop
  endfacet
  facet normal 0 0 1
    outer loop
      vertex -2.58661 5.49682 4.2
      vertex -2.27726 3.58839 4.2
      vertex -1.80956 3.84551 4.2
    endloop
  endfacet
  facet normal 0.587785 0.809017 0
    outer loop
      vertex -2.70905 -3.27468 0
      vertex -2.70905 -3.27468 4.2
      vertex -2.27726 -3.58839 0
    endloop
  endfacet
  facet normal 0.587785 0.809017 -0
    outer loop
      vertex -2.70905 -3.27468 4.2
      vertex -2.27726 -3.58839 4.2
      vertex -2.27726 -3.58839 0
    endloop
  endfacet
  facet normal 0.587785 -0.809017 0
    outer loop
      vertex -2.70905 3.27468 0
      vertex -2.27726 3.58839 0
      vertex -2.27726 3.58839 4.2
    endloop
  endfacet
  facet normal 0.587785 -0.809017 0
    outer loop
      vertex -2.70905 3.27468 0
      vertex -2.27726 3.58839 4.2
      vertex -2.70905 3.27468 4.2
    endloop
  endfacet
  facet normal 0.684547 0.728968 0
    outer loop
      vertex -3.09812 -2.90932 0
      vertex -3.09812 -2.90932 4.2
      vertex -2.70905 -3.27468 0
    endloop
  endfacet
  facet normal 0.684547 0.728968 -0
    outer loop
      vertex -3.09812 -2.90932 4.2
      vertex -2.70905 -3.27468 4.2
      vertex -2.70905 -3.27468 0
    endloop
  endfacet
  facet normal 0.684547 -0.728968 0
    outer loop
      vertex -3.09812 2.90932 0
      vertex -2.70905 3.27468 0
      vertex -2.70905 3.27468 4.2
    endloop
  endfacet
  facet normal 0.684547 -0.728968 0
    outer loop
      vertex -3.09812 2.90932 0
      vertex -2.70905 3.27468 4.2
      vertex -3.09812 2.90932 4.2
    endloop
  endfacet
  facet normal 0 0 -1
    outer loop
      vertex -3.22528 -6.85406 0
      vertex -1.80956 -3.84551 0
      vertex -2.3408 -7.20425 0
    endloop
  endfacet
  facet normal -0 0 -1
    outer loop
      vertex -3.22528 -6.85406 0
      vertex -2.27726 -3.58839 0
      vertex -1.80956 -3.84551 0
    endloop
  endfacet
  facet normal -0.368124 -0.929777 -0
    outer loop
      vertex -3.22528 -6.85406 0
      vertex -2.3408 -7.20425 0
      vertex -2.3408 -7.20425 1.2
    endloop
  endfacet
  facet normal -0.368124 -0.929777 0
    outer loop
      vertex -3.22528 -6.85406 0
      vertex -2.3408 -7.20425 1.2
      vertex -3.22528 -6.85406 1.2
    endloop
  endfacet
  facet normal 0 0 1
    outer loop
      vertex -3.22528 -6.85406 1.2
      vertex -2.3408 -7.20425 1.2
      vertex -2.58661 -5.49682 1.2
    endloop
  endfacet
  facet normal 0 0 -1
    outer loop
      vertex -3.22528 6.85406 0
      vertex -1.80956 3.84551 0
      vertex -2.27726 3.58839 0
    endloop
  endfacet
  facet normal 0 0 -1
    outer loop
      vertex -3.22528 6.85406 0
      vertex -2.3408 7.20425 0
      vertex -1.80956 3.84551 0
    endloop
  endfacet
  facet normal -0.368124 0.929777 0
    outer loop
      vertex -3.22528 6.85406 0
      vertex -3.22528 6.85406 1.2
      vertex -2.3408 7.20425 0
    endloop
  endfacet
  facet normal -0.368124 0.929777 0
    outer loop
      vertex -3.22528 6.85406 1.2
      vertex -2.3408 7.20425 1.2
      vertex -2.3408 7.20425 0
    endloop
  endfacet
  facet normal -0 0 1
    outer loop
      vertex -3.22528 6.85406 1.2
      vertex -2.58661 5.49682 1.2
      vertex -2.3408 7.20425 1.2
    endloop
  endfacet
  facet normal -0.481754 -0.876306 -0
    outer loop
      vertex -3.25515 -5.12929 1.2
      vertex -2.58661 -5.49682 1.2
      vertex -2.58661 -5.49682 4.2
    endloop
  endfacet
  facet normal -0.481754 -0.876306 0
    outer loop
      vertex -3.25515 -5.12929 1.2
      vertex -2.58661 -5.49682 4.2
      vertex -3.25515 -5.12929 4.2
    endloop
  endfacet
  facet normal 0 0 1
    outer loop
      vertex -3.25515 -5.12929 1.2
      vertex -3.22528 -6.85406 1.2
      vertex -2.58661 -5.49682 1.2
    endloop
  endfacet
  facet normal 0 0 1
    outer loop
      vertex -3.25515 -5.12929 4.2
      vertex -2.27726 -3.58839 4.2
      vertex -2.70905 -3.27468 4.2
    endloop
  endfacet
  facet normal 0 0 1
    outer loop
      vertex -3.25515 -5.12929 4.2
      vertex -2.58661 -5.49682 4.2
      vertex -2.27726 -3.58839 4.2
    endloop
  endfacet
  facet normal 0 0 1
    outer loop
      vertex -3.25515 5.12929 1.2
      vertex -2.58661 5.49682 1.2
      vertex -3.22528 6.85406 1.2
    endloop
  endfacet
  facet normal -0.481754 0.876306 0
    outer loop
      vertex -3.25515 5.12929 1.2
      vertex -3.25515 5.12929 4.2
      vertex -2.58661 5.49682 1.2
    endloop
  endfacet
  facet normal -0 0 1
    outer loop
      vertex -3.25515 5.12929 4.2
      vertex -2.27726 3.58839 4.2
      vertex -2.58661 5.49682 4.2
    endloop
  endfacet
  facet normal -0.481754 0.876306 0
    outer loop
      vertex -3.25515 5.12929 4.2
      vertex -2.58661 5.49682 4.2
      vertex -2.58661 5.49682 1.2
    endloop
  endfacet
  facet normal 0 0 1
    outer loop
      vertex -3.25515 5.12929 4.2
      vertex -2.70905 3.27468 4.2
      vertex -2.27726 3.58839 4.2
    endloop
  endfacet
  facet normal 0.770513 0.637425 0
    outer loop
      vertex -3.43832 -2.49809 0
      vertex -3.09812 -2.90932 4.2
      vertex -3.09812 -2.90932 0
    endloop
  endfacet
  facet normal 0.770513 0.637425 0
    outer loop
      vertex -3.43832 -2.49809 0
      vertex -3.43832 -2.49809 4.2
      vertex -3.09812 -2.90932 4.2
    endloop
  endfacet
  facet normal 0.770513 -0.637425 0
    outer loop
      vertex -3.43832 2.49809 0
      vertex -3.09812 2.90932 0
      vertex -3.43832 2.49809 4.2
    endloop
  endfacet
  facet normal 0.770513 -0.637425 0
    outer loop
      vertex -3.43832 2.49809 4.2
      vertex -3.09812 2.90932 0
      vertex -3.09812 2.90932 4.2
    endloop
  endfacet
  facet normal 0.844328 0.535827 0
    outer loop
      vertex -3.7243 -2.04745 0
      vertex -3.43832 -2.49809 4.2
      vertex -3.43832 -2.49809 0
    endloop
  endfacet
  facet normal 0.844328 0.535827 0
    outer loop
      vertex -3.7243 -2.04745 0
      vertex -3.7243 -2.04745 4.2
      vertex -3.43832 -2.49809 4.2
    endloop
  endfacet
  facet normal 0.844328 -0.535827 0
    outer loop
      vertex -3.7243 2.04745 0
      vertex -3.43832 2.49809 0
      vertex -3.7243 2.04745 4.2
    endloop
  endfacet
  facet normal 0.844328 -0.535827 0
    outer loop
      vertex -3.7243 2.04745 4.2
      vertex -3.43832 2.49809 0
      vertex -3.43832 2.49809 4.2
    endloop
  endfacet
  facet normal -0.587785 -0.809017 -0
    outer loop
      vertex -3.87235 -4.68087 1.2
      vertex -3.25515 -5.12929 1.2
      vertex -3.25515 -5.12929 4.2
    endloop
  endfacet
  facet normal -0.587785 -0.809017 0
    outer loop
      vertex -3.87235 -4.68087 1.2
      vertex -3.25515 -5.12929 4.2
      vertex -3.87235 -4.68087 4.2
    endloop
  endfacet
  facet normal 0 0 1
    outer loop
      vertex -3.87235 -4.68087 4.2
      vertex -2.70905 -3.27468 4.2
      vertex -3.09812 -2.90932 4.2
    endloop
  endfacet
  facet normal 0 0 1
    outer loop
      vertex -3.87235 -4.68087 4.2
      vertex -3.25515 -5.12929 4.2
      vertex -2.70905 -3.27468 4.2
    endloop
  endfacet
  facet normal -0.587785 0.809017 0
    outer loop
      vertex -3.87235 4.68087 1.2
      vertex -3.87235 4.68087 4.2
      vertex -3.25515 5.12929 1.2
    endloop
  endfacet
  facet normal -0 0 1
    outer loop
      vertex -3.87235 4.68087 4.2
      vertex -2.70905 3.27468 4.2
      vertex -3.25515 5.12929 4.2
    endloop
  endfacet
  facet normal 0 0 1
    outer loop
      vertex -3.87235 4.68087 4.2
      vertex -3.09812 2.90932 4.2
      vertex -2.70905 3.27468 4.2
    endloop
  endfacet
  facet normal -0.587785 0.809017 0
    outer loop
      vertex -3.87235 4.68087 4.2
      vertex -3.25515 5.12929 4.2
      vertex -3.25515 5.12929 1.2
    endloop
  endfacet
  facet normal 0.904828 0.425778 0
    outer loop
      vertex -3.95155 -1.56453 0
      vertex -3.7243 -2.04745 4.2
      vertex -3.7243 -2.04745 0
    endloop
  endfacet
  facet normal 0.904828 0.425778 0
    outer loop
      vertex -3.95155 -1.56453 0
      vertex -3.95155 -1.56453 4.2
      vertex -3.7243 -2.04745 4.2
    endloop
  endfacet
  facet normal 0.904828 -0.425778 0
    outer loop
      vertex -3.95155 1.56453 0
      vertex -3.7243 2.04745 0
      vertex -3.95155 1.56453 4.2
    endloop
  endfacet
  facet normal 0.904828 -0.425778 0
    outer loop
      vertex -3.95155 1.56453 4.2
      vertex -3.7243 2.04745 0
      vertex -3.7243 2.04745 4.2
    endloop
  endfacet
  facet normal 0 0 -1
    outer loop
      vertex -4.05889 -6.39578 0
      vertex -2.27726 -3.58839 0
      vertex -3.22528 -6.85406 0
    endloop
  endfacet
  facet normal -0 0 -1
    outer loop
      vertex -4.05889 -6.39578 0
      vertex -2.70905 -3.27468 0
      vertex -2.27726 -3.58839 0
    endloop
  endfacet
  facet normal -0.481754 -0.876307 -0
    outer loop
      vertex -4.05889 -6.39578 0
      vertex -3.22528 -6.85406 0
      vertex -3.22528 -6.85406 1.2
    endloop
  endfacet
  facet normal -0.481754 -0.876307 0
    outer loop
      vertex -4.05889 -6.39578 0
      vertex -3.22528 -6.85406 1.2
      vertex -4.05889 -6.39578 1.2
    endloop
  endfacet
  facet normal 0 0 1
    outer loop
      vertex -4.05889 -6.39578 1.2
      vertex -3.22528 -6.85406 1.2
      vertex -3.25515 -5.12929 1.2
    endloop
  endfacet
  facet normal 0 0 1
    outer loop
      vertex -4.05889 -6.39578 1.2
      vertex -3.25515 -5.12929 1.2
      vertex -3.87235 -4.68087 1.2
    endloop
  endfacet
  facet normal 0 0 -1
    outer loop
      vertex -4.05889 6.39578 0
      vertex -2.27726 3.58839 0
      vertex -2.70905 3.27468 0
    endloop
  endfacet
  facet normal 0 0 -1
    outer loop
      vertex -4.05889 6.39578 0
      vertex -3.22528 6.85406 0
      vertex -2.27726 3.58839 0
    endloop
  endfacet
  facet normal -0.481754 0.876307 0
    outer loop
      vertex -4.05889 6.39578 0
      vertex -4.05889 6.39578 1.2
      vertex -3.22528 6.85406 0
    endloop
  endfacet
  facet normal -0.481754 0.876307 0
    outer loop
      vertex -4.05889 6.39578 1.2
      vertex -3.22528 6.85406 1.2
      vertex -3.22528 6.85406 0
    endloop
  endfacet
  facet normal -0 0 1
    outer loop
      vertex -4.05889 6.39578 1.2
      vertex -3.25515 5.12929 1.2
      vertex -3.22528 6.85406 1.2
    endloop
  endfacet
  facet normal 0 0 1
    outer loop
      vertex -4.05889 6.39578 1.2
      vertex -3.87235 4.68087 1.2
      vertex -3.25515 5.12929 1.2
    endloop
  endfacet
  facet normal 0.951056 0.309017 0
    outer loop
      vertex -4.11648 -1.05693 0
      vertex -3.95155 -1.56453 4.2
      vertex -3.95155 -1.56453 0
    endloop
  endfacet
  facet normal 0.951056 0.309017 0
    outer loop
      vertex -4.11648 -1.05693 0
      vertex -4.11648 -1.05693 4.2
      vertex -3.95155 -1.56453 4.2
    endloop
  endfacet
  facet normal 0.951056 -0.309017 0
    outer loop
      vertex -4.11648 1.05693 0
      vertex -3.95155 1.56453 0
      vertex -4.11648 1.05693 4.2
    endloop
  endfacet
  facet normal 0.951056 -0.309017 0
    outer loop
      vertex -4.11648 1.05693 4.2
      vertex -3.95155 1.56453 0
      vertex -3.95155 1.56453 4.2
    endloop
  endfacet
  facet normal 0.982287 0.187381 0
    outer loop
      vertex -4.21649 -0.532666 0
      vertex -4.11648 -1.05693 4.2
      vertex -4.11648 -1.05693 0
    endloop
  endfacet
  facet normal 0.982287 0.187381 0
    outer loop
      vertex -4.21649 -0.532666 0
      vertex -4.21649 -0.532666 4.2
      vertex -4.11648 -1.05693 4.2
    endloop
  endfacet
  facet normal 0.982287 -0.187381 0
    outer loop
      vertex -4.21649 0.532666 0
      vertex -4.11648 1.05693 0
      vertex -4.21649 0.532666 4.2
    endloop
  endfacet
  facet normal 0.982287 -0.187381 0
    outer loop
      vertex -4.21649 0.532666 4.2
      vertex -4.11648 1.05693 0
      vertex -4.11648 1.05693 4.2
    endloop
  endfacet
  facet normal 0.998027 0.0627915 0
    outer loop
      vertex -4.25 0 0
      vertex -4.21649 -0.532666 4.2
      vertex -4.21649 -0.532666 0
    endloop
  endfacet
  facet normal 0.998027 -0.0627915 0
    outer loop
      vertex -4.25 0 0
      vertex -4.21649 0.532666 0
      vertex -4.25 0 4.2
    endloop
  endfacet
  facet normal 0.998027 0.0627915 0
    outer loop
      vertex -4.25 0 0
      vertex -4.25 0 4.2
      vertex -4.21649 -0.532666 4.2
    endloop
  endfacet
  facet normal 0.998027 -0.0627915 0
    outer loop
      vertex -4.25 0 4.2
      vertex -4.21649 0.532666 0
      vertex -4.21649 0.532666 4.2
    endloop
  endfacet
  facet normal -0.684547 -0.728968 -0
    outer loop
      vertex -4.42848 -4.15862 1.2
      vertex -3.87235 -4.68087 1.2
      vertex -3.87235 -4.68087 4.2
    endloop
  endfacet
  facet normal -0.684547 -0.728968 0
    outer loop
      vertex -4.42848 -4.15862 1.2
      vertex -3.87235 -4.68087 4.2
      vertex -4.42848 -4.15862 4.2
    endloop
  endfacet
  facet normal 0 0 1
    outer loop
      vertex -4.42848 -4.15862 4.2
      vertex -3.09812 -2.90932 4.2
      vertex -3.43832 -2.49809 4.2
    endloop
  endfacet
  facet normal 0 0 1
    outer loop
      vertex -4.42848 -4.15862 4.2
      vertex -3.87235 -4.68087 4.2
      vertex -3.09812 -2.90932 4.2
    endloop
  endfacet
  facet normal -0.684547 0.728968 0
    outer loop
      vertex -4.42848 4.15862 1.2
      vertex -4.42848 4.15862 4.2
      vertex -3.87235 4.68087 1.2
    endloop
  endfacet
  facet normal -0 0 1
    outer loop
      vertex -4.42848 4.15862 4.2
      vertex -3.09812 2.90932 4.2
      vertex -3.87235 4.68087 4.2
    endloop
  endfacet
  facet normal 0 0 1
    outer loop
      vertex -4.42848 4.15862 4.2
      vertex -3.43832 2.49809 4.2
      vertex -3.09812 2.90932 4.2
    endloop
  endfacet
  facet normal -0.684547 0.728968 0
    outer loop
      vertex -4.42848 4.15862 4.2
      vertex -3.87235 4.68087 4.2
      vertex -3.87235 4.68087 1.2
    endloop
  endfacet
  facet normal 0 0 -1
    outer loop
      vertex -4.82849 -5.83664 0
      vertex -2.70905 -3.27468 0
      vertex -4.05889 -6.39578 0
    endloop
  endfacet
  facet normal -0 0 -1
    outer loop
      vertex -4.82849 -5.83664 0
      vertex -3.09812 -2.90932 0
      vertex -2.70905 -3.27468 0
    endloop
  endfacet
  facet normal -0.587785 -0.809017 -0
    outer loop
      vertex -4.82849 -5.83664 0
      vertex -4.05889 -6.39578 0
      vertex -4.05889 -6.39578 1.2
    endloop
  endfacet
  facet normal -0.587785 -0.809017 0
    outer loop
      vertex -4.82849 -5.83664 0
      vertex -4.05889 -6.39578 1.2
      vertex -4.82849 -5.83664 1.2
    endloop
  endfacet
  facet normal 0 0 1
    outer loop
      vertex -4.82849 -5.83664 1.2
      vertex -3.87235 -4.68087 1.2
      vertex -4.42848 -4.15862 1.2
    endloop
  endfacet
  facet normal 0 0 1
    outer loop
      vertex -4.82849 -5.83664 1.2
      vertex -4.05889 -6.39578 1.2
      vertex -3.87235 -4.68087 1.2
    endloop
  endfacet
  facet normal 0 0 -1
    outer loop
      vertex -4.82849 5.83664 0
      vertex -2.70905 3.27468 0
      vertex -3.09812 2.90932 0
    endloop
  endfacet
  facet normal 0 0 -1
    outer loop
      vertex -4.82849 5.83664 0
      vertex -4.05889 6.39578 0
      vertex -2.70905 3.27468 0
    endloop
  endfacet
  facet normal -0.587785 0.809017 0
    outer loop
      vertex -4.82849 5.83664 0
      vertex -4.82849 5.83664 1.2
      vertex -4.05889 6.39578 0
    endloop
  endfacet
  facet normal -0 0 1
    outer loop
      vertex -4.82849 5.83664 1.2
      vertex -3.87235 4.68087 1.2
      vertex -4.05889 6.39578 1.2
    endloop
  endfacet
  facet normal -0.587785 0.809017 0
    outer loop
      vertex -4.82849 5.83664 1.2
      vertex -4.05889 6.39578 1.2
      vertex -4.05889 6.39578 0
    endloop
  endfacet
  facet normal 0 0 1
    outer loop
      vertex -4.82849 5.83664 1.2
      vertex -4.42848 4.15862 1.2
      vertex -3.87235 4.68087 1.2
    endloop
  endfacet
  facet normal -0.770513 -0.637424 0
    outer loop
      vertex -4.91478 -3.5708 1.2
      vertex -4.42848 -4.15862 1.2
      vertex -4.91478 -3.5708 4.2
    endloop
  endfacet
  facet normal 0 0 1
    outer loop
      vertex -4.91478 -3.5708 4.2
      vertex -3.43832 -2.49809 4.2
      vertex -3.7243 -2.04745 4.2
    endloop
  endfacet
  facet normal -0.770513 -0.637424 0
    outer loop
      vertex -4.91478 -3.5708 4.2
      vertex -4.42848 -4.15862 1.2
      vertex -4.42848 -4.15862 4.2
    endloop
  endfacet
  facet normal 0 0 1
    outer loop
      vertex -4.91478 -3.5708 4.2
      vertex -4.42848 -4.15862 4.2
      vertex -3.43832 -2.49809 4.2
    endloop
  endfacet
  facet normal -0.770513 0.637424 0
    outer loop
      vertex -4.91478 3.5708 1.2
      vertex -4.42848 4.15862 4.2
      vertex -4.42848 4.15862 1.2
    endloop
  endfacet
  facet normal -0.770513 0.637424 0
    outer loop
      vertex -4.91478 3.5708 1.2
      vertex -4.91478 3.5708 4.2
      vertex -4.42848 4.15862 4.2
    endloop
  endfacet
  facet normal -0 0 1
    outer loop
      vertex -4.91478 3.5708 4.2
      vertex -3.43832 2.49809 4.2
      vertex -4.42848 4.15862 4.2
    endloop
  endfacet
  facet normal 0 0 1
    outer loop
      vertex -4.91478 3.5708 4.2
      vertex -3.7243 2.04745 4.2
      vertex -3.43832 2.49809 4.2
    endloop
  endfacet
  facet normal -0.844328 -0.535827 0
    outer loop
      vertex -5.32356 -2.92665 1.2
      vertex -4.91478 -3.5708 1.2
      vertex -5.32356 -2.92665 4.2
    endloop
  endfacet
  facet normal 0 0 1
    outer loop
      vertex -5.32356 -2.92665 4.2
      vertex -3.7243 -2.04745 4.2
      vertex -3.95155 -1.56453 4.2
    endloop
  endfacet
  facet normal -0.844328 -0.535827 0
    outer loop
      vertex -5.32356 -2.92665 4.2
      vertex -4.91478 -3.5708 1.2
      vertex -4.91478 -3.5708 4.2
    endloop
  endfacet
  facet normal 0 0 1
    outer loop
      vertex -5.32356 -2.92665 4.2
      vertex -4.91478 -3.5708 4.2
      vertex -3.7243 -2.04745 4.2
    endloop
  endfacet
  facet normal -0.844328 0.535827 0
    outer loop
      vertex -5.32356 2.92665 1.2
      vertex -4.91478 3.5708 4.2
      vertex -4.91478 3.5708 1.2
    endloop
  endfacet
  facet normal -0.844328 0.535827 0
    outer loop
      vertex -5.32356 2.92665 1.2
      vertex -5.32356 2.92665 4.2
      vertex -4.91478 3.5708 4.2
    endloop
  endfacet
  facet normal -0 0 1
    outer loop
      vertex -5.32356 2.92665 4.2
      vertex -3.7243 2.04745 4.2
      vertex -4.91478 3.5708 4.2
    endloop
  endfacet
  facet normal 0 0 1
    outer loop
      vertex -5.32356 2.92665 4.2
      vertex -3.95155 1.56453 4.2
      vertex -3.7243 2.04745 4.2
    endloop
  endfacet
  facet normal 0 0 -1
    outer loop
      vertex -5.52194 -5.18544 0
      vertex -3.09812 -2.90932 0
      vertex -4.82849 -5.83664 0
    endloop
  endfacet
  facet normal -0 0 -1
    outer loop
      vertex -5.52194 -5.18544 0
      vertex -3.43832 -2.49809 0
      vertex -3.09812 -2.90932 0
    endloop
  endfacet
  facet normal -0.684548 -0.728968 -0
    outer loop
      vertex -5.52194 -5.18544 0
      vertex -4.82849 -5.83664 0
      vertex -4.82849 -5.83664 1.2
    endloop
  endfacet
  facet normal -0.684548 -0.728968 0
    outer loop
      vertex -5.52194 -5.18544 0
      vertex -4.82849 -5.83664 1.2
      vertex -5.52194 -5.18544 1.2
    endloop
  endfacet
  facet normal 0 0 1
    outer loop
      vertex -5.52194 -5.18544 1.2
      vertex -4.42848 -4.15862 1.2
      vertex -4.91478 -3.5708 1.2
    endloop
  endfacet
  facet normal 0 0 1
    outer loop
      vertex -5.52194 -5.18544 1.2
      vertex -4.82849 -5.83664 1.2
      vertex -4.42848 -4.15862 1.2
    endloop
  endfacet
  facet normal 0 0 -1
    outer loop
      vertex -5.52194 5.18544 0
      vertex -3.09812 2.90932 0
      vertex -3.43832 2.49809 0
    endloop
  endfacet
  facet normal 0 0 -1
    outer loop
      vertex -5.52194 5.18544 0
      vertex -4.82849 5.83664 0
      vertex -3.09812 2.90932 0
    endloop
  endfacet
  facet normal -0.684548 0.728968 0
    outer loop
      vertex -5.52194 5.18544 0
      vertex -5.52194 5.18544 1.2
      vertex -4.82849 5.83664 0
    endloop
  endfacet
  facet normal -0 0 1
    outer loop
      vertex -5.52194 5.18544 1.2
      vertex -4.42848 4.15862 1.2
      vertex -4.82849 5.83664 1.2
    endloop
  endfacet
  facet normal -0.684548 0.728968 0
    outer loop
      vertex -5.52194 5.18544 1.2
      vertex -4.82849 5.83664 1.2
      vertex -4.82849 5.83664 0
    endloop
  endfacet
  facet normal 0 0 1
    outer loop
      vertex -5.52194 5.18544 1.2
      vertex -4.91478 3.5708 1.2
      vertex -4.42848 4.15862 1.2
    endloop
  endfacet
  facet normal -0.904827 -0.425779 0
    outer loop
      vertex -5.64839 -2.23636 1.2
      vertex -5.32356 -2.92665 1.2
      vertex -5.64839 -2.23636 4.2
    endloop
  endfacet
  facet normal 0 0 1
    outer loop
      vertex -5.64839 -2.23636 4.2
      vertex -3.95155 -1.56453 4.2
      vertex -4.11648 -1.05693 4.2
    endloop
  endfacet
  facet normal -0.904827 -0.425779 0
    outer loop
      vertex -5.64839 -2.23636 4.2
      vertex -5.32356 -2.92665 1.2
      vertex -5.32356 -2.92665 4.2
    endloop
  endfacet
  facet normal 0 0 1
    outer loop
      vertex -5.64839 -2.23636 4.2
      vertex -5.32356 -2.92665 4.2
      vertex -3.95155 -1.56453 4.2
    endloop
  endfacet
  facet normal -0.904827 0.425779 0
    outer loop
      vertex -5.64839 2.23636 1.2
      vertex -5.32356 2.92665 4.2
      vertex -5.32356 2.92665 1.2
    endloop
  endfacet
  facet normal -0.904827 0.425779 0
    outer loop
      vertex -5.64839 2.23636 1.2
      vertex -5.64839 2.23636 4.2
      vertex -5.32356 2.92665 4.2
    endloop
  endfacet
  facet normal -0 0 1
    outer loop
      vertex -5.64839 2.23636 4.2
      vertex -3.95155 1.56453 4.2
      vertex -5.32356 2.92665 4.2
    endloop
  endfacet
  facet normal 0 0 1
    outer loop
      vertex -5.64839 2.23636 4.2
      vertex -4.11648 1.05693 4.2
      vertex -3.95155 1.56453 4.2
    endloop
  endfacet
  facet normal -0.951057 -0.309017 0
    outer loop
      vertex -5.88414 -1.51079 1.2
      vertex -5.64839 -2.23636 1.2
      vertex -5.88414 -1.51079 4.2
    endloop
  endfacet
  facet normal 0 0 1
    outer loop
      vertex -5.88414 -1.51079 4.2
      vertex -4.11648 -1.05693 4.2
      vertex -4.21649 -0.532666 4.2
    endloop
  endfacet
  facet normal -0.951057 -0.309017 0
    outer loop
      vertex -5.88414 -1.51079 4.2
      vertex -5.64839 -2.23636 1.2
      vertex -5.64839 -2.23636 4.2
    endloop
  endfacet
  facet normal 0 0 1
    outer loop
      vertex -5.88414 -1.51079 4.2
      vertex -5.64839 -2.23636 4.2
      vertex -4.11648 -1.05693 4.2
    endloop
  endfacet
  facet normal -0.951057 0.309017 0
    outer loop
      vertex -5.88414 1.51079 1.2
      vertex -5.64839 2.23636 4.2
      vertex -5.64839 2.23636 1.2
    endloop
  endfacet
  facet normal -0.951057 0.309017 0
    outer loop
      vertex -5.88414 1.51079 1.2
      vertex -5.88414 1.51079 4.2
      vertex -5.64839 2.23636 4.2
    endloop
  endfacet
  facet normal -0 0 1
    outer loop
      vertex -5.88414 1.51079 4.2
      vertex -4.11648 1.05693 4.2
      vertex -5.64839 2.23636 4.2
    endloop
  endfacet
  facet normal 0 0 1
    outer loop
      vertex -5.88414 1.51079 4.2
      vertex -4.21649 0.532666 4.2
      vertex -4.11648 1.05693 4.2
    endloop
  endfacet
  facet normal -0.982287 -0.187382 0
    outer loop
      vertex -6.0271 -0.761399 1.2
      vertex -5.88414 -1.51079 1.2
      vertex -6.0271 -0.761399 4.2
    endloop
  endfacet
  facet normal 0 0 1
    outer loop
      vertex -6.0271 -0.761399 4.2
      vertex -4.21649 -0.532666 4.2
      vertex -4.25 0 4.2
    endloop
  endfacet
  facet normal -0.982287 -0.187382 0
    outer loop
      vertex -6.0271 -0.761399 4.2
      vertex -5.88414 -1.51079 1.2
      vertex -5.88414 -1.51079 4.2
    endloop
  endfacet
  facet normal 0 0 1
    outer loop
      vertex -6.0271 -0.761399 4.2
      vertex -5.88414 -1.51079 4.2
      vertex -4.21649 -0.532666 4.2
    endloop
  endfacet
  facet normal -0.982287 0.187382 0
    outer loop
      vertex -6.0271 0.761399 1.2
      vertex -5.88414 1.51079 4.2
      vertex -5.88414 1.51079 1.2
    endloop
  endfacet
  facet normal -0.982287 0.187382 0
    outer loop
      vertex -6.0271 0.761399 1.2
      vertex -6.0271 0.761399 4.2
      vertex -5.88414 1.51079 4.2
    endloop
  endfacet
  facet normal -0 0 1
    outer loop
      vertex -6.0271 0.761399 4.2
      vertex -4.21649 0.532666 4.2
      vertex -5.88414 1.51079 4.2
    endloop
  endfacet
  facet normal 0 0 1
    outer loop
      vertex -6.0271 0.761399 4.2
      vertex -4.25 0 4.2
      vertex -4.21649 0.532666 4.2
    endloop
  endfacet
  facet normal -0.998027 -0.0627904 0
    outer loop
      vertex -6.075 0 1.2
      vertex -6.0271 -0.761399 1.2
      vertex -6.075 0 4.2
    endloop
  endfacet
  facet normal -0.998027 0.0627904 0
    outer loop
      vertex -6.075 0 1.2
      vertex -6.0271 0.761399 4.2
      vertex -6.0271 0.761399 1.2
    endloop
  endfacet
  facet normal -0.998027 0.0627904 0
    outer loop
      vertex -6.075 0 1.2
      vertex -6.075 0 4.2
      vertex -6.0271 0.761399 4.2
    endloop
  endfacet
  facet normal 0 0 1
    outer loop
      vertex -6.075 0 4.2
      vertex -4.25 0 4.2
      vertex -6.0271 0.761399 4.2
    endloop
  endfacet
  facet normal -0.998027 -0.0627904 0
    outer loop
      vertex -6.075 0 4.2
      vertex -6.0271 -0.761399 1.2
      vertex -6.0271 -0.761399 4.2
    endloop
  endfacet
  facet normal 0 0 1
    outer loop
      vertex -6.075 0 4.2
      vertex -6.0271 -0.761399 4.2
      vertex -4.25 0 4.2
    endloop
  endfacet
  facet normal 0 0 -1
    outer loop
      vertex -6.1283 -4.45247 0
      vertex -3.43832 -2.49809 0
      vertex -5.52194 -5.18544 0
    endloop
  endfacet
  facet normal -0 0 -1
    outer loop
      vertex -6.1283 -4.45247 0
      vertex -3.7243 -2.04745 0
      vertex -3.43832 -2.49809 0
    endloop
  endfacet
  facet normal -0.770513 -0.637424 0
    outer loop
      vertex -6.1283 -4.45247 0
      vertex -5.52194 -5.18544 0
      vertex -6.1283 -4.45247 1.2
    endloop
  endfacet
  facet normal 0 0 1
    outer loop
      vertex -6.1283 -4.45247 1.2
      vertex -4.91478 -3.5708 1.2
      vertex -5.32356 -2.92665 1.2
    endloop
  endfacet
  facet normal -0.770513 -0.637424 0
    outer loop
      vertex -6.1283 -4.45247 1.2
      vertex -5.52194 -5.18544 0
      vertex -5.52194 -5.18544 1.2
    endloop
  endfacet
  facet normal 0 0 1
    outer loop
      vertex -6.1283 -4.45247 1.2
      vertex -5.52194 -5.18544 1.2
      vertex -4.91478 -3.5708 1.2
    endloop
  endfacet
  facet normal 0 0 -1
    outer loop
      vertex -6.1283 4.45247 0
      vertex -3.43832 2.49809 0
      vertex -3.7243 2.04745 0
    endloop
  endfacet
  facet normal 0 0 -1
    outer loop
      vertex -6.1283 4.45247 0
      vertex -5.52194 5.18544 0
      vertex -3.43832 2.49809 0
    endloop
  endfacet
  facet normal -0.770513 0.637424 0
    outer loop
      vertex -6.1283 4.45247 0
      vertex -5.52194 5.18544 1.2
      vertex -5.52194 5.18544 0
    endloop
  endfacet
  facet normal -0.770513 0.637424 0
    outer loop
      vertex -6.1283 4.45247 0
      vertex -6.1283 4.45247 1.2
      vertex -5.52194 5.18544 1.2
    endloop
  endfacet
  facet normal -0 0 1
    outer loop
      vertex -6.1283 4.45247 1.2
      vertex -4.91478 3.5708 1.2
      vertex -5.52194 5.18544 1.2
    endloop
  endfacet
  facet normal 0 0 1
    outer loop
      vertex -6.1283 4.45247 1.2
      vertex -5.32356 2.92665 1.2
      vertex -4.91478 3.5708 1.2
    endloop
  endfacet
  facet normal 0 0 -1
    outer loop
      vertex -6.63802 -3.64928 0
      vertex -3.7243 -2.04745 0
      vertex -6.1283 -4.45247 0
    endloop
  endfacet
  facet normal -0 0 -1
    outer loop
      vertex -6.63802 -3.64928 0
      vertex -3.95155 -1.56453 0
      vertex -3.7243 -2.04745 0
    endloop
  endfacet
  facet normal -0.844328 -0.535826 0
    outer loop
      vertex -6.63802 -3.64928 0
      vertex -6.1283 -4.45247 0
      vertex -6.63802 -3.64928 1.2
    endloop
  endfacet
  facet normal 0 0 1
    outer loop
      vertex -6.63802 -3.64928 1.2
      vertex -5.32356 -2.92665 1.2
      vertex -5.64839 -2.23636 1.2
    endloop
  endfacet
  facet normal -0.844328 -0.535826 0
    outer loop
      vertex -6.63802 -3.64928 1.2
      vertex -6.1283 -4.45247 0
      vertex -6.1283 -4.45247 1.2
    endloop
  endfacet
  facet normal 0 0 1
    outer loop
      vertex -6.63802 -3.64928 1.2
      vertex -6.1283 -4.45247 1.2
      vertex -5.32356 -2.92665 1.2
    endloop
  endfacet
  facet normal 0 0 -1
    outer loop
      vertex -6.63802 3.64928 0
      vertex -3.7243 2.04745 0
      vertex -3.95155 1.56453 0
    endloop
  endfacet
  facet normal 0 0 -1
    outer loop
      vertex -6.63802 3.64928 0
      vertex -6.1283 4.45247 0
      vertex -3.7243 2.04745 0
    endloop
  endfacet
  facet normal -0.844328 0.535826 0
    outer loop
      vertex -6.63802 3.64928 0
      vertex -6.1283 4.45247 1.2
      vertex -6.1283 4.45247 0
    endloop
  endfacet
  facet normal -0.844328 0.535826 0
    outer loop
      vertex -6.63802 3.64928 0
      vertex -6.63802 3.64928 1.2
      vertex -6.1283 4.45247 1.2
    endloop
  endfacet
  facet normal -0 0 1
    outer loop
      vertex -6.63802 3.64928 1.2
      vertex -5.32356 2.92665 1.2
      vertex -6.1283 4.45247 1.2
    endloop
  endfacet
  facet normal 0 0 1
    outer loop
      vertex -6.63802 3.64928 1.2
      vertex -5.64839 2.23636 1.2
      vertex -5.32356 2.92665 1.2
    endloop
  endfacet
  facet normal 0 0 -1
    outer loop
      vertex -7.04306 -2.78854 0
      vertex -3.95155 -1.56453 0
      vertex -6.63802 -3.64928 0
    endloop
  endfacet
  facet normal -0 0 -1
    outer loop
      vertex -7.04306 -2.78854 0
      vertex -4.11648 -1.05693 0
      vertex -3.95155 -1.56453 0
    endloop
  endfacet
  facet normal -0.904827 -0.42578 0
    outer loop
      vertex -7.04306 -2.78854 0
      vertex -6.63802 -3.64928 0
      vertex -7.04306 -2.78854 1.2
    endloop
  endfacet
  facet normal 0 0 1
    outer loop
      vertex -7.04306 -2.78854 1.2
      vertex -5.64839 -2.23636 1.2
      vertex -5.88414 -1.51079 1.2
    endloop
  endfacet
  facet normal -0.904827 -0.42578 0
    outer loop
      vertex -7.04306 -2.78854 1.2
      vertex -6.63802 -3.64928 0
      vertex -6.63802 -3.64928 1.2
    endloop
  endfacet
  facet normal 0 0 1
    outer loop
      vertex -7.04306 -2.78854 1.2
      vertex -6.63802 -3.64928 1.2
      vertex -5.64839 -2.23636 1.2
    endloop
  endfacet
  facet normal 0 0 -1
    outer loop
      vertex -7.04306 2.78854 0
      vertex -3.95155 1.56453 0
      vertex -4.11648 1.05693 0
    endloop
  endfacet
  facet normal 0 0 -1
    outer loop
      vertex -7.04306 2.78854 0
      vertex -6.63802 3.64928 0
      vertex -3.95155 1.56453 0
    endloop
  endfacet
  facet normal -0.904827 0.42578 0
    outer loop
      vertex -7.04306 2.78854 0
      vertex -6.63802 3.64928 1.2
      vertex -6.63802 3.64928 0
    endloop
  endfacet
  facet normal -0.904827 0.42578 0
    outer loop
      vertex -7.04306 2.78854 0
      vertex -7.04306 2.78854 1.2
      vertex -6.63802 3.64928 1.2
    endloop
  endfacet
  facet normal -0 0 1
    outer loop
      vertex -7.04306 2.78854 1.2
      vertex -5.64839 2.23636 1.2
      vertex -6.63802 3.64928 1.2
    endloop
  endfacet
  facet normal 0 0 1
    outer loop
      vertex -7.04306 2.78854 1.2
      vertex -5.88414 1.51079 1.2
      vertex -5.64839 2.23636 1.2
    endloop
  endfacet
  facet normal 0 0 -1
    outer loop
      vertex -7.33702 -1.88383 0
      vertex -4.11648 -1.05693 0
      vertex -7.04306 -2.78854 0
    endloop
  endfacet
  facet normal -0 0 -1
    outer loop
      vertex -7.33702 -1.88383 0
      vertex -4.21649 -0.532666 0
      vertex -4.11648 -1.05693 0
    endloop
  endfacet
  facet normal -0.951056 -0.309017 0
    outer loop
      vertex -7.33702 -1.88383 0
      vertex -7.04306 -2.78854 0
      vertex -7.33702 -1.88383 1.2
    endloop
  endfacet
  facet normal 0 0 1
    outer loop
      vertex -7.33702 -1.88383 1.2
      vertex -5.88414 -1.51079 1.2
      vertex -6.0271 -0.761399 1.2
    endloop
  endfacet
  facet normal -0.951056 -0.309017 0
    outer loop
      vertex -7.33702 -1.88383 1.2
      vertex -7.04306 -2.78854 0
      vertex -7.04306 -2.78854 1.2
    endloop
  endfacet
  facet normal 0 0 1
    outer loop
      vertex -7.33702 -1.88383 1.2
      vertex -7.04306 -2.78854 1.2
      vertex -5.88414 -1.51079 1.2
    endloop
  endfacet
  facet normal 0 0 -1
    outer loop
      vertex -7.33702 1.88383 0
      vertex -4.11648 1.05693 0
      vertex -4.21649 0.532666 0
    endloop
  endfacet
  facet normal 0 0 -1
    outer loop
      vertex -7.33702 1.88383 0
      vertex -7.04306 2.78854 0
      vertex -4.11648 1.05693 0
    endloop
  endfacet
  facet normal -0.951056 0.309017 0
    outer loop
      vertex -7.33702 1.88383 0
      vertex -7.04306 2.78854 1.2
      vertex -7.04306 2.78854 0
    endloop
  endfacet
  facet normal -0.951056 0.309017 0
    outer loop
      vertex -7.33702 1.88383 0
      vertex -7.33702 1.88383 1.2
      vertex -7.04306 2.78854 1.2
    endloop
  endfacet
  facet normal -0 0 1
    outer loop
      vertex -7.33702 1.88383 1.2
      vertex -5.88414 1.51079 1.2
      vertex -7.04306 2.78854 1.2
    endloop
  endfacet
  facet normal 0 0 1
    outer loop
      vertex -7.33702 1.88383 1.2
      vertex -6.0271 0.761399 1.2
      vertex -5.88414 1.51079 1.2
    endloop
  endfacet
  facet normal 0 0 -1
    outer loop
      vertex -7.51527 -0.949399 0
      vertex -4.21649 -0.532666 0
      vertex -7.33702 -1.88383 0
    endloop
  endfacet
  facet normal -0 0 -1
    outer loop
      vertex -7.51527 -0.949399 0
      vertex -4.25 0 0
      vertex -4.21649 -0.532666 0
    endloop
  endfacet
  facet normal -0.982287 -0.187381 0
    outer loop
      vertex -7.51527 -0.949399 0
      vertex -7.33702 -1.88383 0
      vertex -7.51527 -0.949399 1.2
    endloop
  endfacet
  facet normal 0 0 1
    outer loop
      vertex -7.51527 -0.949399 1.2
      vertex -6.0271 -0.761399 1.2
      vertex -6.075 0 1.2
    endloop
  endfacet
  facet normal -0.982287 -0.187381 0
    outer loop
      vertex -7.51527 -0.949399 1.2
      vertex -7.33702 -1.88383 0
      vertex -7.33702 -1.88383 1.2
    endloop
  endfacet
  facet normal 0 0 1
    outer loop
      vertex -7.51527 -0.949399 1.2
      vertex -7.33702 -1.88383 1.2
      vertex -6.0271 -0.761399 1.2
    endloop
  endfacet
  facet normal 0 0 -1
    outer loop
      vertex -7.51527 0.949399 0
      vertex -4.21649 0.532666 0
      vertex -4.25 0 0
    endloop
  endfacet
  facet normal 0 0 -1
    outer loop
      vertex -7.51527 0.949399 0
      vertex -7.33702 1.88383 0
      vertex -4.21649 0.532666 0
    endloop
  endfacet
  facet normal -0.982287 0.187381 0
    outer loop
      vertex -7.51527 0.949399 0
      vertex -7.33702 1.88383 1.2
      vertex -7.33702 1.88383 0
    endloop
  endfacet
  facet normal -0.982287 0.187381 0
    outer loop
      vertex -7.51527 0.949399 0
      vertex -7.51527 0.949399 1.2
      vertex -7.33702 1.88383 1.2
    endloop
  endfacet
  facet normal -0 0 1
    outer loop
      vertex -7.51527 0.949399 1.2
      vertex -6.0271 0.761399 1.2
      vertex -7.33702 1.88383 1.2
    endloop
  endfacet
  facet normal 0 0 1
    outer loop
      vertex -7.51527 0.949399 1.2
      vertex -6.075 0 1.2
      vertex -6.0271 0.761399 1.2
    endloop
  endfacet
  facet normal 0 0 -1
    outer loop
      vertex -7.575 0 0
      vertex -4.25 0 0
      vertex -7.51527 -0.949399 0
    endloop
  endfacet
  facet normal -0.998027 -0.0627909 0
    outer loop
      vertex -7.575 0 0
      vertex -7.51527 -0.949399 0
      vertex -7.575 0 1.2
    endloop
  endfacet
  facet normal 0 0 -1
    outer loop
      vertex -7.575 0 0
      vertex -7.51527 0.949399 0
      vertex -4.25 0 0
    endloop
  endfacet
  facet normal -0.998027 0.0627909 0
    outer loop
      vertex -7.575 0 0
      vertex -7.51527 0.949399 1.2
      vertex -7.51527 0.949399 0
    endloop
  endfacet
  facet normal -0.998027 0.0627909 0
    outer loop
      vertex -7.575 0 0
      vertex -7.575 0 1.2
      vertex -7.51527 0.949399 1.2
    endloop
  endfacet
  facet normal 0 0 1
    outer loop
      vertex -7.575 0 1.2
      vertex -6.075 0 1.2
      vertex -7.51527 0.949399 1.2
    endloop
  endfacet
  facet normal -0.998027 -0.0627909 0
    outer loop
      vertex -7.575 0 1.2
      vertex -7.51527 -0.949399 0
      vertex -7.51527 -0.949399 1.2
    endloop
  endfacet
  facet normal 0 0 1
    outer loop
      vertex -7.575 0 1.2
      vertex -7.51527 -0.949399 1.2
      vertex -6.075 0 1.2
    endloop
  endfacet
  facet normal -0.125333 0.992115 0
    outer loop
      vertex 0.266859 -4.24161 0
      vertex 0.266859 -4.24161 4.2
      vertex 0.796371 -4.17472 0
    endloop
  endfacet
  facet normal 0 0 -1
    outer loop
      vertex 0.266859 -4.24161 0
      vertex 0.796371 -4.17472 0
      vertex 0.475637 -7.56005 0
    endloop
  endfacet
  facet normal -0 0 1
    outer loop
      vertex 0.266859 -4.24161 4.2
      vertex 0.381452 -6.06301 4.2
      vertex 0.796371 -4.17472 4.2
    endloop
  endfacet
  facet normal -0.125333 0.992115 0
    outer loop
      vertex 0.266859 -4.24161 4.2
      vertex 0.796371 -4.17472 4.2
      vertex 0.796371 -4.17472 0
    endloop
  endfacet
  facet normal 0 0 -1
    outer loop
      vertex 0.266859 4.24161 0
      vertex 0.475637 7.56005 0
      vertex 0.796371 4.17472 0
    endloop
  endfacet
  facet normal -0.125333 -0.992115 -0
    outer loop
      vertex 0.266859 4.24161 0
      vertex 0.796371 4.17472 0
      vertex 0.796371 4.17472 4.2
    endloop
  endfacet
  facet normal -0.125333 -0.992115 0
    outer loop
      vertex 0.266859 4.24161 0
      vertex 0.796371 4.17472 4.2
      vertex 0.266859 4.24161 4.2
    endloop
  endfacet
  facet normal 0 0 1
    outer loop
      vertex 0.266859 4.24161 4.2
      vertex 0.796371 4.17472 4.2
      vertex 0.381452 6.06301 4.2
    endloop
  endfacet
  facet normal -0 0 1
    outer loop
      vertex 0.381452 -6.06301 1.2
      vertex 0.475637 -7.56005 1.2
      vertex 1.13834 -5.96739 1.2
    endloop
  endfacet
  facet normal 0.125333 -0.992115 0
    outer loop
      vertex 0.381452 -6.06301 1.2
      vertex 1.13834 -5.96739 1.2
      vertex 1.13834 -5.96739 4.2
    endloop
  endfacet
  facet normal 0.125333 -0.992115 0
    outer loop
      vertex 0.381452 -6.06301 1.2
      vertex 1.13834 -5.96739 4.2
      vertex 0.381452 -6.06301 4.2
    endloop
  endfacet
  facet normal 0 0 1
    outer loop
      vertex 0.381452 -6.06301 4.2
      vertex 1.13834 -5.96739 4.2
      vertex 0.796371 -4.17472 4.2
    endloop
  endfacet
  facet normal 0.125333 0.992115 0
    outer loop
      vertex 0.381452 6.06301 1.2
      vertex 0.381452 6.06301 4.2
      vertex 1.13834 5.96739 1.2
    endloop
  endfacet
  facet normal 0 0 1
    outer loop
      vertex 0.381452 6.06301 1.2
      vertex 1.13834 5.96739 1.2
      vertex 0.475637 7.56005 1.2
    endloop
  endfacet
  facet normal 0 0 1
    outer loop
      vertex 0.381452 6.06301 4.2
      vertex 0.796371 4.17472 4.2
      vertex 1.13834 5.96739 4.2
    endloop
  endfacet
  facet normal 0.125333 0.992115 -0
    outer loop
      vertex 0.381452 6.06301 4.2
      vertex 1.13834 5.96739 4.2
      vertex 1.13834 5.96739 1.2
    endloop
  endfacet
  facet normal 0 0 -1
    outer loop
      vertex 0.475637 -7.56005 0
      vertex 0.796371 -4.17472 0
      vertex 1.41941 -7.44083 0
    endloop
  endfacet
  facet normal 0.125333 -0.992115 0
    outer loop
      vertex 0.475637 -7.56005 0
      vertex 1.41941 -7.44083 0
      vertex 1.41941 -7.44083 1.2
    endloop
  endfacet
  facet normal 0.125333 -0.992115 0
    outer loop
      vertex 0.475637 -7.56005 0
      vertex 1.41941 -7.44083 1.2
      vertex 0.475637 -7.56005 1.2
    endloop
  endfacet
  facet normal 0 0 1
    outer loop
      vertex 0.475637 -7.56005 1.2
      vertex 1.41941 -7.44083 1.2
      vertex 1.13834 -5.96739 1.2
    endloop
  endfacet
  facet normal 0.125333 0.992115 0
    outer loop
      vertex 0.475637 7.56005 0
      vertex 0.475637 7.56005 1.2
      vertex 1.41941 7.44083 0
    endloop
  endfacet
  facet normal 0 0 -1
    outer loop
      vertex 0.475637 7.56005 0
      vertex 1.41941 7.44083 0
      vertex 0.796371 4.17472 0
    endloop
  endfacet
  facet normal 0 0 1
    outer loop
      vertex 0.475637 7.56005 1.2
      vertex 1.13834 5.96739 1.2
      vertex 1.41941 7.44083 1.2
    endloop
  endfacet
  facet normal 0.125333 0.992115 -0
    outer loop
      vertex 0.475637 7.56005 1.2
      vertex 1.41941 7.44083 1.2
      vertex 1.41941 7.44083 0
    endloop
  endfacet
  facet normal -0.248691 0.968583 0
    outer loop
      vertex 0.796371 -4.17472 0
      vertex 0.796371 -4.17472 4.2
      vertex 1.31332 -4.04199 0
    endloop
  endfacet
  facet normal 0 0 -1
    outer loop
      vertex 0.796371 -4.17472 0
      vertex 1.31332 -4.04199 0
      vertex 1.41941 -7.44083 0
    endloop
  endfacet
  facet normal -0 0 1
    outer loop
      vertex 0.796371 -4.17472 4.2
      vertex 1.13834 -5.96739 4.2
      vertex 1.31332 -4.04199 4.2
    endloop
  endfacet
  facet normal -0.248691 0.968583 0
    outer loop
      vertex 0.796371 -4.17472 4.2
      vertex 1.31332 -4.04199 4.2
      vertex 1.31332 -4.04199 0
    endloop
  endfacet
  facet normal -0.248691 -0.968583 -0
    outer loop
      vertex 0.796371 4.17472 0
      vertex 1.31332 4.04199 0
      vertex 1.31332 4.04199 4.2
    endloop
  endfacet
  facet normal -0.248691 -0.968583 0
    outer loop
      vertex 0.796371 4.17472 0
      vertex 1.31332 4.04199 4.2
      vertex 0.796371 4.17472 4.2
    endloop
  endfacet
  facet normal 0 0 -1
    outer loop
      vertex 0.796371 4.17472 0
      vertex 1.41941 7.44083 0
      vertex 1.31332 4.04199 0
    endloop
  endfacet
  facet normal 0 0 1
    outer loop
      vertex 0.796371 4.17472 4.2
      vertex 1.31332 4.04199 4.2
      vertex 1.13834 5.96739 4.2
    endloop
  endfacet
  facet normal -0 0 1
    outer loop
      vertex 1.13834 -5.96739 1.2
      vertex 1.41941 -7.44083 1.2
      vertex 1.87728 -5.77767 1.2
    endloop
  endfacet
  facet normal 0.24869 -0.968583 0
    outer loop
      vertex 1.13834 -5.96739 1.2
      vertex 1.87728 -5.77767 1.2
      vertex 1.87728 -5.77767 4.2
    endloop
  endfacet
  facet normal 0.24869 -0.968583 0
    outer loop
      vertex 1.13834 -5.96739 1.2
      vertex 1.87728 -5.77767 4.2
      vertex 1.13834 -5.96739 4.2
    endloop
  endfacet
  facet normal 0 0 1
    outer loop
      vertex 1.13834 -5.96739 4.2
      vertex 1.87728 -5.77767 4.2
      vertex 1.31332 -4.04199 4.2
    endloop
  endfacet
  facet normal 0.24869 0.968583 0
    outer loop
      vertex 1.13834 5.96739 1.2
      vertex 1.13834 5.96739 4.2
      vertex 1.87728 5.77767 1.2
    endloop
  endfacet
  facet normal 0 0 1
    outer loop
      vertex 1.13834 5.96739 1.2
      vertex 1.87728 5.77767 1.2
      vertex 1.41941 7.44083 1.2
    endloop
  endfacet
  facet normal 0 0 1
    outer loop
      vertex 1.13834 5.96739 4.2
      vertex 1.31332 4.04199 4.2
      vertex 1.87728 5.77767 4.2
    endloop
  endfacet
  facet normal 0.24869 0.968583 -0
    outer loop
      vertex 1.13834 5.96739 4.2
      vertex 1.87728 5.77767 4.2
      vertex 1.87728 5.77767 1.2
    endloop
  endfacet
  facet normal -0.368124 0.929777 0
    outer loop
      vertex 1.31332 -4.04199 0
      vertex 1.31332 -4.04199 4.2
      vertex 1.80956 -3.84551 0
    endloop
  endfacet
  facet normal 0 0 -1
    outer loop
      vertex 1.31332 -4.04199 0
      vertex 1.80956 -3.84551 0
      vertex 2.3408 -7.20425 0
    endloop
  endfacet
  facet normal 0 0 -1
    outer loop
      vertex 1.31332 -4.04199 0
      vertex 2.3408 -7.20425 0
      vertex 1.41941 -7.44083 0
    endloop
  endfacet
  facet normal -0.368124 0.929777 0
    outer loop
      vertex 1.31332 -4.04199 4.2
      vertex 1.80956 -3.84551 4.2
      vertex 1.80956 -3.84551 0
    endloop
  endfacet
  facet normal -0 0 1
    outer loop
      vertex 1.31332 -4.04199 4.2
      vertex 1.87728 -5.77767 4.2
      vertex 1.80956 -3.84551 4.2
    endloop
  endfacet
  facet normal -0 0 -1
    outer loop
      vertex 1.31332 4.04199 0
      vertex 1.41941 7.44083 0
      vertex 2.3408 7.20425 0
    endloop
  endfacet
  facet normal -0.368124 -0.929777 -0
    outer loop
      vertex 1.31332 4.04199 0
      vertex 1.80956 3.84551 0
      vertex 1.80956 3.84551 4.2
    endloop
  endfacet
  facet normal -0.368124 -0.929777 0
    outer loop
      vertex 1.31332 4.04199 0
      vertex 1.80956 3.84551 4.2
      vertex 1.31332 4.04199 4.2
    endloop
  endfacet
  facet normal 0 0 -1
    outer loop
      vertex 1.31332 4.04199 0
      vertex 2.3408 7.20425 0
      vertex 1.80956 3.84551 0
    endloop
  endfacet
  facet normal 0 0 1
    outer loop
      vertex 1.31332 4.04199 4.2
      vertex 1.80956 3.84551 4.2
      vertex 1.87728 5.77767 4.2
    endloop
  endfacet
  facet normal 0.24869 -0.968583 0
    outer loop
      vertex 1.41941 -7.44083 0
      vertex 2.3408 -7.20425 0
      vertex 2.3408 -7.20425 1.2
    endloop
  endfacet
  facet normal 0.24869 -0.968583 0
    outer loop
      vertex 1.41941 -7.44083 0
      vertex 2.3408 -7.20425 1.2
      vertex 1.41941 -7.44083 1.2
    endloop
  endfacet
  facet normal 0 0 1
    outer loop
      vertex 1.41941 -7.44083 1.2
      vertex 2.3408 -7.20425 1.2
      vertex 1.87728 -5.77767 1.2
    endloop
  endfacet
  facet normal 0.24869 0.968583 0
    outer loop
      vertex 1.41941 7.44083 0
      vertex 1.41941 7.44083 1.2
      vertex 2.3408 7.20425 0
    endloop
  endfacet
  facet normal 0 0 1
    outer loop
      vertex 1.41941 7.44083 1.2
      vertex 1.87728 5.77767 1.2
      vertex 2.3408 7.20425 1.2
    endloop
  endfacet
  facet normal 0.24869 0.968583 -0
    outer loop
      vertex 1.41941 7.44083 1.2
      vertex 2.3408 7.20425 1.2
      vertex 2.3408 7.20425 0
    endloop
  endfacet
  facet normal -0.481753 0.876307 0
    outer loop
      vertex 1.80956 -3.84551 0
      vertex 1.80956 -3.84551 4.2
      vertex 2.27726 -3.58839 0
    endloop
  endfacet
  facet normal 0 0 -1
    outer loop
      vertex 1.80956 -3.84551 0
      vertex 2.27726 -3.58839 0
      vertex 3.22528 -6.85406 0
    endloop
  endfacet
  facet normal 0 0 -1
    outer loop
      vertex 1.80956 -3.84551 0
      vertex 3.22528 -6.85406 0
      vertex 2.3408 -7.20425 0
    endloop
  endfacet
  facet normal 0 0 1
    outer loop
      vertex 1.80956 -3.84551 4.2
      vertex 1.87728 -5.77767 4.2
      vertex 2.58661 -5.49682 4.2
    endloop
  endfacet
  facet normal -0.481753 0.876307 0
    outer loop
      vertex 1.80956 -3.84551 4.2
      vertex 2.27726 -3.58839 4.2
      vertex 2.27726 -3.58839 0
    endloop
  endfacet
  facet normal -0 0 1
    outer loop
      vertex 1.80956 -3.84551 4.2
      vertex 2.58661 -5.49682 4.2
      vertex 2.27726 -3.58839 4.2
    endloop
  endfacet
  facet normal -0.481753 -0.876307 -0
    outer loop
      vertex 1.80956 3.84551 0
      vertex 2.27726 3.58839 0
      vertex 2.27726 3.58839 4.2
    endloop
  endfacet
  facet normal -0.481753 -0.876307 0
    outer loop
      vertex 1.80956 3.84551 0
      vertex 2.27726 3.58839 4.2
      vertex 1.80956 3.84551 4.2
    endloop
  endfacet
  facet normal -0 0 -1
    outer loop
      vertex 1.80956 3.84551 0
      vertex 2.3408 7.20425 0
      vertex 3.22528 6.85406 0
    endloop
  endfacet
  facet normal 0 0 -1
    outer loop
      vertex 1.80956 3.84551 0
      vertex 3.22528 6.85406 0
      vertex 2.27726 3.58839 0
    endloop
  endfacet
  facet normal 0 0 1
    outer loop
      vertex 1.80956 3.84551 4.2
      vertex 2.27726 3.58839 4.2
      vertex 2.58661 5.49682 4.2
    endloop
  endfacet
  facet normal 0 0 1
    outer loop
      vertex 1.80956 3.84551 4.2
      vertex 2.58661 5.49682 4.2
      vertex 1.87728 5.77767 4.2
    endloop
  endfacet
  facet normal -0 0 1
    outer loop
      vertex 1.87728 -5.77767 1.2
      vertex 2.3408 -7.20425 1.2
      vertex 2.58661 -5.49682 1.2
    endloop
  endfacet
  facet normal 0.368124 -0.929777 0
    outer loop
      vertex 1.87728 -5.77767 1.2
      vertex 2.58661 -5.49682 1.2
      vertex 2.58661 -5.49682 4.2
    endloop
  endfacet
  facet normal 0.368124 -0.929777 0
    outer loop
      vertex 1.87728 -5.77767 1.2
      vertex 2.58661 -5.49682 4.2
      vertex 1.87728 -5.77767 4.2
    endloop
  endfacet
  facet normal 0.368124 0.929777 0
    outer loop
      vertex 1.87728 5.77767 1.2
      vertex 1.87728 5.77767 4.2
      vertex 2.58661 5.49682 1.2
    endloop
  endfacet
  facet normal 0 0 1
    outer loop
      vertex 1.87728 5.77767 1.2
      vertex 2.58661 5.49682 1.2
      vertex 2.3408 7.20425 1.2
    endloop
  endfacet
  facet normal 0.368124 0.929777 -0
    outer loop
      vertex 1.87728 5.77767 4.2
      vertex 2.58661 5.49682 4.2
      vertex 2.58661 5.49682 1.2
    endloop
  endfacet
  facet normal -0.587785 0.809017 0
    outer loop
      vertex 2.27726 -3.58839 0
      vertex 2.27726 -3.58839 4.2
      vertex 2.70905 -3.27468 0
    endloop
  endfacet
  facet normal 0 0 -1
    outer loop
      vertex 2.27726 -3.58839 0
      vertex 2.70905 -3.27468 0
      vertex 4.05889 -6.39578 0
    endloop
  endfacet
  facet normal 0 0 -1
    outer loop
      vertex 2.27726 -3.58839 0
      vertex 4.05889 -6.39578 0
      vertex 3.22528 -6.85406 0
    endloop
  endfacet
  facet normal 0 0 1
    outer loop
      vertex 2.27726 -3.58839 4.2
      vertex 2.58661 -5.49682 4.2
      vertex 3.25515 -5.12929 4.2
    endloop
  endfacet
  facet normal -0.587785 0.809017 0
    outer loop
      vertex 2.27726 -3.58839 4.2
      vertex 2.70905 -3.27468 4.2
      vertex 2.70905 -3.27468 0
    endloop
  endfacet
  facet normal -0 0 1
    outer loop
      vertex 2.27726 -3.58839 4.2
      vertex 3.25515 -5.12929 4.2
      vertex 2.70905 -3.27468 4.2
    endloop
  endfacet
  facet normal -0.587785 -0.809017 -0
    outer loop
      vertex 2.27726 3.58839 0
      vertex 2.70905 3.27468 0
      vertex 2.70905 3.27468 4.2
    endloop
  endfacet
  facet normal -0.587785 -0.809017 0
    outer loop
      vertex 2.27726 3.58839 0
      vertex 2.70905 3.27468 4.2
      vertex 2.27726 3.58839 4.2
    endloop
  endfacet
  facet normal -0 0 -1
    outer loop
      vertex 2.27726 3.58839 0
      vertex 3.22528 6.85406 0
      vertex 4.05889 6.39578 0
    endloop
  endfacet
  facet normal 0 0 -1
    outer loop
      vertex 2.27726 3.58839 0
      vertex 4.05889 6.39578 0
      vertex 2.70905 3.27468 0
    endloop
  endfacet
  facet normal 0 0 1
    outer loop
      vertex 2.27726 3.58839 4.2
      vertex 2.70905 3.27468 4.2
      vertex 3.25515 5.12929 4.2
    endloop
  endfacet
  facet normal 0 0 1
    outer loop
      vertex 2.27726 3.58839 4.2
      vertex 3.25515 5.12929 4.2
      vertex 2.58661 5.49682 4.2
    endloop
  endfacet
  facet normal 0.368124 -0.929777 0
    outer loop
      vertex 2.3408 -7.20425 0
      vertex 3.22528 -6.85406 0
      vertex 3.22528 -6.85406 1.2
    endloop
  endfacet
  facet normal 0.368124 -0.929777 0
    outer loop
      vertex 2.3408 -7.20425 0
      vertex 3.22528 -6.85406 1.2
      vertex 2.3408 -7.20425 1.2
    endloop
  endfacet
  facet normal 0 0 1
    outer loop
      vertex 2.3408 -7.20425 1.2
      vertex 3.22528 -6.85406 1.2
      vertex 2.58661 -5.49682 1.2
    endloop
  endfacet
  facet normal 0.368124 0.929777 0
    outer loop
      vertex 2.3408 7.20425 0
      vertex 2.3408 7.20425 1.2
      vertex 3.22528 6.85406 0
    endloop
  endfacet
  facet normal 0 0 1
    outer loop
      vertex 2.3408 7.20425 1.2
      vertex 2.58661 5.49682 1.2
      vertex 3.22528 6.85406 1.2
    endloop
  endfacet
  facet normal 0.368124 0.929777 -0
    outer loop
      vertex 2.3408 7.20425 1.2
      vertex 3.22528 6.85406 1.2
      vertex 3.22528 6.85406 0
    endloop
  endfacet
  facet normal -0 0 1
    outer loop
      vertex 2.58661 -5.49682 1.2
      vertex 3.22528 -6.85406 1.2
      vertex 3.25515 -5.12929 1.2
    endloop
  endfacet
  facet normal 0.481754 -0.876306 0
    outer loop
      vertex 2.58661 -5.49682 1.2
      vertex 3.25515 -5.12929 1.2
      vertex 3.25515 -5.12929 4.2
    endloop
  endfacet
  facet normal 0.481754 -0.876306 0
    outer loop
      vertex 2.58661 -5.49682 1.2
      vertex 3.25515 -5.12929 4.2
      vertex 2.58661 -5.49682 4.2
    endloop
  endfacet
  facet normal 0.481754 0.876306 0
    outer loop
      vertex 2.58661 5.49682 1.2
      vertex 2.58661 5.49682 4.2
      vertex 3.25515 5.12929 1.2
    endloop
  endfacet
  facet normal 0 0 1
    outer loop
      vertex 2.58661 5.49682 1.2
      vertex 3.25515 5.12929 1.2
      vertex 3.22528 6.85406 1.2
    endloop
  endfacet
  facet normal 0.481754 0.876306 -0
    outer loop
      vertex 2.58661 5.49682 4.2
      vertex 3.25515 5.12929 4.2
      vertex 3.25515 5.12929 1.2
    endloop
  endfacet
  facet normal -0.684547 0.728968 0
    outer loop
      vertex 2.70905 -3.27468 0
      vertex 2.70905 -3.27468 4.2
      vertex 3.09812 -2.90932 0
    endloop
  endfacet
  facet normal 0 0 -1
    outer loop
      vertex 2.70905 -3.27468 0
      vertex 3.09812 -2.90932 0
      vertex 4.82849 -5.83664 0
    endloop
  endfacet
  facet normal 0 0 -1
    outer loop
      vertex 2.70905 -3.27468 0
      vertex 4.82849 -5.83664 0
      vertex 4.05889 -6.39578 0
    endloop
  endfacet
  facet normal -0.684547 0.728968 0
    outer loop
      vertex 2.70905 -3.27468 4.2
      vertex 3.09812 -2.90932 4.2
      vertex 3.09812 -2.90932 0
    endloop
  endfacet
  facet normal 0 0 1
    outer loop
      vertex 2.70905 -3.27468 4.2
      vertex 3.25515 -5.12929 4.2
      vertex 3.87235 -4.68087 4.2
    endloop
  endfacet
  facet normal -0 0 1
    outer loop
      vertex 2.70905 -3.27468 4.2
      vertex 3.87235 -4.68087 4.2
      vertex 3.09812 -2.90932 4.2
    endloop
  endfacet
  facet normal -0.684547 -0.728968 -0
    outer loop
      vertex 2.70905 3.27468 0
      vertex 3.09812 2.90932 0
      vertex 3.09812 2.90932 4.2
    endloop
  endfacet
  facet normal -0.684547 -0.728968 0
    outer loop
      vertex 2.70905 3.27468 0
      vertex 3.09812 2.90932 4.2
      vertex 2.70905 3.27468 4.2
    endloop
  endfacet
  facet normal -0 0 -1
    outer loop
      vertex 2.70905 3.27468 0
      vertex 4.05889 6.39578 0
      vertex 4.82849 5.83664 0
    endloop
  endfacet
  facet normal 0 0 -1
    outer loop
      vertex 2.70905 3.27468 0
      vertex 4.82849 5.83664 0
      vertex 3.09812 2.90932 0
    endloop
  endfacet
  facet normal 0 0 1
    outer loop
      vertex 2.70905 3.27468 4.2
      vertex 3.09812 2.90932 4.2
      vertex 3.87235 4.68087 4.2
    endloop
  endfacet
  facet normal 0 0 1
    outer loop
      vertex 2.70905 3.27468 4.2
      vertex 3.87235 4.68087 4.2
      vertex 3.25515 5.12929 4.2
    endloop
  endfacet
  facet normal -0.770513 0.637425 0
    outer loop
      vertex 3.09812 -2.90932 0
      vertex 3.09812 -2.90932 4.2
      vertex 3.43832 -2.49809 4.2
    endloop
  endfacet
  facet normal 0 0 -1
    outer loop
      vertex 3.09812 -2.90932 0
      vertex 3.43832 -2.49809 0
      vertex 5.52194 -5.18544 0
    endloop
  endfacet
  facet normal -0.770513 0.637425 0
    outer loop
      vertex 3.09812 -2.90932 0
      vertex 3.43832 -2.49809 4.2
      vertex 3.43832 -2.49809 0
    endloop
  endfacet
  facet normal 0 0 -1
    outer loop
      vertex 3.09812 -2.90932 0
      vertex 5.52194 -5.18544 0
      vertex 4.82849 -5.83664 0
    endloop
  endfacet
  facet normal 0 0 1
    outer loop
      vertex 3.09812 -2.90932 4.2
      vertex 3.87235 -4.68087 4.2
      vertex 4.42848 -4.15862 4.2
    endloop
  endfacet
  facet normal -0 0 1
    outer loop
      vertex 3.09812 -2.90932 4.2
      vertex 4.42848 -4.15862 4.2
      vertex 3.43832 -2.49809 4.2
    endloop
  endfacet
  facet normal -0.770513 -0.637425 0
    outer loop
      vertex 3.09812 2.90932 0
      vertex 3.43832 2.49809 0
      vertex 3.09812 2.90932 4.2
    endloop
  endfacet
  facet normal -0 0 -1
    outer loop
      vertex 3.09812 2.90932 0
      vertex 4.82849 5.83664 0
      vertex 5.52194 5.18544 0
    endloop
  endfacet
  facet normal 0 0 -1
    outer loop
      vertex 3.09812 2.90932 0
      vertex 5.52194 5.18544 0
      vertex 3.43832 2.49809 0
    endloop
  endfacet
  facet normal -0.770513 -0.637425 0
    outer loop
      vertex 3.09812 2.90932 4.2
      vertex 3.43832 2.49809 0
      vertex 3.43832 2.49809 4.2
    endloop
  endfacet
  facet normal 0 0 1
    outer loop
      vertex 3.09812 2.90932 4.2
      vertex 3.43832 2.49809 4.2
      vertex 4.42848 4.15862 4.2
    endloop
  endfacet
  facet normal 0 0 1
    outer loop
      vertex 3.09812 2.90932 4.2
      vertex 4.42848 4.15862 4.2
      vertex 3.87235 4.68087 4.2
    endloop
  endfacet
  facet normal 0.481754 -0.876307 0
    outer loop
      vertex 3.22528 -6.85406 0
      vertex 4.05889 -6.39578 0
      vertex 4.05889 -6.39578 1.2
    endloop
  endfacet
  facet normal 0.481754 -0.876307 0
    outer loop
      vertex 3.22528 -6.85406 0
      vertex 4.05889 -6.39578 1.2
      vertex 3.22528 -6.85406 1.2
    endloop
  endfacet
  facet normal 0 0 1
    outer loop
      vertex 3.22528 -6.85406 1.2
      vertex 4.05889 -6.39578 1.2
      vertex 3.25515 -5.12929 1.2
    endloop
  endfacet
  facet normal 0.481754 0.876307 0
    outer loop
      vertex 3.22528 6.85406 0
      vertex 3.22528 6.85406 1.2
      vertex 4.05889 6.39578 0
    endloop
  endfacet
  facet normal 0 0 1
    outer loop
      vertex 3.22528 6.85406 1.2
      vertex 3.25515 5.12929 1.2
      vertex 4.05889 6.39578 1.2
    endloop
  endfacet
  facet normal 0.481754 0.876307 -0
    outer loop
      vertex 3.22528 6.85406 1.2
      vertex 4.05889 6.39578 1.2
      vertex 4.05889 6.39578 0
    endloop
  endfacet
  facet normal 0.587785 -0.809017 0
    outer loop
      vertex 3.25515 -5.12929 1.2
      vertex 3.87235 -4.68087 1.2
      vertex 3.87235 -4.68087 4.2
    endloop
  endfacet
  facet normal 0.587785 -0.809017 0
    outer loop
      vertex 3.25515 -5.12929 1.2
      vertex 3.87235 -4.68087 4.2
      vertex 3.25515 -5.12929 4.2
    endloop
  endfacet
  facet normal -0 0 1
    outer loop
      vertex 3.25515 -5.12929 1.2
      vertex 4.05889 -6.39578 1.2
      vertex 3.87235 -4.68087 1.2
    endloop
  endfacet
  facet normal 0.587785 0.809017 0
    outer loop
      vertex 3.25515 5.12929 1.2
      vertex 3.25515 5.12929 4.2
      vertex 3.87235 4.68087 1.2
    endloop
  endfacet
  facet normal 0 0 1
    outer loop
      vertex 3.25515 5.12929 1.2
      vertex 3.87235 4.68087 1.2
      vertex 4.05889 6.39578 1.2
    endloop
  endfacet
  facet normal 0.587785 0.809017 -0
    outer loop
      vertex 3.25515 5.12929 4.2
      vertex 3.87235 4.68087 4.2
      vertex 3.87235 4.68087 1.2
    endloop
  endfacet
  facet normal -0.844328 0.535827 0
    outer loop
      vertex 3.43832 -2.49809 0
      vertex 3.43832 -2.49809 4.2
      vertex 3.7243 -2.04745 4.2
    endloop
  endfacet
  facet normal 0 0 -1
    outer loop
      vertex 3.43832 -2.49809 0
      vertex 3.7243 -2.04745 0
      vertex 6.1283 -4.45247 0
    endloop
  endfacet
  facet normal -0.844328 0.535827 0
    outer loop
      vertex 3.43832 -2.49809 0
      vertex 3.7243 -2.04745 4.2
      vertex 3.7243 -2.04745 0
    endloop
  endfacet
  facet normal 0 0 -1
    outer loop
      vertex 3.43832 -2.49809 0
      vertex 6.1283 -4.45247 0
      vertex 5.52194 -5.18544 0
    endloop
  endfacet
  facet normal 0 0 1
    outer loop
      vertex 3.43832 -2.49809 4.2
      vertex 4.42848 -4.15862 4.2
      vertex 4.91478 -3.5708 4.2
    endloop
  endfacet
  facet normal -0 0 1
    outer loop
      vertex 3.43832 -2.49809 4.2
      vertex 4.91478 -3.5708 4.2
      vertex 3.7243 -2.04745 4.2
    endloop
  endfacet
  facet normal -0.844328 -0.535827 0
    outer loop
      vertex 3.43832 2.49809 0
      vertex 3.7243 2.04745 0
      vertex 3.43832 2.49809 4.2
    endloop
  endfacet
  facet normal -0 0 -1
    outer loop
      vertex 3.43832 2.49809 0
      vertex 5.52194 5.18544 0
      vertex 6.1283 4.45247 0
    endloop
  endfacet
  facet normal 0 0 -1
    outer loop
      vertex 3.43832 2.49809 0
      vertex 6.1283 4.45247 0
      vertex 3.7243 2.04745 0
    endloop
  endfacet
  facet normal -0.844328 -0.535827 0
    outer loop
      vertex 3.43832 2.49809 4.2
      vertex 3.7243 2.04745 0
      vertex 3.7243 2.04745 4.2
    endloop
  endfacet
  facet normal 0 0 1
    outer loop
      vertex 3.43832 2.49809 4.2
      vertex 3.7243 2.04745 4.2
      vertex 4.91478 3.5708 4.2
    endloop
  endfacet
  facet normal 0 0 1
    outer loop
      vertex 3.43832 2.49809 4.2
      vertex 4.91478 3.5708 4.2
      vertex 4.42848 4.15862 4.2
    endloop
  endfacet
  facet normal -0.904828 0.425778 0
    outer loop
      vertex 3.7243 -2.04745 0
      vertex 3.7243 -2.04745 4.2
      vertex 3.95155 -1.56453 4.2
    endloop
  endfacet
  facet normal 0 0 -1
    outer loop
      vertex 3.7243 -2.04745 0
      vertex 3.95155 -1.56453 0
      vertex 6.63802 -3.64928 0
    endloop
  endfacet
  facet normal -0.904828 0.425778 0
    outer loop
      vertex 3.7243 -2.04745 0
      vertex 3.95155 -1.56453 4.2
      vertex 3.95155 -1.56453 0
    endloop
  endfacet
  facet normal 0 0 -1
    outer loop
      vertex 3.7243 -2.04745 0
      vertex 6.63802 -3.64928 0
      vertex 6.1283 -4.45247 0
    endloop
  endfacet
  facet normal 0 0 1
    outer loop
      vertex 3.7243 -2.04745 4.2
      vertex 4.91478 -3.5708 4.2
      vertex 5.32356 -2.92665 4.2
    endloop
  endfacet
  facet normal -0 0 1
    outer loop
      vertex 3.7243 -2.04745 4.2
      vertex 5.32356 -2.92665 4.2
      vertex 3.95155 -1.56453 4.2
    endloop
  endfacet
  facet normal -0.904828 -0.425778 0
    outer loop
      vertex 3.7243 2.04745 0
      vertex 3.95155 1.56453 0
      vertex 3.7243 2.04745 4.2
    endloop
  endfacet
  facet normal -0 0 -1
    outer loop
      vertex 3.7243 2.04745 0
      vertex 6.1283 4.45247 0
      vertex 6.63802 3.64928 0
    endloop
  endfacet
  facet normal 0 0 -1
    outer loop
      vertex 3.7243 2.04745 0
      vertex 6.63802 3.64928 0
      vertex 3.95155 1.56453 0
    endloop
  endfacet
  facet normal -0.904828 -0.425778 0
    outer loop
      vertex 3.7243 2.04745 4.2
      vertex 3.95155 1.56453 0
      vertex 3.95155 1.56453 4.2
    endloop
  endfacet
  facet normal 0 0 1
    outer loop
      vertex 3.7243 2.04745 4.2
      vertex 3.95155 1.56453 4.2
      vertex 5.32356 2.92665 4.2
    endloop
  endfacet
  facet normal 0 0 1
    outer loop
      vertex 3.7243 2.04745 4.2
      vertex 5.32356 2.92665 4.2
      vertex 4.91478 3.5708 4.2
    endloop
  endfacet
  facet normal 0 0 1
    outer loop
      vertex 3.87235 -4.68087 1.2
      vertex 4.05889 -6.39578 1.2
      vertex 4.82849 -5.83664 1.2
    endloop
  endfacet
  facet normal 0.684547 -0.728968 0
    outer loop
      vertex 3.87235 -4.68087 1.2
      vertex 4.42848 -4.15862 1.2
      vertex 4.42848 -4.15862 4.2
    endloop
  endfacet
  facet normal 0.684547 -0.728968 0
    outer loop
      vertex 3.87235 -4.68087 1.2
      vertex 4.42848 -4.15862 4.2
      vertex 3.87235 -4.68087 4.2
    endloop
  endfacet
  facet normal -0 0 1
    outer loop
      vertex 3.87235 -4.68087 1.2
      vertex 4.82849 -5.83664 1.2
      vertex 4.42848 -4.15862 1.2
    endloop
  endfacet
  facet normal 0.684547 0.728968 0
    outer loop
      vertex 3.87235 4.68087 1.2
      vertex 3.87235 4.68087 4.2
      vertex 4.42848 4.15862 1.2
    endloop
  endfacet
  facet normal 0 0 1
    outer loop
      vertex 3.87235 4.68087 1.2
      vertex 4.42848 4.15862 1.2
      vertex 4.82849 5.83664 1.2
    endloop
  endfacet
  facet normal 0 0 1
    outer loop
      vertex 3.87235 4.68087 1.2
      vertex 4.82849 5.83664 1.2
      vertex 4.05889 6.39578 1.2
    endloop
  endfacet
  facet normal 0.684547 0.728968 -0
    outer loop
      vertex 3.87235 4.68087 4.2
      vertex 4.42848 4.15862 4.2
      vertex 4.42848 4.15862 1.2
    endloop
  endfacet
  facet normal -0.951056 0.309017 0
    outer loop
      vertex 3.95155 -1.56453 0
      vertex 3.95155 -1.56453 4.2
      vertex 4.11648 -1.05693 4.2
    endloop
  endfacet
  facet normal 0 0 -1
    outer loop
      vertex 3.95155 -1.56453 0
      vertex 4.11648 -1.05693 0
      vertex 7.04306 -2.78854 0
    endloop
  endfacet
  facet normal -0.951056 0.309017 0
    outer loop
      vertex 3.95155 -1.56453 0
      vertex 4.11648 -1.05693 4.2
      vertex 4.11648 -1.05693 0
    endloop
  endfacet
  facet normal 0 0 -1
    outer loop
      vertex 3.95155 -1.56453 0
      vertex 7.04306 -2.78854 0
      vertex 6.63802 -3.64928 0
    endloop
  endfacet
  facet normal 0 0 1
    outer loop
      vertex 3.95155 -1.56453 4.2
      vertex 5.32356 -2.92665 4.2
      vertex 5.64839 -2.23636 4.2
    endloop
  endfacet
  facet normal -0 0 1
    outer loop
      vertex 3.95155 -1.56453 4.2
      vertex 5.64839 -2.23636 4.2
      vertex 4.11648 -1.05693 4.2
    endloop
  endfacet
  facet normal -0.951056 -0.309017 0
    outer loop
      vertex 3.95155 1.56453 0
      vertex 4.11648 1.05693 0
      vertex 3.95155 1.56453 4.2
    endloop
  endfacet
  facet normal -0 0 -1
    outer loop
      vertex 3.95155 1.56453 0
      vertex 6.63802 3.64928 0
      vertex 7.04306 2.78854 0
    endloop
  endfacet
  facet normal 0 0 -1
    outer loop
      vertex 3.95155 1.56453 0
      vertex 7.04306 2.78854 0
      vertex 4.11648 1.05693 0
    endloop
  endfacet
  facet normal -0.951056 -0.309017 0
    outer loop
      vertex 3.95155 1.56453 4.2
      vertex 4.11648 1.05693 0
      vertex 4.11648 1.05693 4.2
    endloop
  endfacet
  facet normal 0 0 1
    outer loop
      vertex 3.95155 1.56453 4.2
      vertex 4.11648 1.05693 4.2
      vertex 5.64839 2.23636 4.2
    endloop
  endfacet
  facet normal 0 0 1
    outer loop
      vertex 3.95155 1.56453 4.2
      vertex 5.64839 2.23636 4.2
      vertex 5.32356 2.92665 4.2
    endloop
  endfacet
  facet normal 0.587785 -0.809017 0
    outer loop
      vertex 4.05889 -6.39578 0
      vertex 4.82849 -5.83664 0
      vertex 4.82849 -5.83664 1.2
    endloop
  endfacet
  facet normal 0.587785 -0.809017 0
    outer loop
      vertex 4.05889 -6.39578 0
      vertex 4.82849 -5.83664 1.2
      vertex 4.05889 -6.39578 1.2
    endloop
  endfacet
  facet normal 0.587785 0.809017 0
    outer loop
      vertex 4.05889 6.39578 0
      vertex 4.05889 6.39578 1.2
      vertex 4.82849 5.83664 0
    endloop
  endfacet
  facet normal 0.587785 0.809017 -0
    outer loop
      vertex 4.05889 6.39578 1.2
      vertex 4.82849 5.83664 1.2
      vertex 4.82849 5.83664 0
    endloop
  endfacet
  facet normal -0.982287 0.187381 0
    outer loop
      vertex 4.11648 -1.05693 0
      vertex 4.11648 -1.05693 4.2
      vertex 4.21649 -0.532666 4.2
    endloop
  endfacet
  facet normal 0 0 -1
    outer loop
      vertex 4.11648 -1.05693 0
      vertex 4.21649 -0.532666 0
      vertex 7.33702 -1.88383 0
    endloop
  endfacet
  facet normal -0.982287 0.187381 0
    outer loop
      vertex 4.11648 -1.05693 0
      vertex 4.21649 -0.532666 4.2
      vertex 4.21649 -0.532666 0
    endloop
  endfacet
  facet normal 0 0 -1
    outer loop
      vertex 4.11648 -1.05693 0
      vertex 7.33702 -1.88383 0
      vertex 7.04306 -2.78854 0
    endloop
  endfacet
  facet normal 0 0 1
    outer loop
      vertex 4.11648 -1.05693 4.2
      vertex 5.64839 -2.23636 4.2
      vertex 5.88414 -1.51079 4.2
    endloop
  endfacet
  facet normal -0 0 1
    outer loop
      vertex 4.11648 -1.05693 4.2
      vertex 5.88414 -1.51079 4.2
      vertex 4.21649 -0.532666 4.2
    endloop
  endfacet
  facet normal -0.982287 -0.187381 0
    outer loop
      vertex 4.11648 1.05693 0
      vertex 4.21649 0.532666 0
      vertex 4.11648 1.05693 4.2
    endloop
  endfacet
  facet normal -0 0 -1
    outer loop
      vertex 4.11648 1.05693 0
      vertex 7.04306 2.78854 0
      vertex 7.33702 1.88383 0
    endloop
  endfacet
  facet normal 0 0 -1
    outer loop
      vertex 4.11648 1.05693 0
      vertex 7.33702 1.88383 0
      vertex 4.21649 0.532666 0
    endloop
  endfacet
  facet normal -0.982287 -0.187381 0
    outer loop
      vertex 4.11648 1.05693 4.2
      vertex 4.21649 0.532666 0
      vertex 4.21649 0.532666 4.2
    endloop
  endfacet
  facet normal 0 0 1
    outer loop
      vertex 4.11648 1.05693 4.2
      vertex 4.21649 0.532666 4.2
      vertex 5.88414 1.51079 4.2
    endloop
  endfacet
  facet normal 0 0 1
    outer loop
      vertex 4.11648 1.05693 4.2
      vertex 5.88414 1.51079 4.2
      vertex 5.64839 2.23636 4.2
    endloop
  endfacet
  facet normal -0.998027 0.0627915 0
    outer loop
      vertex 4.21649 -0.532666 0
      vertex 4.21649 -0.532666 4.2
      vertex 4.25 0 4.2
    endloop
  endfacet
  facet normal 0 0 -1
    outer loop
      vertex 4.21649 -0.532666 0
      vertex 4.25 0 0
      vertex 7.51527 -0.949399 0
    endloop
  endfacet
  facet normal -0.998027 0.0627915 0
    outer loop
      vertex 4.21649 -0.532666 0
      vertex 4.25 0 4.2
      vertex 4.25 0 0
    endloop
  endfacet
  facet normal 0 0 -1
    outer loop
      vertex 4.21649 -0.532666 0
      vertex 7.51527 -0.949399 0
      vertex 7.33702 -1.88383 0
    endloop
  endfacet
  facet normal 0 0 1
    outer loop
      vertex 4.21649 -0.532666 4.2
      vertex 5.88414 -1.51079 4.2
      vertex 6.0271 -0.761399 4.2
    endloop
  endfacet
  facet normal -0 0 1
    outer loop
      vertex 4.21649 -0.532666 4.2
      vertex 6.0271 -0.761399 4.2
      vertex 4.25 0 4.2
    endloop
  endfacet
  facet normal -0.998027 -0.0627915 0
    outer loop
      vertex 4.21649 0.532666 0
      vertex 4.25 0 0
      vertex 4.21649 0.532666 4.2
    endloop
  endfacet
  facet normal -0 0 -1
    outer loop
      vertex 4.21649 0.532666 0
      vertex 7.33702 1.88383 0
      vertex 7.51527 0.949399 0
    endloop
  endfacet
  facet normal 0 0 -1
    outer loop
      vertex 4.21649 0.532666 0
      vertex 7.51527 0.949399 0
      vertex 4.25 0 0
    endloop
  endfacet
  facet normal -0.998027 -0.0627915 0
    outer loop
      vertex 4.21649 0.532666 4.2
      vertex 4.25 0 0
      vertex 4.25 0 4.2
    endloop
  endfacet
  facet normal 0 0 1
    outer loop
      vertex 4.21649 0.532666 4.2
      vertex 4.25 0 4.2
      vertex 6.0271 0.761399 4.2
    endloop
  endfacet
  facet normal 0 0 1
    outer loop
      vertex 4.21649 0.532666 4.2
      vertex 6.0271 0.761399 4.2
      vertex 5.88414 1.51079 4.2
    endloop
  endfacet
  facet normal 0 0 -1
    outer loop
      vertex 4.25 0 0
      vertex 7.51527 0.949399 0
      vertex 7.575 0 0
    endloop
  endfacet
  facet normal 0 0 -1
    outer loop
      vertex 4.25 0 0
      vertex 7.575 0 0
      vertex 7.51527 -0.949399 0
    endloop
  endfacet
  facet normal 0 0 1
    outer loop
      vertex 4.25 0 4.2
      vertex 6.0271 -0.761399 4.2
      vertex 6.075 0 4.2
    endloop
  endfacet
  facet normal 0 0 1
    outer loop
      vertex 4.25 0 4.2
      vertex 6.075 0 4.2
      vertex 6.0271 0.761399 4.2
    endloop
  endfacet
  facet normal 0 0 1
    outer loop
      vertex 4.42848 -4.15862 1.2
      vertex 4.82849 -5.83664 1.2
      vertex 5.52194 -5.18544 1.2
    endloop
  endfacet
  facet normal 0.770513 -0.637424 0
    outer loop
      vertex 4.42848 -4.15862 1.2
      vertex 4.91478 -3.5708 1.2
      vertex 4.42848 -4.15862 4.2
    endloop
  endfacet
  facet normal -0 0 1
    outer loop
      vertex 4.42848 -4.15862 1.2
      vertex 5.52194 -5.18544 1.2
      vertex 4.91478 -3.5708 1.2
    endloop
  endfacet
  facet normal 0.770513 -0.637424 0
    outer loop
      vertex 4.42848 -4.15862 4.2
      vertex 4.91478 -3.5708 1.2
      vertex 4.91478 -3.5708 4.2
    endloop
  endfacet
  facet normal 0.770513 0.637424 0
    outer loop
      vertex 4.42848 4.15862 1.2
      vertex 4.42848 4.15862 4.2
      vertex 4.91478 3.5708 4.2
    endloop
  endfacet
  facet normal 0 0 1
    outer loop
      vertex 4.42848 4.15862 1.2
      vertex 4.91478 3.5708 1.2
      vertex 5.52194 5.18544 1.2
    endloop
  endfacet
  facet normal 0.770513 0.637424 0
    outer loop
      vertex 4.42848 4.15862 1.2
      vertex 4.91478 3.5708 4.2
      vertex 4.91478 3.5708 1.2
    endloop
  endfacet
  facet normal 0 0 1
    outer loop
      vertex 4.42848 4.15862 1.2
      vertex 5.52194 5.18544 1.2
      vertex 4.82849 5.83664 1.2
    endloop
  endfacet
  facet normal 0.684548 -0.728968 0
    outer loop
      vertex 4.82849 -5.83664 0
      vertex 5.52194 -5.18544 0
      vertex 5.52194 -5.18544 1.2
    endloop
  endfacet
  facet normal 0.684548 -0.728968 0
    outer loop
      vertex 4.82849 -5.83664 0
      vertex 5.52194 -5.18544 1.2
      vertex 4.82849 -5.83664 1.2
    endloop
  endfacet
  facet normal 0.684548 0.728968 0
    outer loop
      vertex 4.82849 5.83664 0
      vertex 4.82849 5.83664 1.2
      vertex 5.52194 5.18544 0
    endloop
  endfacet
  facet normal 0.684548 0.728968 -0
    outer loop
      vertex 4.82849 5.83664 1.2
      vertex 5.52194 5.18544 1.2
      vertex 5.52194 5.18544 0
    endloop
  endfacet
  facet normal 0.844328 -0.535827 0
    outer loop
      vertex 4.91478 -3.5708 1.2
      vertex 5.32356 -2.92665 1.2
      vertex 4.91478 -3.5708 4.2
    endloop
  endfacet
  facet normal 0 0 1
    outer loop
      vertex 4.91478 -3.5708 1.2
      vertex 5.52194 -5.18544 1.2
      vertex 6.1283 -4.45247 1.2
    endloop
  endfacet
  facet normal -0 0 1
    outer loop
      vertex 4.91478 -3.5708 1.2
      vertex 6.1283 -4.45247 1.2
      vertex 5.32356 -2.92665 1.2
    endloop
  endfacet
  facet normal 0.844328 -0.535827 0
    outer loop
      vertex 4.91478 -3.5708 4.2
      vertex 5.32356 -2.92665 1.2
      vertex 5.32356 -2.92665 4.2
    endloop
  endfacet
  facet normal 0.844328 0.535827 0
    outer loop
      vertex 4.91478 3.5708 1.2
      vertex 4.91478 3.5708 4.2
      vertex 5.32356 2.92665 4.2
    endloop
  endfacet
  facet normal 0 0 1
    outer loop
      vertex 4.91478 3.5708 1.2
      vertex 5.32356 2.92665 1.2
      vertex 6.1283 4.45247 1.2
    endloop
  endfacet
  facet normal 0.844328 0.535827 0
    outer loop
      vertex 4.91478 3.5708 1.2
      vertex 5.32356 2.92665 4.2
      vertex 5.32356 2.92665 1.2
    endloop
  endfacet
  facet normal 0 0 1
    outer loop
      vertex 4.91478 3.5708 1.2
      vertex 6.1283 4.45247 1.2
      vertex 5.52194 5.18544 1.2
    endloop
  endfacet
  facet normal 0.904827 -0.425779 0
    outer loop
      vertex 5.32356 -2.92665 1.2
      vertex 5.64839 -2.23636 1.2
      vertex 5.32356 -2.92665 4.2
    endloop
  endfacet
  facet normal 0 0 1
    outer loop
      vertex 5.32356 -2.92665 1.2
      vertex 6.1283 -4.45247 1.2
      vertex 6.63802 -3.64928 1.2
    endloop
  endfacet
  facet normal -0 0 1
    outer loop
      vertex 5.32356 -2.92665 1.2
      vertex 6.63802 -3.64928 1.2
      vertex 5.64839 -2.23636 1.2
    endloop
  endfacet
  facet normal 0.904827 -0.425779 0
    outer loop
      vertex 5.32356 -2.92665 4.2
      vertex 5.64839 -2.23636 1.2
      vertex 5.64839 -2.23636 4.2
    endloop
  endfacet
  facet normal 0.904827 0.425779 0
    outer loop
      vertex 5.32356 2.92665 1.2
      vertex 5.32356 2.92665 4.2
      vertex 5.64839 2.23636 4.2
    endloop
  endfacet
  facet normal 0 0 1
    outer loop
      vertex 5.32356 2.92665 1.2
      vertex 5.64839 2.23636 1.2
      vertex 6.63802 3.64928 1.2
    endloop
  endfacet
  facet normal 0.904827 0.425779 0
    outer loop
      vertex 5.32356 2.92665 1.2
      vertex 5.64839 2.23636 4.2
      vertex 5.64839 2.23636 1.2
    endloop
  endfacet
  facet normal 0 0 1
    outer loop
      vertex 5.32356 2.92665 1.2
      vertex 6.63802 3.64928 1.2
      vertex 6.1283 4.45247 1.2
    endloop
  endfacet
  facet normal 0.770513 -0.637424 0
    outer loop
      vertex 5.52194 -5.18544 0
      vertex 6.1283 -4.45247 0
      vertex 5.52194 -5.18544 1.2
    endloop
  endfacet
  facet normal 0.770513 -0.637424 0
    outer loop
      vertex 5.52194 -5.18544 1.2
      vertex 6.1283 -4.45247 0
      vertex 6.1283 -4.45247 1.2
    endloop
  endfacet
  facet normal 0.770513 0.637424 0
    outer loop
      vertex 5.52194 5.18544 0
      vertex 5.52194 5.18544 1.2
      vertex 6.1283 4.45247 1.2
    endloop
  endfacet
  facet normal 0.770513 0.637424 0
    outer loop
      vertex 5.52194 5.18544 0
      vertex 6.1283 4.45247 1.2
      vertex 6.1283 4.45247 0
    endloop
  endfacet
  facet normal 0.951057 -0.309017 0
    outer loop
      vertex 5.64839 -2.23636 1.2
      vertex 5.88414 -1.51079 1.2
      vertex 5.64839 -2.23636 4.2
    endloop
  endfacet
  facet normal 0 0 1
    outer loop
      vertex 5.64839 -2.23636 1.2
      vertex 6.63802 -3.64928 1.2
      vertex 7.04306 -2.78854 1.2
    endloop
  endfacet
  facet normal -0 0 1
    outer loop
      vertex 5.64839 -2.23636 1.2
      vertex 7.04306 -2.78854 1.2
      vertex 5.88414 -1.51079 1.2
    endloop
  endfacet
  facet normal 0.951057 -0.309017 0
    outer loop
      vertex 5.64839 -2.23636 4.2
      vertex 5.88414 -1.51079 1.2
      vertex 5.88414 -1.51079 4.2
    endloop
  endfacet
  facet normal 0.951057 0.309017 0
    outer loop
      vertex 5.64839 2.23636 1.2
      vertex 5.64839 2.23636 4.2
      vertex 5.88414 1.51079 4.2
    endloop
  endfacet
  facet normal 0 0 1
    outer loop
      vertex 5.64839 2.23636 1.2
      vertex 5.88414 1.51079 1.2
      vertex 7.04306 2.78854 1.2
    endloop
  endfacet
  facet normal 0.951057 0.309017 0
    outer loop
      vertex 5.64839 2.23636 1.2
      vertex 5.88414 1.51079 4.2
      vertex 5.88414 1.51079 1.2
    endloop
  endfacet
  facet normal 0 0 1
    outer loop
      vertex 5.64839 2.23636 1.2
      vertex 7.04306 2.78854 1.2
      vertex 6.63802 3.64928 1.2
    endloop
  endfacet
  facet normal 0.982287 -0.187382 0
    outer loop
      vertex 5.88414 -1.51079 1.2
      vertex 6.0271 -0.761399 1.2
      vertex 5.88414 -1.51079 4.2
    endloop
  endfacet
  facet normal 0 0 1
    outer loop
      vertex 5.88414 -1.51079 1.2
      vertex 7.04306 -2.78854 1.2
      vertex 7.33702 -1.88383 1.2
    endloop
  endfacet
  facet normal -0 0 1
    outer loop
      vertex 5.88414 -1.51079 1.2
      vertex 7.33702 -1.88383 1.2
      vertex 6.0271 -0.761399 1.2
    endloop
  endfacet
  facet normal 0.982287 -0.187382 0
    outer loop
      vertex 5.88414 -1.51079 4.2
      vertex 6.0271 -0.761399 1.2
      vertex 6.0271 -0.761399 4.2
    endloop
  endfacet
  facet normal 0.982287 0.187382 0
    outer loop
      vertex 5.88414 1.51079 1.2
      vertex 5.88414 1.51079 4.2
      vertex 6.0271 0.761399 4.2
    endloop
  endfacet
  facet normal 0 0 1
    outer loop
      vertex 5.88414 1.51079 1.2
      vertex 6.0271 0.761399 1.2
      vertex 7.33702 1.88383 1.2
    endloop
  endfacet
  facet normal 0.982287 0.187382 0
    outer loop
      vertex 5.88414 1.51079 1.2
      vertex 6.0271 0.761399 4.2
      vertex 6.0271 0.761399 1.2
    endloop
  endfacet
  facet normal 0 0 1
    outer loop
      vertex 5.88414 1.51079 1.2
      vertex 7.33702 1.88383 1.2
      vertex 7.04306 2.78854 1.2
    endloop
  endfacet
  facet normal 0.998027 -0.0627904 0
    outer loop
      vertex 6.0271 -0.761399 1.2
      vertex 6.075 0 1.2
      vertex 6.0271 -0.761399 4.2
    endloop
  endfacet
  facet normal 0 0 1
    outer loop
      vertex 6.0271 -0.761399 1.2
      vertex 7.33702 -1.88383 1.2
      vertex 7.51527 -0.949399 1.2
    endloop
  endfacet
  facet normal -0 0 1
    outer loop
      vertex 6.0271 -0.761399 1.2
      vertex 7.51527 -0.949399 1.2
      vertex 6.075 0 1.2
    endloop
  endfacet
  facet normal 0.998027 -0.0627904 0
    outer loop
      vertex 6.0271 -0.761399 4.2
      vertex 6.075 0 1.2
      vertex 6.075 0 4.2
    endloop
  endfacet
  facet normal 0.998027 0.0627904 0
    outer loop
      vertex 6.0271 0.761399 1.2
      vertex 6.0271 0.761399 4.2
      vertex 6.075 0 4.2
    endloop
  endfacet
  facet normal 0 0 1
    outer loop
      vertex 6.0271 0.761399 1.2
      vertex 6.075 0 1.2
      vertex 7.51527 0.949399 1.2
    endloop
  endfacet
  facet normal 0.998027 0.0627904 0
    outer loop
      vertex 6.0271 0.761399 1.2
      vertex 6.075 0 4.2
      vertex 6.075 0 1.2
    endloop
  endfacet
  facet normal 0 0 1
    outer loop
      vertex 6.0271 0.761399 1.2
      vertex 7.51527 0.949399 1.2
      vertex 7.33702 1.88383 1.2
    endloop
  endfacet
  facet normal 0 0 1
    outer loop
      vertex 6.075 0 1.2
      vertex 7.51527 -0.949399 1.2
      vertex 7.575 0 1.2
    endloop
  endfacet
  facet normal 0 0 1
    outer loop
      vertex 6.075 0 1.2
      vertex 7.575 0 1.2
      vertex 7.51527 0.949399 1.2
    endloop
  endfacet
  facet normal 0.844328 -0.535826 0
    outer loop
      vertex 6.1283 -4.45247 0
      vertex 6.63802 -3.64928 0
      vertex 6.1283 -4.45247 1.2
    endloop
  endfacet
  facet normal 0.844328 -0.535826 0
    outer loop
      vertex 6.1283 -4.45247 1.2
      vertex 6.63802 -3.64928 0
      vertex 6.63802 -3.64928 1.2
    endloop
  endfacet
  facet normal 0.844328 0.535826 0
    outer loop
      vertex 6.1283 4.45247 0
      vertex 6.1283 4.45247 1.2
      vertex 6.63802 3.64928 1.2
    endloop
  endfacet
  facet normal 0.844328 0.535826 0
    outer loop
      vertex 6.1283 4.45247 0
      vertex 6.63802 3.64928 1.2
      vertex 6.63802 3.64928 0
    endloop
  endfacet
  facet normal 0.904827 -0.42578 0
    outer loop
      vertex 6.63802 -3.64928 0
      vertex 7.04306 -2.78854 0
      vertex 6.63802 -3.64928 1.2
    endloop
  endfacet
  facet normal 0.904827 -0.42578 0
    outer loop
      vertex 6.63802 -3.64928 1.2
      vertex 7.04306 -2.78854 0
      vertex 7.04306 -2.78854 1.2
    endloop
  endfacet
  facet normal 0.904827 0.42578 0
    outer loop
      vertex 6.63802 3.64928 0
      vertex 6.63802 3.64928 1.2
      vertex 7.04306 2.78854 1.2
    endloop
  endfacet
  facet normal 0.904827 0.42578 0
    outer loop
      vertex 6.63802 3.64928 0
      vertex 7.04306 2.78854 1.2
      vertex 7.04306 2.78854 0
    endloop
  endfacet
  facet normal 0.951056 -0.309017 0
    outer loop
      vertex 7.04306 -2.78854 0
      vertex 7.33702 -1.88383 0
      vertex 7.04306 -2.78854 1.2
    endloop
  endfacet
  facet normal 0.951056 -0.309017 0
    outer loop
      vertex 7.04306 -2.78854 1.2
      vertex 7.33702 -1.88383 0
      vertex 7.33702 -1.88383 1.2
    endloop
  endfacet
  facet normal 0.951056 0.309017 0
    outer loop
      vertex 7.04306 2.78854 0
      vertex 7.04306 2.78854 1.2
      vertex 7.33702 1.88383 1.2
    endloop
  endfacet
  facet normal 0.951056 0.309017 0
    outer loop
      vertex 7.04306 2.78854 0
      vertex 7.33702 1.88383 1.2
      vertex 7.33702 1.88383 0
    endloop
  endfacet
  facet normal 0.982287 -0.187381 0
    outer loop
      vertex 7.33702 -1.88383 0
      vertex 7.51527 -0.949399 0
      vertex 7.33702 -1.88383 1.2
    endloop
  endfacet
  facet normal 0.982287 -0.187381 0
    outer loop
      vertex 7.33702 -1.88383 1.2
      vertex 7.51527 -0.949399 0
      vertex 7.51527 -0.949399 1.2
    endloop
  endfacet
  facet normal 0.982287 0.187381 0
    outer loop
      vertex 7.33702 1.88383 0
      vertex 7.33702 1.88383 1.2
      vertex 7.51527 0.949399 1.2
    endloop
  endfacet
  facet normal 0.982287 0.187381 0
    outer loop
      vertex 7.33702 1.88383 0
      vertex 7.51527 0.949399 1.2
      vertex 7.51527 0.949399 0
    endloop
  endfacet
  facet normal 0.998027 -0.0627909 0
    outer loop
      vertex 7.51527 -0.949399 0
      vertex 7.575 0 0
      vertex 7.51527 -0.949399 1.2
    endloop
  endfacet
  facet normal 0.998027 -0.0627909 0
    outer loop
      vertex 7.51527 -0.949399 1.2
      vertex 7.575 0 0
      vertex 7.575 0 1.2
    endloop
  endfacet
  facet normal 0.998027 0.0627909 0
    outer loop
      vertex 7.51527 0.949399 0
      vertex 7.51527 0.949399 1.2
      vertex 7.575 0 1.2
    endloop
  endfacet
  facet normal 0.998027 0.0627909 0
    outer loop
      vertex 7.51527 0.949399 0
      vertex 7.575 0 1.2
      vertex 7.575 0 0
    endloop
  endfacet
endsolid model
