solid model
  facet normal -1 -0 0
    outer loop
      vertex 0 0 0
      vertex 0 0 37
      vertex 0 42 37
    endloop
  endfacet
  facet normal -0 0 -1
    outer loop
      vertex 0 0 0
      vertex 0 42 0
      vertex 136 42 0
    endloop
  endfacet
  facet normal -1 0 0
    outer loop
      vertex 0 0 0
      vertex 0 42 37
      vertex 0 42 0
    endloop
  endfacet
  facet normal 0 -1 -0
    outer loop
      vertex 0 0 0
      vertex 136 0 0
      vertex 136 0 37
    endloop
  endfacet
  facet normal 0 -1 0
    outer loop
      vertex 0 0 0
      vertex 136 0 37
      vertex 0 0 37
    endloop
  endfacet
  facet normal 0 0 -1
    outer loop
      vertex 0 0 0
      vertex 136 42 0
      vertex 136 0 0
    endloop
  endfacet
  facet normal 0 0 1
    outer loop
      vertex 0 0 37
      vertex 136 0 37
      vertex 0 42 37
    endloop
  endfacet
  facet normal 0 1 0
    outer loop
      vertex 0 42 0
      vertex 0 42 37
      vertex 136 42 0
    endloop
  endfacet
  facet normal -0 0 1
    outer loop
      vertex 0 42 37
      vertex 136 0 37
      vertex 136 42 37
    endloop
  endfacet
  facet normal 0 1 -0
    outer loop
      vertex 0 42 37
      vertex 136 42 37
      vertex 136 42 0
    endloop
  endfacet
  facet normal 1 0 0
    outer loop
      vertex 136 0 0
      vertex 136 42 0
      vertex 136 0 37
    endloop
  endfacet
  facet normal 1 -0 0
    outer loop
      vertex 136 0 37
      vertex 136 42 0
      vertex 136 42 37
    endloop
  endfacet
endsolid model
