solid model
  facet normal 0 0 -1
    outer loop
      vertex -1.32751 -12.6304 0
      vertex -1.32751 12.6304 0
      vertex 1.32751 12.6304 0
    endloop
  endfacet
  facet normal 0 -1 -0
    outer loop
      vertex -1.32751 -12.6304 0
      vertex 1.32751 -12.6304 0
      vertex 1.32751 -12.6304 400
    endloop
  endfacet
  facet normal 0 -1 0
    outer loop
      vertex -1.32751 -12.6304 0
      vertex 1.32751 -12.6304 400
      vertex -1.32751 -12.6304 400
    endloop
  endfacet
  facet normal 0 0 -1
    outer loop
      vertex -1.32751 -12.6304 0
      vertex 1.32751 12.6304 0
      vertex 1.32751 -12.6304 0
    endloop
  endfacet
  facet normal 0 0 1
    outer loop
      vertex -1.32751 -12.6304 400
      vertex 1.32751 -12.6304 400
      vertex -1.32751 12.6304 400
    endloop
  endfacet
  facet normal 0 1 0
    outer loop
      vertex -1.32751 12.6304 0
      vertex -1.32751 12.6304 400
      vertex 1.32751 12.6304 0
    endloop
  endfacet
  facet normal -0 0 1
    outer loop
      vertex -1.32751 12.6304 400
      vertex 1.32751 -12.6304 400
      vertex 1.32751 12.6304 400
    endloop
  endfacet
  facet normal 0 1 -0
    outer loop
      vertex -1.32751 12.6304 400
      vertex 1.32751 12.6304 400
      vertex 1.32751 12.6304 0
    endloop
  endfacet
  facet normal 0 0 -1
    outer loop
      vertex -10.2745 -7.46487 0
      vertex -10.2745 7.46487 0
      vertex -8.49796 9.43794 0
    endloop
  endfacet
  facet normal -0.743145 -0.669131 0
    outer loop
      vertex -10.2745 -7.46487 0
      vertex -8.49796 -9.43794 0
      vertex -10.2745 -7.46487 400
    endloop
  endfacet
  facet normal 0 0 -1
    outer loop
      vertex -10.2745 -7.46487 0
      vertex -8.49796 9.43794 0
      vertex -8.49796 -9.43794 0
    endloop
  endfacet
  facet normal -0.743145 -0.669131 0
    outer loop
      vertex -10.2745 -7.46487 400
      vertex -8.49796 -9.43794 0
      vertex -8.49796 -9.43794 400
    endloop
  endfacet
  facet normal 0 0 1
    outer loop
      vertex -10.2745 -7.46487 400
      vertex -8.49796 -9.43794 400
      vertex -10.2745 7.46487 400
    endloop
  endfacet
  facet normal -0.743145 0.669131 0
    outer loop
      vertex -10.2745 7.46487 0
      vertex -10.2745 7.46487 400
      vertex -8.49796 9.43794 400
    endloop
  endfacet
  facet normal -0.743145 0.669131 0
    outer loop
      vertex -10.2745 7.46487 0
      vertex -8.49796 9.43794 400
      vertex -8.49796 9.43794 0
    endloop
  endfacet
  facet normal -0 0 1
    outer loop
      vertex -10.2745 7.46487 400
      vertex -8.49796 -9.43794 400
      vertex -8.49796 9.43794 400
    endloop
  endfacet
  facet normal -0.866026 -0.5 0
    outer loop
      vertex -11.602 -5.16556 0
      vertex -10.2745 -7.46487 0
      vertex -11.602 -5.16556 400
    endloop
  endfacet
  facet normal 0 0 -1
    outer loop
      vertex -11.602 -5.16556 0
      vertex -10.2745 7.46487 0
      vertex -10.2745 -7.46487 0
    endloop
  endfacet
  facet normal 0 0 -1
    outer loop
      vertex -11.602 -5.16556 0
      vertex -11.602 5.16556 0
      vertex -10.2745 7.46487 0
    endloop
  endfacet
  facet normal -0.866026 -0.5 0
    outer loop
      vertex -11.602 -5.16556 400
      vertex -10.2745 -7.46487 0
      vertex -10.2745 -7.46487 400
    endloop
  endfacet
  facet normal 0 0 1
    outer loop
      vertex -11.602 -5.16556 400
      vertex -10.2745 -7.46487 400
      vertex -11.602 5.16556 400
    endloop
  endfacet
  facet normal -0.866026 0.5 0
    outer loop
      vertex -11.602 5.16556 0
      vertex -10.2745 7.46487 400
      vertex -10.2745 7.46487 0
    endloop
  endfacet
  facet normal -0.866026 0.5 0
    outer loop
      vertex -11.602 5.16556 0
      vertex -11.602 5.16556 400
      vertex -10.2745 7.46487 400
    endloop
  endfacet
  facet normal -0 0 1
    outer loop
      vertex -11.602 5.16556 400
      vertex -10.2745 -7.46487 400
      vertex -10.2745 7.46487 400
    endloop
  endfacet
  facet normal -0.951056 -0.309017 0
    outer loop
      vertex -12.4225 -2.64048 0
      vertex -11.602 -5.16556 0
      vertex -12.4225 -2.64048 400
    endloop
  endfacet
  facet normal 0 0 -1
    outer loop
      vertex -12.4225 -2.64048 0
      vertex -11.602 5.16556 0
      vertex -11.602 -5.16556 0
    endloop
  endfacet
  facet normal 0 0 -1
    outer loop
      vertex -12.4225 -2.64048 0
      vertex -12.4225 2.64048 0
      vertex -11.602 5.16556 0
    endloop
  endfacet
  facet normal -0.951056 -0.309017 0
    outer loop
      vertex -12.4225 -2.64048 400
      vertex -11.602 -5.16556 0
      vertex -11.602 -5.16556 400
    endloop
  endfacet
  facet normal 0 0 1
    outer loop
      vertex -12.4225 -2.64048 400
      vertex -11.602 -5.16556 400
      vertex -12.4225 2.64048 400
    endloop
  endfacet
  facet normal -0.951056 0.309017 0
    outer loop
      vertex -12.4225 2.64048 0
      vertex -11.602 5.16556 400
      vertex -11.602 5.16556 0
    endloop
  endfacet
  facet normal -0.951056 0.309017 0
    outer loop
      vertex -12.4225 2.64048 0
      vertex -12.4225 2.64048 400
      vertex -11.602 5.16556 400
    endloop
  endfacet
  facet normal -0 0 1
    outer loop
      vertex -12.4225 2.64048 400
      vertex -11.602 -5.16556 400
      vertex -11.602 5.16556 400
    endloop
  endfacet
  facet normal -0.994522 -0.104528 0
    outer loop
      vertex -12.7 7.19523e-15 0
      vertex -12.4225 -2.64048 0
      vertex -12.7 7.19523e-15 400
    endloop
  endfacet
  facet normal 0 -0 -1
    outer loop
      vertex -12.7 7.19523e-15 0
      vertex -12.4225 2.64048 0
      vertex -12.4225 -2.64048 0
    endloop
  endfacet
  facet normal -0.994522 0.104528 0
    outer loop
      vertex -12.7 7.19523e-15 0
      vertex -12.4225 2.64048 400
      vertex -12.4225 2.64048 0
    endloop
  endfacet
  facet normal -0.994522 0.104528 0
    outer loop
      vertex -12.7 7.19523e-15 0
      vertex -12.7 7.19523e-15 400
      vertex -12.4225 2.64048 400
    endloop
  endfacet
  facet normal -0.994522 -0.104528 0
    outer loop
      vertex -12.7 7.19523e-15 400
      vertex -12.4225 -2.64048 0
      vertex -12.4225 -2.64048 400
    endloop
  endfacet
  facet normal 0 -0 1
    outer loop
      vertex -12.7 7.19523e-15 400
      vertex -12.4225 -2.64048 400
      vertex -12.4225 2.64048 400
    endloop
  endfacet
  facet normal -0.207912 -0.978148 -0
    outer loop
      vertex -3.92452 -12.0784 0
      vertex -1.32751 -12.6304 0
      vertex -1.32751 -12.6304 400
    endloop
  endfacet
  facet normal -0.207912 -0.978148 0
    outer loop
      vertex -3.92452 -12.0784 0
      vertex -1.32751 -12.6304 400
      vertex -3.92452 -12.0784 400
    endloop
  endfacet
  facet normal 0 0 -1
    outer loop
      vertex -3.92452 -12.0784 0
      vertex -1.32751 12.6304 0
      vertex -1.32751 -12.6304 0
    endloop
  endfacet
  facet normal 0 0 -1
    outer loop
      vertex -3.92452 -12.0784 0
      vertex -3.92452 12.0784 0
      vertex -1.32751 12.6304 0
    endloop
  endfacet
  facet normal 0 0 1
    outer loop
      vertex -3.92452 -12.0784 400
      vertex -1.32751 -12.6304 400
      vertex -3.92452 12.0784 400
    endloop
  endfacet
  facet normal -0.207912 0.978148 0
    outer loop
      vertex -3.92452 12.0784 0
      vertex -3.92452 12.0784 400
      vertex -1.32751 12.6304 0
    endloop
  endfacet
  facet normal -0 0 1
    outer loop
      vertex -3.92452 12.0784 400
      vertex -1.32751 -12.6304 400
      vertex -1.32751 12.6304 400
    endloop
  endfacet
  facet normal -0.207912 0.978148 0
    outer loop
      vertex -3.92452 12.0784 400
      vertex -1.32751 12.6304 400
      vertex -1.32751 12.6304 0
    endloop
  endfacet
  facet normal -0.406737 -0.913545 -0
    outer loop
      vertex -6.35 -10.9985 0
      vertex -3.92452 -12.0784 0
      vertex -3.92452 -12.0784 400
    endloop
  endfacet
  facet normal -0.406737 -0.913545 0
    outer loop
      vertex -6.35 -10.9985 0
      vertex -3.92452 -12.0784 400
      vertex -6.35 -10.9985 400
    endloop
  endfacet
  facet normal 0 0 -1
    outer loop
      vertex -6.35 -10.9985 0
      vertex -3.92452 12.0784 0
      vertex -3.92452 -12.0784 0
    endloop
  endfacet
  facet normal 0 0 -1
    outer loop
      vertex -6.35 -10.9985 0
      vertex -6.35 10.9985 0
      vertex -3.92452 12.0784 0
    endloop
  endfacet
  facet normal 0 0 1
    outer loop
      vertex -6.35 -10.9985 400
      vertex -3.92452 -12.0784 400
      vertex -6.35 10.9985 400
    endloop
  endfacet
  facet normal -0.406737 0.913545 0
    outer loop
      vertex -6.35 10.9985 0
      vertex -6.35 10.9985 400
      vertex -3.92452 12.0784 0
    endloop
  endfacet
  facet normal -0 0 1
    outer loop
      vertex -6.35 10.9985 400
      vertex -3.92452 -12.0784 400
      vertex -3.92452 12.0784 400
    endloop
  endfacet
  facet normal -0.406737 0.913545 0
    outer loop
      vertex -6.35 10.9985 400
      vertex -3.92452 12.0784 400
      vertex -3.92452 12.0784 0
    endloop
  endfacet
  facet normal -0.587785 -0.809017 -0
    outer loop
      vertex -8.49796 -9.43794 0
      vertex -6.35 -10.9985 0
      vertex -6.35 -10.9985 400
    endloop
  endfacet
  facet normal -0.587785 -0.809017 0
    outer loop
      vertex -8.49796 -9.43794 0
      vertex -6.35 -10.9985 400
      vertex -8.49796 -9.43794 400
    endloop
  endfacet
  facet normal 0 0 -1
    outer loop
      vertex -8.49796 -9.43794 0
      vertex -6.35 10.9985 0
      vertex -6.35 -10.9985 0
    endloop
  endfacet
  facet normal 0 0 -1
    outer loop
      vertex -8.49796 -9.43794 0
      vertex -8.49796 9.43794 0
      vertex -6.35 10.9985 0
    endloop
  endfacet
  facet normal 0 0 1
    outer loop
      vertex -8.49796 -9.43794 400
      vertex -6.35 -10.9985 400
      vertex -8.49796 9.43794 400
    endloop
  endfacet
  facet normal -0.587785 0.809017 0
    outer loop
      vertex -8.49796 9.43794 0
      vertex -8.49796 9.43794 400
      vertex -6.35 10.9985 0
    endloop
  endfacet
  facet normal -0 0 1
    outer loop
      vertex -8.49796 9.43794 400
      vertex -6.35 -10.9985 400
      vertex -6.35 10.9985 400
    endloop
  endfacet
  facet normal -0.587785 0.809017 0
    outer loop
      vertex -8.49796 9.43794 400
      vertex -6.35 10.9985 400
      vertex -6.35 10.9985 0
    endloop
  endfacet
  facet normal 0 0 -1
    outer loop
      vertex 1.32751 -12.6304 0
      vertex 1.32751 12.6304 0
      vertex 3.92452 12.0784 0
    endloop
  endfacet
  facet normal 0.207912 -0.978148 0
    outer loop
      vertex 1.32751 -12.6304 0
      vertex 3.92452 -12.0784 0
      vertex 3.92452 -12.0784 400
    endloop
  endfacet
  facet normal 0.207912 -0.978148 0
    outer loop
      vertex 1.32751 -12.6304 0
      vertex 3.92452 -12.0784 400
      vertex 1.32751 -12.6304 400
    endloop
  endfacet
  facet normal 0 0 -1
    outer loop
      vertex 1.32751 -12.6304 0
      vertex 3.92452 12.0784 0
      vertex 3.92452 -12.0784 0
    endloop
  endfacet
  facet normal 0 0 1
    outer loop
      vertex 1.32751 -12.6304 400
      vertex 3.92452 -12.0784 400
      vertex 1.32751 12.6304 400
    endloop
  endfacet
  facet normal 0.207912 0.978148 0
    outer loop
      vertex 1.32751 12.6304 0
      vertex 1.32751 12.6304 400
      vertex 3.92452 12.0784 0
    endloop
  endfacet
  facet normal 0 0 1
    outer loop
      vertex 1.32751 12.6304 400
      vertex 3.92452 -12.0784 400
      vertex 3.92452 12.0784 400
    endloop
  endfacet
  facet normal 0.207912 0.978148 -0
    outer loop
      vertex 1.32751 12.6304 400
      vertex 3.92452 12.0784 400
      vertex 3.92452 12.0784 0
    endloop
  endfacet
  facet normal 0 0 -1
    outer loop
      vertex 10.2745 -7.46487 0
      vertex 10.2745 7.46487 0
      vertex 11.602 5.16556 0
    endloop
  endfacet
  facet normal 0.866026 -0.5 0
    outer loop
      vertex 10.2745 -7.46487 0
      vertex 11.602 -5.16556 0
      vertex 10.2745 -7.46487 400
    endloop
  endfacet
  facet normal 0 0 -1
    outer loop
      vertex 10.2745 -7.46487 0
      vertex 11.602 5.16556 0
      vertex 11.602 -5.16556 0
    endloop
  endfacet
  facet normal 0.866026 -0.5 0
    outer loop
      vertex 10.2745 -7.46487 400
      vertex 11.602 -5.16556 0
      vertex 11.602 -5.16556 400
    endloop
  endfacet
  facet normal 0 0 1
    outer loop
      vertex 10.2745 -7.46487 400
      vertex 11.602 -5.16556 400
      vertex 10.2745 7.46487 400
    endloop
  endfacet
  facet normal 0.866026 0.5 0
    outer loop
      vertex 10.2745 7.46487 0
      vertex 10.2745 7.46487 400
      vertex 11.602 5.16556 400
    endloop
  endfacet
  facet normal 0.866026 0.5 0
    outer loop
      vertex 10.2745 7.46487 0
      vertex 11.602 5.16556 400
      vertex 11.602 5.16556 0
    endloop
  endfacet
  facet normal 0 0 1
    outer loop
      vertex 10.2745 7.46487 400
      vertex 11.602 -5.16556 400
      vertex 11.602 5.16556 400
    endloop
  endfacet
  facet normal 0 0 -1
    outer loop
      vertex 11.602 -5.16556 0
      vertex 11.602 5.16556 0
      vertex 12.4225 2.64048 0
    endloop
  endfacet
  facet normal 0.951056 -0.309017 0
    outer loop
      vertex 11.602 -5.16556 0
      vertex 12.4225 -2.64048 0
      vertex 11.602 -5.16556 400
    endloop
  endfacet
  facet normal 0 0 -1
    outer loop
      vertex 11.602 -5.16556 0
      vertex 12.4225 2.64048 0
      vertex 12.4225 -2.64048 0
    endloop
  endfacet
  facet normal 0.951056 -0.309017 0
    outer loop
      vertex 11.602 -5.16556 400
      vertex 12.4225 -2.64048 0
      vertex 12.4225 -2.64048 400
    endloop
  endfacet
  facet normal 0 0 1
    outer loop
      vertex 11.602 -5.16556 400
      vertex 12.4225 -2.64048 400
      vertex 11.602 5.16556 400
    endloop
  endfacet
  facet normal 0.951056 0.309017 0
    outer loop
      vertex 11.602 5.16556 0
      vertex 11.602 5.16556 400
      vertex 12.4225 2.64048 400
    endloop
  endfacet
  facet normal 0.951056 0.309017 0
    outer loop
      vertex 11.602 5.16556 0
      vertex 12.4225 2.64048 400
      vertex 12.4225 2.64048 0
    endloop
  endfacet
  facet normal 0 0 1
    outer loop
      vertex 11.602 5.16556 400
      vertex 12.4225 -2.64048 400
      vertex 12.4225 2.64048 400
    endloop
  endfacet
  facet normal 0 0 -1
    outer loop
      vertex 12.4225 -2.64048 0
      vertex 12.4225 2.64048 0
      vertex 12.7 0 0
    endloop
  endfacet
  facet normal 0.994522 -0.104528 0
    outer loop
      vertex 12.4225 -2.64048 0
      vertex 12.7 0 0
      vertex 12.4225 -2.64048 400
    endloop
  endfacet
  facet normal 0.994522 -0.104528 0
    outer loop
      vertex 12.4225 -2.64048 400
      vertex 12.7 0 0
      vertex 12.7 0 400
    endloop
  endfacet
  facet normal 0 0 1
    outer loop
      vertex 12.4225 -2.64048 400
      vertex 12.7 0 400
      vertex 12.4225 2.64048 400
    endloop
  endfacet
  facet normal 0.994522 0.104528 0
    outer loop
      vertex 12.4225 2.64048 0
      vertex 12.4225 2.64048 400
      vertex 12.7 0 400
    endloop
  endfacet
  facet normal 0.994522 0.104528 0
    outer loop
      vertex 12.4225 2.64048 0
      vertex 12.7 0 400
      vertex 12.7 0 0
    endloop
  endfacet
  facet normal 0 0 -1
    outer loop
      vertex 3.92452 -12.0784 0
      vertex 3.92452 12.0784 0
      vertex 6.35 10.9985 0
    endloop
  endfacet
  facet normal 0.406737 -0.913545 0
    outer loop
      vertex 3.92452 -12.0784 0
      vertex 6.35 -10.9985 0
      vertex 6.35 -10.9985 400
    endloop
  endfacet
  facet normal 0.406737 -0.913545 0
    outer loop
      vertex 3.92452 -12.0784 0
      vertex 6.35 -10.9985 400
      vertex 3.92452 -12.0784 400
    endloop
  endfacet
  facet normal 0 0 -1
    outer loop
      vertex 3.92452 -12.0784 0
      vertex 6.35 10.9985 0
      vertex 6.35 -10.9985 0
    endloop
  endfacet
  facet normal 0 0 1
    outer loop
      vertex 3.92452 -12.0784 400
      vertex 6.35 -10.9985 400
      vertex 3.92452 12.0784 400
    endloop
  endfacet
  facet normal 0.406737 0.913545 0
    outer loop
      vertex 3.92452 12.0784 0
      vertex 3.92452 12.0784 400
      vertex 6.35 10.9985 0
    endloop
  endfacet
  facet normal 0 0 1
    outer loop
      vertex 3.92452 12.0784 400
      vertex 6.35 -10.9985 400
      vertex 6.35 10.9985 400
    endloop
  endfacet
  facet normal 0.406737 0.913545 -0
    outer loop
      vertex 3.92452 12.0784 400
      vertex 6.35 10.9985 400
      vertex 6.35 10.9985 0
    endloop
  endfacet
  facet normal 0 0 -1
    outer loop
      vertex 6.35 -10.9985 0
      vertex 6.35 10.9985 0
      vertex 8.49796 9.43794 0
    endloop
  endfacet
  facet normal 0.587785 -0.809017 0
    outer loop
      vertex 6.35 -10.9985 0
      vertex 8.49796 -9.43794 0
      vertex 8.49796 -9.43794 400
    endloop
  endfacet
  facet normal 0.587785 -0.809017 0
    outer loop
      vertex 6.35 -10.9985 0
      vertex 8.49796 -9.43794 400
      vertex 6.35 -10.9985 400
    endloop
  endfacet
  facet normal 0 0 -1
    outer loop
      vertex 6.35 -10.9985 0
      vertex 8.49796 9.43794 0
      vertex 8.49796 -9.43794 0
    endloop
  endfacet
  facet normal 0 0 1
    outer loop
      vertex 6.35 -10.9985 400
      vertex 8.49796 -9.43794 400
      vertex 6.35 10.9985 400
    endloop
  endfacet
  facet normal 0.587785 0.809017 0
    outer loop
      vertex 6.35 10.9985 0
      vertex 6.35 10.9985 400
      vertex 8.49796 9.43794 0
    endloop
  endfacet
  facet normal 0 0 1
    outer loop
      vertex 6.35 10.9985 400
      vertex 8.49796 -9.43794 400
      vertex 8.49796 9.43794 400
    endloop
  endfacet
  facet normal 0.587785 0.809017 -0
    outer loop
      vertex 6.35 10.9985 400
      vertex 8.49796 9.43794 400
      vertex 8.49796 9.43794 0
    endloop
  endfacet
  facet normal 0.743145 -0.669131 0
    outer loop
      vertex 8.49796 -9.43794 0
      vertex 10.2745 -7.46487 0
      vertex 8.49796 -9.43794 400
    endloop
  endfacet
  facet normal 0 0 -1
    outer loop
      vertex 8.49796 -9.43794 0
      vertex 10.2745 7.46487 0
      vertex 10.2745 -7.46487 0
    endloop
  endfacet
  facet normal 0 0 -1
    outer loop
      vertex 8.49796 -9.43794 0
      vertex 8.49796 9.43794 0
      vertex 10.2745 7.46487 0
    endloop
  endfacet
  facet normal 0.743145 -0.669131 0
    outer loop
      vertex 8.49796 -9.43794 400
      vertex 10.2745 -7.46487 0
      vertex 10.2745 -7.46487 400
    endloop
  endfacet
  facet normal 0 0 1
    outer loop
      vertex 8.49796 -9.43794 400
      vertex 10.2745 -7.46487 400
      vertex 8.49796 9.43794 400
    endloop
  endfacet
  facet normal 0.743145 0.669131 0
    outer loop
      vertex 8.49796 9.43794 0
      vertex 10.2745 7.46487 400
      vertex 10.2745 7.46487 0
    endloop
  endfacet
  facet normal 0.743145 0.669131 0
    outer loop
      vertex 8.49796 9.43794 0
      vertex 8.49796 9.43794 400
      vertex 10.2745 7.46487 400
    endloop
  endfacet
  facet normal 0 0 1
    outer loop
      vertex 8.49796 9.43794 400
      vertex 10.2745 -7.46487 400
      vertex 10.2745 7.46487 400
    endloop
  endfacet
endsolid model
