solid model
  facet normal -1 0 0
    outer loop
      vertex 108 -1.32262e-14 -17
      vertex 108 10 -1.32262e-14
      vertex 108 10 -22
    endloop
  endfacet
  facet normal 0 0 -1
    outer loop
      vertex 108 -1.32262e-14 -17
      vertex 162.35 -18.1421 -17
      vertex 160.7 -21 -17
    endloop
  endfacet
  facet normal 0 0 -1
    outer loop
      vertex 108 -1.32262e-14 -17
      vertex 190 -2.32683e-14 -17
      vertex 162.35 -18.1421 -17
    endloop
  endfacet
  facet normal -1 0 0
    outer loop
      vertex 108 -1.32262e-14 -22
      vertex 108 -1.32262e-14 -17
      vertex 108 10 -22
    endloop
  endfacet
  facet normal 0 0 -1
    outer loop
      vertex 108 -1.32262e-14 -22
      vertex 108 10 -22
      vertex 190 -2.32683e-14 -22
    endloop
  endfacet
  facet normal -1.22465e-16 -1 0
    outer loop
      vertex 108 -1.32262e-14 -22
      vertex 190 -2.32683e-14 -17
      vertex 108 -1.32262e-14 -17
    endloop
  endfacet
  facet normal -1.22465e-16 -1 -0
    outer loop
      vertex 108 -1.32262e-14 -22
      vertex 190 -2.32683e-14 -22
      vertex 190 -2.32683e-14 -17
    endloop
  endfacet
  facet normal 0 0 -1
    outer loop
      vertex 108 -42 -17
      vertex 108 -1.32262e-14 -17
      vertex 160.7 -21 -17
    endloop
  endfacet
  facet normal -1 0 0
    outer loop
      vertex 108 -42 -17
      vertex 108 10 -1.32262e-14
      vertex 108 -1.32262e-14 -17
    endloop
  endfacet
  facet normal -0 0 -1
    outer loop
      vertex 108 -42 -17
      vertex 160.7 -21 -17
      vertex 162.35 -23.8579 -17
    endloop
  endfacet
  facet normal 0 0 -1
    outer loop
      vertex 108 -42 -17
      vertex 162.35 -23.8579 -17
      vertex 190 -42 -17
    endloop
  endfacet
  facet normal 0 1 -0
    outer loop
      vertex 108 -42 -17
      vertex 190 -42 -17
      vertex 190 -42 -22
    endloop
  endfacet
  facet normal 0 1 0
    outer loop
      vertex 108 -42 -22
      vertex 108 -42 -17
      vertex 190 -42 -22
    endloop
  endfacet
  facet normal -1 0 0
    outer loop
      vertex 108 -52 -1.32262e-14
      vertex 108 10 -1.32262e-14
      vertex 108 -42 -17
    endloop
  endfacet
  facet normal 1.22465e-16 -0 1
    outer loop
      vertex 108 -52 -1.32262e-14
      vertex 162.4 -21 -1.98883e-14
      vertex 108 10 -1.32262e-14
    endloop
  endfacet
  facet normal 1.22465e-16 -6.50984e-23 1
    outer loop
      vertex 108 -52 -1.32262e-14
      vertex 162.706 -21.9405 -1.99257e-14
      vertex 162.4 -21 -1.98883e-14
    endloop
  endfacet
  facet normal 1.22464e-16 8.90416e-22 1
    outer loop
      vertex 108 -52 -1.32262e-14
      vertex 163.506 -22.5217 -2.00237e-14
      vertex 162.706 -21.9405 -1.99257e-14
    endloop
  endfacet
  facet normal 1.22465e-16 -1.15867e-23 1
    outer loop
      vertex 108 -52 -1.32262e-14
      vertex 216 -52 -2.64524e-14
      vertex 163.506 -22.5217 -2.00237e-14
    endloop
  endfacet
  facet normal -1 0 0
    outer loop
      vertex 108 -52 -22
      vertex 108 -42 -17
      vertex 108 -42 -22
    endloop
  endfacet
  facet normal -0 0 -1
    outer loop
      vertex 108 -52 -22
      vertex 108 -42 -22
      vertex 190 -42 -22
    endloop
  endfacet
  facet normal -1 0 0
    outer loop
      vertex 108 -52 -22
      vertex 108 -52 -1.32262e-14
      vertex 108 -42 -17
    endloop
  endfacet
  facet normal 0 0 -1
    outer loop
      vertex 108 -52 -22
      vertex 190 -42 -22
      vertex 216 -52 -22
    endloop
  endfacet
  facet normal 0 -1 0
    outer loop
      vertex 108 -52 -22
      vertex 216 -52 -2.64524e-14
      vertex 108 -52 -1.32262e-14
    endloop
  endfacet
  facet normal 0 -1 -0
    outer loop
      vertex 108 -52 -22
      vertex 216 -52 -22
      vertex 216 -52 -2.64524e-14
    endloop
  endfacet
  facet normal 1.22465e-16 6.50984e-23 1
    outer loop
      vertex 108 10 -1.32262e-14
      vertex 162.4 -21 -1.98883e-14
      vertex 162.706 -20.0595 -1.99257e-14
    endloop
  endfacet
  facet normal 1.22464e-16 -8.90416e-22 1
    outer loop
      vertex 108 10 -1.32262e-14
      vertex 162.706 -20.0595 -1.99257e-14
      vertex 163.506 -19.4783 -2.00237e-14
    endloop
  endfacet
  facet normal 1.22465e-16 1.15867e-23 1
    outer loop
      vertex 108 10 -1.32262e-14
      vertex 163.506 -19.4783 -2.00237e-14
      vertex 216 10 -2.64524e-14
    endloop
  endfacet
  facet normal 0 1 -0
    outer loop
      vertex 108 10 -1.32262e-14
      vertex 216 10 -2.64524e-14
      vertex 216 10 -22
    endloop
  endfacet
  facet normal 0 1 0
    outer loop
      vertex 108 10 -22
      vertex 108 10 -1.32262e-14
      vertex 216 10 -22
    endloop
  endfacet
  facet normal 0 0 -1
    outer loop
      vertex 108 10 -22
      vertex 216 10 -22
      vertex 190 -2.32683e-14 -22
    endloop
  endfacet
  facet normal -0 0 -1
    outer loop
      vertex 160.7 -21 -13.5
      vertex 162.35 -18.1421 -13.5
      vertex 162.706 -20.0595 -13.5
    endloop
  endfacet
  facet normal 0.866024 -0.500002 0
    outer loop
      vertex 160.7 -21 -13.5
      vertex 162.35 -18.1421 -17
      vertex 162.35 -18.1421 -13.5
    endloop
  endfacet
  facet normal 0 0 -1
    outer loop
      vertex 160.7 -21 -13.5
      vertex 162.4 -21 -13.5
      vertex 162.706 -21.9405 -13.5
    endloop
  endfacet
  facet normal 0 0 -1
    outer loop
      vertex 160.7 -21 -13.5
      vertex 162.706 -20.0595 -13.5
      vertex 162.4 -21 -13.5
    endloop
  endfacet
  facet normal 0 0 -1
    outer loop
      vertex 160.7 -21 -13.5
      vertex 162.706 -21.9405 -13.5
      vertex 162.35 -23.8579 -13.5
    endloop
  endfacet
  facet normal 0.866024 0.500002 0
    outer loop
      vertex 160.7 -21 -17
      vertex 160.7 -21 -13.5
      vertex 162.35 -23.8579 -13.5
    endloop
  endfacet
  facet normal 0.866024 -0.500002 0
    outer loop
      vertex 160.7 -21 -17
      vertex 162.35 -18.1421 -17
      vertex 160.7 -21 -13.5
    endloop
  endfacet
  facet normal 0.866024 0.500002 0
    outer loop
      vertex 160.7 -21 -17
      vertex 162.35 -23.8579 -13.5
      vertex 162.35 -23.8579 -17
    endloop
  endfacet
  facet normal 0 0 -1
    outer loop
      vertex 162.35 -18.1421 -13.5
      vertex 163.506 -19.4783 -13.5
      vertex 162.706 -20.0595 -13.5
    endloop
  endfacet
  facet normal 0 0 -1
    outer loop
      vertex 162.35 -18.1421 -13.5
      vertex 165.65 -18.1421 -13.5
      vertex 163.506 -19.4783 -13.5
    endloop
  endfacet
  facet normal 0 -1 0
    outer loop
      vertex 162.35 -18.1421 -17
      vertex 165.65 -18.1421 -13.5
      vertex 162.35 -18.1421 -13.5
    endloop
  endfacet
  facet normal 0 -1 -0
    outer loop
      vertex 162.35 -18.1421 -17
      vertex 165.65 -18.1421 -17
      vertex 165.65 -18.1421 -13.5
    endloop
  endfacet
  facet normal 0 0 -1
    outer loop
      vertex 162.35 -18.1421 -17
      vertex 190 -2.32683e-14 -17
      vertex 165.65 -18.1421 -17
    endloop
  endfacet
  facet normal -0 0 -1
    outer loop
      vertex 162.35 -23.8579 -13.5
      vertex 162.706 -21.9405 -13.5
      vertex 163.506 -22.5217 -13.5
    endloop
  endfacet
  facet normal 0 0 -1
    outer loop
      vertex 162.35 -23.8579 -13.5
      vertex 163.506 -22.5217 -13.5
      vertex 165.65 -23.8579 -13.5
    endloop
  endfacet
  facet normal 0 1 -0
    outer loop
      vertex 162.35 -23.8579 -13.5
      vertex 165.65 -23.8579 -13.5
      vertex 165.65 -23.8579 -17
    endloop
  endfacet
  facet normal 0 1 0
    outer loop
      vertex 162.35 -23.8579 -17
      vertex 162.35 -23.8579 -13.5
      vertex 165.65 -23.8579 -17
    endloop
  endfacet
  facet normal 0 0 -1
    outer loop
      vertex 162.35 -23.8579 -17
      vertex 165.65 -23.8579 -17
      vertex 190 -42 -17
    endloop
  endfacet
  facet normal 0.951057 -0.309017 0
    outer loop
      vertex 162.4 -21 -1.98883e-14
      vertex 162.706 -20.0595 -13.5
      vertex 162.706 -20.0595 -1.99257e-14
    endloop
  endfacet
  facet normal 0.951057 0.309017 0
    outer loop
      vertex 162.4 -21 -13.5
      vertex 162.4 -21 -1.98883e-14
      vertex 162.706 -21.9405 -1.99257e-14
    endloop
  endfacet
  facet normal 0.951057 -0.309017 0
    outer loop
      vertex 162.4 -21 -13.5
      vertex 162.706 -20.0595 -13.5
      vertex 162.4 -21 -1.98883e-14
    endloop
  endfacet
  facet normal 0.951057 0.309017 0
    outer loop
      vertex 162.4 -21 -13.5
      vertex 162.706 -21.9405 -1.99257e-14
      vertex 162.706 -21.9405 -13.5
    endloop
  endfacet
  facet normal 0.587784 -0.809018 0
    outer loop
      vertex 162.706 -20.0595 -13.5
      vertex 163.506 -19.4783 -13.5
      vertex 163.506 -19.4783 -2.00237e-14
    endloop
  endfacet
  facet normal 0.587784 -0.809018 0
    outer loop
      vertex 162.706 -20.0595 -13.5
      vertex 163.506 -19.4783 -2.00237e-14
      vertex 162.706 -20.0595 -1.99257e-14
    endloop
  endfacet
  facet normal 0.587784 0.809018 -0
    outer loop
      vertex 162.706 -21.9405 -1.99257e-14
      vertex 163.506 -22.5217 -2.00237e-14
      vertex 163.506 -22.5217 -13.5
    endloop
  endfacet
  facet normal 0.587784 0.809018 0
    outer loop
      vertex 162.706 -21.9405 -13.5
      vertex 162.706 -21.9405 -1.99257e-14
      vertex 163.506 -22.5217 -13.5
    endloop
  endfacet
  facet normal 0 -1 -0
    outer loop
      vertex 163.506 -19.4783 -13.5
      vertex 164.494 -19.4783 -13.5
      vertex 164.494 -19.4783 -2.01448e-14
    endloop
  endfacet
  facet normal 0 -1 0
    outer loop
      vertex 163.506 -19.4783 -13.5
      vertex 164.494 -19.4783 -2.01448e-14
      vertex 163.506 -19.4783 -2.00237e-14
    endloop
  endfacet
  facet normal 0 0 -1
    outer loop
      vertex 163.506 -19.4783 -13.5
      vertex 165.65 -18.1421 -13.5
      vertex 164.494 -19.4783 -13.5
    endloop
  endfacet
  facet normal 1.22464e-16 4.76271e-22 1
    outer loop
      vertex 163.506 -19.4783 -2.00237e-14
      vertex 164.494 -19.4783 -2.01448e-14
      vertex 216 10 -2.64524e-14
    endloop
  endfacet
  facet normal 0 1 0
    outer loop
      vertex 163.506 -22.5217 -13.5
      vertex 163.506 -22.5217 -2.00237e-14
      vertex 164.494 -22.5217 -13.5
    endloop
  endfacet
  facet normal 0 0 -1
    outer loop
      vertex 163.506 -22.5217 -13.5
      vertex 164.494 -22.5217 -13.5
      vertex 165.65 -23.8579 -13.5
    endloop
  endfacet
  facet normal 0 1 -0
    outer loop
      vertex 163.506 -22.5217 -2.00237e-14
      vertex 164.494 -22.5217 -2.01448e-14
      vertex 164.494 -22.5217 -13.5
    endloop
  endfacet
  facet normal 1.22464e-16 -4.76271e-22 1
    outer loop
      vertex 163.506 -22.5217 -2.00237e-14
      vertex 216 -52 -2.64524e-14
      vertex 164.494 -22.5217 -2.01448e-14
    endloop
  endfacet
  facet normal -0.587784 -0.809018 -0
    outer loop
      vertex 164.494 -19.4783 -13.5
      vertex 165.294 -20.0595 -13.5
      vertex 165.294 -20.0595 -2.02427e-14
    endloop
  endfacet
  facet normal -0.587784 -0.809018 0
    outer loop
      vertex 164.494 -19.4783 -13.5
      vertex 165.294 -20.0595 -2.02427e-14
      vertex 164.494 -19.4783 -2.01448e-14
    endloop
  endfacet
  facet normal 0 0 -1
    outer loop
      vertex 164.494 -19.4783 -13.5
      vertex 165.65 -18.1421 -13.5
      vertex 165.294 -20.0595 -13.5
    endloop
  endfacet
  facet normal 1.22465e-16 1.4996e-21 1
    outer loop
      vertex 164.494 -19.4783 -2.01448e-14
      vertex 165.294 -20.0595 -2.02427e-14
      vertex 201.33 -19.0603 -2.46558e-14
    endloop
  endfacet
  facet normal 1.22465e-16 5.53842e-23 1
    outer loop
      vertex 164.494 -19.4783 -2.01448e-14
      vertex 201.33 -19.0603 -2.46558e-14
      vertex 216 10 -2.64524e-14
    endloop
  endfacet
  facet normal -0.587784 0.809018 0
    outer loop
      vertex 164.494 -22.5217 -13.5
      vertex 164.494 -22.5217 -2.01448e-14
      vertex 165.294 -21.9405 -13.5
    endloop
  endfacet
  facet normal 0 0 -1
    outer loop
      vertex 164.494 -22.5217 -13.5
      vertex 165.294 -21.9405 -13.5
      vertex 165.65 -23.8579 -13.5
    endloop
  endfacet
  facet normal -0.587784 0.809018 0
    outer loop
      vertex 164.494 -22.5217 -2.01448e-14
      vertex 165.294 -21.9405 -2.02427e-14
      vertex 165.294 -21.9405 -13.5
    endloop
  endfacet
  facet normal 1.22465e-16 -1.4996e-21 1
    outer loop
      vertex 164.494 -22.5217 -2.01448e-14
      vertex 201.33 -22.9397 -2.46558e-14
      vertex 165.294 -21.9405 -2.02427e-14
    endloop
  endfacet
  facet normal 1.22465e-16 -5.53842e-23 1
    outer loop
      vertex 164.494 -22.5217 -2.01448e-14
      vertex 216 -52 -2.64524e-14
      vertex 201.33 -22.9397 -2.46558e-14
    endloop
  endfacet
  facet normal -0.951057 -0.309017 0
    outer loop
      vertex 165.294 -20.0595 -13.5
      vertex 165.6 -21 -13.5
      vertex 165.294 -20.0595 -2.02427e-14
    endloop
  endfacet
  facet normal 0 0 -1
    outer loop
      vertex 165.294 -20.0595 -13.5
      vertex 165.65 -18.1421 -13.5
      vertex 167.3 -21 -13.5
    endloop
  endfacet
  facet normal 0 0 -1
    outer loop
      vertex 165.294 -20.0595 -13.5
      vertex 167.3 -21 -13.5
      vertex 165.6 -21 -13.5
    endloop
  endfacet
  facet normal -0.951057 -0.309017 0
    outer loop
      vertex 165.294 -20.0595 -2.02427e-14
      vertex 165.6 -21 -13.5
      vertex 165.6 -21 -2.02802e-14
    endloop
  endfacet
  facet normal 1.22465e-16 -6.41748e-23 1
    outer loop
      vertex 165.294 -20.0595 -2.02427e-14
      vertex 165.6 -21 -2.02802e-14
      vertex 200.7 -21 -2.45787e-14
    endloop
  endfacet
  facet normal 1.22465e-16 -8.36285e-22 1
    outer loop
      vertex 165.294 -20.0595 -2.02427e-14
      vertex 200.7 -21 -2.45787e-14
      vertex 201.33 -19.0603 -2.46558e-14
    endloop
  endfacet
  facet normal -0.951057 0.309017 0
    outer loop
      vertex 165.294 -21.9405 -13.5
      vertex 165.294 -21.9405 -2.02427e-14
      vertex 165.6 -21 -2.02802e-14
    endloop
  endfacet
  facet normal -0 0 -1
    outer loop
      vertex 165.294 -21.9405 -13.5
      vertex 165.6 -21 -13.5
      vertex 167.3 -21 -13.5
    endloop
  endfacet
  facet normal -0.951057 0.309017 0
    outer loop
      vertex 165.294 -21.9405 -13.5
      vertex 165.6 -21 -2.02802e-14
      vertex 165.6 -21 -13.5
    endloop
  endfacet
  facet normal 0 0 -1
    outer loop
      vertex 165.294 -21.9405 -13.5
      vertex 167.3 -21 -13.5
      vertex 165.65 -23.8579 -13.5
    endloop
  endfacet
  facet normal 1.22465e-16 6.41748e-23 1
    outer loop
      vertex 165.294 -21.9405 -2.02427e-14
      vertex 200.7 -21 -2.45787e-14
      vertex 165.6 -21 -2.02802e-14
    endloop
  endfacet
  facet normal 1.22465e-16 8.36285e-22 1
    outer loop
      vertex 165.294 -21.9405 -2.02427e-14
      vertex 201.33 -22.9397 -2.46558e-14
      vertex 200.7 -21 -2.45787e-14
    endloop
  endfacet
  facet normal -0.866024 -0.500002 0
    outer loop
      vertex 165.65 -18.1421 -13.5
      vertex 167.3 -21 -17
      vertex 167.3 -21 -13.5
    endloop
  endfacet
  facet normal -0.866024 -0.500002 0
    outer loop
      vertex 165.65 -18.1421 -17
      vertex 167.3 -21 -17
      vertex 165.65 -18.1421 -13.5
    endloop
  endfacet
  facet normal 0 0 -1
    outer loop
      vertex 165.65 -18.1421 -17
      vertex 190 -2.32683e-14 -17
      vertex 167.3 -21 -17
    endloop
  endfacet
  facet normal -0.866024 0.500002 0
    outer loop
      vertex 165.65 -23.8579 -17
      vertex 165.65 -23.8579 -13.5
      vertex 167.3 -21 -13.5
    endloop
  endfacet
  facet normal -0.866024 0.500002 0
    outer loop
      vertex 165.65 -23.8579 -17
      vertex 167.3 -21 -13.5
      vertex 167.3 -21 -17
    endloop
  endfacet
  facet normal 0 0 -1
    outer loop
      vertex 165.65 -23.8579 -17
      vertex 167.3 -21 -17
      vertex 190 -42 -17
    endloop
  endfacet
  facet normal 0 0 -1
    outer loop
      vertex 167.3 -21 -17
      vertex 190 -2.32683e-14 -17
      vertex 190 -42 -17
    endloop
  endfacet
  facet normal 0 0 -1
    outer loop
      vertex 190 -2.32683e-14 -22
      vertex 202.35 -18.1421 -22
      vertex 200.7 -21 -22
    endloop
  endfacet
  facet normal 0 0 -1
    outer loop
      vertex 190 -2.32683e-14 -22
      vertex 205.65 -18.1421 -22
      vertex 202.35 -18.1421 -22
    endloop
  endfacet
  facet normal 0 0 -1
    outer loop
      vertex 190 -2.32683e-14 -22
      vertex 216 10 -22
      vertex 205.65 -18.1421 -22
    endloop
  endfacet
  facet normal -1 0 0
    outer loop
      vertex 190 -42 -22
      vertex 190 -2.32683e-14 -17
      vertex 190 -2.32683e-14 -22
    endloop
  endfacet
  facet normal 0 0 -1
    outer loop
      vertex 190 -42 -22
      vertex 190 -2.32683e-14 -22
      vertex 200.7 -21 -22
    endloop
  endfacet
  facet normal -1 -0 0
    outer loop
      vertex 190 -42 -22
      vertex 190 -42 -17
      vertex 190 -2.32683e-14 -17
    endloop
  endfacet
  facet normal -0 0 -1
    outer loop
      vertex 190 -42 -22
      vertex 200.7 -21 -22
      vertex 202.35 -23.8579 -22
    endloop
  endfacet
  facet normal -0 0 -1
    outer loop
      vertex 190 -42 -22
      vertex 202.35 -23.8579 -22
      vertex 205.65 -23.8579 -22
    endloop
  endfacet
  facet normal 0 0 -1
    outer loop
      vertex 190 -42 -22
      vertex 205.65 -23.8579 -22
      vertex 216 -52 -22
    endloop
  endfacet
  facet normal 0.951056 0.309019 0
    outer loop
      vertex 200.7 -21 -1.5
      vertex 200.7 -21 -2.45787e-14
      vertex 201.33 -22.9397 -2.46558e-14
    endloop
  endfacet
  facet normal 0.951056 -0.309019 0
    outer loop
      vertex 200.7 -21 -1.5
      vertex 201.33 -19.0603 -1.5
      vertex 200.7 -21 -2.45787e-14
    endloop
  endfacet
  facet normal 0 0 1
    outer loop
      vertex 200.7 -21 -1.5
      vertex 201.33 -22.9397 -1.5
      vertex 202.4 -21 -1.5
    endloop
  endfacet
  facet normal 0.951056 0.309019 0
    outer loop
      vertex 200.7 -21 -1.5
      vertex 201.33 -22.9397 -2.46558e-14
      vertex 201.33 -22.9397 -1.5
    endloop
  endfacet
  facet normal 0 0 1
    outer loop
      vertex 200.7 -21 -1.5
      vertex 202.4 -21 -1.5
      vertex 201.33 -19.0603 -1.5
    endloop
  endfacet
  facet normal -0 0 -1
    outer loop
      vertex 200.7 -21 -19.5
      vertex 202.35 -18.1421 -19.5
      vertex 202.706 -20.0595 -19.5
    endloop
  endfacet
  facet normal 0.866024 -0.500002 0
    outer loop
      vertex 200.7 -21 -19.5
      vertex 202.35 -18.1421 -22
      vertex 202.35 -18.1421 -19.5
    endloop
  endfacet
  facet normal 0 0 -1
    outer loop
      vertex 200.7 -21 -19.5
      vertex 202.4 -21 -19.5
      vertex 202.706 -21.9405 -19.5
    endloop
  endfacet
  facet normal 0 0 -1
    outer loop
      vertex 200.7 -21 -19.5
      vertex 202.706 -20.0595 -19.5
      vertex 202.4 -21 -19.5
    endloop
  endfacet
  facet normal 0 0 -1
    outer loop
      vertex 200.7 -21 -19.5
      vertex 202.706 -21.9405 -19.5
      vertex 202.35 -23.8579 -19.5
    endloop
  endfacet
  facet normal 0.951056 -0.309019 0
    outer loop
      vertex 200.7 -21 -2.45787e-14
      vertex 201.33 -19.0603 -1.5
      vertex 201.33 -19.0603 -2.46558e-14
    endloop
  endfacet
  facet normal 0.866024 0.500002 0
    outer loop
      vertex 200.7 -21 -22
      vertex 200.7 -21 -19.5
      vertex 202.35 -23.8579 -19.5
    endloop
  endfacet
  facet normal 0.866024 -0.500002 0
    outer loop
      vertex 200.7 -21 -22
      vertex 202.35 -18.1421 -22
      vertex 200.7 -21 -19.5
    endloop
  endfacet
  facet normal 0.866024 0.500002 0
    outer loop
      vertex 200.7 -21 -22
      vertex 202.35 -23.8579 -19.5
      vertex 202.35 -23.8579 -22
    endloop
  endfacet
  facet normal 0 0 1
    outer loop
      vertex 201.33 -19.0603 -1.5
      vertex 202.4 -21 -1.5
      vertex 202.706 -20.0595 -1.5
    endloop
  endfacet
  facet normal -0 0 1
    outer loop
      vertex 201.33 -19.0603 -1.5
      vertex 202.706 -20.0595 -1.5
      vertex 202.98 -17.8615 -1.5
    endloop
  endfacet
  facet normal 0.587787 -0.809016 0
    outer loop
      vertex 201.33 -19.0603 -1.5
      vertex 202.98 -17.8615 -1.5
      vertex 202.98 -17.8615 -2.48579e-14
    endloop
  endfacet
  facet normal 0.587787 -0.809016 0
    outer loop
      vertex 201.33 -19.0603 -1.5
      vertex 202.98 -17.8615 -2.48579e-14
      vertex 201.33 -19.0603 -2.46558e-14
    endloop
  endfacet
  facet normal 1.22467e-16 -9.9218e-22 1
    outer loop
      vertex 201.33 -19.0603 -2.46558e-14
      vertex 202.98 -17.8615 -2.48579e-14
      vertex 216 10 -2.64524e-14
    endloop
  endfacet
  facet normal 0.587787 0.809016 0
    outer loop
      vertex 201.33 -22.9397 -1.5
      vertex 201.33 -22.9397 -2.46558e-14
      vertex 202.98 -24.1385 -1.5
    endloop
  endfacet
  facet normal 0 0 1
    outer loop
      vertex 201.33 -22.9397 -1.5
      vertex 202.706 -21.9405 -1.5
      vertex 202.4 -21 -1.5
    endloop
  endfacet
  facet normal 0 0 1
    outer loop
      vertex 201.33 -22.9397 -1.5
      vertex 202.98 -24.1385 -1.5
      vertex 202.706 -21.9405 -1.5
    endloop
  endfacet
  facet normal 0.587787 0.809016 -0
    outer loop
      vertex 201.33 -22.9397 -2.46558e-14
      vertex 202.98 -24.1385 -2.48579e-14
      vertex 202.98 -24.1385 -1.5
    endloop
  endfacet
  facet normal 1.22467e-16 9.9218e-22 1
    outer loop
      vertex 201.33 -22.9397 -2.46558e-14
      vertex 216 -52 -2.64524e-14
      vertex 202.98 -24.1385 -2.48579e-14
    endloop
  endfacet
  facet normal 0 0 -1
    outer loop
      vertex 202.35 -18.1421 -19.5
      vertex 203.506 -19.4783 -19.5
      vertex 202.706 -20.0595 -19.5
    endloop
  endfacet
  facet normal 0 0 -1
    outer loop
      vertex 202.35 -18.1421 -19.5
      vertex 205.65 -18.1421 -19.5
      vertex 203.506 -19.4783 -19.5
    endloop
  endfacet
  facet normal 0 -1 0
    outer loop
      vertex 202.35 -18.1421 -22
      vertex 205.65 -18.1421 -19.5
      vertex 202.35 -18.1421 -19.5
    endloop
  endfacet
  facet normal 0 -1 -0
    outer loop
      vertex 202.35 -18.1421 -22
      vertex 205.65 -18.1421 -22
      vertex 205.65 -18.1421 -19.5
    endloop
  endfacet
  facet normal -0 0 -1
    outer loop
      vertex 202.35 -23.8579 -19.5
      vertex 202.706 -21.9405 -19.5
      vertex 203.506 -22.5217 -19.5
    endloop
  endfacet
  facet normal 0 0 -1
    outer loop
      vertex 202.35 -23.8579 -19.5
      vertex 203.506 -22.5217 -19.5
      vertex 205.65 -23.8579 -19.5
    endloop
  endfacet
  facet normal 0 1 -0
    outer loop
      vertex 202.35 -23.8579 -19.5
      vertex 205.65 -23.8579 -19.5
      vertex 205.65 -23.8579 -22
    endloop
  endfacet
  facet normal 0 1 0
    outer loop
      vertex 202.35 -23.8579 -22
      vertex 202.35 -23.8579 -19.5
      vertex 205.65 -23.8579 -22
    endloop
  endfacet
  facet normal 0.951057 -0.309017 0
    outer loop
      vertex 202.4 -21 -1.5
      vertex 202.706 -20.0595 -19.5
      vertex 202.706 -20.0595 -1.5
    endloop
  endfacet
  facet normal 0.951057 0.309017 0
    outer loop
      vertex 202.4 -21 -19.5
      vertex 202.4 -21 -1.5
      vertex 202.706 -21.9405 -1.5
    endloop
  endfacet
  facet normal 0.951057 -0.309017 0
    outer loop
      vertex 202.4 -21 -19.5
      vertex 202.706 -20.0595 -19.5
      vertex 202.4 -21 -1.5
    endloop
  endfacet
  facet normal 0.951057 0.309017 0
    outer loop
      vertex 202.4 -21 -19.5
      vertex 202.706 -21.9405 -1.5
      vertex 202.706 -21.9405 -19.5
    endloop
  endfacet
  facet normal 0 0 1
    outer loop
      vertex 202.706 -20.0595 -1.5
      vertex 203.506 -19.4783 -1.5
      vertex 202.98 -17.8615 -1.5
    endloop
  endfacet
  facet normal 0.587784 -0.809018 0
    outer loop
      vertex 202.706 -20.0595 -19.5
      vertex 203.506 -19.4783 -1.5
      vertex 202.706 -20.0595 -1.5
    endloop
  endfacet
  facet normal 0.587784 -0.809018 0
    outer loop
      vertex 202.706 -20.0595 -19.5
      vertex 203.506 -19.4783 -19.5
      vertex 203.506 -19.4783 -1.5
    endloop
  endfacet
  facet normal 0 0 1
    outer loop
      vertex 202.706 -21.9405 -1.5
      vertex 202.98 -24.1385 -1.5
      vertex 203.506 -22.5217 -1.5
    endloop
  endfacet
  facet normal 0.587784 0.809018 -0
    outer loop
      vertex 202.706 -21.9405 -1.5
      vertex 203.506 -22.5217 -1.5
      vertex 203.506 -22.5217 -19.5
    endloop
  endfacet
  facet normal 0.587784 0.809018 0
    outer loop
      vertex 202.706 -21.9405 -19.5
      vertex 202.706 -21.9405 -1.5
      vertex 203.506 -22.5217 -19.5
    endloop
  endfacet
  facet normal -0 0 1
    outer loop
      vertex 202.98 -17.8615 -1.5
      vertex 203.506 -19.4783 -1.5
      vertex 205.02 -17.8615 -1.5
    endloop
  endfacet
  facet normal 0 -1 -0
    outer loop
      vertex 202.98 -17.8615 -1.5
      vertex 205.02 -17.8615 -1.5
      vertex 205.02 -17.8615 -2.51077e-14
    endloop
  endfacet
  facet normal 0 -1 0
    outer loop
      vertex 202.98 -17.8615 -1.5
      vertex 205.02 -17.8615 -2.51077e-14
      vertex 202.98 -17.8615 -2.48579e-14
    endloop
  endfacet
  facet normal 1.22464e-16 2.44944e-22 1
    outer loop
      vertex 202.98 -17.8615 -2.48579e-14
      vertex 205.02 -17.8615 -2.51077e-14
      vertex 216 10 -2.64524e-14
    endloop
  endfacet
  facet normal 0 1 0
    outer loop
      vertex 202.98 -24.1385 -1.5
      vertex 202.98 -24.1385 -2.48579e-14
      vertex 205.02 -24.1385 -1.5
    endloop
  endfacet
  facet normal 0 0 1
    outer loop
      vertex 202.98 -24.1385 -1.5
      vertex 205.02 -24.1385 -1.5
      vertex 203.506 -22.5217 -1.5
    endloop
  endfacet
  facet normal 0 1 -0
    outer loop
      vertex 202.98 -24.1385 -2.48579e-14
      vertex 205.02 -24.1385 -2.51077e-14
      vertex 205.02 -24.1385 -1.5
    endloop
  endfacet
  facet normal 1.22464e-16 -2.44944e-22 1
    outer loop
      vertex 202.98 -24.1385 -2.48579e-14
      vertex 216 -52 -2.64524e-14
      vertex 205.02 -24.1385 -2.51077e-14
    endloop
  endfacet
  facet normal 0 0 1
    outer loop
      vertex 203.506 -19.4783 -1.5
      vertex 204.494 -19.4783 -1.5
      vertex 205.02 -17.8615 -1.5
    endloop
  endfacet
  facet normal 0 -1 0
    outer loop
      vertex 203.506 -19.4783 -19.5
      vertex 204.494 -19.4783 -1.5
      vertex 203.506 -19.4783 -1.5
    endloop
  endfacet
  facet normal 0 -1 -0
    outer loop
      vertex 203.506 -19.4783 -19.5
      vertex 204.494 -19.4783 -19.5
      vertex 204.494 -19.4783 -1.5
    endloop
  endfacet
  facet normal 0 0 -1
    outer loop
      vertex 203.506 -19.4783 -19.5
      vertex 205.65 -18.1421 -19.5
      vertex 204.494 -19.4783 -19.5
    endloop
  endfacet
  facet normal 0 1 -0
    outer loop
      vertex 203.506 -22.5217 -1.5
      vertex 204.494 -22.5217 -1.5
      vertex 204.494 -22.5217 -19.5
    endloop
  endfacet
  facet normal -0 0 1
    outer loop
      vertex 203.506 -22.5217 -1.5
      vertex 205.02 -24.1385 -1.5
      vertex 204.494 -22.5217 -1.5
    endloop
  endfacet
  facet normal 0 1 0
    outer loop
      vertex 203.506 -22.5217 -19.5
      vertex 203.506 -22.5217 -1.5
      vertex 204.494 -22.5217 -19.5
    endloop
  endfacet
  facet normal 0 0 -1
    outer loop
      vertex 203.506 -22.5217 -19.5
      vertex 204.494 -22.5217 -19.5
      vertex 205.65 -23.8579 -19.5
    endloop
  endfacet
  facet normal 0 0 1
    outer loop
      vertex 204.494 -19.4783 -1.5
      vertex 205.294 -20.0595 -1.5
      vertex 205.02 -17.8615 -1.5
    endloop
  endfacet
  facet normal -0.587784 -0.809018 0
    outer loop
      vertex 204.494 -19.4783 -19.5
      vertex 205.294 -20.0595 -1.5
      vertex 204.494 -19.4783 -1.5
    endloop
  endfacet
  facet normal -0.587784 -0.809018 -0
    outer loop
      vertex 204.494 -19.4783 -19.5
      vertex 205.294 -20.0595 -19.5
      vertex 205.294 -20.0595 -1.5
    endloop
  endfacet
  facet normal 0 0 -1
    outer loop
      vertex 204.494 -19.4783 -19.5
      vertex 205.65 -18.1421 -19.5
      vertex 205.294 -20.0595 -19.5
    endloop
  endfacet
  facet normal -0 0 1
    outer loop
      vertex 204.494 -22.5217 -1.5
      vertex 205.02 -24.1385 -1.5
      vertex 205.294 -21.9405 -1.5
    endloop
  endfacet
  facet normal -0.587784 0.809018 0
    outer loop
      vertex 204.494 -22.5217 -1.5
      vertex 205.294 -21.9405 -1.5
      vertex 205.294 -21.9405 -19.5
    endloop
  endfacet
  facet normal -0.587784 0.809018 0
    outer loop
      vertex 204.494 -22.5217 -19.5
      vertex 204.494 -22.5217 -1.5
      vertex 205.294 -21.9405 -19.5
    endloop
  endfacet
  facet normal 0 0 -1
    outer loop
      vertex 204.494 -22.5217 -19.5
      vertex 205.294 -21.9405 -19.5
      vertex 205.65 -23.8579 -19.5
    endloop
  endfacet
  facet normal 0 0 1
    outer loop
      vertex 205.02 -17.8615 -1.5
      vertex 205.294 -20.0595 -1.5
      vertex 206.67 -19.0603 -1.5
    endloop
  endfacet
  facet normal -0.587787 -0.809016 -0
    outer loop
      vertex 205.02 -17.8615 -1.5
      vertex 206.67 -19.0603 -1.5
      vertex 206.67 -19.0603 -2.53097e-14
    endloop
  endfacet
  facet normal -0.587787 -0.809016 0
    outer loop
      vertex 205.02 -17.8615 -1.5
      vertex 206.67 -19.0603 -2.53097e-14
      vertex 205.02 -17.8615 -2.51077e-14
    endloop
  endfacet
  facet normal 1.22465e-16 -8.52556e-23 1
    outer loop
      vertex 205.02 -17.8615 -2.51077e-14
      vertex 206.67 -19.0603 -2.53097e-14
      vertex 216 10 -2.64524e-14
    endloop
  endfacet
  facet normal -0.587787 0.809016 0
    outer loop
      vertex 205.02 -24.1385 -1.5
      vertex 205.02 -24.1385 -2.51077e-14
      vertex 206.67 -22.9397 -1.5
    endloop
  endfacet
  facet normal 0 0 1
    outer loop
      vertex 205.02 -24.1385 -1.5
      vertex 206.67 -22.9397 -1.5
      vertex 205.294 -21.9405 -1.5
    endloop
  endfacet
  facet normal -0.587787 0.809016 0
    outer loop
      vertex 205.02 -24.1385 -2.51077e-14
      vertex 206.67 -22.9397 -2.53097e-14
      vertex 206.67 -22.9397 -1.5
    endloop
  endfacet
  facet normal 1.22465e-16 8.52556e-23 1
    outer loop
      vertex 205.02 -24.1385 -2.51077e-14
      vertex 216 -52 -2.64524e-14
      vertex 206.67 -22.9397 -2.53097e-14
    endloop
  endfacet
  facet normal 0 0 1
    outer loop
      vertex 205.294 -20.0595 -1.5
      vertex 205.6 -21 -1.5
      vertex 206.67 -19.0603 -1.5
    endloop
  endfacet
  facet normal -0.951057 -0.309017 0
    outer loop
      vertex 205.294 -20.0595 -1.5
      vertex 205.6 -21 -19.5
      vertex 205.6 -21 -1.5
    endloop
  endfacet
  facet normal -0.951057 -0.309017 0
    outer loop
      vertex 205.294 -20.0595 -19.5
      vertex 205.6 -21 -19.5
      vertex 205.294 -20.0595 -1.5
    endloop
  endfacet
  facet normal 0 0 -1
    outer loop
      vertex 205.294 -20.0595 -19.5
      vertex 205.65 -18.1421 -19.5
      vertex 207.3 -21 -19.5
    endloop
  endfacet
  facet normal 0 0 -1
    outer loop
      vertex 205.294 -20.0595 -19.5
      vertex 207.3 -21 -19.5
      vertex 205.6 -21 -19.5
    endloop
  endfacet
  facet normal -0 0 1
    outer loop
      vertex 205.294 -21.9405 -1.5
      vertex 206.67 -22.9397 -1.5
      vertex 205.6 -21 -1.5
    endloop
  endfacet
  facet normal -0.951057 0.309017 0
    outer loop
      vertex 205.294 -21.9405 -19.5
      vertex 205.294 -21.9405 -1.5
      vertex 205.6 -21 -1.5
    endloop
  endfacet
  facet normal -0.951057 0.309017 0
    outer loop
      vertex 205.294 -21.9405 -19.5
      vertex 205.6 -21 -1.5
      vertex 205.6 -21 -19.5
    endloop
  endfacet
  facet normal -0 0 -1
    outer loop
      vertex 205.294 -21.9405 -19.5
      vertex 205.6 -21 -19.5
      vertex 207.3 -21 -19.5
    endloop
  endfacet
  facet normal 0 0 -1
    outer loop
      vertex 205.294 -21.9405 -19.5
      vertex 207.3 -21 -19.5
      vertex 205.65 -23.8579 -19.5
    endloop
  endfacet
  facet normal 0 0 1
    outer loop
      vertex 205.6 -21 -1.5
      vertex 206.67 -22.9397 -1.5
      vertex 207.3 -21 -1.5
    endloop
  endfacet
  facet normal 0 0 1
    outer loop
      vertex 205.6 -21 -1.5
      vertex 207.3 -21 -1.5
      vertex 206.67 -19.0603 -1.5
    endloop
  endfacet
  facet normal -0.866024 -0.500002 0
    outer loop
      vertex 205.65 -18.1421 -19.5
      vertex 207.3 -21 -22
      vertex 207.3 -21 -19.5
    endloop
  endfacet
  facet normal -0.866024 -0.500002 0
    outer loop
      vertex 205.65 -18.1421 -22
      vertex 207.3 -21 -22
      vertex 205.65 -18.1421 -19.5
    endloop
  endfacet
  facet normal 0 0 -1
    outer loop
      vertex 205.65 -18.1421 -22
      vertex 216 10 -22
      vertex 207.3 -21 -22
    endloop
  endfacet
  facet normal -0.866024 0.500002 0
    outer loop
      vertex 205.65 -23.8579 -22
      vertex 205.65 -23.8579 -19.5
      vertex 207.3 -21 -19.5
    endloop
  endfacet
  facet normal -0.866024 0.500002 0
    outer loop
      vertex 205.65 -23.8579 -22
      vertex 207.3 -21 -19.5
      vertex 207.3 -21 -22
    endloop
  endfacet
  facet normal 0 0 -1
    outer loop
      vertex 205.65 -23.8579 -22
      vertex 207.3 -21 -22
      vertex 216 -52 -22
    endloop
  endfacet
  facet normal -0.951056 -0.309019 0
    outer loop
      vertex 206.67 -19.0603 -1.5
      vertex 207.3 -21 -1.5
      vertex 206.67 -19.0603 -2.53097e-14
    endloop
  endfacet
  facet normal -0.951056 -0.309019 0
    outer loop
      vertex 206.67 -19.0603 -2.53097e-14
      vertex 207.3 -21 -1.5
      vertex 207.3 -21 -2.53869e-14
    endloop
  endfacet
  facet normal 1.22463e-16 4.07854e-22 1
    outer loop
      vertex 206.67 -19.0603 -2.53097e-14
      vertex 207.3 -21 -2.53869e-14
      vertex 216 10 -2.64524e-14
    endloop
  endfacet
  facet normal -0.951056 0.309019 0
    outer loop
      vertex 206.67 -22.9397 -1.5
      vertex 206.67 -22.9397 -2.53097e-14
      vertex 207.3 -21 -2.53869e-14
    endloop
  endfacet
  facet normal -0.951056 0.309019 0
    outer loop
      vertex 206.67 -22.9397 -1.5
      vertex 207.3 -21 -2.53869e-14
      vertex 207.3 -21 -1.5
    endloop
  endfacet
  facet normal 1.22463e-16 -4.07854e-22 1
    outer loop
      vertex 206.67 -22.9397 -2.53097e-14
      vertex 216 -52 -2.64524e-14
      vertex 207.3 -21 -2.53869e-14
    endloop
  endfacet
  facet normal 1.22465e-16 0 1
    outer loop
      vertex 207.3 -21 -2.53869e-14
      vertex 216 -52 -2.64524e-14
      vertex 216 10 -2.64524e-14
    endloop
  endfacet
  facet normal 0 0 -1
    outer loop
      vertex 207.3 -21 -22
      vertex 216 10 -22
      vertex 216 -52 -22
    endloop
  endfacet
  facet normal 1 -0 0
    outer loop
      vertex 216 -52 -2.64524e-14
      vertex 216 10 -22
      vertex 216 10 -2.64524e-14
    endloop
  endfacet
  facet normal 1 0 0
    outer loop
      vertex 216 -52 -22
      vertex 216 10 -22
      vertex 216 -52 -2.64524e-14
    endloop
  endfacet
endsolid model
