solid model
  facet normal -1 0 0
    outer loop
      vertex -10 -0.494427 23.4783
      vertex -10 0 23.4
      vertex -10 0 21.7
    endloop
  endfacet
  facet normal 0 0.156416 0.987691
    outer loop
      vertex -10 -0.494427 23.4783
      vertex -5 -0.494427 23.4783
      vertex -10 0 23.4
    endloop
  endfacet
  facet normal -0 0.454049 0.890977
    outer loop
      vertex -10 -0.494427 23.4783
      vertex -5 -0.940456 23.7056
      vertex -5 -0.494427 23.4783
    endloop
  endfacet
  facet normal 0 0.156416 -0.987691
    outer loop
      vertex -10 -0.494427 26.5217
      vertex -10 0 26.6
      vertex -5 0 26.6
    endloop
  endfacet
  facet normal -1 0 0
    outer loop
      vertex -10 -0.494427 26.5217
      vertex -10 0 28.3
      vertex -10 0 26.6
    endloop
  endfacet
  facet normal 0 0.156416 -0.987691
    outer loop
      vertex -10 -0.494427 26.5217
      vertex -5 0 26.6
      vertex -5 -0.494427 26.5217
    endloop
  endfacet
  facet normal -1 0 0
    outer loop
      vertex -10 -0.940456 23.7056
      vertex -10 -0.494427 23.4783
      vertex -10 0 21.7
    endloop
  endfacet
  facet normal 0 0.454049 0.890977
    outer loop
      vertex -10 -0.940456 23.7056
      vertex -5 -0.940456 23.7056
      vertex -10 -0.494427 23.4783
    endloop
  endfacet
  facet normal -0 0.707033 0.707181
    outer loop
      vertex -10 -0.940456 23.7056
      vertex -5 -1.29443 24.0595
      vertex -5 -0.940456 23.7056
    endloop
  endfacet
  facet normal 0 0.454049 -0.890977
    outer loop
      vertex -10 -0.940456 26.2944
      vertex -10 -0.494427 26.5217
      vertex -5 -0.494427 26.5217
    endloop
  endfacet
  facet normal -1 0 0
    outer loop
      vertex -10 -0.940456 26.2944
      vertex -10 0 28.3
      vertex -10 -0.494427 26.5217
    endloop
  endfacet
  facet normal 0 0.454049 -0.890977
    outer loop
      vertex -10 -0.940456 26.2944
      vertex -5 -0.494427 26.5217
      vertex -5 -0.940456 26.2944
    endloop
  endfacet
  facet normal 0 0.707033 0.707181
    outer loop
      vertex -10 -1.29443 24.0595
      vertex -5 -1.29443 24.0595
      vertex -10 -0.940456 23.7056
    endloop
  endfacet
  facet normal 0 0.707033 -0.707181
    outer loop
      vertex -10 -1.29443 25.9405
      vertex -10 -0.940456 26.2944
      vertex -5 -0.940456 26.2944
    endloop
  endfacet
  facet normal 0 0.707033 -0.707181
    outer loop
      vertex -10 -1.29443 25.9405
      vertex -5 -0.940456 26.2944
      vertex -5 -1.29443 25.9405
    endloop
  endfacet
  facet normal 0 0.891038 -0.453928
    outer loop
      vertex -10 -1.29443 25.9405
      vertex -5 -1.29443 25.9405
      vertex -5 -1.52169 25.4944
    endloop
  endfacet
  facet normal 0 0.891038 0.453928
    outer loop
      vertex -10 -1.52169 24.5056
      vertex -5 -1.29443 24.0595
      vertex -10 -1.29443 24.0595
    endloop
  endfacet
  facet normal 0 0.891038 0.453928
    outer loop
      vertex -10 -1.52169 24.5056
      vertex -5 -1.52169 24.5056
      vertex -5 -1.29443 24.0595
    endloop
  endfacet
  facet normal 0 0.891038 -0.453928
    outer loop
      vertex -10 -1.52169 25.4944
      vertex -10 -1.29443 25.9405
      vertex -5 -1.52169 25.4944
    endloop
  endfacet
  facet normal 0 0.987687 -0.156444
    outer loop
      vertex -10 -1.52169 25.4944
      vertex -5 -1.52169 25.4944
      vertex -5 -1.6 25
    endloop
  endfacet
  facet normal 0 0.987687 -0.156444
    outer loop
      vertex -10 -1.6 25
      vertex -10 -1.52169 25.4944
      vertex -5 -1.6 25
    endloop
  endfacet
  facet normal 0 0.987687 0.156444
    outer loop
      vertex -10 -1.6 25
      vertex -5 -1.52169 24.5056
      vertex -10 -1.52169 24.5056
    endloop
  endfacet
  facet normal 0 0.987687 0.156444
    outer loop
      vertex -10 -1.6 25
      vertex -5 -1.6 25
      vertex -5 -1.52169 24.5056
    endloop
  endfacet
  facet normal -1 0 0
    outer loop
      vertex -10 -2.85788 23.35
      vertex -10 -0.940456 23.7056
      vertex -10 0 21.7
    endloop
  endfacet
  facet normal -1 -0 0
    outer loop
      vertex -10 -2.85788 23.35
      vertex -10 -1.29443 24.0595
      vertex -10 -0.940456 23.7056
    endloop
  endfacet
  facet normal -1 -0 0
    outer loop
      vertex -10 -2.85788 23.35
      vertex -10 -1.52169 24.5056
      vertex -10 -1.29443 24.0595
    endloop
  endfacet
  facet normal -1 -0 0
    outer loop
      vertex -10 -2.85788 23.35
      vertex -10 -1.6 25
      vertex -10 -1.52169 24.5056
    endloop
  endfacet
  facet normal -1 0 0
    outer loop
      vertex -10 -2.85788 23.35
      vertex -10 -2.85788 26.65
      vertex -10 -1.6 25
    endloop
  endfacet
  facet normal -1 0 0
    outer loop
      vertex -10 -2.85788 26.65
      vertex -10 -0.940456 26.2944
      vertex -10 -1.29443 25.9405
    endloop
  endfacet
  facet normal -1 0 0
    outer loop
      vertex -10 -2.85788 26.65
      vertex -10 -1.29443 25.9405
      vertex -10 -1.52169 25.4944
    endloop
  endfacet
  facet normal -1 0 0
    outer loop
      vertex -10 -2.85788 26.65
      vertex -10 -1.52169 25.4944
      vertex -10 -1.6 25
    endloop
  endfacet
  facet normal -1 0 0
    outer loop
      vertex -10 -2.85788 26.65
      vertex -10 0 28.3
      vertex -10 -0.940456 26.2944
    endloop
  endfacet
  facet normal -1 0 0
    outer loop
      vertex -10 0 21.7
      vertex -10 0 23.4
      vertex -10 0.494427 23.4783
    endloop
  endfacet
  facet normal -1 0 0
    outer loop
      vertex -10 0 21.7
      vertex -10 0.494427 23.4783
      vertex -10 0.940456 23.7056
    endloop
  endfacet
  facet normal -1 0 0
    outer loop
      vertex -10 0 21.7
      vertex -10 0.940456 23.7056
      vertex -10 2.85788 23.35
    endloop
  endfacet
  facet normal -0 0.156416 0.987691
    outer loop
      vertex -10 0 23.4
      vertex -5 -0.494427 23.4783
      vertex -5 0 23.4
    endloop
  endfacet
  facet normal 0 -0.156416 0.987691
    outer loop
      vertex -10 0 23.4
      vertex -5 0 23.4
      vertex -10 0.494427 23.4783
    endloop
  endfacet
  facet normal -1 0 0
    outer loop
      vertex -10 0 26.6
      vertex -10 0 28.3
      vertex -10 0.494427 26.5217
    endloop
  endfacet
  facet normal -0 -0.156416 -0.987691
    outer loop
      vertex -10 0 26.6
      vertex -10 0.494427 26.5217
      vertex -5 0.494427 26.5217
    endloop
  endfacet
  facet normal 0 -0.156416 -0.987691
    outer loop
      vertex -10 0 26.6
      vertex -5 0.494427 26.5217
      vertex -5 0 26.6
    endloop
  endfacet
  facet normal -1 0 0
    outer loop
      vertex -10 0 28.3
      vertex -10 0.940456 26.2944
      vertex -10 0.494427 26.5217
    endloop
  endfacet
  facet normal -1 0 0
    outer loop
      vertex -10 0 28.3
      vertex -10 2.85788 26.65
      vertex -10 0.940456 26.2944
    endloop
  endfacet
  facet normal 0 -0.156416 0.987691
    outer loop
      vertex -10 0.494427 23.4783
      vertex -5 0 23.4
      vertex -5 0.494427 23.4783
    endloop
  endfacet
  facet normal 0 -0.454049 0.890977
    outer loop
      vertex -10 0.494427 23.4783
      vertex -5 0.494427 23.4783
      vertex -10 0.940456 23.7056
    endloop
  endfacet
  facet normal -0 -0.454049 -0.890977
    outer loop
      vertex -10 0.494427 26.5217
      vertex -10 0.940456 26.2944
      vertex -5 0.940456 26.2944
    endloop
  endfacet
  facet normal 0 -0.454049 -0.890977
    outer loop
      vertex -10 0.494427 26.5217
      vertex -5 0.940456 26.2944
      vertex -5 0.494427 26.5217
    endloop
  endfacet
  facet normal -1 0 0
    outer loop
      vertex -10 0.940456 23.7056
      vertex -10 1.29443 24.0595
      vertex -10 2.85788 23.35
    endloop
  endfacet
  facet normal 0 -0.454049 0.890977
    outer loop
      vertex -10 0.940456 23.7056
      vertex -5 0.494427 23.4783
      vertex -5 0.940456 23.7056
    endloop
  endfacet
  facet normal 0 -0.707033 0.707181
    outer loop
      vertex -10 0.940456 23.7056
      vertex -5 0.940456 23.7056
      vertex -10 1.29443 24.0595
    endloop
  endfacet
  facet normal -0 -0.707033 -0.707181
    outer loop
      vertex -10 0.940456 26.2944
      vertex -10 1.29443 25.9405
      vertex -5 1.29443 25.9405
    endloop
  endfacet
  facet normal -1 0 0
    outer loop
      vertex -10 0.940456 26.2944
      vertex -10 2.85788 26.65
      vertex -10 1.29443 25.9405
    endloop
  endfacet
  facet normal 0 -0.707033 -0.707181
    outer loop
      vertex -10 0.940456 26.2944
      vertex -5 1.29443 25.9405
      vertex -5 0.940456 26.2944
    endloop
  endfacet
  facet normal -1 0 0
    outer loop
      vertex -10 1.29443 24.0595
      vertex -10 1.52169 24.5056
      vertex -10 2.85788 23.35
    endloop
  endfacet
  facet normal 0 -0.707033 0.707181
    outer loop
      vertex -10 1.29443 24.0595
      vertex -5 0.940456 23.7056
      vertex -5 1.29443 24.0595
    endloop
  endfacet
  facet normal 0 -0.891038 0.453928
    outer loop
      vertex -10 1.29443 24.0595
      vertex -5 1.29443 24.0595
      vertex -5 1.52169 24.5056
    endloop
  endfacet
  facet normal 0 -0.891038 0.453928
    outer loop
      vertex -10 1.29443 24.0595
      vertex -5 1.52169 24.5056
      vertex -10 1.52169 24.5056
    endloop
  endfacet
  facet normal 0 -0.891038 -0.453928
    outer loop
      vertex -10 1.29443 25.9405
      vertex -10 1.52169 25.4944
      vertex -5 1.29443 25.9405
    endloop
  endfacet
  facet normal -1 0 0
    outer loop
      vertex -10 1.29443 25.9405
      vertex -10 2.85788 26.65
      vertex -10 1.52169 25.4944
    endloop
  endfacet
  facet normal -1 0 0
    outer loop
      vertex -10 1.52169 24.5056
      vertex -10 1.6 25
      vertex -10 2.85788 23.35
    endloop
  endfacet
  facet normal 0 -0.987687 0.156444
    outer loop
      vertex -10 1.52169 24.5056
      vertex -5 1.52169 24.5056
      vertex -5 1.6 25
    endloop
  endfacet
  facet normal 0 -0.987687 0.156444
    outer loop
      vertex -10 1.52169 24.5056
      vertex -5 1.6 25
      vertex -10 1.6 25
    endloop
  endfacet
  facet normal 0 -0.987687 -0.156444
    outer loop
      vertex -10 1.52169 25.4944
      vertex -10 1.6 25
      vertex -5 1.52169 25.4944
    endloop
  endfacet
  facet normal -1 0 0
    outer loop
      vertex -10 1.52169 25.4944
      vertex -10 2.85788 26.65
      vertex -10 1.6 25
    endloop
  endfacet
  facet normal 0 -0.891038 -0.453928
    outer loop
      vertex -10 1.52169 25.4944
      vertex -5 1.52169 25.4944
      vertex -5 1.29443 25.9405
    endloop
  endfacet
  facet normal -1 0 0
    outer loop
      vertex -10 1.6 25
      vertex -10 2.85788 26.65
      vertex -10 2.85788 23.35
    endloop
  endfacet
  facet normal 0 -0.987687 -0.156444
    outer loop
      vertex -10 1.6 25
      vertex -5 1.6 25
      vertex -5 1.52169 25.4944
    endloop
  endfacet
  facet normal 0 -0.173634 0.98481
    outer loop
      vertex -11.25 -1.92386 30.2858
      vertex -5 -1.92386 30.2858
      vertex -11.25 0 30.625
    endloop
  endfacet
  facet normal 0 -0.50001 0.866019
    outer loop
      vertex -11.25 -1.92386 30.2858
      vertex -5 -3.61568 29.309
      vertex -5 -1.92386 30.2858
    endloop
  endfacet
  facet normal 0 -0.50001 0.866019
    outer loop
      vertex -11.25 -3.61568 29.309
      vertex -5 -3.61568 29.309
      vertex -11.25 -1.92386 30.2858
    endloop
  endfacet
  facet normal 0 -0.766045 0.642787
    outer loop
      vertex -11.25 -4.87139 27.8125
      vertex -5 -3.61568 29.309
      vertex -11.25 -3.61568 29.309
    endloop
  endfacet
  facet normal 0 -0.766045 0.642787
    outer loop
      vertex -11.25 -4.87139 27.8125
      vertex -5 -4.87139 27.8125
      vertex -5 -3.61568 29.309
    endloop
  endfacet
  facet normal 0 -0.893797 0.448471
    outer loop
      vertex -11.25 -4.87139 27.8125
      vertex -5 -9.29314 19
      vertex -5 -4.87139 27.8125
    endloop
  endfacet
  facet normal 0 -0.173634 0.98481
    outer loop
      vertex -11.25 0 30.625
      vertex -5 -1.92386 30.2858
      vertex -5 0 30.625
    endloop
  endfacet
  facet normal 0 0.173634 0.98481
    outer loop
      vertex -11.25 0 30.625
      vertex -5 0 30.625
      vertex -11.25 1.92386 30.2858
    endloop
  endfacet
  facet normal -0 0.173634 0.98481
    outer loop
      vertex -11.25 1.92386 30.2858
      vertex -5 0 30.625
      vertex -5 1.92386 30.2858
    endloop
  endfacet
  facet normal 0 0.50001 0.866019
    outer loop
      vertex -11.25 1.92386 30.2858
      vertex -5 1.92386 30.2858
      vertex -11.25 3.61568 29.309
    endloop
  endfacet
  facet normal -0 0.50001 0.866019
    outer loop
      vertex -11.25 3.61568 29.309
      vertex -5 1.92386 30.2858
      vertex -5 3.61568 29.309
    endloop
  endfacet
  facet normal 0 0.766045 0.642787
    outer loop
      vertex -11.25 3.61568 29.309
      vertex -5 3.61568 29.309
      vertex -5 4.87139 27.8125
    endloop
  endfacet
  facet normal 0 0.766045 0.642787
    outer loop
      vertex -11.25 3.61568 29.309
      vertex -5 4.87139 27.8125
      vertex -11.25 4.87139 27.8125
    endloop
  endfacet
  facet normal 0 0.893797 0.448471
    outer loop
      vertex -11.25 4.87139 27.8125
      vertex -5 4.87139 27.8125
      vertex -5 9.29314 19
    endloop
  endfacet
  facet normal 0 0.500001 -0.866025
    outer loop
      vertex -12.9348 0 28.3
      vertex -10 0 28.3
      vertex -10 -2.85788 26.65
    endloop
  endfacet
  facet normal 0 -0.500001 -0.866025
    outer loop
      vertex -12.9348 0 28.3
      vertex -10 2.85788 26.65
      vertex -10 0 28.3
    endloop
  endfacet
  facet normal 0 1 -0
    outer loop
      vertex -14.1304 -2.85788 26.65
      vertex -10 -2.85788 26.65
      vertex -10 -2.85788 23.35
    endloop
  endfacet
  facet normal -0.809747 -1.82799e-05 0.586779
    outer loop
      vertex -14.1304 -2.85788 26.65
      vertex -11.25 0 30.625
      vertex -12.9348 0 28.3
    endloop
  endfacet
  facet normal 0 0.500001 -0.866025
    outer loop
      vertex -14.1304 -2.85788 26.65
      vertex -12.9348 0 28.3
      vertex -10 -2.85788 26.65
    endloop
  endfacet
  facet normal 0 -1 0
    outer loop
      vertex -14.1304 2.85788 26.65
      vertex -10 2.85788 23.35
      vertex -10 2.85788 26.65
    endloop
  endfacet
  facet normal -0 -0.500001 -0.866025
    outer loop
      vertex -14.1304 2.85788 26.65
      vertex -10 2.85788 26.65
      vertex -12.9348 0 28.3
    endloop
  endfacet
  facet normal -0.809747 1.82799e-05 0.586779
    outer loop
      vertex -14.1304 2.85788 26.65
      vertex -12.9348 0 28.3
      vertex -11.25 0 30.625
    endloop
  endfacet
  facet normal 0 0.500001 0.866025
    outer loop
      vertex -16.5217 -2.85788 23.35
      vertex -10 -2.85788 23.35
      vertex -10 0 21.7
    endloop
  endfacet
  facet normal 0 1 0
    outer loop
      vertex -16.5217 -2.85788 23.35
      vertex -14.1304 -2.85788 26.65
      vertex -10 -2.85788 23.35
    endloop
  endfacet
  facet normal 0 -0.500001 0.866025
    outer loop
      vertex -16.5217 2.85788 23.35
      vertex -10 0 21.7
      vertex -10 2.85788 23.35
    endloop
  endfacet
  facet normal 0 -1 0
    outer loop
      vertex -16.5217 2.85788 23.35
      vertex -10 2.85788 23.35
      vertex -14.1304 2.85788 26.65
    endloop
  endfacet
  facet normal 0 -0.500001 0.866025
    outer loop
      vertex -17.7174 0 21.7
      vertex -10 0 21.7
      vertex -16.5217 2.85788 23.35
    endloop
  endfacet
  facet normal 0 0.500001 0.866025
    outer loop
      vertex -17.7174 0 21.7
      vertex -16.5217 -2.85788 23.35
      vertex -10 0 21.7
    endloop
  endfacet
  facet normal -1 -0 0
    outer loop
      vertex -22.5 -11.25 15
      vertex -22.5 -11.25 15.1
      vertex -22.5 11.25 15.1
    endloop
  endfacet
  facet normal -1 0 0
    outer loop
      vertex -22.5 -11.25 15
      vertex -22.5 11.25 15.1
      vertex -22.5 11.25 15
    endloop
  endfacet
  facet normal 0 -1 -0
    outer loop
      vertex -22.5 -11.25 15
      vertex 22.5 -11.25 15
      vertex 22.5 -11.25 15.1
    endloop
  endfacet
  facet normal 0 -1 0
    outer loop
      vertex -22.5 -11.25 15
      vertex 22.5 -11.25 15.1
      vertex -22.5 -11.25 15.1
    endloop
  endfacet
  facet normal 0 -0.406138 0.913812
    outer loop
      vertex -22.5 -11.25 15
      vertex 45 -22.5 10
      vertex 22.5 -11.25 15
    endloop
  endfacet
  facet normal -0.76435 -0.111959 0.635007
    outer loop
      vertex -22.5 -11.25 15.1
      vertex -11.25 -1.92386 30.2858
      vertex -11.25 0 30.625
    endloop
  endfacet
  facet normal -0.602292 -0.399146 0.691322
    outer loop
      vertex -22.5 -11.25 15.1
      vertex -11.25 -3.61568 29.309
      vertex -11.25 -1.92386 30.2858
    endloop
  endfacet
  facet normal -0.280305 -0.735335 0.617018
    outer loop
      vertex -22.5 -11.25 15.1
      vertex -11.25 -4.87139 27.8125
      vertex -11.25 -3.61568 29.309
    endloop
  endfacet
  facet normal -0.810179 0.00124941 0.586181
    outer loop
      vertex -22.5 -11.25 15.1
      vertex -11.25 0 30.625
      vertex -14.1304 -2.85788 26.65
    endloop
  endfacet
  facet normal -0.80975 4.82447e-06 0.586775
    outer loop
      vertex -22.5 -11.25 15.1
      vertex -14.1304 -2.85788 26.65
      vertex -16.5217 -2.85788 23.35
    endloop
  endfacet
  facet normal -0.809745 -7.14013e-06 0.586783
    outer loop
      vertex -22.5 -11.25 15.1
      vertex -16.5217 -2.85788 23.35
      vertex -17.7174 0 21.7
    endloop
  endfacet
  facet normal -0.80975 0 0.586775
    outer loop
      vertex -22.5 -11.25 15.1
      vertex -17.7174 0 21.7
      vertex -22.5 11.25 15.1
    endloop
  endfacet
  facet normal 1.87674e-08 -0.893797 0.448471
    outer loop
      vertex -22.5 -11.25 15.1
      vertex -5 -9.29314 19
      vertex -11.25 -4.87139 27.8125
    endloop
  endfacet
  facet normal 0 -0.893797 0.448471
    outer loop
      vertex -22.5 -11.25 15.1
      vertex 22.5 -11.25 15.1
      vertex 5 -9.29314 19
    endloop
  endfacet
  facet normal 0 -0.893797 0.448471
    outer loop
      vertex -22.5 -11.25 15.1
      vertex 5 -9.29314 19
      vertex -5 -9.29314 19
    endloop
  endfacet
  facet normal 0 1 0
    outer loop
      vertex -22.5 11.25 15
      vertex -22.5 11.25 15.1
      vertex 22.5 11.25 15
    endloop
  endfacet
  facet normal 0 0.406138 0.913812
    outer loop
      vertex -22.5 11.25 15
      vertex 22.5 11.25 15
      vertex 45 22.5 10
    endloop
  endfacet
  facet normal -0.76435 0.111959 0.635007
    outer loop
      vertex -22.5 11.25 15.1
      vertex -11.25 0 30.625
      vertex -11.25 1.92386 30.2858
    endloop
  endfacet
  facet normal -0.602292 0.399146 0.691322
    outer loop
      vertex -22.5 11.25 15.1
      vertex -11.25 1.92386 30.2858
      vertex -11.25 3.61568 29.309
    endloop
  endfacet
  facet normal -0.280305 0.735335 0.617018
    outer loop
      vertex -22.5 11.25 15.1
      vertex -11.25 3.61568 29.309
      vertex -11.25 4.87139 27.8125
    endloop
  endfacet
  facet normal 1.87674e-08 0.893797 0.448471
    outer loop
      vertex -22.5 11.25 15.1
      vertex -11.25 4.87139 27.8125
      vertex -5 9.29314 19
    endloop
  endfacet
  facet normal -0.810179 -0.00124941 0.586181
    outer loop
      vertex -22.5 11.25 15.1
      vertex -14.1304 2.85788 26.65
      vertex -11.25 0 30.625
    endloop
  endfacet
  facet normal -0.80975 -4.82447e-06 0.586775
    outer loop
      vertex -22.5 11.25 15.1
      vertex -16.5217 2.85788 23.35
      vertex -14.1304 2.85788 26.65
    endloop
  endfacet
  facet normal -0.809745 7.14013e-06 0.586783
    outer loop
      vertex -22.5 11.25 15.1
      vertex -17.7174 0 21.7
      vertex -16.5217 2.85788 23.35
    endloop
  endfacet
  facet normal -0 0.893797 0.448471
    outer loop
      vertex -22.5 11.25 15.1
      vertex -5 9.29314 19
      vertex 22.5 11.25 15.1
    endloop
  endfacet
  facet normal 0 1 -0
    outer loop
      vertex -22.5 11.25 15.1
      vertex 22.5 11.25 15.1
      vertex 22.5 11.25 15
    endloop
  endfacet
  facet normal -0.21693 0 0.976187
    outer loop
      vertex -37.1421 -1.65 11.7462
      vertex -22.5 -11.25 15
      vertex -37.1421 1.65 11.7462
    endloop
  endfacet
  facet normal -1 -0 0
    outer loop
      vertex -37.1421 -1.65 7.05
      vertex -37.1421 -1.65 11.7462
      vertex -37.1421 1.65 11.7462
    endloop
  endfacet
  facet normal -1 0 0
    outer loop
      vertex -37.1421 -1.65 7.05
      vertex -37.1421 1.65 11.7462
      vertex -37.1421 1.65 7.05
    endloop
  endfacet
  facet normal -0.21693 0 0.976187
    outer loop
      vertex -37.1421 1.65 11.7462
      vertex -22.5 -11.25 15
      vertex -22.5 11.25 15
    endloop
  endfacet
  facet normal 0 0 -1
    outer loop
      vertex -38.4 0 0
      vertex 38.4 0 0
      vertex 38.4783 -0.494427 0
    endloop
  endfacet
  facet normal 0 0 -1
    outer loop
      vertex -38.4 0 0
      vertex 38.4783 0.494427 0
      vertex 38.4 0 0
    endloop
  endfacet
  facet normal 0 0 1
    outer loop
      vertex -38.4 0 7.05
      vertex -37.1421 -1.65 7.05
      vertex -37.1421 1.65 7.05
    endloop
  endfacet
  facet normal 0 0 -1
    outer loop
      vertex -38.4783 -0.494427 0
      vertex -38.4 0 0
      vertex 38.4783 -0.494427 0
    endloop
  endfacet
  facet normal -0.987691 0.156416 0
    outer loop
      vertex -38.4783 -0.494427 0
      vertex -38.4 0 7.05
      vertex -38.4 0 0
    endloop
  endfacet
  facet normal -0.987691 0.156416 0
    outer loop
      vertex -38.4783 -0.494427 0
      vertex -38.4783 -0.494427 7.05
      vertex -38.4 0 7.05
    endloop
  endfacet
  facet normal -0 0 1
    outer loop
      vertex -38.4783 -0.494427 7.05
      vertex -37.1421 -1.65 7.05
      vertex -38.4 0 7.05
    endloop
  endfacet
  facet normal -0.987691 -0.156416 0
    outer loop
      vertex -38.4783 0.494427 0
      vertex -38.4 0 0
      vertex -38.4783 0.494427 7.05
    endloop
  endfacet
  facet normal 0 0 -1
    outer loop
      vertex -38.4783 0.494427 0
      vertex 38.4783 0.494427 0
      vertex -38.4 0 0
    endloop
  endfacet
  facet normal -0.987691 -0.156416 0
    outer loop
      vertex -38.4783 0.494427 7.05
      vertex -38.4 0 0
      vertex -38.4 0 7.05
    endloop
  endfacet
  facet normal 0 0 1
    outer loop
      vertex -38.4783 0.494427 7.05
      vertex -38.4 0 7.05
      vertex -37.1421 1.65 7.05
    endloop
  endfacet
  facet normal -0 0 -1
    outer loop
      vertex -38.7056 -0.940456 0
      vertex -38.4783 -0.494427 0
      vertex 38.4783 -0.494427 0
    endloop
  endfacet
  facet normal -0.890977 0.454049 0
    outer loop
      vertex -38.7056 -0.940456 0
      vertex -38.4783 -0.494427 7.05
      vertex -38.4783 -0.494427 0
    endloop
  endfacet
  facet normal -0.890977 0.454049 0
    outer loop
      vertex -38.7056 -0.940456 0
      vertex -38.7056 -0.940456 7.05
      vertex -38.4783 -0.494427 7.05
    endloop
  endfacet
  facet normal 0 0 -1
    outer loop
      vertex -38.7056 -0.940456 0
      vertex 38.4783 -0.494427 0
      vertex 38.7056 -0.940456 0
    endloop
  endfacet
  facet normal 0 0 -1
    outer loop
      vertex -38.7056 -0.940456 0
      vertex 38.7056 -0.940456 0
      vertex 45 -22.5 0
    endloop
  endfacet
  facet normal -0 0 1
    outer loop
      vertex -38.7056 -0.940456 7.05
      vertex -37.1421 -1.65 7.05
      vertex -38.4783 -0.494427 7.05
    endloop
  endfacet
  facet normal -0.890977 -0.454049 0
    outer loop
      vertex -38.7056 0.940456 0
      vertex -38.4783 0.494427 0
      vertex -38.7056 0.940456 7.05
    endloop
  endfacet
  facet normal 0 0 -1
    outer loop
      vertex -38.7056 0.940456 0
      vertex 38.4783 0.494427 0
      vertex -38.4783 0.494427 0
    endloop
  endfacet
  facet normal 0 0 -1
    outer loop
      vertex -38.7056 0.940456 0
      vertex 38.7056 0.940456 0
      vertex 38.4783 0.494427 0
    endloop
  endfacet
  facet normal 0 0 -1
    outer loop
      vertex -38.7056 0.940456 0
      vertex 45 22.5 0
      vertex 38.7056 0.940456 0
    endloop
  endfacet
  facet normal -0.890977 -0.454049 0
    outer loop
      vertex -38.7056 0.940456 7.05
      vertex -38.4783 0.494427 0
      vertex -38.4783 0.494427 7.05
    endloop
  endfacet
  facet normal 0 0 1
    outer loop
      vertex -38.7056 0.940456 7.05
      vertex -38.4783 0.494427 7.05
      vertex -37.1421 1.65 7.05
    endloop
  endfacet
  facet normal -0.707181 0.707033 0
    outer loop
      vertex -39.0595 -1.29443 0
      vertex -38.7056 -0.940456 7.05
      vertex -38.7056 -0.940456 0
    endloop
  endfacet
  facet normal -0.707181 0.707033 0
    outer loop
      vertex -39.0595 -1.29443 0
      vertex -39.0595 -1.29443 7.05
      vertex -38.7056 -0.940456 7.05
    endloop
  endfacet
  facet normal -0 0 1
    outer loop
      vertex -39.0595 -1.29443 7.05
      vertex -37.1421 -1.65 7.05
      vertex -38.7056 -0.940456 7.05
    endloop
  endfacet
  facet normal -0.707181 -0.707033 0
    outer loop
      vertex -39.0595 1.29443 0
      vertex -38.7056 0.940456 0
      vertex -39.0595 1.29443 7.05
    endloop
  endfacet
  facet normal -0.707181 -0.707033 0
    outer loop
      vertex -39.0595 1.29443 7.05
      vertex -38.7056 0.940456 0
      vertex -38.7056 0.940456 7.05
    endloop
  endfacet
  facet normal 0 0 1
    outer loop
      vertex -39.0595 1.29443 7.05
      vertex -38.7056 0.940456 7.05
      vertex -37.1421 1.65 7.05
    endloop
  endfacet
  facet normal -0.453928 0.891038 0
    outer loop
      vertex -39.5056 -1.52169 0
      vertex -39.5056 -1.52169 7.05
      vertex -39.0595 -1.29443 0
    endloop
  endfacet
  facet normal -0.453928 0.891038 0
    outer loop
      vertex -39.5056 -1.52169 7.05
      vertex -39.0595 -1.29443 7.05
      vertex -39.0595 -1.29443 0
    endloop
  endfacet
  facet normal -0.453928 -0.891038 -0
    outer loop
      vertex -39.5056 1.52169 0
      vertex -39.0595 1.29443 0
      vertex -39.0595 1.29443 7.05
    endloop
  endfacet
  facet normal -0.453928 -0.891038 0
    outer loop
      vertex -39.5056 1.52169 0
      vertex -39.0595 1.29443 7.05
      vertex -39.5056 1.52169 7.05
    endloop
  endfacet
  facet normal -0.156444 0.987687 0
    outer loop
      vertex -40 -1.6 0
      vertex -40 -1.6 7.05
      vertex -39.5056 -1.52169 0
    endloop
  endfacet
  facet normal -0.156444 0.987687 0
    outer loop
      vertex -40 -1.6 7.05
      vertex -39.5056 -1.52169 7.05
      vertex -39.5056 -1.52169 0
    endloop
  endfacet
  facet normal -0.216932 -3.07811e-06 0.976187
    outer loop
      vertex -40 -3.3 11.1111
      vertex -22.5 -11.25 15
      vertex -37.1421 -1.65 11.7462
    endloop
  endfacet
  facet normal -0.499998 0.866027 0
    outer loop
      vertex -40 -3.3 11.1111
      vertex -37.1421 -1.65 11.7462
      vertex -37.1421 -1.65 7.05
    endloop
  endfacet
  facet normal 0 0 1
    outer loop
      vertex -40 -3.3 7.05
      vertex -37.1421 -1.65 7.05
      vertex -39.0595 -1.29443 7.05
    endloop
  endfacet
  facet normal 0 0 1
    outer loop
      vertex -40 -3.3 7.05
      vertex -39.0595 -1.29443 7.05
      vertex -39.5056 -1.52169 7.05
    endloop
  endfacet
  facet normal 0 0 1
    outer loop
      vertex -40 -3.3 7.05
      vertex -39.5056 -1.52169 7.05
      vertex -40 -1.6 7.05
    endloop
  endfacet
  facet normal -0.499998 0.866027 0
    outer loop
      vertex -40 -3.3 7.05
      vertex -40 -3.3 11.1111
      vertex -37.1421 -1.65 7.05
    endloop
  endfacet
  facet normal -0.156444 -0.987687 -0
    outer loop
      vertex -40 1.6 0
      vertex -39.5056 1.52169 0
      vertex -39.5056 1.52169 7.05
    endloop
  endfacet
  facet normal -0.156444 -0.987687 0
    outer loop
      vertex -40 1.6 0
      vertex -39.5056 1.52169 7.05
      vertex -40 1.6 7.05
    endloop
  endfacet
  facet normal 0 0 1
    outer loop
      vertex -40 1.6 7.05
      vertex -39.5056 1.52169 7.05
      vertex -40 3.3 7.05
    endloop
  endfacet
  facet normal -0.216932 3.07811e-06 0.976187
    outer loop
      vertex -40 3.3 11.1111
      vertex -37.1421 1.65 11.7462
      vertex -22.5 11.25 15
    endloop
  endfacet
  facet normal -0.499998 -0.866027 0
    outer loop
      vertex -40 3.3 11.1111
      vertex -37.1421 1.65 7.05
      vertex -37.1421 1.65 11.7462
    endloop
  endfacet
  facet normal -0.499998 -0.866027 0
    outer loop
      vertex -40 3.3 7.05
      vertex -37.1421 1.65 7.05
      vertex -40 3.3 11.1111
    endloop
  endfacet
  facet normal 0 0 1
    outer loop
      vertex -40 3.3 7.05
      vertex -39.0595 1.29443 7.05
      vertex -37.1421 1.65 7.05
    endloop
  endfacet
  facet normal 0 0 1
    outer loop
      vertex -40 3.3 7.05
      vertex -39.5056 1.52169 7.05
      vertex -39.0595 1.29443 7.05
    endloop
  endfacet
  facet normal 0.156444 0.987687 0
    outer loop
      vertex -40.4944 -1.52169 0
      vertex -40.4944 -1.52169 7.05
      vertex -40 -1.6 0
    endloop
  endfacet
  facet normal 0.156444 0.987687 -0
    outer loop
      vertex -40.4944 -1.52169 7.05
      vertex -40 -1.6 7.05
      vertex -40 -1.6 0
    endloop
  endfacet
  facet normal 0 0 1
    outer loop
      vertex -40.4944 -1.52169 7.05
      vertex -40 -3.3 7.05
      vertex -40 -1.6 7.05
    endloop
  endfacet
  facet normal 0.156444 -0.987687 0
    outer loop
      vertex -40.4944 1.52169 0
      vertex -40 1.6 0
      vertex -40 1.6 7.05
    endloop
  endfacet
  facet normal 0.156444 -0.987687 0
    outer loop
      vertex -40.4944 1.52169 0
      vertex -40 1.6 7.05
      vertex -40.4944 1.52169 7.05
    endloop
  endfacet
  facet normal 0 0 1
    outer loop
      vertex -40.4944 1.52169 7.05
      vertex -40 1.6 7.05
      vertex -40 3.3 7.05
    endloop
  endfacet
  facet normal 0.453928 0.891038 0
    outer loop
      vertex -40.9405 -1.29443 0
      vertex -40.9405 -1.29443 7.05
      vertex -40.4944 -1.52169 0
    endloop
  endfacet
  facet normal 0 0 1
    outer loop
      vertex -40.9405 -1.29443 7.05
      vertex -40 -3.3 7.05
      vertex -40.4944 -1.52169 7.05
    endloop
  endfacet
  facet normal 0.453928 0.891038 -0
    outer loop
      vertex -40.9405 -1.29443 7.05
      vertex -40.4944 -1.52169 7.05
      vertex -40.4944 -1.52169 0
    endloop
  endfacet
  facet normal 0.453928 -0.891038 0
    outer loop
      vertex -40.9405 1.29443 0
      vertex -40.4944 1.52169 0
      vertex -40.4944 1.52169 7.05
    endloop
  endfacet
  facet normal 0.453928 -0.891038 0
    outer loop
      vertex -40.9405 1.29443 0
      vertex -40.4944 1.52169 7.05
      vertex -40.9405 1.29443 7.05
    endloop
  endfacet
  facet normal 0 0 1
    outer loop
      vertex -40.9405 1.29443 7.05
      vertex -40.4944 1.52169 7.05
      vertex -40 3.3 7.05
    endloop
  endfacet
  facet normal 0.707181 0.707033 0
    outer loop
      vertex -41.2944 -0.940456 0
      vertex -40.9405 -1.29443 7.05
      vertex -40.9405 -1.29443 0
    endloop
  endfacet
  facet normal 0.707181 0.707033 0
    outer loop
      vertex -41.2944 -0.940456 0
      vertex -41.2944 -0.940456 7.05
      vertex -40.9405 -1.29443 7.05
    endloop
  endfacet
  facet normal 0.707181 -0.707033 0
    outer loop
      vertex -41.2944 0.940456 0
      vertex -40.9405 1.29443 0
      vertex -41.2944 0.940456 7.05
    endloop
  endfacet
  facet normal 0.707181 -0.707033 0
    outer loop
      vertex -41.2944 0.940456 7.05
      vertex -40.9405 1.29443 0
      vertex -40.9405 1.29443 7.05
    endloop
  endfacet
  facet normal 0.890977 0.454049 0
    outer loop
      vertex -41.5217 -0.494427 0
      vertex -41.2944 -0.940456 7.05
      vertex -41.2944 -0.940456 0
    endloop
  endfacet
  facet normal 0.890977 0.454049 0
    outer loop
      vertex -41.5217 -0.494427 0
      vertex -41.5217 -0.494427 7.05
      vertex -41.2944 -0.940456 7.05
    endloop
  endfacet
  facet normal 0.890977 -0.454049 0
    outer loop
      vertex -41.5217 0.494427 0
      vertex -41.2944 0.940456 0
      vertex -41.5217 0.494427 7.05
    endloop
  endfacet
  facet normal 0.890977 -0.454049 0
    outer loop
      vertex -41.5217 0.494427 7.05
      vertex -41.2944 0.940456 0
      vertex -41.2944 0.940456 7.05
    endloop
  endfacet
  facet normal 0.987691 0.156416 0
    outer loop
      vertex -41.6 0 0
      vertex -41.5217 -0.494427 7.05
      vertex -41.5217 -0.494427 0
    endloop
  endfacet
  facet normal 0.987691 -0.156416 0
    outer loop
      vertex -41.6 0 0
      vertex -41.5217 0.494427 0
      vertex -41.6 0 7.05
    endloop
  endfacet
  facet normal 0.987691 0.156416 0
    outer loop
      vertex -41.6 0 0
      vertex -41.6 0 7.05
      vertex -41.5217 -0.494427 7.05
    endloop
  endfacet
  facet normal 0.987691 -0.156416 0
    outer loop
      vertex -41.6 0 7.05
      vertex -41.5217 0.494427 0
      vertex -41.5217 0.494427 7.05
    endloop
  endfacet
  facet normal 0.499998 0.866027 -0
    outer loop
      vertex -42.8579 -1.65 10.476
      vertex -40 -3.3 11.1111
      vertex -40 -3.3 7.05
    endloop
  endfacet
  facet normal 1 -0 0
    outer loop
      vertex -42.8579 -1.65 10.476
      vertex -42.8579 1.65 7.05
      vertex -42.8579 1.65 10.476
    endloop
  endfacet
  facet normal 0 0 1
    outer loop
      vertex -42.8579 -1.65 7.05
      vertex -40 -3.3 7.05
      vertex -40.9405 -1.29443 7.05
    endloop
  endfacet
  facet normal 0 0 1
    outer loop
      vertex -42.8579 -1.65 7.05
      vertex -40.9405 -1.29443 7.05
      vertex -41.2944 -0.940456 7.05
    endloop
  endfacet
  facet normal 0 0 1
    outer loop
      vertex -42.8579 -1.65 7.05
      vertex -41.2944 -0.940456 7.05
      vertex -41.5217 -0.494427 7.05
    endloop
  endfacet
  facet normal 0 0 1
    outer loop
      vertex -42.8579 -1.65 7.05
      vertex -41.5217 -0.494427 7.05
      vertex -41.6 0 7.05
    endloop
  endfacet
  facet normal 0 0 1
    outer loop
      vertex -42.8579 -1.65 7.05
      vertex -41.6 0 7.05
      vertex -42.8579 1.65 7.05
    endloop
  endfacet
  facet normal 0.499998 0.866027 0
    outer loop
      vertex -42.8579 -1.65 7.05
      vertex -42.8579 -1.65 10.476
      vertex -40 -3.3 7.05
    endloop
  endfacet
  facet normal 1 0 0
    outer loop
      vertex -42.8579 -1.65 7.05
      vertex -42.8579 1.65 7.05
      vertex -42.8579 -1.65 10.476
    endloop
  endfacet
  facet normal 0.499998 -0.866027 0
    outer loop
      vertex -42.8579 1.65 10.476
      vertex -40 3.3 7.05
      vertex -40 3.3 11.1111
    endloop
  endfacet
  facet normal 0.499998 -0.866027 0
    outer loop
      vertex -42.8579 1.65 7.05
      vertex -40 3.3 7.05
      vertex -42.8579 1.65 10.476
    endloop
  endfacet
  facet normal -0 0 1
    outer loop
      vertex -42.8579 1.65 7.05
      vertex -40.9405 1.29443 7.05
      vertex -40 3.3 7.05
    endloop
  endfacet
  facet normal 0 0 1
    outer loop
      vertex -42.8579 1.65 7.05
      vertex -41.2944 0.940456 7.05
      vertex -40.9405 1.29443 7.05
    endloop
  endfacet
  facet normal 0 0 1
    outer loop
      vertex -42.8579 1.65 7.05
      vertex -41.5217 0.494427 7.05
      vertex -41.2944 0.940456 7.05
    endloop
  endfacet
  facet normal 0 0 1
    outer loop
      vertex -42.8579 1.65 7.05
      vertex -41.6 0 7.05
      vertex -41.5217 0.494427 7.05
    endloop
  endfacet
  facet normal 0 0 -1
    outer loop
      vertex -45 -22.5 0
      vertex -38.7056 -0.940456 0
      vertex 45 -22.5 0
    endloop
  endfacet
  facet normal 0 0 -1
    outer loop
      vertex -45 -22.5 0
      vertex -39.0595 -1.29443 0
      vertex -38.7056 -0.940456 0
    endloop
  endfacet
  facet normal 0 0 -1
    outer loop
      vertex -45 -22.5 0
      vertex -39.5056 -1.52169 0
      vertex -39.0595 -1.29443 0
    endloop
  endfacet
  facet normal 0 0 -1
    outer loop
      vertex -45 -22.5 0
      vertex -40 -1.6 0
      vertex -39.5056 -1.52169 0
    endloop
  endfacet
  facet normal -0 0 -1
    outer loop
      vertex -45 -22.5 0
      vertex -40.4944 -1.52169 0
      vertex -40 -1.6 0
    endloop
  endfacet
  facet normal -0 0 -1
    outer loop
      vertex -45 -22.5 0
      vertex -40.9405 -1.29443 0
      vertex -40.4944 -1.52169 0
    endloop
  endfacet
  facet normal -0 0 -1
    outer loop
      vertex -45 -22.5 0
      vertex -41.2944 -0.940456 0
      vertex -40.9405 -1.29443 0
    endloop
  endfacet
  facet normal -0 0 -1
    outer loop
      vertex -45 -22.5 0
      vertex -41.5217 -0.494427 0
      vertex -41.2944 -0.940456 0
    endloop
  endfacet
  facet normal -0 0 -1
    outer loop
      vertex -45 -22.5 0
      vertex -41.6 0 0
      vertex -41.5217 -0.494427 0
    endloop
  endfacet
  facet normal -1 -0 0
    outer loop
      vertex -45 -22.5 0
      vertex -45 -22.5 10
      vertex -45 22.5 10
    endloop
  endfacet
  facet normal 0 0 -1
    outer loop
      vertex -45 -22.5 0
      vertex -45 22.5 0
      vertex -41.6 0 0
    endloop
  endfacet
  facet normal -1 0 0
    outer loop
      vertex -45 -22.5 0
      vertex -45 22.5 10
      vertex -45 22.5 0
    endloop
  endfacet
  facet normal 0 -1 -0
    outer loop
      vertex -45 -22.5 0
      vertex 45 -22.5 0
      vertex 45 -22.5 10
    endloop
  endfacet
  facet normal 0 -1 0
    outer loop
      vertex -45 -22.5 0
      vertex 45 -22.5 10
      vertex -45 -22.5 10
    endloop
  endfacet
  facet normal -0.216931 6.49492e-07 0.976187
    outer loop
      vertex -45 -22.5 10
      vertex -22.5 -11.25 15
      vertex -40 -3.3 11.1111
    endloop
  endfacet
  facet normal -0.216933 1.35026e-06 0.976186
    outer loop
      vertex -45 -22.5 10
      vertex -40 -3.3 11.1111
      vertex -42.8579 -1.65 10.476
    endloop
  endfacet
  facet normal -0.216921 0 0.976189
    outer loop
      vertex -45 -22.5 10
      vertex -42.8579 -1.65 10.476
      vertex -45 22.5 10
    endloop
  endfacet
  facet normal 0 -0.406138 0.913812
    outer loop
      vertex -45 -22.5 10
      vertex 45 -22.5 10
      vertex -22.5 -11.25 15
    endloop
  endfacet
  facet normal 0 0 -1
    outer loop
      vertex -45 22.5 0
      vertex -38.7056 0.940456 0
      vertex -39.0595 1.29443 0
    endloop
  endfacet
  facet normal 0 0 -1
    outer loop
      vertex -45 22.5 0
      vertex -39.0595 1.29443 0
      vertex -39.5056 1.52169 0
    endloop
  endfacet
  facet normal 0 0 -1
    outer loop
      vertex -45 22.5 0
      vertex -39.5056 1.52169 0
      vertex -40 1.6 0
    endloop
  endfacet
  facet normal 0 0 -1
    outer loop
      vertex -45 22.5 0
      vertex -40 1.6 0
      vertex -40.4944 1.52169 0
    endloop
  endfacet
  facet normal 0 0 -1
    outer loop
      vertex -45 22.5 0
      vertex -40.4944 1.52169 0
      vertex -40.9405 1.29443 0
    endloop
  endfacet
  facet normal 0 0 -1
    outer loop
      vertex -45 22.5 0
      vertex -40.9405 1.29443 0
      vertex -41.2944 0.940456 0
    endloop
  endfacet
  facet normal 0 0 -1
    outer loop
      vertex -45 22.5 0
      vertex -41.2944 0.940456 0
      vertex -41.5217 0.494427 0
    endloop
  endfacet
  facet normal 0 0 -1
    outer loop
      vertex -45 22.5 0
      vertex -41.5217 0.494427 0
      vertex -41.6 0 0
    endloop
  endfacet
  facet normal 0 1 0
    outer loop
      vertex -45 22.5 0
      vertex -45 22.5 10
      vertex 45 22.5 0
    endloop
  endfacet
  facet normal 0 0 -1
    outer loop
      vertex -45 22.5 0
      vertex 45 22.5 0
      vertex -38.7056 0.940456 0
    endloop
  endfacet
  facet normal 0 0.406138 0.913812
    outer loop
      vertex -45 22.5 10
      vertex -22.5 11.25 15
      vertex 45 22.5 10
    endloop
  endfacet
  facet normal -0.216931 -6.49492e-07 0.976187
    outer loop
      vertex -45 22.5 10
      vertex -40 3.3 11.1111
      vertex -22.5 11.25 15
    endloop
  endfacet
  facet normal -0.216921 0 0.976189
    outer loop
      vertex -45 22.5 10
      vertex -42.8579 -1.65 10.476
      vertex -42.8579 1.65 10.476
    endloop
  endfacet
  facet normal -0.216933 -1.35026e-06 0.976186
    outer loop
      vertex -45 22.5 10
      vertex -42.8579 1.65 10.476
      vertex -40 3.3 11.1111
    endloop
  endfacet
  facet normal 0 1 -0
    outer loop
      vertex -45 22.5 10
      vertex 45 22.5 10
      vertex 45 22.5 0
    endloop
  endfacet
  facet normal 1 0 0
    outer loop
      vertex -5 -0.494427 26.5217
      vertex -5 0 26.6
      vertex -5 0 30.625
    endloop
  endfacet
  facet normal 1 -0 0
    outer loop
      vertex -5 -1.92386 30.2858
      vertex -5 -0.494427 26.5217
      vertex -5 0 30.625
    endloop
  endfacet
  facet normal 1 0 0
    outer loop
      vertex -5 -1.92386 30.2858
      vertex -5 -0.940456 26.2944
      vertex -5 -0.494427 26.5217
    endloop
  endfacet
  facet normal 1 -0 0
    outer loop
      vertex -5 -3.61568 29.309
      vertex -5 -0.940456 26.2944
      vertex -5 -1.92386 30.2858
    endloop
  endfacet
  facet normal 1 0 0
    outer loop
      vertex -5 -3.61568 29.309
      vertex -5 -1.29443 25.9405
      vertex -5 -0.940456 26.2944
    endloop
  endfacet
  facet normal 1 -0 0
    outer loop
      vertex -5 -4.87139 27.8125
      vertex -5 -1.29443 25.9405
      vertex -5 -3.61568 29.309
    endloop
  endfacet
  facet normal 1 0 0
    outer loop
      vertex -5 -4.87139 27.8125
      vertex -5 -1.52169 24.5056
      vertex -5 -1.6 25
    endloop
  endfacet
  facet normal 1 0 0
    outer loop
      vertex -5 -4.87139 27.8125
      vertex -5 -1.52169 25.4944
      vertex -5 -1.29443 25.9405
    endloop
  endfacet
  facet normal 1 0 0
    outer loop
      vertex -5 -4.87139 27.8125
      vertex -5 -1.6 25
      vertex -5 -1.52169 25.4944
    endloop
  endfacet
  facet normal 1 0 0
    outer loop
      vertex -5 -9.29314 19
      vertex -5 -0.494427 23.4783
      vertex -5 -0.940456 23.7056
    endloop
  endfacet
  facet normal 1 0 0
    outer loop
      vertex -5 -9.29314 19
      vertex -5 -0.940456 23.7056
      vertex -5 -1.29443 24.0595
    endloop
  endfacet
  facet normal 1 0 0
    outer loop
      vertex -5 -9.29314 19
      vertex -5 -1.29443 24.0595
      vertex -5 -1.52169 24.5056
    endloop
  endfacet
  facet normal 1 0 0
    outer loop
      vertex -5 -9.29314 19
      vertex -5 -1.52169 24.5056
      vertex -5 -4.87139 27.8125
    endloop
  endfacet
  facet normal 1 0 0
    outer loop
      vertex -5 -9.29314 19
      vertex -5 0 23.4
      vertex -5 -0.494427 23.4783
    endloop
  endfacet
  facet normal 1 0 0
    outer loop
      vertex -5 -9.29314 19
      vertex -5 9.29314 19
      vertex -5 0 23.4
    endloop
  endfacet
  facet normal 0 0 1
    outer loop
      vertex -5 -9.29314 19
      vertex 5 -9.29314 19
      vertex -5 9.29314 19
    endloop
  endfacet
  facet normal 1 -0 0
    outer loop
      vertex -5 0 23.4
      vertex -5 9.29314 19
      vertex -5 0.494427 23.4783
    endloop
  endfacet
  facet normal 1 0 0
    outer loop
      vertex -5 0 26.6
      vertex -5 0.494427 26.5217
      vertex -5 0 30.625
    endloop
  endfacet
  facet normal 1 0 0
    outer loop
      vertex -5 0 30.625
      vertex -5 0.494427 26.5217
      vertex -5 1.92386 30.2858
    endloop
  endfacet
  facet normal 1 -0 0
    outer loop
      vertex -5 0.494427 23.4783
      vertex -5 9.29314 19
      vertex -5 0.940456 23.7056
    endloop
  endfacet
  facet normal 1 0 0
    outer loop
      vertex -5 0.494427 26.5217
      vertex -5 0.940456 26.2944
      vertex -5 1.92386 30.2858
    endloop
  endfacet
  facet normal 1 -0 0
    outer loop
      vertex -5 0.940456 23.7056
      vertex -5 9.29314 19
      vertex -5 1.29443 24.0595
    endloop
  endfacet
  facet normal 1 0 0
    outer loop
      vertex -5 0.940456 26.2944
      vertex -5 1.29443 25.9405
      vertex -5 3.61568 29.309
    endloop
  endfacet
  facet normal 1 0 0
    outer loop
      vertex -5 0.940456 26.2944
      vertex -5 3.61568 29.309
      vertex -5 1.92386 30.2858
    endloop
  endfacet
  facet normal 1 -0 0
    outer loop
      vertex -5 1.29443 24.0595
      vertex -5 9.29314 19
      vertex -5 1.52169 24.5056
    endloop
  endfacet
  facet normal 1 0 0
    outer loop
      vertex -5 1.29443 25.9405
      vertex -5 1.52169 25.4944
      vertex -5 3.61568 29.309
    endloop
  endfacet
  facet normal 1 0 0
    outer loop
      vertex -5 1.52169 24.5056
      vertex -5 4.87139 27.8125
      vertex -5 1.6 25
    endloop
  endfacet
  facet normal 1 0 0
    outer loop
      vertex -5 1.52169 24.5056
      vertex -5 9.29314 19
      vertex -5 4.87139 27.8125
    endloop
  endfacet
  facet normal 1 0 0
    outer loop
      vertex -5 1.52169 25.4944
      vertex -5 1.6 25
      vertex -5 4.87139 27.8125
    endloop
  endfacet
  facet normal 1 0 0
    outer loop
      vertex -5 1.52169 25.4944
      vertex -5 4.87139 27.8125
      vertex -5 3.61568 29.309
    endloop
  endfacet
  facet normal -0 0 1
    outer loop
      vertex -5 9.29314 19
      vertex 5 -9.29314 19
      vertex 5 9.29314 19
    endloop
  endfacet
  facet normal 0 0.893797 0.448471
    outer loop
      vertex -5 9.29314 19
      vertex 5 9.29314 19
      vertex 22.5 11.25 15.1
    endloop
  endfacet
  facet normal 1 0 0
    outer loop
      vertex 10 -0.494427 23.4783
      vertex 10 0 21.7
      vertex 10 0 23.4
    endloop
  endfacet
  facet normal 1 0 0
    outer loop
      vertex 10 -0.494427 26.5217
      vertex 10 0 26.6
      vertex 10 0 28.3
    endloop
  endfacet
  facet normal 1 0 0
    outer loop
      vertex 10 -0.940456 23.7056
      vertex 10 0 21.7
      vertex 10 -0.494427 23.4783
    endloop
  endfacet
  facet normal 1 0 0
    outer loop
      vertex 10 -0.940456 26.2944
      vertex 10 -0.494427 26.5217
      vertex 10 0 28.3
    endloop
  endfacet
  facet normal 1 0 0
    outer loop
      vertex 10 -2.85788 23.35
      vertex 10 -0.940456 23.7056
      vertex 10 -1.29443 24.0595
    endloop
  endfacet
  facet normal 1 0 0
    outer loop
      vertex 10 -2.85788 23.35
      vertex 10 -1.29443 24.0595
      vertex 10 -1.52169 24.5056
    endloop
  endfacet
  facet normal 1 0 0
    outer loop
      vertex 10 -2.85788 23.35
      vertex 10 -1.52169 24.5056
      vertex 10 -1.6 25
    endloop
  endfacet
  facet normal 1 0 0
    outer loop
      vertex 10 -2.85788 23.35
      vertex 10 -1.6 25
      vertex 10 -2.85788 26.65
    endloop
  endfacet
  facet normal 0 1 0
    outer loop
      vertex 10 -2.85788 23.35
      vertex 10 -2.85788 26.65
      vertex 14.1304 -2.85788 26.65
    endloop
  endfacet
  facet normal 1 0 0
    outer loop
      vertex 10 -2.85788 23.35
      vertex 10 0 21.7
      vertex 10 -0.940456 23.7056
    endloop
  endfacet
  facet normal 0 1 0
    outer loop
      vertex 10 -2.85788 23.35
      vertex 14.1304 -2.85788 26.65
      vertex 16.5217 -2.85788 23.35
    endloop
  endfacet
  facet normal 0 0.500001 0.866025
    outer loop
      vertex 10 -2.85788 23.35
      vertex 16.5217 -2.85788 23.35
      vertex 10 0 21.7
    endloop
  endfacet
  facet normal 1 -0 0
    outer loop
      vertex 10 -2.85788 26.65
      vertex 10 -0.940456 26.2944
      vertex 10 0 28.3
    endloop
  endfacet
  facet normal 1 0 0
    outer loop
      vertex 10 -2.85788 26.65
      vertex 10 -1.29443 25.9405
      vertex 10 -0.940456 26.2944
    endloop
  endfacet
  facet normal 1 0 0
    outer loop
      vertex 10 -2.85788 26.65
      vertex 10 -1.52169 25.4944
      vertex 10 -1.29443 25.9405
    endloop
  endfacet
  facet normal 1 0 0
    outer loop
      vertex 10 -2.85788 26.65
      vertex 10 -1.6 25
      vertex 10 -1.52169 25.4944
    endloop
  endfacet
  facet normal 0 0.500001 -0.866025
    outer loop
      vertex 10 -2.85788 26.65
      vertex 10 0 28.3
      vertex 12.9348 0 28.3
    endloop
  endfacet
  facet normal 0 0.500001 -0.866025
    outer loop
      vertex 10 -2.85788 26.65
      vertex 12.9348 0 28.3
      vertex 14.1304 -2.85788 26.65
    endloop
  endfacet
  facet normal 1 0 0
    outer loop
      vertex 10 0 21.7
      vertex 10 0.494427 23.4783
      vertex 10 0 23.4
    endloop
  endfacet
  facet normal 1 0 0
    outer loop
      vertex 10 0 21.7
      vertex 10 0.940456 23.7056
      vertex 10 0.494427 23.4783
    endloop
  endfacet
  facet normal 1 0 0
    outer loop
      vertex 10 0 21.7
      vertex 10 2.85788 23.35
      vertex 10 0.940456 23.7056
    endloop
  endfacet
  facet normal -0 0.500001 0.866025
    outer loop
      vertex 10 0 21.7
      vertex 16.5217 -2.85788 23.35
      vertex 17.7174 0 21.7
    endloop
  endfacet
  facet normal 0 -0.500001 0.866025
    outer loop
      vertex 10 0 21.7
      vertex 16.5217 2.85788 23.35
      vertex 10 2.85788 23.35
    endloop
  endfacet
  facet normal 0 -0.500001 0.866025
    outer loop
      vertex 10 0 21.7
      vertex 17.7174 0 21.7
      vertex 16.5217 2.85788 23.35
    endloop
  endfacet
  facet normal 1 0 0
    outer loop
      vertex 10 0 26.6
      vertex 10 0.494427 26.5217
      vertex 10 0 28.3
    endloop
  endfacet
  facet normal 1 0 0
    outer loop
      vertex 10 0 28.3
      vertex 10 0.494427 26.5217
      vertex 10 0.940456 26.2944
    endloop
  endfacet
  facet normal 1 0 0
    outer loop
      vertex 10 0 28.3
      vertex 10 0.940456 26.2944
      vertex 10 2.85788 26.65
    endloop
  endfacet
  facet normal 0 -0.500001 -0.866025
    outer loop
      vertex 10 0 28.3
      vertex 10 2.85788 26.65
      vertex 12.9348 0 28.3
    endloop
  endfacet
  facet normal 1 -0 0
    outer loop
      vertex 10 0.940456 23.7056
      vertex 10 2.85788 23.35
      vertex 10 1.29443 24.0595
    endloop
  endfacet
  facet normal 1 0 0
    outer loop
      vertex 10 0.940456 26.2944
      vertex 10 1.29443 25.9405
      vertex 10 2.85788 26.65
    endloop
  endfacet
  facet normal 1 -0 0
    outer loop
      vertex 10 1.29443 24.0595
      vertex 10 2.85788 23.35
      vertex 10 1.52169 24.5056
    endloop
  endfacet
  facet normal 1 0 0
    outer loop
      vertex 10 1.29443 25.9405
      vertex 10 1.52169 25.4944
      vertex 10 2.85788 26.65
    endloop
  endfacet
  facet normal 1 -0 0
    outer loop
      vertex 10 1.52169 24.5056
      vertex 10 2.85788 23.35
      vertex 10 1.6 25
    endloop
  endfacet
  facet normal 1 0 0
    outer loop
      vertex 10 1.52169 25.4944
      vertex 10 1.6 25
      vertex 10 2.85788 26.65
    endloop
  endfacet
  facet normal 1 0 0
    outer loop
      vertex 10 1.6 25
      vertex 10 2.85788 23.35
      vertex 10 2.85788 26.65
    endloop
  endfacet
  facet normal 0 -1 0
    outer loop
      vertex 10 2.85788 23.35
      vertex 14.1304 2.85788 26.65
      vertex 10 2.85788 26.65
    endloop
  endfacet
  facet normal 0 -1 -0
    outer loop
      vertex 10 2.85788 23.35
      vertex 16.5217 2.85788 23.35
      vertex 14.1304 2.85788 26.65
    endloop
  endfacet
  facet normal 0 -0.500001 -0.866025
    outer loop
      vertex 10 2.85788 26.65
      vertex 14.1304 2.85788 26.65
      vertex 12.9348 0 28.3
    endloop
  endfacet
  facet normal 0.76435 -0.111959 0.635007
    outer loop
      vertex 11.25 -1.92386 30.2858
      vertex 22.5 -11.25 15.1
      vertex 11.25 0 30.625
    endloop
  endfacet
  facet normal 0.602292 -0.399146 0.691322
    outer loop
      vertex 11.25 -3.61568 29.309
      vertex 22.5 -11.25 15.1
      vertex 11.25 -1.92386 30.2858
    endloop
  endfacet
  facet normal 0.280305 -0.735335 0.617018
    outer loop
      vertex 11.25 -4.87139 27.8125
      vertex 22.5 -11.25 15.1
      vertex 11.25 -3.61568 29.309
    endloop
  endfacet
  facet normal 0.809747 1.82799e-05 0.586779
    outer loop
      vertex 11.25 0 30.625
      vertex 12.9348 0 28.3
      vertex 14.1304 2.85788 26.65
    endloop
  endfacet
  facet normal 0.809747 -1.82799e-05 0.586779
    outer loop
      vertex 11.25 0 30.625
      vertex 14.1304 -2.85788 26.65
      vertex 12.9348 0 28.3
    endloop
  endfacet
  facet normal 0.810179 -0.00124941 0.586181
    outer loop
      vertex 11.25 0 30.625
      vertex 14.1304 2.85788 26.65
      vertex 22.5 11.25 15.1
    endloop
  endfacet
  facet normal 0.810179 0.00124941 0.586181
    outer loop
      vertex 11.25 0 30.625
      vertex 22.5 -11.25 15.1
      vertex 14.1304 -2.85788 26.65
    endloop
  endfacet
  facet normal 0.76435 0.111959 0.635007
    outer loop
      vertex 11.25 0 30.625
      vertex 22.5 11.25 15.1
      vertex 11.25 1.92386 30.2858
    endloop
  endfacet
  facet normal 0.602292 0.399146 0.691322
    outer loop
      vertex 11.25 1.92386 30.2858
      vertex 22.5 11.25 15.1
      vertex 11.25 3.61568 29.309
    endloop
  endfacet
  facet normal 0.280305 0.735335 0.617018
    outer loop
      vertex 11.25 3.61568 29.309
      vertex 22.5 11.25 15.1
      vertex 11.25 4.87139 27.8125
    endloop
  endfacet
  facet normal 0.80975 4.82447e-06 0.586775
    outer loop
      vertex 14.1304 -2.85788 26.65
      vertex 22.5 -11.25 15.1
      vertex 16.5217 -2.85788 23.35
    endloop
  endfacet
  facet normal 0.80975 -4.82447e-06 0.586775
    outer loop
      vertex 14.1304 2.85788 26.65
      vertex 16.5217 2.85788 23.35
      vertex 22.5 11.25 15.1
    endloop
  endfacet
  facet normal 0.809745 -7.14013e-06 0.586783
    outer loop
      vertex 16.5217 -2.85788 23.35
      vertex 22.5 -11.25 15.1
      vertex 17.7174 0 21.7
    endloop
  endfacet
  facet normal 0.809745 7.14013e-06 0.586783
    outer loop
      vertex 16.5217 2.85788 23.35
      vertex 17.7174 0 21.7
      vertex 22.5 11.25 15.1
    endloop
  endfacet
  facet normal 0.80975 0 0.586775
    outer loop
      vertex 17.7174 0 21.7
      vertex 22.5 -11.25 15.1
      vertex 22.5 11.25 15.1
    endloop
  endfacet
  facet normal 1 0 0
    outer loop
      vertex 22.5 -11.25 15
      vertex 22.5 11.25 15
      vertex 22.5 -11.25 15.1
    endloop
  endfacet
  facet normal 0.21693 -0 0.976187
    outer loop
      vertex 22.5 -11.25 15
      vertex 37.1421 -1.65 11.7462
      vertex 22.5 11.25 15
    endloop
  endfacet
  facet normal 0.216932 -3.07811e-06 0.976187
    outer loop
      vertex 22.5 -11.25 15
      vertex 40 -3.3 11.1111
      vertex 37.1421 -1.65 11.7462
    endloop
  endfacet
  facet normal 0.216931 6.49492e-07 0.976187
    outer loop
      vertex 22.5 -11.25 15
      vertex 45 -22.5 10
      vertex 40 -3.3 11.1111
    endloop
  endfacet
  facet normal 1 -0 0
    outer loop
      vertex 22.5 -11.25 15.1
      vertex 22.5 11.25 15
      vertex 22.5 11.25 15.1
    endloop
  endfacet
  facet normal 0.21693 0 0.976187
    outer loop
      vertex 22.5 11.25 15
      vertex 37.1421 -1.65 11.7462
      vertex 37.1421 1.65 11.7462
    endloop
  endfacet
  facet normal 0.216932 3.07811e-06 0.976187
    outer loop
      vertex 22.5 11.25 15
      vertex 37.1421 1.65 11.7462
      vertex 40 3.3 11.1111
    endloop
  endfacet
  facet normal 0.216931 -6.49492e-07 0.976187
    outer loop
      vertex 22.5 11.25 15
      vertex 40 3.3 11.1111
      vertex 45 22.5 10
    endloop
  endfacet
  facet normal 1 -0 0
    outer loop
      vertex 37.1421 -1.65 11.7462
      vertex 37.1421 1.65 7.05
      vertex 37.1421 1.65 11.7462
    endloop
  endfacet
  facet normal 0.499998 0.866027 0
    outer loop
      vertex 37.1421 -1.65 7.05
      vertex 37.1421 -1.65 11.7462
      vertex 40 -3.3 11.1111
    endloop
  endfacet
  facet normal 1 0 0
    outer loop
      vertex 37.1421 -1.65 7.05
      vertex 37.1421 1.65 7.05
      vertex 37.1421 -1.65 11.7462
    endloop
  endfacet
  facet normal 0 0 1
    outer loop
      vertex 37.1421 -1.65 7.05
      vertex 38.4 0 7.05
      vertex 37.1421 1.65 7.05
    endloop
  endfacet
  facet normal 0 0 1
    outer loop
      vertex 37.1421 -1.65 7.05
      vertex 38.4783 -0.494427 7.05
      vertex 38.4 0 7.05
    endloop
  endfacet
  facet normal 0 0 1
    outer loop
      vertex 37.1421 -1.65 7.05
      vertex 38.7056 -0.940456 7.05
      vertex 38.4783 -0.494427 7.05
    endloop
  endfacet
  facet normal 0 0 1
    outer loop
      vertex 37.1421 -1.65 7.05
      vertex 39.0595 -1.29443 7.05
      vertex 38.7056 -0.940456 7.05
    endloop
  endfacet
  facet normal 0.499998 0.866027 0
    outer loop
      vertex 37.1421 -1.65 7.05
      vertex 40 -3.3 11.1111
      vertex 40 -3.3 7.05
    endloop
  endfacet
  facet normal 0 0 1
    outer loop
      vertex 37.1421 -1.65 7.05
      vertex 40 -3.3 7.05
      vertex 39.0595 -1.29443 7.05
    endloop
  endfacet
  facet normal 0 0 1
    outer loop
      vertex 37.1421 1.65 7.05
      vertex 38.4 0 7.05
      vertex 38.4783 0.494427 7.05
    endloop
  endfacet
  facet normal 0 0 1
    outer loop
      vertex 37.1421 1.65 7.05
      vertex 38.4783 0.494427 7.05
      vertex 38.7056 0.940456 7.05
    endloop
  endfacet
  facet normal 0 0 1
    outer loop
      vertex 37.1421 1.65 7.05
      vertex 38.7056 0.940456 7.05
      vertex 39.0595 1.29443 7.05
    endloop
  endfacet
  facet normal -0 0 1
    outer loop
      vertex 37.1421 1.65 7.05
      vertex 39.0595 1.29443 7.05
      vertex 40 3.3 7.05
    endloop
  endfacet
  facet normal 0.499998 -0.866027 0
    outer loop
      vertex 37.1421 1.65 7.05
      vertex 40 3.3 11.1111
      vertex 37.1421 1.65 11.7462
    endloop
  endfacet
  facet normal 0.499998 -0.866027 0
    outer loop
      vertex 37.1421 1.65 7.05
      vertex 40 3.3 7.05
      vertex 40 3.3 11.1111
    endloop
  endfacet
  facet normal 0.987691 0.156416 0
    outer loop
      vertex 38.4 0 0
      vertex 38.4 0 7.05
      vertex 38.4783 -0.494427 7.05
    endloop
  endfacet
  facet normal 0.987691 0.156416 0
    outer loop
      vertex 38.4 0 0
      vertex 38.4783 -0.494427 7.05
      vertex 38.4783 -0.494427 0
    endloop
  endfacet
  facet normal 0.987691 -0.156416 0
    outer loop
      vertex 38.4 0 0
      vertex 38.4783 0.494427 0
      vertex 38.4 0 7.05
    endloop
  endfacet
  facet normal 0.987691 -0.156416 0
    outer loop
      vertex 38.4 0 7.05
      vertex 38.4783 0.494427 0
      vertex 38.4783 0.494427 7.05
    endloop
  endfacet
  facet normal 0.890977 0.454049 0
    outer loop
      vertex 38.4783 -0.494427 0
      vertex 38.4783 -0.494427 7.05
      vertex 38.7056 -0.940456 7.05
    endloop
  endfacet
  facet normal 0.890977 0.454049 0
    outer loop
      vertex 38.4783 -0.494427 0
      vertex 38.7056 -0.940456 7.05
      vertex 38.7056 -0.940456 0
    endloop
  endfacet
  facet normal 0.890977 -0.454049 0
    outer loop
      vertex 38.4783 0.494427 0
      vertex 38.7056 0.940456 0
      vertex 38.4783 0.494427 7.05
    endloop
  endfacet
  facet normal 0.890977 -0.454049 0
    outer loop
      vertex 38.4783 0.494427 7.05
      vertex 38.7056 0.940456 0
      vertex 38.7056 0.940456 7.05
    endloop
  endfacet
  facet normal 0.707181 0.707033 0
    outer loop
      vertex 38.7056 -0.940456 0
      vertex 38.7056 -0.940456 7.05
      vertex 39.0595 -1.29443 7.05
    endloop
  endfacet
  facet normal 0 0 -1
    outer loop
      vertex 38.7056 -0.940456 0
      vertex 39.0595 -1.29443 0
      vertex 45 -22.5 0
    endloop
  endfacet
  facet normal 0.707181 0.707033 0
    outer loop
      vertex 38.7056 -0.940456 0
      vertex 39.0595 -1.29443 7.05
      vertex 39.0595 -1.29443 0
    endloop
  endfacet
  facet normal 0.707181 -0.707033 0
    outer loop
      vertex 38.7056 0.940456 0
      vertex 39.0595 1.29443 0
      vertex 38.7056 0.940456 7.05
    endloop
  endfacet
  facet normal 0 0 -1
    outer loop
      vertex 38.7056 0.940456 0
      vertex 45 22.5 0
      vertex 39.0595 1.29443 0
    endloop
  endfacet
  facet normal 0.707181 -0.707033 0
    outer loop
      vertex 38.7056 0.940456 7.05
      vertex 39.0595 1.29443 0
      vertex 39.0595 1.29443 7.05
    endloop
  endfacet
  facet normal 0.453928 0.891038 0
    outer loop
      vertex 39.0595 -1.29443 0
      vertex 39.0595 -1.29443 7.05
      vertex 39.5056 -1.52169 0
    endloop
  endfacet
  facet normal 0 0 -1
    outer loop
      vertex 39.0595 -1.29443 0
      vertex 39.5056 -1.52169 0
      vertex 45 -22.5 0
    endloop
  endfacet
  facet normal 0.453928 0.891038 -0
    outer loop
      vertex 39.0595 -1.29443 7.05
      vertex 39.5056 -1.52169 7.05
      vertex 39.5056 -1.52169 0
    endloop
  endfacet
  facet normal 0 0 1
    outer loop
      vertex 39.0595 -1.29443 7.05
      vertex 40 -3.3 7.05
      vertex 39.5056 -1.52169 7.05
    endloop
  endfacet
  facet normal 0.453928 -0.891038 0
    outer loop
      vertex 39.0595 1.29443 0
      vertex 39.5056 1.52169 0
      vertex 39.5056 1.52169 7.05
    endloop
  endfacet
  facet normal 0.453928 -0.891038 0
    outer loop
      vertex 39.0595 1.29443 0
      vertex 39.5056 1.52169 7.05
      vertex 39.0595 1.29443 7.05
    endloop
  endfacet
  facet normal 0 0 -1
    outer loop
      vertex 39.0595 1.29443 0
      vertex 45 22.5 0
      vertex 39.5056 1.52169 0
    endloop
  endfacet
  facet normal 0 0 1
    outer loop
      vertex 39.0595 1.29443 7.05
      vertex 39.5056 1.52169 7.05
      vertex 40 3.3 7.05
    endloop
  endfacet
  facet normal 0.156444 0.987687 0
    outer loop
      vertex 39.5056 -1.52169 0
      vertex 39.5056 -1.52169 7.05
      vertex 40 -1.6 0
    endloop
  endfacet
  facet normal 0 0 -1
    outer loop
      vertex 39.5056 -1.52169 0
      vertex 40 -1.6 0
      vertex 45 -22.5 0
    endloop
  endfacet
  facet normal 0.156444 0.987687 -0
    outer loop
      vertex 39.5056 -1.52169 7.05
      vertex 40 -1.6 7.05
      vertex 40 -1.6 0
    endloop
  endfacet
  facet normal 0 0 1
    outer loop
      vertex 39.5056 -1.52169 7.05
      vertex 40 -3.3 7.05
      vertex 40 -1.6 7.05
    endloop
  endfacet
  facet normal 0.156444 -0.987687 0
    outer loop
      vertex 39.5056 1.52169 0
      vertex 40 1.6 0
      vertex 40 1.6 7.05
    endloop
  endfacet
  facet normal 0.156444 -0.987687 0
    outer loop
      vertex 39.5056 1.52169 0
      vertex 40 1.6 7.05
      vertex 39.5056 1.52169 7.05
    endloop
  endfacet
  facet normal 0 0 -1
    outer loop
      vertex 39.5056 1.52169 0
      vertex 45 22.5 0
      vertex 40 1.6 0
    endloop
  endfacet
  facet normal 0 0 1
    outer loop
      vertex 39.5056 1.52169 7.05
      vertex 40 1.6 7.05
      vertex 40 3.3 7.05
    endloop
  endfacet
  facet normal -0.156444 0.987687 0
    outer loop
      vertex 40 -1.6 0
      vertex 40 -1.6 7.05
      vertex 40.4944 -1.52169 0
    endloop
  endfacet
  facet normal 0 0 -1
    outer loop
      vertex 40 -1.6 0
      vertex 40.4944 -1.52169 0
      vertex 45 -22.5 0
    endloop
  endfacet
  facet normal -0.156444 0.987687 0
    outer loop
      vertex 40 -1.6 7.05
      vertex 40.4944 -1.52169 7.05
      vertex 40.4944 -1.52169 0
    endloop
  endfacet
  facet normal 0.216933 1.35026e-06 0.976186
    outer loop
      vertex 40 -3.3 11.1111
      vertex 45 -22.5 10
      vertex 42.8579 -1.65 10.476
    endloop
  endfacet
  facet normal -0.499998 0.866027 0
    outer loop
      vertex 40 -3.3 7.05
      vertex 40 -3.3 11.1111
      vertex 42.8579 -1.65 10.476
    endloop
  endfacet
  facet normal 0 0 1
    outer loop
      vertex 40 -3.3 7.05
      vertex 40.4944 -1.52169 7.05
      vertex 40 -1.6 7.05
    endloop
  endfacet
  facet normal 0 0 1
    outer loop
      vertex 40 -3.3 7.05
      vertex 40.9405 -1.29443 7.05
      vertex 40.4944 -1.52169 7.05
    endloop
  endfacet
  facet normal -0.499998 0.866027 0
    outer loop
      vertex 40 -3.3 7.05
      vertex 42.8579 -1.65 10.476
      vertex 42.8579 -1.65 7.05
    endloop
  endfacet
  facet normal 0 0 1
    outer loop
      vertex 40 -3.3 7.05
      vertex 42.8579 -1.65 7.05
      vertex 40.9405 -1.29443 7.05
    endloop
  endfacet
  facet normal -0.156444 -0.987687 -0
    outer loop
      vertex 40 1.6 0
      vertex 40.4944 1.52169 0
      vertex 40.4944 1.52169 7.05
    endloop
  endfacet
  facet normal -0.156444 -0.987687 0
    outer loop
      vertex 40 1.6 0
      vertex 40.4944 1.52169 7.05
      vertex 40 1.6 7.05
    endloop
  endfacet
  facet normal 0 0 -1
    outer loop
      vertex 40 1.6 0
      vertex 45 22.5 0
      vertex 40.4944 1.52169 0
    endloop
  endfacet
  facet normal 0 0 1
    outer loop
      vertex 40 1.6 7.05
      vertex 40.4944 1.52169 7.05
      vertex 40 3.3 7.05
    endloop
  endfacet
  facet normal 0.216933 -1.35026e-06 0.976186
    outer loop
      vertex 40 3.3 11.1111
      vertex 42.8579 1.65 10.476
      vertex 45 22.5 10
    endloop
  endfacet
  facet normal 0 0 1
    outer loop
      vertex 40 3.3 7.05
      vertex 40.4944 1.52169 7.05
      vertex 40.9405 1.29443 7.05
    endloop
  endfacet
  facet normal 0 0 1
    outer loop
      vertex 40 3.3 7.05
      vertex 40.9405 1.29443 7.05
      vertex 42.8579 1.65 7.05
    endloop
  endfacet
  facet normal -0.499998 -0.866027 0
    outer loop
      vertex 40 3.3 7.05
      vertex 42.8579 1.65 10.476
      vertex 40 3.3 11.1111
    endloop
  endfacet
  facet normal -0.499998 -0.866027 -0
    outer loop
      vertex 40 3.3 7.05
      vertex 42.8579 1.65 7.05
      vertex 42.8579 1.65 10.476
    endloop
  endfacet
  facet normal -0.453928 0.891038 0
    outer loop
      vertex 40.4944 -1.52169 0
      vertex 40.4944 -1.52169 7.05
      vertex 40.9405 -1.29443 0
    endloop
  endfacet
  facet normal 0 0 -1
    outer loop
      vertex 40.4944 -1.52169 0
      vertex 40.9405 -1.29443 0
      vertex 45 -22.5 0
    endloop
  endfacet
  facet normal -0.453928 0.891038 0
    outer loop
      vertex 40.4944 -1.52169 7.05
      vertex 40.9405 -1.29443 7.05
      vertex 40.9405 -1.29443 0
    endloop
  endfacet
  facet normal -0.453928 -0.891038 -0
    outer loop
      vertex 40.4944 1.52169 0
      vertex 40.9405 1.29443 0
      vertex 40.9405 1.29443 7.05
    endloop
  endfacet
  facet normal -0.453928 -0.891038 0
    outer loop
      vertex 40.4944 1.52169 0
      vertex 40.9405 1.29443 7.05
      vertex 40.4944 1.52169 7.05
    endloop
  endfacet
  facet normal 0 0 -1
    outer loop
      vertex 40.4944 1.52169 0
      vertex 45 22.5 0
      vertex 40.9405 1.29443 0
    endloop
  endfacet
  facet normal -0.707181 0.707033 0
    outer loop
      vertex 40.9405 -1.29443 0
      vertex 40.9405 -1.29443 7.05
      vertex 41.2944 -0.940456 7.05
    endloop
  endfacet
  facet normal 0 0 -1
    outer loop
      vertex 40.9405 -1.29443 0
      vertex 41.2944 -0.940456 0
      vertex 45 -22.5 0
    endloop
  endfacet
  facet normal -0.707181 0.707033 0
    outer loop
      vertex 40.9405 -1.29443 0
      vertex 41.2944 -0.940456 7.05
      vertex 41.2944 -0.940456 0
    endloop
  endfacet
  facet normal -0 0 1
    outer loop
      vertex 40.9405 -1.29443 7.05
      vertex 42.8579 -1.65 7.05
      vertex 41.2944 -0.940456 7.05
    endloop
  endfacet
  facet normal -0.707181 -0.707033 0
    outer loop
      vertex 40.9405 1.29443 0
      vertex 41.2944 0.940456 0
      vertex 40.9405 1.29443 7.05
    endloop
  endfacet
  facet normal 0 0 -1
    outer loop
      vertex 40.9405 1.29443 0
      vertex 45 22.5 0
      vertex 41.2944 0.940456 0
    endloop
  endfacet
  facet normal -0.707181 -0.707033 0
    outer loop
      vertex 40.9405 1.29443 7.05
      vertex 41.2944 0.940456 0
      vertex 41.2944 0.940456 7.05
    endloop
  endfacet
  facet normal 0 0 1
    outer loop
      vertex 40.9405 1.29443 7.05
      vertex 41.2944 0.940456 7.05
      vertex 42.8579 1.65 7.05
    endloop
  endfacet
  facet normal -0.890977 0.454049 0
    outer loop
      vertex 41.2944 -0.940456 0
      vertex 41.2944 -0.940456 7.05
      vertex 41.5217 -0.494427 7.05
    endloop
  endfacet
  facet normal 0 0 -1
    outer loop
      vertex 41.2944 -0.940456 0
      vertex 41.5217 -0.494427 0
      vertex 45 -22.5 0
    endloop
  endfacet
  facet normal -0.890977 0.454049 0
    outer loop
      vertex 41.2944 -0.940456 0
      vertex 41.5217 -0.494427 7.05
      vertex 41.5217 -0.494427 0
    endloop
  endfacet
  facet normal -0 0 1
    outer loop
      vertex 41.2944 -0.940456 7.05
      vertex 42.8579 -1.65 7.05
      vertex 41.5217 -0.494427 7.05
    endloop
  endfacet
  facet normal -0.890977 -0.454049 0
    outer loop
      vertex 41.2944 0.940456 0
      vertex 41.5217 0.494427 0
      vertex 41.2944 0.940456 7.05
    endloop
  endfacet
  facet normal 0 0 -1
    outer loop
      vertex 41.2944 0.940456 0
      vertex 45 22.5 0
      vertex 41.5217 0.494427 0
    endloop
  endfacet
  facet normal -0.890977 -0.454049 0
    outer loop
      vertex 41.2944 0.940456 7.05
      vertex 41.5217 0.494427 0
      vertex 41.5217 0.494427 7.05
    endloop
  endfacet
  facet normal 0 0 1
    outer loop
      vertex 41.2944 0.940456 7.05
      vertex 41.5217 0.494427 7.05
      vertex 42.8579 1.65 7.05
    endloop
  endfacet
  facet normal -0.987691 0.156416 0
    outer loop
      vertex 41.5217 -0.494427 0
      vertex 41.5217 -0.494427 7.05
      vertex 41.6 0 7.05
    endloop
  endfacet
  facet normal 0 0 -1
    outer loop
      vertex 41.5217 -0.494427 0
      vertex 41.6 0 0
      vertex 45 -22.5 0
    endloop
  endfacet
  facet normal -0.987691 0.156416 0
    outer loop
      vertex 41.5217 -0.494427 0
      vertex 41.6 0 7.05
      vertex 41.6 0 0
    endloop
  endfacet
  facet normal -0 0 1
    outer loop
      vertex 41.5217 -0.494427 7.05
      vertex 42.8579 -1.65 7.05
      vertex 41.6 0 7.05
    endloop
  endfacet
  facet normal -0.987691 -0.156416 0
    outer loop
      vertex 41.5217 0.494427 0
      vertex 41.6 0 0
      vertex 41.5217 0.494427 7.05
    endloop
  endfacet
  facet normal 0 0 -1
    outer loop
      vertex 41.5217 0.494427 0
      vertex 45 22.5 0
      vertex 41.6 0 0
    endloop
  endfacet
  facet normal -0.987691 -0.156416 0
    outer loop
      vertex 41.5217 0.494427 7.05
      vertex 41.6 0 0
      vertex 41.6 0 7.05
    endloop
  endfacet
  facet normal 0 0 1
    outer loop
      vertex 41.5217 0.494427 7.05
      vertex 41.6 0 7.05
      vertex 42.8579 1.65 7.05
    endloop
  endfacet
  facet normal 0 0 -1
    outer loop
      vertex 41.6 0 0
      vertex 45 22.5 0
      vertex 45 -22.5 0
    endloop
  endfacet
  facet normal 0 0 1
    outer loop
      vertex 41.6 0 7.05
      vertex 42.8579 -1.65 7.05
      vertex 42.8579 1.65 7.05
    endloop
  endfacet
  facet normal 0.216921 -0 0.976189
    outer loop
      vertex 42.8579 -1.65 10.476
      vertex 45 -22.5 10
      vertex 42.8579 1.65 10.476
    endloop
  endfacet
  facet normal -1 -0 0
    outer loop
      vertex 42.8579 -1.65 7.05
      vertex 42.8579 -1.65 10.476
      vertex 42.8579 1.65 10.476
    endloop
  endfacet
  facet normal -1 0 0
    outer loop
      vertex 42.8579 -1.65 7.05
      vertex 42.8579 1.65 10.476
      vertex 42.8579 1.65 7.05
    endloop
  endfacet
  facet normal 0.216921 0 0.976189
    outer loop
      vertex 42.8579 1.65 10.476
      vertex 45 -22.5 10
      vertex 45 22.5 10
    endloop
  endfacet
  facet normal 1 0 0
    outer loop
      vertex 45 -22.5 0
      vertex 45 22.5 0
      vertex 45 -22.5 10
    endloop
  endfacet
  facet normal 1 -0 0
    outer loop
      vertex 45 -22.5 10
      vertex 45 22.5 0
      vertex 45 22.5 10
    endloop
  endfacet
  facet normal 0 0.156416 0.987691
    outer loop
      vertex 5 -0.494427 23.4783
      vertex 10 -0.494427 23.4783
      vertex 5 0 23.4
    endloop
  endfacet
  facet normal -0 0.454049 0.890977
    outer loop
      vertex 5 -0.494427 23.4783
      vertex 10 -0.940456 23.7056
      vertex 10 -0.494427 23.4783
    endloop
  endfacet
  facet normal 0 0.156416 -0.987691
    outer loop
      vertex 5 -0.494427 26.5217
      vertex 10 0 26.6
      vertex 10 -0.494427 26.5217
    endloop
  endfacet
  facet normal 0 0.156416 -0.987691
    outer loop
      vertex 5 -0.494427 26.5217
      vertex 5 0 26.6
      vertex 10 0 26.6
    endloop
  endfacet
  facet normal -1 0 0
    outer loop
      vertex 5 -0.494427 26.5217
      vertex 5 0 30.625
      vertex 5 0 26.6
    endloop
  endfacet
  facet normal 0 0.454049 0.890977
    outer loop
      vertex 5 -0.940456 23.7056
      vertex 10 -0.940456 23.7056
      vertex 5 -0.494427 23.4783
    endloop
  endfacet
  facet normal -0 0.707033 0.707181
    outer loop
      vertex 5 -0.940456 23.7056
      vertex 10 -1.29443 24.0595
      vertex 10 -0.940456 23.7056
    endloop
  endfacet
  facet normal 0 0.454049 -0.890977
    outer loop
      vertex 5 -0.940456 26.2944
      vertex 10 -0.494427 26.5217
      vertex 10 -0.940456 26.2944
    endloop
  endfacet
  facet normal 0 0.454049 -0.890977
    outer loop
      vertex 5 -0.940456 26.2944
      vertex 5 -0.494427 26.5217
      vertex 10 -0.494427 26.5217
    endloop
  endfacet
  facet normal 0 0.707033 0.707181
    outer loop
      vertex 5 -1.29443 24.0595
      vertex 10 -1.29443 24.0595
      vertex 5 -0.940456 23.7056
    endloop
  endfacet
  facet normal 0 0.707033 -0.707181
    outer loop
      vertex 5 -1.29443 25.9405
      vertex 10 -0.940456 26.2944
      vertex 10 -1.29443 25.9405
    endloop
  endfacet
  facet normal 0 0.891038 -0.453928
    outer loop
      vertex 5 -1.29443 25.9405
      vertex 10 -1.29443 25.9405
      vertex 10 -1.52169 25.4944
    endloop
  endfacet
  facet normal 0 0.707033 -0.707181
    outer loop
      vertex 5 -1.29443 25.9405
      vertex 5 -0.940456 26.2944
      vertex 10 -0.940456 26.2944
    endloop
  endfacet
  facet normal 0 0.891038 0.453928
    outer loop
      vertex 5 -1.52169 24.5056
      vertex 10 -1.29443 24.0595
      vertex 5 -1.29443 24.0595
    endloop
  endfacet
  facet normal 0 0.891038 0.453928
    outer loop
      vertex 5 -1.52169 24.5056
      vertex 10 -1.52169 24.5056
      vertex 10 -1.29443 24.0595
    endloop
  endfacet
  facet normal 0 0.987687 -0.156444
    outer loop
      vertex 5 -1.52169 25.4944
      vertex 10 -1.52169 25.4944
      vertex 10 -1.6 25
    endloop
  endfacet
  facet normal 0 0.891038 -0.453928
    outer loop
      vertex 5 -1.52169 25.4944
      vertex 5 -1.29443 25.9405
      vertex 10 -1.52169 25.4944
    endloop
  endfacet
  facet normal 0 0.987687 0.156444
    outer loop
      vertex 5 -1.6 25
      vertex 10 -1.52169 24.5056
      vertex 5 -1.52169 24.5056
    endloop
  endfacet
  facet normal 0 0.987687 0.156444
    outer loop
      vertex 5 -1.6 25
      vertex 10 -1.6 25
      vertex 10 -1.52169 24.5056
    endloop
  endfacet
  facet normal 0 0.987687 -0.156444
    outer loop
      vertex 5 -1.6 25
      vertex 5 -1.52169 25.4944
      vertex 10 -1.6 25
    endloop
  endfacet
  facet normal 0 -0.173634 0.98481
    outer loop
      vertex 5 -1.92386 30.2858
      vertex 11.25 -1.92386 30.2858
      vertex 5 0 30.625
    endloop
  endfacet
  facet normal 0 -0.50001 0.866019
    outer loop
      vertex 5 -1.92386 30.2858
      vertex 11.25 -3.61568 29.309
      vertex 11.25 -1.92386 30.2858
    endloop
  endfacet
  facet normal -1 0 0
    outer loop
      vertex 5 -1.92386 30.2858
      vertex 5 -0.494427 26.5217
      vertex 5 -0.940456 26.2944
    endloop
  endfacet
  facet normal -1 0 0
    outer loop
      vertex 5 -1.92386 30.2858
      vertex 5 0 30.625
      vertex 5 -0.494427 26.5217
    endloop
  endfacet
  facet normal 0 -0.50001 0.866019
    outer loop
      vertex 5 -3.61568 29.309
      vertex 11.25 -3.61568 29.309
      vertex 5 -1.92386 30.2858
    endloop
  endfacet
  facet normal -1 0 0
    outer loop
      vertex 5 -3.61568 29.309
      vertex 5 -0.940456 26.2944
      vertex 5 -1.29443 25.9405
    endloop
  endfacet
  facet normal -1 0 0
    outer loop
      vertex 5 -3.61568 29.309
      vertex 5 -1.29443 25.9405
      vertex 5 -1.52169 25.4944
    endloop
  endfacet
  facet normal -1 0 0
    outer loop
      vertex 5 -3.61568 29.309
      vertex 5 -1.92386 30.2858
      vertex 5 -0.940456 26.2944
    endloop
  endfacet
  facet normal 0 -0.766045 0.642787
    outer loop
      vertex 5 -4.87139 27.8125
      vertex 11.25 -3.61568 29.309
      vertex 5 -3.61568 29.309
    endloop
  endfacet
  facet normal 0 -0.766045 0.642787
    outer loop
      vertex 5 -4.87139 27.8125
      vertex 11.25 -4.87139 27.8125
      vertex 11.25 -3.61568 29.309
    endloop
  endfacet
  facet normal -1 0 0
    outer loop
      vertex 5 -4.87139 27.8125
      vertex 5 -1.52169 25.4944
      vertex 5 -1.6 25
    endloop
  endfacet
  facet normal -1 0 0
    outer loop
      vertex 5 -4.87139 27.8125
      vertex 5 -1.6 25
      vertex 5 -1.52169 24.5056
    endloop
  endfacet
  facet normal -1 0 0
    outer loop
      vertex 5 -4.87139 27.8125
      vertex 5 -3.61568 29.309
      vertex 5 -1.52169 25.4944
    endloop
  endfacet
  facet normal 0 -0.893797 0.448471
    outer loop
      vertex 5 -9.29314 19
      vertex 11.25 -4.87139 27.8125
      vertex 5 -4.87139 27.8125
    endloop
  endfacet
  facet normal -1.87674e-08 -0.893797 0.448471
    outer loop
      vertex 5 -9.29314 19
      vertex 22.5 -11.25 15.1
      vertex 11.25 -4.87139 27.8125
    endloop
  endfacet
  facet normal -1 -0 0
    outer loop
      vertex 5 -9.29314 19
      vertex 5 -0.494427 23.4783
      vertex 5 0 23.4
    endloop
  endfacet
  facet normal -1 -0 0
    outer loop
      vertex 5 -9.29314 19
      vertex 5 -0.940456 23.7056
      vertex 5 -0.494427 23.4783
    endloop
  endfacet
  facet normal -1 -0 0
    outer loop
      vertex 5 -9.29314 19
      vertex 5 -1.29443 24.0595
      vertex 5 -0.940456 23.7056
    endloop
  endfacet
  facet normal -1 0 0
    outer loop
      vertex 5 -9.29314 19
      vertex 5 -1.52169 24.5056
      vertex 5 -1.29443 24.0595
    endloop
  endfacet
  facet normal -1 -0 0
    outer loop
      vertex 5 -9.29314 19
      vertex 5 -4.87139 27.8125
      vertex 5 -1.52169 24.5056
    endloop
  endfacet
  facet normal -1 0 0
    outer loop
      vertex 5 -9.29314 19
      vertex 5 0 23.4
      vertex 5 9.29314 19
    endloop
  endfacet
  facet normal -0 0.156416 0.987691
    outer loop
      vertex 5 0 23.4
      vertex 10 -0.494427 23.4783
      vertex 10 0 23.4
    endloop
  endfacet
  facet normal 0 -0.156416 0.987691
    outer loop
      vertex 5 0 23.4
      vertex 10 0 23.4
      vertex 5 0.494427 23.4783
    endloop
  endfacet
  facet normal -1 0 0
    outer loop
      vertex 5 0 23.4
      vertex 5 0.494427 23.4783
      vertex 5 9.29314 19
    endloop
  endfacet
  facet normal 0 -0.156416 -0.987691
    outer loop
      vertex 5 0 26.6
      vertex 10 0.494427 26.5217
      vertex 10 0 26.6
    endloop
  endfacet
  facet normal -1 0 0
    outer loop
      vertex 5 0 26.6
      vertex 5 0 30.625
      vertex 5 0.494427 26.5217
    endloop
  endfacet
  facet normal -0 -0.156416 -0.987691
    outer loop
      vertex 5 0 26.6
      vertex 5 0.494427 26.5217
      vertex 10 0.494427 26.5217
    endloop
  endfacet
  facet normal 0 -0.173634 0.98481
    outer loop
      vertex 5 0 30.625
      vertex 11.25 -1.92386 30.2858
      vertex 11.25 0 30.625
    endloop
  endfacet
  facet normal 0 0.173634 0.98481
    outer loop
      vertex 5 0 30.625
      vertex 11.25 0 30.625
      vertex 5 1.92386 30.2858
    endloop
  endfacet
  facet normal -1 0 0
    outer loop
      vertex 5 0 30.625
      vertex 5 1.92386 30.2858
      vertex 5 0.494427 26.5217
    endloop
  endfacet
  facet normal 0 -0.156416 0.987691
    outer loop
      vertex 5 0.494427 23.4783
      vertex 10 0 23.4
      vertex 10 0.494427 23.4783
    endloop
  endfacet
  facet normal 0 -0.454049 0.890977
    outer loop
      vertex 5 0.494427 23.4783
      vertex 10 0.494427 23.4783
      vertex 5 0.940456 23.7056
    endloop
  endfacet
  facet normal -1 0 0
    outer loop
      vertex 5 0.494427 23.4783
      vertex 5 0.940456 23.7056
      vertex 5 9.29314 19
    endloop
  endfacet
  facet normal 0 -0.454049 -0.890977
    outer loop
      vertex 5 0.494427 26.5217
      vertex 10 0.940456 26.2944
      vertex 10 0.494427 26.5217
    endloop
  endfacet
  facet normal -0 -0.454049 -0.890977
    outer loop
      vertex 5 0.494427 26.5217
      vertex 5 0.940456 26.2944
      vertex 10 0.940456 26.2944
    endloop
  endfacet
  facet normal -1 0 0
    outer loop
      vertex 5 0.494427 26.5217
      vertex 5 1.92386 30.2858
      vertex 5 0.940456 26.2944
    endloop
  endfacet
  facet normal 0 -0.454049 0.890977
    outer loop
      vertex 5 0.940456 23.7056
      vertex 10 0.494427 23.4783
      vertex 10 0.940456 23.7056
    endloop
  endfacet
  facet normal 0 -0.707033 0.707181
    outer loop
      vertex 5 0.940456 23.7056
      vertex 10 0.940456 23.7056
      vertex 5 1.29443 24.0595
    endloop
  endfacet
  facet normal -1 0 0
    outer loop
      vertex 5 0.940456 23.7056
      vertex 5 1.29443 24.0595
      vertex 5 9.29314 19
    endloop
  endfacet
  facet normal 0 -0.707033 -0.707181
    outer loop
      vertex 5 0.940456 26.2944
      vertex 10 1.29443 25.9405
      vertex 10 0.940456 26.2944
    endloop
  endfacet
  facet normal -0 -0.707033 -0.707181
    outer loop
      vertex 5 0.940456 26.2944
      vertex 5 1.29443 25.9405
      vertex 10 1.29443 25.9405
    endloop
  endfacet
  facet normal -1 -0 0
    outer loop
      vertex 5 0.940456 26.2944
      vertex 5 1.92386 30.2858
      vertex 5 3.61568 29.309
    endloop
  endfacet
  facet normal -1 0 0
    outer loop
      vertex 5 0.940456 26.2944
      vertex 5 3.61568 29.309
      vertex 5 1.29443 25.9405
    endloop
  endfacet
  facet normal 0 -0.707033 0.707181
    outer loop
      vertex 5 1.29443 24.0595
      vertex 10 0.940456 23.7056
      vertex 10 1.29443 24.0595
    endloop
  endfacet
  facet normal 0 -0.891038 0.453928
    outer loop
      vertex 5 1.29443 24.0595
      vertex 10 1.29443 24.0595
      vertex 10 1.52169 24.5056
    endloop
  endfacet
  facet normal 0 -0.891038 0.453928
    outer loop
      vertex 5 1.29443 24.0595
      vertex 10 1.52169 24.5056
      vertex 5 1.52169 24.5056
    endloop
  endfacet
  facet normal -1 0 0
    outer loop
      vertex 5 1.29443 24.0595
      vertex 5 1.52169 24.5056
      vertex 5 9.29314 19
    endloop
  endfacet
  facet normal 0 -0.891038 -0.453928
    outer loop
      vertex 5 1.29443 25.9405
      vertex 5 1.52169 25.4944
      vertex 10 1.29443 25.9405
    endloop
  endfacet
  facet normal -1 -0 0
    outer loop
      vertex 5 1.29443 25.9405
      vertex 5 3.61568 29.309
      vertex 5 4.87139 27.8125
    endloop
  endfacet
  facet normal -1 0 0
    outer loop
      vertex 5 1.29443 25.9405
      vertex 5 4.87139 27.8125
      vertex 5 1.52169 25.4944
    endloop
  endfacet
  facet normal 0 -0.987687 0.156444
    outer loop
      vertex 5 1.52169 24.5056
      vertex 10 1.52169 24.5056
      vertex 10 1.6 25
    endloop
  endfacet
  facet normal 0 -0.987687 0.156444
    outer loop
      vertex 5 1.52169 24.5056
      vertex 10 1.6 25
      vertex 5 1.6 25
    endloop
  endfacet
  facet normal -1 0 0
    outer loop
      vertex 5 1.52169 24.5056
      vertex 5 1.6 25
      vertex 5 4.87139 27.8125
    endloop
  endfacet
  facet normal -1 0 0
    outer loop
      vertex 5 1.52169 24.5056
      vertex 5 4.87139 27.8125
      vertex 5 9.29314 19
    endloop
  endfacet
  facet normal 0 -0.891038 -0.453928
    outer loop
      vertex 5 1.52169 25.4944
      vertex 10 1.52169 25.4944
      vertex 10 1.29443 25.9405
    endloop
  endfacet
  facet normal 0 -0.987687 -0.156444
    outer loop
      vertex 5 1.52169 25.4944
      vertex 5 1.6 25
      vertex 10 1.52169 25.4944
    endloop
  endfacet
  facet normal -1 0 0
    outer loop
      vertex 5 1.52169 25.4944
      vertex 5 4.87139 27.8125
      vertex 5 1.6 25
    endloop
  endfacet
  facet normal 0 -0.987687 -0.156444
    outer loop
      vertex 5 1.6 25
      vertex 10 1.6 25
      vertex 10 1.52169 25.4944
    endloop
  endfacet
  facet normal -0 0.173634 0.98481
    outer loop
      vertex 5 1.92386 30.2858
      vertex 11.25 0 30.625
      vertex 11.25 1.92386 30.2858
    endloop
  endfacet
  facet normal 0 0.50001 0.866019
    outer loop
      vertex 5 1.92386 30.2858
      vertex 11.25 1.92386 30.2858
      vertex 5 3.61568 29.309
    endloop
  endfacet
  facet normal -0 0.50001 0.866019
    outer loop
      vertex 5 3.61568 29.309
      vertex 11.25 1.92386 30.2858
      vertex 11.25 3.61568 29.309
    endloop
  endfacet
  facet normal 0 0.766045 0.642787
    outer loop
      vertex 5 3.61568 29.309
      vertex 11.25 3.61568 29.309
      vertex 11.25 4.87139 27.8125
    endloop
  endfacet
  facet normal 0 0.766045 0.642787
    outer loop
      vertex 5 3.61568 29.309
      vertex 11.25 4.87139 27.8125
      vertex 5 4.87139 27.8125
    endloop
  endfacet
  facet normal 0 0.893797 0.448471
    outer loop
      vertex 5 4.87139 27.8125
      vertex 11.25 4.87139 27.8125
      vertex 5 9.29314 19
    endloop
  endfacet
  facet normal -1.87674e-08 0.893797 0.448471
    outer loop
      vertex 5 9.29314 19
      vertex 11.25 4.87139 27.8125
      vertex 22.5 11.25 15.1
    endloop
  endfacet
endsolid model
