solid OpenSCAD_Model
  facet normal -0.707107 -0.707107 0
    outer loop
      vertex 28.0368 -40.7647 -9
      vertex 0.707107 -13.435 9
      vertex 0.707107 -13.435 -9
    endloop
  endfacet
  facet normal -0.707107 -0.707107 0
    outer loop
      vertex 0.707107 -13.435 9
      vertex 28.0368 -40.7647 -9
      vertex 28.0368 -40.7647 9
    endloop
  endfacet
  facet normal 0.707108 -0.707106 0
    outer loop
      vertex 28.0368 -40.7647 -9
      vertex 132.264 63.4628 9
      vertex 28.0368 -40.7647 9
    endloop
  endfacet
  facet normal 0.707108 -0.707106 0
    outer loop
      vertex 132.264 63.4628 9
      vertex 28.0368 -40.7647 -9
      vertex 132.264 63.4628 -9
    endloop
  endfacet
  facet normal 0.707116 0.707098 -0
    outer loop
      vertex 132.264 63.4628 -9
      vertex 104.935 90.7925 9
      vertex 132.264 63.4628 9
    endloop
  endfacet
  facet normal 0.707116 0.707098 0
    outer loop
      vertex 104.935 90.7925 9
      vertex 132.264 63.4628 -9
      vertex 104.935 90.7925 -9
    endloop
  endfacet
  facet normal 0 0 1
    outer loop
      vertex 104.935 104.935 9
      vertex 104.935 90.7925 9
      vertex 112.006 97.8636 9
    endloop
  endfacet
  facet normal 0 -0 1
    outer loop
      vertex 104.935 90.7925 9
      vertex 104.935 104.935 9
      vertex 91.8532 91.8532 9
    endloop
  endfacet
  facet normal 0 0 1
    outer loop
      vertex 104.935 90.7925 9
      vertex 117.74 65.966 9
      vertex 132.264 63.4628 9
    endloop
  endfacet
  facet normal 0 0 1
    outer loop
      vertex 117.74 65.966 9
      vertex 104.935 90.7925 9
      vertex 91.8532 91.8532 9
    endloop
  endfacet
  facet normal 0 0 1
    outer loop
      vertex 117.74 65.966 9
      vertex 28.0368 -40.7647 9
      vertex 132.264 63.4628 9
    endloop
  endfacet
  facet normal -0 0 1
    outer loop
      vertex 25.5336 -26.2407 9
      vertex 28.0368 -40.7647 9
      vertex 117.74 65.966 9
    endloop
  endfacet
  facet normal 0 0 1
    outer loop
      vertex 25.5336 -26.2407 9
      vertex 0.707107 -13.435 9
      vertex 28.0368 -40.7647 9
    endloop
  endfacet
  facet normal 0 0 1
    outer loop
      vertex -0.353553 -0.353553 9
      vertex 0.707107 -13.435 9
      vertex 25.5336 -26.2407 9
    endloop
  endfacet
  facet normal 0 0 1
    outer loop
      vertex -13.435 -13.435 9
      vertex 0.707107 -13.435 9
      vertex -0.353553 -0.353553 9
    endloop
  endfacet
  facet normal 0 0 1
    outer loop
      vertex 0.707107 -13.435 9
      vertex -13.435 -13.435 9
      vertex -6.36396 -20.5061 9
    endloop
  endfacet
  facet normal -0.707107 0.707107 0
    outer loop
      vertex 104.935 104.935 -9
      vertex 102.53 102.53 0
      vertex 104.935 104.935 9
    endloop
  endfacet
  facet normal -0.707107 0.707107 0
    outer loop
      vertex 104.935 104.935 -9
      vertex 102.475 102.475 -0.494427
      vertex 102.53 102.53 0
    endloop
  endfacet
  facet normal -0.707107 0.707107 0
    outer loop
      vertex 104.935 104.935 -9
      vertex 102.314 102.314 -0.940456
      vertex 102.475 102.475 -0.494427
    endloop
  endfacet
  facet normal -0.707107 0.707107 0
    outer loop
      vertex 104.935 104.935 -9
      vertex 102.064 102.064 -1.29443
      vertex 102.314 102.314 -0.940456
    endloop
  endfacet
  facet normal -0.707107 0.707107 0
    outer loop
      vertex 104.935 104.935 -9
      vertex 101.749 101.749 -1.52169
      vertex 102.064 102.064 -1.29443
    endloop
  endfacet
  facet normal -0.707107 0.707107 0
    outer loop
      vertex 104.935 104.935 -9
      vertex 101.399 101.399 -1.6
      vertex 101.749 101.749 -1.52169
    endloop
  endfacet
  facet normal -0.707107 0.707107 0
    outer loop
      vertex 104.935 104.935 -9
      vertex 101.049 101.049 -1.52169
      vertex 101.399 101.399 -1.6
    endloop
  endfacet
  facet normal -0.707107 0.707107 0
    outer loop
      vertex 91.8532 91.8532 -9
      vertex 101.049 101.049 -1.52169
      vertex 104.935 104.935 -9
    endloop
  endfacet
  facet normal -0.707107 0.707107 0
    outer loop
      vertex 101.049 101.049 -1.52169
      vertex 91.8532 91.8532 -9
      vertex 100.734 100.734 -1.29443
    endloop
  endfacet
  facet normal -0.707107 0.707107 0
    outer loop
      vertex 100.323 100.323 -0.494427
      vertex 91.8532 91.8532 -9
      vertex 100.268 100.268 0
    endloop
  endfacet
  facet normal -0.707107 0.707107 0
    outer loop
      vertex 100.484 100.484 -0.940456
      vertex 91.8532 91.8532 -9
      vertex 100.323 100.323 -0.494427
    endloop
  endfacet
  facet normal -0.707107 0.707107 0
    outer loop
      vertex 100.734 100.734 -1.29443
      vertex 91.8532 91.8532 -9
      vertex 100.484 100.484 -0.940456
    endloop
  endfacet
  facet normal -0.707107 0.707107 0
    outer loop
      vertex 102.475 102.475 0.494427
      vertex 104.935 104.935 9
      vertex 102.53 102.53 0
    endloop
  endfacet
  facet normal -0.707107 0.707107 0
    outer loop
      vertex 102.314 102.314 0.940456
      vertex 104.935 104.935 9
      vertex 102.475 102.475 0.494427
    endloop
  endfacet
  facet normal -0.707107 0.707107 0
    outer loop
      vertex 102.064 102.064 1.29443
      vertex 104.935 104.935 9
      vertex 102.314 102.314 0.940456
    endloop
  endfacet
  facet normal -0.707107 0.707107 0
    outer loop
      vertex 101.749 101.749 1.52169
      vertex 104.935 104.935 9
      vertex 102.064 102.064 1.29443
    endloop
  endfacet
  facet normal -0.707107 0.707107 0
    outer loop
      vertex 101.399 101.399 1.6
      vertex 104.935 104.935 9
      vertex 101.749 101.749 1.52169
    endloop
  endfacet
  facet normal -0.707107 0.707107 0
    outer loop
      vertex 101.049 101.049 1.52169
      vertex 104.935 104.935 9
      vertex 101.399 101.399 1.6
    endloop
  endfacet
  facet normal -0.707107 0.707107 0
    outer loop
      vertex 91.8532 91.8532 9
      vertex 101.049 101.049 1.52169
      vertex 100.734 100.734 1.29443
    endloop
  endfacet
  facet normal -0.707107 0.707107 0
    outer loop
      vertex 91.8532 91.8532 9
      vertex 100.734 100.734 1.29443
      vertex 100.484 100.484 0.940456
    endloop
  endfacet
  facet normal -0.707107 0.707107 0
    outer loop
      vertex 91.8532 91.8532 9
      vertex 100.268 100.268 0
      vertex 91.8532 91.8532 -9
    endloop
  endfacet
  facet normal -0.707107 0.707107 0
    outer loop
      vertex 100.268 100.268 0
      vertex 91.8532 91.8532 9
      vertex 100.323 100.323 0.494427
    endloop
  endfacet
  facet normal -0.707107 0.707107 0
    outer loop
      vertex 100.323 100.323 0.494427
      vertex 91.8532 91.8532 9
      vertex 100.484 100.484 0.940456
    endloop
  endfacet
  facet normal -0.707107 0.707107 0
    outer loop
      vertex 101.049 101.049 1.52169
      vertex 91.8532 91.8532 9
      vertex 104.935 104.935 9
    endloop
  endfacet
  facet normal -0.707107 0.707107 0
    outer loop
      vertex -0.353553 -0.353553 -9
      vertex -8.76812 -8.76812 0
      vertex -0.353553 -0.353553 9
    endloop
  endfacet
  facet normal -0.707107 0.707107 0
    outer loop
      vertex -0.353553 -0.353553 -9
      vertex -8.8235 -8.8235 -0.494427
      vertex -8.76812 -8.76812 0
    endloop
  endfacet
  facet normal -0.707107 0.707107 0
    outer loop
      vertex -0.353553 -0.353553 -9
      vertex -8.9842 -8.9842 -0.940456
      vertex -8.8235 -8.8235 -0.494427
    endloop
  endfacet
  facet normal -0.707107 0.707107 0
    outer loop
      vertex -0.353553 -0.353553 -9
      vertex -9.23449 -9.23449 -1.29443
      vertex -8.9842 -8.9842 -0.940456
    endloop
  endfacet
  facet normal -0.707107 0.707107 0
    outer loop
      vertex -0.353553 -0.353553 -9
      vertex -9.54988 -9.54988 -1.52169
      vertex -9.23449 -9.23449 -1.29443
    endloop
  endfacet
  facet normal -0.707107 0.707107 0
    outer loop
      vertex -13.435 -13.435 -9
      vertex -9.54988 -9.54988 -1.52169
      vertex -0.353553 -0.353553 -9
    endloop
  endfacet
  facet normal -0.707107 0.707107 0
    outer loop
      vertex -9.54988 -9.54988 -1.52169
      vertex -13.435 -13.435 -9
      vertex -9.8995 -9.8995 -1.6
    endloop
  endfacet
  facet normal -0.707107 0.707107 0
    outer loop
      vertex -9.8995 -9.8995 -1.6
      vertex -13.435 -13.435 -9
      vertex -10.2491 -10.2491 -1.52169
    endloop
  endfacet
  facet normal -0.707107 0.707107 0
    outer loop
      vertex -10.9755 -10.9755 -0.494427
      vertex -13.435 -13.435 -9
      vertex -11.0309 -11.0309 0
    endloop
  endfacet
  facet normal -0.707107 0.707107 0
    outer loop
      vertex -10.8148 -10.8148 -0.940456
      vertex -13.435 -13.435 -9
      vertex -10.9755 -10.9755 -0.494427
    endloop
  endfacet
  facet normal -0.707107 0.707107 0
    outer loop
      vertex -10.5645 -10.5645 -1.29443
      vertex -13.435 -13.435 -9
      vertex -10.8148 -10.8148 -0.940456
    endloop
  endfacet
  facet normal -0.707107 0.707107 0
    outer loop
      vertex -10.2491 -10.2491 -1.52169
      vertex -13.435 -13.435 -9
      vertex -10.5645 -10.5645 -1.29443
    endloop
  endfacet
  facet normal -0.707107 0.707107 0
    outer loop
      vertex -8.8235 -8.8235 0.494427
      vertex -0.353553 -0.353553 9
      vertex -8.76812 -8.76812 0
    endloop
  endfacet
  facet normal -0.707107 0.707107 0
    outer loop
      vertex -8.9842 -8.9842 0.940456
      vertex -0.353553 -0.353553 9
      vertex -8.8235 -8.8235 0.494427
    endloop
  endfacet
  facet normal -0.707107 0.707107 0
    outer loop
      vertex -9.23449 -9.23449 1.29443
      vertex -0.353553 -0.353553 9
      vertex -8.9842 -8.9842 0.940456
    endloop
  endfacet
  facet normal -0.707107 0.707107 0
    outer loop
      vertex -9.54988 -9.54988 1.52169
      vertex -0.353553 -0.353553 9
      vertex -9.23449 -9.23449 1.29443
    endloop
  endfacet
  facet normal -0.707107 0.707107 0
    outer loop
      vertex -13.435 -13.435 9
      vertex -9.54988 -9.54988 1.52169
      vertex -9.8995 -9.8995 1.6
    endloop
  endfacet
  facet normal -0.707107 0.707107 0
    outer loop
      vertex -13.435 -13.435 9
      vertex -9.8995 -9.8995 1.6
      vertex -10.2491 -10.2491 1.52169
    endloop
  endfacet
  facet normal -0.707107 0.707107 0
    outer loop
      vertex -13.435 -13.435 9
      vertex -10.2491 -10.2491 1.52169
      vertex -10.5645 -10.5645 1.29443
    endloop
  endfacet
  facet normal -0.707107 0.707107 0
    outer loop
      vertex -13.435 -13.435 9
      vertex -11.0309 -11.0309 0
      vertex -13.435 -13.435 -9
    endloop
  endfacet
  facet normal -0.707107 0.707107 0
    outer loop
      vertex -9.54988 -9.54988 1.52169
      vertex -13.435 -13.435 9
      vertex -0.353553 -0.353553 9
    endloop
  endfacet
  facet normal -0.707107 0.707107 0
    outer loop
      vertex -10.8148 -10.8148 0.940456
      vertex -13.435 -13.435 9
      vertex -10.5645 -10.5645 1.29443
    endloop
  endfacet
  facet normal -0.707107 0.707107 0
    outer loop
      vertex -10.9755 -10.9755 0.494427
      vertex -13.435 -13.435 9
      vertex -10.8148 -10.8148 0.940456
    endloop
  endfacet
  facet normal -0.707107 0.707107 0
    outer loop
      vertex -11.0309 -11.0309 0
      vertex -13.435 -13.435 9
      vertex -10.9755 -10.9755 0.494427
    endloop
  endfacet
  facet normal 0 0 -1
    outer loop
      vertex 28.0368 -40.7647 -9
      vertex 117.74 65.966 -9
      vertex 132.264 63.4628 -9
    endloop
  endfacet
  facet normal 0 0 -1
    outer loop
      vertex 28.0368 -40.7647 -9
      vertex 25.5336 -26.2407 -9
      vertex 117.74 65.966 -9
    endloop
  endfacet
  facet normal 0 0 -1
    outer loop
      vertex 0.707107 -13.435 -9
      vertex 25.5336 -26.2407 -9
      vertex 28.0368 -40.7647 -9
    endloop
  endfacet
  facet normal 0 0 -1
    outer loop
      vertex 0.707107 -13.435 -9
      vertex -0.353553 -0.353553 -9
      vertex 25.5336 -26.2407 -9
    endloop
  endfacet
  facet normal 0 0 -1
    outer loop
      vertex -13.435 -13.435 -9
      vertex 0.707107 -13.435 -9
      vertex -6.36396 -20.5061 -9
    endloop
  endfacet
  facet normal 0 0 -1
    outer loop
      vertex 0.707107 -13.435 -9
      vertex -13.435 -13.435 -9
      vertex -0.353553 -0.353553 -9
    endloop
  endfacet
  facet normal 0 0 -1
    outer loop
      vertex 117.74 65.966 -9
      vertex 104.935 90.7925 -9
      vertex 132.264 63.4628 -9
    endloop
  endfacet
  facet normal 0 0 -1
    outer loop
      vertex 104.935 90.7925 -9
      vertex 91.8532 91.8532 -9
      vertex 104.935 104.935 -9
    endloop
  endfacet
  facet normal 0 0 -1
    outer loop
      vertex 91.8532 91.8532 -9
      vertex 104.935 90.7925 -9
      vertex 117.74 65.966 -9
    endloop
  endfacet
  facet normal -0 0 -1
    outer loop
      vertex 112.006 97.8636 -9
      vertex 104.935 90.7925 -9
      vertex 104.935 104.935 -9
    endloop
  endfacet
  facet normal 0.707107 0.707107 -0
    outer loop
      vertex 25.5336 -26.2407 -9
      vertex -0.353553 -0.353553 9
      vertex 25.5336 -26.2407 9
    endloop
  endfacet
  facet normal 0.707107 0.707107 0
    outer loop
      vertex -0.353553 -0.353553 9
      vertex 25.5336 -26.2407 -9
      vertex -0.353553 -0.353553 -9
    endloop
  endfacet
  facet normal -0.707112 -0.707101 0
    outer loop
      vertex 117.74 65.966 -9
      vertex 91.8532 91.8532 9
      vertex 91.8532 91.8532 -9
    endloop
  endfacet
  facet normal -0.707112 -0.707101 0
    outer loop
      vertex 91.8532 91.8532 9
      vertex 117.74 65.966 -9
      vertex 117.74 65.966 9
    endloop
  endfacet
  facet normal -0.707108 0.707106 0
    outer loop
      vertex 117.74 65.966 -9
      vertex 25.5336 -26.2407 9
      vertex 117.74 65.966 9
    endloop
  endfacet
  facet normal -0.707108 0.707106 0
    outer loop
      vertex 25.5336 -26.2407 9
      vertex 117.74 65.966 -9
      vertex 25.5336 -26.2407 -9
    endloop
  endfacet
  facet normal -0.70711 -0.707104 0
    outer loop
      vertex -13.435 -13.435 -9
      vertex -6.36396 -20.5061 9
      vertex -13.435 -13.435 9
    endloop
  endfacet
  facet normal -0.70711 -0.707104 -0
    outer loop
      vertex -6.36396 -20.5061 9
      vertex -13.435 -13.435 -9
      vertex -6.36396 -20.5061 -9
    endloop
  endfacet
  facet normal 0.707108 -0.707105 4.44329e-06
    outer loop
      vertex -6.36396 -20.5061 9
      vertex -2.82843 -16.9706 1.6
      vertex 0.707107 -13.435 9
    endloop
  endfacet
  facet normal 0.707097 -0.707116 -6.13966e-06
    outer loop
      vertex -6.36396 -20.5061 9
      vertex -3.17804 -17.3202 1.52169
      vertex -2.82843 -16.9706 1.6
    endloop
  endfacet
  facet normal 0.707115 -0.707099 8.75485e-06
    outer loop
      vertex -6.36396 -20.5061 9
      vertex -3.49343 -17.6356 1.29443
      vertex -3.17804 -17.3202 1.52169
    endloop
  endfacet
  facet normal 0.707106 -0.707108 1.80307e-06
    outer loop
      vertex -6.36396 -20.5061 9
      vertex -3.74373 -17.8859 0.940456
      vertex -3.49343 -17.6356 1.29443
    endloop
  endfacet
  facet normal 0.707116 -0.707097 8.90348e-06
    outer loop
      vertex -6.36396 -20.5061 9
      vertex -3.90442 -18.0466 0.494427
      vertex -3.74373 -17.8859 0.940456
    endloop
  endfacet
  facet normal 0.70696 -0.707254 -8.15569e-05
    outer loop
      vertex -6.36396 -20.5061 9
      vertex -3.9598 -18.1019 3.33067e-15
      vertex -3.90442 -18.0466 0.494427
    endloop
  endfacet
  facet normal 0.707113 -0.707101 0
    outer loop
      vertex -6.36396 -20.5061 -9
      vertex -3.9598 -18.1019 3.33067e-15
      vertex -6.36396 -20.5061 9
    endloop
  endfacet
  facet normal 0.707097 -0.707116 6.13966e-06
    outer loop
      vertex -3.17804 -17.3202 -1.52169
      vertex -6.36396 -20.5061 -9
      vertex -2.82843 -16.9706 -1.6
    endloop
  endfacet
  facet normal 0.707115 -0.707099 -8.75485e-06
    outer loop
      vertex -3.49343 -17.6356 -1.29443
      vertex -6.36396 -20.5061 -9
      vertex -3.17804 -17.3202 -1.52169
    endloop
  endfacet
  facet normal 0.707106 -0.707108 -1.80307e-06
    outer loop
      vertex -3.74373 -17.8859 -0.940456
      vertex -6.36396 -20.5061 -9
      vertex -3.49343 -17.6356 -1.29443
    endloop
  endfacet
  facet normal 0.707116 -0.707097 -8.90348e-06
    outer loop
      vertex -3.90442 -18.0466 -0.494427
      vertex -6.36396 -20.5061 -9
      vertex -3.74373 -17.8859 -0.940456
    endloop
  endfacet
  facet normal 0.70696 -0.707254 8.15569e-05
    outer loop
      vertex -3.9598 -18.1019 3.33067e-15
      vertex -6.36396 -20.5061 -9
      vertex -3.90442 -18.0466 -0.494427
    endloop
  endfacet
  facet normal 0.70718 -0.707033 -6.43864e-05
    outer loop
      vertex -2.47881 -16.6209 1.52169
      vertex 0.707107 -13.435 9
      vertex -2.82843 -16.9706 1.6
    endloop
  endfacet
  facet normal 0.707029 -0.707184 6.45494e-05
    outer loop
      vertex -2.16342 -16.3056 1.29443
      vertex 0.707107 -13.435 9
      vertex -2.47881 -16.6209 1.52169
    endloop
  endfacet
  facet normal 0.707119 -0.707094 -2.50547e-06
    outer loop
      vertex -1.91313 -16.0553 0.940456
      vertex 0.707107 -13.435 9
      vertex -2.16342 -16.3056 1.29443
    endloop
  endfacet
  facet normal 0.707111 -0.707103 2.9055e-06
    outer loop
      vertex -1.75243 -15.8946 0.494427
      vertex 0.707107 -13.435 9
      vertex -1.91313 -16.0553 0.940456
    endloop
  endfacet
  facet normal 0.707167 -0.707047 -2.94626e-05
    outer loop
      vertex -1.69706 -15.8392 3.33067e-15
      vertex 0.707107 -13.435 9
      vertex -1.75243 -15.8946 0.494427
    endloop
  endfacet
  facet normal 0.707167 -0.707047 2.94626e-05
    outer loop
      vertex 0.707107 -13.435 -9
      vertex -1.69706 -15.8392 3.33067e-15
      vertex -1.75243 -15.8946 -0.494427
    endloop
  endfacet
  facet normal 0.707108 -0.707105 -4.44329e-06
    outer loop
      vertex 0.707107 -13.435 -9
      vertex -2.82843 -16.9706 -1.6
      vertex -6.36396 -20.5061 -9
    endloop
  endfacet
  facet normal 0.70718 -0.707033 6.43864e-05
    outer loop
      vertex -2.82843 -16.9706 -1.6
      vertex 0.707107 -13.435 -9
      vertex -2.47881 -16.6209 -1.52169
    endloop
  endfacet
  facet normal 0.707029 -0.707184 -6.45494e-05
    outer loop
      vertex -2.47881 -16.6209 -1.52169
      vertex 0.707107 -13.435 -9
      vertex -2.16342 -16.3056 -1.29443
    endloop
  endfacet
  facet normal 0.707112 -0.707102 0
    outer loop
      vertex -1.69706 -15.8392 3.33067e-15
      vertex 0.707107 -13.435 -9
      vertex 0.707107 -13.435 9
    endloop
  endfacet
  facet normal 0.707111 -0.707103 -2.9055e-06
    outer loop
      vertex -1.91313 -16.0553 -0.940456
      vertex 0.707107 -13.435 -9
      vertex -1.75243 -15.8946 -0.494427
    endloop
  endfacet
  facet normal 0.707119 -0.707094 2.50547e-06
    outer loop
      vertex -2.16342 -16.3056 -1.29443
      vertex 0.707107 -13.435 -9
      vertex -1.91313 -16.0553 -0.940456
    endloop
  endfacet
  facet normal -0.6984 -0.698398 -0.156453
    outer loop
      vertex -1.69706 -15.8392 3.33067e-15
      vertex -8.8235 -8.8235 0.494427
      vertex -8.76812 -8.76812 0
    endloop
  endfacet
  facet normal -0.698399 -0.698396 -0.156467
    outer loop
      vertex -8.8235 -8.8235 0.494427
      vertex -1.69706 -15.8392 3.33067e-15
      vertex -1.75243 -15.8946 0.494427
    endloop
  endfacet
  facet normal 0.698394 0.698392 -0.156508
    outer loop
      vertex -3.90442 -18.0466 0.494427
      vertex -11.0309 -11.0309 0
      vertex -10.9755 -10.9755 0.494427
    endloop
  endfacet
  facet normal 0.698406 0.698416 -0.156343
    outer loop
      vertex -11.0309 -11.0309 0
      vertex -3.90442 -18.0466 0.494427
      vertex -3.9598 -18.1019 3.33067e-15
    endloop
  endfacet
  facet normal 0.110619 0.110619 -0.987688
    outer loop
      vertex -3.17804 -17.3202 1.52169
      vertex -9.8995 -9.8995 1.6
      vertex -2.82843 -16.9706 1.6
    endloop
  endfacet
  facet normal 0.110621 0.11062 -0.987687
    outer loop
      vertex -9.8995 -9.8995 1.6
      vertex -3.17804 -17.3202 1.52169
      vertex -10.2491 -10.2491 1.52169
    endloop
  endfacet
  facet normal -0.110602 -0.110602 0.987691
    outer loop
      vertex -9.54988 -9.54988 -1.52169
      vertex -2.82843 -16.9706 -1.6
      vertex -2.47881 -16.6209 -1.52169
    endloop
  endfacet
  facet normal -0.110614 -0.110614 0.987689
    outer loop
      vertex -2.82843 -16.9706 -1.6
      vertex -9.54988 -9.54988 -1.52169
      vertex -9.8995 -9.8995 -1.6
    endloop
  endfacet
  facet normal -0.321054 -0.321052 0.890983
    outer loop
      vertex -9.23449 -9.23449 -1.29443
      vertex -2.47881 -16.6209 -1.52169
      vertex -2.16342 -16.3056 -1.29443
    endloop
  endfacet
  facet normal -0.321015 -0.321017 0.891009
    outer loop
      vertex -2.47881 -16.6209 -1.52169
      vertex -9.23449 -9.23449 -1.29443
      vertex -9.54988 -9.54988 -1.52169
    endloop
  endfacet
  facet normal -0.500003 -0.500001 -0.707103
    outer loop
      vertex -2.16342 -16.3056 1.29443
      vertex -8.9842 -8.9842 0.940456
      vertex -1.91313 -16.0553 0.940456
    endloop
  endfacet
  facet normal -0.500009 -0.500006 -0.707096
    outer loop
      vertex -8.9842 -8.9842 0.940456
      vertex -2.16342 -16.3056 1.29443
      vertex -9.23449 -9.23449 1.29443
    endloop
  endfacet
  facet normal -0.630038 -0.630035 -0.453992
    outer loop
      vertex -1.75243 -15.8946 0.494427
      vertex -8.9842 -8.9842 0.940456
      vertex -8.8235 -8.8235 0.494427
    endloop
  endfacet
  facet normal -0.630038 -0.630035 -0.453992
    outer loop
      vertex -8.9842 -8.9842 0.940456
      vertex -1.75243 -15.8946 0.494427
      vertex -1.91313 -16.0553 0.940456
    endloop
  endfacet
  facet normal -0.321054 -0.321052 -0.890983
    outer loop
      vertex -2.47881 -16.6209 1.52169
      vertex -9.23449 -9.23449 1.29443
      vertex -2.16342 -16.3056 1.29443
    endloop
  endfacet
  facet normal -0.321015 -0.321017 -0.891009
    outer loop
      vertex -9.23449 -9.23449 1.29443
      vertex -2.47881 -16.6209 1.52169
      vertex -9.54988 -9.54988 1.52169
    endloop
  endfacet
  facet normal 0.499998 0.499996 -0.70711
    outer loop
      vertex -3.74373 -17.8859 0.940456
      vertex -10.5645 -10.5645 1.29443
      vertex -3.49343 -17.6356 1.29443
    endloop
  endfacet
  facet normal 0.499998 0.499996 -0.70711
    outer loop
      vertex -10.5645 -10.5645 1.29443
      vertex -3.74373 -17.8859 0.940456
      vertex -10.8148 -10.8148 0.940456
    endloop
  endfacet
  facet normal 0.630038 0.630035 -0.453992
    outer loop
      vertex -3.74373 -17.8859 0.940456
      vertex -10.9755 -10.9755 0.494427
      vertex -10.8148 -10.8148 0.940456
    endloop
  endfacet
  facet normal 0.630041 0.630039 -0.453981
    outer loop
      vertex -10.9755 -10.9755 0.494427
      vertex -3.74373 -17.8859 0.940456
      vertex -3.90442 -18.0466 0.494427
    endloop
  endfacet
  facet normal 0.321013 0.321011 -0.891012
    outer loop
      vertex -3.49343 -17.6356 1.29443
      vertex -10.2491 -10.2491 1.52169
      vertex -3.17804 -17.3202 1.52169
    endloop
  endfacet
  facet normal 0.321009 0.321008 -0.891015
    outer loop
      vertex -10.2491 -10.2491 1.52169
      vertex -3.49343 -17.6356 1.29443
      vertex -10.5645 -10.5645 1.29443
    endloop
  endfacet
  facet normal -0.110602 -0.110602 -0.987691
    outer loop
      vertex -2.82843 -16.9706 1.6
      vertex -9.54988 -9.54988 1.52169
      vertex -2.47881 -16.6209 1.52169
    endloop
  endfacet
  facet normal -0.110614 -0.110614 -0.987689
    outer loop
      vertex -9.54988 -9.54988 1.52169
      vertex -2.82843 -16.9706 1.6
      vertex -9.8995 -9.8995 1.6
    endloop
  endfacet
  facet normal -0.6984 -0.698398 0.156453
    outer loop
      vertex -8.8235 -8.8235 -0.494427
      vertex -1.69706 -15.8392 3.33067e-15
      vertex -8.76812 -8.76812 0
    endloop
  endfacet
  facet normal -0.698399 -0.698396 0.156467
    outer loop
      vertex -1.69706 -15.8392 3.33067e-15
      vertex -8.8235 -8.8235 -0.494427
      vertex -1.75243 -15.8946 -0.494427
    endloop
  endfacet
  facet normal -0.500003 -0.500001 0.707103
    outer loop
      vertex -8.9842 -8.9842 -0.940456
      vertex -2.16342 -16.3056 -1.29443
      vertex -1.91313 -16.0553 -0.940456
    endloop
  endfacet
  facet normal -0.500009 -0.500006 0.707096
    outer loop
      vertex -2.16342 -16.3056 -1.29443
      vertex -8.9842 -8.9842 -0.940456
      vertex -9.23449 -9.23449 -1.29443
    endloop
  endfacet
  facet normal -0.630038 -0.630035 0.453992
    outer loop
      vertex -8.9842 -8.9842 -0.940456
      vertex -1.75243 -15.8946 -0.494427
      vertex -8.8235 -8.8235 -0.494427
    endloop
  endfacet
  facet normal -0.630038 -0.630035 0.453992
    outer loop
      vertex -1.75243 -15.8946 -0.494427
      vertex -8.9842 -8.9842 -0.940456
      vertex -1.91313 -16.0553 -0.940456
    endloop
  endfacet
  facet normal 0.630038 0.630035 0.453992
    outer loop
      vertex -10.9755 -10.9755 -0.494427
      vertex -3.74373 -17.8859 -0.940456
      vertex -10.8148 -10.8148 -0.940456
    endloop
  endfacet
  facet normal 0.630041 0.630039 0.453981
    outer loop
      vertex -3.74373 -17.8859 -0.940456
      vertex -10.9755 -10.9755 -0.494427
      vertex -3.90442 -18.0466 -0.494427
    endloop
  endfacet
  facet normal 0.698394 0.698392 0.156508
    outer loop
      vertex -11.0309 -11.0309 0
      vertex -3.90442 -18.0466 -0.494427
      vertex -10.9755 -10.9755 -0.494427
    endloop
  endfacet
  facet normal 0.698406 0.698416 0.156343
    outer loop
      vertex -3.90442 -18.0466 -0.494427
      vertex -11.0309 -11.0309 0
      vertex -3.9598 -18.1019 3.33067e-15
    endloop
  endfacet
  facet normal 0.110619 0.110619 0.987688
    outer loop
      vertex -9.8995 -9.8995 -1.6
      vertex -3.17804 -17.3202 -1.52169
      vertex -2.82843 -16.9706 -1.6
    endloop
  endfacet
  facet normal 0.110621 0.11062 0.987687
    outer loop
      vertex -3.17804 -17.3202 -1.52169
      vertex -9.8995 -9.8995 -1.6
      vertex -10.2491 -10.2491 -1.52169
    endloop
  endfacet
  facet normal 0.499998 0.499996 0.70711
    outer loop
      vertex -10.5645 -10.5645 -1.29443
      vertex -3.74373 -17.8859 -0.940456
      vertex -3.49343 -17.6356 -1.29443
    endloop
  endfacet
  facet normal 0.499998 0.499996 0.70711
    outer loop
      vertex -3.74373 -17.8859 -0.940456
      vertex -10.5645 -10.5645 -1.29443
      vertex -10.8148 -10.8148 -0.940456
    endloop
  endfacet
  facet normal 0.321013 0.321011 0.891012
    outer loop
      vertex -10.2491 -10.2491 -1.52169
      vertex -3.49343 -17.6356 -1.29443
      vertex -3.17804 -17.3202 -1.52169
    endloop
  endfacet
  facet normal 0.321009 0.321008 0.891015
    outer loop
      vertex -3.49343 -17.6356 -1.29443
      vertex -10.2491 -10.2491 -1.52169
      vertex -10.5645 -10.5645 -1.29443
    endloop
  endfacet
  facet normal 0.707136 -0.707077 0
    outer loop
      vertex 112.006 97.8636 9
      vertex 109.602 95.4594 3.33067e-15
      vertex 112.006 97.8636 -9
    endloop
  endfacet
  facet normal 0.705997 -0.708215 0.000608212
    outer loop
      vertex 112.006 97.8636 9
      vertex 109.546 95.404 0.494427
      vertex 109.602 95.4594 3.33067e-15
    endloop
  endfacet
  facet normal 0.706715 -0.707498 0.000193207
    outer loop
      vertex 112.006 97.8636 9
      vertex 109.385 95.2433 0.940456
      vertex 109.546 95.404 0.494427
    endloop
  endfacet
  facet normal 0.707367 -0.706846 -0.000230911
    outer loop
      vertex 112.006 97.8636 9
      vertex 109.135 94.993 1.29443
      vertex 109.385 95.2433 0.940456
    endloop
  endfacet
  facet normal 0.707362 -0.706852 -0.000226603
    outer loop
      vertex 112.006 97.8636 9
      vertex 108.82 94.6777 1.52169
      vertex 109.135 94.993 1.29443
    endloop
  endfacet
  facet normal 0.706829 -0.707384 0.0002272
    outer loop
      vertex 112.006 97.8636 9
      vertex 108.47 94.328 1.6
      vertex 108.82 94.6777 1.52169
    endloop
  endfacet
  facet normal 0.707112 -0.707102 -4.30001e-05
    outer loop
      vertex 104.935 90.7925 9
      vertex 108.47 94.328 1.6
      vertex 112.006 97.8636 9
    endloop
  endfacet
  facet normal 0.70766 -0.706553 0.000480973
    outer loop
      vertex 108.47 94.328 1.6
      vertex 104.935 90.7925 9
      vertex 108.121 93.9784 1.52169
    endloop
  endfacet
  facet normal 0.70659 -0.707623 -0.000430919
    outer loop
      vertex 108.121 93.9784 1.52169
      vertex 104.935 90.7925 9
      vertex 107.805 93.663 1.29443
    endloop
  endfacet
  facet normal 0.707694 -0.706519 0.000298034
    outer loop
      vertex 107.394 93.252 0.494427
      vertex 104.935 90.7925 9
      vertex 107.339 93.1967 3.33067e-15
    endloop
  endfacet
  facet normal 0.706773 -0.707441 -0.000234706
    outer loop
      vertex 107.555 93.4127 0.940456
      vertex 104.935 90.7925 9
      vertex 107.394 93.252 0.494427
    endloop
  endfacet
  facet normal 0.707406 -0.706808 0.000176804
    outer loop
      vertex 107.805 93.663 1.29443
      vertex 104.935 90.7925 9
      vertex 107.555 93.4127 0.940456
    endloop
  endfacet
  facet normal 0.705997 -0.708215 -0.000608212
    outer loop
      vertex 109.546 95.404 -0.494427
      vertex 112.006 97.8636 -9
      vertex 109.602 95.4594 3.33067e-15
    endloop
  endfacet
  facet normal 0.706715 -0.707498 -0.000193207
    outer loop
      vertex 109.385 95.2433 -0.940456
      vertex 112.006 97.8636 -9
      vertex 109.546 95.404 -0.494427
    endloop
  endfacet
  facet normal 0.707367 -0.706846 0.000230911
    outer loop
      vertex 109.135 94.993 -1.29443
      vertex 112.006 97.8636 -9
      vertex 109.385 95.2433 -0.940456
    endloop
  endfacet
  facet normal 0.707362 -0.706852 0.000226603
    outer loop
      vertex 108.82 94.6777 -1.52169
      vertex 112.006 97.8636 -9
      vertex 109.135 94.993 -1.29443
    endloop
  endfacet
  facet normal 0.706829 -0.707384 -0.0002272
    outer loop
      vertex 108.47 94.328 -1.6
      vertex 112.006 97.8636 -9
      vertex 108.82 94.6777 -1.52169
    endloop
  endfacet
  facet normal 0.70766 -0.706553 -0.000480973
    outer loop
      vertex 104.935 90.7925 -9
      vertex 108.47 94.328 -1.6
      vertex 108.121 93.9784 -1.52169
    endloop
  endfacet
  facet normal 0.70659 -0.707623 0.000430919
    outer loop
      vertex 104.935 90.7925 -9
      vertex 108.121 93.9784 -1.52169
      vertex 107.805 93.663 -1.29443
    endloop
  endfacet
  facet normal 0.707406 -0.706808 -0.000176804
    outer loop
      vertex 104.935 90.7925 -9
      vertex 107.805 93.663 -1.29443
      vertex 107.555 93.4127 -0.940456
    endloop
  endfacet
  facet normal 0.707136 -0.707077 0
    outer loop
      vertex 104.935 90.7925 -9
      vertex 107.339 93.1967 3.33067e-15
      vertex 104.935 90.7925 9
    endloop
  endfacet
  facet normal 0.707112 -0.707102 4.30001e-05
    outer loop
      vertex 108.47 94.328 -1.6
      vertex 104.935 90.7925 -9
      vertex 112.006 97.8636 -9
    endloop
  endfacet
  facet normal 0.706773 -0.707441 0.000234706
    outer loop
      vertex 107.394 93.252 -0.494427
      vertex 104.935 90.7925 -9
      vertex 107.555 93.4127 -0.940456
    endloop
  endfacet
  facet normal 0.707694 -0.706519 -0.000298034
    outer loop
      vertex 107.339 93.1967 3.33067e-15
      vertex 104.935 90.7925 -9
      vertex 107.394 93.252 -0.494427
    endloop
  endfacet
  facet normal 0.707127 0.707087 0
    outer loop
      vertex 112.006 97.8636 9
      vertex 104.935 104.935 -9
      vertex 104.935 104.935 9
    endloop
  endfacet
  facet normal 0.707127 0.707087 0
    outer loop
      vertex 104.935 104.935 -9
      vertex 112.006 97.8636 9
      vertex 112.006 97.8636 -9
    endloop
  endfacet
  facet normal -0.698447 -0.698585 -0.155406
    outer loop
      vertex 109.602 95.4594 3.33067e-15
      vertex 102.475 102.475 0.494427
      vertex 102.53 102.53 0
    endloop
  endfacet
  facet normal -0.6983 -0.6983 -0.157335
    outer loop
      vertex 102.475 102.475 0.494427
      vertex 109.602 95.4594 3.33067e-15
      vertex 109.546 95.404 0.494427
    endloop
  endfacet
  facet normal 0.698516 0.698516 -0.155406
    outer loop
      vertex 107.394 93.252 0.494427
      vertex 100.268 100.268 0
      vertex 100.323 100.323 0.494427
    endloop
  endfacet
  facet normal 0.698485 0.698455 -0.155819
    outer loop
      vertex 100.268 100.268 0
      vertex 107.394 93.252 0.494427
      vertex 107.339 93.1967 3.33067e-15
    endloop
  endfacet
  facet normal -0.500137 -0.500158 -0.706898
    outer loop
      vertex 109.135 94.993 1.29443
      vertex 102.314 102.314 0.940456
      vertex 109.385 95.2433 0.940456
    endloop
  endfacet
  facet normal -0.500297 -0.500297 -0.706686
    outer loop
      vertex 102.314 102.314 0.940456
      vertex 109.135 94.993 1.29443
      vertex 102.064 102.064 1.29443
    endloop
  endfacet
  facet normal -0.629794 -0.629794 -0.454665
    outer loop
      vertex 109.546 95.404 0.494427
      vertex 102.314 102.314 0.940456
      vertex 102.475 102.475 0.494427
    endloop
  endfacet
  facet normal -0.629902 -0.629928 -0.454328
    outer loop
      vertex 102.314 102.314 0.940456
      vertex 109.546 95.404 0.494427
      vertex 109.385 95.2433 0.940456
    endloop
  endfacet
  facet normal -0.110546 -0.110541 -0.987705
    outer loop
      vertex 108.47 94.328 1.6
      vertex 101.749 101.749 1.52169
      vertex 108.82 94.6777 1.52169
    endloop
  endfacet
  facet normal -0.110497 -0.110497 -0.987715
    outer loop
      vertex 101.749 101.749 1.52169
      vertex 108.47 94.328 1.6
      vertex 101.399 101.399 1.6
    endloop
  endfacet
  facet normal 0.320734 0.320798 -0.891189
    outer loop
      vertex 107.805 93.663 1.29443
      vertex 101.049 101.049 1.52169
      vertex 108.121 93.9784 1.52169
    endloop
  endfacet
  facet normal 0.321332 0.321332 -0.890782
    outer loop
      vertex 101.049 101.049 1.52169
      vertex 107.805 93.663 1.29443
      vertex 100.734 100.734 1.29443
    endloop
  endfacet
  facet normal 0.500147 0.500147 -0.706898
    outer loop
      vertex 107.555 93.4127 0.940456
      vertex 100.734 100.734 1.29443
      vertex 107.805 93.663 1.29443
    endloop
  endfacet
  facet normal 0.500308 0.500287 -0.706686
    outer loop
      vertex 100.734 100.734 1.29443
      vertex 107.555 93.4127 0.940456
      vertex 100.484 100.484 0.940456
    endloop
  endfacet
  facet normal 0.110713 0.110713 -0.987667
    outer loop
      vertex 108.121 93.9784 1.52169
      vertex 101.399 101.399 1.6
      vertex 108.47 94.328 1.6
    endloop
  endfacet
  facet normal 0.110486 0.110508 -0.987715
    outer loop
      vertex 101.399 101.399 1.6
      vertex 108.121 93.9784 1.52169
      vertex 101.049 101.049 1.52169
    endloop
  endfacet
  facet normal -0.32121 -0.32121 -0.890869
    outer loop
      vertex 108.82 94.6777 1.52169
      vertex 102.064 102.064 1.29443
      vertex 109.135 94.993 1.29443
    endloop
  endfacet
  facet normal -0.321339 -0.321325 -0.890782
    outer loop
      vertex 102.064 102.064 1.29443
      vertex 108.82 94.6777 1.52169
      vertex 101.749 101.749 1.52169
    endloop
  endfacet
  facet normal 0.629807 0.62978 -0.454665
    outer loop
      vertex 107.555 93.4127 0.940456
      vertex 100.323 100.323 0.494427
      vertex 100.484 100.484 0.940456
    endloop
  endfacet
  facet normal 0.629915 0.629915 -0.454328
    outer loop
      vertex 100.323 100.323 0.494427
      vertex 107.555 93.4127 0.940456
      vertex 107.394 93.252 0.494427
    endloop
  endfacet
  facet normal -0.629794 -0.629794 0.454665
    outer loop
      vertex 102.314 102.314 -0.940456
      vertex 109.546 95.404 -0.494427
      vertex 102.475 102.475 -0.494427
    endloop
  endfacet
  facet normal -0.629902 -0.629928 0.454328
    outer loop
      vertex 109.546 95.404 -0.494427
      vertex 102.314 102.314 -0.940456
      vertex 109.385 95.2433 -0.940456
    endloop
  endfacet
  facet normal 0.320734 0.320798 0.891189
    outer loop
      vertex 101.049 101.049 -1.52169
      vertex 107.805 93.663 -1.29443
      vertex 108.121 93.9784 -1.52169
    endloop
  endfacet
  facet normal 0.321332 0.321332 0.890782
    outer loop
      vertex 107.805 93.663 -1.29443
      vertex 101.049 101.049 -1.52169
      vertex 100.734 100.734 -1.29443
    endloop
  endfacet
  facet normal 0.500147 0.500147 0.706898
    outer loop
      vertex 100.734 100.734 -1.29443
      vertex 107.555 93.4127 -0.940456
      vertex 107.805 93.663 -1.29443
    endloop
  endfacet
  facet normal 0.500308 0.500287 0.706686
    outer loop
      vertex 107.555 93.4127 -0.940456
      vertex 100.734 100.734 -1.29443
      vertex 100.484 100.484 -0.940456
    endloop
  endfacet
  facet normal -0.32121 -0.32121 0.890869
    outer loop
      vertex 102.064 102.064 -1.29443
      vertex 108.82 94.6777 -1.52169
      vertex 109.135 94.993 -1.29443
    endloop
  endfacet
  facet normal -0.321339 -0.321325 0.890782
    outer loop
      vertex 108.82 94.6777 -1.52169
      vertex 102.064 102.064 -1.29443
      vertex 101.749 101.749 -1.52169
    endloop
  endfacet
  facet normal -0.500137 -0.500158 0.706898
    outer loop
      vertex 102.314 102.314 -0.940456
      vertex 109.135 94.993 -1.29443
      vertex 109.385 95.2433 -0.940456
    endloop
  endfacet
  facet normal -0.500297 -0.500297 0.706686
    outer loop
      vertex 109.135 94.993 -1.29443
      vertex 102.314 102.314 -0.940456
      vertex 102.064 102.064 -1.29443
    endloop
  endfacet
  facet normal -0.698447 -0.698585 0.155406
    outer loop
      vertex 102.475 102.475 -0.494427
      vertex 109.602 95.4594 3.33067e-15
      vertex 102.53 102.53 0
    endloop
  endfacet
  facet normal -0.6983 -0.6983 0.157335
    outer loop
      vertex 109.602 95.4594 3.33067e-15
      vertex 102.475 102.475 -0.494427
      vertex 109.546 95.404 -0.494427
    endloop
  endfacet
  facet normal 0.698516 0.698516 0.155406
    outer loop
      vertex 100.268 100.268 0
      vertex 107.394 93.252 -0.494427
      vertex 100.323 100.323 -0.494427
    endloop
  endfacet
  facet normal 0.698485 0.698455 0.155819
    outer loop
      vertex 107.394 93.252 -0.494427
      vertex 100.268 100.268 0
      vertex 107.339 93.1967 3.33067e-15
    endloop
  endfacet
  facet normal -0.110546 -0.110541 0.987705
    outer loop
      vertex 101.749 101.749 -1.52169
      vertex 108.47 94.328 -1.6
      vertex 108.82 94.6777 -1.52169
    endloop
  endfacet
  facet normal -0.110497 -0.110497 0.987715
    outer loop
      vertex 108.47 94.328 -1.6
      vertex 101.749 101.749 -1.52169
      vertex 101.399 101.399 -1.6
    endloop
  endfacet
  facet normal 0.110713 0.110713 0.987667
    outer loop
      vertex 101.399 101.399 -1.6
      vertex 108.121 93.9784 -1.52169
      vertex 108.47 94.328 -1.6
    endloop
  endfacet
  facet normal 0.110486 0.110508 0.987715
    outer loop
      vertex 108.121 93.9784 -1.52169
      vertex 101.399 101.399 -1.6
      vertex 101.049 101.049 -1.52169
    endloop
  endfacet
  facet normal 0.629807 0.62978 0.454665
    outer loop
      vertex 100.323 100.323 -0.494427
      vertex 107.555 93.4127 -0.940456
      vertex 100.484 100.484 -0.940456
    endloop
  endfacet
  facet normal 0.629915 0.629915 0.454328
    outer loop
      vertex 107.555 93.4127 -0.940456
      vertex 100.323 100.323 -0.494427
      vertex 107.394 93.252 -0.494427
    endloop
  endfacet
endsolid OpenSCAD_Model
