solid model
  facet normal 0 1 0
    outer loop
      vertex -0.813137 -47.9244 -15
      vertex -0.813137 -47.9244 15
      vertex 0.813137 -47.9244 -15
    endloop
  endfacet
  facet normal 0 0 -1
    outer loop
      vertex -0.813137 -47.9244 -15
      vertex 0.813137 -47.9244 -15
      vertex 27.5 -57.5 -15
    endloop
  endfacet
  facet normal 0 1 -0
    outer loop
      vertex -0.813137 -47.9244 15
      vertex 0.813137 -47.9244 15
      vertex 0.813137 -47.9244 -15
    endloop
  endfacet
  facet normal -0 0 1
    outer loop
      vertex -0.813137 -47.9244 15
      vertex 27.5 -57.5 15
      vertex 0.813137 -47.9244 15
    endloop
  endfacet
  facet normal 0.770512 0.637426 0
    outer loop
      vertex -10.4768 -42.6118 -15
      vertex -10.4768 -42.6118 15
      vertex -9.44014 -43.8649 15
    endloop
  endfacet
  facet normal 0.770512 0.637426 0
    outer loop
      vertex -10.4768 -42.6118 -15
      vertex -9.44014 -43.8649 15
      vertex -9.44014 -43.8649 -15
    endloop
  endfacet
  facet normal 0.844327 0.535829 0
    outer loop
      vertex -11.3482 -41.2387 -15
      vertex -10.4768 -42.6118 15
      vertex -10.4768 -42.6118 -15
    endloop
  endfacet
  facet normal 0.844327 0.535829 0
    outer loop
      vertex -11.3482 -41.2387 -15
      vertex -11.3482 -41.2387 15
      vertex -10.4768 -42.6118 15
    endloop
  endfacet
  facet normal 0.904835 0.425762 0
    outer loop
      vertex -12.0406 -39.7672 -15
      vertex -11.3482 -41.2387 15
      vertex -11.3482 -41.2387 -15
    endloop
  endfacet
  facet normal 0.904835 0.425762 0
    outer loop
      vertex -12.0406 -39.7672 -15
      vertex -12.0406 -39.7672 15
      vertex -11.3482 -41.2387 15
    endloop
  endfacet
  facet normal 0.951048 0.309043 0
    outer loop
      vertex -12.5432 -38.2205 -15
      vertex -12.0406 -39.7672 15
      vertex -12.0406 -39.7672 -15
    endloop
  endfacet
  facet normal 0.951048 0.309043 0
    outer loop
      vertex -12.5432 -38.2205 -15
      vertex -12.5432 -38.2205 15
      vertex -12.0406 -39.7672 15
    endloop
  endfacet
  facet normal 0.98229 0.187369 0
    outer loop
      vertex -12.8479 -36.6231 -15
      vertex -12.5432 -38.2205 15
      vertex -12.5432 -38.2205 -15
    endloop
  endfacet
  facet normal 0.98229 0.187369 0
    outer loop
      vertex -12.8479 -36.6231 -15
      vertex -12.8479 -36.6231 15
      vertex -12.5432 -38.2205 15
    endloop
  endfacet
  facet normal 0.998027 0.0627802 0
    outer loop
      vertex -12.95 -35 -15
      vertex -12.8479 -36.6231 15
      vertex -12.8479 -36.6231 -15
    endloop
  endfacet
  facet normal 0.998021 -0.0628753 0
    outer loop
      vertex -12.95 -35 -15
      vertex -12.9185 -34.5 -15
      vertex -12.95 -35 15
    endloop
  endfacet
  facet normal 0.998027 0.0627802 0
    outer loop
      vertex -12.95 -35 -15
      vertex -12.95 -35 15
      vertex -12.8479 -36.6231 15
    endloop
  endfacet
  facet normal 0.998021 -0.0628753 0
    outer loop
      vertex -12.95 -35 15
      vertex -12.9185 -34.5 -15
      vertex -12.9185 -34.5 15
    endloop
  endfacet
  facet normal 1 0 0
    outer loop
      vertex -18 -13.4 2.9754e-15
      vertex -18 -7.5 -15
      vertex -18 -7.5 15
    endloop
  endfacet
  facet normal 1 -0 0
    outer loop
      vertex -18 -13.4783 -0.494427
      vertex -18 -7.5 -15
      vertex -18 -13.4 2.9754e-15
    endloop
  endfacet
  facet normal 1 0 0
    outer loop
      vertex -18 -13.4783 0.494427
      vertex -18 -13.4 2.9754e-15
      vertex -18 -7.5 15
    endloop
  endfacet
  facet normal 1 -0 0
    outer loop
      vertex -18 -13.7056 -0.940456
      vertex -18 -7.5 -15
      vertex -18 -13.4783 -0.494427
    endloop
  endfacet
  facet normal 1 0 0
    outer loop
      vertex -18 -13.7056 0.940456
      vertex -18 -13.4783 0.494427
      vertex -18 -7.5 15
    endloop
  endfacet
  facet normal 1 -0 0
    outer loop
      vertex -18 -14.0595 -1.29443
      vertex -18 -7.5 -15
      vertex -18 -13.7056 -0.940456
    endloop
  endfacet
  facet normal 1 0 0
    outer loop
      vertex -18 -14.0595 1.29443
      vertex -18 -13.7056 0.940456
      vertex -18 -7.5 15
    endloop
  endfacet
  facet normal 1 -0 0
    outer loop
      vertex -18 -14.5056 -1.52169
      vertex -18 -7.5 -15
      vertex -18 -14.0595 -1.29443
    endloop
  endfacet
  facet normal 1 0 0
    outer loop
      vertex -18 -14.5056 1.52169
      vertex -18 -14.0595 1.29443
      vertex -18 -7.5 15
    endloop
  endfacet
  facet normal 1 -0 0
    outer loop
      vertex -18 -15 -1.6
      vertex -18 -7.5 -15
      vertex -18 -14.5056 -1.52169
    endloop
  endfacet
  facet normal 1 0 0
    outer loop
      vertex -18 -15 1.6
      vertex -18 -14.5056 1.52169
      vertex -18 -7.5 15
    endloop
  endfacet
  facet normal 1 0 0
    outer loop
      vertex -18 -15.4944 -1.52169
      vertex -18 -7.5 -15
      vertex -18 -15 -1.6
    endloop
  endfacet
  facet normal 1 0 0
    outer loop
      vertex -18 -15.4944 1.52169
      vertex -18 -15 1.6
      vertex -18 -7.5 15
    endloop
  endfacet
  facet normal 0 0 -1
    outer loop
      vertex -18 -34.5 -15
      vertex -12.0406 -39.7672 -15
      vertex -11.3482 -41.2387 -15
    endloop
  endfacet
  facet normal 0 0 -1
    outer loop
      vertex -18 -34.5 -15
      vertex -12.5432 -38.2205 -15
      vertex -12.0406 -39.7672 -15
    endloop
  endfacet
  facet normal 0 0 -1
    outer loop
      vertex -18 -34.5 -15
      vertex -12.8479 -36.6231 -15
      vertex -12.5432 -38.2205 -15
    endloop
  endfacet
  facet normal -0 0 -1
    outer loop
      vertex -18 -34.5 -15
      vertex -12.9185 -34.5 -15
      vertex -12.95 -35 -15
    endloop
  endfacet
  facet normal 0 0 -1
    outer loop
      vertex -18 -34.5 -15
      vertex -12.95 -35 -15
      vertex -12.8479 -36.6231 -15
    endloop
  endfacet
  facet normal 1 0 0
    outer loop
      vertex -18 -34.5 -15
      vertex -18 -15.4944 -1.52169
      vertex -18 -15.9405 -1.29443
    endloop
  endfacet
  facet normal 1 0 0
    outer loop
      vertex -18 -34.5 -15
      vertex -18 -15.9405 -1.29443
      vertex -18 -16.2944 -0.940456
    endloop
  endfacet
  facet normal 1 0 0
    outer loop
      vertex -18 -34.5 -15
      vertex -18 -16.2944 -0.940456
      vertex -18 -16.5217 -0.494427
    endloop
  endfacet
  facet normal 1 0 0
    outer loop
      vertex -18 -34.5 -15
      vertex -18 -16.5217 -0.494427
      vertex -18 -16.6 3.68594e-15
    endloop
  endfacet
  facet normal 1 0 0
    outer loop
      vertex -18 -34.5 -15
      vertex -18 -16.6 3.68594e-15
      vertex -18 -34.5 15
    endloop
  endfacet
  facet normal 0 1 0
    outer loop
      vertex -18 -34.5 -15
      vertex -18 -34.5 15
      vertex -12.9185 -34.5 -15
    endloop
  endfacet
  facet normal 1 0 0
    outer loop
      vertex -18 -34.5 -15
      vertex -18 -7.5 -15
      vertex -18 -15.4944 -1.52169
    endloop
  endfacet
  facet normal 0 0 1
    outer loop
      vertex -18 -34.5 15
      vertex -11.3482 -41.2387 15
      vertex -12.0406 -39.7672 15
    endloop
  endfacet
  facet normal 0 0 1
    outer loop
      vertex -18 -34.5 15
      vertex -12.0406 -39.7672 15
      vertex -12.5432 -38.2205 15
    endloop
  endfacet
  facet normal 0 0 1
    outer loop
      vertex -18 -34.5 15
      vertex -12.5432 -38.2205 15
      vertex -12.8479 -36.6231 15
    endloop
  endfacet
  facet normal 0 0 1
    outer loop
      vertex -18 -34.5 15
      vertex -12.8479 -36.6231 15
      vertex -12.95 -35 15
    endloop
  endfacet
  facet normal 0 1 -0
    outer loop
      vertex -18 -34.5 15
      vertex -12.9185 -34.5 15
      vertex -12.9185 -34.5 -15
    endloop
  endfacet
  facet normal 0 0 1
    outer loop
      vertex -18 -34.5 15
      vertex -12.95 -35 15
      vertex -12.9185 -34.5 15
    endloop
  endfacet
  facet normal 1 -0 0
    outer loop
      vertex -18 -34.5 15
      vertex -18 -15.4944 1.52169
      vertex -18 -7.5 15
    endloop
  endfacet
  facet normal 1 0 0
    outer loop
      vertex -18 -34.5 15
      vertex -18 -15.9405 1.29443
      vertex -18 -15.4944 1.52169
    endloop
  endfacet
  facet normal 1 0 0
    outer loop
      vertex -18 -34.5 15
      vertex -18 -16.2944 0.940456
      vertex -18 -15.9405 1.29443
    endloop
  endfacet
  facet normal 1 0 0
    outer loop
      vertex -18 -34.5 15
      vertex -18 -16.5217 0.494427
      vertex -18 -16.2944 0.940456
    endloop
  endfacet
  facet normal 1 0 0
    outer loop
      vertex -18 -34.5 15
      vertex -18 -16.6 3.68594e-15
      vertex -18 -16.5217 0.494427
    endloop
  endfacet
  facet normal 0.125317 0.992117 0
    outer loop
      vertex -2.42659 -47.7206 -15
      vertex -2.42659 -47.7206 15
      vertex -0.813137 -47.9244 -15
    endloop
  endfacet
  facet normal 0.125317 0.992117 -0
    outer loop
      vertex -2.42659 -47.7206 15
      vertex -0.813137 -47.9244 15
      vertex -0.813137 -47.9244 -15
    endloop
  endfacet
  facet normal 0 -0.987691 -0.156416
    outer loop
      vertex -27.5 -13.4 2.9754e-15
      vertex -18 -13.4 2.9754e-15
      vertex -18 -13.4783 0.494427
    endloop
  endfacet
  facet normal -1 0 0
    outer loop
      vertex -27.5 -13.4 2.9754e-15
      vertex -27.5 -7.5 15
      vertex -27.5 -7.5 -15
    endloop
  endfacet
  facet normal 0 -0.987691 0.156416
    outer loop
      vertex -27.5 -13.4783 -0.494427
      vertex -18 -13.4 2.9754e-15
      vertex -27.5 -13.4 2.9754e-15
    endloop
  endfacet
  facet normal 0 -0.987691 0.156416
    outer loop
      vertex -27.5 -13.4783 -0.494427
      vertex -18 -13.4783 -0.494427
      vertex -18 -13.4 2.9754e-15
    endloop
  endfacet
  facet normal -1 0 0
    outer loop
      vertex -27.5 -13.4783 -0.494427
      vertex -27.5 -13.4 2.9754e-15
      vertex -27.5 -7.5 -15
    endloop
  endfacet
  facet normal 0 -0.890977 -0.454049
    outer loop
      vertex -27.5 -13.4783 0.494427
      vertex -18 -13.4783 0.494427
      vertex -18 -13.7056 0.940456
    endloop
  endfacet
  facet normal 0 -0.987691 -0.156416
    outer loop
      vertex -27.5 -13.4783 0.494427
      vertex -27.5 -13.4 2.9754e-15
      vertex -18 -13.4783 0.494427
    endloop
  endfacet
  facet normal -1 0 0
    outer loop
      vertex -27.5 -13.4783 0.494427
      vertex -27.5 -7.5 15
      vertex -27.5 -13.4 2.9754e-15
    endloop
  endfacet
  facet normal 0 -0.890977 0.454049
    outer loop
      vertex -27.5 -13.7056 -0.940456
      vertex -18 -13.4783 -0.494427
      vertex -27.5 -13.4783 -0.494427
    endloop
  endfacet
  facet normal 0 -0.890977 0.454049
    outer loop
      vertex -27.5 -13.7056 -0.940456
      vertex -18 -13.7056 -0.940456
      vertex -18 -13.4783 -0.494427
    endloop
  endfacet
  facet normal -1 0 0
    outer loop
      vertex -27.5 -13.7056 -0.940456
      vertex -27.5 -13.4783 -0.494427
      vertex -27.5 -7.5 -15
    endloop
  endfacet
  facet normal 0 -0.707181 -0.707033
    outer loop
      vertex -27.5 -13.7056 0.940456
      vertex -18 -13.7056 0.940456
      vertex -18 -14.0595 1.29443
    endloop
  endfacet
  facet normal 0 -0.890977 -0.454049
    outer loop
      vertex -27.5 -13.7056 0.940456
      vertex -27.5 -13.4783 0.494427
      vertex -18 -13.7056 0.940456
    endloop
  endfacet
  facet normal -1 0 0
    outer loop
      vertex -27.5 -13.7056 0.940456
      vertex -27.5 -7.5 15
      vertex -27.5 -13.4783 0.494427
    endloop
  endfacet
  facet normal 0 -0.707181 0.707033
    outer loop
      vertex -27.5 -14.0595 -1.29443
      vertex -18 -13.7056 -0.940456
      vertex -27.5 -13.7056 -0.940456
    endloop
  endfacet
  facet normal 0 -0.707181 0.707033
    outer loop
      vertex -27.5 -14.0595 -1.29443
      vertex -18 -14.0595 -1.29443
      vertex -18 -13.7056 -0.940456
    endloop
  endfacet
  facet normal 0 -0.453928 0.891038
    outer loop
      vertex -27.5 -14.0595 -1.29443
      vertex -18 -14.5056 -1.52169
      vertex -18 -14.0595 -1.29443
    endloop
  endfacet
  facet normal -1 0 0
    outer loop
      vertex -27.5 -14.0595 -1.29443
      vertex -27.5 -13.7056 -0.940456
      vertex -27.5 -7.5 -15
    endloop
  endfacet
  facet normal 0 -0.707181 -0.707033
    outer loop
      vertex -27.5 -14.0595 1.29443
      vertex -27.5 -13.7056 0.940456
      vertex -18 -14.0595 1.29443
    endloop
  endfacet
  facet normal -1 0 0
    outer loop
      vertex -27.5 -14.0595 1.29443
      vertex -27.5 -7.5 15
      vertex -27.5 -13.7056 0.940456
    endloop
  endfacet
  facet normal 0 -0.453928 0.891038
    outer loop
      vertex -27.5 -14.5056 -1.52169
      vertex -18 -14.5056 -1.52169
      vertex -27.5 -14.0595 -1.29443
    endloop
  endfacet
  facet normal 0 -0.156444 0.987687
    outer loop
      vertex -27.5 -14.5056 -1.52169
      vertex -18 -15 -1.6
      vertex -18 -14.5056 -1.52169
    endloop
  endfacet
  facet normal -1 0 0
    outer loop
      vertex -27.5 -14.5056 -1.52169
      vertex -27.5 -14.0595 -1.29443
      vertex -27.5 -7.5 -15
    endloop
  endfacet
  facet normal 0 -0.453928 -0.891038
    outer loop
      vertex -27.5 -14.5056 1.52169
      vertex -18 -14.0595 1.29443
      vertex -18 -14.5056 1.52169
    endloop
  endfacet
  facet normal -0 -0.453928 -0.891038
    outer loop
      vertex -27.5 -14.5056 1.52169
      vertex -27.5 -14.0595 1.29443
      vertex -18 -14.0595 1.29443
    endloop
  endfacet
  facet normal -1 0 0
    outer loop
      vertex -27.5 -14.5056 1.52169
      vertex -27.5 -7.5 15
      vertex -27.5 -14.0595 1.29443
    endloop
  endfacet
  facet normal 0 -0.156444 0.987687
    outer loop
      vertex -27.5 -15 -1.6
      vertex -18 -15 -1.6
      vertex -27.5 -14.5056 -1.52169
    endloop
  endfacet
  facet normal -0 0.156444 0.987687
    outer loop
      vertex -27.5 -15 -1.6
      vertex -18 -15.4944 -1.52169
      vertex -18 -15 -1.6
    endloop
  endfacet
  facet normal -1 0 0
    outer loop
      vertex -27.5 -15 -1.6
      vertex -27.5 -14.5056 -1.52169
      vertex -27.5 -7.5 -15
    endloop
  endfacet
  facet normal 0 -0.156444 -0.987687
    outer loop
      vertex -27.5 -15 1.6
      vertex -18 -14.5056 1.52169
      vertex -18 -15 1.6
    endloop
  endfacet
  facet normal -0 -0.156444 -0.987687
    outer loop
      vertex -27.5 -15 1.6
      vertex -27.5 -14.5056 1.52169
      vertex -18 -14.5056 1.52169
    endloop
  endfacet
  facet normal -1 0 0
    outer loop
      vertex -27.5 -15 1.6
      vertex -27.5 -7.5 15
      vertex -27.5 -14.5056 1.52169
    endloop
  endfacet
  facet normal 0 0.156444 0.987687
    outer loop
      vertex -27.5 -15.4944 -1.52169
      vertex -18 -15.4944 -1.52169
      vertex -27.5 -15 -1.6
    endloop
  endfacet
  facet normal -0 0.453928 0.891038
    outer loop
      vertex -27.5 -15.4944 -1.52169
      vertex -18 -15.9405 -1.29443
      vertex -18 -15.4944 -1.52169
    endloop
  endfacet
  facet normal -1 0 0
    outer loop
      vertex -27.5 -15.4944 -1.52169
      vertex -27.5 -15 -1.6
      vertex -27.5 -7.5 -15
    endloop
  endfacet
  facet normal 0 0.156444 -0.987687
    outer loop
      vertex -27.5 -15.4944 1.52169
      vertex -18 -15 1.6
      vertex -18 -15.4944 1.52169
    endloop
  endfacet
  facet normal 0 0.156444 -0.987687
    outer loop
      vertex -27.5 -15.4944 1.52169
      vertex -27.5 -15 1.6
      vertex -18 -15 1.6
    endloop
  endfacet
  facet normal -1 0 0
    outer loop
      vertex -27.5 -15.4944 1.52169
      vertex -27.5 -7.5 15
      vertex -27.5 -15 1.6
    endloop
  endfacet
  facet normal 0 0.453928 0.891038
    outer loop
      vertex -27.5 -15.9405 -1.29443
      vertex -18 -15.9405 -1.29443
      vertex -27.5 -15.4944 -1.52169
    endloop
  endfacet
  facet normal -1 0 0
    outer loop
      vertex -27.5 -15.9405 -1.29443
      vertex -27.5 -15.4944 -1.52169
      vertex -27.5 -7.5 -15
    endloop
  endfacet
  facet normal 0 0.453928 -0.891038
    outer loop
      vertex -27.5 -15.9405 1.29443
      vertex -18 -15.4944 1.52169
      vertex -18 -15.9405 1.29443
    endloop
  endfacet
  facet normal 0 0.707181 -0.707033
    outer loop
      vertex -27.5 -15.9405 1.29443
      vertex -18 -15.9405 1.29443
      vertex -18 -16.2944 0.940456
    endloop
  endfacet
  facet normal 0 0.453928 -0.891038
    outer loop
      vertex -27.5 -15.9405 1.29443
      vertex -27.5 -15.4944 1.52169
      vertex -18 -15.4944 1.52169
    endloop
  endfacet
  facet normal -1 0 0
    outer loop
      vertex -27.5 -15.9405 1.29443
      vertex -27.5 -7.5 15
      vertex -27.5 -15.4944 1.52169
    endloop
  endfacet
  facet normal 0 0.707181 0.707033
    outer loop
      vertex -27.5 -16.2944 -0.940456
      vertex -18 -15.9405 -1.29443
      vertex -27.5 -15.9405 -1.29443
    endloop
  endfacet
  facet normal 0 0.707181 0.707033
    outer loop
      vertex -27.5 -16.2944 -0.940456
      vertex -18 -16.2944 -0.940456
      vertex -18 -15.9405 -1.29443
    endloop
  endfacet
  facet normal 0 0.890977 -0.454049
    outer loop
      vertex -27.5 -16.2944 0.940456
      vertex -18 -16.2944 0.940456
      vertex -18 -16.5217 0.494427
    endloop
  endfacet
  facet normal 0 0.707181 -0.707033
    outer loop
      vertex -27.5 -16.2944 0.940456
      vertex -27.5 -15.9405 1.29443
      vertex -18 -16.2944 0.940456
    endloop
  endfacet
  facet normal 0 0.890977 0.454049
    outer loop
      vertex -27.5 -16.5217 -0.494427
      vertex -18 -16.2944 -0.940456
      vertex -27.5 -16.2944 -0.940456
    endloop
  endfacet
  facet normal 0 0.890977 0.454049
    outer loop
      vertex -27.5 -16.5217 -0.494427
      vertex -18 -16.5217 -0.494427
      vertex -18 -16.2944 -0.940456
    endloop
  endfacet
  facet normal 0 0.987691 -0.156416
    outer loop
      vertex -27.5 -16.5217 0.494427
      vertex -18 -16.5217 0.494427
      vertex -18 -16.6 3.68594e-15
    endloop
  endfacet
  facet normal 0 0.890977 -0.454049
    outer loop
      vertex -27.5 -16.5217 0.494427
      vertex -27.5 -16.2944 0.940456
      vertex -18 -16.5217 0.494427
    endloop
  endfacet
  facet normal 0 0.987691 0.156416
    outer loop
      vertex -27.5 -16.6 3.68594e-15
      vertex -18 -16.5217 -0.494427
      vertex -27.5 -16.5217 -0.494427
    endloop
  endfacet
  facet normal 0 0.987691 0.156416
    outer loop
      vertex -27.5 -16.6 3.68594e-15
      vertex -18 -16.6 3.68594e-15
      vertex -18 -16.5217 -0.494427
    endloop
  endfacet
  facet normal 0 0.987691 -0.156416
    outer loop
      vertex -27.5 -16.6 3.68594e-15
      vertex -27.5 -16.5217 0.494427
      vertex -18 -16.6 3.68594e-15
    endloop
  endfacet
  facet normal 0 0 -1
    outer loop
      vertex -27.5 -57.5 -15
      vertex -0.813137 -47.9244 -15
      vertex 27.5 -57.5 -15
    endloop
  endfacet
  facet normal 0 0 -1
    outer loop
      vertex -27.5 -57.5 -15
      vertex -10.4768 -42.6118 -15
      vertex -9.44014 -43.8649 -15
    endloop
  endfacet
  facet normal 0 0 -1
    outer loop
      vertex -27.5 -57.5 -15
      vertex -11.3482 -41.2387 -15
      vertex -10.4768 -42.6118 -15
    endloop
  endfacet
  facet normal -0 0 -1
    outer loop
      vertex -27.5 -57.5 -15
      vertex -18 -34.5 -15
      vertex -11.3482 -41.2387 -15
    endloop
  endfacet
  facet normal -0 0 -1
    outer loop
      vertex -27.5 -57.5 -15
      vertex -2.42659 -47.7206 -15
      vertex -0.813137 -47.9244 -15
    endloop
  endfacet
  facet normal -1 0 0
    outer loop
      vertex -27.5 -57.5 -15
      vertex -27.5 -15.9405 -1.29443
      vertex -27.5 -7.5 -15
    endloop
  endfacet
  facet normal -1 -0 0
    outer loop
      vertex -27.5 -57.5 -15
      vertex -27.5 -16.2944 -0.940456
      vertex -27.5 -15.9405 -1.29443
    endloop
  endfacet
  facet normal -1 -0 0
    outer loop
      vertex -27.5 -57.5 -15
      vertex -27.5 -16.5217 -0.494427
      vertex -27.5 -16.2944 -0.940456
    endloop
  endfacet
  facet normal -1 -0 0
    outer loop
      vertex -27.5 -57.5 -15
      vertex -27.5 -16.6 3.68594e-15
      vertex -27.5 -16.5217 -0.494427
    endloop
  endfacet
  facet normal -1 0 0
    outer loop
      vertex -27.5 -57.5 -15
      vertex -27.5 -57.5 15
      vertex -27.5 -16.6 3.68594e-15
    endloop
  endfacet
  facet normal 0 0 -1
    outer loop
      vertex -27.5 -57.5 -15
      vertex -27.5 -7.5 -15
      vertex -18 -34.5 -15
    endloop
  endfacet
  facet normal -0 0 -1
    outer loop
      vertex -27.5 -57.5 -15
      vertex -4.00177 -47.3162 -15
      vertex -2.42659 -47.7206 -15
    endloop
  endfacet
  facet normal 0 0 -1
    outer loop
      vertex -27.5 -57.5 -15
      vertex -5.51384 -46.7175 -15
      vertex -4.00177 -47.3162 -15
    endloop
  endfacet
  facet normal 0 0 -1
    outer loop
      vertex -27.5 -57.5 -15
      vertex -6.93896 -45.934 -15
      vertex -5.51384 -46.7175 -15
    endloop
  endfacet
  facet normal 0 0 -1
    outer loop
      vertex -27.5 -57.5 -15
      vertex -8.25464 -44.9781 -15
      vertex -6.93896 -45.934 -15
    endloop
  endfacet
  facet normal 0 0 -1
    outer loop
      vertex -27.5 -57.5 -15
      vertex -9.44014 -43.8649 -15
      vertex -8.25464 -44.9781 -15
    endloop
  endfacet
  facet normal 0 -1 -0
    outer loop
      vertex -27.5 -57.5 -15
      vertex 27.5 -57.5 -15
      vertex 27.5 -57.5 15
    endloop
  endfacet
  facet normal 0 -1 0
    outer loop
      vertex -27.5 -57.5 -15
      vertex 27.5 -57.5 15
      vertex -27.5 -57.5 15
    endloop
  endfacet
  facet normal 0 0 1
    outer loop
      vertex -27.5 -57.5 15
      vertex -0.813137 -47.9244 15
      vertex -2.42659 -47.7206 15
    endloop
  endfacet
  facet normal 0 0 1
    outer loop
      vertex -27.5 -57.5 15
      vertex -10.4768 -42.6118 15
      vertex -11.3482 -41.2387 15
    endloop
  endfacet
  facet normal 0 0 1
    outer loop
      vertex -27.5 -57.5 15
      vertex -11.3482 -41.2387 15
      vertex -18 -34.5 15
    endloop
  endfacet
  facet normal 0 0 1
    outer loop
      vertex -27.5 -57.5 15
      vertex -18 -34.5 15
      vertex -27.5 -7.5 15
    endloop
  endfacet
  facet normal 0 0 1
    outer loop
      vertex -27.5 -57.5 15
      vertex -2.42659 -47.7206 15
      vertex -4.00177 -47.3162 15
    endloop
  endfacet
  facet normal -1 0 0
    outer loop
      vertex -27.5 -57.5 15
      vertex -27.5 -15.9405 1.29443
      vertex -27.5 -16.2944 0.940456
    endloop
  endfacet
  facet normal -1 0 0
    outer loop
      vertex -27.5 -57.5 15
      vertex -27.5 -16.2944 0.940456
      vertex -27.5 -16.5217 0.494427
    endloop
  endfacet
  facet normal -1 0 0
    outer loop
      vertex -27.5 -57.5 15
      vertex -27.5 -16.5217 0.494427
      vertex -27.5 -16.6 3.68594e-15
    endloop
  endfacet
  facet normal -1 0 0
    outer loop
      vertex -27.5 -57.5 15
      vertex -27.5 -7.5 15
      vertex -27.5 -15.9405 1.29443
    endloop
  endfacet
  facet normal 0 0 1
    outer loop
      vertex -27.5 -57.5 15
      vertex -4.00177 -47.3162 15
      vertex -5.51384 -46.7175 15
    endloop
  endfacet
  facet normal 0 0 1
    outer loop
      vertex -27.5 -57.5 15
      vertex -5.51384 -46.7175 15
      vertex -6.93896 -45.934 15
    endloop
  endfacet
  facet normal 0 0 1
    outer loop
      vertex -27.5 -57.5 15
      vertex -6.93896 -45.934 15
      vertex -8.25464 -44.9781 15
    endloop
  endfacet
  facet normal 0 0 1
    outer loop
      vertex -27.5 -57.5 15
      vertex -8.25464 -44.9781 15
      vertex -9.44014 -43.8649 15
    endloop
  endfacet
  facet normal 0 0 1
    outer loop
      vertex -27.5 -57.5 15
      vertex -9.44014 -43.8649 15
      vertex -10.4768 -42.6118 15
    endloop
  endfacet
  facet normal 0 0 1
    outer loop
      vertex -27.5 -57.5 15
      vertex 27.5 -57.5 15
      vertex -0.813137 -47.9244 15
    endloop
  endfacet
  facet normal 0 0 -1
    outer loop
      vertex -27.5 -7.5 -15
      vertex -18 -7.5 -15
      vertex -18 -34.5 -15
    endloop
  endfacet
  facet normal 0 1 0
    outer loop
      vertex -27.5 -7.5 -15
      vertex -27.5 -7.5 15
      vertex -18 -7.5 -15
    endloop
  endfacet
  facet normal 0 0 1
    outer loop
      vertex -27.5 -7.5 15
      vertex -18 -34.5 15
      vertex -18 -7.5 15
    endloop
  endfacet
  facet normal 0 1 -0
    outer loop
      vertex -27.5 -7.5 15
      vertex -18 -7.5 15
      vertex -18 -7.5 -15
    endloop
  endfacet
  facet normal 0.248668 0.968589 0
    outer loop
      vertex -4.00177 -47.3162 -15
      vertex -4.00177 -47.3162 15
      vertex -2.42659 -47.7206 -15
    endloop
  endfacet
  facet normal 0.248668 0.968589 -0
    outer loop
      vertex -4.00177 -47.3162 15
      vertex -2.42659 -47.7206 15
      vertex -2.42659 -47.7206 -15
    endloop
  endfacet
  facet normal 0.36814 0.92977 0
    outer loop
      vertex -5.51384 -46.7175 -15
      vertex -5.51384 -46.7175 15
      vertex -4.00177 -47.3162 -15
    endloop
  endfacet
  facet normal 0.36814 0.92977 -0
    outer loop
      vertex -5.51384 -46.7175 15
      vertex -4.00177 -47.3162 15
      vertex -4.00177 -47.3162 -15
    endloop
  endfacet
  facet normal 0.48177 0.876298 0
    outer loop
      vertex -6.93896 -45.934 -15
      vertex -6.93896 -45.934 15
      vertex -5.51384 -46.7175 -15
    endloop
  endfacet
  facet normal 0.48177 0.876298 -0
    outer loop
      vertex -6.93896 -45.934 15
      vertex -5.51384 -46.7175 15
      vertex -5.51384 -46.7175 -15
    endloop
  endfacet
  facet normal 0.587786 0.809016 0
    outer loop
      vertex -8.25464 -44.9781 -15
      vertex -8.25464 -44.9781 15
      vertex -6.93896 -45.934 -15
    endloop
  endfacet
  facet normal 0.587786 0.809016 -0
    outer loop
      vertex -8.25464 -44.9781 15
      vertex -6.93896 -45.934 15
      vertex -6.93896 -45.934 -15
    endloop
  endfacet
  facet normal 0.684528 0.728987 0
    outer loop
      vertex -9.44014 -43.8649 -15
      vertex -9.44014 -43.8649 15
      vertex -8.25464 -44.9781 -15
    endloop
  endfacet
  facet normal 0.684528 0.728987 -0
    outer loop
      vertex -9.44014 -43.8649 15
      vertex -8.25464 -44.9781 15
      vertex -8.25464 -44.9781 -15
    endloop
  endfacet
  facet normal -0.125317 0.992117 0
    outer loop
      vertex 0.813137 -47.9244 -15
      vertex 0.813137 -47.9244 15
      vertex 2.42659 -47.7206 -15
    endloop
  endfacet
  facet normal 0 0 -1
    outer loop
      vertex 0.813137 -47.9244 -15
      vertex 2.42659 -47.7206 -15
      vertex 27.5 -57.5 -15
    endloop
  endfacet
  facet normal -0.125317 0.992117 0
    outer loop
      vertex 0.813137 -47.9244 15
      vertex 2.42659 -47.7206 15
      vertex 2.42659 -47.7206 -15
    endloop
  endfacet
  facet normal -0 0 1
    outer loop
      vertex 0.813137 -47.9244 15
      vertex 27.5 -57.5 15
      vertex 2.42659 -47.7206 15
    endloop
  endfacet
  facet normal -0.844327 0.535829 0
    outer loop
      vertex 10.4768 -42.6118 -15
      vertex 10.4768 -42.6118 15
      vertex 11.3482 -41.2387 15
    endloop
  endfacet
  facet normal 0 0 -1
    outer loop
      vertex 10.4768 -42.6118 -15
      vertex 11.3482 -41.2387 -15
      vertex 27.5 -57.5 -15
    endloop
  endfacet
  facet normal -0.844327 0.535829 0
    outer loop
      vertex 10.4768 -42.6118 -15
      vertex 11.3482 -41.2387 15
      vertex 11.3482 -41.2387 -15
    endloop
  endfacet
  facet normal -0 0 1
    outer loop
      vertex 10.4768 -42.6118 15
      vertex 27.5 -57.5 15
      vertex 11.3482 -41.2387 15
    endloop
  endfacet
  facet normal -0.904835 0.425762 0
    outer loop
      vertex 11.3482 -41.2387 -15
      vertex 11.3482 -41.2387 15
      vertex 12.0406 -39.7672 15
    endloop
  endfacet
  facet normal 0 0 -1
    outer loop
      vertex 11.3482 -41.2387 -15
      vertex 12.0406 -39.7672 -15
      vertex 18 -34.5 -15
    endloop
  endfacet
  facet normal -0.904835 0.425762 0
    outer loop
      vertex 11.3482 -41.2387 -15
      vertex 12.0406 -39.7672 15
      vertex 12.0406 -39.7672 -15
    endloop
  endfacet
  facet normal 0 0 -1
    outer loop
      vertex 11.3482 -41.2387 -15
      vertex 18 -34.5 -15
      vertex 27.5 -57.5 -15
    endloop
  endfacet
  facet normal 0 0 1
    outer loop
      vertex 11.3482 -41.2387 15
      vertex 18 -34.5 15
      vertex 12.0406 -39.7672 15
    endloop
  endfacet
  facet normal 0 0 1
    outer loop
      vertex 11.3482 -41.2387 15
      vertex 27.5 -57.5 15
      vertex 18 -34.5 15
    endloop
  endfacet
  facet normal -0.951048 0.309043 0
    outer loop
      vertex 12.0406 -39.7672 -15
      vertex 12.0406 -39.7672 15
      vertex 12.5432 -38.2205 15
    endloop
  endfacet
  facet normal 0 0 -1
    outer loop
      vertex 12.0406 -39.7672 -15
      vertex 12.5432 -38.2205 -15
      vertex 18 -34.5 -15
    endloop
  endfacet
  facet normal -0.951048 0.309043 0
    outer loop
      vertex 12.0406 -39.7672 -15
      vertex 12.5432 -38.2205 15
      vertex 12.5432 -38.2205 -15
    endloop
  endfacet
  facet normal 0 0 1
    outer loop
      vertex 12.0406 -39.7672 15
      vertex 18 -34.5 15
      vertex 12.5432 -38.2205 15
    endloop
  endfacet
  facet normal -0.98229 0.187369 0
    outer loop
      vertex 12.5432 -38.2205 -15
      vertex 12.5432 -38.2205 15
      vertex 12.8479 -36.6231 -15
    endloop
  endfacet
  facet normal 0 0 -1
    outer loop
      vertex 12.5432 -38.2205 -15
      vertex 12.8479 -36.6231 -15
      vertex 18 -34.5 -15
    endloop
  endfacet
  facet normal -0.98229 0.187369 0
    outer loop
      vertex 12.5432 -38.2205 15
      vertex 12.8479 -36.6231 15
      vertex 12.8479 -36.6231 -15
    endloop
  endfacet
  facet normal 0 0 1
    outer loop
      vertex 12.5432 -38.2205 15
      vertex 18 -34.5 15
      vertex 12.8479 -36.6231 15
    endloop
  endfacet
  facet normal -0.998027 0.0627802 0
    outer loop
      vertex 12.8479 -36.6231 -15
      vertex 12.8479 -36.6231 15
      vertex 12.95 -35 15
    endloop
  endfacet
  facet normal 0 0 -1
    outer loop
      vertex 12.8479 -36.6231 -15
      vertex 12.95 -35 -15
      vertex 18 -34.5 -15
    endloop
  endfacet
  facet normal -0.998027 0.0627802 0
    outer loop
      vertex 12.8479 -36.6231 -15
      vertex 12.95 -35 15
      vertex 12.95 -35 -15
    endloop
  endfacet
  facet normal 0 0 1
    outer loop
      vertex 12.8479 -36.6231 15
      vertex 18 -34.5 15
      vertex 12.95 -35 15
    endloop
  endfacet
  facet normal 0 1 0
    outer loop
      vertex 12.9185 -34.5 -15
      vertex 12.9185 -34.5 15
      vertex 18 -34.5 -15
    endloop
  endfacet
  facet normal -0.998021 -0.0628753 0
    outer loop
      vertex 12.9185 -34.5 -15
      vertex 12.95 -35 -15
      vertex 12.9185 -34.5 15
    endloop
  endfacet
  facet normal -0 0 -1
    outer loop
      vertex 12.9185 -34.5 -15
      vertex 18 -34.5 -15
      vertex 12.95 -35 -15
    endloop
  endfacet
  facet normal -0.998021 -0.0628753 0
    outer loop
      vertex 12.9185 -34.5 15
      vertex 12.95 -35 -15
      vertex 12.95 -35 15
    endloop
  endfacet
  facet normal 0 0 1
    outer loop
      vertex 12.9185 -34.5 15
      vertex 12.95 -35 15
      vertex 18 -34.5 15
    endloop
  endfacet
  facet normal 0 1 -0
    outer loop
      vertex 12.9185 -34.5 15
      vertex 18 -34.5 15
      vertex 18 -34.5 -15
    endloop
  endfacet
  facet normal -1 0 0
    outer loop
      vertex 18 -13.4 2.9754e-15
      vertex 18 -7.5 15
      vertex 18 -7.5 -15
    endloop
  endfacet
  facet normal 0 -0.987691 -0.156416
    outer loop
      vertex 18 -13.4 2.9754e-15
      vertex 27.5 -13.4 2.9754e-15
      vertex 27.5 -13.4783 0.494427
    endloop
  endfacet
  facet normal -1 0 0
    outer loop
      vertex 18 -13.4783 -0.494427
      vertex 18 -13.4 2.9754e-15
      vertex 18 -7.5 -15
    endloop
  endfacet
  facet normal 0 -0.987691 0.156416
    outer loop
      vertex 18 -13.4783 -0.494427
      vertex 27.5 -13.4 2.9754e-15
      vertex 18 -13.4 2.9754e-15
    endloop
  endfacet
  facet normal 0 -0.987691 0.156416
    outer loop
      vertex 18 -13.4783 -0.494427
      vertex 27.5 -13.4783 -0.494427
      vertex 27.5 -13.4 2.9754e-15
    endloop
  endfacet
  facet normal 0 -0.987691 -0.156416
    outer loop
      vertex 18 -13.4783 0.494427
      vertex 18 -13.4 2.9754e-15
      vertex 27.5 -13.4783 0.494427
    endloop
  endfacet
  facet normal -1 0 0
    outer loop
      vertex 18 -13.4783 0.494427
      vertex 18 -7.5 15
      vertex 18 -13.4 2.9754e-15
    endloop
  endfacet
  facet normal 0 -0.890977 -0.454049
    outer loop
      vertex 18 -13.4783 0.494427
      vertex 27.5 -13.4783 0.494427
      vertex 27.5 -13.7056 0.940456
    endloop
  endfacet
  facet normal -1 0 0
    outer loop
      vertex 18 -13.7056 -0.940456
      vertex 18 -13.4783 -0.494427
      vertex 18 -7.5 -15
    endloop
  endfacet
  facet normal 0 -0.890977 0.454049
    outer loop
      vertex 18 -13.7056 -0.940456
      vertex 27.5 -13.4783 -0.494427
      vertex 18 -13.4783 -0.494427
    endloop
  endfacet
  facet normal 0 -0.890977 0.454049
    outer loop
      vertex 18 -13.7056 -0.940456
      vertex 27.5 -13.7056 -0.940456
      vertex 27.5 -13.4783 -0.494427
    endloop
  endfacet
  facet normal 0 -0.890977 -0.454049
    outer loop
      vertex 18 -13.7056 0.940456
      vertex 18 -13.4783 0.494427
      vertex 27.5 -13.7056 0.940456
    endloop
  endfacet
  facet normal -1 0 0
    outer loop
      vertex 18 -13.7056 0.940456
      vertex 18 -7.5 15
      vertex 18 -13.4783 0.494427
    endloop
  endfacet
  facet normal 0 -0.707181 -0.707033
    outer loop
      vertex 18 -13.7056 0.940456
      vertex 27.5 -13.7056 0.940456
      vertex 27.5 -14.0595 1.29443
    endloop
  endfacet
  facet normal -1 0 0
    outer loop
      vertex 18 -14.0595 -1.29443
      vertex 18 -13.7056 -0.940456
      vertex 18 -7.5 -15
    endloop
  endfacet
  facet normal 0 -0.707181 0.707033
    outer loop
      vertex 18 -14.0595 -1.29443
      vertex 27.5 -13.7056 -0.940456
      vertex 18 -13.7056 -0.940456
    endloop
  endfacet
  facet normal 0 -0.707181 0.707033
    outer loop
      vertex 18 -14.0595 -1.29443
      vertex 27.5 -14.0595 -1.29443
      vertex 27.5 -13.7056 -0.940456
    endloop
  endfacet
  facet normal 0 -0.453928 0.891038
    outer loop
      vertex 18 -14.0595 -1.29443
      vertex 27.5 -14.5056 -1.52169
      vertex 27.5 -14.0595 -1.29443
    endloop
  endfacet
  facet normal 0 -0.707181 -0.707033
    outer loop
      vertex 18 -14.0595 1.29443
      vertex 18 -13.7056 0.940456
      vertex 27.5 -14.0595 1.29443
    endloop
  endfacet
  facet normal -1 0 0
    outer loop
      vertex 18 -14.0595 1.29443
      vertex 18 -7.5 15
      vertex 18 -13.7056 0.940456
    endloop
  endfacet
  facet normal -1 0 0
    outer loop
      vertex 18 -14.5056 -1.52169
      vertex 18 -14.0595 -1.29443
      vertex 18 -7.5 -15
    endloop
  endfacet
  facet normal 0 -0.453928 0.891038
    outer loop
      vertex 18 -14.5056 -1.52169
      vertex 27.5 -14.5056 -1.52169
      vertex 18 -14.0595 -1.29443
    endloop
  endfacet
  facet normal 0 -0.156444 0.987687
    outer loop
      vertex 18 -14.5056 -1.52169
      vertex 27.5 -15 -1.6
      vertex 27.5 -14.5056 -1.52169
    endloop
  endfacet
  facet normal -0 -0.453928 -0.891038
    outer loop
      vertex 18 -14.5056 1.52169
      vertex 18 -14.0595 1.29443
      vertex 27.5 -14.0595 1.29443
    endloop
  endfacet
  facet normal -1 0 0
    outer loop
      vertex 18 -14.5056 1.52169
      vertex 18 -7.5 15
      vertex 18 -14.0595 1.29443
    endloop
  endfacet
  facet normal 0 -0.453928 -0.891038
    outer loop
      vertex 18 -14.5056 1.52169
      vertex 27.5 -14.0595 1.29443
      vertex 27.5 -14.5056 1.52169
    endloop
  endfacet
  facet normal -1 0 0
    outer loop
      vertex 18 -15 -1.6
      vertex 18 -14.5056 -1.52169
      vertex 18 -7.5 -15
    endloop
  endfacet
  facet normal 0 -0.156444 0.987687
    outer loop
      vertex 18 -15 -1.6
      vertex 27.5 -15 -1.6
      vertex 18 -14.5056 -1.52169
    endloop
  endfacet
  facet normal -0 0.156444 0.987687
    outer loop
      vertex 18 -15 -1.6
      vertex 27.5 -15.4944 -1.52169
      vertex 27.5 -15 -1.6
    endloop
  endfacet
  facet normal -0 -0.156444 -0.987687
    outer loop
      vertex 18 -15 1.6
      vertex 18 -14.5056 1.52169
      vertex 27.5 -14.5056 1.52169
    endloop
  endfacet
  facet normal -1 0 0
    outer loop
      vertex 18 -15 1.6
      vertex 18 -7.5 15
      vertex 18 -14.5056 1.52169
    endloop
  endfacet
  facet normal 0 -0.156444 -0.987687
    outer loop
      vertex 18 -15 1.6
      vertex 27.5 -14.5056 1.52169
      vertex 27.5 -15 1.6
    endloop
  endfacet
  facet normal -1 0 0
    outer loop
      vertex 18 -15.4944 -1.52169
      vertex 18 -15 -1.6
      vertex 18 -7.5 -15
    endloop
  endfacet
  facet normal 0 0.156444 0.987687
    outer loop
      vertex 18 -15.4944 -1.52169
      vertex 27.5 -15.4944 -1.52169
      vertex 18 -15 -1.6
    endloop
  endfacet
  facet normal -0 0.453928 0.891038
    outer loop
      vertex 18 -15.4944 -1.52169
      vertex 27.5 -15.9405 -1.29443
      vertex 27.5 -15.4944 -1.52169
    endloop
  endfacet
  facet normal 0 0.156444 -0.987687
    outer loop
      vertex 18 -15.4944 1.52169
      vertex 18 -15 1.6
      vertex 27.5 -15 1.6
    endloop
  endfacet
  facet normal -1 0 0
    outer loop
      vertex 18 -15.4944 1.52169
      vertex 18 -7.5 15
      vertex 18 -15 1.6
    endloop
  endfacet
  facet normal 0 0.156444 -0.987687
    outer loop
      vertex 18 -15.4944 1.52169
      vertex 27.5 -15 1.6
      vertex 27.5 -15.4944 1.52169
    endloop
  endfacet
  facet normal 0 0.453928 0.891038
    outer loop
      vertex 18 -15.9405 -1.29443
      vertex 27.5 -15.9405 -1.29443
      vertex 18 -15.4944 -1.52169
    endloop
  endfacet
  facet normal 0 0.453928 -0.891038
    outer loop
      vertex 18 -15.9405 1.29443
      vertex 18 -15.4944 1.52169
      vertex 27.5 -15.4944 1.52169
    endloop
  endfacet
  facet normal 0 0.453928 -0.891038
    outer loop
      vertex 18 -15.9405 1.29443
      vertex 27.5 -15.4944 1.52169
      vertex 27.5 -15.9405 1.29443
    endloop
  endfacet
  facet normal 0 0.707181 -0.707033
    outer loop
      vertex 18 -15.9405 1.29443
      vertex 27.5 -15.9405 1.29443
      vertex 27.5 -16.2944 0.940456
    endloop
  endfacet
  facet normal 0 0.707181 0.707033
    outer loop
      vertex 18 -16.2944 -0.940456
      vertex 27.5 -15.9405 -1.29443
      vertex 18 -15.9405 -1.29443
    endloop
  endfacet
  facet normal 0 0.707181 0.707033
    outer loop
      vertex 18 -16.2944 -0.940456
      vertex 27.5 -16.2944 -0.940456
      vertex 27.5 -15.9405 -1.29443
    endloop
  endfacet
  facet normal 0 0.707181 -0.707033
    outer loop
      vertex 18 -16.2944 0.940456
      vertex 18 -15.9405 1.29443
      vertex 27.5 -16.2944 0.940456
    endloop
  endfacet
  facet normal 0 0.890977 -0.454049
    outer loop
      vertex 18 -16.2944 0.940456
      vertex 27.5 -16.2944 0.940456
      vertex 27.5 -16.5217 0.494427
    endloop
  endfacet
  facet normal 0 0.890977 0.454049
    outer loop
      vertex 18 -16.5217 -0.494427
      vertex 27.5 -16.2944 -0.940456
      vertex 18 -16.2944 -0.940456
    endloop
  endfacet
  facet normal 0 0.890977 0.454049
    outer loop
      vertex 18 -16.5217 -0.494427
      vertex 27.5 -16.5217 -0.494427
      vertex 27.5 -16.2944 -0.940456
    endloop
  endfacet
  facet normal 0 0.890977 -0.454049
    outer loop
      vertex 18 -16.5217 0.494427
      vertex 18 -16.2944 0.940456
      vertex 27.5 -16.5217 0.494427
    endloop
  endfacet
  facet normal 0 0.987691 -0.156416
    outer loop
      vertex 18 -16.5217 0.494427
      vertex 27.5 -16.5217 0.494427
      vertex 27.5 -16.6 3.68594e-15
    endloop
  endfacet
  facet normal 0 0.987691 -0.156416
    outer loop
      vertex 18 -16.6 3.68594e-15
      vertex 18 -16.5217 0.494427
      vertex 27.5 -16.6 3.68594e-15
    endloop
  endfacet
  facet normal 0 0.987691 0.156416
    outer loop
      vertex 18 -16.6 3.68594e-15
      vertex 27.5 -16.5217 -0.494427
      vertex 18 -16.5217 -0.494427
    endloop
  endfacet
  facet normal 0 0.987691 0.156416
    outer loop
      vertex 18 -16.6 3.68594e-15
      vertex 27.5 -16.6 3.68594e-15
      vertex 27.5 -16.5217 -0.494427
    endloop
  endfacet
  facet normal -1 0 0
    outer loop
      vertex 18 -34.5 -15
      vertex 18 -15.4944 -1.52169
      vertex 18 -7.5 -15
    endloop
  endfacet
  facet normal -1 -0 0
    outer loop
      vertex 18 -34.5 -15
      vertex 18 -15.9405 -1.29443
      vertex 18 -15.4944 -1.52169
    endloop
  endfacet
  facet normal -1 -0 0
    outer loop
      vertex 18 -34.5 -15
      vertex 18 -16.2944 -0.940456
      vertex 18 -15.9405 -1.29443
    endloop
  endfacet
  facet normal -1 -0 0
    outer loop
      vertex 18 -34.5 -15
      vertex 18 -16.5217 -0.494427
      vertex 18 -16.2944 -0.940456
    endloop
  endfacet
  facet normal -1 -0 0
    outer loop
      vertex 18 -34.5 -15
      vertex 18 -16.6 3.68594e-15
      vertex 18 -16.5217 -0.494427
    endloop
  endfacet
  facet normal -1 0 0
    outer loop
      vertex 18 -34.5 -15
      vertex 18 -34.5 15
      vertex 18 -16.6 3.68594e-15
    endloop
  endfacet
  facet normal -0 0 -1
    outer loop
      vertex 18 -34.5 -15
      vertex 18 -7.5 -15
      vertex 27.5 -7.5 -15
    endloop
  endfacet
  facet normal 0 0 -1
    outer loop
      vertex 18 -34.5 -15
      vertex 27.5 -7.5 -15
      vertex 27.5 -57.5 -15
    endloop
  endfacet
  facet normal -1 0 0
    outer loop
      vertex 18 -34.5 15
      vertex 18 -15.4944 1.52169
      vertex 18 -15.9405 1.29443
    endloop
  endfacet
  facet normal -1 0 0
    outer loop
      vertex 18 -34.5 15
      vertex 18 -15.9405 1.29443
      vertex 18 -16.2944 0.940456
    endloop
  endfacet
  facet normal -1 0 0
    outer loop
      vertex 18 -34.5 15
      vertex 18 -16.2944 0.940456
      vertex 18 -16.5217 0.494427
    endloop
  endfacet
  facet normal -1 0 0
    outer loop
      vertex 18 -34.5 15
      vertex 18 -16.5217 0.494427
      vertex 18 -16.6 3.68594e-15
    endloop
  endfacet
  facet normal -1 0 0
    outer loop
      vertex 18 -34.5 15
      vertex 18 -7.5 15
      vertex 18 -15.4944 1.52169
    endloop
  endfacet
  facet normal 0 0 1
    outer loop
      vertex 18 -34.5 15
      vertex 27.5 -57.5 15
      vertex 27.5 -7.5 15
    endloop
  endfacet
  facet normal 0 0 1
    outer loop
      vertex 18 -34.5 15
      vertex 27.5 -7.5 15
      vertex 18 -7.5 15
    endloop
  endfacet
  facet normal 0 1 0
    outer loop
      vertex 18 -7.5 -15
      vertex 18 -7.5 15
      vertex 27.5 -7.5 -15
    endloop
  endfacet
  facet normal 0 1 -0
    outer loop
      vertex 18 -7.5 15
      vertex 27.5 -7.5 15
      vertex 27.5 -7.5 -15
    endloop
  endfacet
  facet normal -0.248668 0.968589 0
    outer loop
      vertex 2.42659 -47.7206 -15
      vertex 2.42659 -47.7206 15
      vertex 4.00177 -47.3162 -15
    endloop
  endfacet
  facet normal 0 0 -1
    outer loop
      vertex 2.42659 -47.7206 -15
      vertex 4.00177 -47.3162 -15
      vertex 27.5 -57.5 -15
    endloop
  endfacet
  facet normal -0 0 1
    outer loop
      vertex 2.42659 -47.7206 15
      vertex 27.5 -57.5 15
      vertex 4.00177 -47.3162 15
    endloop
  endfacet
  facet normal -0.248668 0.968589 0
    outer loop
      vertex 2.42659 -47.7206 15
      vertex 4.00177 -47.3162 15
      vertex 4.00177 -47.3162 -15
    endloop
  endfacet
  facet normal 1 0 0
    outer loop
      vertex 27.5 -13.4 2.9754e-15
      vertex 27.5 -7.5 -15
      vertex 27.5 -7.5 15
    endloop
  endfacet
  facet normal 1 -0 0
    outer loop
      vertex 27.5 -13.4783 -0.494427
      vertex 27.5 -7.5 -15
      vertex 27.5 -13.4 2.9754e-15
    endloop
  endfacet
  facet normal 1 0 0
    outer loop
      vertex 27.5 -13.4783 0.494427
      vertex 27.5 -13.4 2.9754e-15
      vertex 27.5 -7.5 15
    endloop
  endfacet
  facet normal 1 -0 0
    outer loop
      vertex 27.5 -13.7056 -0.940456
      vertex 27.5 -7.5 -15
      vertex 27.5 -13.4783 -0.494427
    endloop
  endfacet
  facet normal 1 0 0
    outer loop
      vertex 27.5 -13.7056 0.940456
      vertex 27.5 -13.4783 0.494427
      vertex 27.5 -7.5 15
    endloop
  endfacet
  facet normal 1 -0 0
    outer loop
      vertex 27.5 -14.0595 -1.29443
      vertex 27.5 -7.5 -15
      vertex 27.5 -13.7056 -0.940456
    endloop
  endfacet
  facet normal 1 0 0
    outer loop
      vertex 27.5 -14.0595 1.29443
      vertex 27.5 -13.7056 0.940456
      vertex 27.5 -7.5 15
    endloop
  endfacet
  facet normal 1 -0 0
    outer loop
      vertex 27.5 -14.5056 -1.52169
      vertex 27.5 -7.5 -15
      vertex 27.5 -14.0595 -1.29443
    endloop
  endfacet
  facet normal 1 0 0
    outer loop
      vertex 27.5 -14.5056 1.52169
      vertex 27.5 -14.0595 1.29443
      vertex 27.5 -7.5 15
    endloop
  endfacet
  facet normal 1 -0 0
    outer loop
      vertex 27.5 -15 -1.6
      vertex 27.5 -7.5 -15
      vertex 27.5 -14.5056 -1.52169
    endloop
  endfacet
  facet normal 1 0 0
    outer loop
      vertex 27.5 -15 1.6
      vertex 27.5 -14.5056 1.52169
      vertex 27.5 -7.5 15
    endloop
  endfacet
  facet normal 1 0 0
    outer loop
      vertex 27.5 -15.4944 -1.52169
      vertex 27.5 -7.5 -15
      vertex 27.5 -15 -1.6
    endloop
  endfacet
  facet normal 1 0 0
    outer loop
      vertex 27.5 -15.4944 1.52169
      vertex 27.5 -15 1.6
      vertex 27.5 -7.5 15
    endloop
  endfacet
  facet normal 1 0 0
    outer loop
      vertex 27.5 -15.9405 -1.29443
      vertex 27.5 -7.5 -15
      vertex 27.5 -15.4944 -1.52169
    endloop
  endfacet
  facet normal 1 0 0
    outer loop
      vertex 27.5 -15.9405 1.29443
      vertex 27.5 -15.4944 1.52169
      vertex 27.5 -7.5 15
    endloop
  endfacet
  facet normal 1 0 0
    outer loop
      vertex 27.5 -57.5 -15
      vertex 27.5 -15.9405 -1.29443
      vertex 27.5 -16.2944 -0.940456
    endloop
  endfacet
  facet normal 1 0 0
    outer loop
      vertex 27.5 -57.5 -15
      vertex 27.5 -16.2944 -0.940456
      vertex 27.5 -16.5217 -0.494427
    endloop
  endfacet
  facet normal 1 0 0
    outer loop
      vertex 27.5 -57.5 -15
      vertex 27.5 -16.5217 -0.494427
      vertex 27.5 -16.6 3.68594e-15
    endloop
  endfacet
  facet normal 1 0 0
    outer loop
      vertex 27.5 -57.5 -15
      vertex 27.5 -16.6 3.68594e-15
      vertex 27.5 -57.5 15
    endloop
  endfacet
  facet normal 1 0 0
    outer loop
      vertex 27.5 -57.5 -15
      vertex 27.5 -7.5 -15
      vertex 27.5 -15.9405 -1.29443
    endloop
  endfacet
  facet normal 1 -0 0
    outer loop
      vertex 27.5 -57.5 15
      vertex 27.5 -15.9405 1.29443
      vertex 27.5 -7.5 15
    endloop
  endfacet
  facet normal 1 0 0
    outer loop
      vertex 27.5 -57.5 15
      vertex 27.5 -16.2944 0.940456
      vertex 27.5 -15.9405 1.29443
    endloop
  endfacet
  facet normal 1 0 0
    outer loop
      vertex 27.5 -57.5 15
      vertex 27.5 -16.5217 0.494427
      vertex 27.5 -16.2944 0.940456
    endloop
  endfacet
  facet normal 1 0 0
    outer loop
      vertex 27.5 -57.5 15
      vertex 27.5 -16.6 3.68594e-15
      vertex 27.5 -16.5217 0.494427
    endloop
  endfacet
  facet normal -0.36814 0.92977 0
    outer loop
      vertex 4.00177 -47.3162 -15
      vertex 4.00177 -47.3162 15
      vertex 5.51384 -46.7175 -15
    endloop
  endfacet
  facet normal 0 0 -1
    outer loop
      vertex 4.00177 -47.3162 -15
      vertex 5.51384 -46.7175 -15
      vertex 27.5 -57.5 -15
    endloop
  endfacet
  facet normal -0 0 1
    outer loop
      vertex 4.00177 -47.3162 15
      vertex 27.5 -57.5 15
      vertex 5.51384 -46.7175 15
    endloop
  endfacet
  facet normal -0.36814 0.92977 0
    outer loop
      vertex 4.00177 -47.3162 15
      vertex 5.51384 -46.7175 15
      vertex 5.51384 -46.7175 -15
    endloop
  endfacet
  facet normal -0.48177 0.876298 0
    outer loop
      vertex 5.51384 -46.7175 -15
      vertex 5.51384 -46.7175 15
      vertex 6.93896 -45.934 -15
    endloop
  endfacet
  facet normal 0 0 -1
    outer loop
      vertex 5.51384 -46.7175 -15
      vertex 6.93896 -45.934 -15
      vertex 27.5 -57.5 -15
    endloop
  endfacet
  facet normal -0 0 1
    outer loop
      vertex 5.51384 -46.7175 15
      vertex 27.5 -57.5 15
      vertex 6.93896 -45.934 15
    endloop
  endfacet
  facet normal -0.48177 0.876298 0
    outer loop
      vertex 5.51384 -46.7175 15
      vertex 6.93896 -45.934 15
      vertex 6.93896 -45.934 -15
    endloop
  endfacet
  facet normal -0.587786 0.809016 0
    outer loop
      vertex 6.93896 -45.934 -15
      vertex 6.93896 -45.934 15
      vertex 8.25464 -44.9781 -15
    endloop
  endfacet
  facet normal 0 0 -1
    outer loop
      vertex 6.93896 -45.934 -15
      vertex 8.25464 -44.9781 -15
      vertex 27.5 -57.5 -15
    endloop
  endfacet
  facet normal -0 0 1
    outer loop
      vertex 6.93896 -45.934 15
      vertex 27.5 -57.5 15
      vertex 8.25464 -44.9781 15
    endloop
  endfacet
  facet normal -0.587786 0.809016 0
    outer loop
      vertex 6.93896 -45.934 15
      vertex 8.25464 -44.9781 15
      vertex 8.25464 -44.9781 -15
    endloop
  endfacet
  facet normal -0.684528 0.728987 0
    outer loop
      vertex 8.25464 -44.9781 -15
      vertex 8.25464 -44.9781 15
      vertex 9.44014 -43.8649 -15
    endloop
  endfacet
  facet normal 0 0 -1
    outer loop
      vertex 8.25464 -44.9781 -15
      vertex 9.44014 -43.8649 -15
      vertex 27.5 -57.5 -15
    endloop
  endfacet
  facet normal -0 0 1
    outer loop
      vertex 8.25464 -44.9781 15
      vertex 27.5 -57.5 15
      vertex 9.44014 -43.8649 15
    endloop
  endfacet
  facet normal -0.684528 0.728987 0
    outer loop
      vertex 8.25464 -44.9781 15
      vertex 9.44014 -43.8649 15
      vertex 9.44014 -43.8649 -15
    endloop
  endfacet
  facet normal 0 0 -1
    outer loop
      vertex 9.44014 -43.8649 -15
      vertex 10.4768 -42.6118 -15
      vertex 27.5 -57.5 -15
    endloop
  endfacet
  facet normal -0.770512 0.637426 0
    outer loop
      vertex 9.44014 -43.8649 -15
      vertex 10.4768 -42.6118 15
      vertex 10.4768 -42.6118 -15
    endloop
  endfacet
  facet normal -0.770512 0.637426 0
    outer loop
      vertex 9.44014 -43.8649 -15
      vertex 9.44014 -43.8649 15
      vertex 10.4768 -42.6118 15
    endloop
  endfacet
  facet normal -0 0 1
    outer loop
      vertex 9.44014 -43.8649 15
      vertex 27.5 -57.5 15
      vertex 10.4768 -42.6118 15
    endloop
  endfacet
endsolid model
