solid model
  facet normal 1 0 0
    outer loop
      vertex -40 -50 10
      vertex -40 0 31.73
      vertex -40 -17.9225 42.0775
    endloop
  endfacet
  facet normal 1 0 0
    outer loop
      vertex -40 -50 10
      vertex -40 50 10
      vertex -40 0 31.73
    endloop
  endfacet
  facet normal 0 0 1
    outer loop
      vertex -40 -50 10
      vertex 40 -50 10
      vertex -40 50 10
    endloop
  endfacet
  facet normal -0 0 1
    outer loop
      vertex -40 -50 10
      vertex 50 -60 10
      vertex 40 -50 10
    endloop
  endfacet
  facet normal 0 -1 0
    outer loop
      vertex -40 -60 0
      vertex 40 -60 0
      vertex 50 -60 10
    endloop
  endfacet
  facet normal 0 0 -1
    outer loop
      vertex -40 -60 0
      vertex 50 60 0
      vertex 40 -60 0
    endloop
  endfacet
  facet normal 1 -0 0
    outer loop
      vertex -40 0 31.73
      vertex -40 50 10
      vertex -40 17.9225 42.0775
    endloop
  endfacet
  facet normal 0 0 1
    outer loop
      vertex -40 50 10
      vertex 40 -50 10
      vertex 40 50 10
    endloop
  endfacet
  facet normal 0 0 1
    outer loop
      vertex -40 50 10
      vertex 40 50 10
      vertex 50 60 10
    endloop
  endfacet
  facet normal 0 0.499998 0.866027
    outer loop
      vertex -50 -17.9225 42.0775
      vertex -40 -17.9225 42.0775
      vertex -50 -2.22045e-15 31.73
    endloop
  endfacet
  facet normal -1.11022e-16 0.499998 0.866027
    outer loop
      vertex -50 -2.22045e-15 31.73
      vertex -40 -17.9225 42.0775
      vertex -40 0 31.73
    endloop
  endfacet
  facet normal 1.11022e-16 -0.499998 0.866027
    outer loop
      vertex -50 -2.22045e-15 31.73
      vertex -40 0 31.73
      vertex -50 17.9225 42.0775
    endloop
  endfacet
  facet normal -1 0 0
    outer loop
      vertex -50 -2.22045e-15 31.73
      vertex -50 17.9225 42.0775
      vertex -50 60 2.22045e-15
    endloop
  endfacet
  facet normal 0 -0.707107 0.707107
    outer loop
      vertex -50 -50 10
      vertex -40 -17.9225 42.0775
      vertex -50 -17.9225 42.0775
    endloop
  endfacet
  facet normal 0 -0.707107 0.707107
    outer loop
      vertex -50 -50 10
      vertex -40 -50 10
      vertex -40 -17.9225 42.0775
    endloop
  endfacet
  facet normal -1 -0 0
    outer loop
      vertex -50 -50 10
      vertex -50 -17.9225 42.0775
      vertex -50 -2.22045e-15 31.73
    endloop
  endfacet
  facet normal -1 0 0
    outer loop
      vertex -50 -50 10
      vertex -50 -2.22045e-15 31.73
      vertex -50 60 2.22045e-15
    endloop
  endfacet
  facet normal 0 -1 0
    outer loop
      vertex -50 -60 0
      vertex -40 -60 0
      vertex -50 -60 2.22045e-15
    endloop
  endfacet
  facet normal -1 -0 0
    outer loop
      vertex -50 -60 0
      vertex -50 -60 2.22045e-15
      vertex -50 60 2.22045e-15
    endloop
  endfacet
  facet normal 0 0 -1
    outer loop
      vertex -50 -60 0
      vertex -50 60 0
      vertex -40 -60 0
    endloop
  endfacet
  facet normal -1 0 0
    outer loop
      vertex -50 -60 0
      vertex -50 60 2.22045e-15
      vertex -50 60 0
    endloop
  endfacet
  facet normal 0 0 1
    outer loop
      vertex -50 -60 10
      vertex -40 -50 10
      vertex -50 -50 10
    endloop
  endfacet
  facet normal 0 -1 0
    outer loop
      vertex -50 -60 10
      vertex -40 -60 0
      vertex 50 -60 10
    endloop
  endfacet
  facet normal 0 0 1
    outer loop
      vertex -50 -60 10
      vertex 50 -60 10
      vertex -40 -50 10
    endloop
  endfacet
  facet normal 0 -1 0
    outer loop
      vertex -50 -60 2.22045e-15
      vertex -40 -60 0
      vertex -50 -60 4.44089e-15
    endloop
  endfacet
  facet normal -1 0 0
    outer loop
      vertex -50 -60 2.22045e-15
      vertex -50 -50 10
      vertex -50 60 2.22045e-15
    endloop
  endfacet
  facet normal -1 0 0
    outer loop
      vertex -50 -60 2.22045e-15
      vertex -50 -60 4.44089e-15
      vertex -50 -50 10
    endloop
  endfacet
  facet normal 0 -1 0
    outer loop
      vertex -50 -60 4.44089e-15
      vertex -40 -60 0
      vertex -50 -60 10
    endloop
  endfacet
  facet normal -1 -0 0
    outer loop
      vertex -50 -60 4.44089e-15
      vertex -50 -60 10
      vertex -50 -50 10
    endloop
  endfacet
  facet normal 0 -0.499998 0.866027
    outer loop
      vertex -50 17.9225 42.0775
      vertex -40 0 31.73
      vertex -40 17.9225 42.0775
    endloop
  endfacet
  facet normal 0 0.707107 0.707107
    outer loop
      vertex -50 17.9225 42.0775
      vertex -40 17.9225 42.0775
      vertex -40 50 10
    endloop
  endfacet
  facet normal 0 0.707107 0.707107
    outer loop
      vertex -50 17.9225 42.0775
      vertex -40 50 10
      vertex -50 50 10
    endloop
  endfacet
  facet normal 0 0 0
    outer loop
      vertex -50 17.9225 42.0775
      vertex -50 50 10
      vertex -50 60 2.22045e-15
    endloop
  endfacet
  facet normal 0 0 1
    outer loop
      vertex -50 50 10
      vertex -40 50 10
      vertex -50 60 10
    endloop
  endfacet
  facet normal -1 0 0
    outer loop
      vertex -50 50 10
      vertex -50 60 10
      vertex -50 60 2.22045e-15
    endloop
  endfacet
  facet normal 0 1 0
    outer loop
      vertex -50 60 0
      vertex -50 60 10
      vertex 50 60 0
    endloop
  endfacet
  facet normal 0 0 0
    outer loop
      vertex -50 60 0
      vertex -50 60 2.22045e-15
      vertex -50 60 10
    endloop
  endfacet
  facet normal 0 0 -1
    outer loop
      vertex -50 60 0
      vertex 50 60 0
      vertex -40 -60 0
    endloop
  endfacet
  facet normal -0 0 1
    outer loop
      vertex -50 60 10
      vertex -40 50 10
      vertex 50 60 10
    endloop
  endfacet
  facet normal 0 1 -0
    outer loop
      vertex -50 60 10
      vertex 50 60 10
      vertex 50 60 0
    endloop
  endfacet
  facet normal 0 0.499998 0.866027
    outer loop
      vertex 40 -17.9225 42.0775
      vertex 50 -17.9225 42.0775
      vertex 40 0 31.73
    endloop
  endfacet
  facet normal -1 -0 0
    outer loop
      vertex 40 -50 10
      vertex 40 -17.9225 42.0775
      vertex 40 0 31.73
    endloop
  endfacet
  facet normal -1 0 0
    outer loop
      vertex 40 -50 10
      vertex 40 0 31.73
      vertex 40 50 10
    endloop
  endfacet
  facet normal 0 -0.707107 0.707107
    outer loop
      vertex 40 -50 10
      vertex 50 -17.9225 42.0775
      vertex 40 -17.9225 42.0775
    endloop
  endfacet
  facet normal 0 -0.707107 0.707107
    outer loop
      vertex 40 -50 10
      vertex 50 -50 10
      vertex 50 -17.9225 42.0775
    endloop
  endfacet
  facet normal -0 0 1
    outer loop
      vertex 40 -50 10
      vertex 50 -60 10
      vertex 50 -50 10
    endloop
  endfacet
  facet normal 0 -1 -0
    outer loop
      vertex 40 -60 0
      vertex 50 -60 0
      vertex 50 -60 2.22045e-15
    endloop
  endfacet
  facet normal -0 -1 0
    outer loop
      vertex 40 -60 0
      vertex 50 -60 2.22045e-15
      vertex 50 -60 4.44089e-15
    endloop
  endfacet
  facet normal 0 -1 -0
    outer loop
      vertex 40 -60 0
      vertex 50 -60 4.44089e-15
      vertex 50 -60 10
    endloop
  endfacet
  facet normal 0 0 -1
    outer loop
      vertex 40 -60 0
      vertex 50 60 0
      vertex 50 -60 0
    endloop
  endfacet
  facet normal -1 0 0
    outer loop
      vertex 40 0 31.73
      vertex 40 17.9225 42.0775
      vertex 40 50 10
    endloop
  endfacet
  facet normal 1.11022e-16 0.499998 0.866027
    outer loop
      vertex 40 0 31.73
      vertex 50 -17.9225 42.0775
      vertex 50 -2.22045e-15 31.73
    endloop
  endfacet
  facet normal -1.11022e-16 -0.499998 0.866027
    outer loop
      vertex 40 0 31.73
      vertex 50 -2.22045e-15 31.73
      vertex 40 17.9225 42.0775
    endloop
  endfacet
  facet normal 0 -0.499998 0.866027
    outer loop
      vertex 40 17.9225 42.0775
      vertex 50 -2.22045e-15 31.73
      vertex 50 17.9225 42.0775
    endloop
  endfacet
  facet normal 0 0.707107 0.707107
    outer loop
      vertex 40 17.9225 42.0775
      vertex 50 17.9225 42.0775
      vertex 50 50 10
    endloop
  endfacet
  facet normal 0 0.707107 0.707107
    outer loop
      vertex 40 17.9225 42.0775
      vertex 50 50 10
      vertex 40 50 10
    endloop
  endfacet
  facet normal 0 0 1
    outer loop
      vertex 40 50 10
      vertex 50 50 10
      vertex 50 60 10
    endloop
  endfacet
  facet normal 1 -0 0
    outer loop
      vertex 50 -2.22045e-15 31.73
      vertex 50 60 2.22045e-15
      vertex 50 17.9225 42.0775
    endloop
  endfacet
  facet normal 1 0 0
    outer loop
      vertex 50 -50 10
      vertex 50 -2.22045e-15 31.73
      vertex 50 -17.9225 42.0775
    endloop
  endfacet
  facet normal 1 -0 0
    outer loop
      vertex 50 -50 10
      vertex 50 60 2.22045e-15
      vertex 50 -2.22045e-15 31.73
    endloop
  endfacet
  facet normal 1 0 0
    outer loop
      vertex 50 -60 0
      vertex 50 60 0
      vertex 50 -60 2.22045e-15
    endloop
  endfacet
  facet normal 1 0 0
    outer loop
      vertex 50 -60 2.22045e-15
      vertex 50 -50 10
      vertex 50 -60 4.44089e-15
    endloop
  endfacet
  facet normal 1 -0 0
    outer loop
      vertex 50 -60 2.22045e-15
      vertex 50 60 0
      vertex 50 60 2.22045e-15
    endloop
  endfacet
  facet normal 1 0 0
    outer loop
      vertex 50 -60 2.22045e-15
      vertex 50 60 2.22045e-15
      vertex 50 -50 10
    endloop
  endfacet
  facet normal 1 0 0
    outer loop
      vertex 50 -60 4.44089e-15
      vertex 50 -50 10
      vertex 50 -60 10
    endloop
  endfacet
  facet normal 0 0 0
    outer loop
      vertex 50 17.9225 42.0775
      vertex 50 60 2.22045e-15
      vertex 50 50 10
    endloop
  endfacet
  facet normal 1 0 0
    outer loop
      vertex 50 50 10
      vertex 50 60 2.22045e-15
      vertex 50 60 10
    endloop
  endfacet
  facet normal 0 0 0
    outer loop
      vertex 50 60 0
      vertex 50 60 10
      vertex 50 60 2.22045e-15
    endloop
  endfacet
endsolid model
