solid model
  facet normal 0.0941829 0.995555 0
    outer loop
      vertex -10.148 -12.5927 0
      vertex -10.148 -12.5927 3
      vertex -9.35416 -12.6678 0
    endloop
  endfacet
  facet normal 0 0 -1
    outer loop
      vertex -10.148 -12.5927 0
      vertex -9.35416 -12.6678 0
      vertex -8 -20.6979 0
    endloop
  endfacet
  facet normal 0 0 1
    outer loop
      vertex -10.148 -12.5927 3
      vertex -5 -20.6979 3
      vertex -9.35416 -12.6678 3
    endloop
  endfacet
  facet normal 0.0941829 0.995555 -0
    outer loop
      vertex -10.148 -12.5927 3
      vertex -9.35416 -12.6678 3
      vertex -9.35416 -12.6678 0
    endloop
  endfacet
  facet normal 0 0 -1
    outer loop
      vertex -10.148 12.5927 0
      vertex -8 20.6979 0
      vertex -9.35416 12.6678 0
    endloop
  endfacet
  facet normal 0.0941829 -0.995555 0
    outer loop
      vertex -10.148 12.5927 0
      vertex -9.35416 12.6678 0
      vertex -9.35416 12.6678 3
    endloop
  endfacet
  facet normal 0.0941829 -0.995555 0
    outer loop
      vertex -10.148 12.5927 0
      vertex -9.35416 12.6678 3
      vertex -10.148 12.5927 3
    endloop
  endfacet
  facet normal 0 0 1
    outer loop
      vertex -10.148 12.5927 3
      vertex -9.35416 12.6678 3
      vertex -5 20.6979 3
    endloop
  endfacet
  facet normal 0 0 -1
    outer loop
      vertex -10.9356 -12.468 0
      vertex -10.148 -12.5927 0
      vertex -8 -20.6979 0
    endloop
  endfacet
  facet normal 0.156381 0.987697 0
    outer loop
      vertex -10.9356 -12.468 0
      vertex -10.9356 -12.468 3
      vertex -10.148 -12.5927 0
    endloop
  endfacet
  facet normal 0.156381 0.987697 -0
    outer loop
      vertex -10.9356 -12.468 3
      vertex -10.148 -12.5927 3
      vertex -10.148 -12.5927 0
    endloop
  endfacet
  facet normal 0 0 1
    outer loop
      vertex -10.9356 -12.468 3
      vertex -5 -20.6979 3
      vertex -10.148 -12.5927 3
    endloop
  endfacet
  facet normal 0.156381 -0.987697 0
    outer loop
      vertex -10.9356 12.468 0
      vertex -10.148 12.5927 0
      vertex -10.148 12.5927 3
    endloop
  endfacet
  facet normal 0.156381 -0.987697 0
    outer loop
      vertex -10.9356 12.468 0
      vertex -10.148 12.5927 3
      vertex -10.9356 12.468 3
    endloop
  endfacet
  facet normal 0 0 -1
    outer loop
      vertex -10.9356 12.468 0
      vertex -8 20.6979 0
      vertex -10.148 12.5927 0
    endloop
  endfacet
  facet normal 0 0 1
    outer loop
      vertex -10.9356 12.468 3
      vertex -10.148 12.5927 3
      vertex -5 20.6979 3
    endloop
  endfacet
  facet normal 0 0 -1
    outer loop
      vertex -11.7137 -12.2941 0
      vertex -10.9356 -12.468 0
      vertex -8 -20.6979 0
    endloop
  endfacet
  facet normal 0.218112 0.975924 0
    outer loop
      vertex -11.7137 -12.2941 0
      vertex -11.7137 -12.2941 3
      vertex -10.9356 -12.468 0
    endloop
  endfacet
  facet normal 0.218112 0.975924 -0
    outer loop
      vertex -11.7137 -12.2941 3
      vertex -10.9356 -12.468 3
      vertex -10.9356 -12.468 0
    endloop
  endfacet
  facet normal 0 0 1
    outer loop
      vertex -11.7137 -12.2941 3
      vertex -5 -20.6979 3
      vertex -10.9356 -12.468 3
    endloop
  endfacet
  facet normal 0.218112 -0.975924 0
    outer loop
      vertex -11.7137 12.2941 0
      vertex -10.9356 12.468 0
      vertex -10.9356 12.468 3
    endloop
  endfacet
  facet normal 0.218112 -0.975924 0
    outer loop
      vertex -11.7137 12.2941 0
      vertex -10.9356 12.468 3
      vertex -11.7137 12.2941 3
    endloop
  endfacet
  facet normal 0 0 -1
    outer loop
      vertex -11.7137 12.2941 0
      vertex -8 20.6979 0
      vertex -10.9356 12.468 0
    endloop
  endfacet
  facet normal 0 0 1
    outer loop
      vertex -11.7137 12.2941 3
      vertex -10.9356 12.468 3
      vertex -5 20.6979 3
    endloop
  endfacet
  facet normal 0 0 -1
    outer loop
      vertex -12.4795 -12.0716 0
      vertex -11.7137 -12.2941 0
      vertex -8 -20.6979 0
    endloop
  endfacet
  facet normal 0.279008 0.960289 0
    outer loop
      vertex -12.4795 -12.0716 0
      vertex -12.4795 -12.0716 3
      vertex -11.7137 -12.2941 0
    endloop
  endfacet
  facet normal 0.279008 0.960289 -0
    outer loop
      vertex -12.4795 -12.0716 3
      vertex -11.7137 -12.2941 3
      vertex -11.7137 -12.2941 0
    endloop
  endfacet
  facet normal 0.279008 -0.960289 0
    outer loop
      vertex -12.4795 12.0716 0
      vertex -11.7137 12.2941 0
      vertex -11.7137 12.2941 3
    endloop
  endfacet
  facet normal 0.279008 -0.960289 0
    outer loop
      vertex -12.4795 12.0716 0
      vertex -11.7137 12.2941 3
      vertex -12.4795 12.0716 3
    endloop
  endfacet
  facet normal 0 0 -1
    outer loop
      vertex -12.4795 12.0716 0
      vertex -8 20.6979 0
      vertex -11.7137 12.2941 0
    endloop
  endfacet
  facet normal 0 0 -1
    outer loop
      vertex -13.2297 -11.8015 0
      vertex -12.4795 -12.0716 0
      vertex -8 -20.6979 0
    endloop
  endfacet
  facet normal 0.338751 0.940876 0
    outer loop
      vertex -13.2297 -11.8015 0
      vertex -13.2297 -11.8015 3
      vertex -12.4795 -12.0716 0
    endloop
  endfacet
  facet normal 0.338751 0.940876 -0
    outer loop
      vertex -13.2297 -11.8015 3
      vertex -12.4795 -12.0716 3
      vertex -12.4795 -12.0716 0
    endloop
  endfacet
  facet normal 0.338751 -0.940876 0
    outer loop
      vertex -13.2297 11.8015 0
      vertex -12.4795 12.0716 0
      vertex -12.4795 12.0716 3
    endloop
  endfacet
  facet normal 0.338751 -0.940876 0
    outer loop
      vertex -13.2297 11.8015 0
      vertex -12.4795 12.0716 3
      vertex -13.2297 11.8015 3
    endloop
  endfacet
  facet normal 0 0 -1
    outer loop
      vertex -13.2297 11.8015 0
      vertex -8 20.6979 0
      vertex -12.4795 12.0716 0
    endloop
  endfacet
  facet normal 0 0 -1
    outer loop
      vertex -13.9615 -11.4848 0
      vertex -13.2297 -11.8015 0
      vertex -8 -20.6979 0
    endloop
  endfacet
  facet normal 0.397171 0.917745 0
    outer loop
      vertex -13.9615 -11.4848 0
      vertex -13.9615 -11.4848 3
      vertex -13.2297 -11.8015 0
    endloop
  endfacet
  facet normal 0.397171 0.917745 -0
    outer loop
      vertex -13.9615 -11.4848 3
      vertex -13.2297 -11.8015 3
      vertex -13.2297 -11.8015 0
    endloop
  endfacet
  facet normal 0.397171 -0.917745 0
    outer loop
      vertex -13.9615 11.4848 0
      vertex -13.2297 11.8015 0
      vertex -13.2297 11.8015 3
    endloop
  endfacet
  facet normal 0.397171 -0.917745 0
    outer loop
      vertex -13.9615 11.4848 0
      vertex -13.2297 11.8015 3
      vertex -13.9615 11.4848 3
    endloop
  endfacet
  facet normal 0 0 -1
    outer loop
      vertex -13.9615 11.4848 0
      vertex -8 20.6979 0
      vertex -13.2297 11.8015 0
    endloop
  endfacet
  facet normal 0.453973 0.891016 0
    outer loop
      vertex -14.672 -11.1228 0
      vertex -14.672 -11.1228 3
      vertex -13.9615 -11.4848 0
    endloop
  endfacet
  facet normal 0.453973 0.891016 -0
    outer loop
      vertex -14.672 -11.1228 3
      vertex -13.9615 -11.4848 3
      vertex -13.9615 -11.4848 0
    endloop
  endfacet
  facet normal 0.453973 -0.891016 0
    outer loop
      vertex -14.672 11.1228 0
      vertex -13.9615 11.4848 0
      vertex -13.9615 11.4848 3
    endloop
  endfacet
  facet normal 0.453973 -0.891016 0
    outer loop
      vertex -14.672 11.1228 0
      vertex -13.9615 11.4848 3
      vertex -14.672 11.1228 3
    endloop
  endfacet
  facet normal 0.509063 0.860729 0
    outer loop
      vertex -15.3583 -10.7169 0
      vertex -15.3583 -10.7169 3
      vertex -14.672 -11.1228 0
    endloop
  endfacet
  facet normal 0.509063 0.860729 -0
    outer loop
      vertex -15.3583 -10.7169 3
      vertex -14.672 -11.1228 3
      vertex -14.672 -11.1228 0
    endloop
  endfacet
  facet normal 0.509063 -0.860729 0
    outer loop
      vertex -15.3583 10.7169 0
      vertex -14.672 11.1228 0
      vertex -14.672 11.1228 3
    endloop
  endfacet
  facet normal 0.509063 -0.860729 0
    outer loop
      vertex -15.3583 10.7169 0
      vertex -14.672 11.1228 3
      vertex -15.3583 10.7169 3
    endloop
  endfacet
  facet normal 0.562087 0.827078 0
    outer loop
      vertex -16.0178 -10.2687 0
      vertex -16.0178 -10.2687 3
      vertex -15.3583 -10.7169 0
    endloop
  endfacet
  facet normal 0.562087 0.827078 -0
    outer loop
      vertex -16.0178 -10.2687 3
      vertex -15.3583 -10.7169 3
      vertex -15.3583 -10.7169 0
    endloop
  endfacet
  facet normal 0.562087 -0.827078 0
    outer loop
      vertex -16.0178 10.2687 0
      vertex -15.3583 10.7169 0
      vertex -15.3583 10.7169 3
    endloop
  endfacet
  facet normal 0.562087 -0.827078 0
    outer loop
      vertex -16.0178 10.2687 0
      vertex -15.3583 10.7169 3
      vertex -16.0178 10.2687 3
    endloop
  endfacet
  facet normal 0.612871 0.790183 0
    outer loop
      vertex -16.6479 -9.77999 0
      vertex -16.6479 -9.77999 3
      vertex -16.0178 -10.2687 0
    endloop
  endfacet
  facet normal 0.612871 0.790183 -0
    outer loop
      vertex -16.6479 -9.77999 3
      vertex -16.0178 -10.2687 3
      vertex -16.0178 -10.2687 0
    endloop
  endfacet
  facet normal 0.612871 -0.790183 0
    outer loop
      vertex -16.6479 9.77999 0
      vertex -16.0178 10.2687 0
      vertex -16.0178 10.2687 3
    endloop
  endfacet
  facet normal 0.612871 -0.790183 0
    outer loop
      vertex -16.6479 9.77999 0
      vertex -16.0178 10.2687 3
      vertex -16.6479 9.77999 3
    endloop
  endfacet
  facet normal 0.661322 0.750102 0
    outer loop
      vertex -17.246 -9.25268 0
      vertex -17.246 -9.25268 3
      vertex -16.6479 -9.77999 0
    endloop
  endfacet
  facet normal 0.661322 0.750102 -0
    outer loop
      vertex -17.246 -9.25268 3
      vertex -16.6479 -9.77999 3
      vertex -16.6479 -9.77999 0
    endloop
  endfacet
  facet normal 0.661322 -0.750102 0
    outer loop
      vertex -17.246 9.25268 0
      vertex -16.6479 9.77999 0
      vertex -16.6479 9.77999 3
    endloop
  endfacet
  facet normal 0.661322 -0.750102 0
    outer loop
      vertex -17.246 9.25268 0
      vertex -16.6479 9.77999 3
      vertex -17.246 9.25268 3
    endloop
  endfacet
  facet normal 0.707132 0.707082 0
    outer loop
      vertex -17.8098 -8.68884 0
      vertex -17.8098 -8.68884 3
      vertex -17.246 -9.25268 0
    endloop
  endfacet
  facet normal 0.707132 0.707082 -0
    outer loop
      vertex -17.8098 -8.68884 3
      vertex -17.246 -9.25268 3
      vertex -17.246 -9.25268 0
    endloop
  endfacet
  facet normal 0.707132 -0.707082 0
    outer loop
      vertex -17.8098 8.68884 0
      vertex -17.246 9.25268 0
      vertex -17.246 9.25268 3
    endloop
  endfacet
  facet normal 0.707132 -0.707082 0
    outer loop
      vertex -17.8098 8.68884 0
      vertex -17.246 9.25268 3
      vertex -17.8098 8.68884 3
    endloop
  endfacet
  facet normal 0.750057 0.661373 0
    outer loop
      vertex -18.3372 -8.09072 0
      vertex -17.8098 -8.68884 3
      vertex -17.8098 -8.68884 0
    endloop
  endfacet
  facet normal 0.750057 0.661373 0
    outer loop
      vertex -18.3372 -8.09072 0
      vertex -18.3372 -8.09072 3
      vertex -17.8098 -8.68884 3
    endloop
  endfacet
  facet normal 0.750057 -0.661373 0
    outer loop
      vertex -18.3372 8.09072 0
      vertex -17.8098 8.68884 0
      vertex -18.3372 8.09072 3
    endloop
  endfacet
  facet normal 0.750057 -0.661373 0
    outer loop
      vertex -18.3372 8.09072 3
      vertex -17.8098 8.68884 0
      vertex -17.8098 8.68884 3
    endloop
  endfacet
  facet normal 0.79017 0.612888 0
    outer loop
      vertex -18.8259 -7.46066 0
      vertex -18.3372 -8.09072 3
      vertex -18.3372 -8.09072 0
    endloop
  endfacet
  facet normal 0.79017 0.612888 0
    outer loop
      vertex -18.8259 -7.46066 0
      vertex -18.8259 -7.46066 3
      vertex -18.3372 -8.09072 3
    endloop
  endfacet
  facet normal 0.79017 -0.612888 0
    outer loop
      vertex -18.8259 7.46066 0
      vertex -18.3372 8.09072 0
      vertex -18.8259 7.46066 3
    endloop
  endfacet
  facet normal 0.79017 -0.612888 0
    outer loop
      vertex -18.8259 7.46066 3
      vertex -18.3372 8.09072 0
      vertex -18.3372 8.09072 3
    endloop
  endfacet
  facet normal 0.827078 0.562087 0
    outer loop
      vertex -19.2741 -6.80116 0
      vertex -18.8259 -7.46066 3
      vertex -18.8259 -7.46066 0
    endloop
  endfacet
  facet normal 0.827078 0.562087 0
    outer loop
      vertex -19.2741 -6.80116 0
      vertex -19.2741 -6.80116 3
      vertex -18.8259 -7.46066 3
    endloop
  endfacet
  facet normal 0.827078 -0.562087 0
    outer loop
      vertex -19.2741 6.80116 0
      vertex -18.8259 7.46066 0
      vertex -19.2741 6.80116 3
    endloop
  endfacet
  facet normal 0.827078 -0.562087 0
    outer loop
      vertex -19.2741 6.80116 3
      vertex -18.8259 7.46066 0
      vertex -18.8259 7.46066 3
    endloop
  endfacet
  facet normal 0.860742 0.509041 0
    outer loop
      vertex -19.68 -6.11482 0
      vertex -19.2741 -6.80116 3
      vertex -19.2741 -6.80116 0
    endloop
  endfacet
  facet normal 0.860742 0.509041 0
    outer loop
      vertex -19.68 -6.11482 0
      vertex -19.68 -6.11482 3
      vertex -19.2741 -6.80116 3
    endloop
  endfacet
  facet normal 0.860742 -0.509041 0
    outer loop
      vertex -19.68 6.11482 0
      vertex -19.2741 6.80116 0
      vertex -19.68 6.11482 3
    endloop
  endfacet
  facet normal 0.860742 -0.509041 0
    outer loop
      vertex -19.68 6.11482 3
      vertex -19.2741 6.80116 0
      vertex -19.2741 6.80116 3
    endloop
  endfacet
  facet normal 0.89101 0.453983 0
    outer loop
      vertex -20.042 -5.40434 0
      vertex -19.68 -6.11482 3
      vertex -19.68 -6.11482 0
    endloop
  endfacet
  facet normal 0.89101 0.453983 0
    outer loop
      vertex -20.042 -5.40434 0
      vertex -20.042 -5.40434 3
      vertex -19.68 -6.11482 3
    endloop
  endfacet
  facet normal 0.89101 -0.453983 0
    outer loop
      vertex -20.042 5.40434 0
      vertex -19.68 6.11482 0
      vertex -20.042 5.40434 3
    endloop
  endfacet
  facet normal 0.89101 -0.453983 0
    outer loop
      vertex -20.042 5.40434 3
      vertex -19.68 6.11482 0
      vertex -19.68 6.11482 3
    endloop
  endfacet
  facet normal 0.917745 0.397171 0
    outer loop
      vertex -20.3587 -4.67254 0
      vertex -20.042 -5.40434 3
      vertex -20.042 -5.40434 0
    endloop
  endfacet
  facet normal 0.917745 0.397171 0
    outer loop
      vertex -20.3587 -4.67254 0
      vertex -20.3587 -4.67254 3
      vertex -20.042 -5.40434 3
    endloop
  endfacet
  facet normal 0.917745 -0.397171 0
    outer loop
      vertex -20.3587 4.67254 0
      vertex -20.042 5.40434 0
      vertex -20.3587 4.67254 3
    endloop
  endfacet
  facet normal 0.917745 -0.397171 0
    outer loop
      vertex -20.3587 4.67254 3
      vertex -20.042 5.40434 0
      vertex -20.042 5.40434 3
    endloop
  endfacet
  facet normal 0.940882 0.338735 0
    outer loop
      vertex -20.6288 -3.9223 0
      vertex -20.3587 -4.67254 3
      vertex -20.3587 -4.67254 0
    endloop
  endfacet
  facet normal 0.940882 0.338735 0
    outer loop
      vertex -20.6288 -3.9223 0
      vertex -20.6288 -3.9223 3
      vertex -20.3587 -4.67254 3
    endloop
  endfacet
  facet normal 0.940882 -0.338735 0
    outer loop
      vertex -20.6288 3.9223 0
      vertex -20.3587 4.67254 0
      vertex -20.6288 3.9223 3
    endloop
  endfacet
  facet normal 0.940882 -0.338735 0
    outer loop
      vertex -20.6288 3.9223 3
      vertex -20.3587 4.67254 0
      vertex -20.3587 4.67254 3
    endloop
  endfacet
  facet normal 0.960315 0.278919 0
    outer loop
      vertex -20.8512 -3.15658 0
      vertex -20.6288 -3.9223 3
      vertex -20.6288 -3.9223 0
    endloop
  endfacet
  facet normal 0.960315 0.278919 0
    outer loop
      vertex -20.8512 -3.15658 0
      vertex -20.8512 -3.15658 3
      vertex -20.6288 -3.9223 3
    endloop
  endfacet
  facet normal 0.960315 -0.278919 0
    outer loop
      vertex -20.8512 3.15658 0
      vertex -20.6288 3.9223 0
      vertex -20.8512 3.15658 3
    endloop
  endfacet
  facet normal 0.960315 -0.278919 0
    outer loop
      vertex -20.8512 3.15658 3
      vertex -20.6288 3.9223 0
      vertex -20.6288 3.9223 3
    endloop
  endfacet
  facet normal 0.975902 0.21821 0
    outer loop
      vertex -21.0252 -2.3784 0
      vertex -20.8512 -3.15658 3
      vertex -20.8512 -3.15658 0
    endloop
  endfacet
  facet normal 0.975902 0.21821 0
    outer loop
      vertex -21.0252 -2.3784 0
      vertex -21.0252 -2.3784 3
      vertex -20.8512 -3.15658 3
    endloop
  endfacet
  facet normal 0.975902 -0.21821 0
    outer loop
      vertex -21.0252 2.3784 0
      vertex -20.8512 3.15658 0
      vertex -21.0252 2.3784 3
    endloop
  endfacet
  facet normal 0.975902 -0.21821 0
    outer loop
      vertex -21.0252 2.3784 3
      vertex -20.8512 3.15658 0
      vertex -20.8512 3.15658 3
    endloop
  endfacet
  facet normal 0.987696 0.156387 0
    outer loop
      vertex -21.1499 -1.59083 0
      vertex -21.0252 -2.3784 3
      vertex -21.0252 -2.3784 0
    endloop
  endfacet
  facet normal 0.987696 0.156387 0
    outer loop
      vertex -21.1499 -1.59083 0
      vertex -21.1499 -1.59083 3
      vertex -21.0252 -2.3784 3
    endloop
  endfacet
  facet normal 0.987696 -0.156387 0
    outer loop
      vertex -21.1499 1.59083 0
      vertex -21.0252 2.3784 0
      vertex -21.1499 1.59083 3
    endloop
  endfacet
  facet normal 0.987696 -0.156387 0
    outer loop
      vertex -21.1499 1.59083 3
      vertex -21.0252 2.3784 0
      vertex -21.0252 2.3784 3
    endloop
  endfacet
  facet normal 0.995555 0.0941828 0
    outer loop
      vertex -21.225 -0.796989 0
      vertex -21.1499 -1.59083 3
      vertex -21.1499 -1.59083 0
    endloop
  endfacet
  facet normal 0.995555 0.0941828 0
    outer loop
      vertex -21.225 -0.796989 0
      vertex -21.225 -0.796989 3
      vertex -21.1499 -1.59083 3
    endloop
  endfacet
  facet normal 0.995555 -0.0941828 0
    outer loop
      vertex -21.225 0.796989 0
      vertex -21.1499 1.59083 0
      vertex -21.225 0.796989 3
    endloop
  endfacet
  facet normal 0.995555 -0.0941828 0
    outer loop
      vertex -21.225 0.796989 3
      vertex -21.1499 1.59083 0
      vertex -21.1499 1.59083 3
    endloop
  endfacet
  facet normal 0 1 -0
    outer loop
      vertex -21.25 -21.6979 13
      vertex 0 -21.6979 8
      vertex -5 -21.6979 3
    endloop
  endfacet
  facet normal 0 1 0
    outer loop
      vertex -21.25 -21.6979 13
      vertex 21.25 -21.6979 13
      vertex 0 -21.6979 8
    endloop
  endfacet
  facet normal -0 0 1
    outer loop
      vertex -21.25 -21.6979 13
      vertex 26.25 -26.6979 13
      vertex 21.25 -21.6979 13
    endloop
  endfacet
  facet normal 0 0 1
    outer loop
      vertex -21.25 -21.6979 3
      vertex -11.7137 -12.2941 3
      vertex -12.4795 -12.0716 3
    endloop
  endfacet
  facet normal 0 0 1
    outer loop
      vertex -21.25 -21.6979 3
      vertex -12.4795 -12.0716 3
      vertex -13.2297 -11.8015 3
    endloop
  endfacet
  facet normal 0 0 1
    outer loop
      vertex -21.25 -21.6979 3
      vertex -13.2297 -11.8015 3
      vertex -13.9615 -11.4848 3
    endloop
  endfacet
  facet normal 0 0 1
    outer loop
      vertex -21.25 -21.6979 3
      vertex -13.9615 -11.4848 3
      vertex -14.672 -11.1228 3
    endloop
  endfacet
  facet normal 0 0 1
    outer loop
      vertex -21.25 -21.6979 3
      vertex -14.672 -11.1228 3
      vertex -15.3583 -10.7169 3
    endloop
  endfacet
  facet normal 0 0 1
    outer loop
      vertex -21.25 -21.6979 3
      vertex -15.3583 -10.7169 3
      vertex -16.0178 -10.2687 3
    endloop
  endfacet
  facet normal 0 0 1
    outer loop
      vertex -21.25 -21.6979 3
      vertex -16.0178 -10.2687 3
      vertex -16.6479 -9.77999 3
    endloop
  endfacet
  facet normal 0 0 1
    outer loop
      vertex -21.25 -21.6979 3
      vertex -16.6479 -9.77999 3
      vertex -17.246 -9.25268 3
    endloop
  endfacet
  facet normal 0 0 1
    outer loop
      vertex -21.25 -21.6979 3
      vertex -17.246 -9.25268 3
      vertex -17.8098 -8.68884 3
    endloop
  endfacet
  facet normal 0 0 1
    outer loop
      vertex -21.25 -21.6979 3
      vertex -17.8098 -8.68884 3
      vertex -18.3372 -8.09072 3
    endloop
  endfacet
  facet normal 0 0 1
    outer loop
      vertex -21.25 -21.6979 3
      vertex -18.3372 -8.09072 3
      vertex -18.8259 -7.46066 3
    endloop
  endfacet
  facet normal 0 0 1
    outer loop
      vertex -21.25 -21.6979 3
      vertex -18.8259 -7.46066 3
      vertex -19.2741 -6.80116 3
    endloop
  endfacet
  facet normal 0 0 1
    outer loop
      vertex -21.25 -21.6979 3
      vertex -19.2741 -6.80116 3
      vertex -19.68 -6.11482 3
    endloop
  endfacet
  facet normal 0 0 1
    outer loop
      vertex -21.25 -21.6979 3
      vertex -19.68 -6.11482 3
      vertex -20.042 -5.40434 3
    endloop
  endfacet
  facet normal 0 0 1
    outer loop
      vertex -21.25 -21.6979 3
      vertex -20.042 -5.40434 3
      vertex -20.3587 -4.67254 3
    endloop
  endfacet
  facet normal 0 0 1
    outer loop
      vertex -21.25 -21.6979 3
      vertex -20.3587 -4.67254 3
      vertex -20.6288 -3.9223 3
    endloop
  endfacet
  facet normal 0 0 1
    outer loop
      vertex -21.25 -21.6979 3
      vertex -20.6288 -3.9223 3
      vertex -20.8512 -3.15658 3
    endloop
  endfacet
  facet normal 0 0 1
    outer loop
      vertex -21.25 -21.6979 3
      vertex -20.8512 -3.15658 3
      vertex -21.0252 -2.3784 3
    endloop
  endfacet
  facet normal 0 0 1
    outer loop
      vertex -21.25 -21.6979 3
      vertex -21.0252 -2.3784 3
      vertex -21.1499 -1.59083 3
    endloop
  endfacet
  facet normal 0 0 1
    outer loop
      vertex -21.25 -21.6979 3
      vertex -21.1499 -1.59083 3
      vertex -21.225 -0.796989 3
    endloop
  endfacet
  facet normal 0 0 1
    outer loop
      vertex -21.25 -21.6979 3
      vertex -21.225 -0.796989 3
      vertex -21.25 0 3
    endloop
  endfacet
  facet normal 0 1 0
    outer loop
      vertex -21.25 -21.6979 3
      vertex -21.25 -21.6979 13
      vertex -5 -21.6979 3
    endloop
  endfacet
  facet normal 1 0 0
    outer loop
      vertex -21.25 -21.6979 3
      vertex -21.25 -5 13
      vertex -21.25 -21.6979 13
    endloop
  endfacet
  facet normal 1 0 0
    outer loop
      vertex -21.25 -21.6979 3
      vertex -21.25 0 3
      vertex -21.25 -5 13
    endloop
  endfacet
  facet normal 0 0 1
    outer loop
      vertex -21.25 -21.6979 3
      vertex -5 -20.6979 3
      vertex -11.7137 -12.2941 3
    endloop
  endfacet
  facet normal 0 0 1
    outer loop
      vertex -21.25 -21.6979 3
      vertex -5 -21.6979 3
      vertex -5 -20.6979 3
    endloop
  endfacet
  facet normal 1 0 0
    outer loop
      vertex -21.25 -5 13
      vertex -21.25 0 3
      vertex -21.25 0 8
    endloop
  endfacet
  facet normal 0.999508 0.0313526 0
    outer loop
      vertex -21.25 0 0
      vertex -21.225 -0.796989 3
      vertex -21.225 -0.796989 0
    endloop
  endfacet
  facet normal 0.999508 -0.0313526 0
    outer loop
      vertex -21.25 0 0
      vertex -21.225 0.796989 0
      vertex -21.25 0 3
    endloop
  endfacet
  facet normal 0.999508 0.0313526 0
    outer loop
      vertex -21.25 0 0
      vertex -21.25 0 3
      vertex -21.225 -0.796989 3
    endloop
  endfacet
  facet normal 0.999508 -0.0313526 0
    outer loop
      vertex -21.25 0 3
      vertex -21.225 0.796989 0
      vertex -21.225 0.796989 3
    endloop
  endfacet
  facet normal 0 0 1
    outer loop
      vertex -21.25 0 3
      vertex -21.225 0.796989 3
      vertex -21.25 21.6979 3
    endloop
  endfacet
  facet normal 1 0 0
    outer loop
      vertex -21.25 0 3
      vertex -21.25 21.6979 3
      vertex -21.25 5 13
    endloop
  endfacet
  facet normal 1 0 0
    outer loop
      vertex -21.25 0 3
      vertex -21.25 5 13
      vertex -21.25 0 8
    endloop
  endfacet
  facet normal 0 -1 0
    outer loop
      vertex -21.25 21.6979 13
      vertex -5 21.6979 3
      vertex 0 21.6979 8
    endloop
  endfacet
  facet normal 0 -1 0
    outer loop
      vertex -21.25 21.6979 13
      vertex 0 21.6979 8
      vertex 21.25 21.6979 13
    endloop
  endfacet
  facet normal 0 0 1
    outer loop
      vertex -21.25 21.6979 13
      vertex 21.25 21.6979 13
      vertex 26.25 26.6979 13
    endloop
  endfacet
  facet normal 0 0 1
    outer loop
      vertex -21.25 21.6979 3
      vertex -11.7137 12.2941 3
      vertex -5 20.6979 3
    endloop
  endfacet
  facet normal 0 0 1
    outer loop
      vertex -21.25 21.6979 3
      vertex -12.4795 12.0716 3
      vertex -11.7137 12.2941 3
    endloop
  endfacet
  facet normal 0 0 1
    outer loop
      vertex -21.25 21.6979 3
      vertex -13.2297 11.8015 3
      vertex -12.4795 12.0716 3
    endloop
  endfacet
  facet normal 0 0 1
    outer loop
      vertex -21.25 21.6979 3
      vertex -13.9615 11.4848 3
      vertex -13.2297 11.8015 3
    endloop
  endfacet
  facet normal 0 0 1
    outer loop
      vertex -21.25 21.6979 3
      vertex -14.672 11.1228 3
      vertex -13.9615 11.4848 3
    endloop
  endfacet
  facet normal 0 0 1
    outer loop
      vertex -21.25 21.6979 3
      vertex -15.3583 10.7169 3
      vertex -14.672 11.1228 3
    endloop
  endfacet
  facet normal 0 0 1
    outer loop
      vertex -21.25 21.6979 3
      vertex -16.0178 10.2687 3
      vertex -15.3583 10.7169 3
    endloop
  endfacet
  facet normal 0 0 1
    outer loop
      vertex -21.25 21.6979 3
      vertex -16.6479 9.77999 3
      vertex -16.0178 10.2687 3
    endloop
  endfacet
  facet normal 0 0 1
    outer loop
      vertex -21.25 21.6979 3
      vertex -17.246 9.25268 3
      vertex -16.6479 9.77999 3
    endloop
  endfacet
  facet normal 0 0 1
    outer loop
      vertex -21.25 21.6979 3
      vertex -17.8098 8.68884 3
      vertex -17.246 9.25268 3
    endloop
  endfacet
  facet normal 0 0 1
    outer loop
      vertex -21.25 21.6979 3
      vertex -18.3372 8.09072 3
      vertex -17.8098 8.68884 3
    endloop
  endfacet
  facet normal 0 0 1
    outer loop
      vertex -21.25 21.6979 3
      vertex -18.8259 7.46066 3
      vertex -18.3372 8.09072 3
    endloop
  endfacet
  facet normal 0 0 1
    outer loop
      vertex -21.25 21.6979 3
      vertex -19.2741 6.80116 3
      vertex -18.8259 7.46066 3
    endloop
  endfacet
  facet normal 0 0 1
    outer loop
      vertex -21.25 21.6979 3
      vertex -19.68 6.11482 3
      vertex -19.2741 6.80116 3
    endloop
  endfacet
  facet normal 0 0 1
    outer loop
      vertex -21.25 21.6979 3
      vertex -20.042 5.40434 3
      vertex -19.68 6.11482 3
    endloop
  endfacet
  facet normal 0 0 1
    outer loop
      vertex -21.25 21.6979 3
      vertex -20.3587 4.67254 3
      vertex -20.042 5.40434 3
    endloop
  endfacet
  facet normal 0 0 1
    outer loop
      vertex -21.25 21.6979 3
      vertex -20.6288 3.9223 3
      vertex -20.3587 4.67254 3
    endloop
  endfacet
  facet normal 0 0 1
    outer loop
      vertex -21.25 21.6979 3
      vertex -20.8512 3.15658 3
      vertex -20.6288 3.9223 3
    endloop
  endfacet
  facet normal 0 0 1
    outer loop
      vertex -21.25 21.6979 3
      vertex -21.0252 2.3784 3
      vertex -20.8512 3.15658 3
    endloop
  endfacet
  facet normal 0 0 1
    outer loop
      vertex -21.25 21.6979 3
      vertex -21.1499 1.59083 3
      vertex -21.0252 2.3784 3
    endloop
  endfacet
  facet normal 0 0 1
    outer loop
      vertex -21.25 21.6979 3
      vertex -21.225 0.796989 3
      vertex -21.1499 1.59083 3
    endloop
  endfacet
  facet normal -0 0 1
    outer loop
      vertex -21.25 21.6979 3
      vertex -5 20.6979 3
      vertex -5 21.6979 3
    endloop
  endfacet
  facet normal 0 -1 0
    outer loop
      vertex -21.25 21.6979 3
      vertex -5 21.6979 3
      vertex -21.25 21.6979 13
    endloop
  endfacet
  facet normal 1 -0 0
    outer loop
      vertex -21.25 5 13
      vertex -21.25 21.6979 3
      vertex -21.25 21.6979 13
    endloop
  endfacet
  facet normal 0 -0 -1
    outer loop
      vertex -26.25 -26.6979 0
      vertex -13.9615 -11.4848 0
      vertex -8 -20.6979 0
    endloop
  endfacet
  facet normal -0 0 -1
    outer loop
      vertex -26.25 -26.6979 0
      vertex -14.672 -11.1228 0
      vertex -13.9615 -11.4848 0
    endloop
  endfacet
  facet normal -0 0 -1
    outer loop
      vertex -26.25 -26.6979 0
      vertex -15.3583 -10.7169 0
      vertex -14.672 -11.1228 0
    endloop
  endfacet
  facet normal -0 0 -1
    outer loop
      vertex -26.25 -26.6979 0
      vertex -16.0178 -10.2687 0
      vertex -15.3583 -10.7169 0
    endloop
  endfacet
  facet normal -0 0 -1
    outer loop
      vertex -26.25 -26.6979 0
      vertex -16.6479 -9.77999 0
      vertex -16.0178 -10.2687 0
    endloop
  endfacet
  facet normal -0 0 -1
    outer loop
      vertex -26.25 -26.6979 0
      vertex -17.246 -9.25268 0
      vertex -16.6479 -9.77999 0
    endloop
  endfacet
  facet normal -0 0 -1
    outer loop
      vertex -26.25 -26.6979 0
      vertex -17.8098 -8.68884 0
      vertex -17.246 -9.25268 0
    endloop
  endfacet
  facet normal -0 0 -1
    outer loop
      vertex -26.25 -26.6979 0
      vertex -18.3372 -8.09072 0
      vertex -17.8098 -8.68884 0
    endloop
  endfacet
  facet normal -0 0 -1
    outer loop
      vertex -26.25 -26.6979 0
      vertex -18.8259 -7.46066 0
      vertex -18.3372 -8.09072 0
    endloop
  endfacet
  facet normal -0 0 -1
    outer loop
      vertex -26.25 -26.6979 0
      vertex -19.2741 -6.80116 0
      vertex -18.8259 -7.46066 0
    endloop
  endfacet
  facet normal -0 0 -1
    outer loop
      vertex -26.25 -26.6979 0
      vertex -19.68 -6.11482 0
      vertex -19.2741 -6.80116 0
    endloop
  endfacet
  facet normal -0 0 -1
    outer loop
      vertex -26.25 -26.6979 0
      vertex -20.042 -5.40434 0
      vertex -19.68 -6.11482 0
    endloop
  endfacet
  facet normal -0 0 -1
    outer loop
      vertex -26.25 -26.6979 0
      vertex -20.3587 -4.67254 0
      vertex -20.042 -5.40434 0
    endloop
  endfacet
  facet normal -0 0 -1
    outer loop
      vertex -26.25 -26.6979 0
      vertex -20.6288 -3.9223 0
      vertex -20.3587 -4.67254 0
    endloop
  endfacet
  facet normal -0 0 -1
    outer loop
      vertex -26.25 -26.6979 0
      vertex -20.8512 -3.15658 0
      vertex -20.6288 -3.9223 0
    endloop
  endfacet
  facet normal -0 0 -1
    outer loop
      vertex -26.25 -26.6979 0
      vertex -21.0252 -2.3784 0
      vertex -20.8512 -3.15658 0
    endloop
  endfacet
  facet normal -0 0 -1
    outer loop
      vertex -26.25 -26.6979 0
      vertex -21.1499 -1.59083 0
      vertex -21.0252 -2.3784 0
    endloop
  endfacet
  facet normal -0 0 -1
    outer loop
      vertex -26.25 -26.6979 0
      vertex -21.225 -0.796989 0
      vertex -21.1499 -1.59083 0
    endloop
  endfacet
  facet normal -0 0 -1
    outer loop
      vertex -26.25 -26.6979 0
      vertex -21.25 0 0
      vertex -21.225 -0.796989 0
    endloop
  endfacet
  facet normal -1 -0 0
    outer loop
      vertex -26.25 -26.6979 0
      vertex -26.25 -26.6979 13
      vertex -26.25 -5 13
    endloop
  endfacet
  facet normal -1 0 0
    outer loop
      vertex -26.25 -26.6979 0
      vertex -26.25 -5 13
      vertex -26.25 0 8
    endloop
  endfacet
  facet normal -1 0 0
    outer loop
      vertex -26.25 -26.6979 0
      vertex -26.25 0 8
      vertex -26.25 26.6979 0
    endloop
  endfacet
  facet normal 0 0 -1
    outer loop
      vertex -26.25 -26.6979 0
      vertex -26.25 26.6979 0
      vertex -21.25 0 0
    endloop
  endfacet
  facet normal 0 0 -1
    outer loop
      vertex -26.25 -26.6979 0
      vertex -8 -20.6979 0
      vertex -8 -26.6979 0
    endloop
  endfacet
  facet normal 0 -1 0
    outer loop
      vertex -26.25 -26.6979 0
      vertex -8 -26.6979 0
      vertex -26.25 -26.6979 13
    endloop
  endfacet
  facet normal 0 0 1
    outer loop
      vertex -26.25 -26.6979 13
      vertex -21.25 -21.6979 13
      vertex -26.25 -5 13
    endloop
  endfacet
  facet normal 0 -1 0
    outer loop
      vertex -26.25 -26.6979 13
      vertex -8 -26.6979 0
      vertex 0 -26.6979 8
    endloop
  endfacet
  facet normal 0 -1 0
    outer loop
      vertex -26.25 -26.6979 13
      vertex 0 -26.6979 8
      vertex 26.25 -26.6979 13
    endloop
  endfacet
  facet normal 0 0 1
    outer loop
      vertex -26.25 -26.6979 13
      vertex 26.25 -26.6979 13
      vertex -21.25 -21.6979 13
    endloop
  endfacet
  facet normal 0 0 1
    outer loop
      vertex -26.25 -5 13
      vertex -21.25 -21.6979 13
      vertex -21.25 -5 13
    endloop
  endfacet
  facet normal 0 0.707107 0.707107
    outer loop
      vertex -26.25 -5 13
      vertex -21.25 -5 13
      vertex -21.25 0 8
    endloop
  endfacet
  facet normal 0 0.707107 0.707107
    outer loop
      vertex -26.25 -5 13
      vertex -21.25 0 8
      vertex -26.25 0 8
    endloop
  endfacet
  facet normal 0 -0.707107 0.707107
    outer loop
      vertex -26.25 0 8
      vertex -21.25 0 8
      vertex -21.25 5 13
    endloop
  endfacet
  facet normal 0 -0.707107 0.707107
    outer loop
      vertex -26.25 0 8
      vertex -21.25 5 13
      vertex -26.25 5 13
    endloop
  endfacet
  facet normal -1 0 0
    outer loop
      vertex -26.25 0 8
      vertex -26.25 5 13
      vertex -26.25 26.6979 0
    endloop
  endfacet
  facet normal 0 0 -1
    outer loop
      vertex -26.25 26.6979 0
      vertex -13.9615 11.4848 0
      vertex -14.672 11.1228 0
    endloop
  endfacet
  facet normal 0 0 -1
    outer loop
      vertex -26.25 26.6979 0
      vertex -14.672 11.1228 0
      vertex -15.3583 10.7169 0
    endloop
  endfacet
  facet normal 0 0 -1
    outer loop
      vertex -26.25 26.6979 0
      vertex -15.3583 10.7169 0
      vertex -16.0178 10.2687 0
    endloop
  endfacet
  facet normal 0 0 -1
    outer loop
      vertex -26.25 26.6979 0
      vertex -16.0178 10.2687 0
      vertex -16.6479 9.77999 0
    endloop
  endfacet
  facet normal 0 0 -1
    outer loop
      vertex -26.25 26.6979 0
      vertex -16.6479 9.77999 0
      vertex -17.246 9.25268 0
    endloop
  endfacet
  facet normal 0 0 -1
    outer loop
      vertex -26.25 26.6979 0
      vertex -17.246 9.25268 0
      vertex -17.8098 8.68884 0
    endloop
  endfacet
  facet normal 0 0 -1
    outer loop
      vertex -26.25 26.6979 0
      vertex -17.8098 8.68884 0
      vertex -18.3372 8.09072 0
    endloop
  endfacet
  facet normal 0 0 -1
    outer loop
      vertex -26.25 26.6979 0
      vertex -18.3372 8.09072 0
      vertex -18.8259 7.46066 0
    endloop
  endfacet
  facet normal 0 0 -1
    outer loop
      vertex -26.25 26.6979 0
      vertex -18.8259 7.46066 0
      vertex -19.2741 6.80116 0
    endloop
  endfacet
  facet normal 0 0 -1
    outer loop
      vertex -26.25 26.6979 0
      vertex -19.2741 6.80116 0
      vertex -19.68 6.11482 0
    endloop
  endfacet
  facet normal 0 0 -1
    outer loop
      vertex -26.25 26.6979 0
      vertex -19.68 6.11482 0
      vertex -20.042 5.40434 0
    endloop
  endfacet
  facet normal 0 0 -1
    outer loop
      vertex -26.25 26.6979 0
      vertex -20.042 5.40434 0
      vertex -20.3587 4.67254 0
    endloop
  endfacet
  facet normal 0 0 -1
    outer loop
      vertex -26.25 26.6979 0
      vertex -20.3587 4.67254 0
      vertex -20.6288 3.9223 0
    endloop
  endfacet
  facet normal 0 0 -1
    outer loop
      vertex -26.25 26.6979 0
      vertex -20.6288 3.9223 0
      vertex -20.8512 3.15658 0
    endloop
  endfacet
  facet normal 0 0 -1
    outer loop
      vertex -26.25 26.6979 0
      vertex -20.8512 3.15658 0
      vertex -21.0252 2.3784 0
    endloop
  endfacet
  facet normal 0 0 -1
    outer loop
      vertex -26.25 26.6979 0
      vertex -21.0252 2.3784 0
      vertex -21.1499 1.59083 0
    endloop
  endfacet
  facet normal 0 0 -1
    outer loop
      vertex -26.25 26.6979 0
      vertex -21.1499 1.59083 0
      vertex -21.225 0.796989 0
    endloop
  endfacet
  facet normal 0 0 -1
    outer loop
      vertex -26.25 26.6979 0
      vertex -21.225 0.796989 0
      vertex -21.25 0 0
    endloop
  endfacet
  facet normal 0 1 0
    outer loop
      vertex -26.25 26.6979 0
      vertex -26.25 26.6979 13
      vertex -8 26.6979 0
    endloop
  endfacet
  facet normal -0 0 -1
    outer loop
      vertex -26.25 26.6979 0
      vertex -8 20.6979 0
      vertex -13.9615 11.4848 0
    endloop
  endfacet
  facet normal 0 0 -1
    outer loop
      vertex -26.25 26.6979 0
      vertex -8 26.6979 0
      vertex -8 20.6979 0
    endloop
  endfacet
  facet normal -0 0 1
    outer loop
      vertex -26.25 26.6979 13
      vertex -21.25 21.6979 13
      vertex 26.25 26.6979 13
    endloop
  endfacet
  facet normal 0 1 -0
    outer loop
      vertex -26.25 26.6979 13
      vertex 0 26.6979 8
      vertex -8 26.6979 0
    endloop
  endfacet
  facet normal 0 1 0
    outer loop
      vertex -26.25 26.6979 13
      vertex 26.25 26.6979 13
      vertex 0 26.6979 8
    endloop
  endfacet
  facet normal 0 0 1
    outer loop
      vertex -26.25 5 13
      vertex -21.25 21.6979 13
      vertex -26.25 26.6979 13
    endloop
  endfacet
  facet normal 0 0 1
    outer loop
      vertex -26.25 5 13
      vertex -21.25 5 13
      vertex -21.25 21.6979 13
    endloop
  endfacet
  facet normal -1 0 0
    outer loop
      vertex -26.25 5 13
      vertex -26.25 26.6979 13
      vertex -26.25 26.6979 0
    endloop
  endfacet
  facet normal 0 0 1
    outer loop
      vertex -5 -20.6979 3
      vertex 5 -20.6979 3
      vertex 8.55717 -12.6928 3
    endloop
  endfacet
  facet normal 0.707107 0 -0.707107
    outer loop
      vertex -5 -21.6979 3
      vertex 0 -21.6979 8
      vertex 0 -26.6979 8
    endloop
  endfacet
  facet normal 0 1 0
    outer loop
      vertex -5 20.6979 3
      vertex 5 20.6979 3
      vertex 8 20.6979 0
    endloop
  endfacet
  facet normal -0 0 1
    outer loop
      vertex -5 20.6979 3
      vertex 8.55717 12.6928 3
      vertex 5 20.6979 3
    endloop
  endfacet
  facet normal 0.707107 0 -0.707107
    outer loop
      vertex -5 21.6979 3
      vertex 0 26.6979 8
      vertex 0 21.6979 8
    endloop
  endfacet
  facet normal 0.707107 0 -0.707107
    outer loop
      vertex -8 -20.6979 0
      vertex -5 -20.6979 3
      vertex -5 -21.6979 3
    endloop
  endfacet
  facet normal 0 -1 0
    outer loop
      vertex -8 -20.6979 0
      vertex 5 -20.6979 3
      vertex -5 -20.6979 3
    endloop
  endfacet
  facet normal 0 -1 -0
    outer loop
      vertex -8 -20.6979 0
      vertex 8 -20.6979 0
      vertex 5 -20.6979 3
    endloop
  endfacet
  facet normal 0 0 -1
    outer loop
      vertex -8 -20.6979 0
      vertex 8.55717 -12.6928 0
      vertex 8 -20.6979 0
    endloop
  endfacet
  facet normal 0.707107 0 -0.707107
    outer loop
      vertex -8 -26.6979 0
      vertex -5 -21.6979 3
      vertex 0 -26.6979 8
    endloop
  endfacet
  facet normal 0.707107 0 -0.707107
    outer loop
      vertex -8 -26.6979 0
      vertex -8 -20.6979 0
      vertex -5 -21.6979 3
    endloop
  endfacet
  facet normal 0 1 0
    outer loop
      vertex -8 20.6979 0
      vertex -5 20.6979 3
      vertex 8 20.6979 0
    endloop
  endfacet
  facet normal 0.707107 0 -0.707107
    outer loop
      vertex -8 20.6979 0
      vertex -5 21.6979 3
      vertex -5 20.6979 3
    endloop
  endfacet
  facet normal 0.707107 0 -0.707107
    outer loop
      vertex -8 20.6979 0
      vertex -8 26.6979 0
      vertex -5 21.6979 3
    endloop
  endfacet
  facet normal 0 0 -1
    outer loop
      vertex -8 20.6979 0
      vertex 8 20.6979 0
      vertex 8.55717 12.6928 0
    endloop
  endfacet
  facet normal 0.707107 0 -0.707107
    outer loop
      vertex -8 26.6979 0
      vertex 0 26.6979 8
      vertex -5 21.6979 3
    endloop
  endfacet
  facet normal 0 1 0
    outer loop
      vertex -8.55717 -12.6928 0
      vertex -8.55717 -12.6928 3
      vertex 8.55717 -12.6928 0
    endloop
  endfacet
  facet normal -0 0 -1
    outer loop
      vertex -8.55717 -12.6928 0
      vertex 8.55717 -12.6928 0
      vertex -8 -20.6979 0
    endloop
  endfacet
  facet normal -0 0 1
    outer loop
      vertex -8.55717 -12.6928 3
      vertex -5 -20.6979 3
      vertex 8.55717 -12.6928 3
    endloop
  endfacet
  facet normal 0 1 -0
    outer loop
      vertex -8.55717 -12.6928 3
      vertex 8.55717 -12.6928 3
      vertex 8.55717 -12.6928 0
    endloop
  endfacet
  facet normal 0 0 -1
    outer loop
      vertex -8.55717 12.6928 0
      vertex -8 20.6979 0
      vertex 8.55717 12.6928 0
    endloop
  endfacet
  facet normal 0 -1 -0
    outer loop
      vertex -8.55717 12.6928 0
      vertex 8.55717 12.6928 0
      vertex 8.55717 12.6928 3
    endloop
  endfacet
  facet normal 0 -1 0
    outer loop
      vertex -8.55717 12.6928 0
      vertex 8.55717 12.6928 3
      vertex -8.55717 12.6928 3
    endloop
  endfacet
  facet normal 0 0 1
    outer loop
      vertex -8.55717 12.6928 3
      vertex 8.55717 12.6928 3
      vertex -5 20.6979 3
    endloop
  endfacet
  facet normal 0 0 -1
    outer loop
      vertex -9.35416 -12.6678 0
      vertex -8.55717 -12.6928 0
      vertex -8 -20.6979 0
    endloop
  endfacet
  facet normal 0.0313526 0.999508 0
    outer loop
      vertex -9.35416 -12.6678 0
      vertex -9.35416 -12.6678 3
      vertex -8.55717 -12.6928 0
    endloop
  endfacet
  facet normal 0 0 1
    outer loop
      vertex -9.35416 -12.6678 3
      vertex -5 -20.6979 3
      vertex -8.55717 -12.6928 3
    endloop
  endfacet
  facet normal 0.0313526 0.999508 -0
    outer loop
      vertex -9.35416 -12.6678 3
      vertex -8.55717 -12.6928 3
      vertex -8.55717 -12.6928 0
    endloop
  endfacet
  facet normal 0 0 -1
    outer loop
      vertex -9.35416 12.6678 0
      vertex -8 20.6979 0
      vertex -8.55717 12.6928 0
    endloop
  endfacet
  facet normal 0.0313526 -0.999508 0
    outer loop
      vertex -9.35416 12.6678 0
      vertex -8.55717 12.6928 0
      vertex -8.55717 12.6928 3
    endloop
  endfacet
  facet normal 0.0313526 -0.999508 0
    outer loop
      vertex -9.35416 12.6678 0
      vertex -8.55717 12.6928 3
      vertex -9.35416 12.6678 3
    endloop
  endfacet
  facet normal 0 0 1
    outer loop
      vertex -9.35416 12.6678 3
      vertex -8.55717 12.6928 3
      vertex -5 20.6979 3
    endloop
  endfacet
  facet normal 0 1 0
    outer loop
      vertex 0 -21.6979 8
      vertex 21.25 -21.6979 13
      vertex 5 -21.6979 3
    endloop
  endfacet
  facet normal -0.707107 0 -0.707107
    outer loop
      vertex 0 -26.6979 8
      vertex 0 -21.6979 8
      vertex 5 -21.6979 3
    endloop
  endfacet
  facet normal -0.707107 0 -0.707107
    outer loop
      vertex 0 -26.6979 8
      vertex 5 -21.6979 3
      vertex 8 -26.6979 0
    endloop
  endfacet
  facet normal 0 -1 0
    outer loop
      vertex 0 -26.6979 8
      vertex 8 -26.6979 0
      vertex 26.25 -26.6979 13
    endloop
  endfacet
  facet normal -0.707107 -0 -0.707107
    outer loop
      vertex 0 21.6979 8
      vertex 0 26.6979 8
      vertex 5 21.6979 3
    endloop
  endfacet
  facet normal 0 -1 0
    outer loop
      vertex 0 21.6979 8
      vertex 5 21.6979 3
      vertex 21.25 21.6979 13
    endloop
  endfacet
  facet normal 0 1 0
    outer loop
      vertex 0 26.6979 8
      vertex 26.25 26.6979 13
      vertex 8 26.6979 0
    endloop
  endfacet
  facet normal -0.707107 0 -0.707107
    outer loop
      vertex 0 26.6979 8
      vertex 8 26.6979 0
      vertex 5 21.6979 3
    endloop
  endfacet
  facet normal -0.156381 0.987697 0
    outer loop
      vertex 10.148 -12.5927 0
      vertex 10.148 -12.5927 3
      vertex 10.9356 -12.468 0
    endloop
  endfacet
  facet normal -0.156381 0.987697 0
    outer loop
      vertex 10.148 -12.5927 3
      vertex 10.9356 -12.468 3
      vertex 10.9356 -12.468 0
    endloop
  endfacet
  facet normal -0.156381 -0.987697 -0
    outer loop
      vertex 10.148 12.5927 0
      vertex 10.9356 12.468 0
      vertex 10.9356 12.468 3
    endloop
  endfacet
  facet normal -0.156381 -0.987697 0
    outer loop
      vertex 10.148 12.5927 0
      vertex 10.9356 12.468 3
      vertex 10.148 12.5927 3
    endloop
  endfacet
  facet normal -0.218112 0.975924 0
    outer loop
      vertex 10.9356 -12.468 0
      vertex 10.9356 -12.468 3
      vertex 11.7137 -12.2941 0
    endloop
  endfacet
  facet normal -0.218112 0.975924 0
    outer loop
      vertex 10.9356 -12.468 3
      vertex 11.7137 -12.2941 3
      vertex 11.7137 -12.2941 0
    endloop
  endfacet
  facet normal -0 0 1
    outer loop
      vertex 10.9356 -12.468 3
      vertex 21.25 -21.6979 3
      vertex 11.7137 -12.2941 3
    endloop
  endfacet
  facet normal -0.218112 -0.975924 -0
    outer loop
      vertex 10.9356 12.468 0
      vertex 11.7137 12.2941 0
      vertex 11.7137 12.2941 3
    endloop
  endfacet
  facet normal -0.218112 -0.975924 0
    outer loop
      vertex 10.9356 12.468 0
      vertex 11.7137 12.2941 3
      vertex 10.9356 12.468 3
    endloop
  endfacet
  facet normal 0 0 1
    outer loop
      vertex 10.9356 12.468 3
      vertex 11.7137 12.2941 3
      vertex 21.25 21.6979 3
    endloop
  endfacet
  facet normal -0.279008 0.960289 0
    outer loop
      vertex 11.7137 -12.2941 0
      vertex 11.7137 -12.2941 3
      vertex 12.4795 -12.0716 0
    endloop
  endfacet
  facet normal -0.279008 0.960289 0
    outer loop
      vertex 11.7137 -12.2941 3
      vertex 12.4795 -12.0716 3
      vertex 12.4795 -12.0716 0
    endloop
  endfacet
  facet normal -0 0 1
    outer loop
      vertex 11.7137 -12.2941 3
      vertex 21.25 -21.6979 3
      vertex 12.4795 -12.0716 3
    endloop
  endfacet
  facet normal -0.279008 -0.960289 -0
    outer loop
      vertex 11.7137 12.2941 0
      vertex 12.4795 12.0716 0
      vertex 12.4795 12.0716 3
    endloop
  endfacet
  facet normal -0.279008 -0.960289 0
    outer loop
      vertex 11.7137 12.2941 0
      vertex 12.4795 12.0716 3
      vertex 11.7137 12.2941 3
    endloop
  endfacet
  facet normal 0 0 1
    outer loop
      vertex 11.7137 12.2941 3
      vertex 12.4795 12.0716 3
      vertex 21.25 21.6979 3
    endloop
  endfacet
  facet normal -0.338751 0.940876 0
    outer loop
      vertex 12.4795 -12.0716 0
      vertex 12.4795 -12.0716 3
      vertex 13.2297 -11.8015 0
    endloop
  endfacet
  facet normal -0.338751 0.940876 0
    outer loop
      vertex 12.4795 -12.0716 3
      vertex 13.2297 -11.8015 3
      vertex 13.2297 -11.8015 0
    endloop
  endfacet
  facet normal -0 0 1
    outer loop
      vertex 12.4795 -12.0716 3
      vertex 21.25 -21.6979 3
      vertex 13.2297 -11.8015 3
    endloop
  endfacet
  facet normal -0.338751 -0.940876 -0
    outer loop
      vertex 12.4795 12.0716 0
      vertex 13.2297 11.8015 0
      vertex 13.2297 11.8015 3
    endloop
  endfacet
  facet normal -0.338751 -0.940876 0
    outer loop
      vertex 12.4795 12.0716 0
      vertex 13.2297 11.8015 3
      vertex 12.4795 12.0716 3
    endloop
  endfacet
  facet normal 0 0 1
    outer loop
      vertex 12.4795 12.0716 3
      vertex 13.2297 11.8015 3
      vertex 21.25 21.6979 3
    endloop
  endfacet
  facet normal -0.397171 0.917745 0
    outer loop
      vertex 13.2297 -11.8015 0
      vertex 13.2297 -11.8015 3
      vertex 13.9615 -11.4848 0
    endloop
  endfacet
  facet normal -0.397171 0.917745 0
    outer loop
      vertex 13.2297 -11.8015 3
      vertex 13.9615 -11.4848 3
      vertex 13.9615 -11.4848 0
    endloop
  endfacet
  facet normal -0 0 1
    outer loop
      vertex 13.2297 -11.8015 3
      vertex 21.25 -21.6979 3
      vertex 13.9615 -11.4848 3
    endloop
  endfacet
  facet normal -0.397171 -0.917745 -0
    outer loop
      vertex 13.2297 11.8015 0
      vertex 13.9615 11.4848 0
      vertex 13.9615 11.4848 3
    endloop
  endfacet
  facet normal -0.397171 -0.917745 0
    outer loop
      vertex 13.2297 11.8015 0
      vertex 13.9615 11.4848 3
      vertex 13.2297 11.8015 3
    endloop
  endfacet
  facet normal 0 0 1
    outer loop
      vertex 13.2297 11.8015 3
      vertex 13.9615 11.4848 3
      vertex 21.25 21.6979 3
    endloop
  endfacet
  facet normal -0.453973 0.891016 0
    outer loop
      vertex 13.9615 -11.4848 0
      vertex 13.9615 -11.4848 3
      vertex 14.672 -11.1228 0
    endloop
  endfacet
  facet normal 0 0 -1
    outer loop
      vertex 13.9615 -11.4848 0
      vertex 14.672 -11.1228 0
      vertex 26.25 -26.6979 0
    endloop
  endfacet
  facet normal -0.453973 0.891016 0
    outer loop
      vertex 13.9615 -11.4848 3
      vertex 14.672 -11.1228 3
      vertex 14.672 -11.1228 0
    endloop
  endfacet
  facet normal -0 0 1
    outer loop
      vertex 13.9615 -11.4848 3
      vertex 21.25 -21.6979 3
      vertex 14.672 -11.1228 3
    endloop
  endfacet
  facet normal -0.453973 -0.891016 -0
    outer loop
      vertex 13.9615 11.4848 0
      vertex 14.672 11.1228 0
      vertex 14.672 11.1228 3
    endloop
  endfacet
  facet normal -0.453973 -0.891016 0
    outer loop
      vertex 13.9615 11.4848 0
      vertex 14.672 11.1228 3
      vertex 13.9615 11.4848 3
    endloop
  endfacet
  facet normal 0 0 -1
    outer loop
      vertex 13.9615 11.4848 0
      vertex 26.25 26.6979 0
      vertex 14.672 11.1228 0
    endloop
  endfacet
  facet normal 0 0 1
    outer loop
      vertex 13.9615 11.4848 3
      vertex 14.672 11.1228 3
      vertex 21.25 21.6979 3
    endloop
  endfacet
  facet normal -0.509063 0.860729 0
    outer loop
      vertex 14.672 -11.1228 0
      vertex 14.672 -11.1228 3
      vertex 15.3583 -10.7169 0
    endloop
  endfacet
  facet normal 0 0 -1
    outer loop
      vertex 14.672 -11.1228 0
      vertex 15.3583 -10.7169 0
      vertex 26.25 -26.6979 0
    endloop
  endfacet
  facet normal -0.509063 0.860729 0
    outer loop
      vertex 14.672 -11.1228 3
      vertex 15.3583 -10.7169 3
      vertex 15.3583 -10.7169 0
    endloop
  endfacet
  facet normal -0 0 1
    outer loop
      vertex 14.672 -11.1228 3
      vertex 21.25 -21.6979 3
      vertex 15.3583 -10.7169 3
    endloop
  endfacet
  facet normal -0.509063 -0.860729 -0
    outer loop
      vertex 14.672 11.1228 0
      vertex 15.3583 10.7169 0
      vertex 15.3583 10.7169 3
    endloop
  endfacet
  facet normal -0.509063 -0.860729 0
    outer loop
      vertex 14.672 11.1228 0
      vertex 15.3583 10.7169 3
      vertex 14.672 11.1228 3
    endloop
  endfacet
  facet normal 0 0 -1
    outer loop
      vertex 14.672 11.1228 0
      vertex 26.25 26.6979 0
      vertex 15.3583 10.7169 0
    endloop
  endfacet
  facet normal 0 0 1
    outer loop
      vertex 14.672 11.1228 3
      vertex 15.3583 10.7169 3
      vertex 21.25 21.6979 3
    endloop
  endfacet
  facet normal -0.562087 0.827078 0
    outer loop
      vertex 15.3583 -10.7169 0
      vertex 15.3583 -10.7169 3
      vertex 16.0178 -10.2687 0
    endloop
  endfacet
  facet normal 0 0 -1
    outer loop
      vertex 15.3583 -10.7169 0
      vertex 16.0178 -10.2687 0
      vertex 26.25 -26.6979 0
    endloop
  endfacet
  facet normal -0.562087 0.827078 0
    outer loop
      vertex 15.3583 -10.7169 3
      vertex 16.0178 -10.2687 3
      vertex 16.0178 -10.2687 0
    endloop
  endfacet
  facet normal -0 0 1
    outer loop
      vertex 15.3583 -10.7169 3
      vertex 21.25 -21.6979 3
      vertex 16.0178 -10.2687 3
    endloop
  endfacet
  facet normal -0.562087 -0.827078 -0
    outer loop
      vertex 15.3583 10.7169 0
      vertex 16.0178 10.2687 0
      vertex 16.0178 10.2687 3
    endloop
  endfacet
  facet normal -0.562087 -0.827078 0
    outer loop
      vertex 15.3583 10.7169 0
      vertex 16.0178 10.2687 3
      vertex 15.3583 10.7169 3
    endloop
  endfacet
  facet normal 0 0 -1
    outer loop
      vertex 15.3583 10.7169 0
      vertex 26.25 26.6979 0
      vertex 16.0178 10.2687 0
    endloop
  endfacet
  facet normal 0 0 1
    outer loop
      vertex 15.3583 10.7169 3
      vertex 16.0178 10.2687 3
      vertex 21.25 21.6979 3
    endloop
  endfacet
  facet normal -0.612871 0.790183 0
    outer loop
      vertex 16.0178 -10.2687 0
      vertex 16.0178 -10.2687 3
      vertex 16.6479 -9.77999 0
    endloop
  endfacet
  facet normal 0 0 -1
    outer loop
      vertex 16.0178 -10.2687 0
      vertex 16.6479 -9.77999 0
      vertex 26.25 -26.6979 0
    endloop
  endfacet
  facet normal -0.612871 0.790183 0
    outer loop
      vertex 16.0178 -10.2687 3
      vertex 16.6479 -9.77999 3
      vertex 16.6479 -9.77999 0
    endloop
  endfacet
  facet normal -0 0 1
    outer loop
      vertex 16.0178 -10.2687 3
      vertex 21.25 -21.6979 3
      vertex 16.6479 -9.77999 3
    endloop
  endfacet
  facet normal -0.612871 -0.790183 -0
    outer loop
      vertex 16.0178 10.2687 0
      vertex 16.6479 9.77999 0
      vertex 16.6479 9.77999 3
    endloop
  endfacet
  facet normal -0.612871 -0.790183 0
    outer loop
      vertex 16.0178 10.2687 0
      vertex 16.6479 9.77999 3
      vertex 16.0178 10.2687 3
    endloop
  endfacet
  facet normal 0 0 -1
    outer loop
      vertex 16.0178 10.2687 0
      vertex 26.25 26.6979 0
      vertex 16.6479 9.77999 0
    endloop
  endfacet
  facet normal 0 0 1
    outer loop
      vertex 16.0178 10.2687 3
      vertex 16.6479 9.77999 3
      vertex 21.25 21.6979 3
    endloop
  endfacet
  facet normal -0.661322 0.750102 0
    outer loop
      vertex 16.6479 -9.77999 0
      vertex 16.6479 -9.77999 3
      vertex 17.246 -9.25268 0
    endloop
  endfacet
  facet normal 0 0 -1
    outer loop
      vertex 16.6479 -9.77999 0
      vertex 17.246 -9.25268 0
      vertex 26.25 -26.6979 0
    endloop
  endfacet
  facet normal -0.661322 0.750102 0
    outer loop
      vertex 16.6479 -9.77999 3
      vertex 17.246 -9.25268 3
      vertex 17.246 -9.25268 0
    endloop
  endfacet
  facet normal -0 0 1
    outer loop
      vertex 16.6479 -9.77999 3
      vertex 21.25 -21.6979 3
      vertex 17.246 -9.25268 3
    endloop
  endfacet
  facet normal -0.661322 -0.750102 -0
    outer loop
      vertex 16.6479 9.77999 0
      vertex 17.246 9.25268 0
      vertex 17.246 9.25268 3
    endloop
  endfacet
  facet normal -0.661322 -0.750102 0
    outer loop
      vertex 16.6479 9.77999 0
      vertex 17.246 9.25268 3
      vertex 16.6479 9.77999 3
    endloop
  endfacet
  facet normal 0 0 -1
    outer loop
      vertex 16.6479 9.77999 0
      vertex 26.25 26.6979 0
      vertex 17.246 9.25268 0
    endloop
  endfacet
  facet normal 0 0 1
    outer loop
      vertex 16.6479 9.77999 3
      vertex 17.246 9.25268 3
      vertex 21.25 21.6979 3
    endloop
  endfacet
  facet normal -0.707132 0.707082 0
    outer loop
      vertex 17.246 -9.25268 0
      vertex 17.246 -9.25268 3
      vertex 17.8098 -8.68884 0
    endloop
  endfacet
  facet normal 0 0 -1
    outer loop
      vertex 17.246 -9.25268 0
      vertex 17.8098 -8.68884 0
      vertex 26.25 -26.6979 0
    endloop
  endfacet
  facet normal -0.707132 0.707082 0
    outer loop
      vertex 17.246 -9.25268 3
      vertex 17.8098 -8.68884 3
      vertex 17.8098 -8.68884 0
    endloop
  endfacet
  facet normal -0 0 1
    outer loop
      vertex 17.246 -9.25268 3
      vertex 21.25 -21.6979 3
      vertex 17.8098 -8.68884 3
    endloop
  endfacet
  facet normal -0.707132 -0.707082 -0
    outer loop
      vertex 17.246 9.25268 0
      vertex 17.8098 8.68884 0
      vertex 17.8098 8.68884 3
    endloop
  endfacet
  facet normal -0.707132 -0.707082 0
    outer loop
      vertex 17.246 9.25268 0
      vertex 17.8098 8.68884 3
      vertex 17.246 9.25268 3
    endloop
  endfacet
  facet normal 0 0 -1
    outer loop
      vertex 17.246 9.25268 0
      vertex 26.25 26.6979 0
      vertex 17.8098 8.68884 0
    endloop
  endfacet
  facet normal 0 0 1
    outer loop
      vertex 17.246 9.25268 3
      vertex 17.8098 8.68884 3
      vertex 21.25 21.6979 3
    endloop
  endfacet
  facet normal -0.750057 0.661373 0
    outer loop
      vertex 17.8098 -8.68884 0
      vertex 17.8098 -8.68884 3
      vertex 18.3372 -8.09072 3
    endloop
  endfacet
  facet normal 0 0 -1
    outer loop
      vertex 17.8098 -8.68884 0
      vertex 18.3372 -8.09072 0
      vertex 26.25 -26.6979 0
    endloop
  endfacet
  facet normal -0.750057 0.661373 0
    outer loop
      vertex 17.8098 -8.68884 0
      vertex 18.3372 -8.09072 3
      vertex 18.3372 -8.09072 0
    endloop
  endfacet
  facet normal -0 0 1
    outer loop
      vertex 17.8098 -8.68884 3
      vertex 21.25 -21.6979 3
      vertex 18.3372 -8.09072 3
    endloop
  endfacet
  facet normal -0.750057 -0.661373 0
    outer loop
      vertex 17.8098 8.68884 0
      vertex 18.3372 8.09072 0
      vertex 17.8098 8.68884 3
    endloop
  endfacet
  facet normal 0 0 -1
    outer loop
      vertex 17.8098 8.68884 0
      vertex 26.25 26.6979 0
      vertex 18.3372 8.09072 0
    endloop
  endfacet
  facet normal -0.750057 -0.661373 0
    outer loop
      vertex 17.8098 8.68884 3
      vertex 18.3372 8.09072 0
      vertex 18.3372 8.09072 3
    endloop
  endfacet
  facet normal 0 0 1
    outer loop
      vertex 17.8098 8.68884 3
      vertex 18.3372 8.09072 3
      vertex 21.25 21.6979 3
    endloop
  endfacet
  facet normal -0.79017 0.612888 0
    outer loop
      vertex 18.3372 -8.09072 0
      vertex 18.3372 -8.09072 3
      vertex 18.8259 -7.46066 3
    endloop
  endfacet
  facet normal 0 0 -1
    outer loop
      vertex 18.3372 -8.09072 0
      vertex 18.8259 -7.46066 0
      vertex 26.25 -26.6979 0
    endloop
  endfacet
  facet normal -0.79017 0.612888 0
    outer loop
      vertex 18.3372 -8.09072 0
      vertex 18.8259 -7.46066 3
      vertex 18.8259 -7.46066 0
    endloop
  endfacet
  facet normal -0 0 1
    outer loop
      vertex 18.3372 -8.09072 3
      vertex 21.25 -21.6979 3
      vertex 18.8259 -7.46066 3
    endloop
  endfacet
  facet normal -0.79017 -0.612888 0
    outer loop
      vertex 18.3372 8.09072 0
      vertex 18.8259 7.46066 0
      vertex 18.3372 8.09072 3
    endloop
  endfacet
  facet normal 0 0 -1
    outer loop
      vertex 18.3372 8.09072 0
      vertex 26.25 26.6979 0
      vertex 18.8259 7.46066 0
    endloop
  endfacet
  facet normal -0.79017 -0.612888 0
    outer loop
      vertex 18.3372 8.09072 3
      vertex 18.8259 7.46066 0
      vertex 18.8259 7.46066 3
    endloop
  endfacet
  facet normal 0 0 1
    outer loop
      vertex 18.3372 8.09072 3
      vertex 18.8259 7.46066 3
      vertex 21.25 21.6979 3
    endloop
  endfacet
  facet normal -0.827078 0.562087 0
    outer loop
      vertex 18.8259 -7.46066 0
      vertex 18.8259 -7.46066 3
      vertex 19.2741 -6.80116 3
    endloop
  endfacet
  facet normal 0 0 -1
    outer loop
      vertex 18.8259 -7.46066 0
      vertex 19.2741 -6.80116 0
      vertex 26.25 -26.6979 0
    endloop
  endfacet
  facet normal -0.827078 0.562087 0
    outer loop
      vertex 18.8259 -7.46066 0
      vertex 19.2741 -6.80116 3
      vertex 19.2741 -6.80116 0
    endloop
  endfacet
  facet normal -0 0 1
    outer loop
      vertex 18.8259 -7.46066 3
      vertex 21.25 -21.6979 3
      vertex 19.2741 -6.80116 3
    endloop
  endfacet
  facet normal -0.827078 -0.562087 0
    outer loop
      vertex 18.8259 7.46066 0
      vertex 19.2741 6.80116 0
      vertex 18.8259 7.46066 3
    endloop
  endfacet
  facet normal 0 0 -1
    outer loop
      vertex 18.8259 7.46066 0
      vertex 26.25 26.6979 0
      vertex 19.2741 6.80116 0
    endloop
  endfacet
  facet normal -0.827078 -0.562087 0
    outer loop
      vertex 18.8259 7.46066 3
      vertex 19.2741 6.80116 0
      vertex 19.2741 6.80116 3
    endloop
  endfacet
  facet normal 0 0 1
    outer loop
      vertex 18.8259 7.46066 3
      vertex 19.2741 6.80116 3
      vertex 21.25 21.6979 3
    endloop
  endfacet
  facet normal -0.860742 0.509041 0
    outer loop
      vertex 19.2741 -6.80116 0
      vertex 19.2741 -6.80116 3
      vertex 19.68 -6.11482 3
    endloop
  endfacet
  facet normal 0 0 -1
    outer loop
      vertex 19.2741 -6.80116 0
      vertex 19.68 -6.11482 0
      vertex 26.25 -26.6979 0
    endloop
  endfacet
  facet normal -0.860742 0.509041 0
    outer loop
      vertex 19.2741 -6.80116 0
      vertex 19.68 -6.11482 3
      vertex 19.68 -6.11482 0
    endloop
  endfacet
  facet normal -0 0 1
    outer loop
      vertex 19.2741 -6.80116 3
      vertex 21.25 -21.6979 3
      vertex 19.68 -6.11482 3
    endloop
  endfacet
  facet normal -0.860742 -0.509041 0
    outer loop
      vertex 19.2741 6.80116 0
      vertex 19.68 6.11482 0
      vertex 19.2741 6.80116 3
    endloop
  endfacet
  facet normal 0 0 -1
    outer loop
      vertex 19.2741 6.80116 0
      vertex 26.25 26.6979 0
      vertex 19.68 6.11482 0
    endloop
  endfacet
  facet normal -0.860742 -0.509041 0
    outer loop
      vertex 19.2741 6.80116 3
      vertex 19.68 6.11482 0
      vertex 19.68 6.11482 3
    endloop
  endfacet
  facet normal 0 0 1
    outer loop
      vertex 19.2741 6.80116 3
      vertex 19.68 6.11482 3
      vertex 21.25 21.6979 3
    endloop
  endfacet
  facet normal -0.89101 0.453983 0
    outer loop
      vertex 19.68 -6.11482 0
      vertex 19.68 -6.11482 3
      vertex 20.042 -5.40434 3
    endloop
  endfacet
  facet normal 0 0 -1
    outer loop
      vertex 19.68 -6.11482 0
      vertex 20.042 -5.40434 0
      vertex 26.25 -26.6979 0
    endloop
  endfacet
  facet normal -0.89101 0.453983 0
    outer loop
      vertex 19.68 -6.11482 0
      vertex 20.042 -5.40434 3
      vertex 20.042 -5.40434 0
    endloop
  endfacet
  facet normal -0 0 1
    outer loop
      vertex 19.68 -6.11482 3
      vertex 21.25 -21.6979 3
      vertex 20.042 -5.40434 3
    endloop
  endfacet
  facet normal -0.89101 -0.453983 0
    outer loop
      vertex 19.68 6.11482 0
      vertex 20.042 5.40434 0
      vertex 19.68 6.11482 3
    endloop
  endfacet
  facet normal 0 0 -1
    outer loop
      vertex 19.68 6.11482 0
      vertex 26.25 26.6979 0
      vertex 20.042 5.40434 0
    endloop
  endfacet
  facet normal -0.89101 -0.453983 0
    outer loop
      vertex 19.68 6.11482 3
      vertex 20.042 5.40434 0
      vertex 20.042 5.40434 3
    endloop
  endfacet
  facet normal 0 0 1
    outer loop
      vertex 19.68 6.11482 3
      vertex 20.042 5.40434 3
      vertex 21.25 21.6979 3
    endloop
  endfacet
  facet normal -0.917745 0.397171 0
    outer loop
      vertex 20.042 -5.40434 0
      vertex 20.042 -5.40434 3
      vertex 20.3587 -4.67254 3
    endloop
  endfacet
  facet normal 0 0 -1
    outer loop
      vertex 20.042 -5.40434 0
      vertex 20.3587 -4.67254 0
      vertex 26.25 -26.6979 0
    endloop
  endfacet
  facet normal -0.917745 0.397171 0
    outer loop
      vertex 20.042 -5.40434 0
      vertex 20.3587 -4.67254 3
      vertex 20.3587 -4.67254 0
    endloop
  endfacet
  facet normal -0 0 1
    outer loop
      vertex 20.042 -5.40434 3
      vertex 21.25 -21.6979 3
      vertex 20.3587 -4.67254 3
    endloop
  endfacet
  facet normal -0.917745 -0.397171 0
    outer loop
      vertex 20.042 5.40434 0
      vertex 20.3587 4.67254 0
      vertex 20.042 5.40434 3
    endloop
  endfacet
  facet normal 0 0 -1
    outer loop
      vertex 20.042 5.40434 0
      vertex 26.25 26.6979 0
      vertex 20.3587 4.67254 0
    endloop
  endfacet
  facet normal -0.917745 -0.397171 0
    outer loop
      vertex 20.042 5.40434 3
      vertex 20.3587 4.67254 0
      vertex 20.3587 4.67254 3
    endloop
  endfacet
  facet normal 0 0 1
    outer loop
      vertex 20.042 5.40434 3
      vertex 20.3587 4.67254 3
      vertex 21.25 21.6979 3
    endloop
  endfacet
  facet normal -0.940882 0.338735 0
    outer loop
      vertex 20.3587 -4.67254 0
      vertex 20.3587 -4.67254 3
      vertex 20.6288 -3.9223 3
    endloop
  endfacet
  facet normal 0 0 -1
    outer loop
      vertex 20.3587 -4.67254 0
      vertex 20.6288 -3.9223 0
      vertex 26.25 -26.6979 0
    endloop
  endfacet
  facet normal -0.940882 0.338735 0
    outer loop
      vertex 20.3587 -4.67254 0
      vertex 20.6288 -3.9223 3
      vertex 20.6288 -3.9223 0
    endloop
  endfacet
  facet normal -0 0 1
    outer loop
      vertex 20.3587 -4.67254 3
      vertex 21.25 -21.6979 3
      vertex 20.6288 -3.9223 3
    endloop
  endfacet
  facet normal -0.940882 -0.338735 0
    outer loop
      vertex 20.3587 4.67254 0
      vertex 20.6288 3.9223 0
      vertex 20.3587 4.67254 3
    endloop
  endfacet
  facet normal 0 0 -1
    outer loop
      vertex 20.3587 4.67254 0
      vertex 26.25 26.6979 0
      vertex 20.6288 3.9223 0
    endloop
  endfacet
  facet normal -0.940882 -0.338735 0
    outer loop
      vertex 20.3587 4.67254 3
      vertex 20.6288 3.9223 0
      vertex 20.6288 3.9223 3
    endloop
  endfacet
  facet normal 0 0 1
    outer loop
      vertex 20.3587 4.67254 3
      vertex 20.6288 3.9223 3
      vertex 21.25 21.6979 3
    endloop
  endfacet
  facet normal -0.960315 0.278919 0
    outer loop
      vertex 20.6288 -3.9223 0
      vertex 20.6288 -3.9223 3
      vertex 20.8512 -3.15658 3
    endloop
  endfacet
  facet normal 0 0 -1
    outer loop
      vertex 20.6288 -3.9223 0
      vertex 20.8512 -3.15658 0
      vertex 26.25 -26.6979 0
    endloop
  endfacet
  facet normal -0.960315 0.278919 0
    outer loop
      vertex 20.6288 -3.9223 0
      vertex 20.8512 -3.15658 3
      vertex 20.8512 -3.15658 0
    endloop
  endfacet
  facet normal -0 0 1
    outer loop
      vertex 20.6288 -3.9223 3
      vertex 21.25 -21.6979 3
      vertex 20.8512 -3.15658 3
    endloop
  endfacet
  facet normal -0.960315 -0.278919 0
    outer loop
      vertex 20.6288 3.9223 0
      vertex 20.8512 3.15658 0
      vertex 20.6288 3.9223 3
    endloop
  endfacet
  facet normal 0 0 -1
    outer loop
      vertex 20.6288 3.9223 0
      vertex 26.25 26.6979 0
      vertex 20.8512 3.15658 0
    endloop
  endfacet
  facet normal -0.960315 -0.278919 0
    outer loop
      vertex 20.6288 3.9223 3
      vertex 20.8512 3.15658 0
      vertex 20.8512 3.15658 3
    endloop
  endfacet
  facet normal 0 0 1
    outer loop
      vertex 20.6288 3.9223 3
      vertex 20.8512 3.15658 3
      vertex 21.25 21.6979 3
    endloop
  endfacet
  facet normal -0.975902 0.21821 0
    outer loop
      vertex 20.8512 -3.15658 0
      vertex 20.8512 -3.15658 3
      vertex 21.0252 -2.3784 3
    endloop
  endfacet
  facet normal 0 0 -1
    outer loop
      vertex 20.8512 -3.15658 0
      vertex 21.0252 -2.3784 0
      vertex 26.25 -26.6979 0
    endloop
  endfacet
  facet normal -0.975902 0.21821 0
    outer loop
      vertex 20.8512 -3.15658 0
      vertex 21.0252 -2.3784 3
      vertex 21.0252 -2.3784 0
    endloop
  endfacet
  facet normal -0 0 1
    outer loop
      vertex 20.8512 -3.15658 3
      vertex 21.25 -21.6979 3
      vertex 21.0252 -2.3784 3
    endloop
  endfacet
  facet normal -0.975902 -0.21821 0
    outer loop
      vertex 20.8512 3.15658 0
      vertex 21.0252 2.3784 0
      vertex 20.8512 3.15658 3
    endloop
  endfacet
  facet normal 0 0 -1
    outer loop
      vertex 20.8512 3.15658 0
      vertex 26.25 26.6979 0
      vertex 21.0252 2.3784 0
    endloop
  endfacet
  facet normal -0.975902 -0.21821 0
    outer loop
      vertex 20.8512 3.15658 3
      vertex 21.0252 2.3784 0
      vertex 21.0252 2.3784 3
    endloop
  endfacet
  facet normal 0 0 1
    outer loop
      vertex 20.8512 3.15658 3
      vertex 21.0252 2.3784 3
      vertex 21.25 21.6979 3
    endloop
  endfacet
  facet normal -0.987696 0.156387 0
    outer loop
      vertex 21.0252 -2.3784 0
      vertex 21.0252 -2.3784 3
      vertex 21.1499 -1.59083 3
    endloop
  endfacet
  facet normal 0 0 -1
    outer loop
      vertex 21.0252 -2.3784 0
      vertex 21.1499 -1.59083 0
      vertex 26.25 -26.6979 0
    endloop
  endfacet
  facet normal -0.987696 0.156387 0
    outer loop
      vertex 21.0252 -2.3784 0
      vertex 21.1499 -1.59083 3
      vertex 21.1499 -1.59083 0
    endloop
  endfacet
  facet normal -0 0 1
    outer loop
      vertex 21.0252 -2.3784 3
      vertex 21.25 -21.6979 3
      vertex 21.1499 -1.59083 3
    endloop
  endfacet
  facet normal -0.987696 -0.156387 0
    outer loop
      vertex 21.0252 2.3784 0
      vertex 21.1499 1.59083 0
      vertex 21.0252 2.3784 3
    endloop
  endfacet
  facet normal 0 0 -1
    outer loop
      vertex 21.0252 2.3784 0
      vertex 26.25 26.6979 0
      vertex 21.1499 1.59083 0
    endloop
  endfacet
  facet normal -0.987696 -0.156387 0
    outer loop
      vertex 21.0252 2.3784 3
      vertex 21.1499 1.59083 0
      vertex 21.1499 1.59083 3
    endloop
  endfacet
  facet normal 0 0 1
    outer loop
      vertex 21.0252 2.3784 3
      vertex 21.1499 1.59083 3
      vertex 21.25 21.6979 3
    endloop
  endfacet
  facet normal -0.995555 0.0941828 0
    outer loop
      vertex 21.1499 -1.59083 0
      vertex 21.1499 -1.59083 3
      vertex 21.225 -0.796989 3
    endloop
  endfacet
  facet normal 0 0 -1
    outer loop
      vertex 21.1499 -1.59083 0
      vertex 21.225 -0.796989 0
      vertex 26.25 -26.6979 0
    endloop
  endfacet
  facet normal -0.995555 0.0941828 0
    outer loop
      vertex 21.1499 -1.59083 0
      vertex 21.225 -0.796989 3
      vertex 21.225 -0.796989 0
    endloop
  endfacet
  facet normal -0 0 1
    outer loop
      vertex 21.1499 -1.59083 3
      vertex 21.25 -21.6979 3
      vertex 21.225 -0.796989 3
    endloop
  endfacet
  facet normal -0.995555 -0.0941828 0
    outer loop
      vertex 21.1499 1.59083 0
      vertex 21.225 0.796989 0
      vertex 21.1499 1.59083 3
    endloop
  endfacet
  facet normal 0 0 -1
    outer loop
      vertex 21.1499 1.59083 0
      vertex 26.25 26.6979 0
      vertex 21.225 0.796989 0
    endloop
  endfacet
  facet normal -0.995555 -0.0941828 0
    outer loop
      vertex 21.1499 1.59083 3
      vertex 21.225 0.796989 0
      vertex 21.225 0.796989 3
    endloop
  endfacet
  facet normal 0 0 1
    outer loop
      vertex 21.1499 1.59083 3
      vertex 21.225 0.796989 3
      vertex 21.25 21.6979 3
    endloop
  endfacet
  facet normal -0.999508 0.0313526 0
    outer loop
      vertex 21.225 -0.796989 0
      vertex 21.225 -0.796989 3
      vertex 21.25 0 3
    endloop
  endfacet
  facet normal 0 0 -1
    outer loop
      vertex 21.225 -0.796989 0
      vertex 21.25 0 0
      vertex 26.25 -26.6979 0
    endloop
  endfacet
  facet normal -0.999508 0.0313526 0
    outer loop
      vertex 21.225 -0.796989 0
      vertex 21.25 0 3
      vertex 21.25 0 0
    endloop
  endfacet
  facet normal -0 0 1
    outer loop
      vertex 21.225 -0.796989 3
      vertex 21.25 -21.6979 3
      vertex 21.25 0 3
    endloop
  endfacet
  facet normal -0.999508 -0.0313526 0
    outer loop
      vertex 21.225 0.796989 0
      vertex 21.25 0 0
      vertex 21.225 0.796989 3
    endloop
  endfacet
  facet normal 0 0 -1
    outer loop
      vertex 21.225 0.796989 0
      vertex 26.25 26.6979 0
      vertex 21.25 0 0
    endloop
  endfacet
  facet normal -0.999508 -0.0313526 0
    outer loop
      vertex 21.225 0.796989 3
      vertex 21.25 0 0
      vertex 21.25 0 3
    endloop
  endfacet
  facet normal 0 0 1
    outer loop
      vertex 21.225 0.796989 3
      vertex 21.25 0 3
      vertex 21.25 21.6979 3
    endloop
  endfacet
  facet normal 0 0 1
    outer loop
      vertex 21.25 -21.6979 13
      vertex 26.25 -26.6979 13
      vertex 26.25 -5 13
    endloop
  endfacet
  facet normal 0 0 1
    outer loop
      vertex 21.25 -21.6979 13
      vertex 26.25 -5 13
      vertex 21.25 -5 13
    endloop
  endfacet
  facet normal -1 -0 0
    outer loop
      vertex 21.25 -21.6979 3
      vertex 21.25 -21.6979 13
      vertex 21.25 -5 13
    endloop
  endfacet
  facet normal -1 0 0
    outer loop
      vertex 21.25 -21.6979 3
      vertex 21.25 -5 13
      vertex 21.25 0 3
    endloop
  endfacet
  facet normal -1 0 0
    outer loop
      vertex 21.25 -5 13
      vertex 21.25 0 8
      vertex 21.25 0 3
    endloop
  endfacet
  facet normal 0 0.707107 0.707107
    outer loop
      vertex 21.25 -5 13
      vertex 26.25 -5 13
      vertex 26.25 0 8
    endloop
  endfacet
  facet normal 0 0.707107 0.707107
    outer loop
      vertex 21.25 -5 13
      vertex 26.25 0 8
      vertex 21.25 0 8
    endloop
  endfacet
  facet normal 0 0 -1
    outer loop
      vertex 21.25 0 0
      vertex 26.25 26.6979 0
      vertex 26.25 -26.6979 0
    endloop
  endfacet
  facet normal -1 0 0
    outer loop
      vertex 21.25 0 3
      vertex 21.25 0 8
      vertex 21.25 5 13
    endloop
  endfacet
  facet normal -1 0 0
    outer loop
      vertex 21.25 0 3
      vertex 21.25 5 13
      vertex 21.25 21.6979 3
    endloop
  endfacet
  facet normal 0 -0.707107 0.707107
    outer loop
      vertex 21.25 0 8
      vertex 26.25 0 8
      vertex 26.25 5 13
    endloop
  endfacet
  facet normal 0 -0.707107 0.707107
    outer loop
      vertex 21.25 0 8
      vertex 26.25 5 13
      vertex 21.25 5 13
    endloop
  endfacet
  facet normal 0 0 1
    outer loop
      vertex 21.25 21.6979 13
      vertex 26.25 5 13
      vertex 26.25 26.6979 13
    endloop
  endfacet
  facet normal -1 0 0
    outer loop
      vertex 21.25 5 13
      vertex 21.25 21.6979 13
      vertex 21.25 21.6979 3
    endloop
  endfacet
  facet normal 0 0 1
    outer loop
      vertex 21.25 5 13
      vertex 26.25 5 13
      vertex 21.25 21.6979 13
    endloop
  endfacet
  facet normal 1 0 0
    outer loop
      vertex 26.25 -26.6979 0
      vertex 26.25 -5 13
      vertex 26.25 -26.6979 13
    endloop
  endfacet
  facet normal 1 0 0
    outer loop
      vertex 26.25 -26.6979 0
      vertex 26.25 0 8
      vertex 26.25 -5 13
    endloop
  endfacet
  facet normal 1 0 0
    outer loop
      vertex 26.25 -26.6979 0
      vertex 26.25 26.6979 0
      vertex 26.25 0 8
    endloop
  endfacet
  facet normal 1 -0 0
    outer loop
      vertex 26.25 0 8
      vertex 26.25 26.6979 0
      vertex 26.25 5 13
    endloop
  endfacet
  facet normal 1 -0 0
    outer loop
      vertex 26.25 5 13
      vertex 26.25 26.6979 0
      vertex 26.25 26.6979 13
    endloop
  endfacet
  facet normal 0 0 1
    outer loop
      vertex 5 -20.6979 3
      vertex 10.148 -12.5927 3
      vertex 9.35416 -12.6678 3
    endloop
  endfacet
  facet normal 0 0 1
    outer loop
      vertex 5 -20.6979 3
      vertex 10.9356 -12.468 3
      vertex 10.148 -12.5927 3
    endloop
  endfacet
  facet normal 0 0 1
    outer loop
      vertex 5 -20.6979 3
      vertex 21.25 -21.6979 3
      vertex 10.9356 -12.468 3
    endloop
  endfacet
  facet normal 0 0 1
    outer loop
      vertex 5 -20.6979 3
      vertex 9.35416 -12.6678 3
      vertex 8.55717 -12.6928 3
    endloop
  endfacet
  facet normal 0 1 0
    outer loop
      vertex 5 -21.6979 3
      vertex 21.25 -21.6979 13
      vertex 21.25 -21.6979 3
    endloop
  endfacet
  facet normal 0 0 1
    outer loop
      vertex 5 -21.6979 3
      vertex 21.25 -21.6979 3
      vertex 5 -20.6979 3
    endloop
  endfacet
  facet normal -0.707107 0 -0.707107
    outer loop
      vertex 5 -21.6979 3
      vertex 5 -20.6979 3
      vertex 8 -20.6979 0
    endloop
  endfacet
  facet normal -0.707107 0 -0.707107
    outer loop
      vertex 5 -21.6979 3
      vertex 8 -20.6979 0
      vertex 8 -26.6979 0
    endloop
  endfacet
  facet normal 0 0 1
    outer loop
      vertex 5 20.6979 3
      vertex 10.148 12.5927 3
      vertex 10.9356 12.468 3
    endloop
  endfacet
  facet normal -0 0 1
    outer loop
      vertex 5 20.6979 3
      vertex 10.9356 12.468 3
      vertex 21.25 21.6979 3
    endloop
  endfacet
  facet normal 0 0 1
    outer loop
      vertex 5 20.6979 3
      vertex 21.25 21.6979 3
      vertex 5 21.6979 3
    endloop
  endfacet
  facet normal -0.707107 -0 -0.707107
    outer loop
      vertex 5 20.6979 3
      vertex 5 21.6979 3
      vertex 8 20.6979 0
    endloop
  endfacet
  facet normal 0 0 1
    outer loop
      vertex 5 20.6979 3
      vertex 8.55717 12.6928 3
      vertex 9.35416 12.6678 3
    endloop
  endfacet
  facet normal 0 0 1
    outer loop
      vertex 5 20.6979 3
      vertex 9.35416 12.6678 3
      vertex 10.148 12.5927 3
    endloop
  endfacet
  facet normal 0 -1 -0
    outer loop
      vertex 5 21.6979 3
      vertex 21.25 21.6979 3
      vertex 21.25 21.6979 13
    endloop
  endfacet
  facet normal -0.707107 0 -0.707107
    outer loop
      vertex 5 21.6979 3
      vertex 8 26.6979 0
      vertex 8 20.6979 0
    endloop
  endfacet
  facet normal 0 0 -1
    outer loop
      vertex 8 -20.6979 0
      vertex 10.148 -12.5927 0
      vertex 10.9356 -12.468 0
    endloop
  endfacet
  facet normal 0 0 -1
    outer loop
      vertex 8 -20.6979 0
      vertex 10.9356 -12.468 0
      vertex 11.7137 -12.2941 0
    endloop
  endfacet
  facet normal 0 0 -1
    outer loop
      vertex 8 -20.6979 0
      vertex 11.7137 -12.2941 0
      vertex 12.4795 -12.0716 0
    endloop
  endfacet
  facet normal 0 0 -1
    outer loop
      vertex 8 -20.6979 0
      vertex 12.4795 -12.0716 0
      vertex 13.2297 -11.8015 0
    endloop
  endfacet
  facet normal 0 0 -1
    outer loop
      vertex 8 -20.6979 0
      vertex 13.2297 -11.8015 0
      vertex 13.9615 -11.4848 0
    endloop
  endfacet
  facet normal 0 0 -1
    outer loop
      vertex 8 -20.6979 0
      vertex 13.9615 -11.4848 0
      vertex 26.25 -26.6979 0
    endloop
  endfacet
  facet normal 0 0 -1
    outer loop
      vertex 8 -20.6979 0
      vertex 8.55717 -12.6928 0
      vertex 9.35416 -12.6678 0
    endloop
  endfacet
  facet normal 0 0 -1
    outer loop
      vertex 8 -20.6979 0
      vertex 9.35416 -12.6678 0
      vertex 10.148 -12.5927 0
    endloop
  endfacet
  facet normal 0 -1 -0
    outer loop
      vertex 8 -26.6979 0
      vertex 26.25 -26.6979 0
      vertex 26.25 -26.6979 13
    endloop
  endfacet
  facet normal 0 0 -1
    outer loop
      vertex 8 -26.6979 0
      vertex 8 -20.6979 0
      vertex 26.25 -26.6979 0
    endloop
  endfacet
  facet normal 0 0 -1
    outer loop
      vertex 8 20.6979 0
      vertex 10.148 12.5927 0
      vertex 9.35416 12.6678 0
    endloop
  endfacet
  facet normal 0 0 -1
    outer loop
      vertex 8 20.6979 0
      vertex 10.9356 12.468 0
      vertex 10.148 12.5927 0
    endloop
  endfacet
  facet normal 0 0 -1
    outer loop
      vertex 8 20.6979 0
      vertex 11.7137 12.2941 0
      vertex 10.9356 12.468 0
    endloop
  endfacet
  facet normal 0 0 -1
    outer loop
      vertex 8 20.6979 0
      vertex 12.4795 12.0716 0
      vertex 11.7137 12.2941 0
    endloop
  endfacet
  facet normal 0 0 -1
    outer loop
      vertex 8 20.6979 0
      vertex 13.2297 11.8015 0
      vertex 12.4795 12.0716 0
    endloop
  endfacet
  facet normal 0 0 -1
    outer loop
      vertex 8 20.6979 0
      vertex 13.9615 11.4848 0
      vertex 13.2297 11.8015 0
    endloop
  endfacet
  facet normal 0 0 -1
    outer loop
      vertex 8 20.6979 0
      vertex 26.25 26.6979 0
      vertex 13.9615 11.4848 0
    endloop
  endfacet
  facet normal -0 0 -1
    outer loop
      vertex 8 20.6979 0
      vertex 8 26.6979 0
      vertex 26.25 26.6979 0
    endloop
  endfacet
  facet normal 0 0 -1
    outer loop
      vertex 8 20.6979 0
      vertex 9.35416 12.6678 0
      vertex 8.55717 12.6928 0
    endloop
  endfacet
  facet normal 0 1 0
    outer loop
      vertex 8 26.6979 0
      vertex 26.25 26.6979 13
      vertex 26.25 26.6979 0
    endloop
  endfacet
  facet normal -0.0313526 0.999508 0
    outer loop
      vertex 8.55717 -12.6928 0
      vertex 8.55717 -12.6928 3
      vertex 9.35416 -12.6678 0
    endloop
  endfacet
  facet normal -0.0313526 0.999508 0
    outer loop
      vertex 8.55717 -12.6928 3
      vertex 9.35416 -12.6678 3
      vertex 9.35416 -12.6678 0
    endloop
  endfacet
  facet normal -0.0313526 -0.999508 -0
    outer loop
      vertex 8.55717 12.6928 0
      vertex 9.35416 12.6678 0
      vertex 9.35416 12.6678 3
    endloop
  endfacet
  facet normal -0.0313526 -0.999508 0
    outer loop
      vertex 8.55717 12.6928 0
      vertex 9.35416 12.6678 3
      vertex 8.55717 12.6928 3
    endloop
  endfacet
  facet normal -0.0941829 0.995555 0
    outer loop
      vertex 9.35416 -12.6678 0
      vertex 9.35416 -12.6678 3
      vertex 10.148 -12.5927 0
    endloop
  endfacet
  facet normal -0.0941829 0.995555 0
    outer loop
      vertex 9.35416 -12.6678 3
      vertex 10.148 -12.5927 3
      vertex 10.148 -12.5927 0
    endloop
  endfacet
  facet normal -0.0941829 -0.995555 -0
    outer loop
      vertex 9.35416 12.6678 0
      vertex 10.148 12.5927 0
      vertex 10.148 12.5927 3
    endloop
  endfacet
  facet normal -0.0941829 -0.995555 0
    outer loop
      vertex 9.35416 12.6678 0
      vertex 10.148 12.5927 3
      vertex 9.35416 12.6678 3
    endloop
  endfacet
endsolid model
