  0
SECTION
  2
BLOCKS
  0
ENDSEC
  0
SECTION
  2
ENTITIES
  0
LINE
  8
0
 10
203.549
 20
0.0215759
 11
204.095
 21
0.0861816
  0
LINE
  8
0
 10
204.095
 20
0.0861816
 11
204.634
 21
0.193405
  0
LINE
  8
0
 10
204.634
 20
0.193405
 11
205.163
 21
0.34259
  0
LINE
  8
0
 10
205.163
 20
0.34259
 11
205.679
 21
0.532837
  0
LINE
  8
0
 10
205.679
 20
0.532837
 11
206.178
 21
0.762955
  0
LINE
  8
0
 10
206.178
 20
0.762955
 11
206.657
 21
1.03151
  0
LINE
  8
0
 10
206.657
 20
1.03151
 11
207.115
 21
1.33687
  0
LINE
  8
0
 10
207.115
 20
1.33687
 11
207.546
 21
1.67715
  0
LINE
  8
0
 10
207.546
 20
1.67715
 11
207.95
 21
2.05025
  0
LINE
  8
0
 10
207.95
 20
2.05025
 11
208.323
 21
2.45386
  0
LINE
  8
0
 10
208.323
 20
2.45386
 11
208.663
 21
2.8855
  0
LINE
  8
0
 10
208.663
 20
2.8855
 11
208.968
 21
3.3425
  0
LINE
  8
0
 10
208.968
 20
3.3425
 11
209.237
 21
3.82207
  0
LINE
  8
0
 10
209.237
 20
3.82207
 11
209.467
 21
4.32121
  0
LINE
  8
0
 10
209.467
 20
4.32121
 11
209.657
 21
4.83687
  0
LINE
  8
0
 10
209.657
 20
4.83687
 11
209.807
 21
5.36588
  0
LINE
  8
0
 10
209.807
 20
5.36588
 11
209.914
 21
5.90495
  0
LINE
  8
0
 10
209.914
 20
5.90495
 11
209.978
 21
6.45078
  0
LINE
  8
0
 10
209.978
 20
6.45078
 11
210
 21
7
  0
LINE
  8
0
 10
210
 20
7
 11
209.978
 21
7.54921
  0
LINE
  8
0
 10
209.978
 20
7.54921
 11
209.914
 21
8.09503
  0
LINE
  8
0
 10
209.914
 20
8.09503
 11
209.807
 21
8.63411
  0
LINE
  8
0
 10
209.807
 20
8.63411
 11
209.657
 21
9.16312
  0
LINE
  8
0
 10
209.657
 20
9.16312
 11
209.467
 21
9.67877
  0
LINE
  8
0
 10
209.467
 20
9.67877
 11
209.237
 21
10.1779
  0
LINE
  8
0
 10
209.237
 20
10.1779
 11
208.968
 21
10.6575
  0
LINE
  8
0
 10
208.968
 20
10.6575
 11
208.663
 21
11.1145
  0
LINE
  8
0
 10
208.663
 20
11.1145
 11
208.323
 21
11.5461
  0
LINE
  8
0
 10
208.323
 20
11.5461
 11
207.95
 21
11.9497
  0
LINE
  8
0
 10
207.95
 20
11.9497
 11
207.546
 21
12.3228
  0
LINE
  8
0
 10
207.546
 20
12.3228
 11
182.546
 21
32.3228
  0
LINE
  8
0
 10
182.546
 20
32.3228
 11
182.115
 21
32.6631
  0
LINE
  8
0
 10
182.115
 20
32.6631
 11
181.657
 21
32.9685
  0
LINE
  8
0
 10
181.657
 20
32.9685
 11
181.178
 21
33.237
  0
LINE
  8
0
 10
181.178
 20
33.237
 11
180.679
 21
33.4671
  0
LINE
  8
0
 10
180.679
 20
33.4671
 11
180.163
 21
33.6574
  0
LINE
  8
0
 10
180.163
 20
33.6574
 11
179.634
 21
33.8066
  0
LINE
  8
0
 10
179.634
 20
33.8066
 11
179.095
 21
33.9138
  0
LINE
  8
0
 10
179.095
 20
33.9138
 11
178.549
 21
33.9784
  0
LINE
  8
0
 10
178.549
 20
33.9784
 11
178
 21
34
  0
LINE
  8
0
 10
178
 20
34
 11
7
 21
34
  0
LINE
  8
0
 10
7
 20
34
 11
6.45078
 21
33.9784
  0
LINE
  8
0
 10
6.45078
 20
33.9784
 11
5.90495
 21
33.9138
  0
LINE
  8
0
 10
5.90495
 20
33.9138
 11
5.36588
 21
33.8066
  0
LINE
  8
0
 10
5.36588
 20
33.8066
 11
4.83687
 21
33.6574
  0
LINE
  8
0
 10
4.83687
 20
33.6574
 11
4.32121
 21
33.4671
  0
LINE
  8
0
 10
4.32121
 20
33.4671
 11
3.82207
 21
33.237
  0
LINE
  8
0
 10
3.82207
 20
33.237
 11
3.3425
 21
32.9685
  0
LINE
  8
0
 10
3.3425
 20
32.9685
 11
2.8855
 21
32.6631
  0
LINE
  8
0
 10
2.8855
 20
32.6631
 11
2.45386
 21
32.3228
  0
LINE
  8
0
 10
2.45386
 20
32.3228
 11
2.05025
 21
31.9497
  0
LINE
  8
0
 10
2.05025
 20
31.9497
 11
1.67715
 21
31.5461
  0
LINE
  8
0
 10
1.67715
 20
31.5461
 11
1.33687
 21
31.1145
  0
LINE
  8
0
 10
1.33687
 20
31.1145
 11
1.03151
 21
30.6575
  0
LINE
  8
0
 10
1.03151
 20
30.6575
 11
0.762955
 21
30.1779
  0
LINE
  8
0
 10
0.762955
 20
30.1779
 11
0.532837
 21
29.6788
  0
LINE
  8
0
 10
0.532837
 20
29.6788
 11
0.34259
 21
29.1631
  0
LINE
  8
0
 10
0.34259
 20
29.1631
 11
0.193405
 21
28.6341
  0
LINE
  8
0
 10
0.193405
 20
28.6341
 11
0.0861816
 21
28.095
  0
LINE
  8
0
 10
0.0861816
 20
28.095
 11
0.0215759
 21
27.5492
  0
LINE
  8
0
 10
0.0215759
 20
27.5492
 11
0
 21
27
  0
LINE
  8
0
 10
0
 20
27
 11
0
 21
7
  0
LINE
  8
0
 10
0
 20
7
 11
0.0215759
 21
6.45078
  0
LINE
  8
0
 10
0.0215759
 20
6.45078
 11
0.0861816
 21
5.90495
  0
LINE
  8
0
 10
0.0861816
 20
5.90495
 11
0.193405
 21
5.36588
  0
LINE
  8
0
 10
0.193405
 20
5.36588
 11
0.34259
 21
4.83687
  0
LINE
  8
0
 10
0.34259
 20
4.83687
 11
0.532837
 21
4.32121
  0
LINE
  8
0
 10
0.532837
 20
4.32121
 11
0.762955
 21
3.82207
  0
LINE
  8
0
 10
0.762955
 20
3.82207
 11
1.03151
 21
3.3425
  0
LINE
  8
0
 10
1.03151
 20
3.3425
 11
1.33687
 21
2.8855
  0
LINE
  8
0
 10
1.33687
 20
2.8855
 11
1.67715
 21
2.45386
  0
LINE
  8
0
 10
1.67715
 20
2.45386
 11
2.05025
 21
2.05025
  0
LINE
  8
0
 10
2.05025
 20
2.05025
 11
2.45386
 21
1.67715
  0
LINE
  8
0
 10
2.45386
 20
1.67715
 11
2.8855
 21
1.33687
  0
LINE
  8
0
 10
2.8855
 20
1.33687
 11
3.3425
 21
1.03151
  0
LINE
  8
0
 10
3.3425
 20
1.03151
 11
3.82207
 21
0.762955
  0
LINE
  8
0
 10
3.82207
 20
0.762955
 11
4.32121
 21
0.532837
  0
LINE
  8
0
 10
4.32121
 20
0.532837
 11
4.83687
 21
0.34259
  0
LINE
  8
0
 10
4.83687
 20
0.34259
 11
5.36588
 21
0.193405
  0
LINE
  8
0
 10
5.36588
 20
0.193405
 11
5.90495
 21
0.0861816
  0
LINE
  8
0
 10
5.90495
 20
0.0861816
 11
6.45078
 21
0.0215759
  0
LINE
  8
0
 10
6.45078
 20
0.0215759
 11
7
 21
0
  0
LINE
  8
0
 10
7
 20
0
 11
203
 21
0
  0
LINE
  8
0
 10
203
 20
0
 11
203.549
 21
0.0215759
  0
LINE
  8
0
 10
6.84308
 20
25.0062
 11
6.68712
 21
25.0246
  0
LINE
  8
0
 10
6.68712
 20
25.0246
 11
6.5331
 21
25.0553
  0
LINE
  8
0
 10
6.5331
 20
25.0553
 11
6.38196
 21
25.0979
  0
LINE
  8
0
 10
6.38196
 20
25.0979
 11
6.23462
 21
25.1522
  0
LINE
  8
0
 10
6.23462
 20
25.1522
 11
6.09201
 21
25.218
  0
LINE
  8
0
 10
6.09201
 20
25.218
 11
5.955
 21
25.2947
  0
LINE
  8
0
 10
5.955
 20
25.2947
 11
5.82442
 21
25.382
  0
LINE
  8
0
 10
5.82442
 20
25.382
 11
5.7011
 21
25.4792
  0
LINE
  8
0
 10
5.7011
 20
25.4792
 11
5.58578
 21
25.5858
  0
LINE
  8
0
 10
5.58578
 20
25.5858
 11
5.47919
 21
25.7011
  0
LINE
  8
0
 10
5.47919
 20
25.7011
 11
5.38196
 21
25.8244
  0
LINE
  8
0
 10
5.38196
 20
25.8244
 11
5.29471
 21
25.955
  0
LINE
  8
0
 10
5.29471
 20
25.955
 11
5.21797
 21
26.092
  0
LINE
  8
0
 10
5.21797
 20
26.092
 11
5.15224
 21
26.2346
  0
LINE
  8
0
 10
5.15224
 20
26.2346
 11
5.09789
 21
26.382
  0
LINE
  8
0
 10
5.09789
 20
26.382
 11
5.05525
 21
26.5331
  0
LINE
  8
0
 10
5.05525
 20
26.5331
 11
5.02461
 21
26.6871
  0
LINE
  8
0
 10
5.02461
 20
26.6871
 11
5.00616
 21
26.8431
  0
LINE
  8
0
 10
5.00616
 20
26.8431
 11
5
 21
27
  0
LINE
  8
0
 10
5
 20
27
 11
5.00616
 21
27.1569
  0
LINE
  8
0
 10
5.00616
 20
27.1569
 11
5.02461
 21
27.3129
  0
LINE
  8
0
 10
5.02461
 20
27.3129
 11
5.05525
 21
27.4669
  0
LINE
  8
0
 10
5.05525
 20
27.4669
 11
5.09789
 21
27.618
  0
LINE
  8
0
 10
5.09789
 20
27.618
 11
5.15224
 21
27.7654
  0
LINE
  8
0
 10
5.15224
 20
27.7654
 11
5.21797
 21
27.908
  0
LINE
  8
0
 10
5.21797
 20
27.908
 11
5.29471
 21
28.045
  0
LINE
  8
0
 10
5.29471
 20
28.045
 11
5.38196
 21
28.1756
  0
LINE
  8
0
 10
5.38196
 20
28.1756
 11
5.47919
 21
28.2989
  0
LINE
  8
0
 10
5.47919
 20
28.2989
 11
5.58578
 21
28.4142
  0
LINE
  8
0
 10
5.58578
 20
28.4142
 11
5.7011
 21
28.5208
  0
LINE
  8
0
 10
5.7011
 20
28.5208
 11
5.82442
 21
28.618
  0
LINE
  8
0
 10
5.82442
 20
28.618
 11
5.955
 21
28.7053
  0
LINE
  8
0
 10
5.955
 20
28.7053
 11
6.09201
 21
28.782
  0
LINE
  8
0
 10
6.09201
 20
28.782
 11
6.23462
 21
28.8477
  0
LINE
  8
0
 10
6.23462
 20
28.8477
 11
6.38196
 21
28.9021
  0
LINE
  8
0
 10
6.38196
 20
28.9021
 11
6.5331
 21
28.9447
  0
LINE
  8
0
 10
6.5331
 20
28.9447
 11
6.68712
 21
28.9754
  0
LINE
  8
0
 10
6.68712
 20
28.9754
 11
6.84308
 21
28.9938
  0
LINE
  8
0
 10
6.84308
 20
28.9938
 11
7
 21
29
  0
LINE
  8
0
 10
7
 20
29
 11
7.15691
 21
28.9938
  0
LINE
  8
0
 10
7.15691
 20
28.9938
 11
7.31287
 21
28.9754
  0
LINE
  8
0
 10
7.31287
 20
28.9754
 11
7.46689
 21
28.9447
  0
LINE
  8
0
 10
7.46689
 20
28.9447
 11
7.61803
 21
28.9021
  0
LINE
  8
0
 10
7.61803
 20
28.9021
 11
7.76537
 21
28.8477
  0
LINE
  8
0
 10
7.76537
 20
28.8477
 11
7.90797
 21
28.782
  0
LINE
  8
0
 10
7.90797
 20
28.782
 11
8.04498
 21
28.7053
  0
LINE
  8
0
 10
8.04498
 20
28.7053
 11
8.17557
 21
28.618
  0
LINE
  8
0
 10
8.17557
 20
28.618
 11
8.29889
 21
28.5208
  0
LINE
  8
0
 10
8.29889
 20
28.5208
 11
8.4142
 21
28.4142
  0
LINE
  8
0
 10
8.4142
 20
28.4142
 11
8.5208
 21
28.2989
  0
LINE
  8
0
 10
8.5208
 20
28.2989
 11
8.61803
 21
28.1756
  0
LINE
  8
0
 10
8.61803
 20
28.1756
 11
8.70528
 21
28.045
  0
LINE
  8
0
 10
8.70528
 20
28.045
 11
8.78201
 21
27.908
  0
LINE
  8
0
 10
8.78201
 20
27.908
 11
8.84775
 21
27.7654
  0
LINE
  8
0
 10
8.84775
 20
27.7654
 11
8.9021
 21
27.618
  0
LINE
  8
0
 10
8.9021
 20
27.618
 11
8.94473
 21
27.4669
  0
LINE
  8
0
 10
8.94473
 20
27.4669
 11
8.97537
 21
27.3129
  0
LINE
  8
0
 10
8.97537
 20
27.3129
 11
8.99382
 21
27.1569
  0
LINE
  8
0
 10
8.99382
 20
27.1569
 11
9
 21
27
  0
LINE
  8
0
 10
9
 20
27
 11
8.99382
 21
26.8431
  0
LINE
  8
0
 10
8.99382
 20
26.8431
 11
8.97537
 21
26.6871
  0
LINE
  8
0
 10
8.97537
 20
26.6871
 11
8.94473
 21
26.5331
  0
LINE
  8
0
 10
8.94473
 20
26.5331
 11
8.9021
 21
26.382
  0
LINE
  8
0
 10
8.9021
 20
26.382
 11
8.84775
 21
26.2346
  0
LINE
  8
0
 10
8.84775
 20
26.2346
 11
8.78201
 21
26.092
  0
LINE
  8
0
 10
8.78201
 20
26.092
 11
8.70528
 21
25.955
  0
LINE
  8
0
 10
8.70528
 20
25.955
 11
8.61803
 21
25.8244
  0
LINE
  8
0
 10
8.61803
 20
25.8244
 11
8.5208
 21
25.7011
  0
LINE
  8
0
 10
8.5208
 20
25.7011
 11
8.4142
 21
25.5858
  0
LINE
  8
0
 10
8.4142
 20
25.5858
 11
8.29889
 21
25.4792
  0
LINE
  8
0
 10
8.29889
 20
25.4792
 11
8.17557
 21
25.382
  0
LINE
  8
0
 10
8.17557
 20
25.382
 11
8.04498
 21
25.2947
  0
LINE
  8
0
 10
8.04498
 20
25.2947
 11
7.90797
 21
25.218
  0
LINE
  8
0
 10
7.90797
 20
25.218
 11
7.76537
 21
25.1522
  0
LINE
  8
0
 10
7.76537
 20
25.1522
 11
7.61803
 21
25.0979
  0
LINE
  8
0
 10
7.61803
 20
25.0979
 11
7.46689
 21
25.0553
  0
LINE
  8
0
 10
7.46689
 20
25.0553
 11
7.31287
 21
25.0246
  0
LINE
  8
0
 10
7.31287
 20
25.0246
 11
7.15691
 21
25.0062
  0
LINE
  8
0
 10
7.15691
 20
25.0062
 11
7
 21
25
  0
LINE
  8
0
 10
7
 20
25
 11
6.84308
 21
25.0062
  0
LINE
  8
0
 10
142.536
 20
23.5734
 11
142.118
 21
23.7865
  0
LINE
  8
0
 10
142.118
 20
23.7865
 11
141.786
 21
24.1183
  0
LINE
  8
0
 10
141.786
 20
24.1183
 11
141.573
 21
24.5365
  0
LINE
  8
0
 10
141.573
 20
24.5365
 11
141.5
 21
25
  0
LINE
  8
0
 10
141.5
 20
25
 11
141.573
 21
25.4635
  0
LINE
  8
0
 10
141.573
 20
25.4635
 11
141.786
 21
25.8817
  0
LINE
  8
0
 10
141.786
 20
25.8817
 11
142.118
 21
26.2135
  0
LINE
  8
0
 10
142.118
 20
26.2135
 11
142.536
 21
26.4266
  0
LINE
  8
0
 10
142.536
 20
26.4266
 11
143
 21
26.5
  0
LINE
  8
0
 10
143
 20
26.5
 11
143.464
 21
26.4266
  0
LINE
  8
0
 10
143.464
 20
26.4266
 11
143.882
 21
26.2135
  0
LINE
  8
0
 10
143.882
 20
26.2135
 11
144.214
 21
25.8817
  0
LINE
  8
0
 10
144.214
 20
25.8817
 11
144.427
 21
25.4635
  0
LINE
  8
0
 10
144.427
 20
25.4635
 11
144.5
 21
25
  0
LINE
  8
0
 10
144.5
 20
25
 11
144.427
 21
24.5365
  0
LINE
  8
0
 10
144.427
 20
24.5365
 11
144.214
 21
24.1183
  0
LINE
  8
0
 10
144.214
 20
24.1183
 11
143.882
 21
23.7865
  0
LINE
  8
0
 10
143.882
 20
23.7865
 11
143.464
 21
23.5734
  0
LINE
  8
0
 10
143.464
 20
23.5734
 11
143
 21
23.5
  0
LINE
  8
0
 10
143
 20
23.5
 11
142.536
 21
23.5734
  0
LINE
  8
0
 10
182.536
 20
21.5734
 11
182.118
 21
21.7865
  0
LINE
  8
0
 10
182.118
 20
21.7865
 11
181.786
 21
22.1183
  0
LINE
  8
0
 10
181.786
 20
22.1183
 11
181.573
 21
22.5365
  0
LINE
  8
0
 10
181.573
 20
22.5365
 11
181.5
 21
23
  0
LINE
  8
0
 10
181.5
 20
23
 11
181.573
 21
23.4635
  0
LINE
  8
0
 10
181.573
 20
23.4635
 11
181.786
 21
23.8817
  0
LINE
  8
0
 10
181.786
 20
23.8817
 11
182.118
 21
24.2135
  0
LINE
  8
0
 10
182.118
 20
24.2135
 11
182.536
 21
24.4266
  0
LINE
  8
0
 10
182.536
 20
24.4266
 11
183
 21
24.5
  0
LINE
  8
0
 10
183
 20
24.5
 11
183.464
 21
24.4266
  0
LINE
  8
0
 10
183.464
 20
24.4266
 11
183.882
 21
24.2135
  0
LINE
  8
0
 10
183.882
 20
24.2135
 11
184.214
 21
23.8817
  0
LINE
  8
0
 10
184.214
 20
23.8817
 11
184.427
 21
23.4635
  0
LINE
  8
0
 10
184.427
 20
23.4635
 11
184.5
 21
23
  0
LINE
  8
0
 10
184.5
 20
23
 11
184.427
 21
22.5365
  0
LINE
  8
0
 10
184.427
 20
22.5365
 11
184.214
 21
22.1183
  0
LINE
  8
0
 10
184.214
 20
22.1183
 11
183.882
 21
21.7865
  0
LINE
  8
0
 10
183.882
 20
21.7865
 11
183.464
 21
21.5734
  0
LINE
  8
0
 10
183.464
 20
21.5734
 11
183
 21
21.5
  0
LINE
  8
0
 10
183
 20
21.5
 11
182.536
 21
21.5734
  0
LINE
  8
0
 10
42.5365
 20
15.5734
 11
42.1183
 21
15.7865
  0
LINE
  8
0
 10
42.1183
 20
15.7865
 11
41.7865
 21
16.1183
  0
LINE
  8
0
 10
41.7865
 20
16.1183
 11
41.5734
 21
16.5365
  0
LINE
  8
0
 10
41.5734
 20
16.5365
 11
41.5
 21
17
  0
LINE
  8
0
 10
41.5
 20
17
 11
41.5734
 21
17.4635
  0
LINE
  8
0
 10
41.5734
 20
17.4635
 11
41.7865
 21
17.8817
  0
LINE
  8
0
 10
41.7865
 20
17.8817
 11
42.1183
 21
18.2135
  0
LINE
  8
0
 10
42.1183
 20
18.2135
 11
42.5365
 21
18.4266
  0
LINE
  8
0
 10
42.5365
 20
18.4266
 11
43
 21
18.5
  0
LINE
  8
0
 10
43
 20
18.5
 11
43.4635
 21
18.4266
  0
LINE
  8
0
 10
43.4635
 20
18.4266
 11
43.8817
 21
18.2135
  0
LINE
  8
0
 10
43.8817
 20
18.2135
 11
44.2135
 21
17.8817
  0
LINE
  8
0
 10
44.2135
 20
17.8817
 11
44.4266
 21
17.4635
  0
LINE
  8
0
 10
44.4266
 20
17.4635
 11
44.5
 21
17
  0
LINE
  8
0
 10
44.5
 20
17
 11
44.4266
 21
16.5365
  0
LINE
  8
0
 10
44.4266
 20
16.5365
 11
44.2135
 21
16.1183
  0
LINE
  8
0
 10
44.2135
 20
16.1183
 11
43.8817
 21
15.7865
  0
LINE
  8
0
 10
43.8817
 20
15.7865
 11
43.4635
 21
15.5734
  0
LINE
  8
0
 10
43.4635
 20
15.5734
 11
43
 21
15.5
  0
LINE
  8
0
 10
43
 20
15.5
 11
42.5365
 21
15.5734
  0
LINE
  8
0
 10
82.5365
 20
15.5734
 11
82.1183
 21
15.7865
  0
LINE
  8
0
 10
82.1183
 20
15.7865
 11
81.7865
 21
16.1183
  0
LINE
  8
0
 10
81.7865
 20
16.1183
 11
81.5734
 21
16.5365
  0
LINE
  8
0
 10
81.5734
 20
16.5365
 11
81.5
 21
17
  0
LINE
  8
0
 10
81.5
 20
17
 11
81.5734
 21
17.4635
  0
LINE
  8
0
 10
81.5734
 20
17.4635
 11
81.7865
 21
17.8817
  0
LINE
  8
0
 10
81.7865
 20
17.8817
 11
82.1183
 21
18.2135
  0
LINE
  8
0
 10
82.1183
 20
18.2135
 11
82.5365
 21
18.4266
  0
LINE
  8
0
 10
82.5365
 20
18.4266
 11
83
 21
18.5
  0
LINE
  8
0
 10
83
 20
18.5
 11
83.4635
 21
18.4266
  0
LINE
  8
0
 10
83.4635
 20
18.4266
 11
83.8817
 21
18.2135
  0
LINE
  8
0
 10
83.8817
 20
18.2135
 11
84.2135
 21
17.8817
  0
LINE
  8
0
 10
84.2135
 20
17.8817
 11
84.4266
 21
17.4635
  0
LINE
  8
0
 10
84.4266
 20
17.4635
 11
84.5
 21
17
  0
LINE
  8
0
 10
84.5
 20
17
 11
84.4266
 21
16.5365
  0
LINE
  8
0
 10
84.4266
 20
16.5365
 11
84.2135
 21
16.1183
  0
LINE
  8
0
 10
84.2135
 20
16.1183
 11
83.8817
 21
15.7865
  0
LINE
  8
0
 10
83.8817
 20
15.7865
 11
83.4635
 21
15.5734
  0
LINE
  8
0
 10
83.4635
 20
15.5734
 11
83
 21
15.5
  0
LINE
  8
0
 10
83
 20
15.5
 11
82.5365
 21
15.5734
  0
LINE
  8
0
 10
6.84308
 20
5.00616
 11
6.68712
 21
5.02461
  0
LINE
  8
0
 10
6.68712
 20
5.02461
 11
6.5331
 21
5.05525
  0
LINE
  8
0
 10
6.5331
 20
5.05525
 11
6.38196
 21
5.09789
  0
LINE
  8
0
 10
6.38196
 20
5.09789
 11
6.23462
 21
5.15224
  0
LINE
  8
0
 10
6.23462
 20
5.15224
 11
6.09201
 21
5.21797
  0
LINE
  8
0
 10
6.09201
 20
5.21797
 11
5.955
 21
5.29471
  0
LINE
  8
0
 10
5.955
 20
5.29471
 11
5.82442
 21
5.38196
  0
LINE
  8
0
 10
5.82442
 20
5.38196
 11
5.7011
 21
5.47919
  0
LINE
  8
0
 10
5.7011
 20
5.47919
 11
5.58578
 21
5.58578
  0
LINE
  8
0
 10
5.58578
 20
5.58578
 11
5.47919
 21
5.7011
  0
LINE
  8
0
 10
5.47919
 20
5.7011
 11
5.38196
 21
5.82442
  0
LINE
  8
0
 10
5.38196
 20
5.82442
 11
5.29471
 21
5.955
  0
LINE
  8
0
 10
5.29471
 20
5.955
 11
5.21797
 21
6.09201
  0
LINE
  8
0
 10
5.21797
 20
6.09201
 11
5.15224
 21
6.23462
  0
LINE
  8
0
 10
5.15224
 20
6.23462
 11
5.09789
 21
6.38196
  0
LINE
  8
0
 10
5.09789
 20
6.38196
 11
5.05525
 21
6.5331
  0
LINE
  8
0
 10
5.05525
 20
6.5331
 11
5.02461
 21
6.68712
  0
LINE
  8
0
 10
5.02461
 20
6.68712
 11
5.00616
 21
6.84308
  0
LINE
  8
0
 10
5.00616
 20
6.84308
 11
5
 21
7
  0
LINE
  8
0
 10
5
 20
7
 11
5.00616
 21
7.15691
  0
LINE
  8
0
 10
5.00616
 20
7.15691
 11
5.02461
 21
7.31287
  0
LINE
  8
0
 10
5.02461
 20
7.31287
 11
5.05525
 21
7.46689
  0
LINE
  8
0
 10
5.05525
 20
7.46689
 11
5.09789
 21
7.61803
  0
LINE
  8
0
 10
5.09789
 20
7.61803
 11
5.15224
 21
7.76537
  0
LINE
  8
0
 10
5.15224
 20
7.76537
 11
5.21797
 21
7.90797
  0
LINE
  8
0
 10
5.21797
 20
7.90797
 11
5.29471
 21
8.04498
  0
LINE
  8
0
 10
5.29471
 20
8.04498
 11
5.38196
 21
8.17557
  0
LINE
  8
0
 10
5.38196
 20
8.17557
 11
5.47919
 21
8.29889
  0
LINE
  8
0
 10
5.47919
 20
8.29889
 11
5.58578
 21
8.4142
  0
LINE
  8
0
 10
5.58578
 20
8.4142
 11
5.7011
 21
8.5208
  0
LINE
  8
0
 10
5.7011
 20
8.5208
 11
5.82442
 21
8.61803
  0
LINE
  8
0
 10
5.82442
 20
8.61803
 11
5.955
 21
8.70528
  0
LINE
  8
0
 10
5.955
 20
8.70528
 11
6.09201
 21
8.78201
  0
LINE
  8
0
 10
6.09201
 20
8.78201
 11
6.23462
 21
8.84775
  0
LINE
  8
0
 10
6.23462
 20
8.84775
 11
6.38196
 21
8.9021
  0
LINE
  8
0
 10
6.38196
 20
8.9021
 11
6.5331
 21
8.94473
  0
LINE
  8
0
 10
6.5331
 20
8.94473
 11
6.68712
 21
8.97537
  0
LINE
  8
0
 10
6.68712
 20
8.97537
 11
6.84308
 21
8.99382
  0
LINE
  8
0
 10
6.84308
 20
8.99382
 11
7
 21
9
  0
LINE
  8
0
 10
7
 20
9
 11
7.15691
 21
8.99382
  0
LINE
  8
0
 10
7.15691
 20
8.99382
 11
7.31287
 21
8.97537
  0
LINE
  8
0
 10
7.31287
 20
8.97537
 11
7.46689
 21
8.94473
  0
LINE
  8
0
 10
7.46689
 20
8.94473
 11
7.61803
 21
8.9021
  0
LINE
  8
0
 10
7.61803
 20
8.9021
 11
7.76537
 21
8.84775
  0
LINE
  8
0
 10
7.76537
 20
8.84775
 11
7.90797
 21
8.78201
  0
LINE
  8
0
 10
7.90797
 20
8.78201
 11
8.04498
 21
8.70528
  0
LINE
  8
0
 10
8.04498
 20
8.70528
 11
8.17557
 21
8.61803
  0
LINE
  8
0
 10
8.17557
 20
8.61803
 11
8.29889
 21
8.5208
  0
LINE
  8
0
 10
8.29889
 20
8.5208
 11
8.4142
 21
8.4142
  0
LINE
  8
0
 10
8.4142
 20
8.4142
 11
8.5208
 21
8.29889
  0
LINE
  8
0
 10
8.5208
 20
8.29889
 11
8.61803
 21
8.17557
  0
LINE
  8
0
 10
8.61803
 20
8.17557
 11
8.70528
 21
8.04498
  0
LINE
  8
0
 10
8.70528
 20
8.04498
 11
8.78201
 21
7.90797
  0
LINE
  8
0
 10
8.78201
 20
7.90797
 11
8.84775
 21
7.76537
  0
LINE
  8
0
 10
8.84775
 20
7.76537
 11
8.9021
 21
7.61803
  0
LINE
  8
0
 10
8.9021
 20
7.61803
 11
8.94473
 21
7.46689
  0
LINE
  8
0
 10
8.94473
 20
7.46689
 11
8.97537
 21
7.31287
  0
LINE
  8
0
 10
8.97537
 20
7.31287
 11
8.99382
 21
7.15691
  0
LINE
  8
0
 10
8.99382
 20
7.15691
 11
9
 21
7
  0
LINE
  8
0
 10
9
 20
7
 11
8.99382
 21
6.84308
  0
LINE
  8
0
 10
8.99382
 20
6.84308
 11
8.97537
 21
6.68712
  0
LINE
  8
0
 10
8.97537
 20
6.68712
 11
8.94473
 21
6.5331
  0
LINE
  8
0
 10
8.94473
 20
6.5331
 11
8.9021
 21
6.38196
  0
LINE
  8
0
 10
8.9021
 20
6.38196
 11
8.84775
 21
6.23462
  0
LINE
  8
0
 10
8.84775
 20
6.23462
 11
8.78201
 21
6.09201
  0
LINE
  8
0
 10
8.78201
 20
6.09201
 11
8.70528
 21
5.955
  0
LINE
  8
0
 10
8.70528
 20
5.955
 11
8.61803
 21
5.82442
  0
LINE
  8
0
 10
8.61803
 20
5.82442
 11
8.5208
 21
5.7011
  0
LINE
  8
0
 10
8.5208
 20
5.7011
 11
8.4142
 21
5.58578
  0
LINE
  8
0
 10
8.4142
 20
5.58578
 11
8.29889
 21
5.47919
  0
LINE
  8
0
 10
8.29889
 20
5.47919
 11
8.17557
 21
5.38196
  0
LINE
  8
0
 10
8.17557
 20
5.38196
 11
8.04498
 21
5.29471
  0
LINE
  8
0
 10
8.04498
 20
5.29471
 11
7.90797
 21
5.21797
  0
LINE
  8
0
 10
7.90797
 20
5.21797
 11
7.76537
 21
5.15224
  0
LINE
  8
0
 10
7.76537
 20
5.15224
 11
7.61803
 21
5.09789
  0
LINE
  8
0
 10
7.61803
 20
5.09789
 11
7.46689
 21
5.05525
  0
LINE
  8
0
 10
7.46689
 20
5.05525
 11
7.31287
 21
5.02461
  0
LINE
  8
0
 10
7.31287
 20
5.02461
 11
7.15691
 21
5.00616
  0
LINE
  8
0
 10
7.15691
 20
5.00616
 11
7
 21
5
  0
LINE
  8
0
 10
7
 20
5
 11
6.84308
 21
5.00616
  0
LINE
  8
0
 10
162.536
 20
5.57341
 11
162.118
 21
5.78647
  0
LINE
  8
0
 10
162.118
 20
5.78647
 11
161.786
 21
6.11832
  0
LINE
  8
0
 10
161.786
 20
6.11832
 11
161.573
 21
6.53647
  0
LINE
  8
0
 10
161.573
 20
6.53647
 11
161.5
 21
7
  0
LINE
  8
0
 10
161.5
 20
7
 11
161.573
 21
7.46352
  0
LINE
  8
0
 10
161.573
 20
7.46352
 11
161.786
 21
7.88167
  0
LINE
  8
0
 10
161.786
 20
7.88167
 11
162.118
 21
8.21352
  0
LINE
  8
0
 10
162.118
 20
8.21352
 11
162.536
 21
8.42657
  0
LINE
  8
0
 10
162.536
 20
8.42657
 11
163
 21
8.5
  0
LINE
  8
0
 10
163
 20
8.5
 11
163.464
 21
8.42657
  0
LINE
  8
0
 10
163.464
 20
8.42657
 11
163.882
 21
8.21352
  0
LINE
  8
0
 10
163.882
 20
8.21352
 11
164.214
 21
7.88167
  0
LINE
  8
0
 10
164.214
 20
7.88167
 11
164.427
 21
7.46352
  0
LINE
  8
0
 10
164.427
 20
7.46352
 11
164.5
 21
7
  0
LINE
  8
0
 10
164.5
 20
7
 11
164.427
 21
6.53647
  0
LINE
  8
0
 10
164.427
 20
6.53647
 11
164.214
 21
6.11832
  0
LINE
  8
0
 10
164.214
 20
6.11832
 11
163.882
 21
5.78647
  0
LINE
  8
0
 10
163.882
 20
5.78647
 11
163.464
 21
5.57341
  0
LINE
  8
0
 10
163.464
 20
5.57341
 11
163
 21
5.5
  0
LINE
  8
0
 10
163
 20
5.5
 11
162.536
 21
5.57341
  0
LINE
  8
0
 10
202.536
 20
5.57341
 11
202.118
 21
5.78647
  0
LINE
  8
0
 10
202.118
 20
5.78647
 11
201.786
 21
6.11832
  0
LINE
  8
0
 10
201.786
 20
6.11832
 11
201.573
 21
6.53647
  0
LINE
  8
0
 10
201.573
 20
6.53647
 11
201.5
 21
7
  0
LINE
  8
0
 10
201.5
 20
7
 11
201.573
 21
7.46352
  0
LINE
  8
0
 10
201.573
 20
7.46352
 11
201.786
 21
7.88167
  0
LINE
  8
0
 10
201.786
 20
7.88167
 11
202.118
 21
8.21352
  0
LINE
  8
0
 10
202.118
 20
8.21352
 11
202.536
 21
8.42657
  0
LINE
  8
0
 10
202.536
 20
8.42657
 11
203
 21
8.5
  0
LINE
  8
0
 10
203
 20
8.5
 11
203.464
 21
8.42657
  0
LINE
  8
0
 10
203.464
 20
8.42657
 11
203.882
 21
8.21352
  0
LINE
  8
0
 10
203.882
 20
8.21352
 11
204.214
 21
7.88167
  0
LINE
  8
0
 10
204.214
 20
7.88167
 11
204.427
 21
7.46352
  0
LINE
  8
0
 10
204.427
 20
7.46352
 11
204.5
 21
7
  0
LINE
  8
0
 10
204.5
 20
7
 11
204.427
 21
6.53647
  0
LINE
  8
0
 10
204.427
 20
6.53647
 11
204.214
 21
6.11832
  0
LINE
  8
0
 10
204.214
 20
6.11832
 11
203.882
 21
5.78647
  0
LINE
  8
0
 10
203.882
 20
5.78647
 11
203.464
 21
5.57341
  0
LINE
  8
0
 10
203.464
 20
5.57341
 11
203
 21
5.5
  0
LINE
  8
0
 10
203
 20
5.5
 11
202.536
 21
5.57341
  0
LINE
  8
0
 10
122.536
 20
5.57341
 11
122.118
 21
5.78647
  0
LINE
  8
0
 10
122.118
 20
5.78647
 11
121.786
 21
6.11832
  0
LINE
  8
0
 10
121.786
 20
6.11832
 11
121.573
 21
6.53647
  0
LINE
  8
0
 10
121.573
 20
6.53647
 11
121.5
 21
7
  0
LINE
  8
0
 10
121.5
 20
7
 11
121.573
 21
7.46352
  0
LINE
  8
0
 10
121.573
 20
7.46352
 11
121.786
 21
7.88167
  0
LINE
  8
0
 10
121.786
 20
7.88167
 11
122.118
 21
8.21352
  0
LINE
  8
0
 10
122.118
 20
8.21352
 11
122.536
 21
8.42657
  0
LINE
  8
0
 10
122.536
 20
8.42657
 11
123
 21
8.5
  0
LINE
  8
0
 10
123
 20
8.5
 11
123.464
 21
8.42657
  0
LINE
  8
0
 10
123.464
 20
8.42657
 11
123.882
 21
8.21352
  0
LINE
  8
0
 10
123.882
 20
8.21352
 11
124.214
 21
7.88167
  0
LINE
  8
0
 10
124.214
 20
7.88167
 11
124.427
 21
7.46352
  0
LINE
  8
0
 10
124.427
 20
7.46352
 11
124.5
 21
7
  0
LINE
  8
0
 10
124.5
 20
7
 11
124.427
 21
6.53647
  0
LINE
  8
0
 10
124.427
 20
6.53647
 11
124.214
 21
6.11832
  0
LINE
  8
0
 10
124.214
 20
6.11832
 11
123.882
 21
5.78647
  0
LINE
  8
0
 10
123.882
 20
5.78647
 11
123.464
 21
5.57341
  0
LINE
  8
0
 10
123.464
 20
5.57341
 11
123
 21
5.5
  0
LINE
  8
0
 10
123
 20
5.5
 11
122.536
 21
5.57341
  0
ENDSEC
  0
SECTION
  2
OBJECTS
  0
DICTIONARY
  0
ENDSEC
  0
EOF
